<svg xmlns="http://www.w3.org/2000/svg" width="74" height="48" viewBox="0 0 74 48"><title>cc-link_ie_dmc_1000sl</title><rect width="74" height="48" fill="#fff"/><line x1="20.148" y1="24" x2="53.852" y2="24" fill="none" stroke="#ef8200" stroke-miterlimit="10" stroke-width="1.048"/><rect x="46.219" y="0.375" width="15.267" height="47.25" fill="#919191"/><polygon points="47.204 46.63 47.204 1.37 61.486 1.37 61.486 0.872 46.711 0.872 46.711 47.128 61.486 47.128 61.486 46.63 47.204 46.63" fill="#1f1f1f"/><rect x="51.763" y="5.158" width="4.734" height="7.105" fill="#1f1f1f"/><rect x="51.956" y="5.42" width="4.347" height="6.58" fill="#717071"/><rect x="52.3" y="5.777" width="3.659" height="5.867" fill="#919191"/><rect x="51.763" y="12.748" width="4.734" height="7.105" fill="#1f1f1f"/><rect x="51.763" y="30.447" width="4.833" height="15.132" fill="#4b4847"/><path d="M52.452,45.315a0.5,0.5,0,0,1-.493-0.5V31.078a0.5,0.5,0,0,1,.493-0.5h3.454a0.5,0.5,0,0,1,.492.5V44.817a0.5,0.5,0,0,1-.492.5H52.452Z" fill="#fff"/><path d="M52.452,30.979h3.453a0.1,0.1,0,0,1,.1.1v13.74a0.1,0.1,0,0,1-.1.1H52.453a0.1,0.1,0,0,1-.1-0.1V31.077A0.1,0.1,0,0,1,52.452,30.979Z" fill="#6f6f6f"/><rect x="51.956" y="13.01" width="4.347" height="6.58" fill="#717071"/><rect x="52.3" y="13.367" width="3.659" height="5.867" fill="#919191"/><rect x="51.343" y="33.758" width="6.486" height="8.51" fill="#bebfbf"/><rect x="51.568" y="34.277" width="6.036" height="7.471" fill="#f2f2f2" stroke="#d8d8d9" stroke-width="0.14"/><polygon points="57.829 41.047 51.343 41.017 51.343 35.009 57.829 35.038 57.829 41.047" fill="#e8e8e8"/><polygon points="55.602 41.047 51.343 41.017 51.343 35.009 55.602 35.038 55.602 41.047" fill="#ebecec"/><rect x="50.59" y="37.267" width="4.488" height="1.521" fill="#e5e5e6" stroke="#f2f2f2" stroke-width="0.14"/><rect x="50.59" y="35.483" width="4.488" height="1.521" fill="#e5e5e6" stroke="#f2f2f2" stroke-width="0.14"/><rect x="50.59" y="39.052" width="4.488" height="1.521" fill="#e5e5e6" stroke="#f2f2f2" stroke-width="0.14"/><ellipse cx="56.354" cy="36.243" rx="0.709" ry="0.716" fill="#a0a0a1" stroke="#f2f2f2" stroke-width="0.14"/><ellipse cx="56.354" cy="38.028" rx="0.709" ry="0.716" fill="#a0a0a1" stroke="#f2f2f2" stroke-width="0.14"/><ellipse cx="56.354" cy="39.812" rx="0.709" ry="0.716" fill="#a0a0a1" stroke="#f2f2f2" stroke-width="0.14"/><rect x="53.305" y="33.451" width="2.563" height="0.827" fill="#dedede" stroke="#f5f5f5" stroke-width="0.14"/><rect x="52.452" y="31.433" width="4.469" height="2.018" fill="#f2f2f2" stroke="#d8d8d9" stroke-width="0.14"/><rect x="53.305" y="41.778" width="2.563" height="0.827" fill="#dedede" stroke="#f5f5f5" stroke-width="0.14"/><rect x="52.452" y="42.605" width="4.469" height="2.018" fill="#f2f2f2" stroke="#d8d8d9" stroke-width="0.14"/><ellipse cx="54.326" cy="23.142" rx="0.753" ry="0.76" fill="#6aab64" stroke="#3d6c3b" stroke-width="0.14"/><ellipse cx="54.326" cy="3.023" rx="0.753" ry="0.76" fill="#6aab64" stroke="#3d6c3b" stroke-width="0.14"/><ellipse cx="54.326" cy="28.699" rx="0.753" ry="0.76" fill="#e74138" stroke="#814743" stroke-width="0.14"/><rect x="46.219" y="0.375" width="15.267" height="47.25" fill="none" stroke="#000" stroke-linecap="round" stroke-linejoin="round" stroke-width="0.262"/><rect x="12.514" y="0.375" width="15.267" height="47.25" fill="#919191"/><polygon points="13.499 46.63 13.499 1.37 27.781 1.37 27.781 0.872 13.007 0.872 13.007 47.128 27.781 47.128 27.781 46.63 13.499 46.63" fill="#1f1f1f"/><rect x="18.059" y="5.158" width="4.734" height="7.105" fill="#1f1f1f"/><rect x="18.252" y="5.42" width="4.347" height="6.58" fill="#717071"/><rect x="18.596" y="5.777" width="3.659" height="5.867" fill="#919191"/><rect x="18.059" y="12.748" width="4.734" height="7.105" fill="#1f1f1f"/><rect x="18.059" y="30.447" width="4.833" height="15.132" fill="#4b4847"/><path d="M18.748,45.315a0.5,0.5,0,0,1-.493-0.5V31.078a0.5,0.5,0,0,1,.493-0.5H22.2a0.5,0.5,0,0,1,.492.5V44.817a0.5,0.5,0,0,1-.492.5H18.748Z" fill="#fff"/><path d="M18.748,30.979H22.2a0.1,0.1,0,0,1,.1.1v13.74a0.1,0.1,0,0,1-.1.1H18.748a0.1,0.1,0,0,1-.1-0.1V31.077A0.1,0.1,0,0,1,18.748,30.979Z" fill="#6f6f6f"/><rect x="18.252" y="13.01" width="4.347" height="6.58" fill="#717071"/><rect x="18.596" y="13.367" width="3.659" height="5.867" fill="#919191"/><rect x="17.639" y="33.758" width="6.486" height="8.51" fill="#bebfbf"/><rect x="17.864" y="34.277" width="6.036" height="7.471" fill="#f2f2f2" stroke="#d8d8d9" stroke-width="0.14"/><polygon points="24.125 41.047 17.639 41.017 17.639 35.009 24.125 35.038 24.125 41.047" fill="#e8e8e8"/><polygon points="21.898 41.047 17.639 41.017 17.639 35.009 21.898 35.038 21.898 41.047" fill="#ebecec"/><rect x="16.886" y="37.267" width="4.488" height="1.521" fill="#e5e5e6" stroke="#f2f2f2" stroke-width="0.14"/><rect x="16.886" y="35.483" width="4.488" height="1.521" fill="#e5e5e6" stroke="#f2f2f2" stroke-width="0.14"/><rect x="16.886" y="39.052" width="4.488" height="1.521" fill="#e5e5e6" stroke="#f2f2f2" stroke-width="0.14"/><ellipse cx="22.65" cy="36.243" rx="0.709" ry="0.716" fill="#a0a0a1" stroke="#f2f2f2" stroke-width="0.14"/><ellipse cx="22.65" cy="38.028" rx="0.709" ry="0.716" fill="#a0a0a1" stroke="#f2f2f2" stroke-width="0.14"/><ellipse cx="22.65" cy="39.812" rx="0.709" ry="0.716" fill="#a0a0a1" stroke="#f2f2f2" stroke-width="0.14"/><rect x="19.601" y="33.451" width="2.563" height="0.827" fill="#dedede" stroke="#f5f5f5" stroke-width="0.14"/><rect x="18.748" y="31.433" width="4.469" height="2.018" fill="#f2f2f2" stroke="#d8d8d9" stroke-width="0.14"/><rect x="19.601" y="41.778" width="2.563" height="0.827" fill="#dedede" stroke="#f5f5f5" stroke-width="0.14"/><rect x="18.748" y="42.605" width="4.469" height="2.018" fill="#f2f2f2" stroke="#d8d8d9" stroke-width="0.14"/><ellipse cx="20.621" cy="23.142" rx="0.753" ry="0.76" fill="#6aab64" stroke="#3d6c3b" stroke-width="0.14"/><ellipse cx="20.621" cy="3.023" rx="0.753" ry="0.76" fill="#6aab64" stroke="#3d6c3b" stroke-width="0.14"/><ellipse cx="20.621" cy="28.699" rx="0.753" ry="0.76" fill="#e74138" stroke="#814743" stroke-width="0.14"/><rect x="12.514" y="0.375" width="15.267" height="47.25" fill="none" stroke="#000" stroke-linecap="round" stroke-linejoin="round" stroke-width="0.262"/></svg>