<svg xmlns="http://www.w3.org/2000/svg" width="74" height="48.002" viewBox="0 0 74 48.002"><title>cc-link_rps</title><rect y="0.001" width="74" height="48" fill="#fff"/><line x1="50.323" y1="10.306" x2="50.323" y2="39.479" fill="none" stroke="#954f00" stroke-linecap="round" stroke-linejoin="round" stroke-width="1.306"/><line x1="50.323" y1="10.306" x2="50.323" y2="39.479" fill="none" stroke="#d97700" stroke-linecap="round" stroke-linejoin="round" stroke-width="0.784"/><rect x="15.292" y="29.27" width="43.417" height="18.634" fill="#919191"/><rect x="16.194" y="39.479" width="41.612" height="8.426" fill="#1f1f1f"/><rect x="16.52" y="39.856" width="40.96" height="8.049" fill="#717071"/><ellipse cx="19.117" cy="42.137" rx="0.901" ry="0.913" fill="gray"/><rect x="16.52" y="44.431" width="13.478" height="3.474" fill="#595757"/><rect x="30.172" y="44.431" width="27.308" height="3.474" fill="#595757"/><path d="M57.311,33.7a1.611,1.611,0,0,0,0,3.221h1.4V33.7h-1.4Z" transform="translate(0 0.001)" fill="#141414"/><ellipse cx="57.311" cy="35.315" rx="0.974" ry="0.986" fill="#fff"/><path d="M17.058,33.7a1.611,1.611,0,0,1,0,3.221H15.292V33.7h1.766Z" transform="translate(0 0.001)" fill="#141414"/><ellipse cx="17.058" cy="35.315" rx="0.974" ry="0.986" fill="#fff"/><path d="M55.353,35.314a1.973,1.973,0,0,1,1.958-1.983h0.9v-3.54H15.789v3.54h1.269a1.984,1.984,0,0,1,0,3.967H15.789v1.289H58.211V37.3h-0.9A1.973,1.973,0,0,1,55.353,35.314Z" transform="translate(0 0.001)" fill="none" stroke="#333" stroke-width="0.131"/><rect x="18.857" y="31.141" width="0.714" height="1.643" fill="#1f1f1f"/><rect x="20.761" y="31.141" width="0.714" height="1.643" fill="#1f1f1f"/><rect x="22.665" y="31.141" width="0.714" height="1.643" fill="#1f1f1f"/><rect x="24.46" y="31.141" width="0.714" height="1.643" fill="#1f1f1f"/><rect x="26.169" y="31.141" width="0.714" height="1.643" fill="#1f1f1f"/><rect x="28.268" y="31.141" width="0.714" height="1.643" fill="#1f1f1f"/><rect x="29.977" y="31.141" width="0.714" height="1.643" fill="#1f1f1f"/><path d="M19.413,42.136l0.163-.165a0.129,0.129,0,0,0,0-.181l-0.118-.119a0.125,0.125,0,0,0-.179,0l-0.163.165-0.163-.165a0.125,0.125,0,0,0-.179,0l-0.118.119a0.129,0.129,0,0,0,0,.181l0.163,0.165-0.163.165a0.129,0.129,0,0,0,0,.181L18.774,42.6a0.126,0.126,0,0,0,.179,0l0.163-.165L19.279,42.6a0.125,0.125,0,0,0,.179,0l0.118-.119a0.129,0.129,0,0,0,0-.181Z" transform="translate(0 0.001)" fill="#333"/><ellipse cx="21.902" cy="42.137" rx="0.901" ry="0.913" fill="gray"/><path d="M22.2,42.136l0.163-.165a0.129,0.129,0,0,0,0-.181l-0.118-.119a0.125,0.125,0,0,0-.179,0l-0.163.165-0.163-.165a0.125,0.125,0,0,0-.179,0l-0.118.119a0.129,0.129,0,0,0,0,.181L21.6,42.136l-0.163.165a0.129,0.129,0,0,0,0,.181L21.56,42.6a0.126,0.126,0,0,0,.179,0l0.163-.165L22.064,42.6a0.125,0.125,0,0,0,.179,0l0.118-.119a0.129,0.129,0,0,0,0-.181Z" transform="translate(0 0.001)" fill="#333"/><ellipse cx="24.687" cy="42.137" rx="0.901" ry="0.913" fill="gray"/><path d="M24.983,42.136l0.163-.165a0.129,0.129,0,0,0,0-.181l-0.118-.119a0.125,0.125,0,0,0-.179,0l-0.163.165-0.163-.165a0.125,0.125,0,0,0-.179,0l-0.118.119a0.129,0.129,0,0,0,0,.181l0.163,0.165-0.163.165a0.129,0.129,0,0,0,0,.181L24.345,42.6a0.126,0.126,0,0,0,.179,0l0.163-.165L24.849,42.6a0.125,0.125,0,0,0,.179,0l0.118-.119a0.129,0.129,0,0,0,0-.181Z" transform="translate(0 0.001)" fill="#333"/><ellipse cx="54.402" cy="42.152" rx="1.484" ry="1.504" fill="#141414"/><ellipse cx="54.402" cy="42.152" rx="1.063" ry="1.077" fill="#595757"/><ellipse cx="27.472" cy="42.137" rx="0.901" ry="0.913" fill="gray"/><path d="M27.768,42.136l0.163-.165a0.129,0.129,0,0,0,0-.181l-0.118-.119a0.125,0.125,0,0,0-.179,0l-0.163.165-0.163-.165a0.125,0.125,0,0,0-.179,0l-0.118.119a0.129,0.129,0,0,0,0,.181l0.163,0.165-0.163.165a0.129,0.129,0,0,0,0,.181L27.13,42.6a0.126,0.126,0,0,0,.179,0l0.163-.165L27.634,42.6a0.125,0.125,0,0,0,.179,0l0.118-.119a0.129,0.129,0,0,0,0-.181Z" transform="translate(0 0.001)" fill="#333"/><ellipse cx="20.495" cy="45.936" rx="0.901" ry="0.913" fill="gray"/><path d="M20.792,45.935l0.163-.165a0.129,0.129,0,0,0,0-.181l-0.118-.119a0.125,0.125,0,0,0-.179,0l-0.163.165-0.163-.165a0.125,0.125,0,0,0-.179,0l-0.118.119a0.129,0.129,0,0,0,0,.181L20.2,45.935l-0.163.165a0.129,0.129,0,0,0,0,.181L20.153,46.4a0.126,0.126,0,0,0,.179,0l0.163-.165L20.658,46.4a0.125,0.125,0,0,0,.179,0l0.118-.119a0.129,0.129,0,0,0,0-.181Z" transform="translate(0 0.001)" fill="#333"/><ellipse cx="23.28" cy="45.936" rx="0.901" ry="0.913" fill="gray"/><path d="M23.577,45.935l0.163-.165a0.129,0.129,0,0,0,0-.181l-0.118-.119a0.125,0.125,0,0,0-.179,0l-0.163.165-0.163-.165a0.125,0.125,0,0,0-.179,0l-0.118.119a0.129,0.129,0,0,0,0,.181l0.163,0.165L22.82,46.1a0.129,0.129,0,0,0,0,.181L22.938,46.4a0.126,0.126,0,0,0,.179,0l0.163-.165L23.443,46.4a0.125,0.125,0,0,0,.179,0l0.118-.119a0.129,0.129,0,0,0,0-.181Z" transform="translate(0 0.001)" fill="#333"/><ellipse cx="26.065" cy="45.936" rx="0.901" ry="0.913" fill="gray"/><path d="M26.362,45.935l0.163-.165a0.129,0.129,0,0,0,0-.181l-0.118-.119a0.125,0.125,0,0,0-.179,0l-0.163.165L25.9,45.47a0.125,0.125,0,0,0-.179,0l-0.118.119a0.129,0.129,0,0,0,0,.181l0.163,0.165-0.163.165a0.129,0.129,0,0,0,0,.181L25.723,46.4a0.126,0.126,0,0,0,.179,0l0.163-.165L26.228,46.4a0.125,0.125,0,0,0,.179,0l0.118-.119a0.129,0.129,0,0,0,0-.181Z" transform="translate(0 0.001)" fill="#333"/><rect x="29.998" y="39.479" width="0.174" height="8.426" fill="#1f1f1f"/><rect x="15.292" y="29.27" width="43.417" height="18.634" fill="none" stroke="#231815" stroke-width="0.196"/><path d="M57.311,33.331H55.745V31.676h-11.6v3.988H55.385a2.019,2.019,0,0,1-.032-0.35A1.973,1.973,0,0,1,57.311,33.331Z" transform="translate(0 0.001)" fill="#333"/><rect x="44.592" y="32.05" width="10.794" height="3.265" fill="#919191"/><rect x="50.658" y="32.784" width="3.862" height="1.578" fill="#141414"/><rect x="51.133" y="32.867" width="0.51" height="1.413" fill="#1a1a1a"/><rect x="51.206" y="33.4" width="0.366" height="0.556" fill="#fff"/><rect x="52.079" y="32.867" width="0.51" height="1.413" fill="#1a1a1a"/><rect x="52.151" y="33.4" width="0.366" height="0.556" fill="#fff"/><rect x="53.024" y="32.867" width="0.51" height="1.413" fill="#1a1a1a"/><rect x="53.096" y="33.4" width="0.366" height="0.556" fill="#fff"/><rect x="53.969" y="32.867" width="0.51" height="1.413" fill="#1a1a1a"/><rect x="54.042" y="33.4" width="0.366" height="0.556" fill="#fff"/><ellipse cx="17.71" cy="45.936" rx="0.901" ry="0.913" fill="gray"/><path d="M18.007,45.935l0.163-.165a0.129,0.129,0,0,0,0-.181l-0.118-.119a0.125,0.125,0,0,0-.179,0l-0.163.165-0.163-.165a0.125,0.125,0,0,0-.179,0l-0.118.119a0.129,0.129,0,0,0,0,.181l0.163,0.165L17.25,46.1a0.129,0.129,0,0,0,0,.181L17.368,46.4a0.126,0.126,0,0,0,.179,0l0.163-.165L17.873,46.4a0.125,0.125,0,0,0,.179,0l0.118-.119a0.129,0.129,0,0,0,0-.181Z" transform="translate(0 0.001)" fill="#333"/><ellipse cx="28.849" cy="45.936" rx="0.901" ry="0.913" fill="gray"/><path d="M28.553,45.935L28.39,45.77a0.129,0.129,0,0,1,0-.181l0.118-.119a0.125,0.125,0,0,1,.179,0l0.163,0.165,0.163-.165a0.125,0.125,0,0,1,.179,0l0.118,0.119a0.129,0.129,0,0,1,0,.181l-0.163.165L29.309,46.1a0.129,0.129,0,0,1,0,.181l-0.118.119a0.126,0.126,0,0,1-.179,0l-0.163-.165-0.163.165a0.125,0.125,0,0,1-.179,0l-0.118-.119a0.129,0.129,0,0,1,0-.181Z" transform="translate(0 0.001)" fill="#333"/><path d="M54.055,46.8a0.371,0.371,0,0,1-.368.373H46.959a0.371,0.371,0,0,1-.368-0.373v-1.4a0.371,0.371,0,0,1,.368-0.373h6.728a0.371,0.371,0,0,1,.368.373v1.4Z" transform="translate(0 0.001)" fill="#717071"/><path d="M50.031,45.92V45.679a0.488,0.488,0,0,0-.508-0.241,0.642,0.642,0,0,0-.682.729,0.452,0.452,0,0,0,.454.477h2.056a0.452,0.452,0,0,0,.454-0.477,0.642,0.642,0,0,0-.682-0.729,0.488,0.488,0,0,0-.508.241V45.92H50.031Z" transform="translate(0 0.001)" fill="#8a8a8a"/><circle cx="49.511" cy="46.096" r="0.254" fill="#595757"/><circle cx="51.134" cy="46.096" r="0.254" fill="#595757"/><rect x="15.292" y="0.098" width="43.417" height="18.634" fill="#919191"/><rect x="16.194" y="10.306" width="41.612" height="8.426" fill="#1f1f1f"/><rect x="16.52" y="10.683" width="40.96" height="8.049" fill="#717071"/><ellipse cx="19.117" cy="12.965" rx="0.901" ry="0.913" fill="gray"/><rect x="16.52" y="15.258" width="13.478" height="3.473" fill="#595757"/><rect x="30.172" y="15.258" width="27.308" height="3.473" fill="#595757"/><path d="M57.311,4.531a1.611,1.611,0,0,0,0,3.221h1.4V4.531h-1.4Z" transform="translate(0 0.001)" fill="#141414"/><ellipse cx="57.311" cy="6.143" rx="0.974" ry="0.986" fill="#fff"/><path d="M17.058,4.531a1.611,1.611,0,0,1,0,3.221H15.292V4.531h1.766Z" transform="translate(0 0.001)" fill="#141414"/><ellipse cx="17.058" cy="6.143" rx="0.974" ry="0.986" fill="#fff"/><path d="M55.353,6.142a1.973,1.973,0,0,1,1.958-1.983h0.9V0.619H15.789V4.158h1.269a1.984,1.984,0,0,1,0,3.967H15.789V9.414H58.211V8.125h-0.9A1.973,1.973,0,0,1,55.353,6.142Z" transform="translate(0 0.001)" fill="none" stroke="#333" stroke-width="0.131"/><rect x="18.857" y="1.969" width="0.714" height="1.643" fill="#1f1f1f"/><rect x="20.761" y="1.969" width="0.714" height="1.643" fill="#1f1f1f"/><rect x="22.665" y="1.969" width="0.714" height="1.643" fill="#1f1f1f"/><rect x="24.46" y="1.969" width="0.714" height="1.643" fill="#1f1f1f"/><rect x="26.169" y="1.969" width="0.714" height="1.643" fill="#1f1f1f"/><rect x="28.268" y="1.969" width="0.714" height="1.643" fill="#1f1f1f"/><rect x="29.977" y="1.969" width="0.714" height="1.643" fill="#1f1f1f"/><path d="M19.413,12.964l0.163-.165a0.129,0.129,0,0,0,0-.181L19.458,12.5a0.125,0.125,0,0,0-.179,0l-0.163.165L18.954,12.5a0.125,0.125,0,0,0-.179,0l-0.118.119a0.129,0.129,0,0,0,0,.181l0.163,0.165-0.163.165a0.129,0.129,0,0,0,0,.181l0.118,0.119a0.126,0.126,0,0,0,.179,0l0.163-.165,0.163,0.165a0.125,0.125,0,0,0,.179,0l0.118-.119a0.129,0.129,0,0,0,0-.181Z" transform="translate(0 0.001)" fill="#333"/><ellipse cx="21.902" cy="12.965" rx="0.901" ry="0.913" fill="gray"/><path d="M22.2,12.964l0.163-.165a0.129,0.129,0,0,0,0-.181L22.243,12.5a0.125,0.125,0,0,0-.179,0l-0.163.165L21.739,12.5a0.125,0.125,0,0,0-.179,0l-0.118.119a0.129,0.129,0,0,0,0,.181L21.6,12.964l-0.163.165a0.129,0.129,0,0,0,0,.181l0.118,0.119a0.126,0.126,0,0,0,.179,0l0.163-.165,0.163,0.165a0.125,0.125,0,0,0,.179,0l0.118-.119a0.129,0.129,0,0,0,0-.181Z" transform="translate(0 0.001)" fill="#333"/><ellipse cx="24.687" cy="12.965" rx="0.901" ry="0.913" fill="gray"/><path d="M24.983,12.964l0.163-.165a0.129,0.129,0,0,0,0-.181L25.028,12.5a0.125,0.125,0,0,0-.179,0l-0.163.165L24.524,12.5a0.125,0.125,0,0,0-.179,0l-0.118.119a0.129,0.129,0,0,0,0,.181l0.163,0.165-0.163.165a0.129,0.129,0,0,0,0,.181l0.118,0.119a0.126,0.126,0,0,0,.179,0l0.163-.165,0.163,0.165a0.125,0.125,0,0,0,.179,0l0.118-.119a0.129,0.129,0,0,0,0-.181Z" transform="translate(0 0.001)" fill="#333"/><ellipse cx="54.402" cy="12.979" rx="1.484" ry="1.504" fill="#141414"/><ellipse cx="54.402" cy="12.979" rx="1.063" ry="1.077" fill="#595757"/><ellipse cx="27.472" cy="12.965" rx="0.901" ry="0.913" fill="gray"/><path d="M27.768,12.964l0.163-.165a0.129,0.129,0,0,0,0-.181L27.813,12.5a0.125,0.125,0,0,0-.179,0l-0.163.165L27.309,12.5a0.125,0.125,0,0,0-.179,0l-0.118.119a0.129,0.129,0,0,0,0,.181l0.163,0.165-0.163.165a0.129,0.129,0,0,0,0,.181l0.118,0.119a0.126,0.126,0,0,0,.179,0l0.163-.165,0.163,0.165a0.125,0.125,0,0,0,.179,0l0.118-.119a0.129,0.129,0,0,0,0-.181Z" transform="translate(0 0.001)" fill="#333"/><ellipse cx="20.495" cy="16.764" rx="0.901" ry="0.913" fill="gray"/><path d="M20.792,16.763l0.163-.165a0.129,0.129,0,0,0,0-.181L20.837,16.3a0.125,0.125,0,0,0-.179,0l-0.163.165L20.332,16.3a0.125,0.125,0,0,0-.179,0l-0.118.119a0.129,0.129,0,0,0,0,.181L20.2,16.763l-0.163.165a0.129,0.129,0,0,0,0,.181l0.118,0.119a0.126,0.126,0,0,0,.179,0l0.163-.165,0.163,0.165a0.125,0.125,0,0,0,.179,0l0.118-.119a0.129,0.129,0,0,0,0-.181Z" transform="translate(0 0.001)" fill="#333"/><ellipse cx="23.28" cy="16.764" rx="0.901" ry="0.913" fill="gray"/><path d="M23.577,16.763l0.163-.165a0.129,0.129,0,0,0,0-.181L23.622,16.3a0.125,0.125,0,0,0-.179,0l-0.163.165L23.117,16.3a0.125,0.125,0,0,0-.179,0l-0.118.119a0.129,0.129,0,0,0,0,.181l0.163,0.165-0.163.165a0.129,0.129,0,0,0,0,.181l0.118,0.119a0.126,0.126,0,0,0,.179,0l0.163-.165,0.163,0.165a0.125,0.125,0,0,0,.179,0l0.118-.119a0.129,0.129,0,0,0,0-.181Z" transform="translate(0 0.001)" fill="#333"/><ellipse cx="26.065" cy="16.764" rx="0.901" ry="0.913" fill="gray"/><path d="M26.362,16.763l0.163-.165a0.129,0.129,0,0,0,0-.181L26.407,16.3a0.125,0.125,0,0,0-.179,0l-0.163.165L25.9,16.3a0.125,0.125,0,0,0-.179,0l-0.118.119a0.129,0.129,0,0,0,0,.181l0.163,0.165-0.163.165a0.129,0.129,0,0,0,0,.181l0.118,0.119a0.126,0.126,0,0,0,.179,0l0.163-.165,0.163,0.165a0.125,0.125,0,0,0,.179,0l0.118-.119a0.129,0.129,0,0,0,0-.181Z" transform="translate(0 0.001)" fill="#333"/><rect x="29.998" y="10.306" width="0.174" height="8.426" fill="#1f1f1f"/><rect x="15.292" y="0.098" width="43.417" height="18.634" fill="none" stroke="#231815" stroke-width="0.196"/><path d="M57.311,4.158H55.745V2.5h-11.6V6.492H55.385a2.019,2.019,0,0,1-.032-0.35A1.973,1.973,0,0,1,57.311,4.158Z" transform="translate(0 0.001)" fill="#333"/><rect x="44.592" y="2.878" width="10.794" height="3.265" fill="#919191"/><rect x="50.658" y="3.612" width="3.862" height="1.578" fill="#141414"/><rect x="51.133" y="3.694" width="0.51" height="1.413" fill="#1a1a1a"/><rect x="51.206" y="4.228" width="0.366" height="0.556" fill="#fff"/><rect x="52.079" y="3.694" width="0.51" height="1.413" fill="#1a1a1a"/><rect x="52.151" y="4.228" width="0.366" height="0.556" fill="#fff"/><rect x="53.024" y="3.694" width="0.51" height="1.413" fill="#1a1a1a"/><rect x="53.096" y="4.228" width="0.366" height="0.556" fill="#fff"/><rect x="53.969" y="3.694" width="0.51" height="1.413" fill="#1a1a1a"/><rect x="54.042" y="4.228" width="0.366" height="0.556" fill="#fff"/><ellipse cx="17.71" cy="16.764" rx="0.901" ry="0.913" fill="gray"/><path d="M18.007,16.763l0.163-.165a0.129,0.129,0,0,0,0-.181L18.052,16.3a0.125,0.125,0,0,0-.179,0l-0.163.165L17.547,16.3a0.125,0.125,0,0,0-.179,0l-0.118.119a0.129,0.129,0,0,0,0,.181l0.163,0.165-0.163.165a0.129,0.129,0,0,0,0,.181l0.118,0.119a0.126,0.126,0,0,0,.179,0l0.163-.165,0.163,0.165a0.125,0.125,0,0,0,.179,0l0.118-.119a0.129,0.129,0,0,0,0-.181Z" transform="translate(0 0.001)" fill="#333"/><ellipse cx="28.849" cy="16.764" rx="0.901" ry="0.913" fill="gray"/><path d="M28.553,16.763L28.39,16.6a0.129,0.129,0,0,1,0-.181l0.118-.119a0.125,0.125,0,0,1,.179,0l0.163,0.165,0.163-.165a0.125,0.125,0,0,1,.179,0l0.118,0.119a0.129,0.129,0,0,1,0,.181l-0.163.165,0.163,0.165a0.129,0.129,0,0,1,0,.181l-0.118.119a0.126,0.126,0,0,1-.179,0l-0.163-.165-0.163.165a0.125,0.125,0,0,1-.179,0l-0.118-.119a0.129,0.129,0,0,1,0-.181Z" transform="translate(0 0.001)" fill="#333"/><path d="M54.055,17.624a0.371,0.371,0,0,1-.368.373H46.959a0.371,0.371,0,0,1-.368-0.373v-1.4a0.371,0.371,0,0,1,.368-0.373h6.728a0.371,0.371,0,0,1,.368.373v1.4Z" transform="translate(0 0.001)" fill="#717071"/><path d="M50.031,16.747V16.506a0.488,0.488,0,0,0-.508-0.241,0.642,0.642,0,0,0-.682.729,0.452,0.452,0,0,0,.454.477h2.056a0.452,0.452,0,0,0,.454-0.477,0.642,0.642,0,0,0-.682-0.729,0.488,0.488,0,0,0-.508.241v0.241H50.031Z" transform="translate(0 0.001)" fill="#8a8a8a"/><circle cx="49.511" cy="16.924" r="0.254" fill="#595757"/><circle cx="51.134" cy="16.924" r="0.254" fill="#595757"/></svg>