<svg xmlns="http://www.w3.org/2000/svg" xmlns:xlink="http://www.w3.org/1999/xlink" width="74" height="48" viewBox="0 0 74 48"><defs><linearGradient id="a" y1="24.01541" x2="74" y2="24.01541" gradientUnits="userSpaceOnUse"><stop offset="0" stop-color="#717071"/><stop offset="0.23279" stop-color="#6d6c6d"/><stop offset="0.48186" stop-color="#605f60"/><stop offset="0.6" stop-color="#575757"/><stop offset="0.65319" stop-color="#5d5c5d"/><stop offset="0.84482" stop-color="#6c6b6c"/><stop offset="1" stop-color="#717071"/></linearGradient><radialGradient id="b" cx="16.51794" cy="19.54546" r="0.47728" gradientTransform="translate(0 0.11325) scale(0.98975 0.98975)" gradientUnits="userSpaceOnUse"><stop offset="0" stop-color="#545252"/><stop offset="0.15951" stop-color="#433f3f"/><stop offset="1" stop-color="#212121"/></radialGradient><radialGradient id="c" cx="18.48081" cy="19.54546" r="0.47729" xlink:href="#b"/><radialGradient id="d" cx="20.44369" cy="19.54546" r="0.47729" xlink:href="#b"/><radialGradient id="e" cx="22.40655" cy="19.54546" r="0.47729" xlink:href="#b"/><radialGradient id="f" cx="26.01743" cy="19.54546" r="0.47729" xlink:href="#b"/><radialGradient id="g" cx="31.94829" cy="19.54546" r="0.47728" xlink:href="#b"/><radialGradient id="h" cx="37.87915" cy="19.54546" r="0.47729" xlink:href="#b"/><radialGradient id="i" cx="43.81" cy="19.54546" r="0.47729" xlink:href="#b"/><radialGradient id="j" cx="49.74088" cy="19.54546" r="0.47729" xlink:href="#b"/><radialGradient id="k" cx="55.67173" cy="19.54546" r="0.47729" xlink:href="#b"/><radialGradient id="l" cx="61.60259" cy="19.54546" r="0.47728" xlink:href="#b"/><radialGradient id="m" cx="67.53345" cy="19.54546" r="0.47729" xlink:href="#b"/><radialGradient id="n" cx="16.51794" cy="16.92252" r="0.47727" xlink:href="#b"/></defs><title>cc-link_srph</title><rect width="74" height="48" fill="#fff"/><rect y="11.25" width="74" height="25.53081" fill="url(#a)"/><rect y="11.25" width="14.09868" height="25.53081" fill="#1f1f1f"/><path d="M14.09868,17.7494h-8.688a1.57579,1.57579,0,0,0-1.57116,1.57118V34.49178a1.57565,1.57565,0,0,0,1.57116,1.571h8.688V17.7494Z" fill="#0d0d0d"/><path d="M70.50288,13.96163a0.78781,0.78781,0,0,0,.78563.7855H74V11.25H70.50288v2.71163Z" fill="#1a1a1a"/><circle cx="72.25143" cy="12.99862" r="0.85649" fill="#fff"/><path d="M3.49712,34.069a0.78778,0.78778,0,0,0-.78563-0.78538H0v3.49715H3.49712V34.069Z" fill="#1a1a1a"/><circle cx="1.74855" cy="35.03197" r="0.85643" fill="#fff"/><rect x="3.83949" y="21.81392" width="8.28464" height="10.1845" fill="#1a1a1a"/><rect x="10.42591" y="21.81392" width="1.69822" height="10.1845" fill="#363636"/><rect x="4.98955" y="21.81392" width="1.69822" height="10.1845" fill="#363636"/><circle cx="5.83864" cy="26.90617" r="0.69282" fill="#0d0d0d"/><circle cx="5.83864" cy="24.92918" r="0.69282" fill="#0d0d0d"/><circle cx="5.83864" cy="22.9522" r="0.69282" fill="#0d0d0d"/><circle cx="5.83864" cy="28.88315" r="0.69282" fill="#0d0d0d"/><circle cx="5.83864" cy="30.86014" r="0.69282" fill="#0d0d0d"/><circle cx="11.275" cy="26.90617" r="0.69282" fill="#0d0d0d"/><circle cx="11.275" cy="24.92918" r="0.69282" fill="#0d0d0d"/><circle cx="11.275" cy="22.9522" r="0.69282" fill="#0d0d0d"/><circle cx="11.275" cy="28.88315" r="0.69282" fill="#0d0d0d"/><circle cx="11.275" cy="30.86014" r="0.69282" fill="#0d0d0d"/><path d="M4.85408,23.464a1.11937,1.11937,0,0,1-.84114-0.158,0.544,0.544,0,0,1,0-.76238,0.53008,0.53008,0,0,1,.3808-0.15722H4.85408V23.464Z" fill="#0d0d0d"/><path d="M4.85408,25.464a1.11936,1.11936,0,0,1-.84114-0.158,0.544,0.544,0,0,1,0-.76238,0.53009,0.53009,0,0,1,.3808-0.15722H4.85408V25.464Z" fill="#0d0d0d"/><path d="M4.85408,27.46394a1.11936,1.11936,0,0,1-.84114-0.158,0.544,0.544,0,0,1,0-.76238,0.53009,0.53009,0,0,1,.3808-0.15722H4.85408v1.07764Z" fill="#0d0d0d"/><path d="M4.85408,29.46393a1.11936,1.11936,0,0,1-.84114-0.158,0.544,0.544,0,0,1,0-.76238,0.53023,0.53023,0,0,1,.3808-0.15724H4.85408v1.07767Z" fill="#0d0d0d"/><path d="M4.85408,31.46392a1.11936,1.11936,0,0,1-.84114-0.158,0.544,0.544,0,0,1,0-.76238,0.53023,0.53023,0,0,1,.3808-0.15724H4.85408v1.07767Z" fill="#0d0d0d"/><rect x="6.69752" y="22.09296" width="0.88227" height="9.6822" fill="#f29600"/><rect x="7.02173" y="22.09296" width="0.23356" height="9.6822" fill="#824e00"/><rect x="9.54364" y="22.09296" width="0.88227" height="9.6822" fill="#f29600"/><rect x="9.86813" y="22.09296" width="0.23354" height="9.6822" fill="#824e00"/><polygon points="8.23 19.694 8.23 20.983 7.58 20.983 7.58 21.814 8.23 21.814 8.562 21.814 11.05 21.814 11.05 19.694 8.23 19.694" fill="#262626"/><polygon points="8.23 31.998 7.58 31.998 7.58 32.83 8.23 32.83 8.23 34.119 11.05 34.119 11.05 31.998 8.562 31.998 8.23 31.998" fill="#262626"/><circle cx="9.64025" cy="20.8594" r="0.69282" fill="#0d0d0d"/><circle cx="9.64025" cy="32.95296" r="0.69282" fill="#0d0d0d"/><circle cx="16.3486" cy="19.45832" r="0.47239" fill="url(#b)"/><circle cx="18.29133" cy="19.45832" r="0.47239" fill="url(#c)"/><circle cx="20.23409" cy="19.45832" r="0.47239" fill="url(#d)"/><circle cx="22.17683" cy="19.45832" r="0.47239" fill="url(#e)"/><circle cx="25.75069" cy="19.45832" r="0.4724" fill="url(#f)"/><circle cx="31.62075" cy="19.45832" r="0.47239" fill="url(#g)"/><circle cx="37.49073" cy="19.45832" r="0.47239" fill="url(#h)"/><circle cx="43.36077" cy="19.45832" r="0.47239" fill="url(#i)"/><circle cx="49.23084" cy="19.45832" r="0.47239" fill="url(#j)"/><circle cx="55.10088" cy="19.45832" r="0.47239" fill="url(#k)"/><circle cx="60.97094" cy="19.45832" r="0.47239" fill="url(#l)"/><circle cx="66.84099" cy="19.45832" r="0.47239" fill="url(#m)"/><circle cx="16.3486" cy="16.86228" r="0.47238" fill="url(#n)"/><path d="M68.41086,15.99842l0.00571-.07485a0.459,0.459,0,0,1-.00272.06374Z" fill="#231815"/><path d="M67.37162,15.23074l-0.05817-.05817-0.0582.05817H66.98084a0.75117,0.75117,0,0,1,.66522,0H67.37162Z" fill="#ab6a00"/><polygon points="67.51 15.566 67.51 16.53 67.117 16.53 67.117 15.566 66.92 15.566 67.255 15.231 67.313 15.173 67.372 15.231 67.707 15.566 67.51 15.566" fill="#824e00"/><path d="M67.51019,16.53048V15.56607h0.19676l-0.33533-.33533h0.27713a0.74829,0.74829,0,1,1-.67063,0h0.27713l-0.3353.33533h0.19673v0.96441h0.3935Z" fill="#f29600"/><path d="M68.06176,15.90139a0.75326,0.75326,0,0,0-.413-0.67065H67.64606a0.75117,0.75117,0,0,0-.66522,0H66.97813A0.7489,0.7489,0,1,0,68.06176,15.90139Zm-0.13588.9173a1.13981,1.13981,0,0,1-.19105.09974,1.09216,1.09216,0,0,1-.20513.06374,1.06433,1.06433,0,0,1-.43221,0,1.092,1.092,0,0,1-.20513-0.06374,1.27008,1.27008,0,0,1-.19136-0.09974,1.00794,1.00794,0,0,1-.16617-0.13856,0.99437,0.99437,0,0,1-.13856-0.16631,1.25094,1.25094,0,0,1-.10257-0.19119,1.06126,1.06126,0,0,1-.06089-0.20785,0.90663,0.90663,0,0,1-.0222-0.21339,0.94578,0.94578,0,0,1,.0222-0.21624,1.06126,1.06126,0,0,1,.06089-0.20785,1.24965,1.24965,0,0,1,.10257-0.19119,1.11561,1.11561,0,0,1,.13856-0.16631,0.99214,0.99214,0,0,1,.16617-0.13574,1.06936,1.06936,0,0,1,.19136-0.10257,1.09174,1.09174,0,0,1,.20513-0.06374,1.063,1.063,0,0,1,.43221,0,1.09193,1.09193,0,0,1,.20513.06374,0.9747,0.9747,0,0,1,.19105.10257,1.03139,1.03139,0,0,1,.305.302,1.113,1.113,0,0,1,.16616.399,1.26022,1.26022,0,0,1,.01679.14139,0.68752,0.68752,0,0,1,.00272.07485v0.02217l-0.00571.07485a0.98918,0.98918,0,0,1-.0138.11637,1.113,1.113,0,0,1-.16616.399,1.00537,1.00537,0,0,1-.13585.16631A1.15685,1.15685,0,0,1,67.92588,16.81869Z" fill="#3e3a39"/><rect x="6.69752" y="23.75574" width="1.11378" height="0.34206" fill="#1a1a1a"/><rect x="14.42804" y="23.7909" width="8.28464" height="8.20727" fill="#1a1a1a"/><rect x="14.42804" y="23.7909" width="1.15979" height="8.20727" fill="#1a1a1a"/><rect x="21.01446" y="23.7909" width="1.69822" height="8.20727" fill="#363636"/><rect x="15.5781" y="23.7909" width="1.69822" height="8.20727" fill="#363636"/><circle cx="16.4272" cy="26.90592" r="0.69282" fill="#0d0d0d"/><circle cx="16.4272" cy="24.92893" r="0.69282" fill="#0d0d0d"/><circle cx="16.4272" cy="28.88288" r="0.69282" fill="#0d0d0d"/><circle cx="16.4272" cy="30.85986" r="0.69282" fill="#0d0d0d"/><circle cx="21.86356" cy="26.90592" r="0.69282" fill="#0d0d0d"/><circle cx="21.86356" cy="24.92893" r="0.69282" fill="#0d0d0d"/><circle cx="21.86356" cy="28.88288" r="0.69282" fill="#0d0d0d"/><circle cx="21.86356" cy="30.85986" r="0.69282" fill="#0d0d0d"/><path d="M15.44264,25.46368a1.11929,1.11929,0,0,1-.84112-0.158,0.544,0.544,0,0,1,0-.76236A0.5299,0.5299,0,0,1,14.9823,24.386h0.46034v1.07764Z" fill="#0d0d0d"/><path d="M15.44264,27.46367a1.11929,1.11929,0,0,1-.84112-0.158,0.544,0.544,0,0,1,0-.76235A0.52989,0.52989,0,0,1,14.9823,26.386h0.46034v1.07764Z" fill="#0d0d0d"/><path d="M15.44264,29.46366a1.11929,1.11929,0,0,1-.84112-0.158,0.544,0.544,0,0,1,0-.76235A0.52989,0.52989,0,0,1,14.9823,28.386h0.46034v1.07764Z" fill="#0d0d0d"/><path d="M15.44264,31.46364a1.11929,1.11929,0,0,1-.84112-0.158,0.544,0.544,0,0,1,0-.76235A0.52991,0.52991,0,0,1,14.9823,30.386h0.46034v1.07765Z" fill="#0d0d0d"/><rect x="17.28608" y="24.09755" width="0.88227" height="7.67734" fill="#f29600"/><rect x="17.61029" y="24.09755" width="0.23356" height="7.67734" fill="#824e00"/><polygon points="18.819 31.998 18.168 31.998 18.168 32.83 18.819 32.83 18.819 34.118 21.639 34.118 21.639 31.998 19.15 31.998 18.819 31.998" fill="#262626"/><polygon points="18.819 21.671 18.819 22.96 18.168 22.96 18.168 23.791 18.819 23.791 19.15 23.791 21.639 23.791 21.639 21.671 18.819 21.671" fill="#262626"/><circle cx="20.2288" cy="22.83639" r="0.69282" fill="#0d0d0d"/><circle cx="20.2288" cy="32.95269" r="0.69282" fill="#0d0d0d"/><rect x="17.28608" y="25.76032" width="1.11378" height="0.34206" fill="#1a1a1a"/><rect x="17.28608" y="27.76516" width="1.11378" height="0.34209" fill="#1a1a1a"/><rect x="17.28608" y="29.77002" width="1.11378" height="0.34209" fill="#1a1a1a"/><rect x="20.13219" y="24.09755" width="0.88227" height="7.67734" fill="#f29600"/><rect x="20.45668" y="24.09755" width="0.23356" height="7.67734" fill="#824e00"/><rect x="19.90065" y="25.76032" width="1.11381" height="0.34206" fill="#1a1a1a"/><rect x="19.90065" y="27.76516" width="1.11381" height="0.34209" fill="#1a1a1a"/><rect x="19.90065" y="29.77002" width="1.11381" height="0.34209" fill="#1a1a1a"/><rect x="6.69752" y="25.76057" width="1.11378" height="0.34209" fill="#1a1a1a"/><rect x="6.69752" y="27.76544" width="1.11378" height="0.34209" fill="#1a1a1a"/><rect x="6.69752" y="29.7703" width="1.11378" height="0.34209" fill="#1a1a1a"/><rect x="9.3121" y="23.75574" width="1.11381" height="0.34206" fill="#1a1a1a"/><rect x="9.3121" y="25.76057" width="1.11381" height="0.34209" fill="#1a1a1a"/><rect x="9.3121" y="27.76544" width="1.11381" height="0.34209" fill="#1a1a1a"/><rect x="9.3121" y="29.7703" width="1.11381" height="0.34209" fill="#1a1a1a"/><rect x="23.01592" y="23.7909" width="5.51254" height="8.20727" fill="#1a1a1a"/><rect x="26.83024" y="23.7909" width="1.69822" height="8.20727" fill="#363636"/><circle cx="27.67937" cy="26.90592" r="0.69282" fill="#0d0d0d"/><circle cx="27.67937" cy="24.92893" r="0.69282" fill="#0d0d0d"/><circle cx="27.67937" cy="28.88288" r="0.69282" fill="#0d0d0d"/><circle cx="27.67937" cy="30.85986" r="0.69282" fill="#0d0d0d"/><path d="M24.03054,25.46368a1.11934,1.11934,0,0,1-.84114-0.158,0.544,0.544,0,0,1,0-.76236,0.53,0.53,0,0,1,.38078-0.15724h0.46037v1.07764Z" fill="#0d0d0d"/><path d="M24.03054,27.46367a1.11934,1.11934,0,0,1-.84114-0.158,0.544,0.544,0,0,1,0-.76235,0.53,0.53,0,0,1,.38078-0.15724h0.46037v1.07764Z" fill="#0d0d0d"/><path d="M24.03054,29.46366a1.11934,1.11934,0,0,1-.84114-0.158,0.544,0.544,0,0,1,0-.76235,0.53,0.53,0,0,1,.38078-0.15724h0.46037v1.07764Z" fill="#0d0d0d"/><path d="M24.03054,31.46364a1.11934,1.11934,0,0,1-.84114-0.158,0.544,0.544,0,0,1,0-.76235,0.53,0.53,0,0,1,.38078-0.15725h0.46037v1.07765Z" fill="#0d0d0d"/><polygon points="25.708 31.998 25.058 31.998 25.058 32.83 25.708 32.83 25.708 34.118 28.528 34.118 28.528 31.998 26.04 31.998 25.708 31.998" fill="#262626"/><polygon points="25.708 21.671 25.708 22.96 25.058 22.96 25.058 23.791 25.708 23.791 26.04 23.791 28.528 23.791 28.528 21.671 25.708 21.671" fill="#262626"/><circle cx="27.11835" cy="22.83639" r="0.69282" fill="#0d0d0d"/><circle cx="27.11835" cy="32.95269" r="0.69282" fill="#0d0d0d"/><rect x="24.17559" y="24.09755" width="0.88227" height="7.67734" fill="#f29600"/><rect x="24.49981" y="24.09755" width="0.23356" height="7.67734" fill="#824e00"/><rect x="24.17559" y="25.76032" width="1.11381" height="0.34206" fill="#1a1a1a"/><rect x="24.17559" y="27.76516" width="1.11381" height="0.34209" fill="#1a1a1a"/><rect x="24.17559" y="29.77002" width="1.11381" height="0.34209" fill="#1a1a1a"/><rect x="28.88599" y="23.7909" width="5.51254" height="8.20727" fill="#1a1a1a"/><rect x="32.70031" y="23.7909" width="1.69822" height="8.20727" fill="#363636"/><circle cx="33.54941" cy="26.90592" r="0.69282" fill="#0d0d0d"/><circle cx="33.54941" cy="24.92893" r="0.69282" fill="#0d0d0d"/><circle cx="33.54941" cy="28.88288" r="0.69282" fill="#0d0d0d"/><circle cx="33.54941" cy="30.85986" r="0.69282" fill="#0d0d0d"/><path d="M29.90059,25.46368a1.1193,1.1193,0,0,1-.84112-0.158,0.544,0.544,0,0,1,0-.76236,0.53,0.53,0,0,1,.38078-0.15724h0.46034v1.07764Z" fill="#0d0d0d"/><path d="M29.90059,27.46367a1.11929,1.11929,0,0,1-.84112-0.158,0.544,0.544,0,0,1,0-.76235,0.52994,0.52994,0,0,1,.38078-0.15724h0.46034v1.07764Z" fill="#0d0d0d"/><path d="M29.90059,29.46366a1.1193,1.1193,0,0,1-.84112-0.158,0.544,0.544,0,0,1,0-.76235,0.52994,0.52994,0,0,1,.38078-0.15724h0.46034v1.07764Z" fill="#0d0d0d"/><path d="M29.90059,31.46364a1.1193,1.1193,0,0,1-.84112-0.158,0.544,0.544,0,0,1,0-.76235,0.53,0.53,0,0,1,.38078-0.15725h0.46034v1.07765Z" fill="#0d0d0d"/><polygon points="31.579 31.998 30.928 31.998 30.928 32.83 31.579 32.83 31.579 34.118 34.398 34.118 34.398 31.998 31.91 31.998 31.579 31.998" fill="#262626"/><polygon points="31.579 21.671 31.579 22.96 30.928 22.96 30.928 23.791 31.579 23.791 31.91 23.791 34.398 23.791 34.398 21.671 31.579 21.671" fill="#262626"/><circle cx="32.98839" cy="22.83639" r="0.69282" fill="#0d0d0d"/><circle cx="32.98839" cy="32.95269" r="0.69282" fill="#0d0d0d"/><rect x="30.04566" y="24.09755" width="0.88227" height="7.67734" fill="#f29600"/><rect x="30.36988" y="24.09755" width="0.23356" height="7.67734" fill="#824e00"/><rect x="30.04566" y="25.76032" width="1.11378" height="0.34206" fill="#1a1a1a"/><rect x="30.04566" y="27.76516" width="1.11378" height="0.34209" fill="#1a1a1a"/><rect x="30.04566" y="29.77002" width="1.11378" height="0.34209" fill="#1a1a1a"/><rect x="34.75603" y="23.7909" width="5.51241" height="8.20727" fill="#1a1a1a"/><rect x="38.57049" y="23.7909" width="1.69794" height="8.20727" fill="#363636"/><circle cx="39.41948" cy="26.90592" r="0.69282" fill="#0d0d0d"/><circle cx="39.41948" cy="24.92893" r="0.69282" fill="#0d0d0d"/><circle cx="39.41948" cy="28.88288" r="0.69282" fill="#0d0d0d"/><circle cx="39.41948" cy="30.85986" r="0.69282" fill="#0d0d0d"/><path d="M35.77065,25.46368a1.11934,1.11934,0,0,1-.84114-0.158,0.544,0.544,0,0,1,0-.76236,0.53,0.53,0,0,1,.38078-0.15724h0.46037v1.07764Z" fill="#0d0d0d"/><path d="M35.77065,27.46367a1.11934,1.11934,0,0,1-.84114-0.158,0.544,0.544,0,0,1,0-.76235,0.53,0.53,0,0,1,.38078-0.15724h0.46037v1.07764Z" fill="#0d0d0d"/><path d="M35.77065,29.46366a1.11934,1.11934,0,0,1-.84114-0.158,0.544,0.544,0,0,1,0-.76235,0.53,0.53,0,0,1,.38078-0.15724h0.46037v1.07764Z" fill="#0d0d0d"/><path d="M35.77065,31.46364a1.11934,1.11934,0,0,1-.84114-0.158,0.544,0.544,0,0,1,0-.76235,0.53,0.53,0,0,1,.38078-0.15725h0.46037v1.07765Z" fill="#0d0d0d"/><polygon points="37.448 31.998 36.798 31.998 36.798 32.83 37.448 32.83 37.448 34.118 40.268 34.118 40.268 31.998 37.78 31.998 37.448 31.998" fill="#262626"/><polygon points="37.448 21.671 37.448 22.96 36.798 22.96 36.798 23.791 37.448 23.791 37.78 23.791 40.268 23.791 40.268 21.671 37.448 21.671" fill="#262626"/><circle cx="38.85846" cy="22.83639" r="0.69282" fill="#0d0d0d"/><circle cx="38.85846" cy="32.95269" r="0.69282" fill="#0d0d0d"/><rect x="35.9157" y="24.09755" width="0.88227" height="7.67734" fill="#f29600"/><rect x="36.23992" y="24.09755" width="0.23356" height="7.67734" fill="#824e00"/><rect x="35.9157" y="25.76032" width="1.11378" height="0.34206" fill="#1a1a1a"/><rect x="35.9157" y="27.76516" width="1.11378" height="0.34209" fill="#1a1a1a"/><rect x="35.9157" y="29.77002" width="1.11378" height="0.34209" fill="#1a1a1a"/><rect x="40.62624" y="23.7909" width="5.51227" height="8.20727" fill="#1a1a1a"/><rect x="44.44053" y="23.7909" width="1.69797" height="8.20727" fill="#363636"/><circle cx="45.28952" cy="26.90592" r="0.69282" fill="#0d0d0d"/><circle cx="45.28952" cy="24.92893" r="0.69282" fill="#0d0d0d"/><circle cx="45.28952" cy="28.88288" r="0.69282" fill="#0d0d0d"/><circle cx="45.28952" cy="30.85986" r="0.69282" fill="#0d0d0d"/><path d="M41.64056,25.46368a1.11951,1.11951,0,0,1-.84112-0.158,0.544,0.544,0,0,1,0-.76236,0.53012,0.53012,0,0,1,.38105-0.15724h0.46006v1.07764Z" fill="#0d0d0d"/><path d="M41.64056,27.46367a1.11951,1.11951,0,0,1-.84112-0.158,0.544,0.544,0,0,1,0-.76235,0.53011,0.53011,0,0,1,.38105-0.15724h0.46006v1.07764Z" fill="#0d0d0d"/><path d="M41.64056,29.46366a1.11951,1.11951,0,0,1-.84112-0.158,0.544,0.544,0,0,1,0-.76235,0.53011,0.53011,0,0,1,.38105-0.15724h0.46006v1.07764Z" fill="#0d0d0d"/><path d="M41.64056,31.46364a1.11951,1.11951,0,0,1-.84112-0.158,0.544,0.544,0,0,1,0-.76235,0.53012,0.53012,0,0,1,.38105-0.15725h0.46006v1.07765Z" fill="#0d0d0d"/><polygon points="43.318 31.998 42.668 31.998 42.668 32.83 43.318 32.83 43.318 34.118 46.139 34.118 46.139 31.998 43.65 31.998 43.318 31.998" fill="#262626"/><polygon points="43.318 21.671 43.318 22.96 42.668 22.96 42.668 23.791 43.318 23.791 43.65 23.791 46.139 23.791 46.139 21.671 43.318 21.671" fill="#262626"/><circle cx="44.7285" cy="22.83639" r="0.69282" fill="#0d0d0d"/><circle cx="44.7285" cy="32.95269" r="0.69282" fill="#0d0d0d"/><rect x="41.78563" y="24.09755" width="0.88224" height="7.67734" fill="#f29600"/><rect x="42.10985" y="24.09755" width="0.23381" height="7.67734" fill="#824e00"/><rect x="41.78563" y="25.76032" width="1.11392" height="0.34206" fill="#1a1a1a"/><rect x="41.78563" y="27.76516" width="1.11392" height="0.34209" fill="#1a1a1a"/><rect x="41.78563" y="29.77002" width="1.11392" height="0.34209" fill="#1a1a1a"/><rect x="46.49628" y="23.7909" width="5.51227" height="8.20727" fill="#1a1a1a"/><rect x="50.3106" y="23.7909" width="1.69794" height="8.20727" fill="#363636"/><circle cx="51.15956" cy="26.90592" r="0.69282" fill="#0d0d0d"/><circle cx="51.15956" cy="24.92893" r="0.69282" fill="#0d0d0d"/><circle cx="51.15956" cy="28.88288" r="0.69282" fill="#0d0d0d"/><circle cx="51.15956" cy="30.85986" r="0.69282" fill="#0d0d0d"/><path d="M47.51063,25.46368a1.11958,1.11958,0,0,1-.84114-0.158,0.544,0.544,0,0,1,0-.76236,0.53016,0.53016,0,0,1,.38105-0.15724h0.46009v1.07764Z" fill="#0d0d0d"/><path d="M47.51063,27.46367a1.11957,1.11957,0,0,1-.84114-0.158,0.544,0.544,0,0,1,0-.76235,0.53015,0.53015,0,0,1,.38105-0.15724h0.46009v1.07764Z" fill="#0d0d0d"/><path d="M47.51063,29.46366a1.11958,1.11958,0,0,1-.84114-0.158,0.544,0.544,0,0,1,0-.76235,0.53015,0.53015,0,0,1,.38105-0.15724h0.46009v1.07764Z" fill="#0d0d0d"/><path d="M47.51063,31.46364a1.11958,1.11958,0,0,1-.84114-0.158,0.544,0.544,0,0,1,0-.76235,0.53017,0.53017,0,0,1,.38105-0.15725h0.46009v1.07765Z" fill="#0d0d0d"/><polygon points="49.189 31.998 48.538 31.998 48.538 32.83 49.189 32.83 49.189 34.118 52.009 34.118 52.009 31.998 49.52 31.998 49.189 31.998" fill="#262626"/><polygon points="49.189 21.671 49.189 22.96 48.538 22.96 48.538 23.791 49.189 23.791 49.52 23.791 52.009 23.791 52.009 21.671 49.189 21.671" fill="#262626"/><circle cx="50.59854" cy="22.83639" r="0.69282" fill="#0d0d0d"/><circle cx="50.59854" cy="32.95269" r="0.69282" fill="#0d0d0d"/><rect x="47.65568" y="24.09755" width="0.88227" height="7.67734" fill="#f29600"/><rect x="47.97989" y="24.09755" width="0.23384" height="7.67734" fill="#824e00"/><rect x="47.65568" y="25.76032" width="1.11392" height="0.34206" fill="#1a1a1a"/><rect x="47.65568" y="27.76516" width="1.11392" height="0.34209" fill="#1a1a1a"/><rect x="47.65568" y="29.77002" width="1.11392" height="0.34209" fill="#1a1a1a"/><rect x="52.36632" y="23.7909" width="5.5123" height="8.20727" fill="#1a1a1a"/><rect x="56.18064" y="23.7909" width="1.69797" height="8.20727" fill="#363636"/><circle cx="57.02963" cy="26.90592" r="0.69282" fill="#0d0d0d"/><circle cx="57.02963" cy="24.92893" r="0.69282" fill="#0d0d0d"/><circle cx="57.02963" cy="28.88288" r="0.69282" fill="#0d0d0d"/><circle cx="57.02963" cy="30.85986" r="0.69282" fill="#0d0d0d"/><path d="M53.38067,25.46368a1.1196,1.1196,0,0,1-.84114-0.158,0.544,0.544,0,0,1,0-.76236,0.53017,0.53017,0,0,1,.38105-0.15724h0.46009v1.07764Z" fill="#0d0d0d"/><path d="M53.38067,27.46367a1.1196,1.1196,0,0,1-.84114-0.158,0.544,0.544,0,0,1,0-.76235,0.53016,0.53016,0,0,1,.38105-0.15724h0.46009v1.07764Z" fill="#0d0d0d"/><path d="M53.38067,29.46366a1.1196,1.1196,0,0,1-.84114-0.158,0.544,0.544,0,0,1,0-.76235,0.53016,0.53016,0,0,1,.38105-0.15724h0.46009v1.07764Z" fill="#0d0d0d"/><path d="M53.38067,31.46364a1.1196,1.1196,0,0,1-.84114-0.158,0.544,0.544,0,0,1,0-.76235,0.53017,0.53017,0,0,1,.38105-0.15725h0.46009v1.07765Z" fill="#0d0d0d"/><polygon points="55.059 31.998 54.408 31.998 54.408 32.83 55.059 32.83 55.059 34.118 57.879 34.118 57.879 31.998 55.39 31.998 55.059 31.998" fill="#262626"/><polygon points="55.059 21.671 55.059 22.96 54.408 22.96 54.408 23.791 55.059 23.791 55.39 23.791 57.879 23.791 57.879 21.671 55.059 21.671" fill="#262626"/><circle cx="56.46861" cy="22.83639" r="0.69282" fill="#0d0d0d"/><circle cx="56.46861" cy="32.95269" r="0.69282" fill="#0d0d0d"/><rect x="53.52572" y="24.09755" width="0.88227" height="7.67734" fill="#f29600"/><rect x="53.84996" y="24.09755" width="0.23381" height="7.67734" fill="#824e00"/><rect x="53.52572" y="25.76032" width="1.11395" height="0.34206" fill="#1a1a1a"/><rect x="53.52572" y="27.76516" width="1.11395" height="0.34209" fill="#1a1a1a"/><rect x="53.52572" y="29.77002" width="1.11395" height="0.34209" fill="#1a1a1a"/><rect x="58.23639" y="23.7909" width="5.51227" height="8.20727" fill="#1a1a1a"/><rect x="62.05071" y="23.7909" width="1.69794" height="8.20727" fill="#363636"/><circle cx="62.89967" cy="26.90592" r="0.69282" fill="#0d0d0d"/><circle cx="62.89967" cy="24.92893" r="0.69282" fill="#0d0d0d"/><circle cx="62.89967" cy="28.88288" r="0.69282" fill="#0d0d0d"/><circle cx="62.89967" cy="30.85986" r="0.69282" fill="#0d0d0d"/><path d="M59.25071,25.46368a1.11953,1.11953,0,0,1-.84112-0.158,0.544,0.544,0,0,1,0-.76236,0.53016,0.53016,0,0,1,.38105-0.15724h0.46006v1.07764Z" fill="#0d0d0d"/><path d="M59.25071,27.46367a1.11953,1.11953,0,0,1-.84112-0.158,0.544,0.544,0,0,1,0-.76235,0.53015,0.53015,0,0,1,.38105-0.15724h0.46006v1.07764Z" fill="#0d0d0d"/><path d="M59.25071,29.46366a1.11953,1.11953,0,0,1-.84112-0.158,0.544,0.544,0,0,1,0-.76235,0.53015,0.53015,0,0,1,.38105-0.15724h0.46006v1.07764Z" fill="#0d0d0d"/><path d="M59.25071,31.46364a1.11953,1.11953,0,0,1-.84112-0.158,0.544,0.544,0,0,1,0-.76235,0.53017,0.53017,0,0,1,.38105-0.15725h0.46006v1.07765Z" fill="#0d0d0d"/><polygon points="60.929 31.998 60.278 31.998 60.278 32.83 60.929 32.83 60.929 34.118 63.749 34.118 63.749 31.998 61.26 31.998 60.929 31.998" fill="#262626"/><polygon points="60.929 21.671 60.929 22.96 60.278 22.96 60.278 23.791 60.929 23.791 61.26 23.791 63.749 23.791 63.749 21.671 60.929 21.671" fill="#262626"/><circle cx="62.33865" cy="22.83639" r="0.69282" fill="#0d0d0d"/><circle cx="62.33865" cy="32.95269" r="0.69282" fill="#0d0d0d"/><rect x="59.39579" y="24.09755" width="0.88227" height="7.67734" fill="#f29600"/><rect x="59.72" y="24.09755" width="0.23381" height="7.67734" fill="#824e00"/><rect x="59.39579" y="25.76032" width="1.11392" height="0.34206" fill="#1a1a1a"/><rect x="59.39579" y="27.76516" width="1.11392" height="0.34209" fill="#1a1a1a"/><rect x="59.39579" y="29.77002" width="1.11392" height="0.34209" fill="#1a1a1a"/><rect x="64.10643" y="23.7909" width="5.51227" height="8.20727" fill="#1a1a1a"/><rect x="67.92075" y="23.7909" width="1.69794" height="8.20727" fill="#363636"/><circle cx="68.76974" cy="26.90592" r="0.69282" fill="#0d0d0d"/><circle cx="68.76974" cy="24.92893" r="0.69282" fill="#0d0d0d"/><circle cx="68.76974" cy="28.88288" r="0.69282" fill="#0d0d0d"/><circle cx="68.76974" cy="30.85986" r="0.69282" fill="#0d0d0d"/><path d="M65.12078,25.46368a1.11958,1.11958,0,0,1-.84114-0.158,0.544,0.544,0,0,1,0-.76236,0.53016,0.53016,0,0,1,.38105-0.15724h0.46009v1.07764Z" fill="#0d0d0d"/><path d="M65.12078,27.46367a1.11957,1.11957,0,0,1-.84114-0.158,0.544,0.544,0,0,1,0-.76235,0.53015,0.53015,0,0,1,.38105-0.15724h0.46009v1.07764Z" fill="#0d0d0d"/><path d="M65.12078,29.46366a1.11958,1.11958,0,0,1-.84114-0.158,0.544,0.544,0,0,1,0-.76235,0.53015,0.53015,0,0,1,.38105-0.15724h0.46009v1.07764Z" fill="#0d0d0d"/><path d="M65.12078,31.46364a1.11958,1.11958,0,0,1-.84114-0.158,0.544,0.544,0,0,1,0-.76235,0.53017,0.53017,0,0,1,.38105-0.15725h0.46009v1.07765Z" fill="#0d0d0d"/><polygon points="66.799 31.998 66.148 31.998 66.148 32.83 66.799 32.83 66.799 34.118 69.619 34.118 69.619 31.998 67.13 31.998 66.799 31.998" fill="#262626"/><polygon points="66.799 21.671 66.799 22.96 66.148 22.96 66.148 23.791 66.799 23.791 67.13 23.791 69.619 23.791 69.619 21.671 66.799 21.671" fill="#262626"/><circle cx="68.20872" cy="22.83639" r="0.69282" fill="#0d0d0d"/><circle cx="68.20872" cy="32.95269" r="0.69282" fill="#0d0d0d"/><rect x="65.26583" y="24.09755" width="0.88227" height="7.67734" fill="#f29600"/><rect x="65.59004" y="24.09755" width="0.23384" height="7.67734" fill="#824e00"/><rect x="65.26583" y="25.76032" width="1.11392" height="0.34206" fill="#1a1a1a"/><rect x="65.26583" y="27.76516" width="1.11392" height="0.34209" fill="#1a1a1a"/><rect x="65.26583" y="29.77002" width="1.11392" height="0.34209" fill="#1a1a1a"/></svg>