<?xml version="1.0" encoding="utf-8"?>
<!-- Generator: Adobe Illustrator 25.0.0, SVG Export Plug-In . SVG Version: 6.00 Build 0)  -->
<svg version="1.1" xmlns="http://www.w3.org/2000/svg" xmlns:xlink="http://www.w3.org/1999/xlink" x="0px" y="0px" width="74px"
	 height="48px" viewBox="0 0 74 48" style="enable-background:new 0 0 74 48;" xml:space="preserve">
<style type="text/css">
	.st0{fill:url(#SVGID_1_);}
	.st1{fill:url(#SVGID_2_);}
	.st2{fill:url(#SVGID_3_);}
	.st3{fill:url(#SVGID_4_);}
	.st4{fill:url(#SVGID_5_);}
	.st5{fill:none;stroke:#424242;stroke-width:4.833375e-02;stroke-linejoin:round;}
	.st6{fill:url(#SVGID_6_);}
	.st7{fill:url(#SVGID_7_);}
	.st8{fill:url(#SVGID_8_);}
	.st9{fill:url(#SVGID_9_);}
	.st10{fill:url(#SVGID_10_);}
	.st11{fill:url(#SVGID_11_);}
	.st12{fill:url(#SVGID_12_);}
	.st13{fill:url(#SVGID_13_);}
	.st14{fill:url(#SVGID_14_);}
	.st15{fill:url(#SVGID_15_);}
	.st16{fill:url(#SVGID_16_);}
	.st17{fill:url(#SVGID_17_);}
	.st18{fill:url(#SVGID_18_);stroke:#5C5A5A;stroke-width:7.250062e-02;stroke-linejoin:round;}
	.st19{fill:url(#SVGID_19_);}
	.st20{fill:url(#SVGID_20_);stroke:#141414;stroke-width:4.833375e-02;stroke-linejoin:round;}
	.st21{fill:#080808;}
	.st22{fill:url(#SVGID_21_);}
	.st23{fill:url(#SVGID_22_);stroke:#404040;stroke-width:4.833375e-02;stroke-linejoin:round;}
	.st24{fill:url(#SVGID_23_);}
	.st25{fill:url(#SVGID_24_);stroke:#404040;stroke-width:4.833375e-02;stroke-linejoin:round;}
	.st26{fill:url(#SVGID_25_);}
	.st27{fill:url(#SVGID_26_);stroke:#404040;stroke-width:4.833375e-02;stroke-linejoin:round;}
	.st28{fill:url(#SVGID_27_);}
	.st29{fill:url(#SVGID_28_);stroke:#404040;stroke-width:4.833375e-02;stroke-linejoin:round;}
	.st30{fill:url(#SVGID_29_);}
	.st31{fill:url(#SVGID_30_);stroke:#404040;stroke-width:4.833375e-02;stroke-linejoin:round;}
	.st32{fill:url(#SVGID_31_);stroke:#141414;stroke-width:4.833375e-02;stroke-linejoin:round;}
	.st33{fill:url(#SVGID_32_);}
	.st34{fill:url(#SVGID_33_);}
	.st35{fill:url(#SVGID_34_);}
	.st36{fill:url(#SVGID_35_);}
	.st37{fill:url(#SVGID_36_);stroke:#9FA0A0;stroke-width:7.250062e-02;stroke-linejoin:round;}
	.st38{fill:#D3D3D4;stroke:#9FA0A0;stroke-width:7.250062e-02;stroke-linejoin:round;}
	.st39{fill:url(#SVGID_37_);stroke:#9FA0A0;stroke-width:7.250062e-02;stroke-linejoin:round;}
	.st40{fill:url(#SVGID_38_);stroke:#9FA0A0;stroke-width:7.250062e-02;stroke-linejoin:round;}
	.st41{fill:url(#SVGID_39_);stroke:#9FA0A0;stroke-width:7.250062e-02;stroke-linejoin:round;}
	.st42{fill:url(#SVGID_40_);stroke:#9FA0A0;stroke-width:7.250062e-02;stroke-linejoin:round;}
	.st43{fill:url(#SVGID_41_);stroke:#9FA0A0;stroke-width:7.250062e-02;stroke-linejoin:round;}
	.st44{fill:url(#SVGID_42_);stroke:#9FA0A0;stroke-width:7.250062e-02;stroke-linejoin:round;}
	.st45{fill:url(#SVGID_43_);stroke:#9FA0A0;stroke-width:7.250062e-02;stroke-linejoin:round;}
	.st46{fill:url(#SVGID_44_);stroke:#9FA0A0;stroke-width:7.250062e-02;stroke-linejoin:round;}
	.st47{fill:url(#SVGID_45_);stroke:#9FA0A0;stroke-width:7.250062e-02;stroke-linejoin:round;}
	.st48{fill:url(#SVGID_46_);stroke:#9FA0A0;stroke-width:7.250062e-02;stroke-linejoin:round;}
	.st49{fill:url(#SVGID_47_);stroke:#9FA0A0;stroke-width:7.250062e-02;stroke-linejoin:round;}
	.st50{fill:url(#SVGID_48_);stroke:#262423;stroke-width:3.625031e-02;stroke-linejoin:round;}
	.st51{fill:url(#SVGID_49_);stroke:#2D2A29;stroke-width:3.625031e-02;stroke-linejoin:round;}
	.st52{fill:url(#SVGID_50_);stroke:#2D2A29;stroke-width:3.625031e-02;stroke-linejoin:round;}
	.st53{fill:url(#SVGID_51_);stroke:#262423;stroke-width:3.625031e-02;stroke-linejoin:round;}
	.st54{fill:url(#SVGID_52_);}
	.st55{fill:url(#SVGID_53_);}
	.st56{fill:url(#SVGID_54_);}
	.st57{fill:url(#SVGID_55_);}
	.st58{fill:url(#SVGID_56_);}
	.st59{fill:url(#SVGID_57_);}
	.st60{fill:url(#SVGID_58_);}
	.st61{fill:url(#SVGID_59_);}
	.st62{fill:url(#SVGID_60_);}
	.st63{fill:url(#SVGID_61_);}
	.st64{fill:url(#SVGID_62_);}
	.st65{fill:url(#SVGID_63_);}
	.st66{fill:url(#SVGID_64_);}
	.st67{fill:url(#SVGID_65_);}
	.st68{fill:url(#SVGID_66_);}
	.st69{fill:url(#SVGID_67_);}
	.st70{fill:url(#SVGID_68_);}
	.st71{fill:url(#SVGID_69_);}
	.st72{fill:url(#SVGID_70_);}
	.st73{fill:url(#SVGID_71_);}
	.st74{fill:url(#SVGID_72_);}
	.st75{fill:url(#SVGID_73_);}
	.st76{fill:url(#SVGID_74_);}
	.st77{fill:url(#SVGID_75_);}
	.st78{fill:url(#SVGID_76_);}
	.st79{fill:url(#SVGID_77_);}
	.st80{fill:url(#SVGID_78_);}
	.st81{fill:url(#SVGID_79_);}
	.st82{fill:url(#SVGID_80_);}
	.st83{fill:url(#SVGID_81_);}
	.st84{fill:url(#SVGID_82_);}
	.st85{fill:url(#SVGID_83_);}
</style>
<g id="レイヤー_1">
</g>
<g id="レイヤー_4">
	<radialGradient id="SVGID_1_" cx="37.1028" cy="4.6455" r="0.9827" fx="37.0214" fy="4.644" gradientUnits="userSpaceOnUse">
		<stop  offset="0.1071" style="stop-color:#FFFFFF"/>
		<stop  offset="0.932" style="stop-color:#3D3D3D"/>
	</radialGradient>
	<path class="st0" d="M38,4.6c-0.2-0.3-0.7-0.3-0.7-0.3v0.1h-0.5V4.3c0,0-0.5,0-0.7,0.3C36,4.9,36.1,5,36.1,5h2
		C38.1,5,38.2,4.9,38,4.6z"/>
	<radialGradient id="SVGID_2_" cx="38.1309" cy="5.1285" r="0.2734" fx="38.1083" fy="5.1281" gradientUnits="userSpaceOnUse">
		<stop  offset="0.1592" style="stop-color:#C7C7C7"/>
		<stop  offset="0.932" style="stop-color:#2B2B2B"/>
	</radialGradient>
	<polygon class="st1" points="37.8,5 38.3,5 38.4,5.2 38.3,5.2 38.2,5.2 38.1,5.1 	"/>
	<linearGradient id="SVGID_3_" gradientUnits="userSpaceOnUse" x1="34.9482" y1="3.1489" x2="37.1371" y2="3.1489">
		<stop  offset="0.1032" style="stop-color:#050505"/>
		<stop  offset="0.8484" style="stop-color:#0F0F0F"/>
		<stop  offset="1" style="stop-color:#0F0F0F"/>
	</linearGradient>
	<polygon class="st2" points="34.9,5.2 36.9,5.2 36.9,3.8 37.2,3.4 37.2,1.1 34.9,1.1 	"/>
	<linearGradient id="SVGID_4_" gradientUnits="userSpaceOnUse" x1="34.9382" y1="1.9717" x2="37.137" y2="1.9717">
		<stop  offset="5.429864e-02" style="stop-color:#3D3938"/>
		<stop  offset="0.9504" style="stop-color:#141414"/>
		<stop  offset="1" style="stop-color:#262626"/>
	</linearGradient>
	<polygon class="st3" points="37.2,1.8 36.9,2.2 36.9,3.2 34.9,3.2 34.9,1.1 35.9,1.1 36.1,0.7 36.6,0.7 36.6,1.1 37.2,1.1 	"/>
	<linearGradient id="SVGID_5_" gradientUnits="userSpaceOnUse" x1="35.0277" y1="4.1619" x2="36.5329" y2="4.1619">
		<stop  offset="5.429864e-02" style="stop-color:#3D3938"/>
		<stop  offset="0.9504" style="stop-color:#141414"/>
		<stop  offset="1" style="stop-color:#262626"/>
	</linearGradient>
	<rect x="35" y="3.3" class="st4" width="1.5" height="1.8"/>
	<polyline class="st5" points="35,5 35,3.3 36.5,3.3 	"/>
	<linearGradient id="SVGID_6_" gradientUnits="userSpaceOnUse" x1="36.0201" y1="0.6124" x2="36.2398" y2="0.6575">
		<stop  offset="0.2474" style="stop-color:#ABD9CF"/>
		<stop  offset="0.4427" style="stop-color:#7AC9CC"/>
		<stop  offset="0.9857" style="stop-color:#12A281"/>
	</linearGradient>
	<rect x="36" y="0.6" class="st6" width="0.2" height="0.1"/>
	<radialGradient id="SVGID_7_" cx="35.983" cy="0.5343" r="0.2747" gradientUnits="userSpaceOnUse">
		<stop  offset="0.1725" style="stop-color:#ABD9CF"/>
		<stop  offset="0.4115" style="stop-color:#ABD9CF"/>
		<stop  offset="0.5696" style="stop-color:#7AC9CC"/>
		<stop  offset="0.9857" style="stop-color:#00624C"/>
	</radialGradient>
	<path class="st7" d="M36,0.6c0,0,0.1-0.1,0.1-0.1c0.1,0,0.1,0,0.1,0.1H36z"/>
	<linearGradient id="SVGID_8_" gradientUnits="userSpaceOnUse" x1="36.402" y1="0.6135" x2="36.6625" y2="0.6664">
		<stop  offset="0.2474" style="stop-color:#ABD9CF"/>
		<stop  offset="0.4427" style="stop-color:#7AC9CC"/>
		<stop  offset="0.9857" style="stop-color:#12A281"/>
	</linearGradient>
	<rect x="36.4" y="0.6" class="st8" width="0.2" height="0.1"/>
	<radialGradient id="SVGID_9_" cx="36.3606" cy="0.5343" r="0.2747" gradientUnits="userSpaceOnUse">
		<stop  offset="0.1725" style="stop-color:#ABD9CF"/>
		<stop  offset="0.4115" style="stop-color:#ABD9CF"/>
		<stop  offset="0.5696" style="stop-color:#7AC9CC"/>
		<stop  offset="0.9857" style="stop-color:#00624C"/>
	</radialGradient>
	<path class="st9" d="M36.4,0.6c0,0,0.1-0.1,0.1-0.1c0.1,0,0.1,0,0.1,0.1H36.4z"/>
	<linearGradient id="SVGID_10_" gradientUnits="userSpaceOnUse" x1="34.4946" y1="5.2078" x2="38.6511" y2="5.2078">
		<stop  offset="0" style="stop-color:#2E2E2E"/>
		<stop  offset="0.1032" style="stop-color:#050505"/>
		<stop  offset="0.7036" style="stop-color:#141414"/>
		<stop  offset="0.8025" style="stop-color:#262626"/>
		<stop  offset="1" style="stop-color:#0F0F0F"/>
	</linearGradient>
	<polygon class="st10" points="34.4,5 37.8,5 38.3,5.2 38.5,5.2 38.6,5.3 38.7,5.3 38.7,5.4 34.4,5.4 	"/>
	<linearGradient id="SVGID_11_" gradientUnits="userSpaceOnUse" x1="35.2734" y1="5.5649" x2="34.3269" y2="4.9557">
		<stop  offset="0" style="stop-color:#050505"/>
		<stop  offset="1" style="stop-color:#2E2E2E"/>
	</linearGradient>
	<polygon class="st11" points="34.4,5 34.9,5 34.4,5.3 	"/>
	<linearGradient id="SVGID_12_" gradientUnits="userSpaceOnUse" x1="27.5546" y1="21.8886" x2="46.0126" y2="28.5841">
		<stop  offset="6.292420e-03" style="stop-color:#050505"/>
		<stop  offset="0.6657" style="stop-color:#080808"/>
	</linearGradient>
	<polygon class="st12" points="40.6,7 39.7,7 39.7,44.6 33.4,44.6 33.4,5.6 39.6,5.6 40.3,6.2 40.6,6.2 	"/>
	
		<linearGradient id="SVGID_13_" gradientUnits="userSpaceOnUse" x1="33.6533" y1="-157.4701" x2="40.6028" y2="-154.9492" gradientTransform="matrix(1 0 0 -1 0 -112.118)">
		<stop  offset="6.292420e-03" style="stop-color:#050505"/>
		<stop  offset="0.6657" style="stop-color:#080808"/>
	</linearGradient>
	<polygon class="st13" points="40.6,43.3 39.7,43.3 39.7,44 33.4,44 33.4,44.6 39.6,44.6 40.3,44 40.6,44 	"/>
	<linearGradient id="SVGID_14_" gradientUnits="userSpaceOnUse" x1="34.2696" y1="44.7398" x2="43.9686" y2="49.5279">
		<stop  offset="5.246041e-02" style="stop-color:#696969"/>
		<stop  offset="0.5566" style="stop-color:#DBDBDB"/>
		<stop  offset="0.7198" style="stop-color:#9E9E9E"/>
		<stop  offset="0.7833" style="stop-color:#9B9B9B"/>
		<stop  offset="0.8374" style="stop-color:#909090"/>
		<stop  offset="0.8878" style="stop-color:#7F7F7F"/>
		<stop  offset="0.932" style="stop-color:#696969"/>
	</linearGradient>
	<path class="st14" d="M35.2,44.8c0,0,0,1.5,0,2.1s0.5,0.6,0.5,0.6s2,0,2.5,0c0.5,0,0.5-0.5,0.5-0.5v-2.2L35.2,44.8z M37.7,46.9
		c-0.2,0-1.5,0-1.5,0c-0.1,0-0.5-0.2-0.5-0.5c0-0.3,0.2-0.5,0.4-0.5h1.5c0.2,0,0.6,0.1,0.6,0.5C38.2,46.8,37.9,46.9,37.7,46.9z"/>
	<linearGradient id="SVGID_15_" gradientUnits="userSpaceOnUse" x1="33.84" y1="43.2017" x2="40.2883" y2="45.5408">
		<stop  offset="0" style="stop-color:#262626"/>
		<stop  offset="0.6" style="stop-color:#303030"/>
		<stop  offset="1" style="stop-color:#171717"/>
	</linearGradient>
	<path class="st15" d="M33.3,44.6c0,0,0,0.2,0,0.3c0,0.1,0,0.1,0.1,0.1s6.2-0.1,6.2-0.1c0.1,0,0.2,0,0.3-0.1
		c0.1-0.1,0.7-0.7,0.7-0.7v-0.6H40c0,0-0.1,0-0.1,0.1s0,0.5,0,0.5l-0.3,0.3L33.3,44.6z"/>
	
		<linearGradient id="SVGID_16_" gradientUnits="userSpaceOnUse" x1="33.8554" y1="-324.0487" x2="40.3099" y2="-321.7074" gradientTransform="matrix(1 0 0 -1 0 -316.8339)">
		<stop  offset="0" style="stop-color:#262626"/>
		<stop  offset="6.334842e-02" style="stop-color:#121212"/>
		<stop  offset="0.115" style="stop-color:#262626"/>
		<stop  offset="0.1786" style="stop-color:#141414"/>
		<stop  offset="0.6514" style="stop-color:#303030"/>
		<stop  offset="0.8196" style="stop-color:#171717"/>
		<stop  offset="0.9502" style="stop-color:#141414"/>
	</linearGradient>
	<path class="st16" d="M33.3,5.8c0,0,0-0.1,0-0.3c0-0.2,0.1-0.2,0.3-0.2l6.1,0c0.1,0,0.1,0,0.2,0.1c0.1,0.1,0.8,0.8,0.8,0.8v0.6H40
		c0,0-0.1,0-0.1-0.1s0-0.5,0-0.5l-0.3-0.3L33.3,5.8z"/>
	<linearGradient id="SVGID_17_" gradientUnits="userSpaceOnUse" x1="33.3993" y1="25.2084" x2="40.5415" y2="25.2084">
		<stop  offset="0" style="stop-color:#2E2E2E"/>
		<stop  offset="1.748091e-02" style="stop-color:#303030"/>
		<stop  offset="3.870900e-02" style="stop-color:#393534"/>
		<stop  offset="6.576994e-02" style="stop-color:#262626"/>
		<stop  offset="9.051541e-02" style="stop-color:#464242"/>
		<stop  offset="0.1721" style="stop-color:#1A1A1A"/>
		<stop  offset="0.8809" style="stop-color:#1A1A1A"/>
		<stop  offset="0.9546" style="stop-color:#141414"/>
		<stop  offset="1" style="stop-color:#413D3C"/>
	</linearGradient>
	<path class="st17" d="M40,6.9c-0.1,0-0.2,0-0.2-0.1s0-0.6,0-0.6l-0.3-0.3h-5l-1.2,0v38.6l6.2,0l0.3-0.3c0,0,0-0.3,0-0.5
		c0-0.2,0-0.3,0.2-0.3c0.2,0,0.6,0,0.6,0V6.9C40.6,6.9,40.1,6.9,40,6.9z"/>
</g>
<g id="文字">
	
		<linearGradient id="SVGID_18_" gradientUnits="userSpaceOnUse" x1="-149.157" y1="-71.0986" x2="-147.4578" y2="-71.0986" gradientTransform="matrix(4.489700e-11 -1 1 4.489700e-11 108.1521 -135.6834)">
		<stop  offset="0" style="stop-color:#727171"/>
		<stop  offset="0.6" style="stop-color:#ADADAD"/>
		<stop  offset="1" style="stop-color:#727171"/>
	</linearGradient>
	<path class="st18" d="M39,11.9v1.5c0,0.1,0,0.1-0.1,0.1h-3.7c-0.1,0-0.1,0-0.1-0.1v-1.5c0-0.1,0-0.1,0.1-0.1h3.7
		C38.9,11.8,39,11.8,39,11.9z"/>
	
		<linearGradient id="SVGID_19_" gradientUnits="userSpaceOnUse" x1="-149.0639" y1="-71.0923" x2="-147.5333" y2="-71.0923" gradientTransform="matrix(4.489700e-11 -1 1 4.489700e-11 108.1521 -135.6834)">
		<stop  offset="1.159502e-02" style="stop-color:#0F0F0F"/>
		<stop  offset="0.4068" style="stop-color:#171717"/>
		<stop  offset="1" style="stop-color:#0F0F0F"/>
	</linearGradient>
	<path class="st19" d="M38.9,12v1.3c0,0.1,0,0.1-0.1,0.1h-3.5c-0.1,0-0.1,0-0.1-0.1V12c0-0.1,0-0.1,0.1-0.1h3.5
		C38.9,11.8,38.9,11.9,38.9,12z"/>
	
		<linearGradient id="SVGID_20_" gradientUnits="userSpaceOnUse" x1="-148.6479" y1="-72.9055" x2="-147.9497" y2="-69.1747" gradientTransform="matrix(4.489700e-11 -1 1 4.489700e-11 108.1521 -135.6834)">
		<stop  offset="0" style="stop-color:#0F0F0F"/>
		<stop  offset="0.6" style="stop-color:#3D3D3D"/>
		<stop  offset="1" style="stop-color:#0D0D0D"/>
	</linearGradient>
	<rect x="35.3" y="11.9" class="st20" width="3.5" height="1.4"/>
	<path class="st21" d="M35.4,12.2c0-0.1,0.1-0.2,0.1-0.2c0.1,0,2.9,0,3,0s0.2,0.1,0.2,0.2s0,0.3,0,0.3h-3.2
		C35.4,12.6,35.4,12.4,35.4,12.2z"/>
	<linearGradient id="SVGID_21_" gradientUnits="userSpaceOnUse" x1="39.7784" y1="14.0125" x2="40.6758" y2="14.3381">
		<stop  offset="6.292420e-03" style="stop-color:#050505"/>
		<stop  offset="0.662" style="stop-color:#141414"/>
	</linearGradient>
	<rect x="39.8" y="13.9" class="st22" width="0.8" height="0.6"/>
	<linearGradient id="SVGID_22_" gradientUnits="userSpaceOnUse" x1="39.9353" y1="14.1626" x2="40.6905" y2="14.1626">
		<stop  offset="6.292420e-03" style="stop-color:#050505"/>
		<stop  offset="0.662" style="stop-color:#141414"/>
		<stop  offset="0.8015" style="stop-color:#0A0A0A"/>
		<stop  offset="0.8903" style="stop-color:#52504F"/>
		<stop  offset="1" style="stop-color:#4A4A4A"/>
	</linearGradient>
	<rect x="39.9" y="13.9" class="st23" width="0.8" height="0.4"/>
	<linearGradient id="SVGID_23_" gradientUnits="userSpaceOnUse" x1="39.7784" y1="15.1831" x2="40.6758" y2="15.5086">
		<stop  offset="6.292420e-03" style="stop-color:#050505"/>
		<stop  offset="0.662" style="stop-color:#141414"/>
	</linearGradient>
	<rect x="39.8" y="15.1" class="st24" width="0.8" height="0.6"/>
	<linearGradient id="SVGID_24_" gradientUnits="userSpaceOnUse" x1="39.9353" y1="15.3331" x2="40.6905" y2="15.3331">
		<stop  offset="6.292420e-03" style="stop-color:#050505"/>
		<stop  offset="0.662" style="stop-color:#141414"/>
		<stop  offset="0.8015" style="stop-color:#0A0A0A"/>
		<stop  offset="0.8903" style="stop-color:#52504F"/>
		<stop  offset="1" style="stop-color:#4A4A4A"/>
	</linearGradient>
	<rect x="39.9" y="15.1" class="st25" width="0.8" height="0.4"/>
	<linearGradient id="SVGID_25_" gradientUnits="userSpaceOnUse" x1="39.7784" y1="16.3386" x2="40.6758" y2="16.6641">
		<stop  offset="6.292420e-03" style="stop-color:#050505"/>
		<stop  offset="0.662" style="stop-color:#141414"/>
	</linearGradient>
	<rect x="39.8" y="16.2" class="st26" width="0.8" height="0.6"/>
	<linearGradient id="SVGID_26_" gradientUnits="userSpaceOnUse" x1="39.9353" y1="16.4886" x2="40.6905" y2="16.4886">
		<stop  offset="6.292420e-03" style="stop-color:#050505"/>
		<stop  offset="0.662" style="stop-color:#141414"/>
		<stop  offset="0.8015" style="stop-color:#0A0A0A"/>
		<stop  offset="0.8903" style="stop-color:#52504F"/>
		<stop  offset="1" style="stop-color:#4A4A4A"/>
	</linearGradient>
	<rect x="39.9" y="16.3" class="st27" width="0.8" height="0.4"/>
	<linearGradient id="SVGID_27_" gradientUnits="userSpaceOnUse" x1="39.7784" y1="17.5092" x2="40.6758" y2="17.8347">
		<stop  offset="6.292420e-03" style="stop-color:#050505"/>
		<stop  offset="0.662" style="stop-color:#141414"/>
	</linearGradient>
	<rect x="39.8" y="17.4" class="st28" width="0.8" height="0.6"/>
	<linearGradient id="SVGID_28_" gradientUnits="userSpaceOnUse" x1="39.9353" y1="17.6592" x2="40.6905" y2="17.6592">
		<stop  offset="6.292420e-03" style="stop-color:#050505"/>
		<stop  offset="0.662" style="stop-color:#141414"/>
		<stop  offset="0.8015" style="stop-color:#0A0A0A"/>
		<stop  offset="0.8903" style="stop-color:#52504F"/>
		<stop  offset="1" style="stop-color:#4A4A4A"/>
	</linearGradient>
	<rect x="39.9" y="17.4" class="st29" width="0.8" height="0.4"/>
	<linearGradient id="SVGID_29_" gradientUnits="userSpaceOnUse" x1="39.7784" y1="18.6722" x2="40.6758" y2="18.9977">
		<stop  offset="6.292420e-03" style="stop-color:#050505"/>
		<stop  offset="0.662" style="stop-color:#141414"/>
	</linearGradient>
	<rect x="39.8" y="18.5" class="st30" width="0.8" height="0.6"/>
	<linearGradient id="SVGID_30_" gradientUnits="userSpaceOnUse" x1="39.9353" y1="18.8222" x2="40.6905" y2="18.8222">
		<stop  offset="6.292420e-03" style="stop-color:#050505"/>
		<stop  offset="0.662" style="stop-color:#141414"/>
		<stop  offset="0.8015" style="stop-color:#0A0A0A"/>
		<stop  offset="0.8903" style="stop-color:#52504F"/>
		<stop  offset="1" style="stop-color:#4A4A4A"/>
	</linearGradient>
	<rect x="39.9" y="18.6" class="st31" width="0.8" height="0.4"/>
	
		<linearGradient id="SVGID_31_" gradientUnits="userSpaceOnUse" x1="-130.1636" y1="-88.5654" x2="-129.7969" y2="-85.6129" gradientTransform="matrix(4.489700e-11 -1 1 4.489700e-11 124.1625 -117.6313)">
		<stop  offset="0" style="stop-color:#0F0F0F"/>
		<stop  offset="0.6" style="stop-color:#3D3D3D"/>
		<stop  offset="1" style="stop-color:#0D0D0D"/>
	</linearGradient>
	<rect x="35.6" y="12.2" class="st32" width="2.9" height="0.2"/>
	<linearGradient id="SVGID_32_" gradientUnits="userSpaceOnUse" x1="37.0252" y1="11.6965" x2="37.0252" y2="11.9151">
		<stop  offset="7.729426e-02" style="stop-color:#262423"/>
		<stop  offset="0.473" style="stop-color:#ADADAD"/>
		<stop  offset="0.8152" style="stop-color:#262423"/>
	</linearGradient>
	<rect x="35.4" y="11.7" class="st33" width="3.3" height="0.2"/>
	<linearGradient id="SVGID_33_" gradientUnits="userSpaceOnUse" x1="37.0252" y1="13.3324" x2="37.0252" y2="13.5875">
		<stop  offset="0.1182" style="stop-color:#262423"/>
		<stop  offset="0.473" style="stop-color:#ADADAD"/>
		<stop  offset="0.8152" style="stop-color:#262423"/>
	</linearGradient>
	<rect x="35.4" y="13.4" class="st34" width="3.3" height="0.2"/>
	
		<linearGradient id="SVGID_34_" gradientUnits="userSpaceOnUse" x1="-131.5157" y1="-88.0924" x2="-131.5157" y2="-87.8009" gradientTransform="matrix(4.489700e-11 -1 1 4.489700e-11 126.9219 -118.9219)">
		<stop  offset="0.1198" style="stop-color:#262423"/>
		<stop  offset="0.473" style="stop-color:#ADADAD"/>
		<stop  offset="0.8583" style="stop-color:#262423"/>
	</linearGradient>
	<rect x="38.9" y="12" class="st35" width="0.2" height="1.1"/>
	
		<linearGradient id="SVGID_35_" gradientUnits="userSpaceOnUse" x1="-131.5157" y1="-91.9183" x2="-131.5157" y2="-91.6334" gradientTransform="matrix(4.489700e-11 -1 1 4.489700e-11 126.9219 -118.9219)">
		<stop  offset="9.106335e-02" style="stop-color:#262423"/>
		<stop  offset="0.473" style="stop-color:#ADADAD"/>
		<stop  offset="0.8152" style="stop-color:#262423"/>
	</linearGradient>
	<rect x="35" y="12" class="st36" width="0.2" height="1.1"/>
	<g>
		
			<radialGradient id="SVGID_36_" cx="239.0389" cy="-613.6081" r="1.8152" gradientTransform="matrix(4.489700e-11 -1 1 4.489700e-11 650.2682 261.1484)" gradientUnits="userSpaceOnUse">
			<stop  offset="0.2937" style="stop-color:#171717"/>
			<stop  offset="1" style="stop-color:#080808"/>
		</radialGradient>
		<polygon class="st37" points="35.2,21.5 35,21.5 35,22.8 35.1,23 35.1,24 38.3,24 38.3,20.2 35.2,20.2 		"/>
	</g>
	<polygon class="st38" points="38.3,20.2 35.2,20.2 35.2,21.3 35,21.5 35.5,21.5 35.5,21.2 36,21.2 36,20.3 36.8,20.3 36.8,20.6 
		37.3,20.6 37.3,20.3 38.2,20.3 38.2,23.9 37.3,23.9 37.3,23.7 36.8,23.7 36.8,23.9 36,23.9 36,23.1 35.5,23.1 35.5,22.8 35,22.8 
		35.2,23 35.2,24 38.3,24 	"/>
	
		<linearGradient id="SVGID_37_" gradientUnits="userSpaceOnUse" x1="-29.77" y1="21.0055" x2="-29.77" y2="20.1671" gradientTransform="matrix(-1 0 0 1 5.8125 0)">
		<stop  offset="5.302601e-04" style="stop-color:#3D3D3D"/>
		<stop  offset="0.4123" style="stop-color:#5C5A5A"/>
		<stop  offset="0.526" style="stop-color:#171717"/>
		<stop  offset="1" style="stop-color:#0F0F0F"/>
	</linearGradient>
	<rect x="35.3" y="20.2" class="st39" width="0.6" height="0.8"/>
	
		<linearGradient id="SVGID_38_" gradientUnits="userSpaceOnUse" x1="-29.77" y1="23.9508" x2="-29.77" y2="23.1124" gradientTransform="matrix(-1 0 0 1 5.8125 0)">
		<stop  offset="5.302601e-04" style="stop-color:#3D3D3D"/>
		<stop  offset="0.4123" style="stop-color:#5C5A5A"/>
		<stop  offset="0.526" style="stop-color:#171717"/>
		<stop  offset="1" style="stop-color:#0F0F0F"/>
	</linearGradient>
	<rect x="35.3" y="23.2" class="st40" width="0.6" height="0.8"/>
	<g>
		
			<radialGradient id="SVGID_39_" cx="234.8651" cy="-613.6081" r="1.8152" gradientTransform="matrix(4.489700e-11 -1 1 4.489700e-11 650.2682 261.1484)" gradientUnits="userSpaceOnUse">
			<stop  offset="0.2937" style="stop-color:#171717"/>
			<stop  offset="1" style="stop-color:#080808"/>
		</radialGradient>
		<polygon class="st41" points="35.2,25.7 35,25.7 35,27 35.1,27.1 35.1,28.2 38.3,28.2 38.3,24.3 35.2,24.3 		"/>
	</g>
	<polygon class="st38" points="38.3,24.3 35.2,24.3 35.2,25.5 35,25.7 35.5,25.7 35.5,25.4 36,25.4 36,24.5 36.8,24.5 36.8,24.8 
		37.3,24.8 37.3,24.5 38.2,24.5 38.2,28.1 37.3,28.1 37.3,27.9 36.8,27.9 36.8,28.1 36,28.1 36,27.3 35.5,27.3 35.5,27 35,27 
		35.2,27.1 35.2,28.2 38.3,28.2 	"/>
	
		<linearGradient id="SVGID_40_" gradientUnits="userSpaceOnUse" x1="-29.77" y1="25.1793" x2="-29.77" y2="24.3409" gradientTransform="matrix(-1 0 0 1 5.8125 0)">
		<stop  offset="5.302601e-04" style="stop-color:#3D3D3D"/>
		<stop  offset="0.4123" style="stop-color:#5C5A5A"/>
		<stop  offset="0.526" style="stop-color:#171717"/>
		<stop  offset="1" style="stop-color:#0F0F0F"/>
	</linearGradient>
	<rect x="35.3" y="24.4" class="st42" width="0.6" height="0.8"/>
	
		<linearGradient id="SVGID_41_" gradientUnits="userSpaceOnUse" x1="-29.77" y1="28.1247" x2="-29.77" y2="27.2862" gradientTransform="matrix(-1 0 0 1 5.8125 0)">
		<stop  offset="5.302601e-04" style="stop-color:#3D3D3D"/>
		<stop  offset="0.4123" style="stop-color:#5C5A5A"/>
		<stop  offset="0.526" style="stop-color:#171717"/>
		<stop  offset="1" style="stop-color:#0F0F0F"/>
	</linearGradient>
	<rect x="35.3" y="27.4" class="st43" width="0.6" height="0.8"/>
	<g>
		
			<radialGradient id="SVGID_42_" cx="230.7668" cy="-613.6081" r="1.8152" gradientTransform="matrix(4.489700e-11 -1 1 4.489700e-11 650.2682 261.1484)" gradientUnits="userSpaceOnUse">
			<stop  offset="0.2937" style="stop-color:#171717"/>
			<stop  offset="1" style="stop-color:#080808"/>
		</radialGradient>
		<polygon class="st44" points="35.2,29.8 35,29.8 35,31.1 35.1,31.2 35.1,32.3 38.3,32.3 38.3,28.4 35.2,28.4 		"/>
	</g>
	<polygon class="st38" points="38.3,28.4 35.2,28.4 35.2,29.6 35,29.8 35.5,29.8 35.5,29.5 36,29.5 36,28.6 36.8,28.6 36.8,28.9 
		37.3,28.9 37.3,28.6 38.2,28.6 38.2,32.2 37.3,32.2 37.3,32 36.8,32 36.8,32.2 36,32.2 36,31.4 35.5,31.4 35.5,31.1 35,31.1 
		35.2,31.2 35.2,32.3 38.3,32.3 	"/>
	
		<linearGradient id="SVGID_43_" gradientUnits="userSpaceOnUse" x1="-29.77" y1="29.2776" x2="-29.77" y2="28.4392" gradientTransform="matrix(-1 0 0 1 5.8125 0)">
		<stop  offset="5.302601e-04" style="stop-color:#3D3D3D"/>
		<stop  offset="0.4123" style="stop-color:#5C5A5A"/>
		<stop  offset="0.526" style="stop-color:#171717"/>
		<stop  offset="1" style="stop-color:#0F0F0F"/>
	</linearGradient>
	<rect x="35.3" y="28.5" class="st45" width="0.6" height="0.8"/>
	
		<linearGradient id="SVGID_44_" gradientUnits="userSpaceOnUse" x1="-29.77" y1="32.223" x2="-29.77" y2="31.3845" gradientTransform="matrix(-1 0 0 1 5.8125 0)">
		<stop  offset="5.302601e-04" style="stop-color:#3D3D3D"/>
		<stop  offset="0.4123" style="stop-color:#5C5A5A"/>
		<stop  offset="0.526" style="stop-color:#171717"/>
		<stop  offset="1" style="stop-color:#0F0F0F"/>
	</linearGradient>
	<rect x="35.3" y="31.5" class="st46" width="0.6" height="0.8"/>
	<g>
		
			<radialGradient id="SVGID_45_" cx="226.598" cy="-613.6081" r="1.8152" gradientTransform="matrix(4.489700e-11 -1 1 4.489700e-11 650.2682 261.1484)" gradientUnits="userSpaceOnUse">
			<stop  offset="0.2937" style="stop-color:#171717"/>
			<stop  offset="1" style="stop-color:#080808"/>
		</radialGradient>
		<polygon class="st47" points="35.2,34 35,34 35,35.3 35.1,35.4 35.1,36.5 38.3,36.5 38.3,32.6 35.2,32.6 		"/>
	</g>
	<polygon class="st38" points="38.3,32.6 35.2,32.6 35.2,33.7 35,34 35.5,34 35.5,33.7 36,33.7 36,32.7 36.8,32.7 36.8,33 37.3,33 
		37.3,32.7 38.2,32.7 38.2,36.4 37.3,36.4 37.3,36.1 36.8,36.1 36.8,36.4 36,36.4 36,35.5 35.5,35.5 35.5,35.2 35,35.2 35.2,35.4 
		35.2,36.5 38.3,36.5 	"/>
	
		<linearGradient id="SVGID_46_" gradientUnits="userSpaceOnUse" x1="-29.77" y1="33.4464" x2="-29.77" y2="32.608" gradientTransform="matrix(-1 0 0 1 5.8125 0)">
		<stop  offset="5.302601e-04" style="stop-color:#3D3D3D"/>
		<stop  offset="0.4123" style="stop-color:#5C5A5A"/>
		<stop  offset="0.526" style="stop-color:#171717"/>
		<stop  offset="1" style="stop-color:#0F0F0F"/>
	</linearGradient>
	<rect x="35.3" y="32.7" class="st48" width="0.6" height="0.8"/>
	
		<linearGradient id="SVGID_47_" gradientUnits="userSpaceOnUse" x1="-29.77" y1="36.3917" x2="-29.77" y2="35.5533" gradientTransform="matrix(-1 0 0 1 5.8125 0)">
		<stop  offset="5.302601e-04" style="stop-color:#3D3D3D"/>
		<stop  offset="0.4123" style="stop-color:#5C5A5A"/>
		<stop  offset="0.526" style="stop-color:#171717"/>
		<stop  offset="1" style="stop-color:#0F0F0F"/>
	</linearGradient>
	<rect x="35.3" y="35.6" class="st49" width="0.6" height="0.8"/>
	<radialGradient id="SVGID_48_" cx="36.7533" cy="16.4266" r="1.5658" gradientUnits="userSpaceOnUse">
		<stop  offset="0.3061" style="stop-color:#0A0A0A"/>
		<stop  offset="1" style="stop-color:#080808"/>
	</radialGradient>
	<rect x="35.3" y="14.7" class="st50" width="2.8" height="3.4"/>
	<linearGradient id="SVGID_49_" gradientUnits="userSpaceOnUse" x1="36.4314" y1="14.6942" x2="38.0626" y2="16.1517">
		<stop  offset="0.2937" style="stop-color:#0D0D0D"/>
		<stop  offset="1" style="stop-color:#0D0D0D"/>
	</linearGradient>
	<path class="st51" d="M38.2,15.9v-0.2l-0.1-0.1c0,0,0-0.8,0-0.9s0-0.2-0.2-0.2c-0.1,0-2.5,0-2.5,0s-0.1,0-0.1,0.1s0,0.6,0,0.6h0.1
		v-0.5h2.1v0.4h0.2v0.3H38v0.4H38.2z"/>
	
		<linearGradient id="SVGID_50_" gradientUnits="userSpaceOnUse" x1="36.4314" y1="-228.617" x2="38.0626" y2="-227.1594" gradientTransform="matrix(1 0 0 -1 0 -210.375)">
		<stop  offset="0.2937" style="stop-color:#0D0D0D"/>
		<stop  offset="1" style="stop-color:#0D0D0D"/>
	</linearGradient>
	<path class="st52" d="M38.2,17v0.2l-0.1,0.1c0,0,0,0.8,0,0.9s0,0.2-0.2,0.2c-0.1,0-2.5,0-2.5,0s-0.1,0-0.1-0.1s0-0.6,0-0.6h0.1v0.5
		h2.1v-0.4h0.2v-0.3H38V17H38.2z"/>
	<linearGradient id="SVGID_51_" gradientUnits="userSpaceOnUse" x1="38.5522" y1="17.0792" x2="37.9581" y2="15.5084">
		<stop  offset="0.1997" style="stop-color:#080808"/>
		<stop  offset="0.3917" style="stop-color:#171717"/>
		<stop  offset="0.8924" style="stop-color:#080808"/>
	</linearGradient>
	<path class="st53" d="M38.2,15.7v1.5h0.2c0,0,0.1,0,0.1-0.1c0-0.1,0-1.2,0-1.2s0-0.2-0.1-0.2S38.2,15.7,38.2,15.7z"/>
	<rect x="35.9" y="12.6" class="st21" width="0.3" height="0.2"/>
	<rect x="36.6" y="12.6" class="st21" width="0.3" height="0.2"/>
	<rect x="37.2" y="12.6" class="st21" width="0.3" height="0.2"/>
	<rect x="37.9" y="12.6" class="st21" width="0.3" height="0.2"/>
	<linearGradient id="SVGID_52_" gradientUnits="userSpaceOnUse" x1="37.2366" y1="21.1391" x2="38.1228" y2="21.1391">
		<stop  offset="0" style="stop-color:#2F2C2C"/>
		<stop  offset="0.2434" style="stop-color:#3C3737"/>
		<stop  offset="0.715" style="stop-color:#0A0A0A"/>
		<stop  offset="0.8215" style="stop-color:#272524"/>
		<stop  offset="0.9452" style="stop-color:#383434"/>
		<stop  offset="1" style="stop-color:#3E3A39"/>
	</linearGradient>
	<rect x="37.2" y="21.1" class="st54" width="0.9" height="0.2"/>
	<linearGradient id="SVGID_53_" gradientUnits="userSpaceOnUse" x1="37.2366" y1="21.411" x2="38.1228" y2="21.411">
		<stop  offset="0" style="stop-color:#2F2C2C"/>
		<stop  offset="0.2434" style="stop-color:#3C3737"/>
		<stop  offset="0.715" style="stop-color:#0A0A0A"/>
		<stop  offset="0.8215" style="stop-color:#272524"/>
		<stop  offset="0.9452" style="stop-color:#383434"/>
		<stop  offset="1" style="stop-color:#3E3A39"/>
	</linearGradient>
	<rect x="37.2" y="21.3" class="st55" width="0.9" height="0.2"/>
	<linearGradient id="SVGID_54_" gradientUnits="userSpaceOnUse" x1="37.2366" y1="21.7131" x2="38.1228" y2="21.7131">
		<stop  offset="0" style="stop-color:#2F2C2C"/>
		<stop  offset="0.2434" style="stop-color:#3C3737"/>
		<stop  offset="0.715" style="stop-color:#0A0A0A"/>
		<stop  offset="0.8215" style="stop-color:#272524"/>
		<stop  offset="0.9452" style="stop-color:#383434"/>
		<stop  offset="1" style="stop-color:#3E3A39"/>
	</linearGradient>
	<rect x="37.2" y="21.6" class="st56" width="0.9" height="0.2"/>
	<linearGradient id="SVGID_55_" gradientUnits="userSpaceOnUse" x1="37.2366" y1="22.0252" x2="38.1228" y2="22.0252">
		<stop  offset="0" style="stop-color:#2F2C2C"/>
		<stop  offset="0.2434" style="stop-color:#3C3737"/>
		<stop  offset="0.715" style="stop-color:#0A0A0A"/>
		<stop  offset="0.8215" style="stop-color:#272524"/>
		<stop  offset="0.9452" style="stop-color:#383434"/>
		<stop  offset="1" style="stop-color:#3E3A39"/>
	</linearGradient>
	<rect x="37.2" y="21.9" class="st57" width="0.9" height="0.2"/>
	<linearGradient id="SVGID_56_" gradientUnits="userSpaceOnUse" x1="37.2366" y1="22.3474" x2="38.1228" y2="22.3474">
		<stop  offset="0" style="stop-color:#2F2C2C"/>
		<stop  offset="0.2434" style="stop-color:#3C3737"/>
		<stop  offset="0.715" style="stop-color:#0A0A0A"/>
		<stop  offset="0.8215" style="stop-color:#272524"/>
		<stop  offset="0.9452" style="stop-color:#383434"/>
		<stop  offset="1" style="stop-color:#3E3A39"/>
	</linearGradient>
	<rect x="37.2" y="22.3" class="st58" width="0.9" height="0.2"/>
	<linearGradient id="SVGID_57_" gradientUnits="userSpaceOnUse" x1="37.2366" y1="22.6596" x2="38.1228" y2="22.6596">
		<stop  offset="0" style="stop-color:#2F2C2C"/>
		<stop  offset="0.2434" style="stop-color:#3C3737"/>
		<stop  offset="0.715" style="stop-color:#0A0A0A"/>
		<stop  offset="0.8215" style="stop-color:#272524"/>
		<stop  offset="0.9452" style="stop-color:#383434"/>
		<stop  offset="1" style="stop-color:#3E3A39"/>
	</linearGradient>
	<rect x="37.2" y="22.6" class="st59" width="0.9" height="0.2"/>
	<linearGradient id="SVGID_58_" gradientUnits="userSpaceOnUse" x1="37.2366" y1="22.9516" x2="38.1228" y2="22.9516">
		<stop  offset="0" style="stop-color:#2F2C2C"/>
		<stop  offset="0.2434" style="stop-color:#3C3737"/>
		<stop  offset="0.715" style="stop-color:#0A0A0A"/>
		<stop  offset="0.8215" style="stop-color:#272524"/>
		<stop  offset="0.9452" style="stop-color:#383434"/>
		<stop  offset="1" style="stop-color:#3E3A39"/>
	</linearGradient>
	<rect x="37.2" y="22.9" class="st60" width="0.9" height="0.2"/>
	<linearGradient id="SVGID_59_" gradientUnits="userSpaceOnUse" x1="37.2366" y1="23.2033" x2="38.1228" y2="23.2033">
		<stop  offset="0" style="stop-color:#2F2C2C"/>
		<stop  offset="0.2434" style="stop-color:#3C3737"/>
		<stop  offset="0.715" style="stop-color:#0A0A0A"/>
		<stop  offset="0.8215" style="stop-color:#272524"/>
		<stop  offset="0.9452" style="stop-color:#383434"/>
		<stop  offset="1" style="stop-color:#3E3A39"/>
	</linearGradient>
	<rect x="37.2" y="23.1" class="st61" width="0.9" height="0.2"/>
	<linearGradient id="SVGID_60_" gradientUnits="userSpaceOnUse" x1="37.2366" y1="25.2676" x2="38.1228" y2="25.2676">
		<stop  offset="0" style="stop-color:#2F2C2C"/>
		<stop  offset="0.2434" style="stop-color:#3C3737"/>
		<stop  offset="0.715" style="stop-color:#0A0A0A"/>
		<stop  offset="0.8215" style="stop-color:#272524"/>
		<stop  offset="0.9452" style="stop-color:#383434"/>
		<stop  offset="1" style="stop-color:#3E3A39"/>
	</linearGradient>
	<rect x="37.2" y="25.2" class="st62" width="0.9" height="0.2"/>
	<linearGradient id="SVGID_61_" gradientUnits="userSpaceOnUse" x1="37.2366" y1="25.5395" x2="38.1228" y2="25.5395">
		<stop  offset="0" style="stop-color:#2F2C2C"/>
		<stop  offset="0.2434" style="stop-color:#3C3737"/>
		<stop  offset="0.715" style="stop-color:#0A0A0A"/>
		<stop  offset="0.8215" style="stop-color:#272524"/>
		<stop  offset="0.9452" style="stop-color:#383434"/>
		<stop  offset="1" style="stop-color:#3E3A39"/>
	</linearGradient>
	<rect x="37.2" y="25.5" class="st63" width="0.9" height="0.2"/>
	<linearGradient id="SVGID_62_" gradientUnits="userSpaceOnUse" x1="37.2366" y1="25.8416" x2="38.1228" y2="25.8416">
		<stop  offset="0" style="stop-color:#2F2C2C"/>
		<stop  offset="0.2434" style="stop-color:#3C3737"/>
		<stop  offset="0.715" style="stop-color:#0A0A0A"/>
		<stop  offset="0.8215" style="stop-color:#272524"/>
		<stop  offset="0.9452" style="stop-color:#383434"/>
		<stop  offset="1" style="stop-color:#3E3A39"/>
	</linearGradient>
	<rect x="37.2" y="25.8" class="st64" width="0.9" height="0.2"/>
	<linearGradient id="SVGID_63_" gradientUnits="userSpaceOnUse" x1="37.2366" y1="26.1537" x2="38.1228" y2="26.1537">
		<stop  offset="0" style="stop-color:#2F2C2C"/>
		<stop  offset="0.2434" style="stop-color:#3C3737"/>
		<stop  offset="0.715" style="stop-color:#0A0A0A"/>
		<stop  offset="0.8215" style="stop-color:#272524"/>
		<stop  offset="0.9452" style="stop-color:#383434"/>
		<stop  offset="1" style="stop-color:#3E3A39"/>
	</linearGradient>
	<rect x="37.2" y="26.1" class="st65" width="0.9" height="0.2"/>
	<linearGradient id="SVGID_64_" gradientUnits="userSpaceOnUse" x1="37.2366" y1="26.4759" x2="38.1228" y2="26.4759">
		<stop  offset="0" style="stop-color:#2F2C2C"/>
		<stop  offset="0.2434" style="stop-color:#3C3737"/>
		<stop  offset="0.715" style="stop-color:#0A0A0A"/>
		<stop  offset="0.8215" style="stop-color:#272524"/>
		<stop  offset="0.9452" style="stop-color:#383434"/>
		<stop  offset="1" style="stop-color:#3E3A39"/>
	</linearGradient>
	<rect x="37.2" y="26.4" class="st66" width="0.9" height="0.2"/>
	<linearGradient id="SVGID_65_" gradientUnits="userSpaceOnUse" x1="37.2366" y1="26.7881" x2="38.1228" y2="26.7881">
		<stop  offset="0" style="stop-color:#2F2C2C"/>
		<stop  offset="0.2434" style="stop-color:#3C3737"/>
		<stop  offset="0.715" style="stop-color:#0A0A0A"/>
		<stop  offset="0.8215" style="stop-color:#272524"/>
		<stop  offset="0.9452" style="stop-color:#383434"/>
		<stop  offset="1" style="stop-color:#3E3A39"/>
	</linearGradient>
	<rect x="37.2" y="26.7" class="st67" width="0.9" height="0.2"/>
	<linearGradient id="SVGID_66_" gradientUnits="userSpaceOnUse" x1="37.2366" y1="27.0801" x2="38.1228" y2="27.0801">
		<stop  offset="0" style="stop-color:#2F2C2C"/>
		<stop  offset="0.2434" style="stop-color:#3C3737"/>
		<stop  offset="0.715" style="stop-color:#0A0A0A"/>
		<stop  offset="0.8215" style="stop-color:#272524"/>
		<stop  offset="0.9452" style="stop-color:#383434"/>
		<stop  offset="1" style="stop-color:#3E3A39"/>
	</linearGradient>
	<rect x="37.2" y="27" class="st68" width="0.9" height="0.2"/>
	<linearGradient id="SVGID_67_" gradientUnits="userSpaceOnUse" x1="37.2366" y1="27.3319" x2="38.1228" y2="27.3319">
		<stop  offset="0" style="stop-color:#2F2C2C"/>
		<stop  offset="0.2434" style="stop-color:#3C3737"/>
		<stop  offset="0.715" style="stop-color:#0A0A0A"/>
		<stop  offset="0.8215" style="stop-color:#272524"/>
		<stop  offset="0.9452" style="stop-color:#383434"/>
		<stop  offset="1" style="stop-color:#3E3A39"/>
	</linearGradient>
	<rect x="37.2" y="27.2" class="st69" width="0.9" height="0.2"/>
	<linearGradient id="SVGID_68_" gradientUnits="userSpaceOnUse" x1="37.2366" y1="29.3659" x2="38.1228" y2="29.3659">
		<stop  offset="0" style="stop-color:#2F2C2C"/>
		<stop  offset="0.2434" style="stop-color:#3C3737"/>
		<stop  offset="0.715" style="stop-color:#0A0A0A"/>
		<stop  offset="0.8215" style="stop-color:#272524"/>
		<stop  offset="0.9452" style="stop-color:#383434"/>
		<stop  offset="1" style="stop-color:#3E3A39"/>
	</linearGradient>
	<rect x="37.2" y="29.3" class="st70" width="0.9" height="0.2"/>
	<linearGradient id="SVGID_69_" gradientUnits="userSpaceOnUse" x1="37.2366" y1="29.6378" x2="38.1228" y2="29.6378">
		<stop  offset="0" style="stop-color:#2F2C2C"/>
		<stop  offset="0.2434" style="stop-color:#3C3737"/>
		<stop  offset="0.715" style="stop-color:#0A0A0A"/>
		<stop  offset="0.8215" style="stop-color:#272524"/>
		<stop  offset="0.9452" style="stop-color:#383434"/>
		<stop  offset="1" style="stop-color:#3E3A39"/>
	</linearGradient>
	<rect x="37.2" y="29.6" class="st71" width="0.9" height="0.2"/>
	<linearGradient id="SVGID_70_" gradientUnits="userSpaceOnUse" x1="37.2366" y1="29.9399" x2="38.1228" y2="29.9399">
		<stop  offset="0" style="stop-color:#2F2C2C"/>
		<stop  offset="0.2434" style="stop-color:#3C3737"/>
		<stop  offset="0.715" style="stop-color:#0A0A0A"/>
		<stop  offset="0.8215" style="stop-color:#272524"/>
		<stop  offset="0.9452" style="stop-color:#383434"/>
		<stop  offset="1" style="stop-color:#3E3A39"/>
	</linearGradient>
	<rect x="37.2" y="29.9" class="st72" width="0.9" height="0.2"/>
	<linearGradient id="SVGID_71_" gradientUnits="userSpaceOnUse" x1="37.2366" y1="30.252" x2="38.1228" y2="30.252">
		<stop  offset="0" style="stop-color:#2F2C2C"/>
		<stop  offset="0.2434" style="stop-color:#3C3737"/>
		<stop  offset="0.715" style="stop-color:#0A0A0A"/>
		<stop  offset="0.8215" style="stop-color:#272524"/>
		<stop  offset="0.9452" style="stop-color:#383434"/>
		<stop  offset="1" style="stop-color:#3E3A39"/>
	</linearGradient>
	<rect x="37.2" y="30.2" class="st73" width="0.9" height="0.2"/>
	<linearGradient id="SVGID_72_" gradientUnits="userSpaceOnUse" x1="37.2366" y1="30.5742" x2="38.1228" y2="30.5742">
		<stop  offset="0" style="stop-color:#2F2C2C"/>
		<stop  offset="0.2434" style="stop-color:#3C3737"/>
		<stop  offset="0.715" style="stop-color:#0A0A0A"/>
		<stop  offset="0.8215" style="stop-color:#272524"/>
		<stop  offset="0.9452" style="stop-color:#383434"/>
		<stop  offset="1" style="stop-color:#3E3A39"/>
	</linearGradient>
	<rect x="37.2" y="30.5" class="st74" width="0.9" height="0.2"/>
	<linearGradient id="SVGID_73_" gradientUnits="userSpaceOnUse" x1="37.2366" y1="30.8864" x2="38.1228" y2="30.8864">
		<stop  offset="0" style="stop-color:#2F2C2C"/>
		<stop  offset="0.2434" style="stop-color:#3C3737"/>
		<stop  offset="0.715" style="stop-color:#0A0A0A"/>
		<stop  offset="0.8215" style="stop-color:#272524"/>
		<stop  offset="0.9452" style="stop-color:#383434"/>
		<stop  offset="1" style="stop-color:#3E3A39"/>
	</linearGradient>
	<rect x="37.2" y="30.8" class="st75" width="0.9" height="0.2"/>
	<linearGradient id="SVGID_74_" gradientUnits="userSpaceOnUse" x1="37.2366" y1="31.1784" x2="38.1228" y2="31.1784">
		<stop  offset="0" style="stop-color:#2F2C2C"/>
		<stop  offset="0.2434" style="stop-color:#3C3737"/>
		<stop  offset="0.715" style="stop-color:#0A0A0A"/>
		<stop  offset="0.8215" style="stop-color:#272524"/>
		<stop  offset="0.9452" style="stop-color:#383434"/>
		<stop  offset="1" style="stop-color:#3E3A39"/>
	</linearGradient>
	<rect x="37.2" y="31.1" class="st76" width="0.9" height="0.2"/>
	<linearGradient id="SVGID_75_" gradientUnits="userSpaceOnUse" x1="37.2366" y1="31.4302" x2="38.1228" y2="31.4302">
		<stop  offset="0" style="stop-color:#2F2C2C"/>
		<stop  offset="0.2434" style="stop-color:#3C3737"/>
		<stop  offset="0.715" style="stop-color:#0A0A0A"/>
		<stop  offset="0.8215" style="stop-color:#272524"/>
		<stop  offset="0.9452" style="stop-color:#383434"/>
		<stop  offset="1" style="stop-color:#3E3A39"/>
	</linearGradient>
	<rect x="37.2" y="31.3" class="st77" width="0.9" height="0.2"/>
	<linearGradient id="SVGID_76_" gradientUnits="userSpaceOnUse" x1="37.2366" y1="33.5246" x2="38.1228" y2="33.5246">
		<stop  offset="0" style="stop-color:#2F2C2C"/>
		<stop  offset="0.2434" style="stop-color:#3C3737"/>
		<stop  offset="0.715" style="stop-color:#0A0A0A"/>
		<stop  offset="0.8215" style="stop-color:#272524"/>
		<stop  offset="0.9452" style="stop-color:#383434"/>
		<stop  offset="1" style="stop-color:#3E3A39"/>
	</linearGradient>
	<rect x="37.2" y="33.4" class="st78" width="0.9" height="0.2"/>
	<linearGradient id="SVGID_77_" gradientUnits="userSpaceOnUse" x1="37.2366" y1="33.7965" x2="38.1228" y2="33.7965">
		<stop  offset="0" style="stop-color:#2F2C2C"/>
		<stop  offset="0.2434" style="stop-color:#3C3737"/>
		<stop  offset="0.715" style="stop-color:#0A0A0A"/>
		<stop  offset="0.8215" style="stop-color:#272524"/>
		<stop  offset="0.9452" style="stop-color:#383434"/>
		<stop  offset="1" style="stop-color:#3E3A39"/>
	</linearGradient>
	<rect x="37.2" y="33.7" class="st79" width="0.9" height="0.2"/>
	<linearGradient id="SVGID_78_" gradientUnits="userSpaceOnUse" x1="37.2366" y1="34.0986" x2="38.1228" y2="34.0986">
		<stop  offset="0" style="stop-color:#2F2C2C"/>
		<stop  offset="0.2434" style="stop-color:#3C3737"/>
		<stop  offset="0.715" style="stop-color:#0A0A0A"/>
		<stop  offset="0.8215" style="stop-color:#272524"/>
		<stop  offset="0.9452" style="stop-color:#383434"/>
		<stop  offset="1" style="stop-color:#3E3A39"/>
	</linearGradient>
	<rect x="37.2" y="34" class="st80" width="0.9" height="0.2"/>
	<linearGradient id="SVGID_79_" gradientUnits="userSpaceOnUse" x1="37.2366" y1="34.4107" x2="38.1228" y2="34.4107">
		<stop  offset="0" style="stop-color:#2F2C2C"/>
		<stop  offset="0.2434" style="stop-color:#3C3737"/>
		<stop  offset="0.715" style="stop-color:#0A0A0A"/>
		<stop  offset="0.8215" style="stop-color:#272524"/>
		<stop  offset="0.9452" style="stop-color:#383434"/>
		<stop  offset="1" style="stop-color:#3E3A39"/>
	</linearGradient>
	<rect x="37.2" y="34.3" class="st81" width="0.9" height="0.2"/>
	<linearGradient id="SVGID_80_" gradientUnits="userSpaceOnUse" x1="37.2366" y1="34.733" x2="38.1228" y2="34.733">
		<stop  offset="0" style="stop-color:#2F2C2C"/>
		<stop  offset="0.2434" style="stop-color:#3C3737"/>
		<stop  offset="0.715" style="stop-color:#0A0A0A"/>
		<stop  offset="0.8215" style="stop-color:#272524"/>
		<stop  offset="0.9452" style="stop-color:#383434"/>
		<stop  offset="1" style="stop-color:#3E3A39"/>
	</linearGradient>
	<rect x="37.2" y="34.6" class="st82" width="0.9" height="0.2"/>
	<linearGradient id="SVGID_81_" gradientUnits="userSpaceOnUse" x1="37.2366" y1="35.0451" x2="38.1228" y2="35.0451">
		<stop  offset="0" style="stop-color:#2F2C2C"/>
		<stop  offset="0.2434" style="stop-color:#3C3737"/>
		<stop  offset="0.715" style="stop-color:#0A0A0A"/>
		<stop  offset="0.8215" style="stop-color:#272524"/>
		<stop  offset="0.9452" style="stop-color:#383434"/>
		<stop  offset="1" style="stop-color:#3E3A39"/>
	</linearGradient>
	<rect x="37.2" y="35" class="st83" width="0.9" height="0.2"/>
	<linearGradient id="SVGID_82_" gradientUnits="userSpaceOnUse" x1="37.2366" y1="35.3371" x2="38.1228" y2="35.3371">
		<stop  offset="0" style="stop-color:#2F2C2C"/>
		<stop  offset="0.2434" style="stop-color:#3C3737"/>
		<stop  offset="0.715" style="stop-color:#0A0A0A"/>
		<stop  offset="0.8215" style="stop-color:#272524"/>
		<stop  offset="0.9452" style="stop-color:#383434"/>
		<stop  offset="1" style="stop-color:#3E3A39"/>
	</linearGradient>
	<rect x="37.2" y="35.3" class="st84" width="0.9" height="0.2"/>
	<linearGradient id="SVGID_83_" gradientUnits="userSpaceOnUse" x1="37.2366" y1="35.5889" x2="38.1228" y2="35.5889">
		<stop  offset="0" style="stop-color:#2F2C2C"/>
		<stop  offset="0.2434" style="stop-color:#3C3737"/>
		<stop  offset="0.715" style="stop-color:#0A0A0A"/>
		<stop  offset="0.8215" style="stop-color:#272524"/>
		<stop  offset="0.9452" style="stop-color:#383434"/>
		<stop  offset="1" style="stop-color:#3E3A39"/>
	</linearGradient>
	<rect x="37.2" y="35.5" class="st85" width="0.9" height="0.2"/>
</g>
</svg>
