<svg xmlns="http://www.w3.org/2000/svg" width="74" height="48.002" viewBox="0 0 74 48.002"><title>cc-link_wprph</title><rect y="0.001" width="74" height="48" fill="#fff"/><rect x="30.134" y="0.062" width="13.732" height="47.878" fill="#383838"/><rect x="30.134" y="18.326" width="13.732" height="29.614" fill="#262626"/><path d="M30.134,0.061V2.255h1.6a0.705,0.705,0,0,0,.687-0.718V0.061H30.134Z" transform="translate(0 0.001)" fill="#1a1a1a" fill-rule="evenodd"/><path d="M43.866,0.061V2.255H42.261a0.705,0.705,0,0,1-.687-0.718V0.061h2.292Z" transform="translate(0 0.001)" fill="#1a1a1a" fill-rule="evenodd"/><ellipse cx="31.463" cy="1.159" rx="0.565" ry="0.591" fill="#fff"/><ellipse cx="42.537" cy="1.159" rx="0.565" ry="0.591" fill="#fff"/><path d="M41.574,1.537V0.061H32.426V1.537a0.705,0.705,0,0,1-.687.718h-1.6V8.871h1.841l0.3-.507h9.446l0.3,0.507h1.841V2.255H42.261A0.705,0.705,0,0,1,41.574,1.537Z" transform="translate(0 0.001)" fill="#383838" fill-rule="evenodd"/><path d="M41.574,1.537V0.061H32.426V1.537a0.705,0.705,0,0,1-.687.718h-1.6V8.871h1.841l0.3-.507h9.446l0.3,0.507h1.841V2.255H42.261A0.705,0.705,0,0,1,41.574,1.537Z" transform="translate(0 0.001)" fill="none" stroke="#1a1a1a" stroke-width="0.116"/><path d="M33.322,18.325H30.134V24.3h3.188a2.85,2.85,0,0,0,2.691-2.986A2.85,2.85,0,0,0,33.322,18.325Z" transform="translate(0 0.001)" fill="#3e3a39"/><path d="M40.678,18.325h3.188V24.3H40.678a2.85,2.85,0,0,1-2.691-2.986A2.85,2.85,0,0,1,40.678,18.325Z" transform="translate(0 0.001)" fill="#3e3a39"/><polygon points="33.26 7.107 32.175 5.142 33.26 3.176 35.43 3.176 36.515 5.142 35.43 7.107 33.26 7.107" fill="#fff"/><ellipse cx="34.345" cy="5.142" rx="1.857" ry="1.942" fill="#ccc"/><ellipse cx="34.345" cy="5.142" rx="1.616" ry="1.69" fill="#595959"/><ellipse cx="34.345" cy="5.141" rx="1.325" ry="1.386" fill="#1a1a1a"/><ellipse cx="34.345" cy="5.141" rx="0.911" ry="0.953" fill="#333"/><ellipse cx="34.345" cy="4.539" rx="0.173" ry="0.181" fill="#1a1a1a"/><ellipse cx="34.345" cy="5.744" rx="0.173" ry="0.181" fill="#1a1a1a"/><ellipse cx="34.921" cy="5.141" rx="0.173" ry="0.181" fill="#1a1a1a"/><ellipse cx="33.768" cy="5.141" rx="0.173" ry="0.181" fill="#1a1a1a"/><polygon points="32.257 23.25 31.173 21.284 32.257 19.319 34.427 19.319 35.512 21.284 34.427 23.25 32.257 23.25" fill="#fff"/><ellipse cx="33.342" cy="21.284" rx="1.857" ry="1.942" fill="#ccc"/><ellipse cx="33.342" cy="21.284" rx="1.616" ry="1.69" fill="#595959"/><ellipse cx="33.342" cy="21.284" rx="1.325" ry="1.386" fill="#1a1a1a"/><ellipse cx="33.342" cy="21.284" rx="0.911" ry="0.952" fill="#333"/><ellipse cx="33.342" cy="20.681" rx="0.173" ry="0.181" fill="#1a1a1a"/><ellipse cx="33.342" cy="21.887" rx="0.173" ry="0.181" fill="#1a1a1a"/><ellipse cx="33.918" cy="21.284" rx="0.173" ry="0.181" fill="#1a1a1a"/><ellipse cx="32.766" cy="21.284" rx="0.173" ry="0.181" fill="#1a1a1a"/><ellipse cx="33.074" cy="27.08" rx="1.325" ry="1.386" fill="#1a1a1a"/><ellipse cx="33.074" cy="27.08" rx="0.911" ry="0.953" fill="#333"/><ellipse cx="33.074" cy="26.477" rx="0.173" ry="0.181" fill="#1a1a1a"/><ellipse cx="33.074" cy="27.682" rx="0.173" ry="0.181" fill="#1a1a1a"/><ellipse cx="33.65" cy="27.08" rx="0.173" ry="0.181" fill="#1a1a1a"/><ellipse cx="32.498" cy="27.08" rx="0.173" ry="0.181" fill="#1a1a1a"/><ellipse cx="33.074" cy="32.938" rx="1.325" ry="1.386" fill="#1a1a1a"/><ellipse cx="33.074" cy="32.938" rx="0.911" ry="0.953" fill="#333"/><ellipse cx="33.074" cy="32.335" rx="0.173" ry="0.181" fill="#1a1a1a"/><ellipse cx="33.074" cy="33.541" rx="0.173" ry="0.181" fill="#1a1a1a"/><ellipse cx="33.65" cy="32.938" rx="0.173" ry="0.181" fill="#1a1a1a"/><ellipse cx="32.498" cy="32.938" rx="0.173" ry="0.181" fill="#1a1a1a"/><ellipse cx="33.074" cy="38.94" rx="1.325" ry="1.386" fill="#1a1a1a"/><ellipse cx="33.074" cy="38.94" rx="0.911" ry="0.953" fill="#333"/><ellipse cx="33.074" cy="38.337" rx="0.173" ry="0.181" fill="#1a1a1a"/><ellipse cx="33.074" cy="39.543" rx="0.173" ry="0.181" fill="#1a1a1a"/><ellipse cx="33.65" cy="38.94" rx="0.173" ry="0.181" fill="#1a1a1a"/><ellipse cx="32.498" cy="38.94" rx="0.173" ry="0.181" fill="#1a1a1a"/><ellipse cx="33.074" cy="44.942" rx="1.325" ry="1.386" fill="#1a1a1a"/><ellipse cx="33.074" cy="44.942" rx="0.911" ry="0.953" fill="#333"/><ellipse cx="33.074" cy="44.339" rx="0.173" ry="0.181" fill="#1a1a1a"/><ellipse cx="33.074" cy="45.544" rx="0.173" ry="0.181" fill="#1a1a1a"/><ellipse cx="33.65" cy="44.942" rx="0.173" ry="0.181" fill="#1a1a1a"/><ellipse cx="32.498" cy="44.942" rx="0.173" ry="0.181" fill="#1a1a1a"/><ellipse cx="40.926" cy="27.08" rx="1.325" ry="1.386" fill="#1a1a1a"/><ellipse cx="40.926" cy="27.08" rx="0.911" ry="0.953" fill="#333"/><ellipse cx="40.926" cy="26.477" rx="0.173" ry="0.181" fill="#1a1a1a"/><ellipse cx="40.926" cy="27.682" rx="0.173" ry="0.181" fill="#1a1a1a"/><ellipse cx="40.35" cy="27.08" rx="0.173" ry="0.181" fill="#1a1a1a"/><ellipse cx="41.502" cy="27.08" rx="0.173" ry="0.181" fill="#1a1a1a"/><ellipse cx="40.926" cy="32.938" rx="1.325" ry="1.386" fill="#1a1a1a"/><ellipse cx="40.926" cy="32.938" rx="0.911" ry="0.953" fill="#333"/><ellipse cx="40.926" cy="32.335" rx="0.173" ry="0.181" fill="#1a1a1a"/><ellipse cx="40.926" cy="33.541" rx="0.173" ry="0.181" fill="#1a1a1a"/><ellipse cx="40.35" cy="32.938" rx="0.173" ry="0.181" fill="#1a1a1a"/><ellipse cx="41.502" cy="32.938" rx="0.173" ry="0.181" fill="#1a1a1a"/><ellipse cx="40.926" cy="38.94" rx="1.325" ry="1.386" fill="#1a1a1a"/><ellipse cx="40.926" cy="38.94" rx="0.911" ry="0.953" fill="#333"/><ellipse cx="40.926" cy="38.337" rx="0.173" ry="0.181" fill="#1a1a1a"/><ellipse cx="40.926" cy="39.543" rx="0.173" ry="0.181" fill="#1a1a1a"/><ellipse cx="40.35" cy="38.94" rx="0.173" ry="0.181" fill="#1a1a1a"/><ellipse cx="41.502" cy="38.94" rx="0.173" ry="0.181" fill="#1a1a1a"/><ellipse cx="40.926" cy="44.942" rx="1.325" ry="1.386" fill="#1a1a1a"/><ellipse cx="40.926" cy="44.942" rx="0.911" ry="0.953" fill="#333"/><ellipse cx="40.926" cy="44.339" rx="0.173" ry="0.181" fill="#1a1a1a"/><ellipse cx="40.926" cy="45.544" rx="0.173" ry="0.181" fill="#1a1a1a"/><ellipse cx="40.35" cy="44.942" rx="0.173" ry="0.181" fill="#1a1a1a"/><ellipse cx="41.502" cy="44.942" rx="0.173" ry="0.181" fill="#1a1a1a"/><ellipse cx="40.204" cy="5.142" rx="1.779" ry="1.861" fill="#595959"/><ellipse cx="40.204" cy="5.141" rx="1.324" ry="1.386" fill="#1a1a1a"/><ellipse cx="40.204" cy="5.141" rx="0.91" ry="0.953" fill="#333"/><ellipse cx="40.204" cy="4.539" rx="0.173" ry="0.181" fill="#1a1a1a"/><ellipse cx="40.204" cy="5.744" rx="0.173" ry="0.181" fill="#1a1a1a"/><ellipse cx="39.628" cy="5.141" rx="0.173" ry="0.181" fill="#1a1a1a"/><ellipse cx="40.78" cy="5.141" rx="0.173" ry="0.181" fill="#1a1a1a"/><rect x="34.706" y="26.411" width="4.535" height="19.314" fill="#fff" stroke="#262626" stroke-width="0.116"/><rect x="34.706" y="27.228" width="4.535" height="2.834" fill="#fff" stroke="#262626" stroke-width="0.116"/><line x1="34.706" y1="28.645" x2="39.241" y2="28.645" fill="none" stroke="#262626" stroke-width="0.116"/><rect x="34.706" y="32.207" width="4.535" height="2.834" fill="#fff" stroke="#262626" stroke-width="0.116"/><line x1="34.706" y1="33.624" x2="39.241" y2="33.624" fill="none" stroke="#262626" stroke-width="0.116"/><rect x="34.706" y="42.075" width="4.535" height="2.834" fill="#fff" stroke="#262626" stroke-width="0.116"/><line x1="34.706" y1="43.492" x2="39.241" y2="43.492" fill="none" stroke="#262626" stroke-width="0.116"/><rect x="34.706" y="37.096" width="4.535" height="2.834" fill="#fff" stroke="#262626" stroke-width="0.116"/><line x1="34.706" y1="38.513" x2="39.241" y2="38.513" fill="none" stroke="#262626" stroke-width="0.116"/><rect x="36.082" y="26.411" width="1.783" height="0.817" fill="#fff" stroke="#262626" stroke-width="0.116"/><rect x="36.082" y="44.909" width="1.783" height="0.817" fill="#fff" stroke="#262626" stroke-width="0.116"/><line x1="36.974" y1="26.411" x2="36.974" y2="45.725" fill="none" stroke="#262626" stroke-width="0.116"/><path d="M40.727,12.173h1.268a0.073,0.073,0,0,1,.073.073v5.445a0.077,0.077,0,0,1-.077.077H40.724a0.073,0.073,0,0,1-.073-0.073V12.249A0.077,0.077,0,0,1,40.727,12.173Z" fill="#3e3a39"/><rect x="40.804" y="12.553" width="0.256" height="0.267" fill="#bd9949"/><rect x="40.804" y="13.059" width="0.256" height="0.267" fill="#bd9949"/><rect x="40.804" y="13.566" width="0.256" height="0.267" fill="#bd9949"/><rect x="40.804" y="14.073" width="0.256" height="0.267" fill="#bd9949"/><rect x="40.804" y="14.58" width="0.256" height="0.267" fill="#bd9949"/><rect x="40.804" y="15.086" width="0.256" height="0.267" fill="#bd9949"/><rect x="40.804" y="15.593" width="0.256" height="0.267" fill="#bd9949"/><rect x="40.804" y="16.1" width="0.256" height="0.267" fill="#bd9949"/><rect x="40.804" y="16.606" width="0.256" height="0.267" fill="#bd9949"/><rect x="40.804" y="17.113" width="0.256" height="0.267" fill="#bd9949"/><rect x="41.659" y="12.553" width="0.256" height="0.267" fill="#bd9949"/><rect x="41.659" y="13.059" width="0.256" height="0.267" fill="#bd9949"/><rect x="41.659" y="13.566" width="0.256" height="0.267" fill="#bd9949"/><rect x="41.659" y="14.073" width="0.256" height="0.267" fill="#bd9949"/><rect x="41.659" y="14.58" width="0.256" height="0.267" fill="#bd9949"/><rect x="41.659" y="15.086" width="0.256" height="0.267" fill="#bd9949"/><rect x="41.659" y="15.593" width="0.256" height="0.267" fill="#bd9949"/><rect x="41.659" y="16.1" width="0.256" height="0.267" fill="#bd9949"/><rect x="41.659" y="16.606" width="0.256" height="0.267" fill="#bd9949"/><rect x="41.659" y="17.113" width="0.256" height="0.267" fill="#bd9949"/><ellipse cx="42.72" cy="7.81" rx="0.56" ry="0.586" fill="gray"/><path d="M42.9,7.809l0.1-.106a0.085,0.085,0,0,0,0-.116L42.932,7.51a0.076,0.076,0,0,0-.111,0l-0.1.106-0.1-.106a0.076,0.076,0,0,0-.111,0l-0.073.077a0.085,0.085,0,0,0,0,.116l0.1,0.106-0.1.106a0.085,0.085,0,0,0,0,.116l0.073,0.077a0.076,0.076,0,0,0,.111,0L42.72,8l0.1,0.106a0.076,0.076,0,0,0,.111,0l0.073-.077a0.085,0.085,0,0,0,0-.116Z" transform="translate(0 0.001)" fill="#333"/><ellipse cx="40.479" cy="1.303" rx="0.56" ry="0.586" fill="gray"/><path d="M40.664,1.3l0.1-.106a0.085,0.085,0,0,0,0-.116L40.692,1a0.076,0.076,0,0,0-.111,0l-0.1.106L40.378,1a0.076,0.076,0,0,0-.111,0l-0.073.077a0.085,0.085,0,0,0,0,.116l0.1,0.106-0.1.106a0.085,0.085,0,0,0,0,.116L40.266,1.6a0.076,0.076,0,0,0,.111,0l0.1-.106L40.58,1.6a0.076,0.076,0,0,0,.111,0l0.073-.077a0.085,0.085,0,0,0,0-.116Z" transform="translate(0 0.001)" fill="#333"/><ellipse cx="31.28" cy="7.81" rx="0.56" ry="0.586" fill="gray"/><path d="M31.1,7.809l-0.1-.106a0.085,0.085,0,0,1,0-.116l0.073-.077a0.076,0.076,0,0,1,.111,0l0.1,0.106,0.1-.106a0.076,0.076,0,0,1,.111,0l0.073,0.077a0.085,0.085,0,0,1,0,.116l-0.1.106,0.1,0.106a0.085,0.085,0,0,1,0,.116l-0.073.077a0.076,0.076,0,0,1-.111,0L31.28,8l-0.1.106a0.076,0.076,0,0,1-.111,0l-0.073-.077a0.085,0.085,0,0,1,0-.116Z" transform="translate(0 0.001)" fill="#333"/><ellipse cx="33.521" cy="1.303" rx="0.56" ry="0.586" fill="gray"/><path d="M33.336,1.3l-0.1-.106a0.085,0.085,0,0,1,0-.116L33.308,1a0.076,0.076,0,0,1,.111,0l0.1,0.106L33.622,1a0.076,0.076,0,0,1,.111,0L33.806,1.08a0.085,0.085,0,0,1,0,.116l-0.1.106,0.1,0.106a0.085,0.085,0,0,1,0,.116L33.734,1.6a0.077,0.077,0,0,1-.112,0l-0.1-.106-0.1.106a0.076,0.076,0,0,1-.111,0l-0.073-.077a0.085,0.085,0,0,1,0-.116Z" transform="translate(0 0.001)" fill="#333"/><path d="M36.974,45.809a0.913,0.913,0,0,0-.892.933v1.2h1.783v-1.2A0.913,0.913,0,0,0,36.974,45.809Z" transform="translate(0 0.001)" fill="#3e3a39"/><rect x="30.134" y="0.062" width="13.732" height="47.878" fill="none" stroke="#000" stroke-width="0.124"/></svg>