<svg xmlns="http://www.w3.org/2000/svg" width="74" height="48" viewBox="0 0 74 48"><title>cc-link_lt_psadp</title><rect width="74" height="48" fill="#fff"/><rect x="25.632" y="9.092" width="22.736" height="29.817" fill="#919191"/><rect x="40.039" y="15.467" width="8.33" height="23.442" fill="#717071"/><polygon points="37.484 9.96 37.484 9.092 25.632 9.092 25.632 14.931 38.944 14.931 38.944 9.96 37.484 9.96" fill="#717071"/><path d="M28.394,10.972V9.092H25.632v3.273h1.514A1.325,1.325,0,0,0,28.394,10.972Z" fill="#595757"/><ellipse cx="26.971" cy="10.848" rx="0.855" ry="0.87" fill="#fff"/><path d="M28.394,37.027v1.881H25.632V35.635h1.514A1.325,1.325,0,0,1,28.394,37.027Z" fill="#595757"/><ellipse cx="26.971" cy="37.152" rx="0.855" ry="0.87" fill="#fff"/><rect x="38.944" y="9.96" width="6.173" height="4.971" fill="#595757"/><rect x="38.982" y="10.119" width="5.959" height="4.652" fill="#717071"/><ellipse cx="44.803" cy="17.802" rx="0.692" ry="0.705"/><rect x="40.625" y="18.924" width="4.944" height="18.418" fill="#1f1f1f"/><polygon points="44.6 27.638 45.299 27.638 45.299 19.674 44.6 19.674 44.6 19.179 40.86 19.179 40.86 28.133 44.6 28.133 44.6 27.638" fill="#3888b4"/><polygon points="45.092 20.612 42.441 20.612 42.441 19.57 41.23 19.57 41.23 27.722 42.441 27.722 42.441 26.681 45.092 26.681 45.092 20.612" fill="#124d6a"/><polygon points="42.35 21.567 41.641 21.567 41.641 25.745 42.35 25.745 42.35 26.093 41.641 26.093 41.299 26.093 41.299 25.745 41.299 21.567 41.299 21.219 41.641 21.219 42.35 21.219 42.35 21.567" fill="#3888b4"/><rect x="41.641" y="21.567" width="1.417" height="4.177" fill="#07425b"/><polygon points="42.35 25.396 43.058 25.396 43.058 21.916 42.35 21.916 42.35 21.567 43.058 21.567 43.401 21.567 43.401 21.916 43.401 25.396 43.401 25.745 43.058 25.745 42.35 25.745 42.35 25.396" fill="#3888b4"/><polygon points="44.6 36.591 45.299 36.591 45.299 28.628 44.6 28.628 44.6 28.133 40.86 28.133 40.86 37.086 44.6 37.086 44.6 36.591" fill="#3888b4"/><polygon points="45.092 29.565 42.441 29.565 42.441 28.524 41.23 28.524 41.23 36.676 42.441 36.676 42.441 35.635 45.092 35.635 45.092 29.565" fill="#124d6a"/><polygon points="42.35 30.521 41.641 30.521 41.641 34.698 42.35 34.698 42.35 35.047 41.641 35.047 41.299 35.047 41.299 34.698 41.299 30.521 41.299 30.172 41.641 30.172 42.35 30.172 42.35 30.521" fill="#3888b4"/><rect x="41.641" y="30.521" width="1.417" height="4.177" fill="#07425b"/><polygon points="42.35 34.35 43.058 34.35 43.058 30.87 42.35 30.87 42.35 30.521 43.058 30.521 43.401 30.521 43.401 30.87 43.401 34.35 43.401 34.698 43.058 34.698 42.35 34.698 42.35 34.35" fill="#3888b4"/><rect x="25.632" y="9.092" width="22.736" height="29.817" fill="none" stroke="#000" stroke-linecap="round" stroke-linejoin="round" stroke-width="0.184"/></svg>