<svg xmlns="http://www.w3.org/2000/svg" width="74" height="48" viewBox="0 0 74 48"><title>cc-link_rpt</title><rect width="74" height="48" fill="#fff"/><rect x="14.704" y="11.13" width="44.592" height="25.739" fill="#919191"/><rect x="15.957" y="25.231" width="42.65" height="11.638" fill="#1f1f1f"/><rect x="16.409" y="25.752" width="41.744" height="11.118" fill="#717071"/><ellipse cx="20.014" cy="28.904" rx="1.25" ry="1.261" fill="gray"/><rect x="16.409" y="32.072" width="18.711" height="4.798" fill="#595757"/><rect x="35.362" y="32.072" width="22.792" height="4.798" fill="#595757"/><path d="M57.356,17.256a2.225,2.225,0,0,0,0,4.449H59.3V17.256H57.356Z" fill="#141414"/><ellipse cx="57.356" cy="19.48" rx="1.352" ry="1.362" fill="#fff"/><path d="M17.156,17.256a2.225,2.225,0,0,1,0,4.449H14.7V17.256h2.452Z" fill="#141414"/><ellipse cx="17.156" cy="19.48" rx="1.352" ry="1.362" fill="#fff"/><path d="M54.637,19.48a2.732,2.732,0,0,1,2.718-2.74h1.25V11.851H15.394v4.889h1.762a2.74,2.74,0,0,1,0,5.479H15.394V24H58.606V22.22h-1.25A2.732,2.732,0,0,1,54.637,19.48Z" fill="none" stroke="#333" stroke-width="0.181"/><rect x="19.654" y="13.714" width="0.991" height="2.27" fill="#1f1f1f"/><rect x="22.297" y="13.714" width="0.991" height="2.27" fill="#1f1f1f"/><rect x="24.939" y="13.714" width="0.991" height="2.27" fill="#1f1f1f"/><rect x="27.432" y="13.714" width="0.991" height="2.27" fill="#1f1f1f"/><rect x="29.805" y="13.714" width="0.991" height="2.27" fill="#1f1f1f"/><rect x="32.718" y="13.714" width="0.991" height="2.27" fill="#1f1f1f"/><rect x="35.091" y="13.714" width="0.991" height="2.27" fill="#1f1f1f"/><path d="M20.426,28.9l0.226-.228a0.178,0.178,0,0,0,0-.25l-0.163-.165a0.174,0.174,0,0,0-.248,0l-0.226.228-0.226-.228a0.174,0.174,0,0,0-.248,0l-0.163.165a0.178,0.178,0,0,0,0,.25L19.6,28.9l-0.226.228a0.178,0.178,0,0,0,0,.25l0.163,0.165a0.175,0.175,0,0,0,.249,0l0.226-.228,0.226,0.228a0.175,0.175,0,0,0,.248,0l0.163-.165a0.178,0.178,0,0,0,0-.25Z" fill="#333"/><ellipse cx="23.88" cy="28.904" rx="1.25" ry="1.261" fill="gray"/><path d="M24.292,28.9l0.226-.228a0.178,0.178,0,0,0,0-.25l-0.163-.165a0.174,0.174,0,0,0-.248,0l-0.226.228-0.226-.228a0.174,0.174,0,0,0-.248,0l-0.163.165a0.178,0.178,0,0,0,0,.25L23.468,28.9l-0.226.228a0.178,0.178,0,0,0,0,.25l0.163,0.165a0.175,0.175,0,0,0,.249,0l0.226-.228,0.226,0.228a0.175,0.175,0,0,0,.248,0l0.163-.165a0.178,0.178,0,0,0,0-.25Z" fill="#333"/><ellipse cx="27.746" cy="28.904" rx="1.25" ry="1.261" fill="gray"/><path d="M28.158,28.9l0.226-.228a0.178,0.178,0,0,0,0-.25l-0.163-.165a0.174,0.174,0,0,0-.248,0l-0.226.228-0.226-.228a0.174,0.174,0,0,0-.248,0l-0.163.165a0.178,0.178,0,0,0,0,.25L27.334,28.9l-0.226.228a0.178,0.178,0,0,0,0,.25l0.163,0.165a0.175,0.175,0,0,0,.249,0l0.226-.228,0.226,0.228a0.175,0.175,0,0,0,.248,0l0.163-.165a0.178,0.178,0,0,0,0-.25Z" fill="#333"/><ellipse cx="31.613" cy="28.904" rx="1.25" ry="1.261" fill="gray"/><path d="M32.025,28.9l0.226-.228a0.178,0.178,0,0,0,0-.25l-0.163-.165a0.174,0.174,0,0,0-.248,0l-0.226.228-0.226-.228a0.174,0.174,0,0,0-.248,0l-0.163.165a0.178,0.178,0,0,0,0,.25L31.2,28.9l-0.226.228a0.178,0.178,0,0,0,0,.25l0.163,0.165a0.175,0.175,0,0,0,.249,0l0.226-.228,0.226,0.228a0.175,0.175,0,0,0,.248,0l0.163-.165a0.178,0.178,0,0,0,0-.25Z" fill="#333"/><ellipse cx="21.928" cy="34.151" rx="1.25" ry="1.261" fill="gray"/><path d="M22.339,34.151l0.226-.228a0.178,0.178,0,0,0,0-.25L22.4,33.508a0.174,0.174,0,0,0-.248,0l-0.226.228L21.7,33.508a0.174,0.174,0,0,0-.248,0l-0.163.165a0.178,0.178,0,0,0,0,.25l0.226,0.228-0.226.228a0.178,0.178,0,0,0,0,.25l0.163,0.165a0.175,0.175,0,0,0,.249,0l0.226-.228,0.226,0.228a0.175,0.175,0,0,0,.248,0l0.163-.165a0.178,0.178,0,0,0,0-.25Z" fill="#333"/><ellipse cx="25.794" cy="34.151" rx="1.25" ry="1.261" fill="gray"/><path d="M26.206,34.151l0.226-.228a0.178,0.178,0,0,0,0-.25l-0.163-.165a0.174,0.174,0,0,0-.248,0l-0.226.228-0.226-.228a0.174,0.174,0,0,0-.248,0l-0.163.165a0.178,0.178,0,0,0,0,.25l0.226,0.228-0.226.228a0.178,0.178,0,0,0,0,.25l0.163,0.165a0.175,0.175,0,0,0,.249,0l0.226-.228,0.226,0.228a0.175,0.175,0,0,0,.248,0l0.163-.165a0.178,0.178,0,0,0,0-.25Z" fill="#333"/><ellipse cx="29.66" cy="34.151" rx="1.25" ry="1.261" fill="gray"/><path d="M30.072,34.151l0.226-.228a0.178,0.178,0,0,0,0-.25l-0.163-.165a0.174,0.174,0,0,0-.248,0l-0.226.228-0.226-.228a0.174,0.174,0,0,0-.248,0l-0.163.165a0.178,0.178,0,0,0,0,.25l0.226,0.228-0.226.228a0.178,0.178,0,0,0,0,.25l0.163,0.165a0.175,0.175,0,0,0,.249,0l0.226-.228,0.226,0.228a0.175,0.175,0,0,0,.248,0l0.163-.165a0.178,0.178,0,0,0,0-.25Z" fill="#333"/><rect x="35.121" y="25.231" width="0.241" height="11.638" fill="#1f1f1f"/><rect x="37.938" y="25.231" width="0.241" height="11.638" fill="#1f1f1f"/><rect x="14.704" y="11.13" width="44.592" height="25.739" fill="none" stroke="#231815" stroke-width="0.271"/><path d="M57.356,16.741H55.182V14.455h-16.1v5.509h15.6a2.778,2.778,0,0,1-.045-0.484A2.732,2.732,0,0,1,57.356,16.741Z" fill="#333"/><rect x="39.698" y="14.971" width="14.984" height="4.51" fill="#919191"/><rect x="48.218" y="16.098" width="0.708" height="1.952" fill="#1a1a1a"/><rect x="48.319" y="16.835" width="0.508" height="0.769" fill="#fff"/><rect x="49.516" y="16.098" width="0.708" height="1.952" fill="#1a1a1a"/><rect x="49.616" y="16.835" width="0.508" height="0.769" fill="#fff"/><rect x="50.899" y="16.098" width="0.708" height="1.952" fill="#1a1a1a"/><rect x="50.999" y="16.835" width="0.508" height="0.769" fill="#fff"/><rect x="52.196" y="16.098" width="0.708" height="1.952" fill="#1a1a1a"/><rect x="52.297" y="16.835" width="0.508" height="0.769" fill="#fff"/><ellipse cx="18.061" cy="34.151" rx="1.25" ry="1.261" fill="gray"/><path d="M18.473,34.151l0.226-.228a0.178,0.178,0,0,0,0-.25l-0.163-.165a0.174,0.174,0,0,0-.248,0l-0.226.228-0.226-.228a0.174,0.174,0,0,0-.248,0l-0.163.165a0.178,0.178,0,0,0,0,.25l0.226,0.228-0.226.228a0.178,0.178,0,0,0,0,.25l0.163,0.165a0.175,0.175,0,0,0,.249,0l0.226-.228,0.226,0.228a0.175,0.175,0,0,0,.248,0l0.163-.165a0.178,0.178,0,0,0,0-.25Z" fill="#333"/><ellipse cx="33.526" cy="34.151" rx="1.25" ry="1.261" fill="gray"/><path d="M33.114,34.151l-0.226-.228a0.178,0.178,0,0,1,0-.25l0.163-.165a0.174,0.174,0,0,1,.248,0l0.226,0.228,0.226-.228a0.174,0.174,0,0,1,.248,0l0.163,0.165a0.178,0.178,0,0,1,0,.25l-0.226.228,0.226,0.228a0.178,0.178,0,0,1,0,.25L34,34.794a0.175,0.175,0,0,1-.249,0l-0.226-.228-0.226.228a0.175,0.175,0,0,1-.248,0l-0.163-.165a0.178,0.178,0,0,1,0-.25Z" fill="#333"/><ellipse cx="41.783" cy="28.904" rx="1.25" ry="1.261" fill="gray"/><path d="M42.195,28.9l0.226-.228a0.178,0.178,0,0,0,0-.25l-0.163-.165a0.174,0.174,0,0,0-.248,0l-0.226.228-0.226-.228a0.174,0.174,0,0,0-.248,0l-0.163.165a0.178,0.178,0,0,0,0,.25L41.371,28.9l-0.226.228a0.178,0.178,0,0,0,0,.25l0.163,0.165a0.175,0.175,0,0,0,.248,0l0.226-.228,0.226,0.228a0.175,0.175,0,0,0,.248,0l0.163-.165a0.178,0.178,0,0,0,0-.25Z" fill="#333"/><ellipse cx="45.649" cy="28.904" rx="1.25" ry="1.261" fill="gray"/><path d="M46.061,28.9l0.226-.228a0.178,0.178,0,0,0,0-.25l-0.163-.165a0.174,0.174,0,0,0-.248,0l-0.226.228-0.226-.228a0.174,0.174,0,0,0-.248,0l-0.163.165a0.177,0.177,0,0,0,0,.25L45.237,28.9l-0.226.228a0.178,0.178,0,0,0,0,.25l0.163,0.165a0.175,0.175,0,0,0,.248,0l0.226-.228,0.226,0.228a0.175,0.175,0,0,0,.248,0l0.163-.165a0.178,0.178,0,0,0,0-.25Z" fill="#333"/><ellipse cx="49.516" cy="28.904" rx="1.25" ry="1.261" fill="gray"/><path d="M49.927,28.9l0.226-.228a0.178,0.178,0,0,0,0-.25l-0.163-.165a0.174,0.174,0,0,0-.248,0l-0.226.228-0.226-.228a0.174,0.174,0,0,0-.248,0l-0.163.165a0.178,0.178,0,0,0,0,.25L49.1,28.9l-0.226.228a0.178,0.178,0,0,0,0,.25l0.163,0.165a0.175,0.175,0,0,0,.249,0l0.226-.228,0.226,0.228a0.175,0.175,0,0,0,.248,0l0.163-.165a0.179,0.179,0,0,0,0-.25Z" fill="#333"/><ellipse cx="53.382" cy="28.904" rx="1.25" ry="1.261" fill="gray"/><path d="M53.794,28.9l0.226-.228a0.178,0.178,0,0,0,0-.25l-0.163-.165a0.174,0.174,0,0,0-.248,0l-0.226.228-0.226-.228a0.174,0.174,0,0,0-.248,0l-0.163.165a0.178,0.178,0,0,0,0,.25L52.97,28.9l-0.226.228a0.179,0.179,0,0,0,0,.25l0.163,0.165a0.175,0.175,0,0,0,.249,0l0.226-.228,0.226,0.228a0.175,0.175,0,0,0,.248,0l0.163-.165a0.178,0.178,0,0,0,0-.25Z" fill="#333"/><ellipse cx="43.697" cy="34.151" rx="1.25" ry="1.261" fill="gray"/><path d="M44.108,34.151l0.226-.228a0.178,0.178,0,0,0,0-.25l-0.163-.165a0.174,0.174,0,0,0-.248,0l-0.226.228-0.226-.228a0.174,0.174,0,0,0-.248,0l-0.163.165a0.177,0.177,0,0,0,0,.25l0.226,0.228-0.226.228a0.178,0.178,0,0,0,0,.25l0.163,0.165a0.175,0.175,0,0,0,.248,0l0.226-.228,0.226,0.228a0.175,0.175,0,0,0,.248,0l0.163-.165a0.178,0.178,0,0,0,0-.25Z" fill="#333"/><ellipse cx="47.563" cy="34.151" rx="1.25" ry="1.261" fill="gray"/><path d="M47.975,34.151l0.226-.228a0.178,0.178,0,0,0,0-.25l-0.163-.165a0.174,0.174,0,0,0-.248,0l-0.226.228-0.226-.228a0.174,0.174,0,0,0-.248,0l-0.163.165a0.178,0.178,0,0,0,0,.25l0.226,0.228-0.226.228a0.178,0.178,0,0,0,0,.25l0.163,0.165a0.175,0.175,0,0,0,.249,0l0.226-.228,0.226,0.228a0.175,0.175,0,0,0,.248,0l0.163-.165a0.179,0.179,0,0,0,0-.25Z" fill="#333"/><ellipse cx="51.429" cy="34.151" rx="1.25" ry="1.261" fill="gray"/><path d="M51.841,34.151l0.226-.228a0.178,0.178,0,0,0,0-.25L51.9,33.508a0.174,0.174,0,0,0-.248,0l-0.226.228L51.2,33.508a0.174,0.174,0,0,0-.248,0l-0.163.165a0.178,0.178,0,0,0,0,.25l0.226,0.228-0.226.228a0.179,0.179,0,0,0,0,.25l0.163,0.165a0.175,0.175,0,0,0,.249,0l0.226-.228,0.226,0.228a0.175,0.175,0,0,0,.248,0l0.163-.165a0.178,0.178,0,0,0,0-.25Z" fill="#333"/><ellipse cx="39.83" cy="34.151" rx="1.25" ry="1.261" fill="gray"/><path d="M40.242,34.151l0.226-.228a0.178,0.178,0,0,0,0-.25L40.3,33.508a0.174,0.174,0,0,0-.248,0l-0.226.228L39.6,33.508a0.174,0.174,0,0,0-.248,0l-0.163.165a0.178,0.178,0,0,0,0,.25l0.226,0.228-0.226.228a0.178,0.178,0,0,0,0,.25l0.163,0.165a0.175,0.175,0,0,0,.248,0l0.226-.228,0.226,0.228a0.175,0.175,0,0,0,.248,0l0.163-.165a0.178,0.178,0,0,0,0-.25Z" fill="#333"/><ellipse cx="55.295" cy="34.151" rx="1.25" ry="1.261" fill="gray"/><path d="M54.883,34.151l-0.226-.228a0.178,0.178,0,0,1,0-.25l0.163-.165a0.174,0.174,0,0,1,.248,0L55.3,33.736l0.226-.228a0.174,0.174,0,0,1,.248,0l0.163,0.165a0.178,0.178,0,0,1,0,.25l-0.226.228,0.226,0.228a0.178,0.178,0,0,1,0,.25l-0.163.165a0.175,0.175,0,0,1-.248,0L55.3,34.566l-0.226.228a0.175,0.175,0,0,1-.248,0l-0.163-.165a0.178,0.178,0,0,1,0-.25Z" fill="#333"/><rect x="56.89" y="25.231" width="0.453" height="11.638" fill="#1f1f1f"/><rect x="47.312" y="14.97" width="0.203" height="3.488" fill="#333"/><rect x="53.574" y="14.97" width="0.203" height="3.488" fill="#333"/><rect x="47.312" y="18.254" width="6.465" height="0.204" fill="#333"/><rect x="44.079" y="14.455" width="0.203" height="3.799" fill="#333"/><rect x="46.591" y="14.455" width="0.203" height="3.799" fill="#333"/><rect x="44.079" y="18.05" width="2.714" height="0.204" fill="#333"/><ellipse cx="45.437" cy="16.355" rx="0.58" ry="0.585" fill="#333"/></svg>