<svg xmlns="http://www.w3.org/2000/svg" width="74" height="48.003" viewBox="0 0 74 48.003"><title>cc-link_ie_ehg_t8</title><rect y="0.001" width="74" height="48" fill="#fff"/><rect x="27.34" y="0.133" width="19.32" height="47.737" fill="#c8c9ca"/><rect x="27.34" y="0.133" width="19.32" height="47.737" fill="none" stroke="#000" stroke-width="0.265"/><ellipse cx="41.095" cy="4.195" rx="0.888" ry="0.91" fill="#7dad2a" stroke="#231815" stroke-width="0.088"/><ellipse cx="35.941" cy="9.076" rx="0.706" ry="0.724" fill="#595757"/><path d="M39.1,11.553H33.185a0.709,0.709,0,0,1-.7-0.717V7.486a0.709,0.709,0,0,1,.7-0.717H39.1V6.984H33.185a0.5,0.5,0,0,0-.49.5v3.35a0.5,0.5,0,0,0,.49.5H39.1v0.215Z" transform="translate(0 0.001)" fill="#656464"/><rect x="39.452" y="5.732" width="4.284" height="6.727" fill="#656464"/><rect x="39.452" y="6.334" width="5.475" height="5.485" fill="#7bc182"/><rect x="39.712" y="6.334" width="0.062" height="5.485" fill="#238041"/><polygon points="42.414 8.326 41.983 8.326 41.983 9.827 42.414 9.827 42.846 9.51 42.846 8.642 42.414 8.326" fill="#6dad75"/><polygon points="44.255 8.326 44.255 9.827 44.168 9.51 44.168 8.642 44.255 8.326" fill="#6dad75"/><polygon points="44.168 8.642 42.846 8.642 42.414 8.326 44.255 8.326 44.168 8.642" fill="#73b67b"/><polygon points="44.168 9.51 42.846 9.51 42.414 9.826 44.255 9.826 44.168 9.51" fill="#73b67b"/><rect x="42.846" y="8.642" width="1.322" height="0.868" fill="#656464"/><polygon points="42.414 6.579 41.983 6.579 41.983 8.08 42.414 8.08 42.846 7.764 42.846 6.895 42.414 6.579" fill="#6dad75"/><polygon points="44.255 6.579 44.255 8.08 44.168 7.764 44.168 6.895 44.255 6.579" fill="#6dad75"/><polygon points="44.168 6.895 42.846 6.895 42.414 6.579 44.255 6.579 44.168 6.895" fill="#73b67b"/><polygon points="44.168 7.764 42.846 7.764 42.414 8.08 44.255 8.08 44.168 7.764" fill="#73b67b"/><rect x="42.846" y="6.895" width="1.322" height="0.868" fill="#656464"/><polygon points="42.414 11.573 41.983 11.573 41.983 10.072 42.414 10.072 42.846 10.388 42.846 11.256 42.414 11.573" fill="#6dad75"/><polygon points="44.255 11.573 44.255 10.072 44.168 10.388 44.168 11.256 44.255 11.573" fill="#6dad75"/><polygon points="44.168 11.256 42.846 11.256 42.414 11.573 44.255 11.573 44.168 11.256" fill="#73b67b"/><polygon points="44.168 10.388 42.846 10.388 42.414 10.072 44.255 10.072 44.168 10.388" fill="#73b67b"/><rect x="42.846" y="10.388" width="1.322" height="0.869" fill="#656464"/><rect x="41.617" y="6.579" width="0.366" height="4.994" fill="#66a36e"/><polygon points="44.495 6.334 44.255 6.334 41.983 6.334 41.983 6.579 44.255 6.579 44.255 8.08 41.983 8.08 41.983 8.326 44.255 8.326 44.255 9.826 41.983 9.826 41.983 10.072 44.255 10.072 44.255 11.573 41.983 11.573 41.983 11.818 44.255 11.818 44.495 11.818 44.605 11.818 44.605 6.334 44.495 6.334" fill="#97cd96"/><polygon points="42.929 6.139 42.929 6.038 40.285 6.038 40.285 6.139 39.879 6.139 39.879 6.334 43.335 6.334 43.335 6.139 42.929 6.139" fill="#73b67b"/><polygon points="42.929 12.013 42.929 12.114 40.285 12.114 40.285 12.013 39.879 12.013 39.879 11.818 43.335 11.818 43.335 12.013 42.929 12.013" fill="#73b67b"/><rect x="30.51" y="13.443" width="12.979" height="30.765" fill="#656464"/><polygon points="41.537 16.405 42.232 16.405 42.232 16.914 42.826 16.914 42.826 19.454 42.232 19.454 42.232 19.963 41.537 19.963 41.537 21.382 40.198 21.382 40.198 21.052 39.356 21.052 39.356 21.382 37.675 21.382 37.675 14.986 39.356 14.986 39.356 15.316 40.198 15.316 40.198 14.986 41.537 14.986 41.537 16.405" fill="#656464"/><polygon points="41.537 23.5 42.232 23.5 42.232 24.008 42.826 24.008 42.826 26.549 42.232 26.549 42.232 27.057 41.537 27.057 41.537 28.476 40.198 28.476 40.198 28.147 39.356 28.147 39.356 28.476 37.675 28.476 37.675 22.081 39.356 22.081 39.356 22.41 40.198 22.41 40.198 22.081 41.537 22.081 41.537 23.5" fill="#656464"/><polygon points="41.537 30.594 42.232 30.594 42.232 31.103 42.826 31.103 42.826 33.643 42.232 33.643 42.232 34.148 41.537 34.148 41.537 35.571 40.198 35.571 40.198 35.241 39.356 35.241 39.356 35.571 37.675 35.571 37.675 29.175 39.356 29.175 39.356 29.505 40.198 29.505 40.198 29.175 41.537 29.175 41.537 30.594" fill="#656464"/><polygon points="41.537 41.243 41.537 42.666 40.198 42.666 40.198 42.336 39.356 42.336 39.356 42.666 37.675 42.666 37.675 36.266 39.356 36.266 39.356 36.599 40.198 36.599 40.198 36.266 41.537 36.266 41.537 37.689 42.232 37.689 42.232 38.198 42.826 38.198 42.826 40.738 42.232 40.738 42.232 41.243 41.537 41.243" fill="#656464"/><rect x="41.687" y="41.447" width="0.643" height="1.422" fill="#656464"/><rect x="41.687" y="14.782" width="0.643" height="1.422" fill="#656464"/><rect x="41.687" y="20.164" width="0.643" height="1.422" fill="#656464"/><rect x="41.687" y="21.876" width="0.643" height="1.423" fill="#656464"/><rect x="41.687" y="27.258" width="0.643" height="1.423" fill="#656464"/><rect x="41.687" y="28.971" width="0.643" height="1.422" fill="#656464"/><rect x="41.687" y="34.353" width="0.643" height="1.422" fill="#656464"/><rect x="41.687" y="36.065" width="0.643" height="1.423" fill="#656464"/><polygon points="34.641 15.316 34.641 14.986 36.326 14.986 36.326 21.382 34.641 21.382 34.641 21.052 33.799 21.052 33.799 21.382 32.463 21.382 32.463 19.963 31.768 19.963 31.768 19.454 31.174 19.454 31.174 16.914 31.768 16.914 31.768 16.405 32.463 16.405 32.463 14.986 33.799 14.986 33.799 15.316 34.641 15.316" fill="#656464"/><polygon points="34.641 22.41 34.641 22.081 36.326 22.081 36.326 28.476 34.641 28.476 34.641 28.147 33.799 28.147 33.799 28.476 32.463 28.476 32.463 27.057 31.768 27.057 31.768 26.549 31.174 26.549 31.174 24.008 31.768 24.008 31.768 23.5 32.463 23.5 32.463 22.081 33.799 22.081 33.799 22.41 34.641 22.41" fill="#656464"/><polygon points="34.641 29.505 34.641 29.175 36.326 29.175 36.326 35.571 34.641 35.571 34.641 35.241 33.799 35.241 33.799 35.571 32.463 35.571 32.463 34.148 31.768 34.148 31.768 33.643 31.174 33.643 31.174 31.103 31.768 31.103 31.768 30.594 32.463 30.594 32.463 29.175 33.799 29.175 33.799 29.505 34.641 29.505" fill="#656464"/><polygon points="34.641 36.599 34.641 36.266 36.326 36.266 36.326 42.666 34.641 42.666 34.641 42.336 33.799 42.336 33.799 42.666 32.463 42.666 32.463 41.243 31.768 41.243 31.768 40.738 31.174 40.738 31.174 38.198 31.768 38.198 31.768 37.689 32.463 37.689 32.463 36.266 33.799 36.266 33.799 36.599 34.641 36.599" fill="#656464"/><rect x="31.67" y="14.782" width="0.643" height="1.422" fill="#656464"/><rect x="31.67" y="21.876" width="0.643" height="1.423" fill="#656464"/><rect x="31.67" y="28.971" width="0.643" height="1.422" fill="#656464"/><rect x="31.67" y="36.065" width="0.643" height="1.423" fill="#656464"/><rect x="31.67" y="20.164" width="0.643" height="1.422" fill="#656464"/><rect x="31.67" y="27.258" width="0.643" height="1.423" fill="#656464"/><rect x="31.67" y="34.353" width="0.643" height="1.422" fill="#656464"/><rect x="31.67" y="41.447" width="0.643" height="1.422" fill="#656464"/><path d="M32.313,42.868V41.446H31.67v1.422h0.643Zm0-5.382V36.064H31.67v1.423h0.643Zm0-7.095V28.97H31.67v1.422h0.643Zm0,5.382V34.351H31.67v1.422h0.643ZM42.33,42.868V41.446H41.687v1.422H42.33Zm0-5.382V36.064H41.687v1.423H42.33Zm0-1.713V34.351H41.687v1.422H42.33Zm0-5.382V28.97H41.687v1.422H42.33Zm0-1.713V27.257H41.687v1.423H42.33Zm0-5.382V21.875H41.687V23.3H42.33Zm0-1.713V20.162H41.687v1.422H42.33Zm0-5.382V14.78H41.687V16.2H42.33ZM32.313,23.3V21.875H31.67V23.3h0.643Zm0,5.382V27.257H31.67v1.423h0.643ZM30.677,13.731H43.319V43.918H30.677V13.731ZM32.313,16.2V14.78H31.67V16.2h0.643Zm0,5.382V20.162H31.67v1.422h0.643Zm4.012,14.68H34.641V36.6H33.8V36.265H32.463v1.422h-0.7V38.2H31.174v2.54h0.594v0.505h0.7v1.422H33.8v-0.33h0.842v0.33h1.685v-6.4Zm0-.7v-6.4H34.641V29.5H33.8v-0.33H32.463v1.419h-0.7V31.1H31.174v2.54h0.594v0.505h0.7V35.57H33.8V35.24h0.842v0.33h1.685Zm0-7.095v-6.4H34.641v0.33H33.8v-0.33H32.463V23.5h-0.7v0.509H31.174v2.54h0.594v0.509h0.7v1.419H33.8v-0.33h0.842v0.33h1.685Zm0-7.094v-6.4H34.641v0.33H33.8v-0.33H32.463V16.4h-0.7v0.509H31.174v2.541h0.594v0.509h0.7v1.419H33.8v-0.33h0.842v0.33h1.685Zm5.211-1.419h0.7V19.453h0.594V16.912H42.232V16.4h-0.7V14.985H40.2v0.33H39.356v-0.33H37.675v6.4h1.681v-0.33H40.2v0.33h1.339V19.962Zm0,7.094h0.7V26.547h0.594v-2.54H42.232V23.5h-0.7V22.079H40.2v0.33H39.356v-0.33H37.675v6.4h1.681v-0.33H40.2v0.33h1.339V27.056Zm0,7.091h0.7V33.642h0.594V31.1H42.232V30.593h-0.7V29.174H40.2V29.5H39.356v-0.33H37.675v6.4h1.681V35.24H40.2v0.33h1.339V34.147Zm0,8.517V41.242h0.7V40.737h0.594V38.2H42.232V37.687h-0.7V36.265H40.2V36.6H39.356V36.265H37.675v6.4h1.681v-0.33H40.2v0.33h1.339Z" transform="translate(0 0.001)" fill="#f7f7f7"/><rect x="41.753" y="14.858" width="0.512" height="1.271" fill="#dbdcdc"/><rect x="31.736" y="14.858" width="0.512" height="1.271" fill="#dbdcdc"/><rect x="41.753" y="20.24" width="0.512" height="1.271" fill="#7dad2a"/><rect x="31.736" y="20.24" width="0.512" height="1.271" fill="#7dad2a"/><rect x="41.753" y="21.952" width="0.512" height="1.271" fill="#dbdcdc"/><rect x="31.736" y="21.952" width="0.512" height="1.271" fill="#dbdcdc"/><rect x="41.753" y="27.334" width="0.512" height="1.271" fill="#7dad2a"/><rect x="31.736" y="27.334" width="0.512" height="1.271" fill="#7dad2a"/><rect x="41.753" y="29.047" width="0.512" height="1.271" fill="#dbdcdc"/><rect x="31.736" y="29.047" width="0.512" height="1.271" fill="#dbdcdc"/><rect x="41.753" y="34.429" width="0.512" height="1.271" fill="#7dad2a"/><rect x="31.736" y="34.429" width="0.512" height="1.271" fill="#7dad2a"/><rect x="41.753" y="36.142" width="0.512" height="1.271" fill="#dbdcdc"/><rect x="31.736" y="36.142" width="0.512" height="1.271" fill="#dbdcdc"/><rect x="41.753" y="41.523" width="0.512" height="1.271" fill="#7dad2a"/><rect x="31.736" y="41.523" width="0.512" height="1.271" fill="#7dad2a"/></svg>