<?xml version="1.0" encoding="utf-8"?>
<!-- Generator: Adobe Illustrator 19.2.1, SVG Export Plug-In . SVG Version: 6.00 Build 0)  -->
<svg version="1.1" id="レイヤー_1" xmlns="http://www.w3.org/2000/svg" xmlns:xlink="http://www.w3.org/1999/xlink" x="0px"
	 y="0px" viewBox="0 0 138 46" style="enable-background:new 0 0 138 46;" xml:space="preserve">
<style type="text/css">
	.st0{fill:#006337;}
	.st1{fill:#0068B6;}
	.st2{fill:#E50012;}
</style>
<g>
	<g>
		<path class="st0" d="M83.6,22c-0.7-0.3-1.1-0.4-1.9-0.4c-0.8,0-1.8,0.3-1.8,1.3c0,1.9,4.3,1.5,4.3,4.8c0,2.1-1.6,3-3.7,3
			c-0.7,0-1.4-0.2-2.1-0.4l0.1-1.3c0.5,0.2,1.4,0.5,2.1,0.5c0.8,0,2-0.4,2-1.6c0-2.2-4.3-1.6-4.3-4.7c0-1.8,1.4-2.7,3.2-2.7
			c0.7,0,1.4,0.1,2.1,0.4L83.6,22z"/>
		<path class="st0" d="M85.9,23.7c0.7-0.4,1.5-0.7,2.4-0.7c2.1,0,2.9,1,2.9,3v3c0,0.8,0,1.2,0,1.4H90v-0.9h0c-0.3,0.4-1,1.1-2.3,1.1
			c-1.6,0-2.7-0.7-2.7-2.3c0-1.8,2-2.4,3.4-2.4c0.5,0,0.9,0,1.4,0c0-1.2-0.5-1.9-1.8-1.9c-0.8,0-1.6,0.3-2.1,0.7L85.9,23.7z
			 M89.9,27c-0.3,0-0.6,0-0.9,0c-0.7,0-2.5,0.1-2.5,1.4c0,0.8,0.7,1.2,1.4,1.2c1.3,0,2-0.8,2-1.9V27z"/>
		<path class="st0" d="M93.6,24.3h-1.7v-1.1h1.7v-0.7c0-1.8,0.5-2.9,2.5-2.9c0.4,0,0.6,0,0.9,0.1l-0.1,1.1c-0.2-0.1-0.4-0.1-0.7-0.1
			c-1.2,0-1.3,0.7-1.3,1.7v0.8l1.9,0v1.1h-1.9v6.2h-1.4V24.3z"/>
		<path class="st0" d="M103.3,30.2c-0.5,0.2-1.1,0.5-2.3,0.5c-2.6,0-3.8-1.6-3.8-4c0-2.2,1.4-3.7,3.4-3.7c2.5,0,3.2,1.8,3.2,4.1
			h-5.2c0,1.4,1.1,2.5,2.4,2.5c0.9,0,1.9-0.5,2.2-0.7V30.2z M102.4,26.2c0-1.1-0.7-2-1.8-2c-1.3,0-1.9,1.1-2,2H102.4z"/>
		<path class="st0" d="M109,24.3h-1.9v4c0,0.8,0.5,1.3,1.1,1.3c0.4,0,0.7-0.1,0.9-0.3v1.2c-0.3,0.1-0.7,0.2-1.2,0.2
			c-1.4,0-2.3-0.7-2.3-2.1v-4.3h-1.6v-1.1h1.6v-1.7l1.3-0.4v2.1h1.9V24.3z"/>
		<path class="st0" d="M109.9,32.5c0.2,0.1,0.4,0.1,0.6,0.1c1.2,0,1.6-1.7,1.6-1.8c0-0.1-0.2-0.5-0.3-0.8l-2.5-6.8h1.5l2,6.1h0
			l2-6.1h1.4l-2.7,7.5c-0.5,1.4-1,3-2.8,3c-0.4,0-0.7,0-0.9-0.1L109.9,32.5z"/>
	</g>
	<g>
		<path class="st1" d="M54,30.3c0.5,0,0.5-0.2,0.7-0.3c0.2-0.1,0.3-0.5,0.4-1.1l0.6-3.8c0-0.3,0.1-0.7,0.1-1.1
			c-0.1-0.2-0.4-0.4-0.7-0.4l0-0.2c0,0,2.5,0,2.6,0c0,0-0.8,4.9-0.8,4.9c-0.1,0.6-0.2,1.6,0,1.8c0.1,0.2,0,0.2,0.5,0.2l0,0.2h-3.3
			L54,30.3L54,30.3z"/>
		<polygon class="st1" points="43.8,23.4 46.9,23.4 46.6,25.3 43.4,25.3 43.8,23.4 		"/>
		<path class="st1" d="M46.6,30.4c0.5-0.1,0.6-0.3,0.7-0.5c0.1-0.2,0.2-0.4,0.2-0.9l1.1-6.8c0.1-0.5,0.1-0.9,0-1.2
			c-0.1-0.2-0.2-0.3-0.6-0.4v-0.2h3.4l-0.1,0.2c-0.3,0-0.3,0-0.5,0.2c-0.2,0.2-0.3,0.5-0.4,1.1l-1,6.5c0,0.2,0.1,0.4,0.2,0.5
			c0.2,0.2,0.5,0.1,0.7,0.1c0.3,0,0.7,0,1,0c0.4,0,0.7-0.1,1-0.2c0.3-0.2,0.5-0.3,0.7-0.7h0.2l-0.6,2.2h-6.1V30.4L46.6,30.4z"/>
		<path class="st2" d="M55.8,21c0-0.7,0.5-1.3,1.2-1.3c0.6,0,1.2,0.6,1.2,1.3c0,0.7-0.5,1.3-1.2,1.3C56.3,22.3,55.8,21.7,55.8,21
			L55.8,21z"/>
		<path class="st1" d="M58,30.3c0.4,0,0.5-0.2,0.7-0.3c0.3-0.6,1-5.4,1-5.6c0-0.2,0-0.5-0.1-0.6c-0.1-0.1-0.2-0.1-0.5-0.1l0.1-0.2
			c0,0,2.4,0,2.4,0c0,0-0.1,1-0.1,1l0.6-0.5c0.2-0.2,0.7-0.4,1-0.5c0.3-0.1,1-0.2,1.6-0.1c0.4,0.1,0.9,0.2,1.2,0.4
			c0.5,0.4,0.5,1.2,0.4,2.2l-0.4,3.4c0,0.3-0.1,0.7,0,0.8c0.1,0.2,0.2,0.3,0.6,0.3l0,0.2h-3.3l0-0.2c0.4,0,0.5-0.1,0.7-0.3
			c0.2-0.1,0.3-0.5,0.3-1l0.5-3.3c0-0.3,0-0.5-0.2-0.8c-0.1-0.1-0.4-0.3-0.6-0.3c-0.3-0.1-0.9-0.1-1.3,0.1c-0.6,0.3-1,1.2-1.2,1.6
			c-0.1,0.3-0.5,3.5-0.5,3.5c0,0.2,0,0.4,0.1,0.4c0.2,0.1,0.2,0.1,0.5,0.1l-0.1,0.2h-3.2L58,30.3L58,30.3z"/>
		<path class="st1" d="M67.2,30.3c0.5,0,0.6-0.2,0.7-0.3c0.1-0.1,0.2-0.3,0.3-0.7l1.2-7.3c0-0.4,0.1-0.8,0-1
			c-0.1-0.1-0.1-0.2-0.2-0.2c-0.1,0-0.2-0.1-0.3-0.1l0-0.2c0,0,2.5,0,2.5,0l-0.9,5.5c0,0,2.5-2,2.5-2c0.1-0.1,0.2-0.2,0.1-0.3
			c0-0.1-0.2-0.1-0.3-0.1l0-0.2h3.5l-0.1,0.2c-0.1,0-0.3,0-0.5,0.1c-0.2,0-3.4,2.5-3.4,2.5c-0.1,0.1,0,0.1,0,0.1
			c0.5,0.8,2.1,3.1,2.8,3.8c0.1,0.1,0.3,0.1,0.3,0.1l0,0.2h-2.1c-0.3,0-0.5-0.2-0.7-0.4c-0.1-0.1-2.4-3.5-2.4-3.5l-0.4,3
			c0,0.3,0,0.5,0.1,0.6c0.1,0.1,0.2,0.2,0.4,0.1l-0.1,0.2h-3.2L67.2,30.3L67.2,30.3z"/>
		<path class="st1" d="M21.9,22.3c0-4.7,3.1-8.4,6.9-8.4c1.8,0,3.3,0.8,4.6,2.1l-1,1.4c-0.9-1.2-2.2-1.9-3.6-1.9
			c-2.9,0-5.2,3.1-5.2,6.9c0,3.8,2.3,6.9,5.2,6.9c1.3,0,2.6-0.7,3.5-1.8l1,1.4c-1.2,1.2-2.8,2-4.5,2C25,30.7,21.9,27,21.9,22.3
			L21.9,22.3z"/>
		<path class="st1" d="M32.3,22.3c0-4.7,3.1-8.4,6.9-8.4c1.7,0,3.3,0.8,4.6,2.1l-1,1.4c-0.9-1.2-2.2-1.9-3.6-1.9
			c-2.9,0-5.2,3.1-5.2,6.9c0,3.8,2.3,6.9,5.2,6.9c1.3,0,2.5-0.7,3.5-1.8l1,1.4c-1.2,1.2-2.7,2-4.4,2C35.4,30.7,32.3,27,32.3,22.3
			L32.3,22.3z"/>
	</g>
</g>
<g>
</g>
<g>
</g>
<g>
</g>
<g>
</g>
<g>
</g>
<g>
</g>
<g>
</g>
<g>
</g>
<g>
</g>
<g>
</g>
<g>
</g>
<g>
</g>
<g>
</g>
<g>
</g>
<g>
</g>
</svg>
