<?xml version="1.0" encoding="UTF-8" standalone="no"?>
<svg xmlns:dc="http://purl.org/dc/elements/1.1/" xmlns:cc="http://creativecommons.org/ns#" xmlns:svg="http://www.w3.org/2000/svg" xmlns="http://www.w3.org/2000/svg"
version="1.1" xml:space="preserve" width="138" height="46" viewBox="0 0 138 45.999999"><g><path
d="m 101.0138,11.464164 13.89029,0-3.05214,14.367699-13.887511,0 3.049361,-14.367699z"
style="fill:#17499b;fill-opacity:1;fill-rule:nonzero;stroke:none"
/><path
d="m 30.727389,17.08799-0.416423,2.026366-4.176768,0 0.43801,-2.026366 4.155181,0 z m 10.28872,8.678555 2.161502,0 2.481827,-11.73203-2.15802,0-2.485309,11.73203 z m-7.888367,-2.011742 3.030559,-14.020919-2.327235,0-3.466481,16.043803 8.985831,0 0.41503,-2.022884-6.637704,0 z m 13.225271,2.011742 2.157323,0 1.244396,-5.910581 c 0.298042,-1.449792 1.607895,-4.345893 4.279132,-4.345893 1.331441,0 2.137129,0.91848 2.137129,2.13987 0,0.251381-0.04666,0.712361-0.113506,1.101619 l-1.450518,7.014985 2.162894,0 1.286873,-6.184245 c 0.138576,-0.669188 0.277152,-1.452577 0.277152,-2.139174 0,-2.48665-1.633661,-3.681579-3.912151,-3.681579-2.043121,0-3.311889,1.037555-3.999196,2.139174 l-0.04875,0 0.369767,-1.866206-2.026408,0 c-0.08704,0.69356-0.227013,1.314004-0.318237,1.799357 l-2.045905,9.932673 z m 13.126387,0 2.162894,0 1.267376,-6.023389 4.253367,6.023389 2.756889,0-4.781904,-6.531025 6.647453,-5.201005-3.172616,0-5.451107,4.604237-0.04666,0 2.183089,-10.1192947-2.158717,0 L 59.4794,25.766545 Z m-49.06762,-0.0028 0.446367,-2.139174 c-0.78619,0.258344-1.6322679,0.391346-2.4470092,0.391346-3.1266567,0-5.4754792,-1.6768-5.4754792,-5.196827 0,-3.76723 2.3731951,-7.354802 7.2463224,-7.354802 1.064735,0 2.10649,0.265308 3.063288,0.670581 l 0.425476,-2.063272 C 12.550998,9.6579823 11.32053,9.4407225 10.134629,9.4407225 c-6.9204264,0-9.63483792,5.3354005-9.63483792,9.2683605 0,5.077055 3.26801782,7.331823 7.54157952,7.331823 0.7945469,0 1.5981464,-0.08844 2.3704094,-0.277146 m 9.840264,0.277146 c-4.277739,0-7.541579,-2.254768-7.541579,-7.331823 0,-3.93296 2.714411,-9.2683605 9.636231,-9.2683605 1.185901,0 2.408709,0.2172598 3.529152,0.6308895 l-0.425476,2.061879 c-0.957495,-0.40388-1.993678,-0.669188-3.059109,-0.669188-4.877306,0-7.243538,3.587572-7.243538,7.354802 0,3.520027 2.346037,5.196827 5.471301,5.196827 0.814742,0 1.660819,-0.133002 2.442831,-0.38856 l-0.447063,2.139173 c-0.770174,0.185925-1.575166,0.274361-2.36275,0.274361"
style="fill:#17499b;fill-opacity:1;fill-rule:nonzero;stroke:none"
/><path
d="m 78.674565,8.4992635 3.434448,0-3.585558,17.2644965-3.436537,0 3.587647,-17.2644965 z m 6.057636,0 12.06026,0-2.314004,3.2651645-6.538821,0-0.788976,3.561112 6.792296,0-0.715858,3.263771-6.767227,0-0.843292,3.909285 7.48587,0-0.669202,3.265164-11.409859,0 3.708813,-17.2644965z"
style="fill:#e6223a;fill-opacity:1;fill-rule:nonzero;stroke:none"
/><path
d="m 46.840186,8.5564335-3.209524,4.5534035 2.162198,0 3.209524,-4.5534035-2.162198,0z"
style="fill:#e6223a;fill-opacity:1;fill-rule:nonzero;stroke:none"
/><path
d="m 104.96487,14.894223 5.02424,0-0.34818,1.436561-3.18376,0-0.53898,2.245018 3.03961,0-0.32242,1.435169-3.05284,0-0.93312,3.992845-1.82655,0 2.142,-9.109593z"
style="fill:#ffffff;fill-opacity:1;fill-rule:nonzero;stroke:none"
/><path
d="m 116.22355,14.544727 1.74926,0-0.40668,1.671229-1.74925,0 0.40667,-1.671229 z m-0.71098,2.89819 1.74856,0-1.60094,6.721128-1.74716,0 1.59954,-6.721128z"
style="fill:#17499b;fill-opacity:1;fill-rule:nonzero;stroke:none"
/><path
d="m 122.91105,20.144042 c 0.0285,-0.156678 0.046,-0.300821 0.0501,-0.456803 0.0181,-0.717932-0.35097,-1.122509-1.08215,-1.122509-1.08144,0-1.5682,0.653172-1.93031,1.579312 l 2.96232,0 z m-3.22763,1.201196 c-0.0299,1.238799 0.62464,1.696994 1.82377,1.696994 0.72003,0 1.415,-0.183835 2.07445,-0.482567 l-0.25556,1.382942 c-0.68313,0.208208-1.43241,0.378116-2.14897,0.378116-1.9317,0-3.213,-0.940067-3.16356,-2.936489 0.0515,-2.087645 1.71792,-4.097994 3.92399,-4.097994 1.65734,0 2.73182,0.847452 2.69004,2.556981-0.0139,0.510421-0.0898,1.005523-0.20682,1.502017 l-4.73734,0z"
style="fill:#17499b;fill-opacity:1;fill-rule:nonzero;stroke:none"
/><path
d="m 127.6346,14.376072 1.74786,0-2.31609,9.78853-1.74647,0 2.3147,-9.78853z"
style="fill:#17499b;fill-opacity:1;fill-rule:nonzero;stroke:none"
/><path
d="m 131.10421,21.370794 c-0.016,0.678937 0.16991,1.592542 1.03061,1.592542 1.27852,0 2.07307,-1.48809 2.10301,-2.728282 0.0188,-0.783389-0.33982,-1.591149-1.22699,-1.591149-1.25275,0-1.88226,1.722062-1.90663,2.726889 m 6.39676,-6.994792-2.02014,8.30044 c-0.11699,0.573789-0.23537,1.147578-0.28272,1.488091 l-1.63227,0 0.19429,-0.992989-0.0258,0 c-0.53968,0.731859-1.20192,1.14897-2.22069,1.14897-1.59118,0-2.2771,-1.331413-2.24019,-2.793042 0.0487,-2.008957 1.20122,-4.240745 3.48459,-4.240745 0.8607,0 1.51806,0.325193 2.05078,0.951904 l 0.94426,-3.862629 1.74786,0z"
style="fill:#17499b;fill-opacity:1;fill-rule:nonzero;stroke:none"
/><path
d="m 102.00534,32.413025 0.98047,0 c 1.09468,0 1.75205,-0.433823 1.76946,-1.10719 0.0209,-0.784781-0.62116,-0.91082-1.60372,-0.91082 l-0.67269,0-0.47352,2.01801 z m-0.96307,4.066658 0.70193,0 c 1.31821,0 2.21164,-0.364885 2.23602,-1.318182 0.023,-0.855112-0.59191,-0.981847-1.76945,-0.981847 l-0.63091,0-0.53759,2.300029 z m-0.71794,-7.936251 4.34807,0 c 1.01042,0 2.75271,0.393436 2.70536,2.244322-0.0355,1.318183-1.08423,2.298637-2.63155,2.48108 l-0.001,0.02855 c 1.11766,0.168516 1.87251,0.813332 1.84396,1.892667-0.0543,2.074414-1.86206,3.056261-4.10574,3.084811 l-4.462969,0.05571 2.304259,-9.787138z"
style="fill:#17499b;fill-opacity:1;fill-rule:nonzero;stroke:none"
/><path
d="m 110.52893,36.815531 c 1.08005,0 1.74508,-0.742304 1.95329,-1.724848-0.2096,-0.04039-0.51809,-0.04039-0.67199,-0.04039-1.20679,-0.04248-2.10022,0.391346-2.11763,1.036162-0.008,0.337728 0.30292,0.729074 0.83633,0.729074 m 1.66987,0.490924-0.0272,-0.02716-0.001,0.02716 c-0.5543,0.841881-1.50274,1.19284-2.48461,1.19284-1.57099,0-2.42194,-0.701917-2.38573,-2.117587 0.0481,-1.795179 1.86624,-2.678146 4.09529,-2.678146 0.50626,0 1.00903,0.04248 1.3586,0.06964 0.0313,-0.09819 0.0341,-0.195673 0.0369,-0.293858 0.0139,-0.519474-0.49511,-0.940066-1.32169,-0.940066-0.91293,0-1.53339,0.140661-2.38573,0.575877 l 0.30013,-1.837656 c 0.74998,-0.25138 1.55358,-0.420592 2.69073,-0.420592 1.73812,0 3.15103,0.687293 3.10507,2.482472-0.0313,1.14897-0.71934,2.78956-1.05707,4.991405 l-2.06192,0 0.13857,-1.024324z"
style="fill:#17499b;fill-opacity:1;fill-rule:nonzero;stroke:none"
/><path
d="m 115.74209,36.395286 c 0.63787,0.279931 1.33562,0.420593 2.03755,0.420593 0.40667,0 1.41709,-0.04248 1.43311,-0.644816 0.0272,-1.037555-3.00271,-0.504851-2.93864,-2.916296 0.0446,-1.710921 2.05356,-2.397518 3.75059,-2.397518 0.6316,0 1.51111,0.139966 2.41568,0.435216 l-0.57659,1.653821 c-0.63786,-0.2667-1.25136,-0.406666-2.009,-0.406666-0.56126,0-1.18172,0.126735-1.19425,0.630889-0.0216,0.813332 3.13501,0.757625 3.08766,2.593888-0.0474,1.808409-1.59954,2.705999-3.49434,2.734549-1.10791,0.01393-2.28197,-0.154589-3.0612,-0.378812 l 0.54943,-1.724848z"
style="fill:#17499b;fill-opacity:1;fill-rule:nonzero;stroke:none"
/><path
d="m 124.70097,27.983362 2.55286,0-0.44219,1.849494-2.55286,0 0.44219,-1.849494 z m-0.72491,3.042334 2.55286,0-1.70678,7.304665-2.55286,0 1.70678,-7.304665z"
style="fill:#17499b;fill-opacity:1;fill-rule:nonzero;stroke:none"
/><path
d="m 132.28747,38.217762 c-0.50974,0.168516-1.1859,0.281324-2.16777,0.281324-2.13156,0-3.41147,-1.501322-3.36342,-3.337585 0.0634,-2.397518 2.02084,-4.304112 4.82508,-4.304112 0.61767,0 1.55358,0.181746 2.28754,0.490924 l-0.5926,1.752701 c-0.51252,-0.238846-1.05568,-0.392738-1.61695,-0.392738-1.30428,0-2.25272,0.841881-2.29172,2.355737-0.0223,0.869039 0.6323,1.584186 1.69842,1.584186 0.63091,0 1.08284,-0.09819 1.63506,-0.322408 l-0.41364,1.891971z"
style="fill:#17499b;fill-opacity:1;fill-rule:nonzero;stroke:none"
/></g></svg>