<?xml version="1.0" encoding="utf-8"?>
<!-- Generator: Adobe Illustrator 19.2.1, SVG Export Plug-In . SVG Version: 6.00 Build 0)  -->
<svg version="1.1" id="レイヤー_1" xmlns="http://www.w3.org/2000/svg" xmlns:xlink="http://www.w3.org/1999/xlink" x="0px"
	 y="0px" viewBox="0 0 138 46" style="enable-background:new 0 0 138 46;" xml:space="preserve">
<style type="text/css">
	.st0{fill:#004DA0;}
	.st1{fill:#E5002D;}
	.st2{fill:#FFFFFF;}
</style>
<g>
	<polygon class="st0" points="92.6,18.8 105.1,18.8 102.3,31.7 89.9,31.7 	"/>
	<g>
		<path class="st0" d="M18.6,31.8c-3.9,0-6.9-2.1-6.9-6.7c0-3.6,2.5-8.5,8.8-8.5c1.1,0,2.2,0.2,3.2,0.6l-0.4,1.9
			c-0.9-0.4-1.8-0.6-2.8-0.6c-4.5,0-6.6,3.3-6.6,6.7c0,3.2,2.1,4.8,5,4.8c0.7,0,1.5-0.1,2.2-0.4l-0.4,2
			C20.1,31.7,19.3,31.8,18.6,31.8 M9.6,31.6l0.4-2C9.3,29.8,8.5,30,7.8,30c-2.9,0-5-1.5-5-4.8c0-3.5,2.2-6.7,6.6-6.7
			c1,0,1.9,0.2,2.8,0.6l0.4-1.9c-1-0.4-2.2-0.6-3.2-0.6c-6.3,0-8.8,4.9-8.8,8.5c0,4.7,3,6.7,6.9,6.7C8.2,31.8,8.9,31.7,9.6,31.6
			 M54.6,31.6h2l1.2-5.5l3.9,5.5h2.5l-4.4-6l6.1-4.8H63L58,25h0l2-9.3h-2L54.6,31.6z M42.5,31.6h2l1.1-5.4c0.3-1.3,1.5-4,3.9-4
			c1.2,0,2,0.8,2,2c0,0.2,0,0.7-0.1,1l-1.3,6.4h2l1.2-5.7c0.1-0.6,0.3-1.3,0.3-2c0-2.3-1.5-3.4-3.6-3.4c-1.9,0-3,1-3.7,2h0l0.3-1.7
			h-1.9c-0.1,0.6-0.2,1.2-0.3,1.6L42.5,31.6z M30.4,29.7l2.8-12.9h-2.1l-3.2,14.7h8.2l0.4-1.9H30.4z M37.7,31.6h2l2.3-10.8h-2
			L37.7,31.6z M28.2,23.6l-0.4,1.9H24l0.4-1.9H28.2z"/>
		<path class="st1" d="M77.7,15.7h11.1l-2.1,3h-6L79.9,22h6.2l-0.7,3h-6.2l-0.8,3.6h6.9l-0.6,3H74.3L77.7,15.7z M72.2,15.7h3.1
			L72,31.6h-3.1L72.2,15.7z"/>
		<polygon class="st1" points="43,15.8 40.1,20 42,20 45,15.8 		"/>
	</g>
	<g>
		<g>
			<path class="st2" d="M100.5,23.7c-0.4-0.3-1-0.5-1.9-0.5c-1.8,0-3.1,1.4-3.2,3.3c0,1.4,0.8,2.6,2.3,2.6c0.7,0,1.3-0.2,1.7-0.5
				l-0.3,1.6c-0.6,0.2-1.2,0.2-1.9,0.2c-2.5,0-3.6-1.7-3.5-3.9c0.1-2.6,1.9-4.6,4.8-4.6c0.8,0,1.7,0.1,2.4,0.4L100.5,23.7z"/>
			<path class="st0" d="M110.6,26.7c-0.1,2.1-1.5,3.7-3.7,3.7c-1.7,0-2.7-1.1-2.7-2.7c0-2,1.6-3.5,3.6-3.5
				C109.6,24,110.7,25,110.6,26.7z M109,26.7c0-0.8-0.2-1.4-1.2-1.4c-1.2,0-1.9,1.4-1.9,2.5c0,0.8,0.3,1.4,1.2,1.4
				C108.3,29.1,109,27.7,109,26.7z"/>
			<path class="st0" d="M112.1,25c0.1-0.4,0.1-0.7,0.2-0.9h1.5l-0.1,0.6h0c0.4-0.4,1-0.7,1.7-0.7c1.2,0,1.9,0.7,1.9,1.9
				c0,0.5-0.1,0.9-0.2,1.3l-0.7,2.9h-1.6l0.7-2.8c0.1-0.4,0.2-0.8,0.2-1.3c0-0.5-0.3-0.8-0.8-0.8c-1.1,0-1.5,1-1.7,1.9l-0.7,3h-1.6
				L112.1,25z"/>
			<path class="st0" d="M118.6,24.2h1.1l0.3-1.2l1.7-0.5l-0.4,1.8h1.4l-0.3,1.1H121l-0.6,2.6c0,0.1-0.1,0.4-0.1,0.6
				c0,0.4,0.2,0.6,0.6,0.6c0.3,0,0.6-0.1,0.8-0.1l-0.3,1.2c-0.3,0.1-0.6,0.1-0.8,0.1c-1.1,0-1.8-0.4-1.8-1.6c0-0.5,0.1-0.9,0.2-1.4
				l0.5-2h-1.1L118.6,24.2z"/>
			<path class="st0" d="M123.8,25c0.1-0.3,0.1-0.5,0.2-0.8h1.5l-0.2,1.1h0c0.3-0.7,1.1-1.3,1.8-1.3c0.2,0,0.4,0,0.6,0.1l-0.4,1.5
				c-0.2-0.1-0.4-0.1-0.6-0.1c-1.1,0-1.7,1-1.9,2l-0.6,2.7h-1.6L123.8,25z"/>
			<path class="st0" d="M133.7,26.7c-0.1,2.1-1.5,3.7-3.7,3.7c-1.7,0-2.7-1.1-2.7-2.7c0-2,1.6-3.5,3.6-3.5
				C132.7,24,133.8,25,133.7,26.7z M132.1,26.7c0-0.8-0.2-1.4-1.2-1.4c-1.2,0-1.9,1.4-1.9,2.5c0,0.8,0.3,1.4,1.2,1.4
				C131.4,29.1,132.1,27.7,132.1,26.7z"/>
			<path class="st0" d="M136.3,21.4h1.6l-2.1,8.8h-1.6L136.3,21.4z"/>
		</g>
	</g>
</g>
<g>
</g>
<g>
</g>
<g>
</g>
<g>
</g>
<g>
</g>
<g>
</g>
<g>
</g>
<g>
</g>
<g>
</g>
<g>
</g>
<g>
</g>
<g>
</g>
<g>
</g>
<g>
</g>
<g>
</g>
</svg>
