<?xml version="1.0" encoding="utf-8"?>
<!-- Generator: Adobe Illustrator 19.2.1, SVG Export Plug-In . SVG Version: 6.00 Build 0)  -->
<svg version="1.1" id="レイヤー_1" xmlns="http://www.w3.org/2000/svg" xmlns:xlink="http://www.w3.org/1999/xlink" x="0px"
	 y="0px" viewBox="0 0 138 46" style="enable-background:new 0 0 138 46;" xml:space="preserve">
<style type="text/css">
	.st0{fill:#005BAB;}
	.st1{fill:#E50012;}
	.st2{fill:#9E9E9F;}
</style>
<g>
	<g>
		<g>
			<path class="st0" d="M57.9,31.3c0.5,0,0.6-0.2,0.8-0.3c0.2-0.2,0.4-0.6,0.4-1.2l0.6-4.2c0-0.4,0.1-0.8,0.1-1.2
				c-0.1-0.2-0.4-0.4-0.8-0.4l0.1-0.2c0,0,2.8,0,2.8,0c0,0-0.9,5.4-0.9,5.4c-0.1,0.7-0.2,1.8,0,2c0.1,0.2,0,0.2,0.6,0.2l0,0.3h-3.7
				L57.9,31.3L57.9,31.3z"/>
			<polygon class="st0" points="46.6,23.6 50.1,23.6 49.7,25.6 46.2,25.6 46.6,23.6 			"/>
			<path class="st0" d="M49.7,31.3c0.6-0.1,0.7-0.3,0.8-0.5c0.1-0.2,0.2-0.5,0.3-1l1.2-7.5c0.1-0.6,0.1-1,0-1.3
				c-0.1-0.3-0.2-0.4-0.7-0.4l0-0.2h3.8l-0.1,0.2c-0.3,0-0.4,0.1-0.6,0.3c-0.2,0.2-0.3,0.6-0.5,1.2l-1.1,7.2c0,0.2,0.1,0.4,0.3,0.6
				c0.2,0.2,0.5,0.1,0.8,0.2c0.3,0,0.8,0,1.2,0c0.5,0,0.8-0.1,1.1-0.2c0.3-0.2,0.5-0.3,0.7-0.8l0.2,0l-0.7,2.4h-6.8V31.3L49.7,31.3z
				"/>
			<path class="st1" d="M60,20.9c0-0.8,0.6-1.4,1.3-1.4c0.7,0,1.3,0.6,1.3,1.4c0,0.8-0.6,1.4-1.3,1.4C60.5,22.3,60,21.7,60,20.9
				L60,20.9z"/>
			<path class="st0" d="M62.4,31.3c0.4-0.1,0.6-0.2,0.7-0.3c0.3-0.6,1.1-6,1.1-6.2c0-0.2,0-0.5-0.1-0.7c-0.1-0.2-0.3-0.1-0.5-0.2
				l0.1-0.2c0,0,2.7,0,2.7,0c0,0-0.1,1.1-0.1,1.1l0.7-0.6c0.2-0.2,0.7-0.5,1.1-0.6c0.3-0.1,1.1-0.2,1.7-0.1c0.5,0,1,0.2,1.3,0.4
				c0.6,0.4,0.6,1.3,0.4,2.4L71,30c0,0.3-0.1,0.7,0,0.9c0.1,0.2,0.3,0.3,0.6,0.3l-0.1,0.3h-3.7l0-0.3c0.4-0.1,0.6-0.1,0.8-0.3
				c0.2-0.1,0.3-0.5,0.4-1.1l0.5-3.7c0-0.3,0-0.6-0.3-0.9c-0.1-0.1-0.5-0.3-0.7-0.4c-0.3-0.1-0.9-0.1-1.4,0.2
				c-0.6,0.3-1.1,1.4-1.3,1.8c-0.1,0.3-0.5,3.8-0.5,3.8c0,0.2,0.1,0.4,0.1,0.5c0.2,0.1,0.2,0.1,0.5,0.1l-0.1,0.3h-3.6L62.4,31.3
				L62.4,31.3z"/>
			<path class="st0" d="M72.6,31.3c0.5,0,0.7-0.2,0.8-0.4c0.1-0.1,0.2-0.4,0.3-0.8L75,22c0-0.4,0.1-0.9,0-1.1
				c-0.1-0.1-0.2-0.2-0.3-0.3c-0.1,0-0.2-0.1-0.3-0.1l0-0.2c0,0,2.8,0,2.8,0l-1,6.1c0,0,2.8-2.2,2.8-2.2c0.2-0.2,0.2-0.3,0.1-0.3
				c0-0.1-0.2-0.1-0.3-0.1l0-0.3h3.9l-0.1,0.2c-0.2,0-0.4,0-0.5,0.2c-0.2,0-3.7,2.8-3.7,2.8c-0.1,0.1,0,0.2,0,0.2
				c0.6,0.9,2.3,3.5,3.1,4.2c0.1,0.2,0.3,0.1,0.3,0.1l0,0.3h-2.3c-0.4,0-0.6-0.2-0.8-0.4c-0.1-0.1-2.7-3.9-2.7-3.9l-0.5,3.3
				c0,0.4,0,0.5,0.1,0.6c0.1,0.1,0.2,0.2,0.5,0.2l-0.1,0.3h-3.5L72.6,31.3L72.6,31.3z"/>
			<path class="st0" d="M22.3,22.4c0-5.2,3.4-9.3,7.7-9.3c1.9,0,3.7,0.9,5.1,2.3L34,16.9c-1-1.3-2.4-2.1-4-2.1
				c-3.2,0-5.7,3.4-5.7,7.6c0,4.2,2.6,7.6,5.7,7.6c1.5,0,2.8-0.7,3.9-2l1.1,1.5c-1.3,1.4-3.1,2.2-4.9,2.2
				C25.7,31.7,22.3,27.5,22.3,22.4L22.3,22.4z"/>
			<path class="st0" d="M33.9,22.4c0-5.2,3.4-9.3,7.7-9.3c1.9,0,3.7,0.9,5.1,2.3l-1.1,1.5c-1-1.3-2.4-2.1-4-2.1
				c-3.2,0-5.7,3.4-5.7,7.6c0,4.2,2.6,7.6,5.7,7.6c1.5,0,2.8-0.7,3.9-2l1.1,1.5c-1.3,1.4-3.1,2.2-4.9,2.2
				C37.3,31.7,33.9,27.5,33.9,22.4L33.9,22.4z"/>
		</g>
		<g>
			<polygon class="st2" points="85,34.7 83.5,34.7 92.7,12.6 94.2,12.6 			"/>
			<path class="st2" d="M99.1,29.5c1.6,0.1,3.1-0.5,4.4-1.4h0.1l-1.8,3.1h-9.7l0-0.1c1.3-0.4,1.4-2.2,1.6-3.2l1.6-8.9
				c0.2-1.1,0.6-2.8-0.5-3.3l0-0.1h4.5l0,0.1c-1.3,0.5-1.4,2.2-1.6,3.3l-1.8,10.3L99.1,29.5z"/>
			<path class="st2" d="M108.2,28.1c-0.2,1.3-0.4,2.3,0.7,3l0,0.1h-4.7l0-0.1c1.3-0.5,1.4-2.2,1.6-3.2l1.8-10.6h-2.1
				c-1,0-2.1,0.3-3,0.9h-0.1l1.3-2.8h0.1c0.3,0.1,0.6,0.1,0.9,0.2h0.6h8.8c0.4,0,0.8,0,1.1-0.2h0.1l-1.3,2.8h-0.1
				c-0.2-0.8-1.1-0.9-1.9-0.9h-2.1L108.2,28.1z"/>
		</g>
	</g>
</g>
<g>
</g>
<g>
</g>
<g>
</g>
<g>
</g>
<g>
</g>
<g>
</g>
<g>
</g>
<g>
</g>
<g>
</g>
<g>
</g>
<g>
</g>
<g>
</g>
<g>
</g>
<g>
</g>
<g>
</g>
</svg>
