<?xml version="1.0" encoding="utf-8"?>
<!-- Generator: Adobe Illustrator 19.2.1, SVG Export Plug-In . SVG Version: 6.00 Build 0)  -->
<svg version="1.1" id="レイヤー_1" xmlns="http://www.w3.org/2000/svg" xmlns:xlink="http://www.w3.org/1999/xlink" x="0px"
	 y="0px" viewBox="0 0 30 18" enable-background="new 0 0 30 18" xml:space="preserve">
<g>
	<defs>
		<path id="SVGID_1_" d="M20.729,2.729l-2.292,2.354l-3.885-1.146l-2.276,0.75l-1.159,1l-1.007,1.729L9.91,9.208l0.108,1.208
			l0.398,1.188l0.459,0.5L12.02,13l1.146,0.521L14.708,14l2.146-0.167l1.833-1.167l0.563-1.042l0.563-0.156l2.75,1.656l-1.792,2.292
			l-1.333,1.125l-1.396,0.396L13.979,18H12c0,0-3.625-2.896-3.729-2.896c-0.104,0-2.146-4.271-2.146-4.271l0.042-2.771l0.5-2.854
			l1.854-2.125l1.833-1.542L12.75,0H15h2l2.479,1.188L20.729,2.729z"/>
	</defs>
	<clipPath id="SVGID_2_">
		<use xlink:href="#SVGID_1_"  overflow="visible"/>
	</clipPath>
	
		<circle clip-path="url(#SVGID_2_)" fill="#FFFFFF" stroke="#006699" stroke-width="3" stroke-miterlimit="10" cx="15.006" cy="9.016" r="6.893"/>
</g>
<polygon fill="#006699" points="24.138,9.971 15.381,6.124 23.092,0.464 "/>
<g>
</g>
<g>
</g>
<g>
</g>
<g>
</g>
<g>
</g>
<g>
</g>
<g>
</g>
<g>
</g>
<g>
</g>
<g>
</g>
<g>
</g>
<g>
</g>
<g>
</g>
<g>
</g>
<g>
</g>
</svg>
