<?xml version="1.0" encoding="utf-8"?>
<!-- Generator: Adobe Illustrator 19.2.1, SVG Export Plug-In . SVG Version: 6.00 Build 0)  -->
<svg version="1.1" xmlns="http://www.w3.org/2000/svg" xmlns:xlink="http://www.w3.org/1999/xlink" x="0px" y="0px"
	 viewBox="0 0 39.0833321 39" enable-background="new 0 0 39.0833321 39" xml:space="preserve">
<g id="レイヤー_1">
	<path fill="#FFFFFF" stroke="#666666" stroke-width="0.5" stroke-miterlimit="10" d="M35.5416679,38.5h-32
		c-1.6500001,0-3-1.3499985-3-3v-32c0-1.65,1.3499999-3,3-3h32c1.6499977,0,3,1.35,3,3v32
		C38.5416679,37.1500015,37.1916656,38.5,35.5416679,38.5z"/>
</g>
<g id="レイヤー_1のコピー">
	<linearGradient id="SVGID_1_" gradientUnits="userSpaceOnUse" x1="19.4951" y1="2.5" x2="19.4951" y2="36.5">
		<stop  offset="0" style="stop-color:#FFFFFF"/>
		<stop  offset="1" style="stop-color:#DCDCDC"/>
	</linearGradient>
	<path fill="url(#SVGID_1_)" stroke="#666666" stroke-width="0.5" stroke-miterlimit="10" d="M34.0474739,36.5H4.9427271
		C3.5965323,36.5,2.4951,35.3985672,2.4951,34.052372V4.9476271C2.4951,3.6014323,3.5965323,2.5,4.9427271,2.5h29.1047478
		c1.3461952,0,2.4476242,1.1014323,2.4476242,2.4476271v29.104744C36.4950981,35.3985672,35.3936691,36.5,34.0474739,36.5z"/>
</g>
<g id="レイヤー_3">
	<g>
		<rect x="5.3333335" y="4.4998999" fill="none" width="28.666666" height="26.5"/>
		<path fill="#0033CC" d="M12.3867188,14.7021484c0-0.9277344,0.2978516-1.8676758,0.8935547-2.8198242
			s1.4648438-1.7407227,2.6074219-2.3657227s2.4755859-0.9375,3.9990234-0.9375c1.4160156,0,2.6660156,0.2612305,3.75,0.7836914
			s1.9213867,1.2329102,2.512207,2.1313477s0.8862305,1.875,0.8862305,2.9296875
			c0,0.8300781-0.168457,1.5576172-0.5053711,2.1826172s-0.7373047,1.1645508-1.2011719,1.6186523
			s-1.2963867,1.2182617-2.4975586,2.2924805c-0.3320313,0.3027344-0.5981445,0.5693359-0.7983398,0.7988281
			s-0.3491211,0.4394531-0.4467773,0.6289063c-0.0976563,0.1914063-0.1733398,0.3808594-0.2270508,0.5722656
			c-0.0537109,0.1894531-0.1342773,0.5244141-0.2416992,1.0029297c-0.1855469,1.015625-0.7666016,1.5234375-1.7431641,1.5234375
			c-0.5078125,0-0.9350586-0.1660156-1.2817383-0.4980469s-0.5200195-0.8251953-0.5200195-1.4794922
			c0-0.8203125,0.1269531-1.53125,0.3808594-2.1308594c0.2539063-0.6015625,0.5908203-1.1289063,1.0107422-1.5820313
			c0.4199219-0.4545898,0.9863281-0.9941406,1.6992188-1.6191406c0.625-0.546875,1.0766602-0.9594727,1.3549805-1.237793
			s0.5126953-0.5883789,0.703125-0.9301758s0.2856445-0.7128906,0.2856445-1.1132813
			c0-0.78125-0.2905273-1.4404297-0.871582-1.9775391s-1.3305664-0.8056641-2.2485352-0.8056641
			c-1.0742188,0-1.8652344,0.2709961-2.3730469,0.8129883s-0.9375,1.340332-1.2890625,2.3950195
			c-0.3320313,1.1035156-0.9619141,1.6552734-1.8896484,1.6552734c-0.546875,0-1.0083008-0.1928711-1.3842773-0.5786133
			S12.3867188,15.1513672,12.3867188,14.7021484z M19.5351563,30.7568359c-0.5957031,0-1.1157227-0.1933594-1.5600586-0.5791016
			c-0.4443359-0.3847656-0.6665039-0.9248047-0.6665039-1.6181641c0-0.6152344,0.2148438-1.1328125,0.6445313-1.5527344
			s0.9570313-0.6298828,1.5820313-0.6298828c0.6152344,0,1.1328125,0.2099609,1.5527344,0.6298828
			s0.6298828,0.9375,0.6298828,1.5527344c0,0.6835938-0.2197266,1.2207031-0.6591797,1.6113281
			S20.1113281,30.7568359,19.5351563,30.7568359z"/>
	</g>
</g>
<g id="レイヤー_1のコピー_2">
	<path opacity="0.3" fill="#FFFFFF" stroke="#FFFFFF" stroke-width="0.5" stroke-miterlimit="10" d="M35.5416679,38.5h-32
		c-1.6500001,0-3-1.3499985-3-3v-32c0-1.65,1.3499999-3,3-3h32c1.6499977,0,3,1.35,3,3v32
		C38.5416679,37.1500015,37.1916656,38.5,35.5416679,38.5z"/>
	<g>
	</g>
	<g>
	</g>
	<g>
	</g>
	<g>
	</g>
	<g>
	</g>
	<g>
	</g>
	<g>
	</g>
	<g>
	</g>
	<g>
	</g>
	<g>
	</g>
	<g>
	</g>
	<g>
	</g>
	<g>
	</g>
	<g>
	</g>
	<g>
	</g>
</g>
</svg>
