<?xml version="1.0" encoding="utf-8"?>
<!-- Generator: Adobe Illustrator 19.2.1, SVG Export Plug-In . SVG Version: 6.00 Build 0)  -->
<svg version="1.1" xmlns="http://www.w3.org/2000/svg" xmlns:xlink="http://www.w3.org/1999/xlink" x="0px" y="0px"
	 viewBox="0 0 137 39" enable-background="new 0 0 137 39" xml:space="preserve">
<g id="レイヤー_1">
	<path fill="#FFFFFF" stroke="#666666" stroke-width="0.5" stroke-miterlimit="10" d="M131.5,38.5H5.5c-2.75,0-5-2.25-5-5v-28
		c0-2.75,2.25-5,5-5h126c2.75,0,5,2.25,5,5v28C136.5,36.25,134.25,38.5,131.5,38.5z"/>
</g>
<g id="レイヤー_1のコピー">
	<linearGradient id="SVGID_1_" gradientUnits="userSpaceOnUse" x1="68.5" y1="2.5" x2="68.5" y2="36.5">
		<stop  offset="0" style="stop-color:#FFFFFF"/>
		<stop  offset="1" style="stop-color:#E6E6E6"/>
	</linearGradient>
	<path fill="url(#SVGID_1_)" stroke="#666666" stroke-width="0.4891139" stroke-miterlimit="10" d="M129.6772766,36.5H7.3227282
		C4.6702275,36.5,2.5,34.3297729,2.5,31.6772728V7.3227282C2.5,4.6702275,4.6702275,2.5,7.3227282,2.5h122.3545456
		C132.3297729,2.5,134.5,4.6702275,134.5,7.3227282v24.3545456C134.5,34.3297729,132.3297729,36.5,129.6772766,36.5z"/>
</g>
<g id="レイヤー_1のコピー_2">
	<path opacity="0.3" fill="#FFFFFF" stroke="#FFFFFF" stroke-width="0.5" stroke-miterlimit="10" d="M131.5,38.5H5.5
		c-2.75,0-5-2.25-5-5v-28c0-2.75,2.25-5,5-5h126c2.75,0,5,2.25,5,5v28C136.5,36.25,134.25,38.5,131.5,38.5z"/>
	<g>
	</g>
	<g>
	</g>
	<g>
	</g>
	<g>
	</g>
	<g>
	</g>
	<g>
	</g>
	<g>
	</g>
	<g>
	</g>
	<g>
	</g>
	<g>
	</g>
	<g>
	</g>
	<g>
	</g>
	<g>
	</g>
	<g>
	</g>
	<g>
	</g>
</g>
</svg>
