<?xml version="1.0" encoding="utf-8"?>
<!-- Generator: Adobe Illustrator 21.0.0, SVG Export Plug-In . SVG Version: 6.00 Build 0)  -->
<svg version="1.1" xmlns="http://www.w3.org/2000/svg" xmlns:xlink="http://www.w3.org/1999/xlink" x="0px" y="0px"
	 viewBox="0 0 500 100" style="enable-background:new 0 0 500 100;" xml:space="preserve">
<style type="text/css">
	.st0{fill:#231815;}
	.st1{fill:url(#SVGID_1_);}
	.st2{display:none;}
	.st3{display:inline;}
	.st4{fill:#FFFFFF;}
	.st5{display:inline;fill:url(#SVGID_2_);}
	.st6{display:inline;fill:#FFFFFF;}
</style>
<g id="BK">
	<g>
		<g>
			<path class="st0" d="M1,9.1h21.1l10.7,42.4H33L44.1,9.1h20.3v63.7H51.4l0.2-48.9h-0.1L38.6,72.8H26.3L14,23.9h-0.1l0.3,48.9H1
				V9.1z"/>
			<path class="st0" d="M68.6,9.1h35.5v12.1H82v13.1h20.9v12.1H82v14.4h22.9v12.1H68.6V9.1z"/>
			<path class="st0" d="M108.9,9.1h13.4v51.1h20.8v12.6h-34.2V9.1z"/>
			<path class="st0" d="M149.8,57.1c3.5,2.4,8.3,4.2,13.9,4.2c4.3,0,8.3-1.1,8.3-6.2c0-11.9-23.8-4.4-23.8-27.6
				C148.2,12.2,160,8,170.1,8c4.8,0,9.6,0.9,13,2.4l-0.9,13.1c-3.5-2-7.4-2.9-11.2-2.9c-3.4,0-9,0.4-9,5.9
				c0,10.3,23.8,3.4,23.8,26.4c0,16.5-11,21-22.1,21c-4.7,0-10.5-0.9-15-2.7L149.8,57.1z"/>
			<path class="st0" d="M190.5,9.1H226v12.1h-22.1v13.1h20.9v12.1h-20.9v14.4h22.9v12.1h-36.3V9.1z"/>
			<path class="st0" d="M274.4,71.4c-3.8,1.2-8.1,2.6-14.9,2.6c-13.4,0-28.9-8.6-28.9-32.7C230.5,19,242.8,8,259.4,8
				c5.1,0,10.1,1.5,14.9,3.3l-1.1,13.8c-4.3-3-8.5-4.5-13.1-4.5c-9.5,0-15.7,8.8-15.7,20.6c0,12.5,7,20.1,16.8,20.1
				c4.4,0,8.9-1.5,12.6-3.3L274.4,71.4z"/>
		</g>
		<g>
			<path class="st0" d="M495,75.7h-23.5l-17.8-27.9h-0.2v27.9h-18.9V3.2h28.2c14.3,0,25.2,6.8,25.2,22.3c0,10-5.6,18.7-15.9,20.5
				L495,75.7z M453.5,35.7h1.8c6.2,0,13.1-1.2,13.1-9c0-7.9-6.9-9-13.1-9h-1.8V35.7z"/>
		</g>
		<linearGradient id="SVGID_1_" gradientUnits="userSpaceOnUse" x1="359.5623" y1="78.8805" x2="403.8741" y2="17.8907">
			<stop  offset="0" style="stop-color:#881A1F"/>
			<stop  offset="1" style="stop-color:#DF242F"/>
		</linearGradient>
		<path class="st1" d="M404.4,37.9c0,16.6-10,29.8-24,34.3c-0.6,0.4-0.2,1.3,0.9,2.2c6.1,5.3,15.5,13.7,23.5,16
			c2.5,0.7,5.1,1.2,7.6,1.2c2.1,0,3.9-0.5,5.3-1c0.6,0.3,0.9,1.5,0.6,2.1c-3.2,2.4-8.7,3.3-13.3,3.3c-14.2,0-28.8-8.5-39.2-19.5
			c-1.9-1.9-2.6-2.2-3.9-2.3c-19.3-1.6-32.7-17.3-32.7-35.4C329.4,17.1,345,1,367.3,1C391.8,1,404.4,18.9,404.4,37.9 M343.8,35.6
			c0,14.6,6.3,34.6,24.4,34.6c12.1,0,21.8-9,21.8-30.3c0-16-7.2-34.6-24.1-34.6C355.3,5.3,343.8,13,343.8,35.6"/>
		<path d="M319.2,60.8c0,7.8,0.4,8.9,4,9.5l1.9,0.3c0.7,0.7,0.6,2.6-0.2,3.1c-3.9-0.2-7.5-0.3-11.4-0.3c-3.5,0-7.1,0.1-11.1,0.3
			c-0.9-0.4-1-2.3-0.2-3.1l1.9-0.3c3.6-0.6,4-1.7,4-9.5V45.2c0-4.8,0-6-2.7-7.6l-1.3-0.8c-0.3-0.4-0.3-1.9,0.1-2.4
			c5.5-1.6,10.8-3.9,13.8-5.7c0.6,0.1,1.2,0.3,1.5,0.8c-0.2,3.5-0.3,8.6-0.3,13V60.8 M307.1,14c0-3.6,2.7-6.4,6.5-6.4
			s6.5,2.8,6.5,6.4c0,3.6-2.6,6.3-6.5,6.3S307.1,17.6,307.1,14"/>
		<g>
			<rect x="412.1" y="37.6" class="st0" width="11.1" height="2.9"/>
		</g>
		<g>
			<path class="st0" d="M433.8,87.7c-0.3-0.5-0.8-0.9-1.5-0.9c-0.6,0-1.2,0.4-1.2,1c0,0.9,1.3,1.3,2.7,1.8c1.3,0.6,2.6,1.3,2.6,2.9
				c0,2-1.8,3.4-3.9,3.4c-1.7,0-3.4-0.9-4-2.3l1.9-0.8c0.5,0.8,1,1.3,2.1,1.3c0.9,0,1.7-0.6,1.7-1.5c0-0.6-0.3-0.8-0.8-1.1l-2.2-1
				c-1.3-0.6-2.2-1.2-2.2-2.6c0-1.7,1.5-3,3.4-3c1.4,0,2.5,0.7,3.1,1.8L433.8,87.7z"/>
			<path class="st0" d="M442.9,90.8c0,1.8,1.3,3.4,3.4,3.4c1.7,0,2.6-0.8,3.4-2l1.9,0.9c-1.1,1.8-3.1,2.8-5.3,2.8
				c-3.5,0-5.6-2.4-5.6-5.4c0-3.2,1.9-5.6,5.6-5.6c3.6,0,5.4,2.4,5.4,5.5v0.3H442.9z M449.4,89.3c-0.3-1.5-1.4-2.6-3.2-2.6
				c-1.7,0-3,1.1-3.3,2.6H449.4z"/>
			<path class="st0" d="M458.8,87L458.8,87c0.6-1.2,1.7-2,3.2-2c0.6,0,1.3,0.2,1.8,0.5l-1,1.8c-0.4-0.3-0.8-0.4-1.3-0.4
				c-2.4,0-2.7,2-2.7,3.7v5.1h-2.2V85.3h2.2V87z"/>
			<path class="st0" d="M471.1,80.6c0,0.7-0.7,1.3-1.5,1.3c-0.8,0-1.5-0.6-1.5-1.3c0-0.8,0.7-1.4,1.5-1.4
				C470.4,79.2,471.1,79.8,471.1,80.6z M470.6,95.6h-2.2V85.3h2.2V95.6z"/>
			<path class="st0" d="M478.4,90.8c0,1.8,1.3,3.4,3.4,3.4c1.7,0,2.6-0.8,3.4-2l1.9,0.9c-1.1,1.8-3.1,2.8-5.3,2.8
				c-3.5,0-5.6-2.4-5.6-5.4c0-3.2,1.9-5.6,5.6-5.6c3.6,0,5.4,2.4,5.4,5.5v0.3H478.4z M485,89.3c-0.3-1.5-1.4-2.6-3.2-2.6
				c-1.7,0-3,1.1-3.3,2.6H485z"/>
			<path class="st0" d="M496.6,87.7c-0.3-0.5-0.8-0.9-1.5-0.9c-0.6,0-1.2,0.4-1.2,1c0,0.9,1.3,1.3,2.7,1.8c1.3,0.6,2.6,1.3,2.6,2.9
				c0,2-1.8,3.4-3.9,3.4c-1.7,0-3.4-0.9-4-2.3l1.9-0.8c0.5,0.8,1,1.3,2.1,1.3c0.9,0,1.7-0.6,1.7-1.5c0-0.6-0.3-0.8-0.8-1.1l-2.2-1
				c-1.3-0.6-2.2-1.2-2.2-2.6c0-1.7,1.5-3,3.4-3c1.4,0,2.5,0.7,3.1,1.8L496.6,87.7z"/>
		</g>
	</g>
</g>
<g id="白" class="st2">
	<g class="st3">
		<path class="st4" d="M1,9.1h21.1l10.7,42.4H33L44.1,9.1h20.3v63.7H51.4l0.2-48.9h-0.1L38.6,72.8H26.3L14,23.9h-0.1l0.3,48.9H1V9.1
			z"/>
		<path class="st4" d="M68.6,9.1h35.5v12.1H82v13.1h20.9v12.1H82v14.4h22.9v12.1H68.6V9.1z"/>
		<path class="st4" d="M108.9,9.1h13.4v51.1h20.8v12.6h-34.2V9.1z"/>
		<path class="st4" d="M149.8,57.1c3.5,2.4,8.3,4.2,13.9,4.2c4.3,0,8.3-1.1,8.3-6.2c0-11.9-23.8-4.4-23.8-27.6
			C148.2,12.2,160,8,170.1,8c4.8,0,9.6,0.9,13,2.4l-0.9,13.1c-3.5-2-7.4-2.9-11.2-2.9c-3.4,0-9,0.4-9,5.9c0,10.3,23.8,3.4,23.8,26.4
			c0,16.5-11,21-22.1,21c-4.7,0-10.5-0.9-15-2.7L149.8,57.1z"/>
		<path class="st4" d="M190.5,9.1H226v12.1h-22.1v13.1h20.9v12.1h-20.9v14.4h22.9v12.1h-36.3V9.1z"/>
		<path class="st4" d="M274.4,71.4c-3.8,1.2-8.1,2.6-14.9,2.6c-13.4,0-28.9-8.6-28.9-32.7C230.5,19,242.8,8,259.4,8
			c5.1,0,10.1,1.5,14.9,3.3l-1.1,13.8c-4.3-3-8.5-4.5-13.1-4.5c-9.5,0-15.7,8.8-15.7,20.6c0,12.5,7,20.1,16.8,20.1
			c4.4,0,8.9-1.5,12.6-3.3L274.4,71.4z"/>
	</g>
	<g class="st3">
		<path class="st4" d="M495,75.7h-23.5l-17.8-27.9h-0.2v27.9h-18.9V3.2h28.2c14.3,0,25.2,6.8,25.2,22.3c0,10-5.6,18.7-15.9,20.5
			L495,75.7z M453.5,35.7h1.8c6.2,0,13.1-1.2,13.1-9c0-7.9-6.9-9-13.1-9h-1.8V35.7z"/>
	</g>
	<linearGradient id="SVGID_2_" gradientUnits="userSpaceOnUse" x1="359.5623" y1="78.8805" x2="403.8741" y2="17.8907">
		<stop  offset="0" style="stop-color:#881A1F"/>
		<stop  offset="1" style="stop-color:#DF242F"/>
	</linearGradient>
	<path class="st5" d="M404.4,37.9c0,16.6-10,29.8-24,34.3c-0.6,0.4-0.2,1.3,0.9,2.2c6.1,5.3,15.5,13.7,23.5,16
		c2.5,0.7,5.1,1.2,7.6,1.2c2.1,0,3.9-0.5,5.3-1c0.6,0.3,0.9,1.5,0.6,2.1c-3.2,2.4-8.7,3.3-13.3,3.3c-14.2,0-28.8-8.5-39.2-19.5
		c-1.9-1.9-2.6-2.2-3.9-2.3c-19.3-1.6-32.7-17.3-32.7-35.4C329.4,17.1,345,1,367.3,1C391.8,1,404.4,18.9,404.4,37.9 M343.8,35.6
		c0,14.6,6.3,34.6,24.4,34.6c12.1,0,21.8-9,21.8-30.3c0-16-7.2-34.6-24.1-34.6C355.3,5.3,343.8,13,343.8,35.6"/>
	<path class="st6" d="M319.2,60.8c0,7.8,0.4,8.9,4,9.5l1.9,0.3c0.7,0.7,0.6,2.6-0.2,3.1c-3.9-0.2-7.5-0.3-11.4-0.3
		c-3.5,0-7.1,0.1-11.1,0.3c-0.9-0.4-1-2.3-0.2-3.1l1.9-0.3c3.6-0.6,4-1.7,4-9.5V45.2c0-4.8,0-6-2.7-7.6l-1.3-0.8
		c-0.3-0.4-0.3-1.9,0.1-2.4c5.5-1.6,10.8-3.9,13.8-5.7c0.6,0.1,1.2,0.3,1.5,0.8c-0.2,3.5-0.3,8.6-0.3,13V60.8 M307.1,14
		c0-3.6,2.7-6.4,6.5-6.4s6.5,2.8,6.5,6.4c0,3.6-2.6,6.3-6.5,6.3S307.1,17.6,307.1,14"/>
	<g class="st3">
		<rect x="412.1" y="37.6" class="st4" width="11.1" height="2.9"/>
	</g>
	<g class="st3">
		<path class="st4" d="M433.8,87.7c-0.3-0.5-0.8-0.9-1.5-0.9c-0.6,0-1.2,0.4-1.2,1c0,0.9,1.3,1.3,2.7,1.8c1.3,0.6,2.6,1.3,2.6,2.9
			c0,2-1.8,3.4-3.9,3.4c-1.7,0-3.4-0.9-4-2.3l1.9-0.8c0.5,0.8,1,1.3,2.1,1.3c0.9,0,1.7-0.6,1.7-1.5c0-0.6-0.3-0.8-0.8-1.1l-2.2-1
			c-1.3-0.6-2.2-1.2-2.2-2.6c0-1.7,1.5-3,3.4-3c1.4,0,2.5,0.7,3.1,1.8L433.8,87.7z"/>
		<path class="st4" d="M442.9,90.8c0,1.8,1.3,3.4,3.4,3.4c1.7,0,2.6-0.8,3.4-2l1.9,0.9c-1.1,1.8-3.1,2.8-5.3,2.8
			c-3.5,0-5.6-2.4-5.6-5.4c0-3.2,1.9-5.6,5.6-5.6c3.6,0,5.4,2.4,5.4,5.5v0.3H442.9z M449.4,89.3c-0.3-1.5-1.4-2.6-3.2-2.6
			c-1.7,0-3,1.1-3.3,2.6H449.4z"/>
		<path class="st4" d="M458.8,87L458.8,87c0.6-1.2,1.7-2,3.2-2c0.6,0,1.3,0.2,1.8,0.5l-1,1.8c-0.4-0.3-0.8-0.4-1.3-0.4
			c-2.4,0-2.7,2-2.7,3.7v5.1h-2.2V85.3h2.2V87z"/>
		<path class="st4" d="M471.1,80.6c0,0.7-0.7,1.3-1.5,1.3c-0.8,0-1.5-0.6-1.5-1.3c0-0.8,0.7-1.4,1.5-1.4
			C470.4,79.2,471.1,79.8,471.1,80.6z M470.6,95.6h-2.2V85.3h2.2V95.6z"/>
		<path class="st4" d="M478.4,90.8c0,1.8,1.3,3.4,3.4,3.4c1.7,0,2.6-0.8,3.4-2l1.9,0.9c-1.1,1.8-3.1,2.8-5.3,2.8
			c-3.5,0-5.6-2.4-5.6-5.4c0-3.2,1.9-5.6,5.6-5.6c3.6,0,5.4,2.4,5.4,5.5v0.3H478.4z M485,89.3c-0.3-1.5-1.4-2.6-3.2-2.6
			c-1.7,0-3,1.1-3.3,2.6H485z"/>
		<path class="st4" d="M496.6,87.7c-0.3-0.5-0.8-0.9-1.5-0.9c-0.6,0-1.2,0.4-1.2,1c0,0.9,1.3,1.3,2.7,1.8c1.3,0.6,2.6,1.3,2.6,2.9
			c0,2-1.8,3.4-3.9,3.4c-1.7,0-3.4-0.9-4-2.3l1.9-0.8c0.5,0.8,1,1.3,2.1,1.3c0.9,0,1.7-0.6,1.7-1.5c0-0.6-0.3-0.8-0.8-1.1l-2.2-1
			c-1.3-0.6-2.2-1.2-2.2-2.6c0-1.7,1.5-3,3.4-3c1.4,0,2.5,0.7,3.1,1.8L496.6,87.7z"/>
	</g>
</g>
</svg>
