<svg xmlns="http://www.w3.org/2000/svg" width="204" height="288" viewBox="0 0 204 288"><g fill="#fafafa" stroke="#bdbdbd" stroke-width="1"><rect width="204" height="288" stroke="none"/><rect x="0.5" y="0.5" width="203" height="287" fill="none"/></g><g transform="translate(0 -13.576)"><text transform="translate(102 191)" fill="#bdbdbd" font-size="16" font-family="Roboto-Bold, Roboto" font-weight="700"><tspan x="-34.391" y="0">No image</tspan></text><path d="M39.2,21.736a1.379,1.379,0,0,1,.286-.823,1.5,1.5,0,0,1,.644-.537,27.952,27.952,0,0,1,4.4-1.216,25,25,0,0,1,4.686-.429,26.007,26.007,0,0,1,3.076.179,23.569,23.569,0,0,1,2.933.537,1.863,1.863,0,0,1,.787.537,1.293,1.293,0,0,1,.358.894,1.468,1.468,0,0,1-.537,1.216,1.411,1.411,0,0,1-1.324.215,17.109,17.109,0,0,0-2.54-.537,20.56,20.56,0,0,0-2.754-.179,19.643,19.643,0,0,0-7.8,1.574,1.78,1.78,0,0,1-1.61-.036A1.533,1.533,0,0,1,39.2,21.736Zm0,15.739a1.539,1.539,0,0,1,.286-.859,1.444,1.444,0,0,1,.644-.572,25.492,25.492,0,0,1,4.4-1.18,27.206,27.206,0,0,1,4.686-.393,26.006,26.006,0,0,1,3.076.179,23.57,23.57,0,0,1,2.933.537,1.863,1.863,0,0,1,.787.537,1.293,1.293,0,0,1,.358.894,1.468,1.468,0,0,1-.537,1.216,1.411,1.411,0,0,1-1.324.215,17.109,17.109,0,0,0-2.54-.537,20.56,20.56,0,0,0-2.754-.179,21.964,21.964,0,0,0-4.006.358,18.226,18.226,0,0,0-3.792,1.145,1.876,1.876,0,0,1-1.61,0A1.443,1.443,0,0,1,39.2,37.475Zm0-7.87a1.379,1.379,0,0,1,.286-.823,1.5,1.5,0,0,1,.644-.537,27.952,27.952,0,0,1,4.4-1.216,25,25,0,0,1,4.686-.429,26.006,26.006,0,0,1,3.076.179,23.57,23.57,0,0,1,2.933.537,1.863,1.863,0,0,1,.787.537,1.293,1.293,0,0,1,.358.894,1.468,1.468,0,0,1-.537,1.216,1.411,1.411,0,0,1-1.324.215,17.109,17.109,0,0,0-2.54-.537,20.56,20.56,0,0,0-2.754-.179,19.643,19.643,0,0,0-7.8,1.574A1.78,1.78,0,0,1,39.81,31,1.533,1.533,0,0,1,39.2,29.606ZM16.881,43.771a31,31,0,0,1,7.476.894,33.184,33.184,0,0,1,7.118,2.683V16.8A27.217,27.217,0,0,0,24.5,13.473a25.273,25.273,0,0,0-7.619-1.18,21.074,21.074,0,0,0-5.33.68,51.554,51.554,0,0,0-5.258,1.681V45.7a20.19,20.19,0,0,1,5.044-1.467A34.114,34.114,0,0,1,16.881,43.771Zm18.887,3.577a36,36,0,0,1,7.011-2.683,28.859,28.859,0,0,1,7.3-.894,38.319,38.319,0,0,1,5.616.429,28,28,0,0,1,4.972,1.145V14.653a21.26,21.26,0,0,0-5.151-1.789,26.327,26.327,0,0,0-5.437-.572,23.919,23.919,0,0,0-7.476,1.18A27.876,27.876,0,0,0,35.768,16.8ZM18.884,30.25ZM33.622,53a4.622,4.622,0,0,1-1.037-.107,2.028,2.028,0,0,1-.823-.393,30.172,30.172,0,0,0-7.154-3.219,26.6,26.6,0,0,0-7.727-1.145,20.6,20.6,0,0,0-5.151.644,50.5,50.5,0,0,0-5.008,1.574,3.065,3.065,0,0,1-3.184-.215A3.217,3.217,0,0,1,2,47.277V14.153a3.958,3.958,0,0,1,.5-1.967A3.418,3.418,0,0,1,4,10.79a27.656,27.656,0,0,1,6.26-2.11A32.292,32.292,0,0,1,16.881,8a31.744,31.744,0,0,1,8.764,1.216,27.964,27.964,0,0,1,7.977,3.72,27.161,27.161,0,0,1,7.834-3.72A30.736,30.736,0,0,1,50.076,8a31.778,31.778,0,0,1,6.582.68,27.774,27.774,0,0,1,6.224,2.11,3.645,3.645,0,0,1,1.538,1.4,3.752,3.752,0,0,1,.537,1.967V47.277a3.391,3.391,0,0,1-1.61,3.041,2.741,2.741,0,0,1-3.184.036,34.064,34.064,0,0,0-4.936-1.61,21.749,21.749,0,0,0-5.151-.608,25.647,25.647,0,0,0-7.583,1.145A29.181,29.181,0,0,0,35.482,52.5a2.028,2.028,0,0,1-.823.393A4.622,4.622,0,0,1,33.622,53Z" transform="translate(68.521 118.848)" fill="#bdbdbd"/></g></svg>