<?xml version="1.0" encoding="UTF-8" standalone="no"?>
<!-- Generator: Adobe Illustrator 19.2.1, SVG Export Plug-In . SVG Version: 6.00 Build 0)  -->

<svg
   xmlns:dc="http://purl.org/dc/elements/1.1/"
   xmlns:cc="http://creativecommons.org/ns#"
   xmlns:rdf="http://www.w3.org/1999/02/22-rdf-syntax-ns#"
   xmlns:svg="http://www.w3.org/2000/svg"
   xmlns="http://www.w3.org/2000/svg"
   xmlns:xlink="http://www.w3.org/1999/xlink"
   xmlns:sodipodi="http://sodipodi.sourceforge.net/DTD/sodipodi-0.dtd"
   xmlns:inkscape="http://www.inkscape.org/namespaces/inkscape"
   version="1.1"
   id="レイヤー_1"
   x="0px"
   y="0px"
   viewBox="0 0 30 18"
   enable-background="new 0 0 30 18"
   xml:space="preserve"
   sodipodi:docname="icon_reset.svg"
   inkscape:version="0.92.1 r15371"><metadata
     id="metadata132"><rdf:RDF><cc:Work
         rdf:about=""><dc:format>image/svg+xml</dc:format><dc:type
           rdf:resource="http://purl.org/dc/dcmitype/StillImage" /><dc:title></dc:title></cc:Work></rdf:RDF></metadata><defs
     id="defs130" /><sodipodi:namedview
     pagecolor="#ffffff"
     bordercolor="#666666"
     borderopacity="1"
     objecttolerance="10"
     gridtolerance="10"
     guidetolerance="10"
     inkscape:pageopacity="0"
     inkscape:pageshadow="2"
     inkscape:window-width="1920"
     inkscape:window-height="1138"
     id="namedview128"
     showgrid="false"
     inkscape:pagecheckerboard="true"
     inkscape:zoom="37.083822"
     inkscape:cx="14.745268"
     inkscape:cy="8.8406575"
     inkscape:window-x="-8"
     inkscape:window-y="-8"
     inkscape:window-maximized="1"
     inkscape:current-layer="レイヤー_1" /><g
     id="g93"
     style="fill:none"><defs
       id="defs86"><path
         id="SVGID_1_"
         d="M20.729,2.729l-2.292,2.354l-3.885-1.146l-2.276,0.75l-1.159,1l-1.007,1.729L9.91,9.208l0.108,1.208    l0.398,1.188l0.459,0.5L12.02,13l1.146,0.521L14.708,14l2.146-0.167l1.833-1.167l0.563-1.042l0.563-0.156l2.75,1.656l-1.792,2.292    l-1.333,1.125l-1.396,0.396L13.979,18H12c0,0-3.625-2.896-3.729-2.896c-0.104,0-2.146-4.271-2.146-4.271l0.042-2.771l0.5-2.854    l1.854-2.125l1.833-1.542L12.75,0H15h2l2.479,1.188L20.729,2.729z" /></defs><clipPath
       id="SVGID_2_"><use
         xlink:href="#SVGID_1_"
         overflow="visible"
         id="use88" /></clipPath><circle
       clip-path="url(#SVGID_2_)"
       fill="#FFFFFF"
       stroke="#006699"
       stroke-width="3"
       stroke-miterlimit="10"
       cx="15.006"
       cy="9.016"
       r="6.893"
       id="circle91"
       style="fill:none" /></g><polygon
     points="24.138,9.971 15.381,6.124 23.092,0.464 "
     id="polygon95"
     fill="#006699" /><g
     id="g97" /><g
     id="g99" /><g
     id="g101" /><g
     id="g103" /><g
     id="g105" /><g
     id="g107" /><g
     id="g109" /><g
     id="g111" /><g
     id="g113" /><g
     id="g115" /><g
     id="g117" /><g
     id="g119" /><g
     id="g121" /><g
     id="g123" /><g
     id="g125" /><rect
     style="fill:none;stroke-width:1.00643754;stroke-miterlimit:4;stroke-dasharray:none"
     id="rect138"
     width="10.818827"
     height="10.796893"
     x="9.6101694"
     y="3.6099575"
     ry="5.333601" /></svg>