<?xml version="1.0" encoding="utf-8"?>
<!-- Generator: Adobe Illustrator 21.0.0, SVG Export Plug-In . SVG Version: 6.00 Build 0)  -->
<svg version="1.1" id="レイヤー_1" xmlns="http://www.w3.org/2000/svg" xmlns:xlink="http://www.w3.org/1999/xlink" x="0px"
	 y="0px" viewBox="0 0 800 206" style="enable-background:new 0 0 800 206;" xml:space="preserve">
<style type="text/css">
	.st0{fill:#231815;}
	.st1{fill:#B50050;}
</style>
<g>
	<path class="st0" d="M75.6,42.2c0,0-10.1,59-10.7,62.8c-0.6-3.8-10.3-62.8-10.3-62.8H16.2v132H44c0,0-1.3-59.4-1.5-67.8
		c1.4,8.2,11.2,67.8,11.2,67.8h22.1c0,0,10.1-60,11.5-68.1c-0.2,8.3-1.7,68.1-1.7,68.1h28v-132h-0.3H75.6z M58.1,169.1
		c-1.1-6-15.9-96.5-16-97.4L42,71.4l-5.3,0.3c0,0,2.1,96.7,2.1,97.4c-0.7,0-16.8,0-17.5,0c0-0.7,0-121.2,0-121.9
		c0.7,0,28.3,0,28.9,0c0.1,0.6,12,73.2,12,73.2l5.3,0l0-0.3c0.1-0.7,11.4-67.8,12.4-72.9c0.6,0,27.9,0,28.5,0c0,0.7,0,121.2,0,121.9
		c-0.6,0-16.9,0-17.6,0c0-0.7,2.4-97.4,2.4-97.4H88c0,0-16.4,96.8-16.5,97.4C71,169.1,58.7,169.1,58.1,169.1z"/>
	<path class="st0" d="M154.8,121.4c0.7,0,29.8,0,29.8,0V90.9c0,0-29.1,0-29.8,0c0-0.6,0-17.6,0-18.2c0.7,0,30.7,0,30.7,0V42.2h-0.4
		h-59.4v132h61.3v-30.5c0,0-31.6,0-32.3,0C154.8,143.1,154.8,122.1,154.8,121.4z M182,148.9c0,0.7,0,19.6,0,20.2c-0.7,0-50.4,0-51,0
		c0-0.7,0-121.2,0-121.9c0.7,0,48.8,0,49.5,0c0,0.7,0,19.6,0,20.3c-0.6,0-30.8,0-30.8,0V96c0,0,29.2,0,29.8,0c0,0.7,0,19.7,0,20.3
		c-0.6,0-29.8,0-29.8,0v32.6C149.6,148.9,181.3,148.9,182,148.9z"/>
	<path class="st0" d="M225.9,42.2h-0.4H197v132H255v-30.5c0,0-28.5,0-29.1,0C225.9,143.1,225.9,42.2,225.9,42.2z M249.9,148.9
		c0,0.7,0,19.6,0,20.2c-0.7,0-47.2,0-47.9,0c0-0.7,0-121.2,0-121.9c0.7,0,18.1,0,18.7,0c0,0.7,0,101.6,0,101.6
		S249.3,148.9,249.9,148.9z"/>
	<path class="st0" d="M304.8,92.9l-8.5-6.3c-4.1-3.5-6.3-6.4-6.3-11.5c0-0.6,0-1.2,0.1-1.8c0.2-2.5,1-4.4,2.2-5.4
		c0.8-0.7,1.9-0.9,3.2-0.8c4.7,0.4,5.3,6.4,5.5,14.2l0.2,4H328l0.1-2.4c0.7-14.7-3-27.1-10.4-34.8c-5.7-5.9-13.4-9-22.4-9
		c-20.6,0-32.5,14.1-32.5,38.6c0,10.9,2.3,19.5,7.4,26.9c5,7.1,12,12.5,18.7,17.2c0.1,0,1.8,1.3,1.8,1.3c5.6,4.1,10.4,7.6,10.4,16
		c0,3.8-1.1,10.1-5.4,10.1c-3.2,0-7-1.3-7-11.2v-11.5h-27.2v16.2c0,16.7,8.8,34.5,33.6,34.5c21,0,33.2-14.8,33.2-40.5
		c0-14.7-2.8-24.3-9.5-32C315,100.3,310.3,96.9,304.8,92.9z M295.2,172.2c-26.5,0-28.5-22.5-28.5-29.4c0,0,0-10.4,0-11.1
		c0.6,0,16.3,0,16.9,0c0,0.6,0,6.4,0,6.4c0,13.5,6.6,16.3,12.1,16.3c6.3,0,10.5-6.1,10.5-15.3c0-10.9-6.6-15.8-12.4-20.1
		c-0.1-0.1-1.9-1.4-1.9-1.4c-6.4-4.6-13-9.6-17.5-16c-4.5-6.5-6.5-14.1-6.5-24c0-21.6,9.7-33.5,27.3-33.5c7.7,0,14,2.5,18.7,7.5
		c5.9,6.1,9.1,16,9.1,27.9c0,0,0,0.4,0,0.7c-0.7,0-16.3,0-17,0c-0.2-7.1-0.8-17.5-10.1-18.3c-2.7-0.3-5.1,0.4-7,1.9
		c-2.2,1.9-3.7,5-4,8.9c-0.8,8.4,2.5,13.1,8,17.8c0,0,0,0,8.7,6.5c5,3.6,9.7,7.1,13.2,11.1c5.7,6.6,8.2,15.2,8.2,28.6
		C323.2,152.9,318.3,172.2,295.2,172.2z"/>
	<path class="st0" d="M366.9,121.4c0.7,0,29.8,0,29.8,0V90.9c0,0-29.1,0-29.8,0c0-0.6,0-17.6,0-18.2c0.7,0,30.7,0,30.7,0V42.2h-0.3
		H338v132h61.3v-30.5c0,0-31.7,0-32.4,0C366.9,143.1,366.9,122.1,366.9,121.4z M394.2,148.9c0,0.7,0,19.6,0,20.2
		c-0.7,0-50.4,0-51.1,0c0-0.7,0-121.2,0-121.9c0.7,0,48.8,0,49.5,0c0,0.7,0,19.6,0,20.3c-0.7,0-30.7,0-30.7,0V96c0,0,29.1,0,29.7,0
		c0,0.7,0,19.7,0,20.3c-0.7,0-29.7,0-29.7,0v32.6C361.8,148.9,393.5,148.9,394.2,148.9z"/>
	<path class="st0" d="M450.4,133.6c0,11-1.9,15.7-6.2,15.7c-2.9,0-5.9-0.7-5.9-8.8l0.1-62.8c0-4.8,0.7-7.9,2.2-9.3
		c1-0.9,2.4-1.3,4.5-1.3c3,0,5,5.4,5,13.8v10.7h7.5h5.2h16.4V78.4c0-26.1-11.8-39.3-35.1-39.3c-23.2,0-34.4,14.1-34.4,43v52.2
		c0,28.9,10.8,43,33,43c23.9,0,37-14.1,37-39.7v-18.2h-29V133.6z M455.5,133.6c0,0,0-8.3,0-8.9c0.6,0,18,0,18.7,0
		c0,0.7,0,12.9,0,12.9c0,15.8-5.5,34.6-31.9,34.6c-19.3,0-27.9-11.7-27.9-37.9V82.1c0-26.2,9.1-37.9,29.3-37.9
		c20.2,0,30,11.1,30,34.2c0,0,0,7.4,0,8.1c-0.4,0-6.2,0-11.2,0c-0.1,0-0.3,0-0.4,0c-1.8,0-3.5,0-4.8,0c-1.3,0-2.2,0-2.3,0
		c0-0.6,0-5.6,0-5.6c0-11.9-3.8-19-10.1-19c-3.6,0-6.2,0.9-8.1,2.8c-3.2,3.1-3.7,8.3-3.7,13l-0.1,62.8c0,11.5,6,13.9,11.1,13.9
		C455.5,154.5,455.5,139.8,455.5,133.6z"/>
</g>
<g>
	<path class="st0" d="M634.7,187.1c0-1.6,1.2-3.6,2.8-3.6c0.6,0,1.1,0.4,1.6,1c1.9,2.1,3.6,3.3,5.6,3.3c1.6,0,3-1.1,3-2.7
		c0-2.4-2.3-5-3.7-6.8c-2.1-2.7-3.1-5.2-3.1-7c0-3.1,1.6-5.6,4.3-7.9c2.1-1.8,4.7-2.8,6.7-2.8c3.4,0,5.9,2.5,5.9,5.1
		c0,2-1.6,3.1-2.4,3.1c-0.7,0-1.2-0.3-1.6-0.9c-2.1-2.4-3.3-3.2-5.2-3.2c-1.6,0-2.5,1.3-2.5,2.3c0,2.4,2.4,4.6,3.8,6.4
		c2.1,2.9,3.3,5,3.2,7.8c-0.1,2.5-1.3,5.3-4.1,7.6c-2.2,1.9-5.2,3-8.3,3C637.5,191.9,634.7,189.7,634.7,187.1z"/>
	<path class="st0" d="M658.8,183.9c0-5.6,3.5-13.8,10.5-19.2c4.1-3,7.5-4,10.4-4c3.6,0,5.9,2.7,5.9,5.1c0,6.7-10.1,10.3-18.3,12.5
		c-0.4,1-0.7,2.7-0.7,4.8c0,2.7,1.2,4.2,3.3,4.2c2.7,0,5.3-1.6,8.7-4.7c0.7,0,1.3,0.7,1.2,1.5c-4,5.6-9.2,7.8-14.1,7.8
		C660.9,191.9,658.8,187.9,658.8,183.9z M673.2,166.3c-2.7,2.9-4.5,6.8-5.3,9.5c3.8-1.3,6.1-2.6,8.4-5c1.9-1.9,2.7-4.4,2.7-5.6
		c0-1-0.4-1.8-1.4-1.8C676.6,163.4,675.1,164.3,673.2,166.3z"/>
	<path class="st0" d="M700,168.4l-2.6,7.6h0.4c2.2-4.1,4.7-8.3,6.6-10.6c2.4-3,4.4-4.7,6.6-4.7c2.4,0,3.4,2.1,3.4,4.1
		c0,2.3-1.7,5.9-4,5.9c-0.9,0-1.2-0.8-1.5-2.1c-0.3-1.5-0.7-2.2-1.5-2.2c-0.9,0-2.6,1.6-5,5.7c-2.7,4.4-5.8,11.6-8.9,18.6
		c-0.4,0.9-1.3,1.2-2.5,1.2c-1.5,0-4.1-0.4-3.4-2.5c1.6-4.8,5.3-15.1,7.4-21.8c0.4-1.2,0.3-1.9-0.4-1.9c-1.6,0-4,2.1-5.8,4.1
		c-0.7,0-1.3-0.6-1.2-1.5c1.9-3.3,5.6-7.6,10.2-7.6C701.9,160.7,701.2,165,700,168.4z"/>
	<path class="st0" d="M723,185.3c-0.3,0.7-0.4,1.4,0.2,1.4c1.2,0,5.3-2.8,7.4-5.1c0.8,0,1.4,0.7,1.3,1.5c-2.1,3.1-9.2,8.8-14.8,8.8
		c-1.3,0-2.4-1.6-2.4-2.3c0-0.8,0.1-1.6,0.7-2.9l8.2-19.5c0.3-0.7,0.3-1.2-0.1-1.2c-0.9,0-4,1.9-6.4,4c-0.7,0-1.3-0.9-1-1.5
		c4-4.7,10.3-7.9,13.6-7.9c1,0,2.2,1,2.4,2.1c0.1,0.6-0.1,1.6-0.8,3.2L723,185.3z M726.6,150.6c0-2.4,1.7-5.1,4.8-5.1
		c2.1,0,3.4,1.2,3.4,3.5c0,2.7-2,5.1-4.8,5.1C727.8,154.1,726.6,152.5,726.6,150.6z"/>
	<path class="st0" d="M735.2,183.9c0-5.6,3.5-13.8,10.5-19.2c4.1-3,7.5-4,10.4-4c3.6,0,5.9,2.7,5.9,5.1c0,6.7-10.1,10.3-18.3,12.5
		c-0.4,1-0.7,2.7-0.7,4.8c0,2.7,1.2,4.2,3.3,4.2c2.7,0,5.3-1.6,8.7-4.7c0.7,0,1.3,0.7,1.2,1.5c-4,5.6-9.2,7.8-14.1,7.8
		C737.3,191.9,735.2,187.9,735.2,183.9z M749.7,166.3c-2.7,2.9-4.5,6.8-5.3,9.5c3.8-1.3,6.1-2.6,8.4-5c1.9-1.9,2.7-4.4,2.7-5.6
		c0-1-0.4-1.8-1.4-1.8C753.1,163.4,751.5,164.3,749.7,166.3z"/>
	<path class="st0" d="M760,187.1c0-1.6,1.2-3.6,2.8-3.6c0.6,0,1.1,0.4,1.6,1c1.9,2.1,3.6,3.3,5.6,3.3c1.6,0,3-1.1,3-2.7
		c0-2.4-2.3-5-3.7-6.8c-2.1-2.7-3.1-5.2-3.1-7c0-3.1,1.6-5.6,4.3-7.9c2.1-1.8,4.7-2.8,6.7-2.8c3.4,0,5.9,2.5,5.9,5.1
		c0,2-1.6,3.1-2.4,3.1c-0.7,0-1.2-0.3-1.6-0.9c-2.1-2.4-3.3-3.2-5.2-3.2c-1.6,0-2.5,1.3-2.5,2.3c0,2.4,2.4,4.6,3.8,6.4
		c2.1,2.9,3.3,5,3.2,7.8c-0.1,2.5-1.3,5.3-4.1,7.6c-2.2,1.9-5.2,3-8.3,3C762.8,191.9,760,189.7,760,187.1z"/>
</g>
<g>
	<path class="st1" d="M518.6,190.3c-13,0-23.4,0.3-35.1,0.8c-2.2-1.4-2.2-6.8,0.5-7.9l7.6-1.1c12.2-1.6,14.4-4.6,22.8-31L546.6,50
		c7.6-23.7,7.6-28-6.3-30.7l-7.1-1.4c-2.2-1.6-1.6-6.8,1.6-7.9c13.1,0.5,24.5,0.8,36.7,0.8c12.2,0,22.6-0.3,36.7-0.8
		c2.2,1.6,2.2,6.8-0.5,7.9l-7.6,1.1c-13.3,1.9-15.2,4.6-23.4,31l-30.2,95.7c-4.4,13.6-6.3,22-4.1,27.2c2.2,5.2,7.9,6.8,24.7,6.8
		c27.5,0,38.1-1.6,57.4-29.6c3.3-1.6,7.1-1.1,8.7,1.6c-3.8,11.4-13.6,32.1-19.3,39.4c-9-0.3-19.8-0.5-31-0.5
		c-11.1-0.3-22.6-0.3-32.9-0.3H518.6z"/>
</g>
</svg>
