<svg xmlns="http://www.w3.org/2000/svg" width="204" height="288" viewBox="0 0 204 288"><g transform="translate(6517 11460)"><rect width="204" height="288" transform="translate(-6517 -11460)" fill="#fafafa"/><path d="M1,1V287H203V1H1M0,0H204V288H0Z" transform="translate(-6517 -11460)" fill="#bdbdbd"/><text transform="translate(-6415 -11278.16)" fill="#bdbdbd" font-size="16" font-family="Roboto-Bold, Roboto" font-weight="700"><tspan x="-12.949" y="0">File</tspan></text><path d="M16.5,2.5H49.435L66.646,21.441V62.979H16.5Zm31.607,3H19.5V59.979H63.646V22.6Z" transform="translate(-6456.083 -11362)" fill="#bdbdbd"/><path d="M-6392.435-11654.623h-17.357v-19.127a1.5,1.5,0,0,1,1.5-1.5,1.5,1.5,0,0,1,1.5,1.5v16.127h14.357a1.5,1.5,0,0,1,1.5,1.5A1.5,1.5,0,0,1-6392.435-11654.623Z" transform="translate(1.247 316.334)" fill="#bdbdbd"/><path d="M-6393.292-11654.623h-15a1.5,1.5,0,0,1-1.5-1.5,1.5,1.5,0,0,1,1.5-1.5h15a1.5,1.5,0,0,1,1.5,1.5A1.5,1.5,0,0,1-6393.292-11654.623Z" transform="translate(-22.208 313.334)" fill="#bdbdbd"/><path d="M-6378.289-11654.623h-30a1.5,1.5,0,0,1-1.5-1.5,1.5,1.5,0,0,1,1.5-1.5h30a1.5,1.5,0,0,1,1.5,1.5A1.5,1.5,0,0,1-6378.289-11654.623Z" transform="translate(-22.209 323.334)" fill="#bdbdbd"/><path d="M-6383.29-11654.623h-25a1.5,1.5,0,0,1-1.5-1.5,1.5,1.5,0,0,1,1.5-1.5h25a1.5,1.5,0,0,1,1.5,1.5A1.5,1.5,0,0,1-6383.29-11654.623Z" transform="translate(-22.209 333.334)" fill="#bdbdbd"/><path d="M-6392.292-11654.623h-16a1.5,1.5,0,0,1-1.5-1.5,1.5,1.5,0,0,1,1.5-1.5h16a1.5,1.5,0,0,1,1.5,1.5A1.5,1.5,0,0,1-6392.292-11654.623Z" transform="translate(-22.209 343.334)" fill="#bdbdbd"/></g></svg>