<svg xmlns="http://www.w3.org/2000/svg" width="204" height="288" viewBox="0 0 204 288"><g transform="translate(6517 11778)"><rect width="204" height="288" transform="translate(-6517 -11778)" fill="#fafafa"/><path d="M1,1V287H203V1H1M0,0H204V288H0Z" transform="translate(-6517 -11778)" fill="#bdbdbd"/><g transform="translate(0 -1.583)"><text transform="translate(-6415 -11594.576)" fill="#bdbdbd" font-size="16" font-family="Roboto-Bold, Roboto" font-weight="700"><tspan x="-23.477" y="0">No file</tspan></text><path d="M18,2.5h.006a1.5,1.5,0,0,1,0,3H18a1.5,1.5,0,1,1,0-3Zm5.006,0h.006a1.5,1.5,0,0,1,0,3h-.006a1.5,1.5,0,1,1,0-3Zm5.006,0h.006a1.5,1.5,0,0,1,0,3h-.006a1.5,1.5,0,1,1,0-3Zm5.006,0h.006a1.5,1.5,0,0,1,0,3h-.006a1.5,1.5,0,0,1,0-3Zm5.006,0h.005a1.5,1.5,0,0,1,0,3h-.005a1.5,1.5,0,1,1,0-3Zm5.005,0h.006a1.5,1.5,0,0,1,0,3h-.006a1.5,1.5,0,1,1,0-3Zm5.006,0h.006a1.5,1.5,0,0,1,0,3h-.006a1.5,1.5,0,1,1,0-3ZM51.64,5.658a1.5,1.5,0,0,1,1.111.491l0,0a1.5,1.5,0,1,1-2.22,2.018l0,0a1.5,1.5,0,0,1,1.11-2.509ZM18,6.484a1.5,1.5,0,0,1,1.5,1.5v.006a1.5,1.5,0,0,1-3,0V7.984A1.5,1.5,0,0,1,18,6.484ZM55.007,9.363a1.5,1.5,0,0,1,1.111.491l0,0a1.5,1.5,0,0,1-2.22,2.018l0,0a1.5,1.5,0,0,1,1.11-2.509ZM18,11.489a1.5,1.5,0,0,1,1.5,1.5v.005a1.5,1.5,0,1,1-3,0v-.005A1.5,1.5,0,0,1,18,11.489Zm40.373,1.579a1.5,1.5,0,0,1,1.111.491l0,0a1.5,1.5,0,0,1-2.22,2.018l0,0a1.5,1.5,0,0,1,1.11-2.509ZM18,16.495a1.5,1.5,0,0,1,1.5,1.5V18a1.5,1.5,0,1,1-3,0v-.006A1.5,1.5,0,0,1,18,16.495Zm43.739.278a1.5,1.5,0,0,1,1.111.491l0,0a1.5,1.5,0,1,1-2.22,2.018l0,0a1.5,1.5,0,0,1,1.11-2.509Zm3.366,3.7a1.5,1.5,0,0,1,1.111.491l0,0A1.5,1.5,0,0,1,64,22.989l0,0a1.5,1.5,0,0,1,1.11-2.509ZM18,21.5A1.5,1.5,0,0,1,19.5,23v.006a1.5,1.5,0,1,1-3,0V23A1.5,1.5,0,0,1,18,21.5Zm47.146,3.967a1.5,1.5,0,0,1,1.5,1.5v.006a1.5,1.5,0,0,1-3,0v-.006A1.5,1.5,0,0,1,65.146,25.467ZM18,26.506a1.5,1.5,0,0,1,1.5,1.5v.006a1.5,1.5,0,1,1-3,0v-.006A1.5,1.5,0,0,1,18,26.506Zm47.146,3.967a1.5,1.5,0,0,1,1.5,1.5v.006a1.5,1.5,0,0,1-3,0v-.006A1.5,1.5,0,0,1,65.146,30.472ZM18,31.511a1.5,1.5,0,0,1,1.5,1.5v.006a1.5,1.5,0,0,1-3,0v-.006A1.5,1.5,0,0,1,18,31.511Zm47.146,3.967a1.5,1.5,0,0,1,1.5,1.5v.006a1.5,1.5,0,0,1-3,0v-.006A1.5,1.5,0,0,1,65.146,35.478ZM18,36.517a1.5,1.5,0,0,1,1.5,1.5v.006a1.5,1.5,0,0,1-3,0v-.006A1.5,1.5,0,0,1,18,36.517Zm47.146,3.967a1.5,1.5,0,0,1,1.5,1.5v.006a1.5,1.5,0,0,1-3,0v-.006A1.5,1.5,0,0,1,65.146,40.483ZM18,41.522a1.5,1.5,0,0,1,1.5,1.5v.005a1.5,1.5,0,0,1-3,0v-.005A1.5,1.5,0,0,1,18,41.522Zm47.146,3.967a1.5,1.5,0,0,1,1.5,1.5v.006a1.5,1.5,0,0,1-3,0v-.006A1.5,1.5,0,0,1,65.146,45.489ZM18,46.528a1.5,1.5,0,0,1,1.5,1.5v.006a1.5,1.5,0,1,1-3,0v-.006A1.5,1.5,0,0,1,18,46.528Zm47.146,3.967a1.5,1.5,0,0,1,1.5,1.5V52a1.5,1.5,0,0,1-3,0v-.005A1.5,1.5,0,0,1,65.146,50.494ZM18,51.533a1.5,1.5,0,0,1,1.5,1.5v.006a1.5,1.5,0,0,1-3,0v-.006A1.5,1.5,0,0,1,18,51.533ZM65.146,55.5a1.5,1.5,0,0,1,1.5,1.5v.006a1.5,1.5,0,0,1-3,0V57A1.5,1.5,0,0,1,65.146,55.5ZM18,56.539a1.5,1.5,0,0,1,1.5,1.5v.005a1.5,1.5,0,0,1-3,0v-.005A1.5,1.5,0,0,1,18,56.539Zm1.565,3.441h.006a1.5,1.5,0,0,1,0,3h-.006a1.5,1.5,0,1,1,0-3Zm5.006,0h.006a1.5,1.5,0,1,1,0,3H24.57a1.5,1.5,0,1,1,0-3Zm5.006,0h.006a1.5,1.5,0,1,1,0,3h-.006a1.5,1.5,0,0,1,0-3Zm5.006,0h.006a1.5,1.5,0,0,1,0,3h-.006a1.5,1.5,0,0,1,0-3Zm5.006,0h.005a1.5,1.5,0,0,1,0,3h-.005a1.5,1.5,0,0,1,0-3Zm5.005,0H44.6a1.5,1.5,0,0,1,0,3h-.006a1.5,1.5,0,0,1,0-3Zm5.006,0H49.6a1.5,1.5,0,0,1,0,3H49.6a1.5,1.5,0,0,1,0-3Zm5.006,0h.006a1.5,1.5,0,0,1,0,3H54.6a1.5,1.5,0,0,1,0-3Zm5.006,0h.005a1.5,1.5,0,0,1,0,3h-.005a1.5,1.5,0,0,1,0-3Zm5.005,0h.006a1.5,1.5,0,0,1,0,3h-.006a1.5,1.5,0,0,1,0-3Z" transform="translate(-6456.083 -11678.417)" fill="#bdbdbd"/><path d="M-6397.06-11654.623h-.005a1.5,1.5,0,0,1-1.5-1.5,1.5,1.5,0,0,1,1.5-1.5h.005a1.5,1.5,0,0,1,1.5,1.5A1.5,1.5,0,0,1-6397.06-11654.623Zm-6.005,0h-.005a1.5,1.5,0,0,1-1.5-1.5,1.5,1.5,0,0,1,1.5-1.5h.005a1.5,1.5,0,0,1,1.5,1.5A1.5,1.5,0,0,1-6403.065-11654.623Zm-5.227-.778a1.5,1.5,0,0,1-1.5-1.5v-.006a1.5,1.5,0,0,1,1.5-1.5,1.5,1.5,0,0,1,1.5,1.5v.006A1.5,1.5,0,0,1-6408.292-11655.4Zm0-6.006a1.5,1.5,0,0,1-1.5-1.5v0a1.5,1.5,0,0,1,1.5-1.5,1.5,1.5,0,0,1,1.5,1.5v0A1.5,1.5,0,0,1-6408.292-11661.407Zm0-6a1.5,1.5,0,0,1-1.5-1.5v-.006a1.5,1.5,0,0,1,1.5-1.5,1.5,1.5,0,0,1,1.5,1.5v.006A1.5,1.5,0,0,1-6408.292-11667.412Z" transform="translate(1.247 -0.082)" fill="#bdbdbd"/></g></g></svg>