<svg xmlns="http://www.w3.org/2000/svg" width="204" height="288" viewBox="0 0 204 288"><g transform="translate(6517 12096)"><rect width="204" height="288" transform="translate(-6517 -12096)" fill="#fafafa"/><path d="M1,1V287H203V1H1M0,0H204V288H0Z" transform="translate(-6517 -12096)" fill="#bdbdbd"/><g transform="translate(-6517 -12101.576)"><text transform="translate(102 189)" fill="#bdbdbd" font-size="16" font-family="Roboto-Bold, Roboto" font-weight="700"><tspan x="-14.742" y="0">PDF</tspan></text><g transform="translate(6726 12117.576)"><path d="M65.146,24.021V61.479H18V4H45.771Z" transform="translate(-6665.083 -12012.417)" fill="#bdbdbd"/><path d="M23,60.021V9H46.25V24.423L63.687,27.1V60.021Z" transform="translate(-6666.854 -12014.188)" fill="#fff"/><path d="M55.372,47.273a36.342,36.342,0,0,0-7.422.82,33.673,33.673,0,0,1-4.567-5.909c3.488-10.669,1.116-13.645-2.01-13.593-2.454.041-3.637,2.669-3.316,5.543.162,1.447,1.434,4.473,2.984,7.341A83.7,83.7,0,0,1,37,51.086a37.489,37.489,0,0,0-4.7,1.86c-5.813,2.842-6.221,6.507-4.973,8.037,2.364,2.906,7.384-.018,12.182-9,3.371-1.026,7.675-2.091,8.077-2.1a.64.64,0,0,1,.184.036c2.506,2.149,5.465,4.609,7.871,4.9,3.482.422,5.416-2.146,5.253-3.719S59.787,47.465,55.372,47.273ZM33.607,57.245c-1.4,1.737-3.691,3.418-4.521,2.886s-1.79-1.79.821-3.921a16.727,16.727,0,0,1,5.331-2.971c.544-.214.683-.012.688.263a13.61,13.61,0,0,1-2.321,3.744Zm5.881-23.136c-.165-1.713.147-3.362,1.575-3.591S43.2,31.92,42.7,34.6s-.745,4.47-1.013,4.683-.551-.473-.551-.473a14.235,14.235,0,0,1-1.649-4.7ZM40.3,50.021c.728-1.248,2.552-6.095,2.552-6.095.421.748,3.686,4.529,3.686,4.529s-3.533.726-6.24,1.566Zm14.885,2.131c-2.047-.237-5.562-2.648-5.562-2.648-.48-.2,3.793-.854,5.439-.775,2.115.1,2.879.982,2.894,1.873s-.721,1.786-2.773,1.547Z" transform="translate(-6668.185 -12021.126)" fill="#bdbdbd"/><rect width="34.875" height="14.208" transform="translate(-6657.417 -12001.313)" fill="#bdbdbd"/><rect width="28.417" height="7.75" transform="translate(-6654.188 -11998.083)" fill="#fff"/><path d="M76.693,25.687,64,12.513V23.742Z" transform="translate(-6681.375 -12015.432)" fill="#fff"/><rect width="62" height="62" transform="translate(-6660 -12011)" fill="none"/></g></g></g></svg>