<svg xmlns="http://www.w3.org/2000/svg" xmlns:xlink="http://www.w3.org/1999/xlink" viewBox="0 0 97.44 89.87"><defs><style>.cls-1,.cls-3,.cls-4{fill:none;}.cls-2{clip-path:url(#clip-path);}.cls-3{stroke:#b5b5b6;stroke-linecap:round;stroke-width:3px;}.cls-4{stroke:#231815;stroke-miterlimit:10;stroke-width:0.4px;}.cls-5{fill:#231815;}</style><clipPath id="clip-path" transform="translate(-2.4 -4.9)"><rect class="cls-1" x="27.62" y="5.1" width="70.62" height="75"/></clipPath></defs><g id="illust"><g class="cls-2"><line class="cls-3" x1="57.04" y1="16.58" x2="95.94" y2="42.5"/><line class="cls-3" x1="25.19" y1="16.58" x2="57.04" y2="16.58"/><line class="cls-3" x1="25.19" y1="56.57" x2="95.94" y2="56.57"/></g><line class="cls-4" x1="95.84" y1="8.67" x2="25.22" y2="8.67"/><line class="cls-4" x1="95.84" y1="41.93" x2="25.22" y2="41.93"/><line class="cls-4" x1="60.53" y1="22.85" x2="60.53" y2="0.2"/><line class="cls-4" x1="60.53" y1="59.1" x2="60.53" y2="37.7"/><line class="cls-4" x1="60.53" y1="75.2" x2="60.53" y2="65.22"/><rect class="cls-4" x="25.22" y="0.2" width="70.62" height="75"/></g><g id="japanese"><path class="cls-5" d="M32.21,67.18l.57.14a1.92,1.92,0,0,1-.64,1.07,1.81,1.81,0,0,1-1.14.36,2,2,0,0,1-1.13-.28,1.75,1.75,0,0,1-.66-.82A2.91,2.91,0,0,1,29,66.5a2.55,2.55,0,0,1,.25-1.17,1.85,1.85,0,0,1,.73-.76,2.17,2.17,0,0,1,1-.26,1.79,1.79,0,0,1,1.09.33,1.77,1.77,0,0,1,.61.92l-.56.14a1.35,1.35,0,0,0-.43-.69A1.18,1.18,0,0,0,31,64.8a1.4,1.4,0,0,0-.83.24,1.27,1.27,0,0,0-.46.63,2.74,2.74,0,0,0,0,1.79,1.22,1.22,0,0,0,.5.61,1.43,1.43,0,0,0,.73.2,1.21,1.21,0,0,0,.81-.28A1.34,1.34,0,0,0,32.21,67.18Z" transform="translate(-2.4 -4.9)"/><path class="cls-5" d="M33.22,67.13a1.59,1.59,0,0,1,.48-1.28,1.45,1.45,0,0,1,1-.35,1.39,1.39,0,0,1,1,.42,1.6,1.6,0,0,1,.4,1.16A2.09,2.09,0,0,1,36,68a1.26,1.26,0,0,1-.52.53,1.49,1.49,0,0,1-.75.19,1.4,1.4,0,0,1-1.06-.42A1.66,1.66,0,0,1,33.22,67.13Zm.54,0A1.35,1.35,0,0,0,34,68a.84.84,0,0,0,.66.3.82.82,0,0,0,.65-.3,1.37,1.37,0,0,0,.26-.91,1.32,1.32,0,0,0-.26-.88.88.88,0,0,0-1.31,0A1.36,1.36,0,0,0,33.76,67.13Z" transform="translate(-2.4 -4.9)"/><path class="cls-5" d="M36.75,68.68V65.57h.48V66a1.12,1.12,0,0,1,1-.51,1.22,1.22,0,0,1,.51.1.86.86,0,0,1,.36.27,1,1,0,0,1,.16.39,2.81,2.81,0,0,1,0,.51v1.91h-.53V66.79a1.4,1.4,0,0,0-.06-.48.5.5,0,0,0-.22-.26.69.69,0,0,0-.36-.09.89.89,0,0,0-.59.21,1.06,1.06,0,0,0-.24.81v1.7Z" transform="translate(-2.4 -4.9)"/><path class="cls-5" d="M41.24,68.21l.08.47a2,2,0,0,1-.4,0,1,1,0,0,1-.45-.09.51.51,0,0,1-.22-.24,2,2,0,0,1-.06-.62V66H39.8v-.41h.39V64.8l.52-.32v1.09h.53V66h-.53V67.8a.85.85,0,0,0,0,.29.22.22,0,0,0,.09.1.3.3,0,0,0,.18,0Z" transform="translate(-2.4 -4.9)"/><path class="cls-5" d="M41.76,65v-.6h.53V65Zm0,3.69V65.57h.53v3.11Z" transform="translate(-2.4 -4.9)"/><path class="cls-5" d="M43.09,68.68V65.57h.47V66a1.12,1.12,0,0,1,1-.51,1.27,1.27,0,0,1,.52.1.76.76,0,0,1,.35.27,1,1,0,0,1,.17.39,2.81,2.81,0,0,1,0,.51v1.91h-.53V66.79a1.4,1.4,0,0,0-.06-.48.55.55,0,0,0-.22-.26.72.72,0,0,0-.37-.09.86.86,0,0,0-.58.21,1.06,1.06,0,0,0-.24.81v1.7Z" transform="translate(-2.4 -4.9)"/><path class="cls-5" d="M48.46,68.68v-.46a1.12,1.12,0,0,1-1,.53,1.27,1.27,0,0,1-.52-.1.82.82,0,0,1-.35-.27.92.92,0,0,1-.16-.39,2,2,0,0,1,0-.49V65.57h.53V67.3a3.2,3.2,0,0,0,0,.55.63.63,0,0,0,.21.33.65.65,0,0,0,.4.12.89.89,0,0,0,.45-.12.62.62,0,0,0,.29-.33,1.63,1.63,0,0,0,.09-.61V65.57h.53v3.11Z" transform="translate(-2.4 -4.9)"/><path class="cls-5" d="M49.57,67.13a1.59,1.59,0,0,1,.48-1.28,1.43,1.43,0,0,1,1-.35,1.39,1.39,0,0,1,1,.42,1.57,1.57,0,0,1,.41,1.16,2.09,2.09,0,0,1-.18,1,1.26,1.26,0,0,1-.52.53,1.49,1.49,0,0,1-.75.19A1.4,1.4,0,0,1,50,68.33,1.66,1.66,0,0,1,49.57,67.13Zm.54,0a1.35,1.35,0,0,0,.26.89.83.83,0,0,0,.66.3.83.83,0,0,0,.65-.3,1.37,1.37,0,0,0,.26-.91,1.32,1.32,0,0,0-.26-.88.86.86,0,0,0-.65-.29.85.85,0,0,0-.66.29A1.36,1.36,0,0,0,50.11,67.13Z" transform="translate(-2.4 -4.9)"/><path class="cls-5" d="M55.14,68.68v-.46a1.12,1.12,0,0,1-1,.53,1.25,1.25,0,0,1-.51-.1.86.86,0,0,1-.36-.27,1.07,1.07,0,0,1-.16-.39,2.85,2.85,0,0,1,0-.49V65.57h.53V67.3a3.2,3.2,0,0,0,0,.55.53.53,0,0,0,.21.33.65.65,0,0,0,.4.12.86.86,0,0,0,.44-.12.68.68,0,0,0,.3-.33,1.91,1.91,0,0,0,.08-.61V65.57h.53v3.11Z" transform="translate(-2.4 -4.9)"/><path class="cls-5" d="M56.23,67.75l.52-.08a.74.74,0,0,0,.24.48.87.87,0,0,0,.56.17.83.83,0,0,0,.54-.15.44.44,0,0,0,.18-.35.31.31,0,0,0-.16-.28,3.13,3.13,0,0,0-.54-.18,4.55,4.55,0,0,1-.8-.25.77.77,0,0,1-.34-.3.73.73,0,0,1-.12-.41.87.87,0,0,1,.1-.39.73.73,0,0,1,.26-.29,1.27,1.27,0,0,1,.33-.16,1.76,1.76,0,0,1,.46-.06,1.79,1.79,0,0,1,.64.11.85.85,0,0,1,.41.28,1,1,0,0,1,.18.48l-.51.07a.6.6,0,0,0-.21-.37.73.73,0,0,0-.47-.14.84.84,0,0,0-.52.12.37.37,0,0,0-.16.28.28.28,0,0,0,.07.19.45.45,0,0,0,.2.14l.47.13a7.39,7.39,0,0,1,.78.25.78.78,0,0,1,.34.28.73.73,0,0,1,.13.45.88.88,0,0,1-.15.49,1,1,0,0,1-.45.36,1.51,1.51,0,0,1-.65.13,1.45,1.45,0,0,1-.93-.25A1.15,1.15,0,0,1,56.23,67.75Z" transform="translate(-2.4 -4.9)"/><path class="cls-5" d="M61.1,68.68V65.57h.47V66a1.27,1.27,0,0,1,.34-.43.58.58,0,0,1,.34-.11,1.09,1.09,0,0,1,.54.17l-.18.49a.74.74,0,0,0-.39-.12.49.49,0,0,0-.31.11.56.56,0,0,0-.2.29,2,2,0,0,0-.09.61v1.63Z" transform="translate(-2.4 -4.9)"/><path class="cls-5" d="M65.14,68.68v-.46a1.12,1.12,0,0,1-1,.53,1.25,1.25,0,0,1-.51-.1.86.86,0,0,1-.36-.27,1.07,1.07,0,0,1-.16-.39,2.85,2.85,0,0,1,0-.49V65.57h.53V67.3a3.2,3.2,0,0,0,0,.55.53.53,0,0,0,.21.33.65.65,0,0,0,.4.12.83.83,0,0,0,.44-.12.68.68,0,0,0,.3-.33,1.66,1.66,0,0,0,.08-.61V65.57h.53v3.11Z" transform="translate(-2.4 -4.9)"/><path class="cls-5" d="M66.44,68.68V65.57h.47V66a1.12,1.12,0,0,1,1-.51,1.27,1.27,0,0,1,.52.1.76.76,0,0,1,.35.27,1,1,0,0,1,.17.39,2.81,2.81,0,0,1,0,.51v1.91h-.53V66.79a1.4,1.4,0,0,0-.06-.48.55.55,0,0,0-.22-.26.75.75,0,0,0-.37-.09.86.86,0,0,0-.58.21A1.06,1.06,0,0,0,67,67v1.7Z" transform="translate(-2.4 -4.9)"/><path class="cls-5" d="M69.78,68.68V65.57h.47V66a1.12,1.12,0,0,1,1-.51,1.27,1.27,0,0,1,.52.1.89.89,0,0,1,.35.27,1,1,0,0,1,.16.39,2.81,2.81,0,0,1,0,.51v1.91h-.52V66.79a1.15,1.15,0,0,0-.07-.48.53.53,0,0,0-.21-.26.75.75,0,0,0-.37-.09.84.84,0,0,0-.58.21,1,1,0,0,0-.25.81v1.7Z" transform="translate(-2.4 -4.9)"/><path class="cls-5" d="M73.12,65v-.6h.52V65Zm0,3.69V65.57h.52v3.11Z" transform="translate(-2.4 -4.9)"/><path class="cls-5" d="M74.45,68.68V65.57h.47V66a1.12,1.12,0,0,1,1-.51,1.27,1.27,0,0,1,.52.1.89.89,0,0,1,.35.27,1,1,0,0,1,.16.39,2.81,2.81,0,0,1,0,.51v1.91h-.52V66.79a1.15,1.15,0,0,0-.07-.48.53.53,0,0,0-.21-.26A.75.75,0,0,0,75.8,66a.84.84,0,0,0-.58.21A1,1,0,0,0,75,67v1.7Z" transform="translate(-2.4 -4.9)"/><path class="cls-5" d="M77.69,68.94l.51.08a.47.47,0,0,0,.18.34.86.86,0,0,0,.53.15.92.92,0,0,0,.57-.15.74.74,0,0,0,.27-.41,3.28,3.28,0,0,0,0-.68,1.07,1.07,0,0,1-.87.41,1.18,1.18,0,0,1-1-.46,1.81,1.81,0,0,1-.35-1.11,2,2,0,0,1,.16-.82,1.24,1.24,0,0,1,.47-.58,1.22,1.22,0,0,1,.72-.21,1.13,1.13,0,0,1,.91.45v-.38h.48v2.69a2.53,2.53,0,0,1-.15,1,1.06,1.06,0,0,1-.46.48,1.62,1.62,0,0,1-.79.17,1.46,1.46,0,0,1-.9-.25A.82.82,0,0,1,77.69,68.94Zm.43-1.87a1.28,1.28,0,0,0,.25.89.78.78,0,0,0,1.21,0,1.24,1.24,0,0,0,.25-.87,1.26,1.26,0,0,0-.25-.86.77.77,0,0,0-.61-.29.75.75,0,0,0-.6.28A1.25,1.25,0,0,0,78.12,67.07Z" transform="translate(-2.4 -4.9)"/><path class="cls-5" d="M82.78,68.68V65.57h.47V66a1.41,1.41,0,0,1,.34-.43.6.6,0,0,1,.34-.11,1,1,0,0,1,.54.17l-.18.49A.74.74,0,0,0,83.9,66a.51.51,0,0,0-.31.11.5.5,0,0,0-.19.29,2,2,0,0,0-.09.61v1.63Z" transform="translate(-2.4 -4.9)"/><path class="cls-5" d="M86.81,68.3a2.05,2.05,0,0,1-.56.35,1.57,1.57,0,0,1-.58.1,1.12,1.12,0,0,1-.79-.25.84.84,0,0,1-.27-.64.87.87,0,0,1,.1-.42,1,1,0,0,1,.27-.3,1.19,1.19,0,0,1,.38-.17,2.61,2.61,0,0,1,.47-.08,4.72,4.72,0,0,0,.94-.18v-.14a.55.55,0,0,0-.15-.45.86.86,0,0,0-.6-.18.93.93,0,0,0-.55.13.83.83,0,0,0-.26.46l-.51-.07a1.21,1.21,0,0,1,.23-.54,1,1,0,0,1,.46-.31,2.2,2.2,0,0,1,.71-.11,2,2,0,0,1,.65.09.94.94,0,0,1,.36.24.76.76,0,0,1,.17.36,4.64,4.64,0,0,1,0,.48v.71a5.84,5.84,0,0,0,0,.93,1,1,0,0,0,.13.37h-.55A1.41,1.41,0,0,1,86.81,68.3Zm0-1.18a4.07,4.07,0,0,1-.86.2,2.57,2.57,0,0,0-.46.1.46.46,0,0,0-.21.18.41.41,0,0,0-.07.25.44.44,0,0,0,.16.35.68.68,0,0,0,.46.14,1.21,1.21,0,0,0,.55-.13.83.83,0,0,0,.35-.37,1.4,1.4,0,0,0,.08-.53Z" transform="translate(-2.4 -4.9)"/><path class="cls-5" d="M88.12,68.68V65.57h.48V66a1.1,1.1,0,0,1,1-.51,1.22,1.22,0,0,1,.51.1.86.86,0,0,1,.36.27,1.14,1.14,0,0,1,.16.39,2.81,2.81,0,0,1,0,.51v1.91h-.53V66.79a1.4,1.4,0,0,0-.06-.48.5.5,0,0,0-.22-.26.7.7,0,0,0-.37-.09.88.88,0,0,0-.58.21,1.06,1.06,0,0,0-.24.81v1.7Z" transform="translate(-2.4 -4.9)"/><path class="cls-5" d="M91.36,68.94l.51.08a.56.56,0,0,0,.18.34.87.87,0,0,0,.54.15.91.91,0,0,0,.56-.15.65.65,0,0,0,.27-.41,3.28,3.28,0,0,0,0-.68,1.06,1.06,0,0,1-.86.41,1.15,1.15,0,0,1-1-.46,1.75,1.75,0,0,1-.35-1.11,2,2,0,0,1,.16-.82,1.22,1.22,0,0,1,.46-.58,1.27,1.27,0,0,1,.72-.21,1.11,1.11,0,0,1,.91.45v-.38H94v2.69a2.53,2.53,0,0,1-.15,1,1.09,1.09,0,0,1-.47.48,1.59,1.59,0,0,1-.79.17,1.48,1.48,0,0,1-.9-.25A.82.82,0,0,1,91.36,68.94Zm.44-1.87A1.33,1.33,0,0,0,92,68a.79.79,0,0,0,1.22,0,1.29,1.29,0,0,0,.25-.87,1.26,1.26,0,0,0-.26-.86.76.76,0,0,0-.61-.29.78.78,0,0,0-.6.28A1.31,1.31,0,0,0,91.8,67.07Z" transform="translate(-2.4 -4.9)"/><path class="cls-5" d="M96.92,67.68l.55.07a1.37,1.37,0,0,1-.48.74,1.47,1.47,0,0,1-.89.26A1.43,1.43,0,0,1,95,68.33a1.62,1.62,0,0,1-.4-1.18,1.73,1.73,0,0,1,.4-1.22,1.37,1.37,0,0,1,1-.43,1.33,1.33,0,0,1,1,.42,1.69,1.69,0,0,1,.4,1.2.82.82,0,0,1,0,.14H95.16a1.26,1.26,0,0,0,.29.79.88.88,0,0,0,.65.27.82.82,0,0,0,.5-.15A1,1,0,0,0,96.92,67.68Zm-1.73-.85h1.74a1,1,0,0,0-.2-.59.85.85,0,0,0-1.26-.06A1,1,0,0,0,95.19,66.83Z" transform="translate(-2.4 -4.9)"/><path class="cls-5" d="M29.46,31.59l.53-.05a1.27,1.27,0,0,0,.18.53.92.92,0,0,0,.43.33,1.59,1.59,0,0,0,.66.13,1.62,1.62,0,0,0,.57-.09.93.93,0,0,0,.38-.27.61.61,0,0,0,.12-.37.55.55,0,0,0-.12-.35.82.82,0,0,0-.39-.25,5.35,5.35,0,0,0-.76-.21,4.42,4.42,0,0,1-.83-.27,1.14,1.14,0,0,1-.46-.4,1,1,0,0,1-.15-.54,1.08,1.08,0,0,1,.18-.6,1.16,1.16,0,0,1,.54-.43,2,2,0,0,1,.79-.15,2.17,2.17,0,0,1,.84.15,1.31,1.31,0,0,1,.57.46,1.29,1.29,0,0,1,.21.67l-.55,0a.87.87,0,0,0-.3-.61,1.13,1.13,0,0,0-.74-.21,1.2,1.2,0,0,0-.76.19.59.59,0,0,0-.23.46.49.49,0,0,0,.16.38,2.25,2.25,0,0,0,.86.3,5.87,5.87,0,0,1,.95.28,1.33,1.33,0,0,1,.56.43,1.08,1.08,0,0,1,.18.62,1.18,1.18,0,0,1-.2.64,1.27,1.27,0,0,1-.57.47,1.83,1.83,0,0,1-.82.17,2.53,2.53,0,0,1-1-.17,1.35,1.35,0,0,1-.62-.51A1.37,1.37,0,0,1,29.46,31.59Z" transform="translate(-2.4 -4.9)"/><path class="cls-5" d="M33.58,33v-4.3h.53v1.54a1.2,1.2,0,0,1,.93-.42,1.26,1.26,0,0,1,.6.13.8.8,0,0,1,.37.38,1.79,1.79,0,0,1,.11.7v2h-.53V31a.84.84,0,0,0-.17-.58.64.64,0,0,0-.49-.18.88.88,0,0,0-.44.12.72.72,0,0,0-.29.33,1.5,1.5,0,0,0-.09.58V33Z" transform="translate(-2.4 -4.9)"/><path class="cls-5" d="M36.72,31.41a1.59,1.59,0,0,1,.49-1.28,1.42,1.42,0,0,1,1-.34,1.39,1.39,0,0,1,1,.42,1.59,1.59,0,0,1,.41,1.16,2,2,0,0,1-.18.94,1.35,1.35,0,0,1-.52.54,1.51,1.51,0,0,1-.76.19,1.39,1.39,0,0,1-1-.42A1.67,1.67,0,0,1,36.72,31.41Zm.55,0a1.31,1.31,0,0,0,.26.9.81.81,0,0,0,.65.29.83.83,0,0,0,.66-.29,1.39,1.39,0,0,0,.26-.91,1.32,1.32,0,0,0-.26-.88.85.85,0,0,0-.66-.3.82.82,0,0,0-.65.3A1.28,1.28,0,0,0,37.27,31.41Z" transform="translate(-2.4 -4.9)"/><path class="cls-5" d="M40.25,33V29.86h.48v.47a1.33,1.33,0,0,1,.33-.44.59.59,0,0,1,.34-.1,1,1,0,0,1,.54.17l-.18.49a.74.74,0,0,0-.39-.12.53.53,0,0,0-.31.11.52.52,0,0,0-.19.28,2.06,2.06,0,0,0-.09.62V33Z" transform="translate(-2.4 -4.9)"/><path class="cls-5" d="M43.41,32.5l.07.46a2.08,2.08,0,0,1-.4,0,.9.9,0,0,1-.44-.09.46.46,0,0,1-.22-.24,1.68,1.68,0,0,1-.07-.62V30.27H42v-.41h.38v-.77l.53-.32v1.09h.53v.41h-.53v1.82a1.57,1.57,0,0,0,0,.29.24.24,0,0,0,.1.1.4.4,0,0,0,.18,0Z" transform="translate(-2.4 -4.9)"/><path class="cls-5" d="M43.72,31.68v-.53h1.62v.53Z" transform="translate(-2.4 -4.9)"/><path class="cls-5" d="M47.94,33v-.39a1,1,0,0,1-.87.46,1.16,1.16,0,0,1-.68-.21,1.31,1.31,0,0,1-.49-.57,2,2,0,0,1-.17-.84,2.08,2.08,0,0,1,.16-.85,1.17,1.17,0,0,1,.46-.58,1.22,1.22,0,0,1,.7-.2,1.06,1.06,0,0,1,.5.12,1,1,0,0,1,.35.3V28.67h.53V33Zm-1.67-1.55a1.41,1.41,0,0,0,.25.89.76.76,0,0,0,.6.29.74.74,0,0,0,.59-.28,1.3,1.3,0,0,0,.24-.86,1.43,1.43,0,0,0-.25-.94.75.75,0,0,0-1.19,0A1.4,1.4,0,0,0,46.27,31.42Z" transform="translate(-2.4 -4.9)"/><path class="cls-5" d="M51.3,33v-.46a1.15,1.15,0,0,1-1,.53,1.23,1.23,0,0,1-.51-.11.93.93,0,0,1-.36-.26,1,1,0,0,1-.16-.39,3,3,0,0,1,0-.5V29.86h.52v1.72a2.33,2.33,0,0,0,0,.56.53.53,0,0,0,.21.33.7.7,0,0,0,.4.11.88.88,0,0,0,.44-.12.62.62,0,0,0,.29-.33,1.6,1.6,0,0,0,.09-.61V29.86h.53V33Z" transform="translate(-2.4 -4.9)"/><path class="cls-5" d="M52.59,33V29.86h.47v.47a1.33,1.33,0,0,1,.34-.44.57.57,0,0,1,.34-.1,1,1,0,0,1,.54.17l-.18.49a.74.74,0,0,0-.39-.12.51.51,0,0,0-.31.11.54.54,0,0,0-.2.28,2.45,2.45,0,0,0-.08.62V33Z" transform="translate(-2.4 -4.9)"/><path class="cls-5" d="M56.62,32.58a1.88,1.88,0,0,1-.56.36,1.86,1.86,0,0,1-.58.1,1.12,1.12,0,0,1-.79-.25.85.85,0,0,1-.28-.64.88.88,0,0,1,.11-.42.79.79,0,0,1,.27-.3,1.21,1.21,0,0,1,.38-.18,4.51,4.51,0,0,1,.47-.07,5.59,5.59,0,0,0,.94-.19v-.13a.59.59,0,0,0-.15-.46.86.86,0,0,0-.6-.18,1,1,0,0,0-.55.13.81.81,0,0,0-.26.46l-.52-.07a1.3,1.3,0,0,1,.24-.53.92.92,0,0,1,.46-.31,2,2,0,0,1,.71-.11,2,2,0,0,1,.65.09.81.81,0,0,1,.36.24.86.86,0,0,1,.17.36,4.48,4.48,0,0,1,0,.48v.7a5.84,5.84,0,0,0,0,.93,1.07,1.07,0,0,0,.13.38h-.55A1.12,1.12,0,0,1,56.62,32.58Zm0-1.17a4.82,4.82,0,0,1-.86.2,1.91,1.91,0,0,0-.46.1.51.51,0,0,0-.21.17.45.45,0,0,0-.07.25.43.43,0,0,0,.16.35.64.64,0,0,0,.46.15,1.1,1.1,0,0,0,.55-.14.84.84,0,0,0,.34-.36,1.23,1.23,0,0,0,.09-.53Z" transform="translate(-2.4 -4.9)"/><path class="cls-5" d="M59.08,32.5l.08.46a2.08,2.08,0,0,1-.4,0,1,1,0,0,1-.45-.09.51.51,0,0,1-.22-.24,2,2,0,0,1-.06-.62V30.27h-.39v-.41H58v-.77l.52-.32v1.09h.53v.41h-.53v1.82a.89.89,0,0,0,0,.29.28.28,0,0,0,.09.1.4.4,0,0,0,.18,0Z" transform="translate(-2.4 -4.9)"/><path class="cls-5" d="M59.6,29.28v-.61h.53v.61Zm0,3.69V29.86h.53V33Z" transform="translate(-2.4 -4.9)"/><path class="cls-5" d="M60.73,31.41a1.62,1.62,0,0,1,.48-1.28,1.46,1.46,0,0,1,1-.34,1.39,1.39,0,0,1,1.05.42,1.59,1.59,0,0,1,.41,1.16,2,2,0,0,1-.18.94,1.31,1.31,0,0,1-.53.54,1.49,1.49,0,0,1-.75.19,1.38,1.38,0,0,1-1-.42A1.67,1.67,0,0,1,60.73,31.41Zm.55,0a1.31,1.31,0,0,0,.26.9.81.81,0,0,0,.65.29.84.84,0,0,0,.66-.29,1.39,1.39,0,0,0,.26-.91,1.27,1.27,0,0,0-.27-.88.85.85,0,0,0-1.3,0A1.28,1.28,0,0,0,61.28,31.41Z" transform="translate(-2.4 -4.9)"/><path class="cls-5" d="M64.27,33V29.86h.47v.44a1.12,1.12,0,0,1,1-.51,1.27,1.27,0,0,1,.52.1.81.81,0,0,1,.35.26,1.15,1.15,0,0,1,.17.39,3.35,3.35,0,0,1,0,.52V33h-.52V31.08a1.5,1.5,0,0,0-.06-.49.53.53,0,0,0-.22-.25.76.76,0,0,0-.37-.1.82.82,0,0,0-.58.22,1.06,1.06,0,0,0-.25.81V33Z" transform="translate(-2.4 -4.9)"/><path class="cls-5" d="M29.58,40.17V37.06h.47v.47a1.21,1.21,0,0,1,.34-.44.56.56,0,0,1,.33-.1,1,1,0,0,1,.55.17l-.19.49a.68.68,0,0,0-.38-.12.49.49,0,0,0-.31.11.58.58,0,0,0-.2.28,2.06,2.06,0,0,0-.09.62v1.63Z" transform="translate(-2.4 -4.9)"/><path class="cls-5" d="M33.62,40.17v-.46a1.14,1.14,0,0,1-1,.53,1.26,1.26,0,0,1-.51-.11.93.93,0,0,1-.36-.26,1.14,1.14,0,0,1-.16-.39,3,3,0,0,1,0-.5V37.06h.53v1.72a3.35,3.35,0,0,0,0,.56.53.53,0,0,0,.21.33.65.65,0,0,0,.4.11.86.86,0,0,0,.44-.12.68.68,0,0,0,.3-.33,1.87,1.87,0,0,0,.08-.61V37.06h.53v3.11Z" transform="translate(-2.4 -4.9)"/><path class="cls-5" d="M34.92,40.17V37.06h.47v.44a1.12,1.12,0,0,1,1-.51,1.27,1.27,0,0,1,.52.1.81.81,0,0,1,.35.26,1.15,1.15,0,0,1,.17.39,3,3,0,0,1,0,.52v1.91h-.53V38.28a1.5,1.5,0,0,0-.06-.49.53.53,0,0,0-.22-.25.76.76,0,0,0-.37-.1.87.87,0,0,0-.58.22,1.06,1.06,0,0,0-.25.81v1.7Z" transform="translate(-2.4 -4.9)"/><path class="cls-5" d="M38.25,40.17V37.06h.48v.44a1.12,1.12,0,0,1,1-.51,1.27,1.27,0,0,1,.52.1.87.87,0,0,1,.35.26,1,1,0,0,1,.16.39,3,3,0,0,1,0,.52v1.91h-.53V38.28a1.5,1.5,0,0,0-.06-.49.51.51,0,0,0-.21-.25.76.76,0,0,0-.37-.1.85.85,0,0,0-.58.22,1,1,0,0,0-.25.81v1.7Z" transform="translate(-2.4 -4.9)"/><path class="cls-5" d="M41.59,36.48v-.61h.53v.61Zm0,3.69V37.06h.53v3.11Z" transform="translate(-2.4 -4.9)"/><path class="cls-5" d="M42.92,40.17V37.06h.48v.44a1.12,1.12,0,0,1,1-.51,1.27,1.27,0,0,1,.52.1.87.87,0,0,1,.35.26,1,1,0,0,1,.16.39,3,3,0,0,1,0,.52v1.91h-.53V38.28a1.5,1.5,0,0,0-.06-.49.51.51,0,0,0-.21-.25.76.76,0,0,0-.37-.1.85.85,0,0,0-.58.22,1,1,0,0,0-.25.81v1.7Z" transform="translate(-2.4 -4.9)"/><path class="cls-5" d="M46.16,40.43l.52.07a.48.48,0,0,0,.18.35.85.85,0,0,0,.53.14.94.94,0,0,0,.57-.14.78.78,0,0,0,.27-.41,3.61,3.61,0,0,0,0-.68,1.08,1.08,0,0,1-.86.41,1.19,1.19,0,0,1-1-.46,1.81,1.81,0,0,1-.35-1.11,2,2,0,0,1,.16-.83A1.23,1.23,0,0,1,47.41,37a1.11,1.11,0,0,1,.9.44v-.37h.49v2.69a2.56,2.56,0,0,1-.15,1,1.09,1.09,0,0,1-.47.48,1.68,1.68,0,0,1-.79.17,1.42,1.42,0,0,1-.89-.25A.87.87,0,0,1,46.16,40.43Zm.44-1.87a1.35,1.35,0,0,0,.24.89.78.78,0,0,0,.61.28.75.75,0,0,0,.61-.28,1.27,1.27,0,0,0,.25-.88,1.34,1.34,0,0,0-.25-.86.81.81,0,0,0-.62-.29.75.75,0,0,0-.59.29A1.23,1.23,0,0,0,46.6,38.56Z" transform="translate(-2.4 -4.9)"/><path class="cls-5" d="M51.26,40.17V37.06h.47v.47a1.33,1.33,0,0,1,.34-.44.57.57,0,0,1,.34-.1,1,1,0,0,1,.54.17l-.18.49a.74.74,0,0,0-.39-.12.51.51,0,0,0-.31.11.58.58,0,0,0-.2.28,2.45,2.45,0,0,0-.08.62v1.63Z" transform="translate(-2.4 -4.9)"/><path class="cls-5" d="M55.29,39.78a1.88,1.88,0,0,1-.56.36,1.86,1.86,0,0,1-.58.1,1.12,1.12,0,0,1-.79-.25.85.85,0,0,1-.28-.64.88.88,0,0,1,.11-.42.79.79,0,0,1,.27-.3,1.21,1.21,0,0,1,.38-.18,4.51,4.51,0,0,1,.47-.07,5.59,5.59,0,0,0,.94-.19v-.13a.59.59,0,0,0-.15-.46.86.86,0,0,0-.6-.18,1,1,0,0,0-.55.13.81.81,0,0,0-.26.47l-.52-.08a1.3,1.3,0,0,1,.24-.53.92.92,0,0,1,.46-.31,2,2,0,0,1,.71-.11,2,2,0,0,1,.65.09.81.81,0,0,1,.36.24.86.86,0,0,1,.17.36,4.64,4.64,0,0,1,0,.48v.7a5.75,5.75,0,0,0,0,.93,1.07,1.07,0,0,0,.13.38H55.4A1.12,1.12,0,0,1,55.29,39.78Zm0-1.17a4.07,4.07,0,0,1-.86.2,1.91,1.91,0,0,0-.46.1.51.51,0,0,0-.21.17.45.45,0,0,0-.07.25.46.46,0,0,0,.16.36.68.68,0,0,0,.46.14,1.1,1.1,0,0,0,.55-.14.84.84,0,0,0,.34-.36,1.23,1.23,0,0,0,.09-.53Z" transform="translate(-2.4 -4.9)"/><path class="cls-5" d="M56.6,40.17V37.06h.47v.44a1.12,1.12,0,0,1,1-.51,1.27,1.27,0,0,1,.52.1.75.75,0,0,1,.35.26,1,1,0,0,1,.17.39,3,3,0,0,1,0,.52v1.91H58.6V38.28a1.5,1.5,0,0,0-.06-.49.48.48,0,0,0-.22-.25.73.73,0,0,0-.37-.1.87.87,0,0,0-.58.22,1.06,1.06,0,0,0-.24.81v1.7Z" transform="translate(-2.4 -4.9)"/><path class="cls-5" d="M59.84,40.43l.51.07a.48.48,0,0,0,.18.35.87.87,0,0,0,.54.14.91.91,0,0,0,.56-.14.68.68,0,0,0,.27-.41,3.34,3.34,0,0,0,0-.68,1.09,1.09,0,0,1-.86.41,1.18,1.18,0,0,1-1-.46,1.76,1.76,0,0,1-.36-1.11,2.05,2.05,0,0,1,.17-.83,1.27,1.27,0,0,1,.46-.58,1.34,1.34,0,0,1,.72-.2,1.13,1.13,0,0,1,.91.44v-.37h.49v2.69a2.56,2.56,0,0,1-.15,1,1.14,1.14,0,0,1-.47.48,1.71,1.71,0,0,1-.79.17,1.48,1.48,0,0,1-.9-.25A.84.84,0,0,1,59.84,40.43Zm.44-1.87a1.35,1.35,0,0,0,.24.89.75.75,0,0,0,.61.28.78.78,0,0,0,.61-.28,1.32,1.32,0,0,0,.24-.88,1.28,1.28,0,0,0-.25-.86.78.78,0,0,0-1.21,0A1.29,1.29,0,0,0,60.28,38.56Z" transform="translate(-2.4 -4.9)"/><path class="cls-5" d="M65.4,39.17l.55.06a1.4,1.4,0,0,1-.48.75,1.47,1.47,0,0,1-.89.26,1.4,1.4,0,0,1-1.08-.42,1.62,1.62,0,0,1-.4-1.18,1.73,1.73,0,0,1,.4-1.22,1.37,1.37,0,0,1,1-.43,1.33,1.33,0,0,1,1,.42,1.7,1.7,0,0,1,.4,1.2s0,.08,0,.14H63.64a1.2,1.2,0,0,0,.29.78.88.88,0,0,0,.65.28.83.83,0,0,0,.5-.16A1,1,0,0,0,65.4,39.17Zm-1.73-.86h1.74a1,1,0,0,0-.2-.58.8.8,0,0,0-.65-.31.82.82,0,0,0-.61.24A1,1,0,0,0,63.67,38.31Z" transform="translate(-2.4 -4.9)"/><path d="M6.7,55.72H2.91v1.41H2.4v-3.4h.51v1.42H6.7Z" transform="translate(-2.4 -4.9)"/><path d="M6.7,53.21H2.4v-.53H3.94a1.17,1.17,0,0,1-.42-.93,1.26,1.26,0,0,1,.13-.6A.78.78,0,0,1,4,50.79a1.62,1.62,0,0,1,.7-.11h2v.52h-2a.79.79,0,0,0-.58.18.62.62,0,0,0-.18.48.86.86,0,0,0,.12.44.68.68,0,0,0,.33.3,1.75,1.75,0,0,0,.58.08H6.7Z" transform="translate(-2.4 -4.9)"/><path d="M6.7,49.88H3.59v-.47h.47a1.48,1.48,0,0,1-.44-.34.59.59,0,0,1-.1-.34,1,1,0,0,1,.17-.54l.48.18a.82.82,0,0,0-.11.39.57.57,0,0,0,.1.31.53.53,0,0,0,.29.19,2.06,2.06,0,0,0,.62.09H6.7Z" transform="translate(-2.4 -4.9)"/><path d="M6.7,45.84H6.24a1.14,1.14,0,0,1,.53,1,1.27,1.27,0,0,1-.11.52.82.82,0,0,1-.26.35,1.15,1.15,0,0,1-.39.17,3,3,0,0,1-.5,0H3.59v-.53H5.31a3.35,3.35,0,0,0,.56,0,.57.57,0,0,0,.32-.21.65.65,0,0,0,.12-.4.89.89,0,0,0-.12-.45A.66.66,0,0,0,5.86,46a1.6,1.6,0,0,0-.61-.09H3.59v-.52H6.7Z" transform="translate(-2.4 -4.9)"/><path d="M5.77,44.75l-.08-.52A.7.7,0,0,0,6.17,44a.85.85,0,0,0,.16-.56.89.89,0,0,0-.14-.54.47.47,0,0,0-.35-.17.32.32,0,0,0-.28.15,2.29,2.29,0,0,0-.18.54,5.44,5.44,0,0,1-.25.81.83.83,0,0,1-.3.34.88.88,0,0,1-.42.11A.82.82,0,0,1,4,44.57a.94.94,0,0,1-.3-.26A1.08,1.08,0,0,1,3.58,44a1.63,1.63,0,0,1-.06-.45,1.85,1.85,0,0,1,.1-.65.92.92,0,0,1,.29-.41,1.34,1.34,0,0,1,.48-.18l.07.52a.57.57,0,0,0-.38.2.74.74,0,0,0-.13.48.89.89,0,0,0,.12.52.35.35,0,0,0,.28.15.33.33,0,0,0,.19-.06.64.64,0,0,0,.14-.2c0-.06.06-.21.13-.47a5.57,5.57,0,0,1,.25-.78.71.71,0,0,1,.72-.47.91.91,0,0,1,.5.15.93.93,0,0,1,.36.44,1.59,1.59,0,0,1,.13.66,1.5,1.5,0,0,1-.25.92A1.16,1.16,0,0,1,5.77,44.75Z" transform="translate(-2.4 -4.9)"/><path d="M6.23,40.39l.46-.08a2.08,2.08,0,0,1,0,.4,1,1,0,0,1-.09.45.56.56,0,0,1-.24.22,2,2,0,0,1-.62.06H4v.39H3.59v-.39H2.82l-.32-.52H3.59v-.53H4v.53H5.82a.89.89,0,0,0,.29,0,.28.28,0,0,0,.1-.09.4.4,0,0,0,0-.18C6.25,40.56,6.24,40.48,6.23,40.39Z" transform="translate(-2.4 -4.9)"/><path d="M7.89,38.19H2.4V37h.44v.64H7.45V37h.44Z" transform="translate(-2.4 -4.9)"/><path d="M6.7,36.48H2.4v-.59l3.37-2.25H2.4v-.55H6.7v.59L3.32,35.93H6.7Z" transform="translate(-2.4 -4.9)"/><path d="M7.89,31.32v1.17H7.45v-.64H2.84v.64H2.4V31.32Z" transform="translate(-2.4 -4.9)"/><path d="M45.51,92.21l.54,0a1.08,1.08,0,0,0,.18.53.87.87,0,0,0,.43.33,1.53,1.53,0,0,0,.66.13,1.45,1.45,0,0,0,.57-.1.75.75,0,0,0,.37-.26.65.65,0,0,0,.12-.37.58.58,0,0,0-.11-.35.92.92,0,0,0-.39-.26l-.76-.21a3.16,3.16,0,0,1-.83-.27,1.07,1.07,0,0,1-.46-.4.94.94,0,0,1-.15-.53,1.1,1.1,0,0,1,.72-1,2.22,2.22,0,0,1,.79-.14,2.17,2.17,0,0,1,.84.15,1.2,1.2,0,0,1,.56.45,1.33,1.33,0,0,1,.21.68l-.54,0a.85.85,0,0,0-.3-.61,1.16,1.16,0,0,0-.75-.21,1.18,1.18,0,0,0-.75.19.54.54,0,0,0-.24.45.49.49,0,0,0,.17.38,2.2,2.2,0,0,0,.86.31,6.15,6.15,0,0,1,1,.27,1.31,1.31,0,0,1,.55.44,1.07,1.07,0,0,1,.18.61,1.17,1.17,0,0,1-.19.65,1.33,1.33,0,0,1-.57.47,2,2,0,0,1-.83.17,2.51,2.51,0,0,1-1-.17,1.3,1.3,0,0,1-.62-.51A1.49,1.49,0,0,1,45.51,92.21Z" transform="translate(-2.4 -4.9)"/><path d="M49.64,94.78V90.47h.48v.41a1.17,1.17,0,0,1,.38-.36A1.08,1.08,0,0,1,51,90.4a1.24,1.24,0,0,1,.71.21,1.34,1.34,0,0,1,.46.58,2.18,2.18,0,0,1,.15.82,2.2,2.2,0,0,1-.17.86,1.34,1.34,0,0,1-1.18.79,1,1,0,0,1-.48-.12.93.93,0,0,1-.34-.28v1.52Zm.48-2.73a1.34,1.34,0,0,0,.24.88.72.72,0,0,0,.59.29.75.75,0,0,0,.6-.3A1.37,1.37,0,0,0,51.8,92a1.41,1.41,0,0,0-.24-.89.75.75,0,0,0-.59-.29.74.74,0,0,0-.59.31A1.38,1.38,0,0,0,50.12,92.05Z" transform="translate(-2.4 -4.9)"/><path d="M55.11,92.58l.54.07a1.24,1.24,0,0,1-.48.74,1.39,1.39,0,0,1-.89.27,1.43,1.43,0,0,1-1.08-.42,1.68,1.68,0,0,1-.4-1.18,1.71,1.71,0,0,1,.41-1.22,1.37,1.37,0,0,1,1-.44,1.3,1.3,0,0,1,1,.43,1.65,1.65,0,0,1,.4,1.19v.14H53.35a1.16,1.16,0,0,0,.29.79.86.86,0,0,0,.65.27.79.79,0,0,0,.49-.15A1,1,0,0,0,55.11,92.58Zm-1.73-.85h1.73a1,1,0,0,0-.2-.59.79.79,0,0,0-.65-.3.84.84,0,0,0-.61.24A.9.9,0,0,0,53.38,91.73Z" transform="translate(-2.4 -4.9)"/><path d="M58.44,92.58l.55.07a1.34,1.34,0,0,1-.48.74,1.41,1.41,0,0,1-.89.27,1.43,1.43,0,0,1-1.08-.42,1.64,1.64,0,0,1-.4-1.18,1.71,1.71,0,0,1,.4-1.22,1.37,1.37,0,0,1,1.05-.44,1.3,1.3,0,0,1,1,.43A1.65,1.65,0,0,1,59,92a.82.82,0,0,1,0,.14H56.68A1.21,1.21,0,0,0,57,93a.88.88,0,0,0,.65.27.82.82,0,0,0,.5-.15A1,1,0,0,0,58.44,92.58Zm-1.73-.85h1.74a1,1,0,0,0-.2-.59.81.81,0,0,0-.65-.3.84.84,0,0,0-.61.24A1,1,0,0,0,56.71,91.73Z" transform="translate(-2.4 -4.9)"/><path d="M61.67,93.58v-.39a1,1,0,0,1-.87.47,1.16,1.16,0,0,1-.68-.21,1.44,1.44,0,0,1-.49-.57,2.25,2.25,0,0,1,0-1.69,1.18,1.18,0,0,1,.46-.58,1.23,1.23,0,0,1,.7-.21,1,1,0,0,1,.85.43V89.29h.53v4.29ZM60,92a1.42,1.42,0,0,0,.25.9.79.79,0,0,0,.6.29.74.74,0,0,0,.59-.28,1.32,1.32,0,0,0,.24-.86,1.43,1.43,0,0,0-.25-.94.75.75,0,0,0-1.19,0A1.38,1.38,0,0,0,60,92Z" transform="translate(-2.4 -4.9)"/><path d="M64.67,94.78V89.29h1.16v.44h-.64v4.61h.64v.44Z" transform="translate(-2.4 -4.9)"/><path d="M66.32,93.58V90.47h.47v.44a1.26,1.26,0,0,1,.39-.37,1.16,1.16,0,0,1,.56-.14,1,1,0,0,1,.56.15.75.75,0,0,1,.32.4,1.09,1.09,0,0,1,1-.55,1,1,0,0,1,.71.26,1.07,1.07,0,0,1,.25.79v2.13H70v-2a1.25,1.25,0,0,0-.05-.45.39.39,0,0,0-.18-.22.57.57,0,0,0-.32-.09.7.7,0,0,0-.54.22.93.93,0,0,0-.22.7v1.8h-.53v-2A.83.83,0,0,0,68,91a.47.47,0,0,0-.42-.18.73.73,0,0,0-.41.12.67.67,0,0,0-.28.34,2.15,2.15,0,0,0-.08.65v1.61Z" transform="translate(-2.4 -4.9)"/><path d="M70.92,93.66l1.25-4.44h.42l-1.24,4.44Z" transform="translate(-2.4 -4.9)"/><path d="M72.78,92.66l.52-.09a.74.74,0,0,0,.24.48.82.82,0,0,0,.56.17.79.79,0,0,0,.54-.15.42.42,0,0,0,.18-.34.3.3,0,0,0-.16-.28,2,2,0,0,0-.54-.18,5.32,5.32,0,0,1-.8-.26.81.81,0,0,1-.34-.29.79.79,0,0,1-.12-.42.8.8,0,0,1,.1-.38.83.83,0,0,1,.26-.3,1,1,0,0,1,.33-.15A1.43,1.43,0,0,1,74,90.4a1.79,1.79,0,0,1,.64.11.85.85,0,0,1,.41.28,1.14,1.14,0,0,1,.18.49l-.51.07a.58.58,0,0,0-.21-.38.73.73,0,0,0-.47-.13.87.87,0,0,0-.52.12.36.36,0,0,0-.16.28.29.29,0,0,0,.07.18.38.38,0,0,0,.2.14l.47.14a8,8,0,0,1,.78.24.86.86,0,0,1,.34.28.73.73,0,0,1,.13.45.91.91,0,0,1-.15.5,1.09,1.09,0,0,1-.45.36,1.67,1.67,0,0,1-.65.13,1.45,1.45,0,0,1-.93-.26A1.1,1.1,0,0,1,72.78,92.66Z" transform="translate(-2.4 -4.9)"/><path d="M76.87,94.78H75.71v-.44h.63V89.73h-.63v-.44h1.16Z" transform="translate(-2.4 -4.9)"/><path class="cls-5" d="M22.53,79.76a4,4,0,0,1,.15-1.22,1.56,1.56,0,0,1,.47-.72,1.35,1.35,0,0,1,1.38-.11,1,1,0,0,1,.43.4,1.87,1.87,0,0,1,.27.64,4.38,4.38,0,0,1,.1,1A4.05,4.05,0,0,1,25.17,81a1.55,1.55,0,0,1-.46.72A1.32,1.32,0,0,1,23,81.51,2.87,2.87,0,0,1,22.53,79.76Zm.54,0a2.75,2.75,0,0,0,.24,1.41.72.72,0,0,0,1.23,0,2.81,2.81,0,0,0,.24-1.41,2.75,2.75,0,0,0-.24-1.41.75.75,0,0,0-.62-.35.69.69,0,0,0-.58.31A2.75,2.75,0,0,0,23.07,79.76Z" transform="translate(-2.4 -4.9)"/><path d="M99.63,85.44V86H96.79a.78.78,0,0,1,.06-.37A2,2,0,0,1,97.2,85a5,5,0,0,1,.69-.65,5.49,5.49,0,0,0,.94-.91,1,1,0,0,0,.25-.63.7.7,0,0,0-.23-.53.79.79,0,0,0-.58-.21.83.83,0,0,0-.61.22.9.9,0,0,0-.23.64l-.54-.06a1.27,1.27,0,0,1,.42-.92,1.42,1.42,0,0,1,1-.32,1.36,1.36,0,0,1,1,.34,1.13,1.13,0,0,1,.36.85,1.34,1.34,0,0,1-.11.51,1.82,1.82,0,0,1-.35.52,7.18,7.18,0,0,1-.81.76,8,8,0,0,0-.61.54,1.79,1.79,0,0,0-.22.28Z" transform="translate(-2.4 -4.9)"/><path d="M63.54,86H63V82.59a2.7,2.7,0,0,1-.5.36,2.86,2.86,0,0,1-.55.28v-.51a3.22,3.22,0,0,0,.77-.51,1.94,1.94,0,0,0,.47-.57h.34Z" transform="translate(-2.4 -4.9)"/><path class="cls-5" d="M13.62,63.21v.51H10.78a1.15,1.15,0,0,1,.06-.37,2,2,0,0,1,.35-.57,5.66,5.66,0,0,1,.69-.65,6.07,6.07,0,0,0,.95-.91,1.11,1.11,0,0,0,.24-.64.69.69,0,0,0-.22-.52.8.8,0,0,0-.59-.22.79.79,0,0,0-.84.86l-.54-.05a1.35,1.35,0,0,1,.42-.93,1.44,1.44,0,0,1,1-.32,1.35,1.35,0,0,1,1,.35,1.13,1.13,0,0,1,.36.85,1.24,1.24,0,0,1-.1.5,2.1,2.1,0,0,1-.35.53,10.42,10.42,0,0,1-.82.75l-.6.54a1.94,1.94,0,0,0-.23.29Z" transform="translate(-2.4 -4.9)"/><path class="cls-5" d="M17,63.21v.51H14.12a.78.78,0,0,1,.06-.37,2,2,0,0,1,.35-.57,5.66,5.66,0,0,1,.69-.65,5.89,5.89,0,0,0,.94-.91,1.06,1.06,0,0,0,.25-.64.7.7,0,0,0-.23-.52.78.78,0,0,0-.58-.22.84.84,0,0,0-.61.23.85.85,0,0,0-.23.63l-.54-.05a1.28,1.28,0,0,1,.42-.93,1.42,1.42,0,0,1,1-.32,1.37,1.37,0,0,1,1,.35,1.13,1.13,0,0,1,.36.85,1.1,1.1,0,0,1-.11.5,1.86,1.86,0,0,1-.35.53,8.44,8.44,0,0,1-.81.75c-.31.27-.52.45-.61.54a1.85,1.85,0,0,0-.22.29Z" transform="translate(-2.4 -4.9)"/><path class="cls-5" d="M17.52,62.58l.53-.07a1.2,1.2,0,0,0,.31.65.78.78,0,0,0,.53.2.86.86,0,0,0,.63-.26.88.88,0,0,0,.26-.64.82.82,0,0,0-.84-.84,1.54,1.54,0,0,0-.38.06l.06-.46h.09a1.06,1.06,0,0,0,.6-.18.61.61,0,0,0,.27-.54.65.65,0,0,0-.19-.48.69.69,0,0,0-.51-.19.7.7,0,0,0-.51.19,1,1,0,0,0-.27.58l-.52-.09A1.29,1.29,0,0,1,18,59.7a1.24,1.24,0,0,1,.85-.3,1.59,1.59,0,0,1,.65.15A1.21,1.21,0,0,1,20,60a1.1,1.1,0,0,1,.16.55A.9.9,0,0,1,20,61a1,1,0,0,1-.45.36,1,1,0,0,1,.6.37,1.09,1.09,0,0,1,.21.69,1.28,1.28,0,0,1-.41.95,1.46,1.46,0,0,1-1,.39,1.37,1.37,0,0,1-.94-.33A1.35,1.35,0,0,1,17.52,62.58Z" transform="translate(-2.4 -4.9)"/><path class="cls-5" d="M21.15,63.72v-.6h.6v.6Z" transform="translate(-2.4 -4.9)"/><path class="cls-5" d="M24.22,63.72v-1H22.35v-.48l2-2.79h.43v2.79h.58v.48h-.58v1Zm0-1.51V60.27l-1.35,1.94Z" transform="translate(-2.4 -4.9)"/><path class="cls-5" d="M12.54,49v-1H10.67v-.48l2-2.78h.44v2.78h.58v.48h-.58v1Zm0-1.51V45.52l-1.35,1.94Z" transform="translate(-2.4 -4.9)"/><path class="cls-5" d="M14.18,46.85a4,4,0,0,1,.16-1.22,1.56,1.56,0,0,1,.47-.72,1.15,1.15,0,0,1,.77-.25,1.17,1.17,0,0,1,.61.14,1,1,0,0,1,.43.4,2.09,2.09,0,0,1,.27.64,4.44,4.44,0,0,1,.1,1,4,4,0,0,1-.16,1.22,1.55,1.55,0,0,1-.46.72,1.21,1.21,0,0,1-.79.25,1.17,1.17,0,0,1-1-.44A2.86,2.86,0,0,1,14.18,46.85Zm.55,0A2.75,2.75,0,0,0,15,48.26a.72.72,0,0,0,1.23,0,2.78,2.78,0,0,0,.24-1.41,2.81,2.81,0,0,0-.24-1.41.75.75,0,0,0-.62-.35.69.69,0,0,0-.58.31A2.75,2.75,0,0,0,14.73,46.85Z" transform="translate(-2.4 -4.9)"/><path class="cls-5" d="M17.52,46.85a3.72,3.72,0,0,1,.16-1.22,1.55,1.55,0,0,1,.46-.72,1.2,1.2,0,0,1,.78-.25,1.22,1.22,0,0,1,.61.14,1.1,1.1,0,0,1,.43.4,2.37,2.37,0,0,1,.27.64,4.53,4.53,0,0,1,.09,1,4,4,0,0,1-.15,1.22,1.56,1.56,0,0,1-.47.72A1.31,1.31,0,0,1,18,48.6,2.79,2.79,0,0,1,17.52,46.85Zm.54,0a2.73,2.73,0,0,0,.25,1.41.75.75,0,0,0,.61.35.73.73,0,0,0,.61-.35,2.65,2.65,0,0,0,.25-1.41,2.68,2.68,0,0,0-.25-1.41.73.73,0,0,0-.61-.35.67.67,0,0,0-.58.31A2.64,2.64,0,0,0,18.06,46.85Z" transform="translate(-2.4 -4.9)"/><path class="cls-1" d="M21.15,49v-.6h.6V49Z" transform="translate(-2.4 -4.9)"/><path class="cls-1" d="M22.53,46.85a4,4,0,0,1,.15-1.22,1.56,1.56,0,0,1,.47-.72,1.35,1.35,0,0,1,1.38-.11,1,1,0,0,1,.43.4,1.87,1.87,0,0,1,.27.64,4.44,4.44,0,0,1,.1,1,4,4,0,0,1-.16,1.22,1.55,1.55,0,0,1-.46.72,1.2,1.2,0,0,1-.78.25,1.17,1.17,0,0,1-1-.44A2.87,2.87,0,0,1,22.53,46.85Zm.54,0a2.75,2.75,0,0,0,.24,1.41.72.72,0,0,0,1.23,0,2.78,2.78,0,0,0,.24-1.41,2.81,2.81,0,0,0-.24-1.41.75.75,0,0,0-.62-.35.69.69,0,0,0-.58.31A2.75,2.75,0,0,0,23.07,46.85Z" transform="translate(-2.4 -4.9)"/><path class="cls-5" d="M10.88,20.37v-.51h2.78v.41a6.11,6.11,0,0,0-.81,1.16,6.82,6.82,0,0,0-.62,1.49A4.77,4.77,0,0,0,12,24.1h-.55a5.89,5.89,0,0,1,.2-1.22,6.59,6.59,0,0,1,.55-1.39A5.91,5.91,0,0,1,13,20.37Z" transform="translate(-2.4 -4.9)"/><path class="cls-5" d="M14.18,22a4.05,4.05,0,0,1,.16-1.22,1.56,1.56,0,0,1,.47-.72,1.15,1.15,0,0,1,.77-.25,1.28,1.28,0,0,1,.61.14,1.1,1.1,0,0,1,.43.4,2.2,2.2,0,0,1,.27.64,4.44,4.44,0,0,1,.1,1,4,4,0,0,1-.16,1.22,1.55,1.55,0,0,1-.46.72,1.21,1.21,0,0,1-.79.26,1.17,1.17,0,0,1-1-.45A2.86,2.86,0,0,1,14.18,22Zm.55,0A2.75,2.75,0,0,0,15,23.39a.72.72,0,0,0,.61.35.75.75,0,0,0,.62-.35A2.75,2.75,0,0,0,16.44,22a2.74,2.74,0,0,0-.24-1.4.73.73,0,0,0-.62-.35.68.68,0,0,0-.58.3A2.78,2.78,0,0,0,14.73,22Z" transform="translate(-2.4 -4.9)"/><path class="cls-5" d="M19.21,24.1v-1H17.35v-.48l2-2.78h.43v2.78h.58v.48h-.58v1Zm0-1.51V20.65l-1.34,1.94Z" transform="translate(-2.4 -4.9)"/><path class="cls-5" d="M21.15,24.1v-.6h.6v.6Z" transform="translate(-2.4 -4.9)"/><path class="cls-5" d="M22.53,23l.55-.05a1.05,1.05,0,0,0,.28.61.81.81,0,0,0,.55.2.84.84,0,0,0,.64-.28,1.09,1.09,0,0,0,.26-.77,1,1,0,0,0-.25-.71.9.9,0,0,0-.66-.26.88.88,0,0,0-.46.12.8.8,0,0,0-.33.3l-.49-.07.42-2.2h2.13v.5H23.46l-.23,1.15a1.36,1.36,0,0,1,.81-.27,1.3,1.3,0,0,1,.95.39,1.41,1.41,0,0,1,.38,1,1.52,1.52,0,0,1-.34,1,1.35,1.35,0,0,1-1.12.53,1.38,1.38,0,0,1-1-.33A1.25,1.25,0,0,1,22.53,23Z" transform="translate(-2.4 -4.9)"/><path class="cls-5" d="M11.66,13.28a1.07,1.07,0,0,1-.49-.34A1,1,0,0,1,11,12.4a1,1,0,0,1,.34-.78,1.24,1.24,0,0,1,.9-.32,1.24,1.24,0,0,1,.9.32,1.08,1.08,0,0,1,.35.8.91.91,0,0,1-.16.52,1,1,0,0,1-.48.34,1.14,1.14,0,0,1,.61.42,1.19,1.19,0,0,1,.2.68,1.24,1.24,0,0,1-.39.93,1.41,1.41,0,0,1-1,.37,1.42,1.42,0,0,1-1-.37,1.28,1.28,0,0,1-.39-.94,1,1,0,0,1,.82-1.09Zm-.28,1.09a1,1,0,0,0,.11.44.71.71,0,0,0,.32.32.89.89,0,0,0,.45.12.85.85,0,0,0,.63-.25.91.91,0,0,0,0-1.24.92.92,0,0,0-1.25,0A.87.87,0,0,0,11.38,14.37Zm.17-2a.66.66,0,0,0,.2.49.69.69,0,0,0,.51.2.72.72,0,0,0,.5-.19.64.64,0,0,0,.19-.47.63.63,0,0,0-.2-.49.69.69,0,0,0-.5-.2.69.69,0,0,0-.5.19A.65.65,0,0,0,11.55,12.39Z" transform="translate(-2.4 -4.9)"/><path class="cls-5" d="M14.18,13.49a4.08,4.08,0,0,1,.16-1.23,1.53,1.53,0,0,1,.47-.71,1.15,1.15,0,0,1,.77-.25,1.17,1.17,0,0,1,.61.14,1,1,0,0,1,.43.4,2,2,0,0,1,.27.64,4.38,4.38,0,0,1,.1,1,4.05,4.05,0,0,1-.16,1.22,1.55,1.55,0,0,1-.46.72,1.21,1.21,0,0,1-.79.25,1.19,1.19,0,0,1-1-.44A2.86,2.86,0,0,1,14.18,13.49Zm.55,0A2.78,2.78,0,0,0,15,14.9a.72.72,0,0,0,1.23,0,2.81,2.81,0,0,0,.24-1.41,2.75,2.75,0,0,0-.24-1.41.75.75,0,0,0-.62-.35A.66.66,0,0,0,15,12,2.75,2.75,0,0,0,14.73,13.49Z" transform="translate(-2.4 -4.9)"/><path class="cls-5" d="M17.52,13.49a3.78,3.78,0,0,1,.16-1.23,1.52,1.52,0,0,1,.46-.71,1.2,1.2,0,0,1,.78-.25,1.22,1.22,0,0,1,.61.14,1.1,1.1,0,0,1,.43.4,2.24,2.24,0,0,1,.27.64,4.46,4.46,0,0,1,.09,1,4.09,4.09,0,0,1-.15,1.22,1.56,1.56,0,0,1-.47.72,1.16,1.16,0,0,1-.78.25,1.18,1.18,0,0,1-1-.44A2.79,2.79,0,0,1,17.52,13.49Zm.54,0a2.75,2.75,0,0,0,.25,1.41.75.75,0,0,0,.61.35.73.73,0,0,0,.61-.35,2.68,2.68,0,0,0,.25-1.41,2.63,2.63,0,0,0-.25-1.41.73.73,0,0,0-.61-.35.65.65,0,0,0-.58.31A2.64,2.64,0,0,0,18.06,13.49Z" transform="translate(-2.4 -4.9)"/><path class="cls-1" d="M21.15,15.61V15h.6v.6Z" transform="translate(-2.4 -4.9)"/><path class="cls-1" d="M22.53,13.49a4.12,4.12,0,0,1,.15-1.23,1.53,1.53,0,0,1,.47-.71,1.35,1.35,0,0,1,1.38-.11,1,1,0,0,1,.43.4,1.79,1.79,0,0,1,.27.64,4.38,4.38,0,0,1,.1,1,4.05,4.05,0,0,1-.16,1.22,1.55,1.55,0,0,1-.46.72A1.32,1.32,0,0,1,23,15.24,2.87,2.87,0,0,1,22.53,13.49Zm.54,0a2.78,2.78,0,0,0,.24,1.41.72.72,0,0,0,1.23,0,2.81,2.81,0,0,0,.24-1.41,2.75,2.75,0,0,0-.24-1.41.75.75,0,0,0-.62-.35.66.66,0,0,0-.58.31A2.75,2.75,0,0,0,23.07,13.49Z" transform="translate(-2.4 -4.9)"/></g></svg>