<svg xmlns="http://www.w3.org/2000/svg" xmlns:xlink="http://www.w3.org/1999/xlink" viewBox="0 0 97.91 89.87"><defs><style>.cls-1,.cls-3,.cls-4,.cls-5{fill:none;}.cls-2{clip-path:url(#clip-path);}.cls-3,.cls-4{stroke:#b5b5b6;stroke-width:3px;}.cls-3{stroke-linecap:square;}.cls-4{stroke-linecap:round;}.cls-5{stroke:#231815;stroke-miterlimit:10;stroke-width:0.4px;}.cls-6{fill:#231815;}</style><clipPath id="clip-path" transform="translate(-2.4 -4.9)"><rect class="cls-1" x="27.62" y="5.1" width="70.62" height="75"/></clipPath></defs><g id="illust"><g class="cls-2"><path class="cls-3" d="M27.63,18.73H59.35L98.22,46.65" transform="translate(-2.4 -4.9)"/><line class="cls-4" x1="25.23" y1="55.71" x2="95.81" y2="55.71"/></g><line class="cls-5" x1="95.84" y1="8.67" x2="25.22" y2="8.67"/><line class="cls-5" x1="95.84" y1="41.93" x2="25.22" y2="41.93"/><line class="cls-5" x1="60.53" y1="20.1" x2="60.53" y2="0.2"/><line class="cls-5" x1="60.53" y1="58.5" x2="60.53" y2="34.22"/><line class="cls-5" x1="60.53" y1="75.2" x2="60.53" y2="64.62"/><rect class="cls-5" x="25.22" y="0.2" width="70.62" height="75"/></g><g id="japanese"><path class="cls-6" d="M32.21,66.7l.57.14a1.89,1.89,0,0,1-.64,1.07,1.75,1.75,0,0,1-1.14.37A2,2,0,0,1,29.87,68a1.75,1.75,0,0,1-.66-.82A2.94,2.94,0,0,1,29,66a2.52,2.52,0,0,1,.25-1.17A1.73,1.73,0,0,1,30,64.1a2.06,2.06,0,0,1,1-.26,1.79,1.79,0,0,1,1.09.33,1.69,1.69,0,0,1,.61.92l-.56.13a1.31,1.31,0,0,0-.43-.68,1.19,1.19,0,0,0-.72-.22,1.4,1.4,0,0,0-.83.24,1.25,1.25,0,0,0-.46.64,2.57,2.57,0,0,0-.14.82,2.54,2.54,0,0,0,.16,1,1.18,1.18,0,0,0,.5.61,1.34,1.34,0,0,0,.73.2,1.26,1.26,0,0,0,.81-.27A1.39,1.39,0,0,0,32.21,66.7Z" transform="translate(-2.4 -4.9)"/><path class="cls-6" d="M33.22,66.65a1.6,1.6,0,0,1,.48-1.28,1.45,1.45,0,0,1,1-.35,1.43,1.43,0,0,1,1,.42,1.63,1.63,0,0,1,.4,1.17,2,2,0,0,1-.18.94,1.29,1.29,0,0,1-.52.54,1.61,1.61,0,0,1-.75.19,1.4,1.4,0,0,1-1.06-.42A1.67,1.67,0,0,1,33.22,66.65Zm.54,0a1.36,1.36,0,0,0,.26.9.86.86,0,0,0,.66.29.82.82,0,0,0,.65-.3,1.37,1.37,0,0,0,.26-.91,1.31,1.31,0,0,0-.26-.87.87.87,0,0,0-1.31,0A1.31,1.31,0,0,0,33.76,66.65Z" transform="translate(-2.4 -4.9)"/><path class="cls-6" d="M36.75,68.21V65.09h.48v.45a1.13,1.13,0,0,1,1-.52,1.23,1.23,0,0,1,.51.11.77.77,0,0,1,.36.26,1,1,0,0,1,.16.39,3,3,0,0,1,0,.51v1.92h-.53v-1.9a1.48,1.48,0,0,0-.06-.48.48.48,0,0,0-.22-.25.61.61,0,0,0-.36-.1.85.85,0,0,0-.59.22,1.06,1.06,0,0,0-.24.81v1.7Z" transform="translate(-2.4 -4.9)"/><path class="cls-6" d="M41.24,67.73l.08.47a2.08,2.08,0,0,1-.4,0,1,1,0,0,1-.45-.09.51.51,0,0,1-.22-.24,2.07,2.07,0,0,1-.06-.63V65.5H39.8v-.41h.39v-.77l.52-.31v1.08h.53v.41h-.53v1.82a.85.85,0,0,0,0,.29.24.24,0,0,0,.09.11.42.42,0,0,0,.18,0A1.06,1.06,0,0,0,41.24,67.73Z" transform="translate(-2.4 -4.9)"/><path class="cls-6" d="M41.76,64.52v-.61h.53v.61Zm0,3.69V65.09h.53v3.12Z" transform="translate(-2.4 -4.9)"/><path class="cls-6" d="M43.09,68.21V65.09h.47v.45a1.13,1.13,0,0,1,1-.52,1.27,1.27,0,0,1,.52.11.69.69,0,0,1,.35.26,1,1,0,0,1,.17.39,3,3,0,0,1,0,.51v1.92h-.53v-1.9a1.48,1.48,0,0,0-.06-.48.53.53,0,0,0-.22-.25.64.64,0,0,0-.37-.1.82.82,0,0,0-.58.22,1.06,1.06,0,0,0-.24.81v1.7Z" transform="translate(-2.4 -4.9)"/><path class="cls-6" d="M48.46,68.21v-.46a1.14,1.14,0,0,1-1,.53,1.27,1.27,0,0,1-.52-.11.89.89,0,0,1-.35-.26,1,1,0,0,1-.16-.4,1.92,1.92,0,0,1,0-.49V65.09h.53v1.73a3.35,3.35,0,0,0,0,.56.6.6,0,0,0,.21.32.65.65,0,0,0,.4.12A.89.89,0,0,0,48,67.7a.62.62,0,0,0,.29-.33,1.6,1.6,0,0,0,.09-.61V65.09h.53v3.12Z" transform="translate(-2.4 -4.9)"/><path class="cls-6" d="M49.57,66.65a1.6,1.6,0,0,1,.48-1.28,1.52,1.52,0,0,1,2,.07,1.59,1.59,0,0,1,.41,1.17,2,2,0,0,1-.18.94,1.29,1.29,0,0,1-.52.54,1.61,1.61,0,0,1-.75.19A1.4,1.4,0,0,1,50,67.86,1.67,1.67,0,0,1,49.57,66.65Zm.54,0a1.36,1.36,0,0,0,.26.9.85.85,0,0,0,.66.29.83.83,0,0,0,.65-.3,1.37,1.37,0,0,0,.26-.91,1.31,1.31,0,0,0-.26-.87.83.83,0,0,0-.65-.3.83.83,0,0,0-.66.3A1.31,1.31,0,0,0,50.11,66.65Z" transform="translate(-2.4 -4.9)"/><path class="cls-6" d="M55.14,68.21v-.46a1.14,1.14,0,0,1-1,.53,1.26,1.26,0,0,1-.51-.11.93.93,0,0,1-.36-.26,1.12,1.12,0,0,1-.16-.4,2.77,2.77,0,0,1,0-.49V65.09h.53v1.73a3.35,3.35,0,0,0,0,.56.51.51,0,0,0,.21.32.65.65,0,0,0,.4.12.86.86,0,0,0,.44-.12.68.68,0,0,0,.3-.33,1.87,1.87,0,0,0,.08-.61V65.09h.53v3.12Z" transform="translate(-2.4 -4.9)"/><path class="cls-6" d="M56.23,67.28l.52-.08a.79.79,0,0,0,.24.48.87.87,0,0,0,.56.16.83.83,0,0,0,.54-.15.42.42,0,0,0,.18-.34.3.3,0,0,0-.16-.28,2,2,0,0,0-.54-.18,4.36,4.36,0,0,1-.8-.26.81.81,0,0,1-.34-.29.79.79,0,0,1-.12-.42.8.8,0,0,1,.1-.38.83.83,0,0,1,.26-.3,1,1,0,0,1,.33-.15,1.77,1.77,0,0,1,.46-.07,1.79,1.79,0,0,1,.64.11.87.87,0,0,1,.41.29,1,1,0,0,1,.18.48l-.51.07a.62.62,0,0,0-.21-.38.73.73,0,0,0-.47-.13.84.84,0,0,0-.52.12.36.36,0,0,0-.16.28.24.24,0,0,0,.07.18.38.38,0,0,0,.2.14l.47.14a8,8,0,0,1,.78.24.86.86,0,0,1,.34.28.73.73,0,0,1,.13.45.91.91,0,0,1-.15.5,1.09,1.09,0,0,1-.45.36,1.67,1.67,0,0,1-.65.13,1.45,1.45,0,0,1-.93-.26A1.1,1.1,0,0,1,56.23,67.28Z" transform="translate(-2.4 -4.9)"/><path class="cls-6" d="M61.1,68.21V65.09h.47v.48a1.33,1.33,0,0,1,.34-.44.58.58,0,0,1,.34-.11,1.09,1.09,0,0,1,.54.17l-.18.49a.82.82,0,0,0-.39-.11.48.48,0,0,0-.31.1.61.61,0,0,0-.2.29,2,2,0,0,0-.09.62v1.63Z" transform="translate(-2.4 -4.9)"/><path class="cls-6" d="M65.14,68.21v-.46a1.14,1.14,0,0,1-1,.53,1.26,1.26,0,0,1-.51-.11.93.93,0,0,1-.36-.26,1.12,1.12,0,0,1-.16-.4,2.77,2.77,0,0,1,0-.49V65.09h.53v1.73a3.35,3.35,0,0,0,0,.56.51.51,0,0,0,.21.32.65.65,0,0,0,.4.12.83.83,0,0,0,.44-.12.68.68,0,0,0,.3-.33,1.63,1.63,0,0,0,.08-.61V65.09h.53v3.12Z" transform="translate(-2.4 -4.9)"/><path class="cls-6" d="M66.44,68.21V65.09h.47v.45a1.13,1.13,0,0,1,1-.52,1.27,1.27,0,0,1,.52.11.69.69,0,0,1,.35.26,1,1,0,0,1,.17.39,3,3,0,0,1,0,.51v1.92h-.53v-1.9a1.48,1.48,0,0,0-.06-.48.53.53,0,0,0-.22-.25.66.66,0,0,0-.37-.1.82.82,0,0,0-.58.22,1.06,1.06,0,0,0-.24.81v1.7Z" transform="translate(-2.4 -4.9)"/><path class="cls-6" d="M69.78,68.21V65.09h.47v.45a1.13,1.13,0,0,1,1-.52,1.27,1.27,0,0,1,.52.11.79.79,0,0,1,.35.26,1,1,0,0,1,.16.39,3,3,0,0,1,0,.51v1.92h-.52v-1.9a1.22,1.22,0,0,0-.07-.48.51.51,0,0,0-.21-.25.66.66,0,0,0-.37-.1.81.81,0,0,0-.58.22,1,1,0,0,0-.25.81v1.7Z" transform="translate(-2.4 -4.9)"/><path class="cls-6" d="M73.12,64.52v-.61h.52v.61Zm0,3.69V65.09h.52v3.12Z" transform="translate(-2.4 -4.9)"/><path class="cls-6" d="M74.45,68.21V65.09h.47v.45a1.13,1.13,0,0,1,1-.52,1.27,1.27,0,0,1,.52.11.79.79,0,0,1,.35.26,1,1,0,0,1,.16.39,3,3,0,0,1,0,.51v1.92h-.52v-1.9a1.22,1.22,0,0,0-.07-.48.51.51,0,0,0-.21-.25.66.66,0,0,0-.37-.1.81.81,0,0,0-.58.22,1,1,0,0,0-.25.81v1.7Z" transform="translate(-2.4 -4.9)"/><path class="cls-6" d="M77.69,68.46l.51.08a.5.5,0,0,0,.18.35.92.92,0,0,0,.53.14,1,1,0,0,0,.57-.14.78.78,0,0,0,.27-.41,3.34,3.34,0,0,0,0-.68,1.1,1.1,0,0,1-.87.41,1.19,1.19,0,0,1-1-.47,1.81,1.81,0,0,1-.35-1.11,2,2,0,0,1,.16-.82,1.29,1.29,0,0,1,.47-.58,1.22,1.22,0,0,1,.72-.21,1.13,1.13,0,0,1,.91.45v-.38h.48v2.69a2.5,2.5,0,0,1-.15,1,1,1,0,0,1-.46.48,1.62,1.62,0,0,1-.79.18,1.46,1.46,0,0,1-.9-.25A.85.85,0,0,1,77.69,68.46Zm.43-1.87a1.33,1.33,0,0,0,.25.9.79.79,0,0,0,1.21,0,1.28,1.28,0,0,0,.25-.88,1.26,1.26,0,0,0-.25-.86.81.81,0,0,0-.61-.29.76.76,0,0,0-.6.29A1.22,1.22,0,0,0,78.12,66.59Z" transform="translate(-2.4 -4.9)"/><path class="cls-6" d="M82.78,68.21V65.09h.47v.48a1.48,1.48,0,0,1,.34-.44.6.6,0,0,1,.34-.11,1,1,0,0,1,.54.17l-.18.49a.82.82,0,0,0-.39-.11.5.5,0,0,0-.31.1.53.53,0,0,0-.19.29,2,2,0,0,0-.09.62v1.63Z" transform="translate(-2.4 -4.9)"/><path class="cls-6" d="M86.81,67.82a1.66,1.66,0,0,1-.56.35,1.58,1.58,0,0,1-.58.11,1.17,1.17,0,0,1-.79-.25.84.84,0,0,1-.27-.64.82.82,0,0,1,.1-.42.79.79,0,0,1,.27-.3,1.21,1.21,0,0,1,.38-.18,4,4,0,0,1,.47-.08,4.72,4.72,0,0,0,.94-.18v-.14a.58.58,0,0,0-.15-.45.86.86,0,0,0-.6-.18.93.93,0,0,0-.55.13.87.87,0,0,0-.26.46L84.7,66a1.13,1.13,0,0,1,.23-.53,1.06,1.06,0,0,1,.46-.32A2.2,2.2,0,0,1,86.1,65a1.93,1.93,0,0,1,.65.1.83.83,0,0,1,.36.23.86.86,0,0,1,.17.36,4.72,4.72,0,0,1,0,.49v.7a5.84,5.84,0,0,0,0,.93,1.07,1.07,0,0,0,.13.38h-.55A1.38,1.38,0,0,1,86.81,67.82Zm0-1.18a3.53,3.53,0,0,1-.86.2,2.37,2.37,0,0,0-.46.11.51.51,0,0,0-.21.17.45.45,0,0,0-.07.25.43.43,0,0,0,.16.35.63.63,0,0,0,.46.14,1.09,1.09,0,0,0,.55-.13.87.87,0,0,0,.35-.36,1.44,1.44,0,0,0,.08-.53Z" transform="translate(-2.4 -4.9)"/><path class="cls-6" d="M88.12,68.21V65.09h.48v.45a1.11,1.11,0,0,1,1-.52,1.23,1.23,0,0,1,.51.11.77.77,0,0,1,.36.26,1.14,1.14,0,0,1,.16.39,3,3,0,0,1,0,.51v1.92h-.53v-1.9a1.48,1.48,0,0,0-.06-.48.48.48,0,0,0-.22-.25.62.62,0,0,0-.37-.1.84.84,0,0,0-.58.22,1.06,1.06,0,0,0-.24.81v1.7Z" transform="translate(-2.4 -4.9)"/><path class="cls-6" d="M91.36,68.46l.51.08a.59.59,0,0,0,.18.35.94.94,0,0,0,.54.14,1,1,0,0,0,.56-.14.68.68,0,0,0,.27-.41,3.34,3.34,0,0,0,0-.68,1.09,1.09,0,0,1-.86.41,1.16,1.16,0,0,1-1-.47,1.75,1.75,0,0,1-.35-1.11,2,2,0,0,1,.16-.82A1.23,1.23,0,0,1,92.6,65a1.11,1.11,0,0,1,.91.45v-.38H94v2.69a2.5,2.5,0,0,1-.15,1,1,1,0,0,1-.47.48,1.59,1.59,0,0,1-.79.18,1.48,1.48,0,0,1-.9-.25A.85.85,0,0,1,91.36,68.46Zm.44-1.87a1.38,1.38,0,0,0,.24.9.8.8,0,0,0,1.22,0,1.34,1.34,0,0,0,.25-.88,1.26,1.26,0,0,0-.26-.86.78.78,0,0,0-1.21,0A1.28,1.28,0,0,0,91.8,66.59Z" transform="translate(-2.4 -4.9)"/><path class="cls-6" d="M96.92,67.2l.55.07A1.34,1.34,0,0,1,97,68a1.41,1.41,0,0,1-.89.27A1.43,1.43,0,0,1,95,67.86a1.64,1.64,0,0,1-.4-1.18,1.71,1.71,0,0,1,.4-1.22,1.37,1.37,0,0,1,1-.44,1.33,1.33,0,0,1,1,.43,1.65,1.65,0,0,1,.4,1.19.92.92,0,0,1,0,.15H95.16a1.2,1.2,0,0,0,.29.78.88.88,0,0,0,.65.27.82.82,0,0,0,.5-.15A1,1,0,0,0,96.92,67.2Zm-1.73-.85h1.74a1,1,0,0,0-.2-.59.81.81,0,0,0-.65-.3.84.84,0,0,0-.61.24A1,1,0,0,0,95.19,66.35Z" transform="translate(-2.4 -4.9)"/><path class="cls-6" d="M29.46,28.46l.53,0a1.33,1.33,0,0,0,.18.53,1.07,1.07,0,0,0,.43.33,1.76,1.76,0,0,0,.66.13,1.61,1.61,0,0,0,.57-.1.78.78,0,0,0,.38-.27.6.6,0,0,0,.12-.36.56.56,0,0,0-.12-.36.91.91,0,0,0-.39-.25l-.76-.21a3.3,3.3,0,0,1-.83-.27,1.07,1.07,0,0,1-.46-.4,1,1,0,0,1-.15-.53,1.11,1.11,0,0,1,.18-.61,1.22,1.22,0,0,1,.54-.43,2,2,0,0,1,.79-.14,2.17,2.17,0,0,1,.84.15,1.23,1.23,0,0,1,.57.45,1.33,1.33,0,0,1,.21.68l-.55,0a.9.9,0,0,0-.3-.62,1.54,1.54,0,0,0-1.5,0,.56.56,0,0,0-.23.45.49.49,0,0,0,.16.38,2.38,2.38,0,0,0,.86.31,5.17,5.17,0,0,1,.95.27,1.34,1.34,0,0,1,.56.44,1.07,1.07,0,0,1,.18.61,1.21,1.21,0,0,1-.2.65,1.27,1.27,0,0,1-.57.47,2,2,0,0,1-.82.17,2.53,2.53,0,0,1-1-.17,1.49,1.49,0,0,1-.62-.51A1.4,1.4,0,0,1,29.46,28.46Z" transform="translate(-2.4 -4.9)"/><path class="cls-6" d="M33.58,29.84V25.55h.53v1.54a1.17,1.17,0,0,1,.93-.43,1.27,1.27,0,0,1,.6.14.78.78,0,0,1,.37.37,1.83,1.83,0,0,1,.11.7v2h-.53v-2a.83.83,0,0,0-.17-.57.64.64,0,0,0-.49-.18.88.88,0,0,0-.44.12.72.72,0,0,0-.29.33,1.48,1.48,0,0,0-.09.57v1.7Z" transform="translate(-2.4 -4.9)"/><path class="cls-6" d="M36.72,28.29A1.56,1.56,0,0,1,37.21,27a1.43,1.43,0,0,1,1-.35,1.39,1.39,0,0,1,1,.42,1.61,1.61,0,0,1,.41,1.16,2.09,2.09,0,0,1-.18,1,1.27,1.27,0,0,1-.52.53,1.51,1.51,0,0,1-.76.19,1.39,1.39,0,0,1-1-.42A1.65,1.65,0,0,1,36.72,28.29Zm.55,0a1.28,1.28,0,0,0,.26.89.82.82,0,0,0,.65.3.84.84,0,0,0,.66-.3,1.37,1.37,0,0,0,.26-.91,1.29,1.29,0,0,0-.26-.87.85.85,0,0,0-.66-.3.84.84,0,0,0-.65.29A1.31,1.31,0,0,0,37.27,28.29Z" transform="translate(-2.4 -4.9)"/><path class="cls-6" d="M40.25,29.84V26.73h.48v.47a1.27,1.27,0,0,1,.33-.43.6.6,0,0,1,.34-.11,1,1,0,0,1,.54.17l-.18.49a.72.72,0,0,0-.39-.11.52.52,0,0,0-.31.1.59.59,0,0,0-.19.29,2,2,0,0,0-.09.61v1.63Z" transform="translate(-2.4 -4.9)"/><path class="cls-6" d="M43.41,29.37l.07.47a2,2,0,0,1-.4,0,.9.9,0,0,1-.44-.09.46.46,0,0,1-.22-.24,1.61,1.61,0,0,1-.07-.62V27.14H42v-.41h.38V26l.53-.31v1.08h.53v.41h-.53V29a1.48,1.48,0,0,0,0,.29.19.19,0,0,0,.1.1.3.3,0,0,0,.18,0A1.11,1.11,0,0,0,43.41,29.37Z" transform="translate(-2.4 -4.9)"/><path class="cls-6" d="M43.72,28.55V28h1.62v.53Z" transform="translate(-2.4 -4.9)"/><path class="cls-6" d="M47.94,29.84v-.39a1,1,0,0,1-.87.46,1.16,1.16,0,0,1-.68-.2,1.44,1.44,0,0,1-.49-.57,2.25,2.25,0,0,1,0-1.69,1.19,1.19,0,0,1,.46-.59,1.3,1.3,0,0,1,.7-.2,1,1,0,0,1,.85.43V25.55h.53v4.29Zm-1.67-1.55a1.37,1.37,0,0,0,.25.89.77.77,0,0,0,.6.3.74.74,0,0,0,.59-.28,1.33,1.33,0,0,0,.24-.87,1.42,1.42,0,0,0-.25-.93.74.74,0,0,0-.6-.3.71.71,0,0,0-.59.29A1.38,1.38,0,0,0,46.27,28.29Z" transform="translate(-2.4 -4.9)"/><path class="cls-6" d="M51.3,29.84v-.45a1.14,1.14,0,0,1-1,.52,1.22,1.22,0,0,1-.51-.1.86.86,0,0,1-.36-.27.87.87,0,0,1-.16-.39,2.85,2.85,0,0,1,0-.49V26.73h.52v1.73a2.23,2.23,0,0,0,0,.55.53.53,0,0,0,.21.33.63.63,0,0,0,.4.12.88.88,0,0,0,.44-.12.62.62,0,0,0,.29-.33,1.63,1.63,0,0,0,.09-.61V26.73h.53v3.11Z" transform="translate(-2.4 -4.9)"/><path class="cls-6" d="M52.59,29.84V26.73h.47v.47a1.27,1.27,0,0,1,.34-.43.58.58,0,0,1,.34-.11,1,1,0,0,1,.54.17l-.18.49a.72.72,0,0,0-.39-.11.5.5,0,0,0-.31.1.61.61,0,0,0-.2.29,2.37,2.37,0,0,0-.08.61v1.63Z" transform="translate(-2.4 -4.9)"/><path class="cls-6" d="M56.62,29.46a1.83,1.83,0,0,1-.56.35,1.61,1.61,0,0,1-.58.1,1.12,1.12,0,0,1-.79-.25.83.83,0,0,1-.28-.64.81.81,0,0,1,.11-.41.91.91,0,0,1,.27-.31,1.46,1.46,0,0,1,.38-.17,4,4,0,0,1,.47-.08,4.88,4.88,0,0,0,.94-.18v-.14a.57.57,0,0,0-.15-.45.86.86,0,0,0-.6-.18.91.91,0,0,0-.55.13.81.81,0,0,0-.26.46l-.52-.07a1.34,1.34,0,0,1,.24-.54,1,1,0,0,1,.46-.31,2.2,2.2,0,0,1,.71-.11,1.74,1.74,0,0,1,.65.1.9.9,0,0,1,.36.23,1,1,0,0,1,.17.36,4.72,4.72,0,0,1,0,.49v.7a5.84,5.84,0,0,0,0,.93,1,1,0,0,0,.13.37h-.55A1.06,1.06,0,0,1,56.62,29.46Zm0-1.18a3.53,3.53,0,0,1-.86.2,1.8,1.8,0,0,0-.46.11.44.44,0,0,0-.21.17.47.47,0,0,0,.09.6.68.68,0,0,0,.46.14,1.09,1.09,0,0,0,.55-.13.81.81,0,0,0,.34-.37,1.18,1.18,0,0,0,.09-.52Z" transform="translate(-2.4 -4.9)"/><path class="cls-6" d="M59.08,29.37l.08.47a2,2,0,0,1-.4,0,1,1,0,0,1-.45-.09.51.51,0,0,1-.22-.24,2,2,0,0,1-.06-.62V27.14h-.39v-.41H58V26l.52-.31v1.08h.53v.41h-.53V29a.85.85,0,0,0,0,.29.22.22,0,0,0,.09.1.3.3,0,0,0,.18,0A1,1,0,0,0,59.08,29.37Z" transform="translate(-2.4 -4.9)"/><path class="cls-6" d="M59.6,26.15v-.6h.53v.6Zm0,3.69V26.73h.53v3.11Z" transform="translate(-2.4 -4.9)"/><path class="cls-6" d="M60.73,28.29A1.59,1.59,0,0,1,61.21,27a1.47,1.47,0,0,1,1-.35,1.39,1.39,0,0,1,1.05.42,1.61,1.61,0,0,1,.41,1.16,2.09,2.09,0,0,1-.18,1,1.23,1.23,0,0,1-.53.53,1.49,1.49,0,0,1-.75.19,1.38,1.38,0,0,1-1-.42A1.65,1.65,0,0,1,60.73,28.29Zm.55,0a1.28,1.28,0,0,0,.26.89.82.82,0,0,0,.65.3.85.85,0,0,0,.66-.3,1.37,1.37,0,0,0,.26-.91,1.24,1.24,0,0,0-.27-.87.82.82,0,0,0-.65-.3.84.84,0,0,0-.65.29A1.31,1.31,0,0,0,61.28,28.29Z" transform="translate(-2.4 -4.9)"/><path class="cls-6" d="M64.27,29.84V26.73h.47v.44a1.12,1.12,0,0,1,1-.51,1.46,1.46,0,0,1,.52.1.82.82,0,0,1,.35.27,1.15,1.15,0,0,1,.17.39,3.27,3.27,0,0,1,0,.51v1.91h-.52V28a1.48,1.48,0,0,0-.06-.48.55.55,0,0,0-.22-.26.75.75,0,0,0-.37-.09.86.86,0,0,0-.58.21,1.09,1.09,0,0,0-.25.81v1.7Z" transform="translate(-2.4 -4.9)"/><path class="cls-6" d="M29.58,37V33.93h.47v.47a1.16,1.16,0,0,1,.34-.43.57.57,0,0,1,.33-.11,1.1,1.1,0,0,1,.55.17l-.19.49a.67.67,0,0,0-.38-.11.48.48,0,0,0-.31.1.61.61,0,0,0-.2.29,2,2,0,0,0-.09.61V37Z" transform="translate(-2.4 -4.9)"/><path class="cls-6" d="M33.62,37v-.45a1.13,1.13,0,0,1-1,.52,1.25,1.25,0,0,1-.51-.1.86.86,0,0,1-.36-.27,1,1,0,0,1-.16-.39,2.85,2.85,0,0,1,0-.49V33.93h.53v1.73a3.2,3.2,0,0,0,0,.55.53.53,0,0,0,.21.33.65.65,0,0,0,.4.12.86.86,0,0,0,.44-.12.68.68,0,0,0,.3-.33,1.91,1.91,0,0,0,.08-.61V33.93h.53V37Z" transform="translate(-2.4 -4.9)"/><path class="cls-6" d="M34.92,37V33.93h.47v.44a1.12,1.12,0,0,1,1-.51,1.46,1.46,0,0,1,.52.1.82.82,0,0,1,.35.27,1.15,1.15,0,0,1,.17.39,3,3,0,0,1,0,.51V37h-.53V35.15a1.48,1.48,0,0,0-.06-.48.55.55,0,0,0-.22-.26.75.75,0,0,0-.37-.09.86.86,0,0,0-.58.21,1.09,1.09,0,0,0-.25.81V37Z" transform="translate(-2.4 -4.9)"/><path class="cls-6" d="M38.25,37V33.93h.48v.44a1.12,1.12,0,0,1,1-.51,1.46,1.46,0,0,1,.52.1.89.89,0,0,1,.35.27,1,1,0,0,1,.16.39,3,3,0,0,1,0,.51V37h-.53V35.15a1.48,1.48,0,0,0-.06-.48.53.53,0,0,0-.21-.26.75.75,0,0,0-.37-.09.84.84,0,0,0-.58.21,1,1,0,0,0-.25.81V37Z" transform="translate(-2.4 -4.9)"/><path class="cls-6" d="M41.59,33.35v-.6h.53v.6Zm0,3.69V33.93h.53V37Z" transform="translate(-2.4 -4.9)"/><path class="cls-6" d="M42.92,37V33.93h.48v.44a1.12,1.12,0,0,1,1-.51,1.46,1.46,0,0,1,.52.1.89.89,0,0,1,.35.27,1,1,0,0,1,.16.39,3,3,0,0,1,0,.51V37h-.53V35.15a1.48,1.48,0,0,0-.06-.48.53.53,0,0,0-.21-.26.75.75,0,0,0-.37-.09.84.84,0,0,0-.58.21,1,1,0,0,0-.25.81V37Z" transform="translate(-2.4 -4.9)"/><path class="cls-6" d="M46.16,37.3l.52.08a.46.46,0,0,0,.18.34.86.86,0,0,0,.53.15.94.94,0,0,0,.57-.15.71.71,0,0,0,.27-.41,3.43,3.43,0,0,0,0-.67,1.07,1.07,0,0,1-.86.4,1.17,1.17,0,0,1-1-.46,1.81,1.81,0,0,1-.35-1.11,2,2,0,0,1,.16-.82,1.24,1.24,0,0,1,.47-.58,1.22,1.22,0,0,1,.72-.21,1.09,1.09,0,0,1,.9.45v-.38h.49v2.69a2.5,2.5,0,0,1-.15,1,1.09,1.09,0,0,1-.47.48,1.57,1.57,0,0,1-.79.18,1.49,1.49,0,0,1-.89-.25A.88.88,0,0,1,46.16,37.3Zm.44-1.87a1.38,1.38,0,0,0,.24.9.81.81,0,0,0,.61.28.78.78,0,0,0,.61-.28,1.28,1.28,0,0,0,.25-.88,1.32,1.32,0,0,0-.25-.86.81.81,0,0,0-.62-.29.74.74,0,0,0-.59.28A1.25,1.25,0,0,0,46.6,35.43Z" transform="translate(-2.4 -4.9)"/><path class="cls-6" d="M51.26,37V33.93h.47v.47a1.27,1.27,0,0,1,.34-.43.58.58,0,0,1,.34-.11A1.06,1.06,0,0,1,53,34l-.18.49a.72.72,0,0,0-.39-.11.5.5,0,0,0-.31.1.61.61,0,0,0-.2.29,2.37,2.37,0,0,0-.08.61V37Z" transform="translate(-2.4 -4.9)"/><path class="cls-6" d="M55.29,36.66a1.83,1.83,0,0,1-.56.35,1.61,1.61,0,0,1-.58.1,1.12,1.12,0,0,1-.79-.25.83.83,0,0,1-.28-.64.81.81,0,0,1,.11-.41.91.91,0,0,1,.27-.31,1.46,1.46,0,0,1,.38-.17,4,4,0,0,1,.47-.08,4.88,4.88,0,0,0,.94-.18v-.14a.57.57,0,0,0-.15-.45.86.86,0,0,0-.6-.18.91.91,0,0,0-.55.13.81.81,0,0,0-.26.46l-.52-.07a1.24,1.24,0,0,1,.24-.53.93.93,0,0,1,.46-.32,2.2,2.2,0,0,1,.71-.11,1.74,1.74,0,0,1,.65.1.9.9,0,0,1,.36.23,1,1,0,0,1,.17.36,4.72,4.72,0,0,1,0,.49v.7a5.84,5.84,0,0,0,0,.93A1,1,0,0,0,56,37H55.4A1.06,1.06,0,0,1,55.29,36.66Zm0-1.18a3.53,3.53,0,0,1-.86.2,1.8,1.8,0,0,0-.46.11.44.44,0,0,0-.21.17.47.47,0,0,0,.09.6.68.68,0,0,0,.46.14,1.09,1.09,0,0,0,.55-.13.81.81,0,0,0,.34-.37,1.18,1.18,0,0,0,.09-.52Z" transform="translate(-2.4 -4.9)"/><path class="cls-6" d="M56.6,37V33.93h.47v.44a1.12,1.12,0,0,1,1-.51,1.46,1.46,0,0,1,.52.1.76.76,0,0,1,.35.27,1,1,0,0,1,.17.39,3,3,0,0,1,0,.51V37H58.6V35.15a1.48,1.48,0,0,0-.06-.48.5.5,0,0,0-.22-.26.72.72,0,0,0-.37-.09.86.86,0,0,0-.58.21,1.09,1.09,0,0,0-.24.81V37Z" transform="translate(-2.4 -4.9)"/><path class="cls-6" d="M59.84,37.3l.51.08a.46.46,0,0,0,.18.34.87.87,0,0,0,.54.15.91.91,0,0,0,.56-.15.63.63,0,0,0,.27-.41,3.16,3.16,0,0,0,0-.67,1.08,1.08,0,0,1-.86.4,1.15,1.15,0,0,1-1-.46,1.76,1.76,0,0,1-.36-1.11,2,2,0,0,1,.17-.82,1.22,1.22,0,0,1,.46-.58,1.27,1.27,0,0,1,.72-.21,1.11,1.11,0,0,1,.91.45v-.38h.49v2.69a2.5,2.5,0,0,1-.15,1,1.14,1.14,0,0,1-.47.48,1.59,1.59,0,0,1-.79.18,1.55,1.55,0,0,1-.9-.25A.85.85,0,0,1,59.84,37.3Zm.44-1.87a1.38,1.38,0,0,0,.24.9.78.78,0,0,0,.61.28.81.81,0,0,0,.61-.28,1.34,1.34,0,0,0,.24-.88,1.26,1.26,0,0,0-.25-.86.79.79,0,0,0-.61-.29.78.78,0,0,0-.6.28A1.31,1.31,0,0,0,60.28,35.43Z" transform="translate(-2.4 -4.9)"/><path class="cls-6" d="M65.4,36l.55.07a1.37,1.37,0,0,1-.48.74,1.62,1.62,0,0,1-2-.16,1.62,1.62,0,0,1-.4-1.18,1.68,1.68,0,0,1,.4-1.21,1.37,1.37,0,0,1,1-.44,1.3,1.3,0,0,1,1,.43,1.69,1.69,0,0,1,.4,1.19s0,.08,0,.14H63.64a1.23,1.23,0,0,0,.29.79.88.88,0,0,0,.65.27.82.82,0,0,0,.5-.15A1.07,1.07,0,0,0,65.4,36Zm-1.73-.85h1.74a1,1,0,0,0-.2-.59A.87.87,0,0,0,64,34.54,1,1,0,0,0,63.67,35.19Z" transform="translate(-2.4 -4.9)"/><path d="M6.7,55.72H2.91v1.41H2.4v-3.4h.51v1.42H6.7Z" transform="translate(-2.4 -4.9)"/><path d="M6.7,53.21H2.4v-.53H3.94a1.17,1.17,0,0,1-.42-.93,1.26,1.26,0,0,1,.13-.6A.78.78,0,0,1,4,50.79a1.62,1.62,0,0,1,.7-.11h2v.52h-2a.79.79,0,0,0-.58.18.62.62,0,0,0-.18.48.86.86,0,0,0,.12.44.68.68,0,0,0,.33.3,1.75,1.75,0,0,0,.58.08H6.7Z" transform="translate(-2.4 -4.9)"/><path d="M6.7,49.88H3.59v-.47h.47a1.48,1.48,0,0,1-.44-.34.59.59,0,0,1-.1-.34,1,1,0,0,1,.17-.54l.48.18a.82.82,0,0,0-.11.39.57.57,0,0,0,.1.31.53.53,0,0,0,.29.19,2.06,2.06,0,0,0,.62.09H6.7Z" transform="translate(-2.4 -4.9)"/><path d="M6.7,45.84H6.24a1.14,1.14,0,0,1,.53,1,1.27,1.27,0,0,1-.11.52.82.82,0,0,1-.26.35,1.15,1.15,0,0,1-.39.17,3,3,0,0,1-.5,0H3.59v-.53H5.31a3.35,3.35,0,0,0,.56,0,.57.57,0,0,0,.32-.21.65.65,0,0,0,.12-.4.89.89,0,0,0-.12-.45A.66.66,0,0,0,5.86,46a1.6,1.6,0,0,0-.61-.09H3.59v-.52H6.7Z" transform="translate(-2.4 -4.9)"/><path d="M5.77,44.75l-.08-.52A.7.7,0,0,0,6.17,44a.85.85,0,0,0,.16-.56.89.89,0,0,0-.14-.54.47.47,0,0,0-.35-.17.32.32,0,0,0-.28.15,2.29,2.29,0,0,0-.18.54,5.44,5.44,0,0,1-.25.81.83.83,0,0,1-.3.34.88.88,0,0,1-.42.11A.82.82,0,0,1,4,44.57a.94.94,0,0,1-.3-.26A1.08,1.08,0,0,1,3.58,44a1.63,1.63,0,0,1-.06-.45,1.85,1.85,0,0,1,.1-.65.92.92,0,0,1,.29-.41,1.34,1.34,0,0,1,.48-.18l.07.52a.57.57,0,0,0-.38.2.74.74,0,0,0-.13.48.89.89,0,0,0,.12.52.35.35,0,0,0,.28.15.33.33,0,0,0,.19-.06.64.64,0,0,0,.14-.2c0-.06.06-.21.13-.47a5.57,5.57,0,0,1,.25-.78.71.71,0,0,1,.72-.47.91.91,0,0,1,.5.15.93.93,0,0,1,.36.44,1.59,1.59,0,0,1,.13.66,1.5,1.5,0,0,1-.25.92A1.16,1.16,0,0,1,5.77,44.75Z" transform="translate(-2.4 -4.9)"/><path d="M6.23,40.39l.46-.08a2.08,2.08,0,0,1,0,.4,1,1,0,0,1-.09.45.56.56,0,0,1-.24.22,2,2,0,0,1-.62.06H4v.39H3.59v-.39H2.82l-.32-.52H3.59v-.53H4v.53H5.82a.89.89,0,0,0,.29,0,.28.28,0,0,0,.1-.09.4.4,0,0,0,0-.18C6.25,40.56,6.24,40.48,6.23,40.39Z" transform="translate(-2.4 -4.9)"/><path d="M7.89,38.19H2.4V37h.44v.64H7.45V37h.44Z" transform="translate(-2.4 -4.9)"/><path d="M6.7,36.48H2.4v-.59l3.37-2.25H2.4v-.55H6.7v.59L3.32,35.93H6.7Z" transform="translate(-2.4 -4.9)"/><path d="M7.89,31.32v1.17H7.45v-.64H2.84v.64H2.4V31.32Z" transform="translate(-2.4 -4.9)"/><path d="M45.51,92.21l.54,0a1.08,1.08,0,0,0,.18.53.87.87,0,0,0,.43.33,1.53,1.53,0,0,0,.66.13,1.45,1.45,0,0,0,.57-.1.75.75,0,0,0,.37-.26.65.65,0,0,0,.12-.37.58.58,0,0,0-.11-.35.92.92,0,0,0-.39-.26l-.76-.21a3.16,3.16,0,0,1-.83-.27,1.07,1.07,0,0,1-.46-.4.94.94,0,0,1-.15-.53,1.1,1.1,0,0,1,.72-1,2.22,2.22,0,0,1,.79-.14,2.17,2.17,0,0,1,.84.15,1.2,1.2,0,0,1,.56.45,1.33,1.33,0,0,1,.21.68l-.54,0a.85.85,0,0,0-.3-.61,1.16,1.16,0,0,0-.75-.21,1.18,1.18,0,0,0-.75.19.54.54,0,0,0-.24.45.49.49,0,0,0,.17.38,2.2,2.2,0,0,0,.86.31,6.15,6.15,0,0,1,1,.27,1.31,1.31,0,0,1,.55.44,1.07,1.07,0,0,1,.18.61,1.17,1.17,0,0,1-.19.65,1.33,1.33,0,0,1-.57.47,2,2,0,0,1-.83.17,2.51,2.51,0,0,1-1-.17,1.3,1.3,0,0,1-.62-.51A1.49,1.49,0,0,1,45.51,92.21Z" transform="translate(-2.4 -4.9)"/><path d="M49.64,94.78V90.47h.48v.41a1.17,1.17,0,0,1,.38-.36A1.08,1.08,0,0,1,51,90.4a1.24,1.24,0,0,1,.71.21,1.34,1.34,0,0,1,.46.58,2.18,2.18,0,0,1,.15.82,2.2,2.2,0,0,1-.17.86,1.34,1.34,0,0,1-1.18.79,1,1,0,0,1-.48-.12.93.93,0,0,1-.34-.28v1.52Zm.48-2.73a1.34,1.34,0,0,0,.24.88.72.72,0,0,0,.59.29.75.75,0,0,0,.6-.3A1.37,1.37,0,0,0,51.8,92a1.41,1.41,0,0,0-.24-.89.75.75,0,0,0-.59-.29.74.74,0,0,0-.59.31A1.38,1.38,0,0,0,50.12,92.05Z" transform="translate(-2.4 -4.9)"/><path d="M55.11,92.58l.54.07a1.24,1.24,0,0,1-.48.74,1.39,1.39,0,0,1-.89.27,1.43,1.43,0,0,1-1.08-.42,1.68,1.68,0,0,1-.4-1.18,1.71,1.71,0,0,1,.41-1.22,1.37,1.37,0,0,1,1-.44,1.3,1.3,0,0,1,1,.43,1.65,1.65,0,0,1,.4,1.19v.14H53.35a1.16,1.16,0,0,0,.29.79.86.86,0,0,0,.65.27.79.79,0,0,0,.49-.15A1,1,0,0,0,55.11,92.58Zm-1.73-.85h1.73a1,1,0,0,0-.2-.59.79.79,0,0,0-.65-.3.84.84,0,0,0-.61.24A.9.9,0,0,0,53.38,91.73Z" transform="translate(-2.4 -4.9)"/><path d="M58.44,92.58l.55.07a1.34,1.34,0,0,1-.48.74,1.41,1.41,0,0,1-.89.27,1.43,1.43,0,0,1-1.08-.42,1.64,1.64,0,0,1-.4-1.18,1.71,1.71,0,0,1,.4-1.22,1.37,1.37,0,0,1,1.05-.44,1.3,1.3,0,0,1,1,.43A1.65,1.65,0,0,1,59,92a.82.82,0,0,1,0,.14H56.68A1.21,1.21,0,0,0,57,93a.88.88,0,0,0,.65.27.82.82,0,0,0,.5-.15A1,1,0,0,0,58.44,92.58Zm-1.73-.85h1.74a1,1,0,0,0-.2-.59.81.81,0,0,0-.65-.3.84.84,0,0,0-.61.24A1,1,0,0,0,56.71,91.73Z" transform="translate(-2.4 -4.9)"/><path d="M61.67,93.58v-.39a1,1,0,0,1-.87.47,1.16,1.16,0,0,1-.68-.21,1.44,1.44,0,0,1-.49-.57,2.25,2.25,0,0,1,0-1.69,1.18,1.18,0,0,1,.46-.58,1.23,1.23,0,0,1,.7-.21,1,1,0,0,1,.85.43V89.29h.53v4.29ZM60,92a1.42,1.42,0,0,0,.25.9.79.79,0,0,0,.6.29.74.74,0,0,0,.59-.28,1.32,1.32,0,0,0,.24-.86,1.43,1.43,0,0,0-.25-.94.75.75,0,0,0-1.19,0A1.38,1.38,0,0,0,60,92Z" transform="translate(-2.4 -4.9)"/><path d="M64.67,94.78V89.29h1.16v.44h-.64v4.61h.64v.44Z" transform="translate(-2.4 -4.9)"/><path d="M66.32,93.58V90.47h.47v.44a1.26,1.26,0,0,1,.39-.37,1.16,1.16,0,0,1,.56-.14,1,1,0,0,1,.56.15.75.75,0,0,1,.32.4,1.09,1.09,0,0,1,1-.55,1,1,0,0,1,.71.26,1.07,1.07,0,0,1,.25.79v2.13H70v-2a1.25,1.25,0,0,0-.05-.45.39.39,0,0,0-.18-.22.57.57,0,0,0-.32-.09.7.7,0,0,0-.54.22.93.93,0,0,0-.22.7v1.8h-.53v-2A.83.83,0,0,0,68,91a.47.47,0,0,0-.42-.18.73.73,0,0,0-.41.12.67.67,0,0,0-.28.34,2.15,2.15,0,0,0-.08.65v1.61Z" transform="translate(-2.4 -4.9)"/><path d="M70.92,93.66l1.25-4.44h.42l-1.24,4.44Z" transform="translate(-2.4 -4.9)"/><path d="M72.78,92.66l.52-.09a.74.74,0,0,0,.24.48.82.82,0,0,0,.56.17.79.79,0,0,0,.54-.15.42.42,0,0,0,.18-.34.3.3,0,0,0-.16-.28,2,2,0,0,0-.54-.18,5.32,5.32,0,0,1-.8-.26.81.81,0,0,1-.34-.29.79.79,0,0,1-.12-.42.8.8,0,0,1,.1-.38.83.83,0,0,1,.26-.3,1,1,0,0,1,.33-.15A1.43,1.43,0,0,1,74,90.4a1.79,1.79,0,0,1,.64.11.85.85,0,0,1,.41.28,1.14,1.14,0,0,1,.18.49l-.51.07a.58.58,0,0,0-.21-.38.73.73,0,0,0-.47-.13.87.87,0,0,0-.52.12.36.36,0,0,0-.16.28.29.29,0,0,0,.07.18.38.38,0,0,0,.2.14l.47.14a8,8,0,0,1,.78.24.86.86,0,0,1,.34.28.73.73,0,0,1,.13.45.91.91,0,0,1-.15.5,1.09,1.09,0,0,1-.45.36,1.67,1.67,0,0,1-.65.13,1.45,1.45,0,0,1-.93-.26A1.1,1.1,0,0,1,72.78,92.66Z" transform="translate(-2.4 -4.9)"/><path d="M76.87,94.78H75.71v-.44h.63V89.73h-.63v-.44h1.16Z" transform="translate(-2.4 -4.9)"/><path class="cls-6" d="M22.53,79.76a4,4,0,0,1,.15-1.22,1.56,1.56,0,0,1,.47-.72,1.35,1.35,0,0,1,1.38-.11,1,1,0,0,1,.43.4,1.87,1.87,0,0,1,.27.64,4.38,4.38,0,0,1,.1,1A4.05,4.05,0,0,1,25.17,81a1.55,1.55,0,0,1-.46.72A1.32,1.32,0,0,1,23,81.51,2.87,2.87,0,0,1,22.53,79.76Zm.54,0a2.75,2.75,0,0,0,.24,1.41.72.72,0,0,0,1.23,0,2.81,2.81,0,0,0,.24-1.41,2.75,2.75,0,0,0-.24-1.41.75.75,0,0,0-.62-.35.69.69,0,0,0-.58.31A2.75,2.75,0,0,0,23.07,79.76Z" transform="translate(-2.4 -4.9)"/><path d="M98.54,86v-1H96.68v-.48l2-2.78h.43v2.78h.58v.48h-.58v1Zm0-1.51V82.5L97.2,84.44Z" transform="translate(-2.4 -4.9)"/><path d="M64.32,85.44V86H61.49a.78.78,0,0,1,.06-.37,1.91,1.91,0,0,1,.34-.57,6.56,6.56,0,0,1,.69-.65,5.27,5.27,0,0,0,1-.91,1.1,1.1,0,0,0,.25-.63.7.7,0,0,0-.23-.53.93.93,0,0,0-1.19,0,.9.9,0,0,0-.23.64l-.55-.06A1.35,1.35,0,0,1,62,82a1.46,1.46,0,0,1,1-.32A1.36,1.36,0,0,1,64,82a1.13,1.13,0,0,1,.36.85,1.34,1.34,0,0,1-.11.51,1.82,1.82,0,0,1-.35.52,7.18,7.18,0,0,1-.81.76,6.34,6.34,0,0,0-.61.54,1.79,1.79,0,0,0-.22.28Z" transform="translate(-2.4 -4.9)"/><path class="cls-6" d="M13.28,62.76h-.53V59.4a2.7,2.7,0,0,1-.5.36,2.86,2.86,0,0,1-.55.28v-.51a3.22,3.22,0,0,0,.77-.51,1.94,1.94,0,0,0,.47-.57h.34Z" transform="translate(-2.4 -4.9)"/><path class="cls-6" d="M16.17,62.76h-.53V59.4a2.4,2.4,0,0,1-.5.36,2.86,2.86,0,0,1-.55.28v-.51a3.22,3.22,0,0,0,.77-.51,1.94,1.94,0,0,0,.47-.57h.34Z" transform="translate(-2.4 -4.9)"/><path class="cls-6" d="M17.56,59v-.51h2.78v.41a5.7,5.7,0,0,0-.82,1.16,8,8,0,0,0-.62,1.49,5.92,5.92,0,0,0-.2,1.18h-.54a4.8,4.8,0,0,1,.2-1.22,6.56,6.56,0,0,1,.54-1.39A5.91,5.91,0,0,1,19.66,59Z" transform="translate(-2.4 -4.9)"/><path class="cls-6" d="M21.15,62.76v-.6h.6v.6Z" transform="translate(-2.4 -4.9)"/><path class="cls-6" d="M22.53,60.64a4.09,4.09,0,0,1,.15-1.22,1.56,1.56,0,0,1,.47-.72,1.16,1.16,0,0,1,.78-.25,1.27,1.27,0,0,1,.6.14A1.1,1.1,0,0,1,25,59a2,2,0,0,1,.27.64,4.44,4.44,0,0,1,.1,1,4,4,0,0,1-.16,1.22,1.55,1.55,0,0,1-.46.72,1.2,1.2,0,0,1-.78.25,1.17,1.17,0,0,1-1-.44A2.87,2.87,0,0,1,22.53,60.64Zm.54,0a2.75,2.75,0,0,0,.24,1.41.73.73,0,0,0,.62.35.75.75,0,0,0,.61-.35,2.75,2.75,0,0,0,.24-1.41,2.81,2.81,0,0,0-.24-1.41.74.74,0,0,0-.62-.34.68.68,0,0,0-.58.3A2.78,2.78,0,0,0,23.07,60.64Z" transform="translate(-2.4 -4.9)"/><path class="cls-6" d="M13.62,48.46V49H10.78a1.15,1.15,0,0,1,.06-.37,2,2,0,0,1,.35-.57,6.56,6.56,0,0,1,.69-.65,5.64,5.64,0,0,0,.95-.91,1.08,1.08,0,0,0,.24-.63.69.69,0,0,0-.22-.53.84.84,0,0,0-.59-.22.85.85,0,0,0-.61.23.9.9,0,0,0-.23.64l-.54-.06A1.35,1.35,0,0,1,11.3,45a1.39,1.39,0,0,1,1-.32,1.34,1.34,0,0,1,1,.34,1.13,1.13,0,0,1,.36.85,1.32,1.32,0,0,1-.1.51,2.06,2.06,0,0,1-.35.52,10.12,10.12,0,0,1-.82.76,7.21,7.21,0,0,0-.6.54,1.89,1.89,0,0,0-.23.28Z" transform="translate(-2.4 -4.9)"/><path class="cls-6" d="M14.18,46.85a4,4,0,0,1,.16-1.22,1.56,1.56,0,0,1,.47-.72,1.15,1.15,0,0,1,.77-.25,1.17,1.17,0,0,1,.61.14,1,1,0,0,1,.43.4,2.09,2.09,0,0,1,.27.64,4.44,4.44,0,0,1,.1,1,4,4,0,0,1-.16,1.22,1.55,1.55,0,0,1-.46.72,1.21,1.21,0,0,1-.79.25,1.17,1.17,0,0,1-1-.44A2.86,2.86,0,0,1,14.18,46.85Zm.55,0A2.75,2.75,0,0,0,15,48.26a.72.72,0,0,0,1.23,0,2.78,2.78,0,0,0,.24-1.41,2.81,2.81,0,0,0-.24-1.41.75.75,0,0,0-.62-.35.69.69,0,0,0-.58.31A2.75,2.75,0,0,0,14.73,46.85Z" transform="translate(-2.4 -4.9)"/><path class="cls-6" d="M17.52,46.85a3.72,3.72,0,0,1,.16-1.22,1.55,1.55,0,0,1,.46-.72,1.2,1.2,0,0,1,.78-.25,1.22,1.22,0,0,1,.61.14,1.1,1.1,0,0,1,.43.4,2.37,2.37,0,0,1,.27.64,4.53,4.53,0,0,1,.09,1,4,4,0,0,1-.15,1.22,1.56,1.56,0,0,1-.47.72A1.31,1.31,0,0,1,18,48.6,2.79,2.79,0,0,1,17.52,46.85Zm.54,0a2.73,2.73,0,0,0,.25,1.41.75.75,0,0,0,.61.35.73.73,0,0,0,.61-.35,2.65,2.65,0,0,0,.25-1.41,2.68,2.68,0,0,0-.25-1.41.73.73,0,0,0-.61-.35.67.67,0,0,0-.58.31A2.64,2.64,0,0,0,18.06,46.85Z" transform="translate(-2.4 -4.9)"/><path class="cls-1" d="M21.15,49v-.6h.6V49Z" transform="translate(-2.4 -4.9)"/><path class="cls-1" d="M22.53,46.85a4,4,0,0,1,.15-1.22,1.56,1.56,0,0,1,.47-.72,1.35,1.35,0,0,1,1.38-.11,1,1,0,0,1,.43.4,1.87,1.87,0,0,1,.27.64,4.44,4.44,0,0,1,.1,1,4,4,0,0,1-.16,1.22,1.55,1.55,0,0,1-.46.72,1.2,1.2,0,0,1-.78.25,1.17,1.17,0,0,1-1-.44A2.87,2.87,0,0,1,22.53,46.85Zm.54,0a2.75,2.75,0,0,0,.24,1.41.72.72,0,0,0,1.23,0,2.78,2.78,0,0,0,.24-1.41,2.81,2.81,0,0,0-.24-1.41.75.75,0,0,0-.62-.35.69.69,0,0,0-.58.31A2.75,2.75,0,0,0,23.07,46.85Z" transform="translate(-2.4 -4.9)"/><path class="cls-6" d="M10.85,20.07l.53-.07a1.13,1.13,0,0,0,.31.64.76.76,0,0,0,.53.2.87.87,0,0,0,.88-.9.79.79,0,0,0-.84-.83,1.48,1.48,0,0,0-.37.06L12,18.7H12a1.07,1.07,0,0,0,.61-.18.58.58,0,0,0,.27-.54.66.66,0,0,0-.2-.48.68.68,0,0,0-.5-.19.77.77,0,0,0-.52.19,1,1,0,0,0-.26.58L10.9,18a1.37,1.37,0,0,1,.44-.82,1.26,1.26,0,0,1,.86-.29,1.37,1.37,0,0,1,.64.15,1.15,1.15,0,0,1,.46.41,1.08,1.08,0,0,1,.15.55.9.9,0,0,1-.15.51,1,1,0,0,1-.44.36,1,1,0,0,1,.59.37,1.09,1.09,0,0,1,.21.69,1.26,1.26,0,0,1-.41,1,1.44,1.44,0,0,1-1,.39,1.37,1.37,0,0,1-.94-.34A1.35,1.35,0,0,1,10.85,20.07Z" transform="translate(-2.4 -4.9)"/><path class="cls-6" d="M16.92,18l-.52,0a1.05,1.05,0,0,0-.2-.45.74.74,0,0,0-1-.09,1.22,1.22,0,0,0-.4.53,2.88,2.88,0,0,0-.14,1,1.21,1.21,0,0,1,.46-.44,1.3,1.3,0,0,1,.58-.14,1.2,1.2,0,0,1,.9.39,1.44,1.44,0,0,1,.37,1,1.6,1.6,0,0,1-.18.75,1.18,1.18,0,0,1-.48.53,1.31,1.31,0,0,1-.69.18,1.34,1.34,0,0,1-1.07-.48,2.43,2.43,0,0,1-.42-1.6,2.85,2.85,0,0,1,.46-1.81,1.32,1.32,0,0,1,1.08-.49,1.19,1.19,0,0,1,.83.28A1.18,1.18,0,0,1,16.92,18Zm-2.15,1.85a1.35,1.35,0,0,0,.11.52.88.88,0,0,0,.33.38.77.77,0,0,0,.43.13.74.74,0,0,0,.58-.27,1.05,1.05,0,0,0,.24-.73,1,1,0,0,0-.24-.7.82.82,0,0,0-1.2,0A.9.9,0,0,0,14.77,19.81Z" transform="translate(-2.4 -4.9)"/><path class="cls-6" d="M17.6,20.21l.51-.05a.87.87,0,0,0,.24.52.67.67,0,0,0,.47.16.89.89,0,0,0,.43-.11,1,1,0,0,0,.3-.3,1.87,1.87,0,0,0,.19-.5,2.82,2.82,0,0,0,.08-.65v-.1a1.3,1.3,0,0,1-.43.41,1.24,1.24,0,0,1-.6.15,1.19,1.19,0,0,1-.9-.38,1.6,1.6,0,0,1,0-2.07,1.26,1.26,0,0,1,1-.4,1.38,1.38,0,0,1,.77.22,1.43,1.43,0,0,1,.53.65,3.12,3.12,0,0,1,.18,1.2,4,4,0,0,1-.18,1.32,1.59,1.59,0,0,1-.53.74,1.4,1.4,0,0,1-.83.25A1.21,1.21,0,0,1,18,21,1.19,1.19,0,0,1,17.6,20.21Zm2.16-1.9a1,1,0,0,0-.24-.72.76.76,0,0,0-.58-.27.83.83,0,0,0-.62.29,1.09,1.09,0,0,0-.26.75.93.93,0,0,0,.25.66.83.83,0,0,0,.61.26.76.76,0,0,0,.6-.26A1,1,0,0,0,19.76,18.31Z" transform="translate(-2.4 -4.9)"/><path class="cls-6" d="M21.15,21.2v-.6h.6v.6Z" transform="translate(-2.4 -4.9)"/><path class="cls-6" d="M22.53,19.08a4,4,0,0,1,.15-1.22,1.56,1.56,0,0,1,.47-.72A1.35,1.35,0,0,1,24.53,17a1,1,0,0,1,.43.4,1.87,1.87,0,0,1,.27.64,4.44,4.44,0,0,1,.1,1,4,4,0,0,1-.16,1.22,1.55,1.55,0,0,1-.46.72A1.32,1.32,0,0,1,23,20.83,2.87,2.87,0,0,1,22.53,19.08Zm.54,0a2.75,2.75,0,0,0,.24,1.41.72.72,0,0,0,1.23,0,2.78,2.78,0,0,0,.24-1.41,2.81,2.81,0,0,0-.24-1.41.75.75,0,0,0-.62-.35.69.69,0,0,0-.58.31A2.75,2.75,0,0,0,23.07,19.08Z" transform="translate(-2.4 -4.9)"/><path class="cls-6" d="M12.54,15.61v-1H10.67V14.1l2-2.79h.44V14.1h.58v.48h-.58v1Zm0-1.51V12.16L11.19,14.1Z" transform="translate(-2.4 -4.9)"/><path class="cls-6" d="M14.18,13.49a4.08,4.08,0,0,1,.16-1.23,1.53,1.53,0,0,1,.47-.71,1.15,1.15,0,0,1,.77-.25,1.17,1.17,0,0,1,.61.14,1,1,0,0,1,.43.4,2,2,0,0,1,.27.64,4.38,4.38,0,0,1,.1,1,4.05,4.05,0,0,1-.16,1.22,1.55,1.55,0,0,1-.46.72,1.21,1.21,0,0,1-.79.25,1.19,1.19,0,0,1-1-.44A2.86,2.86,0,0,1,14.18,13.49Zm.55,0A2.78,2.78,0,0,0,15,14.9a.72.72,0,0,0,1.23,0,2.81,2.81,0,0,0,.24-1.41,2.75,2.75,0,0,0-.24-1.41.75.75,0,0,0-.62-.35A.66.66,0,0,0,15,12,2.75,2.75,0,0,0,14.73,13.49Z" transform="translate(-2.4 -4.9)"/><path class="cls-6" d="M17.52,13.49a3.78,3.78,0,0,1,.16-1.23,1.52,1.52,0,0,1,.46-.71,1.2,1.2,0,0,1,.78-.25,1.22,1.22,0,0,1,.61.14,1.1,1.1,0,0,1,.43.4,2.24,2.24,0,0,1,.27.64,4.46,4.46,0,0,1,.09,1,4.09,4.09,0,0,1-.15,1.22,1.56,1.56,0,0,1-.47.72,1.16,1.16,0,0,1-.78.25,1.18,1.18,0,0,1-1-.44A2.79,2.79,0,0,1,17.52,13.49Zm.54,0a2.75,2.75,0,0,0,.25,1.41.75.75,0,0,0,.61.35.73.73,0,0,0,.61-.35,2.68,2.68,0,0,0,.25-1.41,2.63,2.63,0,0,0-.25-1.41.73.73,0,0,0-.61-.35.65.65,0,0,0-.58.31A2.64,2.64,0,0,0,18.06,13.49Z" transform="translate(-2.4 -4.9)"/><path class="cls-1" d="M21.15,15.61V15h.6v.6Z" transform="translate(-2.4 -4.9)"/><path class="cls-1" d="M22.53,13.49a4.12,4.12,0,0,1,.15-1.23,1.53,1.53,0,0,1,.47-.71,1.35,1.35,0,0,1,1.38-.11,1,1,0,0,1,.43.4,1.79,1.79,0,0,1,.27.64,4.38,4.38,0,0,1,.1,1,4.05,4.05,0,0,1-.16,1.22,1.55,1.55,0,0,1-.46.72A1.32,1.32,0,0,1,23,15.24,2.87,2.87,0,0,1,22.53,13.49Zm.54,0a2.78,2.78,0,0,0,.24,1.41.72.72,0,0,0,1.23,0,2.81,2.81,0,0,0,.24-1.41,2.75,2.75,0,0,0-.24-1.41.75.75,0,0,0-.62-.35.66.66,0,0,0-.58.31A2.75,2.75,0,0,0,23.07,13.49Z" transform="translate(-2.4 -4.9)"/></g></svg>