<svg xmlns="http://www.w3.org/2000/svg" xmlns:xlink="http://www.w3.org/1999/xlink" viewBox="0 0 102.47 91.61"><defs><style>.cls-1,.cls-3,.cls-4{fill:none;}.cls-2{clip-path:url(#clip-path);}.cls-3{stroke:#b5b5b6;stroke-linecap:round;stroke-width:3px;}.cls-4{stroke:#231815;stroke-miterlimit:10;stroke-width:0.4px;}.cls-5{fill:#231815;}</style><clipPath id="clip-path" transform="translate(-2.4 -3.17)"><rect class="cls-1" x="27.62" y="5.1" width="70.62" height="75"/></clipPath></defs><g id="illust"><g class="cls-2"><line class="cls-3" x1="24.92" y1="25.43" x2="95.29" y2="25.43"/><line class="cls-3" x1="25.21" y1="65.98" x2="95.84" y2="65.98"/></g><line class="cls-4" x1="95.84" y1="39.44" x2="63.67" y2="39.44"/><line class="cls-4" x1="26.44" y1="39.44" x2="25.11" y2="39.44"/><rect class="cls-4" x="25.22" y="1.94" width="70.62" height="75"/><line class="cls-4" x1="56.83" y1="27.46" x2="56.83" y2="1.94"/><line class="cls-4" x1="56.83" y1="68.96" x2="56.83" y2="42.05"/><line class="cls-4" x1="56.83" y1="76.94" x2="56.83" y2="73.96"/><line class="cls-4" x1="87.97" y1="68.96" x2="87.97" y2="1.94"/><line class="cls-4" x1="87.97" y1="76.94" x2="87.97" y2="74.33"/><path class="cls-5" d="M22.53,79.76a4,4,0,0,1,.15-1.22,1.56,1.56,0,0,1,.47-.72,1.35,1.35,0,0,1,1.38-.11,1,1,0,0,1,.43.4,1.87,1.87,0,0,1,.27.64,4.38,4.38,0,0,1,.1,1A4.05,4.05,0,0,1,25.17,81a1.55,1.55,0,0,1-.46.72A1.32,1.32,0,0,1,23,81.51,2.87,2.87,0,0,1,22.53,79.76Zm.54,0a2.75,2.75,0,0,0,.24,1.41.72.72,0,0,0,1.23,0,2.81,2.81,0,0,0,.24-1.41,2.75,2.75,0,0,0-.24-1.41.75.75,0,0,0-.62-.35.69.69,0,0,0-.58.31A2.75,2.75,0,0,0,23.07,79.76Z" transform="translate(-2.4 -3.17)"/><path d="M87.92,86v-1H86.06v-.48l2-2.78h.43v2.78H89v.48h-.58v1Zm0-1.51V82.5l-1.34,1.94Z" transform="translate(-2.4 -3.17)"/><path d="M89.87,86v-.6h.6V86Z" transform="translate(-2.4 -3.17)"/><path d="M91.24,83.83a3.76,3.76,0,0,1,.16-1.22,1.48,1.48,0,0,1,.46-.72,1.2,1.2,0,0,1,.78-.25,1.34,1.34,0,0,1,.61.14,1.17,1.17,0,0,1,.43.4,2.09,2.09,0,0,1,.26.64,3.93,3.93,0,0,1,.1,1,3.72,3.72,0,0,1-.16,1.22,1.55,1.55,0,0,1-.46.72,1.2,1.2,0,0,1-.78.25,1.17,1.17,0,0,1-1-.44A2.87,2.87,0,0,1,91.24,83.83Zm.54,0A2.63,2.63,0,0,0,92,85.24a.73.73,0,0,0,.61.35.75.75,0,0,0,.61-.35,4.1,4.1,0,0,0,0-2.82.74.74,0,0,0-.62-.34.69.69,0,0,0-.58.3A2.75,2.75,0,0,0,91.78,83.83Z" transform="translate(-2.4 -3.17)"/><path d="M98.71,86v-1H96.85v-.48l2-2.78h.43v2.78h.58v.48h-.58v1Zm0-1.51V82.5l-1.34,1.94Z" transform="translate(-2.4 -3.17)"/><path d="M100.65,86v-.6h.6V86Z" transform="translate(-2.4 -3.17)"/><path d="M102,84.83l.56,0a1,1,0,0,0,.28.61.8.8,0,0,0,.54.2.82.82,0,0,0,.65-.29,1.09,1.09,0,0,0,.26-.76,1,1,0,0,0-.25-.71.9.9,0,0,0-.66-.26.88.88,0,0,0-.46.12.8.8,0,0,0-.33.3l-.49-.07.41-2.21h2.14v.51H103l-.24,1.15a1.41,1.41,0,0,1,.82-.27,1.3,1.3,0,0,1,.95.39,1.41,1.41,0,0,1,.38,1,1.53,1.53,0,0,1-.34,1,1.52,1.52,0,0,1-2.08.2A1.3,1.3,0,0,1,102,84.83Z" transform="translate(-2.4 -3.17)"/><path d="M59.06,85.44V86H56.23a.78.78,0,0,1,.06-.37,2.15,2.15,0,0,1,.34-.57,6.56,6.56,0,0,1,.69-.65,5.27,5.27,0,0,0,1-.91,1.1,1.1,0,0,0,.25-.63.7.7,0,0,0-.23-.53.93.93,0,0,0-1.19,0,.9.9,0,0,0-.23.64l-.54-.06a1.3,1.3,0,0,1,.41-.92,1.46,1.46,0,0,1,1-.32,1.36,1.36,0,0,1,1,.34,1.13,1.13,0,0,1,.36.85,1.34,1.34,0,0,1-.11.51,1.82,1.82,0,0,1-.35.52,7.18,7.18,0,0,1-.81.76,6.34,6.34,0,0,0-.61.54,1.79,1.79,0,0,0-.22.28Z" transform="translate(-2.4 -3.17)"/><path d="M59.93,86v-.6h.6V86Z" transform="translate(-2.4 -3.17)"/><path d="M61.3,83.83a4.09,4.09,0,0,1,.15-1.22,1.56,1.56,0,0,1,.47-.72,1.2,1.2,0,0,1,.78-.25,1.27,1.27,0,0,1,.6.14,1,1,0,0,1,.43.4,1.87,1.87,0,0,1,.27.64,3.93,3.93,0,0,1,.1,1,3.72,3.72,0,0,1-.16,1.22,1.55,1.55,0,0,1-.46.72,1.2,1.2,0,0,1-.78.25,1.17,1.17,0,0,1-1-.44A2.87,2.87,0,0,1,61.3,83.83Zm.54,0a2.63,2.63,0,0,0,.25,1.41.73.73,0,0,0,.61.35.75.75,0,0,0,.61-.35,4.1,4.1,0,0,0,0-2.82.74.74,0,0,0-.62-.34.69.69,0,0,0-.58.3A2.75,2.75,0,0,0,61.84,83.83Z" transform="translate(-2.4 -3.17)"/><path class="cls-5" d="M19.19,69.85l.55,0a1,1,0,0,0,.29.61.76.76,0,0,0,.54.2.83.83,0,0,0,.64-.28,1.1,1.1,0,0,0,.27-.77,1,1,0,0,0-.26-.71,1,1,0,0,0-1.12-.14.84.84,0,0,0-.32.3l-.5-.07.42-2.2h2.13v.5H20.12l-.23,1.16a1.4,1.4,0,0,1,.81-.27,1.28,1.28,0,0,1,.95.39,1.35,1.35,0,0,1,.39,1,1.62,1.62,0,0,1-.34,1,1.52,1.52,0,0,1-2.09.19A1.25,1.25,0,0,1,19.19,69.85Z" transform="translate(-2.4 -3.17)"/><path class="cls-5" d="M22.56,67.24v-.51h2.78v.41a6.45,6.45,0,0,0-.81,1.16,6.82,6.82,0,0,0-.62,1.49A5.38,5.38,0,0,0,23.7,71h-.54a5.37,5.37,0,0,1,.2-1.22,6.31,6.31,0,0,1,.55-1.38,6,6,0,0,1,.75-1.13Z" transform="translate(-2.4 -3.17)"/><path class="cls-5" d="M18.62,44v.51H15.78a.94.94,0,0,1,.07-.37,1.91,1.91,0,0,1,.34-.57,6.56,6.56,0,0,1,.69-.65,5.27,5.27,0,0,0,.95-.91,1.1,1.1,0,0,0,.25-.63.7.7,0,0,0-.23-.53.9.9,0,0,0-1.19,0,.85.85,0,0,0-.23.64l-.55-.06a1.35,1.35,0,0,1,.42-.92,1.4,1.4,0,0,1,1-.32,1.36,1.36,0,0,1,1,.34,1.13,1.13,0,0,1,.36.85,1.34,1.34,0,0,1-.11.51,2.06,2.06,0,0,1-.35.52,8.25,8.25,0,0,1-.81.76,6.34,6.34,0,0,0-.61.54,1.79,1.79,0,0,0-.22.28Z" transform="translate(-2.4 -3.17)"/><path class="cls-5" d="M19.19,42.35a3.72,3.72,0,0,1,.16-1.22,1.48,1.48,0,0,1,.46-.72,1.2,1.2,0,0,1,.78-.25,1.22,1.22,0,0,1,.61.14,1.17,1.17,0,0,1,.43.4,2.09,2.09,0,0,1,.26.64,3.93,3.93,0,0,1,.1,1,3.72,3.72,0,0,1-.16,1.22,1.48,1.48,0,0,1-.46.72,1.2,1.2,0,0,1-.78.25,1.17,1.17,0,0,1-1-.44A2.87,2.87,0,0,1,19.19,42.35Zm.54,0A2.63,2.63,0,0,0,20,43.76a.73.73,0,0,0,.61.35.75.75,0,0,0,.61-.35,2.75,2.75,0,0,0,.25-1.41,2.78,2.78,0,0,0-.25-1.41.75.75,0,0,0-.62-.35.7.7,0,0,0-.58.31A2.75,2.75,0,0,0,19.73,42.35Z" transform="translate(-2.4 -3.17)"/><path class="cls-5" d="M22.53,42.35a4,4,0,0,1,.15-1.22,1.56,1.56,0,0,1,.47-.72,1.35,1.35,0,0,1,1.38-.11,1,1,0,0,1,.43.4,1.87,1.87,0,0,1,.27.64,4.44,4.44,0,0,1,.1,1,4,4,0,0,1-.16,1.22,1.55,1.55,0,0,1-.46.72,1.2,1.2,0,0,1-.78.25,1.17,1.17,0,0,1-1-.44A2.87,2.87,0,0,1,22.53,42.35Zm.54,0a2.75,2.75,0,0,0,.24,1.41.72.72,0,0,0,1.23,0,2.78,2.78,0,0,0,.24-1.41,2.81,2.81,0,0,0-.24-1.41.75.75,0,0,0-.62-.35.69.69,0,0,0-.58.31A2.75,2.75,0,0,0,23.07,42.35Z" transform="translate(-2.4 -3.17)"/><path class="cls-5" d="M17.54,7.48v-1H15.68V6l2-2.79h.43V6h.58v.48h-.58v1Zm0-1.51V4L16.2,6Z" transform="translate(-2.4 -3.17)"/><path class="cls-5" d="M19.19,5.36a3.78,3.78,0,0,1,.16-1.23,1.4,1.4,0,0,1,.46-.71,1.2,1.2,0,0,1,.78-.25,1.33,1.33,0,0,1,.61.13,1.29,1.29,0,0,1,.43.41,2,2,0,0,1,.26.63,4,4,0,0,1,.1,1,3.76,3.76,0,0,1-.16,1.22,1.48,1.48,0,0,1-.46.72,1.32,1.32,0,0,1-1.76-.19A2.87,2.87,0,0,1,19.19,5.36Zm.54,0A2.68,2.68,0,0,0,20,6.77a.73.73,0,0,0,.61.35.75.75,0,0,0,.61-.35,2.78,2.78,0,0,0,.25-1.41A2.73,2.73,0,0,0,21.2,4a.75.75,0,0,0-.62-.35.68.68,0,0,0-.58.31A2.73,2.73,0,0,0,19.73,5.36Z" transform="translate(-2.4 -3.17)"/><path class="cls-5" d="M22.53,5.36a4.12,4.12,0,0,1,.15-1.23,1.48,1.48,0,0,1,.47-.71,1.16,1.16,0,0,1,.78-.25,1.26,1.26,0,0,1,.6.13,1.13,1.13,0,0,1,.43.41,1.82,1.82,0,0,1,.27.63,4.54,4.54,0,0,1,.1,1,4.05,4.05,0,0,1-.16,1.22,1.55,1.55,0,0,1-.46.72A1.32,1.32,0,0,1,23,7.11,2.87,2.87,0,0,1,22.53,5.36Zm.54,0a2.81,2.81,0,0,0,.24,1.41.72.72,0,0,0,1.23,0,2.81,2.81,0,0,0,.24-1.41A2.75,2.75,0,0,0,24.54,4a.75.75,0,0,0-.62-.35.66.66,0,0,0-.58.31A2.73,2.73,0,0,0,23.07,5.36Z" transform="translate(-2.4 -3.17)"/><path class="cls-5" d="M18.62,30.41v.51H15.78a.94.94,0,0,1,.07-.37,1.91,1.91,0,0,1,.34-.57,5,5,0,0,1,.69-.65,5.64,5.64,0,0,0,.95-.91,1.13,1.13,0,0,0,.25-.64.7.7,0,0,0-.23-.52.78.78,0,0,0-.58-.22.79.79,0,0,0-.84.86l-.55,0a1.35,1.35,0,0,1,.42-.93,1.44,1.44,0,0,1,1-.32,1.37,1.37,0,0,1,1,.35,1.13,1.13,0,0,1,.36.85,1.25,1.25,0,0,1-.11.5,2.1,2.1,0,0,1-.35.53,8.44,8.44,0,0,1-.81.75c-.32.27-.52.45-.61.54a1.85,1.85,0,0,0-.22.29Z" transform="translate(-2.4 -3.17)"/><path class="cls-5" d="M19.22,27.18v-.5H22v.41a6.11,6.11,0,0,0-.81,1.16,6.62,6.62,0,0,0-.62,1.49,5.28,5.28,0,0,0-.2,1.18h-.55a6,6,0,0,1,.2-1.23,6.31,6.31,0,0,1,.55-1.38,6,6,0,0,1,.76-1.13Z" transform="translate(-2.4 -3.17)"/><path class="cls-5" d="M24.22,30.92v-1H22.35V29.4l2-2.78h.43V29.4h.58v.49h-.58v1Zm0-1.52V27.47L22.87,29.4Z" transform="translate(-2.4 -3.17)"/></g><g id="japanese"><path class="cls-5" d="M32.21,74.92l.57.14a1.92,1.92,0,0,1-.64,1.07A1.81,1.81,0,0,1,31,76.5a2,2,0,0,1-1.13-.29,1.75,1.75,0,0,1-.66-.82A2.91,2.91,0,0,1,29,74.24a2.55,2.55,0,0,1,.25-1.17,1.85,1.85,0,0,1,.73-.76,2.17,2.17,0,0,1,1-.26,1.79,1.79,0,0,1,1.09.33,1.77,1.77,0,0,1,.61.92l-.56.14a1.35,1.35,0,0,0-.43-.69,1.18,1.18,0,0,0-.72-.21,1.4,1.4,0,0,0-.83.24,1.27,1.27,0,0,0-.46.63,2.74,2.74,0,0,0,0,1.79,1.22,1.22,0,0,0,.5.61A1.43,1.43,0,0,0,31,76a1.21,1.21,0,0,0,.81-.28A1.34,1.34,0,0,0,32.21,74.92Z" transform="translate(-2.4 -3.17)"/><path class="cls-5" d="M33.22,74.87a1.59,1.59,0,0,1,.48-1.28,1.45,1.45,0,0,1,1-.35,1.39,1.39,0,0,1,1,.42,1.6,1.6,0,0,1,.4,1.16,2.09,2.09,0,0,1-.18,1,1.26,1.26,0,0,1-.52.53,1.49,1.49,0,0,1-.75.19,1.4,1.4,0,0,1-1.06-.42A1.66,1.66,0,0,1,33.22,74.87Zm.54,0a1.35,1.35,0,0,0,.26.89.84.84,0,0,0,.66.3.82.82,0,0,0,.65-.3,1.37,1.37,0,0,0,.26-.91,1.32,1.32,0,0,0-.26-.88A.88.88,0,0,0,34,74,1.36,1.36,0,0,0,33.76,74.87Z" transform="translate(-2.4 -3.17)"/><path class="cls-5" d="M36.75,76.42V73.31h.48v.44a1.12,1.12,0,0,1,1-.51,1.22,1.22,0,0,1,.51.1.86.86,0,0,1,.36.27,1,1,0,0,1,.16.39,2.81,2.81,0,0,1,0,.51v1.91h-.53V74.53a1.4,1.4,0,0,0-.06-.48.5.5,0,0,0-.22-.26.69.69,0,0,0-.36-.09.89.89,0,0,0-.59.21,1.06,1.06,0,0,0-.24.81v1.7Z" transform="translate(-2.4 -3.17)"/><path class="cls-5" d="M41.24,76l.08.47a2,2,0,0,1-.4,0,1,1,0,0,1-.45-.09.51.51,0,0,1-.22-.24,2,2,0,0,1-.06-.62V73.72H39.8v-.41h.39v-.77l.52-.32v1.09h.53v.41h-.53v1.82a.85.85,0,0,0,0,.29.22.22,0,0,0,.09.1A.3.3,0,0,0,41,76Z" transform="translate(-2.4 -3.17)"/><path class="cls-5" d="M41.76,72.73v-.6h.53v.6Zm0,3.69V73.31h.53v3.11Z" transform="translate(-2.4 -3.17)"/><path class="cls-5" d="M43.09,76.42V73.31h.47v.44a1.12,1.12,0,0,1,1-.51,1.27,1.27,0,0,1,.52.1.76.76,0,0,1,.35.27,1,1,0,0,1,.17.39,2.81,2.81,0,0,1,0,.51v1.91h-.53V74.53a1.4,1.4,0,0,0-.06-.48.55.55,0,0,0-.22-.26.72.72,0,0,0-.37-.09.86.86,0,0,0-.58.21,1.06,1.06,0,0,0-.24.81v1.7Z" transform="translate(-2.4 -3.17)"/><path class="cls-5" d="M48.46,76.42V76a1.12,1.12,0,0,1-1,.53,1.27,1.27,0,0,1-.52-.1.82.82,0,0,1-.35-.27.92.92,0,0,1-.16-.39,2,2,0,0,1,0-.49V73.31h.53V75a3.2,3.2,0,0,0,0,.55.63.63,0,0,0,.21.33.65.65,0,0,0,.4.12.89.89,0,0,0,.45-.12.62.62,0,0,0,.29-.33,1.63,1.63,0,0,0,.09-.61V73.31h.53v3.11Z" transform="translate(-2.4 -3.17)"/><path class="cls-5" d="M49.57,74.87a1.59,1.59,0,0,1,.48-1.28,1.43,1.43,0,0,1,1-.35,1.39,1.39,0,0,1,1,.42,1.57,1.57,0,0,1,.41,1.16,2.09,2.09,0,0,1-.18,1,1.26,1.26,0,0,1-.52.53,1.49,1.49,0,0,1-.75.19A1.4,1.4,0,0,1,50,76.07,1.66,1.66,0,0,1,49.57,74.87Zm.54,0a1.35,1.35,0,0,0,.26.89.83.83,0,0,0,.66.3.83.83,0,0,0,.65-.3,1.37,1.37,0,0,0,.26-.91,1.32,1.32,0,0,0-.26-.88.86.86,0,0,0-.65-.29.85.85,0,0,0-.66.29A1.36,1.36,0,0,0,50.11,74.87Z" transform="translate(-2.4 -3.17)"/><path class="cls-5" d="M55.14,76.42V76a1.12,1.12,0,0,1-1,.53,1.25,1.25,0,0,1-.51-.1.86.86,0,0,1-.36-.27,1.07,1.07,0,0,1-.16-.39,2.85,2.85,0,0,1,0-.49V73.31h.53V75a3.2,3.2,0,0,0,0,.55.53.53,0,0,0,.21.33.65.65,0,0,0,.4.12.86.86,0,0,0,.44-.12.68.68,0,0,0,.3-.33,1.91,1.91,0,0,0,.08-.61V73.31h.53v3.11Z" transform="translate(-2.4 -3.17)"/><path class="cls-5" d="M56.23,75.49l.52-.08a.74.74,0,0,0,.24.48.87.87,0,0,0,.56.17.83.83,0,0,0,.54-.15.44.44,0,0,0,.18-.35.31.31,0,0,0-.16-.28,3.13,3.13,0,0,0-.54-.18,4.55,4.55,0,0,1-.8-.25.77.77,0,0,1-.34-.3.73.73,0,0,1-.12-.41.87.87,0,0,1,.1-.39.8.8,0,0,1,.26-.29A1.27,1.27,0,0,1,57,73.3a1.76,1.76,0,0,1,.46-.06,1.79,1.79,0,0,1,.64.11.85.85,0,0,1,.41.28,1,1,0,0,1,.18.48l-.51.07a.6.6,0,0,0-.21-.37.73.73,0,0,0-.47-.14.84.84,0,0,0-.52.12.38.38,0,0,0-.16.29.26.26,0,0,0,.07.18.45.45,0,0,0,.2.14l.47.14a5.92,5.92,0,0,1,.78.24.78.78,0,0,1,.34.28.73.73,0,0,1,.13.45.88.88,0,0,1-.15.49,1,1,0,0,1-.45.37,1.67,1.67,0,0,1-.65.12,1.45,1.45,0,0,1-.93-.25A1.15,1.15,0,0,1,56.23,75.49Z" transform="translate(-2.4 -3.17)"/><path class="cls-5" d="M61.1,76.42V73.31h.47v.47a1.27,1.27,0,0,1,.34-.43.58.58,0,0,1,.34-.11,1.09,1.09,0,0,1,.54.17l-.18.49a.72.72,0,0,0-.39-.11.48.48,0,0,0-.31.1.56.56,0,0,0-.2.29,2,2,0,0,0-.09.61v1.63Z" transform="translate(-2.4 -3.17)"/><path class="cls-5" d="M65.14,76.42V76a1.12,1.12,0,0,1-1,.53,1.25,1.25,0,0,1-.51-.1.86.86,0,0,1-.36-.27,1.07,1.07,0,0,1-.16-.39,2.85,2.85,0,0,1,0-.49V73.31h.53V75a3.2,3.2,0,0,0,0,.55.53.53,0,0,0,.21.33.65.65,0,0,0,.4.12.83.83,0,0,0,.44-.12.68.68,0,0,0,.3-.33,1.66,1.66,0,0,0,.08-.61V73.31h.53v3.11Z" transform="translate(-2.4 -3.17)"/><path class="cls-5" d="M66.44,76.42V73.31h.47v.44a1.12,1.12,0,0,1,1-.51,1.27,1.27,0,0,1,.52.1.76.76,0,0,1,.35.27,1,1,0,0,1,.17.39,2.81,2.81,0,0,1,0,.51v1.91h-.53V74.53a1.4,1.4,0,0,0-.06-.48.55.55,0,0,0-.22-.26.75.75,0,0,0-.37-.09.86.86,0,0,0-.58.21,1.06,1.06,0,0,0-.24.81v1.7Z" transform="translate(-2.4 -3.17)"/><path class="cls-5" d="M69.78,76.42V73.31h.47v.44a1.12,1.12,0,0,1,1-.51,1.27,1.27,0,0,1,.52.1.89.89,0,0,1,.35.27,1,1,0,0,1,.16.39,2.81,2.81,0,0,1,0,.51v1.91h-.52V74.53a1.15,1.15,0,0,0-.07-.48.53.53,0,0,0-.21-.26.75.75,0,0,0-.37-.09.84.84,0,0,0-.58.21,1,1,0,0,0-.25.81v1.7Z" transform="translate(-2.4 -3.17)"/><path class="cls-5" d="M73.12,72.73v-.6h.52v.6Zm0,3.69V73.31h.52v3.11Z" transform="translate(-2.4 -3.17)"/><path class="cls-5" d="M74.45,76.42V73.31h.47v.44a1.12,1.12,0,0,1,1-.51,1.27,1.27,0,0,1,.52.1.89.89,0,0,1,.35.27,1,1,0,0,1,.16.39,2.81,2.81,0,0,1,0,.51v1.91h-.52V74.53a1.15,1.15,0,0,0-.07-.48.53.53,0,0,0-.21-.26.75.75,0,0,0-.37-.09.84.84,0,0,0-.58.21,1,1,0,0,0-.25.81v1.7Z" transform="translate(-2.4 -3.17)"/><path class="cls-5" d="M77.69,76.68l.51.08a.47.47,0,0,0,.18.34.86.86,0,0,0,.53.15.92.92,0,0,0,.57-.15.74.74,0,0,0,.27-.41,3.28,3.28,0,0,0,0-.68,1.07,1.07,0,0,1-.87.41,1.18,1.18,0,0,1-1-.46,1.81,1.81,0,0,1-.35-1.11,2,2,0,0,1,.16-.82,1.24,1.24,0,0,1,.47-.58,1.22,1.22,0,0,1,.72-.21,1.13,1.13,0,0,1,.91.45v-.38h.48V76a2.53,2.53,0,0,1-.15,1,1.06,1.06,0,0,1-.46.48,1.62,1.62,0,0,1-.79.17,1.46,1.46,0,0,1-.9-.25A.82.82,0,0,1,77.69,76.68Zm.43-1.87a1.28,1.28,0,0,0,.25.89A.76.76,0,0,0,79,76a.78.78,0,0,0,.61-.28,1.28,1.28,0,0,0,.25-.88,1.26,1.26,0,0,0-.25-.86.77.77,0,0,0-.61-.29.75.75,0,0,0-.6.28A1.25,1.25,0,0,0,78.12,74.81Z" transform="translate(-2.4 -3.17)"/><path class="cls-5" d="M82.78,76.42V73.31h.47v.47a1.41,1.41,0,0,1,.34-.43.6.6,0,0,1,.34-.11,1,1,0,0,1,.54.17l-.18.49a.72.72,0,0,0-.39-.11.51.51,0,0,0-.5.39,2,2,0,0,0-.09.61v1.63Z" transform="translate(-2.4 -3.17)"/><path class="cls-5" d="M86.81,76a2.05,2.05,0,0,1-.56.35,1.57,1.57,0,0,1-.58.1,1.12,1.12,0,0,1-.79-.25.84.84,0,0,1-.27-.64.87.87,0,0,1,.1-.42,1,1,0,0,1,.27-.3,1.19,1.19,0,0,1,.38-.17,2.61,2.61,0,0,1,.47-.08,4.72,4.72,0,0,0,.94-.18v-.14a.55.55,0,0,0-.15-.45.86.86,0,0,0-.6-.18.93.93,0,0,0-.55.13.83.83,0,0,0-.26.46l-.51-.07a1.21,1.21,0,0,1,.23-.54,1,1,0,0,1,.46-.31,2.2,2.2,0,0,1,.71-.11,2,2,0,0,1,.65.09.94.94,0,0,1,.36.24.8.8,0,0,1,.17.36,4.72,4.72,0,0,1,0,.49v.7a5.84,5.84,0,0,0,0,.93,1,1,0,0,0,.13.37h-.55A1.41,1.41,0,0,1,86.81,76Zm0-1.18a4.07,4.07,0,0,1-.86.2,1.8,1.8,0,0,0-.46.11.39.39,0,0,0-.21.17.43.43,0,0,0-.07.25.44.44,0,0,0,.16.35.68.68,0,0,0,.46.14,1.09,1.09,0,0,0,.55-.13.83.83,0,0,0,.35-.37,1.4,1.4,0,0,0,.08-.53Z" transform="translate(-2.4 -3.17)"/><path class="cls-5" d="M88.12,76.42V73.31h.48v.44a1.1,1.1,0,0,1,1-.51,1.22,1.22,0,0,1,.51.1.86.86,0,0,1,.36.27,1.14,1.14,0,0,1,.16.39,2.81,2.81,0,0,1,0,.51v1.91h-.53V74.53a1.4,1.4,0,0,0-.06-.48.5.5,0,0,0-.22-.26.7.7,0,0,0-.37-.09.88.88,0,0,0-.58.21,1.06,1.06,0,0,0-.24.81v1.7Z" transform="translate(-2.4 -3.17)"/><path class="cls-5" d="M91.36,76.68l.51.08a.56.56,0,0,0,.18.34.87.87,0,0,0,.54.15.91.91,0,0,0,.56-.15.65.65,0,0,0,.27-.41,3.28,3.28,0,0,0,0-.68,1.06,1.06,0,0,1-.86.41,1.15,1.15,0,0,1-1-.46,1.75,1.75,0,0,1-.35-1.11,2,2,0,0,1,.16-.82,1.22,1.22,0,0,1,.46-.58,1.27,1.27,0,0,1,.72-.21,1.11,1.11,0,0,1,.91.45v-.38H94V76a2.53,2.53,0,0,1-.15,1,1.09,1.09,0,0,1-.47.48,1.59,1.59,0,0,1-.79.17,1.48,1.48,0,0,1-.9-.25A.82.82,0,0,1,91.36,76.68Zm.44-1.87a1.33,1.33,0,0,0,.24.89.78.78,0,0,0,.61.29.8.8,0,0,0,.61-.28,1.34,1.34,0,0,0,.25-.88,1.26,1.26,0,0,0-.26-.86.76.76,0,0,0-.61-.29A.78.78,0,0,0,92,74,1.31,1.31,0,0,0,91.8,74.81Z" transform="translate(-2.4 -3.17)"/><path class="cls-5" d="M96.92,75.42l.55.07a1.37,1.37,0,0,1-.48.74,1.47,1.47,0,0,1-.89.26A1.43,1.43,0,0,1,95,76.07a1.62,1.62,0,0,1-.4-1.18,1.73,1.73,0,0,1,.4-1.22,1.37,1.37,0,0,1,1-.43,1.3,1.3,0,0,1,1,.43,1.65,1.65,0,0,1,.4,1.19.82.82,0,0,1,0,.14H95.16a1.26,1.26,0,0,0,.29.79.88.88,0,0,0,.65.27.82.82,0,0,0,.5-.15A1,1,0,0,0,96.92,75.42Zm-1.73-.85h1.74a1,1,0,0,0-.2-.59.85.85,0,0,0-1.26-.06A1,1,0,0,0,95.19,74.57Z" transform="translate(-2.4 -3.17)"/><path class="cls-5" d="M29.46,34.19l.53,0a1.33,1.33,0,0,0,.18.53,1,1,0,0,0,.43.33,1.59,1.59,0,0,0,.66.13,1.42,1.42,0,0,0,.57-.1.83.83,0,0,0,.38-.26.65.65,0,0,0,.12-.37.53.53,0,0,0-.12-.35.83.83,0,0,0-.39-.26l-.76-.21a3.3,3.3,0,0,1-.83-.27,1.07,1.07,0,0,1-.46-.4.94.94,0,0,1-.15-.53,1.11,1.11,0,0,1,.18-.61,1.22,1.22,0,0,1,.54-.43,2,2,0,0,1,.79-.14,2.17,2.17,0,0,1,.84.15,1.23,1.23,0,0,1,.57.45,1.33,1.33,0,0,1,.21.68l-.55,0a.85.85,0,0,0-.3-.61,1.13,1.13,0,0,0-.74-.21,1.2,1.2,0,0,0-.76.19.56.56,0,0,0-.23.45.48.48,0,0,0,.16.38,2.38,2.38,0,0,0,.86.31,5.17,5.17,0,0,1,.95.27,1.34,1.34,0,0,1,.56.44,1.07,1.07,0,0,1,.18.61,1.18,1.18,0,0,1-.2.65,1.27,1.27,0,0,1-.57.47,2,2,0,0,1-.82.17,2.53,2.53,0,0,1-1-.17,1.49,1.49,0,0,1-.62-.51A1.4,1.4,0,0,1,29.46,34.19Z" transform="translate(-2.4 -3.17)"/><path class="cls-5" d="M33.58,35.57V31.28h.53v1.54a1.21,1.21,0,0,1,.93-.43,1.27,1.27,0,0,1,.6.14.8.8,0,0,1,.37.38,1.77,1.77,0,0,1,.11.69v2h-.53v-2a.83.83,0,0,0-.17-.57.64.64,0,0,0-.49-.18.88.88,0,0,0-.44.12.72.72,0,0,0-.29.33,1.48,1.48,0,0,0-.09.57v1.7Z" transform="translate(-2.4 -3.17)"/><path class="cls-5" d="M36.72,34a1.57,1.57,0,0,1,.49-1.28,1.43,1.43,0,0,1,1-.35,1.39,1.39,0,0,1,1,.42A1.61,1.61,0,0,1,39.64,34a2.06,2.06,0,0,1-.18,1,1.27,1.27,0,0,1-.52.53,1.51,1.51,0,0,1-.76.19,1.42,1.42,0,0,1-1-.41A1.69,1.69,0,0,1,36.72,34Zm.55,0a1.26,1.26,0,0,0,.26.89.82.82,0,0,0,.65.3.84.84,0,0,0,.66-.3A1.37,1.37,0,0,0,39.1,34a1.29,1.29,0,0,0-.26-.87.85.85,0,0,0-.66-.3.84.84,0,0,0-.65.29A1.31,1.31,0,0,0,37.27,34Z" transform="translate(-2.4 -3.17)"/><path class="cls-5" d="M40.25,35.57V32.46h.48v.47a1.27,1.27,0,0,1,.33-.43.6.6,0,0,1,.34-.11,1,1,0,0,1,.54.17l-.18.49a.82.82,0,0,0-.39-.11.52.52,0,0,0-.31.1.59.59,0,0,0-.19.29,2,2,0,0,0-.09.62v1.62Z" transform="translate(-2.4 -3.17)"/><path class="cls-5" d="M43.41,35.1l.07.47a2.08,2.08,0,0,1-.4,0,.89.89,0,0,1-.44-.1.49.49,0,0,1-.22-.23,1.71,1.71,0,0,1-.07-.63V32.87H42v-.41h.38v-.77l.53-.31v1.08h.53v.41h-.53v1.82a1.48,1.48,0,0,0,0,.29.17.17,0,0,0,.1.1.3.3,0,0,0,.18,0A1.11,1.11,0,0,0,43.41,35.1Z" transform="translate(-2.4 -3.17)"/><path class="cls-5" d="M43.72,34.29v-.54h1.62v.54Z" transform="translate(-2.4 -3.17)"/><path class="cls-5" d="M47.94,35.57v-.39a1,1,0,0,1-.87.46,1.16,1.16,0,0,1-.68-.2,1.44,1.44,0,0,1-.49-.57,2.25,2.25,0,0,1,0-1.69,1.19,1.19,0,0,1,.46-.59,1.3,1.3,0,0,1,.7-.2,1,1,0,0,1,.85.43V31.28h.53v4.29ZM46.27,34a1.42,1.42,0,0,0,.25.9.79.79,0,0,0,.6.29.74.74,0,0,0,.59-.28,1.32,1.32,0,0,0,.24-.86,1.43,1.43,0,0,0-.25-.94.74.74,0,0,0-.6-.3.71.71,0,0,0-.59.29A1.38,1.38,0,0,0,46.27,34Z" transform="translate(-2.4 -3.17)"/><path class="cls-5" d="M51.3,35.57v-.45a1.14,1.14,0,0,1-1,.52,1.22,1.22,0,0,1-.51-.1.86.86,0,0,1-.36-.27.87.87,0,0,1-.16-.39,2.77,2.77,0,0,1,0-.49V32.46h.52v1.73a2.38,2.38,0,0,0,0,.56.54.54,0,0,0,.21.32.63.63,0,0,0,.4.12.88.88,0,0,0,.44-.12.62.62,0,0,0,.29-.33,1.6,1.6,0,0,0,.09-.61V32.46h.53v3.11Z" transform="translate(-2.4 -3.17)"/><path class="cls-5" d="M52.59,35.57V32.46h.47v.47a1.27,1.27,0,0,1,.34-.43.58.58,0,0,1,.34-.11,1,1,0,0,1,.54.17l-.18.49a.82.82,0,0,0-.39-.11.5.5,0,0,0-.31.1.61.61,0,0,0-.2.29,2.39,2.39,0,0,0-.08.62v1.62Z" transform="translate(-2.4 -3.17)"/><path class="cls-5" d="M56.62,35.19a1.83,1.83,0,0,1-.56.35,1.61,1.61,0,0,1-.58.1,1.12,1.12,0,0,1-.79-.25.83.83,0,0,1-.28-.64.81.81,0,0,1,.11-.41.91.91,0,0,1,.27-.31,1.46,1.46,0,0,1,.38-.17,4,4,0,0,1,.47-.08,4.88,4.88,0,0,0,.94-.18v-.14a.58.58,0,0,0-.15-.45.86.86,0,0,0-.6-.18.91.91,0,0,0-.55.13.81.81,0,0,0-.26.46l-.52-.07a1.24,1.24,0,0,1,.24-.53,1,1,0,0,1,.46-.32,2.2,2.2,0,0,1,.71-.11,1.74,1.74,0,0,1,.65.1.9.9,0,0,1,.36.23,1,1,0,0,1,.17.36,4.72,4.72,0,0,1,0,.49v.7a5.84,5.84,0,0,0,0,.93,1,1,0,0,0,.13.37h-.55A1.06,1.06,0,0,1,56.62,35.19Zm0-1.18a3.53,3.53,0,0,1-.86.2,1.8,1.8,0,0,0-.46.11.44.44,0,0,0-.21.17.47.47,0,0,0,.09.6.68.68,0,0,0,.46.14,1.09,1.09,0,0,0,.55-.13.81.81,0,0,0,.34-.37,1.18,1.18,0,0,0,.09-.52Z" transform="translate(-2.4 -3.17)"/><path class="cls-5" d="M59.08,35.1l.08.47a2.08,2.08,0,0,1-.4,0,.94.94,0,0,1-.45-.1.54.54,0,0,1-.22-.23,2.07,2.07,0,0,1-.06-.63V32.87h-.39v-.41H58v-.77l.52-.31v1.08h.53v.41h-.53v1.82a.85.85,0,0,0,0,.29.18.18,0,0,0,.09.1.3.3,0,0,0,.18,0A1,1,0,0,0,59.08,35.1Z" transform="translate(-2.4 -3.17)"/><path class="cls-5" d="M59.6,31.89v-.61h.53v.61Zm0,3.68V32.46h.53v3.11Z" transform="translate(-2.4 -3.17)"/><path class="cls-5" d="M60.73,34a1.6,1.6,0,0,1,.48-1.28,1.47,1.47,0,0,1,1-.35,1.39,1.39,0,0,1,1.05.42A1.61,1.61,0,0,1,63.65,34a2.06,2.06,0,0,1-.18,1,1.23,1.23,0,0,1-.53.53,1.49,1.49,0,0,1-.75.19,1.41,1.41,0,0,1-1-.41A1.69,1.69,0,0,1,60.73,34Zm.55,0a1.26,1.26,0,0,0,.26.89.82.82,0,0,0,.65.3.85.85,0,0,0,.66-.3,1.37,1.37,0,0,0,.26-.91,1.24,1.24,0,0,0-.27-.87.82.82,0,0,0-.65-.3.84.84,0,0,0-.65.29A1.31,1.31,0,0,0,61.28,34Z" transform="translate(-2.4 -3.17)"/><path class="cls-5" d="M64.27,35.57V32.46h.47v.45a1.11,1.11,0,0,1,1-.52,1.46,1.46,0,0,1,.52.1.82.82,0,0,1,.35.27,1.15,1.15,0,0,1,.17.39,3.27,3.27,0,0,1,0,.51v1.91h-.52V33.68a1.48,1.48,0,0,0-.06-.48.55.55,0,0,0-.22-.26.75.75,0,0,0-.37-.09.86.86,0,0,0-.58.21,1.1,1.1,0,0,0-.25.82v1.69Z" transform="translate(-2.4 -3.17)"/><path class="cls-5" d="M29.58,42.77V39.66h.47v.47a1.16,1.16,0,0,1,.34-.43.57.57,0,0,1,.33-.11,1.1,1.1,0,0,1,.55.17l-.19.49a.76.76,0,0,0-.38-.11.48.48,0,0,0-.31.1.61.61,0,0,0-.2.29,2,2,0,0,0-.09.62v1.62Z" transform="translate(-2.4 -3.17)"/><path class="cls-5" d="M33.62,42.77v-.45a1.13,1.13,0,0,1-1,.52,1.25,1.25,0,0,1-.51-.1.86.86,0,0,1-.36-.27,1,1,0,0,1-.16-.39,2.77,2.77,0,0,1,0-.49V39.66h.53v1.73a3.43,3.43,0,0,0,0,.56.54.54,0,0,0,.21.32.65.65,0,0,0,.4.12.86.86,0,0,0,.44-.12.68.68,0,0,0,.3-.33,1.87,1.87,0,0,0,.08-.61V39.66h.53v3.11Z" transform="translate(-2.4 -3.17)"/><path class="cls-5" d="M34.92,42.77V39.66h.47v.45a1.11,1.11,0,0,1,1-.52,1.46,1.46,0,0,1,.52.1.82.82,0,0,1,.35.27,1.15,1.15,0,0,1,.17.39,3,3,0,0,1,0,.51v1.91h-.53V40.88a1.48,1.48,0,0,0-.06-.48.49.49,0,0,0-.22-.25.66.66,0,0,0-.37-.1.86.86,0,0,0-.58.21,1.1,1.1,0,0,0-.25.82v1.69Z" transform="translate(-2.4 -3.17)"/><path class="cls-5" d="M38.25,42.77V39.66h.48v.45a1.11,1.11,0,0,1,1-.52,1.46,1.46,0,0,1,.52.1.89.89,0,0,1,.35.27,1,1,0,0,1,.16.39,3,3,0,0,1,0,.51v1.91h-.53V40.88a1.48,1.48,0,0,0-.06-.48.47.47,0,0,0-.21-.25.66.66,0,0,0-.37-.1.84.84,0,0,0-.58.21,1.06,1.06,0,0,0-.25.82v1.69Z" transform="translate(-2.4 -3.17)"/><path class="cls-5" d="M41.59,39.09v-.61h.53v.61Zm0,3.68V39.66h.53v3.11Z" transform="translate(-2.4 -3.17)"/><path class="cls-5" d="M42.92,42.77V39.66h.48v.45a1.11,1.11,0,0,1,1-.52,1.46,1.46,0,0,1,.52.1.89.89,0,0,1,.35.27,1,1,0,0,1,.16.39,3,3,0,0,1,0,.51v1.91h-.53V40.88a1.48,1.48,0,0,0-.06-.48.47.47,0,0,0-.21-.25.66.66,0,0,0-.37-.1.84.84,0,0,0-.58.21,1.06,1.06,0,0,0-.25.82v1.69Z" transform="translate(-2.4 -3.17)"/><path class="cls-5" d="M46.16,43l.52.08a.46.46,0,0,0,.18.34.86.86,0,0,0,.53.15.94.94,0,0,0,.57-.15.71.71,0,0,0,.27-.41,3.43,3.43,0,0,0,0-.67,1.07,1.07,0,0,1-.86.4,1.17,1.17,0,0,1-1-.46,1.81,1.81,0,0,1-.35-1.11,2,2,0,0,1,.16-.82,1.24,1.24,0,0,1,.47-.58,1.22,1.22,0,0,1,.72-.21,1.09,1.09,0,0,1,.9.45v-.38h.49v2.69a2.5,2.5,0,0,1-.15,1,1.09,1.09,0,0,1-.47.48,1.57,1.57,0,0,1-.79.18,1.49,1.49,0,0,1-.89-.25A.88.88,0,0,1,46.16,43Zm.44-1.87a1.38,1.38,0,0,0,.24.9.81.81,0,0,0,.61.28.78.78,0,0,0,.61-.28,1.28,1.28,0,0,0,.25-.88,1.32,1.32,0,0,0-.25-.86.81.81,0,0,0-.62-.29.74.74,0,0,0-.59.28A1.27,1.27,0,0,0,46.6,41.16Z" transform="translate(-2.4 -3.17)"/><path class="cls-5" d="M51.26,42.77V39.66h.47v.47a1.27,1.27,0,0,1,.34-.43.58.58,0,0,1,.34-.11,1.06,1.06,0,0,1,.54.17l-.18.49a.82.82,0,0,0-.39-.11.5.5,0,0,0-.31.1.61.61,0,0,0-.2.29,2.39,2.39,0,0,0-.08.62v1.62Z" transform="translate(-2.4 -3.17)"/><path class="cls-5" d="M55.29,42.39a1.83,1.83,0,0,1-.56.35,1.61,1.61,0,0,1-.58.1,1.12,1.12,0,0,1-.79-.25.83.83,0,0,1-.28-.64.81.81,0,0,1,.11-.41.91.91,0,0,1,.27-.31,1.46,1.46,0,0,1,.38-.17,4,4,0,0,1,.47-.08,4.88,4.88,0,0,0,.94-.18v-.14a.58.58,0,0,0-.15-.45.86.86,0,0,0-.6-.18.91.91,0,0,0-.55.13.81.81,0,0,0-.26.46l-.52-.07a1.24,1.24,0,0,1,.24-.53,1,1,0,0,1,.46-.32,2.2,2.2,0,0,1,.71-.11,1.74,1.74,0,0,1,.65.1.9.9,0,0,1,.36.23,1,1,0,0,1,.17.36,4.72,4.72,0,0,1,0,.49v.7a5.84,5.84,0,0,0,0,.93,1,1,0,0,0,.13.37H55.4A1,1,0,0,1,55.29,42.39Zm0-1.18a3.53,3.53,0,0,1-.86.2,1.8,1.8,0,0,0-.46.11.44.44,0,0,0-.21.17.47.47,0,0,0,.09.6.68.68,0,0,0,.46.14,1.09,1.09,0,0,0,.55-.13.81.81,0,0,0,.34-.37,1.18,1.18,0,0,0,.09-.52Z" transform="translate(-2.4 -3.17)"/><path class="cls-5" d="M56.6,42.77V39.66h.47v.45a1.11,1.11,0,0,1,1-.52,1.46,1.46,0,0,1,.52.1.76.76,0,0,1,.35.27,1,1,0,0,1,.17.39,3,3,0,0,1,0,.51v1.91H58.6V40.88a1.48,1.48,0,0,0-.06-.48.45.45,0,0,0-.22-.25.64.64,0,0,0-.37-.1.86.86,0,0,0-.58.21,1.1,1.1,0,0,0-.24.82v1.69Z" transform="translate(-2.4 -3.17)"/><path class="cls-5" d="M59.84,43l.51.08a.46.46,0,0,0,.18.34.87.87,0,0,0,.54.15.91.91,0,0,0,.56-.15A.63.63,0,0,0,61.9,43a3.16,3.16,0,0,0,0-.67,1.08,1.08,0,0,1-.86.4,1.15,1.15,0,0,1-1-.46,1.76,1.76,0,0,1-.36-1.11,2,2,0,0,1,.17-.82,1.22,1.22,0,0,1,.46-.58,1.27,1.27,0,0,1,.72-.21A1.11,1.11,0,0,1,62,40v-.38h.49v2.69a2.5,2.5,0,0,1-.15,1,1.14,1.14,0,0,1-.47.48,1.59,1.59,0,0,1-.79.18,1.55,1.55,0,0,1-.9-.25A.85.85,0,0,1,59.84,43Zm.44-1.87a1.38,1.38,0,0,0,.24.9.78.78,0,0,0,.61.28.81.81,0,0,0,.61-.28,1.34,1.34,0,0,0,.24-.88,1.26,1.26,0,0,0-.25-.86.79.79,0,0,0-.61-.29.78.78,0,0,0-.6.28A1.32,1.32,0,0,0,60.28,41.16Z" transform="translate(-2.4 -3.17)"/><path class="cls-5" d="M65.4,41.77l.55.07a1.34,1.34,0,0,1-.48.74,1.62,1.62,0,0,1-2-.16,1.61,1.61,0,0,1-.4-1.17A1.71,1.71,0,0,1,63.5,40a1.37,1.37,0,0,1,1-.44,1.3,1.3,0,0,1,1,.43,1.69,1.69,0,0,1,.4,1.19s0,.08,0,.14H63.64a1.21,1.21,0,0,0,.29.79.88.88,0,0,0,.65.27.82.82,0,0,0,.5-.15A1,1,0,0,0,65.4,41.77Zm-1.73-.85h1.74a1,1,0,0,0-.2-.59A.87.87,0,0,0,64,40.27,1,1,0,0,0,63.67,40.92Z" transform="translate(-2.4 -3.17)"/><path d="M6.7,55.72H2.91v1.41H2.4v-3.4h.51v1.42H6.7Z" transform="translate(-2.4 -3.17)"/><path d="M6.7,53.21H2.4v-.53H3.94a1.17,1.17,0,0,1-.42-.93,1.26,1.26,0,0,1,.13-.6A.78.78,0,0,1,4,50.79a1.62,1.62,0,0,1,.7-.11h2v.52h-2a.79.79,0,0,0-.58.18.62.62,0,0,0-.18.48.86.86,0,0,0,.12.44.68.68,0,0,0,.33.3,1.75,1.75,0,0,0,.58.08H6.7Z" transform="translate(-2.4 -3.17)"/><path d="M6.7,49.88H3.59v-.47h.47a1.48,1.48,0,0,1-.44-.34.59.59,0,0,1-.1-.34,1,1,0,0,1,.17-.54l.48.18a.82.82,0,0,0-.11.39.57.57,0,0,0,.1.31.53.53,0,0,0,.29.19,2.06,2.06,0,0,0,.62.09H6.7Z" transform="translate(-2.4 -3.17)"/><path d="M6.7,45.84H6.24a1.14,1.14,0,0,1,.53,1,1.27,1.27,0,0,1-.11.52.82.82,0,0,1-.26.35,1.15,1.15,0,0,1-.39.17,3,3,0,0,1-.5,0H3.59v-.53H5.31a3.35,3.35,0,0,0,.56,0,.57.57,0,0,0,.32-.21.65.65,0,0,0,.12-.4.89.89,0,0,0-.12-.45A.66.66,0,0,0,5.86,46a1.6,1.6,0,0,0-.61-.09H3.59v-.52H6.7Z" transform="translate(-2.4 -3.17)"/><path d="M5.77,44.75l-.08-.52A.7.7,0,0,0,6.17,44a.85.85,0,0,0,.16-.56.89.89,0,0,0-.14-.54.47.47,0,0,0-.35-.17.32.32,0,0,0-.28.15,2.29,2.29,0,0,0-.18.54,5.44,5.44,0,0,1-.25.81.83.83,0,0,1-.3.34.88.88,0,0,1-.42.11A.82.82,0,0,1,4,44.57a.94.94,0,0,1-.3-.26A1.08,1.08,0,0,1,3.58,44a1.63,1.63,0,0,1-.06-.45,1.85,1.85,0,0,1,.1-.65.92.92,0,0,1,.29-.41,1.34,1.34,0,0,1,.48-.18l.07.52a.57.57,0,0,0-.38.2.74.74,0,0,0-.13.48.89.89,0,0,0,.12.52.35.35,0,0,0,.28.15.33.33,0,0,0,.19-.06.64.64,0,0,0,.14-.2c0-.06.06-.21.13-.47a5.57,5.57,0,0,1,.25-.78.71.71,0,0,1,.72-.47.91.91,0,0,1,.5.15.93.93,0,0,1,.36.44,1.59,1.59,0,0,1,.13.66,1.5,1.5,0,0,1-.25.92A1.16,1.16,0,0,1,5.77,44.75Z" transform="translate(-2.4 -3.17)"/><path d="M6.23,40.39l.46-.08a2.08,2.08,0,0,1,0,.4,1,1,0,0,1-.09.45.56.56,0,0,1-.24.22,2,2,0,0,1-.62.06H4v.39H3.59v-.39H2.82l-.32-.52H3.59v-.53H4v.53H5.82a.89.89,0,0,0,.29,0,.28.28,0,0,0,.1-.09.4.4,0,0,0,0-.18C6.25,40.56,6.24,40.48,6.23,40.39Z" transform="translate(-2.4 -3.17)"/><path d="M7.89,38.19H2.4V37h.44v.64H7.45V37h.44Z" transform="translate(-2.4 -3.17)"/><path d="M6.7,36.48H2.4v-.59l3.37-2.25H2.4v-.55H6.7v.59L3.32,35.93H6.7Z" transform="translate(-2.4 -3.17)"/><path d="M7.89,31.32v1.17H7.45v-.64H2.84v.64H2.4V31.32Z" transform="translate(-2.4 -3.17)"/><path d="M47.2,92.21l.54,0a1.19,1.19,0,0,0,.17.53,1,1,0,0,0,.44.33,1.71,1.71,0,0,0,1.23,0,.75.75,0,0,0,.37-.26.65.65,0,0,0,.12-.37.53.53,0,0,0-.12-.35.82.82,0,0,0-.38-.26l-.77-.21a3.46,3.46,0,0,1-.83-.27,1.1,1.1,0,0,1-.45-.4.88.88,0,0,1-.16-.53,1.13,1.13,0,0,1,.73-1,2.18,2.18,0,0,1,.79-.14,2.21,2.21,0,0,1,.84.15,1.2,1.2,0,0,1,.56.45,1.33,1.33,0,0,1,.21.68l-.54,0a.85.85,0,0,0-.3-.61,1.16,1.16,0,0,0-.75-.21,1.18,1.18,0,0,0-.75.19.54.54,0,0,0-.24.45.49.49,0,0,0,.17.38,2.13,2.13,0,0,0,.86.31,6.52,6.52,0,0,1,1,.27,1.31,1.31,0,0,1,.55.44,1.07,1.07,0,0,1,.18.61,1.18,1.18,0,0,1-.2.65,1.3,1.3,0,0,1-.56.47,2,2,0,0,1-.83.17,2.57,2.57,0,0,1-1-.17,1.33,1.33,0,0,1-.61-.51A1.49,1.49,0,0,1,47.2,92.21Z" transform="translate(-2.4 -3.17)"/><path d="M51.33,94.78V90.47h.48v.41a1.17,1.17,0,0,1,.38-.36,1.05,1.05,0,0,1,.52-.12,1.18,1.18,0,0,1,.7.21,1.21,1.21,0,0,1,.46.58A2,2,0,0,1,54,92a2.2,2.2,0,0,1-.17.86,1.3,1.3,0,0,1-.5.58,1.27,1.27,0,0,1-.69.21,1.06,1.06,0,0,1-.81-.4v1.52Zm.48-2.73a1.34,1.34,0,0,0,.24.88.72.72,0,0,0,.59.29.77.77,0,0,0,.6-.3,1.37,1.37,0,0,0,.25-.92,1.41,1.41,0,0,0-.24-.89.77.77,0,0,0-.59-.29.78.78,0,0,0-.6.31A1.44,1.44,0,0,0,51.81,92.05Z" transform="translate(-2.4 -3.17)"/><path d="M56.79,92.58l.55.07a1.34,1.34,0,0,1-.48.74,1.41,1.41,0,0,1-.89.27,1.43,1.43,0,0,1-1.08-.42,1.64,1.64,0,0,1-.4-1.18,1.71,1.71,0,0,1,.4-1.22,1.37,1.37,0,0,1,1-.44,1.3,1.3,0,0,1,1,.43,1.65,1.65,0,0,1,.4,1.19.82.82,0,0,1,0,.14H55a1.21,1.21,0,0,0,.29.79.88.88,0,0,0,.65.27.82.82,0,0,0,.5-.15A1,1,0,0,0,56.79,92.58Zm-1.73-.85H56.8a1,1,0,0,0-.2-.59.81.81,0,0,0-.65-.3.84.84,0,0,0-.61.24A1,1,0,0,0,55.06,91.73Z" transform="translate(-2.4 -3.17)"/><path d="M60.13,92.58l.55.07a1.34,1.34,0,0,1-.48.74,1.6,1.6,0,0,1-2-.15,1.64,1.64,0,0,1-.4-1.18,1.71,1.71,0,0,1,.4-1.22,1.37,1.37,0,0,1,1.05-.44,1.3,1.3,0,0,1,1,.43A1.69,1.69,0,0,1,60.69,92v.14H58.37a1.21,1.21,0,0,0,.29.79.86.86,0,0,0,.65.27.84.84,0,0,0,.5-.15A1,1,0,0,0,60.13,92.58Zm-1.73-.85h1.74a1.11,1.11,0,0,0-.2-.59.82.82,0,0,0-.65-.3.86.86,0,0,0-.62.24A1,1,0,0,0,58.4,91.73Z" transform="translate(-2.4 -3.17)"/><path d="M63.36,93.58v-.39a1,1,0,0,1-.87.47,1.22,1.22,0,0,1-.69-.21,1.41,1.41,0,0,1-.48-.57,2.08,2.08,0,0,1-.17-.85,2.24,2.24,0,0,1,.15-.84,1.19,1.19,0,0,1,.47-.58,1.22,1.22,0,0,1,.69-.21,1.05,1.05,0,0,1,.86.43V89.29h.53v4.29ZM61.69,92a1.36,1.36,0,0,0,.25.9.79.79,0,0,0,.6.29.72.72,0,0,0,.58-.28,1.26,1.26,0,0,0,.25-.86,1.49,1.49,0,0,0-.25-.94.76.76,0,0,0-.61-.3.72.72,0,0,0-.58.29A1.38,1.38,0,0,0,61.69,92Z" transform="translate(-2.4 -3.17)"/><path d="M66.35,94.78V89.29h1.17v.44h-.64v4.61h.64v.44Z" transform="translate(-2.4 -3.17)"/><path d="M68,93.58V90.47h.47v.44a1.26,1.26,0,0,1,.39-.37,1.12,1.12,0,0,1,.55-.14,1,1,0,0,1,.57.15.73.73,0,0,1,.31.4,1.12,1.12,0,0,1,1-.55,1,1,0,0,1,.72.26,1.12,1.12,0,0,1,.25.79v2.13H71.7v-2a1.54,1.54,0,0,0,0-.45.41.41,0,0,0-.19-.22.54.54,0,0,0-.31-.09.74.74,0,0,0-.55.22,1,1,0,0,0-.21.7v1.8h-.53v-2a.83.83,0,0,0-.13-.52.49.49,0,0,0-.42-.18.73.73,0,0,0-.41.12.67.67,0,0,0-.28.34,2.15,2.15,0,0,0-.08.65v1.61Z" transform="translate(-2.4 -3.17)"/><path d="M72.61,93.66l1.25-4.44h.42L73,93.66Z" transform="translate(-2.4 -3.17)"/><path d="M74.46,92.66l.53-.09a.7.7,0,0,0,.24.48.8.8,0,0,0,.56.17.83.83,0,0,0,.54-.15.42.42,0,0,0,.18-.34.32.32,0,0,0-.16-.28,2,2,0,0,0-.54-.18A4.94,4.94,0,0,1,75,92a.76.76,0,0,1-.34-.29.79.79,0,0,1-.12-.42.7.7,0,0,1,.1-.38.83.83,0,0,1,.26-.3,1,1,0,0,1,.33-.15,1.39,1.39,0,0,1,.46-.07,1.79,1.79,0,0,1,.64.11.85.85,0,0,1,.41.28,1.14,1.14,0,0,1,.18.49l-.51.07a.62.62,0,0,0-.21-.38.73.73,0,0,0-.47-.13.84.84,0,0,0-.52.12.33.33,0,0,0-.16.28.24.24,0,0,0,.07.18.38.38,0,0,0,.2.14l.46.14a6.53,6.53,0,0,1,.78.24.82.82,0,0,1,.35.28.73.73,0,0,1,.13.45.85.85,0,0,1-.16.5,1.06,1.06,0,0,1-.44.36,1.69,1.69,0,0,1-.66.13,1.44,1.44,0,0,1-.92-.26A1.15,1.15,0,0,1,74.46,92.66Z" transform="translate(-2.4 -3.17)"/><path d="M78.56,94.78H77.39v-.44H78V89.73h-.64v-.44h1.17Z" transform="translate(-2.4 -3.17)"/></g></svg>