<svg xmlns="http://www.w3.org/2000/svg" xmlns:xlink="http://www.w3.org/1999/xlink" viewBox="0 0 98.66 89.88"><defs><style>.cls-1{fill:#fff;}.cls-2{clip-path:url(#clip-path);}.cls-3,.cls-4{fill:none;}.cls-3{stroke:#b5b5b6;stroke-width:3px;}.cls-4{stroke:#231815;stroke-miterlimit:10;stroke-width:0.4px;}.cls-5{fill:#231815;}</style><clipPath id="clip-path" transform="translate(-2.4 -4.9)"><rect id="SVGID" class="cls-1" x="27.62" y="5.1" width="70.62" height="75"/></clipPath></defs><g id="Illust"><rect id="SVGID-2" data-name="SVGID" class="cls-1" x="25.22" y="0.2" width="70.62" height="75"/><g class="cls-2"><polyline class="cls-3" points="25.22 4.95 60.32 4.95 97.6 41.93"/><line class="cls-3" x1="25.22" y1="51.76" x2="96.23" y2="51.76"/></g><line class="cls-3" x1="25.22" y1="63.25" x2="96.23" y2="63.25"/><line class="cls-4" x1="95.84" y1="4.95" x2="25.22" y2="4.95"/><line class="cls-4" x1="95.84" y1="28.37" x2="25.22" y2="28.37"/><line class="cls-4" x1="95.84" y1="51.78" x2="25.22" y2="51.78"/><line class="cls-4" x1="60.53" y1="30.83" x2="60.53" y2="0.2"/><line class="cls-4" x1="60.53" y1="53.49" x2="60.53" y2="38.76"/><line class="cls-4" x1="60.53" y1="64.89" x2="60.53" y2="60.96"/><line class="cls-4" x1="60.53" y1="75.2" x2="60.53" y2="72.41"/><polygon class="cls-4" points="95.84 72.6 95.84 75.2 25.22 75.2 25.22 0.2 95.84 0.2 95.84 53.6 95.84 72.6"/></g><g id="japanese"><path class="cls-5" d="M12.52,11.1,13,11a1.24,1.24,0,0,0,.31.64.76.76,0,0,0,.54.2.89.89,0,0,0,.88-.89.78.78,0,0,0-.24-.6.8.8,0,0,0-.6-.24,1.48,1.48,0,0,0-.37.06l.06-.46h.08a1.14,1.14,0,0,0,.61-.17A.61.61,0,0,0,14.58,9a.66.66,0,0,0-.2-.48.76.76,0,0,0-1,0,1,1,0,0,0-.26.58L12.57,9A1.35,1.35,0,0,1,13,8.21a1.29,1.29,0,0,1,.85-.29,1.41,1.41,0,0,1,.65.15,1.06,1.06,0,0,1,.45.41,1,1,0,0,1,.16.56.89.89,0,0,1-.15.5,1,1,0,0,1-.44.37,1,1,0,0,1,.59.36,1.13,1.13,0,0,1,.21.69,1.28,1.28,0,0,1-.41,1,1.44,1.44,0,0,1-1,.39,1.34,1.34,0,0,1-.94-.34A1.25,1.25,0,0,1,12.52,11.1Z" transform="translate(-2.4 -4.9)"/><path class="cls-5" d="M18.59,9l-.53,0a.86.86,0,0,0-.2-.45.68.68,0,0,0-.52-.23.77.77,0,0,0-.45.14A1.36,1.36,0,0,0,16.5,9a3.14,3.14,0,0,0-.15,1,1.13,1.13,0,0,1,.47-.43,1.16,1.16,0,0,1,.58-.14,1.19,1.19,0,0,1,.89.38,1.4,1.4,0,0,1,.37,1,1.59,1.59,0,0,1-.17.75,1.3,1.3,0,0,1-.48.53,1.32,1.32,0,0,1-.69.19,1.38,1.38,0,0,1-1.08-.49,2.48,2.48,0,0,1-.41-1.6,2.85,2.85,0,0,1,.46-1.81,1.32,1.32,0,0,1,1.08-.49,1.26,1.26,0,0,1,.83.28A1.24,1.24,0,0,1,18.59,9Zm-2.16,1.85a1.17,1.17,0,0,0,.12.52.87.87,0,0,0,.32.38.8.8,0,0,0,.44.13.74.74,0,0,0,.57-.27,1.05,1.05,0,0,0,.24-.73,1,1,0,0,0-.23-.7.79.79,0,0,0-.6-.26.83.83,0,0,0-.61.26A.94.94,0,0,0,16.43,10.84Z" transform="translate(-2.4 -4.9)"/><path class="cls-5" d="M19.19,10.11a3.76,3.76,0,0,1,.16-1.22,1.48,1.48,0,0,1,.46-.72,1.2,1.2,0,0,1,.78-.25,1.34,1.34,0,0,1,.61.14,1.26,1.26,0,0,1,.43.4,2.2,2.2,0,0,1,.26.64,3.93,3.93,0,0,1,.1,1,3.68,3.68,0,0,1-.16,1.22,1.48,1.48,0,0,1-.46.72,1.2,1.2,0,0,1-.78.26,1.18,1.18,0,0,1-1-.45A2.87,2.87,0,0,1,19.19,10.11Zm.54,0A2.63,2.63,0,0,0,20,11.52a.71.71,0,0,0,.61.35.72.72,0,0,0,.61-.35,2.73,2.73,0,0,0,.25-1.41,2.71,2.71,0,0,0-.25-1.4.73.73,0,0,0-.62-.35.69.69,0,0,0-.58.3A2.78,2.78,0,0,0,19.73,10.11Z" transform="translate(-2.4 -4.9)"/><path class="cls-5" d="M22.53,10.11a4.09,4.09,0,0,1,.15-1.22,1.56,1.56,0,0,1,.47-.72,1.16,1.16,0,0,1,.78-.25,1.27,1.27,0,0,1,.6.14,1.1,1.1,0,0,1,.43.4,2,2,0,0,1,.27.64,4.44,4.44,0,0,1,.1,1,4,4,0,0,1-.16,1.22,1.55,1.55,0,0,1-.46.72,1.2,1.2,0,0,1-.78.26,1.18,1.18,0,0,1-1-.45A2.87,2.87,0,0,1,22.53,10.11Zm.54,0a2.75,2.75,0,0,0,.24,1.41.72.72,0,0,0,1.23,0,2.75,2.75,0,0,0,.24-1.41,2.74,2.74,0,0,0-.24-1.4.73.73,0,0,0-.62-.35.68.68,0,0,0-.58.3A2.78,2.78,0,0,0,23.07,10.11Z" transform="translate(-2.4 -4.9)"/><path class="cls-5" d="M15.29,34.86v.51H12.45a.78.78,0,0,1,.06-.37,2,2,0,0,1,.35-.57,5.66,5.66,0,0,1,.69-.65,5.89,5.89,0,0,0,.94-.91,1,1,0,0,0,.25-.63.7.7,0,0,0-.23-.53.78.78,0,0,0-.58-.22.84.84,0,0,0-.61.23.85.85,0,0,0-.23.63l-.54-.05a1.28,1.28,0,0,1,.42-.93,1.41,1.41,0,0,1,1-.31,1.36,1.36,0,0,1,1,.34,1.13,1.13,0,0,1,.36.85,1.1,1.1,0,0,1-.11.5,1.73,1.73,0,0,1-.35.53A8.44,8.44,0,0,1,14,34c-.31.27-.52.45-.61.55a1.79,1.79,0,0,0-.22.28Z" transform="translate(-2.4 -4.9)"/><path class="cls-5" d="M17.54,35.37v-1H15.68v-.48l2-2.79h.43v2.79h.58v.48h-.58v1Zm0-1.51V31.92L16.2,33.86Z" transform="translate(-2.4 -4.9)"/><path class="cls-5" d="M19.19,33.25A3.78,3.78,0,0,1,19.35,32a1.44,1.44,0,0,1,.46-.71,1.2,1.2,0,0,1,.78-.25,1.33,1.33,0,0,1,.61.13,1.29,1.29,0,0,1,.43.41,2,2,0,0,1,.26.63,4,4,0,0,1,.1,1,3.76,3.76,0,0,1-.16,1.22,1.48,1.48,0,0,1-.46.72A1.32,1.32,0,0,1,19.61,35,2.87,2.87,0,0,1,19.19,33.25Zm.54,0A2.68,2.68,0,0,0,20,34.66a.73.73,0,0,0,.61.35.75.75,0,0,0,.61-.35,2.78,2.78,0,0,0,.25-1.41,2.73,2.73,0,0,0-.25-1.41.75.75,0,0,0-.62-.35.68.68,0,0,0-.58.31A2.73,2.73,0,0,0,19.73,33.25Z" transform="translate(-2.4 -4.9)"/><path class="cls-5" d="M22.53,33.25A4.12,4.12,0,0,1,22.68,32a1.53,1.53,0,0,1,.47-.71,1.16,1.16,0,0,1,.78-.25,1.26,1.26,0,0,1,.6.13,1.13,1.13,0,0,1,.43.41,1.82,1.82,0,0,1,.27.63,4.54,4.54,0,0,1,.1,1,4.05,4.05,0,0,1-.16,1.22,1.55,1.55,0,0,1-.46.72A1.32,1.32,0,0,1,23,35,2.87,2.87,0,0,1,22.53,33.25Zm.54,0a2.81,2.81,0,0,0,.24,1.41.72.72,0,0,0,1.23,0,2.81,2.81,0,0,0,.24-1.41,2.75,2.75,0,0,0-.24-1.41.75.75,0,0,0-.62-.35.66.66,0,0,0-.58.31A2.73,2.73,0,0,0,23.07,33.25Z" transform="translate(-2.4 -4.9)"/><path class="cls-5" d="M14.5,59.64H14V56.28a2.4,2.4,0,0,1-.5.36,3.44,3.44,0,0,1-.55.27V56.4a3.52,3.52,0,0,0,.77-.5,2,2,0,0,0,.47-.58h.34Z" transform="translate(-2.4 -4.9)"/><path class="cls-5" d="M18.62,59.13v.51H15.78a.94.94,0,0,1,.07-.37,1.91,1.91,0,0,1,.34-.57,5,5,0,0,1,.69-.65,5.64,5.64,0,0,0,.95-.91,1.13,1.13,0,0,0,.25-.64.72.72,0,0,0-.23-.53.81.81,0,0,0-.58-.21.79.79,0,0,0-.84.86l-.55,0a1.35,1.35,0,0,1,.42-.93,1.44,1.44,0,0,1,1-.32,1.37,1.37,0,0,1,1,.35,1.11,1.11,0,0,1,.36.85,1.25,1.25,0,0,1-.11.5,2.1,2.1,0,0,1-.35.53,8.44,8.44,0,0,1-.81.75c-.32.27-.52.45-.61.54a1.85,1.85,0,0,0-.22.29Z" transform="translate(-2.4 -4.9)"/><path class="cls-5" d="M19.19,57.52a3.78,3.78,0,0,1,.16-1.23,1.4,1.4,0,0,1,.46-.71,1.2,1.2,0,0,1,.78-.26,1.34,1.34,0,0,1,.61.14,1.36,1.36,0,0,1,.43.4,2.2,2.2,0,0,1,.26.64,4,4,0,0,1,.1,1,3.76,3.76,0,0,1-.16,1.22,1.48,1.48,0,0,1-.46.72,1.26,1.26,0,0,1-.78.25,1.18,1.18,0,0,1-1-.45A2.83,2.83,0,0,1,19.19,57.52Zm.54,0A2.68,2.68,0,0,0,20,58.93a.7.7,0,0,0,1.22,0,4.07,4.07,0,0,0,0-2.81.75.75,0,0,0-.62-.35.68.68,0,0,0-.58.31A2.73,2.73,0,0,0,19.73,57.52Z" transform="translate(-2.4 -4.9)"/><path class="cls-5" d="M22.53,57.52a4.12,4.12,0,0,1,.15-1.23,1.48,1.48,0,0,1,.47-.71,1.17,1.17,0,0,1,.78-.26,1.27,1.27,0,0,1,.6.14,1.18,1.18,0,0,1,.43.4,2,2,0,0,1,.27.64,4.47,4.47,0,0,1,.1,1,4.05,4.05,0,0,1-.16,1.22,1.55,1.55,0,0,1-.46.72,1.26,1.26,0,0,1-.78.25,1.18,1.18,0,0,1-1-.45A2.83,2.83,0,0,1,22.53,57.52Zm.54,0a2.81,2.81,0,0,0,.24,1.41.75.75,0,0,0,.62.35.73.73,0,0,0,.61-.36,4.23,4.23,0,0,0,0-2.81.75.75,0,0,0-.62-.35.66.66,0,0,0-.58.31A2.73,2.73,0,0,0,23.07,57.52Z" transform="translate(-2.4 -4.9)"/><path class="cls-5" d="M18.59,67.62l-.53,0a.94.94,0,0,0-.2-.46.67.67,0,0,0-.52-.22.77.77,0,0,0-.45.14,1.29,1.29,0,0,0-.39.53,3,3,0,0,0-.15,1,1.24,1.24,0,0,1,1-.57,1.17,1.17,0,0,1,.89.39,1.37,1.37,0,0,1,.37,1,1.59,1.59,0,0,1-.17.75,1.33,1.33,0,0,1-.48.54,1.31,1.31,0,0,1-.69.18,1.37,1.37,0,0,1-1.08-.48,2.52,2.52,0,0,1-.41-1.6,2.83,2.83,0,0,1,.46-1.81,1.32,1.32,0,0,1,1.08-.49,1.15,1.15,0,0,1,1.22,1.06Zm-2.16,1.86a1.2,1.2,0,0,0,.12.52,1,1,0,0,0,.32.38.9.9,0,0,0,.44.13.74.74,0,0,0,.57-.27,1.07,1.07,0,0,0,.24-.73,1,1,0,0,0-.23-.71.79.79,0,0,0-.6-.25.82.82,0,0,0-.61.25A1,1,0,0,0,16.43,69.48Z" transform="translate(-2.4 -4.9)"/><path class="cls-5" d="M19.19,68.75a3.78,3.78,0,0,1,.16-1.23,1.44,1.44,0,0,1,.46-.71,1.2,1.2,0,0,1,.78-.25,1.22,1.22,0,0,1,.61.14,1.17,1.17,0,0,1,.43.4,2,2,0,0,1,.26.63,4,4,0,0,1,.1,1A3.76,3.76,0,0,1,21.83,70a1.48,1.48,0,0,1-.46.72,1.32,1.32,0,0,1-1.76-.19A2.87,2.87,0,0,1,19.19,68.75Zm.54,0A2.65,2.65,0,0,0,20,70.16a.73.73,0,0,0,.61.35.75.75,0,0,0,.61-.35,2.78,2.78,0,0,0,.25-1.41,2.73,2.73,0,0,0-.25-1.41.75.75,0,0,0-.62-.35.68.68,0,0,0-.58.31A2.73,2.73,0,0,0,19.73,68.75Z" transform="translate(-2.4 -4.9)"/><path class="cls-5" d="M22.53,68.75a4.12,4.12,0,0,1,.15-1.23,1.53,1.53,0,0,1,.47-.71,1.35,1.35,0,0,1,1.38-.11,1,1,0,0,1,.43.4,1.82,1.82,0,0,1,.27.63,4.54,4.54,0,0,1,.1,1A4.05,4.05,0,0,1,25.17,70a1.55,1.55,0,0,1-.46.72A1.32,1.32,0,0,1,23,70.5,2.87,2.87,0,0,1,22.53,68.75Zm.54,0a2.78,2.78,0,0,0,.24,1.41.72.72,0,0,0,1.23,0,2.81,2.81,0,0,0,.24-1.41,2.75,2.75,0,0,0-.24-1.41.75.75,0,0,0-.62-.35.66.66,0,0,0-.58.31A2.73,2.73,0,0,0,23.07,68.75Z" transform="translate(-2.4 -4.9)"/><path class="cls-5" d="M22.53,80a4.09,4.09,0,0,1,.15-1.22,1.56,1.56,0,0,1,.47-.72,1.16,1.16,0,0,1,.78-.25,1.27,1.27,0,0,1,.6.14,1.1,1.1,0,0,1,.43.4,2,2,0,0,1,.27.64,4.44,4.44,0,0,1,.1,1,4.08,4.08,0,0,1-.16,1.23,1.57,1.57,0,0,1-.46.71,1.2,1.2,0,0,1-.78.26,1.18,1.18,0,0,1-1-.45A2.87,2.87,0,0,1,22.53,80Zm.54,0a2.75,2.75,0,0,0,.24,1.41.73.73,0,0,0,.62.35.75.75,0,0,0,.61-.35,4.23,4.23,0,0,0,0-2.81.73.73,0,0,0-.62-.35.68.68,0,0,0-.58.3A2.78,2.78,0,0,0,23.07,80Z" transform="translate(-2.4 -4.9)"/><path d="M64,86h-.53V82.59A2.59,2.59,0,0,1,63,83a4.15,4.15,0,0,1-.56.28v-.51a3.22,3.22,0,0,0,.77-.51,2.07,2.07,0,0,0,.47-.57H64Z" transform="translate(-2.4 -4.9)"/><path d="M99.63,85.44V86H96.79a.78.78,0,0,1,.06-.37A2,2,0,0,1,97.2,85a5,5,0,0,1,.69-.65,5.49,5.49,0,0,0,.94-.91,1,1,0,0,0,.25-.63.7.7,0,0,0-.23-.53.8.8,0,0,0-.58-.22.84.84,0,0,0-.61.23.9.9,0,0,0-.23.64l-.54-.06a1.27,1.27,0,0,1,.42-.92,1.61,1.61,0,0,1,2,0,1.13,1.13,0,0,1,.36.85,1.34,1.34,0,0,1-.11.51,1.82,1.82,0,0,1-.35.52,8.25,8.25,0,0,1-.81.76,8,8,0,0,0-.61.54,1.79,1.79,0,0,0-.22.28Z" transform="translate(-2.4 -4.9)"/><path d="M45.51,92.21l.54,0a1.08,1.08,0,0,0,.18.53.87.87,0,0,0,.43.33,1.53,1.53,0,0,0,.66.13,1.45,1.45,0,0,0,.57-.1.75.75,0,0,0,.37-.26.65.65,0,0,0,.12-.37.58.58,0,0,0-.11-.35.92.92,0,0,0-.39-.26l-.76-.21a3.16,3.16,0,0,1-.83-.27,1.07,1.07,0,0,1-.46-.4.94.94,0,0,1-.15-.53,1.1,1.1,0,0,1,.72-1,2.22,2.22,0,0,1,.79-.14,2.17,2.17,0,0,1,.84.15,1.2,1.2,0,0,1,.56.45,1.33,1.33,0,0,1,.21.68l-.54,0a.85.85,0,0,0-.3-.61,1.16,1.16,0,0,0-.75-.21,1.18,1.18,0,0,0-.75.19.54.54,0,0,0-.24.45.49.49,0,0,0,.17.38,2.2,2.2,0,0,0,.86.31,6.15,6.15,0,0,1,1,.27,1.31,1.31,0,0,1,.55.44,1.07,1.07,0,0,1,.18.61,1.17,1.17,0,0,1-.19.65,1.33,1.33,0,0,1-.57.47,2,2,0,0,1-.83.17,2.51,2.51,0,0,1-1-.17,1.3,1.3,0,0,1-.62-.51A1.49,1.49,0,0,1,45.51,92.21Z" transform="translate(-2.4 -4.9)"/><path d="M49.64,94.78V90.47h.48v.41a1.17,1.17,0,0,1,.38-.36A1.08,1.08,0,0,1,51,90.4a1.24,1.24,0,0,1,.71.21,1.34,1.34,0,0,1,.46.58,2.18,2.18,0,0,1,.15.82,2.2,2.2,0,0,1-.17.86,1.34,1.34,0,0,1-1.18.79,1,1,0,0,1-.48-.12.93.93,0,0,1-.34-.28v1.52Zm.48-2.73a1.34,1.34,0,0,0,.24.88.72.72,0,0,0,.59.29.75.75,0,0,0,.6-.3A1.37,1.37,0,0,0,51.8,92a1.41,1.41,0,0,0-.24-.89.75.75,0,0,0-.59-.29.74.74,0,0,0-.59.31A1.38,1.38,0,0,0,50.12,92.05Z" transform="translate(-2.4 -4.9)"/><path d="M55.11,92.58l.54.07a1.24,1.24,0,0,1-.48.74,1.39,1.39,0,0,1-.89.27,1.43,1.43,0,0,1-1.08-.42,1.68,1.68,0,0,1-.4-1.18,1.71,1.71,0,0,1,.41-1.22,1.37,1.37,0,0,1,1-.44,1.3,1.3,0,0,1,1,.43,1.65,1.65,0,0,1,.4,1.19v.14H53.35a1.16,1.16,0,0,0,.29.79.86.86,0,0,0,.65.27.79.79,0,0,0,.49-.15A1,1,0,0,0,55.11,92.58Zm-1.73-.85h1.73a1,1,0,0,0-.2-.59.79.79,0,0,0-.65-.3.84.84,0,0,0-.61.24A.9.9,0,0,0,53.38,91.73Z" transform="translate(-2.4 -4.9)"/><path d="M58.44,92.58l.55.07a1.34,1.34,0,0,1-.48.74,1.41,1.41,0,0,1-.89.27,1.43,1.43,0,0,1-1.08-.42,1.64,1.64,0,0,1-.4-1.18,1.71,1.71,0,0,1,.4-1.22,1.37,1.37,0,0,1,1.05-.44,1.3,1.3,0,0,1,1,.43A1.65,1.65,0,0,1,59,92a.82.82,0,0,1,0,.14H56.68A1.21,1.21,0,0,0,57,93a.88.88,0,0,0,.65.27.82.82,0,0,0,.5-.15A1,1,0,0,0,58.44,92.58Zm-1.73-.85h1.74a1,1,0,0,0-.2-.59.81.81,0,0,0-.65-.3.84.84,0,0,0-.61.24A1,1,0,0,0,56.71,91.73Z" transform="translate(-2.4 -4.9)"/><path d="M61.67,93.58v-.39a1,1,0,0,1-.87.47,1.16,1.16,0,0,1-.68-.21,1.44,1.44,0,0,1-.49-.57,2.25,2.25,0,0,1,0-1.69,1.18,1.18,0,0,1,.46-.58,1.23,1.23,0,0,1,.7-.21,1,1,0,0,1,.85.43V89.29h.53v4.29ZM60,92a1.42,1.42,0,0,0,.25.9.79.79,0,0,0,.6.29.74.74,0,0,0,.59-.28,1.32,1.32,0,0,0,.24-.86,1.43,1.43,0,0,0-.25-.94.75.75,0,0,0-1.19,0A1.38,1.38,0,0,0,60,92Z" transform="translate(-2.4 -4.9)"/><path d="M64.67,94.78V89.29h1.16v.44h-.64v4.61h.64v.44Z" transform="translate(-2.4 -4.9)"/><path d="M66.32,93.58V90.47h.47v.44a1.26,1.26,0,0,1,.39-.37,1.16,1.16,0,0,1,.56-.14,1,1,0,0,1,.56.15.75.75,0,0,1,.32.4,1.09,1.09,0,0,1,1-.55,1,1,0,0,1,.71.26,1.07,1.07,0,0,1,.25.79v2.13H70v-2a1.25,1.25,0,0,0-.05-.45.39.39,0,0,0-.18-.22.57.57,0,0,0-.32-.09.7.7,0,0,0-.54.22.93.93,0,0,0-.22.7v1.8h-.53v-2A.83.83,0,0,0,68,91a.47.47,0,0,0-.42-.18.73.73,0,0,0-.41.12.67.67,0,0,0-.28.34,2.15,2.15,0,0,0-.08.65v1.61Z" transform="translate(-2.4 -4.9)"/><path d="M70.92,93.66l1.25-4.44h.42l-1.24,4.44Z" transform="translate(-2.4 -4.9)"/><path d="M72.78,92.66l.52-.09a.74.74,0,0,0,.24.48.82.82,0,0,0,.56.17.79.79,0,0,0,.54-.15.42.42,0,0,0,.18-.34.3.3,0,0,0-.16-.28,2,2,0,0,0-.54-.18,5.32,5.32,0,0,1-.8-.26.81.81,0,0,1-.34-.29.79.79,0,0,1-.12-.42.8.8,0,0,1,.1-.38.83.83,0,0,1,.26-.3,1,1,0,0,1,.33-.15A1.43,1.43,0,0,1,74,90.4a1.79,1.79,0,0,1,.64.11.85.85,0,0,1,.41.28,1.14,1.14,0,0,1,.18.49l-.51.07a.58.58,0,0,0-.21-.38.73.73,0,0,0-.47-.13.87.87,0,0,0-.52.12.36.36,0,0,0-.16.28.29.29,0,0,0,.07.18.38.38,0,0,0,.2.14l.47.14a8,8,0,0,1,.78.24.86.86,0,0,1,.34.28.73.73,0,0,1,.13.45.91.91,0,0,1-.15.5,1.09,1.09,0,0,1-.45.36,1.67,1.67,0,0,1-.65.13,1.45,1.45,0,0,1-.93-.26A1.1,1.1,0,0,1,72.78,92.66Z" transform="translate(-2.4 -4.9)"/><path d="M76.87,94.78H75.71v-.44h.63V89.73h-.63v-.44h1.16Z" transform="translate(-2.4 -4.9)"/><path d="M6.7,55.72H2.91v1.41H2.4v-3.4h.51v1.42H6.7Z" transform="translate(-2.4 -4.9)"/><path d="M6.7,53.21H2.4v-.53H3.94a1.17,1.17,0,0,1-.42-.93,1.26,1.26,0,0,1,.13-.6A.78.78,0,0,1,4,50.79a1.62,1.62,0,0,1,.7-.11h2v.52h-2a.79.79,0,0,0-.58.18.62.62,0,0,0-.18.48.86.86,0,0,0,.12.44.68.68,0,0,0,.33.3,1.75,1.75,0,0,0,.58.08H6.7Z" transform="translate(-2.4 -4.9)"/><path d="M6.7,49.88H3.59v-.47h.47a1.48,1.48,0,0,1-.44-.34.59.59,0,0,1-.1-.34,1,1,0,0,1,.17-.54l.48.18a.82.82,0,0,0-.11.39.57.57,0,0,0,.1.31.53.53,0,0,0,.29.19,2.06,2.06,0,0,0,.62.09H6.7Z" transform="translate(-2.4 -4.9)"/><path d="M6.7,45.84H6.24a1.14,1.14,0,0,1,.53,1,1.27,1.27,0,0,1-.11.52.82.82,0,0,1-.26.35,1.15,1.15,0,0,1-.39.17,3,3,0,0,1-.5,0H3.59v-.53H5.31a3.35,3.35,0,0,0,.56,0,.57.57,0,0,0,.32-.21.65.65,0,0,0,.12-.4.89.89,0,0,0-.12-.45A.66.66,0,0,0,5.86,46a1.6,1.6,0,0,0-.61-.09H3.59v-.52H6.7Z" transform="translate(-2.4 -4.9)"/><path d="M5.77,44.75l-.08-.52A.7.7,0,0,0,6.17,44a.85.85,0,0,0,.16-.56.89.89,0,0,0-.14-.54.47.47,0,0,0-.35-.17.32.32,0,0,0-.28.15,2.29,2.29,0,0,0-.18.54,5.44,5.44,0,0,1-.25.81.83.83,0,0,1-.3.34.88.88,0,0,1-.42.11A.82.82,0,0,1,4,44.57a.94.94,0,0,1-.3-.26A1.08,1.08,0,0,1,3.58,44a1.63,1.63,0,0,1-.06-.45,1.85,1.85,0,0,1,.1-.65.92.92,0,0,1,.29-.41,1.34,1.34,0,0,1,.48-.18l.07.52a.57.57,0,0,0-.38.2.74.74,0,0,0-.13.48.89.89,0,0,0,.12.52.35.35,0,0,0,.28.15.33.33,0,0,0,.19-.06.64.64,0,0,0,.14-.2c0-.06.06-.21.13-.47a5.57,5.57,0,0,1,.25-.78.71.71,0,0,1,.72-.47.91.91,0,0,1,.5.15.93.93,0,0,1,.36.44,1.59,1.59,0,0,1,.13.66,1.5,1.5,0,0,1-.25.92A1.16,1.16,0,0,1,5.77,44.75Z" transform="translate(-2.4 -4.9)"/><path d="M6.23,40.39l.46-.08a2.08,2.08,0,0,1,0,.4,1,1,0,0,1-.09.45.56.56,0,0,1-.24.22,2,2,0,0,1-.62.06H4v.39H3.59v-.39H2.82l-.32-.52H3.59v-.53H4v.53H5.82a.89.89,0,0,0,.29,0,.28.28,0,0,0,.1-.09.4.4,0,0,0,0-.18C6.25,40.56,6.24,40.48,6.23,40.39Z" transform="translate(-2.4 -4.9)"/><path d="M7.89,38.19H2.4V37h.44v.64H7.45V37h.44Z" transform="translate(-2.4 -4.9)"/><path d="M6.7,36.48H2.4v-.59l3.37-2.25H2.4v-.55H6.7v.59L3.32,35.93H6.7Z" transform="translate(-2.4 -4.9)"/><path d="M7.89,31.32v1.17H7.45v-.64H2.84v.64H2.4V31.32Z" transform="translate(-2.4 -4.9)"/><path class="cls-5" d="M29.46,40.5l.53,0a1.33,1.33,0,0,0,.18.53,1.07,1.07,0,0,0,.43.33,1.76,1.76,0,0,0,.66.13,1.61,1.61,0,0,0,.57-.1.78.78,0,0,0,.38-.27.6.6,0,0,0,.12-.36.56.56,0,0,0-.12-.36.91.91,0,0,0-.39-.25l-.76-.21a3.3,3.3,0,0,1-.83-.27,1.07,1.07,0,0,1-.46-.4,1,1,0,0,1-.15-.53,1.11,1.11,0,0,1,.18-.61,1.22,1.22,0,0,1,.54-.43,2,2,0,0,1,.79-.14,2.17,2.17,0,0,1,.84.15,1.15,1.15,0,0,1,.56.45,1.25,1.25,0,0,1,.22.68l-.55,0a.9.9,0,0,0-.3-.62,1.22,1.22,0,0,0-.75-.2,1.18,1.18,0,0,0-.75.19.56.56,0,0,0-.23.45.49.49,0,0,0,.16.38,2.38,2.38,0,0,0,.86.31,5.17,5.17,0,0,1,.95.27,1.34,1.34,0,0,1,.56.44,1.14,1.14,0,0,1,.17.61,1.2,1.2,0,0,1-.19.65,1.27,1.27,0,0,1-.57.47,2,2,0,0,1-.82.17,2.53,2.53,0,0,1-1-.17,1.49,1.49,0,0,1-.62-.51A1.4,1.4,0,0,1,29.46,40.5Z" transform="translate(-2.4 -4.9)"/><path class="cls-5" d="M33.58,41.88V37.59h.53v1.54A1.17,1.17,0,0,1,35,38.7a1.27,1.27,0,0,1,.6.14.83.83,0,0,1,.37.37,1.83,1.83,0,0,1,.11.7v2h-.53v-2a.83.83,0,0,0-.17-.57.66.66,0,0,0-.49-.18.88.88,0,0,0-.44.12.72.72,0,0,0-.29.33,1.48,1.48,0,0,0-.09.57v1.7Z" transform="translate(-2.4 -4.9)"/><path class="cls-5" d="M36.72,40.33a1.59,1.59,0,0,1,.48-1.28,1.47,1.47,0,0,1,1-.35,1.39,1.39,0,0,1,1,.42,1.61,1.61,0,0,1,.41,1.16,2.09,2.09,0,0,1-.18.95,1.23,1.23,0,0,1-.53.53,1.47,1.47,0,0,1-.75.19,1.39,1.39,0,0,1-1-.42A1.65,1.65,0,0,1,36.72,40.33Zm.55,0a1.28,1.28,0,0,0,.26.89.82.82,0,0,0,.65.3.85.85,0,0,0,.66-.3,1.37,1.37,0,0,0,.26-.91,1.24,1.24,0,0,0-.27-.87.82.82,0,0,0-.65-.3.84.84,0,0,0-.65.29A1.31,1.31,0,0,0,37.27,40.33Z" transform="translate(-2.4 -4.9)"/><path class="cls-5" d="M40.25,41.88V38.77h.48v.47a1.27,1.27,0,0,1,.33-.43.6.6,0,0,1,.34-.11,1,1,0,0,1,.54.17l-.18.49a.72.72,0,0,0-.39-.11.5.5,0,0,0-.31.1.59.59,0,0,0-.19.29,2,2,0,0,0-.09.61v1.63Z" transform="translate(-2.4 -4.9)"/><path class="cls-5" d="M43.41,41.41l.07.47a2,2,0,0,1-.4,0,.88.88,0,0,1-.44-.09.46.46,0,0,1-.22-.24,1.61,1.61,0,0,1-.07-.62V39.18H42v-.41h.38V38l.53-.31v1.08h.53v.41h-.53V41a1.48,1.48,0,0,0,0,.29.19.19,0,0,0,.1.1.3.3,0,0,0,.18,0A1.11,1.11,0,0,0,43.41,41.41Z" transform="translate(-2.4 -4.9)"/><path class="cls-5" d="M43.72,40.59v-.53h1.62v.53Z" transform="translate(-2.4 -4.9)"/><path class="cls-5" d="M47.94,41.88v-.39a1,1,0,0,1-.87.46,1.21,1.21,0,0,1-.69-.2,1.5,1.5,0,0,1-.48-.57,2.25,2.25,0,0,1,0-1.69,1.19,1.19,0,0,1,.46-.59,1.3,1.3,0,0,1,.7-.2,1,1,0,0,1,.85.43V37.59h.53v4.29Zm-1.67-1.55a1.37,1.37,0,0,0,.25.89.77.77,0,0,0,.6.3.76.76,0,0,0,.59-.28,1.33,1.33,0,0,0,.24-.87,1.42,1.42,0,0,0-.25-.93.74.74,0,0,0-.6-.3.71.71,0,0,0-.59.29A1.38,1.38,0,0,0,46.27,40.33Z" transform="translate(-2.4 -4.9)"/><path class="cls-5" d="M51.3,41.88v-.45a1.14,1.14,0,0,1-1,.52,1.3,1.3,0,0,1-.52-.1.89.89,0,0,1-.35-.27.87.87,0,0,1-.16-.39,2.85,2.85,0,0,1,0-.49V38.77h.52V40.5a2.23,2.23,0,0,0,0,.55.53.53,0,0,0,.21.33.62.62,0,0,0,.39.12.89.89,0,0,0,.45-.12.62.62,0,0,0,.29-.33,1.63,1.63,0,0,0,.09-.61V38.77h.53v3.11Z" transform="translate(-2.4 -4.9)"/><path class="cls-5" d="M52.59,41.88V38.77h.47v.47a1.27,1.27,0,0,1,.34-.43.58.58,0,0,1,.34-.11,1.06,1.06,0,0,1,.54.17l-.18.49a.72.72,0,0,0-.39-.11.5.5,0,0,0-.31.1.61.61,0,0,0-.2.29,2.37,2.37,0,0,0-.08.61v1.63Z" transform="translate(-2.4 -4.9)"/><path class="cls-5" d="M56.62,41.5a1.83,1.83,0,0,1-.56.35,1.61,1.61,0,0,1-.58.1,1.12,1.12,0,0,1-.79-.25.83.83,0,0,1-.28-.64.81.81,0,0,1,.11-.41.91.91,0,0,1,.27-.31,1.46,1.46,0,0,1,.38-.17,4,4,0,0,1,.47-.08,4.88,4.88,0,0,0,.94-.18v-.14a.57.57,0,0,0-.15-.45.86.86,0,0,0-.6-.18.91.91,0,0,0-.55.13.81.81,0,0,0-.26.46l-.52-.07a1.34,1.34,0,0,1,.24-.54,1,1,0,0,1,.46-.31,2.16,2.16,0,0,1,.71-.11,1.74,1.74,0,0,1,.65.1.9.9,0,0,1,.36.23,1,1,0,0,1,.17.36,4.72,4.72,0,0,1,0,.49v.7a5.84,5.84,0,0,0,0,.93,1,1,0,0,0,.13.37h-.55A1.06,1.06,0,0,1,56.62,41.5Zm0-1.18a3.53,3.53,0,0,1-.86.2,1.8,1.8,0,0,0-.46.11.44.44,0,0,0-.21.17.47.47,0,0,0,.09.6.68.68,0,0,0,.46.14,1.09,1.09,0,0,0,.55-.13.81.81,0,0,0,.34-.37,1.18,1.18,0,0,0,.09-.52Z" transform="translate(-2.4 -4.9)"/><path class="cls-5" d="M59.08,41.41l.08.47a2,2,0,0,1-.4,0,1,1,0,0,1-.45-.09.51.51,0,0,1-.22-.24A2,2,0,0,1,58,41V39.18h-.39v-.41H58V38l.52-.31v1.08h.53v.41h-.53V41a.85.85,0,0,0,0,.29.22.22,0,0,0,.09.1.3.3,0,0,0,.18,0A1.06,1.06,0,0,0,59.08,41.41Z" transform="translate(-2.4 -4.9)"/><path class="cls-5" d="M59.6,38.19v-.6h.53v.6Zm0,3.69V38.77h.53v3.11Z" transform="translate(-2.4 -4.9)"/><path class="cls-5" d="M60.73,40.33a1.59,1.59,0,0,1,.48-1.28,1.47,1.47,0,0,1,1-.35,1.39,1.39,0,0,1,1.05.42,1.61,1.61,0,0,1,.41,1.16,2.09,2.09,0,0,1-.18.95,1.23,1.23,0,0,1-.53.53,1.49,1.49,0,0,1-.75.19,1.38,1.38,0,0,1-1-.42A1.65,1.65,0,0,1,60.73,40.33Zm.54,0a1.28,1.28,0,0,0,.27.89.82.82,0,0,0,.65.3.85.85,0,0,0,.66-.3,1.37,1.37,0,0,0,.26-.91,1.24,1.24,0,0,0-.27-.87.82.82,0,0,0-.65-.3.84.84,0,0,0-.65.29A1.31,1.31,0,0,0,61.27,40.33Z" transform="translate(-2.4 -4.9)"/><path class="cls-5" d="M64.27,41.88V38.77h.47v.44a1.12,1.12,0,0,1,1-.51,1.46,1.46,0,0,1,.52.1.89.89,0,0,1,.35.27,1.15,1.15,0,0,1,.17.39,3.27,3.27,0,0,1,0,.51v1.91h-.52V40a1.48,1.48,0,0,0-.06-.48.62.62,0,0,0-.22-.26.75.75,0,0,0-.37-.09.84.84,0,0,0-.58.21,1.09,1.09,0,0,0-.25.81v1.7Z" transform="translate(-2.4 -4.9)"/><path class="cls-5" d="M69.26,41.88V38.77h.48v.47a1.27,1.27,0,0,1,.33-.43.62.62,0,0,1,.34-.11,1.1,1.1,0,0,1,.55.17l-.19.49a.69.69,0,0,0-.38-.11.48.48,0,0,0-.31.1.55.55,0,0,0-.2.29,2,2,0,0,0-.09.61v1.63Z" transform="translate(-2.4 -4.9)"/><path class="cls-5" d="M73.31,41.88v-.45a1.13,1.13,0,0,1-1,.52,1.22,1.22,0,0,1-.51-.1.86.86,0,0,1-.36-.27.87.87,0,0,1-.16-.39,2.85,2.85,0,0,1,0-.49V38.77h.52V40.5a2.23,2.23,0,0,0,0,.55.53.53,0,0,0,.21.33.63.63,0,0,0,.4.12.88.88,0,0,0,.44-.12.68.68,0,0,0,.3-.33,1.91,1.91,0,0,0,.08-.61V38.77h.53v3.11Z" transform="translate(-2.4 -4.9)"/><path class="cls-5" d="M74.6,41.88V38.77h.48v.44a1.12,1.12,0,0,1,1-.51,1.46,1.46,0,0,1,.52.1.89.89,0,0,1,.35.27,1,1,0,0,1,.16.39,3,3,0,0,1,0,.51v1.91h-.52V40a1.43,1.43,0,0,0-.07-.48.53.53,0,0,0-.21-.26.75.75,0,0,0-.37-.09.84.84,0,0,0-.58.21,1,1,0,0,0-.25.81v1.7Z" transform="translate(-2.4 -4.9)"/><path class="cls-5" d="M77.94,41.88V38.77h.48v.44a1.12,1.12,0,0,1,1-.51,1.4,1.4,0,0,1,.51.1.86.86,0,0,1,.36.27,1,1,0,0,1,.16.39,3,3,0,0,1,0,.51v1.91h-.53V40a1.48,1.48,0,0,0-.06-.48.5.5,0,0,0-.22-.26.69.69,0,0,0-.36-.09.89.89,0,0,0-.59.21,1.09,1.09,0,0,0-.24.81v1.7Z" transform="translate(-2.4 -4.9)"/><path class="cls-5" d="M81.28,38.19v-.6h.53v.6Zm0,3.69V38.77h.53v3.11Z" transform="translate(-2.4 -4.9)"/><path class="cls-5" d="M82.61,41.88V38.77h.48v.44a1.12,1.12,0,0,1,1-.51,1.4,1.4,0,0,1,.51.1.86.86,0,0,1,.36.27,1,1,0,0,1,.16.39,3,3,0,0,1,0,.51v1.91h-.53V40a1.48,1.48,0,0,0-.06-.48.5.5,0,0,0-.22-.26.69.69,0,0,0-.36-.09.89.89,0,0,0-.59.21,1.09,1.09,0,0,0-.24.81v1.7Z" transform="translate(-2.4 -4.9)"/><path class="cls-5" d="M85.85,42.14l.51.08a.53.53,0,0,0,.18.34.87.87,0,0,0,.54.15.91.91,0,0,0,.56-.15.63.63,0,0,0,.27-.41,3.16,3.16,0,0,0,0-.67,1.08,1.08,0,0,1-.86.4,1.15,1.15,0,0,1-1-.46,1.75,1.75,0,0,1-.35-1.11,2,2,0,0,1,.16-.82,1.18,1.18,0,0,1,.47-.58,1.21,1.21,0,0,1,.71-.21,1.11,1.11,0,0,1,.91.45v-.38h.49v2.69a2.5,2.5,0,0,1-.15,1,1.09,1.09,0,0,1-.47.48,1.59,1.59,0,0,1-.79.18,1.55,1.55,0,0,1-.9-.25A.85.85,0,0,1,85.85,42.14Zm.44-1.87a1.38,1.38,0,0,0,.24.9.8.8,0,0,0,1.22,0,1.34,1.34,0,0,0,.25-.88,1.26,1.26,0,0,0-.26-.86.76.76,0,0,0-.61-.29.78.78,0,0,0-.6.28A1.31,1.31,0,0,0,86.29,40.27Z" transform="translate(-2.4 -4.9)"/><path class="cls-5" d="M29.58,49.08V46h.47v.47a1.16,1.16,0,0,1,.34-.43.57.57,0,0,1,.33-.11,1.1,1.1,0,0,1,.55.17l-.19.49a.67.67,0,0,0-.38-.11.48.48,0,0,0-.31.1.61.61,0,0,0-.2.29,2,2,0,0,0-.09.61v1.63Z" transform="translate(-2.4 -4.9)"/><path class="cls-5" d="M33.61,48.7a2,2,0,0,1-.56.35,1.63,1.63,0,0,1-.59.1,1.09,1.09,0,0,1-.78-.25.8.8,0,0,1-.28-.64.92.92,0,0,1,.1-.41.93.93,0,0,1,.28-.31,1.46,1.46,0,0,1,.38-.17,4,4,0,0,1,.47-.08,5,5,0,0,0,.94-.18V47a.57.57,0,0,0-.15-.45.9.9,0,0,0-.6-.18.91.91,0,0,0-.55.13.76.76,0,0,0-.26.46l-.52-.07a1.37,1.37,0,0,1,.23-.53,1,1,0,0,1,.47-.32,2.16,2.16,0,0,1,.71-.11,1.65,1.65,0,0,1,.64.1.87.87,0,0,1,.37.23.85.85,0,0,1,.16.36,2.62,2.62,0,0,1,0,.49v.7a8.38,8.38,0,0,0,0,.93,1.28,1.28,0,0,0,.14.37h-.55A1.06,1.06,0,0,1,33.61,48.7Zm0-1.18a3.63,3.63,0,0,1-.87.2,1.92,1.92,0,0,0-.46.11A.42.42,0,0,0,32,48a.44.44,0,0,0-.08.25.46.46,0,0,0,.16.35.73.73,0,0,0,.47.14,1.08,1.08,0,0,0,.54-.13.78.78,0,0,0,.35-.37,1.18,1.18,0,0,0,.09-.52Z" transform="translate(-2.4 -4.9)"/><path class="cls-5" d="M34.92,49.08V46h.47v.44a1.12,1.12,0,0,1,1-.51,1.46,1.46,0,0,1,.52.1.82.82,0,0,1,.35.27,1.15,1.15,0,0,1,.17.39,3.27,3.27,0,0,1,0,.51v1.91h-.52V47.19a1.48,1.48,0,0,0-.06-.48.62.62,0,0,0-.22-.26.75.75,0,0,0-.37-.09.86.86,0,0,0-.58.21,1.09,1.09,0,0,0-.25.81v1.7Z" transform="translate(-2.4 -4.9)"/><path class="cls-5" d="M38.16,49.34l.51.08a.46.46,0,0,0,.18.34.86.86,0,0,0,.53.15.92.92,0,0,0,.57-.15.71.71,0,0,0,.27-.41,3.16,3.16,0,0,0,0-.67,1.08,1.08,0,0,1-.86.4,1.19,1.19,0,0,1-1-.46,1.81,1.81,0,0,1-.35-1.11,2,2,0,0,1,.16-.82,1.3,1.3,0,0,1,.47-.58,1.22,1.22,0,0,1,.72-.21,1.11,1.11,0,0,1,.91.45V46h.48v2.69a2.72,2.72,0,0,1-.14,1,1.14,1.14,0,0,1-.47.48,1.62,1.62,0,0,1-.79.18,1.55,1.55,0,0,1-.9-.25A.85.85,0,0,1,38.16,49.34Zm.43-1.87a1.33,1.33,0,0,0,.25.9.78.78,0,0,0,.61.28.81.81,0,0,0,.61-.28,1.34,1.34,0,0,0,.24-.88,1.26,1.26,0,0,0-.25-.86.79.79,0,0,0-.61-.29.75.75,0,0,0-.6.28A1.31,1.31,0,0,0,38.59,47.47Z" transform="translate(-2.4 -4.9)"/><path class="cls-5" d="M43.72,48.08l.55.07a1.37,1.37,0,0,1-.48.74,1.4,1.4,0,0,1-.89.26,1.44,1.44,0,0,1-1.09-.42,1.67,1.67,0,0,1-.4-1.18,1.69,1.69,0,0,1,.41-1.21,1.37,1.37,0,0,1,1-.44,1.33,1.33,0,0,1,1,.43,1.69,1.69,0,0,1,.39,1.19v.14H42a1.23,1.23,0,0,0,.29.79.86.86,0,0,0,.65.27.84.84,0,0,0,.5-.15A1.07,1.07,0,0,0,43.72,48.08ZM42,47.23h1.74a1.11,1.11,0,0,0-.2-.59.83.83,0,0,0-.66-.3.85.85,0,0,0-.61.24A1,1,0,0,0,42,47.23Z" transform="translate(-2.4 -4.9)"/><path class="cls-5" d="M32.71,62.9l.57.14a1.89,1.89,0,0,1-.64,1.07,1.75,1.75,0,0,1-1.14.37,2,2,0,0,1-1.13-.28,1.75,1.75,0,0,1-.66-.82,3,3,0,0,1-.23-1.15,2.52,2.52,0,0,1,.26-1.17,1.68,1.68,0,0,1,.73-.76,2.17,2.17,0,0,1,1-.26,1.79,1.79,0,0,1,1.09.33,1.73,1.73,0,0,1,.61.92l-.56.13a1.38,1.38,0,0,0-.43-.68,1.18,1.18,0,0,0-.72-.21,1.38,1.38,0,0,0-.83.23,1.25,1.25,0,0,0-.46.64,2.57,2.57,0,0,0-.14.82,2.54,2.54,0,0,0,.16,1,1.18,1.18,0,0,0,.5.61,1.32,1.32,0,0,0,.73.2,1.28,1.28,0,0,0,.81-.27A1.36,1.36,0,0,0,32.71,62.9Z" transform="translate(-2.4 -4.9)"/><path class="cls-5" d="M33.72,62.85a1.62,1.62,0,0,1,.48-1.28,1.44,1.44,0,0,1,1-.34,1.42,1.42,0,0,1,1,.42,1.59,1.59,0,0,1,.4,1.16,2,2,0,0,1-.18.94,1.29,1.29,0,0,1-.52.54,1.61,1.61,0,0,1-.75.19,1.4,1.4,0,0,1-1.06-.42A1.67,1.67,0,0,1,33.72,62.85Zm.54,0a1.36,1.36,0,0,0,.26.9.82.82,0,0,0,.66.29.84.84,0,0,0,.65-.29,1.4,1.4,0,0,0,.26-.92,1.31,1.31,0,0,0-.26-.87.83.83,0,0,0-.65-.3.83.83,0,0,0-.66.3A1.33,1.33,0,0,0,34.26,62.85Z" transform="translate(-2.4 -4.9)"/><path class="cls-5" d="M37.25,64.41V61.3h.48v.44a1.1,1.1,0,0,1,1-.51,1.22,1.22,0,0,1,.51.1.77.77,0,0,1,.36.26,1.14,1.14,0,0,1,.16.39,3,3,0,0,1,0,.51v1.92h-.53v-1.9a1.48,1.48,0,0,0-.06-.48.48.48,0,0,0-.22-.25.62.62,0,0,0-.37-.1.84.84,0,0,0-.58.22,1.06,1.06,0,0,0-.24.81v1.7Z" transform="translate(-2.4 -4.9)"/><path class="cls-5" d="M41.74,63.94l.08.46a2.17,2.17,0,0,1-.4,0,1,1,0,0,1-.45-.09.51.51,0,0,1-.22-.24,2,2,0,0,1-.06-.62V61.71H40.3V61.3h.39v-.77l.52-.32V61.3h.53v.41h-.53v1.82a.89.89,0,0,0,0,.29.28.28,0,0,0,.09.1.4.4,0,0,0,.18,0Z" transform="translate(-2.4 -4.9)"/><path class="cls-5" d="M42.4,64.41v-.6H43v.6Z" transform="translate(-2.4 -4.9)"/><path class="cls-5" d="M45.58,64.41V61.3h.48v.47a1.33,1.33,0,0,1,.33-.44.61.61,0,0,1,.34-.1,1,1,0,0,1,.54.17l-.18.48a.82.82,0,0,0-.38-.11.53.53,0,0,0-.51.39,2.06,2.06,0,0,0-.09.62v1.63Z" transform="translate(-2.4 -4.9)"/><path class="cls-5" d="M49.63,64.41V64a1.15,1.15,0,0,1-1,.53,1.23,1.23,0,0,1-.51-.11.93.93,0,0,1-.36-.26,1,1,0,0,1-.16-.39,3,3,0,0,1,0-.5V61.3h.52V63a2.33,2.33,0,0,0,0,.56.53.53,0,0,0,.21.33.69.69,0,0,0,.39.11.89.89,0,0,0,.45-.12.62.62,0,0,0,.29-.33,1.6,1.6,0,0,0,.09-.61V61.3h.53v3.11Z" transform="translate(-2.4 -4.9)"/><path class="cls-5" d="M50.92,64.41V61.3h.48v.44a1.12,1.12,0,0,1,1-.51,1.27,1.27,0,0,1,.52.1.79.79,0,0,1,.35.26,1,1,0,0,1,.16.39,3,3,0,0,1,0,.51v1.92h-.52v-1.9a1.43,1.43,0,0,0-.07-.48.51.51,0,0,0-.21-.25.66.66,0,0,0-.37-.1.81.81,0,0,0-.58.22,1,1,0,0,0-.25.81v1.7Z" transform="translate(-2.4 -4.9)"/><path class="cls-5" d="M54.26,64.41V61.3h.48v.44a1.1,1.1,0,0,1,1-.51,1.22,1.22,0,0,1,.51.1.77.77,0,0,1,.36.26,1.14,1.14,0,0,1,.16.39,3,3,0,0,1,0,.51v1.92h-.53v-1.9A1.48,1.48,0,0,0,56.2,62a.48.48,0,0,0-.22-.25.62.62,0,0,0-.37-.1.84.84,0,0,0-.58.22,1.06,1.06,0,0,0-.24.81v1.7Z" transform="translate(-2.4 -4.9)"/><path class="cls-5" d="M57.6,60.72v-.61h.53v.61Zm0,3.69V61.3h.53v3.11Z" transform="translate(-2.4 -4.9)"/><path class="cls-5" d="M58.93,64.41V61.3h.48v.44a1.1,1.1,0,0,1,1-.51,1.22,1.22,0,0,1,.51.1.77.77,0,0,1,.36.26,1.14,1.14,0,0,1,.16.39,3,3,0,0,1,0,.51v1.92h-.53v-1.9a1.48,1.48,0,0,0-.06-.48.48.48,0,0,0-.22-.25.62.62,0,0,0-.37-.1.84.84,0,0,0-.58.22,1.06,1.06,0,0,0-.24.81v1.7Z" transform="translate(-2.4 -4.9)"/><path class="cls-5" d="M62.17,64.67l.51.07a.59.59,0,0,0,.18.35.94.94,0,0,0,.54.14,1,1,0,0,0,.56-.14.68.68,0,0,0,.27-.41,3.34,3.34,0,0,0,0-.68,1.09,1.09,0,0,1-.86.41,1.16,1.16,0,0,1-1-.47,1.71,1.71,0,0,1-.35-1.11,2,2,0,0,1,.16-.82,1.2,1.2,0,0,1,1.18-.78,1.1,1.1,0,0,1,.91.44V61.3h.49V64a2.47,2.47,0,0,1-.15,1,1,1,0,0,1-.47.48,1.59,1.59,0,0,1-.79.18,1.48,1.48,0,0,1-.9-.25A.84.84,0,0,1,62.17,64.67Zm.44-1.87a1.37,1.37,0,0,0,.24.89.8.8,0,0,0,1.22,0,1.34,1.34,0,0,0,.25-.88,1.28,1.28,0,0,0-.26-.86.78.78,0,0,0-1.21,0A1.29,1.29,0,0,0,62.61,62.8Z" transform="translate(-2.4 -4.9)"/><path class="cls-5" d="M67.27,64.41V61.3h.47v.47a1.21,1.21,0,0,1,.34-.44.56.56,0,0,1,.33-.1,1,1,0,0,1,.55.17l-.18.48a.82.82,0,0,0-.39-.11.55.55,0,0,0-.31.1.61.61,0,0,0-.2.29,2.06,2.06,0,0,0-.09.62v1.63Z" transform="translate(-2.4 -4.9)"/><path class="cls-5" d="M71.3,64a1.88,1.88,0,0,1-.56.36,1.92,1.92,0,0,1-.59.1,1.14,1.14,0,0,1-.78-.25.81.81,0,0,1-.28-.64.76.76,0,0,1,.11-.42.72.72,0,0,1,.27-.3,1.21,1.21,0,0,1,.38-.18l.47-.08a5,5,0,0,0,.94-.18v-.14a.58.58,0,0,0-.15-.45.88.88,0,0,0-.6-.18,1,1,0,0,0-.55.13.76.76,0,0,0-.26.46l-.52-.07a1.44,1.44,0,0,1,.23-.53,1.09,1.09,0,0,1,.47-.32,2.17,2.17,0,0,1,.71-.1,1.89,1.89,0,0,1,.64.09.79.79,0,0,1,.37.24.76.76,0,0,1,.16.35,2.7,2.7,0,0,1,0,.49v.7a8.38,8.38,0,0,0,0,.93,1.34,1.34,0,0,0,.14.38h-.55A1.12,1.12,0,0,1,71.3,64Zm0-1.17a4.31,4.31,0,0,1-.87.19,2.43,2.43,0,0,0-.45.11.51.51,0,0,0-.21.17.45.45,0,0,0,.08.6.68.68,0,0,0,.47.14,1.08,1.08,0,0,0,.54-.13.81.81,0,0,0,.35-.36,1.23,1.23,0,0,0,.09-.53Z" transform="translate(-2.4 -4.9)"/><path class="cls-5" d="M72.61,64.41V61.3h.47v.44a1.12,1.12,0,0,1,1-.51,1.27,1.27,0,0,1,.52.1.74.74,0,0,1,.35.26,1.15,1.15,0,0,1,.17.39c0,.1,0,.27,0,.51v1.92h-.52v-1.9a1.48,1.48,0,0,0-.06-.48.53.53,0,0,0-.22-.25.66.66,0,0,0-.37-.1.82.82,0,0,0-.58.22,1,1,0,0,0-.25.81v1.7Z" transform="translate(-2.4 -4.9)"/><path class="cls-5" d="M75.85,64.67l.51.07a.5.5,0,0,0,.18.35.92.92,0,0,0,.53.14,1,1,0,0,0,.57-.14.78.78,0,0,0,.27-.41A3.34,3.34,0,0,0,78,64a1.09,1.09,0,0,1-.86.41,1.19,1.19,0,0,1-1-.47,1.77,1.77,0,0,1-.35-1.11A2,2,0,0,1,75.9,62a1.36,1.36,0,0,1,.47-.58,1.22,1.22,0,0,1,.72-.2,1.1,1.1,0,0,1,.91.44V61.3h.48V64a2.7,2.7,0,0,1-.14,1,1,1,0,0,1-.47.48,1.62,1.62,0,0,1-.79.18,1.48,1.48,0,0,1-.9-.25A.84.84,0,0,1,75.85,64.67Zm.43-1.87a1.37,1.37,0,0,0,.25.89.75.75,0,0,0,.61.28.78.78,0,0,0,.61-.28,1.34,1.34,0,0,0,.24-.88,1.28,1.28,0,0,0-.25-.86.79.79,0,0,0-.61-.29.76.76,0,0,0-.6.29A1.29,1.29,0,0,0,76.28,62.8Z" transform="translate(-2.4 -4.9)"/><path class="cls-5" d="M81.41,63.41l.55.06a1.34,1.34,0,0,1-.48.74,1.41,1.41,0,0,1-.89.27,1.44,1.44,0,0,1-1.09-.42,1.68,1.68,0,0,1-.39-1.18,1.71,1.71,0,0,1,.4-1.22,1.47,1.47,0,0,1,2.07,0,1.7,1.7,0,0,1,.39,1.2V63H79.65a1.2,1.2,0,0,0,.29.78.86.86,0,0,0,.65.27.84.84,0,0,0,.5-.15A1,1,0,0,0,81.41,63.41Zm-1.73-.86h1.74a1.11,1.11,0,0,0-.2-.59.83.83,0,0,0-.66-.3.85.85,0,0,0-.61.24A1,1,0,0,0,79.68,62.55Z" transform="translate(-2.4 -4.9)"/><path class="cls-5" d="M84.71,63.15a3,3,0,0,1-.43-.76,2.25,2.25,0,0,1-.18-.89,2.28,2.28,0,0,1,.13-.78,3.25,3.25,0,0,1,.48-.86h.22c-.14.24-.23.41-.28.51a2.81,2.81,0,0,0-.23,1.13,3.12,3.12,0,0,0,.51,1.65Z" transform="translate(-2.4 -4.9)"/><path class="cls-5" d="M85.32,62.41v-2.5h.34l1.32,2v-2h.31v2.5H87l-1.31-2v2Z" transform="translate(-2.4 -4.9)"/><path class="cls-5" d="M87.7,61.5a.92.92,0,0,1,.28-.74.8.8,0,0,1,.57-.21.83.83,0,0,1,.61.25.92.92,0,0,1,.24.68,1.22,1.22,0,0,1-.11.55.75.75,0,0,1-.3.31,1,1,0,0,1-.44.11.83.83,0,0,1-.62-.24A1,1,0,0,1,87.7,61.5Zm.31,0a.77.77,0,0,0,.15.52.5.5,0,0,0,.39.18.48.48,0,0,0,.38-.18,1,1,0,0,0,0-1,.5.5,0,0,0-.38-.17.52.52,0,0,0-.39.17A.79.79,0,0,0,88,61.5Z" transform="translate(-2.4 -4.9)"/><path class="cls-5" d="M90.43,62.13l0,.28-.23,0a.48.48,0,0,1-.26,0,.35.35,0,0,1-.13-.14,1.25,1.25,0,0,1,0-.36V60.83h-.22V60.6h.22v-.45l.31-.19v.64h.31v.23h-.31V61.9a.58.58,0,0,0,0,.16s0,0,.06.06a.15.15,0,0,0,.1,0Z" transform="translate(-2.4 -4.9)"/><path class="cls-5" d="M92,61.83l.32,0a.84.84,0,0,1-.28.44.86.86,0,0,1-.52.15.82.82,0,0,1-.63-.24,1,1,0,0,1-.24-.69,1,1,0,0,1,.24-.71.8.8,0,0,1,.61-.26.82.82,0,0,1,.6.25,1,1,0,0,1,.23.7v.08H90.94a.77.77,0,0,0,.17.46.53.53,0,0,0,.38.16.48.48,0,0,0,.29-.09A.6.6,0,0,0,92,61.83Zm-1-.5h1a.66.66,0,0,0-.11-.35.5.5,0,0,0-.38-.17.48.48,0,0,0-.36.14A.53.53,0,0,0,91,61.33Z" transform="translate(-2.4 -4.9)"/><path class="cls-5" d="M94.54,62.41v-.6H93.46v-.28l1.14-1.62h.25v1.62h.34v.28h-.34v.6Zm0-.88V60.4l-.78,1.13Z" transform="translate(-2.4 -4.9)"/><path class="cls-5" d="M95.79,63.15h-.22a3.12,3.12,0,0,0,.51-1.65,2.7,2.7,0,0,0-.07-.63,2.56,2.56,0,0,0-.16-.49c0-.11-.14-.28-.28-.52h.22a3.56,3.56,0,0,1,.48.86,2.55,2.55,0,0,1,.13.78,2.25,2.25,0,0,1-.18.89A3.27,3.27,0,0,1,95.79,63.15Z" transform="translate(-2.4 -4.9)"/><path class="cls-5" d="M32.71,74.4l.57.14a1.92,1.92,0,0,1-.64,1.07A1.81,1.81,0,0,1,31.5,76a2,2,0,0,1-1.13-.28,1.75,1.75,0,0,1-.66-.82,2.91,2.91,0,0,1-.23-1.15,2.52,2.52,0,0,1,.26-1.17,1.79,1.79,0,0,1,.73-.76,2.17,2.17,0,0,1,1-.26,1.79,1.79,0,0,1,1.09.33,1.77,1.77,0,0,1,.61.92l-.56.14a1.41,1.41,0,0,0-.43-.69A1.18,1.18,0,0,0,31.5,72a1.38,1.38,0,0,0-.83.24,1.27,1.27,0,0,0-.46.63,2.63,2.63,0,0,0-.14.83,2.52,2.52,0,0,0,.16,1,1.2,1.2,0,0,0,.5.62,1.4,1.4,0,0,0,.73.2,1.23,1.23,0,0,0,.81-.28A1.34,1.34,0,0,0,32.71,74.4Z" transform="translate(-2.4 -4.9)"/><path class="cls-5" d="M33.72,74.35a1.59,1.59,0,0,1,.48-1.28,1.4,1.4,0,0,1,1-.35,1.42,1.42,0,0,1,1,.42,1.6,1.6,0,0,1,.4,1.16,2.09,2.09,0,0,1-.18,1,1.26,1.26,0,0,1-.52.53,1.49,1.49,0,0,1-.75.19,1.4,1.4,0,0,1-1.06-.42A1.66,1.66,0,0,1,33.72,74.35Zm.54,0a1.35,1.35,0,0,0,.26.89.87.87,0,0,0,1.31,0,1.37,1.37,0,0,0,.26-.91,1.32,1.32,0,0,0-.26-.88.86.86,0,0,0-.65-.29.82.82,0,0,0-.66.29A1.36,1.36,0,0,0,34.26,74.35Z" transform="translate(-2.4 -4.9)"/><path class="cls-5" d="M37.25,75.9V72.79h.48v.44a1.1,1.1,0,0,1,1-.51,1.22,1.22,0,0,1,.51.1.86.86,0,0,1,.36.27,1.14,1.14,0,0,1,.16.39,2.81,2.81,0,0,1,0,.51V75.9h-.53V74a1.4,1.4,0,0,0-.06-.48.5.5,0,0,0-.22-.26.7.7,0,0,0-.37-.09.88.88,0,0,0-.58.21,1.06,1.06,0,0,0-.24.81v1.7Z" transform="translate(-2.4 -4.9)"/><path class="cls-5" d="M41.74,75.43l.08.47a2.07,2.07,0,0,1-.4,0,1,1,0,0,1-.45-.09.51.51,0,0,1-.22-.24,2,2,0,0,1-.06-.62V73.2H40.3v-.41h.39V72l.52-.32v1.09h.53v.41h-.53V75a.85.85,0,0,0,0,.29.22.22,0,0,0,.09.1.3.3,0,0,0,.18,0Z" transform="translate(-2.4 -4.9)"/><path class="cls-5" d="M42.4,75.9v-.6H43v.6Z" transform="translate(-2.4 -4.9)"/><path class="cls-5" d="M45.58,75.9V72.79h.48v.47a1.27,1.27,0,0,1,.33-.43.55.55,0,0,1,.34-.11,1,1,0,0,1,.54.17l-.18.49a.73.73,0,0,0-.38-.12.49.49,0,0,0-.31.11.51.51,0,0,0-.2.29,2,2,0,0,0-.09.61V75.9Z" transform="translate(-2.4 -4.9)"/><path class="cls-5" d="M49.63,75.9v-.46a1.13,1.13,0,0,1-1,.53,1.22,1.22,0,0,1-.51-.1.86.86,0,0,1-.36-.27.92.92,0,0,1-.16-.39,2.85,2.85,0,0,1,0-.49V72.79h.52v1.73a2.23,2.23,0,0,0,0,.55.53.53,0,0,0,.21.33.62.62,0,0,0,.39.12.89.89,0,0,0,.45-.12.62.62,0,0,0,.29-.33,1.63,1.63,0,0,0,.09-.61V72.79h.53V75.9Z" transform="translate(-2.4 -4.9)"/><path class="cls-5" d="M50.92,75.9V72.79h.48v.44a1.12,1.12,0,0,1,1-.51,1.27,1.27,0,0,1,.52.1.89.89,0,0,1,.35.27,1,1,0,0,1,.16.39,2.81,2.81,0,0,1,0,.51V75.9h-.52V74a1.35,1.35,0,0,0-.07-.48.53.53,0,0,0-.21-.26.75.75,0,0,0-.37-.09.84.84,0,0,0-.58.21,1,1,0,0,0-.25.81v1.7Z" transform="translate(-2.4 -4.9)"/><path class="cls-5" d="M54.26,75.9V72.79h.48v.44a1.1,1.1,0,0,1,1-.51,1.22,1.22,0,0,1,.51.1.86.86,0,0,1,.36.27,1.14,1.14,0,0,1,.16.39,2.81,2.81,0,0,1,0,.51V75.9h-.53V74a1.4,1.4,0,0,0-.06-.48.5.5,0,0,0-.22-.26.7.7,0,0,0-.37-.09.88.88,0,0,0-.58.21,1.06,1.06,0,0,0-.24.81v1.7Z" transform="translate(-2.4 -4.9)"/><path class="cls-5" d="M57.6,72.21v-.6h.53v.6Zm0,3.69V72.79h.53V75.9Z" transform="translate(-2.4 -4.9)"/><path class="cls-5" d="M58.93,75.9V72.79h.48v.44a1.1,1.1,0,0,1,1-.51,1.22,1.22,0,0,1,.51.1.86.86,0,0,1,.36.27,1.14,1.14,0,0,1,.16.39,2.81,2.81,0,0,1,0,.51V75.9h-.53V74a1.4,1.4,0,0,0-.06-.48.5.5,0,0,0-.22-.26.7.7,0,0,0-.37-.09.88.88,0,0,0-.58.21,1.06,1.06,0,0,0-.24.81v1.7Z" transform="translate(-2.4 -4.9)"/><path class="cls-5" d="M62.17,76.16l.51.08a.56.56,0,0,0,.18.34.87.87,0,0,0,.54.15.91.91,0,0,0,.56-.15.65.65,0,0,0,.27-.41,3.28,3.28,0,0,0,0-.68,1.06,1.06,0,0,1-.86.41,1.15,1.15,0,0,1-1-.46,1.75,1.75,0,0,1-.35-1.11,2,2,0,0,1,.16-.82,1.3,1.3,0,0,1,.46-.59,1.34,1.34,0,0,1,.72-.2,1.11,1.11,0,0,1,.91.45v-.38h.49v2.69a2.53,2.53,0,0,1-.15,1,1.09,1.09,0,0,1-.47.48,1.59,1.59,0,0,1-.79.17,1.48,1.48,0,0,1-.9-.25A.82.82,0,0,1,62.17,76.16Zm.44-1.87a1.33,1.33,0,0,0,.24.89.8.8,0,0,0,1.22,0,1.29,1.29,0,0,0,.25-.87,1.26,1.26,0,0,0-.26-.86.76.76,0,0,0-.61-.29.78.78,0,0,0-.6.28A1.31,1.31,0,0,0,62.61,74.29Z" transform="translate(-2.4 -4.9)"/><path class="cls-5" d="M67.27,75.9V72.79h.47v.47a1.16,1.16,0,0,1,.34-.43.51.51,0,0,1,.33-.11,1.1,1.1,0,0,1,.55.17l-.18.49a.74.74,0,0,0-.39-.12.49.49,0,0,0-.31.11.56.56,0,0,0-.2.29,2,2,0,0,0-.09.61V75.9Z" transform="translate(-2.4 -4.9)"/><path class="cls-5" d="M71.3,75.52a2.05,2.05,0,0,1-.56.35,1.66,1.66,0,0,1-.59.1,1.09,1.09,0,0,1-.78-.25.81.81,0,0,1-.28-.64.78.78,0,0,1,.11-.42.86.86,0,0,1,.27-.3,1.19,1.19,0,0,1,.38-.17,2.61,2.61,0,0,1,.47-.08,5,5,0,0,0,.94-.18v-.14a.59.59,0,0,0-.15-.46.93.93,0,0,0-.6-.17.91.91,0,0,0-.55.13.73.73,0,0,0-.26.46l-.52-.07a1.49,1.49,0,0,1,.23-.54,1.08,1.08,0,0,1,.47-.31,2.16,2.16,0,0,1,.71-.11,1.89,1.89,0,0,1,.64.09,1,1,0,0,1,.37.24.75.75,0,0,1,.16.36,2.57,2.57,0,0,1,0,.48v.71a8.38,8.38,0,0,0,0,.93,1.28,1.28,0,0,0,.14.37h-.55A1.12,1.12,0,0,1,71.3,75.52Zm0-1.18a4.19,4.19,0,0,1-.87.2,2.63,2.63,0,0,0-.45.1.46.46,0,0,0-.21.18.41.41,0,0,0-.08.25.48.48,0,0,0,.16.35.73.73,0,0,0,.47.14,1.09,1.09,0,0,0,.54-.14.76.76,0,0,0,.35-.36,1.2,1.2,0,0,0,.09-.53Z" transform="translate(-2.4 -4.9)"/><path class="cls-5" d="M72.61,75.9V72.79h.47v.44a1.12,1.12,0,0,1,1-.51,1.27,1.27,0,0,1,.52.1.82.82,0,0,1,.35.27,1.15,1.15,0,0,1,.17.39,5,5,0,0,1,0,.51V75.9h-.52V74a1.4,1.4,0,0,0-.06-.48.55.55,0,0,0-.22-.26.75.75,0,0,0-.37-.09.86.86,0,0,0-.58.21,1,1,0,0,0-.25.81v1.7Z" transform="translate(-2.4 -4.9)"/><path class="cls-5" d="M75.85,76.16l.51.08a.47.47,0,0,0,.18.34.86.86,0,0,0,.53.15.92.92,0,0,0,.57-.15.74.74,0,0,0,.27-.41,3.28,3.28,0,0,0,0-.68,1.06,1.06,0,0,1-.86.41,1.19,1.19,0,0,1-1-.46,1.81,1.81,0,0,1-.35-1.11,2,2,0,0,1,.16-.82,1.39,1.39,0,0,1,.47-.59,1.29,1.29,0,0,1,.72-.2,1.11,1.11,0,0,1,.91.45v-.38h.48v2.69a2.76,2.76,0,0,1-.14,1,1.14,1.14,0,0,1-.47.48,1.62,1.62,0,0,1-.79.17,1.48,1.48,0,0,1-.9-.25A.82.82,0,0,1,75.85,76.16Zm.43-1.87a1.33,1.33,0,0,0,.25.89.75.75,0,0,0,.61.28.78.78,0,0,0,.61-.28,1.29,1.29,0,0,0,.24-.87,1.26,1.26,0,0,0-.25-.86.76.76,0,0,0-.61-.29.75.75,0,0,0-.6.28A1.31,1.31,0,0,0,76.28,74.29Z" transform="translate(-2.4 -4.9)"/><path class="cls-5" d="M81.41,74.9,82,75a1.37,1.37,0,0,1-.48.74,1.47,1.47,0,0,1-.89.26,1.44,1.44,0,0,1-1.09-.42,1.66,1.66,0,0,1-.39-1.18,1.73,1.73,0,0,1,.4-1.22,1.47,1.47,0,0,1,2.07,0,1.73,1.73,0,0,1,.39,1.2v.14H79.65a1.26,1.26,0,0,0,.29.79.86.86,0,0,0,.65.27.84.84,0,0,0,.5-.15A1.13,1.13,0,0,0,81.41,74.9Zm-1.73-.85h1.74a1.11,1.11,0,0,0-.2-.59.81.81,0,0,0-.66-.31.82.82,0,0,0-.61.25A1,1,0,0,0,79.68,74.05Z" transform="translate(-2.4 -4.9)"/><path class="cls-5" d="M84.71,74.64a2.88,2.88,0,0,1-.43-.75A2.32,2.32,0,0,1,84.1,73a2.28,2.28,0,0,1,.13-.78,3,3,0,0,1,.48-.86h.22c-.14.23-.23.4-.28.5a2.91,2.91,0,0,0-.16.5,2.73,2.73,0,0,0-.07.64,3.08,3.08,0,0,0,.51,1.64Z" transform="translate(-2.4 -4.9)"/><path class="cls-5" d="M85.32,73.9V71.4h.34l1.32,2v-2h.31v2.5H87l-1.31-2v2Z" transform="translate(-2.4 -4.9)"/><path class="cls-5" d="M87.7,73a.92.92,0,0,1,.28-.75.84.84,0,0,1,.57-.2.82.82,0,0,1,.61.24.94.94,0,0,1,.24.68,1.19,1.19,0,0,1-.11.55.69.69,0,0,1-.3.31.85.85,0,0,1-.44.11.83.83,0,0,1-.62-.24A1,1,0,0,1,87.7,73ZM88,73a.79.79,0,0,0,.15.52.52.52,0,0,0,.39.17.5.5,0,0,0,.38-.17.82.82,0,0,0,.15-.53.74.74,0,0,0-.15-.51.48.48,0,0,0-.38-.18.5.5,0,0,0-.39.18A.75.75,0,0,0,88,73Z" transform="translate(-2.4 -4.9)"/><path class="cls-5" d="M90.43,73.63l0,.27-.23,0a.48.48,0,0,1-.26-.06.33.33,0,0,1-.13-.13,1.28,1.28,0,0,1,0-.37v-1h-.22v-.24h.22v-.45l.31-.18v.63h.31v.24h-.31v1.06a.67.67,0,0,0,0,.17l.06.06.1,0Z" transform="translate(-2.4 -4.9)"/><path class="cls-5" d="M92,73.32l.32,0a.81.81,0,0,1-.28.43.86.86,0,0,1-.52.15.82.82,0,0,1-.63-.24.93.93,0,0,1-.24-.69,1,1,0,0,1,.24-.71.86.86,0,0,1,1.21,0,1,1,0,0,1,.23.69v.09H90.94a.74.74,0,0,0,.17.45.49.49,0,0,0,.38.16.48.48,0,0,0,.29-.09A.6.6,0,0,0,92,73.32Zm-1-.5h1a.59.59,0,0,0-.11-.34.48.48,0,0,0-.38-.18.52.52,0,0,0-.36.14A.55.55,0,0,0,91,72.82Z" transform="translate(-2.4 -4.9)"/><path class="cls-5" d="M93.56,73.25l.32,0a.55.55,0,0,0,.17.35.45.45,0,0,0,.31.12.49.49,0,0,0,.38-.16.66.66,0,0,0,.15-.45.6.6,0,0,0-.14-.41.53.53,0,0,0-.39-.16.6.6,0,0,0-.27.07.66.66,0,0,0-.19.18l-.28,0,.24-1.29H95.1v.3h-1L94,72.4a.86.86,0,0,1,.47-.16.75.75,0,0,1,.55.23.8.8,0,0,1,.23.58.92.92,0,0,1-.2.59.81.81,0,0,1-.66.31.79.79,0,0,1-.55-.2A.69.69,0,0,1,93.56,73.25Z" transform="translate(-2.4 -4.9)"/><path class="cls-5" d="M95.79,74.64h-.22A3.08,3.08,0,0,0,96.08,73a2.73,2.73,0,0,0-.07-.64,2.81,2.81,0,0,0-.16-.49c0-.1-.14-.27-.28-.51h.22a3.22,3.22,0,0,1,.48.86,2.55,2.55,0,0,1,.13.78,2.32,2.32,0,0,1-.18.89A3.2,3.2,0,0,1,95.79,74.64Z" transform="translate(-2.4 -4.9)"/></g></svg>