<svg xmlns="http://www.w3.org/2000/svg" xmlns:xlink="http://www.w3.org/1999/xlink" viewBox="0 0 97.24 89.97"><defs><style>.cls-1,.cls-2,.cls-3{fill:none;}.cls-1,.cls-3{stroke:#231815;}.cls-1{stroke-width:0.4px;}.cls-2{stroke:#b5b5b6;stroke-width:3px;}.cls-3{stroke-linejoin:round;stroke-dasharray:3.1 1.5;}.cls-4{clip-path:url(#clip-path);}.cls-5{fill:#231815;}</style><clipPath id="clip-path" transform="translate(-2.4 -4.9)"><rect class="cls-1" x="27.62" y="5.1" width="70.62" height="75.09"/></clipPath></defs><g id="illust"><line class="cls-2" x1="25.22" y1="50.82" x2="95.84" y2="50.82"/><line class="cls-3" x1="25.22" y1="50.83" x2="88.11" y2="50.83"/><line class="cls-1" x1="49.1" y1="61.12" x2="49.1" y2="75.38"/><line class="cls-1" x1="49.1" y1="35.85" x2="49.1" y2="53.04"/><g class="cls-4"><polyline class="cls-2" points="25.22 13.23 72.81 13.32 95.92 50.83"/></g><rect class="cls-1" x="25.22" y="0.2" width="70.62" height="75.09"/><line class="cls-1" x1="68.93" y1="26.47" x2="95.96" y2="26.47"/><line class="cls-1" x1="25.22" y1="26.47" x2="28.47" y2="26.47"/><line class="cls-1" x1="49.1" y1="0.2" x2="49.1" y2="21.6"/><line class="cls-3" x1="25.22" y1="13.15" x2="61.98" y2="13.15"/><line class="cls-3" x1="62.31" y1="13.15" x2="95.51" y2="61.63"/><line class="cls-1" x1="25.22" y1="50.82" x2="95.84" y2="50.82"/><line class="cls-1" x1="72.77" y1="61.03" x2="72.77" y2="75.29"/><path class="cls-1" d="M75.17,5.1V57.94" transform="translate(-2.4 -4.9)"/></g><g id="japanese"><path class="cls-5" d="M17.42,33.69v-1H15.56v-.48l2-2.78H18v2.78h.58v.48H18v1Zm0-1.51V30.24l-1.34,1.94Z" transform="translate(-2.4 -4.9)"/><path class="cls-5" d="M19.88,31.36a1,1,0,0,1-.49-.34.94.94,0,0,1-.15-.53,1,1,0,0,1,.33-.79,1.29,1.29,0,0,1,.9-.32,1.23,1.23,0,0,1,.9.33,1,1,0,0,1,.35.79.83.83,0,0,1-.16.52.93.93,0,0,1-.48.34,1.2,1.2,0,0,1,.61.42,1.19,1.19,0,0,1,.2.68,1.24,1.24,0,0,1-.39.93,1.57,1.57,0,0,1-2.05,0,1.24,1.24,0,0,1-.39-.94,1.09,1.09,0,0,1,.22-.7A1.06,1.06,0,0,1,19.88,31.36Zm-.28,1.09a1,1,0,0,0,.11.44.78.78,0,0,0,.32.33,1,1,0,0,0,.45.11.87.87,0,0,0,.63-.24.88.88,0,0,0-.64-1.5.81.81,0,0,0-.62.25A.85.85,0,0,0,19.6,32.45Zm.17-2a.67.67,0,0,0,.71.69A.68.68,0,0,0,21,31a.66.66,0,0,0,0-1,.68.68,0,0,0-.49-.2A.71.71,0,0,0,20,30,.63.63,0,0,0,19.77,30.47Z" transform="translate(-2.4 -4.9)"/><path class="cls-5" d="M22.41,31.57a4.09,4.09,0,0,1,.15-1.22,1.56,1.56,0,0,1,.47-.72,1.16,1.16,0,0,1,.78-.25,1.27,1.27,0,0,1,.6.14,1.1,1.1,0,0,1,.43.4,2,2,0,0,1,.27.64,4.44,4.44,0,0,1,.1,1,4,4,0,0,1-.16,1.22,1.55,1.55,0,0,1-.46.72,1.2,1.2,0,0,1-.78.26,1.18,1.18,0,0,1-1-.45A2.87,2.87,0,0,1,22.41,31.57Zm.54,0A2.63,2.63,0,0,0,23.2,33a.7.7,0,0,0,.61.35.75.75,0,0,0,.61-.35,2.75,2.75,0,0,0,.24-1.41,2.74,2.74,0,0,0-.24-1.4.73.73,0,0,0-.62-.35.68.68,0,0,0-.58.3A2.78,2.78,0,0,0,23,31.57Z" transform="translate(-2.4 -4.9)"/><path class="cls-5" d="M18.59,17l-.52,0a1,1,0,0,0-.2-.45.7.7,0,0,0-.53-.23.74.74,0,0,0-.44.14,1.19,1.19,0,0,0-.39.53,2.66,2.66,0,0,0-.15,1,1.11,1.11,0,0,1,.46-.43,1.21,1.21,0,0,1,.58-.14,1.23,1.23,0,0,1,.9.38,1.4,1.4,0,0,1,.37,1,1.72,1.72,0,0,1-.17.75,1.3,1.3,0,0,1-.48.53,1.4,1.4,0,0,1-1.77-.3,2.43,2.43,0,0,1-.42-1.6,2.91,2.91,0,0,1,.46-1.81A1.32,1.32,0,0,1,17.37,16,1.13,1.13,0,0,1,18.59,17Zm-2.15,1.85a1.17,1.17,0,0,0,.12.52.76.76,0,0,0,.32.38.78.78,0,0,0,.44.13.74.74,0,0,0,.57-.27,1.05,1.05,0,0,0,.24-.73,1,1,0,0,0-.24-.7A.77.77,0,0,0,17.3,18a.82.82,0,0,0-.61.26A.9.9,0,0,0,16.44,18.89Z" transform="translate(-2.4 -4.9)"/><path class="cls-5" d="M19.19,18.16a4.05,4.05,0,0,1,.16-1.22,1.56,1.56,0,0,1,.47-.72,1.15,1.15,0,0,1,.77-.25,1.31,1.31,0,0,1,.61.14,1.17,1.17,0,0,1,.43.4,2.52,2.52,0,0,1,.27.64,4.53,4.53,0,0,1,.09,1,4,4,0,0,1-.15,1.22,1.55,1.55,0,0,1-.46.72,1.21,1.21,0,0,1-.79.26,1.16,1.16,0,0,1-1-.45A2.86,2.86,0,0,1,19.19,18.16Zm.55,0A2.75,2.75,0,0,0,20,19.57a.72.72,0,0,0,.61.35.75.75,0,0,0,.62-.35,2.75,2.75,0,0,0,.24-1.41,2.81,2.81,0,0,0-.24-1.41.75.75,0,0,0-.62-.34.68.68,0,0,0-.58.3A2.78,2.78,0,0,0,19.74,18.16Z" transform="translate(-2.4 -4.9)"/><path class="cls-5" d="M22.53,18.16a3.76,3.76,0,0,1,.16-1.22,1.55,1.55,0,0,1,.46-.72,1.2,1.2,0,0,1,.78-.25,1.34,1.34,0,0,1,.61.14,1.26,1.26,0,0,1,.43.4,2.2,2.2,0,0,1,.26.64,3.93,3.93,0,0,1,.1,1,4,4,0,0,1-.15,1.22,1.56,1.56,0,0,1-.47.72A1.28,1.28,0,0,1,23,19.91,2.79,2.79,0,0,1,22.53,18.16Zm.54,0a2.73,2.73,0,0,0,.25,1.41.72.72,0,0,0,.61.35.73.73,0,0,0,.61-.35,2.63,2.63,0,0,0,.25-1.41,2.68,2.68,0,0,0-.25-1.41.72.72,0,0,0-.61-.34.67.67,0,0,0-.58.3A2.66,2.66,0,0,0,23.07,18.16Z" transform="translate(-2.4 -4.9)"/><path class="cls-5" d="M18.63,57.19v.5H15.79a1.09,1.09,0,0,1,.06-.36,1.87,1.87,0,0,1,.35-.58,6.56,6.56,0,0,1,.69-.65,5.49,5.49,0,0,0,.94-.91,1,1,0,0,0,.25-.63.69.69,0,0,0-.22-.53.94.94,0,0,0-1.2,0,.9.9,0,0,0-.23.64l-.54-.06a1.35,1.35,0,0,1,.42-.92,1.44,1.44,0,0,1,1-.32,1.34,1.34,0,0,1,1,.34,1.13,1.13,0,0,1,.36.85,1.32,1.32,0,0,1-.1.51,1.9,1.9,0,0,1-.35.52,8.57,8.57,0,0,1-.82.76c-.31.26-.52.45-.61.54a1.85,1.85,0,0,0-.22.29Z" transform="translate(-2.4 -4.9)"/><path class="cls-5" d="M20.88,57.69v-1H19v-.48l2-2.78h.43v2.78H22v.48h-.58v1Zm0-1.51V54.24l-1.34,1.94Z" transform="translate(-2.4 -4.9)"/><path class="cls-5" d="M22.53,55.57a3.76,3.76,0,0,1,.16-1.22,1.55,1.55,0,0,1,.46-.72,1.2,1.2,0,0,1,.78-.25,1.34,1.34,0,0,1,.61.14,1.26,1.26,0,0,1,.43.4,2.2,2.2,0,0,1,.26.64,3.93,3.93,0,0,1,.1,1,4,4,0,0,1-.15,1.22,1.56,1.56,0,0,1-.47.72A1.28,1.28,0,0,1,23,57.32,2.79,2.79,0,0,1,22.53,55.57Zm.54,0A2.73,2.73,0,0,0,23.32,57a.72.72,0,0,0,.61.35.73.73,0,0,0,.61-.35,4.07,4.07,0,0,0,0-2.81.71.71,0,0,0-.61-.35.67.67,0,0,0-.58.3A2.66,2.66,0,0,0,23.07,55.57Z" transform="translate(-2.4 -4.9)"/><path class="cls-5" d="M22.53,80.48a3.76,3.76,0,0,1,.16-1.22,1.55,1.55,0,0,1,.46-.72,1.2,1.2,0,0,1,.78-.25,1.34,1.34,0,0,1,.61.14,1.26,1.26,0,0,1,.43.4,2.2,2.2,0,0,1,.26.64,3.93,3.93,0,0,1,.1,1,4,4,0,0,1-.15,1.22,1.56,1.56,0,0,1-.47.72A1.28,1.28,0,0,1,23,82.23,2.79,2.79,0,0,1,22.53,80.48Zm.54,0a2.73,2.73,0,0,0,.25,1.41.72.72,0,0,0,.61.35.73.73,0,0,0,.61-.35,4.07,4.07,0,0,0,0-2.81.71.71,0,0,0-.61-.35.67.67,0,0,0-.58.3A2.66,2.66,0,0,0,23.07,80.48Z" transform="translate(-2.4 -4.9)"/><path d="M51.9,86h-.53V82.68a2.4,2.4,0,0,1-.5.36,4.79,4.79,0,0,1-.55.28v-.51a3.22,3.22,0,0,0,.77-.51,2.07,2.07,0,0,0,.47-.57h.34Z" transform="translate(-2.4 -4.9)"/><path d="M96.83,84.91l.53-.07a1.13,1.13,0,0,0,.31.64.76.76,0,0,0,.53.2.89.89,0,0,0,.89-.9.81.81,0,0,0-.24-.6.85.85,0,0,0-.61-.23,1.48,1.48,0,0,0-.37.06l.06-.47H98a1.06,1.06,0,0,0,.6-.18.58.58,0,0,0,.27-.54.65.65,0,0,0-.19-.48.7.7,0,0,0-.51-.19.73.73,0,0,0-.51.19,1,1,0,0,0-.27.58l-.53-.09a1.42,1.42,0,0,1,.44-.82,1.31,1.31,0,0,1,.86-.29,1.37,1.37,0,0,1,.64.15,1.15,1.15,0,0,1,.46.41,1.08,1.08,0,0,1,.15.55,1,1,0,0,1-.14.51,1,1,0,0,1-.45.36,1,1,0,0,1,.59.37,1.09,1.09,0,0,1,.21.69,1.26,1.26,0,0,1-.41,1,1.42,1.42,0,0,1-1,.39,1.37,1.37,0,0,1-.94-.34A1.35,1.35,0,0,1,96.83,84.91Z" transform="translate(-2.4 -4.9)"/><path d="M76.45,85.53V86H73.61a1.15,1.15,0,0,1,.06-.37A2,2,0,0,1,74,85.1a6.56,6.56,0,0,1,.69-.65,5.13,5.13,0,0,0,.94-.91,1,1,0,0,0,.25-.63.69.69,0,0,0-.22-.53.91.91,0,0,0-1.2,0,.88.88,0,0,0-.23.64L73.71,83a1.35,1.35,0,0,1,.42-.92,1.39,1.39,0,0,1,1-.32,1.34,1.34,0,0,1,1,.34,1.13,1.13,0,0,1,.36.85,1.32,1.32,0,0,1-.1.51A2.06,2.06,0,0,1,76,84a10.12,10.12,0,0,1-.82.76,8,8,0,0,0-.61.54,1.79,1.79,0,0,0-.22.28Z" transform="translate(-2.4 -4.9)"/><path d="M45.51,92.29l.54,0a1.08,1.08,0,0,0,.18.53.87.87,0,0,0,.43.33,1.53,1.53,0,0,0,.66.13,1.45,1.45,0,0,0,.57-.1.75.75,0,0,0,.37-.26.65.65,0,0,0,.12-.37.52.52,0,0,0-.11-.35.92.92,0,0,0-.39-.26l-.76-.21a3.16,3.16,0,0,1-.83-.27,1.07,1.07,0,0,1-.46-.4.94.94,0,0,1-.15-.53,1.1,1.1,0,0,1,.72-1,2.22,2.22,0,0,1,.79-.14,2.17,2.17,0,0,1,.84.15,1.2,1.2,0,0,1,.56.45,1.33,1.33,0,0,1,.21.68l-.54,0A.85.85,0,0,0,48,90a1.16,1.16,0,0,0-.75-.21,1.18,1.18,0,0,0-.75.19.53.53,0,0,0-.23.45.48.48,0,0,0,.16.38,2.2,2.2,0,0,0,.86.31,5.17,5.17,0,0,1,1,.27,1.31,1.31,0,0,1,.55.44,1.07,1.07,0,0,1,.18.61,1.17,1.17,0,0,1-.19.65,1.33,1.33,0,0,1-.57.47,2,2,0,0,1-.83.17,2.51,2.51,0,0,1-1-.17,1.43,1.43,0,0,1-.62-.51A1.49,1.49,0,0,1,45.51,92.29Z" transform="translate(-2.4 -4.9)"/><path d="M49.64,94.87V90.56h.48V91a1.11,1.11,0,0,1,.39-.36,1,1,0,0,1,.51-.12,1.24,1.24,0,0,1,.71.21,1.28,1.28,0,0,1,.46.58,2.18,2.18,0,0,1,.15.82,2,2,0,0,1-.17.86,1.24,1.24,0,0,1-.5.58,1.21,1.21,0,0,1-.68.21,1,1,0,0,1-.48-.12.93.93,0,0,1-.34-.28v1.52Zm.48-2.73a1.34,1.34,0,0,0,.24.88.72.72,0,0,0,.59.29.74.74,0,0,0,.6-.3,1.37,1.37,0,0,0,.25-.92,1.41,1.41,0,0,0-.24-.89.72.72,0,0,0-.59-.29.74.74,0,0,0-.59.31A1.44,1.44,0,0,0,50.12,92.14Z" transform="translate(-2.4 -4.9)"/><path d="M55.11,92.67l.54.07a1.27,1.27,0,0,1-.47.74,1.61,1.61,0,0,1-2-.15,2,2,0,0,1,0-2.4,1.37,1.37,0,0,1,1-.44,1.29,1.29,0,0,1,1,.43,1.65,1.65,0,0,1,.4,1.19v.14H53.35a1.16,1.16,0,0,0,.29.79.86.86,0,0,0,.65.27.79.79,0,0,0,.49-.15A1,1,0,0,0,55.11,92.67Zm-1.73-.85h1.73a1,1,0,0,0-.2-.59.79.79,0,0,0-.65-.3.85.85,0,0,0-.61.24A1,1,0,0,0,53.38,91.82Z" transform="translate(-2.4 -4.9)"/><path d="M58.44,92.67l.55.07a1.34,1.34,0,0,1-.48.74,1.41,1.41,0,0,1-.89.27,1.43,1.43,0,0,1-1.08-.42,1.66,1.66,0,0,1-.4-1.18,1.71,1.71,0,0,1,.4-1.22,1.37,1.37,0,0,1,1.05-.44,1.3,1.3,0,0,1,1,.43,1.65,1.65,0,0,1,.4,1.19.82.82,0,0,1,0,.14H56.68A1.21,1.21,0,0,0,57,93a.88.88,0,0,0,.65.27.82.82,0,0,0,.5-.15A1,1,0,0,0,58.44,92.67Zm-1.73-.85h1.74a1,1,0,0,0-.2-.59.81.81,0,0,0-.65-.3.84.84,0,0,0-.61.24A1,1,0,0,0,56.71,91.82Z" transform="translate(-2.4 -4.9)"/><path d="M61.67,93.67v-.39a1,1,0,0,1-.87.47,1.16,1.16,0,0,1-.68-.21,1.44,1.44,0,0,1-.49-.57,2.25,2.25,0,0,1,0-1.69,1.18,1.18,0,0,1,.46-.58,1.23,1.23,0,0,1,.7-.21,1.06,1.06,0,0,1,.5.12,1.19,1.19,0,0,1,.36.31V89.38h.52v4.29ZM60,92.12a1.36,1.36,0,0,0,.26.9.75.75,0,0,0,.59.29.74.74,0,0,0,.59-.28,1.32,1.32,0,0,0,.24-.86,1.43,1.43,0,0,0-.25-.94.75.75,0,0,0-1.19,0A1.38,1.38,0,0,0,60,92.12Z" transform="translate(-2.4 -4.9)"/><path d="M64.67,94.87V89.38h1.16v.44H65.2v4.61h.63v.44Z" transform="translate(-2.4 -4.9)"/><path d="M66.32,93.67V90.56h.47V91a1.26,1.26,0,0,1,.39-.37,1.16,1.16,0,0,1,.56-.14,1,1,0,0,1,.56.15.75.75,0,0,1,.32.4,1.09,1.09,0,0,1,1-.55,1,1,0,0,1,.71.26,1.07,1.07,0,0,1,.25.79v2.13H70v-2a1.25,1.25,0,0,0-.05-.45.39.39,0,0,0-.18-.22.57.57,0,0,0-.32-.09.7.7,0,0,0-.54.22.93.93,0,0,0-.22.7v1.8h-.53v-2a.83.83,0,0,0-.13-.52.47.47,0,0,0-.42-.18.75.75,0,0,0-.41.12.61.61,0,0,0-.27.34,1.84,1.84,0,0,0-.09.65v1.61Z" transform="translate(-2.4 -4.9)"/><path d="M70.93,93.75l1.24-4.44h.42l-1.24,4.44Z" transform="translate(-2.4 -4.9)"/><path d="M72.78,92.75l.52-.09a.74.74,0,0,0,.24.48.82.82,0,0,0,.56.17.79.79,0,0,0,.54-.15.42.42,0,0,0,.18-.34.3.3,0,0,0-.16-.28,2,2,0,0,0-.54-.18,5.32,5.32,0,0,1-.8-.26.81.81,0,0,1-.34-.29.78.78,0,0,1-.11-.42A.86.86,0,0,1,73,91a.89.89,0,0,1,.26-.29,1,1,0,0,1,.34-.15,1.33,1.33,0,0,1,.45-.07,1.79,1.79,0,0,1,.64.11.85.85,0,0,1,.41.28,1.09,1.09,0,0,1,.18.49l-.51.07a.54.54,0,0,0-.21-.38.73.73,0,0,0-.47-.13.87.87,0,0,0-.52.12.35.35,0,0,0-.15.28.28.28,0,0,0,.06.18.38.38,0,0,0,.2.14l.47.14a8,8,0,0,1,.78.24.89.89,0,0,1,.35.28.79.79,0,0,1,.12.45.91.91,0,0,1-.15.5,1.09,1.09,0,0,1-.45.36,1.67,1.67,0,0,1-.65.13,1.45,1.45,0,0,1-.93-.26A1.14,1.14,0,0,1,72.78,92.75Z" transform="translate(-2.4 -4.9)"/><path d="M76.87,94.87H75.71v-.44h.63V89.82h-.63v-.44h1.16Z" transform="translate(-2.4 -4.9)"/><path d="M6.7,55.81H2.91v1.41H2.4v-3.4h.51v1.42H6.7Z" transform="translate(-2.4 -4.9)"/><path d="M6.7,53.3H2.4v-.53H3.94a1.17,1.17,0,0,1-.42-.93,1.26,1.26,0,0,1,.13-.6A.78.78,0,0,1,4,50.88a1.62,1.62,0,0,1,.7-.11h2v.52h-2a.79.79,0,0,0-.58.18A.62.62,0,0,0,4,52a.86.86,0,0,0,.12.44.68.68,0,0,0,.33.3,1.75,1.75,0,0,0,.58.08H6.7Z" transform="translate(-2.4 -4.9)"/><path d="M6.7,50H3.59V49.5h.47a1.48,1.48,0,0,1-.44-.34.59.59,0,0,1-.1-.34,1,1,0,0,1,.17-.54l.49.18a.74.74,0,0,0-.12.39.51.51,0,0,0,.11.31.47.47,0,0,0,.28.19,2.06,2.06,0,0,0,.62.09H6.7Z" transform="translate(-2.4 -4.9)"/><path d="M6.7,45.93H6.24a1.14,1.14,0,0,1,.53,1,1.27,1.27,0,0,1-.11.52.82.82,0,0,1-.26.35A1.15,1.15,0,0,1,6,48a3,3,0,0,1-.5,0H3.59v-.53H5.31a3.35,3.35,0,0,0,.56,0,.58.58,0,0,0,.33-.21.72.72,0,0,0,.11-.4.89.89,0,0,0-.12-.45.72.72,0,0,0-.33-.29A1.6,1.6,0,0,0,5.25,46H3.59v-.52H6.7Z" transform="translate(-2.4 -4.9)"/><path d="M5.77,44.84l-.08-.52a.7.7,0,0,0,.48-.25.85.85,0,0,0,.16-.56A.83.83,0,0,0,6.19,43a.47.47,0,0,0-.35-.17.32.32,0,0,0-.28.15,2.29,2.29,0,0,0-.18.54,5.44,5.44,0,0,1-.25.81.83.83,0,0,1-.3.34.88.88,0,0,1-.42.11A.82.82,0,0,1,4,44.66a.94.94,0,0,1-.3-.26,1.08,1.08,0,0,1-.15-.34,1.63,1.63,0,0,1-.06-.45,1.85,1.85,0,0,1,.1-.65.83.83,0,0,1,.29-.4,1.18,1.18,0,0,1,.48-.19l.07.52a.57.57,0,0,0-.38.2.76.76,0,0,0-.13.48.89.89,0,0,0,.12.52.35.35,0,0,0,.28.15.33.33,0,0,0,.19-.06.54.54,0,0,0,.14-.2c0-.06.06-.21.13-.47a5.57,5.57,0,0,1,.25-.78.71.71,0,0,1,.72-.47.91.91,0,0,1,.5.15.93.93,0,0,1,.36.44,1.59,1.59,0,0,1,.13.66,1.5,1.5,0,0,1-.25.92A1.16,1.16,0,0,1,5.77,44.84Z" transform="translate(-2.4 -4.9)"/><path d="M6.23,40.48l.46-.08a2.08,2.08,0,0,1,0,.4,1,1,0,0,1-.09.45.51.51,0,0,1-.24.22,2,2,0,0,1-.62.06H4v.39H3.59v-.39H2.82L2.5,41H3.59v-.53H4V41H5.82a.89.89,0,0,0,.29,0,.28.28,0,0,0,.1-.09.4.4,0,0,0,0-.18C6.25,40.65,6.24,40.57,6.23,40.48Z" transform="translate(-2.4 -4.9)"/><path d="M7.89,38.28H2.4V37.12h.44v.64H7.45v-.64h.44Z" transform="translate(-2.4 -4.9)"/><path d="M6.7,36.57H2.4V36l3.37-2.25H2.4v-.55H6.7v.59L3.32,36H6.7Z" transform="translate(-2.4 -4.9)"/><path d="M7.89,31.41v1.17H7.45v-.64H2.84v.64H2.4V31.41Z" transform="translate(-2.4 -4.9)"/><path class="cls-5" d="M31.82,62.75l.51.14A1.88,1.88,0,0,1,31.75,64a1.46,1.46,0,0,1-1,.37,1.57,1.57,0,0,1-1.61-1.1,3.13,3.13,0,0,1-.2-1.15,2.66,2.66,0,0,1,.23-1.17,1.63,1.63,0,0,1,.65-.76,1.73,1.73,0,0,1,.94-.26,1.54,1.54,0,0,1,1,.32,1.8,1.8,0,0,1,.55.93l-.51.13a1.35,1.35,0,0,0-.39-.68.92.92,0,0,0-.64-.22,1.16,1.16,0,0,0-.75.24,1.38,1.38,0,0,0-.42.64,2.81,2.81,0,0,0-.12.82,2.76,2.76,0,0,0,.15,1,1.17,1.17,0,0,0,.44.61,1.22,1.22,0,0,0,.66.2,1,1,0,0,0,.73-.27A1.48,1.48,0,0,0,31.82,62.75Z" transform="translate(-2.4 -4.9)"/><path class="cls-5" d="M32.73,62.7a1.69,1.69,0,0,1,.43-1.28,1.22,1.22,0,0,1,.88-.35,1.19,1.19,0,0,1,.94.42,1.69,1.69,0,0,1,.37,1.17,2.38,2.38,0,0,1-.16.94,1.18,1.18,0,0,1-.48.53,1.22,1.22,0,0,1-.67.2,1.19,1.19,0,0,1-.95-.42A1.82,1.82,0,0,1,32.73,62.7Zm.48,0a1.37,1.37,0,0,0,.24.89.71.71,0,0,0,.59.3.73.73,0,0,0,.59-.3,1.5,1.5,0,0,0,.23-.91,1.43,1.43,0,0,0-.23-.87.73.73,0,0,0-.59-.3.71.71,0,0,0-.59.3A1.37,1.37,0,0,0,33.21,62.7Z" transform="translate(-2.4 -4.9)"/><path class="cls-5" d="M35.91,64.25V61.14h.42v.45a1,1,0,0,1,.89-.52,1.2,1.2,0,0,1,.47.1.78.78,0,0,1,.32.27,1,1,0,0,1,.14.39,3,3,0,0,1,0,.51v1.91h-.47V62.36a1.48,1.48,0,0,0-.06-.48.45.45,0,0,0-.2-.25.52.52,0,0,0-.33-.1.73.73,0,0,0-.52.21,1.15,1.15,0,0,0-.22.82v1.69Z" transform="translate(-2.4 -4.9)"/><path class="cls-5" d="M40,63.78l.06.47a1.63,1.63,0,0,1-.35,0,.78.78,0,0,1-.41-.09.58.58,0,0,1-.2-.24,2.64,2.64,0,0,1,0-.63V61.55h-.35v-.41H39v-.77l.47-.31v1.08H40v.41h-.48v1.82a1.48,1.48,0,0,0,0,.29.31.31,0,0,0,.08.11.4.4,0,0,0,.17,0A.9.9,0,0,0,40,63.78Z" transform="translate(-2.4 -4.9)"/><path class="cls-5" d="M40.41,60.57V60h.48v.61Zm0,3.68V61.14h.48v3.11Z" transform="translate(-2.4 -4.9)"/><path class="cls-5" d="M41.61,64.25V61.14H42v.45a1,1,0,0,1,.89-.52,1.15,1.15,0,0,1,.46.1.78.78,0,0,1,.32.27,1.13,1.13,0,0,1,.15.39,3.27,3.27,0,0,1,0,.51v1.91h-.47V62.36a1.48,1.48,0,0,0-.06-.48.44.44,0,0,0-.19-.25.56.56,0,0,0-.33-.1.76.76,0,0,0-.53.21,1.2,1.2,0,0,0-.22.82v1.69Z" transform="translate(-2.4 -4.9)"/><path class="cls-5" d="M46.45,64.25V63.8a1,1,0,0,1-1.35.42.72.72,0,0,1-.32-.27,1,1,0,0,1-.15-.39,2.77,2.77,0,0,1,0-.49V61.14h.48v1.73a3.43,3.43,0,0,0,0,.56.55.55,0,0,0,.19.32.51.51,0,0,0,.35.12.75.75,0,0,0,.41-.12.66.66,0,0,0,.26-.33,1.87,1.87,0,0,0,.08-.61V61.14h.47v3.11Z" transform="translate(-2.4 -4.9)"/><path class="cls-5" d="M47.44,62.7a1.69,1.69,0,0,1,.43-1.28,1.24,1.24,0,0,1,.88-.35,1.21,1.21,0,0,1,1,.42,1.74,1.74,0,0,1,.36,1.17,2.21,2.21,0,0,1-.16.94,1.16,1.16,0,0,1-.47.53,1.26,1.26,0,0,1-.68.2,1.19,1.19,0,0,1-1-.42A1.82,1.82,0,0,1,47.44,62.7Zm.49,0a1.44,1.44,0,0,0,.23.89.73.73,0,0,0,.59.3.72.72,0,0,0,.59-.3,1.43,1.43,0,0,0,.24-.91,1.37,1.37,0,0,0-.24-.87.72.72,0,0,0-.59-.3.73.73,0,0,0-.59.3A1.44,1.44,0,0,0,47.93,62.7Z" transform="translate(-2.4 -4.9)"/><path class="cls-5" d="M52.45,64.25V63.8a1,1,0,0,1-.88.53,1.08,1.08,0,0,1-.47-.11.78.78,0,0,1-.32-.27,1,1,0,0,1-.14-.39,2.77,2.77,0,0,1,0-.49V61.14h.47v1.73a3.43,3.43,0,0,0,0,.56.61.61,0,0,0,.19.32.56.56,0,0,0,.36.12.72.72,0,0,0,.4-.12.67.67,0,0,0,.27-.33,1.92,1.92,0,0,0,.07-.61V61.14h.48v3.11Z" transform="translate(-2.4 -4.9)"/><path class="cls-5" d="M53.43,63.33l.47-.09a.77.77,0,0,0,.22.48.69.69,0,0,0,.51.17.66.66,0,0,0,.48-.15.43.43,0,0,0,.16-.34.32.32,0,0,0-.14-.28,1.7,1.7,0,0,0-.48-.18,4.56,4.56,0,0,1-.73-.26.76.76,0,0,1-.3-.29.88.88,0,0,1-.11-.42.86.86,0,0,1,.09-.39.92.92,0,0,1,.23-.29,1.05,1.05,0,0,1,.3-.15,1.14,1.14,0,0,1,.41-.07,1.46,1.46,0,0,1,.58.11.78.78,0,0,1,.37.28,1.23,1.23,0,0,1,.16.49l-.46.07a.59.59,0,0,0-.18-.38.65.65,0,0,0-.43-.13.72.72,0,0,0-.47.12.37.37,0,0,0-.14.28.28.28,0,0,0,.06.18.37.37,0,0,0,.18.14l.42.14a5.76,5.76,0,0,1,.7.24.8.8,0,0,1,.32.28.88.88,0,0,1,.11.45,1,1,0,0,1-.14.5.94.94,0,0,1-.4.36,1.38,1.38,0,0,1-.59.13,1.08,1.08,0,0,1-1.2-1Z" transform="translate(-2.4 -4.9)"/><path class="cls-5" d="M57.82,64.25V61.14h.43v.48a1.13,1.13,0,0,1,.3-.44.48.48,0,0,1,.3-.11.91.91,0,0,1,.49.17l-.16.49a.71.71,0,0,0-.35-.11.42.42,0,0,0-.28.1.65.65,0,0,0-.18.29,2.39,2.39,0,0,0-.08.62v1.62Z" transform="translate(-2.4 -4.9)"/><path class="cls-5" d="M61.46,64.25V63.8a1,1,0,0,1-1.35.42.72.72,0,0,1-.32-.27,1,1,0,0,1-.15-.39,2.77,2.77,0,0,1,0-.49V61.14h.48v1.73c0,.27,0,.46,0,.56a.63.63,0,0,0,.2.32.51.51,0,0,0,.35.12.7.7,0,0,0,.4-.12.63.63,0,0,0,.27-.33,1.87,1.87,0,0,0,.08-.61V61.14h.47v3.11Z" transform="translate(-2.4 -4.9)"/><path class="cls-5" d="M62.62,64.25V61.14h.43v.45a1,1,0,0,1,.89-.52,1.2,1.2,0,0,1,.47.1.78.78,0,0,1,.32.27,1.13,1.13,0,0,1,.15.39c0,.1,0,.27,0,.51v1.91h-.47V62.36a1.48,1.48,0,0,0-.06-.48.45.45,0,0,0-.2-.25.52.52,0,0,0-.33-.1.73.73,0,0,0-.52.21,1.15,1.15,0,0,0-.22.82v1.69Z" transform="translate(-2.4 -4.9)"/><path class="cls-5" d="M65.63,64.25V61.14h.43v.45a1,1,0,0,1,.89-.52,1.15,1.15,0,0,1,.46.1.78.78,0,0,1,.32.27,1.13,1.13,0,0,1,.15.39,3.27,3.27,0,0,1,0,.51v1.91h-.47V62.36a1.48,1.48,0,0,0-.06-.48.44.44,0,0,0-.19-.25.56.56,0,0,0-.33-.1.74.74,0,0,0-.53.21,1.2,1.2,0,0,0-.22.82v1.69Z" transform="translate(-2.4 -4.9)"/><path class="cls-5" d="M68.63,60.57V60h.48v.61Zm0,3.68V61.14h.48v3.11Z" transform="translate(-2.4 -4.9)"/><path class="cls-5" d="M69.83,64.25V61.14h.43v.45a1,1,0,0,1,.89-.52,1.15,1.15,0,0,1,.46.1.72.72,0,0,1,.32.27,1.13,1.13,0,0,1,.15.39,3,3,0,0,1,0,.51v1.91h-.48V62.36a1.9,1.9,0,0,0,0-.48.5.5,0,0,0-.2-.25.54.54,0,0,0-.33-.1.72.72,0,0,0-.52.21,1.15,1.15,0,0,0-.23.82v1.69Z" transform="translate(-2.4 -4.9)"/><path class="cls-5" d="M72.75,64.51l.46.08a.48.48,0,0,0,.16.34.73.73,0,0,0,.48.15.78.78,0,0,0,.51-.15.68.68,0,0,0,.24-.41,3.16,3.16,0,0,0,0-.67,1,1,0,0,1-.78.4,1,1,0,0,1-.89-.46,1.93,1.93,0,0,1-.32-1.11,2.18,2.18,0,0,1,.15-.82,1.2,1.2,0,0,1,.42-.58,1,1,0,0,1,.64-.21,1,1,0,0,1,.82.45v-.38h.44v2.69a2.77,2.77,0,0,1-.13,1,1,1,0,0,1-.43.48A1.46,1.46,0,0,1,73,65.27.9.9,0,0,1,72.75,64.51Zm.39-1.87a1.45,1.45,0,0,0,.22.9.68.68,0,0,0,1.1,0,1.48,1.48,0,0,0,.22-.88,1.38,1.38,0,0,0-.23-.86.69.69,0,0,0-.55-.29.65.65,0,0,0-.54.29A1.34,1.34,0,0,0,73.14,62.64Z" transform="translate(-2.4 -4.9)"/><path class="cls-5" d="M77.33,64.25V61.14h.43v.48a1.25,1.25,0,0,1,.3-.44.48.48,0,0,1,.3-.11.88.88,0,0,1,.49.17l-.16.49a.68.68,0,0,0-.35-.11.42.42,0,0,0-.28.1.65.65,0,0,0-.18.29,2.4,2.4,0,0,0-.07.62v1.62Z" transform="translate(-2.4 -4.9)"/><path class="cls-5" d="M81,63.87a1.56,1.56,0,0,1-.51.35,1.27,1.27,0,0,1-.52.11,1,1,0,0,1-.71-.25.92.92,0,0,1-.25-.65.8.8,0,0,1,.1-.41.83.83,0,0,1,.24-.31,1.35,1.35,0,0,1,.34-.17,3.79,3.79,0,0,1,.43-.08,3.9,3.9,0,0,0,.84-.18v-.14a.62.62,0,0,0-.13-.45.73.73,0,0,0-.54-.18.79.79,0,0,0-.5.13.86.86,0,0,0-.23.46L79.05,62a1.54,1.54,0,0,1,.21-.53,1,1,0,0,1,.42-.32,1.83,1.83,0,0,1,.64-.11,1.37,1.37,0,0,1,.58.1.77.77,0,0,1,.33.23,1,1,0,0,1,.15.36,4.72,4.72,0,0,1,0,.49V63a8.38,8.38,0,0,0,0,.93,1.15,1.15,0,0,0,.12.37h-.49A1.23,1.23,0,0,1,81,63.87Zm0-1.18a2.89,2.89,0,0,1-.77.2,1.52,1.52,0,0,0-.42.11.37.37,0,0,0-.18.17.45.45,0,0,0-.07.25.48.48,0,0,0,.14.35.56.56,0,0,0,.42.14.88.88,0,0,0,.49-.13.83.83,0,0,0,.32-.37,1.41,1.41,0,0,0,.07-.52Z" transform="translate(-2.4 -4.9)"/><path class="cls-5" d="M82.14,64.25V61.14h.42v.45a1,1,0,0,1,.9-.52,1.19,1.19,0,0,1,.46.1.78.78,0,0,1,.32.27,1.13,1.13,0,0,1,.15.39c0,.1,0,.27,0,.51v1.91h-.47V62.36a1.48,1.48,0,0,0-.06-.48.44.44,0,0,0-.19-.25.56.56,0,0,0-.33-.1.74.74,0,0,0-.53.21,1.2,1.2,0,0,0-.22.82v1.69Z" transform="translate(-2.4 -4.9)"/><path class="cls-5" d="M85.05,64.51l.46.08a.48.48,0,0,0,.17.34.69.69,0,0,0,.48.15.78.78,0,0,0,.51-.15.68.68,0,0,0,.24-.41,3.43,3.43,0,0,0,0-.67.92.92,0,0,1-.77.4,1,1,0,0,1-.9-.46A1.93,1.93,0,0,1,85,62.68a2.39,2.39,0,0,1,.14-.82,1.34,1.34,0,0,1,.42-.58,1.05,1.05,0,0,1,.65-.21,1,1,0,0,1,.82.45v-.38h.44v2.69a2.72,2.72,0,0,1-.14,1,1,1,0,0,1-.42.48,1.46,1.46,0,0,1-1.52-.07A.94.94,0,0,1,85.05,64.51Zm.4-1.87a1.45,1.45,0,0,0,.22.9.67.67,0,0,0,1.09,0,1.41,1.41,0,0,0,.22-.88,1.32,1.32,0,0,0-.23-.86.68.68,0,0,0-.54-.29.64.64,0,0,0-.54.29A1.34,1.34,0,0,0,85.45,62.64Z" transform="translate(-2.4 -4.9)"/><path class="cls-5" d="M90.06,63.25l.49.07a1.33,1.33,0,0,1-.43.74,1.19,1.19,0,0,1-.8.27,1.23,1.23,0,0,1-1-.42A1.79,1.79,0,0,1,88,62.73a1.85,1.85,0,0,1,.37-1.22,1.18,1.18,0,0,1,.94-.44,1.13,1.13,0,0,1,.92.43,1.78,1.78,0,0,1,.36,1.19.82.82,0,0,1,0,.14H88.48a1.2,1.2,0,0,0,.26.79.73.73,0,0,0,.58.27.7.7,0,0,0,.45-.15A1,1,0,0,0,90.06,63.25ZM88.5,62.4h1.57a1.33,1.33,0,0,0-.18-.59.74.74,0,0,0-1.14-.06A1,1,0,0,0,88.5,62.4Z" transform="translate(-2.4 -4.9)"/><path class="cls-5" d="M31.82,30.46l.53-.05a1.33,1.33,0,0,0,.18.53.92.92,0,0,0,.43.33,1.59,1.59,0,0,0,.66.13,1.5,1.5,0,0,0,.58-.1.85.85,0,0,0,.37-.26.63.63,0,0,0,.12-.37.55.55,0,0,0-.12-.35.92.92,0,0,0-.39-.26l-.76-.21a3.9,3.9,0,0,1-.83-.26,1.14,1.14,0,0,1-.46-.4,1,1,0,0,1-.15-.54,1.07,1.07,0,0,1,.19-.61,1.12,1.12,0,0,1,.53-.42,2,2,0,0,1,.79-.15,2.17,2.17,0,0,1,.84.15,1.31,1.31,0,0,1,.57.46,1.26,1.26,0,0,1,.21.67l-.55,0a.87.87,0,0,0-.3-.61,1.11,1.11,0,0,0-.74-.21,1.2,1.2,0,0,0-.76.19.57.57,0,0,0-.23.45.48.48,0,0,0,.17.39,2.28,2.28,0,0,0,.85.3,5.87,5.87,0,0,1,1,.28,1.33,1.33,0,0,1,.56.43,1.07,1.07,0,0,1,.18.61,1.18,1.18,0,0,1-.2.65,1.3,1.3,0,0,1-.56.47,2.05,2.05,0,0,1-.83.17,2.53,2.53,0,0,1-1-.17,1.35,1.35,0,0,1-.62-.51A1.39,1.39,0,0,1,31.82,30.46Z" transform="translate(-2.4 -4.9)"/><path class="cls-5" d="M35.94,31.84v-4.3h.53v1.54a1.2,1.2,0,0,1,.93-.42,1.26,1.26,0,0,1,.6.13.8.8,0,0,1,.37.38,1.79,1.79,0,0,1,.11.7v2H38v-2a.84.84,0,0,0-.17-.58.64.64,0,0,0-.49-.18.88.88,0,0,0-.44.12.72.72,0,0,0-.29.33,1.48,1.48,0,0,0-.09.57v1.71Z" transform="translate(-2.4 -4.9)"/><path class="cls-5" d="M39.08,30.28A1.62,1.62,0,0,1,39.57,29a1.42,1.42,0,0,1,1-.34,1.39,1.39,0,0,1,1.05.42A1.59,1.59,0,0,1,42,30.24a2,2,0,0,1-.18.94,1.35,1.35,0,0,1-.52.54,1.61,1.61,0,0,1-.76.19,1.39,1.39,0,0,1-1-.42A1.67,1.67,0,0,1,39.08,30.28Zm.55,0a1.31,1.31,0,0,0,.26.9.87.87,0,0,0,1.31,0,1.35,1.35,0,0,0,.26-.91,1.31,1.31,0,0,0-.26-.87.85.85,0,0,0-.66-.3.82.82,0,0,0-.65.3A1.26,1.26,0,0,0,39.63,30.28Z" transform="translate(-2.4 -4.9)"/><path class="cls-5" d="M42.61,31.84V28.73h.48v.47a1.33,1.33,0,0,1,.33-.44.59.59,0,0,1,.34-.1,1,1,0,0,1,.54.17l-.18.48a.82.82,0,0,0-.39-.11.52.52,0,0,0-.31.1.59.59,0,0,0-.19.29,2.06,2.06,0,0,0-.09.62v1.63Z" transform="translate(-2.4 -4.9)"/><path class="cls-5" d="M45.77,31.37l.07.46a2,2,0,0,1-.39.05.92.92,0,0,1-.45-.09.46.46,0,0,1-.22-.24,1.68,1.68,0,0,1-.07-.62V29.14h-.38v-.41h.38V28l.53-.32v1.09h.53v.41h-.53V31a.89.89,0,0,0,0,.29.17.17,0,0,0,.09.1.4.4,0,0,0,.18,0Z" transform="translate(-2.4 -4.9)"/><path class="cls-5" d="M46.08,30.55V30H47.7v.53Z" transform="translate(-2.4 -4.9)"/><path class="cls-5" d="M50.3,31.84v-.4a1,1,0,0,1-.87.47,1.16,1.16,0,0,1-.68-.21,1.37,1.37,0,0,1-.49-.57,2.25,2.25,0,0,1,0-1.69,1.17,1.17,0,0,1,.46-.58,1.22,1.22,0,0,1,.7-.2,1,1,0,0,1,.5.11,1.17,1.17,0,0,1,.35.31V27.54h.53v4.3Zm-1.67-1.56a1.42,1.42,0,0,0,.25.9.76.76,0,0,0,.6.29.74.74,0,0,0,.59-.28,1.32,1.32,0,0,0,.24-.86,1.43,1.43,0,0,0-.25-.94.75.75,0,0,0-1.19,0A1.38,1.38,0,0,0,48.63,30.28Z" transform="translate(-2.4 -4.9)"/><path class="cls-5" d="M53.66,31.84v-.46a1.14,1.14,0,0,1-1,.53,1.23,1.23,0,0,1-.51-.11.93.93,0,0,1-.36-.26,1,1,0,0,1-.16-.39,3,3,0,0,1,0-.5V28.73h.52v1.72a2.33,2.33,0,0,0,0,.56.48.48,0,0,0,.21.32.63.63,0,0,0,.4.12.88.88,0,0,0,.44-.12.68.68,0,0,0,.3-.33,1.87,1.87,0,0,0,.08-.61V28.73h.53v3.11Z" transform="translate(-2.4 -4.9)"/><path class="cls-5" d="M55,31.84V28.73h.47v.47a1.33,1.33,0,0,1,.34-.44.57.57,0,0,1,.34-.1,1,1,0,0,1,.54.17l-.18.48a.82.82,0,0,0-.39-.11.5.5,0,0,0-.31.1.61.61,0,0,0-.2.29,2.45,2.45,0,0,0-.08.62v1.63Z" transform="translate(-2.4 -4.9)"/><path class="cls-5" d="M59,31.45a1.66,1.66,0,0,1-.56.35,1.62,1.62,0,0,1-.58.11,1.17,1.17,0,0,1-.79-.25.87.87,0,0,1-.17-1.06.79.79,0,0,1,.27-.3,1.21,1.21,0,0,1,.38-.18L58,30a4.88,4.88,0,0,0,.94-.18v-.14a.58.58,0,0,0-.15-.45.86.86,0,0,0-.6-.18,1,1,0,0,0-.55.13.81.81,0,0,0-.26.46l-.51-.07a1.13,1.13,0,0,1,.23-.53.92.92,0,0,1,.46-.31,2,2,0,0,1,.71-.11,2,2,0,0,1,.65.09.9.9,0,0,1,.36.23.86.86,0,0,1,.17.36,4.88,4.88,0,0,1,0,.49v.7a5.84,5.84,0,0,0,0,.93,1.07,1.07,0,0,0,.13.38h-.55A1.12,1.12,0,0,1,59,31.45Zm0-1.17a4.18,4.18,0,0,1-.86.19,2.37,2.37,0,0,0-.46.11.51.51,0,0,0-.21.17.45.45,0,0,0-.07.25.43.43,0,0,0,.16.35.63.63,0,0,0,.46.14,1.09,1.09,0,0,0,.55-.13.84.84,0,0,0,.34-.36,1.23,1.23,0,0,0,.09-.53Z" transform="translate(-2.4 -4.9)"/><path class="cls-5" d="M61.44,31.37l.08.46a2.08,2.08,0,0,1-.4.05,1,1,0,0,1-.45-.09.51.51,0,0,1-.22-.24,2,2,0,0,1-.06-.62V29.14H60v-.41h.39V28l.52-.32v1.09h.53v.41h-.53V31a.89.89,0,0,0,0,.29.28.28,0,0,0,.09.1.4.4,0,0,0,.18,0Z" transform="translate(-2.4 -4.9)"/><path class="cls-5" d="M62,28.15v-.61h.53v.61Zm0,3.69V28.73h.53v3.11Z" transform="translate(-2.4 -4.9)"/><path class="cls-5" d="M63.09,30.28A1.62,1.62,0,0,1,63.57,29a1.46,1.46,0,0,1,1-.34,1.39,1.39,0,0,1,1,.42A1.59,1.59,0,0,1,66,30.24a2,2,0,0,1-.18.94,1.31,1.31,0,0,1-.53.54,1.61,1.61,0,0,1-.75.19,1.39,1.39,0,0,1-1-.42A1.67,1.67,0,0,1,63.09,30.28Zm.55,0a1.31,1.31,0,0,0,.26.9.84.84,0,0,0,.65.29.85.85,0,0,0,.66-.3,1.35,1.35,0,0,0,.26-.91,1.26,1.26,0,0,0-.27-.87.85.85,0,0,0-1.3,0A1.26,1.26,0,0,0,63.64,30.28Z" transform="translate(-2.4 -4.9)"/><path class="cls-5" d="M66.63,31.84V28.73h.47v.44a1.12,1.12,0,0,1,1-.51,1.27,1.27,0,0,1,.52.1A.74.74,0,0,1,69,29a1,1,0,0,1,.16.39,3,3,0,0,1,0,.51v1.92h-.52v-1.9a1.48,1.48,0,0,0-.06-.48.53.53,0,0,0-.22-.25.66.66,0,0,0-.37-.1.82.82,0,0,0-.58.22,1,1,0,0,0-.25.81v1.7Z" transform="translate(-2.4 -4.9)"/><path class="cls-5" d="M31.94,39V35.93h.47v.47a1.21,1.21,0,0,1,.34-.44.56.56,0,0,1,.33-.1,1,1,0,0,1,.55.17l-.18.48a.82.82,0,0,0-.39-.11.55.55,0,0,0-.31.1.61.61,0,0,0-.2.29,2.06,2.06,0,0,0-.09.62V39Z" transform="translate(-2.4 -4.9)"/><path class="cls-5" d="M36,39v-.46a1.14,1.14,0,0,1-1,.53,1.26,1.26,0,0,1-.51-.11.93.93,0,0,1-.36-.26,1.14,1.14,0,0,1-.16-.39,3,3,0,0,1,0-.5V35.93h.53v1.72a3.35,3.35,0,0,0,0,.56.48.48,0,0,0,.21.32.65.65,0,0,0,.4.12.86.86,0,0,0,.44-.12.68.68,0,0,0,.3-.33,1.63,1.63,0,0,0,.08-.61V35.93h.53V39Z" transform="translate(-2.4 -4.9)"/><path class="cls-5" d="M37.28,39V35.93h.47v.44a1.12,1.12,0,0,1,1-.51,1.27,1.27,0,0,1,.52.1.74.74,0,0,1,.35.26,1,1,0,0,1,.17.39,3,3,0,0,1,0,.51V39h-.53v-1.9a1.48,1.48,0,0,0-.06-.48.53.53,0,0,0-.22-.25.66.66,0,0,0-.37-.1.82.82,0,0,0-.58.22,1.06,1.06,0,0,0-.25.81V39Z" transform="translate(-2.4 -4.9)"/><path class="cls-5" d="M40.61,39V35.93h.48v.44a1.12,1.12,0,0,1,1-.51,1.27,1.27,0,0,1,.52.1.79.79,0,0,1,.35.26,1,1,0,0,1,.16.39,3,3,0,0,1,0,.51V39h-.52v-1.9a1.43,1.43,0,0,0-.07-.48.51.51,0,0,0-.21-.25.66.66,0,0,0-.37-.1.81.81,0,0,0-.58.22,1,1,0,0,0-.25.81V39Z" transform="translate(-2.4 -4.9)"/><path class="cls-5" d="M44,35.35v-.61h.53v.61ZM44,39V35.93h.53V39Z" transform="translate(-2.4 -4.9)"/><path class="cls-5" d="M45.28,39V35.93h.48v.44a1.12,1.12,0,0,1,1-.51,1.27,1.27,0,0,1,.52.1.79.79,0,0,1,.35.26,1,1,0,0,1,.16.39,3,3,0,0,1,0,.51V39h-.52v-1.9a1.43,1.43,0,0,0-.07-.48.51.51,0,0,0-.21-.25.66.66,0,0,0-.37-.1.81.81,0,0,0-.58.22,1,1,0,0,0-.25.81V39Z" transform="translate(-2.4 -4.9)"/><path class="cls-5" d="M48.52,39.29l.52.08a.5.5,0,0,0,.18.35.92.92,0,0,0,.53.14,1,1,0,0,0,.57-.14.78.78,0,0,0,.27-.41,3.61,3.61,0,0,0,0-.68,1.08,1.08,0,0,1-.86.41,1.17,1.17,0,0,1-1-.47,1.77,1.77,0,0,1-.35-1.11,2,2,0,0,1,.16-.82,1.29,1.29,0,0,1,.47-.58,1.22,1.22,0,0,1,.72-.2,1.09,1.09,0,0,1,.9.44v-.37h.49v2.69a2.56,2.56,0,0,1-.15,1,1,1,0,0,1-.47.47,1.57,1.57,0,0,1-.79.18,1.42,1.42,0,0,1-.89-.25A.88.88,0,0,1,48.52,39.29ZM49,37.43a1.37,1.37,0,0,0,.24.89.78.78,0,0,0,.61.28.75.75,0,0,0,.61-.28,1.28,1.28,0,0,0,.25-.88,1.34,1.34,0,0,0-.25-.86.81.81,0,0,0-.62-.29.75.75,0,0,0-.59.29A1.23,1.23,0,0,0,49,37.43Z" transform="translate(-2.4 -4.9)"/><path class="cls-5" d="M53.62,39V35.93h.47v.47a1.33,1.33,0,0,1,.34-.44.57.57,0,0,1,.34-.1,1,1,0,0,1,.54.17l-.18.48a.82.82,0,0,0-.39-.11.57.57,0,0,0-.31.1.61.61,0,0,0-.2.29,2.45,2.45,0,0,0-.08.62V39Z" transform="translate(-2.4 -4.9)"/><path class="cls-5" d="M57.65,38.65a1.66,1.66,0,0,1-.56.35,1.62,1.62,0,0,1-.58.11,1.17,1.17,0,0,1-.79-.25.87.87,0,0,1-.17-1.06.79.79,0,0,1,.27-.3,1.21,1.21,0,0,1,.38-.18l.47-.08a4.88,4.88,0,0,0,.94-.18v-.14a.58.58,0,0,0-.15-.45.86.86,0,0,0-.6-.18,1,1,0,0,0-.55.13.81.81,0,0,0-.26.46l-.51-.07a1.13,1.13,0,0,1,.23-.53.92.92,0,0,1,.46-.31,2,2,0,0,1,.71-.11,2,2,0,0,1,.65.09.81.81,0,0,1,.36.24.88.88,0,0,1,.17.35,4.88,4.88,0,0,1,0,.49v.7a5.84,5.84,0,0,0,0,.93,1.07,1.07,0,0,0,.13.38h-.55A1.12,1.12,0,0,1,57.65,38.65Zm0-1.17a4.18,4.18,0,0,1-.86.19,2.37,2.37,0,0,0-.46.11.51.51,0,0,0-.21.17.45.45,0,0,0-.07.25.43.43,0,0,0,.16.35.63.63,0,0,0,.46.14,1.09,1.09,0,0,0,.55-.13.84.84,0,0,0,.34-.36,1.23,1.23,0,0,0,.09-.53Z" transform="translate(-2.4 -4.9)"/><path class="cls-5" d="M59,39V35.93h.47v.44a1.12,1.12,0,0,1,1-.51,1.27,1.27,0,0,1,.52.1.69.69,0,0,1,.35.26,1,1,0,0,1,.17.39,3,3,0,0,1,0,.51V39H61v-1.9a1.48,1.48,0,0,0-.06-.48.48.48,0,0,0-.22-.25.64.64,0,0,0-.37-.1.84.84,0,0,0-.58.22,1.06,1.06,0,0,0-.24.81V39Z" transform="translate(-2.4 -4.9)"/><path class="cls-5" d="M62.2,39.29l.51.08a.5.5,0,0,0,.18.35.94.94,0,0,0,.54.14,1,1,0,0,0,.56-.14.68.68,0,0,0,.27-.41,3.34,3.34,0,0,0,0-.68,1.09,1.09,0,0,1-.86.41,1.16,1.16,0,0,1-1-.47,1.72,1.72,0,0,1-.36-1.11,2,2,0,0,1,.17-.82,1.2,1.2,0,0,1,1.18-.78,1.1,1.1,0,0,1,.91.44v-.37h.49v2.69a2.56,2.56,0,0,1-.15,1,1.07,1.07,0,0,1-.47.47,1.59,1.59,0,0,1-.79.18,1.48,1.48,0,0,1-.9-.25A.85.85,0,0,1,62.2,39.29Zm.44-1.86a1.37,1.37,0,0,0,.24.89.77.77,0,0,0,.61.28.78.78,0,0,0,.61-.28,1.34,1.34,0,0,0,.24-.88,1.28,1.28,0,0,0-.25-.86.78.78,0,0,0-1.21,0A1.29,1.29,0,0,0,62.64,37.43Z" transform="translate(-2.4 -4.9)"/><path class="cls-5" d="M67.76,38l.55.06a1.34,1.34,0,0,1-.48.74,1.6,1.6,0,0,1-2-.15,1.64,1.64,0,0,1-.4-1.18,1.71,1.71,0,0,1,.4-1.22,1.37,1.37,0,0,1,1-.43,1.33,1.33,0,0,1,1,.42,1.7,1.7,0,0,1,.4,1.2s0,.07,0,.14H66a1.2,1.2,0,0,0,.29.78.88.88,0,0,0,.65.27.82.82,0,0,0,.5-.15A1,1,0,0,0,67.76,38ZM66,37.18h1.74a1,1,0,0,0-.2-.59.87.87,0,0,0-1.26-.06A1,1,0,0,0,66,37.18Z" transform="translate(-2.4 -4.9)"/></g></svg>