<svg xmlns="http://www.w3.org/2000/svg" xmlns:xlink="http://www.w3.org/1999/xlink" viewBox="0 0 97.51 90.01"><defs><style>.cls-1,.cls-2,.cls-4,.cls-5{fill:none;}.cls-1,.cls-5{stroke:#231815;}.cls-1{stroke-width:0.4px;}.cls-2,.cls-4{stroke:#b5b5b6;stroke-width:3px;}.cls-3{clip-path:url(#clip-path);}.cls-4{stroke-miterlimit:1;}.cls-5{stroke-linejoin:round;stroke-dasharray:3.1 1.5;}.cls-6{fill:#231815;}</style><clipPath id="clip-path" transform="translate(-2.4 -4.77)"><rect class="cls-1" x="27.62" y="4.97" width="70.62" height="75"/></clipPath></defs><g id="illust"><line class="cls-2" x1="25.22" y1="50.96" x2="95.84" y2="50.96"/><g class="cls-3"><polyline class="cls-4" points="25.22 13.23 72.81 13.28 95.92 50.82"/></g><rect class="cls-1" x="25.22" y="0.2" width="70.62" height="75"/><line class="cls-1" x1="68.6" y1="26.6" x2="95.84" y2="26.6"/><line class="cls-1" x1="48.97" y1="0.1" x2="48.97" y2="20.98"/><line class="cls-1" x1="25.1" y1="26.6" x2="27.97" y2="26.6"/><line class="cls-5" x1="25.22" y1="13.28" x2="61.98" y2="13.28"/><line class="cls-5" x1="62.31" y1="13.28" x2="95.51" y2="61.67"/><line class="cls-1" x1="25.22" y1="50.96" x2="95.84" y2="50.96"/><line class="cls-5" x1="25.22" y1="50.96" x2="88.16" y2="50.96"/><line class="cls-1" x1="48.97" y1="61.16" x2="48.97" y2="75.42"/><line class="cls-1" x1="48.97" y1="35.35" x2="48.97" y2="52.65"/><line class="cls-1" x1="72.77" y1="61.07" x2="72.77" y2="75.33"/><path class="cls-1" d="M75.17,5.1V57.42" transform="translate(-2.4 -4.77)"/></g><g id="japanese"><path class="cls-6" d="M18.5,32.85v.5H15.66a.89.89,0,0,1,.07-.36,1.83,1.83,0,0,1,.34-.58,6.56,6.56,0,0,1,.69-.65,5.27,5.27,0,0,0,.95-.91,1.1,1.1,0,0,0,.25-.63.7.7,0,0,0-.23-.53.93.93,0,0,0-1.19,0,.9.9,0,0,0-.23.64l-.55-.06a1.35,1.35,0,0,1,.42-.92,1.46,1.46,0,0,1,1-.32,1.36,1.36,0,0,1,1,.34,1.13,1.13,0,0,1,.36.85,1.34,1.34,0,0,1-.11.51,1.82,1.82,0,0,1-.35.52,7.18,7.18,0,0,1-.81.76c-.32.26-.52.45-.61.54a1.48,1.48,0,0,0-.22.29Z" transform="translate(-2.4 -4.77)"/><path class="cls-6" d="M20.76,33.35v-1H18.9v-.48l2-2.78h.43v2.78h.58v.48h-.58v1Zm0-1.51V29.9l-1.35,1.94Z" transform="translate(-2.4 -4.77)"/><path class="cls-6" d="M22.41,31.23A4.09,4.09,0,0,1,22.56,30a1.56,1.56,0,0,1,.47-.72,1.16,1.16,0,0,1,.78-.25,1.27,1.27,0,0,1,.6.14,1.1,1.1,0,0,1,.43.4,2,2,0,0,1,.27.64,4.44,4.44,0,0,1,.1,1,4,4,0,0,1-.16,1.22,1.55,1.55,0,0,1-.46.72,1.2,1.2,0,0,1-.78.26,1.18,1.18,0,0,1-1-.45A2.87,2.87,0,0,1,22.41,31.23Zm.54,0a2.63,2.63,0,0,0,.25,1.41.7.7,0,0,0,.61.35.75.75,0,0,0,.61-.35,2.75,2.75,0,0,0,.24-1.41,2.81,2.81,0,0,0-.24-1.41.74.74,0,0,0-.62-.34.68.68,0,0,0-.58.3A2.78,2.78,0,0,0,23,31.23Z" transform="translate(-2.4 -4.77)"/><path class="cls-6" d="M15.86,19.15l.53-.07a1.1,1.1,0,0,0,.31.64.76.76,0,0,0,.53.2.87.87,0,0,0,.88-.9.79.79,0,0,0-.84-.83,1.48,1.48,0,0,0-.37.06l.06-.47H17a1.07,1.07,0,0,0,.61-.18.58.58,0,0,0,.27-.54.66.66,0,0,0-.2-.48.72.72,0,0,0-.5-.19.73.73,0,0,0-.52.2,1,1,0,0,0-.26.58l-.53-.1a1.37,1.37,0,0,1,.44-.82A1.29,1.29,0,0,1,17.2,16a1.41,1.41,0,0,1,.65.15,1.06,1.06,0,0,1,.45.41,1,1,0,0,1,.16.55.9.9,0,0,1-.15.51,1.06,1.06,0,0,1-.44.36,1,1,0,0,1,.59.37,1.09,1.09,0,0,1,.21.69,1.25,1.25,0,0,1-.41,1,1.44,1.44,0,0,1-1,.39,1.37,1.37,0,0,1-.94-.34A1.32,1.32,0,0,1,15.86,19.15Z" transform="translate(-2.4 -4.77)"/><path class="cls-6" d="M19.19,18.16a4,4,0,0,1,.16-1.22,1.56,1.56,0,0,1,.47-.72,1.15,1.15,0,0,1,.77-.25,1.2,1.2,0,0,1,.61.14,1.1,1.1,0,0,1,.43.4,2.37,2.37,0,0,1,.27.64,4.53,4.53,0,0,1,.09,1,4,4,0,0,1-.15,1.22,1.55,1.55,0,0,1-.46.72,1.21,1.21,0,0,1-.79.25,1.15,1.15,0,0,1-1-.44A2.86,2.86,0,0,1,19.19,18.16Zm.55,0A2.75,2.75,0,0,0,20,19.57a.72.72,0,0,0,1.23,0,2.78,2.78,0,0,0,.24-1.41,2.81,2.81,0,0,0-.24-1.41.76.76,0,0,0-.62-.35.69.69,0,0,0-.58.31A2.75,2.75,0,0,0,19.74,18.16Z" transform="translate(-2.4 -4.77)"/><path class="cls-6" d="M22.53,18.16a3.72,3.72,0,0,1,.16-1.22,1.55,1.55,0,0,1,.46-.72,1.2,1.2,0,0,1,.78-.25,1.22,1.22,0,0,1,.61.14,1.17,1.17,0,0,1,.43.4,2.09,2.09,0,0,1,.26.64,3.93,3.93,0,0,1,.1,1,4,4,0,0,1-.15,1.22,1.56,1.56,0,0,1-.47.72A1.31,1.31,0,0,1,23,19.91,2.79,2.79,0,0,1,22.53,18.16Zm.54,0a2.73,2.73,0,0,0,.25,1.41.75.75,0,0,0,.61.35.73.73,0,0,0,.61-.35,2.65,2.65,0,0,0,.25-1.41,2.68,2.68,0,0,0-.25-1.41.73.73,0,0,0-.61-.35.67.67,0,0,0-.58.31A2.64,2.64,0,0,0,23.07,18.16Z" transform="translate(-2.4 -4.77)"/><path class="cls-6" d="M17.84,57.6h-.52V54.24a3.09,3.09,0,0,1-.5.36,2.91,2.91,0,0,1-.56.28v-.51a3,3,0,0,0,.77-.51,1.79,1.79,0,0,0,.47-.57h.34Z" transform="translate(-2.4 -4.77)"/><path class="cls-6" d="M22,57.09v.51H19.13a.72.72,0,0,1,.06-.36,1.87,1.87,0,0,1,.35-.58,5,5,0,0,1,.69-.65,5.49,5.49,0,0,0,.94-.91,1,1,0,0,0,.25-.63.7.7,0,0,0-.23-.53A.93.93,0,0,0,20,54a.9.9,0,0,0-.23.64l-.54-.06a1.27,1.27,0,0,1,.42-.92,1.42,1.42,0,0,1,1-.32,1.36,1.36,0,0,1,1,.34,1.13,1.13,0,0,1,.36.85,1.34,1.34,0,0,1-.11.51,1.82,1.82,0,0,1-.35.52,7.18,7.18,0,0,1-.81.76,6.34,6.34,0,0,0-.61.54,1.79,1.79,0,0,0-.22.28Z" transform="translate(-2.4 -4.77)"/><path class="cls-6" d="M22.53,55.48a3.76,3.76,0,0,1,.16-1.22,1.55,1.55,0,0,1,.46-.72,1.2,1.2,0,0,1,.78-.25,1.34,1.34,0,0,1,.61.14,1.26,1.26,0,0,1,.43.4,2.09,2.09,0,0,1,.26.64,3.93,3.93,0,0,1,.1,1,4,4,0,0,1-.15,1.22,1.56,1.56,0,0,1-.47.72A1.31,1.31,0,0,1,23,57.23,2.79,2.79,0,0,1,22.53,55.48Zm.54,0a2.73,2.73,0,0,0,.25,1.41.75.75,0,0,0,.61.35.73.73,0,0,0,.61-.35,2.63,2.63,0,0,0,.25-1.41,2.68,2.68,0,0,0-.25-1.41.72.72,0,0,0-.61-.34.67.67,0,0,0-.58.3A2.64,2.64,0,0,0,23.07,55.48Z" transform="translate(-2.4 -4.77)"/><path class="cls-6" d="M22.53,80.39a3.76,3.76,0,0,1,.16-1.22,1.55,1.55,0,0,1,.46-.72,1.2,1.2,0,0,1,.78-.25,1.34,1.34,0,0,1,.61.14,1.26,1.26,0,0,1,.43.4,2.2,2.2,0,0,1,.26.64,3.93,3.93,0,0,1,.1,1,4,4,0,0,1-.15,1.22,1.56,1.56,0,0,1-.47.72A1.31,1.31,0,0,1,23,82.14,2.79,2.79,0,0,1,22.53,80.39Zm.54,0a2.73,2.73,0,0,0,.25,1.41.72.72,0,0,0,.61.35.73.73,0,0,0,.61-.35,2.63,2.63,0,0,0,.25-1.41A2.68,2.68,0,0,0,24.54,79a.72.72,0,0,0-.61-.34.67.67,0,0,0-.58.3A2.66,2.66,0,0,0,23.07,80.39Z" transform="translate(-2.4 -4.77)"/><path d="M52,86h-.53V82.59A2.7,2.7,0,0,1,51,83a3.44,3.44,0,0,1-.55.27v-.51a2.92,2.92,0,0,0,.77-.5,2.07,2.07,0,0,0,.47-.57H52Z" transform="translate(-2.4 -4.77)"/><path d="M97.1,84.82l.52-.07a1.2,1.2,0,0,0,.31.64.78.78,0,0,0,.53.2.89.89,0,0,0,.89-.9.81.81,0,0,0-.24-.6.85.85,0,0,0-.6-.23,1.54,1.54,0,0,0-.38.06l.06-.47h.09a1,1,0,0,0,.6-.18.58.58,0,0,0,.27-.54.65.65,0,0,0-.19-.48.69.69,0,0,0-.51-.19.72.72,0,0,0-.51.19.92.92,0,0,0-.26.58l-.53-.09a1.32,1.32,0,0,1,.44-.82,1.24,1.24,0,0,1,.85-.29,1.44,1.44,0,0,1,.65.15,1.06,1.06,0,0,1,.45.41,1.1,1.1,0,0,1,.16.55.9.9,0,0,1-.15.51,1.06,1.06,0,0,1-.44.36,1,1,0,0,1,.59.37,1.09,1.09,0,0,1,.21.69,1.26,1.26,0,0,1-.41.95,1.47,1.47,0,0,1-1,.4,1.37,1.37,0,0,1-.94-.34A1.29,1.29,0,0,1,97.1,84.82Z" transform="translate(-2.4 -4.77)"/><path d="M76.71,85.44V86H73.87a1.15,1.15,0,0,1,.06-.37,2.2,2.2,0,0,1,.35-.57,5.66,5.66,0,0,1,.69-.65,5.64,5.64,0,0,0,1-.91,1.08,1.08,0,0,0,.24-.63.69.69,0,0,0-.22-.53.78.78,0,0,0-.58-.22.82.82,0,0,0-.61.23.88.88,0,0,0-.24.63L74,82.88a1.33,1.33,0,0,1,.42-.92,1.4,1.4,0,0,1,1-.32,1.36,1.36,0,0,1,1,.34,1.13,1.13,0,0,1,.36.85,1.34,1.34,0,0,1-.11.51,2.06,2.06,0,0,1-.35.52,8.25,8.25,0,0,1-.81.76,6.34,6.34,0,0,0-.61.54,1.35,1.35,0,0,0-.22.28Z" transform="translate(-2.4 -4.77)"/><path d="M45.51,92.21l.54,0a1.08,1.08,0,0,0,.18.53.87.87,0,0,0,.43.33,1.53,1.53,0,0,0,.66.13,1.45,1.45,0,0,0,.57-.1.75.75,0,0,0,.37-.26.65.65,0,0,0,.12-.37.58.58,0,0,0-.11-.35.92.92,0,0,0-.39-.26l-.76-.21a3.16,3.16,0,0,1-.83-.27,1.07,1.07,0,0,1-.46-.4.94.94,0,0,1-.15-.53,1.1,1.1,0,0,1,.72-1,2.22,2.22,0,0,1,.79-.14,2.17,2.17,0,0,1,.84.15,1.2,1.2,0,0,1,.56.45,1.33,1.33,0,0,1,.21.68l-.54,0a.85.85,0,0,0-.3-.61,1.16,1.16,0,0,0-.75-.21,1.18,1.18,0,0,0-.75.19.54.54,0,0,0-.24.45.49.49,0,0,0,.17.38,2.2,2.2,0,0,0,.86.31,6.15,6.15,0,0,1,1,.27,1.31,1.31,0,0,1,.55.44,1.07,1.07,0,0,1,.18.61,1.17,1.17,0,0,1-.19.65,1.33,1.33,0,0,1-.57.47,2,2,0,0,1-.83.17,2.51,2.51,0,0,1-1-.17,1.3,1.3,0,0,1-.62-.51A1.49,1.49,0,0,1,45.51,92.21Z" transform="translate(-2.4 -4.77)"/><path d="M49.64,94.78V90.47h.48v.41a1.17,1.17,0,0,1,.38-.36A1.08,1.08,0,0,1,51,90.4a1.24,1.24,0,0,1,.71.21,1.34,1.34,0,0,1,.46.58,2.18,2.18,0,0,1,.15.82,2.2,2.2,0,0,1-.17.86,1.34,1.34,0,0,1-1.18.79,1,1,0,0,1-.48-.12.93.93,0,0,1-.34-.28v1.52Zm.48-2.73a1.34,1.34,0,0,0,.24.88.72.72,0,0,0,.59.29.75.75,0,0,0,.6-.3A1.37,1.37,0,0,0,51.8,92a1.41,1.41,0,0,0-.24-.89.75.75,0,0,0-.59-.29.74.74,0,0,0-.59.31A1.38,1.38,0,0,0,50.12,92.05Z" transform="translate(-2.4 -4.77)"/><path d="M55.11,92.58l.54.07a1.24,1.24,0,0,1-.48.74,1.39,1.39,0,0,1-.89.27,1.43,1.43,0,0,1-1.08-.42,1.68,1.68,0,0,1-.4-1.18,1.71,1.71,0,0,1,.41-1.22,1.37,1.37,0,0,1,1-.44,1.3,1.3,0,0,1,1,.43,1.65,1.65,0,0,1,.4,1.19v.14H53.35a1.16,1.16,0,0,0,.29.79.86.86,0,0,0,.65.27.79.79,0,0,0,.49-.15A1,1,0,0,0,55.11,92.58Zm-1.73-.85h1.73a1,1,0,0,0-.2-.59.79.79,0,0,0-.65-.3.84.84,0,0,0-.61.24A.9.9,0,0,0,53.38,91.73Z" transform="translate(-2.4 -4.77)"/><path d="M58.44,92.58l.55.07a1.34,1.34,0,0,1-.48.74,1.41,1.41,0,0,1-.89.27,1.43,1.43,0,0,1-1.08-.42,1.64,1.64,0,0,1-.4-1.18,1.71,1.71,0,0,1,.4-1.22,1.37,1.37,0,0,1,1.05-.44,1.3,1.3,0,0,1,1,.43A1.65,1.65,0,0,1,59,92a.82.82,0,0,1,0,.14H56.68A1.21,1.21,0,0,0,57,93a.88.88,0,0,0,.65.27.82.82,0,0,0,.5-.15A1,1,0,0,0,58.44,92.58Zm-1.73-.85h1.74a1,1,0,0,0-.2-.59.81.81,0,0,0-.65-.3.84.84,0,0,0-.61.24A1,1,0,0,0,56.71,91.73Z" transform="translate(-2.4 -4.77)"/><path d="M61.67,93.58v-.39a1,1,0,0,1-.87.47,1.16,1.16,0,0,1-.68-.21,1.44,1.44,0,0,1-.49-.57,2.25,2.25,0,0,1,0-1.69,1.18,1.18,0,0,1,.46-.58,1.23,1.23,0,0,1,.7-.21,1,1,0,0,1,.85.43V89.29h.53v4.29ZM60,92a1.42,1.42,0,0,0,.25.9.79.79,0,0,0,.6.29.74.74,0,0,0,.59-.28,1.32,1.32,0,0,0,.24-.86,1.43,1.43,0,0,0-.25-.94.75.75,0,0,0-1.19,0A1.38,1.38,0,0,0,60,92Z" transform="translate(-2.4 -4.77)"/><path d="M64.67,94.78V89.29h1.16v.44h-.64v4.61h.64v.44Z" transform="translate(-2.4 -4.77)"/><path d="M66.32,93.58V90.47h.47v.44a1.26,1.26,0,0,1,.39-.37,1.16,1.16,0,0,1,.56-.14,1,1,0,0,1,.56.15.75.75,0,0,1,.32.4,1.09,1.09,0,0,1,1-.55,1,1,0,0,1,.71.26,1.07,1.07,0,0,1,.25.79v2.13H70v-2a1.25,1.25,0,0,0-.05-.45.39.39,0,0,0-.18-.22.57.57,0,0,0-.32-.09.7.7,0,0,0-.54.22.93.93,0,0,0-.22.7v1.8h-.53v-2A.83.83,0,0,0,68,91a.47.47,0,0,0-.42-.18.73.73,0,0,0-.41.12.67.67,0,0,0-.28.34,2.15,2.15,0,0,0-.08.65v1.61Z" transform="translate(-2.4 -4.77)"/><path d="M70.92,93.66l1.25-4.44h.42l-1.24,4.44Z" transform="translate(-2.4 -4.77)"/><path d="M72.78,92.66l.52-.09a.74.74,0,0,0,.24.48.82.82,0,0,0,.56.17.79.79,0,0,0,.54-.15.42.42,0,0,0,.18-.34.3.3,0,0,0-.16-.28,2,2,0,0,0-.54-.18,5.32,5.32,0,0,1-.8-.26.81.81,0,0,1-.34-.29.79.79,0,0,1-.12-.42.8.8,0,0,1,.1-.38.83.83,0,0,1,.26-.3,1,1,0,0,1,.33-.15A1.43,1.43,0,0,1,74,90.4a1.79,1.79,0,0,1,.64.11.85.85,0,0,1,.41.28,1.14,1.14,0,0,1,.18.49l-.51.07a.58.58,0,0,0-.21-.38.73.73,0,0,0-.47-.13.87.87,0,0,0-.52.12.36.36,0,0,0-.16.28.29.29,0,0,0,.07.18.38.38,0,0,0,.2.14l.47.14a8,8,0,0,1,.78.24.86.86,0,0,1,.34.28.73.73,0,0,1,.13.45.91.91,0,0,1-.15.5,1.09,1.09,0,0,1-.45.36,1.67,1.67,0,0,1-.65.13,1.45,1.45,0,0,1-.93-.26A1.1,1.1,0,0,1,72.78,92.66Z" transform="translate(-2.4 -4.77)"/><path d="M76.87,94.78H75.71v-.44h.63V89.73h-.63v-.44h1.16Z" transform="translate(-2.4 -4.77)"/><path d="M6.7,55.71H2.91v1.42H2.4v-3.4h.51v1.42H6.7Z" transform="translate(-2.4 -4.77)"/><path d="M6.7,53.21H2.4v-.53H3.94a1.17,1.17,0,0,1-.42-.93,1.26,1.26,0,0,1,.13-.6A.78.78,0,0,1,4,50.79a1.62,1.62,0,0,1,.7-.11h2v.52h-2a.79.79,0,0,0-.58.18.62.62,0,0,0-.18.48.86.86,0,0,0,.12.44.68.68,0,0,0,.33.3,1.75,1.75,0,0,0,.58.08H6.7Z" transform="translate(-2.4 -4.77)"/><path d="M6.7,49.88H3.59V49.4h.47a1.33,1.33,0,0,1-.44-.33.59.59,0,0,1-.1-.34,1,1,0,0,1,.17-.54l.49.18a.74.74,0,0,0-.12.39.51.51,0,0,0,.11.31.47.47,0,0,0,.28.19,2.06,2.06,0,0,0,.62.09H6.7Z" transform="translate(-2.4 -4.77)"/><path d="M6.7,45.84H6.24a1.14,1.14,0,0,1,.53,1,1.27,1.27,0,0,1-.11.52.82.82,0,0,1-.26.35,1,1,0,0,1-.39.16,2.07,2.07,0,0,1-.5,0H3.59v-.53H5.31a3.35,3.35,0,0,0,.56,0,.63.63,0,0,0,.33-.21.72.72,0,0,0,.11-.4.89.89,0,0,0-.12-.45A.66.66,0,0,0,5.86,46a1.6,1.6,0,0,0-.61-.09H3.59v-.53H6.7Z" transform="translate(-2.4 -4.77)"/><path d="M5.77,44.75l-.08-.52A.7.7,0,0,0,6.17,44a.85.85,0,0,0,.16-.56.83.83,0,0,0-.14-.54.47.47,0,0,0-.35-.17.32.32,0,0,0-.28.15,2.12,2.12,0,0,0-.18.54,5.44,5.44,0,0,1-.25.81.83.83,0,0,1-.3.34.88.88,0,0,1-.42.11A.82.82,0,0,1,4,44.57a.94.94,0,0,1-.3-.26A1.08,1.08,0,0,1,3.58,44a1.63,1.63,0,0,1-.06-.45,1.85,1.85,0,0,1,.1-.65.92.92,0,0,1,.29-.41,1.34,1.34,0,0,1,.48-.18l.07.52a.57.57,0,0,0-.38.2.74.74,0,0,0-.13.48.89.89,0,0,0,.12.52.35.35,0,0,0,.28.15.33.33,0,0,0,.19-.06.64.64,0,0,0,.14-.2c0-.06.06-.21.13-.47a5.57,5.57,0,0,1,.25-.78.71.71,0,0,1,.72-.47.91.91,0,0,1,.5.15.93.93,0,0,1,.36.44,1.59,1.59,0,0,1,.13.66,1.5,1.5,0,0,1-.25.92A1.16,1.16,0,0,1,5.77,44.75Z" transform="translate(-2.4 -4.77)"/><path d="M6.23,40.39l.46-.08a2.08,2.08,0,0,1,0,.4.88.88,0,0,1-.09.44.53.53,0,0,1-.24.23,2,2,0,0,1-.62.06H4v.39H3.59v-.39H2.82l-.32-.52H3.59v-.53H4v.53H5.82a.89.89,0,0,0,.29,0,.28.28,0,0,0,.1-.09.4.4,0,0,0,0-.18C6.25,40.56,6.24,40.48,6.23,40.39Z" transform="translate(-2.4 -4.77)"/><path d="M7.89,38.19H2.4V37h.44v.64H7.45V37h.44Z" transform="translate(-2.4 -4.77)"/><path d="M6.7,36.48H2.4v-.59l3.37-2.25H2.4v-.55H6.7v.59L3.32,35.93H6.7Z" transform="translate(-2.4 -4.77)"/><path d="M7.89,31.32v1.17H7.45v-.64H2.84v.64H2.4V31.32Z" transform="translate(-2.4 -4.77)"/><path class="cls-6" d="M31.82,29.69l.53-.05a1.27,1.27,0,0,0,.18.53.92.92,0,0,0,.43.33,1.59,1.59,0,0,0,.66.13,1.5,1.5,0,0,0,.58-.1.85.85,0,0,0,.37-.26.63.63,0,0,0,.12-.37.55.55,0,0,0-.12-.35.92.92,0,0,0-.39-.26c-.11,0-.37-.11-.76-.2a4.42,4.42,0,0,1-.83-.27,1.14,1.14,0,0,1-.46-.4,1,1,0,0,1-.15-.54,1.07,1.07,0,0,1,.19-.61,1.12,1.12,0,0,1,.53-.42,2,2,0,0,1,.79-.15,2.17,2.17,0,0,1,.84.15,1.31,1.31,0,0,1,.57.46,1.26,1.26,0,0,1,.21.67l-.55,0a.87.87,0,0,0-.3-.61,1.11,1.11,0,0,0-.74-.21,1.2,1.2,0,0,0-.76.19.59.59,0,0,0-.23.45.48.48,0,0,0,.17.39,2.11,2.11,0,0,0,.85.3,5.87,5.87,0,0,1,1,.28,1.33,1.33,0,0,1,.56.43,1.07,1.07,0,0,1,.18.61,1.18,1.18,0,0,1-.2.65,1.3,1.3,0,0,1-.56.47,2.05,2.05,0,0,1-.83.17,2.53,2.53,0,0,1-1-.17,1.35,1.35,0,0,1-.62-.51A1.39,1.39,0,0,1,31.82,29.69Z" transform="translate(-2.4 -4.77)"/><path class="cls-6" d="M35.94,31.07v-4.3h.53v1.54a1.2,1.2,0,0,1,.93-.42A1.26,1.26,0,0,1,38,28a.8.8,0,0,1,.37.38,1.79,1.79,0,0,1,.11.7v2H38v-2a.84.84,0,0,0-.17-.58.64.64,0,0,0-.49-.18.88.88,0,0,0-.44.12.72.72,0,0,0-.29.33,1.5,1.5,0,0,0-.09.58v1.7Z" transform="translate(-2.4 -4.77)"/><path class="cls-6" d="M39.08,29.51a1.62,1.62,0,0,1,.49-1.28,1.42,1.42,0,0,1,1-.34,1.39,1.39,0,0,1,1.05.42A1.59,1.59,0,0,1,42,29.47a2,2,0,0,1-.18.94,1.35,1.35,0,0,1-.52.54,1.61,1.61,0,0,1-.76.19,1.39,1.39,0,0,1-1-.42A1.67,1.67,0,0,1,39.08,29.51Zm.55,0a1.31,1.31,0,0,0,.26.9.84.84,0,0,0,.65.29.86.86,0,0,0,.66-.29,1.4,1.4,0,0,0,.26-.92,1.31,1.31,0,0,0-.26-.87.85.85,0,0,0-.66-.3.82.82,0,0,0-.65.3A1.28,1.28,0,0,0,39.63,29.51Z" transform="translate(-2.4 -4.77)"/><path class="cls-6" d="M42.61,31.07V28h.48v.47a1.33,1.33,0,0,1,.33-.44.59.59,0,0,1,.34-.1,1,1,0,0,1,.54.17l-.18.48a.82.82,0,0,0-.39-.11.6.6,0,0,0-.31.1.59.59,0,0,0-.19.29,2.06,2.06,0,0,0-.09.62v1.63Z" transform="translate(-2.4 -4.77)"/><path class="cls-6" d="M45.77,30.6l.07.46a2,2,0,0,1-.39.05A.92.92,0,0,1,45,31a.46.46,0,0,1-.22-.24,1.68,1.68,0,0,1-.07-.62V28.37h-.38V28h.38v-.77l.53-.32V28h.53v.41h-.53v1.82a.89.89,0,0,0,0,.29.17.17,0,0,0,.09.1.4.4,0,0,0,.18,0Z" transform="translate(-2.4 -4.77)"/><path class="cls-6" d="M46.08,29.78v-.53H47.7v.53Z" transform="translate(-2.4 -4.77)"/><path class="cls-6" d="M50.3,31.07v-.4a1,1,0,0,1-.87.47,1.16,1.16,0,0,1-.68-.21,1.37,1.37,0,0,1-.49-.57,2.25,2.25,0,0,1,0-1.69,1.17,1.17,0,0,1,.46-.58,1.22,1.22,0,0,1,.7-.2,1.18,1.18,0,0,1,.5.11,1.17,1.17,0,0,1,.35.31V26.77h.53v4.3Zm-1.67-1.56a1.42,1.42,0,0,0,.25.9.76.76,0,0,0,.6.29.74.74,0,0,0,.59-.28,1.3,1.3,0,0,0,.24-.86,1.43,1.43,0,0,0-.25-.94.75.75,0,0,0-1.19,0A1.38,1.38,0,0,0,48.63,29.51Z" transform="translate(-2.4 -4.77)"/><path class="cls-6" d="M53.66,31.07v-.46a1.14,1.14,0,0,1-1,.53,1.23,1.23,0,0,1-.51-.11.93.93,0,0,1-.36-.26,1,1,0,0,1-.16-.39,3,3,0,0,1,0-.5V28h.52v1.72a2.33,2.33,0,0,0,0,.56.48.48,0,0,0,.21.32.63.63,0,0,0,.4.12.88.88,0,0,0,.44-.12.68.68,0,0,0,.3-.33,1.87,1.87,0,0,0,.08-.61V28h.53v3.11Z" transform="translate(-2.4 -4.77)"/><path class="cls-6" d="M55,31.07V28h.47v.47a1.33,1.33,0,0,1,.34-.44.57.57,0,0,1,.34-.1,1,1,0,0,1,.54.17l-.18.48a.82.82,0,0,0-.39-.11.57.57,0,0,0-.31.1.61.61,0,0,0-.2.29,2.45,2.45,0,0,0-.08.62v1.63Z" transform="translate(-2.4 -4.77)"/><path class="cls-6" d="M59,30.68a1.88,1.88,0,0,1-.56.36,1.86,1.86,0,0,1-.58.1,1.17,1.17,0,0,1-.79-.25.87.87,0,0,1-.17-1.06.79.79,0,0,1,.27-.3,1.21,1.21,0,0,1,.38-.18l.47-.08a4.88,4.88,0,0,0,.94-.18V29a.59.59,0,0,0-.15-.46.86.86,0,0,0-.6-.18,1,1,0,0,0-.55.13.81.81,0,0,0-.26.46l-.51-.07a1.13,1.13,0,0,1,.23-.53.92.92,0,0,1,.46-.31,2,2,0,0,1,.71-.11,2,2,0,0,1,.65.09.81.81,0,0,1,.36.24.77.77,0,0,1,.17.35,4.88,4.88,0,0,1,0,.49v.7a5.84,5.84,0,0,0,0,.93,1.07,1.07,0,0,0,.13.38h-.55A1.12,1.12,0,0,1,59,30.68Zm0-1.17a4.82,4.82,0,0,1-.86.2,1.91,1.91,0,0,0-.46.1.51.51,0,0,0-.21.17.45.45,0,0,0-.07.25.43.43,0,0,0,.16.35.63.63,0,0,0,.46.14,1.09,1.09,0,0,0,.55-.13.84.84,0,0,0,.34-.36,1.23,1.23,0,0,0,.09-.53Z" transform="translate(-2.4 -4.77)"/><path class="cls-6" d="M61.44,30.6l.08.46a2.08,2.08,0,0,1-.4.05,1,1,0,0,1-.45-.09.51.51,0,0,1-.22-.24,2,2,0,0,1-.06-.62V28.37H60V28h.39v-.77l.52-.32V28h.53v.41h-.53v1.82a.89.89,0,0,0,0,.29.28.28,0,0,0,.09.1.4.4,0,0,0,.18,0Z" transform="translate(-2.4 -4.77)"/><path class="cls-6" d="M62,27.38v-.61h.53v.61Zm0,3.69V28h.53v3.11Z" transform="translate(-2.4 -4.77)"/><path class="cls-6" d="M63.09,29.51a1.62,1.62,0,0,1,.48-1.28,1.46,1.46,0,0,1,1-.34,1.39,1.39,0,0,1,1,.42A1.59,1.59,0,0,1,66,29.47a2,2,0,0,1-.18.94,1.31,1.31,0,0,1-.53.54,1.61,1.61,0,0,1-.75.19,1.39,1.39,0,0,1-1-.42A1.67,1.67,0,0,1,63.09,29.51Zm.55,0a1.31,1.31,0,0,0,.26.9.84.84,0,0,0,.65.29.88.88,0,0,0,.66-.29,1.4,1.4,0,0,0,.26-.92,1.26,1.26,0,0,0-.27-.87.85.85,0,0,0-1.3,0A1.28,1.28,0,0,0,63.64,29.51Z" transform="translate(-2.4 -4.77)"/><path class="cls-6" d="M66.63,31.07V28h.47v.44a1.12,1.12,0,0,1,1-.51,1.27,1.27,0,0,1,.52.1.74.74,0,0,1,.35.26,1,1,0,0,1,.16.39,3,3,0,0,1,0,.51v1.92h-.52v-1.9a1.48,1.48,0,0,0-.06-.48.53.53,0,0,0-.22-.25.66.66,0,0,0-.37-.1.82.82,0,0,0-.58.22,1,1,0,0,0-.25.81v1.7Z" transform="translate(-2.4 -4.77)"/><path class="cls-6" d="M31.94,38.27V35.16h.47v.47a1.21,1.21,0,0,1,.34-.44.56.56,0,0,1,.33-.1,1,1,0,0,1,.55.17l-.18.49a.74.74,0,0,0-.39-.12.55.55,0,0,0-.31.1.61.61,0,0,0-.2.29,2.06,2.06,0,0,0-.09.62v1.63Z" transform="translate(-2.4 -4.77)"/><path class="cls-6" d="M36,38.27v-.46a1.14,1.14,0,0,1-1,.53,1.26,1.26,0,0,1-.51-.11.93.93,0,0,1-.36-.26,1.14,1.14,0,0,1-.16-.39,3,3,0,0,1,0-.5V35.16h.53v1.72a3.35,3.35,0,0,0,0,.56.53.53,0,0,0,.21.33.72.72,0,0,0,.4.11.86.86,0,0,0,.44-.12.68.68,0,0,0,.3-.33,1.63,1.63,0,0,0,.08-.61V35.16h.53v3.11Z" transform="translate(-2.4 -4.77)"/><path class="cls-6" d="M37.28,38.27V35.16h.47v.44a1.12,1.12,0,0,1,1-.51,1.27,1.27,0,0,1,.52.1.74.74,0,0,1,.35.26,1,1,0,0,1,.17.39,3,3,0,0,1,0,.51v1.92h-.53V36.38a1.5,1.5,0,0,0-.06-.49.53.53,0,0,0-.22-.25.66.66,0,0,0-.37-.1.82.82,0,0,0-.58.22,1.06,1.06,0,0,0-.25.81v1.7Z" transform="translate(-2.4 -4.77)"/><path class="cls-6" d="M40.61,38.27V35.16h.48v.44a1.12,1.12,0,0,1,1-.51,1.27,1.27,0,0,1,.52.1.79.79,0,0,1,.35.26,1,1,0,0,1,.16.39,3,3,0,0,1,0,.51v1.92h-.52V36.38a1.46,1.46,0,0,0-.07-.49.51.51,0,0,0-.21-.25.66.66,0,0,0-.37-.1.81.81,0,0,0-.58.22,1,1,0,0,0-.25.81v1.7Z" transform="translate(-2.4 -4.77)"/><path class="cls-6" d="M44,34.58V34h.53v.61Zm0,3.69V35.16h.53v3.11Z" transform="translate(-2.4 -4.77)"/><path class="cls-6" d="M45.28,38.27V35.16h.48v.44a1.12,1.12,0,0,1,1-.51,1.27,1.27,0,0,1,.52.1.79.79,0,0,1,.35.26,1,1,0,0,1,.16.39,3,3,0,0,1,0,.51v1.92h-.52V36.38a1.46,1.46,0,0,0-.07-.49.51.51,0,0,0-.21-.25.66.66,0,0,0-.37-.1.81.81,0,0,0-.58.22,1,1,0,0,0-.25.81v1.7Z" transform="translate(-2.4 -4.77)"/><path class="cls-6" d="M48.52,38.53l.52.07a.48.48,0,0,0,.18.35.92.92,0,0,0,.53.14,1,1,0,0,0,.57-.14.78.78,0,0,0,.27-.41,3.61,3.61,0,0,0,0-.68,1.08,1.08,0,0,1-.86.41,1.17,1.17,0,0,1-1-.47,1.77,1.77,0,0,1-.35-1.11,2,2,0,0,1,.16-.82,1.29,1.29,0,0,1,.47-.58,1.22,1.22,0,0,1,.72-.2,1.09,1.09,0,0,1,.9.44v-.37h.49v2.69a2.56,2.56,0,0,1-.15,1,1,1,0,0,1-.47.47,1.57,1.57,0,0,1-.79.18,1.42,1.42,0,0,1-.89-.25A.87.87,0,0,1,48.52,38.53ZM49,36.66a1.37,1.37,0,0,0,.24.89.78.78,0,0,0,.61.28.75.75,0,0,0,.61-.28,1.28,1.28,0,0,0,.25-.88,1.34,1.34,0,0,0-.25-.86.81.81,0,0,0-.62-.29.75.75,0,0,0-.59.29A1.23,1.23,0,0,0,49,36.66Z" transform="translate(-2.4 -4.77)"/><path class="cls-6" d="M53.62,38.27V35.16h.47v.47a1.33,1.33,0,0,1,.34-.44.57.57,0,0,1,.34-.1,1,1,0,0,1,.54.17l-.18.49a.74.74,0,0,0-.39-.12.57.57,0,0,0-.31.1.61.61,0,0,0-.2.29,2.45,2.45,0,0,0-.08.62v1.63Z" transform="translate(-2.4 -4.77)"/><path class="cls-6" d="M57.65,37.88a1.88,1.88,0,0,1-.56.36,1.86,1.86,0,0,1-.58.1,1.17,1.17,0,0,1-.79-.25A.87.87,0,0,1,55.55,37a.79.79,0,0,1,.27-.3,1.21,1.21,0,0,1,.38-.18l.47-.08a4.88,4.88,0,0,0,.94-.18v-.13a.59.59,0,0,0-.15-.46.86.86,0,0,0-.6-.18,1,1,0,0,0-.55.13.81.81,0,0,0-.26.46L55.54,36a1.17,1.17,0,0,1,.23-.53.92.92,0,0,1,.46-.31,2,2,0,0,1,.71-.11,2,2,0,0,1,.65.09.81.81,0,0,1,.36.24.88.88,0,0,1,.17.35,4.88,4.88,0,0,1,0,.49V37a5.84,5.84,0,0,0,0,.93,1.07,1.07,0,0,0,.13.38h-.55A1.12,1.12,0,0,1,57.65,37.88Zm0-1.17a4.82,4.82,0,0,1-.86.2,1.91,1.91,0,0,0-.46.1.51.51,0,0,0-.21.17.45.45,0,0,0-.07.25.43.43,0,0,0,.16.35.63.63,0,0,0,.46.14,1.09,1.09,0,0,0,.55-.13.84.84,0,0,0,.34-.36,1.23,1.23,0,0,0,.09-.53Z" transform="translate(-2.4 -4.77)"/><path class="cls-6" d="M59,38.27V35.16h.47v.44a1.12,1.12,0,0,1,1-.51,1.27,1.27,0,0,1,.52.1.69.69,0,0,1,.35.26,1,1,0,0,1,.17.39,3,3,0,0,1,0,.51v1.92H61V36.38a1.5,1.5,0,0,0-.06-.49.48.48,0,0,0-.22-.25.64.64,0,0,0-.37-.1.84.84,0,0,0-.58.22,1.06,1.06,0,0,0-.24.81v1.7Z" transform="translate(-2.4 -4.77)"/><path class="cls-6" d="M62.2,38.53l.51.07a.48.48,0,0,0,.18.35.94.94,0,0,0,.54.14A1,1,0,0,0,64,39a.68.68,0,0,0,.27-.41,3.34,3.34,0,0,0,0-.68,1.09,1.09,0,0,1-.86.41,1.16,1.16,0,0,1-1-.47,1.72,1.72,0,0,1-.36-1.11,2,2,0,0,1,.17-.82,1.2,1.2,0,0,1,1.18-.78,1.1,1.1,0,0,1,.91.44v-.37h.49v2.69a2.56,2.56,0,0,1-.15,1,1.07,1.07,0,0,1-.47.47,1.59,1.59,0,0,1-.79.18,1.48,1.48,0,0,1-.9-.25A.84.84,0,0,1,62.2,38.53Zm.44-1.87a1.37,1.37,0,0,0,.24.89.77.77,0,0,0,.61.28.78.78,0,0,0,.61-.28,1.34,1.34,0,0,0,.24-.88,1.28,1.28,0,0,0-.25-.86.78.78,0,0,0-1.21,0A1.29,1.29,0,0,0,62.64,36.66Z" transform="translate(-2.4 -4.77)"/><path class="cls-6" d="M67.76,37.27l.55.06a1.34,1.34,0,0,1-.48.74,1.6,1.6,0,0,1-2-.15,1.64,1.64,0,0,1-.4-1.18,1.71,1.71,0,0,1,.4-1.22,1.37,1.37,0,0,1,1-.43,1.33,1.33,0,0,1,1,.42,1.7,1.7,0,0,1,.4,1.2s0,.07,0,.14H66a1.2,1.2,0,0,0,.29.78.88.88,0,0,0,.65.27.82.82,0,0,0,.5-.15A1,1,0,0,0,67.76,37.27ZM66,36.41h1.74a1.06,1.06,0,0,0-.2-.59.87.87,0,0,0-1.26-.06A1,1,0,0,0,66,36.41Z" transform="translate(-2.4 -4.77)"/><path class="cls-6" d="M31.89,62l.51.14a1.94,1.94,0,0,1-.58,1.07,1.47,1.47,0,0,1-1,.37,1.55,1.55,0,0,1-1.61-1.1A3.13,3.13,0,0,1,29,61.31a2.81,2.81,0,0,1,.23-1.17,1.65,1.65,0,0,1,.66-.76,1.69,1.69,0,0,1,.94-.26,1.46,1.46,0,0,1,1,.33,1.61,1.61,0,0,1,.55.92l-.5.13a1.35,1.35,0,0,0-.39-.68.94.94,0,0,0-.64-.22,1.16,1.16,0,0,0-.75.24,1.25,1.25,0,0,0-.42.64,2.86,2.86,0,0,0-.12.82,3,3,0,0,0,.14,1,1.15,1.15,0,0,0,1.11.81,1,1,0,0,0,.72-.27A1.48,1.48,0,0,0,31.89,62Z" transform="translate(-2.4 -4.77)"/><path class="cls-6" d="M32.79,61.93a1.73,1.73,0,0,1,.43-1.28,1.24,1.24,0,0,1,.88-.35,1.21,1.21,0,0,1,.95.42,1.74,1.74,0,0,1,.37,1.17,2.19,2.19,0,0,1-.17.94,1.18,1.18,0,0,1-.47.54,1.34,1.34,0,0,1-.68.19,1.21,1.21,0,0,1-1-.42A1.8,1.8,0,0,1,32.79,61.93Zm.49,0a1.49,1.49,0,0,0,.23.9.75.75,0,0,0,.59.29.71.71,0,0,0,.59-.3,1.43,1.43,0,0,0,.24-.91,1.37,1.37,0,0,0-.24-.87.72.72,0,0,0-.59-.3.73.73,0,0,0-.59.3A1.44,1.44,0,0,0,33.28,61.93Z" transform="translate(-2.4 -4.77)"/><path class="cls-6" d="M36,63.49V60.37h.43v.45a1,1,0,0,1,.89-.52,1.08,1.08,0,0,1,.47.11.67.67,0,0,1,.31.26,1.13,1.13,0,0,1,.15.39,3,3,0,0,1,0,.51v1.92h-.48v-1.9a1.9,1.9,0,0,0-.05-.48.5.5,0,0,0-.2-.25.52.52,0,0,0-.33-.1.72.72,0,0,0-.52.21,1.15,1.15,0,0,0-.22.82v1.7Z" transform="translate(-2.4 -4.77)"/><path class="cls-6" d="M40,63l.07.47a1.63,1.63,0,0,1-.36.05.76.76,0,0,1-.4-.09.52.52,0,0,1-.2-.24,2.07,2.07,0,0,1-.06-.63V60.78h-.35v-.41h.35V59.6l.47-.31v1.08H40v.41h-.48V62.6a.85.85,0,0,0,0,.29.23.23,0,0,0,.08.11.35.35,0,0,0,.16,0A.82.82,0,0,0,40,63Z" transform="translate(-2.4 -4.77)"/><path class="cls-6" d="M40.48,59.8v-.61H41v.61Zm0,3.69V60.37H41v3.12Z" transform="translate(-2.4 -4.77)"/><path class="cls-6" d="M41.68,63.49V60.37h.42v.45A1,1,0,0,1,43,60.3a1,1,0,0,1,.47.11.7.7,0,0,1,.32.26,1,1,0,0,1,.14.39,3,3,0,0,1,0,.51v1.92h-.47v-1.9a1.48,1.48,0,0,0-.06-.48.45.45,0,0,0-.2-.25.52.52,0,0,0-.33-.1.73.73,0,0,0-.52.21,1.15,1.15,0,0,0-.22.82v1.7Z" transform="translate(-2.4 -4.77)"/><path class="cls-6" d="M46.51,63.49V63a1,1,0,0,1-.88.53,1.08,1.08,0,0,1-.47-.11.78.78,0,0,1-.32-.27,1,1,0,0,1-.14-.39,2.77,2.77,0,0,1,0-.49V60.37h.47V62.1a3.35,3.35,0,0,0,0,.56.61.61,0,0,0,.19.32.56.56,0,0,0,.36.12.72.72,0,0,0,.4-.12.67.67,0,0,0,.27-.33,1.92,1.92,0,0,0,.07-.61V60.37h.48v3.12Z" transform="translate(-2.4 -4.77)"/><path class="cls-6" d="M47.51,61.93a1.69,1.69,0,0,1,.43-1.28,1.22,1.22,0,0,1,.88-.35,1.19,1.19,0,0,1,.94.42,1.69,1.69,0,0,1,.37,1.17,2.38,2.38,0,0,1-.16.94,1.26,1.26,0,0,1-.48.54,1.3,1.3,0,0,1-.67.19,1.19,1.19,0,0,1-1-.42A1.8,1.8,0,0,1,47.51,61.93Zm.48,0a1.42,1.42,0,0,0,.24.9.72.72,0,0,0,.59.29.73.73,0,0,0,.59-.3,1.5,1.5,0,0,0,.23-.91,1.43,1.43,0,0,0-.23-.87.73.73,0,0,0-.59-.3.71.71,0,0,0-.59.3A1.37,1.37,0,0,0,48,61.93Z" transform="translate(-2.4 -4.77)"/><path class="cls-6" d="M52.52,63.49V63a1,1,0,0,1-.89.53,1,1,0,0,1-.46-.11.78.78,0,0,1-.32-.27,1,1,0,0,1-.15-.39,2.77,2.77,0,0,1,0-.49V60.37h.48V62.1a3.35,3.35,0,0,0,0,.56.55.55,0,0,0,.19.32.54.54,0,0,0,.36.12.75.75,0,0,0,.4-.12.66.66,0,0,0,.26-.33,1.87,1.87,0,0,0,.08-.61V60.37H53v3.12Z" transform="translate(-2.4 -4.77)"/><path class="cls-6" d="M53.5,62.56l.47-.09a.77.77,0,0,0,.22.49.72.72,0,0,0,.5.16.7.7,0,0,0,.49-.15.46.46,0,0,0,.16-.34.32.32,0,0,0-.14-.28,1.82,1.82,0,0,0-.49-.18,3.35,3.35,0,0,1-.72-.26.73.73,0,0,1-.31-.29.87.87,0,0,1-.1-.42.92.92,0,0,1,.08-.38.89.89,0,0,1,.24-.3.84.84,0,0,1,.3-.15,1.35,1.35,0,0,1,.41-.07,1.5,1.5,0,0,1,.58.11.91.91,0,0,1,.37.28,1.48,1.48,0,0,1,.16.49l-.46.07a.66.66,0,0,0-.19-.38.61.61,0,0,0-.43-.13.7.7,0,0,0-.46.12.34.34,0,0,0-.14.28.28.28,0,0,0,.06.18.3.3,0,0,0,.18.14l.42.14a6.48,6.48,0,0,1,.7.24.77.77,0,0,1,.31.28.79.79,0,0,1,.11.45,1,1,0,0,1-.13.5,1.07,1.07,0,0,1-.4.36,1.42,1.42,0,0,1-.59.13,1.24,1.24,0,0,1-.84-.26A1.16,1.16,0,0,1,53.5,62.56Z" transform="translate(-2.4 -4.77)"/><path class="cls-6" d="M57.88,63.49V60.37h.43v.48a1.25,1.25,0,0,1,.3-.44.53.53,0,0,1,.31-.11.91.91,0,0,1,.49.17l-.17.49a.66.66,0,0,0-.35-.11.39.39,0,0,0-.27.1.52.52,0,0,0-.18.29,2,2,0,0,0-.08.62v1.63Z" transform="translate(-2.4 -4.77)"/><path class="cls-6" d="M61.52,63.49V63a1,1,0,0,1-.89.53,1.07,1.07,0,0,1-.46-.11.78.78,0,0,1-.32-.27.86.86,0,0,1-.14-.39,2.77,2.77,0,0,1,0-.49V60.37h.47V62.1a3.35,3.35,0,0,0,0,.56.54.54,0,0,0,.55.44.72.72,0,0,0,.4-.12.73.73,0,0,0,.27-.33,1.92,1.92,0,0,0,.07-.61V60.37H62v3.12Z" transform="translate(-2.4 -4.77)"/><path class="cls-6" d="M62.69,63.49V60.37h.43v.45A1,1,0,0,1,64,60.3a1,1,0,0,1,.46.11.65.65,0,0,1,.32.26,1.13,1.13,0,0,1,.15.39,3,3,0,0,1,0,.51v1.92h-.48v-1.9a1.9,1.9,0,0,0,0-.48.5.5,0,0,0-.2-.25.52.52,0,0,0-.33-.1.72.72,0,0,0-.52.21,1.15,1.15,0,0,0-.22.82v1.7Z" transform="translate(-2.4 -4.77)"/><path class="cls-6" d="M65.69,63.49V60.37h.43v.45A1,1,0,0,1,67,60.3a1,1,0,0,1,.47.11.67.67,0,0,1,.31.26.84.84,0,0,1,.15.39,3,3,0,0,1,0,.51v1.92H67.5v-1.9a1.48,1.48,0,0,0-.06-.48.45.45,0,0,0-.2-.25.52.52,0,0,0-.33-.1.73.73,0,0,0-.52.21,1.15,1.15,0,0,0-.22.82v1.7Z" transform="translate(-2.4 -4.77)"/><path class="cls-6" d="M68.7,59.8v-.61h.47v.61Zm0,3.69V60.37h.47v3.12Z" transform="translate(-2.4 -4.77)"/><path class="cls-6" d="M69.9,63.49V60.37h.42v.45a1,1,0,0,1,.89-.52,1,1,0,0,1,.47.11.7.7,0,0,1,.32.26,1.13,1.13,0,0,1,.15.39c0,.1,0,.27,0,.51v1.92H71.7v-1.9a1.48,1.48,0,0,0-.06-.48.48.48,0,0,0-.19-.25.57.57,0,0,0-.34-.1.73.73,0,0,0-.52.21,1.15,1.15,0,0,0-.22.82v1.7Z" transform="translate(-2.4 -4.77)"/><path class="cls-6" d="M72.81,63.74l.46.08a.57.57,0,0,0,.16.35.79.79,0,0,0,.49.14.84.84,0,0,0,.51-.14.79.79,0,0,0,.24-.42,4.54,4.54,0,0,0,0-.67.93.93,0,0,1-.77.41A1,1,0,0,1,73,63a1.93,1.93,0,0,1-.31-1.11,2.43,2.43,0,0,1,.14-.82,1.34,1.34,0,0,1,.42-.58,1.05,1.05,0,0,1,.65-.21,1,1,0,0,1,.82.45v-.38h.43v2.69a2.77,2.77,0,0,1-.13,1,1,1,0,0,1-.42.48,1.31,1.31,0,0,1-.71.18,1.23,1.23,0,0,1-.81-.25A.88.88,0,0,1,72.81,63.74Zm.4-1.87a1.53,1.53,0,0,0,.21.9.68.68,0,0,0,1.1,0,1.41,1.41,0,0,0,.22-.88,1.32,1.32,0,0,0-.23-.86.68.68,0,0,0-.55-.29.62.62,0,0,0-.53.29A1.34,1.34,0,0,0,73.21,61.87Z" transform="translate(-2.4 -4.77)"/><path class="cls-6" d="M77.4,63.49V60.37h.42v.48a1.13,1.13,0,0,1,.31-.44.48.48,0,0,1,.3-.11.91.91,0,0,1,.49.17l-.17.49a.65.65,0,0,0-.34-.11.4.4,0,0,0-.28.1.58.58,0,0,0-.18.29,2.39,2.39,0,0,0-.08.62v1.63Z" transform="translate(-2.4 -4.77)"/><path class="cls-6" d="M81,63.1a1.79,1.79,0,0,1-.51.35,1.31,1.31,0,0,1-.52.11,1,1,0,0,1-.71-.25.87.87,0,0,1-.25-.64.93.93,0,0,1,.09-.42,1,1,0,0,1,.25-.31,1.2,1.2,0,0,1,.34-.17,3.16,3.16,0,0,1,.42-.08,4,4,0,0,0,.85-.18v-.14a.62.62,0,0,0-.13-.45,1,1,0,0,0-1-.05.86.86,0,0,0-.24.46l-.46-.07a1.23,1.23,0,0,1,.21-.53,1,1,0,0,1,.42-.32,1.73,1.73,0,0,1,.63-.11,1.42,1.42,0,0,1,.59.1.77.77,0,0,1,.33.23.82.82,0,0,1,.14.36,2.62,2.62,0,0,1,0,.49v.7a8.38,8.38,0,0,0,0,.93,1.29,1.29,0,0,0,.12.38h-.5A1.12,1.12,0,0,1,81,63.1Zm0-1.18a2.87,2.87,0,0,1-.78.2,1.53,1.53,0,0,0-.41.11.52.52,0,0,0-.19.17.55.55,0,0,0-.07.25.45.45,0,0,0,.15.35.53.53,0,0,0,.42.14A.9.9,0,0,0,80.6,63a.81.81,0,0,0,.31-.37,1.34,1.34,0,0,0,.08-.52Z" transform="translate(-2.4 -4.77)"/><path class="cls-6" d="M82.2,63.49V60.37h.43v.45a1,1,0,0,1,.89-.52,1.08,1.08,0,0,1,.47.11.67.67,0,0,1,.31.26,1.13,1.13,0,0,1,.15.39,3,3,0,0,1,0,.51v1.92H84v-1.9a1.52,1.52,0,0,0,0-.48.45.45,0,0,0-.2-.25.52.52,0,0,0-.33-.1.72.72,0,0,0-.52.21,1.15,1.15,0,0,0-.22.82v1.7Z" transform="translate(-2.4 -4.77)"/><path class="cls-6" d="M85.12,63.74l.46.08a.52.52,0,0,0,.16.35.78.78,0,0,0,.48.14.84.84,0,0,0,.51-.14.73.73,0,0,0,.24-.42,3.16,3.16,0,0,0,0-.67,1,1,0,0,1-.78.41,1,1,0,0,1-.89-.47A1.93,1.93,0,0,1,85,61.91a2.21,2.21,0,0,1,.15-.82,1.34,1.34,0,0,1,.42-.58,1,1,0,0,1,.65-.21,1,1,0,0,1,.81.45v-.38h.44v2.69a2.77,2.77,0,0,1-.13,1,1,1,0,0,1-.42.48,1.34,1.34,0,0,1-.71.18,1.21,1.21,0,0,1-.81-.25A.88.88,0,0,1,85.12,63.74Zm.39-1.87a1.45,1.45,0,0,0,.22.9.68.68,0,0,0,1.1,0,1.48,1.48,0,0,0,.22-.88,1.38,1.38,0,0,0-.23-.86.68.68,0,0,0-.55-.29.65.65,0,0,0-.54.29A1.34,1.34,0,0,0,85.51,61.87Z" transform="translate(-2.4 -4.77)"/><path class="cls-6" d="M90.12,62.48l.5.07a1.33,1.33,0,0,1-.43.74,1.34,1.34,0,0,1-1.78-.15A1.77,1.77,0,0,1,88.05,62a1.85,1.85,0,0,1,.36-1.22,1.2,1.2,0,0,1,1-.44,1.17,1.17,0,0,1,.92.43,1.83,1.83,0,0,1,.35,1.19v.14H88.54a1.32,1.32,0,0,0,.26.79.75.75,0,0,0,.59.27.67.67,0,0,0,.44-.15A.93.93,0,0,0,90.12,62.48Zm-1.55-.85h1.56A1.11,1.11,0,0,0,90,61a.71.71,0,0,0-.59-.3.74.74,0,0,0-.55.24A1,1,0,0,0,88.57,61.63Z" transform="translate(-2.4 -4.77)"/></g></svg>