<svg xmlns="http://www.w3.org/2000/svg" xmlns:xlink="http://www.w3.org/1999/xlink" viewBox="0 0 97.5 89.88"><defs><style>.cls-1,.cls-2,.cls-4{fill:none;}.cls-1,.cls-4{stroke:#231815;}.cls-1{stroke-width:0.4px;}.cls-2{stroke:#b5b5b6;stroke-width:3px;}.cls-3{clip-path:url(#clip-path);}.cls-4{stroke-linejoin:round;stroke-dasharray:3.1 1.5;}.cls-5{fill:#231815;}</style><clipPath id="clip-path" transform="translate(-2.4 -4.9)"><rect class="cls-1" x="27.7" y="5.1" width="70.54" height="75"/></clipPath></defs><g id="illust"><line class="cls-2" x1="25.3" y1="50.82" x2="95.84" y2="50.82"/><line class="cls-1" x1="48.97" y1="61.03" x2="48.97" y2="75.29"/><line class="cls-1" x1="48.97" y1="35.1" x2="48.97" y2="52.77"/><g class="cls-3"><polyline class="cls-2" points="25.3 13.18 72.81 13.23 95.92 50.83"/></g><rect class="cls-1" x="25.3" y="0.2" width="70.54" height="75"/><line class="cls-1" x1="68.85" y1="26.47" x2="95.71" y2="26.47"/><line class="cls-1" x1="25.35" y1="26.47" x2="28.35" y2="26.47"/><line class="cls-1" x1="48.97" y1="0.35" x2="48.97" y2="20.85"/><line class="cls-1" x1="25.3" y1="50.82" x2="95.84" y2="50.82"/><line class="cls-1" x1="72.77" y1="60.94" x2="72.77" y2="75.2"/><line class="cls-1" x1="72.77" y1="0.2" x2="72.77" y2="52.77"/><line class="cls-4" x1="25.3" y1="13.15" x2="61.98" y2="13.15"/><line class="cls-4" x1="62.31" y1="13.15" x2="95.51" y2="61.54"/><line class="cls-4" x1="25.3" y1="50.82" x2="88.11" y2="50.82"/></g><g id="japanese"><path class="cls-5" d="M17.67,33.48v-1H15.81V32l2-2.79h.43V32h.58v.48H18.2v1Zm0-1.51V30L16.33,32Z" transform="translate(-2.4 -4.9)"/><path class="cls-5" d="M20.13,31.15a1.07,1.07,0,0,1-.49-.34,1,1,0,0,1-.15-.54,1.07,1.07,0,0,1,.33-.79,1.29,1.29,0,0,1,.9-.32,1.23,1.23,0,0,1,.9.33,1.06,1.06,0,0,1,.35.8.91.91,0,0,1-.16.52,1,1,0,0,1-.48.34,1.13,1.13,0,0,1,.61.41,1.22,1.22,0,0,1,.2.69,1.24,1.24,0,0,1-.39.93,1.41,1.41,0,0,1-1,.37,1.38,1.38,0,0,1-1-.38,1.24,1.24,0,0,1-.39-.94,1,1,0,0,1,.82-1.08Zm-.28,1.09a1,1,0,0,0,.11.43.78.78,0,0,0,.32.33.89.89,0,0,0,.45.12.84.84,0,0,0,.63-.25.91.91,0,0,0,0-1.24.92.92,0,0,0-1.25,0A.87.87,0,0,0,19.85,32.24Zm.17-2a.67.67,0,0,0,.2.5.69.69,0,0,0,.51.2.69.69,0,0,0,.5-.2.61.61,0,0,0,.19-.47.62.62,0,0,0-.2-.48.65.65,0,0,0-.5-.2.69.69,0,0,0-.5.19A.63.63,0,0,0,20,30.25Z" transform="translate(-2.4 -4.9)"/><path class="cls-5" d="M22.66,31.36a4.12,4.12,0,0,1,.15-1.23,1.48,1.48,0,0,1,.47-.71,1.17,1.17,0,0,1,.78-.26,1.27,1.27,0,0,1,.6.14,1.13,1.13,0,0,1,.43.41,2,2,0,0,1,.27.63,4.54,4.54,0,0,1,.1,1,4.05,4.05,0,0,1-.16,1.22,1.55,1.55,0,0,1-.46.72,1.2,1.2,0,0,1-.78.25,1.18,1.18,0,0,1-1-.45A2.81,2.81,0,0,1,22.66,31.36Zm.54,0a2.81,2.81,0,0,0,.24,1.41.72.72,0,0,0,1.23,0,2.81,2.81,0,0,0,.24-1.41A2.75,2.75,0,0,0,24.67,30a.75.75,0,0,0-.62-.35.66.66,0,0,0-.58.31A2.73,2.73,0,0,0,23.2,31.36Z" transform="translate(-2.4 -4.9)"/><path class="cls-5" d="M18.59,17l-.52,0a1,1,0,0,0-.2-.45.7.7,0,0,0-.53-.23.74.74,0,0,0-.44.14,1.14,1.14,0,0,0-.39.53,2.66,2.66,0,0,0-.15,1,1.11,1.11,0,0,1,.46-.43,1.22,1.22,0,0,1,.58-.15,1.2,1.2,0,0,1,.9.39,1.4,1.4,0,0,1,.37,1,1.6,1.6,0,0,1-.18.75,1.22,1.22,0,0,1-.47.53,1.38,1.38,0,0,1-.7.18,1.35,1.35,0,0,1-1.07-.48,2.43,2.43,0,0,1-.42-1.6,2.91,2.91,0,0,1,.46-1.81A1.32,1.32,0,0,1,17.37,16a1.19,1.19,0,0,1,.83.28A1.18,1.18,0,0,1,18.59,17Zm-2.15,1.85a1.2,1.2,0,0,0,.12.52.8.8,0,0,0,.32.38.78.78,0,0,0,.44.13.74.74,0,0,0,.57-.27,1.05,1.05,0,0,0,.24-.73,1,1,0,0,0-.24-.7.78.78,0,0,0-.6-.26.81.81,0,0,0-.6.26A.9.9,0,0,0,16.44,18.89Z" transform="translate(-2.4 -4.9)"/><path class="cls-5" d="M19.19,18.16a4,4,0,0,1,.16-1.22,1.49,1.49,0,0,1,.47-.72,1.15,1.15,0,0,1,.77-.25,1.2,1.2,0,0,1,.61.14,1.1,1.1,0,0,1,.43.4,2.37,2.37,0,0,1,.27.64,4.53,4.53,0,0,1,.09,1,4,4,0,0,1-.15,1.22,1.49,1.49,0,0,1-.47.72,1.31,1.31,0,0,1-1.75-.19A2.79,2.79,0,0,1,19.19,18.16Zm.55,0A2.75,2.75,0,0,0,20,19.57a.75.75,0,0,0,.61.35.72.72,0,0,0,.61-.35,2.65,2.65,0,0,0,.25-1.41,2.68,2.68,0,0,0-.25-1.41.73.73,0,0,0-.61-.35.69.69,0,0,0-.58.31A2.75,2.75,0,0,0,19.74,18.16Z" transform="translate(-2.4 -4.9)"/><path class="cls-5" d="M22.53,18.16a3.72,3.72,0,0,1,.16-1.22,1.55,1.55,0,0,1,.46-.72,1.2,1.2,0,0,1,.78-.25,1.22,1.22,0,0,1,.61.14,1.17,1.17,0,0,1,.43.4,2.09,2.09,0,0,1,.26.64,3.93,3.93,0,0,1,.1,1,4,4,0,0,1-.15,1.22,1.56,1.56,0,0,1-.47.72A1.31,1.31,0,0,1,23,19.91,2.79,2.79,0,0,1,22.53,18.16Zm.54,0a2.63,2.63,0,0,0,.25,1.41.71.71,0,0,0,1.22,0,2.65,2.65,0,0,0,.25-1.41,2.68,2.68,0,0,0-.25-1.41.74.74,0,0,0-.62-.35.7.7,0,0,0-.58.31A2.75,2.75,0,0,0,23.07,18.16Z" transform="translate(-2.4 -4.9)"/><path class="cls-5" d="M18.63,57.09v.51H15.79a1,1,0,0,1,.06-.36,1.87,1.87,0,0,1,.35-.58,6.56,6.56,0,0,1,.69-.65,5.49,5.49,0,0,0,.94-.91,1,1,0,0,0,.25-.63.69.69,0,0,0-.22-.53.94.94,0,0,0-1.2,0,.9.9,0,0,0-.23.64l-.54-.06a1.35,1.35,0,0,1,.42-.92,1.44,1.44,0,0,1,1-.32,1.34,1.34,0,0,1,1,.34,1.13,1.13,0,0,1,.36.85,1.32,1.32,0,0,1-.1.51,2.06,2.06,0,0,1-.35.52,8.57,8.57,0,0,1-.82.76,8,8,0,0,0-.61.54,1.79,1.79,0,0,0-.22.28Z" transform="translate(-2.4 -4.9)"/><path class="cls-5" d="M20.88,57.6v-1H19v-.48l2-2.78h.43v2.78H22v.48h-.58v1Zm0-1.51V54.15l-1.34,1.94Z" transform="translate(-2.4 -4.9)"/><path class="cls-5" d="M22.53,55.48a3.76,3.76,0,0,1,.16-1.22,1.55,1.55,0,0,1,.46-.72,1.2,1.2,0,0,1,.78-.25,1.34,1.34,0,0,1,.61.14,1.26,1.26,0,0,1,.43.4,2.09,2.09,0,0,1,.26.64,3.93,3.93,0,0,1,.1,1,4,4,0,0,1-.15,1.22,1.56,1.56,0,0,1-.47.72A1.31,1.31,0,0,1,23,57.23,2.79,2.79,0,0,1,22.53,55.48Zm.54,0a2.63,2.63,0,0,0,.25,1.41.71.71,0,0,0,1.22,0,2.63,2.63,0,0,0,.25-1.41,2.68,2.68,0,0,0-.25-1.41.73.73,0,0,0-.62-.34.69.69,0,0,0-.58.3A2.75,2.75,0,0,0,23.07,55.48Z" transform="translate(-2.4 -4.9)"/><path class="cls-5" d="M22.53,80.39a3.76,3.76,0,0,1,.16-1.22,1.55,1.55,0,0,1,.46-.72,1.2,1.2,0,0,1,.78-.25,1.34,1.34,0,0,1,.61.14,1.26,1.26,0,0,1,.43.4,2.2,2.2,0,0,1,.26.64,3.93,3.93,0,0,1,.1,1,4,4,0,0,1-.15,1.22,1.56,1.56,0,0,1-.47.72A1.31,1.31,0,0,1,23,82.14,2.79,2.79,0,0,1,22.53,80.39Zm.54,0a2.63,2.63,0,0,0,.25,1.41.71.71,0,0,0,.61.35.73.73,0,0,0,.61-.35,2.63,2.63,0,0,0,.25-1.41A2.68,2.68,0,0,0,24.54,79a.73.73,0,0,0-.62-.34.69.69,0,0,0-.58.3A2.78,2.78,0,0,0,23.07,80.39Z" transform="translate(-2.4 -4.9)"/><path d="M51.82,86h-.53V82.59a2.4,2.4,0,0,1-.5.36,3.44,3.44,0,0,1-.55.27v-.51a2.92,2.92,0,0,0,.77-.5,2.07,2.07,0,0,0,.47-.57h.34Z" transform="translate(-2.4 -4.9)"/><path d="M97.09,84.82l.53-.07a1.2,1.2,0,0,0,.31.64.78.78,0,0,0,.53.2.89.89,0,0,0,.89-.9.81.81,0,0,0-.24-.6.85.85,0,0,0-.6-.23,1.54,1.54,0,0,0-.38.06l.06-.47h.09a1,1,0,0,0,.6-.18.58.58,0,0,0,.27-.54.65.65,0,0,0-.19-.48.69.69,0,0,0-.51-.19.72.72,0,0,0-.51.19,1,1,0,0,0-.27.58l-.52-.09a1.32,1.32,0,0,1,.44-.82,1.24,1.24,0,0,1,.85-.29,1.44,1.44,0,0,1,.65.15,1.12,1.12,0,0,1,.45.41,1.1,1.1,0,0,1,.16.55.9.9,0,0,1-.15.51,1,1,0,0,1-.45.36,1,1,0,0,1,.6.37,1.09,1.09,0,0,1,.21.69,1.26,1.26,0,0,1-.41.95,1.47,1.47,0,0,1-1,.4,1.37,1.37,0,0,1-.94-.34A1.35,1.35,0,0,1,97.09,84.82Z" transform="translate(-2.4 -4.9)"/><path d="M76.71,85.44V86H73.87a1.15,1.15,0,0,1,.06-.37,2.2,2.2,0,0,1,.35-.57,5.66,5.66,0,0,1,.69-.65,5.64,5.64,0,0,0,1-.91,1.08,1.08,0,0,0,.24-.63.69.69,0,0,0-.22-.53.8.8,0,0,0-.59-.22.81.81,0,0,0-.6.23.88.88,0,0,0-.24.63L74,82.88a1.33,1.33,0,0,1,.42-.92,1.4,1.4,0,0,1,1-.32,1.34,1.34,0,0,1,1,.34,1.13,1.13,0,0,1,.37.85,1.34,1.34,0,0,1-.11.51,2.06,2.06,0,0,1-.35.52,8.25,8.25,0,0,1-.81.76,6.34,6.34,0,0,0-.61.54,1.89,1.89,0,0,0-.23.28Z" transform="translate(-2.4 -4.9)"/><path d="M45.51,92.21l.54,0a1.08,1.08,0,0,0,.18.53.87.87,0,0,0,.43.33,1.53,1.53,0,0,0,.66.13,1.45,1.45,0,0,0,.57-.1.75.75,0,0,0,.37-.26.65.65,0,0,0,.12-.37.58.58,0,0,0-.11-.35.92.92,0,0,0-.39-.26l-.76-.21a3.16,3.16,0,0,1-.83-.27,1.07,1.07,0,0,1-.46-.4.94.94,0,0,1-.15-.53,1.1,1.1,0,0,1,.72-1,2.22,2.22,0,0,1,.79-.14,2.17,2.17,0,0,1,.84.15,1.2,1.2,0,0,1,.56.45,1.33,1.33,0,0,1,.21.68l-.54,0a.85.85,0,0,0-.3-.61,1.16,1.16,0,0,0-.75-.21,1.18,1.18,0,0,0-.75.19.54.54,0,0,0-.24.45.49.49,0,0,0,.17.38,2.2,2.2,0,0,0,.86.31,6.15,6.15,0,0,1,1,.27,1.31,1.31,0,0,1,.55.44,1.07,1.07,0,0,1,.18.61,1.17,1.17,0,0,1-.19.65,1.33,1.33,0,0,1-.57.47,2,2,0,0,1-.83.17,2.51,2.51,0,0,1-1-.17,1.3,1.3,0,0,1-.62-.51A1.49,1.49,0,0,1,45.51,92.21Z" transform="translate(-2.4 -4.9)"/><path d="M49.64,94.78V90.47h.48v.41a1.17,1.17,0,0,1,.38-.36A1.08,1.08,0,0,1,51,90.4a1.24,1.24,0,0,1,.71.21,1.34,1.34,0,0,1,.46.58,2.18,2.18,0,0,1,.15.82,2.2,2.2,0,0,1-.17.86,1.34,1.34,0,0,1-1.18.79,1,1,0,0,1-.48-.12.93.93,0,0,1-.34-.28v1.52Zm.48-2.73a1.34,1.34,0,0,0,.24.88.72.72,0,0,0,.59.29.75.75,0,0,0,.6-.3A1.37,1.37,0,0,0,51.8,92a1.41,1.41,0,0,0-.24-.89.75.75,0,0,0-.59-.29.74.74,0,0,0-.59.31A1.38,1.38,0,0,0,50.12,92.05Z" transform="translate(-2.4 -4.9)"/><path d="M55.11,92.58l.54.07a1.24,1.24,0,0,1-.48.74,1.39,1.39,0,0,1-.89.27,1.43,1.43,0,0,1-1.08-.42,1.68,1.68,0,0,1-.4-1.18,1.71,1.71,0,0,1,.41-1.22,1.37,1.37,0,0,1,1-.44,1.3,1.3,0,0,1,1,.43,1.65,1.65,0,0,1,.4,1.19v.14H53.35a1.16,1.16,0,0,0,.29.79.86.86,0,0,0,.65.27.79.79,0,0,0,.49-.15A1,1,0,0,0,55.11,92.58Zm-1.73-.85h1.73a1,1,0,0,0-.2-.59.79.79,0,0,0-.65-.3.84.84,0,0,0-.61.24A.9.9,0,0,0,53.38,91.73Z" transform="translate(-2.4 -4.9)"/><path d="M58.44,92.58l.55.07a1.34,1.34,0,0,1-.48.74,1.41,1.41,0,0,1-.89.27,1.43,1.43,0,0,1-1.08-.42,1.64,1.64,0,0,1-.4-1.18,1.71,1.71,0,0,1,.4-1.22,1.37,1.37,0,0,1,1.05-.44,1.3,1.3,0,0,1,1,.43A1.65,1.65,0,0,1,59,92a.82.82,0,0,1,0,.14H56.68A1.21,1.21,0,0,0,57,93a.88.88,0,0,0,.65.27.82.82,0,0,0,.5-.15A1,1,0,0,0,58.44,92.58Zm-1.73-.85h1.74a1,1,0,0,0-.2-.59.81.81,0,0,0-.65-.3.84.84,0,0,0-.61.24A1,1,0,0,0,56.71,91.73Z" transform="translate(-2.4 -4.9)"/><path d="M61.67,93.58v-.39a1,1,0,0,1-.87.47,1.16,1.16,0,0,1-.68-.21,1.44,1.44,0,0,1-.49-.57,2.25,2.25,0,0,1,0-1.69,1.18,1.18,0,0,1,.46-.58,1.23,1.23,0,0,1,.7-.21,1,1,0,0,1,.85.43V89.29h.53v4.29ZM60,92a1.42,1.42,0,0,0,.25.9.79.79,0,0,0,.6.29.74.74,0,0,0,.59-.28,1.32,1.32,0,0,0,.24-.86,1.43,1.43,0,0,0-.25-.94.75.75,0,0,0-1.19,0A1.38,1.38,0,0,0,60,92Z" transform="translate(-2.4 -4.9)"/><path d="M64.67,94.78V89.29h1.16v.44h-.64v4.61h.64v.44Z" transform="translate(-2.4 -4.9)"/><path d="M66.32,93.58V90.47h.47v.44a1.26,1.26,0,0,1,.39-.37,1.16,1.16,0,0,1,.56-.14,1,1,0,0,1,.56.15.75.75,0,0,1,.32.4,1.09,1.09,0,0,1,1-.55,1,1,0,0,1,.71.26,1.07,1.07,0,0,1,.25.79v2.13H70v-2a1.25,1.25,0,0,0-.05-.45.39.39,0,0,0-.18-.22.57.57,0,0,0-.32-.09.7.7,0,0,0-.54.22.93.93,0,0,0-.22.7v1.8h-.53v-2A.83.83,0,0,0,68,91a.47.47,0,0,0-.42-.18.73.73,0,0,0-.41.12.67.67,0,0,0-.28.34,2.15,2.15,0,0,0-.08.65v1.61Z" transform="translate(-2.4 -4.9)"/><path d="M70.92,93.66l1.25-4.44h.42l-1.24,4.44Z" transform="translate(-2.4 -4.9)"/><path d="M72.78,92.66l.52-.09a.74.74,0,0,0,.24.48.82.82,0,0,0,.56.17.79.79,0,0,0,.54-.15.42.42,0,0,0,.18-.34.3.3,0,0,0-.16-.28,2,2,0,0,0-.54-.18,5.32,5.32,0,0,1-.8-.26.81.81,0,0,1-.34-.29.79.79,0,0,1-.12-.42.8.8,0,0,1,.1-.38.83.83,0,0,1,.26-.3,1,1,0,0,1,.33-.15A1.43,1.43,0,0,1,74,90.4a1.79,1.79,0,0,1,.64.11.85.85,0,0,1,.41.28,1.14,1.14,0,0,1,.18.49l-.51.07a.58.58,0,0,0-.21-.38.73.73,0,0,0-.47-.13.87.87,0,0,0-.52.12.36.36,0,0,0-.16.28.29.29,0,0,0,.07.18.38.38,0,0,0,.2.14l.47.14a8,8,0,0,1,.78.24.86.86,0,0,1,.34.28.73.73,0,0,1,.13.45.91.91,0,0,1-.15.5,1.09,1.09,0,0,1-.45.36,1.67,1.67,0,0,1-.65.13,1.45,1.45,0,0,1-.93-.26A1.1,1.1,0,0,1,72.78,92.66Z" transform="translate(-2.4 -4.9)"/><path d="M76.87,94.78H75.71v-.44h.63V89.73h-.63v-.44h1.16Z" transform="translate(-2.4 -4.9)"/><path d="M6.7,55.71H2.91v1.42H2.4v-3.4h.51v1.42H6.7Z" transform="translate(-2.4 -4.9)"/><path d="M6.7,53.21H2.4v-.53H3.94a1.17,1.17,0,0,1-.42-.93,1.26,1.26,0,0,1,.13-.6A.78.78,0,0,1,4,50.79a1.62,1.62,0,0,1,.7-.11h2v.52h-2a.79.79,0,0,0-.58.18.62.62,0,0,0-.18.48.86.86,0,0,0,.12.44.68.68,0,0,0,.33.3,1.75,1.75,0,0,0,.58.08H6.7Z" transform="translate(-2.4 -4.9)"/><path d="M6.7,49.88H3.59V49.4h.47a1.33,1.33,0,0,1-.44-.33.59.59,0,0,1-.1-.34,1,1,0,0,1,.17-.54l.48.18a.82.82,0,0,0-.11.39.57.57,0,0,0,.1.31.53.53,0,0,0,.29.19,2.06,2.06,0,0,0,.62.09H6.7Z" transform="translate(-2.4 -4.9)"/><path d="M6.7,45.84H6.24a1.14,1.14,0,0,1,.53,1,1.27,1.27,0,0,1-.11.52.82.82,0,0,1-.26.35,1,1,0,0,1-.39.16,2.07,2.07,0,0,1-.5,0H3.59v-.53H5.31a3.35,3.35,0,0,0,.56,0,.57.57,0,0,0,.32-.21.65.65,0,0,0,.12-.4.89.89,0,0,0-.12-.45A.66.66,0,0,0,5.86,46a1.6,1.6,0,0,0-.61-.09H3.59v-.53H6.7Z" transform="translate(-2.4 -4.9)"/><path d="M5.77,44.75l-.08-.52A.7.7,0,0,0,6.17,44a.85.85,0,0,0,.16-.56.89.89,0,0,0-.14-.54.47.47,0,0,0-.35-.17.32.32,0,0,0-.28.15,2.12,2.12,0,0,0-.18.54,5.44,5.44,0,0,1-.25.81.83.83,0,0,1-.3.34.88.88,0,0,1-.42.11A.82.82,0,0,1,4,44.57a.94.94,0,0,1-.3-.26A1.08,1.08,0,0,1,3.58,44a1.63,1.63,0,0,1-.06-.45,1.85,1.85,0,0,1,.1-.65.92.92,0,0,1,.29-.41,1.34,1.34,0,0,1,.48-.18l.07.52a.57.57,0,0,0-.38.2.74.74,0,0,0-.13.48.89.89,0,0,0,.12.52.35.35,0,0,0,.28.15.33.33,0,0,0,.19-.06.64.64,0,0,0,.14-.2c0-.06.06-.21.13-.47a5.57,5.57,0,0,1,.25-.78.71.71,0,0,1,.72-.47.91.91,0,0,1,.5.15.93.93,0,0,1,.36.44,1.59,1.59,0,0,1,.13.66,1.5,1.5,0,0,1-.25.92A1.16,1.16,0,0,1,5.77,44.75Z" transform="translate(-2.4 -4.9)"/><path d="M6.23,40.39l.46-.08a2.08,2.08,0,0,1,0,.4.88.88,0,0,1-.09.44.53.53,0,0,1-.24.23,2,2,0,0,1-.62.06H4v.39H3.59v-.39H2.82l-.32-.52H3.59v-.53H4v.53H5.82a.89.89,0,0,0,.29,0,.28.28,0,0,0,.1-.09.4.4,0,0,0,0-.18C6.25,40.56,6.24,40.48,6.23,40.39Z" transform="translate(-2.4 -4.9)"/><path d="M7.89,38.19H2.4V37h.44v.64H7.45V37h.44Z" transform="translate(-2.4 -4.9)"/><path d="M6.7,36.48H2.4v-.59l3.37-2.25H2.4v-.55H6.7v.59L3.32,35.93H6.7Z" transform="translate(-2.4 -4.9)"/><path d="M7.89,31.32v1.17H7.45v-.64H2.84v.64H2.4V31.32Z" transform="translate(-2.4 -4.9)"/><path class="cls-5" d="M31.92,62l.51.14a1.94,1.94,0,0,1-.58,1.07,1.47,1.47,0,0,1-1,.37,1.78,1.78,0,0,1-1-.28,1.74,1.74,0,0,1-.59-.82A3.13,3.13,0,0,1,29,61.31a2.66,2.66,0,0,1,.24-1.17,1.63,1.63,0,0,1,.65-.76,1.73,1.73,0,0,1,.94-.26,1.44,1.44,0,0,1,1,.33,1.68,1.68,0,0,1,.56.92l-.51.13a1.35,1.35,0,0,0-.39-.68.92.92,0,0,0-.64-.22,1.16,1.16,0,0,0-.75.24,1.25,1.25,0,0,0-.42.64,2.86,2.86,0,0,0-.12.82,2.76,2.76,0,0,0,.15,1,1.13,1.13,0,0,0,.44.61,1.19,1.19,0,0,0,.66.2,1,1,0,0,0,.73-.27A1.48,1.48,0,0,0,31.92,62Z" transform="translate(-2.4 -4.9)"/><path class="cls-5" d="M32.82,61.93a1.7,1.7,0,0,1,.44-1.28,1.22,1.22,0,0,1,.88-.35,1.19,1.19,0,0,1,.94.42,1.69,1.69,0,0,1,.37,1.17,2.38,2.38,0,0,1-.16.94,1.26,1.26,0,0,1-.48.54,1.3,1.3,0,0,1-.67.19,1.19,1.19,0,0,1-1-.42A1.8,1.8,0,0,1,32.82,61.93Zm.49,0a1.42,1.42,0,0,0,.24.9.72.72,0,0,0,.59.29.73.73,0,0,0,.59-.3,1.5,1.5,0,0,0,.23-.91,1.37,1.37,0,0,0-.24-.87.72.72,0,0,0-1.17,0A1.37,1.37,0,0,0,33.31,61.93Z" transform="translate(-2.4 -4.9)"/><path class="cls-5" d="M36,63.49V60.37h.43v.45a1,1,0,0,1,.89-.52,1,1,0,0,1,.47.11.7.7,0,0,1,.32.26,1,1,0,0,1,.14.39,3,3,0,0,1,0,.51v1.92h-.47v-1.9a1.48,1.48,0,0,0-.06-.48.45.45,0,0,0-.2-.25.52.52,0,0,0-.33-.1.73.73,0,0,0-.52.21,1.15,1.15,0,0,0-.22.82v1.7Z" transform="translate(-2.4 -4.9)"/><path class="cls-5" d="M40,63l.07.47a1.63,1.63,0,0,1-.36.05.76.76,0,0,1-.4-.09.52.52,0,0,1-.2-.24,2.18,2.18,0,0,1,0-.63V60.78h-.35v-.41h.35V59.6l.47-.31v1.08H40v.41h-.47V62.6a1.48,1.48,0,0,0,0,.29.31.31,0,0,0,.08.11.4.4,0,0,0,.17,0A.79.79,0,0,0,40,63Z" transform="translate(-2.4 -4.9)"/><path class="cls-5" d="M40.51,59.8v-.61H41v.61Zm0,3.69V60.37H41v3.12Z" transform="translate(-2.4 -4.9)"/><path class="cls-5" d="M41.71,63.49V60.37h.43v.45A1,1,0,0,1,43,60.3a1,1,0,0,1,.46.11.7.7,0,0,1,.32.26,1.13,1.13,0,0,1,.15.39,3.27,3.27,0,0,1,0,.51v1.92h-.47v-1.9a1.48,1.48,0,0,0-.06-.48.44.44,0,0,0-.19-.25.56.56,0,0,0-.33-.1.74.74,0,0,0-.53.21,1.2,1.2,0,0,0-.22.82v1.7Z" transform="translate(-2.4 -4.9)"/><path class="cls-5" d="M46.55,63.49V63a1,1,0,0,1-1.35.42.72.72,0,0,1-.32-.27,1,1,0,0,1-.15-.39,2.77,2.77,0,0,1,0-.49V60.37h.48V62.1a3.35,3.35,0,0,0,0,.56.51.51,0,0,0,.19.32.51.51,0,0,0,.35.12.7.7,0,0,0,.4-.12.63.63,0,0,0,.27-.33A1.87,1.87,0,0,0,46.5,62V60.37H47v3.12Z" transform="translate(-2.4 -4.9)"/><path class="cls-5" d="M47.54,61.93A1.69,1.69,0,0,1,48,60.65a1.24,1.24,0,0,1,.88-.35,1.21,1.21,0,0,1,.95.42,1.74,1.74,0,0,1,.36,1.17,2.21,2.21,0,0,1-.16.94,1.3,1.3,0,0,1-.47.54,1.34,1.34,0,0,1-.68.19,1.19,1.19,0,0,1-1-.42A1.8,1.8,0,0,1,47.54,61.93Zm.49,0a1.42,1.42,0,0,0,.23.9.74.74,0,0,0,.59.29.72.72,0,0,0,.59-.3,1.44,1.44,0,0,0,.23-.91,1.37,1.37,0,0,0-.23-.87.73.73,0,0,0-1.18,0A1.37,1.37,0,0,0,48,61.93Z" transform="translate(-2.4 -4.9)"/><path class="cls-5" d="M52.55,63.49V63a1,1,0,0,1-.88.53,1.08,1.08,0,0,1-.47-.11.78.78,0,0,1-.32-.27,1,1,0,0,1-.14-.39,2.77,2.77,0,0,1,0-.49V60.37h.47V62.1a3.35,3.35,0,0,0,0,.56.61.61,0,0,0,.19.32.56.56,0,0,0,.36.12.72.72,0,0,0,.4-.12.67.67,0,0,0,.27-.33A1.92,1.92,0,0,0,52.5,62V60.37H53v3.12Z" transform="translate(-2.4 -4.9)"/><path class="cls-5" d="M53.53,62.56l.47-.09a.83.83,0,0,0,.22.49.73.73,0,0,0,.51.16.67.67,0,0,0,.48-.15.43.43,0,0,0,.16-.34.32.32,0,0,0-.14-.28,1.7,1.7,0,0,0-.48-.18,3.74,3.74,0,0,1-.73-.26.76.76,0,0,1-.3-.29.88.88,0,0,1-.11-.42.79.79,0,0,1,.09-.38.76.76,0,0,1,.23-.3.84.84,0,0,1,.3-.15,1.41,1.41,0,0,1,.41-.07,1.46,1.46,0,0,1,.58.11.84.84,0,0,1,.37.28,1.28,1.28,0,0,1,.16.49l-.46.07a.56.56,0,0,0-.19-.38.6.6,0,0,0-.42-.13.72.72,0,0,0-.47.12.37.37,0,0,0-.14.28.28.28,0,0,0,.06.18.37.37,0,0,0,.18.14l.42.14a6.48,6.48,0,0,1,.7.24.77.77,0,0,1,.31.28.79.79,0,0,1,.12.45.95.95,0,0,1-.54.86,1.38,1.38,0,0,1-.59.13,1.21,1.21,0,0,1-.83-.26A1.16,1.16,0,0,1,53.53,62.56Z" transform="translate(-2.4 -4.9)"/><path class="cls-5" d="M57.92,63.49V60.37h.42v.48a1.13,1.13,0,0,1,.31-.44.48.48,0,0,1,.3-.11.91.91,0,0,1,.49.17l-.16.49a.71.71,0,0,0-.35-.11.4.4,0,0,0-.28.1.65.65,0,0,0-.18.29,2.39,2.39,0,0,0-.08.62v1.63Z" transform="translate(-2.4 -4.9)"/><path class="cls-5" d="M61.56,63.49V63a1,1,0,0,1-1.35.42.72.72,0,0,1-.32-.27,1,1,0,0,1-.15-.39,2.77,2.77,0,0,1,0-.49V60.37h.48V62.1c0,.28,0,.46,0,.56a.61.61,0,0,0,.19.32.56.56,0,0,0,.36.12.7.7,0,0,0,.4-.12.63.63,0,0,0,.27-.33,1.87,1.87,0,0,0,.08-.61V60.37H62v3.12Z" transform="translate(-2.4 -4.9)"/><path class="cls-5" d="M62.72,63.49V60.37h.43v.45A1,1,0,0,1,64,60.3a1,1,0,0,1,.47.11.75.75,0,0,1,.32.26,1,1,0,0,1,.14.39,3,3,0,0,1,0,.51v1.92h-.47v-1.9a1.48,1.48,0,0,0-.06-.48.45.45,0,0,0-.2-.25.52.52,0,0,0-.33-.1.73.73,0,0,0-.52.21,1.15,1.15,0,0,0-.22.82v1.7Z" transform="translate(-2.4 -4.9)"/><path class="cls-5" d="M65.73,63.49V60.37h.42v.45A1,1,0,0,1,67,60.3a1,1,0,0,1,.47.11.7.7,0,0,1,.32.26,1.13,1.13,0,0,1,.15.39c0,.1,0,.27,0,.51v1.92h-.47v-1.9a1.48,1.48,0,0,0-.06-.48.44.44,0,0,0-.19-.25.56.56,0,0,0-.33-.1.74.74,0,0,0-.53.21,1.2,1.2,0,0,0-.22.82v1.7Z" transform="translate(-2.4 -4.9)"/><path class="cls-5" d="M68.73,59.8v-.61h.48v.61Zm0,3.69V60.37h.48v3.12Z" transform="translate(-2.4 -4.9)"/><path class="cls-5" d="M69.93,63.49V60.37h.43v.45a1,1,0,0,1,.89-.52,1,1,0,0,1,.46.11.7.7,0,0,1,.32.26,1.13,1.13,0,0,1,.15.39,3,3,0,0,1,0,.51v1.92h-.48v-1.9a1.48,1.48,0,0,0-.06-.48.44.44,0,0,0-.19-.25.56.56,0,0,0-.33-.1.76.76,0,0,0-.53.21,1.2,1.2,0,0,0-.22.82v1.7Z" transform="translate(-2.4 -4.9)"/><path class="cls-5" d="M72.84,63.74l.47.08a.52.52,0,0,0,.16.35.76.76,0,0,0,.48.14.84.84,0,0,0,.51-.14.73.73,0,0,0,.24-.42,3.16,3.16,0,0,0,0-.67,1,1,0,0,1-.78.41,1,1,0,0,1-.89-.47,1.93,1.93,0,0,1-.32-1.11,2.21,2.21,0,0,1,.15-.82,1.2,1.2,0,0,1,.42-.58A1,1,0,0,1,74,60.3a1,1,0,0,1,.82.45v-.38h.44v2.69a2.72,2.72,0,0,1-.14,1,.9.9,0,0,1-.42.48,1.31,1.31,0,0,1-.71.18,1.24,1.24,0,0,1-.81-.25A.94.94,0,0,1,72.84,63.74Zm.4-1.87a1.45,1.45,0,0,0,.22.9.67.67,0,0,0,1.09,0,1.4,1.4,0,0,0,.23-.88,1.38,1.38,0,0,0-.23-.86.69.69,0,0,0-.55-.29.65.65,0,0,0-.54.29A1.34,1.34,0,0,0,73.24,61.87Z" transform="translate(-2.4 -4.9)"/><path class="cls-5" d="M77.43,63.49V60.37h.43v.48a1.25,1.25,0,0,1,.3-.44.48.48,0,0,1,.3-.11.88.88,0,0,1,.49.17l-.16.49a.68.68,0,0,0-.35-.11.42.42,0,0,0-.28.1.65.65,0,0,0-.18.29,2.39,2.39,0,0,0-.08.62v1.63Z" transform="translate(-2.4 -4.9)"/><path class="cls-5" d="M81.06,63.1a1.79,1.79,0,0,1-.51.35,1.27,1.27,0,0,1-.52.11,1,1,0,0,1-.71-.25.87.87,0,0,1-.25-.64.82.82,0,0,1,.1-.42.83.83,0,0,1,.24-.31,1.35,1.35,0,0,1,.34-.17,4,4,0,0,1,.42-.08,3.88,3.88,0,0,0,.85-.18v-.14a.62.62,0,0,0-.13-.45.73.73,0,0,0-.54-.18.77.77,0,0,0-.5.13.86.86,0,0,0-.23.46l-.47-.07a1.54,1.54,0,0,1,.21-.53,1,1,0,0,1,.42-.32,1.79,1.79,0,0,1,.64-.11,1.37,1.37,0,0,1,.58.1.77.77,0,0,1,.33.23,1,1,0,0,1,.15.36,4.72,4.72,0,0,1,0,.49v.7a8.38,8.38,0,0,0,0,.93,1.29,1.29,0,0,0,.12.38h-.49A1.12,1.12,0,0,1,81.06,63.1Zm0-1.18a2.89,2.89,0,0,1-.77.2,1.52,1.52,0,0,0-.42.11.52.52,0,0,0-.19.17.54.54,0,0,0-.06.25.48.48,0,0,0,.14.35.56.56,0,0,0,.42.14.88.88,0,0,0,.49-.13.75.75,0,0,0,.31-.37,1.18,1.18,0,0,0,.08-.52Z" transform="translate(-2.4 -4.9)"/><path class="cls-5" d="M82.24,63.49V60.37h.42v.45a1,1,0,0,1,.89-.52,1,1,0,0,1,.47.11.7.7,0,0,1,.32.26,1.13,1.13,0,0,1,.15.39c0,.1,0,.27,0,.51v1.92H84v-1.9a1.48,1.48,0,0,0-.06-.48.48.48,0,0,0-.19-.25.57.57,0,0,0-.34-.1.73.73,0,0,0-.52.21,1.15,1.15,0,0,0-.22.82v1.7Z" transform="translate(-2.4 -4.9)"/><path class="cls-5" d="M85.15,63.74l.46.08a.57.57,0,0,0,.16.35.79.79,0,0,0,.49.14.84.84,0,0,0,.51-.14.79.79,0,0,0,.24-.42,4.54,4.54,0,0,0,0-.67.94.94,0,0,1-.77.41,1,1,0,0,1-.9-.47,1.93,1.93,0,0,1-.31-1.11,2.43,2.43,0,0,1,.14-.82,1.34,1.34,0,0,1,.42-.58,1.05,1.05,0,0,1,.65-.21,1,1,0,0,1,.82.45v-.38h.43v2.69a2.77,2.77,0,0,1-.13,1,1,1,0,0,1-.42.48,1.31,1.31,0,0,1-.71.18,1.23,1.23,0,0,1-.81-.25A.88.88,0,0,1,85.15,63.74Zm.39-1.87a1.52,1.52,0,0,0,.22.9.68.68,0,0,0,1.1,0,1.41,1.41,0,0,0,.22-.88,1.32,1.32,0,0,0-.23-.86.68.68,0,0,0-.55-.29.62.62,0,0,0-.53.29A1.33,1.33,0,0,0,85.54,61.87Z" transform="translate(-2.4 -4.9)"/><path class="cls-5" d="M90.16,62.48l.49.07a1.33,1.33,0,0,1-.43.74,1.19,1.19,0,0,1-.8.27,1.23,1.23,0,0,1-1-.42A1.77,1.77,0,0,1,88.08,62a1.85,1.85,0,0,1,.37-1.22,1.21,1.21,0,0,1,1.86,0,1.78,1.78,0,0,1,.36,1.19s0,.08,0,.14H88.57a1.32,1.32,0,0,0,.26.79.76.76,0,0,0,.59.27.72.72,0,0,0,.45-.15A1,1,0,0,0,90.16,62.48Zm-1.56-.85h1.56A1.11,1.11,0,0,0,90,61a.69.69,0,0,0-.58-.3.72.72,0,0,0-.55.24A1,1,0,0,0,88.6,61.63Z" transform="translate(-2.4 -4.9)"/><path class="cls-5" d="M31.85,29.69l.54-.05a1.14,1.14,0,0,0,.17.53,1,1,0,0,0,.44.33,1.71,1.71,0,0,0,1.23,0,.8.8,0,0,0,.37-.26.63.63,0,0,0,.12-.37.55.55,0,0,0-.12-.35.82.82,0,0,0-.38-.26c-.12,0-.37-.11-.77-.2a4.7,4.7,0,0,1-.83-.27,1.3,1.3,0,0,1-.46-.4,1,1,0,0,1-.15-.54,1.15,1.15,0,0,1,.19-.61,1.1,1.1,0,0,1,.54-.42,2,2,0,0,1,.79-.15,2.24,2.24,0,0,1,.84.15,1.28,1.28,0,0,1,.56.46,1.26,1.26,0,0,1,.21.67l-.55,0a.83.83,0,0,0-.29-.61,1.51,1.51,0,0,0-1.5,0,.57.57,0,0,0-.24.45.51.51,0,0,0,.17.39,2.18,2.18,0,0,0,.86.3,6.21,6.21,0,0,1,.95.28,1.29,1.29,0,0,1,.55.43,1.07,1.07,0,0,1,.18.61,1.18,1.18,0,0,1-.2.65,1.3,1.3,0,0,1-.56.47,2,2,0,0,1-.83.17,2.57,2.57,0,0,1-1-.17,1.28,1.28,0,0,1-.61-.51A1.49,1.49,0,0,1,31.85,29.69Z" transform="translate(-2.4 -4.9)"/><path class="cls-5" d="M36,31.07v-4.3h.52v1.54a1.2,1.2,0,0,1,.94-.42A1.26,1.26,0,0,1,38,28a.78.78,0,0,1,.36.38,1.62,1.62,0,0,1,.11.7v2H38v-2a.79.79,0,0,0-.17-.58.62.62,0,0,0-.48-.18.83.83,0,0,0-.44.12.68.68,0,0,0-.3.33,1.5,1.5,0,0,0-.09.58v1.7Z" transform="translate(-2.4 -4.9)"/><path class="cls-5" d="M39.12,29.51a1.62,1.62,0,0,1,.48-1.28,1.44,1.44,0,0,1,1-.34,1.42,1.42,0,0,1,1.05.42,1.59,1.59,0,0,1,.4,1.16,2,2,0,0,1-.18.94,1.29,1.29,0,0,1-.52.54,1.61,1.61,0,0,1-.75.19,1.4,1.4,0,0,1-1.06-.42A1.67,1.67,0,0,1,39.12,29.51Zm.54,0a1.36,1.36,0,0,0,.26.9.88.88,0,0,0,1.31,0,1.4,1.4,0,0,0,.26-.92,1.31,1.31,0,0,0-.26-.87.83.83,0,0,0-.65-.3.83.83,0,0,0-.66.3A1.33,1.33,0,0,0,39.66,29.51Z" transform="translate(-2.4 -4.9)"/><path class="cls-5" d="M42.65,31.07V28h.47v.47a1.21,1.21,0,0,1,.34-.44.56.56,0,0,1,.33-.1,1,1,0,0,1,.55.17l-.19.48a.76.76,0,0,0-.38-.11.55.55,0,0,0-.31.1.61.61,0,0,0-.2.29,2.06,2.06,0,0,0-.09.62v1.63Z" transform="translate(-2.4 -4.9)"/><path class="cls-5" d="M45.8,30.6l.08.46a2.08,2.08,0,0,1-.4.05A1,1,0,0,1,45,31a.51.51,0,0,1-.22-.24,2,2,0,0,1-.06-.62V28.37h-.39V28h.39v-.77l.52-.32V28h.53v.41h-.53v1.82a.89.89,0,0,0,0,.29.28.28,0,0,0,.09.1.4.4,0,0,0,.18,0Z" transform="translate(-2.4 -4.9)"/><path class="cls-5" d="M46.11,29.78v-.53h1.62v.53Z" transform="translate(-2.4 -4.9)"/><path class="cls-5" d="M50.33,31.07v-.4a1,1,0,0,1-.87.47,1.19,1.19,0,0,1-.68-.21,1.28,1.28,0,0,1-.48-.57,1.93,1.93,0,0,1-.18-.85,2.24,2.24,0,0,1,.16-.84,1.18,1.18,0,0,1,.47-.58,1.17,1.17,0,0,1,.69-.2,1.15,1.15,0,0,1,.5.11,1.1,1.1,0,0,1,.36.31V26.77h.52v4.3Zm-1.66-1.56a1.36,1.36,0,0,0,.25.9.75.75,0,0,0,1.18,0,1.3,1.3,0,0,0,.24-.86,1.49,1.49,0,0,0-.24-.94.77.77,0,0,0-.61-.3.74.74,0,0,0-.59.29A1.39,1.39,0,0,0,48.67,29.51Z" transform="translate(-2.4 -4.9)"/><path class="cls-5" d="M53.69,31.07v-.46a1.14,1.14,0,0,1-1,.53,1.26,1.26,0,0,1-.51-.11.93.93,0,0,1-.36-.26,1.14,1.14,0,0,1-.16-.39,3,3,0,0,1,0-.5V28h.53v1.72a3.35,3.35,0,0,0,0,.56.48.48,0,0,0,.21.32.65.65,0,0,0,.4.12.83.83,0,0,0,.44-.12.68.68,0,0,0,.3-.33,1.63,1.63,0,0,0,.08-.61V28h.53v3.11Z" transform="translate(-2.4 -4.9)"/><path class="cls-5" d="M55,31.07V28h.48v.47a1.33,1.33,0,0,1,.33-.44.61.61,0,0,1,.34-.1,1,1,0,0,1,.54.17l-.18.48a.82.82,0,0,0-.39-.11.6.6,0,0,0-.31.1.59.59,0,0,0-.19.29,2.06,2.06,0,0,0-.09.62v1.63Z" transform="translate(-2.4 -4.9)"/><path class="cls-5" d="M59,30.68a2.05,2.05,0,0,1-.57.36,1.81,1.81,0,0,1-.58.1,1.19,1.19,0,0,1-.79-.25.91.91,0,0,1-.17-1.06.79.79,0,0,1,.27-.3,1.33,1.33,0,0,1,.38-.18l.47-.08a4.72,4.72,0,0,0,.94-.18A1.09,1.09,0,0,1,59,29a.59.59,0,0,0-.15-.46.9.9,0,0,0-.6-.18,1,1,0,0,0-.55.13.82.82,0,0,0-.27.46l-.51-.07a1.23,1.23,0,0,1,.23-.53A1,1,0,0,1,57.6,28a1.87,1.87,0,0,1,.7-.11A2,2,0,0,1,59,28a.79.79,0,0,1,.37.24.87.87,0,0,1,.16.35,2.7,2.7,0,0,1,0,.49v.7a8.38,8.38,0,0,0,0,.93,1.32,1.32,0,0,0,.13.38h-.55A1.12,1.12,0,0,1,59,30.68ZM59,29.51a4.82,4.82,0,0,1-.86.2,1.91,1.91,0,0,0-.46.1.51.51,0,0,0-.21.17.45.45,0,0,0-.07.25.43.43,0,0,0,.16.35.66.66,0,0,0,.47.14,1.08,1.08,0,0,0,.54-.13.87.87,0,0,0,.35-.36A1.44,1.44,0,0,0,59,29.7Z" transform="translate(-2.4 -4.9)"/><path class="cls-5" d="M61.47,30.6l.08.46a2.08,2.08,0,0,1-.4.05.88.88,0,0,1-.44-.09.53.53,0,0,1-.23-.24,2,2,0,0,1-.06-.62V28.37H60V28h.39v-.77l.52-.32V28h.53v.41h-.53v1.82a.89.89,0,0,0,0,.29.28.28,0,0,0,.09.1.44.44,0,0,0,.18,0Z" transform="translate(-2.4 -4.9)"/><path class="cls-5" d="M62,27.38v-.61h.53v.61Zm0,3.69V28h.53v3.11Z" transform="translate(-2.4 -4.9)"/><path class="cls-5" d="M63.13,29.51a1.62,1.62,0,0,1,.48-1.28,1.44,1.44,0,0,1,1-.34,1.39,1.39,0,0,1,1,.42A1.55,1.55,0,0,1,66,29.47a2,2,0,0,1-.18.94,1.29,1.29,0,0,1-.52.54,1.61,1.61,0,0,1-.75.19,1.4,1.4,0,0,1-1.06-.42A1.67,1.67,0,0,1,63.13,29.51Zm.54,0a1.36,1.36,0,0,0,.26.9.88.88,0,0,0,1.31,0,1.4,1.4,0,0,0,.26-.92,1.31,1.31,0,0,0-.26-.87.83.83,0,0,0-.65-.3.83.83,0,0,0-.66.3A1.33,1.33,0,0,0,63.67,29.51Z" transform="translate(-2.4 -4.9)"/><path class="cls-5" d="M66.66,31.07V28h.47v.44a1.12,1.12,0,0,1,1-.51,1.27,1.27,0,0,1,.52.1.69.69,0,0,1,.35.26,1,1,0,0,1,.17.39,3,3,0,0,1,0,.51v1.92h-.53v-1.9a1.48,1.48,0,0,0-.06-.48.53.53,0,0,0-.22-.25.64.64,0,0,0-.37-.1.82.82,0,0,0-.58.22,1.06,1.06,0,0,0-.24.81v1.7Z" transform="translate(-2.4 -4.9)"/><path class="cls-5" d="M32,38.27V35.16h.47v.47a1.48,1.48,0,0,1,.34-.44.59.59,0,0,1,.34-.1,1,1,0,0,1,.54.17l-.18.49a.74.74,0,0,0-.39-.12.57.57,0,0,0-.31.1.61.61,0,0,0-.2.29,2.45,2.45,0,0,0-.08.62v1.63Z" transform="translate(-2.4 -4.9)"/><path class="cls-5" d="M36,38.27v-.46a1.14,1.14,0,0,1-1,.53,1.27,1.27,0,0,1-.52-.11.82.82,0,0,1-.35-.26,1.15,1.15,0,0,1-.17-.39,3,3,0,0,1,0-.5V35.16h.53v1.72a3.35,3.35,0,0,0,0,.56.53.53,0,0,0,.21.33.72.72,0,0,0,.4.11.89.89,0,0,0,.45-.12.72.72,0,0,0,.29-.33,1.6,1.6,0,0,0,.09-.61V35.16h.52v3.11Z" transform="translate(-2.4 -4.9)"/><path class="cls-5" d="M37.31,38.27V35.16h.48v.44a1.1,1.1,0,0,1,1-.51,1.22,1.22,0,0,1,.51.1.77.77,0,0,1,.36.26,1.14,1.14,0,0,1,.16.39,3,3,0,0,1,0,.51v1.92h-.53V36.38a1.5,1.5,0,0,0-.06-.49.48.48,0,0,0-.22-.25.64.64,0,0,0-.37-.1.84.84,0,0,0-.58.22,1.06,1.06,0,0,0-.24.81v1.7Z" transform="translate(-2.4 -4.9)"/><path class="cls-5" d="M40.65,38.27V35.16h.47v.44a1.12,1.12,0,0,1,1-.51,1.27,1.27,0,0,1,.52.1.74.74,0,0,1,.35.26,1,1,0,0,1,.17.39,3,3,0,0,1,0,.51v1.92h-.53V36.38a1.5,1.5,0,0,0-.06-.49.53.53,0,0,0-.22-.25.66.66,0,0,0-.37-.1.82.82,0,0,0-.58.22,1.06,1.06,0,0,0-.25.81v1.7Z" transform="translate(-2.4 -4.9)"/><path class="cls-5" d="M44,34.58V34h.52v.61Zm0,3.69V35.16h.52v3.11Z" transform="translate(-2.4 -4.9)"/><path class="cls-5" d="M45.32,38.27V35.16h.47v.44a1.12,1.12,0,0,1,1-.51,1.27,1.27,0,0,1,.52.1.74.74,0,0,1,.35.26,1,1,0,0,1,.17.39,3,3,0,0,1,0,.51v1.92h-.53V36.38a1.5,1.5,0,0,0-.06-.49.53.53,0,0,0-.22-.25.66.66,0,0,0-.37-.1.82.82,0,0,0-.58.22,1.06,1.06,0,0,0-.25.81v1.7Z" transform="translate(-2.4 -4.9)"/><path class="cls-5" d="M48.56,38.53l.51.07a.48.48,0,0,0,.18.35.94.94,0,0,0,.54.14,1,1,0,0,0,.56-.14.78.78,0,0,0,.27-.41,3.34,3.34,0,0,0,0-.68,1.09,1.09,0,0,1-.86.41,1.19,1.19,0,0,1-1-.47,1.77,1.77,0,0,1-.35-1.11,2.22,2.22,0,0,1,.16-.82,1.36,1.36,0,0,1,.47-.58,1.22,1.22,0,0,1,.72-.2,1.1,1.1,0,0,1,.91.44v-.37h.48v2.69a2.6,2.6,0,0,1-.14,1,1.07,1.07,0,0,1-.47.47,1.62,1.62,0,0,1-.79.18,1.48,1.48,0,0,1-.9-.25A.84.84,0,0,1,48.56,38.53ZM49,36.66a1.37,1.37,0,0,0,.25.89.75.75,0,0,0,.61.28.78.78,0,0,0,.61-.28,1.34,1.34,0,0,0,.24-.88,1.28,1.28,0,0,0-.25-.86.79.79,0,0,0-.61-.29.76.76,0,0,0-.6.29A1.29,1.29,0,0,0,49,36.66Z" transform="translate(-2.4 -4.9)"/><path class="cls-5" d="M53.65,38.27V35.16h.48v.47a1.33,1.33,0,0,1,.33-.44.59.59,0,0,1,.34-.1,1,1,0,0,1,.54.17l-.18.49a.74.74,0,0,0-.39-.12.6.6,0,0,0-.31.1.59.59,0,0,0-.19.29,2.06,2.06,0,0,0-.09.62v1.63Z" transform="translate(-2.4 -4.9)"/><path class="cls-5" d="M57.69,37.88a2.05,2.05,0,0,1-.57.36,1.81,1.81,0,0,1-.58.1,1.19,1.19,0,0,1-.79-.25A.91.91,0,0,1,55.58,37a.79.79,0,0,1,.27-.3,1.33,1.33,0,0,1,.38-.18l.47-.08a4.72,4.72,0,0,0,.94-.18,1.09,1.09,0,0,1,0-.13.59.59,0,0,0-.15-.46.9.9,0,0,0-.6-.18,1,1,0,0,0-.55.13.82.82,0,0,0-.27.46L55.57,36a1.29,1.29,0,0,1,.23-.53,1,1,0,0,1,.47-.31,1.87,1.87,0,0,1,.7-.11,2,2,0,0,1,.65.09.79.79,0,0,1,.37.24.87.87,0,0,1,.16.35,2.7,2.7,0,0,1,0,.49V37a8.38,8.38,0,0,0,0,.93,1.32,1.32,0,0,0,.13.38h-.55A1.12,1.12,0,0,1,57.69,37.88Zm0-1.17a4.82,4.82,0,0,1-.86.2,1.91,1.91,0,0,0-.46.1.51.51,0,0,0-.21.17.45.45,0,0,0-.07.25.43.43,0,0,0,.16.35.66.66,0,0,0,.47.14,1.08,1.08,0,0,0,.54-.13.87.87,0,0,0,.35-.36,1.44,1.44,0,0,0,.08-.53Z" transform="translate(-2.4 -4.9)"/><path class="cls-5" d="M59,38.27V35.16h.48v.44a1.12,1.12,0,0,1,1-.51,1.27,1.27,0,0,1,.52.1.79.79,0,0,1,.35.26,1,1,0,0,1,.16.39,3,3,0,0,1,0,.51v1.92H61V36.38a1.5,1.5,0,0,0-.06-.49.48.48,0,0,0-.22-.25.61.61,0,0,0-.36-.1.81.81,0,0,0-.58.22,1,1,0,0,0-.25.81v1.7Z" transform="translate(-2.4 -4.9)"/><path class="cls-5" d="M62.23,38.53l.52.07a.51.51,0,0,0,.17.35,1,1,0,0,0,.54.14A1,1,0,0,0,64,39a.78.78,0,0,0,.27-.41,3.61,3.61,0,0,0,0-.68,1.08,1.08,0,0,1-.86.41,1.16,1.16,0,0,1-1-.47,1.77,1.77,0,0,1-.35-1.11,2,2,0,0,1,.16-.82,1.29,1.29,0,0,1,.47-.58,1.22,1.22,0,0,1,.72-.2,1.09,1.09,0,0,1,.9.44v-.37h.49v2.69a2.56,2.56,0,0,1-.15,1,1,1,0,0,1-.47.47,1.57,1.57,0,0,1-.79.18,1.48,1.48,0,0,1-.9-.25A.89.89,0,0,1,62.23,38.53Zm.44-1.87a1.37,1.37,0,0,0,.24.89.78.78,0,0,0,.61.28.77.77,0,0,0,.61-.28,1.61,1.61,0,0,0,0-1.74.78.78,0,0,0-.61-.29.75.75,0,0,0-.59.29A1.23,1.23,0,0,0,62.67,36.66Z" transform="translate(-2.4 -4.9)"/><path class="cls-5" d="M67.8,37.27l.54.06a1.24,1.24,0,0,1-.48.74,1.41,1.41,0,0,1-.89.27,1.43,1.43,0,0,1-1.08-.42,1.64,1.64,0,0,1-.4-1.18,1.71,1.71,0,0,1,.41-1.22,1.34,1.34,0,0,1,1-.43,1.33,1.33,0,0,1,1,.42,1.66,1.66,0,0,1,.4,1.2v.14H66a1.15,1.15,0,0,0,.29.78.86.86,0,0,0,.65.27.81.81,0,0,0,.49-.15A1,1,0,0,0,67.8,37.27Zm-1.73-.86H67.8a1.06,1.06,0,0,0-.2-.59.79.79,0,0,0-.65-.3.84.84,0,0,0-.61.24A.9.9,0,0,0,66.07,36.41Z" transform="translate(-2.4 -4.9)"/></g></svg>