<svg xmlns="http://www.w3.org/2000/svg" xmlns:xlink="http://www.w3.org/1999/xlink" viewBox="0 0 99.38 89.87"><defs><style>.cls-1{fill:#fff;}.cls-2{clip-path:url(#clip-path);}.cls-3,.cls-4{fill:none;}.cls-3{stroke:#b5b5b6;stroke-width:3px;}.cls-4{stroke:#231815;stroke-miterlimit:10;stroke-width:0.4px;}.cls-5{fill:#231815;}</style><clipPath id="clip-path" transform="translate(-2.4 -6.24)"><rect class="cls-1" x="27.62" y="6.44" width="70.62" height="75"/></clipPath></defs><g id="illust"><rect class="cls-1" x="25.22" y="0.2" width="70.62" height="75"/><g class="cls-2"><polyline class="cls-3" points="25.22 4.95 78.18 4.95 98.32 24.78"/><line class="cls-3" x1="25.22" y1="47.1" x2="96.23" y2="47.1"/></g><line class="cls-4" x1="95.84" y1="4.95" x2="25.22" y2="4.95"/><line class="cls-4" x1="95.84" y1="28.37" x2="25.22" y2="28.37"/><line class="cls-4" x1="95.84" y1="51.78" x2="25.22" y2="51.78"/><line class="cls-4" x1="60.53" y1="11.91" x2="60.53" y2="0.2"/><line class="cls-4" x1="60.53" y1="53.49" x2="60.53" y2="19.84"/><line class="cls-4" x1="60.53" y1="75.2" x2="60.53" y2="61.66"/><rect class="cls-4" x="25.22" y="0.2" width="70.62" height="75"/></g><g id="japanese"><path class="cls-5" d="M12.52,12.43l.52-.07a1.27,1.27,0,0,0,.31.65.8.8,0,0,0,.54.2.85.85,0,0,0,.62-.26.84.84,0,0,0,.26-.64.81.81,0,0,0-.24-.6.79.79,0,0,0-.6-.23,2,2,0,0,0-.37,0l.06-.46h.08a1.07,1.07,0,0,0,.61-.18.61.61,0,0,0,.27-.54.66.66,0,0,0-.2-.48.69.69,0,0,0-.51-.19.72.72,0,0,0-.51.19,1,1,0,0,0-.26.58l-.53-.09A1.32,1.32,0,0,1,13,9.55a1.24,1.24,0,0,1,.85-.29,1.41,1.41,0,0,1,.65.15,1.09,1.09,0,0,1,.61,1,.9.9,0,0,1-.15.51,1.06,1.06,0,0,1-.44.36,1,1,0,0,1,.59.37,1.09,1.09,0,0,1,.21.69,1.28,1.28,0,0,1-.41.95,1.44,1.44,0,0,1-1,.39,1.38,1.38,0,0,1-.94-.33A1.29,1.29,0,0,1,12.52,12.43Z" transform="translate(-2.4 -6.24)"/><path class="cls-5" d="M18.59,10.32l-.53,0a.94.94,0,0,0-.2-.46.67.67,0,0,0-.52-.22.77.77,0,0,0-.45.14,1.29,1.29,0,0,0-.39.53,3,3,0,0,0-.15,1,1.24,1.24,0,0,1,1-.57,1.17,1.17,0,0,1,.89.39,1.37,1.37,0,0,1,.37,1,1.59,1.59,0,0,1-.17.75,1.33,1.33,0,0,1-.48.54,1.31,1.31,0,0,1-.69.18,1.37,1.37,0,0,1-1.08-.48,2.52,2.52,0,0,1-.41-1.6,2.83,2.83,0,0,1,.46-1.81,1.32,1.32,0,0,1,1.08-.49,1.15,1.15,0,0,1,1.22,1.06Zm-2.16,1.86a1.2,1.2,0,0,0,.12.52,1,1,0,0,0,.32.38.9.9,0,0,0,.44.13.74.74,0,0,0,.57-.27,1.07,1.07,0,0,0,.24-.73,1,1,0,0,0-.23-.71.79.79,0,0,0-.6-.25.82.82,0,0,0-.61.25A1,1,0,0,0,16.43,12.18Z" transform="translate(-2.4 -6.24)"/><path class="cls-5" d="M19.19,11.45a3.78,3.78,0,0,1,.16-1.23,1.44,1.44,0,0,1,.46-.71,1.2,1.2,0,0,1,.78-.25,1.33,1.33,0,0,1,.61.13,1.29,1.29,0,0,1,.43.41,2,2,0,0,1,.26.63,4,4,0,0,1,.1,1,3.76,3.76,0,0,1-.16,1.22,1.48,1.48,0,0,1-.46.72,1.32,1.32,0,0,1-1.76-.19A2.87,2.87,0,0,1,19.19,11.45Zm.54,0A2.68,2.68,0,0,0,20,12.86a.73.73,0,0,0,.61.35.75.75,0,0,0,.61-.35,2.78,2.78,0,0,0,.25-1.41A2.73,2.73,0,0,0,21.2,10a.75.75,0,0,0-.62-.35A.68.68,0,0,0,20,10,2.73,2.73,0,0,0,19.73,11.45Z" transform="translate(-2.4 -6.24)"/><path class="cls-5" d="M22.53,11.45a4.12,4.12,0,0,1,.15-1.23,1.53,1.53,0,0,1,.47-.71,1.16,1.16,0,0,1,.78-.25,1.26,1.26,0,0,1,.6.13A1.13,1.13,0,0,1,25,9.8a1.82,1.82,0,0,1,.27.63,4.54,4.54,0,0,1,.1,1,4.05,4.05,0,0,1-.16,1.22,1.55,1.55,0,0,1-.46.72A1.32,1.32,0,0,1,23,13.2,2.87,2.87,0,0,1,22.53,11.45Zm.54,0a2.81,2.81,0,0,0,.24,1.41.72.72,0,0,0,1.23,0,2.81,2.81,0,0,0,.24-1.41A2.75,2.75,0,0,0,24.54,10a.75.75,0,0,0-.62-.35.66.66,0,0,0-.58.31A2.73,2.73,0,0,0,23.07,11.45Z" transform="translate(-2.4 -6.24)"/><path class="cls-5" d="M15.29,36.2v.5H12.45a.74.74,0,0,1,.06-.36,1.73,1.73,0,0,1,.35-.57,5.63,5.63,0,0,1,.69-.66,5.94,5.94,0,0,0,.94-.9,1.09,1.09,0,0,0,.25-.64.72.72,0,0,0-.23-.53.81.81,0,0,0-.58-.21.8.8,0,0,0-.61.23.85.85,0,0,0-.23.63l-.54-.06a1.27,1.27,0,0,1,.42-.92,1.42,1.42,0,0,1,1-.32,1.36,1.36,0,0,1,1,.34,1.13,1.13,0,0,1,.36.85,1.17,1.17,0,0,1-.11.51,1.7,1.7,0,0,1-.35.52,7.18,7.18,0,0,1-.81.76c-.31.27-.52.45-.61.54a1.48,1.48,0,0,0-.22.29Z" transform="translate(-2.4 -6.24)"/><path class="cls-5" d="M17.54,36.7v-1H15.68v-.48l2-2.78h.43v2.78h.58v.48h-.58v1Zm0-1.51V33.25L16.2,35.19Z" transform="translate(-2.4 -6.24)"/><path class="cls-5" d="M19.19,34.58a3.76,3.76,0,0,1,.16-1.22,1.48,1.48,0,0,1,.46-.72,1.2,1.2,0,0,1,.78-.25,1.34,1.34,0,0,1,.61.14,1.26,1.26,0,0,1,.43.4,2.2,2.2,0,0,1,.26.64,3.93,3.93,0,0,1,.1,1,3.68,3.68,0,0,1-.16,1.22,1.48,1.48,0,0,1-.46.72,1.2,1.2,0,0,1-.78.26,1.18,1.18,0,0,1-1-.45A2.87,2.87,0,0,1,19.19,34.58Zm.54,0A2.63,2.63,0,0,0,20,36a.71.71,0,0,0,.61.35A.72.72,0,0,0,21.2,36a2.73,2.73,0,0,0,.25-1.41,2.71,2.71,0,0,0-.25-1.4.73.73,0,0,0-.62-.35.69.69,0,0,0-.58.3A2.78,2.78,0,0,0,19.73,34.58Z" transform="translate(-2.4 -6.24)"/><path class="cls-5" d="M22.53,34.58a4.09,4.09,0,0,1,.15-1.22,1.56,1.56,0,0,1,.47-.72,1.16,1.16,0,0,1,.78-.25,1.27,1.27,0,0,1,.6.14,1.1,1.1,0,0,1,.43.4,2,2,0,0,1,.27.64,4.44,4.44,0,0,1,.1,1,4,4,0,0,1-.16,1.22,1.55,1.55,0,0,1-.46.72,1.2,1.2,0,0,1-.78.26,1.18,1.18,0,0,1-1-.45A2.87,2.87,0,0,1,22.53,34.58Zm.54,0A2.75,2.75,0,0,0,23.31,36a.72.72,0,0,0,1.23,0,2.75,2.75,0,0,0,.24-1.41,2.74,2.74,0,0,0-.24-1.4.73.73,0,0,0-.62-.35.68.68,0,0,0-.58.3A2.78,2.78,0,0,0,23.07,34.58Z" transform="translate(-2.4 -6.24)"/><path class="cls-5" d="M14.5,61H14V57.61a2.4,2.4,0,0,1-.5.36,3.58,3.58,0,0,1-.55.28v-.51a3.22,3.22,0,0,0,.77-.51,1.94,1.94,0,0,0,.47-.57h.34Z" transform="translate(-2.4 -6.24)"/><path class="cls-5" d="M18.62,60.46V61H15.78a.94.94,0,0,1,.07-.37,1.91,1.91,0,0,1,.34-.57,6.56,6.56,0,0,1,.69-.65,5.27,5.27,0,0,0,.95-.91,1.1,1.1,0,0,0,.25-.63.7.7,0,0,0-.23-.53.9.9,0,0,0-1.19,0,.85.85,0,0,0-.23.64l-.55-.06A1.35,1.35,0,0,1,16.3,57a1.4,1.4,0,0,1,1-.32,1.36,1.36,0,0,1,1,.34,1.13,1.13,0,0,1,.36.85,1.34,1.34,0,0,1-.11.51,2.06,2.06,0,0,1-.35.52,7.18,7.18,0,0,1-.81.76,6.34,6.34,0,0,0-.61.54,1.79,1.79,0,0,0-.22.28Z" transform="translate(-2.4 -6.24)"/><path class="cls-5" d="M19.19,58.85a3.72,3.72,0,0,1,.16-1.22,1.48,1.48,0,0,1,.46-.72,1.2,1.2,0,0,1,.78-.25,1.34,1.34,0,0,1,.61.14,1.17,1.17,0,0,1,.43.4,2.09,2.09,0,0,1,.26.64,3.93,3.93,0,0,1,.1,1,3.72,3.72,0,0,1-.16,1.22,1.48,1.48,0,0,1-.46.72,1.2,1.2,0,0,1-.78.25,1.17,1.17,0,0,1-1-.44A2.87,2.87,0,0,1,19.19,58.85Zm.54,0A2.63,2.63,0,0,0,20,60.26a.73.73,0,0,0,.61.35.75.75,0,0,0,.61-.35,4.1,4.1,0,0,0,0-2.82.75.75,0,0,0-.62-.35.7.7,0,0,0-.58.31A2.75,2.75,0,0,0,19.73,58.85Z" transform="translate(-2.4 -6.24)"/><path class="cls-5" d="M22.53,58.85a4,4,0,0,1,.15-1.22,1.56,1.56,0,0,1,.47-.72,1.16,1.16,0,0,1,.78-.25,1.27,1.27,0,0,1,.6.14,1,1,0,0,1,.43.4,1.87,1.87,0,0,1,.27.64,4.44,4.44,0,0,1,.1,1,4,4,0,0,1-.16,1.22,1.55,1.55,0,0,1-.46.72,1.2,1.2,0,0,1-.78.25,1.17,1.17,0,0,1-1-.44A2.87,2.87,0,0,1,22.53,58.85Zm.54,0a2.75,2.75,0,0,0,.24,1.41.72.72,0,0,0,1.23,0,4.26,4.26,0,0,0,0-2.82.75.75,0,0,0-.62-.35.69.69,0,0,0-.58.31A2.75,2.75,0,0,0,23.07,58.85Z" transform="translate(-2.4 -6.24)"/><path class="cls-5" d="M14.5,55.35H14V52a2.4,2.4,0,0,1-.5.36,3.44,3.44,0,0,1-.55.27v-.51a3.19,3.19,0,0,0,.77-.5,2.07,2.07,0,0,0,.47-.57h.34Z" transform="translate(-2.4 -6.24)"/><path class="cls-5" d="M17.54,55.35v-1H15.68v-.48l2-2.79h.43v2.79h.58v.48h-.58v1Zm0-1.51V51.9L16.2,53.84Z" transform="translate(-2.4 -6.24)"/><path class="cls-5" d="M20.88,55.35v-1H19v-.48l2-2.79h.43v2.79H22v.48h-.58v1Zm0-1.51V51.9l-1.35,1.94Z" transform="translate(-2.4 -6.24)"/><path class="cls-5" d="M22.53,53.23A4.12,4.12,0,0,1,22.68,52a1.53,1.53,0,0,1,.47-.71,1.16,1.16,0,0,1,.78-.25,1.26,1.26,0,0,1,.6.13,1.13,1.13,0,0,1,.43.41,1.82,1.82,0,0,1,.27.63,4.54,4.54,0,0,1,.1,1,4.05,4.05,0,0,1-.16,1.22,1.55,1.55,0,0,1-.46.72A1.32,1.32,0,0,1,23,55,2.87,2.87,0,0,1,22.53,53.23Zm.54,0a2.81,2.81,0,0,0,.24,1.41.72.72,0,0,0,1.23,0,2.81,2.81,0,0,0,.24-1.41,2.75,2.75,0,0,0-.24-1.41.75.75,0,0,0-.62-.35.66.66,0,0,0-.58.31A2.73,2.73,0,0,0,23.07,53.23Z" transform="translate(-2.4 -6.24)"/><path d="M64,87.29h-.52V83.92a2.6,2.6,0,0,1-.5.37,3.5,3.5,0,0,1-.56.27v-.51a3.3,3.3,0,0,0,.77-.5A1.82,1.82,0,0,0,63.7,83H64Z" transform="translate(-2.4 -6.24)"/><path d="M99.63,86.78v.51H96.79a.78.78,0,0,1,.06-.37,2,2,0,0,1,.35-.57,4,4,0,0,1,.69-.65,6.37,6.37,0,0,0,.94-.91,1.09,1.09,0,0,0,.25-.64.72.72,0,0,0-.23-.53.79.79,0,0,0-.58-.21.84.84,0,0,0-.61.23.85.85,0,0,0-.23.63l-.54-.06a1.27,1.27,0,0,1,.42-.92,1.42,1.42,0,0,1,1-.32,1.37,1.37,0,0,1,1,.35,1.11,1.11,0,0,1,.36.85,1.25,1.25,0,0,1-.11.5,1.86,1.86,0,0,1-.35.53,8.44,8.44,0,0,1-.81.75c-.31.27-.52.45-.61.54a1.85,1.85,0,0,0-.22.29Z" transform="translate(-2.4 -6.24)"/><path class="cls-5" d="M22.53,81.09a4.09,4.09,0,0,1,.15-1.22,1.56,1.56,0,0,1,.47-.72,1.16,1.16,0,0,1,.78-.25,1.27,1.27,0,0,1,.6.14,1.1,1.1,0,0,1,.43.4,2,2,0,0,1,.27.64,4.44,4.44,0,0,1,.1,1,4,4,0,0,1-.16,1.22,1.55,1.55,0,0,1-.46.72,1.2,1.2,0,0,1-.78.26,1.18,1.18,0,0,1-1-.45A2.87,2.87,0,0,1,22.53,81.09Zm.54,0a2.75,2.75,0,0,0,.24,1.41.72.72,0,0,0,1.23,0,4.23,4.23,0,0,0,0-2.81.73.73,0,0,0-.62-.35.68.68,0,0,0-.58.3A2.78,2.78,0,0,0,23.07,81.09Z" transform="translate(-2.4 -6.24)"/><path d="M45.51,93.54l.54-.05a1,1,0,0,0,.18.53.87.87,0,0,0,.43.33,1.53,1.53,0,0,0,.66.13,1.66,1.66,0,0,0,.57-.09.83.83,0,0,0,.37-.27.62.62,0,0,0,0-.72.82.82,0,0,0-.39-.25,5.81,5.81,0,0,0-.76-.21,4.17,4.17,0,0,1-.83-.27,1.14,1.14,0,0,1-.46-.4,1,1,0,0,1-.15-.54,1.11,1.11,0,0,1,.18-.6,1.07,1.07,0,0,1,.54-.43,2,2,0,0,1,.79-.15,2.17,2.17,0,0,1,.84.15,1.25,1.25,0,0,1,.77,1.13l-.54,0a.88.88,0,0,0-.3-.62,1.16,1.16,0,0,0-.75-.21,1.18,1.18,0,0,0-.75.19.57.57,0,0,0-.24.46.5.5,0,0,0,.17.38,2.25,2.25,0,0,0,.86.3,5.87,5.87,0,0,1,1,.28,1.29,1.29,0,0,1,.55.43,1.1,1.1,0,0,1,.18.62,1.16,1.16,0,0,1-.19.64,1.33,1.33,0,0,1-.57.47,1.84,1.84,0,0,1-.83.17,2.34,2.34,0,0,1-1-.17,1.3,1.3,0,0,1-.62-.51A1.46,1.46,0,0,1,45.51,93.54Z" transform="translate(-2.4 -6.24)"/><path d="M49.64,96.11v-4.3h.48v.4a1,1,0,0,1,.38-.35,1.08,1.08,0,0,1,.52-.12,1.31,1.31,0,0,1,.71.2,1.34,1.34,0,0,1,.46.58,2.29,2.29,0,0,1,0,1.68A1.29,1.29,0,0,1,51,95a1.06,1.06,0,0,1-.48-.11,1.19,1.19,0,0,1-.34-.28v1.51Zm.48-2.73a1.37,1.37,0,0,0,.24.89.75.75,0,0,0,1.19,0,1.4,1.4,0,0,0,.25-.92,1.37,1.37,0,0,0-.24-.89.73.73,0,0,0-.59-.3.76.76,0,0,0-.59.32A1.35,1.35,0,0,0,50.12,93.38Z" transform="translate(-2.4 -6.24)"/><path d="M55.11,93.92l.54.06a1.3,1.3,0,0,1-.48.75,1.45,1.45,0,0,1-.89.26,1.43,1.43,0,0,1-1.08-.42,1.67,1.67,0,0,1-.4-1.18,1.73,1.73,0,0,1,.41-1.22,1.36,1.36,0,0,1,1-.43,1.33,1.33,0,0,1,1,.42,1.67,1.67,0,0,1,.4,1.2v.14H53.35a1.15,1.15,0,0,0,.29.78.87.87,0,0,0,.65.28.8.8,0,0,0,.49-.16A1,1,0,0,0,55.11,93.92Zm-1.73-.86h1.73a1,1,0,0,0-.2-.58.77.77,0,0,0-.65-.31.84.84,0,0,0-.61.24A.92.92,0,0,0,53.38,93.06Z" transform="translate(-2.4 -6.24)"/><path d="M58.44,93.92,59,94a1.4,1.4,0,0,1-.48.75,1.47,1.47,0,0,1-.89.26,1.43,1.43,0,0,1-1.08-.42,1.62,1.62,0,0,1-.4-1.18,1.73,1.73,0,0,1,.4-1.22,1.37,1.37,0,0,1,1.05-.43,1.33,1.33,0,0,1,1,.42,1.67,1.67,0,0,1,.4,1.2.82.82,0,0,1,0,.14H56.68a1.2,1.2,0,0,0,.29.78.88.88,0,0,0,.65.28.83.83,0,0,0,.5-.16A1,1,0,0,0,58.44,93.92Zm-1.73-.86h1.74a1,1,0,0,0-.2-.58.79.79,0,0,0-.65-.31.84.84,0,0,0-.61.24A1,1,0,0,0,56.71,93.06Z" transform="translate(-2.4 -6.24)"/><path d="M61.67,94.92v-.39a1,1,0,0,1-.87.46,1.16,1.16,0,0,1-.68-.21,1.31,1.31,0,0,1-.49-.57,2,2,0,0,1-.17-.84,2.11,2.11,0,0,1,.16-.85,1.2,1.2,0,0,1,1.16-.78,1.06,1.06,0,0,1,.5.12,1,1,0,0,1,.35.31V90.62h.53v4.3ZM60,93.37a1.41,1.41,0,0,0,.25.89.77.77,0,0,0,.6.3.75.75,0,0,0,.59-.29,1.3,1.3,0,0,0,.24-.86,1.43,1.43,0,0,0-.25-.94.75.75,0,0,0-1.19,0A1.4,1.4,0,0,0,60,93.37Z" transform="translate(-2.4 -6.24)"/><path d="M64.67,96.11V90.62h1.16v.44h-.64v4.61h.64v.44Z" transform="translate(-2.4 -6.24)"/><path d="M66.32,94.92V91.81h.47v.43a1.12,1.12,0,0,1,.39-.36,1.06,1.06,0,0,1,.56-.14,1,1,0,0,1,.56.14.79.79,0,0,1,.32.4,1.1,1.1,0,0,1,1-.54,1,1,0,0,1,.71.25,1.1,1.1,0,0,1,.25.79v2.14H70V93A1.35,1.35,0,0,0,70,92.5a.42.42,0,0,0-.18-.22.57.57,0,0,0-.32-.09.74.74,0,0,0-.54.22,1,1,0,0,0-.22.7v1.81h-.53v-2a.86.86,0,0,0-.13-.53.47.47,0,0,0-.42-.18.73.73,0,0,0-.41.12.67.67,0,0,0-.28.34,2.15,2.15,0,0,0-.08.65v1.62Z" transform="translate(-2.4 -6.24)"/><path d="M70.92,95l1.25-4.44h.42L71.35,95Z" transform="translate(-2.4 -6.24)"/><path d="M72.78,94l.52-.08a.74.74,0,0,0,.24.48.87.87,0,0,0,.56.17.79.79,0,0,0,.54-.15.45.45,0,0,0,.18-.35.31.31,0,0,0-.16-.28,2,2,0,0,0-.54-.18,5.62,5.62,0,0,1-.8-.25.79.79,0,0,1-.46-.72.86.86,0,0,1,.1-.38.83.83,0,0,1,.26-.3,1,1,0,0,1,.33-.15,1.76,1.76,0,0,1,.46-.06,1.79,1.79,0,0,1,.64.1.87.87,0,0,1,.41.29,1,1,0,0,1,.18.48l-.51.07a.56.56,0,0,0-.21-.37.73.73,0,0,0-.47-.14.87.87,0,0,0-.52.12.36.36,0,0,0-.16.28.34.34,0,0,0,.07.19.54.54,0,0,0,.2.14l.47.13a5.57,5.57,0,0,1,.78.25.76.76,0,0,1,.34.27.75.75,0,0,1,.13.45.89.89,0,0,1-.15.5,1,1,0,0,1-.45.36,1.51,1.51,0,0,1-.65.13,1.45,1.45,0,0,1-.93-.25A1.15,1.15,0,0,1,72.78,94Z" transform="translate(-2.4 -6.24)"/><path d="M76.87,96.11H75.71v-.44h.63V91.06h-.63v-.44h1.16Z" transform="translate(-2.4 -6.24)"/><path d="M6.7,57.05H2.91v1.41H2.4v-3.4h.51v1.42H6.7Z" transform="translate(-2.4 -6.24)"/><path d="M6.7,54.54H2.4V54H3.94a1.2,1.2,0,0,1-.42-.93,1.31,1.31,0,0,1,.13-.61A.78.78,0,0,1,4,52.12a1.79,1.79,0,0,1,.7-.11h2v.53h-2a.79.79,0,0,0-.58.17.63.63,0,0,0-.18.48.83.83,0,0,0,.12.44.68.68,0,0,0,.33.3A1.5,1.5,0,0,0,5,54H6.7Z" transform="translate(-2.4 -6.24)"/><path d="M6.7,51.21H3.59v-.47h.47a1.21,1.21,0,0,1-.44-.34.57.57,0,0,1-.1-.34,1,1,0,0,1,.17-.54l.48.18a.82.82,0,0,0-.11.39.55.55,0,0,0,.1.31.61.61,0,0,0,.29.2,2.06,2.06,0,0,0,.62.09H6.7Z" transform="translate(-2.4 -6.24)"/><path d="M6.7,47.17H6.24a1.14,1.14,0,0,1,.53,1,1.26,1.26,0,0,1-.11.51A.93.93,0,0,1,6.4,49a1.14,1.14,0,0,1-.39.16,3,3,0,0,1-.5,0H3.59v-.53H5.31a3.35,3.35,0,0,0,.56,0,.48.48,0,0,0,.32-.21.65.65,0,0,0,.12-.4.86.86,0,0,0-.12-.44.68.68,0,0,0-.33-.3,1.63,1.63,0,0,0-.61-.08H3.59V46.7H6.7Z" transform="translate(-2.4 -6.24)"/><path d="M5.77,46.08l-.08-.52a.74.74,0,0,0,.48-.24.87.87,0,0,0,.16-.56.85.85,0,0,0-.14-.54A.45.45,0,0,0,5.84,44a.31.31,0,0,0-.28.16,2,2,0,0,0-.18.54,5.62,5.62,0,0,1-.25.8.83.83,0,0,1-.3.34.79.79,0,0,1-.42.12.87.87,0,0,1-.68-.36,1,1,0,0,1-.15-.33,1.76,1.76,0,0,1-.06-.46,1.79,1.79,0,0,1,.1-.64.87.87,0,0,1,.29-.41,1,1,0,0,1,.48-.18l.07.51a.58.58,0,0,0-.38.21.73.73,0,0,0-.13.47.87.87,0,0,0,.12.52.36.36,0,0,0,.28.16.34.34,0,0,0,.19-.07.54.54,0,0,0,.14-.2s.06-.21.13-.47A5.57,5.57,0,0,1,5.06,44a.76.76,0,0,1,.27-.34.73.73,0,0,1,.45-.13.91.91,0,0,1,.5.15,1,1,0,0,1,.36.45,1.78,1.78,0,0,1-.12,1.58A1.19,1.19,0,0,1,5.77,46.08Z" transform="translate(-2.4 -6.24)"/><path d="M6.23,41.72l.46-.07a2,2,0,0,1,0,.39,1,1,0,0,1-.09.45.51.51,0,0,1-.24.22,1.94,1.94,0,0,1-.62.07H4v.38H3.59v-.38H2.82l-.32-.53H3.59v-.53H4v.53H5.82a.89.89,0,0,0,.29,0,.21.21,0,0,0,.1-.09.4.4,0,0,0,0-.18C6.25,41.89,6.24,41.82,6.23,41.72Z" transform="translate(-2.4 -6.24)"/><path d="M7.89,39.53H2.4V38.36h.44V39H7.45v-.64h.44Z" transform="translate(-2.4 -6.24)"/><path d="M6.7,37.81H2.4v-.58L5.77,35H2.4v-.54H6.7V35L3.32,37.27H6.7Z" transform="translate(-2.4 -6.24)"/><path d="M7.89,32.66v1.16H7.45v-.64H2.84v.64H2.4V32.66Z" transform="translate(-2.4 -6.24)"/><path class="cls-5" d="M28.79,23.11l.54-.05a1.14,1.14,0,0,0,.17.53,1,1,0,0,0,.44.33,1.71,1.71,0,0,0,1.23,0,.8.8,0,0,0,.37-.26.63.63,0,0,0,.12-.37.55.55,0,0,0-.12-.35.74.74,0,0,0-.38-.25,5.64,5.64,0,0,0-.77-.21,4.7,4.7,0,0,1-.83-.27,1.3,1.3,0,0,1-.46-.4A1,1,0,0,1,29,21.3a1.09,1.09,0,0,1,.19-.6,1.07,1.07,0,0,1,.54-.43,2,2,0,0,1,.79-.15,2.24,2.24,0,0,1,.84.15,1.25,1.25,0,0,1,.77,1.13l-.54,0a.87.87,0,0,0-.3-.61,1.16,1.16,0,0,0-.75-.21,1.18,1.18,0,0,0-.75.19.57.57,0,0,0-.24.46.5.5,0,0,0,.17.38,2.18,2.18,0,0,0,.86.3,6.21,6.21,0,0,1,.95.28,1.29,1.29,0,0,1,.55.43,1.07,1.07,0,0,1,.18.61,1.18,1.18,0,0,1-.2.65,1.3,1.3,0,0,1-.56.47,2,2,0,0,1-.83.17,2.57,2.57,0,0,1-1-.17,1.33,1.33,0,0,1-.61-.51A1.46,1.46,0,0,1,28.79,23.11Z" transform="translate(-2.4 -6.24)"/><path class="cls-5" d="M32.92,24.49v-4.3h.53v1.54a1.17,1.17,0,0,1,.93-.42,1.26,1.26,0,0,1,.6.13.78.78,0,0,1,.36.38,1.62,1.62,0,0,1,.11.7v2h-.53v-2a.79.79,0,0,0-.17-.58.62.62,0,0,0-.48-.18.86.86,0,0,0-.44.12.68.68,0,0,0-.3.33,1.52,1.52,0,0,0-.08.58v1.7Z" transform="translate(-2.4 -6.24)"/><path class="cls-5" d="M36.06,22.93a1.62,1.62,0,0,1,.48-1.28,1.44,1.44,0,0,1,1-.34,1.41,1.41,0,0,1,1,.42,1.59,1.59,0,0,1,.4,1.16,2,2,0,0,1-.18.94,1.29,1.29,0,0,1-.52.54,1.61,1.61,0,0,1-.75.19,1.4,1.4,0,0,1-1.06-.42A1.67,1.67,0,0,1,36.06,22.93Zm.54,0a1.36,1.36,0,0,0,.26.9.83.83,0,0,0,.66.29.84.84,0,0,0,.65-.29,1.4,1.4,0,0,0,.26-.92,1.31,1.31,0,0,0-.26-.87.87.87,0,0,0-1.31,0A1.33,1.33,0,0,0,36.6,22.93Z" transform="translate(-2.4 -6.24)"/><path class="cls-5" d="M39.59,24.49V21.38h.47v.47a1.21,1.21,0,0,1,.34-.44.56.56,0,0,1,.33-.1,1,1,0,0,1,.55.17l-.19.49a.68.68,0,0,0-.38-.12.49.49,0,0,0-.31.11.54.54,0,0,0-.2.28,2.06,2.06,0,0,0-.09.62v1.63Z" transform="translate(-2.4 -6.24)"/><path class="cls-5" d="M42.74,24l.08.46a2.08,2.08,0,0,1-.4.05,1,1,0,0,1-.45-.09.51.51,0,0,1-.22-.24,2,2,0,0,1-.06-.62V21.79H41.3v-.41h.39v-.77l.52-.32v1.09h.53v.41h-.53v1.82a.89.89,0,0,0,0,.29.28.28,0,0,0,.09.1.4.4,0,0,0,.18,0Z" transform="translate(-2.4 -6.24)"/><path class="cls-5" d="M43.05,23.2v-.53h1.62v.53Z" transform="translate(-2.4 -6.24)"/><path class="cls-5" d="M47.27,24.49V24.1a1,1,0,0,1-.87.46,1.21,1.21,0,0,1-.68-.21,1.23,1.23,0,0,1-.48-.57,1.89,1.89,0,0,1-.18-.84,2.26,2.26,0,0,1,.16-.85,1.18,1.18,0,0,1,.47-.58,1.17,1.17,0,0,1,.69-.2,1.15,1.15,0,0,1,.5.11,1.1,1.1,0,0,1,.36.31V20.19h.52v4.3Zm-1.66-1.55a1.35,1.35,0,0,0,.25.89.75.75,0,0,0,1.18,0,1.3,1.3,0,0,0,.24-.86A1.49,1.49,0,0,0,47,22a.77.77,0,0,0-.61-.3.75.75,0,0,0-.59.29A1.46,1.46,0,0,0,45.61,22.94Z" transform="translate(-2.4 -6.24)"/><path class="cls-5" d="M50.63,24.49V24a1.14,1.14,0,0,1-1,.53,1.26,1.26,0,0,1-.51-.11.93.93,0,0,1-.36-.26,1.14,1.14,0,0,1-.16-.39,3,3,0,0,1,0-.5V21.38h.53V23.1a3.35,3.35,0,0,0,0,.56.53.53,0,0,0,.21.33.72.72,0,0,0,.4.11.83.83,0,0,0,.44-.12.68.68,0,0,0,.3-.33,1.6,1.6,0,0,0,.09-.61V21.38h.52v3.11Z" transform="translate(-2.4 -6.24)"/><path class="cls-5" d="M51.92,24.49V21.38h.48v.47a1.33,1.33,0,0,1,.33-.44.61.61,0,0,1,.34-.1,1,1,0,0,1,.54.17l-.18.49a.74.74,0,0,0-.39-.12.53.53,0,0,0-.31.11.52.52,0,0,0-.19.28,2.06,2.06,0,0,0-.09.62v1.63Z" transform="translate(-2.4 -6.24)"/><path class="cls-5" d="M56,24.1a2.05,2.05,0,0,1-.57.36,1.81,1.81,0,0,1-.58.1,1.19,1.19,0,0,1-.79-.25.84.84,0,0,1-.27-.64.87.87,0,0,1,.1-.42.79.79,0,0,1,.27-.3,1.33,1.33,0,0,1,.38-.18l.47-.08a4.72,4.72,0,0,0,.94-.18.85.85,0,0,0,0-.13.59.59,0,0,0-.15-.46.9.9,0,0,0-.6-.18,1,1,0,0,0-.55.13.82.82,0,0,0-.27.46l-.51-.07a1.29,1.29,0,0,1,.23-.53,1,1,0,0,1,.47-.31,1.87,1.87,0,0,1,.7-.11,2,2,0,0,1,.65.09.79.79,0,0,1,.37.24.87.87,0,0,1,.16.35,2.7,2.7,0,0,1,0,.49v.7a8.38,8.38,0,0,0,0,.93,1.32,1.32,0,0,0,.13.38h-.55A1.12,1.12,0,0,1,56,24.1Zm-.05-1.17a4.82,4.82,0,0,1-.86.2,1.91,1.91,0,0,0-.46.1.51.51,0,0,0-.21.17.45.45,0,0,0-.07.25.43.43,0,0,0,.16.35.66.66,0,0,0,.47.15,1.09,1.09,0,0,0,.54-.14.87.87,0,0,0,.35-.36,1.44,1.44,0,0,0,.08-.53Z" transform="translate(-2.4 -6.24)"/><path class="cls-5" d="M58.42,24l.07.46a2.08,2.08,0,0,1-.4.05.88.88,0,0,1-.44-.09.53.53,0,0,1-.23-.24,2,2,0,0,1-.06-.62V21.79H57v-.41h.39v-.77l.52-.32v1.09h.54v.41h-.54v1.82a.89.89,0,0,0,0,.29A.28.28,0,0,0,58,24a.48.48,0,0,0,.18,0Z" transform="translate(-2.4 -6.24)"/><path class="cls-5" d="M58.93,20.8v-.61h.53v.61Zm0,3.69V21.38h.53v3.11Z" transform="translate(-2.4 -6.24)"/><path class="cls-5" d="M60.07,22.93a1.62,1.62,0,0,1,.48-1.28,1.44,1.44,0,0,1,1-.34,1.42,1.42,0,0,1,1,.42,1.59,1.59,0,0,1,.4,1.16,2,2,0,0,1-.18.94,1.29,1.29,0,0,1-.52.54,1.61,1.61,0,0,1-.75.19,1.4,1.4,0,0,1-1.06-.42A1.67,1.67,0,0,1,60.07,22.93Zm.54,0a1.36,1.36,0,0,0,.26.9.82.82,0,0,0,.66.29.84.84,0,0,0,.65-.29,1.4,1.4,0,0,0,.26-.92,1.31,1.31,0,0,0-.26-.87.83.83,0,0,0-.65-.3.83.83,0,0,0-.66.3A1.33,1.33,0,0,0,60.61,22.93Z" transform="translate(-2.4 -6.24)"/><path class="cls-5" d="M63.6,24.49V21.38h.48v.44a1.1,1.1,0,0,1,1-.51,1.25,1.25,0,0,1,.51.1.77.77,0,0,1,.36.26,1.14,1.14,0,0,1,.16.39,3,3,0,0,1,0,.51v1.92H65.6V22.6a1.5,1.5,0,0,0-.06-.49.48.48,0,0,0-.22-.25.64.64,0,0,0-.37-.1.84.84,0,0,0-.58.22,1.06,1.06,0,0,0-.24.81v1.7Z" transform="translate(-2.4 -6.24)"/><path class="cls-5" d="M68.6,24.49V21.38h.47v.47a1.33,1.33,0,0,1,.34-.44.57.57,0,0,1,.34-.1,1,1,0,0,1,.54.17l-.18.49a.74.74,0,0,0-.39-.12.51.51,0,0,0-.31.11.54.54,0,0,0-.2.28,2.45,2.45,0,0,0-.08.62v1.63Z" transform="translate(-2.4 -6.24)"/><path class="cls-5" d="M72.64,24.49V24a1.14,1.14,0,0,1-1,.53,1.26,1.26,0,0,1-.51-.11.82.82,0,0,1-.35-.26,1,1,0,0,1-.17-.39,3,3,0,0,1,0-.5V21.38h.53V23.1a3.35,3.35,0,0,0,0,.56.53.53,0,0,0,.21.33.72.72,0,0,0,.4.11.89.89,0,0,0,.45-.12.72.72,0,0,0,.29-.33,1.6,1.6,0,0,0,.09-.61V21.38h.52v3.11Z" transform="translate(-2.4 -6.24)"/><path class="cls-5" d="M73.94,24.49V21.38h.47v.44a1.12,1.12,0,0,1,1-.51,1.27,1.27,0,0,1,.52.1.69.69,0,0,1,.35.26,1,1,0,0,1,.17.39,3,3,0,0,1,0,.51v1.92h-.53V22.6a1.5,1.5,0,0,0-.06-.49.53.53,0,0,0-.22-.25.64.64,0,0,0-.37-.1.82.82,0,0,0-.58.22,1.06,1.06,0,0,0-.24.81v1.7Z" transform="translate(-2.4 -6.24)"/><path class="cls-5" d="M77.28,24.49V21.38h.47v.44a1.12,1.12,0,0,1,1-.51,1.27,1.27,0,0,1,.52.1.74.74,0,0,1,.35.26,1.15,1.15,0,0,1,.17.39c0,.1,0,.27,0,.51v1.92h-.52V22.6a1.5,1.5,0,0,0-.06-.49.59.59,0,0,0-.22-.25.66.66,0,0,0-.37-.1.82.82,0,0,0-.58.22,1,1,0,0,0-.25.81v1.7Z" transform="translate(-2.4 -6.24)"/><path class="cls-5" d="M80.62,20.8v-.61h.52v.61Zm0,3.69V21.38h.52v3.11Z" transform="translate(-2.4 -6.24)"/><path class="cls-5" d="M82,24.49V21.38h.47v.44a1.12,1.12,0,0,1,1-.51,1.27,1.27,0,0,1,.52.1.79.79,0,0,1,.35.26,1.15,1.15,0,0,1,.17.39c0,.1,0,.27,0,.51v1.92H84V22.6a1.5,1.5,0,0,0-.06-.49.59.59,0,0,0-.22-.25.66.66,0,0,0-.37-.1.82.82,0,0,0-.58.22,1,1,0,0,0-.25.81v1.7Z" transform="translate(-2.4 -6.24)"/><path class="cls-5" d="M85.19,24.75l.51.07a.48.48,0,0,0,.18.35.85.85,0,0,0,.53.14.92.92,0,0,0,.57-.14.78.78,0,0,0,.27-.41,3.34,3.34,0,0,0,0-.68,1.09,1.09,0,0,1-.86.41,1.19,1.19,0,0,1-1-.47,1.77,1.77,0,0,1-.35-1.11,2,2,0,0,1,.16-.82,1.29,1.29,0,0,1,.47-.58,1.22,1.22,0,0,1,.72-.2,1.1,1.1,0,0,1,.91.44v-.37h.48v2.69a2.56,2.56,0,0,1-.15,1,1,1,0,0,1-.46.47,1.62,1.62,0,0,1-.79.18,1.48,1.48,0,0,1-.9-.25A.84.84,0,0,1,85.19,24.75Zm.43-1.87a1.31,1.31,0,0,0,.25.89.79.79,0,0,0,1.21,0,1.64,1.64,0,0,0,0-1.74.79.79,0,0,0-.61-.29.76.76,0,0,0-.6.29A1.29,1.29,0,0,0,85.62,22.88Z" transform="translate(-2.4 -6.24)"/><path class="cls-5" d="M28.91,31.69V28.58h.47v.47a1.48,1.48,0,0,1,.34-.44.59.59,0,0,1,.34-.1,1,1,0,0,1,.54.17l-.18.49a.74.74,0,0,0-.39-.12.51.51,0,0,0-.31.11.47.47,0,0,0-.19.28,2.06,2.06,0,0,0-.09.62v1.63Z" transform="translate(-2.4 -6.24)"/><path class="cls-5" d="M32.94,31.3a1.88,1.88,0,0,1-.56.36,1.81,1.81,0,0,1-.58.1,1.17,1.17,0,0,1-.79-.25.84.84,0,0,1-.27-.64.87.87,0,0,1,.1-.42.79.79,0,0,1,.27-.3,1.21,1.21,0,0,1,.38-.18A4.51,4.51,0,0,1,32,29.9a5.38,5.38,0,0,0,.94-.19v-.13a.59.59,0,0,0-.15-.46.86.86,0,0,0-.6-.18,1,1,0,0,0-.55.13.87.87,0,0,0-.26.46l-.51-.07a1.17,1.17,0,0,1,.23-.53,1,1,0,0,1,.46-.31,2.37,2.37,0,0,1,1.36,0,.78.78,0,0,1,.53.59,4.88,4.88,0,0,1,0,.49v.7a5.84,5.84,0,0,0,0,.93,1.07,1.07,0,0,0,.13.38h-.55A1.38,1.38,0,0,1,32.94,31.3Zm0-1.17a4.82,4.82,0,0,1-.86.2,1.91,1.91,0,0,0-.46.1.51.51,0,0,0-.21.17.45.45,0,0,0-.07.25.43.43,0,0,0,.16.35.64.64,0,0,0,.46.15,1.1,1.1,0,0,0,.55-.14.93.93,0,0,0,.35-.36,1.44,1.44,0,0,0,.08-.53Z" transform="translate(-2.4 -6.24)"/><path class="cls-5" d="M34.25,31.69V28.58h.48V29a1.1,1.1,0,0,1,1-.51,1.22,1.22,0,0,1,.51.1.77.77,0,0,1,.36.26,1.14,1.14,0,0,1,.16.39,3,3,0,0,1,0,.51v1.92h-.53V29.8a1.5,1.5,0,0,0-.06-.49.48.48,0,0,0-.22-.25.7.7,0,0,0-.37-.1.84.84,0,0,0-.58.22,1.06,1.06,0,0,0-.24.81v1.7Z" transform="translate(-2.4 -6.24)"/><path class="cls-5" d="M37.49,32,38,32a.51.51,0,0,0,.18.35.87.87,0,0,0,.54.14.91.91,0,0,0,.56-.14.68.68,0,0,0,.27-.41,3.34,3.34,0,0,0,0-.68,1.09,1.09,0,0,1-.86.41,1.18,1.18,0,0,1-1-.46,1.76,1.76,0,0,1-.35-1.12,2,2,0,0,1,.16-.82,1.2,1.2,0,0,1,1.18-.78,1.1,1.1,0,0,1,.91.44v-.37h.49v2.69a2.56,2.56,0,0,1-.15,1,1,1,0,0,1-.47.47,1.59,1.59,0,0,1-.79.18,1.48,1.48,0,0,1-.9-.25A.84.84,0,0,1,37.49,32Zm.44-1.87a1.37,1.37,0,0,0,.24.89.8.8,0,0,0,1.22,0,1.32,1.32,0,0,0,.25-.88,1.28,1.28,0,0,0-.26-.86.78.78,0,0,0-1.21,0A1.29,1.29,0,0,0,37.93,30.08Z" transform="translate(-2.4 -6.24)"/><path class="cls-5" d="M43.05,30.69l.55.06a1.34,1.34,0,0,1-.48.74,1.41,1.41,0,0,1-.89.27,1.43,1.43,0,0,1-1.08-.42,1.64,1.64,0,0,1-.4-1.18,1.73,1.73,0,0,1,.4-1.22,1.37,1.37,0,0,1,1.05-.43,1.33,1.33,0,0,1,1,.42,1.66,1.66,0,0,1,.4,1.2.88.88,0,0,1,0,.14H41.29a1.2,1.2,0,0,0,.29.78.88.88,0,0,0,.65.27.82.82,0,0,0,.5-.15A1,1,0,0,0,43.05,30.69Zm-1.73-.86h1.74a1.06,1.06,0,0,0-.2-.59.81.81,0,0,0-.65-.3.84.84,0,0,0-.61.24A1,1,0,0,0,41.32,29.83Z" transform="translate(-2.4 -6.24)"/><path class="cls-5" d="M32.05,64.39l.57.14A1.94,1.94,0,0,1,32,65.6a1.78,1.78,0,0,1-1.13.37,2,2,0,0,1-1.13-.29,1.7,1.7,0,0,1-.66-.82,2.91,2.91,0,0,1-.23-1.15,2.46,2.46,0,0,1,.26-1.17,1.79,1.79,0,0,1,.73-.76,2.14,2.14,0,0,1,1-.26,1.74,1.74,0,0,1,1.08.33,1.7,1.7,0,0,1,.61.93l-.56.13a1.35,1.35,0,0,0-.43-.69,1.18,1.18,0,0,0-.72-.21,1.35,1.35,0,0,0-.82.24,1.29,1.29,0,0,0-.47.63,2.62,2.62,0,0,0-.13.83,2.8,2.8,0,0,0,.15,1,1.27,1.27,0,0,0,.5.61,1.46,1.46,0,0,0,.73.2,1.19,1.19,0,0,0,.81-.28A1.4,1.4,0,0,0,32.05,64.39Z" transform="translate(-2.4 -6.24)"/><path class="cls-5" d="M33.05,64.34a1.59,1.59,0,0,1,.48-1.28,1.47,1.47,0,0,1,1-.35,1.39,1.39,0,0,1,1.05.42A1.61,1.61,0,0,1,36,64.29a2.09,2.09,0,0,1-.18.95,1.23,1.23,0,0,1-.53.53,1.49,1.49,0,0,1-.75.19,1.38,1.38,0,0,1-1-.42A1.66,1.66,0,0,1,33.05,64.34Zm.54,0a1.28,1.28,0,0,0,.27.89.82.82,0,0,0,.65.3.85.85,0,0,0,.66-.3,1.37,1.37,0,0,0,.26-.91,1.23,1.23,0,0,0-.27-.87.82.82,0,0,0-.65-.3.84.84,0,0,0-.65.29A1.31,1.31,0,0,0,33.59,64.34Z" transform="translate(-2.4 -6.24)"/><path class="cls-5" d="M36.59,65.89V62.78h.47v.44a1.12,1.12,0,0,1,1-.51,1.27,1.27,0,0,1,.52.1.82.82,0,0,1,.35.27,1,1,0,0,1,.16.39,2.89,2.89,0,0,1,0,.51v1.91h-.52V64a1.43,1.43,0,0,0-.06-.48.62.62,0,0,0-.22-.26.75.75,0,0,0-.37-.09.84.84,0,0,0-.58.21,1,1,0,0,0-.25.81v1.7Z" transform="translate(-2.4 -6.24)"/><path class="cls-5" d="M41.07,65.42l.08.47a2,2,0,0,1-.4,0,.88.88,0,0,1-.44-.09.53.53,0,0,1-.23-.24A2,2,0,0,1,40,65V63.19h-.39v-.41H40V62l.52-.32v1.09h.53v.41h-.53V65a.85.85,0,0,0,0,.29.22.22,0,0,0,.09.1.3.3,0,0,0,.18,0Z" transform="translate(-2.4 -6.24)"/><path class="cls-5" d="M41.59,62.2v-.6h.53v.6Zm0,3.69V62.78h.53v3.11Z" transform="translate(-2.4 -6.24)"/><path class="cls-5" d="M42.92,65.89V62.78h.48v.44a1.12,1.12,0,0,1,1-.51,1.19,1.19,0,0,1,.51.1.86.86,0,0,1,.36.27,1,1,0,0,1,.16.39,2.89,2.89,0,0,1,0,.51v1.91h-.53V64a1.43,1.43,0,0,0-.06-.48.5.5,0,0,0-.22-.26.69.69,0,0,0-.36-.09.89.89,0,0,0-.59.21,1.06,1.06,0,0,0-.24.81v1.7Z" transform="translate(-2.4 -6.24)"/><path class="cls-5" d="M48.3,65.89v-.45a1.13,1.13,0,0,1-1,.52,1.25,1.25,0,0,1-.51-.1.86.86,0,0,1-.36-.27,1,1,0,0,1-.16-.39,2.85,2.85,0,0,1,0-.49V62.78h.53v1.73a3.2,3.2,0,0,0,0,.55.53.53,0,0,0,.21.33.65.65,0,0,0,.4.12.86.86,0,0,0,.44-.12.68.68,0,0,0,.3-.33,1.91,1.91,0,0,0,.08-.61V62.78h.53v3.11Z" transform="translate(-2.4 -6.24)"/><path class="cls-5" d="M49.4,64.34a1.59,1.59,0,0,1,.48-1.28,1.45,1.45,0,0,1,1-.35,1.39,1.39,0,0,1,1,.42,1.61,1.61,0,0,1,.41,1.16,2.09,2.09,0,0,1-.18.95,1.23,1.23,0,0,1-.53.53,1.49,1.49,0,0,1-.75.19,1.4,1.4,0,0,1-1.06-.42A1.66,1.66,0,0,1,49.4,64.34Zm.54,0a1.33,1.33,0,0,0,.26.89.85.85,0,0,0,.66.3.82.82,0,0,0,.65-.3,1.32,1.32,0,0,0,.26-.91,1.22,1.22,0,0,0-.26-.87.82.82,0,0,0-.65-.3.88.88,0,0,0-.66.29A1.36,1.36,0,0,0,49.94,64.34Z" transform="translate(-2.4 -6.24)"/><path class="cls-5" d="M55,65.89v-.45A1.13,1.13,0,0,1,54,66a1.27,1.27,0,0,1-.52-.1.76.76,0,0,1-.35-.27A1,1,0,0,1,53,65.2a2.85,2.85,0,0,1,0-.49V62.78h.53v1.73a3.2,3.2,0,0,0,0,.55.53.53,0,0,0,.21.33.65.65,0,0,0,.4.12.89.89,0,0,0,.45-.12.72.72,0,0,0,.29-.33,1.63,1.63,0,0,0,.09-.61V62.78h.52v3.11Z" transform="translate(-2.4 -6.24)"/><path class="cls-5" d="M56.06,65l.52-.08a.7.7,0,0,0,.25.48.85.85,0,0,0,.56.17.83.83,0,0,0,.54-.15A.46.46,0,0,0,58.1,65a.33.33,0,0,0-.15-.28,4,4,0,0,0-.54-.18,4.45,4.45,0,0,1-.81-.25.81.81,0,0,1-.34-.29.88.88,0,0,1-.11-.42.86.86,0,0,1,.09-.39.91.91,0,0,1,.26-.29,1.35,1.35,0,0,1,.34-.16,1.63,1.63,0,0,1,.45-.06,1.84,1.84,0,0,1,.65.11.82.82,0,0,1,.4.28,1.18,1.18,0,0,1,.19.48l-.52.07a.54.54,0,0,0-.2-.37.76.76,0,0,0-.48-.14.89.89,0,0,0-.52.12.36.36,0,0,0-.15.29.3.3,0,0,0,.06.18.45.45,0,0,0,.2.14l.47.14a8,8,0,0,1,.78.24.81.81,0,0,1,.35.28.79.79,0,0,1,.12.45.88.88,0,0,1-.15.49,1,1,0,0,1-.44.37,1.76,1.76,0,0,1-.66.12,1.44,1.44,0,0,1-.92-.25A1.16,1.16,0,0,1,56.06,65Z" transform="translate(-2.4 -6.24)"/><path class="cls-5" d="M60.93,65.89V62.78h.48v.47a1.27,1.27,0,0,1,.33-.43.6.6,0,0,1,.34-.11,1,1,0,0,1,.54.17l-.18.49a.72.72,0,0,0-.39-.11.5.5,0,0,0-.31.1.59.59,0,0,0-.19.29,2,2,0,0,0-.09.61v1.63Z" transform="translate(-2.4 -6.24)"/><path class="cls-5" d="M65,65.89v-.45A1.13,1.13,0,0,1,64,66a1.27,1.27,0,0,1-.52-.1.82.82,0,0,1-.35-.27A.87.87,0,0,1,63,65.2a2,2,0,0,1,0-.49V62.78h.53v1.73a3.2,3.2,0,0,0,0,.55.63.63,0,0,0,.21.33.65.65,0,0,0,.4.12.89.89,0,0,0,.45-.12.66.66,0,0,0,.29-.33,1.63,1.63,0,0,0,.09-.61V62.78h.53v3.11Z" transform="translate(-2.4 -6.24)"/><path class="cls-5" d="M66.27,65.89V62.78h.48v.44a1.12,1.12,0,0,1,1-.51,1.22,1.22,0,0,1,.51.1.86.86,0,0,1,.36.27,1,1,0,0,1,.16.39,2.89,2.89,0,0,1,0,.51v1.91h-.53V64a1.43,1.43,0,0,0-.06-.48.5.5,0,0,0-.22-.26.69.69,0,0,0-.36-.09.89.89,0,0,0-.59.21,1.06,1.06,0,0,0-.24.81v1.7Z" transform="translate(-2.4 -6.24)"/><path class="cls-5" d="M69.61,65.89V62.78h.47v.44a1.12,1.12,0,0,1,1-.51,1.27,1.27,0,0,1,.52.1.76.76,0,0,1,.35.27,1,1,0,0,1,.17.39,2.89,2.89,0,0,1,0,.51v1.91h-.53V64a1.43,1.43,0,0,0-.06-.48.55.55,0,0,0-.22-.26.72.72,0,0,0-.37-.09.86.86,0,0,0-.58.21,1.06,1.06,0,0,0-.24.81v1.7Z" transform="translate(-2.4 -6.24)"/><path class="cls-5" d="M73,62.2v-.6h.53v.6Zm0,3.69V62.78h.53v3.11Z" transform="translate(-2.4 -6.24)"/><path class="cls-5" d="M74.28,65.89V62.78h.47v.44a1.12,1.12,0,0,1,1-.51,1.27,1.27,0,0,1,.52.1.76.76,0,0,1,.35.27,1,1,0,0,1,.17.39,2.89,2.89,0,0,1,0,.51v1.91h-.53V64a1.43,1.43,0,0,0-.06-.48.55.55,0,0,0-.22-.26.72.72,0,0,0-.37-.09.86.86,0,0,0-.58.21,1.06,1.06,0,0,0-.24.81v1.7Z" transform="translate(-2.4 -6.24)"/><path class="cls-5" d="M77.52,66.15l.51.08a.47.47,0,0,0,.18.34.87.87,0,0,0,.54.15.91.91,0,0,0,.56-.15.65.65,0,0,0,.27-.41,3.23,3.23,0,0,0,0-.67,1.08,1.08,0,0,1-.86.4,1.15,1.15,0,0,1-1-.46,1.76,1.76,0,0,1-.36-1.11,2,2,0,0,1,.17-.82,1.22,1.22,0,0,1,.46-.58,1.27,1.27,0,0,1,.72-.21,1.11,1.11,0,0,1,.91.45v-.38h.49v2.69a2.5,2.5,0,0,1-.15,1,1.14,1.14,0,0,1-.47.48,1.59,1.59,0,0,1-.79.18,1.48,1.48,0,0,1-.9-.26A.82.82,0,0,1,77.52,66.15ZM78,64.28a1.33,1.33,0,0,0,.24.89.76.76,0,0,0,.61.29.81.81,0,0,0,.61-.28,1.34,1.34,0,0,0,.24-.88,1.26,1.26,0,0,0-.25-.86.76.76,0,0,0-.61-.29.78.78,0,0,0-.6.28A1.31,1.31,0,0,0,78,64.28Z" transform="translate(-2.4 -6.24)"/><path class="cls-5" d="M82.61,65.89V62.78h.48v.47a1.27,1.27,0,0,1,.33-.43.62.62,0,0,1,.34-.11,1,1,0,0,1,.54.17l-.18.49a.69.69,0,0,0-.38-.11.48.48,0,0,0-.31.1.55.55,0,0,0-.2.29,2,2,0,0,0-.09.61v1.63Z" transform="translate(-2.4 -6.24)"/><path class="cls-5" d="M86.65,65.51a2.25,2.25,0,0,1-.57.35,1.57,1.57,0,0,1-.58.1,1.14,1.14,0,0,1-.79-.25.84.84,0,0,1-.27-.64.87.87,0,0,1,.1-.42.89.89,0,0,1,.28-.3,1.33,1.33,0,0,1,.38-.17,2.63,2.63,0,0,1,.46-.08,4.72,4.72,0,0,0,.94-.18,1,1,0,0,0,0-.14.57.57,0,0,0-.15-.45.9.9,0,0,0-.6-.18.91.91,0,0,0-.55.13.76.76,0,0,0-.26.46l-.52-.07a1.34,1.34,0,0,1,.23-.54,1,1,0,0,1,.47-.31,2.14,2.14,0,0,1,.7-.11,1.91,1.91,0,0,1,.65.09A1,1,0,0,1,87,63a.79.79,0,0,1,.16.36,2.62,2.62,0,0,1,0,.49v.7a8.38,8.38,0,0,0,0,.93,1.26,1.26,0,0,0,.13.37h-.55A1.06,1.06,0,0,1,86.65,65.51Zm-.05-1.18a3.41,3.41,0,0,1-.86.2,1.92,1.92,0,0,0-.46.11.34.34,0,0,0-.2.17.44.44,0,0,0-.08.25.43.43,0,0,0,.16.35.71.71,0,0,0,.47.14,1.08,1.08,0,0,0,.54-.13.78.78,0,0,0,.35-.37,1.23,1.23,0,0,0,.08-.53Z" transform="translate(-2.4 -6.24)"/><path class="cls-5" d="M88,65.89V62.78h.47v.44a1.12,1.12,0,0,1,1-.51,1.27,1.27,0,0,1,.52.1.89.89,0,0,1,.35.27,1,1,0,0,1,.16.39,2.89,2.89,0,0,1,0,.51v1.91H90V64a1.18,1.18,0,0,0-.07-.48.53.53,0,0,0-.21-.26.75.75,0,0,0-.37-.09.84.84,0,0,0-.58.21,1,1,0,0,0-.25.81v1.7Z" transform="translate(-2.4 -6.24)"/><path class="cls-5" d="M91.2,66.15l.51.08a.47.47,0,0,0,.18.34.86.86,0,0,0,.53.15.92.92,0,0,0,.57-.15.74.74,0,0,0,.27-.41,3.23,3.23,0,0,0,0-.67,1.09,1.09,0,0,1-.87.4,1.18,1.18,0,0,1-1-.46,1.81,1.81,0,0,1-.35-1.11,2,2,0,0,1,.16-.82,1.24,1.24,0,0,1,.47-.58,1.22,1.22,0,0,1,.72-.21,1.13,1.13,0,0,1,.91.45v-.38h.48v2.69a2.5,2.5,0,0,1-.15,1,1.09,1.09,0,0,1-.47.48,1.55,1.55,0,0,1-.78.18,1.44,1.44,0,0,1-.9-.26A.82.82,0,0,1,91.2,66.15Zm.43-1.87a1.28,1.28,0,0,0,.25.89.76.76,0,0,0,.6.29.78.78,0,0,0,.61-.28,1.28,1.28,0,0,0,.25-.88,1.32,1.32,0,0,0-.25-.86.77.77,0,0,0-.61-.29.75.75,0,0,0-.6.28A1.25,1.25,0,0,0,91.63,64.28Z" transform="translate(-2.4 -6.24)"/><path class="cls-5" d="M96.76,64.89l.54.07a1.31,1.31,0,0,1-.47.74,1.42,1.42,0,0,1-.89.26,1.44,1.44,0,0,1-1.09-.42,1.67,1.67,0,0,1-.4-1.18,1.73,1.73,0,0,1,.41-1.22,1.4,1.4,0,0,1,1-.43,1.33,1.33,0,0,1,1,.43,1.69,1.69,0,0,1,.39,1.19v.14H95a1.18,1.18,0,0,0,.29.79.86.86,0,0,0,.65.27.79.79,0,0,0,.49-.15A1,1,0,0,0,96.76,64.89ZM95,64h1.73a1.11,1.11,0,0,0-.19-.59.83.83,0,0,0-.66-.31.86.86,0,0,0-.61.25A1,1,0,0,0,95,64Z" transform="translate(-2.4 -6.24)"/></g></svg>