<svg xmlns="http://www.w3.org/2000/svg" xmlns:xlink="http://www.w3.org/1999/xlink" viewBox="0 0 97.22 89.87"><defs><style>.cls-1{fill:#fff;}.cls-2{clip-path:url(#clip-path);}.cls-3,.cls-4,.cls-5{fill:none;}.cls-3{stroke:#b5b5b6;stroke-width:3px;}.cls-4,.cls-5{stroke:#231815;}.cls-4{stroke-linejoin:round;stroke-dasharray:3.1 1.5;}.cls-5{stroke-miterlimit:10;stroke-width:0.4px;}.cls-6{fill:#231815;}</style><clipPath id="clip-path" transform="translate(-2.4 -4.9)"><rect class="cls-1" x="27.62" y="5.1" width="70.62" height="75"/></clipPath></defs><g id="illust"><rect class="cls-1" x="25.22" y="0.2" width="70.62" height="75"/><g class="cls-2"><line class="cls-3" x1="25.22" y1="4.95" x2="96.23" y2="4.95"/><polyline class="cls-4" points="25.22 4.95 85.25 4.95 95.51 20.56"/><line class="cls-3" x1="25.22" y1="47.1" x2="96.23" y2="47.1"/><line class="cls-4" x1="25.22" y1="47.1" x2="96.23" y2="47.1"/></g><line class="cls-5" x1="95.84" y1="4.95" x2="25.22" y2="4.95"/><line class="cls-5" x1="95.84" y1="28.37" x2="25.22" y2="28.37"/><line class="cls-5" x1="95.84" y1="51.78" x2="25.22" y2="51.78"/><rect class="cls-5" x="25.22" y="0.2" width="70.62" height="75"/><line class="cls-5" x1="60.53" y1="7.66" x2="60.53" y2="0.2"/><line class="cls-5" x1="60.53" y1="53.49" x2="60.53" y2="15.59"/><line class="cls-5" x1="60.53" y1="75.2" x2="60.53" y2="61.66"/></g><g id="japanese"><path class="cls-6" d="M15.93,11.24l.51-.05a.87.87,0,0,0,.24.52.67.67,0,0,0,.47.16.79.79,0,0,0,.43-.11.86.86,0,0,0,.3-.3,1.87,1.87,0,0,0,.19-.5,2.74,2.74,0,0,0,.08-.64v-.11a1.21,1.21,0,0,1-.43.41,1.15,1.15,0,0,1-.6.16,1.2,1.2,0,0,1-.9-.39,1.41,1.41,0,0,1-.37-1,1.45,1.45,0,0,1,.39-1,1.26,1.26,0,0,1,1-.4,1.41,1.41,0,0,1,1.3.87A3.18,3.18,0,0,1,18.68,10a3.89,3.89,0,0,1-.18,1.31,1.59,1.59,0,0,1-.53.74,1.41,1.41,0,0,1-.83.26,1.26,1.26,0,0,1-.83-.28A1.21,1.21,0,0,1,15.93,11.24Zm2.16-1.89a1.05,1.05,0,0,0-.24-.73.78.78,0,0,0-.58-.26.79.79,0,0,0-.62.29,1.06,1.06,0,0,0-.26.74,1,1,0,0,0,.25.67.82.82,0,0,0,.61.25.76.76,0,0,0,.6-.25A1,1,0,0,0,18.09,9.35Z" transform="translate(-2.4 -4.9)"/><path class="cls-6" d="M19.19,10.12a3.78,3.78,0,0,1,.16-1.23,1.48,1.48,0,0,1,.46-.72,1.26,1.26,0,0,1,.78-.25,1.34,1.34,0,0,1,.61.14,1.26,1.26,0,0,1,.43.4,2.2,2.2,0,0,1,.26.64,4,4,0,0,1,.1,1,3.76,3.76,0,0,1-.16,1.22,1.44,1.44,0,0,1-.46.71,1.2,1.2,0,0,1-.78.26,1.18,1.18,0,0,1-1-.45A2.85,2.85,0,0,1,19.19,10.12Zm.54,0a2.61,2.61,0,0,0,.25,1.4.71.71,0,0,0,.61.35.72.72,0,0,0,.61-.35,2.71,2.71,0,0,0,.25-1.4,2.73,2.73,0,0,0-.25-1.41.73.73,0,0,0-.62-.35.68.68,0,0,0-.58.31A2.73,2.73,0,0,0,19.73,10.12Z" transform="translate(-2.4 -4.9)"/><path class="cls-6" d="M22.53,10.12a4.12,4.12,0,0,1,.15-1.23,1.56,1.56,0,0,1,.47-.72,1.21,1.21,0,0,1,.78-.25,1.27,1.27,0,0,1,.6.14,1.1,1.1,0,0,1,.43.4,2,2,0,0,1,.27.64,4.47,4.47,0,0,1,.1,1,4.05,4.05,0,0,1-.16,1.22,1.52,1.52,0,0,1-.46.71,1.2,1.2,0,0,1-.78.26,1.18,1.18,0,0,1-1-.45A2.85,2.85,0,0,1,22.53,10.12Zm.54,0a2.74,2.74,0,0,0,.24,1.4.72.72,0,0,0,1.23,0,2.74,2.74,0,0,0,.24-1.4,2.75,2.75,0,0,0-.24-1.41.73.73,0,0,0-.62-.35.66.66,0,0,0-.58.31A2.73,2.73,0,0,0,23.07,10.12Z" transform="translate(-2.4 -4.9)"/><path class="cls-6" d="M18.59,32.12l-.53,0a.94.94,0,0,0-.2-.45.67.67,0,0,0-.52-.22.71.71,0,0,0-.45.14,1.29,1.29,0,0,0-.39.53,3,3,0,0,0-.15,1,1.2,1.2,0,0,1,.47-.43,1.27,1.27,0,0,1,.58-.14,1.17,1.17,0,0,1,.89.39,1.37,1.37,0,0,1,.37,1,1.59,1.59,0,0,1-.17.75,1.33,1.33,0,0,1-.48.54,1.31,1.31,0,0,1-.69.18A1.37,1.37,0,0,1,16.24,35a2.52,2.52,0,0,1-.41-1.6,2.83,2.83,0,0,1,.46-1.81,1.33,1.33,0,0,1,1.08-.5,1.16,1.16,0,0,1,1.22,1.07ZM16.43,34a1.2,1.2,0,0,0,.12.52,1,1,0,0,0,.32.38.9.9,0,0,0,.44.13.74.74,0,0,0,.57-.27,1.08,1.08,0,0,0,.24-.74,1,1,0,0,0-.23-.7.79.79,0,0,0-.6-.25.82.82,0,0,0-.61.25A1,1,0,0,0,16.43,34Z" transform="translate(-2.4 -4.9)"/><path class="cls-6" d="M19.19,33.25A3.78,3.78,0,0,1,19.35,32a1.4,1.4,0,0,1,.46-.71,1.2,1.2,0,0,1,.78-.26,1.34,1.34,0,0,1,.61.14,1.36,1.36,0,0,1,.43.4,2.2,2.2,0,0,1,.26.64,4,4,0,0,1,.1,1,3.76,3.76,0,0,1-.16,1.22,1.48,1.48,0,0,1-.46.72,1.2,1.2,0,0,1-.78.25,1.18,1.18,0,0,1-1-.45A2.81,2.81,0,0,1,19.19,33.25Zm.54,0A2.68,2.68,0,0,0,20,34.66a.7.7,0,0,0,1.22,0,2.71,2.71,0,0,0,.25-1.4,2.73,2.73,0,0,0-.25-1.41.75.75,0,0,0-.62-.35.68.68,0,0,0-.58.31A2.73,2.73,0,0,0,19.73,33.25Z" transform="translate(-2.4 -4.9)"/><path class="cls-6" d="M22.53,33.25A4.12,4.12,0,0,1,22.68,32a1.48,1.48,0,0,1,.47-.71,1.17,1.17,0,0,1,.78-.26,1.27,1.27,0,0,1,.6.14,1.18,1.18,0,0,1,.43.4,2,2,0,0,1,.27.64,4.47,4.47,0,0,1,.1,1,4.05,4.05,0,0,1-.16,1.22,1.55,1.55,0,0,1-.46.72,1.2,1.2,0,0,1-.78.25A1.18,1.18,0,0,1,23,35,2.81,2.81,0,0,1,22.53,33.25Zm.54,0a2.81,2.81,0,0,0,.24,1.41.75.75,0,0,0,.62.35.73.73,0,0,0,.61-.36,2.74,2.74,0,0,0,.24-1.4,2.75,2.75,0,0,0-.24-1.41.75.75,0,0,0-.62-.35.66.66,0,0,0-.58.31A2.73,2.73,0,0,0,23.07,33.25Z" transform="translate(-2.4 -4.9)"/><path class="cls-6" d="M15.85,58.5l.53-.07a1.2,1.2,0,0,0,.31.65.77.77,0,0,0,.53.19.85.85,0,0,0,.63-.25.9.9,0,0,0,.26-.64.82.82,0,0,0-.84-.84,1.54,1.54,0,0,0-.38.06l.06-.46H17a1,1,0,0,0,.6-.17.61.61,0,0,0,.27-.54.62.62,0,0,0-.19-.48.69.69,0,0,0-.51-.19.7.7,0,0,0-.51.19,1,1,0,0,0-.27.58l-.52-.09a1.35,1.35,0,0,1,.44-.83,1.29,1.29,0,0,1,.85-.29,1.44,1.44,0,0,1,.65.15,1.19,1.19,0,0,1,.45.41,1.13,1.13,0,0,1,.16.56,1,1,0,0,1-.15.51,1,1,0,0,1-.45.36,1,1,0,0,1,.6.36,1.14,1.14,0,0,1,.21.7,1.28,1.28,0,0,1-.41,1,1.46,1.46,0,0,1-1,.39,1.33,1.33,0,0,1-.94-.34A1.3,1.3,0,0,1,15.85,58.5Z" transform="translate(-2.4 -4.9)"/><path class="cls-6" d="M19.19,57.52a3.78,3.78,0,0,1,.16-1.23,1.48,1.48,0,0,1,.46-.72,1.26,1.26,0,0,1,.78-.25,1.34,1.34,0,0,1,.61.14,1.26,1.26,0,0,1,.43.4,2.2,2.2,0,0,1,.26.64,4,4,0,0,1,.1,1,3.76,3.76,0,0,1-.16,1.22,1.48,1.48,0,0,1-.46.72,1.26,1.26,0,0,1-.78.25,1.18,1.18,0,0,1-1-.45A2.83,2.83,0,0,1,19.19,57.52Zm.54,0a2.61,2.61,0,0,0,.25,1.4.71.71,0,0,0,.61.35.72.72,0,0,0,.61-.35,4.07,4.07,0,0,0,0-2.81.75.75,0,0,0-.62-.35.68.68,0,0,0-.58.31A2.73,2.73,0,0,0,19.73,57.52Z" transform="translate(-2.4 -4.9)"/><path class="cls-6" d="M22.53,57.52a4.12,4.12,0,0,1,.15-1.23,1.56,1.56,0,0,1,.47-.72,1.21,1.21,0,0,1,.78-.25,1.27,1.27,0,0,1,.6.14,1.1,1.1,0,0,1,.43.4,2,2,0,0,1,.27.64,4.47,4.47,0,0,1,.1,1,4.05,4.05,0,0,1-.16,1.22,1.55,1.55,0,0,1-.46.72,1.26,1.26,0,0,1-.78.25,1.18,1.18,0,0,1-1-.45A2.83,2.83,0,0,1,22.53,57.52Zm.54,0a2.74,2.74,0,0,0,.24,1.4.72.72,0,0,0,1.23,0,4.23,4.23,0,0,0,0-2.81.75.75,0,0,0-.62-.35.66.66,0,0,0-.58.31A2.73,2.73,0,0,0,23.07,57.52Z" transform="translate(-2.4 -4.9)"/><path class="cls-6" d="M22.53,79.76a4,4,0,0,1,.15-1.22,1.56,1.56,0,0,1,.47-.72,1.35,1.35,0,0,1,1.38-.11,1,1,0,0,1,.43.4,1.87,1.87,0,0,1,.27.64,4.38,4.38,0,0,1,.1,1A4.05,4.05,0,0,1,25.17,81a1.55,1.55,0,0,1-.46.72A1.32,1.32,0,0,1,23,81.51,2.87,2.87,0,0,1,22.53,79.76Zm.54,0a2.75,2.75,0,0,0,.24,1.41.72.72,0,0,0,1.23,0,2.81,2.81,0,0,0,.24-1.41,2.75,2.75,0,0,0-.24-1.41.75.75,0,0,0-.62-.35.69.69,0,0,0-.58.31A2.75,2.75,0,0,0,23.07,79.76Z" transform="translate(-2.4 -4.9)"/><path class="cls-6" d="M15.85,52.88l.53-.07a1.16,1.16,0,0,0,.31.64.73.73,0,0,0,.53.2.82.82,0,0,0,.63-.26.87.87,0,0,0,.26-.64.78.78,0,0,0-.24-.59.81.81,0,0,0-.6-.24,1.54,1.54,0,0,0-.38.06l.06-.46H17a1.13,1.13,0,0,0,.6-.17.61.61,0,0,0,.27-.55.65.65,0,0,0-.19-.48.73.73,0,0,0-.51-.19.71.71,0,0,0-.51.2,1,1,0,0,0-.27.58l-.52-.1a1.35,1.35,0,0,1,.44-.82,1.29,1.29,0,0,1,.85-.29,1.44,1.44,0,0,1,.65.15,1.19,1.19,0,0,1,.45.41,1.13,1.13,0,0,1,.16.56.89.89,0,0,1-.15.5,1,1,0,0,1-.45.37,1,1,0,0,1,.6.36,1.11,1.11,0,0,1,.21.69,1.28,1.28,0,0,1-.41,1,1.46,1.46,0,0,1-1,.39,1.33,1.33,0,0,1-.94-.34A1.3,1.3,0,0,1,15.85,52.88Z" transform="translate(-2.4 -4.9)"/><path class="cls-6" d="M21.92,50.77l-.52,0a1,1,0,0,0-.2-.45.7.7,0,0,0-.53-.23.77.77,0,0,0-.44.14,1.21,1.21,0,0,0-.39.53,2.66,2.66,0,0,0-.15,1,1.13,1.13,0,0,1,.47-.43,1.15,1.15,0,0,1,.57-.14,1.23,1.23,0,0,1,.9.38,1.4,1.4,0,0,1,.37,1,1.72,1.72,0,0,1-.17.75,1.3,1.3,0,0,1-.48.53,1.44,1.44,0,0,1-1.77-.3,2.44,2.44,0,0,1-.41-1.6,2.92,2.92,0,0,1,.45-1.81,1.33,1.33,0,0,1,1.09-.49,1.23,1.23,0,0,1,.83.28A1.21,1.21,0,0,1,21.92,50.77Zm-2.15,1.85a1.17,1.17,0,0,0,.12.52.83.83,0,0,0,.76.51.74.74,0,0,0,.57-.27,1.05,1.05,0,0,0,.24-.73,1,1,0,0,0-.24-.7.76.76,0,0,0-.59-.26A.83.83,0,0,0,20,52,.9.9,0,0,0,19.77,52.62Z" transform="translate(-2.4 -4.9)"/><path class="cls-6" d="M22.53,51.89a4.09,4.09,0,0,1,.15-1.22,1.56,1.56,0,0,1,.47-.72,1.16,1.16,0,0,1,.78-.25,1.27,1.27,0,0,1,.6.14,1,1,0,0,1,.43.4,1.87,1.87,0,0,1,.27.64,4.44,4.44,0,0,1,.1,1,4,4,0,0,1-.16,1.22,1.55,1.55,0,0,1-.46.72,1.2,1.2,0,0,1-.78.25,1.17,1.17,0,0,1-1-.44A2.87,2.87,0,0,1,22.53,51.89Zm.54,0a2.75,2.75,0,0,0,.24,1.41.73.73,0,0,0,.62.35.75.75,0,0,0,.61-.35,2.75,2.75,0,0,0,.24-1.41,2.81,2.81,0,0,0-.24-1.41.74.74,0,0,0-.62-.34.68.68,0,0,0-.58.3A2.78,2.78,0,0,0,23.07,51.89Z" transform="translate(-2.4 -4.9)"/><path d="M64.05,86h-.53V82.59A2.7,2.7,0,0,1,63,83a2.91,2.91,0,0,1-.56.28v-.51a3.1,3.1,0,0,0,.78-.51,2.11,2.11,0,0,0,.47-.57h.34Z" transform="translate(-2.4 -4.9)"/><path d="M99.63,85.44V86H96.79a.78.78,0,0,1,.06-.37A2,2,0,0,1,97.2,85a5,5,0,0,1,.69-.65,5.49,5.49,0,0,0,.94-.91,1,1,0,0,0,.25-.63.7.7,0,0,0-.23-.53.79.79,0,0,0-.58-.21.83.83,0,0,0-.61.22.9.9,0,0,0-.23.64l-.54-.06a1.27,1.27,0,0,1,.42-.92,1.42,1.42,0,0,1,1-.32,1.36,1.36,0,0,1,1,.34,1.13,1.13,0,0,1,.36.85,1.34,1.34,0,0,1-.11.51,1.82,1.82,0,0,1-.35.52,7.18,7.18,0,0,1-.81.76,8,8,0,0,0-.61.54,1.79,1.79,0,0,0-.22.28Z" transform="translate(-2.4 -4.9)"/><path d="M45.51,92.21l.54,0a1.08,1.08,0,0,0,.18.53.87.87,0,0,0,.43.33,1.53,1.53,0,0,0,.66.13,1.45,1.45,0,0,0,.57-.1.75.75,0,0,0,.37-.26.65.65,0,0,0,.12-.37.58.58,0,0,0-.11-.35.92.92,0,0,0-.39-.26l-.76-.21a3.16,3.16,0,0,1-.83-.27,1.07,1.07,0,0,1-.46-.4.94.94,0,0,1-.15-.53,1.1,1.1,0,0,1,.72-1,2.22,2.22,0,0,1,.79-.14,2.17,2.17,0,0,1,.84.15,1.2,1.2,0,0,1,.56.45,1.33,1.33,0,0,1,.21.68l-.54,0a.85.85,0,0,0-.3-.61,1.16,1.16,0,0,0-.75-.21,1.18,1.18,0,0,0-.75.19.54.54,0,0,0-.24.45.49.49,0,0,0,.17.38,2.2,2.2,0,0,0,.86.31,6.15,6.15,0,0,1,1,.27,1.31,1.31,0,0,1,.55.44,1.07,1.07,0,0,1,.18.61,1.17,1.17,0,0,1-.19.65,1.33,1.33,0,0,1-.57.47,2,2,0,0,1-.83.17,2.51,2.51,0,0,1-1-.17,1.3,1.3,0,0,1-.62-.51A1.49,1.49,0,0,1,45.51,92.21Z" transform="translate(-2.4 -4.9)"/><path d="M49.64,94.78V90.47h.48v.41a1.17,1.17,0,0,1,.38-.36A1.08,1.08,0,0,1,51,90.4a1.24,1.24,0,0,1,.71.21,1.34,1.34,0,0,1,.46.58,2.18,2.18,0,0,1,.15.82,2.2,2.2,0,0,1-.17.86,1.34,1.34,0,0,1-1.18.79,1,1,0,0,1-.48-.12.93.93,0,0,1-.34-.28v1.52Zm.48-2.73a1.34,1.34,0,0,0,.24.88.72.72,0,0,0,.59.29.75.75,0,0,0,.6-.3A1.37,1.37,0,0,0,51.8,92a1.41,1.41,0,0,0-.24-.89.75.75,0,0,0-.59-.29.74.74,0,0,0-.59.31A1.38,1.38,0,0,0,50.12,92.05Z" transform="translate(-2.4 -4.9)"/><path d="M55.11,92.58l.54.07a1.24,1.24,0,0,1-.48.74,1.39,1.39,0,0,1-.89.27,1.43,1.43,0,0,1-1.08-.42,1.68,1.68,0,0,1-.4-1.18,1.71,1.71,0,0,1,.41-1.22,1.37,1.37,0,0,1,1-.44,1.3,1.3,0,0,1,1,.43,1.65,1.65,0,0,1,.4,1.19v.14H53.35a1.16,1.16,0,0,0,.29.79.86.86,0,0,0,.65.27.79.79,0,0,0,.49-.15A1,1,0,0,0,55.11,92.58Zm-1.73-.85h1.73a1,1,0,0,0-.2-.59.79.79,0,0,0-.65-.3.84.84,0,0,0-.61.24A.9.9,0,0,0,53.38,91.73Z" transform="translate(-2.4 -4.9)"/><path d="M58.44,92.58l.55.07a1.34,1.34,0,0,1-.48.74,1.41,1.41,0,0,1-.89.27,1.43,1.43,0,0,1-1.08-.42,1.64,1.64,0,0,1-.4-1.18,1.71,1.71,0,0,1,.4-1.22,1.37,1.37,0,0,1,1.05-.44,1.3,1.3,0,0,1,1,.43A1.65,1.65,0,0,1,59,92a.82.82,0,0,1,0,.14H56.68A1.21,1.21,0,0,0,57,93a.88.88,0,0,0,.65.27.82.82,0,0,0,.5-.15A1,1,0,0,0,58.44,92.58Zm-1.73-.85h1.74a1,1,0,0,0-.2-.59.81.81,0,0,0-.65-.3.84.84,0,0,0-.61.24A1,1,0,0,0,56.71,91.73Z" transform="translate(-2.4 -4.9)"/><path d="M61.67,93.58v-.39a1,1,0,0,1-.87.47,1.16,1.16,0,0,1-.68-.21,1.44,1.44,0,0,1-.49-.57,2.25,2.25,0,0,1,0-1.69,1.18,1.18,0,0,1,.46-.58,1.23,1.23,0,0,1,.7-.21,1,1,0,0,1,.85.43V89.29h.53v4.29ZM60,92a1.42,1.42,0,0,0,.25.9.79.79,0,0,0,.6.29.74.74,0,0,0,.59-.28,1.32,1.32,0,0,0,.24-.86,1.43,1.43,0,0,0-.25-.94.75.75,0,0,0-1.19,0A1.38,1.38,0,0,0,60,92Z" transform="translate(-2.4 -4.9)"/><path d="M64.67,94.78V89.29h1.16v.44h-.64v4.61h.64v.44Z" transform="translate(-2.4 -4.9)"/><path d="M66.32,93.58V90.47h.47v.44a1.26,1.26,0,0,1,.39-.37,1.16,1.16,0,0,1,.56-.14,1,1,0,0,1,.56.15.75.75,0,0,1,.32.4,1.09,1.09,0,0,1,1-.55,1,1,0,0,1,.71.26,1.07,1.07,0,0,1,.25.79v2.13H70v-2a1.25,1.25,0,0,0-.05-.45.39.39,0,0,0-.18-.22.57.57,0,0,0-.32-.09.7.7,0,0,0-.54.22.93.93,0,0,0-.22.7v1.8h-.53v-2A.83.83,0,0,0,68,91a.47.47,0,0,0-.42-.18.73.73,0,0,0-.41.12.67.67,0,0,0-.28.34,2.15,2.15,0,0,0-.08.65v1.61Z" transform="translate(-2.4 -4.9)"/><path d="M70.92,93.66l1.25-4.44h.42l-1.24,4.44Z" transform="translate(-2.4 -4.9)"/><path d="M72.78,92.66l.52-.09a.74.74,0,0,0,.24.48.82.82,0,0,0,.56.17.79.79,0,0,0,.54-.15.42.42,0,0,0,.18-.34.3.3,0,0,0-.16-.28,2,2,0,0,0-.54-.18,5.32,5.32,0,0,1-.8-.26.81.81,0,0,1-.34-.29.79.79,0,0,1-.12-.42.8.8,0,0,1,.1-.38.83.83,0,0,1,.26-.3,1,1,0,0,1,.33-.15A1.43,1.43,0,0,1,74,90.4a1.79,1.79,0,0,1,.64.11.85.85,0,0,1,.41.28,1.14,1.14,0,0,1,.18.49l-.51.07a.58.58,0,0,0-.21-.38.73.73,0,0,0-.47-.13.87.87,0,0,0-.52.12.36.36,0,0,0-.16.28.29.29,0,0,0,.07.18.38.38,0,0,0,.2.14l.47.14a8,8,0,0,1,.78.24.86.86,0,0,1,.34.28.73.73,0,0,1,.13.45.91.91,0,0,1-.15.5,1.09,1.09,0,0,1-.45.36,1.67,1.67,0,0,1-.65.13,1.45,1.45,0,0,1-.93-.26A1.1,1.1,0,0,1,72.78,92.66Z" transform="translate(-2.4 -4.9)"/><path d="M76.87,94.78H75.71v-.44h.63V89.73h-.63v-.44h1.16Z" transform="translate(-2.4 -4.9)"/><path d="M6.7,55.72H2.91v1.41H2.4v-3.4h.51v1.42H6.7Z" transform="translate(-2.4 -4.9)"/><path d="M6.7,53.21H2.4v-.53H3.94a1.17,1.17,0,0,1-.42-.93,1.26,1.26,0,0,1,.13-.6A.78.78,0,0,1,4,50.79a1.62,1.62,0,0,1,.7-.11h2v.52h-2a.79.79,0,0,0-.58.18.62.62,0,0,0-.18.48.86.86,0,0,0,.12.44.68.68,0,0,0,.33.3,1.75,1.75,0,0,0,.58.08H6.7Z" transform="translate(-2.4 -4.9)"/><path d="M6.7,49.88H3.59v-.47h.47a1.48,1.48,0,0,1-.44-.34.59.59,0,0,1-.1-.34,1,1,0,0,1,.17-.54l.48.18a.82.82,0,0,0-.11.39.57.57,0,0,0,.1.31.53.53,0,0,0,.29.19,2.06,2.06,0,0,0,.62.09H6.7Z" transform="translate(-2.4 -4.9)"/><path d="M6.7,45.84H6.24a1.14,1.14,0,0,1,.53,1,1.27,1.27,0,0,1-.11.52.82.82,0,0,1-.26.35,1.15,1.15,0,0,1-.39.17,3,3,0,0,1-.5,0H3.59v-.53H5.31a3.35,3.35,0,0,0,.56,0,.57.57,0,0,0,.32-.21.65.65,0,0,0,.12-.4.89.89,0,0,0-.12-.45A.66.66,0,0,0,5.86,46a1.6,1.6,0,0,0-.61-.09H3.59v-.52H6.7Z" transform="translate(-2.4 -4.9)"/><path d="M5.77,44.75l-.08-.52A.7.7,0,0,0,6.17,44a.85.85,0,0,0,.16-.56.89.89,0,0,0-.14-.54.47.47,0,0,0-.35-.17.32.32,0,0,0-.28.15,2.29,2.29,0,0,0-.18.54,5.44,5.44,0,0,1-.25.81.83.83,0,0,1-.3.34.88.88,0,0,1-.42.11A.82.82,0,0,1,4,44.57a.94.94,0,0,1-.3-.26A1.08,1.08,0,0,1,3.58,44a1.63,1.63,0,0,1-.06-.45,1.85,1.85,0,0,1,.1-.65.92.92,0,0,1,.29-.41,1.34,1.34,0,0,1,.48-.18l.07.52a.57.57,0,0,0-.38.2.74.74,0,0,0-.13.48.89.89,0,0,0,.12.52.35.35,0,0,0,.28.15.33.33,0,0,0,.19-.06.64.64,0,0,0,.14-.2c0-.06.06-.21.13-.47a5.57,5.57,0,0,1,.25-.78.71.71,0,0,1,.72-.47.91.91,0,0,1,.5.15.93.93,0,0,1,.36.44,1.59,1.59,0,0,1,.13.66,1.5,1.5,0,0,1-.25.92A1.16,1.16,0,0,1,5.77,44.75Z" transform="translate(-2.4 -4.9)"/><path d="M6.23,40.39l.46-.08a2.08,2.08,0,0,1,0,.4,1,1,0,0,1-.09.45.56.56,0,0,1-.24.22,2,2,0,0,1-.62.06H4v.39H3.59v-.39H2.82l-.32-.52H3.59v-.53H4v.53H5.82a.89.89,0,0,0,.29,0,.28.28,0,0,0,.1-.09.4.4,0,0,0,0-.18C6.25,40.56,6.24,40.48,6.23,40.39Z" transform="translate(-2.4 -4.9)"/><path d="M7.89,38.19H2.4V37h.44v.64H7.45V37h.44Z" transform="translate(-2.4 -4.9)"/><path d="M6.7,36.48H2.4v-.59l3.37-2.25H2.4v-.55H6.7v.59L3.32,35.93H6.7Z" transform="translate(-2.4 -4.9)"/><path d="M7.89,31.32v1.17H7.45v-.64H2.84v.64H2.4V31.32Z" transform="translate(-2.4 -4.9)"/><path class="cls-6" d="M29.46,17.52l.53,0a1.23,1.23,0,0,0,.18.52,1,1,0,0,0,.43.34,1.76,1.76,0,0,0,.66.13,1.61,1.61,0,0,0,.57-.1.85.85,0,0,0,.38-.27.6.6,0,0,0,.12-.36.56.56,0,0,0-.12-.36.91.91,0,0,0-.39-.25,7.29,7.29,0,0,0-.76-.21,3.3,3.3,0,0,1-.83-.27,1.14,1.14,0,0,1-.46-.4,1,1,0,0,1-.15-.53,1.11,1.11,0,0,1,.18-.61,1.22,1.22,0,0,1,.54-.43,2,2,0,0,1,.79-.15,2.17,2.17,0,0,1,.84.16,1.23,1.23,0,0,1,.57.45,1.33,1.33,0,0,1,.21.68l-.55,0a.9.9,0,0,0-.3-.62,1.13,1.13,0,0,0-.74-.2,1.27,1.27,0,0,0-.76.18.59.59,0,0,0-.23.46.49.49,0,0,0,.16.38,2.38,2.38,0,0,0,.86.31,5.17,5.17,0,0,1,.95.27,1.34,1.34,0,0,1,.56.44,1.07,1.07,0,0,1,.18.61,1.21,1.21,0,0,1-.2.65,1.34,1.34,0,0,1-.57.47,2,2,0,0,1-.82.17,2.53,2.53,0,0,1-1-.17,1.44,1.44,0,0,1-.62-.52A1.34,1.34,0,0,1,29.46,17.52Z" transform="translate(-2.4 -4.9)"/><path class="cls-6" d="M33.58,18.9V14.61h.53v1.54a1.17,1.17,0,0,1,.93-.43,1.27,1.27,0,0,1,.6.14.78.78,0,0,1,.37.37,1.83,1.83,0,0,1,.11.7v2h-.53v-2a.87.87,0,0,0-.17-.58.64.64,0,0,0-.49-.18.9.9,0,0,0-.44.13.72.72,0,0,0-.29.33,1.44,1.44,0,0,0-.09.57v1.7Z" transform="translate(-2.4 -4.9)"/><path class="cls-6" d="M36.72,17.35a1.56,1.56,0,0,1,.49-1.28,1.43,1.43,0,0,1,1-.35,1.39,1.39,0,0,1,1,.42,1.61,1.61,0,0,1,.41,1.16,2.09,2.09,0,0,1-.18.95,1.27,1.27,0,0,1-.52.53,1.51,1.51,0,0,1-.76.19,1.39,1.39,0,0,1-1-.42A1.66,1.66,0,0,1,36.72,17.35Zm.55,0a1.28,1.28,0,0,0,.26.89.82.82,0,0,0,.65.3.84.84,0,0,0,.66-.3,1.37,1.37,0,0,0,.26-.91,1.32,1.32,0,0,0-.26-.88.88.88,0,0,0-.66-.29.84.84,0,0,0-.65.29A1.31,1.31,0,0,0,37.27,17.35Z" transform="translate(-2.4 -4.9)"/><path class="cls-6" d="M40.25,18.9V15.79h.48v.47a1.27,1.27,0,0,1,.33-.43.6.6,0,0,1,.34-.11,1,1,0,0,1,.54.17l-.18.49a.72.72,0,0,0-.39-.11.52.52,0,0,0-.31.1.59.59,0,0,0-.19.29,2,2,0,0,0-.09.61V18.9Z" transform="translate(-2.4 -4.9)"/><path class="cls-6" d="M43.41,18.43l.07.47a2,2,0,0,1-.4,0,.9.9,0,0,1-.44-.09.46.46,0,0,1-.22-.24,1.61,1.61,0,0,1-.07-.62V16.2H42v-.41h.38V15l.53-.32v1.09h.53v.41h-.53V18a1.48,1.48,0,0,0,0,.29.19.19,0,0,0,.1.1.3.3,0,0,0,.18,0Z" transform="translate(-2.4 -4.9)"/><path class="cls-6" d="M43.72,17.61v-.53h1.62v.53Z" transform="translate(-2.4 -4.9)"/><path class="cls-6" d="M47.94,18.9v-.39a1,1,0,0,1-.87.46,1.23,1.23,0,0,1-.68-.2,1.4,1.4,0,0,1-.49-.58,2,2,0,0,1-.17-.84,2.15,2.15,0,0,1,.16-.85,1.21,1.21,0,0,1,.46-.58,1.3,1.3,0,0,1,.7-.2,1,1,0,0,1,.85.43V14.61h.53V18.9Zm-1.67-1.55a1.37,1.37,0,0,0,.25.89.76.76,0,0,0,1.19,0,1.33,1.33,0,0,0,.24-.87,1.42,1.42,0,0,0-.25-.93.74.74,0,0,0-.6-.3.73.73,0,0,0-.59.28A1.43,1.43,0,0,0,46.27,17.35Z" transform="translate(-2.4 -4.9)"/><path class="cls-6" d="M51.3,18.9v-.45a1.14,1.14,0,0,1-1,.52,1.22,1.22,0,0,1-.51-.1.86.86,0,0,1-.36-.27.87.87,0,0,1-.16-.39,2.85,2.85,0,0,1,0-.49V15.79h.52v1.73a2.23,2.23,0,0,0,0,.55.53.53,0,0,0,.21.33.63.63,0,0,0,.4.12.88.88,0,0,0,.44-.12.62.62,0,0,0,.29-.33,1.63,1.63,0,0,0,.09-.61V15.79h.53V18.9Z" transform="translate(-2.4 -4.9)"/><path class="cls-6" d="M52.59,18.9V15.79h.47v.47a1.27,1.27,0,0,1,.34-.43.58.58,0,0,1,.34-.11,1,1,0,0,1,.54.17l-.18.49a.72.72,0,0,0-.39-.11.5.5,0,0,0-.31.1.61.61,0,0,0-.2.29,2.37,2.37,0,0,0-.08.61V18.9Z" transform="translate(-2.4 -4.9)"/><path class="cls-6" d="M56.62,18.52a2.05,2.05,0,0,1-.56.35,1.61,1.61,0,0,1-.58.1,1.12,1.12,0,0,1-.79-.25.83.83,0,0,1-.28-.64.88.88,0,0,1,.11-.42,1,1,0,0,1,.27-.3,1.46,1.46,0,0,1,.38-.17,2.61,2.61,0,0,1,.47-.08,4.88,4.88,0,0,0,.94-.18v-.14a.57.57,0,0,0-.15-.45.86.86,0,0,0-.6-.18.91.91,0,0,0-.55.13.78.78,0,0,0-.26.46l-.52-.07a1.34,1.34,0,0,1,.24-.54,1,1,0,0,1,.46-.31,2.2,2.2,0,0,1,.71-.11,2,2,0,0,1,.65.09,1,1,0,0,1,.36.24.93.93,0,0,1,.17.36,4.72,4.72,0,0,1,0,.49v.7a5.84,5.84,0,0,0,0,.93,1,1,0,0,0,.13.37h-.55A1.06,1.06,0,0,1,56.62,18.52Zm0-1.18a3.53,3.53,0,0,1-.86.2,1.8,1.8,0,0,0-.46.11.39.39,0,0,0-.21.17.47.47,0,0,0,.09.6.68.68,0,0,0,.46.14,1.09,1.09,0,0,0,.55-.13.81.81,0,0,0,.34-.37,1.2,1.2,0,0,0,.09-.53Z" transform="translate(-2.4 -4.9)"/><path class="cls-6" d="M59.08,18.43l.08.47a2,2,0,0,1-.4,0,1,1,0,0,1-.45-.09.51.51,0,0,1-.22-.24A2,2,0,0,1,58,18V16.2h-.39v-.41H58V15l.52-.32v1.09h.53v.41h-.53V18a.85.85,0,0,0,0,.29.22.22,0,0,0,.09.1.3.3,0,0,0,.18,0Z" transform="translate(-2.4 -4.9)"/><path class="cls-6" d="M59.6,15.21v-.6h.53v.6Zm0,3.69V15.79h.53V18.9Z" transform="translate(-2.4 -4.9)"/><path class="cls-6" d="M60.73,17.35a1.59,1.59,0,0,1,.48-1.28,1.47,1.47,0,0,1,1-.35,1.39,1.39,0,0,1,1.05.42,1.61,1.61,0,0,1,.41,1.16,2.09,2.09,0,0,1-.18.95,1.23,1.23,0,0,1-.53.53,1.49,1.49,0,0,1-.75.19,1.38,1.38,0,0,1-1-.42A1.66,1.66,0,0,1,60.73,17.35Zm.55,0a1.28,1.28,0,0,0,.26.89.82.82,0,0,0,.65.3.85.85,0,0,0,.66-.3,1.37,1.37,0,0,0,.26-.91,1.27,1.27,0,0,0-.27-.88.87.87,0,0,0-1.3,0A1.31,1.31,0,0,0,61.28,17.35Z" transform="translate(-2.4 -4.9)"/><path class="cls-6" d="M64.27,18.9V15.79h.47v.44a1.12,1.12,0,0,1,1-.51,1.27,1.27,0,0,1,.52.1.82.82,0,0,1,.35.27,1.15,1.15,0,0,1,.17.39,3.2,3.2,0,0,1,0,.51V18.9h-.52V17a1.4,1.4,0,0,0-.06-.48.55.55,0,0,0-.22-.26.75.75,0,0,0-.37-.09.86.86,0,0,0-.58.21,1.06,1.06,0,0,0-.25.81v1.7Z" transform="translate(-2.4 -4.9)"/><path class="cls-6" d="M69.26,18.9V15.79h.48v.47a1.27,1.27,0,0,1,.33-.43.62.62,0,0,1,.34-.11,1.1,1.1,0,0,1,.55.17l-.19.49a.69.69,0,0,0-.38-.11.48.48,0,0,0-.31.1.55.55,0,0,0-.2.29,2,2,0,0,0-.09.61V18.9Z" transform="translate(-2.4 -4.9)"/><path class="cls-6" d="M73.31,18.9v-.45a1.13,1.13,0,0,1-1,.52,1.22,1.22,0,0,1-.51-.1.86.86,0,0,1-.36-.27.87.87,0,0,1-.16-.39,2.85,2.85,0,0,1,0-.49V15.79h.52v1.73a2.23,2.23,0,0,0,0,.55.53.53,0,0,0,.21.33.63.63,0,0,0,.4.12.88.88,0,0,0,.44-.12.68.68,0,0,0,.3-.33,1.91,1.91,0,0,0,.08-.61V15.79h.53V18.9Z" transform="translate(-2.4 -4.9)"/><path class="cls-6" d="M74.61,18.9V15.79h.47v.44a1.12,1.12,0,0,1,1-.51,1.27,1.27,0,0,1,.52.1.89.89,0,0,1,.35.27,1,1,0,0,1,.16.39,2.89,2.89,0,0,1,0,.51V18.9h-.52V17a1.15,1.15,0,0,0-.07-.48.53.53,0,0,0-.21-.26.75.75,0,0,0-.37-.09.84.84,0,0,0-.58.21,1,1,0,0,0-.25.81v1.7Z" transform="translate(-2.4 -4.9)"/><path class="cls-6" d="M77.94,18.9V15.79h.48v.44a1.12,1.12,0,0,1,1-.51,1.22,1.22,0,0,1,.51.1.86.86,0,0,1,.36.27,1,1,0,0,1,.16.39,2.89,2.89,0,0,1,0,.51V18.9h-.53V17a1.4,1.4,0,0,0-.06-.48.5.5,0,0,0-.22-.26.69.69,0,0,0-.36-.09.89.89,0,0,0-.59.21,1.06,1.06,0,0,0-.24.81v1.7Z" transform="translate(-2.4 -4.9)"/><path class="cls-6" d="M81.28,15.21v-.6h.53v.6Zm0,3.69V15.79h.53V18.9Z" transform="translate(-2.4 -4.9)"/><path class="cls-6" d="M82.61,18.9V15.79h.48v.44a1.12,1.12,0,0,1,1-.51,1.22,1.22,0,0,1,.51.1.86.86,0,0,1,.36.27,1,1,0,0,1,.16.39,2.89,2.89,0,0,1,0,.51V18.9h-.53V17a1.4,1.4,0,0,0-.06-.48.5.5,0,0,0-.22-.26.69.69,0,0,0-.36-.09.89.89,0,0,0-.59.21,1.06,1.06,0,0,0-.24.81v1.7Z" transform="translate(-2.4 -4.9)"/><path class="cls-6" d="M85.85,19.16l.52.08a.51.51,0,0,0,.17.34.87.87,0,0,0,.54.15,1,1,0,0,0,.57-.15.74.74,0,0,0,.27-.41,3.49,3.49,0,0,0,0-.67,1.07,1.07,0,0,1-.86.4,1.15,1.15,0,0,1-1-.46,1.75,1.75,0,0,1-.35-1.11,2,2,0,0,1,.16-.82,1.24,1.24,0,0,1,.47-.58,1.21,1.21,0,0,1,.71-.21,1.11,1.11,0,0,1,.91.45v-.38h.49v2.69a2.53,2.53,0,0,1-.15,1,1.09,1.09,0,0,1-.47.48,1.57,1.57,0,0,1-.79.18,1.48,1.48,0,0,1-.9-.26A.84.84,0,0,1,85.85,19.16Zm.44-1.87a1.33,1.33,0,0,0,.24.89.78.78,0,0,0,.61.29.8.8,0,0,0,.61-.28,1.28,1.28,0,0,0,.25-.88,1.26,1.26,0,0,0-.26-.86.76.76,0,0,0-.61-.29.74.74,0,0,0-.59.28A1.25,1.25,0,0,0,86.29,17.29Z" transform="translate(-2.4 -4.9)"/><path class="cls-6" d="M29.58,26.1V23h.47v.47a1.16,1.16,0,0,1,.34-.43.57.57,0,0,1,.33-.11,1.1,1.1,0,0,1,.55.17l-.19.49a.67.67,0,0,0-.38-.11.48.48,0,0,0-.31.1.61.61,0,0,0-.2.29,2,2,0,0,0-.09.61V26.1Z" transform="translate(-2.4 -4.9)"/><path class="cls-6" d="M33.61,25.72a2.05,2.05,0,0,1-.56.35,1.63,1.63,0,0,1-.59.1,1.09,1.09,0,0,1-.78-.25.8.8,0,0,1-.28-.64.88.88,0,0,1,.11-.42.86.86,0,0,1,.27-.3,1.46,1.46,0,0,1,.38-.17,2.61,2.61,0,0,1,.47-.08,4.88,4.88,0,0,0,.94-.18V24a.57.57,0,0,0-.15-.45.88.88,0,0,0-.6-.18.91.91,0,0,0-.55.13A.73.73,0,0,0,32,24l-.52-.07a1.49,1.49,0,0,1,.23-.54,1.08,1.08,0,0,1,.47-.31,2.16,2.16,0,0,1,.71-.11,1.89,1.89,0,0,1,.64.09,1,1,0,0,1,.37.24.79.79,0,0,1,.16.36,2.62,2.62,0,0,1,0,.49v.7a8.38,8.38,0,0,0,0,.93,1.28,1.28,0,0,0,.14.37h-.55A1.06,1.06,0,0,1,33.61,25.72Zm0-1.18a3.53,3.53,0,0,1-.86.2,1.69,1.69,0,0,0-.46.11A.39.39,0,0,0,32,25a.44.44,0,0,0-.08.25.46.46,0,0,0,.16.35.73.73,0,0,0,.47.14,1.08,1.08,0,0,0,.54-.13.78.78,0,0,0,.35-.37,1.2,1.2,0,0,0,.09-.53Z" transform="translate(-2.4 -4.9)"/><path class="cls-6" d="M34.92,26.1V23h.47v.44a1.12,1.12,0,0,1,1-.51,1.27,1.27,0,0,1,.52.1.82.82,0,0,1,.35.27,1.15,1.15,0,0,1,.17.39,2.89,2.89,0,0,1,0,.51V26.1h-.53V24.21a1.43,1.43,0,0,0-.06-.48.55.55,0,0,0-.22-.26.75.75,0,0,0-.37-.09.86.86,0,0,0-.58.21,1.06,1.06,0,0,0-.25.81v1.7Z" transform="translate(-2.4 -4.9)"/><path class="cls-6" d="M38.16,26.36l.51.08a.47.47,0,0,0,.18.34.86.86,0,0,0,.53.15.92.92,0,0,0,.57-.15.74.74,0,0,0,.27-.41,3.23,3.23,0,0,0,0-.67,1.08,1.08,0,0,1-.86.4,1.19,1.19,0,0,1-1-.46,1.81,1.81,0,0,1-.35-1.11,2.18,2.18,0,0,1,.16-.82,1.3,1.3,0,0,1,.47-.58,1.22,1.22,0,0,1,.72-.21,1.11,1.11,0,0,1,.91.45V23h.48v2.69a2.72,2.72,0,0,1-.14,1,1.14,1.14,0,0,1-.47.48,1.62,1.62,0,0,1-.79.18,1.48,1.48,0,0,1-.9-.26A.82.82,0,0,1,38.16,26.36Zm.43-1.87a1.28,1.28,0,0,0,.25.89.76.76,0,0,0,.61.29.81.81,0,0,0,.61-.28,1.34,1.34,0,0,0,.24-.88,1.26,1.26,0,0,0-.25-.86.76.76,0,0,0-.61-.29.75.75,0,0,0-.6.28A1.31,1.31,0,0,0,38.59,24.49Z" transform="translate(-2.4 -4.9)"/><path class="cls-6" d="M43.72,25.1l.55.07a1.37,1.37,0,0,1-.48.74,1.47,1.47,0,0,1-.89.26,1.44,1.44,0,0,1-1.09-.42,1.66,1.66,0,0,1-.39-1.18,1.73,1.73,0,0,1,.4-1.22,1.4,1.4,0,0,1,1-.43,1.33,1.33,0,0,1,1,.43,1.69,1.69,0,0,1,.39,1.19v.14H42a1.23,1.23,0,0,0,.29.79.86.86,0,0,0,.65.27.84.84,0,0,0,.5-.15A1.07,1.07,0,0,0,43.72,25.1ZM42,24.25h1.74a1.11,1.11,0,0,0-.2-.59.83.83,0,0,0-.66-.31.86.86,0,0,0-.61.25A1,1,0,0,0,42,24.25Z" transform="translate(-2.4 -4.9)"/><path class="cls-6" d="M32.21,63.05l.57.14a1.89,1.89,0,0,1-.64,1.07,1.75,1.75,0,0,1-1.14.37,2,2,0,0,1-1.13-.28,1.75,1.75,0,0,1-.66-.82A2.94,2.94,0,0,1,29,62.38a2.52,2.52,0,0,1,.25-1.17,1.73,1.73,0,0,1,.73-.76,2.17,2.17,0,0,1,1-.26,1.79,1.79,0,0,1,1.09.33,1.73,1.73,0,0,1,.61.92l-.56.13a1.31,1.31,0,0,0-.43-.68,1.19,1.19,0,0,0-.72-.22,1.4,1.4,0,0,0-.83.24,1.25,1.25,0,0,0-.46.64,2.57,2.57,0,0,0-.14.82,2.54,2.54,0,0,0,.16,1,1.18,1.18,0,0,0,.5.61,1.34,1.34,0,0,0,.73.2,1.26,1.26,0,0,0,.81-.27A1.39,1.39,0,0,0,32.21,63.05Z" transform="translate(-2.4 -4.9)"/><path class="cls-6" d="M33.22,63a1.6,1.6,0,0,1,.48-1.28,1.44,1.44,0,0,1,1-.34,1.42,1.42,0,0,1,1,.41,1.63,1.63,0,0,1,.4,1.17,2,2,0,0,1-.18.94,1.29,1.29,0,0,1-.52.54,1.61,1.61,0,0,1-.75.19,1.4,1.4,0,0,1-1.06-.42A1.67,1.67,0,0,1,33.22,63Zm.54,0a1.36,1.36,0,0,0,.26.9.86.86,0,0,0,.66.29.82.82,0,0,0,.65-.3,1.35,1.35,0,0,0,.26-.91,1.31,1.31,0,0,0-.26-.87.87.87,0,0,0-1.31,0A1.31,1.31,0,0,0,33.76,63Z" transform="translate(-2.4 -4.9)"/><path class="cls-6" d="M36.75,64.56V61.45h.48v.44a1.12,1.12,0,0,1,1-.51,1.22,1.22,0,0,1,.51.1.77.77,0,0,1,.36.26,1,1,0,0,1,.16.39,3,3,0,0,1,0,.51v1.92h-.53v-1.9a1.48,1.48,0,0,0-.06-.48.48.48,0,0,0-.22-.25.61.61,0,0,0-.36-.1.85.85,0,0,0-.59.22,1.06,1.06,0,0,0-.24.81v1.7Z" transform="translate(-2.4 -4.9)"/><path class="cls-6" d="M41.24,64.08l.08.47a2.08,2.08,0,0,1-.4,0,1,1,0,0,1-.45-.09.51.51,0,0,1-.22-.24,2,2,0,0,1-.06-.62V61.86H39.8v-.41h.39v-.78l.52-.31v1.09h.53v.41h-.53v1.81a.81.81,0,0,0,0,.29.24.24,0,0,0,.09.11.4.4,0,0,0,.18,0Z" transform="translate(-2.4 -4.9)"/><path class="cls-6" d="M41.76,60.87v-.61h.53v.61Zm0,3.69V61.45h.53v3.11Z" transform="translate(-2.4 -4.9)"/><path class="cls-6" d="M43.09,64.56V61.45h.47v.44a1.12,1.12,0,0,1,1-.51,1.27,1.27,0,0,1,.52.1.69.69,0,0,1,.35.26,1,1,0,0,1,.17.39,3,3,0,0,1,0,.51v1.92h-.53v-1.9a1.48,1.48,0,0,0-.06-.48.53.53,0,0,0-.22-.25.64.64,0,0,0-.37-.1.82.82,0,0,0-.58.22,1.06,1.06,0,0,0-.24.81v1.7Z" transform="translate(-2.4 -4.9)"/><path class="cls-6" d="M48.46,64.56V64.1a1.14,1.14,0,0,1-1,.53,1.27,1.27,0,0,1-.52-.11.89.89,0,0,1-.35-.26,1,1,0,0,1-.16-.39,2.07,2.07,0,0,1,0-.5V61.45h.53v1.72a3.35,3.35,0,0,0,0,.56.6.6,0,0,0,.21.32.65.65,0,0,0,.4.12.89.89,0,0,0,.45-.12.62.62,0,0,0,.29-.33,1.6,1.6,0,0,0,.09-.61V61.45h.53v3.11Z" transform="translate(-2.4 -4.9)"/><path class="cls-6" d="M49.57,63a1.6,1.6,0,0,1,.48-1.28,1.55,1.55,0,0,1,2,.07A1.59,1.59,0,0,1,52.48,63a2,2,0,0,1-.18.94,1.29,1.29,0,0,1-.52.54,1.61,1.61,0,0,1-.75.19A1.4,1.4,0,0,1,50,64.21,1.67,1.67,0,0,1,49.57,63Zm.54,0a1.36,1.36,0,0,0,.26.9.85.85,0,0,0,.66.29.83.83,0,0,0,.65-.3,1.35,1.35,0,0,0,.26-.91,1.31,1.31,0,0,0-.26-.87.83.83,0,0,0-.65-.3.83.83,0,0,0-.66.3A1.31,1.31,0,0,0,50.11,63Z" transform="translate(-2.4 -4.9)"/><path class="cls-6" d="M55.14,64.56V64.1a1.14,1.14,0,0,1-1,.53,1.26,1.26,0,0,1-.51-.11.93.93,0,0,1-.36-.26,1.14,1.14,0,0,1-.16-.39,3,3,0,0,1,0-.5V61.45h.53v1.72a3.35,3.35,0,0,0,0,.56.51.51,0,0,0,.21.32.65.65,0,0,0,.4.12.86.86,0,0,0,.44-.12.68.68,0,0,0,.3-.33,1.87,1.87,0,0,0,.08-.61V61.45h.53v3.11Z" transform="translate(-2.4 -4.9)"/><path class="cls-6" d="M56.23,63.63l.52-.08A.76.76,0,0,0,57,64a.87.87,0,0,0,.56.16.83.83,0,0,0,.54-.15.42.42,0,0,0,.18-.34.31.31,0,0,0-.16-.28,2,2,0,0,0-.54-.18,4.36,4.36,0,0,1-.8-.26.81.81,0,0,1-.34-.29.79.79,0,0,1-.12-.42.8.8,0,0,1,.1-.38.83.83,0,0,1,.26-.3,1,1,0,0,1,.33-.15,1.76,1.76,0,0,1,.46-.06,1.79,1.79,0,0,1,.64.1.87.87,0,0,1,.41.29,1,1,0,0,1,.18.48l-.51.07a.62.62,0,0,0-.21-.38.73.73,0,0,0-.47-.13.84.84,0,0,0-.52.12.36.36,0,0,0-.16.28.24.24,0,0,0,.07.18.46.46,0,0,0,.2.15l.47.13a8,8,0,0,1,.78.24.86.86,0,0,1,.34.28.73.73,0,0,1,.13.45.91.91,0,0,1-.15.5,1.09,1.09,0,0,1-.45.36,1.67,1.67,0,0,1-.65.13,1.52,1.52,0,0,1-.93-.25A1.15,1.15,0,0,1,56.23,63.63Z" transform="translate(-2.4 -4.9)"/><path class="cls-6" d="M61.1,64.56V61.45h.47v.47a1.33,1.33,0,0,1,.34-.44.57.57,0,0,1,.34-.1,1.07,1.07,0,0,1,.54.16l-.18.49a.82.82,0,0,0-.39-.11.55.55,0,0,0-.31.1.61.61,0,0,0-.2.29,2.06,2.06,0,0,0-.09.62v1.63Z" transform="translate(-2.4 -4.9)"/><path class="cls-6" d="M65.14,64.56V64.1a1.14,1.14,0,0,1-1,.53,1.26,1.26,0,0,1-.51-.11.93.93,0,0,1-.36-.26,1.14,1.14,0,0,1-.16-.39,3,3,0,0,1,0-.5V61.45h.53v1.72a3.35,3.35,0,0,0,0,.56.51.51,0,0,0,.21.32.65.65,0,0,0,.4.12.83.83,0,0,0,.44-.12.68.68,0,0,0,.3-.33,1.63,1.63,0,0,0,.08-.61V61.45h.53v3.11Z" transform="translate(-2.4 -4.9)"/><path class="cls-6" d="M66.44,64.56V61.45h.47v.44a1.12,1.12,0,0,1,1-.51,1.27,1.27,0,0,1,.52.1.69.69,0,0,1,.35.26,1,1,0,0,1,.17.39,3,3,0,0,1,0,.51v1.92h-.53v-1.9a1.48,1.48,0,0,0-.06-.48.53.53,0,0,0-.22-.25.66.66,0,0,0-.37-.1.82.82,0,0,0-.58.22,1.06,1.06,0,0,0-.24.81v1.7Z" transform="translate(-2.4 -4.9)"/><path class="cls-6" d="M69.78,64.56V61.45h.47v.44a1.12,1.12,0,0,1,1-.51,1.27,1.27,0,0,1,.52.1.79.79,0,0,1,.35.26,1,1,0,0,1,.16.39,3,3,0,0,1,0,.51v1.92h-.52v-1.9a1.22,1.22,0,0,0-.07-.48.51.51,0,0,0-.21-.25.66.66,0,0,0-.37-.1.81.81,0,0,0-.58.22,1,1,0,0,0-.25.81v1.7Z" transform="translate(-2.4 -4.9)"/><path class="cls-6" d="M73.12,60.87v-.61h.52v.61Zm0,3.69V61.45h.52v3.11Z" transform="translate(-2.4 -4.9)"/><path class="cls-6" d="M74.45,64.56V61.45h.47v.44a1.12,1.12,0,0,1,1-.51,1.27,1.27,0,0,1,.52.1.79.79,0,0,1,.35.26,1,1,0,0,1,.16.39,3,3,0,0,1,0,.51v1.92h-.52v-1.9a1.22,1.22,0,0,0-.07-.48.51.51,0,0,0-.21-.25.66.66,0,0,0-.37-.1.81.81,0,0,0-.58.22,1,1,0,0,0-.25.81v1.7Z" transform="translate(-2.4 -4.9)"/><path class="cls-6" d="M77.69,64.81l.51.08a.5.5,0,0,0,.18.35.92.92,0,0,0,.53.14,1,1,0,0,0,.57-.14.78.78,0,0,0,.27-.41,3.34,3.34,0,0,0,0-.68,1.1,1.1,0,0,1-.87.41,1.19,1.19,0,0,1-1-.47A1.77,1.77,0,0,1,77.58,63a2,2,0,0,1,.16-.82,1.29,1.29,0,0,1,.47-.58,1.22,1.22,0,0,1,.72-.2,1.12,1.12,0,0,1,.91.44v-.37h.48v2.68a2.5,2.5,0,0,1-.15,1,1,1,0,0,1-.46.48,1.62,1.62,0,0,1-.79.18,1.46,1.46,0,0,1-.9-.25A.85.85,0,0,1,77.69,64.81ZM78.12,63a1.31,1.31,0,0,0,.25.89.79.79,0,0,0,1.21,0,1.28,1.28,0,0,0,.25-.88,1.26,1.26,0,0,0-.25-.86.81.81,0,0,0-.61-.29.76.76,0,0,0-.6.29A1.23,1.23,0,0,0,78.12,63Z" transform="translate(-2.4 -4.9)"/><path class="cls-6" d="M82.78,64.56V61.45h.47v.47a1.48,1.48,0,0,1,.34-.44.59.59,0,0,1,.34-.1,1,1,0,0,1,.54.16l-.18.49a.82.82,0,0,0-.39-.11.57.57,0,0,0-.31.1.53.53,0,0,0-.19.29,2.06,2.06,0,0,0-.09.62v1.63Z" transform="translate(-2.4 -4.9)"/><path class="cls-6" d="M86.81,64.17a1.66,1.66,0,0,1-.56.35,1.58,1.58,0,0,1-.58.11,1.17,1.17,0,0,1-.79-.25.91.91,0,0,1-.17-1.06A.79.79,0,0,1,85,63a1.21,1.21,0,0,1,.38-.18l.47-.08a4.72,4.72,0,0,0,.94-.18v-.14a.58.58,0,0,0-.15-.45.86.86,0,0,0-.6-.18,1,1,0,0,0-.55.13.87.87,0,0,0-.26.46l-.51-.07a1.13,1.13,0,0,1,.23-.53,1.06,1.06,0,0,1,.46-.32,2.21,2.21,0,0,1,.71-.1,2,2,0,0,1,.65.09.78.78,0,0,1,.53.59,4.88,4.88,0,0,1,0,.49v.7a5.84,5.84,0,0,0,0,.93,1.07,1.07,0,0,0,.13.38h-.55A1.38,1.38,0,0,1,86.81,64.17Zm0-1.17a4.18,4.18,0,0,1-.86.19,2.37,2.37,0,0,0-.46.11.51.51,0,0,0-.21.17.45.45,0,0,0-.07.25.43.43,0,0,0,.16.35.63.63,0,0,0,.46.14,1.09,1.09,0,0,0,.55-.13.87.87,0,0,0,.35-.36,1.44,1.44,0,0,0,.08-.53Z" transform="translate(-2.4 -4.9)"/><path class="cls-6" d="M88.12,64.56V61.45h.48v.44a1.1,1.1,0,0,1,1-.51,1.22,1.22,0,0,1,.51.1.77.77,0,0,1,.36.26,1.14,1.14,0,0,1,.16.39,3,3,0,0,1,0,.51v1.92h-.53v-1.9a1.48,1.48,0,0,0-.06-.48.48.48,0,0,0-.22-.25.62.62,0,0,0-.37-.1.84.84,0,0,0-.58.22,1.06,1.06,0,0,0-.24.81v1.7Z" transform="translate(-2.4 -4.9)"/><path class="cls-6" d="M91.36,64.81l.51.08a.59.59,0,0,0,.18.35.94.94,0,0,0,.54.14,1,1,0,0,0,.56-.14.68.68,0,0,0,.27-.41,3.34,3.34,0,0,0,0-.68,1.09,1.09,0,0,1-.86.41,1.16,1.16,0,0,1-1-.47A1.71,1.71,0,0,1,91.26,63a2,2,0,0,1,.16-.82,1.2,1.2,0,0,1,1.18-.78,1.1,1.1,0,0,1,.91.44v-.37H94v2.68a2.5,2.5,0,0,1-.15,1,1,1,0,0,1-.47.48,1.59,1.59,0,0,1-.79.18,1.48,1.48,0,0,1-.9-.25A.85.85,0,0,1,91.36,64.81ZM91.8,63a1.37,1.37,0,0,0,.24.89.8.8,0,0,0,1.22,0,1.34,1.34,0,0,0,.25-.88,1.26,1.26,0,0,0-.26-.86.78.78,0,0,0-1.21,0A1.29,1.29,0,0,0,91.8,63Z" transform="translate(-2.4 -4.9)"/><path class="cls-6" d="M96.92,63.55l.55.07a1.34,1.34,0,0,1-.48.74,1.41,1.41,0,0,1-.89.27A1.43,1.43,0,0,1,95,64.21a1.64,1.64,0,0,1-.4-1.18,1.71,1.71,0,0,1,.4-1.22,1.37,1.37,0,0,1,1-.43,1.33,1.33,0,0,1,1,.42,1.66,1.66,0,0,1,.4,1.2.88.88,0,0,1,0,.14H95.16a1.2,1.2,0,0,0,.29.78.88.88,0,0,0,.65.27.82.82,0,0,0,.5-.15A1,1,0,0,0,96.92,63.55Zm-1.73-.85h1.74a1,1,0,0,0-.2-.59.81.81,0,0,0-.65-.3.84.84,0,0,0-.61.24A1,1,0,0,0,95.19,62.7Z" transform="translate(-2.4 -4.9)"/></g></svg>