<svg xmlns="http://www.w3.org/2000/svg" xmlns:xlink="http://www.w3.org/1999/xlink" viewBox="0 0 97.23 89.88"><defs><style>.cls-1{fill:#fff;}.cls-2{clip-path:url(#clip-path);}.cls-3,.cls-4{fill:none;}.cls-3{stroke:#b5b5b6;stroke-width:3px;}.cls-4{stroke:#231815;stroke-miterlimit:10;stroke-width:0.4px;}.cls-5{fill:#231815;}</style><clipPath id="clip-path" transform="translate(-2.4 -4.9)"><rect class="cls-1" x="27.62" y="5.1" width="70.62" height="75"/></clipPath></defs><g id="illust"><rect class="cls-1" x="25.22" y="0.2" width="70.62" height="75"/><g class="cls-2"><line class="cls-3" x1="25.22" y1="16.97" x2="96.23" y2="16.97"/><line class="cls-3" x1="25.22" y1="57.87" x2="96.23" y2="57.87"/></g><line class="cls-4" x1="60.53" y1="19.3" x2="60.53" y2="0.2"/><line class="cls-4" x1="60.53" y1="61.07" x2="60.53" y2="26.17"/><line class="cls-4" x1="60.53" y1="75.2" x2="60.53" y2="69.24"/><rect class="cls-4" x="25.22" y="0.2" width="70.62" height="75"/><line class="cls-4" x1="95.84" y1="25.2" x2="43.64" y2="25.2"/><line class="cls-4" x1="95.84" y1="50.18" x2="25.22" y2="50.18"/></g><g id="japanese"><path class="cls-5" d="M17.84,57.26h-.53V53.9a2.4,2.4,0,0,1-.5.36,3.44,3.44,0,0,1-.55.27V54a3.52,3.52,0,0,0,.77-.5,2,2,0,0,0,.47-.58h.34Z" transform="translate(-2.4 -4.9)"/><path class="cls-5" d="M19.19,55.14a3.78,3.78,0,0,1,.16-1.23,1.47,1.47,0,0,1,.46-.71,1.2,1.2,0,0,1,.78-.26,1.34,1.34,0,0,1,.61.14,1.36,1.36,0,0,1,.43.4,2.2,2.2,0,0,1,.26.64,4,4,0,0,1,.1,1,4.09,4.09,0,0,1-.15,1.22,1.56,1.56,0,0,1-.47.72,1.3,1.3,0,0,1-1.75-.2A2.76,2.76,0,0,1,19.19,55.14Zm.54,0a2.61,2.61,0,0,0,.25,1.4.73.73,0,0,0,.61.36.72.72,0,0,0,.61-.36,4.07,4.07,0,0,0,0-2.81.74.74,0,0,0-.62-.35.68.68,0,0,0-.58.31A2.73,2.73,0,0,0,19.73,55.14Z" transform="translate(-2.4 -4.9)"/><path class="cls-5" d="M22.53,55.14a4.12,4.12,0,0,1,.15-1.23,1.48,1.48,0,0,1,.47-.71,1.2,1.2,0,0,1,.78-.26,1.27,1.27,0,0,1,.6.14,1.18,1.18,0,0,1,.43.4,2,2,0,0,1,.27.64,4,4,0,0,1,.1,1,3.76,3.76,0,0,1-.16,1.22,1.55,1.55,0,0,1-.46.72,1.2,1.2,0,0,1-.78.25,1.18,1.18,0,0,1-1-.45A2.83,2.83,0,0,1,22.53,55.14Zm.54,0a2.61,2.61,0,0,0,.25,1.4.72.72,0,0,0,.61.36.73.73,0,0,0,.61-.36,4.07,4.07,0,0,0,0-2.81.75.75,0,0,0-.62-.35.68.68,0,0,0-.58.31A2.73,2.73,0,0,0,23.07,55.14Z" transform="translate(-2.4 -4.9)"/><path class="cls-5" d="M18.62,23.06v.5H15.79a.74.74,0,0,1,.06-.36,2,2,0,0,1,.34-.58,6.56,6.56,0,0,1,.69-.65,5.27,5.27,0,0,0,.95-.91,1,1,0,0,0,.25-.63.72.72,0,0,0-.23-.53.81.81,0,0,0-.58-.21.78.78,0,0,0-.61.23.85.85,0,0,0-.23.63l-.54-.06a1.3,1.3,0,0,1,.41-.92,1.46,1.46,0,0,1,1-.32,1.36,1.36,0,0,1,1,.34,1.13,1.13,0,0,1,.36.85,1.34,1.34,0,0,1-.11.51,1.7,1.7,0,0,1-.35.52,7.18,7.18,0,0,1-.81.76c-.32.27-.52.45-.61.54a1.48,1.48,0,0,0-.22.29Z" transform="translate(-2.4 -4.9)"/><path class="cls-5" d="M22,23.06v.5H19.12a1.09,1.09,0,0,1,.06-.36,2.09,2.09,0,0,1,.35-.58,6.56,6.56,0,0,1,.69-.65,5.64,5.64,0,0,0,1-.91,1.08,1.08,0,0,0,.24-.63.71.71,0,0,0-.22-.53.81.81,0,0,0-.58-.21.78.78,0,0,0-.61.23.86.86,0,0,0-.24.63l-.54-.06a1.35,1.35,0,0,1,.42-.92,1.44,1.44,0,0,1,1-.32,1.36,1.36,0,0,1,1,.34,1.13,1.13,0,0,1,.36.85,1.34,1.34,0,0,1-.11.51,1.9,1.9,0,0,1-.35.52,7.18,7.18,0,0,1-.81.76c-.32.27-.52.45-.61.54a1.17,1.17,0,0,0-.22.29Z" transform="translate(-2.4 -4.9)"/><path class="cls-5" d="M22.53,22.44l.55-.05a1,1,0,0,0,.29.61.8.8,0,0,0,.54.2.83.83,0,0,0,.64-.28,1.1,1.1,0,0,0,.27-.77,1,1,0,0,0-.26-.71,1,1,0,0,0-1.12-.14.72.72,0,0,0-.32.3l-.5-.07.42-2.2h2.13v.5H23.46L23.23,21a1.4,1.4,0,0,1,.81-.27,1.3,1.3,0,0,1,.95.39,1.37,1.37,0,0,1,.39,1,1.57,1.57,0,0,1-.34,1,1.38,1.38,0,0,1-1.13.53,1.4,1.4,0,0,1-1-.33A1.25,1.25,0,0,1,22.53,22.44Z" transform="translate(-2.4 -4.9)"/><path class="cls-5" d="M18.62,31.87v.51H15.79a.78.78,0,0,1,.06-.37,2.15,2.15,0,0,1,.34-.57,5.66,5.66,0,0,1,.69-.65,5.64,5.64,0,0,0,.95-.91,1,1,0,0,0,.25-.63.7.7,0,0,0-.23-.53.78.78,0,0,0-.58-.22.82.82,0,0,0-.61.23.85.85,0,0,0-.23.63l-.54-.05a1.33,1.33,0,0,1,.41-.93,1.46,1.46,0,0,1,1-.31,1.36,1.36,0,0,1,1,.34,1.13,1.13,0,0,1,.36.85,1.34,1.34,0,0,1-.11.51,1.82,1.82,0,0,1-.35.52,8.25,8.25,0,0,1-.81.76,6.34,6.34,0,0,0-.61.54,1.79,1.79,0,0,0-.22.28Z" transform="translate(-2.4 -4.9)"/><path class="cls-5" d="M19.19,30.26A3.78,3.78,0,0,1,19.35,29a1.57,1.57,0,0,1,.46-.71,1.2,1.2,0,0,1,.78-.25,1.22,1.22,0,0,1,.61.14,1.17,1.17,0,0,1,.43.4,2,2,0,0,1,.26.64,3.88,3.88,0,0,1,.1,1,4.09,4.09,0,0,1-.15,1.22,1.56,1.56,0,0,1-.47.72,1.16,1.16,0,0,1-.78.25,1.18,1.18,0,0,1-1-.44A2.79,2.79,0,0,1,19.19,30.26Zm.54,0A2.63,2.63,0,0,0,20,31.67a.75.75,0,0,0,.61.35.73.73,0,0,0,.61-.35,2.68,2.68,0,0,0,.25-1.41,2.63,2.63,0,0,0-.25-1.41.74.74,0,0,0-.62-.35.7.7,0,0,0-.58.31A2.75,2.75,0,0,0,19.73,30.26Z" transform="translate(-2.4 -4.9)"/><path class="cls-5" d="M22.53,30.26A4.12,4.12,0,0,1,22.68,29a1.58,1.58,0,0,1,.47-.71,1.2,1.2,0,0,1,.78-.25,1.16,1.16,0,0,1,.6.14,1,1,0,0,1,.43.4,1.79,1.79,0,0,1,.27.64,3.88,3.88,0,0,1,.1,1,3.76,3.76,0,0,1-.16,1.22,1.55,1.55,0,0,1-.46.72A1.32,1.32,0,0,1,23,32,2.87,2.87,0,0,1,22.53,30.26Zm.54,0a2.63,2.63,0,0,0,.25,1.41.73.73,0,0,0,.61.35.75.75,0,0,0,.61-.35,2.78,2.78,0,0,0,.25-1.41,2.73,2.73,0,0,0-.25-1.41.75.75,0,0,0-.62-.35.7.7,0,0,0-.58.31A2.75,2.75,0,0,0,23.07,30.26Z" transform="translate(-2.4 -4.9)"/><path class="cls-5" d="M19.23,61.32v-.5H22v.41a5.7,5.7,0,0,0-.82,1.16,7.12,7.12,0,0,0-.62,1.49,5.28,5.28,0,0,0-.2,1.18h-.54a4.87,4.87,0,0,1,.2-1.23,5.82,5.82,0,0,1,.54-1.38,6,6,0,0,1,.76-1.13Z" transform="translate(-2.4 -4.9)"/><path class="cls-5" d="M22.53,63.93l.55,0a1,1,0,0,0,.29.61.76.76,0,0,0,.54.21.84.84,0,0,0,.64-.29,1.07,1.07,0,0,0,.27-.76,1,1,0,0,0-.26-.71.87.87,0,0,0-.66-.27.9.9,0,0,0-.46.12.85.85,0,0,0-.32.3l-.5-.06L23,60.82h2.13v.5H23.46l-.23,1.16a1.4,1.4,0,0,1,.81-.27,1.3,1.3,0,0,1,.95.39,1.35,1.35,0,0,1,.39,1,1.6,1.6,0,0,1-.34,1,1.37,1.37,0,0,1-1.13.52,1.4,1.4,0,0,1-1-.33A1.25,1.25,0,0,1,22.53,63.93Z" transform="translate(-2.4 -4.9)"/><path class="cls-5" d="M22.53,80a4.12,4.12,0,0,1,.15-1.23,1.48,1.48,0,0,1,.47-.71,1.2,1.2,0,0,1,.78-.26,1.27,1.27,0,0,1,.6.14,1.13,1.13,0,0,1,.43.41,1.82,1.82,0,0,1,.27.63,4,4,0,0,1,.1,1,3.76,3.76,0,0,1-.16,1.22,1.55,1.55,0,0,1-.46.72A1.32,1.32,0,0,1,23,81.75,2.87,2.87,0,0,1,22.53,80Zm.54,0a2.68,2.68,0,0,0,.25,1.41.73.73,0,0,0,.61.35.75.75,0,0,0,.61-.35A2.78,2.78,0,0,0,24.79,80a2.73,2.73,0,0,0-.25-1.41.75.75,0,0,0-.62-.35.68.68,0,0,0-.58.31A2.73,2.73,0,0,0,23.07,80Z" transform="translate(-2.4 -4.9)"/><path d="M63.34,86h-.53V82.59a2.4,2.4,0,0,1-.5.36,3.44,3.44,0,0,1-.55.27v-.51a2.92,2.92,0,0,0,.77-.5,2.07,2.07,0,0,0,.47-.57h.34Z" transform="translate(-2.4 -4.9)"/><path d="M99.63,85.44V86H96.79a1.15,1.15,0,0,1,.06-.37A2,2,0,0,1,97.2,85a5.66,5.66,0,0,1,.69-.65,5.49,5.49,0,0,0,.94-.91,1,1,0,0,0,.25-.63.69.69,0,0,0-.22-.53.8.8,0,0,0-.59-.22.84.84,0,0,0-.61.23.87.87,0,0,0-.23.63l-.54-.05a1.33,1.33,0,0,1,.42-.92,1.39,1.39,0,0,1,1-.32,1.34,1.34,0,0,1,1,.34,1.13,1.13,0,0,1,.36.85,1.32,1.32,0,0,1-.1.51,2.06,2.06,0,0,1-.35.52,10.12,10.12,0,0,1-.82.76,8,8,0,0,0-.61.54,1.79,1.79,0,0,0-.22.28Z" transform="translate(-2.4 -4.9)"/><path d="M45.51,92.21l.54,0a1.08,1.08,0,0,0,.18.53.87.87,0,0,0,.43.33,1.53,1.53,0,0,0,.66.13,1.45,1.45,0,0,0,.57-.1.75.75,0,0,0,.37-.26.65.65,0,0,0,.12-.37.58.58,0,0,0-.11-.35.92.92,0,0,0-.39-.26l-.76-.21a3.16,3.16,0,0,1-.83-.27,1.07,1.07,0,0,1-.46-.4.94.94,0,0,1-.15-.53,1.1,1.1,0,0,1,.72-1,2.22,2.22,0,0,1,.79-.14,2.17,2.17,0,0,1,.84.15,1.2,1.2,0,0,1,.56.45,1.33,1.33,0,0,1,.21.68l-.54,0a.85.85,0,0,0-.3-.61,1.16,1.16,0,0,0-.75-.21,1.18,1.18,0,0,0-.75.19.54.54,0,0,0-.24.45.49.49,0,0,0,.17.38,2.2,2.2,0,0,0,.86.31,6.15,6.15,0,0,1,1,.27,1.31,1.31,0,0,1,.55.44,1.07,1.07,0,0,1,.18.61,1.17,1.17,0,0,1-.19.65,1.33,1.33,0,0,1-.57.47,2,2,0,0,1-.83.17,2.51,2.51,0,0,1-1-.17,1.3,1.3,0,0,1-.62-.51A1.49,1.49,0,0,1,45.51,92.21Z" transform="translate(-2.4 -4.9)"/><path d="M49.64,94.78V90.47h.48v.41a1.17,1.17,0,0,1,.38-.36A1.08,1.08,0,0,1,51,90.4a1.24,1.24,0,0,1,.71.21,1.34,1.34,0,0,1,.46.58,2.18,2.18,0,0,1,.15.82,2.2,2.2,0,0,1-.17.86,1.34,1.34,0,0,1-1.18.79,1,1,0,0,1-.48-.12.93.93,0,0,1-.34-.28v1.52Zm.48-2.73a1.34,1.34,0,0,0,.24.88.72.72,0,0,0,.59.29.75.75,0,0,0,.6-.3A1.37,1.37,0,0,0,51.8,92a1.41,1.41,0,0,0-.24-.89.75.75,0,0,0-.59-.29.74.74,0,0,0-.59.31A1.38,1.38,0,0,0,50.12,92.05Z" transform="translate(-2.4 -4.9)"/><path d="M55.11,92.58l.54.07a1.24,1.24,0,0,1-.48.74,1.39,1.39,0,0,1-.89.27,1.43,1.43,0,0,1-1.08-.42,1.68,1.68,0,0,1-.4-1.18,1.71,1.71,0,0,1,.41-1.22,1.37,1.37,0,0,1,1-.44,1.3,1.3,0,0,1,1,.43,1.65,1.65,0,0,1,.4,1.19v.14H53.35a1.16,1.16,0,0,0,.29.79.86.86,0,0,0,.65.27.79.79,0,0,0,.49-.15A1,1,0,0,0,55.11,92.58Zm-1.73-.85h1.73a1,1,0,0,0-.2-.59.79.79,0,0,0-.65-.3.84.84,0,0,0-.61.24A.9.9,0,0,0,53.38,91.73Z" transform="translate(-2.4 -4.9)"/><path d="M58.44,92.58l.55.07a1.34,1.34,0,0,1-.48.74,1.41,1.41,0,0,1-.89.27,1.43,1.43,0,0,1-1.08-.42,1.64,1.64,0,0,1-.4-1.18,1.71,1.71,0,0,1,.4-1.22,1.37,1.37,0,0,1,1.05-.44,1.3,1.3,0,0,1,1,.43A1.65,1.65,0,0,1,59,92a.82.82,0,0,1,0,.14H56.68A1.21,1.21,0,0,0,57,93a.88.88,0,0,0,.65.27.82.82,0,0,0,.5-.15A1,1,0,0,0,58.44,92.58Zm-1.73-.85h1.74a1,1,0,0,0-.2-.59.81.81,0,0,0-.65-.3.84.84,0,0,0-.61.24A1,1,0,0,0,56.71,91.73Z" transform="translate(-2.4 -4.9)"/><path d="M61.67,93.58v-.39a1,1,0,0,1-.87.47,1.16,1.16,0,0,1-.68-.21,1.44,1.44,0,0,1-.49-.57,2.25,2.25,0,0,1,0-1.69,1.18,1.18,0,0,1,.46-.58,1.23,1.23,0,0,1,.7-.21,1,1,0,0,1,.85.43V89.29h.53v4.29ZM60,92a1.42,1.42,0,0,0,.25.9.79.79,0,0,0,.6.29.74.74,0,0,0,.59-.28,1.32,1.32,0,0,0,.24-.86,1.43,1.43,0,0,0-.25-.94.75.75,0,0,0-1.19,0A1.38,1.38,0,0,0,60,92Z" transform="translate(-2.4 -4.9)"/><path d="M64.67,94.78V89.29h1.16v.44h-.64v4.61h.64v.44Z" transform="translate(-2.4 -4.9)"/><path d="M66.32,93.58V90.47h.47v.44a1.26,1.26,0,0,1,.39-.37,1.16,1.16,0,0,1,.56-.14,1,1,0,0,1,.56.15.75.75,0,0,1,.32.4,1.09,1.09,0,0,1,1-.55,1,1,0,0,1,.71.26,1.07,1.07,0,0,1,.25.79v2.13H70v-2a1.25,1.25,0,0,0-.05-.45.39.39,0,0,0-.18-.22.57.57,0,0,0-.32-.09.7.7,0,0,0-.54.22.93.93,0,0,0-.22.7v1.8h-.53v-2A.83.83,0,0,0,68,91a.47.47,0,0,0-.42-.18.73.73,0,0,0-.41.12.67.67,0,0,0-.28.34,2.15,2.15,0,0,0-.08.65v1.61Z" transform="translate(-2.4 -4.9)"/><path d="M70.92,93.66l1.25-4.44h.42l-1.24,4.44Z" transform="translate(-2.4 -4.9)"/><path d="M72.78,92.66l.52-.09a.74.74,0,0,0,.24.48.82.82,0,0,0,.56.17.79.79,0,0,0,.54-.15.42.42,0,0,0,.18-.34.3.3,0,0,0-.16-.28,2,2,0,0,0-.54-.18,5.32,5.32,0,0,1-.8-.26.81.81,0,0,1-.34-.29.79.79,0,0,1-.12-.42.8.8,0,0,1,.1-.38.83.83,0,0,1,.26-.3,1,1,0,0,1,.33-.15A1.43,1.43,0,0,1,74,90.4a1.79,1.79,0,0,1,.64.11.85.85,0,0,1,.41.28,1.14,1.14,0,0,1,.18.49l-.51.07a.58.58,0,0,0-.21-.38.73.73,0,0,0-.47-.13.87.87,0,0,0-.52.12.36.36,0,0,0-.16.28.29.29,0,0,0,.07.18.38.38,0,0,0,.2.14l.47.14a8,8,0,0,1,.78.24.86.86,0,0,1,.34.28.73.73,0,0,1,.13.45.91.91,0,0,1-.15.5,1.09,1.09,0,0,1-.45.36,1.67,1.67,0,0,1-.65.13,1.45,1.45,0,0,1-.93-.26A1.1,1.1,0,0,1,72.78,92.66Z" transform="translate(-2.4 -4.9)"/><path d="M76.87,94.78H75.71v-.44h.63V89.73h-.63v-.44h1.16Z" transform="translate(-2.4 -4.9)"/><path d="M6.7,55.72H2.91v1.41H2.4v-3.4h.51v1.42H6.7Z" transform="translate(-2.4 -4.9)"/><path d="M6.7,53.21H2.4v-.53H3.94a1.17,1.17,0,0,1-.42-.93,1.26,1.26,0,0,1,.13-.6A.78.78,0,0,1,4,50.79a1.62,1.62,0,0,1,.7-.11h2v.52h-2a.79.79,0,0,0-.58.18.62.62,0,0,0-.18.48.86.86,0,0,0,.12.44.68.68,0,0,0,.33.3,1.75,1.75,0,0,0,.58.08H6.7Z" transform="translate(-2.4 -4.9)"/><path d="M6.7,49.88H3.59v-.47h.47a1.48,1.48,0,0,1-.44-.34.59.59,0,0,1-.1-.34,1,1,0,0,1,.17-.54l.48.18a.82.82,0,0,0-.11.39.57.57,0,0,0,.1.31.53.53,0,0,0,.29.19,2.06,2.06,0,0,0,.62.09H6.7Z" transform="translate(-2.4 -4.9)"/><path d="M6.7,45.84H6.24a1.14,1.14,0,0,1,.53,1,1.27,1.27,0,0,1-.11.52.82.82,0,0,1-.26.35,1.15,1.15,0,0,1-.39.17,3,3,0,0,1-.5,0H3.59v-.53H5.31a3.35,3.35,0,0,0,.56,0,.57.57,0,0,0,.32-.21.65.65,0,0,0,.12-.4.89.89,0,0,0-.12-.45A.66.66,0,0,0,5.86,46a1.6,1.6,0,0,0-.61-.09H3.59v-.52H6.7Z" transform="translate(-2.4 -4.9)"/><path d="M5.77,44.75l-.08-.52A.7.7,0,0,0,6.17,44a.85.85,0,0,0,.16-.56.89.89,0,0,0-.14-.54.47.47,0,0,0-.35-.17.32.32,0,0,0-.28.15,2.29,2.29,0,0,0-.18.54,5.44,5.44,0,0,1-.25.81.83.83,0,0,1-.3.34.88.88,0,0,1-.42.11A.82.82,0,0,1,4,44.57a.94.94,0,0,1-.3-.26A1.08,1.08,0,0,1,3.58,44a1.63,1.63,0,0,1-.06-.45,1.85,1.85,0,0,1,.1-.65.92.92,0,0,1,.29-.41,1.34,1.34,0,0,1,.48-.18l.07.52a.57.57,0,0,0-.38.2.74.74,0,0,0-.13.48.89.89,0,0,0,.12.52.35.35,0,0,0,.28.15.33.33,0,0,0,.19-.06.64.64,0,0,0,.14-.2c0-.06.06-.21.13-.47a5.57,5.57,0,0,1,.25-.78.71.71,0,0,1,.72-.47.91.91,0,0,1,.5.15.93.93,0,0,1,.36.44,1.59,1.59,0,0,1,.13.66,1.5,1.5,0,0,1-.25.92A1.16,1.16,0,0,1,5.77,44.75Z" transform="translate(-2.4 -4.9)"/><path d="M6.23,40.39l.46-.08a2.08,2.08,0,0,1,0,.4,1,1,0,0,1-.09.45.56.56,0,0,1-.24.22,2,2,0,0,1-.62.06H4v.39H3.59v-.39H2.82l-.32-.52H3.59v-.53H4v.53H5.82a.89.89,0,0,0,.29,0,.28.28,0,0,0,.1-.09.4.4,0,0,0,0-.18C6.25,40.56,6.24,40.48,6.23,40.39Z" transform="translate(-2.4 -4.9)"/><path d="M7.89,38.19H2.4V37h.44v.64H7.45V37h.44Z" transform="translate(-2.4 -4.9)"/><path d="M6.7,36.48H2.4v-.59l3.37-2.25H2.4v-.55H6.7v.59L3.32,35.93H6.7Z" transform="translate(-2.4 -4.9)"/><path d="M7.89,31.32v1.17H7.45v-.64H2.84v.64H2.4V31.32Z" transform="translate(-2.4 -4.9)"/><path class="cls-5" d="M29.46,27l.54,0a1.19,1.19,0,0,0,.17.53,1.05,1.05,0,0,0,.43.33,1.59,1.59,0,0,0,.66.13,1.5,1.5,0,0,0,.58-.1.8.8,0,0,0,.37-.26.65.65,0,0,0,.12-.37.53.53,0,0,0-.12-.35.82.82,0,0,0-.38-.26l-.77-.21a4.11,4.11,0,0,1-.83-.26,1.4,1.4,0,0,1-.46-.4,1,1,0,0,1-.15-.54,1.13,1.13,0,0,1,.73-1,2.18,2.18,0,0,1,.79-.14,2.24,2.24,0,0,1,.84.15,1.2,1.2,0,0,1,.56.45,1.33,1.33,0,0,1,.21.68l-.55,0a.81.81,0,0,0-.29-.61,1.51,1.51,0,0,0-1.5,0,.54.54,0,0,0-.24.45.49.49,0,0,0,.17.38,2.13,2.13,0,0,0,.86.31,6.52,6.52,0,0,1,.95.27,1.31,1.31,0,0,1,.55.44,1.07,1.07,0,0,1,.18.61,1.18,1.18,0,0,1-.2.65,1.3,1.3,0,0,1-.56.47,2,2,0,0,1-.83.17,2.57,2.57,0,0,1-1-.17,1.34,1.34,0,0,1-.61-.51A1.49,1.49,0,0,1,29.46,27Z" transform="translate(-2.4 -4.9)"/><path class="cls-5" d="M33.59,28.37v-4.3h.52v1.54a1.21,1.21,0,0,1,.94-.43,1.27,1.27,0,0,1,.6.14.78.78,0,0,1,.36.38,1.77,1.77,0,0,1,.11.69v2h-.53v-2a.78.78,0,0,0-.17-.57.62.62,0,0,0-.48-.18.83.83,0,0,0-.44.12.68.68,0,0,0-.3.33,1.48,1.48,0,0,0-.09.57v1.71Z" transform="translate(-2.4 -4.9)"/><path class="cls-5" d="M36.73,26.81a1.6,1.6,0,0,1,.48-1.28,1.45,1.45,0,0,1,1-.35,1.42,1.42,0,0,1,1.05.42,1.61,1.61,0,0,1,.4,1.17,2,2,0,0,1-.18.94,1.29,1.29,0,0,1-.52.54,1.61,1.61,0,0,1-.75.19A1.4,1.4,0,0,1,37.13,28,1.68,1.68,0,0,1,36.73,26.81Zm.54,0a1.31,1.31,0,0,0,.26.89.87.87,0,0,0,1.31,0,1.37,1.37,0,0,0,.26-.91,1.31,1.31,0,0,0-.26-.87.83.83,0,0,0-.65-.3.83.83,0,0,0-.66.3A1.31,1.31,0,0,0,37.27,26.81Z" transform="translate(-2.4 -4.9)"/><path class="cls-5" d="M40.26,28.37V25.25h.47v.48a1.13,1.13,0,0,1,.34-.44.57.57,0,0,1,.33-.11,1.1,1.1,0,0,1,.55.17l-.19.49a.76.76,0,0,0-.38-.11.48.48,0,0,0-.31.1.61.61,0,0,0-.2.29,2,2,0,0,0-.09.62v1.63Z" transform="translate(-2.4 -4.9)"/><path class="cls-5" d="M43.41,27.89l.08.47a2.08,2.08,0,0,1-.4.05,1,1,0,0,1-.45-.09.56.56,0,0,1-.22-.24,2.07,2.07,0,0,1-.06-.63V25.66H42v-.41h.39v-.77l.52-.31v1.08h.53v.41h-.53v1.82a.85.85,0,0,0,0,.29.24.24,0,0,0,.09.11.42.42,0,0,0,.18,0A1.06,1.06,0,0,0,43.41,27.89Z" transform="translate(-2.4 -4.9)"/><path class="cls-5" d="M43.72,27.08v-.53h1.62v.53Z" transform="translate(-2.4 -4.9)"/><path class="cls-5" d="M47.94,28.37V28a1,1,0,0,1-.87.47,1.19,1.19,0,0,1-.68-.21,1.34,1.34,0,0,1-.48-.57,1.93,1.93,0,0,1-.18-.85,2.24,2.24,0,0,1,.16-.84,1.18,1.18,0,0,1,.46-.58,1.23,1.23,0,0,1,.7-.21,1,1,0,0,1,.5.12,1,1,0,0,1,.36.31V24.07h.52v4.3Zm-1.66-1.56a1.36,1.36,0,0,0,.25.9.77.77,0,0,0,.59.29.74.74,0,0,0,.59-.28,1.32,1.32,0,0,0,.24-.86,1.49,1.49,0,0,0-.24-.94.77.77,0,0,0-.61-.3.74.74,0,0,0-.59.29A1.39,1.39,0,0,0,46.28,26.81Z" transform="translate(-2.4 -4.9)"/><path class="cls-5" d="M51.3,28.37v-.46a1.14,1.14,0,0,1-1,.53,1.26,1.26,0,0,1-.51-.11.86.86,0,0,1-.36-.27,1,1,0,0,1-.16-.39,2.77,2.77,0,0,1,0-.49V25.25h.53V27a3.43,3.43,0,0,0,0,.56.54.54,0,0,0,.21.32.65.65,0,0,0,.4.12.83.83,0,0,0,.44-.12.68.68,0,0,0,.3-.33,1.63,1.63,0,0,0,.08-.61V25.25h.53v3.12Z" transform="translate(-2.4 -4.9)"/><path class="cls-5" d="M52.59,28.37V25.25h.48v.48a1.23,1.23,0,0,1,.33-.44.6.6,0,0,1,.34-.11,1,1,0,0,1,.54.17l-.18.49a.82.82,0,0,0-.39-.11.52.52,0,0,0-.31.1.59.59,0,0,0-.19.29,2,2,0,0,0-.09.62v1.63Z" transform="translate(-2.4 -4.9)"/><path class="cls-5" d="M56.63,28a2,2,0,0,1-.57.35,1.58,1.58,0,0,1-.58.11,1.19,1.19,0,0,1-.79-.25.86.86,0,0,1-.27-.65.8.8,0,0,1,.1-.41.91.91,0,0,1,.27-.31,1.63,1.63,0,0,1,.38-.17,4.41,4.41,0,0,1,.47-.08,4.72,4.72,0,0,0,.94-.18c0-.07,0-.12,0-.14a.58.58,0,0,0-.15-.45,1.15,1.15,0,0,0-1.15-.05.82.82,0,0,0-.27.46l-.51-.07a1.23,1.23,0,0,1,.23-.53,1,1,0,0,1,.47-.32,2.1,2.1,0,0,1,.7-.11,1.71,1.71,0,0,1,.65.1.87.87,0,0,1,.37.23,1,1,0,0,1,.16.36,2.62,2.62,0,0,1,0,.49v.7a8.38,8.38,0,0,0,0,.93,1.32,1.32,0,0,0,.13.38h-.55A1.12,1.12,0,0,1,56.63,28Zm-.05-1.18a3.53,3.53,0,0,1-.86.2,1.8,1.8,0,0,0-.46.11.44.44,0,0,0-.21.17.47.47,0,0,0,.09.6.66.66,0,0,0,.47.14,1.08,1.08,0,0,0,.54-.13.83.83,0,0,0,.35-.37,1.34,1.34,0,0,0,.08-.52Z" transform="translate(-2.4 -4.9)"/><path class="cls-5" d="M59.08,27.89l.08.47a2.08,2.08,0,0,1-.4.05.88.88,0,0,1-.44-.09.59.59,0,0,1-.23-.24,2.07,2.07,0,0,1-.06-.63V25.66h-.39v-.41H58v-.77l.52-.31v1.08h.53v.41h-.53v1.82a.85.85,0,0,0,0,.29.24.24,0,0,0,.09.11.42.42,0,0,0,.18,0A1,1,0,0,0,59.08,27.89Z" transform="translate(-2.4 -4.9)"/><path class="cls-5" d="M59.6,24.68v-.61h.53v.61Zm0,3.69V25.25h.53v3.12Z" transform="translate(-2.4 -4.9)"/><path class="cls-5" d="M60.74,26.81a1.6,1.6,0,0,1,.48-1.28,1.43,1.43,0,0,1,1-.35,1.39,1.39,0,0,1,1,.42,1.58,1.58,0,0,1,.41,1.17,2,2,0,0,1-.18.94,1.29,1.29,0,0,1-.52.54,1.61,1.61,0,0,1-.75.19A1.4,1.4,0,0,1,61.14,28,1.68,1.68,0,0,1,60.74,26.81Zm.54,0a1.31,1.31,0,0,0,.26.89.87.87,0,0,0,1.31,0,1.37,1.37,0,0,0,.26-.91,1.31,1.31,0,0,0-.26-.87.83.83,0,0,0-.65-.3.83.83,0,0,0-.66.3A1.31,1.31,0,0,0,61.28,26.81Z" transform="translate(-2.4 -4.9)"/><path class="cls-5" d="M64.27,28.37V25.25h.47v.45a1.11,1.11,0,0,1,1-.52,1.46,1.46,0,0,1,.52.1.86.86,0,0,1,.36.27,1.14,1.14,0,0,1,.16.39,3,3,0,0,1,0,.51v1.92h-.53v-1.9a1.48,1.48,0,0,0-.06-.48.45.45,0,0,0-.22-.25.64.64,0,0,0-.37-.1.88.88,0,0,0-.58.21,1.1,1.1,0,0,0-.24.82v1.7Z" transform="translate(-2.4 -4.9)"/><path class="cls-5" d="M69.27,28.37V25.25h.47v.48a1.23,1.23,0,0,1,.34-.44.58.58,0,0,1,.34-.11,1.09,1.09,0,0,1,.54.17l-.18.49a.82.82,0,0,0-.39-.11.48.48,0,0,0-.31.1.61.61,0,0,0-.2.29,2,2,0,0,0-.09.62v1.63Z" transform="translate(-2.4 -4.9)"/><path class="cls-5" d="M73.31,28.37v-.46a1.14,1.14,0,0,1-1,.53,1.26,1.26,0,0,1-.51-.11.86.86,0,0,1-.36-.27,1,1,0,0,1-.16-.39,2.77,2.77,0,0,1,0-.49V25.25h.53V27a3.43,3.43,0,0,0,0,.56.54.54,0,0,0,.21.32.65.65,0,0,0,.4.12.83.83,0,0,0,.44-.12.68.68,0,0,0,.3-.33,1.63,1.63,0,0,0,.08-.61V25.25h.53v3.12Z" transform="translate(-2.4 -4.9)"/><path class="cls-5" d="M74.61,28.37V25.25h.47v.45a1.11,1.11,0,0,1,1-.52,1.46,1.46,0,0,1,.52.1.76.76,0,0,1,.35.27,1,1,0,0,1,.17.39,3,3,0,0,1,0,.51v1.92h-.53v-1.9a1.48,1.48,0,0,0-.06-.48.49.49,0,0,0-.22-.25.66.66,0,0,0-.37-.1.86.86,0,0,0-.58.21,1.1,1.1,0,0,0-.24.82v1.7Z" transform="translate(-2.4 -4.9)"/><path class="cls-5" d="M78,28.37V25.25h.47v.45a1.11,1.11,0,0,1,1-.52,1.46,1.46,0,0,1,.52.1.89.89,0,0,1,.35.27,1,1,0,0,1,.16.39,3,3,0,0,1,0,.51v1.92H80v-1.9a1.22,1.22,0,0,0-.07-.48.47.47,0,0,0-.21-.25.66.66,0,0,0-.37-.1.84.84,0,0,0-.58.21,1.06,1.06,0,0,0-.25.82v1.7Z" transform="translate(-2.4 -4.9)"/><path class="cls-5" d="M81.29,24.68v-.61h.52v.61Zm0,3.69V25.25h.52v3.12Z" transform="translate(-2.4 -4.9)"/><path class="cls-5" d="M82.62,28.37V25.25h.47v.45a1.11,1.11,0,0,1,1-.52,1.46,1.46,0,0,1,.52.1.89.89,0,0,1,.35.27,1,1,0,0,1,.16.39,3,3,0,0,1,0,.51v1.92h-.52v-1.9a1.22,1.22,0,0,0-.07-.48.47.47,0,0,0-.21-.25.66.66,0,0,0-.37-.1.84.84,0,0,0-.58.21,1.06,1.06,0,0,0-.25.82v1.7Z" transform="translate(-2.4 -4.9)"/><path class="cls-5" d="M85.86,28.62l.51.08a.46.46,0,0,0,.18.34.86.86,0,0,0,.53.15.92.92,0,0,0,.57-.15.71.71,0,0,0,.27-.41A3.16,3.16,0,0,0,88,28a1.1,1.1,0,0,1-.87.41,1.19,1.19,0,0,1-1-.47,1.81,1.81,0,0,1-.35-1.11,2,2,0,0,1,.16-.82,1.29,1.29,0,0,1,.47-.58,1.22,1.22,0,0,1,.72-.21,1.13,1.13,0,0,1,.91.45v-.38h.48v2.69a2.5,2.5,0,0,1-.15,1,1,1,0,0,1-.46.48,1.62,1.62,0,0,1-.79.18,1.52,1.52,0,0,1-.9-.25A.85.85,0,0,1,85.86,28.62Zm.43-1.87a1.33,1.33,0,0,0,.25.9.78.78,0,0,0,.6.28.75.75,0,0,0,.61-.28,1.28,1.28,0,0,0,.25-.88,1.26,1.26,0,0,0-.25-.86.81.81,0,0,0-.61-.29.76.76,0,0,0-.6.29A1.22,1.22,0,0,0,86.29,26.75Z" transform="translate(-2.4 -4.9)"/><path class="cls-5" d="M29.58,35.57V32.45h.47v.48a1.48,1.48,0,0,1,.34-.44.58.58,0,0,1,.34-.11,1,1,0,0,1,.54.17l-.18.49a.82.82,0,0,0-.39-.11.5.5,0,0,0-.31.1.61.61,0,0,0-.2.29,2.39,2.39,0,0,0-.08.62v1.63Z" transform="translate(-2.4 -4.9)"/><path class="cls-5" d="M33.61,35.18a1.83,1.83,0,0,1-.56.35,1.58,1.58,0,0,1-.58.11,1.17,1.17,0,0,1-.79-.25.86.86,0,0,1-.28-.64.82.82,0,0,1,.11-.42.91.91,0,0,1,.27-.31,1.46,1.46,0,0,1,.38-.17,4,4,0,0,1,.47-.08,4.72,4.72,0,0,0,.94-.18v-.14a.58.58,0,0,0-.15-.45.86.86,0,0,0-.6-.18.91.91,0,0,0-.55.13.87.87,0,0,0-.26.46l-.51-.07a1.13,1.13,0,0,1,.23-.53,1,1,0,0,1,.46-.32,2.2,2.2,0,0,1,.71-.11,2,2,0,0,1,.65.1.9.9,0,0,1,.36.23.86.86,0,0,1,.17.36,4.72,4.72,0,0,1,0,.49v.7a5.84,5.84,0,0,0,0,.93,1.07,1.07,0,0,0,.13.38h-.55A1.12,1.12,0,0,1,33.61,35.18Zm0-1.18a3.53,3.53,0,0,1-.86.2,1.8,1.8,0,0,0-.46.11.44.44,0,0,0-.21.17.45.45,0,0,0-.07.25.43.43,0,0,0,.16.35.63.63,0,0,0,.46.14,1.09,1.09,0,0,0,.55-.13.81.81,0,0,0,.34-.37,1.15,1.15,0,0,0,.09-.52Z" transform="translate(-2.4 -4.9)"/><path class="cls-5" d="M34.92,35.57V32.45h.48v.45a1.09,1.09,0,0,1,1-.52,1.4,1.4,0,0,1,.51.1.86.86,0,0,1,.36.27,1.14,1.14,0,0,1,.16.39,3,3,0,0,1,0,.51v1.92h-.53v-1.9a1.48,1.48,0,0,0-.06-.48.45.45,0,0,0-.22-.25.64.64,0,0,0-.37-.1.88.88,0,0,0-.58.21,1.1,1.1,0,0,0-.24.82v1.7Z" transform="translate(-2.4 -4.9)"/><path class="cls-5" d="M38.16,35.82l.51.08a.5.5,0,0,0,.18.35.94.94,0,0,0,.54.14,1,1,0,0,0,.56-.14.68.68,0,0,0,.27-.42,3.16,3.16,0,0,0,0-.67,1.09,1.09,0,0,1-.86.41,1.16,1.16,0,0,1-1-.47A1.75,1.75,0,0,1,38.06,34a2,2,0,0,1,.16-.82,1.23,1.23,0,0,1,1.18-.79,1.11,1.11,0,0,1,.91.45v-.38h.49v2.69a2.5,2.5,0,0,1-.15,1,1,1,0,0,1-.47.48,1.59,1.59,0,0,1-.79.18,1.55,1.55,0,0,1-.9-.25A.85.85,0,0,1,38.16,35.82ZM38.6,34a1.38,1.38,0,0,0,.24.9.8.8,0,0,0,1.22,0,1.34,1.34,0,0,0,.25-.88,1.26,1.26,0,0,0-.26-.86.78.78,0,0,0-1.21,0A1.28,1.28,0,0,0,38.6,34Z" transform="translate(-2.4 -4.9)"/><path class="cls-5" d="M43.72,34.56l.55.07a1.34,1.34,0,0,1-.48.74,1.6,1.6,0,0,1-2-.15,1.64,1.64,0,0,1-.4-1.18,1.71,1.71,0,0,1,.4-1.22,1.37,1.37,0,0,1,1-.44,1.33,1.33,0,0,1,1,.43,1.69,1.69,0,0,1,.4,1.19.76.76,0,0,1,0,.14H42a1.21,1.21,0,0,0,.29.79.88.88,0,0,0,.65.27.82.82,0,0,0,.5-.15A1,1,0,0,0,43.72,34.56ZM42,33.71h1.74a1,1,0,0,0-.2-.59.81.81,0,0,0-.65-.3.84.84,0,0,0-.61.24A1,1,0,0,0,42,33.71Z" transform="translate(-2.4 -4.9)"/><path class="cls-5" d="M32.05,70.64l.57.14A1.92,1.92,0,0,1,32,71.85a1.81,1.81,0,0,1-1.14.37,2,2,0,0,1-1.13-.29,1.7,1.7,0,0,1-.66-.82A2.91,2.91,0,0,1,28.82,70a2.58,2.58,0,0,1,.26-1.17,1.79,1.79,0,0,1,.73-.76,2.14,2.14,0,0,1,1-.26,1.74,1.74,0,0,1,1.08.33,1.71,1.71,0,0,1,.62.93l-.56.13a1.36,1.36,0,0,0-.44-.69,1.15,1.15,0,0,0-.71-.21,1.38,1.38,0,0,0-.83.24,1.29,1.29,0,0,0-.47.63,2.62,2.62,0,0,0-.13.83,2.58,2.58,0,0,0,.16,1,1.2,1.2,0,0,0,.49.61,1.46,1.46,0,0,0,.73.2,1.19,1.19,0,0,0,.81-.28A1.4,1.4,0,0,0,32.05,70.64Z" transform="translate(-2.4 -4.9)"/><path class="cls-5" d="M33.06,70.59a1.59,1.59,0,0,1,.48-1.28,1.43,1.43,0,0,1,1-.35,1.39,1.39,0,0,1,1,.42A1.57,1.57,0,0,1,36,70.54a2.09,2.09,0,0,1-.18.95,1.21,1.21,0,0,1-.52.53,1.49,1.49,0,0,1-.75.19,1.4,1.4,0,0,1-1.06-.42A1.66,1.66,0,0,1,33.06,70.59Zm.54,0a1.33,1.33,0,0,0,.26.89.83.83,0,0,0,.66.3.83.83,0,0,0,.65-.3,1.37,1.37,0,0,0,.26-.91,1.27,1.27,0,0,0-.26-.87.87.87,0,0,0-1.31,0A1.36,1.36,0,0,0,33.6,70.59Z" transform="translate(-2.4 -4.9)"/><path class="cls-5" d="M36.59,72.14V69h.47v.44a1.12,1.12,0,0,1,1-.51,1.27,1.27,0,0,1,.52.1.76.76,0,0,1,.35.27,1,1,0,0,1,.17.39,2.89,2.89,0,0,1,0,.51v1.91h-.53V70.25a1.48,1.48,0,0,0-.06-.48.55.55,0,0,0-.22-.26.72.72,0,0,0-.37-.09.86.86,0,0,0-.58.21,1.06,1.06,0,0,0-.24.81v1.7Z" transform="translate(-2.4 -4.9)"/><path class="cls-5" d="M41.08,71.67l.07.47a1.91,1.91,0,0,1-.39,0,.92.92,0,0,1-.45-.09.46.46,0,0,1-.22-.24,1.61,1.61,0,0,1-.07-.62V69.44h-.38V69H40v-.77l.53-.32V69h.53v.41h-.53v1.82a.85.85,0,0,0,0,.29.15.15,0,0,0,.09.1.3.3,0,0,0,.18,0Z" transform="translate(-2.4 -4.9)"/><path class="cls-5" d="M41.6,68.45v-.6h.52v.6Zm0,3.69V69h.52v3.11Z" transform="translate(-2.4 -4.9)"/><path class="cls-5" d="M42.93,72.14V69h.47v.44a1.12,1.12,0,0,1,1-.51,1.27,1.27,0,0,1,.52.1.89.89,0,0,1,.35.27,1.15,1.15,0,0,1,.17.39c0,.09,0,.27,0,.51v1.91h-.52V70.25a1.48,1.48,0,0,0-.06-.48.62.62,0,0,0-.22-.26.75.75,0,0,0-.37-.09.86.86,0,0,0-.58.21,1,1,0,0,0-.25.81v1.7Z" transform="translate(-2.4 -4.9)"/><path class="cls-5" d="M48.3,72.14v-.45a1.13,1.13,0,0,1-1,.52,1.25,1.25,0,0,1-.51-.1.76.76,0,0,1-.35-.27.87.87,0,0,1-.17-.39,2.85,2.85,0,0,1,0-.49V69h.53v1.73a3.2,3.2,0,0,0,0,.55.53.53,0,0,0,.21.33.65.65,0,0,0,.4.12.89.89,0,0,0,.45-.12.72.72,0,0,0,.29-.33,1.63,1.63,0,0,0,.09-.61V69h.52v3.11Z" transform="translate(-2.4 -4.9)"/><path class="cls-5" d="M49.4,70.59a1.59,1.59,0,0,1,.48-1.28,1.47,1.47,0,0,1,1-.35,1.39,1.39,0,0,1,1,.42,1.61,1.61,0,0,1,.41,1.16,2.09,2.09,0,0,1-.18.95,1.23,1.23,0,0,1-.53.53,1.49,1.49,0,0,1-.75.19,1.38,1.38,0,0,1-1-.42A1.66,1.66,0,0,1,49.4,70.59Zm.55,0a1.28,1.28,0,0,0,.26.89.82.82,0,0,0,.65.3.85.85,0,0,0,.66-.3,1.37,1.37,0,0,0,.26-.91,1.27,1.27,0,0,0-.26-.87.85.85,0,0,0-.66-.3.84.84,0,0,0-.65.29A1.31,1.31,0,0,0,50,70.59Z" transform="translate(-2.4 -4.9)"/><path class="cls-5" d="M55,72.14v-.45a1.16,1.16,0,0,1-1,.52,1.22,1.22,0,0,1-.51-.1.8.8,0,0,1-.36-.27.87.87,0,0,1-.16-.39,2.85,2.85,0,0,1,0-.49V69h.52v1.73a3.2,3.2,0,0,0,0,.55.59.59,0,0,0,.22.33.62.62,0,0,0,.39.12.89.89,0,0,0,.45-.12.62.62,0,0,0,.29-.33,1.63,1.63,0,0,0,.09-.61V69h.53v3.11Z" transform="translate(-2.4 -4.9)"/><path class="cls-5" d="M56.06,71.21l.52-.08a.7.7,0,0,0,.25.48.85.85,0,0,0,.56.17.83.83,0,0,0,.54-.15.43.43,0,0,0,.17-.35A.33.33,0,0,0,58,71a3.13,3.13,0,0,0-.54-.18,4.27,4.27,0,0,1-.8-.25.76.76,0,0,1-.34-.29.79.79,0,0,1-.12-.42.76.76,0,0,1,.1-.39.8.8,0,0,1,.26-.29,1.27,1.27,0,0,1,.33-.16A1.65,1.65,0,0,1,57.3,69a1.79,1.79,0,0,1,.64.11.91.91,0,0,1,.41.28,1,1,0,0,1,.18.48L58,69.9a.54.54,0,0,0-.2-.37.74.74,0,0,0-.48-.14.83.83,0,0,0-.51.12.35.35,0,0,0-.16.29.26.26,0,0,0,.07.18.45.45,0,0,0,.2.14l.46.14a6.53,6.53,0,0,1,.78.24.76.76,0,0,1,.35.28.8.8,0,0,1,.13.45.82.82,0,0,1-.16.49,1,1,0,0,1-.44.37,1.69,1.69,0,0,1-.66.12,1.44,1.44,0,0,1-.92-.25A1.2,1.2,0,0,1,56.06,71.21Z" transform="translate(-2.4 -4.9)"/><path class="cls-5" d="M60.94,72.14V69h.47v.47a1.27,1.27,0,0,1,.33-.43.62.62,0,0,1,.34-.11,1.1,1.1,0,0,1,.55.17l-.19.49a.69.69,0,0,0-.38-.11.48.48,0,0,0-.31.1.55.55,0,0,0-.2.29,2,2,0,0,0-.09.61v1.63Z" transform="translate(-2.4 -4.9)"/><path class="cls-5" d="M65,72.14v-.45a1.13,1.13,0,0,1-1,.52,1.25,1.25,0,0,1-.51-.1.86.86,0,0,1-.36-.27.87.87,0,0,1-.16-.39,2.85,2.85,0,0,1,0-.49V69h.52v1.73a2.9,2.9,0,0,0,0,.55.53.53,0,0,0,.21.33.65.65,0,0,0,.4.12.88.88,0,0,0,.44-.12.68.68,0,0,0,.3-.33,1.91,1.91,0,0,0,.08-.61V69h.53v3.11Z" transform="translate(-2.4 -4.9)"/><path class="cls-5" d="M66.28,72.14V69h.47v.44a1.12,1.12,0,0,1,1-.51,1.27,1.27,0,0,1,.52.1.82.82,0,0,1,.35.27,1.15,1.15,0,0,1,.17.39c0,.09,0,.27,0,.51v1.91h-.52V70.25a1.48,1.48,0,0,0-.06-.48.62.62,0,0,0-.22-.26.75.75,0,0,0-.37-.09.86.86,0,0,0-.58.21,1,1,0,0,0-.25.81v1.7Z" transform="translate(-2.4 -4.9)"/><path class="cls-5" d="M69.61,72.14V69h.48v.44a1.12,1.12,0,0,1,1-.51,1.19,1.19,0,0,1,.51.1.86.86,0,0,1,.36.27,1,1,0,0,1,.16.39,2.89,2.89,0,0,1,0,.51v1.91h-.53V70.25a1.48,1.48,0,0,0-.06-.48.5.5,0,0,0-.22-.26.69.69,0,0,0-.36-.09.84.84,0,0,0-.58.21,1,1,0,0,0-.25.81v1.7Z" transform="translate(-2.4 -4.9)"/><path class="cls-5" d="M73,68.45v-.6h.53v.6Zm0,3.69V69h.53v3.11Z" transform="translate(-2.4 -4.9)"/><path class="cls-5" d="M74.28,72.14V69h.48v.44a1.12,1.12,0,0,1,1-.51,1.19,1.19,0,0,1,.51.1.86.86,0,0,1,.36.27,1,1,0,0,1,.16.39,2.89,2.89,0,0,1,0,.51v1.91h-.53V70.25a1.48,1.48,0,0,0-.06-.48.5.5,0,0,0-.22-.26.69.69,0,0,0-.36-.09.84.84,0,0,0-.58.21,1,1,0,0,0-.25.81v1.7Z" transform="translate(-2.4 -4.9)"/><path class="cls-5" d="M77.52,72.4l.52.08a.51.51,0,0,0,.17.34.89.89,0,0,0,.54.15.94.94,0,0,0,.57-.15.74.74,0,0,0,.27-.41,3.49,3.49,0,0,0,0-.67,1.07,1.07,0,0,1-.86.4,1.15,1.15,0,0,1-1-.46,1.81,1.81,0,0,1-.35-1.11,2,2,0,0,1,.16-.82,1.24,1.24,0,0,1,.47-.58,1.22,1.22,0,0,1,.72-.21,1.09,1.09,0,0,1,.9.45V69h.49v2.69a2.5,2.5,0,0,1-.15,1,1.09,1.09,0,0,1-.47.48,1.57,1.57,0,0,1-.79.18,1.48,1.48,0,0,1-.9-.26A.87.87,0,0,1,77.52,72.4ZM78,70.53a1.33,1.33,0,0,0,.24.89.8.8,0,0,0,1.22,0,1.28,1.28,0,0,0,.25-.88,1.26,1.26,0,0,0-.26-.86.77.77,0,0,0-1.2,0A1.25,1.25,0,0,0,78,70.53Z" transform="translate(-2.4 -4.9)"/><path class="cls-5" d="M82.62,72.14V69h.47v.47a1.27,1.27,0,0,1,.34-.43.58.58,0,0,1,.34-.11,1.09,1.09,0,0,1,.54.17l-.18.49a.72.72,0,0,0-.39-.11.48.48,0,0,0-.31.1.61.61,0,0,0-.2.29,2,2,0,0,0-.08.61v1.63Z" transform="translate(-2.4 -4.9)"/><path class="cls-5" d="M86.65,71.76a2.05,2.05,0,0,1-.56.35,1.61,1.61,0,0,1-.58.1,1.12,1.12,0,0,1-.79-.25.85.85,0,0,1-.28-.64.88.88,0,0,1,.11-.42,1,1,0,0,1,.27-.3,1.46,1.46,0,0,1,.38-.17,4,4,0,0,1,.47-.08,4.88,4.88,0,0,0,.94-.18V70a.57.57,0,0,0-.15-.45.86.86,0,0,0-.6-.18.91.91,0,0,0-.55.13.81.81,0,0,0-.26.46l-.52-.07a1.34,1.34,0,0,1,.24-.54,1,1,0,0,1,.46-.31,2.16,2.16,0,0,1,.71-.11,1.89,1.89,0,0,1,.64.09,1,1,0,0,1,.37.24.93.93,0,0,1,.17.36,4.72,4.72,0,0,1,0,.49v.7a5.84,5.84,0,0,0,0,.93,1,1,0,0,0,.13.37h-.55A1.06,1.06,0,0,1,86.65,71.76Zm0-1.18a3.53,3.53,0,0,1-.86.2,1.8,1.8,0,0,0-.46.11.39.39,0,0,0-.21.17.47.47,0,0,0,.09.6.68.68,0,0,0,.46.14,1,1,0,0,0,.54-.13.78.78,0,0,0,.35-.37,1.2,1.2,0,0,0,.09-.53Z" transform="translate(-2.4 -4.9)"/><path class="cls-5" d="M88,72.14V69h.47v.44a1.12,1.12,0,0,1,1-.51,1.27,1.27,0,0,1,.52.1.76.76,0,0,1,.35.27,1,1,0,0,1,.17.39,2.89,2.89,0,0,1,0,.51v1.91H90V70.25a1.48,1.48,0,0,0-.06-.48.55.55,0,0,0-.22-.26.72.72,0,0,0-.37-.09.86.86,0,0,0-.58.21,1.06,1.06,0,0,0-.24.81v1.7Z" transform="translate(-2.4 -4.9)"/><path class="cls-5" d="M91.2,72.4l.51.08a.47.47,0,0,0,.18.34.87.87,0,0,0,.54.15.91.91,0,0,0,.56-.15.74.74,0,0,0,.27-.41,3.23,3.23,0,0,0,0-.67,1.08,1.08,0,0,1-.86.4,1.15,1.15,0,0,1-1-.46,1.76,1.76,0,0,1-.36-1.11,2.18,2.18,0,0,1,.16-.82,1.3,1.3,0,0,1,.47-.58,1.27,1.27,0,0,1,.72-.21,1.11,1.11,0,0,1,.91.45V69h.49v2.69a2.5,2.5,0,0,1-.15,1,1.14,1.14,0,0,1-.47.48,1.59,1.59,0,0,1-.79.18,1.48,1.48,0,0,1-.9-.26A.82.82,0,0,1,91.2,72.4Zm.44-1.87a1.33,1.33,0,0,0,.24.89.76.76,0,0,0,.61.29.81.81,0,0,0,.61-.28,1.34,1.34,0,0,0,.24-.88,1.26,1.26,0,0,0-.25-.86.76.76,0,0,0-.61-.29.78.78,0,0,0-.6.28A1.31,1.31,0,0,0,91.64,70.53Z" transform="translate(-2.4 -4.9)"/><path class="cls-5" d="M96.76,71.14l.55.07a1.37,1.37,0,0,1-.48.74,1.47,1.47,0,0,1-.89.26,1.4,1.4,0,0,1-1.08-.42,1.62,1.62,0,0,1-.4-1.18,1.73,1.73,0,0,1,.4-1.22,1.4,1.4,0,0,1,1-.43,1.3,1.3,0,0,1,1,.43,1.69,1.69,0,0,1,.4,1.19s0,.08,0,.14H95a1.23,1.23,0,0,0,.29.79.88.88,0,0,0,.65.27.82.82,0,0,0,.5-.15A1.07,1.07,0,0,0,96.76,71.14ZM95,70.29h1.74a1,1,0,0,0-.2-.59.85.85,0,0,0-1.26-.06A1,1,0,0,0,95,70.29Z" transform="translate(-2.4 -4.9)"/></g></svg>