<svg xmlns="http://www.w3.org/2000/svg" width="300.723" height="111.408" viewBox="0 0 300.723 111.408"><g transform="translate(-50.999 -5849.797)"><g transform="translate(-103.543 5533.631)"><path d="M162.957,324h-8.415l1.375-5.248h22.536L177.079,324h-7.165v23.828h-6.957Z"/><path d="M181.161,316.333h6.457v8.622c0,1.5-.042,3.416-.125,4.958h.083a8.356,8.356,0,0,1,7.082-4.166c5.5,0,8.123,3.5,8.123,9.373v12.705h-6.5V337.536c0-4.041-.583-6.54-3.749-6.54-3.749,0-4.873,3.332-4.873,7.331v9.5h-6.5Z"/><path d="M206.864,336.994c0-6.623,4.54-11.247,11.33-11.247,6.374,0,9.956,3.749,9.956,11.58,0,.334-.041,1.25-.083,1.542H213.362c.167,2.832,2.583,4.79,6.5,4.79a12.968,12.968,0,0,0,6.456-1.666l.125,4.915a16.981,16.981,0,0,1-7.331,1.458C211.779,348.366,206.864,344.2,206.864,336.994Zm15.371-2.208c0-3.207-1.625-4.624-4.207-4.624-2.375,0-4.374,1.583-4.707,4.624Z"/><path d="M251.728,318.749h8l11.414,29.076h-7.415l-2.374-6.457h-11.5l-2.417,6.457h-6.956Zm7.957,17.7-1.833-5.374c-.667-2-1.75-5.749-2.125-7.248h-.083c-.417,1.541-1.583,5.29-2.291,7.248l-1.875,5.374Z"/><path d="M284.429,325.872a23.231,23.231,0,0,1,3.165.208v5.166c-.458-.042-1.124-.084-1.874-.084-4,0-5.124,1.208-5.124,5.457v11.206h-6.582V336.119C274.014,328.746,277.389,325.872,284.429,325.872Z"/><path d="M290.885,340.243V321.581h6.5v4.707h5.165v4.666h-5.165v8.456c0,2.25.416,4,3.207,4a7.2,7.2,0,0,0,2.083-.291l.167,4.623a15.682,15.682,0,0,1-4.083.459C293.343,348.2,290.885,345.784,290.885,340.243Z"/><path d="M315.837,337.119c0-7,4.708-11.372,12.039-11.372,7.04,0,11.789,4.457,11.789,11.372,0,6.79-4.79,11.247-11.914,11.247S315.837,343.867,315.837,337.119Zm11.914,6.54c3.083,0,5.124-2.583,5.124-6.623,0-4.124-2-6.665-5.124-6.665-3.041,0-5.082,2.624-5.082,6.665C322.669,341.035,324.71,343.659,327.751,343.659Z"/><path d="M352.246,316.166a15.2,15.2,0,0,1,3.624.417l-.458,4.707a5.245,5.245,0,0,0-2.041-.375c-2.041,0-2.874,1.249-2.874,4v1.374h5.123v4.666H350.5v16.871h-6.582V324.747C343.915,318.957,346.456,316.166,352.246,316.166Z"/><path d="M157.667,364.749h11l3.624,11.5c.917,2.957,1.917,6.623,2.75,9.831h.083c.875-3.208,1.916-6.874,2.874-9.831l3.749-11.5h10.581v29.076h-6.582V382.161c0-3.582.042-8.665.125-12.58h-.083c-.916,3.249-2.416,8.331-3.291,10.789l-4.707,13.455h-6.082l-4.582-13.414c-.458-1.333-2.583-8.206-3.333-10.83h-.083c.083,3.915.167,9,.167,12.58v11.664h-6.207Z"/><path d="M196.7,387.493c0-4.707,4.082-7.123,11.247-7.123.875,0,2.041.041,3.083.125,0-3-1.667-4.249-4.832-4.249a14.939,14.939,0,0,0-6.832,1.833l-.208-4.749a20.265,20.265,0,0,1,8.081-1.583c6.957,0,9.914,3.291,9.914,8.956,0,1.375-.083,3.666-.083,5.415a71.8,71.8,0,0,0,.291,7.707h-5.707a9.286,9.286,0,0,1-.124-1.708c0-.458.041-1.125.083-1.875h-.083a8.087,8.087,0,0,1-7.374,4C199.866,394.241,196.7,391.617,196.7,387.493Zm9.5,2.374c2.832,0,4.915-1.916,4.915-5.831-.5-.042-1.083-.084-1.708-.084-4.124,0-6.415.917-6.415,3.208C202.99,388.993,204.24,389.867,206.2,389.867Z"/><path d="M222.069,372.288h6.165c.083.917.167,2.541.167,3.666h.083a8.789,8.789,0,0,1,7.373-4.207c5.5,0,8.04,3.5,8.04,9.331v12.747h-6.5V383.536c0-4.083-.5-6.54-3.665-6.54a4.439,4.439,0,0,0-4.083,2.5,11.141,11.141,0,0,0-.875,4.832v9.5h-6.5V379.12C222.277,377.162,222.235,374.871,222.069,372.288Z"/><path d="M249.062,386.118v-13.83h6.5v11.5c0,3.29.917,5.207,3.708,5.207,2.874,0,4.749-2.666,4.749-6.207v-10.5H270.6v15.163a60.41,60.41,0,0,0,.209,6.374h-6.082c-.084-.875-.167-2.25-.167-3.666h-.083a8.652,8.652,0,0,1-7.748,4.207C252.1,394.366,249.062,391.075,249.062,386.118Z"/><path d="M284.513,362.166a15.216,15.216,0,0,1,3.624.417l-.458,4.707a5.245,5.245,0,0,0-2.041-.375c-2.042,0-2.875,1.249-2.875,4v1.374h5.124v4.666h-5.124v16.871h-6.581V370.747C276.182,364.957,278.723,362.166,284.513,362.166Z"/><path d="M289.97,387.493c0-4.707,4.083-7.123,11.248-7.123.874,0,2.041.041,3.082.125,0-3-1.666-4.249-4.832-4.249a14.942,14.942,0,0,0-6.832,1.833l-.208-4.749a20.272,20.272,0,0,1,8.081-1.583c6.957,0,9.915,3.291,9.915,8.956,0,1.375-.084,3.666-.084,5.415a71.434,71.434,0,0,0,.292,7.707h-5.707a9.275,9.275,0,0,1-.125-1.708c0-.458.042-1.125.083-1.875H304.8a8.085,8.085,0,0,1-7.373,4C293.136,394.241,289.97,391.617,289.97,387.493Zm9.5,2.374c2.833,0,4.915-1.916,4.915-5.831-.5-.042-1.083-.084-1.707-.084-4.124,0-6.415.917-6.415,3.208C296.261,388.993,297.51,389.867,299.468,389.867Z"/><path d="M314.173,383.036c0-6.79,5.082-11.039,11.7-11.039a15.657,15.657,0,0,1,5.082.666l-.458,4.832a9.742,9.742,0,0,0-3.666-.708c-3.707,0-5.915,2.5-5.915,6.249,0,3.79,2.083,6.165,6.04,6.165a8.925,8.925,0,0,0,3.791-.75l.25,4.957a15.044,15.044,0,0,1-4.957.75C318.838,394.158,314.173,389.909,314.173,383.036Z"/><path d="M335.084,386.243V367.581h6.5v4.707h5.166v4.666h-5.166v8.456c0,2.25.417,4,3.208,4a7.2,7.2,0,0,0,2.083-.291l.166,4.623a15.674,15.674,0,0,1-4.082.459C337.542,394.2,335.084,391.784,335.084,386.243Z"/><path d="M350.5,386.118v-13.83H357v11.5c0,3.29.917,5.207,3.708,5.207,2.874,0,4.749-2.666,4.749-6.207v-10.5h6.581v15.163a60.7,60.7,0,0,0,.208,6.374h-6.081c-.084-.875-.167-2.25-.167-3.666h-.083a8.652,8.652,0,0,1-7.748,4.207C353.539,394.366,350.5,391.075,350.5,386.118Z"/><path d="M387.864,371.872a23.258,23.258,0,0,1,3.166.208v5.166c-.458-.042-1.125-.084-1.875-.084-4,0-5.123,1.208-5.123,5.457v11.206H377.45V382.119C377.45,374.746,380.824,371.872,387.864,371.872Z"/><path d="M394.571,363.207h6.582v5.457h-6.582Zm0,9.081h6.582v21.537h-6.582Z"/><path d="M406.526,372.288h6.165c.084.917.167,2.541.167,3.666h.083a8.791,8.791,0,0,1,7.373-4.207c5.5,0,8.04,3.5,8.04,9.331v12.747h-6.5V383.536c0-4.083-.5-6.54-3.666-6.54a4.438,4.438,0,0,0-4.082,2.5,11.141,11.141,0,0,0-.875,4.832v9.5h-6.5V379.12C406.735,377.162,406.693,374.871,406.526,372.288Z"/><path d="M434.395,401.656l.459-5.332a16.689,16.689,0,0,0,7.664,2c3.75,0,6.416-1.667,6.416-6.332a19.314,19.314,0,0,1,.083-2.083h-.083a7.937,7.937,0,0,1-7.04,3.874c-5.707,0-9.457-4.332-9.457-10.831,0-6.623,3.958-11.2,9.707-11.2a7.527,7.527,0,0,1,7.039,3.874h.084c-.084-1.333-.084-2.249-.084-3.333h6.082v19.621c0,7.248-4.332,11.163-12.163,11.163A25.945,25.945,0,0,1,434.395,401.656Zm9.456-12.872c2.875,0,4.958-2.582,4.958-6,0-3.5-2.042-6.082-5.041-6.082-2.749,0-4.665,2.583-4.665,6.082C439.1,386.243,441.019,388.784,443.851,388.784Z"/></g><path d="M3.917-11.095l.092,1.241A3.9,3.9,0,0,1,7.2-11.3a2.959,2.959,0,0,1,2.943,1.692A3.809,3.809,0,0,1,13.474-11.3a3.309,3.309,0,0,1,2.687,1.051,4.831,4.831,0,0,1,.882,3.163V0H14.068V-7.075A2.113,2.113,0,0,0,13.7-8.454a1.636,1.636,0,0,0-1.3-.436,1.85,1.85,0,0,0-1.846,1.271L10.562,0H7.6V-7.065a2.087,2.087,0,0,0-.379-1.395A1.652,1.652,0,0,0,5.927-8.89,1.92,1.92,0,0,0,4.1-7.844V0H1.138V-11.095ZM18.857-5.65a6.58,6.58,0,0,1,.636-2.943,4.654,4.654,0,0,1,1.83-2A5.34,5.34,0,0,1,24.1-11.3a5.052,5.052,0,0,1,3.666,1.374,5.514,5.514,0,0,1,1.584,3.732l.021.759a5.8,5.8,0,0,1-1.425,4.1A4.954,4.954,0,0,1,24.117.205a4.979,4.979,0,0,1-3.83-1.538,5.9,5.9,0,0,1-1.43-4.184Zm2.963.215a4.136,4.136,0,0,0,.595,2.415,1.963,1.963,0,0,0,1.7.836A1.967,1.967,0,0,0,25.8-3.01a4.526,4.526,0,0,0,.6-2.64,4.1,4.1,0,0,0-.6-2.4A1.968,1.968,0,0,0,24.1-8.9a1.935,1.935,0,0,0-1.682.846A4.6,4.6,0,0,0,21.82-5.435Zm12.1-5.66.092,1.282A3.874,3.874,0,0,1,37.2-11.3a3.219,3.219,0,0,1,2.625,1.036,4.832,4.832,0,0,1,.882,3.1V0H37.745V-7.1a1.923,1.923,0,0,0-.41-1.369,1.836,1.836,0,0,0-1.364-.426,2.039,2.039,0,0,0-1.876,1.066V0H31.131V-11.095ZM42.492-5.65a6.58,6.58,0,0,1,.636-2.943,4.654,4.654,0,0,1,1.83-2,5.34,5.34,0,0,1,2.774-.708A5.052,5.052,0,0,1,51.4-9.926a5.514,5.514,0,0,1,1.584,3.732L53-5.435a5.8,5.8,0,0,1-1.425,4.1A4.954,4.954,0,0,1,47.752.205a4.979,4.979,0,0,1-3.83-1.538,5.9,5.9,0,0,1-1.43-4.184Zm2.963.215A4.136,4.136,0,0,0,46.05-3.02a1.963,1.963,0,0,0,1.7.836,1.967,1.967,0,0,0,1.682-.825,4.526,4.526,0,0,0,.6-2.64,4.1,4.1,0,0,0-.6-2.4,1.968,1.968,0,0,0-1.7-.851,1.935,1.935,0,0,0-1.682.846A4.6,4.6,0,0,0,45.456-5.435ZM58.068-2.389h5.424V0H54.284V-1.8L59.5-8.7H54.438v-2.4h8.89v1.753ZM71.993-1.128A3.716,3.716,0,0,1,68.958.205,3.5,3.5,0,0,1,66.235-.82a4.377,4.377,0,0,1-.959-3v-7.27H68.24v7.167q0,1.733,1.579,1.733A2.14,2.14,0,0,0,71.89-3.24v-7.854h2.974V0H72.075ZM81.129-4.45,80.063-3.384V0H77.1V-15.75h2.963v8.726l.574-.738,2.84-3.333h3.558L83.026-6.47,87.384,0h-3.4ZM94.961-1.128A3.716,3.716,0,0,1,91.926.205,3.5,3.5,0,0,1,89.2-.82a4.377,4.377,0,0,1-.959-3v-7.27h2.963v7.167q0,1.733,1.579,1.733A2.14,2.14,0,0,0,94.859-3.24v-7.854h2.974V0H95.043ZM106.3-8.316a8.051,8.051,0,0,0-1.066-.082,2.171,2.171,0,0,0-2.2,1.138V0h-2.963V-11.095h2.8l.082,1.323A2.746,2.746,0,0,1,105.42-11.3a3.105,3.105,0,0,1,.923.133ZM110.855,0h-2.974V-11.095h2.974Zm-3.148-13.966a1.459,1.459,0,0,1,.446-1.1,1.676,1.676,0,0,1,1.215-.431,1.679,1.679,0,0,1,1.21.431,1.451,1.451,0,0,1,.451,1.1,1.455,1.455,0,0,1-.456,1.107,1.684,1.684,0,0,1-1.2.431,1.684,1.684,0,0,1-1.2-.431A1.455,1.455,0,0,1,107.707-13.966Z" transform="translate(51 5961)"/></g></svg>