<svg xmlns="http://www.w3.org/2000/svg" width="315" height="35" viewBox="0 0 315 35"><g transform="translate(9562 21808)"><rect width="315" height="35" transform="translate(-9562 -21808)" fill="none"/><path d="M17.684-10.459H7.559V0H2.285V-25.594H18.949v4.271H7.559v6.609H17.684ZM32.1,0a5.641,5.641,0,0,1-.51-1.705,6.147,6.147,0,0,1-4.8,2.057,6.753,6.753,0,0,1-4.632-1.617A5.2,5.2,0,0,1,20.32-5.344a5.375,5.375,0,0,1,2.241-4.641,11.059,11.059,0,0,1,6.478-1.635h2.338v-1.09a3.134,3.134,0,0,0-.677-2.109,2.662,2.662,0,0,0-2.136-.791,3.027,3.027,0,0,0-2.013.615,2.09,2.09,0,0,0-.729,1.688h-5.08a5.1,5.1,0,0,1,1.02-3.059,6.739,6.739,0,0,1,2.883-2.206,10.506,10.506,0,0,1,4.184-.8A8.3,8.3,0,0,1,34.409-17.6a6.18,6.18,0,0,1,2.065,4.966v8.244A9.093,9.093,0,0,0,37.23-.3V0ZM27.9-3.533a4.375,4.375,0,0,0,2.074-.5,3.29,3.29,0,0,0,1.406-1.345v-3.27h-1.9q-3.814,0-4.061,2.637l-.018.3a2.034,2.034,0,0,0,.668,1.564A2.6,2.6,0,0,0,27.9-3.533Zm20.391-.211a3.332,3.332,0,0,0,2.285-.773,2.71,2.71,0,0,0,.914-2.057H56.25A6.516,6.516,0,0,1,55.2-3.032a6.959,6.959,0,0,1-2.839,2.5,8.885,8.885,0,0,1-3.981.888,8.257,8.257,0,0,1-6.434-2.593A10.26,10.26,0,0,1,39.586-9.4v-.334a10.143,10.143,0,0,1,2.338-7.014,8.161,8.161,0,0,1,6.416-2.619,8,8,0,0,1,5.722,2.03,7.189,7.189,0,0,1,2.188,5.405H51.486a3.462,3.462,0,0,0-.914-2.4,3.056,3.056,0,0,0-2.32-.923,3.061,3.061,0,0,0-2.681,1.292,7.479,7.479,0,0,0-.905,4.192v.527a7.573,7.573,0,0,0,.9,4.219A3.1,3.1,0,0,0,48.287-3.744ZM65.232-23.7v4.676h3.252v3.727H65.232V-5.8a2.267,2.267,0,0,0,.4,1.512,2.031,2.031,0,0,0,1.547.457,8.1,8.1,0,0,0,1.494-.123v3.85A10.458,10.458,0,0,1,65.6.352q-5.344,0-5.449-5.4V-15.293H57.375V-19.02h2.777V-23.7ZM70-9.686a11.28,11.28,0,0,1,1.09-5.045,7.978,7.978,0,0,1,3.138-3.428,9.154,9.154,0,0,1,4.755-1.213,8.661,8.661,0,0,1,6.284,2.355,9.453,9.453,0,0,1,2.716,6.4l.035,1.3A9.941,9.941,0,0,1,85.57-2.294,8.493,8.493,0,0,1,79.014.352a8.535,8.535,0,0,1-6.565-2.637A10.116,10.116,0,0,1,70-9.457Zm5.08.369a7.09,7.09,0,0,0,1.02,4.14,3.365,3.365,0,0,0,2.918,1.433A3.373,3.373,0,0,0,81.9-5.159a7.758,7.758,0,0,0,1.037-4.526A7.019,7.019,0,0,0,81.9-13.8a3.373,3.373,0,0,0-2.918-1.459,3.318,3.318,0,0,0-2.883,1.45A7.889,7.889,0,0,0,75.076-9.316Zm26.754-4.939A13.8,13.8,0,0,0,100-14.4q-2.883,0-3.779,1.951V0h-5.08V-19.02h4.8l.141,2.268a4.707,4.707,0,0,1,4.236-2.619,5.323,5.323,0,0,1,1.582.229Zm9.861,7.066,3.516-11.83h5.449L113.01,2.953l-.422,1a5.8,5.8,0,0,1-5.625,3.727,7.993,7.993,0,0,1-2.25-.334V3.5l.773.018a4.179,4.179,0,0,0,2.153-.439,2.887,2.887,0,0,0,1.116-1.459l.6-1.564L102.691-19.02h5.467Zm34.717,1.916h-9.246L135.4,0H129.8l9.527-25.594h4.887L153.791,0h-5.607Zm-7.822-4.271h6.4l-3.217-9.58Zm28.459,7.611a6.371,6.371,0,0,1-5.2,2.285,6.008,6.008,0,0,1-4.667-1.758,7.5,7.5,0,0,1-1.644-5.15V-19.02h5.08V-6.732q0,2.971,2.707,2.971a3.669,3.669,0,0,0,3.551-1.793V-19.02h5.1V0h-4.781ZM181.881-23.7v4.676h3.252v3.727h-3.252V-5.8a2.267,2.267,0,0,0,.4,1.512,2.031,2.031,0,0,0,1.547.457,8.1,8.1,0,0,0,1.494-.123v3.85a10.458,10.458,0,0,1-3.076.457q-5.344,0-5.449-5.4V-15.293h-2.777V-19.02H176.8V-23.7Zm4.764,14.01a11.28,11.28,0,0,1,1.09-5.045,7.978,7.978,0,0,1,3.138-3.428,9.154,9.154,0,0,1,4.755-1.213,8.661,8.661,0,0,1,6.284,2.355,9.453,9.453,0,0,1,2.716,6.4l.035,1.3a9.941,9.941,0,0,1-2.443,7.022A8.493,8.493,0,0,1,195.662.352,8.535,8.535,0,0,1,189.1-2.285a10.116,10.116,0,0,1-2.452-7.172Zm5.08.369a7.09,7.09,0,0,0,1.02,4.14,3.365,3.365,0,0,0,2.918,1.433,3.373,3.373,0,0,0,2.883-1.415,7.758,7.758,0,0,0,1.037-4.526,7.019,7.019,0,0,0-1.037-4.113,3.373,3.373,0,0,0-2.918-1.459,3.318,3.318,0,0,0-2.883,1.45A7.889,7.889,0,0,0,191.725-9.316Zm20.83-9.7.158,2.127a6.684,6.684,0,0,1,5.467-2.479q3.674,0,5.045,2.9a6.53,6.53,0,0,1,5.713-2.9,5.673,5.673,0,0,1,4.605,1.8,8.282,8.282,0,0,1,1.512,5.423V0h-5.1V-12.129a3.621,3.621,0,0,0-.633-2.364,2.8,2.8,0,0,0-2.232-.747,3.171,3.171,0,0,0-3.164,2.18L223.945,0h-5.08V-12.111a3.578,3.578,0,0,0-.65-2.391A2.832,2.832,0,0,0,216-15.24a3.292,3.292,0,0,0-3.129,1.793V0h-5.08V-19.02ZM249.979,0a5.641,5.641,0,0,1-.51-1.705,6.147,6.147,0,0,1-4.8,2.057,6.753,6.753,0,0,1-4.632-1.617A5.2,5.2,0,0,1,238.2-5.344a5.375,5.375,0,0,1,2.241-4.641,11.059,11.059,0,0,1,6.478-1.635h2.338v-1.09a3.134,3.134,0,0,0-.677-2.109,2.662,2.662,0,0,0-2.136-.791,3.027,3.027,0,0,0-2.013.615,2.09,2.09,0,0,0-.729,1.688h-5.08a5.1,5.1,0,0,1,1.02-3.059,6.739,6.739,0,0,1,2.883-2.206,10.506,10.506,0,0,1,4.184-.8A8.3,8.3,0,0,1,252.29-17.6a6.18,6.18,0,0,1,2.065,4.966v8.244a9.093,9.093,0,0,0,.756,4.1V0Zm-4.2-3.533a4.375,4.375,0,0,0,2.074-.5,3.29,3.29,0,0,0,1.406-1.345v-3.27h-1.9q-3.814,0-4.061,2.637l-.018.3a2.034,2.034,0,0,0,.668,1.564A2.6,2.6,0,0,0,245.777-3.533ZM264.34-23.7v4.676h3.252v3.727H264.34V-5.8a2.267,2.267,0,0,0,.4,1.512,2.031,2.031,0,0,0,1.547.457,8.1,8.1,0,0,0,1.494-.123v3.85a10.458,10.458,0,0,1-3.076.457q-5.344,0-5.449-5.4V-15.293h-2.777V-19.02h2.777V-23.7ZM275.783,0h-5.1V-19.02h5.1Zm-5.4-23.941a2.5,2.5,0,0,1,.765-1.881,2.873,2.873,0,0,1,2.083-.738,2.879,2.879,0,0,1,2.074.738,2.487,2.487,0,0,1,.773,1.881,2.494,2.494,0,0,1-.782,1.9,2.886,2.886,0,0,1-2.065.738,2.886,2.886,0,0,1-2.065-.738A2.494,2.494,0,0,1,270.387-23.941Zm8.789,14.256a11.28,11.28,0,0,1,1.09-5.045,7.978,7.978,0,0,1,3.138-3.428,9.154,9.154,0,0,1,4.755-1.213,8.661,8.661,0,0,1,6.284,2.355,9.453,9.453,0,0,1,2.716,6.4l.035,1.3a9.941,9.941,0,0,1-2.443,7.022A8.493,8.493,0,0,1,288.193.352a8.535,8.535,0,0,1-6.565-2.637,10.116,10.116,0,0,1-2.452-7.172Zm5.08.369a7.09,7.09,0,0,0,1.02,4.14,3.365,3.365,0,0,0,2.918,1.433,3.373,3.373,0,0,0,2.883-1.415,7.758,7.758,0,0,0,1.037-4.526,7.019,7.019,0,0,0-1.037-4.113,3.373,3.373,0,0,0-2.918-1.459,3.318,3.318,0,0,0-2.883,1.45A7.889,7.889,0,0,0,284.256-9.316ZM305-19.02l.158,2.2a6.64,6.64,0,0,1,5.467-2.549,5.519,5.519,0,0,1,4.5,1.775,8.283,8.283,0,0,1,1.512,5.309V0h-5.08V-12.164a3.3,3.3,0,0,0-.7-2.347,3.148,3.148,0,0,0-2.338-.729,3.5,3.5,0,0,0-3.217,1.828V0h-5.08V-19.02Z" transform="translate(-9564.285 -21781.439)" fill="#fff"/></g></svg>