<svg xmlns="http://www.w3.org/2000/svg" width="386" height="243" viewBox="0 0 386 243"><g transform="translate(-1011 -3403)" opacity="0.95"><rect width="386" height="243" transform="translate(1011 3403)" fill="none"/><path d="M308.8,110.284v16.443a16.642,16.642,0,0,1-16.641,16.643H220.57v99.256H370.639A15.361,15.361,0,0,0,386,227.265V110.284Z" transform="translate(1011 3403)" fill="red"/><path d="M16.642,0A16.642,16.642,0,0,0,0,16.642V143.37H220.57V125.645a15.361,15.361,0,0,1,15.361-15.36H308.8V0Z" transform="translate(1011 3403)" fill="#666"/><path d="M308.8,126.728V110.285H235.932a15.361,15.361,0,0,0-15.362,15.36V143.37h71.588A16.641,16.641,0,0,0,308.8,126.728" transform="translate(1011 3403)" fill="#710009"/></g></svg>