<svg xmlns="http://www.w3.org/2000/svg" xmlns:xlink="http://www.w3.org/1999/xlink" width="528" height="453" viewBox="0 0 528 453"><defs><clipPath id="a"><rect width="528" height="453" fill="none"/></clipPath><clipPath id="b"><rect width="181.026" height="150.857" fill="none"/></clipPath><clipPath id="c"><rect width="226.286" height="181.027" fill="none"/></clipPath><clipPath id="d"><rect width="422.4" height="196.112" fill="none"/></clipPath><clipPath id="e"><rect width="105.6" height="30.172" fill="none"/></clipPath><clipPath id="f"><rect width="120.686" height="45.256" fill="none"/></clipPath></defs><g opacity="0.85"><g clip-path="url(#a)"><path d="M342.287,150.857H400.2a17.51,17.51,0,0,0,17.51-17.51V0H254.2a17.51,17.51,0,0,0-17.51,17.51V120.685h105.6Z" transform="translate(80.112)" fill="#fff"/><path d="M346.1,202.873v22.493a22.764,22.764,0,0,1-22.765,22.763H225.416V383.9H430.691A21.011,21.011,0,0,0,451.7,362.889V202.873Z" transform="translate(76.298 68.667)" fill="#fff"/><path d="M322.725,241.021H422.4V120.337H316.8V90.166H22.765A22.765,22.765,0,0,0,0,112.931V286.278H301.714V262.033a21.011,21.011,0,0,1,21.011-21.011" transform="translate(0 30.519)" fill="#fff"/><rect width="105.6" height="30.172" transform="translate(316.799 120.685)" fill="#fff"/><path d="M346.1,225.366V202.873H246.427a21.012,21.012,0,0,0-21.011,21.013v24.245h97.921A22.765,22.765,0,0,0,346.1,225.366" transform="translate(76.298 68.667)" fill="#fff"/></g></g><g transform="translate(316.8)" style="mix-blend-mode:multiply;isolation:isolate"><g clip-path="url(#b)"><path d="M342.287,150.857H400.2a17.51,17.51,0,0,0,17.51-17.51V0H254.2a17.51,17.51,0,0,0-17.51,17.51V120.685h105.6Z" transform="translate(-236.687)" fill="#d9d9d9"/></g></g><g transform="translate(301.714 271.541)" style="mix-blend-mode:multiply;isolation:isolate"><g clip-path="url(#c)"><path d="M346.1,202.873v22.493a22.764,22.764,0,0,1-22.765,22.763H225.416V383.9H430.691A21.011,21.011,0,0,0,451.7,362.889V202.873Z" transform="translate(-225.416 -202.873)" fill="#666"/></g></g><g transform="translate(0 120.686)" style="mix-blend-mode:multiply;isolation:isolate"><g clip-path="url(#d)"><path d="M322.725,241.021H422.4V120.337H316.8V90.166H22.765A22.765,22.765,0,0,0,0,112.931V286.278H301.714V262.033a21.011,21.011,0,0,1,21.011-21.011" transform="translate(0 -90.166)" fill="red"/></g></g><g transform="translate(316.8 120.686)" style="mix-blend-mode:multiply;isolation:isolate"><g clip-path="url(#e)"><rect width="105.6" height="30.172" transform="translate(0)" fill="#cf0010"/></g></g><g transform="translate(301.714 271.541)" style="mix-blend-mode:multiply;isolation:isolate"><g clip-path="url(#f)"><path d="M346.1,225.366V202.873H246.427a21.012,21.012,0,0,0-21.011,21.013v24.245h97.921A22.765,22.765,0,0,0,346.1,225.366" transform="translate(-225.416 -202.873)" fill="#710009"/></g></g><path d="M165.047,162.525h-2.06c-13.084,0-13.359,5.022-13.359,9.25v15.692h7.153v-12.3c0-4.45-.086-6.619,5.892-6.619h2.374Z" transform="translate(50.646 55.01)" fill="#fff"/><path d="M49.457,169.921a9.44,9.44,0,0,1,8-4.706c6.213,0,9.178,3.953,9.178,10.589v14.354H59.293V178.532c0-4.564-.66-7.388-4.236-7.388-4.235,0-5.505,3.765-5.505,8.284v10.729H42.209V154.579H49.5v9.741c0,1.695-.047,3.859-.141,5.6Z" transform="translate(14.287 52.32)" fill="#fff"/><path d="M70.7,177.35c.187,3.2,2.917,5.411,7.342,5.411a14.658,14.658,0,0,0,7.293-1.882l.142,5.553a19.2,19.2,0,0,1-8.282,1.646c-8.284,0-13.836-4.706-13.836-12.847,0-7.483,5.129-12.707,12.8-12.707,7.2,0,11.247,4.235,11.247,13.084,0,.376-.047,1.412-.1,1.741Zm10.024-4.612c0-3.623-1.835-5.224-4.754-5.224-2.682,0-4.94,1.788-5.316,5.224Z" transform="translate(21.446 55.01)" fill="#fff"/><path d="M116.262,168.619c-.331-1.553-.894-4.612-1.131-6.541h-.094c-.234,1.929-.707,4.988-1.033,6.541l-4.236,20.848H99.791l-8.379-32.849h8.142l3.955,18.213c.234,1.13,1.223,6.212,1.506,8.613h.094c.329-2.4,1.223-7.483,1.458-8.613l3.578-18.213H120.4l3.906,18.213c.236,1.13,1.175,6.307,1.507,8.613h.094c.281-2.259,1.223-7.343,1.506-8.613l3.857-18.213H138.9l-8.141,32.849h-9.931Z" transform="translate(30.94 53.012)" fill="#fff"/><path d="M153.779,175.372c0,7.672-5.413,12.707-13.46,12.707S126.86,183,126.86,175.372c0-7.906,5.318-12.847,13.6-12.847,7.953,0,13.319,5.035,13.319,12.847m-19.2-.094c0,4.517,2.306,7.483,5.742,7.483,3.481,0,5.788-2.918,5.788-7.483,0-4.659-2.258-7.53-5.788-7.53-3.436,0-5.742,2.966-5.742,7.53" transform="translate(42.938 55.01)" fill="#fff"/><rect width="7.437" height="35.578" transform="translate(219.38 206.9)" fill="#fff"/><path d="M191.233,185.874A8.631,8.631,0,0,1,183,190.722c-6.541,0-10.731-5.035-10.731-12.848,0-7.483,4.377-12.659,10.777-12.659a8.2,8.2,0,0,1,7.624,4.282h.1c-.1-2.071-.142-4.706-.142-7.059v-7.86h7.388v28.331c0,2.542.047,5.224.236,7.248h-6.824c-.048-1.083-.1-2.635-.1-4.283Zm-11.389-7.953c0,4.235,2.117,7.248,5.413,7.248,3.341,0,5.6-3.013,5.6-7.154,0-4.282-2.259-7.2-5.742-7.2-3.2,0-5.271,2.918-5.271,7.106" transform="translate(58.308 52.32)" fill="#fff"/><path d="M41.959,183.219a8.888,8.888,0,0,1-2.306.281c-3.012,0-3.53-1.976-3.53-4.517v-9.507h5.836v-5.224H36.123v-5.023H29.158l-.236,20.7c0,6.259,2.635,8.989,8.66,8.989a20.119,20.119,0,0,0,4.377-.482Z" transform="translate(9.789 53.895)" fill="#fff"/><path d="M64.094,152.325H55.022l-2.906-7.9H38.049l-2.957,7.9H26.581l13.762-35.578h9.786ZM47.836,131.834c-.815-2.447-2.142-7.034-2.6-8.869h-.1c-.509,1.886-1.935,6.473-2.8,8.869l-2.293,6.575h10.04Z" transform="translate(8.997 39.516)" fill="#fff"/><path d="M73.667,145.339a9.771,9.771,0,0,1-8.754,4.753c-5.223,0-8.659-3.717-8.659-9.317V125.149H63.6v12.989c0,3.718,1.035,5.884,4.188,5.884,3.247,0,5.365-3.013,5.365-7.012v-11.86h7.437V142.28a68.4,68.4,0,0,0,.236,7.2H73.95c-.094-.988-.187-2.54-.187-4.141Z" transform="translate(19.041 42.359)" fill="#fff"/><path d="M117,137.539c0,7.672-5.413,12.707-13.46,12.707s-13.46-5.082-13.46-12.707c0-7.906,5.318-12.847,13.6-12.847,7.953,0,13.319,5.035,13.319,12.847m-19.2-.094c0,4.517,2.306,7.483,5.742,7.483,3.481,0,5.788-2.918,5.788-7.483,0-4.659-2.258-7.53-5.788-7.53-3.436,0-5.742,2.966-5.742,7.53" transform="translate(30.488 42.205)" fill="#fff"/><path d="M129.285,149.634V137.727c0-4.188-.659-7.106-3.718-7.106-3.388,0-4.94,3.483-4.94,7.671v11.342h-7.388V133.021c0-2.164-.048-4.8-.236-7.718h6.824c.1.988.142,2.918.142,4.188h.094a9.228,9.228,0,0,1,8.142-4.8c3.67,0,6.352,1.695,7.529,4.942a9.706,9.706,0,0,1,8.612-4.942c5.836,0,8.379,4.188,8.379,10.542v14.4h-7.39V137.116c0-4.377-1.13-6.494-3.718-6.494-3.576,0-4.94,3.576-4.94,7.766v11.247Z" transform="translate(38.248 42.205)" fill="#fff"/><path d="M187.646,123.649h-7.437v-6.165h7.437Zm0,28.425h-7.437V127.743h7.437Z" transform="translate(60.996 39.766)" fill="#fff"/><path d="M197,129.445a9.93,9.93,0,0,1,8.331-4.753c6.212,0,9.083,3.953,9.083,10.542v14.4h-7.342V138.01c0-4.612-.565-7.388-4.141-7.388a5.016,5.016,0,0,0-4.612,2.823,12.579,12.579,0,0,0-.989,5.46v10.731h-7.34V133.021c0-2.211-.048-4.8-.237-7.718h6.965c.094,1.035.189,2.871.189,4.141Z" transform="translate(64.226 42.205)" fill="#fff"/><path d="M91.533,145.387a8.889,8.889,0,0,1-2.306.281c-3.012,0-3.53-1.977-3.53-4.517v-9.509h5.836v-5.224H85.7V121.4H78.732L78.5,142.09c0,6.26,2.635,8.991,8.66,8.991a20.12,20.12,0,0,0,4.377-.482Z" transform="translate(26.568 41.09)" fill="#fff"/><path d="M179.648,145.387a8.889,8.889,0,0,1-2.306.281c-3.012,0-3.53-1.977-3.53-4.517v-9.509h5.836v-5.224h-5.836V121.4h-6.965l-.236,20.694c0,6.26,2.635,8.991,8.66,8.991a20.121,20.121,0,0,0,4.377-.482Z" transform="translate(56.394 41.09)" fill="#fff"/><path d="M230.151,125.3c0,1.225,0,2.259.094,3.765h-.094a8.505,8.505,0,0,0-7.953-4.377c-6.5,0-10.966,5.177-10.966,12.659,0,7.343,4.235,12.236,10.684,12.236a8.964,8.964,0,0,0,7.952-4.377h.1a21.525,21.525,0,0,0-.1,2.353c0,5.271-3.012,7.154-7.246,7.154a18.87,18.87,0,0,1-8.66-2.259v6.194a29.63,29.63,0,0,0,9.318,1.429c8.847,0,13.742-4.424,13.742-12.612V125.3Zm-6.025,18.637c-3.2,0-5.365-2.871-5.365-6.777,0-3.954,2.164-6.872,5.271-6.872,3.388,0,5.694,2.918,5.694,6.872,0,3.859-2.353,6.777-5.6,6.777" transform="translate(71.496 42.205)" fill="#fff"/><path d="M168.53,140.928c0-1.976.094-4.564.094-6.117,0-6.4-3.341-10.119-11.2-10.119a23.251,23.251,0,0,0-8.894,1.688v5.465a16.879,16.879,0,0,1,7.718-2.071c3.578,0,5.46,1.412,5.46,4.8-1.177-.1-2.495-.142-3.483-.142-8.1,0-12.707,2.73-12.707,8.048,0,4.659,3.578,7.624,8.426,7.624a9.133,9.133,0,0,0,8.329-4.519h.094c-.047.847-.094,1.6-.094,2.119a10.478,10.478,0,0,0,.141,1.929h6.447a81.09,81.09,0,0,1-.329-8.707m-12.283,4.236c-2.211,0-3.623-.988-3.623-3.06,0-2.587,2.589-3.623,7.248-3.623.705,0,1.364.047,1.929.094,0,4.425-2.353,6.589-5.553,6.589" transform="translate(49.254 42.205)" fill="#fff"/><rect width="528" height="453" fill="none"/></svg>
