<?xml version="1.0" encoding="utf-8"?>
<!-- Generator: Adobe Illustrator 22.1.0, SVG Export Plug-In . SVG Version: 6.00 Build 0)  -->
<svg version="1.1" xmlns="http://www.w3.org/2000/svg" xmlns:xlink="http://www.w3.org/1999/xlink" x="0px" y="0px" width="74px"
	 height="48px" viewBox="0 0 74 48" style="enable-background:new 0 0 74 48;" xml:space="preserve">
<style type="text/css">
	.st0{fill:#FFFFFF;}
	.st1{fill:#3F3D3E;}
	.st2{fill:#535151;}
	.st3{fill:#676866;}
	.st4{fill:#545452;}
	.st5{fill:#60605E;}
	.st6{fill:#484747;}
	.st7{fill:#323132;}
	.st8{fill:#595757;}
	.st9{fill:#232122;}
	.st10{fill:url(#SVGID_1_);}
	.st11{fill:#3C3736;}
	.st12{fill:#888888;stroke:#717071;stroke-width:0.1515;}
	.st13{fill:#656464;}
	.st14{fill:none;stroke:#595757;stroke-width:0.1515;}
	.st15{fill:#F29600;}
	.st16{fill:#824E00;}
	.st17{fill:#3E3A39;}
	.st18{fill:#BFBFBF;stroke:#9E9E9F;stroke-width:0.1567;}
	.st19{fill:#171717;stroke:#808080;stroke-width:0.2365;}
	.st20{fill:url(#SVGID_2_);stroke:#9E9E9F;stroke-width:0.1718;}
	.st21{fill:url(#SVGID_3_);stroke:#9E9E9F;stroke-width:0.1718;}
	.st22{fill:url(#SVGID_4_);stroke:#9E9E9F;stroke-width:0.1718;}
	.st23{fill:url(#SVGID_5_);stroke:#9E9E9F;stroke-width:0.1718;}
	.st24{fill:none;stroke:#231815;stroke-width:0.2272;}
	.st25{fill:#4C4B4B;}
	.st26{fill:#A0393A;}
	.st27{fill:#231815;}
	.st28{fill:#AB6A00;}
	.st29{fill:#342E2C;}
	.st30{fill:#281E1C;}
	.st31{fill:#0D1313;}
	.st32{fill:#3E3C3D;}
	.st33{fill:url(#SVGID_6_);}
	.st34{fill:url(#SVGID_7_);}
	.st35{fill:url(#SVGID_8_);}
	.st36{fill:url(#SVGID_9_);}
	.st37{fill:url(#SVGID_10_);}
	.st38{fill:url(#SVGID_11_);}
	.st39{fill:url(#SVGID_12_);}
	.st40{fill:url(#SVGID_13_);}
</style>
<g id="レイヤー_1">
</g>
<g id="レイヤー_3">
	<rect class="st0" width="74" height="48"/>
</g>
<g id="レイヤー_4">
	<rect x="21.6" y="23.3" class="st1" width="51.8" height="11"/>
	<polygon class="st2" points="73.5,23.3 21.7,23.3 21.7,34.3 0.6,34.3 0.6,13.7 73.5,13.7 	"/>
	<rect x="21.6" y="13.7" class="st3" width="51.9" height="9.6"/>
	<rect x="21.8" y="13.9" class="st4" width="51.4" height="9.2"/>
	<rect x="22.1" y="14" class="st5" width="50.9" height="8.9"/>
	<rect x="33.3" y="23.3" class="st4" width="35.5" height="4"/>
	<polygon class="st6" points="34.2,27.1 33.5,26.5 33.5,23.4 68.5,23.4 68.5,27.1 	"/>
	<rect x="0.6" y="26.6" class="st7" width="21" height="7.8"/>
	<polygon class="st8" points="14.9,33.5 14.3,34.2 8.1,34.2 7.5,33.5 7.5,32.6 14.9,32.6 	"/>
	<rect x="7.5" y="26.8" class="st8" width="7.5" height="3.4"/>
	<path class="st9" d="M7.5,27.1H6.9l-0.1,0.2H5.4C5,27.3,5,27.7,5,27.7v1.8c0,0.6,0.4,0.7,0.4,0.7h0.3c0.3,0,0.7,0.9,0.7,0.9
		C6.6,31.4,7,31.4,7,31.4h0.5v-0.5H6.7v-0.7h0.8"/>
	
		<linearGradient id="SVGID_1_" gradientUnits="userSpaceOnUse" x1="-34.9218" y1="188.9735" x2="-33.0924" y2="188.9735" gradientTransform="matrix(0 -1 1 0 -177.7715 -2.2441)">
		<stop  offset="0" style="stop-color:#888888"/>
		<stop  offset="0.1429" style="stop-color:#656464"/>
		<stop  offset="1" style="stop-color:#595757"/>
	</linearGradient>
	<rect x="7.5" y="30.8" class="st10" width="7.5" height="1.7"/>
	<polygon class="st9" points="9.8,27.3 7.7,27.3 7.7,29.7 7.5,29.7 7.5,32.6 14.9,32.6 14.9,29.7 14.7,29.7 14.7,27.3 12.6,27.3 
		12.6,29.7 12.2,29.7 12.2,27.3 10.2,27.3 10.2,29.7 9.8,29.7 	"/>
	<path class="st11" d="M8.1,27.6c0.4-0.4,1-0.4,1.3,0c0.4,0.4,0.4,1,0,1.3c-0.4,0.4-1,0.4-1.3,0C7.7,28.6,7.7,28,8.1,27.6z"/>
	<path class="st12" d="M5.6,28.1c0.4-0.4,1-0.4,1.3,0c0.4,0.4,0.4,1,0,1.3c-0.4,0.4-1,0.4-1.3,0C5.2,29.1,5.2,28.5,5.6,28.1z"/>
	<path class="st13" d="M7,28.2c0,0-0.1-0.1-0.1-0.1c0,0-0.1-0.1-0.1-0.1l-1.3,1.3c0,0,0.1,0.1,0.1,0.1c0,0,0.1,0.1,0.1,0.1L7,28.2z"
		/>
	<path class="st14" d="M5.6,28.1c0.4-0.4,1-0.4,1.3,0c0.4,0.4,0.4,1,0,1.3c-0.4,0.4-1,0.4-1.3,0C5.2,29.1,5.2,28.5,5.6,28.1z"/>
	<path class="st9" d="M14.9,27.1h0.6l0.1,0.2H17c0.4,0,0.4,0.4,0.4,0.4v1.8c0,0.6-0.4,0.7-0.4,0.7h-0.3c-0.3,0-0.7,0.9-0.7,0.9
		c-0.2,0.3-0.6,0.3-0.6,0.3h-0.5v-0.5h0.8v-0.7h-0.8"/>
	<path class="st12" d="M15.5,28.1c-0.4,0.4-0.4,1,0,1.3c0.4,0.4,1,0.4,1.3,0c0.4-0.4,0.4-1,0-1.3C16.5,27.7,15.9,27.7,15.5,28.1z"/>
	<path class="st13" d="M15.6,29.5c0,0-0.1-0.1-0.1-0.1c0,0-0.1-0.1-0.1-0.1l1.3-1.3c0,0,0.1,0.1,0.1,0.1c0,0,0.1,0.1,0.1,0.1
		L15.6,29.5z"/>
	<path class="st14" d="M15.5,28.1c-0.4,0.4-0.4,1,0,1.3c0.4,0.4,1,0.4,1.3,0c0.4-0.4,0.4-1,0-1.3C16.5,27.7,15.9,27.7,15.5,28.1z"/>
	<rect x="7.7" y="29.5" class="st15" width="2.1" height="1.1"/>
	<rect x="7.7" y="29.9" class="st16" width="2.1" height="0.3"/>
	<path class="st11" d="M10.5,27.6c0.4-0.4,1-0.4,1.3,0c0.4,0.4,0.4,1,0,1.3c-0.4,0.4-1,0.4-1.3,0C10.2,28.6,10.2,28,10.5,27.6z"/>
	<rect x="10.2" y="29.5" class="st15" width="2.1" height="1.1"/>
	<rect x="10.2" y="29.9" class="st16" width="2.1" height="0.3"/>
	<path class="st11" d="M13,27.6c0.4-0.4,1-0.4,1.3,0c0.4,0.4,0.4,1,0,1.3c-0.4,0.4-1,0.4-1.3,0C12.7,28.6,12.7,28,13,27.6z"/>
	<rect x="12.6" y="29.5" class="st15" width="2.1" height="1.1"/>
	<rect x="12.6" y="29.9" class="st16" width="2.1" height="0.3"/>
	<path class="st11" d="M11.9,32.8c0,0.3,0.1,0.8-0.2,1c-0.3,0.3-0.7,0.3-0.9,0c-0.2-0.2-0.2-0.3-0.2-0.5v-0.6H11.9z"/>
	<path class="st11" d="M9.4,32.8c0,0.3,0.1,0.8-0.2,1c-0.3,0.3-0.7,0.3-0.9,0c-0.2-0.2-0.2-0.3-0.2-0.5v-0.6H9.4z"/>
	<path class="st11" d="M13,32.8c0,0.3-0.1,0.8,0.2,1c0.3,0.3,0.7,0.3,0.9,0c0.2-0.2,0.2-0.3,0.2-0.5v-0.6H13z"/>
	<g>
		<rect x="11.9" y="16.1" class="st17" width="7.5" height="6.6"/>
		<g>
			<rect x="12.2" y="16.6" class="st18" width="6.8" height="5.7"/>
			<polygon class="st19" points="14.6,16.8 14.6,17.3 12.6,17.3 12.6,21.7 18.3,21.7 18.3,17.3 16.3,17.3 16.3,16.8 			"/>
			
				<radialGradient id="SVGID_2_" cx="-928.5908" cy="241.8158" r="0.5532" gradientTransform="matrix(0 -1 1 0 -224.1348 -910.7871)" gradientUnits="userSpaceOnUse">
				<stop  offset="0" style="stop-color:#D0D8C3"/>
				<stop  offset="0.5" style="stop-color:#B0AFA6"/>
				<stop  offset="1" style="stop-color:#898773"/>
			</radialGradient>
			<rect x="17.1" y="17.3" class="st20" width="1.2" height="1"/>
			
				<radialGradient id="SVGID_3_" cx="-928.5908" cy="237.3756" r="0.5532" gradientTransform="matrix(0 -1 1 0 -224.1348 -910.7871)" gradientUnits="userSpaceOnUse">
				<stop  offset="1.123600e-02" style="stop-color:#F5B9BA"/>
				<stop  offset="0.5" style="stop-color:#C6161E"/>
				<stop  offset="1" style="stop-color:#782615"/>
			</radialGradient>
			<rect x="12.6" y="17.3" class="st21" width="1.2" height="1"/>
		</g>
	</g>
	<g>
		<rect x="2.9" y="16.1" class="st17" width="7.5" height="6.6"/>
		<g>
			<rect x="3.2" y="16.6" class="st18" width="6.8" height="5.7"/>
			<polygon class="st19" points="5.6,16.8 5.6,17.3 3.6,17.3 3.6,21.7 9.3,21.7 9.3,17.3 7.3,17.3 7.3,16.8 			"/>
			
				<radialGradient id="SVGID_4_" cx="-928.5908" cy="232.8279" r="0.5532" gradientTransform="matrix(0 -1 1 0 -224.1348 -910.7871)" gradientUnits="userSpaceOnUse">
				<stop  offset="0" style="stop-color:#D0D8C3"/>
				<stop  offset="0.5" style="stop-color:#B0AFA6"/>
				<stop  offset="1" style="stop-color:#898773"/>
			</radialGradient>
			<rect x="8.1" y="17.3" class="st22" width="1.2" height="1"/>
			
				<radialGradient id="SVGID_5_" cx="-928.5908" cy="228.3877" r="0.5532" gradientTransform="matrix(0 -1 1 0 -224.1348 -910.7871)" gradientUnits="userSpaceOnUse">
				<stop  offset="1.123600e-02" style="stop-color:#F5B9BA"/>
				<stop  offset="0.5" style="stop-color:#C6161E"/>
				<stop  offset="1" style="stop-color:#782615"/>
			</radialGradient>
			<rect x="3.6" y="17.3" class="st23" width="1.2" height="1"/>
		</g>
	</g>
	<rect x="0.6" y="13.7" class="st24" width="72.9" height="20.6"/>
	<rect x="33.1" y="33.3" class="st25" width="35.6" height="1"/>
	<g>
		<rect x="56.1" y="16.9" class="st0" width="6.9" height="2.8"/>
		<rect x="54.1" y="14" class="st0" width="13.5" height="1.9"/>
		<rect x="54.1" y="15.9" class="st26" width="13.5" height="0.9"/>
		<path class="st0" d="M67.6,14v2.7h3.9c0.1,0,0.2,0,0.3-0.1c0.1-0.1,0.1-0.2,0.1-0.3V14H67.6z"/>
	</g>
	<path class="st0" d="M29.6,16.9h-6c-0.2,0-0.4,0.2-0.4,0.4v3.8c0,0.2,0.2,0.4,0.4,0.4h6c0.2,0,0.4-0.2,0.4-0.4v-3.8
		C30,17.1,29.8,16.9,29.6,16.9z M29.8,21.2c0,0.1-0.1,0.3-0.3,0.3h-6c-0.1,0-0.3-0.1-0.3-0.3v-3.8c0-0.1,0.1-0.3,0.3-0.3h6
		c0.1,0,0.3,0.1,0.3,0.3V21.2z"/>
	<polygon class="st5" points="69.5,16.5 69.5,15.3 69.5,15.3 68.8,15.3 68.8,15.3 68.8,16.5 	"/>
	<path class="st0" d="M28.4,14v2.3c0,0.1,0,0.2,0.1,0.3c0.1,0.1,0.2,0.1,0.3,0.1h9.6c0.1,0,0.2,0,0.3-0.1c0.1-0.1,0.1-0.2,0.1-0.3
		V14H28.4z"/>
	<polygon class="st5" points="38,16.5 38,15.3 38,15.3 37.2,15.3 37.2,15.3 37.2,16.5 	"/>
	<polygon class="st5" points="36,16.5 36,15.3 36,15.3 35.3,15.3 35.3,15.3 35.3,16.5 	"/>
	<polygon class="st5" points="34,16.5 34,15.3 34,15.3 33.3,15.3 33.3,15.3 33.3,16.5 	"/>
	<polygon class="st5" points="32.1,16.5 32.1,15.3 32.1,15.3 31.3,15.3 31.3,15.3 31.3,16.5 	"/>
	<polygon class="st5" points="30.1,16.5 30.1,15.3 30.1,15.3 29.4,15.3 29.4,15.3 29.4,16.5 	"/>
	<g>
		<g>
			<polygon class="st5" points="66.5,16.5 66.5,15.3 65.2,15.3 65.2,15.3 65.2,16.5 			"/>
			<polygon class="st5" points="63.1,16.5 63.1,15.3 61.8,15.3 61.8,15.3 61.8,16.5 			"/>
			<polygon class="st5" points="59.7,16.5 59.7,15.3 58.5,15.3 58.5,15.3 58.5,16.5 			"/>
			<polygon class="st5" points="56.4,16.5 56.4,15.3 55.1,15.3 55.1,15.3 55.1,16.5 			"/>
			<path class="st26" d="M39.7,15.9c0,0.1,0,0.3,0,0.4c0,0.3,0.3,0.5,0.6,0.5c0.3,0,13.7,0,13.7,0v-0.9H39.7z"/>
			<path class="st0" d="M54,14H39.7c0,0,0,1.1,0,1.9H54V14z"/>
			<polygon class="st5" points="53,16.5 53,15.3 51.7,15.3 51.7,15.3 51.7,16.5 			"/>
			<polygon class="st5" points="49.6,16.5 49.6,15.3 48.3,15.3 48.3,15.3 48.3,16.5 			"/>
			<polygon class="st5" points="46.2,16.5 46.2,15.3 45,15.3 45,15.3 45,16.5 			"/>
			<polygon class="st5" points="42.9,16.5 42.9,15.3 41.6,15.3 41.6,15.3 41.6,16.5 			"/>
			<polygon class="st5" points="62.6,18.3 62.6,17.1 62.6,17.1 61.9,17.1 61.9,17.1 61.9,18.3 			"/>
			<polygon class="st5" points="60.8,18.3 60.8,17.1 60.8,17.1 60.1,17.1 60.1,17.1 60.1,18.3 			"/>
			<polygon class="st5" points="59.1,18.3 59.1,17.1 59.1,17.1 58.4,17.1 58.4,17.1 58.4,18.3 			"/>
			<polygon class="st5" points="57.4,18.3 57.4,17.1 57.4,17.1 56.6,17.1 56.6,17.1 56.6,18.3 			"/>
			<path class="st0" d="M70.2,16.9c0.1,0,0.2,0,0.3,0.1c0.1,0.1,0.1,0.2,0.1,0.3v1.9c0,0.1,0,0.2-0.1,0.3c-0.1,0.1-0.2,0.1-0.3,0.1
				h-7.1v-2.8H70.2z"/>
			<path class="st0" d="M53.4,16.9c-0.1,0-0.2,0-0.3,0.1C53,17.1,53,17.2,53,17.3v1.9c0,0.1,0,0.2,0.1,0.3c0.1,0.1,0.2,0.1,0.3,0.1
				H56v-2.8H53.4z"/>
			<path class="st0" d="M38.4,21.5v0.9c0,0.1,0,0.2,0.1,0.3c0.1,0.1,0.2,0.1,0.3,0.1h6.1v-1.3H44c0,0-0.7,0.6-1.7,0.6
				c-1.1,0-1.8-0.6-1.8-0.6H38.4z"/>
			<path class="st0" d="M55.4,21.5v0.9c0,0.1,0,0.2-0.1,0.3c-0.1,0.1-0.2,0.1-0.3,0.1H45v-1.3h1.3c0,0,0.7,0.6,1.7,0.6
				c1.1,0,1.8-0.6,1.8-0.6H55.4z"/>
		</g>
	</g>
	<g>
		<rect x="23.2" y="17.8" class="st0" width="6.8" height="0.2"/>
		<rect x="25.1" y="17" class="st0" width="0.2" height="4.5"/>
		<rect x="23.2" y="18.7" class="st0" width="6.8" height="0.2"/>
		<rect x="23.2" y="19.6" class="st0" width="6.8" height="0.2"/>
		<rect x="23.2" y="20.5" class="st0" width="6.8" height="0.2"/>
	</g>
	<rect x="10.1" y="25.1" class="st0" width="2.3" height="1.5"/>
	<g>
		<path class="st0" d="M9.9,25.1h-2c-0.1,0-0.1,0-0.2,0c-0.1,0-0.1,0.1-0.1,0.1c0,0-0.1,0.1-0.1,0.1c0,0.1,0,0.1,0,0.2v1h2.4V25.1z"
			/>
		<path class="st0" d="M14.9,25.4c0-0.1-0.1-0.1-0.1-0.1c0,0-0.1-0.1-0.1-0.1c-0.1,0-0.1,0-0.2,0h-2.1v1.5H15v-1
			C15,25.5,15,25.4,14.9,25.4z"/>
	</g>
	<path class="st0" d="M5,14.5c0-0.1-0.1-0.1-0.1-0.1c0,0-0.1-0.1-0.1-0.1c-0.1,0-0.1,0-0.2,0H3.5c-0.1,0-0.1,0-0.2,0
		c-0.1,0-0.1,0.1-0.1,0.1c0,0-0.1,0.1-0.1,0.1c0,0.1,0,0.1,0,0.2V16h2v-1.4C5,14.6,5,14.5,5,14.5z"/>
	<path class="st0" d="M9.9,14.5c0-0.1-0.1-0.1-0.1-0.1c0,0-0.1-0.1-0.1-0.1c-0.1,0-0.1,0-0.2,0H8.4c-0.1,0-0.1,0-0.2,0
		c-0.1,0-0.1,0.1-0.1,0.1c0,0-0.1,0.1-0.1,0.1c0,0.1,0,0.1,0,0.2V16h2v-1.4C9.9,14.6,9.9,14.5,9.9,14.5z"/>
	<path class="st0" d="M14.1,14.5c0-0.1-0.1-0.1-0.1-0.1c0,0-0.1-0.1-0.1-0.1c-0.1,0-0.1,0-0.2,0h-1.1c-0.1,0-0.1,0-0.2,0
		c-0.1,0-0.1,0.1-0.1,0.1c0,0-0.1,0.1-0.1,0.1c0,0.1,0,0.1,0,0.2V16h2v-1.4C14.1,14.6,14.1,14.5,14.1,14.5z"/>
	<path class="st0" d="M19,14.5c0-0.1-0.1-0.1-0.1-0.1c0,0-0.1-0.1-0.1-0.1c-0.1,0-0.1,0-0.2,0h-1.1c-0.1,0-0.1,0-0.2,0
		c-0.1,0-0.1,0.1-0.1,0.1c0,0-0.1,0.1-0.1,0.1c0,0.1,0,0.1,0,0.2V16h2v-1.4C19,14.6,19,14.5,19,14.5z"/>
	<g>
		<rect x="68.9" y="19.9" class="st0" width="4" height="1.3"/>
	</g>
	<rect x="71" y="20.1" class="st26" width="1.8" height="0.9"/>
	<g id="SPLINE_2_">
		<g id="XMLID_2_">
			<path class="st0" d="M49.8,20c0,0.1-0.1,0.3-0.2,0.4l-0.3-0.2c0.1-0.2,0.2-0.5,0.2-0.7h0.3C49.9,19.7,49.9,19.8,49.8,20z"/>
			<path class="st0" d="M49.8,18.8c0,0.1,0.1,0.3,0.1,0.4h-0.3c0-0.2-0.1-0.5-0.2-0.7l0.3-0.2C49.7,18.6,49.8,18.7,49.8,18.8z"/>
			<path class="st27" d="M49.4,19.5L49.4,19.5C49.4,19.4,49.4,19.5,49.4,19.5C49.4,19.5,49.4,19.5,49.4,19.5z"/>
			<path class="st0" d="M48.8,17.7c0.2,0.1,0.6,0.3,0.7,0.5l-0.3,0.2c-0.1-0.2-0.4-0.3-0.6-0.4L48.8,17.7z"/>
			<path class="st0" d="M49.5,20.5c-0.2,0.2-0.5,0.4-0.7,0.5l-0.1-0.3c0.2-0.1,0.4-0.3,0.6-0.4L49.5,20.5z"/>
			<path class="st28" d="M48.2,18.6L48.2,18.6h-0.1h-0.3C47.9,18.6,48,18.5,48.2,18.6c0.1-0.1,0.2-0.1,0.3,0H48.2z"/>
			<polygon class="st16" points="48.4,19 48.4,20.1 47.9,20.1 47.9,19 47.7,19 48.1,18.6 48.1,18.6 48.2,18.6 48.6,19 			"/>
			<path class="st0" d="M48.4,17.6c0.1,0,0.1,0,0.2,0L48.5,18c-0.1,0-0.1,0-0.2,0c0,0-0.1,0-0.1,0c0,0-0.1,0-0.1,0c0,0-0.1,0-0.1,0
				c0,0-0.1,0-0.1,0c-0.1,0-0.1,0-0.2,0l-0.1-0.3c0.1,0,0.1,0,0.2,0c0,0,0.1,0,0.1,0c0,0,0,0,0.1,0c0,0,0,0,0.1,0c0,0,0,0,0.1,0
				c0,0,0,0,0.1,0C48.3,17.6,48.3,17.6,48.4,17.6z"/>
			<path class="st15" d="M48.4,20.1V19h0.2l-0.4-0.4h0.3h0c0.3,0.1,0.5,0.4,0.5,0.8c0,0.5-0.4,0.9-0.9,0.9c-0.5,0-0.9-0.4-0.9-0.9
				c0-0.3,0.2-0.6,0.5-0.8h0h0.3L47.7,19h0.2v1.1H48.4z"/>
			<path class="st0" d="M48.5,20.8l0.1,0.3c-0.1,0-0.1,0-0.2,0c0,0-0.1,0-0.1,0c0,0,0,0-0.1,0c0,0,0,0-0.1,0c0,0,0,0-0.1,0
				c0,0,0,0-0.1,0c0,0-0.1,0-0.1,0c-0.1,0-0.1,0-0.2,0l0.1-0.3c0.1,0,0.1,0,0.2,0c0,0,0.1,0,0.1,0c0,0,0.1,0,0.1,0c0,0,0.1,0,0.1,0
				c0,0,0.1,0,0.1,0C48.4,20.9,48.4,20.9,48.5,20.8z"/>
			<path class="st17" d="M49,19.4c0-0.3-0.2-0.6-0.5-0.8h0c-0.1-0.1-0.2-0.1-0.4-0.1c-0.1,0-0.3,0-0.4,0.1h0
				c-0.3,0.1-0.5,0.4-0.5,0.8c0,0.5,0.4,0.9,0.9,0.9C48.6,20.3,49,19.9,49,19.4z M48.8,20.4c-0.1,0-0.1,0.1-0.2,0.1
				c-0.1,0-0.2,0.1-0.2,0.1c-0.1,0-0.2,0-0.2,0c-0.1,0-0.2,0-0.2,0c-0.1,0-0.2,0-0.2-0.1c-0.1,0-0.1-0.1-0.2-0.1
				c-0.1,0-0.1-0.1-0.2-0.2c-0.1-0.1-0.1-0.1-0.2-0.2C47,20,47,20,47,19.9c0-0.1-0.1-0.2-0.1-0.2c0-0.1,0-0.2,0-0.2
				c0-0.1,0-0.2,0-0.2c0-0.1,0-0.2,0.1-0.2c0-0.1,0.1-0.1,0.1-0.2c0-0.1,0.1-0.1,0.2-0.2c0.1-0.1,0.1-0.1,0.2-0.2
				c0.1,0,0.1-0.1,0.2-0.1c0.1,0,0.2-0.1,0.2-0.1c0.1,0,0.2,0,0.2,0c0.1,0,0.2,0,0.2,0c0.1,0,0.2,0,0.2,0.1c0.1,0,0.2,0.1,0.2,0.1
				c0.1,0,0.1,0.1,0.2,0.2c0.1,0.1,0.1,0.1,0.2,0.2c0,0.1,0.1,0.1,0.1,0.2c0,0.1,0.1,0.2,0.1,0.2c0,0.1,0,0.1,0,0.2c0,0,0,0.1,0,0.1
				c0,0,0,0,0,0l0,0.1c0,0.1,0,0.1,0,0.1c0,0.1,0,0.2-0.1,0.2c0,0.1-0.1,0.1-0.1,0.2c0,0.1-0.1,0.1-0.2,0.2
				C49,20.3,48.9,20.4,48.8,20.4z"/>
			<path class="st0" d="M47.6,18c-0.2,0.1-0.4,0.3-0.6,0.4l-0.3-0.2c0.2-0.2,0.5-0.4,0.7-0.5L47.6,18z"/>
			<path class="st0" d="M47,20.4c0.1,0.2,0.4,0.3,0.6,0.4l-0.1,0.3c-0.2-0.1-0.6-0.3-0.7-0.5L47,20.4z"/>
			<path class="st0" d="M46.6,20.4c-0.1-0.1-0.1-0.3-0.2-0.4c0-0.1-0.1-0.3-0.1-0.4h0.3c0,0.2,0.1,0.5,0.2,0.7L46.6,20.4z"/>
			<path class="st0" d="M46.4,18.8c0-0.1,0.1-0.3,0.2-0.4l0.3,0.2c-0.1,0.2-0.2,0.5-0.2,0.7h-0.3C46.3,19.1,46.4,19,46.4,18.8z"/>
			<path class="st0" d="M44,19.5c0,0,0,0.1,0,0.1l-0.3-0.1c0-0.1,0-0.1,0-0.2c0,0,0,0,0-0.1c0-0.1,0-0.1,0-0.2l0.3-0.1
				c0,0,0,0.1,0,0.1c0,0,0,0,0,0.1c0,0,0,0,0,0.1C44,19.4,44,19.4,44,19.5C44,19.5,44,19.5,44,19.5z"/>
			<path class="st0" d="M43.6,19c0-0.1-0.1-0.2-0.1-0.3c0,0,0-0.1,0-0.1l0.3-0.2c0.1,0.1,0.1,0.2,0.1,0.3c0,0,0,0.1,0,0.1L43.6,19z"
				/>
			<path class="st0" d="M43.7,20.3l-0.3-0.2c0-0.1,0.1-0.2,0.1-0.2c0,0,0-0.1,0-0.1l0.3,0.1C43.9,20,43.8,20.2,43.7,20.3z"/>
			<path class="st27" d="M43.4,19.5L43.4,19.5C43.4,19.4,43.4,19.5,43.4,19.5z"/>
			<path class="st27" d="M43.4,19.5L43.4,19.5C43.4,19.5,43.4,19.5,43.4,19.5C43.4,19.5,43.4,19.5,43.4,19.5z"/>
			<path class="st0" d="M43.6,20.5c-0.1,0.1-0.2,0.2-0.3,0.3l-0.2-0.3c0.1-0.1,0.2-0.2,0.3-0.2L43.6,20.5z"/>
			<path class="st0" d="M43.3,18c0.1,0.1,0.3,0.2,0.3,0.3l-0.3,0.2c-0.1-0.1-0.2-0.2-0.3-0.3L43.3,18z"/>
			<path class="st0" d="M42.6,18l0.1-0.3c0.1,0,0.3,0.1,0.4,0.2l-0.2,0.3C42.8,18.1,42.7,18,42.6,18z"/>
			<path class="st0" d="M42.6,21.1l-0.1-0.3c0.1,0,0.2-0.1,0.2-0.1c0,0,0.1,0,0.1,0l0.2,0.3c-0.1,0.1-0.2,0.1-0.3,0.1
				C42.7,21.1,42.7,21.1,42.6,21.1z"/>
			<path class="st0" d="M42.3,20.9C42.3,20.9,42.3,20.9,42.3,20.9l0.1,0.3c0,0-0.1,0-0.1,0c0,0,0,0-0.1,0c0,0,0,0-0.1,0
				c0,0,0,0-0.1,0c0,0,0,0-0.1,0c0,0-0.1,0-0.1,0l0.1-0.3c0,0,0.1,0,0.1,0C42.1,20.9,42.1,20.9,42.3,20.9
				C42.2,20.9,42.2,20.9,42.3,20.9z"/>
			<path class="st28" d="M42.2,18.5c0.1,0,0.3,0,0.4,0.1L42.2,18.5L42.2,18.5L42.2,18.5l-0.4,0.1C41.9,18.6,42,18.5,42.2,18.5z"/>
			<path class="st0" d="M42.4,17.6l-0.1,0.3c0,0-0.1,0-0.1,0c0,0-0.1,0-0.1,0c0,0-0.1,0-0.1,0c0,0-0.1,0-0.1,0l-0.1-0.3
				c0,0,0.1,0,0.1,0c0,0,0,0,0.1,0c0,0,0,0,0.1,0c0,0,0,0,0.1,0c0,0,0,0,0.1,0C42.3,17.6,42.4,17.6,42.4,17.6z"/>
			<polygon class="st16" points="42.2,18.6 42.6,19 42.4,19 42.4,20.1 41.9,20.1 41.9,19 41.7,19 42.1,18.6 42.2,18.6 			"/>
			<path class="st15" d="M42.6,19l-0.4-0.4h0.3c0.3,0.1,0.5,0.4,0.5,0.8c0,0.5-0.4,0.9-0.9,0.9c-0.5,0-0.9-0.4-0.9-0.9
				c0-0.3,0.2-0.6,0.5-0.8h0.3L41.7,19h0.2v1.1h0.4V19H42.6z"/>
			<path class="st0" d="M41.7,17.7l0.1,0.3c-0.1,0-0.3,0.1-0.3,0.1l-0.2-0.3C41.4,17.8,41.6,17.7,41.7,17.7z"/>
			<path class="st0" d="M41.8,20.8l-0.1,0.3c-0.1,0-0.2-0.1-0.3-0.1c0,0-0.1,0-0.1-0.1l0.2-0.3C41.5,20.7,41.6,20.8,41.8,20.8
				C41.7,20.8,41.8,20.8,41.8,20.8z"/>
			<path class="st0" d="M41,20.3c0.1,0.1,0.2,0.2,0.3,0.2l-0.2,0.3c-0.1-0.1-0.2-0.2-0.3-0.3L41,20.3z"/>
			<path class="st0" d="M41.2,18.2c-0.1,0.1-0.2,0.2-0.3,0.3l-0.3-0.2c0.1-0.1,0.2-0.3,0.3-0.3L41.2,18.2z"/>
			<path class="st17" d="M43,19.4c0-0.3-0.2-0.6-0.5-0.8c-0.1-0.1-0.2-0.1-0.4-0.1c-0.1,0-0.3,0-0.4,0.1c-0.3,0.1-0.5,0.4-0.5,0.8
				c0,0.5,0.4,0.9,0.9,0.9C42.6,20.3,43,19.9,43,19.4z M42.2,20.7c-0.1,0-0.2,0-0.2,0c-0.1,0-0.2,0-0.2-0.1c-0.1,0-0.1-0.1-0.2-0.1
				c-0.1,0-0.1-0.1-0.2-0.2c-0.1-0.1-0.1-0.1-0.2-0.2c0-0.1-0.1-0.1-0.1-0.2c0-0.1-0.1-0.2-0.1-0.2c0-0.1,0-0.2,0-0.2c0,0,0,0,0-0.1
				c0-0.1,0-0.1,0-0.2c0-0.1,0-0.2,0.1-0.2c0-0.1,0.1-0.2,0.1-0.2c0-0.1,0.1-0.1,0.2-0.2c0.1-0.1,0.1-0.1,0.2-0.2
				c0.1,0,0.1-0.1,0.2-0.1c0.1,0,0.2-0.1,0.2-0.1c0.1,0,0.2,0,0.2,0c0.1,0,0.2,0,0.2,0c0.1,0,0.2,0,0.2,0.1c0.1,0,0.1,0.1,0.2,0.1
				c0.1,0,0.1,0.1,0.2,0.2c0.1,0.1,0.1,0.1,0.2,0.2c0,0.1,0.1,0.1,0.1,0.2c0,0.1,0.1,0.2,0.1,0.2c0,0.1,0,0.1,0,0.2c0,0,0,0,0,0.1
				c0,0,0,0,0,0l0,0c0,0,0,0,0,0l0,0c0,0.1,0,0.1,0,0.1c0,0.1,0,0.2-0.1,0.2c0,0.1-0.1,0.2-0.1,0.2c0,0.1-0.1,0.1-0.2,0.2
				c-0.1,0.1-0.1,0.1-0.2,0.2c-0.1,0-0.1,0.1-0.2,0.1c-0.1,0-0.2,0.1-0.2,0.1C42.3,20.7,42.3,20.7,42.2,20.7z"/>
			<path class="st0" d="M40.6,18.5l0.3,0.2c0,0.1-0.1,0.2-0.1,0.3c0,0,0,0.1,0,0.1L40.4,19c0-0.1,0.1-0.2,0.1-0.3
				C40.6,18.6,40.6,18.5,40.6,18.5z"/>
			<path class="st0" d="M40.8,19.8c0,0.1,0.1,0.2,0.1,0.2c0,0,0,0.1,0,0.1l-0.3,0.2c-0.1-0.1-0.2-0.3-0.2-0.4L40.8,19.8z"/>
			<path class="st0" d="M40.7,19.4c0,0.1,0,0.1,0,0.2l-0.3,0.1c0,0,0-0.1,0-0.1c0,0,0,0,0-0.1c0,0,0,0,0-0.1c0,0,0,0,0-0.1
				c0,0,0,0,0-0.1c0,0,0-0.1,0-0.1l0.3,0.1C40.7,19.3,40.7,19.3,40.7,19.4C40.7,19.4,40.7,19.4,40.7,19.4z"/>
		</g>
	</g>
	<path class="st29" d="M37.4,20.2c0,0.2-0.2,0.3-0.3,0.3h-4.7c-0.2,0-0.3-0.2-0.3-0.3v-2c0-0.2,0.2-0.3,0.3-0.3H37
		c0.2,0,0.3,0.2,0.3,0.3V20.2z"/>
	<polygon class="st30" points="36.6,19.9 36.6,18.7 36.6,18.7 36.1,18.7 36.1,19.9 	"/>
	<polygon class="st30" points="35.5,19.9 35.5,18.7 35.5,18.7 34.9,18.7 34.9,19.9 	"/>
	<polygon class="st30" points="34.4,19.9 34.4,18.7 34.4,18.7 33.8,18.7 33.8,19.9 	"/>
	<polygon class="st30" points="33.2,19.9 33.2,18.7 33.2,18.7 32.6,18.7 32.6,19.9 	"/>
	<g>
		<path class="st0" d="M64.9,26.8h1c0.2,0,0.3-0.2,0.3-0.3v-1.2h-1.4V26.8z"/>
		<path class="st0" d="M64.8,23.6h-1c-0.2,0-0.3,0.2-0.3,0.3v1.2h1.4V23.6z"/>
		<path class="st0" d="M66.3,25.2V24c0-0.2-0.2-0.3-0.3-0.3h-1v1.5H66.3z"/>
		<path class="st0" d="M63.4,25.3v1.2c0,0.2,0.2,0.3,0.3,0.3h1v-1.5H63.4z"/>
	</g>
	<g>
		<path class="st0" d="M61.9,26.8h1c0.2,0,0.3-0.2,0.3-0.3v-1.2h-1.4V26.8z"/>
		<path class="st0" d="M61.7,23.6h-1c-0.2,0-0.3,0.2-0.3,0.3v1.2h1.4V23.6z"/>
		<path class="st0" d="M63.2,25.2V24c0-0.2-0.2-0.3-0.3-0.3h-1v1.5H63.2z"/>
		<path class="st0" d="M60.3,25.3v1.2c0,0.2,0.2,0.3,0.3,0.3h1v-1.5H60.3z"/>
	</g>
	<g>
		<path class="st0" d="M58.8,26.8h1c0.2,0,0.3-0.2,0.3-0.3v-1.2h-1.4V26.8z"/>
		<path class="st0" d="M58.7,23.6h-1c-0.2,0-0.3,0.2-0.3,0.3v1.2h1.4V23.6z"/>
		<path class="st0" d="M60.2,25.2V24c0-0.2-0.2-0.3-0.3-0.3h-1v1.5H60.2z"/>
		<path class="st0" d="M57.3,25.3v1.2c0,0.2,0.2,0.3,0.3,0.3h1v-1.5H57.3z"/>
	</g>
	<g>
		<path class="st0" d="M55.8,26.8h1c0.2,0,0.3-0.2,0.3-0.3v-1.2h-1.4V26.8z"/>
		<path class="st0" d="M55.6,23.6h-1c-0.2,0-0.3,0.2-0.3,0.3v1.2h1.4V23.6z"/>
		<path class="st0" d="M57.1,25.2V24c0-0.2-0.2-0.3-0.3-0.3h-1v1.5H57.1z"/>
		<path class="st0" d="M54.2,25.3v1.2c0,0.2,0.2,0.3,0.3,0.3h1v-1.5H54.2z"/>
	</g>
	<g>
		<path class="st0" d="M52.7,26.8h1c0.2,0,0.3-0.2,0.3-0.3v-1.2h-1.4V26.8z"/>
		<path class="st0" d="M52.6,23.6h-1c-0.2,0-0.3,0.2-0.3,0.3v1.2h1.4V23.6z"/>
		<path class="st0" d="M54.1,25.2V24c0-0.2-0.2-0.3-0.3-0.3h-1v1.5H54.1z"/>
		<path class="st0" d="M51.2,25.3v1.2c0,0.2,0.2,0.3,0.3,0.3h1v-1.5H51.2z"/>
	</g>
	<g>
		<path class="st0" d="M49.7,26.8h1c0.2,0,0.3-0.2,0.3-0.3v-1.2h-1.4V26.8z"/>
		<path class="st0" d="M49.5,23.6h-1c-0.2,0-0.3,0.2-0.3,0.3v1.2h1.4V23.6z"/>
		<path class="st0" d="M51,25.2V24c0-0.2-0.2-0.3-0.3-0.3h-1v1.5H51z"/>
		<path class="st0" d="M48.1,25.3v1.2c0,0.2,0.2,0.3,0.3,0.3h1v-1.5H48.1z"/>
	</g>
	<g>
		<path class="st0" d="M46.6,26.8h1c0.2,0,0.3-0.2,0.3-0.3v-1.2h-1.4V26.8z"/>
		<path class="st0" d="M46.5,23.6h-1c-0.2,0-0.3,0.2-0.3,0.3v1.2h1.4V23.6z"/>
		<path class="st0" d="M48,25.2V24c0-0.2-0.2-0.3-0.3-0.3h-1v1.5H48z"/>
		<path class="st0" d="M45.1,25.3v1.2c0,0.2,0.2,0.3,0.3,0.3h1v-1.5H45.1z"/>
	</g>
	<g>
		<path class="st0" d="M43.6,26.8h1c0.2,0,0.3-0.2,0.3-0.3v-1.2h-1.4V26.8z"/>
		<path class="st0" d="M43.4,23.6h-1c-0.2,0-0.3,0.2-0.3,0.3v1.2h1.4V23.6z"/>
		<path class="st0" d="M44.9,25.2V24c0-0.2-0.2-0.3-0.3-0.3h-1v1.5H44.9z"/>
		<path class="st0" d="M42.1,25.3v1.2c0,0.2,0.2,0.3,0.3,0.3h1v-1.5H42.1z"/>
	</g>
	<g>
		<path class="st0" d="M37,23.6h-0.7c-0.2,0-0.3,0.2-0.3,0.3v1.2h1.4V24C37.3,23.8,37.2,23.6,37,23.6z"/>
		<path class="st31" d="M68,27.4H33.8c-0.2,0-0.3,0.2-0.3,0.3v5.5h34.9v-5.5C68.4,27.6,68.2,27.4,68,27.4z"/>
		<path class="st0" d="M36,25.3v1.2c0,0.2,0.2,0.3,0.3,0.3H37c0.2,0,0.3-0.2,0.3-0.3v-1.2H36z"/>
	</g>
	<g>
		<path class="st0" d="M38.5,23.6h-0.7c-0.2,0-0.3,0.2-0.3,0.3v1.2h1.4V24C38.8,23.8,38.7,23.6,38.5,23.6z"/>
		<path class="st0" d="M37.5,25.3v1.2c0,0.2,0.2,0.3,0.3,0.3h0.7c0.2,0,0.3-0.2,0.3-0.3v-1.2H37.5z"/>
	</g>
	<path class="st0" d="M40,25.3h-0.7c-0.2,0-0.3,0.2-0.3,0.3v0.8c0,0.2,0.2,0.3,0.3,0.3H40c0.2,0,0.3-0.2,0.3-0.3v-0.8
		C40.4,25.5,40.2,25.3,40,25.3z"/>
	<polyline class="st32" points="35.7,32.1 35.7,28.7 66.6,28.7 66.6,32.1 	"/>
	<rect x="35.7" y="32.1" class="st8" width="30.9" height="1.2"/>
	<rect x="35.7" y="27.7" class="st8" width="30.9" height="1"/>
	<path class="st11" d="M36.1,30.7c0.3-0.3,0.7-0.3,0.9,0c0.3,0.3,0.3,0.7,0,0.9c-0.3,0.3-0.7,0.3-0.9,0C35.9,31.4,35.9,31,36.1,30.7
		z"/>
	<path class="st11" d="M36.1,29.2c0.3-0.3,0.7-0.3,0.9,0c0.3,0.3,0.3,0.7,0,0.9c-0.3,0.3-0.7,0.3-0.9,0
		C35.9,29.8,35.9,29.4,36.1,29.2z"/>
	<path class="st11" d="M37.6,30.7c0.3-0.3,0.7-0.3,0.9,0c0.3,0.3,0.3,0.7,0,0.9c-0.3,0.3-0.7,0.3-0.9,0C37.4,31.4,37.4,31,37.6,30.7
		z"/>
	<path class="st11" d="M37.6,29.2c0.3-0.3,0.7-0.3,0.9,0c0.3,0.3,0.3,0.7,0,0.9c-0.3,0.3-0.7,0.3-0.9,0
		C37.4,29.8,37.4,29.4,37.6,29.2z"/>
	<path class="st11" d="M39.2,30.7c0.3-0.3,0.7-0.3,0.9,0c0.3,0.3,0.3,0.7,0,0.9c-0.3,0.3-0.7,0.3-0.9,0C38.9,31.4,38.9,31,39.2,30.7
		z"/>
	<path class="st11" d="M39.2,29.2c0.3-0.3,0.7-0.3,0.9,0c0.3,0.3,0.3,0.7,0,0.9c-0.3,0.3-0.7,0.3-0.9,0
		C38.9,29.8,38.9,29.4,39.2,29.2z"/>
	<path class="st11" d="M40.7,30.7c0.3-0.3,0.7-0.3,0.9,0c0.3,0.3,0.3,0.7,0,0.9c-0.3,0.3-0.7,0.3-0.9,0C40.4,31.4,40.4,31,40.7,30.7
		z"/>
	<path class="st11" d="M40.7,29.2c0.3-0.3,0.7-0.3,0.9,0c0.3,0.3,0.3,0.7,0,0.9c-0.3,0.3-0.7,0.3-0.9,0
		C40.4,29.8,40.4,29.4,40.7,29.2z"/>
	<path class="st11" d="M42.3,30.7c0.3-0.3,0.7-0.3,0.9,0c0.3,0.3,0.3,0.7,0,0.9c-0.3,0.3-0.7,0.3-0.9,0C42,31.4,42,31,42.3,30.7z"/>
	<path class="st11" d="M42.3,29.2c0.3-0.3,0.7-0.3,0.9,0c0.3,0.3,0.3,0.7,0,0.9c-0.3,0.3-0.7,0.3-0.9,0C42,29.8,42,29.4,42.3,29.2z"
		/>
	<path class="st11" d="M43.8,30.7c0.3-0.3,0.7-0.3,0.9,0c0.3,0.3,0.3,0.7,0,0.9c-0.3,0.3-0.7,0.3-0.9,0C43.5,31.4,43.5,31,43.8,30.7
		z"/>
	<path class="st11" d="M43.8,29.2c0.3-0.3,0.7-0.3,0.9,0c0.3,0.3,0.3,0.7,0,0.9c-0.3,0.3-0.7,0.3-0.9,0
		C43.5,29.8,43.5,29.4,43.8,29.2z"/>
	<path class="st11" d="M45.3,30.7c0.3-0.3,0.7-0.3,0.9,0c0.3,0.3,0.3,0.7,0,0.9c-0.3,0.3-0.7,0.3-0.9,0C45,31.4,45,31,45.3,30.7z"/>
	<path class="st11" d="M45.3,29.2c0.3-0.3,0.7-0.3,0.9,0c0.3,0.3,0.3,0.7,0,0.9c-0.3,0.3-0.7,0.3-0.9,0C45,29.8,45,29.4,45.3,29.2z"
		/>
	<path class="st11" d="M46.8,30.7c0.3-0.3,0.7-0.3,0.9,0c0.3,0.3,0.3,0.7,0,0.9c-0.3,0.3-0.7,0.3-0.9,0C46.5,31.4,46.5,31,46.8,30.7
		z"/>
	<path class="st11" d="M46.8,29.2c0.3-0.3,0.7-0.3,0.9,0c0.3,0.3,0.3,0.7,0,0.9c-0.3,0.3-0.7,0.3-0.9,0
		C46.5,29.8,46.5,29.4,46.8,29.2z"/>
	<path class="st11" d="M48.4,30.7c0.3-0.3,0.7-0.3,0.9,0c0.3,0.3,0.3,0.7,0,0.9c-0.3,0.3-0.7,0.3-0.9,0C48.1,31.4,48.1,31,48.4,30.7
		z"/>
	<path class="st11" d="M48.4,29.2c0.3-0.3,0.7-0.3,0.9,0c0.3,0.3,0.3,0.7,0,0.9c-0.3,0.3-0.7,0.3-0.9,0
		C48.1,29.8,48.1,29.4,48.4,29.2z"/>
	<path class="st11" d="M49.9,30.7c0.3-0.3,0.7-0.3,0.9,0c0.3,0.3,0.3,0.7,0,0.9c-0.3,0.3-0.7,0.3-0.9,0C49.7,31.4,49.7,31,49.9,30.7
		z"/>
	<path class="st11" d="M49.9,29.2c0.3-0.3,0.7-0.3,0.9,0c0.3,0.3,0.3,0.7,0,0.9c-0.3,0.3-0.7,0.3-0.9,0
		C49.7,29.8,49.7,29.4,49.9,29.2z"/>
	<path class="st11" d="M51.4,30.7c0.3-0.3,0.7-0.3,0.9,0c0.3,0.3,0.3,0.7,0,0.9c-0.3,0.3-0.7,0.3-0.9,0C51.2,31.4,51.2,31,51.4,30.7
		z"/>
	<path class="st11" d="M51.4,29.2c0.3-0.3,0.7-0.3,0.9,0c0.3,0.3,0.3,0.7,0,0.9c-0.3,0.3-0.7,0.3-0.9,0
		C51.2,29.8,51.2,29.4,51.4,29.2z"/>
	<path class="st11" d="M53,30.7c0.3-0.3,0.7-0.3,0.9,0c0.3,0.3,0.3,0.7,0,0.9c-0.3,0.3-0.7,0.3-0.9,0C52.7,31.4,52.7,31,53,30.7z"/>
	<path class="st11" d="M53,29.2c0.3-0.3,0.7-0.3,0.9,0c0.3,0.3,0.3,0.7,0,0.9c-0.3,0.3-0.7,0.3-0.9,0C52.7,29.8,52.7,29.4,53,29.2z"
		/>
	<path class="st11" d="M54.5,30.7c0.3-0.3,0.7-0.3,0.9,0c0.3,0.3,0.3,0.7,0,0.9c-0.3,0.3-0.7,0.3-0.9,0C54.3,31.4,54.3,31,54.5,30.7
		z"/>
	<path class="st11" d="M54.5,29.2c0.3-0.3,0.7-0.3,0.9,0c0.3,0.3,0.3,0.7,0,0.9c-0.3,0.3-0.7,0.3-0.9,0
		C54.3,29.8,54.3,29.4,54.5,29.2z"/>
	<path class="st11" d="M56,30.7c0.3-0.3,0.7-0.3,0.9,0c0.3,0.3,0.3,0.7,0,0.9c-0.3,0.3-0.7,0.3-0.9,0C55.8,31.4,55.8,31,56,30.7z"/>
	<path class="st11" d="M56,29.2c0.3-0.3,0.7-0.3,0.9,0c0.3,0.3,0.3,0.7,0,0.9c-0.3,0.3-0.7,0.3-0.9,0C55.8,29.8,55.8,29.4,56,29.2z"
		/>
	<path class="st11" d="M57.5,30.7c0.3-0.3,0.7-0.3,0.9,0c0.3,0.3,0.3,0.7,0,0.9c-0.3,0.3-0.7,0.3-0.9,0C57.3,31.4,57.3,31,57.5,30.7
		z"/>
	<path class="st11" d="M57.5,29.2c0.3-0.3,0.7-0.3,0.9,0c0.3,0.3,0.3,0.7,0,0.9c-0.3,0.3-0.7,0.3-0.9,0
		C57.3,29.8,57.3,29.4,57.5,29.2z"/>
	<path class="st11" d="M59.1,30.7c0.3-0.3,0.7-0.3,0.9,0c0.3,0.3,0.3,0.7,0,0.9c-0.3,0.3-0.7,0.3-0.9,0C58.8,31.4,58.8,31,59.1,30.7
		z"/>
	<path class="st11" d="M59.1,29.2c0.3-0.3,0.7-0.3,0.9,0c0.3,0.3,0.3,0.7,0,0.9c-0.3,0.3-0.7,0.3-0.9,0
		C58.8,29.8,58.8,29.4,59.1,29.2z"/>
	<path class="st11" d="M60.6,30.7c0.3-0.3,0.7-0.3,0.9,0c0.3,0.3,0.3,0.7,0,0.9c-0.3,0.3-0.7,0.3-0.9,0C60.4,31.4,60.4,31,60.6,30.7
		z"/>
	<path class="st11" d="M60.6,29.2c0.3-0.3,0.7-0.3,0.9,0c0.3,0.3,0.3,0.7,0,0.9c-0.3,0.3-0.7,0.3-0.9,0
		C60.4,29.8,60.4,29.4,60.6,29.2z"/>
	<path class="st11" d="M62.1,30.7c0.3-0.3,0.7-0.3,0.9,0c0.3,0.3,0.3,0.7,0,0.9c-0.3,0.3-0.7,0.3-0.9,0C61.9,31.4,61.9,31,62.1,30.7
		z"/>
	<path class="st11" d="M62.1,29.2c0.3-0.3,0.7-0.3,0.9,0c0.3,0.3,0.3,0.7,0,0.9c-0.3,0.3-0.7,0.3-0.9,0
		C61.9,29.8,61.9,29.4,62.1,29.2z"/>
	<path class="st11" d="M63.7,30.7c0.3-0.3,0.7-0.3,0.9,0c0.3,0.3,0.3,0.7,0,0.9c-0.3,0.3-0.7,0.3-0.9,0C63.4,31.4,63.4,31,63.7,30.7
		z"/>
	<path class="st11" d="M63.7,29.2c0.3-0.3,0.7-0.3,0.9,0c0.3,0.3,0.3,0.7,0,0.9c-0.3,0.3-0.7,0.3-0.9,0
		C63.4,29.8,63.4,29.4,63.7,29.2z"/>
	<path class="st11" d="M65.2,30.7c0.3-0.3,0.7-0.3,0.9,0c0.3,0.3,0.3,0.7,0,0.9c-0.3,0.3-0.7,0.3-0.9,0C64.9,31.4,64.9,31,65.2,30.7
		z"/>
	<path class="st11" d="M65.2,29.2c0.3-0.3,0.7-0.3,0.9,0c0.3,0.3,0.3,0.7,0,0.9c-0.3,0.3-0.7,0.3-0.9,0
		C64.9,29.8,64.9,29.4,65.2,29.2z"/>
	<rect x="35.9" y="32.2" class="st15" width="1.3" height="0.7"/>
	<rect x="35.9" y="32.4" class="st16" width="1.3" height="0.2"/>
	<rect x="37.4" y="32.2" class="st15" width="1.3" height="0.7"/>
	<rect x="37.4" y="32.4" class="st16" width="1.3" height="0.2"/>
	<rect x="39" y="32.2" class="st15" width="1.3" height="0.7"/>
	<rect x="39" y="32.4" class="st16" width="1.3" height="0.2"/>
	<rect x="40.5" y="32.2" class="st15" width="1.3" height="0.7"/>
	<rect x="40.5" y="32.4" class="st16" width="1.3" height="0.2"/>
	<rect x="42" y="32.2" class="st15" width="1.3" height="0.7"/>
	<rect x="42" y="32.4" class="st16" width="1.3" height="0.2"/>
	<rect x="43.6" y="32.2" class="st15" width="1.3" height="0.7"/>
	<rect x="43.6" y="32.4" class="st16" width="1.3" height="0.2"/>
	<rect x="45.1" y="32.2" class="st15" width="1.3" height="0.7"/>
	<rect x="45.1" y="32.4" class="st16" width="1.3" height="0.2"/>
	<rect x="46.6" y="32.2" class="st15" width="1.3" height="0.7"/>
	<rect x="46.6" y="32.4" class="st16" width="1.3" height="0.2"/>
	<rect x="48.2" y="32.2" class="st15" width="1.3" height="0.7"/>
	<rect x="48.2" y="32.4" class="st16" width="1.3" height="0.2"/>
	<rect x="49.8" y="32.2" class="st15" width="1.3" height="0.7"/>
	<rect x="49.8" y="32.4" class="st16" width="1.3" height="0.2"/>
	<rect x="51.3" y="32.2" class="st15" width="1.3" height="0.7"/>
	<rect x="51.3" y="32.4" class="st16" width="1.3" height="0.2"/>
	<rect x="52.9" y="32.2" class="st15" width="1.3" height="0.7"/>
	<rect x="52.9" y="32.4" class="st16" width="1.3" height="0.2"/>
	<rect x="54.4" y="32.2" class="st15" width="1.3" height="0.7"/>
	<rect x="54.4" y="32.4" class="st16" width="1.3" height="0.2"/>
	<rect x="55.9" y="32.2" class="st15" width="1.3" height="0.7"/>
	<rect x="55.9" y="32.4" class="st16" width="1.3" height="0.2"/>
	<rect x="57.5" y="32.2" class="st15" width="1.3" height="0.7"/>
	<rect x="57.5" y="32.4" class="st16" width="1.3" height="0.2"/>
	<rect x="58.9" y="32.2" class="st15" width="1.3" height="0.7"/>
	<rect x="58.9" y="32.4" class="st16" width="1.3" height="0.2"/>
	<rect x="60.5" y="32.2" class="st15" width="1.3" height="0.7"/>
	<rect x="60.5" y="32.4" class="st16" width="1.3" height="0.2"/>
	<rect x="62" y="32.2" class="st15" width="1.3" height="0.7"/>
	<rect x="62" y="32.4" class="st16" width="1.3" height="0.2"/>
	<rect x="63.6" y="32.2" class="st15" width="1.3" height="0.7"/>
	<rect x="63.6" y="32.4" class="st16" width="1.3" height="0.2"/>
	<rect x="65.2" y="32.2" class="st15" width="1.3" height="0.7"/>
	<rect x="65.2" y="32.4" class="st16" width="1.3" height="0.2"/>
	<rect x="35.9" y="28" class="st15" width="1.3" height="0.7"/>
	<rect x="35.9" y="28.2" class="st16" width="1.3" height="0.2"/>
	<rect x="37.4" y="28" class="st15" width="1.3" height="0.7"/>
	<rect x="37.4" y="28.2" class="st16" width="1.3" height="0.2"/>
	<rect x="39" y="28" class="st15" width="1.3" height="0.7"/>
	<rect x="39" y="28.2" class="st16" width="1.3" height="0.2"/>
	<rect x="40.5" y="28" class="st15" width="1.3" height="0.7"/>
	<rect x="40.5" y="28.2" class="st16" width="1.3" height="0.2"/>
	<rect x="42" y="28" class="st15" width="1.3" height="0.7"/>
	<rect x="42" y="28.2" class="st16" width="1.3" height="0.2"/>
	<rect x="43.6" y="28" class="st15" width="1.3" height="0.7"/>
	<rect x="43.6" y="28.2" class="st16" width="1.3" height="0.2"/>
	<rect x="45.1" y="28" class="st15" width="1.3" height="0.7"/>
	<rect x="45.1" y="28.2" class="st16" width="1.3" height="0.2"/>
	<rect x="46.6" y="28" class="st15" width="1.3" height="0.7"/>
	<rect x="46.6" y="28.2" class="st16" width="1.3" height="0.2"/>
	<rect x="48.2" y="28" class="st15" width="1.3" height="0.7"/>
	<rect x="48.2" y="28.2" class="st16" width="1.3" height="0.2"/>
	<rect x="49.8" y="28" class="st15" width="1.3" height="0.7"/>
	<rect x="49.8" y="28.2" class="st16" width="1.3" height="0.2"/>
	<rect x="51.3" y="28" class="st15" width="1.3" height="0.7"/>
	<rect x="51.3" y="28.2" class="st16" width="1.3" height="0.2"/>
	<rect x="52.9" y="28" class="st15" width="1.3" height="0.7"/>
	<rect x="52.9" y="28.2" class="st16" width="1.3" height="0.2"/>
	<rect x="54.4" y="28" class="st15" width="1.3" height="0.7"/>
	<rect x="54.4" y="28.2" class="st16" width="1.3" height="0.2"/>
	<rect x="55.9" y="28" class="st15" width="1.3" height="0.7"/>
	<rect x="55.9" y="28.2" class="st16" width="1.3" height="0.2"/>
	<rect x="57.5" y="28" class="st15" width="1.3" height="0.7"/>
	<rect x="57.5" y="28.2" class="st16" width="1.3" height="0.2"/>
	<rect x="58.9" y="28" class="st15" width="1.3" height="0.7"/>
	<rect x="58.9" y="28.2" class="st16" width="1.3" height="0.2"/>
	<rect x="60.5" y="28" class="st15" width="1.3" height="0.7"/>
	<rect x="60.5" y="28.2" class="st16" width="1.3" height="0.2"/>
	<rect x="62" y="28" class="st15" width="1.3" height="0.7"/>
	<rect x="62" y="28.2" class="st16" width="1.3" height="0.2"/>
	<rect x="63.6" y="28" class="st15" width="1.3" height="0.7"/>
	<rect x="63.6" y="28.2" class="st16" width="1.3" height="0.2"/>
	<rect x="65.2" y="28" class="st15" width="1.3" height="0.7"/>
	<rect x="65.2" y="28.2" class="st16" width="1.3" height="0.2"/>
	<linearGradient id="SVGID_6_" gradientUnits="userSpaceOnUse" x1="67.213" y1="28.5316" x2="67.213" y2="29.8737">
		<stop  offset="0.1152" style="stop-color:#995E00"/>
		<stop  offset="0.297" style="stop-color:#F29600"/>
		<stop  offset="0.7273" style="stop-color:#824E00"/>
	</linearGradient>
	<rect x="66.8" y="28.6" class="st33" width="0.9" height="1.2"/>
	<rect x="67.2" y="28.6" class="st16" width="0.2" height="1.2"/>
	<linearGradient id="SVGID_7_" gradientUnits="userSpaceOnUse" x1="67.3769" y1="33.1775" x2="67.3769" y2="29.9062">
		<stop  offset="0" style="stop-color:#995E00"/>
		<stop  offset="9.696970e-02" style="stop-color:#F9BC00"/>
		<stop  offset="0.3152" style="stop-color:#F29600"/>
		<stop  offset="0.7818" style="stop-color:#824E00"/>
		<stop  offset="0.9273" style="stop-color:#A16300"/>
	</linearGradient>
	<path class="st34" d="M68,32.8c0,0.3-0.1,0.4-0.2,0.4c-0.1,0-1,0-1,0v-3.4h1c0,0,0.2,0.1,0.2,0.3S68,32.5,68,32.8z"/>
	
		<linearGradient id="SVGID_8_" gradientUnits="userSpaceOnUse" x1="-65.2339" y1="28.5316" x2="-65.2339" y2="29.8737" gradientTransform="matrix(-1 0 0 1 -30.417 0)">
		<stop  offset="0.1152" style="stop-color:#995E00"/>
		<stop  offset="0.297" style="stop-color:#F29600"/>
		<stop  offset="0.7273" style="stop-color:#824E00"/>
	</linearGradient>
	<rect x="34.3" y="28.6" class="st35" width="1.1" height="1.2"/>
	<rect x="34.8" y="28.6" class="st16" width="0.2" height="1.2"/>
	
		<linearGradient id="SVGID_9_" gradientUnits="userSpaceOnUse" x1="-65.1709" y1="33.1775" x2="-65.1709" y2="29.9062" gradientTransform="matrix(-1 0 0 1 -30.417 0)">
		<stop  offset="0" style="stop-color:#995E00"/>
		<stop  offset="9.696970e-02" style="stop-color:#F9BC00"/>
		<stop  offset="0.3152" style="stop-color:#F29600"/>
		<stop  offset="0.7818" style="stop-color:#824E00"/>
		<stop  offset="0.9273" style="stop-color:#A16300"/>
	</linearGradient>
	<path class="st36" d="M34.2,32.8c0,0.3,0.1,0.4,0.2,0.4s1,0,1,0v-3.4h-1c0,0-0.2,0.1-0.2,0.3S34.2,32.5,34.2,32.8z"/>
	<polygon class="st5" points="63.6,18.3 63.6,17.1 63.6,17.1 64.3,17.1 64.3,17.1 64.3,18.3 	"/>
	<polygon class="st5" points="65.3,18.3 65.3,17.1 65.3,17.1 66.1,17.1 66.1,17.1 66.1,18.3 	"/>
	<polygon class="st5" points="67.1,18.3 67.1,17.1 67.1,17.1 67.8,17.1 67.8,17.1 67.8,18.3 	"/>
	<polygon class="st5" points="68.8,18.3 68.8,17.1 68.8,17.1 69.5,17.1 69.5,17.1 69.5,18.3 	"/>
	<linearGradient id="SVGID_10_" gradientUnits="userSpaceOnUse" x1="32.9137" y1="19.8268" x2="32.9137" y2="19.3689">
		<stop  offset="1.818180e-02" style="stop-color:#706C67"/>
		<stop  offset="0.1576" style="stop-color:#BDBEBD"/>
		<stop  offset="0.4727" style="stop-color:#999897"/>
		<stop  offset="0.7879" style="stop-color:#9E9C9A"/>
		<stop  offset="1" style="stop-color:#6A6661"/>
	</linearGradient>
	<rect x="32.7" y="19.4" class="st37" width="0.5" height="0.5"/>
	<linearGradient id="SVGID_11_" gradientUnits="userSpaceOnUse" x1="34.0738" y1="19.8268" x2="34.0738" y2="19.3689">
		<stop  offset="1.818180e-02" style="stop-color:#706C67"/>
		<stop  offset="0.1576" style="stop-color:#BDBEBD"/>
		<stop  offset="0.4727" style="stop-color:#999897"/>
		<stop  offset="0.7879" style="stop-color:#9E9C9A"/>
		<stop  offset="1" style="stop-color:#6A6661"/>
	</linearGradient>
	<rect x="33.8" y="19.4" class="st38" width="0.5" height="0.5"/>
	<linearGradient id="SVGID_12_" gradientUnits="userSpaceOnUse" x1="35.2114" y1="19.8268" x2="35.2114" y2="19.3689">
		<stop  offset="1.818180e-02" style="stop-color:#706C67"/>
		<stop  offset="0.1576" style="stop-color:#BDBEBD"/>
		<stop  offset="0.4727" style="stop-color:#999897"/>
		<stop  offset="0.7879" style="stop-color:#9E9C9A"/>
		<stop  offset="1" style="stop-color:#6A6661"/>
	</linearGradient>
	<rect x="35" y="19.4" class="st39" width="0.5" height="0.5"/>
	<linearGradient id="SVGID_13_" gradientUnits="userSpaceOnUse" x1="36.3543" y1="19.8268" x2="36.3543" y2="19.3689">
		<stop  offset="1.818180e-02" style="stop-color:#706C67"/>
		<stop  offset="0.1576" style="stop-color:#BDBEBD"/>
		<stop  offset="0.4727" style="stop-color:#999897"/>
		<stop  offset="0.7879" style="stop-color:#9E9C9A"/>
		<stop  offset="1" style="stop-color:#6A6661"/>
	</linearGradient>
	<rect x="36.1" y="19.4" class="st40" width="0.5" height="0.5"/>
</g>
</svg>
