<?xml version="1.0" encoding="utf-8"?>
<!-- Generator: Adobe Illustrator 22.1.0, SVG Export Plug-In . SVG Version: 6.00 Build 0)  -->
<svg version="1.1" xmlns="http://www.w3.org/2000/svg" xmlns:xlink="http://www.w3.org/1999/xlink" x="0px" y="0px" width="74px"
	 height="48px" viewBox="0 0 74 48" style="enable-background:new 0 0 74 48;" xml:space="preserve">
<style type="text/css">
	.st0{fill:#FFFFFF;}
	.st1{fill:#595959;}
	.st2{fill:#404040;}
	.st3{fill:#333333;}
	.st4{fill:#C7000B;}
	.st5{fill:#262626;}
	.st6{fill:#1A1A1A;}
	.st7{fill:#0D0D0D;}
	.st8{fill:#CCCCCC;}
	.st9{fill:#4D4D4D;}
	.st10{fill:#B02A23;}
	.st11{clip-path:url(#SVGID_2_);fill:#BFBFBF;}
	.st12{clip-path:url(#SVGID_2_);fill:#1A1A1A;}
	.st13{clip-path:url(#SVGID_2_);fill:#808080;}
	.st14{clip-path:url(#SVGID_3_);fill:#BFBFBF;}
	.st15{clip-path:url(#SVGID_3_);fill:#1A1A1A;}
	.st16{clip-path:url(#SVGID_3_);fill:#808080;}
	.st17{fill:#40B15D;}
	.st18{fill:#32944D;}
	.st19{fill:#2B8846;}
	.st20{fill:#00340C;}
	.st21{fill:#66BA71;}
	.st22{fill:#B98800;}
	.st23{fill:#E8AB00;}
	.st24{fill:#DEDEDE;}
	.st25{fill:none;stroke:#000000;stroke-width:0.245;stroke-miterlimit:10;}
</style>
<g id="レイヤー_1">
</g>
<g id="レイヤー_3">
	<rect class="st0" width="74" height="48"/>
</g>
<g id="レイヤー_4">
	<g>
		<rect x="0.7" y="13.9" class="st1" width="72.7" height="19.8"/>
		<path class="st2" d="M7.5,25.2h65c0.1,0,0.2-0.1,0.2-0.2V14.7c0-0.1-0.1-0.2-0.2-0.2h-65c-0.1,0-0.2,0.1-0.2,0.2V25
			C7.3,25.1,7.4,25.2,7.5,25.2z"/>
		<g>
			<polygon class="st0" points="48.8,19.4 48.8,19.4 48.8,19.8 49.2,19.8 49.2,19.8 50.9,19.8 50.9,15 48.8,15 			"/>
			<rect x="51" y="15" class="st0" width="2.1" height="4.8"/>
			<rect x="53.2" y="15" class="st0" width="2.1" height="4.8"/>
			<path class="st0" d="M55.4,15v4.8h1.7c0.2,0,0.4-0.2,0.4-0.4l0-4.4H55.4z"/>
			<path class="st0" d="M39.9,15.4l0,4.1c0,0.1,0,0.2,0.1,0.3c0.1,0.1,0.2,0.1,0.3,0.1h1.9V15h-1.9C40.1,15,39.9,15.1,39.9,15.4z"/>
			<rect x="42.3" y="15" class="st0" width="2.1" height="4.8"/>
			<rect x="44.5" y="15" class="st0" width="2.1" height="4.8"/>
			<rect x="46.7" y="15" class="st0" width="2" height="4.8"/>
		</g>
		<path class="st3" d="M72.7,14.5h-0.2c0.1,0,0.2,0.1,0.2,0.2V25c0,0.1-0.1,0.2-0.2,0.2h-65c-0.1,0-0.2-0.1-0.2-0.2v0.2
			c0,0.1,0.1,0.2,0.2,0.2h65.2c0.1,0,0.2-0.1,0.2-0.2V14.7C72.8,14.6,72.8,14.5,72.7,14.5z"/>
		<rect x="9.9" y="19.9" class="st4" width="10.5" height="0.2"/>
		<g>
			<path class="st0" d="M25,22.7h-2.4c-0.1,0-0.3,0.1-0.3,0.3v0.6c0,0.1,0.1,0.3,0.3,0.3H25V22.7z"/>
			<path class="st0" d="M27.7,23.6V23c0-0.1-0.1-0.3-0.3-0.3h-2.4v1.1h2.7C27.7,23.8,27.7,23.7,27.7,23.6z"/>
			<path class="st0" d="M23.7,24.2L23.7,24.2L23.7,24.2l0,0.6c0,0.1,0.1,0.3,0.3,0.3h2.4v-1.1h-2.7C23.7,24,23.7,24.1,23.7,24.2z"/>
			<path class="st0" d="M28.8,23.9h-2.4V25h2.4c0.1,0,0.3-0.1,0.3-0.3v-0.6C29.1,24,29,23.9,28.8,23.9z"/>
			<path class="st0" d="M28.1,23.8h2.4v-1.1h-2.4c-0.1,0-0.3,0.1-0.3,0.3v0.6C27.9,23.7,28,23.8,28.1,23.8z"/>
			<path class="st0" d="M33.2,23.6V23c0-0.1-0.1-0.3-0.3-0.3h-2.4v1.1h2.7C33.3,23.8,33.2,23.7,33.2,23.6z"/>
			<path class="st0" d="M29.3,24.2L29.3,24.2L29.3,24.2l0,0.6c0,0.1,0.1,0.3,0.3,0.3h2.4v-1.1h-2.7C29.2,24,29.3,24.1,29.3,24.2z"/>
			<path class="st0" d="M34.4,23.9H32V25h2.4c0.1,0,0.3-0.1,0.3-0.3v-0.6C34.6,24,34.5,23.9,34.4,23.9z"/>
			<path class="st0" d="M33.7,23.8H36v-1.1h-2.4c-0.1,0-0.3,0.1-0.3,0.3v0.6C33.4,23.7,33.5,23.8,33.7,23.8z"/>
			<path class="st0" d="M38.8,23.6V23c0-0.1-0.1-0.3-0.3-0.3h-2.4v1.1h2.7C38.8,23.8,38.8,23.7,38.8,23.6z"/>
			<path class="st0" d="M34.8,24.2L34.8,24.2L34.8,24.2l0,0.6c0,0.1,0.1,0.3,0.3,0.3h2.4v-1.1h-2.7C34.8,24,34.8,24.1,34.8,24.2z"/>
			<path class="st0" d="M39.9,23.9h-2.4V25h2.4c0.1,0,0.3-0.1,0.3-0.3v-0.6C40.2,24,40,23.9,39.9,23.9z"/>
			<path class="st0" d="M39.2,23.8h2.4v-1.1h-2.4c-0.1,0-0.3,0.1-0.3,0.3v0.6C39,23.7,39.1,23.8,39.2,23.8z"/>
			<path class="st0" d="M44.3,23.6V23c0-0.1-0.1-0.3-0.3-0.3h-2.4v1.1h2.7C44.4,23.8,44.3,23.7,44.3,23.6z"/>
			<path class="st0" d="M40.3,24.2L40.3,24.2L40.3,24.2l0,0.6c0,0.1,0.1,0.3,0.3,0.3H43v-1.1h-2.7C40.3,24,40.3,24.1,40.3,24.2z"/>
			<path class="st0" d="M45.4,23.9h-2.4V25h2.4c0.1,0,0.3-0.1,0.3-0.3v-0.6C45.7,24,45.6,23.9,45.4,23.9z"/>
		</g>
		<path class="st5" d="M38.3,19.5c0,0.2-0.2,0.4-0.4,0.4H21.8c-0.2,0-0.4-0.2-0.4-0.4v-3.1c0-0.2,0.2-0.4,0.4-0.4H38
			c0.2,0,0.4,0.2,0.4,0.4V19.5z"/>
		<path class="st6" d="M38.3,18.9c0,0.2-0.2,0.4-0.4,0.4H21.8c-0.2,0-0.4-0.2-0.4-0.4v-2.5c0-0.2,0.2-0.4,0.4-0.4H38
			c0.2,0,0.4,0.2,0.4,0.4V18.9z"/>
		<path class="st7" d="M38,18.6c0,0.2-0.1,0.3-0.3,0.3H22.2c-0.2,0-0.3-0.1-0.3-0.3v-1.8c0-0.2,0.1-0.3,0.3-0.3h15.5
			c0.2,0,0.3,0.1,0.3,0.3V18.6z"/>
		<rect x="28.3" y="16.7" class="st7" width="9.6" height="1.8"/>
		<rect x="27.9" y="16.4" class="st5" width="0.5" height="2.5"/>
		<rect x="28.8" y="17" width="0.5" height="1.3"/>
		<rect x="28.8" y="17.4" class="st5" width="0.5" height="0.7"/>
		<rect x="28.8" y="17.7" class="st2" width="0.5" height="0.4"/>
		<rect x="29.7" y="17" width="0.5" height="1.3"/>
		<rect x="29.7" y="17.4" class="st5" width="0.5" height="0.7"/>
		<rect x="29.7" y="17.7" class="st2" width="0.5" height="0.4"/>
		<rect x="30.6" y="17" width="0.5" height="1.3"/>
		<rect x="30.6" y="17.4" class="st5" width="0.5" height="0.7"/>
		<rect x="30.6" y="17.7" class="st2" width="0.5" height="0.4"/>
		<rect x="31.6" y="17" width="0.5" height="1.3"/>
		<rect x="31.6" y="17.4" class="st5" width="0.5" height="0.7"/>
		<rect x="31.6" y="17.7" class="st2" width="0.5" height="0.4"/>
		<rect x="32.5" y="17" width="0.5" height="1.3"/>
		<rect x="32.5" y="17.4" class="st5" width="0.5" height="0.7"/>
		<rect x="32.5" y="17.7" class="st2" width="0.5" height="0.4"/>
		<rect x="33.4" y="17" width="0.5" height="1.3"/>
		<rect x="33.4" y="17.4" class="st5" width="0.5" height="0.7"/>
		<rect x="33.4" y="17.7" class="st2" width="0.5" height="0.4"/>
		<rect x="34.3" y="17" width="0.5" height="1.3"/>
		<rect x="34.3" y="17.4" class="st5" width="0.5" height="0.7"/>
		<rect x="34.3" y="17.7" class="st2" width="0.5" height="0.4"/>
		<rect x="35.2" y="17" width="0.5" height="1.3"/>
		<rect x="35.2" y="17.4" class="st5" width="0.5" height="0.7"/>
		<rect x="35.2" y="17.7" class="st2" width="0.5" height="0.4"/>
		<rect x="36.2" y="17" width="0.5" height="1.3"/>
		<rect x="36.2" y="17.4" class="st5" width="0.5" height="0.7"/>
		<rect x="36.2" y="17.7" class="st2" width="0.5" height="0.4"/>
		<rect x="37.1" y="17" width="0.5" height="1.3"/>
		<rect x="37.1" y="17.4" class="st5" width="0.5" height="0.7"/>
		<rect x="37.1" y="17.7" class="st2" width="0.5" height="0.4"/>
		<path class="st2" d="M25.2,16.5h1.6c0.4,0,0.7,0.3,0.7,0.7v1c0,0.4-0.3,0.7-0.7,0.7h-1.6l0,0l0,0v0v-0.2c0,0,0-0.1-0.1-0.1
			c0,0,0,0,0,0h0v-1.8h0c0,0,0,0,0,0c0,0,0,0,0-0.1L25.2,16.5L25.2,16.5L25.2,16.5L25.2,16.5z"/>
		<path class="st2" d="M23,16.5h1.6l0.1,0.1v0v0.2c0,0,0,0.1,0,0.1c0,0,0,0,0,0h0v1.8h0c0,0,0,0,0,0c0,0-0.1,0-0.1,0.1v0.2v0l0,0
			l0,0H23c-0.4,0-0.7-0.3-0.7-0.7v-1C22.2,16.8,22.6,16.5,23,16.5z"/>
		<circle class="st6" cx="23.4" cy="17.7" r="0.6"/>
		<path class="st2" d="M24.1,17.7c0,0.3-0.3,0.6-0.6,0.6c-0.3,0-0.6-0.3-0.6-0.6c0-0.3,0.3-0.6,0.6-0.6
			C23.8,17.1,24.1,17.4,24.1,17.7z"/>
		<polygon class="st6" points="23.6,17.4 23.4,17.2 23.3,17.4 23.2,17.5 23.3,17.5 23.3,18.2 23.6,18.2 23.6,17.5 23.7,17.5 		"/>
		<circle class="st6" cx="26.2" cy="17.7" r="0.6"/>
		<path class="st2" d="M26.9,17.7c0,0.3-0.3,0.6-0.6,0.6s-0.6-0.3-0.6-0.6c0-0.3,0.3-0.6,0.6-0.6S26.9,17.4,26.9,17.7z"/>
		<polygon class="st6" points="26.4,17.4 26.2,17.2 26.1,17.4 26,17.5 26.1,17.5 26.1,18.2 26.4,18.2 26.4,17.5 26.5,17.5 		"/>
		<path class="st3" d="M11.5,28.9H0.7v0.4h10.4c0.2,0,0.3,0.2,0.3,0.3v4.2h0.4v-4.5C11.8,29,11.7,28.9,11.5,28.9z"/>
		<path class="st1" d="M11.5,33.7v-4.2c0-0.2-0.2-0.3-0.3-0.3H0.7v4.5H11.5z"/>
		<g>
			<path class="st7" d="M72.7,27V26H20.3v7.8h52.3v-5C73,28.2,73,27.5,72.7,27z"/>
		</g>
		<path class="st6" d="M72.3,27v-0.8H20.7v6.4h51.5v-3.8C72.6,28.2,72.6,27.5,72.3,27z"/>
		<g>
			<path class="st8" d="M20.9,30.8c0-0.6,0.5-1.1,1.1-1.1c0.6,0,1.1,0.5,1.1,1.1s-0.5,1.1-1.1,1.1C21.4,31.9,20.9,31.4,20.9,30.8z"
				/>
			<path class="st8" d="M21.5,30.8c0-0.3,0.2-0.5,0.5-0.5s0.5,0.2,0.5,0.5c0,0.3-0.2,0.5-0.5,0.5S21.5,31.1,21.5,30.8z"/>
			<path class="st9" d="M21.8,30.3v0.3c0,0.1,0,0.1-0.1,0.1h-0.8V31h0.8c0.1,0,0.1,0,0.1,0.1v0.3h0.3v-0.3c0-0.1,0-0.1,0.1-0.1
				l0.8,0v-0.3l-0.8,0c-0.1,0-0.1,0-0.1-0.1v-0.3H21.8z"/>
		</g>
		<g>
			<path class="st8" d="M69.8,27.9c0-0.6,0.5-1.1,1.1-1.1c0.6,0,1.1,0.5,1.1,1.1c0,0.6-0.5,1.1-1.1,1.1
				C70.3,28.9,69.8,28.5,69.8,27.9z"/>
			<path class="st8" d="M70.4,27.9c0-0.3,0.2-0.5,0.5-0.5s0.5,0.2,0.5,0.5s-0.2,0.5-0.5,0.5S70.4,28.2,70.4,27.9z"/>
			<path class="st9" d="M70.7,27.4v0.3c0,0.1,0,0.1-0.1,0.1h-0.8V28h0.8c0.1,0,0.1,0,0.1,0.1v0.3H71v-0.3c0-0.1,0-0.1,0.1-0.1l0.8,0
				v-0.3l-0.8,0c-0.1,0-0.1,0-0.1-0.1v-0.3H70.7z"/>
		</g>
		<g>
			<path class="st8" d="M24,30.8c0-0.5,0.4-1,1-1c0.5,0,1,0.4,1,1c0,0.5-0.4,1-1,1C24.5,31.8,24,31.3,24,30.8z"/>
			<path class="st8" d="M24.4,30.8c0-0.3,0.3-0.6,0.6-0.6c0.3,0,0.6,0.3,0.6,0.6c0,0.3-0.3,0.6-0.6,0.6
				C24.7,31.4,24.4,31.1,24.4,30.8z"/>
			<path class="st9" d="M24.9,30.3v0.3c0,0.1,0,0.1-0.1,0.1h-0.7V31h0.7c0.1,0,0.1,0,0.1,0.1v0.3h0.3v-0.3c0-0.1,0-0.1,0.1-0.1H26
				v-0.3h-0.7c-0.1,0-0.1,0-0.1-0.1v-0.3H24.9z"/>
		</g>
		<g>
			<path class="st8" d="M26.8,30.8c0-0.5,0.4-1,1-1c0.5,0,1,0.4,1,1c0,0.5-0.4,1-1,1C27.3,31.8,26.8,31.3,26.8,30.8z"/>
			<path class="st8" d="M27.2,30.8c0-0.3,0.3-0.6,0.6-0.6c0.3,0,0.6,0.3,0.6,0.6c0,0.3-0.3,0.6-0.6,0.6
				C27.5,31.4,27.2,31.1,27.2,30.8z"/>
			<path class="st9" d="M27.6,30.3v0.3c0,0.1,0,0.1-0.1,0.1h-0.7V31h0.7c0.1,0,0.1,0,0.1,0.1v0.3H28v-0.3c0-0.1,0-0.1,0.1-0.1h0.7
				v-0.3h-0.7c-0.1,0-0.1,0-0.1-0.1v-0.3H27.6z"/>
		</g>
		<g>
			<path class="st8" d="M29.6,30.8c0-0.5,0.4-1,1-1c0.5,0,1,0.4,1,1c0,0.5-0.4,1-1,1C30,31.8,29.6,31.3,29.6,30.8z"/>
			<path class="st8" d="M29.9,30.8c0-0.3,0.3-0.6,0.6-0.6c0.3,0,0.6,0.3,0.6,0.6c0,0.3-0.3,0.6-0.6,0.6
				C30.2,31.4,29.9,31.1,29.9,30.8z"/>
			<path class="st9" d="M30.4,30.3v0.3c0,0.1,0,0.1-0.1,0.1h-0.7V31h0.7c0.1,0,0.1,0,0.1,0.1v0.3h0.3v-0.3c0-0.1,0-0.1,0.1-0.1h0.7
				v-0.3h-0.7c-0.1,0-0.1,0-0.1-0.1v-0.3H30.4z"/>
		</g>
		<g>
			<path class="st8" d="M32.4,30.8c0-0.5,0.4-1,1-1c0.5,0,1,0.4,1,1c0,0.5-0.4,1-1,1C32.8,31.8,32.4,31.3,32.4,30.8z"/>
			<path class="st8" d="M32.7,30.8c0-0.3,0.3-0.6,0.6-0.6c0.3,0,0.6,0.3,0.6,0.6c0,0.3-0.3,0.6-0.6,0.6C33,31.4,32.7,31.1,32.7,30.8
				z"/>
			<path class="st9" d="M33.2,30.3v0.3c0,0.1,0,0.1-0.1,0.1h-0.7V31h0.7c0.1,0,0.1,0,0.1,0.1v0.3h0.3v-0.3c0-0.1,0-0.1,0.1-0.1h0.7
				v-0.3h-0.7c-0.1,0-0.1,0-0.1-0.1v-0.3H33.2z"/>
		</g>
		<g>
			<path class="st8" d="M35.1,30.8c0-0.5,0.4-1,1-1c0.5,0,1,0.4,1,1c0,0.5-0.4,1-1,1C35.6,31.8,35.1,31.3,35.1,30.8z"/>
			<path class="st8" d="M35.5,30.8c0-0.3,0.3-0.6,0.6-0.6c0.3,0,0.6,0.3,0.6,0.6c0,0.3-0.3,0.6-0.6,0.6
				C35.8,31.4,35.5,31.1,35.5,30.8z"/>
			<path class="st9" d="M35.9,30.3v0.3c0,0.1,0,0.1-0.1,0.1h-0.7V31h0.7c0.1,0,0.1,0,0.1,0.1v0.3h0.3v-0.3c0-0.1,0-0.1,0.1-0.1h0.7
				v-0.3h-0.7c-0.1,0-0.1,0-0.1-0.1v-0.3H35.9z"/>
		</g>
		<g>
			<path class="st8" d="M37.9,30.8c0-0.5,0.4-1,1-1c0.5,0,1,0.4,1,1c0,0.5-0.4,1-1,1C38.3,31.8,37.9,31.3,37.9,30.8z"/>
			<path class="st8" d="M38.3,30.8c0-0.3,0.3-0.6,0.6-0.6c0.3,0,0.6,0.3,0.6,0.6c0,0.3-0.3,0.6-0.6,0.6
				C38.5,31.4,38.3,31.1,38.3,30.8z"/>
			<path class="st9" d="M38.7,30.3v0.3c0,0.1,0,0.1-0.1,0.1h-0.7V31h0.7c0.1,0,0.1,0,0.1,0.1v0.3H39v-0.3c0-0.1,0-0.1,0.1-0.1h0.7
				v-0.3h-0.7c-0.1,0-0.1,0-0.1-0.1v-0.3H38.7z"/>
		</g>
		<g>
			<path class="st8" d="M40.7,30.8c0-0.5,0.4-1,1-1c0.5,0,1,0.4,1,1c0,0.5-0.4,1-1,1C41.1,31.8,40.7,31.3,40.7,30.8z"/>
			<path class="st8" d="M41,30.8c0-0.3,0.3-0.6,0.6-0.6c0.3,0,0.6,0.3,0.6,0.6c0,0.3-0.3,0.6-0.6,0.6C41.3,31.4,41,31.1,41,30.8z"/>
			<path class="st9" d="M41.5,30.3v0.3c0,0.1,0,0.1-0.1,0.1h-0.7V31h0.7c0.1,0,0.1,0,0.1,0.1v0.3h0.3v-0.3c0-0.1,0-0.1,0.1-0.1h0.7
				v-0.3h-0.7c-0.1,0-0.1,0-0.1-0.1v-0.3H41.5z"/>
		</g>
		<g>
			<path class="st8" d="M43.4,30.8c0-0.5,0.4-1,1-1c0.5,0,1,0.4,1,1c0,0.5-0.4,1-1,1C43.9,31.8,43.4,31.3,43.4,30.8z"/>
			<path class="st8" d="M43.8,30.8c0-0.3,0.3-0.6,0.6-0.6c0.3,0,0.6,0.3,0.6,0.6c0,0.3-0.3,0.6-0.6,0.6
				C44.1,31.4,43.8,31.1,43.8,30.8z"/>
			<path class="st9" d="M44.2,30.3v0.3c0,0.1,0,0.1-0.1,0.1h-0.7V31h0.7c0.1,0,0.1,0,0.1,0.1v0.3h0.3v-0.3c0-0.1,0-0.1,0.1-0.1h0.7
				v-0.3h-0.7c-0.1,0-0.1,0-0.1-0.1v-0.3H44.2z"/>
		</g>
		<g>
			<path class="st8" d="M46.2,30.8c0-0.5,0.4-1,1-1c0.5,0,1,0.4,1,1c0,0.5-0.4,1-1,1C46.6,31.8,46.2,31.3,46.2,30.8z"/>
			<path class="st8" d="M46.6,30.8c0-0.3,0.3-0.6,0.6-0.6c0.3,0,0.6,0.3,0.6,0.6c0,0.3-0.3,0.6-0.6,0.6
				C46.8,31.4,46.6,31.1,46.6,30.8z"/>
			<path class="st9" d="M47,30.3v0.3c0,0.1,0,0.1-0.1,0.1h-0.7V31h0.7c0.1,0,0.1,0,0.1,0.1v0.3h0.3v-0.3c0-0.1,0-0.1,0.1-0.1h0.7
				v-0.3h-0.7c-0.1,0-0.1,0-0.1-0.1v-0.3H47z"/>
		</g>
		<g>
			<path class="st8" d="M49,30.8c0-0.5,0.4-1,1-1c0.5,0,1,0.4,1,1c0,0.5-0.4,1-1,1C49.4,31.8,49,31.3,49,30.8z"/>
			<path class="st8" d="M49.3,30.8c0-0.3,0.3-0.6,0.6-0.6c0.3,0,0.6,0.3,0.6,0.6c0,0.3-0.3,0.6-0.6,0.6
				C49.6,31.4,49.3,31.1,49.3,30.8z"/>
			<path class="st9" d="M49.8,30.3v0.3c0,0.1,0,0.1-0.1,0.1H49V31h0.7c0.1,0,0.1,0,0.1,0.1v0.3h0.3v-0.3c0-0.1,0-0.1,0.1-0.1h0.7
				v-0.3h-0.7c-0.1,0-0.1,0-0.1-0.1v-0.3H49.8z"/>
		</g>
		<g>
			<path class="st8" d="M51.7,30.8c0-0.5,0.4-1,1-1c0.5,0,1,0.4,1,1c0,0.5-0.4,1-1,1C52.2,31.8,51.7,31.3,51.7,30.8z"/>
			<path class="st8" d="M52.1,30.8c0-0.3,0.3-0.6,0.6-0.6c0.3,0,0.6,0.3,0.6,0.6c0,0.3-0.3,0.6-0.6,0.6
				C52.4,31.4,52.1,31.1,52.1,30.8z"/>
			<path class="st9" d="M52.6,30.3v0.3c0,0.1,0,0.1-0.1,0.1h-0.7V31h0.7c0.1,0,0.1,0,0.1,0.1v0.3h0.3v-0.3c0-0.1,0-0.1,0.1-0.1h0.7
				v-0.3H53c-0.1,0-0.1,0-0.1-0.1v-0.3H52.6z"/>
		</g>
		<g>
			<path class="st8" d="M54.5,30.8c0-0.5,0.4-1,1-1c0.5,0,1,0.4,1,1c0,0.5-0.4,1-1,1C54.9,31.8,54.5,31.3,54.5,30.8z"/>
			<path class="st8" d="M54.9,30.8c0-0.3,0.3-0.6,0.6-0.6c0.3,0,0.6,0.3,0.6,0.6c0,0.3-0.3,0.6-0.6,0.6
				C55.1,31.4,54.9,31.1,54.9,30.8z"/>
			<path class="st9" d="M55.3,30.3v0.3c0,0.1,0,0.1-0.1,0.1h-0.7V31h0.7c0.1,0,0.1,0,0.1,0.1v0.3h0.3v-0.3c0-0.1,0-0.1,0.1-0.1h0.7
				v-0.3h-0.7c-0.1,0-0.1,0-0.1-0.1v-0.3H55.3z"/>
		</g>
		<g>
			<path class="st8" d="M57.3,30.8c0-0.5,0.4-1,1-1c0.5,0,1,0.4,1,1c0,0.5-0.4,1-1,1C57.7,31.8,57.3,31.3,57.3,30.8z"/>
			<path class="st8" d="M57.6,30.8c0-0.3,0.3-0.6,0.6-0.6c0.3,0,0.6,0.3,0.6,0.6c0,0.3-0.3,0.6-0.6,0.6
				C57.9,31.4,57.6,31.1,57.6,30.8z"/>
			<path class="st9" d="M58.1,30.3v0.3c0,0.1,0,0.1-0.1,0.1h-0.7V31H58c0.1,0,0.1,0,0.1,0.1v0.3h0.3v-0.3c0-0.1,0-0.1,0.1-0.1h0.7
				v-0.3h-0.7c-0.1,0-0.1,0-0.1-0.1v-0.3H58.1z"/>
		</g>
		<g>
			<path class="st8" d="M60,30.8c0-0.5,0.4-1,1-1c0.5,0,1,0.4,1,1c0,0.5-0.4,1-1,1C60.5,31.8,60,31.3,60,30.8z"/>
			<path class="st8" d="M60.4,30.8c0-0.3,0.3-0.6,0.6-0.6c0.3,0,0.6,0.3,0.6,0.6c0,0.3-0.3,0.6-0.6,0.6
				C60.7,31.4,60.4,31.1,60.4,30.8z"/>
			<path class="st9" d="M60.9,30.3v0.3c0,0.1,0,0.1-0.1,0.1h-0.7V31h0.7c0.1,0,0.1,0,0.1,0.1v0.3h0.3v-0.3c0-0.1,0-0.1,0.1-0.1H62
				v-0.3h-0.7c-0.1,0-0.1,0-0.1-0.1v-0.3H60.9z"/>
		</g>
		<g>
			<path class="st8" d="M62.8,30.8c0-0.5,0.4-1,1-1c0.5,0,1,0.4,1,1c0,0.5-0.4,1-1,1C63.3,31.8,62.8,31.3,62.8,30.8z"/>
			<path class="st8" d="M63.2,30.8c0-0.3,0.3-0.6,0.6-0.6c0.3,0,0.6,0.3,0.6,0.6c0,0.3-0.3,0.6-0.6,0.6
				C63.5,31.4,63.2,31.1,63.2,30.8z"/>
			<path class="st9" d="M63.6,30.3v0.3c0,0.1,0,0.1-0.1,0.1h-0.7V31h0.7c0.1,0,0.1,0,0.1,0.1v0.3H64v-0.3c0-0.1,0-0.1,0.1-0.1h0.7
				v-0.3h-0.7c-0.1,0-0.1,0-0.1-0.1v-0.3H63.6z"/>
		</g>
		<g>
			<path class="st8" d="M65.6,30.8c0-0.5,0.4-1,1-1c0.5,0,1,0.4,1,1c0,0.5-0.4,1-1,1C66,31.8,65.6,31.3,65.6,30.8z"/>
			<path class="st8" d="M65.9,30.8c0-0.3,0.3-0.6,0.6-0.6c0.3,0,0.6,0.3,0.6,0.6c0,0.3-0.3,0.6-0.6,0.6
				C66.2,31.4,65.9,31.1,65.9,30.8z"/>
			<path class="st9" d="M66.4,30.3v0.3c0,0.1,0,0.1-0.1,0.1h-0.7V31h0.7c0.1,0,0.1,0,0.1,0.1v0.3h0.3v-0.3c0-0.1,0-0.1,0.1-0.1h0.7
				v-0.3h-0.7c-0.1,0-0.1,0-0.1-0.1v-0.3H66.4z"/>
		</g>
		<g>
			<path class="st8" d="M68.3,30.8c0-0.5,0.4-1,1-1c0.5,0,1,0.4,1,1c0,0.5-0.4,1-1,1C68.8,31.8,68.3,31.3,68.3,30.8z"/>
			<path class="st8" d="M68.7,30.8c0-0.3,0.3-0.6,0.6-0.6c0.3,0,0.6,0.3,0.6,0.6c0,0.3-0.3,0.6-0.6,0.6C69,31.4,68.7,31.1,68.7,30.8
				z"/>
			<path class="st9" d="M69.2,30.3v0.3c0,0.1,0,0.1-0.1,0.1h-0.7V31h0.7c0.1,0,0.1,0,0.1,0.1v0.3h0.3v-0.3c0-0.1,0-0.1,0.1-0.1h0.7
				v-0.3h-0.7c-0.1,0-0.1,0-0.1-0.1v-0.3H69.2z"/>
		</g>
		<g>
			<path class="st8" d="M67,28c0-0.5,0.4-1,1-1c0.5,0,1,0.4,1,1s-0.4,1-1,1C67.4,28.9,67,28.5,67,28z"/>
			<path class="st8" d="M67.3,28c0-0.3,0.3-0.6,0.6-0.6c0.3,0,0.6,0.3,0.6,0.6s-0.3,0.6-0.6,0.6C67.6,28.6,67.3,28.3,67.3,28z"/>
			<path class="st9" d="M67.8,27.4v0.3c0,0.1,0,0.1-0.1,0.1H67v0.3h0.7c0.1,0,0.1,0,0.1,0.1v0.3h0.3v-0.3c0-0.1,0-0.1,0.1-0.1h0.7
				v-0.3h-0.7c-0.1,0-0.1,0-0.1-0.1v-0.3H67.8z"/>
		</g>
		<g>
			<path class="st8" d="M64.2,28c0-0.5,0.4-1,1-1c0.5,0,1,0.4,1,1s-0.4,1-1,1C64.6,28.9,64.2,28.5,64.2,28z"/>
			<path class="st8" d="M64.6,28c0-0.3,0.3-0.6,0.6-0.6c0.3,0,0.6,0.3,0.6,0.6s-0.3,0.6-0.6,0.6C64.8,28.6,64.6,28.3,64.6,28z"/>
			<path class="st9" d="M65,27.4v0.3c0,0.1,0,0.1-0.1,0.1h-0.7v0.3h0.7c0.1,0,0.1,0,0.1,0.1v0.3h0.3v-0.3c0-0.1,0-0.1,0.1-0.1h0.7
				v-0.3h-0.7c-0.1,0-0.1,0-0.1-0.1v-0.3H65z"/>
		</g>
		<g>
			<path class="st8" d="M61.4,28c0-0.5,0.4-1,1-1c0.5,0,1,0.4,1,1s-0.4,1-1,1C61.9,28.9,61.4,28.5,61.4,28z"/>
			<path class="st8" d="M61.8,28c0-0.3,0.3-0.6,0.6-0.6c0.3,0,0.6,0.3,0.6,0.6s-0.3,0.6-0.6,0.6C62.1,28.6,61.8,28.3,61.8,28z"/>
			<path class="st9" d="M62.2,27.4v0.3c0,0.1,0,0.1-0.1,0.1h-0.7v0.3h0.7c0.1,0,0.1,0,0.1,0.1v0.3h0.3v-0.3c0-0.1,0-0.1,0.1-0.1h0.7
				v-0.3h-0.7c-0.1,0-0.1,0-0.1-0.1v-0.3H62.2z"/>
		</g>
		<g>
			<path class="st8" d="M58.7,28c0-0.5,0.4-1,1-1c0.5,0,1,0.4,1,1s-0.4,1-1,1C59.1,28.9,58.7,28.5,58.7,28z"/>
			<path class="st8" d="M59,28c0-0.3,0.3-0.6,0.6-0.6c0.3,0,0.6,0.3,0.6,0.6s-0.3,0.6-0.6,0.6C59.3,28.6,59,28.3,59,28z"/>
			<path class="st9" d="M59.5,27.4v0.3c0,0.1,0,0.1-0.1,0.1h-0.7v0.3h0.7c0.1,0,0.1,0,0.1,0.1v0.3h0.3v-0.3c0-0.1,0-0.1,0.1-0.1h0.7
				v-0.3h-0.7c-0.1,0-0.1,0-0.1-0.1v-0.3H59.5z"/>
		</g>
		<g>
			<path class="st8" d="M55.9,28c0-0.5,0.4-1,1-1c0.5,0,1,0.4,1,1s-0.4,1-1,1C56.3,28.9,55.9,28.5,55.9,28z"/>
			<path class="st8" d="M56.3,28c0-0.3,0.3-0.6,0.6-0.6c0.3,0,0.6,0.3,0.6,0.6s-0.3,0.6-0.6,0.6C56.5,28.6,56.3,28.3,56.3,28z"/>
			<path class="st9" d="M56.7,27.4v0.3c0,0.1,0,0.1-0.1,0.1h-0.7v0.3h0.7c0.1,0,0.1,0,0.1,0.1v0.3H57v-0.3c0-0.1,0-0.1,0.1-0.1h0.7
				v-0.3h-0.7c-0.1,0-0.1,0-0.1-0.1v-0.3H56.7z"/>
		</g>
		<g>
			<path class="st8" d="M53.1,28c0-0.5,0.4-1,1-1c0.5,0,1,0.4,1,1s-0.4,1-1,1C53.6,28.9,53.1,28.5,53.1,28z"/>
			<path class="st8" d="M53.5,28c0-0.3,0.3-0.6,0.6-0.6c0.3,0,0.6,0.3,0.6,0.6s-0.3,0.6-0.6,0.6C53.8,28.6,53.5,28.3,53.5,28z"/>
			<path class="st9" d="M53.9,27.4v0.3c0,0.1,0,0.1-0.1,0.1h-0.7v0.3h0.7c0.1,0,0.1,0,0.1,0.1v0.3h0.3v-0.3c0-0.1,0-0.1,0.1-0.1h0.7
				v-0.3h-0.7c-0.1,0-0.1,0-0.1-0.1v-0.3H53.9z"/>
		</g>
		<g>
			<path class="st8" d="M50.4,28c0-0.5,0.4-1,1-1c0.5,0,1,0.4,1,1s-0.4,1-1,1C50.8,28.9,50.4,28.5,50.4,28z"/>
			<path class="st8" d="M50.7,28c0-0.3,0.3-0.6,0.6-0.6c0.3,0,0.6,0.3,0.6,0.6s-0.3,0.6-0.6,0.6C51,28.6,50.7,28.3,50.7,28z"/>
			<path class="st9" d="M51.2,27.4v0.3c0,0.1,0,0.1-0.1,0.1h-0.7v0.3h0.7c0.1,0,0.1,0,0.1,0.1v0.3h0.3v-0.3c0-0.1,0-0.1,0.1-0.1h0.7
				v-0.3h-0.7c-0.1,0-0.1,0-0.1-0.1v-0.3H51.2z"/>
		</g>
		<g>
			<path class="st8" d="M47.6,28c0-0.5,0.4-1,1-1c0.5,0,1,0.4,1,1s-0.4,1-1,1C48,28.9,47.6,28.5,47.6,28z"/>
			<path class="st8" d="M47.9,28c0-0.3,0.3-0.6,0.6-0.6c0.3,0,0.6,0.3,0.6,0.6s-0.3,0.6-0.6,0.6C48.2,28.6,47.9,28.3,47.9,28z"/>
			<path class="st9" d="M48.4,27.4v0.3c0,0.1,0,0.1-0.1,0.1h-0.7v0.3h0.7c0.1,0,0.1,0,0.1,0.1v0.3h0.3v-0.3c0-0.1,0-0.1,0.1-0.1h0.7
				v-0.3h-0.7c-0.1,0-0.1,0-0.1-0.1v-0.3H48.4z"/>
		</g>
		<g>
			<path class="st8" d="M44.8,28c0-0.5,0.4-1,1-1c0.5,0,1,0.4,1,1s-0.4,1-1,1C45.3,28.9,44.8,28.5,44.8,28z"/>
			<path class="st8" d="M45.2,28c0-0.3,0.3-0.6,0.6-0.6c0.3,0,0.6,0.3,0.6,0.6s-0.3,0.6-0.6,0.6C45.5,28.6,45.2,28.3,45.2,28z"/>
			<path class="st9" d="M45.6,27.4v0.3c0,0.1,0,0.1-0.1,0.1h-0.7v0.3h0.7c0.1,0,0.1,0,0.1,0.1v0.3H46v-0.3c0-0.1,0-0.1,0.1-0.1h0.7
				v-0.3h-0.7c-0.1,0-0.1,0-0.1-0.1v-0.3H45.6z"/>
		</g>
		<g>
			<path class="st8" d="M42,28c0-0.5,0.4-1,1-1c0.5,0,1,0.4,1,1s-0.4,1-1,1C42.5,28.9,42,28.5,42,28z"/>
			<path class="st8" d="M42.4,28c0-0.3,0.3-0.6,0.6-0.6c0.3,0,0.6,0.3,0.6,0.6s-0.3,0.6-0.6,0.6C42.7,28.6,42.4,28.3,42.4,28z"/>
			<path class="st9" d="M42.9,27.4v0.3c0,0.1,0,0.1-0.1,0.1h-0.7v0.3h0.7c0.1,0,0.1,0,0.1,0.1v0.3h0.3v-0.3c0-0.1,0-0.1,0.1-0.1H44
				v-0.3h-0.7c-0.1,0-0.1,0-0.1-0.1v-0.3H42.9z"/>
		</g>
		<g>
			<path class="st8" d="M39.3,28c0-0.5,0.4-1,1-1c0.5,0,1,0.4,1,1s-0.4,1-1,1C39.7,28.9,39.3,28.5,39.3,28z"/>
			<path class="st8" d="M39.6,28c0-0.3,0.3-0.6,0.6-0.6c0.3,0,0.6,0.3,0.6,0.6s-0.3,0.6-0.6,0.6C39.9,28.6,39.6,28.3,39.6,28z"/>
			<path class="st9" d="M40.1,27.4v0.3c0,0.1,0,0.1-0.1,0.1h-0.7v0.3H40c0.1,0,0.1,0,0.1,0.1v0.3h0.3v-0.3c0-0.1,0-0.1,0.1-0.1h0.7
				v-0.3h-0.7c-0.1,0-0.1,0-0.1-0.1v-0.3H40.1z"/>
		</g>
		<g>
			<path class="st8" d="M36.5,28c0-0.5,0.4-1,1-1c0.5,0,1,0.4,1,1s-0.4,1-1,1C36.9,28.9,36.5,28.5,36.5,28z"/>
			<path class="st8" d="M36.9,28c0-0.3,0.3-0.6,0.6-0.6c0.3,0,0.6,0.3,0.6,0.6s-0.3,0.6-0.6,0.6C37.1,28.6,36.9,28.3,36.9,28z"/>
			<path class="st9" d="M37.3,27.4v0.3c0,0.1,0,0.1-0.1,0.1h-0.7v0.3h0.7c0.1,0,0.1,0,0.1,0.1v0.3h0.3v-0.3c0-0.1,0-0.1,0.1-0.1h0.7
				v-0.3h-0.7c-0.1,0-0.1,0-0.1-0.1v-0.3H37.3z"/>
		</g>
		<g>
			<path class="st8" d="M33.7,28c0-0.5,0.4-1,1-1c0.5,0,1,0.4,1,1s-0.4,1-1,1C34.2,28.9,33.7,28.5,33.7,28z"/>
			<path class="st8" d="M34.1,28c0-0.3,0.3-0.6,0.6-0.6c0.3,0,0.6,0.3,0.6,0.6s-0.3,0.6-0.6,0.6C34.4,28.6,34.1,28.3,34.1,28z"/>
			<path class="st9" d="M34.6,27.4v0.3c0,0.1,0,0.1-0.1,0.1h-0.7v0.3h0.7c0.1,0,0.1,0,0.1,0.1v0.3h0.3v-0.3c0-0.1,0-0.1,0.1-0.1h0.7
				v-0.3H35c-0.1,0-0.1,0-0.1-0.1v-0.3H34.6z"/>
		</g>
		<g>
			<path class="st8" d="M31,28c0-0.5,0.4-1,1-1c0.5,0,1,0.4,1,1s-0.4,1-1,1C31.4,28.9,31,28.5,31,28z"/>
			<path class="st8" d="M31.3,28c0-0.3,0.3-0.6,0.6-0.6c0.3,0,0.6,0.3,0.6,0.6s-0.3,0.6-0.6,0.6C31.6,28.6,31.3,28.3,31.3,28z"/>
			<path class="st9" d="M31.8,27.4v0.3c0,0.1,0,0.1-0.1,0.1H31v0.3h0.7c0.1,0,0.1,0,0.1,0.1v0.3h0.3v-0.3c0-0.1,0-0.1,0.1-0.1h0.7
				v-0.3h-0.7c-0.1,0-0.1,0-0.1-0.1v-0.3H31.8z"/>
		</g>
		<g>
			<path class="st8" d="M28.2,28c0-0.5,0.4-1,1-1c0.5,0,1,0.4,1,1s-0.4,1-1,1C28.6,28.9,28.2,28.5,28.2,28z"/>
			<path class="st8" d="M28.6,28c0-0.3,0.3-0.6,0.6-0.6c0.3,0,0.6,0.3,0.6,0.6s-0.3,0.6-0.6,0.6C28.8,28.6,28.6,28.3,28.6,28z"/>
			<path class="st9" d="M29,27.4v0.3c0,0.1,0,0.1-0.1,0.1h-0.7v0.3h0.7c0.1,0,0.1,0,0.1,0.1v0.3h0.3v-0.3c0-0.1,0-0.1,0.1-0.1h0.7
				v-0.3h-0.7c-0.1,0-0.1,0-0.1-0.1v-0.3H29z"/>
		</g>
		<g>
			<path class="st8" d="M25.4,28c0-0.5,0.4-1,1-1c0.5,0,1,0.4,1,1s-0.4,1-1,1C25.9,28.9,25.4,28.5,25.4,28z"/>
			<path class="st8" d="M25.8,28c0-0.3,0.3-0.6,0.6-0.6c0.3,0,0.6,0.3,0.6,0.6s-0.3,0.6-0.6,0.6C26.1,28.6,25.8,28.3,25.8,28z"/>
			<path class="st9" d="M26.2,27.4v0.3c0,0.1,0,0.1-0.1,0.1h-0.7v0.3h0.7c0.1,0,0.1,0,0.1,0.1v0.3h0.3v-0.3c0-0.1,0-0.1,0.1-0.1h0.7
				v-0.3h-0.7c-0.1,0-0.1,0-0.1-0.1v-0.3H26.2z"/>
		</g>
		<g>
			<path class="st8" d="M22.7,28c0-0.5,0.4-1,1-1c0.5,0,1,0.4,1,1s-0.4,1-1,1C23.1,28.9,22.7,28.5,22.7,28z"/>
			<path class="st8" d="M23,28c0-0.3,0.3-0.6,0.6-0.6c0.3,0,0.6,0.3,0.6,0.6s-0.3,0.6-0.6,0.6C23.3,28.6,23,28.3,23,28z"/>
			<path class="st9" d="M23.5,27.4v0.3c0,0.1,0,0.1-0.1,0.1h-0.7v0.3h0.7c0.1,0,0.1,0,0.1,0.1v0.3h0.3v-0.3c0-0.1,0-0.1,0.1-0.1h0.7
				v-0.3h-0.7c-0.1,0-0.1,0-0.1-0.1v-0.3H23.5z"/>
		</g>
		<rect x="20.3" y="32.8" class="st3" width="52.3" height="0.9"/>
		<g>
			<polygon class="st3" points="21.3,26.5 22,26.5 22,29.6 22.5,29.6 22.5,26.5 24.8,26.5 24.8,29.6 25.2,29.6 25.2,26.5 27.6,26.5 
				27.6,29.6 28,29.6 28,26.5 30.3,26.5 30.3,29.6 30.8,29.6 30.8,26.5 33.1,26.5 33.1,29.6 33.6,29.6 33.6,26.5 35.9,26.5 
				35.9,29.6 36.3,29.6 36.3,26.5 38.6,26.5 38.6,29.6 39.1,29.6 39.1,26.5 41.4,26.5 41.4,29.6 41.9,29.6 41.9,26.5 44.2,26.5 
				44.2,29.6 44.6,29.6 44.6,26.5 47,26.5 47,29.6 47.4,29.6 47.4,26.5 49.7,26.5 49.7,29.6 50.2,29.6 50.2,26.5 52.5,26.5 
				52.5,29.6 52.9,29.6 52.9,26.5 55.3,26.5 55.3,29.6 55.7,29.6 55.7,26.5 58,26.5 58,29.6 58.5,29.6 58.5,26.5 60.8,26.5 
				60.8,29.6 61.2,29.6 61.2,26.5 63.6,26.5 63.6,29.6 64,29.6 64,26.5 66.3,26.5 66.3,29.6 66.8,29.6 66.8,26.5 69.1,26.5 
				69.1,29.6 69.6,29.6 69.6,26.5 71.7,26.5 71.7,26.2 21.3,26.2 21.3,26.2 20.7,26.2 20.7,29.6 21.3,29.6 			"/>
			<path class="st3" d="M72.3,27v-0.8h-0.6l0,0.8c0.1,0.1,0.2,0.1,0.2,0.2c0.4,0.5,0.3,1.3-0.2,1.7v1.3h-1v0.4h1v1h-1v0.4h0.9V32
				h-3.5v-2.6h-0.4V32h-2.3v-2.6H65V32h-2.3v-2.6h-0.4V32h-2.3v-2.6h-0.4V32h-2.3v-2.6h-0.4V32h-2.3v-2.6h-0.4V32h-2.3v-2.6h-0.4V32
				h-2.3v-2.6h-0.4V32H46v-2.6h-0.4V32h-2.3v-2.6h-0.4V32h-2.3v-2.6H40V32h-2.3v-2.6h-0.4V32h-2.3v-2.6h-0.4V32h-2.3v-2.6h-0.4V32
				h-2.3v-2.6H29V32h-2.3v-2.6h-0.4V32h-2.3v-2.6h-0.4V32h-2.7v0.5h51.5V32v-3.3h0C72.6,28.2,72.6,27.5,72.3,27z"/>
		</g>
		<path class="st2" d="M69.1,22.3c0,0.1-0.1,0.2-0.2,0.2H44.6c-0.1,0-0.2-0.1-0.2-0.2v-1.4c0-0.1,0.1-0.2,0.2-0.2h24.3
			c0.1,0,0.2,0.1,0.2,0.2V22.3z"/>
		<path class="st3" d="M68.9,22.1c0,0.1-0.1,0.2-0.2,0.2h-24c-0.1,0-0.2-0.1-0.2-0.2V21c0-0.1,0.1-0.2,0.2-0.2h24
			c0.1,0,0.2,0.1,0.2,0.2V22.1z"/>
		<path class="st6" d="M68.6,21.8c0,0.1-0.1,0.2-0.2,0.2H45.1c-0.1,0-0.2-0.1-0.2-0.2v-0.4c0-0.1,0.1-0.2,0.2-0.2h23.3
			c0.1,0,0.2,0.1,0.2,0.2V21.8z"/>
		<path d="M50.1,21.8c0,0.1-0.1,0.2-0.2,0.2h-4.7c-0.1,0-0.2-0.1-0.2-0.2v-0.4c0-0.1,0.1-0.2,0.2-0.2h4.7c0.1,0,0.2,0.1,0.2,0.2
			V21.8z"/>
		<path d="M56.2,21.8c0,0.1-0.1,0.2-0.2,0.2h-4.7c-0.1,0-0.2-0.1-0.2-0.2v-0.4c0-0.1,0.1-0.2,0.2-0.2H56c0.1,0,0.2,0.1,0.2,0.2V21.8
			z"/>
		<path d="M62.4,21.8c0,0.1-0.1,0.2-0.2,0.2h-4.7c-0.1,0-0.2-0.1-0.2-0.2v-0.4c0-0.1,0.1-0.2,0.2-0.2h4.7c0.1,0,0.2,0.1,0.2,0.2
			V21.8z"/>
		<path d="M68.6,21.8c0,0.1-0.1,0.2-0.2,0.2h-4.7c-0.1,0-0.2-0.1-0.2-0.2v-0.4c0-0.1,0.1-0.2,0.2-0.2h4.7c0.1,0,0.2,0.1,0.2,0.2
			V21.8z"/>
		<path class="st0" d="M40.2,20.1H21.8c-0.2,0-0.4,0.2-0.4,0.4V22c0,0.2,0.2,0.4,0.4,0.4h18.4c0.2,0,0.4-0.2,0.4-0.4v-1.6
			C40.6,20.2,40.4,20.1,40.2,20.1z M40.5,20.4v0.4h-4.6v-0.6h4.4C40.4,20.2,40.5,20.3,40.5,20.4z M23.2,20.9h4.6v0.6h-4.6V20.9z
			 M23.1,21.5h-1.5v-0.6h1.5V21.5z M34.1,20.8h-4.6v-0.6h4.6V20.8z M34.2,20.2h1.5v0.6h-1.5V20.2z M29.5,20.9h4.6v0.6h-4.6V20.9z
			 M29.4,21.5h-1.5v-0.6h1.5V21.5z M29.4,20.8h-1.5v-0.6h1.5V20.8z M27.8,20.8h-4.6v-0.6h4.6V20.8z M27.8,21.6v0.6h-4.6v-0.6H27.8z
			 M27.9,21.6h1.5v0.6h-1.5V21.6z M29.5,21.6h4.6v0.6h-4.6V21.6z M34.2,21.6h1.5v0.6h-1.5V21.6z M34.2,21.5v-0.6h1.5v0.6H34.2z
			 M35.8,20.9h4.6v0.6h-4.6V20.9z M21.8,20.2h1.2v0.6h-1.5v-0.4C21.6,20.3,21.7,20.2,21.8,20.2z M21.6,22v-0.4h1.5v0.6h-1.2
			C21.7,22.2,21.6,22.1,21.6,22z M40.2,22.2h-4.4v-0.6h4.6V22C40.5,22.1,40.4,22.2,40.2,22.2z"/>
		<path class="st0" d="M46.9,22.7h-2.1c-0.1,0-0.3,0.1-0.3,0.3v0.6c0,0.1,0.1,0.3,0.3,0.3h0.8c0.2,0,0.4,0.2,0.4,0.4v0.6
			c0,0.1,0.1,0.3,0.3,0.3h2.3h0.5H51c0.1,0,0.3-0.1,0.3-0.3v-0.6c0-0.1-0.1-0.3-0.3-0.3h-0.8c-0.2,0-0.4-0.2-0.4-0.4V23
			c0-0.1-0.1-0.3-0.3-0.3h-2.3H46.9"/>
		<g>
			<path class="st4" d="M47.1,22.8h-0.3h-2.1c-0.1,0-0.1,0.1-0.1,0.1v0.6c0,0.1,0.1,0.1,0.1,0.1h0.8c0.1,0,0.2,0,0.3,0.1h1.3V22.8z"
				/>
			<path class="st4" d="M49.7,23.6V23c0-0.1-0.1-0.1-0.1-0.1h-2.3h-0.1v1h2.6C49.8,23.7,49.7,23.7,49.7,23.6z"/>
			<path class="st4" d="M46,24.2v0.6c0,0.1,0.1,0.1,0.1,0.1h2.3h0.1v-1h-2.6C46,24,46,24.1,46,24.2z"/>
			<path class="st4" d="M51,24h-0.8c-0.1,0-0.2,0-0.3-0.1h-1.3v1h0.3H51c0.1,0,0.1-0.1,0.1-0.1v-0.6C51.1,24.1,51.1,24,51,24z"/>
		</g>
		<path class="st0" d="M52.4,22.7h-2.1c-0.1,0-0.3,0.1-0.3,0.3v0.6c0,0.1,0.1,0.3,0.3,0.3h0.8c0.2,0,0.4,0.2,0.4,0.4v0.6
			c0,0.1,0.1,0.3,0.3,0.3h2.3h0.5h2.1c0.1,0,0.3-0.1,0.3-0.3v-0.6c0-0.1-0.1-0.3-0.3-0.3h-0.8c-0.2,0-0.4-0.2-0.4-0.4V23
			c0-0.1-0.1-0.3-0.3-0.3h-2.3H52.4"/>
		<g>
			<path class="st4" d="M52.7,22.8h-0.3h-2.1c-0.1,0-0.1,0.1-0.1,0.1v0.6c0,0.1,0.1,0.1,0.1,0.1h0.8c0.1,0,0.2,0,0.3,0.1h1.3V22.8z"
				/>
			<path class="st4" d="M55.3,23.6V23c0-0.1-0.1-0.1-0.1-0.1h-2.3h-0.1v1h2.6C55.3,23.7,55.3,23.7,55.3,23.6z"/>
			<path class="st4" d="M51.5,24.2v0.6c0,0.1,0.1,0.1,0.1,0.1h2.3H54v-1h-2.6C51.5,24,51.5,24.1,51.5,24.2z"/>
			<path class="st4" d="M56.5,24h-0.8c-0.1,0-0.2,0-0.3-0.1h-1.3v1h0.3h2.1c0.1,0,0.1-0.1,0.1-0.1v-0.6C56.7,24.1,56.6,24,56.5,24z"
				/>
		</g>
		<path class="st0" d="M57.9,22.7h-2.1c-0.1,0-0.3,0.1-0.3,0.3v0.6c0,0.1,0.1,0.3,0.3,0.3h0.8c0.2,0,0.4,0.2,0.4,0.4v0.6
			c0,0.1,0.1,0.3,0.3,0.3h2.3h0.5h2.1c0.1,0,0.3-0.1,0.3-0.3v-0.6c0-0.1-0.1-0.3-0.3-0.3h-0.8c-0.2,0-0.4-0.2-0.4-0.4V23
			c0-0.1-0.1-0.3-0.3-0.3h-2.3H57.9"/>
		<g>
			<path class="st4" d="M58.2,22.8h-0.3h-2.1c-0.1,0-0.1,0.1-0.1,0.1v0.6c0,0.1,0.1,0.1,0.1,0.1h0.8c0.1,0,0.2,0,0.3,0.1h1.3V22.8z"
				/>
			<path class="st4" d="M60.8,23.6V23c0-0.1-0.1-0.1-0.1-0.1h-2.3h-0.1v1h2.6C60.8,23.7,60.8,23.7,60.8,23.6z"/>
			<path class="st4" d="M57.1,24.2v0.6c0,0.1,0.1,0.1,0.1,0.1h2.3h0.1v-1H57C57,24,57.1,24.1,57.1,24.2z"/>
			<path class="st4" d="M62.1,24h-0.8c-0.1,0-0.2,0-0.3-0.1h-1.3v1h0.3h2.1c0.1,0,0.1-0.1,0.1-0.1v-0.6C62.2,24.1,62.1,24,62.1,24z"
				/>
		</g>
		<path class="st0" d="M63.5,22.7h-2.1c-0.1,0-0.3,0.1-0.3,0.3v0.6c0,0.1,0.1,0.3,0.3,0.3h0.8c0.2,0,0.4,0.2,0.4,0.4v0.6
			c0,0.1,0.1,0.3,0.3,0.3H65h0.5h2.1c0.1,0,0.3-0.1,0.3-0.3v-0.6c0-0.1-0.1-0.3-0.3-0.3h-0.8c-0.2,0-0.4-0.2-0.4-0.4V23
			c0-0.1-0.1-0.3-0.3-0.3H64H63.5"/>
		<g>
			<path class="st4" d="M63.7,22.8h-0.3h-2.1c-0.1,0-0.1,0.1-0.1,0.1v0.6c0,0.1,0.1,0.1,0.1,0.1h0.8c0.1,0,0.2,0,0.3,0.1h1.3V22.8z"
				/>
			<path class="st4" d="M66.4,23.6V23c0-0.1-0.1-0.1-0.1-0.1H64h-0.1v1h2.6C66.4,23.7,66.4,23.7,66.4,23.6z"/>
			<path class="st4" d="M62.6,24.2v0.6c0,0.1,0.1,0.1,0.1,0.1H65h0.1v-1h-2.6C62.6,24,62.6,24.1,62.6,24.2z"/>
			<path class="st4" d="M67.6,24h-0.8c-0.1,0-0.2,0-0.3-0.1h-1.3v1h0.3h2.1c0.1,0,0.1-0.1,0.1-0.1v-0.6C67.7,24.1,67.7,24,67.6,24z"
				/>
		</g>
		<path class="st0" d="M69,22.7h-2.1c-0.1,0-0.3,0.1-0.3,0.3v0.6c0,0.1,0.1,0.3,0.3,0.3H69v0c0.1,0,0.3-0.1,0.3-0.3V23
			C69.3,22.8,69.2,22.7,69,22.7z"/>
		<path class="st0" d="M70.4,23.9h-2.1c-0.1,0-0.3,0.1-0.3,0.3v0.6c0,0.1,0.1,0.3,0.3,0.3h2.1v0c0.1,0,0.3-0.1,0.3-0.3v-0.6
			C70.7,24,70.5,23.9,70.4,23.9z"/>
		<rect x="69.3" y="20.1" class="st0" width="3.2" height="1"/>
		<rect x="70.8" y="20.2" class="st4" width="1.5" height="0.8"/>
		<g>
			<rect x="48.8" y="18.9" class="st10" width="2.1" height="0.9"/>
			<rect x="51" y="18.9" class="st10" width="2.1" height="0.9"/>
			<rect x="53.2" y="18.9" class="st10" width="2.1" height="0.9"/>
			<path class="st10" d="M55.4,19.8h1.7c0.2,0,0.4-0.2,0.4-0.4v-0.5h-2V19.8z"/>
			<rect x="48.8" y="15" class="st10" width="2.1" height="0.9"/>
			<rect x="51" y="15" class="st10" width="2.1" height="0.9"/>
			<rect x="53.2" y="15" class="st10" width="2.1" height="0.9"/>
			<rect x="55.4" y="15" class="st10" width="2" height="0.9"/>
		</g>
		<path class="st0" d="M59.9,15.1C59.9,15,59.8,15,59.7,15l-2.1,0v2.7h0c0-0.1,0-0.2,0.1-0.2c0.1-0.1,0.2-0.1,0.3-0.1h1.7
			c0.1,0,0.2,0,0.3-0.1c0.1-0.1,0.1-0.2,0.1-0.2l0-1.7C60.1,15.3,60,15.2,59.9,15.1z"/>
		<g>
			<rect x="22.9" y="14.9" class="st0" width="3.9" height="1"/>
			<path class="st0" d="M21.5,15.3v0.6h1.3v-1h-1C21.6,14.9,21.5,15.1,21.5,15.3z"/>
			<path class="st0" d="M27.7,14.9H27v1h1.1v-0.6C28.1,15.1,27.9,14.9,27.7,14.9z"/>
		</g>
		<path class="st0" d="M9.9,14.5v2.7c0,0.1,0,0.2,0.1,0.2c0.1,0.1,0.2,0.1,0.3,0.1h4.2v-3H9.9z"/>
		<g>
			<rect x="14.6" y="14.5" class="st0" width="4.6" height="0.9"/>
			<path class="st0" d="M14.6,17.5h4.2c0.1,0,0.2,0,0.3-0.1c0.1-0.1,0.1-0.1,0.1-0.2v-1.7h-4.6V17.5z"/>
		</g>
		<path d="M7,21.2c0,0.2-0.2,0.4-0.4,0.4H1.9c-0.2,0-0.4-0.2-0.4-0.4v-5.5c0-0.2,0.2-0.4,0.4-0.4h4.7c0.2,0,0.4,0.2,0.4,0.4V21.2z"
			/>
		<g>
			<defs>
				<path id="SVGID_5_" d="M7,21.2c0,0.2-0.2,0.4-0.4,0.4H1.9c-0.2,0-0.4-0.2-0.4-0.4v-5.5c0-0.2,0.2-0.4,0.4-0.4h4.7
					c0.2,0,0.4,0.2,0.4,0.4V21.2z"/>
			</defs>
			<clipPath id="SVGID_2_">
				<use xlink:href="#SVGID_5_"  style="overflow:visible;"/>
			</clipPath>
			<polygon class="st11" points="2.2,15.6 2.2,17.8 2.6,17.8 2.6,19.2 2.2,19.2 2.2,21.4 7.3,21.4 7.3,15.6 			"/>
			<polygon class="st12" points="2.6,17.2 3.1,17.2 3.1,16.4 5.8,16.4 5.8,20.6 3.1,20.6 3.1,19.8 2.6,19.8 			"/>
			<path class="st13" d="M2.1,15.5v2.1v0.2h0.2h0.2h0.2v-0.2v-0.4h0.6v-0.8l2.5,0v4l-2.5,0v-0.8H2.6v-0.4v-0.2H2.5H2.3H2.1v0.2v2.1
				l5.2,0v-5.9L2.1,15.5z M7.2,21.3l-4.9,0v-2h0.2v0.4v0.2h0.2h0.4v0.8l2.8,0v-4.4l-2.8,0v0.8H2.6H2.5v0.2v0.4H2.3v-2l4.9,0V21.3z"
				/>
		</g>
		<path class="st2" d="M1,17.5c0,0-0.1,0.1-0.1,0.2v1.7c0,0,0,0.1,0.1,0.2l0.5,0.6v-3.1L1,17.5z"/>
		<path d="M7,28c0,0.2-0.2,0.4-0.4,0.4H1.9c-0.2,0-0.4-0.2-0.4-0.4v-5.5c0-0.2,0.2-0.4,0.4-0.4h4.7c0.2,0,0.4,0.2,0.4,0.4V28z"/>
		<g>
			<defs>
				<path id="SVGID_1_" d="M7,28c0,0.2-0.2,0.4-0.4,0.4H1.9c-0.2,0-0.4-0.2-0.4-0.4v-5.5c0-0.2,0.2-0.4,0.4-0.4h4.7
					c0.2,0,0.4,0.2,0.4,0.4V28z"/>
			</defs>
			<clipPath id="SVGID_3_">
				<use xlink:href="#SVGID_1_"  style="overflow:visible;"/>
			</clipPath>
			<polygon class="st14" points="2.2,22.4 2.2,24.6 2.6,24.6 2.6,25.9 2.2,25.9 2.2,28.1 7.3,28.1 7.3,22.4 			"/>
			<polygon class="st15" points="2.6,23.9 3.1,23.9 3.1,23.2 5.8,23.2 5.8,27.4 3.1,27.4 3.1,26.6 2.6,26.6 			"/>
			<path class="st16" d="M2.1,22.3v2.1v0.2h0.2h0.2h0.2v-0.2V24h0.6v-0.8l2.5,0v4l-2.5,0v-0.8H2.6v-0.4v-0.2H2.5H2.3H2.1v0.2v2.1
				l5.2,0v-5.9L2.1,22.3z M7.2,28.1l-4.9,0v-2h0.2v0.4v0.2h0.2h0.4v0.8l2.8,0v-4.4l-2.8,0v0.8H2.6H2.5V24v0.4H2.3v-2l4.9,0V28.1z"/>
		</g>
		<path class="st2" d="M1,24.3c0,0-0.1,0.1-0.1,0.2v1.7c0,0,0,0.1,0.1,0.2l0.5,0.6v-3.1L1,24.3z"/>
		<g>
			<rect x="3.7" y="29.4" class="st17" width="4.1" height="4.5"/>
			<rect x="2" y="30.4" class="st18" width="1.7" height="2.2"/>
			<rect x="7.9" y="30.4" class="st18" width="1.7" height="2.2"/>
			<g>
				<path class="st19" d="M5,32.7c-0.1-0.2-0.3-0.3-0.5-0.3c-0.2,0-0.4,0.1-0.5,0.3v0.6c0.1,0.2,0.3,0.3,0.5,0.3
					c0.2,0,0.4-0.1,0.5-0.3V32.7z"/>
				<path class="st20" d="M4.8,33.4c0.1-0.1,0.1-0.2,0.1-0.3c0-0.1,0-0.2-0.1-0.3H4c-0.1,0.1-0.1,0.2-0.1,0.3c0,0.1,0,0.2,0.1,0.3
					H4.8z"/>
			</g>
			<g>
				<path class="st19" d="M6.2,32.7c-0.1-0.2-0.3-0.3-0.5-0.3c-0.2,0-0.4,0.1-0.5,0.3v0.6c0.1,0.2,0.3,0.3,0.5,0.3
					c0.2,0,0.4-0.1,0.5-0.3V32.7z"/>
				<path class="st20" d="M6.1,33.4c0.1-0.1,0.1-0.2,0.1-0.3c0-0.1,0-0.2-0.1-0.3H5.3c-0.1,0.1-0.1,0.2-0.1,0.3c0,0.1,0,0.2,0.1,0.3
					H6.1z"/>
			</g>
			<g>
				<path class="st19" d="M7.5,32.7c-0.1-0.2-0.3-0.3-0.5-0.3c-0.2,0-0.4,0.1-0.5,0.3v0.6c0.1,0.2,0.3,0.3,0.5,0.3
					c0.2,0,0.4-0.1,0.5-0.3V32.7z"/>
				<path class="st20" d="M7.4,33.4c0.1-0.1,0.1-0.2,0.1-0.3c0-0.1,0-0.2-0.1-0.3H6.6c-0.1,0.1-0.1,0.2-0.1,0.3c0,0.1,0,0.2,0.1,0.3
					H7.4z"/>
			</g>
			<g>
				<rect x="3.7" y="31.5" class="st21" width="0.2" height="0.9"/>
				<rect x="7.6" y="31.5" class="st21" width="0.2" height="0.9"/>
				<rect x="6.3" y="31.5" class="st21" width="0.2" height="0.9"/>
				<rect x="6.6" y="31.6" class="st22" width="1" height="0.7"/>
				<rect x="6.6" y="31.6" class="st23" width="1" height="0.2"/>
				<rect x="6.6" y="32.1" class="st23" width="1" height="0.2"/>
				<rect x="5" y="31.5" class="st21" width="0.2" height="0.9"/>
				<rect x="3.7" y="32.3" class="st21" width="0.2" height="0.2"/>
				<rect x="7.6" y="32.3" class="st21" width="0.2" height="0.2"/>
				<rect x="6.3" y="32.3" class="st21" width="0.2" height="0.2"/>
				<rect x="5" y="32.3" class="st21" width="0.2" height="0.2"/>
				<rect x="5.3" y="31.6" class="st22" width="1" height="0.7"/>
				<rect x="5.3" y="31.6" class="st23" width="1" height="0.2"/>
				<rect x="5.3" y="32.1" class="st23" width="1" height="0.2"/>
				<rect x="3.9" y="31.6" class="st22" width="1" height="0.7"/>
				<rect x="4" y="31.6" class="st23" width="1" height="0.2"/>
				<rect x="4" y="32.1" class="st23" width="1" height="0.2"/>
			</g>
			<g>
				<path class="st6" d="M2.8,30.8c0.4,0,0.7,0.3,0.7,0.7c0,0.4-0.3,0.7-0.7,0.7c-0.4,0-0.7-0.3-0.7-0.7C2.1,31.1,2.4,30.8,2.8,30.8
					z"/>
				<path class="st24" d="M2.8,30.8c0.4,0,0.7,0.3,0.7,0.7c0,0.4-0.3,0.7-0.7,0.7c-0.4,0-0.7-0.3-0.7-0.7
					C2.2,31.1,2.5,30.8,2.8,30.8z"/>
				<g>
					<path class="st3" d="M3.2,30.9l-0.9,0.9c0,0.1,0.1,0.1,0.2,0.2l0.9-1C3.4,31,3.3,31,3.2,30.9z"/>
				</g>
			</g>
			<g>
				<path class="st6" d="M8.7,30.8c0.4,0,0.7,0.3,0.7,0.7c0,0.4-0.3,0.7-0.7,0.7c-0.4,0-0.7-0.3-0.7-0.7C8,31.1,8.3,30.8,8.7,30.8z"
					/>
				<path class="st24" d="M8.7,30.8c0.4,0,0.7,0.3,0.7,0.7c0,0.4-0.3,0.7-0.7,0.7c-0.4,0-0.7-0.3-0.7-0.7C8,31.1,8.3,30.8,8.7,30.8z
					"/>
				<g>
					<path class="st3" d="M9.1,30.9l-0.9,0.9c0,0.1,0.1,0.1,0.2,0.2l0.9-1C9.2,31,9.2,31,9.1,30.9z"/>
				</g>
			</g>
			<g>
				<path class="st19" d="M4.5,29.6c-0.2,0-0.3,0.1-0.3,0.3h0v0.3h0.5v-0.3C4.8,29.7,4.7,29.6,4.5,29.6z"/>
				<path class="st20" d="M4.7,29.9c0-0.1-0.1-0.2-0.2-0.2c-0.1,0-0.2,0.1-0.2,0.2h0v0.2h0.4L4.7,29.9L4.7,29.9z"/>
				<path class="st19" d="M5.8,29.6c-0.2,0-0.3,0.1-0.3,0.3h0v0.3h0.5v-0.3C6.1,29.7,5.9,29.6,5.8,29.6z"/>
				<path class="st20" d="M6,29.9c0-0.1-0.1-0.2-0.2-0.2c-0.1,0-0.2,0.1-0.2,0.2h0v0.2H6L6,29.9L6,29.9z"/>
				<path class="st19" d="M7.1,29.6c-0.2,0-0.3,0.1-0.3,0.3h0v0.3h0.5v-0.3C7.3,29.7,7.2,29.6,7.1,29.6z"/>
				<path class="st20" d="M7.2,29.9c0-0.1-0.1-0.2-0.2-0.2c-0.1,0-0.2,0.1-0.2,0.2h0v0.2h0.4L7.2,29.9L7.2,29.9z"/>
			</g>
		</g>
		<g>
			<rect x="10.6" y="16.3" width="0.6" height="0.9"/>
			<rect x="12.1" y="16.3" width="0.6" height="0.9"/>
			<rect x="13.5" y="16.3" width="0.6" height="0.9"/>
			<rect x="15" y="16.3" width="0.6" height="0.9"/>
			<rect x="16.4" y="16.3" width="0.6" height="0.9"/>
			<rect x="17.9" y="16.3" width="0.6" height="0.9"/>
		</g>
		<g>
			<rect x="40.3" y="17.8" width="0.6" height="0.9"/>
			<rect x="41.4" y="17.8" width="0.6" height="0.9"/>
			<rect x="42.5" y="17.8" width="0.6" height="0.9"/>
			<rect x="43.6" y="17.8" width="0.6" height="0.9"/>
			<rect x="44.7" y="17.8" width="0.6" height="0.9"/>
			<rect x="45.8" y="17.8" width="0.6" height="0.9"/>
			<rect x="46.9" y="17.8" width="0.6" height="0.9"/>
			<rect x="48" y="17.8" width="0.6" height="0.9"/>
			<rect x="49.1" y="17.8" width="0.6" height="0.9"/>
			<rect x="50.1" y="17.8" width="0.6" height="0.9"/>
			<rect x="51.2" y="17.8" width="0.6" height="0.9"/>
			<rect x="52.3" y="17.8" width="0.6" height="0.9"/>
			<rect x="53.4" y="17.8" width="0.6" height="0.9"/>
			<rect x="54.5" y="17.8" width="0.6" height="0.9"/>
			<rect x="55.6" y="17.8" width="0.6" height="0.9"/>
			<rect x="56.7" y="17.8" width="0.6" height="0.9"/>
			<rect x="40.3" y="16" width="0.6" height="0.9"/>
			<rect x="41.4" y="16" width="0.6" height="0.9"/>
			<rect x="42.5" y="16" width="0.6" height="0.9"/>
			<rect x="43.6" y="16" width="0.6" height="0.9"/>
			<rect x="44.7" y="16" width="0.6" height="0.9"/>
			<rect x="45.8" y="16" width="0.6" height="0.9"/>
			<rect x="46.9" y="16" width="0.6" height="0.9"/>
			<rect x="48" y="16" width="0.6" height="0.9"/>
			<rect x="49" y="16" width="0.6" height="0.9"/>
			<rect x="50.1" y="16" width="0.6" height="0.9"/>
			<rect x="51.2" y="16" width="0.6" height="0.9"/>
			<rect x="52.3" y="16" width="0.6" height="0.9"/>
			<rect x="53.4" y="16" width="0.6" height="0.9"/>
			<rect x="54.5" y="16" width="0.6" height="0.9"/>
			<rect x="55.6" y="16" width="0.6" height="0.9"/>
			<rect x="56.7" y="16" width="0.6" height="0.9"/>
			<rect x="57.8" y="16" width="0.6" height="0.9"/>
		</g>
		<polygon class="st25" points="0.7,13.9 0.7,28.9 0.7,29.2 0.7,33.7 3.7,33.7 3.7,34 7.9,34 7.9,33.7 11.5,33.7 11.8,33.7 
			20.3,33.7 72.7,33.7 73.4,33.7 73.4,13.9 		"/>
	</g>
</g>
</svg>
