<svg xmlns="http://www.w3.org/2000/svg" width="74" height="48.003" viewBox="0 0 74 48.003"><title>cc-link_awalb</title><rect y="0.001" width="74" height="48" fill="#fff"/><rect x="27.187" y="0.122" width="19.626" height="47.758" fill="#4d4d4d"/><rect x="27.968" y="1.064" width="18.063" height="45.874" fill="#1a1a1a"/><rect x="28.164" y="1.279" width="17.673" height="45.443" fill="#4d4d4d"/><rect x="38.561" y="27.356" width="4.911" height="16.683" fill="#1a1a1a"/><rect x="30.502" y="28.771" width="3.46" height="13.852" fill="#1a1a1a"/><rect x="38.835" y="27.508" width="3.832" height="16.379" fill="#1f7339"/><rect x="39.283" y="27.508" width="2.524" height="16.379" fill="#2f8e49"/><rect x="30.59" y="28.833" width="2.524" height="13.729" fill="#2f8e49"/><rect x="38.835" y="29.93" width="6.81" height="11.535" fill="#3da858"/><rect x="29.094" y="31.021" width="4.959" height="9.353" fill="#3da858"/><rect x="31.664" y="31.021" width="0.376" height="9.353" fill="#1f7339"/><rect x="39.792" y="34.803" width="3.116" height="1.789" fill="#288141"/><rect x="40.321" y="35.106" width="2.059" height="1.182" fill="#065122"/><rect x="39.792" y="32.573" width="3.116" height="1.789" fill="#288141"/><rect x="40.321" y="32.876" width="2.059" height="1.182" fill="#065122"/><rect x="39.792" y="30.343" width="3.116" height="1.789" fill="#288141"/><rect x="40.321" y="30.647" width="2.059" height="1.182" fill="#065122"/><rect x="29.338" y="34.945" width="2.326" height="1.504" fill="#288141"/><rect x="29.55" y="35.2" width="1.537" height="0.994" fill="#065122"/><rect x="29.338" y="33.124" width="2.326" height="1.504" fill="#288141"/><rect x="29.55" y="33.379" width="1.537" height="0.994" fill="#065122"/><rect x="29.338" y="31.302" width="2.326" height="1.504" fill="#288141"/><rect x="29.55" y="31.558" width="1.537" height="0.994" fill="#065122"/><rect x="29.338" y="36.767" width="2.326" height="1.504" fill="#288141"/><rect x="29.55" y="37.022" width="1.537" height="0.994" fill="#065122"/><rect x="29.338" y="38.588" width="2.326" height="1.504" fill="#288141"/><rect x="29.55" y="38.843" width="1.537" height="0.994" fill="#065122"/><rect x="39.792" y="37.033" width="3.116" height="1.789" fill="#288141"/><rect x="40.321" y="37.336" width="2.059" height="1.182" fill="#065122"/><rect x="39.792" y="39.262" width="3.116" height="1.789" fill="#288141"/><rect x="40.321" y="39.566" width="2.059" height="1.182" fill="#065122"/><ellipse cx="40.546" cy="28.691" rx="0.706" ry="0.725" fill="#b2ccd9"/><rect x="40.455" y="27.966" width="0.181" height="1.45" fill="#666464"/><ellipse cx="31.852" cy="29.93" rx="0.814" ry="0.835" fill="#b2ccd9"/><rect x="31.748" y="29.094" width="0.209" height="1.671" fill="#666464"/><ellipse cx="31.852" cy="41.465" rx="0.814" ry="0.835" fill="#b2ccd9"/><rect x="31.748" y="40.629" width="0.209" height="1.671" fill="#666464"/><ellipse cx="40.546" cy="42.703" rx="0.706" ry="0.725" fill="#b2ccd9"/><rect x="40.455" y="41.979" width="0.181" height="1.45" fill="#666464"/><rect x="32.667" y="22.717" width="2.754" height="3.414" fill="#2b2b2b"/><rect x="33.646" y="23.459" width="1.581" height="0.716" fill="#1a1a1a"/><rect x="34.008" y="23.567" width="1.219" height="0.5" fill="#f39800"/><rect x="33.646" y="24.673" width="1.581" height="0.716" fill="#1a1a1a"/><rect x="34.008" y="24.781" width="1.219" height="0.5" fill="#f39800"/><rect x="40.567" y="22.717" width="2.754" height="3.414" fill="#2b2b2b"/><rect x="41.547" y="23.459" width="1.581" height="0.716" fill="#1a1a1a"/><rect x="41.908" y="23.567" width="1.22" height="0.5" fill="#f39800"/><rect x="41.547" y="24.673" width="1.581" height="0.716" fill="#1a1a1a"/><rect x="41.908" y="24.781" width="1.22" height="0.5" fill="#f39800"/><rect x="30.161" y="14.128" width="3.8" height="8.011" fill="#2b2b2b"/><path d="M42.689,14.4a2.007,2.007,0,0,1-.193.423l-0.261-.195a1.615,1.615,0,0,0,.222-0.7h0.319A1.884,1.884,0,0,1,42.689,14.4Z" transform="translate(0 0.001)" fill="#fff"/><path d="M42.689,13.23a1.941,1.941,0,0,1,.087.469H42.458a1.6,1.6,0,0,0-.222-0.694l0.261-.2A1.985,1.985,0,0,1,42.689,13.23Z" transform="translate(0 0.001)" fill="#fff"/><path d="M42.226,13.934l0.007-.089a0.562,0.562,0,0,1,0,.076Z" transform="translate(0 0.001)" fill="#231815"/><path d="M41.623,12.071a1.884,1.884,0,0,1,.741.548l-0.261.195a1.5,1.5,0,0,0-.58-0.43Z" transform="translate(0 0.001)" fill="#fff"/><path d="M42.364,15.014a1.863,1.863,0,0,1-.741.552l-0.1-.314a1.536,1.536,0,0,0,.58-0.429Z" transform="translate(0 0.001)" fill="#fff"/><path d="M41.018,13.019l-0.068-.069-0.068.069H40.564a0.853,0.853,0,0,1,.773,0H41.018Z" transform="translate(0 0.001)" fill="#ac6a00"/><polygon points="41.179 13.42 41.179 14.57 40.722 14.57 40.722 13.42 40.493 13.42 40.883 13.02 40.951 12.951 41.018 13.02 41.408 13.42 41.179 13.42" fill="#834e00"/><path d="M41.183,11.955a1.781,1.781,0,0,1,.225.043l-0.1.314a1.514,1.514,0,0,0-.177-0.033l-0.09-.01c-0.029,0-.058,0-0.09,0s-0.061,0-.09,0l-0.09.01a1.511,1.511,0,0,0-.177.033L40.5,12a1.642,1.642,0,0,1,.222-0.043c0.039-.007.077-0.01,0.116-0.013,0.019,0,.039,0,0.058,0h0.116c0.019,0,.038,0,0.058,0C41.105,11.945,41.144,11.949,41.183,11.955Z" transform="translate(0 0.001)" fill="#fff"/><path d="M41.179,14.568v-1.15h0.228l-0.389-.4H41.34a0.9,0.9,0,0,1,.48.8,0.87,0.87,0,1,1-1.739,0,0.9,0.9,0,0,1,.48-0.8h0.322l-0.39.4h0.229v1.15h0.457Z" transform="translate(0 0.001)" fill="#f39800"/><path d="M41.82,13.818a0.9,0.9,0,0,0-.48-0.8h0a0.853,0.853,0,0,0-.773,0h0a0.9,0.9,0,0,0-.48.8A0.87,0.87,0,1,0,41.82,13.818Zm-0.158,1.093a1.317,1.317,0,0,1-.222.119,1.246,1.246,0,0,1-.238.076,1.2,1.2,0,0,1-.5,0,1.248,1.248,0,0,1-.238-0.076,1.466,1.466,0,0,1-.222-0.119,1.409,1.409,0,0,1-.354-0.363,1.5,1.5,0,0,1-.119-0.228,1.29,1.29,0,0,1-.071-0.248,1.107,1.107,0,0,1-.026-0.254,1.155,1.155,0,0,1,.026-0.258,1.29,1.29,0,0,1,.071-0.248,1.5,1.5,0,0,1,.119-0.228,1.326,1.326,0,0,1,.161-0.2,1.159,1.159,0,0,1,.193-0.162,1.233,1.233,0,0,1,.222-0.122,1.245,1.245,0,0,1,.238-0.076,1.2,1.2,0,0,1,.5,0,1.244,1.244,0,0,1,.238.076,1.125,1.125,0,0,1,.222.122,1.328,1.328,0,0,1,.2.162,1.344,1.344,0,0,1,.158.2,1.345,1.345,0,0,1,.193.476,1.54,1.54,0,0,1,.019.169,0.841,0.841,0,0,1,0,.089v0.026l-0.007.089a1.216,1.216,0,0,1-.016.139,1.345,1.345,0,0,1-.193.476,1.194,1.194,0,0,1-.158.2A1.354,1.354,0,0,1,41.662,14.912Z" transform="translate(0 0.001)" fill="#3e3a39"/><path d="M40.378,12.385a1.5,1.5,0,0,0-.58.43l-0.261-.195a1.881,1.881,0,0,1,.741-0.548Z" transform="translate(0 0.001)" fill="#fff"/><path d="M39.8,14.823a1.562,1.562,0,0,0,.58.429l-0.1.314a1.86,1.86,0,0,1-.741-0.552Z" transform="translate(0 0.001)" fill="#fff"/><path d="M39.4,14.826a1.99,1.99,0,0,1-.193-0.423,1.883,1.883,0,0,1-.087-0.469h0.319a1.606,1.606,0,0,0,.222.7Z" transform="translate(0 0.001)" fill="#fff"/><path d="M39.212,13.23a1.968,1.968,0,0,1,.193-0.42l0.261,0.2a1.591,1.591,0,0,0-.222.694H39.125A1.939,1.939,0,0,1,39.212,13.23Z" transform="translate(0 0.001)" fill="#fff"/><path d="M42.689,18.2A2.007,2.007,0,0,0,42.5,17.78l-0.261.195a1.615,1.615,0,0,1,.222.7h0.319A1.885,1.885,0,0,0,42.689,18.2Z" transform="translate(0 0.001)" fill="#fff"/><path d="M42.689,19.376a1.941,1.941,0,0,0,.087-0.469H42.458a1.6,1.6,0,0,1-.222.694L42.5,19.8A1.986,1.986,0,0,0,42.689,19.376Z" transform="translate(0 0.001)" fill="#fff"/><path d="M41.623,20.535a1.884,1.884,0,0,0,.741-0.548L42.1,19.792a1.5,1.5,0,0,1-.58.43Z" transform="translate(0 0.001)" fill="#fff"/><path d="M42.364,17.592a1.863,1.863,0,0,0-.741-0.552l-0.1.314a1.536,1.536,0,0,1,.58.429Z" transform="translate(0 0.001)" fill="#fff"/><path d="M41.183,20.651a1.78,1.78,0,0,0,.225-0.043l-0.1-.314a1.528,1.528,0,0,1-.177.033l-0.09.01c-0.029,0-.058,0-0.09,0s-0.061,0-.09,0l-0.09-.01a1.525,1.525,0,0,1-.177-0.033l-0.1.314a1.641,1.641,0,0,0,.222.043c0.039,0.007.077,0.01,0.116,0.013,0.019,0,.039,0,0.058,0h0.116c0.019,0,.038,0,0.058,0C41.105,20.661,41.144,20.658,41.183,20.651Z" transform="translate(0 0.001)" fill="#fff"/><path d="M40.378,20.222a1.5,1.5,0,0,1-.58-0.43l-0.261.195a1.881,1.881,0,0,0,.741.548Z" transform="translate(0 0.001)" fill="#fff"/><path d="M39.8,17.783a1.561,1.561,0,0,1,.58-0.429l-0.1-.314a1.86,1.86,0,0,0-.741.552Z" transform="translate(0 0.001)" fill="#fff"/><path d="M39.4,17.78a1.99,1.99,0,0,0-.193.423,1.883,1.883,0,0,0-.087.469h0.319a1.606,1.606,0,0,1,.222-0.7Z" transform="translate(0 0.001)" fill="#fff"/><path d="M39.212,19.376a1.969,1.969,0,0,0,.193.42l0.261-.2a1.592,1.592,0,0,1-.222-0.694H39.125A1.94,1.94,0,0,0,39.212,19.376Z" transform="translate(0 0.001)" fill="#fff"/><path d="M42.226,18.9l0.007-.089a0.562,0.562,0,0,1,0,.076Z" transform="translate(0 0.001)" fill="#231815"/><path d="M41.018,17.988l-0.068-.069-0.068.069H40.564a0.853,0.853,0,0,1,.773,0H41.018Z" transform="translate(0 0.001)" fill="#ac6a00"/><polygon points="41.179 18.389 41.179 19.539 40.722 19.539 40.722 18.389 40.493 18.389 40.883 17.99 40.951 17.92 41.018 17.99 41.408 18.389 41.179 18.389" fill="#834e00"/><path d="M41.179,19.538v-1.15h0.228l-0.389-.4H41.34a0.9,0.9,0,0,1,.48.8,0.87,0.87,0,1,1-1.739,0,0.9,0.9,0,0,1,.48-0.8h0.322l-0.39.4h0.229v1.15h0.457Z" transform="translate(0 0.001)" fill="#f39800"/><path d="M41.82,18.788a0.9,0.9,0,0,0-.48-0.8h0a0.853,0.853,0,0,0-.773,0h0a0.9,0.9,0,0,0-.48.8A0.87,0.87,0,1,0,41.82,18.788Zm-0.158,1.093A1.317,1.317,0,0,1,41.44,20a1.244,1.244,0,0,1-.238.076,1.2,1.2,0,0,1-.5,0A1.246,1.246,0,0,1,40.461,20a1.466,1.466,0,0,1-.222-0.119,1.409,1.409,0,0,1-.354-0.363,1.5,1.5,0,0,1-.119-0.228,1.29,1.29,0,0,1-.071-0.248,1.107,1.107,0,0,1-.026-0.254,1.156,1.156,0,0,1,.026-0.258,1.291,1.291,0,0,1,.071-0.248,1.5,1.5,0,0,1,.119-0.228,1.324,1.324,0,0,1,.161-0.2,1.159,1.159,0,0,1,.193-0.162,1.231,1.231,0,0,1,.222-0.122A1.246,1.246,0,0,1,40.7,17.5a1.2,1.2,0,0,1,.5,0,1.244,1.244,0,0,1,.238.076,1.123,1.123,0,0,1,.222.122,1.328,1.328,0,0,1,.2.162,1.342,1.342,0,0,1,.158.2,1.345,1.345,0,0,1,.193.476,1.541,1.541,0,0,1,.019.169,0.841,0.841,0,0,1,0,.089v0.026l-0.007.089a1.216,1.216,0,0,1-.016.139,1.345,1.345,0,0,1-.193.476,1.194,1.194,0,0,1-.158.2A1.354,1.354,0,0,1,41.662,19.881Z" transform="translate(0 0.001)" fill="#3e3a39"/><polygon points="31.235 5.511 31.235 5.005 31.235 5.001 30.62 5.001 30.62 5.005 30.62 5.511 31.235 5.511" fill="#4c4948"/><polygon points="31.235 6.709 31.235 6.202 31.235 6.199 30.62 6.199 30.62 6.202 30.62 6.709 31.235 6.709" fill="#4c4948"/><polygon points="31.235 7.907 31.235 7.4 31.235 7.396 30.62 7.396 30.62 7.4 30.62 7.907 31.235 7.907" fill="#4c4948"/><polygon points="39.245 5.511 39.245 5.005 39.245 5.001 38.63 5.001 38.63 5.005 38.63 5.511 39.245 5.511" fill="#4c4948"/><polygon points="39.245 6.709 39.245 6.202 39.245 6.199 38.63 6.199 38.63 6.202 38.63 6.709 39.245 6.709" fill="#4c4948"/><polygon points="39.245 7.907 39.245 7.4 39.245 7.396 38.63 7.396 38.63 7.4 38.63 7.907 39.245 7.907" fill="#4c4948"/><polygon points="39.245 9.104 39.245 8.597 39.245 8.594 38.63 8.594 38.63 8.597 38.63 9.104 39.245 9.104" fill="#4c4948"/><ellipse cx="32.221" cy="11.54" rx="0.624" ry="0.64" fill="#4c4948"/><ellipse cx="32.221" cy="11.54" rx="0.405" ry="0.416" fill="#fff"/><rect x="27.187" y="0.122" width="19.626" height="47.758" fill="none" stroke="#000" stroke-width="0.245"/></svg>