<svg xmlns="http://www.w3.org/2000/svg" width="74" height="48" viewBox="0 0 74 48"><title>cc-link_ie_etb</title><rect width="74" height="48" fill="#fff"/><rect x="16.961" y="10.551" width="40.079" height="26.899" fill="#737373"/><rect x="30.32" y="10.551" width="26.719" height="8.07" fill="#605f5e"/><rect x="33.496" y="21.833" width="4.752" height="5.209" rx="0.298" ry="0.298" fill="#333"/><rect x="33.807" y="22.096" width="4.101" height="4.705" fill="#bfbfbf" stroke="#9e9e9f" stroke-width="0.109"/><polygon points="34.03 25.142 34.318 25.142 34.318 26.508 37.327 26.509 37.327 22.57 34.318 22.568 34.318 23.934 34.03 23.934 34.03 25.142" fill="#262626" stroke="gray" stroke-width="0.164"/><rect x="34.318" y="22.569" width="0.677" height="0.849" fill="#7dad2a" stroke="#9e9e9f" stroke-width="0.119"/><rect x="34.318" y="25.659" width="0.677" height="0.849" fill="#7dad2a" stroke="#9e9e9f" stroke-width="0.119"/><rect x="33.496" y="28.088" width="4.752" height="5.209" rx="0.298" ry="0.298" fill="#333"/><rect x="33.807" y="28.351" width="4.101" height="4.705" fill="#bfbfbf" stroke="#9e9e9f" stroke-width="0.109"/><polygon points="34.03 31.397 34.318 31.397 34.318 32.763 37.327 32.764 37.327 28.825 34.318 28.824 34.318 30.19 34.03 30.19 34.03 31.397" fill="#262626" stroke="gray" stroke-width="0.164"/><rect x="34.318" y="28.824" width="0.677" height="0.849" fill="#7dad2a" stroke="#9e9e9f" stroke-width="0.119"/><rect x="34.318" y="31.914" width="0.677" height="0.849" fill="#7dad2a" stroke="#9e9e9f" stroke-width="0.119"/><path d="M32.818,28.986H32.778v0.162h0.039c0.059,0,.127-0.008.127-0.083s-0.067-.078-0.127-0.078h0Z" fill="none" fill-rule="evenodd"/><path d="M32.818,22.7H32.778v0.162h0.039c0.059,0,.127-0.008.127-0.083S32.877,22.7,32.818,22.7h0Z" fill="none" fill-rule="evenodd"/><rect x="46.261" y="29.081" width="4.752" height="5.209" rx="0.298" ry="0.298" fill="#333"/><rect x="46.602" y="29.343" width="4.101" height="4.705" fill="#bfbfbf" stroke="#9e9e9f" stroke-width="0.109"/><polygon points="50.479 32.389 50.192 32.389 50.192 33.755 47.183 33.757 47.183 29.817 50.192 29.816 50.192 31.182 50.479 31.182 50.479 32.389" fill="#262626" stroke="gray" stroke-width="0.164"/><rect x="49.515" y="29.816" width="0.677" height="0.849" fill="#7dad2a" stroke="#9e9e9f" stroke-width="0.119"/><rect x="49.515" y="32.906" width="0.677" height="0.849" fill="#7dad2a" stroke="#9e9e9f" stroke-width="0.119"/><line x1="30.32" y1="10.551" x2="30.32" y2="37.449" fill="none" stroke="#000" stroke-width="0.105"/><polygon points="45.71 19.979 39.763 19.979 39.761 24.588 45.71 24.594 45.71 24.717 39.019 24.717 39.019 24.599 39.614 24.599 39.614 19.979 39.019 19.979 39.019 19.861 45.71 19.861 45.71 19.979" fill="#333"/><rect x="39.019" y="19.979" width="0.595" height="4.62" fill="#666"/><rect x="45.173" y="19.979" width="0.537" height="4.615" fill="#333"/><path d="M51.934,28.345a0.284,0.284,0,0,1-.283-0.285h0V18.905a0.285,0.285,0,0,1,.283-0.285h2.887a0.284,0.284,0,0,1,.283.285h0v9.155h0a0.284,0.284,0,0,1-.283.285H51.934Zm-0.126-9.44v9.155a0.127,0.127,0,0,0,.126.127h2.887a0.126,0.126,0,0,0,.126-0.127h0V18.905a0.126,0.126,0,0,0-.126-0.127H51.934a0.126,0.126,0,0,0-.126.127h0Z" fill="#333"/><rect x="55.104" y="26.225" width="0.595" height="1.033" fill="#595959"/><rect x="55.104" y="26.08" width="0.595" height="0.145" fill="#333"/><rect x="55.104" y="27.258" width="0.595" height="0.145" fill="#333"/><path d="M23.351,22.533H27.3a0.3,0.3,0,0,1,.3.3V35.384a0.3,0.3,0,0,1-.3.3H23.352a0.3,0.3,0,0,1-.3-0.3V22.833A0.3,0.3,0,0,1,23.351,22.533Z" fill="#262626" stroke="#231815" stroke-width="0.105"/><polygon points="23.551 22.92 23.551 23.401 27.052 23.401 27.052 25.909 23.551 25.909 23.551 26.39 27.052 26.39 27.052 28.898 23.551 28.898 23.551 29.379 27.052 29.379 27.052 31.887 23.551 31.887 23.551 32.368 27.052 32.368 27.052 34.876 23.551 34.876 23.551 35.357 27.411 35.357 27.411 22.92 23.551 22.92" fill="#666" fill-rule="evenodd"/><path d="M24.372,23.5h2.033a0.155,0.155,0,0,1,.155.155V25.67a0.154,0.154,0,0,1-.154.154H24.372a0.154,0.154,0,0,1-.154-0.154V23.651A0.155,0.155,0,0,1,24.372,23.5Z" fill="#7c8389"/><ellipse cx="25.389" cy="24.66" rx="0.908" ry="0.914" fill="none" stroke="#fff" stroke-width="0.126"/><path d="M25.946,24.608a0.06,0.06,0,0,0-.059-0.06H25.56a0.06,0.06,0,0,1-.059-0.06V24.159a0.06,0.06,0,0,0-.059-0.06h-0.1a0.06,0.06,0,0,0-.059.06v0.329a0.06,0.06,0,0,1-.059.06H24.891a0.06,0.06,0,0,0-.059.06v0.105a0.06,0.06,0,0,0,.059.06h0.327a0.06,0.06,0,0,1,.059.06v0.329a0.06,0.06,0,0,0,.059.06h0.1a0.06,0.06,0,0,0,.059-0.06V24.832a0.06,0.06,0,0,1,.059-0.06h0.327a0.06,0.06,0,0,0,.059-0.06V24.608Z" fill="none" stroke="#fff" stroke-width="0.126" fill-rule="evenodd"/><path d="M24.372,26.485h2.034a0.154,0.154,0,0,1,.154.154v2.019a0.155,0.155,0,0,1-.155.155H24.372a0.154,0.154,0,0,1-.154-0.154V26.64A0.155,0.155,0,0,1,24.372,26.485Z" fill="#7c8389"/><ellipse cx="25.389" cy="27.649" rx="0.908" ry="0.914" fill="none" stroke="#fff" stroke-width="0.126"/><path d="M25.946,27.6a0.06,0.06,0,0,0-.059-0.06H25.56a0.06,0.06,0,0,1-.059-0.06V27.148a0.06,0.06,0,0,0-.059-0.06h-0.1a0.06,0.06,0,0,0-.059.06v0.329a0.06,0.06,0,0,1-.059.06H24.891a0.06,0.06,0,0,0-.059.06V27.7a0.06,0.06,0,0,0,.059.06h0.327a0.06,0.06,0,0,1,.059.06V28.15a0.06,0.06,0,0,0,.059.06h0.1a0.06,0.06,0,0,0,.059-0.06V27.821a0.06,0.06,0,0,1,.059-0.06h0.327a0.06,0.06,0,0,0,.059-0.06V27.6Z" fill="none" stroke="#fff" stroke-width="0.126" fill-rule="evenodd"/><path d="M24.372,29.474h2.034a0.154,0.154,0,0,1,.154.154v2.019a0.155,0.155,0,0,1-.155.155H24.372a0.154,0.154,0,0,1-.154-0.154V29.629A0.155,0.155,0,0,1,24.372,29.474Z" fill="#7c8389"/><ellipse cx="25.389" cy="30.638" rx="0.908" ry="0.914" fill="none" stroke="#fff" stroke-width="0.126"/><path d="M25.946,30.586a0.06,0.06,0,0,0-.059-0.06H25.56a0.06,0.06,0,0,1-.059-0.06V30.137a0.06,0.06,0,0,0-.059-0.06h-0.1a0.06,0.06,0,0,0-.059.06v0.329a0.06,0.06,0,0,1-.059.06H24.891a0.06,0.06,0,0,0-.059.06v0.105a0.06,0.06,0,0,0,.059.06h0.327a0.06,0.06,0,0,1,.059.06V31.14a0.06,0.06,0,0,0,.059.06h0.1a0.06,0.06,0,0,0,.059-0.06V30.811a0.06,0.06,0,0,1,.059-0.06h0.327a0.06,0.06,0,0,0,.059-0.06V30.586Z" fill="none" stroke="#fff" stroke-width="0.126" fill-rule="evenodd"/><path d="M24.372,32.463h2.034a0.154,0.154,0,0,1,.154.154v2.019a0.155,0.155,0,0,1-.155.155H24.372a0.154,0.154,0,0,1-.154-0.154V32.618A0.155,0.155,0,0,1,24.372,32.463Z" fill="#7c8389"/><ellipse cx="25.389" cy="33.628" rx="0.908" ry="0.914" fill="none" stroke="#fff" stroke-width="0.126"/><path d="M25.946,33.575a0.06,0.06,0,0,0-.059-0.06H25.56a0.06,0.06,0,0,1-.059-0.06V33.126a0.06,0.06,0,0,0-.059-0.06h-0.1a0.06,0.06,0,0,0-.059.06v0.329a0.06,0.06,0,0,1-.059.06H24.891a0.06,0.06,0,0,0-.059.06V33.68a0.06,0.06,0,0,0,.059.06h0.327a0.06,0.06,0,0,1,.059.06v0.329a0.06,0.06,0,0,0,.059.06h0.1a0.06,0.06,0,0,0,.059-0.06V33.8a0.06,0.06,0,0,1,.059-0.06h0.327a0.06,0.06,0,0,0,.059-0.06V33.575Z" fill="none" stroke="#fff" stroke-width="0.126" fill-rule="evenodd"/><path d="M24.869,12.687h1.994a0.1,0.1,0,0,1,.1.1V13.1a0.1,0.1,0,0,1-.1.1H24.868a0.1,0.1,0,0,1-.1-0.1V12.789A0.1,0.1,0,0,1,24.869,12.687Z" fill="#7dad2a" stroke="#231815" stroke-width="0.053"/><rect x="17.323" y="18.547" width="12.608" height="0.074" fill="#fff"/><path d="M53.2,29.314H51.132v1.407H53.2a0.3,0.3,0,0,0,.3-0.3V29.614A0.3,0.3,0,0,0,53.2,29.314Z" fill="none"/><path d="M53.2,32.656H51.132v1.407H53.2a0.3,0.3,0,0,0,.3-0.3V32.956A0.3,0.3,0,0,0,53.2,32.656Z" fill="none"/><rect x="16.961" y="10.551" width="40.079" height="26.899" fill="none" stroke="#000" stroke-width="0.105"/></svg>