<svg xmlns="http://www.w3.org/2000/svg" width="74" height="48.068" viewBox="0 0 74 48.068"><title>cc-link_lt_aio</title><rect width="74" height="48" fill="#fff"/><rect x="18.748" width="1.677" height="10.019" fill="#477593"/><rect x="13.866" y="14.753" width="46.216" height="33.136" fill="#919191"/><path d="M54.708,18.286a2.025,2.025,0,0,0,2.009,2.029h3.5V14.753H54.708v3.532Z" fill="#717071"/><ellipse cx="57.712" cy="17.147" rx="1.544" ry="1.559" fill="#fff"/><rect x="14.001" y="34.433" width="5.718" height="13.457" fill="#595757"/><rect x="58.572" y="34.433" width="1.644" height="13.457" fill="#333"/><rect x="58.572" y="34.739" width="1.644" height="13.151" fill="#919191"/><rect x="16.232" y="34.739" width="1.242" height="7.269" fill="#717071"/><rect x="14.504" y="34.739" width="1.594" height="6.175" fill="#919191"/><rect x="14.001" y="34.739" width="0.369" height="5.5" fill="#717071"/><ellipse cx="16.859" cy="45.233" rx="1.544" ry="1.559" fill="#fff"/><rect x="17.474" y="34.433" width="41.099" height="13.457" fill="#717071"/><rect x="17.474" y="36.05" width="41.099" height="11.84" fill="#595757"/><rect x="17.474" y="34.433" width="41.099" height="13.457" fill="none" stroke="#4c4948" stroke-width="0.237"/><rect x="18.403" y="36.819" width="3.205" height="5.189" fill="#fff"/><rect x="18.403" y="42.278" width="3.205" height="5.189" fill="#fff"/><rect x="21.877" y="36.819" width="36.12" height="5.189" fill="#fff"/><rect x="21.877" y="42.278" width="36.12" height="5.189" fill="#fff"/><rect x="16.853" y="10.019" width="5.466" height="4.734" fill="#717071"/><polygon points="22.319 14.753 22.319 10.019 16.853 10.019 16.853 14.753 13.866 14.753 13.866 47.89 60.082 47.89 60.082 14.753 22.319 14.753" fill="none" stroke="#000" stroke-width="0.356"/><rect x="41.36" y="32.155" width="7.714" height="0.751" fill="#1f1f1f"/><polygon points="56.029 26.211 34.404 26.211 34.404 32.174 41.517 32.174 41.517 32.771 48.918 32.771 48.918 32.174 56.029 32.174 56.029 26.211" fill="#717071"/><rect x="36.594" y="27.034" width="0.929" height="2.874" fill="#595757"/><rect x="36.725" y="27.498" width="0.666" height="1.009" fill="#ae9a52"/><rect x="38.021" y="27.034" width="0.929" height="2.874" fill="#595757"/><rect x="35.167" y="27.034" width="0.929" height="2.874" fill="#595757"/><rect x="35.298" y="27.498" width="0.666" height="1.009" fill="#ae9a52"/><rect x="38.152" y="27.498" width="0.666" height="1.009" fill="#ae9a52"/><rect x="39.448" y="27.034" width="0.929" height="2.874" fill="#595757"/><rect x="39.579" y="27.498" width="0.666" height="1.009" fill="#ae9a52"/><rect x="40.875" y="27.034" width="0.929" height="2.874" fill="#595757"/><rect x="41.006" y="27.498" width="0.666" height="1.009" fill="#ae9a52"/><rect x="42.302" y="27.034" width="0.929" height="2.874" fill="#595757"/><rect x="42.433" y="27.498" width="0.666" height="1.009" fill="#ae9a52"/><rect x="43.729" y="27.034" width="0.929" height="2.874" fill="#595757"/><rect x="43.86" y="27.498" width="0.666" height="1.009" fill="#ae9a52"/><rect x="45.78" y="27.034" width="0.929" height="2.874" fill="#595757"/><rect x="45.911" y="27.498" width="0.666" height="1.009" fill="#ae9a52"/><rect x="47.206" y="27.034" width="0.929" height="2.874" fill="#595757"/><rect x="47.338" y="27.498" width="0.666" height="1.009" fill="#ae9a52"/><rect x="48.633" y="27.034" width="0.929" height="2.874" fill="#595757"/><rect x="48.764" y="27.498" width="0.666" height="1.009" fill="#ae9a52"/><rect x="50.06" y="27.034" width="0.929" height="2.874" fill="#595757"/><rect x="50.191" y="27.498" width="0.666" height="1.009" fill="#ae9a52"/><rect x="51.487" y="27.034" width="0.929" height="2.874" fill="#595757"/><rect x="51.618" y="27.498" width="0.666" height="1.009" fill="#ae9a52"/><rect x="52.914" y="27.034" width="0.929" height="2.874" fill="#595757"/><rect x="53.045" y="27.498" width="0.666" height="1.009" fill="#ae9a52"/><rect x="54.341" y="27.034" width="0.929" height="2.874" fill="#595757"/><rect x="54.472" y="27.498" width="0.666" height="1.009" fill="#ae9a52"/><ellipse cx="31.348" cy="20.722" rx="0.516" ry="0.521"/><ellipse cx="34.813" cy="20.722" rx="0.516" ry="0.521"/><ellipse cx="38.278" cy="20.722" rx="0.515" ry="0.521"/><ellipse cx="41.743" cy="20.722" rx="0.516" ry="0.521"/></svg>