<?xml version="1.0" encoding="utf-8"?>
<!-- Generator: Adobe Illustrator 22.1.0, SVG Export Plug-In . SVG Version: 6.00 Build 0)  -->
<svg version="1.1" xmlns="http://www.w3.org/2000/svg" xmlns:xlink="http://www.w3.org/1999/xlink" x="0px" y="0px" width="74px"
	 height="48px" viewBox="0 0 74 48" style="enable-background:new 0 0 74 48;" xml:space="preserve">
<style type="text/css">
	.st0{fill:#FFFFFF;}
	.st1{fill:#595959;}
	.st2{fill:#262626;}
	.st3{fill:#404040;}
	.st4{fill:#C7000B;}
	.st5{fill:#1A1A1A;}
	.st6{fill:#0D0D0D;}
	.st7{fill:url(#SVGID_3_);}
	.st8{fill:url(#SVGID_4_);}
	.st9{fill:url(#SVGID_5_);}
	.st10{fill:#333333;}
	.st11{fill:#231815;}
	.st12{fill:#B02A23;}
	.st13{fill:#B3B3B3;}
	.st14{fill:#CCCCCC;}
	.st15{fill:#4D4D4D;}
	.st16{fill:#40B15D;}
	.st17{fill:#32944D;}
	.st18{fill:#2B8846;}
	.st19{fill:#00340C;}
	.st20{fill:#66BA71;}
	.st21{fill:#B98800;}
	.st22{fill:#E8AB00;}
	.st23{fill:#DEDEDE;}
	.st24{clip-path:url(#SVGID_6_);fill:#BFBFBF;}
	.st25{clip-path:url(#SVGID_6_);fill:#1A1A1A;}
	.st26{clip-path:url(#SVGID_6_);fill:#808080;}
	.st27{clip-path:url(#SVGID_7_);fill:#BFBFBF;}
	.st28{clip-path:url(#SVGID_7_);fill:#1A1A1A;}
	.st29{clip-path:url(#SVGID_7_);fill:#808080;}
	.st30{fill:none;stroke:#000000;stroke-width:0.3333;stroke-miterlimit:10;}
</style>
<g id="レイヤー_1">
</g>
<g id="レイヤー_3">
	<rect class="st0" width="74" height="48"/>
</g>
<g id="レイヤー_4">
	<g>
		<g>
			<rect x="0.7" y="10.3" class="st1" width="72.9" height="27"/>
			<path class="st2" d="M72.6,11.1h-0.2c0.1,0,0.2,0.1,0.2,0.2v14.6c0,0.1-0.1,0.2-0.2,0.2H10c-0.1,0-0.2-0.1-0.2-0.2v0.2
				c0,0.1,0.1,0.2,0.2,0.2h62.6c0.1,0,0.2-0.1,0.2-0.2V11.3C72.8,11.2,72.7,11.1,72.6,11.1z"/>
			<path class="st3" d="M10,26.2h62.3c0.1,0,0.2-0.1,0.2-0.2V11.3c0-0.1-0.1-0.2-0.2-0.2H10c-0.1,0-0.2,0.1-0.2,0.2v14.6
				C9.8,26.1,9.9,26.2,10,26.2z"/>
			<rect x="67.8" y="18.3" class="st0" width="4.3" height="1.3"/>
			<rect x="69.9" y="18.4" class="st4" width="2.1" height="1"/>
			<rect x="13.3" y="18.5" class="st4" width="14.2" height="0.3"/>
			<path class="st2" d="M52.1,17.8c0,0.3-0.2,0.5-0.5,0.5H29.7c-0.3,0-0.5-0.2-0.5-0.5v-3.9c0-0.3,0.2-0.5,0.5-0.5h21.9
				c0.3,0,0.5,0.2,0.5,0.5V17.8z"/>
			<path class="st5" d="M52.1,17.2c0,0.3-0.2,0.5-0.5,0.5H29.7c-0.3,0-0.5-0.2-0.5-0.5v-3.3c0-0.3,0.2-0.5,0.5-0.5h21.9
				c0.3,0,0.5,0.2,0.5,0.5V17.2z"/>
			<path class="st6" d="M51.6,16.8c0,0.2-0.2,0.4-0.4,0.4H30.1c-0.2,0-0.4-0.2-0.4-0.4v-2.5c0-0.2,0.2-0.4,0.4-0.4h21.1
				c0.2,0,0.4,0.2,0.4,0.4V16.8z"/>
			<rect x="38.5" y="14.3" class="st6" width="13.1" height="2.5"/>
			<rect x="37.8" y="13.8" class="st2" width="0.7" height="3.3"/>
			<rect x="39.1" y="14.7" width="0.6" height="1.8"/>
			<rect x="39.1" y="15.1" class="st2" width="0.6" height="1"/>
			<rect x="39.1" y="15.6" class="st3" width="0.6" height="0.5"/>
			<rect x="40.3" y="14.7" width="0.6" height="1.8"/>
			<rect x="40.3" y="15.1" class="st2" width="0.6" height="1"/>
			<rect x="40.3" y="15.6" class="st3" width="0.6" height="0.5"/>
			<rect x="41.6" y="14.7" width="0.6" height="1.8"/>
			<rect x="41.6" y="15.1" class="st2" width="0.6" height="1"/>
			<rect x="41.6" y="15.6" class="st3" width="0.6" height="0.5"/>
			<rect x="42.9" y="14.7" width="0.6" height="1.8"/>
			<rect x="42.9" y="15.1" class="st2" width="0.6" height="1"/>
			<rect x="42.9" y="15.6" class="st3" width="0.6" height="0.5"/>
			<rect x="44.1" y="14.7" width="0.6" height="1.8"/>
			<rect x="44.1" y="15.1" class="st2" width="0.6" height="1"/>
			<rect x="44.1" y="15.6" class="st3" width="0.6" height="0.5"/>
			<rect x="45.4" y="14.7" width="0.6" height="1.8"/>
			<rect x="45.4" y="15.1" class="st2" width="0.6" height="1"/>
			<rect x="45.4" y="15.6" class="st3" width="0.6" height="0.5"/>
			<rect x="46.6" y="14.7" width="0.6" height="1.8"/>
			<rect x="46.6" y="15.1" class="st2" width="0.6" height="1"/>
			<rect x="46.6" y="15.6" class="st3" width="0.6" height="0.5"/>
			<rect x="47.9" y="14.7" width="0.6" height="1.8"/>
			<rect x="47.9" y="15.1" class="st2" width="0.6" height="1"/>
			<rect x="47.9" y="15.6" class="st3" width="0.6" height="0.5"/>
			<rect x="49.1" y="14.7" width="0.6" height="1.8"/>
			<rect x="49.1" y="15.1" class="st2" width="0.6" height="1"/>
			<rect x="49.1" y="15.6" class="st3" width="0.6" height="0.5"/>
			<rect x="50.4" y="14.7" width="0.6" height="1.8"/>
			<rect x="50.4" y="15.1" class="st2" width="0.6" height="1"/>
			<rect x="50.4" y="15.6" class="st3" width="0.6" height="0.5"/>
			<path class="st3" d="M34.2,13.9h2.2c0.5,0,1,0.4,1,1v1.3c0,0.5-0.4,1-1,1h-2.2l0,0l0,0v0v-0.2c0,0,0-0.1-0.1-0.1c0,0,0,0,0,0h0
				v-2.5h0c0,0,0,0,0,0c0,0,0.1-0.1,0.1-0.1V14L34.2,13.9L34.2,13.9L34.2,13.9z"/>
			<path class="st3" d="M31.2,13.9h2.2l0.1,0.1v0v0.2c0,0,0,0.1,0.1,0.1c0,0,0,0,0,0h0v2.5h0c0,0,0,0,0,0c0,0-0.1,0.1-0.1,0.1v0.2v0
				l0,0l0,0h-2.2c-0.5,0-1-0.4-1-1v-1.3C30.2,14.4,30.6,13.9,31.2,13.9z"/>
			<circle class="st5" cx="31.8" cy="15.6" r="0.9"/>
			<path class="st3" d="M32.7,15.6c0,0.5-0.4,0.8-0.8,0.8S31,16,31,15.6c0-0.5,0.4-0.8,0.8-0.8S32.7,15.1,32.7,15.6z"/>
			<polygon class="st5" points="32,15.1 31.8,14.9 31.7,15.1 31.4,15.3 31.7,15.3 31.7,16.2 32,16.2 32,15.3 32.2,15.3 			"/>
			<circle class="st5" cx="35.6" cy="15.6" r="0.9"/>
			<path class="st3" d="M36.5,15.6c0,0.5-0.4,0.8-0.8,0.8c-0.5,0-0.8-0.4-0.8-0.8c0-0.5,0.4-0.8,0.8-0.8
				C36.1,14.8,36.5,15.1,36.5,15.6z"/>
			<polygon class="st5" points="35.8,15.1 35.6,14.9 35.5,15.1 35.2,15.3 35.5,15.3 35.5,16.2 35.8,16.2 35.8,15.3 36,15.3 			"/>
			<g>
				<path class="st6" d="M72.5,28.2v-1.5H31.4v10.6h41.1v-6.8C73,29.8,73,28.9,72.5,28.2z"/>
			</g>
			<path class="st5" d="M72,28.2V27H32v8.7h40v-5.2C72.4,29.8,72.4,28.9,72,28.2z"/>
			<linearGradient id="SVGID_3_" gradientUnits="userSpaceOnUse" x1="31.4259" y1="36.6597" x2="72.494" y2="36.6597">
				<stop  offset="0" style="stop-color:#262626"/>
				<stop  offset="0.4" style="stop-color:#333333"/>
				<stop  offset="1" style="stop-color:#262626"/>
			</linearGradient>
			<rect x="31.4" y="36" class="st7" width="41.1" height="1.2"/>
			<g>
				<linearGradient id="SVGID_4_" gradientUnits="userSpaceOnUse" x1="31.9656" y1="29.3257" x2="71.2106" y2="29.3257">
					<stop  offset="0" style="stop-color:#262626"/>
					<stop  offset="0.4" style="stop-color:#333333"/>
					<stop  offset="1" style="stop-color:#262626"/>
				</linearGradient>
				<polygon class="st8" points="32.7,27.4 33.8,27.4 33.8,31.6 34.4,31.6 34.4,27.4 37.5,27.4 37.5,31.6 38.1,31.6 38.1,27.4 
					41.3,27.4 41.3,31.6 41.9,31.6 41.9,27.4 45.1,27.4 45.1,31.6 45.7,31.6 45.7,27.4 48.8,27.4 48.8,31.6 49.4,31.6 49.4,27.4 
					52.6,27.4 52.6,31.6 53.2,31.6 53.2,27.4 56.4,27.4 56.4,31.6 57,31.6 57,27.4 60.1,27.4 60.1,31.6 60.7,31.6 60.7,27.4 
					63.9,27.4 63.9,31.6 64.5,31.6 64.5,27.4 67.7,27.4 67.7,31.6 68.3,31.6 68.3,27.4 71.2,27.4 71.2,27 32,27 32,31.6 32.7,31.6 
									"/>
				<linearGradient id="SVGID_5_" gradientUnits="userSpaceOnUse" x1="31.9772" y1="31.3212" x2="72.3209" y2="31.3212">
					<stop  offset="0" style="stop-color:#262626"/>
					<stop  offset="0.4" style="stop-color:#333333"/>
					<stop  offset="1" style="stop-color:#262626"/>
				</linearGradient>
				<path class="st9" d="M72,28.1V27h-0.8l0,1c0.1,0.1,0.2,0.2,0.3,0.3c0.5,0.7,0.4,1.7-0.3,2.2v1.8h-1.4v0.5h1.4v1.3h-1.4v0.5h1.3
					v0.1h-4.7v-3.6h-0.6v3.6h-3.2v-3.6H62v3.6h-3.2v-3.6h-0.6v3.6h-3.2v-3.6h-0.6v3.6h-3.2v-3.6h-0.6v3.6h-3.2v-3.6H47v3.6h-3.2
					v-3.6h-0.6v3.6H40v-3.6h-0.6v3.6h-3.2v-3.6h-0.6v3.6H32v0.7h40v-0.7v-4.5h0C72.4,29.8,72.4,28.8,72,28.1z"/>
			</g>
			<g>
				<rect x="21.7" y="11.1" class="st0" width="6.2" height="1.2"/>
				<path class="st0" d="M21.7,15.1h5.7c0.1,0,0.3,0,0.3-0.1c0.1-0.1,0.1-0.2,0.1-0.3v-2.3h-6.2V15.1z"/>
			</g>
			<path class="st0" d="M13.3,11.1v3.6c0,0.1,0.1,0.2,0.1,0.3c0.1,0.1,0.2,0.1,0.4,0.1h7.7v-4.1H13.3z"/>
			<path class="st10" d="M15.4,30.6H0.7v0.5h14.2c0.3,0,0.5,0.2,0.5,0.5v5.7h0.5v-6.1C15.8,30.9,15.6,30.6,15.4,30.6z"/>
			<path class="st1" d="M15.4,37.3v-5.7c0-0.3-0.2-0.5-0.5-0.5H0.7v6.1H15.4z"/>
			<g>
				<g id="ARC_1806_">
					<path class="st11" d="M28.8,27.9c0.1,0,0.2,0.1,0.2,0.2v0.5c0,0.1-0.1,0.2-0.2,0.2h-6.4c-0.1,0-0.2-0.1-0.2-0.2v-0.5
						c0-0.1,0.1-0.2,0.2-0.2H28.8"/>
				</g>
				<g id="ARC_1805_">
					<path class="st11" d="M28.8,29.8c0.1,0,0.2,0.1,0.2,0.2v0.5c0,0.1-0.1,0.2-0.2,0.2h-6.4c-0.1,0-0.2-0.1-0.2-0.2v-0.5
						c0-0.1,0.1-0.2,0.2-0.2H28.8"/>
				</g>
				<g id="ARC_1804_">
					<path class="st11" d="M28.8,31.8c0.1,0,0.2,0.1,0.2,0.2v0.5c0,0.1-0.1,0.2-0.2,0.2h-6.4c-0.1,0-0.2-0.1-0.2-0.2v-0.5
						c0-0.1,0.1-0.2,0.2-0.2H28.8"/>
				</g>
			</g>
			<path class="st0" d="M46,18.6h-8.2h-8.2c-0.3,0-0.5,0.2-0.5,0.5v2.1c0,0.3,0.2,0.5,0.5,0.5h8.2H46c0.3,0,0.5-0.2,0.5-0.5v-2.1
				C46.5,18.8,46.3,18.6,46,18.6z M46.4,19.1v0.5h-6.3v-0.8h6C46.2,18.8,46.4,18.9,46.4,19.1z M31.4,19.7h6.3v0.8h-6.3V19.7z
				 M31.3,20.6h-2v-0.8h2V20.6z M37.9,18.8h2v0.8h-2V18.8z M37.7,19.6h-6.3v-0.8h6.3V19.6z M37.7,20.7v0.8h-6.3v-0.8H37.7z
				 M37.9,20.7h2v0.8h-2V20.7z M37.9,20.6v-0.8h2v0.8H37.9z M40.1,19.7h6.3v0.8h-6.3V19.7z M29.6,18.8h1.7v0.8h-2v-0.5
				C29.3,18.9,29.4,18.8,29.6,18.8z M29.3,21.2v-0.5h2v0.8h-1.7C29.4,21.6,29.3,21.4,29.3,21.2z M46,21.6h-6v-0.8h6.3v0.5
				C46.4,21.4,46.2,21.6,46,21.6z"/>
			<path class="st0" d="M61.7,18.6H47.3c-0.3,0-0.5,0.2-0.5,0.5v2.1c0,0.3,0.2,0.5,0.5,0.5h14.4c0.3,0,0.5-0.2,0.5-0.5v-2.1
				C62.2,18.8,62,18.6,61.7,18.6z M62,19.1v0.5h-4.3v-0.8h4C61.9,18.8,62,18.9,62,19.1z M48.5,19.7h1.4v0.8h-1.4V19.7z M48.4,20.6
				h-1.4v-0.8h1.4V20.6z M54.5,19.7H56v0.8h-1.4V19.7z M54.5,19.6v-0.8h3v0.8H54.5z M54.4,19.6h-4.3v-0.8h4.3V19.6z M54.4,19.7v0.8
				h-4.3v-0.8H54.4z M49.9,20.7v0.8h-1.4v-0.8H49.9z M50.1,20.7h4.3v0.8h-4.3V20.7z M54.5,20.7H56v0.8h-1.4V20.7z M56.1,20.7h1.4
				v0.8h-1.4V20.7z M56.1,20.6v-0.8h1.4v0.8H56.1z M57.7,19.7H62v0.8h-4.3V19.7z M47.3,18.8h2.7v0.8h-3v-0.5
				C46.9,18.9,47.1,18.8,47.3,18.8z M46.9,21.2v-0.5h1.4v0.8h-1.1C47.1,21.6,46.9,21.4,46.9,21.2z M61.7,21.6h-4v-0.8H62v0.5
				C62,21.4,61.9,21.6,61.7,21.6z"/>
			<path class="st0" d="M58.2,24.4h-1c-0.2,0-0.3-0.2-0.3-0.3v-0.9c0-0.2,0.2-0.3,0.3-0.3h6.6c0.2,0,0.3,0.2,0.3,0.3v0.9
				c0,0.2-0.2,0.3-0.3,0.3H63c-0.3,0-0.5,0.2-0.5,0.5v0.6c0,0.2-0.2,0.3-0.3,0.3h-3c-0.2,0-0.3-0.2-0.3-0.3v-0.6
				C58.7,24.7,58.5,24.4,58.2,24.4z"/>
			<path class="st0" d="M50.7,24.4h-1c-0.2,0-0.3-0.2-0.3-0.3v-0.9c0-0.2,0.2-0.3,0.3-0.3h6.6c0.2,0,0.3,0.2,0.3,0.3v0.9
				c0,0.2-0.2,0.3-0.3,0.3h-0.8c-0.3,0-0.5,0.2-0.5,0.5v0.6c0,0.2-0.2,0.3-0.3,0.3h-3c-0.2,0-0.3-0.2-0.3-0.3v-0.6
				C51.2,24.7,51,24.4,50.7,24.4z"/>
			<path class="st0" d="M43.1,24.4h-1c-0.2,0-0.3-0.2-0.3-0.3v-0.9c0-0.2,0.2-0.3,0.3-0.3h6.6c0.2,0,0.3,0.2,0.3,0.3v0.9
				c0,0.2-0.2,0.3-0.3,0.3h-0.8c-0.3,0-0.5,0.2-0.5,0.5v0.6c0,0.2-0.2,0.3-0.3,0.3h-3c-0.2,0-0.3-0.2-0.3-0.3v-0.6
				C43.6,24.7,43.4,24.4,43.1,24.4z"/>
			<path class="st0" d="M35.6,24.4h-1c-0.2,0-0.3-0.2-0.3-0.3v-0.9c0-0.2,0.2-0.3,0.3-0.3h6.6c0.2,0,0.3,0.2,0.3,0.3v0.9
				c0,0.2-0.2,0.3-0.3,0.3h-0.8c-0.3,0-0.5,0.2-0.5,0.5v0.6c0,0.2-0.2,0.3-0.3,0.3h-3c-0.2,0-0.3-0.2-0.3-0.3v-0.6
				C36.1,24.7,35.9,24.4,35.6,24.4z"/>
			<g>
				<path class="st12" d="M63.8,24.3c0.1,0,0.2-0.1,0.2-0.2v-0.9c0-0.1-0.1-0.2-0.2-0.2h-3.2v1.3L63.8,24.3z"/>
			</g>
			<g>
				<path class="st12" d="M60.4,24.3V23h-3.2C57.1,23,57,23,57,23.1v0.9c0,0.1,0.1,0.2,0.2,0.2L60.4,24.3z"/>
			</g>
			<g>
				<path class="st12" d="M56.3,24.3c0.1,0,0.2-0.1,0.2-0.2v-0.9c0-0.1-0.1-0.2-0.2-0.2H53v1.3L56.3,24.3z"/>
			</g>
			<g>
				<path class="st12" d="M52.9,24.3V23h-3.2c-0.1,0-0.2,0.1-0.2,0.2v0.9c0,0.1,0.1,0.2,0.2,0.2L52.9,24.3z"/>
			</g>
			<g>
				<path class="st12" d="M48.7,24.3c0.1,0,0.2-0.1,0.2-0.2v-0.9c0-0.1-0.1-0.2-0.2-0.2h-3.2v1.3L48.7,24.3z"/>
			</g>
			<g>
				<path class="st12" d="M45.3,24.3V23h-3.2c-0.1,0-0.2,0.1-0.2,0.2v0.9c0,0.1,0.1,0.2,0.2,0.2L45.3,24.3z"/>
			</g>
			<g>
				<path class="st12" d="M41.1,24.3c0.1,0,0.2-0.1,0.2-0.2v-0.9c0-0.1-0.1-0.2-0.2-0.2h-3.2v1.3L41.1,24.3z"/>
			</g>
			<g>
				<path class="st12" d="M37.8,24.3V23h-3.2c-0.1,0-0.2,0.1-0.2,0.2v0.9c0,0.1,0.1,0.2,0.2,0.2L37.8,24.3z"/>
			</g>
			<g>
				<path class="st12" d="M58.6,24.4c0.1,0.1,0.2,0.3,0.2,0.5v0.6c0,0.1,0.1,0.2,0.2,0.2h3c0.1,0,0.2-0.1,0.2-0.2v-0.6
					c0-0.2,0.1-0.4,0.2-0.5H58.6z"/>
			</g>
			<g>
				<path class="st12" d="M51.1,24.4c0.1,0.1,0.2,0.3,0.2,0.5v0.6c0,0.1,0.1,0.2,0.2,0.2h3c0.1,0,0.2-0.1,0.2-0.2v-0.6
					c0-0.2,0.1-0.4,0.2-0.5H51.1z"/>
			</g>
			<g>
				<path class="st12" d="M43.5,24.4c0.1,0.1,0.2,0.3,0.2,0.5v0.6c0,0.1,0.1,0.2,0.2,0.2h3c0.1,0,0.2-0.1,0.2-0.2v-0.6
					c0-0.2,0.1-0.4,0.2-0.5H43.5z"/>
			</g>
			<g>
				<path class="st12" d="M36,24.4c0.1,0.1,0.2,0.3,0.2,0.5v0.6c0,0.1,0.1,0.2,0.2,0.2h3c0.1,0,0.2-0.1,0.2-0.2v-0.6
					c0-0.2,0.1-0.4,0.2-0.5H36z"/>
			</g>
			<g>
				<path class="st0" d="M29.1,12.3v0.8h1.8v-1.3h-1.3C29.3,11.8,29.1,12,29.1,12.3z"/>
				<path class="st0" d="M37.6,11.8h-1v1.3h1.5v-0.8C38.1,12,37.8,11.8,37.6,11.8z"/>
				<rect x="31.1" y="11.8" class="st0" width="5.4" height="1.3"/>
			</g>
			<g>
				<path class="st0" d="M41.4,12.6v0.5h1.1v-0.9h-0.7C41.5,12.2,41.4,12.4,41.4,12.6z"/>
				<path class="st0" d="M43.3,12.2h-0.7v0.9h1.1v-0.5C43.7,12.4,43.5,12.2,43.3,12.2z"/>
				<path class="st0" d="M43.9,12.6v0.5H45v-0.9h-0.7C44.1,12.2,43.9,12.4,43.9,12.6z"/>
				<path class="st0" d="M45.8,12.2h-0.7v0.9h1.1v-0.5C46.2,12.4,46,12.2,45.8,12.2z"/>
				<path class="st0" d="M46.4,12.6v0.5h1.1v-0.9h-0.7C46.6,12.2,46.4,12.4,46.4,12.6z"/>
				<path class="st0" d="M48.3,12.2h-0.7v0.9h1.1v-0.5C48.7,12.4,48.5,12.2,48.3,12.2z"/>
				<path class="st0" d="M48.9,12.6v0.5H50v-0.9h-0.7C49.1,12.2,48.9,12.4,48.9,12.6z"/>
				<path class="st0" d="M50.9,12.2h-0.7v0.9h1.1v-0.5C51.2,12.4,51.1,12.2,50.9,12.2z"/>
			</g>
			<g>
				<g>
					<path class="st13" d="M34.6,29.4c0-0.7,0.6-1.3,1.3-1.3c0.7,0,1.3,0.6,1.3,1.3c0,0.7-0.6,1.3-1.3,1.3
						C35.2,30.8,34.6,30.2,34.6,29.4z"/>
					<path class="st14" d="M35.1,29.4c0-0.5,0.4-0.8,0.8-0.8c0.5,0,0.8,0.4,0.8,0.8c0,0.5-0.4,0.8-0.8,0.8
						C35.5,30.3,35.1,29.9,35.1,29.4z"/>
					<path class="st15" d="M35.7,28.7v0.4c0,0.1-0.1,0.1-0.1,0.1h-1v0.4h1c0.1,0,0.1,0.1,0.1,0.1v0.4h0.4v-0.4
						c0-0.1,0.1-0.1,0.1-0.1h1v-0.4h-1c-0.1,0-0.1-0.1-0.1-0.1v-0.4H35.7z"/>
				</g>
				<g>
					<path class="st13" d="M38.4,29.4c0-0.7,0.6-1.3,1.3-1.3c0.7,0,1.3,0.6,1.3,1.3c0,0.7-0.6,1.3-1.3,1.3
						C39,30.8,38.4,30.2,38.4,29.4z"/>
					<path class="st14" d="M38.9,29.4c0-0.5,0.4-0.8,0.8-0.8c0.5,0,0.8,0.4,0.8,0.8c0,0.5-0.4,0.8-0.8,0.8
						C39.3,30.3,38.9,29.9,38.9,29.4z"/>
					<path class="st15" d="M39.5,28.7v0.4c0,0.1-0.1,0.1-0.1,0.1h-1v0.4h1c0.1,0,0.1,0.1,0.1,0.1v0.4h0.4v-0.4
						c0-0.1,0.1-0.1,0.1-0.1h1v-0.4h-1c-0.1,0-0.1-0.1-0.1-0.1v-0.4H39.5z"/>
				</g>
				<g>
					<path class="st13" d="M42.2,29.4c0-0.7,0.6-1.3,1.3-1.3c0.7,0,1.3,0.6,1.3,1.3c0,0.7-0.6,1.3-1.3,1.3
						C42.8,30.8,42.2,30.2,42.2,29.4z"/>
					<path class="st14" d="M42.7,29.4c0-0.5,0.4-0.8,0.8-0.8c0.5,0,0.8,0.4,0.8,0.8c0,0.5-0.4,0.8-0.8,0.8
						C43,30.3,42.7,29.9,42.7,29.4z"/>
					<path class="st15" d="M43.3,28.7v0.4c0,0.1-0.1,0.1-0.1,0.1h-1v0.4h1c0.1,0,0.1,0.1,0.1,0.1v0.4h0.4v-0.4
						c0-0.1,0.1-0.1,0.1-0.1h1v-0.4h-1c-0.1,0-0.1-0.1-0.1-0.1v-0.4H43.3z"/>
				</g>
				<g>
					<path class="st13" d="M45.9,29.4c0-0.7,0.6-1.3,1.3-1.3c0.7,0,1.3,0.6,1.3,1.3c0,0.7-0.6,1.3-1.3,1.3
						C46.5,30.8,45.9,30.2,45.9,29.4z"/>
					<path class="st14" d="M46.4,29.4c0-0.5,0.4-0.8,0.8-0.8c0.5,0,0.8,0.4,0.8,0.8c0,0.5-0.4,0.8-0.8,0.8
						C46.8,30.3,46.4,29.9,46.4,29.4z"/>
					<path class="st15" d="M47,28.7v0.4c0,0.1-0.1,0.1-0.1,0.1h-1v0.4h1c0.1,0,0.1,0.1,0.1,0.1v0.4h0.4v-0.4c0-0.1,0.1-0.1,0.1-0.1
						h1v-0.4h-1c-0.1,0-0.1-0.1-0.1-0.1v-0.4H47z"/>
				</g>
				<g>
					<path class="st13" d="M49.7,29.4c0-0.7,0.6-1.3,1.3-1.3c0.7,0,1.3,0.6,1.3,1.3c0,0.7-0.6,1.3-1.3,1.3
						C50.3,30.8,49.7,30.2,49.7,29.4z"/>
					<path class="st14" d="M50.2,29.4c0-0.5,0.4-0.8,0.8-0.8c0.5,0,0.8,0.4,0.8,0.8c0,0.5-0.4,0.8-0.8,0.8
						C50.6,30.3,50.2,29.9,50.2,29.4z"/>
					<path class="st15" d="M50.8,28.7v0.4c0,0.1-0.1,0.1-0.1,0.1h-1v0.4h1c0.1,0,0.1,0.1,0.1,0.1v0.4h0.4v-0.4
						c0-0.1,0.1-0.1,0.1-0.1h1v-0.4h-1c-0.1,0-0.1-0.1-0.1-0.1v-0.4H50.8z"/>
				</g>
				<g>
					<path class="st13" d="M53.5,29.4c0-0.7,0.6-1.3,1.3-1.3c0.7,0,1.3,0.6,1.3,1.3c0,0.7-0.6,1.3-1.3,1.3
						C54.1,30.8,53.5,30.2,53.5,29.4z"/>
					<path class="st14" d="M54,29.4c0-0.5,0.4-0.8,0.8-0.8c0.5,0,0.8,0.4,0.8,0.8c0,0.5-0.4,0.8-0.8,0.8C54.3,30.3,54,29.9,54,29.4z
						"/>
					<path class="st15" d="M54.6,28.7v0.4c0,0.1-0.1,0.1-0.1,0.1h-1v0.4h1c0.1,0,0.1,0.1,0.1,0.1v0.4H55v-0.4c0-0.1,0.1-0.1,0.1-0.1
						h1v-0.4h-1c-0.1,0-0.1-0.1-0.1-0.1v-0.4H54.6z"/>
				</g>
				<g>
					<path class="st13" d="M57.2,29.4c0-0.7,0.6-1.3,1.3-1.3c0.7,0,1.3,0.6,1.3,1.3c0,0.7-0.6,1.3-1.3,1.3
						C57.8,30.8,57.2,30.2,57.2,29.4z"/>
					<path class="st14" d="M57.7,29.4c0-0.5,0.4-0.8,0.8-0.8c0.5,0,0.8,0.4,0.8,0.8c0,0.5-0.4,0.8-0.8,0.8
						C58.1,30.3,57.7,29.9,57.7,29.4z"/>
					<path class="st15" d="M58.3,28.7v0.4c0,0.1-0.1,0.1-0.1,0.1h-1v0.4h1c0.1,0,0.1,0.1,0.1,0.1v0.4h0.4v-0.4
						c0-0.1,0.1-0.1,0.1-0.1h1v-0.4h-1c-0.1,0-0.1-0.1-0.1-0.1v-0.4H58.3z"/>
				</g>
				<g>
					<path class="st13" d="M61,29.4c0-0.7,0.6-1.3,1.3-1.3c0.7,0,1.3,0.6,1.3,1.3c0,0.7-0.6,1.3-1.3,1.3C61.6,30.8,61,30.2,61,29.4z
						"/>
					<path class="st14" d="M61.5,29.4c0-0.5,0.4-0.8,0.8-0.8c0.5,0,0.8,0.4,0.8,0.8c0,0.5-0.4,0.8-0.8,0.8
						C61.9,30.3,61.5,29.9,61.5,29.4z"/>
					<path class="st15" d="M62.1,28.7v0.4c0,0.1-0.1,0.1-0.1,0.1h-1v0.4h1c0.1,0,0.1,0.1,0.1,0.1v0.4h0.4v-0.4
						c0-0.1,0.1-0.1,0.1-0.1h1v-0.4h-1c-0.1,0-0.1-0.1-0.1-0.1v-0.4H62.1z"/>
				</g>
				<g>
					<path class="st13" d="M64.8,29.4c0-0.7,0.6-1.3,1.3-1.3c0.7,0,1.3,0.6,1.3,1.3c0,0.7-0.6,1.3-1.3,1.3
						C65.4,30.8,64.8,30.2,64.8,29.4z"/>
					<path class="st14" d="M65.3,29.4c0-0.5,0.4-0.8,0.8-0.8c0.5,0,0.8,0.4,0.8,0.8c0,0.5-0.4,0.8-0.8,0.8
						C65.6,30.3,65.3,29.9,65.3,29.4z"/>
					<path class="st15" d="M65.9,28.7v0.4c0,0.1-0.1,0.1-0.1,0.1h-1v0.4h1c0.1,0,0.1,0.1,0.1,0.1v0.4h0.4v-0.4
						c0-0.1,0.1-0.1,0.1-0.1h1v-0.4h-1c-0.1,0-0.1-0.1-0.1-0.1v-0.4H65.9z"/>
				</g>
				<g>
					<path class="st13" d="M32.7,33.3c0-0.7,0.6-1.3,1.3-1.3c0.7,0,1.3,0.6,1.3,1.3c0,0.7-0.6,1.3-1.3,1.3
						C33.3,34.6,32.7,34,32.7,33.3z"/>
					<path class="st14" d="M33.2,33.3c0-0.5,0.4-0.8,0.8-0.8c0.5,0,0.8,0.4,0.8,0.8c0,0.5-0.4,0.8-0.8,0.8
						C33.6,34.1,33.2,33.7,33.2,33.3z"/>
					<path class="st15" d="M33.9,32.5v0.4c0,0.1-0.1,0.1-0.1,0.1h-1v0.4h1c0.1,0,0.1,0.1,0.1,0.1V34h0.4v-0.4c0-0.1,0.1-0.1,0.1-0.1
						h1v-0.4h-1c-0.1,0-0.1-0.1-0.1-0.1v-0.4H33.9z"/>
				</g>
				<g>
					<path class="st13" d="M36.5,33.3c0-0.7,0.6-1.3,1.3-1.3c0.7,0,1.3,0.6,1.3,1.3c0,0.7-0.6,1.3-1.3,1.3
						C37.1,34.6,36.5,34,36.5,33.3z"/>
					<path class="st14" d="M37,33.3c0-0.5,0.4-0.8,0.8-0.8c0.5,0,0.8,0.4,0.8,0.8c0,0.5-0.4,0.8-0.8,0.8C37.4,34.1,37,33.7,37,33.3z
						"/>
					<path class="st15" d="M37.6,32.5v0.4c0,0.1-0.1,0.1-0.1,0.1h-1v0.4h1c0.1,0,0.1,0.1,0.1,0.1V34h0.4v-0.4c0-0.1,0.1-0.1,0.1-0.1
						h1v-0.4h-1c-0.1,0-0.1-0.1-0.1-0.1v-0.4H37.6z"/>
				</g>
				<g>
					<path class="st13" d="M40.3,33.3c0-0.7,0.6-1.3,1.3-1.3c0.7,0,1.3,0.6,1.3,1.3c0,0.7-0.6,1.3-1.3,1.3
						C40.9,34.6,40.3,34,40.3,33.3z"/>
					<path class="st14" d="M40.8,33.3c0-0.5,0.4-0.8,0.8-0.8c0.5,0,0.8,0.4,0.8,0.8c0,0.5-0.4,0.8-0.8,0.8
						C41.1,34.1,40.8,33.7,40.8,33.3z"/>
					<path class="st15" d="M41.4,32.5v0.4c0,0.1-0.1,0.1-0.1,0.1h-1v0.4h1c0.1,0,0.1,0.1,0.1,0.1V34h0.4v-0.4c0-0.1,0.1-0.1,0.1-0.1
						h1v-0.4h-1c-0.1,0-0.1-0.1-0.1-0.1v-0.4H41.4z"/>
				</g>
				<g>
					<path class="st13" d="M44,33.3c0-0.7,0.6-1.3,1.3-1.3c0.7,0,1.3,0.6,1.3,1.3c0,0.7-0.6,1.3-1.3,1.3C44.6,34.6,44,34,44,33.3z"
						/>
					<path class="st14" d="M44.5,33.3c0-0.5,0.4-0.8,0.8-0.8c0.5,0,0.8,0.4,0.8,0.8c0,0.5-0.4,0.8-0.8,0.8
						C44.9,34.1,44.5,33.7,44.5,33.3z"/>
					<path class="st15" d="M45.2,32.5v0.4c0,0.1-0.1,0.1-0.1,0.1h-1v0.4h1c0.1,0,0.1,0.1,0.1,0.1V34h0.4v-0.4c0-0.1,0.1-0.1,0.1-0.1
						h1v-0.4h-1c-0.1,0-0.1-0.1-0.1-0.1v-0.4H45.2z"/>
				</g>
				<g>
					<path class="st13" d="M47.8,33.3c0-0.7,0.6-1.3,1.3-1.3c0.7,0,1.3,0.6,1.3,1.3c0,0.7-0.6,1.3-1.3,1.3
						C48.4,34.6,47.8,34,47.8,33.3z"/>
					<path class="st14" d="M48.3,33.3c0-0.5,0.4-0.8,0.8-0.8c0.5,0,0.8,0.4,0.8,0.8c0,0.5-0.4,0.8-0.8,0.8
						C48.7,34.1,48.3,33.7,48.3,33.3z"/>
					<path class="st15" d="M48.9,32.5v0.4c0,0.1-0.1,0.1-0.1,0.1h-1v0.4h1c0.1,0,0.1,0.1,0.1,0.1V34h0.4v-0.4c0-0.1,0.1-0.1,0.1-0.1
						h1v-0.4h-1c-0.1,0-0.1-0.1-0.1-0.1v-0.4H48.9z"/>
				</g>
				<g>
					<path class="st13" d="M51.6,33.3c0-0.7,0.6-1.3,1.3-1.3c0.7,0,1.3,0.6,1.3,1.3c0,0.7-0.6,1.3-1.3,1.3
						C52.2,34.6,51.6,34,51.6,33.3z"/>
					<path class="st14" d="M52.1,33.3c0-0.5,0.4-0.8,0.8-0.8c0.5,0,0.8,0.4,0.8,0.8c0,0.5-0.4,0.8-0.8,0.8
						C52.4,34.1,52.1,33.7,52.1,33.3z"/>
					<path class="st15" d="M52.7,32.5v0.4c0,0.1-0.1,0.1-0.1,0.1h-1v0.4h1c0.1,0,0.1,0.1,0.1,0.1V34h0.4v-0.4c0-0.1,0.1-0.1,0.1-0.1
						h1v-0.4h-1c-0.1,0-0.1-0.1-0.1-0.1v-0.4H52.7z"/>
				</g>
				<g>
					<path class="st13" d="M55.3,33.3c0-0.7,0.6-1.3,1.3-1.3c0.7,0,1.3,0.6,1.3,1.3c0,0.7-0.6,1.3-1.3,1.3
						C55.9,34.6,55.3,34,55.3,33.3z"/>
					<path class="st14" d="M55.8,33.3c0-0.5,0.4-0.8,0.8-0.8c0.5,0,0.8,0.4,0.8,0.8c0,0.5-0.4,0.8-0.8,0.8
						C56.2,34.1,55.8,33.7,55.8,33.3z"/>
					<path class="st15" d="M56.5,32.5v0.4c0,0.1-0.1,0.1-0.1,0.1h-1v0.4h1c0.1,0,0.1,0.1,0.1,0.1V34h0.4v-0.4c0-0.1,0.1-0.1,0.1-0.1
						h1v-0.4h-1c-0.1,0-0.1-0.1-0.1-0.1v-0.4H56.5z"/>
				</g>
				<g>
					<path class="st13" d="M59.1,33.3c0-0.7,0.6-1.3,1.3-1.3c0.7,0,1.3,0.6,1.3,1.3c0,0.7-0.6,1.3-1.3,1.3
						C59.7,34.6,59.1,34,59.1,33.3z"/>
					<path class="st14" d="M59.6,33.3c0-0.5,0.4-0.8,0.8-0.8c0.5,0,0.8,0.4,0.8,0.8c0,0.5-0.4,0.8-0.8,0.8
						C60,34.1,59.6,33.7,59.6,33.3z"/>
					<path class="st15" d="M60.2,32.5v0.4c0,0.1-0.1,0.1-0.1,0.1h-1v0.4h1c0.1,0,0.1,0.1,0.1,0.1V34h0.4v-0.4c0-0.1,0.1-0.1,0.1-0.1
						h1v-0.4h-1c-0.1,0-0.1-0.1-0.1-0.1v-0.4H60.2z"/>
				</g>
				<g>
					<path class="st13" d="M62.9,33.3c0-0.7,0.6-1.3,1.3-1.3c0.7,0,1.3,0.6,1.3,1.3c0,0.7-0.6,1.3-1.3,1.3
						C63.5,34.6,62.9,34,62.9,33.3z"/>
					<path class="st14" d="M63.4,33.3c0-0.5,0.4-0.8,0.8-0.8c0.5,0,0.8,0.4,0.8,0.8c0,0.5-0.4,0.8-0.8,0.8
						C63.7,34.1,63.4,33.7,63.4,33.3z"/>
					<path class="st15" d="M64,32.5v0.4c0,0.1-0.1,0.1-0.1,0.1h-1v0.4h1c0.1,0,0.1,0.1,0.1,0.1V34h0.4v-0.4c0-0.1,0.1-0.1,0.1-0.1h1
						v-0.4h-1c-0.1,0-0.1-0.1-0.1-0.1v-0.4H64z"/>
				</g>
				<g>
					<path class="st13" d="M66.6,33.3c0-0.7,0.6-1.3,1.3-1.3c0.7,0,1.3,0.6,1.3,1.3c0,0.7-0.6,1.3-1.3,1.3
						C67.2,34.6,66.6,34,66.6,33.3z"/>
					<path class="st14" d="M67.1,33.3c0-0.5,0.4-0.8,0.8-0.8c0.5,0,0.8,0.4,0.8,0.8c0,0.5-0.4,0.8-0.8,0.8
						C67.5,34.1,67.1,33.7,67.1,33.3z"/>
					<path class="st15" d="M67.8,32.5v0.4c0,0.1-0.1,0.1-0.1,0.1h-1v0.4h1c0.1,0,0.1,0.1,0.1,0.1V34h0.4v-0.4c0-0.1,0.1-0.1,0.1-0.1
						h1v-0.4h-1c-0.1,0-0.1-0.1-0.1-0.1v-0.4H67.8z"/>
				</g>
				<g>
					<path class="st13" d="M68.7,29.3c0-0.8,0.6-1.4,1.4-1.4c0.8,0,1.4,0.6,1.4,1.4c0,0.8-0.6,1.4-1.4,1.4
						C69.3,30.8,68.7,30.1,68.7,29.3z"/>
					<path class="st14" d="M69.4,29.3c0-0.4,0.3-0.7,0.7-0.7c0.4,0,0.7,0.3,0.7,0.7S70.5,30,70.1,30C69.7,30,69.4,29.7,69.4,29.3z"
						/>
					<path class="st15" d="M69.9,28.6V29c0,0.1-0.1,0.1-0.1,0.1h-1v0.4h1c0.1,0,0.1,0.1,0.1,0.1V30h0.4v-0.4c0-0.1,0.1-0.1,0.1-0.1
						l1.1,0v-0.4l-1.1,0c-0.1,0-0.1-0.1-0.1-0.1v-0.4H69.9z"/>
				</g>
			</g>
			<g>
				<rect x="4.8" y="31.4" class="st16" width="5.6" height="6.1"/>
				<rect x="2.4" y="32.7" class="st17" width="2.3" height="3"/>
				<rect x="10.4" y="32.7" class="st17" width="2.3" height="3"/>
				<g>
					<path class="st18" d="M6.5,35.9c-0.2-0.3-0.4-0.4-0.7-0.4c-0.3,0-0.6,0.2-0.7,0.4v0.9c0.2,0.3,0.4,0.4,0.7,0.4
						c0.3,0,0.6-0.2,0.7-0.4V35.9z"/>
					<path class="st19" d="M6.3,36.8c0.1-0.1,0.2-0.3,0.2-0.5c0-0.2-0.1-0.3-0.2-0.5H5.2C5.1,36,5,36.2,5,36.4
						c0,0.2,0.1,0.3,0.2,0.5H6.3z"/>
				</g>
				<g>
					<path class="st18" d="M8.2,35.9c-0.2-0.3-0.4-0.4-0.7-0.4c-0.3,0-0.6,0.2-0.7,0.4v0.9c0.2,0.3,0.4,0.4,0.7,0.4
						c0.3,0,0.6-0.2,0.7-0.4V35.9z"/>
					<path class="st19" d="M8,36.8c0.1-0.1,0.2-0.3,0.2-0.5c0-0.2-0.1-0.3-0.2-0.5H6.9c-0.1,0.1-0.2,0.3-0.2,0.5
						c0,0.2,0.1,0.3,0.2,0.5H8z"/>
				</g>
				<g>
					<path class="st18" d="M10,35.9c-0.2-0.3-0.4-0.4-0.7-0.4c-0.3,0-0.6,0.2-0.7,0.4v0.9c0.2,0.3,0.4,0.4,0.7,0.4
						c0.3,0,0.6-0.2,0.7-0.4V35.9z"/>
					<path class="st19" d="M9.7,36.8c0.1-0.1,0.2-0.3,0.2-0.5c0-0.2-0.1-0.3-0.2-0.5H8.7c-0.1,0.1-0.2,0.3-0.2,0.5
						c0,0.2,0.1,0.3,0.2,0.5H9.7z"/>
				</g>
				<g>
					<rect x="4.8" y="34.2" class="st20" width="0.3" height="1.2"/>
					<rect x="10.1" y="34.2" class="st20" width="0.3" height="1.2"/>
					<rect x="8.3" y="34.2" class="st20" width="0.3" height="1.2"/>
					<rect x="8.7" y="34.3" class="st21" width="1.4" height="0.9"/>
					<rect x="8.7" y="34.4" class="st22" width="1.4" height="0.2"/>
					<rect x="8.7" y="35" class="st22" width="1.4" height="0.2"/>
					<rect x="6.5" y="34.2" class="st20" width="0.3" height="1.2"/>
					<rect x="4.8" y="35.3" class="st20" width="0.3" height="0.3"/>
					<rect x="10.1" y="35.3" class="st20" width="0.3" height="0.3"/>
					<rect x="8.3" y="35.3" class="st20" width="0.3" height="0.3"/>
					<rect x="6.5" y="35.3" class="st20" width="0.3" height="0.3"/>
					<rect x="6.9" y="34.3" class="st21" width="1.4" height="0.9"/>
					<rect x="6.9" y="34.4" class="st22" width="1.4" height="0.2"/>
					<rect x="6.9" y="35" class="st22" width="1.4" height="0.2"/>
					<rect x="5.1" y="34.4" class="st21" width="1.4" height="0.9"/>
					<rect x="5.1" y="34.4" class="st22" width="1.4" height="0.2"/>
					<rect x="5.1" y="35" class="st22" width="1.4" height="0.2"/>
				</g>
				<g>
					<path class="st5" d="M3.6,33.2c0.5,0,1,0.4,1,1c0,0.5-0.4,1-1,1c-0.5,0-1-0.4-1-1C2.6,33.7,3.1,33.2,3.6,33.2z"/>
					<path class="st23" d="M3.6,33.3c0.5,0,0.9,0.4,0.9,0.9c0,0.5-0.4,0.9-0.9,0.9c-0.5,0-0.9-0.4-0.9-0.9
						C2.7,33.7,3.1,33.3,3.6,33.3z"/>
					<g>
						<path class="st10" d="M4.1,33.5l-1.3,1.3C2.9,34.8,3,34.9,3.1,35l1.3-1.3C4.3,33.6,4.2,33.5,4.1,33.5z"/>
					</g>
				</g>
				<g>
					<path class="st5" d="M11.6,33.2c0.5,0,1,0.4,1,1c0,0.5-0.4,1-1,1c-0.5,0-1-0.4-1-1C10.6,33.7,11,33.2,11.6,33.2z"/>
					<path class="st23" d="M11.6,33.3c0.5,0,0.9,0.4,0.9,0.9c0,0.5-0.4,0.9-0.9,0.9c-0.5,0-0.9-0.4-0.9-0.9
						C10.7,33.7,11.1,33.3,11.6,33.3z"/>
					<g>
						<path class="st10" d="M12.1,33.5l-1.3,1.3c0.1,0.1,0.1,0.2,0.2,0.2l1.3-1.3C12.3,33.6,12.2,33.5,12.1,33.5z"/>
					</g>
				</g>
				<g>
					<path class="st18" d="M5.9,31.7c-0.2,0-0.4,0.2-0.4,0.4h0v0.4h0.7V32C6.2,31.8,6.1,31.7,5.9,31.7z"/>
					<path class="st19" d="M6.1,32c0-0.1-0.1-0.2-0.2-0.2c-0.1,0-0.2,0.1-0.2,0.2h0v0.3h0.5L6.1,32L6.1,32z"/>
					<path class="st18" d="M7.6,31.7c-0.2,0-0.4,0.2-0.4,0.4h0v0.4H8V32C8,31.8,7.8,31.7,7.6,31.7z"/>
					<path class="st19" d="M7.9,32c0-0.1-0.1-0.2-0.2-0.2c-0.1,0-0.2,0.1-0.2,0.2h0v0.3h0.5L7.9,32L7.9,32z"/>
					<path class="st18" d="M9.3,31.7C9.1,31.7,9,31.8,9,32h0v0.4h0.7V32C9.7,31.8,9.5,31.7,9.3,31.7z"/>
					<path class="st19" d="M9.6,32c0-0.1-0.1-0.2-0.2-0.2c-0.1,0-0.2,0.1-0.2,0.2h0v0.3h0.5L9.6,32L9.6,32z"/>
				</g>
			</g>
			<g>
				<path d="M9.3,20.3c0,0.3-0.2,0.5-0.5,0.5H2.3c-0.3,0-0.5-0.2-0.5-0.5v-7.4c0-0.3,0.2-0.5,0.5-0.5h6.5c0.3,0,0.5,0.2,0.5,0.5
					V20.3z"/>
				<g>
					<defs>
						<path id="SVGID_2_" d="M9.3,20.3c0,0.3-0.2,0.5-0.5,0.5H2.3c-0.3,0-0.5-0.2-0.5-0.5v-7.4c0-0.3,0.2-0.5,0.5-0.5h6.5
							c0.3,0,0.5,0.2,0.5,0.5V20.3z"/>
					</defs>
					<clipPath id="SVGID_6_">
						<use xlink:href="#SVGID_2_"  style="overflow:visible;"/>
					</clipPath>
					<polygon class="st24" points="2.8,12.6 2.8,15.6 3.2,15.6 3.2,17.5 2.8,17.5 2.8,20.4 9.6,20.4 9.6,12.6 					"/>
					<polygon class="st25" points="3.2,14.7 4,14.7 4,13.7 7.7,13.7 7.7,19.4 4,19.4 4,18.3 3.2,18.3 					"/>
					<path class="st26" d="M2.6,12.5v2.9v0.2h0.2h0.3h0.2v-0.2v-0.6h0.8v-1l3.4,0v5.5l-3.4,0v-1H3.3v-0.6v-0.2H3.1H2.9H2.6v0.2v2.9
						l7.1,0v-8L2.6,12.5z M9.5,20.3l-6.6,0v-2.7h0.3v0.6v0.2h0.2h0.6v1l3.9,0v-5.9l-3.9,0v1H3.3H3.1v0.2v0.6H2.9v-2.7l6.6,0V20.3z"
						/>
				</g>
				<path class="st10" d="M1.2,15.2c0,0.1-0.1,0.1-0.1,0.2v2.3c0,0.1,0,0.2,0.1,0.2l0.7,0.8v-4.2L1.2,15.2z"/>
				<path d="M9.3,29.5C9.3,29.8,9,30,8.8,30H2.3c-0.3,0-0.5-0.2-0.5-0.5v-7.4c0-0.3,0.2-0.5,0.5-0.5h6.5c0.3,0,0.5,0.2,0.5,0.5V29.5
					z"/>
				<g>
					<defs>
						<path id="SVGID_1_" d="M9.3,29.5C9.3,29.8,9,30,8.8,30H2.3c-0.3,0-0.5-0.2-0.5-0.5v-7.4c0-0.3,0.2-0.5,0.5-0.5h6.5
							c0.3,0,0.5,0.2,0.5,0.5V29.5z"/>
					</defs>
					<clipPath id="SVGID_7_">
						<use xlink:href="#SVGID_1_"  style="overflow:visible;"/>
					</clipPath>
					<polygon class="st27" points="2.8,21.8 2.8,24.8 3.2,24.8 3.2,26.7 2.8,26.7 2.8,29.7 9.6,29.7 9.6,21.9 					"/>
					<polygon class="st28" points="3.2,23.9 4,23.9 4,22.9 7.7,22.9 7.7,28.6 4,28.6 4,27.6 3.2,27.6 					"/>
					<path class="st29" d="M2.6,21.7v2.9v0.2h0.2h0.3h0.2v-0.2v-0.6h0.8v-1l3.4,0v5.5l-3.4,0v-1H3.3v-0.6v-0.2H3.1H2.9H2.6v0.2v2.9
						l7.1,0v-8L2.6,21.7z M9.5,29.6l-6.6,0v-2.7h0.3v0.6v0.2h0.2h0.6v1l3.9,0v-5.9l-3.9,0v1H3.3H3.1v0.2v0.6H2.9V22l6.6,0V29.6z"/>
				</g>
				<path class="st10" d="M1.2,24.4c0,0.1-0.1,0.1-0.1,0.2v2.3c0,0.1,0,0.2,0.1,0.2l0.7,0.8v-4.2L1.2,24.4z"/>
			</g>
			<g>
				<g>
					<rect x="14.3" y="13.6" width="0.8" height="1.3"/>
					<rect x="16.3" y="13.6" width="0.8" height="1.3"/>
					<rect x="18.2" y="13.6" width="0.8" height="1.3"/>
					<rect x="20.2" y="13.6" width="0.8" height="1.3"/>
				</g>
				<g>
					<rect x="22.2" y="13.6" width="0.8" height="1.3"/>
					<rect x="24.2" y="13.6" width="0.8" height="1.3"/>
					<rect x="26.2" y="13.6" width="0.8" height="1.3"/>
				</g>
			</g>
		</g>
		<polygon class="st30" points="0.7,10.3 0.7,30.6 0.7,31.1 0.7,37.3 4.8,37.3 4.8,37.6 10.4,37.6 10.4,37.3 15.4,37.3 15.8,37.3 
			31.4,37.3 72.5,37.3 73.6,37.3 73.6,10.3 		"/>
	</g>
</g>
</svg>
