<svg xmlns="http://www.w3.org/2000/svg" xmlns:xlink="http://www.w3.org/1999/xlink" width="74" height="48" viewBox="0 0 74 48"><defs><linearGradient id="a" x1="20.75571" y1="28.94572" x2="31.1171" y2="28.94572" gradientUnits="userSpaceOnUse"><stop offset="0" stop-color="#717071"/><stop offset="0.00312" stop-color="#6f6e6f"/><stop offset="0.04815" stop-color="#575657"/><stop offset="0.09566" stop-color="#464546"/><stop offset="0.14691" stop-color="#3b3b3b"/><stop offset="0.20859" stop-color="#383838"/><stop offset="1" stop-color="#262626"/></linearGradient></defs><title>cc-link_rio_econ</title><rect width="74" height="48" fill="#fff"/><rect x="9.39625" y="10.14625" width="55.41553" height="27.7075" fill="#656464"/><rect x="31.57855" y="10.14586" width="33.23323" height="27.70789" fill="#7d7d7d"/><rect x="33.18926" y="15.48181" width="29.91504" height="9.30837" fill="#1f1f1f"/><rect x="10.39452" y="21.56609" width="10.36119" height="14.75927" fill="#404040"/><path d="M11.26357,21.87309h8.62236a0.55441,0.55441,0,0,1,.55441.55441V35.46472a0.55364,0.55364,0,0,1-.55364.55364H11.26435a0.55441,0.55441,0,0,1-.55441-0.55441V22.42673A0.55364,0.55364,0,0,1,11.26357,21.87309Z" fill="#1f1f1f"/><polygon points="19.412 23.271 16.953 23.271 16.953 22.076 14.246 22.076 14.246 23.271 11.787 23.271 11.787 34.62 14.246 34.62 14.246 35.815 16.953 35.815 16.953 34.62 19.412 34.62 19.412 23.271" fill="#595757"/><rect x="14.70056" y="24.06569" width="1.79819" height="9.75988" fill="#6d6c6c"/><rect x="17.58355" y="24.91428" width="0.90264" height="1.37532" fill="#4c4948"/><rect x="17.87218" y="25.10903" width="0.32534" height="0.98547" fill="#ae9a52"/><rect x="17.58355" y="26.60078" width="0.90264" height="1.37533" fill="#4c4948"/><rect x="17.87218" y="26.79588" width="0.32534" height="0.98509" fill="#ae9a52"/><rect x="17.58355" y="28.28729" width="0.90264" height="1.37528" fill="#4c4948"/><rect x="17.87218" y="28.48239" width="0.32534" height="0.98547" fill="#ae9a52"/><rect x="17.58355" y="29.97415" width="0.90264" height="1.37532" fill="#4c4948"/><rect x="17.87218" y="30.16889" width="0.32534" height="0.98583" fill="#ae9a52"/><rect x="17.58355" y="31.66105" width="0.90264" height="1.37528" fill="#4c4948"/><rect x="17.87218" y="31.85575" width="0.32534" height="0.98547" fill="#ae9a52"/><rect x="12.57401" y="24.91428" width="0.90264" height="1.37532" fill="#4c4948"/><rect x="12.86264" y="25.10903" width="0.32534" height="0.98547" fill="#ae9a52"/><rect x="12.57401" y="26.60078" width="0.90264" height="1.37533" fill="#4c4948"/><rect x="12.86264" y="26.79588" width="0.32534" height="0.98509" fill="#ae9a52"/><rect x="12.57401" y="28.28729" width="0.90264" height="1.37528" fill="#4c4948"/><rect x="12.86264" y="28.48239" width="0.32534" height="0.98547" fill="#ae9a52"/><rect x="12.57401" y="29.97415" width="0.90264" height="1.37532" fill="#4c4948"/><rect x="12.86264" y="30.16889" width="0.32534" height="0.98583" fill="#ae9a52"/><rect x="12.57401" y="31.66105" width="0.90264" height="1.37528" fill="#4c4948"/><rect x="12.86264" y="31.85575" width="0.32534" height="0.98547" fill="#ae9a52"/><rect x="20.75571" y="21.56609" width="10.36139" height="14.75927" fill="url(#a)"/><path d="M21.62476,21.87309h8.62255a0.55441,0.55441,0,0,1,.55441.55441V35.46472a0.55364,0.55364,0,0,1-.55364.55364H21.62554a0.55441,0.55441,0,0,1-.55441-0.55441V22.42673A0.55364,0.55364,0,0,1,21.62476,21.87309Z" fill="#1f1f1f"/><polygon points="29.773 23.271 27.314 23.271 27.314 22.076 24.608 22.076 24.608 23.271 22.149 23.271 22.149 34.62 24.608 34.62 24.608 35.815 27.314 35.815 27.314 34.62 29.773 34.62 29.773 23.271" fill="#595757"/><rect x="25.06175" y="24.06569" width="1.79819" height="9.75988" fill="#6d6c6c"/><rect x="27.94474" y="24.91428" width="0.90279" height="1.37532" fill="#4c4948"/><rect x="28.23337" y="25.10903" width="0.32534" height="0.98547" fill="#ae9a52"/><rect x="27.94474" y="26.60078" width="0.90279" height="1.37533" fill="#4c4948"/><rect x="28.23337" y="26.79588" width="0.32534" height="0.98509" fill="#ae9a52"/><rect x="27.94474" y="28.28729" width="0.90279" height="1.37528" fill="#4c4948"/><rect x="28.23337" y="28.48239" width="0.32534" height="0.98547" fill="#ae9a52"/><rect x="27.94474" y="29.97415" width="0.90279" height="1.37532" fill="#4c4948"/><rect x="28.23337" y="30.16889" width="0.32534" height="0.98583" fill="#ae9a52"/><rect x="27.94474" y="31.66105" width="0.90279" height="1.37528" fill="#4c4948"/><rect x="28.23337" y="31.85575" width="0.32534" height="0.98547" fill="#ae9a52"/><rect x="22.9352" y="24.91428" width="0.90264" height="1.37532" fill="#4c4948"/><rect x="23.22383" y="25.10903" width="0.32534" height="0.98547" fill="#ae9a52"/><rect x="22.9352" y="26.60078" width="0.90264" height="1.37533" fill="#4c4948"/><rect x="23.22383" y="26.79588" width="0.32534" height="0.98509" fill="#ae9a52"/><rect x="22.9352" y="28.28729" width="0.90264" height="1.37528" fill="#4c4948"/><rect x="23.22383" y="28.48239" width="0.32534" height="0.98547" fill="#ae9a52"/><rect x="22.9352" y="29.97415" width="0.90264" height="1.37532" fill="#4c4948"/><rect x="23.22383" y="30.16889" width="0.32534" height="0.98583" fill="#ae9a52"/><rect x="22.9352" y="31.66105" width="0.90264" height="1.37528" fill="#4c4948"/><rect x="23.22383" y="31.85575" width="0.32534" height="0.98547" fill="#ae9a52"/><rect x="9.39625" y="10.14625" width="5.10729" height="10.74747" fill="#333"/><rect x="10.72729" y="12.0966" width="3.77624" height="8.40614" fill="#1f1f1f"/><rect x="11.04251" y="12.46353" width="3.14585" height="7.67226" fill="#3b3b3b"/><rect x="11.40007" y="12.78082" width="2.40931" height="0.61627" fill="#1f1f1f"/><rect x="18.52129" y="13.38637" width="0.64986" height="0.61627" fill="#1f1f1f"/><rect x="18.52129" y="15.97664" width="0.64986" height="0.61627" fill="#1f1f1f"/><rect x="18.52129" y="18.5669" width="0.64986" height="0.61627" fill="#1f1f1f"/><rect x="19.84088" y="15.97664" width="0.64986" height="0.61627" fill="#1f1f1f"/><rect x="19.84088" y="18.5669" width="0.64986" height="0.61627" fill="#1f1f1f"/><rect x="21.16047" y="13.38637" width="0.64986" height="0.61627" fill="#1f1f1f"/><rect x="21.16047" y="15.97664" width="0.64986" height="0.61627" fill="#1f1f1f"/><rect x="21.16047" y="18.5669" width="0.64986" height="0.61627" fill="#1f1f1f"/><rect x="22.48005" y="15.97664" width="0.64986" height="0.61627" fill="#1f1f1f"/><rect x="22.48005" y="18.5669" width="0.64986" height="0.61627" fill="#1f1f1f"/><rect x="23.79964" y="13.38637" width="0.64986" height="0.61627" fill="#1f1f1f"/><rect x="23.79964" y="15.97664" width="0.64986" height="0.61627" fill="#1f1f1f"/><rect x="23.79964" y="18.5669" width="0.64986" height="0.61627" fill="#1f1f1f"/><rect x="25.11922" y="15.97664" width="0.64986" height="0.61627" fill="#1f1f1f"/><rect x="25.11922" y="18.5669" width="0.64986" height="0.61627" fill="#1f1f1f"/><rect x="26.43881" y="15.97664" width="0.64986" height="0.61627" fill="#1f1f1f"/><rect x="26.43881" y="18.5669" width="0.64986" height="0.61627" fill="#1f1f1f"/><rect x="27.7584" y="15.97664" width="0.64986" height="0.61627" fill="#1f1f1f"/><rect x="27.7584" y="18.5669" width="0.64986" height="0.61627" fill="#1f1f1f"/><rect x="11.78859" y="12.88505" width="0.96676" height="0.4078" fill="#fff"/><rect x="11.40007" y="13.5769" width="2.40931" height="0.61627" fill="#1f1f1f"/><rect x="11.78859" y="13.68113" width="0.96676" height="0.4078" fill="#fff"/><rect x="11.40007" y="14.37302" width="2.40931" height="0.61623" fill="#1f1f1f"/><rect x="11.78859" y="14.47725" width="0.96676" height="0.40776" fill="#fff"/><rect x="11.40007" y="15.16871" width="2.40931" height="0.61666" fill="#1f1f1f"/><rect x="11.78859" y="15.27334" width="0.96676" height="0.4078" fill="#fff"/><rect x="11.40007" y="15.96483" width="2.40931" height="0.61622" fill="#1f1f1f"/><rect x="11.78859" y="16.06942" width="0.96676" height="0.4078" fill="#fff"/><rect x="11.40007" y="16.76091" width="2.40931" height="0.61627" fill="#1f1f1f"/><rect x="11.78859" y="16.86515" width="0.96676" height="0.40815" fill="#fff"/><rect x="11.40007" y="17.55699" width="2.40931" height="0.61627" fill="#1f1f1f"/><rect x="11.78859" y="17.66123" width="0.96676" height="0.40819" fill="#fff"/><rect x="11.40007" y="18.35311" width="2.40931" height="0.61623" fill="#1f1f1f"/><rect x="11.78859" y="18.45735" width="0.96676" height="0.40776" fill="#fff"/><rect x="11.40007" y="19.14919" width="2.40931" height="0.61627" fill="#1f1f1f"/><rect x="11.78859" y="19.25342" width="0.96676" height="0.4078" fill="#fff"/><rect x="33.77978" y="16.01941" width="3.32414" height="8.23336" fill="#545252"/><rect x="34.59534" y="18.22823" width="1.69302" height="5.1347" fill="#474747"/><rect x="35.05737" y="18.58637" width="0.76821" height="0.77129" fill="#3e3a39"/><rect x="35.05737" y="19.80632" width="0.76821" height="0.77164" fill="#3e3a39"/><rect x="35.05737" y="21.02622" width="0.76821" height="0.77125" fill="#3e3a39"/><rect x="35.05737" y="22.24613" width="0.76821" height="0.77164" fill="#3e3a39"/><rect x="37.39642" y="16.01941" width="3.32414" height="8.23336" fill="#545252"/><rect x="38.21198" y="18.22823" width="1.69302" height="5.1347" fill="#474747"/><rect x="38.67401" y="18.58637" width="0.76821" height="0.77129" fill="#3e3a39"/><rect x="38.67401" y="19.80632" width="0.76821" height="0.77164" fill="#3e3a39"/><rect x="38.67401" y="21.02622" width="0.76821" height="0.77125" fill="#3e3a39"/><rect x="38.67401" y="22.24613" width="0.76821" height="0.77164" fill="#3e3a39"/><rect x="41.01306" y="16.01941" width="3.32414" height="8.23336" fill="#545252"/><rect x="41.82862" y="18.22823" width="1.69302" height="5.1347" fill="#474747"/><rect x="42.29065" y="18.58637" width="0.76821" height="0.77129" fill="#3e3a39"/><rect x="42.29065" y="19.80632" width="0.76821" height="0.77164" fill="#3e3a39"/><rect x="42.29065" y="21.02622" width="0.76821" height="0.77125" fill="#3e3a39"/><rect x="42.29065" y="22.24613" width="0.76821" height="0.77164" fill="#3e3a39"/><rect x="44.6297" y="16.01941" width="3.32414" height="8.23336" fill="#545252"/><rect x="45.44526" y="18.22823" width="1.69302" height="5.1347" fill="#474747"/><rect x="45.9073" y="18.58637" width="0.76821" height="0.77129" fill="#3e3a39"/><rect x="45.9073" y="19.80632" width="0.76821" height="0.77164" fill="#3e3a39"/><rect x="45.9073" y="21.02622" width="0.76821" height="0.77125" fill="#3e3a39"/><rect x="45.9073" y="22.24613" width="0.76821" height="0.77164" fill="#3e3a39"/><rect x="48.24635" y="16.01941" width="3.32414" height="8.23336" fill="#545252"/><rect x="49.06191" y="18.22823" width="1.69302" height="5.1347" fill="#474747"/><rect x="49.52394" y="18.58637" width="0.76821" height="0.77129" fill="#3e3a39"/><rect x="49.52394" y="19.80632" width="0.76821" height="0.77164" fill="#3e3a39"/><rect x="49.52394" y="21.02622" width="0.76821" height="0.77125" fill="#3e3a39"/><rect x="49.52394" y="22.24613" width="0.76821" height="0.77164" fill="#3e3a39"/><rect x="51.86299" y="16.01941" width="3.32414" height="8.23336" fill="#545252"/><rect x="52.67855" y="18.22823" width="1.69302" height="5.1347" fill="#474747"/><rect x="53.14058" y="18.58637" width="0.76821" height="0.77129" fill="#3e3a39"/><rect x="53.14058" y="19.80632" width="0.76821" height="0.77164" fill="#3e3a39"/><rect x="53.14058" y="21.02622" width="0.76821" height="0.77125" fill="#3e3a39"/><rect x="53.14058" y="22.24613" width="0.76821" height="0.77164" fill="#3e3a39"/><rect x="55.47963" y="16.01941" width="3.32414" height="8.23336" fill="#545252"/><rect x="56.29519" y="18.22823" width="1.69302" height="5.1347" fill="#474747"/><rect x="56.75722" y="18.58637" width="0.76821" height="0.77129" fill="#3e3a39"/><rect x="56.75722" y="19.80632" width="0.76821" height="0.77164" fill="#3e3a39"/><rect x="56.75722" y="21.02622" width="0.76821" height="0.77125" fill="#3e3a39"/><rect x="56.75722" y="22.24613" width="0.76821" height="0.77164" fill="#3e3a39"/><rect x="59.09628" y="16.01941" width="3.32414" height="8.23336" fill="#545252"/><rect x="59.91184" y="18.22823" width="1.69302" height="5.1347" fill="#474747"/><rect x="60.37387" y="18.58637" width="0.76821" height="0.77129" fill="#3e3a39"/><rect x="60.37387" y="19.80632" width="0.76821" height="0.77164" fill="#3e3a39"/><rect x="60.37387" y="21.02622" width="0.76821" height="0.77125" fill="#3e3a39"/><rect x="60.37387" y="22.24613" width="0.76821" height="0.77164" fill="#3e3a39"/><rect x="33.18926" y="26.62483" width="29.91504" height="9.30837" fill="#1f1f1f"/><rect x="33.77978" y="27.16243" width="3.32414" height="8.23317" fill="#545252"/><rect x="34.59534" y="29.37125" width="1.69302" height="5.1347" fill="#474747"/><rect x="35.05737" y="29.72939" width="0.76821" height="0.77129" fill="#3e3a39"/><rect x="35.05737" y="30.94934" width="0.76821" height="0.77164" fill="#3e3a39"/><rect x="35.05737" y="32.16925" width="0.76821" height="0.77125" fill="#3e3a39"/><rect x="35.05737" y="33.38915" width="0.76821" height="0.77164" fill="#3e3a39"/><rect x="37.39642" y="27.16243" width="3.32414" height="8.23317" fill="#545252"/><rect x="38.21198" y="29.37125" width="1.69302" height="5.1347" fill="#474747"/><rect x="38.67401" y="29.72939" width="0.76821" height="0.77129" fill="#3e3a39"/><rect x="38.67401" y="30.94934" width="0.76821" height="0.77164" fill="#3e3a39"/><rect x="38.67401" y="32.16925" width="0.76821" height="0.77125" fill="#3e3a39"/><rect x="38.67401" y="33.38915" width="0.76821" height="0.77164" fill="#3e3a39"/><rect x="41.01306" y="27.16243" width="3.32414" height="8.23317" fill="#545252"/><rect x="41.82862" y="29.37125" width="1.69302" height="5.1347" fill="#474747"/><rect x="42.29065" y="29.72939" width="0.76821" height="0.77129" fill="#3e3a39"/><rect x="42.29065" y="30.94934" width="0.76821" height="0.77164" fill="#3e3a39"/><rect x="42.29065" y="32.16925" width="0.76821" height="0.77125" fill="#3e3a39"/><rect x="42.29065" y="33.38915" width="0.76821" height="0.77164" fill="#3e3a39"/><rect x="44.6297" y="27.16243" width="3.32414" height="8.23317" fill="#545252"/><rect x="45.44526" y="29.37125" width="1.69302" height="5.1347" fill="#474747"/><rect x="45.9073" y="29.72939" width="0.76821" height="0.77129" fill="#3e3a39"/><rect x="45.9073" y="30.94934" width="0.76821" height="0.77164" fill="#3e3a39"/><rect x="45.9073" y="32.16925" width="0.76821" height="0.77125" fill="#3e3a39"/><rect x="45.9073" y="33.38915" width="0.76821" height="0.77164" fill="#3e3a39"/><rect x="48.24635" y="27.16243" width="3.32414" height="8.23317" fill="#545252"/><rect x="49.06191" y="29.37125" width="1.69302" height="5.1347" fill="#474747"/><rect x="49.52394" y="29.72939" width="0.76821" height="0.77129" fill="#3e3a39"/><rect x="49.52394" y="30.94934" width="0.76821" height="0.77164" fill="#3e3a39"/><rect x="49.52394" y="32.16925" width="0.76821" height="0.77125" fill="#3e3a39"/><rect x="49.52394" y="33.38915" width="0.76821" height="0.77164" fill="#3e3a39"/><rect x="51.86299" y="27.16243" width="3.32414" height="8.23317" fill="#545252"/><rect x="52.67855" y="29.37125" width="1.69302" height="5.1347" fill="#474747"/><rect x="53.14058" y="29.72939" width="0.76821" height="0.77129" fill="#3e3a39"/><rect x="53.14058" y="30.94934" width="0.76821" height="0.77164" fill="#3e3a39"/><rect x="53.14058" y="32.16925" width="0.76821" height="0.77125" fill="#3e3a39"/><rect x="53.14058" y="33.38915" width="0.76821" height="0.77164" fill="#3e3a39"/><rect x="55.47963" y="27.16243" width="3.32414" height="8.23317" fill="#545252"/><rect x="56.29519" y="29.37125" width="1.69302" height="5.1347" fill="#474747"/><rect x="56.75722" y="29.72939" width="0.76821" height="0.77129" fill="#3e3a39"/><rect x="56.75722" y="30.94934" width="0.76821" height="0.77164" fill="#3e3a39"/><rect x="56.75722" y="32.16925" width="0.76821" height="0.77125" fill="#3e3a39"/><rect x="56.75722" y="33.38915" width="0.76821" height="0.77164" fill="#3e3a39"/><rect x="59.09628" y="27.16243" width="3.32414" height="8.23317" fill="#545252"/><rect x="59.91184" y="29.37125" width="1.69302" height="5.1347" fill="#474747"/><rect x="60.37387" y="29.72939" width="0.76821" height="0.77129" fill="#3e3a39"/><rect x="60.37387" y="30.94934" width="0.76821" height="0.77164" fill="#3e3a39"/><rect x="60.37387" y="32.16925" width="0.76821" height="0.77125" fill="#3e3a39"/><rect x="60.37387" y="33.38915" width="0.76821" height="0.77164" fill="#3e3a39"/><rect x="9.39625" y="10.14625" width="55.41553" height="27.7075" fill="none" stroke="#231815" stroke-width="0.29324"/></svg>