<svg xmlns="http://www.w3.org/2000/svg" width="74" height="48" viewBox="0 0 74 48"><title>cc-link_ie_b_rio_tb</title><rect width="74" height="48" fill="#fff"/><rect x="0.535" y="14.844" width="72.93" height="17.61" fill="#535151"/><rect x="18.367" y="14.844" width="55.098" height="10.975" fill="#676866"/><rect x="18.584" y="15.028" width="54.664" height="10.574" fill="#545452"/><rect x="18.806" y="15.265" width="54.221" height="10.1" fill="#60605e"/><rect x="18.367" y="25.82" width="55.098" height="7.336" fill="#565454"/><rect x="18.367" y="30.253" width="55.098" height="2.903" fill="#4b4949"/><rect x="18.367" y="25.82" width="0.836" height="7.336" fill="#50504f"/><rect x="71.174" y="25.82" width="2.291" height="7.336" fill="#50504f"/><rect x="26.857" y="18.174" width="4.535" height="2.233" fill="#3e3a39"/><rect x="27.521" y="19.63" width="0.531" height="0.291" fill="#fff"/><rect x="28.422" y="19.63" width="0.531" height="0.291" fill="#fff"/><rect x="29.322" y="19.63" width="0.531" height="0.291" fill="#fff"/><rect x="30.223" y="19.63" width="0.531" height="0.291" fill="#fff"/><rect x="33.494" y="18.174" width="12.723" height="2.233" fill="#3e3a39"/><rect x="34.159" y="19.63" width="0.531" height="0.291" fill="#fff"/><rect x="35.059" y="19.63" width="0.531" height="0.291" fill="#fff"/><rect x="35.96" y="19.63" width="0.531" height="0.291" fill="#fff"/><rect x="36.86" y="19.63" width="0.531" height="0.291" fill="#fff"/><rect x="37.76" y="19.63" width="0.531" height="0.291" fill="#fff"/><rect x="38.661" y="19.63" width="0.531" height="0.291" fill="#fff"/><rect x="39.561" y="19.63" width="0.531" height="0.291" fill="#fff"/><rect x="40.462" y="19.63" width="0.531" height="0.291" fill="#fff"/><rect x="41.362" y="19.63" width="0.531" height="0.291" fill="#fff"/><rect x="42.263" y="19.63" width="0.531" height="0.291" fill="#fff"/><rect x="44.064" y="19.63" width="0.531" height="0.291" fill="#fff"/><rect x="44.964" y="19.63" width="0.531" height="0.291" fill="#fff"/><ellipse cx="25.024" cy="31.667" rx="0.987" ry="0.993" fill="#3e3a39"/><ellipse cx="27.625" cy="31.667" rx="0.987" ry="0.993" fill="#3e3a39"/><ellipse cx="30.227" cy="31.667" rx="0.987" ry="0.993" fill="#3e3a39"/><ellipse cx="32.828" cy="31.667" rx="0.987" ry="0.993" fill="#3e3a39"/><ellipse cx="35.43" cy="31.667" rx="0.987" ry="0.993" fill="#3e3a39"/><ellipse cx="38.032" cy="31.667" rx="0.987" ry="0.993" fill="#3e3a39"/><ellipse cx="40.633" cy="31.667" rx="0.987" ry="0.993" fill="#3e3a39"/><ellipse cx="43.235" cy="31.667" rx="0.987" ry="0.993" fill="#3e3a39"/><ellipse cx="45.836" cy="31.667" rx="0.987" ry="0.993" fill="#3e3a39"/><ellipse cx="48.438" cy="31.667" rx="0.987" ry="0.993" fill="#3e3a39"/><ellipse cx="51.04" cy="31.667" rx="0.987" ry="0.993" fill="#3e3a39"/><ellipse cx="53.641" cy="31.667" rx="0.987" ry="0.993" fill="#3e3a39"/><ellipse cx="56.243" cy="31.667" rx="0.987" ry="0.993" fill="#3e3a39"/><ellipse cx="58.844" cy="31.667" rx="0.987" ry="0.993" fill="#3e3a39"/><ellipse cx="61.446" cy="31.667" rx="0.987" ry="0.993" fill="#3e3a39"/><ellipse cx="64.048" cy="31.667" rx="0.987" ry="0.993" fill="#3e3a39"/><ellipse cx="66.649" cy="31.667" rx="0.987" ry="0.993" fill="#3e3a39"/><ellipse cx="23.062" cy="27.978" rx="0.987" ry="0.993" fill="#3e3a39"/><ellipse cx="25.786" cy="27.978" rx="0.987" ry="0.993" fill="#3e3a39"/><ellipse cx="28.51" cy="27.978" rx="0.987" ry="0.993" fill="#3e3a39"/><ellipse cx="31.235" cy="27.978" rx="0.987" ry="0.993" fill="#3e3a39"/><ellipse cx="33.959" cy="27.978" rx="0.987" ry="0.993" fill="#3e3a39"/><ellipse cx="36.683" cy="27.978" rx="0.987" ry="0.993" fill="#3e3a39"/><ellipse cx="39.407" cy="27.978" rx="0.987" ry="0.993" fill="#3e3a39"/><ellipse cx="42.131" cy="27.978" rx="0.987" ry="0.993" fill="#3e3a39"/><ellipse cx="44.856" cy="27.978" rx="0.987" ry="0.993" fill="#3e3a39"/><ellipse cx="47.58" cy="27.978" rx="0.987" ry="0.993" fill="#3e3a39"/><ellipse cx="50.304" cy="27.978" rx="0.987" ry="0.993" fill="#3e3a39"/><ellipse cx="53.028" cy="27.978" rx="0.987" ry="0.993" fill="#3e3a39"/><ellipse cx="55.752" cy="27.978" rx="0.987" ry="0.993" fill="#3e3a39"/><ellipse cx="58.476" cy="27.978" rx="0.987" ry="0.993" fill="#3e3a39"/><ellipse cx="61.201" cy="27.978" rx="0.987" ry="0.993" fill="#3e3a39"/><ellipse cx="63.925" cy="27.978" rx="0.987" ry="0.993" fill="#3e3a39"/><ellipse cx="66.649" cy="27.978" rx="0.987" ry="0.993" fill="#3e3a39"/><path d="M68.9,26.15v1.828a0.99,0.99,0,0,0,.987.993h1.287V26.15H68.9Z" fill="#3e3a39"/><rect x="69.662" y="30.253" width="1.512" height="2.903" fill="#3e3a39"/><rect x="68.665" y="30.253" width="2.508" height="1.521" fill="#3e3a39"/><path d="M22.658,31.246a0.99,0.99,0,0,0-.987-0.993H19.2v2.9h1.351v-0.7h2.1V31.246Z" fill="#3e3a39"/><rect x="0.535" y="25.82" width="17.832" height="6.635" fill="#474545"/><polygon points="12.695 31.772 12.153 32.333 6.903 32.333 6.36 31.772 6.36 30.949 12.695 30.949 12.695 31.772" fill="#595757"/><rect x="6.36" y="26.033" width="6.335" height="2.868" fill="#595757"/><path d="M6.36,26.259H5.849l-0.073.189H4.6a0.372,0.372,0,0,0-.37.372v1.554a0.5,0.5,0,0,0,.375.561H4.853a1.4,1.4,0,0,1,.594.726,0.515,0.515,0,0,0,.484.245H6.36V29.477H5.712V28.9H6.36" fill="#3e3c3d"/><polygon points="8.304 26.407 6.549 26.407 6.549 28.503 6.36 28.503 6.36 30.949 12.695 30.949 12.695 28.503 12.507 28.503 12.507 26.407 10.752 26.407 10.752 28.503 10.405 28.503 10.405 26.407 8.651 26.407 8.651 28.503 8.304 28.503 8.304 26.407" fill="#3e3c3d"/><path d="M6.869,26.744a0.789,0.789,0,0,1,1.12,0,0.8,0.8,0,0,1,0,1.128,0.79,0.79,0,0,1-1.121,0A0.8,0.8,0,0,1,6.869,26.744Z" fill="#3c3736"/><circle cx="5.307" cy="27.69" r="0.794" transform="translate(-17.975 11.789) rotate(-44.82)" fill="#888" stroke="#717071" stroke-width="0.129"/><path d="M5.943,27.217a0.83,0.83,0,0,0-.075-0.093,0.8,0.8,0,0,0-.092-0.075l-1.1,1.109a0.854,0.854,0,0,0,.075.093,0.829,0.829,0,0,0,.092.075Z" fill="#656464"/><circle cx="5.307" cy="27.69" r="0.794" transform="translate(-17.975 11.789) rotate(-44.82)" fill="none" stroke="#595757" stroke-width="0.129"/><path d="M12.7,26.259h0.512l0.073,0.189h1.174a0.372,0.372,0,0,1,.37.372v1.554a0.5,0.5,0,0,1-.375.561H14.2a1.4,1.4,0,0,0-.594.726,0.514,0.514,0,0,1-.484.245H12.7V29.477h0.649V28.9H12.7" fill="#3e3c3d"/><circle cx="13.75" cy="27.689" r="0.794" transform="translate(-15.521 17.74) rotate(-44.82)" fill="#888" stroke="#717071" stroke-width="0.129"/><path d="M13.28,28.33a0.783,0.783,0,0,1-.092-0.075,0.822,0.822,0,0,1-.075-0.093l1.1-1.11a0.851,0.851,0,0,1,.092.076,0.753,0.753,0,0,1,.075.093Z" fill="#656464"/><circle cx="13.75" cy="27.689" r="0.794" transform="translate(-15.521 17.74) rotate(-44.82)" fill="none" stroke="#595757" stroke-width="0.129"/><rect x="6.549" y="28.349" width="1.754" height="0.937" fill="#f29600"/><rect x="6.549" y="28.693" width="1.754" height="0.248" fill="#824e00"/><circle cx="9.531" cy="27.308" r="0.794" transform="translate(-16.477 14.653) rotate(-44.813)" fill="#3c3736"/><rect x="8.651" y="28.349" width="1.754" height="0.937" fill="#f29600"/><rect x="8.651" y="28.693" width="1.754" height="0.248" fill="#824e00"/><path d="M11.072,26.744a0.789,0.789,0,0,1,1.12,0,0.8,0.8,0,0,1,0,1.128,0.79,0.79,0,0,1-1.121,0A0.8,0.8,0,0,1,11.072,26.744Z" fill="#3c3736"/><rect x="10.752" y="28.349" width="1.754" height="0.937" fill="#f29600"/><rect x="10.752" y="28.693" width="1.754" height="0.248" fill="#824e00"/><path d="M10.094,31.156a1.194,1.194,0,0,1-.167.893,0.572,0.572,0,0,1-.8,0,0.565,0.565,0,0,1-.166-0.4V31.156h1.137Z" fill="#3c3736"/><path d="M7.994,31.156a1.194,1.194,0,0,1-.167.893,0.572,0.572,0,0,1-.8,0,0.565,0.565,0,0,1-.166-0.4V31.156H7.994Z" fill="#3c3736"/><path d="M11.062,31.156a1.193,1.193,0,0,0,.167.893,0.571,0.571,0,0,0,.8,0,0.564,0.564,0,0,0,.166-0.4V31.156H11.062Z" fill="#3c3736"/><rect x="2.457" y="16.9" width="6.355" height="5.661" fill="#3e3a39"/><rect x="2.752" y="17.283" width="5.741" height="4.856" fill="#bfbfbf" stroke="#9e9e9f" stroke-width="0.133"/><polygon points="4.776 17.56 4.776 17.915 3.109 17.915 3.108 21.634 7.914 21.634 7.916 17.915 6.249 17.915 6.249 17.56 4.776 17.56" fill="#262626" stroke="gray" stroke-width="0.201"/><rect x="6.879" y="17.915" width="1.036" height="0.837" fill="#7dad2a" stroke="#9e9e9f" stroke-width="0.146"/><rect x="3.109" y="17.915" width="1.036" height="0.837" fill="#7dad2a" stroke="#9e9e9f" stroke-width="0.146"/><polygon points="6.512 16.255 4.758 16.255 4.264 16.9 7.006 16.9 6.512 16.255" fill="#3e3a39"/><polygon points="0.535 14.844 0.535 32.454 18.367 32.454 18.367 33.156 73.465 33.156 73.465 14.844 0.535 14.844" fill="none" stroke="#231815" stroke-width="0.194"/><rect x="58.016" y="15.028" width="5.39" height="2.168" fill="#fff"/><rect x="52.522" y="15.028" width="5.39" height="2.168" fill="#fff"/><rect x="47.034" y="15.028" width="5.384" height="2.168" fill="#fff"/><rect x="63.509" y="15.028" width="5.39" height="2.168" fill="#fff"/><rect x="52.522" y="17.301" width="5.39" height="2.2" fill="#fff"/><rect x="58.016" y="17.301" width="5.39" height="2.2" fill="#fff"/><path d="M63.509,17.3v2.2h5.027a0.365,0.365,0,0,0,.363-0.366V17.3h-5.39Z" fill="#fff"/><path d="M52.418,17.3H47.034v1.834a0.364,0.364,0,0,0,.363.366h5.021V17.3Z" fill="#fff"/><path d="M42.949,16.2a0.376,0.376,0,0,0-.2-0.2,0.375,0.375,0,0,0-.142-0.028h-8.75A0.371,0.371,0,0,0,33.72,16a0.378,0.378,0,0,0-.121.08,0.364,0.364,0,0,0-.077.119,0.378,0.378,0,0,0-.028.142v0.889h9.483V16.344A0.375,0.375,0,0,0,42.949,16.2Z" fill="#fff"/><path d="M46.181,17.542a0.376,0.376,0,0,0-.2-0.2,0.376,0.376,0,0,0-.142-0.028H44.085a0.373,0.373,0,0,0-.139.028,0.378,0.378,0,0,0-.121.08,0.363,0.363,0,0,0-.077.119,0.378,0.378,0,0,0-.028.142v0.349h2.49V17.681A0.375,0.375,0,0,0,46.181,17.542Z" fill="#fff"/><path d="M24.938,17.5H20.146a0.367,0.367,0,0,0-.365.367V20.93a0.367,0.367,0,0,0,.365.367h4.791A0.367,0.367,0,0,0,25.3,20.93V17.866A0.367,0.367,0,0,0,24.938,17.5Zm0.219,3.431a0.219,0.219,0,0,1-.219.22H20.146a0.219,0.219,0,0,1-.219-0.22V17.866a0.219,0.219,0,0,1,.219-0.22h4.791a0.219,0.219,0,0,1,.219.22V20.93Z" fill="#fff"/><path d="M23.49,22.683H21.139a0.256,0.256,0,0,0-.255.256v0.585a0.255,0.255,0,0,0,.255.256H23.49v-1.1Z" fill="#fff"/><path d="M26.309,23.781a0.366,0.366,0,0,1-.1-0.256V22.94a0.256,0.256,0,0,0-.254-0.257H23.6v1.1h2.709Z" fill="#fff"/><path d="M22.165,23.89a0.367,0.367,0,0,1,.1.256v0.585a0.255,0.255,0,0,0,.254.255h2.352v-1.1h-2.71Z" fill="#fff"/><path d="M27.334,23.89h-2.35v1.1h2.35a0.255,0.255,0,0,0,.255-0.255V24.146a0.255,0.255,0,0,0-.255-0.256" fill="#fff"/><path d="M26.677,23.781h2.351v-1.1H26.677a0.256,0.256,0,0,0-.255.257v0.585a0.256,0.256,0,0,0,.255.256" fill="#fff"/><path d="M31.848,23.781a0.364,0.364,0,0,1-.1-0.256V22.94a0.256,0.256,0,0,0-.254-0.257H29.137v1.1h2.71Z" fill="#fff"/><path d="M27.7,23.89a0.362,0.362,0,0,1,.1.256v0.585a0.255,0.255,0,0,0,.255.255h2.351v-1.1H27.7Z" fill="#fff"/><path d="M32.874,23.89H30.522v1.1h2.351a0.255,0.255,0,0,0,.254-0.255V24.146a0.255,0.255,0,0,0-.254-0.256" fill="#fff"/><path d="M37.386,23.781a0.367,0.367,0,0,1-.1-0.256V22.94a0.255,0.255,0,0,0-.254-0.257H34.676v1.1h2.71Z" fill="#fff"/><path d="M32.216,23.781h2.351v-1.1H32.216a0.256,0.256,0,0,0-.254.257v0.585a0.255,0.255,0,0,0,.254.256" fill="#fff"/><path d="M38.412,23.89H36.061v1.1h2.351a0.255,0.255,0,0,0,.254-0.255V24.146a0.255,0.255,0,0,0-.254-0.256" fill="#fff"/><path d="M33.242,23.89a0.367,0.367,0,0,1,.1.256v0.585a0.255,0.255,0,0,0,.255.255h2.351v-1.1h-2.71Z" fill="#fff"/><path d="M37.754,23.781h2.351v-1.1H37.754a0.256,0.256,0,0,0-.255.257v0.585a0.256,0.256,0,0,0,.255.256" fill="#fff"/><path d="M42.924,23.781a0.365,0.365,0,0,1-.1-0.256V22.94a0.256,0.256,0,0,0-.255-0.257H40.214v1.1h2.71Z" fill="#fff"/><path d="M38.779,23.89a0.365,0.365,0,0,1,.1.256v0.585a0.255,0.255,0,0,0,.255.255H41.49v-1.1H38.779Z" fill="#fff"/><path d="M43.95,23.89H41.6v1.1H43.95a0.255,0.255,0,0,0,.255-0.255V24.146a0.255,0.255,0,0,0-.255-0.256" fill="#fff"/><path d="M43.292,23.781h2.351v-1.1H43.292a0.256,0.256,0,0,0-.255.257v0.585a0.256,0.256,0,0,0,.255.256" fill="#fff"/><path d="M48.463,23.781a0.364,0.364,0,0,1-.1-0.256V22.94a0.256,0.256,0,0,0-.254-0.257H45.752v1.1h2.711Z" fill="#fff"/><path d="M44.317,23.89a0.362,0.362,0,0,1,.1.256v0.585a0.255,0.255,0,0,0,.255.255h2.351v-1.1H44.317Z" fill="#fff"/><path d="M49.488,23.89H47.137v1.1h2.351a0.255,0.255,0,0,0,.254-0.255V24.146a0.255,0.255,0,0,0-.254-0.256" fill="#fff"/><path d="M54,23.781a0.368,0.368,0,0,1-.1-0.256V22.94a0.255,0.255,0,0,0-.254-0.257H51.291v1.1H54Z" fill="#fff"/><path d="M48.83,23.781h2.351v-1.1H48.83a0.256,0.256,0,0,0-.254.257v0.585a0.255,0.255,0,0,0,.254.256" fill="#fff"/><path d="M55.027,23.89H52.676v1.1h2.351a0.255,0.255,0,0,0,.254-0.255V24.146a0.255,0.255,0,0,0-.254-0.256" fill="#fff"/><path d="M49.856,23.89a0.368,0.368,0,0,1,.1.256v0.585a0.255,0.255,0,0,0,.254.255h2.351v-1.1h-2.71Z" fill="#fff"/><path d="M65.077,23.781a0.368,0.368,0,0,1-.1-0.256V22.94a0.255,0.255,0,0,0-.254-0.257H62.367v1.1h2.709Z" fill="#fff"/><path d="M59.906,23.781h2.351v-1.1H59.906a0.256,0.256,0,0,0-.254.257v0.585a0.255,0.255,0,0,0,.254.256" fill="#fff"/><path d="M66.1,23.89H63.752v1.1H66.1a0.255,0.255,0,0,0,.254-0.255V24.146A0.255,0.255,0,0,0,66.1,23.89" fill="#fff"/><path d="M60.933,23.89a0.368,0.368,0,0,1,.1.256v0.585a0.255,0.255,0,0,0,.254.255h2.351v-1.1h-2.71Z" fill="#fff"/><path d="M66.83,23.89h2.1a0.254,0.254,0,0,1,.254.254v0.586a0.256,0.256,0,0,1-.256.256H66.831a0.255,0.255,0,0,1-.255-0.255V24.145A0.254,0.254,0,0,1,66.83,23.89Z" fill="#fff"/><path d="M65.445,22.684h2.1a0.255,0.255,0,0,1,.255.255v0.585a0.256,0.256,0,0,1-.256.256H65.446a0.255,0.255,0,0,1-.255-0.255V22.938a0.254,0.254,0,0,1,.254-0.254Z" fill="#fff"/><path d="M54.369,23.781H56.72v-1.1H54.369a0.256,0.256,0,0,0-.255.257v0.585a0.256,0.256,0,0,0,.255.256" fill="#fff"/><path d="M59.539,23.781a0.365,0.365,0,0,1-.1-0.256V22.94a0.256,0.256,0,0,0-.255-0.257H56.829v1.1h2.709Z" fill="#fff"/><path d="M55.394,23.89a0.364,0.364,0,0,1,.1.256v0.585a0.255,0.255,0,0,0,.255.255h2.351v-1.1H55.394Z" fill="#fff"/><path d="M60.564,23.89H58.214v1.1h2.351a0.255,0.255,0,0,0,.255-0.255V24.146a0.255,0.255,0,0,0-.255-0.256" fill="#fff"/><path d="M25.674,15.028V16.87a0.364,0.364,0,0,0,.363.366h6.175a0.365,0.365,0,0,0,.363-0.366V15.028h-6.9Z" fill="#fff"/><polygon points="27.078 17.029 27.078 16.002 27.078 15.999 26.443 15.999 26.443 16.002 26.443 17.029 27.078 17.029" fill="#60605e"/><polygon points="31.763 17.029 31.763 16.002 31.763 15.999 31.127 15.999 31.127 16.002 31.127 17.029 31.763 17.029" fill="#60605e"/><polygon points="30.201 17.029 30.201 16.002 30.201 15.999 29.566 15.999 29.566 16.002 29.566 17.029 30.201 17.029" fill="#60605e"/><polygon points="28.64 17.029 28.64 16.002 28.64 15.999 28.004 15.999 28.004 16.002 28.004 17.029 28.64 17.029" fill="#60605e"/><polygon points="68.514 17.015 68.514 15.987 68.514 15.985 67.878 15.985 67.878 15.987 67.878 17.015 68.514 17.015" fill="#60605e"/><polygon points="68.514 18.53 68.514 17.503 68.514 17.5 67.878 17.5 67.878 17.503 67.878 18.53 68.514 18.53" fill="#60605e"/><polygon points="67.211 17.015 67.211 15.987 67.211 15.985 66.575 15.985 66.575 15.987 66.575 17.015 67.211 17.015" fill="#60605e"/><polygon points="67.211 18.53 67.211 17.503 67.211 17.5 66.575 17.5 66.575 17.503 66.575 18.53 67.211 18.53" fill="#60605e"/><polygon points="65.908 17.015 65.908 15.987 65.908 15.985 65.272 15.985 65.272 15.987 65.272 17.015 65.908 17.015" fill="#60605e"/><polygon points="65.908 18.53 65.908 17.503 65.908 17.5 65.272 17.5 65.272 17.503 65.272 18.53 65.908 18.53" fill="#60605e"/><polygon points="64.605 17.015 64.605 15.987 64.605 15.985 63.97 15.985 63.97 15.987 63.97 17.015 64.605 17.015" fill="#60605e"/><polygon points="64.605 18.53 64.605 17.503 64.605 17.5 63.97 17.5 63.97 17.503 63.97 18.53 64.605 18.53" fill="#60605e"/><polygon points="63.02 17.015 63.02 15.987 63.02 15.985 62.384 15.985 62.384 15.987 62.384 17.015 63.02 17.015" fill="#60605e"/><polygon points="63.02 18.53 63.02 17.503 63.02 17.5 62.384 17.5 62.384 17.503 62.384 18.53 63.02 18.53" fill="#60605e"/><polygon points="61.717 17.015 61.717 15.987 61.717 15.985 61.081 15.985 61.081 15.987 61.081 17.015 61.717 17.015" fill="#60605e"/><polygon points="61.717 18.53 61.717 17.503 61.717 17.5 61.081 17.5 61.081 17.503 61.081 18.53 61.717 18.53" fill="#60605e"/><polygon points="60.414 17.015 60.414 15.987 60.414 15.985 59.779 15.985 59.779 15.987 59.779 17.015 60.414 17.015" fill="#60605e"/><polygon points="60.414 18.53 60.414 17.503 60.414 17.5 59.779 17.5 59.779 17.503 59.779 18.53 60.414 18.53" fill="#60605e"/><polygon points="59.112 17.015 59.112 15.987 59.112 15.985 58.476 15.985 58.476 15.987 58.476 17.015 59.112 17.015" fill="#60605e"/><polygon points="59.112 18.53 59.112 17.503 59.112 17.5 58.476 17.5 58.476 17.503 58.476 18.53 59.112 18.53" fill="#60605e"/><polygon points="57.526 17.015 57.526 15.987 57.526 15.985 56.89 15.985 56.89 15.987 56.89 17.015 57.526 17.015" fill="#60605e"/><polygon points="57.526 18.53 57.526 17.503 57.526 17.5 56.89 17.5 56.89 17.503 56.89 18.53 57.526 18.53" fill="#60605e"/><polygon points="56.223 17.015 56.223 15.987 56.223 15.985 55.587 15.985 55.587 15.987 55.587 17.015 56.223 17.015" fill="#60605e"/><polygon points="56.223 18.53 56.223 17.503 56.223 17.5 55.587 17.5 55.587 17.503 55.587 18.53 56.223 18.53" fill="#60605e"/><polygon points="54.92 17.015 54.92 15.987 54.92 15.985 54.285 15.985 54.285 15.987 54.285 17.015 54.92 17.015" fill="#60605e"/><polygon points="54.92 18.53 54.92 17.503 54.92 17.5 54.285 17.5 54.285 17.503 54.285 18.53 54.92 18.53" fill="#60605e"/><polygon points="53.618 17.015 53.618 15.987 53.618 15.985 52.982 15.985 52.982 15.987 52.982 17.015 53.618 17.015" fill="#60605e"/><polygon points="53.618 18.53 53.618 17.503 53.618 17.5 52.982 17.5 52.982 17.503 52.982 18.53 53.618 18.53" fill="#60605e"/><polygon points="52.032 17.015 52.032 15.987 52.032 15.985 51.396 15.985 51.396 15.987 51.396 17.015 52.032 17.015" fill="#60605e"/><polygon points="52.032 18.53 52.032 17.503 52.032 17.5 51.396 17.5 51.396 17.503 51.396 18.53 52.032 18.53" fill="#60605e"/><polygon points="50.729 17.015 50.729 15.987 50.729 15.985 50.094 15.985 50.094 15.987 50.094 17.015 50.729 17.015" fill="#60605e"/><polygon points="50.729 18.53 50.729 17.503 50.729 17.5 50.094 17.5 50.094 17.503 50.094 18.53 50.729 18.53" fill="#60605e"/><polygon points="49.427 17.015 49.427 15.987 49.427 15.985 48.791 15.985 48.791 15.987 48.791 17.015 49.427 17.015" fill="#60605e"/><polygon points="49.427 18.53 49.427 17.503 49.427 17.5 48.791 17.5 48.791 17.503 48.791 18.53 49.427 18.53" fill="#60605e"/><polygon points="48.124 17.015 48.124 15.987 48.124 15.985 47.488 15.985 47.488 15.987 47.488 17.015 48.124 17.015" fill="#60605e"/><polygon points="48.124 18.53 48.124 17.503 48.124 17.5 47.488 17.5 47.488 17.503 47.488 18.53 48.124 18.53" fill="#60605e"/><rect x="19.782" y="18.229" width="5.52" height="0.147" fill="#fff"/><rect x="21.358" y="17.499" width="0.146" height="3.798" fill="#fff"/><rect x="19.782" y="18.96" width="1.649" height="0.147" fill="#fff"/><rect x="19.782" y="19.69" width="1.649" height="0.147" fill="#fff"/><rect x="19.782" y="20.42" width="5.52" height="0.147" fill="#fff"/><rect x="8.561" y="24.569" width="1.934" height="1.251" fill="#fff"/><path d="M8.4,24.569H6.726a0.374,0.374,0,0,0-.139.028,0.378,0.378,0,0,0-.121.08,0.363,0.363,0,0,0-.077.119,0.378,0.378,0,0,0-.028.142v0.88H8.4V24.569Z" fill="#fff"/><path d="M12.7,24.8a0.377,0.377,0,0,0-.2-0.2,0.378,0.378,0,0,0-.142-0.028h-1.75V25.82h2.118V24.937A0.375,0.375,0,0,0,12.7,24.8Z" fill="#fff"/><path d="M2.567,15.465V16.9h1.7V15.465a0.4,0.4,0,0,0-.4-0.4h-0.9a0.4,0.4,0,0,0-.4.4" fill="#fff"/><path d="M7.067,15.465V16.9h1.7V15.465a0.4,0.4,0,0,0-.4-0.4h-0.9a0.4,0.4,0,0,0-.4.4" fill="#fff"/><rect x="33.494" y="17.377" width="2.096" height="0.657" fill="#fff"/><rect x="35.812" y="17.377" width="3.412" height="0.657" fill="#fff"/><rect x="39.446" y="17.377" width="3.531" height="0.657" fill="#fff"/><rect x="69.785" y="22.684" width="2.996" height="1.097" fill="#fff"/></svg>