<svg xmlns="http://www.w3.org/2000/svg" width="74" height="48" viewBox="0 0 74 48"><title>cc-link_ie_cnt</title><rect width="74" height="48" fill="#fff"/><rect x="5.661" y="12.123" width="62.679" height="23.755" fill="#656464"/><polygon points="68.339 26.03 28.437 26.03 28.437 25.024 39.383 25.024 39.383 23.492 57.593 23.492 57.593 25.024 68.339 25.024 68.339 26.03" fill="#595757"/><polygon points="15.844 35.759 18.878 35.759 18.878 22.282 25.529 22.282 25.529 35.877 28.437 35.877 28.437 21.039 17.985 21.039 17.985 12.123 15.844 12.123 15.844 35.759" fill="#717071"/><rect x="17.895" y="19.119" width="10.543" height="1.92" fill="#6b6a6a"/><polyline points="17.985 12.123 17.985 19.119 28.438 19.119 28.438 35.877" fill="none" stroke="#595757" stroke-width="0.267"/><line x1="17.985" y1="19.119" x2="17.985" y2="21.039" fill="none" stroke="#595757" stroke-width="0.267"/><polygon points="18.272 32.269 17.895 31.375 17.895 25.9 18.272 25.006 18.878 25.006 18.878 32.269 18.272 32.269" fill="#656464"/><rect x="21.774" y="25.006" width="3.242" height="7.263" fill="#656464"/><path d="M24.76,25.006V24.419l-0.213-.084V22.989a0.422,0.422,0,0,0-.421-0.424H22.37a0.567,0.567,0,0,0-.634.43v0.283a1.583,1.583,0,0,1-.821.681,0.594,0.594,0,0,0-.277.555v0.492h0.485V24.262h0.651v0.744" fill="#262626"/><rect x="18.878" y="25.006" width="2.244" height="7.263" fill="none" stroke="#595757" stroke-width="0.167"/><rect x="21.123" y="25.006" width="0.651" height="7.263" fill="#363636"/><polygon points="24.593 27.234 24.593 25.222 22.224 25.222 22.224 25.006 21.774 25.006 21.774 32.269 22.224 32.269 22.224 32.052 24.593 32.052 24.593 30.041 22.224 30.041 22.224 29.643 24.593 29.643 24.593 27.632 22.224 27.632 22.224 27.234 24.593 27.234" fill="#595757"/><rect x="22.716" y="27.953" width="1.358" height="1.369" fill="#1a1a1a"/><rect x="22.716" y="25.544" width="1.358" height="1.369" fill="#1a1a1a"/><rect x="22.716" y="30.363" width="1.358" height="1.369" fill="#1a1a1a"/><path d="M20.639,27.995a0.914,0.914,0,0,1,0,1.285,0.9,0.9,0,0,1-1.275,0,0.915,0.915,0,0,1,0-1.286A0.9,0.9,0,0,1,20.639,27.995Z" fill="#a3a3a3"/><path d="M20.535,29.367a0.892,0.892,0,0,0,.1-0.086,0.861,0.861,0,0,0,.085-0.105L19.47,27.911a0.911,0.911,0,0,0-.1.086,0.932,0.932,0,0,0-.085.105Z" fill="#656464"/><path d="M20.639,25.583a0.914,0.914,0,0,1,0,1.285,0.9,0.9,0,0,1-1.275,0,0.915,0.915,0,0,1,0-1.285A0.9,0.9,0,0,1,20.639,25.583Z" fill="#a3a3a3"/><path d="M20.535,26.955a0.893,0.893,0,0,0,.1-0.086,0.858,0.858,0,0,0,.085-0.105L19.47,25.5a0.911,0.911,0,0,0-.1.086,0.932,0.932,0,0,0-.085.105Z" fill="#656464"/><path d="M20.638,30.405a0.9,0.9,0,0,0-1.274,0,0.914,0.914,0,0,0,0,1.285,0.9,0.9,0,0,0,1.275,0A0.914,0.914,0,0,0,20.638,30.405Z" fill="#a3a3a3"/><path d="M19.277,30.511a0.87,0.87,0,0,1,.085-0.105,0.889,0.889,0,0,1,.1-0.086l1.254,1.265a0.919,0.919,0,0,1-.085.1,0.972,0.972,0,0,1-.1.086Z" fill="#656464"/><path d="M23.782,23.155a0.914,0.914,0,0,1,0,1.285,0.9,0.9,0,0,1-1.275,0,0.915,0.915,0,0,1,0-1.286A0.9,0.9,0,0,1,23.782,23.155Z" fill="#a3a3a3"/><path d="M23.677,24.527a0.661,0.661,0,0,0,.19-0.191l-1.254-1.265a0.681,0.681,0,0,0-.19.191Z" fill="#656464"/><path d="M24.76,32.269v0.587l-0.213.084v1.346a0.422,0.422,0,0,1-.421.424H22.37a0.567,0.567,0,0,1-.634-0.43V34a1.583,1.583,0,0,0-.821-0.681,0.594,0.594,0,0,1-.277-0.555V32.269h0.485v0.744h0.651V32.269" fill="#262626"/><path d="M23.781,32.833a0.9,0.9,0,0,0-1.274,0,0.915,0.915,0,0,0,0,1.286,0.9,0.9,0,0,0,1.275,0A0.915,0.915,0,0,0,23.781,32.833Z" fill="#a3a3a3"/><path d="M22.42,32.939a0.932,0.932,0,0,1,.085-0.105,0.921,0.921,0,0,1,.1-0.086l1.254,1.265a0.946,0.946,0,0,1-.085.105,0.927,0.927,0,0,1-.1.086Z" fill="#656464"/><rect x="7.037" y="15.093" width="8.807" height="8.483" rx="0.473" ry="0.473" fill="#585656"/><rect x="7.414" y="15.506" width="8.054" height="7.691" fill="#d2d2d3" stroke="#9e9e9f" stroke-width="0.173"/><polygon points="7.766 20.299 8.217 20.299 8.217 21.113 9.281 21.113 9.281 22.45 12.946 22.451 12.946 16.252 9.281 16.25 9.281 17.587 8.217 17.587 8.217 18.399 7.766 18.399 7.766 20.299" fill="#4c4948" stroke="#9e9e9f" stroke-width="0.261"/><rect x="7.414" y="15.505" width="1.242" height="1.559" fill="#7dad2a" stroke="#9e9e9f" stroke-width="0.189"/><rect x="7.414" y="21.636" width="1.242" height="1.559" fill="#7dad2a" stroke="#9e9e9f" stroke-width="0.189"/><rect x="7.037" y="24.819" width="8.807" height="8.484" rx="0.473" ry="0.473" fill="#585656"/><rect x="7.414" y="25.232" width="8.054" height="7.691" fill="#d2d2d3" stroke="#9e9e9f" stroke-width="0.173"/><polygon points="7.766 30.025 8.217 30.025 8.217 30.839 9.281 30.839 9.281 32.176 12.946 32.177 12.946 25.977 9.281 25.976 9.281 27.313 8.217 27.313 8.217 28.125 7.766 28.125 7.766 30.025" fill="#4c4948" stroke="#9e9e9f" stroke-width="0.261"/><rect x="7.414" y="25.231" width="1.242" height="1.559" fill="#7dad2a" stroke="#9e9e9f" stroke-width="0.189"/><rect x="7.414" y="31.362" width="1.242" height="1.559" fill="#7dad2a" stroke="#9e9e9f" stroke-width="0.189"/><path d="M42.734,20.386a2.021,2.021,0,0,1-.2.429l-0.269-.2a1.619,1.619,0,0,0,.23-0.707h0.329A1.883,1.883,0,0,1,42.734,20.386Z" fill="#fff"/><path d="M42.734,19.2a1.939,1.939,0,0,1,.09.476H42.495a1.6,1.6,0,0,0-.23-0.7l0.269-.2A2,2,0,0,1,42.734,19.2Z" fill="#fff"/><path d="M42.255,19.91l0.007-.091a0.56,0.56,0,0,1,0,.077Z" fill="#231815"/><path d="M41.633,18.02a1.943,1.943,0,0,1,.765.557l-0.269.2a1.549,1.549,0,0,0-.6-0.436Z" fill="#fff"/><path d="M42.4,21.007a1.921,1.921,0,0,1-.765.56l-0.1-.319a1.584,1.584,0,0,0,.6-0.436Z" fill="#fff"/><path d="M41.008,18.982l-0.07-.07-0.07.07H40.539a0.895,0.895,0,0,1,.8,0H41.008Z" fill="#ab6a00"/><polygon points="41.175 19.387 41.175 20.554 40.702 20.554 40.702 19.387 40.466 19.387 40.869 18.982 40.938 18.911 41.008 18.982 41.411 19.387 41.175 19.387" fill="#824e00"/><path d="M41.178,17.9a1.875,1.875,0,0,1,.232.044l-0.1.319a1.606,1.606,0,0,0-.183-0.034l-0.093-.01c-0.03,0-.06,0-0.093,0s-0.063,0-.093,0l-0.093.01a1.592,1.592,0,0,0-.183.034l-0.1-.319A1.726,1.726,0,0,1,40.7,17.9c0.04-.007.08-0.01,0.12-0.013,0.02,0,.04,0,0.06,0H41c0.02,0,.04,0,0.06,0C41.1,17.892,41.138,17.9,41.178,17.9Z" fill="#fff"/><path d="M41.175,20.554V19.387h0.236l-0.4-.406h0.333a0.912,0.912,0,0,1,.5.811,0.9,0.9,0,1,1-1.8,0,0.912,0.912,0,0,1,.5-0.811h0.333l-0.4.406H40.7v1.167h0.472Z" fill="#f29600"/><path d="M41.308,21.322l0.1,0.315a1.89,1.89,0,0,1-.232.047c-0.04.007-.08,0.01-0.12,0.013a0.348,0.348,0,0,0-.06,0h-0.12a0.35,0.35,0,0,0-.06,0c-0.04,0-.08-0.007-0.12-0.013a1.845,1.845,0,0,1-.23-0.047l0.1-.315c0.06,0.013.119,0.023,0.183,0.033a0.793,0.793,0,0,0,.093.007,0.843,0.843,0,0,0,.093,0,0.817,0.817,0,0,0,.093,0,0.8,0.8,0,0,0,.093-0.007C41.188,21.345,41.248,21.335,41.308,21.322Z" fill="#fff"/><path d="M41.836,19.793a0.912,0.912,0,0,0-.5-0.811h0a0.895,0.895,0,0,0-.8,0h0a0.912,0.912,0,0,0-.5.811A0.9,0.9,0,1,0,41.836,19.793ZM41.673,20.9a1.364,1.364,0,0,1-.229.121,1.3,1.3,0,0,1-.246.077,1.265,1.265,0,0,1-.519,0,1.3,1.3,0,0,1-.246-0.077A1.521,1.521,0,0,1,40.2,20.9a1.442,1.442,0,0,1-.366-0.369,1.514,1.514,0,0,1-.123-0.231,1.291,1.291,0,0,1-.073-0.251,1.107,1.107,0,0,1-.027-0.258,1.155,1.155,0,0,1,.027-0.262,1.291,1.291,0,0,1,.073-0.251,1.514,1.514,0,0,1,.123-0.231,1.345,1.345,0,0,1,.166-0.2,1.191,1.191,0,0,1,.2-0.164,1.281,1.281,0,0,1,.23-0.124,1.3,1.3,0,0,1,.246-0.077,1.265,1.265,0,0,1,.519,0,1.3,1.3,0,0,1,.246.077,1.167,1.167,0,0,1,.229.124,1.243,1.243,0,0,1,.366.365,1.352,1.352,0,0,1,.2.483,1.528,1.528,0,0,1,.02.171,0.839,0.839,0,0,1,0,.091V19.82l-0.007.091a1.213,1.213,0,0,1-.017.141,1.352,1.352,0,0,1-.2.483,1.215,1.215,0,0,1-.163.2A1.388,1.388,0,0,1,41.673,20.9Z" fill="#3e3a39"/><path d="M40.347,18.338a1.547,1.547,0,0,0-.6.436l-0.269-.2a1.94,1.94,0,0,1,.765-0.557Z" fill="#fff"/><path d="M39.748,20.812a1.611,1.611,0,0,0,.6.436l-0.1.319a1.918,1.918,0,0,1-.765-0.56Z" fill="#fff"/><path d="M39.342,20.815a2,2,0,0,1-.2-0.429,1.883,1.883,0,0,1-.09-0.476h0.329a1.61,1.61,0,0,0,.23.707Z" fill="#fff"/><path d="M39.143,19.2a1.982,1.982,0,0,1,.2-0.426l0.27,0.2a1.6,1.6,0,0,0-.23.7H39.053A1.94,1.94,0,0,1,39.143,19.2Z" fill="#fff"/><path d="M36.44,19.934c-0.006.047-.01,0.094-0.016,0.141L36.1,20.007c0.006-.053.013-0.107,0.017-0.161V19.793c0-.054,0-0.107-0.007-0.161l0.323-.067c0,0.037.01,0.077,0.01,0.114a0.288,0.288,0,0,1,0,.057c0,0.02,0,.037,0,0.057s0,0.047,0,.07S36.44,19.91,36.44,19.934Z" fill="#fff"/><path d="M36.061,19.4a1.5,1.5,0,0,0-.093-0.272c-0.013-.03-0.03-0.057-0.043-0.087l0.276-.184a1.918,1.918,0,0,1,.149.352c0.013,0.04.027,0.084,0.036,0.124Z" fill="#fff"/><path d="M36.177,20.772L35.9,20.584a1.428,1.428,0,0,0,.116-0.251,0.468,0.468,0,0,0,.03-0.091l0.326,0.067A2.024,2.024,0,0,1,36.177,20.772Z" fill="#fff"/><path d="M35.875,19.86l0-.033C35.878,19.837,35.875,19.85,35.875,19.86Z" fill="#231815"/><path d="M35.871,19.917l0-.04V19.9C35.875,19.9,35.871,19.91,35.871,19.917Z" fill="#231815"/><path d="M36.041,20.966a1.959,1.959,0,0,1-.353.352L35.5,21.04a1.766,1.766,0,0,0,.266-0.258Z" fill="#fff"/><path d="M35.712,18.288a1.986,1.986,0,0,1,.359.369l-0.276.184a1.607,1.607,0,0,0-.266-0.275Z" fill="#fff"/><path d="M34.977,18.278l0.067-.325a1.9,1.9,0,0,1,.472.2l-0.183.275A1.675,1.675,0,0,0,34.977,18.278Z" fill="#fff"/><path d="M35.033,21.637l-0.067-.329a1.712,1.712,0,0,0,.259-0.094c0.027-.013.053-0.03,0.08-0.044l0.183,0.278a1.774,1.774,0,0,1-.336.151C35.113,21.613,35.073,21.627,35.033,21.637Z" fill="#fff"/><path d="M34.644,21.362a0.8,0.8,0,0,0,.09-0.007L34.8,21.683c-0.043,0-.083.01-0.123,0.01-0.02,0-.043,0-0.063.007H34.491c-0.023,0-.043,0-0.063-0.007-0.04,0-.08-0.007-0.123-0.01l0.067-.328a2.456,2.456,0,0,0,.179.01A0.819,0.819,0,0,0,34.644,21.362Z" fill="#fff"/><path d="M34.551,18.888a0.891,0.891,0,0,1,.4.094H34.624l-0.073-.07-0.07.07H34.152A0.884,0.884,0,0,1,34.551,18.888Z" fill="#ab6a00"/><path d="M34.81,17.906l-0.067.325-0.093-.01c-0.033,0-.067,0-0.1,0s-0.063,0-.1,0l-0.094.01L34.3,17.906c0.043-.007.086-0.01,0.126-0.013,0.023,0,.043,0,0.067-0.007h0.13c0.023,0,.043,0,0.067.007C34.724,17.9,34.767,17.9,34.81,17.906Z" fill="#fff"/><polygon points="34.624 18.982 35.026 19.387 34.787 19.387 34.787 20.554 34.315 20.554 34.315 19.387 34.079 19.387 34.481 18.982 34.551 18.911 34.624 18.982" fill="#824e00"/><path d="M35.026,19.387l-0.4-.406h0.329a0.9,0.9,0,1,1-.8,0h0.329l-0.4.406h0.236v1.167h0.472V19.387h0.239Z" fill="#f29600"/><path d="M34.062,17.953l0.067,0.325a1.67,1.67,0,0,0-.356.151l-0.183-.275A1.9,1.9,0,0,1,34.062,17.953Z" fill="#fff"/><path d="M34.139,21.308l-0.063.329a1.857,1.857,0,0,1-.353-0.131,1.06,1.06,0,0,1-.106-0.057l0.183-.278a1.665,1.665,0,0,0,.249.111A0.927,0.927,0,0,0,34.139,21.308Z" fill="#fff"/><path d="M33.341,20.782a1.594,1.594,0,0,0,.263.258l-0.186.278a1.957,1.957,0,0,1-.352-0.352Z" fill="#fff"/><path d="M33.577,18.566a1.6,1.6,0,0,0-.266.275l-0.276-.184a1.886,1.886,0,0,1,.359-0.369Z" fill="#fff"/><path d="M35.452,19.793a0.909,0.909,0,0,0-.5-0.811,0.9,0.9,0,0,0-.8,0A0.9,0.9,0,1,0,35.452,19.793Zm-0.9,1.334A1.089,1.089,0,0,1,34.3,21.1a1.256,1.256,0,0,1-.249-0.074,1.509,1.509,0,0,1-.23-0.124,1.329,1.329,0,0,1-.2-0.164,1.425,1.425,0,0,1-.286-0.436,1.368,1.368,0,0,1-.077-0.248,1.426,1.426,0,0,1-.027-0.261,0.56,0.56,0,0,1,0-.077,1.727,1.727,0,0,1,.023-0.184,1.362,1.362,0,0,1,.077-0.248,1.1,1.1,0,0,1,.123-0.231,1.177,1.177,0,0,1,.163-0.2,1.34,1.34,0,0,1,.2-0.164,1.512,1.512,0,0,1,.23-0.124,1.546,1.546,0,0,1,.249-0.077,1.3,1.3,0,0,1,.256-0.023,1.317,1.317,0,0,1,.259.023,1.337,1.337,0,0,1,.479.2,1.359,1.359,0,0,1,.2.164,1.418,1.418,0,0,1,.166.2,1.24,1.24,0,0,1,.119.231,1.312,1.312,0,0,1,.077.248,1.151,1.151,0,0,1,.023.184,0.61,0.61,0,0,1,0,.077v0.034l0,0.033v0.017l0,0.04c-0.007.057-.014,0.1-0.02,0.137a1.317,1.317,0,0,1-.077.248,1.356,1.356,0,0,1-.119.231,1.416,1.416,0,0,1-.166.2,1.348,1.348,0,0,1-.2.164,1.54,1.54,0,0,1-.23.124,1.255,1.255,0,0,1-.249.074A1.1,1.1,0,0,1,34.551,21.127Z" fill="#3e3a39"/><path d="M32.905,18.854l0.276,0.184a1.3,1.3,0,0,0-.11.265,0.679,0.679,0,0,0-.027.094l-0.326-.067a1.737,1.737,0,0,1,.13-0.362A1.093,1.093,0,0,1,32.905,18.854Z" fill="#fff"/><path d="M33.058,20.242a1.479,1.479,0,0,0,.1.262c0.013,0.027.03,0.054,0.043,0.08l-0.276.188a1.974,1.974,0,0,1-.2-0.466Z" fill="#fff"/><path d="M32.992,19.847c0,0.054.01,0.107,0.017,0.161l-0.326.067c-0.007-.047-0.014-0.094-0.017-0.141,0-.023,0-0.047,0-0.07s0-.047,0-0.07,0-.04,0-0.057a0.32,0.32,0,0,1,0-.057,0.644,0.644,0,0,1,.01-0.114L33,19.629c0,0.057-.006.111-0.006,0.164v0.054Z" fill="#fff"/><rect x="5.661" y="12.123" width="62.679" height="23.755" fill="none" stroke="#231815" stroke-width="0.25"/><rect x="31.363" y="28.936" width="34.188" height="5.207" fill="#262626"/><rect x="35.009" y="29.465" width="26.896" height="4.135" fill="#595757"/><path d="M36.107,32.107a1.184,1.184,0,0,0,1.1.776H59.665a1.184,1.184,0,0,0,1.1-.776l0.275-.987a0.615,0.615,0,0,0-.674-0.776H36.5a0.614,0.614,0,0,0-.673.776Z" fill="#262626"/><rect x="36.767" y="30.88" width="0.547" height="0.279" fill="#ae9a52"/><rect x="36.767" y="31.947" width="0.547" height="0.279" fill="#ae9a52"/><rect x="37.969" y="30.88" width="0.547" height="0.279" fill="#ae9a52"/><rect x="37.969" y="31.947" width="0.547" height="0.279" fill="#ae9a52"/><rect x="39.17" y="30.88" width="0.547" height="0.279" fill="#ae9a52"/><rect x="39.17" y="31.947" width="0.547" height="0.279" fill="#ae9a52"/><rect x="40.372" y="30.88" width="0.547" height="0.279" fill="#ae9a52"/><rect x="40.372" y="31.947" width="0.547" height="0.279" fill="#ae9a52"/><rect x="41.574" y="30.88" width="0.547" height="0.279" fill="#ae9a52"/><rect x="41.574" y="31.947" width="0.547" height="0.279" fill="#ae9a52"/><rect x="42.776" y="30.88" width="0.547" height="0.279" fill="#ae9a52"/><rect x="42.776" y="31.947" width="0.547" height="0.279" fill="#ae9a52"/><rect x="43.977" y="30.88" width="0.547" height="0.279" fill="#ae9a52"/><rect x="43.977" y="31.947" width="0.547" height="0.279" fill="#ae9a52"/><rect x="45.179" y="30.88" width="0.547" height="0.279" fill="#ae9a52"/><rect x="45.179" y="31.947" width="0.547" height="0.279" fill="#ae9a52"/><rect x="46.381" y="30.88" width="0.547" height="0.279" fill="#ae9a52"/><rect x="46.381" y="31.947" width="0.547" height="0.279" fill="#ae9a52"/><rect x="47.582" y="30.88" width="0.547" height="0.279" fill="#ae9a52"/><rect x="47.582" y="31.947" width="0.547" height="0.279" fill="#ae9a52"/><rect x="48.784" y="30.88" width="0.547" height="0.279" fill="#ae9a52"/><rect x="48.784" y="31.947" width="0.547" height="0.279" fill="#ae9a52"/><rect x="49.986" y="30.88" width="0.547" height="0.279" fill="#ae9a52"/><rect x="49.986" y="31.947" width="0.547" height="0.279" fill="#ae9a52"/><rect x="51.187" y="30.88" width="0.547" height="0.279" fill="#ae9a52"/><rect x="51.187" y="31.947" width="0.547" height="0.279" fill="#ae9a52"/><rect x="52.389" y="30.88" width="0.547" height="0.279" fill="#ae9a52"/><rect x="52.389" y="31.947" width="0.547" height="0.279" fill="#ae9a52"/><rect x="53.591" y="30.88" width="0.547" height="0.279" fill="#ae9a52"/><rect x="53.591" y="31.947" width="0.547" height="0.279" fill="#ae9a52"/><rect x="54.792" y="30.88" width="0.547" height="0.279" fill="#ae9a52"/><rect x="54.792" y="31.947" width="0.547" height="0.279" fill="#ae9a52"/><rect x="55.994" y="30.88" width="0.547" height="0.279" fill="#ae9a52"/><rect x="55.994" y="31.947" width="0.547" height="0.279" fill="#ae9a52"/><rect x="57.196" y="30.88" width="0.547" height="0.279" fill="#ae9a52"/><rect x="57.196" y="31.947" width="0.547" height="0.279" fill="#ae9a52"/><rect x="58.397" y="30.88" width="0.547" height="0.279" fill="#ae9a52"/><rect x="58.397" y="31.947" width="0.547" height="0.279" fill="#ae9a52"/><rect x="59.599" y="30.88" width="0.547" height="0.279" fill="#ae9a52"/><rect x="59.599" y="31.947" width="0.547" height="0.279" fill="#ae9a52"/><rect x="31.925" y="29.465" width="2.869" height="4.135" fill="#595757"/><circle cx="33.36" cy="31.532" r="0.739" fill="none" stroke="#ae9a52" stroke-width="0.167"/><rect x="62.119" y="29.465" width="2.869" height="4.135" fill="#595757"/><circle cx="63.554" cy="31.532" r="0.74" fill="none" stroke="#ae9a52" stroke-width="0.167"/><path d="M39.256,16.989a2.874,2.874,0,0,0-.456.349H37.524V16H48.081a0.47,0.47,0,0,1,.336.141,0.478,0.478,0,0,1,.1.154,0.487,0.487,0,0,1,.037.181v0.862H43.08a3.073,3.073,0,0,0-.459-0.349,3.011,3.011,0,0,0-.515-0.265,2.686,2.686,0,0,0-.276-0.094,2.3,2.3,0,0,0-.289-0.07,2.829,2.829,0,0,0-.3-0.044,1.162,1.162,0,0,0-.153-0.01c-0.05,0-.1,0-0.153,0s-0.1,0-.153,0a1.17,1.17,0,0,0-.153.01,2.967,2.967,0,0,0-.3.044,2.294,2.294,0,0,0-.289.07c-0.093.027-.183,0.057-0.276,0.094A3,3,0,0,0,39.256,16.989Z" fill="#fff"/><path d="M30.7,16.3a0.469,0.469,0,0,1,.1-0.154,0.489,0.489,0,0,1,.156-0.1A0.48,0.48,0,0,1,31.133,16h6.251v1.338H36.693a3.284,3.284,0,0,0-.994-0.617,3.12,3.12,0,0,0-2.291,0,3.287,3.287,0,0,0-.994.617H30.661V16.48A0.491,0.491,0,0,1,30.7,16.3Z" fill="#fff"/><polygon points="54.295 14.125 54.289 14.128 54.289 14.125 54.295 14.125" fill="#fff"/><path d="M31.987,12.694v2.574a0.491,0.491,0,0,1-.033.181,0.523,0.523,0,0,1-.1.157,0.475,0.475,0,0,1-.153.1,0.5,0.5,0,0,1-.183.037H21.6a0.467,0.467,0,0,1-.18-0.037,0.432,0.432,0,0,1-.256-0.258,0.487,0.487,0,0,1-.036-0.181V12.694H31.987Z" fill="#fff"/><path d="M28.341,29.947v2.179a0.341,0.341,0,0,1-.14.117,0.454,0.454,0,0,1-.12.04,0.9,0.9,0,0,1-.166.013h-2.3v-2.35h2.73Z" fill="#fff"/><rect x="25.612" y="27.53" width="2.73" height="2.28" fill="#fff"/><path d="M28.341,25.207v2.179h-2.73v-2.35h2.3a0.9,0.9,0,0,1,.166.013,0.455,0.455,0,0,1,.12.04A0.341,0.341,0,0,1,28.341,25.207Z" fill="#fff"/><path d="M15.888,17.878V15.732h1.466a0.493,0.493,0,0,1,.183.037,0.513,0.513,0,0,1,.15.1,0.484,0.484,0,0,1,.1.154,0.491,0.491,0,0,1,.037.184V17.4a0.491,0.491,0,0,1-.037.184,0.47,0.47,0,0,1-.1.151,0.461,0.461,0,0,1-.15.1,0.493,0.493,0,0,1-.183.037H15.888Z" fill="#fff"/><path d="M15.888,20.811h1.466a0.493,0.493,0,0,1,.183.037,0.507,0.507,0,0,1,.15.1,0.484,0.484,0,0,1,.1.154,0.49,0.49,0,0,1,.037.184V22.48a0.491,0.491,0,0,1-.037.185,0.468,0.468,0,0,1-.1.151,0.461,0.461,0,0,1-.15.1,0.493,0.493,0,0,1-.183.037H15.888V20.811Z" fill="#fff"/><path d="M15.888,27.414V25.269h1.466a0.492,0.492,0,0,1,.183.037,0.508,0.508,0,0,1,.15.1,0.478,0.478,0,0,1,.1.154,0.492,0.492,0,0,1,.037.185v1.194a0.489,0.489,0,0,1-.037.184,0.475,0.475,0,0,1-.1.151,0.47,0.47,0,0,1-.15.1,0.493,0.493,0,0,1-.183.037H15.888Z" fill="#fff"/><path d="M15.888,32.492V30.348h1.466a0.492,0.492,0,0,1,.183.037,0.508,0.508,0,0,1,.15.1,0.478,0.478,0,0,1,.1.154,0.49,0.49,0,0,1,.037.185v1.193a0.49,0.49,0,0,1-.037.185,0.5,0.5,0,0,1-.253.255,0.492,0.492,0,0,1-.183.037H15.888Z" fill="#fff"/><rect x="39.616" y="23.764" width="17.744" height="1.574" fill="#747373"/><path d="M54.482,12.694v2.574a0.488,0.488,0,0,0,.037.181,0.518,0.518,0,0,0,.1.157,0.47,0.47,0,0,0,.153.1,0.5,0.5,0,0,0,.183.037h7.361a0.5,0.5,0,0,0,.183-0.037,0.47,0.47,0,0,0,.153-0.1,0.517,0.517,0,0,0,.1-0.157,0.487,0.487,0,0,0,.037-0.181V12.694H54.482Zm2.43,1.435-0.01,0h0.01v0Zm0.981,0v0H57.9Zm0.821,0-0.01,0h0.01v0Zm0.981,0v0H59.7Zm0.821,0-0.01,0h0.01v0Zm0.981,0v0H61.5Zm0.821,0-0.01,0h0.01v0Z" fill="#fff"/><polygon points="31.08 15.459 31.08 14.128 31.08 14.125 30.258 14.125 30.258 14.128 30.258 15.459 31.08 15.459" fill="#3e3a39"/><polygon points="29.048 15.459 29.048 14.128 29.048 14.125 28.224 14.125 28.224 14.128 28.224 15.459 29.048 15.459" fill="#3e3a39"/><polygon points="27.013 15.459 27.013 14.128 27.013 14.125 26.188 14.125 26.188 14.128 26.188 15.459 27.013 15.459" fill="#3e3a39"/><polygon points="24.979 15.459 24.979 14.128 24.979 14.125 24.154 14.125 24.154 14.128 24.154 15.459 24.979 15.459" fill="#3e3a39"/><polygon points="22.943 15.459 22.943 14.128 22.943 14.125 22.122 14.125 22.122 14.128 22.122 15.459 22.943 15.459" fill="#3e3a39"/><path d="M33.657,12.694v2.765H32.646a0.225,0.225,0,0,1-.236-0.226v-2.54H32.147v2.574a0.487,0.487,0,0,0,.036.181,0.432,0.432,0,0,0,.256.258,0.467,0.467,0,0,0,.18.037h9.915a0.5,0.5,0,0,0,.183-0.037,0.475,0.475,0,0,0,.153-0.1,0.523,0.523,0,0,0,.1-0.157,0.491,0.491,0,0,0,.033-0.181V12.694H33.657Z" fill="#fff"/><polygon points="42.496 15.459 42.496 14.128 42.496 14.125 41.674 14.125 41.674 14.128 41.674 15.459 42.496 15.459" fill="#3e3a39"/><polygon points="40.658 15.459 40.658 14.128 40.658 14.125 39.836 14.125 39.836 14.128 39.836 15.459 40.658 15.459" fill="#3e3a39"/><polygon points="38.819 15.459 38.819 14.128 38.819 14.125 37.998 14.125 37.998 14.128 37.998 15.459 38.819 15.459" fill="#3e3a39"/><polygon points="36.981 15.459 36.981 14.128 36.981 14.125 36.16 14.125 36.16 14.128 36.16 15.459 36.981 15.459" fill="#3e3a39"/><polygon points="35.143 15.459 35.143 14.128 35.143 14.125 34.321 14.125 34.321 14.128 34.321 15.459 35.143 15.459" fill="#3e3a39"/><path d="M44.676,12.694v2.765H43.664a0.225,0.225,0,0,1-.236-0.226v-2.54H43.165v2.574a0.487,0.487,0,0,0,.036.181,0.432,0.432,0,0,0,.256.258,0.467,0.467,0,0,0,.18.037H53.851a0.5,0.5,0,0,0,.183-0.037,0.475,0.475,0,0,0,.153-0.1,0.523,0.523,0,0,0,.1-0.157,0.49,0.49,0,0,0,.033-0.181V12.694H44.676Z" fill="#fff"/><polygon points="53.514 15.459 53.514 14.128 53.514 14.125 52.693 14.125 52.693 14.128 52.693 15.459 53.514 15.459" fill="#3e3a39"/><polygon points="51.676 15.459 51.676 14.128 51.676 14.125 50.855 14.125 50.855 14.128 50.855 15.459 51.676 15.459" fill="#3e3a39"/><polygon points="49.838 15.459 49.838 14.128 49.838 14.125 49.016 14.125 49.016 14.128 49.016 15.459 49.838 15.459" fill="#3e3a39"/><polygon points="48 15.459 48 14.128 48 14.125 47.178 14.125 47.178 14.128 47.178 15.459 48 15.459" fill="#3e3a39"/><polygon points="46.161 15.459 46.161 14.128 46.161 14.125 45.34 14.125 45.34 14.128 45.34 15.459 46.161 15.459" fill="#3e3a39"/><polygon points="60.5 14.125 59.708 14.125 59.702 14.125 59.695 14.125 59.695 14.128 59.695 15.459 60.516 15.459 60.516 14.128 60.516 14.125 60.507 14.125 60.5 14.125" fill="#3e3a39"/><polygon points="57.906 14.125 57.899 14.125 57.893 14.125 57.893 14.128 57.893 15.459 58.714 15.459 58.714 14.128 58.714 14.125 58.704 14.125 58.698 14.125 57.906 14.125" fill="#3e3a39"/><polygon points="56.895 14.125 56.104 14.125 56.097 14.125 56.091 14.125 56.091 14.128 56.091 15.459 56.912 15.459 56.912 14.128 56.912 14.125 56.902 14.125 56.895 14.125" fill="#3e3a39"/><polygon points="61.511 14.125 61.504 14.125 61.497 14.125 61.497 14.128 61.497 15.459 62.318 15.459 62.318 14.128 62.318 14.125 62.309 14.125 61.511 14.125" fill="#3e3a39"/></svg>