<svg xmlns="http://www.w3.org/2000/svg" xmlns:xlink="http://www.w3.org/1999/xlink" width="74" height="48" viewBox="0 0 74 48"><defs><radialGradient id="a" cx="-917.34552" cy="194.43814" r="0.56949" gradientTransform="translate(-871.65123 204.7633) rotate(180) scale(0.96049 0.96017)" gradientUnits="userSpaceOnUse"><stop offset="0.01124" stop-color="#a2c05d"/><stop offset="0.5" stop-color="#7dad2a"/><stop offset="1" stop-color="#61881c"/></radialGradient><radialGradient id="b" cx="-917.34552" cy="189.49956" r="0.56948" xlink:href="#a"/><radialGradient id="c" cx="-917.34552" cy="186.60419" r="0.56948" xlink:href="#a"/><radialGradient id="d" cx="-917.34552" cy="181.66562" r="0.56948" xlink:href="#a"/><linearGradient id="e" x1="7.17675" y1="9.55615" x2="7.17675" y2="8.33573" gradientTransform="translate(32.1055 22.9565) rotate(90)" gradientUnits="userSpaceOnUse"><stop offset="0" stop-color="#888"/><stop offset="0.14286" stop-color="#656464"/><stop offset="1" stop-color="#4c4948"/></linearGradient><linearGradient id="f" x1="24.86157" y1="30.13325" x2="29.09736" y2="30.13325" gradientUnits="userSpaceOnUse"><stop offset="0" stop-color="#888"/><stop offset="0.14286" stop-color="#656464"/><stop offset="1" stop-color="#595757"/></linearGradient><linearGradient id="g" x1="23.68912" y1="30.13325" x2="25.06687" y2="30.13325" xlink:href="#f"/><radialGradient id="h" cx="27.81436" cy="28.97911" r="0.732" gradientTransform="translate(27.74728 -10.29321) rotate(44.97628) scale(0.96049 0.96017)" gradientUnits="userSpaceOnUse"><stop offset="0.74233" stop-color="#3c3736"/><stop offset="0.93252" stop-color="#464342"/><stop offset="1" stop-color="#595757"/></radialGradient><radialGradient id="i" cx="7.40979" cy="43.17801" r="0.72545" gradientTransform="matrix(0.97023, -0.00013, 0.00045, 0.96806, 19.434, -15.4076)" gradientUnits="userSpaceOnUse"><stop offset="0" stop-color="#c8c9ca"/><stop offset="0.18002" stop-color="#bdbebf"/><stop offset="0.49657" stop-color="#a1a1a2"/><stop offset="0.90971" stop-color="#737272"/><stop offset="1" stop-color="#686767"/></radialGradient><radialGradient id="j" cx="22.16332" cy="7.26783" r="0.7255" gradientTransform="matrix(0.97023, 0.00013, -0.0002, -0.96806, 5.14049, 40.90939)" xlink:href="#i"/><radialGradient id="k" cx="27.81436" cy="30.91974" r="0.732" gradientTransform="matrix(0.67945, 0.67889, -0.67866, 0.67922, 29.06425, -9.748)" xlink:href="#h"/><radialGradient id="l" cx="27.81436" cy="32.86036" r="0.732" gradientTransform="translate(30.38133 -9.20279) rotate(44.97628) scale(0.96049 0.96017)" xlink:href="#h"/><radialGradient id="m" cx="23.50457" cy="30.9187" r="0.75755" gradientTransform="translate(0.26332 0.44802) scale(0.96049 0.96017)" gradientUnits="userSpaceOnUse"><stop offset="0.47239" stop-color="#3c3736"/><stop offset="0.74233" stop-color="#464342"/><stop offset="1" stop-color="#464342"/></radialGradient><radialGradient id="n" cx="23.41716" cy="30.91392" r="0.37267" gradientTransform="translate(0.26332 -16.29088) scale(0.96049 1.50164)" gradientUnits="userSpaceOnUse"><stop offset="0.47239" stop-color="#3c3736"/><stop offset="0.87117" stop-color="#464342"/><stop offset="1" stop-color="#595757"/></radialGradient><radialGradient id="o" cx="23.50457" cy="28.97913" r="0.75755" xlink:href="#m"/><radialGradient id="p" cx="23.41716" cy="28.97435" r="0.37267" gradientTransform="translate(0.26332 -15.24067) scale(0.96049 1.50164)" xlink:href="#n"/><radialGradient id="q" cx="23.50457" cy="207.64937" r="0.75755" gradientTransform="matrix(0.96049, 0, 0, -0.96017, 0.26332, 231.37236)" xlink:href="#m"/><radialGradient id="r" cx="23.41716" cy="207.64461" r="0.37267" gradientTransform="matrix(0.96049, 0, 0, -1.50164, 0.26332, 343.80527)" xlink:href="#n"/></defs><title>cc-link_ie_aio_md</title><rect width="74" height="48" fill="#fff"/><rect x="7.59723" y="12.09557" width="58.80909" height="23.88326" fill="#535151"/><rect x="8.67053" y="17.14845" width="6.86926" height="6.56101" rx="0.36749" ry="0.36749" fill="#585656"/><rect x="8.96456" y="17.46776" width="6.2812" height="5.94796" fill="#d2d2d3" stroke="#9e9e9f" stroke-width="0.13413"/><polygon points="9.239 21.175 9.591 21.175 9.591 21.804 10.421 21.804 10.421 22.839 13.279 22.839 13.279 18.045 10.421 18.044 10.421 19.077 9.591 19.077 9.591 19.706 9.239 19.706 9.239 21.175" fill="#4c4948" stroke="#9e9e9f" stroke-width="0.2024"/><rect x="8.96456" y="17.46693" width="0.96845" height="1.20598" stroke="#9e9e9f" stroke-width="0.147" fill="url(#a)"/><rect x="8.96456" y="22.2088" width="0.96845" height="1.20597" stroke="#9e9e9f" stroke-width="0.147" fill="url(#b)"/><rect x="8.67053" y="24.67025" width="6.86926" height="6.56114" rx="0.36749" ry="0.36749" fill="#585656"/><rect x="8.96456" y="24.98974" width="6.2812" height="5.94796" fill="#d2d2d3" stroke="#9e9e9f" stroke-width="0.13413"/><polygon points="9.239 28.697 9.591 28.697 9.591 29.326 10.421 29.326 10.421 30.36 13.279 30.361 13.279 25.566 10.421 25.566 10.421 26.599 9.591 26.599 9.591 27.228 9.239 27.228 9.239 28.697" fill="#4c4948" stroke="#9e9e9f" stroke-width="0.2024"/><rect x="8.96456" y="24.98886" width="0.96845" height="1.20596" stroke="#9e9e9f" stroke-width="0.147" fill="url(#c)"/><rect x="8.96456" y="29.73072" width="0.96845" height="1.20596" stroke="#9e9e9f" stroke-width="0.147" fill="url(#d)"/><rect x="17.32776" y="12.09557" width="39.34781" height="23.88326" fill="#676866"/><polygon points="17.92 12.681 17.92 35.393 22.445 35.393 22.445 24.67 29.159 24.67 29.159 35.393 56.083 35.393 56.083 12.681 17.92 12.681" fill="#545452"/><polygon points="29.379 35.173 29.379 24.45 22.224 24.45 22.224 35.173 18.141 35.173 18.141 12.902 55.862 12.902 55.862 35.173 29.379 35.173" fill="#60605e"/><rect x="22.72373" y="24.94974" width="6.05869" height="11.02908" fill="#4c4948"/><rect x="23.31646" y="25.21835" width="5.18664" height="10.51438" fill="#686767"/><polygon points="23.044 32.942 22.549 32.461 22.549 27.805 23.044 27.325 23.77 27.325 23.77 32.942 23.044 32.942" fill="url(#e)"/><rect x="25.57498" y="27.32472" width="2.52823" height="5.61707" fill="url(#f)"/><path d="M27.90339,27.32472V26.871l-0.16613-.06481v-1.041a0.32839,0.32839,0,0,0-.32821-0.3281H26.03944a0.44137,0.44137,0,0,0-.49434.33215V25.988a1.23306,1.23306,0,0,1-.64024.52658,0.45747,0.45747,0,0,0-.21628.42939v0.38075h0.37837V26.74953h0.508v0.57519" fill="#595757"/><rect x="23.76977" y="27.32472" width="1.29718" height="5.61707" fill="url(#g)"/><polygon points="27.774 29.048 27.774 27.492 25.926 27.492 25.926 27.325 23.77 27.325 23.77 32.942 25.926 32.942 25.926 32.774 27.774 32.774 27.774 31.219 25.926 31.219 25.926 30.911 27.774 30.911 27.774 29.356 25.926 29.356 25.926 29.048 27.774 29.048" fill="#595757"/><circle cx="26.9787" cy="28.27291" r="0.70383" transform="translate(-12.0897 27.34159) rotate(-44.97628)" fill="url(#h)"/><circle cx="26.64264" cy="26.39053" r="0.70392" transform="translate(-10.85753 26.55767) rotate(-44.983)" stroke="#717071" stroke-width="0.12964" fill="url(#i)"/><path d="M27.059,26.95459a0.51473,0.51473,0,0,0,.14792-0.14785l-0.97833-.978a0.73273,0.73273,0,0,0-.0813.0666,0.74541,0.74541,0,0,0-.0666.08125Z" fill="#656464"/><circle cx="26.64264" cy="26.39053" r="0.70392" transform="translate(-10.85753 26.55767) rotate(-44.983)" fill="none" stroke="#595757" stroke-width="0.12964"/><path d="M27.90339,32.942v0.45368l-0.16613.06481v1.041a0.32839,0.32839,0,0,1-.32821.3281H26.03944a0.44137,0.44137,0,0,1-.49434-0.33215V34.27877a1.233,1.233,0,0,0-.64024-0.52658,0.45746,0.45746,0,0,1-.21628-0.42939V32.942h0.37837v0.57519h0.508V32.942" fill="#595757"/><circle cx="26.64276" cy="33.8763" r="0.70392" transform="translate(-16.1505 28.75986) rotate(-44.99792)" stroke="#717071" stroke-width="0.12964" fill="url(#j)"/><path d="M26.07845,33.46a0.51508,0.51508,0,0,1,.1479-0.14785l0.97833,0.978a0.73725,0.73725,0,0,1-.06662.08127,0.727,0.727,0,0,1-.08153.06658Z" fill="#656464"/><circle cx="26.64276" cy="33.8763" r="0.70392" transform="translate(-16.1505 28.75986) rotate(-44.99792)" fill="none" stroke="#595757" stroke-width="0.12964"/><rect x="25.23611" y="27.49232" width="0.82561" height="1.55547" fill="#f29600"/><rect x="25.53953" y="27.49232" width="0.21867" height="1.55547" fill="#824e00"/><path d="M27.40031,27.95082a0.51651,0.51651,0,0,0-.79789-0.05392,0.50708,0.50708,0,0,0-.0452.05543v0.64306a0.54465,0.54465,0,0,0,.04432.05444,0.53314,0.53314,0,0,0,.75344-0.001,0.5242,0.5242,0,0,0,.04533-0.05543V27.95082Z" fill="#433f3f"/><circle cx="26.9787" cy="30.13623" r="0.70383" transform="translate(-13.40673 27.88674) rotate(-44.9762)" fill="url(#k)"/><rect x="25.23611" y="29.35565" width="0.82561" height="1.55547" fill="#f29600"/><rect x="25.53953" y="29.35565" width="0.21867" height="1.55547" fill="#824e00"/><path d="M27.40031,29.81415a0.51651,0.51651,0,0,0-.79789-0.05392,0.50733,0.50733,0,0,0-.0452.05543v0.64306a0.54435,0.54435,0,0,0,.04432.05444,0.53314,0.53314,0,0,0,.75344-0.001,0.5242,0.5242,0,0,0,.04533-0.05543V29.81415Z" fill="#433f3f"/><circle cx="26.9787" cy="31.99956" r="0.70383" transform="translate(-14.72376 28.43201) rotate(-44.97628)" fill="url(#l)"/><rect x="25.23611" y="31.21897" width="0.82561" height="1.55547" fill="#f29600"/><rect x="25.53953" y="31.21897" width="0.21867" height="1.55547" fill="#824e00"/><path d="M27.40031,31.67747a0.51651,0.51651,0,0,0-.79789-0.05392,0.50709,0.50709,0,0,0-.0452.05543V32.322a0.54464,0.54464,0,0,0,.04432.05444,0.53314,0.53314,0,0,0,.75344-0.001A0.5242,0.5242,0,0,0,27.40031,32.32V31.67747Z" fill="#433f3f"/><path d="M23.58668,30.63541a1.04777,1.04777,0,0,1-.78713-0.14785,0.50879,0.50879,0,0,1,0-.71318,0.49613,0.49613,0,0,1,.35635-0.14707h0.43078v1.0081Z" fill="url(#m)"/><path d="M23.07282,30.13084a0.429,0.429,0,0,0-.24032-0.384c-0.01115.00988-.02077,0.01545-0.03294,0.02758a0.50879,0.50879,0,0,0,0,.71318,0.41254,0.41254,0,0,0,.03382.02683A0.42837,0.42837,0,0,0,23.07282,30.13084Z" fill="url(#n)"/><path d="M23.58668,28.77309a1.04777,1.04777,0,0,1-.78713-0.14785,0.50876,0.50876,0,0,1,0-.71316,0.49606,0.49606,0,0,1,.35635-0.14709h0.43078v1.0081Z" fill="url(#o)"/><path d="M23.07282,28.26855a0.429,0.429,0,0,0-.24032-0.38407c-0.01115.00988-.02077,0.01545-0.03294,0.02761a0.50876,0.50876,0,0,0,0,.71316,0.41314,0.41314,0,0,0,.03382.02683A0.42837,0.42837,0,0,0,23.07282,28.26855Z" fill="url(#p)"/><path d="M23.58668,31.49367a1.04777,1.04777,0,0,0-.78713.14785,0.50879,0.50879,0,0,0,0,.71318,0.49626,0.49626,0,0,0,.35635.1471h0.43078V31.49367Z" fill="url(#q)"/><path d="M23.07282,31.99824a0.429,0.429,0,0,1-.24032.384c-0.01115-.00988-0.02077-0.01545-0.03294-0.02758a0.50879,0.50879,0,0,1,0-.71318,0.41314,0.41314,0,0,1,.03382-0.02683A0.4284,0.4284,0,0,1,23.07282,31.99824Z" fill="url(#r)"/><path d="M28.36557,19.47608a1.55662,1.55662,0,0,1-.15575.33178l-0.20993-.1529a1.24473,1.24473,0,0,0,.179-0.547h0.25656A1.44536,1.44536,0,0,1,28.36557,19.47608Z" fill="#fff"/><path d="M28.36557,18.55568a1.4885,1.4885,0,0,1,.06992.36813H28.17893a1.23338,1.23338,0,0,0-.179-0.54434l0.20993-.153A1.54006,1.54006,0,0,1,28.36557,18.55568Z" fill="#fff"/><path d="M27.992,19.108l0.00532-.07a0.4302,0.4302,0,0,1-.00254.05963Z" fill="#231815"/><path d="M27.50705,17.64581a1.51559,1.51559,0,0,1,.59667.43037l-0.21022.15293a1.20739,1.20739,0,0,0-.46675-0.3371Z" fill="#fff"/><path d="M28.10373,19.95571a1.498,1.498,0,0,1-.59667.43291l-0.08029-.24634a1.23479,1.23479,0,0,0,.46675-0.337Z" fill="#fff"/><path d="M27.01954,18.38987l-0.05446-.05444-0.05443.05444H26.65383a0.70292,0.70292,0,0,1,.6225,0H27.01954Z" fill="#ab6a00"/><polygon points="27.149 18.704 27.149 19.606 26.781 19.606 26.781 18.704 26.597 18.704 26.911 18.39 26.965 18.335 27.02 18.39 27.333 18.704 27.149 18.704" fill="#824e00"/><path d="M27.152,17.555a1.46985,1.46985,0,0,1,.18135.03368L27.253,17.835a1.26777,1.26777,0,0,0-.14258-0.026l-0.07269-.0077c-0.02329,0-.0466-0.00267-0.07269-0.00267-0.02329,0-.04912.00267-0.07243,0.00267l-0.07267.0077a1.25507,1.25507,0,0,0-.14258.026l-0.078-.24631a1.35243,1.35243,0,0,1,.179-0.03368c0.03115-.00521.06229-0.00773,0.09347-0.0104,0.01543,0,.03114-0.00251.04657-0.00251h0.09347c0.01545,0,.03088.00251,0.0466,0.00251C27.08969,17.54732,27.12083,17.54984,27.152,17.555Z" fill="#fff"/><path d="M27.1492,19.6057V18.70353h0.18413l-0.31379-.31366h0.25933a0.70026,0.70026,0,1,1-.62756,0h0.25933l-0.31379.31366H26.781V19.6057H27.1492Z" fill="#f29600"/><path d="M27.253,20.1994l0.08029,0.24366a1.48136,1.48136,0,0,1-.18135.03622c-0.03115.00518-.06229,0.00783-0.09344,0.01037a0.274,0.274,0,0,0-.0466.00264H26.91847a0.27526,0.27526,0,0,0-.04657-0.00264c-0.03117-.00254-0.06232-0.00518-0.09347-0.01037a1.44507,1.44507,0,0,1-.179-0.03622l0.078-.24366c0.04657,0.01037.09318,0.0181,0.14258,0.02582a0.62407,0.62407,0,0,0,.07267.00518,0.66334,0.66334,0,0,0,.07243.00264,0.64266,0.64266,0,0,0,.07269-0.00264,0.62866,0.62866,0,0,0,.07269-0.00518C27.15958,20.2175,27.20644,20.20977,27.253,20.1994Z" fill="#fff"/><path d="M27.66532,19.01722a0.70453,0.70453,0,0,0-.38646-0.62735H27.27633a0.70292,0.70292,0,0,0-.6225,0H26.65131A0.70062,0.70062,0,1,0,27.66532,19.01722Zm-0.12712.85813a1.06873,1.06873,0,0,1-.17881.09328,1.02218,1.02218,0,0,1-.192.05963,0.99508,0.99508,0,0,1-.40445,0,1.02224,1.02224,0,0,1-.192-0.05963,1.192,1.192,0,0,1-.179-0.09328,0.9432,0.9432,0,0,1-.1555-0.12962,0.93006,0.93006,0,0,1-.12967-0.15557,1.16928,1.16928,0,0,1-.096-0.17888,0.99265,0.99265,0,0,1-.057-0.19443,0.84908,0.84908,0,0,1-.02077-0.19962,0.88622,0.88622,0,0,1,.02077-0.20229,0.99369,0.99369,0,0,1,.057-0.19443,1.17024,1.17024,0,0,1,.096-0.17885,1.04344,1.04344,0,0,1,.12967-0.15557,0.92859,0.92859,0,0,1,.1555-0.127,1.00152,1.00152,0,0,1,.179-0.09595,1.02415,1.02415,0,0,1,.192-0.05963,0.99629,0.99629,0,0,1,.40445,0,1.02409,1.02409,0,0,1,.192.05963,0.91236,0.91236,0,0,1,.17881.09595,0.96576,0.96576,0,0,1,.28542.28255,1.04087,1.04087,0,0,1,.1555.37329,1.1741,1.1741,0,0,1,.01569.13229,0.64363,0.64363,0,0,1,.00254.07V19.038l-0.00532.07a0.93021,0.93021,0,0,1-.01291.10886,1.04124,1.04124,0,0,1-.1555.37331,0.94162,0.94162,0,0,1-.12715.15557A1.08366,1.08366,0,0,1,27.5382,19.87535Z" fill="#3e3a39"/><path d="M26.50365,17.892a1.20625,1.20625,0,0,0-.467.3371l-0.21-.15293a1.51287,1.51287,0,0,1,.59641-0.43037Z" fill="#fff"/><path d="M26.03667,19.80532a1.25564,1.25564,0,0,0,.467.337l-0.08052.24634a1.49531,1.49531,0,0,1-.59641-0.43291Z" fill="#fff"/><path d="M25.72033,19.80786a1.54325,1.54325,0,0,1-.1555-0.33178,1.44567,1.44567,0,0,1-.07015-0.3681h0.25679a1.23847,1.23847,0,0,0,.17907.547Z" fill="#fff"/><path d="M25.56484,18.55568a1.52681,1.52681,0,0,1,.1555-0.32924l0.21021,0.153a1.22718,1.22718,0,0,0-.17907.54434H25.49469A1.489,1.489,0,0,1,25.56484,18.55568Z" fill="#fff"/><path d="M23.82195,19.12607c-0.00506.03635-.0076,0.07254-0.01266,0.10886L23.555,19.18306c0.00508-.0414.0104-0.08293,0.01291-0.12444v-0.0414c0-.04153-0.00251-0.083-0.00532-0.12444l0.25173-.0519c0.00254,0.02849.0076,0.05963,0.0076,0.08812a0.221,0.221,0,0,1,.0028.04418c0,0.01545.00251,0.02847,0.00251,0.044,0,0.0181-.00251.03622-0.00251,0.05444S23.82195,19.108,23.82195,19.12607Z" fill="#fff"/><path d="M23.52641,18.71126a1.15115,1.15115,0,0,0-.07269-0.21c-0.01014-.02331-0.02329-0.04407-0.03343-0.06735l0.21527-.14266a1.47726,1.47726,0,0,1,.11649.27229c0.01037,0.03114.02077,0.06481,0.02837,0.09595Z" fill="#fff"/><path d="M23.61733,19.77419L23.40206,19.629a1.105,1.105,0,0,0,.09066-0.19443,0.36054,0.36054,0,0,0,.02329-0.07l0.25428,0.0519A1.55928,1.55928,0,0,1,23.61733,19.77419Z" fill="#fff"/><path d="M23.38129,19.069l0.00254-.02582Z" fill="#231815"/><path d="M23.37875,19.11316l0.00254-.03114v0.01558Z" fill="#231815"/><path d="M23.511,19.92458a1.52087,1.52087,0,0,1-.275.27216l-0.14512-.2152a1.3712,1.3712,0,0,0,.20741-0.19962Z" fill="#fff"/><path d="M23.25417,17.85315a1.54023,1.54023,0,0,1,.28008.2852l-0.21525.14253a1.24837,1.24837,0,0,0-.20741-0.21256Z" fill="#fff"/><path d="M22.681,17.84543l0.05192-.25152a1.4844,1.4844,0,0,1,.36822.15557l-0.14284.21253A1.31269,1.31269,0,0,0,22.681,17.84543Z" fill="#fff"/><path d="M22.7251,20.44307L22.67318,20.189a1.34462,1.34462,0,0,0,.20236-0.07264c0.02077-.0104.04155-0.02331,0.06206-0.03368l0.14281,0.21517a1.39111,1.39111,0,0,1-.26185.11661C22.78742,20.42484,22.75625,20.43521,22.7251,20.44307Z" fill="#fff"/><path d="M22.42171,20.23041a0.6259,0.6259,0,0,0,.07015-0.00518l0.05166,0.25406c-0.03369.00264-.06483,0.00783-0.09572,0.00783-0.01572.00254-.03395,0.00254-0.04938,0.00518h-0.096c-0.01823-.00264-0.03366-0.00264-0.04912-0.00518-0.03141,0-.06229-0.00518-0.09624-0.00783l0.05218-.25406a1.93245,1.93245,0,0,0,.13978.00783A0.64494,0.64494,0,0,0,22.42171,20.23041Z" fill="#fff"/><path d="M22.349,18.3172a0.69989,0.69989,0,0,1,.31405.07267H22.40625L22.349,18.33543l-0.05443.05444H22.038A0.694,0.694,0,0,1,22.349,18.3172Z" fill="#ab6a00"/><path d="M22.55138,17.55769l-0.05192.25139-0.07243-.0077c-0.02609,0-.05218-0.00267-0.078-0.00267-0.02329,0-.04912.00267-0.07495,0.00267l-0.073.0077-0.05166-.25139c0.03369-.00518.06737-0.00786,0.09852-0.01037,0.018-.00267.03369-0.00267,0.05192-0.00518h0.101c0.018,0.00251.03369,0.00251,0.05192,0.00518C22.48377,17.54984,22.51769,17.55251,22.55138,17.55769Z" fill="#fff"/><polygon points="22.406 18.39 22.72 18.704 22.533 18.704 22.533 19.606 22.165 19.606 22.165 18.704 21.981 18.704 22.295 18.39 22.349 18.335 22.406 18.39" fill="#824e00"/><path d="M22.71979,18.70353l-0.31353-.31366h0.25682a0.70152,0.70152,0,1,1-.625,0h0.25656l-0.31379.31366h0.18413V19.6057H22.5334V18.70353h0.18638Z" fill="#f29600"/><path d="M21.96788,17.59391l0.05192,0.25152a1.30967,1.30967,0,0,0-.27756.11658l-0.14258-.21253A1.48438,1.48438,0,0,1,21.96788,17.59391Z" fill="#fff"/><path d="M22.0274,20.189l-0.04914.25406a1.45689,1.45689,0,0,1-.275-0.10113,0.82631,0.82631,0,0,1-.0828-0.04407l0.14258-.21517a1.30392,1.30392,0,0,0,.1945.08555A0.728,0.728,0,0,0,22.0274,20.189Z" fill="#fff"/><path d="M21.40516,19.78191a1.23673,1.23673,0,0,0,.20487.19962l-0.14536.2152a1.51867,1.51867,0,0,1-.27479-0.27216Z" fill="#fff"/><path d="M21.58925,18.06833a1.24006,1.24006,0,0,0-.20765.21256l-0.215-.14253a1.46328,1.46328,0,0,1,.27984-0.2852Z" fill="#fff"/><path d="M23.05207,19.01722a0.69946,0.69946,0,0,0-.703-0.7,0.7,0.7,0,1,0,0,1.3999A0.70122,0.70122,0,0,0,23.05207,19.01722ZM22.349,20.049a0.85447,0.85447,0,0,1-.19955-0.02077,0.98478,0.98478,0,0,1-.1945-0.05709,1.18188,1.18188,0,0,1-.179-0.09582,1.03513,1.03513,0,0,1-.15549-0.12711,1.09912,1.09912,0,0,1-.22313-0.337,1.05136,1.05136,0,0,1-.05978-0.19189,1.09583,1.09583,0,0,1-.02075-0.20216,0.429,0.429,0,0,1,.00277-0.05963,1.33467,1.33467,0,0,1,.018-0.14266,1.047,1.047,0,0,1,.05978-0.19176,0.84657,0.84657,0,0,1,.096-0.17888,0.91169,0.91169,0,0,1,.12715-0.15822,1.04227,1.04227,0,0,1,.15549-0.127,1.1826,1.1826,0,0,1,.179-0.09595,1.21163,1.21163,0,0,1,.1945-0.05963,1.02522,1.02522,0,0,1,.19955-0.0181,1.03584,1.03584,0,0,1,.20236.0181,1.04693,1.04693,0,0,1,.37354.15557,1.05571,1.05571,0,0,1,.1555.127,1.09558,1.09558,0,0,1,.12967.15822,0.95452,0.95452,0,0,1,.0932.17888,1.00824,1.00824,0,0,1,.05978.19176,0.88918,0.88918,0,0,1,.01823.14266,0.46837,0.46837,0,0,1,.00254.05963v0.026l-0.00254.02582v0.013l-0.00254.03114c-0.00532.044-.01063,0.07508-0.01569,0.10621a1.01236,1.01236,0,0,1-.05978.19189,1.04381,1.04381,0,0,1-.0932.17888,1.09452,1.09452,0,0,1-.12967.15809,1.04838,1.04838,0,0,1-.1555.12711,1.20591,1.20591,0,0,1-.179.09582,0.98484,0.98484,0,0,1-.1945.05709A0.864,0.864,0,0,1,22.349,20.049Z" fill="#3e3a39"/><path d="M21.06553,18.29125l0.21527,0.14266a1,1,0,0,0-.08561.2048,0.52475,0.52475,0,0,0-.02077.07254l-0.25425-.05177a1.33568,1.33568,0,0,1,.1013-0.28A0.84523,0.84523,0,0,1,21.06553,18.29125Z" fill="#fff"/><path d="M21.18457,19.36455a1.13937,1.13937,0,0,0,.08052.20229c0.0104,0.02064.02331,0.0414,0.03369,0.06217l-0.21527.14518a1.5194,1.5194,0,0,1-.153-0.36038Z" fill="#fff"/><path d="M21.13291,19.05862c0.00252,0.04151.0076,0.083,0.01291,0.12444l-0.254.05188c-0.00532-.03632-0.01063-0.07251-0.01317-0.10886,0-.0181-0.00254-0.03632-0.00254-0.05442s-0.00252-.03635-0.00252-0.05444c0-.01558.00252-0.03114,0.00252-0.044a0.24334,0.24334,0,0,1,.00254-0.04418,0.49365,0.49365,0,0,1,.00786-0.08812L21.138,18.89013c-0.00254.044-.00506,0.08555-0.00506,0.12708v0.0414Z" fill="#fff"/><rect x="58.49113" y="14.20321" width="6.42633" height="19.66798" fill="#3d3a39"/><rect x="59.18606" y="16.15502" width="5.03646" height="15.76449" fill="#595757"/><rect x="59.65991" y="14.7189" width="4.08904" height="1.43612" fill="#4c4948"/><rect x="60.26973" y="14.97156" width="2.86938" height="1.18346" fill="#d18200"/><rect x="60.80385" y="15.01954" width="1.8014" height="1.08762" fill="#f29600"/><rect x="59.65991" y="31.91974" width="4.08904" height="1.43598" fill="#4c4948"/><rect x="60.26973" y="31.91974" width="2.86938" height="1.18333" fill="#d18200"/><rect x="60.80385" y="31.96734" width="1.8014" height="1.08761" fill="#f29600"/><rect x="59.4117" y="16.47995" width="0.82561" height="1.07623" fill="#f29600"/><rect x="59.71512" y="16.47995" width="0.2188" height="1.07623" fill="#824e00"/><rect x="59.4117" y="17.76174" width="0.82561" height="1.07623" fill="#f29600"/><rect x="59.71512" y="17.76174" width="0.2188" height="1.07623" fill="#824e00"/><rect x="59.4117" y="19.04355" width="0.82561" height="1.07621" fill="#f29600"/><rect x="59.71512" y="19.04355" width="0.2188" height="1.07621" fill="#824e00"/><rect x="59.4117" y="20.32534" width="0.82561" height="1.07623" fill="#f29600"/><rect x="59.71512" y="20.32534" width="0.2188" height="1.07623" fill="#824e00"/><rect x="59.4117" y="21.60713" width="0.82561" height="1.07623" fill="#f29600"/><rect x="59.71512" y="21.60713" width="0.2188" height="1.07623" fill="#824e00"/><rect x="59.4117" y="22.88894" width="0.82561" height="1.07621" fill="#f29600"/><rect x="59.71512" y="22.88894" width="0.2188" height="1.07621" fill="#824e00"/><rect x="59.4117" y="24.17073" width="0.82561" height="1.07623" fill="#f29600"/><rect x="59.71512" y="24.17073" width="0.2188" height="1.07623" fill="#824e00"/><rect x="59.4117" y="25.45278" width="0.82561" height="1.07623" fill="#f29600"/><rect x="59.71512" y="25.45278" width="0.2188" height="1.07623" fill="#824e00"/><rect x="59.4117" y="26.73433" width="0.82561" height="1.07598" fill="#f29600"/><rect x="59.71512" y="26.73433" width="0.2188" height="1.07598" fill="#824e00"/><rect x="59.4117" y="28.01638" width="0.82561" height="1.07597" fill="#f29600"/><rect x="59.71512" y="28.01638" width="0.2188" height="1.07597" fill="#824e00"/><rect x="59.4117" y="29.29817" width="0.82561" height="1.07623" fill="#f29600"/><rect x="59.71512" y="29.29817" width="0.2188" height="1.07623" fill="#824e00"/><rect x="59.4117" y="30.58022" width="0.82561" height="1.07597" fill="#f29600"/><rect x="59.71512" y="30.58022" width="0.2188" height="1.07597" fill="#824e00"/><rect x="63.17101" y="16.47995" width="0.82561" height="1.07623" fill="#f29600"/><rect x="63.47442" y="16.47995" width="0.2188" height="1.07623" fill="#824e00"/><rect x="63.17101" y="17.76174" width="0.82561" height="1.07623" fill="#f29600"/><rect x="63.47442" y="17.76174" width="0.2188" height="1.07623" fill="#824e00"/><rect x="63.17101" y="19.04355" width="0.82561" height="1.07621" fill="#f29600"/><rect x="63.47442" y="19.04355" width="0.2188" height="1.07621" fill="#824e00"/><rect x="63.17101" y="20.32534" width="0.82561" height="1.07623" fill="#f29600"/><rect x="63.47442" y="20.32534" width="0.2188" height="1.07623" fill="#824e00"/><rect x="63.17101" y="21.60713" width="0.82561" height="1.07623" fill="#f29600"/><rect x="63.47442" y="21.60713" width="0.2188" height="1.07623" fill="#824e00"/><rect x="63.17101" y="22.88894" width="0.82561" height="1.07621" fill="#f29600"/><rect x="63.47442" y="22.88894" width="0.2188" height="1.07621" fill="#824e00"/><rect x="63.17101" y="24.17073" width="0.82561" height="1.07623" fill="#f29600"/><rect x="63.47442" y="24.17073" width="0.2188" height="1.07623" fill="#824e00"/><rect x="63.17101" y="25.45278" width="0.82561" height="1.07623" fill="#f29600"/><rect x="63.47442" y="25.45278" width="0.2188" height="1.07623" fill="#824e00"/><rect x="63.17101" y="26.73433" width="0.82561" height="1.07598" fill="#f29600"/><rect x="63.47442" y="26.73433" width="0.2188" height="1.07598" fill="#824e00"/><rect x="63.17101" y="28.01638" width="0.82561" height="1.07597" fill="#f29600"/><rect x="63.47442" y="28.01638" width="0.2188" height="1.07597" fill="#824e00"/><rect x="63.17101" y="29.29817" width="0.82561" height="1.07623" fill="#f29600"/><rect x="63.47442" y="29.29817" width="0.2188" height="1.07623" fill="#824e00"/><rect x="63.17101" y="30.58022" width="0.82561" height="1.07597" fill="#f29600"/><rect x="63.47442" y="30.58022" width="0.2188" height="1.07597" fill="#824e00"/><circle cx="62.38929" cy="17.01807" r="0.5791" fill="#3d3a39"/><circle cx="61.01956" cy="17.01807" r="0.5791" fill="#3d3a39"/><circle cx="62.38929" cy="18.30504" r="0.5791" fill="#3d3a39"/><circle cx="61.01956" cy="18.30504" r="0.5791" fill="#3d3a39"/><circle cx="62.38929" cy="19.59204" r="0.5791" fill="#3d3a39"/><circle cx="61.01956" cy="19.59204" r="0.5791" fill="#3d3a39"/><circle cx="62.38929" cy="20.87902" r="0.57909" fill="#3d3a39"/><circle cx="61.01956" cy="20.87902" r="0.5791" fill="#3d3a39"/><circle cx="62.38929" cy="22.16601" r="0.5791" fill="#3d3a39"/><circle cx="61.01956" cy="22.16601" r="0.5791" fill="#3d3a39"/><circle cx="62.38929" cy="23.45301" r="0.57909" fill="#3d3a39"/><circle cx="61.01956" cy="23.45301" r="0.5791" fill="#3d3a39"/><circle cx="62.38929" cy="24.73992" r="0.57909" fill="#3d3a39"/><circle cx="61.01956" cy="24.73992" r="0.5791" fill="#3d3a39"/><circle cx="62.38929" cy="26.02698" r="0.57915" fill="#3d3a39"/><circle cx="61.01956" cy="26.02698" r="0.57916" fill="#3d3a39"/><circle cx="62.38929" cy="27.31409" r="0.57916" fill="#3d3a39"/><circle cx="61.01956" cy="27.31409" r="0.57917" fill="#3d3a39"/><circle cx="62.38929" cy="28.60121" r="0.57915" fill="#3d3a39"/><circle cx="61.01956" cy="28.60121" r="0.57916" fill="#3d3a39"/><circle cx="62.38929" cy="29.88832" r="0.57916" fill="#3d3a39"/><circle cx="61.01956" cy="29.88832" r="0.57917" fill="#3d3a39"/><circle cx="62.38929" cy="31.17543" r="0.57915" fill="#3d3a39"/><circle cx="61.01956" cy="31.17543" r="0.57916" fill="#3d3a39"/><rect x="7.59723" y="12.09557" width="58.80886" height="23.88326" fill="none" stroke="#231815" stroke-width="0.19447"/><path d="M36.60774,13.15052a0.37232,0.37232,0,0,0-.25933-0.10759H25.64891a0.367,0.367,0,0,0-.3662.36657v1.517a0.36614,0.36614,0,0,0,.3662.3666H36.34841a0.367,0.367,0,0,0,.3662-0.3666v-1.517A0.36911,0.36911,0,0,0,36.60774,13.15052Z" fill="#fff"/><path d="M31.54682,31.15266v1.6851a0.26559,0.26559,0,0,1-.10889.09063,0.35811,0.35811,0,0,1-.0932.03114,0.7038,0.7038,0,0,1-.12967.01037H29.15864V31.15266h2.38819Z" fill="#fff"/><rect x="29.15864" y="29.28324" width="2.38819" height="1.76308" fill="#fff"/><path d="M31.54682,27.48674v1.6851H29.15864V27.35461h2.05642a0.70358,0.70358,0,0,1,.12967.01037,0.35811,0.35811,0,0,1,.0932.03114A0.26541,0.26541,0,0,1,31.54682,27.48674Z" fill="#fff"/><path d="M17.92025,19.30215V17.64288h1.66237a0.38742,0.38742,0,0,1,.14258.02862,0.40059,0.40059,0,0,1,.11675.07772,0.36914,0.36914,0,0,1,.1089.26179v0.923a0.37678,0.37678,0,0,1-.02863.14253,0.36325,0.36325,0,0,1-.08026.11671,0.3594,0.3594,0,0,1-.11675.08026,0.38739,0.38739,0,0,1-.14258.02859H17.92025Z" fill="#fff"/><path d="M17.92025,21.57055h1.66237a0.38742,0.38742,0,0,1,.14258.02862,0.3955,0.3955,0,0,1,.11675.07772,0.369,0.369,0,0,1,.1089.26176v0.92281a0.37719,0.37719,0,0,1-.02863.1428,0.39174,0.39174,0,0,1-.197.197,0.38739,0.38739,0,0,1-.14258.02859H17.92025V21.57055Z" fill="#fff"/><path d="M17.92025,26.67787V25.0186h1.66237a0.38711,0.38711,0,0,1,.14258.02836,0.3963,0.3963,0,0,1,.11675.078,0.36979,0.36979,0,0,1,.08026.119,0.37809,0.37809,0,0,1,.02863.14277v0.92307a0.37557,0.37557,0,0,1-.02863.14227,0.38655,0.38655,0,0,1-.197.197,0.3877,0.3877,0,0,1-.14258.02885H17.92025Z" fill="#fff"/><path d="M17.92025,30.605V28.94627h1.66237a0.38711,0.38711,0,0,1,.14258.02836,0.39626,0.39626,0,0,1,.11675.078,0.36976,0.36976,0,0,1,.08026.119,0.37606,0.37606,0,0,1,.02863.14277v0.92255a0.37619,0.37619,0,0,1-.02863.14279,0.39171,0.39171,0,0,1-.197.197,0.38708,0.38708,0,0,1-.14258.02834H17.92025Z" fill="#fff"/><path d="M29.92055,15.98653a0.37762,0.37762,0,0,0-.19956-0.19962,0.38039,0.38039,0,0,0-.14284-0.02849H19.44761a0.37658,0.37658,0,0,0-.1403.02849,0.38075,0.38075,0,0,0-.12155.08037,0.36306,0.36306,0,0,0-.078.11925,0.37672,0.37672,0,0,0-.02837.14267v0.66367h2.29942c0.01393-.00607.0271-0.01392,0.041-0.01973a2.82239,2.82239,0,0,1,.45788-0.14028,2.64759,2.64759,0,0,1,.94516,0,2.82234,2.82234,0,0,1,.45788.14028c0.01393,0.00581.0271,0.01366,0.0409,0.01973h2.6859c0.01392-.00607.02707-0.01392,0.041-0.01973a2.82239,2.82239,0,0,1,.45788-0.14028,2.64744,2.64744,0,0,1,.94514,0,2.82239,2.82239,0,0,1,.45788.14028c0.01393,0.00581.0271,0.01366,0.04092,0.01973h1.99854V16.12652A0.37363,0.37363,0,0,0,29.92055,15.98653Z" fill="#fff"/><polygon points="26.698 15.086 26.698 14.057 26.698 14.054 26.058 14.054 26.058 14.057 26.058 15.086 26.698 15.086" fill="#60605e"/><polygon points="28.538 15.086 28.538 14.057 28.538 14.054 27.897 14.054 27.897 14.057 27.897 15.086 28.538 15.086" fill="#60605e"/><polygon points="30.377 15.086 30.377 14.057 30.377 14.054 29.737 14.054 29.737 14.057 29.737 15.086 30.377 15.086" fill="#60605e"/><polygon points="32.217 15.086 32.217 14.057 32.217 14.054 31.576 14.054 31.576 14.057 31.576 15.086 32.217 15.086" fill="#60605e"/><polygon points="34.056 15.086 34.056 14.057 34.056 14.054 33.416 14.054 33.416 14.057 33.416 15.086 34.056 15.086" fill="#60605e"/><polygon points="35.896 15.086 35.896 14.057 35.896 14.054 35.255 14.054 35.255 14.057 35.255 15.086 35.896 15.086" fill="#60605e"/><path d="M51.02167,17.765H41.7075a0.36853,0.36853,0,0,0-.36747.36748v11.871a0.36851,0.36851,0,0,0,.36747.36735h9.31417a0.36851,0.36851,0,0,0,.36747-0.36735v-11.871A0.36854,0.36854,0,0,0,51.02167,17.765ZM51.242,30.0035a0.22043,0.22043,0,0,1-.22033.22026H41.7075a0.22043,0.22043,0,0,1-.22033-0.22026v-11.871A0.22059,0.22059,0,0,1,41.7075,17.912h9.31417a0.22059,0.22059,0,0,1,.22033.22051v11.871Z" fill="#fff"/><rect x="41.34003" y="18.9143" width="10.04911" height="0.14697" fill="#fff"/><path d="M44.8172,21.36715v1.04849h1.126V21.36715h-1.126ZM45.796,22.26868H44.96435V21.51411H45.796v0.75456Z" fill="#fff"/><path d="M44.8172,21.22018h1.126V20.46573a0.36854,0.36854,0,0,0-.36747-0.36748H44.8172v1.12193Z" fill="#fff"/><path d="M43.54435,21.36715v1.04849h1.126V21.36715h-1.126Zm0.97882,0.90153H43.69149V21.51411h0.83168v0.75456Z" fill="#fff"/><path d="M44.67032,21.22018V20.09825H43.91182a0.36853,0.36853,0,0,0-.36747.36748v0.75445h1.126Z" fill="#fff"/><path d="M44.8172,22.56261v1.12191h0.7585a0.36854,0.36854,0,0,0,.36747-0.36748V22.56261h-1.126ZM45.796,23.317a0.22057,0.22057,0,0,1-.22033.22051H44.96435v-0.828H45.796V23.317Z" fill="#fff"/><path d="M43.54435,22.56261V23.317a0.36853,0.36853,0,0,0,.36747.36748h0.75849V22.56261h-1.126Zm0.97882,0.97494H43.91182a0.22057,0.22057,0,0,1-.22033-0.22051V22.70957h0.83168v0.828Z" fill="#fff"/><rect x="49.4206" y="21.36715" width="1.12597" height="1.04849" fill="#fff"/><path d="M50.1791,20.09825H49.4206v1.12193h1.126V20.46573A0.36854,0.36854,0,0,0,50.1791,20.09825Zm0.22033,0.975H49.56775v-0.828H50.1791a0.2206,0.2206,0,0,1,.22033.22051v0.60749Z" fill="#fff"/><path d="M48.14775,21.36715v1.04849h1.126V21.36715h-1.126Zm0.97882,0.90153H48.2949V21.51411h0.83168v0.75456Z" fill="#fff"/><polygon points="49.91 23.685 49.91 23.964 48.839 23.964 48.839 23.685 48.692 23.685 48.692 24.111 50.057 24.111 50.057 23.685 49.91 23.685" fill="#fff"/><path d="M49.27372,21.22018V20.09825H48.51523a0.36853,0.36853,0,0,0-.36747.36748v0.75445h1.126Z" fill="#fff"/><path d="M49.4206,22.56261v1.12191h0.7585a0.36854,0.36854,0,0,0,.36747-0.36748V22.56261h-1.126Z" fill="#fff"/><path d="M49.27372,22.56261h-1.126V23.317a0.36853,0.36853,0,0,0,.36747.36748h0.75849V22.56261Z" fill="#fff"/><rect x="54.56419" y="17.78088" width="1.12597" height="1.04849" fill="#fff"/><path d="M55.32269,16.512h-0.7585v1.12194h1.126V16.87945A0.36854,0.36854,0,0,0,55.32269,16.512Z" fill="#fff"/><path d="M53.29134,17.78088v1.04849h1.126V17.78088h-1.126Z" fill="#fff"/><path d="M54.41731,17.63391V16.512H53.65882a0.36853,0.36853,0,0,0-.36747.36748v0.75446h1.126Z" fill="#fff"/><path d="M54.56419,18.97633v1.12191h0.7585a0.36854,0.36854,0,0,0,.36747-0.36748V18.97633h-1.126Z" fill="#fff"/><path d="M54.41731,18.97633h-1.126v0.75443a0.36853,0.36853,0,0,0,.36747.36748h0.75849V18.97633Z" fill="#fff"/><rect x="54.56419" y="21.5803" width="1.12597" height="1.04852" fill="#fff"/><path d="M55.32269,20.31142h-0.7585v1.12191h1.126V20.6789A0.36854,0.36854,0,0,0,55.32269,20.31142Z" fill="#fff"/><path d="M53.29134,21.5803v1.04852h1.126V21.5803h-1.126Z" fill="#fff"/><path d="M54.41731,21.43333V20.31142H53.65882a0.36853,0.36853,0,0,0-.36747.36748v0.75443h1.126Z" fill="#fff"/><path d="M54.56419,22.77579V23.8977h0.7585a0.36854,0.36854,0,0,0,.36747-0.36748V22.77579h-1.126Z" fill="#fff"/><path d="M54.41731,22.77579h-1.126v0.75443a0.36853,0.36853,0,0,0,.36747.36748h0.75849V22.77579Z" fill="#fff"/><rect x="54.56419" y="25.37988" width="1.12597" height="1.04836" fill="#fff"/><path d="M55.32269,24.11087h-0.7585v1.12191h1.126V24.47833A0.36853,0.36853,0,0,0,55.32269,24.11087Z" fill="#fff"/><path d="M53.29134,25.37988v1.04836h1.126V25.37988h-1.126Z" fill="#fff"/><path d="M54.41731,25.23278V24.11087H53.65882a0.36853,0.36853,0,0,0-.36747.36745v0.75445h1.126Z" fill="#fff"/><path d="M54.56419,26.57534v1.12181h0.7585a0.36851,0.36851,0,0,0,.36747-0.36735V26.57534h-1.126Z" fill="#fff"/><path d="M54.41731,26.57534h-1.126V27.3298a0.36851,0.36851,0,0,0,.36747.36735h0.75849V26.57534Z" fill="#fff"/><rect x="54.56419" y="29.17944" width="1.12597" height="1.04813" fill="#fff"/><path d="M55.32269,27.9103h-0.7585v1.12181h1.126V28.27765A0.36851,0.36851,0,0,0,55.32269,27.9103Z" fill="#fff"/><path d="M53.29134,29.17944v1.04813h1.126V29.17944h-1.126Z" fill="#fff"/><path d="M54.41731,29.03211V27.9103H53.65882a0.36851,0.36851,0,0,0-.36747.36735v0.75446h1.126Z" fill="#fff"/><path d="M54.56419,30.37492v1.12152h0.7585a0.36829,0.36829,0,0,0,.36747-0.36709V30.37492h-1.126Z" fill="#fff"/><path d="M54.41731,30.37492h-1.126v0.75443a0.36829,0.36829,0,0,0,.36747.36709h0.75849V30.37492Z" fill="#fff"/><path d="M44.8172,26.76977v1.04836h1.126V26.76977h-1.126ZM45.796,27.67107H44.96435v-0.7542H45.796v0.7542Z" fill="#fff"/><path d="M44.8172,26.62268h1.126V25.86825a0.36834,0.36834,0,0,0-.36747-0.36735H44.8172v1.12178Z" fill="#fff"/><path d="M43.54435,26.76977v1.04836h1.126V26.76977h-1.126Zm0.97882,0.90129H43.69149v-0.7542h0.83168v0.7542Z" fill="#fff"/><path d="M44.67032,26.62268V25.5009H43.91182a0.36834,0.36834,0,0,0-.36747.36735v0.75443h1.126Z" fill="#fff"/><path d="M44.8172,27.96523V29.087h0.7585a0.36851,0.36851,0,0,0,.36747-0.36735V27.96523h-1.126ZM45.796,28.71969a0.22045,0.22045,0,0,1-.22033.22026H44.96435V28.11233H45.796v0.60736Z" fill="#fff"/><path d="M43.54435,27.96523v0.75446a0.36851,0.36851,0,0,0,.36747.36735h0.75849V27.96523h-1.126Zm0.97882,0.97471H43.91182a0.22045,0.22045,0,0,1-.22033-0.22026V28.11233h0.83168v0.82762Z" fill="#fff"/><path d="M49.4206,26.76977v1.04836h1.126V26.76977h-1.126Zm0.97882,0.90129H49.56775v-0.7542h0.83168v0.7542Z" fill="#fff"/><path d="M49.4206,26.62268h1.126V25.86825a0.36834,0.36834,0,0,0-.36747-0.36735H49.4206v1.12178Z" fill="#fff"/><rect x="48.14775" y="26.76977" width="1.12597" height="1.04836" fill="#fff"/><path d="M49.27372,26.62268V25.5009H48.51523a0.36834,0.36834,0,0,0-.36747.36735v0.75443h1.126Z" fill="#fff"/><path d="M49.4206,27.96523V29.087h0.7585a0.36851,0.36851,0,0,0,.36747-0.36735V27.96523h-1.126Zm0.97882,0.75446a0.22046,0.22046,0,0,1-.22033.22026H49.56775V28.11233h0.83168v0.60736Z" fill="#fff"/><path d="M48.14775,27.96523v0.75446a0.36851,0.36851,0,0,0,.36747.36735h0.75849V27.96523h-1.126Zm0.97882,0.97471H48.51523a0.22045,0.22045,0,0,1-.22033-0.22026V28.11233h0.83168v0.82762Z" fill="#fff"/></svg>