<svg xmlns="http://www.w3.org/2000/svg" width="74" height="48" viewBox="0 0 74 48"><title>cc-link_ie_rio_cn</title><rect width="74" height="48" fill="#fff"/><rect x="5.661" y="12.123" width="62.679" height="23.755" fill="#656464"/><rect x="15.844" y="12.123" width="2.141" height="23.636" fill="#717071"/><rect x="17.985" y="26.08" width="50.354" height="9.797" fill="#4a4a4a"/><rect x="7.037" y="15.093" width="8.807" height="8.484" rx="0.473" ry="0.473" fill="#585656"/><rect x="7.414" y="15.506" width="8.054" height="7.691" fill="#d2d2d3" stroke="#9e9e9f" stroke-width="0.173"/><polygon points="7.766 20.299 8.217 20.299 8.217 21.113 9.281 21.113 9.281 22.45 12.946 22.451 12.946 16.252 9.281 16.25 9.281 17.587 8.217 17.587 8.217 18.399 7.766 18.399 7.766 20.299" fill="#4c4948" stroke="#9e9e9f" stroke-width="0.261"/><rect x="7.414" y="15.505" width="1.242" height="1.559" fill="#7dad2a" stroke="#9e9e9f" stroke-width="0.189"/><rect x="7.414" y="21.636" width="1.242" height="1.559" fill="#7dad2a" stroke="#9e9e9f" stroke-width="0.189"/><rect x="7.037" y="24.818" width="8.807" height="8.484" rx="0.473" ry="0.473" fill="#585656"/><rect x="7.414" y="25.231" width="8.054" height="7.691" fill="#d2d2d3" stroke="#9e9e9f" stroke-width="0.173"/><polygon points="7.766 30.025 8.217 30.025 8.217 30.838 9.281 30.838 9.281 32.176 12.946 32.177 12.946 25.977 9.281 25.976 9.281 27.313 8.217 27.313 8.217 28.125 7.766 28.125 7.766 30.025" fill="#4c4948" stroke="#9e9e9f" stroke-width="0.261"/><rect x="7.414" y="25.23" width="1.242" height="1.559" fill="#7dad2a" stroke="#9e9e9f" stroke-width="0.189"/><rect x="7.414" y="31.362" width="1.242" height="1.559" fill="#7dad2a" stroke="#9e9e9f" stroke-width="0.189"/><rect x="20.179" y="26.08" width="12.552" height="8.883" fill="#404040"/><rect x="36.43" y="28.895" width="29.286" height="5.229" fill="#404040"/><rect x="36.901" y="29.342" width="28.343" height="4.337" fill="#141414"/><path d="M20.914,26.351H32a0.471,0.471,0,0,1,.471.471v7.4a0.475,0.475,0,0,1-.475.475H20.911a0.471,0.471,0,0,1-.471-0.471v-7.4A0.475,0.475,0,0,1,20.914,26.351Z" fill="#1f1f1f"/><path d="M31.865,27.233h-11.1v6.537H23.1v0.587h1V33.769h4.659v0.587h1V33.769h2.224V27.233H31.865Zm-10.64,4.295V30.941a0.419,0.419,0,0,0,0-.838V29.474H23.1v0.587h1V29.474h4.659v0.587h1V29.474h1.591a0.418,0.418,0,0,0,.175.8v1.257H21.225Z" fill="#363636"/><path d="M39.627,19.624a1.329,1.329,0,0,1,2.65,0,1.051,1.051,0,0,1,0,.2,1.329,1.329,0,0,1-2.65,0c0-.02,0-0.04,0-0.06a0.352,0.352,0,0,1,0-.045C39.621,19.694,39.623,19.659,39.627,19.624Z"/><path d="M33.409,18.993c0.023-.035.05-0.07,0.077-0.105s0.058-.065.088-0.1a1.215,1.215,0,0,1,.1-0.088c0.033-.027.069-0.054,0.105-0.079a1.432,1.432,0,0,1,.229-0.122,1.31,1.31,0,0,1,.249-0.075,1.1,1.1,0,0,1,.128-0.018,1.173,1.173,0,0,1,.132-0.007,1.155,1.155,0,0,1,.13.007,1.207,1.207,0,0,1,.131.018,1.3,1.3,0,0,1,.248.075,1.421,1.421,0,0,1,.229.122L35.359,18.7c0.033,0.028.065,0.057,0.1,0.088s0.06,0.063.088,0.1,0.054,0.07.079,0.105a1.63,1.63,0,0,1,.122.229,1.332,1.332,0,0,1,.075.249,1.2,1.2,0,0,1,.018.13,1.017,1.017,0,0,1,.006.122v0.017a1.029,1.029,0,0,1-.006.124,1.2,1.2,0,0,1-.018.13,1.354,1.354,0,0,1-.075.247,1.473,1.473,0,0,1-.122.229c-0.025.037-.052,0.072-0.079,0.105a1.168,1.168,0,0,1-.088.1c-0.031.03-.063,0.06-0.1,0.088s-0.07.054-.105,0.077a1.194,1.194,0,0,1-.229.122,1.4,1.4,0,0,1-.248.077,1.249,1.249,0,0,1-.131.018,1.081,1.081,0,0,1-.13.007,1.1,1.1,0,0,1-.132-0.007,1.131,1.131,0,0,1-.128-0.018,1.4,1.4,0,0,1-.249-0.077,1.2,1.2,0,0,1-.229-0.122,1.244,1.244,0,0,1-.105-0.077c-0.035-.028-0.067-0.058-0.1-0.088s-0.06-.063-0.088-0.1a1.241,1.241,0,0,1-.077-0.105,1.32,1.32,0,0,1-.122-0.229,1.47,1.47,0,0,1-.077-0.247,1.287,1.287,0,0,1-.019-0.13c0-.01,0-0.02,0-0.03a1.393,1.393,0,0,1,0-.2c0-.01,0-0.02,0-0.03a1.294,1.294,0,0,1,.019-0.13A1.374,1.374,0,0,1,33.409,18.993Z"/><path d="M34.516,18.829a0.891,0.891,0,0,1,.4.094H34.589l-0.073-.07-0.07.07H34.117A0.884,0.884,0,0,1,34.516,18.829Z" fill="#ab6a00"/><polygon points="34.589 18.923 34.991 19.329 34.752 19.329 34.752 20.495 34.28 20.495 34.28 19.329 34.044 19.329 34.446 18.923 34.516 18.853 34.589 18.923" fill="#824e00"/><path d="M34.991,19.329l-0.4-.406h0.329a0.9,0.9,0,1,1-.8,0h0.329l-0.4.406H34.28V20.5h0.472V19.329h0.239Z" fill="#f29600"/><path d="M40.95,18.826a0.892,0.892,0,0,1,.4.094H41.023l-0.073-.07-0.07.07H40.551A0.884,0.884,0,0,1,40.95,18.826Z" fill="#ab6a00"/><polygon points="41.023 18.92 41.425 19.325 41.186 19.325 41.186 20.492 40.713 20.492 40.713 19.325 40.478 19.325 40.88 18.92 40.95 18.849 41.023 18.92" fill="#824e00"/><path d="M41.425,19.325l-0.4-.406h0.329a0.9,0.9,0,1,1-.8,0H40.88l-0.4.406h0.236v1.167h0.473V19.325h0.239Z" fill="#f29600"/><rect x="5.661" y="12.123" width="62.679" height="23.755" fill="none" stroke="#231815" stroke-width="0.25"/><rect x="37.039" y="29.493" width="3.459" height="4.034" fill="#1a1a1a"/><rect x="42.309" y="29.493" width="1.482" height="4.034" fill="#1a1a1a"/><rect x="43.791" y="30.102" width="14.563" height="2.816" fill="#1a1a1a"/><rect x="41" y="30.857" width="0.986" height="1.28" fill="#1a1a1a"/><rect x="61.647" y="29.493" width="3.459" height="4.034" fill="#1a1a1a"/><rect x="58.354" y="29.493" width="1.482" height="4.034" fill="#1a1a1a"/><rect x="60.159" y="30.857" width="0.986" height="1.28" fill="#1a1a1a"/><rect x="50.317" y="30.721" width="0.315" height="0.326" fill="#ae9a52"/><rect x="49.101" y="30.721" width="0.315" height="0.326" fill="#ae9a52"/><rect x="47.885" y="30.721" width="0.315" height="0.326" fill="#ae9a52"/><rect x="46.67" y="30.721" width="0.315" height="0.326" fill="#ae9a52"/><rect x="45.454" y="30.721" width="0.315" height="0.326" fill="#ae9a52"/><rect x="50.317" y="31.973" width="0.315" height="0.325" fill="#ae9a52"/><rect x="49.101" y="31.973" width="0.315" height="0.325" fill="#ae9a52"/><rect x="47.885" y="31.973" width="0.315" height="0.325" fill="#ae9a52"/><rect x="46.67" y="31.973" width="0.315" height="0.325" fill="#ae9a52"/><rect x="45.454" y="31.973" width="0.315" height="0.325" fill="#ae9a52"/><rect x="51.514" y="30.721" width="0.315" height="0.326" fill="#ae9a52"/><rect x="52.729" y="30.721" width="0.315" height="0.326" fill="#ae9a52"/><rect x="53.945" y="30.721" width="0.315" height="0.326" fill="#ae9a52"/><rect x="55.161" y="30.721" width="0.315" height="0.326" fill="#ae9a52"/><rect x="56.377" y="30.721" width="0.315" height="0.326" fill="#ae9a52"/><rect x="51.514" y="31.973" width="0.315" height="0.325" fill="#ae9a52"/><rect x="52.729" y="31.973" width="0.315" height="0.325" fill="#ae9a52"/><rect x="53.945" y="31.973" width="0.315" height="0.325" fill="#ae9a52"/><rect x="55.161" y="31.973" width="0.315" height="0.325" fill="#ae9a52"/><rect x="56.377" y="31.973" width="0.315" height="0.325" fill="#ae9a52"/><rect x="23.026" y="28.026" width="1.17" height="0.774" fill="#4c4948"/><rect x="23.192" y="28.274" width="0.838" height="0.279" fill="#ae9a52"/><rect x="24.461" y="28.026" width="1.17" height="0.774" fill="#4c4948"/><rect x="24.626" y="28.274" width="0.838" height="0.279" fill="#ae9a52"/><rect x="25.895" y="28.026" width="1.17" height="0.774" fill="#4c4948"/><rect x="26.061" y="28.274" width="0.838" height="0.279" fill="#ae9a52"/><rect x="27.329" y="28.026" width="1.17" height="0.774" fill="#4c4948"/><rect x="27.495" y="28.274" width="0.838" height="0.279" fill="#ae9a52"/><rect x="28.764" y="28.026" width="1.17" height="0.774" fill="#4c4948"/><rect x="28.93" y="28.274" width="0.838" height="0.279" fill="#ae9a52"/><rect x="23.026" y="32.321" width="1.17" height="0.774" fill="#4c4948"/><rect x="23.192" y="32.569" width="0.838" height="0.279" fill="#ae9a52"/><rect x="24.461" y="32.321" width="1.17" height="0.774" fill="#4c4948"/><rect x="24.626" y="32.569" width="0.838" height="0.279" fill="#ae9a52"/><rect x="25.895" y="32.321" width="1.17" height="0.774" fill="#4c4948"/><rect x="26.061" y="32.569" width="0.838" height="0.279" fill="#ae9a52"/><rect x="27.329" y="32.321" width="1.17" height="0.774" fill="#4c4948"/><rect x="27.495" y="32.569" width="0.838" height="0.279" fill="#ae9a52"/><rect x="28.764" y="32.321" width="1.17" height="0.774" fill="#4c4948"/><rect x="28.93" y="32.569" width="0.838" height="0.279" fill="#ae9a52"/><path d="M53.9,12.583v3.049h6.672a0.488,0.488,0,0,0,.182-0.037,0.474,0.474,0,0,0,.257-0.258,0.491,0.491,0,0,0,.036-0.181V12.583H53.9Z" fill="#fff"/><path d="M46.668,12.583v3.049H53.76V12.583H46.668Z" fill="#fff"/><path d="M39.432,12.583v3.049h7.093V12.583H39.432Z" fill="#fff"/><path d="M32.085,12.583v2.573a0.454,0.454,0,0,0,.036.181,0.5,0.5,0,0,0,.1.156,0.466,0.466,0,0,0,.155.1,0.479,0.479,0,0,0,.181.037h6.729V12.583h-7.2Z" fill="#fff"/><path d="M21.04,12.583v2.573a0.485,0.485,0,0,0,.037.181,0.476,0.476,0,0,0,.1.156,0.455,0.455,0,0,0,.155.1,0.478,0.478,0,0,0,.18.037h9.954a0.494,0.494,0,0,0,.182-0.037,0.459,0.459,0,0,0,.255-0.258,0.439,0.439,0,0,0,.037-0.181V12.583H21.04Z" fill="#fff"/><path d="M17.569,15.721a0.59,0.59,0,0,0-.122-0.04,0.928,0.928,0,0,0-.167-0.015H15.856V17.81h1.425a0.925,0.925,0,0,0,.167-0.015,0.52,0.52,0,0,0,.122-0.04,0.352,0.352,0,0,0,.139-0.117v-1.8A0.352,0.352,0,0,0,17.569,15.721Z" fill="#fff"/><path d="M17.569,25.249a0.465,0.465,0,0,0-.122-0.04,0.8,0.8,0,0,0-.167-0.015H15.856v2.144h1.425a0.845,0.845,0,0,0,.167-0.015,0.454,0.454,0,0,0,.122-0.041,0.339,0.339,0,0,0,.139-0.117v-1.8A0.333,0.333,0,0,0,17.569,25.249Z" fill="#fff"/><path d="M17.569,20.793a0.463,0.463,0,0,0-.122-0.039,0.822,0.822,0,0,0-.167-0.016H15.856v2.144h1.425a0.925,0.925,0,0,0,.167-0.015,0.467,0.467,0,0,0,.122-0.04,0.348,0.348,0,0,0,.139-0.117v-1.8A0.35,0.35,0,0,0,17.569,20.793Z" fill="#fff"/><path d="M17.569,30.322a0.507,0.507,0,0,0-.122-0.04,0.8,0.8,0,0,0-.167-0.015H15.856v2.144h1.425a0.9,0.9,0,0,0,.167-0.015,0.61,0.61,0,0,0,.122-0.04,0.353,0.353,0,0,0,.139-0.117v-1.8A0.339,0.339,0,0,0,17.569,30.322Z" fill="#fff"/><path d="M48.533,16.307a0.486,0.486,0,0,0-.1-0.154,0.479,0.479,0,0,0-.336-0.141H37.5v1.334h1.281A3.21,3.21,0,0,1,39.237,17a3.1,3.1,0,0,1,.518-0.263c0.091-.035.183-0.067,0.277-0.1s0.191-.05.288-0.071,0.2-.033.3-0.042l0.152-.011c0.052,0,.1,0,0.156,0s0.1,0,.153,0l0.152,0.011c0.1,0.009.2,0.024,0.3,0.042s0.193,0.042.289,0.071,0.187,0.06.277,0.1a3.1,3.1,0,0,1,.517.263,3.28,3.28,0,0,1,.46.348h5.5V16.489A0.5,0.5,0,0,0,48.533,16.307Z" fill="#fff"/><path d="M30.753,16.012a0.485,0.485,0,0,0-.182.037,0.492,0.492,0,0,0-.154.1,0.48,0.48,0,0,0-.1.154,0.5,0.5,0,0,0-.037.182v0.857h2.091a3.291,3.291,0,0,1,1-.614,3.112,3.112,0,0,1,2.3,0,3.305,3.305,0,0,1,1,.614h0.694V16.012h-6.6Z" fill="#fff"/><path d="M22.313,22.873v1.332h8.262V22.873H22.313Z" fill="#fff"/><path d="M30.536,21.683a0.467,0.467,0,0,0-.1-0.152,0.487,0.487,0,0,0-.15-0.1,0.471,0.471,0,0,0-.186-0.037H22.787a0.465,0.465,0,0,0-.183.037,0.46,0.46,0,0,0-.152.1,0.524,0.524,0,0,0-.1.152,0.5,0.5,0,0,0-.037.184v0.862h8.262V21.867A0.462,0.462,0,0,0,30.536,21.683Z" fill="#fff"/><path d="M36.356,19.267l-0.327.065a1.544,1.544,0,0,0-.1-0.27c-0.014-.03-0.029-0.058-0.044-0.085l0.277-.186a1.926,1.926,0,0,1,.152.352C36.334,19.183,36.345,19.225,36.356,19.267Z" fill="#fff"/><path d="M36.081,19.784V19.729a1.359,1.359,0,0,0-.008-0.162L36.4,19.5c0,0.039.008,0.075,0.01,0.114a0.532,0.532,0,0,1,0,.057c0,0.018,0,.037,0,0.057s0,0.047,0,.072,0,0.045,0,.071c-0.005.045-.01,0.092-0.017,0.139l-0.325-.065C36.073,19.891,36.078,19.838,36.081,19.784Z" fill="#fff"/><path d="M36.016,20.177l0.327,0.065a1.945,1.945,0,0,1-.2.462l-0.276-.186a1.533,1.533,0,0,0,.119-0.253A0.831,0.831,0,0,0,36.016,20.177Z" fill="#fff"/><path d="M35.677,18.224a1.968,1.968,0,0,1,.36.368l-0.277.186a1.559,1.559,0,0,0-.266-0.276Z" fill="#fff"/><path d="M36.01,20.9a1.9,1.9,0,0,1-.355.348l-0.186-.276a1.61,1.61,0,0,0,.264-0.258Z" fill="#fff"/><path d="M35.482,18.091l-0.185.276a1.538,1.538,0,0,0-.356-0.151l0.065-.327A1.845,1.845,0,0,1,35.482,18.091Z" fill="#fff"/><path d="M35.27,21.105l0.185,0.278a1.8,1.8,0,0,1-.339.151c-0.04.013-.08,0.025-0.122,0.037l-0.063-.328a1.433,1.433,0,0,0,.259-0.1C35.217,21.134,35.244,21.12,35.27,21.105Z" fill="#fff"/><path d="M34.384,17.828c0.022,0,.044,0,0.065,0h0.133c0.021,0,.043,0,0.064,0,0.042,0,.085.008,0.127,0.015l-0.065.327a0.936,0.936,0,0,0-.1-0.01c-0.033,0-.065,0-0.1,0s-0.065,0-.1,0-0.064.005-.1,0.01l-0.063-.327C34.3,17.837,34.342,17.832,34.384,17.828Z" fill="#fff"/><path d="M34.452,21.632c-0.021,0-.042,0-0.061,0-0.042,0-.082-0.009-0.123-0.014l0.065-.326,0.09,0.009c0.032,0,.062,0,0.092,0s0.062,0,.094,0l0.09-.009,0.065,0.326c-0.042.005-.082,0.01-0.124,0.014-0.02,0-.042,0-0.062,0H34.452Z" fill="#fff"/><path d="M33.575,21.383l0.185-.278a1.383,1.383,0,0,0,.25.11c0.03,0.01.06,0.019,0.089,0.027l-0.065.328a1.894,1.894,0,0,1-.35-0.13C33.647,21.423,33.61,21.4,33.575,21.383Z" fill="#fff"/><path d="M33.733,18.368l-0.185-.278a1.9,1.9,0,0,1,.476-0.2l0.065,0.327A1.506,1.506,0,0,0,33.733,18.368Z" fill="#fff"/><path d="M32.992,18.592a1.977,1.977,0,0,1,.36-0.368L33.537,18.5a1.54,1.54,0,0,0-.267.276Z" fill="#fff"/><path d="M33.377,21.251a1.9,1.9,0,0,1-.356-0.348l0.275-.186a1.742,1.742,0,0,0,.265.258Z" fill="#fff"/><path d="M32.674,19.267A2.064,2.064,0,0,1,32.8,18.9c0.018-.038.039-0.077,0.059-0.114l0.277,0.186a1.382,1.382,0,0,0-.112.263c-0.01.03-.019,0.062-0.027,0.092Z" fill="#fff"/><path d="M32.886,20.7a1.9,1.9,0,0,1-.2-0.462l0.327-.065a1.632,1.632,0,0,0,.1.261l0.046,0.081Z" fill="#fff"/><path d="M32.965,19.944l-0.325.064c-0.007-.045-0.012-0.092-0.017-0.137,0-.026,0-0.047-0.005-0.071s0-.048,0-0.072,0-.039,0-0.057a0.517,0.517,0,0,1,0-.057,1.115,1.115,0,0,1,.01-0.114l0.325,0.065c-0.005.054-.006,0.109-0.008,0.162,0,0.018,0,.037,0,0.055C32.952,19.838,32.958,19.891,32.965,19.944Z" fill="#fff"/><path d="M42.257,18.9l0.27-.2a1.938,1.938,0,0,1,.2.425,1.978,1.978,0,0,1,.09.475H42.485A1.56,1.56,0,0,0,42.257,18.9Z" fill="#fff"/><path d="M42.257,20.552a1.553,1.553,0,0,0,.228-0.7h0.333a1.987,1.987,0,0,1-.09.475,1.929,1.929,0,0,1-.2.425Z" fill="#fff"/><path d="M42.389,20.943a1.891,1.891,0,0,1-.766.556l-0.1-.317a1.565,1.565,0,0,0,.6-0.437Z" fill="#fff"/><path d="M42.389,18.515l-0.27.2a1.588,1.588,0,0,0-.6-0.437l0.1-.316A1.919,1.919,0,0,1,42.389,18.515Z" fill="#fff"/><path d="M40.555,21.254a1.4,1.4,0,0,0,.182.034c0.032,0,.062.008,0.094,0.01s0.063,0,.1,0,0.063,0,.093,0a0.932,0.932,0,0,0,.093-0.01,1.378,1.378,0,0,0,.182-0.034l0.1,0.318a2.14,2.14,0,0,1-.232.045c-0.04,0-.08.01-0.12,0.012-0.02,0-.04,0-0.06,0H40.864c-0.02,0-.04,0-0.06,0-0.041,0-.08-0.007-0.119-0.012a2.087,2.087,0,0,1-.232-0.045Z" fill="#fff"/><path d="M40.736,18.168a1.741,1.741,0,0,0-.182.033l-0.1-.318c0.075-.018.154-0.033,0.231-0.045,0.04-.005.08-0.009,0.12-0.012l0.06,0h0.122l0.06,0c0.041,0,.081.007,0.12,0.012,0.079,0.012.155,0.027,0.232,0.045l-0.1.318a1.707,1.707,0,0,0-.182-0.033l-0.093-.009a0.877,0.877,0,0,0-.093,0,0.931,0.931,0,0,0-.1,0Z" fill="#fff"/><path d="M39.731,18.711l-0.269-.2a1.9,1.9,0,0,1,.764-0.557l0.1,0.316A1.588,1.588,0,0,0,39.731,18.711Z" fill="#fff"/><path d="M39.462,20.943l0.27-.2a1.535,1.535,0,0,0,.6.437l-0.1.317A1.88,1.88,0,0,1,39.462,20.943Z" fill="#fff"/><path d="M39.322,18.708l0.27,0.2a1.56,1.56,0,0,0-.228.705H39.031A1.885,1.885,0,0,1,39.322,18.708Z" fill="#fff"/><path d="M39.121,20.323a1.984,1.984,0,0,1-.09-0.475h0.333a1.553,1.553,0,0,0,.228.7l-0.27.2A1.942,1.942,0,0,1,39.121,20.323Z" fill="#fff"/><rect x="22.039" y="14.064" width="0.826" height="1.331"/><rect x="24.075" y="14.064" width="0.826" height="1.331"/><rect x="26.112" y="14.064" width="0.826" height="1.331"/><rect x="28.148" y="14.064" width="0.826" height="1.331"/><rect x="30.185" y="14.064" width="0.826" height="1.331"/><rect x="32.616" y="14.064" width="0.826" height="1.331"/><rect x="34.424" y="14.064" width="0.826" height="1.331"/><rect x="36.232" y="14.064" width="0.826" height="1.331"/><rect x="38.04" y="14.064" width="0.826" height="1.331"/><rect x="39.828" y="14.064" width="0.826" height="1.331"/><rect x="41.636" y="14.064" width="0.826" height="1.331"/><rect x="43.444" y="14.064" width="0.826" height="1.331"/><rect x="45.252" y="14.064" width="0.826" height="1.331"/><rect x="47.08" y="14.064" width="0.826" height="1.331"/><rect x="48.888" y="14.064" width="0.826" height="1.331"/><rect x="50.696" y="14.064" width="0.826" height="1.331"/><rect x="52.504" y="14.064" width="0.826" height="1.331"/><rect x="54.312" y="14.064" width="0.826" height="1.331"/><rect x="56.12" y="14.064" width="0.826" height="1.331"/><rect x="57.928" y="14.064" width="0.826" height="1.331"/><rect x="59.736" y="14.064" width="0.826" height="1.331"/></svg>