<svg xmlns="http://www.w3.org/2000/svg" xmlns:xlink="http://www.w3.org/1999/xlink" width="74" height="48" viewBox="0 0 74 48"><defs><linearGradient id="a" x1="20.46545" y1="29.92513" x2="24.70075" y2="29.92513" gradientUnits="userSpaceOnUse"><stop offset="0" stop-color="#888"/><stop offset="0.14286" stop-color="#656464"/><stop offset="1" stop-color="#595757"/></linearGradient><linearGradient id="b" x1="19.3827" y1="26.17287" x2="24.77174" y2="26.17287" gradientUnits="userSpaceOnUse"><stop offset="0" stop-color="#888"/><stop offset="0.14286" stop-color="#4c4948"/><stop offset="1" stop-color="#595757"/></linearGradient><linearGradient id="c" x1="23.87967" y1="29.92513" x2="21.05978" y2="29.92513" xlink:href="#b"/><linearGradient id="d" x1="21.44872" y1="29.92513" x2="18.74226" y2="29.92513" gradientUnits="userSpaceOnUse"><stop offset="0" stop-color="#433f3f"/><stop offset="0.6" stop-color="#888"/><stop offset="1" stop-color="#595757"/></linearGradient><linearGradient id="e" x1="21.44872" y1="28.06184" x2="18.74226" y2="28.06184" xlink:href="#d"/><linearGradient id="f" x1="21.44872" y1="44.87933" x2="18.74226" y2="44.87933" gradientTransform="matrix(1, 0, 0, -1, 0, 76.668)" xlink:href="#d"/><radialGradient id="g" cx="-0.22886" cy="41.18939" r="0.73884" gradientTransform="matrix(0.95253, -0.00025, 0.00048, 0.95039, 19.99396, -9.22095)" gradientUnits="userSpaceOnUse"><stop offset="0" stop-color="#c8c9ca"/><stop offset="0.16023" stop-color="#bdbebf"/><stop offset="0.44199" stop-color="#a1a1a2"/><stop offset="0.80953" stop-color="#737272"/><stop offset="1" stop-color="#595757"/></radialGradient><radialGradient id="h" cx="1.15583" cy="39.80158" r="0.73884" gradientTransform="matrix(0.95253, -0.00023, 0.00046, 0.95039, 18.67621, -9.76673)" xlink:href="#g"/><radialGradient id="i" cx="8.4571" cy="0.07789" r="0.73875" gradientTransform="matrix(0.95253, 0.00012, -0.0001, -0.95039, 11.73991, 31.86341)" xlink:href="#g"/><radialGradient id="j" cx="4.36907" cy="40.22734" r="0.73888" gradientTransform="matrix(0.95253, -0.00012, 0.00035, 0.95039, 18.07047, -12.04891)" xlink:href="#g"/><linearGradient id="k" x1="19.3827" y1="42.99034" x2="24.77174" y2="42.99034" gradientTransform="matrix(1, 0, 0, -1, 0, 76.668)" xlink:href="#b"/><radialGradient id="l" cx="19.02156" cy="10.11723" r="0.73893" gradientTransform="matrix(0.95253, 0.00012, -0.0001, -0.95039, 4.12886, 43.28127)" xlink:href="#g"/><radialGradient id="m" cx="-917.39859" cy="194.56153" r="0.58004" gradientTransform="translate(-855.58115 201.24304) rotate(180) scale(0.94292 0.94269)" gradientUnits="userSpaceOnUse"><stop offset="0.01124" stop-color="#a2c05d"/><stop offset="0.5" stop-color="#7dad2a"/><stop offset="1" stop-color="#61881c"/></radialGradient><radialGradient id="n" cx="-917.39859" cy="189.53151" r="0.58004" xlink:href="#m"/><radialGradient id="o" cx="-917.39859" cy="186.5825" r="0.58003" xlink:href="#m"/><radialGradient id="p" cx="-917.39859" cy="181.55248" r="0.58003" xlink:href="#m"/><linearGradient id="q" x1="48.0178" y1="33.803" x2="48.0178" y2="38.51243" gradientUnits="userSpaceOnUse"><stop offset="0" stop-color="#717071"/><stop offset="0.6" stop-color="#9e9e9f"/><stop offset="1" stop-color="#717071"/></linearGradient><radialGradient id="r" cx="50.52076" cy="34.27803" r="0.34831" gradientTransform="translate(0.38109 0.64715) scale(0.94292 0.94269)" xlink:href="#g"/></defs><title>cc-link_ie_wmb</title><rect width="74" height="48" fill="#fff"/><rect x="7.59723" y="12.12558" width="58.80224" height="23.88271" fill="#686765"/><polygon points="52.823 12.502 18.855 12.502 18.855 24.254 24.387 24.254 24.387 35.661 28.017 35.661 28.017 24.254 52.823 24.254 52.823 12.502" fill="#61605e"/><polygon points="7.597 36.008 24.03 36.008 24.03 24.928 18.224 24.928 18.224 17.817 15.308 16.607 15.308 12.126 7.597 12.126 7.597 36.008" fill="#535151"/><rect x="8.67037" y="16.91036" width="6.86847" height="6.56099" fill="#474546"/><path d="M27.00587,12" fill="none" stroke="#595757" stroke-width="0.20742"/><path d="M33.04348,18.94516a1.55963,1.55963,0,0,1-.15571.33165l-0.20993-.1529a1.24416,1.24416,0,0,0,.179-0.54684h0.25653A1.44712,1.44712,0,0,1,33.04348,18.94516Z" fill="#fff"/><path d="M33.04348,18.02468a1.48582,1.48582,0,0,1,.06991.36809H32.85686a1.23387,1.23387,0,0,0-.179-0.5443l0.20993-.15293A1.54041,1.54041,0,0,1,33.04348,18.02468Z" fill="#fff"/><path d="M32.67,18.57707l0.00532-.07012a0.43238,0.43238,0,0,1-.00252.0595Z" fill="#231815"/><path d="M32.18506,17.1148a1.51414,1.51414,0,0,1,.5966.43036l-0.21019.15293a1.21053,1.21053,0,0,0-.46669-0.33722Z" fill="#fff"/><path d="M32.78166,19.42465a1.49785,1.49785,0,0,1-.5966.43293l-0.08028-.24633a1.23382,1.23382,0,0,0,.46669-0.337Z" fill="#fff"/><path d="M31.6976,17.85884l-0.05443-.05444-0.05445.05444H31.332a0.70272,0.70272,0,0,1,.6224,0H31.6976Z" fill="#ab6a00"/><polygon points="31.827 18.173 31.827 19.075 31.459 19.075 31.459 18.173 31.275 18.173 31.589 17.859 31.643 17.804 31.698 17.859 32.011 18.173 31.827 18.173" fill="#824e00"/><path d="M31.83,17.02417a1.46889,1.46889,0,0,1,.1813.03342l-0.08028.24659a1.227,1.227,0,0,0-.14256-0.02608l-0.07268-.00785c-0.02329,0-.0466-0.00254-0.07266-0.00254-0.02331,0-.04914.00254-0.07242,0.00254-0.02609.00254-.0494,0.00531-0.07268,0.00785a1.218,1.218,0,0,0-.14256.02608l-0.078-.24659a1.35248,1.35248,0,0,1,.179-0.03342c0.03114-.00531.06231-0.00785,0.09345-0.01063,0.01543,0,.03114-0.00254.04659-0.00254H31.69c0.01545,0,.03091.00254,0.04659,0.00254C31.76774,17.01631,31.79888,17.01885,31.83,17.02417Z" fill="#fff"/><path d="M31.82725,19.07478V18.17252h0.1841l-0.31376-.31368h0.2593a0.70016,0.70016,0,1,1-.62748,0h0.2593l-0.31376.31368h0.1841v0.90226h0.36818Z" fill="#f29600"/><path d="M31.93107,19.66821L32.01135,19.912a1.48159,1.48159,0,0,1-.1813.03622c-0.03117.00505-.06231,0.00785-0.09345,0.01037a0.2591,0.2591,0,0,0-.04659.0028H31.59657a0.26056,0.26056,0,0,0-.04659-0.0028c-0.03114-.00251-0.06231-0.00532-0.09345-0.01037a1.44671,1.44671,0,0,1-.179-0.03622l0.078-.24379c0.04659,0.01063.09319,0.01822,0.14256,0.02582a0.59035,0.59035,0,0,0,.07268.00532,0.62616,0.62616,0,0,0,.07242.0028,0.60681,0.60681,0,0,0,.07266-0.0028,0.59417,0.59417,0,0,0,.07268-0.00532C31.83764,19.68643,31.88448,19.67883,31.93107,19.66821Z" fill="#fff"/><path d="M32.34331,18.48618a0.70485,0.70485,0,0,0-.38641-0.62733H31.95436a0.70272,0.70272,0,0,0-.6224,0H31.32941A0.70063,0.70063,0,1,0,32.34331,18.48618Zm-0.12711.858a1.05963,1.05963,0,0,1-.17876.09343,0.99625,0.99625,0,0,1-.192.05947,0.99475,0.99475,0,0,1-.40438,0,0.99625,0.99625,0,0,1-.192-0.05947,1.18107,1.18107,0,0,1-.179-0.09343,0.93794,0.93794,0,0,1-.15548-0.12962A0.92514,0.92514,0,0,1,30.785,19.0591a1.18009,1.18009,0,0,1-.096-0.17875,0.99263,0.99263,0,0,1-.057-0.19443,0.85021,0.85021,0,0,1-.02074-0.19974,0.88439,0.88439,0,0,1,.02074-0.20226,0.99263,0.99263,0,0,1,.057-0.19443,1.15586,1.15586,0,0,1,.096-0.17875,1.04073,1.04073,0,0,1,.12965-0.1557,0.92109,0.92109,0,0,1,.15548-0.12682,1.00272,1.00272,0,0,1,.179-0.0962,1.032,1.032,0,0,1,.192-0.0595,0.99475,0.99475,0,0,1,.40438,0,1.032,1.032,0,0,1,.192.0595,0.91306,0.91306,0,0,1,.17876.0962,0.96029,0.96029,0,0,1,.28539.28252,1.03938,1.03938,0,0,1,.15548.37318,1.17642,1.17642,0,0,1,.01571.13213,0.65122,0.65122,0,0,1,.00252.07012v0.02077L32.67,18.57707a0.93723,0.93723,0,0,1-.01291.10885,1.21063,1.21063,0,0,1-.05951.19443,1.22829,1.22829,0,0,1-.096.17875,0.93513,0.93513,0,0,1-.12711.15544A1.077,1.077,0,0,1,32.2162,19.34416Z" fill="#3e3a39"/><path d="M31.18179,17.36087a1.20948,1.20948,0,0,0-.467.33722l-0.20993-.15293a1.51143,1.51143,0,0,1,.59634-0.43036Z" fill="#fff"/><path d="M30.71484,19.27429a1.25473,1.25473,0,0,0,.467.337l-0.08054.24633a1.49521,1.49521,0,0,1-.59634-0.43293Z" fill="#fff"/><path d="M30.39855,19.27681a1.54877,1.54877,0,0,1-.15548-0.33165,1.44856,1.44856,0,0,1-.07014-0.36809h0.25679a1.23754,1.23754,0,0,0,.179.54684Z" fill="#fff"/><path d="M30.24307,18.02468a1.52968,1.52968,0,0,1,.15548-0.32913l0.21019,0.15293a1.2273,1.2273,0,0,0-.179.5443H30.17293A1.48745,1.48745,0,0,1,30.24307,18.02468Z" fill="#fff"/><path d="M28.48684,18.59506c-0.00506.03619-.0076,0.07264-0.01266,0.10885l-0.25425-.0519c0.00506-.04153.01037-0.083,0.01291-0.12457V18.48618c0-.0415-0.00254-0.083-0.00531-0.12431l0.2517-.05213c0.00254,0.02859.0076,0.05973,0.0076,0.08809a0.226,0.226,0,0,1,.00277.04431c0,0.01545.00254,0.02862,0.00254,0.044,0,0.018-.00254.03622-0.00254,0.05444S28.48684,18.57707,28.48684,18.59506Z" fill="#fff"/><path d="M28.19132,18.18012a1.1548,1.1548,0,0,0-.07266-0.20988c-0.01014-.02328-0.02331-0.044-0.03342-0.06735l0.21522-.14253a1.47633,1.47633,0,0,1,.1165.27215c0.01037,0.03113.02074,0.06481,0.02834,0.09594Z" fill="#fff"/><path d="M28.28223,19.24316L28.067,19.09809a1.112,1.112,0,0,0,.09068-0.19443,0.36216,0.36216,0,0,0,.02329-0.07012l0.25425,0.0519A1.55981,1.55981,0,0,1,28.28223,19.24316Z" fill="#fff"/><path d="M28.04624,18.53807l0.00252-.02582Z" fill="#231815"/><path d="M28.0437,18.58212l0.00254-.03113v0.01545Z" fill="#231815"/><path d="M28.17589,19.39352a1.52079,1.52079,0,0,1-.275.27215l-0.14508-.21517a1.392,1.392,0,0,0,.20739-0.19951Z" fill="#fff"/><path d="M27.9191,17.32214a1.54018,1.54018,0,0,1,.28007.28532l-0.21525.14227a1.255,1.255,0,0,0-.20739-0.21239Z" fill="#fff"/><path d="M27.34607,17.31428L27.398,17.0629a1.48493,1.48493,0,0,1,.36818.1557l-0.14282.2124A1.32025,1.32025,0,0,0,27.34607,17.31428Z" fill="#fff"/><path d="M27.39013,19.912l-0.05191-.25393a1.3187,1.3187,0,0,0,.20233-0.0729c0.02077-.01014.04151-0.02331,0.062-0.03342L27.74539,19.767a1.3914,1.3914,0,0,1-.26184.11645C27.45241,19.89377,27.42127,19.90417,27.39013,19.912Z" fill="#fff"/><path d="M27.08677,19.69934a0.59112,0.59112,0,0,0,.07014-0.00532l0.05165,0.25419c-0.03368.00251-.06483,0.00785-0.09571,0.00785-0.01571.00251-.03394,0.00251-0.0494,0.00531h-0.096c-0.01823-.0028-0.03368-0.0028-0.04911-0.00531-0.0314,0-.06231-0.00534-0.09623-0.00785L26.8743,19.694a1.95215,1.95215,0,0,0,.13979.00812A0.60943,0.60943,0,0,0,27.08677,19.69934Z" fill="#fff"/><path d="M27.01409,17.78618a0.69794,0.69794,0,0,1,.314.07266H27.07132l-0.05723-.05444-0.05445.05444h-0.2565A0.69219,0.69219,0,0,1,27.01409,17.78618Z" fill="#ab6a00"/><path d="M27.21642,17.02668l-0.05191.25141-0.07242-.00785c-0.02609,0-.05217-0.00254-0.078-0.00254-0.02329,0-.04914.00254-0.075,0.00254l-0.07291.00785-0.05165-.25141c0.03368-.00506.06734-0.00783,0.09851-0.01037,0.018-.00277.03366-0.00277,0.05189-0.00531h0.101c0.018,0.00254.03368,0.00254,0.05191,0.00531C27.14879,17.01885,27.18274,17.02163,27.21642,17.02668Z" fill="#fff"/><polygon points="27.071 17.859 27.385 18.173 27.198 18.173 27.198 19.075 26.83 19.075 26.83 18.173 26.646 18.173 26.96 17.859 27.014 17.804 27.071 17.859" fill="#824e00"/><path d="M27.38481,18.17252l-0.3135-.31368h0.25676a0.70142,0.70142,0,1,1-.62494,0h0.2565l-0.31373.31368H26.83v0.90226h0.36844V18.17252h0.18639Z" fill="#f29600"/><path d="M26.633,17.0629l0.05191,0.25138a1.31609,1.31609,0,0,0-.27753.11671l-0.14256-.2124A1.48411,1.48411,0,0,1,26.633,17.0629Z" fill="#fff"/><path d="M26.6925,19.65807l-0.04914.25393a1.46523,1.46523,0,0,1-.275-0.101,0.92157,0.92157,0,0,1-.08282-0.044l0.14256-.21519a1.33614,1.33614,0,0,0,.19448.08558C26.6459,19.64493,26.66919,19.65276,26.6925,19.65807Z" fill="#fff"/><path d="M26.07033,19.251a1.2516,1.2516,0,0,0,.20485.19951l-0.14536.21517a1.51925,1.51925,0,0,1-.27473-0.27215Z" fill="#fff"/><path d="M26.25441,17.53733a1.24781,1.24781,0,0,0-.20765.21239l-0.215-.14227a1.46387,1.46387,0,0,1,.27981-0.28532Z" fill="#fff"/><path d="M27.717,18.48618a0.69939,0.69939,0,0,0-.70294-0.7,0.69219,0.69219,0,0,0-.311.07266A0.70063,0.70063,0,1,0,27.717,18.48618Zm-0.70294,1.03164a0.84728,0.84728,0,0,1-.19953-0.02077,0.9589,0.9589,0,0,1-.19448-0.057,1.16033,1.16033,0,0,1-.179-0.09594,1.02183,1.02183,0,0,1-.15548-0.12708,0.90616,0.90616,0,0,1-.12711-0.158,0.91938,0.91938,0,0,1-.096-0.17875,1.05128,1.05128,0,0,1-.05977-0.19189,1.09733,1.09733,0,0,1-.02077-0.20228,0.42343,0.42343,0,0,1,.0028-0.0595,1.32488,1.32488,0,0,1,.018-0.14276,1.05216,1.05216,0,0,1,.05977-0.19192,0.84482,0.84482,0,0,1,.096-0.17872,0.9069,0.9069,0,0,1,.12711-0.15824,1.03424,1.03424,0,0,1,.15548-0.12682,1.1819,1.1819,0,0,1,.179-0.0962,1.20866,1.20866,0,0,1,.19448-0.0595,1.0248,1.0248,0,0,1,.19953-0.018,1.03587,1.03587,0,0,1,.20233.018,1.03778,1.03778,0,0,1,.3735.1557,1.046,1.046,0,0,1,.15548.12682,1.09046,1.09046,0,0,1,.12965.15824,0.954,0.954,0,0,1,.09319.17872,1.01335,1.01335,0,0,1,.05977.19192,0.88638,0.88638,0,0,1,.01823.14276,0.471,0.471,0,0,1,.00252.0595v0.02608l-0.00252.02582V18.551l-0.00254.03113c-0.00532.04407-.01063,0.07494-0.01569,0.10634a1.01253,1.01253,0,0,1-.05977.19189,1.04937,1.04937,0,0,1-.09319.17875,1.08975,1.08975,0,0,1-.12965.158,1.03334,1.03334,0,0,1-.15548.12708,1.1845,1.1845,0,0,1-.179.09594,0.95981,0.95981,0,0,1-.19448.057A0.85707,0.85707,0,0,1,27.01409,19.51782Z" fill="#3e3a39"/><path d="M25.73075,17.76035L25.946,17.90289a1.00117,1.00117,0,0,0-.0856.20483,0.51968,0.51968,0,0,0-.02077.07241l-0.25425-.05167a1.33506,1.33506,0,0,1,.10131-0.28A0.8147,0.8147,0,0,1,25.73075,17.76035Z" fill="#fff"/><path d="M25.84977,18.83353a1.132,1.132,0,0,0,.08051.20226c0.0104,0.02076.02331,0.04153,0.03368,0.0623l-0.21525.14507a1.521,1.521,0,0,1-.15294-0.36027Z" fill="#fff"/><path d="M25.79809,18.52744c0.00254,0.04153.0076,0.083,0.01294,0.12457l-0.254.0519c-0.00532-.03622-0.01066-0.07266-0.01317-0.10885,0-.018-0.00254-0.03622-0.00254-0.05444s-0.00254-.03645-0.00254-0.05444c0-.01542.00254-0.03113,0.00254-0.044a0.24631,0.24631,0,0,1,.00254-0.04431,0.49291,0.49291,0,0,1,.00786-0.08809l0.25145,0.04936c-0.00254.044-.00508,0.08558-0.00508,0.12708v0.04127Z" fill="#fff"/><rect x="20.98317" y="24.92755" width="3.0468" height="9.9954" fill="#656464"/><rect x="18.22365" y="27.11665" width="0.69687" height="5.61695" fill="#656464"/><rect x="21.17878" y="27.11665" width="2.52793" height="5.61695" fill="url(#a)"/><path d="M23.50692,27.11665V26.663l-0.16611-.06481v-1.041a0.32836,0.32836,0,0,0-.32817-0.32809H21.64319a0.44133,0.44133,0,0,0-.49428.33214V25.78a1.23294,1.23294,0,0,1-.64016.52657,0.45748,0.45748,0,0,0-.21626.42938v0.38075h0.37832V26.54148h0.508v0.57518" fill="url(#b)"/><rect x="18.92052" y="27.11665" width="1.75029" height="5.61695" fill="#656464"/><rect x="20.67081" y="27.11665" width="0.50797" height="5.61695" fill="#595757"/><polygon points="23.377 28.84 23.377 27.284 21.53 27.284 21.53 27.117 21.179 27.117 21.179 32.734 21.53 32.734 21.53 32.566 23.377 32.566 23.377 31.011 21.53 31.011 21.53 30.703 23.377 30.703 23.377 29.148 21.53 29.148 21.53 28.84 23.377 28.84" fill="url(#c)"/><rect x="21.91338" y="29.39589" width="1.05873" height="1.05848" fill="url(#d)"/><rect x="21.91338" y="27.5326" width="1.05873" height="1.05848" fill="url(#e)"/><rect x="21.91338" y="31.25943" width="1.05873" height="1.05848" fill="url(#f)"/><circle cx="19.79573" cy="29.92533" r="0.70378" transform="translate(-15.35964 22.74925) rotate(-44.9782)" stroke="#717071" stroke-width="0.12964" fill="url(#g)"/><path d="M20.212,30.48931A0.69517,0.69517,0,0,0,20.2935,30.423a0.66484,0.66484,0,0,0,.06636-0.0815l-0.978-.97772a0.7118,0.7118,0,0,0-.08129.06634,0.72189,0.72189,0,0,0-.06659.0815Z" fill="#656464"/><circle cx="19.79573" cy="29.92533" r="0.70378" transform="translate(-15.35964 22.74925) rotate(-44.9782)" fill="none" stroke="#595757" stroke-width="0.12964"/><circle cx="19.79573" cy="28.06026" r="0.70379" transform="translate(-14.04142 22.20397) rotate(-44.97903)" stroke="#717071" stroke-width="0.12964" fill="url(#h)"/><path d="M20.212,28.62426a0.69491,0.69491,0,0,0,.08152-0.06634,0.6668,0.6668,0,0,0,.06636-0.0815l-0.978-.97773a0.71463,0.71463,0,0,0-.08129.06632,0.72446,0.72446,0,0,0-.06659.08153Z" fill="#656464"/><circle cx="19.79573" cy="28.06026" r="0.70379" transform="translate(-14.04142 22.20397) rotate(-44.97903)" fill="none" stroke="#595757" stroke-width="0.12964"/><circle cx="19.7956" cy="31.79025" r="0.7037" transform="translate(-16.68119 23.30913) rotate(-45.00059)" stroke="#717071" stroke-width="0.12964" fill="url(#i)"/><path d="M19.23148,31.37412a0.67635,0.67635,0,0,1,.06636-0.08153,0.69456,0.69456,0,0,1,.08152-0.06657l0.978,0.97821a0.70726,0.70726,0,0,1-.06633.081,0.75061,0.75061,0,0,1-.08155.06683Z" fill="#656464"/><circle cx="19.7956" cy="31.79025" r="0.7037" transform="translate(-16.68119 23.30913) rotate(-45.00059)" fill="none" stroke="#595757" stroke-width="0.12964"/><circle cx="22.24632" cy="26.18249" r="0.70387" transform="translate(-11.99732 23.39063) rotate(-44.98567)" stroke="#717071" stroke-width="0.12964" fill="url(#j)"/><path d="M22.66269,26.74654a0.71924,0.71924,0,0,0,.08152-0.06634,0.71166,0.71166,0,0,0,.06636-0.0815l-0.97822-.978a0.73748,0.73748,0,0,0-.08129.0666,0.74557,0.74557,0,0,0-.06659.08125Z" fill="#656464"/><circle cx="22.24632" cy="26.18249" r="0.70387" transform="translate(-11.99732 23.39063) rotate(-44.98567)" fill="none" stroke="#595757" stroke-width="0.12964"/><path d="M23.50692,32.73386v0.45367l-0.16611.06481v1.041a0.32839,0.32839,0,0,1-.32817.32812H21.64319a0.44134,0.44134,0,0,1-.49428-0.33216V34.07058a1.233,1.233,0,0,0-.64016-0.52659,0.45744,0.45744,0,0,1-.21626-0.42935V32.73386h0.37832v0.5752h0.508v-0.5752" fill="url(#k)"/><circle cx="22.24644" cy="33.66809" r="0.70387" transform="translate(-17.29119 25.59217) rotate(-45.00059)" stroke="#717071" stroke-width="0.12964" fill="url(#l)"/><path d="M21.68219,33.25185a0.51471,0.51471,0,0,1,.14788-0.14787l0.97822,0.978a0.73743,0.73743,0,0,1-.06661.08127,0.72412,0.72412,0,0,1-.08152.06658Z" fill="#656464"/><circle cx="22.24644" cy="33.66809" r="0.70387" transform="translate(-17.29119 25.59217) rotate(-45.00059)" fill="none" stroke="#595757" stroke-width="0.12964"/><rect x="8.96437" y="17.22985" width="6.28047" height="5.94784" fill="#d2d2d3" stroke="#9e9e9f" stroke-width="0.13412"/><polygon points="9.239 20.937 9.591 20.937 9.591 21.566 10.42 21.566 10.42 22.6 13.278 22.601 13.278 17.807 10.42 17.806 10.42 18.839 9.591 18.839 9.591 19.468 9.239 19.468 9.239 20.937" fill="#4c4948" stroke="#9e9e9f" stroke-width="0.20239"/><rect x="8.96437" y="17.22897" width="0.96834" height="1.20596" stroke="#9e9e9f" stroke-width="0.14699" fill="url(#m)"/><rect x="8.96437" y="21.97072" width="0.96834" height="1.20596" stroke="#9e9e9f" stroke-width="0.14699" fill="url(#n)"/><rect x="8.67037" y="24.43212" width="6.86847" height="6.56099" fill="#474546"/><rect x="8.96437" y="24.75161" width="6.28047" height="5.94783" fill="#d2d2d3" stroke="#9e9e9f" stroke-width="0.13412"/><polygon points="9.239 28.459 9.591 28.459 9.591 29.088 10.42 29.088 10.42 30.122 13.278 30.123 13.278 25.328 10.42 25.328 10.42 26.361 9.591 26.361 9.591 26.99 9.239 26.99 9.239 28.459" fill="#4c4948" stroke="#9e9e9f" stroke-width="0.20239"/><rect x="8.96437" y="24.75073" width="0.96834" height="1.20593" stroke="#9e9e9f" stroke-width="0.14699" fill="url(#o)"/><rect x="8.96437" y="29.49248" width="0.96834" height="1.20593" stroke="#9e9e9f" stroke-width="0.14699" fill="url(#p)"/><path d="M47.10169,31.16753h1.83214a0.294,0.294,0,0,1,.294.294v2.9984a0.29367,0.29367,0,0,1-.29367.29367h-1.8324a0.294,0.294,0,0,1-.294-0.294V31.46146A0.29393,0.29393,0,0,1,47.10169,31.16753Z" fill="url(#q)"/><path d="M47.21893,31.39691h1.59739a0.25653,0.25653,0,0,1,.25653.25653v2.61434a0.25621,0.25621,0,0,1-.25621.25621H47.219a0.25627,0.25627,0,0,1-.25627-0.25627v-2.6146A0.25621,0.25621,0,0,1,47.21893,31.39691Z" fill="#4b4746"/><circle cx="48.01785" cy="32.96051" r="1.05493" fill="#3e3a39"/><circle cx="48.01793" cy="32.96056" r="0.32839" stroke="#717071" stroke-width="0.12964" fill="url(#r)"/><polygon points="18.224 24.722 18.224 24.928 23.825 24.928 23.825 36.008 24.03 36.008 24.03 24.928 24.03 24.722 18.224 24.722" fill="#3e3a39"/><rect x="56.10742" y="12.12558" width="9.93982" height="23.88271" fill="#535151"/><rect x="35.53661" y="29.78475" width="8.0633" height="5.87593" fill="#3e3a39"/><path d="M41.22567,34.90245a0.19215,0.19215,0,1,1,0-.3843h2.022V30.92779h-2.022a0.19215,0.19215,0,1,1,0-.3843h2.022V30.07033H35.889v5.30505h7.3587V34.90245h-2.022Z" fill="#5f5f5e"/><polygon points="39.568 29.222 35.537 29.222 35.061 29.222 35.061 29.785 35.061 35.661 35.537 35.661 35.537 29.785 39.568 29.785 39.568 29.222" fill="#555353"/><polygon points="61.683 22.752 61.077 22.752 61.077 20.122 56.107 20.122 56.107 28.013 61.077 28.013 61.077 25.382 61.683 25.382 61.683 22.752" fill="#3e3a39"/><rect x="56.28011" y="20.34264" width="4.62439" height="7.4492" fill="#535151"/><rect x="56.10742" y="23.10603" width="1.85919" height="1.92252" fill="#d7e1e7"/><rect x="57.86886" y="23.10603" width="0.09776" height="1.92252" fill="#a9bbc5"/><rect x="57.62576" y="23.10603" width="0.09776" height="1.92252" fill="#a9bbc5"/><rect x="57.38267" y="23.10603" width="0.09776" height="1.92252" fill="#a9bbc5"/><rect x="57.13957" y="23.10603" width="0.09776" height="1.92252" fill="#a9bbc5"/><rect x="56.89647" y="23.10603" width="0.09776" height="1.92252" fill="#a9bbc5"/><rect x="56.65338" y="23.10603" width="0.09776" height="1.92252" fill="#a9bbc5"/><rect x="56.41028" y="23.10603" width="0.09776" height="1.92252" fill="#a9bbc5"/><rect x="56.16719" y="23.10603" width="0.09776" height="1.92252" fill="#a9bbc5"/><rect x="7.59723" y="12.12558" width="58.80224" height="23.88271" fill="none" stroke="#231815" stroke-width="0.19445"/><path d="M32.26191,13.18037H24.26585a0.29675,0.29675,0,0,0-.325.29164v0.91823h8.64609V13.472A0.29675,0.29675,0,0,0,32.26191,13.18037Z" fill="#fff"/><path d="M26.9147,30.93792V32.623a0.26541,0.26541,0,0,1-.10888.09063,0.35814,0.35814,0,0,1-.09319.03113,0.70362,0.70362,0,0,1-.12965.01037H24.17139V30.93792H26.9147Z" fill="#fff"/><rect x="24.17139" y="29.06855" width="2.74331" height="1.76304" fill="#fff"/><path d="M26.9147,27.27209v1.68506H24.17139V27.14H26.583a0.70362,0.70362,0,0,1,.12965.01037,0.358,0.358,0,0,1,.09319.03113A0.26559,0.26559,0,0,1,26.9147,27.27209Z" fill="#fff"/><path d="M15.573,21.33263h2.15724a0.38682,0.38682,0,0,1,.14256.02836,0.39626,0.39626,0,0,1,.11674.078,0.36934,0.36934,0,0,1,.08025.119,0.37558,0.37558,0,0,1,.02863.14277V22.3734a0.37556,0.37556,0,0,1-.02863.14276,0.39141,0.39141,0,0,1-.197.197,0.38735,0.38735,0,0,1-.14256.02886H15.573V21.33263Z" fill="#fff"/><path d="M15.573,18.07567h2.15724a0.38682,0.38682,0,0,1,.14256.02836,0.39615,0.39615,0,0,1,.11674.078,0.36959,0.36959,0,0,1,.08025.119,0.37569,0.37569,0,0,1,.02863.14279v0.67265a0.37579,0.37579,0,0,1-.02863.14279,0.39154,0.39154,0,0,1-.197.19694,0.38744,0.38744,0,0,1-.14256.02888H15.573V18.07567Z" fill="#fff"/><path d="M15.573,28.61311h2.15724a0.38682,0.38682,0,0,1,.14256.02836,0.39625,0.39625,0,0,1,.11674.078,0.36949,0.36949,0,0,1,.08025.119,0.37579,0.37579,0,0,1,.02863.14279v0.67242a0.37556,0.37556,0,0,1-.02863.14276,0.39141,0.39141,0,0,1-.197.197,0.38736,0.38736,0,0,1-.14256.02886H15.573v-1.4091Z" fill="#fff"/><path d="M15.573,25.3559h2.15724a0.38682,0.38682,0,0,1,.14256.02836,0.39616,0.39616,0,0,1,.11674.078,0.36959,0.36959,0,0,1,.08025.119,0.37569,0.37569,0,0,1,.02863.14279v0.67291a0.37556,0.37556,0,0,1-.02863.14277,0.39145,0.39145,0,0,1-.197.197,0.3874,0.3874,0,0,1-.14256.02885H15.573V25.3559Z" fill="#fff"/><path d="M33.02113,13.18037h7.61833a0.294,0.294,0,0,1,.294.294v1.80473a0.29393,0.29393,0,0,1-.29393.29393H33.0212a0.294,0.294,0,0,1-.294-0.294V13.47429A0.29393,0.29393,0,0,1,33.02113,13.18037Z" fill="#fff"/><path d="M19.92828,12.96658h3.38a0.294,0.294,0,0,1,.294.294v2.06928a0.29393,0.29393,0,0,1-.29393.29393h-3.38a0.294,0.294,0,0,1-.294-0.294V13.2605A0.29393,0.29393,0,0,1,19.92828,12.96658Z" fill="#fff"/><polygon points="34.548 15.319 34.548 14.29 33.862 14.287 33.862 14.29 33.862 15.319 34.548 15.319" fill="#61605e"/><polygon points="22.577 15.319 22.577 14.29 21.891 14.287 21.891 14.29 21.891 15.319 22.577 15.319" fill="#61605e"/><polygon points="36.411 15.319 36.411 14.29 35.726 14.287 35.726 14.29 35.726 15.319 36.411 15.319" fill="#61605e"/><polygon points="38.275 15.319 38.275 14.29 37.59 14.287 37.59 14.29 37.59 15.319 38.275 15.319" fill="#61605e"/><polygon points="40.139 15.319 40.139 14.29 39.453 14.287 39.453 14.29 39.453 15.319 40.139 15.319" fill="#61605e"/><path d="M41.82676,13.1805h7.40107a0.294,0.294,0,0,1,.294.294v1.80473a0.29393,0.29393,0,0,1-.29393.29393H41.82684a0.294,0.294,0,0,1-.294-0.294V13.47442A0.29392,0.29392,0,0,1,41.82676,13.1805Z" fill="#fff"/><circle cx="22.51025" cy="18.50782" r="0.69141" fill="#3e3a39"/><circle cx="42.55631" cy="18.50782" r="0.69141" fill="#3e3a39"/><path d="M41.16844,13.38608a0.41981,0.41981,0,0,0-.41908-0.4195H24.15772a0.42022,0.42022,0,0,0-.41947.4195v8.44136a0.32423,0.32423,0,0,0,.34363.35645H40.82533a0.32423,0.32423,0,0,0,.34363-0.35645V21.04972Zm-0.10357,7.66364H23.84168V13.38608a0.31814,0.31814,0,0,1,.316-0.316H40.74936a0.31793,0.31793,0,0,1,.31552.316v7.66364Z" fill="#fff"/><path d="M49.33772,12.96658H41.71718a0.41981,0.41981,0,0,0-.41908.4195v8.47869a0.32421,0.32421,0,0,0,.34363.35645h7.77146a0.32421,0.32421,0,0,0,.34363-0.35645V13.38608A0.42013,0.42013,0,0,0,49.33772,12.96658ZM49.653,21.08705H41.40192l-0.00049-7.701a0.318,0.318,0,0,1,.31575-0.31583h7.62054a0.31756,0.31756,0,0,1,.31552.31583V21.089Z" fill="#fff"/><rect x="23.94084" y="14.51986" width="5.30757" height="1.05316" fill="#fff"/><rect x="29.37806" y="14.51986" width="3.20886" height="1.05316" fill="#fff"/><polygon points="43.024 15.319 43.024 14.29 42.338 14.287 42.338 14.29 42.338 15.319 43.024 15.319" fill="#61605e"/><polygon points="44.888 15.319 44.888 14.29 44.202 14.287 44.202 14.29 44.202 15.319 44.888 15.319" fill="#61605e"/><polygon points="46.751 15.319 46.751 14.29 46.066 14.287 46.066 14.29 46.066 15.319 46.751 15.319" fill="#61605e"/><polygon points="48.615 15.319 48.615 14.29 47.929 14.287 47.929 14.29 47.929 15.319 48.615 15.319" fill="#61605e"/></svg>