<svg xmlns="http://www.w3.org/2000/svg" width="74" height="48" viewBox="0 0 74 48"><title>cc-link_rio_onecn2</title><rect width="74" height="48" fill="#fff"/><rect x="9.226" y="12.128" width="55.549" height="23.744" fill="#919191"/><rect x="10.38" y="25.136" width="53.239" height="10.736" fill="#1f1f1f"/><rect x="10.797" y="25.616" width="52.405" height="10.256" fill="#717071"/><ellipse cx="14.12" cy="28.524" rx="1.152" ry="1.163" fill="gray"/><rect x="10.797" y="31.446" width="17.245" height="4.426" fill="#595757"/><rect x="28.319" y="31.446" width="34.884" height="4.426" fill="#595757"/><path d="M62.986,17.778a2.052,2.052,0,0,0,0,4.1h1.789v-4.1H62.986Z" fill="#141414"/><ellipse cx="62.986" cy="19.83" rx="1.246" ry="1.257" fill="#fff"/><path d="M11.485,17.778a2.052,2.052,0,0,1,0,4.1H9.226v-4.1h2.26Z" fill="#141414"/><ellipse cx="11.485" cy="19.83" rx="1.246" ry="1.257" fill="#fff"/><path d="M60.481,19.831A2.519,2.519,0,0,1,62.986,17.3h1.152v-4.51H9.862V17.3h1.624a2.527,2.527,0,0,1,0,5.055H9.862V24H64.138V22.358H62.986A2.519,2.519,0,0,1,60.481,19.831Z" fill="none" stroke="#333" stroke-width="0.167"/><rect x="13.787" y="14.511" width="0.913" height="2.094" fill="#1f1f1f"/><rect x="16.223" y="14.511" width="0.913" height="2.094" fill="#1f1f1f"/><rect x="18.659" y="14.511" width="0.913" height="2.094" fill="#1f1f1f"/><rect x="20.956" y="14.511" width="0.913" height="2.094" fill="#1f1f1f"/><rect x="22.174" y="14.511" width="0.913" height="2.094" fill="#1f1f1f"/><rect x="23.392" y="14.511" width="0.913" height="2.094" fill="#1f1f1f"/><rect x="24.61" y="14.511" width="0.913" height="2.094" fill="#1f1f1f"/><rect x="25.828" y="14.511" width="0.913" height="2.094" fill="#1f1f1f"/><rect x="27.046" y="14.511" width="0.913" height="2.094" fill="#1f1f1f"/><rect x="28.264" y="14.511" width="0.913" height="2.094" fill="#1f1f1f"/><rect x="29.482" y="14.511" width="0.913" height="2.094" fill="#1f1f1f"/><rect x="31.75" y="14.511" width="0.913" height="2.094" fill="#1f1f1f"/><rect x="32.968" y="14.511" width="0.913" height="2.094" fill="#1f1f1f"/><rect x="34.186" y="14.511" width="0.913" height="2.094" fill="#1f1f1f"/><rect x="35.404" y="14.511" width="0.913" height="2.094" fill="#1f1f1f"/><rect x="36.622" y="14.511" width="0.913" height="2.094" fill="#1f1f1f"/><rect x="37.84" y="14.511" width="0.913" height="2.094" fill="#1f1f1f"/><rect x="39.058" y="14.511" width="0.913" height="2.094" fill="#1f1f1f"/><rect x="40.276" y="14.511" width="0.913" height="2.094" fill="#1f1f1f"/><rect x="47.977" y="16.291" width="0.789" height="1.801" fill="#1f1f1f"/><rect x="48.089" y="16.972" width="0.566" height="0.709" fill="#fff"/><rect x="49.174" y="16.291" width="0.789" height="1.801" fill="#1f1f1f"/><rect x="49.286" y="16.972" width="0.566" height="0.709" fill="#fff"/><rect x="50.372" y="16.291" width="0.789" height="1.801" fill="#1f1f1f"/><rect x="50.483" y="16.972" width="0.566" height="0.709" fill="#fff"/><rect x="51.569" y="16.291" width="0.789" height="1.801" fill="#1f1f1f"/><rect x="51.68" y="16.972" width="0.566" height="0.709" fill="#fff"/><rect x="52.766" y="16.291" width="0.789" height="1.801" fill="#1f1f1f"/><rect x="52.878" y="16.972" width="0.566" height="0.709" fill="#fff"/><rect x="53.963" y="16.291" width="0.789" height="1.801" fill="#1f1f1f"/><rect x="54.075" y="16.972" width="0.566" height="0.709" fill="#fff"/><rect x="55.16" y="16.291" width="0.789" height="1.801" fill="#1f1f1f"/><rect x="55.272" y="16.972" width="0.566" height="0.709" fill="#fff"/><rect x="56.358" y="16.291" width="0.789" height="1.801" fill="#1f1f1f"/><rect x="56.469" y="16.972" width="0.566" height="0.709" fill="#fff"/><rect x="57.555" y="16.291" width="0.789" height="1.801" fill="#1f1f1f"/><rect x="57.666" y="16.972" width="0.566" height="0.709" fill="#fff"/><rect x="58.752" y="16.291" width="0.789" height="1.801" fill="#1f1f1f"/><rect x="58.864" y="16.972" width="0.566" height="0.709" fill="#fff"/><path d="M14.5,28.524l0.208-.21a0.164,0.164,0,0,0,0-.231l-0.151-.152a0.16,0.16,0,0,0-.229,0l-0.208.21-0.208-.21a0.16,0.16,0,0,0-.229,0l-0.15.152a0.164,0.164,0,0,0,0,.231l0.208,0.21-0.208.21a0.164,0.164,0,0,0,0,.231l0.15,0.152a0.161,0.161,0,0,0,.229,0l0.208-.21,0.208,0.21a0.161,0.161,0,0,0,.229,0l0.151-.152a0.164,0.164,0,0,0,0-.231Z" fill="#333"/><ellipse cx="17.683" cy="28.524" rx="1.152" ry="1.163" fill="gray"/><path d="M18.062,28.524l0.208-.21a0.164,0.164,0,0,0,0-.231l-0.15-.152a0.16,0.16,0,0,0-.229,0l-0.208.21-0.208-.21a0.16,0.16,0,0,0-.229,0l-0.15.152a0.164,0.164,0,0,0,0,.231l0.208,0.21-0.208.21a0.164,0.164,0,0,0,0,.231l0.151,0.152a0.161,0.161,0,0,0,.229,0l0.208-.21,0.208,0.21a0.161,0.161,0,0,0,.229,0l0.15-.152a0.164,0.164,0,0,0,0-.231Z" fill="#333"/><ellipse cx="21.246" cy="28.524" rx="1.152" ry="1.163" fill="gray"/><path d="M21.625,28.524l0.208-.21a0.164,0.164,0,0,0,0-.231l-0.15-.152a0.16,0.16,0,0,0-.229,0l-0.208.21-0.208-.21a0.16,0.16,0,0,0-.229,0l-0.151.152a0.164,0.164,0,0,0,0,.231l0.208,0.21-0.208.21a0.164,0.164,0,0,0,0,.231l0.15,0.152a0.161,0.161,0,0,0,.229,0l0.208-.21,0.208,0.21a0.161,0.161,0,0,0,.229,0l0.15-.152a0.164,0.164,0,0,0,0-.231Z" fill="#333"/><ellipse cx="24.809" cy="28.524" rx="1.152" ry="1.163" fill="gray"/><path d="M25.189,28.524l0.208-.21a0.164,0.164,0,0,0,0-.231l-0.15-.152a0.16,0.16,0,0,0-.229,0l-0.208.21-0.208-.21a0.16,0.16,0,0,0-.229,0l-0.15.152a0.164,0.164,0,0,0,0,.231l0.208,0.21-0.208.21a0.164,0.164,0,0,0,0,.231l0.15,0.152a0.161,0.161,0,0,0,.229,0l0.208-.21,0.208,0.21a0.161,0.161,0,0,0,.229,0l0.15-.152a0.164,0.164,0,0,0,0-.231Z" fill="#333"/><ellipse cx="59.357" cy="28.524" rx="1.152" ry="1.163" fill="gray"/><path d="M59.737,28.524l0.208-.21a0.165,0.165,0,0,0,0-.231l-0.15-.152a0.16,0.16,0,0,0-.229,0l-0.208.21-0.208-.21a0.16,0.16,0,0,0-.229,0l-0.15.152a0.165,0.165,0,0,0,0,.231l0.208,0.21-0.208.21a0.165,0.165,0,0,0,0,.231l0.15,0.152a0.161,0.161,0,0,0,.229,0l0.208-.21,0.208,0.21a0.161,0.161,0,0,0,.229,0l0.15-.152a0.165,0.165,0,0,0,0-.231Z" fill="#333"/><ellipse cx="61.148" cy="33.364" rx="1.152" ry="1.163" fill="gray"/><path d="M61.528,33.364l0.208-.21a0.165,0.165,0,0,0,0-.231l-0.15-.152a0.16,0.16,0,0,0-.229,0l-0.208.21-0.208-.21a0.16,0.16,0,0,0-.229,0l-0.151.152a0.165,0.165,0,0,0,0,.231l0.208,0.21-0.208.21a0.165,0.165,0,0,0,0,.231l0.15,0.152a0.161,0.161,0,0,0,.229,0l0.208-.21,0.208,0.21a0.161,0.161,0,0,0,.229,0l0.15-.152a0.165,0.165,0,0,0,0-.231Z" fill="#333"/><ellipse cx="12.32" cy="33.364" rx="1.152" ry="1.163" fill="gray"/><path d="M12.7,33.364l0.208-.21a0.164,0.164,0,0,0,0-.231l-0.15-.152a0.16,0.16,0,0,0-.229,0l-0.208.21-0.208-.21a0.16,0.16,0,0,0-.229,0l-0.15.152a0.164,0.164,0,0,0,0,.231l0.208,0.21-0.208.21a0.164,0.164,0,0,0,0,.231l0.151,0.152a0.161,0.161,0,0,0,.229,0l0.208-.21,0.208,0.21a0.161,0.161,0,0,0,.229,0l0.15-.152a0.164,0.164,0,0,0,0-.231Z" fill="#333"/><ellipse cx="15.883" cy="33.364" rx="1.152" ry="1.163" fill="gray"/><path d="M16.263,33.364l0.208-.21a0.164,0.164,0,0,0,0-.231l-0.15-.152a0.16,0.16,0,0,0-.229,0l-0.208.21-0.208-.21a0.16,0.16,0,0,0-.229,0l-0.15.152a0.164,0.164,0,0,0,0,.231l0.208,0.21-0.208.21a0.164,0.164,0,0,0,0,.231l0.15,0.152a0.161,0.161,0,0,0,.229,0l0.208-.21,0.208,0.21a0.161,0.161,0,0,0,.229,0l0.15-.152a0.164,0.164,0,0,0,0-.231Z" fill="#333"/><ellipse cx="19.446" cy="33.364" rx="1.152" ry="1.163" fill="gray"/><path d="M19.826,33.364l0.208-.21a0.164,0.164,0,0,0,0-.231l-0.15-.152a0.16,0.16,0,0,0-.229,0l-0.208.21-0.208-.21a0.16,0.16,0,0,0-.229,0l-0.15.152a0.164,0.164,0,0,0,0,.231l0.208,0.21-0.208.21a0.164,0.164,0,0,0,0,.231l0.15,0.152a0.161,0.161,0,0,0,.229,0l0.208-.21,0.208,0.21a0.161,0.161,0,0,0,.229,0l0.15-.152a0.164,0.164,0,0,0,0-.231Z" fill="#333"/><ellipse cx="26.572" cy="33.364" rx="1.152" ry="1.163" fill="gray"/><path d="M26.193,33.364l-0.208-.21a0.164,0.164,0,0,1,0-.231l0.15-.152a0.16,0.16,0,0,1,.229,0l0.208,0.21,0.208-.21a0.16,0.16,0,0,1,.229,0l0.15,0.152a0.164,0.164,0,0,1,0,.231l-0.208.21,0.208,0.21a0.164,0.164,0,0,1,0,.231l-0.15.152a0.161,0.161,0,0,1-.229,0l-0.208-.21-0.208.21a0.161,0.161,0,0,1-.229,0l-0.15-.152a0.164,0.164,0,0,1,0-.231Z" fill="#333"/><ellipse cx="23.01" cy="33.364" rx="1.152" ry="1.163" fill="gray"/><path d="M23.389,33.364l0.208-.21a0.164,0.164,0,0,0,0-.231l-0.151-.152a0.16,0.16,0,0,0-.229,0l-0.208.21-0.208-.21a0.16,0.16,0,0,0-.229,0l-0.15.152a0.164,0.164,0,0,0,0,.231l0.208,0.21-0.208.21a0.164,0.164,0,0,0,0,.231l0.15,0.152a0.161,0.161,0,0,0,.229,0l0.208-.21,0.208,0.21a0.161,0.161,0,0,0,.229,0l0.151-.152a0.164,0.164,0,0,0,0-.231Z" fill="#333"/><rect x="28.042" y="25.136" width="28.71" height="10.736" fill="#333"/><polygon points="31.489 27.034 30.782 27.034 30.782 25.326 29.038 25.326 29.038 27.034 28.332 27.034 28.332 33.974 29.038 33.974 29.038 35.682 30.782 35.682 30.782 33.974 31.489 33.974 31.489 27.034" fill="#121212"/><rect x="29.647" y="28.524" width="0.526" height="0.53" fill="#bc9849"/><rect x="29.647" y="29.827" width="0.526" height="0.53" fill="#bc9849"/><rect x="29.647" y="31.13" width="0.526" height="0.53" fill="#bc9849"/><rect x="29.647" y="32.434" width="0.526" height="0.53" fill="#bc9849"/><polygon points="35.059 27.034 34.353 27.034 34.353 25.326 32.609 25.326 32.609 27.034 31.902 27.034 31.902 33.974 32.609 33.974 32.609 35.682 34.353 35.682 34.353 33.974 35.059 33.974 35.059 27.034" fill="#121212"/><rect x="33.218" y="28.524" width="0.526" height="0.53" fill="#bc9849"/><rect x="33.218" y="29.827" width="0.526" height="0.53" fill="#bc9849"/><rect x="33.218" y="31.13" width="0.526" height="0.53" fill="#bc9849"/><rect x="33.218" y="32.434" width="0.526" height="0.53" fill="#bc9849"/><polygon points="38.63 27.034 37.923 27.034 37.923 25.326 36.179 25.326 36.179 27.034 35.473 27.034 35.473 33.974 36.179 33.974 36.179 35.682 37.923 35.682 37.923 33.974 38.63 33.974 38.63 27.034" fill="#121212"/><rect x="36.788" y="28.524" width="0.526" height="0.53" fill="#bc9849"/><rect x="36.788" y="29.827" width="0.526" height="0.53" fill="#bc9849"/><rect x="36.788" y="31.13" width="0.526" height="0.53" fill="#bc9849"/><rect x="36.788" y="32.434" width="0.526" height="0.53" fill="#bc9849"/><polygon points="42.2 27.034 41.494 27.034 41.494 25.326 39.75 25.326 39.75 27.034 39.043 27.034 39.043 33.974 39.75 33.974 39.75 35.682 41.494 35.682 41.494 33.974 42.2 33.974 42.2 27.034" fill="#121212"/><rect x="40.359" y="28.524" width="0.526" height="0.53" fill="#bc9849"/><rect x="40.359" y="29.827" width="0.526" height="0.53" fill="#bc9849"/><rect x="40.359" y="31.13" width="0.526" height="0.53" fill="#bc9849"/><rect x="40.359" y="32.434" width="0.526" height="0.53" fill="#bc9849"/><polygon points="45.771 27.034 45.064 27.034 45.064 25.326 43.32 25.326 43.32 27.034 42.614 27.034 42.614 33.974 43.32 33.974 43.32 35.682 45.064 35.682 45.064 33.974 45.771 33.974 45.771 27.034" fill="#121212"/><rect x="43.929" y="28.524" width="0.526" height="0.53" fill="#bc9849"/><rect x="43.929" y="29.827" width="0.526" height="0.53" fill="#bc9849"/><rect x="43.929" y="31.13" width="0.526" height="0.53" fill="#bc9849"/><rect x="43.929" y="32.434" width="0.526" height="0.53" fill="#bc9849"/><polygon points="49.341 27.034 48.635 27.034 48.635 25.326 46.891 25.326 46.891 27.034 46.184 27.034 46.184 33.974 46.891 33.974 46.891 35.682 48.635 35.682 48.635 33.974 49.341 33.974 49.341 27.034" fill="#121212"/><rect x="47.5" y="28.524" width="0.526" height="0.53" fill="#bc9849"/><rect x="47.5" y="29.827" width="0.526" height="0.53" fill="#bc9849"/><rect x="47.5" y="31.13" width="0.526" height="0.53" fill="#bc9849"/><rect x="47.5" y="32.434" width="0.526" height="0.53" fill="#bc9849"/><polygon points="52.912 27.034 52.205 27.034 52.205 25.326 50.461 25.326 50.461 27.034 49.755 27.034 49.755 33.974 50.461 33.974 50.461 35.682 52.205 35.682 52.205 33.974 52.912 33.974 52.912 27.034" fill="#121212"/><rect x="51.07" y="28.524" width="0.526" height="0.53" fill="#bc9849"/><rect x="51.07" y="29.827" width="0.526" height="0.53" fill="#bc9849"/><rect x="51.07" y="31.13" width="0.526" height="0.53" fill="#bc9849"/><rect x="51.07" y="32.434" width="0.526" height="0.53" fill="#bc9849"/><polygon points="56.482 27.034 55.776 27.034 55.776 25.326 54.032 25.326 54.032 27.034 53.325 27.034 53.325 33.974 54.032 33.974 54.032 35.682 55.776 35.682 55.776 33.974 56.482 33.974 56.482 27.034" fill="#121212"/><rect x="54.641" y="28.524" width="0.526" height="0.53" fill="#bc9849"/><rect x="54.641" y="29.827" width="0.526" height="0.53" fill="#bc9849"/><rect x="54.641" y="31.13" width="0.526" height="0.53" fill="#bc9849"/><rect x="54.641" y="32.434" width="0.526" height="0.53" fill="#bc9849"/><rect x="9.226" y="12.128" width="55.549" height="23.744" fill="none" stroke="#231815" stroke-width="0.25"/><path d="M44.806,17.688a0.815,0.815,0,0,1-.852.77H43.694a0.815,0.815,0,0,1-.852-0.77v-1.5a0.815,0.815,0,0,1,.852-0.77h0.259a0.815,0.815,0,0,1,.852.77v1.5Z" fill="#1f1f1f"/><ellipse cx="43.824" cy="16.463" rx="0.494" ry="0.538" fill="#fff"/></svg>