<svg xmlns="http://www.w3.org/2000/svg" xmlns:xlink="http://www.w3.org/1999/xlink" width="74" height="48" viewBox="0 0 74 48"><defs><radialGradient id="a" cx="-917.13312" cy="194.50138" r="0.56949" gradientTransform="translate(-871.54283 204.7759) rotate(180) scale(0.96038 0.96006)" gradientUnits="userSpaceOnUse"><stop offset="0.01124" stop-color="#a2c05d"/><stop offset="0.5" stop-color="#7dad2a"/><stop offset="1" stop-color="#61881c"/></radialGradient><radialGradient id="b" cx="-917.13312" cy="189.5628" r="0.56948" xlink:href="#a"/><radialGradient id="c" cx="-917.13312" cy="186.66742" r="0.56948" xlink:href="#a"/><radialGradient id="d" cx="-917.13312" cy="181.72885" r="0.56948" xlink:href="#a"/></defs><title>cc-link_ie_aio_econ</title><rect width="74" height="48" fill="#fff"/><rect x="7.59722" y="12.10125" width="58.80225" height="23.8482" fill="#535151"/><rect x="8.47592" y="17.12116" width="6.86849" height="6.56028" rx="0.36745" ry="0.36745" fill="#585656"/><rect x="8.76992" y="17.44044" width="6.28049" height="5.9473" fill="#d2d2d3" stroke="#9e9e9f" stroke-width="0.13412"/><polygon points="9.044 21.148 9.396 21.148 9.396 21.776 10.226 21.776 10.226 22.811 13.084 22.812 13.084 18.017 10.226 18.016 10.226 19.05 9.396 19.05 9.396 19.678 9.044 19.678 9.044 21.148" fill="#4c4948" stroke="#9e9e9f" stroke-width="0.20238"/><rect x="8.76992" y="17.43961" width="0.96834" height="1.20585" stroke="#9e9e9f" stroke-width="0.14698" fill="url(#a)"/><rect x="8.76992" y="22.18096" width="0.96834" height="1.20584" stroke="#9e9e9f" stroke-width="0.14698" fill="url(#b)"/><rect x="8.47592" y="24.64213" width="6.86849" height="6.56041" rx="0.36745" ry="0.36745" fill="#585656"/><rect x="8.76992" y="24.96159" width="6.2805" height="5.9473" fill="#d2d2d3" stroke="#9e9e9f" stroke-width="0.13412"/><polygon points="9.044 28.669 9.396 28.669 9.396 29.297 10.226 29.297 10.226 30.332 13.084 30.333 13.084 25.538 10.226 25.537 10.226 26.571 9.396 26.571 9.396 27.199 9.044 27.199 9.044 28.669" fill="#4c4948" stroke="#9e9e9f" stroke-width="0.20238"/><rect x="8.76992" y="24.96071" width="0.96834" height="1.20582" stroke="#9e9e9f" stroke-width="0.14698" fill="url(#c)"/><rect x="8.76992" y="29.70204" width="0.96834" height="1.20582" stroke="#9e9e9f" stroke-width="0.14698" fill="url(#d)"/><rect x="17.13217" y="12.10125" width="39.34339" height="23.8482" fill="#676866"/><polygon points="17.725 12.654 17.725 35.364 20.822 35.364 20.822 24.642 28.313 24.642 28.313 35.364 55.883 35.364 55.883 12.654 17.725 12.654" fill="#545452"/><polygon points="28.534 35.143 28.534 24.422 20.602 24.422 20.602 35.143 17.945 35.143 17.945 12.875 55.662 12.875 55.662 35.143 28.534 35.143" fill="#60605e"/><rect x="21.10137" y="24.92159" width="6.83592" height="11.02786" fill="#4c4948"/><path d="M30.08391,19.44854a1.55645,1.55645,0,0,1-.15574.33175l-0.20993-.15289a1.24457,1.24457,0,0,0,.179-0.54692h0.25653A1.44535,1.44535,0,0,1,30.08391,19.44854Z" fill="#fff"/><path d="M30.08391,18.52825a1.48847,1.48847,0,0,1,.06988.36809H29.89726a1.23322,1.23322,0,0,0-.179-0.54428l0.20993-.153A1.53989,1.53989,0,0,1,30.08391,18.52825Z" fill="#fff"/><path d="M29.71038,19.08048l0.00531-.07a0.43424,0.43424,0,0,1-.00252.05962Z" fill="#231815"/><path d="M29.22546,17.61847a1.5154,1.5154,0,0,1,.5966.43033l-0.21016.15291a1.20745,1.20745,0,0,0-.46669-0.33706Z" fill="#fff"/><path d="M29.82206,19.92812a1.49777,1.49777,0,0,1-.5966.43287l-0.08025-.24631a1.23485,1.23485,0,0,0,.46669-0.33693Z" fill="#fff"/><path d="M28.738,18.36245L28.68357,18.308l-0.05445.05444H28.37235a0.70284,0.70284,0,0,1,.62243,0H28.738Z" fill="#ab6a00"/><polygon points="28.868 18.676 28.868 19.578 28.499 19.578 28.499 18.676 28.315 18.676 28.629 18.362 28.684 18.308 28.738 18.362 29.052 18.676 28.868 18.676" fill="#824e00"/><path d="M28.87045,17.52772a1.46934,1.46934,0,0,1,.18131.03367l-0.08028.24628a1.26663,1.26663,0,0,0-.14256-0.02595l-0.07266-.0077c-0.02331,0-.0466-0.00267-0.07268-0.00267-0.02331,0-.04914.00267-0.07242,0.00267l-0.07268.0077a1.25712,1.25712,0,0,0-.14256.02595l-0.078-.24628a1.35266,1.35266,0,0,1,.179-0.03367c0.03114-.00521.06228-0.00772,0.09343-0.01039,0.01545,0,.03114-0.00251.0466-0.00251H28.7304c0.01545,0,.03091.00251,0.0466,0.00251C28.80814,17.52,28.83931,17.52251,28.87045,17.52772Z" fill="#fff"/><path d="M28.86765,19.57815V18.67608h0.1841L28.738,18.36245h0.2593a0.70016,0.70016,0,1,1-.62749,0h0.2593l-0.31373.31363h0.18408v0.90207h0.36819Z" fill="#f29600"/><path d="M28.97147,20.17178l0.08028,0.24364a1.48084,1.48084,0,0,1-.18131.03621c-0.03114.00518-.06231,0.00783-0.09345,0.01037a0.27418,0.27418,0,0,0-.0466.00264H28.637a0.27555,0.27555,0,0,0-.0466-0.00264c-0.03114-.00254-0.06228-0.00518-0.09343-0.01037a1.44626,1.44626,0,0,1-.179-0.03621l0.078-.24364c0.0466,0.01037.09319,0.01809,0.14256,0.02582a0.62445,0.62445,0,0,0,.07268.00518,0.66284,0.66284,0,0,0,.07242.00264,0.64281,0.64281,0,0,0,.07268-0.00264,0.62771,0.62771,0,0,0,.07266-0.00518C28.878,20.18988,28.92488,20.18215,28.97147,20.17178Z" fill="#fff"/><path d="M29.38374,18.98973a0.70448,0.70448,0,0,0-.38644-0.62728H28.99478a0.70284,0.70284,0,0,0-.62243,0H28.36981A0.70054,0.70054,0,1,0,29.38374,18.98973Zm-0.12713.858a1.06844,1.06844,0,0,1-.17877.09327,1.02207,1.02207,0,0,1-.19194.05962,0.995,0.995,0,0,1-.40441,0,1.02291,1.02291,0,0,1-.192-0.05962,1.19183,1.19183,0,0,1-.179-0.09327,0.94417,0.94417,0,0,1-.15548-0.12961,0.93121,0.93121,0,0,1-.12965-0.15556,1.16917,1.16917,0,0,1-.096-0.17886,0.99242,0.99242,0,0,1-.057-0.19441,0.84762,0.84762,0,0,1-.02077-0.1996,0.88467,0.88467,0,0,1,.02077-0.20227,0.99346,0.99346,0,0,1,.057-0.19441,1.17012,1.17012,0,0,1,.096-0.17883,1.0449,1.0449,0,0,1,.12965-0.15556,0.92954,0.92954,0,0,1,.15548-0.127,1.00141,1.00141,0,0,1,.179-0.09594,1.02482,1.02482,0,0,1,.192-0.05962,0.99619,0.99619,0,0,1,.40441,0,1.024,1.024,0,0,1,.19194.05962,0.91211,0.91211,0,0,1,.17877.09594,0.96486,0.96486,0,0,1,.28539.28252,1.04084,1.04084,0,0,1,.15548.37325,1.17919,1.17919,0,0,1,.01571.13228,0.64969,0.64969,0,0,1,.00252.07v0.02076l-0.00531.07a0.92531,0.92531,0,0,1-.01292.10885,1.04122,1.04122,0,0,1-.15548.37327,0.94128,0.94128,0,0,1-.12711.15556A1.08383,1.08383,0,0,1,29.2566,19.84776Z" fill="#3e3a39"/><path d="M28.22219,17.86465a1.2064,1.2064,0,0,0-.467.33706l-0.20993-.15291a1.5127,1.5127,0,0,1,.59634-0.43033Z" fill="#fff"/><path d="M27.75524,19.77775a1.25556,1.25556,0,0,0,.467.33693l-0.08054.24631a1.49514,1.49514,0,0,1-.59634-0.43287Z" fill="#fff"/><path d="M27.439,19.78029a1.54308,1.54308,0,0,1-.15548-0.33175,1.44439,1.44439,0,0,1-.07014-0.36806h0.25676a1.238,1.238,0,0,0,.179.54692Z" fill="#fff"/><path d="M27.28349,18.52825A1.52664,1.52664,0,0,1,27.439,18.199l0.21016,0.153a1.22669,1.22669,0,0,0-.179.54428H27.21335A1.4876,1.4876,0,0,1,27.28349,18.52825Z" fill="#fff"/><path d="M25.54079,19.09857c-0.00508.03634-.0076,0.07253-0.01268,0.10885l-0.25422-.05187c0.00506-.0414.01037-0.08292,0.01291-0.12442v-0.0414c0-.04153-0.00254-0.083-0.00531-0.12442l0.2517-.0519c0.00252,0.02849.0076,0.05962,0.0076,0.08811a0.2233,0.2233,0,0,1,.00277.04417c0,0.01545.00254,0.02846,0.00254,0.044,0,0.01809-.00254.03621-0.00254,0.05444S25.54079,19.08048,25.54079,19.09857Z" fill="#fff"/><path d="M25.24527,18.6838a1.14906,1.14906,0,0,0-.07268-0.21c-0.01011-.0233-0.02329-0.04407-0.03343-0.06734l0.21525-.14265a1.47534,1.47534,0,0,1,.11648.27226c0.0104,0.03113.02077,0.0648,0.02837,0.09594Z" fill="#fff"/><path d="M25.33618,19.74662l-0.21525-.14516a1.10119,1.10119,0,0,0,.09065-0.19441,0.36074,0.36074,0,0,0,.02331-0.07l0.25422,0.0519A1.55789,1.55789,0,0,1,25.33618,19.74662Z" fill="#fff"/><path d="M25.10016,19.04149l0.00254-.02582Z" fill="#231815"/><path d="M25.09765,19.08567l0.00251-.03113v0.01558Z" fill="#231815"/><path d="M25.22981,19.897a1.51974,1.51974,0,0,1-.275.27213l-0.14511-.21518a1.36984,1.36984,0,0,0,.20739-0.1996Z" fill="#fff"/><path d="M24.973,17.82579a1.53938,1.53938,0,0,1,.28007.28516l-0.21525.14252a1.24811,1.24811,0,0,0-.20739-0.21253Z" fill="#fff"/><path d="M24.4,17.81807l0.05191-.25149a1.48439,1.48439,0,0,1,.36821.15556l-0.14282.21251A1.31276,1.31276,0,0,0,24.4,17.81807Z" fill="#fff"/><path d="M24.44407,20.41542l-0.05191-.254a1.34518,1.34518,0,0,0,.20231-0.07263c0.02077-.01039.04154-0.0233,0.06205-0.03367l0.14282,0.21515a1.39118,1.39118,0,0,1-.26184.1166C24.50636,20.3972,24.47521,20.40757,24.44407,20.41542Z" fill="#fff"/><path d="M24.14069,20.20279a0.62628,0.62628,0,0,0,.07017-0.00518l0.05165,0.254c-0.03368.00264-.06483,0.00783-0.09573,0.00783-0.01569.00254-.03392,0.00254-0.04937,0.00518h-0.096c-0.01823-.00264-0.03368-0.00264-0.04914-0.00518-0.0314,0-.06228-0.00518-0.09623-0.00783l0.05217-.254a1.93169,1.93169,0,0,0,.13979.00783A0.64442,0.64442,0,0,0,24.14069,20.20279Z" fill="#fff"/><path d="M24.068,18.28979a0.6997,0.6997,0,0,1,.314.07266H24.12526L24.068,18.308l-0.05445.05444h-0.2565A0.69388,0.69388,0,0,1,24.068,18.28979Z" fill="#ab6a00"/><path d="M24.27034,17.53036l-0.05189.25136L24.146,17.774c-0.02609,0-.05217-0.00267-0.078-0.00267-0.02331,0-.04914.00267-0.075,0.00267l-0.07291.0077-0.05168-.25136c0.03368-.00518.06737-0.00785,0.09851-0.01037,0.018-.00267.03368-0.00267,0.05191-0.00518h0.10105c0.018,0.00251.03368,0.00251,0.05191,0.00518C24.20274,17.52251,24.23668,17.52518,24.27034,17.53036Z" fill="#fff"/><polygon points="24.125 18.362 24.439 18.676 24.252 18.676 24.252 19.578 23.884 19.578 23.884 18.676 23.7 18.676 24.014 18.362 24.068 18.308 24.125 18.362" fill="#824e00"/><path d="M24.43876,18.67608l-0.3135-.31363H24.382a0.70143,0.70143,0,1,1-.62495,0h0.2565l-0.31373.31363h0.18408v0.90207h0.36844V18.67608h0.18639Z" fill="#f29600"/><path d="M23.68691,17.56658l0.05191,0.25149a1.31015,1.31015,0,0,0-.27753.11657l-0.14256-.21251A1.48462,1.48462,0,0,1,23.68691,17.56658Z" fill="#fff"/><path d="M23.74642,20.16139l-0.04911.254a1.45756,1.45756,0,0,1-.275-0.10112,0.82911,0.82911,0,0,1-.0828-0.04407l0.14256-.21515a1.30362,1.30362,0,0,0,.19448.08554C23.69985,20.14835,23.72313,20.1562,23.74642,20.16139Z" fill="#fff"/><path d="M23.12425,19.75434a1.23575,1.23575,0,0,0,.20488.1996l-0.14537.21518A1.52017,1.52017,0,0,1,22.909,19.897Z" fill="#fff"/><path d="M23.30835,18.04094a1.24008,1.24008,0,0,0-.20765.21253l-0.215-.14252a1.46313,1.46313,0,0,1,.27981-0.28516Z" fill="#fff"/><path d="M24.771,18.98973a0.69938,0.69938,0,0,0-.70294-0.69994,0.69987,0.69987,0,1,0,0,1.39974A0.70111,0.70111,0,0,0,24.771,18.98973ZM24.068,20.02141a0.85446,0.85446,0,0,1-.19956-0.02076,0.98583,0.98583,0,0,1-.19448-0.05708,1.18189,1.18189,0,0,1-.179-0.09581,1.03771,1.03771,0,0,1-.15548-0.12709,1.09958,1.09958,0,0,1-.22308-0.33693,1.0491,1.0491,0,0,1-.05977-0.19187,1.09575,1.09575,0,0,1-.02077-0.20214,0.429,0.429,0,0,1,.00277-0.05962,1.33157,1.33157,0,0,1,.018-0.14265,1.04472,1.04472,0,0,1,.05977-0.19174,0.84655,0.84655,0,0,1,.096-0.17886,0.9115,0.9115,0,0,1,.12711-0.1582,1.04489,1.04489,0,0,1,.15548-0.127,1.18261,1.18261,0,0,1,.179-0.09594,1.21332,1.21332,0,0,1,.19448-0.05962A1.0252,1.0252,0,0,1,24.068,17.958a1.03564,1.03564,0,0,1,.20231.01809,1.04722,1.04722,0,0,1,.37353.15556,1.05693,1.05693,0,0,1,.15548.127,1.09878,1.09878,0,0,1,.12965.1582,0.95606,0.95606,0,0,1,.0932.17886,1.01,1.01,0,0,1,.05974.19174,0.88285,0.88285,0,0,1,.01823.14265,0.468,0.468,0,0,1,.00254.05962v0.02595l-0.00254.02582v0.013l-0.00251.03113c-0.00532.044-.01063,0.07507-0.01572,0.1062a1.01416,1.01416,0,0,1-.05974.19187,1.04566,1.04566,0,0,1-.0932.17886,1.09772,1.09772,0,0,1-.12965.15807,1.04958,1.04958,0,0,1-.15548.12709,1.20615,1.20615,0,0,1-.17905.09581,0.98473,0.98473,0,0,1-.19448.05708A0.86378,0.86378,0,0,1,24.068,20.02141Z" fill="#3e3a39"/><path d="M22.78469,18.26384l0.21522,0.14265a0.99832,0.99832,0,0,0-.08557.20478,0.51735,0.51735,0,0,0-.02077.07253L22.63932,18.632a1.337,1.337,0,0,1,.10128-0.28A0.84563,0.84563,0,0,1,22.78469,18.26384Z" fill="#fff"/><path d="M22.90369,19.337a1.13712,1.13712,0,0,0,.08054.20227c0.01037,0.02063.02329,0.0414,0.03368,0.06216l-0.21525.14516a1.51932,1.51932,0,0,1-.153-0.36034Z" fill="#fff"/><path d="M22.852,19.03113c0.00254,0.0415.0076,0.083,0.01291,0.12442l-0.254.05187c-0.00532-.03632-0.01063-0.0725-0.01315-0.10885,0-.01809-0.00254-0.03632-0.00254-0.05441s-0.00254-.03634-0.00254-0.05444c0-.01558.00254-0.03113,0.00254-0.044a0.24331,0.24331,0,0,1,.00254-0.04417,0.49356,0.49356,0,0,1,.00783-0.08811l0.25147,0.04925c-0.00254.044-.00508,0.08554-0.00508,0.12707v0.0414Z" fill="#fff"/><polygon points="27.075 26.685 25.444 26.685 25.444 25.892 23.649 25.892 23.649 26.685 22.018 26.685 22.018 34.209 23.649 34.209 23.649 35.001 25.444 35.001 25.444 34.209 27.075 34.209 27.075 26.685" fill="#363636"/><rect x="23.95028" y="27.21177" width="1.19243" height="6.47054" fill="#3d3d3d"/><rect x="25.86212" y="27.77425" width="0.59863" height="0.91182" fill="#4c4948"/><rect x="25.86212" y="28.89238" width="0.59863" height="0.9118" fill="#4c4948"/><rect x="25.86212" y="30.01048" width="0.59863" height="0.91182" fill="#4c4948"/><rect x="25.86212" y="31.12888" width="0.59863" height="0.91182" fill="#4c4948"/><rect x="25.86212" y="32.24724" width="0.59863" height="0.91182" fill="#4c4948"/><rect x="22.5398" y="27.77425" width="0.59863" height="0.91182" fill="#4c4948"/><rect x="22.5398" y="28.89238" width="0.59863" height="0.9118" fill="#4c4948"/><rect x="22.5398" y="30.01048" width="0.59863" height="0.91182" fill="#4c4948"/><rect x="22.5398" y="31.12888" width="0.59863" height="0.91182" fill="#4c4948"/><rect x="22.5398" y="32.24724" width="0.59863" height="0.91182" fill="#4c4948"/><polygon points="21.101 24.922 21.101 26.685 21.802 26.685 21.802 25.406 27.237 25.406 27.237 26.685 27.937 26.685 27.937 24.922 21.101 24.922" fill="#363636"/><polygon points="21.101 35.972 21.101 34.209 21.802 34.209 21.802 35.488 27.237 35.488 27.237 34.209 27.937 34.209 27.937 35.972 21.101 35.972" fill="#363636"/><rect x="7.59722" y="12.10125" width="58.80225" height="23.88061" fill="none" stroke="#231815" stroke-width="0.19444"/><rect x="58.29091" y="14.17625" width="6.1734" height="19.83286" fill="#3d3a39"/><rect x="58.29091" y="14.17625" width="6.1734" height="19.83286" fill="#1f1f1f"/><rect x="58.64746" y="14.56759" width="5.46032" height="2.20386" fill="#1a1a1a"/><rect x="59.23747" y="15.10832" width="3.40537" height="1.12243" fill="#333"/><rect x="61.89382" y="15.41461" width="0.5115" height="0.50934" fill="#3e3a39"/><rect x="61.08451" y="15.41461" width="0.51176" height="0.50934" fill="#3e3a39"/><rect x="60.2757" y="15.41461" width="0.51152" height="0.50934" fill="#3e3a39"/><rect x="59.46639" y="15.41461" width="0.51179" height="0.50934" fill="#3e3a39"/><rect x="58.64746" y="16.96535" width="5.46032" height="2.20386" fill="#1a1a1a"/><rect x="59.23747" y="17.50608" width="3.40537" height="1.12243" fill="#333"/><rect x="61.89382" y="17.81237" width="0.5115" height="0.50934" fill="#3e3a39"/><rect x="61.08451" y="17.81237" width="0.51176" height="0.50934" fill="#3e3a39"/><rect x="60.2757" y="17.81237" width="0.51152" height="0.50934" fill="#3e3a39"/><rect x="59.46639" y="17.81237" width="0.51179" height="0.50934" fill="#3e3a39"/><rect x="58.64746" y="19.3631" width="5.46032" height="2.20386" fill="#1a1a1a"/><rect x="59.23747" y="19.90383" width="3.40537" height="1.12243" fill="#333"/><rect x="61.89382" y="20.21012" width="0.5115" height="0.50934" fill="#3e3a39"/><rect x="61.08451" y="20.21012" width="0.51176" height="0.50934" fill="#3e3a39"/><rect x="60.2757" y="20.21012" width="0.51152" height="0.50934" fill="#3e3a39"/><rect x="59.46639" y="20.21012" width="0.51179" height="0.50934" fill="#3e3a39"/><rect x="58.64746" y="21.76086" width="5.46032" height="2.20386" fill="#1a1a1a"/><rect x="59.23747" y="22.30159" width="3.40537" height="1.12243" fill="#333"/><rect x="61.89382" y="22.60788" width="0.5115" height="0.50934" fill="#3e3a39"/><rect x="61.08451" y="22.60788" width="0.51176" height="0.50934" fill="#3e3a39"/><rect x="60.2757" y="22.60788" width="0.51152" height="0.50934" fill="#3e3a39"/><rect x="59.46639" y="22.60788" width="0.51179" height="0.50934" fill="#3e3a39"/><rect x="58.64746" y="24.15862" width="5.46032" height="2.20386" fill="#1a1a1a"/><rect x="59.23747" y="24.69934" width="3.40537" height="1.12243" fill="#333"/><rect x="61.89382" y="25.00563" width="0.5115" height="0.50934" fill="#3e3a39"/><rect x="61.08451" y="25.00563" width="0.51176" height="0.50934" fill="#3e3a39"/><rect x="60.2757" y="25.00563" width="0.51152" height="0.50934" fill="#3e3a39"/><rect x="59.46639" y="25.00563" width="0.51179" height="0.50934" fill="#3e3a39"/><rect x="58.64746" y="26.55637" width="5.46032" height="2.20386" fill="#1a1a1a"/><rect x="59.23747" y="27.0971" width="3.40537" height="1.12243" fill="#333"/><rect x="61.89382" y="27.40339" width="0.5115" height="0.50934" fill="#3e3a39"/><rect x="61.08451" y="27.40339" width="0.51176" height="0.50934" fill="#3e3a39"/><rect x="60.2757" y="27.40339" width="0.51152" height="0.50934" fill="#3e3a39"/><rect x="59.46639" y="27.40339" width="0.51179" height="0.50934" fill="#3e3a39"/><rect x="58.64746" y="28.95413" width="5.46032" height="2.20386" fill="#1a1a1a"/><rect x="59.23747" y="29.49485" width="3.40537" height="1.12243" fill="#333"/><rect x="61.89382" y="29.80114" width="0.5115" height="0.50934" fill="#3e3a39"/><rect x="61.08451" y="29.80114" width="0.51176" height="0.50934" fill="#3e3a39"/><rect x="60.2757" y="29.80114" width="0.51152" height="0.50934" fill="#3e3a39"/><rect x="59.46639" y="29.80114" width="0.51179" height="0.50934" fill="#3e3a39"/><rect x="58.64746" y="31.35188" width="5.46032" height="2.20386" fill="#1a1a1a"/><rect x="59.23747" y="31.89261" width="3.40537" height="1.12243" fill="#333"/><rect x="61.89382" y="32.1989" width="0.5115" height="0.50934" fill="#3e3a39"/><rect x="61.08451" y="32.1989" width="0.51176" height="0.50934" fill="#3e3a39"/><rect x="60.2757" y="32.1989" width="0.51152" height="0.50934" fill="#3e3a39"/><rect x="59.46639" y="32.1989" width="0.51179" height="0.50934" fill="#3e3a39"/><rect x="63.86315" y="16.54034" width="0.60116" height="0.65463" fill="#1f1f1f"/><rect x="63.86315" y="18.93809" width="0.60116" height="0.65463" fill="#1f1f1f"/><rect x="63.86315" y="21.33585" width="0.60116" height="0.65463" fill="#1f1f1f"/><rect x="63.86315" y="23.7336" width="0.60116" height="0.65463" fill="#1f1f1f"/><rect x="63.86315" y="26.13136" width="0.60116" height="0.65463" fill="#1f1f1f"/><rect x="63.86315" y="28.52911" width="0.60116" height="0.65463" fill="#1f1f1f"/><rect x="63.86315" y="30.92687" width="0.60116" height="0.65463" fill="#1f1f1f"/><rect x="63.86315" y="33.32463" width="0.60116" height="0.68449" fill="#1f1f1f"/><rect x="63.86315" y="14.17625" width="0.60116" height="0.62095" fill="#1f1f1f"/><path d="M38.3983,13.12368a0.37218,0.37218,0,0,0-.2593-0.10757H27.44073a0.36695,0.36695,0,0,0-.36616.36653v1.51683a0.3661,0.3661,0,0,0,.36616.36656H38.139a0.36695,0.36695,0,0,0,.36616-0.36656V13.38264A0.36906,0.36906,0,0,0,38.3983,13.12368Z" fill="#fff"/><path d="M17.7246,19.27463V17.61554h1.66218a0.38737,0.38737,0,0,1,.14256.02862,0.40054,0.40054,0,0,1,.11674.07771,0.3691,0.3691,0,0,1,.10888.26176v0.92294a0.37674,0.37674,0,0,1-.02863.14252,0.36321,0.36321,0,0,1-.08025.1167,0.35936,0.35936,0,0,1-.11674.08025,0.38734,0.38734,0,0,1-.14256.02859H17.7246Z" fill="#fff"/><path d="M17.7246,21.54278h1.66218a0.38737,0.38737,0,0,1,.14256.02862,0.39546,0.39546,0,0,1,.11674.07771,0.369,0.369,0,0,1,.10888.26173v0.92271a0.37715,0.37715,0,0,1-.02863.14278,0.3917,0.3917,0,0,1-.197.197,0.38734,0.38734,0,0,1-.14256.02859H17.7246V21.54278Z" fill="#fff"/><path d="M17.7246,26.64953V24.99044h1.66218a0.38707,0.38707,0,0,1,.14256.02836,0.39626,0.39626,0,0,1,.11674.078,0.36975,0.36975,0,0,1,.08025.119,0.378,0.378,0,0,1,.02863.14275v0.923a0.37553,0.37553,0,0,1-.02863.14226,0.3865,0.3865,0,0,1-.197.197,0.38766,0.38766,0,0,1-.14256.02885H17.7246Z" fill="#fff"/><path d="M17.7246,30.57625V28.91768h1.66218a0.38707,0.38707,0,0,1,.14256.02836,0.39621,0.39621,0,0,1,.11674.078,0.36972,0.36972,0,0,1,.08025.119,0.376,0.376,0,0,1,.02863.14275v0.92245a0.37615,0.37615,0,0,1-.02863.14278,0.39167,0.39167,0,0,1-.197.197,0.387,0.387,0,0,1-.14256.02833H17.7246Z" fill="#fff"/><path d="M31.63871,15.95938a0.37773,0.37773,0,0,0-.19956-0.1996,0.38034,0.38034,0,0,0-.1428-0.02848H21.167a0.37643,0.37643,0,0,0-.14028.02848,0.3811,0.3811,0,0,0-.12156.08036,0.36387,0.36387,0,0,0-.078.11924,0.37669,0.37669,0,0,0-.02834.14265v0.66359h2.29916c0.01392-.00607.0271-0.01392,0.041-0.01973a2.82207,2.82207,0,0,1,.45782-0.14026,2.64714,2.64714,0,0,1,.945,0,2.82136,2.82136,0,0,1,.45783.14026c0.01395,0.00581.0271,0.01366,0.04092,0.01973h2.68557c0.01392-.00607.0271-0.01392,0.041-0.01973a2.82207,2.82207,0,0,1,.45782-0.14026,2.64728,2.64728,0,0,1,.94505,0,2.82207,2.82207,0,0,1,.45782.14026c0.01392,0.00581.0271,0.01366,0.04089,0.01973h1.99832V16.09936A0.37356,0.37356,0,0,0,31.63871,15.95938Z" fill="#fff"/><polygon points="28.49 15.059 28.49 14.03 28.49 14.028 27.85 14.028 27.85 14.03 27.85 15.059 28.49 15.059" fill="#60605e"/><polygon points="30.329 15.059 30.329 14.03 30.329 14.028 29.689 14.028 29.689 14.03 29.689 15.059 30.329 15.059" fill="#60605e"/><polygon points="32.169 15.059 32.169 14.03 32.169 14.028 31.528 14.028 31.528 14.03 31.528 15.059 32.169 15.059" fill="#60605e"/><polygon points="34.008 15.059 34.008 14.03 34.008 14.028 33.368 14.028 33.368 14.03 33.368 15.059 34.008 15.059" fill="#60605e"/><polygon points="35.847 15.059 35.847 14.03 35.847 14.028 35.207 14.028 35.207 14.03 35.207 15.059 35.847 15.059" fill="#60605e"/><polygon points="37.687 15.059 37.687 14.03 37.687 14.028 37.046 14.028 37.046 14.03 37.046 15.059 37.687 15.059" fill="#60605e"/><path d="M55.295,14.92288H50.23887a0.36832,0.36832,0,0,0-.36743.36731v0.83766a0.36867,0.36867,0,0,0,.36743.36754H55.295a0.36867,0.36867,0,0,0,.36743-0.36754V15.29019A0.36832,0.36832,0,0,0,55.295,14.92288Zm0.2203,1.205a0.22042,0.22042,0,0,1-.2203.22023H50.23887a0.22044,0.22044,0,0,1-.22031-0.22023V15.29019a0.2205,0.2205,0,0,1,.22031-0.22049H55.295a0.22048,0.22048,0,0,1,.2203.22049v0.83766Z" fill="#fff"/><path d="M50.23887,15.17994h0.98656a0.11015,0.11015,0,0,1,.11015.11015v0.83758a0.11015,0.11015,0,0,1-.11015.11015H50.2387a0.11,0.11,0,0,1-.11-0.11V15.2901A0.11015,0.11015,0,0,1,50.23887,15.17994Z" fill="#fff"/><path d="M54.30844,15.18046h0.9865a0.11022,0.11022,0,0,1,.11022.11022v0.83749a0.11015,0.11015,0,0,1-.11015.11015H54.30827a0.11,0.11,0,0,1-.11-0.11V15.29061A0.11015,0.11015,0,0,1,54.30844,15.18046Z" fill="#fff"/><path d="M52.99141,15.1773h0.98648a0.11024,0.11024,0,0,1,.11024.11024V16.125a0.11015,0.11015,0,0,1-.11015.11015H52.99125a0.11,0.11,0,0,1-.11-0.11V15.28745a0.11015,0.11015,0,0,1,.11015-0.11015Z" fill="#fff"/><path d="M55.295,17.28823H50.23887a0.36832,0.36832,0,0,0-.36743.36731V18.4932a0.36867,0.36867,0,0,0,.36743.36754H55.295a0.36867,0.36867,0,0,0,.36743-0.36754V17.65554A0.36832,0.36832,0,0,0,55.295,17.28823Zm0.2203,1.205a0.22042,0.22042,0,0,1-.2203.22023H50.23887a0.22044,0.22044,0,0,1-.22031-0.22023V17.65554a0.2205,0.2205,0,0,1,.22031-0.22049H55.295a0.22048,0.22048,0,0,1,.2203.22049V18.4932Z" fill="#fff"/><path d="M50.23887,17.5453h0.98647a0.11024,0.11024,0,0,1,.11024.11024V18.493a0.11015,0.11015,0,0,1-.11015.11015H50.2387a0.11,0.11,0,0,1-.11-0.11V17.65545A0.11015,0.11015,0,0,1,50.23887,17.5453Z" fill="#fff"/><path d="M54.30844,17.54581h0.9865a0.11022,0.11022,0,0,1,.11022.11022v0.83749a0.11015,0.11015,0,0,1-.11015.11015H54.30827a0.11,0.11,0,0,1-.11-0.11V17.656A0.11015,0.11015,0,0,1,54.30844,17.54581Z" fill="#fff"/><path d="M52.99141,17.54265H53.978a0.11015,0.11015,0,0,1,.11015.11015v0.83756a0.11015,0.11015,0,0,1-.11015.11015H52.99125a0.11,0.11,0,0,1-.11-0.11V17.6528A0.11015,0.11015,0,0,1,52.99141,17.54265Z" fill="#fff"/><path d="M55.295,19.65358H50.23887a0.36832,0.36832,0,0,0-.36743.36731v0.83766a0.36867,0.36867,0,0,0,.36743.36754H55.295a0.36867,0.36867,0,0,0,.36743-0.36754V20.02089A0.36832,0.36832,0,0,0,55.295,19.65358Zm0.2203,1.205a0.22042,0.22042,0,0,1-.2203.22023H50.23887a0.22044,0.22044,0,0,1-.22031-0.22023V20.02089a0.2205,0.2205,0,0,1,.22031-0.22049H55.295a0.22048,0.22048,0,0,1,.2203.22049v0.83766Z" fill="#fff"/><path d="M50.23887,19.91065h0.98656a0.11015,0.11015,0,0,1,.11015.11015v0.83758a0.11015,0.11015,0,0,1-.11015.11015H50.2387a0.11,0.11,0,0,1-.11-0.11V20.0208A0.11015,0.11015,0,0,1,50.23887,19.91065Z" fill="#fff"/><path d="M54.30844,19.91117h0.9865a0.11022,0.11022,0,0,1,.11022.11022v0.83749a0.11015,0.11015,0,0,1-.11015.11015H54.30827a0.11,0.11,0,0,1-.11-0.11V20.02132A0.11015,0.11015,0,0,1,54.30844,19.91117Z" fill="#fff"/><path d="M52.99141,19.908h0.98648a0.11024,0.11024,0,0,1,.11024.11024v0.83747a0.11015,0.11015,0,0,1-.11015.11015H52.99125a0.11,0.11,0,0,1-.11-0.11V20.01816A0.11015,0.11015,0,0,1,52.99141,19.908Z" fill="#fff"/><path d="M55.295,22.01894H50.23887a0.36832,0.36832,0,0,0-.36743.36731v0.83766a0.36867,0.36867,0,0,0,.36743.36754H55.295a0.36867,0.36867,0,0,0,.36743-0.36754V22.38625A0.36832,0.36832,0,0,0,55.295,22.01894Zm0.2203,1.205a0.22042,0.22042,0,0,1-.2203.22023H50.23887a0.22044,0.22044,0,0,1-.22031-0.22023V22.38625a0.2205,0.2205,0,0,1,.22031-0.22049H55.295a0.22048,0.22048,0,0,1,.2203.22049v0.83766Z" fill="#fff"/><path d="M50.2387,22.276h0.98664a0.11024,0.11024,0,0,1,.11024.11024v0.83749a0.11015,0.11015,0,0,1-.11015.11015H50.2387a0.11,0.11,0,0,1-.11-0.11V22.386A0.11,0.11,0,0,1,50.2387,22.276Z" fill="#fff"/><path d="M54.30844,22.27652h0.9865a0.11022,0.11022,0,0,1,.11022.11022v0.83749a0.11015,0.11015,0,0,1-.11015.11015H54.30827a0.11,0.11,0,0,1-.11-0.11V22.38667A0.11015,0.11015,0,0,1,54.30844,22.27652Z" fill="#fff"/><path d="M52.99141,22.27336h0.98648a0.11024,0.11024,0,0,1,.11024.11024v0.83747a0.11015,0.11015,0,0,1-.11015.11015H52.99125a0.11,0.11,0,0,1-.11-0.11V22.38351A0.11015,0.11015,0,0,1,52.99141,22.27336Z" fill="#fff"/><path d="M55.295,24.38418H50.23887a0.36835,0.36835,0,0,0-.36743.36755v0.8374a0.36869,0.36869,0,0,0,.36743.36757H55.295a0.36869,0.36869,0,0,0,.36743-0.36757v-0.8374A0.36835,0.36835,0,0,0,55.295,24.38418Zm0.2203,1.20495a0.22042,0.22042,0,0,1-.2203.22023H50.23887a0.22044,0.22044,0,0,1-.22031-0.22023v-0.8374a0.22053,0.22053,0,0,1,.22031-0.22072H55.295a0.22051,0.22051,0,0,1,.2203.22072v0.8374Z" fill="#fff"/><path d="M50.23887,24.64136h0.98634a0.11037,0.11037,0,0,1,.11037.11037v0.83736a0.11015,0.11015,0,0,1-.11015.11015H50.23883a0.11012,0.11012,0,0,1-.11012-0.11012V24.75151A0.11015,0.11015,0,0,1,50.23887,24.64136Z" fill="#fff"/><path d="M54.30844,24.64187H55.295a0.11012,0.11012,0,0,1,.11012.11012v0.8376a0.11015,0.11015,0,0,1-.11015.11015H54.30814a0.10986,0.10986,0,0,1-.10986-0.10986V24.752A0.11015,0.11015,0,0,1,54.30844,24.64187Z" fill="#fff"/><path d="M52.99141,24.63884H53.978a0.11014,0.11014,0,0,1,.11014.11014v0.83734a0.11015,0.11015,0,0,1-.11015.11015H52.99112a0.10986,0.10986,0,0,1-.10986-0.10986V24.749A0.11015,0.11015,0,0,1,52.99141,24.63884Z" fill="#fff"/><path d="M55.295,26.74954H50.23887a0.36835,0.36835,0,0,0-.36743.36755v0.8374a0.36869,0.36869,0,0,0,.36743.36757H55.295a0.36869,0.36869,0,0,0,.36743-0.36757v-0.8374A0.36835,0.36835,0,0,0,55.295,26.74954Zm0.2203,1.20495a0.22042,0.22042,0,0,1-.2203.22023H50.23887a0.22044,0.22044,0,0,1-.22031-0.22023v-0.8374a0.22053,0.22053,0,0,1,.22031-0.22072H55.295a0.22051,0.22051,0,0,1,.2203.22072v0.8374Z" fill="#fff"/><path d="M50.23887,27.00671h0.98634a0.11037,0.11037,0,0,1,.11037.11037v0.83714a0.11037,0.11037,0,0,1-.11037.11037H50.23883a0.11012,0.11012,0,0,1-.11012-0.11012V27.11686A0.11015,0.11015,0,0,1,50.23887,27.00671Z" fill="#fff"/><path d="M54.30844,27.00723H55.295a0.11012,0.11012,0,0,1,.11012.11012v0.8376a0.11015,0.11015,0,0,1-.11015.11015H54.30814a0.10986,0.10986,0,0,1-.10986-0.10986V27.11738A0.11015,0.11015,0,0,1,54.30844,27.00723Z" fill="#fff"/><path d="M52.99112,27.00419H53.978a0.11014,0.11014,0,0,1,.11014.11014v0.83734a0.11015,0.11015,0,0,1-.11015.11015H52.99112a0.10986,0.10986,0,0,1-.10986-0.10986V27.11405A0.10986,0.10986,0,0,1,52.99112,27.00419Z" fill="#fff"/><path d="M55.295,29.11489H50.23887a0.36835,0.36835,0,0,0-.36743.36755v0.8374a0.36869,0.36869,0,0,0,.36743.36757H55.295a0.36869,0.36869,0,0,0,.36743-0.36757v-0.8374A0.36835,0.36835,0,0,0,55.295,29.11489Zm0.2203,1.20495a0.22042,0.22042,0,0,1-.2203.22023H50.23887a0.22044,0.22044,0,0,1-.22031-0.22023v-0.8374a0.22053,0.22053,0,0,1,.22031-0.22072H55.295a0.22051,0.22051,0,0,1,.2203.22072v0.8374Z" fill="#fff"/><path d="M50.23883,29.37206h0.9866a0.11015,0.11015,0,0,1,.11015.11015v0.83736a0.11037,0.11037,0,0,1-.11037.11037H50.23886a0.11015,0.11015,0,0,1-.11015-0.11015V29.48218A0.11012,0.11012,0,0,1,50.23883,29.37206Z" fill="#fff"/><path d="M54.30844,29.37258H55.295a0.11012,0.11012,0,0,1,.11012.11012v0.8376a0.11015,0.11015,0,0,1-.11015.11015H54.30814a0.10986,0.10986,0,0,1-.10986-0.10986V29.48273A0.11015,0.11015,0,0,1,54.30844,29.37258Z" fill="#fff"/><path d="M52.99112,29.36955H53.978a0.11014,0.11014,0,0,1,.11014.11014V30.317a0.11015,0.11015,0,0,1-.11015.11015H52.99112a0.10986,0.10986,0,0,1-.10986-0.10986V29.4794A0.10986,0.10986,0,0,1,52.99112,29.36955Z" fill="#fff"/><path d="M55.295,31.48024H50.23887a0.36835,0.36835,0,0,0-.36743.36755v0.8374a0.36869,0.36869,0,0,0,.36743.36757H55.295a0.36869,0.36869,0,0,0,.36743-0.36757v-0.8374A0.36835,0.36835,0,0,0,55.295,31.48024Zm0.2203,1.20495a0.22042,0.22042,0,0,1-.2203.22023H50.23887a0.22044,0.22044,0,0,1-.22031-0.22023v-0.8374a0.22053,0.22053,0,0,1,.22031-0.22072H55.295a0.22051,0.22051,0,0,1,.2203.22072v0.8374Z" fill="#fff"/><path d="M50.23887,31.73741h0.98634a0.11037,0.11037,0,0,1,.11037.11037v0.83736a0.11015,0.11015,0,0,1-.11015.11015H50.23883a0.11012,0.11012,0,0,1-.11012-0.11012V31.84757A0.11015,0.11015,0,0,1,50.23887,31.73741Z" fill="#fff"/><path d="M54.30844,31.73793H55.295a0.11012,0.11012,0,0,1,.11012.11012v0.8376a0.11015,0.11015,0,0,1-.11015.11015H54.30814a0.10986,0.10986,0,0,1-.10986-0.10986V31.84808A0.11015,0.11015,0,0,1,54.30844,31.73793Z" fill="#fff"/><path d="M52.99141,31.7349H53.978a0.11014,0.11014,0,0,1,.11014.11014v0.83734a0.11015,0.11015,0,0,1-.11015.11015H52.99141a0.11015,0.11015,0,0,1-.11015-0.11015V31.84505A0.11015,0.11015,0,0,1,52.99141,31.7349Z" fill="#fff"/><path d="M24.46749,23.38729H21.46956a0.37689,0.37689,0,0,0-.14028.02849,0.38107,0.38107,0,0,0-.12156.08038,0.36332,0.36332,0,0,0-.078.11921,0.37686,0.37686,0,0,0-.02834.14265v0.66362h3.36611V23.38729Z" fill="#fff"/><path d="M27.909,23.61538a0.378,0.378,0,0,0-.19956-0.1996,0.38078,0.38078,0,0,0-.1428-0.02849H24.57118v1.03435H27.9373V23.75538A0.37376,0.37376,0,0,0,27.909,23.61538Z" fill="#fff"/><rect x="28.53403" y="30.56741" width="2.65697" height="1.20494" fill="#fff"/><path d="M31.191,30.4469V29.61a0.38784,0.38784,0,0,0-.02837-0.14278,0.39413,0.39413,0,0,0-.197-0.19693,0.37589,0.37589,0,0,0-.14282-0.02836h-1.9206a0.37566,0.37566,0,0,0-.1428.02836,0.36607,0.36607,0,0,0-.119.08049A0.36487,0.36487,0,0,0,28.534,29.61V30.4469h2.657Z" fill="#fff"/><path d="M28.534,31.89284v0.83691a0.38769,0.38769,0,0,0,.02837.14275,0.394,0.394,0,0,0,.197.197,0.37616,0.37616,0,0,0,.1428.02836h1.9206a0.37639,0.37639,0,0,0,.14282-0.02836,0.36664,0.36664,0,0,0,.119-0.08049,0.365,0.365,0,0,0,.10637-0.25922V31.89284H28.534Z" fill="#fff"/></svg>