<svg xmlns="http://www.w3.org/2000/svg" width="74.063" height="48" viewBox="0 0 74.063 48"><title>cc-link_ie_rio_wpcn</title><g style="isolation:isolate"><rect width="74.063" height="48" fill="#fff"/><rect width="74.063" height="48" fill="#fff"/><rect x="30.891" y="0.401" width="12.218" height="47.198" fill="#595757"/><circle cx="33.956" cy="5.707" r="2.484" fill="#d2e5f0"/><circle cx="33.956" cy="5.707" r="1.967" fill="#dcc245"/><circle cx="40.044" cy="5.707" r="2.459" fill="#c59b3b"/><circle cx="40.044" cy="5.707" r="2.124" fill="#3e3a39"/><circle cx="40.044" cy="5.707" r="1.85" fill="#c59b3b"/><path d="M40.044,4.171a1.533,1.533,0,0,0-.509,2.979V6.7h1.019V7.15A1.533,1.533,0,0,0,40.044,4.171Z" fill="#dcc245"/><path d="M33.956,4.171a1.533,1.533,0,0,0-.509,2.979V6.7h1.019V7.15A1.533,1.533,0,0,0,33.956,4.171Z" fill="#b58433"/><circle cx="40.044" cy="4.756" r="0.255" fill="#3d2700"/><circle cx="39.218" cy="5.236" r="0.255" transform="translate(15.249 36.716) rotate(-60.32)" fill="#3d2700"/><circle cx="39.226" cy="6.192" r="0.255" transform="translate(2.322 20.86) rotate(-30.646)" fill="#3d2700"/><circle cx="40.871" cy="5.236" r="0.255" transform="translate(2.769 20.925) rotate(-29.681)" fill="#3d2700"/><circle cx="33.956" cy="4.756" r="0.17" fill="#fff"/><circle cx="33.129" cy="5.236" r="0.17" fill="#fff"/><circle cx="33.138" cy="6.192" r="0.17" fill="#fff"/><circle cx="34.782" cy="5.236" r="0.17" fill="#fff"/><circle cx="34.774" cy="6.192" r="0.17" fill="#fff"/><circle cx="40.862" cy="6.192" r="0.255" transform="translate(14.706 38.191) rotate(-59.354)" fill="#3d2700"/><circle cx="40.458" cy="12.113" r="1.446" fill="#d2e5f0"/><circle cx="40.458" cy="12.113" r="1.139" fill="#3e3a39"/><circle cx="40.458" cy="12.113" r="0.841" fill="#4d4d4d"/><circle cx="40.458" cy="12.113" r="0.319" fill="#3e3a39"/><circle cx="33.542" cy="12.113" r="1.446" fill="#d2e5f0"/><circle cx="33.542" cy="12.113" r="1.139" fill="#3e3a39"/><circle cx="33.542" cy="12.113" r="0.841" fill="#4d4d4d"/><circle cx="33.542" cy="12.113" r="0.319" fill="#3e3a39"/><circle cx="40.458" cy="18.137" r="1.446" fill="#d2e5f0"/><circle cx="40.458" cy="18.137" r="1.139" fill="#3e3a39"/><circle cx="40.458" cy="18.137" r="0.841" fill="#4d4d4d"/><circle cx="40.458" cy="18.137" r="0.319" fill="#3e3a39"/><circle cx="33.542" cy="18.137" r="1.446" fill="#d2e5f0"/><circle cx="33.542" cy="18.137" r="1.139" fill="#3e3a39"/><circle cx="33.542" cy="18.137" r="0.841" fill="#4d4d4d"/><circle cx="33.542" cy="18.137" r="0.319" fill="#3e3a39"/><polygon points="33.632 11.501 33.725 11.272 33.359 11.272 33.452 11.501 33.452 12.023 32.825 12.023 32.825 12.203 33.452 12.203 33.452 12.83 33.632 12.83 33.632 12.203 34.259 12.203 34.259 12.023 33.632 12.023 33.632 11.501" fill="#3e3a39"/><polygon points="40.548 12.023 40.548 11.396 40.368 11.396 40.368 12.023 39.846 12.023 39.617 11.93 39.617 12.296 39.846 12.203 40.368 12.203 40.368 12.83 40.548 12.83 40.548 12.203 41.175 12.203 41.175 12.023 40.548 12.023" fill="#3e3a39"/><polygon points="40.548 17.42 40.368 17.42 40.368 18.047 39.846 18.047 39.617 17.954 39.617 18.32 39.846 18.227 40.368 18.227 40.368 18.854 40.548 18.854 40.548 18.227 41.175 18.227 41.175 18.047 40.548 18.047 40.548 17.42" fill="#3e3a39"/><polygon points="33.632 17.525 33.725 17.296 33.359 17.296 33.452 17.525 33.452 18.047 32.825 18.047 32.825 18.227 33.452 18.227 33.452 18.854 33.632 18.854 33.632 18.227 34.259 18.227 34.259 18.047 33.632 18.047 33.632 17.525" fill="#3e3a39"/><circle cx="33.542" cy="18.137" r="0.199" fill="#4d4d4d"/><circle cx="40.458" cy="24.075" r="1.446" fill="#d2e5f0"/><circle cx="40.458" cy="24.076" r="1.139" fill="#3e3a39"/><circle cx="40.458" cy="24.076" r="0.841" fill="#4d4d4d"/><circle cx="40.458" cy="24.076" r="0.319" fill="#3e3a39"/><circle cx="33.542" cy="24.076" r="1.446" fill="#d2e5f0"/><circle cx="33.542" cy="24.076" r="1.139" fill="#3e3a39"/><circle cx="33.542" cy="24.076" r="0.841" fill="#4d4d4d"/><circle cx="33.542" cy="24.076" r="0.319" fill="#3e3a39"/><polygon points="33.632 23.986 33.632 23.464 33.725 23.235 33.359 23.235 33.452 23.464 33.452 23.986 32.825 23.986 32.825 24.165 33.452 24.165 33.452 24.793 33.632 24.793 33.632 24.165 34.259 24.165 34.259 23.986 33.632 23.986" fill="#3e3a39"/><circle cx="33.542" cy="24.076" r="0.199" fill="#4d4d4d"/><circle cx="40.458" cy="29.968" r="1.446" fill="#d2e5f0"/><circle cx="40.458" cy="29.968" r="1.139" fill="#3e3a39"/><circle cx="40.458" cy="29.968" r="0.841" fill="#4d4d4d"/><circle cx="40.458" cy="29.968" r="0.319" fill="#3e3a39"/><circle cx="33.542" cy="29.968" r="1.446" fill="#d2e5f0"/><circle cx="33.542" cy="29.968" r="1.139" fill="#3e3a39"/><circle cx="33.542" cy="29.968" r="0.841" fill="#4d4d4d"/><circle cx="33.542" cy="29.968" r="0.319" fill="#3e3a39"/><polygon points="40.548 23.986 40.548 23.359 40.368 23.359 40.368 23.986 39.846 23.986 39.617 23.893 39.617 24.259 39.846 24.165 40.368 24.165 40.368 24.793 40.548 24.793 40.548 24.165 41.175 24.165 41.175 23.986 40.548 23.986" fill="#3e3a39"/><polygon points="40.548 29.878 40.548 29.251 40.368 29.251 40.368 29.878 39.846 29.878 39.617 29.785 39.617 30.151 39.846 30.058 40.368 30.058 40.368 30.685 40.548 30.685 40.548 30.058 41.175 30.058 41.175 29.878 40.548 29.878" fill="#3e3a39"/><polygon points="33.632 29.356 33.725 29.127 33.359 29.127 33.452 29.356 33.452 29.878 32.825 29.878 32.825 30.058 33.452 30.058 33.452 30.685 33.632 30.685 33.632 30.058 34.259 30.058 34.259 29.878 33.632 29.878 33.632 29.356" fill="#3e3a39"/><circle cx="33.542" cy="29.968" r="0.199" fill="#4d4d4d"/><circle cx="40.697" cy="43.431" r="1.446" fill="#d2e5f0"/><circle cx="40.697" cy="43.431" r="1.139" fill="#3e3a39"/><circle cx="40.697" cy="43.431" r="0.841" fill="#4d4d4d"/><circle cx="40.404" cy="42.903" r="0.127" transform="translate(-3.339 82.395) rotate(-88.794)" fill="#3e3a39"/><circle cx="40.166" cy="43.143" r="0.127" transform="translate(-16.569 27.148) rotate(-31.302)" fill="#3e3a39"/><circle cx="40.99" cy="42.903" r="0.127" transform="translate(-0.894 0.872) rotate(-1.206)" fill="#3e3a39"/><circle cx="41.229" cy="43.143" r="0.127" transform="matrix(0.52, -0.854, 0.854, 0.52, -17.055, 55.955)" fill="#3e3a39"/><circle cx="40.404" cy="43.959" r="0.127" transform="translate(-0.923 0.866) rotate(-1.215)" fill="#3e3a39"/><circle cx="40.166" cy="43.719" r="0.127" transform="translate(-18.057 55.323) rotate(-58.698)" fill="#3e3a39"/><circle cx="40.99" cy="43.959" r="0.127" transform="translate(-3.828 84.008) rotate(-88.785)" fill="#3e3a39"/><circle cx="41.229" cy="43.719" r="0.127" transform="translate(-16.713 27.784) rotate(-31.302)" fill="#3e3a39"/><polygon points="41.57 43.322 40.807 43.322 40.807 42.558 40.588 42.558 40.588 43.322 39.824 43.322 39.824 43.541 40.588 43.541 40.588 44.304 40.807 44.304 40.807 43.541 41.57 43.541 41.57 43.322" fill="#3e3a39"/><circle cx="33.302" cy="43.431" r="1.446" fill="#d2e5f0"/><circle cx="33.302" cy="43.431" r="1.139" fill="#3e3a39"/><circle cx="33.302" cy="43.431" r="0.841" fill="#4d4d4d"/><circle cx="33.596" cy="42.903" r="0.127" transform="translate(-0.895 0.716) rotate(-1.206)" fill="#3e3a39"/><circle cx="33.834" cy="43.143" r="0.127" transform="matrix(0.52, -0.854, 0.854, 0.52, -20.608, 49.637)" fill="#3e3a39"/><circle cx="33.01" cy="42.903" r="0.127" transform="translate(-10.578 75.002) rotate(-88.794)" fill="#3e3a39"/><circle cx="32.771" cy="43.143" r="0.127" transform="translate(-17.647 23.311) rotate(-31.307)" fill="#3e3a39"/><circle cx="33.596" cy="43.959" r="0.127" transform="translate(-11.066 76.616) rotate(-88.785)" fill="#3e3a39"/><circle cx="33.834" cy="43.719" r="0.127" transform="translate(-17.789 23.943) rotate(-31.302)" fill="#3e3a39"/><circle cx="33.01" cy="43.959" r="0.127" transform="translate(-0.924 0.71) rotate(-1.215)" fill="#3e3a39"/><circle cx="32.771" cy="43.719" r="0.127" transform="matrix(0.52, -0.854, 0.854, 0.52, -21.61, 49.001)" fill="#3e3a39"/><polygon points="34.176 43.322 33.412 43.322 33.412 42.558 33.193 42.558 33.193 43.322 32.429 43.322 32.429 43.541 33.193 43.541 33.193 44.304 33.412 44.304 33.412 43.541 34.176 43.541 34.176 43.322" fill="#3e3a39"/><rect x="30.891" y="9.721" width="12.218" height="0.153" fill="#3e3a39"/><rect x="30.891" y="40.895" width="12.218" height="0.153" fill="#3e3a39"/><rect x="30.891" y="33.99" width="12.218" height="0.153" fill="#3e3a39"/><rect x="30.891" y="14.712" width="1.082" height="0.675" fill="#2f2725"/><rect x="30.891" y="20.656" width="1.082" height="0.675" fill="#2f2725"/><rect x="30.891" y="26.599" width="1.082" height="0.676" fill="#2f2725"/><rect x="30.891" y="32.543" width="1.082" height="0.676" fill="#2f2725"/><rect x="42.028" y="14.712" width="1.082" height="0.675" fill="#2f2725"/><rect x="42.028" y="20.656" width="1.082" height="0.675" fill="#2f2725"/><rect x="42.028" y="26.599" width="1.082" height="0.676" fill="#2f2725"/><rect x="42.028" y="32.543" width="1.082" height="0.676" fill="#2f2725"/><path d="M38.919,35.514H35.081a0.668,0.668,0,0,0-.666.666v2.526a0.668,0.668,0,0,0,.666.666h0.332v0.891h0.263V39.373h0.7v0.891h0.263v-0.22h0.637v0.22h0.263V39.373h0.7v0.891H38.5V39.373h0.42a0.668,0.668,0,0,0,.666-0.666V36.181A0.668,0.668,0,0,0,38.919,35.514Z" fill="#494645"/><path d="M35.817,37.211a0.522,0.522,0,0,1-.084.044,0.48,0.48,0,0,1-.09.028,0.479,0.479,0,0,1-.19,0,0.483,0.483,0,0,1-.091-0.028,0.577,0.577,0,0,1-.084-0.044A0.444,0.444,0,0,1,35.2,37.15a0.451,0.451,0,0,1-.061-0.073,0.538,0.538,0,0,1-.045-0.084,0.474,0.474,0,0,1-.027-0.091,0.4,0.4,0,0,1-.01-0.094,0.415,0.415,0,0,1,.01-0.1,0.469,0.469,0,0,1,.027-0.092,0.575,0.575,0,0,1,.045-0.084,0.526,0.526,0,0,1,.061-0.073,0.476,0.476,0,0,1,.073-0.06,0.549,0.549,0,0,1,.084-0.045,0.478,0.478,0,0,1,.091-0.028,0.477,0.477,0,0,1,.281.028,0.5,0.5,0,0,1,.084.045,0.594,0.594,0,0,1,.075.06,0.541,0.541,0,0,1,.059.073,0.557,0.557,0,0,1,.045.084,0.587,0.587,0,0,1,.028.092,0.594,0.594,0,0,1,.007.062,0.274,0.274,0,0,1,0,.033v0.009l0,0.033c0,0.021,0,.037-0.006.052a0.6,0.6,0,0,1-.028.091,0.522,0.522,0,0,1-.045.084,0.461,0.461,0,0,1-.059.073A0.545,0.545,0,0,1,35.817,37.211Z" fill="#3e3a39"/><path d="M35.695,36.512a0.33,0.33,0,1,0,.183.295A0.327,0.327,0,0,0,35.695,36.512Zm-0.061.147v0.425H35.46V36.659H35.373l0.148-.147,0.025-.026,0.027,0.026,0.148,0.147H35.634Z" fill="#784700"/><path d="M38.108,37.15a0.461,0.461,0,0,1-.06-0.073A0.522,0.522,0,0,1,38,36.992a0.592,0.592,0,0,1-.028-0.091c0-.015,0-0.031-0.006-0.052l0-.033V36.807a0.267,0.267,0,0,1,0-.033A0.434,0.434,0,0,1,38,36.619a0.557,0.557,0,0,1,.045-0.084,0.541,0.541,0,0,1,.06-0.073,0.591,0.591,0,0,1,.075-0.06,0.5,0.5,0,0,1,.084-0.045,0.477,0.477,0,0,1,.186-0.037,0.471,0.471,0,0,1,.1.01,0.478,0.478,0,0,1,.091.028,0.547,0.547,0,0,1,.084.045,0.476,0.476,0,0,1,.073.06,0.526,0.526,0,0,1,.061.073,0.575,0.575,0,0,1,.045.084,0.467,0.467,0,0,1,.027.092,0.415,0.415,0,0,1,.01.1,0.4,0.4,0,0,1-.01.094,0.471,0.471,0,0,1-.027.091,0.538,0.538,0,0,1-.045.084,0.451,0.451,0,0,1-.061.073,0.444,0.444,0,0,1-.073.061,0.575,0.575,0,0,1-.084.044,0.482,0.482,0,0,1-.091.028,0.479,0.479,0,0,1-.19,0,0.481,0.481,0,0,1-.09-0.028,0.523,0.523,0,0,1-.084-0.044A0.542,0.542,0,0,1,38.108,37.15Z" fill="#3e3a39"/><path d="M38.6,36.512a0.328,0.328,0,0,0-.294,0A0.33,0.33,0,1,0,38.6,36.512Zm-0.06.147v0.425H38.366V36.659H38.278l0.148-.147,0.027-.026,0.025,0.026,0.148,0.147H38.54Z" fill="#784700"/><path d="M37,38.928h1.9a0.223,0.223,0,0,0,.222-0.222v-0.45H37v0.672Z" fill="#b3b3b3"/><path d="M36.951,37.534h-0.9l-0.013.01a0.955,0.955,0,0,1-.154.08,0.846,0.846,0,0,1-.165.052,0.867,0.867,0,0,1-.347,0,0.847,0.847,0,0,1-.165-0.052,1.045,1.045,0,0,1-.154-0.08l-0.012-.01H34.828v0.672h2.122V37.534Z" fill="#b3b3b3"/><path d="M39.123,38.207V37.534H38.958l-0.012.01a1.044,1.044,0,0,1-.154.08,0.848,0.848,0,0,1-.165.052,0.867,0.867,0,0,1-.347,0,0.848,0.848,0,0,1-.165-0.052,0.956,0.956,0,0,1-.154-0.08l-0.013-.01H37v0.672h2.122Z" fill="#b3b3b3"/><path d="M34.828,38.256v0.45a0.223,0.223,0,0,0,.222.222h1.9V38.256H34.828Z" fill="#b3b3b3"/><rect x="30.891" y="45.015" width="12.218" height="2.584" fill="#3e3a39"/><path d="M33.7,45.849H32.537a0.44,0.44,0,1,0,0,.881H33.7A0.44,0.44,0,1,0,33.7,45.849Z" fill="#fff"/><path d="M40.3,45.849h1.165a0.44,0.44,0,1,1,0,.881H40.3A0.44,0.44,0,1,1,40.3,45.849Z" fill="#fff"/><path d="M37.94,46.327a0.44,0.44,0,0,1,.44-0.44h1.165V45.558H34.576v0.329h1.165a0.44,0.44,0,1,1,0,.881H34.576V47.1h4.968V46.767H38.38A0.441,0.441,0,0,1,37.94,46.327Z" fill="#83939c"/><circle cx="35.753" cy="46.307" r="0.622" fill="#d2e5f0"/><path d="M35.888,46.307l0.087-.087a0.1,0.1,0,0,0-.135-0.135l-0.087.087-0.087-.086a0.1,0.1,0,0,0-.135.135l0.087,0.087-0.086.086a0.1,0.1,0,0,0,.135.135l0.087-.086,0.087,0.086a0.1,0.1,0,1,0,.135-0.135Z" fill="#727171"/><circle cx="38.247" cy="46.307" r="0.622" fill="#d2e5f0"/><path d="M38.112,46.307l-0.087-.087a0.1,0.1,0,0,1,.135-0.135l0.087,0.087,0.087-.086a0.1,0.1,0,0,1,.135.135l-0.087.087,0.086,0.086a0.1,0.1,0,0,1-.135.135l-0.087-.086-0.087.086a0.1,0.1,0,1,1-.135-0.135Z" fill="#727171"/><rect x="30.891" y="0.401" width="12.218" height="2.584" fill="#3e3a39"/><path d="M33.7,2.151H32.537a0.44,0.44,0,1,1,0-.881H33.7A0.44,0.44,0,1,1,33.7,2.151Z" fill="#fff"/><path d="M40.3,2.151h1.165a0.44,0.44,0,1,0,0-.881H40.3A0.44,0.44,0,1,0,40.3,2.151Z" fill="#fff"/><path d="M35.345,1.71a0.44,0.44,0,0,0,.44.44H36.95V2.479H31.982V2.151H33.7a0.44,0.44,0,1,0,0-.881H31.982V0.941H36.95V1.27H35.785A0.44,0.44,0,0,0,35.345,1.71Z" fill="#83939c"/><circle cx="35.753" cy="1.693" r="0.622" fill="#d2e5f0"/><path d="M35.888,1.693L35.975,1.78a0.1,0.1,0,0,1-.135.135l-0.087-.087-0.087.087a0.1,0.1,0,0,1-.135-0.135l0.087-.087-0.086-.086a0.1,0.1,0,0,1,.135-0.135l0.087,0.086,0.087-.086a0.1,0.1,0,1,1,.135.135Z" fill="#727171"/><rect x="30.891" y="0.401" width="12.218" height="47.198" fill="none" stroke="#000" stroke-width="0.294"/><circle cx="40.458" cy="24.076" r="0.199" fill="#4d4d4d"/><circle cx="40.458" cy="12.113" r="0.199" fill="#4d4d4d"/><circle cx="33.542" cy="12.113" r="0.199" fill="#4d4d4d"/><circle cx="40.458" cy="18.137" r="0.199" fill="#4d4d4d"/><circle cx="40.458" cy="29.968" r="0.199" fill="#4d4d4d"/><path d="M42.406,8.257a0.223,0.223,0,0,1,.222.222V9.37a0.223,0.223,0,0,1-.222.222H41.252A0.223,0.223,0,0,1,41.03,9.37V8.4a1.2,1.2,0,0,0,.252-0.148h1.123Z" fill="#fff"/><path d="M40.893,9.37V8.433a2.809,2.809,0,0,1-2.139-.176H37.143V9.37a0.223,0.223,0,0,0,.222.222h3.307A0.223,0.223,0,0,0,40.893,9.37Z" fill="#fff"/><path d="M38.51,12.113a1.98,1.98,0,0,1,.26-0.968V10.429H37.284a0.223,0.223,0,0,0-.222.222v2.924a0.223,0.223,0,0,0,.222.222H38.77V13.081A1.981,1.981,0,0,1,38.51,12.113Z" fill="#fff"/><path d="M37.826,10.54H37.284a0.111,0.111,0,0,0-.111.111v2.924a0.111,0.111,0,0,0,.111.111h0.542V10.54Z" fill="#bd2829"/><circle cx="41.503" cy="8.709" r="0.284" transform="translate(12.853 39.974) rotate(-59.349)" fill="#3e3a39"/><circle cx="38.247" cy="10.898" r="0.284" transform="matrix(0.51, -0.86, 0.86, 0.51, 9.375, 38.248)" fill="#3e3a39"/><circle cx="38.247" cy="13.328" r="0.284" transform="translate(-1.452 21.359) rotate(-30.648)" fill="#3e3a39"/><path d="M35.49,12.113a1.98,1.98,0,0,0-.26-0.968V10.429h1.486a0.223,0.223,0,0,1,.222.222v2.924a0.223,0.223,0,0,1-.222.222H35.23V13.081A1.981,1.981,0,0,0,35.49,12.113Z" fill="#fff"/><circle cx="35.753" cy="10.898" r="0.284" transform="translate(-0.561 19.747) rotate(-30.647)" fill="#3e3a39"/><circle cx="35.753" cy="13.328" r="0.284" transform="translate(6.061 37.293) rotate(-59.352)" fill="#3e3a39"/><path d="M38.51,18.137a1.981,1.981,0,0,1,.26-0.968V16.453H37.284a0.223,0.223,0,0,0-.222.222V19.6a0.223,0.223,0,0,0,.222.222H38.77V19.1A1.981,1.981,0,0,1,38.51,18.137Z" fill="#fff"/><path d="M37.826,16.564H37.284a0.111,0.111,0,0,0-.111.111V19.6a0.111,0.111,0,0,0,.111.111h0.542V16.564Z" fill="#bd2829"/><circle cx="38.247" cy="16.922" r="0.284" transform="translate(4.192 41.201) rotate(-59.352)" fill="#3e3a39"/><circle cx="38.247" cy="19.352" r="0.284" transform="translate(-4.523 22.2) rotate(-30.647)" fill="#3e3a39"/><path d="M35.49,18.137a1.981,1.981,0,0,0-.26-0.968V16.453h1.486a0.223,0.223,0,0,1,.222.222V19.6a0.223,0.223,0,0,1-.222.222H35.23V19.1A1.981,1.981,0,0,0,35.49,18.137Z" fill="#fff"/><circle cx="35.753" cy="16.922" r="0.284" transform="translate(-3.632 20.589) rotate(-30.648)" fill="#3e3a39"/><circle cx="35.753" cy="19.352" r="0.284" transform="translate(0.878 40.246) rotate(-59.353)" fill="#3e3a39"/><rect x="40.142" y="35.326" width="2.264" height="1.523" rx="0.222" ry="0.222" fill="#fff"/><circle cx="41.887" cy="36.355" r="0.284" transform="translate(-12.682 26.434) rotate(-30.651)" fill="#3e3a39"/><rect x="40.142" y="37.616" width="2.264" height="1.523" rx="0.222" ry="0.222" fill="#fff"/><circle cx="41.887" cy="38.644" r="0.284" transform="translate(-13.849 26.753) rotate(-30.651)" fill="#3e3a39"/><rect x="31.594" y="35.326" width="2.264" height="1.523" rx="0.222" ry="0.222" fill="#fff"/><circle cx="32.113" cy="36.355" r="0.284" transform="translate(-15.534 45.447) rotate(-59.349)" fill="#3e3a39"/><rect x="31.594" y="37.616" width="2.264" height="1.523" rx="0.222" ry="0.222" fill="#fff"/><circle cx="32.113" cy="38.644" r="0.284" transform="translate(-17.504 46.569) rotate(-59.349)" fill="#3e3a39"/><path d="M31.594,8.257a0.223,0.223,0,0,0-.222.222V9.37a0.223,0.223,0,0,0,.222.222h1.153A0.223,0.223,0,0,0,32.97,9.37V8.4a1.2,1.2,0,0,1-.252-0.148H31.594Z" fill="#fff"/><path d="M33.107,9.37V8.433a2.809,2.809,0,0,0,2.139-.176h1.612V9.37a0.223,0.223,0,0,1-.222.222H33.329A0.223,0.223,0,0,1,33.107,9.37Z" fill="#fff"/><circle cx="32.497" cy="8.709" r="0.284" transform="translate(0.1 17.784) rotate(-30.651)" fill="#3e3a39"/><rect x="31.973" y="14.181" width="3.33" height="1.737" fill="#fff"/><rect x="38.698" y="14.181" width="3.33" height="1.737" fill="#fff"/><rect x="31.973" y="20.125" width="3.33" height="1.737" fill="#fff"/><rect x="38.698" y="20.125" width="3.33" height="1.737" fill="#fff"/><rect x="31.973" y="26.069" width="3.33" height="1.737" fill="#fff"/><rect x="38.698" y="26.069" width="3.33" height="1.737" fill="#fff"/><rect x="31.973" y="32.013" width="3.33" height="1.737" fill="#fff"/><rect x="38.698" y="32.013" width="3.33" height="1.737" fill="#fff"/><path d="M39.011,41.277H37.784a0.223,0.223,0,0,0-.222.222v0.847a0.223,0.223,0,0,0,.222.222h1.227V41.277Z" fill="#fff"/><circle cx="38.323" cy="41.738" r="0.284" transform="translate(-15.924 25.369) rotate(-30.651)" fill="#3e3a39"/><path d="M39.011,43.227H37.784a0.223,0.223,0,0,0-.222.222V44.3a0.223,0.223,0,0,0,.222.222h1.227V43.227Z" fill="#fff"/><circle cx="38.323" cy="44.146" r="0.284" transform="translate(-17.152 25.705) rotate(-30.651)" fill="#3e3a39"/><path d="M34.988,41.277h1.227a0.223,0.223,0,0,1,.222.222v0.847a0.223,0.223,0,0,1-.222.222H34.988V41.277Z" fill="#fff"/><circle cx="35.676" cy="41.738" r="0.284" transform="translate(-18.418 51.152) rotate(-59.349)" fill="#3e3a39"/><path d="M34.988,43.227h1.227a0.223,0.223,0,0,1,.222.222V44.3a0.223,0.223,0,0,1-.222.222H34.988V43.227Z" fill="#fff"/><circle cx="35.676" cy="44.146" r="0.284" transform="matrix(0.51, -0.86, 0.86, 0.51, -20.49, 52.332)" fill="#3e3a39"/><path d="M38.51,24.075a1.98,1.98,0,0,1,.26-0.968V22.391H37.284a0.223,0.223,0,0,0-.222.222v2.924a0.223,0.223,0,0,0,.222.222H38.77V25.043A1.979,1.979,0,0,1,38.51,24.075Z" fill="#fff"/><path d="M37.826,22.5H37.284a0.111,0.111,0,0,0-.111.111v2.924a0.111,0.111,0,0,0,.111.111h0.542V22.5Z" fill="#bd2829"/><circle cx="38.247" cy="22.86" r="0.284" transform="translate(-0.917 44.112) rotate(-59.352)" fill="#3e3a39"/><circle cx="38.247" cy="25.291" r="0.284" transform="translate(-7.55 23.03) rotate(-30.648)" fill="#3e3a39"/><path d="M35.49,24.075a1.98,1.98,0,0,0-.26-0.968V22.391h1.486a0.223,0.223,0,0,1,.222.222v2.924a0.223,0.223,0,0,1-.222.222H35.23V25.043A1.979,1.979,0,0,0,35.49,24.075Z" fill="#fff"/><circle cx="35.753" cy="22.86" r="0.284" transform="translate(-6.659 21.418) rotate(-30.648)" fill="#3e3a39"/><circle cx="35.753" cy="25.291" r="0.284" transform="translate(-4.231 43.157) rotate(-59.352)" fill="#3e3a39"/><path d="M38.51,29.968A1.982,1.982,0,0,1,38.77,29V28.284H37.284a0.223,0.223,0,0,0-.222.222V31.43a0.222,0.222,0,0,0,.222.222H38.77V30.936A1.979,1.979,0,0,1,38.51,29.968Z" fill="#fff"/><path d="M37.826,28.4H37.284a0.111,0.111,0,0,0-.111.111V31.43a0.111,0.111,0,0,0,.111.111h0.542V28.4Z" fill="#bd2829"/><circle cx="38.247" cy="28.753" r="0.284" transform="translate(-5.986 47.001) rotate(-59.352)" fill="#3e3a39"/><circle cx="38.247" cy="31.184" r="0.284" transform="translate(-10.554 23.853) rotate(-30.648)" fill="#3e3a39"/><path d="M35.49,29.968A1.982,1.982,0,0,0,35.23,29V28.284h1.486a0.223,0.223,0,0,1,.222.222V31.43a0.222,0.222,0,0,1-.222.222H35.23V30.936A1.979,1.979,0,0,0,35.49,29.968Z" fill="#fff"/><circle cx="35.753" cy="28.753" r="0.284" transform="translate(-9.663 22.241) rotate(-30.648)" fill="#3e3a39"/><circle cx="35.753" cy="31.184" r="0.284" transform="translate(-9.3 46.046) rotate(-59.352)" fill="#3e3a39"/><rect x="35.616" y="39.253" width="0.82" height="0.402" fill="none" opacity="0.5" style="mix-blend-mode:screen"/><rect x="37.477" y="39.253" width="0.82" height="0.402" fill="none" opacity="0.5" style="mix-blend-mode:screen"/><path d="M38.919,35.514H35.081a0.668,0.668,0,0,0-.666.666v2.526a0.668,0.668,0,0,0,.666.666h0.332v0.614h1.224V39.373h0.637v0.614H38.5V39.373h0.42a0.668,0.668,0,0,0,.666-0.666V36.181A0.668,0.668,0,0,0,38.919,35.514Z" fill="none"/><circle cx="36.95" cy="36.287" r="0.622" fill="#d2e5f0"/><path d="M37.085,36.287l0.087-.087a0.1,0.1,0,0,0-.135-0.135l-0.087.087-0.087-.087a0.1,0.1,0,0,0-.135.135l0.087,0.087-0.086.086a0.1,0.1,0,0,0,.135.135l0.087-.086,0.087,0.086a0.1,0.1,0,1,0,.135-0.135Z" fill="#727171"/></g></svg>