<?xml version="1.0" encoding="utf-8"?>
<!-- Generator: Adobe Illustrator 22.1.0, SVG Export Plug-In . SVG Version: 6.00 Build 0)  -->
<svg version="1.1" xmlns="http://www.w3.org/2000/svg" xmlns:xlink="http://www.w3.org/1999/xlink" x="0px" y="0px" width="74px"
	 height="48px" viewBox="0 0 74 48" style="enable-background:new 0 0 74 48;" xml:space="preserve">
<style type="text/css">
	.st0{fill:#FFFFFF;}
	.st1{fill:#595959;}
	.st2{fill:#333333;}
	.st3{fill:#404040;}
	.st4{fill:#40B15D;}
	.st5{fill:#B98800;}
	.st6{fill:#E8AB00;}
	.st7{fill:#2B8846;}
	.st8{fill:#00340C;}
	.st9{fill:#66BA71;}
	.st10{fill:#9D7800;}
	.st11{fill:#E0B100;}
	.st12{fill:#C7000B;}
	.st13{fill:#262626;}
	.st14{fill:#1A1A1A;}
	.st15{fill:#0D0D0D;}
	.st16{clip-path:url(#SVGID_1_);fill:#BFBFBF;}
	.st17{clip-path:url(#SVGID_1_);fill:#1A1A1A;}
	.st18{clip-path:url(#SVGID_1_);fill:#808080;}
	.st19{clip-path:url(#SVGID_2_);fill:#BFBFBF;}
	.st20{clip-path:url(#SVGID_2_);fill:#1A1A1A;}
	.st21{clip-path:url(#SVGID_2_);fill:#808080;}
	.st22{fill:#32944D;}
	.st23{fill:#DEDEDE;}
	.st24{opacity:0.8;}
	.st25{fill:#B02A23;}
	.st26{fill:none;stroke:#231815;stroke-width:0.375;stroke-miterlimit:10;}
</style>
<g id="レイヤー_1">
</g>
<g id="レイヤー_3">
	<rect class="st0" width="74" height="48"/>
</g>
<g id="レイヤー_5">
	<g>
		<rect x="1" y="8.5" class="st1" width="72.1" height="30.3"/>
		<g>
			<path class="st2" d="M11.1,27.1v0.3c0,0.2,0.1,0.3,0.3,0.3h16.6l0.1-0.3H11.4C11.2,27.4,11.1,27.3,11.1,27.1z"/>
			<path class="st2" d="M72.4,9.3h-0.3c0.2,0,0.3,0.1,0.3,0.3v17.5c0,0.2-0.1,0.3-0.3,0.3H46.8l0.2,0.3h25.4c0.2,0,0.3-0.1,0.3-0.3
				V9.6C72.7,9.5,72.6,9.3,72.4,9.3z"/>
		</g>
		<path class="st3" d="M11.4,27.4h16.7v-3.8h18.7v3.8h25.4c0.2,0,0.3-0.1,0.3-0.3V9.6c0-0.2-0.1-0.3-0.3-0.3H11.4
			c-0.2,0-0.3,0.1-0.3,0.3v17.5C11.1,27.3,11.2,27.4,11.4,27.4z"/>
		<path class="st2" d="M17.5,31.4H1v0.6h16c0.3,0,0.5,0.2,0.5,0.5v6.4h0.6v-6.9C18.1,31.6,17.8,31.4,17.5,31.4z"/>
		<path class="st1" d="M17.5,38.8v-6.4c0-0.3-0.2-0.5-0.5-0.5H1v6.9H17.5z"/>
		<g>
			<g>
				<path class="st2" d="M46.9,27.4v-2.1v-0.1v-1.1c0-0.3-0.3-0.6-0.6-0.6H28.5c-0.3,0-0.6,0.3-0.6,0.6v1.1h0l0,2.2H27v0.3H28
					c0.1,0,0.3-0.1,0.3-0.3v-2.2v-0.1v-1c0-0.2,0.1-0.3,0.3-0.3h17.8c0.2,0,0.3,0.1,0.3,0.3v1.1v0.1v2.1c0,0.1,0.1,0.3,0.3,0.3h0.6
					v-0.3L46.9,27.4z"/>
			</g>
		</g>
		<rect x="44.8" y="28.8" class="st3" width="28.1" height="9.8"/>
		<path class="st3" d="M49.6,37.9h22.2c0.2,0,0.3-0.1,0.3-0.3v-8.4c0-0.2-0.1-0.3-0.3-0.3H49.6c-0.2,0-0.3,0.1-0.3,0.3v8.4
			C49.3,37.8,49.4,37.9,49.6,37.9z"/>
		<g>
			<g>
				<g>
					<rect x="51.9" y="29.2" class="st4" width="18" height="7.4"/>
					<rect x="51.9" y="36.5" class="st4" width="18" height="0.2"/>
					<rect x="51.9" y="29.2" class="st4" width="18" height="0.2"/>
				</g>
				<g>
					<g>
						<rect x="52.3" y="35" class="st5" width="1.6" height="1"/>
						<rect x="52.3" y="35.6" class="st6" width="1.6" height="0.2"/>
						<rect x="52.3" y="35.1" class="st6" width="1.6" height="0.2"/>
					</g>
					<g>
						<g>
							<rect x="52.3" y="29.7" class="st5" width="1.6" height="1"/>
							<rect x="52.3" y="30.4" class="st6" width="1.6" height="0.2"/>
							<rect x="52.3" y="29.9" class="st6" width="1.6" height="0.2"/>
						</g>
						<g>
							<path class="st7" d="M53.1,34.8c0.5,0,0.9-0.4,0.9-0.9c0-0.5-0.4-0.9-0.9-0.9c-0.5,0-0.9,0.4-0.9,0.9
								C52.2,34.4,52.6,34.8,53.1,34.8z"/>
							<path class="st8" d="M52.5,34.3c-0.1-0.1-0.2-0.3-0.2-0.5c0-0.2,0.1-0.4,0.2-0.5l1.1,0c0.1,0.1,0.2,0.3,0.2,0.5
								c0,0.2-0.1,0.4-0.2,0.5L52.5,34.3z"/>
						</g>
						<g>
							<path class="st7" d="M53.1,32.8c0.5,0,0.9-0.4,0.9-0.9c0-0.5-0.4-0.9-0.9-0.9c-0.5,0-0.9,0.4-0.9,0.9
								C52.2,32.4,52.6,32.8,53.1,32.8z"/>
							<path class="st8" d="M52.5,32.3c-0.1-0.1-0.2-0.3-0.2-0.5c0-0.2,0.1-0.4,0.2-0.5l1.1,0c0.1,0.1,0.2,0.3,0.2,0.5
								c0,0.2-0.1,0.4-0.2,0.5L52.5,32.3z"/>
						</g>
						<rect x="54" y="29.6" class="st9" width="0.3" height="1.6"/>
						<rect x="54" y="34.6" class="st9" width="0.3" height="1.6"/>
						<rect x="51.9" y="29.6" class="st9" width="0.3" height="1.6"/>
						<rect x="51.9" y="34.6" class="st9" width="0.3" height="1.6"/>
					</g>
					<g>
						<g>
							<rect x="54.3" y="29.7" class="st5" width="1.6" height="1"/>
							<rect x="54.3" y="30.4" class="st6" width="1.6" height="0.2"/>
							<rect x="54.3" y="29.9" class="st6" width="1.6" height="0.2"/>
						</g>
						<g>
							<path class="st7" d="M55.1,34.8c0.5,0,0.9-0.4,0.9-0.9c0-0.5-0.4-0.9-0.9-0.9c-0.5,0-0.9,0.4-0.9,0.9
								C54.1,34.4,54.6,34.8,55.1,34.8z"/>
							<path class="st8" d="M54.5,34.3c-0.1-0.1-0.2-0.3-0.2-0.5c0-0.2,0.1-0.4,0.2-0.5l1.1,0c0.1,0.1,0.2,0.3,0.2,0.5
								c0,0.2-0.1,0.4-0.2,0.5L54.5,34.3z"/>
						</g>
						<g>
							<path class="st7" d="M55.1,32.8c0.5,0,0.9-0.4,0.9-0.9c0-0.5-0.4-0.9-0.9-0.9c-0.5,0-0.9,0.4-0.9,0.9
								C54.1,32.4,54.6,32.8,55.1,32.8z"/>
							<path class="st8" d="M54.5,32.3c-0.1-0.1-0.2-0.3-0.2-0.5c0-0.2,0.1-0.4,0.2-0.5l1.1,0c0.1,0.1,0.2,0.3,0.2,0.5
								c0,0.2-0.1,0.4-0.2,0.5L54.5,32.3z"/>
						</g>
						<rect x="55.9" y="29.6" class="st9" width="0.3" height="1.6"/>
						<rect x="55.9" y="34.6" class="st9" width="0.3" height="1.6"/>
					</g>
					<g>
						<g>
							<rect x="56.2" y="29.7" class="st5" width="1.6" height="1"/>
							<rect x="56.2" y="30.4" class="st6" width="1.6" height="0.2"/>
							<rect x="56.2" y="29.9" class="st6" width="1.6" height="0.2"/>
						</g>
						<g>
							<path class="st7" d="M57,34.8c0.5,0,0.9-0.4,0.9-0.9c0-0.5-0.4-0.9-0.9-0.9c-0.5,0-0.9,0.4-0.9,0.9
								C56.1,34.4,56.5,34.8,57,34.8z"/>
							<path class="st8" d="M56.5,34.3c-0.1-0.1-0.2-0.3-0.2-0.5c0-0.2,0.1-0.4,0.2-0.5l1.1,0c0.1,0.1,0.2,0.3,0.2,0.5
								c0,0.2-0.1,0.4-0.2,0.5L56.5,34.3z"/>
						</g>
						<g>
							<path class="st7" d="M57,32.8c0.5,0,0.9-0.4,0.9-0.9c0-0.5-0.4-0.9-0.9-0.9c-0.5,0-0.9,0.4-0.9,0.9
								C56.1,32.4,56.5,32.8,57,32.8z"/>
							<path class="st8" d="M56.5,32.3c-0.1-0.1-0.2-0.3-0.2-0.5c0-0.2,0.1-0.4,0.2-0.5l1.1,0c0.1,0.1,0.2,0.3,0.2,0.5
								c0,0.2-0.1,0.4-0.2,0.5L56.5,32.3z"/>
						</g>
						<rect x="57.9" y="29.6" class="st9" width="0.3" height="1.6"/>
						<rect x="57.9" y="34.6" class="st9" width="0.3" height="1.6"/>
					</g>
					<g>
						<g>
							<rect x="58.2" y="29.7" class="st5" width="1.6" height="1"/>
							<rect x="58.2" y="30.4" class="st6" width="1.6" height="0.2"/>
							<rect x="58.2" y="29.9" class="st6" width="1.6" height="0.2"/>
						</g>
						<g>
							<path class="st7" d="M59,34.8c0.5,0,0.9-0.4,0.9-0.9c0-0.5-0.4-0.9-0.9-0.9c-0.5,0-0.9,0.4-0.9,0.9
								C58.1,34.4,58.5,34.8,59,34.8z"/>
							<path class="st8" d="M58.4,34.3c-0.1-0.1-0.2-0.3-0.2-0.5c0-0.2,0.1-0.4,0.2-0.5l1.1,0c0.1,0.1,0.2,0.3,0.2,0.5
								c0,0.2-0.1,0.4-0.2,0.5L58.4,34.3z"/>
						</g>
						<g>
							<path class="st7" d="M59,32.8c0.5,0,0.9-0.4,0.9-0.9c0-0.5-0.4-0.9-0.9-0.9c-0.5,0-0.9,0.4-0.9,0.9
								C58.1,32.4,58.5,32.8,59,32.8z"/>
							<path class="st8" d="M58.4,32.3c-0.1-0.1-0.2-0.3-0.2-0.5c0-0.2,0.1-0.4,0.2-0.5l1.1,0c0.1,0.1,0.2,0.3,0.2,0.5
								c0,0.2-0.1,0.4-0.2,0.5L58.4,32.3z"/>
						</g>
						<rect x="59.8" y="29.6" class="st9" width="0.3" height="1.6"/>
						<rect x="59.8" y="34.6" class="st9" width="0.3" height="1.6"/>
					</g>
					<g>
						<g>
							<rect x="60.1" y="29.7" class="st5" width="1.6" height="1"/>
							<rect x="60.1" y="30.4" class="st6" width="1.6" height="0.2"/>
							<rect x="60.1" y="29.9" class="st6" width="1.6" height="0.2"/>
						</g>
						<g>
							<path class="st7" d="M60.9,34.8c0.5,0,0.9-0.4,0.9-0.9c0-0.5-0.4-0.9-0.9-0.9c-0.5,0-0.9,0.4-0.9,0.9
								C60,34.4,60.4,34.8,60.9,34.8z"/>
							<path class="st8" d="M60.4,34.3c-0.1-0.1-0.2-0.3-0.2-0.5c0-0.2,0.1-0.4,0.2-0.5l1.1,0c0.1,0.1,0.2,0.3,0.2,0.5
								c0,0.2-0.1,0.4-0.2,0.5L60.4,34.3z"/>
						</g>
						<g>
							<path class="st7" d="M60.9,32.8c0.5,0,0.9-0.4,0.9-0.9c0-0.5-0.4-0.9-0.9-0.9c-0.5,0-0.9,0.4-0.9,0.9
								C60,32.4,60.4,32.8,60.9,32.8z"/>
							<path class="st8" d="M60.4,32.3c-0.1-0.1-0.2-0.3-0.2-0.5c0-0.2,0.1-0.4,0.2-0.5l1.1,0c0.1,0.1,0.2,0.3,0.2,0.5
								c0,0.2-0.1,0.4-0.2,0.5L60.4,32.3z"/>
						</g>
						<rect x="61.8" y="29.6" class="st9" width="0.3" height="1.6"/>
						<rect x="61.8" y="34.6" class="st9" width="0.3" height="1.6"/>
					</g>
					<g>
						<g>
							<rect x="62.1" y="29.7" class="st5" width="1.6" height="1"/>
							<rect x="62.1" y="30.4" class="st6" width="1.6" height="0.2"/>
							<rect x="62.1" y="29.9" class="st6" width="1.6" height="0.2"/>
						</g>
						<g>
							<path class="st7" d="M62.9,34.8c0.5,0,0.9-0.4,0.9-0.9c0-0.5-0.4-0.9-0.9-0.9c-0.5,0-0.9,0.4-0.9,0.9
								C62,34.4,62.4,34.8,62.9,34.8z"/>
							<path class="st8" d="M62.3,34.3c-0.1-0.1-0.2-0.3-0.2-0.5c0-0.2,0.1-0.4,0.2-0.5l1.1,0c0.1,0.1,0.2,0.3,0.2,0.5
								c0,0.2-0.1,0.4-0.2,0.5L62.3,34.3z"/>
						</g>
						<g>
							<path class="st7" d="M62.9,32.8c0.5,0,0.9-0.4,0.9-0.9c0-0.5-0.4-0.9-0.9-0.9c-0.5,0-0.9,0.4-0.9,0.9
								C62,32.4,62.4,32.8,62.9,32.8z"/>
							<path class="st8" d="M62.3,32.3c-0.1-0.1-0.2-0.3-0.2-0.5c0-0.2,0.1-0.4,0.2-0.5l1.1,0c0.1,0.1,0.2,0.3,0.2,0.5
								c0,0.2-0.1,0.4-0.2,0.5L62.3,32.3z"/>
						</g>
						<rect x="63.7" y="29.6" class="st9" width="0.3" height="1.6"/>
						<rect x="63.7" y="34.6" class="st9" width="0.3" height="1.6"/>
					</g>
					<g>
						<g>
							<rect x="64" y="29.7" class="st5" width="1.6" height="1"/>
							<rect x="64.1" y="30.4" class="st6" width="1.6" height="0.2"/>
							<rect x="64.1" y="29.9" class="st6" width="1.6" height="0.2"/>
						</g>
						<g>
							<path class="st7" d="M64.8,34.8c0.5,0,0.9-0.4,0.9-0.9c0-0.5-0.4-0.9-0.9-0.9c-0.5,0-0.9,0.4-0.9,0.9
								C63.9,34.4,64.3,34.8,64.8,34.8z"/>
							<path class="st8" d="M64.3,34.3c-0.1-0.1-0.2-0.3-0.2-0.5c0-0.2,0.1-0.4,0.2-0.5l1.1,0c0.1,0.1,0.2,0.3,0.2,0.5
								c0,0.2-0.1,0.4-0.2,0.5L64.3,34.3z"/>
						</g>
						<g>
							<path class="st7" d="M64.8,32.8c0.5,0,0.9-0.4,0.9-0.9c0-0.5-0.4-0.9-0.9-0.9c-0.5,0-0.9,0.4-0.9,0.9
								C63.9,32.4,64.3,32.8,64.8,32.8z"/>
							<path class="st8" d="M64.3,32.3c-0.1-0.1-0.2-0.3-0.2-0.5c0-0.2,0.1-0.4,0.2-0.5l1.1,0c0.1,0.1,0.2,0.3,0.2,0.5
								c0,0.2-0.1,0.4-0.2,0.5L64.3,32.3z"/>
						</g>
						<rect x="65.7" y="29.6" class="st9" width="0.3" height="1.6"/>
						<rect x="65.7" y="34.6" class="st9" width="0.3" height="1.6"/>
					</g>
					<g>
						<g>
							<rect x="66" y="29.7" class="st5" width="1.6" height="1"/>
							<rect x="66" y="30.4" class="st6" width="1.6" height="0.2"/>
							<rect x="66" y="29.9" class="st6" width="1.6" height="0.2"/>
						</g>
						<g>
							<path class="st7" d="M66.8,34.8c0.5,0,0.9-0.4,0.9-0.9c0-0.5-0.4-0.9-0.9-0.9c-0.5,0-0.9,0.4-0.9,0.9
								C65.9,34.4,66.3,34.8,66.8,34.8z"/>
							<path class="st8" d="M66.2,34.3C66.1,34.2,66,34,66,33.9c0-0.2,0.1-0.4,0.2-0.5l1.1,0c0.1,0.1,0.2,0.3,0.2,0.5
								c0,0.2-0.1,0.4-0.2,0.5L66.2,34.3z"/>
						</g>
						<g>
							<path class="st7" d="M66.8,32.8c0.5,0,0.9-0.4,0.9-0.9c0-0.5-0.4-0.9-0.9-0.9c-0.5,0-0.9,0.4-0.9,0.9
								C65.9,32.4,66.3,32.8,66.8,32.8z"/>
							<path class="st8" d="M66.2,32.3C66.1,32.2,66,32,66,31.9c0-0.2,0.1-0.4,0.2-0.5l1.1,0c0.1,0.1,0.2,0.3,0.2,0.5
								c0,0.2-0.1,0.4-0.2,0.5L66.2,32.3z"/>
						</g>
						<rect x="67.6" y="29.6" class="st9" width="0.3" height="1.6"/>
						<rect x="67.6" y="34.6" class="st9" width="0.3" height="1.6"/>
					</g>
					<g>
						<g>
							<rect x="67.9" y="29.7" class="st5" width="1.6" height="1"/>
							<rect x="68" y="30.4" class="st6" width="1.6" height="0.2"/>
							<rect x="68" y="29.9" class="st6" width="1.6" height="0.2"/>
						</g>
						<g>
							<path class="st7" d="M68.7,34.8c0.5,0,0.9-0.4,0.9-0.9c0-0.5-0.4-0.9-0.9-0.9c-0.5,0-0.9,0.4-0.9,0.9
								C67.8,34.4,68.2,34.8,68.7,34.8z"/>
							<path class="st8" d="M68.2,34.3C68.1,34.2,68,34,68,33.9c0-0.2,0.1-0.4,0.2-0.5l1.1,0c0.1,0.1,0.2,0.3,0.2,0.5
								c0,0.2-0.1,0.4-0.2,0.5L68.2,34.3z"/>
						</g>
						<g>
							<path class="st7" d="M68.7,32.8c0.5,0,0.9-0.4,0.9-0.9c0-0.5-0.4-0.9-0.9-0.9c-0.5,0-0.9,0.4-0.9,0.9
								C67.8,32.4,68.2,32.8,68.7,32.8z"/>
							<path class="st8" d="M68.2,32.3C68.1,32.2,68,32,68,31.9c0-0.2,0.1-0.4,0.2-0.5l1.1,0c0.1,0.1,0.2,0.3,0.2,0.5
								c0,0.2-0.1,0.4-0.2,0.5L68.2,32.3z"/>
						</g>
					</g>
					<g>
						<rect x="69.6" y="29.6" class="st9" width="0.4" height="1.6"/>
						<rect x="69.6" y="34.6" class="st9" width="0.4" height="1.6"/>
					</g>
					<g>
						<g>
							<rect x="54.3" y="35" class="st5" width="1.6" height="1"/>
							<rect x="54.3" y="35.6" class="st6" width="1.6" height="0.2"/>
							<rect x="54.3" y="35.1" class="st6" width="1.6" height="0.2"/>
						</g>
						<g>
							<rect x="56.2" y="35" class="st5" width="1.6" height="1"/>
							<rect x="56.2" y="35.6" class="st6" width="1.6" height="0.2"/>
							<rect x="56.2" y="35.1" class="st6" width="1.6" height="0.2"/>
						</g>
						<g>
							<rect x="58.2" y="35" class="st5" width="1.6" height="1"/>
							<rect x="58.2" y="35.6" class="st6" width="1.6" height="0.2"/>
							<rect x="58.2" y="35.1" class="st6" width="1.6" height="0.2"/>
						</g>
						<g>
							<rect x="60.1" y="35" class="st5" width="1.6" height="1"/>
							<rect x="60.1" y="35.6" class="st6" width="1.6" height="0.2"/>
							<rect x="60.1" y="35.1" class="st6" width="1.6" height="0.2"/>
						</g>
						<g>
							<rect x="62.1" y="35" class="st5" width="1.6" height="1"/>
							<rect x="62.1" y="35.6" class="st6" width="1.6" height="0.2"/>
							<rect x="62.1" y="35.1" class="st6" width="1.6" height="0.2"/>
						</g>
						<g>
							<rect x="64" y="35" class="st5" width="1.6" height="1"/>
							<rect x="64.1" y="35.6" class="st6" width="1.6" height="0.2"/>
							<rect x="64.1" y="35.1" class="st6" width="1.6" height="0.2"/>
						</g>
						<g>
							<rect x="66" y="35" class="st5" width="1.6" height="1"/>
							<rect x="66" y="35.6" class="st6" width="1.6" height="0.2"/>
							<rect x="66" y="35.1" class="st6" width="1.6" height="0.2"/>
						</g>
						<g>
							<rect x="67.9" y="35" class="st5" width="1.6" height="1"/>
							<rect x="68" y="35.6" class="st6" width="1.6" height="0.2"/>
							<rect x="68" y="35.1" class="st6" width="1.6" height="0.2"/>
						</g>
					</g>
				</g>
			</g>
			<g>
				<rect x="70" y="30.7" class="st10" width="1.7" height="5.5"/>
				<rect x="70" y="30.7" class="st11" width="0.6" height="1.5"/>
				<rect x="71.1" y="30.7" class="st11" width="0.6" height="1.5"/>
				<rect x="70" y="32.2" class="st11" width="1.7" height="1.5"/>
			</g>
			<g>
				<rect x="50.2" y="30.7" class="st10" width="1.7" height="5.5"/>
				<rect x="50.2" y="30.7" class="st11" width="0.6" height="1.5"/>
				<rect x="51.3" y="30.7" class="st11" width="0.6" height="1.5"/>
				<rect x="50.2" y="32.2" class="st11" width="1.7" height="1.5"/>
			</g>
		</g>
		<rect x="24.5" y="9.3" class="st0" width="7" height="1.3"/>
		<path class="st0" d="M24.5,10.8v3.1h6.4c0.1,0,0.3-0.1,0.4-0.1c0.1-0.1,0.2-0.2,0.2-0.3v-2.6H24.5z"/>
		<rect x="22.8" y="12.2" width="0.9" height="1.4"/>
		<rect x="15.1" y="17.7" class="st12" width="16" height="0.3"/>
		<path class="st13" d="M58.7,17c0,0.3-0.3,0.6-0.6,0.6H33.4c-0.3,0-0.6-0.3-0.6-0.6v-4.7c0-0.3,0.3-0.6,0.6-0.6h24.7
			c0.3,0,0.6,0.3,0.6,0.6V17z"/>
		<g>
			<path class="st14" d="M58.7,16.1c0,0.3-0.3,0.6-0.6,0.6H33.4c-0.3,0-0.6-0.3-0.6-0.6v-3.8c0-0.3,0.3-0.6,0.6-0.6h24.7
				c0.3,0,0.6,0.3,0.6,0.6V16.1z"/>
		</g>
		<path class="st15" d="M58.1,15.6c0,0.3-0.2,0.5-0.5,0.5H33.9c-0.3,0-0.5-0.2-0.5-0.5v-2.8c0-0.3,0.2-0.5,0.5-0.5h23.7
			c0.3,0,0.5,0.2,0.5,0.5V15.6z"/>
		<rect x="43.4" y="12.8" class="st15" width="14.7" height="2.8"/>
		<rect x="42.6" y="12.3" class="st13" width="0.7" height="3.8"/>
		<rect x="44" y="13.3" width="0.7" height="2.1"/>
		<rect x="44" y="13.7" class="st13" width="0.7" height="1.1"/>
		<rect x="44" y="14.3" class="st3" width="0.7" height="0.5"/>
		<rect x="45.4" y="13.3" width="0.7" height="2.1"/>
		<rect x="45.4" y="13.7" class="st13" width="0.7" height="1.1"/>
		<rect x="45.4" y="14.3" class="st3" width="0.7" height="0.5"/>
		<rect x="46.9" y="13.3" width="0.7" height="2.1"/>
		<rect x="46.9" y="13.7" class="st13" width="0.7" height="1.1"/>
		<rect x="46.9" y="14.3" class="st3" width="0.7" height="0.5"/>
		<rect x="48.3" y="13.3" width="0.7" height="2.1"/>
		<rect x="48.3" y="13.7" class="st13" width="0.7" height="1.1"/>
		<rect x="48.3" y="14.3" class="st3" width="0.7" height="0.5"/>
		<rect x="49.7" y="13.3" width="0.7" height="2.1"/>
		<rect x="49.7" y="13.7" class="st13" width="0.7" height="1.1"/>
		<rect x="49.7" y="14.3" class="st3" width="0.7" height="0.5"/>
		<rect x="51.1" y="13.3" width="0.7" height="2.1"/>
		<rect x="51.1" y="13.7" class="st13" width="0.7" height="1.1"/>
		<rect x="51.1" y="14.3" class="st3" width="0.7" height="0.5"/>
		<rect x="52.5" y="13.3" width="0.7" height="2.1"/>
		<rect x="52.5" y="13.7" class="st13" width="0.7" height="1.1"/>
		<rect x="52.5" y="14.3" class="st3" width="0.7" height="0.5"/>
		<rect x="53.9" y="13.3" width="0.7" height="2.1"/>
		<rect x="53.9" y="13.7" class="st13" width="0.7" height="1.1"/>
		<rect x="53.9" y="14.3" class="st3" width="0.7" height="0.5"/>
		<rect x="55.3" y="13.3" width="0.7" height="2.1"/>
		<rect x="55.3" y="13.7" class="st13" width="0.7" height="1.1"/>
		<rect x="55.3" y="14.3" class="st3" width="0.7" height="0.5"/>
		<rect x="56.7" y="13.3" width="0.7" height="2.1"/>
		<rect x="56.7" y="13.7" class="st13" width="0.7" height="1.1"/>
		<rect x="56.7" y="14.3" class="st3" width="0.7" height="0.5"/>
		<path class="st3" d="M38.5,12.4h2.4c0.6,0,1.1,0.5,1.1,1.1V15c0,0.6-0.5,1.1-1.1,1.1h-2.4l0,0l0,0v0v-0.2c0-0.1,0-0.1-0.1-0.1
			c0,0,0,0,0,0h0v-2.8h0c0,0,0,0,0,0c0,0,0.1-0.1,0.1-0.1v-0.2L38.5,12.4L38.5,12.4L38.5,12.4z"/>
		<path class="st3" d="M35.1,12.4h2.4l0.1,0.1v0v0.2c0,0,0,0.1,0.1,0.1c0,0,0,0,0,0h0v2.8h0c0,0,0,0,0,0c0,0-0.1,0.1-0.1,0.1V16v0
			l0,0l0,0h-2.4c-0.6,0-1.1-0.5-1.1-1.1v-1.5C34,12.9,34.5,12.4,35.1,12.4z"/>
		<circle class="st14" cx="35.9" cy="14.3" r="1"/>
		<path class="st3" d="M36.8,14.3c0,0.5-0.4,0.9-0.9,0.9c-0.5,0-0.9-0.4-0.9-0.9c0-0.5,0.4-0.9,0.9-0.9
			C36.4,13.4,36.8,13.8,36.8,14.3z"/>
		<polygon class="st14" points="36,13.7 35.9,13.6 35.7,13.7 35.4,14 35.7,14 35.7,15 36,15 36,14 36.3,14 		"/>
		<circle class="st14" cx="40.1" cy="14.3" r="1"/>
		<path class="st3" d="M41.1,14.3c0,0.5-0.4,0.9-0.9,0.9c-0.5,0-0.9-0.4-0.9-0.9c0-0.5,0.4-0.9,0.9-0.9
			C40.7,13.4,41.1,13.8,41.1,14.3z"/>
		<polygon class="st14" points="40.3,13.7 40.1,13.6 40,13.7 39.7,14 40,14 40,15 40.3,15 40.3,14 40.6,14 		"/>
		<path class="st2" d="M24.9,23.5c0,0.2-0.1,0.3-0.3,0.3h-9.1c-0.2,0-0.3-0.1-0.3-0.3v-4.4c0-0.2,0.1-0.3,0.3-0.3h9.1
			c0.2,0,0.3,0.1,0.3,0.3V23.5z"/>
		<path class="st3" d="M24.6,23.3c0,0.1-0.1,0.2-0.2,0.2h-8.6c-0.1,0-0.2-0.1-0.2-0.2v-3.9c0-0.1,0.1-0.2,0.2-0.2h8.6
			c0.1,0,0.2,0.1,0.2,0.2V23.3z"/>
		<path d="M23.9,20.5c0,0.2-0.1,0.3-0.3,0.3h-7.2c-0.2,0-0.3-0.1-0.3-0.3v-0.6c0-0.2,0.1-0.3,0.3-0.3h7.2c0.2,0,0.3,0.1,0.3,0.3
			V20.5z"/>
		<path d="M23.9,22.7c0,0.2-0.1,0.3-0.3,0.3h-7.2c-0.2,0-0.3-0.1-0.3-0.3v-0.6c0-0.2,0.1-0.3,0.3-0.3h7.2c0.2,0,0.3,0.1,0.3,0.3
			V22.7z"/>
		<g>
			<g>
				<path class="st14" d="M41.9,34.6c0,0.2-0.1,0.3-0.3,0.3H25c-0.2,0-0.3-0.1-0.3-0.3v-0.6c0-0.2,0.1-0.3,0.3-0.3h16.6
					c0.2,0,0.3,0.1,0.3,0.3V34.6z"/>
				<path d="M32.5,34.6c0,0.2-0.1,0.3-0.3,0.3H25c-0.2,0-0.3-0.1-0.3-0.3v-0.6c0-0.2,0.1-0.3,0.3-0.3h7.2c0.2,0,0.3,0.1,0.3,0.3
					V34.6z"/>
				<path d="M42,34.6c0,0.2-0.1,0.3-0.3,0.3h-7.2c-0.2,0-0.3-0.1-0.3-0.3v-0.6c0-0.2,0.1-0.3,0.3-0.3h7.2c0.2,0,0.3,0.1,0.3,0.3
					V34.6z"/>
			</g>
			<g>
				<path class="st14" d="M41.9,32.4c0,0.2-0.1,0.3-0.3,0.3H25c-0.2,0-0.3-0.1-0.3-0.3v-0.6c0-0.2,0.1-0.3,0.3-0.3h16.6
					c0.2,0,0.3,0.1,0.3,0.3V32.4z"/>
				<path d="M32.5,32.4c0,0.2-0.1,0.3-0.3,0.3H25c-0.2,0-0.3-0.1-0.3-0.3v-0.6c0-0.2,0.1-0.3,0.3-0.3h7.2c0.2,0,0.3,0.1,0.3,0.3
					V32.4z"/>
				<path d="M42,32.4c0,0.2-0.1,0.3-0.3,0.3h-7.2c-0.2,0-0.3-0.1-0.3-0.3v-0.6c0-0.2,0.1-0.3,0.3-0.3h7.2c0.2,0,0.3,0.1,0.3,0.3
					V32.4z"/>
			</g>
			<g>
				<path class="st14" d="M41.9,30.2c0,0.2-0.1,0.3-0.3,0.3H25c-0.2,0-0.3-0.1-0.3-0.3v-0.6c0-0.2,0.1-0.3,0.3-0.3h16.6
					c0.2,0,0.3,0.1,0.3,0.3V30.2z"/>
				<path d="M32.5,30.2c0,0.2-0.1,0.3-0.3,0.3H25c-0.2,0-0.3-0.1-0.3-0.3v-0.6c0-0.2,0.1-0.3,0.3-0.3h7.2c0.2,0,0.3,0.1,0.3,0.3
					V30.2z"/>
				<path d="M42,30.2c0,0.2-0.1,0.3-0.3,0.3h-7.2c-0.2,0-0.3-0.1-0.3-0.3v-0.6c0-0.2,0.1-0.3,0.3-0.3h7.2c0.2,0,0.3,0.1,0.3,0.3
					V30.2z"/>
			</g>
			<g>
				<path class="st14" d="M46.1,27.4c0,0.2-0.1,0.3-0.3,0.3H29.2c-0.2,0-0.3-0.1-0.3-0.3v-0.6c0-0.2,0.1-0.3,0.3-0.3h16.6
					c0.2,0,0.3,0.1,0.3,0.3V27.4z"/>
				<path d="M36.7,27.4c0,0.2-0.1,0.3-0.3,0.3h-7.2c-0.2,0-0.3-0.1-0.3-0.3v-0.6c0-0.2,0.1-0.3,0.3-0.3h7.2c0.2,0,0.3,0.1,0.3,0.3
					V27.4z"/>
				<path d="M46.1,27.4c0,0.2-0.1,0.3-0.3,0.3h-7.2c-0.2,0-0.3-0.1-0.3-0.3v-0.6c0-0.2,0.1-0.3,0.3-0.3h7.2c0.2,0,0.3,0.1,0.3,0.3
					V27.4z"/>
			</g>
			<g>
				<path class="st14" d="M46.1,25.2c0,0.2-0.1,0.3-0.3,0.3H29.2c-0.2,0-0.3-0.1-0.3-0.3v-0.6c0-0.2,0.1-0.3,0.3-0.3h16.6
					c0.2,0,0.3,0.1,0.3,0.3V25.2z"/>
				<path d="M36.7,25.2c0,0.2-0.1,0.3-0.3,0.3h-7.2c-0.2,0-0.3-0.1-0.3-0.3v-0.6c0-0.2,0.1-0.3,0.3-0.3h7.2c0.2,0,0.3,0.1,0.3,0.3
					V25.2z"/>
				<path d="M46.1,25.2c0,0.2-0.1,0.3-0.3,0.3h-7.2c-0.2,0-0.3-0.1-0.3-0.3v-0.6c0-0.2,0.1-0.3,0.3-0.3h7.2c0.2,0,0.3,0.1,0.3,0.3
					V25.2z"/>
			</g>
		</g>
		<path class="st0" d="M48.5,17.9H33.4c-0.3,0-0.6,0.2-0.6,0.6v2.4c0,0.3,0.2,0.6,0.6,0.6h15.1c0.3,0,0.6-0.2,0.6-0.6v-2.4
			C49.1,18.1,48.8,17.9,48.5,17.9z M48.9,18.4V19h-5.8V18h5.4C48.7,18,48.9,18.2,48.9,18.4z M35.1,19.1h5.8v0.9h-5.8V19.1z
			 M34.9,20.1H33v-0.9h1.9V20.1z M43,20.1H41v-0.9H43V20.1z M43,19H41V18H43V19z M40.9,19h-5.8V18h5.8V19z M40.9,20.3v0.9h-5.8v-0.9
			H40.9z M41,20.3H43v0.9H41V20.3z M43.1,19.1h5.8v0.9h-5.8V19.1z M33.4,18h1.5V19H33v-0.6C33,18.2,33.2,18,33.4,18z M33,20.8v-0.6
			h1.9v0.9h-1.5C33.2,21.2,33,21,33,20.8z M48.5,21.2h-5.4v-0.9h5.8v0.6C48.9,21,48.8,21.2,48.5,21.2z"/>
		<rect x="67.1" y="18.9" class="st0" width="4.9" height="1.5"/>
		<rect x="67.3" y="19" class="st12" width="4.6" height="1.2"/>
		<rect x="35.1" y="10" class="st0" width="6" height="1.5"/>
		<g>
			<path class="st0" d="M32.9,10.6v0.9h2V10h-1.5C33.1,10,32.9,10.3,32.9,10.6z"/>
			<path class="st0" d="M42.4,10h-1.1v1.5h1.7v-0.9C42.9,10.3,42.7,10,42.4,10z"/>
		</g>
		<path class="st0" d="M15.1,9.3v4.1c0,0.1,0.1,0.3,0.2,0.3c0.1,0.1,0.2,0.1,0.4,0.1h8.6V9.3H15.1z"/>
		<path class="st0" d="M66.1,17.9H49.9c-0.3,0-0.6,0.2-0.6,0.6v2.4c0,0.3,0.2,0.6,0.6,0.6h16.2c0.3,0,0.6-0.2,0.6-0.6v-2.4
			C66.6,18.1,66.4,17.9,66.1,17.9z M66.5,18.4V19h-4.8V18h4.4C66.3,18,66.5,18.2,66.5,18.4z M53.1,19.1h4.8v0.9h-4.8V19.1z
			 M51.1,20.1h-1.6v-0.9h1.6V20.1z M52.9,20.1h-1.6v-0.9h1.6V20.1z M61.5,20.1h-1.6v-0.9h1.6V20.1z M59.7,20.1h-1.6v-0.9h1.6V20.1z
			 M61.5,19h-3.4V18h3.4V19z M57.9,19h-4.8V18h4.8V19z M57.9,20.3v0.9h-4.8v-0.9H57.9z M52.9,20.3v0.9h-1.6v-0.9H52.9z M58.1,20.3
			h1.6v0.9h-1.6V20.3z M59.9,20.3h1.6v0.9h-1.6V20.3z M61.7,19.1h4.8v0.9h-4.8V19.1z M49.9,18h3V19h-3.4v-0.6
			C49.5,18.2,49.7,18,49.9,18z M49.5,20.8v-0.6h1.6v0.9h-1.2C49.7,21.2,49.5,21,49.5,20.8z M66.1,21.2h-4.4v-0.9h4.8v0.6
			C66.5,21,66.3,21.2,66.1,21.2z"/>
		<path class="st2" d="M45.1,28.4h27.9V29H45.6c-0.3,0-0.5,0.2-0.5,0.5v9.2h-0.5l0-9.7C44.5,28.7,44.8,28.4,45.1,28.4z"/>
		<path d="M10.5,19.7c0,0.3-0.3,0.6-0.6,0.6H2.7c-0.3,0-0.6-0.3-0.6-0.6v-8.4c0-0.3,0.3-0.6,0.6-0.6H10c0.3,0,0.6,0.3,0.6,0.6V19.7z
			"/>
		<g>
			<defs>
				<path id="SVGID_9_" d="M10.5,19.7c0,0.3-0.3,0.6-0.6,0.6H2.7c-0.3,0-0.6-0.3-0.6-0.6v-8.4c0-0.3,0.3-0.6,0.6-0.6H10
					c0.3,0,0.6,0.3,0.6,0.6V19.7z"/>
			</defs>
			<clipPath id="SVGID_1_">
				<use xlink:href="#SVGID_9_"  style="overflow:visible;"/>
			</clipPath>
			<polygon class="st16" points="3.2,11.1 3.2,14.4 3.7,14.4 3.7,16.5 3.2,16.5 3.2,19.9 10.9,19.9 10.9,11.1 			"/>
			<polygon class="st17" points="3.7,13.4 4.6,13.4 4.6,12.3 8.7,12.3 8.7,18.7 4.6,18.7 4.6,17.5 3.7,17.5 			"/>
			<path class="st18" d="M3.1,11v3.2v0.2h0.2h0.3h0.2v-0.2v-0.6h0.9v-1.2l3.9,0v6.2l-3.9,0v-1.2H3.9v-0.6v-0.2H3.6H3.3H3.1v0.2V20
				l7.9,0v-9L3.1,11z M10.8,19.8l-7.5,0v-3h0.3v0.6v0.2h0.2h0.6v1.2l4.4,0v-6.7l-4.4,0v1.2H3.9H3.6v0.2v0.6H3.3v-3l7.5,0V19.8z"/>
		</g>
		<path class="st3" d="M1.4,14c0,0.1-0.1,0.2-0.1,0.2v2.5c0,0.1,0,0.2,0.1,0.2l0.7,0.9v-4.8L1.4,14z"/>
		<path d="M10.5,30c0,0.3-0.3,0.6-0.6,0.6H2.7c-0.3,0-0.6-0.3-0.6-0.6v-8.4c0-0.3,0.3-0.6,0.6-0.6H10c0.3,0,0.6,0.3,0.6,0.6V30z"/>
		<g>
			<defs>
				<path id="SVGID_11_" d="M10.5,30c0,0.3-0.3,0.6-0.6,0.6H2.7c-0.3,0-0.6-0.3-0.6-0.6v-8.4c0-0.3,0.3-0.6,0.6-0.6H10
					c0.3,0,0.6,0.3,0.6,0.6V30z"/>
			</defs>
			<clipPath id="SVGID_2_">
				<use xlink:href="#SVGID_11_"  style="overflow:visible;"/>
			</clipPath>
			<polygon class="st19" points="3.2,21.5 3.2,24.8 3.7,24.8 3.7,26.9 3.2,26.9 3.2,30.2 10.9,30.2 10.9,21.5 			"/>
			<polygon class="st20" points="3.7,23.8 4.6,23.8 4.6,22.6 8.7,22.6 8.7,29.1 4.6,29.1 4.6,27.9 3.7,27.9 			"/>
			<path class="st21" d="M3.1,21.3v3.2v0.2h0.2h0.3h0.2v-0.2v-0.6h0.9v-1.2l3.9,0v6.2l-3.9,0v-1.2H3.9v-0.6v-0.2H3.6H3.3H3.1v0.2
				v3.2l7.9,0v-9L3.1,21.3z M10.8,30.1l-7.5,0v-3h0.3v0.6V28h0.2h0.6v1.2l4.4,0v-6.7l-4.4,0v1.2H3.9H3.6v0.2v0.6H3.3v-3l7.5,0V30.1z
				"/>
		</g>
		<path class="st3" d="M1.4,24.4c0,0.1-0.1,0.2-0.1,0.2v2.5c0,0.1,0,0.2,0.1,0.2l0.7,0.9v-4.8L1.4,24.4z"/>
		<rect x="5.6" y="32.2" class="st4" width="6.3" height="6.9"/>
		<rect x="3" y="33.7" class="st22" width="2.6" height="3.3"/>
		<rect x="12" y="33.7" class="st22" width="2.6" height="3.3"/>
		<g>
			<path class="st7" d="M7.6,37.3c-0.2-0.3-0.5-0.5-0.8-0.5c-0.4,0-0.7,0.2-0.8,0.5v1c0.2,0.3,0.5,0.5,0.8,0.5
				c0.4,0,0.7-0.2,0.8-0.5V37.3z"/>
			<path class="st8" d="M7.3,38.3c0.1-0.1,0.2-0.3,0.2-0.5c0-0.2-0.1-0.4-0.2-0.5H6.1c-0.1,0.1-0.2,0.3-0.2,0.5
				c0,0.2,0.1,0.4,0.2,0.5H7.3z"/>
		</g>
		<g>
			<path class="st7" d="M9.5,37.3C9.3,37,9,36.8,8.7,36.8c-0.4,0-0.7,0.2-0.8,0.5v1c0.2,0.3,0.5,0.5,0.8,0.5c0.4,0,0.7-0.2,0.8-0.5
				V37.3z"/>
			<path class="st8" d="M9.3,38.3c0.1-0.1,0.2-0.3,0.2-0.5c0-0.2-0.1-0.4-0.2-0.5H8.1c-0.1,0.1-0.2,0.3-0.2,0.5
				c0,0.2,0.1,0.4,0.2,0.5H9.3z"/>
		</g>
		<g>
			<path class="st7" d="M11.5,37.3c-0.2-0.3-0.5-0.5-0.8-0.5c-0.4,0-0.7,0.2-0.8,0.5v1c0.2,0.3,0.5,0.5,0.8,0.5
				c0.4,0,0.7-0.2,0.8-0.5V37.3z"/>
			<path class="st8" d="M11.2,38.3c0.1-0.1,0.2-0.3,0.2-0.5c0-0.2-0.1-0.4-0.2-0.5H10c-0.1,0.1-0.2,0.3-0.2,0.5
				c0,0.2,0.1,0.4,0.2,0.5H11.2z"/>
		</g>
		<g>
			<rect x="5.6" y="35.3" class="st9" width="0.4" height="1.3"/>
			<rect x="11.6" y="35.3" class="st9" width="0.4" height="1.3"/>
			<rect x="9.6" y="35.4" class="st9" width="0.4" height="1.3"/>
			<rect x="10" y="35.5" class="st5" width="1.6" height="1"/>
			<rect x="10" y="35.5" class="st6" width="1.5" height="0.3"/>
			<rect x="10" y="36.3" class="st6" width="1.5" height="0.3"/>
			<rect x="7.6" y="35.4" class="st9" width="0.4" height="1.3"/>
			<rect x="5.6" y="36.6" class="st9" width="0.4" height="0.3"/>
			<rect x="11.6" y="36.6" class="st9" width="0.4" height="0.3"/>
			<rect x="9.6" y="36.6" class="st9" width="0.4" height="0.3"/>
			<rect x="7.6" y="36.6" class="st9" width="0.4" height="0.3"/>
			<rect x="8" y="35.5" class="st5" width="1.6" height="1"/>
			<rect x="8" y="35.5" class="st6" width="1.5" height="0.3"/>
			<rect x="8" y="36.3" class="st6" width="1.5" height="0.3"/>
			<rect x="6" y="35.5" class="st5" width="1.6" height="1"/>
			<rect x="6" y="35.6" class="st6" width="1.5" height="0.3"/>
			<rect x="6" y="36.3" class="st6" width="1.5" height="0.3"/>
		</g>
		<g>
			<path class="st14" d="M4.3,34.3c0.6,0,1.1,0.5,1.1,1.1c0,0.6-0.5,1.1-1.1,1.1c-0.6,0-1.1-0.5-1.1-1.1C3.2,34.8,3.7,34.3,4.3,34.3
				z"/>
			<path class="st23" d="M4.3,34.3c0.6,0,1,0.5,1,1c0,0.6-0.5,1-1,1c-0.6,0-1-0.5-1-1C3.3,34.8,3.7,34.3,4.3,34.3z"/>
			<g>
				<path class="st2" d="M4.9,34.5L3.5,36c0.1,0.1,0.2,0.2,0.3,0.3l1.5-1.5C5.1,34.7,5,34.6,4.9,34.5z"/>
			</g>
		</g>
		<g>
			<path class="st14" d="M13.3,34.3c0.6,0,1.1,0.5,1.1,1.1c0,0.6-0.5,1.1-1.1,1.1c-0.6,0-1.1-0.5-1.1-1.1
				C12.2,34.8,12.7,34.3,13.3,34.3z"/>
			<path class="st23" d="M13.3,34.3c0.6,0,1,0.5,1,1c0,0.6-0.5,1-1,1c-0.6,0-1-0.5-1-1C12.3,34.8,12.7,34.3,13.3,34.3z"/>
			<g>
				<path class="st2" d="M13.9,34.5L12.4,36c0.1,0.1,0.2,0.2,0.3,0.3l1.5-1.5C14.1,34.7,14,34.6,13.9,34.5z"/>
			</g>
		</g>
		<g>
			<path class="st7" d="M6.9,32.5c-0.2,0-0.4,0.2-0.4,0.4h0v0.4h0.8v-0.4C7.3,32.7,7.1,32.5,6.9,32.5z"/>
			<path class="st8" d="M7.2,32.9c0-0.2-0.1-0.3-0.3-0.3c-0.2,0-0.3,0.1-0.3,0.3h0v0.3h0.6L7.2,32.9L7.2,32.9z"/>
			<path class="st7" d="M8.8,32.5c-0.2,0-0.4,0.2-0.4,0.4h0v0.4h0.8v-0.4C9.2,32.7,9,32.5,8.8,32.5z"/>
			<path class="st8" d="M9.1,32.9c0-0.2-0.1-0.3-0.3-0.3c-0.2,0-0.3,0.1-0.3,0.3h0v0.3h0.6L9.1,32.9L9.1,32.9z"/>
			<path class="st7" d="M10.8,32.5c-0.2,0-0.4,0.2-0.4,0.4h0v0.4h0.8v-0.4C11.2,32.7,11,32.5,10.8,32.5z"/>
			<path class="st8" d="M11,32.9c0-0.2-0.1-0.3-0.3-0.3c-0.2,0-0.3,0.1-0.3,0.3h0v0.3h0.6L11,32.9L11,32.9z"/>
		</g>
		<g>
			<rect x="16.1" y="12.2" width="0.9" height="1.4"/>
			<rect x="18.4" y="12.2" width="0.9" height="1.4"/>
			<rect x="20.6" y="12.2" width="0.9" height="1.4"/>
			<rect x="22.8" y="12.2" width="0.9" height="1.4"/>
			<rect x="25" y="12.2" width="0.9" height="1.4"/>
			<rect x="27.3" y="12.2" width="0.9" height="1.4"/>
			<rect x="29.5" y="12.2" width="0.9" height="1.4"/>
		</g>
		<g>
			<g class="st24">
				<g>
					<defs>
						<rect id="SVGID_13_" x="16.1" y="19.7" width="7.8" height="1.1"/>
					</defs>
					<clipPath id="SVGID_3_">
						<use xlink:href="#SVGID_13_"  style="overflow:visible;"/>
					</clipPath>
				</g>
			</g>
			<g class="st24">
				<g>
					<defs>
						<rect id="SVGID_15_" x="16.1" y="21.9" width="7.8" height="1.1"/>
					</defs>
					<clipPath id="SVGID_4_">
						<use xlink:href="#SVGID_15_"  style="overflow:visible;"/>
					</clipPath>
				</g>
			</g>
		</g>
		<g>
			<path class="st0" d="M47,10.6c-0.2,0-0.4,0.2-0.4,0.4v0.6h1.2v-1H47z"/>
			<path class="st0" d="M48.8,10.6H48v1h1.2V11C49.2,10.8,49,10.6,48.8,10.6z"/>
			<path class="st0" d="M49.9,10.6c-0.2,0-0.4,0.2-0.4,0.4v0.6h1.2v-1H49.9z"/>
			<path class="st0" d="M51.7,10.6h-0.8v1H52V11C52,10.8,51.9,10.6,51.7,10.6z"/>
			<path class="st0" d="M52.7,10.6c-0.2,0-0.4,0.2-0.4,0.4v0.6h1.2v-1H52.7z"/>
			<path class="st0" d="M54.5,10.6h-0.8v1h1.2V11C54.9,10.8,54.7,10.6,54.5,10.6z"/>
			<path class="st0" d="M57.7,11c0-0.2-0.2-0.4-0.4-0.4h-0.8v1h1.2V11z"/>
			<path class="st0" d="M55.5,10.6c-0.2,0-0.4,0.2-0.4,0.4v0.6h1.2v-1H55.5z"/>
		</g>
		<g>
			<g>
				<g>
					<path class="st0" d="M52.8,26.9c-0.2,0-0.4-0.2-0.4-0.4v-1h1.7v1c0,0.2-0.2,0.4-0.4,0.4L52.8,26.9z"/>
					<path class="st0" d="M53.8,27.1h-0.9c-0.3,0-0.6-0.3-0.6-0.6v-1.1h2.1v1.1C54.3,26.9,54.1,27.1,53.8,27.1z M52.6,25.8v0.8
						c0,0.1,0.1,0.2,0.2,0.2h0.9c0.1,0,0.2-0.1,0.2-0.2v-0.8H52.6z"/>
				</g>
				<g>
					<path class="st0" d="M54.1,24.1h-1.3c-0.2,0-0.4,0.2-0.4,0.4v1h1.7V24.1z"/>
					<path class="st0" d="M54.3,25.6h-2.1v-1.1c0-0.3,0.3-0.6,0.6-0.6h1.5V25.6z M52.6,25.2H54v-1h-1.2c-0.1,0-0.2,0.1-0.2,0.2V25.2
						z"/>
				</g>
				<g>
					<path class="st0" d="M56,24.4c0-0.2-0.2-0.4-0.4-0.4h-1.3v1.4l1.3,0c0.2,0,0.4-0.2,0.4-0.4V24.4z"/>
					<path class="st0" d="M55.6,25.6h-1.5v-1.7h1.5c0.3,0,0.6,0.3,0.6,0.6V25C56.2,25.3,56,25.6,55.6,25.6z M54.5,25.2h1.2
						c0.1,0,0.2-0.1,0.2-0.2v-0.6c0-0.1-0.1-0.2-0.2-0.2h-1.2V25.2z"/>
				</g>
			</g>
			<path class="st25" d="M55.6,24c0.2,0,0.4,0.2,0.4,0.4V25c0,0.2-0.2,0.4-0.4,0.4l-1.3,0V24H55.6"/>
			<path class="st25" d="M54.1,24h-1.3c-0.2,0-0.4,0.2-0.4,0.4v1h1.7V24z"/>
			<path class="st25" d="M54.1,25.6h-1.7v1c0,0.2,0.2,0.4,0.4,0.4l0.9,0c0.2,0,0.4-0.2,0.4-0.4V25.6z"/>
			<g>
				<path class="st0" d="M56.7,26.9c-0.2,0-0.4-0.2-0.4-0.4v-1h1.7v1c0,0.2-0.2,0.4-0.4,0.4L56.7,26.9z"/>
				<path class="st0" d="M57.7,27.1h-0.9c-0.3,0-0.6-0.3-0.6-0.6v-1.1h2.1v1.1C58.2,26.9,58,27.1,57.7,27.1z M56.5,25.8v0.8
					c0,0.1,0.1,0.2,0.2,0.2h0.9c0.1,0,0.2-0.1,0.2-0.2v-0.8H56.5z"/>
			</g>
			<g>
				<path class="st0" d="M58.1,24.1h-1.3c-0.2,0-0.4,0.2-0.4,0.4v1h1.7V24.1z"/>
				<path class="st0" d="M58.2,25.6h-2.1v-1.1c0-0.3,0.3-0.6,0.6-0.6h1.5V25.6z M56.5,25.2h1.4v-1h-1.2c-0.1,0-0.2,0.1-0.2,0.2V25.2
					z"/>
			</g>
			<g>
				<path class="st0" d="M59.9,24.4c0-0.2-0.2-0.4-0.4-0.4h-1.3v1.4l1.3,0c0.2,0,0.4-0.2,0.4-0.4V24.4z"/>
				<path class="st0" d="M59.6,25.6H58v-1.7h1.5c0.3,0,0.6,0.3,0.6,0.6V25C60.1,25.3,59.9,25.6,59.6,25.6z M58.4,25.2h1.2
					c0.1,0,0.2-0.1,0.2-0.2v-0.6c0-0.1-0.1-0.2-0.2-0.2h-1.2V25.2z"/>
			</g>
			<path class="st25" d="M59.6,24c0.2,0,0.4,0.2,0.4,0.4V25c0,0.2-0.2,0.4-0.4,0.4l-1.3,0V24H59.6"/>
			<path class="st25" d="M58.1,24h-1.3c-0.2,0-0.4,0.2-0.4,0.4v1h1.7V24z"/>
			<path class="st25" d="M58.1,25.6h-1.7v1c0,0.2,0.2,0.4,0.4,0.4l0.9,0c0.2,0,0.4-0.2,0.4-0.4V25.6z"/>
			<g>
				<path class="st0" d="M60.6,26.9c-0.2,0-0.4-0.2-0.4-0.4v-1H62v1c0,0.2-0.2,0.4-0.4,0.4L60.6,26.9z"/>
				<path class="st0" d="M61.6,27.1h-0.9c-0.3,0-0.6-0.3-0.6-0.6v-1.1h2.1v1.1C62.1,26.9,61.9,27.1,61.6,27.1z M60.4,25.8v0.8
					c0,0.1,0.1,0.2,0.2,0.2h0.9c0.1,0,0.2-0.1,0.2-0.2v-0.8H60.4z"/>
			</g>
			<g>
				<path class="st0" d="M62,24.1h-1.3c-0.2,0-0.4,0.2-0.4,0.4v1H62V24.1z"/>
				<path class="st0" d="M62.1,25.6h-2.1v-1.1c0-0.3,0.3-0.6,0.6-0.6h1.5V25.6z M60.4,25.2h1.4v-1h-1.2c-0.1,0-0.2,0.1-0.2,0.2V25.2
					z"/>
			</g>
			<g>
				<path class="st0" d="M63.9,24.4c0-0.2-0.2-0.4-0.4-0.4h-1.3v1.4l1.3,0c0.2,0,0.4-0.2,0.4-0.4V24.4z"/>
				<path class="st0" d="M63.5,25.6H62v-1.7h1.5c0.3,0,0.6,0.3,0.6,0.6V25C64,25.3,63.8,25.6,63.5,25.6z M62.3,25.2h1.2
					c0.1,0,0.2-0.1,0.2-0.2v-0.6c0-0.1-0.1-0.2-0.2-0.2h-1.2V25.2z"/>
			</g>
			<path class="st25" d="M63.5,24c0.2,0,0.4,0.2,0.4,0.4V25c0,0.2-0.2,0.4-0.4,0.4l-1.3,0V24H63.5"/>
			<path class="st25" d="M62,24h-1.3c-0.2,0-0.4,0.2-0.4,0.4v1H62V24z"/>
			<path class="st25" d="M62,25.6h-1.7v1c0,0.2,0.2,0.4,0.4,0.4l0.9,0c0.2,0,0.4-0.2,0.4-0.4V25.6z"/>
			<g>
				<path class="st0" d="M64.5,26.9c-0.2,0-0.4-0.2-0.4-0.4v-1h1.7v1c0,0.2-0.2,0.4-0.4,0.4L64.5,26.9z"/>
				<path class="st0" d="M65.5,27.1h-0.9c-0.3,0-0.6-0.3-0.6-0.6v-1.1H66v1.1C66,26.9,65.8,27.1,65.5,27.1z M64.3,25.8v0.8
					c0,0.1,0.1,0.2,0.2,0.2h0.9c0.1,0,0.2-0.1,0.2-0.2v-0.8H64.3z"/>
			</g>
			<g>
				<path class="st0" d="M65.9,24.1h-1.3c-0.2,0-0.4,0.2-0.4,0.4v1h1.7V24.1z"/>
				<path class="st0" d="M66,25.6H64v-1.1c0-0.3,0.3-0.6,0.6-0.6H66V25.6z M64.3,25.2h1.4v-1h-1.2c-0.1,0-0.2,0.1-0.2,0.2V25.2z"/>
			</g>
			<g>
				<path class="st0" d="M67.8,24.4c0-0.2-0.2-0.4-0.4-0.4H66v1.4l1.3,0c0.2,0,0.4-0.2,0.4-0.4V24.4z"/>
				<path class="st0" d="M67.4,25.6h-1.5v-1.7h1.5c0.3,0,0.6,0.3,0.6,0.6V25C67.9,25.3,67.7,25.6,67.4,25.6z M66.2,25.2h1.2
					c0.1,0,0.2-0.1,0.2-0.2v-0.6c0-0.1-0.1-0.2-0.2-0.2h-1.2V25.2z"/>
			</g>
			<path class="st25" d="M67.4,24c0.2,0,0.4,0.2,0.4,0.4V25c0,0.2-0.2,0.4-0.4,0.4l-1.3,0V24H67.4"/>
			<path class="st25" d="M65.9,24h-1.3c-0.2,0-0.4,0.2-0.4,0.4v1h1.7V24z"/>
			<path class="st25" d="M65.9,25.6h-1.7v1c0,0.2,0.2,0.4,0.4,0.4l0.9,0c0.2,0,0.4-0.2,0.4-0.4V25.6z"/>
		</g>
		<polygon class="st26" points="1,8.5 1,31.4 1,31.9 1,38.8 5.6,38.8 5.6,39.1 12,39.1 12,38.8 17.5,38.8 18.1,38.8 73.1,38.8 
			73.1,8.5 		"/>
	</g>
</g>
</svg>
