<svg xmlns="http://www.w3.org/2000/svg" width="74" height="48" viewBox="0 0 74 48"><title>cc-link_ie_rio_tb</title><rect width="74" height="48" fill="#fff"/><rect x="5.661" y="12.123" width="62.679" height="23.755" fill="#656464"/><line x1="29.311" y1="25.173" x2="67.466" y2="25.173" fill="none" stroke="#333" stroke-width="0.473"/><polygon points="29.478 20.788 29.478 21.626 29.838 21.626 29.838 22.883 29.478 22.883 29.478 23.386 29.838 23.386 29.838 24.643 29.478 24.643 29.478 25.173 29.311 25.173 29.311 21.039 28.438 21.039 28.438 20.788 29.478 20.788" fill="#333"/><polygon points="67.299 20.788 67.299 21.626 66.939 21.626 66.939 22.883 67.299 22.883 67.299 23.386 66.939 23.386 66.939 24.643 67.299 24.643 67.299 25.173 67.466 25.173 67.466 25.173 67.466 21.039 68.339 21.039 68.339 20.788 67.299 20.788" fill="#333"/><polygon points="15.844 35.481 18.878 35.481 18.878 22.282 25.529 22.282 25.529 35.481 28.437 35.481 28.437 21.039 17.985 21.039 17.985 12.123 15.844 12.123 15.844 35.481" fill="#717071"/><rect x="17.895" y="19.119" width="10.543" height="1.92" fill="#717071"/><polyline points="17.985 12.123 17.985 19.119 28.438 19.119 28.438 21.039" fill="none" stroke="#333" stroke-width="0.267"/><line x1="17.985" y1="19.119" x2="17.985" y2="21.039" fill="none" stroke="#333" stroke-width="0.267"/><polygon points="18.272 32.269 17.895 31.375 17.895 25.9 18.272 25.006 18.878 25.006 18.878 32.269 18.272 32.269" fill="#656464"/><rect x="21.774" y="25.006" width="3.242" height="7.263" fill="#656464"/><path d="M24.76,25.006V24.419l-0.213-.084V22.989a0.422,0.422,0,0,0-.421-0.424H22.37a0.567,0.567,0,0,0-.634.429v0.283a1.583,1.583,0,0,1-.821.681,0.593,0.593,0,0,0-.277.555v0.492h0.485V24.262h0.651v0.744" fill="#262626"/><rect x="18.878" y="25.006" width="2.244" height="7.263" fill="#404040"/><rect x="21.123" y="25.006" width="0.651" height="7.263" fill="#363636"/><polygon points="24.593 27.234 24.593 25.223 22.224 25.223 22.224 25.006 21.774 25.006 21.774 32.269 22.224 32.269 22.224 32.052 24.593 32.052 24.593 30.041 22.224 30.041 22.224 29.643 24.593 29.643 24.593 27.632 22.224 27.632 22.224 27.234 24.593 27.234" fill="#595757"/><rect x="22.716" y="27.953" width="1.358" height="1.369" fill="#1a1a1a"/><rect x="22.716" y="25.544" width="1.358" height="1.369" fill="#1a1a1a"/><rect x="22.716" y="30.363" width="1.358" height="1.369" fill="#1a1a1a"/><path d="M20.639,27.995a0.913,0.913,0,0,1,0,1.285,0.9,0.9,0,0,1-1.275,0,0.914,0.914,0,0,1,0-1.286A0.9,0.9,0,0,1,20.639,27.995Z" fill="#a3a3a3"/><path d="M20.535,29.367a0.667,0.667,0,0,0,.19-0.191L19.47,27.911a0.916,0.916,0,0,0-.1.086,0.956,0.956,0,0,0-.086.105Z" fill="#656464"/><path d="M20.639,25.583a0.913,0.913,0,0,1,0,1.285,0.9,0.9,0,0,1-1.275,0,0.914,0.914,0,0,1,0-1.286A0.9,0.9,0,0,1,20.639,25.583Z" fill="#a3a3a3"/><path d="M20.535,26.955a0.665,0.665,0,0,0,.19-0.191L19.47,25.5a0.913,0.913,0,0,0-.1.086,0.952,0.952,0,0,0-.086.105Z" fill="#656464"/><path d="M20.638,30.405a0.9,0.9,0,0,0-1.274,0,0.914,0.914,0,0,0,0,1.285,0.9,0.9,0,0,0,1.275,0A0.914,0.914,0,0,0,20.638,30.405Z" fill="#a3a3a3"/><path d="M23.781,23.155a0.914,0.914,0,0,1,0,1.285,0.9,0.9,0,0,1-1.275,0,0.915,0.915,0,0,1,0-1.286A0.9,0.9,0,0,1,23.781,23.155Z" fill="#a3a3a3"/><path d="M23.677,24.527a0.882,0.882,0,0,0,.1-0.086,0.9,0.9,0,0,0,.085-0.105l-1.254-1.265a0.916,0.916,0,0,0-.1.086,0.931,0.931,0,0,0-.086.105Z" fill="#656464"/><path d="M24.76,32.269v0.587l-0.213.084v1.346a0.422,0.422,0,0,1-.421.424H22.37a0.567,0.567,0,0,1-.634-0.429V34a1.583,1.583,0,0,0-.821-0.681,0.593,0.593,0,0,1-.277-0.555V32.269h0.485v0.744h0.651V32.269" fill="#262626"/><path d="M23.781,32.833a0.9,0.9,0,0,0-1.274,0,0.914,0.914,0,0,0,0,1.286,0.9,0.9,0,0,0,1.275,0A0.915,0.915,0,0,0,23.781,32.833Z" fill="#a3a3a3"/><path d="M22.42,32.939a0.925,0.925,0,0,1,.085-0.105,0.914,0.914,0,0,1,.1-0.086l1.254,1.265a0.949,0.949,0,0,1-.085.105,0.931,0.931,0,0,1-.1.086Z" fill="#656464"/><polygon points="28.434 35.877 28.438 21.039 29.311 21.039 29.311 25.173 67.466 25.173 67.466 21.039 68.338 21.039 68.339 35.877 28.434 35.877" fill="#565454" stroke="#231815" stroke-width="0.167" opacity="0.4"/><rect x="7.037" y="15.093" width="8.807" height="8.484" rx="0.473" ry="0.473" fill="#333"/><rect x="7.414" y="15.506" width="8.054" height="7.691" fill="#bfbfbf" stroke="#9e9e9f" stroke-width="0.173"/><polygon points="7.766 20.299 8.217 20.299 8.217 21.113 9.281 21.113 9.281 22.45 12.946 22.451 12.946 16.252 9.281 16.25 9.281 17.587 8.217 17.587 8.217 18.399 7.766 18.399 7.766 20.299" fill="#262626" stroke="gray" stroke-width="0.261"/><rect x="7.414" y="15.505" width="1.242" height="1.559" fill="#7dad2a" stroke="#9e9e9f" stroke-width="0.189"/><rect x="7.414" y="21.636" width="1.242" height="1.559" fill="#7dad2a" stroke="#9e9e9f" stroke-width="0.189"/><rect x="7.037" y="24.819" width="8.807" height="8.484" rx="0.473" ry="0.473" fill="#333"/><rect x="7.414" y="25.232" width="8.054" height="7.691" fill="#bfbfbf" stroke="#9e9e9f" stroke-width="0.173"/><polygon points="7.766 30.025 8.217 30.025 8.217 30.839 9.281 30.839 9.281 32.176 12.946 32.177 12.946 25.977 9.281 25.976 9.281 27.313 8.217 27.313 8.217 28.125 7.766 28.125 7.766 30.025" fill="#262626" stroke="gray" stroke-width="0.261"/><rect x="7.414" y="25.231" width="1.242" height="1.559" fill="#7dad2a" stroke="#9e9e9f" stroke-width="0.189"/><rect x="7.414" y="31.362" width="1.242" height="1.559" fill="#7dad2a" stroke="#9e9e9f" stroke-width="0.189"/><path d="M36.626,32.637V35.02H33.706a0.485,0.485,0,0,1-.183-0.037,0.479,0.479,0,0,1-.153-0.1,0.458,0.458,0,0,1-.1-0.151,0.493,0.493,0,0,1-.037-0.184V32.637h3.392Z" fill="#fff"/><path d="M36.626,31.205v1.287H33.234V31.681a0.633,0.633,0,0,0-.063-0.268,0.663,0.663,0,0,0-.163-0.208h3.618Z" fill="#fff"/><path d="M40.157,32.637v1.907a0.44,0.44,0,0,1-.036.184,0.461,0.461,0,0,1-.1.151,0.507,0.507,0,0,1-.149.1,0.517,0.517,0,0,1-.186.037H36.766V32.637h3.391Z" fill="#fff"/><path d="M40.157,32.492H36.766V31.205h2.919a0.511,0.511,0,0,1,.186.037,0.5,0.5,0,0,1,.149.1,0.46,0.46,0,0,1,.1.151,0.438,0.438,0,0,1,.036.184v0.811Z" fill="#fff"/><path d="M40.479,34.728a0.5,0.5,0,0,1-.036-0.184V32.637h3.392V35.02H40.915a0.484,0.484,0,0,1-.183-0.037A0.505,0.505,0,0,1,40.479,34.728Z" fill="#fff"/><path d="M43.834,31.205v1.287H40.443V31.681a0.633,0.633,0,0,0-.063-0.268,0.662,0.662,0,0,0-.163-0.208h3.618Z" fill="#fff"/><path d="M47.369,32.637v1.907a0.437,0.437,0,0,1-.04.184,0.46,0.46,0,0,1-.1.151,0.466,0.466,0,0,1-.15.1,0.516,0.516,0,0,1-.186.037H43.977V32.637h3.392Z" fill="#fff"/><path d="M47.369,32.492H43.977V31.205h2.916a0.51,0.51,0,0,1,.186.037,0.479,0.479,0,0,1,.249.255,0.436,0.436,0,0,1,.04.184v0.811Z" fill="#fff"/><path d="M47.688,34.728a0.49,0.49,0,0,1-.037-0.184V32.637h3.392V35.02H48.123a0.486,0.486,0,0,1-.183-0.037A0.5,0.5,0,0,1,47.688,34.728Z" fill="#fff"/><path d="M47.425,31.205h3.618v1.287H47.651V31.681a0.588,0.588,0,0,0-.063-0.268A0.619,0.619,0,0,0,47.425,31.205Z" fill="#fff"/><path d="M54.577,32.637v1.907a0.438,0.438,0,0,1-.04.184,0.461,0.461,0,0,1-.1.151,0.466,0.466,0,0,1-.15.1,0.516,0.516,0,0,1-.186.037H51.186V32.637h3.392Z" fill="#fff"/><path d="M54.577,32.492H51.186V31.205H54.1a0.51,0.51,0,0,1,.186.037,0.479,0.479,0,0,1,.249.255,0.437,0.437,0,0,1,.04.184v0.811Z" fill="#fff"/><path d="M54.9,34.728a0.491,0.491,0,0,1-.037-0.184V32.637h3.392V35.02H55.332a0.514,0.514,0,0,1-.183-0.037A0.507,0.507,0,0,1,54.9,34.728Z" fill="#fff"/><path d="M58.251,31.205v1.287H54.86V31.681a0.629,0.629,0,0,0-.06-0.268,0.672,0.672,0,0,0-.166-0.208h3.618Z" fill="#fff"/><path d="M61.786,32.637v1.907a0.5,0.5,0,0,1-.036.184,0.47,0.47,0,0,1-.1.151,0.462,0.462,0,0,1-.15.1,0.511,0.511,0,0,1-.183.037H58.395V32.637h3.391Z" fill="#fff"/><path d="M61.786,32.492H58.395V31.205h2.919a0.505,0.505,0,0,1,.183.037,0.456,0.456,0,0,1,.15.1,0.47,0.47,0,0,1,.1.151,0.5,0.5,0,0,1,.036.184v0.811Z" fill="#fff"/><path d="M65.391,32.637v1.907a0.49,0.49,0,0,1-.037.184,0.506,0.506,0,0,1-.253.255,0.514,0.514,0,0,1-.183.037H62.541a0.512,0.512,0,0,1-.183-0.037,0.506,0.506,0,0,1-.253-0.255,0.5,0.5,0,0,1-.036-0.184V32.637h3.322Z" fill="#fff"/><path d="M65.391,32.492H62.069V31.681a0.5,0.5,0,0,1,.036-0.184,0.47,0.47,0,0,1,.1-0.151,0.46,0.46,0,0,1,.15-0.1,0.506,0.506,0,0,1,.183-0.037h2.377a0.508,0.508,0,0,1,.183.037,0.459,0.459,0,0,1,.149.1,0.464,0.464,0,0,1,.1.151,0.489,0.489,0,0,1,.037.184v0.811Z" fill="#fff"/><path d="M60.3,30.769a0.5,0.5,0,0,1-.036-0.185V28.678h3.321v1.907a0.5,0.5,0,0,1-.036.185,0.479,0.479,0,0,1-.1.154,0.506,0.506,0,0,1-.149.1,0.482,0.482,0,0,1-.183.037H60.742a0.468,0.468,0,0,1-.336-0.138A0.538,0.538,0,0,1,60.3,30.769Z" fill="#fff"/><path d="M60.556,27.283a0.508,0.508,0,0,1,.186-0.037h2.374a0.482,0.482,0,0,1,.183.037,0.46,0.46,0,0,1,.149.1,0.465,0.465,0,0,1,.1.151,0.51,0.51,0,0,1,.036.185v0.811H60.267V27.722a0.511,0.511,0,0,1,.036-0.185,0.523,0.523,0,0,1,.1-0.151A0.458,0.458,0,0,1,60.556,27.283Z" fill="#fff"/><path d="M60.044,30.853a0.623,0.623,0,0,0,.166.208H56.592V28.678h3.392v1.907A0.631,0.631,0,0,0,60.044,30.853Z" fill="#fff"/><path d="M59.984,27.722v0.811H56.592V27.247h2.916a0.508,0.508,0,0,1,.186.037,0.507,0.507,0,0,1,.253.255A0.511,0.511,0,0,1,59.984,27.722Z" fill="#fff"/><path d="M53.094,30.769a0.491,0.491,0,0,1-.037-0.185V28.678h3.392v2.383H53.53a0.492,0.492,0,0,1-.183-0.037,0.512,0.512,0,0,1-.15-0.1A0.478,0.478,0,0,1,53.094,30.769Z" fill="#fff"/><path d="M53.53,27.247h2.919v1.287H53.058V27.722a0.5,0.5,0,0,1,.037-0.185,0.5,0.5,0,0,1,.253-0.255A0.492,0.492,0,0,1,53.53,27.247Z" fill="#fff"/><path d="M52.835,30.853a0.627,0.627,0,0,0,.166.208H49.384V28.678h3.392v1.907A0.63,0.63,0,0,0,52.835,30.853Z" fill="#fff"/><path d="M52.775,28.534H49.384V27.247H52.3a0.509,0.509,0,0,1,.186.037,0.461,0.461,0,0,1,.15.1,0.455,0.455,0,0,1,.1.151,0.449,0.449,0,0,1,.04.185v0.811Z" fill="#fff"/><path d="M45.886,30.769a0.491,0.491,0,0,1-.037-0.185V28.678h3.392v2.383H46.321a0.48,0.48,0,0,1-.183-0.037,0.508,0.508,0,0,1-.15-0.1A0.473,0.473,0,0,1,45.886,30.769Z" fill="#fff"/><path d="M46.321,27.247h2.919v1.287H45.849V27.722a0.5,0.5,0,0,1,.037-0.185,0.5,0.5,0,0,1,.253-0.255A0.48,0.48,0,0,1,46.321,27.247Z" fill="#fff"/><path d="M45.563,30.585a0.634,0.634,0,0,0,.063.268,0.626,0.626,0,0,0,.166.208H42.175V28.678h3.388v1.907Z" fill="#fff"/><path d="M45.563,27.722v0.811H42.175V27.247h2.916a0.511,0.511,0,0,1,.186.037,0.465,0.465,0,0,1,.15.1,0.456,0.456,0,0,1,.1.151A0.445,0.445,0,0,1,45.563,27.722Z" fill="#fff"/><path d="M38.677,30.769a0.5,0.5,0,0,1-.036-0.185V28.678h3.392v2.383H39.113a0.479,0.479,0,0,1-.183-0.037,0.469,0.469,0,0,1-.15-0.1A0.479,0.479,0,0,1,38.677,30.769Z" fill="#fff"/><path d="M38.78,27.387a0.429,0.429,0,0,1,.15-0.1,0.479,0.479,0,0,1,.183-0.037h2.919v1.287H38.64V27.722a0.51,0.51,0,0,1,.036-0.185A0.465,0.465,0,0,1,38.78,27.387Z" fill="#fff"/><path d="M38.418,30.853a0.664,0.664,0,0,0,.163.208H34.963V28.678h3.391v1.907A0.634,0.634,0,0,0,38.418,30.853Z" fill="#fff"/><path d="M38.354,27.722v0.811H34.963V27.247h2.919a0.468,0.468,0,0,1,.336.141,0.45,0.45,0,0,1,.1.151A0.445,0.445,0,0,1,38.354,27.722Z" fill="#fff"/><path d="M31.432,28.678h3.391v2.383H31.9a0.479,0.479,0,0,1-.183-0.037,0.524,0.524,0,0,1-.153-0.1,0.467,0.467,0,0,1-.1-0.154,0.435,0.435,0,0,1-.037-0.185V28.678Z" fill="#fff"/><path d="M31.9,27.247h2.919v1.287H31.432V27.722a0.446,0.446,0,0,1,.037-0.185,0.453,0.453,0,0,1,.1-0.151A0.468,0.468,0,0,1,31.9,27.247Z" fill="#fff"/><path d="M42.734,20.386a2.021,2.021,0,0,1-.2.429l-0.269-.2a1.619,1.619,0,0,0,.23-0.707h0.329A1.881,1.881,0,0,1,42.734,20.386Z" fill="#fff"/><path d="M42.734,19.2a1.938,1.938,0,0,1,.09.476H42.495a1.6,1.6,0,0,0-.23-0.7l0.269-.2A2,2,0,0,1,42.734,19.2Z" fill="#fff"/><path d="M42.255,19.91l0.007-.091a0.561,0.561,0,0,1,0,.077Z" fill="#231815"/><path d="M41.633,18.02a1.944,1.944,0,0,1,.765.556l-0.27.2a1.549,1.549,0,0,0-.6-0.436Z" fill="#fff"/><path d="M42.4,21.007a1.921,1.921,0,0,1-.765.56l-0.1-.319a1.585,1.585,0,0,0,.6-0.436Z" fill="#fff"/><path d="M41.008,18.982l-0.07-.07-0.07.07H40.539a0.894,0.894,0,0,1,.8,0H41.008Z" fill="#ab6a00"/><polygon points="41.175 19.387 41.175 20.554 40.702 20.554 40.702 19.387 40.466 19.387 40.869 18.982 40.938 18.911 41.008 18.982 41.411 19.387 41.175 19.387" fill="#824e00"/><path d="M41.178,17.9a1.869,1.869,0,0,1,.232.044l-0.1.319a1.6,1.6,0,0,0-.183-0.034l-0.093-.01c-0.03,0-.06,0-0.093,0s-0.063,0-.093,0l-0.093.01a1.583,1.583,0,0,0-.183.034l-0.1-.319A1.721,1.721,0,0,1,40.7,17.9c0.04-.007.08-0.01,0.12-0.013,0.02,0,.04,0,0.06,0H41c0.02,0,.04,0,0.06,0C41.1,17.892,41.138,17.9,41.178,17.9Z" fill="#fff"/><path d="M41.175,20.554V19.387h0.236l-0.4-.406h0.333a0.912,0.912,0,0,1,.5.811,0.9,0.9,0,1,1-1.8,0,0.912,0.912,0,0,1,.5-0.811h0.333l-0.4.406H40.7v1.166h0.472Z" fill="#f29600"/><path d="M41.308,21.322l0.1,0.315a1.883,1.883,0,0,1-.232.047c-0.04.007-.08,0.01-0.12,0.013a0.345,0.345,0,0,0-.06,0h-0.12a0.347,0.347,0,0,0-.06,0c-0.04,0-.08-0.007-0.12-0.013a1.839,1.839,0,0,1-.23-0.047l0.1-.315c0.06,0.013.119,0.023,0.183,0.033a0.793,0.793,0,0,0,.093.007,0.835,0.835,0,0,0,.093,0,0.809,0.809,0,0,0,.093,0,0.8,0.8,0,0,0,.093-0.007C41.188,21.345,41.248,21.335,41.308,21.322Z" fill="#fff"/><path d="M41.836,19.793a0.912,0.912,0,0,0-.5-0.811h0a0.894,0.894,0,0,0-.8,0h0a0.912,0.912,0,0,0-.5.811A0.9,0.9,0,1,0,41.836,19.793ZM41.673,20.9a1.366,1.366,0,0,1-.229.121,1.3,1.3,0,0,1-.246.077,1.265,1.265,0,0,1-.519,0,1.3,1.3,0,0,1-.246-0.077A1.524,1.524,0,0,1,40.2,20.9a1.442,1.442,0,0,1-.366-0.369,1.513,1.513,0,0,1-.123-0.231,1.292,1.292,0,0,1-.073-0.251,1.107,1.107,0,0,1-.027-0.258,1.155,1.155,0,0,1,.027-0.262,1.293,1.293,0,0,1,.073-0.251,1.514,1.514,0,0,1,.123-0.231,1.347,1.347,0,0,1,.166-0.2,1.19,1.19,0,0,1,.2-0.164,1.281,1.281,0,0,1,.23-0.124,1.3,1.3,0,0,1,.246-0.077,1.265,1.265,0,0,1,.519,0,1.3,1.3,0,0,1,.246.077,1.167,1.167,0,0,1,.229.124,1.243,1.243,0,0,1,.366.365,1.352,1.352,0,0,1,.2.483,1.53,1.53,0,0,1,.02.171,0.839,0.839,0,0,1,0,.091V19.82l-0.007.091a1.213,1.213,0,0,1-.017.141,1.353,1.353,0,0,1-.2.483,1.217,1.217,0,0,1-.163.2A1.392,1.392,0,0,1,41.673,20.9Z" fill="#3e3a39"/><path d="M40.347,18.338a1.548,1.548,0,0,0-.6.436l-0.269-.2a1.94,1.94,0,0,1,.765-0.556Z" fill="#fff"/><path d="M39.748,20.812a1.612,1.612,0,0,0,.6.436l-0.1.319a1.918,1.918,0,0,1-.765-0.56Z" fill="#fff"/><path d="M39.342,20.815a2,2,0,0,1-.2-0.429,1.883,1.883,0,0,1-.09-0.476h0.329a1.611,1.611,0,0,0,.23.707Z" fill="#fff"/><path d="M39.143,19.2a1.982,1.982,0,0,1,.2-0.426l0.27,0.2a1.6,1.6,0,0,0-.23.7H39.053A1.94,1.94,0,0,1,39.143,19.2Z" fill="#fff"/><path d="M36.44,19.934c-0.007.047-.01,0.094-0.017,0.141L36.1,20.007c0.007-.054.013-0.107,0.017-0.161V19.793c0-.054,0-0.107-0.007-0.161l0.323-.067c0,0.037.01,0.077,0.01,0.114a0.3,0.3,0,0,1,0,.057c0,0.02,0,.037,0,0.057s0,0.047,0,.07S36.44,19.91,36.44,19.934Z" fill="#fff"/><path d="M36.061,19.4a1.534,1.534,0,0,0-.093-0.272c-0.013-.03-0.03-0.057-0.043-0.087l0.276-.184a1.929,1.929,0,0,1,.15.352c0.013,0.04.027,0.084,0.037,0.124Z" fill="#fff"/><path d="M36.177,20.772L35.9,20.584a1.418,1.418,0,0,0,.116-0.251,0.47,0.47,0,0,0,.03-0.091l0.326,0.067A2.017,2.017,0,0,1,36.177,20.772Z" fill="#fff"/><path d="M35.875,19.86l0-.033C35.878,19.837,35.875,19.85,35.875,19.86Z" fill="#231815"/><path d="M35.871,19.917l0-.04V19.9C35.875,19.9,35.871,19.91,35.871,19.917Z" fill="#231815"/><path d="M36.041,20.966a1.962,1.962,0,0,1-.352.352L35.5,21.04a1.755,1.755,0,0,0,.266-0.258Z" fill="#fff"/><path d="M35.712,18.288a1.984,1.984,0,0,1,.359.369l-0.276.184a1.6,1.6,0,0,0-.266-0.275Z" fill="#fff"/><path d="M34.977,18.278l0.067-.325a1.9,1.9,0,0,1,.472.2l-0.183.275A1.678,1.678,0,0,0,34.977,18.278Z" fill="#fff"/><path d="M35.033,21.637l-0.067-.329a1.709,1.709,0,0,0,.259-0.094c0.027-.013.053-0.03,0.08-0.044l0.183,0.278a1.775,1.775,0,0,1-.336.151C35.113,21.613,35.073,21.627,35.033,21.637Z" fill="#fff"/><path d="M34.644,21.362a0.794,0.794,0,0,0,.09-0.007L34.8,21.684c-0.043,0-.083.01-0.123,0.01-0.02,0-.043,0-0.063.007H34.491c-0.023,0-.043,0-0.063-0.007-0.04,0-.08-0.007-0.123-0.01l0.067-.329a0.791,0.791,0,0,0,.09.007,0.778,0.778,0,0,0,.09,0A0.81,0.81,0,0,0,34.644,21.362Z" fill="#fff"/><path d="M34.551,18.888a0.889,0.889,0,0,1,.4.094H34.624l-0.073-.07-0.07.07H34.152A0.885,0.885,0,0,1,34.551,18.888Z" fill="#ab6a00"/><path d="M34.81,17.906l-0.067.325-0.093-.01c-0.033,0-.067,0-0.1,0s-0.063,0-.1,0l-0.093.01L34.3,17.906c0.043-.007.086-0.01,0.126-0.013,0.023,0,.043,0,0.066-0.007h0.13c0.023,0,.043,0,0.067.007C34.724,17.9,34.767,17.9,34.81,17.906Z" fill="#fff"/><polygon points="34.624 18.982 35.027 19.387 34.787 19.387 34.787 20.554 34.315 20.554 34.315 19.387 34.079 19.387 34.481 18.982 34.551 18.911 34.624 18.982" fill="#824e00"/><path d="M35.027,19.387l-0.4-.406h0.329a0.9,0.9,0,1,1-.8,0h0.329l-0.4.406h0.236v1.166h0.472V19.387h0.239Z" fill="#f29600"/><path d="M34.062,17.953l0.067,0.325a1.679,1.679,0,0,0-.356.151l-0.183-.275A1.893,1.893,0,0,1,34.062,17.953Z" fill="#fff"/><path d="M34.139,21.308l-0.063.329a1.858,1.858,0,0,1-.352-0.131,1.052,1.052,0,0,1-.106-0.057l0.183-.278a1.668,1.668,0,0,0,.249.111C34.079,21.291,34.109,21.3,34.139,21.308Z" fill="#fff"/><path d="M33.341,20.782a1.6,1.6,0,0,0,.263.258l-0.186.278a1.952,1.952,0,0,1-.352-0.352Z" fill="#fff"/><path d="M33.577,18.566a1.6,1.6,0,0,0-.266.275l-0.276-.184a1.885,1.885,0,0,1,.359-0.369Z" fill="#fff"/><path d="M35.452,19.793a0.909,0.909,0,0,0-.5-0.811,0.9,0.9,0,0,0-.8,0A0.9,0.9,0,1,0,35.452,19.793Zm-0.9,1.334A1.087,1.087,0,0,1,34.3,21.1a1.25,1.25,0,0,1-.249-0.074,1.519,1.519,0,0,1-.23-0.124,1.331,1.331,0,0,1-.2-0.164,1.424,1.424,0,0,1-.286-0.436,1.354,1.354,0,0,1-.076-0.248,1.4,1.4,0,0,1-.027-0.261,0.586,0.586,0,0,1,0-.077,1.62,1.62,0,0,1,.023-0.184,1.348,1.348,0,0,1,.076-0.248,1.1,1.1,0,0,1,.123-0.231,1.184,1.184,0,0,1,.163-0.2,1.338,1.338,0,0,1,.2-0.164,1.335,1.335,0,0,1,.479-0.2,1.428,1.428,0,0,1,.515,0,1.541,1.541,0,0,1,.249.077,1.523,1.523,0,0,1,.229.124,1.35,1.35,0,0,1,.2.164,1.4,1.4,0,0,1,.166.2,1.259,1.259,0,0,1,.12.231,1.323,1.323,0,0,1,.076.248,1.171,1.171,0,0,1,.023.184,0.61,0.61,0,0,1,0,.077v0.034l0,0.033v0.017l0,0.04c-0.007.057-.013,0.1-0.02,0.137a1.329,1.329,0,0,1-.076.248,1.381,1.381,0,0,1-.12.231,1.4,1.4,0,0,1-.166.2,1.343,1.343,0,0,1-.2.164,1.524,1.524,0,0,1-.229.124,1.255,1.255,0,0,1-.249.074A1.1,1.1,0,0,1,34.551,21.127Z" fill="#3e3a39"/><path d="M32.905,18.854l0.276,0.184a1.306,1.306,0,0,0-.11.265,0.748,0.748,0,0,0-.027.094l-0.326-.067a1.735,1.735,0,0,1,.13-0.362A1.2,1.2,0,0,1,32.905,18.854Z" fill="#fff"/><path d="M33.058,20.242a1.478,1.478,0,0,0,.1.262c0.013,0.027.03,0.054,0.043,0.08l-0.276.188a1.974,1.974,0,0,1-.2-0.466Z" fill="#fff"/><path d="M32.992,19.847c0,0.054.01,0.107,0.017,0.161l-0.326.067c-0.007-.047-0.013-0.094-0.017-0.141,0-.023,0-0.047,0-0.07s0-.047,0-0.07,0-.04,0-0.057a0.32,0.32,0,0,1,0-.057,0.66,0.66,0,0,1,.01-0.114L33,19.629c0,0.057-.007.111-0.007,0.164v0.054Z" fill="#fff"/><rect x="5.661" y="12.123" width="62.679" height="23.755" fill="none" stroke="#231815" stroke-width="0.25"/><path d="M19.277,30.511a0.873,0.873,0,0,1,.085-0.105,0.889,0.889,0,0,1,.1-0.086l1.254,1.265a0.919,0.919,0,0,1-.085.1,0.964,0.964,0,0,1-.1.086Z" fill="#656464"/><path d="M39.256,16.989a2.876,2.876,0,0,0-.456.349H37.524V16H48.081a0.469,0.469,0,0,1,.336.141,0.478,0.478,0,0,1,.1.154,0.487,0.487,0,0,1,.037.181v0.862H43.08a3.075,3.075,0,0,0-.459-0.349,3.011,3.011,0,0,0-.515-0.265,2.694,2.694,0,0,0-.276-0.094,2.3,2.3,0,0,0-.289-0.07,2.829,2.829,0,0,0-.3-0.044,1.168,1.168,0,0,0-.153-0.01c-0.05,0-.1,0-0.153,0s-0.1,0-.153,0a1.176,1.176,0,0,0-.153.01,2.967,2.967,0,0,0-.3.044,2.3,2.3,0,0,0-.289.07c-0.093.027-.183,0.057-0.276,0.094A3,3,0,0,0,39.256,16.989Z" fill="#fff"/><path d="M30.7,16.3a0.472,0.472,0,0,1,.1-0.154,0.492,0.492,0,0,1,.156-0.1A0.479,0.479,0,0,1,31.133,16h6.251v1.338H36.692a3.284,3.284,0,0,0-.994-0.617,3.121,3.121,0,0,0-2.291,0,3.286,3.286,0,0,0-.994.617H30.661V16.48A0.494,0.494,0,0,1,30.7,16.3Z" fill="#fff"/><path d="M58.7,14.125h-0.8v1.334h0.821V14.125H58.7Zm-2.593,0H56.091v1.334h0.821V14.125H56.1Zm-1.011,0h-0.8v1.334H55.11V14.125H55.093Zm4.615,0H59.7v1.334h0.821V14.125H59.708Zm1.284-1.431v2.574a0.488,0.488,0,0,1-.037.181,0.517,0.517,0,0,1-.1.157,0.47,0.47,0,0,1-.153.1,0.5,0.5,0,0,1-.183.037H53.87v-3.05h7.122Z" fill="#fff"/><polygon points="60.516 14.125 60.516 14.128 60.507 14.125 60.516 14.125" fill="#fff"/><polygon points="59.702 14.125 59.695 14.128 59.695 14.125 59.702 14.125" fill="#fff"/><polygon points="58.714 14.125 58.714 14.128 58.704 14.125 58.714 14.125" fill="#fff"/><polygon points="57.9 14.125 57.893 14.128 57.893 14.125 57.9 14.125" fill="#fff"/><polygon points="56.912 14.125 56.912 14.128 56.902 14.125 56.912 14.125" fill="#fff"/><polygon points="56.097 14.125 56.091 14.128 56.091 14.125 56.097 14.125" fill="#fff"/><polygon points="55.11 14.125 55.11 14.128 55.1 14.125 55.11 14.125" fill="#fff"/><polygon points="54.295 14.125 54.289 14.128 54.289 14.125 54.295 14.125" fill="#fff"/><path d="M53.291,14.125h-0.8v1.334h0.821V14.125H53.291Zm-4.4,0H48.882v1.334H49.7V14.125H48.9Zm-1.8,0H47.08v1.334H47.9V14.125H47.093Zm4.4,0h-0.8v1.334h0.821V14.125H51.489Zm2.238-1.431v3.05H46.661v-3.05h7.066Z" fill="#fff"/><polygon points="53.308 14.125 53.308 14.128 53.298 14.125 53.308 14.125" fill="#fff"/><polygon points="52.493 14.125 52.486 14.128 52.486 14.125 52.493 14.125" fill="#fff"/><polygon points="51.506 14.125 51.506 14.128 51.495 14.125 51.506 14.125" fill="#fff"/><polygon points="50.691 14.125 50.684 14.128 50.684 14.125 50.691 14.125" fill="#fff"/><polygon points="49.703 14.125 49.703 14.128 49.693 14.125 49.703 14.125" fill="#fff"/><polygon points="48.889 14.125 48.882 14.128 48.882 14.125 48.889 14.125" fill="#fff"/><polygon points="47.901 14.125 47.901 14.128 47.891 14.125 47.901 14.125" fill="#fff"/><polygon points="47.087 14.125 47.08 14.128 47.08 14.125 47.087 14.125" fill="#fff"/><path d="M41.683,14.125H41.67v1.334h0.825V14.125H41.683Zm-1.8,0H39.868v1.334h0.825V14.125H39.881Zm3.6,0H43.472v1.334H44.3V14.125H43.485Zm1.8,0H45.274v1.334H46.1V14.125H45.288Zm1.23-1.431v3.05H39.452v-3.05h7.066Z" fill="#fff"/><polygon points="46.099 14.125 46.099 14.128 46.089 14.125 46.099 14.125" fill="#fff"/><polygon points="44.297 14.125 44.297 14.128 44.287 14.125 44.297 14.125" fill="#fff"/><polygon points="42.495 14.125 42.495 14.128 42.485 14.125 42.495 14.125" fill="#fff"/><polygon points="41.677 14.125 41.67 14.128 41.67 14.125 41.677 14.125" fill="#fff"/><polygon points="40.693 14.125 40.693 14.128 40.679 14.125 40.693 14.125" fill="#fff"/><polygon points="39.874 14.125 39.868 14.128 39.868 14.125 39.874 14.125" fill="#fff"/><path d="M35.266,14.125h-0.8v1.334h0.825V14.125h-0.02Zm2.813,0H38.066v1.334H38.89V14.125H38.079Zm-1.8,0H36.264v1.334h0.825V14.125H36.277Zm3.032-1.431v3.05H32.6a0.479,0.479,0,0,1-.18-0.037,0.47,0.47,0,0,1-.153-0.1,0.464,0.464,0,0,1-.1-0.157,0.491,0.491,0,0,1-.037-0.181V12.694h7.179Zm-5.826,2.765V14.125H32.659v1.334h0.825Z" fill="#fff"/><polygon points="38.89 14.125 38.89 14.128 38.88 14.125 38.89 14.125" fill="#fff"/><polygon points="38.072 14.125 38.066 14.128 38.066 14.125 38.072 14.125" fill="#fff"/><polygon points="37.088 14.125 37.088 14.128 37.075 14.125 37.088 14.125" fill="#fff"/><polygon points="36.27 14.125 36.264 14.128 36.264 14.125 36.27 14.125" fill="#fff"/><path d="M35.286,14.125v0a0.078,0.078,0,0,0-.013,0h0.013Z" fill="#fff"/><polygon points="34.468 14.125 34.461 14.128 34.461 14.125 34.468 14.125" fill="#fff"/><path d="M31.987,12.694v2.574a0.487,0.487,0,0,1-.033.181,0.517,0.517,0,0,1-.1.157,0.471,0.471,0,0,1-.153.1,0.5,0.5,0,0,1-.183.037H21.6a0.466,0.466,0,0,1-.18-0.037,0.432,0.432,0,0,1-.256-0.258,0.491,0.491,0,0,1-.037-0.181V12.694h10.86ZM31.08,15.459V14.125H30.258v1.334H31.08Zm-2.032,0V14.125H28.224v1.334h0.825Zm-2.035,0V14.125H26.189v1.334h0.825Zm-2.035,0V14.125H24.154v1.334h0.825Zm-2.035,0V14.125H22.122v1.334h0.821Z" fill="#fff"/><path d="M28.341,29.947v2.179a0.342,0.342,0,0,1-.14.117,0.454,0.454,0,0,1-.12.04,0.9,0.9,0,0,1-.166.013h-2.3v-2.35h2.73Z" fill="#fff"/><rect x="25.612" y="27.53" width="2.73" height="2.28" fill="#fff"/><path d="M28.341,25.207v2.179h-2.73v-2.35h2.3a0.9,0.9,0,0,1,.166.013,0.456,0.456,0,0,1,.12.04A0.342,0.342,0,0,1,28.341,25.207Z" fill="#fff"/><path d="M15.888,17.878V15.732h1.466a0.493,0.493,0,0,1,.183.037,0.516,0.516,0,0,1,.15.1,0.484,0.484,0,0,1,.1.154,0.494,0.494,0,0,1,.037.184V17.4a0.494,0.494,0,0,1-.037.184,0.47,0.47,0,0,1-.1.151,0.462,0.462,0,0,1-.15.1,0.493,0.493,0,0,1-.183.037H15.888Z" fill="#fff"/><path d="M15.888,20.811h1.466a0.493,0.493,0,0,1,.183.037,0.51,0.51,0,0,1,.15.1,0.484,0.484,0,0,1,.1.154,0.493,0.493,0,0,1,.037.184V22.48a0.494,0.494,0,0,1-.037.185,0.469,0.469,0,0,1-.1.151,0.463,0.463,0,0,1-.15.1,0.493,0.493,0,0,1-.183.037H15.888V20.811Z" fill="#fff"/><path d="M15.888,27.414V25.269h1.466a0.492,0.492,0,0,1,.183.037,0.51,0.51,0,0,1,.15.1,0.479,0.479,0,0,1,.1.154,0.5,0.5,0,0,1,.037.185v1.194a0.492,0.492,0,0,1-.037.184,0.5,0.5,0,0,1-.253.255,0.493,0.493,0,0,1-.183.037H15.888Z" fill="#fff"/><path d="M15.888,32.492V30.348h1.466a0.492,0.492,0,0,1,.183.037,0.51,0.51,0,0,1,.15.1,0.479,0.479,0,0,1,.1.154,0.493,0.493,0,0,1,.037.185v1.193a0.493,0.493,0,0,1-.037.185,0.505,0.505,0,0,1-.253.255,0.492,0.492,0,0,1-.183.037H15.888Z" fill="#fff"/></svg>