<?xml version="1.0" encoding="utf-8"?>
<!-- Generator: Adobe Illustrator 24.0.1, SVG Export Plug-In . SVG Version: 6.00 Build 0)  -->
<svg version="1.1" id="レイヤー_1" xmlns="http://www.w3.org/2000/svg" xmlns:xlink="http://www.w3.org/1999/xlink" x="0px"
	 y="0px" width="74px" height="48px" viewBox="0 0 74 48" style="enable-background:new 0 0 74 48;" xml:space="preserve">
<style type="text/css">
	.st0{fill:url(#SVGID_1_);}
	.st1{fill:url(#SVGID_2_);}
	.st2{fill:url(#SVGID_3_);}
	.st3{fill:url(#SVGID_4_);}
	.st4{fill:url(#SVGID_5_);}
	.st5{fill:url(#SVGID_6_);}
	.st6{fill:#585656;}
	.st7{fill:#D2D2D3;stroke:#595757;stroke-width:0.1501;}
	.st8{fill:url(#SVGID_7_);stroke:#595757;stroke-width:8.700000e-02;}
	.st9{fill:url(#SVGID_8_);stroke:#595757;stroke-width:0.1644;}
	.st10{fill:url(#SVGID_9_);stroke:#595757;stroke-width:0.1644;}
	.st11{fill:url(#SVGID_10_);stroke:#595757;stroke-width:8.700000e-02;}
	.st12{fill:url(#SVGID_11_);stroke:#595757;stroke-width:0.1644;}
	.st13{fill:url(#SVGID_12_);stroke:#595757;stroke-width:0.1644;}
	.st14{fill:#231815;}
	.st15{fill:#AB6A00;}
	.st16{fill:#824E00;}
	.st17{fill:#F29600;}
	.st18{fill:#3E3A39;}
	.st19{fill:url(#SVGID_13_);}
	.st20{fill:url(#SVGID_14_);}
	.st21{fill:url(#SVGID_15_);}
	.st22{fill:url(#SVGID_16_);}
	.st23{fill:url(#SVGID_17_);}
	.st24{fill:url(#SVGID_18_);}
	.st25{fill:url(#SVGID_19_);stroke:#717071;stroke-width:0.1556;}
	.st26{fill:#656464;}
	.st27{fill:none;stroke:#595757;stroke-width:0.1556;}
	.st28{fill:url(#SVGID_20_);}
	.st29{fill:url(#SVGID_21_);stroke:#717071;stroke-width:0.1556;}
	.st30{fill:#433F3F;}
	.st31{fill:url(#SVGID_22_);}
	.st32{fill:url(#SVGID_23_);}
	.st33{fill:url(#SVGID_24_);}
	.st34{fill:url(#SVGID_25_);}
	.st35{fill:url(#SVGID_26_);}
	.st36{fill:url(#SVGID_27_);}
	.st37{fill:url(#SVGID_28_);}
	.st38{fill:url(#SVGID_29_);}
	.st39{fill:none;stroke:#4C4948;stroke-width:0.1245;}
	.st40{fill:url(#SVGID_30_);}
	.st41{fill:#1A1A1A;}
	.st42{fill:#262626;}
	.st43{fill:#424242;}
	.st44{fill:#262626;stroke:#808080;stroke-width:0.174;}
	.st45{fill:#AE9A52;}
	.st46{fill:none;stroke:#AE9A52;stroke-width:0.203;}
	.st47{fill:#FFFFFF;}
	.st48{fill:none;stroke:#7B7B7B;stroke-width:0.116;}
	.st49{fill:none;stroke:#565454;stroke-width:0.116;}
	.st50{fill:none;stroke:#888888;stroke-width:0.116;}
	.st51{fill:none;stroke:#231815;stroke-width:0.2176;}
	.st52{fill:#B3B3B3;}
</style>
<g id="レイヤー_1_1_">
</g>
<g id="文字">
	
		<linearGradient id="SVGID_1_" gradientUnits="userSpaceOnUse" x1="1.23" y1="571.225" x2="72.85" y2="571.225" gradientTransform="matrix(1 0 0 1 0 -547.28)">
		<stop  offset="0" style="stop-color:#717071"/>
		<stop  offset="0.1899" style="stop-color:#1C1C1C"/>
		<stop  offset="0.2625" style="stop-color:#1A1A1A"/>
		<stop  offset="0.7077" style="stop-color:#585656"/>
		<stop  offset="0.9269" style="stop-color:#4C4948"/>
		<stop  offset="1" style="stop-color:#717071"/>
	</linearGradient>
	<polyline class="st0" points="72.8,25 72.8,35.2 1.2,35.2 1.2,12.7 72.8,12.7 72.8,25 	"/>
	
		<linearGradient id="SVGID_2_" gradientUnits="userSpaceOnUse" x1="48.28" y1="573.4986" x2="48.28" y2="571.0201" gradientTransform="matrix(1 0 0 1 0 -547.28)">
		<stop  offset="3.075509e-03" style="stop-color:#000000"/>
		<stop  offset="0.3284" style="stop-color:#1F1F1F"/>
		<stop  offset="0.8088" style="stop-color:#141414"/>
		<stop  offset="1" style="stop-color:#141414"/>
	</linearGradient>
	<polygon class="st1" points="72.7,25.5 23.8,25.5 23.8,25 39.3,25 39.3,23.7 55.9,23.7 55.9,25 72.7,25 	"/>
	
		<linearGradient id="SVGID_3_" gradientUnits="userSpaceOnUse" x1="36.955" y1="590.7088" x2="36.955" y2="560.322" gradientTransform="matrix(1 0 0 1 0 -547.28)">
		<stop  offset="0" style="stop-color:#545454"/>
		<stop  offset="0.3281" style="stop-color:#545454"/>
		<stop  offset="0.8088" style="stop-color:#303030"/>
		<stop  offset="1" style="stop-color:#3C3736"/>
	</linearGradient>
	<polygon class="st2" points="72.8,34.9 72.8,35.3 1.1,35.3 1.1,13 10.4,13 10.4,34.9 	"/>
	
		<linearGradient id="SVGID_4_" gradientUnits="userSpaceOnUse" x1="18.29" y1="566.8497" x2="18.29" y2="569.3233" gradientTransform="matrix(1 0 0 1 0 -547.28)">
		<stop  offset="0" style="stop-color:#212121"/>
		<stop  offset="0.352" style="stop-color:#3B3B3B"/>
		<stop  offset="0.7443" style="stop-color:#1F1F1F"/>
		<stop  offset="1" style="stop-color:#121212"/>
	</linearGradient>
	<polygon class="st3" points="23.8,22.1 12.7,22.1 12.7,19.4 23.9,19.4 	"/>
	
		<linearGradient id="SVGID_5_" gradientUnits="userSpaceOnUse" x1="47.58" y1="571.1087" x2="47.58" y2="572.3175" gradientTransform="matrix(1 0 0 1 0 -547.28)">
		<stop  offset="0" style="stop-color:#212121"/>
		<stop  offset="0.352" style="stop-color:#3B3B3B"/>
		<stop  offset="0.3655" style="stop-color:#393939"/>
		<stop  offset="0.5254" style="stop-color:#2A2A2A"/>
		<stop  offset="0.7136" style="stop-color:#212121"/>
		<stop  offset="1" style="stop-color:#1F1F1F"/>
	</linearGradient>
	<polygon class="st4" points="55.3,25 39.8,25 39.3,23.7 55.9,23.7 	"/>
	
		<linearGradient id="SVGID_6_" gradientUnits="userSpaceOnUse" x1="13.36" y1="566.095" x2="72.23" y2="566.095" gradientTransform="matrix(1 0 0 1 0 -547.28)">
		<stop  offset="0" style="stop-color:#595757"/>
		<stop  offset="0.1987" style="stop-color:#5B5959"/>
		<stop  offset="0.3575" style="stop-color:#5B5959"/>
		<stop  offset="0.463" style="stop-color:#626161"/>
		<stop  offset="0.6543" style="stop-color:#888888"/>
		<stop  offset="0.8553" style="stop-color:#5E5C5C"/>
		<stop  offset="1" style="stop-color:#595757"/>
	</linearGradient>
	<polygon class="st5" points="72.2,13.3 13.4,13.3 13.4,18.9 24.4,18.9 24.4,24.3 38.5,24.3 38.5,23 56.7,23 56.7,24.3 72.2,24.3 	
		"/>
</g>
<g id="レイヤー_4">
	<g>
		<path class="st6" d="M2.8,24.8h6.8c0,0,0,0,0,0v7.6c0,0,0,0,0,0H2.8c0,0,0,0,0,0L2.8,24.8C2.8,24.9,2.8,24.8,2.8,24.8z"/>
	</g>
	<g>
		<rect x="3" y="25.1" class="st7" width="6.5" height="7.1"/>
		
			<radialGradient id="SVGID_7_" cx="5.87" cy="575.95" r="2.5746" gradientTransform="matrix(1 0 0 1 0 -547.28)" gradientUnits="userSpaceOnUse">
			<stop  offset="0.3071" style="stop-color:#1F1F1F"/>
			<stop  offset="1" style="stop-color:#0D0D0D"/>
		</radialGradient>
		<polygon class="st8" points="3.5,29.8 4.2,29.8 4.2,30.1 5.1,30.1 5.1,31.4 6.1,31.4 6.1,30.9 7.2,30.9 7.2,31.4 8.2,31.4 
			8.2,25.9 7.2,25.9 7.2,26.4 5.9,26.4 5.9,25.9 5,25.9 5,27.1 4.2,27.1 4.2,27.6 3.5,27.6 		"/>
		
			<radialGradient id="SVGID_8_" cx="-1649.5735" cy="120.1965" r="0.787" gradientTransform="matrix(-1 0 0 -1 -1645.8821 146.069)" gradientUnits="userSpaceOnUse">
			<stop  offset="5.302601e-04" style="stop-color:#F7F7F7"/>
			<stop  offset="0.6153" style="stop-color:#BEBFBF"/>
			<stop  offset="1" style="stop-color:#919191"/>
		</radialGradient>
		<rect x="3" y="25.1" class="st9" width="1.4" height="1.5"/>
		
			<radialGradient id="SVGID_9_" cx="-1649.5735" cy="114.6842" r="0.787" gradientTransform="matrix(-1 0 0 -1 -1645.8821 146.069)" gradientUnits="userSpaceOnUse">
			<stop  offset="5.302601e-04" style="stop-color:#F7F7F7"/>
			<stop  offset="0.6153" style="stop-color:#BEBFBF"/>
			<stop  offset="1" style="stop-color:#919191"/>
		</radialGradient>
		<rect x="3" y="30.6" class="st10" width="1.4" height="1.5"/>
	</g>
	<g>
		<path class="st6" d="M2.8,15.9h6.8c0,0,0,0,0,0v7.6c0,0,0,0,0,0H2.8c0,0,0,0,0,0L2.8,15.9C2.8,15.9,2.8,15.9,2.8,15.9z"/>
	</g>
	<g>
		<rect x="3" y="16.2" class="st7" width="6.5" height="7.1"/>
		
			<radialGradient id="SVGID_10_" cx="5.87" cy="566.995" r="2.5743" gradientTransform="matrix(1 0 0 1 0 -547.28)" gradientUnits="userSpaceOnUse">
			<stop  offset="0.3071" style="stop-color:#1F1F1F"/>
			<stop  offset="1" style="stop-color:#0D0D0D"/>
		</radialGradient>
		<polygon class="st11" points="3.5,20.8 4.2,20.8 4.2,21.2 5.1,21.2 5.1,22.5 6.1,22.5 6.1,22 7.2,22 7.2,22.4 8.2,22.4 8.2,17 
			7.2,17 7.2,17.5 5.9,17.5 5.9,17 5,17 5,18.1 4.2,18.1 4.2,18.7 3.5,18.7 		"/>
		
			<radialGradient id="SVGID_11_" cx="-1649.5735" cy="129.1525" r="0.7862" gradientTransform="matrix(-1 0 0 -1 -1645.8821 146.069)" gradientUnits="userSpaceOnUse">
			<stop  offset="5.302601e-04" style="stop-color:#F7F7F7"/>
			<stop  offset="0.6153" style="stop-color:#BEBFBF"/>
			<stop  offset="1" style="stop-color:#919191"/>
		</radialGradient>
		<rect x="3" y="16.2" class="st12" width="1.4" height="1.5"/>
		
			<radialGradient id="SVGID_12_" cx="-1649.5735" cy="123.6416" r="0.787" gradientTransform="matrix(-1 0 0 -1 -1645.8821 146.069)" gradientUnits="userSpaceOnUse">
			<stop  offset="5.302601e-04" style="stop-color:#F7F7F7"/>
			<stop  offset="0.6153" style="stop-color:#BEBFBF"/>
			<stop  offset="1" style="stop-color:#919191"/>
		</radialGradient>
		<rect x="3" y="21.7" class="st13" width="1.4" height="1.5"/>
	</g>
	<path class="st14" d="M35.2,18.7L35.2,18.7C35.2,18.7,35.2,18.7,35.2,18.7C35.2,18.7,35.2,18.7,35.2,18.7z"/>
	<path class="st15" d="M34.1,17.9L34.1,17.9H34h-0.3C33.8,17.9,33.9,17.8,34.1,17.9c0.1-0.1,0.2,0,0.3,0H34.1z"/>
	<polygon class="st16" points="34.3,18.3 34.3,19.3 33.8,19.3 33.8,18.3 33.6,18.3 34,17.9 34,17.8 34.1,17.9 34.5,18.3 	"/>
	<path class="st17" d="M34.3,19.3v-1h0.2l-0.3-0.4h0.3l0,0c0.3,0.1,0.5,0.5,0.4,0.8c0,0.3-0.3,0.6-0.6,0.6c-0.5,0.1-0.9-0.3-0.9-0.8
		c0-0.3,0.2-0.6,0.4-0.7l0,0H34l-0.3,0.4h0.2v1C33.9,19.3,34.3,19.3,34.3,19.3z"/>
	<path class="st18" d="M34.8,18.7c0.1-0.4-0.1-0.7-0.4-0.8l0,0c-0.1,0-0.2-0.1-0.3-0.1c-0.1,0-0.2,0-0.3,0.1l0,0
		c-0.3,0.1-0.4,0.4-0.4,0.7c0,0.5,0.4,0.9,0.9,0.8C34.5,19.3,34.8,19.1,34.8,18.7z M34.7,19.6c-0.1,0-0.1,0.1-0.2,0.1
		s-0.1,0-0.2,0.1s-0.2,0-0.2,0c-0.1,0-0.2,0-0.2,0c-0.1,0-0.2,0-0.2-0.1c-0.1,0-0.1-0.1-0.2-0.1c-0.1,0-0.1-0.1-0.2-0.1
		c-0.1,0-0.1-0.1-0.2-0.2c0-0.1-0.1-0.1-0.1-0.2c0-0.1,0-0.1-0.1-0.2c0-0.1,0-0.1,0-0.2s0-0.1,0-0.2c0-0.1,0-0.1,0.1-0.2
		c0-0.1,0.1-0.1,0.1-0.2s0.1-0.1,0.2-0.2c0,0,0.1-0.1,0.2-0.1c0.1,0,0.1-0.1,0.2-0.1s0.1,0,0.2-0.1c0.1,0,0.2,0,0.2,0
		c0.1,0,0.2,0,0.2,0c0.1,0,0.2,0,0.2,0.1c0.1,0,0.1,0.1,0.2,0.1c0.1,0,0.1,0.1,0.2,0.1c0,0,0.1,0.1,0.1,0.2c0,0.1,0.1,0.1,0.1,0.2
		c0,0.1,0,0.1,0.1,0.2c0,0,0,0.1,0,0.1c0,0,0,0,0,0.1c0,0,0,0,0,0l0,0.1c0,0,0,0.1,0,0.1c0,0.1,0,0.1-0.1,0.2s-0.1,0.1-0.1,0.2
		s-0.1,0.1-0.1,0.2C34.8,19.5,34.8,19.5,34.7,19.6z"/>
	<path class="st14" d="M29.3,18.7L29.3,18.7C29.3,18.6,29.3,18.7,29.3,18.7z"/>
	<path class="st14" d="M29.3,18.7L29.3,18.7C29.3,18.7,29.3,18.7,29.3,18.7C29.3,18.7,29.3,18.7,29.3,18.7z"/>
	<path class="st15" d="M28.1,17.8c0.1,0,0.2,0,0.4,0.1L28.1,17.8L28.1,17.8L28.1,17.8l-0.4,0.1C27.9,17.9,28,17.8,28.1,17.8z"/>
	<polygon class="st16" points="28.2,17.9 28.5,18.3 28.3,18.3 28.3,19.3 27.9,19.3 27.9,18.3 27.7,18.3 28.1,17.9 28.1,17.8 	"/>
	<path class="st17" d="M28.5,18.3l-0.4-0.4h0.3c0.3,0.1,0.4,0.4,0.4,0.7c0,0.5-0.4,0.8-0.9,0.8c-0.3,0-0.6-0.3-0.7-0.6
		c-0.1-0.4,0.1-0.7,0.4-0.8h0.3l-0.4,0.4h0.2v1h0.4v-1C28.4,18.3,28.5,18.3,28.5,18.3z"/>
	<path class="st18" d="M28.9,18.6c0-0.3-0.2-0.6-0.4-0.7c-0.1,0-0.2-0.1-0.4-0.1c-0.1,0-0.2,0-0.4,0.1c-0.3,0.1-0.5,0.5-0.4,0.8
		c0.1,0.3,0.4,0.6,0.7,0.6C28.5,19.4,28.9,19.1,28.9,18.6z M28.1,19.8c-0.1,0-0.1,0-0.2,0s-0.1,0-0.2-0.1c-0.1,0-0.1-0.1-0.2-0.1
		c-0.1,0-0.1-0.1-0.2-0.1c-0.1-0.1-0.1-0.1-0.1-0.2c0-0.1-0.1-0.1-0.1-0.2c0-0.1,0-0.1-0.1-0.2c0-0.1,0-0.1,0-0.2c0,0,0,0,0-0.1
		c0-0.1,0-0.1,0-0.2c0-0.1,0-0.1,0.1-0.2c0-0.1,0.1-0.1,0.1-0.2c0-0.1,0.1-0.1,0.1-0.2c0,0,0.1-0.1,0.2-0.1c0.1,0,0.1-0.1,0.2-0.1
		c0.1,0,0.1,0,0.2-0.1c0.1,0,0.1,0,0.2,0s0.2,0,0.2,0c0.1,0,0.1,0,0.2,0.1c0.1,0,0.1,0.1,0.2,0.1c0.1,0,0.1,0.1,0.2,0.1
		c0.1,0.1,0.1,0.1,0.1,0.2c0,0.1,0.1,0.1,0.1,0.2c0,0.1,0,0.1,0.1,0.2c0,0,0,0.1,0,0.2c0,0,0,0,0,0.1c0,0,0,0,0,0v0c0,0,0,0,0,0v0
		c0,0,0,0.1,0,0.1c0,0.1,0,0.1-0.1,0.2c0,0.1-0.1,0.1-0.1,0.2c0,0.1-0.1,0.1-0.1,0.2c0,0-0.1,0.1-0.2,0.1c-0.1,0-0.1,0.1-0.2,0.1
		c-0.1,0-0.1,0-0.2,0.1C28.3,19.8,28.2,19.8,28.1,19.8z"/>
	
		<linearGradient id="SVGID_13_" gradientUnits="userSpaceOnUse" x1="153.111" y1="-149.0458" x2="153.111" y2="-150.4516" gradientTransform="matrix(-4.489700e-11 1 -1 -4.489700e-11 -135.5682 -124.896)">
		<stop  offset="0" style="stop-color:#888888"/>
		<stop  offset="0.1429" style="stop-color:#656464"/>
		<stop  offset="1" style="stop-color:#4C4948"/>
	</linearGradient>
	<polygon class="st19" points="14,31.7 13.5,31 13.5,25.4 14,24.7 14.9,24.7 14.9,31.7 	"/>
	
		<linearGradient id="SVGID_14_" gradientUnits="userSpaceOnUse" x1="75.1452" y1="833.3425" x2="80.2297" y2="833.3425" gradientTransform="matrix(1 0 0 1 -58.9537 -805.1325)">
		<stop  offset="0" style="stop-color:#888888"/>
		<stop  offset="0.1429" style="stop-color:#656464"/>
		<stop  offset="1" style="stop-color:#595757"/>
	</linearGradient>
	<rect x="17" y="24.7" class="st20" width="3" height="7"/>
	
		<linearGradient id="SVGID_15_" gradientUnits="userSpaceOnUse" x1="73.8453" y1="828.8375" x2="80.315" y2="828.8375" gradientTransform="matrix(1 0 0 1 -58.9537 -805.1325)">
		<stop  offset="0" style="stop-color:#888888"/>
		<stop  offset="0.1429" style="stop-color:#4C4948"/>
		<stop  offset="1" style="stop-color:#595757"/>
	</linearGradient>
	<path class="st21" d="M19.8,24.8v-0.5l-0.2-0.1V23c0-0.4-0.4-0.4-0.4-0.4h-1.6C17.1,22.6,17,23,17,23v0.3c0,0.3-0.8,0.6-0.8,0.6
		c-0.3,0.2-0.3,0.5-0.3,0.5v0.5h0.5v-0.7H17v0.7"/>
	
		<linearGradient id="SVGID_16_" gradientUnits="userSpaceOnUse" x1="73.7378" y1="833.3425" x2="75.3916" y2="833.3425" gradientTransform="matrix(1 0 0 1 -58.9537 -805.1325)">
		<stop  offset="0" style="stop-color:#888888"/>
		<stop  offset="0.1429" style="stop-color:#656464"/>
		<stop  offset="1" style="stop-color:#595757"/>
	</linearGradient>
	<rect x="14.9" y="24.7" class="st22" width="1.6" height="7"/>
	
		<linearGradient id="SVGID_17_" gradientUnits="userSpaceOnUse" x1="77.1578" y1="833.3475" x2="73.6882" y2="833.3475" gradientTransform="matrix(1 0 0 1 -58.9537 -805.1325)">
		<stop  offset="0" style="stop-color:#888888"/>
		<stop  offset="0.1429" style="stop-color:#4C4948"/>
		<stop  offset="1" style="stop-color:#595757"/>
	</linearGradient>
	<polygon class="st23" points="17.6,26.9 17.6,25 17.5,25 17.5,24.7 14.9,24.7 14.9,31.7 17.5,31.7 17.5,31.4 17.6,31.4 17.6,29.5 
		17.5,29.5 17.5,29.1 17.6,29.1 17.6,27.3 17.5,27.3 17.5,26.9 	"/>
	
		<radialGradient id="SVGID_18_" cx="133.5069" cy="883.7868" r="0.9439" gradientTransform="matrix(0.8942 0 0 0.8942 -100.6456 -764.2883)" gradientUnits="userSpaceOnUse">
		<stop  offset="0.7423" style="stop-color:#3C3736"/>
		<stop  offset="0.9325" style="stop-color:#464342"/>
		<stop  offset="1" style="stop-color:#595757"/>
	</radialGradient>
	<path class="st24" d="M19.3,25.4c0.3,0.3,0.3,0.9,0,1.2s-0.9,0.3-1.2,0c-0.3-0.3-0.3-0.9,0-1.2C18.5,25.1,19,25.1,19.3,25.4z"/>
	
		<radialGradient id="SVGID_19_" cx="-439.5362" cy="1066.9917" r="0.9355" gradientTransform="matrix(0.6388 -0.6388 0.6374 0.6374 -380.9854 -937.1412)" gradientUnits="userSpaceOnUse">
		<stop  offset="0" style="stop-color:#C8C9CA"/>
		<stop  offset="0.18" style="stop-color:#BDBEBF"/>
		<stop  offset="0.4966" style="stop-color:#A1A1A2"/>
		<stop  offset="0.9097" style="stop-color:#737272"/>
		<stop  offset="1" style="stop-color:#686767"/>
	</radialGradient>
	<path class="st25" d="M18.9,23.1c0.3,0.3,0.3,0.9,0,1.2c-0.3,0.3-0.9,0.3-1.2,0c-0.3-0.3-0.3-0.9,0-1.2
		C18.1,22.8,18.6,22.8,18.9,23.1z"/>
	<path class="st26" d="M18.8,24.4c0,0,0.1,0,0.1-0.1s0.1-0.1,0.1-0.1L17.8,23c0,0-0.1,0-0.1,0.1s-0.1,0.1-0.1,0.1L18.8,24.4z"/>
	<path class="st27" d="M18.9,23.1c0.3,0.3,0.3,0.9,0,1.2c-0.3,0.3-0.9,0.3-1.2,0c-0.3-0.3-0.3-0.9,0-1.2
		C18.1,22.8,18.6,22.8,18.9,23.1z"/>
	
		<linearGradient id="SVGID_20_" gradientUnits="userSpaceOnUse" x1="73.8453" y1="-212.6995" x2="80.315" y2="-212.6995" gradientTransform="matrix(1 0 0 -1 -58.9537 -179.9045)">
		<stop  offset="0" style="stop-color:#888888"/>
		<stop  offset="0.1429" style="stop-color:#4C4948"/>
		<stop  offset="1" style="stop-color:#595757"/>
	</linearGradient>
	<path class="st28" d="M19.8,31.7v0.4l-0.2,0.1v1.2c0,0.4-0.4,0.4-0.4,0.4h-1.6c-0.5,0-0.6-0.4-0.6-0.4v-0.3c0-0.3-0.8-0.6-0.8-0.6
		C15.9,32.4,16,32,16,32v-0.3h0.5v0.5H17v-0.5"/>
	
		<radialGradient id="SVGID_21_" cx="-426.3614" cy="-469.5686" r="0.9353" gradientTransform="matrix(0.6388 -0.6388 -0.6374 -0.6374 -8.6053 -538.9413)" gradientUnits="userSpaceOnUse">
		<stop  offset="0" style="stop-color:#C8C9CA"/>
		<stop  offset="0.18" style="stop-color:#BDBEBF"/>
		<stop  offset="0.4966" style="stop-color:#A1A1A2"/>
		<stop  offset="0.9097" style="stop-color:#737272"/>
		<stop  offset="1" style="stop-color:#686767"/>
	</radialGradient>
	<path class="st29" d="M18.9,32.1c-0.3-0.3-0.9-0.3-1.2,0c-0.3,0.3-0.3,0.9,0,1.2c0.3,0.3,0.9,0.3,1.2,0S19.3,32.4,18.9,32.1z"/>
	<path class="st26" d="M17.7,32.2C17.7,32.2,17.7,32.1,17.7,32.2c0.1-0.1,0.1-0.2,0.2-0.2l1.2,1.2c0,0,0,0.1-0.1,0.1
		s-0.1,0.1-0.1,0.1L17.7,32.2z"/>
	<path class="st27" d="M18.9,32.1c-0.3-0.3-0.9-0.3-1.2,0c-0.3,0.3-0.3,0.9,0,1.2c0.3,0.3,0.9,0.3,1.2,0S19.3,32.4,18.9,32.1z"/>
	<rect x="16.6" y="25" class="st17" width="1" height="1.9"/>
	<rect x="17" y="25" class="st16" width="0.3" height="1.9"/>
	<path class="st30" d="M19.2,25.6C19.2,25.6,19.2,25.5,19.2,25.6c-0.3-0.3-0.7-0.3-0.9-0.1c0,0,0,0,0,0.1v0.8c0,0,0,0,0,0.1
		c0.2,0.2,0.6,0.2,0.9,0c0,0,0,0,0-0.1V25.6z"/>
	
		<radialGradient id="SVGID_22_" cx="133.5069" cy="886.289" r="0.9439" gradientTransform="matrix(0.8942 0 0 0.8942 -100.6456 -764.2883)" gradientUnits="userSpaceOnUse">
		<stop  offset="0.7423" style="stop-color:#3C3736"/>
		<stop  offset="0.9325" style="stop-color:#464342"/>
		<stop  offset="1" style="stop-color:#595757"/>
	</radialGradient>
	<path class="st31" d="M19.3,27.6c0.3,0.3,0.3,0.9,0,1.2s-0.9,0.3-1.2,0c-0.3-0.3-0.3-0.9,0-1.2C18.5,27.3,19,27.3,19.3,27.6z"/>
	<rect x="16.6" y="27.3" class="st17" width="1" height="1.9"/>
	<rect x="17" y="27.3" class="st16" width="0.3" height="1.9"/>
	<path class="st30" d="M19.2,27.8C19.2,27.8,19.2,27.8,19.2,27.8c-0.3-0.3-0.7-0.3-0.9-0.1c0,0,0,0,0,0.1v0.8c0,0,0,0,0,0.1
		c0.2,0.2,0.6,0.2,0.9,0c0,0,0,0,0-0.1V27.8z"/>
	
		<radialGradient id="SVGID_23_" cx="133.5069" cy="888.7913" r="0.9439" gradientTransform="matrix(0.8942 0 0 0.8942 -100.6456 -764.2883)" gradientUnits="userSpaceOnUse">
		<stop  offset="0.7423" style="stop-color:#3C3736"/>
		<stop  offset="0.9325" style="stop-color:#464342"/>
		<stop  offset="1" style="stop-color:#595757"/>
	</radialGradient>
	<path class="st32" d="M19.3,29.9c0.3,0.3,0.3,0.9,0,1.2s-0.9,0.3-1.2,0c-0.3-0.3-0.3-0.9,0-1.2C18.5,29.5,19,29.5,19.3,29.9z"/>
	<rect x="16.6" y="29.5" class="st17" width="1" height="1.9"/>
	<rect x="17" y="29.5" class="st16" width="0.3" height="1.9"/>
	<path class="st30" d="M19.2,30.1C19.2,30,19.2,30,19.2,30.1c-0.3-0.3-0.7-0.3-0.9-0.1c0,0,0,0,0,0.1v0.8c0,0,0,0,0,0.1
		c0.2,0.2,0.6,0.2,0.9,0c0,0,0,0,0-0.1V30.1z"/>
	
		<radialGradient id="SVGID_24_" cx="127.9497" cy="886.2877" r="0.9768" gradientTransform="matrix(0.8942 0 0 0.8942 -100.6456 -764.2883)" gradientUnits="userSpaceOnUse">
		<stop  offset="0.4724" style="stop-color:#3C3736"/>
		<stop  offset="0.7423" style="stop-color:#464342"/>
		<stop  offset="1" style="stop-color:#464342"/>
	</radialGradient>
	<path class="st33" d="M14.7,28.8c-0.3,0-0.7,0.1-0.9-0.2c-0.2-0.2-0.2-0.6,0-0.9c0.2-0.2,0.2-0.1,0.4-0.2h0.5
		C14.7,27.6,14.7,28.8,14.7,28.8z"/>
	
		<radialGradient id="SVGID_25_" cx="127.8371" cy="776.2218" r="0.4809" gradientTransform="matrix(0.8942 0 0 1.3984 -100.6456 -1057.2562)" gradientUnits="userSpaceOnUse">
		<stop  offset="0.4724" style="stop-color:#3C3736"/>
		<stop  offset="0.8712" style="stop-color:#464342"/>
		<stop  offset="1" style="stop-color:#595757"/>
	</radialGradient>
	<path class="st34" d="M14,28.2c0-0.2-0.1-0.4-0.3-0.5c0,0,0,0,0,0c-0.2,0.2-0.2,0.6,0,0.9c0,0,0,0,0,0C13.9,28.6,14,28.4,14,28.2z"
		/>
	
		<radialGradient id="SVGID_26_" cx="127.9497" cy="883.7868" r="0.9768" gradientTransform="matrix(0.8942 0 0 0.8942 -100.6456 -764.2883)" gradientUnits="userSpaceOnUse">
		<stop  offset="0.4724" style="stop-color:#3C3736"/>
		<stop  offset="0.7423" style="stop-color:#464342"/>
		<stop  offset="1" style="stop-color:#464342"/>
	</radialGradient>
	<path class="st35" d="M14.7,26.6c-0.3,0-0.7,0.1-0.9-0.2c-0.2-0.2-0.2-0.6,0-0.9c0.2-0.2,0.2-0.1,0.4-0.2h0.5
		C14.7,25.4,14.7,26.6,14.7,26.6z"/>
	
		<radialGradient id="SVGID_27_" cx="127.8371" cy="773.711" r="0.4805" gradientTransform="matrix(0.8942 0 0 1.3984 -100.6456 -1055.9824)" gradientUnits="userSpaceOnUse">
		<stop  offset="0.4724" style="stop-color:#3C3736"/>
		<stop  offset="0.8712" style="stop-color:#464342"/>
		<stop  offset="1" style="stop-color:#595757"/>
	</radialGradient>
	<path class="st36" d="M14,26c0-0.2-0.1-0.4-0.3-0.5c0,0,0,0,0,0c-0.2,0.2-0.2,0.6,0,0.9c0,0,0,0,0,0C13.9,26.4,14,26.2,14,26z"/>
	
		<radialGradient id="SVGID_28_" cx="127.9498" cy="-99.72" r="0.9768" gradientTransform="matrix(0.8942 0 0 -0.8942 -100.6456 -58.7172)" gradientUnits="userSpaceOnUse">
		<stop  offset="0.4724" style="stop-color:#3C3736"/>
		<stop  offset="0.7423" style="stop-color:#464342"/>
		<stop  offset="1" style="stop-color:#464342"/>
	</radialGradient>
	<path class="st37" d="M14.7,29.8c-0.3,0-0.7-0.1-0.9,0.2c-0.2,0.2-0.2,0.6,0,0.9c0.2,0.2,0.2,0.1,0.4,0.2h0.5
		C14.7,31.1,14.7,29.8,14.7,29.8z"/>
	
		<radialGradient id="SVGID_29_" cx="127.8371" cy="10.3252" r="0.4805" gradientTransform="matrix(0.8942 0 0 -1.3984 -100.6456 44.8937)" gradientUnits="userSpaceOnUse">
		<stop  offset="0.4724" style="stop-color:#3C3736"/>
		<stop  offset="0.8712" style="stop-color:#464342"/>
		<stop  offset="1" style="stop-color:#595757"/>
	</radialGradient>
	<path class="st38" d="M14,30.4c0,0.2-0.1,0.4-0.3,0.5c0,0,0,0,0,0c-0.2-0.2-0.2-0.6,0-0.9c0,0,0,0,0,0C13.9,30.1,14,30.3,14,30.4z"
		/>
	<line class="st39" x1="20.1" y1="24.7" x2="14" y2="24.7"/>
	<line class="st39" x1="20.1" y1="31.7" x2="14.1" y2="31.7"/>
	<g>
		<g>
			
				<linearGradient id="SVGID_30_" gradientUnits="userSpaceOnUse" x1="31.02" y1="578.42" x2="66.15" y2="578.42" gradientTransform="matrix(1 0 0 1 0 -547.28)">
				<stop  offset="4.613264e-03" style="stop-color:#363636"/>
				<stop  offset="0.5491" style="stop-color:#4F4F4F"/>
				<stop  offset="1" style="stop-color:#333333"/>
			</linearGradient>
			<rect x="31" y="28.1" class="st40" width="35.1" height="6"/>
		</g>
	</g>
	<rect x="31.6" y="28.6" class="st41" width="33.7" height="5"/>
	<rect x="33.2" y="29.2" class="st42" width="30.5" height="3.8"/>
	<g>
		<rect x="35.9" y="29.4" class="st43" width="25.2" height="3.4"/>
		<path class="st44" d="M59.8,30.3C59.7,30,59.6,30,59.3,30H37.7c-0.3,0-0.4,0.1-0.5,0.4l-0.4,1.3c-0.1,0.3,0,0.6,0.6,0.6h22.3
			c0.2,0,0.6-0.2,0.5-0.6L59.8,30.3z"/>
		<rect x="59" y="30.4" class="st45" width="0.3" height="0.2"/>
		<rect x="59" y="31.5" class="st45" width="0.3" height="0.2"/>
		<rect x="57.8" y="30.4" class="st45" width="0.3" height="0.2"/>
		<rect x="57.8" y="31.5" class="st45" width="0.3" height="0.2"/>
		<rect x="56.7" y="30.4" class="st45" width="0.3" height="0.2"/>
		<rect x="56.7" y="31.5" class="st45" width="0.3" height="0.2"/>
		<rect x="55.6" y="30.4" class="st45" width="0.3" height="0.2"/>
		<rect x="55.6" y="31.5" class="st45" width="0.3" height="0.2"/>
		<rect x="54.5" y="30.4" class="st45" width="0.3" height="0.2"/>
		<rect x="54.5" y="31.5" class="st45" width="0.3" height="0.2"/>
		<rect x="53.4" y="30.4" class="st45" width="0.3" height="0.2"/>
		<rect x="53.4" y="31.5" class="st45" width="0.3" height="0.2"/>
		<rect x="52.2" y="30.4" class="st45" width="0.3" height="0.2"/>
		<rect x="52.2" y="31.5" class="st45" width="0.3" height="0.2"/>
		<rect x="51.1" y="30.4" class="st45" width="0.3" height="0.2"/>
		<rect x="51.1" y="31.5" class="st45" width="0.3" height="0.2"/>
		<rect x="50" y="30.4" class="st45" width="0.3" height="0.2"/>
		<rect x="50" y="31.5" class="st45" width="0.3" height="0.2"/>
		<rect x="48.9" y="30.4" class="st45" width="0.3" height="0.2"/>
		<rect x="48.9" y="31.5" class="st45" width="0.3" height="0.2"/>
		<rect x="47.8" y="30.4" class="st45" width="0.3" height="0.2"/>
		<rect x="47.8" y="31.5" class="st45" width="0.3" height="0.2"/>
		<rect x="46.6" y="30.4" class="st45" width="0.3" height="0.2"/>
		<rect x="46.6" y="31.5" class="st45" width="0.3" height="0.2"/>
		<rect x="45.5" y="30.4" class="st45" width="0.3" height="0.2"/>
		<rect x="45.5" y="31.5" class="st45" width="0.3" height="0.2"/>
		<rect x="44.4" y="30.4" class="st45" width="0.3" height="0.2"/>
		<rect x="44.4" y="31.5" class="st45" width="0.3" height="0.2"/>
		<rect x="43.3" y="30.4" class="st45" width="0.3" height="0.2"/>
		<rect x="43.3" y="31.5" class="st45" width="0.3" height="0.2"/>
		<rect x="42.2" y="30.4" class="st45" width="0.3" height="0.2"/>
		<rect x="42.2" y="31.5" class="st45" width="0.3" height="0.2"/>
		<rect x="41" y="30.4" class="st45" width="0.3" height="0.2"/>
		<rect x="41" y="31.5" class="st45" width="0.3" height="0.2"/>
		<rect x="39.9" y="30.4" class="st45" width="0.3" height="0.2"/>
		<rect x="39.9" y="31.5" class="st45" width="0.3" height="0.2"/>
		<rect x="38.8" y="30.4" class="st45" width="0.3" height="0.2"/>
		<rect x="38.8" y="31.5" class="st45" width="0.3" height="0.2"/>
		<rect x="37.7" y="30.4" class="st45" width="0.3" height="0.2"/>
		<rect x="37.7" y="31.5" class="st45" width="0.3" height="0.2"/>
		<path class="st46" d="M35,31.1c0-0.3-0.3-0.6-0.6-0.6s-0.6,0.3-0.6,0.6s0.3,0.6,0.6,0.6C34.8,31.6,35,31.4,35,31.1z"/>
		<path class="st46" d="M63.2,31.1c0-0.3-0.3-0.6-0.6-0.6S62,30.8,62,31.1s0.3,0.6,0.6,0.6C62.9,31.7,63.2,31.4,63.2,31.1z"/>
	</g>
</g>
<g id="レイヤー_6">
	<path class="st47" d="M20.5,31.6h2.4c0,0,0.1,0,0.2,0c0,0,0.1,0,0.1,0c0,0,0.1-0.1,0.1-0.1v-2h-2.8C20.5,29.5,20.5,31.6,20.5,31.6z
		"/>
	<path class="st47" d="M20.5,29.3h2.8v-2.1h-2.8V29.3z"/>
	<path class="st47" d="M23.2,24.9c0,0-0.1,0-0.1,0c0,0-0.1,0-0.2,0h-2.4v2.2h2.8v-2C23.3,25,23.2,24.9,23.2,24.9z"/>
	<path class="st47" d="M12.6,30c0,0-0.1-0.1-0.1-0.1c-0.1,0-0.1,0-0.2,0h-1.4v2h1.4c0.1,0,0.1,0,0.2,0c0.1,0,0.1-0.1,0.1-0.1
		s0.1-0.1,0.1-0.1c0,0,0-0.1,0-0.2v-0.2v-0.9c0-0.1,0-0.1,0-0.2C12.7,30.1,12.6,30,12.6,30z"/>
	<path class="st47" d="M12.6,25.2c0,0-0.1-0.1-0.1-0.1c-0.1,0-0.1,0-0.2,0h-1.4v2h1.4c0.1,0,0.1,0,0.2,0c0.1,0,0.1-0.1,0.1-0.1
		s0.1-0.1,0.1-0.1c0-0.1,0-0.1,0-0.2v-0.2v-0.9c0-0.1,0-0.1,0-0.2C12.7,25.3,12.6,25.3,12.6,25.2z"/>
	<path class="st47" d="M12.7,21.4c0-0.1,0-0.1,0-0.2c0,0-0.1-0.1-0.1-0.1l0,0c0,0-0.1-0.1-0.1-0.1c-0.1,0-0.1,0-0.2,0h-1.4v2h1.4
		c0.1,0,0.1,0,0.2,0c0.1,0,0.1-0.1,0.1-0.1l0,0c0,0,0.1-0.1,0.1-0.1c0-0.1,0-0.1,0-0.2V21.4z"/>
	<path class="st47" d="M12.4,18.2c0,0,0.1,0,0.1,0c0.1,0,0.1-0.1,0.1-0.1v-1.7c0,0-0.1-0.1-0.1-0.1c0,0-0.1,0-0.1,0
		c-0.1,0-0.1,0-0.2,0h-1.4v2h1.4C12.3,18.2,12.4,18.2,12.4,18.2z"/>
	<g id="レイヤー_5">
		<polyline class="st48" points="14,31.7 13.5,31 13.5,25.4 14,24.7 		"/>
	</g>
	<polyline class="st49" points="12.8,12.9 12.8,19.4 23.9,19.4 23.9,25 39.3,25 39.3,23.7 	"/>
	<line class="st50" x1="20.1" y1="24.7" x2="20.1" y2="31.8"/>
	<rect x="1.2" y="12.7" class="st51" width="71.6" height="22.4"/>
	<polyline class="st49" points="55.9,23.7 55.9,25 72.7,25 	"/>
</g>
<g id="レイヤー_7">
	<rect x="67.9" y="21.2" class="st47" width="3.9" height="1.2"/>
	<path class="st47" d="M67.5,19.6c0,0-0.1-0.1-0.1-0.1c-0.1,0-0.1,0-0.2,0h-9.8c-0.1,0-0.1,0-0.2,0c0,0-0.1,0.1-0.1,0.1
		c0,0-0.1,0.1-0.1,0.1c0,0.1,0,0.1,0,0.2v3.6c0,0.1,0,0.1,0,0.2c0,0,0.1,0.1,0.1,0.1c0,0,0.1,0.1,0.1,0.1c0.1,0,0.1,0,0.2,0h9.8
		c0.1,0,0.1,0,0.2,0c0.1,0,0.1-0.1,0.1-0.1s0.1-0.1,0.1-0.1s0-0.1,0-0.2v-3.6c0-0.1,0-0.1,0-0.2C67.6,19.7,67.6,19.7,67.5,19.6z
		 M61.1,23.9h-3.7c0,0-0.1,0-0.1,0c0,0-0.1,0-0.1-0.1c0,0,0-0.1-0.1-0.1c0,0,0-0.1,0-0.1v-3.1h4C61.1,20.5,61.1,23.9,61.1,23.9z
		 M61.1,20.4h-4v-0.4c0,0,0-0.1,0-0.1c0,0,0-0.1,0.1-0.1c0,0,0.1,0,0.1-0.1c0,0,0.1,0,0.1,0h3.7C61.1,19.6,61.1,20.4,61.1,20.4z
		 M63,23.9h-0.9h-0.9v-0.7h1H63V23.9z M63,23h-0.9h-0.9v-0.8h0.9H63V23z M63,22.1h-1.8v-0.7H63V22.1z M63,21.3h-0.9h-0.9v-0.7h1H63
		V21.3z M63,20.4h-1.8v-0.8H63V20.4z M67.5,23.6c0,0,0,0.1,0,0.1c0,0,0,0.1-0.1,0.1s-0.1,0-0.1,0.1c0,0-0.1,0-0.1,0h-1.6h-2.5v-0.7
		h2.5h1.9V23.6z M67.5,23h-1.9h-2.5v-0.8h2.5h1.9V23z M67.5,22.1h-1.9h-2.5v-0.7h2.5h1.9L67.5,22.1L67.5,22.1z M67.5,21.3h-4.4v-0.7
		h4.4V21.3z M67.5,20.4h-4.4v-0.8h4.1c0,0,0.1,0,0.1,0c0,0,0.1,0,0.1,0.1c0,0,0.1,0.1,0.1,0.1c0,0,0,0.1,0,0.1V20.4z"/>
	<path class="st47" d="M63.2,18.8c0,0,0.1-0.1,0.1-0.1c0,0,0.1-0.1,0.1-0.1s0-0.1,0-0.2v-2.2h-6.6v2.6h6.1
		C63.1,18.8,63.2,18.8,63.2,18.8z M62.3,17.5v-0.2v-0.8v0v0v0v0v-0.1h0.8v0.1v0.1v0v0.8v0.2v0L62.3,17.5L62.3,17.5z M60.7,17.5v-0.2
		v-0.8v0v-0.1v-0.1h0.8v0.1v0.1v0v0.8v0.2v0L60.7,17.5L60.7,17.5z M59,17.5v-0.2v-0.8v0v-0.1v-0.1h0.8v0.1v0.1v0v0.8v0.2v0L59,17.5
		L59,17.5z M58.1,16.4L58.1,16.4L58.1,16.4L58.1,16.4v0.1v0.8v0.2v0h-0.8v0v-0.2v-0.8v0v-0.1v-0.1L58.1,16.4L58.1,16.4z"/>
	<path class="st47" d="M63.5,13.4h-6.6V16h6.6V13.4z M58.1,14.6v0.2v0.9v0.1h-0.8v-0.1v-0.9v-0.2v0L58.1,14.6L58.1,14.6z M59.8,14.6
		v0.2v0.9v0.1H59v-0.1v-0.9v-0.2v0L59.8,14.6L59.8,14.6z M61.4,14.6v0.2v0.2v0.4v0.2v0.1h-0.8v-0.1v-0.2v-0.4v-0.2v-0.2v0L61.4,14.6
		L61.4,14.6L61.4,14.6z M63.1,14.6v0.2v0.2v0.4v0.2v0.1h-0.8v-0.1v-0.2v-0.4v-0.2v-0.2v0L63.1,14.6L63.1,14.6z"/>
	<path class="st47" d="M58,23.1h2.1c0,0,0,0,0,0v-1.7c0,0,0,0,0,0H58c0,0,0,0,0,0L58,23.1C58,23.1,58,23.1,58,23.1z M58.1,21.4h2V23
		h-2V21.4z"/>
	<path class="st47" d="M59.9,21.7h-0.2c0,0,0,0,0,0v1c0,0,0,0,0,0h0.2c0,0,0,0,0,0L59.9,21.7C60,21.7,59.9,21.7,59.9,21.7z
		 M59.9,22.4C59.9,22.4,59.9,22.4,59.9,22.4C59.9,22.4,59.9,22.4,59.9,22.4l-0.2,0c0,0,0,0,0,0s0,0,0,0v-0.2c0,0,0,0,0,0
		c0,0,0,0,0,0h0.2c0,0,0,0,0,0c0,0,0,0,0,0V22.4z"/>
	<path class="st47" d="M59.5,21.7h-0.2c0,0,0,0,0,0v1c0,0,0,0,0,0h0.2c0,0,0,0,0,0L59.5,21.7C59.5,21.7,59.5,21.7,59.5,21.7z
		 M59.5,22.4C59.5,22.4,59.5,22.4,59.5,22.4C59.4,22.4,59.4,22.4,59.5,22.4l-0.2,0c0,0,0,0,0,0c0,0,0,0,0,0v-0.2c0,0,0,0,0,0
		s0,0,0,0h0.2c0,0,0,0,0,0c0,0,0,0,0,0V22.4z"/>
	<path class="st47" d="M59,21.7h-0.2c0,0,0,0,0,0v1c0,0,0,0,0,0H59c0,0,0,0,0,0L59,21.7C59.1,21.7,59,21.7,59,21.7z M59,22.4
		C59,22.4,59,22.4,59,22.4C59,22.4,59,22.4,59,22.4l-0.2,0c0,0,0,0,0,0c0,0,0,0,0,0v-0.2c0,0,0,0,0,0c0,0,0,0,0,0H59c0,0,0,0,0,0
		V22.4z"/>
	<path class="st47" d="M58.6,21.7h-0.2c0,0,0,0,0,0v1c0,0,0,0,0,0h0.2c0,0,0,0,0,0L58.6,21.7C58.6,21.7,58.6,21.7,58.6,21.7z
		 M58.6,22.4C58.6,22.4,58.6,22.4,58.6,22.4C58.6,22.4,58.6,22.4,58.6,22.4l-0.2,0c0,0,0,0,0,0c0,0,0,0,0,0v-0.2c0,0,0,0,0,0
		s0,0,0,0h0.2c0,0,0,0,0,0c0,0,0,0,0,0V22.4z"/>
	<path class="st47" d="M50.2,18.8h6.6v-2.6h-6.6V18.8z M55.6,17.5v-0.2v-0.8v0v0v0v0v-0.1h0.8v0.1v0.1v0v0.8v0.2v0L55.6,17.5
		L55.6,17.5z M54,17.5v-0.2v-0.8v0v-0.1v-0.1h0.8v0.1v0.1v0v0.8v0.2v0L54,17.5L54,17.5z M52.3,17.5v-0.2v-0.9v0v-0.1h0.8v0.1v0v0.9
		v0.2v0L52.3,17.5L52.3,17.5z M50.6,17.5v-0.2v-0.8v0v-0.1v-0.1h0.8v0.1v0v0v0v0v0.8v0.2v0L50.6,17.5L50.6,17.5z"/>
	<path class="st47" d="M50.2,16h6.6v-2.7h-6.6V16z M51.4,14.6v0.2v0.9v0.1h-0.8v-0.1v-0.9v-0.2v0L51.4,14.6L51.4,14.6z M54.7,14.6
		v0.2v0.9v0.1H54v-0.1v-0.9v-0.2v0L54.7,14.6L54.7,14.6z M55.6,15.7v-0.9v-0.2v0h0.8v0v0.2v0.9v0.1L55.6,15.7L55.6,15.7z M52.3,15.7
		v-0.9v-0.2v0h0.8v0v0.2v0.9v0.1L52.3,15.7L52.3,15.7z"/>
	<path class="st47" d="M43.5,18.8h6.5v-2.6h-6.5V18.8z M49,17.5v-0.2v-0.8v0v0v0v0v-0.1h0.8l0,0v1.2l0,0L49,17.5L49,17.5z
		 M47.3,17.5v-0.2v-0.8v0v-0.1v-0.1H48v0.1v0v0v0v0.8v0.2v0L47.3,17.5L47.3,17.5z M45.6,17.5v-0.2v-0.8v0v0v0v-0.1h0.8v0.1v0v0v0
		v0.8v0.2v0L45.6,17.5L45.6,17.5z M43.9,17.5v-0.2v-0.8v0v-0.1v-0.1h0.8v0.1v0v0v0v0v0.8v0.2v0L43.9,17.5L43.9,17.5z"/>
	<path class="st47" d="M43.5,13.4V16h3.7h2.8v-2.7h-2.4C47.7,13.4,43.5,13.4,43.5,13.4z M44.7,14.6v0.2v0.2v0.4v0.2v0.1h-0.8v-0.1
		v-0.2v-0.4v-0.2v-0.2v0L44.7,14.6L44.7,14.6z M46.4,14.6v0.2v0.2v0.4v0.2v0.1h-0.8v-0.1v-0.2v-0.4v-0.2v-0.2v0L46.4,14.6L46.4,14.6
		z M49,15.7v-0.2v-0.4v-0.2v-0.2v0h0.8l0,0v1.2l0,0L49,15.7L49,15.7z M48,14.6v0.2v0.2v0.4v0.2v0.1h-0.8v-0.1v-0.2v-0.4v-0.2v-0.2v0
		h0.4L48,14.6L48,14.6L48,14.6z"/>
	<path class="st47" d="M36.8,18.4c0,0.1,0,0.1,0,0.2s0.1,0.1,0.1,0.1c0,0,0.1,0.1,0.1,0.1s0.1,0,0.2,0h6.2v-2.6h-6.7
		C36.8,16.1,36.8,18.4,36.8,18.4z M42.3,17.5v-0.2v-0.8v0v0v0v0v-0.1H43v0.1v0v0v0v0v0.8v0.2v0L42.3,17.5L42.3,17.5z M40.6,17.5
		v-0.2v-0.8v0v-0.1v-0.1h0.8v0.1v0v0v0v0.8v0.2v0L40.6,17.5L40.6,17.5z M38.9,17.5v-0.2v-0.8v0v0v0v-0.1h0.8v0.1v0v0v0v0.8v0.2v0
		L38.9,17.5L38.9,17.5z M37.2,17.5v-0.2v-0.9v0v-0.1H38v0.1v0.1v0.8v0.2v0L37.2,17.5L37.2,17.5z"/>
	<path class="st47" d="M36.8,16h6.7v-2.7h-6.7V16z M38,14.6v0.2v0.2v0.4v0.2v0.1h-0.8v-0.1v-0.2v-0.4v-0.2v-0.2v0L38,14.6L38,14.6z
		 M42.3,15.7v-0.2v-0.4v-0.2v-0.2v0H43v0v0.2v0.2v0.4v0.2v0.1L42.3,15.7L42.3,15.7z M40.6,15.7v-0.2v-0.4v-0.2v-0.2v0h0.8v0v0.2v0.2
		v0.4v0.2v0.1L40.6,15.7L40.6,15.7z M38.9,15.7v-0.2v-0.4v-0.2v-0.2v0h0.8v0v0.2v0.2v0.4v0.2v0.1L38.9,15.7L38.9,15.7z"/>
	<path class="st47" d="M36.4,14.7c0,0-0.1-0.1-0.1-0.1s-0.1,0-0.2,0h-9.6c-0.1,0-0.1,0-0.2,0c0,0-0.1,0.1-0.1,0.1
		c0,0-0.1,0.1-0.1,0.1c0,0.1,0,0.1,0,0.2v1h0.7c0.2-0.1,0.4-0.2,0.7-0.3c0.1,0,0.2-0.1,0.4-0.1c0.1,0,0.2,0,0.4,0s0.2,0,0.4,0
		s0.2,0,0.4,0.1c0.2,0.1,0.5,0.1,0.7,0.3h3.2c0.1-0.1,0.2-0.1,0.3-0.2c0.1,0,0.2-0.1,0.3-0.1c0.1,0,0.1,0,0.2,0s0.1,0,0.2,0
		s0.1,0,0.2,0c0,0,0.1,0,0.1,0c0,0,0.1,0,0.1,0s0.1,0,0.1,0c0,0,0.1,0,0.1,0c0.1,0,0.1,0,0.2,0s0.1,0,0.2,0c0.1,0,0.1,0,0.2,0
		c0.1,0,0.2,0.1,0.3,0.1s0.2,0.1,0.3,0.2h1.1v-1c0-0.1,0-0.1,0-0.2C36.5,14.8,36.4,14.7,36.4,14.7z"/>
	<path class="st47" d="M35.5,17.7l-0.2,0.2c0.1,0.2,0.2,0.4,0.2,0.6h0.3c0-0.1,0-0.3-0.1-0.5C35.6,17.9,35.6,17.8,35.5,17.7z"/>
	<path class="st47" d="M35.3,19.4l0.2,0.2c0.1-0.1,0.1-0.3,0.2-0.4s0.1-0.3,0.1-0.4h-0.3C35.5,19,35.4,19.2,35.3,19.4z"/>
	<path class="st47" d="M34.7,17l-0.1,0.3c0.2,0.1,0.4,0.2,0.5,0.4l0.2-0.2C35.2,17.3,35,17.1,34.7,17z"/>
	<path class="st47" d="M35.4,19.7l-0.2-0.2c-0.2,0.2-0.3,0.3-0.5,0.4l0.1,0.3C35,20.1,35.2,20,35.4,19.7z"/>
	<path class="st47" d="M34.1,16.9C34.1,16.9,34.1,16.9,34.1,16.9c-0.1,0-0.1,0-0.1,0s0,0-0.1,0s0,0-0.1,0c0,0-0.1,0-0.1,0
		c-0.1,0-0.2,0-0.2,0l0.1,0.3c0.1,0,0.1,0,0.2,0c0,0,0.1,0,0.1,0s0.1,0,0.1,0s0.1,0,0.1,0s0.1,0,0.1,0c0.1,0,0.1,0,0.2,0l0.1-0.3
		C34.4,16.9,34.3,16.9,34.1,16.9C34.2,16.9,34.2,16.9,34.1,16.9z"/>
	<path class="st47" d="M34.2,20.1C34.2,20.1,34.1,20.1,34.2,20.1c-0.1,0-0.1,0-0.2,0s-0.1,0-0.1,0s-0.1,0-0.1,0c-0.1,0-0.1,0-0.2,0
		l-0.1,0.3c0.1,0,0.1,0,0.2,0c0,0,0.1,0,0.1,0c0,0,0,0,0.1,0s0,0,0.1,0s0,0,0.1,0s0,0,0.1,0c0,0,0.1,0,0.1,0c0.1,0,0.2,0,0.2,0
		L34.4,20C34.3,20,34.3,20,34.2,20.1z"/>
	<path class="st47" d="M32.7,17.5l0.2,0.2c0.1-0.1,0.2-0.2,0.2-0.2c0.1-0.1,0.2-0.1,0.3-0.2L33.4,17C33.1,17.1,32.9,17.3,32.7,17.5z
		"/>
	<path class="st47" d="M32.9,19.5l-0.2,0.2c0.1,0.1,0.2,0.2,0.3,0.3s0.2,0.2,0.4,0.2l0.1-0.3C33.3,19.9,33.1,19.7,32.9,19.5z"/>
	<path class="st47" d="M32.3,18.5h0.3c0-0.2,0.1-0.5,0.2-0.6l-0.2-0.2c-0.1,0.1-0.1,0.3-0.2,0.4C32.3,18.2,32.3,18.4,32.3,18.5z"/>
	<path class="st47" d="M32.8,19.4c-0.1-0.2-0.2-0.4-0.2-0.6h-0.3c0,0.1,0,0.3,0.1,0.4c0,0.1,0.1,0.3,0.2,0.4L32.8,19.4z"/>
	<path class="st47" d="M29.5,18.8l0.3,0.1c0,0,0-0.1,0-0.1c0,0,0,0,0-0.1c0,0,0,0,0-0.1s0,0,0-0.1s0,0,0,0c0,0,0-0.1,0-0.1l-0.3,0.1
		c0,0,0,0.1,0,0.1c0,0,0,0,0,0C29.5,18.7,29.5,18.8,29.5,18.8z"/>
	<path class="st47" d="M29.6,17.8l-0.3,0.2c0,0,0,0,0,0.1c0,0.1,0.1,0.2,0.1,0.2l0.3-0.1c0,0,0-0.1,0-0.1
		C29.7,18,29.7,17.9,29.6,17.8z"/>
	<path class="st47" d="M29.8,19.1L29.5,19c0,0,0,0.1,0,0.1c0,0.1-0.1,0.2-0.1,0.2l0.3,0.2C29.7,19.4,29.7,19.2,29.8,19.1z"/>
	<path class="st47" d="M29.2,17.2L29,17.5c0.1,0.1,0.2,0.2,0.2,0.2l0.3-0.2C29.4,17.4,29.3,17.3,29.2,17.2z"/>
	<path class="st47" d="M29,19.8l0.2,0.3c0.1-0.1,0.2-0.2,0.3-0.3l-0.3-0.2C29.1,19.6,29.1,19.7,29,19.8z"/>
	<path class="st47" d="M28.5,17.2c0.1,0,0.2,0.1,0.3,0.1l0.2-0.3c-0.1-0.1-0.3-0.1-0.4-0.2L28.5,17.2z"/>
	<path class="st47" d="M28.5,20.3c0,0,0.1,0,0.1,0c0.1,0,0.2-0.1,0.3-0.1l-0.2-0.3c0,0,0,0-0.1,0c-0.1,0-0.2,0.1-0.2,0.1L28.5,20.3z
		"/>
	<path class="st47" d="M28.2,16.9C28.2,16.9,28.2,16.9,28.2,16.9c-0.1,0-0.1,0-0.1,0c0,0,0,0-0.1,0c0,0,0,0-0.1,0c0,0-0.1,0-0.1,0
		l0.1,0.3c0,0,0.1,0,0.1,0s0.1,0,0.1,0s0.1,0,0.1,0s0.1,0,0.1,0l0.1-0.3C28.3,16.9,28.3,16.9,28.2,16.9z"/>
	<path class="st47" d="M28.2,20.1C28.1,20.1,28.1,20.1,28.2,20.1c-0.1,0-0.1,0-0.2,0c0,0-0.1,0-0.1,0l-0.1,0.3c0,0,0.1,0,0.1,0
		c0,0,0,0,0.1,0c0,0,0,0,0.1,0c0,0,0,0,0.1,0c0,0,0,0,0.1,0c0,0,0.1,0,0.1,0L28.2,20.1C28.2,20.1,28.2,20.1,28.2,20.1z"/>
	<path class="st47" d="M27.7,20C27.7,20,27.6,20,27.7,20c-0.2-0.1-0.2-0.1-0.3-0.1l-0.2,0.3c0,0,0.1,0,0.1,0c0.1,0,0.2,0.1,0.3,0.1
		L27.7,20z"/>
	<path class="st47" d="M27.2,17.1l0.2,0.3c0.1-0.1,0.2-0.1,0.3-0.1l-0.1-0.3C27.5,17,27.3,17,27.2,17.1z"/>
	<path class="st47" d="M27,19.5l-0.3,0.2c0.1,0.1,0.2,0.2,0.3,0.3l0.2-0.3C27.1,19.7,27,19.6,27,19.5z"/>
	<path class="st47" d="M26.7,17.6l0.3,0.2c0.1-0.1,0.2-0.2,0.2-0.2L27,17.2C26.9,17.3,26.8,17.4,26.7,17.6z"/>
	<path class="st47" d="M26.8,19.4C26.8,19.3,26.8,19.3,26.8,19.4c-0.1-0.2-0.1-0.2-0.1-0.3l-0.3,0.1c0,0.1,0.1,0.3,0.2,0.4
		L26.8,19.4z"/>
	<path class="st47" d="M26.5,17.9c0,0.1-0.1,0.2-0.1,0.3l0.3,0.1c0,0,0-0.1,0-0.1c0-0.1,0.1-0.2,0.1-0.2l-0.3-0.2
		C26.5,17.8,26.5,17.8,26.5,17.9z"/>
	<path class="st47" d="M26.4,18.5C26.4,18.5,26.4,18.6,26.4,18.5c0,0.1,0,0.1,0,0.1s0,0,0,0.1c0,0,0,0,0,0.1c0,0,0,0.1,0,0.1
		l0.3-0.1c0,0,0-0.1,0-0.1c0,0,0,0,0,0c0,0,0-0.1,0-0.1l-0.3-0.1C26.4,18.4,26.4,18.5,26.4,18.5z"/>
	<path class="st47" d="M15.8,15.9c0,0,0.1,0.1,0.1,0.1c0.1,0,0.1,0,0.2,0h9.2c0.1,0,0.1,0,0.2,0c0,0,0.1-0.1,0.1-0.1
		c0,0,0.1-0.1,0.1-0.1c0-0.1,0-0.1,0-0.2v-2.2H15.6v2.2c0,0.1,0,0.1,0,0.2C15.7,15.8,15.7,15.8,15.8,15.9z M17.3,14.8L17.3,14.8v1
		v0.1l0,0h-0.8v-0.1v-0.9v-0.1v-0.2h0.8l0,0V14.8z M19.2,14.8L19.2,14.8v1v0.1h-0.8v-0.1v-0.9v-0.1v-0.2h0.8V14.8z M21.1,14.8
		L21.1,14.8v1v0.1h-0.8v-0.1v-0.9v-0.1v-0.2h0.8V14.8z M23,14.8L23,14.8v1v0.1h-0.8l0,0v-1.2l0,0H23V14.8z M24.9,14.8L24.9,14.8v1
		v0.1h-0.8v-0.1v-0.9v-0.1v-0.2h0.8V14.8z"/>
	<polygon class="st52" points="62.3,17.5 62.3,17.3 62.3,16.5 62.3,16.5 62.3,16.5 62.3,16.4 62.3,16.4 62.3,16.3 63.1,16.3 
		63.1,16.4 63.1,16.5 63.1,16.5 63.1,17.3 63.1,17.5 63.1,17.6 62.3,17.6 	"/>
	<polygon class="st52" points="60.7,17.5 60.7,17.3 60.7,16.5 60.7,16.5 60.7,16.4 60.7,16.3 61.4,16.3 61.4,16.4 61.4,16.5 
		61.4,16.5 61.4,17.3 61.4,17.5 61.4,17.6 60.7,17.6 	"/>
	<polygon class="st52" points="59,17.5 59,17.3 59,16.5 59,16.5 59,16.4 59,16.3 59.8,16.3 59.8,16.4 59.8,16.5 59.8,16.5 
		59.8,17.3 59.8,17.5 59.8,17.6 59,17.6 	"/>
	<polygon class="st52" points="58.1,16.4 58.1,16.4 58.1,16.5 58.1,16.5 58.1,16.5 58.1,17.3 58.1,17.5 58.1,17.6 57.3,17.6 
		57.3,17.5 57.3,17.3 57.3,16.5 57.3,16.5 57.3,16.4 57.3,16.3 58.1,16.3 	"/>
	<polygon class="st52" points="58.1,14.6 58.1,14.8 58.1,15.7 58.1,15.8 57.3,15.8 57.3,15.7 57.3,14.8 57.3,14.6 57.3,14.6 
		58.1,14.6 	"/>
	<polygon class="st52" points="59.8,14.6 59.8,14.8 59.8,15.7 59.8,15.8 59,15.8 59,15.7 59,14.8 59,14.6 59,14.6 59.8,14.6 	"/>
	<polygon class="st52" points="61.4,14.6 61.4,14.8 61.4,15.1 61.4,15.5 61.4,15.7 61.4,15.8 60.7,15.8 60.7,15.7 60.7,15.5 
		60.7,15.1 60.7,14.8 60.7,14.6 60.7,14.6 61.4,14.6 	"/>
	<polygon class="st52" points="63.1,14.6 63.1,14.8 63.1,15.1 63.1,15.5 63.1,15.7 63.1,15.8 62.3,15.8 62.3,15.7 62.3,15.5 
		62.3,15.1 62.3,14.8 62.3,14.6 62.3,14.6 63.1,14.6 	"/>
	<polygon class="st52" points="55.6,17.5 55.6,17.3 55.6,16.5 55.6,16.5 55.6,16.5 55.6,16.4 55.6,16.4 55.6,16.3 56.4,16.3 
		56.4,16.4 56.4,16.5 56.4,16.5 56.4,17.3 56.4,17.5 56.4,17.6 55.6,17.6 	"/>
	<polygon class="st52" points="54,17.5 54,17.3 54,16.5 54,16.5 54,16.4 54,16.3 54.7,16.3 54.7,16.4 54.7,16.5 54.7,16.5 
		54.7,17.3 54.7,17.5 54.7,17.6 54,17.6 	"/>
	<polygon class="st52" points="52.3,17.5 52.3,17.3 52.3,16.4 52.3,16.4 52.3,16.3 53.1,16.3 53.1,16.4 53.1,16.4 53.1,17.3 
		53.1,17.5 53.1,17.6 52.3,17.6 	"/>
	<polygon class="st52" points="50.6,17.5 50.6,17.3 50.6,16.5 50.6,16.5 50.6,16.4 50.6,16.3 51.4,16.3 51.4,16.4 51.4,16.4 
		51.4,16.5 51.4,16.5 51.4,16.5 51.4,17.3 51.4,17.5 51.4,17.6 50.6,17.6 	"/>
	<polygon class="st52" points="51.4,14.6 51.4,14.8 51.4,15.7 51.4,15.8 50.6,15.8 50.6,15.7 50.6,14.8 50.6,14.6 50.6,14.6 
		51.4,14.6 	"/>
	<polygon class="st52" points="54.7,14.6 54.7,14.8 54.7,15.7 54.7,15.8 54,15.8 54,15.7 54,14.8 54,14.6 54,14.6 54.7,14.6 	"/>
	<polygon class="st52" points="55.6,15.7 55.6,14.8 55.6,14.6 55.6,14.6 56.4,14.6 56.4,14.6 56.4,14.8 56.4,15.7 56.4,15.8 
		55.6,15.8 	"/>
	<polygon class="st52" points="52.3,15.7 52.3,14.8 52.3,14.6 52.3,14.6 53.1,14.6 53.1,14.6 53.1,14.8 53.1,15.7 53.1,15.8 
		52.3,15.8 	"/>
	<polygon class="st52" points="49,17.5 49,17.3 49,16.5 49,16.5 49,16.5 49,16.4 49,16.4 49,16.3 49.7,16.3 49.7,16.3 49.7,17.6 
		49.7,17.6 49,17.6 	"/>
	<polygon class="st52" points="47.3,17.5 47.3,17.3 47.3,16.5 47.3,16.5 47.3,16.4 47.3,16.3 48,16.3 48,16.4 48,16.5 48,16.5 
		48,16.5 48,17.3 48,17.5 48,17.6 47.3,17.6 	"/>
	<polygon class="st52" points="45.6,17.5 45.6,17.3 45.6,16.5 45.6,16.5 45.6,16.5 45.6,16.4 45.6,16.3 46.4,16.3 46.4,16.4 
		46.4,16.5 46.4,16.5 46.4,16.5 46.4,17.3 46.4,17.5 46.4,17.6 45.6,17.6 	"/>
	<polygon class="st52" points="43.9,17.5 43.9,17.3 43.9,16.5 43.9,16.5 43.9,16.4 43.9,16.3 44.7,16.3 44.7,16.4 44.7,16.4 
		44.7,16.5 44.7,16.5 44.7,16.5 44.7,17.3 44.7,17.5 44.7,17.6 43.9,17.6 	"/>
	<polygon class="st52" points="44.7,14.6 44.7,14.8 44.7,15.1 44.7,15.5 44.7,15.7 44.7,15.8 43.9,15.8 43.9,15.7 43.9,15.5 
		43.9,15.1 43.9,14.8 43.9,14.6 43.9,14.6 44.7,14.6 	"/>
	<polygon class="st52" points="46.4,14.6 46.4,14.8 46.4,15.1 46.4,15.5 46.4,15.7 46.4,15.8 45.6,15.8 45.6,15.7 45.6,15.5 
		45.6,15.1 45.6,14.8 45.6,14.6 45.6,14.6 46.4,14.6 	"/>
	<polygon class="st52" points="49,15.7 49,15.5 49,15.1 49,14.8 49,14.6 49,14.6 49.7,14.6 49.7,14.6 49.7,15.8 49.7,15.8 49,15.8 	
		"/>
	<polygon class="st52" points="48,14.6 48,14.8 48,15.1 48,15.5 48,15.7 48,15.8 47.3,15.8 47.3,15.7 47.3,15.5 47.3,15.1 
		47.3,14.8 47.3,14.6 47.3,14.6 47.7,14.6 48,14.6 	"/>
	<polygon class="st52" points="42.3,17.5 42.3,17.3 42.3,16.5 42.3,16.5 42.3,16.5 42.3,16.4 42.3,16.4 42.3,16.3 43,16.3 43,16.4 
		43,16.4 43,16.5 43,16.5 43,16.5 43,17.3 43,17.5 43,17.6 42.3,17.6 	"/>
	<polygon class="st52" points="40.6,17.5 40.6,17.3 40.6,16.5 40.6,16.5 40.6,16.4 40.6,16.3 41.4,16.3 41.4,16.4 41.4,16.5 
		41.4,16.5 41.4,16.5 41.4,17.3 41.4,17.5 41.4,17.6 40.6,17.6 	"/>
	<polygon class="st52" points="38.9,17.5 38.9,17.3 38.9,16.5 38.9,16.5 38.9,16.5 38.9,16.4 38.9,16.3 39.7,16.3 39.7,16.4 
		39.7,16.5 39.7,16.5 39.7,16.5 39.7,17.3 39.7,17.5 39.7,17.6 38.9,17.6 	"/>
	<polygon class="st52" points="37.2,17.5 37.2,17.3 37.2,16.4 37.2,16.4 37.2,16.3 38,16.3 38,16.4 38,16.5 38,17.3 38,17.5 
		38,17.6 37.2,17.6 	"/>
	<polygon class="st52" points="38,14.6 38,14.8 38,15.1 38,15.5 38,15.7 38,15.8 37.2,15.8 37.2,15.7 37.2,15.5 37.2,15.1 
		37.2,14.8 37.2,14.6 37.2,14.6 38,14.6 	"/>
	<polygon class="st52" points="42.3,15.7 42.3,15.5 42.3,15.1 42.3,14.8 42.3,14.6 42.3,14.6 43,14.6 43,14.6 43,14.8 43,15.1 
		43,15.5 43,15.7 43,15.8 42.3,15.8 	"/>
	<polygon class="st52" points="40.6,15.7 40.6,15.5 40.6,15.1 40.6,14.8 40.6,14.6 40.6,14.6 41.4,14.6 41.4,14.6 41.4,14.8 
		41.4,15.1 41.4,15.5 41.4,15.7 41.4,15.8 40.6,15.8 	"/>
	<polygon class="st52" points="38.9,15.7 38.9,15.5 38.9,15.1 38.9,14.8 38.9,14.6 38.9,14.6 39.7,14.6 39.7,14.6 39.7,14.8 
		39.7,15.1 39.7,15.5 39.7,15.7 39.7,15.8 38.9,15.8 	"/>
	<polygon class="st52" points="17.3,14.8 17.3,14.8 17.3,15.7 17.3,15.8 17.3,15.8 16.6,15.8 16.6,15.7 16.6,14.8 16.6,14.8 
		16.6,14.6 17.3,14.6 17.3,14.6 	"/>
	<polygon class="st52" points="19.2,14.8 19.2,14.8 19.2,15.7 19.2,15.8 18.5,15.8 18.5,15.7 18.5,14.8 18.5,14.8 18.5,14.6 
		19.2,14.6 	"/>
	<polygon class="st52" points="21.1,14.8 21.1,14.8 21.1,15.7 21.1,15.8 20.3,15.8 20.3,15.7 20.3,14.8 20.3,14.8 20.3,14.6 
		21.1,14.6 	"/>
	<polygon class="st52" points="23,14.8 23,14.8 23,15.7 23,15.8 22.2,15.8 22.2,15.8 22.2,14.6 22.2,14.6 23,14.6 	"/>
	<polygon class="st52" points="24.9,14.8 24.9,14.8 24.9,15.7 24.9,15.8 24.1,15.8 24.1,15.7 24.1,14.8 24.1,14.8 24.1,14.6 
		24.9,14.6 	"/>
</g>
</svg>
