<svg xmlns="http://www.w3.org/2000/svg" width="74" height="48" viewBox="0 0 74 48"><title>cc-link_rio_tb2</title><rect width="74" height="48" fill="#fff"/><rect x="9.457" y="12.094" width="55.087" height="23.812" fill="#939494"/><line x1="10.462" y1="25.742" x2="63.538" y2="25.742" fill="none" stroke="#333" stroke-width="0.364"/><polygon points="10.59 20.409 10.59 23.467 11.085 23.467 11.085 25.018 10.59 25.018 10.59 25.742 10.462 25.742 10.462 22.713 9.457 22.713 9.457 20.409 10.59 20.409" fill="#333"/><polygon points="63.409 20.409 63.409 23.467 62.915 23.467 62.915 25.018 63.409 25.018 63.409 25.742 63.538 25.742 63.538 22.713 64.543 22.713 64.543 20.409 63.409 20.409" fill="#333"/><polygon points="9.454 35.906 9.457 22.713 10.462 22.713 10.462 25.742 63.538 25.742 63.538 22.713 64.543 22.713 64.544 35.906 9.454 35.906" fill="#4d4d4d" stroke="#231815" stroke-width="0.129" opacity="0.4"/><rect x="47.396" y="20.839" width="2.545" height="3.457" fill="#333" stroke="#231815" stroke-width="0.129" opacity="0.4"/><rect x="47.48" y="21.697" width="2.377" height="1.742" fill="#333"/><rect x="47.784" y="22.016" width="0.622" height="1.104" fill="#1a1a1a"/><rect x="47.866" y="22.177" width="0.459" height="0.39" fill="#fff"/><rect x="48.931" y="22.016" width="0.622" height="1.104" fill="#1a1a1a"/><rect x="49.013" y="22.177" width="0.459" height="0.39" fill="#fff"/><rect x="54.635" y="20.839" width="2.545" height="3.457" fill="#333" stroke="#231815" stroke-width="0.129" opacity="0.4"/><rect x="54.719" y="21.697" width="2.377" height="1.742" fill="#333"/><rect x="55.023" y="22.016" width="0.622" height="1.104" fill="#1a1a1a"/><rect x="55.105" y="22.177" width="0.459" height="0.39" fill="#fff"/><rect x="56.17" y="22.016" width="0.622" height="1.104" fill="#1a1a1a"/><rect x="56.252" y="22.177" width="0.459" height="0.39" fill="#fff"/><path d="M61.146,14.427a1.1,1.1,0,0,0,1.088,1.1h2.309V12.094h-3.4v2.333Z" fill="#333"/><ellipse cx="62.772" cy="13.81" rx="0.836" ry="0.844" fill="#fff"/><circle cx="21.855" cy="16.924" r="0.377"/><circle cx="21.855" cy="18.046" r="0.377"/><circle cx="21.855" cy="19.169" r="0.377"/><circle cx="21.855" cy="20.292" r="0.377"/><circle cx="21.855" cy="21.415" r="0.377"/><circle cx="21.855" cy="22.538" r="0.377"/><circle cx="21.855" cy="23.661" r="0.377"/><circle cx="23.727" cy="16.924" r="0.377"/><circle cx="23.727" cy="18.046" r="0.377"/><circle cx="23.727" cy="19.169" r="0.377"/><circle cx="23.727" cy="20.292" r="0.377"/><circle cx="23.727" cy="21.415" r="0.377"/><circle cx="23.727" cy="22.538" r="0.377"/><circle cx="23.727" cy="23.661" r="0.377"/><ellipse cx="44.003" cy="16.924" rx="0.376" ry="0.38"/><ellipse cx="44.003" cy="18.046" rx="0.376" ry="0.38"/><ellipse cx="44.003" cy="19.169" rx="0.376" ry="0.38"/><ellipse cx="44.003" cy="20.292" rx="0.376" ry="0.38"/><ellipse cx="44.003" cy="21.415" rx="0.376" ry="0.38"/><ellipse cx="44.003" cy="22.538" rx="0.376" ry="0.38"/><ellipse cx="59.611" cy="22.64" rx="0.91" ry="0.919"/><ellipse cx="59.611" cy="22.64" rx="0.585" ry="0.591" fill="#fff"/><path d="M49.113,17.722a0.914,0.914,0,0,1-.156.082,0.892,0.892,0,0,1-.167.053,0.856,0.856,0,0,1-.352,0,0.909,0.909,0,0,1-.167-0.053,1.057,1.057,0,0,1-.156-0.082,0.84,0.84,0,0,1-.135-0.114,0.819,0.819,0,0,1-.113-0.137,1.03,1.03,0,0,1-.084-0.157,0.868,0.868,0,0,1-.049-0.171,0.75,0.75,0,0,1-.018-0.176,0.783,0.783,0,0,1,.018-0.178,0.862,0.862,0,0,1,.049-0.171,1.041,1.041,0,0,1,.084-0.158,0.922,0.922,0,0,1,.113-0.137,0.827,0.827,0,0,1,.135-0.112,0.927,0.927,0,0,1,.323-0.137,0.856,0.856,0,0,1,.352,0,0.864,0.864,0,0,1,.167.053,0.779,0.779,0,0,1,.156.084,0.942,0.942,0,0,1,.138.112,0.956,0.956,0,0,1,.111.137,1.088,1.088,0,0,1,.083.158,1.1,1.1,0,0,1,.052.171,1.156,1.156,0,0,1,.013.116,0.5,0.5,0,0,1,0,.061v0.018l-0.005.061a0.858,0.858,0,0,1-.011.1,1.111,1.111,0,0,1-.052.171,1.075,1.075,0,0,1-.083.157,0.846,0.846,0,0,1-.111.137A0.958,0.958,0,0,1,49.113,17.722Z" fill="#3e3a39"/><path d="M48.612,16.271a0.686,0.686,0,0,1,.31.072H48.669l-0.056-.054-0.053.054H48.306A0.681,0.681,0,0,1,48.612,16.271Z" fill="#ab6a00"/><polygon points="48.669 16.343 48.978 16.656 48.794 16.656 48.794 17.555 48.431 17.555 48.431 16.656 48.249 16.656 48.559 16.343 48.612 16.289 48.669 16.343" fill="#824e00"/><path d="M48.978,16.656l-0.31-.313h0.253a0.692,0.692,0,1,1-.617,0h0.253l-0.31.313h0.182v0.9h0.363v-0.9h0.184Z" fill="#f29600"/><path d="M52.679,17.722a0.914,0.914,0,0,1-.156.082,0.892,0.892,0,0,1-.167.053,0.856,0.856,0,0,1-.352,0,0.909,0.909,0,0,1-.167-0.053,1.057,1.057,0,0,1-.156-0.082,0.84,0.84,0,0,1-.135-0.114,0.819,0.819,0,0,1-.113-0.137,1.03,1.03,0,0,1-.084-0.157,0.868,0.868,0,0,1-.049-0.171,0.75,0.75,0,0,1-.018-0.176,0.783,0.783,0,0,1,.018-0.178,0.862,0.862,0,0,1,.049-0.171,1.041,1.041,0,0,1,.084-0.158,0.922,0.922,0,0,1,.113-0.137,0.827,0.827,0,0,1,.135-0.112A0.927,0.927,0,0,1,52,16.075a0.856,0.856,0,0,1,.352,0,0.864,0.864,0,0,1,.167.053,0.779,0.779,0,0,1,.156.084,0.942,0.942,0,0,1,.138.112,0.957,0.957,0,0,1,.111.137,1.088,1.088,0,0,1,.083.158,1.1,1.1,0,0,1,.052.171,1.156,1.156,0,0,1,.013.116,0.5,0.5,0,0,1,0,.061v0.018l-0.005.061a0.858,0.858,0,0,1-.011.1,1.111,1.111,0,0,1-.052.171,1.076,1.076,0,0,1-.083.157,0.846,0.846,0,0,1-.111.137A0.958,0.958,0,0,1,52.679,17.722Z" fill="#3e3a39"/><path d="M52.179,16.271a0.686,0.686,0,0,1,.31.072H52.235l-0.056-.054-0.053.054H51.872A0.681,0.681,0,0,1,52.179,16.271Z" fill="#ab6a00"/><polygon points="52.235 16.343 52.545 16.656 52.36 16.656 52.36 17.555 51.997 17.555 51.997 16.656 51.815 16.656 52.125 16.343 52.179 16.289 52.235 16.343" fill="#824e00"/><path d="M52.545,16.656l-0.31-.313h0.253a0.692,0.692,0,1,1-.617,0h0.253l-0.31.313H52v0.9H52.36v-0.9h0.184Z" fill="#f29600"/><path d="M56.245,17.722a0.914,0.914,0,0,1-.156.082,0.892,0.892,0,0,1-.167.053,0.856,0.856,0,0,1-.352,0A0.909,0.909,0,0,1,55.4,17.8a1.057,1.057,0,0,1-.156-0.082,0.84,0.84,0,0,1-.135-0.114A0.819,0.819,0,0,1,55,17.471a1.03,1.03,0,0,1-.084-0.157,0.868,0.868,0,0,1-.049-0.171,0.75,0.75,0,0,1-.018-0.176,0.783,0.783,0,0,1,.018-0.178,0.862,0.862,0,0,1,.049-0.171A1.041,1.041,0,0,1,55,16.46a0.922,0.922,0,0,1,.113-0.137,0.827,0.827,0,0,1,.135-0.112,0.927,0.927,0,0,1,.323-0.137,0.856,0.856,0,0,1,.352,0,0.864,0.864,0,0,1,.167.053,0.779,0.779,0,0,1,.156.084,0.942,0.942,0,0,1,.138.112,0.956,0.956,0,0,1,.111.137,1.088,1.088,0,0,1,.083.158,1.1,1.1,0,0,1,.052.171,1.156,1.156,0,0,1,.013.116,0.5,0.5,0,0,1,0,.061v0.018l-0.005.061a0.858,0.858,0,0,1-.011.1,1.111,1.111,0,0,1-.052.171,1.075,1.075,0,0,1-.083.157,0.846,0.846,0,0,1-.111.137A0.958,0.958,0,0,1,56.245,17.722Z" fill="#3e3a39"/><path d="M55.745,16.271a0.686,0.686,0,0,1,.31.072H55.8l-0.056-.054-0.053.054H55.438A0.681,0.681,0,0,1,55.745,16.271Z" fill="#ab6a00"/><polygon points="55.801 16.343 56.111 16.656 55.927 16.656 55.927 17.555 55.563 17.555 55.563 16.656 55.381 16.656 55.691 16.343 55.745 16.289 55.801 16.343" fill="#824e00"/><path d="M56.111,16.656l-0.31-.313h0.253a0.692,0.692,0,1,1-.617,0h0.253l-0.31.313h0.182v0.9h0.363v-0.9h0.184Z" fill="#f29600"/><rect x="58.593" y="26.779" width="3.454" height="3.489" fill="#fff"/><rect x="56.866" y="30.488" width="3.454" height="3.489" fill="#fff"/><rect x="54.945" y="26.779" width="3.454" height="3.489" fill="#fff"/><rect x="53.218" y="30.488" width="3.454" height="3.489" fill="#fff"/><rect x="51.298" y="26.779" width="3.454" height="3.489" fill="#fff"/><rect x="49.571" y="30.488" width="3.454" height="3.489" fill="#fff"/><rect x="47.651" y="26.779" width="3.454" height="3.489" fill="#fff"/><rect x="45.923" y="30.488" width="3.454" height="3.489" fill="#fff"/><rect x="44.003" y="26.779" width="3.454" height="3.489" fill="#fff"/><rect x="42.276" y="30.488" width="3.454" height="3.489" fill="#fff"/><rect x="40.356" y="26.779" width="3.454" height="3.489" fill="#fff"/><rect x="38.629" y="30.488" width="3.454" height="3.489" fill="#fff"/><rect x="36.708" y="26.779" width="3.454" height="3.489" fill="#fff"/><rect x="34.981" y="30.488" width="3.454" height="3.489" fill="#fff"/><rect x="33.061" y="26.779" width="3.454" height="3.489" fill="#fff"/><rect x="31.334" y="30.488" width="3.454" height="3.489" fill="#fff"/><rect x="29.414" y="26.779" width="3.454" height="3.489" fill="#fff"/><rect x="27.686" y="30.488" width="3.454" height="3.489" fill="#fff"/><rect x="25.766" y="26.779" width="3.454" height="3.489" fill="#fff"/><rect x="24.039" y="30.488" width="3.454" height="3.489" fill="#fff"/><rect x="22.119" y="26.779" width="3.454" height="3.489" fill="#fff"/><rect x="20.392" y="30.488" width="3.454" height="3.489" fill="#fff"/><rect x="18.471" y="26.779" width="3.454" height="3.489" fill="#fff"/><rect x="11.177" y="26.779" width="3.454" height="3.489" fill="#fff"/><rect x="16.744" y="30.488" width="3.454" height="3.489" fill="#fff"/><rect x="14.824" y="26.779" width="3.454" height="3.489" fill="#fff"/><rect x="13.097" y="30.488" width="3.454" height="3.489" fill="#fff"/><rect x="9.457" y="12.094" width="55.087" height="23.812" fill="none" stroke="#000" stroke-width="0.193"/><rect x="18.679" y="29.09" width="3.04" height="0.959" fill="#4d4d4d"/><rect x="22.326" y="29.09" width="3.04" height="0.959" fill="#4d4d4d"/></svg>