<svg xmlns="http://www.w3.org/2000/svg" width="74" height="48.002" viewBox="0 0 74 48.002"><title>cc-link_rio_onecn1</title><rect y="0.001" width="74" height="48" fill="#fff"/><rect x="28.75" y="0.108" width="16.501" height="47.786" fill="#9e9e9f"/><rect x="29.748" y="2.273" width="10.977" height="7.769" fill="#404040"/><path d="M30.1,2.924a0.41,0.41,0,0,1,.4-0.415H39.97a0.41,0.41,0,0,1,.4.415V9.39a0.41,0.41,0,0,1-.4.415H30.5a0.41,0.41,0,0,1-.4-0.415V2.924Z" transform="translate(0 0.001)" fill="#1f1f1f"/><polygon points="39.357 9.035 39.357 7.191 40.225 7.191 40.225 5.162 39.357 5.162 39.357 3.318 31.116 3.318 31.116 5.162 30.248 5.162 30.248 7.191 31.116 7.191 31.116 9.035 39.357 9.035" fill="#363636"/><rect x="31.692" y="5.502" width="7.088" height="1.348" fill="#4d4d4d"/><rect x="37.165" y="7.664" width="0.999" height="0.677" fill="#4c4948"/><rect x="37.307" y="7.88" width="0.716" height="0.244" fill="#ae9a52"/><rect x="35.941" y="7.664" width="0.999" height="0.677" fill="#4c4948"/><rect x="36.082" y="7.88" width="0.715" height="0.244" fill="#ae9a52"/><rect x="34.716" y="7.664" width="0.999" height="0.677" fill="#4c4948"/><rect x="34.857" y="7.88" width="0.716" height="0.244" fill="#ae9a52"/><rect x="33.491" y="7.664" width="0.999" height="0.677" fill="#4c4948"/><rect x="33.632" y="7.88" width="0.716" height="0.244" fill="#ae9a52"/><rect x="32.266" y="7.664" width="0.999" height="0.677" fill="#4c4948"/><rect x="32.407" y="7.88" width="0.716" height="0.244" fill="#ae9a52"/><rect x="37.165" y="3.908" width="0.999" height="0.677" fill="#4c4948"/><rect x="37.307" y="4.124" width="0.716" height="0.244" fill="#ae9a52"/><rect x="35.941" y="3.908" width="0.999" height="0.677" fill="#4c4948"/><rect x="36.082" y="4.124" width="0.715" height="0.244" fill="#ae9a52"/><rect x="34.716" y="3.908" width="0.999" height="0.677" fill="#4c4948"/><rect x="34.857" y="4.124" width="0.716" height="0.244" fill="#ae9a52"/><rect x="33.491" y="3.908" width="0.999" height="0.677" fill="#4c4948"/><rect x="33.632" y="4.124" width="0.716" height="0.244" fill="#ae9a52"/><rect x="32.266" y="3.908" width="0.999" height="0.677" fill="#4c4948"/><rect x="32.407" y="4.124" width="0.716" height="0.244" fill="#ae9a52"/><rect x="29.877" y="37.455" width="10.719" height="7.769" fill="#404040"/><path d="M30.1,38.105a0.41,0.41,0,0,1,.4-0.415H39.97a0.41,0.41,0,0,1,.4.415v6.466a0.41,0.41,0,0,1-.4.415H30.5a0.41,0.41,0,0,1-.4-0.415V38.105Z" transform="translate(0 0.001)" fill="#1f1f1f"/><polygon points="39.357 44.216 39.357 42.373 40.225 42.373 40.225 40.343 39.357 40.343 39.357 38.499 31.116 38.499 31.116 40.343 30.248 40.343 30.248 42.373 31.116 42.373 31.116 44.216 39.357 44.216" fill="#363636"/><rect x="31.692" y="40.684" width="7.088" height="1.348" fill="#4d4d4d"/><rect x="37.165" y="42.845" width="0.999" height="0.677" fill="#4c4948"/><rect x="37.307" y="43.062" width="0.716" height="0.244" fill="#ae9a52"/><rect x="35.941" y="42.845" width="0.999" height="0.677" fill="#4c4948"/><rect x="36.082" y="43.062" width="0.715" height="0.244" fill="#ae9a52"/><rect x="34.716" y="42.845" width="0.999" height="0.677" fill="#4c4948"/><rect x="34.857" y="43.062" width="0.716" height="0.244" fill="#ae9a52"/><rect x="33.491" y="42.845" width="0.999" height="0.677" fill="#4c4948"/><rect x="33.632" y="43.062" width="0.716" height="0.244" fill="#ae9a52"/><rect x="32.266" y="42.845" width="0.999" height="0.677" fill="#4c4948"/><rect x="32.407" y="43.062" width="0.716" height="0.244" fill="#ae9a52"/><rect x="37.165" y="39.089" width="0.999" height="0.677" fill="#4c4948"/><rect x="37.307" y="39.306" width="0.716" height="0.244" fill="#ae9a52"/><rect x="35.941" y="39.089" width="0.999" height="0.677" fill="#4c4948"/><rect x="36.082" y="39.306" width="0.715" height="0.244" fill="#ae9a52"/><rect x="34.716" y="39.089" width="0.999" height="0.677" fill="#4c4948"/><rect x="34.857" y="39.306" width="0.716" height="0.244" fill="#ae9a52"/><rect x="33.491" y="39.089" width="0.999" height="0.677" fill="#4c4948"/><rect x="33.632" y="39.306" width="0.716" height="0.244" fill="#ae9a52"/><rect x="32.266" y="39.089" width="0.999" height="0.677" fill="#4c4948"/><rect x="32.407" y="39.306" width="0.716" height="0.244" fill="#ae9a52"/><rect x="30.1" y="10.043" width="9.821" height="25.592" fill="#404040"/><rect x="30.671" y="9.456" width="8.68" height="25.592" fill="#1f1f1f"/><polygon points="38.988 10.931 38.14 10.931 38.14 10.531 31.882 10.531 31.882 10.931 31.033 10.931 31.033 12.574 31.882 12.574 31.882 12.974 38.14 12.974 38.14 12.574 38.988 12.574 38.988 10.931" fill="#363636"/><rect x="32.234" y="11.25" width="0.973" height="1.004" fill="#1f1f1f"/><rect x="33.761" y="11.25" width="0.973" height="1.004" fill="#1f1f1f"/><rect x="35.288" y="11.25" width="0.973" height="1.004" fill="#1f1f1f"/><rect x="36.816" y="11.25" width="0.973" height="1.004" fill="#1f1f1f"/><polygon points="38.988 14.058 38.14 14.058 38.14 13.658 31.882 13.658 31.882 14.058 31.033 14.058 31.033 15.701 31.882 15.701 31.882 16.101 38.14 16.101 38.14 15.701 38.988 15.701 38.988 14.058" fill="#363636"/><rect x="32.234" y="14.378" width="0.973" height="1.005" fill="#1f1f1f"/><rect x="33.761" y="14.378" width="0.973" height="1.005" fill="#1f1f1f"/><rect x="35.288" y="14.378" width="0.973" height="1.005" fill="#1f1f1f"/><rect x="36.816" y="14.378" width="0.973" height="1.005" fill="#1f1f1f"/><polygon points="38.988 17.186 38.14 17.186 38.14 16.786 31.882 16.786 31.882 17.186 31.033 17.186 31.033 18.829 31.882 18.829 31.882 19.229 38.14 19.229 38.14 18.829 38.988 18.829 38.988 17.186" fill="#363636"/><rect x="32.234" y="17.505" width="0.973" height="1.005" fill="#1f1f1f"/><rect x="33.761" y="17.505" width="0.973" height="1.005" fill="#1f1f1f"/><rect x="35.288" y="17.505" width="0.973" height="1.005" fill="#1f1f1f"/><rect x="36.816" y="17.505" width="0.973" height="1.005" fill="#1f1f1f"/><polygon points="38.988 20.313 38.14 20.313 38.14 19.913 31.882 19.913 31.882 20.313 31.033 20.313 31.033 21.956 31.882 21.956 31.882 22.356 38.14 22.356 38.14 21.956 38.988 21.956 38.988 20.313" fill="#363636"/><rect x="32.234" y="20.633" width="0.973" height="1.005" fill="#1f1f1f"/><rect x="33.761" y="20.633" width="0.973" height="1.005" fill="#1f1f1f"/><rect x="35.288" y="20.633" width="0.973" height="1.005" fill="#1f1f1f"/><rect x="36.816" y="20.633" width="0.973" height="1.005" fill="#1f1f1f"/><polygon points="38.988 23.441 38.14 23.441 38.14 23.041 31.882 23.041 31.882 23.441 31.033 23.441 31.033 25.084 31.882 25.084 31.882 25.484 38.14 25.484 38.14 25.084 38.988 25.084 38.988 23.441" fill="#363636"/><rect x="32.234" y="23.76" width="0.973" height="1.005" fill="#1f1f1f"/><rect x="33.761" y="23.76" width="0.973" height="1.005" fill="#1f1f1f"/><rect x="35.288" y="23.76" width="0.973" height="1.005" fill="#1f1f1f"/><rect x="36.816" y="23.76" width="0.973" height="1.005" fill="#1f1f1f"/><polygon points="38.988 26.568 38.14 26.568 38.14 26.168 31.882 26.168 31.882 26.568 31.033 26.568 31.033 28.211 31.882 28.211 31.882 28.611 38.14 28.611 38.14 28.211 38.988 28.211 38.988 26.568" fill="#363636"/><rect x="32.234" y="26.888" width="0.973" height="1.005" fill="#1f1f1f"/><rect x="33.761" y="26.888" width="0.973" height="1.005" fill="#1f1f1f"/><rect x="35.288" y="26.888" width="0.973" height="1.005" fill="#1f1f1f"/><rect x="36.816" y="26.888" width="0.973" height="1.005" fill="#1f1f1f"/><polygon points="38.988 29.696 38.14 29.696 38.14 29.296 31.882 29.296 31.882 29.696 31.033 29.696 31.033 31.339 31.882 31.339 31.882 31.739 38.14 31.739 38.14 31.339 38.988 31.339 38.988 29.696" fill="#363636"/><rect x="32.234" y="30.015" width="0.973" height="1.005" fill="#1f1f1f"/><rect x="33.761" y="30.015" width="0.973" height="1.005" fill="#1f1f1f"/><rect x="35.288" y="30.015" width="0.973" height="1.005" fill="#1f1f1f"/><rect x="36.816" y="30.015" width="0.973" height="1.005" fill="#1f1f1f"/><polygon points="38.988 32.824 38.14 32.824 38.14 32.423 31.882 32.423 31.882 32.824 31.033 32.824 31.033 34.466 31.882 34.466 31.882 34.867 38.14 34.867 38.14 34.466 38.988 34.466 38.988 32.824" fill="#363636"/><rect x="32.234" y="33.142" width="0.973" height="1.005" fill="#1f1f1f"/><rect x="33.761" y="33.142" width="0.973" height="1.005" fill="#1f1f1f"/><rect x="35.288" y="33.142" width="0.973" height="1.005" fill="#1f1f1f"/><rect x="36.816" y="33.142" width="0.973" height="1.005" fill="#1f1f1f"/><rect x="28.75" y="0.108" width="16.501" height="47.786" fill="none" stroke="#231815" stroke-width="0.216"/></svg>