<svg xmlns="http://www.w3.org/2000/svg" width="74" height="48" viewBox="0 0 74 48"><title>cc-link_rio_rs232</title><rect width="74" height="48" fill="#fff"/><rect x="11.966" y="12.076" width="50.068" height="23.847" fill="#737373"/><rect x="50.443" y="23.687" width="6.629" height="2.309" fill="#4d4d4d" stroke="#4c4948" stroke-width="0.105"/><rect x="50.614" y="24.021" width="6.287" height="1.642" fill="#333"/><rect x="50.968" y="24.285" width="0.401" height="1.041" fill="#1a1a1a"/><rect x="51.02" y="24.437" width="0.296" height="0.368" fill="#fff"/><rect x="51.708" y="24.285" width="0.401" height="1.041" fill="#1a1a1a"/><rect x="51.76" y="24.437" width="0.296" height="0.368" fill="#fff"/><rect x="52.447" y="24.285" width="0.401" height="1.041" fill="#1a1a1a"/><rect x="52.5" y="24.437" width="0.296" height="0.368" fill="#fff"/><rect x="53.187" y="24.285" width="0.401" height="1.041" fill="#1a1a1a"/><rect x="53.24" y="24.437" width="0.296" height="0.368" fill="#fff"/><rect x="53.927" y="24.285" width="0.401" height="1.041" fill="#1a1a1a"/><rect x="53.98" y="24.437" width="0.296" height="0.368" fill="#fff"/><rect x="54.667" y="24.285" width="0.401" height="1.041" fill="#1a1a1a"/><rect x="54.72" y="24.437" width="0.296" height="0.368" fill="#fff"/><rect x="55.407" y="24.285" width="0.401" height="1.041" fill="#1a1a1a"/><rect x="55.46" y="24.437" width="0.296" height="0.368" fill="#fff"/><rect x="56.147" y="24.285" width="0.401" height="1.041" fill="#1a1a1a"/><rect x="56.2" y="24.437" width="0.296" height="0.368" fill="#fff"/><path d="M59.275,13.975a0.891,0.891,0,0,0,.884.894h1.875V12.076H59.275v1.9Z" fill="#333"/><ellipse cx="60.596" cy="13.473" rx="0.679" ry="0.687" fill="#fff"/><path d="M14.725,34.025a0.891,0.891,0,0,0-.884-0.894H11.966v2.792h2.759v-1.9Z" fill="#333"/><ellipse cx="13.404" cy="34.527" rx="0.679" ry="0.687" fill="#fff"/><rect x="11.966" y="27.693" width="50.068" height="0.343" fill="#333"/><rect x="14.912" y="28.036" width="0.339" height="7.888" fill="#333"/><rect x="29.392" y="28.036" width="0.339" height="7.888" fill="#333"/><rect x="46.912" y="28.036" width="0.339" height="7.888" fill="#333"/><rect x="61.393" y="28.036" width="0.339" height="7.888" fill="#333"/><rect x="15.25" y="28.036" width="14.142" height="7.888" fill="#4d4d4d" stroke="#4c4948" stroke-width="0.105"/><rect x="30.099" y="29.14" width="16.445" height="6.784" fill="#4d4d4d"/><rect x="47.251" y="28.036" width="14.142" height="7.888" fill="#4d4d4d" stroke="#4c4948" stroke-width="0.105"/><ellipse cx="58.979" cy="24.793" rx="0.739" ry="0.748"/><ellipse cx="58.979" cy="24.793" rx="0.475" ry="0.481" fill="#b50066"/><path d="M48.6,20.444a0.734,0.734,0,0,1-.126.067,0.719,0.719,0,0,1-.136.043,0.689,0.689,0,0,1-.286,0,0.732,0.732,0,0,1-.136-0.043,0.849,0.849,0,0,1-.127-0.067,0.8,0.8,0,0,1-.2-0.2,0.862,0.862,0,0,1-.068-0.128,0.711,0.711,0,0,1-.04-0.139,0.613,0.613,0,0,1-.015-0.143,0.638,0.638,0,0,1,.015-0.145,0.7,0.7,0,0,1,.04-0.139,0.842,0.842,0,0,1,.068-0.128,0.755,0.755,0,0,1,.092-0.111,0.665,0.665,0,0,1,.11-0.091,0.717,0.717,0,0,1,.127-0.069,0.73,0.73,0,0,1,.136-0.043,0.7,0.7,0,0,1,.286,0,0.717,0.717,0,0,1,.136.043,0.632,0.632,0,0,1,.126.069,0.758,0.758,0,0,1,.112.091,0.784,0.784,0,0,1,.09.111,0.877,0.877,0,0,1,.068.128,0.9,0.9,0,0,1,.042.139,0.935,0.935,0,0,1,.011.095,0.414,0.414,0,0,1,0,.05v0.015l0,0.05a0.706,0.706,0,0,1-.009.078,0.912,0.912,0,0,1-.042.139,0.9,0.9,0,0,1-.068.128,0.692,0.692,0,0,1-.09.111A0.772,0.772,0,0,1,48.6,20.444Z" fill="#3e3a39"/><path d="M48.838,25.883a1.327,1.327,0,0,1-.228.12,1.3,1.3,0,0,1-.245.077,1.24,1.24,0,0,1-.516,0A1.32,1.32,0,0,1,47.6,26a1.518,1.518,0,0,1-.228-0.12,1.225,1.225,0,0,1-.2-0.168,1.2,1.2,0,0,1-.165-0.2,1.555,1.555,0,0,1-.123-0.231,1.268,1.268,0,0,1-.072-0.251,1.1,1.1,0,0,1-.026-0.258,1.143,1.143,0,0,1,.026-0.261,1.25,1.25,0,0,1,.072-0.251,1.507,1.507,0,0,1,.123-0.231,1.356,1.356,0,0,1,.165-0.2,1.2,1.2,0,0,1,.2-0.164,1.286,1.286,0,0,1,.228-0.124,1.319,1.319,0,0,1,.245-0.077,1.259,1.259,0,0,1,.516,0,1.294,1.294,0,0,1,.245.077,1.146,1.146,0,0,1,.228.124,1.373,1.373,0,0,1,.2.164,1.416,1.416,0,0,1,.162.2,1.579,1.579,0,0,1,.122.231,1.618,1.618,0,0,1,.076.251,1.691,1.691,0,0,1,.02.171,0.751,0.751,0,0,1,0,.09V24.8l-0.007.09a1.289,1.289,0,0,1-.016.141,1.365,1.365,0,0,1-.2.482,1.243,1.243,0,0,1-.162.2A1.4,1.4,0,0,1,48.838,25.883Z" fill="#545252"/><path d="M48.668,25.624a1.03,1.03,0,0,1-.175.092,1.01,1.01,0,0,1-.188.059,0.961,0.961,0,0,1-.4,0,1.025,1.025,0,0,1-.188-0.059,1.141,1.141,0,0,1-.175-0.092,0.919,0.919,0,0,1-.152-0.128,0.953,0.953,0,0,1-.127-0.154,1.231,1.231,0,0,1-.094-0.177,0.977,0.977,0,0,1-.056-0.193,0.837,0.837,0,0,1-.02-0.2,0.873,0.873,0,0,1,.02-0.2,0.968,0.968,0,0,1,.056-0.193,1.19,1.19,0,0,1,.094-0.177,1.048,1.048,0,0,1,.127-0.154,0.916,0.916,0,0,1,.152-0.126,0.959,0.959,0,0,1,.175-0.095,1.009,1.009,0,0,1,.188-0.059,0.971,0.971,0,0,1,.4,0,1,1,0,0,1,.188.059,0.879,0.879,0,0,1,.175.095,1.048,1.048,0,0,1,.155.126,1.07,1.07,0,0,1,.124.154,1.208,1.208,0,0,1,.094.177,1.233,1.233,0,0,1,.058.193,1.257,1.257,0,0,1,.015.131,0.535,0.535,0,0,1,0,.069v0.021l-0.005.069a0.98,0.98,0,0,1-.013.108,1.045,1.045,0,0,1-.152.37,0.971,0.971,0,0,1-.124.154A1.05,1.05,0,0,1,48.668,25.624Z" fill="#959167"/><path d="M48.191,19.263a0.556,0.556,0,0,1,.252.059H48.236l-0.046-.044-0.043.044H47.941A0.552,0.552,0,0,1,48.191,19.263Z" fill="#666"/><polygon points="48.236 19.322 48.488 19.577 48.338 19.577 48.338 20.308 48.043 20.308 48.043 19.577 47.896 19.577 48.147 19.322 48.191 19.278 48.236 19.322" fill="#666"/><path d="M48.488,19.577l-0.251-.255h0.206a0.569,0.569,0,0,1-.252,1.077,0.569,0.569,0,0,1-.249-1.077h0.206l-0.252.255h0.148v0.732h0.3V19.577h0.15Z" fill="#b4af7d"/><path d="M51.493,20.444a0.734,0.734,0,0,1-.126.067,0.719,0.719,0,0,1-.136.043,0.689,0.689,0,0,1-.286,0,0.732,0.732,0,0,1-.136-0.043,0.849,0.849,0,0,1-.127-0.067,0.8,0.8,0,0,1-.2-0.2,0.862,0.862,0,0,1-.068-0.128,0.711,0.711,0,0,1-.04-0.139,0.613,0.613,0,0,1-.015-0.143,0.638,0.638,0,0,1,.015-0.145,0.7,0.7,0,0,1,.04-0.139,0.842,0.842,0,0,1,.068-0.128,0.755,0.755,0,0,1,.092-0.111,0.665,0.665,0,0,1,.11-0.091,0.717,0.717,0,0,1,.127-0.069,0.73,0.73,0,0,1,.136-0.043,0.7,0.7,0,0,1,.286,0,0.717,0.717,0,0,1,.136.043,0.632,0.632,0,0,1,.126.069,0.758,0.758,0,0,1,.112.091,0.784,0.784,0,0,1,.09.111,0.877,0.877,0,0,1,.068.128,0.9,0.9,0,0,1,.042.139,0.935,0.935,0,0,1,.011.095,0.414,0.414,0,0,1,0,.05v0.015l0,0.05a0.707,0.707,0,0,1-.009.078,0.912,0.912,0,0,1-.042.139,0.9,0.9,0,0,1-.068.128,0.692,0.692,0,0,1-.09.111A0.772,0.772,0,0,1,51.493,20.444Z" fill="#3e3a39"/><path d="M51.087,19.263a0.556,0.556,0,0,1,.252.059H51.133l-0.046-.044-0.043.044H50.838A0.552,0.552,0,0,1,51.087,19.263Z" fill="#666"/><polygon points="51.133 19.322 51.384 19.577 51.234 19.577 51.234 20.308 50.939 20.308 50.939 19.577 50.792 19.577 51.043 19.322 51.087 19.278 51.133 19.322" fill="#666"/><path d="M51.384,19.577l-0.251-.255h0.206a0.569,0.569,0,0,1-.252,1.077,0.569,0.569,0,0,1-.249-1.077h0.206l-0.252.255h0.148v0.732h0.3V19.577h0.15Z" fill="#b4af7d"/><path d="M54.389,20.444a0.734,0.734,0,0,1-.126.067,0.719,0.719,0,0,1-.136.043,0.689,0.689,0,0,1-.286,0,0.733,0.733,0,0,1-.136-0.043,0.849,0.849,0,0,1-.127-0.067,0.8,0.8,0,0,1-.2-0.2,0.862,0.862,0,0,1-.068-0.128,0.711,0.711,0,0,1-.04-0.139,0.613,0.613,0,0,1-.015-0.143,0.638,0.638,0,0,1,.015-0.145,0.7,0.7,0,0,1,.04-0.139,0.842,0.842,0,0,1,.068-0.128,0.755,0.755,0,0,1,.092-0.111,0.665,0.665,0,0,1,.11-0.091,0.717,0.717,0,0,1,.127-0.069,0.73,0.73,0,0,1,.136-0.043,0.7,0.7,0,0,1,.286,0,0.717,0.717,0,0,1,.136.043,0.632,0.632,0,0,1,.126.069,0.758,0.758,0,0,1,.112.091,0.784,0.784,0,0,1,.09.111,0.877,0.877,0,0,1,.068.128,0.9,0.9,0,0,1,.042.139,0.935,0.935,0,0,1,.011.095,0.414,0.414,0,0,1,0,.05v0.015l0,0.05a0.706,0.706,0,0,1-.009.078,0.912,0.912,0,0,1-.042.139,0.9,0.9,0,0,1-.068.128,0.692,0.692,0,0,1-.09.111A0.772,0.772,0,0,1,54.389,20.444Z" fill="#3e3a39"/><path d="M53.983,19.263a0.556,0.556,0,0,1,.252.059H54.029l-0.046-.044-0.043.044H53.734A0.552,0.552,0,0,1,53.983,19.263Z" fill="#666"/><polygon points="54.029 19.322 54.28 19.577 54.131 19.577 54.131 20.308 53.836 20.308 53.836 19.577 53.688 19.577 53.94 19.322 53.983 19.278 54.029 19.322" fill="#666"/><path d="M54.28,19.577l-0.251-.255h0.206a0.569,0.569,0,0,1-.252,1.077,0.569,0.569,0,0,1-.249-1.077H53.94l-0.252.255h0.148v0.732h0.3V19.577h0.15Z" fill="#b4af7d"/><path d="M48.115,24.191a0.556,0.556,0,0,1,.252.059H48.161l-0.046-.044-0.043.044H47.866A0.552,0.552,0,0,1,48.115,24.191Z" fill="#666"/><polygon points="48.161 24.249 48.413 24.504 48.263 24.504 48.263 25.236 47.968 25.236 47.968 24.504 47.82 24.504 48.072 24.249 48.115 24.205 48.161 24.249" fill="#666"/><path d="M48.413,24.5l-0.251-.255h0.206a0.569,0.569,0,0,1-.252,1.077,0.569,0.569,0,0,1-.249-1.077h0.206L47.82,24.5h0.148v0.732h0.3V24.5h0.15Z" fill="#b4af7d"/><circle cx="33.509" cy="24.793" r="0.306"/><circle cx="33.509" cy="23.82" r="0.306"/><circle cx="33.509" cy="22.848" r="0.306"/><circle cx="33.509" cy="21.875" r="0.306"/><circle cx="33.509" cy="20.902" r="0.306"/><circle cx="33.509" cy="19.93" r="0.306"/><circle cx="38.73" cy="21.875" r="0.306"/><circle cx="38.73" cy="20.902" r="0.306"/><circle cx="38.73" cy="19.93" r="0.306"/><circle cx="43.204" cy="22.848" r="0.306"/><circle cx="43.204" cy="21.875" r="0.306"/><circle cx="43.204" cy="20.902" r="0.306"/><circle cx="43.204" cy="19.93" r="0.306"/><rect x="25.362" y="29.484" width="2.805" height="2.839" fill="#fff"/><rect x="23.959" y="32.502" width="2.805" height="2.839" fill="#fff"/><rect x="22.4" y="29.484" width="2.805" height="2.839" fill="#fff"/><rect x="16.475" y="29.484" width="2.805" height="2.839" fill="#fff"/><rect x="20.997" y="32.502" width="2.805" height="2.839" fill="#fff"/><rect x="19.438" y="29.484" width="2.805" height="2.839" fill="#fff"/><rect x="18.035" y="32.502" width="2.805" height="2.839" fill="#fff"/><rect x="22.568" y="31.364" width="2.469" height="0.78" fill="#4d4d4d"/><rect x="25.53" y="31.364" width="2.469" height="0.78" fill="#4d4d4d"/><rect x="57.369" y="29.484" width="2.805" height="2.839" fill="#fff"/><rect x="55.966" y="32.502" width="2.805" height="2.839" fill="#fff"/><rect x="54.407" y="29.484" width="2.805" height="2.839" fill="#fff"/><rect x="48.483" y="29.484" width="2.805" height="2.839" fill="#fff"/><rect x="53.004" y="32.502" width="2.805" height="2.839" fill="#fff"/><rect x="51.445" y="29.484" width="2.805" height="2.839" fill="#fff"/><rect x="50.042" y="32.502" width="2.805" height="2.839" fill="#fff"/><rect x="33.509" y="29.683" width="9.624" height="4.909" fill="#333"/><path d="M33.806,30.734a0.475,0.475,0,0,1,.471-0.477h8.088a0.475,0.475,0,0,1,.471.477V33.54a0.475,0.475,0,0,1-.471.477H34.277a0.475,0.475,0,0,1-.471-0.477V30.734Z" fill="#d6c7a2"/><rect x="33.642" y="31.076" width="2.096" height="2.121" fill="#b2a687"/><polygon points="35.454 32.583 34.69 33.029 33.927 32.583 33.927 31.691 34.69 31.245 35.454 31.691 35.454 32.583" fill="#dacaa5"/><ellipse cx="34.69" cy="32.137" rx="0.382" ry="0.387" fill="#594f3e"/><rect x="40.905" y="31.076" width="2.096" height="2.121" fill="#b2a687"/><polygon points="41.189 32.583 41.953 33.029 42.716 32.583 42.716 31.691 41.953 31.245 41.189 31.691 41.189 32.583" fill="#dacaa5"/><ellipse cx="41.953" cy="32.137" rx="0.382" ry="0.387" fill="#594f3e"/><path d="M36.2,31.6a0.525,0.525,0,0,1,.528-0.692h3.189a0.525,0.525,0,0,1,.528.692l-0.279,1.081a0.969,0.969,0,0,1-.886.692H37.364a0.969,0.969,0,0,1-.886-0.692Z" fill="#b2a687"/><path d="M37.364,33.072a0.675,0.675,0,0,1-.6-0.47l-0.279-1.081a0.267,0.267,0,0,1,.03-0.231,0.259,0.259,0,0,1,.213-0.087h3.189a0.259,0.259,0,0,1,.213.087,0.267,0.267,0,0,1,.03.231L39.88,32.6a0.675,0.675,0,0,1-.6.47H37.364Z" fill="#333"/><rect x="11.966" y="12.076" width="50.068" height="23.847" fill="none" stroke="#000" stroke-linecap="round" stroke-linejoin="round" stroke-width="0.157"/></svg>