<svg xmlns="http://www.w3.org/2000/svg" width="74.06" height="48" viewBox="0 0 74.06 48"><defs><style>.a{fill:#fff;}.b{fill:#c6c4ba;}.c{fill:#e4e2cf;}.d{fill:#3e3a39;}.e{fill:#d1cfbf;}.f{fill:#8c8d7c;}.g{fill:#717069;}.h{fill:#eeeeef;}.i{fill:#595757;}.j{fill:#c6c3be;}.k{fill:#e50012;}.l{fill:#dbdcdc;}.m{fill:#888;}.n{fill:#1e753b;}.o{fill:#717071;}.p{fill:#f2ea36;}.q{fill:#004b29;}.r,.s{fill:none;}.r{stroke:#231815;stroke-width:0.02px;}.s{stroke:#595757;stroke-width:0.29px;}</style></defs><title>cc-link_ie_iol_wpcn</title><rect class="a" width="74.06" height="48"/><rect class="a" width="74.06" height="48"/><path class="b" d="M32,.45l1.64,1.69a1.19,1.19,0,0,0,.83.34h.73l1,1a1.21,1.21,0,0,0,1.62,0l.08-.07,0,0,.07-.07,0,0,.09-.08,0,0a.68.68,0,0,0,.12-.12l0,0,.37-.37,0,0,.16-.16,0-.05.17-.17,0,0,.19-.2h0l.22-.23,0,0,.18-.19.1-.09.09-.1.11-.12L40.11,1l.58-.59Zm5.77,2.12a.77.77,0,0,1-1.54,0V2.11a.77.77,0,0,1,1.54,0Z"/><path class="c" d="M42.82.91H40.24c-.84.87-2.2,2.26-2.48,2.49a1.21,1.21,0,0,1-1.62,0l-1-1h-.73a1.19,1.19,0,0,1-.83-.34L32.4.91H31.08V44.6H42.82Z"/><path class="d" d="M34.72,1.52a.4.4,0,1,1-.4-.4A.4.4,0,0,1,34.72,1.52Z"/><path class="b" d="M39.64,47.28l-1.93-1.92a1.13,1.13,0,0,0-.76-.28,1.1,1.1,0,0,0-.79.31l-1.85,1.89-.36.36H40ZM37,47a.76.76,0,0,1-.76-.76.76.76,0,1,1,1.52,0A.76.76,0,0,1,37,47Z"/><path class="e" d="M34.31,47.28l1.85-1.89a1.1,1.1,0,0,1,.79-.31,1.13,1.13,0,0,1,.76.28l1.93,1.92h3.18V44.6H31.08v2.68Z"/><path class="f" d="M44.16,18.48V4.54l-.43-.31V.71a.27.27,0,0,0-.27-.26H40.69l-.45.46h2.58V47.28H39.64l.37.36h3.35c.24,0,.37-.09.37-.3V44.6l.39-.43V22l-.36-.37V18.91Z"/><path class="f" d="M31.08,47.28V.91H32.4L32,.45H30.44a.26.26,0,0,0-.26.26V4.23l-.43.31V18.48l.39.43v2.68l-.36.37V44.17l.4.43v2.74c0,.21.12.3.36.3H34l.36-.36Z"/><polygon class="g" points="30.82 39.35 30.82 39.04 30.39 39.04 30.39 39.35 30.08 39.35 30.08 43.53 31.13 43.53 31.13 39.35 30.82 39.35"/><polygon class="g" points="43.57 39.35 43.57 39.04 43.14 39.04 43.14 39.35 42.84 39.35 42.84 43.53 43.88 43.53 43.88 39.35 43.57 39.35"/><polygon class="g" points="30.82 34.08 30.82 33.78 30.39 33.78 30.39 34.08 30.08 34.08 30.08 38.26 31.13 38.26 31.13 34.08 30.82 34.08"/><polygon class="g" points="43.57 34.08 43.57 33.78 43.14 33.78 43.14 34.08 42.84 34.08 42.84 38.26 43.88 38.26 43.88 34.08 43.57 34.08"/><polygon class="g" points="30.82 28.82 30.82 28.51 30.39 28.51 30.39 28.82 30.08 28.82 30.08 33 31.13 33 31.13 28.82 30.82 28.82"/><polygon class="g" points="43.57 28.82 43.57 28.51 43.14 28.51 43.14 28.82 42.84 28.82 42.84 33 43.88 33 43.88 28.82 43.57 28.82"/><polygon class="g" points="30.82 23.55 30.82 23.25 30.39 23.25 30.39 23.55 30.08 23.55 30.08 27.73 31.13 27.73 31.13 23.55 30.82 23.55"/><polygon class="g" points="43.57 23.55 43.57 23.25 43.14 23.25 43.14 23.55 42.84 23.55 42.84 27.73 43.88 27.73 43.88 23.55 43.57 23.55"/><polygon class="g" points="30.82 5.13 30.82 4.82 30.39 4.82 30.39 5.13 30.08 5.13 30.08 9.31 31.13 9.31 31.13 5.13 30.82 5.13"/><polygon class="g" points="43.57 5.13 43.57 4.82 43.14 4.82 43.14 5.13 42.84 5.13 42.84 9.31 43.88 9.31 43.88 5.13 43.57 5.13"/><polygon class="g" points="30.82 13.92 30.82 13.61 30.39 13.61 30.39 13.92 30.08 13.92 30.08 18.09 31.13 18.09 31.13 13.92 30.82 13.92"/><polygon class="g" points="43.57 13.92 43.57 13.61 43.14 13.61 43.14 13.92 42.84 13.92 42.84 18.09 43.88 18.09 43.88 13.92 43.57 13.92"/><path class="h" d="M32.75,23.26a.22.22,0,0,0,.22.23h3.28a.22.22,0,0,0,.22-.23V22H32.75Z"/><path class="h" d="M41.44,23a.22.22,0,0,1-.23-.22V22H39.35v1.22a.22.22,0,0,0,.22.23h2.35a.22.22,0,0,0,.22-.23V23Z"/><path class="h" d="M37.43,22.78a.22.22,0,0,1-.22.22h-.69v.26a.22.22,0,0,0,.22.23h2.34a.22.22,0,0,0,.22-.23V22H37.43Z"/><rect class="d" x="32.89" y="22.11" width="0.57" height="0.9"/><rect class="d" x="33.83" y="22.11" width="0.57" height="0.9"/><rect class="d" x="34.78" y="22.11" width="0.57" height="0.9"/><rect class="d" x="35.72" y="22.11" width="0.57" height="0.9"/><rect class="d" x="37.64" y="22.11" width="0.57" height="0.9"/><rect class="d" x="38.58" y="22.11" width="0.57" height="0.9"/><rect class="d" x="39.53" y="22.11" width="0.57" height="0.9"/><rect class="d" x="40.47" y="22.11" width="0.57" height="0.9"/><rect class="i" x="31.36" y="22.01" width="11.21" height="22.21" rx="0.56" ry="0.56"/><path class="j" d="M42.65,16a2.55,2.55,0,1,1-2.55-2.55A2.55,2.55,0,0,1,42.65,16Z"/><circle class="j" cx="33.79" cy="16.03" r="2.56" transform="translate(12.56 46.82) rotate(-80.78)"/><path class="j" d="M41.65,5.89a1.52,1.52,0,1,1-1.52-1.53A1.52,1.52,0,0,1,41.65,5.89Z"/><circle class="j" cx="33.81" cy="5.89" r="1.55"/><rect class="i" x="31.24" y="7.65" width="11.42" height="4.45" rx="0.67" ry="0.67"/><rect class="h" x="37.81" y="25.59" width="1.89" height="2.81" rx="0.28" ry="0.28"/><rect class="d" x="37.92" y="25.9" width="1.67" height="1.49"/><path class="k" d="M38.8,27.91v.4h.57a.26.26,0,0,0,.25-.26v-.14Z"/><rect class="h" x="40.49" y="25.59" width="1.89" height="2.81" rx="0.28" ry="0.28"/><rect class="d" x="40.6" y="25.9" width="1.67" height="1.49"/><path class="k" d="M41.4,27.91v.4h-.57a.26.26,0,0,1-.26-.26v-.14Z"/><path class="d" d="M38.25,25.42a1.85,1.85,0,1,0,1.85-1.85A1.84,1.84,0,0,0,38.25,25.42Z"/><path class="l" d="M38.37,25.42a1.73,1.73,0,1,0,1.73-1.73A1.72,1.72,0,0,0,38.37,25.42Z"/><path class="m" d="M38.73,25.42a1.37,1.37,0,1,0,1.37-1.37A1.36,1.36,0,0,0,38.73,25.42Z"/><path class="n" d="M39,25.42a1.06,1.06,0,0,0,2.12,0,1.06,1.06,0,1,0-2.12,0Z"/><path class="m" d="M39.23,25.42a.87.87,0,0,0,1.73,0,.87.87,0,1,0-1.73,0Z"/><path class="i" d="M41.8,16a1.71,1.71,0,1,1-1.7-1.7A1.7,1.7,0,0,1,41.8,16Z"/><circle class="m" cx="40.1" cy="16.03" r="1.47"/><circle class="i" cx="33.79" cy="16.03" r="2.01"/><circle class="m" cx="33.79" cy="16.03" r="1.47"/><path class="o" d="M41.48,5.89a1.35,1.35,0,1,1-1.35-1.35A1.35,1.35,0,0,1,41.48,5.89Z"/><circle class="n" cx="40.13" cy="5.89" r="1.08"/><path class="i" d="M41,5.89A.87.87,0,1,1,40.13,5,.87.87,0,0,1,41,5.89Z"/><circle class="p" cx="39.8" cy="5.31" r="0.13"/><circle class="p" cx="39.52" cy="5.59" r="0.13"/><circle class="p" cx="40.42" cy="5.31" r="0.13"/><path class="p" d="M40.57,5.59a.13.13,0,1,0,.13-.13A.13.13,0,0,0,40.57,5.59Z"/><circle class="p" cx="39.8" cy="6.46" r="0.13"/><circle class="p" cx="39.52" cy="6.18" r="0.13"/><circle class="p" cx="40.42" cy="6.46" r="0.13"/><path class="p" d="M40.57,6.18a.13.13,0,1,1,.13.13A.13.13,0,0,1,40.57,6.18Z"/><path class="o" d="M35.15,5.89a1.35,1.35,0,1,1-1.34-1.35A1.34,1.34,0,0,1,35.15,5.89Z"/><circle class="n" cx="33.81" cy="5.89" r="1.08"/><path class="i" d="M34.67,5.89a.87.87,0,0,1-1.73,0,.87.87,0,1,1,1.73,0Z"/><circle class="p" cx="33.48" cy="5.31" r="0.13"/><circle class="p" cx="33.2" cy="5.59" r="0.13"/><circle class="p" cx="34.1" cy="5.31" r="0.13"/><path class="p" d="M34.25,5.59a.13.13,0,1,0,.13-.13A.13.13,0,0,0,34.25,5.59Z"/><path class="p" d="M33.11,15.22a.22.22,0,0,0,.22.22.22.22,0,0,0,0-.44A.22.22,0,0,0,33.11,15.22Z"/><path class="p" d="M34.07,15.22a.22.22,0,1,0,.22-.22A.22.22,0,0,0,34.07,15.22Z"/><path class="p" d="M41,16a.13.13,0,0,0,.13.13.13.13,0,0,0,0-.26A.13.13,0,0,0,41,16Z"/><path class="p" d="M40.48,15.25a.13.13,0,1,0,.26,0,.13.13,0,1,0-.26,0Z"/><path class="p" d="M39.5,15.25a.13.13,0,0,0,.26,0,.13.13,0,1,0-.26,0Z"/><path class="p" d="M40.48,16.89a.13.13,0,1,0,.13-.13A.13.13,0,0,0,40.48,16.89Z"/><path class="p" d="M39.5,16.89a.13.13,0,1,0,.13-.13A.13.13,0,0,0,39.5,16.89Z"/><path class="p" d="M39.91,25.41a.2.2,0,0,0,.19.19.19.19,0,0,0,.18-.19.18.18,0,0,0-.18-.18A.19.19,0,0,0,39.91,25.41Z"/><path class="p" d="M39.56,25.06a.18.18,0,1,0,.18-.18A.18.18,0,0,0,39.56,25.06Z"/><path class="p" d="M40.34,25.06a.18.18,0,1,0,.18-.18A.18.18,0,0,0,40.34,25.06Z"/><path class="p" d="M39.56,25.81a.18.18,0,1,0,.18-.18A.18.18,0,0,0,39.56,25.81Z"/><path class="p" d="M40.34,25.81a.18.18,0,1,0,.18-.18A.18.18,0,0,0,40.34,25.81Z"/><path class="p" d="M33.11,16.86a.22.22,0,0,0,.22.22.22.22,0,0,0,0-.44A.22.22,0,0,0,33.11,16.86Z"/><path class="p" d="M32.62,16a.22.22,0,0,0,.22.22.22.22,0,0,0,0-.44A.22.22,0,0,0,32.62,16Z"/><path class="p" d="M34.07,16.86a.22.22,0,1,0,.22-.22A.22.22,0,0,0,34.07,16.86Z"/><circle class="p" cx="33.48" cy="6.46" r="0.13"/><circle class="p" cx="33.2" cy="6.18" r="0.13"/><circle class="p" cx="34.1" cy="6.46" r="0.13"/><path class="p" d="M34.25,6.18a.13.13,0,1,1,.13.13A.13.13,0,0,1,34.25,6.18Z"/><rect class="i" x="34.78" y="15.52" width="0.61" height="1.08"/><polygon class="i" points="39.07 16.59 38.55 16.59 38.6 15.52 39.07 15.52 39.07 16.59"/><circle class="h" cx="38.26" cy="24.1" r="0.43"/><rect class="h" x="34.2" y="25.59" width="1.89" height="2.81" rx="0.28" ry="0.28"/><rect class="d" x="34.31" y="25.9" width="1.67" height="1.49"/><path class="k" d="M35.1,27.91v.4h-.57a.26.26,0,0,1-.25-.26v-.14Z"/><rect class="h" x="31.52" y="25.59" width="1.89" height="2.81" rx="0.28" ry="0.28"/><rect class="d" x="31.63" y="25.9" width="1.67" height="1.49"/><path class="k" d="M32.51,27.91v.4h.56a.26.26,0,0,0,.26-.26v-.14Z"/><path class="d" d="M35.65,25.42a1.85,1.85,0,1,1-1.85-1.85A1.84,1.84,0,0,1,35.65,25.42Z"/><path class="l" d="M35.53,25.42a1.73,1.73,0,1,1-1.73-1.73A1.72,1.72,0,0,1,35.53,25.42Z"/><path class="m" d="M35.17,25.42a1.37,1.37,0,1,1-1.37-1.37A1.36,1.36,0,0,1,35.17,25.42Z"/><path class="n" d="M34.87,25.42a1.07,1.07,0,1,1-1.07-1.07A1.06,1.06,0,0,1,34.87,25.42Z"/><path class="m" d="M34.67,25.42a.87.87,0,1,1-.87-.87A.87.87,0,0,1,34.67,25.42Z"/><path class="p" d="M34,25.41a.19.19,0,1,1-.37,0,.18.18,0,0,1,.18-.18A.18.18,0,0,1,34,25.41Z"/><path class="p" d="M34.34,25.06a.18.18,0,1,1-.18-.18A.18.18,0,0,1,34.34,25.06Z"/><path class="p" d="M33.56,25.06a.18.18,0,1,1-.18-.18A.18.18,0,0,1,33.56,25.06Z"/><path class="p" d="M34.34,25.81a.18.18,0,1,1-.18-.18A.18.18,0,0,1,34.34,25.81Z"/><path class="p" d="M33.56,25.81a.18.18,0,1,1-.18-.18A.18.18,0,0,1,33.56,25.81Z"/><circle class="h" cx="35.64" cy="24.1" r="0.43"/><rect class="h" x="37.81" y="30.84" width="1.89" height="2.81" rx="0.28" ry="0.28"/><rect class="d" x="37.92" y="31.15" width="1.67" height="1.49"/><path class="k" d="M38.8,33.17v.39h.57a.25.25,0,0,0,.25-.25v-.14Z"/><rect class="h" x="40.49" y="30.84" width="1.89" height="2.81" rx="0.28" ry="0.28"/><rect class="d" x="40.6" y="31.15" width="1.67" height="1.49"/><path class="k" d="M41.4,33.17v.39h-.57a.26.26,0,0,1-.26-.25v-.14Z"/><path class="d" d="M38.25,30.67a1.85,1.85,0,1,0,1.85-1.85A1.84,1.84,0,0,0,38.25,30.67Z"/><path class="l" d="M38.37,30.67a1.73,1.73,0,1,0,1.73-1.73A1.72,1.72,0,0,0,38.37,30.67Z"/><path class="m" d="M38.73,30.67A1.37,1.37,0,1,0,40.1,29.3,1.36,1.36,0,0,0,38.73,30.67Z"/><path class="n" d="M39,30.67a1.06,1.06,0,1,0,1.06-1.06A1.06,1.06,0,0,0,39,30.67Z"/><path class="m" d="M39.23,30.67a.87.87,0,1,0,.87-.87A.86.86,0,0,0,39.23,30.67Z"/><path class="p" d="M39.91,30.67a.19.19,0,0,0,.19.18.18.18,0,0,0,.18-.18.19.19,0,0,0-.18-.19A.2.2,0,0,0,39.91,30.67Z"/><path class="p" d="M39.56,30.31a.18.18,0,1,0,.18-.18A.18.18,0,0,0,39.56,30.31Z"/><path class="p" d="M40.34,30.31a.18.18,0,1,0,.18-.18A.18.18,0,0,0,40.34,30.31Z"/><path class="p" d="M39.56,31.06a.18.18,0,1,0,.18-.18A.18.18,0,0,0,39.56,31.06Z"/><path class="p" d="M40.34,31.06a.18.18,0,1,0,.18-.18A.18.18,0,0,0,40.34,31.06Z"/><circle class="h" cx="38.26" cy="29.36" r="0.43"/><rect class="h" x="34.2" y="30.84" width="1.89" height="2.81" rx="0.28" ry="0.28"/><rect class="d" x="34.31" y="31.15" width="1.67" height="1.49"/><path class="k" d="M35.1,33.17v.39h-.57a.26.26,0,0,1-.25-.25v-.14Z"/><rect class="h" x="31.52" y="30.84" width="1.89" height="2.81" rx="0.28" ry="0.28"/><rect class="d" x="31.63" y="31.15" width="1.67" height="1.49"/><path class="k" d="M32.51,33.17v.39h.56a.26.26,0,0,0,.26-.25v-.14Z"/><path class="d" d="M35.65,30.67a1.85,1.85,0,1,1-1.85-1.85A1.84,1.84,0,0,1,35.65,30.67Z"/><path class="l" d="M35.53,30.67a1.73,1.73,0,1,1-1.73-1.73A1.72,1.72,0,0,1,35.53,30.67Z"/><path class="m" d="M35.17,30.67A1.37,1.37,0,1,1,33.8,29.3,1.36,1.36,0,0,1,35.17,30.67Z"/><path class="n" d="M34.87,30.67a1.07,1.07,0,1,1-1.07-1.06A1.07,1.07,0,0,1,34.87,30.67Z"/><path class="m" d="M34.67,30.67a.87.87,0,1,1-.87-.87A.86.86,0,0,1,34.67,30.67Z"/><path class="p" d="M34,30.67a.18.18,0,0,1-.19.18.18.18,0,0,1-.18-.18.19.19,0,1,1,.37,0Z"/><path class="p" d="M34.34,30.31a.18.18,0,1,1-.18-.18A.18.18,0,0,1,34.34,30.31Z"/><path class="p" d="M33.56,30.31a.18.18,0,1,1-.18-.18A.18.18,0,0,1,33.56,30.31Z"/><path class="p" d="M34.34,31.06a.18.18,0,1,1-.18-.18A.18.18,0,0,1,34.34,31.06Z"/><path class="p" d="M33.56,31.06a.18.18,0,1,1-.18-.18A.18.18,0,0,1,33.56,31.06Z"/><circle class="h" cx="35.64" cy="29.36" r="0.43"/><rect class="h" x="37.81" y="36.09" width="1.89" height="2.81" rx="0.28" ry="0.28"/><rect class="d" x="37.92" y="36.4" width="1.67" height="1.49"/><path class="k" d="M38.8,38.42v.39h.57a.25.25,0,0,0,.25-.25v-.14Z"/><rect class="h" x="40.49" y="36.09" width="1.89" height="2.81" rx="0.28" ry="0.28"/><rect class="d" x="40.6" y="36.4" width="1.67" height="1.49"/><path class="k" d="M41.4,38.42v.39h-.57a.26.26,0,0,1-.26-.25v-.14Z"/><path class="d" d="M38.25,35.92a1.85,1.85,0,1,0,1.85-1.85A1.84,1.84,0,0,0,38.25,35.92Z"/><path class="l" d="M38.37,35.92a1.73,1.73,0,1,0,1.73-1.73A1.73,1.73,0,0,0,38.37,35.92Z"/><path class="m" d="M38.73,35.92a1.37,1.37,0,1,0,1.37-1.37A1.36,1.36,0,0,0,38.73,35.92Z"/><path class="n" d="M39,35.92a1.06,1.06,0,1,0,1.06-1.06A1.06,1.06,0,0,0,39,35.92Z"/><path class="m" d="M39.23,35.92a.87.87,0,1,0,.87-.87A.87.87,0,0,0,39.23,35.92Z"/><path class="p" d="M39.91,35.92a.19.19,0,0,0,.19.18.18.18,0,0,0,0-.36A.19.19,0,0,0,39.91,35.92Z"/><path class="p" d="M39.56,35.56a.18.18,0,1,0,.18-.18A.18.18,0,0,0,39.56,35.56Z"/><path class="p" d="M40.34,35.56a.18.18,0,1,0,.18-.18A.18.18,0,0,0,40.34,35.56Z"/><path class="p" d="M39.56,36.31a.18.18,0,1,0,.36,0,.18.18,0,1,0-.36,0Z"/><path class="p" d="M40.34,36.31a.18.18,0,1,0,.36,0,.18.18,0,1,0-.36,0Z"/><circle class="h" cx="38.26" cy="34.61" r="0.43"/><rect class="h" x="34.2" y="36.09" width="1.89" height="2.81" rx="0.28" ry="0.28"/><rect class="d" x="34.31" y="36.4" width="1.67" height="1.49"/><path class="k" d="M35.1,38.42v.39h-.57a.25.25,0,0,1-.25-.25v-.14Z"/><rect class="h" x="31.52" y="36.09" width="1.89" height="2.81" rx="0.28" ry="0.28"/><rect class="d" x="31.63" y="36.4" width="1.67" height="1.49"/><path class="k" d="M32.51,38.42v.39h.56a.26.26,0,0,0,.26-.25v-.14Z"/><path class="d" d="M35.65,35.92a1.85,1.85,0,1,1-1.85-1.85A1.84,1.84,0,0,1,35.65,35.92Z"/><path class="l" d="M35.53,35.92a1.73,1.73,0,1,1-1.73-1.73A1.73,1.73,0,0,1,35.53,35.92Z"/><path class="m" d="M35.17,35.92a1.37,1.37,0,1,1-1.37-1.37A1.36,1.36,0,0,1,35.17,35.92Z"/><path class="n" d="M34.87,35.92a1.07,1.07,0,1,1-1.07-1.06A1.07,1.07,0,0,1,34.87,35.92Z"/><path class="m" d="M34.67,35.92a.87.87,0,1,1-.87-.87A.87.87,0,0,1,34.67,35.92Z"/><path class="p" d="M34,35.92a.18.18,0,0,1-.19.18.18.18,0,0,1,0-.36A.18.18,0,0,1,34,35.92Z"/><path class="p" d="M34.34,35.56a.18.18,0,1,1-.18-.18A.18.18,0,0,1,34.34,35.56Z"/><path class="p" d="M33.56,35.56a.18.18,0,1,1-.18-.18A.18.18,0,0,1,33.56,35.56Z"/><path class="p" d="M34.34,36.31a.18.18,0,1,1-.36,0,.18.18,0,1,1,.36,0Z"/><path class="p" d="M33.56,36.31a.18.18,0,1,1-.36,0,.18.18,0,1,1,.36,0Z"/><circle class="h" cx="35.64" cy="34.61" r="0.43"/><rect class="h" x="37.81" y="41.34" width="1.89" height="2.81" rx="0.28" ry="0.28"/><rect class="d" x="37.92" y="41.65" width="1.67" height="1.49"/><path class="k" d="M38.8,43.67v.39h.57a.25.25,0,0,0,.25-.25v-.14Z"/><rect class="h" x="40.49" y="41.34" width="1.89" height="2.81" rx="0.28" ry="0.28"/><rect class="d" x="40.6" y="41.65" width="1.67" height="1.49"/><path class="k" d="M41.4,43.67v.39h-.57a.26.26,0,0,1-.26-.25v-.14Z"/><path class="d" d="M38.25,41.17a1.85,1.85,0,1,0,1.85-1.85A1.85,1.85,0,0,0,38.25,41.17Z"/><path class="l" d="M38.37,41.17a1.73,1.73,0,1,0,1.73-1.73A1.72,1.72,0,0,0,38.37,41.17Z"/><path class="m" d="M38.73,41.17A1.37,1.37,0,1,0,40.1,39.8,1.36,1.36,0,0,0,38.73,41.17Z"/><path class="n" d="M39,41.17a1.06,1.06,0,1,0,1.06-1.06A1.05,1.05,0,0,0,39,41.17Z"/><path class="m" d="M39.23,41.17a.87.87,0,1,0,.87-.87A.87.87,0,0,0,39.23,41.17Z"/><path class="p" d="M39.91,41.17a.19.19,0,0,0,.19.18.18.18,0,0,0,0-.36A.19.19,0,0,0,39.91,41.17Z"/><path class="p" d="M39.56,40.81a.18.18,0,1,0,.36,0,.18.18,0,1,0-.36,0Z"/><path class="p" d="M40.34,40.81a.18.18,0,1,0,.36,0,.18.18,0,1,0-.36,0Z"/><path class="p" d="M39.56,41.57a.18.18,0,0,0,.36,0,.18.18,0,1,0-.36,0Z"/><path class="p" d="M40.34,41.57a.18.18,0,0,0,.36,0,.18.18,0,1,0-.36,0Z"/><circle class="h" cx="38.26" cy="39.86" r="0.43"/><rect class="h" x="34.2" y="41.34" width="1.89" height="2.81" rx="0.28" ry="0.28"/><rect class="d" x="34.31" y="41.65" width="1.67" height="1.49"/><path class="k" d="M35.1,43.67v.39h-.57a.25.25,0,0,1-.25-.25v-.14Z"/><rect class="h" x="31.52" y="41.34" width="1.89" height="2.81" rx="0.28" ry="0.28"/><rect class="d" x="31.63" y="41.65" width="1.67" height="1.49"/><path class="k" d="M32.51,43.67v.39h.56a.26.26,0,0,0,.26-.25v-.14Z"/><path class="d" d="M35.65,41.17a1.85,1.85,0,1,1-1.85-1.85A1.85,1.85,0,0,1,35.65,41.17Z"/><path class="l" d="M35.53,41.17a1.73,1.73,0,1,1-1.73-1.73A1.72,1.72,0,0,1,35.53,41.17Z"/><path class="m" d="M35.17,41.17A1.37,1.37,0,1,1,33.8,39.8,1.36,1.36,0,0,1,35.17,41.17Z"/><path class="n" d="M34.87,41.17a1.07,1.07,0,1,1-1.07-1.06A1.06,1.06,0,0,1,34.87,41.17Z"/><path class="m" d="M34.67,41.17a.87.87,0,1,1-.87-.87A.87.87,0,0,1,34.67,41.17Z"/><path class="p" d="M34,41.17a.18.18,0,0,1-.19.18.18.18,0,0,1,0-.36A.18.18,0,0,1,34,41.17Z"/><path class="p" d="M34.34,40.81a.18.18,0,1,1-.36,0,.18.18,0,1,1,.36,0Z"/><path class="p" d="M33.56,40.81a.18.18,0,1,1-.36,0,.18.18,0,1,1,.36,0Z"/><path class="p" d="M34.34,41.57a.18.18,0,0,1-.36,0,.18.18,0,1,1,.36,0Z"/><path class="p" d="M33.56,41.57a.18.18,0,0,1-.36,0,.18.18,0,1,1,.36,0Z"/><circle class="h" cx="35.64" cy="39.86" r="0.43"/><rect class="h" x="33.04" y="7.96" width="2.58" height="0.93" rx="0.17" ry="0.17"/><rect class="d" x="33.25" y="8.06" width="0.42" height="0.75"/><rect class="h" x="38.28" y="7.96" width="2.58" height="0.93" rx="0.17" ry="0.17"/><rect class="d" x="40.22" y="8.06" width="0.42" height="0.75"/><circle class="h" cx="33.17" cy="9.9" r="0.69"/><circle class="h" cx="40.8" cy="9.9" r="0.69"/><rect class="q" x="36.09" y="8.92" width="3.19" height="1.89"/><rect class="r" x="40.26" y="11.01" width="1.88" height="0.6"/><rect class="r" x="41.21" y="11.11" width="0.87" height="0.41"/><path class="s" d="M43.36,47.64c.24,0,.37-.09.37-.3V44.6l.39-.43V22l-.36-.37V18.91l.4-.43V4.54l-.43-.31V.71a.27.27,0,0,0-.27-.26h-13a.26.26,0,0,0-.26.26V4.23l-.43.31V18.48l.39.43v2.68l-.36.37V44.17l.4.43v2.74c0,.21.12.3.36.3Z"/></svg>