<svg xmlns="http://www.w3.org/2000/svg" width="74" height="48" viewBox="0 0 74 48"><title>cc-link_ie_tc</title><rect width="74" height="48" fill="#fff"/><rect x="7.202" y="12.097" width="58.596" height="23.805" fill="#898989"/><rect x="21.229" y="14.332" width="0.634" height="1.025" fill="#413d3c" stroke="#000" stroke-linecap="round" stroke-width="0.078"/><rect x="22.699" y="14.332" width="0.634" height="1.025" fill="#413d3c" stroke="#000" stroke-linecap="round" stroke-width="0.078"/><rect x="24.161" y="14.332" width="0.634" height="1.025" fill="#413d3c" stroke="#000" stroke-linecap="round" stroke-width="0.078"/><rect x="25.625" y="14.332" width="0.634" height="1.025" fill="#413d3c" stroke="#000" stroke-linecap="round" stroke-width="0.078"/><rect x="27.089" y="14.332" width="0.634" height="1.025" fill="#413d3c" stroke="#000" stroke-linecap="round" stroke-width="0.078"/><rect x="28.553" y="14.332" width="0.634" height="1.025" fill="#413d3c" stroke="#000" stroke-linecap="round" stroke-width="0.078"/><rect x="34.372" y="13.585" width="31.42" height="7.589" fill="#575554"/><circle cx="36.5" cy="18.617" r="1.096" fill="#666464"/><polygon points="37.352 18.428 36.689 18.428 36.689 17.765 36.311 17.765 36.311 18.428 35.648 18.428 35.648 18.806 36.311 18.806 36.311 19.469 36.689 19.469 36.689 18.806 37.352 18.806 37.352 18.428" fill="#4c4948"/><rect x="35.043" y="13.585" width="30.197" height="5.086" fill="#767676"/><path d="M64.874,15.546a1.158,1.158,0,0,0-.306-0.782v-1.18H64.46V14.94a0.957,0.957,0,0,1,0,1.211v2.519h0.108V16.328A1.157,1.157,0,0,0,64.874,15.546Z" fill="#4c4948" fill-rule="evenodd"/><path d="M35.787,13.585v4.092a1.175,1.175,0,0,0-.472.94c0,0.018,0,.036.005,0.054h0.128c0-.018-0.005-0.035-0.005-0.054A1.055,1.055,0,0,1,35.9,17.75V13.585H35.787Z" fill="#4c4948"/><rect x="36.168" y="14.095" width="27.86" height="4.07" fill="#231815"/><polyline points="42.085 18.723 42.69 20.384 42.274 20.536 41.613 18.723" fill="#666464" fill-rule="evenodd"/><polygon points="41.613 18.723 39.296 18.724 39.956 20.537 42.003 19.791 41.613 18.723" fill="#727171" fill-rule="evenodd"/><polyline points="44.874 18.721 45.479 20.382 45.063 20.534 44.402 18.722" fill="#666464" fill-rule="evenodd"/><polygon points="44.738 19.637 44.549 19.121 44.548 19.121 44.402 18.722 42.085 18.723 42.509 19.885 42.69 20.384 42.691 20.384 42.691 20.384 44.738 19.637" fill="#727171" fill-rule="evenodd"/><polyline points="47.663 18.72 48.268 20.381 47.852 20.532 47.191 18.72" fill="#666464" fill-rule="evenodd"/><polygon points="47.527 19.636 47.338 19.12 47.338 19.12 47.191 18.72 44.874 18.721 45.221 19.675 45.221 19.675 45.291 19.866 45.291 19.866 45.479 20.382 45.479 20.382 45.479 20.382 47.527 19.636" fill="#727171" fill-rule="evenodd"/><polyline points="50.452 18.718 51.057 20.379 50.641 20.531 49.98 18.719" fill="#666464" fill-rule="evenodd"/><polygon points="50.316 19.634 50.127 19.118 50.127 19.118 49.98 18.719 47.663 18.72 48.08 19.865 48.08 19.865 48.268 20.381 48.268 20.381 48.268 20.381 50.316 19.634" fill="#727171" fill-rule="evenodd"/><polyline points="53.241 18.717 53.846 20.378 53.43 20.529 52.769 18.717" fill="#666464" fill-rule="evenodd"/><polygon points="53.105 19.633 52.916 19.117 52.916 19.117 52.769 18.717 50.452 18.718 50.869 19.863 50.869 19.863 51.057 20.379 51.057 20.379 51.057 20.379 53.105 19.633" fill="#727171" fill-rule="evenodd"/><polyline points="56.03 18.715 56.635 20.376 56.219 20.528 55.558 18.716" fill="#666464" fill-rule="evenodd"/><polygon points="55.894 19.631 55.705 19.115 55.705 19.115 55.558 18.716 53.241 18.717 53.706 19.994 53.846 20.378 53.847 20.378 53.847 20.378 55.894 19.631" fill="#727171" fill-rule="evenodd"/><polyline points="58.819 18.714 59.424 20.375 59.008 20.526 58.347 18.714" fill="#666464" fill-rule="evenodd"/><polygon points="58.683 19.63 58.494 19.114 58.494 19.114 58.347 18.714 56.03 18.715 56.496 19.993 56.635 20.376 56.636 20.376 56.636 20.376 58.683 19.63" fill="#727171" fill-rule="evenodd"/><polyline points="61.608 18.712 62.213 20.373 61.797 20.525 61.136 18.713" fill="#666464" fill-rule="evenodd"/><polygon points="61.472 19.628 61.283 19.112 61.283 19.112 61.136 18.713 58.819 18.714 59.285 19.991 59.424 20.375 59.425 20.375 59.425 20.375 61.472 19.628" fill="#727171" fill-rule="evenodd"/><polygon points="64.695 18.667 64.512 18.667 64.512 18.706 64.325 18.706 64.325 18.711 61.608 18.712 62.213 20.373 64.209 19.644 64.695 19.467 64.695 18.667" fill="#727171" fill-rule="evenodd"/><polygon points="15.141 35.903 23.943 35.903 23.943 24.257 30.026 24.257 30.026 35.903 32.255 35.903 32.255 22.267 16.733 22.267 16.733 12.097 15.141 12.097 15.141 35.903" fill="#727171"/><rect x="8.191" y="15.048" width="6.842" height="6.54" rx="0.366" ry="0.366" fill="#595757"/><rect x="8.484" y="15.367" width="6.256" height="5.928" fill="#d3d3d4" stroke="#9fa0a0" stroke-width="0.134"/><polygon points="8.757 19.062 9.108 19.062 9.108 19.689 9.934 19.689 9.934 20.72 12.781 20.721 12.781 15.942 9.934 15.941 9.934 16.971 9.108 16.971 9.108 17.597 8.757 17.597 8.757 19.062" fill="#4c4948" stroke="#9fa0a0" stroke-width="0.202"/><rect x="8.484" y="15.366" width="0.964" height="1.202" fill="#7cae2a" stroke="#9fa0a0" stroke-width="0.146"/><rect x="8.484" y="20.092" width="0.964" height="1.202" fill="#7cae2a" stroke="#9fa0a0" stroke-width="0.146"/><rect x="8.191" y="22.514" width="6.842" height="6.54" rx="0.366" ry="0.366" fill="#595757"/><rect x="8.484" y="22.832" width="6.256" height="5.928" fill="#d3d3d4" stroke="#9fa0a0" stroke-width="0.134"/><polygon points="8.757 26.528 9.108 26.528 9.108 27.155 9.934 27.155 9.934 28.186 12.781 28.186 12.781 23.407 9.934 23.406 9.934 24.436 9.108 24.436 9.108 25.063 8.757 25.063 8.757 26.528" fill="#4c4948" stroke="#9fa0a0" stroke-width="0.202"/><rect x="8.484" y="22.831" width="0.964" height="1.202" fill="#7cae2a" stroke="#9fa0a0" stroke-width="0.146"/><rect x="8.484" y="27.558" width="0.964" height="1.202" fill="#7cae2a" stroke="#9fa0a0" stroke-width="0.146"/><polygon points="17.569 20.082 17.569 12.097 16.733 12.097 16.733 22.267 32.255 22.267 32.255 35.903 33.042 35.903 33.042 20.082 17.569 20.082" fill="#514f4e" fill-rule="evenodd"/><polygon points="34.372 21.18 34.372 20.172 34.372 12.097 17.569 12.097 17.569 20.082 33.054 20.082 33.054 21.344 33.025 21.344 33.025 26.032 65.792 26.032 65.792 21.18 34.372 21.18" fill="#727171"/><polygon points="24.403 32.095 24.11 31.406 24.11 27.185 24.403 26.496 24.874 26.496 24.874 32.095 24.403 32.095" fill="#615f5f"/><rect x="27.123" y="26.496" width="2.518" height="5.599" fill="#6d6c6c"/><path d="M29.443,26.5V26.044l-0.166-.065V24.942a0.327,0.327,0,0,0-.327-0.327H27.586a0.44,0.44,0,0,0-.492.331v0.218a1.228,1.228,0,0,1-.638.525,0.456,0.456,0,0,0-.215.428V26.5h0.377V25.923h0.506V26.5" fill="#545251"/><polygon points="26.617 26.519 26.617 26.496 24.874 26.496 24.874 32.095 26.617 32.095 26.617 32.118 27.123 32.118 27.123 26.519 26.617 26.519" fill="#666464"/><polygon points="29.313 28.214 29.313 26.663 27.473 26.663 27.473 26.496 27.123 26.496 27.123 32.095 27.473 32.095 27.473 31.928 29.313 31.928 29.313 30.378 27.473 30.378 27.473 30.071 29.313 30.071 29.313 28.521 27.473 28.521 27.473 28.214 29.313 28.214" fill="#595757"/><rect x="27.855" y="28.768" width="1.055" height="1.055" fill="#44403f"/><rect x="27.855" y="26.911" width="1.055" height="1.055" fill="#44403f"/><rect x="27.855" y="30.626" width="1.055" height="1.055" fill="#44403f"/><circle cx="25.746" cy="29.296" r="0.701" transform="translate(-13.175 26.786) rotate(-45.001)" fill="#9fa0a0" stroke="#727171" stroke-width="0.129"/><path d="M26.16,29.858a0.693,0.693,0,0,0,.081-0.066,0.663,0.663,0,0,0,.066-0.081l-0.974-.975a0.709,0.709,0,0,0-.081.066,0.719,0.719,0,0,0-.066.081Z" fill="#666464"/><circle cx="25.746" cy="29.296" r="0.701" transform="translate(-13.175 26.786) rotate(-45.001)" fill="none" stroke="#595757" stroke-width="0.129"/><circle cx="25.746" cy="27.437" r="0.701" transform="translate(-11.86 26.241) rotate(-45.001)" fill="#9fa0a0" stroke="#727171" stroke-width="0.129"/><path d="M26.16,28a0.693,0.693,0,0,0,.081-0.066,0.663,0.663,0,0,0,.066-0.081l-0.974-.975a0.709,0.709,0,0,0-.081.066,0.717,0.717,0,0,0-.066.081Z" fill="#666464"/><circle cx="25.746" cy="27.437" r="0.701" transform="translate(-11.86 26.241) rotate(-45.001)" fill="none" stroke="#595757" stroke-width="0.129"/><circle cx="25.746" cy="31.155" r="0.701" transform="translate(-14.49 27.345) rotate(-45.022)" fill="#9fa0a0" stroke="#727171" stroke-width="0.129"/><path d="M25.184,30.74a0.674,0.674,0,0,1,.066-0.081,0.7,0.7,0,0,1,.081-0.066l0.974,0.975a0.7,0.7,0,0,1-.066.081,0.748,0.748,0,0,1-.081.067Z" fill="#666464"/><circle cx="25.746" cy="31.155" r="0.701" transform="translate(-14.49 27.345) rotate(-45.022)" fill="none" stroke="#595757" stroke-width="0.129"/><circle cx="28.187" cy="25.565" r="0.701" transform="translate(-9.822 27.419) rotate(-45)" fill="#9fa0a0" stroke="#727171" stroke-width="0.129"/><path d="M28.6,26.127a0.512,0.512,0,0,0,.147-0.147l-0.975-.975a0.735,0.735,0,0,0-.081.066,0.746,0.746,0,0,0-.066.081Z" fill="#666464"/><circle cx="28.187" cy="25.565" r="0.701" transform="translate(-9.822 27.419) rotate(-45)" fill="none" stroke="#595757" stroke-width="0.129"/><path d="M29.443,32.1v0.452l-0.166.065V33.65a0.327,0.327,0,0,1-.327.327H27.586a0.44,0.44,0,0,1-.492-0.331V33.428a1.228,1.228,0,0,0-.638-0.525,0.456,0.456,0,0,1-.215-0.428V32.1h0.377v0.573h0.506V32.1" fill="#545251"/><circle cx="28.187" cy="33.026" r="0.701" transform="translate(-15.098 29.616) rotate(-45.015)" fill="#9fa0a0" stroke="#727171" stroke-width="0.129"/><path d="M27.625,32.611a0.513,0.513,0,0,1,.147-0.147l0.975,0.975a0.735,0.735,0,0,1-.066.081,0.727,0.727,0,0,1-.081.066Z" fill="#666464"/><circle cx="28.187" cy="33.026" r="0.701" transform="translate(-15.098 29.616) rotate(-45.015)" fill="none" stroke="#595757" stroke-width="0.129"/><polyline points="41.439 18.723 41.535 18.988 39.643 19.678 39.296 18.724" fill="#c9d2d8" fill-rule="evenodd"/><path d="M41.1,18.723a0.938,0.938,0,0,1-1.49.383,0.8,0.8,0,0,1-.257-0.379" fill="#d3edfb" fill-rule="evenodd"/><path d="M40.139,18.724a0.493,0.493,0,0,1,.063.141c0.05,0.116.09,0.239,0.133,0.358a0.855,0.855,0,0,0,.343-0.126v0c-0.046-.124-0.093-0.246-0.133-0.371" fill="#b7cdda" fill-rule="evenodd"/><path d="M39.814,18.724c-0.1.04-.209,0.077-0.313,0.108l-0.036-.114" fill="#b7cdda" fill-rule="evenodd"/><polyline points="44.228 18.722 44.324 18.987 42.432 19.677 42.085 18.723" fill="#c9d2d8" fill-rule="evenodd"/><path d="M43.889,18.722a0.938,0.938,0,0,1-1.49.383,0.8,0.8,0,0,1-.257-0.379" fill="#d3edfb" fill-rule="evenodd"/><path d="M42.928,18.722a0.485,0.485,0,0,1,.063.141c0.05,0.116.09,0.239,0.133,0.358a0.858,0.858,0,0,0,.344-0.126h0c-0.046-.124-0.093-0.246-0.133-0.371" fill="#b7cdda" fill-rule="evenodd"/><polyline points="47.017 18.72 47.113 18.985 45.221 19.675 44.874 18.721" fill="#c9d2d8" fill-rule="evenodd"/><path d="M42.6,18.723c-0.1.04-.209,0.077-0.313,0.108l-0.036-.114" fill="#b7cdda" fill-rule="evenodd"/><path d="M46.678,18.72a0.937,0.937,0,0,1-1.49.383,0.8,0.8,0,0,1-.257-0.379" fill="#d3edfb" fill-rule="evenodd"/><path d="M45.717,18.721a0.486,0.486,0,0,1,.063.141c0.05,0.116.09,0.239,0.133,0.358a0.858,0.858,0,0,0,.344-0.126v0c-0.046-.124-0.093-0.246-0.133-0.371" fill="#b7cdda" fill-rule="evenodd"/><path d="M45.392,18.721c-0.1.04-.208,0.077-0.313,0.108l-0.036-.114" fill="#b7cdda" fill-rule="evenodd"/><polyline points="49.806 18.719 49.902 18.984 48.01 19.674 47.663 18.72" fill="#c9d2d8" fill-rule="evenodd"/><path d="M49.467,18.719a0.938,0.938,0,0,1-1.49.383,0.8,0.8,0,0,1-.257-0.379" fill="#d3edfb" fill-rule="evenodd"/><path d="M48.506,18.719a0.486,0.486,0,0,1,.063.141c0.05,0.116.09,0.239,0.133,0.358a0.857,0.857,0,0,0,.344-0.126v0c-0.046-.124-0.093-0.246-0.133-0.371" fill="#b7cdda" fill-rule="evenodd"/><path d="M48.181,18.72c-0.1.04-.209,0.077-0.313,0.108l-0.036-.114" fill="#b7cdda" fill-rule="evenodd"/><polyline points="52.595 18.717 52.691 18.982 50.799 19.672 50.452 18.718" fill="#c9d2d8" fill-rule="evenodd"/><path d="M52.256,18.717a0.938,0.938,0,0,1-1.49.383,0.8,0.8,0,0,1-.257-0.379" fill="#d3edfb" fill-rule="evenodd"/><path d="M51.3,18.718a0.485,0.485,0,0,1,.063.141c0.05,0.116.09,0.239,0.133,0.358a0.857,0.857,0,0,0,.344-0.126h0c-0.046-.124-0.093-0.246-0.133-0.371" fill="#b7cdda" fill-rule="evenodd"/><path d="M50.97,18.718c-0.1.04-.209,0.077-0.313,0.108l-0.036-.114" fill="#b7cdda" fill-rule="evenodd"/><polyline points="55.384 18.716 55.48 18.981 53.588 19.671 53.241 18.717" fill="#c9d2d8" fill-rule="evenodd"/><path d="M55.045,18.716a0.938,0.938,0,0,1-1.49.383,0.8,0.8,0,0,1-.258-0.379" fill="#d3edfb" fill-rule="evenodd"/><path d="M54.084,18.716a0.486,0.486,0,0,1,.063.141c0.05,0.116.09,0.239,0.133,0.358a0.852,0.852,0,0,0,.343-0.126v0c-0.046-.124-0.093-0.246-0.133-0.371" fill="#b7cdda" fill-rule="evenodd"/><path d="M53.759,18.717c-0.1.04-.209,0.077-0.313,0.108l-0.036-.114" fill="#b7cdda" fill-rule="evenodd"/><polyline points="58.173 18.714 58.269 18.979 56.377 19.669 56.03 18.715" fill="#c9d2d8" fill-rule="evenodd"/><path d="M57.834,18.714a0.938,0.938,0,0,1-1.49.383,0.8,0.8,0,0,1-.258-0.379" fill="#d3edfb" fill-rule="evenodd"/><path d="M56.874,18.715a0.485,0.485,0,0,1,.063.141c0.05,0.116.09,0.239,0.133,0.358a0.855,0.855,0,0,0,.343-0.126h0c-0.046-.124-0.093-0.246-0.133-0.371" fill="#b7cdda" fill-rule="evenodd"/><path d="M56.549,18.715c-0.1.04-.209,0.077-0.313,0.108L56.2,18.709" fill="#b7cdda" fill-rule="evenodd"/><polyline points="60.962 18.713 61.058 18.978 59.166 19.668 58.819 18.714" fill="#c9d2d8" fill-rule="evenodd"/><path d="M60.623,18.713a0.938,0.938,0,0,1-1.49.383,0.8,0.8,0,0,1-.258-0.379" fill="#d3edfb" fill-rule="evenodd"/><path d="M59.663,18.713a0.486,0.486,0,0,1,.063.141c0.05,0.116.09,0.239,0.133,0.358a0.858,0.858,0,0,0,.343-0.126v0c-0.046-.124-0.093-0.246-0.133-0.371" fill="#b7cdda" fill-rule="evenodd"/><path d="M59.338,18.714c-0.1.04-.209,0.077-0.313,0.108l-0.036-.114" fill="#b7cdda" fill-rule="evenodd"/><polyline points="63.751 18.711 63.847 18.976 61.955 19.666 61.608 18.712" fill="#c9d2d8" fill-rule="evenodd"/><path d="M63.412,18.711a0.938,0.938,0,0,1-1.49.383,0.8,0.8,0,0,1-.258-0.379" fill="#d3edfb" fill-rule="evenodd"/><path d="M62.451,18.712a0.486,0.486,0,0,1,.063.141c0.05,0.116.089,0.239,0.133,0.358a0.858,0.858,0,0,0,.344-0.126v0c-0.046-.124-0.093-0.246-0.133-0.371" fill="#b7cdda" fill-rule="evenodd"/><path d="M62.126,18.712c-0.1.04-.209,0.077-0.313,0.108l-0.036-.114" fill="#b7cdda" fill-rule="evenodd"/><rect x="7.202" y="12.097" width="58.596" height="23.805" fill="none" stroke="#231815" stroke-width="0.194"/><path d="M22.241,29.162v0.144a2.432,2.432,0,0,1,.7.61,2.419,2.419,0,0,1,.176.257,2.224,2.224,0,0,1,.141.28,2.308,2.308,0,0,1,.1.3c0.014,0.052.027,0.1,0.039,0.156s0.019,0.106.027,0.16,0.013,0.108.017,0.163l0,0.083c0,0.028,0,.056,0,0.084s0,0.056,0,.083l0,0.083c0,0.055-.01.11-0.017,0.164s-0.017.106-.027,0.159-0.024.1-.039,0.156a2.444,2.444,0,0,1-.246.579,2.582,2.582,0,0,1-.176.257,2.524,2.524,0,0,1-.206.232,2.443,2.443,0,0,1-.492.377v0.819h1.114a0.407,0.407,0,0,0,.273-0.109,0.35,0.35,0,0,0,.083-0.116,0.334,0.334,0,0,0,.031-0.142V29.162h-1.5Z" fill="#fff"/><path d="M22.241,23.855v0.216a2.451,2.451,0,0,1,.492.377,2.233,2.233,0,0,1,.206.233,2.523,2.523,0,0,1,.176.257,2.388,2.388,0,0,1,.246.579c0.014,0.052.027,0.1,0.039,0.156s0.019,0.106.027,0.159,0.013,0.109.017,0.163l0,0.084c0,0.027,0,.054,0,0.083s0,0.056,0,.084l0,0.082c0,0.054-.01.109-0.017,0.163s-0.017.107-.027,0.159-0.024.1-.039,0.156a2.306,2.306,0,0,1-.1.3,2.2,2.2,0,0,1-.141.279,2.346,2.346,0,0,1-.176.257,2.207,2.207,0,0,1-.206.232,2.443,2.443,0,0,1-.492.377v0.8h1.5V23.855h-1.5Z" fill="#fff"/><path d="M59.039,15.188v-0.83a0.074,0.074,0,0,1,0-.023l0.007-.025,0.009-.022a0.125,0.125,0,0,1,.013-0.022l0.014-.021a0.129,0.129,0,0,1,.017-0.018,0.093,0.093,0,0,1,.018-0.017,0.126,0.126,0,0,1,.021-0.014,0.107,0.107,0,0,1,.022-0.013l0.022-.009a0.122,0.122,0,0,1,.025-0.006l0.023,0,0.025,0h0.887l0.023,0.006a0.118,0.118,0,0,1,.024.006,0.116,0.116,0,0,1,.022.009l0.022,0.011,0.02,0.015,0.018,0.016a0.125,0.125,0,0,1,.017.019l0.015,0.02,0.011,0.022,0.009,0.023a0.166,0.166,0,0,1,.007.023,0.221,0.221,0,0,1,.005.025v0.829h-1.3Z" fill="#fff"/><path d="M57.59,15.188h-1.3V14.36a0.111,0.111,0,0,1,.005-0.025,0.1,0.1,0,0,1,.006-0.023l0.01-.023,0.011-.022a0.2,0.2,0,0,1,.015-0.02l0.016-.019,0.019-.017L56.39,14.2l0.021-.011a0.119,0.119,0,0,1,.023-0.009l0.023-.008,0.025,0h0.91l0.025,0,0.023,0.007,0.023,0.009L57.485,14.2a0.11,0.11,0,0,1,.019.014l0.019,0.017,0.017,0.018a0.1,0.1,0,0,1,.014.021,0.155,0.155,0,0,1,.012.022,0.107,0.107,0,0,1,.01.022l0.007,0.024,0,0.024a0.1,0.1,0,0,1,0,.024v0.8Z" fill="#fff"/><path d="M51.974,15.192h-1.3V14.364l0-.024,0.008-.023,0.009-.023,0.012-.022,0.015-.021,0.016-.018,0.019-.017,0.019-.014,0.022-.012,0.023-.009,0.023-.007,0.025,0h0.911a0.07,0.07,0,0,1,.024,0,0.118,0.118,0,0,1,.023.006l0.023,0.009L51.87,14.2l0.021,0.015,0.018,0.016a0.127,0.127,0,0,1,.016.019,0.1,0.1,0,0,1,.015.021,0.2,0.2,0,0,1,.013.021l0.009,0.023,0.007,0.023a0.1,0.1,0,0,1,0,.025,0.126,0.126,0,0,1,0,.024v0.805Z" fill="#fff"/><path d="M50.6,15.193h-1.3V14.364a0.074,0.074,0,0,1,0-.023,0.139,0.139,0,0,1,.007-0.024l0.009-.022,0.011-.022,0.016-.02a0.105,0.105,0,0,1,.017-0.018,0.137,0.137,0,0,1,.018-0.017A0.128,0.128,0,0,1,49.4,14.2a0.067,0.067,0,0,1,.021-0.012l0.022-.01,0.023-.007,0.024,0a0.138,0.138,0,0,1,.025,0H50.4l0.023,0.005,0.024,0.007,0.022,0.009L50.493,14.2l0.021,0.014,0.018,0.017,0.017,0.018,0.014,0.021,0.013,0.022,0.009,0.023,0.007,0.023a0.076,0.076,0,0,1,0,.024l0,0.023v0.806Z" fill="#fff"/><path d="M49.111,15.194h-1.3v-0.8a0.133,0.133,0,0,1,0-.025,0.191,0.191,0,0,1,0-.023l0.007-.024,0.009-.022a0.108,0.108,0,0,1,.013-0.022,0.087,0.087,0,0,1,.015-0.021,0.09,0.09,0,0,1,.016-0.018,0.1,0.1,0,0,1,.018-0.017,0.115,0.115,0,0,1,.02-0.014,0.132,0.132,0,0,1,.022-0.013l0.022-.009,0.024-.006a0.083,0.083,0,0,1,.023,0h0.024l0.863,0,0.024,0,0.025,0,0.023,0.008a0.118,0.118,0,0,1,.022.009,0.162,0.162,0,0,1,.022.012,0.128,0.128,0,0,1,.021.014,0.136,0.136,0,0,1,.018.017,0.1,0.1,0,0,1,.017.018l0.015,0.02,0.012,0.022L49.1,14.316a0.145,0.145,0,0,1,.006.024,0.1,0.1,0,0,1,.005.025v0.829Z" fill="#fff"/><path d="M46.359,15.2l-1.3,0V14.368a0.122,0.122,0,0,1,.005-0.025l0.007-.023a0.145,0.145,0,0,1,.009-0.023l0.012-.022,0.015-.02,0.015-.018,0.019-.017a0.11,0.11,0,0,1,.021-0.014l0.021-.012,0.023-.01,0.023-.007,0.024,0a0.109,0.109,0,0,1,.024,0h0.863a0.1,0.1,0,0,1,.023,0,0.072,0.072,0,0,1,.025,0l0.023,0.007,0.023,0.009L46.255,14.2l0.02,0.015a0.141,0.141,0,0,1,.019.015l0.017,0.02,0.014,0.019L46.337,14.3l0.009,0.023,0.006,0.023,0,0.024a0.152,0.152,0,0,1,0,.024Z" fill="#fff"/><path d="M42.193,15.2v-0.8a0.107,0.107,0,0,1,0-.024l0-.025,0.006-.023,0.009-.022a0.139,0.139,0,0,1,.013-0.022,0.094,0.094,0,0,1,.014-0.02,0.148,0.148,0,0,1,.017-0.019l0.018-.016,0.021-.015,0.022-.012,0.022-.009,0.024-.007a0.076,0.076,0,0,1,.024,0l0.023,0H43.3l0.025,0,0.023,0.006a0.115,0.115,0,0,1,.022.01,0.079,0.079,0,0,1,.022.012,0.114,0.114,0,0,1,.021.014,0.112,0.112,0,0,1,.018.017,0.114,0.114,0,0,1,.017.018l0.015,0.02L43.474,14.3l0.009,0.022,0.006,0.024,0.005,0.023V15.2h-1.3Z" fill="#fff"/><path d="M63.2,15.184l-1.3,0v-0.8a0.154,0.154,0,0,1,0-.025l0-.024,0.007-.023a0.23,0.23,0,0,1,.009-0.023l0.012-.022,0.014-.019,0.016-.019,0.02-.017L62,14.193a0.193,0.193,0,0,0,.022-0.012l0.023-.009,0.023-.007,0.024-.005h0.91l0.025,0,0.023,0.006,0.024,0.009L63.1,14.193l0.021,0.014,0.018,0.017,0.017,0.018a0.142,0.142,0,0,1,.014.021,0.073,0.073,0,0,1,.012.022,0.1,0.1,0,0,1,.01.022,0.121,0.121,0,0,1,.007.024,0.127,0.127,0,0,1,0,.023,0.166,0.166,0,0,1,0,.025v0.8Z" fill="#fff"/><path d="M63.2,15.258v2.629l0,0.024-0.007.023-0.011.023a0.077,0.077,0,0,1-.012.022,0.137,0.137,0,0,1-.014.021,0.182,0.182,0,0,1-.017.018,0.08,0.08,0,0,1-.018.016,0.116,0.116,0,0,1-.021.014,0.108,0.108,0,0,1-.022.012l-0.023.011-0.023.006-0.024,0a0.122,0.122,0,0,1-.023,0H62.1l-0.025-.006-0.023-.006-0.023-.009-0.022-.012a0.178,0.178,0,0,1-.019-0.016c-0.008,0-.013-0.01-0.02-0.015L61.951,18l-0.014-.019-0.012-.022-0.01-.023-0.007-.023,0-.025a0.117,0.117,0,0,1,0-.023V15.259h1.3Z" fill="#fff"/><path d="M61.829,15.259v2.629a0.215,0.215,0,0,1,0,.025,0.132,0.132,0,0,1-.007.023l-0.009.023-0.013.022a0.136,0.136,0,0,1-.014.019,0.146,0.146,0,0,1-.017.019l-0.018.017-0.021.014-0.022.012a0.115,0.115,0,0,1-.022.009l-0.024.008-0.023,0H60.723a0.165,0.165,0,0,1-.024,0l-0.023-.007-0.024-.009c-0.006,0-.014-0.008-0.02-0.013a0.125,0.125,0,0,1-.021-0.014l-0.019-.017A0.122,0.122,0,0,1,60.575,18a0.141,0.141,0,0,1-.015-0.02l-0.012-.022a0.1,0.1,0,0,1-.009-0.022,0.108,0.108,0,0,1-.007-0.024,0.114,0.114,0,0,1-.005-0.023V17.865l0-2.6Z" fill="#fff"/><path d="M61.829,15.186h-1.3V14.358l0.005-.025,0.007-.023,0.009-.023,0.012-.022,0.015-.021,0.016-.018,0.02-.016,0.02-.015,0.022-.011a0.2,0.2,0,0,1,.022-0.01l0.023-.007,0.025,0h0.911a0.071,0.071,0,0,1,.023,0l0.025,0.007L61.7,14.182l0.022,0.012,0.021,0.016,0.018,0.015,0.017,0.019,0.014,0.019,0.013,0.022,0.009,0.023a0.14,0.14,0,0,1,.006.023,0.078,0.078,0,0,1,0,.024,0.154,0.154,0,0,1,0,.025Z" fill="#fff"/><path d="M60.342,15.261v2.6a0.155,0.155,0,0,1,0,.025,0.075,0.075,0,0,1,0,.024,0.135,0.135,0,0,1-.007.023l-0.009.023-0.011.021L60.3,18l-0.015.018-0.02.017-0.021.015-0.02.012-0.023.009-0.023.007a0.094,0.094,0,0,1-.024,0l-0.025,0H59.236l-0.023,0-0.024-.006a0.109,0.109,0,0,1-.022-0.01,0.067,0.067,0,0,1-.022-0.012,0.088,0.088,0,0,1-.021-0.014,0.1,0.1,0,0,1-.018-0.016A0.127,0.127,0,0,1,59.089,18l-0.016-.021-0.011-.022-0.009-.022a0.139,0.139,0,0,1-.007-0.024,0.129,0.129,0,0,1-.005-0.023l0-.024V15.261h1.3Z" fill="#fff"/><path d="M58.965,15.261l0,2.606v0.024l0,0.023-0.008.024-0.009.022-0.012.022L58.92,18l-0.017.018-0.018.016-0.021.014-0.022.013-0.023.009-0.023.006-0.024,0H58.748l-0.864,0-0.024,0-0.023,0-0.024-.008-0.022-.009-0.022-.011-0.02-.014-0.018-.017A0.093,0.093,0,0,1,57.713,18L57.7,17.984l-0.013-.022-0.009-.023-0.007-.023a0.085,0.085,0,0,1,0-.025,0.1,0.1,0,0,1,0-.023l0-2.606h1.3Z" fill="#fff"/><path d="M57.662,15.188v-0.8a0.16,0.16,0,0,1,0-.024l0-.024a0.167,0.167,0,0,1,.007-0.024l0.009-.022a0.135,0.135,0,0,1,.013-0.022,0.1,0.1,0,0,1,.014-0.021,0.081,0.081,0,0,1,.017-0.018,0.1,0.1,0,0,1,.018-0.017l0.021-.015,0.022-.012,0.023-.009,0.023-.007a0.082,0.082,0,0,1,.025,0h0.023l0.864,0a0.123,0.123,0,0,1,.024,0l0.024,0,0.023,0.006,0.023,0.011L58.86,14.2a0.111,0.111,0,0,1,.021.014L58.9,14.227c0.005,0.005.01,0.012,0.017,0.018l0.014,0.021a0.121,0.121,0,0,1,.012.022l0.009,0.022a0.188,0.188,0,0,1,.008.025l0,0.023a0.134,0.134,0,0,1,0,.024v0.806h-1.3Z" fill="#fff"/><path d="M57.59,15.262l0,2.606a0.118,0.118,0,0,1,0,.023l0,0.025-0.007.023-0.011.023a0.076,0.076,0,0,1-.012.022,0.129,0.129,0,0,1-.014.019,0.087,0.087,0,0,1-.017.019,0.173,0.173,0,0,1-.018.017l-0.02.014a0.234,0.234,0,0,1-.022.011,0.093,0.093,0,0,1-.023.009l-0.023.008-0.025,0a0.118,0.118,0,0,1-.023,0H56.509a0.134,0.134,0,0,1-.025,0,0.074,0.074,0,0,1-.024,0l-0.023-.007-0.023-.009-0.022-.012-0.019-.015-0.02-.015L56.336,18a0.082,0.082,0,0,1-.014-0.02l-0.012-.02A0.2,0.2,0,0,1,56.3,17.94a0.2,0.2,0,0,1-.008-0.023l0-.024V15.263h1.3Z" fill="#fff"/><path d="M56.213,15.263v2.629a0.16,0.16,0,0,1,0,.024L56.2,17.94l-0.009.023a0.21,0.21,0,0,1-.013.02,0.121,0.121,0,0,1-.014.02l-0.016.02-0.018.015a0.127,0.127,0,0,1-.021.015l-0.022.012a0.122,0.122,0,0,1-.022.009,0.141,0.141,0,0,1-.025.007,0.15,0.15,0,0,1-.023.005H55.107l-0.025,0-0.023-.007-0.023-.009a0.131,0.131,0,0,1-.02-0.013A0.109,0.109,0,0,1,55,18.041l-0.02-.017-0.015-.018-0.015-.02-0.011-.022a0.3,0.3,0,0,1-.021-0.07l0-.024V15.263h1.3Z" fill="#fff"/><path d="M54.91,15.191V14.361a0.081,0.081,0,0,1,0-.024,0.123,0.123,0,0,1,.007-0.023l0.009-.023,0.013-.022,0.014-.021a0.142,0.142,0,0,1,.017-0.018,0.11,0.11,0,0,1,.018-0.017,0.243,0.243,0,0,1,.043-0.026,0.107,0.107,0,0,1,.021-0.01l0.024-.006,0.024,0h0.911a0.076,0.076,0,0,1,.023,0l0.024,0.006,0.021,0.009L56.108,14.2l0.021,0.014a0.151,0.151,0,0,1,.018.017,0.182,0.182,0,0,1,.016.019l0.015,0.02,0.013,0.022L56.2,14.312l0.006,0.023a0.079,0.079,0,0,1,0,.025v0.829h-1.3Z" fill="#fff"/><path d="M54.727,15.263v2.606a0.151,0.151,0,0,1,0,.024,0.075,0.075,0,0,1,0,.023,0.127,0.127,0,0,1-.007.024,0.181,0.181,0,0,1-.009.022l-0.011.022-0.016.02-0.016.018-0.019.017a0.129,0.129,0,0,1-.021.014,0.181,0.181,0,0,1-.021.013,0.137,0.137,0,0,1-.023.009l-0.023.007a0.1,0.1,0,0,1-.024,0H53.621l-0.023,0-0.025-.007-0.022-.01a0.117,0.117,0,0,1-.022-0.011,0.135,0.135,0,0,1-.021-0.014,0.088,0.088,0,0,1-.018-0.017,0.118,0.118,0,0,1-.016-0.018l-0.015-.021-0.013-.022a0.131,0.131,0,0,1-.01-0.023l-0.006-.023a0.082,0.082,0,0,1,0-.023V17.871l0-2.606h1.3Z" fill="#fff"/><path d="M53.423,15.191v-0.8a0.142,0.142,0,0,1,0-.024,0.123,0.123,0,0,1,0-.023,0.157,0.157,0,0,1,.006-0.024c0-.008.007-0.016,0.009-0.022a0.112,0.112,0,0,1,.013-0.022,0.131,0.131,0,0,1,.014-0.02,0.118,0.118,0,0,1,.017-0.018,0.1,0.1,0,0,1,.018-0.017,0.111,0.111,0,0,1,.021-0.014,0.1,0.1,0,0,1,.021-0.013l0.022-.009,0.025-.007a0.185,0.185,0,0,1,.023,0l0.024,0H54.53l0.023,0,0.024,0.008a0.088,0.088,0,0,1,.022.009L54.622,14.2a0.1,0.1,0,0,1,.021.014,0.135,0.135,0,0,1,.018.017,0.128,0.128,0,0,1,.017.018l0.014,0.021L54.7,14.29a0.371,0.371,0,0,1,.016.047,0.134,0.134,0,0,1,.005.024v0.829h-1.3Z" fill="#fff"/><path d="M53.35,15.264l0,2.606v0.024a0.124,0.124,0,0,1-.006.023,0.146,0.146,0,0,1-.006.023,0.18,0.18,0,0,1-.009.023l-0.012.022-0.014.021-0.017.018-0.019.017-0.02.014a0.112,0.112,0,0,1-.021.011l-0.024.01a0.143,0.143,0,0,1-.023.007l-0.024,0H52.246l-0.025-.005L52.2,18.078l-0.023-.009-0.022-.012c-0.007-.005-0.014-0.009-0.02-0.014l-0.018-.017a0.185,0.185,0,0,1-.016-0.019l-0.015-.019-0.013-.022-0.009-.023-0.007-.023,0-.025V15.266Z" fill="#fff"/><path d="M53.35,15.191h-1.3V14.363l0-.025,0.006-.023,0.011-.023a0.133,0.133,0,0,1,.012-0.021,0.109,0.109,0,0,1,.014-0.021l0.016-.019,0.018-.016,0.02-.015,0.022-.011a0.133,0.133,0,0,1,.023-0.009,0.113,0.113,0,0,1,.023-0.006,0.1,0.1,0,0,1,.024-0.005l0.023,0h0.863a0.126,0.126,0,0,1,.024,0l0.024,0L53.2,14.178a0.185,0.185,0,0,1,.024.01,0.081,0.081,0,0,1,.02.011,0.116,0.116,0,0,1,.02.014,0.15,0.15,0,0,1,.02.017L53.3,14.249l0.014,0.02,0.012,0.022,0.009,0.022,0.008,0.024,0,0.023v0.829Z" fill="#fff"/><path d="M51.974,15.266l0,2.606a0.117,0.117,0,0,1,0,.023l0,0.025-0.007.023-0.009.023-0.013.022-0.014.019a0.17,0.17,0,0,1-.017.019l-0.018.017a0.163,0.163,0,0,1-.021.014l-0.022.012-0.023.009a0.13,0.13,0,0,1-.023.008l-0.025,0H50.869a0.077,0.077,0,0,1-.025,0,0.115,0.115,0,0,1-.023-0.006L50.8,18.07a0.122,0.122,0,0,1-.022-0.013,0.12,0.12,0,0,1-.02-0.014l-0.019-.017-0.017-.018a0.1,0.1,0,0,1-.014-0.02,0.114,0.114,0,0,1-.012-0.022,0.072,0.072,0,0,1-.009-0.022,0.216,0.216,0,0,1-.008-0.023l0-.025a0.1,0.1,0,0,1,0-.024v-2.6h1.3Z" fill="#fff"/><path d="M50.6,15.267v2.6a0.151,0.151,0,0,1,0,.024,0.1,0.1,0,0,1,0,.025l-0.007.023-0.009.022a0.136,0.136,0,0,1-.013.022,0.185,0.185,0,0,1-.014.02l-0.015.018-0.02.017a0.079,0.079,0,0,1-.02.014,0.109,0.109,0,0,1-.022.013,0.083,0.083,0,0,1-.022.009,0.115,0.115,0,0,1-.023.006l-0.024.005-0.025,0H49.517a0.139,0.139,0,0,1-.025,0l-0.024,0-0.023-.007-0.023-.011a0.063,0.063,0,0,1-.021-0.012,0.1,0.1,0,0,1-.021-0.014,0.165,0.165,0,0,1-.019-0.017l-0.016-.018-0.015-.021a0.121,0.121,0,0,1-.012-0.022l-0.009-.022a0.188,0.188,0,0,1-.007-0.025A0.125,0.125,0,0,1,49.3,17.9V15.267h1.3Z" fill="#fff"/><path d="M49.111,15.267l0,2.606,0,0.024a0.081,0.081,0,0,1,0,.023l-0.007.025a0.119,0.119,0,0,1-.009.022l-0.012.022C49.075,18,49.072,18,49.066,18.01l-0.017.018a0.222,0.222,0,0,1-.019.017,0.132,0.132,0,0,1-.021.014,0.191,0.191,0,0,1-.021.013l-0.023.009-0.023.007a0.087,0.087,0,0,1-.024,0,0.128,0.128,0,0,1-.024,0H48.006l-0.024,0-0.024-.008-0.022-.009-0.022-.012a0.131,0.131,0,0,1-.021-0.014l-0.018-.017-0.017-.018-0.014-.021-0.013-.022-0.009-.023a0.126,0.126,0,0,1-.006-0.023,0.066,0.066,0,0,1,0-.024,0.143,0.143,0,0,1,0-.023l0-2.606Z" fill="#fff"/><path d="M47.734,15.268l0,2.606V17.9l0,0.024-0.008.023a0.139,0.139,0,0,1-.009.023L47.7,17.99l-0.014.021-0.016.018c-0.007.005-.012,0.012-0.02,0.017a0.117,0.117,0,0,1-.019.014,0.246,0.246,0,0,1-.022.012l-0.023.01-0.023.007-0.025,0H46.653l-0.024,0a0.081,0.081,0,0,1-.023,0,0.127,0.127,0,0,1-.024-0.007l-0.023-.009-0.022-.012-0.021-.015L46.5,18.031l-0.017-.019c0-.007-0.01-0.013-0.014-0.02l-0.013-.022-0.009-.023a0.133,0.133,0,0,1-.006-0.023,0.071,0.071,0,0,1,0-.025,0.122,0.122,0,0,1,0-.023l0-2.606h1.3Z" fill="#fff"/><path d="M47.734,15.194h-1.3V14.367l0-.024,0.007-.023a0.211,0.211,0,0,1,.01-0.023l0.012-.022a0.119,0.119,0,0,1,.014-0.019l0.017-.02a0.1,0.1,0,0,1,.018-0.015,0.159,0.159,0,0,1,.021-0.015l0.022-.012,0.023-.009,0.023-.007a0.16,0.16,0,0,1,.024-0.005h0.911l0.024,0,0.024,0.006,0.023,0.009L47.63,14.2a0.12,0.12,0,0,1,.021.014l0.019,0.017,0.017,0.018L47.7,14.274,47.713,14.3l0.009,0.022a0.111,0.111,0,0,1,.008.024l0,0.023v0.829Z" fill="#fff"/><path d="M46.359,15.269V17.9l0,0.025a0.117,0.117,0,0,1-.007.023,0.182,0.182,0,0,1-.01.023,0.127,0.127,0,0,1-.012.022l-0.014.02-0.017.019-0.018.015a0.257,0.257,0,0,1-.021.015l-0.022.012a0.11,0.11,0,0,1-.023.009l-0.023.008-0.025,0H45.253c-0.008,0-.015,0-0.024,0l-0.023-.006-0.023-.009-0.022-.013-0.019-.014-0.019-.016-0.016-.018-0.014-.021L45.08,17.97a0.079,0.079,0,0,1-.009-0.022l-0.008-.024,0-.023,0-.025V15.269h1.3Z" fill="#fff"/><path d="M44.983,15.271V17.9a0.077,0.077,0,0,1,0,.023,0.119,0.119,0,0,1-.007.024l-0.009.022a0.294,0.294,0,0,1-.027.043,0.117,0.117,0,0,1-.017.018,0.124,0.124,0,0,1-.018.016,0.111,0.111,0,0,1-.02.014,0.161,0.161,0,0,1-.022.013l-0.022.009a0.166,0.166,0,0,1-.024.006,0.075,0.075,0,0,1-.023,0H43.877l-0.025,0a0.132,0.132,0,0,1-.023-0.007l-0.022-.009a0.077,0.077,0,0,1-.022-0.012,0.132,0.132,0,0,1-.02-0.014l-0.02-.017-0.015-.018-0.015-.021L43.7,17.971a0.117,0.117,0,0,1-.009-0.023,0.159,0.159,0,0,1-.007-0.023L43.682,17.9l0-.025V15.271h1.3Z" fill="#fff"/><path d="M44.983,15.2h-1.3V14.368a0.079,0.079,0,0,1,0-.023,0.113,0.113,0,0,1,.007-0.024L43.7,14.3a0.109,0.109,0,0,1,.012-0.022,0.12,0.12,0,0,1,.014-0.02,0.116,0.116,0,0,1,.017-0.018,0.111,0.111,0,0,1,.018-0.017,0.1,0.1,0,0,1,.021-0.014,0.126,0.126,0,0,1,.022-0.013l0.022-.009a0.105,0.105,0,0,1,.024-0.006,0.135,0.135,0,0,1,.023,0H43.9l0.863,0,0.024,0,0.023,0,0.023,0.008a0.1,0.1,0,0,1,.023.009l0.022,0.012a0.108,0.108,0,0,1,.02.014l0.018,0.017,0.017,0.018,0.014,0.02a0.141,0.141,0,0,1,.013.022L44.97,14.32a0.148,0.148,0,0,1,.007.023,0.078,0.078,0,0,1,0,.025,0.145,0.145,0,0,1,0,.023V15.2Z" fill="#fff"/><path d="M43.5,15.271v2.605a0.143,0.143,0,0,1,0,.025,0.078,0.078,0,0,1,0,.023,0.225,0.225,0,0,1-.006.024l-0.009.022-0.012.022-0.016.021-0.016.018-0.019.017-0.021.014a0.077,0.077,0,0,1-.021.012l-0.023.01a0.115,0.115,0,0,1-.025.006,0.119,0.119,0,0,1-.023,0H42.391l-0.023,0-0.025-.008-0.022-.009L42.3,18.064l-0.021-.015-0.018-.017-0.017-.019-0.014-.02-0.013-.022-0.009-.023a0.139,0.139,0,0,1-.007-0.023,0.085,0.085,0,0,1,0-.025,0.122,0.122,0,0,1,0-.023l0-2.606h1.3Z" fill="#fff"/><path d="M42.119,15.272l0,2.606V17.9l0,0.025-0.008.023a0.137,0.137,0,0,1-.009.023l-0.011.022-0.015.02-0.017.019-0.019.017-0.02.015a0.193,0.193,0,0,1-.022.011,0.178,0.178,0,0,1-.023.009,0.184,0.184,0,0,1-.023.008l-0.024,0h-0.91a0.076,0.076,0,0,1-.024,0l-0.023-.007-0.023-.009-0.022-.012L40.9,18.05l-0.018-.015-0.017-.02a0.125,0.125,0,0,1-.014-0.021,0.08,0.08,0,0,1-.012-0.02l-0.011-.023-0.006-.023,0-.024a0.13,0.13,0,0,1,0-.025v-2.6Z" fill="#fff"/><path d="M42.119,15.2h-1.3V14.394a0.117,0.117,0,0,1,0-.023l0-.025,0.006-.023,0.011-.023a0.137,0.137,0,0,1,.012-0.022l0.014-.019,0.016-.019,0.018-.017,0.021-.014,0.022-.011a0.128,0.128,0,0,1,.023-0.009l0.024-.008,0.024,0,0.023,0H41.9a0.125,0.125,0,0,1,.024,0l0.025,0,0.023,0.007,0.023,0.009a0.235,0.235,0,0,1,.021.013,0.17,0.17,0,0,1,.021.014l0.019,0.016,0.017,0.019a0.222,0.222,0,0,1,.015.02L42.1,14.3a0.112,0.112,0,0,1,.009.022l0.007,0.023,0,0.025V15.2Z" fill="#fff"/><path d="M40.744,15.274V17.9l0,0.024a0.126,0.126,0,0,1-.007.023l-0.009.023a0.167,0.167,0,0,1-.013.02,0.109,0.109,0,0,1-.014.021l-0.017.02-0.018.015-0.021.016-0.022.012-0.022.009-0.025.007-0.025.005H39.663a0.128,0.128,0,0,1-.024,0l-0.024,0-0.023-.006a0.161,0.161,0,0,1-.023-0.01,0.09,0.09,0,0,1-.022-0.012,0.127,0.127,0,0,1-.019-0.014l-0.019-.017-0.017-.018L39.476,18l-0.012-.022-0.009-.022a0.143,0.143,0,0,1-.008-0.025l0-.023a0.132,0.132,0,0,1,0-.024V15.274h1.3Z" fill="#fff"/><path d="M40.744,15.2h-1.3l0-.806,0-.024a0.12,0.12,0,0,1,.005-0.023,0.139,0.139,0,0,1,.007-0.025l0.009-.022,0.012-.022,0.014-.021L39.5,14.24l0.019-.017a0.139,0.139,0,0,1,.019-0.014,0.127,0.127,0,0,1,.022-0.012l0.023-.01,0.023-.007,0.024,0H39.66l0.863,0,0.024,0a0.086,0.086,0,0,1,.023,0l0.023,0.007a0.137,0.137,0,0,1,.023.009l0.022,0.011,0.021,0.014,0.018,0.017,0.017,0.019,0.014,0.019L40.722,14.3l0.009,0.023a0.151,0.151,0,0,1,.007.023,0.083,0.083,0,0,1,0,.025v0.023Z" fill="#fff"/><path d="M39.367,15.274v2.606a0.134,0.134,0,0,1,0,.024,0.072,0.072,0,0,1,0,.023,0.141,0.141,0,0,1-.006.025l-0.009.022L39.336,18l-0.015.021-0.016.018-0.019.017a0.11,0.11,0,0,1-.021.014,0.142,0.142,0,0,1-.02.013l-0.023.009-0.023.006a0.094,0.094,0,0,1-.025,0,0.139,0.139,0,0,1-.025,0H38.262l-0.025,0-0.023-.008a0.1,0.1,0,0,1-.023-0.009l-0.021-.011a0.126,0.126,0,0,1-.021-0.014l-0.02-.017-0.015-.018L38.1,18l-0.012-.022a0.135,0.135,0,0,1-.009-0.023l-0.007-.023a0.136,0.136,0,0,1-.005-0.025l0-.023V15.275h1.3Z" fill="#fff"/><path d="M39.218,14.187l0.022,0.01a0.117,0.117,0,0,1,.022.012,0.108,0.108,0,0,1,.021.014,0.116,0.116,0,0,1,.018.017,0.14,0.14,0,0,1,.017.018l0.014,0.021a0.153,0.153,0,0,1,.013.022,0.2,0.2,0,0,1,.009.023,0.131,0.131,0,0,1,.006.023,0.073,0.073,0,0,1,0,.023l0,0.024V15.2h-1.3V14.372a0.074,0.074,0,0,1,0-.023,0.166,0.166,0,0,1,.007-0.024,0.084,0.084,0,0,1,.009-0.022A0.128,0.128,0,0,1,38.1,14.28a0.119,0.119,0,0,1,.014-0.02,0.1,0.1,0,0,1,.017-0.018,0.09,0.09,0,0,1,.018-0.017,0.12,0.12,0,0,1,.02-0.014l0.022-.013,0.022-.009,0.024-.007a0.077,0.077,0,0,1,.023,0,0.14,0.14,0,0,1,.025,0h0.887l0.023,0Z" fill="#fff"/><path d="M43.407,21.436H45.3a0.366,0.366,0,0,1,.366.366v0.367a0.367,0.367,0,0,1-.367.367H43.405a0.365,0.365,0,0,1-.365-0.365V21.8A0.367,0.367,0,0,1,43.407,21.436Z" fill="#fff"/><path d="M37.827,21.436h4.737a0.366,0.366,0,0,1,.367.367v0.475a0.377,0.377,0,0,0,.027.141,0.339,0.339,0,0,0,.033.062,0.416,0.416,0,0,0,.047.057,0.333,0.333,0,0,0,.056.045,0.389,0.389,0,0,0,.063.033,0.368,0.368,0,0,0,.14.028h0.846a0.342,0.342,0,0,1,.11.017,0.244,0.244,0,0,1,.051.02,0.34,0.34,0,0,1,.049.029,0.335,0.335,0,0,1,.08.077,0.31,0.31,0,0,1,.053.1L44.7,23.472a0.334,0.334,0,0,1,.021.114,0.288,0.288,0,0,1,0,.059,0.313,0.313,0,0,1-.034.112,0.252,0.252,0,0,1-.03.05,0.228,0.228,0,0,1-.038.045,0.308,0.308,0,0,1-.044.039,0.389,0.389,0,0,1-.049.031,0.281,0.281,0,0,1-.054.023,0.376,0.376,0,0,1-.115.018H39.438a0.364,0.364,0,0,1-.344-0.241L38.83,23a0.348,0.348,0,0,0-.054-0.1,0.281,0.281,0,0,0-.036-0.043,0.373,0.373,0,0,0-.044-0.035,0.389,0.389,0,0,0-.048-0.029,0.263,0.263,0,0,0-.052-0.021,0.372,0.372,0,0,0-.111-0.016H37.827a0.361,0.361,0,0,1-.14-0.029,0.341,0.341,0,0,1-.063-0.034,0.328,0.328,0,0,1-.056-0.045,0.459,0.459,0,0,1-.047-0.057,0.369,0.369,0,0,1-.034-0.062,0.389,0.389,0,0,1-.027-0.141V21.8a0.381,0.381,0,0,1,.027-0.141,0.452,0.452,0,0,1,.034-0.064,0.447,0.447,0,0,1,.047-0.055,0.33,0.33,0,0,1,.056-0.045,0.359,0.359,0,0,1,.063-0.034A0.366,0.366,0,0,1,37.827,21.436Z" fill="#fff"/><path d="M60.05,22.352a0.185,0.185,0,0,1-.07-0.014l-0.033-.017a0.244,0.244,0,0,1-.027-0.023,0.214,0.214,0,0,1-.024-0.027c-0.006-.011-0.011-0.021-0.016-0.033a0.192,0.192,0,0,1-.014-0.07V21.436H57.415a0.376,0.376,0,0,0-.14.029,0.371,0.371,0,0,0-.062.034,0.353,0.353,0,0,0-.1.1,0.506,0.506,0,0,0-.033.064,0.372,0.372,0,0,0-.029.141v0.475a0.378,0.378,0,0,0,.029.141,0.391,0.391,0,0,0,.033.062,0.329,0.329,0,0,0,.1.1,0.369,0.369,0,0,0,.062.033,0.375,0.375,0,0,0,.14.028h3.13V22.352H60.05Z" fill="#fff"/><path d="M62.457,21.8v0.475a0.378,0.378,0,0,1-.028.141,0.341,0.341,0,0,1-.034.062,0.387,0.387,0,0,1-.045.057,0.408,0.408,0,0,1-.119.078,0.378,0.378,0,0,1-.141.028H60.654V22.352h0.5a0.182,0.182,0,0,0,.181-0.183V21.436H62.09a0.379,0.379,0,0,1,.141.029,0.365,0.365,0,0,1,.062.034,0.34,0.34,0,0,1,.057.045,0.36,0.36,0,0,1,.045.055,0.428,0.428,0,0,1,.034.064A0.372,0.372,0,0,1,62.457,21.8Z" fill="#fff"/><path d="M55.48,22.756h-2.1a0.383,0.383,0,0,0-.115.018,0.535,0.535,0,0,0-.053.023,0.365,0.365,0,0,0-.049.031,0.271,0.271,0,0,0-.044.039,0.263,0.263,0,0,0-.038.045,0.3,0.3,0,0,0-.03.05,0.264,0.264,0,0,0-.021.054,0.3,0.3,0,0,0-.013.057,0.3,0.3,0,0,0,0,.058,0.331,0.331,0,0,0,.022.115l0.173,0.477a0.366,0.366,0,0,0,.343.241h2.365Z" fill="#fff"/><path d="M58.478,23.472L58.305,23a0.365,0.365,0,0,0-.135-0.174c-0.013-.009-0.026-0.02-0.04-0.029a0.181,0.181,0,0,0-.034-0.021,0.129,0.129,0,0,0-.037-0.013,0.21,0.21,0,0,0-.048,0H55.6l0.333,0.915h0l0.107,0.294h2.1a0.386,0.386,0,0,0,.116-0.018,0.426,0.426,0,0,0,.054-0.023,0.372,0.372,0,0,0,.049-0.031,0.308,0.308,0,0,0,.044-0.039,0.279,0.279,0,0,0,.037-0.045,0.314,0.314,0,0,0,.03-0.05,0.371,0.371,0,0,0,.02-0.055,0.268,0.268,0,0,0,.014-0.057,0.305,0.305,0,0,0,0-.059A0.361,0.361,0,0,0,58.478,23.472Z" fill="#fff"/><path d="M52.9,23.472L52.726,23a0.363,0.363,0,0,0-.134-0.174c-0.013-.009-0.026-0.02-0.04-0.029a0.18,0.18,0,0,0-.034-0.021,0.132,0.132,0,0,0-.037-0.013,0.21,0.21,0,0,0-.047,0h-1.5l0.244,0.669a0.2,0.2,0,0,1,.012.058,0.2,0.2,0,0,1-.008.057,0.105,0.105,0,0,1-.012.028,0.13,0.13,0,0,1-.014.024,0.1,0.1,0,0,1-.018.022,0.14,0.14,0,0,1-.021.02,0.256,0.256,0,0,1-.052.027A0.194,0.194,0,0,1,51,23.67H50.35l0.107,0.294h2.1a0.384,0.384,0,0,0,.115-0.018,0.4,0.4,0,0,0,.054-0.023,0.355,0.355,0,0,0,.049-0.031,0.282,0.282,0,0,0,.044-0.039,0.266,0.266,0,0,0,.037-0.045,0.293,0.293,0,0,0,.03-0.05,0.347,0.347,0,0,0,.021-0.055,0.326,0.326,0,0,0,.016-0.116A0.384,0.384,0,0,0,52.9,23.472Z" fill="#fff"/><path d="M50.246,23.707l-0.012-.038H49.526a0.2,0.2,0,0,1-.056-0.008,0.184,0.184,0,0,1-.049-0.025A0.232,0.232,0,0,1,49.38,23.6a0.19,0.19,0,0,1-.026-0.049l-0.288-.794H47.75a0.379,0.379,0,0,0-.115.018,0.363,0.363,0,0,0-.053.023,0.324,0.324,0,0,0-.05.031,0.339,0.339,0,0,0-.044.039,0.367,0.367,0,0,0-.067.1,0.362,0.362,0,0,0-.021.054,0.253,0.253,0,0,0-.012.057,0.281,0.281,0,0,0,0,.058,0.369,0.369,0,0,0,.022.115l0.173,0.477a0.365,0.365,0,0,0,.343.241H50.34Z" fill="#fff"/><path d="M64.109,23.472L63.936,23a0.352,0.352,0,0,0-.053-0.1,0.291,0.291,0,0,0-.038-0.043,0.275,0.275,0,0,0-.043-0.035,0.326,0.326,0,0,0-.048-0.029,0.241,0.241,0,0,0-.051-0.021,0.37,0.37,0,0,0-.111-0.016h-1.5l0.245,0.669a0.227,0.227,0,0,1,.011.058,0.213,0.213,0,0,1,0,.029,0.194,0.194,0,0,1-.005.029,0.187,0.187,0,0,1-.026.052,0.18,0.18,0,0,1-.041.042,0.111,0.111,0,0,1-.025.015,0.085,0.085,0,0,1-.027.012,0.176,0.176,0,0,1-.056.009H61.508l0.107,0.294h2.151a0.382,0.382,0,0,0,.115-0.018,0.294,0.294,0,0,0,.052-0.023,0.32,0.32,0,0,0,.051-0.031,0.4,0.4,0,0,0,.044-0.039,0.308,0.308,0,0,0,.037-0.045,0.377,0.377,0,0,0,.03-0.05,0.408,0.408,0,0,0,.021-0.055,0.326,0.326,0,0,0,.016-0.116A0.392,0.392,0,0,0,64.109,23.472Z" fill="#fff"/><path d="M61.392,23.67H60.684a0.2,0.2,0,0,1-.056-0.008,0.184,0.184,0,0,1-.049-0.025,0.225,0.225,0,0,1-.042-0.039,0.2,0.2,0,0,1-.026-0.049l-0.29-.794H58.96a0.385,0.385,0,0,0-.115.018,0.5,0.5,0,0,0-.054.023,0.4,0.4,0,0,0-.049.031,0.324,0.324,0,0,0-.044.039,0.27,0.27,0,0,0-.037.045,0.321,0.321,0,0,0-.03.05,0.341,0.341,0,0,0-.022.054,0.448,0.448,0,0,0-.012.057,0.3,0.3,0,0,0,0,.058,0.356,0.356,0,0,0,.022.115l0.173,0.477a0.367,0.367,0,0,0,.344.241H61.5Z" fill="#fff"/><path d="M30.131,13.435a0.368,0.368,0,0,0-.195-0.195,0.359,0.359,0,0,0-.142-0.029H20.641a0.357,0.357,0,0,0-.142.029,0.348,0.348,0,0,0-.116.078,0.362,0.362,0,0,0-.107.259v1.656a0.356,0.356,0,0,0,.029.142,0.364,0.364,0,0,0,.079.116,0.349,0.349,0,0,0,.116.079,0.361,0.361,0,0,0,.142.029h9.152a0.363,0.363,0,0,0,.142-0.029,0.371,0.371,0,0,0,.116-0.079,0.375,0.375,0,0,0,.078-0.116,0.36,0.36,0,0,0,.028-0.142V13.577A0.363,0.363,0,0,0,30.131,13.435Zm-8.264,1.922H21.229V14.332h0.637v1.025Zm1.464,0H22.694V14.332h0.637v1.025Zm1.465,0H24.158V14.332H24.8v1.025Zm1.464,0H25.622V14.332h0.637v1.025Zm1.464,0H27.086V14.332h0.637v1.025Zm1.464,0H28.551V14.332h0.637v1.025Z" fill="#fff"/><path d="M47.686,22.352a0.187,0.187,0,0,1-.07-0.014l-0.032-.017a0.145,0.145,0,0,1-.027-0.023,0.168,0.168,0,0,1-.024-0.027,0.142,0.142,0,0,1-.016-0.033,0.178,0.178,0,0,1-.015-0.07V21.436H46.251a0.378,0.378,0,0,0-.141.029,0.355,0.355,0,0,0-.062.034,0.344,0.344,0,0,0-.057.045,0.393,0.393,0,0,0-.045.055,0.425,0.425,0,0,0-.033.064,0.368,0.368,0,0,0-.029.141v0.475a0.374,0.374,0,0,0,.029.141,0.339,0.339,0,0,0,.033.062,0.424,0.424,0,0,0,.045.057,0.371,0.371,0,0,0,.057.045,0.353,0.353,0,0,0,.062.033,0.378,0.378,0,0,0,.141.028H48.51V22.352H47.686Z" fill="#fff"/><path d="M51.271,21.662a0.452,0.452,0,0,0-.034-0.064,0.4,0.4,0,0,0-.045-0.055,0.432,0.432,0,0,0-.119-0.079,0.38,0.38,0,0,0-.141-0.029H49.625v0.733a0.183,0.183,0,0,1-.184.183H48.619v0.293h2.313a0.379,0.379,0,0,0,.141-0.028,0.352,0.352,0,0,0,.062-0.033,0.384,0.384,0,0,0,.057-0.045,0.426,0.426,0,0,0,.045-0.057,0.357,0.357,0,0,0,.034-0.062,0.383,0.383,0,0,0,.029-0.141V21.8A0.377,0.377,0,0,0,51.271,21.662Z" fill="#fff"/><path d="M32.052,28.443v1.751H30V28.443h2.049Z" fill="#fff"/><path d="M32.023,26.75a0.367,0.367,0,0,0-.079-0.116,0.363,0.363,0,0,0-.116-0.079,0.376,0.376,0,0,0-.142-0.029H30v1.806h2.049V26.892A0.357,0.357,0,0,0,32.023,26.75Z" fill="#fff"/><path d="M30,30.3v1.806h1.683a0.345,0.345,0,0,0,.142-0.029A0.341,0.341,0,0,0,31.942,32a0.371,0.371,0,0,0,.079-0.116,0.365,0.365,0,0,0,.03-0.143V30.3H30Z" fill="#fff"/><path d="M43.169,22.267a0.269,0.269,0,0,0,.023.044,0.232,0.232,0,0,0,.032.039,0.184,0.184,0,0,0,.039.033,0.3,0.3,0,0,0,.044.024,0.284,0.284,0,0,0,.1.019H45.3a0.257,0.257,0,0,0,.256-0.257V21.8a0.257,0.257,0,0,0-.256-0.257H43.405a0.258,0.258,0,0,0-.1.019,0.23,0.23,0,0,0-.044.025,0.2,0.2,0,0,0-.039.031,0.388,0.388,0,0,0-.032.04,0.241,0.241,0,0,0-.023.044,0.258,0.258,0,0,0-.019.1v0.365A0.255,0.255,0,0,0,43.169,22.267Z" fill="#b81c22"/><path d="M44.6,23.51l-0.214-.587a0.2,0.2,0,0,0-.037-0.068,0.16,0.16,0,0,0-.026-0.028,0.181,0.181,0,0,0-.03-0.025l-0.033-.021-0.036-.014a0.258,0.258,0,0,0-.077-0.012H41.648l0.4,1.1h2.306a0.24,0.24,0,0,0,.08-0.013,0.3,0.3,0,0,0,.039-0.015l0.035-.022c0.011-.008.021-0.018,0.031-0.027a0.293,0.293,0,0,0,.026-0.032,0.192,0.192,0,0,0,.02-0.035,0.318,0.318,0,0,0,.014-0.037c0-.015.007-0.028,0.009-0.042a0.213,0.213,0,0,0,0-.04A0.225,0.225,0,0,0,44.6,23.51Z" fill="#b81c22"/><path d="M42.992,22.645H40.25V22.352h0.823a0.182,0.182,0,0,0,.07-0.014l0.033-.017A0.183,0.183,0,0,0,41.2,22.3a0.246,0.246,0,0,0,.022-0.027,0.179,0.179,0,0,0,.017-0.033,0.187,0.187,0,0,0,.014-0.07V21.546h1.307a0.255,0.255,0,0,1,.1.019,0.194,0.194,0,0,1,.044.025,0.228,0.228,0,0,1,.039.031,0.272,0.272,0,0,1,.032.04,0.179,0.179,0,0,1,.025.044,0.284,0.284,0,0,1,.019.1v0.475A0.472,0.472,0,0,0,42.992,22.645Z" fill="#b81c22"/><path d="M41.532,22.756H38.79a0.482,0.482,0,0,1,.143.2L39.2,23.684a0.2,0.2,0,0,0,.038.068,0.216,0.216,0,0,0,.025.03,0.324,0.324,0,0,0,.03.024,0.278,0.278,0,0,0,.034.021l0.036,0.014a0.267,0.267,0,0,0,.078.012h2.492Z" fill="#b81c22"/><path d="M39.317,22.352h0.824v0.293H37.827a0.256,0.256,0,0,1-.1-0.021,0.251,0.251,0,0,1-.044-0.023,0.261,0.261,0,0,1-.039-0.031,0.4,0.4,0,0,1-.032-0.04,0.243,0.243,0,0,1-.023-0.044,0.26,0.26,0,0,1-.019-0.1V21.8a0.257,0.257,0,0,1,.256-0.257h1.307v0.623a0.183,0.183,0,0,0,.182.183h0Z" fill="#b81c22"/><path d="M23.713,23.053a0.384,0.384,0,0,0-.078-0.117,0.367,0.367,0,0,0-.118-0.079,0.352,0.352,0,0,0-.142-0.03H18.067a0.362,0.362,0,0,0-.142.03,0.371,0.371,0,0,0-.116.079,0.341,0.341,0,0,0-.079.117,0.355,0.355,0,0,0-.029.142v0.514h6.04V23.195A0.379,0.379,0,0,0,23.713,23.053Z" fill="#fff"/><path d="M15.1,17.235V15.587h1.1a0.367,0.367,0,0,1,.143.029,0.37,0.37,0,0,1,.2.2,0.383,0.383,0,0,1,.029.142v0.916a0.386,0.386,0,0,1-.029.142,0.38,0.38,0,0,1-.078.117,0.361,0.361,0,0,1-.26.107H15.1Z" fill="#fff"/><path d="M15.1,24.559V22.912h1.136a0.361,0.361,0,0,1,.142.028,0.343,0.343,0,0,1,.116.079,0.349,0.349,0,0,1,.079.116,0.367,0.367,0,0,1,.028.142v0.916a0.366,0.366,0,0,1-.028.142,0.356,0.356,0,0,1-.079.116,0.336,0.336,0,0,1-.116.079,0.357,0.357,0,0,1-.142.029H15.1Z" fill="#fff"/><path d="M15.1,21.135V19.487h1.1a0.368,0.368,0,0,1,.143.03,0.388,0.388,0,0,1,.117.078,0.369,0.369,0,0,1,.107.26V20.77a0.383,0.383,0,0,1-.029.142,0.37,0.37,0,0,1-.2.2,0.386,0.386,0,0,1-.143.029H15.1Z" fill="#fff"/><path d="M15.1,28.459V26.811h1.136a0.373,0.373,0,0,1,.258.107,0.368,0.368,0,0,1,.079.118,0.358,0.358,0,0,1,.028.142v0.917a0.367,0.367,0,0,1-.028.142,0.376,0.376,0,0,1-.079.116,0.342,0.342,0,0,1-.116.078,0.385,0.385,0,0,1-.142.028H15.1Z" fill="#fff"/><path d="M21.085,24.592a1.586,1.586,0,1,0,1.586,1.586A1.587,1.587,0,0,0,21.085,24.592Zm0,2.9A1.317,1.317,0,1,1,22.4,26.179,1.317,1.317,0,0,1,21.085,27.5Z" fill="#fff"/><polygon points="22.756 25.959 22.718 25.764 21.552 25.988 22.543 25.333 22.433 25.168 21.443 25.823 22.106 24.838 21.941 24.727 21.279 25.712 21.512 24.548 21.318 24.509 21.085 25.674 20.852 24.509 20.658 24.548 20.887 25.694 20.249 24.714 20.083 24.823 20.731 25.817 19.75 25.148 19.638 25.312 20.619 25.981 19.456 25.74 19.416 25.934 20.579 26.175 19.413 26.4 19.45 26.594 20.617 26.37 19.626 27.025 19.735 27.19 20.726 26.535 20.063 27.521 20.228 27.631 20.891 26.645 20.658 27.81 20.852 27.849 21.085 26.685 21.317 27.849 21.511 27.81 21.283 26.666 21.919 27.643 22.085 27.535 21.438 26.54 22.418 27.21 22.53 27.046 21.55 26.377 22.712 26.618 22.752 26.424 21.59 26.183 22.756 25.959" fill="#727171"/><circle cx="21.083" cy="26.171" r="1.109"/><circle cx="21.083" cy="26.171" r="0.752" fill="#f39800"/><polygon points="21.481 25.831 21.281 25.831 21.281 26.798 20.886 26.798 20.886 25.831 20.689 25.831 21.083 25.436 21.481 25.831" fill="#834e00"/><path d="M21.085,29.843a1.595,1.595,0,1,0,1.595,1.595A1.6,1.6,0,0,0,21.085,29.843Zm0,2.912A1.317,1.317,0,1,1,22.4,31.437,1.317,1.317,0,0,1,21.085,32.754Z" fill="#fff"/><polygon points="22.712 31.004 22.65 30.816 21.34 31.249 22.141 30.125 21.98 30.01 21.183 31.128 21.183 29.755 20.985 29.755 20.984 31.128 20.187 30.01 20.026 30.125 20.827 31.249 19.516 30.816 19.454 31.004 20.768 31.438 19.454 31.872 19.516 32.06 20.827 31.627 20.026 32.751 20.187 32.866 20.984 31.747 20.984 33.121 21.183 33.121 21.183 31.748 21.98 32.866 22.141 32.751 21.34 31.627 22.65 32.06 22.712 31.872 21.399 31.438 22.712 31.004" fill="#727171"/><circle cx="21.085" cy="31.438" r="1.109"/><circle cx="21.085" cy="31.438" r="0.752" fill="#f39800"/><polygon points="21.482 31.098 21.282 31.098 21.282 32.065 20.887 32.065 20.887 31.098 20.69 31.098 21.085 30.703 21.482 31.098" fill="#834e00"/></svg>