<svg xmlns="http://www.w3.org/2000/svg" xmlns:xlink="http://www.w3.org/1999/xlink" width="74" height="48" viewBox="0 0 74 48"><defs><linearGradient id="a" x1="-33.28" y1="187.145" x2="-31.718" y2="187.145" gradientTransform="translate(-177.772 -2.244) rotate(-90)" gradientUnits="userSpaceOnUse"><stop offset="0" stop-color="#888"/><stop offset="0.143" stop-color="#656464"/><stop offset="1" stop-color="#595757"/></linearGradient><radialGradient id="b" cx="-929.095" cy="238.932" r="0.475" gradientTransform="translate(-222.86 -906.095) rotate(-90) scale(0.995 0.995)" gradientUnits="userSpaceOnUse"><stop offset="0.011" stop-color="#a2c05d"/><stop offset="0.5" stop-color="#7dad2a"/><stop offset="1" stop-color="#61881c"/></radialGradient><radialGradient id="c" cx="-929.095" cy="235.122" r="0.475" xlink:href="#b"/><radialGradient id="d" cx="-929.095" cy="231.219" r="0.475" xlink:href="#b"/><radialGradient id="e" cx="-929.095" cy="227.409" r="0.475" xlink:href="#b"/></defs><title>cc-link_ie_rio_stb2</title><rect width="74" height="48" fill="#fff"/><rect x="0.33" y="14.85" width="73.341" height="17.599" fill="#535151"/><rect x="18.262" y="14.85" width="55.409" height="10.969" fill="#676866"/><rect x="18.48" y="15.034" width="54.972" height="10.567" fill="#545452"/><rect x="18.703" y="15.271" width="54.526" height="10.094" fill="#60605e"/><path d="M41.413,19.917a1.553,1.553,0,0,1-.155.331L41.048,20.1a1.242,1.242,0,0,0,.179-0.546h0.256A1.443,1.443,0,0,1,41.413,19.917Z" fill="#fff"/><path d="M41.413,19a1.486,1.486,0,0,1,.07.367H41.227a1.231,1.231,0,0,0-.179-0.543l0.209-.153A1.537,1.537,0,0,1,41.413,19Z" fill="#fff"/><path d="M41.04,19.55l0.005-.07a0.433,0.433,0,0,1,0,.059Z" fill="#231815"/><path d="M40.556,18.091a1.512,1.512,0,0,1,.6.429l-0.21.153a1.2,1.2,0,0,0-.466-0.336Z" fill="#fff"/><path d="M41.152,20.4a1.494,1.494,0,0,1-.6.432l-0.08-.246a1.232,1.232,0,0,0,.466-0.336Z" fill="#fff"/><path d="M40.07,18.833l-0.054-.054-0.054.054H39.705a0.7,0.7,0,0,1,.621,0H40.07Z" fill="#ab6a00"/><polygon points="40.199 19.146 40.199 20.047 39.832 20.047 39.832 19.146 39.648 19.146 39.961 18.833 40.016 18.779 40.07 18.833 40.383 19.146 40.199 19.146" fill="#824e00"/><path d="M40.2,18a1.466,1.466,0,0,1,.181.034l-0.08.246a1.264,1.264,0,0,0-.142-0.026l-0.072-.008-0.073,0-0.072,0-0.073.008a1.254,1.254,0,0,0-.142.026l-0.078-.246A1.349,1.349,0,0,1,39.83,18c0.031-.005.062-0.008,0.093-0.01l0.046,0h0.093l0.046,0C40.14,17.993,40.171,18,40.2,18Z" fill="#fff"/><path d="M40.2,20.047v-0.9h0.184l-0.313-.313h0.259a0.7,0.7,0,1,1-.626,0h0.259l-0.313.313h0.184v0.9H40.2Z" fill="#f29600"/><path d="M40.3,20.639l0.08,0.243a1.477,1.477,0,0,1-.181.036c-0.031.005-.062,0.008-0.093,0.01a0.274,0.274,0,0,0-.046,0H39.969a0.275,0.275,0,0,0-.046,0c-0.031,0-.062-0.005-0.093-0.01a1.443,1.443,0,0,1-.179-0.036l0.078-.243c0.046,0.01.093,0.018,0.142,0.026a0.623,0.623,0,0,0,.073.005,0.661,0.661,0,0,0,.072,0,0.641,0.641,0,0,0,.073,0,0.626,0.626,0,0,0,.072-0.005C40.21,20.657,40.257,20.65,40.3,20.639Z" fill="#fff"/><path d="M40.714,19.46a0.7,0.7,0,0,0-.386-0.626h0a0.7,0.7,0,0,0-.621,0h0A0.7,0.7,0,1,0,40.714,19.46Zm-0.127.856a1.066,1.066,0,0,1-.178.093,1.02,1.02,0,0,1-.192.059,0.993,0.993,0,0,1-.4,0,1.021,1.021,0,0,1-.192-0.059,1.189,1.189,0,0,1-.179-0.093,0.942,0.942,0,0,1-.155-0.129,0.929,0.929,0,0,1-.129-0.155,1.167,1.167,0,0,1-.1-0.178,0.991,0.991,0,0,1-.057-0.194,0.846,0.846,0,0,1-.021-0.2,0.883,0.883,0,0,1,.021-0.2,0.992,0.992,0,0,1,.057-0.194,1.168,1.168,0,0,1,.1-0.178,1.043,1.043,0,0,1,.129-0.155,0.928,0.928,0,0,1,.155-0.127,1,1,0,0,1,.179-0.1,1.022,1.022,0,0,1,.192-0.059,0.994,0.994,0,0,1,.4,0,1.022,1.022,0,0,1,.192.059,0.91,0.91,0,0,1,.178.1,0.963,0.963,0,0,1,.285.282,1.039,1.039,0,0,1,.155.372,1.177,1.177,0,0,1,.016.132,0.649,0.649,0,0,1,0,.07V19.48l-0.005.07a0.924,0.924,0,0,1-.013.109,1.039,1.039,0,0,1-.155.373,0.939,0.939,0,0,1-.127.155A1.081,1.081,0,0,1,40.588,20.316Z" fill="#3e3a39"/><path d="M39.555,18.337a1.2,1.2,0,0,0-.466.336L38.88,18.52a1.509,1.509,0,0,1,.6-0.429Z" fill="#fff"/><path d="M39.089,20.246a1.253,1.253,0,0,0,.466.336l-0.08.246a1.492,1.492,0,0,1-.6-0.432Z" fill="#fff"/><path d="M38.774,20.248a1.54,1.54,0,0,1-.155-0.331,1.442,1.442,0,0,1-.07-0.367H38.8a1.236,1.236,0,0,0,.179.546Z" fill="#fff"/><path d="M38.619,19a1.524,1.524,0,0,1,.155-0.329l0.21,0.153a1.224,1.224,0,0,0-.179.543H38.549A1.485,1.485,0,0,1,38.619,19Z" fill="#fff"/><path d="M36.718,19.568c-0.005.036-.008,0.072-0.013,0.109l-0.254-.052c0.005-.041.01-0.083,0.013-0.124V19.46c0-.041,0-0.083-0.005-0.124l0.251-.052c0,0.028.008,0.059,0.008,0.088a0.223,0.223,0,0,1,0,.044c0,0.015,0,.028,0,0.044s0,0.036,0,.054S36.718,19.55,36.718,19.568Z" fill="#fff"/><path d="M36.423,19.154a1.147,1.147,0,0,0-.073-0.21c-0.01-.023-0.023-0.044-0.033-0.067l0.215-.142a1.473,1.473,0,0,1,.116.272c0.01,0.031.021,0.065,0.028,0.1Z" fill="#fff"/><path d="M36.514,20.215L36.3,20.07a1.1,1.1,0,0,0,.09-0.194,0.36,0.36,0,0,0,.023-0.07l0.254,0.052A1.555,1.555,0,0,1,36.514,20.215Z" fill="#fff"/><path d="M36.279,19.511l0-.026Z" fill="#231815"/><path d="M36.276,19.555l0-.031V19.54Z" fill="#231815"/><path d="M36.408,20.365a1.517,1.517,0,0,1-.274.272l-0.145-.215a1.367,1.367,0,0,0,.207-0.2Z" fill="#fff"/><path d="M36.152,18.3a1.536,1.536,0,0,1,.279.285l-0.215.142a1.245,1.245,0,0,0-.207-0.212Z" fill="#fff"/><path d="M35.58,18.29l0.052-.251a1.481,1.481,0,0,1,.367.155l-0.143.212A1.31,1.31,0,0,0,35.58,18.29Z" fill="#fff"/><path d="M35.624,20.882l-0.052-.254a1.342,1.342,0,0,0,.2-0.072l0.062-.034,0.143,0.215a1.388,1.388,0,0,1-.261.116C35.686,20.864,35.655,20.874,35.624,20.882Z" fill="#fff"/><path d="M35.321,20.67a0.625,0.625,0,0,0,.07-0.005l0.052,0.254c-0.034,0-.065.008-0.1,0.008-0.016,0-.034,0-0.049.005H35.2l-0.049-.005c-0.031,0-.062-0.005-0.1-0.008l0.052-.254a1.927,1.927,0,0,0,.139.008A0.643,0.643,0,0,0,35.321,20.67Z" fill="#fff"/><path d="M35.249,18.761a0.7,0.7,0,0,1,.313.073H35.306l-0.057-.054-0.054.054H34.938A0.692,0.692,0,0,1,35.249,18.761Z" fill="#ab6a00"/><path d="M35.451,18l-0.052.251-0.072-.008-0.078,0-0.075,0-0.073.008L35.05,18c0.034-.005.067-0.008,0.1-0.01l0.052-.005h0.1l0.052,0.005C35.383,18,35.417,18,35.451,18Z" fill="#fff"/><polygon points="35.306 18.833 35.619 19.146 35.433 19.146 35.433 20.047 35.065 20.047 35.065 19.146 34.881 19.146 35.194 18.833 35.249 18.779 35.306 18.833" fill="#824e00"/><path d="M35.619,19.146l-0.313-.313h0.256a0.7,0.7,0,1,1-.624,0h0.256l-0.313.313h0.184v0.9h0.368v-0.9h0.186Z" fill="#f29600"/><path d="M34.868,18.039L34.92,18.29a1.307,1.307,0,0,0-.277.116L34.5,18.194A1.481,1.481,0,0,1,34.868,18.039Z" fill="#fff"/><path d="M34.928,20.629l-0.049.254a1.454,1.454,0,0,1-.274-0.1,0.827,0.827,0,0,1-.083-0.044l0.142-.215a1.3,1.3,0,0,0,.194.085C34.881,20.616,34.9,20.624,34.928,20.629Z" fill="#fff"/><path d="M34.307,20.223a1.233,1.233,0,0,0,.2.2l-0.145.215a1.517,1.517,0,0,1-.274-0.272Z" fill="#fff"/><path d="M34.491,18.513a1.237,1.237,0,0,0-.207.212l-0.215-.142a1.46,1.46,0,0,1,.279-0.285Z" fill="#fff"/><path d="M35.95,19.46a0.7,0.7,0,0,0-.7-0.7,0.7,0.7,0,0,0,0,1.4A0.7,0.7,0,0,0,35.95,19.46Zm-0.7,1.03a0.852,0.852,0,0,1-.2-0.021,0.984,0.984,0,0,1-.194-0.057,1.179,1.179,0,0,1-.179-0.1,1.035,1.035,0,0,1-.155-0.127,1.1,1.1,0,0,1-.223-0.336,1.047,1.047,0,0,1-.06-0.191,1.094,1.094,0,0,1-.021-0.2,0.428,0.428,0,0,1,0-.059,1.329,1.329,0,0,1,.018-0.142,1.043,1.043,0,0,1,.06-0.191,0.845,0.845,0,0,1,.1-0.178,0.91,0.91,0,0,1,.127-0.158,1.043,1.043,0,0,1,.155-0.127,1.18,1.18,0,0,1,.179-0.1,1.21,1.21,0,0,1,.194-0.059,1.023,1.023,0,0,1,.2-0.018,1.033,1.033,0,0,1,.2.018,1.045,1.045,0,0,1,.373.155,1.055,1.055,0,0,1,.155.127,1.1,1.1,0,0,1,.129.158,0.954,0.954,0,0,1,.093.178,1.008,1.008,0,0,1,.06.191,0.881,0.881,0,0,1,.018.142,0.467,0.467,0,0,1,0,.059v0.026l0,0.026v0.013l0,0.031c-0.005.044-.011,0.075-0.016,0.106a1.012,1.012,0,0,1-.06.191,1.044,1.044,0,0,1-.093.178,1.1,1.1,0,0,1-.129.158,1.047,1.047,0,0,1-.155.127,1.2,1.2,0,0,1-.179.1,0.982,0.982,0,0,1-.194.057A0.862,0.862,0,0,1,35.249,20.489Z" fill="#3e3a39"/><path d="M33.968,18.735l0.215,0.142a1,1,0,0,0-.085.2,0.516,0.516,0,0,0-.021.072L33.823,19.1a1.334,1.334,0,0,1,.1-0.279A0.844,0.844,0,0,1,33.968,18.735Z" fill="#fff"/><path d="M34.087,19.806a1.135,1.135,0,0,0,.08.2c0.01,0.021.023,0.041,0.034,0.062l-0.215.145a1.516,1.516,0,0,1-.153-0.36Z" fill="#fff"/><path d="M34.035,19.5c0,0.041.008,0.083,0.013,0.124l-0.253.052c-0.005-.036-0.011-0.072-0.013-0.109,0-.018,0-0.036,0-0.054s0-.036,0-0.054,0-.031,0-0.044a0.243,0.243,0,0,1,0-.044,0.493,0.493,0,0,1,.008-0.088l0.251,0.049c0,0.044-.005.085-0.005,0.127V19.5Z" fill="#fff"/><rect x="18.262" y="25.819" width="55.409" height="7.332" fill="#565454"/><rect x="18.262" y="25.819" width="0.841" height="7.332" fill="#50504f"/><rect x="71.366" y="25.819" width="2.304" height="7.332" fill="#50504f"/><rect x="26.8" y="18.178" width="4.56" height="2.231" fill="#3e3a39"/><rect x="27.468" y="19.633" width="0.534" height="0.291" fill="#fff"/><rect x="28.374" y="19.633" width="0.534" height="0.291" fill="#fff"/><rect x="29.279" y="19.633" width="0.534" height="0.291" fill="#fff"/><rect x="30.185" y="19.633" width="0.534" height="0.291" fill="#fff"/><circle cx="22.261" cy="27.081" r="0.804" fill="#3e3a39"/><circle cx="25.043" cy="27.081" r="0.804" fill="#3e3a39"/><circle cx="27.824" cy="27.081" r="0.804" fill="#3e3a39"/><circle cx="30.605" cy="27.081" r="0.804" fill="#3e3a39"/><circle cx="33.387" cy="27.081" r="0.804" fill="#3e3a39"/><circle cx="36.168" cy="27.081" r="0.804" fill="#3e3a39"/><circle cx="38.949" cy="27.081" r="0.804" fill="#3e3a39"/><circle cx="41.731" cy="27.081" r="0.804" fill="#3e3a39"/><circle cx="44.512" cy="27.081" r="0.804" fill="#3e3a39"/><circle cx="47.293" cy="27.081" r="0.804" fill="#3e3a39"/><circle cx="50.075" cy="27.081" r="0.804" fill="#3e3a39"/><circle cx="52.856" cy="27.081" r="0.804" fill="#3e3a39"/><circle cx="55.637" cy="27.081" r="0.804" fill="#3e3a39"/><circle cx="58.419" cy="27.081" r="0.804" fill="#3e3a39"/><circle cx="61.2" cy="27.081" r="0.804" fill="#3e3a39"/><circle cx="63.982" cy="27.081" r="0.804" fill="#3e3a39"/><circle cx="66.763" cy="27.081" r="0.804" fill="#3e3a39"/><circle cx="23.663" cy="32.175" r="0.804" fill="#3e3a39"/><circle cx="26.444" cy="32.175" r="0.804" fill="#3e3a39"/><circle cx="29.225" cy="32.175" r="0.804" fill="#3e3a39"/><circle cx="32.007" cy="32.175" r="0.804" fill="#3e3a39"/><circle cx="34.788" cy="32.175" r="0.804" fill="#3e3a39"/><circle cx="37.569" cy="32.175" r="0.804" fill="#3e3a39"/><circle cx="40.351" cy="32.175" r="0.804" fill="#3e3a39"/><circle cx="43.132" cy="32.175" r="0.804" fill="#3e3a39"/><circle cx="45.914" cy="32.175" r="0.804" fill="#3e3a39"/><circle cx="48.695" cy="32.175" r="0.804" fill="#3e3a39"/><circle cx="51.476" cy="32.175" r="0.804" fill="#3e3a39"/><circle cx="54.258" cy="32.175" r="0.804" fill="#3e3a39"/><circle cx="57.039" cy="32.175" r="0.804" fill="#3e3a39"/><circle cx="59.82" cy="32.175" r="0.804" fill="#3e3a39"/><circle cx="62.602" cy="32.175" r="0.804" fill="#3e3a39"/><circle cx="65.383" cy="32.175" r="0.804" fill="#3e3a39"/><circle cx="68.164" cy="32.175" r="0.804" fill="#3e3a39"/><rect x="0.33" y="25.819" width="17.932" height="6.631" fill="#474545"/><polygon points="12.558 31.767 12.013 32.328 6.733 32.328 6.188 31.767 6.188 30.944 12.558 30.944 12.558 31.767" fill="#595757"/><rect x="6.188" y="26.031" width="6.371" height="2.866" fill="#595757"/><path d="M6.188,26.258H5.673L5.6,26.447H4.419a0.373,0.373,0,0,0-.372.372v1.553a0.5,0.5,0,0,0,.377.56H4.671a1.4,1.4,0,0,1,.6.726,0.519,0.519,0,0,0,.487.245H6.188V29.474H5.535V28.9H6.188" fill="#3e3c3d"/><rect x="6.188" y="29.474" width="6.371" height="1.471" fill="url(#a)"/><polygon points="8.142 26.405 6.378 26.405 6.378 28.5 6.188 28.5 6.188 30.944 12.558 30.944 12.558 28.5 12.369 28.5 12.369 26.405 10.605 26.405 10.605 28.5 10.255 28.5 10.255 26.405 8.491 26.405 8.491 28.5 8.142 28.5 8.142 26.405" fill="#3e3c3d"/><circle cx="7.263" cy="27.306" r="0.796" transform="translate(-17.177 13.127) rotate(-44.985)" fill="#3c3736"/><circle cx="5.128" cy="27.687" r="0.796" transform="translate(-18.075 11.735) rotate(-44.998)" fill="#888" stroke="#717071" stroke-width="0.129"/><path d="M5.768,27.215a0.83,0.83,0,0,0-.075-0.092A0.8,0.8,0,0,0,5.6,27.048L4.491,28.157a0.855,0.855,0,0,0,.075.092,0.833,0.833,0,0,0,.092.075Z" fill="#656464"/><circle cx="5.128" cy="27.687" r="0.796" transform="translate(-18.075 11.735) rotate(-44.998)" fill="none" stroke="#595757" stroke-width="0.129"/><path d="M12.559,26.258h0.514l0.074,0.188h1.181a0.372,0.372,0,0,1,.372.372v1.553a0.5,0.5,0,0,1-.377.56H14.075a1.4,1.4,0,0,0-.6.726,0.519,0.519,0,0,1-.487.245H12.559V29.474h0.652V28.9H12.559" fill="#3e3c3d"/><circle cx="13.619" cy="27.687" r="0.796" transform="translate(-15.589 17.738) rotate(-44.998)" fill="#888" stroke="#717071" stroke-width="0.129"/><path d="M13.146,28.327a0.786,0.786,0,0,1-.092-0.075,0.822,0.822,0,0,1-.075-0.092l1.109-1.109a0.854,0.854,0,0,1,.092.076,0.754,0.754,0,0,1,.076.092Z" fill="#656464"/><circle cx="13.619" cy="27.687" r="0.796" transform="translate(-15.589 17.738) rotate(-44.998)" fill="none" stroke="#595757" stroke-width="0.129"/><rect x="6.378" y="28.346" width="1.764" height="0.936" fill="#f29600"/><rect x="6.378" y="28.69" width="1.764" height="0.248" fill="#824e00"/><circle cx="9.377" cy="27.306" r="0.796" transform="translate(-16.56 14.624) rotate(-44.991)" fill="#3c3736"/><rect x="8.491" y="28.346" width="1.764" height="0.936" fill="#f29600"/><rect x="8.491" y="28.69" width="1.764" height="0.248" fill="#824e00"/><circle cx="11.49" cy="27.306" r="0.796" transform="translate(-15.94 16.115) rotate(-44.984)" fill="#3c3736"/><rect x="10.605" y="28.346" width="1.764" height="0.936" fill="#f29600"/><rect x="10.605" y="28.69" width="1.764" height="0.248" fill="#824e00"/><path d="M9.943,31.152a1.187,1.187,0,0,1-.168.892,0.577,0.577,0,0,1-.809,0,0.563,0.563,0,0,1-.167-0.4V31.152H9.943Z" fill="#3c3736"/><path d="M7.831,31.152a1.187,1.187,0,0,1-.168.892,0.577,0.577,0,0,1-.809,0,0.562,0.562,0,0,1-.167-0.4V31.152H7.831Z" fill="#3c3736"/><path d="M10.916,31.152a1.186,1.186,0,0,0,.168.892,0.577,0.577,0,0,0,.809,0,0.561,0.561,0,0,0,.167-0.4V31.152H10.916Z" fill="#3c3736"/><rect x="9.938" y="16.905" width="6.391" height="5.658" fill="#3e3a39"/><rect x="10.234" y="17.288" width="5.773" height="4.853" fill="#bfbfbf" stroke="#9e9e9f" stroke-width="0.134"/><polygon points="12.269 17.564 12.269 17.919 10.593 17.919 10.591 21.635 15.425 21.635 15.426 17.919 13.751 17.919 13.751 17.564 12.269 17.564" fill="#262626" stroke="gray" stroke-width="0.202"/><rect x="14.384" y="17.919" width="1.042" height="0.836" stroke="#9e9e9f" stroke-width="0.147" fill="url(#b)"/><rect x="10.593" y="17.919" width="1.042" height="0.836" stroke="#9e9e9f" stroke-width="0.147" fill="url(#c)"/><rect x="2.263" y="16.905" width="6.391" height="5.658" fill="#3e3a39"/><rect x="2.559" y="17.288" width="5.773" height="4.853" fill="#bfbfbf" stroke="#9e9e9f" stroke-width="0.134"/><polygon points="4.594 17.564 4.594 17.919 2.918 17.919 2.917 21.635 7.75 21.635 7.752 17.919 6.076 17.919 6.076 17.564 4.594 17.564" fill="#262626" stroke="gray" stroke-width="0.202"/><rect x="6.71" y="17.919" width="1.042" height="0.836" stroke="#9e9e9f" stroke-width="0.147" fill="url(#d)"/><rect x="2.918" y="17.919" width="1.042" height="0.836" stroke="#9e9e9f" stroke-width="0.147" fill="url(#e)"/><polygon points="6.34 16.26 4.576 16.26 4.079 16.905 6.837 16.905 6.34 16.26" fill="#3e3a39"/><polygon points="13.891 16.26 12.127 16.26 11.63 16.905 14.388 16.905 13.891 16.26" fill="#3e3a39"/><polygon points="0.33 14.85 0.33 32.449 18.262 32.449 18.262 33.15 73.67 33.15 73.67 14.85 0.33 14.85" fill="none" stroke="#231815" stroke-width="0.194"/><path d="M70.31,26.6a1.466,1.466,0,1,0,0,2.932h1.121V26.6H70.31Z" fill="#1a1a1a"/><path d="M20.245,32.244a1.466,1.466,0,1,0,0-2.932H19.124v2.932h1.121Z" fill="#1a1a1a"/><rect x="52.609" y="15.034" width="5.421" height="2.199" fill="#fff"/><rect x="58.134" y="15.034" width="5.421" height="2.199" fill="#fff"/><path d="M63.659,15.034v2.2h5.055a0.366,0.366,0,0,0,.365-0.366V15.034H63.659Z" fill="#fff"/><path d="M52.505,15.034H47.091v1.833a0.365,0.365,0,0,0,.365.366h5.049v-2.2Z" fill="#fff"/><path d="M42.1,16.209a0.377,0.377,0,0,0-.2-0.2,0.379,0.379,0,0,0-.143-0.028H33.842a0.376,0.376,0,0,0-.14.028,0.38,0.38,0,0,0-.121.08,0.363,0.363,0,0,0-.078.119,0.376,0.376,0,0,0-.028.142V17.24h0.806l0.041-.02a2.815,2.815,0,0,1,.457-0.14,2.641,2.641,0,0,1,.943,0,2.815,2.815,0,0,1,.457.14l0.041,0.02H39.06l0.041-.02a2.815,2.815,0,0,1,.457-0.14,2.641,2.641,0,0,1,.943,0,2.815,2.815,0,0,1,.457.14L41,17.24H42.13V16.349A0.373,0.373,0,0,0,42.1,16.209Z" fill="#fff"/><path d="M24.87,17.5H20.051a0.368,0.368,0,0,0-.367.367v3.062a0.368,0.368,0,0,0,.367.367H24.87a0.368,0.368,0,0,0,.367-0.367V17.87A0.368,0.368,0,0,0,24.87,17.5Zm0.22,3.428a0.22,0.22,0,0,1-.22.22H20.051a0.22,0.22,0,0,1-.22-0.22V17.87a0.22,0.22,0,0,1,.22-0.22H24.87a0.22,0.22,0,0,1,.22.22v3.062Z" fill="#fff"/><path d="M24.1,15.034v1.84a0.365,0.365,0,0,0,.365.366h7.78a0.366,0.366,0,0,0,.365-0.366v-1.84H24.1Z" fill="#fff"/><polygon points="25.509 17.033 25.509 16.007 25.509 16.004 24.87 16.004 24.87 16.007 24.87 17.033 25.509 17.033" fill="#60605e"/><polygon points="31.79 17.033 31.79 16.007 31.79 16.004 31.151 16.004 31.151 16.007 31.151 17.033 31.79 17.033" fill="#60605e"/><polygon points="30.22 17.033 30.22 16.007 30.22 16.004 29.581 16.004 29.581 16.007 29.581 17.033 30.22 17.033" fill="#60605e"/><polygon points="28.65 17.033 28.65 16.007 28.65 16.004 28.01 16.004 28.01 16.007 28.01 17.033 28.65 17.033" fill="#60605e"/><polygon points="27.079 17.033 27.079 16.007 27.079 16.004 26.44 16.004 26.44 16.007 26.44 17.033 27.079 17.033" fill="#60605e"/><polygon points="68.691 17.019 68.691 15.992 68.691 15.989 68.052 15.989 68.052 15.992 68.052 17.019 68.691 17.019" fill="#60605e"/><polygon points="67.381 17.019 67.381 15.992 67.381 15.989 66.742 15.989 66.742 15.992 66.742 17.019 67.381 17.019" fill="#60605e"/><polygon points="66.071 17.019 66.071 15.992 66.071 15.989 65.432 15.989 65.432 15.992 65.432 17.019 66.071 17.019" fill="#60605e"/><polygon points="64.761 17.019 64.761 15.992 64.761 15.989 64.122 15.989 64.122 15.992 64.122 17.019 64.761 17.019" fill="#60605e"/><polygon points="63.166 17.019 63.166 15.992 63.166 15.989 62.527 15.989 62.527 15.992 62.527 17.019 63.166 17.019" fill="#60605e"/><polygon points="61.856 17.019 61.856 15.992 61.856 15.989 61.217 15.989 61.217 15.992 61.217 17.019 61.856 17.019" fill="#60605e"/><polygon points="60.546 17.019 60.546 15.992 60.546 15.989 59.907 15.989 59.907 15.992 59.907 17.019 60.546 17.019" fill="#60605e"/><polygon points="59.236 17.019 59.236 15.992 59.236 15.989 58.597 15.989 58.597 15.992 58.597 17.019 59.236 17.019" fill="#60605e"/><polygon points="57.642 17.019 57.642 15.992 57.642 15.989 57.002 15.989 57.002 15.992 57.002 17.019 57.642 17.019" fill="#60605e"/><polygon points="56.331 17.019 56.331 15.992 56.331 15.989 55.692 15.989 55.692 15.992 55.692 17.019 56.331 17.019" fill="#60605e"/><polygon points="55.021 17.019 55.021 15.992 55.021 15.989 54.382 15.989 54.382 15.992 54.382 17.019 55.021 17.019" fill="#60605e"/><polygon points="53.711 17.019 53.711 15.992 53.711 15.989 53.072 15.989 53.072 15.992 53.072 17.019 53.711 17.019" fill="#60605e"/><polygon points="52.117 17.019 52.117 15.992 52.117 15.989 51.477 15.989 51.477 15.992 51.477 17.019 52.117 17.019" fill="#60605e"/><polygon points="50.807 17.019 50.807 15.992 50.807 15.989 50.167 15.989 50.167 15.992 50.167 17.019 50.807 17.019" fill="#60605e"/><polygon points="49.497 17.019 49.497 15.992 49.497 15.989 48.857 15.989 48.857 15.992 48.857 17.019 49.497 17.019" fill="#60605e"/><polygon points="48.187 17.019 48.187 15.992 48.187 15.989 47.547 15.989 47.547 15.992 47.547 17.019 48.187 17.019" fill="#60605e"/><rect x="19.685" y="18.233" width="5.552" height="0.147" fill="#fff"/><rect x="21.269" y="17.503" width="0.147" height="3.795" fill="#fff"/><rect x="19.685" y="18.963" width="5.552" height="0.147" fill="#fff"/><rect x="19.685" y="19.692" width="5.552" height="0.147" fill="#fff"/><rect x="19.685" y="20.422" width="5.552" height="0.147" fill="#fff"/><rect x="8.401" y="24.569" width="1.945" height="1.25" fill="#fff"/><path d="M8.236,24.569H6.555a0.376,0.376,0,0,0-.261.109,0.363,0.363,0,0,0-.078.119,0.375,0.375,0,0,0-.028.142v0.88H8.236v-1.25Z" fill="#fff"/><path d="M12.558,24.8a0.378,0.378,0,0,0-.2-0.2,0.382,0.382,0,0,0-.143-0.028h-1.76v1.25h2.13V24.936A0.373,0.373,0,0,0,12.558,24.8Z" fill="#fff"/><path d="M21.615,28.109v0.862a0.844,0.844,0,0,0,1.294,0V28.109H21.615Z" fill="#fff"/><path d="M24.4,28.109v0.862a0.844,0.844,0,0,0,1.294,0V28.109H24.4Z" fill="#fff"/><path d="M27.177,28.109v0.862a0.844,0.844,0,0,0,1.294,0V28.109H27.177Z" fill="#fff"/><path d="M29.959,28.109v0.862a0.844,0.844,0,0,0,1.294,0V28.109H29.959Z" fill="#fff"/><path d="M32.74,28.109v0.862a0.844,0.844,0,0,0,1.294,0V28.109H32.74Z" fill="#fff"/><path d="M35.521,28.109v0.862a0.844,0.844,0,0,0,1.294,0V28.109H35.521Z" fill="#fff"/><path d="M38.3,28.109v0.862a0.844,0.844,0,0,0,1.294,0V28.109H38.3Z" fill="#fff"/><path d="M41.084,28.109v0.862a0.844,0.844,0,0,0,1.294,0V28.109H41.084Z" fill="#fff"/><path d="M43.865,28.109v0.862a0.844,0.844,0,0,0,1.294,0V28.109H43.865Z" fill="#fff"/><path d="M46.647,28.109v0.862a0.844,0.844,0,0,0,1.294,0V28.109H46.647Z" fill="#fff"/><path d="M49.428,28.109v0.862a0.844,0.844,0,0,0,1.294,0V28.109H49.428Z" fill="#fff"/><path d="M52.209,28.109v0.862a0.844,0.844,0,0,0,1.294,0V28.109H52.209Z" fill="#fff"/><path d="M54.991,28.109v0.862a0.844,0.844,0,0,0,1.294,0V28.109H54.991Z" fill="#fff"/><path d="M57.772,28.109v0.862a0.844,0.844,0,0,0,1.294,0V28.109H57.772Z" fill="#fff"/><path d="M60.554,28.109v0.862a0.844,0.844,0,0,0,1.294,0V28.109H60.554Z" fill="#fff"/><path d="M63.335,28.109v0.862a0.844,0.844,0,0,0,1.294,0V28.109H63.335Z" fill="#fff"/><path d="M66.116,28.109v0.862a0.844,0.844,0,0,0,1.294,0V28.109H66.116Z" fill="#fff"/><path d="M23.016,31.147V30.284a0.844,0.844,0,0,1,1.294,0v0.862H23.016Z" fill="#fff"/><path d="M25.8,31.147V30.284a0.844,0.844,0,0,1,1.294,0v0.862H25.8Z" fill="#fff"/><path d="M28.579,31.147V30.284a0.844,0.844,0,0,1,1.294,0v0.862H28.579Z" fill="#fff"/><path d="M31.36,31.147V30.284a0.844,0.844,0,0,1,1.294,0v0.862H31.36Z" fill="#fff"/><path d="M34.141,31.147V30.284a0.844,0.844,0,0,1,1.294,0v0.862H34.141Z" fill="#fff"/><path d="M36.923,31.147V30.284a0.844,0.844,0,0,1,1.294,0v0.862H36.923Z" fill="#fff"/><path d="M39.7,31.147V30.284a0.844,0.844,0,0,1,1.294,0v0.862H39.7Z" fill="#fff"/><path d="M42.485,31.147V30.284a0.844,0.844,0,0,1,1.294,0v0.862H42.485Z" fill="#fff"/><path d="M45.267,31.147V30.284a0.844,0.844,0,0,1,1.294,0v0.862H45.267Z" fill="#fff"/><path d="M48.048,31.147V30.284a0.844,0.844,0,0,1,1.294,0v0.862H48.048Z" fill="#fff"/><path d="M50.829,31.147V30.284a0.844,0.844,0,0,1,1.294,0v0.862H50.829Z" fill="#fff"/><path d="M53.611,31.147V30.284a0.844,0.844,0,0,1,1.294,0v0.862H53.611Z" fill="#fff"/><path d="M56.392,31.147V30.284a0.844,0.844,0,0,1,1.294,0v0.862H56.392Z" fill="#fff"/><path d="M59.173,31.147V30.284a0.844,0.844,0,0,1,1.294,0v0.862H59.173Z" fill="#fff"/><path d="M61.955,31.147V30.284a0.844,0.844,0,0,1,1.294,0v0.862H61.955Z" fill="#fff"/><path d="M64.736,31.147V30.284a0.844,0.844,0,0,1,1.294,0v0.862H64.736Z" fill="#fff"/><path d="M67.518,31.147V30.284a0.844,0.844,0,0,1,1.294,0v0.862H67.518Z" fill="#fff"/><rect x="22.167" y="23.878" width="2.673" height="1.11" rx="0.22" ry="0.22" fill="#fff"/><rect x="24.96" y="23.878" width="2.673" height="1.11" rx="0.22" ry="0.22" fill="#fff"/><rect x="27.754" y="23.878" width="2.673" height="1.11" rx="0.22" ry="0.22" fill="#fff"/><rect x="30.547" y="23.878" width="2.673" height="1.11" rx="0.22" ry="0.22" fill="#fff"/><rect x="33.341" y="23.878" width="2.673" height="1.11" rx="0.22" ry="0.22" fill="#fff"/><rect x="36.134" y="23.878" width="2.673" height="1.11" rx="0.22" ry="0.22" fill="#fff"/><rect x="38.928" y="23.878" width="2.673" height="1.11" rx="0.22" ry="0.22" fill="#fff"/><rect x="41.721" y="23.878" width="2.673" height="1.11" rx="0.22" ry="0.22" fill="#fff"/><rect x="44.515" y="23.878" width="2.673" height="1.11" rx="0.22" ry="0.22" fill="#fff"/><rect x="47.308" y="23.878" width="2.673" height="1.11" rx="0.22" ry="0.22" fill="#fff"/><rect x="50.102" y="23.878" width="2.673" height="1.11" rx="0.22" ry="0.22" fill="#fff"/><rect x="52.895" y="23.878" width="2.673" height="1.11" rx="0.22" ry="0.22" fill="#fff"/><rect x="55.689" y="23.878" width="2.673" height="1.11" rx="0.22" ry="0.22" fill="#fff"/><rect x="58.482" y="23.878" width="2.673" height="1.11" rx="0.22" ry="0.22" fill="#fff"/><rect x="61.276" y="23.878" width="2.673" height="1.11" rx="0.22" ry="0.22" fill="#fff"/><rect x="64.069" y="23.878" width="2.673" height="1.11" rx="0.22" ry="0.22" fill="#fff"/><rect x="66.863" y="23.878" width="2.673" height="1.11" rx="0.22" ry="0.22" fill="#fff"/><rect x="65.475" y="22.67" width="2.673" height="1.11" rx="0.22" ry="0.22" fill="#fff"/><path d="M31.565,22.67h-2.4v1.11h2.4a0.22,0.22,0,0,0,.22-0.22V22.89A0.22,0.22,0,0,0,31.565,22.67Z" fill="#fff"/><rect x="23.593" y="22.67" width="2.655" height="1.11" fill="#fff"/><rect x="26.381" y="22.67" width="2.655" height="1.11" fill="#fff"/><path d="M23.46,22.67H21.05a0.22,0.22,0,0,0-.22.22v0.67a0.22,0.22,0,0,0,.22.22h2.41V22.67Z" fill="#fff"/><path d="M42.727,22.67h-2.4v1.11h2.4a0.22,0.22,0,0,0,.22-0.22V22.89A0.22,0.22,0,0,0,42.727,22.67Z" fill="#fff"/><rect x="34.754" y="22.67" width="2.655" height="1.11" fill="#fff"/><rect x="37.542" y="22.67" width="2.655" height="1.11" fill="#fff"/><path d="M34.621,22.67h-2.41a0.22,0.22,0,0,0-.22.22v0.67a0.22,0.22,0,0,0,.22.22h2.41V22.67Z" fill="#fff"/><path d="M53.888,22.67h-2.4v1.11h2.4a0.22,0.22,0,0,0,.22-0.22V22.89A0.22,0.22,0,0,0,53.888,22.67Z" fill="#fff"/><rect x="45.916" y="22.67" width="2.654" height="1.11" fill="#fff"/><rect x="48.703" y="22.67" width="2.655" height="1.11" fill="#fff"/><path d="M45.783,22.67h-2.41a0.22,0.22,0,0,0-.22.22v0.67a0.22,0.22,0,0,0,.22.22h2.41V22.67Z" fill="#fff"/><path d="M65.049,22.67h-2.4v1.11h2.4a0.22,0.22,0,0,0,.22-0.22V22.89A0.22,0.22,0,0,0,65.049,22.67Z" fill="#fff"/><rect x="57.077" y="22.67" width="2.655" height="1.11" fill="#fff"/><rect x="59.865" y="22.67" width="2.655" height="1.11" fill="#fff"/><path d="M56.944,22.67h-2.41a0.22,0.22,0,0,0-.22.22v0.67a0.22,0.22,0,0,0,.22.22h2.41V22.67Z" fill="#fff"/><rect x="70.083" y="22.548" width="3.224" height="1.013" fill="#fff"/></svg>