<?xml version="1.0" encoding="utf-8"?>
<!-- Generator: Adobe Illustrator 24.2.1, SVG Export Plug-In . SVG Version: 6.00 Build 0)  -->
<svg version="1.1" xmlns="http://www.w3.org/2000/svg" xmlns:xlink="http://www.w3.org/1999/xlink" x="0px" y="0px" width="74px"
	 height="48px" viewBox="0 0 74 48" style="enable-background:new 0 0 74 48;" xml:space="preserve">
<style type="text/css">
	.st0{fill:#191818;}
	.st1{fill:url(#SVGID_1_);}
	.st2{fill:url(#SVGID_2_);}
	.st3{fill:url(#SVGID_3_);}
	.st4{fill:url(#SVGID_4_);}
	.st5{fill:url(#SVGID_5_);}
	.st6{fill:url(#SVGID_6_);}
	.st7{fill:url(#SVGID_7_);}
	.st8{fill:url(#SVGID_8_);}
	.st9{fill:url(#SVGID_9_);}
	.st10{fill:url(#SVGID_10_);}
	.st11{fill:url(#SVGID_11_);}
	.st12{fill:url(#SVGID_12_);}
	.st13{fill:url(#SVGID_13_);}
	.st14{fill:url(#SVGID_14_);}
	.st15{fill:url(#SVGID_15_);}
	.st16{fill:url(#SVGID_16_);}
	.st17{fill:url(#SVGID_17_);}
	.st18{fill:url(#SVGID_18_);}
	.st19{fill:url(#SVGID_19_);}
	.st20{fill:url(#SVGID_20_);}
	.st21{fill:url(#SVGID_21_);}
	.st22{fill:url(#SVGID_22_);}
	.st23{fill:url(#SVGID_23_);}
	.st24{fill:url(#SVGID_24_);}
	.st25{fill:url(#SVGID_25_);}
	.st26{fill:url(#SVGID_26_);}
	.st27{fill:url(#SVGID_27_);}
	.st28{fill:url(#SVGID_28_);stroke:#272326;stroke-width:0.36;stroke-miterlimit:10;}
	.st29{fill:#11090D;stroke:#514F4E;stroke-width:0.18;stroke-miterlimit:10;}
	.st30{fill:#040102;}
	.st31{fill:url(#SVGID_29_);}
	.st32{fill:url(#SVGID_30_);}
	.st33{fill:url(#SVGID_31_);}
	.st34{fill:url(#SVGID_32_);}
	.st35{fill:url(#SVGID_33_);}
	.st36{fill:#2C2A2F;}
	.st37{fill:#ACAFB9;}
	.st38{fill:#221A1A;}
	.st39{fill:url(#SVGID_34_);}
	.st40{fill:url(#SVGID_35_);}
	.st41{fill:url(#SVGID_36_);}
	.st42{fill:url(#SVGID_37_);}
	.st43{fill:url(#SVGID_38_);}
	.st44{fill:url(#SVGID_39_);}
	.st45{fill:url(#SVGID_40_);}
	.st46{fill:url(#SVGID_41_);stroke:#727171;stroke-width:0.18;stroke-miterlimit:10;}
	.st47{fill:url(#SVGID_42_);stroke:#727171;stroke-width:0.18;stroke-miterlimit:10;}
	.st48{fill:#434043;}
	.st49{fill:#3C3C3F;}
	.st50{fill:#11090D;stroke:#727171;stroke-width:0.1318;stroke-miterlimit:10;}
	.st51{fill:url(#SVGID_43_);}
	.st52{fill:url(#SVGID_44_);}
	.st53{fill:#ABACA5;}
	.st54{fill:#83847F;}
</style>
<g id="レイヤー_1">
</g>
<g id="レイヤー_2">
	<path class="st0" d="M9.5,11.5l-0.3,3.7L9,25.1c0,0,0,1.1,0.5,1.7c0.1,0.1,0.4,1.1,0.5,1.2c0.1,1.9,0.3,2,0.3,2l2,1.4l13,8.1
		c0,0,0.9,1,1.3,1.3c0.4,0.3,1.2,0.5,1.2,0.5s6.2,4,9.1,5.9c0.8,0.5,0.1-0.8,0.1-1.1c0-1.4-0.1-2.4-0.1-2.4s-0.5-0.4-0.5-0.9
		s-0.1-15-0.1-15s0.2-0.5,0.5-0.9l0.2-3.1c0,0-0.3-1.6,1.2-2.2c1.5-0.6,6.6-2,6.6-2s0.5-0.6,1.1-0.8c0.5-0.2,4-0.9,4-0.9
		s8.9-1.8,9.2-1.5l7.3-1.2c0,0-10.1-5.2-9.4-4.9l-1.6-0.8L41,2c0,0-1.8-1.4-2.5-1.3c-0.7,0-5.1,0.5-5.1,0.5S32.6,1,32,0.9
		s-9,1.5-9,1.5S19.2,3,18.9,3.5S18.4,3.9,18,4s-4.8,0.9-4.8,0.9S10,5,10,7.7C10,8.8,9.5,11.5,9.5,11.5z"/>
	<linearGradient id="SVGID_1_" gradientUnits="userSpaceOnUse" x1="19.7049" y1="17.1536" x2="24.537" y2="7.9118">
		<stop  offset="9.215719e-02" style="stop-color:#2D3234"/>
		<stop  offset="0.283" style="stop-color:#384143"/>
		<stop  offset="0.5319" style="stop-color:#506469"/>
		<stop  offset="0.9318" style="stop-color:#425152"/>
	</linearGradient>
	<path class="st1" d="M20,4.9l-6.6,1.7c0,0-1.8,0.8-1.8,2.9s0,2.8,0,2.8l14.4,8.4v-3.3c0-1.7,1.5-2.5,2.2-2.7
		c0.6-0.2,6.4-1.8,6.4-1.8L20,4.9z"/>
	<linearGradient id="SVGID_2_" gradientUnits="userSpaceOnUse" x1="32.0202" y1="24.2416" x2="37.4775" y2="14.4798">
		<stop  offset="0.2246" style="stop-color:#232324"/>
		<stop  offset="0.3397" style="stop-color:#3C3E42"/>
		<stop  offset="0.6228" style="stop-color:#4B4F52"/>
		<stop  offset="0.9029" style="stop-color:#525559"/>
		<stop  offset="0.9492" style="stop-color:#2E3133"/>
	</linearGradient>
	<path class="st2" d="M34.7,13.5l-6.5,1.6c-1.6,0.8-1.8,1.7-1.8,2.5c0,2.1,0,3.5,0,3.5l9.5,5.3v-2.2c0-1.7,0.5-3.4,2.3-4
		c0.6-0.2,6.5-1.4,6.5-1.4L34.7,13.5z"/>
	<linearGradient id="SVGID_3_" gradientUnits="userSpaceOnUse" x1="44.2999" y1="18.9559" x2="49.5246" y2="9.6101">
		<stop  offset="8.334852e-02" style="stop-color:#232324"/>
		<stop  offset="0.1527" style="stop-color:#3C3E42"/>
		<stop  offset="0.6228" style="stop-color:#4B4F52"/>
		<stop  offset="0.9029" style="stop-color:#525559"/>
		<stop  offset="0.9492" style="stop-color:#2E3133"/>
	</linearGradient>
	<path class="st3" d="M49.4,10.3c0,0-0.5-0.3-1.3-0.1c-0.8,0.2-11.8,2.3-11.8,2.3c-0.6,0.2-1.2,0.2-1.3,0.7l-0.4,0.4l10.1,5.3
		l0.3-0.8c0.1-0.2,0.6-0.3,1.1-0.5c0.5-0.1,8.1-1.8,11.4-2.4c0.9-0.2,1.6,0,1.6,0L49.4,10.3z"/>
	<linearGradient id="SVGID_4_" gradientUnits="userSpaceOnUse" x1="56.9712" y1="14.7107" x2="59.1682" y2="10.6001">
		<stop  offset="0.1164" style="stop-color:#232324"/>
		<stop  offset="0.2368" style="stop-color:#3C3E42"/>
		<stop  offset="0.5488" style="stop-color:#4B4F52"/>
		<stop  offset="0.8872" style="stop-color:#2E3133"/>
		<stop  offset="1" style="stop-color:#525559"/>
	</linearGradient>
	<path class="st4" d="M56.6,9.9c0,0-0.5-0.3-1.3-0.1c-0.8,0.2-5.6,0.9-5.6,0.9l9.8,5c0,0,1.9-0.2,5.2-0.8c0.9-0.2,1.6,0,1.6,0
		L56.6,9.9z"/>
	<linearGradient id="SVGID_5_" gradientUnits="userSpaceOnUse" x1="32.0122" y1="11.4118" x2="36.058" y2="3.6737">
		<stop  offset="0" style="stop-color:#2D3234"/>
		<stop  offset="2.668539e-02" style="stop-color:#384143"/>
		<stop  offset="0.1313" style="stop-color:#506469"/>
	</linearGradient>
	<path class="st5" d="M20,4.9c0-0.1,0.3-0.5,0.6-0.6c0.9-0.3,13.1-2.4,13.1-2.4l14.7,7.7l-13.5,2.7c0,0-0.3,0.3-0.5,0.6L20,4.9z"/>
	<linearGradient id="SVGID_6_" gradientUnits="userSpaceOnUse" x1="44.1711" y1="7.5164" x2="45.7802" y2="4.4389">
		<stop  offset="0" style="stop-color:#2D3234"/>
		<stop  offset="2.668539e-02" style="stop-color:#384143"/>
		<stop  offset="0.1313" style="stop-color:#506469"/>
	</linearGradient>
	<polygon class="st6" points="34.4,2.3 40.1,1.6 55.7,9.4 49.4,10.3 	"/>
	<linearGradient id="SVGID_7_" gradientUnits="userSpaceOnUse" x1="18.0294" y1="17.9026" x2="19.0018" y2="16.2253">
		<stop  offset="9.215719e-02" style="stop-color:#2D3234"/>
		<stop  offset="0.416" style="stop-color:#384143"/>
		<stop  offset="0.5655" style="stop-color:#506469"/>
	</linearGradient>
	<polygon class="st7" points="25.6,21.9 11.1,13.5 11.1,12.7 11.5,12.4 25.9,20.8 25.6,21.1 	"/>
	<linearGradient id="SVGID_8_" gradientUnits="userSpaceOnUse" x1="17.808" y1="19.9204" x2="18.8057" y2="18.1994">
		<stop  offset="9.215719e-02" style="stop-color:#2D3234"/>
		<stop  offset="0.3833" style="stop-color:#384143"/>
		<stop  offset="0.5559" style="stop-color:#506469"/>
		<stop  offset="0.6389" style="stop-color:#363D3F"/>
	</linearGradient>
	<polygon class="st8" points="25.3,23.9 11,15.4 11,14.7 11.5,14.4 25.7,22.9 25.3,23.1 	"/>
	<linearGradient id="SVGID_9_" gradientUnits="userSpaceOnUse" x1="17.7702" y1="21.9124" x2="18.8232" y2="20.0962">
		<stop  offset="9.215719e-02" style="stop-color:#2D3234"/>
		<stop  offset="0.3833" style="stop-color:#384143"/>
		<stop  offset="0.5559" style="stop-color:#506469"/>
		<stop  offset="0.6389" style="stop-color:#363D3F"/>
	</linearGradient>
	<polygon class="st9" points="25.3,25.9 11,17.3 11,16.6 11.5,16.3 25.6,24.8 25.3,25.1 	"/>
	<linearGradient id="SVGID_10_" gradientUnits="userSpaceOnUse" x1="17.7145" y1="23.8818" x2="18.8235" y2="22.0277">
		<stop  offset="9.215719e-02" style="stop-color:#2D3234"/>
		<stop  offset="0.3833" style="stop-color:#384143"/>
		<stop  offset="0.5559" style="stop-color:#506469"/>
		<stop  offset="0.6389" style="stop-color:#363D3F"/>
	</linearGradient>
	<polygon class="st10" points="25.3,27.8 11,19.2 11,18.5 11.5,18.2 25.6,26.8 25.3,27.1 	"/>
	<linearGradient id="SVGID_11_" gradientUnits="userSpaceOnUse" x1="17.7049" y1="25.8961" x2="18.8762" y2="23.9584">
		<stop  offset="9.215719e-02" style="stop-color:#2D3234"/>
		<stop  offset="0.3833" style="stop-color:#384143"/>
		<stop  offset="0.5559" style="stop-color:#506469"/>
		<stop  offset="0.6389" style="stop-color:#363D3F"/>
	</linearGradient>
	<polygon class="st11" points="25.3,29.9 11,21.1 11,20.4 11.5,20.1 25.6,28.8 25.3,29.1 	"/>
	<linearGradient id="SVGID_12_" gradientUnits="userSpaceOnUse" x1="17.6558" y1="27.8659" x2="18.8834" y2="25.8481">
		<stop  offset="9.215719e-02" style="stop-color:#2D3234"/>
		<stop  offset="0.3833" style="stop-color:#384143"/>
		<stop  offset="0.5559" style="stop-color:#506469"/>
		<stop  offset="0.6389" style="stop-color:#363D3F"/>
	</linearGradient>
	<polygon class="st12" points="25.3,31.8 11,23 11,22.3 11.5,22 25.6,30.8 25.3,31 	"/>
	<linearGradient id="SVGID_13_" gradientUnits="userSpaceOnUse" x1="17.6951" y1="29.888" x2="18.9502" y2="27.8277">
		<stop  offset="9.215719e-02" style="stop-color:#2D3234"/>
		<stop  offset="0.3833" style="stop-color:#384143"/>
		<stop  offset="0.5559" style="stop-color:#506469"/>
		<stop  offset="0.6389" style="stop-color:#363D3F"/>
	</linearGradient>
	<polygon class="st13" points="25.4,33.9 11,25 11,24.2 11.5,24 25.7,32.8 25.4,33.1 	"/>
	<linearGradient id="SVGID_14_" gradientUnits="userSpaceOnUse" x1="17.7948" y1="31.8371" x2="19.0949" y2="29.7767">
		<stop  offset="0.2651" style="stop-color:#475659"/>
		<stop  offset="0.3905" style="stop-color:#384143"/>
		<stop  offset="0.5167" style="stop-color:#506469"/>
		<stop  offset="0.7086" style="stop-color:#363D3F"/>
	</linearGradient>
	<polygon class="st14" points="25.5,35.8 11.2,26.9 11.2,26.2 11.6,25.9 25.8,34.8 25.5,35 	"/>
	<linearGradient id="SVGID_15_" gradientUnits="userSpaceOnUse" x1="17.4512" y1="36.6609" x2="20.8438" y2="30.9891">
		<stop  offset="9.215719e-02" style="stop-color:#2D3234"/>
		<stop  offset="0.416" style="stop-color:#384143"/>
		<stop  offset="0.6209" style="stop-color:#506469"/>
		<stop  offset="0.6403" style="stop-color:#4F6267"/>
		<stop  offset="0.6609" style="stop-color:#4B5B5F"/>
		<stop  offset="0.6821" style="stop-color:#435053"/>
		<stop  offset="0.7035" style="stop-color:#384042"/>
		<stop  offset="0.7057" style="stop-color:#373F40"/>
	</linearGradient>
	<path class="st15" d="M11.5,27.1l14.3,9v3c0,0,0,1.1,0.9,1.6l-14.4-9.3c0,0-0.7-0.6-0.7-1.7S11.5,27.1,11.5,27.1z"/>
	<linearGradient id="SVGID_16_" gradientUnits="userSpaceOnUse" x1="27.7554" y1="37.7875" x2="34.7699" y2="25.2402">
		<stop  offset="0.1134" style="stop-color:#232324"/>
		<stop  offset="0.3397" style="stop-color:#3C3E42"/>
		<stop  offset="0.6228" style="stop-color:#4B4F52"/>
		<stop  offset="0.9029" style="stop-color:#525559"/>
		<stop  offset="0.9492" style="stop-color:#2E3133"/>
	</linearGradient>
	<path class="st16" d="M26.3,21.1c-0.3,0.3-0.6,0.7-0.6,1.5c0,1.2,0.1,12.4,0.1,12.4c0,0.6,0.1,0.8,0.8,1.5c0.6,0.5,9.4,6.1,9.4,6.1
		s-0.5-0.5-0.5-1c0-0.4-0.1-13.1-0.1-13.1s-0.1-0.6,0.1-1.1c0.2-0.5,0.4-1,0.4-1L26.3,21.1z"/>
	<linearGradient id="SVGID_17_" gradientUnits="userSpaceOnUse" x1="30.4948" y1="43.7681" x2="32.9378" y2="39.8631">
		<stop  offset="0.1134" style="stop-color:#232324"/>
		<stop  offset="0.4229" style="stop-color:#3C3E42"/>
		<stop  offset="0.7653" style="stop-color:#525559"/>
		<stop  offset="0.8367" style="stop-color:#2E3133"/>
	</linearGradient>
	<path class="st17" d="M26.4,36.3v2.2c0,0-0.4,1.8,1,2.6c1.4,0.8,9.5,6.3,9.5,6.3S36,46.6,36,45.6c0-1,0-3.2,0-3.2L26.4,36.3z"/>
	<linearGradient id="SVGID_18_" gradientUnits="userSpaceOnUse" x1="10.8723" y1="11.8551" x2="10.2355" y2="26.3193">
		<stop  offset="5.774533e-02" style="stop-color:#2B3141"/>
		<stop  offset="0.3771" style="stop-color:#35435F"/>
		<stop  offset="0.6225" style="stop-color:#294373"/>
		<stop  offset="1" style="stop-color:#282C37"/>
	</linearGradient>
	<path class="st18" d="M10.8,11.6l0.5,0.4c-0.4,0.3-0.6,1-0.6,1.6c0,0.6,0,12.7,0,12.7l-0.6-0.4V13.1C10.2,13.1,10.2,12,10.8,11.6z"
		/>
	<linearGradient id="SVGID_19_" gradientUnits="userSpaceOnUse" x1="11.2613" y1="26.3164" x2="11.0544" y2="31.0168">
		<stop  offset="5.774533e-02" style="stop-color:#2B3141"/>
		<stop  offset="0.3771" style="stop-color:#35435F"/>
		<stop  offset="0.6225" style="stop-color:#294373"/>
		<stop  offset="1" style="stop-color:#282C37"/>
	</linearGradient>
	<path class="st19" d="M10.6,26.2l0.5,0.4v3.1c0,0,0.1,1.1,0.5,1.4l-0.8-0.6c0,0-0.3-1-0.3-1.5C10.7,28.4,10.6,26.2,10.6,26.2z"/>
	<linearGradient id="SVGID_20_" gradientUnits="userSpaceOnUse" x1="15.3144" y1="4.2756" x2="14.9659" y2="12.1905">
		<stop  offset="5.774533e-02" style="stop-color:#2B3141"/>
		<stop  offset="0.3771" style="stop-color:#35435F"/>
		<stop  offset="0.6225" style="stop-color:#294373"/>
		<stop  offset="1" style="stop-color:#282C37"/>
	</linearGradient>
	<path class="st20" d="M10.8,11.6l0.5,0.4l0-3.2c0-0.8,0.9-2,2.2-2.5c0.8-0.3,6.2-1.5,6.2-1.5l-0.7-0.5l-5.8,1.4
		C11.9,6,10.8,7,10.8,8.6C10.8,10.2,10.8,11.6,10.8,11.6z"/>
	<linearGradient id="SVGID_21_" gradientUnits="userSpaceOnUse" x1="32.7295" y1="1.2171" x2="18.5991" y2="4.4572">
		<stop  offset="0.1787" style="stop-color:#2B3141"/>
		<stop  offset="0.3771" style="stop-color:#35435F"/>
		<stop  offset="0.6225" style="stop-color:#294373"/>
		<stop  offset="0.6887" style="stop-color:#294372"/>
		<stop  offset="0.7358" style="stop-color:#2B416D"/>
		<stop  offset="0.7769" style="stop-color:#2C3F64"/>
		<stop  offset="0.8147" style="stop-color:#2D3A58"/>
		<stop  offset="0.8498" style="stop-color:#2C3449"/>
		<stop  offset="0.865" style="stop-color:#2B3141"/>
	</linearGradient>
	<path class="st21" d="M18.9,4.3l0.6,0.5c0,0,0.1-0.4,0.8-0.7C21,3.8,33.5,1.8,33.5,1.8l-1.2-0.5L20.1,3.4
		C20.1,3.4,19.2,3.4,18.9,4.3z"/>
	<linearGradient id="SVGID_22_" gradientUnits="userSpaceOnUse" x1="40.0076" y1="0.9132" x2="33.3405" y2="2.442">
		<stop  offset="0.1787" style="stop-color:#2B3141"/>
		<stop  offset="0.3771" style="stop-color:#35435F"/>
		<stop  offset="0.6225" style="stop-color:#294373"/>
		<stop  offset="0.6887" style="stop-color:#294372"/>
		<stop  offset="0.7358" style="stop-color:#2B416D"/>
		<stop  offset="0.7769" style="stop-color:#2C3F64"/>
		<stop  offset="0.8147" style="stop-color:#2D3A58"/>
		<stop  offset="0.8498" style="stop-color:#2C3449"/>
		<stop  offset="0.865" style="stop-color:#2B3141"/>
	</linearGradient>
	<path class="st22" d="M33.3,1.7l5-0.7c0.7-0.1,1.8,0.3,2.1,0.6c-1-0.1-1-0.2-1.6-0.1c-1.1,0.1-4.7,0.6-4.7,0.6L33.3,1.7z"/>
	<linearGradient id="SVGID_23_" gradientUnits="userSpaceOnUse" x1="38.3718" y1="0.1326" x2="31.9799" y2="1.5983">
		<stop  offset="0.1164" style="stop-color:#232324"/>
		<stop  offset="0.2368" style="stop-color:#3C3E42"/>
		<stop  offset="0.5488" style="stop-color:#4B4F52"/>
		<stop  offset="0.8872" style="stop-color:#2E3133"/>
		<stop  offset="1" style="stop-color:#525559"/>
	</linearGradient>
	<path class="st23" d="M32,0.9l5.1-0.6c0,0,0.9,0,1.7,0.4c0,0-1,0-1.5,0.2s-4.1,0.6-4.1,0.6L32,0.9z"/>
	<linearGradient id="SVGID_24_" gradientUnits="userSpaceOnUse" x1="31.7454" y1="0.5966" x2="17.466" y2="3.8708">
		<stop  offset="0.1164" style="stop-color:#232324"/>
		<stop  offset="0.2368" style="stop-color:#3C3E42"/>
		<stop  offset="0.5488" style="stop-color:#4B4F52"/>
		<stop  offset="0.8872" style="stop-color:#2E3133"/>
		<stop  offset="1" style="stop-color:#525559"/>
	</linearGradient>
	<path class="st24" d="M17.8,3.5c0.4-0.5,0.9-0.6,1.5-0.7S31,0.7,31,0.7s0.5-0.1,0.8,0l0.7,0.4c0,0-0.5-0.1-0.8,0l-12,2.2
		c-0.5,0.1-0.6,0.4-0.8,0.6l-0.2,0.3L17.8,3.5z"/>
	<linearGradient id="SVGID_25_" gradientUnits="userSpaceOnUse" x1="20.0813" y1="13.1969" x2="2.9572" y2="17.1235">
		<stop  offset="0.1164" style="stop-color:#232324"/>
		<stop  offset="0.2368" style="stop-color:#3C3E42"/>
		<stop  offset="0.5488" style="stop-color:#4B4F52"/>
		<stop  offset="0.8872" style="stop-color:#2E3133"/>
		<stop  offset="1" style="stop-color:#525559"/>
	</linearGradient>
	<path class="st25" d="M4.8,10.2C5.4,9.3,8.5,6.5,9.1,6c0.6-0.5,1.6-0.9,2.3-1.1c0.8-0.2,6.3-1.4,6.3-1.4l1,0.6l-5.7,1.3
		c-1.4,0.4-2.6,1.6-2.6,2.9c0,0.9,0.1,2.9,0.1,2.9s-0.7,0.7-0.7,1.2s0,13.4,0,13.4l-5.1-2.6V10.2z"/>
	<linearGradient id="SVGID_26_" gradientUnits="userSpaceOnUse" x1="6.4679" y1="28.9398" x2="9.5199" y2="23.7091">
		<stop  offset="0.1134" style="stop-color:#232324"/>
		<stop  offset="0.8367" style="stop-color:#2E3133"/>
	</linearGradient>
	<path class="st26" d="M4.8,23.2v2.1c0,0,0.4,0.1,0.5,0.5c0,0.4,0,0.8,0.7,1.3s4.7,3.4,4.7,3.4s-0.3-0.2-0.3-0.9S10.3,26,10.3,26
		L4.8,23.2z"/>
	<linearGradient id="SVGID_27_" gradientUnits="userSpaceOnUse" x1="68.1323" y1="31.3318" x2="34.3327" y2="31.3318">
		<stop  offset="0.2246" style="stop-color:#232324"/>
		<stop  offset="0.3397" style="stop-color:#3C3E42"/>
		<stop  offset="0.6228" style="stop-color:#4B4F52"/>
		<stop  offset="0.9029" style="stop-color:#525559"/>
		<stop  offset="0.9492" style="stop-color:#2E3133"/>
	</linearGradient>
	<path class="st27" d="M36.2,26.1c0,0.5-0.1,0.4-0.2,0.9c-0.2,0.5-0.4,0.9-0.4,1.5s0.2,12.8,0.2,12.8c0,0.7,0.2,0.9,0.5,1.2
		c0,0.5,0,3.6,0,3.6s0.3,1.8,1.7,1.6c1.4-0.2,27-6.4,27-6.4s2.4-0.8,2.4-4.1c0-0.7,0-1.9,0-1.9s0.3-0.4,0.3-1.1s0.2-13.8,0.2-13.8
		c0-0.5-0.4-0.1-0.4-1.1c0-0.9,0-2.9,0-2.9c0-0.9-0.8-1.5-1.7-1.4c-0.9,0.1-6,1-6,1c-0.3-0.2-1-0.6-1.7-0.5
		c-1,0.1-12.5,2.6-12.5,2.6c-0.6,0.1-0.4,1.1-0.8,1.1c-0.7,0.2-6,1.3-6,1.3c-1.1,0.3-2.5,1.1-2.6,3.6L36.2,26.1z"/>
	<linearGradient id="SVGID_28_" gradientUnits="userSpaceOnUse" x1="36.4514" y1="31.0239" x2="67.2322" y2="31.0239">
		<stop  offset="0.1134" style="stop-color:#232324"/>
		<stop  offset="0.3397" style="stop-color:#3C3E42"/>
		<stop  offset="0.6228" style="stop-color:#4B4F52"/>
		<stop  offset="0.9029" style="stop-color:#525559"/>
		<stop  offset="0.9492" style="stop-color:#2E3133"/>
	</linearGradient>
	<path class="st28" d="M46.3,19.2L58,16.8c0.6-0.1,1.2,0.3,1.4,0.5c0.3,0.2,4.3,2.9,4.3,2.9s0.5,0.2,0.9,0.4
		c0.5,0.1,1.7,0.5,1.7,0.5s0.9,0.3,0.9,1.2s-0.2,10.7-0.2,10.7c0,0.5-0.2,1.4-1,2c-0.8,0.5-1.9,1.3-1.9,1.3s-0.7,0.6-0.9,0.9
		c-0.2,0.3-2.9,3.8-2.9,3.8s-0.7,0.9-1.4,1.1c-0.7,0.2-14,3.3-14,3.3c-0.7,0.1-1.1,0-1.8-0.5c-0.6-0.6-2.5-2-2.5-2s-0.5-0.5-1.1-0.7
		c-0.5-0.2-2.3-0.5-2.3-0.5s-0.9-0.4-0.9-1.4s0-10,0-10c0-0.8,0.1-2.1,0.9-2.7s2.3-1.6,2.3-1.6c0.3-0.1,0.9-0.7,1.3-1.2
		c0.4-0.5,3.9-4.3,3.9-4.3C45.2,19.8,45.8,19.2,46.3,19.2z"/>
	<path class="st29" d="M56.7,25.5l-9.4,2.1c0,0-0.9,0.2-0.9,1.3s0.1,7.1,0.1,7.1s-0.3,1,1.1,0.7c1.3-0.3,8.5-1.9,8.5-1.9
		c0.9-0.2,1.4-0.6,1.4-1.2s0-7.4,0-7.4S57.5,25.3,56.7,25.5z"/>
</g>
<g id="レイヤー_3">
	<path class="st30" d="M37.8,21.3c0.8-0.6,2.2-0.4,2.6,0.8c0.3,0.7,0.2,2.6-1.8,3.4c-0.7,0.3-2,0.1-2-1.9
		C36.6,22.5,37.4,21.7,37.8,21.3z"/>
	<radialGradient id="SVGID_29_" cx="38.8724" cy="22.0402" r="3.1714" gradientUnits="userSpaceOnUse">
		<stop  offset="0" style="stop-color:#C8C9CD"/>
		<stop  offset="5.423518e-03" style="stop-color:#C3C4C7"/>
		<stop  offset="5.170009e-02" style="stop-color:#9A9798"/>
		<stop  offset="0.1023" style="stop-color:#797474"/>
		<stop  offset="0.1574" style="stop-color:#605B5A"/>
		<stop  offset="0.2186" style="stop-color:#4E4A49"/>
		<stop  offset="0.2896" style="stop-color:#413E3E"/>
		<stop  offset="0.3788" style="stop-color:#3A3837"/>
		<stop  offset="0.5453" style="stop-color:#383635"/>
		<stop  offset="0.9956" style="stop-color:#0F1011"/>
	</radialGradient>
	<path class="st31" d="M37.9,21.7c1-0.7,2.3,0,2.3,1.2c0,1.2-0.5,1.8-1.6,2.3c-0.8,0.3-1.7-0.4-1.7-1.4
		C36.9,22.9,37.1,22.3,37.9,21.7z"/>
	<path class="st30" d="M38.1,22.6c0,0,0.2,0.3,0.3,0.5c0.1,0.2,0,0.3-0.2,0.3l-0.6,0.1l0.1,0.6l0.7-0.2c0.1,0,0.2-0.1,0.2,0.2
		c0,0.2,0.1,0.5,0.1,0.5l0.6-0.2l-0.1-0.7c0,0,0-0.1,0.2-0.3c0.2-0.1,0.4-0.3,0.4-0.3l-0.2-0.5L39.2,23c0,0-0.2,0.1-0.2-0.1
		c-0.1-0.2-0.3-0.6-0.3-0.6L38.1,22.6z"/>
	<path class="st30" d="M64.4,15.7c0.8-0.6,2-0.3,2.5,0.9c0.3,0.7,0.2,2.5-1.6,3.2c-0.7,0.3-2.2,0.1-2.2-1.9
		C63.1,16.9,63.9,16.1,64.4,15.7z"/>
	<radialGradient id="SVGID_30_" cx="65.3781" cy="16.4151" r="3.1714" gradientUnits="userSpaceOnUse">
		<stop  offset="0" style="stop-color:#C8C9CD"/>
		<stop  offset="5.423518e-03" style="stop-color:#C3C4C7"/>
		<stop  offset="5.170009e-02" style="stop-color:#9A9798"/>
		<stop  offset="0.1023" style="stop-color:#797474"/>
		<stop  offset="0.1574" style="stop-color:#605B5A"/>
		<stop  offset="0.2186" style="stop-color:#4E4A49"/>
		<stop  offset="0.2896" style="stop-color:#413E3E"/>
		<stop  offset="0.3788" style="stop-color:#3A3837"/>
		<stop  offset="0.5453" style="stop-color:#383635"/>
		<stop  offset="0.9956" style="stop-color:#0F1011"/>
	</radialGradient>
	<path class="st32" d="M64.4,16.1c1-0.7,2.3,0,2.3,1.2c0,1.2-0.5,1.8-1.6,2.3c-0.8,0.3-1.7-0.4-1.7-1.4
		C63.4,17.3,63.6,16.7,64.4,16.1z"/>
	<path class="st30" d="M64.6,17c0,0,0.2,0.3,0.3,0.5c0.1,0.2,0,0.3-0.2,0.3l-0.6,0.1l0.1,0.6l0.7-0.2c0.1,0,0.2-0.1,0.2,0.2
		c0,0.2,0.1,0.5,0.1,0.5l0.6-0.2l-0.1-0.7c0,0,0-0.1,0.2-0.3c0.2-0.1,0.4-0.3,0.4-0.3l-0.2-0.5l-0.5,0.3c0,0-0.2,0.1-0.2-0.1
		c-0.1-0.2-0.3-0.6-0.3-0.6L64.6,17z"/>
	<path class="st30" d="M64.1,36.8c0.8-0.6,2.2-0.4,2.6,0.8c0.3,0.7,0.2,2.5-1.8,3.2c-0.7,0.3-2.1,0.2-2.1-1.8
		C62.8,38,63.6,37.2,64.1,36.8z"/>
	<radialGradient id="SVGID_31_" cx="65.1081" cy="37.5207" r="3.1714" gradientUnits="userSpaceOnUse">
		<stop  offset="0" style="stop-color:#C8C9CD"/>
		<stop  offset="5.423518e-03" style="stop-color:#C3C4C7"/>
		<stop  offset="5.170009e-02" style="stop-color:#9A9798"/>
		<stop  offset="0.1023" style="stop-color:#797474"/>
		<stop  offset="0.1574" style="stop-color:#605B5A"/>
		<stop  offset="0.2186" style="stop-color:#4E4A49"/>
		<stop  offset="0.2896" style="stop-color:#413E3E"/>
		<stop  offset="0.3788" style="stop-color:#3A3837"/>
		<stop  offset="0.5453" style="stop-color:#383635"/>
		<stop  offset="0.9956" style="stop-color:#0F1011"/>
	</radialGradient>
	<path class="st33" d="M64.1,37.2c1-0.7,2.3,0,2.3,1.2c0,1.2-0.5,1.8-1.6,2.3c-0.8,0.3-1.7-0.4-1.7-1.4
		C63.1,38.4,63.4,37.8,64.1,37.2z"/>
	<path class="st30" d="M64.4,38.1c0,0,0.2,0.3,0.3,0.5c0.1,0.2,0,0.3-0.2,0.3l-0.6,0.1l0.1,0.6l0.7-0.2c0.1,0,0.2-0.1,0.2,0.2
		c0,0.2,0.1,0.5,0.1,0.5l0.6-0.2l-0.1-0.7c0,0,0-0.1,0.2-0.3c0.2-0.1,0.4-0.3,0.4-0.3l-0.2-0.5l-0.5,0.3c0,0-0.2,0.1-0.2-0.1
		c-0.1-0.2-0.3-0.6-0.3-0.6L64.4,38.1z"/>
	<path class="st30" d="M38,43.3c0.8-0.6,2.2-0.4,2.6,0.8c0.3,0.7,0.2,2.5-1.8,3.2c-0.7,0.3-2.1,0.2-2.1-1.8
		C36.8,44.4,37.5,43.6,38,43.3z"/>
	<radialGradient id="SVGID_32_" cx="39.0524" cy="43.9558" r="3.1714" gradientUnits="userSpaceOnUse">
		<stop  offset="0" style="stop-color:#C8C9CD"/>
		<stop  offset="5.423518e-03" style="stop-color:#C3C4C7"/>
		<stop  offset="5.170009e-02" style="stop-color:#9A9798"/>
		<stop  offset="0.1023" style="stop-color:#797474"/>
		<stop  offset="0.1574" style="stop-color:#605B5A"/>
		<stop  offset="0.2186" style="stop-color:#4E4A49"/>
		<stop  offset="0.2896" style="stop-color:#413E3E"/>
		<stop  offset="0.3788" style="stop-color:#3A3837"/>
		<stop  offset="0.5453" style="stop-color:#383635"/>
		<stop  offset="0.9956" style="stop-color:#0F1011"/>
	</radialGradient>
	<path class="st34" d="M38.1,43.6c1-0.7,2.3,0,2.3,1.2c0,1.2-0.5,1.8-1.6,2.3c-0.8,0.3-1.7-0.4-1.7-1.4
		C37.1,44.8,37.3,44.2,38.1,43.6z"/>
	<path class="st30" d="M38.3,44.5c0,0,0.2,0.3,0.3,0.5c0.1,0.2,0,0.3-0.2,0.3l-0.6,0.1l0.1,0.6l0.7-0.2c0.1,0,0.2-0.1,0.2,0.2
		c0,0.2,0.1,0.5,0.1,0.5l0.6-0.2l-0.1-0.7c0,0,0-0.1,0.2-0.3c0.2-0.1,0.4-0.3,0.4-0.3l-0.2-0.5L39.3,45c0,0-0.2,0.1-0.2-0.1
		c-0.1-0.2-0.3-0.6-0.3-0.6L38.3,44.5z"/>
	<path class="st29" d="M44.6,22.1c0.6-1,2.6-2.6,4.3-1.5s1.5,3.9,0.5,5.2c-1,1.2-3.2,2.2-4.5,1.2S43.6,23.5,44.6,22.1z"/>
	<radialGradient id="SVGID_33_" cx="41.0115" cy="25.7481" r="7.4538" gradientUnits="userSpaceOnUse">
		<stop  offset="0.1132" style="stop-color:#464446"/>
		<stop  offset="0.2246" style="stop-color:#232324"/>
		<stop  offset="0.3397" style="stop-color:#3C3E42"/>
		<stop  offset="0.6228" style="stop-color:#4B4F52"/>
		<stop  offset="0.7458" style="stop-color:#525559"/>
		<stop  offset="0.9492" style="stop-color:#2E3133"/>
	</radialGradient>
	<path class="st35" d="M44.6,22.1c0.5-0.7,1.5-1.7,2.7-1.8c0.5,0.9,0.8,2.8-0.3,4c-1,1.2-2.5,1.6-3,1.2C43.7,24.4,43.9,23,44.6,22.1
		z"/>
	<path class="st36" d="M48,20.4c0.5,0.3,0.9,0.7,1,1.1s0.2,1.7-0.1,2.3c-0.3,0.5-0.6,0.7-0.6,0.7s0.2-0.3,0.4-0.8
		c0.2-0.9,0.1-1.7-0.1-2.1c0-0.1-0.6-0.6-0.6-0.4c0,0.2-0.2,0.5-0.3,0.2c-0.1-0.3-0.5-1.1-0.5-1.1S47.8,20.2,48,20.4z"/>
	<path class="st37" d="M44.4,26.3c0.3,0.4,0.9,0.5,1.6,0.4c0.8-0.2,1.4-0.6,1.7-1.1C47.1,26,46,27.1,44.4,26.3z"/>
	<path class="st38" d="M47.7,23.3c0,0.3-0.9,1.6-1.3,1.8c0.6-0.2,0.8-0.5,0.9-0.6c0.1-0.1,0.1,0.2-0.1,0.4c-0.2,0.2-1.1,0.7-1.5,0.7
		c0.8,0.1,1,0,1.4-0.2c0.4-0.2,0.6-0.7,0.7-1c0.1-0.3,0-0.7,0.2-1.1s0-0.9,0-1S47.8,22.9,47.7,23.3z"/>
	<path class="st29" d="M38.5,28c0.6-1,2.6-2.6,4.3-1.5c1.7,1.1,1.5,3.9,0.5,5.2c-1,1.2-3.2,2.2-4.5,1.2C37.5,31.9,37.5,29.4,38.5,28
		z"/>
	<radialGradient id="SVGID_34_" cx="34.9513" cy="31.6283" r="7.4538" gradientUnits="userSpaceOnUse">
		<stop  offset="0.1132" style="stop-color:#464446"/>
		<stop  offset="0.2246" style="stop-color:#232324"/>
		<stop  offset="0.3397" style="stop-color:#3C3E42"/>
		<stop  offset="0.6228" style="stop-color:#4B4F52"/>
		<stop  offset="0.7458" style="stop-color:#525559"/>
		<stop  offset="0.9492" style="stop-color:#2E3133"/>
	</radialGradient>
	<path class="st39" d="M38.5,28c0.5-0.7,1.5-1.7,2.7-1.8c0.5,0.9,0.8,2.8-0.3,4c-1,1.2-2.5,1.6-3,1.2C37.7,30.2,37.9,28.9,38.5,28z"
		/>
	<path class="st36" d="M41.9,26.3c0.5,0.3,0.9,0.7,1,1.1c0.1,0.4,0.2,1.7-0.1,2.3c-0.3,0.5-0.6,0.7-0.6,0.7s0.2-0.3,0.4-0.8
		c0.2-0.9,0.1-1.7-0.1-2.1c0-0.1-0.6-0.6-0.6-0.4c0,0.2-0.2,0.5-0.3,0.2s-0.5-1.1-0.5-1.1S41.7,26,41.9,26.3z"/>
	<path class="st37" d="M38.3,32.2c0.3,0.4,0.9,0.5,1.6,0.4c0.8-0.2,1.4-0.6,1.7-1.1C41,31.9,40,33,38.3,32.2z"/>
	<path class="st38" d="M41.6,29.2c0,0.3-0.9,1.6-1.3,1.8c0.6-0.2,0.8-0.5,0.9-0.6c0.1-0.1,0.1,0.2-0.1,0.4c-0.2,0.2-1.1,0.7-1.5,0.7
		c0.8,0.1,1,0,1.4-0.2c0.4-0.2,0.6-0.7,0.7-1c0.1-0.3,0-0.7,0.2-1.1s0-0.9,0-1S41.8,28.8,41.6,29.2z"/>
	<path class="st29" d="M54.7,20c0.6-1,2.6-2.6,4.3-1.5c1.7,1.1,1.5,3.9,0.5,5.2c-1,1.2-3.2,2.2-4.5,1.2S53.7,21.4,54.7,20z"/>
	<radialGradient id="SVGID_35_" cx="51.1518" cy="23.648" r="7.4538" gradientUnits="userSpaceOnUse">
		<stop  offset="0.1132" style="stop-color:#464446"/>
		<stop  offset="0.2246" style="stop-color:#232324"/>
		<stop  offset="0.3397" style="stop-color:#3C3E42"/>
		<stop  offset="0.6228" style="stop-color:#4B4F52"/>
		<stop  offset="0.7458" style="stop-color:#525559"/>
		<stop  offset="0.9492" style="stop-color:#2E3133"/>
	</radialGradient>
	<path class="st40" d="M54.7,20c0.5-0.7,1.5-1.7,2.7-1.8c0.5,0.9,0.8,2.8-0.3,4c-1,1.2-2.5,1.6-3,1.2C53.9,22.3,54.1,20.9,54.7,20z"
		/>
	<path class="st36" d="M58.1,18.3c0.5,0.3,0.9,0.7,1,1.1c0.1,0.4,0.2,1.7-0.1,2.3c-0.3,0.5-0.6,0.7-0.6,0.7s0.2-0.3,0.4-0.8
		c0.2-0.9,0.1-1.7-0.1-2.1c0-0.1-0.6-0.6-0.6-0.4c0,0.2-0.2,0.5-0.3,0.2c-0.1-0.3-0.5-1.1-0.5-1.1S57.9,18.1,58.1,18.3z"/>
	<path class="st37" d="M54.5,24.2c0.3,0.4,0.9,0.5,1.6,0.4c0.8-0.2,1.4-0.6,1.7-1.1C57.2,23.9,56.2,25,54.5,24.2z"/>
	<path class="st38" d="M57.8,21.2c0,0.3-0.9,1.6-1.3,1.8c0.6-0.2,0.8-0.5,0.9-0.6c0.1-0.1,0.1,0.2-0.1,0.4c-0.2,0.2-1.1,0.7-1.5,0.7
		c0.8,0.1,1,0,1.4-0.2c0.4-0.2,0.6-0.7,0.7-1c0.1-0.3,0-0.7,0.2-1.1c0.2-0.4,0-0.9,0-1S58,20.8,57.8,21.2z"/>
	<path class="st29" d="M60.5,23.1c0.6-1,2.6-2.6,4.3-1.5c1.7,1.1,1.5,3.9,0.5,5.2C64.2,28,62,29,60.8,28
		C59.5,27.1,59.5,24.6,60.5,23.1z"/>
	<radialGradient id="SVGID_36_" cx="56.9119" cy="26.7981" r="7.4538" gradientUnits="userSpaceOnUse">
		<stop  offset="0.1132" style="stop-color:#464446"/>
		<stop  offset="0.2246" style="stop-color:#232324"/>
		<stop  offset="0.3397" style="stop-color:#3C3E42"/>
		<stop  offset="0.6228" style="stop-color:#4B4F52"/>
		<stop  offset="0.7458" style="stop-color:#525559"/>
		<stop  offset="0.9492" style="stop-color:#2E3133"/>
	</radialGradient>
	<path class="st41" d="M60.5,23.1c0.5-0.7,1.5-1.7,2.7-1.8c0.5,0.9,0.8,2.8-0.3,4c-1,1.2-2.5,1.6-3,1.2
		C59.6,25.4,59.8,24.1,60.5,23.1z"/>
	<path class="st36" d="M63.9,21.4c0.5,0.3,0.9,0.7,1,1.1s0.2,1.7-0.1,2.3c-0.3,0.5-0.6,0.7-0.6,0.7s0.2-0.3,0.4-0.8
		c0.2-0.9,0.1-1.7-0.1-2.1c0-0.1-0.6-0.6-0.6-0.4s-0.2,0.5-0.3,0.2c-0.1-0.3-0.5-1.1-0.5-1.1S63.7,21.2,63.9,21.4z"/>
	<path class="st37" d="M60.3,27.3c0.3,0.4,0.9,0.5,1.6,0.4c0.8-0.2,1.4-0.6,1.7-1.1C63,27.1,61.9,28.1,60.3,27.3z"/>
	<path class="st38" d="M63.6,24.4c0,0.3-0.9,1.6-1.3,1.8c0.6-0.2,0.8-0.5,0.9-0.6c0.1-0.1,0.1,0.2-0.1,0.4c-0.2,0.2-1.1,0.7-1.5,0.7
		c0.8,0.1,1,0,1.4-0.2c0.4-0.2,0.6-0.7,0.7-1s0-0.7,0.2-1.1c0.2-0.4,0-0.9,0-1C63.8,23.2,63.7,23.9,63.6,24.4z"/>
	<path class="st29" d="M60.3,30.8c0.6-1,2.6-2.6,4.3-1.5c1.7,1.1,1.5,3.9,0.5,5.2s-3.2,2.2-4.5,1.2C59.3,34.8,59.3,32.3,60.3,30.8z"
		/>
	<radialGradient id="SVGID_37_" cx="56.7619" cy="34.5083" r="7.4538" gradientUnits="userSpaceOnUse">
		<stop  offset="0.1132" style="stop-color:#464446"/>
		<stop  offset="0.2246" style="stop-color:#232324"/>
		<stop  offset="0.3397" style="stop-color:#3C3E42"/>
		<stop  offset="0.6228" style="stop-color:#4B4F52"/>
		<stop  offset="0.7458" style="stop-color:#525559"/>
		<stop  offset="0.9492" style="stop-color:#2E3133"/>
	</radialGradient>
	<path class="st42" d="M60.3,30.8c0.5-0.7,1.5-1.7,2.7-1.8c0.5,0.9,0.8,2.8-0.3,4c-1,1.2-2.5,1.6-3,1.2
		C59.5,33.1,59.7,31.8,60.3,30.8z"/>
	<path class="st36" d="M63.8,29.2c0.5,0.3,0.9,0.7,1,1.1s0.2,1.7-0.1,2.3c-0.3,0.5-0.6,0.7-0.6,0.7s0.2-0.3,0.4-0.8
		c0.2-0.9,0.1-1.7-0.1-2.1c0-0.1-0.6-0.6-0.6-0.4s-0.2,0.5-0.3,0.2C63.4,29.8,63,29,63,29S63.5,28.9,63.8,29.2z"/>
	<path class="st37" d="M60.1,35c0.3,0.4,0.9,0.5,1.6,0.4c0.8-0.2,1.4-0.6,1.7-1.1C62.9,34.8,61.8,35.8,60.1,35z"/>
	<path class="st38" d="M63.5,32.1c0,0.3-0.9,1.6-1.3,1.8c0.6-0.2,0.8-0.5,0.9-0.6c0.1-0.1,0.1,0.2-0.1,0.4c-0.2,0.2-1.1,0.7-1.5,0.7
		c0.8,0.1,1,0,1.4-0.2c0.4-0.2,0.6-0.7,0.7-1c0.1-0.3,0-0.7,0.2-1.1c0.2-0.4,0-0.9,0-1C63.7,30.9,63.6,31.6,63.5,32.1z"/>
	<path class="st29" d="M54.5,36.5c0.6-1,2.6-2.6,4.3-1.5c1.7,1.1,1.5,3.9,0.5,5.2c-1,1.2-3.2,2.2-4.5,1.2
		C53.6,40.5,53.6,38,54.5,36.5z"/>
	<radialGradient id="SVGID_38_" cx="50.9718" cy="40.2085" r="7.4538" gradientUnits="userSpaceOnUse">
		<stop  offset="0.1132" style="stop-color:#464446"/>
		<stop  offset="0.2246" style="stop-color:#232324"/>
		<stop  offset="0.3397" style="stop-color:#3C3E42"/>
		<stop  offset="0.6228" style="stop-color:#4B4F52"/>
		<stop  offset="0.7458" style="stop-color:#525559"/>
		<stop  offset="0.9492" style="stop-color:#2E3133"/>
	</radialGradient>
	<path class="st43" d="M54.5,36.5c0.5-0.7,1.5-1.7,2.7-1.8c0.5,0.9,0.8,2.8-0.3,4c-1,1.2-2.5,1.6-3,1.2
		C53.7,38.8,53.9,37.5,54.5,36.5z"/>
	<path class="st36" d="M58,34.9c0.5,0.3,0.9,0.7,1,1.1c0.1,0.4,0.2,1.7-0.1,2.3c-0.3,0.5-0.6,0.7-0.6,0.7s0.2-0.3,0.4-0.8
		c0.2-0.9,0.1-1.7-0.1-2.1c0-0.1-0.6-0.6-0.6-0.4c0,0.2-0.2,0.5-0.3,0.2s-0.5-1.1-0.5-1.1S57.8,34.6,58,34.9z"/>
	<path class="st37" d="M54.3,40.7c0.3,0.4,0.9,0.5,1.6,0.4c0.8-0.2,1.4-0.6,1.7-1.1C57.1,40.5,56,41.5,54.3,40.7z"/>
	<path class="st38" d="M57.7,37.8c0,0.3-0.9,1.6-1.3,1.8c0.6-0.2,0.8-0.5,0.9-0.6c0.1-0.1,0.1,0.2-0.1,0.4c-0.2,0.2-1.1,0.7-1.5,0.7
		c0.8,0.1,1,0,1.4-0.2c0.4-0.2,0.6-0.7,0.7-1s0-0.7,0.2-1.1c0.2-0.4,0-0.9,0-1S57.8,37.3,57.7,37.8z"/>
	<path class="st29" d="M44.4,39c0.6-1,2.6-2.6,4.3-1.5c1.7,1.1,1.5,3.9,0.5,5.2c-1,1.2-3.2,2.2-4.5,1.2C43.4,42.9,43.4,40.5,44.4,39
		z"/>
	<radialGradient id="SVGID_39_" cx="40.8315" cy="42.6686" r="7.4538" gradientUnits="userSpaceOnUse">
		<stop  offset="0.1132" style="stop-color:#464446"/>
		<stop  offset="0.2246" style="stop-color:#232324"/>
		<stop  offset="0.3397" style="stop-color:#3C3E42"/>
		<stop  offset="0.6228" style="stop-color:#4B4F52"/>
		<stop  offset="0.7458" style="stop-color:#525559"/>
		<stop  offset="0.9492" style="stop-color:#2E3133"/>
	</radialGradient>
	<path class="st44" d="M44.4,39c0.5-0.7,1.5-1.7,2.7-1.8c0.5,0.9,0.8,2.8-0.3,4c-1,1.2-2.5,1.6-3,1.2C43.5,41.3,43.8,39.9,44.4,39z"
		/>
	<path class="st36" d="M47.8,37.3c0.5,0.3,0.9,0.7,1,1.1c0.1,0.4,0.2,1.7-0.1,2.3s-0.6,0.7-0.6,0.7s0.2-0.3,0.4-0.8
		c0.2-0.9,0.1-1.7-0.1-2.1c0-0.1-0.6-0.6-0.6-0.4s-0.2,0.5-0.3,0.2s-0.5-1.1-0.5-1.1S47.6,37.1,47.8,37.3z"/>
	<path class="st37" d="M44.2,43.2c0.3,0.4,0.9,0.5,1.6,0.4c0.8-0.2,1.4-0.6,1.7-1.1C46.9,42.9,45.8,44,44.2,43.2z"/>
	<path class="st38" d="M47.5,40.2c0,0.3-0.9,1.6-1.3,1.8c0.6-0.2,0.8-0.5,0.9-0.6c0.1-0.1,0.1,0.2-0.1,0.4c-0.2,0.2-1.1,0.7-1.5,0.7
		c0.8,0.1,1,0,1.4-0.2c0.4-0.2,0.6-0.7,0.7-1s0-0.7,0.2-1.1s0-0.9,0-1C47.7,39.1,47.6,39.8,47.5,40.2z"/>
	<path class="st29" d="M38.4,35.8c0.6-1,2.6-2.6,4.3-1.5c1.7,1.1,1.5,3.9,0.5,5.2c-1,1.2-3.2,2.2-4.5,1.2
		C37.4,39.7,37.4,37.3,38.4,35.8z"/>
	<radialGradient id="SVGID_40_" cx="34.8313" cy="39.4885" r="7.4538" gradientUnits="userSpaceOnUse">
		<stop  offset="0.1132" style="stop-color:#464446"/>
		<stop  offset="0.2246" style="stop-color:#232324"/>
		<stop  offset="0.3397" style="stop-color:#3C3E42"/>
		<stop  offset="0.6228" style="stop-color:#4B4F52"/>
		<stop  offset="0.7458" style="stop-color:#525559"/>
		<stop  offset="0.9492" style="stop-color:#2E3133"/>
	</radialGradient>
	<path class="st45" d="M38.4,35.8c0.5-0.7,1.5-1.7,2.7-1.8c0.5,0.9,0.8,2.8-0.3,4c-1,1.2-2.5,1.6-3,1.2
		C37.5,38.1,37.8,36.8,38.4,35.8z"/>
	<path class="st36" d="M41.8,34.1c0.5,0.3,0.9,0.7,1,1.1c0.1,0.4,0.2,1.7-0.1,2.3c-0.3,0.5-0.6,0.7-0.6,0.7s0.2-0.3,0.4-0.8
		c0.2-0.9,0.1-1.7-0.1-2.1c0-0.1-0.6-0.6-0.6-0.4c0,0.2-0.2,0.5-0.3,0.2S41.1,34,41.1,34S41.6,33.9,41.8,34.1z"/>
	<path class="st37" d="M38.2,40c0.3,0.4,0.9,0.5,1.6,0.4c0.8-0.2,1.4-0.6,1.7-1.1C40.9,39.7,39.8,40.8,38.2,40z"/>
	<path class="st38" d="M41.5,37c0,0.3-0.9,1.6-1.3,1.8c0.6-0.2,0.8-0.5,0.9-0.6c0.1-0.1,0.1,0.2-0.1,0.4c-0.2,0.2-1.1,0.7-1.5,0.7
		c0.8,0.1,1,0,1.4-0.2c0.4-0.2,0.6-0.7,0.7-1s0-0.7,0.2-1.1c0.2-0.4,0-0.9,0-1S41.6,36.6,41.5,37z"/>
	<radialGradient id="SVGID_41_" cx="53.6718" cy="23.5411" r="3.1537" gradientUnits="userSpaceOnUse">
		<stop  offset="0.2682" style="stop-color:#3F4345"/>
		<stop  offset="0.8439" style="stop-color:#232324"/>
	</radialGradient>
	<path class="st46" d="M53.3,22.9c-0.5,0.9-1.2,1.2-2,1c-0.6-0.2-0.8-1.4-0.3-2.3s1.4-1.2,2-0.9C53.5,21,53.7,22,53.3,22.9z"/>
	<radialGradient id="SVGID_42_" cx="53.5818" cy="41.3316" r="3.1537" gradientUnits="userSpaceOnUse">
		<stop  offset="0.4771" style="stop-color:#3F4345"/>
		<stop  offset="0.697" style="stop-color:#232324"/>
	</radialGradient>
	<path class="st47" d="M53.2,40.7c-0.5,0.9-1.2,1.2-2,1c-0.6-0.2-0.8-1.4-0.3-2.3c0.5-0.9,1.4-1.2,2-0.9
		C53.4,38.8,53.6,39.8,53.2,40.7z"/>
	<path class="st48" d="M55,25.9l-7.6,1.7c0,0-0.8,0-0.8,1.1c-0.1,1.4,0.1,6.3,0.1,6.3l7.6-1.7c0,0,0.8-0.2,0.8-0.9
		C55,31.6,55,25.9,55,25.9z"/>
	<path class="st49" d="M47.3,27.6l5.3-1.1c0.8,1.3,1.1,4.3-0.4,6.2c-1,1.2-2.7,1.5-3.2,1.4c-1-0.1-2.1-0.9-2.4-1.3c0-0.2,0-4,0-4
		C46.9,28.3,47.3,27.6,47.3,27.6z"/>
	<path class="st50" d="M48.1,28.8c0.5-0.7,1.9-1.9,3.2-1.1s1.1,2.9,0.4,3.8s-2.4,1.6-3.3,0.9C47.4,31.7,47.4,29.9,48.1,28.8z"/>
	<radialGradient id="SVGID_43_" cx="45.4981" cy="31.4928" r="5.4566" gradientUnits="userSpaceOnUse">
		<stop  offset="0.1132" style="stop-color:#464446"/>
		<stop  offset="0.2246" style="stop-color:#232324"/>
		<stop  offset="0.3397" style="stop-color:#3C3E42"/>
		<stop  offset="0.6228" style="stop-color:#4B4F52"/>
		<stop  offset="0.7458" style="stop-color:#525559"/>
		<stop  offset="0.9492" style="stop-color:#2E3133"/>
	</radialGradient>
	<path class="st51" d="M48.1,28.8c0.3-0.5,1.1-1.2,2-1.3c0.4,0.6,0.6,2.1-0.2,3c-0.7,0.9-1.8,1.2-2.2,0.9
		C47.5,30.5,47.6,29.5,48.1,28.8z"/>
	<path class="st36" d="M50.6,27.6c0.3,0.2,0.6,0.5,0.7,0.8s0.2,1.3,0,1.6s-0.4,0.5-0.4,0.5s0.2-0.2,0.3-0.6c0.2-0.7,0-1.2,0-1.5
		c0-0.1-0.4-0.4-0.4-0.3c0,0.2-0.1,0.4-0.2,0.2s-0.4-0.8-0.4-0.8S50.5,27.4,50.6,27.6z"/>
	<path class="st37" d="M48,31.9c0.2,0.3,0.6,0.4,1.2,0.3s1-0.4,1.3-0.8C50,31.7,49.2,32.5,48,31.9z"/>
	<path class="st38" d="M50.4,29.7c0,0.2-0.7,1.1-1,1.3c0.5-0.1,0.6-0.4,0.7-0.4c0.1-0.1,0.1,0.2,0,0.3c-0.1,0.2-0.8,0.5-1.1,0.5
		c0.6,0.1,0.7,0,1-0.2c0.3-0.2,0.4-0.5,0.5-0.7s0-0.5,0.2-0.8c0.1-0.3,0-0.7,0-0.7C50.5,28.9,50.5,29.4,50.4,29.7z"/>
	<path class="st49" d="M47.3,27.6l5.3-1.1c0.8,1.3,1.1,4.3-0.4,6.2c-1,1.2-2.7,1.5-3.2,1.4c-1-0.1-2.1-0.9-2.4-1.3c0-0.2,0-4,0-4
		C46.9,28.3,47.3,27.6,47.3,27.6z"/>
	<path class="st50" d="M48.1,28.8c0.5-0.7,1.9-1.9,3.2-1.1s1.1,2.9,0.4,3.8s-2.4,1.6-3.3,0.9C47.4,31.7,47.4,29.9,48.1,28.8z"/>
	<radialGradient id="SVGID_44_" cx="45.4981" cy="31.4928" r="5.4566" gradientUnits="userSpaceOnUse">
		<stop  offset="0.1132" style="stop-color:#464446"/>
		<stop  offset="0.2246" style="stop-color:#232324"/>
		<stop  offset="0.3397" style="stop-color:#3C3E42"/>
		<stop  offset="0.6228" style="stop-color:#4B4F52"/>
		<stop  offset="0.7458" style="stop-color:#525559"/>
		<stop  offset="0.9492" style="stop-color:#2E3133"/>
	</radialGradient>
	<path class="st52" d="M48.1,28.8c0.3-0.5,1.1-1.2,2-1.3c0.4,0.6,0.6,2.1-0.2,3c-0.7,0.9-1.8,1.2-2.2,0.9
		C47.5,30.5,47.6,29.5,48.1,28.8z"/>
	<path class="st36" d="M50.6,27.6c0.3,0.2,0.6,0.5,0.7,0.8s0.2,1.3,0,1.6s-0.4,0.5-0.4,0.5s0.2-0.2,0.3-0.6c0.2-0.7,0-1.2,0-1.5
		c0-0.1-0.4-0.4-0.4-0.3c0,0.2-0.1,0.4-0.2,0.2s-0.4-0.8-0.4-0.8S50.5,27.4,50.6,27.6z"/>
	<path class="st37" d="M48,31.9c0.2,0.3,0.6,0.4,1.2,0.3s1-0.4,1.3-0.8C50,31.7,49.2,32.5,48,31.9z"/>
	<path class="st38" d="M50.4,29.7c0,0.2-0.7,1.1-1,1.3c0.5-0.1,0.6-0.4,0.7-0.4c0.1-0.1,0.1,0.2,0,0.3c-0.1,0.2-0.8,0.5-1.1,0.5
		c0.6,0.1,0.7,0,1-0.2c0.3-0.2,0.4-0.5,0.5-0.7s0-0.5,0.2-0.8c0.1-0.3,0-0.7,0-0.7C50.5,28.9,50.5,29.4,50.4,29.7z"/>
	<path class="st53" d="M46.8,20.6c-0.1,0-0.3-0.1-0.5,0.1c0,0.2,0.6,0.1,0.6,0.1c0.2,0,0.5,0.5,0.5,0.5s-0.1,0-0.1,0.2
		s0.2,0.2,0.2,0.5s0,1.1-0.1,1.5c0.2-0.2,0.2-1,0.2-1.3s0.1-0.5,0.1-0.3c0.1,0.2,0.1-0.2,0-0.4c-0.1-0.5-0.4-0.7-0.6-0.8
		C46.8,20.5,46.8,20.6,46.8,20.6"/>
	<path class="st53" d="M56.8,18.6c-0.1,0-0.3-0.1-0.5,0.1c0,0.2,0.6,0.1,0.6,0.1c0.2,0,0.5,0.5,0.5,0.5s-0.1,0-0.1,0.2
		s0.2,0.2,0.2,0.5c0,0.2,0,1.1-0.1,1.5c0.2-0.2,0.2-1,0.2-1.3s0.1-0.5,0.1-0.3c0.1,0.2,0.1-0.2,0-0.4c-0.1-0.5-0.4-0.7-0.6-0.8
		C56.8,18.4,56.8,18.6,56.8,18.6"/>
	<path class="st53" d="M40.6,26.6c-0.1,0-0.3-0.1-0.5,0.1c0,0.2,0.6,0.1,0.6,0.1c0.2,0,0.5,0.5,0.5,0.5s-0.1,0-0.1,0.2
		c0,0.1,0.2,0.2,0.2,0.5s0,1.1-0.1,1.5c0.2-0.2,0.2-1,0.2-1.3s0.1-0.5,0.1-0.3c0.1,0.2,0.1-0.2,0-0.4c-0.1-0.5-0.4-0.7-0.6-0.8
		C40.6,26.4,40.6,26.6,40.6,26.6"/>
	<path class="st53" d="M62.5,21.7c-0.1,0-0.3-0.1-0.5,0.1c0,0.2,0.6,0.1,0.6,0.1c0.2,0,0.5,0.5,0.5,0.5s-0.1,0-0.1,0.2
		c0,0.1,0.2,0.2,0.2,0.5s0,1.1-0.1,1.5c0.2-0.2,0.2-1,0.2-1.3s0.1-0.5,0.1-0.3c0.1,0.2,0.1-0.2,0-0.4c-0.1-0.5-0.4-0.7-0.6-0.8
		C62.5,21.6,62.5,21.7,62.5,21.7"/>
	<path class="st53" d="M62.3,29.5c-0.1,0-0.3-0.1-0.5,0.1c0,0.2,0.6,0.1,0.6,0.1c0.2,0,0.5,0.5,0.5,0.5s-0.1,0-0.1,0.2
		s0.2,0.2,0.2,0.5s0,1.1-0.1,1.5c0.2-0.2,0.2-1,0.2-1.3c0-0.2,0.1-0.5,0.1-0.3c0.1,0.2,0.1-0.2,0-0.4c-0.1-0.5-0.4-0.7-0.6-0.8
		C62.4,29.3,62.3,29.5,62.3,29.5"/>
	<path class="st53" d="M40.5,34.5c-0.1,0-0.3-0.1-0.5,0.1c0,0.2,0.6,0.1,0.6,0.1c0.2,0,0.5,0.5,0.5,0.5s-0.1,0-0.1,0.2
		c0,0.1,0.2,0.2,0.2,0.5s0,1.1-0.1,1.5c0.2-0.2,0.2-1,0.2-1.3c0-0.2,0.1-0.5,0.1-0.3c0.1,0.2,0.1-0.2,0-0.4
		c-0.1-0.5-0.4-0.7-0.6-0.8C40.5,34.3,40.5,34.5,40.5,34.5"/>
	<path class="st53" d="M56.6,35.1c-0.1,0-0.3-0.1-0.5,0.1c0,0.2,0.6,0.1,0.6,0.1c0.2,0,0.5,0.5,0.5,0.5S57,35.8,57,36
		s0.2,0.2,0.2,0.5c0,0.2,0,1.1-0.1,1.5c0.2-0.2,0.2-1,0.2-1.3c0-0.2,0.1-0.5,0.1-0.3c0.1,0.2,0.1-0.2,0-0.4
		c-0.1-0.5-0.4-0.7-0.6-0.8C56.6,35,56.6,35.1,56.6,35.1"/>
	<path class="st53" d="M46.5,37.6c-0.1,0-0.3-0.1-0.5,0.1c0,0.2,0.6,0.1,0.6,0.1c0.2,0,0.5,0.5,0.5,0.5s-0.1,0-0.1,0.2
		c0,0.1,0.2,0.2,0.2,0.5s0,1.1-0.1,1.5c0.2-0.2,0.2-1,0.2-1.3c0-0.2,0.1-0.5,0.1-0.3c0.1,0.2,0.1-0.2,0-0.4
		c-0.1-0.5-0.4-0.7-0.6-0.8C46.5,37.4,46.5,37.6,46.5,37.6"/>
	<path class="st54" d="M44.6,19l-6.8,1.5c-1.3,0.4-1.8,1.8-1.9,3.8c0.3-2.5,1.4-3.4,2.6-3.7l6.3-1.5L44.6,19z"/>
	<path class="st54" d="M45,18c0.5-0.2,11.8-2.6,12.5-2.7c1.1-0.2,1.7,0.4,1.7,0.4s-0.9-0.3-1.3-0.2c-0.4,0.1-12.6,2.6-12.6,2.6
		L45,18z"/>
	<path class="st54" d="M59.5,15.7l0.4,0.2l5.8-0.9c0.5-0.1,0.8,0,1,0.2c-0.5-0.4-0.9-0.4-1.6-0.3C64.5,15,59.5,15.7,59.5,15.7z"/>
	<path class="st54" d="M34.7,12.8l-6.6,1.7c-1.3,0.4-2.1,1.9-1.8,4.1c0.1-3,1.3-3.7,2.5-4l6.2-1.7L34.7,12.8z"/>
	<path class="st54" d="M35.3,12.2C35.9,12.1,47.3,10,48,9.9c0.7-0.1,1.4,0.5,1.4,0.5s-1.1-0.3-1.4-0.2c-0.4,0.1-12.4,2.2-12.4,2.2
		L35.3,12.2z"/>
	<path class="st54" d="M49.3,10.2l0.4,0.2l5.3-0.9c0.5-0.1,0.8,0,1,0.2c-0.5-0.4-0.9-0.4-1.6-0.3C53.7,9.4,49.3,10.2,49.3,10.2z"/>
</g>
</svg>
