<svg xmlns="http://www.w3.org/2000/svg" width="74" height="48" viewBox="0 0 74 48"><defs><style>.a{fill:#fff;}.b,.d{fill:#f6f1e9;}.c,.e,.f{fill:#f9f4f2;}.c,.d,.f,.m,.s{stroke:#9e9e9f;}.c,.m{stroke-width:0.22px;}.d,.f,.s{stroke-width:0.29px;}.g{fill:#9a733f;}.h{fill:#dccdb7;}.i{fill:#dddad5;}.j{fill:#3f3f42;}.k{fill:#00946d;}.l{fill:#3e3a39;}.m,.s{fill:none;}.n{fill:#cfd8d5;}.o{fill:#949b9a;}.p{fill:#5c5c5e;}.q{fill:#b9b197;}.r{fill:#747373;}.t{fill:#8195cb;}</style></defs><title>ecomonitorlight</title><rect class="a" width="74" height="48"/><polygon class="b" points="15.96 29.63 15.96 16.7 17.58 19.64 17.58 26.25 24.86 26.25 24.86 1.9 12.66 1.9 12.66 46.02 24.86 46.02 24.86 29.63 15.96 29.63"/><polygon class="c" points="17.58 19.64 15.96 16.7 15.96 29.63 24.86 29.63 24.86 26.25 17.58 26.25 17.58 19.64"/><polygon class="d" points="26.77 8.69 26.77 10.52 58.01 10.52 58.01 1.9 26.11 1.9 26.11 8.69 26.77 8.69"/><polygon class="e" points="58.01 1.9 58.01 10.52 26.77 10.52 26.77 8.69 26.11 8.69 26.11 1.9 24.86 1.9 24.86 11.26 62.33 11.26 62.33 1.9 58.01 1.9"/><rect class="c" x="24.86" y="11.26" width="37.47" height="21.46"/><rect class="f" x="24.86" y="32.72" width="4.41" height="13.28"/><polygon class="f" points="62.33 32.72 60.21 32.72 60.21 34.93 61.09 34.93 61.09 46 62.33 46 62.33 32.72"/><polygon class="b" points="61.09 34.93 60.21 34.93 60.21 32.72 29.27 32.72 29.27 46 61.09 46 61.09 34.93"/><path class="g" d="M61.67,8.54a1.46,1.46,0,1,1-1.46-1.46A1.46,1.46,0,0,1,61.67,8.54Z"/><path class="h" d="M61.26,8.54a1.05,1.05,0,1,1-1-1A1,1,0,0,1,61.26,8.54Z"/><rect class="i" x="29.93" y="34.19" width="29.33" height="10.29"/><rect class="j" x="35.52" y="34.12" width="18.3" height="9.85"/><rect class="j" x="31.47" y="5.01" width="21.61" height="4.41"/><rect class="k" x="23.02" y="46.02" width="1.84" height="1.34"/><rect class="k" x="23.02" y="0.56" width="1.84" height="1.34"/><rect class="l" x="13.39" y="20.3" width="1.76" height="0.81"/><rect class="l" x="13.39" y="17.78" width="1.76" height="0.81"/><rect class="l" x="13.39" y="15.25" width="1.76" height="0.81"/><rect class="l" x="13.39" y="12.73" width="1.76" height="0.81"/><rect class="l" x="19.49" y="16.7" width="1.47" height="13.01"/><rect class="m" x="12.66" y="1.9" width="12.2" height="44.12"/><circle class="n" cx="33.31" cy="7.29" r="1.45"/><polygon class="o" points="32.45 7.58 33.02 7.58 33.02 8.15 33.6 8.15 33.6 7.58 34.17 7.58 34.17 7 33.6 7 33.6 6.43 33.02 6.43 33.02 7 32.45 7 32.45 7.58"/><circle class="n" cx="36.91" cy="7.29" r="1.45"/><polygon class="o" points="36.05 7.58 36.62 7.58 36.62 8.15 37.2 8.15 37.2 7.58 37.77 7.58 37.77 7 37.2 7 37.2 6.43 36.62 6.43 36.62 7 36.05 7 36.05 7.58"/><circle class="n" cx="40.51" cy="7.29" r="1.45"/><polygon class="o" points="39.65 7.58 40.23 7.58 40.23 8.15 40.8 8.15 40.8 7.58 41.38 7.58 41.38 7 40.8 7 40.8 6.43 40.23 6.43 40.23 7 39.65 7 39.65 7.58"/><circle class="n" cx="44.11" cy="7.29" r="1.45"/><polygon class="o" points="43.25 7.58 43.83 7.58 43.83 8.15 44.4 8.15 44.4 7.58 44.98 7.58 44.98 7 44.4 7 44.4 6.43 43.83 6.43 43.83 7 43.25 7 43.25 7.58"/><circle class="n" cx="47.72" cy="7.29" r="1.45"/><polygon class="o" points="46.85 7.58 47.43 7.58 47.43 8.15 48 8.15 48 7.58 48.58 7.58 48.58 7 48 7 48 6.43 47.43 6.43 47.43 7 46.85 7 46.85 7.58"/><circle class="n" cx="51.32" cy="7.29" r="1.45"/><polygon class="o" points="50.46 7.58 51.03 7.58 51.03 8.15 51.61 8.15 51.61 7.58 52.18 7.58 52.18 7 51.61 7 51.61 6.43 51.03 6.43 51.03 7 50.46 7 50.46 7.58"/><rect class="p" x="31.18" y="5.01" width="0.66" height="4.41"/><rect class="p" x="34.78" y="5.01" width="0.66" height="4.41"/><rect class="p" x="38.38" y="5.01" width="0.66" height="4.41"/><rect class="p" x="41.98" y="5.01" width="0.66" height="4.41"/><rect class="p" x="45.59" y="5.01" width="0.66" height="4.41"/><path class="n" d="M37,36.77a1.45,1.45,0,1,1,1.45,1.45A1.45,1.45,0,0,1,37,36.77Z"/><polygon class="o" points="37.54 37.06 38.11 37.06 38.11 37.63 38.69 37.63 38.69 37.06 39.26 37.06 39.26 36.48 38.69 36.48 38.69 35.91 38.11 35.91 38.11 36.48 37.54 36.48 37.54 37.06"/><path class="n" d="M40.55,36.77A1.45,1.45,0,1,1,42,38.22,1.45,1.45,0,0,1,40.55,36.77Z"/><polygon class="o" points="41.14 37.06 41.72 37.06 41.72 37.63 42.29 37.63 42.29 37.06 42.87 37.06 42.87 36.48 42.29 36.48 42.29 35.91 41.72 35.91 41.72 36.48 41.14 36.48 41.14 37.06"/><path class="n" d="M44.15,36.77a1.45,1.45,0,1,1,1.45,1.45A1.45,1.45,0,0,1,44.15,36.77Z"/><polygon class="o" points="44.74 37.06 45.32 37.06 45.32 37.63 45.89 37.63 45.89 37.06 46.47 37.06 46.47 36.48 45.89 36.48 45.89 35.91 45.32 35.91 45.32 36.48 44.74 36.48 44.74 37.06"/><path class="n" d="M47.76,36.77a1.45,1.45,0,1,1,1.45,1.45A1.44,1.44,0,0,1,47.76,36.77Z"/><polygon class="o" points="48.34 37.06 48.92 37.06 48.92 37.63 49.49 37.63 49.49 37.06 50.07 37.06 50.07 36.48 49.49 36.48 49.49 35.91 48.92 35.91 48.92 36.48 48.34 36.48 48.34 37.06"/><rect class="p" x="36.27" y="34.49" width="0.66" height="4.41"/><rect class="p" x="39.87" y="34.49" width="0.66" height="4.41"/><rect class="p" x="43.47" y="34.49" width="0.66" height="4.41"/><rect class="p" x="47.07" y="34.49" width="0.66" height="4.41"/><rect class="p" x="50.68" y="34.49" width="0.66" height="4.41"/><path class="n" d="M38.64,41.47a1.45,1.45,0,1,1,1.45,1.45A1.45,1.45,0,0,1,38.64,41.47Z"/><polygon class="o" points="39.23 41.76 39.8 41.76 39.8 42.34 40.38 42.34 40.38 41.76 40.95 41.76 40.95 41.19 40.38 41.19 40.38 40.61 39.8 40.61 39.8 41.19 39.23 41.19 39.23 41.76"/><path class="n" d="M42.24,41.47a1.45,1.45,0,1,1,1.45,1.45A1.45,1.45,0,0,1,42.24,41.47Z"/><polygon class="o" points="42.83 41.76 43.41 41.76 43.41 42.34 43.98 42.34 43.98 41.76 44.56 41.76 44.56 41.19 43.98 41.19 43.98 40.61 43.41 40.61 43.41 41.19 42.83 41.19 42.83 41.76"/><path class="n" d="M45.85,41.47a1.45,1.45,0,1,1,1.45,1.45A1.44,1.44,0,0,1,45.85,41.47Z"/><polygon class="o" points="46.43 41.76 47.01 41.76 47.01 42.34 47.58 42.34 47.58 41.76 48.16 41.76 48.16 41.19 47.58 41.19 47.58 40.61 47.01 40.61 47.01 41.19 46.43 41.19 46.43 41.76"/><path class="n" d="M49.45,41.47a1.45,1.45,0,1,1,1.45,1.45A1.45,1.45,0,0,1,49.45,41.47Z"/><polygon class="o" points="50.03 41.76 50.61 41.76 50.61 42.34 51.18 42.34 51.18 41.76 51.76 41.76 51.76 41.19 51.18 41.19 51.18 40.61 50.61 40.61 50.61 41.19 50.03 41.19 50.03 41.76"/><rect class="p" x="37.96" y="39.2" width="0.66" height="4.41"/><rect class="p" x="41.56" y="39.2" width="0.66" height="4.41"/><rect class="p" x="45.16" y="39.2" width="0.66" height="4.41"/><rect class="p" x="48.77" y="39.2" width="0.66" height="4.41"/><rect class="p" x="52.37" y="39.2" width="0.66" height="4.41"/><rect class="p" x="49.19" y="5.01" width="0.66" height="4.41"/><rect class="p" x="52.79" y="5.01" width="0.66" height="4.41"/><rect class="q" x="27.72" y="17.29" width="18.52" height="9.41"/><path class="r" d="M46.39,26.84H27.58v-9.7H46.39Zm-18.52-.29H46.1V17.43H27.87Z"/><circle class="l" cx="60.21" cy="8.54" r="0.73"/><path class="g" d="M28.43,35.18A1.46,1.46,0,1,1,27,33.72,1.46,1.46,0,0,1,28.43,35.18Z"/><path class="h" d="M28,35.18a1,1,0,1,1-1.05-1A1,1,0,0,1,28,35.18Z"/><circle class="l" cx="26.97" cy="35.18" r="0.73"/><rect class="m" x="24.86" y="1.9" width="37.47" height="44.1"/><line class="m" x1="24.86" y1="11.46" x2="62.33" y2="11.46"/><line class="m" x1="24.86" y1="32.7" x2="62.33" y2="32.7"/><rect class="s" x="12.66" y="2.05" width="49.69" height="43.97"/><rect class="t" x="53.52" y="14.05" width="4.26" height="1.84" rx="0.83" ry="0.83"/><rect class="t" x="53.52" y="18.56" width="4.26" height="1.84" rx="0.83" ry="0.83"/><rect class="t" x="53.52" y="23.07" width="4.26" height="1.84" rx="0.83" ry="0.83"/><rect class="t" x="53.52" y="27.58" width="4.26" height="1.84" rx="0.83" ry="0.83"/></svg>