<?xml version="1.0" encoding="utf-8"?>
<!-- Generator: Adobe Illustrator 24.0.1, SVG Export Plug-In . SVG Version: 6.00 Build 0)  -->
<svg version="1.1" id="レイヤー_1" xmlns="http://www.w3.org/2000/svg" xmlns:xlink="http://www.w3.org/1999/xlink" x="0px"
	 y="0px" width="74px" height="48px" viewBox="0 0 74 48" style="enable-background:new 0 0 74 48;" xml:space="preserve">
<style type="text/css">
	.st0{fill:url(#SVGID_1_);stroke:#000000;stroke-width:0.225;}
	.st1{fill:url(#SVGID_2_);}
	.st2{fill:none;stroke:#4D4D4D;stroke-width:0.12;}
	.st3{fill:url(#SVGID_3_);}
	.st4{fill:url(#SVGID_4_);stroke:#333333;stroke-width:6.000000e-02;}
	.st5{fill:none;stroke:#5E5E5E;stroke-width:0.12;}
	.st6{fill:url(#SVGID_5_);}
	.st7{fill:none;stroke:#0F0F0F;stroke-width:9.000000e-02;}
	.st8{fill:none;stroke:#4D4D4D;stroke-width:0.12;stroke-linecap:round;}
	.st9{fill:url(#SVGID_6_);stroke:#333333;stroke-width:0.12;}
	.st10{fill:url(#SVGID_7_);}
	.st11{fill:#1A1A1A;stroke:#303030;stroke-width:6.000000e-02;stroke-linecap:round;stroke-linejoin:round;}
	.st12{fill:url(#SVGID_8_);stroke:#171717;stroke-width:9.000000e-02;stroke-linecap:round;stroke-linejoin:round;}
	.st13{fill:url(#SVGID_9_);}
	.st14{fill:#C8C9CA;}
	.st15{fill:#FFFFFF;}
	.st16{fill:url(#SVGID_10_);stroke:#333333;stroke-width:6.000000e-02;}
	.st17{fill:url(#SVGID_11_);stroke:#333333;stroke-width:6.000000e-02;}
	.st18{fill:url(#SVGID_12_);stroke:#333333;stroke-width:6.000000e-02;}
	.st19{fill:url(#SVGID_13_);stroke:#333333;stroke-width:6.000000e-02;}
	.st20{fill:url(#SVGID_14_);stroke:#333333;stroke-width:6.000000e-02;}
	.st21{fill:url(#SVGID_15_);}
	.st22{fill:#FAFCFD;stroke:#B8BABB;stroke-width:5.980000e-02;stroke-linecap:round;stroke-linejoin:round;}
	.st23{fill:#FAFCFD;stroke:#B8BABB;stroke-width:3.860000e-02;stroke-linecap:round;stroke-linejoin:round;}
	.st24{fill:#86959C;stroke:#B8BABB;stroke-width:3.860000e-02;stroke-linecap:round;stroke-linejoin:round;}
	.st25{fill:#D3D6D7;stroke:#8A8B8C;stroke-width:0.1004;stroke-linecap:round;stroke-linejoin:round;}
	.st26{fill:#D4D6D8;stroke:#8A8B8C;stroke-width:0.1042;stroke-linecap:round;stroke-linejoin:round;}
	.st27{fill:#C8CACB;stroke:#8A8B8C;stroke-width:0.1042;stroke-linecap:round;stroke-linejoin:round;}
	.st28{fill:#E6E8E9;stroke:#8A8B8C;stroke-width:0.1042;stroke-linecap:round;stroke-linejoin:round;}
	.st29{fill:#C5C9CA;stroke:#8A8B8C;stroke-width:0.1042;stroke-linecap:round;stroke-linejoin:round;}
	.st30{fill:#B4B6B8;stroke:#8A8B8C;stroke-width:0.1042;stroke-linecap:round;stroke-linejoin:round;}
	.st31{fill:#C8CACB;stroke:#8A8B8C;stroke-width:6.560000e-02;stroke-linecap:round;stroke-linejoin:round;}
	.st32{fill:#CFD4D7;stroke:#B8BABB;stroke-width:5.980000e-02;stroke-linecap:round;stroke-linejoin:round;}
	.st33{fill:#C5C9CA;stroke:#8A8B8C;stroke-width:0.1004;stroke-linecap:round;stroke-linejoin:round;}
	.st34{fill:#E2E4E5;stroke:#8A8B8C;stroke-width:0.1004;stroke-linecap:round;stroke-linejoin:round;}
	.st35{fill:#C9CCCE;stroke:#8A8B8C;stroke-width:0.1042;stroke-linecap:round;stroke-linejoin:round;}
	.st36{fill:#CFD2D4;stroke:#8A8B8C;stroke-width:0.1042;stroke-linecap:round;stroke-linejoin:round;}
	.st37{fill:#BCBDBF;stroke:#8A8B8C;stroke-width:0.1042;stroke-linecap:round;stroke-linejoin:round;}
	.st38{fill:#D2D3D5;stroke:#8A8B8C;stroke-width:0.1042;stroke-linecap:round;stroke-linejoin:round;}
	.st39{fill:#E2E4E5;stroke:#8A8B8C;stroke-width:0.1042;stroke-linecap:round;stroke-linejoin:round;}
	.st40{fill:#B2B4B5;stroke:#8A8B8C;stroke-width:9.270000e-02;stroke-linecap:round;stroke-linejoin:round;}
	.st41{fill:#939496;stroke:#8A8B8C;stroke-width:0.1042;stroke-linecap:round;stroke-linejoin:round;}
	.st42{fill:#FAFCFD;stroke:#B8BABB;stroke-width:5.600000e-02;stroke-linecap:round;stroke-linejoin:round;}
	.st43{fill:none;stroke:#323333;stroke-width:0.2249;stroke-linecap:round;stroke-linejoin:round;}
	.st44{fill:#BC2829;}
	.st45{fill:#D44A67;}
	.st46{opacity:0.35;fill:url(#SVGID_16_);stroke:#333333;stroke-width:6.000000e-02;enable-background:new    ;}
	.st47{fill:#3BA6B5;}
	.st48{opacity:0.35;fill:url(#SVGID_17_);stroke:#333333;stroke-width:6.000000e-02;enable-background:new    ;}
</style>
<g id="レイヤー_1_1_">
</g>
<g id="レイヤー_8">
	
		<linearGradient id="SVGID_1_" gradientUnits="userSpaceOnUse" x1="17.3503" y1="48.0399" x2="17.3503" y2="3.1827" gradientTransform="matrix(1 0 0 -1 0 49.28)">
		<stop  offset="0" style="stop-color:#4F4C4C"/>
		<stop  offset="0.2458" style="stop-color:#3C3736"/>
		<stop  offset="0.3367" style="stop-color:#171717"/>
		<stop  offset="0.4747" style="stop-color:#433F3F"/>
		<stop  offset="0.8247" style="stop-color:#292929"/>
	</linearGradient>
	<path class="st0" d="M29.1,46.6H5.6c-0.2,0-0.3-0.1-0.3-0.3V1.7c0-0.1,0.1-0.3,0.3-0.3h23.4c0.1,0,0.3,0.1,0.3,0.3v44.6
		C29.3,46.5,29.2,46.6,29.1,46.6z"/>
	
		<radialGradient id="SVGID_2_" cx="6.0369" cy="35.6899" r="23.53" gradientTransform="matrix(1 0 0 -1 0 49.28)" gradientUnits="userSpaceOnUse">
		<stop  offset="0.5069" style="stop-color:#333333"/>
		<stop  offset="0.8882" style="stop-color:#1A1A1A"/>
	</radialGradient>
	<path class="st1" d="M29.2,17.8H5.6v-4.6h0.6v3.9c0,0.1,0.1,0.2,0.2,0.2h4.8c0.1,0,0.2-0.1,0.2-0.2v-3.9h17.8V17.8z"/>
	<path class="st2" d="M6.1,13.3v3.9c0,0.1,0.1,0.2,0.2,0.2h4.8c0.1,0,0.2-0.1,0.2-0.2v-3.9"/>
	
		<linearGradient id="SVGID_3_" gradientUnits="userSpaceOnUse" x1="8.765" y1="31.535" x2="8.765" y2="36.1761" gradientTransform="matrix(1 0 0 -1 0 49.28)">
		<stop  offset="7.110000e-02" style="stop-color:#514E4E"/>
		<stop  offset="0.1573" style="stop-color:#000000"/>
		<stop  offset="0.2489" style="stop-color:#504D4D"/>
		<stop  offset="0.8144" style="stop-color:#333333"/>
		<stop  offset="0.8899" style="stop-color:#171717"/>
	</linearGradient>
	<path class="st3" d="M6.1,13.3v3.9c0,0.1,0.1,0.2,0.2,0.2h4.8c0.1,0,0.2-0.1,0.2-0.2v-3.9C11.4,13.3,6.1,13.3,6.1,13.3z"/>
	
		<linearGradient id="SVGID_4_" gradientUnits="userSpaceOnUse" x1="8.765" y1="31.875" x2="8.765" y2="35.4408" gradientTransform="matrix(1 0 0 -1 0 49.28)">
		<stop  offset="7.350000e-02" style="stop-color:#171717"/>
		<stop  offset="0.1596" style="stop-color:#0A0A0A"/>
		<stop  offset="0.2489" style="stop-color:#1F1F1F"/>
		<stop  offset="0.8183" style="stop-color:#212121"/>
		<stop  offset="0.8899" style="stop-color:#0D0D0D"/>
	</linearGradient>
	<path class="st4" d="M6.2,14v3c0,0.1,0.1,0.2,0.2,0.2h4.7c0.1,0,0.2-0.1,0.2-0.2V14C11.3,14,6.2,14,6.2,14z"/>
	<line class="st5" x1="5.6" y1="17.8" x2="29.2" y2="17.8"/>
	
		<linearGradient id="SVGID_5_" gradientUnits="userSpaceOnUse" x1="29.4649" y1="37.043" x2="5.7274" y2="49.6055" gradientTransform="matrix(1 0 0 -1 0 49.28)">
		<stop  offset="0" style="stop-color:#333333"/>
		<stop  offset="1" style="stop-color:#1A1A1A"/>
	</linearGradient>
	<path class="st6" d="M28.3,12.8H12c-0.2,0-0.4-0.2-0.4-0.4V9.6c0-0.2-0.2-0.4-0.4-0.4H6.5c-0.2,0-0.4-0.2-0.4-0.4V2.2
		c0-0.2,0.2-0.4,0.4-0.4h21.8c0.2,0,0.4,0.2,0.4,0.4v10.3C28.6,12.7,28.5,12.8,28.3,12.8z"/>
	<path class="st7" d="M6.1,8.9V2.2c0-0.2,0.2-0.4,0.4-0.4h21.8"/>
	<path class="st8" d="M28.3,12.8H12.1c-0.2,0-0.4-0.2-0.4-0.4V9.6c0-0.2-0.2-0.4-0.4-0.4H6.5"/>
	<path class="st8" d="M28.3,1.8c0.2,0,0.4,0.2,0.4,0.4v10.3"/>
	
		<linearGradient id="SVGID_6_" gradientUnits="userSpaceOnUse" x1="16.5714" y1="42.6287" x2="6.8074" y2="47.796" gradientTransform="matrix(1 0 0 -1 0 49.28)">
		<stop  offset="0" style="stop-color:#0F0F0F"/>
		<stop  offset="0.1032" style="stop-color:#080808"/>
		<stop  offset="0.532" style="stop-color:#242424"/>
		<stop  offset="0.7911" style="stop-color:#0A0A0A"/>
	</linearGradient>
	<rect x="6.9" y="2.5" class="st9" width="9.9" height="3.2"/>
	
		<radialGradient id="SVGID_7_" cx="7.6869" cy="33.78" r="1.4237" gradientTransform="matrix(1 0 0 -1 0 49.28)" gradientUnits="userSpaceOnUse">
		<stop  offset="0.2068" style="stop-color:#242424"/>
		<stop  offset="0.2437" style="stop-color:#353535"/>
		<stop  offset="0.309" style="stop-color:#4D4D4D"/>
		<stop  offset="0.3692" style="stop-color:#5C5C5C"/>
		<stop  offset="0.4191" style="stop-color:#616161"/>
		<stop  offset="0.5396" style="stop-color:#484848"/>
		<stop  offset="0.7333" style="stop-color:#262626"/>
		<stop  offset="0.8937" style="stop-color:#121212"/>
		<stop  offset="1" style="stop-color:#0A0A0A"/>
	</radialGradient>
	<circle class="st10" cx="7.7" cy="15.5" r="1.4"/>
	<polygon class="st11" points="8.9,15.3 7.9,15.3 7.9,14.9 7.5,14.9 7.5,15.3 6.5,15.3 6.5,15.7 7.5,15.7 7.5,16.1 7.9,16.1 
		7.9,15.7 8.9,15.7 	"/>
	
		<linearGradient id="SVGID_8_" gradientUnits="userSpaceOnUse" x1="5.5119" y1="37.9689" x2="11.4121" y2="37.9689" gradientTransform="matrix(1 0 0 -1 0 49.28)">
		<stop  offset="1.130000e-02" style="stop-color:#383231"/>
		<stop  offset="5.220000e-02" style="stop-color:#535150"/>
		<stop  offset="7.560000e-02" style="stop-color:#484545"/>
		<stop  offset="0.1138" style="stop-color:#171717"/>
		<stop  offset="0.1393" style="stop-color:#0F0F0F"/>
		<stop  offset="0.2043" style="stop-color:#1A1A1A"/>
		<stop  offset="0.2269" style="stop-color:#292929"/>
		<stop  offset="0.9046" style="stop-color:#424242"/>
	</linearGradient>
	<path class="st12" d="M5.5,9.6h5.6c0,0,0.2-0.1,0.2,0.2s0,0.4,0,0.4h-0.3v2.1h0.3v0.4c0,0,0,0.2-0.3,0.2s-5.5,0-5.5,0
		S5.5,9.6,5.5,9.6z"/>
	
		<linearGradient id="SVGID_9_" gradientUnits="userSpaceOnUse" x1="11.22" y1="36.7283" x2="11.22" y2="39.1055" gradientTransform="matrix(1 0 0 -1 0 49.28)">
		<stop  offset="6.160000e-02" style="stop-color:#0F0F0F"/>
		<stop  offset="0.532" style="stop-color:#242424"/>
		<stop  offset="0.8494" style="stop-color:#141414"/>
	</linearGradient>
	<rect x="11.1" y="10.2" class="st13" width="0.3" height="2.1"/>
</g>
<g id="レイヤー_6">
	<rect x="25.1" y="11.2" class="st14" width="0.4" height="0.4"/>
	<rect x="25.1" y="9.8" class="st14" width="0.4" height="0.4"/>
	<rect x="25.1" y="8.4" class="st14" width="0.4" height="0.4"/>
	<rect x="25.1" y="7" class="st14" width="0.4" height="0.3"/>
	<rect x="22.5" y="4.6" class="st14" width="0.7" height="0.3"/>
	<rect x="19.3" y="4.6" class="st14" width="0.7" height="0.3"/>
	<rect x="19.3" y="3.7" class="st14" width="0.7" height="0.3"/>
	<rect x="19.3" y="2.7" class="st14" width="0.7" height="0.3"/>
	<rect x="22.5" y="2.7" class="st14" width="0.7" height="0.3"/>
	<rect x="22.5" y="3.7" class="st14" width="0.7" height="0.3"/>
	<rect x="25.7" y="3.7" class="st14" width="0.7" height="0.3"/>
	<rect x="25.7" y="2.7" class="st14" width="0.7" height="0.3"/>
	<path class="st15" d="M24.2,6.2h-2.7c-0.1,0-0.2,0.1-0.2,0.2v2.3c0,0.1,0.1,0.2,0.2,0.2h2.7c0.1,0,0.2-0.1,0.2-0.2V6.4
		C24.4,6.3,24.3,6.2,24.2,6.2z M24.1,8.7h-2.5c-0.1,0-0.1-0.1-0.1-0.1V6.5c0-0.1,0-0.1,0.1-0.1h2.5c0.1,0,0.1,0.1,0.1,0.1v2.1
		C24.2,8.6,24.2,8.7,24.1,8.7z"/>
	<path class="st15" d="M24.2,9.5h-2.7c-0.1,0-0.2,0.1-0.2,0.2V12c0,0.1,0.1,0.2,0.2,0.2h2.7c0.1,0,0.2-0.1,0.2-0.2V9.7
		C24.4,9.6,24.3,9.5,24.2,9.5z M24.1,12h-2.5c-0.1,0-0.1-0.1-0.1-0.1V9.8c0-0.1,0-0.1,0.1-0.1h2.5c0.1,0,0.1,0.1,0.1,0.1v2.1
		C24.2,12,24.2,12,24.1,12z"/>
	
		<linearGradient id="SVGID_10_" gradientUnits="userSpaceOnUse" x1="21.5263" y1="39.613" x2="24.1513" y2="37.2692" gradientTransform="matrix(1 0 0 -1 0 49.28)">
		<stop  offset="7.350000e-02" style="stop-color:#171717"/>
		<stop  offset="0.3391" style="stop-color:#1F1F1F"/>
		<stop  offset="0.7217" style="stop-color:#212121"/>
		<stop  offset="0.9651" style="stop-color:#0D0D0D"/>
	</linearGradient>
	<path class="st16" d="M23.9,9.9h-2c-0.1,0-0.2,0.1-0.2,0.2v1.3c0,0.1,0.1,0.2,0.2,0.2h2c0.1,0,0.2-0.1,0.2-0.2v-1.3
		C24.1,10.1,24,9.9,23.9,9.9z"/>
	
		<linearGradient id="SVGID_11_" gradientUnits="userSpaceOnUse" x1="21.4664" y1="43.0466" x2="24.1102" y2="40.5904" gradientTransform="matrix(1 0 0 -1 0 49.28)">
		<stop  offset="7.350000e-02" style="stop-color:#171717"/>
		<stop  offset="0.3391" style="stop-color:#1F1F1F"/>
		<stop  offset="0.7217" style="stop-color:#212121"/>
		<stop  offset="0.9651" style="stop-color:#0D0D0D"/>
	</linearGradient>
	<path class="st17" d="M23.9,6.6h-2c-0.1,0-0.2,0.1-0.2,0.2v1.3c0,0.1,0.1,0.2,0.2,0.2h2c0.1,0,0.2-0.1,0.2-0.2V6.9
		C24.1,6.7,24,6.6,23.9,6.6z"/>
	<path class="st15" d="M20.7,6.2h-3.8c-0.1,0-0.2,0.1-0.2,0.2v2.3c0,0.1,0.1,0.2,0.2,0.2h3.8c0.1,0,0.2-0.1,0.2-0.2V6.4
		C20.9,6.3,20.8,6.2,20.7,6.2z M20.6,8.7h-3.6C17,8.7,17,8.6,17,8.6V6.5c0-0.1,0-0.1,0.1-0.1h3.6c0.1,0,0.1,0.1,0.1,0.1v2.1
		C20.7,8.6,20.7,8.7,20.6,8.7z"/>
	<path class="st15" d="M20.7,9.5h-3.8c-0.1,0-0.2,0.1-0.2,0.2V12c0,0.1,0.1,0.2,0.2,0.2h3.8c0.1,0,0.2-0.1,0.2-0.2V9.7
		C20.9,9.6,20.8,9.5,20.7,9.5z M20.6,12h-3.6C17,12,17,12,17,11.9V9.8c0-0.1,0-0.1,0.1-0.1h3.6c0.1,0,0.1,0.1,0.1,0.1v2.1
		C20.7,12,20.7,12,20.6,12z"/>
	<path class="st15" d="M16.2,6.2h-3.8c-0.1,0-0.2,0.1-0.2,0.2v2.3c0,0.1,0.1,0.2,0.2,0.2h3.8c0.1,0,0.2-0.1,0.2-0.2V6.4
		C16.4,6.3,16.3,6.2,16.2,6.2z M16.1,8.7h-3.6c-0.1,0-0.1-0.1-0.1-0.1V6.5c0-0.1,0.1-0.1,0.1-0.1h3.6c0.1,0,0.1,0.1,0.1,0.1v2.1
		C16.2,8.6,16.1,8.7,16.1,8.7z"/>
	<path class="st15" d="M16.2,9.5h-3.8c-0.1,0-0.2,0.1-0.2,0.2V12c0,0.1,0.1,0.2,0.2,0.2h3.8c0.1,0,0.2-0.1,0.2-0.2V9.7
		C16.4,9.6,16.3,9.5,16.2,9.5z M16.1,12h-3.6c-0.1,0-0.1-0.1-0.1-0.1V9.8c0-0.1,0.1-0.1,0.1-0.1h3.6c0.1,0,0.1,0.1,0.1,0.1v2.1
		C16.2,12,16.1,12,16.1,12z"/>
	<path class="st15" d="M11.6,6.2H7.8c-0.1,0-0.2,0.1-0.2,0.2v2.3c0,0.1,0.1,0.2,0.2,0.2h3.8c0.1,0,0.2-0.1,0.2-0.2V6.4
		C11.8,6.3,11.7,6.2,11.6,6.2z M11.5,8.7H8c-0.1,0-0.1-0.1-0.1-0.1V6.5c0-0.1,0.1-0.1,0.1-0.1h3.6c0.1,0,0.1,0.1,0.1,0.1v2.1
		C11.6,8.6,11.6,8.7,11.5,8.7z"/>
	
		<linearGradient id="SVGID_12_" gradientUnits="userSpaceOnUse" x1="9.735" y1="42.8899" x2="9.735" y2="40.5616" gradientTransform="matrix(1 0 0 -1 0 49.28)">
		<stop  offset="7.350000e-02" style="stop-color:#171717"/>
		<stop  offset="0.3391" style="stop-color:#1F1F1F"/>
		<stop  offset="0.7217" style="stop-color:#212121"/>
		<stop  offset="0.9651" style="stop-color:#0D0D0D"/>
	</linearGradient>
	<path class="st18" d="M11.3,6.6H8.2c-0.1,0-0.2,0.1-0.2,0.2v1.3c0,0.1,0.1,0.2,0.2,0.2h3.1c0.1,0,0.2-0.1,0.2-0.2V6.9
		C11.5,6.7,11.4,6.6,11.3,6.6z"/>
	
		<linearGradient id="SVGID_13_" gradientUnits="userSpaceOnUse" x1="14.285" y1="42.8649" x2="14.285" y2="40.6127" gradientTransform="matrix(1 0 0 -1 0 49.28)">
		<stop  offset="7.350000e-02" style="stop-color:#171717"/>
		<stop  offset="0.3391" style="stop-color:#1F1F1F"/>
		<stop  offset="0.7217" style="stop-color:#212121"/>
		<stop  offset="0.9651" style="stop-color:#0D0D0D"/>
	</linearGradient>
	<path class="st19" d="M15.8,6.6h-3.1c-0.1,0-0.2,0.1-0.2,0.2v1.3c0,0.1,0.1,0.2,0.2,0.2h3.1c0.1,0,0.2-0.1,0.2-0.2V6.9
		C16.1,6.7,15.9,6.6,15.8,6.6z"/>
	
		<linearGradient id="SVGID_14_" gradientUnits="userSpaceOnUse" x1="18.835" y1="42.8649" x2="18.835" y2="40.6114" gradientTransform="matrix(1 0 0 -1 0 49.28)">
		<stop  offset="7.350000e-02" style="stop-color:#171717"/>
		<stop  offset="0.3391" style="stop-color:#1F1F1F"/>
		<stop  offset="0.7217" style="stop-color:#212121"/>
		<stop  offset="0.9651" style="stop-color:#0D0D0D"/>
	</linearGradient>
	<path class="st20" d="M20.4,6.6h-3.1c-0.1,0-0.2,0.1-0.2,0.2v1.3c0,0.1,0.1,0.2,0.2,0.2h3.1c0.1,0,0.2-0.1,0.2-0.2V6.9
		C20.6,6.7,20.5,6.6,20.4,6.6z"/>
	
		<linearGradient id="SVGID_15_" gradientUnits="userSpaceOnUse" x1="7.52" y1="38.025" x2="10.136" y2="38.025" gradientTransform="matrix(1 0 0 -1 0 49.28)">
		<stop  offset="0" style="stop-color:#787777"/>
		<stop  offset="0.2533" style="stop-color:#303030"/>
		<stop  offset="0.437" style="stop-color:#525252"/>
		<stop  offset="0.7217" style="stop-color:#545454"/>
		<stop  offset="0.9651" style="stop-color:#212121"/>
	</linearGradient>
	<path class="st21" d="M9.1,10.9c-0.1,0-0.1,0-0.2-0.1H8.8c-0.1,0-0.2,0-0.3,0.1l-0.2,0.2l0,0l0,0l0,0h1.6l0,0v-0.1l0,0l0.2,0.1
		c0,0,0,0,0,0l-0.1,0l-0.2,0.1v-0.1H8.8l0,0l0,0L9,11.5c0.1,0.1,0.1,0.1,0.2,0.1c0,0,0.1,0,0.1,0h0.1l0,0v-0.1h0.3v0.3H9.4v-0.1H9.2
		c-0.1,0-0.2,0-0.3-0.1c0,0-0.1,0-0.1-0.1l0,0l-0.2-0.2l0,0l0,0c-0.1-0.1-0.2-0.1-0.3-0.1H7.9c0,0.1-0.1,0.1-0.1,0.1
		c0,0-0.1,0-0.1,0c-0.1,0-0.1,0-0.1,0s-0.1-0.1-0.1-0.1c0,0,0-0.1,0-0.1c0-0.1,0-0.1,0-0.1S7.6,11,7.7,11c0,0,0.1,0,0.1,0
		c0.1,0,0.1,0,0.1,0c0,0,0.1,0.1,0.1,0.1c0,0,0,0,0,0l0,0H8c0,0,0.1,0,0.1,0c0.1,0,0.1-0.1,0.2-0.1l0,0L8.3,11l0.1-0.1
		c0,0,0.1-0.1,0.1-0.1c0.1-0.1,0.2-0.1,0.3-0.1h0.1l0,0l0,0c0,0,0,0,0,0c0,0,0.1,0,0.1,0c0,0,0.1,0,0.1,0l0,0c0,0,0,0,0,0
		c0,0,0,0,0,0l0,0c0,0,0,0,0,0.1S9.2,10.9,9.1,10.9C9.2,10.9,9.1,10.9,9.1,10.9z"/>
	<polygon class="st15" points="23.5,7.4 23.5,7.7 22.9,7.1 22.9,8.2 22.8,8.2 22.8,7.1 22.2,7.7 22.2,7.4 22.9,6.8 	"/>
	<polygon class="st15" points="22.9,11.2 23.5,10.7 23.5,10.9 22.9,11.5 22.2,10.9 22.2,10.7 22.8,11.2 22.8,10.2 22.9,10.2 	"/>
	<rect x="63" y="27.8" class="st22" width="0.4" height="1.1"/>
	<rect x="63" y="28.1" class="st23" width="0.4" height="0.5"/>
	<rect x="63.3" y="28.1" class="st24" width="0.2" height="0.5"/>
	<rect x="41.6" y="26.7" class="st22" width="1.1" height="0.4"/>
	<rect x="41.9" y="26.7" class="st23" width="0.5" height="0.4"/>
	<rect x="41.9" y="26.5" class="st24" width="0.5" height="0.2"/>
	<rect x="63" y="40.8" class="st22" width="0.4" height="1.1"/>
	<rect x="63" y="41.1" class="st23" width="0.4" height="0.5"/>
	<rect x="63.3" y="41.1" class="st24" width="0.2" height="0.5"/>
	<rect x="40.4" y="28" class="st25" width="21.1" height="17.1"/>
	<rect x="62.2" y="29.2" class="st26" width="0.2" height="14.3"/>
	<polygon class="st27" points="63,27.2 61.4,27.2 61.4,45.5 62.2,45.5 62.2,29.2 63,29.2 	"/>
	<rect x="42" y="28" class="st28" width="19.5" height="0.7"/>
	<rect x="42" y="41.2" class="st29" width="19.5" height="0.3"/>
	<polygon class="st29" points="61.4,28.7 62.2,29.2 63,29.2 63,27.2 61.4,27.2 	"/>
	<polygon class="st29" points="61.4,40.1 62.2,39.9 62.2,40.5 63,40.5 63,42.4 61.4,42.4 	"/>
	<rect x="62.4" y="33.7" class="st30" width="0.8" height="6.7"/>
	<rect x="63.2" y="35.7" class="st31" width="0.8" height="2.7"/>
	<rect x="63.9" y="35.9" class="st32" width="4.7" height="2.2"/>
	<rect x="64.9" y="35.6" class="st22" width="3.8" height="0.3"/>
	<path class="st33" d="M56.4,46.1l0.4,0.2h2.7v-0.2c-0.2-0.1-0.4-0.4-0.3-0.7c0-0.3-0.2-0.6-0.5-0.8l-2.3-0.8
		c-0.3-0.2-0.7-0.5-0.9-0.8c-0.2-0.2-0.6-0.3-0.9-0.3h-4.6c-0.3,0-0.6,0.1-0.9,0.3c-0.3,0.3-0.6,0.6-0.9,0.8l-2.3,0.8
		c-0.3,0.1-0.5,0.4-0.5,0.8c0,0.3-0.1,0.5-0.3,0.7v0.2h2.7l0.4-0.2H56.4L56.4,46.1z"/>
	<polygon class="st34" points="56.8,46.1 56.5,46 47.8,46 47.4,46.1 44.8,46.1 44.8,46.5 47.4,46.5 47.8,46.4 56.5,46.4 56.5,46.4 
		56.5,46.4 56.8,46.5 59.5,46.5 59.5,46.1 	"/>
	<rect x="39.5" y="27.2" class="st35" width="4.2" height="18.9"/>
	<polygon class="st36" points="38.2,44.2 39.5,46.1 39.5,27.2 38.2,29.2 	"/>
	<rect x="37.7" y="29.2" class="st37" width="0.6" height="15.1"/>
	<path class="st29" d="M52.9,38.9c0,0.7-0.5,1.2-1.2,1.2h-8.6c-0.7,0-1.2-0.5-1.2-1.2v-8.3c0-0.6,0.5-1.2,1.2-1.2h8.6
		c0.7,0,1.2,0.5,1.2,1.2L52.9,38.9L52.9,38.9z"/>
	<path class="st29" d="M52.9,38.6c0,0.7-0.5,1.2-1.2,1.2h-8.6c-0.7,0-1.2-0.5-1.2-1.2v-8c0-0.6,0.5-1.2,1.2-1.2h8.6
		c0.7,0,1.2,0.5,1.2,1.2L52.9,38.6L52.9,38.6z"/>
	<path class="st38" d="M51.7,29.6h-8.5c-0.3,0-0.6,0.3-0.6,0.6v8.3c0,0.3,0.3,0.6,0.6,0.6h3c0.3-0.1,0.6-0.4,0.6-0.7l0,0
		c0.3-0.3,0.7-0.4,1.1-0.1c0,0,0.1,0.1,0.1,0.1l0,0c0.1,0.3,0.3,0.6,0.6,0.7h3c0.3,0,0.6-0.3,0.6-0.6v-8.3
		C52.2,29.9,52,29.6,51.7,29.6z"/>
	<path class="st39" d="M56.3,46c-0.2-0.1-0.4-0.3-0.4-0.5c-0.1-0.3-0.3-1.7-0.3-1.7c-0.1-0.6-0.6-1-1.1-0.9h-4.6
		c-0.6,0-1.1,0.4-1.1,0.9c0,0-0.2,1.4-0.3,1.7c0,0.2-0.2,0.4-0.4,0.5H56.3z"/>
	<polygon class="st39" points="41.6,27.1 43.7,27.1 43.7,27.2 41.1,27.2 	"/>
	<path class="st27" d="M43.7,42.6h-2.3c-0.2,0-0.3-0.1-0.4-0.3v-0.9c0-0.2,0.2-0.3,0.4-0.3h2.3V42.6z"/>
	<path class="st40" d="M43.7,42.6h-1.9c0,0-0.4,0-0.4-0.2v-0.7c0-0.2,0.4-0.2,0.4-0.2h1.9V42.6z"/>
	<circle class="st41" cx="47.4" cy="38.9" r="0.4"/>
	<polygon class="st42" points="41.6,42.2 41.6,41.7 42,41.5 42.5,41.7 42.5,42.2 42,42.4 	"/>
	<polygon class="st42" points="41.6,42.4 41.6,41.9 42,41.7 42.5,41.9 42.5,42.4 42,42.6 	"/>
	<ellipse class="st42" cx="42" cy="42.2" rx="0.2" ry="0.2"/>
	<path class="st43" d="M64.9,35.6v0.3h-1v-0.2h-0.8v-2h-0.8v-4.5H63v-0.3h0.4v-0.3h0.2v-0.5h-0.2v-0.3H63v-0.5h-1.5v0.8H43.7v-1h-1
		v-0.4h-0.3v-0.2h-0.5v0.2h-0.3v0.4l-0.5,0.2h-1.6l-1.2,2h-0.6v15.1h0.6v-0.1l1.2,2h4.2v-1h1.5c0,0.1-0.1,0.2-0.1,0.3
		c0,0.3-0.1,0.5-0.3,0.7v0.4h2.7l0.3-0.2h8.7l0.3,0.2h2.7v-0.4c-0.2-0.1-0.4-0.4-0.3-0.7c0-0.1,0-0.2-0.1-0.3h2.4v0.3h0.8v-2h0.2v-1
		h0.5v-0.5h0.4v-0.3h0.2v-0.5h-0.2v-0.3h-0.4v-0.3h-0.5v-0.1h0.8v-2h0.8v-0.2h4.7v-2.5L64.9,35.6L64.9,35.6z"/>
	<rect x="6.2" y="21.6" class="st44" width="22.6" height="0.3"/>
	<path class="st45" d="M20.6,12h-3.6C17,12,17,12,17,11.9V9.8c0-0.1,0-0.1,0.1-0.1h3.6c0.1,0,0.1,0.1,0.1,0.1v2.1
		C20.7,12,20.7,12,20.6,12z"/>
	
		<linearGradient id="SVGID_16_" gradientUnits="userSpaceOnUse" x1="18.835" y1="39.5399" x2="18.835" y2="37.3148" gradientTransform="matrix(1 0 0 -1 0 49.28)">
		<stop  offset="7.350000e-02" style="stop-color:#171717"/>
		<stop  offset="0.3391" style="stop-color:#1F1F1F"/>
		<stop  offset="0.7217" style="stop-color:#212121"/>
		<stop  offset="0.9651" style="stop-color:#0D0D0D"/>
	</linearGradient>
	<path class="st46" d="M20.4,10h-3.1c-0.1,0-0.2,0.1-0.2,0.2v1.3c0,0.1,0.1,0.2,0.2,0.2h3.1c0.1,0,0.2-0.1,0.2-0.2v-1.3
		C20.6,10.1,20.5,10,20.4,10z"/>
	<path class="st47" d="M16.1,12h-3.6c-0.1,0-0.1-0.1-0.1-0.1V9.8c0-0.1,0.1-0.1,0.1-0.1h3.6c0.1,0,0.1,0.1,0.1,0.1v2.1
		C16.2,12,16.1,12,16.1,12z"/>
	
		<linearGradient id="SVGID_17_" gradientUnits="userSpaceOnUse" x1="14.285" y1="39.5399" x2="14.285" y2="37.2648" gradientTransform="matrix(1 0 0 -1 0 49.28)">
		<stop  offset="7.350000e-02" style="stop-color:#171717"/>
		<stop  offset="0.3391" style="stop-color:#1F1F1F"/>
		<stop  offset="0.7217" style="stop-color:#212121"/>
		<stop  offset="0.9651" style="stop-color:#0D0D0D"/>
	</linearGradient>
	<path class="st48" d="M15.8,10h-3.1c-0.1,0-0.2,0.1-0.2,0.2v1.3c0,0.1,0.1,0.2,0.2,0.2h3.1c0.1,0,0.2-0.1,0.2-0.2v-1.3
		C16.1,10.1,15.9,10,15.8,10z"/>
</g>
</svg>
