<svg xmlns="http://www.w3.org/2000/svg" width="74" height="48" viewBox="0 0 74 48"><title>got2000n</title><rect width="74" height="48" fill="#fff"/><polygon points="71.702 10.267 71.702 6.442 70.206 6.442 70.206 1.612 66.768 1.612 66.768 0.636 62.943 0.636 62.943 1.612 42.766 1.612 42.766 0.636 38.941 0.636 38.941 1.612 12.111 1.612 12.111 0.636 8.286 0.636 8.286 1.612 4.961 1.612 4.961 5.999 3.464 5.999 3.464 9.824 4.961 9.824 4.961 38.948 3.464 38.948 3.464 42.773 4.961 42.773 4.961 46.432 8.286 46.432 8.286 47.408 12.111 47.408 12.111 46.432 32.178 46.432 32.178 47.408 36.003 47.408 36.003 46.432 62.943 46.432 62.943 47.408 66.768 47.408 66.768 46.432 70.206 46.432 70.206 43.272 71.702 43.272 71.702 39.447 70.206 39.447 70.206 10.267 71.702 10.267" fill="#888"/><circle cx="69.19402" cy="3.60893" r="0.52679" fill="#717071"/><circle cx="69.19402" cy="44.63484" r="0.52666" fill="#717071"/><circle cx="7.4085" cy="5.36148" r="0.52658" fill="#717071"/><circle cx="7.68574" cy="3.17195" r="0.12947" fill="#3e3a39"/><circle cx="7.4085" cy="42.68231" r="0.52662" fill="#717071"/><circle cx="7.68574" cy="44.87187" r="0.12942" fill="#3e3a39"/><polygon points="64.358 2.111 64.358 1.612 10.809 1.612 10.809 2.111 9.885 2.111 9.885 45.246 10.809 45.246 10.809 45.744 64.358 45.744 64.358 45.246 65.281 45.246 65.281 2.111 64.358 2.111" fill="#595757"/><rect x="10.97948" y="2.52045" width="53.20653" height="42.157" fill="#717071"/><rect x="11.54732" y="3.47659" width="52.07086" height="40.79061" fill="#3db270"/><rect x="12.70023" y="5.88794" width="49.76522" height="37.3622" fill="#eeeeef"/><polygon points="71.702 10.267 71.702 6.442 70.206 6.442 70.206 1.612 66.768 1.612 66.768 0.636 62.943 0.636 62.943 1.612 42.766 1.612 42.766 0.636 38.941 0.636 38.941 1.612 12.111 1.612 12.111 0.636 8.286 0.636 8.286 1.612 4.961 1.612 4.961 5.999 3.464 5.999 3.464 9.824 4.961 9.824 4.961 38.948 3.464 38.948 3.464 42.773 4.961 42.773 4.961 46.432 8.286 46.432 8.286 47.408 12.111 47.408 12.111 46.432 32.178 46.432 32.178 47.408 36.003 47.408 36.003 46.432 62.943 46.432 62.943 47.408 66.768 47.408 66.768 46.432 70.206 46.432 70.206 43.272 71.702 43.272 71.702 39.447 70.206 39.447 70.206 10.267 71.702 10.267" fill="none" stroke="#231815" stroke-linecap="round" stroke-linejoin="round" stroke-width="0.2475"/></svg>