<svg xmlns="http://www.w3.org/2000/svg" width="74" height="48" viewBox="0 0 74 48"><title>got2000w</title><rect width="74" height="48" fill="#fff"/><rect x="7.595" y="0.61" width="58.81" height="46.781" fill="#bfbfbf"/><rect x="7.805" y="1.809" width="58.39" height="44.382" fill="#fff"/><rect x="14.227" y="5.88" width="48.222" height="36.674" fill="#1f1f1f"/><rect x="15.101" y="6.769" width="46.474" height="34.895" fill="#9bc8df" stroke="#1a1a1a" stroke-width="0.071"/><rect x="9.32" y="23.781" width="1.887" height="0.219" fill="#9bc8df" stroke="#1a1a1a" stroke-width="0.071"/><path d="M12.074,9.424a0.244,0.244,0,0,1-.241.246H9.183a0.244,0.244,0,0,1-.241-0.246V6.775a0.244,0.244,0,0,1,.241-0.245h2.65a0.244,0.244,0,0,1,.241.245V9.424Z" fill="#bfbfbf"/><path d="M12.012,9.583L9.058,6.57A0.238,0.238,0,0,0,9,6.615l2.954,3.013A0.244,0.244,0,0,0,12.012,9.583Z" fill="#999"/><path d="M9.053,9.634l2.954-3.014a0.235,0.235,0,0,0-.044-0.056L9.009,9.578A0.247,0.247,0,0,0,9.053,9.634Z" fill="#999"/><ellipse cx="10.508" cy="8.099" rx="1.026" ry="1.047" fill="#0d0d0d"/><ellipse cx="10.508" cy="8.1" rx="0.956" ry="0.976" fill="#303030"/><rect x="7.805" y="3.726" width="58.39" height="0.193" fill="#b50005"/><rect x="7.595" y="0.61" width="58.81" height="46.781" fill="none" stroke="#000" stroke-linecap="round" stroke-linejoin="round" stroke-width="0.214"/></svg>