<svg xmlns="http://www.w3.org/2000/svg" xmlns:xlink="http://www.w3.org/1999/xlink" width="74" height="48" viewBox="0 0 74 48"><defs><linearGradient id="a" x1="5.645" y1="24.03" x2="68.355" y2="24.03" gradientUnits="userSpaceOnUse"><stop offset="0.006" stop-color="#383536"/><stop offset="0.528" stop-color="#36302f"/><stop offset="1" stop-color="#291f20"/></linearGradient><pattern id="b" width="71.999" height="72" patternTransform="translate(-107.748 -104.375) scale(0.007 0.007)" patternUnits="userSpaceOnUse" viewBox="0 0 71.999 72"><rect width="71.999" height="72" fill="none"/><line x1="-1" y1="9.625" x2="21.688" y2="9.625" fill="none" stroke="#c9c9c9" stroke-linecap="square" stroke-width="0.5"/><line x1="11.938" y1="3.875" x2="55.687" y2="3.875" fill="none" stroke="#c9c9c9" stroke-linecap="square" stroke-width="0.5"/><line x1="16.188" y1="9.625" x2="16.188" y2="3.875" fill="none" stroke="#c9c9c9" stroke-linecap="square" stroke-width="0.5"/><line x1="34.438" y1="5.625" x2="65.937" y2="5.625" fill="none" stroke="#c9c9c9" stroke-linecap="square" stroke-width="0.5"/><line x1="20.438" y1="7.375" x2="59.937" y2="7.375" fill="none" stroke="#c9c9c9" stroke-linecap="square" stroke-width="0.5"/><line x1="48.937" y1="16.875" x2="69.186" y2="16.875" fill="none" stroke="#c9c9c9" stroke-linecap="square" stroke-width="0.5"/><line x1="62.187" y1="16.875" x2="62.187" y2="13.375" fill="none" stroke="#c9c9c9" stroke-linecap="square" stroke-width="0.5"/><line x1="70.686" y1="13.875" x2="64.437" y2="13.875" fill="none" stroke="#c9c9c9" stroke-linecap="square" stroke-width="0.5"/><line x1="6.188" y1="13.875" x2="-1" y2="13.875" fill="none" stroke="#c9c9c9" stroke-linecap="square" stroke-width="0.5"/><line x1="4.938" y1="16.875" x2="29.188" y2="16.875" fill="none" stroke="#c9c9c9" stroke-linecap="square" stroke-width="0.5"/><line x1="38.188" y1="9.625" x2="71.186" y2="9.625" fill="none" stroke="#c9c9c9" stroke-linecap="square" stroke-width="0.5"/><line x1="18.938" y1="13.875" x2="43.187" y2="13.875" fill="none" stroke="#c9c9c9" stroke-linecap="square" stroke-width="0.5"/><line x1="51.437" y1="22.125" x2="72.999" y2="22.125" fill="none" stroke="#c9c9c9" stroke-linecap="square" stroke-width="0.5"/><line x1="51.187" y1="23.375" x2="72.999" y2="23.375" fill="none" stroke="#c9c9c9" stroke-linecap="square" stroke-width="0.5"/><line x1="7.188" y1="22.125" x2="25.938" y2="22.125" fill="none" stroke="#c9c9c9" stroke-linecap="square" stroke-width="0.5"/><line x1="6.938" y1="23.375" x2="19.438" y2="23.375" fill="none" stroke="#c9c9c9" stroke-linecap="square" stroke-width="0.5"/><line x1="21.688" y1="19.125" x2="45.937" y2="19.125" fill="none" stroke="#c9c9c9" stroke-linecap="square" stroke-width="0.5"/><line x1="33.438" y1="25.375" x2="53.687" y2="25.375" fill="none" stroke="#c9c9c9" stroke-linecap="square" stroke-width="0.5"/><line x1="46.687" y1="25.375" x2="46.687" y2="21.875" fill="none" stroke="#c9c9c9" stroke-linecap="square" stroke-width="0.5"/><line x1="-1" y1="25.375" x2="22.938" y2="25.375" fill="none" stroke="#c9c9c9" stroke-linecap="square" stroke-width="0.5"/><line x1="3.938" y1="25.375" x2="3.938" y2="21.875" fill="none" stroke="#c9c9c9" stroke-linecap="square" stroke-width="0.5"/><line x1="57.937" y1="25.375" x2="70.436" y2="25.375" fill="none" stroke="#c9c9c9" stroke-linecap="square" stroke-width="0.5"/><line x1="29.688" y1="22.125" x2="33.438" y2="22.125" fill="none" stroke="#c9c9c9" stroke-linecap="square" stroke-width="0.5"/><line x1="-1" y1="34.625" x2="29.688" y2="34.625" fill="none" stroke="#c9c9c9" stroke-linecap="square" stroke-width="0.5"/><line x1="19.938" y1="28.875" x2="63.687" y2="28.875" fill="none" stroke="#c9c9c9" stroke-linecap="square" stroke-width="0.5"/><line x1="24.188" y1="34.625" x2="24.188" y2="28.875" fill="none" stroke="#c9c9c9" stroke-linecap="square" stroke-width="0.5"/><line x1="42.437" y1="30.625" x2="72.999" y2="30.625" fill="none" stroke="#c9c9c9" stroke-linecap="square" stroke-width="0.5"/><line x1="28.438" y1="32.375" x2="67.937" y2="32.375" fill="none" stroke="#c9c9c9" stroke-linecap="square" stroke-width="0.5"/><line x1="56.937" y1="41.875" x2="72.999" y2="41.875" fill="none" stroke="#c9c9c9" stroke-linecap="square" stroke-width="0.5"/><line x1="70.186" y1="41.875" x2="70.186" y2="38.375" fill="none" stroke="#c9c9c9" stroke-linecap="square" stroke-width="0.5"/><line x1="55.937" y1="38.875" x2="53.937" y2="38.875" fill="none" stroke="#c9c9c9" stroke-linecap="square" stroke-width="0.5"/><line x1="14.188" y1="38.875" x2="7.938" y2="38.875" fill="none" stroke="#c9c9c9" stroke-linecap="square" stroke-width="0.5"/><line x1="12.938" y1="41.875" x2="37.188" y2="41.875" fill="none" stroke="#c9c9c9" stroke-linecap="square" stroke-width="0.5"/><line x1="46.687" y1="34.625" x2="72.999" y2="34.625" fill="none" stroke="#c9c9c9" stroke-linecap="square" stroke-width="0.5"/><line x1="26.938" y1="38.875" x2="51.187" y2="38.875" fill="none" stroke="#c9c9c9" stroke-linecap="square" stroke-width="0.5"/><line x1="59.437" y1="47.125" x2="72.999" y2="47.125" fill="none" stroke="#c9c9c9" stroke-linecap="square" stroke-width="0.5"/><line x1="59.187" y1="48.375" x2="72.999" y2="48.375" fill="none" stroke="#c9c9c9" stroke-linecap="square" stroke-width="0.5"/><line x1="15.188" y1="47.125" x2="33.938" y2="47.125" fill="none" stroke="#c9c9c9" stroke-linecap="square" stroke-width="0.5"/><line x1="14.938" y1="48.375" x2="27.438" y2="48.375" fill="none" stroke="#c9c9c9" stroke-linecap="square" stroke-width="0.5"/><line x1="29.688" y1="44.125" x2="53.937" y2="44.125" fill="none" stroke="#c9c9c9" stroke-linecap="square" stroke-width="0.5"/><line x1="41.437" y1="50.375" x2="61.687" y2="50.375" fill="none" stroke="#c9c9c9" stroke-linecap="square" stroke-width="0.5"/><line x1="54.687" y1="50.375" x2="54.687" y2="46.875" fill="none" stroke="#c9c9c9" stroke-linecap="square" stroke-width="0.5"/><line x1="-1" y1="50.375" x2="30.938" y2="50.375" fill="none" stroke="#c9c9c9" stroke-linecap="square" stroke-width="0.5"/><line x1="11.938" y1="50.375" x2="11.938" y2="46.875" fill="none" stroke="#c9c9c9" stroke-linecap="square" stroke-width="0.5"/><line x1="65.937" y1="50.375" x2="72.999" y2="50.375" fill="none" stroke="#c9c9c9" stroke-linecap="square" stroke-width="0.5"/><line x1="37.688" y1="47.125" x2="41.437" y2="47.125" fill="none" stroke="#c9c9c9" stroke-linecap="square" stroke-width="0.5"/><line x1="-1" y1="59.125" x2="1.688" y2="59.125" fill="none" stroke="#c9c9c9" stroke-linecap="square" stroke-width="0.5"/><line x1="-1" y1="53.375" x2="35.688" y2="53.375" fill="none" stroke="#c9c9c9" stroke-linecap="square" stroke-width="0.5"/><line x1="14.438" y1="55.125" x2="45.937" y2="55.125" fill="none" stroke="#c9c9c9" stroke-linecap="square" stroke-width="0.5"/><line x1="1.75" y1="56.875" x2="39.937" y2="56.875" fill="none" stroke="#c9c9c9" stroke-linecap="square" stroke-width="0.5"/><line x1="28.938" y1="66.375" x2="49.187" y2="66.375" fill="none" stroke="#c9c9c9" stroke-linecap="square" stroke-width="0.5"/><line x1="42.187" y1="66.375" x2="42.187" y2="62.875" fill="none" stroke="#c9c9c9" stroke-linecap="square" stroke-width="0.5"/><line x1="51.687" y1="63.375" x2="45.437" y2="63.375" fill="none" stroke="#c9c9c9" stroke-linecap="square" stroke-width="0.5"/><line x1="9.188" y1="41.875" x2="-1" y2="41.875" fill="none" stroke="#c9c9c9" stroke-linecap="square" stroke-width="0.5"/><line x1="-1" y1="66.375" x2="9.188" y2="66.375" fill="none" stroke="#c9c9c9" stroke-linecap="square" stroke-width="0.5"/><line x1="18.688" y1="59.125" x2="51.687" y2="59.125" fill="none" stroke="#c9c9c9" stroke-linecap="square" stroke-width="0.5"/><line x1="-1" y1="63.375" x2="23.188" y2="63.375" fill="none" stroke="#c9c9c9" stroke-linecap="square" stroke-width="0.5"/><line x1="58.937" y1="59.125" x2="72.999" y2="59.125" fill="none" stroke="#c9c9c9" stroke-linecap="square" stroke-width="0.5"/><line x1="37.438" y1="68.625" x2="61.437" y2="68.625" fill="none" stroke="#c9c9c9" stroke-linecap="square" stroke-width="0.5"/><line x1="62.437" y1="63.375" x2="72.999" y2="63.375" fill="none" stroke="#c9c9c9" stroke-linecap="square" stroke-width="0.5"/><line x1="1.688" y1="68.625" x2="25.938" y2="68.625" fill="none" stroke="#c9c9c9" stroke-linecap="square" stroke-width="0.5"/><line x1="29.438" y1="73.625" x2="29.438" y2="70.125" fill="none" stroke="#c9c9c9" stroke-linecap="square" stroke-width="0.5"/><line x1="62.437" y1="54.875" x2="72.999" y2="54.875" fill="none" stroke="#c9c9c9" stroke-linecap="square" stroke-width="0.5"/><line x1="65.187" y1="68.625" x2="68.936" y2="68.625" fill="none" stroke="#c9c9c9" stroke-linecap="square" stroke-width="0.5"/><line x1="16.188" y1="1.625" x2="36.438" y2="1.625" fill="none" stroke="#c9c9c9" stroke-linecap="square" stroke-width="0.5"/><line x1="29.438" y1="1.625" x2="29.438" y2="-1.875" fill="none" stroke="#c9c9c9" stroke-linecap="square" stroke-width="0.5"/><line x1="2.688" y1="4.125" x2="6.438" y2="4.125" fill="none" stroke="#c9c9c9" stroke-linecap="square" stroke-width="0.5"/></pattern><linearGradient id="c" x1="17.998" y1="43.463" x2="34.308" y2="43.463" gradientUnits="userSpaceOnUse"><stop offset="0.006" stop-color="#363234"/><stop offset="0.528" stop-color="#676665"/><stop offset="1" stop-color="#514d4f"/></linearGradient><linearGradient id="d" x1="18.103" y1="43.463" x2="34.155" y2="43.463" gradientUnits="userSpaceOnUse"><stop offset="0.006" stop-color="#383536"/><stop offset="0.528" stop-color="#4e4b4b"/><stop offset="1" stop-color="#291f20"/></linearGradient><linearGradient id="e" x1="35.292" y1="43.463" x2="36.283" y2="43.463" gradientUnits="userSpaceOnUse"><stop offset="0.006" stop-color="#5d5c5f"/><stop offset="0.528" stop-color="#727171"/><stop offset="1" stop-color="#514d4f"/></linearGradient><linearGradient id="f" x1="76.143" y1="84.789" x2="76.829" y2="84.789" gradientTransform="translate(112.273 128.252) rotate(180)" xlink:href="#d"/><linearGradient id="g" x1="8.949" y1="21.486" x2="64.793" y2="21.486" gradientUnits="userSpaceOnUse"><stop offset="0.006" stop-color="#363234"/><stop offset="0.496" stop-color="#777676"/><stop offset="0.608" stop-color="#727171"/><stop offset="0.744" stop-color="#646262"/><stop offset="0.893" stop-color="#4e494b"/><stop offset="1" stop-color="#393335"/></linearGradient></defs><title>got2000s_w</title><rect width="74" height="48" fill="#fff"/><rect x="5.645" y="0.422" width="62.71" height="47.215" rx="0.329" ry="0.329" stroke="#231815" stroke-width="0.29" fill="url(#a)"/><rect x="5.645" y="0.365" width="62.71" height="40.926" rx="0.329" ry="0.329" fill="#bebfbf"/><rect x="5.645" y="0.365" width="62.71" height="40.926" rx="0.329" ry="0.329" fill="url(#b)"/><path d="M68.026,41.436H5.974A0.475,0.475,0,0,1,5.5,40.962V0.695A0.475,0.475,0,0,1,5.974.22H68.026A0.475,0.475,0,0,1,68.5.695V40.962A0.475,0.475,0,0,1,68.026,41.436ZM5.974,0.51A0.184,0.184,0,0,0,5.79.695V40.962a0.184,0.184,0,0,0,.184.184H68.026a0.184,0.184,0,0,0,.184-0.184V0.695A0.184,0.184,0,0,0,68.026.51H5.974Z" fill="#231815"/><rect x="17.878" y="41.48" width="19.594" height="4.184" fill="#464342"/><rect x="17.878" y="41.48" width="19.34" height="3.965" fill="#231815"/><rect x="17.998" y="41.563" width="16.31" height="3.799" fill="url(#c)"/><rect x="18.103" y="41.706" width="16.052" height="3.514" fill="url(#d)"/><rect x="35.292" y="41.563" width="0.991" height="3.799" fill="url(#e)"/><rect x="35.445" y="41.706" width="0.686" height="3.514" fill="url(#f)"/><path d="M64.271,4.877H9.471a0.523,0.523,0,0,0-.522.522V37.573a0.523,0.523,0,0,0,.522.522h54.8a0.523,0.523,0,0,0,.522-0.522V5.4A0.523,0.523,0,0,0,64.271,4.877Zm0.136,32.7a0.136,0.136,0,0,1-.136.136H9.471a0.136,0.136,0,0,1-.136-0.136V5.4a0.136,0.136,0,0,1,.136-0.136h54.8a0.136,0.136,0,0,1,.136.136V37.573Z" fill="url(#g)"/><rect x="9.336" y="5.264" width="55.07" height="32.444" rx="0.136" ry="0.136" fill="#98c3d8"/><path d="M58,2.464V2.939a0.122,0.122,0,0,0,.122.122h0.885V2.63H58.5V2.773h0.216V2.918H58.287V2.485h0.719V2.343H58.121A0.123,0.123,0,0,0,58,2.464" fill="#231815"/><polygon points="61.126 2.343 60.119 2.343 60.119 2.485 60.478 2.485 60.478 3.061 60.766 3.061 60.766 2.485 61.126 2.485 61.126 2.343" fill="#231815"/><path d="M62.232,2.162H61.126V2.341h0.9V2.522H61.279a0.154,0.154,0,0,0-.153.153V3.061h1.26V2.882h-0.9V2.7h0.746a0.153,0.153,0,0,0,.154-0.153V2.315a0.154,0.154,0,0,0-.154-0.153" fill="#231815"/><path d="M59.942,2.343H59.181a0.123,0.123,0,0,0-.122.122V2.939a0.122,0.122,0,0,0,.122.122h0.761a0.122,0.122,0,0,0,.123-0.122V2.465a0.123,0.123,0,0,0-.123-0.122m-0.165.575H59.346V2.485h0.432V2.918Z" fill="#231815"/><path d="M63.608,2.162H62.746L62.5,2.407v0.5a0.153,0.153,0,0,0,.153.153h0.863l0.245-.245v-0.5a0.154,0.154,0,0,0-.154-0.153m-0.207.72h-0.54V2.341H63.4V2.882Z" fill="#231815"/><path d="M64.982,2.162H64.121l-0.245.245v0.5a0.153,0.153,0,0,0,.153.153h0.862l0.244-.245v-0.5a0.154,0.154,0,0,0-.154-0.153m-0.206.72h-0.54V2.341h0.54V2.882Z" fill="#231815"/><path d="M66.357,2.162H65.5l-0.244.245v0.5a0.153,0.153,0,0,0,.153.153h0.863l0.244-.245v-0.5a0.154,0.154,0,0,0-.154-0.153m-0.206.72h-0.54V2.341h0.54V2.882Z" fill="#231815"/><path d="M58,2.464V2.939a0.122,0.122,0,0,0,.122.122h0.885V2.63H58.5V2.773h0.216V2.918H58.287V2.485h0.719V2.343H58.121A0.123,0.123,0,0,0,58,2.464" fill="#231815"/><polygon points="61.126 2.343 60.119 2.343 60.119 2.485 60.478 2.485 60.478 3.061 60.766 3.061 60.766 2.485 61.126 2.485 61.126 2.343" fill="#231815"/><path d="M62.232,2.162H61.126V2.341h0.9V2.522H61.279a0.154,0.154,0,0,0-.153.153V3.061h1.26V2.882h-0.9V2.7h0.746a0.153,0.153,0,0,0,.154-0.153V2.315a0.154,0.154,0,0,0-.154-0.153" fill="#231815"/><path d="M59.942,2.343H59.181a0.123,0.123,0,0,0-.122.122V2.939a0.122,0.122,0,0,0,.122.122h0.761a0.122,0.122,0,0,0,.123-0.122V2.465a0.123,0.123,0,0,0-.123-0.122m-0.165.575H59.346V2.485h0.432V2.918Z" fill="#231815"/><path d="M63.608,2.162H62.746L62.5,2.407v0.5a0.153,0.153,0,0,0,.153.153h0.863l0.245-.245v-0.5a0.154,0.154,0,0,0-.154-0.153m-0.207.72h-0.54V2.341H63.4V2.882Z" fill="#231815"/><path d="M64.982,2.162H64.121l-0.245.245v0.5a0.153,0.153,0,0,0,.153.153h0.862l0.244-.245v-0.5a0.154,0.154,0,0,0-.154-0.153m-0.206.72h-0.54V2.341h0.54V2.882Z" fill="#231815"/><path d="M66.357,2.162H65.5l-0.244.245v0.5a0.153,0.153,0,0,0,.153.153h0.863l0.244-.245v-0.5a0.154,0.154,0,0,0-.154-0.153m-0.206.72h-0.54V2.341h0.54V2.882Z" fill="#231815"/><rect x="5.788" y="3.366" width="62.42" height="0.314" fill="#ad2124"/><polygon points="7.919 3.122 7.09 3.122 7.504 2.405 8.333 2.405 7.919 3.122" fill="#231815"/><polygon points="8.747 3.122 9.576 3.122 9.162 2.405 8.333 2.405 8.747 3.122" fill="#231815"/><polygon points="8.747 1.687 8.333 0.969 7.919 1.687 8.333 2.405 8.747 1.687" fill="#231815"/><polygon points="9.948 2.817 10.28 2.817 10.28 2.696 9.948 2.696 9.948 2.548 10.321 2.548 10.321 2.428 9.948 2.428 9.808 2.428 9.808 2.548 9.808 3.002 9.808 3.122 9.948 3.122 10.331 3.122 10.331 3.002 9.948 3.002 9.948 2.817" fill="#231815"/><polygon points="9.938 1.796 10.086 2.312 10.092 2.312 10.215 2.312 10.221 2.312 10.368 1.796 10.368 2.312 10.499 2.312 10.499 1.618 10.428 1.618 10.366 1.618 10.299 1.618 10.153 2.105 10.008 1.618 9.941 1.618 9.879 1.618 9.808 1.618 9.808 2.312 9.938 2.312 9.938 1.796" fill="#231815"/><rect x="12.994" y="1.618" width="0.14" height="0.694" fill="#231815"/><rect x="13.108" y="2.428" width="0.14" height="0.694" fill="#231815"/><rect x="14.377" y="1.618" width="0.139" height="0.694" fill="#231815"/><rect x="10.555" y="1.618" width="0.14" height="0.694" fill="#231815"/><polygon points="14.182 1.889 13.904 1.889 13.904 1.618 13.766 1.618 13.766 2.312 13.904 2.312 13.904 2.009 14.182 2.009 14.182 2.312 14.319 2.312 14.319 1.618 14.182 1.618 14.182 1.889" fill="#231815"/><polygon points="10.902 2.312 11.044 2.312 11.044 1.738 11.214 1.738 11.214 1.618 11.044 1.618 10.902 1.618 10.732 1.618 10.732 1.738 10.902 1.738 10.902 2.312" fill="#231815"/><polygon points="12.177 3.122 12.32 3.122 12.32 2.548 12.489 2.548 12.489 2.428 12.32 2.428 12.177 2.428 12.007 2.428 12.007 2.548 12.177 2.548 12.177 3.122" fill="#231815"/><path d="M12.082,2.331A0.232,0.232,0,0,0,12.358,2.1V1.618H12.219v0.49a0.12,0.12,0,0,1-.137.11,0.114,0.114,0,0,1-.136-0.11V1.618H11.808V2.1a0.228,0.228,0,0,0,.274.236" fill="#231815"/><polygon points="11.025 2.817 11.357 2.817 11.357 2.696 11.025 2.696 11.025 2.548 11.398 2.548 11.398 2.428 11.025 2.428 10.884 2.428 10.884 2.548 10.884 3.002 10.884 3.122 11.025 3.122 11.408 3.122 11.408 3.002 11.025 3.002 11.025 2.817" fill="#231815"/><path d="M12.552,2.312h0.2a0.187,0.187,0,0,0,.209-0.187,0.191,0.191,0,0,0-.134-0.182,0.155,0.155,0,0,0,.11-0.154,0.181,0.181,0,0,0-.216-0.171H12.408V2.312h0.144Zm0.159-.1H12.547v-0.2h0.162a0.1,0.1,0,0,1,.108.1,0.1,0.1,0,0,1-.106.1m0.01-.479a0.085,0.085,0,0,1,.081.082,0.086,0.086,0,0,1-.088.088H12.547V1.728h0.174Z" fill="#231815"/><path d="M12.943,2.789a0.169,0.169,0,0,0,.123-0.168,0.193,0.193,0,0,0-.226-0.194H12.523V3.122h0.141V2.847h0.119a0.114,0.114,0,0,1,.123.088c0.013,0.054.01,0.136,0.024,0.187h0.141a1,1,0,0,1-.025-0.183,0.151,0.151,0,0,0-.1-0.15m-0.279-.053V2.547h0.169a0.091,0.091,0,0,1,.1.1,0.1,0.1,0,0,1-.091.094H12.664Z" fill="#231815"/><polygon points="10.517 2.428 10.376 2.428 10.376 3.002 10.376 3.122 10.517 3.122 10.844 3.122 10.844 3.002 10.517 3.002 10.517 2.428" fill="#231815"/><path d="M11.449,2.019c0.112,0.019.177,0.04,0.177,0.107a0.114,0.114,0,0,1-.139.089A0.123,0.123,0,0,1,11.346,2.1H11.211a0.238,0.238,0,0,0,.282.231,0.234,0.234,0,0,0,.278-0.221,0.207,0.207,0,0,0-.2-0.2c-0.124-.025-0.208-0.03-0.208-0.108a0.1,0.1,0,0,1,.124-0.085,0.107,0.107,0,0,1,.126.106H11.75a0.269,0.269,0,0,0-.527-0.011,0.225,0.225,0,0,0,.226.212" fill="#231815"/><path d="M13.406,2.019c0.113,0.019.176,0.04,0.176,0.107a0.114,0.114,0,0,1-.138.089A0.123,0.123,0,0,1,13.3,2.1H13.168a0.238,0.238,0,0,0,.282.231,0.234,0.234,0,0,0,.278-0.221,0.207,0.207,0,0,0-.2-0.2c-0.124-.025-0.208-0.03-0.208-0.108a0.1,0.1,0,0,1,.124-0.085,0.107,0.107,0,0,1,.127.106h0.135a0.269,0.269,0,0,0-.527-0.011,0.225,0.225,0,0,0,.226.212" fill="#231815"/><path d="M11.724,3.015a0.21,0.21,0,0,1-.179-0.242,0.209,0.209,0,0,1,.179-0.243,0.148,0.148,0,0,1,.149.119h0.145a0.282,0.282,0,0,0-.3-0.236,0.321,0.321,0,0,0-.32.363,0.324,0.324,0,0,0,.32.363,0.28,0.28,0,0,0,.3-0.246H11.873a0.148,0.148,0,0,1-.149.123" fill="#231815"/><path d="M13.606,3.015a0.21,0.21,0,0,1-.179-0.242,0.209,0.209,0,0,1,.179-0.243,0.148,0.148,0,0,1,.149.119H13.9a0.282,0.282,0,0,0-.3-0.236,0.322,0.322,0,0,0-.32.363,0.324,0.324,0,0,0,.32.363,0.28,0.28,0,0,0,.3-0.246H13.754a0.148,0.148,0,0,1-.149.123" fill="#231815"/></svg>