<svg xmlns="http://www.w3.org/2000/svg" width="74" height="48" viewBox="0 0 74 48"><defs><style>.a{fill:#fff;}.b{fill:#dbd8d4;}.c{fill:#efece7;}.d{fill:#8c8c8c;}.e,.v{fill:none;stroke:#333;stroke-linecap:round;stroke-linejoin:round;}.e{stroke-width:0.19px;}.f{fill:#b3b3b3;}.g{fill:#787878;}.h{fill:#a6a6a6;}.i{fill:#f1eee9;}.j{fill:#eeeae5;}.k{fill:#474747;}.l{fill:#eae7e2;}.m{fill:#e5e1dd;}.n{fill:#666;}.o{fill:#3e3a39;}.p{fill:#333;}.q{fill:#707070;}.r{fill:#4a4a4a;}.s{fill:#1a1a1a;}.t{fill:#888;}.u{fill:#dbdcdc;}.v{stroke-width:0.28px;}.w{fill:#e50012;}</style></defs><title>melfa_rh-frhr</title><rect class="a" width="74" height="48"/><polygon class="b" points="57.9 4.74 34.37 2.33 30.54 5.55 53.27 7.86 57.9 4.74"/><polygon class="c" points="30.54 4.41 30.54 5.55 34.37 2.33 34.37 1.2 30.54 4.41"/><polygon class="d" points="34.37 1.2 34.37 2.33 57.9 4.74 57.9 3.61 34.37 1.2"/><polygon class="e" points="34.37 1.2 30.54 4.41 30.54 5.55 53.27 7.86 57.9 4.74 57.9 3.61 34.37 1.2"/><path class="f" d="M38.44,5.92V5c0-.82,2.58-1.48,5.76-1.48S50,4.16,50,5v.94"/><path class="g" d="M50,5.92c0,.81-2.57,1.48-5.75,1.48s-5.76-.67-5.76-1.48S41,4.44,44.2,4.44,50,5.1,50,5.92Z"/><path class="f" d="M49.73,6.7c0,.67-2.45,1.21-5.49,1.21s-5.48-.54-5.48-1.21V5.91c0-.73,2.45-1.33,5.48-1.33s5.49.6,5.49,1.33Z"/><path class="g" d="M49.73,6.75c0,.73-2.45,1.33-5.49,1.33s-5.48-.6-5.48-1.33,2.45-1.33,5.48-1.33S49.73,6,49.73,6.75Z"/><path class="f" d="M49.45,7.73c0,.65-2.35,1.18-5.25,1.18S39,8.38,39,7.73V6.85c0-.72,2.35-1.3,5.25-1.3s5.25.58,5.25,1.3Z"/><path class="g" d="M49.45,7.78c0,.71-2.35,1.3-5.25,1.3S39,8.49,39,7.78s2.35-1.3,5.25-1.3S49.45,7.06,49.45,7.78Z"/><path class="f" d="M49.19,8.79c0,.64-2.23,1.15-5,1.15s-5-.51-5-1.15v-1c0-.64,2.24-1.15,5-1.15s5,.51,5,1.15Z"/><ellipse class="g" cx="44.2" cy="8.79" rx="4.99" ry="1.15"/><path class="h" d="M40.65,10.32V9.25c0-.58,1.57-1,3.5-1s3.5.46,3.5,1v2.17"/><path class="e" d="M44.2,3.5C41,3.5,38.44,4.16,38.44,5v.94a.65.65,0,0,0,.32.48v.35a.48.48,0,0,0,.19.34v.69a.55.55,0,0,0,.25.4v.61c0,.32.56.6,1.45.81v.72l7,1.1V9.62c1-.21,1.54-.5,1.54-.83V8.18a.53.53,0,0,0,.26-.4,0,0,0,0,0,0,0V7.17a.57.57,0,0,0,.28-.42V6.32a.56.56,0,0,0,.22-.4V5C50,4.16,47.38,3.5,44.2,3.5Z"/><polygon class="b" points="27.64 9.36 27.27 10.18 27.27 14.78 27.71 14.84 27.71 9.33 27.64 9.36"/><polygon class="i" points="27.71 9.33 27.71 14.84 27.76 14.85 28.02 14.53 29.72 13.64 29.72 8.29 27.71 9.33"/><polygon class="j" points="31.36 7.66 31.11 7.75 31.11 13.2 50.01 15.47 50.01 15.47 50.01 10.3 31.36 7.66"/><polygon class="b" points="29.85 8.22 29.72 8.29 29.72 13.64 29.85 13.58 31.11 13.2 31.11 7.75 29.85 8.22"/><polygon class="g" points="50.01 15.47 31.11 13.2 29.85 13.58 28.02 14.53 27.76 14.85 45.47 17.49 50.01 15.47"/><polygon class="e" points="31.36 7.66 31.11 7.75 29.85 8.22 29.72 8.29 27.71 9.33 27.64 9.36 27.27 10.18 27.27 14.78 27.71 14.84 27.76 14.85 45.47 17.49 50.01 15.47 50.01 15.47 50.01 10.3 31.36 7.66"/><polygon class="g" points="36.78 22.09 39.36 22.71 40.12 22.78 41.25 22.53 43.02 21.64 43.02 21.27 40.18 20.76 38.86 20.89 36.78 22.09"/><polygon class="k" points="38.8 15.02 36.72 16.21 36.72 22.07 38.8 20.88 38.86 20.87 38.86 15.01 38.8 15.02"/><polygon class="l" points="40.18 14.9 40.18 20.76 42.95 21.25 42.95 15.65 42.95 15.27 40.18 14.9"/><polygon class="h" points="40.12 14.89 38.86 15.01 38.86 20.87 40.12 20.75 40.18 20.76 40.18 14.9 40.12 14.89"/><polygon class="e" points="42.95 21.25 42.95 15.65 42.95 15.27 40.18 14.9 40.12 14.89 38.86 15.01 38.8 15.02 36.72 16.21 36.72 22.07 36.78 22.09 39.36 22.71 40.12 22.78 41.25 22.53 43.02 21.64 43.02 21.27 42.95 21.25"/><path class="f" d="M37.41,19.88c0,.63-2,1.15-4.52,1.15s-4.52-.52-4.52-1.15v-5c0-.64,2-1.15,4.52-1.15s4.52.51,4.52,1.15Z"/><path class="g" d="M37.41,19.88c0,.63-2,1.15-4.52,1.15s-4.52-.52-4.52-1.15,2-1.15,4.52-1.15S37.41,19.24,37.41,19.88Z"/><path class="e" d="M32.89,13.69c-2.49,0-4.52.51-4.52,1.15v5c0,.63,2,1.15,4.52,1.15s4.52-.52,4.52-1.15v-5C37.41,14.2,35.39,13.69,32.89,13.69Z"/><path class="e" d="M37.41,17.31c0-.63-2-1.15-4.52-1.15s-4.52.52-4.52,1.15"/><polygon class="m" points="37.41 19.69 33.5 18.62 33.38 18.65 33.38 32.49 37.41 33.11 37.41 19.69"/><polygon class="m" points="27.58 20.01 27.58 31.6 33.38 32.49 33.38 18.65 27.58 20.01"/><polygon class="j" points="37.41 19.69 33.5 18.62 33.38 18.65 33.38 32.49 37.41 33.11 37.41 19.69"/><polygon class="f" points="27.58 20.01 27.58 31.6 33.38 32.49 33.38 18.65 27.58 20.01"/><polygon class="e" points="33.5 18.62 33.38 18.65 27.58 20.01 27.58 31.6 33.38 32.49 37.41 33.11 37.41 19.69 33.5 18.62"/><polygon class="m" points="19.77 13.58 19.77 31.6 24.18 30.97 24.5 31.02 24.5 12.26 19.77 13.58"/><polygon class="m" points="32.56 22.46 28.46 21.52 28.46 13.08 25.57 12.38 25.57 31.21 32.56 32.42 32.56 22.46"/><polygon class="m" points="24.5 12.26 24.5 31.02 25.57 31.21 25.57 12.38 24.5 12.26"/><polygon class="f" points="19.77 13.58 19.77 31.6 24.18 30.97 24.5 31.02 24.5 12.26 19.77 13.58"/><polygon class="j" points="32.56 22.46 28.46 21.52 28.46 13.08 25.57 12.38 25.57 31.21 32.56 32.42 32.56 22.46"/><polygon class="b" points="24.5 12.26 24.5 31.02 25.57 31.21 25.57 12.38 24.5 12.26"/><polygon class="e" points="28.46 21.52 28.46 13.08 25.57 12.38 24.5 12.26 19.77 13.58 19.77 31.6 24.18 30.97 24.5 31.02 25.57 31.21 32.56 32.42 32.56 22.46 28.46 21.52"/><polygon class="f" points="23.14 36.67 19.36 37.27 19.36 31.31 23.14 30.53 23.14 36.67"/><polygon class="m" points="24.46 36.54 23.14 36.67 23.14 30.53 24.46 30.53 24.46 36.54"/><polygon class="f" points="24.46 36.54 24.97 36.58 24.97 30.53 24.46 30.53 24.46 36.54"/><polygon class="m" points="24.97 36.58 39.36 38.47 39.36 33.05 24.97 30.53 24.97 36.58"/><polygon class="b" points="18.86 37.24 18.23 37.27 18.23 31.66 18.86 31.57 18.86 37.24"/><polygon class="g" points="19.36 31.31 18.86 31.57 18.86 37.24 19.36 37.27 19.36 31.31"/><polygon class="n" points="18.84 37.35 23.85 36.21 39.36 38.47 31.86 39.82 18.84 37.35"/><path class="o" d="M37.19,38.87c0,.2-.48.35-1.07.35s-1.07-.15-1.07-.35.48-.34,1.07-.34S37.19,38.68,37.19,38.87Z"/><path class="o" d="M35.63,39.09c0,.2-.48.35-1.07.35s-1.07-.15-1.07-.35.48-.34,1.07-.34S35.63,38.9,35.63,39.09Z"/><path class="o" d="M34.07,39.32c0,.19-.48.34-1.07.34s-1.07-.15-1.07-.34S32.41,39,33,39,34.07,39.12,34.07,39.32Z"/><path class="e" d="M39.36,33.05,25,30.53H23.14l-3.78.78-.5.26-.63.09v5.61l.63,0,.36,0-.38.09,13,2.47.91-.17H33a1.68,1.68,0,0,0,1-.23l.12,0a3,3,0,0,0,.44,0,1.57,1.57,0,0,0,1-.26,3.93,3.93,0,0,0,.52,0c.59,0,1.07-.15,1.07-.35h0l2.18-.39Z"/><polygon class="p" points="24.34 36.8 19.7 37.56 19.7 39.79 24.34 39.25 24.34 36.8"/><polygon class="q" points="25.28 36.83 24.34 36.8 24.34 39.25 25.28 39.28 25.28 36.83"/><polygon class="r" points="32.31 37.84 25.28 36.83 25.28 39.28 32.31 40.29 32.31 37.84"/><polygon class="s" points="25.28 39.28 24.34 39.25 19.7 39.79 19.83 39.95 26.51 40.99 27.45 41.02 32.31 40.36 32.31 40.29 25.28 39.28"/><polygon class="e" points="25.28 36.83 24.34 36.8 19.7 37.56 19.7 39.79 19.83 39.95 26.51 40.99 27.45 41.02 32.31 40.36 32.31 40.29 32.31 37.84 25.28 36.83"/><path class="t" d="M23.47,43.72V40.24c0-.11.28-.19.63-.19s.63.08.63.19v3.48Z"/><path class="h" d="M22.76,45.14c0-.11.6-.21,1.34-.21s1.34.1,1.34.21-.6.21-1.34.21S22.76,45.26,22.76,45.14Z"/><path class="u" d="M25.44,45.14c0-.11-.6-.21-1.34-.21s-1.34.1-1.34.21V43.73c0-.12.6-.21,1.34-.21s1.34.09,1.34.21Z"/><path class="t" d="M23.47,47.18c0,.08.28.15.63.15s.63-.07.63-.15v-1.9c0-.08-.28-.14-.63-.14s-.63.06-.63.14Z"/><path class="a" d="M23.8,45.5c0-.06.06-.1.13-.1h0c.07,0,.13,0,.13.1V47c0,.06-.06.1-.13.1h0c-.07,0-.13,0-.13-.1Z"/><path class="a" d="M23.8,40.35c0-.06.06-.1.13-.1h0c.07,0,.13,0,.13.1v2.9c0,.06-.06.1-.13.1h0c-.07,0-.13,0-.13-.1Z"/><path class="e" d="M24.73,43.55V40.24c0-.11-.28-.19-.63-.19s-.63.08-.63.19v3.31c-.42,0-.71.1-.71.18v1.41c0,.08.29.15.71.19v1.85c0,.08.28.15.63.15s.63-.07.63-.15V45.33c.42,0,.71-.11.71-.19V43.73C25.44,43.65,25.15,43.58,24.73,43.55Z"/><path class="v" d="M34.37,1.2,30.54,4.41V5.55l8.2.83,0,0h0v.35a.43.43,0,0,0,0,.11l0,0,0,0,.12.13h0v.69a.5.5,0,0,0,0,.12.08.08,0,0,1,0,0L39,8l0,.06.06,0,.06.06h0v.59L31.36,7.66l-.25.09-1.26.47-.13.07-2,1-.07,0-.37.82v2.61l-1.7-.41-1.08-.12-4.72,1.32V31.23l-.41.08-.5.26-.63.09v5.61l.63,0,.36,0-.38.09,1,.19-.14,0v2.23l.13.16,3.64.57v3l-.39,0h0l-.08,0-.09,0,0,0-.05,0h0a.05.05,0,0,0,0,0v1.41s0,0,0,0h0l.05,0h0l.1,0,.07,0h0l.38,0h0v1.85c0,.08.28.15.63.15s.63-.07.63-.15V45.33l.39,0h0l.08,0,.08,0h0l0,0h0a.05.05,0,0,0,0,0V43.73l0,0h0l0,0h0l-.1,0-.07,0h0l-.39,0V40.71l1.78.28.94,0,4.86-.66v-.07h0v-.55l.47-.09h.67l.08,0a2.13,2.13,0,0,0,.32-.08h0l.08,0h0s.05,0,.06,0l.13,0a2.81,2.81,0,0,0,.43,0H35l.08,0h.08l.09,0h.06l.08,0h0a.53.53,0,0,0,.23-.14l.23,0h.29c.59,0,1.07-.15,1.07-.35h0l2.18-.39V33.05l-2-.34V22.24l2,.47.76.07,1.13-.25L43,21.64v-.37l-.07,0V17.11l2.52.38,4.54-2h0V10.3L47.65,10V9.62h0a7.79,7.79,0,0,0,.9-.26h0l.21-.09h0l.15-.09,0,0,.11-.09,0,0,.07-.09v0a.27.27,0,0,0,0-.12V8.18h0l.07-.06.05,0,0-.06a.16.16,0,0,0,0-.07l0,0a.27.27,0,0,0,0-.12,0,0,0,0,0,0,0V7.47l3.82.39L57.9,4.74V3.61Z"/><polygon class="w" points="26.89 26.84 26.35 26.75 26.62 26.26 27.16 26.35 26.89 26.84"/><polygon class="w" points="27.44 26.93 27.98 27.03 27.71 26.44 27.16 26.35 27.44 26.93"/><polygon class="w" points="27.44 25.86 27.16 25.28 26.89 25.77 27.16 26.35 27.44 25.86"/><polygon points="28.23 26.84 28.45 26.88 28.45 26.79 28.23 26.75 28.23 26.64 28.47 26.68 28.47 26.59 28.23 26.55 28.14 26.53 28.14 26.62 28.14 26.96 28.14 27.05 28.23 27.07 28.48 27.11 28.48 27.02 28.23 26.98 28.23 26.84"/><polygon points="28.22 26.08 28.32 26.48 28.32 26.48 28.4 26.49 28.41 26.49 28.5 26.13 28.5 26.51 28.59 26.52 28.59 26.01 28.54 26 28.5 25.99 28.46 25.98 28.36 26.33 28.27 25.95 28.22 25.95 28.18 25.94 28.14 25.93 28.14 26.45 28.22 26.46 28.22 26.08"/><polygon points="30.32 26.3 30.23 26.28 30.23 26.8 30.32 26.82 30.32 26.3"/><polygon points="30.4 26.92 30.31 26.9 30.31 27.42 30.4 27.43 30.4 26.92"/><polygon points="31.23 26.45 31.14 26.44 31.14 26.96 31.23 26.97 31.23 26.45"/><polygon points="28.72 26.03 28.63 26.01 28.63 26.53 28.72 26.55 28.72 26.03"/><polygon points="31.01 26.62 30.83 26.59 30.83 26.39 30.74 26.37 30.74 26.89 30.83 26.9 30.83 26.68 31.01 26.71 31.01 26.93 31.11 26.95 31.11 26.43 31.01 26.42 31.01 26.62"/><polygon points="28.86 26.57 28.95 26.59 28.95 26.16 29.06 26.18 29.06 26.09 28.95 26.07 28.86 26.05 28.74 26.03 28.74 26.12 28.86 26.14 28.86 26.57"/><polygon points="29.69 27.32 29.79 27.33 29.79 26.9 29.9 26.92 29.9 26.83 29.79 26.81 29.69 26.8 29.58 26.78 29.58 26.87 29.69 26.89 29.69 27.32"/><path d="M29.63,26.72c.12,0,.18,0,.18-.15v-.36h-.09v.36c0,.05,0,.08-.09.07a.1.1,0,0,1-.09-.1v-.36l-.09,0v.36A.2.2,0,0,0,29.63,26.72Z"/><polygon points="28.94 26.96 29.16 27 29.16 26.91 28.94 26.87 28.94 26.76 29.18 26.8 29.18 26.71 28.94 26.67 28.84 26.65 28.84 26.65 28.84 26.74 28.84 26.74 28.84 27.08 28.84 27.08 28.84 27.17 28.84 27.17 28.94 27.19 29.19 27.23 29.19 27.14 28.94 27.1 28.94 26.96"/><path d="M29.94,26.75l.13,0a.1.1,0,0,0,.14-.11.16.16,0,0,0-.09-.15.1.1,0,0,0,.07-.11.15.15,0,0,0-.14-.15h-.11l-.09,0h0v.52h.09Zm.11-.06-.11,0v-.15l.11,0a.1.1,0,0,1,.07.09A.06.06,0,0,1,30.05,26.69Zm0-.35a.07.07,0,0,1,.06.07,0,0,0,0,1-.06.05l-.11,0v-.12Z"/><path d="M30.2,27.15s.08,0,.08-.11a.16.16,0,0,0-.15-.17l-.11,0-.1,0h0v.52l.1,0v-.21l.07,0a.11.11,0,0,1,.09.08.66.66,0,0,0,0,.14h.09a.61.61,0,0,1,0-.14A.16.16,0,0,0,30.2,27.15ZM30,27.08v-.14l.11,0a.09.09,0,0,1,.06.08s0,.07-.06.06Z"/><polygon points="28.6 26.61 28.51 26.6 28.51 27.02 28.51 27.11 28.6 27.13 28.82 27.17 28.82 27.08 28.6 27.04 28.6 26.61"/><path d="M29.22,26.41c.07,0,.11.05.11.1s0,.06-.09,0a.1.1,0,0,1-.09-.1l-.09,0a.2.2,0,0,0,.18.21c.13,0,.19,0,.19-.13a.18.18,0,0,0-.13-.18c-.09,0-.14,0-.14-.1s0-.06.08,0a.09.09,0,0,1,.08.09l.09,0a.19.19,0,0,0-.17-.2c-.09,0-.17,0-.17.13A.19.19,0,0,0,29.22,26.41Z"/><path d="M30.5,26.63c.08,0,.12.05.12.1s0,.06-.09.05a.1.1,0,0,1-.09-.1l-.09,0a.21.21,0,0,0,.18.21c.13,0,.19-.05.19-.14a.18.18,0,0,0-.14-.17c-.08,0-.13,0-.13-.1s0-.06.08-.05a.08.08,0,0,1,.08.09h.09a.19.19,0,0,0-.17-.19.13.13,0,0,0-.18.13A.2.2,0,0,0,30.5,26.63Z"/><path d="M29.4,27.18c-.08,0-.12-.1-.12-.2s0-.17.12-.16.08.06.1.11h.09a.24.24,0,0,0-.2-.21c-.14,0-.21.09-.21.24a.3.3,0,0,0,.21.31.17.17,0,0,0,.2-.15l-.09,0C29.48,27.16,29.45,27.19,29.4,27.18Z"/><path d="M30.63,27.39c-.07,0-.11-.1-.11-.2s0-.17.11-.16a.13.13,0,0,1,.1.11h.1a.26.26,0,0,0-.2-.21c-.14,0-.21.09-.21.24a.28.28,0,0,0,.21.3.16.16,0,0,0,.2-.14l-.1,0A.08.08,0,0,1,30.63,27.39Z"/><polygon class="w" points="31.84 28.47 25.68 27.41 25.68 27.13 31.84 28.19 31.84 28.47"/></svg>