<svg xmlns="http://www.w3.org/2000/svg" width="74" height="48" viewBox="0 0 74 48"><title>melsec_l</title><rect width="74" height="48" fill="#fff"/><rect x="2.204" y="11.244" width="12.756" height="25.512" fill="#b6004f"/><path d="M8.749,22.355H12.52a0.286,0.286,0,0,1,.286.286v11.9a0.285,0.285,0,0,1-.285.285H8.75a0.286,0.286,0,0,1-.286-0.286V22.64A0.285,0.285,0,0,1,8.749,22.355Z" fill="#262626" stroke="#231815" stroke-width="0.1"/><polygon points="8.941 22.722 8.941 23.178 12.284 23.178 12.284 25.557 8.941 25.557 8.941 26.013 12.284 26.013 12.284 28.392 8.941 28.392 8.941 28.848 12.284 28.848 12.284 31.227 8.941 31.227 8.941 31.683 12.284 31.683 12.284 34.062 8.941 34.062 8.941 34.518 12.627 34.518 12.627 22.722 8.941 22.722" fill="#666" fill-rule="evenodd"/><rect x="9.578" y="23.268" width="2.237" height="2.208" rx="0.147" ry="0.147" fill="#7c848a"/><circle cx="10.696" cy="24.373" r="0.867" fill="none" stroke="#fff" stroke-width="0.12"/><path d="M11.228,24.323a0.057,0.057,0,0,0-.057-0.057H10.859A0.057,0.057,0,0,1,10.8,24.21V23.9a0.057,0.057,0,0,0-.057-0.057h-0.1a0.057,0.057,0,0,0-.057.057V24.21a0.057,0.057,0,0,1-.057.057H10.221a0.057,0.057,0,0,0-.057.057v0.1a0.057,0.057,0,0,0,.057.057h0.312a0.057,0.057,0,0,1,.057.057v0.312a0.057,0.057,0,0,0,.057.057h0.1a0.057,0.057,0,0,0,.057-0.057V24.536a0.057,0.057,0,0,1,.057-0.057h0.312a0.057,0.057,0,0,0,.057-0.057v-0.1Z" fill="none" stroke="#fff" stroke-width="0.12" fill-rule="evenodd"/><rect x="9.578" y="26.103" width="2.237" height="2.208" rx="0.147" ry="0.147" fill="#7c848a"/><circle cx="10.696" cy="27.207" r="0.867" fill="none" stroke="#fff" stroke-width="0.12"/><path d="M11.228,27.158a0.057,0.057,0,0,0-.057-0.057H10.859a0.057,0.057,0,0,1-.057-0.057V26.732a0.057,0.057,0,0,0-.057-0.057h-0.1a0.057,0.057,0,0,0-.057.057v0.312a0.057,0.057,0,0,1-.057.057H10.221a0.057,0.057,0,0,0-.057.057v0.1a0.057,0.057,0,0,0,.057.057h0.312a0.057,0.057,0,0,1,.057.057v0.312a0.057,0.057,0,0,0,.057.057h0.1a0.057,0.057,0,0,0,.057-0.057V27.371a0.057,0.057,0,0,1,.057-0.057h0.312a0.057,0.057,0,0,0,.057-0.057v-0.1Z" fill="none" stroke="#fff" stroke-width="0.12" fill-rule="evenodd"/><rect x="9.578" y="28.938" width="2.237" height="2.208" rx="0.147" ry="0.147" fill="#7c848a"/><circle cx="10.696" cy="30.042" r="0.867" fill="none" stroke="#fff" stroke-width="0.12"/><path d="M11.228,29.993a0.057,0.057,0,0,0-.057-0.057H10.859a0.057,0.057,0,0,1-.057-0.057V29.567a0.057,0.057,0,0,0-.057-0.057h-0.1a0.057,0.057,0,0,0-.057.057v0.312a0.057,0.057,0,0,1-.057.057H10.221a0.057,0.057,0,0,0-.057.057v0.1a0.057,0.057,0,0,0,.057.057h0.312a0.057,0.057,0,0,1,.057.057v0.312a0.057,0.057,0,0,0,.057.057h0.1a0.057,0.057,0,0,0,.057-0.057V30.206a0.057,0.057,0,0,1,.057-0.057h0.312a0.057,0.057,0,0,0,.057-0.057v-0.1Z" fill="none" stroke="#fff" stroke-width="0.12" fill-rule="evenodd"/><rect x="9.578" y="31.773" width="2.237" height="2.208" rx="0.147" ry="0.147" fill="#7c848a"/><circle cx="10.696" cy="32.877" r="0.867" fill="none" stroke="#fff" stroke-width="0.12"/><path d="M11.228,32.828a0.057,0.057,0,0,0-.057-0.057H10.859a0.057,0.057,0,0,1-.057-0.057V32.4a0.057,0.057,0,0,0-.057-0.057h-0.1a0.057,0.057,0,0,0-.057.057v0.313a0.057,0.057,0,0,1-.057.057H10.221a0.057,0.057,0,0,0-.057.057v0.1a0.057,0.057,0,0,0,.057.057h0.312a0.057,0.057,0,0,1,.057.057v0.312a0.057,0.057,0,0,0,.057.057h0.1a0.057,0.057,0,0,0,.057-0.057V33.041a0.057,0.057,0,0,1,.057-0.057h0.312a0.057,0.057,0,0,0,.057-0.057v-0.1Z" fill="none" stroke="#fff" stroke-width="0.12" fill-rule="evenodd"/><path d="M9.727,13.27h1.9a0.1,0.1,0,0,1,.1.1v0.294a0.1,0.1,0,0,1-.1.1h-1.9a0.1,0.1,0,0,1-.1-0.1V13.367A0.1,0.1,0,0,1,9.727,13.27Z" fill="#7cae2a" stroke="#231815" stroke-width="0.05"/><rect x="14.96" y="11.244" width="56.835" height="25.512" fill="#666"/><rect x="18.562" y="25.618" width="1.358" height="11.138" fill="#262626"/><rect x="22.627" y="30.806" width="4.469" height="4.883" rx="0.283" ry="0.283" fill="#333"/><rect x="22.948" y="31.031" width="3.857" height="4.412" fill="#bfbfbf" stroke="#9fa0a0" stroke-width="0.12"/><polygon points="26.594 32.587 26.324 32.587 26.324 31.306 23.494 31.305 23.494 34.998 26.324 34.999 26.324 33.719 26.594 33.719 26.594 32.587" fill="#262626" stroke="gray" stroke-width="0.12"/><rect x="25.687" y="34.203" width="0.637" height="0.796" fill="#7cae2a" stroke="#9fa0a0" stroke-width="0.113"/><rect x="25.687" y="31.306" width="0.637" height="0.796" fill="#7cae2a" stroke="#9fa0a0" stroke-width="0.113"/><path d="M18.562,25.618H16.679l0.459,0.459a0.407,0.407,0,0,0,.376.1h1.047V25.618Z" fill="#404040" fill-rule="evenodd"/><path d="M18.562,36.756H16.679l0.459-.459a0.407,0.407,0,0,1,.376-0.1h1.047v0.562Z" fill="#404040" fill-rule="evenodd"/><rect x="18.606" y="31.513" width="1.27" height="4.937" rx="0.068" ry="0.068" fill="#595959"/><path d="M19.92,30.939v-0.2H21.5a0.54,0.54,0,0,0,.285-0.1h0l0.56-.477a0.72,0.72,0,0,1,.415-0.152h4.962v0.2H22.754a0.541,0.541,0,0,0-.285.1h0l-0.56.476a0.717,0.717,0,0,1-.414.153H19.92Z" fill="#262626"/><path d="M25.979,27.526H21.211a0.114,0.114,0,0,0-.113.113v2.042a0.114,0.114,0,0,0,.113.113h4.541a0.114,0.114,0,0,0,.113-0.113V29.144a0.114,0.114,0,0,1,.113-0.113h1.19a0.114,0.114,0,0,0,.113-0.113V27.639a0.114,0.114,0,0,0-.113-0.113h-1.19Z" fill="#4d4d4d" stroke="#333" stroke-width="0.1"/><rect x="27.716" y="11.244" width="0.2" height="25.512" fill="#262626"/><rect x="14.96" y="25.418" width="12.756" height="0.2" fill="#262626"/><polygon points="16.424 25.618 16.424 25.953 14.96 25.953 14.96 26.065 16.679 26.065 16.679 25.618 16.424 25.618" fill="#262626"/><polygon points="16.424 36.756 16.424 36.42 14.96 36.42 14.96 36.308 16.679 36.308 16.679 36.756 16.424 36.756" fill="#262626"/><polygon points="26.252 25.618 26.252 25.953 27.716 25.953 27.716 26.065 25.997 26.065 25.997 25.618 26.252 25.618" fill="#262626"/><path d="M28.212,29.037v3.339h1.37V29.037h-1.37Z" fill="#fff"/><path d="M28.212,32.461v3.25a0.171,0.171,0,0,0,.17.171h1.03a0.171,0.171,0,0,0,.17-0.171v-3.25h-1.37Z" fill="#fff"/><path d="M28.3,15.518v3.071h0.637V15.4H28.41A0.114,0.114,0,0,0,28.3,15.518Z" fill="none"/><path d="M28.3,15.518v3.071h0.637V15.4H28.41A0.114,0.114,0,0,0,28.3,15.518Z" fill="none"/><path d="M29.412,15.319h-1.03a0.171,0.171,0,0,0-.17.171v3.185h1.37V15.49A0.171,0.171,0,0,0,29.412,15.319Z" fill="#fff"/><rect x="28.297" y="18.84" width="0.637" height="3.176" fill="none"/><path d="M28.212,18.754V22.1h1.37V18.754h-1.37Z" fill="#fff"/><rect x="28.297" y="22.273" width="0.637" height="3.168" fill="none"/><path d="M28.212,22.187v3.339h1.37V22.187h-1.37Z" fill="#fff"/><rect x="28.297" y="25.698" width="0.637" height="3.168" fill="none"/><path d="M28.212,25.612v3.339h1.37V25.612h-1.37Z" fill="#fff"/><path d="M28.962,29.123v3.168H29.5V29.123H28.962Z" fill="#a62b1f"/><path d="M28.962,32.547v3.238h0.422a0.114,0.114,0,0,0,.113-0.114V32.547H28.962Z" fill="#a62b1f"/><rect x="15.624" y="13.409" width="11.32" height="0.283" fill="#bd2829"/><rect x="30.347" y="15.669" width="2.632" height="20.15" fill="#262626"/><rect x="30.615" y="17.601" width="2.09" height="16.36" fill="#a6a6a6"/><path d="M32.065,33.231a0.882,0.882,0,0,0,.573-0.822V19.065a0.882,0.882,0,0,0-.573-0.822l-0.729-.2a0.455,0.455,0,0,0-.573.5V32.934a0.454,0.454,0,0,0,.573.5Z" fill="#404040"/><rect x="31.159" y="18.807" width="0.206" height="14.012" fill="#b09c53"/><rect x="31.947" y="18.807" width="0.206" height="14.012" fill="#b09c53"/><circle cx="31.703" cy="16.848" r="0.4" fill="none" stroke="gray" stroke-width="0.12"/><circle cx="31.703" cy="34.869" r="0.4" fill="none" stroke="gray" stroke-width="0.12"/><path d="M18.929,21.487a3.62,3.62,0,0,0,.317-0.205,3.415,3.415,0,0,1,.516-0.242,4.606,4.606,0,0,1,2.258-.224,4.085,4.085,0,0,1,1.192.357,3.152,3.152,0,0,1,.365.208,0.571,0.571,0,0,0,.23.13H27.26l0.073-.019a0.145,0.145,0,0,0,.071-0.125V11.657a0.145,0.145,0,0,0-.072-0.125l-0.072-.02h-11.8a0.243,0.243,0,0,0-.145.24v9.615a0.146,0.146,0,0,0,.145.144h3.395l0.087-.029" fill="none" stroke="#171717" stroke-linecap="round" stroke-width="0.1" fill-rule="evenodd"/><path d="M19.051,21.632A4.106,4.106,0,0,1,21.987,21a3.569,3.569,0,0,1,1.243.386,2.675,2.675,0,0,1,.639.469,1.687,1.687,0,0,1,.283.392,1.337,1.337,0,0,1,.129.39c0.153,0.943-.779,1.6-1.558,1.854a4.8,4.8,0,0,1-1.26.215,4.036,4.036,0,0,1-2.331-.613,2.13,2.13,0,0,1-.424-0.385,1.551,1.551,0,0,1-.24-0.391,1.294,1.294,0,0,1-.084-0.292,1.518,1.518,0,0,1,.667-1.4" fill="#4d4d4d" stroke="#1a1a1a" stroke-width="0.1" fill-rule="evenodd"/><path d="M16.1,22.851l0.036-.425a0.617,0.617,0,0,1,.447-0.65h1.2a0.151,0.151,0,0,1,.115.077,0.953,0.953,0,0,1-.116.538,2.233,2.233,0,0,0-.005.861l0.13,0.426c0.109,0.355-.65.214-0.688,0.214H16.579c-0.47-.037-0.451-0.706-0.483-1.042" fill="none" stroke="#171717" stroke-linecap="round" stroke-width="0.1" fill-rule="evenodd"/><path d="M24.877,21.828a0.086,0.086,0,0,0-.083.1L24.8,21.946l0.133,0.417,0.05,0.471-0.05.471-0.133.417-0.005.018a0.085,0.085,0,0,0,.083.1l0.36,0H26.1a0.491,0.491,0,0,0,.362-0.5,2.1,2.1,0,0,0-.12-1.385,0.755,0.755,0,0,0-.673-0.136H25.237l-0.36,0" fill="none" stroke="#171717" stroke-linecap="round" stroke-width="0.1" fill-rule="evenodd"/><rect x="16.209" y="14.688" width="10.179" height="5.699" rx="0.141" ry="0.141"/><path d="M16.929,15.323h8.739a0.085,0.085,0,0,1,.085.085v4.556a0.084,0.084,0,0,1-.084.084H16.929a0.084,0.084,0,0,1-.084-0.084V15.408A0.084,0.084,0,0,1,16.929,15.323Z" fill="#a8ca7f"/><polygon points="21.615 21.79 21.05 21.79 21.332 21.367 21.615 21.79" fill="#fff" fill-rule="evenodd"/><polygon points="19.159 22.552 19.159 23.117 18.735 22.835 19.159 22.552" fill="#fff" fill-rule="evenodd"/><polygon points="21.05 23.879 21.614 23.879 21.332 24.302 21.05 23.879" fill="#fff" fill-rule="evenodd"/><polygon points="23.506 23.117 23.506 22.553 23.929 22.835 23.506 23.117" fill="#fff" fill-rule="evenodd"/><rect x="36.763" y="21.92" width="4.537" height="4.94" rx="0.283" ry="0.283" fill="#333"/><rect x="37.059" y="22.169" width="3.915" height="4.462" fill="#bfbfbf" stroke="#9fa0a0" stroke-width="0.103"/><polygon points="37.273 25.058 37.547 25.058 37.547 26.353 40.42 26.355 40.42 22.618 37.547 22.617 37.547 23.913 37.273 23.913 37.273 25.058" fill="#262626" stroke="gray" stroke-width="0.156"/><rect x="37.547" y="22.617" width="0.646" height="0.805" fill="#7cae2a" stroke="#9fa0a0" stroke-width="0.113"/><rect x="37.547" y="25.548" width="0.646" height="0.805" fill="#7cae2a" stroke="#9fa0a0" stroke-width="0.113"/><rect x="36.763" y="27.852" width="4.537" height="4.94" rx="0.283" ry="0.283" fill="#333"/><rect x="37.059" y="28.101" width="3.915" height="4.463" fill="#bfbfbf" stroke="#9fa0a0" stroke-width="0.103"/><polygon points="37.273 30.99 37.547 30.99 37.547 32.286 40.42 32.287 40.42 28.551 37.547 28.55 37.547 29.845 37.273 29.845 37.273 30.99" fill="#262626" stroke="gray" stroke-width="0.156"/><rect x="37.547" y="28.55" width="0.646" height="0.805" fill="#7cae2a" stroke="#9fa0a0" stroke-width="0.113"/><rect x="37.547" y="31.481" width="0.646" height="0.805" fill="#7cae2a" stroke="#9fa0a0" stroke-width="0.113"/><rect x="50.08" y="24.417" width="5.558" height="12.34" fill="#262626"/><rect x="52.837" y="25.836" width="2.344" height="9.747" fill="#fff" stroke="#262626" stroke-width="0.1"/><rect x="50.501" y="27.227" width="2.344" height="7.256" fill="#fff" stroke="#262626" stroke-width="0.1"/><line x1="52.837" y1="28.276" x2="55.196" y2="28.277" fill="#fff" stroke="#262626" stroke-width="0.1"/><line x1="52.837" y1="30.714" x2="55.196" y2="30.715" fill="#fff" stroke="#262626" stroke-width="0.1"/><line x1="52.837" y1="33.152" x2="55.196" y2="33.153" fill="#fff" stroke="#262626" stroke-width="0.1"/><line x1="50.499" y1="29.659" x2="52.857" y2="29.66" fill="#fff" stroke="#262626" stroke-width="0.1"/><line x1="50.499" y1="32.097" x2="52.857" y2="32.097" fill="#fff" stroke="#262626" stroke-width="0.1"/><path d="M47.887,31.827v2.135a0.282,0.282,0,0,0,.282.282h0.451a0.281,0.281,0,0,1,.211.1V31.827H47.887Z" fill="none"/><path d="M49.578,28.345H49.2a0.282,0.282,0,0,0-.282.282V30.58h0.944V28.627A0.282,0.282,0,0,0,49.578,28.345Z" fill="none"/><path d="M48.915,30.665v2.261h0.944V30.665H48.915Z" fill="none"/><path d="M48.915,33.01v1.953a0.282,0.282,0,0,0,.282.282h0.38a0.282,0.282,0,0,0,.282-0.282V33.01H48.915Z" fill="none"/><path d="M48.619,29.326H48.168a0.282,0.282,0,0,0-.282.281v2.135h0.944V29.231A0.282,0.282,0,0,1,48.619,29.326Z" fill="none"/><path d="M64.3,18.483" fill="none" stroke="#231815" stroke-width="0.05"/><path d="M64.211,34.233" fill="none" stroke="#231815" stroke-width="0.05"/><polygon points="63.717 11.244 55.638 11.244 47.559 11.244 34.803 11.244 27.916 11.244 27.916 14.991 34.803 14.991 34.803 18.882 47.559 18.882 55.638 18.882 55.638 14.991 63.717 14.991 71.796 14.991 71.796 11.244 63.717 11.244" fill="#383838"/><path d="M68.3,15.044h3.11a0.157,0.157,0,0,1,.157.157V36.6a0.157,0.157,0,0,1-.157.157H68.3a0.157,0.157,0,0,1-.157-0.157V15.2A0.156,0.156,0,0,1,68.3,15.044Z" fill="#8c8c8c"/><polygon points="68.146 15.515 68.146 15.044 67.513 15.044 67.513 15.515 67.513 36.247 67.513 36.718 68.146 36.718 68.146 36.247 71.108 36.247 71.108 36.047 71.108 15.715 71.108 15.515 68.146 15.515" fill="none" stroke="#333" stroke-width="0.1" fill-rule="evenodd"/><path d="M66.383,15.044h5.029a0.157,0.157,0,0,1,.157.157V36.6a0.157,0.157,0,0,1-.157.157H66.384a0.157,0.157,0,0,1-.157-0.157V15.2A0.156,0.156,0,0,1,66.383,15.044Z" fill="none" stroke="#595757" stroke-width="0.1"/><path d="M68.3,15.044h3.11a0.157,0.157,0,0,1,.157.157V36.6a0.157,0.157,0,0,1-.157.157H68.3a0.157,0.157,0,0,1-.157-0.157V15.2A0.156,0.156,0,0,1,68.3,15.044Z" fill="#8c8c8c"/><polygon points="67.513 18.467 66.227 18.935 66.227 17.146 67.513 16.677 67.513 18.467" fill="none" stroke="#231815" stroke-width="0.1" fill-rule="evenodd"/><polyline points="67.513 18.283 67.061 18.449 66.545 17.03" fill="none" stroke="#231815" stroke-width="0.1" fill-rule="evenodd"/><circle cx="67.531" cy="17.445" r="0.708" transform="translate(-2.214 18.08) rotate(-15.006)" fill="#666" stroke="#464342" stroke-linecap="round" stroke-linejoin="round" stroke-width="0.1"/><polygon points="67.513 20.624 66.227 21.092 66.227 19.303 67.513 18.834 67.513 20.624" fill="none" stroke="#231815" stroke-width="0.1" fill-rule="evenodd"/><polyline points="67.513 20.44 67.061 20.606 66.545 19.186" fill="none" stroke="#231815" stroke-width="0.1" fill-rule="evenodd"/><circle cx="67.531" cy="19.602" r="0.708" transform="translate(-2.772 18.154) rotate(-15.006)" fill="#666" stroke="#464342" stroke-linecap="round" stroke-linejoin="round" stroke-width="0.1"/><polygon points="67.513 22.781 66.227 23.249 66.227 21.46 67.513 20.991 67.513 22.781" fill="none" stroke="#231815" stroke-width="0.1" fill-rule="evenodd"/><polyline points="67.513 22.597 67.061 22.762 66.545 21.343" fill="none" stroke="#231815" stroke-width="0.1" fill-rule="evenodd"/><circle cx="67.531" cy="21.758" r="0.708" transform="translate(-3.331 18.227) rotate(-15.006)" fill="#666" stroke="#464342" stroke-linecap="round" stroke-linejoin="round" stroke-width="0.1"/><polygon points="67.513 24.937 66.227 25.405 66.227 23.616 67.513 23.147 67.513 24.937" fill="none" stroke="#231815" stroke-width="0.1" fill-rule="evenodd"/><polyline points="67.513 24.753 67.061 24.919 66.545 23.5" fill="none" stroke="#231815" stroke-width="0.1" fill-rule="evenodd"/><circle cx="67.531" cy="23.915" r="0.708" transform="matrix(0.966, -0.259, 0.259, 0.966, -3.889, 18.3)" fill="#666" stroke="#464342" stroke-linecap="round" stroke-linejoin="round" stroke-width="0.1"/><polygon points="67.513 27.094 66.227 27.562 66.227 25.773 67.513 25.304 67.513 27.094" fill="none" stroke="#231815" stroke-width="0.1" fill-rule="evenodd"/><polyline points="67.513 26.91 67.061 27.076 66.545 25.656" fill="none" stroke="#231815" stroke-width="0.1" fill-rule="evenodd"/><circle cx="67.531" cy="26.072" r="0.708" transform="matrix(0.966, -0.259, 0.259, 0.966, -4.447, 18.373)" fill="#666" stroke="#464342" stroke-linecap="round" stroke-linejoin="round" stroke-width="0.1"/><polygon points="67.513 29.251 66.227 29.718 66.227 27.929 67.513 27.461 67.513 29.251" fill="none" stroke="#231815" stroke-width="0.1" fill-rule="evenodd"/><polyline points="67.513 29.067 67.061 29.232 66.545 27.813" fill="none" stroke="#231815" stroke-width="0.1" fill-rule="evenodd"/><circle cx="67.531" cy="28.228" r="0.708" transform="matrix(0.966, -0.259, 0.259, 0.966, -5.006, 18.447)" fill="#666" stroke="#464342" stroke-linecap="round" stroke-linejoin="round" stroke-width="0.1"/><polygon points="67.513 31.407 66.227 31.875 66.227 30.086 67.513 29.617 67.513 31.407" fill="none" stroke="#231815" stroke-width="0.1" fill-rule="evenodd"/><polyline points="67.513 31.223 67.061 31.389 66.545 29.97" fill="none" stroke="#231815" stroke-width="0.1" fill-rule="evenodd"/><circle cx="67.531" cy="30.385" r="0.708" transform="translate(-5.564 18.52) rotate(-15.005)" fill="#666" stroke="#464342" stroke-linecap="round" stroke-linejoin="round" stroke-width="0.1"/><polygon points="67.513 33.564 66.227 34.032 66.227 32.243 67.513 31.774 67.513 33.564" fill="none" stroke="#231815" stroke-width="0.1" fill-rule="evenodd"/><polyline points="67.513 33.38 67.061 33.545 66.545 32.126" fill="none" stroke="#231815" stroke-width="0.1" fill-rule="evenodd"/><circle cx="67.531" cy="32.542" r="0.708" transform="matrix(0.966, -0.259, 0.259, 0.966, -6.123, 18.594)" fill="#666" stroke="#464342" stroke-linecap="round" stroke-linejoin="round" stroke-width="0.1"/><polygon points="67.513 35.72 66.227 36.189 66.227 34.399 67.513 33.931 67.513 35.72" fill="none" stroke="#231815" stroke-width="0.1" fill-rule="evenodd"/><polyline points="67.513 35.536 67.061 35.702 66.545 34.283" fill="none" stroke="#231815" stroke-width="0.1" fill-rule="evenodd"/><circle cx="67.531" cy="34.698" r="0.708" transform="translate(-6.681 18.668) rotate(-15.006)" fill="#666" stroke="#464342" stroke-linecap="round" stroke-linejoin="round" stroke-width="0.1"/><circle cx="70.019" cy="35.862" r="0.708" transform="translate(-6.898 19.352) rotate(-15.006)" fill="#666" stroke="#464342" stroke-linecap="round" stroke-linejoin="round" stroke-width="0.1"/><path d="M64.3,18.483" fill="none" stroke="#231815" stroke-width="0.05"/><path d="M66.055,15.723a0.422,0.422,0,0,0-.422-0.422H65.294a0.422,0.422,0,0,0-.422.422V16.21a0.26,0.26,0,0,1-.15.222l-0.572.2a0.423,0.423,0,0,0-.275.4V33.756a0.422,0.422,0,0,0,.422.422l0.106-.016,0.13-.044,0.25-.089a0.422,0.422,0,0,0,.275-0.4V33.027a0.2,0.2,0,0,1,.236-0.157h0.339a0.422,0.422,0,0,0,.422-0.422V15.723Z" fill="#fff"/><path d="M65.011,17.677v2.065a0.281,0.281,0,0,1,.212-0.1h0.409a0.283,0.283,0,0,0,.283-0.282V17.677h-0.9Z" fill="#bd2829"/><path d="M65.633,19.789H65.294a0.283,0.283,0,0,0-.283.283V21.83h0.9V20.072A0.283,0.283,0,0,0,65.633,19.789Z" fill="#bd2829"/><path d="M65.011,21.915v2.137a0.284,0.284,0,0,1,.212-0.1h0.409a0.283,0.283,0,0,0,.283-0.282V21.915h-0.9Z" fill="#bd2829"/><path d="M65.633,24.1H65.294a0.283,0.283,0,0,0-.283.283v1.758h0.9V24.381A0.283,0.283,0,0,0,65.633,24.1Z" fill="#bd2829"/><path d="M65.011,26.224v2.137a0.283,0.283,0,0,1,.212-0.1h0.409a0.283,0.283,0,0,0,.283-0.282V26.224h-0.9Z" fill="#bd2829"/><path d="M65.633,28.406H65.294a0.283,0.283,0,0,0-.283.283v1.758h0.9V28.689A0.283,0.283,0,0,0,65.633,28.406Z" fill="#bd2829"/><path d="M65.011,30.532v2.25a0.282,0.282,0,0,1,.212-0.1h0.409a0.283,0.283,0,0,0,.283-0.283V30.532h-0.9Z" fill="#bd2829"/><path d="M64.81,16.547l-0.608.219a0.283,0.283,0,0,0-.187.266v1.953l0.912-.328V16.468A0.291,0.291,0,0,1,64.81,16.547Z" fill="#bd2829"/><path d="M64.014,19.082v1.63A0.283,0.283,0,0,0,64.3,21l0.1-.017,0.346-.129a0.284,0.284,0,0,0,.186-0.266V18.747Z" fill="#bd2829"/><path d="M64.81,20.972l-0.608.219a0.282,0.282,0,0,0-.187.266V23.3l0.912-.331V20.892A0.288,0.288,0,0,1,64.81,20.972Z" fill="#bd2829"/><path d="M64.014,23.39v1.63a0.283,0.283,0,0,0,.282.283l0.1-.017,0.346-.128a0.284,0.284,0,0,0,.186-0.266V23.056Z" fill="#bd2829"/><path d="M64.81,25.28L64.2,25.5a0.282,0.282,0,0,0-.187.266v1.841l0.912-.332V25.2A0.285,0.285,0,0,1,64.81,25.28Z" fill="#bd2829"/><path d="M64.014,27.7v1.63a0.283,0.283,0,0,0,.282.283l0.1-.017,0.346-.129a0.284,0.284,0,0,0,.186-0.266V27.364Z" fill="#bd2829"/><path d="M64.81,29.588l-0.608.22a0.282,0.282,0,0,0-.187.266v1.84l0.912-.331V29.509A0.28,0.28,0,0,1,64.81,29.588Z" fill="#bd2829"/><path d="M64.591,34.307l-0.407.146a0.256,0.256,0,0,0-.17.241v1.569a0.234,0.234,0,0,0,.233.241H64.6a0.235,0.235,0,0,0,.245-0.241v-1.8C64.841,34.222,64.591,34.307,64.591,34.307Z" fill="none" stroke="#fff" stroke-width="0.25"/><path d="M64.591,34.307l-0.407.146a0.256,0.256,0,0,0-.17.241v1.569a0.234,0.234,0,0,0,.233.241H64.6a0.235,0.235,0,0,0,.245-0.241v-1.8C64.841,34.222,64.591,34.307,64.591,34.307Z" fill="#bd2829"/><path d="M64.014,32.007v1.749a0.283,0.283,0,0,0,.282.282l0.1-.017,0.346-.129a0.284,0.284,0,0,0,.186-0.266V31.672Z" fill="#bd2829"/><path d="M65.633,15.44H65.294a0.283,0.283,0,0,0-.283.283v1.871h0.9V15.723A0.283,0.283,0,0,0,65.633,15.44Z" fill="#bd2829"/><path d="M65.764,33.106h-0.3a0.25,0.25,0,0,0-.25.25v1.435a0.25,0.25,0,0,0,.25.249h0.3a0.249,0.249,0,0,0,.249-0.249V33.356A0.249,0.249,0,0,0,65.764,33.106Z" fill="none" stroke="#fff" stroke-width="0.2"/><path d="M65.764,33.106h-0.3a0.25,0.25,0,0,0-.25.25v1.435a0.25,0.25,0,0,0,.25.249h0.3a0.249,0.249,0,0,0,.249-0.249V33.356A0.249,0.249,0,0,0,65.764,33.106Z" fill="#bd2829"/><line x1="67.015" y1="17.632" x2="68.047" y2="17.257" fill="none" stroke="#fff" stroke-linecap="round" stroke-linejoin="round" stroke-width="0.2"/><line x1="67.344" y1="16.929" x2="67.719" y2="17.961" fill="none" stroke="#fff" stroke-linecap="round" stroke-linejoin="round" stroke-width="0.2"/><line x1="67.015" y1="19.789" x2="68.047" y2="19.414" fill="none" stroke="#fff" stroke-linecap="round" stroke-linejoin="round" stroke-width="0.2"/><line x1="67.344" y1="19.085" x2="67.719" y2="20.118" fill="none" stroke="#fff" stroke-linecap="round" stroke-linejoin="round" stroke-width="0.2"/><line x1="67.015" y1="21.946" x2="68.047" y2="21.571" fill="none" stroke="#fff" stroke-linecap="round" stroke-linejoin="round" stroke-width="0.2"/><line x1="67.344" y1="21.242" x2="67.719" y2="22.274" fill="none" stroke="#fff" stroke-linecap="round" stroke-linejoin="round" stroke-width="0.2"/><line x1="67.015" y1="24.102" x2="68.047" y2="23.727" fill="none" stroke="#fff" stroke-linecap="round" stroke-linejoin="round" stroke-width="0.2"/><line x1="67.344" y1="23.399" x2="67.719" y2="24.431" fill="none" stroke="#fff" stroke-linecap="round" stroke-linejoin="round" stroke-width="0.2"/><line x1="69.503" y1="36.049" x2="70.535" y2="35.674" fill="none" stroke="#fff" stroke-linecap="round" stroke-linejoin="round" stroke-width="0.2"/><line x1="69.832" y1="35.346" x2="70.207" y2="36.378" fill="none" stroke="#fff" stroke-linecap="round" stroke-linejoin="round" stroke-width="0.2"/><line x1="67.015" y1="34.886" x2="68.047" y2="34.511" fill="none" stroke="#fff" stroke-linecap="round" stroke-linejoin="round" stroke-width="0.2"/><line x1="67.344" y1="34.182" x2="67.719" y2="35.214" fill="none" stroke="#fff" stroke-linecap="round" stroke-linejoin="round" stroke-width="0.2"/><line x1="67.015" y1="32.729" x2="68.047" y2="32.354" fill="none" stroke="#fff" stroke-linecap="round" stroke-linejoin="round" stroke-width="0.2"/><line x1="67.344" y1="32.025" x2="67.719" y2="33.057" fill="none" stroke="#fff" stroke-linecap="round" stroke-linejoin="round" stroke-width="0.2"/><line x1="67.015" y1="30.572" x2="68.047" y2="30.197" fill="none" stroke="#fff" stroke-linecap="round" stroke-linejoin="round" stroke-width="0.2"/><line x1="67.344" y1="29.868" x2="67.719" y2="30.901" fill="none" stroke="#fff" stroke-linecap="round" stroke-linejoin="round" stroke-width="0.2"/><line x1="67.015" y1="28.416" x2="68.047" y2="28.041" fill="none" stroke="#fff" stroke-linecap="round" stroke-linejoin="round" stroke-width="0.2"/><line x1="67.344" y1="27.712" x2="67.719" y2="28.744" fill="none" stroke="#fff" stroke-linecap="round" stroke-linejoin="round" stroke-width="0.2"/><line x1="67.015" y1="26.259" x2="68.047" y2="25.884" fill="none" stroke="#fff" stroke-linecap="round" stroke-linejoin="round" stroke-width="0.2"/><line x1="67.344" y1="25.555" x2="67.719" y2="26.587" fill="none" stroke="#fff" stroke-linecap="round" stroke-linejoin="round" stroke-width="0.2"/><rect x="67.513" y="15.515" width="4.056" height="20.732" fill="#666464"/><polygon points="68.146 15.515 68.146 15.044 67.513 15.044 67.513 15.515 67.513 36.247 67.513 36.718 68.146 36.718 68.146 36.247 71.108 36.247 71.108 36.047 71.108 15.715 71.108 15.515 68.146 15.515" fill="none" stroke="#333" stroke-width="0.1" fill-rule="evenodd"/><path d="M66.383,15.045h5.029a0.157,0.157,0,0,1,.157.157V36.6a0.157,0.157,0,0,1-.157.157H66.384a0.157,0.157,0,0,1-.157-0.157V15.2A0.156,0.156,0,0,1,66.383,15.045Z" fill="none" stroke="#231815" stroke-width="0.1"/><line x1="67.513" y1="15.044" x2="67.513" y2="36.756" fill="none" stroke="#231815" stroke-width="0.1"/><line x1="67.513" y1="15.515" x2="71.569" y2="15.515" fill="none" stroke="#231815" stroke-width="0.1"/><line x1="67.513" y1="36.247" x2="71.569" y2="36.247" fill="none" stroke="#231815" stroke-width="0.1"/><polygon points="68.197 26.971 67.97 27.211 67.97 27.832 68.197 28.051 70.848 28.051 71.072 27.833 71.072 27.209 70.848 26.971 68.197 26.971" fill="#e6e6e6"/><polygon points="68.197 28.108 67.97 28.348 67.97 28.967 68.197 29.186 70.848 29.186 71.072 28.968 71.072 28.346 70.848 28.108 68.197 28.108" fill="#e6e6e6"/><polygon points="68.197 31.881 67.97 32.121 67.97 32.747 68.197 32.967 70.848 32.967 71.072 32.749 71.072 32.119 70.848 31.881 68.197 31.881" fill="#e6e6e6"/><polygon points="68.197 33.024 67.97 33.263 67.97 33.882 68.197 34.101 70.848 34.101 71.072 33.884 71.072 33.262 70.848 33.024 68.197 33.024" fill="#e6e6e6"/><polygon points="68.197 34.158 67.97 34.398 67.97 35.024 68.197 35.244 70.848 35.244 71.072 35.026 71.072 34.397 70.848 34.158 68.197 34.158" fill="#e6e6e6"/><polygon points="68.197 30.69 67.97 30.93 67.97 31.605 68.197 31.824 70.848 31.824 71.072 31.606 71.072 30.928 70.848 30.69 68.197 30.69" fill="#e6e6e6"/><polygon points="68.197 29.243 67.97 29.483 67.97 30.167 68.197 30.386 70.848 30.386 71.072 30.168 71.072 29.481 70.848 29.243 68.197 29.243" fill="#e6e6e6"/><polygon points="68.197 25.777 67.97 26.018 67.97 26.695 68.197 26.914 70.848 26.914 71.072 26.696 71.072 26.016 70.848 25.777 68.197 25.777" fill="#e6e6e6"/><polygon points="68.197 24.332 67.97 24.572 67.97 25.25 68.197 25.469 70.848 25.469 71.072 25.252 71.072 24.57 70.848 24.332 68.197 24.332" fill="#e6e6e6"/><polygon points="70.848 17.081 71.072 16.863 71.072 16.241 70.848 16.002 68.197 16.002 67.97 16.242 67.97 16.862 68.197 17.081 70.848 17.081" fill="#e6e6e6"/><polygon points="68.197 17.138 67.97 17.378 67.97 18.004 68.197 18.223 70.848 18.223 71.072 18.005 71.072 17.376 70.848 17.138 68.197 17.138" fill="#e6e6e6"/><polygon points="68.197 18.279 67.97 18.52 67.97 19.14 68.197 19.359 70.848 19.358 71.072 19.141 71.072 18.518 70.848 18.279 68.197 18.279" fill="#e6e6e6"/><polygon points="68.197 22.052 67.97 22.293 67.97 22.918 68.197 23.137 70.848 23.137 71.072 22.919 71.072 22.291 70.848 22.052 68.197 22.052" fill="#e6e6e6"/><polygon points="68.197 23.193 67.97 23.434 67.97 24.056 68.197 24.276 70.848 24.276 71.072 24.058 71.072 23.432 70.848 23.193 68.197 23.193" fill="#e6e6e6"/><polygon points="68.197 20.861 67.97 21.101 67.97 21.776 68.197 21.996 70.848 21.996 71.072 21.778 71.072 21.099 70.848 20.861 68.197 20.861" fill="#e6e6e6"/><polygon points="68.197 19.415 67.97 19.655 67.97 20.281 68.197 20.501 70.848 20.501 71.072 20.283 71.072 19.654 70.848 19.415 68.197 19.415" fill="#e6e6e6"/><line x1="68.817" y1="16.002" x2="68.817" y2="35.244" fill="none" stroke="#666464" stroke-width="0.1"/><path d="M60.223,15.045h3.11a0.157,0.157,0,0,1,.157.157V36.6a0.157,0.157,0,0,1-.157.157H60.224a0.157,0.157,0,0,1-.157-0.157V15.2A0.156,0.156,0,0,1,60.223,15.045Z" fill="#8c8c8c"/><polygon points="60.067 15.515 60.067 15.045 59.434 15.045 59.434 15.515 59.434 36.247 59.434 36.718 60.067 36.718 60.067 36.247 63.029 36.247 63.029 36.047 63.029 15.715 63.029 15.515 60.067 15.515" fill="none" stroke="#333" stroke-width="0.1" fill-rule="evenodd"/><path d="M58.3,15.045h5.029a0.157,0.157,0,0,1,.157.157V36.6a0.157,0.157,0,0,1-.157.157H58.3a0.157,0.157,0,0,1-.157-0.157V15.2A0.156,0.156,0,0,1,58.3,15.045Z" fill="none" stroke="#595757" stroke-width="0.1"/><path d="M60.223,15.045h3.11a0.157,0.157,0,0,1,.157.157V36.6a0.157,0.157,0,0,1-.157.157H60.224a0.157,0.157,0,0,1-.157-0.157V15.2A0.156,0.156,0,0,1,60.223,15.045Z" fill="#8c8c8c"/><polygon points="59.434 18.468 58.148 18.936 58.148 17.147 59.434 16.678 59.434 18.468" fill="none" stroke="#231815" stroke-width="0.1" fill-rule="evenodd"/><polyline points="59.434 18.284 58.982 18.449 58.466 17.03" fill="none" stroke="#231815" stroke-width="0.1" fill-rule="evenodd"/><circle cx="59.452" cy="17.445" r="0.708" transform="translate(-2.49 15.988) rotate(-15.006)" fill="#666" stroke="#464342" stroke-linecap="round" stroke-linejoin="round" stroke-width="0.1"/><polygon points="59.434 20.624 58.148 21.092 58.148 19.303 59.434 18.834 59.434 20.624" fill="none" stroke="#231815" stroke-width="0.1" fill-rule="evenodd"/><polyline points="59.434 20.44 58.982 20.606 58.466 19.187" fill="none" stroke="#231815" stroke-width="0.1" fill-rule="evenodd"/><circle cx="59.452" cy="19.602" r="0.708" transform="translate(-3.048 16.062) rotate(-15.006)" fill="#666" stroke="#464342" stroke-linecap="round" stroke-linejoin="round" stroke-width="0.1"/><polygon points="59.434 22.781 58.148 23.249 58.148 21.46 59.434 20.991 59.434 22.781" fill="none" stroke="#231815" stroke-width="0.1" fill-rule="evenodd"/><polyline points="59.434 22.597 58.982 22.763 58.466 21.343" fill="none" stroke="#231815" stroke-width="0.1" fill-rule="evenodd"/><circle cx="59.452" cy="21.759" r="0.708" transform="translate(-3.606 16.135) rotate(-15.006)" fill="#666" stroke="#464342" stroke-linecap="round" stroke-linejoin="round" stroke-width="0.1"/><polygon points="59.434 24.938 58.148 25.406 58.148 23.616 59.434 23.148 59.434 24.938" fill="none" stroke="#231815" stroke-width="0.1" fill-rule="evenodd"/><polyline points="59.434 24.754 58.982 24.919 58.466 23.5" fill="none" stroke="#231815" stroke-width="0.1" fill-rule="evenodd"/><circle cx="59.452" cy="23.915" r="0.708" transform="translate(-4.165 16.209) rotate(-15.006)" fill="#666" stroke="#464342" stroke-linecap="round" stroke-linejoin="round" stroke-width="0.1"/><polygon points="59.434 27.094 58.148 27.562 58.148 25.773 59.434 25.304 59.434 27.094" fill="none" stroke="#231815" stroke-width="0.1" fill-rule="evenodd"/><polyline points="59.434 26.91 58.982 27.076 58.466 25.657" fill="none" stroke="#231815" stroke-width="0.1" fill-rule="evenodd"/><circle cx="59.452" cy="26.072" r="0.708" transform="translate(-4.723 16.282) rotate(-15.006)" fill="#666" stroke="#464342" stroke-linecap="round" stroke-linejoin="round" stroke-width="0.1"/><polygon points="59.434 29.251 58.148 29.719 58.148 27.93 59.434 27.461 59.434 29.251" fill="none" stroke="#231815" stroke-width="0.1" fill-rule="evenodd"/><polyline points="59.434 29.067 58.982 29.233 58.466 27.813" fill="none" stroke="#231815" stroke-width="0.1" fill-rule="evenodd"/><circle cx="59.452" cy="28.229" r="0.708" transform="translate(-5.282 16.356) rotate(-15.006)" fill="#666" stroke="#464342" stroke-linecap="round" stroke-linejoin="round" stroke-width="0.1"/><polygon points="59.434 31.408 58.148 31.876 58.148 30.086 59.434 29.618 59.434 31.408" fill="none" stroke="#231815" stroke-width="0.1" fill-rule="evenodd"/><polyline points="59.434 31.224 58.982 31.389 58.466 29.97" fill="none" stroke="#231815" stroke-width="0.1" fill-rule="evenodd"/><circle cx="59.452" cy="30.385" r="0.708" transform="translate(-5.84 16.429) rotate(-15.006)" fill="#666" stroke="#464342" stroke-linecap="round" stroke-linejoin="round" stroke-width="0.1"/><polygon points="59.434 33.564 58.148 34.032 58.148 32.243 59.434 31.774 59.434 33.564" fill="none" stroke="#231815" stroke-width="0.1" fill-rule="evenodd"/><polyline points="59.434 33.38 58.982 33.546 58.466 32.127" fill="none" stroke="#231815" stroke-width="0.1" fill-rule="evenodd"/><circle cx="59.452" cy="32.542" r="0.708" transform="translate(-6.398 16.503) rotate(-15.006)" fill="#666" stroke="#464342" stroke-linecap="round" stroke-linejoin="round" stroke-width="0.1"/><polygon points="59.434 35.721 58.148 36.189 58.148 34.4 59.434 33.931 59.434 35.721" fill="none" stroke="#231815" stroke-width="0.1" fill-rule="evenodd"/><polyline points="59.434 35.537 58.982 35.702 58.466 34.283" fill="none" stroke="#231815" stroke-width="0.1" fill-rule="evenodd"/><circle cx="59.452" cy="34.699" r="0.708" transform="translate(-6.957 16.576) rotate(-15.006)" fill="#666" stroke="#464342" stroke-linecap="round" stroke-linejoin="round" stroke-width="0.1"/><circle cx="61.94" cy="35.862" r="0.708" transform="translate(-7.173 17.26) rotate(-15.006)" fill="#666" stroke="#464342" stroke-linecap="round" stroke-linejoin="round" stroke-width="0.1"/><path d="M56.932,17.677v2.065a0.281,0.281,0,0,1,.212-0.1h0.409a0.283,0.283,0,0,0,.283-0.282V17.677h-0.9Z" fill="#e6e6e6"/><path d="M57.554,19.789H57.215a0.283,0.283,0,0,0-.283.283v1.758h0.9V20.072A0.283,0.283,0,0,0,57.554,19.789Z" fill="#e6e6e6"/><path d="M56.932,21.916v2.137a0.284,0.284,0,0,1,.212-0.1h0.409a0.283,0.283,0,0,0,.283-0.282V21.916h-0.9Z" fill="#e6e6e6"/><path d="M57.554,24.1H57.215a0.283,0.283,0,0,0-.283.283v1.758h0.9V24.381A0.283,0.283,0,0,0,57.554,24.1Z" fill="#e6e6e6"/><path d="M56.932,26.224v2.137a0.283,0.283,0,0,1,.212-0.1h0.409a0.283,0.283,0,0,0,.283-0.282V26.224h-0.9Z" fill="#e6e6e6"/><path d="M57.554,28.406H57.215a0.283,0.283,0,0,0-.283.283v1.758h0.9V28.689A0.283,0.283,0,0,0,57.554,28.406Z" fill="#e6e6e6"/><path d="M56.932,30.533v2.25a0.282,0.282,0,0,1,.212-0.1h0.409a0.283,0.283,0,0,0,.283-0.283V30.533h-0.9Z" fill="#e6e6e6"/><path d="M56.731,16.547l-0.608.219a0.283,0.283,0,0,0-.187.266v1.954l0.912-.329V16.468A0.291,0.291,0,0,1,56.731,16.547Z" fill="#e6e6e6"/><path d="M55.935,19.082v1.63a0.283,0.283,0,0,0,.282.283l0.1-.017,0.346-.129a0.284,0.284,0,0,0,.186-0.266V18.748Z" fill="#e6e6e6"/><path d="M56.731,20.972l-0.608.219a0.282,0.282,0,0,0-.187.266V23.3l0.912-.331V20.893A0.288,0.288,0,0,1,56.731,20.972Z" fill="#e6e6e6"/><path d="M55.935,23.39v1.63a0.283,0.283,0,0,0,.282.283l0.1-.017,0.346-.129a0.284,0.284,0,0,0,.186-0.266V23.056Z" fill="#e6e6e6"/><path d="M56.731,25.28l-0.608.219a0.282,0.282,0,0,0-.187.266v1.841l0.912-.332V25.2A0.285,0.285,0,0,1,56.731,25.28Z" fill="#e6e6e6"/><path d="M55.935,27.7v1.63a0.283,0.283,0,0,0,.282.283l0.1-.017,0.346-.129a0.284,0.284,0,0,0,.186-0.266V27.364Z" fill="#e6e6e6"/><path d="M56.731,29.588l-0.608.22a0.282,0.282,0,0,0-.187.266v1.84l0.912-.331V29.51A0.28,0.28,0,0,1,56.731,29.588Z" fill="#e6e6e6"/><path d="M56.571,34.007l-0.449.162a0.282,0.282,0,0,0-.187.266v1.8a0.258,0.258,0,0,0,.257.266h0.385a0.259,0.259,0,0,0,.27-0.266V34.18C56.847,33.914,56.571,34.007,56.571,34.007Z" fill="#e6e6e6"/><path d="M55.935,32.008v1.749a0.283,0.283,0,0,0,.282.282l0.1-.017,0.346-.129a0.284,0.284,0,0,0,.186-0.266V31.673Z" fill="#e6e6e6"/><path d="M57.554,15.44H57.215a0.283,0.283,0,0,0-.283.283v1.871h0.9V15.723A0.283,0.283,0,0,0,57.554,15.44Z" fill="#e6e6e6"/><path d="M57.552,32.828H57.213a0.283,0.283,0,0,0-.283.283v1.47a0.283,0.283,0,0,0,.283.282h0.339a0.282,0.282,0,0,0,.282-0.282v-1.47A0.282,0.282,0,0,0,57.552,32.828Z" fill="#e6e6e6"/><line x1="61.424" y1="36.05" x2="62.456" y2="35.675" fill="none" stroke="#fff" stroke-linecap="round" stroke-linejoin="round" stroke-width="0.2"/><line x1="61.753" y1="35.346" x2="62.128" y2="36.378" fill="none" stroke="#fff" stroke-linecap="round" stroke-linejoin="round" stroke-width="0.2"/><line x1="58.936" y1="34.886" x2="59.968" y2="34.511" fill="none" stroke="#fff" stroke-linecap="round" stroke-linejoin="round" stroke-width="0.2"/><line x1="59.265" y1="34.182" x2="59.64" y2="35.215" fill="none" stroke="#fff" stroke-linecap="round" stroke-linejoin="round" stroke-width="0.2"/><line x1="58.936" y1="32.729" x2="59.968" y2="32.354" fill="none" stroke="#fff" stroke-linecap="round" stroke-linejoin="round" stroke-width="0.2"/><line x1="59.265" y1="32.026" x2="59.64" y2="33.058" fill="none" stroke="#fff" stroke-linecap="round" stroke-linejoin="round" stroke-width="0.2"/><line x1="58.936" y1="30.572" x2="59.968" y2="30.197" fill="none" stroke="#fff" stroke-linecap="round" stroke-linejoin="round" stroke-width="0.2"/><line x1="59.265" y1="29.869" x2="59.64" y2="30.901" fill="none" stroke="#fff" stroke-linecap="round" stroke-linejoin="round" stroke-width="0.2"/><line x1="58.936" y1="28.416" x2="59.968" y2="28.041" fill="none" stroke="#fff" stroke-linecap="round" stroke-linejoin="round" stroke-width="0.2"/><line x1="59.265" y1="27.712" x2="59.64" y2="28.744" fill="none" stroke="#fff" stroke-linecap="round" stroke-linejoin="round" stroke-width="0.2"/><line x1="58.936" y1="26.259" x2="59.968" y2="25.884" fill="none" stroke="#fff" stroke-linecap="round" stroke-linejoin="round" stroke-width="0.2"/><line x1="59.265" y1="25.556" x2="59.64" y2="26.588" fill="none" stroke="#fff" stroke-linecap="round" stroke-linejoin="round" stroke-width="0.2"/><line x1="58.936" y1="24.103" x2="59.968" y2="23.728" fill="none" stroke="#fff" stroke-linecap="round" stroke-linejoin="round" stroke-width="0.2"/><line x1="59.265" y1="23.399" x2="59.64" y2="24.431" fill="none" stroke="#fff" stroke-linecap="round" stroke-linejoin="round" stroke-width="0.2"/><line x1="58.936" y1="21.946" x2="59.968" y2="21.571" fill="none" stroke="#fff" stroke-linecap="round" stroke-linejoin="round" stroke-width="0.2"/><line x1="59.265" y1="21.242" x2="59.64" y2="22.275" fill="none" stroke="#fff" stroke-linecap="round" stroke-linejoin="round" stroke-width="0.2"/><line x1="58.936" y1="19.789" x2="59.968" y2="19.414" fill="none" stroke="#fff" stroke-linecap="round" stroke-linejoin="round" stroke-width="0.2"/><line x1="59.265" y1="19.086" x2="59.64" y2="20.118" fill="none" stroke="#fff" stroke-linecap="round" stroke-linejoin="round" stroke-width="0.2"/><line x1="58.936" y1="17.633" x2="59.968" y2="17.258" fill="none" stroke="#fff" stroke-linecap="round" stroke-linejoin="round" stroke-width="0.2"/><line x1="59.265" y1="16.929" x2="59.64" y2="17.961" fill="none" stroke="#fff" stroke-linecap="round" stroke-linejoin="round" stroke-width="0.2"/><rect x="59.434" y="15.515" width="4.056" height="20.732" fill="#666464"/><polygon points="60.067 15.515 60.067 15.045 59.434 15.045 59.434 15.515 59.434 36.247 59.434 36.718 60.067 36.718 60.067 36.247 63.029 36.247 63.029 36.047 63.029 15.715 63.029 15.515 60.067 15.515" fill="none" stroke="#333" stroke-width="0.1" fill-rule="evenodd"/><path d="M58.3,15.045h5.029a0.157,0.157,0,0,1,.157.157V36.6a0.157,0.157,0,0,1-.157.157H58.3a0.157,0.157,0,0,1-.157-0.157V15.2A0.156,0.156,0,0,1,58.3,15.045Z" fill="none" stroke="#231815" stroke-width="0.1"/><line x1="59.434" y1="15.045" x2="59.434" y2="36.756" fill="none" stroke="#231815" stroke-width="0.1"/><line x1="59.434" y1="15.515" x2="63.49" y2="15.515" fill="none" stroke="#231815" stroke-width="0.1"/><line x1="59.434" y1="36.247" x2="63.49" y2="36.247" fill="none" stroke="#231815" stroke-width="0.1"/><polygon points="60.119 26.971 59.891 27.211 59.891 27.832 60.119 28.051 62.769 28.051 62.993 27.834 62.993 27.209 62.769 26.971 60.119 26.971" fill="#e6e6e6"/><polygon points="60.119 28.108 59.891 28.348 59.891 28.967 60.119 29.186 62.769 29.186 62.993 28.968 62.993 28.347 62.769 28.108 60.119 28.108" fill="#e6e6e6"/><polygon points="60.119 31.881 59.891 32.122 59.891 32.748 60.119 32.967 62.769 32.967 62.993 32.749 62.993 32.12 62.769 31.881 60.119 31.881" fill="#e6e6e6"/><polygon points="60.119 33.024 59.891 33.264 59.891 33.883 60.119 34.102 62.769 34.102 62.993 33.885 62.993 33.262 62.769 33.024 60.119 33.024" fill="#e6e6e6"/><polygon points="60.119 34.159 59.891 34.399 59.891 35.025 60.119 35.244 62.769 35.244 62.993 35.026 62.993 34.397 62.769 34.159 60.119 34.159" fill="#e6e6e6"/><polygon points="60.119 30.69 59.891 30.93 59.891 31.606 60.119 31.825 62.769 31.825 62.993 31.607 62.993 30.928 62.769 30.69 60.119 30.69" fill="#e6e6e6"/><polygon points="60.119 29.243 59.891 29.483 59.891 30.167 60.119 30.386 62.769 30.386 62.993 30.168 62.993 29.481 62.769 29.243 60.119 29.243" fill="#e6e6e6"/><polygon points="60.119 25.778 59.891 26.018 59.891 26.695 60.119 26.914 62.769 26.914 62.993 26.697 62.993 26.016 62.769 25.778 60.119 25.778" fill="#e6e6e6"/><polygon points="60.119 24.332 59.891 24.573 59.891 25.25 60.119 25.47 62.769 25.47 62.993 25.252 62.993 24.571 62.769 24.332 60.119 24.332" fill="#e6e6e6"/><polygon points="62.769 17.082 62.993 16.864 62.993 16.241 62.769 16.002 60.119 16.002 59.891 16.243 59.891 16.862 60.119 17.082 62.769 17.082" fill="#e6e6e6"/><polygon points="60.119 17.138 59.891 17.378 59.891 18.004 60.119 18.223 62.769 18.223 62.993 18.006 62.993 17.377 62.769 17.138 60.119 17.138" fill="#e6e6e6"/><polygon points="60.119 18.28 59.891 18.52 59.891 19.14 60.119 19.359 62.769 19.359 62.993 19.141 62.993 18.518 62.769 18.28 60.119 18.28" fill="#e6e6e6"/><polygon points="60.119 22.053 59.891 22.293 59.891 22.918 60.119 23.137 62.769 23.137 62.993 22.92 62.993 22.291 62.769 22.053 60.119 22.053" fill="#e6e6e6"/><polygon points="60.119 23.194 59.891 23.434 59.891 24.056 60.119 24.276 62.769 24.276 62.993 24.058 62.993 23.432 62.769 23.194 60.119 23.194" fill="#e6e6e6"/><polygon points="60.119 20.861 59.891 21.101 59.891 21.777 60.119 21.996 62.769 21.996 62.993 21.779 62.993 21.1 62.769 20.861 60.119 20.861" fill="#e6e6e6"/><polygon points="60.119 19.415 59.891 19.656 59.891 20.281 60.119 20.501 62.769 20.501 62.993 20.283 62.993 19.654 62.769 19.415 60.119 19.415" fill="#e6e6e6"/><line x1="60.738" y1="16.002" x2="60.738" y2="35.244" fill="none" stroke="#666464" stroke-width="0.1"/><rect x="30.9" y="19.316" width="1.513" height="0.202" fill="#404040"/><rect x="30.9" y="20.026" width="1.513" height="0.202" fill="#404040"/><rect x="30.9" y="20.737" width="1.513" height="0.202" fill="#404040"/><rect x="30.9" y="21.447" width="1.513" height="0.202" fill="#404040"/><rect x="30.9" y="22.158" width="1.513" height="0.202" fill="#404040"/><rect x="30.9" y="22.868" width="1.513" height="0.202" fill="#404040"/><rect x="30.9" y="23.579" width="1.513" height="0.202" fill="#404040"/><rect x="30.9" y="24.289" width="1.513" height="0.202" fill="#404040"/><rect x="30.9" y="25" width="1.513" height="0.202" fill="#404040"/><rect x="30.9" y="25.71" width="1.513" height="0.202" fill="#404040"/><rect x="30.9" y="26.421" width="1.513" height="0.202" fill="#404040"/><rect x="30.9" y="27.132" width="1.513" height="0.202" fill="#404040"/><rect x="30.9" y="27.842" width="1.513" height="0.202" fill="#404040"/><rect x="30.9" y="28.553" width="1.513" height="0.202" fill="#404040"/><rect x="30.9" y="29.263" width="1.513" height="0.203" fill="#404040"/><rect x="30.9" y="29.974" width="1.513" height="0.203" fill="#404040"/><rect x="30.9" y="30.684" width="1.513" height="0.203" fill="#404040"/><rect x="30.9" y="31.395" width="1.513" height="0.203" fill="#404040"/><rect x="30.9" y="32.105" width="1.513" height="0.203" fill="#404040"/><rect x="28.297" y="29.123" width="0.58" height="3.168" fill="#262626"/><path d="M28.877,35.8H28.41a0.114,0.114,0,0,1-.113-0.115V32.547h0.58V35.8Z" fill="#262626" fill-rule="evenodd"/><path d="M28.934,18.589H28.3V15.518A0.114,0.114,0,0,1,28.41,15.4h0.524v3.185Z" fill="#262626" fill-rule="evenodd"/><rect x="28.297" y="18.84" width="0.637" height="3.176" fill="#262626"/><rect x="28.297" y="22.273" width="0.637" height="3.168" fill="#262626"/><rect x="28.297" y="25.698" width="0.637" height="3.168" fill="#262626"/><rect x="18.763" y="33.242" width="0.991" height="2.417" fill="#262626"/><rect x="18.69" y="33.45" width="1.138" height="0.159" fill="#595959"/><rect x="18.69" y="33.818" width="1.138" height="0.159" fill="#595959"/><rect x="18.69" y="34.187" width="1.138" height="0.159" fill="#595959"/><rect x="18.69" y="34.555" width="1.138" height="0.159" fill="#595959"/><rect x="18.69" y="34.924" width="1.138" height="0.159" fill="#595959"/><rect x="18.69" y="35.292" width="1.138" height="0.159" fill="#595959"/><rect x="2.204" y="11.244" width="69.591" height="25.512" fill="none" stroke="#000" stroke-linecap="round" stroke-width="0.15"/><line x1="47.559" y1="11.244" x2="47.559" y2="36.757" fill="none" stroke="#000" stroke-width="0.1"/><line x1="63.717" y1="11.244" x2="63.717" y2="36.757" fill="none" stroke="#231815" stroke-width="0.1"/><line x1="55.638" y1="36.757" x2="55.638" y2="11.244" fill="none" stroke="#231815" stroke-width="0.1"/><line x1="34.803" y1="36.757" x2="34.803" y2="11.244" fill="none" stroke="#000" stroke-width="0.1"/></svg>