<svg xmlns="http://www.w3.org/2000/svg" xmlns:xlink="http://www.w3.org/1999/xlink" width="74" height="48" viewBox="0 0 74 48"><defs><linearGradient id="a" x1="13.901" y1="9.241" x2="13.072" y2="9.241" gradientUnits="userSpaceOnUse"><stop offset="0" stop-color="#262626"/><stop offset="0.583" stop-color="#262626"/><stop offset="0.622" stop-color="#353535"/><stop offset="0.694" stop-color="#4b4b4b"/><stop offset="0.774" stop-color="#5a5a5a"/><stop offset="0.867" stop-color="#636363"/><stop offset="1" stop-color="#666"/></linearGradient><linearGradient id="b" x1="16.855" y1="15.983" x2="18.076" y2="15.983" gradientUnits="userSpaceOnUse"><stop offset="0" stop-color="#727171"/><stop offset="0.6" stop-color="#9fa0a0"/><stop offset="1" stop-color="#727171"/></linearGradient><linearGradient id="c" x1="14.675" y1="15.39" x2="18.124" y2="15.39" gradientUnits="userSpaceOnUse"><stop offset="0" stop-color="#727171"/><stop offset="0.308" stop-color="#9fa0a0"/><stop offset="0.626" stop-color="#727171"/><stop offset="0.857" stop-color="#9fa0a0"/><stop offset="1" stop-color="#9fa0a0"/></linearGradient><linearGradient id="d" x1="14.675" y1="19.598" x2="18.124" y2="19.598" xlink:href="#c"/><linearGradient id="e" x1="16.855" y1="19.01" x2="18.076" y2="19.01" xlink:href="#b"/><linearGradient id="f" x1="16.191" y1="29.01" x2="16.299" y2="29.626" gradientUnits="userSpaceOnUse"><stop offset="0.159" stop-color="#1a1a1a"/><stop offset="0.332" stop-color="#262626"/><stop offset="0.646" stop-color="#464646"/><stop offset="1" stop-color="#727171"/></linearGradient><linearGradient id="g" x1="16.191" y1="38.52" x2="16.299" y2="39.135" xlink:href="#f"/><linearGradient id="h" x1="13.901" y1="13.632" x2="13.072" y2="13.632" xlink:href="#a"/><linearGradient id="i" x1="13.901" y1="15.826" x2="13.072" y2="15.826" xlink:href="#a"/><linearGradient id="j" x1="13.901" y1="18.023" x2="13.072" y2="18.023" xlink:href="#a"/><linearGradient id="k" x1="13.901" y1="20.217" x2="13.072" y2="20.217" xlink:href="#a"/><linearGradient id="l" x1="13.901" y1="11.435" x2="13.072" y2="11.435" xlink:href="#a"/><linearGradient id="m" x1="13.901" y1="22.806" x2="13.072" y2="22.806" xlink:href="#a"/><linearGradient id="n" x1="13.901" y1="24.367" x2="13.072" y2="24.367" xlink:href="#a"/><linearGradient id="o" x1="13.901" y1="25.927" x2="13.072" y2="25.927" xlink:href="#a"/><linearGradient id="p" x1="13.901" y1="27.489" x2="13.072" y2="27.489" xlink:href="#a"/><linearGradient id="q" x1="13.901" y1="29.048" x2="13.072" y2="29.048" xlink:href="#a"/><linearGradient id="r" x1="13.901" y1="31.565" x2="13.072" y2="31.565" xlink:href="#a"/><linearGradient id="s" x1="13.901" y1="33.766" x2="13.072" y2="33.766" xlink:href="#a"/><linearGradient id="t" x1="13.901" y1="35.968" x2="13.072" y2="35.968" xlink:href="#a"/><clipPath id="u"><rect x="42.757" y="29.049" width="13.275" height="17.34" fill="none"/></clipPath><linearGradient id="v" x1="-123.884" y1="95.313" x2="-122.845" y2="95.313" gradientTransform="matrix(0, 16.644, 16.644, 0, -1537.025, 2091.036)" gradientUnits="userSpaceOnUse"><stop offset="0" stop-color="#636262"/><stop offset="0.11" stop-color="#8b8b8b"/><stop offset="0.159" stop-color="#44403f"/><stop offset="0.863" stop-color="#322b29"/><stop offset="0.901" stop-color="#5c5a5a"/><stop offset="0.956" stop-color="#231815"/><stop offset="1" stop-color="#474342"/></linearGradient><clipPath id="w"><rect x="34.37" y="29.049" width="8.386" height="17.34" fill="none"/></clipPath><clipPath id="x"><rect x="35.149" y="27.623" width="4.74" height="1.426" fill="none"/></clipPath><clipPath id="y"><rect x="59.441" y="35.586" width="6.852" height="4.26" fill="none"/></clipPath><linearGradient id="z" x1="-128.263" y1="86.786" x2="-127.225" y2="86.786" gradientTransform="matrix(0, 4.996, 4.996, 0, -370.753, 676.36)" gradientUnits="userSpaceOnUse"><stop offset="0" stop-color="#636262"/><stop offset="0.555" stop-color="#e4e4e5"/><stop offset="1" stop-color="#474342"/></linearGradient></defs><title>melservo_j3_t</title><rect width="74" height="48" fill="#fff"/><rect x="8.117" y="0.617" width="11.717" height="46.762" fill="#898989"/><rect x="10.45" y="15.009" width="7.758" height="22.224" fill="#1a1a1a" stroke="#1a1a1a" stroke-linecap="round" stroke-linejoin="round" stroke-width="0.048"/><rect x="16.719" y="12.236" width="1.539" height="3.573" fill="#1a1a1a"/><rect x="13.308" y="11.625" width="2.54" height="0.855" fill="#1a1a1a"/><rect x="13.308" y="10.499" width="2.54" height="0.856" fill="#1a1a1a"/><rect x="13.308" y="9.278" width="2.54" height="0.856" fill="#1a1a1a"/><rect x="13.308" y="8.106" width="2.54" height="0.855" fill="#1a1a1a"/><path d="M17.091,14.286H16.725v0.093a0.6,0.6,0,0,1-.6.6h-0.3a0.677,0.677,0,0,0-.017.083V15.28a0.779,0.779,0,0,0,.777.778h0.5a0.781,0.781,0,0,0,.779-0.778V15.063A0.781,0.781,0,0,0,17.091,14.286Z" fill="#1a1a1a"/><polyline points="14.618 8.033 14.618 21.305 10.156 21.305" fill="none" stroke="#000" stroke-linecap="round" stroke-width="0.048"/><polyline points="14.618 21.287 14.618 29.907 10.156 29.907" fill="none" stroke="#000" stroke-linecap="round" stroke-width="0.048"/><polyline points="14.618 30.349 14.618 36.956 10.156 36.956" fill="none" stroke="#000" stroke-linecap="round" stroke-width="0.048"/><rect x="8.117" y="0.617" width="11.717" height="7.174" fill="#5e5d5c"/><rect x="8.117" y="0.617" width="11.717" height="46.762" fill="none" stroke="#231815" stroke-width="0.065"/><path d="M13.128,41.366h4.535a0.533,0.533,0,0,1,.533.533v2.532a0.533,0.533,0,0,1-.533.533H13.128a0.532,0.532,0,0,1-.532-0.532V41.9A0.532,0.532,0,0,1,13.128,41.366Z"/><path d="M18.2,46.356a0.52,0.52,0,0,1-.5.531H16.711a0.519,0.519,0,0,1-.5-0.531v-2.7a0.519,0.519,0,0,1,.5-0.533h0.982a0.52,0.52,0,0,1,.5.533v2.7Z"/><circle cx="10.443" cy="39.187" r="0.541"/><path d="M16.49,44.948v1.584h1.5V44.948h-1.5Zm1.369,0.364-0.109.057L17.759,45.5l0.1,0.015v0.4l-0.094.064,0,0.12,0.1,0.063v0.28h-1.28v-1.4h1.28v0.271Z" fill="#fff"/><circle cx="16.901" cy="45.428" r="0.07" fill="#fff100"/><circle cx="16.901" cy="46.027" r="0.07" fill="#fff100"/><polygon points="13.093 41.857 17.104 41.857 17.762 42.545 17.762 43.772 17.104 44.463 13.093 44.463 13.093 41.857" fill="#333" stroke="#fff" stroke-linecap="round" stroke-width="0.048"/><line x1="16.899" y1="42.801" x2="13.956" y2="42.801" fill="none" stroke="#f29a76" stroke-width="0.048"/><line x1="16.674" y1="42.801" x2="16.529" y2="42.801" fill="none" stroke="#333" stroke-width="0.12"/><line x1="16.303" y1="42.801" x2="16.158" y2="42.801" fill="none" stroke="#333" stroke-width="0.12"/><line x1="15.934" y1="42.801" x2="15.79" y2="42.801" fill="none" stroke="#333" stroke-width="0.12"/><line x1="15.562" y1="42.801" x2="15.421" y2="42.801" fill="none" stroke="#333" stroke-width="0.12"/><line x1="15.192" y1="42.801" x2="15.051" y2="42.801" fill="none" stroke="#333" stroke-width="0.12"/><line x1="14.825" y1="42.801" x2="14.679" y2="42.801" fill="none" stroke="#333" stroke-width="0.12"/><line x1="14.456" y1="42.801" x2="14.311" y2="42.801" fill="none" stroke="#333" stroke-width="0.12"/><line x1="14.087" y1="42.801" x2="13.939" y2="42.801" fill="none" stroke="#333" stroke-width="0.12"/><line x1="16.899" y1="43.459" x2="13.956" y2="43.459" fill="none" stroke="#f29a76" stroke-width="0.048"/><line x1="16.674" y1="43.459" x2="16.529" y2="43.459" fill="none" stroke="#333" stroke-width="0.12"/><line x1="16.303" y1="43.459" x2="16.158" y2="43.459" fill="none" stroke="#333" stroke-width="0.12"/><line x1="15.934" y1="43.459" x2="15.79" y2="43.459" fill="none" stroke="#333" stroke-width="0.12"/><line x1="15.562" y1="43.459" x2="15.421" y2="43.459" fill="none" stroke="#333" stroke-width="0.12"/><line x1="15.192" y1="43.459" x2="15.051" y2="43.459" fill="none" stroke="#333" stroke-width="0.12"/><line x1="14.825" y1="43.459" x2="14.679" y2="43.459" fill="none" stroke="#333" stroke-width="0.12"/><line x1="14.456" y1="43.459" x2="14.311" y2="43.459" fill="none" stroke="#333" stroke-width="0.12"/><line x1="14.087" y1="43.459" x2="13.939" y2="43.459" fill="none" stroke="#333" stroke-width="0.12"/><rect x="10.156" y="8.041" width="4.462" height="13.264" fill="#a6a6a6"/><rect x="12.979" y="8.725" width="0.918" height="1.032" fill="url(#a)"/><circle cx="11.581" cy="11.395" r="0.566" fill="#666"/><circle cx="11.581" cy="9.198" r="0.567" fill="#666"/><path d="M12.147,13.591a0.567,0.567,0,1,1-.567-0.562A0.568,0.568,0,0,1,12.147,13.591Z" fill="#666"/><path d="M12.147,15.79a0.567,0.567,0,1,1-.567-0.566A0.567,0.567,0,0,1,12.147,15.79Z" fill="#666"/><circle cx="11.581" cy="17.988" r="0.567" fill="#666"/><circle cx="11.581" cy="20.188" r="0.567" fill="#666"/><rect x="10.156" y="21.818" width="4.462" height="8.089" fill="#a6a6a6"/><circle cx="11.59" cy="22.775" r="0.568" fill="#666"/><circle cx="11.546" cy="24.34" r="0.567" fill="#666"/><path d="M12.158,25.9a0.568,0.568,0,1,1-.568-0.563A0.569,0.569,0,0,1,12.158,25.9Z" fill="#666"/><ellipse cx="11.59" cy="27.46" rx="0.568" ry="0.564" fill="#666"/><circle cx="11.59" cy="29.02" r="0.568" fill="#666"/><line x1="11.547" y1="17.979" x2="11.547" y2="20.275" fill="none" stroke="#1a1a1a" stroke-linecap="round" stroke-linejoin="round" stroke-width="0.327"/><line x1="11.592" y1="22.8" x2="11.592" y2="25.965" fill="none" stroke="#1a1a1a" stroke-linecap="round" stroke-linejoin="round" stroke-width="0.327"/><rect x="16.828" y="15.536" width="1.221" height="0.892" fill="url(#b)"/><rect x="14.6" y="15.243" width="3.45" height="0.293" fill="url(#c)"/><rect x="14.6" y="19.452" width="3.45" height="0.292" fill="url(#d)"/><rect x="16.828" y="18.564" width="1.221" height="0.892" fill="url(#e)"/><rect x="17.514" y="12.418" width="0.602" height="8.241" fill="#4d4d4d"/><polygon points="15.515 28.209 15.515 27.951 15.773 27.951 15.773 28.033 17.568 28.033 17.568 27.951 17.932 27.951 17.932 28.209 15.515 28.209" fill="#69bd83"/><rect x="14.753" y="20.301" width="4.504" height="7.662" fill="#89c997"/><rect x="15.046" y="20.429" width="4.211" height="7.392" fill="#00a051"/><rect x="15.093" y="20.5" width="4.164" height="7.251" fill="#89c997"/><rect x="16.582" y="20.605" width="0.048" height="1.068" fill="#00a051"/><polygon points="18.611 20.605 16.582 20.605 16.582 21.673 18.611 21.673 18.611 20.605 18.611 20.605" fill="#60af79"/><polygon points="18.131 20.969 18.131 21.421 18.073 21.485 17.415 21.485 17.415 20.912 18.073 20.912 18.131 20.969"/><circle cx="16.676" cy="21.11" r="0.106" fill="#00a051"/><rect x="16.577" y="22.041" width="0.047" height="1.068" fill="#00a051"/><polygon points="18.606 22.041 16.577 22.041 16.577 23.109 18.606 23.109 18.606 22.041 18.606 22.041" fill="#60af79"/><polygon points="18.126 22.404 18.126 22.857 18.067 22.921 17.409 22.921 17.409 22.346 18.067 22.346 18.126 22.404"/><circle cx="16.67" cy="22.546" r="0.105" fill="#00a051"/><rect x="16.577" y="23.554" width="0.047" height="1.068" fill="#00a051"/><polygon points="18.606 23.554 16.577 23.554 16.577 24.622 16.577 24.622 18.606 24.622 18.606 23.554 18.606 23.554" fill="#60af79"/><polygon points="18.126 23.933 18.126 24.444 18.067 24.518 17.409 24.518 17.409 23.872 18.067 23.872 18.126 23.933"/><circle cx="16.67" cy="24.059" r="0.105" fill="#00a051"/><rect x="16.577" y="25.005" width="0.047" height="1.215" fill="#00a051"/><polygon points="18.606 25.005 18.606 25.005 16.577 25.005 16.57 25.018 16.57 26.223 16.585 26.22 18.606 26.22 18.606 25.005" fill="#60af79"/><polygon points="18.126 25.46 18.126 25.984 18.067 26.057 17.409 26.057 17.409 25.396 18.067 25.396 18.126 25.46"/><ellipse cx="16.67" cy="25.607" rx="0.106" ry="0.114" fill="#00a051"/><rect x="16.641" y="26.576" width="0.047" height="1.057" fill="#00a051"/><polygon points="18.631 26.57 16.641 26.57 16.635 26.57 16.635 27.658 16.869 27.633 18.672 27.633 18.672 26.547 18.631 26.57" fill="#60af79"/><polygon points="18.19 26.878 18.19 27.458 18.131 27.54 17.474 27.54 17.474 26.807 18.131 26.807 18.19 26.878"/><ellipse cx="16.735" cy="27.125" rx="0.105" ry="0.115" fill="#00a051"/><circle cx="16.63" cy="21.064" r="0.105" fill="#89c997"/><circle cx="16.624" cy="22.499" r="0.106" fill="#89c997"/><circle cx="16.624" cy="24.013" r="0.106" fill="#89c997"/><ellipse cx="16.624" cy="25.556" rx="0.106" ry="0.115" fill="#89c997"/><ellipse cx="16.688" cy="27.074" rx="0.106" ry="0.115" fill="#89c997"/><polygon points="15.491 20.076 15.491 20.336 15.75 20.336 15.75 20.253 17.544 20.253 17.544 20.336 17.908 20.336 17.908 20.076 15.491 20.076" fill="#89c997"/><path d="M14.973,32.983h2.873a0.427,0.427,0,0,1,.427.427v6.1a0.427,0.427,0,0,1-.427.427H14.975a0.426,0.426,0,0,1-.426-0.426v-6.1A0.425,0.425,0,0,1,14.973,32.983Z" fill="#1a1a1a"/><path d="M16.73,36.077A0.427,0.427,0,0,0,16.3,35.65H13.431a0.427,0.427,0,0,0-.426.427v1.216h1.118a0.427,0.427,0,0,1,.426.427v0.751l2.182-.024V36.077Z" fill="#1a1a1a"/><rect x="10.413" y="34.878" width="0.364" height="0.259" fill="#898989"/><rect x="10.46" y="34.917" width="0.281" height="0.22" fill="#efefef"/><rect x="10.413" y="36.39" width="0.364" height="0.258" fill="#898989"/><rect x="10.46" y="36.429" width="0.281" height="0.219" fill="#efefef"/><rect x="10.413" y="32.626" width="0.364" height="0.257" fill="#898989"/><rect x="10.46" y="32.663" width="0.281" height="0.219" fill="#efefef"/><rect x="10.483" y="27.907" width="0.364" height="0.26" fill="#898989"/><rect x="10.531" y="27.953" width="0.281" height="0.221" fill="#efefef"/><rect x="10.483" y="29.421" width="0.364" height="0.258" fill="#898989"/><rect x="10.531" y="29.468" width="0.281" height="0.219" fill="#efefef"/><rect x="10.483" y="26.383" width="0.364" height="0.257" fill="#898989"/><rect x="10.531" y="26.429" width="0.281" height="0.219" fill="#efefef"/><rect x="10.483" y="24.869" width="0.364" height="0.258" fill="#898989"/><rect x="10.531" y="24.915" width="0.281" height="0.219" fill="#efefef"/><rect x="10.483" y="23.38" width="0.364" height="0.258" fill="#898989"/><rect x="10.531" y="23.424" width="0.281" height="0.221" fill="#efefef"/><rect x="10.46" y="10.271" width="0.364" height="0.26" fill="#898989"/><rect x="10.506" y="10.312" width="0.282" height="0.219" fill="#efefef"/><rect x="10.46" y="12.513" width="0.364" height="0.258" fill="#898989"/><rect x="10.506" y="12.552" width="0.282" height="0.219" fill="#efefef"/><rect x="10.46" y="14.754" width="0.364" height="0.258" fill="#898989"/><rect x="10.506" y="14.793" width="0.282" height="0.219" fill="#efefef"/><rect x="10.46" y="16.996" width="0.364" height="0.257" fill="#898989"/><rect x="10.506" y="17.034" width="0.282" height="0.219" fill="#efefef"/><rect x="10.46" y="19.261" width="0.364" height="0.258" fill="#898989"/><rect x="10.506" y="19.298" width="0.282" height="0.221" fill="#efefef"/><rect x="10.46" y="20.634" width="0.364" height="0.258" fill="#898989"/><rect x="10.506" y="20.67" width="0.282" height="0.222" fill="#efefef"/><rect x="10.156" y="30.349" width="4.462" height="6.607" fill="#a6a6a6"/><circle cx="11.59" cy="31.535" r="0.568" fill="#666"/><path d="M12.158,33.736a0.568,0.568,0,1,1-.568-0.565A0.566,0.566,0,0,1,12.158,33.736Z" fill="#666"/><path d="M12.158,35.943a0.568,0.568,0,0,1-1.136,0A0.568,0.568,0,1,1,12.158,35.943Z" fill="#666"/><rect x="17.66" y="28.627" width="0.453" height="10.935" fill="#666"/><path d="M17.555,37.407c0.016,0,.15-0.008.17-0.015l-0.015-6.674a2.022,2.022,0,0,1-.225-0.037,0.129,0.129,0,0,1,.071-0.194c0.016,0,.038-0.007.06-0.014v-1.9H14.839v2.754a0.755,0.755,0,0,1,.072.024c0.1,0.024.12,0.167,0.072,0.191a0.458,0.458,0,0,1-.144.044v1.12l0.036,0.008a0.128,0.128,0,0,1,.071.191,0.45,0.45,0,0,1-.107.038v2.19a0.127,0.127,0,0,1,.07.193c-0.015.007-.044,0.015-0.07,0.024v1.135c0.19,0.038.2,0.194,0.07,0.194a0.351,0.351,0,0,0-.07.024v2.873h2.776V37.638a0.446,0.446,0,0,1-.13-0.04C17.437,37.575,17.46,37.431,17.555,37.407Z" fill="#595757"/><path d="M16.712,36.808a0.985,0.985,0,0,0,.575-0.926v-3.4a1,1,0,0,0-.575-0.94l-0.733-.233a0.484,0.484,0,0,0-.579.576V36.48a0.487,0.487,0,0,0,.579.574Z" fill="#1f1f1f" stroke="#fff" stroke-width="0.048"/><rect x="16.003" y="31.984" width="0.106" height="0.171" fill="#aa9649"/><rect x="16.003" y="32.347" width="0.106" height="0.173" fill="#aa9649"/><rect x="16.003" y="32.711" width="0.106" height="0.173" fill="#aa9649"/><rect x="16.003" y="33.075" width="0.106" height="0.173" fill="#aa9649"/><rect x="16.003" y="33.44" width="0.106" height="0.171" fill="#aa9649"/><rect x="16.003" y="33.803" width="0.106" height="0.173" fill="#aa9649"/><rect x="16.003" y="34.168" width="0.106" height="0.171" fill="#aa9649"/><rect x="16.003" y="34.533" width="0.106" height="0.171" fill="#aa9649"/><rect x="16.003" y="34.897" width="0.106" height="0.171" fill="#aa9649"/><rect x="16.003" y="35.26" width="0.106" height="0.173" fill="#aa9649"/><rect x="16.003" y="35.625" width="0.106" height="0.171" fill="#aa9649"/><rect x="16.003" y="35.989" width="0.106" height="0.171" fill="#aa9649"/><rect x="16.003" y="36.355" width="0.106" height="0.173" fill="#aa9649"/><rect x="16.609" y="32.347" width="0.106" height="0.173" fill="#aa9649"/><rect x="16.609" y="32.711" width="0.106" height="0.173" fill="#aa9649"/><rect x="16.609" y="33.075" width="0.106" height="0.173" fill="#aa9649"/><rect x="16.609" y="33.44" width="0.106" height="0.171" fill="#aa9649"/><rect x="16.609" y="33.803" width="0.106" height="0.173" fill="#aa9649"/><rect x="16.609" y="34.168" width="0.106" height="0.171" fill="#aa9649"/><rect x="16.609" y="34.533" width="0.106" height="0.171" fill="#aa9649"/><rect x="16.609" y="34.897" width="0.106" height="0.171" fill="#aa9649"/><rect x="16.609" y="35.26" width="0.106" height="0.173" fill="#aa9649"/><rect x="16.609" y="35.625" width="0.106" height="0.171" fill="#aa9649"/><rect x="16.609" y="35.989" width="0.106" height="0.171" fill="#aa9649"/><polygon points="15.23 30.874 15.23 30.764 15.806 30.764 15.806 30.874 15.23 30.874 15.23 30.874" fill="#e8e8e8"/><rect x="15.23" y="30.053" width="0.576" height="0.539" fill="#e8e8e8"/><polygon points="16.722 30.877 16.722 30.764 17.288 30.764 17.288 30.877 16.722 30.877 16.722 30.877" fill="#e8e8e8"/><rect x="16.722" y="30.053" width="0.577" height="0.539" fill="#e8e8e8"/><polygon points="15.23 37.405 15.23 37.515 15.806 37.515 15.806 37.405 15.23 37.405 15.23 37.405" fill="#e8e8e8"/><rect x="15.23" y="37.687" width="0.576" height="0.539" fill="#e8e8e8"/><polygon points="16.722 37.403 16.722 37.515 17.288 37.515 17.288 37.403 16.722 37.403 16.722 37.403" fill="#e8e8e8"/><rect x="16.722" y="37.687" width="0.577" height="0.539" fill="#e8e8e8"/><ellipse cx="16.24" cy="29.306" rx="0.478" ry="0.483" fill="#d3a100" stroke="#b5a000" stroke-width="0.048"/><polygon points="16.542 29.225 16.336 29.225 16.336 29.016 16.155 29.016 16.155 29.225 15.948 29.225 15.948 29.412 16.155 29.412 16.155 29.62 16.336 29.62 16.336 29.412 16.542 29.412 16.542 29.225" fill="url(#f)"/><ellipse cx="16.24" cy="38.815" rx="0.478" ry="0.482" fill="#d3a100" stroke="#b5a000" stroke-width="0.048"/><polygon points="16.542 38.734 16.336 38.734 16.336 38.526 16.155 38.526 16.155 38.734 15.948 38.734 15.948 38.92 16.155 38.92 16.155 39.128 16.336 39.128 16.336 38.92 16.542 38.92 16.542 38.734" fill="url(#g)"/><rect x="8.117" y="0.617" width="11.717" height="46.762" fill="none" stroke="#201513" stroke-width="0.233"/><rect x="12.979" y="13.119" width="0.918" height="1.026" fill="url(#h)"/><rect x="12.979" y="15.314" width="0.918" height="1.024" fill="url(#i)"/><rect x="12.979" y="17.509" width="0.918" height="1.027" fill="url(#j)"/><rect x="12.979" y="19.707" width="0.918" height="1.021" fill="url(#k)"/><rect x="12.979" y="10.923" width="0.918" height="1.024" fill="url(#l)"/><rect x="12.979" y="22.297" width="0.918" height="1.019" fill="url(#m)"/><rect x="12.979" y="23.854" width="0.918" height="1.026" fill="url(#n)"/><rect x="12.979" y="25.414" width="0.918" height="1.026" fill="url(#o)"/><rect x="12.979" y="26.977" width="0.918" height="1.023" fill="url(#p)"/><rect x="12.979" y="28.533" width="0.918" height="1.03" fill="url(#q)"/><rect x="12.979" y="31.052" width="0.918" height="1.026" fill="url(#r)"/><rect x="12.979" y="33.252" width="0.918" height="1.028" fill="url(#s)"/><rect x="12.979" y="35.456" width="0.918" height="1.024" fill="url(#t)"/><rect x="56.031" y="28.066" width="1.725" height="19.313" fill="#b5b5b6"/><g clip-path="url(#u)"><rect x="42.757" y="29.049" width="13.275" height="17.34" fill="url(#v)"/></g><rect x="42.843" y="25.685" width="4.517" height="3.364" fill="#4f4c4b"/><g clip-path="url(#w)"><rect x="34.37" y="29.049" width="8.386" height="17.34" fill="#4f4c4b"/></g><g clip-path="url(#x)"><rect x="35.149" y="27.623" width="4.74" height="1.426" fill="#c7c8c8"/></g><polygon points="58.719 35.146 58.719 30.326 57.756 30.326 57.756 45.111 58.719 45.111 58.719 40.285 59.441 40.285 59.441 35.146 58.719 35.146" fill="#d3d3d4"/><polygon points="58.719 35.146 58.719 30.326 57.756 30.326 57.756 45.111 58.719 45.111 58.719 40.285 59.441 40.285 59.441 35.146 58.719 35.146" fill="none"/><g clip-path="url(#y)"><rect x="59.441" y="35.586" width="6.852" height="4.26" fill="url(#z)"/></g><line x1="56.031" y1="41.964" x2="42.844" y2="41.964" fill="none" stroke="#231815" stroke-width="0.05"/><line x1="56.031" y1="41.268" x2="42.844" y2="41.268" fill="none" stroke="#231815" stroke-width="0.05"/><line x1="56.031" y1="40.571" x2="42.844" y2="40.571" fill="none" stroke="#231815" stroke-width="0.05"/><line x1="56.031" y1="33.47" x2="42.844" y2="33.47" fill="none" stroke="#231815" stroke-width="0.05"/><line x1="56.031" y1="34.165" x2="42.844" y2="34.165" fill="none" stroke="#231815" stroke-width="0.05"/><line x1="56.031" y1="34.862" x2="42.844" y2="34.862" fill="none" stroke="#231815" stroke-width="0.05"/><line x1="42.757" y1="46.389" x2="42.757" y2="29.048" fill="none" stroke="#231815" stroke-width="0.049"/><line x1="39.888" y1="29.048" x2="56.031" y2="29.048" fill="none" stroke="#231815" stroke-width="0.049"/><polygon points="47.36 28.916 47.36 25.685 42.844 25.685 42.844 29.047 39.888 29.047 39.888 27.621 35.149 27.621 35.149 29.047 34.37 29.047 34.37 46.389 42.844 46.389 56.031 46.389 56.031 47.378 57.756 47.378 57.756 45.11 58.719 45.11 58.719 40.285 59.441 40.285 59.441 39.846 66.293 39.846 66.293 35.585 59.441 35.585 59.441 35.145 58.719 35.145 58.719 30.325 57.756 30.325 57.756 28.065 56.031 28.065 56.031 29.047 47.36 29.047 47.36 28.916" fill="none" stroke="#231815" stroke-width="0.148"/></svg>