<svg xmlns="http://www.w3.org/2000/svg" width="74" height="48" viewBox="0 0 74 48"><title>melsec_fx3gc</title><rect width="74" height="48" fill="#fff"/><rect x="32.093" y="10.076" width="9.814" height="27.848" fill="#d2d2d3"/><rect x="32.093" y="10.076" width="9.814" height="10.982" fill="#231815"/><rect x="34.545" y="11.589" width="1.756" height="3.173" fill="#4c4948"/><rect x="34.64" y="11.715" width="1.567" height="2.921" fill="#2e2624"/><polygon points="35.328 12.069 35.034 12.367 35.034 13.984 35.328 14.282 35.741 14.282 35.741 12.069 35.328 12.069" fill="#dbdcdc"/><polygon points="35.382 14.136 35.171 13.921 35.171 12.429 35.382 12.215 35.605 12.215 35.605 14.136 35.382 14.136" fill="#231815"/><ellipse cx="36.692" cy="17.894" rx="2.003" ry="2.147" fill="#4c4948"/><ellipse cx="36.692" cy="17.894" rx="1.895" ry="2.032" fill="#2e2624"/><ellipse cx="36.692" cy="17.894" rx="1.454" ry="1.559" fill="#231815"/><path d="M39.942,14.8a0.3,0.3,0,0,1-.289.309H38.876a0.3,0.3,0,0,1-.289-0.309V13.386a0.3,0.3,0,0,1,.289-0.309h0.777a0.3,0.3,0,0,1,.289.309V14.8Z" fill="#4c4948"/><path d="M38.876,15.016a0.21,0.21,0,0,1-.2-0.217V13.386a0.21,0.21,0,0,1,.2-0.217h0.777a0.21,0.21,0,0,1,.2.217V14.8a0.21,0.21,0,0,1-.2.217H38.876Z" fill="#2e2624"/><ellipse cx="39.265" cy="14.093" rx="0.525" ry="0.562" fill="#4c4948"/><ellipse cx="39.265" cy="14.093" rx="0.292" ry="0.313" fill="#dbdcdc"/><rect x="34.797" y="21.995" width="5.222" height="14.409" fill="#4c4948"/><rect x="35.077" y="22.119" width="2.192" height="13.875" fill="#231815"/><rect x="37.546" y="22.119" width="2.192" height="13.875" fill="#231815"/><rect x="32.093" y="10.076" width="9.814" height="27.848" fill="none" stroke="#000" stroke-width="0.158"/></svg>