<?xml version="1.0" encoding="utf-8"?>
<!-- Generator: Adobe Illustrator 19.2.1, SVG Export Plug-In . SVG Version: 6.00 Build 0)  -->
<svg version="1.1" xmlns="http://www.w3.org/2000/svg" xmlns:xlink="http://www.w3.org/1999/xlink" x="0px" y="0px" width="74px"
	 height="48px" viewBox="0 0 74 48" enable-background="new 0 0 74 48" xml:space="preserve">
<g id="レイヤー_2">
	<rect fill="#FFFFFF" width="74" height="48"/>
</g>
<g id="レイヤー_1">
</g>
<g id="差替え">
	<g>
		<g>
			<g>
				<rect x="22.807" y="8.675" fill-rule="evenodd" clip-rule="evenodd" fill="#727171" width="37.784" height="4.77"/>
				<rect x="22.807" y="5.308" fill-rule="evenodd" clip-rule="evenodd" fill="#727171" width="37.784" height="3.367"/>
			</g>
			<g>
				<rect x="22.807" y="8.675" fill-rule="evenodd" clip-rule="evenodd" fill="#7D7D7D" width="37.784" height="4.77"/>
			</g>
		</g>
		<g>
			<g>
				<g>
					<rect x="23.427" y="13.444" fill-rule="evenodd" clip-rule="evenodd" fill="#D9D9D9" width="9.291" height="23.568"/>
					<g>
						<linearGradient id="SVGID_1_" gradientUnits="userSpaceOnUse" x1="23.7365" y1="8.6748" x2="23.7365" y2="13.4442">
							<stop  offset="0" style="stop-color:#E2E2E3"/>
							<stop  offset="0.1099" style="stop-color:#BFBFBF"/>
							<stop  offset="1" style="stop-color:#BFBFBF"/>
						</linearGradient>
						<rect x="23.427" y="8.675" fill-rule="evenodd" clip-rule="evenodd" fill="url(#SVGID_1_)" width="0.619" height="4.769"/>
						<linearGradient id="SVGID_2_" gradientUnits="userSpaceOnUse" x1="23.7365" y1="5.3078" x2="23.7365" y2="8.6748">
							<stop  offset="0" style="stop-color:#FFFFFF"/>
							<stop  offset="0.1099" style="stop-color:#D9D9D9"/>
							<stop  offset="1" style="stop-color:#D9D9D9"/>
						</linearGradient>
						<rect x="23.427" y="5.308" fill-rule="evenodd" clip-rule="evenodd" fill="url(#SVGID_2_)" width="0.619" height="3.367"/>
					</g>
					<g>
						<linearGradient id="SVGID_3_" gradientUnits="userSpaceOnUse" x1="32.4084" y1="8.6748" x2="32.4084" y2="13.4442">
							<stop  offset="0" style="stop-color:#E2E2E3"/>
							<stop  offset="0.1099" style="stop-color:#BFBFBF"/>
							<stop  offset="1" style="stop-color:#BFBFBF"/>
						</linearGradient>
						<rect x="32.099" y="8.675" fill-rule="evenodd" clip-rule="evenodd" fill="url(#SVGID_3_)" width="0.619" height="4.769"/>
						<linearGradient id="SVGID_4_" gradientUnits="userSpaceOnUse" x1="32.4084" y1="5.3078" x2="32.4084" y2="8.6748">
							<stop  offset="0" style="stop-color:#FFFFFF"/>
							<stop  offset="0.1099" style="stop-color:#D9D9D9"/>
							<stop  offset="1" style="stop-color:#D9D9D9"/>
						</linearGradient>
						<rect x="32.099" y="5.308" fill-rule="evenodd" clip-rule="evenodd" fill="url(#SVGID_4_)" width="0.619" height="3.367"/>
					</g>
					<g>
						
							<linearGradient id="SVGID_5_" gradientUnits="userSpaceOnUse" x1="167.1697" y1="67.1015" x2="167.1697" y2="71.591" gradientTransform="matrix(-1 0 0 -1 199.5781 108.6035)">
							<stop  offset="0" style="stop-color:#A6A6A6"/>
							<stop  offset="0.1099" style="stop-color:#D9D9D9"/>
							<stop  offset="1" style="stop-color:#D9D9D9"/>
						</linearGradient>
						<rect x="32.099" y="37.013" fill-rule="evenodd" clip-rule="evenodd" fill="url(#SVGID_5_)" width="0.619" height="4.49"/>
						
							<linearGradient id="SVGID_6_" gradientUnits="userSpaceOnUse" x1="167.1697" y1="63.4545" x2="167.1697" y2="67.1015" gradientTransform="matrix(-1 0 0 -1 199.5781 108.6035)">
							<stop  offset="0" style="stop-color:#A6A6A6"/>
							<stop  offset="0.1099" style="stop-color:#D9D9D9"/>
							<stop  offset="1" style="stop-color:#D9D9D9"/>
						</linearGradient>
						<rect x="32.099" y="41.502" fill-rule="evenodd" clip-rule="evenodd" fill="url(#SVGID_6_)" width="0.619" height="3.647"/>
					</g>
					<g>
						
							<linearGradient id="SVGID_7_" gradientUnits="userSpaceOnUse" x1="175.8416" y1="67.1015" x2="175.8416" y2="71.591" gradientTransform="matrix(-1 0 0 -1 199.5781 108.6035)">
							<stop  offset="0" style="stop-color:#A6A6A6"/>
							<stop  offset="0.1099" style="stop-color:#D9D9D9"/>
							<stop  offset="1" style="stop-color:#D9D9D9"/>
						</linearGradient>
						<rect x="23.427" y="37.013" fill-rule="evenodd" clip-rule="evenodd" fill="url(#SVGID_7_)" width="0.619" height="4.49"/>
						
							<linearGradient id="SVGID_8_" gradientUnits="userSpaceOnUse" x1="175.8416" y1="63.4545" x2="175.8416" y2="67.1015" gradientTransform="matrix(-1 0 0 -1 199.5781 108.6035)">
							<stop  offset="0" style="stop-color:#A6A6A6"/>
							<stop  offset="0.1099" style="stop-color:#D9D9D9"/>
							<stop  offset="1" style="stop-color:#D9D9D9"/>
						</linearGradient>
						<rect x="23.427" y="41.502" fill-rule="evenodd" clip-rule="evenodd" fill="url(#SVGID_8_)" width="0.619" height="3.647"/>
					</g>
					<rect x="24.046" y="8.675" fill-rule="evenodd" clip-rule="evenodd" fill="#AAABAB" width="8.053" height="0.561"/>
					<rect x="24.046" y="40.518" fill-rule="evenodd" clip-rule="evenodd" fill="#AAABAB" width="8.053" height="0.561"/>
					<rect x="24.046" y="37.574" fill-rule="evenodd" clip-rule="evenodd" fill="#666464" width="8.053" height="2.945"/>
					<rect x="24.046" y="41.079" fill-rule="evenodd" clip-rule="evenodd" fill="#666464" width="8.053" height="2.219"/>
					<rect x="24.046" y="43.299" fill-rule="evenodd" clip-rule="evenodd" fill="#4C4948" width="8.053" height="1.85"/>
					<rect x="24.046" y="9.236" fill-rule="evenodd" clip-rule="evenodd" fill="#666464" width="8.053" height="4.208"/>
					<rect x="24.046" y="5.308" fill-rule="evenodd" clip-rule="evenodd" fill="#949495" width="8.053" height="3.367"/>
					<rect x="24.046" y="37.013" fill-rule="evenodd" clip-rule="evenodd" fill="#4C4948" width="8.053" height="0.561"/>
				</g>
				<rect x="23.731" y="13.807" fill="#D9D9D9" stroke="#1A1A1A" stroke-width="0.0728" width="8.624" height="22.947"/>
				<g>
					<rect x="26.48" y="37.98" fill-rule="evenodd" clip-rule="evenodd" fill="#1A1A1A" width="1.155" height="1.155"/>
					<circle fill-rule="evenodd" clip-rule="evenodd" fill="#1A1A1A" cx="27.058" cy="39.756" r="0.354"/>
				</g>
				<g>
					<rect x="28.443" y="37.98" fill-rule="evenodd" clip-rule="evenodd" fill="#1A1A1A" width="1.155" height="1.155"/>
					<circle fill-rule="evenodd" clip-rule="evenodd" fill="#1A1A1A" cx="29.021" cy="39.756" r="0.354"/>
				</g>
				<rect x="24.935" y="7.758" fill="#EBEBEB" stroke="#1A1A1A" stroke-width="0.0728" width="6.275" height="5.687"/>
				<rect x="24.935" y="37.013" fill="#EBEBEB" stroke="#1A1A1A" stroke-width="0.0728" width="6.275" height="5.687"/>
				<polyline fill="none" stroke="#1A1A1A" stroke-width="0.1457" points="24.046,5.308 24.046,13.444 32.099,13.444 32.099,5.308 
									"/>
				<polyline fill="none" stroke="#1A1A1A" stroke-width="0.1457" points="24.046,45.149 24.046,37.013 32.099,37.013 
					32.099,45.149 				"/>
				<path fill="none" stroke="#1A1A1A" stroke-width="0.0728" d="M31.563,13.807v0.758c0,0.086-0.069,0.155-0.155,0.155h-6.671
					c-0.086,0-0.155-0.069-0.155-0.155c0,0,0-0.758,0-0.758"/>
				<path fill="none" stroke="#1A1A1A" stroke-width="0.0728" d="M24.582,36.754v-0.758c0-0.086,0.069-0.155,0.155-0.155h6.671
					c0.085,0,0.155,0.069,0.155,0.155v0.758"/>
				<g>
					<rect x="30.249" y="19.596" fill="#404040" stroke="#231815" stroke-width="0.0728" width="0.621" height="1.133"/>
				</g>
				<g>
					<rect x="30.249" y="22.91" fill="#404040" stroke="#231815" stroke-width="0.0728" width="0.621" height="1.133"/>
				</g>
				<g>
					<rect x="30.249" y="26.224" fill="#404040" stroke="#231815" stroke-width="0.0728" width="0.621" height="1.133"/>
				</g>
				<g>
					<rect x="30.249" y="29.538" fill="#404040" stroke="#231815" stroke-width="0.0728" width="0.621" height="1.132"/>
				</g>
				
					<rect x="23.427" y="5.308" fill-rule="evenodd" clip-rule="evenodd" fill="none" stroke="#000000" stroke-width="0.1457" stroke-linecap="round" width="9.291" height="39.841"/>
			</g>
		</g>
		<g>
			<rect x="32.718" y="13.444" fill-rule="evenodd" clip-rule="evenodd" fill="#898989" width="27.873" height="23.568"/>
			<g>
				<rect x="41.389" y="37.013" fill-rule="evenodd" clip-rule="evenodd" fill="#7D7D7D" width="1.238" height="4.49"/>
				<rect x="41.389" y="41.502" fill-rule="evenodd" clip-rule="evenodd" fill="#727171" width="1.238" height="3.647"/>
			</g>
			<g>
				<rect x="32.718" y="37.013" fill-rule="evenodd" clip-rule="evenodd" fill="#7D7D7D" width="0.619" height="4.49"/>
				<rect x="32.718" y="41.502" fill-rule="evenodd" clip-rule="evenodd" fill="#727171" width="0.619" height="3.647"/>
			</g>
			<rect x="33.337" y="37.574" fill-rule="evenodd" clip-rule="evenodd" fill="#666464" width="8.052" height="3.649"/>
			<rect x="33.337" y="43.003" fill-rule="evenodd" clip-rule="evenodd" fill="#666464" width="8.052" height="2.146"/>
			<rect x="33.337" y="45.149" fill-rule="evenodd" clip-rule="evenodd" fill="#333333" width="8.052" height="1.781"/>
			<rect x="33.337" y="37.013" fill-rule="evenodd" clip-rule="evenodd" fill="#4C4948" width="8.052" height="0.561"/>
			<g>
				<rect x="35.771" y="37.98" fill-rule="evenodd" clip-rule="evenodd" fill="#1A1A1A" width="1.155" height="1.155"/>
				
					<circle fill-rule="evenodd" clip-rule="evenodd" fill="#BFBFBF" stroke="#000000" stroke-width="0.0728" cx="36.349" cy="39.756" r="0.354"/>
			</g>
			<g>
				<rect x="37.734" y="37.98" fill-rule="evenodd" clip-rule="evenodd" fill="#1A1A1A" width="1.155" height="1.155"/>
				
					<circle fill-rule="evenodd" clip-rule="evenodd" fill="#BFBFBF" stroke="#000000" stroke-width="0.0728" cx="38.312" cy="39.756" r="0.354"/>
			</g>
			<g>
				<rect x="33.808" y="37.98" fill-rule="evenodd" clip-rule="evenodd" fill="#1A1A1A" width="1.155" height="1.155"/>
				
					<circle fill-rule="evenodd" clip-rule="evenodd" fill="#BFBFBF" stroke="#000000" stroke-width="0.0728" cx="34.386" cy="39.756" r="0.354"/>
			</g>
			<g>
				<rect x="39.697" y="37.98" fill-rule="evenodd" clip-rule="evenodd" fill="#1A1A1A" width="1.155" height="1.155"/>
				
					<circle fill-rule="evenodd" clip-rule="evenodd" fill="#BFBFBF" stroke="#000000" stroke-width="0.0728" cx="40.274" cy="39.756" r="0.354"/>
			</g>
			<g>
				
					<circle fill-rule="evenodd" clip-rule="evenodd" fill="#BFBFBF" stroke="#000000" stroke-width="0.0728" cx="36.349" cy="43.683" r="0.354"/>
			</g>
			<g>
				
					<circle fill-rule="evenodd" clip-rule="evenodd" fill="#BFBFBF" stroke="#000000" stroke-width="0.0728" cx="38.312" cy="43.683" r="0.354"/>
			</g>
			<g>
				
					<circle fill-rule="evenodd" clip-rule="evenodd" fill="#BFBFBF" stroke="#000000" stroke-width="0.0728" cx="34.386" cy="43.683" r="0.354"/>
			</g>
			<g>
				
					<circle fill-rule="evenodd" clip-rule="evenodd" fill="#BFBFBF" stroke="#000000" stroke-width="0.0728" cx="40.274" cy="43.683" r="0.354"/>
			</g>
			<rect x="33.208" y="17.514" fill-rule="evenodd" clip-rule="evenodd" fill="#FFEA00" width="8.311" height="0.443"/>
			<rect x="33.337" y="41.223" fill-rule="evenodd" clip-rule="evenodd" fill="#333333" width="8.052" height="1.781"/>
			<polyline fill="none" stroke="#1A1A1A" stroke-width="0.1457" points="33.337,45.149 33.337,37.013 41.389,37.013 41.389,45.149 
							"/>
			<rect x="33.337" y="9.234" fill-rule="evenodd" clip-rule="evenodd" fill="#666464" width="8.052" height="3.649"/>
			<rect x="33.337" y="5.307" fill-rule="evenodd" clip-rule="evenodd" fill="#666464" width="8.052" height="2.145"/>
			<rect x="33.337" y="3.527" fill-rule="evenodd" clip-rule="evenodd" fill="#333333" width="8.052" height="1.781"/>
			<rect x="33.337" y="12.883" fill-rule="evenodd" clip-rule="evenodd" fill="#4C4948" width="8.052" height="0.561"/>
			<g>
				<rect x="37.8" y="11.322" fill-rule="evenodd" clip-rule="evenodd" fill="#1A1A1A" width="1.155" height="1.155"/>
				
					<circle fill-rule="evenodd" clip-rule="evenodd" fill="#BFBFBF" stroke="#000000" stroke-width="0.0728" cx="38.378" cy="10.7" r="0.354"/>
			</g>
			<g>
				<rect x="35.837" y="11.322" fill-rule="evenodd" clip-rule="evenodd" fill="#1A1A1A" width="1.155" height="1.155"/>
				
					<circle fill-rule="evenodd" clip-rule="evenodd" fill="#BFBFBF" stroke="#000000" stroke-width="0.0728" cx="36.415" cy="10.7" r="0.354"/>
			</g>
			<g>
				<rect x="39.763" y="11.322" fill-rule="evenodd" clip-rule="evenodd" fill="#1A1A1A" width="1.155" height="1.155"/>
				
					<circle fill-rule="evenodd" clip-rule="evenodd" fill="#BFBFBF" stroke="#000000" stroke-width="0.0728" cx="40.341" cy="10.7" r="0.354"/>
			</g>
			<g>
				<rect x="33.874" y="11.322" fill-rule="evenodd" clip-rule="evenodd" fill="#1A1A1A" width="1.155" height="1.155"/>
				
					<circle fill-rule="evenodd" clip-rule="evenodd" fill="#BFBFBF" stroke="#000000" stroke-width="0.0728" cx="34.452" cy="10.7" r="0.354"/>
			</g>
			<g>
				
					<circle fill-rule="evenodd" clip-rule="evenodd" fill="#BFBFBF" stroke="#000000" stroke-width="0.0728" cx="38.378" cy="6.774" r="0.354"/>
			</g>
			<g>
				
					<circle fill-rule="evenodd" clip-rule="evenodd" fill="#BFBFBF" stroke="#000000" stroke-width="0.0728" cx="36.415" cy="6.774" r="0.354"/>
			</g>
			<g>
				
					<circle fill-rule="evenodd" clip-rule="evenodd" fill="#BFBFBF" stroke="#000000" stroke-width="0.0728" cx="40.341" cy="6.774" r="0.354"/>
			</g>
			<g>
				
					<circle fill-rule="evenodd" clip-rule="evenodd" fill="#BFBFBF" stroke="#000000" stroke-width="0.0728" cx="34.452" cy="6.774" r="0.354"/>
			</g>
			<rect x="33.337" y="7.453" fill-rule="evenodd" clip-rule="evenodd" fill="#333333" width="8.052" height="1.781"/>
			<polyline fill="none" stroke="#1A1A1A" stroke-width="0.1457" points="33.337,5.308 33.337,13.444 41.389,13.444 41.389,5.308 
							"/>
			<line fill="none" stroke="#1A1A1A" stroke-width="0.0728" x1="33.337" y1="43.003" x2="41.389" y2="43.003"/>
			<g>
				<rect x="34.142" y="15.206" fill="#404040" stroke="#231815" stroke-width="0.0728" width="0.621" height="1.133"/>
			</g>
			<g>
				<rect x="34.142" y="19.353" fill="#404040" stroke="#231815" stroke-width="0.0728" width="0.621" height="1.132"/>
			</g>
			<g>
				<rect x="36.105" y="15.206" fill="#404040" stroke="#231815" stroke-width="0.0728" width="0.621" height="1.133"/>
			</g>
			<g>
				<rect x="38.067" y="15.206" fill="#404040" stroke="#231815" stroke-width="0.0728" width="0.621" height="1.133"/>
			</g>
			<g>
				<rect x="40.03" y="15.206" fill="#404040" stroke="#231815" stroke-width="0.0728" width="0.621" height="1.133"/>
			</g>
			<g>
				<rect x="34.142" y="31.404" fill="#404040" stroke="#231815" stroke-width="0.0728" width="0.621" height="1.133"/>
			</g>
			<g>
				<rect x="36.105" y="31.404" fill="#404040" stroke="#231815" stroke-width="0.0728" width="0.621" height="1.133"/>
			</g>
			<g>
				<rect x="38.067" y="31.404" fill="#404040" stroke="#231815" stroke-width="0.0728" width="0.621" height="1.133"/>
			</g>
			<g>
				<rect x="40.03" y="31.404" fill="#404040" stroke="#231815" stroke-width="0.0728" width="0.621" height="1.133"/>
			</g>
			<g>
				<rect x="34.142" y="34.416" fill="#404040" stroke="#231815" stroke-width="0.0728" width="0.621" height="1.133"/>
			</g>
			<g>
				<rect x="36.105" y="34.416" fill="#404040" stroke="#231815" stroke-width="0.0728" width="0.621" height="1.133"/>
			</g>
			<g>
				<rect x="38.067" y="34.416" fill="#404040" stroke="#231815" stroke-width="0.0728" width="0.621" height="1.133"/>
			</g>
			<g>
				<rect x="40.03" y="34.416" fill="#404040" stroke="#231815" stroke-width="0.0728" width="0.621" height="1.133"/>
			</g>
		</g>
		<g>
			<g>
				<rect x="50.68" y="37.013" fill-rule="evenodd" clip-rule="evenodd" fill="#7D7D7D" width="1.239" height="4.49"/>
				<rect x="50.68" y="41.502" fill-rule="evenodd" clip-rule="evenodd" fill="#727171" width="1.239" height="3.647"/>
			</g>
			<rect x="42.628" y="37.574" fill-rule="evenodd" clip-rule="evenodd" fill="#666464" width="8.052" height="3.65"/>
			<rect x="42.628" y="43.004" fill-rule="evenodd" clip-rule="evenodd" fill="#666464" width="8.052" height="2.145"/>
			<rect x="42.628" y="45.15" fill-rule="evenodd" clip-rule="evenodd" fill="#333333" width="8.052" height="1.781"/>
			<rect x="42.628" y="37.013" fill-rule="evenodd" clip-rule="evenodd" fill="#4C4948" width="8.052" height="0.561"/>
			<g>
				<rect x="45.062" y="37.98" fill-rule="evenodd" clip-rule="evenodd" fill="#1A1A1A" width="1.155" height="1.155"/>
				
					<circle fill-rule="evenodd" clip-rule="evenodd" fill="#BFBFBF" stroke="#000000" stroke-width="0.0728" cx="45.64" cy="39.757" r="0.354"/>
			</g>
			<g>
				<rect x="47.025" y="37.98" fill-rule="evenodd" clip-rule="evenodd" fill="#1A1A1A" width="1.155" height="1.155"/>
				
					<circle fill-rule="evenodd" clip-rule="evenodd" fill="#BFBFBF" stroke="#000000" stroke-width="0.0728" cx="47.603" cy="39.757" r="0.354"/>
			</g>
			<g>
				<rect x="43.099" y="37.98" fill-rule="evenodd" clip-rule="evenodd" fill="#1A1A1A" width="1.155" height="1.155"/>
				
					<circle fill-rule="evenodd" clip-rule="evenodd" fill="#BFBFBF" stroke="#000000" stroke-width="0.0728" cx="43.677" cy="39.757" r="0.354"/>
			</g>
			<g>
				<rect x="48.988" y="37.98" fill-rule="evenodd" clip-rule="evenodd" fill="#1A1A1A" width="1.155" height="1.155"/>
				
					<circle fill-rule="evenodd" clip-rule="evenodd" fill="#BFBFBF" stroke="#000000" stroke-width="0.0728" cx="49.565" cy="39.757" r="0.354"/>
			</g>
			<g>
				
					<circle fill-rule="evenodd" clip-rule="evenodd" fill="#BFBFBF" stroke="#000000" stroke-width="0.0728" cx="45.64" cy="43.683" r="0.354"/>
			</g>
			<g>
				
					<circle fill-rule="evenodd" clip-rule="evenodd" fill="#BFBFBF" stroke="#000000" stroke-width="0.0728" cx="47.603" cy="43.683" r="0.354"/>
			</g>
			<g>
				
					<circle fill-rule="evenodd" clip-rule="evenodd" fill="#BFBFBF" stroke="#000000" stroke-width="0.0728" cx="43.677" cy="43.683" r="0.354"/>
			</g>
			<g>
				
					<circle fill-rule="evenodd" clip-rule="evenodd" fill="#BFBFBF" stroke="#000000" stroke-width="0.0728" cx="49.565" cy="43.683" r="0.354"/>
			</g>
			<rect x="42.499" y="17.514" fill-rule="evenodd" clip-rule="evenodd" fill="#FFEA00" width="8.311" height="0.443"/>
			<rect x="42.628" y="41.223" fill-rule="evenodd" clip-rule="evenodd" fill="#333333" width="8.052" height="1.781"/>
			<polyline fill="none" stroke="#1A1A1A" stroke-width="0.1457" points="42.628,45.15 42.628,37.013 50.68,37.013 50.68,45.15 			
				"/>
			<rect x="42.628" y="9.234" fill-rule="evenodd" clip-rule="evenodd" fill="#666464" width="8.052" height="3.649"/>
			<rect x="42.628" y="5.308" fill-rule="evenodd" clip-rule="evenodd" fill="#666464" width="8.052" height="2.145"/>
			<rect x="42.628" y="3.527" fill-rule="evenodd" clip-rule="evenodd" fill="#333333" width="8.052" height="1.781"/>
			<rect x="42.628" y="12.884" fill-rule="evenodd" clip-rule="evenodd" fill="#4C4948" width="8.052" height="0.561"/>
			<g>
				<rect x="47.091" y="11.322" fill-rule="evenodd" clip-rule="evenodd" fill="#1A1A1A" width="1.155" height="1.155"/>
				
					<circle fill-rule="evenodd" clip-rule="evenodd" fill="#BFBFBF" stroke="#000000" stroke-width="0.0728" cx="47.669" cy="10.7" r="0.354"/>
			</g>
			<g>
				<rect x="45.128" y="11.322" fill-rule="evenodd" clip-rule="evenodd" fill="#1A1A1A" width="1.155" height="1.155"/>
				
					<circle fill-rule="evenodd" clip-rule="evenodd" fill="#BFBFBF" stroke="#000000" stroke-width="0.0728" cx="45.706" cy="10.7" r="0.354"/>
			</g>
			<g>
				<rect x="49.054" y="11.322" fill-rule="evenodd" clip-rule="evenodd" fill="#1A1A1A" width="1.155" height="1.155"/>
				
					<circle fill-rule="evenodd" clip-rule="evenodd" fill="#BFBFBF" stroke="#000000" stroke-width="0.0728" cx="49.632" cy="10.7" r="0.354"/>
			</g>
			<g>
				<rect x="43.165" y="11.322" fill-rule="evenodd" clip-rule="evenodd" fill="#1A1A1A" width="1.155" height="1.155"/>
				
					<circle fill-rule="evenodd" clip-rule="evenodd" fill="#BFBFBF" stroke="#000000" stroke-width="0.0728" cx="43.743" cy="10.7" r="0.354"/>
			</g>
			<g>
				
					<circle fill-rule="evenodd" clip-rule="evenodd" fill="#BFBFBF" stroke="#000000" stroke-width="0.0728" cx="47.669" cy="6.774" r="0.354"/>
			</g>
			<g>
				
					<circle fill-rule="evenodd" clip-rule="evenodd" fill="#BFBFBF" stroke="#000000" stroke-width="0.0728" cx="45.706" cy="6.774" r="0.354"/>
			</g>
			<g>
				
					<circle fill-rule="evenodd" clip-rule="evenodd" fill="#BFBFBF" stroke="#000000" stroke-width="0.0728" cx="49.632" cy="6.774" r="0.354"/>
			</g>
			<g>
				
					<circle fill-rule="evenodd" clip-rule="evenodd" fill="#BFBFBF" stroke="#000000" stroke-width="0.0728" cx="43.743" cy="6.774" r="0.354"/>
			</g>
			<rect x="42.628" y="7.453" fill-rule="evenodd" clip-rule="evenodd" fill="#333333" width="8.052" height="1.781"/>
			<polyline fill="none" stroke="#1A1A1A" stroke-width="0.1457" points="42.628,5.308 42.628,13.444 50.68,13.444 50.68,5.308 			
				"/>
			<line fill="none" stroke="#1A1A1A" stroke-width="0.0728" x1="42.628" y1="43.004" x2="50.68" y2="43.004"/>
			<g>
				<rect x="43.433" y="15.207" fill="#404040" stroke="#231815" stroke-width="0.0728" width="0.621" height="1.133"/>
			</g>
			<g>
				<rect x="43.433" y="19.353" fill="#404040" stroke="#231815" stroke-width="0.0728" width="0.621" height="1.133"/>
			</g>
			<g>
				<rect x="45.396" y="15.207" fill="#404040" stroke="#231815" stroke-width="0.0728" width="0.621" height="1.133"/>
			</g>
			<g>
				<rect x="47.358" y="15.207" fill="#404040" stroke="#231815" stroke-width="0.0728" width="0.621" height="1.133"/>
			</g>
			<g>
				<rect x="49.321" y="15.207" fill="#404040" stroke="#231815" stroke-width="0.0728" width="0.621" height="1.133"/>
			</g>
			<g>
				<rect x="43.433" y="31.404" fill="#404040" stroke="#231815" stroke-width="0.0728" width="0.621" height="1.133"/>
			</g>
			<g>
				<rect x="45.396" y="31.404" fill="#404040" stroke="#231815" stroke-width="0.0728" width="0.621" height="1.133"/>
			</g>
			<g>
				<rect x="47.358" y="31.404" fill="#404040" stroke="#231815" stroke-width="0.0728" width="0.621" height="1.133"/>
			</g>
			<g>
				<rect x="49.321" y="31.404" fill="#404040" stroke="#231815" stroke-width="0.0728" width="0.621" height="1.133"/>
			</g>
		</g>
		<g>
			<g>
				<rect x="59.971" y="37.013" fill-rule="evenodd" clip-rule="evenodd" fill="#7D7D7D" width="0.619" height="4.49"/>
				<rect x="59.971" y="41.502" fill-rule="evenodd" clip-rule="evenodd" fill="#727171" width="0.619" height="3.647"/>
			</g>
			<rect x="51.919" y="37.574" fill-rule="evenodd" clip-rule="evenodd" fill="#666464" width="8.052" height="3.65"/>
			<rect x="51.919" y="43.004" fill-rule="evenodd" clip-rule="evenodd" fill="#666464" width="8.052" height="2.145"/>
			<rect x="51.919" y="45.15" fill-rule="evenodd" clip-rule="evenodd" fill="#333333" width="8.052" height="1.781"/>
			<rect x="51.919" y="37.013" fill-rule="evenodd" clip-rule="evenodd" fill="#4C4948" width="8.052" height="0.561"/>
			<g>
				<rect x="54.353" y="37.98" fill-rule="evenodd" clip-rule="evenodd" fill="#1A1A1A" width="1.155" height="1.155"/>
				
					<circle fill-rule="evenodd" clip-rule="evenodd" fill="#BFBFBF" stroke="#000000" stroke-width="0.0728" cx="54.931" cy="39.757" r="0.354"/>
			</g>
			<g>
				<rect x="56.316" y="37.98" fill-rule="evenodd" clip-rule="evenodd" fill="#1A1A1A" width="1.155" height="1.155"/>
				
					<circle fill-rule="evenodd" clip-rule="evenodd" fill="#BFBFBF" stroke="#000000" stroke-width="0.0728" cx="56.893" cy="39.757" r="0.354"/>
			</g>
			<g>
				<rect x="52.39" y="37.98" fill-rule="evenodd" clip-rule="evenodd" fill="#1A1A1A" width="1.155" height="1.155"/>
				
					<circle fill-rule="evenodd" clip-rule="evenodd" fill="#BFBFBF" stroke="#000000" stroke-width="0.0728" cx="52.968" cy="39.757" r="0.354"/>
			</g>
			<g>
				<rect x="58.279" y="37.98" fill-rule="evenodd" clip-rule="evenodd" fill="#1A1A1A" width="1.155" height="1.155"/>
				
					<circle fill-rule="evenodd" clip-rule="evenodd" fill="#BFBFBF" stroke="#000000" stroke-width="0.0728" cx="58.856" cy="39.757" r="0.354"/>
			</g>
			<g>
				
					<circle fill-rule="evenodd" clip-rule="evenodd" fill="#BFBFBF" stroke="#000000" stroke-width="0.0728" cx="54.931" cy="43.683" r="0.354"/>
			</g>
			<g>
				
					<circle fill-rule="evenodd" clip-rule="evenodd" fill="#BFBFBF" stroke="#000000" stroke-width="0.0728" cx="56.893" cy="43.683" r="0.354"/>
			</g>
			<g>
				
					<circle fill-rule="evenodd" clip-rule="evenodd" fill="#BFBFBF" stroke="#000000" stroke-width="0.0728" cx="52.968" cy="43.683" r="0.354"/>
			</g>
			<g>
				
					<circle fill-rule="evenodd" clip-rule="evenodd" fill="#BFBFBF" stroke="#000000" stroke-width="0.0728" cx="58.856" cy="43.683" r="0.354"/>
			</g>
			<rect x="51.79" y="17.514" fill-rule="evenodd" clip-rule="evenodd" fill="#FFEA00" width="8.311" height="0.443"/>
			<rect x="51.919" y="41.223" fill-rule="evenodd" clip-rule="evenodd" fill="#333333" width="8.052" height="1.781"/>
			<polyline fill="none" stroke="#1A1A1A" stroke-width="0.1457" points="51.919,45.15 51.919,37.013 59.971,37.013 59.971,45.15 
							"/>
			<rect x="51.919" y="9.234" fill-rule="evenodd" clip-rule="evenodd" fill="#666464" width="8.052" height="3.649"/>
			<rect x="51.919" y="5.308" fill-rule="evenodd" clip-rule="evenodd" fill="#666464" width="8.052" height="2.145"/>
			<rect x="51.919" y="3.527" fill-rule="evenodd" clip-rule="evenodd" fill="#333333" width="8.052" height="1.781"/>
			<rect x="51.919" y="12.883" fill-rule="evenodd" clip-rule="evenodd" fill="#4C4948" width="8.052" height="0.561"/>
			<g>
				<rect x="56.382" y="11.322" fill-rule="evenodd" clip-rule="evenodd" fill="#1A1A1A" width="1.155" height="1.155"/>
				
					<circle fill-rule="evenodd" clip-rule="evenodd" fill="#BFBFBF" stroke="#000000" stroke-width="0.0728" cx="56.96" cy="10.7" r="0.354"/>
			</g>
			<g>
				<rect x="54.419" y="11.322" fill-rule="evenodd" clip-rule="evenodd" fill="#1A1A1A" width="1.155" height="1.155"/>
				
					<circle fill-rule="evenodd" clip-rule="evenodd" fill="#BFBFBF" stroke="#000000" stroke-width="0.0728" cx="54.997" cy="10.7" r="0.354"/>
			</g>
			<g>
				<rect x="58.345" y="11.322" fill-rule="evenodd" clip-rule="evenodd" fill="#1A1A1A" width="1.155" height="1.155"/>
				
					<circle fill-rule="evenodd" clip-rule="evenodd" fill="#BFBFBF" stroke="#000000" stroke-width="0.0728" cx="58.923" cy="10.7" r="0.354"/>
			</g>
			<g>
				<rect x="52.456" y="11.322" fill-rule="evenodd" clip-rule="evenodd" fill="#1A1A1A" width="1.155" height="1.155"/>
				
					<circle fill-rule="evenodd" clip-rule="evenodd" fill="#BFBFBF" stroke="#000000" stroke-width="0.0728" cx="53.034" cy="10.7" r="0.354"/>
			</g>
			<g>
				
					<circle fill-rule="evenodd" clip-rule="evenodd" fill="#BFBFBF" stroke="#000000" stroke-width="0.0728" cx="56.96" cy="6.774" r="0.354"/>
			</g>
			<g>
				
					<circle fill-rule="evenodd" clip-rule="evenodd" fill="#BFBFBF" stroke="#000000" stroke-width="0.0728" cx="54.997" cy="6.774" r="0.354"/>
			</g>
			<g>
				
					<circle fill-rule="evenodd" clip-rule="evenodd" fill="#BFBFBF" stroke="#000000" stroke-width="0.0728" cx="58.923" cy="6.774" r="0.354"/>
			</g>
			<g>
				
					<circle fill-rule="evenodd" clip-rule="evenodd" fill="#BFBFBF" stroke="#000000" stroke-width="0.0728" cx="53.034" cy="6.774" r="0.354"/>
			</g>
			<rect x="51.919" y="7.453" fill-rule="evenodd" clip-rule="evenodd" fill="#333333" width="8.052" height="1.781"/>
			<polyline fill="none" stroke="#1A1A1A" stroke-width="0.1457" points="51.919,5.308 51.919,13.444 59.971,13.444 59.971,5.308 
							"/>
			<line fill="none" stroke="#1A1A1A" stroke-width="0.0728" x1="51.919" y1="43.004" x2="59.971" y2="43.004"/>
			<g>
				<rect x="52.724" y="19.353" fill="#404040" stroke="#231815" stroke-width="0.0728" width="0.621" height="1.133"/>
			</g>
			<g>
				<rect x="52.724" y="22.473" fill="#404040" stroke="#231815" stroke-width="0.0728" width="0.621" height="1.133"/>
			</g>
			<g>
				<rect x="52.724" y="25.593" fill="#404040" stroke="#231815" stroke-width="0.0728" width="0.621" height="1.132"/>
			</g>
			
				<polygon fill-rule="evenodd" clip-rule="evenodd" fill="none" stroke="#000000" stroke-width="0.1457" stroke-linecap="round" points="
				59.971,5.308 59.971,3.527 51.919,3.527 51.919,5.308 51.3,5.308 50.68,5.308 50.68,3.527 42.628,3.527 42.628,5.308 
				42.009,5.308 41.389,5.307 41.389,3.527 33.337,3.527 33.337,5.308 32.718,5.308 32.718,45.149 33.337,45.149 33.337,46.93 
				41.389,46.93 41.389,45.149 42.009,45.149 42.009,45.15 42.628,45.15 42.628,46.93 50.68,46.93 50.68,45.15 51.3,45.15 
				51.919,45.15 51.919,46.93 59.971,46.93 59.971,45.15 60.591,45.15 60.591,5.308 			"/>
			
				<line fill-rule="evenodd" clip-rule="evenodd" fill="none" stroke="#000000" stroke-width="0.1457" stroke-linecap="round" x1="51.3" y1="45.15" x2="51.3" y2="5.308"/>
			
				<line fill-rule="evenodd" clip-rule="evenodd" fill="none" stroke="#000000" stroke-width="0.1457" stroke-linecap="round" x1="42.009" y1="45.15" x2="42.009" y2="5.308"/>
		</g>
		<g>
			<g>
				<g>
					<g>
						<rect x="14.136" y="13.444" fill-rule="evenodd" clip-rule="evenodd" fill="#898989" width="9.291" height="23.568"/>
						<g>
							<g>
								<rect x="14.136" y="8.675" fill-rule="evenodd" clip-rule="evenodd" fill="#727171" width="0.62" height="4.77"/>
								<rect x="14.136" y="5.308" fill-rule="evenodd" clip-rule="evenodd" fill="#727171" width="0.62" height="3.367"/>
							</g>
							<g>
								<rect x="14.136" y="8.675" fill-rule="evenodd" clip-rule="evenodd" fill="#7D7D7D" width="0.62" height="4.77"/>
							</g>
						</g>
						<g>
							<rect x="22.808" y="37.013" fill-rule="evenodd" clip-rule="evenodd" fill="#7D7D7D" width="0.619" height="4.49"/>
							<rect x="22.808" y="41.502" fill-rule="evenodd" clip-rule="evenodd" fill="#727171" width="0.619" height="3.647"/>
						</g>
						<g>
							<rect x="14.136" y="37.013" fill-rule="evenodd" clip-rule="evenodd" fill="#7D7D7D" width="0.62" height="4.49"/>
							<rect x="14.136" y="41.502" fill-rule="evenodd" clip-rule="evenodd" fill="#727171" width="0.62" height="3.647"/>
						</g>
						<rect x="14.755" y="9.236" fill-rule="evenodd" clip-rule="evenodd" fill="#AAABAB" width="8.052" height="0.561"/>
						<rect x="14.755" y="40.518" fill-rule="evenodd" clip-rule="evenodd" fill="#AAABAB" width="8.052" height="0.561"/>
						<rect x="14.755" y="37.574" fill-rule="evenodd" clip-rule="evenodd" fill="#666464" width="8.052" height="2.945"/>
						<rect x="14.755" y="41.079" fill-rule="evenodd" clip-rule="evenodd" fill="#666464" width="8.052" height="5.851"/>
						<rect x="14.755" y="42.942" fill-rule="evenodd" clip-rule="evenodd" fill="#333333" width="8.053" height="3.988"/>
						<rect x="14.755" y="9.797" fill-rule="evenodd" clip-rule="evenodd" fill="#666464" width="8.052" height="3.647"/>
						<rect x="14.755" y="5.308" fill-rule="evenodd" clip-rule="evenodd" fill="#949495" width="8.052" height="3.367"/>
						<rect x="14.755" y="37.013" fill-rule="evenodd" clip-rule="evenodd" fill="#4C4948" width="8.052" height="0.561"/>
						<rect x="14.755" y="42.942" fill-rule="evenodd" clip-rule="evenodd" fill="#4C4948" width="8.052" height="0.198"/>
					</g>
					<circle fill="#7A7A7A" cx="17.826" cy="22.104" r="1.063"/>
					<circle fill="#363636" cx="17.826" cy="22.104" r="0.967"/>
					
						<radialGradient id="SVGID_9_" cx="27.8068" cy="15.9676" r="0.7104" gradientTransform="matrix(1.2933 0 0 1.2931 -18.2952 1.2657)" gradientUnits="userSpaceOnUse">
						<stop  offset="0" style="stop-color:#DEDEDE"/>
						<stop  offset="1" style="stop-color:#727171"/>
					</radialGradient>
					<circle fill="url(#SVGID_9_)" cx="17.826" cy="22.104" r="0.677"/>
					<circle fill="#666464" cx="17.379" cy="22.127" r="0.109"/>
					<circle fill="#666464" cx="18.259" cy="22.127" r="0.109"/>
					
						<ellipse transform="matrix(0.0012 -1 1 0.0012 -4.9367 40.059)" fill="#666464" cx="17.586" cy="22.501" rx="0.109" ry="0.109"/>
					
						<ellipse transform="matrix(0.0012 -1 1 0.0012 -4.4809 40.5154)" fill="#666464" cx="18.042" cy="22.501" rx="0.109" ry="0.109"/>
					<polyline fill="none" stroke="#1A1A1A" stroke-width="0.1457" points="14.755,5.308 14.755,13.444 22.808,13.444 22.808,5.308 
											"/>
					<polyline fill="none" stroke="#1A1A1A" stroke-width="0.1457" points="14.755,45.15 14.755,37.013 22.808,37.013 22.808,45.15 
											"/>
					<g>
						<rect x="20.667" y="19.661" fill="#404040" stroke="#231815" stroke-width="0.0728" width="0.621" height="1.132"/>
					</g>
					<g>
						<rect x="20.667" y="23.191" fill="#404040" stroke="#231815" stroke-width="0.0728" width="0.621" height="1.132"/>
					</g>
					<g>
						<rect x="20.667" y="26.556" fill="#404040" stroke="#231815" stroke-width="0.0728" width="0.621" height="1.132"/>
					</g>
					<g>
						<rect x="20.667" y="30.085" fill="#404040" stroke="#231815" stroke-width="0.0728" width="0.621" height="1.132"/>
					</g>
					<g>
						<rect x="21.76" y="30.085" fill="#404040" stroke="#231815" stroke-width="0.0728" width="0.621" height="1.132"/>
					</g>
				</g>
				
					<polygon fill-rule="evenodd" clip-rule="evenodd" fill="none" stroke="#000000" stroke-width="0.1457" stroke-linecap="round" points="
					23.427,45.15 22.808,45.15 22.808,46.93 14.755,46.93 14.755,45.15 14.136,45.15 14.136,5.308 23.427,5.308 				"/>
				<g>
					<rect x="14.755" y="1.073" fill="#727171" width="8.052" height="8.163"/>
					<linearGradient id="SVGID_10_" gradientUnits="userSpaceOnUse" x1="15.9115" y1="1.0728" x2="20.0729" y2="1.0728">
						<stop  offset="0" style="stop-color:#727171"/>
						<stop  offset="0.6" style="stop-color:#9FA0A0"/>
						<stop  offset="1" style="stop-color:#727171"/>
					</linearGradient>
					<polygon fill="url(#SVGID_10_)" points="20.073,1.073 15.912,1.073 15.912,1.073 20.073,1.073 					"/>
					<g>
						<rect x="16.298" y="2.264" fill="#1A1A1A" width="4.161" height="2.085"/>
						<polyline fill="none" stroke="#1A1A1A" stroke-width="0.0728" points="16.298,2.264 16.298,4.349 20.459,4.349 20.459,2.264 
													"/>
					</g>
					<rect x="14.755" y="1.073" fill="#4C4948" width="8.052" height="1.191"/>
					<polyline fill-rule="evenodd" clip-rule="evenodd" fill="none" stroke="#1A1A1A" stroke-width="0.1457" points="22.808,5.308 
						22.808,9.236 14.755,9.236 14.755,5.308 					"/>
					
						<polyline fill-rule="evenodd" clip-rule="evenodd" fill="none" stroke="#000000" stroke-width="0.1457" stroke-linecap="round" points="
						14.755,5.308 14.755,1.073 15.912,1.073 15.912,1.073 20.073,1.073 20.073,1.073 22.808,1.073 22.808,5.308 					"/>
				</g>
				<line fill="none" stroke="#1A1A1A" stroke-width="0.1457" x1="22.808" y1="41.079" x2="14.755" y2="41.079"/>
				<polyline fill="none" stroke="#1A1A1A" stroke-width="0.1457" points="14.755,45.15 14.755,37.013 22.808,37.013 22.808,45.15 
									"/>
				<g>
					<circle fill="#B3B3B3" cx="17.423" cy="3.306" r="0.635"/>
					
						<rect x="16.997" y="3.187" transform="matrix(0.707 -0.7072 0.7072 0.707 2.7668 13.2908)" fill="#4C4948" width="0.853" height="0.239"/>
				</g>
				<g>
					<circle fill="#B3B3B3" cx="19.318" cy="3.306" r="0.635"/>
					
						<rect x="18.891" y="3.186" transform="matrix(0.7072 -0.707 0.707 0.7072 3.3191 14.6261)" fill="#4C4948" width="0.853" height="0.239"/>
				</g>
				<g>
					<rect x="17.211" y="38.194" fill-rule="evenodd" clip-rule="evenodd" fill="#1A1A1A" width="1.155" height="1.155"/>
					
						<circle fill-rule="evenodd" clip-rule="evenodd" fill="#BFBFBF" stroke="#000000" stroke-width="0.0728" cx="17.788" cy="39.971" r="0.354"/>
				</g>
				<g>
					<rect x="19.173" y="38.194" fill-rule="evenodd" clip-rule="evenodd" fill="#1A1A1A" width="1.155" height="1.155"/>
					
						<circle fill-rule="evenodd" clip-rule="evenodd" fill="#BFBFBF" stroke="#000000" stroke-width="0.0728" cx="19.751" cy="39.971" r="0.354"/>
				</g>
				<g>
					<rect x="15.247" y="38.194" fill-rule="evenodd" clip-rule="evenodd" fill="#1A1A1A" width="1.155" height="1.155"/>
					
						<circle fill-rule="evenodd" clip-rule="evenodd" fill="#BFBFBF" stroke="#000000" stroke-width="0.0728" cx="15.825" cy="39.971" r="0.354"/>
					
						<circle fill-rule="evenodd" clip-rule="evenodd" fill="#BFBFBF" stroke="#000000" stroke-width="0.0728" cx="15.825" cy="43.68" r="0.354"/>
					
						<circle fill-rule="evenodd" clip-rule="evenodd" fill="#BFBFBF" stroke="#000000" stroke-width="0.0728" cx="17.788" cy="43.68" r="0.354"/>
					
						<circle fill-rule="evenodd" clip-rule="evenodd" fill="#BFBFBF" stroke="#000000" stroke-width="0.0728" cx="19.751" cy="43.68" r="0.354"/>
					
						<circle fill-rule="evenodd" clip-rule="evenodd" fill="#BFBFBF" stroke="#000000" stroke-width="0.0728" cx="21.714" cy="43.68" r="0.354"/>
				</g>
				<g>
					<rect x="21.136" y="38.194" fill-rule="evenodd" clip-rule="evenodd" fill="#1A1A1A" width="1.155" height="1.155"/>
					
						<circle fill-rule="evenodd" clip-rule="evenodd" fill="#BFBFBF" stroke="#000000" stroke-width="0.0728" cx="21.714" cy="39.971" r="0.354"/>
				</g>
			</g>
			<circle fill="#363636" cx="17.825" cy="22.104" r="1.557"/>
			<circle fill="#999999" cx="17.825" cy="22.104" r="0.819"/>
			
				<ellipse transform="matrix(0.0011 -1 1 0.0011 -4.8652 39.3923)" fill="#666464" cx="17.285" cy="22.131" rx="0.132" ry="0.132"/>
			
				<ellipse transform="matrix(0.0011 -1 1 0.0011 -3.8023 40.4564)" fill="#666464" cx="18.349" cy="22.131" rx="0.132" ry="0.132"/>
			
				<ellipse transform="matrix(0.0011 -1 1 0.0011 -5.0682 40.0942)" fill="#666464" cx="17.535" cy="22.584" rx="0.132" ry="0.132"/>
			
				<ellipse transform="matrix(0.0011 -1 1 0.0011 -4.5169 40.6461)" fill="#666464" cx="18.087" cy="22.584" rx="0.132" ry="0.132"/>
		</g>
		<rect x="16.112" y="28.668" fill="#262626" width="3.638" height="2.185"/>
		<polygon fill="#AAABAB" points="19.322,29.688 19.322,28.946 16.541,28.946 16.541,29.688 16.429,29.788 16.429,30.575 
			19.435,30.575 19.435,29.788 		"/>
		<polygon fill="#1A1A1A" points="16.553,30.451 16.553,29.843 16.665,29.743 16.665,29.07 19.198,29.07 19.198,29.743 
			19.312,29.844 19.312,30.451 		"/>
		<polygon fill="#BFBFBF" stroke="#000000" stroke-width="0.0728" points="18.827,29.287 17.036,29.287 16.906,29.505 
			16.906,30.016 18.958,30.016 18.958,29.505 		"/>
		<g>
			<g>
				<g>
					<rect x="14.597" y="17.724" fill-rule="evenodd" clip-rule="evenodd" fill="#FFEA00" width="8.311" height="0.443"/>
				</g>
			</g>
		</g>
	</g>
</g>
</svg>
