<svg xmlns="http://www.w3.org/2000/svg" width="74" height="48" viewBox="0 0 74 48"><title>melsec_fx5uc</title><rect width="74" height="48" fill="#fff"/><rect x="30.825" y="10.077" width="12.35" height="27.846" fill="#c8c9ca"/><polygon points="33.773 36.536 33.773 35.017 32.835 35.017 32.835 28.755 33.773 28.755 33.773 27.238 35.663 27.238 35.663 28.755 36.718 28.755 36.718 35.017 35.663 35.017 35.663 36.536 33.773 36.536" fill="#4c4948"/><rect x="30.825" y="20.021" width="2.128" height="2.756" fill="#8f8f8f"/><polygon points="30.825 10.077 30.825 20.021 32.953 20.021 32.953 20.376 37.946 20.376 37.946 10.077 30.825 10.077" fill="#231815"/><rect x="30.825" y="19.639" width="2.128" height="0.382" fill="#3d3d3d"/><rect x="38.593" y="11.262" width="2.665" height="25.978" fill="#4c4948"/><rect x="30.825" y="21.959" width="2.128" height="0.819" fill="#828282"/><rect x="41.258" y="31.528" width="1.917" height="0.819" fill="#d2d2d3"/><rect x="41.258" y="36.621" width="1.917" height="0.819" fill="#d2d2d3"/><polygon points="33.543 21.176 33.543 22.846 33.308 22.846 33.308 24.643 33.543 24.643 33.543 26.314 37.438 26.314 37.438 21.176 33.543 21.176" fill="#4c4948"/><rect x="30.825" y="10.077" width="12.35" height="27.846" fill="none" stroke="#000" stroke-width="0.159"/><rect x="33.761" y="21.426" width="3.458" height="4.658" fill="#d2d2d3" stroke="#9e9e9f" stroke-width="0.11"/><polygon points="33.481 24.544 33.701 24.544 33.702 24.902 34.658 24.902 34.658 25.773 37 25.774 37 21.737 34.658 21.736 34.658 22.606 33.702 22.606 33.701 22.963 33.481 22.963 33.481 24.544" fill="#4c4948"/><rect x="33.761" y="21.425" width="0.719" height="0.945" fill="#7dad2a" stroke="#9e9e9f" stroke-width="0.121"/><rect x="33.761" y="25.14" width="0.719" height="0.945" fill="#7dad2a" stroke="#9e9e9f" stroke-width="0.121"/><rect x="41.744" y="33.254" width="1.179" height="2.459" fill="#4c4948"/><rect x="42.092" y="33.825" width="0.483" height="0.741" fill="#dbdcdc"/><rect x="33.89" y="27.362" width="1.656" height="9.05" fill="#595757"/><rect x="32.953" y="28.879" width="3.648" height="6.014" fill="#656464"/><rect x="34.777" y="28.879" width="1.824" height="6.014" fill="#787878"/><path d="M34.482,31.589a0.436,0.436,0,0,1,0,.594,0.384,0.384,0,0,1-.563,0,0.437,0.437,0,0,1,0-.594A0.383,0.383,0,0,1,34.482,31.589Z" fill="#a0a1a1" stroke="#717071" stroke-width="0.106"/><path d="M34.436,32.223a0.394,0.394,0,0,0,.046-0.04,0.384,0.384,0,0,0,.038-0.049l-0.554-.584a0.4,0.4,0,0,0-.046.04,0.426,0.426,0,0,0-.038.049Z" fill="#656464"/><path d="M34.482,30.448a0.436,0.436,0,0,1,0,.594,0.384,0.384,0,0,1-.563,0,0.437,0.437,0,0,1,0-.594A0.383,0.383,0,0,1,34.482,30.448Z" fill="#a0a1a1" stroke="#717071" stroke-width="0.106"/><path d="M34.436,31.083a0.394,0.394,0,0,0,.046-0.04,0.384,0.384,0,0,0,.038-0.049l-0.554-.584a0.4,0.4,0,0,0-.046.04,0.426,0.426,0,0,0-.038.049Z" fill="#656464"/><path d="M34.482,29.308a0.436,0.436,0,0,1,0,.594,0.384,0.384,0,0,1-.563,0,0.437,0.437,0,0,1,0-.594A0.383,0.383,0,0,1,34.482,29.308Z" fill="#a0a1a1" stroke="#717071" stroke-width="0.106"/><path d="M34.436,29.942a0.4,0.4,0,0,0,.046-0.04,0.384,0.384,0,0,0,.038-0.049l-0.554-.584a0.4,0.4,0,0,0-.046.04,0.426,0.426,0,0,0-.038.049Z" fill="#656464"/><path d="M34.482,33.87a0.436,0.436,0,0,1,0,.594,0.384,0.384,0,0,1-.563,0,0.437,0.437,0,0,1,0-.594A0.383,0.383,0,0,1,34.482,33.87Z" fill="#a0a1a1" stroke="#717071" stroke-width="0.106"/><path d="M34.436,34.5a0.394,0.394,0,0,0,.046-0.04,0.384,0.384,0,0,0,.038-0.049l-0.554-.584a0.4,0.4,0,0,0-.046.04,0.426,0.426,0,0,0-.038.049Z" fill="#656464"/><path d="M34.482,32.73a0.436,0.436,0,0,1,0,.594,0.384,0.384,0,0,1-.563,0,0.437,0.437,0,0,1,0-.594A0.383,0.383,0,0,1,34.482,32.73Z" fill="#a0a1a1" stroke="#717071" stroke-width="0.106"/><path d="M34.436,33.364a0.394,0.394,0,0,0,.046-0.04,0.384,0.384,0,0,0,.038-0.049l-0.554-.584a0.4,0.4,0,0,0-.046.04,0.426,0.426,0,0,0-.038.049Z" fill="#656464"/><rect x="35.178" y="31.466" width="1.177" height="0.84" fill="#4c4948"/><rect x="35.178" y="30.326" width="1.177" height="0.84" fill="#4c4948"/><rect x="35.178" y="29.186" width="1.177" height="0.84" fill="#4c4948"/><rect x="35.178" y="32.606" width="1.177" height="0.84" fill="#4c4948"/><rect x="35.178" y="33.746" width="1.177" height="0.84" fill="#4c4948"/><path d="M35.115,27.783a0.616,0.616,0,0,1,0,.837,0.541,0.541,0,0,1-.794,0,0.616,0.616,0,0,1,0-.837A0.541,0.541,0,0,1,35.115,27.783Z" fill="#a0a1a1" stroke="#717071" stroke-width="0.106"/><path d="M35.05,28.676a0.579,0.579,0,0,0,.065-0.056,0.618,0.618,0,0,0,.053-0.069l-0.781-.824a0.43,0.43,0,0,0-.118.125Z" fill="#656464"/><path d="M34.321,35.991a0.616,0.616,0,0,1,0-.837,0.541,0.541,0,0,1,.794,0,0.616,0.616,0,0,1,0,.837A0.541,0.541,0,0,1,34.321,35.991Z" fill="#a0a1a1" stroke="#717071" stroke-width="0.106"/><path d="M34.386,35.1a0.579,0.579,0,0,0-.065.056,0.618,0.618,0,0,0-.053.069l0.781,0.824a0.43,0.43,0,0,0,.118-0.124Z" fill="#656464"/><ellipse cx="42.163" cy="12.408" rx="0.207" ry="0.218" fill="#231815"/><ellipse cx="42.163" cy="13.008" rx="0.207" ry="0.218" fill="#231815"/><ellipse cx="42.163" cy="13.609" rx="0.207" ry="0.218" fill="#231815"/><ellipse cx="42.163" cy="14.209" rx="0.207" ry="0.218" fill="#231815"/><ellipse cx="42.163" cy="14.809" rx="0.207" ry="0.218" fill="#231815"/><ellipse cx="42.163" cy="15.41" rx="0.207" ry="0.218" fill="#231815"/><ellipse cx="42.163" cy="16.01" rx="0.207" ry="0.218" fill="#231815"/><ellipse cx="42.163" cy="16.61" rx="0.207" ry="0.218" fill="#231815"/><ellipse cx="42.163" cy="17.211" rx="0.207" ry="0.218" fill="#231815"/><ellipse cx="42.163" cy="17.811" rx="0.207" ry="0.218" fill="#231815"/><ellipse cx="42.163" cy="18.411" rx="0.207" ry="0.218" fill="#231815"/><ellipse cx="42.163" cy="19.012" rx="0.207" ry="0.218" fill="#231815"/><ellipse cx="42.163" cy="19.612" rx="0.207" ry="0.218" fill="#231815"/><ellipse cx="42.163" cy="20.212" rx="0.207" ry="0.218" fill="#231815"/><ellipse cx="42.163" cy="20.813" rx="0.207" ry="0.218" fill="#231815"/><ellipse cx="42.163" cy="21.413" rx="0.207" ry="0.218" fill="#231815"/></svg>