<svg xmlns="http://www.w3.org/2000/svg" width="74" height="48" viewBox="0 0 74 48"><title>melsec_q</title><rect width="74" height="48" fill="#fff"/><rect x="23.485" y="9.039" width="49.935" height="29.921" fill="#898989"/><rect x="0.583" y="29.011" width="6.074" height="9.95" fill="#bfbfbf"/><rect x="0.583" y="9.038" width="6.074" height="19.974" fill="#aaabab"/><rect x="0.583" y="10.787" width="6.073" height="17.653" fill="#9fb0a3"/><line x1="0.584" y1="35.377" x2="6.656" y2="35.377" fill="none" stroke="#000" stroke-width="0.108"/><line x1="0.583" y1="10.782" x2="6.657" y2="10.782" fill="#a6b1ab" stroke="#656569" stroke-width="0.108"/><path d="M6.656,17.962H5.064V15.367A1.524,1.524,0,0,0,4.5,14.216V11.874c0-.673-0.03-0.7-0.7-0.7H0.583V29.013H4.5l0.009-3.807,0.01-.008a1.548,1.548,0,0,0,.545-1.153V21.453H6.656V17.962ZM4.494,20.369H5.907a0.271,0.271,0,0,1,.3.225,0.277,0.277,0,0,1-.3.225l-1.212,0a0.3,0.3,0,0,0-.3.3v2.922a0.581,0.581,0,0,1-.187.4l-0.177.145a0.585,0.585,0,0,0-.188.4l-0.012.866a0.244,0.244,0,0,1-.243.242H1.573a0.243,0.243,0,0,1-.242-0.242V13.512a0.243,0.243,0,0,1,.242-0.242H3.581a0.243,0.243,0,0,1,.242.242v0.96a0.537,0.537,0,0,0,.2.385l0.174,0.126a0.538,0.538,0,0,1,.2.385v2.925a0.3,0.3,0,0,0,.3.3H5.907a0.236,0.236,0,1,1,0,.452H4.493v1.321Z" fill="#9da7a2" stroke="#656569" stroke-width="0.108"/><rect x="6.656" y="9.039" width="16.829" height="29.921" fill="#d9341d"/><rect x="6.656" y="9.039" width="11.966" height="29.921" fill="#da3f39"/><rect x="6.656" y="9.039" width="16.829" height="4.435" fill="#5e5d5c"/><ellipse cx="19.244" cy="10.914" rx="0.519" ry="0.511" fill="#7cae2a"/><rect x="25.392" y="32.811" width="4.897" height="5.332" rx="0.306" ry="0.306" fill="#333"/><rect x="25.744" y="33.057" width="4.226" height="4.817" fill="#bfbfbf" stroke="#9fa0a0" stroke-width="0.13"/><polygon points="29.739 34.756 29.443 34.756 29.443 33.358 26.341 33.356 26.341 37.389 29.443 37.39 29.443 35.992 29.739 35.992 29.739 34.756" fill="#262626" stroke="gray" stroke-width="0.13"/><rect x="28.745" y="36.521" width="0.698" height="0.869" fill="#7cae2a" stroke="#9fa0a0" stroke-width="0.122"/><rect x="28.745" y="33.357" width="0.698" height="0.869" fill="#7cae2a" stroke="#9fa0a0" stroke-width="0.122"/><rect x="29.245" y="11.362" width="1.175" height="0.588" fill="#7cae2a" stroke="#000" stroke-width="0.054"/><rect x="29.245" y="12.28" width="1.175" height="0.588" fill="#7cae2a" stroke="#000" stroke-width="0.054"/><rect x="29.245" y="13.198" width="1.175" height="0.588" fill="#404040" stroke="#231815" stroke-width="0.054"/><rect x="29.245" y="14.116" width="1.175" height="0.587" fill="#404040" stroke="#231815" stroke-width="0.054"/><rect x="29.245" y="15.033" width="1.175" height="0.588" fill="#404040" stroke="#231815" stroke-width="0.054"/><rect x="29.245" y="15.951" width="1.175" height="0.588" fill="#404040" stroke="#231815" stroke-width="0.054"/><rect x="29.245" y="16.869" width="1.175" height="0.588" fill="#404040" stroke="#231815" stroke-width="0.054"/><path d="M31.808,27.045V26.924h-3.96a0.105,0.105,0,0,1-.1-0.1V26.634a0.931,0.931,0,0,0-.971-0.9h-3.13a0.137,0.137,0,0,1-.162-0.124v3.38a0.137,0.137,0,0,1,.162-0.124h3.13a0.931,0.931,0,0,0,.971-0.9V27.779a0.105,0.105,0,0,1,.1-0.1h3.96V27.045ZM23.485,29.03V28.992A0.184,0.184,0,0,0,23.485,29.03Zm0-3.417V25.575A0.184,0.184,0,0,0,23.485,25.613Z" fill="#333"/><path d="M27.762,27.045a0.19,0.19,0,0,1-.165-0.173V26.634a0.806,0.806,0,0,0-.85-0.774h-3.13a0.33,0.33,0,0,1-.132-0.026v2.937a0.33,0.33,0,0,1,.132-0.026h3.131A0.806,0.806,0,0,0,27.6,27.97V27.733a0.2,0.2,0,0,1,.166-0.184h4.046v-0.5H27.762Z" fill="#898989"/><path d="M30.4,9.558V9.039H29.874a0.3,0.3,0,0,1,.337.232v0.42h1.6V9.558H30.4Z" fill="#333"/><rect x="23.485" y="31.607" width="8.323" height="0.132" fill="#333"/><rect x="23.485" y="9.039" width="8.323" height="29.921" fill="none"/><path d="M31.808,28.076H30.258a0.171,0.171,0,1,0,0,.342h1.549V28.076Z" fill="#333"/><path d="M31.808,30.774H30.258a0.171,0.171,0,1,0,0,.342h1.549V30.774Z" fill="#333"/><path d="M31.553,33.373v0.914a0.3,0.3,0,0,1-.3.3H30.488V33.068h0.761A0.3,0.3,0,0,1,31.553,33.373Z" fill="#fff" fill-rule="evenodd"/><path d="M31.553,36.724v0.914a0.3,0.3,0,0,1-.3.3H30.488V36.419h0.761A0.3,0.3,0,0,1,31.553,36.724Z" fill="#fff" fill-rule="evenodd"/><rect x="33.935" y="29.686" width="4.897" height="5.332" rx="0.306" ry="0.306" fill="#333"/><rect x="34.254" y="29.955" width="4.226" height="4.816" fill="#bfbfbf" stroke="#9fa0a0" stroke-width="0.112"/><polygon points="34.485 33.073 34.781 33.073 34.781 34.471 37.882 34.473 37.882 30.44 34.781 30.439 34.781 31.837 34.485 31.837 34.485 33.073" fill="#262626" stroke="gray" stroke-width="0.169"/><rect x="34.781" y="30.439" width="0.698" height="0.869" fill="#7cae2a" stroke="#9fa0a0" stroke-width="0.122"/><rect x="34.781" y="33.602" width="0.698" height="0.869" fill="#7cae2a" stroke="#9fa0a0" stroke-width="0.122"/><rect x="33.935" y="23.957" width="4.897" height="5.332" rx="0.306" ry="0.306" fill="#333"/><rect x="34.254" y="24.225" width="4.226" height="4.816" fill="#bfbfbf" stroke="#9fa0a0" stroke-width="0.112"/><polygon points="34.485 27.344 34.781 27.344 34.781 28.742 37.882 28.743 37.882 24.711 34.781 24.709 34.781 26.108 34.485 26.108 34.485 27.344" fill="#262626" stroke="gray" stroke-width="0.169"/><rect x="34.781" y="24.71" width="0.698" height="0.869" fill="#7cae2a" stroke="#9fa0a0" stroke-width="0.122"/><rect x="34.781" y="27.873" width="0.698" height="0.869" fill="#7cae2a" stroke="#9fa0a0" stroke-width="0.122"/><rect x="43.024" y="27.151" width="4.229" height="9.966" fill="#2f2f2f" stroke="#4c4948" stroke-width="0.112"/><polygon points="46.002 28.012 45.995 28.158 44.794 28.158 44.794 28.321 44.636 28.321 44.636 28.213 44.121 28.213 44.127 28.461 43.912 28.466 43.912 28.898 43.912 28.91 43.912 29.342 44.127 29.347 44.121 29.596 44.636 29.596 44.636 29.487 44.794 29.487 44.794 29.65 45.995 29.65 46.002 29.796 46.262 29.802 46.262 28.934 46.262 28.874 46.262 28.006 46.002 28.012" fill="#8c8c8c"/><polygon points="46.002 29.904 45.995 30.049 44.794 30.049 44.794 30.212 44.636 30.212 44.636 30.104 44.121 30.104 44.127 30.352 43.912 30.357 43.912 30.789 43.912 30.801 43.912 31.233 44.127 31.238 44.121 31.487 44.636 31.487 44.636 31.378 44.794 31.378 44.794 31.541 45.995 31.541 46.002 31.687 46.262 31.693 46.262 30.826 46.262 30.765 46.262 29.897 46.002 29.904" fill="#8c8c8c"/><polygon points="46.002 32.558 45.995 32.704 44.794 32.704 44.794 32.867 44.636 32.867 44.636 32.758 44.121 32.758 44.127 33.007 43.912 33.012 43.912 33.444 43.912 33.456 43.912 33.888 44.127 33.892 44.121 34.141 44.636 34.141 44.636 34.032 44.794 34.032 44.794 34.196 45.995 34.196 46.002 34.341 46.262 34.348 46.262 33.48 46.262 33.419 46.262 32.552 46.002 32.558" fill="#8c8c8c"/><polygon points="46.002 34.449 45.995 34.595 44.794 34.595 44.794 34.758 44.636 34.758 44.636 34.649 44.121 34.649 44.127 34.898 43.912 34.903 43.912 35.335 43.912 35.347 43.912 35.779 44.127 35.784 44.121 36.033 44.636 36.033 44.636 35.924 44.794 35.924 44.794 36.087 45.995 36.087 46.002 36.233 46.262 36.239 46.262 35.371 46.262 35.311 46.262 34.443 46.002 34.449" fill="#8c8c8c"/><rect x="53.741" y="27.015" width="2.53" height="10.52" fill="#fff" stroke="#262626" stroke-width="0.108"/><rect x="51.219" y="28.517" width="2.53" height="7.831" fill="#fff" stroke="#262626" stroke-width="0.108"/><line x1="53.741" y1="29.649" x2="56.286" y2="29.649" fill="#fff" stroke="#262626" stroke-width="0.108"/><line x1="53.741" y1="32.28" x2="56.286" y2="32.281" fill="#fff" stroke="#262626" stroke-width="0.108"/><line x1="53.741" y1="34.911" x2="56.286" y2="34.911" fill="#fff" stroke="#262626" stroke-width="0.108"/><line x1="51.217" y1="31.141" x2="53.762" y2="31.142" fill="#fff" stroke="#262626" stroke-width="0.108"/><line x1="51.217" y1="33.772" x2="53.762" y2="33.773" fill="#fff" stroke="#262626" stroke-width="0.108"/><path d="M54.982,14.975c0-.3-0.045-0.288-0.419-0.288H51.819c-0.374,0-.428-0.013-0.428.288v9.691c0,0.3.045,0.288,0.419,0.288h2.744c0.374,0,.428.013,0.428-0.288V14.975Z" fill="#232323"/><polygon points="54.066 18.032 54.739 17.315 54.739 14.936 51.642 14.936 51.642 18.032 54.066 18.032" fill="#333" stroke="gray" stroke-width="0.108"/><polygon points="54.066 24.731 54.739 24.013 54.739 21.636 51.642 21.636 51.642 24.731 54.066 24.731" fill="#333" stroke="gray" stroke-width="0.108"/><polygon points="54.066 21.394 54.739 20.676 54.739 18.298 51.642 18.298 51.642 21.394 54.066 21.394" fill="#333" stroke="gray" stroke-width="0.108"/><circle cx="53.191" cy="16.484" r="0.821" fill="#e9d900"/><circle cx="53.191" cy="19.838" r="0.821" fill="#e9d900"/><path d="M52.634,16.456l0.287-.433,0.02,0.04-0.116.3h0.967v0.191H52.825l0.116,0.3-0.02.04-0.287-.433v-0.01Z" fill="#b7aa00"/><path d="M52.634,19.832l0.287-.433,0.02,0.04-0.116.3h0.967v0.191H52.825l0.116,0.3-0.02.04-0.287-.433v-0.01Z" fill="#b7aa00"/><circle cx="53.197" cy="23.174" r="0.821" fill="#cd324d"/><path d="M52.557,23.168l0.287-.433,0.02,0.04-0.116.3h0.967v0.191H52.748l0.116,0.3-0.02.04-0.287-.433v-0.01Z" fill="#a6253d"/><line x1="50.77" y1="25.494" x2="50.78" y2="38.948" fill="none" stroke="#262626" stroke-width="0.216"/><rect x="50.77" y="38.403" width="6.005" height="0.557" fill="#262626"/><line x1="56.775" y1="25.504" x2="48.453" y2="25.504" fill="none" stroke="#262626" stroke-width="0.216"/><line x1="59.986" y1="17.616" x2="60.437" y2="19.355" fill="none" stroke="#231815" stroke-width="0.108"/><line x1="61.113" y1="17.294" x2="59.503" y2="17.745" fill="none" stroke="#231815" stroke-width="0.108"/><line x1="61.113" y1="19.194" x2="59.503" y2="19.644" fill="none" stroke="#231815" stroke-width="0.108"/><line x1="59.986" y1="19.836" x2="60.437" y2="21.575" fill="none" stroke="#231815" stroke-width="0.108"/><line x1="61.113" y1="19.515" x2="59.503" y2="19.965" fill="none" stroke="#231815" stroke-width="0.108"/><line x1="61.113" y1="21.414" x2="59.503" y2="21.865" fill="none" stroke="#231815" stroke-width="0.108"/><line x1="59.986" y1="26.567" x2="60.437" y2="28.305" fill="none" stroke="#231815" stroke-width="0.108"/><line x1="61.113" y1="26.245" x2="59.503" y2="26.696" fill="none" stroke="#231815" stroke-width="0.108"/><line x1="61.113" y1="28.144" x2="59.503" y2="28.595" fill="none" stroke="#231815" stroke-width="0.108"/><line x1="59.986" y1="22.103" x2="60.437" y2="23.842" fill="none" stroke="#231815" stroke-width="0.108"/><line x1="61.113" y1="21.781" x2="59.503" y2="22.232" fill="none" stroke="#231815" stroke-width="0.108"/><line x1="61.113" y1="23.681" x2="59.503" y2="24.131" fill="none" stroke="#231815" stroke-width="0.108"/><line x1="59.986" y1="24.323" x2="60.437" y2="26.062" fill="none" stroke="#231815" stroke-width="0.108"/><line x1="61.113" y1="24.001" x2="59.503" y2="24.452" fill="none" stroke="#231815" stroke-width="0.108"/><line x1="61.113" y1="25.901" x2="59.503" y2="26.352" fill="none" stroke="#231815" stroke-width="0.108"/><line x1="59.986" y1="31.033" x2="60.437" y2="32.771" fill="none" stroke="#231815" stroke-width="0.108"/><line x1="61.113" y1="30.711" x2="59.503" y2="31.162" fill="none" stroke="#231815" stroke-width="0.108"/><line x1="61.113" y1="32.611" x2="59.503" y2="33.061" fill="none" stroke="#231815" stroke-width="0.108"/><line x1="59.986" y1="28.789" x2="60.437" y2="30.528" fill="none" stroke="#231815" stroke-width="0.108"/><line x1="61.113" y1="28.468" x2="59.503" y2="28.918" fill="none" stroke="#231815" stroke-width="0.108"/><line x1="61.113" y1="30.367" x2="59.503" y2="30.818" fill="none" stroke="#231815" stroke-width="0.108"/><rect x="61.499" y="13.704" width="3.22" height="24.807" fill="#e6e6e6" stroke="#404040" stroke-width="0.108"/><line x1="61.499" y1="16.554" x2="64.719" y2="16.554" fill="none" stroke="#666464" stroke-width="0.108"/><line x1="61.499" y1="17.926" x2="64.719" y2="17.926" fill="none" stroke="#666464" stroke-width="0.108"/><line x1="61.499" y1="19.298" x2="64.719" y2="19.298" fill="none" stroke="#666464" stroke-width="0.108"/><line x1="61.499" y1="20.671" x2="64.719" y2="20.671" fill="none" stroke="#666464" stroke-width="0.108"/><line x1="61.499" y1="22.043" x2="64.719" y2="22.043" fill="none" stroke="#666464" stroke-width="0.108"/><line x1="61.499" y1="23.416" x2="64.719" y2="23.416" fill="none" stroke="#666464" stroke-width="0.108"/><line x1="61.499" y1="24.788" x2="64.719" y2="24.788" fill="none" stroke="#666464" stroke-width="0.108"/><line x1="61.499" y1="26.16" x2="64.719" y2="26.16" fill="none" stroke="#666464" stroke-width="0.108"/><line x1="61.499" y1="27.533" x2="64.719" y2="27.533" fill="none" stroke="#666464" stroke-width="0.108"/><line x1="61.499" y1="28.905" x2="64.719" y2="28.905" fill="none" stroke="#666464" stroke-width="0.108"/><line x1="61.499" y1="30.278" x2="64.719" y2="30.278" fill="none" stroke="#666464" stroke-width="0.108"/><line x1="61.499" y1="31.65" x2="64.719" y2="31.65" fill="none" stroke="#666464" stroke-width="0.108"/><line x1="61.499" y1="33.022" x2="64.719" y2="33.022" fill="none" stroke="#666464" stroke-width="0.108"/><line x1="61.499" y1="34.395" x2="64.719" y2="34.395" fill="none" stroke="#666464" stroke-width="0.108"/><line x1="61.499" y1="35.767" x2="64.719" y2="35.767" fill="none" stroke="#666464" stroke-width="0.108"/><line x1="61.499" y1="37.14" x2="64.719" y2="37.14" fill="none" stroke="#666464" stroke-width="0.108"/><line x1="61.499" y1="38.512" x2="64.719" y2="38.512" fill="none" stroke="#666464" stroke-width="0.108"/><line x1="62.337" y1="38.512" x2="62.337" y2="16.554" fill="none" stroke="#666464" stroke-width="0.108"/><line x1="59.986" y1="33.215" x2="60.437" y2="34.954" fill="none" stroke="#231815" stroke-width="0.108"/><line x1="61.113" y1="32.894" x2="59.503" y2="33.344" fill="none" stroke="#231815" stroke-width="0.108"/><line x1="61.113" y1="34.793" x2="59.503" y2="35.244" fill="none" stroke="#231815" stroke-width="0.108"/><line x1="61.113" y1="35.163" x2="59.503" y2="35.613" fill="none" stroke="#231815" stroke-width="0.108"/><line x1="59.986" y1="35.485" x2="60.565" y2="37.803" fill="none" stroke="#231815" stroke-width="0.108"/><line x1="59.503" y1="35.71" x2="60.147" y2="38.254" fill="none" stroke="#231815" stroke-width="0.108"/><line x1="60.565" y1="37.803" x2="61.113" y2="37.9" fill="none" stroke="#231815" stroke-width="0.108"/><line x1="60.147" y1="38.254" x2="61.113" y2="38.479" fill="none" stroke="#231815" stroke-width="0.108"/><line x1="60.147" y1="38.254" x2="60.565" y2="37.803" fill="none" stroke="#231815" stroke-width="0.108"/><line x1="59.503" y1="38.96" x2="59.503" y2="13.507" fill="none" stroke="#231815" stroke-width="0.108"/><path d="M61.105,17.372a0.84,0.84,0,0,0-.092,0,0.893,0.893,0,0,0,.092,1.782" fill="#aaabab" stroke="#464342" stroke-linecap="round" stroke-linejoin="round" stroke-width="0.108"/><path d="M61.105,19.584a0.84,0.84,0,0,0-.092,0,0.893,0.893,0,0,0,.092,1.782" fill="#aaabab" stroke="#464342" stroke-linecap="round" stroke-linejoin="round" stroke-width="0.108"/><path d="M61.105,21.861a0.874,0.874,0,0,0-.092,0,0.893,0.893,0,0,0,.092,1.782" fill="#aaabab" stroke="#464342" stroke-linecap="round" stroke-linejoin="round" stroke-width="0.108"/><path d="M61.105,24.076a0.851,0.851,0,0,0-.092,0,0.893,0.893,0,0,0,.092,1.783" fill="#aaabab" stroke="#464342" stroke-linecap="round" stroke-linejoin="round" stroke-width="0.108"/><path d="M61.105,26.325c-0.031,0-.062,0-0.092,0a0.893,0.893,0,0,0,.092,1.783" fill="#aaabab" stroke="#464342" stroke-linecap="round" stroke-linejoin="round" stroke-width="0.108"/><path d="M61.105,28.541a0.851,0.851,0,0,0-.092,0,0.892,0.892,0,0,0,.092,1.782" fill="#aaabab" stroke="#464342" stroke-linecap="round" stroke-linejoin="round" stroke-width="0.108"/><path d="M61.105,30.785c-0.031,0-.062,0-0.092,0a0.893,0.893,0,0,0,.092,1.783" fill="#aaabab" stroke="#464342" stroke-linecap="round" stroke-linejoin="round" stroke-width="0.108"/><path d="M61.105,32.97c-0.031,0-.062,0-0.092,0a0.893,0.893,0,0,0,.092,1.783" fill="#aaabab" stroke="#464342" stroke-linecap="round" stroke-linejoin="round" stroke-width="0.108"/><path d="M61.105,35.287a0.851,0.851,0,0,0-.092,0,0.893,0.893,0,0,0,.092,1.783" fill="#aaabab" stroke="#464342" stroke-linecap="round" stroke-linejoin="round" stroke-width="0.108"/><path d="M61.105,13.774a0.84,0.84,0,0,0-.092,0,0.893,0.893,0,0,0,.092,1.782" fill="#333" stroke="#000" stroke-width="0.108"/><line x1="68.309" y1="17.616" x2="68.759" y2="19.355" fill="none" stroke="#231815" stroke-width="0.108"/><line x1="69.436" y1="17.294" x2="67.825" y2="17.745" fill="none" stroke="#231815" stroke-width="0.108"/><line x1="69.436" y1="19.193" x2="67.825" y2="19.644" fill="none" stroke="#231815" stroke-width="0.108"/><line x1="68.309" y1="19.836" x2="68.759" y2="21.575" fill="none" stroke="#231815" stroke-width="0.108"/><line x1="69.436" y1="19.514" x2="67.825" y2="19.965" fill="none" stroke="#231815" stroke-width="0.108"/><line x1="69.436" y1="21.414" x2="67.825" y2="21.865" fill="none" stroke="#231815" stroke-width="0.108"/><line x1="68.309" y1="26.567" x2="68.759" y2="28.305" fill="none" stroke="#231815" stroke-width="0.108"/><line x1="69.436" y1="26.245" x2="67.825" y2="26.695" fill="none" stroke="#231815" stroke-width="0.108"/><line x1="69.436" y1="28.144" x2="67.825" y2="28.595" fill="none" stroke="#231815" stroke-width="0.108"/><line x1="68.309" y1="22.103" x2="68.759" y2="23.842" fill="none" stroke="#231815" stroke-width="0.108"/><line x1="69.436" y1="21.781" x2="67.825" y2="22.232" fill="none" stroke="#231815" stroke-width="0.108"/><line x1="69.436" y1="23.681" x2="67.825" y2="24.131" fill="none" stroke="#231815" stroke-width="0.108"/><line x1="68.309" y1="24.323" x2="68.759" y2="26.062" fill="none" stroke="#231815" stroke-width="0.108"/><line x1="69.436" y1="24.001" x2="67.825" y2="24.452" fill="none" stroke="#231815" stroke-width="0.108"/><line x1="69.436" y1="25.901" x2="67.825" y2="26.351" fill="none" stroke="#231815" stroke-width="0.108"/><line x1="68.309" y1="31.033" x2="68.759" y2="32.771" fill="none" stroke="#231815" stroke-width="0.108"/><line x1="69.436" y1="30.711" x2="67.825" y2="31.162" fill="none" stroke="#231815" stroke-width="0.108"/><line x1="69.436" y1="32.611" x2="67.825" y2="33.061" fill="none" stroke="#231815" stroke-width="0.108"/><line x1="68.309" y1="28.789" x2="68.759" y2="30.528" fill="none" stroke="#231815" stroke-width="0.108"/><line x1="69.436" y1="28.468" x2="67.825" y2="28.918" fill="none" stroke="#231815" stroke-width="0.108"/><line x1="69.436" y1="30.367" x2="67.825" y2="30.818" fill="none" stroke="#231815" stroke-width="0.108"/><rect x="69.822" y="13.704" width="3.22" height="24.807" fill="#e6e6e6" stroke="#404040" stroke-width="0.108"/><line x1="69.822" y1="16.553" x2="73.042" y2="16.553" fill="none" stroke="#666464" stroke-width="0.108"/><line x1="69.822" y1="17.926" x2="73.042" y2="17.926" fill="none" stroke="#666464" stroke-width="0.108"/><line x1="69.822" y1="19.298" x2="73.042" y2="19.298" fill="none" stroke="#666464" stroke-width="0.108"/><line x1="69.822" y1="20.671" x2="73.042" y2="20.671" fill="none" stroke="#666464" stroke-width="0.108"/><line x1="69.822" y1="22.043" x2="73.042" y2="22.043" fill="none" stroke="#666464" stroke-width="0.108"/><line x1="69.822" y1="23.415" x2="73.042" y2="23.415" fill="none" stroke="#666464" stroke-width="0.108"/><line x1="69.822" y1="24.788" x2="73.042" y2="24.788" fill="none" stroke="#666464" stroke-width="0.108"/><line x1="69.822" y1="26.16" x2="73.042" y2="26.16" fill="none" stroke="#666464" stroke-width="0.108"/><line x1="69.822" y1="27.533" x2="73.042" y2="27.533" fill="none" stroke="#666464" stroke-width="0.108"/><line x1="69.822" y1="28.905" x2="73.042" y2="28.905" fill="none" stroke="#666464" stroke-width="0.108"/><line x1="69.822" y1="30.277" x2="73.042" y2="30.277" fill="none" stroke="#666464" stroke-width="0.108"/><line x1="69.822" y1="31.65" x2="73.042" y2="31.65" fill="none" stroke="#666464" stroke-width="0.108"/><line x1="69.822" y1="33.022" x2="73.042" y2="33.022" fill="none" stroke="#666464" stroke-width="0.108"/><line x1="69.822" y1="34.395" x2="73.042" y2="34.395" fill="none" stroke="#666464" stroke-width="0.108"/><line x1="69.822" y1="35.767" x2="73.042" y2="35.767" fill="none" stroke="#666464" stroke-width="0.108"/><line x1="69.822" y1="37.14" x2="73.042" y2="37.14" fill="none" stroke="#666464" stroke-width="0.108"/><line x1="69.822" y1="38.512" x2="73.042" y2="38.512" fill="none" stroke="#666464" stroke-width="0.108"/><line x1="70.659" y1="38.511" x2="70.659" y2="16.553" fill="none" stroke="#666464" stroke-width="0.108"/><line x1="68.309" y1="33.215" x2="68.759" y2="34.954" fill="none" stroke="#231815" stroke-width="0.108"/><line x1="69.436" y1="32.894" x2="67.825" y2="33.344" fill="none" stroke="#231815" stroke-width="0.108"/><line x1="69.436" y1="34.793" x2="67.825" y2="35.244" fill="none" stroke="#231815" stroke-width="0.108"/><line x1="69.436" y1="35.163" x2="67.825" y2="35.613" fill="none" stroke="#231815" stroke-width="0.108"/><line x1="68.309" y1="35.485" x2="68.888" y2="37.803" fill="none" stroke="#231815" stroke-width="0.108"/><line x1="67.825" y1="35.71" x2="68.469" y2="38.254" fill="none" stroke="#231815" stroke-width="0.108"/><line x1="68.888" y1="37.803" x2="69.436" y2="37.9" fill="none" stroke="#231815" stroke-width="0.108"/><line x1="68.469" y1="38.254" x2="69.436" y2="38.479" fill="none" stroke="#231815" stroke-width="0.108"/><line x1="68.469" y1="38.254" x2="68.888" y2="37.803" fill="none" stroke="#231815" stroke-width="0.108"/><line x1="67.825" y1="38.96" x2="67.825" y2="13.507" fill="none" stroke="#231815" stroke-width="0.108"/><polygon points="65.098 9.039 56.775 9.039 48.453 9.039 48.453 9.038 40.13 9.038 31.808 9.038 31.807 13.505 40.13 13.505 48.453 13.505 48.453 13.505 56.775 13.505 56.775 13.505 65.098 13.505 65.098 13.505 73.42 13.505 73.42 9.039 65.098 9.039" fill="#5e5d5c"/><path d="M69.428,17.371a0.893,0.893,0,1,0,0,1.784" fill="#aaabab" stroke="#464342" stroke-linecap="round" stroke-linejoin="round" stroke-width="0.108"/><path d="M69.428,19.584a0.893,0.893,0,1,0,0,1.784" fill="#aaabab" stroke="#464342" stroke-linecap="round" stroke-linejoin="round" stroke-width="0.108"/><path d="M69.428,21.861a0.8,0.8,0,0,0-.092,0,0.893,0.893,0,0,0,.092,1.782" fill="#aaabab" stroke="#464342" stroke-linecap="round" stroke-linejoin="round" stroke-width="0.108"/><path d="M69.428,24.076a0.8,0.8,0,0,0-.092,0,0.893,0.893,0,0,0,.092,1.782" fill="#aaabab" stroke="#464342" stroke-linecap="round" stroke-linejoin="round" stroke-width="0.108"/><path d="M69.428,26.325c-0.031,0-.062,0-0.092,0a0.893,0.893,0,0,0,.092,1.783" fill="#aaabab" stroke="#464342" stroke-linecap="round" stroke-linejoin="round" stroke-width="0.108"/><path d="M69.428,28.541a0.8,0.8,0,0,0-.092,0,0.892,0.892,0,0,0,.092,1.782" fill="#aaabab" stroke="#464342" stroke-linecap="round" stroke-linejoin="round" stroke-width="0.108"/><path d="M69.428,30.785c-0.031,0-.062,0-0.092,0a0.893,0.893,0,0,0,.092,1.783" fill="#aaabab" stroke="#464342" stroke-linecap="round" stroke-linejoin="round" stroke-width="0.108"/><path d="M69.428,32.97a0.893,0.893,0,1,0,0,1.784" fill="#aaabab" stroke="#464342" stroke-linecap="round" stroke-linejoin="round" stroke-width="0.108"/><path d="M69.428,35.287a0.8,0.8,0,0,0-.092,0,0.893,0.893,0,0,0,.092,1.783" fill="#aaabab" stroke="#464342" stroke-linecap="round" stroke-linejoin="round" stroke-width="0.108"/><path d="M69.428,13.774a0.846,0.846,0,0,0-.092,0,0.893,0.893,0,0,0,.092,1.782" fill="#333" stroke="#000" stroke-width="0.108"/><line x1="56.775" y1="9.039" x2="56.775" y2="38.96" fill="none" stroke="#000" stroke-width="0.162"/><line x1="48.453" y1="38.96" x2="48.453" y2="9.039" fill="none" stroke="#000" stroke-width="0.162"/><line x1="40.13" y1="9.039" x2="40.13" y2="38.96" fill="none" stroke="#000" stroke-width="0.162"/><line x1="31.808" y1="38.96" x2="31.808" y2="9.039" fill="none" stroke="#000" stroke-width="0.162"/><line x1="23.485" y1="9.039" x2="23.485" y2="38.96" fill="none" stroke="#000" stroke-width="0.162"/><line x1="6.657" y1="38.96" x2="6.657" y2="9.039" fill="none" stroke="#000" stroke-width="0.162"/><line x1="65.098" y1="38.96" x2="65.098" y2="9.039" fill="none" stroke="#000" stroke-width="0.162"/><polyline points="69.212 14.042 69.386 14.666 68.763 14.84" fill="none" stroke="#dcdddd" stroke-linecap="round" stroke-linejoin="round" stroke-width="0.216"/><polyline points="69.212 17.64 69.386 18.264 68.763 18.438" fill="none" stroke="#dcdddd" stroke-linecap="round" stroke-linejoin="round" stroke-width="0.216"/><polyline points="69.212 19.853 69.386 20.476 68.763 20.65" fill="none" stroke="#dcdddd" stroke-linecap="round" stroke-linejoin="round" stroke-width="0.216"/><polyline points="69.212 22.129 69.386 22.753 68.763 22.927" fill="none" stroke="#dcdddd" stroke-linecap="round" stroke-linejoin="round" stroke-width="0.216"/><polyline points="69.212 24.345 69.386 24.968 68.763 25.142" fill="none" stroke="#dcdddd" stroke-linecap="round" stroke-linejoin="round" stroke-width="0.216"/><polyline points="69.212 26.594 69.386 27.218 68.763 27.392" fill="none" stroke="#dcdddd" stroke-linecap="round" stroke-linejoin="round" stroke-width="0.216"/><polyline points="69.212 28.81 69.386 29.433 68.763 29.607" fill="none" stroke="#dcdddd" stroke-linecap="round" stroke-linejoin="round" stroke-width="0.216"/><polyline points="69.212 31.054 69.386 31.678 68.763 31.852" fill="none" stroke="#dcdddd" stroke-linecap="round" stroke-linejoin="round" stroke-width="0.216"/><polyline points="69.212 33.239 69.386 33.862 68.763 34.036" fill="none" stroke="#dcdddd" stroke-linecap="round" stroke-linejoin="round" stroke-width="0.216"/><polyline points="69.212 35.555 69.386 36.179 68.763 36.353" fill="none" stroke="#dcdddd" stroke-linecap="round" stroke-linejoin="round" stroke-width="0.216"/><polyline points="60.89 14.042 61.064 14.666 60.441 14.84" fill="none" stroke="#dcdddd" stroke-linecap="round" stroke-linejoin="round" stroke-width="0.216"/><polyline points="60.89 17.64 61.064 18.264 60.441 18.438" fill="none" stroke="#dcdddd" stroke-linecap="round" stroke-linejoin="round" stroke-width="0.216"/><polyline points="60.89 19.853 61.064 20.476 60.441 20.651" fill="none" stroke="#dcdddd" stroke-linecap="round" stroke-linejoin="round" stroke-width="0.216"/><polyline points="60.89 22.13 61.064 22.753 60.441 22.927" fill="none" stroke="#dcdddd" stroke-linecap="round" stroke-linejoin="round" stroke-width="0.216"/><polyline points="60.89 24.345 61.064 24.969 60.441 25.143" fill="none" stroke="#dcdddd" stroke-linecap="round" stroke-linejoin="round" stroke-width="0.216"/><polyline points="60.89 26.594 61.064 27.218 60.441 27.392" fill="none" stroke="#dcdddd" stroke-linecap="round" stroke-linejoin="round" stroke-width="0.216"/><polyline points="60.89 28.81 61.064 29.434 60.441 29.608" fill="none" stroke="#dcdddd" stroke-linecap="round" stroke-linejoin="round" stroke-width="0.216"/><polyline points="60.89 31.054 61.064 31.678 60.441 31.852" fill="none" stroke="#dcdddd" stroke-linecap="round" stroke-linejoin="round" stroke-width="0.216"/><polyline points="60.89 33.239 61.064 33.863 60.441 34.037" fill="none" stroke="#dcdddd" stroke-linecap="round" stroke-linejoin="round" stroke-width="0.216"/><polyline points="60.89 35.556 61.064 36.179 60.441 36.353" fill="none" stroke="#dcdddd" stroke-linecap="round" stroke-linejoin="round" stroke-width="0.216"/><line x1="69.436" y1="38.96" x2="69.436" y2="13.507" fill="none" stroke="#231815" stroke-width="0.108"/><line x1="61.113" y1="38.96" x2="61.113" y2="13.507" fill="none" stroke="#231815" stroke-width="0.108"/><rect x="0.583" y="9.041" width="6.073" height="19.972" fill="none" stroke="#000" stroke-width="0.108"/><path d="M0.583,9.041v2.131H1.748a0.979,0.979,0,0,0,.979-0.979V9.041H0.583Z" fill="#595959" stroke="#231815" stroke-width="0.108"/><path d="M6.655,26.882H5.482a0.979,0.979,0,0,0-.979.979v1.152H6.655V26.882Z" fill="#595959" stroke="#231815" stroke-width="0.108"/><circle cx="1.661" cy="10.079" r="0.699"/><polygon points="2.285 10.049 1.912 10.049 1.912 9.958 1.723 9.958 1.723 9.456 1.6 9.456 1.6 9.958 1.41 9.958 1.41 10.049 1.038 10.049 1.038 10.11 1.41 10.11 1.41 10.2 1.6 10.2 1.6 10.703 1.723 10.703 1.723 10.2 1.912 10.2 1.912 10.11 2.285 10.11 2.285 10.049" fill="#727171"/><circle cx="5.577" cy="27.988" r="0.699"/><polygon points="6.201 27.957 5.828 27.957 5.828 27.867 5.639 27.867 5.639 27.365 5.516 27.365 5.516 27.867 5.326 27.867 5.326 27.957 4.954 27.957 4.954 28.019 5.326 28.019 5.326 28.109 5.516 28.109 5.516 28.612 5.639 28.612 5.639 28.109 5.828 28.109 5.828 28.019 6.201 28.019 6.201 27.957" fill="#727171"/><rect x="0.583" y="9.04" width="72.837" height="29.922" fill="none" stroke="#000" stroke-width="0.162"/></svg>