<svg xmlns="http://www.w3.org/2000/svg" width="74" height="48" viewBox="0 0 74 48"><title>melsec_qs</title><rect width="74" height="48" fill="#fff"/><rect x="6.99" y="9.088" width="16.594" height="29.825" fill="#d9341d"/><rect x="6.99" y="9.088" width="11.799" height="29.825" fill="#d93e39"/><rect x="23.615" y="9.088" width="49.387" height="29.825" fill="#888"/><rect x="6.99" y="9.088" width="66.011" height="4.421" fill="#333"/><circle cx="19.402" cy="10.958" r="0.512" fill="#7dad2a"/><rect x="6.99" y="9.088" width="16.594" height="29.825" fill="none" stroke="#000" stroke-width="0.161"/><rect x="6.99" y="9.088" width="16.594" height="29.825" fill="none"/><rect x="8.246" y="13.312" width="14.081" height="0.197" fill="#fccf00"/><rect x="23.583" y="9.088" width="16.593" height="29.825" fill="none" stroke="#000" stroke-width="0.161"/><rect x="24.814" y="13.312" width="14.117" height="0.197" fill="#fccf00"/><polygon points="31.908 32.746 27.367 32.746 27.353 33.385 23.615 33.385 23.615 32.624 31.908 32.624 31.908 32.746" fill="#333"/><polygon points="40.17 27.69 28.747 27.69 28.744 28.196 31.908 28.202 31.908 32.701 31.769 32.701 31.786 28.329 23.615 28.329 23.615 27.568 40.17 27.568 40.17 27.69" fill="#333"/><rect x="42.274" y="29.67" width="4.829" height="5.315" rx="0.303" ry="0.303" fill="#333"/><rect x="42.59" y="29.938" width="4.167" height="4.801" fill="#bfbfbf" stroke="#9e9e9f" stroke-width="0.111"/><polygon points="42.817 33.046 43.109 33.046 43.109 34.44 46.167 34.441 46.167 30.421 43.109 30.42 43.109 31.814 42.817 31.814 42.817 33.046" fill="#262626" stroke="gray" stroke-width="0.167"/><rect x="43.109" y="30.42" width="0.688" height="0.866" fill="#7dad2a" stroke="#9e9e9f" stroke-width="0.121"/><rect x="43.109" y="33.573" width="0.688" height="0.867" fill="#7dad2a" stroke="#9e9e9f" stroke-width="0.121"/><rect x="42.274" y="23.959" width="4.829" height="5.315" rx="0.303" ry="0.303" fill="#333"/><rect x="42.59" y="24.227" width="4.167" height="4.801" fill="#bfbfbf" stroke="#9e9e9f" stroke-width="0.111"/><polygon points="42.817 27.335 43.109 27.335 43.109 28.728 46.167 28.73 46.167 24.71 43.109 24.709 43.109 26.103 42.817 26.103 42.817 27.335" fill="#262626" stroke="gray" stroke-width="0.167"/><rect x="43.109" y="24.709" width="0.688" height="0.867" fill="#7dad2a" stroke="#9e9e9f" stroke-width="0.121"/><rect x="43.109" y="27.862" width="0.688" height="0.866" fill="#7dad2a" stroke="#9e9e9f" stroke-width="0.121"/><rect x="40.177" y="9.088" width="8.206" height="29.825" fill="none" stroke="#000" stroke-width="0.161"/><rect x="40.177" y="9.088" width="8.206" height="29.825" fill="none"/><rect x="41.449" y="13.33" width="5.668" height="0.195" fill="#fccf00"/><rect x="50.481" y="27.024" width="4.829" height="5.314" rx="0.303" ry="0.303" fill="#333"/><rect x="50.796" y="27.291" width="4.167" height="4.801" fill="#bfbfbf" stroke="#9e9e9f" stroke-width="0.111"/><polygon points="51.023 30.399 51.315 30.399 51.315 31.793 54.373 31.794 54.373 27.775 51.315 27.773 51.315 29.167 51.023 29.167 51.023 30.399" fill="#262626" stroke="gray" stroke-width="0.167"/><rect x="51.315" y="27.773" width="0.688" height="0.866" fill="#7dad2a" stroke="#9e9e9f" stroke-width="0.121"/><rect x="51.315" y="30.927" width="0.688" height="0.867" fill="#7dad2a" stroke="#9e9e9f" stroke-width="0.121"/><rect x="48.383" y="9.088" width="8.206" height="29.825" fill="none" stroke="#000" stroke-width="0.161"/><rect x="48.383" y="9.088" width="8.206" height="29.825" fill="none"/><rect x="70.01" y="27.007" width="2.495" height="10.486" fill="#fff" stroke="#262626" stroke-width="0.107"/><rect x="67.524" y="28.504" width="2.495" height="7.806" fill="#fff" stroke="#262626" stroke-width="0.107"/><line x1="70.01" y1="29.632" x2="72.519" y2="29.633" fill="#fff" stroke="#262626" stroke-width="0.107"/><line x1="70.01" y1="32.255" x2="72.519" y2="32.256" fill="#fff" stroke="#262626" stroke-width="0.107"/><line x1="70.01" y1="34.878" x2="72.519" y2="34.879" fill="#fff" stroke="#262626" stroke-width="0.107"/><line x1="67.521" y1="31.12" x2="70.031" y2="31.121" fill="#fff" stroke="#262626" stroke-width="0.107"/><line x1="67.521" y1="33.743" x2="70.031" y2="33.743" fill="#fff" stroke="#262626" stroke-width="0.107"/><line x1="67.07" y1="25.491" x2="67.081" y2="38.902" fill="none" stroke="#262626" stroke-width="0.214"/><polygon points="67.08 38.908 67.09 38.359 73.002 38.358 73.002 38.914 67.08 38.908" fill="#262626"/><line x1="73.002" y1="25.501" x2="64.795" y2="25.501" fill="none" stroke="#262626" stroke-width="0.214"/><rect x="67.077" y="25.491" width="5.924" height="0.606" fill="#262626"/><rect x="67.076" y="25.421" width="5.926" height="13.164" fill="#333" opacity="0.4"/><rect x="64.795" y="9.088" width="8.206" height="29.825" fill="none" stroke="#000" stroke-width="0.161"/><rect x="66.067" y="13.314" width="5.668" height="0.195" fill="#fccf00"/><rect x="61.804" y="27.007" width="2.495" height="10.486" fill="#fff" stroke="#262626" stroke-width="0.107"/><rect x="59.317" y="28.504" width="2.495" height="7.806" fill="#fff" stroke="#262626" stroke-width="0.107"/><line x1="61.804" y1="29.632" x2="64.313" y2="29.633" fill="#fff" stroke="#262626" stroke-width="0.107"/><line x1="61.804" y1="32.255" x2="64.313" y2="32.256" fill="#fff" stroke="#262626" stroke-width="0.107"/><line x1="61.804" y1="34.878" x2="64.313" y2="34.879" fill="#fff" stroke="#262626" stroke-width="0.107"/><line x1="59.315" y1="31.12" x2="61.824" y2="31.121" fill="#fff" stroke="#262626" stroke-width="0.107"/><line x1="59.315" y1="33.743" x2="61.824" y2="33.743" fill="#fff" stroke="#262626" stroke-width="0.107"/><line x1="58.864" y1="25.491" x2="58.875" y2="38.902" fill="none" stroke="#262626" stroke-width="0.214"/><polygon points="58.873 38.908 58.883 38.359 64.795 38.358 64.795 38.914 58.873 38.908" fill="#262626"/><line x1="64.795" y1="25.501" x2="56.589" y2="25.501" fill="none" stroke="#262626" stroke-width="0.214"/><rect x="58.871" y="25.491" width="5.924" height="0.606" fill="#262626"/><rect x="58.87" y="25.421" width="5.926" height="13.164" fill="#333" opacity="0.4"/><rect x="56.589" y="9.088" width="8.206" height="29.825" fill="none" stroke="#000" stroke-width="0.161"/><rect x="57.861" y="13.314" width="5.668" height="0.195" fill="#fccf00"/><rect x="1.002" y="28.995" width="5.989" height="9.918" fill="#bfbfbf"/><rect x="1.002" y="9.086" width="5.989" height="19.909" fill="#a9aaaa"/><rect x="1.002" y="10.829" width="5.989" height="17.596" fill="#9eafa2"/><line x1="1.003" y1="35.34" x2="6.99" y2="35.34" fill="none" stroke="#000" stroke-width="0.107"/><line x1="1.002" y1="10.824" x2="6.99" y2="10.824" fill="#a5b0aa" stroke="#666569" stroke-width="0.107"/><path d="M6.99,17.981H5.42V15.395a1.525,1.525,0,0,0-.557-1.147V11.913c0-.671-0.029-0.7-0.693-0.7H1V29H4.865l0.009-3.8,0.01-.008a1.55,1.55,0,0,0,.538-1.149V21.462H6.99v-3.48Zm-2.132,2.4H6.251a0.268,0.268,0,0,1,.3.224,0.273,0.273,0,0,1-.3.224l-1.2,0a0.3,0.3,0,0,0-.3.3v2.912a0.582,0.582,0,0,1-.184.394l-0.175.145a0.586,0.586,0,0,0-.185.394L4.2,25.842a0.242,0.242,0,0,1-.24.241H1.978a0.24,0.24,0,0,1-.239-0.241v-12.3A0.241,0.241,0,0,1,1.978,13.3h1.98a0.241,0.241,0,0,1,.239.241V14.5a0.537,0.537,0,0,0,.193.383l0.172,0.126a0.538,0.538,0,0,1,.192.383v2.916a0.3,0.3,0,0,0,.3.3h1.2a0.234,0.234,0,1,1,0,.451H4.858V20.38Z" fill="#9ca6a1" stroke="#666569" stroke-width="0.107"/><rect x="1.002" y="9.089" width="5.989" height="19.908" fill="none" stroke="#000" stroke-width="0.107"/><path d="M1,9.089v2.124H2.15a0.971,0.971,0,0,0,.966-0.976V9.089H1Z" fill="#595959" stroke="#231815" stroke-width="0.107"/><path d="M6.989,26.873H5.832a0.971,0.971,0,0,0-.966.976V29H6.989V26.873Z" fill="#595959" stroke="#231815" stroke-width="0.107"/><ellipse cx="2.065" cy="10.124" rx="0.689" ry="0.696"/><polygon points="2.68 10.093 2.313 10.093 2.313 10.003 2.126 10.003 2.126 9.503 2.005 9.503 2.005 10.003 1.817 10.003 1.817 10.093 1.451 10.093 1.451 10.155 1.817 10.155 1.817 10.244 2.005 10.244 2.005 10.745 2.126 10.745 2.126 10.244 2.313 10.244 2.313 10.155 2.68 10.155 2.68 10.093" fill="#717071"/><ellipse cx="5.926" cy="27.975" rx="0.689" ry="0.696"/><polygon points="6.541 27.945 6.174 27.945 6.174 27.855 5.987 27.855 5.987 27.354 5.866 27.354 5.866 27.855 5.679 27.855 5.679 27.945 5.312 27.945 5.312 28.006 5.679 28.006 5.679 28.096 5.866 28.096 5.866 28.597 5.987 28.597 5.987 28.096 6.174 28.096 6.174 28.006 6.541 28.006 6.541 27.945" fill="#717071"/><rect x="1.002" y="9.087" width="72" height="29.826" fill="none" stroke="#000" stroke-width="0.161"/></svg>