<svg xmlns="http://www.w3.org/2000/svg" xmlns:xlink="http://www.w3.org/1999/xlink" width="74" height="48" viewBox="0 0 74 48"><defs><radialGradient id="a" cx="-9.97" cy="-42.95" r="5.36" gradientTransform="matrix(1.12, 0, 0, 1.79, 20.6, 109.54)" gradientUnits="userSpaceOnUse"><stop offset="0.15" stop-color="#fff" stop-opacity="0.8"/><stop offset="1" stop-color="#231815" stop-opacity="0.1"/></radialGradient></defs><title>vs80</title><rect width="74" height="48" fill="#fff"/><path d="M72.17,21c.38,1.26.53,3.34-1.49,4.13L69,25.75c.11-1.85.24-4.9.24-7.23C70.28,18.34,71.73,19.57,72.17,21Z" fill="#3c4348"/><path d="M64.36,9.92a3,3,0,0,1,.49,1.62c.09.85.2,5.42.19,7.88s-.19,8.35-.29,9.52A8.27,8.27,0,0,1,64.61,30a2,2,0,0,0-.06-.23l-21,6.92c0-.12,0-.25,0-.4l20.77-6.66c.23-2.48.35-7.3.4-11.32,0-.23,0-.46,0-.69,0-2.63,0-4.81,0-5.57A3.74,3.74,0,0,0,64.22,10Z" fill="#231815"/><path d="M64.36,9.92l-.14,0A2.74,2.74,0,0,0,63,9.14,99.46,99.46,0,0,0,50.77,5.66a87.73,87.73,0,0,1,12.5,3.45A2.8,2.8,0,0,1,64.36,9.92Z" fill="#231815"/><path d="M64.78,17.63c0,.23,0,.46,0,.69L43.88,24.69c0-.08,0-.16,0-.23s0-.34,0-.52Z" fill="#d9382b"/><path d="M43.88,24.69l20.89-6.37c0,4-.17,8.83-.4,11.32L43.61,36.3c0-.51.07-1.17.1-1.94q0-.2,0-.42a.61.61,0,0,0,0-.07c0-.09,0-.18,0-.28,0-.25,0-.5,0-.76s0-.39,0-.58c0-.5,0-1,0-1.55,0-.31,0-.63,0-1,0-.58,0-1.17,0-1.77,0-.2,0-.41,0-.61s0-.31,0-.47,0-.5,0-.75,0-.32,0-.49,0-.38,0-.56,0-.08,0-.12S43.88,24.78,43.88,24.69ZM64.41,21.1A1.14,1.14,0,0,0,64,19.6c-.46-.18-1,.21-1.29.87s-.08,1.33.38,1.51S64.16,21.76,64.41,21.1ZM46,26.77c.25-.66.08-1.33-.39-1.51s-1,.21-1.29.87-.08,1.33.38,1.51S45.76,27.43,46,26.77Z" fill="#454648"/><path d="M64,19.6a1.14,1.14,0,0,1,.38,1.51c-.25.66-.83,1-1.29.87s-.64-.85-.38-1.51S63.56,19.42,64,19.6ZM64.2,21c.21-.55.07-1.11-.32-1.25s-.87.18-1.07.72a.94.94,0,0,0,.32,1.25C63.52,21.91,64,21.58,64.2,21Z" fill="#5c6063"/><path d="M63.89,19.79c.38.15.53.71.32,1.25s-.69.87-1.07.72a.94.94,0,0,1-.32-1.25C63,20,63.5,19.64,63.89,19.79Zm-.17.62-.16-.11-.15.32-.25-.11L63,20.8l.24.1-.13.28.16.11.15-.31.2.09.12-.29-.19-.08Z" fill="#494342"/><polygon points="63.56 20.3 63.72 20.41 63.59 20.69 63.78 20.77 63.66 21.06 63.46 20.97 63.31 21.28 63.15 21.17 63.28 20.9 63.04 20.8 63.16 20.51 63.41 20.61 63.56 20.3" fill="#231815"/><path d="M64.55,29.78a2,2,0,0,1,.06.23,1.08,1.08,0,0,1-.28.55l.06,0-.17.09c-.53.22-19.71,6.56-21.21,7.05.44-.16.53-.4.55-.86,0,0,0-.08,0-.13Z" fill="#30353a"/><path d="M64.33,30.56a1.08,1.08,0,0,0,.28-.55.48.48,0,0,1-.22.52h0Z" fill="#241e1e"/><path d="M50.23,5.6l.31,0Z" fill="#241e1e"/><path d="M45.63,25.26c.46.18.63.85.39,1.51s-.83,1-1.29.87-.64-.85-.38-1.51S45.16,25.09,45.63,25.26Zm.18,1.44c.21-.55.07-1.11-.32-1.25s-.87.18-1.07.72a.94.94,0,0,0,.32,1.25C45.12,27.57,45.6,27.25,45.81,26.7Z" fill="#5c6063"/><path d="M45.49,25.45c.38.15.53.71.32,1.25s-.69.87-1.07.72a.94.94,0,0,1-.32-1.25C44.62,25.63,45.1,25.31,45.49,25.45Zm-.16.62L45.16,26l-.15.32-.25-.11-.12.29.24.1-.13.28.16.11.15-.31.2.08.12-.29-.2-.08Z" fill="#494342"/><polygon points="45.16 25.96 45.32 26.07 45.19 26.35 45.39 26.44 45.26 26.72 45.06 26.64 44.91 26.95 44.75 26.84 44.88 26.56 44.64 26.46 44.77 26.17 45.01 26.28 45.16 25.96" fill="#231815"/><path d="M42,28.44A11.19,11.19,0,0,1,40.3,33.8L35.5,35.29l-.7-.2c1.44-2.55,1.76-6.35.6-10.21-1.51-5-5-8.53-8.51-8.89l2.76-1,2.18-.8,1,.05.91-.37,1,.32c-1.3.54-4.94,2-4.94,2L35,14.81a12.32,12.32,0,0,1,3.56,2.91l.06.11a26.46,26.46,0,0,0,2.28-1.55A1.87,1.87,0,0,1,42,18a.41.41,0,0,1,0,0,22.3,22.3,0,0,1-7,3.39l5.28-1.2a16.93,16.93,0,0,1,1.73,6.37l-5.18,1.86,5.44-1.58c0,.44,0,.92,0,1.44Z" fill="#485157"/><path d="M40.68,16.19l.2.08a26.46,26.46,0,0,1-2.28,1.55l-.06-.11A12.32,12.32,0,0,0,35,14.81l-5.16,1.4s3.64-1.47,4.94-2C37.61,15.08,40.15,16,40.68,16.19Z" fill="#2e2624"/><path d="M42,18.1c.11,1,.29,5.29.28,7.39,0,.36,0,.85,0,1.44l-5.44,1.58,5.18-1.86a16.93,16.93,0,0,0-1.73-6.37L35,21.49A22.3,22.3,0,0,0,42,18.1Z" fill="#2e2624"/><path d="M42,28.44l.28-.07c0,2.89-.08,6.81-.24,8.82a.43.43,0,0,1-.25,0,10.24,10.24,0,0,0-6.31-1.88L40.3,33.8A11.19,11.19,0,0,0,42,28.44Z" fill="#2e2624"/><path d="M43.31,16.12a2.33,2.33,0,0,0-1-.74c-.92-.39-4.39-1.57-6-2s-6.09-1.71-7-1.84l-.19,0h-.32l-.11,0h0a1.06,1.06,0,0,0-.91.94.63.63,0,0,1,0,.07l.3-.07a45.92,45.92,0,0,1,5.72,1.43l1,.32c2.84.89,5.39,1.8,5.92,2l.2.08A1.87,1.87,0,0,1,42,18a.41.41,0,0,1,0,0c.11,1,.29,5.29.28,7.39,0,.36,0,.85,0,1.44s0,.92,0,1.44c0,2.89-.08,6.81-.24,8.82a.43.43,0,0,1-.25,0,10.24,10.24,0,0,0-6.31-1.88l-.7-.2a7,7,0,0,1-1.32,1.69l2.29-.69v0A9.91,9.91,0,0,1,41,37.93,2,2,0,0,0,42,38l1-.29.09,0c.44-.16.53-.4.55-.86,0,0,0-.08,0-.13s0-.25,0-.4c0-.51.07-1.17.1-1.94q0-.21,0-.42a.61.61,0,0,0,0-.07c0-.09,0-.18,0-.28,0-.25,0-.5,0-.76s0-.39,0-.58c0-.5,0-1,0-1.55,0-.31,0-.63,0-1,0-.58,0-1.17,0-1.77,0-.2,0-.41,0-.61s0-.31,0-.47,0-.5,0-.75,0-.32,0-.49,0-.38,0-.56,0-.08,0-.12,0-.33,0-.5,0-.34,0-.52,0-.42,0-.63a.07.07,0,0,0,0,0c0-.2,0-.39,0-.58s0-.1,0-.15q0-.45,0-.88c0-.13,0-.26,0-.39,0-.38,0-.75,0-1.1s0-.75,0-1.09c0-.16,0-.3,0-.45s0,0,0-.06,0-.3,0-.45,0-.32,0-.47A2.84,2.84,0,0,0,43.31,16.12Z" fill="#485157"/><path d="M33.73,13.88l-.91.38-1-.05-2.18.8L28,12.45A45.92,45.92,0,0,1,33.73,13.88Z" fill="#2e2624"/><path d="M26.89,16c3.47.36,7,3.89,8.51,8.89,1.17,3.86.84,7.66-.6,10.21a7,7,0,0,1-1.32,1.69A5.41,5.41,0,0,1,31.37,38l-2.55.77a5.42,5.42,0,0,0,2.27-1.37l.13-.13.25-.28c.11-.13.22-.27.32-.41l0,0a7,7,0,0,0,.49-.79c.06-.11.12-.23.18-.35s.1-.2.14-.3l0-.06c.1-.24.2-.49.29-.75h0a11,11,0,0,0,.41-1.64h0A15,15,0,0,0,33,26.25c-.05-.2-.11-.4-.17-.6a16.73,16.73,0,0,0-.83-2.2L31.79,23h0c-.13-.27-.27-.53-.42-.78a13.82,13.82,0,0,0-2-2.65h0c-.22-.23-.45-.46-.68-.66h0l-.35-.3a9.16,9.16,0,0,0-1.55-1l-.22-.11-.22-.1-.22-.1-.22-.09a5.69,5.69,0,0,0-3.72-.2l2.55-.77A5.41,5.41,0,0,1,26.89,16Z" fill="#eaf4f4"/><path d="M29.09,11.48h0Z" fill="#00536b"/><path d="M28.77,11.48l-.11,0Z" fill="#00536b"/><path d="M28,12.45,29.65,15l-2.76,1a5.24,5.24,0,0,0-.73,0,8.12,8.12,0,0,0,1.54-3.45Z" fill="#485157"/><path d="M32.86,25.72c.05.18.1.36.15.53.14.53.25,1.06.34,1.59l-4.59,1.39a17.44,17.44,0,0,0-.49-2.12Z" fill="#3e4e57"/><path d="M33,26.25c0-.18-.1-.35-.15-.53l-4.6,1.39-.24.07,0-.07c-.07-.25-.15-.49-.24-.72l.24-.07,4.6-1.39c-.18-.51-.38-1-.59-1.47a16.73,16.73,0,0,1,.83,2.2C32.91,25.86,33,26.06,33,26.25Z" fill="#27333a"/><path d="M32.61,24.93,28,26.32a17,17,0,0,0-.81-1.94L31.79,23h0l.22.46C32.23,23.93,32.43,24.42,32.61,24.93Z" fill="#475963"/><path d="M33.35,27.84c-.08-.52-.2-1.05-.34-1.59a15,15,0,0,1,.35,6.36,14.32,14.32,0,0,0,.1-3.94l-4.59,1.39-.24.07c0-.27-.07-.55-.12-.82l.24-.07Z" fill="#27333a"/><path d="M31.79,23,27.2,24.38l-.24.07c-.13-.27-.26-.53-.41-.78l.23-.07,4.58-1.38h0C31.52,22.46,31.66,22.73,31.79,23Z" fill="#27333a"/><path d="M28.87,30.05l4.59-1.39a14.32,14.32,0,0,1-.1,3.94h0c-.07.41-.16.8-.27,1.18l-4.52,1.36A14,14,0,0,0,28.87,30.05Zm.78,2.54a.3.3,0,0,0-.14-.4c-.13,0-.29.07-.34.25a.31.31,0,0,0,.14.4C29.45,32.89,29.6,32.78,29.66,32.59Z" fill="#334149"/><path d="M31.37,22.21h0A14.52,14.52,0,0,0,30.3,20.6L25.74,22l-.23.07c-.17-.24-.36-.47-.54-.69l.22-.07,4.55-1.37-.32-.35A13.82,13.82,0,0,1,31.37,22.21Z" fill="#27333a"/><path d="M31.37,22.21,26.79,23.6A15.35,15.35,0,0,0,25.74,22L30.3,20.6A14.52,14.52,0,0,1,31.37,22.21Z" fill="#3e4e57"/><path d="M29.42,19.57l.32.35-4.55,1.37A12.36,12.36,0,0,0,23.86,20l4.52-1.36.35.3h0c.23.21.46.43.68.66Z" fill="#334149"/><path d="M33.09,33.79c.11-.38.2-.77.27-1.18A11,11,0,0,1,33,34.26l-4.51,1.36-.23.07c0-.15.09-.31.13-.47l.22-.07Z" fill="#27333a"/><path d="M26.83,17.55a9.16,9.16,0,0,1,1.55,1L23.86,20l-.22.07-.46-.37.23-.07,4.49-1.36A9.39,9.39,0,0,0,26.83,17.55Z" fill="#27333a"/><path d="M33,34.26h0c-.09.26-.18.51-.29.75l0,.06-.14.3-.18.35-4.45,1.34a9.43,9.43,0,0,0,.58-1.45Z" fill="#334149"/><path d="M27.9,18.23,23.4,19.58A7.83,7.83,0,0,0,20.16,18l4.23-1.28a6.49,6.49,0,0,1,1.56.38l.22.09.22.1.22.1.22.11A9.39,9.39,0,0,1,27.9,18.23Z" fill="#334149"/><path d="M27.86,37.08l4.45-1.34a7,7,0,0,1-.49.79L32,36.2l-4.42,1.33-.26.08c.09-.15.18-.3.26-.46Z" fill="#27333a"/><path d="M27.62,37.53,32,36.2l-.22.33,0,0-.32.41-.25.28-.13.13-4.3,1.3A7.09,7.09,0,0,0,27.62,37.53Z" fill="#2c3840"/><path d="M28,27.18l.24-.07a17.44,17.44,0,0,1,.49,2.12l-.24.07c-.06-.32-.12-.65-.2-1l0-.09c0-.19-.09-.37-.14-.56S28.08,27.35,28,27.18Z" fill="#27333a"/><path d="M28,26.32l-.24.07,0-.13c0-.12-.08-.24-.13-.36l0-.06q-.28-.73-.61-1.4l.24-.07A17,17,0,0,1,28,26.32Z" fill="#27333a"/><path d="M28,27.12l0,.07c0,.17.1.33.14.5s.1.38.14.56l0,.09c.07.32.14.65.19,1h0c0,.28.09.55.12.82h0a13.88,13.88,0,0,1-.3,5.11h0c0,.16-.08.31-.13.47h0a9.42,9.42,0,0,1-.6,1.46h0c-.08.16-.17.31-.26.46h0a6.76,6.76,0,0,1-.78,1.05l-.12.13a5.33,5.33,0,0,1-2,1.3l-.2.06-.56.17c2.77-.84,4.48-3.85,4.71-7.6,0,0,0,0,0-.05a15.06,15.06,0,0,0-.14-3l0-.16a17,17,0,0,0-.52-2.26l-.16-.5-.08-.24A16.55,16.55,0,0,0,26.31,24l-.13-.22a14.52,14.52,0,0,0-1.1-1.65l-.17-.21h0a11.85,11.85,0,0,0-.93-1A10.61,10.61,0,0,0,23,20l-.1-.08-.1-.08h0c-.21-.16-.43-.3-.64-.44l-.1-.06a6.45,6.45,0,0,0-4.27-1l.2-.1a5.22,5.22,0,0,1,1.73-.07,7.24,7.24,0,0,1,3.41,1.48h0l.46.37h0a11.79,11.79,0,0,1,1.33,1.34h0c.19.22.37.45.54.69h0a15.32,15.32,0,0,1,1.05,1.62h0c.14.25.28.51.41.78h0q.33.67.61,1.4l0,.06.13.36,0,.13C27.85,26.63,27.93,26.87,28,27.12Z" fill="#212226"/><path d="M28.64,30.12l.24-.07a14,14,0,0,1-.3,5.11l-.22.07A13.64,13.64,0,0,0,28.64,30.12Z" fill="#27333a"/><path d="M26.79,38.69l4.3-1.3a5.42,5.42,0,0,1-2.27,1.37l-1.59.48L24.68,40l-.3.09h0a5.33,5.33,0,0,0,2-1.3Z" fill="#27333a"/><path d="M26.79,23.6l-.23.07a14.45,14.45,0,0,0-1-1.62l.23-.07A15.35,15.35,0,0,1,26.79,23.6Z" fill="#51656f"/><path d="M25.95,17.16a6.49,6.49,0,0,0-1.56-.38L20.16,18l-.42.13a5.22,5.22,0,0,0-1.73.07l.09,0,.73-.22.11,0,.12,0,.12,0,.14,0,.06,0,1.26-.38,1-.29.62-.19A5.69,5.69,0,0,1,25.95,17.16Z" fill="#27333a"/><path d="M17.8,18.36h0a6.45,6.45,0,0,1,4.27,1l-.54.16.19.12.54-.16-.1-.06c.22.14.43.28.64.44l-.54.16.19.15L23,20a10.61,10.61,0,0,1,1,.87l-.21-.2-.54.16.21.2.54-.16a11.85,11.85,0,0,1,.93,1l-.54.16.17.21.54-.16a14.52,14.52,0,0,1,1.1,1.65l-.54.16.13.22.54-.16a16.55,16.55,0,0,1,1.1,2.47l-.54.16.08.24.54-.16.16.5a17,17,0,0,1,.52,2.26l-.54.16c0,.08,0,.17,0,.25l.54-.16v-.09a15.06,15.06,0,0,1,.14,3c0-.07,0-.14,0-.21l-.54.16c0,.09,0,.18,0,.26l.54-.16c-.23,3.75-1.94,6.77-4.71,7.6l-3,.91-.35.11c4-1.22,5.84-7.09,4-13.12s-6.56-9.91-10.6-8.7l.33-.1,3-.91A5.07,5.07,0,0,1,17.8,18.36Zm7.13,7.31L24,26a5.38,5.38,0,0,1,.43.62l.68-.21C25,26.1,25,25.85,24.93,25.67Zm.21,1.07-.55.17c.33.54.65,1.11.65,1.11l.07,0C25.29,27.76,25.22,27.24,25.14,26.73Zm-2.06-2.48,1-.31-.5-.52-.72.22Zm-.38-.91.58-.18a11.53,11.53,0,0,0-1-.9l-.07,0ZM18.64,18.5l.54-.16-.5,0-.54.16Z" fill="#30353a"/><path d="M27.41,26.49l.08.24-.54.16-.08-.24Z" fill="#fff"/><path d="M26.55,23.67h0a15.32,15.32,0,0,0-1.05-1.62h0A14.45,14.45,0,0,1,26.55,23.67Z" fill="#27333a"/><path d="M28.17,29.48l0,.16v.09l-.54.16c0-.09,0-.17,0-.25Z" fill="#fff"/><path d="M26.18,23.79l.13.22-.54.16L25.65,24Z" fill="#fff"/><path d="M25.19,21.29l-.22.07A11.54,11.54,0,0,0,23.64,20l.22-.07A12.36,12.36,0,0,1,25.19,21.29Z" fill="#27333a"/><path d="M28.35,32.47c0,.07,0,.14,0,.21s0,0,0,.05l-.54.16c0-.09,0-.17,0-.26Z" fill="#fff"/><path d="M24.92,21.93l.17.21-.54.16-.17-.21.54-.16Z" fill="#fff"/><path d="M28.22,35.69l.23-.07a9.43,9.43,0,0,1-.58,1.45l-.25.07A8.72,8.72,0,0,0,28.22,35.69Z" fill="#27333a"/><path d="M23.78,20.69l.21.2-.54.16-.21-.2Z" fill="#fff"/><path d="M23.4,19.58l-.23.07a7.16,7.16,0,0,0-3.43-1.48l.42-.13A7.83,7.83,0,0,1,23.4,19.58Z" fill="#27333a"/><path d="M24,26l1-.29c0,.18.1.44.15.71l-.68.21A5.38,5.38,0,0,0,24,26Z" fill="#fff"/><path d="M24.59,26.9l.55-.17c.08.51.15,1,.17,1.26l-.07,0S24.92,27.44,24.59,26.9Z" fill="#fff"/><path d="M22.92,19.95,23,20l-.54.16L22.28,20l.54-.16Z" fill="#fff"/><path d="M22.82,19.87l.1.08-.1-.07Z" fill="#fff"/><path d="M24.05,23.94l-1,.31-.25-.61.72-.22Z" fill="#fff"/><path d="M21.63,16.69a.32.32,0,0,1,0,.09h0l-.05,0-.68-1c.11,0,.1,0,.2.14A9.51,9.51,0,0,1,21.63,16.69Z" fill="#504743"/><path d="M21.64,16.77h0a1,1,0,0,1,0,.36l-1,.29-1.26.38.07-.08.1-.09.16-.14.07-.06.08-.06h0l.23-.16h0l0,0,.05,0,.08,0h0l.2-.1h0l.15-.07h0l.32-.12.06,0,.15,0,.14,0h.29Z" fill="#372d29"/><path d="M20.91,15.74l.68,1h-.16l-.68-1h.09Z" fill="#7a716b"/><path d="M21.53,16.72h0Z" fill="#372d29"/><path d="M21.49,16.72h0Z" fill="#504743"/><path d="M22.17,19.43l.1.06-.54.16-.19-.12.54-.16Z" fill="#fff"/><path d="M20.75,15.72l.68,1H21.3l-.69-1h.13Z" fill="#504743"/><path d="M23.29,23.16l-.58.18-.44-1.06.07,0A11.53,11.53,0,0,1,23.29,23.16Z" fill="#fff"/><path d="M27.36,37.61l.26-.08a7.09,7.09,0,0,1-.83,1.16l-.36.11.12-.13A6.36,6.36,0,0,0,27.36,37.61Z" fill="#27333a"/><path d="M20.61,15.73l.69,1-.14,0-.7-1Z" fill="#7a716b"/><path d="M20.46,15.74l.7,1-.15,0-.71-1h0l.32,0Z" fill="#504743"/><path d="M20.3,15.77l.71,1-.06,0-.09,0-.71-1.05Z" fill="#7a716b"/><path d="M20.86,16.86l.09,0-.32.12-.72-1.06h0a2.29,2.29,0,0,1,.39-.12h0l-.15,0Z" fill="#504743"/><path d="M20.62,17h0l-.15.07L19.75,16l.15-.07Z" fill="#7a716b"/><path d="M20.62,17l-.15.07h0Z" fill="#372d29"/><path d="M19.75,16,20.47,17l-.2.1-.72-1.06h0a2.59,2.59,0,0,1,.35-.17h0Z" fill="#504743"/><path d="M20.27,17.13h0l-.08,0Z" fill="#372d29"/><path d="M19.55,16.06l.72,1.06-.08,0-.05,0,0,0-.72-1.06Z" fill="#7a716b"/><path d="M20.14,17.2l0,0h0Z" fill="#372d29"/><path d="M19.37,16.17l.72,1.06-.23.16-.72-1.06.2-.14.21-.13h0Z" fill="#504743"/><path d="M19.87,17.39h0l-.08.06Z" fill="#372d29"/><path d="M19.15,16.33l.72,1.06-.08.06-.07.06L19,16.45l0,0,0,0Z" fill="#7a716b"/><path d="M19.79,17.45l-.07.06h0Z" fill="#372d29"/><path d="M19.72,17.5h0l-.16.14-.72-1.06.2-.18,0,0Z" fill="#504743"/><path d="M18.84,16.59l.72,1.06-.1.09h0l-.71-1,0-.06Z" fill="#7a716b"/><path d="M19.15,16.33l-.08.06Z" fill="#504743"/><path d="M19.46,17.74l-.07.08-.06,0-.08-.12-.59-.88,0,0a1.3,1.3,0,0,1,.17-.22l0,.06.71,1Z" fill="#504743"/><path d="M19.24,17.71l.08.12-.14,0L18.57,17l.05-.1,0,0Z" fill="#7a716b"/><path d="M18.84,16.59l-.05.06Z" fill="#504743"/><path d="M18.57,17l.62.91-.12,0-.1-.15-.45-.67v0Z" fill="#504743"/><path d="M19,17.76l.1.15-.12,0-.48-.71h0a.92.92,0,0,1,.05-.15Z" fill="#7a716b"/><path d="M19.18,18.34l-.54.16-.5,0,.54-.16Z" fill="#fff"/><path d="M13.69,19.54c4-1.21,8.78,2.69,10.6,8.7s0,11.9-4,13.12a5.23,5.23,0,0,1-1.18.21l0,0a5.14,5.14,0,0,0,.69-.16c4-1.22,5.86-7,4.05-13s-6.54-9.82-10.58-8.6a5.07,5.07,0,0,0-.66.25h0l.22-.12.06,0,.19-.09h0l.19-.08h0l.18-.07.07,0,.14,0h0Z" fill="#334149"/><path d="M18.46,17.24l.48.71-.11,0-.32-.45A.35.35,0,0,1,18.46,17.24Z" fill="#504743"/><path d="M13.3,19.76c4-1.22,8.78,2.63,10.58,8.6s0,11.79-4.05,13a5.14,5.14,0,0,1-.69.16l.23-.18.21-.06c3.68-1.11,5.39-6.83,3.61-12.72s-6.37-9.71-10-8.6l-.21.06-.29,0A5.07,5.07,0,0,1,13.3,19.76Z" fill="#231815"/><path d="M13.14,20c3.68-1.11,8.27,2.71,10,8.6s.07,11.61-3.61,12.72l-.21.06a5.44,5.44,0,0,0,.74-.75h0l.23-.3h0a7.9,7.9,0,0,0,1-2,11.1,11.1,0,0,0,.52-2.21c0-.13,0-.26,0-.39s0-.26,0-.39a14.23,14.23,0,0,0,0-2c0-.13,0-.27,0-.4a18.1,18.1,0,0,0-2.19-7.27c-.06-.12-.13-.24-.2-.35a14.27,14.27,0,0,0-1.11-1.63c-.16-.21-.33-.41-.5-.61a11.49,11.49,0,0,0-1.33-1.3,8.22,8.22,0,0,0-2.32-1.38h0L14,20.26h0a5.43,5.43,0,0,0-1-.22Z" fill="#30353a"/><path d="M20,26l-.19-.36A18.1,18.1,0,0,1,22,32.9c0-.14,0-.27,0-.41L20.3,33a17.93,17.93,0,0,0-.68-3.34,18,18,0,0,0-1.29-3.16Z" fill="#475963"/><path d="M19.57,25.29l-1.63.49h0a14.59,14.59,0,0,0-1.1-1.63h0l1.63-.49A14.27,14.27,0,0,1,19.57,25.29Z" fill="#3e4e57"/><path d="M20.36,33.8,22,33.31a14.23,14.23,0,0,1,0,2l-1.63.49h0a14.38,14.38,0,0,0,0-2Z" fill="#3e4e57"/><path d="M18,23.05c.17.19.34.4.5.61l-1.63.49h0c-.16-.21-.33-.41-.5-.61h0Z" fill="#27333a"/><path d="M18,23.05l-1.63.49A11.72,11.72,0,0,0,15,22.25l1.63-.49h0A11.49,11.49,0,0,1,18,23.05Z" fill="#334149"/><path d="M20.26,36.55l1.63-.49a11.1,11.1,0,0,1-.52,2.21l.13-.4-1.63.49A11.58,11.58,0,0,0,20.26,36.55Z" fill="#334149"/><path d="M18.34,26.49a18,18,0,0,1,1.29,3.16A17.93,17.93,0,0,1,20.3,33l-.17-.1.08.86.14.05h0a14.38,14.38,0,0,1,0,2l-.13-.05-.07.76.11.07a11.58,11.58,0,0,1-.39,1.81l-.12,0-.23.7.08.08a7.75,7.75,0,0,1-.9,1.67l-.11-.05-.25.3.13,0a5.38,5.38,0,0,1-1.14,1.05l-.07,0-.32.18.06.06a4.6,4.6,0,0,1-1,.41,4.66,4.66,0,0,1-1.79.18l.5-.15.29-.1.31-.08c3.69-1.12,5.24-6.81,3.45-12.71S12.59,20.1,8.9,21.21l-.3.1-.3.08-.5.15A4.66,4.66,0,0,1,9.4,20.7a4.61,4.61,0,0,1,1-.19l0,.08.36,0,0-.07a5.39,5.39,0,0,1,1.53.25l-.08.11.37.12.07-.11a7.73,7.73,0,0,1,1.68.89l0,.11.58.46.09-.08a11.72,11.72,0,0,1,1.33,1.3h0l-.05.12.48.6.08-.11a14.59,14.59,0,0,1,1.1,1.63h0l-.09.12.4.76Z" fill="#272a2e"/><path d="M19.77,25.64l-.2-.35-1.63.49h0l-.09.12.4.76.08-.18L20,26Z" fill="#27333a"/><path d="M20.3,33l-.17-.1.08.86.14.05h0L22,33.31c0-.13,0-.27,0-.4s0-.27,0-.41Z" fill="#27333a"/><path d="M16.64,21.76h0q-.33-.27-.66-.5l-1.61.49v0a7.73,7.73,0,0,0-1.68-.89l1.63-.49h0A8.22,8.22,0,0,1,16.64,21.76Z" fill="#334149"/><path d="M21.23,38.65c0-.12.1-.25.14-.38a7.9,7.9,0,0,1-1,2h0l-1.63.49a7.75,7.75,0,0,0,.9-1.67h0Z" fill="#334149"/><path d="M16.84,24.15l-.08.11-.48-.6.05-.12C16.51,23.74,16.67,23.94,16.84,24.15Z" fill="#27333a"/><path d="M20.35,35.77h0l-.13-.05-.07.76.11.07,1.63-.49c0-.13,0-.26,0-.39s0-.26,0-.39Z" fill="#27333a"/><path d="M14.68,18.56a.32.32,0,0,1,0,.09h0l-.05,0h0l-.68-1c.11,0,.1,0,.2.14S14.68,18.56,14.68,18.56Z" fill="#504743"/><path d="M14.68,18.64h0a1.22,1.22,0,0,1-.14.61l-.75.23-.12,0h0l-.16.05-.07,0-.18.07h0l-.19.08h0l-.25.12-.23.12h-.42l.06-.07.08-.1.09-.11.11-.11.11-.11.21-.17,0,0,.07-.05h0l.23-.16.1-.06.08,0,.19-.1.15-.07.24-.1h0l.13,0h0l.15,0,.14,0,.13,0h.1l.07,0Z" fill="#272a2e"/><path d="M14.63,18.61h0l-.07,0Z" fill="#372d29"/><path d="M14,17.62l.68,1h-.16l-.68-1h.09Z" fill="#7a716b"/><path d="M13.79,17.6l.68,1-.13,0-.68-1Z" fill="#504743"/><path d="M13.66,17.6l.68,1-.14,0-.7-1h.16Z" fill="#7a716b"/><path d="M13.5,17.61l.7,1-.15,0-.71-1Z" fill="#504743"/><path d="M14,18.68h0l-.13,0Z" fill="#372d29"/><path d="M13.34,17.64l.71,1-.13,0h0l-.72-1.06h0Z" fill="#7a716b"/><path d="M13.66,17.6h0Z" fill="#7a716b"/><path d="M16,21.26l-1.61.49v0l0,.11.58.46.09-.08,1.63-.49Q16.31,21.49,16,21.26Z" fill="#27333a"/><path d="M19.87,38.36l-.12,0-.23.7.08.08h0l1.61-.49c0-.12.1-.25.14-.38l.13-.4Z" fill="#27333a"/><path d="M13.6,17.6h0Z" fill="#504743"/><path d="M13.19,17.68l.72,1.06-.24.1-.72-1.06Z" fill="#504743"/><path d="M13.66,18.83l-.15.07-.72-1.07.08,0,.08,0Z" fill="#7a716b"/><path d="M13.34,17.64l-.13,0Z" fill="#504743"/><path d="M8.9,21.21C12.59,20.1,17,24,18.82,29.89s.24,11.6-3.45,12.71l-.31.08c3.49-1.32,4.9-6.87,3.17-12.62s-6-9.59-9.62-8.76Z" fill="#231815"/><path d="M12.59,20l.34,0a5.43,5.43,0,0,1,1,.22l-1.63.49a5.39,5.39,0,0,0-1.53-.25h0l1.6-.48Z" fill="#2c3840"/><path d="M19.36,41.36l-.23.18,0,0-.14.1-1.6.48h0a5.38,5.38,0,0,0,1.14-1.05l1.63-.49A5.44,5.44,0,0,1,19.36,41.36Z" fill="#2c3840"/><path d="M12.79,17.83l.72,1.07-.19.1-.72-1.07Z" fill="#504743"/><path d="M13.68,19.54h0l-.14,0Z" fill="#372d29"/><path d="M12.59,17.94,13.32,19l-.08,0-.1.06L12.42,18Z" fill="#7a716b"/><path d="M12.94,17.76l-.08,0Z" fill="#504743"/><path d="M13.44,19.62l-.18.07Z" fill="#372d29"/><path d="M12.42,18l.72,1.06-.23.16-.72-1.06.2-.14Z" fill="#504743"/><path d="M13.25,19.69l-.19.08Z" fill="#372d29"/><path d="M8.6,21.32c3.63-.83,7.88,3,9.62,8.76s.32,11.3-3.17,12.62l-.29.1-.5.15L12,43.61c3.69-1.11,5.24-6.81,3.45-12.71s-6.22-9.79-9.91-8.68l2.22-.67.5-.15Z" fill="#30353a"/><path d="M12.19,18.2l.72,1.06h0l-.07.05,0,0,0,0L12,18.32Z" fill="#7a716b"/><path d="M13.06,19.77l-.19.09-.06,0Z" fill="#372d29"/><path d="M12.9,19.27l-.07.05Z" fill="#372d29"/><path d="M12.76,19.38l0,0-.21.17-.72-1.06.16-.14Z" fill="#504743"/><path d="M12.6,19.52l-.11.11-.71-1,.1-.11Z" fill="#7a716b"/><path d="M11.78,18.57l.71,1-.11.11-.7-1Z" fill="#504743"/><path d="M11.68,18.71l.7,1-.09.11-.68-1Z" fill="#7a716b"/><path d="M18.7,40.79l-.11-.05-.25.3.13,0,1.63-.49h0l.23-.3Z" fill="#27333a"/><path d="M11.61,18.84l.68,1-.08.1-.67-1a.64.64,0,0,0-.05.15.66.66,0,0,1,.06-.17Z" fill="#504743"/><path d="M12.22,20l0,.06h-.07l-.61-.9a.64.64,0,0,1,.05-.15Z" fill="#7a716b"/><path d="M18.59,41.88l.36-.22a4.58,4.58,0,0,1-1.26.6l-1.63.49a4.6,4.6,0,0,0,1-.41h0Z" fill="#334149"/><path d="M12.18,20h0Z" fill="#7a716b"/><path d="M12.18,20h0Z" fill="#7a716b"/><path d="M12.18,20l0,.05,0-.05Z" fill="#7a716b"/><path d="M11.5,19.12l.61.9H12l-.44-.62A.34.34,0,0,1,11.5,19.12Z" fill="#504743"/><path d="M12.11,20h0Z" fill="#504743"/><path d="M11.68,18.71l-.07.13Z" fill="#504743"/><path d="M12,20h0l-1.57.47h0a4.61,4.61,0,0,0-1,.19L11,20.2A4.51,4.51,0,0,1,12,20Z" fill="#314b57"/><path d="M13.89,28.18A16.75,16.75,0,0,1,15,31a16.74,16.74,0,0,1,.62,3c-2.06.47-4-.31-4.49-1.84S11.91,28.93,13.89,28.18Z" fill="#838068"/><path d="M13.89,28.18c-2,.75-3.18,2.48-2.72,4s2.42,2.31,4.49,1.84" fill="none" stroke="#c2b194" stroke-miterlimit="10"/><path d="M12.83,26.43a14.52,14.52,0,0,1,1.06,1.76c-2,.75-3.18,2.48-2.72,4s2.42,2.31,4.49,1.84a14.54,14.54,0,0,1,.09,2,4.22,4.22,0,0,1-.79.33,4.89,4.89,0,0,1-5.89-3.58A4.89,4.89,0,0,1,12,26.59,4.16,4.16,0,0,1,12.83,26.43Z" fill="#4c5142"/><path d="M11.7,25a12.11,12.11,0,0,1,1.12,1.38,4.16,4.16,0,0,0-.84.16,4.89,4.89,0,0,0-2.92,6.25A4.89,4.89,0,0,0,15,36.42a4.22,4.22,0,0,0,.79-.33,12.17,12.17,0,0,1-.17,1.78,5.11,5.11,0,0,1-.4.71c-3.09.47-6.27-1.79-7.35-5.36S8.15,26,11,24.68A4.78,4.78,0,0,1,11.7,25Z" fill="#334149"/><path d="M15.65,34A16.74,16.74,0,0,0,15,31a16.75,16.75,0,0,0-1.15-2.85,14.52,14.52,0,0,0-1.06-1.76A12.11,12.11,0,0,0,11.7,25,8.6,8.6,0,0,0,9,23a5.16,5.16,0,0,0-1.85-.45,4.09,4.09,0,0,0-1.37.17c-3.44,1-4.85,6.44-3.15,12.05s5.86,9.33,9.3,8.29a4.09,4.09,0,0,0,1.27-.64,5.12,5.12,0,0,0,1.26-1.37,8.55,8.55,0,0,0,1.17-3.21,12.17,12.17,0,0,0,.17-1.78A14.54,14.54,0,0,0,15.65,34ZM5.59,22.21c3.69-1.11,8.12,2.78,9.91,8.68s.24,11.6-3.45,12.71h0c-3.69,1.11-8.12-2.78-9.91-8.68s-.24-11.6,3.45-12.72Z" fill="#454648"/><path d="M15.18,38.57a5.11,5.11,0,0,0,.4-.71,8.55,8.55,0,0,1-1.17,3.21,4.46,4.46,0,0,1-1.62,1c-3.4.83-7.34-2.54-8.89-7.66s-.14-10.12,3.16-11.3A4.46,4.46,0,0,1,9,23a8.6,8.6,0,0,1,2.74,2,4.78,4.78,0,0,0-.73-.37l-.07,0a3.32,3.32,0,0,0-2.16-.12c-2.56.77-3.6,4.85-2.31,9.11s4.4,7.08,7,6.31a3.32,3.32,0,0,0,1.73-1.3Z" fill="#334149"/><path d="M15.18,38.57l0,.07c-3.23.8-6.7-1.51-7.83-5.27s.48-7.6,3.61-8.73l.07,0c-2.83,1.32-4.23,5-3.15,8.53S12.09,39,15.18,38.57Z" fill="#231815"/><path d="M8.74,24.52a3.32,3.32,0,0,1,2.16.12c-3.13,1.13-4.74,5-3.61,8.73s4.6,6.06,7.83,5.27a3.32,3.32,0,0,1-1.73,1.3c-2.56.77-5.68-2.05-7-6.31S6.18,25.3,8.74,24.52Z" fill="#27333a"/><path d="M12.79,42.06a4.46,4.46,0,0,0,1.62-1,5.12,5.12,0,0,1-1.26,1.37,4.33,4.33,0,0,1-.67.27C8.93,43.78,4.71,40.17,3,34.66S2.9,23.79,6.44,22.72a4.18,4.18,0,0,1,.67-.15h0A5.16,5.16,0,0,1,9,23a4.46,4.46,0,0,0-1.9.07l-.17,0c-3.45,1-5,6.14-3.38,11.38s5.66,8.64,9.11,7.6Z" fill="#27333a"/><path d="M7.11,22.57h0a4.18,4.18,0,0,0-.67.15C2.9,23.79,1.37,29.14,3,34.66s5.89,9.12,9.43,8.05a4.33,4.33,0,0,0,.67-.27,4.09,4.09,0,0,1-1.27.64c-3.44,1-7.6-2.67-9.3-8.29s-.28-11,3.15-12.05A4.09,4.09,0,0,1,7.11,22.57Z" fill="#231815"/><path d="M6.89,23.14l.17,0C3.77,24.28,2.35,29.27,3.9,34.4s5.49,8.5,8.89,7.66l-.17.06c-3.45,1-7.53-2.36-9.11-7.6S3.44,24.18,6.89,23.14Z" fill="#231815"/><path d="M12,43.61c-3.69,1.11-8.12-2.78-9.91-8.68s-.24-11.6,3.45-12.72" fill="none" stroke="#3e3a39" stroke-miterlimit="10" stroke-width="0.25"/><path d="M5.59,22.21c3.69-1.11,8.12,2.78,9.91,8.68s.24,11.6-3.45,12.71" fill="none" stroke="#3e3a39" stroke-miterlimit="10" stroke-width="0.25"/><line x1="20.62" y1="41.25" x2="20.27" y2="41.35" fill="none" stroke="#3e3a39" stroke-miterlimit="10" stroke-width="0.25"/><line x1="13.69" y1="19.54" x2="14.03" y2="19.43" fill="none" stroke="#3e3a39" stroke-miterlimit="10" stroke-width="0.25"/><path d="M26.43,38.8a5.33,5.33,0,0,1-2,1.3l-.2.06-.56.17-3,.91" fill="none" stroke="#3e3a39" stroke-miterlimit="10" stroke-width="0.25"/><path d="M28.32,28.33c.08.32.14.65.2,1s.09.55.12.82a13.64,13.64,0,0,1-.29,5.1c0,.16-.08.31-.13.47a8.72,8.72,0,0,1-.6,1.46c-.08.16-.17.31-.26.46a6.36,6.36,0,0,1-.81,1.06" fill="none" stroke="#3e3a39" stroke-miterlimit="10" stroke-width="0.25"/><path d="M28.16,27.68c.05.19.1.38.14.56" fill="none" stroke="#3e3a39" stroke-miterlimit="10" stroke-width="0.25"/><path d="M27.77,26.39c.08.24.16.48.24.72l0,.07" fill="none" stroke="#3e3a39" stroke-miterlimit="10" stroke-width="0.25"/><path d="M27.59,25.91c0,.12.09.24.13.36" fill="none" stroke="#3e3a39" stroke-miterlimit="10" stroke-width="0.25"/><polyline points="28.97 38.73 24.68 40.02 24.38 40.11" fill="none" stroke="#3e3a39" stroke-miterlimit="10" stroke-width="0.25"/><path d="M31.09,37.4a5.42,5.42,0,0,1-2.27,1.37" fill="none" stroke="#3e3a39" stroke-miterlimit="10" stroke-width="0.25"/><path d="M31.79,36.57c-.1.14-.21.28-.32.41l-.25.28" fill="none" stroke="#3e3a39" stroke-miterlimit="10" stroke-width="0.25"/><path d="M32.64,35.08c0,.1-.09.2-.14.3s-.12.24-.18.35a7,7,0,0,1-.49.79" fill="none" stroke="#3e3a39" stroke-miterlimit="10" stroke-width="0.25"/><path d="M32.95,34.27c-.09.26-.18.51-.29.75" fill="none" stroke="#3e3a39" stroke-miterlimit="10" stroke-width="0.25"/><path d="M33.36,32.62A11,11,0,0,1,33,34.26" fill="none" stroke="#3e3a39" stroke-miterlimit="10" stroke-width="0.25"/><path d="M31.79,23l.22.46a16.73,16.73,0,0,1,.83,2.2c.06.2.12.4.17.6a15,15,0,0,1,.35,6.36" fill="none" stroke="#3e3a39" stroke-miterlimit="10" stroke-width="0.25"/><path d="M29.42,19.57a13.82,13.82,0,0,1,2,2.65c.15.25.29.51.42.78" fill="none" stroke="#3e3a39" stroke-miterlimit="10" stroke-width="0.25"/><path d="M28.73,18.9c.23.21.46.43.68.66" fill="none" stroke="#3e3a39" stroke-miterlimit="10" stroke-width="0.25"/><path d="M26.39,17.34l.22.1.22.11a9.16,9.16,0,0,1,1.55,1l.35.3" fill="none" stroke="#3e3a39" stroke-miterlimit="10" stroke-width="0.25"/><path d="M22.23,17a5.69,5.69,0,0,1,3.72.2l.22.09" fill="none" stroke="#3e3a39" stroke-miterlimit="10" stroke-width="0.25"/><path d="M21.61,17.14l.62-.19,2.55-.77A5.41,5.41,0,0,1,26.89,16c3.47.36,7,3.89,8.51,8.89,1.17,3.86.84,7.66-.6,10.21a7,7,0,0,1-1.32,1.69A5.41,5.41,0,0,1,31.37,38l-2.17.66" fill="none" stroke="#5f5f5b" stroke-miterlimit="10" stroke-width="0.25"/><path d="M13.89,28.18A16.75,16.75,0,0,1,15,31a16.74,16.74,0,0,1,.62,3,14.54,14.54,0,0,1,.09,2,12.17,12.17,0,0,1-.17,1.78,8.55,8.55,0,0,1-1.17,3.21,5.12,5.12,0,0,1-1.26,1.37,4.09,4.09,0,0,1-1.27.64c-3.44,1-7.6-2.67-9.3-8.29s-.28-11,3.15-12.05a4.09,4.09,0,0,1,1.37-.17A5.16,5.16,0,0,1,9,23a8.6,8.6,0,0,1,2.74,2,12.11,12.11,0,0,1,1.12,1.38A14.52,14.52,0,0,1,13.89,28.18Z" fill="none" stroke="#3e3a39" stroke-miterlimit="10" stroke-width="0.25"/><path d="M13.15,42.44a4.33,4.33,0,0,1-.67.27C8.93,43.78,4.71,40.17,3,34.66S2.9,23.79,6.44,22.72a4.18,4.18,0,0,1,.67-.15" fill="none" stroke="#3e3a39" stroke-miterlimit="10" stroke-width="0.25"/><path d="M14.51,41l-.1.1a4.46,4.46,0,0,1-1.62,1l-.17.06c-3.45,1-7.53-2.36-9.11-7.6S3.44,24.18,6.89,23.14l.17,0A4.46,4.46,0,0,1,9,23l.11,0" fill="none" stroke="#3e3a39" stroke-miterlimit="10" stroke-width="0.25"/><path d="M13,42l-.22.06c-3.4.83-7.34-2.54-8.89-7.66s-.14-10.12,3.16-11.3L7.28,23" fill="none" stroke="#3e3a39" stroke-miterlimit="10" stroke-width="0.25"/><path d="M15.13,38.64c-3.23.8-6.7-1.51-7.83-5.27s.48-7.6,3.61-8.73" fill="none" stroke="#3e3a39" stroke-miterlimit="10" stroke-width="0.25"/><path d="M15.26,38.56h-.08c-3.09.47-6.27-1.79-7.35-5.36S8.15,26,11,24.68l.1,0" fill="none" stroke="#3e3a39" stroke-miterlimit="10" stroke-width="0.25"/><path d="M16.64,21.76A11.49,11.49,0,0,1,18,23.05" fill="none" stroke="#3e3a39" stroke-miterlimit="10" stroke-width="0.25"/><path d="M12.12,20H12l-1.57.47h0l0,.08.36,0,0-.07h0l1.6-.48h-.23" fill="#27333a"/><path d="M25.74,22l-.23.07h0a15.32,15.32,0,0,1,1.05,1.62h0l.23-.07" fill="none" stroke="#3e3a39" stroke-miterlimit="10" stroke-width="0.25"/><path d="M31.37,22.21A14.52,14.52,0,0,0,30.3,20.6L25.74,22a15.35,15.35,0,0,1,1.05,1.62Z" fill="none" stroke="#3e3a39" stroke-miterlimit="10" stroke-width="0.25"/><path d="M27.2,24.38l-.24.07h0q.33.67.61,1.4l0,.06.13.36,0,.13.24-.07" fill="none" stroke="#3e3a39" stroke-miterlimit="10" stroke-width="0.25"/><path d="M31.79,23,27.2,24.38A17,17,0,0,1,28,26.32l4.6-1.39c-.18-.51-.38-1-.59-1.47L31.79,23Z" fill="none" stroke="#3e3a39" stroke-miterlimit="10" stroke-width="0.25"/><path d="M28.76,29.23l4.59-1.39c-.08-.52-.2-1.05-.34-1.59,0-.18-.1-.35-.15-.53l-4.6,1.39" fill="none" stroke="#3e3a39" stroke-miterlimit="10" stroke-width="0.25"/><path d="M28,27.18c0,.17.1.33.14.5s.1.38.14.56l0,.09c.07.32.14.65.19,1h0l.24-.07a17.44,17.44,0,0,0-.49-2.12Z" fill="none" stroke="#3e3a39" stroke-miterlimit="10" stroke-width="0.25"/><path d="M27.86,37.08l4.45-1.34.18-.35.14-.3,0-.06c.1-.24.2-.49.29-.75h0l-4.51,1.36" fill="none" stroke="#3e3a39" stroke-miterlimit="10" stroke-width="0.25"/><path d="M28.22,35.69h0a9.42,9.42,0,0,1-.6,1.46h0l.25-.07a9.43,9.43,0,0,0,.58-1.45Z" fill="none" stroke="#3e3a39" stroke-miterlimit="10" stroke-width="0.25"/><path d="M27.62,37.53l-.26.08h0a6.76,6.76,0,0,1-.78,1.05l-.12.13.36-.11" fill="none" stroke="#3e3a39" stroke-miterlimit="10" stroke-width="0.25"/><path d="M31.09,37.4l.13-.13.25-.28.32-.41,0,0L32,36.2l-4.42,1.33a7.09,7.09,0,0,1-.83,1.16Z" fill="none" stroke="#3e3a39" stroke-miterlimit="10" stroke-width="0.25"/><path d="M28.87,30.05l-.24.07h0a13.88,13.88,0,0,1-.3,5.11h0l.22-.07" fill="none" stroke="#3e3a39" stroke-miterlimit="10" stroke-width="0.25"/><path d="M28.57,35.16l4.52-1.36c.11-.38.2-.77.27-1.18h0a14.32,14.32,0,0,0,.1-3.94l-4.59,1.39A14,14,0,0,1,28.57,35.16Z" fill="none" stroke="#3e3a39" stroke-miterlimit="10" stroke-width="0.25"/><path d="M25.19,21.29l4.55-1.37-.32-.35h0c-.22-.23-.45-.46-.68-.66h0l-.35-.3L23.86,20" fill="none" stroke="#3e3a39" stroke-miterlimit="10" stroke-width="0.25"/><path d="M23.64,20h0a11.79,11.79,0,0,1,1.33,1.34h0l.22-.07A12.36,12.36,0,0,0,23.86,20Z" fill="none" stroke="#3e3a39" stroke-miterlimit="10" stroke-width="0.25"/><path d="M20.16,18l-.42.13a7.24,7.24,0,0,1,3.41,1.48h0l.23-.07" fill="none" stroke="#3e3a39" stroke-miterlimit="10" stroke-width="0.25"/><path d="M25.95,17.16a6.49,6.49,0,0,0-1.56-.38L20.16,18a7.83,7.83,0,0,1,3.24,1.53l4.49-1.36a9.39,9.39,0,0,0-1.07-.67l-.22-.11-.22-.1-.22-.1Z" fill="none" stroke="#3e3a39" stroke-miterlimit="10" stroke-width="0.25"/><ellipse cx="29.42" cy="32.52" rx="0.34" ry="0.25" transform="translate(-10.27 51.16) rotate(-73.03)" fill="none" stroke="#3e3a39" stroke-miterlimit="10" stroke-width="0.25"/><polyline points="33.73 13.88 32.82 14.25 29.69 15.53" fill="none" stroke="#928e7f" stroke-linecap="round" stroke-miterlimit="10" stroke-width="0.4"/><polyline points="26.89 15.99 29.65 14.99 31.83 14.2 32.82 14.25" fill="none" stroke="#928e7f" stroke-miterlimit="10" stroke-width="0.25"/><path d="M40.89,16.27a26.46,26.46,0,0,1-2.28,1.55,24.67,24.67,0,0,1-4.41,2.05" fill="none" stroke="#928e7f" stroke-linecap="round" stroke-miterlimit="10" stroke-width="0.4"/><path d="M42,18.1a22.3,22.3,0,0,1-7,3.39" fill="none" stroke="#928e7f" stroke-linecap="round" stroke-miterlimit="10" stroke-width="0.4"/><polyline points="37.13 29.8 42.03 28.44 42.3 28.37" fill="none" stroke="#928e7f" stroke-linecap="round" stroke-miterlimit="10" stroke-width="0.4"/><path d="M50.12,5.6h.11" fill="none" stroke="#3e3a39" stroke-miterlimit="10" stroke-width="0.25"/><path d="M64.48,10.46l.15,0-.08-.19-.15,0Z" fill="none"/><path d="M63.27,9.11a87.73,87.73,0,0,0-12.5-3.45A99.46,99.46,0,0,1,63,9.14,3.4,3.4,0,0,1,64,9.73l.15,0A3.21,3.21,0,0,0,63.27,9.11Z" fill="none"/><path d="M64.15,9.68l-.15,0,.16.17.15,0Z" fill="none"/><path d="M64.36,9.92l-.06-.07-.15,0,.06.07.07.11.15,0Z" fill="none"/><path d="M64.29,10.07l.11.19.15,0L64.44,10Z" fill="none"/><path d="M64.63,10.41l-.15,0,.07.2.15,0Z" fill="none"/><path d="M64.31,9.85l4.15-1.2-.31-.12-4,1.15Z" fill="#3c4348"/><path d="M64.36,9.92l.07.11L68.69,8.8a1.07,1.07,0,0,0-.23-.15l-4.15,1.2Z" fill="#485157"/><path d="M64.55,10.22,68.84,9a.83.83,0,0,0-.15-.17L64.44,10Z" fill="#525d63"/><path d="M64.55,10.22l.08.19,4.31-1.24a1.06,1.06,0,0,0-.1-.19Z" fill="#485157"/><path d="M50.54,5.63l.19,0h0a87.73,87.73,0,0,1,12.5,3.45,3.21,3.21,0,0,1,.88.57l4-1.15-.07,0c-.59-.21-3.53-1.32-5-1.68S56.25,5.12,55.39,5a3.65,3.65,0,0,0-1.38,0l-3.19.47c-.44.06-.78.13-1,.19h.45Z" fill="#30353a"/><path d="M64.7,10.61,69,9.37a1.48,1.48,0,0,0-.06-.2l-4.31,1.24Z" fill="#3c4348"/><path d="M64.85,11.54c.09.85.2,5.42.19,7.88s-.19,8.35-.29,9.52A8.27,8.27,0,0,1,64.61,30a.48.48,0,0,1-.22.52c.47-.23,3.31-1.62,3.79-1.92a1.47,1.47,0,0,0,.75-1.3c0-.19.06-.76.11-1.56.11-1.85.24-4.9.24-7.23,0-.08,0-.17,0-.25,0-3.35-.14-6.85-.18-8.14A3.49,3.49,0,0,0,69,9.37L64.7,10.61A5.7,5.7,0,0,1,64.85,11.54Z" fill="#30353a"/><path d="M43.77,17.68c0,.15,0,.31,0,.47s0,.3,0,.45,0,0,0,.06,0,.29,0,.45c0,.34,0,.71,0,1.09s0,.72,0,1.1c0,.13,0,.26,0,.39q0,.43,0,.88s0,.1,0,.15,0,.38,0,.58a.07.07,0,0,1,0,0c0,.21,0,.42,0,.63l20.89-6.31c0-2.63,0-4.81,0-5.57a6.33,6.33,0,0,0-.2-1.4l-20.95,6A3.81,3.81,0,0,1,43.77,17.68Z" fill="#454648"/><path d="M64.48,10.46l-21,6,.07.2,20.95-6Z" fill="#515457"/><path d="M63,9.14A99.46,99.46,0,0,0,50.77,5.66h0l-.19,0-.31,0h-.11a3.79,3.79,0,0,0-.66,0l-20.15,5.5a2.26,2.26,0,0,0-.69.36h0l.11,0h.32l.19,0c.93.13,5.4,1.37,7,1.84s5.09,1.64,6,2a2.73,2.73,0,0,1,.69.41L64,9.73A3.4,3.4,0,0,0,63,9.14Z" fill="#454648"/><path d="M64.29,10.07l-21,6.05.12.19,21-6Z" fill="#686d70"/><path d="M64.4,10.26l-21,6,.09.19,21-6Z" fill="#5c6063"/><path d="M64.22,10l-.06-.07L43.17,16l.14.17h0l21-6.05Z" fill="#5c6063"/><path d="M64,9.73,43,15.79l.17.16,21-6.06Z" fill="#515457"/><path d="M50.54,5.63l-.31,0Z" fill="#00536b"/><path d="M14,20.26h0l-1.63.49-.08.11.37.12.07-.11,1.63-.49Z" fill="#27333a"/><path d="M17.35,42.15h0l-.07,0-.32.18.06.06h0l1.57-.47.36-.22Z" fill="#27333a"/><ellipse cx="9.46" cy="32.67" rx="5.82" ry="10.29" transform="translate(-9.04 4.13) rotate(-16.8)" fill="url(#a)"/></svg>