<?xml version="1.0" encoding="utf-8"?>
<!-- Generator: Adobe Illustrator 19.2.1, SVG Export Plug-In . SVG Version: 6.00 Build 0)  -->
<svg version="1.1" xmlns="http://www.w3.org/2000/svg" xmlns:xlink="http://www.w3.org/1999/xlink" x="0px" y="0px"
	 viewBox="0 0 16 16" enable-background="new 0 0 16 16" xml:space="preserve">
<g id="レイヤー_1">
	
		<linearGradient id="SVGID_1_" gradientUnits="userSpaceOnUse" x1="0" y1="8" x2="16" y2="8" gradientTransform="matrix(0 1 -1 0 16 0)">
		<stop  offset="0" style="stop-color:#FFFFFF"/>
		<stop  offset="0.5" style="stop-color:#E6E6E6"/>
		<stop  offset="1" style="stop-color:#C8C8C8"/>
	</linearGradient>
	<polygon fill="url(#SVGID_1_)" stroke="#3F9FDB" stroke-width="2.0px" stroke-miterlimit="10" width="16px" height="16px" points="0,16 0,0 16,0 16,16 	"/>
</g>
<g id="レイヤー_2">
	<g>
		<path fill="#009900" d="M3.1206,8.73374c0.71628,1.67552,1.50204,3.51718,2.09206,4.90957
			c0.49871,1.17691,1.45209,1.25354,2.12317,0.16566c1.21615-1.97149,3.11642-5.03922,4.91982-7.94779
			c2.6696-4.3056,1.83916-4.98154-1.84446-1.50361L6.23249,8.30291c0,0-0.54187-0.41887-1.26855-0.98398
			C2.94846,5.75155,2.11698,6.38605,3.1206,8.73374z"/>
		<path fill="#00CC00" d="M3.1206,8.73374c0.71628,1.67552,1.50204,3.51718,2.09206,4.90957
			c0.49871,1.17691,1.45209,1.25354,2.12317,0.16566c1.21615-1.97149,3.11642-5.03922,4.91982-7.94779
			c2.6696-4.3056,1.83916-4.98154-1.84446-1.50361L6.23249,8.30291c0,0-0.54187-0.41887-1.26855-0.98398
			C2.94846,5.75155,2.11698,6.38605,3.1206,8.73374z"/>
	</g>
	<g>
	</g>
	<g>
	</g>
	<g>
	</g>
	<g>
	</g>
	<g>
	</g>
	<g>
	</g>
	<g>
	</g>
	<g>
	</g>
	<g>
	</g>
	<g>
	</g>
	<g>
	</g>
	<g>
	</g>
	<g>
	</g>
	<g>
	</g>
	<g>
	</g>
</g>
</svg>
