<svg xmlns="http://www.w3.org/2000/svg" width="74.125" height="48" viewBox="0 0 74.125 48"><title>cc-link_ie_exio_tb</title><rect width="74.125" height="48" fill="#fff"/><rect x="17.176" y="12.128" width="39.648" height="23.745" fill="#4d4d4d"/><line x1="18.045" y1="25.173" x2="55.955" y2="25.173" fill="none" stroke="#333" stroke-width="0.472"/><polygon points="18.212 20.789 18.212 21.627 18.57 21.627 18.57 22.884 18.212 22.884 18.212 23.386 18.57 23.386 18.57 24.642 18.212 24.642 18.212 25.173 18.045 25.173 18.045 21.04 17.176 21.04 17.176 20.789 18.212 20.789" fill="#333"/><polygon points="55.788 20.789 55.788 21.627 55.43 21.627 55.43 22.884 55.788 22.884 55.788 23.386 55.43 23.386 55.43 24.642 55.788 24.642 55.788 25.173 55.955 25.173 55.955 25.173 55.955 21.04 56.824 21.04 56.824 20.789 55.788 20.789" fill="#333"/><polygon points="17.172 35.872 17.176 21.04 18.045 21.04 18.045 25.173 55.955 25.173 55.955 21.04 56.823 21.04 56.824 35.872 17.172 35.872" fill="#333" stroke="#231815" stroke-width="0.167" opacity="0.4"/><path d="M25.249,32.633v2.382H22.343a0.465,0.465,0,0,1-.334-0.141,0.455,0.455,0,0,1-.1-0.151,0.494,0.494,0,0,1-.037-0.185V32.633h3.377Z" fill="#fff"/><path d="M25.249,31.2v1.287H21.872V31.678a0.63,0.63,0,0,0-.063-0.268,0.651,0.651,0,0,0-.162-0.207h3.6Z" fill="#fff"/><path d="M28.764,32.633v1.906a0.442,0.442,0,0,1-.036.185,0.456,0.456,0,0,1-.1.151,0.5,0.5,0,0,1-.149.1,0.506,0.506,0,0,1-.186.037H25.388V32.633h3.376Z" fill="#fff"/><path d="M28.764,32.489H25.388V31.2h2.906a0.507,0.507,0,0,1,.186.037,0.5,0.5,0,0,1,.149.1,0.456,0.456,0,0,1,.1.151,0.44,0.44,0,0,1,.036.185v0.811Z" fill="#fff"/><path d="M29.085,34.724a0.5,0.5,0,0,1-.036-0.185V32.633h3.377v2.382H29.519a0.474,0.474,0,0,1-.182-0.037,0.459,0.459,0,0,1-.149-0.1A0.465,0.465,0,0,1,29.085,34.724Z" fill="#fff"/><path d="M32.426,31.2v1.287H29.049V31.678a0.635,0.635,0,0,0-.063-0.268,0.66,0.66,0,0,0-.162-0.207h3.6Z" fill="#fff"/><path d="M35.945,32.633v1.906a0.44,0.44,0,0,1-.04.185,0.481,0.481,0,0,1-.248.255,0.5,0.5,0,0,1-.186.037h-2.9V32.633h3.377Z" fill="#fff"/><path d="M35.945,32.489H32.568V31.2h2.9a0.506,0.506,0,0,1,.186.037,0.481,0.481,0,0,1,.248.255,0.438,0.438,0,0,1,.04.185v0.811Z" fill="#fff"/><path d="M36.263,34.724a0.494,0.494,0,0,1-.037-0.185V32.633H39.6v2.382H36.7a0.475,0.475,0,0,1-.182-0.037A0.5,0.5,0,0,1,36.263,34.724Z" fill="#fff"/><path d="M36,31.2h3.6v1.287H36.226V31.678a0.59,0.59,0,0,0-.063-0.268A0.617,0.617,0,0,0,36,31.2Z" fill="#fff"/><path d="M43.122,32.633v1.906a0.44,0.44,0,0,1-.04.185,0.481,0.481,0,0,1-.248.255,0.5,0.5,0,0,1-.185.037h-2.9V32.633h3.377Z" fill="#fff"/><path d="M43.122,32.489H39.745V31.2h2.9a0.505,0.505,0,0,1,.185.037,0.481,0.481,0,0,1,.248.255,0.438,0.438,0,0,1,.04.185v0.811Z" fill="#fff"/><path d="M43.44,34.724a0.494,0.494,0,0,1-.037-0.185V32.633H46.78v2.382H43.874a0.5,0.5,0,0,1-.182-0.037A0.506,0.506,0,0,1,43.44,34.724Z" fill="#fff"/><path d="M46.78,31.2v1.287H43.4V31.678a0.631,0.631,0,0,0-.059-0.268,0.669,0.669,0,0,0-.166-0.207h3.6Z" fill="#fff"/><path d="M50.3,32.633v1.906a0.5,0.5,0,0,1-.036.185,0.465,0.465,0,0,1-.1.151,0.456,0.456,0,0,1-.149.1,0.5,0.5,0,0,1-.182.037H46.923V32.633H50.3Z" fill="#fff"/><path d="M50.3,32.489H46.923V31.2h2.906a0.5,0.5,0,0,1,.182.037,0.456,0.456,0,0,1,.149.1,0.465,0.465,0,0,1,.1.151,0.5,0.5,0,0,1,.036.185v0.811Z" fill="#fff"/><path d="M53.888,32.633v1.906a0.494,0.494,0,0,1-.037.185,0.507,0.507,0,0,1-.252.255,0.5,0.5,0,0,1-.182.037H51.051a0.5,0.5,0,0,1-.182-0.037,0.459,0.459,0,0,1-.149-0.1,0.465,0.465,0,0,1-.1-0.151,0.5,0.5,0,0,1-.036-0.185V32.633h3.307Z" fill="#fff"/><path d="M53.888,32.489H50.581V31.678a0.5,0.5,0,0,1,.036-0.185,0.465,0.465,0,0,1,.1-0.151,0.46,0.46,0,0,1,.149-0.1,0.5,0.5,0,0,1,.182-0.037h2.367a0.5,0.5,0,0,1,.182.037,0.506,0.506,0,0,1,.252.255,0.491,0.491,0,0,1,.037.185v0.811Z" fill="#fff"/><path d="M48.823,30.767a0.5,0.5,0,0,1-.036-0.185V28.676h3.307v1.906a0.5,0.5,0,0,1-.036.185,0.479,0.479,0,0,1-.1.154,0.5,0.5,0,0,1-.149.1,0.478,0.478,0,0,1-.182.037H49.26a0.465,0.465,0,0,1-.334-0.137A0.538,0.538,0,0,1,48.823,30.767Z" fill="#fff"/><path d="M49.075,27.282a0.5,0.5,0,0,1,.185-0.037h2.364a0.478,0.478,0,0,1,.182.037,0.458,0.458,0,0,1,.149.1,0.466,0.466,0,0,1,.1.151,0.514,0.514,0,0,1,.036.185v0.811H48.787V27.721a0.514,0.514,0,0,1,.036-0.185,0.522,0.522,0,0,1,.1-0.151A0.456,0.456,0,0,1,49.075,27.282Z" fill="#fff"/><path d="M48.565,30.85a0.622,0.622,0,0,0,.166.207h-3.6V28.676H48.5v1.906A0.631,0.631,0,0,0,48.565,30.85Z" fill="#fff"/><path d="M48.5,27.721v0.811H45.128V27.245h2.9a0.5,0.5,0,0,1,.185.037,0.46,0.46,0,0,1,.149.1,0.466,0.466,0,0,1,.1.151A0.514,0.514,0,0,1,48.5,27.721Z" fill="#fff"/><path d="M41.646,30.767a0.491,0.491,0,0,1-.037-0.185V28.676h3.377v2.382H42.079a0.489,0.489,0,0,1-.182-0.037,0.51,0.51,0,0,1-.149-0.1A0.478,0.478,0,0,1,41.646,30.767Z" fill="#fff"/><path d="M42.079,27.245h2.907v1.287H41.609V27.721a0.506,0.506,0,0,1,.037-0.185,0.5,0.5,0,0,1,.252-0.255A0.489,0.489,0,0,1,42.079,27.245Z" fill="#fff"/><path d="M41.387,30.85a0.626,0.626,0,0,0,.166.207h-3.6V28.676h3.377v1.906A0.631,0.631,0,0,0,41.387,30.85Z" fill="#fff"/><path d="M41.328,28.532H37.951V27.245h2.9a0.505,0.505,0,0,1,.185.037,0.481,0.481,0,0,1,.248.255,0.451,0.451,0,0,1,.04.185v0.811Z" fill="#fff"/><path d="M34.469,30.767a0.491,0.491,0,0,1-.037-0.185V28.676h3.377v2.382H34.9a0.476,0.476,0,0,1-.182-0.037,0.505,0.505,0,0,1-.149-0.1A0.473,0.473,0,0,1,34.469,30.767Z" fill="#fff"/><path d="M34.9,27.245h2.907v1.287H34.432V27.721a0.507,0.507,0,0,1,.037-0.185,0.5,0.5,0,0,1,.252-0.255A0.476,0.476,0,0,1,34.9,27.245Z" fill="#fff"/><path d="M34.147,30.582a0.635,0.635,0,0,0,.063.268,0.626,0.626,0,0,0,.166.207h-3.6V28.676h3.373v1.906Z" fill="#fff"/><path d="M34.147,27.721v0.811H30.774V27.245h2.9a0.507,0.507,0,0,1,.186.037,0.463,0.463,0,0,1,.149.1,0.455,0.455,0,0,1,.1.151A0.447,0.447,0,0,1,34.147,27.721Z" fill="#fff"/><path d="M27.291,30.767a0.5,0.5,0,0,1-.036-0.185V28.676h3.377v2.382H27.725a0.475,0.475,0,0,1-.182-0.037,0.466,0.466,0,0,1-.149-0.1A0.479,0.479,0,0,1,27.291,30.767Z" fill="#fff"/><path d="M27.394,27.386a0.427,0.427,0,0,1,.149-0.1,0.475,0.475,0,0,1,.182-0.037h2.907v1.287H27.255V27.721a0.514,0.514,0,0,1,.036-0.185A0.465,0.465,0,0,1,27.394,27.386Z" fill="#fff"/><path d="M27.033,30.85a0.663,0.663,0,0,0,.162.207h-3.6V28.676H26.97v1.906A0.635,0.635,0,0,0,27.033,30.85Z" fill="#fff"/><path d="M26.97,27.721v0.811H23.594V27.245H26.5a0.464,0.464,0,0,1,.334.141A0.478,0.478,0,0,1,26.97,27.721Z" fill="#fff"/><path d="M20.078,28.676h3.377v2.382H20.548a0.475,0.475,0,0,1-.182-0.037,0.527,0.527,0,0,1-.153-0.1,0.468,0.468,0,0,1-.1-0.154,0.435,0.435,0,0,1-.037-0.185V28.676Z" fill="#fff"/><path d="M20.548,27.245h2.907v1.287H20.078V27.721a0.448,0.448,0,0,1,.037-0.185,0.454,0.454,0,0,1,.1-0.151A0.466,0.466,0,0,1,20.548,27.245Z" fill="#fff"/><rect x="17.176" y="12.128" width="39.648" height="23.745" fill="none" stroke="#231815" stroke-width="0.25"/><path d="M50.014,14.126a0.055,0.055,0,0,0-.033,0V14.122H50.8v0.007a0.06,0.06,0,0,0-.033,0H50.014Z" fill="#fff"/><path d="M49.011,14.122v0.007a0.059,0.059,0,0,0-.033,0H48.227a0.053,0.053,0,0,0-.033,0V14.122h0.818Z" fill="#fff"/><path d="M47.223,14.122v0.007a0.059,0.059,0,0,0-.033,0H46.439a0.054,0.054,0,0,0-.033,0V14.122h0.818Z" fill="#fff"/><path d="M44.618,14.122h0.818v0.007a0.06,0.06,0,0,0-.033,0H44.651a0.055,0.055,0,0,0-.033,0V14.122Z" fill="#fff"/><path d="M47.223,15.453v-1.33H46.406v1.33h0.818Zm2.758,0H50.8v-1.33H49.981v1.33Zm-0.97,0v-1.33H48.194v1.33h0.818ZM44.2,12.7h7.061v2.563a0.435,0.435,0,0,1-.036.184,0.469,0.469,0,0,1-.43.292H44.2V12.7Zm0.414,2.754h0.818v-1.33H44.618v1.33Z" fill="#fff"/><path d="M43.648,14.122v0.007a0.059,0.059,0,0,0-.033,0H42.864a0.056,0.056,0,0,0-.033,0V14.122h0.818Z" fill="#fff"/><path d="M41.076,14.126a0.057,0.057,0,0,0-.033,0V14.122h0.818v0.007a0.057,0.057,0,0,0-.033,0H41.076Z" fill="#fff"/><path d="M40.073,14.122v0.007a0.059,0.059,0,0,0-.033,0H39.288a0.056,0.056,0,0,0-.033,0V14.122h0.818Z" fill="#fff"/><path d="M37.5,14.126a0.056,0.056,0,0,0-.033,0V14.122h0.818v0.007a0.059,0.059,0,0,0-.033,0H37.5Z" fill="#fff"/><path d="M43.648,14.129V14.122H42.831v1.33h0.818V14.129Zm-5.363,1.323v-1.33H37.467v1.33h0.818Zm1.788,0v-1.33H39.255v1.33h0.818ZM37.054,12.7h7.008v3.039H37.054V12.7Zm3.989,1.431v1.323h0.818v-1.33H41.043v0.007Z" fill="#fff"/><path d="M36.5,14.122v0.007a0.057,0.057,0,0,0-.033,0H35.713a0.055,0.055,0,0,0-.033,0V14.122H36.5Z" fill="#fff"/><path d="M34.71,14.122v0.007a0.059,0.059,0,0,0-.033,0H33.925a0.056,0.056,0,0,0-.033,0V14.122H34.71Z" fill="#fff"/><path d="M32.1,14.122h0.818v0.007a0.059,0.059,0,0,0-.033,0H32.137a0.057,0.057,0,0,0-.033,0V14.122Z" fill="#fff"/><path d="M31.134,14.122v0.007a0.059,0.059,0,0,0-.033,0H30.35a0.057,0.057,0,0,0-.033,0V14.122h0.818Z" fill="#fff"/><path d="M34.71,15.453v-1.33H33.892v1.33H34.71ZM36.5,14.129V14.122H35.68v1.33H36.5V14.129Zm-5.363,1.323v-1.33H30.317v1.33h0.818ZM29.9,12.7h7.009v3.039H29.9V12.7Zm2.2,1.431v1.323h0.818v-1.33H32.1v0.007Z" fill="#fff"/><path d="M29.314,14.126H28.562a0.057,0.057,0,0,0-.033,0V14.122h0.818v0.007A0.059,0.059,0,0,0,29.314,14.126Z" fill="#fff"/><path d="M27.559,14.122v0.007a0.056,0.056,0,0,0-.033,0H26.775a0.057,0.057,0,0,0-.033,0V14.122h0.818Z" fill="#fff"/><path d="M24.987,14.126a0.056,0.056,0,0,0-.033,0V14.122h0.818v0.007a0.057,0.057,0,0,0-.033,0H24.987Z" fill="#fff"/><path d="M23.984,14.122v0.007a0.059,0.059,0,0,0-.033,0H23.2a0.057,0.057,0,0,0-.033,0V14.122h0.818Z" fill="#fff"/><path d="M25.771,15.453v-1.33H24.954v1.33h0.818Zm1.788,0v-1.33H26.741v1.33h0.818Zm0.97-1.323v1.323h0.818v-1.33H28.529v0.007Zm-4.545,0V14.122H23.166v1.33h0.818V14.129ZM22.752,12.7h7.009v3.039H22.752V12.7Z" fill="#fff"/><path d="M22.2,14.122v0.007a0.059,0.059,0,0,0-.033,0H21.411a0.057,0.057,0,0,0-.033,0V14.122H22.2Z" fill="#fff"/><path d="M22.2,15.453v-1.33H21.378v1.33H22.2ZM22.61,12.7v3.039H19.326a0.463,0.463,0,0,1-.179-0.037,0.464,0.464,0,0,1-.255-0.255,0.492,0.492,0,0,1-.036-0.184V12.7H22.61Z" fill="#fff"/></svg>