<svg xmlns="http://www.w3.org/2000/svg" width="74.0625" height="48.03304" viewBox="0 0 74.0625 48.03304"><title>cc-link_ie_safety_exio</title><rect width="74.0625" height="48" fill="#fff"/><rect width="74.0625" height="48" fill="#fff"/><rect x="31.52801" y="0.13125" width="10.99085" height="47.77537" fill="#666"/><rect x="31.52801" y="0.13125" width="10.99085" height="8.31313" fill="#1a1a1a"/><rect x="31.8973" y="8.05826" width="10.25278" height="0.1949" fill="#ffe900"/><rect x="31.52801" y="0.13125" width="10.99085" height="47.77537" fill="none" stroke="#231815" stroke-width="0.25284"/><path d="M33.806,8.89752H38.5908a0.47941,0.47941,0,0,1,.47941.47941V45.73238a0.47764,0.47764,0,0,1-.47764.47764H33.806a0.47975,0.47975,0,0,1-.47975-0.47975V9.37727A0.47975,0.47975,0,0,1,33.806,8.89752Z" fill="#1a1a1a"/><rect x="32.86202" y="10.66029" width="6.36622" height="33.78728" fill="#262626"/><rect x="33.64434" y="9.21502" width="5.11835" height="1.44527" fill="#333"/><rect x="34.95576" y="9.21502" width="3.47337" height="1.44527" fill="#262626"/><rect x="36.1332" y="9.21502" width="2.29593" height="1.44527" fill="#1a1a1a"/><circle cx="37.28101" cy="9.93764" r="0.62329" fill="#a3a3a3"/><path d="M37.79038,10.294l-0.86694-.86343a0.63207,0.63207,0,0,0-.15179.15078l0.86725,0.86343A0.62716,0.62716,0,0,0,37.79038,10.294Z" fill="#d9d9d9"/><rect x="33.64434" y="44.44756" width="5.11835" height="1.4451" fill="#333"/><rect x="34.95576" y="44.44756" width="3.47337" height="1.4451" fill="#262626"/><rect x="36.1332" y="44.44756" width="2.29593" height="1.4451" fill="#1a1a1a"/><circle cx="37.28101" cy="45.16979" r="0.62329" fill="#a3a3a3"/><path d="M37.79038,45.52663l-0.86694-.86377a0.63453,0.63453,0,0,0-.15179.15078l0.86725,0.86377A0.63388,0.63388,0,0,0,37.79038,45.52663Z" fill="#d9d9d9"/><rect x="33.44612" y="10.95638" width="0.85905" height="33.1811" fill="#b98800"/><rect x="33.46817" y="10.97974" width="0.20776" height="33.13472" fill="#e8ab00"/><rect x="34.07499" y="10.97974" width="0.20746" height="33.13472" fill="#e8ab00"/><rect x="37.93064" y="10.95638" width="0.85902" height="33.1811" fill="#b98800"/><rect x="37.95269" y="10.97974" width="0.20776" height="33.13472" fill="#e8ab00"/><rect x="38.55951" y="10.97974" width="0.20745" height="33.13472" fill="#e8ab00"/><circle cx="35.26463" cy="11.63885" r="0.73162" fill="#404040"/><path d="M35.64721,11.18846a0.58575,0.58575,0,0,0-.76519,0v0.90061a0.58575,0.58575,0,0,0,.76519,0V11.18846Z" fill="#3e3a39"/><circle cx="36.97034" cy="11.63885" r="0.73161" fill="#404040"/><path d="M36.58793,11.18846a0.58575,0.58575,0,0,1,.76519,0v0.90061a0.58575,0.58575,0,0,1-.76519,0V11.18846Z" fill="#3e3a39"/><circle cx="35.26463" cy="13.3134" r="0.73162" fill="#404040"/><path d="M35.64721,12.863a0.58585,0.58585,0,0,0-.76519,0v0.90065a0.58575,0.58575,0,0,0,.76519,0V12.863Z" fill="#3e3a39"/><circle cx="36.97034" cy="13.3134" r="0.73161" fill="#404040"/><path d="M36.58793,12.863a0.58585,0.58585,0,0,1,.76519,0v0.90065a0.58575,0.58575,0,0,1-.76519,0V12.863Z" fill="#3e3a39"/><circle cx="35.26463" cy="14.98795" r="0.73162" fill="#404040"/><path d="M35.64721,14.53753a0.58575,0.58575,0,0,0-.76519,0v0.90065a0.58575,0.58575,0,0,0,.76519,0V14.53753Z" fill="#3e3a39"/><circle cx="36.97034" cy="14.98795" r="0.73161" fill="#404040"/><path d="M36.58793,14.53753a0.58575,0.58575,0,0,1,.76519,0v0.90065a0.58575,0.58575,0,0,1-.76519,0V14.53753Z" fill="#3e3a39"/><circle cx="35.26463" cy="16.66247" r="0.73162" fill="#404040"/><path d="M35.64721,16.21208a0.58575,0.58575,0,0,0-.76519,0v0.90065a0.58585,0.58585,0,0,0,.76519,0V16.21208Z" fill="#3e3a39"/><circle cx="36.97034" cy="16.66247" r="0.73161" fill="#404040"/><path d="M36.58793,16.21208a0.58575,0.58575,0,0,1,.76519,0v0.90065a0.58585,0.58585,0,0,1-.76519,0V16.21208Z" fill="#3e3a39"/><circle cx="35.26463" cy="18.33703" r="0.73162" fill="#404040"/><path d="M35.64721,17.88664a0.58575,0.58575,0,0,0-.76519,0v0.90061a0.58575,0.58575,0,0,0,.76519,0V17.88664Z" fill="#3e3a39"/><circle cx="36.97034" cy="18.33703" r="0.73161" fill="#404040"/><path d="M36.58793,17.88664a0.58575,0.58575,0,0,1,.76519,0v0.90061a0.58575,0.58575,0,0,1-.76519,0V17.88664Z" fill="#3e3a39"/><circle cx="35.26463" cy="20.0117" r="0.73162" fill="#404040"/><path d="M35.64721,19.56132a0.58533,0.58533,0,0,0-.76519,0V20.462a0.58575,0.58575,0,0,0,.76519,0V19.56132Z" fill="#3e3a39"/><circle cx="36.97034" cy="20.0117" r="0.73161" fill="#404040"/><path d="M36.58793,19.56132a0.58533,0.58533,0,0,1,.76519,0V20.462a0.58575,0.58575,0,0,1-.76519,0V19.56132Z" fill="#3e3a39"/><circle cx="35.26463" cy="21.68627" r="0.73162" fill="#404040"/><path d="M35.64721,21.23588a0.58575,0.58575,0,0,0-.76519,0v0.90065a0.58585,0.58585,0,0,0,.76519,0V21.23588Z" fill="#3e3a39"/><circle cx="36.97034" cy="21.68627" r="0.73161" fill="#404040"/><path d="M36.58793,21.23588a0.58575,0.58575,0,0,1,.76519,0v0.90065a0.58585,0.58585,0,0,1-.76519,0V21.23588Z" fill="#3e3a39"/><circle cx="35.26463" cy="23.36082" r="0.73162" fill="#404040"/><path d="M35.64721,22.91043a0.58575,0.58575,0,0,0-.76519,0V23.811a0.58575,0.58575,0,0,0,.76519,0V22.91043Z" fill="#3e3a39"/><circle cx="36.97034" cy="23.36082" r="0.73161" fill="#404040"/><path d="M36.58793,22.91043a0.58575,0.58575,0,0,1,.76519,0V23.811a0.58575,0.58575,0,0,1-.76519,0V22.91043Z" fill="#3e3a39"/><circle cx="35.26463" cy="25.03536" r="0.73162" fill="#404040"/><path d="M35.64721,24.58495a0.58585,0.58585,0,0,0-.76519,0v0.90065a0.58575,0.58575,0,0,0,.76519,0V24.58495Z" fill="#3e3a39"/><circle cx="36.97034" cy="25.03536" r="0.73161" fill="#404040"/><path d="M36.58793,24.58495a0.58585,0.58585,0,0,1,.76519,0v0.90065a0.58575,0.58575,0,0,1-.76519,0V24.58495Z" fill="#3e3a39"/><circle cx="35.26463" cy="26.70996" r="0.73162" fill="#404040"/><path d="M35.64721,26.2595a0.58575,0.58575,0,0,0-.76519,0v0.90065a0.58575,0.58575,0,0,0,.76519,0V26.2595Z" fill="#3e3a39"/><circle cx="36.97034" cy="26.70996" r="0.73161" fill="#404040"/><path d="M36.58793,26.2595a0.58575,0.58575,0,0,1,.76519,0v0.90065a0.58575,0.58575,0,0,1-.76519,0V26.2595Z" fill="#3e3a39"/><circle cx="35.26463" cy="28.38437" r="0.73162" fill="#404040"/><path d="M35.64721,27.93388a0.58575,0.58575,0,0,0-.76519,0v0.90065a0.58575,0.58575,0,0,0,.76519,0V27.93388Z" fill="#3e3a39"/><circle cx="36.97034" cy="28.38437" r="0.73161" fill="#404040"/><path d="M36.58793,27.93388a0.58575,0.58575,0,0,1,.76519,0v0.90065a0.58575,0.58575,0,0,1-.76519,0V27.93388Z" fill="#3e3a39"/><circle cx="35.26463" cy="30.05908" r="0.73162" fill="#404040"/><path d="M35.64721,29.60877a0.58575,0.58575,0,0,0-.76519,0v0.90061a0.58575,0.58575,0,0,0,.76519,0V29.60877Z" fill="#3e3a39"/><circle cx="36.97034" cy="30.05908" r="0.73161" fill="#404040"/><path d="M36.58793,29.60877a0.58575,0.58575,0,0,1,.76519,0v0.90061a0.58575,0.58575,0,0,1-.76519,0V29.60877Z" fill="#3e3a39"/><circle cx="35.26463" cy="31.73346" r="0.73162" fill="#404040"/><path d="M35.64721,31.283a0.58575,0.58575,0,0,0-.76519,0V32.1836a0.58575,0.58575,0,0,0,.76519,0V31.283Z" fill="#3e3a39"/><circle cx="36.97034" cy="31.73346" r="0.73161" fill="#404040"/><path d="M36.58793,31.283a0.58575,0.58575,0,0,1,.76519,0V32.1836a0.58575,0.58575,0,0,1-.76519,0V31.283Z" fill="#3e3a39"/><circle cx="35.26463" cy="33.40815" r="0.73162" fill="#404040"/><path d="M35.64721,32.95784a0.58575,0.58575,0,0,0-.76519,0v0.90065a0.58575,0.58575,0,0,0,.76519,0V32.95784Z" fill="#3e3a39"/><circle cx="36.97034" cy="33.40815" r="0.73161" fill="#404040"/><path d="M36.58793,32.95784a0.58575,0.58575,0,0,1,.76519,0v0.90065a0.58575,0.58575,0,0,1-.76519,0V32.95784Z" fill="#3e3a39"/><circle cx="35.26463" cy="35.08253" r="0.73162" fill="#404040"/><path d="M35.64721,34.63206a0.58575,0.58575,0,0,0-.76519,0v0.90065a0.58585,0.58585,0,0,0,.76519,0V34.63206Z" fill="#3e3a39"/><circle cx="36.97034" cy="35.08253" r="0.73161" fill="#404040"/><path d="M36.58793,34.63206a0.58575,0.58575,0,0,1,.76519,0v0.90065a0.58585,0.58585,0,0,1-.76519,0V34.63206Z" fill="#3e3a39"/><circle cx="35.26463" cy="36.75726" r="0.73162" fill="#404040"/><path d="M35.64721,36.30692a0.58585,0.58585,0,0,0-.76519,0v0.90065a0.58575,0.58575,0,0,0,.76519,0V36.30692Z" fill="#3e3a39"/><circle cx="36.97034" cy="36.75726" r="0.73161" fill="#404040"/><path d="M36.58793,36.30692a0.58585,0.58585,0,0,1,.76519,0v0.90065a0.58575,0.58575,0,0,1-.76519,0V36.30692Z" fill="#3e3a39"/><circle cx="35.26463" cy="38.43163" r="0.73162" fill="#404040"/><path d="M35.64721,37.98113a0.58585,0.58585,0,0,0-.76519,0v0.90065a0.58575,0.58575,0,0,0,.76519,0V37.98113Z" fill="#3e3a39"/><circle cx="36.97034" cy="38.43163" r="0.73161" fill="#404040"/><path d="M36.58793,37.98113a0.58585,0.58585,0,0,1,.76519,0v0.90065a0.58575,0.58575,0,0,1-.76519,0V37.98113Z" fill="#3e3a39"/><circle cx="35.26463" cy="40.10633" r="0.73162" fill="#404040"/><path d="M35.64721,39.656a0.58575,0.58575,0,0,0-.76519,0v0.90065a0.58585,0.58585,0,0,0,.76519,0V39.656Z" fill="#3e3a39"/><circle cx="36.97034" cy="40.10633" r="0.73161" fill="#404040"/><path d="M36.58793,39.656a0.58575,0.58575,0,0,1,.76519,0v0.90065a0.58585,0.58585,0,0,1-.76519,0V39.656Z" fill="#3e3a39"/><circle cx="35.26463" cy="41.78122" r="0.73162" fill="#404040"/><path d="M35.64721,41.33088a0.58585,0.58585,0,0,0-.76519,0v0.90065a0.58575,0.58575,0,0,0,.76519,0V41.33088Z" fill="#3e3a39"/><circle cx="36.97034" cy="41.78122" r="0.73161" fill="#404040"/><path d="M36.58793,41.33088a0.58585,0.58585,0,0,1,.76519,0v0.90065a0.58575,0.58575,0,0,1-.76519,0V41.33088Z" fill="#3e3a39"/><circle cx="35.26463" cy="43.45559" r="0.73162" fill="#404040"/><path d="M35.64721,43.00509a0.58585,0.58585,0,0,0-.76519,0v0.90065a0.58575,0.58575,0,0,0,.76519,0V43.00509Z" fill="#3e3a39"/><circle cx="36.97034" cy="43.45559" r="0.73161" fill="#404040"/><path d="M36.58793,43.00509a0.58585,0.58585,0,0,1,.76519,0v0.90065a0.58575,0.58575,0,0,1-.76519,0V43.00509Z" fill="#3e3a39"/><rect x="33.44612" y="12.32099" width="0.85905" height="0.30995" fill="#1f1f1f"/><rect x="33.44612" y="13.99554" width="0.85905" height="0.30991" fill="#1f1f1f"/><rect x="33.44612" y="15.67009" width="0.85905" height="0.30991" fill="#1f1f1f"/><rect x="33.44612" y="17.34464" width="0.85905" height="0.30991" fill="#1f1f1f"/><rect x="33.44612" y="19.01916" width="0.85905" height="0.30995" fill="#1f1f1f"/><rect x="33.44612" y="20.69371" width="0.85905" height="0.30991" fill="#1f1f1f"/><rect x="33.44612" y="22.36827" width="0.85905" height="0.30991" fill="#1f1f1f"/><rect x="33.44612" y="24.04279" width="0.85905" height="0.30995" fill="#1f1f1f"/><rect x="33.44612" y="25.71734" width="0.85905" height="0.30995" fill="#1f1f1f"/><rect x="33.44612" y="27.39189" width="0.85905" height="0.30961" fill="#1f1f1f"/><rect x="33.44612" y="29.06627" width="0.85905" height="0.31008" fill="#1f1f1f"/><rect x="33.44612" y="30.74113" width="0.85905" height="0.30944" fill="#1f1f1f"/><rect x="33.44612" y="32.41535" width="0.85905" height="0.31008" fill="#1f1f1f"/><rect x="33.44612" y="34.09023" width="0.85905" height="0.30941" fill="#1f1f1f"/><rect x="33.44612" y="35.76445" width="0.85905" height="0.31008" fill="#1f1f1f"/><rect x="33.44612" y="37.43931" width="0.85905" height="0.30944" fill="#1f1f1f"/><rect x="33.44612" y="39.11352" width="0.85905" height="0.31008" fill="#1f1f1f"/><rect x="33.44612" y="40.78841" width="0.85905" height="0.30941" fill="#1f1f1f"/><rect x="33.44612" y="42.46263" width="0.85905" height="0.31008" fill="#1f1f1f"/><rect x="33.44612" y="44.13748" width="0.85905" height="0.30944" fill="#1f1f1f"/><rect x="33.44612" y="10.66029" width="0.85905" height="0.29609" fill="#1f1f1f"/><rect x="37.93064" y="12.32099" width="0.85902" height="0.30995" fill="#1f1f1f"/><rect x="37.93064" y="13.99554" width="0.85902" height="0.30991" fill="#1f1f1f"/><rect x="37.93064" y="15.67009" width="0.85902" height="0.30991" fill="#1f1f1f"/><rect x="37.93064" y="17.34464" width="0.85902" height="0.30991" fill="#1f1f1f"/><rect x="37.93064" y="19.01916" width="0.85902" height="0.30995" fill="#1f1f1f"/><rect x="37.93064" y="20.69371" width="0.85902" height="0.30991" fill="#1f1f1f"/><rect x="37.93064" y="22.36827" width="0.85902" height="0.30991" fill="#1f1f1f"/><rect x="37.93064" y="24.04279" width="0.85902" height="0.30995" fill="#1f1f1f"/><rect x="37.93064" y="25.71734" width="0.85902" height="0.30995" fill="#1f1f1f"/><rect x="37.93064" y="27.39189" width="0.85902" height="0.30961" fill="#1f1f1f"/><rect x="37.93064" y="29.06627" width="0.85902" height="0.31008" fill="#1f1f1f"/><rect x="37.93064" y="30.74113" width="0.85902" height="0.30944" fill="#1f1f1f"/><rect x="37.93064" y="32.41535" width="0.85902" height="0.31008" fill="#1f1f1f"/><rect x="37.93064" y="34.09023" width="0.85902" height="0.30941" fill="#1f1f1f"/><rect x="37.93064" y="35.76445" width="0.85902" height="0.31008" fill="#1f1f1f"/><rect x="37.93064" y="37.43931" width="0.85902" height="0.30944" fill="#1f1f1f"/><rect x="37.93064" y="39.11352" width="0.85902" height="0.31008" fill="#1f1f1f"/><rect x="37.93064" y="40.78841" width="0.85902" height="0.30941" fill="#1f1f1f"/><rect x="37.93064" y="42.46263" width="0.85902" height="0.31008" fill="#1f1f1f"/><rect x="37.93064" y="44.13748" width="0.85902" height="0.30944" fill="#1f1f1f"/><rect x="37.93064" y="10.66029" width="0.85902" height="0.29609" fill="#1f1f1f"/><path d="M39.63647,10.83621h2.237a0.28777,0.28777,0,0,1,.28777.28777v2.71745a0.28777,0.28777,0,0,1-.28777.28777h-2.236a0.28777,0.28777,0,0,1-.28777-0.28777V11.12293A0.28672,0.28672,0,0,1,39.63647,10.83621Z" fill="#fff"/><path d="M39.49362,12.55438v1.28809a0.1438,0.1438,0,0,0,.1439.14336h2.236a0.14409,0.14409,0,0,0,.14424-0.14336V12.55438H39.49362Z" fill="#b81c22"/><path d="M42.01774,12.411V11.12293a0.14412,0.14412,0,0,0-.14424-0.14336h-2.236a0.14383,0.14383,0,0,0-.1439.14336V12.411h2.52413Z" fill="#b81c22"/><path d="M39.63752,14.18532h2.23707a0.28669,0.28669,0,0,1,.28669.28669v2.71954a0.28672,0.28672,0,0,1-.28672.28672h-2.237a0.28777,0.28777,0,0,1-.28777-0.28777V14.47308A0.28777,0.28777,0,0,1,39.63752,14.18532Z" fill="#fff"/><path d="M39.49362,15.90349v1.28809a0.1438,0.1438,0,0,0,.1439.14333h2.236a0.14409,0.14409,0,0,0,.14424-0.14333V15.90349H39.49362Z" fill="#b81c22"/><path d="M42.01774,15.76013V14.472a0.14409,0.14409,0,0,0-.14424-0.14336h-2.236a0.1438,0.1438,0,0,0-.1439.14336v1.28809h2.52413Z" fill="#b81c22"/><path d="M39.63647,17.53439h2.23808a0.28672,0.28672,0,0,1,.28672.28672v2.71971a0.28672,0.28672,0,0,1-.28672.28672h-2.237a0.28777,0.28777,0,0,1-.28777-0.28777V17.82111A0.28672,0.28672,0,0,1,39.63647,17.53439Z" fill="#fff"/><path d="M39.49362,19.25256v1.28826a0.1438,0.1438,0,0,0,.1439.14336h2.236a0.14409,0.14409,0,0,0,.14424-0.14336V19.25256H39.49362Z" fill="#b81c22"/><path d="M42.01774,19.1092V17.82111a0.14412,0.14412,0,0,0-.14424-0.14336h-2.236a0.14383,0.14383,0,0,0-.1439.14336V19.1092h2.52413Z" fill="#b81c22"/><path d="M39.63647,20.88366h2.237a0.28777,0.28777,0,0,1,.28777.28777v2.71846a0.28672,0.28672,0,0,1-.28672.28672h-2.237a0.28777,0.28777,0,0,1-.28777-0.28777V21.17038A0.28672,0.28672,0,0,1,39.63647,20.88366Z" fill="#fff"/><path d="M39.49362,22.6018v1.28809a0.1438,0.1438,0,0,0,.1439.14336h2.236a0.14409,0.14409,0,0,0,.14424-0.14336V22.6018H39.49362Z" fill="#b81c22"/><path d="M42.01774,22.45847V21.17038a0.14409,0.14409,0,0,0-.14424-0.14336h-2.236a0.1438,0.1438,0,0,0-.1439.14336v1.28809h2.52413Z" fill="#b81c22"/><path d="M39.63647,24.23273h2.237a0.28777,0.28777,0,0,1,.28777.28777v2.71745a0.28777,0.28777,0,0,1-.28777.28777h-2.236a0.28777,0.28777,0,0,1-.28777-0.28777V24.51945A0.28672,0.28672,0,0,1,39.63647,24.23273Z" fill="#fff"/><path d="M39.49362,25.9509V27.239a0.1438,0.1438,0,0,0,.1439.14336h2.236a0.14409,0.14409,0,0,0,.14424-0.14336V25.9509H39.49362Z" fill="#b81c22"/><path d="M42.01774,25.80754V24.51945a0.14409,0.14409,0,0,0-.14424-0.14336h-2.236a0.1438,0.1438,0,0,0-.1439.14336v1.28809h2.52413Z" fill="#b81c22"/><path d="M39.63647,27.582h2.237a0.28777,0.28777,0,0,1,.28777.28777V30.5884a0.28638,0.28638,0,0,1-.28638.28638H39.63752a0.28777,0.28777,0,0,1-.28777-0.28777V27.86873A0.28672,0.28672,0,0,1,39.63647,27.582Z" fill="#fff"/><path d="M39.49362,29.3v1.28809a0.144,0.144,0,0,0,.1439.14353h2.236a0.14424,0.14424,0,0,0,.14424-0.14353V29.3H39.49362Z" fill="#b81c22"/><path d="M42.01774,29.15678V27.86839a0.144,0.144,0,0,0-.14424-0.14319h-2.236a0.14366,0.14366,0,0,0-.1439.14319v1.28839h2.52413Z" fill="#b81c22"/><path d="M39.63647,30.93108h2.237a0.28777,0.28777,0,0,1,.28777.28777V33.9375a0.28638,0.28638,0,0,1-.28638.28638H39.63752a0.28777,0.28777,0,0,1-.28777-0.28777V31.2178A0.28672,0.28672,0,0,1,39.63647,30.93108Z" fill="#fff"/><path d="M39.49362,32.64908v1.28809a0.144,0.144,0,0,0,.1439.14353h2.236a0.14426,0.14426,0,0,0,.14424-0.14353V32.64908H39.49362Z" fill="#b81c22"/><path d="M42.01774,32.50589V31.21746a0.144,0.144,0,0,0-.14424-0.14319h-2.236a0.14366,0.14366,0,0,0-.1439.14319v1.28843h2.52413Z" fill="#b81c22"/><path d="M39.63647,34.28018h2.237a0.28777,0.28777,0,0,1,.28777.28777v2.71863a0.28638,0.28638,0,0,1-.28638.28638H39.63752a0.28777,0.28777,0,0,1-.28777-0.28777V34.5669A0.28672,0.28672,0,0,1,39.63647,34.28018Z" fill="#fff"/><path d="M39.49362,35.99815v1.28809a0.144,0.144,0,0,0,.1439.14353h2.236a0.14424,0.14424,0,0,0,.14424-0.14353V35.99815H39.49362Z" fill="#b81c22"/><path d="M42.01774,35.855V34.56656a0.144,0.144,0,0,0-.14424-0.14319h-2.236a0.14366,0.14366,0,0,0-.1439.14319V35.855h2.52413Z" fill="#b81c22"/><path d="M39.63647,42.68085h2.237a0.28777,0.28777,0,0,1,.28777.28777v1.00265a0.28638,0.28638,0,0,1-.28638.28638H39.63752a0.28777,0.28777,0,0,1-.28777-0.28777V42.96757A0.28672,0.28672,0,0,1,39.63647,42.68085Z" fill="#fff"/><path d="M39.63681,42.824h2.237a0.1439,0.1439,0,0,1,.1439.1439v1.003a0.14353,0.14353,0,0,1-.14353.14353H39.63786a0.14424,0.14424,0,0,1-.14424-0.14424v-1.003A0.14319,0.14319,0,0,1,39.63681,42.824Z" fill="#b81c22"/><path d="M39.63647,41.006h2.237a0.28777,0.28777,0,0,1,.28777.28777v1.00261a0.28638,0.28638,0,0,1-.28638.28638H39.63752a0.28777,0.28777,0,0,1-.28777-0.28777V41.29272A0.28672,0.28672,0,0,1,39.63647,41.006Z" fill="#fff"/><path d="M39.63681,41.14919h2.237a0.1439,0.1439,0,0,1,.1439.1439v1.003a0.14353,0.14353,0,0,1-.14353.14353H39.63786a0.14424,0.14424,0,0,1-.14424-0.14424v-1.003A0.14319,0.14319,0,0,1,39.63681,41.14919Z" fill="#b81c22"/></svg>