<svg xmlns="http://www.w3.org/2000/svg" width="74" height="48" viewBox="0 0 74 48"><title>cc-link_ie_exio_stb</title><rect width="74" height="48" fill="#fff"/><rect x="17.182" y="12.123" width="39.637" height="23.755" fill="#424242"/><path d="M56.818,24.475a0.663,0.663,0,0,1-.657.665H17.839a0.663,0.663,0,0,1-.657-0.665V12.109H56.818V24.475Z" fill="#717071"/><rect x="18.554" y="25.364" width="36.891" height="10.346" fill="#888"/><ellipse cx="53.411" cy="27.487" rx="1.41" ry="1.428" fill="#333"/><ellipse cx="50.408" cy="26.808" rx="1.093" ry="1.108" fill="#333"/><polygon points="54.656 28.004 53.765 27.401 53.986 27.065 53.575 26.788 53.354 27.124 52.463 26.521 52.166 26.971 53.057 27.574 52.836 27.909 53.247 28.187 53.468 27.851 54.359 28.453 54.656 28.004" fill="#3e3a39"/><ellipse cx="20.669" cy="33.44" rx="1.41" ry="1.428" fill="#333"/><polygon points="21.914 33.957 21.023 33.354 21.244 33.018 20.834 32.741 20.612 33.077 19.721 32.474 19.424 32.924 20.316 33.526 20.095 33.862 20.505 34.14 20.726 33.804 21.618 34.406 21.914 33.957" fill="#3e3a39"/><rect x="49.885" y="26.418" width="1.046" height="0.781" fill="#141414"/><path d="M50.9,30.146v0.5l-0.035.183a0.493,0.493,0,0,1-.913,0l-0.034-.183v-0.5H50.9Z" fill="#141414"/><ellipse cx="46.847" cy="26.808" rx="1.093" ry="1.108" fill="#333"/><rect x="46.324" y="26.418" width="1.046" height="0.781" fill="#141414"/><path d="M47.339,30.146v0.5l-0.036.183a0.493,0.493,0,0,1-.913,0l-0.034-.183v-0.5h0.983Z" fill="#141414"/><ellipse cx="43.286" cy="26.808" rx="1.093" ry="1.108" fill="#333"/><rect x="42.763" y="26.418" width="1.046" height="0.781" fill="#141414"/><path d="M43.778,30.146v0.5l-0.035.183a0.493,0.493,0,0,1-.913,0L42.8,30.643v-0.5h0.982Z" fill="#141414"/><ellipse cx="39.725" cy="26.808" rx="1.093" ry="1.108" fill="#333"/><rect x="39.202" y="26.418" width="1.046" height="0.781" fill="#141414"/><path d="M40.217,30.146v0.5l-0.035.183a0.493,0.493,0,0,1-.913,0l-0.034-.183v-0.5h0.982Z" fill="#141414"/><ellipse cx="36.164" cy="26.808" rx="1.093" ry="1.108" fill="#333"/><rect x="35.641" y="26.418" width="1.046" height="0.781" fill="#141414"/><path d="M36.656,30.146v0.5l-0.035.183a0.493,0.493,0,0,1-.913,0l-0.034-.183v-0.5h0.982Z" fill="#141414"/><ellipse cx="32.603" cy="26.808" rx="1.093" ry="1.108" fill="#333"/><rect x="32.08" y="26.418" width="1.046" height="0.781" fill="#141414"/><path d="M33.1,30.146v0.5l-0.035.183a0.493,0.493,0,0,1-.913,0l-0.034-.183v-0.5H33.1Z" fill="#141414"/><ellipse cx="29.043" cy="26.808" rx="1.093" ry="1.108" fill="#333"/><rect x="28.52" y="26.418" width="1.046" height="0.781" fill="#141414"/><path d="M29.534,30.146v0.5l-0.035.183a0.493,0.493,0,0,1-.913,0l-0.034-.183v-0.5h0.982Z" fill="#141414"/><ellipse cx="25.482" cy="26.808" rx="1.093" ry="1.108" fill="#333"/><rect x="24.959" y="26.418" width="1.046" height="0.781" fill="#141414"/><path d="M25.973,30.146v0.5l-0.035.183a0.493,0.493,0,0,1-.913,0l-0.034-.183v-0.5h0.982Z" fill="#141414"/><ellipse cx="21.921" cy="26.808" rx="1.093" ry="1.108" fill="#333"/><rect x="21.398" y="26.418" width="1.046" height="0.781" fill="#141414"/><path d="M22.413,30.146v0.5l-0.035.183a0.493,0.493,0,0,1-.913,0l-0.034-.183v-0.5h0.982Z" fill="#141414"/><ellipse cx="23.691" cy="34.478" rx="1.093" ry="1.108" fill="#333"/><rect x="23.168" y="34.088" width="1.046" height="0.781" fill="#141414"/><path d="M24.182,31.14v-0.5l-0.035-.183a0.493,0.493,0,0,0-.913,0l-0.034.183v0.5h0.982Z" fill="#141414"/><ellipse cx="27.252" cy="34.478" rx="1.093" ry="1.108" fill="#333"/><rect x="26.729" y="34.088" width="1.046" height="0.781" fill="#141414"/><path d="M27.744,31.14v-0.5l-0.035-.183a0.493,0.493,0,0,0-.913,0l-0.034.183v0.5h0.982Z" fill="#141414"/><ellipse cx="30.814" cy="34.478" rx="1.093" ry="1.108" fill="#333"/><rect x="30.291" y="34.088" width="1.046" height="0.781" fill="#141414"/><path d="M31.306,31.14v-0.5l-0.035-.183a0.493,0.493,0,0,0-.913,0l-0.034.183v0.5h0.982Z" fill="#141414"/><ellipse cx="34.376" cy="34.478" rx="1.093" ry="1.108" fill="#333"/><rect x="33.853" y="34.088" width="1.046" height="0.781" fill="#141414"/><path d="M34.868,31.14v-0.5l-0.035-.183a0.493,0.493,0,0,0-.913,0l-0.034.183v0.5h0.982Z" fill="#141414"/><ellipse cx="37.937" cy="34.478" rx="1.093" ry="1.108" fill="#333"/><rect x="37.414" y="34.088" width="1.046" height="0.781" fill="#141414"/><path d="M38.429,31.14v-0.5l-0.035-.183a0.493,0.493,0,0,0-.913,0l-0.034.183v0.5h0.982Z" fill="#141414"/><ellipse cx="41.499" cy="34.478" rx="1.093" ry="1.108" fill="#333"/><rect x="40.976" y="34.088" width="1.046" height="0.781" fill="#141414"/><path d="M41.991,31.14v-0.5l-0.035-.183a0.493,0.493,0,0,0-.913,0l-0.034.183v0.5h0.982Z" fill="#141414"/><ellipse cx="45.061" cy="34.478" rx="1.093" ry="1.108" fill="#333"/><rect x="44.538" y="34.088" width="1.046" height="0.781" fill="#141414"/><path d="M45.553,31.14v-0.5l-0.035-.183a0.493,0.493,0,0,0-.913,0l-0.034.183v0.5h0.982Z" fill="#141414"/><ellipse cx="48.623" cy="34.478" rx="1.093" ry="1.108" fill="#333"/><rect x="48.099" y="34.088" width="1.046" height="0.781" fill="#141414"/><path d="M49.114,31.14v-0.5l-0.035-.183a0.493,0.493,0,0,0-.913,0l-0.034.183v0.5h0.982Z" fill="#141414"/><ellipse cx="52.184" cy="34.478" rx="1.094" ry="1.108" fill="#333"/><rect x="51.661" y="34.088" width="1.046" height="0.781" fill="#141414"/><path d="M52.676,31.14v-0.5l-0.035-.183a0.493,0.493,0,0,0-.913,0l-0.034.183v0.5h0.982Z" fill="#141414"/><path d="M50.011,14.121a0.056,0.056,0,0,0-.034,0V14.118H50.8v0.007a0.059,0.059,0,0,0-.033,0H50.011Z" fill="#fff"/><path d="M49.008,14.118v0.007a0.059,0.059,0,0,0-.033,0H48.224a0.053,0.053,0,0,0-.033,0V14.118h0.817Z" fill="#fff"/><path d="M47.221,14.118v0.007a0.059,0.059,0,0,0-.033,0H46.437a0.054,0.054,0,0,0-.033,0V14.118h0.817Z" fill="#fff"/><path d="M44.616,14.118h0.818v0.007a0.06,0.06,0,0,0-.033,0H44.65a0.054,0.054,0,0,0-.033,0V14.118Z" fill="#fff"/><path d="M47.221,15.449V14.118H46.4v1.331h0.817Zm2.757,0H50.8V14.118H49.978v1.331Zm-0.97,0V14.118H48.191v1.331h0.817ZM44.2,12.694h7.059v2.564a0.436,0.436,0,0,1-.036.184,0.469,0.469,0,0,1-.431.292H44.2v-3.04Zm0.414,2.755h0.818V14.118H44.616v1.331Z" fill="#fff"/><path d="M43.647,14.118v0.007a0.059,0.059,0,0,0-.033,0H42.862a0.056,0.056,0,0,0-.033,0V14.118h0.817Z" fill="#fff"/><path d="M41.075,14.121a0.057,0.057,0,0,0-.033,0V14.118H41.86v0.007a0.057,0.057,0,0,0-.033,0H41.075Z" fill="#fff"/><path d="M40.072,14.118v0.007a0.059,0.059,0,0,0-.033,0H39.288a0.056,0.056,0,0,0-.033,0V14.118h0.817Z" fill="#fff"/><path d="M37.5,14.121a0.056,0.056,0,0,0-.033,0V14.118h0.817v0.007a0.059,0.059,0,0,0-.033,0H37.5Z" fill="#fff"/><path d="M43.647,14.125V14.118H42.829v1.331h0.817V14.125Zm-5.362,1.324V14.118H37.468v1.331h0.817Zm1.787,0V14.118H39.255v1.331h0.817Zm-3.018-2.755H44.06v3.04H37.054v-3.04Zm3.988,1.431v1.324H41.86V14.118H41.042v0.007Z" fill="#fff"/><path d="M36.5,14.118v0.007a0.057,0.057,0,0,0-.033,0H35.714a0.054,0.054,0,0,0-.033,0V14.118H36.5Z" fill="#fff"/><path d="M34.711,14.118v0.007a0.06,0.06,0,0,0-.033,0H33.926a0.056,0.056,0,0,0-.033,0V14.118h0.817Z" fill="#fff"/><path d="M32.106,14.118h0.818v0.007a0.06,0.06,0,0,0-.033,0H32.139a0.056,0.056,0,0,0-.033,0V14.118Z" fill="#fff"/><path d="M31.136,14.118v0.007a0.059,0.059,0,0,0-.033,0H30.352a0.057,0.057,0,0,0-.033,0V14.118h0.818Z" fill="#fff"/><path d="M34.711,15.449V14.118H33.893v1.331h0.817ZM36.5,14.125V14.118H35.68v1.331H36.5V14.125Zm-5.362,1.324V14.118H30.319v1.331h0.818Zm-1.231-2.755h7.007v3.04H29.905v-3.04Zm2.2,1.431v1.324h0.818V14.118H32.106v0.007Z" fill="#fff"/><path d="M29.316,14.121H28.565a0.057,0.057,0,0,0-.033,0V14.118h0.817v0.007A0.059,0.059,0,0,0,29.316,14.121Z" fill="#fff"/><path d="M27.562,14.118v0.007a0.056,0.056,0,0,0-.033,0H26.778a0.056,0.056,0,0,0-.033,0V14.118h0.817Z" fill="#fff"/><path d="M24.99,14.121a0.056,0.056,0,0,0-.033,0V14.118h0.817v0.007a0.057,0.057,0,0,0-.033,0H24.99Z" fill="#fff"/><path d="M23.988,14.118v0.007a0.06,0.06,0,0,0-.033,0H23.2a0.056,0.056,0,0,0-.033,0V14.118h0.818Z" fill="#fff"/><path d="M25.775,15.449V14.118H24.958v1.331h0.817Zm1.787,0V14.118H26.745v1.331h0.817Zm0.97-1.324v1.324h0.817V14.118H28.532v0.007Zm-4.544,0V14.118H23.17v1.331h0.818V14.125Zm-1.231-1.431h7.006v3.04H22.757v-3.04Z" fill="#fff"/><path d="M22.2,14.118v0.007a0.059,0.059,0,0,0-.033,0H21.416a0.057,0.057,0,0,0-.033,0V14.118H22.2Z" fill="#fff"/><path d="M22.2,15.449V14.118H21.383v1.331H22.2Zm0.414-2.755v3.04H19.331a0.462,0.462,0,0,1-.179-0.037,0.465,0.465,0,0,1-.255-0.255,0.492,0.492,0,0,1-.036-0.184V12.694h3.753Z" fill="#fff"/><rect x="17.182" y="12.123" width="39.637" height="23.755" fill="none" stroke="#231815" stroke-width="0.25"/><path d="M51.063,28.335a1.9,1.9,0,0,1-.047.623,0.657,0.657,0,0,1-1.071.224,1.089,1.089,0,0,1-.191-0.847h1.309Z" fill="#fff"/><path d="M47.5,28.335a1.9,1.9,0,0,1-.047.623,0.656,0.656,0,0,1-1.071.224,1.088,1.088,0,0,1-.191-0.847H47.5Z" fill="#fff"/><path d="M43.941,28.335a1.9,1.9,0,0,1-.047.623,0.657,0.657,0,0,1-1.071.224,1.089,1.089,0,0,1-.191-0.847h1.309Z" fill="#fff"/><path d="M40.38,28.335a1.9,1.9,0,0,1-.047.623,0.657,0.657,0,0,1-1.071.224,1.089,1.089,0,0,1-.191-0.847H40.38Z" fill="#fff"/><path d="M36.819,28.335a1.9,1.9,0,0,1-.047.623,0.657,0.657,0,0,1-1.071.224,1.089,1.089,0,0,1-.191-0.847h1.309Z" fill="#fff"/><path d="M33.258,28.335a1.9,1.9,0,0,1-.047.623,0.657,0.657,0,0,1-1.071.224,1.089,1.089,0,0,1-.191-0.847h1.309Z" fill="#fff"/><path d="M29.7,28.335a1.9,1.9,0,0,1-.047.623,0.657,0.657,0,0,1-1.071.224,1.089,1.089,0,0,1-.191-0.847H29.7Z" fill="#fff"/><path d="M26.137,28.335a1.9,1.9,0,0,1-.047.623,0.657,0.657,0,0,1-1.071.224,1.089,1.089,0,0,1-.191-0.847h1.309Z" fill="#fff"/><path d="M22.576,28.335a1.9,1.9,0,0,1-.047.623,0.657,0.657,0,0,1-1.071.224,1.089,1.089,0,0,1-.191-0.847h1.309Z" fill="#fff"/><path d="M24.346,32.951a1.9,1.9,0,0,0-.047-0.623,0.657,0.657,0,0,0-1.071-.224,1.089,1.089,0,0,0-.191.847h1.309Z" fill="#fff"/><path d="M27.907,32.951a1.9,1.9,0,0,0-.047-0.623,0.657,0.657,0,0,0-1.071-.224,1.089,1.089,0,0,0-.191.847h1.309Z" fill="#fff"/><path d="M31.469,32.951a1.9,1.9,0,0,0-.047-0.623,0.657,0.657,0,0,0-1.071-.224,1.089,1.089,0,0,0-.191.847h1.309Z" fill="#fff"/><path d="M35.031,32.951a1.9,1.9,0,0,0-.047-0.623,0.657,0.657,0,0,0-1.071-.224,1.089,1.089,0,0,0-.191.847h1.309Z" fill="#fff"/><path d="M38.592,32.951a1.9,1.9,0,0,0-.047-0.623,0.657,0.657,0,0,0-1.071-.224,1.089,1.089,0,0,0-.191.847h1.309Z" fill="#fff"/><path d="M42.154,32.951a1.9,1.9,0,0,0-.047-0.623,0.657,0.657,0,0,0-1.071-.224,1.089,1.089,0,0,0-.191.847h1.309Z" fill="#fff"/><path d="M45.716,32.951a1.9,1.9,0,0,0-.047-0.623A0.657,0.657,0,0,0,44.6,32.1a1.089,1.089,0,0,0-.191.847h1.309Z" fill="#fff"/><path d="M49.278,32.951a1.9,1.9,0,0,0-.047-0.623A0.657,0.657,0,0,0,48.16,32.1a1.089,1.089,0,0,0-.191.847h1.309Z" fill="#fff"/><path d="M52.839,32.951a1.9,1.9,0,0,0-.047-0.623,0.657,0.657,0,0,0-1.071-.224,1.089,1.089,0,0,0-.191.847h1.309Z" fill="#fff"/><path d="M52.19,22a0.329,0.329,0,0,1-.327.331H49.095A0.329,0.329,0,0,1,48.768,22V21.245a0.33,0.33,0,0,1,.327-0.332h2.768a0.33,0.33,0,0,1,.327.332V22Z" fill="#fff"/><path d="M53.97,23.565a0.329,0.329,0,0,1-.327.331H50.876a0.329,0.329,0,0,1-.328-0.331V22.808a0.33,0.33,0,0,1,.328-0.332h2.767a0.329,0.329,0,0,1,.327.332v0.757Z" fill="#fff"/><path d="M23.622,20.913H20.6a0.33,0.33,0,0,0-.328.332V22a0.33,0.33,0,0,0,.328.331h3.024V20.913Z" fill="#fff"/><path d="M27.248,22.334A0.476,0.476,0,0,1,27.114,22V21.245a0.33,0.33,0,0,0-.327-0.332H23.763v1.421h3.485Z" fill="#fff"/><path d="M21.917,22.476a0.477,0.477,0,0,1,.134.331v0.758a0.329,0.329,0,0,0,.327.331H25.4v-1.42H21.917Z" fill="#fff"/><path d="M28.567,22.476H25.544V23.9h3.023a0.329,0.329,0,0,0,.328-0.331V22.807a0.33,0.33,0,0,0-.328-0.331" fill="#fff"/><path d="M27.722,22.334h3.025V20.913H27.722a0.331,0.331,0,0,0-.328.332V22a0.33,0.33,0,0,0,.328.331" fill="#fff"/><path d="M34.373,22.334A0.474,0.474,0,0,1,34.239,22V21.245a0.33,0.33,0,0,0-.327-0.332H30.886v1.421h3.486Z" fill="#fff"/><path d="M29.041,22.476a0.47,0.47,0,0,1,.134.331v0.758a0.329,0.329,0,0,0,.328.331h3.025v-1.42H29.041Z" fill="#fff"/><path d="M35.692,22.476H32.668V23.9h3.025a0.329,0.329,0,0,0,.327-0.331V22.807a0.33,0.33,0,0,0-.327-0.331" fill="#fff"/><path d="M41.5,22.334A0.477,0.477,0,0,1,41.363,22V21.245a0.329,0.329,0,0,0-.327-0.332H38.011v1.421H41.5Z" fill="#fff"/><path d="M34.846,22.334H37.87V20.913H34.846a0.33,0.33,0,0,0-.327.332V22a0.329,0.329,0,0,0,.327.331" fill="#fff"/><path d="M42.817,22.476H39.792V23.9h3.025a0.329,0.329,0,0,0,.327-0.331V22.807a0.329,0.329,0,0,0-.327-0.331" fill="#fff"/><path d="M36.166,22.476a0.477,0.477,0,0,1,.134.331v0.758a0.329,0.329,0,0,0,.327.331h3.024v-1.42H36.166Z" fill="#fff"/><path d="M41.971,22.334H45V20.913H41.971a0.331,0.331,0,0,0-.328.332V22a0.33,0.33,0,0,0,.328.331" fill="#fff"/><path d="M48.621,22.334A0.475,0.475,0,0,1,48.488,22V21.245a0.33,0.33,0,0,0-.328-0.332H45.135v1.421h3.486Z" fill="#fff"/><path d="M43.29,22.476a0.474,0.474,0,0,1,.134.331v0.758a0.329,0.329,0,0,0,.328.331h3.025v-1.42H43.29Z" fill="#fff"/><path d="M49.94,22.476H46.917V23.9H49.94a0.328,0.328,0,0,0,.327-0.331V22.807a0.329,0.329,0,0,0-.327-0.331" fill="#fff"/></svg>