<svg xmlns="http://www.w3.org/2000/svg" width="74" height="48" viewBox="0 0 74 48"><title>cc-link_ie_cbl</title><rect width="74" height="48" fill="#fff"/><path d="M11.832,16.288c0,8.259,8.935,19.275,15.456,24.879" fill="none" stroke="#954f00" stroke-miterlimit="10" stroke-width="1.661"/><path d="M11.832,16.288c0,8.259,8.935,19.275,15.456,24.879" fill="none" stroke="#d97700" stroke-miterlimit="10" stroke-width="0.997"/><path d="M29.21,41.642a11.5,11.5,0,0,0-.616-2.03,0.879,0.879,0,0,0-.938-0.2c-0.482.143-.965,0.229-0.965,0.229a1.1,1.1,0,0,0-.509,1.086c0.053,0.8.027,1.773,0.027,1.773Z" fill="#6b6857"/><polygon points="28.028 47.315 32.291 46.242 32.135 44.053 27.873 45.126 28.028 47.315" fill="#d1d9dd" stroke="#716f5d" stroke-linecap="round" stroke-linejoin="round" stroke-width="0.1"/><polygon points="27.873 45.126 32.135 44.053 29.574 41.15 25.311 42.222 27.873 45.126" fill="#e1e6e9" stroke="#716f5d" stroke-linecap="round" stroke-linejoin="round" stroke-width="0.1"/><polygon points="28.028 47.315 27.873 45.126 25.311 42.222 25.467 44.411 28.028 47.315" fill="#bec9cf" stroke="#716f5d" stroke-linecap="round" stroke-linejoin="round" stroke-width="0.1"/><polygon points="29.787 41.096 31.103 42.68 26.627 43.807 26.791 46.106 25.475 44.521 25.311 42.222 29.787 41.096" fill="#c9d2d7" stroke="#716f5d" stroke-linecap="round" stroke-linejoin="round" stroke-width="0.1"/><line x1="26.627" y1="43.807" x2="25.311" y2="42.222" fill="none" stroke="#716f5d" stroke-linecap="round" stroke-linejoin="round" stroke-width="0.1"/><path d="M25.109,44.823a0.349,0.349,0,0,0,.543.064l-0.113-1.872a0.55,0.55,0,0,1,.322-0.543l0.643-.228L26.4,40.77a0.8,0.8,0,0,1,.482-0.986L28,39.527a0.671,0.671,0,0,1,.684.622l0.3,1.351,0.744-.193s0.4-.15.482,0.193l0.261,0.386a0.839,0.839,0,0,0-.1-0.815,2.387,2.387,0,0,0-1.427-.879,1.753,1.753,0,0,0-.523-0.858c-0.146-.078-0.34-0.169-0.864-0.429a5.625,5.625,0,0,1-.791-0.036c-0.486-.425-0.888-0.725-0.888-0.725A0.8,0.8,0,0,0,25.25,38a7.169,7.169,0,0,0-1.005.257c-1.045.343-.563,1.715-0.563,1.715s0.6,2.445.7,3.109A5.819,5.819,0,0,0,25.109,44.823Z" fill="#cccbc3" stroke="#716f5d" stroke-linecap="round" stroke-linejoin="round" stroke-width="0.1"/><polygon points="28.078 43.247 29.667 42.847 29.687 42.067 28.098 42.466 28.078 43.247" fill="#cfd7dc" stroke="#716f5d" stroke-linecap="round" stroke-linejoin="round" stroke-width="0.1"/><polygon points="26.744 40.642 27.675 42.185 27.837 42.847 28.078 43.247 28.098 42.466 26.748 40.227 26.744 40.642" fill="#c1cbd1" stroke="#716f5d" stroke-linecap="round" stroke-linejoin="round" stroke-width="0.1"/><polygon points="28.584 43.904 30.173 43.504 29.667 42.848 28.078 43.247 28.584 43.904" fill="#ccd5d9" stroke="#716f5d" stroke-linecap="round" stroke-linejoin="round" stroke-width="0.1"/><polygon points="28.098 42.466 29.687 42.066 28.337 39.827 26.748 40.227 28.098 42.466" fill="#e1e6e9" stroke="#716f5d" stroke-linecap="round" stroke-linejoin="round" stroke-width="0.1"/><polygon points="31.882 46.345 32.167 46.273 32.043 44.538 31.759 44.61 31.882 46.345" fill="#5a5e61"/><polygon points="31.474 46.448 31.759 46.376 31.635 44.641 31.351 44.713 31.474 46.448" fill="#5a5e61"/><polygon points="31.066 46.551 31.351 46.479 31.227 44.744 30.943 44.815 31.066 46.551" fill="#5a5e61"/><polygon points="30.658 46.654 30.943 46.582 30.819 44.847 30.535 44.918 30.658 46.654" fill="#5a5e61"/><polygon points="30.25 46.757 30.535 46.685 30.411 44.949 30.127 45.021 30.25 46.757" fill="#5a5e61"/><polygon points="29.842 46.859 30.127 46.788 30.003 45.052 29.719 45.124 29.842 46.859" fill="#5a5e61"/><polygon points="29.434 46.962 29.719 46.891 29.595 45.155 29.311 45.227 29.434 46.962" fill="#5a5e61"/><polygon points="29.026 47.065 29.311 46.993 29.187 45.258 28.903 45.33 29.026 47.065" fill="#5a5e61"/><polygon points="28.618 47.168 28.903 47.096 28.779 45.361 28.495 45.433 28.618 47.168" fill="#5a5e61"/><polygon points="28.21 47.271 28.495 47.199 28.371 45.464 28.087 45.535 28.21 47.271" fill="#5a5e61"/><path d="M26.878,38.926l-0.864.214a0.838,0.838,0,0,0-.395.729c-0.027.429-.088,1.244-0.088,1.244" fill="none" stroke="#716f5d" stroke-linecap="round" stroke-linejoin="round" stroke-width="0.1"/><path d="M25.391,39.312a3.945,3.945,0,0,0-.925.3,0.818,0.818,0,0,0-.4.922" fill="none" stroke="#716f5d" stroke-linecap="round" stroke-linejoin="round" stroke-width="0.1"/><path d="M25.23,39.034a3.945,3.945,0,0,0-.925.3,0.818,0.818,0,0,0-.4.922" fill="none" stroke="#716f5d" stroke-linecap="round" stroke-linejoin="round" stroke-width="0.1"/><path d="M25.015,38.8a3.319,3.319,0,0,0-.851.279,0.818,0.818,0,0,0-.4.922" fill="none" stroke="#716f5d" stroke-linecap="round" stroke-linejoin="round" stroke-width="0.1"/><path d="M24.841,38.569a6.7,6.7,0,0,0-.818.25c-0.312.123-.392,0.343-0.372,0.879" fill="none" stroke="#716f5d" stroke-linecap="round" stroke-linejoin="round" stroke-width="0.1"/><path d="M24.694,38.354a6.935,6.935,0,0,0-.771.25c-0.313.122-.322,0.311-0.332,0.75" fill="none" stroke="#716f5d" stroke-linecap="round" stroke-linejoin="round" stroke-width="0.1"/><line x1="25.702" y1="39.227" x2="26.141" y2="39.112" fill="none" stroke="#716f5d" stroke-linecap="round" stroke-linejoin="round" stroke-width="0.1"/><line x1="25.522" y1="38.991" x2="26.537" y2="38.733" fill="none" stroke="#716f5d" stroke-linecap="round" stroke-linejoin="round" stroke-width="0.1"/><line x1="25.374" y1="38.751" x2="26.342" y2="38.505" fill="none" stroke="#716f5d" stroke-linecap="round" stroke-linejoin="round" stroke-width="0.1"/><line x1="25.19" y1="38.54" x2="26.068" y2="38.29" fill="none" stroke="#716f5d" stroke-linecap="round" stroke-linejoin="round" stroke-width="0.1"/><line x1="25.029" y1="38.298" x2="25.806" y2="38.111" fill="none" stroke="#716f5d" stroke-linecap="round" stroke-linejoin="round" stroke-width="0.1"/><line x1="28.949" y1="40.191" x2="29.103" y2="40.899" fill="none" stroke="#716f5d" stroke-linecap="round" stroke-linejoin="round" stroke-width="0.1"/><path d="M24.245,38.262A7.169,7.169,0,0,1,25.25,38a0.8,0.8,0,0,1,.633.139s0.4,0.3.888,0.725a5.625,5.625,0,0,0,.791.036c0.524,0.26.718,0.351,0.864,0.429a1.753,1.753,0,0,1,.523.858,2.387,2.387,0,0,1,1.427.879,0.839,0.839,0,0,1,.1.815L30.216,41.5a0.271,0.271,0,0,0-.281-0.225L31.1,42.681l-0.146.037,1.179,1.336h0l0.156,2.189-0.532.134h0l-0.285.072h0l-0.123.031h0l-0.285.072h0l-0.123.031h0l-0.285.072h0l-0.123.031h0l-0.285.072h0l-0.123.031h0l-0.285.072h0l-0.123.031h0l-0.285.072h0l-0.123.031h0l-0.285.072h0L28.9,47.1h0l-0.285.072h0l-0.123.031h0l-0.285.072h0l-0.182.046L26.776,45.9l0.015,0.21-1.149-1.383,0.01,0.164a0.349,0.349,0,0,1-.543-0.064,5.819,5.819,0,0,1-.724-1.737c-0.1-.664-0.7-3.109-0.7-3.109S23.2,38.605,24.245,38.262Z" fill="none" stroke="#717071" stroke-linecap="round" stroke-linejoin="round" stroke-width="0.332"/><path d="M62.154,16.288c0,8.259-8.935,19.275-15.456,24.879" fill="none" stroke="#954f00" stroke-miterlimit="10" stroke-width="1.661"/><path d="M62.154,16.288c0,8.259-8.935,19.275-15.456,24.879" fill="none" stroke="#d97700" stroke-miterlimit="10" stroke-width="0.997"/><ellipse cx="37" cy="16.867" rx="25.227" ry="14.954" fill="none" stroke="#824e00" stroke-miterlimit="10" stroke-width="1.661"/><ellipse cx="37" cy="16.867" rx="25.227" ry="14.954" fill="none" stroke="#d97700" stroke-miterlimit="10" stroke-width="0.997"/><ellipse cx="36.104" cy="16.288" rx="23.925" ry="14.954" fill="none" stroke="#824e00" stroke-miterlimit="10" stroke-width="1.661"/><ellipse cx="36.104" cy="16.288" rx="23.925" ry="14.954" fill="none" stroke="#d97700" stroke-miterlimit="10" stroke-width="0.997"/><ellipse cx="37.28" cy="16.288" rx="23.924" ry="14.954" fill="none" stroke="#824e00" stroke-miterlimit="10" stroke-width="1.661"/><ellipse cx="37.28" cy="16.288" rx="23.924" ry="14.954" fill="none" stroke="#d97700" stroke-miterlimit="10" stroke-width="0.997"/><path d="M44.776,41.642a11.506,11.506,0,0,1,.616-2.03,0.879,0.879,0,0,1,.938-0.2c0.482,0.143.965,0.229,0.965,0.229a1.1,1.1,0,0,1,.509,1.086c-0.053.8-.027,1.773-0.027,1.773Z" fill="#6b6857"/><polygon points="45.958 47.315 41.695 46.242 41.851 44.053 46.114 45.126 45.958 47.315" fill="#d1d9dd" stroke="#716f5d" stroke-linecap="round" stroke-linejoin="round" stroke-width="0.1"/><polygon points="46.114 45.126 41.851 44.053 44.413 41.15 48.675 42.222 46.114 45.126" fill="#e1e6e9" stroke="#716f5d" stroke-linecap="round" stroke-linejoin="round" stroke-width="0.1"/><polygon points="45.958 47.315 46.114 45.126 48.675 42.222 48.519 44.411 45.958 47.315" fill="#bec9cf" stroke="#716f5d" stroke-linecap="round" stroke-linejoin="round" stroke-width="0.1"/><polygon points="44.2 41.096 42.883 42.68 47.359 43.807 47.195 46.106 48.511 44.521 48.675 42.222 44.2 41.096" fill="#c9d2d7" stroke="#716f5d" stroke-linecap="round" stroke-linejoin="round" stroke-width="0.1"/><line x1="47.359" y1="43.807" x2="48.675" y2="42.222" fill="none" stroke="#716f5d" stroke-linecap="round" stroke-linejoin="round" stroke-width="0.1"/><path d="M48.877,44.823a0.349,0.349,0,0,1-.543.064l0.113-1.872a0.55,0.55,0,0,0-.322-0.543l-0.643-.228L47.59,40.77a0.8,0.8,0,0,0-.482-0.986l-1.126-.257a0.671,0.671,0,0,0-.684.622L45,41.5l-0.744-.193s-0.4-.15-0.482.193l-0.261.386a0.839,0.839,0,0,1,.1-0.815,2.387,2.387,0,0,1,1.427-.879,1.753,1.753,0,0,1,.523-0.858c0.146-.078.34-0.169,0.864-0.429a5.625,5.625,0,0,0,.791-0.036c0.486-.425.888-0.725,0.888-0.725A0.8,0.8,0,0,1,48.736,38a7.171,7.171,0,0,1,1.005.257c1.045,0.343.563,1.715,0.563,1.715s-0.6,2.445-.7,3.109A5.819,5.819,0,0,1,48.877,44.823Z" fill="#cccbc3" stroke="#716f5d" stroke-linecap="round" stroke-linejoin="round" stroke-width="0.1"/><polygon points="45.908 43.247 44.319 42.847 44.3 42.067 45.888 42.466 45.908 43.247" fill="#cfd7dc" stroke="#716f5d" stroke-linecap="round" stroke-linejoin="round" stroke-width="0.1"/><polygon points="47.242 40.642 46.311 42.185 46.149 42.847 45.908 43.247 45.888 42.466 47.238 40.227 47.242 40.642" fill="#c1cbd1" stroke="#716f5d" stroke-linecap="round" stroke-linejoin="round" stroke-width="0.1"/><polygon points="45.402 43.904 43.813 43.504 44.319 42.848 45.908 43.247 45.402 43.904" fill="#ccd5d9" stroke="#716f5d" stroke-linecap="round" stroke-linejoin="round" stroke-width="0.1"/><polygon points="45.888 42.466 44.3 42.066 45.649 39.827 47.238 40.227 45.888 42.466" fill="#e1e6e9" stroke="#716f5d" stroke-linecap="round" stroke-linejoin="round" stroke-width="0.1"/><polygon points="42.104 46.345 41.819 46.273 41.943 44.538 42.227 44.61 42.104 46.345" fill="#5a5e61"/><polygon points="42.512 46.448 42.227 46.376 42.351 44.641 42.635 44.713 42.512 46.448" fill="#5a5e61"/><polygon points="42.92 46.551 42.635 46.479 42.759 44.744 43.043 44.815 42.92 46.551" fill="#5a5e61"/><polygon points="43.328 46.654 43.043 46.582 43.167 44.847 43.451 44.918 43.328 46.654" fill="#5a5e61"/><polygon points="43.736 46.757 43.451 46.685 43.575 44.949 43.859 45.021 43.736 46.757" fill="#5a5e61"/><polygon points="44.144 46.859 43.859 46.788 43.983 45.052 44.268 45.124 44.144 46.859" fill="#5a5e61"/><polygon points="44.552 46.962 44.268 46.891 44.391 45.155 44.676 45.227 44.552 46.962" fill="#5a5e61"/><polygon points="44.96 47.065 44.676 46.993 44.799 45.258 45.084 45.33 44.96 47.065" fill="#5a5e61"/><polygon points="45.368 47.168 45.084 47.096 45.207 45.361 45.492 45.433 45.368 47.168" fill="#5a5e61"/><polygon points="45.776 47.271 45.492 47.199 45.615 45.464 45.9 45.535 45.776 47.271" fill="#5a5e61"/><path d="M47.108,38.926l0.864,0.214a0.838,0.838,0,0,1,.395.729c0.027,0.429.088,1.244,0.088,1.244" fill="none" stroke="#716f5d" stroke-linecap="round" stroke-linejoin="round" stroke-width="0.1"/><path d="M48.6,39.312a3.946,3.946,0,0,1,.925.3,0.818,0.818,0,0,1,.4.922" fill="none" stroke="#716f5d" stroke-linecap="round" stroke-linejoin="round" stroke-width="0.1"/><path d="M48.756,39.034a3.946,3.946,0,0,1,.925.3,0.818,0.818,0,0,1,.4.922" fill="none" stroke="#716f5d" stroke-linecap="round" stroke-linejoin="round" stroke-width="0.1"/><path d="M48.971,38.8a3.319,3.319,0,0,1,.851.279,0.818,0.818,0,0,1,.4.922" fill="none" stroke="#716f5d" stroke-linecap="round" stroke-linejoin="round" stroke-width="0.1"/><path d="M49.145,38.569a6.7,6.7,0,0,1,.818.25c0.312,0.123.392,0.343,0.372,0.879" fill="none" stroke="#716f5d" stroke-linecap="round" stroke-linejoin="round" stroke-width="0.1"/><path d="M49.292,38.354a6.935,6.935,0,0,1,.771.25c0.313,0.122.322,0.311,0.332,0.75" fill="none" stroke="#716f5d" stroke-linecap="round" stroke-linejoin="round" stroke-width="0.1"/><line x1="48.284" y1="39.227" x2="47.845" y2="39.112" fill="none" stroke="#716f5d" stroke-linecap="round" stroke-linejoin="round" stroke-width="0.1"/><line x1="48.465" y1="38.991" x2="47.449" y2="38.733" fill="none" stroke="#716f5d" stroke-linecap="round" stroke-linejoin="round" stroke-width="0.1"/><line x1="48.612" y1="38.751" x2="47.644" y2="38.505" fill="none" stroke="#716f5d" stroke-linecap="round" stroke-linejoin="round" stroke-width="0.1"/><line x1="48.796" y1="38.54" x2="47.918" y2="38.29" fill="none" stroke="#716f5d" stroke-linecap="round" stroke-linejoin="round" stroke-width="0.1"/><line x1="48.957" y1="38.298" x2="48.18" y2="38.111" fill="none" stroke="#716f5d" stroke-linecap="round" stroke-linejoin="round" stroke-width="0.1"/><line x1="45.037" y1="40.191" x2="44.883" y2="40.899" fill="none" stroke="#716f5d" stroke-linecap="round" stroke-linejoin="round" stroke-width="0.1"/><path d="M49.741,38.262A7.171,7.171,0,0,0,48.736,38a0.8,0.8,0,0,0-.633.139s-0.4.3-.888,0.725a5.625,5.625,0,0,1-.791.036c-0.524.26-.718,0.351-0.864,0.429a1.753,1.753,0,0,0-.523.858,2.387,2.387,0,0,0-1.427.879,0.839,0.839,0,0,0-.1.815l0.261-.386a0.271,0.271,0,0,1,.281-0.225l-1.168,1.406,0.146,0.037-1.179,1.336h0L41.7,46.243l0.532,0.134h0l0.285,0.072h0l0.123,0.031h0l0.285,0.072h0l0.123,0.031h0l0.285,0.072h0l0.123,0.031h0l0.285,0.072h0l0.123,0.031h0l0.285,0.072h0l0.123,0.031h0l0.285,0.072h0l0.123,0.031h0l0.285,0.072h0L45.084,47.1h0l0.285,0.072h0L45.492,47.2h0l0.285,0.072h0l0.182,0.046L47.21,45.9l-0.015.21,1.149-1.383-0.01.164a0.349,0.349,0,0,0,.543-0.064,5.819,5.819,0,0,0,.724-1.737c0.1-.664.7-3.109,0.7-3.109S50.787,38.605,49.741,38.262Z" fill="none" stroke="#717071" stroke-linecap="round" stroke-linejoin="round" stroke-width="0.332"/></svg>