<svg xmlns="http://www.w3.org/2000/svg" width="74" height="48" viewBox="0 0 74 48"><title>cc-link_lt_cnf18</title><rect width="74" height="48" fill="#fff"/><polygon points="7.961 19.734 6.45 19.01 5.251 15.785 6.761 16.509 7.961 19.734" fill="#297599" stroke="#277194" stroke-linecap="round" stroke-linejoin="round" stroke-width="0.149"/><polygon points="6.761 16.509 7.961 19.734 21.798 7.53 20.541 4.356 6.761 16.509" fill="#0f7ba4" stroke="#277194" stroke-linecap="round" stroke-linejoin="round" stroke-width="0.149"/><polygon points="7.639 22.42 11.618 24.405 10.256 20.539 6.22 18.604 7.639 22.42" fill="#4593be" stroke="#277194" stroke-linecap="round" stroke-linejoin="round" stroke-width="0.149"/><polygon points="35.617 37.618 50.629 24.378 47.031 14.163 28.212 30.722 31.092 38.898 34.888 35.55 35.617 37.618" fill="#378db9" stroke="#277194" stroke-linecap="round" stroke-linejoin="round" stroke-width="0.149"/><polygon points="29.283 37.953 31.092 38.898 28.212 30.722 26.346 29.828 29.283 37.953" fill="#2f7fa6" stroke="#277194" stroke-linecap="round" stroke-linejoin="round" stroke-width="0.149"/><polygon points="18.345 33.611 21.524 35.136 18.294 25.967 15.036 24.405 18.345 33.611" fill="#378cb7" stroke="#277194" stroke-linecap="round" stroke-linejoin="round" stroke-width="0.149"/><polygon points="5.251 15.785 6.761 16.509 20.541 4.356 18.973 3.682 5.251 15.785" fill="#3d97c6" stroke="#277194" stroke-linecap="round" stroke-linejoin="round" stroke-width="0.149"/><polygon points="5.251 21.227 7.639 22.42 6.715 19.935 5.251 21.227" fill="#2a779b" stroke="#277194" stroke-linecap="round" stroke-linejoin="round" stroke-width="0.149"/><polygon points="7.386 16.387 8.259 16.805 8.732 16.387 9.486 16.749 12.216 14.343 11.94 13.559 20.829 5.667 19.962 5.294 7.386 16.387" fill="#1e6282" stroke="#277194" stroke-linecap="round" stroke-linejoin="round" stroke-width="0.149"/><polygon points="45.097 13.29 43.278 14.894 35.202 11.055 37.103 9.379 33.787 7.867 31.934 9.502 25.979 6.672 27.119 5.667 23.025 3.782 11.94 13.559 12.216 14.343 9.486 16.749 8.732 16.387 6.22 18.604 10.256 20.539 11.471 19.467 17.408 22.313 15.036 24.405 18.294 25.967 20.666 23.875 28.718 27.736 26.346 29.828 28.212 30.722 47.031 14.163 45.097 13.29" fill="#3d97c6" stroke="#277194" stroke-linecap="round" stroke-linejoin="round" stroke-width="0.149"/><polygon points="29.678 39.045 26.346 29.828 18.294 25.967 21.524 35.136 29.678 39.045" fill="#3e93c0" stroke="#277194" stroke-linecap="round" stroke-linejoin="round" stroke-width="0.149"/><polygon points="26.346 29.828 18.294 25.967 20.23 24.26 28.282 28.12 26.346 29.828" fill="#2e7ea4" stroke="#277194" stroke-linecap="round" stroke-linejoin="round" stroke-width="0.149"/><polygon points="51.452 26.715 50.629 24.378 35.617 37.618 34.888 35.55 31.092 38.898 29.283 37.953 29.678 39.045 34.727 41.466 51.452 26.715" fill="#4491bc" stroke="#277194" stroke-linecap="round" stroke-linejoin="round" stroke-width="0.149"/><polygon points="31.498 39.918 29.678 39.045 29.283 37.953 31.092 38.898 31.498 39.918" fill="none" stroke="#277194" stroke-linecap="round" stroke-linejoin="round" stroke-width="0.149"/><polygon points="31.498 39.918 33.546 38.113 34.727 41.466 31.498 39.918" fill="#165774" stroke="#277194" stroke-linecap="round" stroke-linejoin="round" stroke-width="0.149"/><path d="M24.1,39.263" fill="none" stroke="#277194" stroke-linecap="round" stroke-linejoin="round" stroke-width="0.149"/><path d="M24.1,39.263L11.191,33.7a8.865,8.865,0,0,1-2.272-1.809l-1.2-2.807a10.26,10.26,0,0,0,2.664,2.372l12.909,5.562L23.881,37.3l-0.358.364,0.577,1.6" fill="#3d98c7" stroke="#277194" stroke-linecap="round" stroke-linejoin="round" stroke-width="0.149"/><path d="M24.1,39.263" fill="none" stroke="#277194" stroke-linecap="round" stroke-linejoin="round" stroke-width="0.149"/><path d="M30.212,41.114l1.286-1.2L18.345,33.611l-0.4-1.105-4.192-2.072-0.747-1.665-1.275-.58H8.615a1.213,1.213,0,0,0-.9.241,0.507,0.507,0,0,0,0,.655,10.26,10.26,0,0,0,2.664,2.372l12.909,5.562L23.881,37.3l-0.358.364Z" fill="#277aa1" stroke="#277194" stroke-linecap="round" stroke-linejoin="round" stroke-width="0.149"/><polygon points="17.306 30.722 11.191 27.942 6.513 24.74 5.251 21.227 11.618 24.405 10.256 20.539 11.471 19.467 17.408 22.313 15.036 24.405 17.306 30.722" fill="#4694c0" stroke="#277194" stroke-linecap="round" stroke-linejoin="round" stroke-width="0.149"/><polygon points="33.386 42.514 32.241 39.263 30.212 41.114 31.341 44.318 33.386 42.514" fill="#2f7fa6" stroke="#277194" stroke-linecap="round" stroke-linejoin="round" stroke-width="0.149"/><polygon points="23.522 37.668 30.212 41.114 31.341 44.318 24.393 40.076 23.522 37.668" fill="#3e99c9" stroke="#277194" stroke-linecap="round" stroke-linejoin="round" stroke-width="0.149"/><path d="M12.5,28.549a1.377,1.377,0,0,0-.383,1.1l1.636,0.785-0.747-1.665Z" fill="#094e6a" stroke="#378db9" stroke-linecap="round" stroke-linejoin="round" stroke-width="0.149"/><polygon points="17.408 22.313 16.192 23.385 10.256 20.539 11.471 19.467 17.408 22.313" fill="#2e7ea4" stroke="#277194" stroke-linecap="round" stroke-linejoin="round" stroke-width="0.149"/><polygon points="33.055 8.513 31.916 9.518 25.979 6.672 27.119 5.667 33.055 8.513" fill="#2e7ea4" stroke="#277194" stroke-linecap="round" stroke-linejoin="round" stroke-width="0.149"/><polygon points="43.652 14.564 35.658 10.653 37.103 9.379 45.097 13.29 43.652 14.564" fill="#2e7ea4" stroke="#277194" stroke-linecap="round" stroke-linejoin="round" stroke-width="0.149"/><polygon points="28.224 28.171 20.23 24.26 20.666 23.875 28.66 27.787 28.224 28.171" fill="#0c4b66" stroke="#277194" stroke-linecap="round" stroke-linejoin="round" stroke-width="0.149"/><polygon points="43.278 14.894 35.202 11.055 35.638 10.671 43.652 14.564 43.278 14.894" fill="#0c4b66" stroke="#277194" stroke-linecap="round" stroke-linejoin="round" stroke-width="0.149"/><polygon points="7.719 17.282 7.386 16.387 8.259 16.805 7.719 17.282" fill="#10506b" stroke="#277194" stroke-linecap="round" stroke-linejoin="round" stroke-width="0.149"/><polygon points="14.141 15.21 12.216 14.343 11.94 13.559 14.636 14.774 14.141 15.21" fill="#2a779b" stroke="#277194" stroke-linecap="round" stroke-linejoin="round" stroke-width="0.149"/><polygon points="9.486 16.749 11.37 17.652 14.141 15.21 12.216 14.343 9.486 16.749" fill="#094761" stroke="#277194" stroke-linecap="round" stroke-linejoin="round" stroke-width="0.149"/><polygon points="22.803 34.943 27.173 37.037 24.775 30.232 20.326 28.098 22.803 34.943" fill="#094761" stroke="#277194" stroke-linecap="round" stroke-linejoin="round" stroke-width="0.149"/><polygon points="14.198 27.974 16.76 29.202 15.036 24.405 15.498 23.998 12.202 22.42 14.198 27.974" fill="#094761" stroke="#277194" stroke-linecap="round" stroke-linejoin="round" stroke-width="0.149"/><polygon points="24.527 33.25 22.803 34.943 20.326 28.098 23.153 29.454 24.527 33.25" fill="#2f7fa6" stroke="#277194" stroke-linecap="round" stroke-linejoin="round" stroke-width="0.149"/><polygon points="27.173 37.037 22.803 34.943 24.527 33.25 26.105 34.007 27.173 37.037" fill="#2a779b" stroke="#277194" stroke-linecap="round" stroke-linejoin="round" stroke-width="0.149"/><polygon points="15.393 26.8 14.198 27.974 12.202 22.42 14.198 23.375 15.393 26.8" fill="#2f7fa6" stroke="#277194" stroke-linecap="round" stroke-linejoin="round" stroke-width="0.149"/><polygon points="16.76 29.202 14.198 27.974 15.393 26.8 16.002 27.092 16.76 29.202" fill="#2a779b" stroke="#277194" stroke-linecap="round" stroke-linejoin="round" stroke-width="0.149"/><polyline points="27.985 34.363 29.769 35.144 32.11 33.085 32.509 28.661 43.652 18.855" fill="none" stroke="#175876" stroke-linecap="round" stroke-linejoin="round" stroke-width="0.249"/><polyline points="43.652 14.564 45.588 15.432 49.167 25.668" fill="none" stroke="#175876" stroke-linecap="round" stroke-linejoin="round" stroke-width="0.249"/><polygon points="12.503 17.734 19.79 21.227 31.498 10.902 24.153 7.459 12.503 17.734" fill="none" stroke="#277194" stroke-linecap="round" stroke-linejoin="round" stroke-width="0.149"/><polygon points="19.718 22.701 29.54 27.41 42.964 15.571 33.084 10.912 19.718 22.701" fill="none" stroke="#277194" stroke-linecap="round" stroke-linejoin="round" stroke-width="0.299"/><line x1="21.074" y1="21.505" x2="30.897" y2="26.213" fill="none" stroke="#277194" stroke-linecap="round" stroke-linejoin="round" stroke-width="0.149"/><line x1="22.431" y1="20.308" x2="32.253" y2="25.017" fill="none" stroke="#277194" stroke-linecap="round" stroke-linejoin="round" stroke-width="0.149"/><line x1="23.787" y1="19.112" x2="33.609" y2="23.821" fill="none" stroke="#277194" stroke-linecap="round" stroke-linejoin="round" stroke-width="0.149"/><line x1="25.143" y1="17.915" x2="34.966" y2="22.624" fill="none" stroke="#277194" stroke-linecap="round" stroke-linejoin="round" stroke-width="0.149"/><line x1="26.5" y1="16.719" x2="36.322" y2="21.428" fill="none" stroke="#277194" stroke-linecap="round" stroke-linejoin="round" stroke-width="0.149"/><line x1="27.856" y1="15.522" x2="37.679" y2="20.231" fill="none" stroke="#277194" stroke-linecap="round" stroke-linejoin="round" stroke-width="0.149"/><line x1="29.213" y1="14.326" x2="39.035" y2="19.035" fill="none" stroke="#277194" stroke-linecap="round" stroke-linejoin="round" stroke-width="0.149"/><line x1="30.569" y1="13.129" x2="40.391" y2="17.838" fill="none" stroke="#277194" stroke-linecap="round" stroke-linejoin="round" stroke-width="0.149"/><line x1="31.925" y1="11.933" x2="41.748" y2="16.642" fill="none" stroke="#277194" stroke-linecap="round" stroke-linejoin="round" stroke-width="0.149"/><polygon points="46.001 19.969 32.253 32.059 32.509 28.661 43.652 18.855 46.001 19.969" fill="#094761" stroke="#277194" stroke-linecap="round" stroke-linejoin="round" stroke-width="0.149"/><path d="M67.95,31.422L44.627,19.252A1.9,1.9,0,0,0,42.2,20.334a1.914,1.914,0,0,0,.514,2.614L66.042,35.119a1.894,1.894,0,0,0,2.423-1.082A1.912,1.912,0,0,0,67.95,31.422Z" fill="#c76c00" stroke="#824e00" stroke-miterlimit="10" stroke-width="0.249"/><path d="M68.465,34.037a1.894,1.894,0,0,1-2.423,1.082,1.915,1.915,0,0,1-.514-2.615A1.7,1.7,0,1,1,68.465,34.037Z" fill="#954f00"/><ellipse cx="66.996" cy="33.27" rx="1.009" ry="0.804" transform="translate(6.492 77.255) rotate(-62.425)" fill="#fff" stroke="#277194" stroke-linecap="round" stroke-linejoin="round" stroke-width="0.072"/><path d="M65.17,34.377L41.492,22.021A1.9,1.9,0,0,0,39.069,23.1a1.914,1.914,0,0,0,.515,2.615L63.262,38.075A2.134,2.134,0,0,0,65.17,34.377Z" fill="#3b93c1" stroke="#0e4c67" stroke-linecap="round" stroke-linejoin="round" stroke-width="0.249"/><path d="M65.686,36.993a1.7,1.7,0,1,1-.516-2.615A1.9,1.9,0,0,1,65.686,36.993Z" fill="#1c5f7f"/><ellipse cx="64.216" cy="36.226" rx="1.01" ry="0.804" transform="translate(2.406 76.419) rotate(-62.463)" fill="#fff" stroke="#277194" stroke-linecap="round" stroke-linejoin="round" stroke-width="0.072"/><path d="M62.391,37.333L38.338,24.782a1.744,1.744,0,0,0-2.084.592l-0.007,0-2.911,2.564a2.439,2.439,0,0,0-.251.268l-0.042.045h0a2.581,2.581,0,0,0-.253.392,1.915,1.915,0,0,0,.514,2.615l24.4,12.73A1.894,1.894,0,0,0,60.125,42.9a2.194,2.194,0,0,0,.059-2.029l0.3,0.155a1.9,1.9,0,0,0,2.424-1.081A1.915,1.915,0,0,0,62.391,37.333Z" fill="#3b93c1" stroke="#0e4c67" stroke-linecap="round" stroke-linejoin="round" stroke-width="0.249"/><path d="M62.391,37.333a1.74,1.74,0,0,0-2.073.567l-2.532,2.721a2.414,2.414,0,0,0-.4.425l-0.011.012h0a2.609,2.609,0,0,0-.2.314,1.914,1.914,0,0,0,.514,2.614A1.894,1.894,0,0,0,60.125,42.9a2.157,2.157,0,0,0-.007-2.153h0V40.74a1.356,1.356,0,0,0,.363.289,1.9,1.9,0,0,0,2.424-1.081A1.915,1.915,0,0,0,62.391,37.333Z" fill="#1c5f7f"/><ellipse cx="61.436" cy="39.181" rx="1.01" ry="0.804" transform="translate(-1.709 75.545) rotate(-62.465)" fill="#fff" stroke="#277194" stroke-linecap="round" stroke-linejoin="round" stroke-width="0.072"/><ellipse cx="58.656" cy="42.137" rx="1.01" ry="0.804" transform="translate(-5.812 74.694) rotate(-62.486)" fill="#fff" stroke="#277194" stroke-linecap="round" stroke-linejoin="round" stroke-width="0.072"/><path d="M67.95,31.422L49.768,21.934l-2.737-7.772L45.1,13.29,37.1,9.379h0L33.787,7.867l-0.732.646L27.119,5.667,23.025,3.782,21.016,5.554l-0.475-1.2-1.568-.674L5.251,15.785,6.28,18.551,6.22,18.6l0.5,1.331L5.251,21.227,6.513,24.74l4.678,3.2,6.115,2.781,0.641,1.784-4.191-2.072-0.748-1.665-1.274-.58H8.615a1.213,1.213,0,0,0-.9.241,0.507,0.507,0,0,0,0,.655l1.2,2.807A8.865,8.865,0,0,0,11.191,33.7L24.1,39.263l0.294,0.813,6.948,4.242,2.046-1.8L32.67,40.48l2.057,0.986,6.746-5.95L57.7,43.985A1.894,1.894,0,0,0,60.126,42.9a2.686,2.686,0,0,0,.122-0.275c0.017-.047.03-0.094,0.045-0.14s0.03-.089.041-0.134c0.016-.066.027-0.131,0.039-0.2,0-.024.01-0.048,0.013-0.072a2.226,2.226,0,0,0,.018-0.238V41.828a1.9,1.9,0,0,0-.215-0.95l0.294,0.152a1.9,1.9,0,0,0,2.423-1.081,2.2,2.2,0,0,0,.059-2.029l0.3,0.155a1.9,1.9,0,0,0,2.424-1.082,2.2,2.2,0,0,0,.057-2.029l0.3,0.156a1.9,1.9,0,0,0,2.423-1.082A1.912,1.912,0,0,0,67.95,31.422Z" fill="none" stroke="#000" stroke-linecap="round" stroke-linejoin="round" stroke-width="0.373"/></svg>