<svg xmlns="http://www.w3.org/2000/svg" width="74" height="48" viewBox="0 0 74 48"><title>cc-link_cbl</title><rect width="74" height="48" fill="#fff"/><path d="M12.613,15.859c0,8.034,8.663,18.751,14.984,24.2" fill="none" stroke="#71515c" stroke-miterlimit="10" stroke-width="1.613"/><path d="M12.613,15.859c0,8.034,8.663,18.751,14.984,24.2" fill="none" stroke="#cd963e" stroke-miterlimit="10" stroke-width="0.968"/><path d="M24.822,35.957l3.339,3.137a1.139,1.139,0,0,1-.336,1.294,0.986,0.986,0,0,1-1.155.524l-3.34-3.137a1.142,1.142,0,0,1,.336-1.295A0.986,0.986,0,0,1,24.822,35.957Z" fill="#888781" stroke="#5e5b47" stroke-miterlimit="10" stroke-width="0.323"/><path d="M27.1,39.709a0.775,0.775,0,0,0-.157.968,0.665,0.665,0,0,0,.876-0.292,0.776,0.776,0,0,0,.157-0.968A0.665,0.665,0,0,0,27.1,39.709Z" fill="#3e3a38"/><path d="M61.387,15.859c0,8.034-8.663,18.751-14.985,24.2" fill="none" stroke="#71515c" stroke-miterlimit="10" stroke-width="1.613"/><path d="M61.387,15.859c0,8.034-8.663,18.751-14.985,24.2" fill="none" stroke="#cd963e" stroke-miterlimit="10" stroke-width="0.968"/><ellipse cx="37" cy="16.423" rx="24.457" ry="14.547" fill="none" stroke="#71515c" stroke-miterlimit="10" stroke-width="1.613"/><ellipse cx="37" cy="16.423" rx="24.457" ry="14.547" fill="none" stroke="#cd963e" stroke-miterlimit="10" stroke-width="0.968"/><ellipse cx="36.131" cy="15.859" rx="23.195" ry="14.547" fill="none" stroke="#71515c" stroke-miterlimit="10" stroke-width="1.613"/><ellipse cx="36.131" cy="15.859" rx="23.195" ry="14.547" fill="none" stroke="#cd963e" stroke-miterlimit="10" stroke-width="0.968"/><ellipse cx="37.271" cy="15.859" rx="23.194" ry="14.547" fill="none" stroke="#71515c" stroke-miterlimit="10" stroke-width="1.613"/><ellipse cx="37.271" cy="15.859" rx="23.194" ry="14.547" fill="none" stroke="#cd963e" stroke-miterlimit="10" stroke-width="0.968"/><path d="M49.178,35.957l-3.339,3.137a1.138,1.138,0,0,0,.336,1.294,0.986,0.986,0,0,0,1.155.524l3.34-3.137a1.143,1.143,0,0,0-.336-1.295A0.986,0.986,0,0,0,49.178,35.957Z" fill="#888781" stroke="#5e5b47" stroke-miterlimit="10" stroke-width="0.323"/><path d="M46.9,39.709a0.775,0.775,0,0,1,.157.968,0.665,0.665,0,0,1-.876-0.292,0.776,0.776,0,0,1-.157-0.968A0.665,0.665,0,0,1,46.9,39.709Z" fill="#3e3a38"/><path d="M46.537,40.047s-3.672-1.238-6.357,4.034" fill="none" stroke="#5e5b47" stroke-linecap="round" stroke-miterlimit="10" stroke-width="0.645"/><path d="M46.537,40.047s-3.672-1.238-6.357,4.034" fill="none" stroke="#cdc9a5" stroke-linecap="round" stroke-miterlimit="10" stroke-width="0.323"/><path d="M27.462,40.047s3.7-.725,6.837,4.254" fill="none" stroke="#5e5b47" stroke-linecap="round" stroke-miterlimit="10" stroke-width="0.645"/><path d="M27.462,40.047s3.7-.725,6.837,4.254" fill="none" stroke="#cdc9a5" stroke-linecap="round" stroke-miterlimit="10" stroke-width="0.323"/><path d="M27.462,40.047s3.236,0.646,6.246,5.332" fill="none" stroke="#5e5b47" stroke-linecap="round" stroke-miterlimit="10" stroke-width="0.645"/><path d="M27.462,40.047s3.236,0.646,6.246,5.332" fill="none" stroke="#fccf00" stroke-linecap="round" stroke-miterlimit="10" stroke-width="0.323"/><path d="M27.462,40.047s1.981,2.033,5.684,6.164" fill="none" stroke="#5e5b47" stroke-linecap="round" stroke-miterlimit="10" stroke-width="0.645"/><path d="M27.462,40.047s1.981,2.033,5.684,6.164" fill="none" stroke="#fff" stroke-linecap="round" stroke-miterlimit="10" stroke-width="0.323"/><path d="M27.462,40.047s-0.285,2.113,5.045,7.111" fill="none" stroke="#5e5b47" stroke-linecap="round" stroke-miterlimit="10" stroke-width="0.645"/><path d="M27.462,40.047s-0.285,2.113,5.045,7.111" fill="none" stroke="#558ec2" stroke-linecap="round" stroke-miterlimit="10" stroke-width="0.323"/><path d="M46.537,40.047s-3.09.078-5.673,5.048" fill="none" stroke="#5e5b47" stroke-linecap="round" stroke-miterlimit="10" stroke-width="0.645"/><path d="M46.537,40.047s-3.09.078-5.673,5.048" fill="none" stroke="#fccf00" stroke-linecap="round" stroke-miterlimit="10" stroke-width="0.323"/><path d="M46.537,40.047a32.82,32.82,0,0,0-5.04,5.82" fill="none" stroke="#5e5b47" stroke-linecap="round" stroke-miterlimit="10" stroke-width="0.645"/><path d="M46.537,40.047a32.82,32.82,0,0,0-5.04,5.82" fill="none" stroke="#fff" stroke-linecap="round" stroke-miterlimit="10" stroke-width="0.323"/><path d="M46.537,40.047s0.545,1.184-4.321,6.7" fill="none" stroke="#5e5b47" stroke-linecap="round" stroke-miterlimit="10" stroke-width="0.645"/><path d="M46.537,40.047s0.545,1.184-4.321,6.7" fill="none" stroke="#558ec2" stroke-linecap="round" stroke-miterlimit="10" stroke-width="0.323"/></svg>