<svg xmlns="http://www.w3.org/2000/svg" width="74" height="48" viewBox="0 0 74 48"><title>cc-link_ie_opt_cbl</title><rect width="74" height="48" fill="#fff"/><path d="M11.374,17.058c0,8.391,8.074,20.175,14.71,25.87" fill="none" stroke="#954f00" stroke-miterlimit="10" stroke-width="1.182"/><path d="M11.374,17.058c0,8.391,8.074,20.175,14.71,25.87" fill="none" stroke="#d97700" stroke-miterlimit="10" stroke-width="0.676"/><path d="M11.4,16.542c0,8.391,9.093,19.583,15.729,25.278" fill="none" stroke="#954f00" stroke-miterlimit="10" stroke-width="1.182"/><path d="M11.4,16.542c0,8.391,9.093,19.583,15.729,25.278" fill="none" stroke="#d97700" stroke-miterlimit="10" stroke-width="0.676"/><path d="M21.057,37.824c1.243,1.247,3.817,4.065,5.027,5.1" fill="none" stroke="#717071" stroke-linecap="round" stroke-miterlimit="10" stroke-width="1.689"/><path d="M21.057,37.824c1.243,1.247,3.817,4.065,5.027,5.1" fill="none" stroke="#e3e4e4" stroke-linecap="round" stroke-miterlimit="10" stroke-width="1.013"/><path d="M22.514,37.37c1.319,1.235,3.387,3.4,4.616,4.45" fill="none" stroke="#717071" stroke-linecap="round" stroke-miterlimit="10" stroke-width="1.689"/><path d="M22.514,37.37c1.319,1.235,3.387,3.4,4.616,4.45" fill="none" stroke="#e3e4e4" stroke-linecap="round" stroke-miterlimit="10" stroke-width="1.013"/><polygon points="23.913 44.449 28.657 43.257 28.479 40.75 23.734 41.942 23.913 44.449" fill="#bebca1" stroke="#716f5d" stroke-linecap="round" stroke-linejoin="round" stroke-width="0.101"/><polygon points="29.098 46.717 31.203 46.188 31.045 43.964 28.94 44.492 29.098 46.717" fill="#e4e1c0" stroke="#716f5d" stroke-linecap="round" stroke-linejoin="round" stroke-width="0.101"/><polygon points="28.94 44.492 31.045 43.964 28.438 41.013 26.333 41.542 28.94 44.492" fill="#f1edca" stroke="#716f5d" stroke-linecap="round" stroke-linejoin="round" stroke-width="0.101"/><polygon points="29.098 46.717 28.94 44.492 26.333 41.542 26.491 43.767 29.098 46.717" fill="#c5c2a7" stroke="#716f5d" stroke-linecap="round" stroke-linejoin="round" stroke-width="0.101"/><ellipse cx="30.071" cy="45.34" rx="0.617" ry="0.656" fill="#9c9a84" stroke="#716f5d" stroke-linecap="round" stroke-linejoin="round" stroke-width="0.101"/><polygon points="23.734 41.942 28.479 40.75 26.548 38.564 21.803 39.756 23.734 41.942" fill="#f1edca" stroke="#716f5d" stroke-linecap="round" stroke-linejoin="round" stroke-width="0.101"/><polygon points="22.6 40.429 27.346 39.237 27.867 38.085 23.123 39.277 22.6 40.429" fill="#bcba9f" stroke="#716f5d" stroke-linecap="round" stroke-linejoin="round" stroke-width="0.101"/><polygon points="23.123 39.277 27.868 38.085 27.504 37.674 22.759 38.866 23.123 39.277" fill="#f1edca" stroke="#716f5d" stroke-linecap="round" stroke-linejoin="round" stroke-width="0.101"/><polygon points="23.913 44.449 23.734 41.942 21.803 39.756 21.981 42.263 23.913 44.449" fill="#d2cfb2" stroke="#716f5d" stroke-linecap="round" stroke-linejoin="round" stroke-width="0.101"/><polygon points="22.6 40.429 23.123 39.277 22.759 38.866 22.236 40.018 22.6 40.429" fill="#d2cfb2" stroke="#716f5d" stroke-linecap="round" stroke-linejoin="round" stroke-width="0.101"/><polyline points="27.93 40.128 23.185 41.321 23.33 43.349 23.878 43.964" fill="none" stroke="#716f5d" stroke-linecap="round" stroke-linejoin="round" stroke-width="0.101"/><polygon points="26.726 47.313 28.831 46.784 28.672 44.56 26.568 45.088 26.726 47.313" fill="#e4e1c0" stroke="#716f5d" stroke-linecap="round" stroke-linejoin="round" stroke-width="0.101"/><polygon points="26.568 45.088 28.672 44.56 26.065 41.61 23.961 42.138 26.568 45.088" fill="#f1edca" stroke="#716f5d" stroke-linecap="round" stroke-linejoin="round" stroke-width="0.101"/><polygon points="26.678 44.763 28.168 44.389 24.872 39.16 23.382 39.535 26.678 44.763" fill="#f1edca" stroke="#716f5d" stroke-linecap="round" stroke-linejoin="round" stroke-width="0.101"/><polygon points="25.793 42.419 26.873 42.148 24.872 39.16 23.793 39.432 25.793 42.419" fill="#f1edca" stroke="#716f5d" stroke-linecap="round" stroke-linejoin="round" stroke-width="0.101"/><polygon points="26.484 43.926 27.564 43.654 26.873 42.148 25.793 42.419 26.484 43.926" fill="#f1edca" stroke="#716f5d" stroke-linecap="round" stroke-linejoin="round" stroke-width="0.101"/><polygon points="29.05 44.168 30.54 43.793 27.245 38.564 25.754 38.939 29.05 44.168" fill="#f1edca" stroke="#716f5d" stroke-linecap="round" stroke-linejoin="round" stroke-width="0.101"/><polygon points="26.726 47.313 26.568 45.088 23.961 42.138 24.119 44.362 26.726 47.313" fill="#d2cfb2" stroke="#716f5d" stroke-linecap="round" stroke-linejoin="round" stroke-width="0.101"/><ellipse cx="27.699" cy="45.936" rx="0.616" ry="0.656" fill="#9c9a84" stroke="#716f5d" stroke-linecap="round" stroke-linejoin="round" stroke-width="0.101"/><path d="M27.769,45.439l0.773,0.875a0.377,0.377,0,0,1-.065.5,0.326,0.326,0,0,1-.474.039l-0.772-.875a0.378,0.378,0,0,1,.065-0.5A0.326,0.326,0,0,1,27.769,45.439Z" fill="#bfbfbf" stroke="#716f5d" stroke-linecap="round" stroke-linejoin="round" stroke-width="0.101"/><path d="M30.162,44.872l0.773,0.874a0.378,0.378,0,0,1-.065.5,0.326,0.326,0,0,1-.473.039l-0.773-.875a0.378,0.378,0,0,1,.065-0.5A0.325,0.325,0,0,1,30.162,44.872Z" fill="#bfbfbf" stroke="#716f5d" stroke-linecap="round" stroke-linejoin="round" stroke-width="0.101"/><polygon points="28.165 41.823 29.244 41.552 27.245 38.564 26.165 38.836 28.165 41.823" fill="#f1edca" stroke="#716f5d" stroke-linecap="round" stroke-linejoin="round" stroke-width="0.101"/><polygon points="28.857 43.329 29.937 43.059 29.244 41.552 28.165 41.823 28.857 43.329" fill="#f1edca" stroke="#716f5d" stroke-linecap="round" stroke-linejoin="round" stroke-width="0.101"/><path d="M22.425,39.6l0.334-.735L27.5,37.674l0.364,0.412h0l-0.381.841,1.758,2.626,0.314,0.684,0.1,0.162,1.383,1.565L31.2,46.188l-0.385.1a0.351,0.351,0,0,1-.292.074l-1.427.358-0.3-.335,0.029,0.4-0.535.134a0.329,0.329,0,0,1-.074.019l-1.5.376-2.582-2.922-0.231.059-1.931-2.186L21.8,39.756Z" fill="none" stroke="#717071" stroke-linecap="round" stroke-linejoin="round" stroke-width="0.338"/><path d="M62.626,17.058c0,8.391-8.074,20.175-14.71,25.87" fill="none" stroke="#954f00" stroke-miterlimit="10" stroke-width="1.182"/><path d="M62.626,17.058c0,8.391-8.074,20.175-14.71,25.87" fill="none" stroke="#d97700" stroke-miterlimit="10" stroke-width="0.676"/><path d="M62.6,16.542c0,8.391-9.093,19.583-15.729,25.278" fill="none" stroke="#954f00" stroke-miterlimit="10" stroke-width="1.182"/><path d="M62.6,16.542c0,8.391-9.093,19.583-15.729,25.278" fill="none" stroke="#d97700" stroke-miterlimit="10" stroke-width="0.676"/><path d="M52.943,37.824c-1.243,1.247-3.817,4.065-5.028,5.1" fill="none" stroke="#717071" stroke-linecap="round" stroke-miterlimit="10" stroke-width="1.689"/><path d="M52.943,37.824c-1.243,1.247-3.817,4.065-5.028,5.1" fill="none" stroke="#e3e4e4" stroke-linecap="round" stroke-miterlimit="10" stroke-width="1.013"/><path d="M51.485,37.37c-1.318,1.235-3.387,3.4-4.616,4.45" fill="none" stroke="#717071" stroke-linecap="round" stroke-miterlimit="10" stroke-width="1.689"/><path d="M51.485,37.37c-1.318,1.235-3.387,3.4-4.616,4.45" fill="none" stroke="#e3e4e4" stroke-linecap="round" stroke-miterlimit="10" stroke-width="1.013"/><polygon points="50.087 44.449 45.342 43.257 45.521 40.75 50.266 41.942 50.087 44.449" fill="#bebca1" stroke="#716f5d" stroke-linecap="round" stroke-linejoin="round" stroke-width="0.101"/><polygon points="44.902 46.717 42.797 46.188 42.955 43.964 45.06 44.492 44.902 46.717" fill="#e4e1c0" stroke="#716f5d" stroke-linecap="round" stroke-linejoin="round" stroke-width="0.101"/><polygon points="45.06 44.492 42.955 43.964 45.562 41.013 47.667 41.542 45.06 44.492" fill="#f1edca" stroke="#716f5d" stroke-linecap="round" stroke-linejoin="round" stroke-width="0.101"/><polygon points="44.902 46.717 45.06 44.492 47.667 41.542 47.508 43.767 44.902 46.717" fill="#c5c2a7" stroke="#716f5d" stroke-linecap="round" stroke-linejoin="round" stroke-width="0.101"/><ellipse cx="43.929" cy="45.34" rx="0.617" ry="0.656" fill="#9c9a84" stroke="#716f5d" stroke-linecap="round" stroke-linejoin="round" stroke-width="0.101"/><polygon points="50.266 41.942 45.521 40.75 47.452 38.564 52.197 39.756 50.266 41.942" fill="#f1edca" stroke="#716f5d" stroke-linecap="round" stroke-linejoin="round" stroke-width="0.101"/><polygon points="51.4 40.429 46.654 39.237 46.133 38.085 50.877 39.277 51.4 40.429" fill="#bcba9f" stroke="#716f5d" stroke-linecap="round" stroke-linejoin="round" stroke-width="0.101"/><polygon points="50.877 39.277 46.132 38.085 46.496 37.674 51.241 38.866 50.877 39.277" fill="#f1edca" stroke="#716f5d" stroke-linecap="round" stroke-linejoin="round" stroke-width="0.101"/><polygon points="50.087 44.449 50.266 41.942 52.197 39.756 52.018 42.263 50.087 44.449" fill="#d2cfb2" stroke="#716f5d" stroke-linecap="round" stroke-linejoin="round" stroke-width="0.101"/><polygon points="51.4 40.429 50.877 39.277 51.241 38.866 51.764 40.018 51.4 40.429" fill="#d2cfb2" stroke="#716f5d" stroke-linecap="round" stroke-linejoin="round" stroke-width="0.101"/><polyline points="46.07 40.128 50.815 41.321 50.67 43.349 50.122 43.964" fill="none" stroke="#716f5d" stroke-linecap="round" stroke-linejoin="round" stroke-width="0.101"/><polygon points="47.274 47.313 45.169 46.784 45.328 44.56 47.432 45.088 47.274 47.313" fill="#e4e1c0" stroke="#716f5d" stroke-linecap="round" stroke-linejoin="round" stroke-width="0.101"/><polygon points="47.432 45.088 45.328 44.56 47.935 41.61 50.039 42.138 47.432 45.088" fill="#f1edca" stroke="#716f5d" stroke-linecap="round" stroke-linejoin="round" stroke-width="0.101"/><polygon points="47.322 44.763 45.832 44.389 49.127 39.16 50.618 39.535 47.322 44.763" fill="#f1edca" stroke="#716f5d" stroke-linecap="round" stroke-linejoin="round" stroke-width="0.101"/><polygon points="48.207 42.419 47.127 42.148 49.127 39.16 50.207 39.432 48.207 42.419" fill="#f1edca" stroke="#716f5d" stroke-linecap="round" stroke-linejoin="round" stroke-width="0.101"/><polygon points="47.515 43.926 46.436 43.654 47.127 42.148 48.207 42.419 47.515 43.926" fill="#f1edca" stroke="#716f5d" stroke-linecap="round" stroke-linejoin="round" stroke-width="0.101"/><polygon points="44.95 44.168 43.46 43.793 46.755 38.564 48.245 38.939 44.95 44.168" fill="#f1edca" stroke="#716f5d" stroke-linecap="round" stroke-linejoin="round" stroke-width="0.101"/><polygon points="47.274 47.313 47.432 45.088 50.039 42.138 49.88 44.362 47.274 47.313" fill="#d2cfb2" stroke="#716f5d" stroke-linecap="round" stroke-linejoin="round" stroke-width="0.101"/><ellipse cx="46.301" cy="45.936" rx="0.616" ry="0.656" fill="#9c9a84" stroke="#716f5d" stroke-linecap="round" stroke-linejoin="round" stroke-width="0.101"/><path d="M46.23,45.439l-0.773.875a0.377,0.377,0,0,0,.065.5,0.326,0.326,0,0,0,.474.039l0.772-.875a0.378,0.378,0,0,0-.065-0.5A0.326,0.326,0,0,0,46.23,45.439Z" fill="#bfbfbf" stroke="#716f5d" stroke-linecap="round" stroke-linejoin="round" stroke-width="0.101"/><path d="M43.838,44.872l-0.773.874a0.378,0.378,0,0,0,.065.5,0.326,0.326,0,0,0,.473.039l0.773-.875a0.378,0.378,0,0,0-.065-0.5A0.325,0.325,0,0,0,43.838,44.872Z" fill="#bfbfbf" stroke="#716f5d" stroke-linecap="round" stroke-linejoin="round" stroke-width="0.101"/><polygon points="45.835 41.823 44.755 41.552 46.755 38.564 47.835 38.836 45.835 41.823" fill="#f1edca" stroke="#716f5d" stroke-linecap="round" stroke-linejoin="round" stroke-width="0.101"/><polygon points="45.143 43.329 44.063 43.059 44.755 41.552 45.835 41.823 45.143 43.329" fill="#f1edca" stroke="#716f5d" stroke-linecap="round" stroke-linejoin="round" stroke-width="0.101"/><path d="M51.575,39.6l-0.334-.735L46.5,37.674l-0.364.412h0l0.381,0.841-1.758,2.626-0.314.684-0.1.162-1.383,1.565L42.8,46.188l0.385,0.1a0.351,0.351,0,0,0,.292.074L44.9,46.717l0.3-.335-0.029.4L45.7,46.918a0.329,0.329,0,0,0,.074.019l1.5,0.376,2.582-2.922,0.231,0.059,1.931-2.186L52.2,39.756Z" fill="none" stroke="#717071" stroke-linecap="round" stroke-linejoin="round" stroke-width="0.338"/><ellipse cx="37" cy="17.13" rx="25.672" ry="15.193" fill="none" stroke="#824e00" stroke-miterlimit="10" stroke-width="1.689"/><ellipse cx="37" cy="17.13" rx="25.672" ry="15.193" fill="none" stroke="#d97700" stroke-miterlimit="10" stroke-width="1.013"/><ellipse cx="36.088" cy="16.542" rx="24.348" ry="15.193" fill="none" stroke="#824e00" stroke-miterlimit="10" stroke-width="1.689"/><ellipse cx="36.088" cy="16.542" rx="24.348" ry="15.193" fill="none" stroke="#d97700" stroke-miterlimit="10" stroke-width="1.013"/><ellipse cx="37.284" cy="16.542" rx="24.347" ry="15.193" fill="none" stroke="#824e00" stroke-miterlimit="10" stroke-width="1.689"/><ellipse cx="37.284" cy="16.542" rx="24.347" ry="15.193" fill="none" stroke="#d97700" stroke-miterlimit="10" stroke-width="1.013"/></svg>