<svg enable-background="new 0 0 64 64" viewBox="0 0 64 64" xmlns="http://www.w3.org/2000/svg"><g clip-rule="evenodd" fill-rule="evenodd"><path d="m64 32c0-17.673-14.327-32-32-32s-32 14.327-32 32c0 15.972 11.702 29.211 27 31.611v-22.361h-8.125v-9.25h8.125v-7.05c0-8.02 4.777-12.45 12.087-12.45 3.501 0 7.163.625 7.163.625v7.875h-4.035c-3.975 0-5.215 2.467-5.215 4.997v6.003h8.875l-1.419 9.25h-7.456v22.361c15.298-2.4 27-15.639 27-31.611" fill="#1877f2"/><path d="m44.456 41.25 1.419-9.25h-8.875v-6.003c0-2.53 1.24-4.997 5.215-4.997h4.035v-7.875s-3.662-.625-7.163-.625c-7.31 0-12.087 4.43-12.087 12.45v7.05h-8.125v9.25h8.125v22.361c1.629.256 3.299.389 5 .389s3.371-.133 5-.389v-22.361z" fill="#fff"/></g></svg>