<?xml version="1.0" encoding="UTF-8"?>
<svg width="26px" height="26px" viewBox="0 0 26 26" version="1.1" xmlns="http://www.w3.org/2000/svg" xmlns:xlink="http://www.w3.org/1999/xlink">
    <!-- Generator: Sketch 48.2 (47327) - http://www.bohemiancoding.com/sketch -->
    <title>00-Foundation/icon_Pdf</title>
    <desc>Created with Sketch.</desc>
    <defs>
        <path d="M19.625,18.7189 L20.438,18.7189 L20.438,23.5939 L5,23.5939 L5,18.7189 L5.813,18.7189 L5.813,22.7819 L19.625,22.7819 L19.625,18.7189 Z M11.0237,3.0004 L13.8847,3.0004 L15.6157,4.7294 L15.6157,9.2014 L13.9567,10.8594 L11.0237,10.8594 L11.0237,3.0004 Z M11.8357,3.8134 L11.8357,10.0464 L13.6197,10.0464 L14.8027,8.8654 L14.8027,5.0654 L13.5487,3.8134 L11.8357,3.8134 Z M5.1062,3.0004 L8.1142,3.0004 L9.8442,4.7294 L9.8442,6.2284 L8.1852,7.8874 L5.9192,7.8874 L5.9192,11.0044 L5.1062,11.0044 L5.1062,3.0004 Z M5.9192,3.8134 L5.9192,7.0744 L7.8492,7.0744 L9.0312,5.8934 L9.0312,5.0654 L7.7782,3.8134 L5.9192,3.8134 Z M16.7945,3.0004 L21.1435,3.0004 L21.1435,3.8134 L17.6075,3.8134 L17.6075,6.3084 L20.5915,6.3084 L20.5915,7.1214 L17.6075,7.1214 L17.6075,11.0044 L16.7945,11.0044 L16.7945,3.0004 Z M12.3125,12.6313 L13.1245,12.6313 L13.1245,19.5423 L16.4535,16.2143 L17.0285,16.7883 L12.7185,21.0973 L8.4095,16.7883 L8.9845,16.2143 L12.3125,19.5423 L12.3125,12.6313 Z" id="path-1"></path>
    </defs>
    <g id="Symbols" stroke="none" stroke-width="1" fill="none" fill-rule="evenodd">
        <g id="00-Foundation/icon_Pdf">
            <mask id="mask-2" fill="white">
                <use xlink:href="#path-1"></use>
            </mask>
            <use id="Mask" fill="#F50F10" xlink:href="#path-1"></use>
        </g>
    </g>
</svg>