<svg xmlns="http://www.w3.org/2000/svg" width="64" height="52.003" viewBox="0 0 64 52.003"><path d="M32.127,67.756c24.151,0,37.36-20.009,37.36-37.361,0-.568,0-1.134-.038-1.7A26.719,26.719,0,0,0,76,21.9a26.2,26.2,0,0,1-7.542,2.066A13.176,13.176,0,0,0,74.231,16.7a26.311,26.311,0,0,1-8.338,3.187A13.143,13.143,0,0,0,43.516,31.867,37.279,37.279,0,0,1,16.454,18.148,13.14,13.14,0,0,0,20.52,35.676a13.033,13.033,0,0,1-5.96-1.644V34.2A13.135,13.135,0,0,0,25.094,47.071a13.105,13.105,0,0,1-5.929.225,13.145,13.145,0,0,0,12.268,9.119,26.346,26.346,0,0,1-16.307,5.632A26.741,26.741,0,0,1,12,61.857a37.173,37.173,0,0,0,20.127,5.888" transform="translate(-12 -15.752)" fill="#1da1f2" fill-rule="evenodd"/></svg>