<?xml version="1.0" encoding="utf-8"?>
<!-- Generator: Adobe Illustrator 24.1.0, SVG Export Plug-In . SVG Version: 6.00 Build 0)  -->
<svg version="1.1" id="layer" xmlns="http://www.w3.org/2000/svg" xmlns:xlink="http://www.w3.org/1999/xlink" x="0px" y="0px"
	 viewBox="0 0 26 26" style="enable-background:new 0 0 26 26;" xml:space="preserve">
<style type="text/css">
	.st0{fill:#F50F10;}
</style>
<polygon class="st0" points="13.406,12.631 13.406,19.542 16.735,16.214 17.309,16.788 13,21.097 8.691,16.788 9.266,16.214 
	12.594,19.542 12.594,12.631 "/>
<polygon class="st0" points="6.094,18.719 6.094,22.782 19.906,22.782 19.906,18.719 20.719,18.719 20.719,23.594 5.281,23.594 
	5.281,18.719 "/>
<polygon class="st0" points="16.395,2.999 16.395,3.812 18.285,3.812 18.285,11.005 19.098,11.005 19.098,3.812 20.987,3.812 
	20.987,2.999 "/>
<polygon class="st0" points="11.201,2.999 12.999,6.192 14.798,2.999 15.71,2.999 13.455,7.003 15.71,11.005 14.796,11.006 
	12.999,7.813 11.202,11.006 10.289,11.005 12.543,7.003 10.289,2.999 "/>
<polygon class="st0" points="5.013,2.999 5.013,3.812 6.902,3.812 6.902,11.005 7.715,11.005 7.715,3.812 9.604,3.812 9.604,2.999 
	"/>
</svg>
