<?xml version="1.0" encoding="UTF-8"?><svg id="English" xmlns="http://www.w3.org/2000/svg" viewBox="0 0 119.56 131.13"><line x1="23.53" y1="101.35" x2="114.23" y2="101.35" fill="none" stroke="#251e1c" stroke-linejoin="round" stroke-width=".14"/><line x1="23.53" y1="87.19" x2="114.23" y2="87.19" fill="none" stroke="#251e1c" stroke-linejoin="round" stroke-width=".14"/><line x1="23.53" y1="73.03" x2="114.23" y2="73.03" fill="none" stroke="#251e1c" stroke-linejoin="round" stroke-width=".14"/><line x1="23.53" y1="58.87" x2="114.23" y2="58.87" fill="none" stroke="#251e1c" stroke-linejoin="round" stroke-width=".14"/><line x1="23.53" y1="44.71" x2="114.23" y2="44.71" fill="none" stroke="#251e1c" stroke-linejoin="round" stroke-width=".14"/><line x1="23.53" y1="30.5" x2="114.23" y2="30.5" fill="none" stroke="#251e1c" stroke-linejoin="round" stroke-width=".14"/><line x1="23.53" y1="16.34" x2="114.23" y2="16.34" fill="none" stroke="#251e1c" stroke-linejoin="round" stroke-width=".14"/><line x1="53.76" y1="2.18" x2="53.76" y2="115.56" fill="none" stroke="#251e1c" stroke-linejoin="round" stroke-width=".14"/><line x1="83.99" y1="2.18" x2="83.99" y2="115.56" fill="none" stroke="#251e1c" stroke-linejoin="round" stroke-width=".14"/><polyline points="23.53 83.97 68.88 83.97 76.43 88.46 83.98 91.86 99.1 96.62 114.22 99.75" fill="none" stroke="#9e9e9f" stroke-width="3"/><polyline points="23.53 20.58 74.93 20.58 83.98 31.93 93.06 43.28 102.14 52.47 114.22 61" fill="none" stroke="#9e9e9f" stroke-linecap="round" stroke-width="3"/><polyline points="22.11 20.58 68.87 20.58 80.45 33.33 90.32 44.11 99.1 53.21 114.27 64.55" fill="none" stroke="#251e1c" stroke-linecap="round" stroke-miterlimit="10" stroke-width="1"/><line x1="92.93" y1="95.88" x2="92.93" y2="115.65" fill="none" stroke="#9e9e9f" stroke-dasharray="0 0 3.1 1.5" stroke-width="1"/><polyline points="23.53 83.97 68.88 83.97 76.43 88.46 83.98 91.86 99.1 96.62 114.22 99.75" fill="none" stroke="#251e1c" stroke-miterlimit="10" stroke-width="1"/><path d="m22.34,119.47c0-.42.04-.76.13-1.02.09-.26.22-.46.39-.6s.39-.21.65-.21c.19,0,.36.04.51.12.14.08.26.19.36.33.09.15.17.32.22.53.05.21.08.49.08.85,0,.42-.04.76-.13,1.02-.09.26-.22.46-.39.6-.17.14-.39.21-.65.21-.34,0-.62-.12-.81-.37-.24-.3-.35-.78-.35-1.46Zm.45,0c0,.59.07.98.21,1.17.14.19.31.29.51.29s.37-.1.51-.29.21-.59.21-1.17-.07-.98-.21-1.17-.31-.29-.51-.29-.36.09-.48.26c-.15.22-.23.62-.23,1.21Z" fill="#251e1c" stroke-width="0"/><rect x="114.23" y="2.18" width="2.83" height="113.39" fill="#fff" stroke-width="0"/><rect x="20.69" y="2.18" width="2.83" height="113.39" fill="#fff" stroke-width="0"/><path d="m15.37,115.22c0-.42.04-.76.13-1.02.09-.26.22-.46.39-.6.17-.14.39-.21.65-.21.19,0,.36.04.51.12.15.08.26.19.36.33.09.15.17.32.22.53.05.21.08.49.08.85,0,.42-.04.76-.13,1.02-.09.26-.22.46-.39.6-.17.14-.39.21-.65.21-.35,0-.62-.12-.81-.37-.24-.3-.35-.78-.35-1.46Zm.45,0c0,.59.07.98.21,1.17.14.19.31.29.51.29s.37-.1.51-.29c.14-.2.21-.59.21-1.17s-.07-.98-.21-1.17c-.14-.19-.31-.29-.51-.29s-.36.09-.48.26c-.15.22-.23.62-.23,1.21Z" fill="#251e1c" stroke-width="0"/><path d="m18.39,116.98v-.5h.5v.5h-.5Z" fill="#251e1c" stroke-width="0"/><path d="m19.54,115.22c0-.42.04-.76.13-1.02.09-.26.22-.46.39-.6.17-.14.39-.21.65-.21.19,0,.36.04.51.12.15.08.26.19.36.33.09.15.17.32.22.53.05.21.08.49.08.85,0,.42-.04.76-.13,1.02-.09.26-.22.46-.39.6-.17.14-.39.21-.65.21-.35,0-.62-.12-.81-.37-.24-.3-.35-.78-.35-1.46Zm.45,0c0,.59.07.98.21,1.17.14.19.31.29.51.29s.37-.1.51-.29c.14-.2.21-.59.21-1.17s-.07-.98-.21-1.17c-.14-.19-.31-.29-.51-.29s-.36.09-.48.26c-.15.22-.23.62-.23,1.21Z" fill="#251e1c" stroke-width="0"/><path d="m14.89,103.09v.42h-2.37c0-.11.01-.21.05-.31.06-.16.16-.32.29-.48.13-.16.32-.34.57-.54.39-.32.65-.57.79-.76.14-.19.21-.36.21-.53,0-.17-.06-.32-.19-.44-.12-.12-.29-.18-.49-.18-.21,0-.38.06-.51.19s-.19.3-.19.53l-.45-.05c.03-.34.15-.59.35-.77.2-.18.47-.26.81-.26s.62.1.82.29.3.43.3.71c0,.14-.03.28-.09.42s-.16.28-.29.44c-.14.15-.36.36-.68.63-.26.22-.43.37-.51.45-.07.08-.14.16-.19.24h1.76Z" fill="#251e1c" stroke-width="0"/><path d="m15.36,101.75c0-.42.04-.76.13-1.02.09-.26.22-.46.39-.6.17-.14.39-.21.65-.21.19,0,.36.04.51.12.15.08.26.19.36.33.09.15.17.32.22.53.05.21.08.49.08.85,0,.42-.04.76-.13,1.02-.09.26-.22.46-.39.6-.17.14-.39.21-.65.21-.35,0-.62-.12-.81-.37-.24-.3-.35-.78-.35-1.46Zm.45,0c0,.59.07.98.21,1.17.14.19.31.29.51.29s.37-.1.51-.29c.14-.2.21-.59.21-1.17s-.07-.98-.21-1.17c-.14-.19-.31-.29-.51-.29s-.36.09-.48.26c-.15.22-.23.62-.23,1.21Z" fill="#251e1c" stroke-width="0"/><path d="m18.39,103.52v-.5h.5v.5h-.5Z" fill="#251e1c" stroke-width="0"/><path d="m19.53,101.75c0-.42.04-.76.13-1.02.09-.26.22-.46.39-.6.17-.14.39-.21.65-.21.19,0,.36.04.51.12.15.08.26.19.36.33.09.15.17.32.22.53.05.21.08.49.08.85,0,.42-.04.76-.13,1.02-.09.26-.22.46-.39.6-.17.14-.39.21-.65.21-.35,0-.62-.12-.81-.37-.24-.3-.35-.78-.35-1.46Zm.45,0c0,.59.07.98.21,1.17.14.19.31.29.51.29s.37-.1.51-.29c.14-.2.21-.59.21-1.17s-.07-.98-.21-1.17c-.14-.19-.31-.29-.51-.29s-.36.09-.48.26c-.15.22-.23.62-.23,1.21Z" fill="#251e1c" stroke-width="0"/><path d="m11.46,46.82h-.44v-2.8c-.11.1-.24.2-.42.3-.17.1-.33.18-.46.23v-.42c.25-.12.46-.26.64-.42s.31-.32.39-.48h.28v3.59Z" fill="#251e1c" stroke-width="0"/><path d="m12.58,45.06c0-.42.04-.76.13-1.02.09-.26.22-.46.39-.6.17-.14.39-.21.65-.21.19,0,.36.04.51.12.15.08.26.19.36.33.09.15.17.32.22.53.05.21.08.49.08.85,0,.42-.04.76-.13,1.02-.09.26-.22.46-.39.6-.17.14-.39.21-.65.21-.35,0-.62-.12-.81-.37-.24-.3-.35-.78-.35-1.46Zm.45,0c0,.59.07.98.21,1.17.14.19.31.29.51.29s.37-.1.51-.29c.14-.2.21-.59.21-1.17s-.07-.98-.21-1.17c-.14-.19-.31-.29-.51-.29s-.36.09-.48.26c-.15.22-.23.62-.23,1.21Z" fill="#251e1c" stroke-width="0"/><path d="m15.36,45.06c0-.42.04-.76.13-1.02.09-.26.22-.46.39-.6.17-.14.39-.21.65-.21.19,0,.36.04.51.12.15.08.26.19.36.33.09.15.17.32.22.53.05.21.08.49.08.85,0,.42-.04.76-.13,1.02-.09.26-.22.46-.39.6-.17.14-.39.21-.65.21-.35,0-.62-.12-.81-.37-.24-.3-.35-.78-.35-1.46Zm.45,0c0,.59.07.98.21,1.17.14.19.31.29.51.29s.37-.1.51-.29c.14-.2.21-.59.21-1.17s-.07-.98-.21-1.17c-.14-.19-.31-.29-.51-.29s-.36.09-.48.26c-.15.22-.23.62-.23,1.21Z" fill="#251e1c" stroke-width="0"/><path d="m18.39,46.82v-.5h.5v.5h-.5Z" fill="#251e1c" stroke-width="0"/><path d="m19.53,45.06c0-.42.04-.76.13-1.02.09-.26.22-.46.39-.6.17-.14.39-.21.65-.21.19,0,.36.04.51.12.15.08.26.19.36.33.09.15.17.32.22.53.05.21.08.49.08.85,0,.42-.04.76-.13,1.02-.09.26-.22.46-.39.6-.17.14-.39.21-.65.21-.35,0-.62-.12-.81-.37-.24-.3-.35-.78-.35-1.46Zm.45,0c0,.59.07.98.21,1.17.14.19.31.29.51.29s.37-.1.51-.29c.14-.2.21-.59.21-1.17s-.07-.98-.21-1.17c-.14-.19-.31-.29-.51-.29s-.36.09-.48.26c-.15.22-.23.62-.23,1.21Z" fill="#251e1c" stroke-width="0"/><path d="m13.26,59.05c-.18-.07-.32-.16-.41-.29s-.13-.27-.13-.44c0-.26.09-.48.28-.66s.44-.27.75-.27.56.09.75.27c.19.18.29.4.29.66,0,.17-.04.31-.13.43-.09.12-.22.22-.4.28.22.07.39.19.5.35.12.16.17.35.17.57,0,.31-.11.56-.32.77s-.5.31-.85.31-.64-.1-.85-.31c-.22-.21-.32-.47-.32-.78,0-.23.06-.43.18-.58.12-.16.29-.26.5-.32Zm-.23.91c0,.13.03.25.09.36.06.12.15.21.27.27.12.06.24.1.38.1.21,0,.38-.07.52-.2s.21-.31.21-.52-.07-.39-.21-.52c-.14-.14-.32-.21-.53-.21s-.38.07-.51.21c-.14.14-.2.31-.2.51Zm.14-1.65c0,.17.05.31.16.42s.25.16.42.16.31-.05.42-.16c.11-.11.16-.24.16-.39s-.06-.3-.17-.41c-.11-.11-.25-.17-.42-.17s-.31.05-.42.16-.17.24-.17.39Z" fill="#251e1c" stroke-width="0"/><path d="m15.36,59.23c0-.42.04-.76.13-1.02.09-.26.22-.46.39-.6.17-.14.39-.21.65-.21.19,0,.36.04.51.12.15.08.26.19.36.33.09.15.17.32.22.53.05.21.08.49.08.85,0,.42-.04.76-.13,1.02-.09.26-.22.46-.39.6-.17.14-.39.21-.65.21-.35,0-.62-.12-.81-.37-.24-.3-.35-.78-.35-1.46Zm.45,0c0,.59.07.98.21,1.17.14.19.31.29.51.29s.37-.1.51-.29c.14-.2.21-.59.21-1.17s-.07-.98-.21-1.17c-.14-.19-.31-.29-.51-.29s-.36.09-.48.26c-.15.22-.23.62-.23,1.21Z" fill="#251e1c" stroke-width="0"/><path d="m18.39,61v-.5h.5v.5h-.5Z" fill="#251e1c" stroke-width="0"/><path d="m19.53,59.23c0-.42.04-.76.13-1.02.09-.26.22-.46.39-.6.17-.14.39-.21.65-.21.19,0,.36.04.51.12.15.08.26.19.36.33.09.15.17.32.22.53.05.21.08.49.08.85,0,.42-.04.76-.13,1.02-.09.26-.22.46-.39.6-.17.14-.39.21-.65.21-.35,0-.62-.12-.81-.37-.24-.3-.35-.78-.35-1.46Zm.45,0c0,.59.07.98.21,1.17.14.19.31.29.51.29s.37-.1.51-.29c.14-.2.21-.59.21-1.17s-.07-.98-.21-1.17c-.14-.19-.31-.29-.51-.29s-.36.09-.48.26c-.15.22-.23.62-.23,1.21Z" fill="#251e1c" stroke-width="0"/><path d="m14.86,72.47l-.44.03c-.04-.17-.09-.3-.17-.38-.12-.13-.27-.19-.44-.19-.14,0-.26.04-.37.12-.14.1-.25.25-.33.44s-.12.47-.12.83c.11-.16.24-.28.39-.36s.31-.12.48-.12c.29,0,.54.11.75.32.21.22.31.49.31.84,0,.22-.05.43-.15.63-.1.19-.23.34-.4.44s-.36.15-.58.15c-.37,0-.67-.13-.9-.4-.23-.27-.35-.71-.35-1.33,0-.69.13-1.19.38-1.51.22-.27.52-.41.9-.41.28,0,.51.08.69.24.18.16.29.38.32.65Zm-1.79,1.54c0,.15.03.3.1.43.06.14.15.24.27.32.12.07.24.11.36.11.19,0,.35-.07.48-.22s.2-.35.2-.61-.07-.44-.2-.58c-.13-.14-.3-.21-.5-.21s-.37.07-.51.21c-.14.14-.21.33-.21.56Z" fill="#251e1c" stroke-width="0"/><path d="m15.36,73.4c0-.42.04-.76.13-1.02.09-.26.22-.46.39-.6.17-.14.39-.21.65-.21.19,0,.36.04.51.12.15.08.26.19.36.33.09.15.17.32.22.53.05.21.08.49.08.85,0,.42-.04.76-.13,1.02-.09.26-.22.46-.39.6-.17.14-.39.21-.65.21-.35,0-.62-.12-.81-.37-.24-.3-.35-.78-.35-1.46Zm.45,0c0,.59.07.98.21,1.17.14.19.31.29.51.29s.37-.1.51-.29c.14-.2.21-.59.21-1.17s-.07-.98-.21-1.17c-.14-.19-.31-.29-.51-.29s-.36.09-.48.26c-.15.22-.23.62-.23,1.21Z" fill="#251e1c" stroke-width="0"/><path d="m18.39,75.17v-.5h.5v.5h-.5Z" fill="#251e1c" stroke-width="0"/><path d="m19.53,73.4c0-.42.04-.76.13-1.02.09-.26.22-.46.39-.6.17-.14.39-.21.65-.21.19,0,.36.04.51.12.15.08.26.19.36.33.09.15.17.32.22.53.05.21.08.49.08.85,0,.42-.04.76-.13,1.02-.09.26-.22.46-.39.6-.17.14-.39.21-.65.21-.35,0-.62-.12-.81-.37-.24-.3-.35-.78-.35-1.46Zm.45,0c0,.59.07.98.21,1.17.14.19.31.29.51.29s.37-.1.51-.29c.14-.2.21-.59.21-1.17s-.07-.98-.21-1.17c-.14-.19-.31-.29-.51-.29s-.36.09-.48.26c-.15.22-.23.62-.23,1.21Z" fill="#251e1c" stroke-width="0"/><path d="m13.99,89.34v-.86h-1.55v-.4l1.63-2.32h.36v2.32h.48v.4h-.48v.86h-.44Zm0-1.26v-1.61l-1.12,1.61h1.12Z" fill="#251e1c" stroke-width="0"/><path d="m15.36,87.58c0-.42.04-.76.13-1.02.09-.26.22-.46.39-.6.17-.14.39-.21.65-.21.19,0,.36.04.51.12.15.08.26.19.36.33.09.15.17.32.22.53.05.21.08.49.08.85,0,.42-.04.76-.13,1.02-.09.26-.22.46-.39.6-.17.14-.39.21-.65.21-.35,0-.62-.12-.81-.37-.24-.3-.35-.78-.35-1.46Zm.45,0c0,.59.07.98.21,1.17.14.19.31.29.51.29s.37-.1.51-.29c.14-.2.21-.59.21-1.17s-.07-.98-.21-1.17c-.14-.19-.31-.29-.51-.29s-.36.09-.48.26c-.15.22-.23.62-.23,1.21Z" fill="#251e1c" stroke-width="0"/><path d="m18.39,89.34v-.5h.5v.5h-.5Z" fill="#251e1c" stroke-width="0"/><path d="m19.53,87.58c0-.42.04-.76.13-1.02.09-.26.22-.46.39-.6.17-.14.39-.21.65-.21.19,0,.36.04.51.12.15.08.26.19.36.33.09.15.17.32.22.53.05.21.08.49.08.85,0,.42-.04.76-.13,1.02-.09.26-.22.46-.39.6-.17.14-.39.21-.65.21-.35,0-.62-.12-.81-.37-.24-.3-.35-.78-.35-1.46Zm.45,0c0,.59.07.98.21,1.17.14.19.31.29.51.29s.37-.1.51-.29c.14-.2.21-.59.21-1.17s-.07-.98-.21-1.17c-.14-.19-.31-.29-.51-.29s-.36.09-.48.26c-.15.22-.23.62-.23,1.21Z" fill="#251e1c" stroke-width="0"/><path d="m11.46,18.48h-.44v-2.8c-.11.1-.24.2-.42.3-.17.1-.33.18-.46.23v-.42c.25-.12.46-.26.64-.42s.31-.32.39-.48h.28v3.59Z" fill="#251e1c" stroke-width="0"/><path d="m13.99,18.48v-.86h-1.55v-.4l1.63-2.32h.36v2.32h.48v.4h-.48v.86h-.44Zm0-1.26v-1.61l-1.12,1.61h1.12Z" fill="#251e1c" stroke-width="0"/><path d="m15.36,16.71c0-.42.04-.76.13-1.02.09-.26.22-.46.39-.6.17-.14.39-.21.65-.21.19,0,.36.04.51.12.15.08.26.19.36.33.09.15.17.32.22.53.05.21.08.49.08.85,0,.42-.04.76-.13,1.02-.09.26-.22.46-.39.6-.17.14-.39.21-.65.21-.35,0-.62-.12-.81-.37-.24-.3-.35-.78-.35-1.46Zm.45,0c0,.59.07.98.21,1.17.14.19.31.29.51.29s.37-.1.51-.29c.14-.2.21-.59.21-1.17s-.07-.98-.21-1.17c-.14-.19-.31-.29-.51-.29s-.36.09-.48.26c-.15.22-.23.62-.23,1.21Z" fill="#251e1c" stroke-width="0"/><path d="m18.39,18.48v-.5h.5v.5h-.5Z" fill="#251e1c" stroke-width="0"/><path d="m19.53,16.71c0-.42.04-.76.13-1.02.09-.26.22-.46.39-.6.17-.14.39-.21.65-.21.19,0,.36.04.51.12.15.08.26.19.36.33.09.15.17.32.22.53.05.21.08.49.08.85,0,.42-.04.76-.13,1.02-.09.26-.22.46-.39.6-.17.14-.39.21-.65.21-.35,0-.62-.12-.81-.37-.24-.3-.35-.78-.35-1.46Zm.45,0c0,.59.07.98.21,1.17.14.19.31.29.51.29s.37-.1.51-.29c.14-.2.21-.59.21-1.17s-.07-.98-.21-1.17c-.14-.19-.31-.29-.51-.29s-.36.09-.48.26c-.15.22-.23.62-.23,1.21Z" fill="#251e1c" stroke-width="0"/><path d="m11.46,32.65h-.44v-2.8c-.11.1-.24.2-.42.3-.17.1-.33.18-.46.23v-.42c.25-.12.46-.26.64-.42s.31-.32.39-.48h.28v3.59Z" fill="#251e1c" stroke-width="0"/><path d="m14.89,32.23v.42h-2.37c0-.11.01-.21.05-.31.06-.16.16-.32.29-.48.13-.16.32-.34.57-.54.39-.32.65-.57.79-.76.14-.19.21-.36.21-.53,0-.17-.06-.32-.19-.44-.12-.12-.29-.18-.49-.18-.21,0-.38.06-.51.19s-.19.3-.19.53l-.45-.05c.03-.34.15-.59.35-.77.2-.18.47-.26.81-.26s.62.1.82.29.3.43.3.71c0,.14-.03.28-.09.42s-.16.28-.29.44c-.14.15-.36.36-.68.63-.26.22-.43.37-.51.45-.07.08-.14.16-.19.24h1.76Z" fill="#251e1c" stroke-width="0"/><path d="m15.36,30.88c0-.42.04-.76.13-1.02.09-.26.22-.46.39-.6.17-.14.39-.21.65-.21.19,0,.36.04.51.12.15.08.26.19.36.33.09.15.17.32.22.53.05.21.08.49.08.85,0,.42-.04.76-.13,1.02-.09.26-.22.46-.39.6-.17.14-.39.21-.65.21-.35,0-.62-.12-.81-.37-.24-.3-.35-.78-.35-1.46Zm.45,0c0,.59.07.98.21,1.17.14.19.31.29.51.29s.37-.1.51-.29c.14-.2.21-.59.21-1.17s-.07-.98-.21-1.17c-.14-.19-.31-.29-.51-.29s-.36.09-.48.26c-.15.22-.23.62-.23,1.21Z" fill="#251e1c" stroke-width="0"/><path d="m18.39,32.65v-.5h.5v.5h-.5Z" fill="#251e1c" stroke-width="0"/><path d="m19.53,30.88c0-.42.04-.76.13-1.02.09-.26.22-.46.39-.6.17-.14.39-.21.65-.21.19,0,.36.04.51.12.15.08.26.19.36.33.09.15.17.32.22.53.05.21.08.49.08.85,0,.42-.04.76-.13,1.02-.09.26-.22.46-.39.6-.17.14-.39.21-.65.21-.35,0-.62-.12-.81-.37-.24-.3-.35-.78-.35-1.46Zm.45,0c0,.59.07.98.21,1.17.14.19.31.29.51.29s.37-.1.51-.29c.14-.2.21-.59.21-1.17s-.07-.98-.21-1.17c-.14-.19-.31-.29-.51-.29s-.36.09-.48.26c-.15.22-.23.62-.23,1.21Z" fill="#251e1c" stroke-width="0"/><path d="m11.46,3.59h-.44V.79c-.11.1-.24.2-.42.3-.17.1-.33.18-.46.23v-.42c.25-.12.46-.26.64-.42s.31-.32.39-.48h.28v3.59Z" fill="#251e1c" stroke-width="0"/><path d="m14.86.89l-.44.03c-.04-.17-.09-.3-.17-.38-.12-.13-.27-.19-.44-.19-.14,0-.26.04-.37.12-.14.1-.25.25-.33.44s-.12.47-.12.83c.11-.16.24-.28.39-.36s.31-.12.48-.12c.29,0,.54.11.75.32.21.22.31.49.31.84,0,.22-.05.43-.15.63-.1.19-.23.34-.4.44s-.36.15-.58.15c-.37,0-.67-.13-.9-.4-.23-.27-.35-.71-.35-1.33,0-.69.13-1.19.38-1.51.22-.27.52-.41.9-.41.28,0,.51.08.69.24.18.16.29.38.32.65Zm-1.79,1.54c0,.15.03.3.1.43.06.14.15.24.27.32.12.07.24.11.36.11.19,0,.35-.07.48-.22s.2-.35.2-.61-.07-.44-.2-.58c-.13-.14-.3-.21-.5-.21s-.37.07-.51.21c-.14.14-.21.33-.21.56Z" fill="#251e1c" stroke-width="0"/><path d="m15.36,1.83c0-.42.04-.76.13-1.02.09-.26.22-.46.39-.6.17-.14.39-.21.65-.21.19,0,.36.04.51.12.15.08.26.19.36.33.09.15.17.32.22.53.05.21.08.49.08.85,0,.42-.04.76-.13,1.02-.09.26-.22.46-.39.6-.17.14-.39.21-.65.21-.35,0-.62-.12-.81-.37-.24-.3-.35-.78-.35-1.46Zm.45,0c0,.59.07.98.21,1.17.14.19.31.29.51.29s.37-.1.51-.29c.14-.2.21-.59.21-1.17s-.07-.98-.21-1.17c-.14-.19-.31-.29-.51-.29s-.36.09-.48.26c-.15.22-.23.62-.23,1.21Z" fill="#251e1c" stroke-width="0"/><path d="m18.39,3.59v-.5h.5v.5h-.5Z" fill="#251e1c" stroke-width="0"/><path d="m19.53,1.83c0-.42.04-.76.13-1.02.09-.26.22-.46.39-.6.17-.14.39-.21.65-.21.19,0,.36.04.51.12.15.08.26.19.36.33.09.15.17.32.22.53.05.21.08.49.08.85,0,.42-.04.76-.13,1.02-.09.26-.22.46-.39.6-.17.14-.39.21-.65.21-.35,0-.62-.12-.81-.37-.24-.3-.35-.78-.35-1.46Zm.45,0c0,.59.07.98.21,1.17.14.19.31.29.51.29s.37-.1.51-.29c.14-.2.21-.59.21-1.17s-.07-.98-.21-1.17c-.14-.19-.31-.29-.51-.29s-.36.09-.48.26c-.15.22-.23.62-.23,1.21Z" fill="#251e1c" stroke-width="0"/><path d="m80.72,120.81v.42h-2.37c0-.11.01-.21.05-.31.06-.16.16-.32.29-.48.13-.16.32-.34.57-.54.39-.32.65-.57.79-.76.14-.19.21-.36.21-.53,0-.17-.06-.32-.19-.44-.12-.12-.29-.18-.49-.18-.21,0-.38.06-.51.19s-.19.3-.19.53l-.45-.05c.03-.34.15-.59.35-.77.2-.18.47-.26.81-.26s.62.1.82.29.3.43.3.71c0,.14-.03.28-.09.42s-.16.28-.29.44c-.14.15-.36.36-.68.63-.26.22-.43.37-.51.45-.07.08-.14.16-.19.24h1.76Z" fill="#251e1c" stroke-width="0"/><path d="m81.19,119.47c0-.42.04-.76.13-1.02.09-.26.22-.46.39-.6.17-.14.39-.21.65-.21.19,0,.36.04.51.12.15.08.26.19.36.33.09.15.17.32.22.53.05.21.08.49.08.85,0,.42-.04.76-.13,1.02-.09.26-.22.46-.39.6-.17.14-.39.21-.65.21-.35,0-.62-.12-.81-.37-.24-.3-.35-.78-.35-1.46Zm.45,0c0,.59.07.98.21,1.17.14.19.31.29.51.29s.37-.1.51-.29c.14-.2.21-.59.21-1.17s-.07-.98-.21-1.17c-.14-.19-.31-.29-.51-.29s-.36.09-.48.26c-.15.22-.23.62-.23,1.21Z" fill="#251e1c" stroke-width="0"/><path d="m83.97,119.47c0-.42.04-.76.13-1.02.09-.26.22-.46.39-.6.17-.14.39-.21.65-.21.19,0,.36.04.51.12.15.08.26.19.36.33.09.15.17.32.22.53.05.21.08.49.08.85,0,.42-.04.76-.13,1.02-.09.26-.22.46-.39.6-.17.14-.39.21-.65.21-.35,0-.62-.12-.81-.37-.24-.3-.35-.78-.35-1.46Zm.45,0c0,.59.07.98.21,1.17.14.19.31.29.51.29s.37-.1.51-.29c.14-.2.21-.59.21-1.17s-.07-.98-.21-1.17c-.14-.19-.31-.29-.51-.29s-.36.09-.48.26c-.15.22-.23.62-.23,1.21Z" fill="#251e1c" stroke-width="0"/><path d="m86.75,119.47c0-.42.04-.76.13-1.02.09-.26.22-.46.39-.6.17-.14.39-.21.65-.21.19,0,.36.04.51.12.15.08.26.19.36.33.09.15.17.32.22.53.05.21.08.49.08.85,0,.42-.04.76-.13,1.02-.09.26-.22.46-.39.6-.17.14-.39.21-.65.21-.35,0-.62-.12-.81-.37-.24-.3-.35-.78-.35-1.46Zm.45,0c0,.59.07.98.21,1.17.14.19.31.29.51.29s.37-.1.51-.29c.14-.2.21-.59.21-1.17s-.07-.98-.21-1.17c-.14-.19-.31-.29-.51-.29s-.36.09-.48.26c-.15.22-.23.62-.23,1.21Z" fill="#251e1c" stroke-width="0"/><path d="m50.3,121.23h-.44v-2.8c-.11.1-.24.2-.42.3-.17.1-.33.18-.46.23v-.42c.25-.12.46-.26.64-.42s.31-.32.39-.48h.28v3.59Z" fill="#251e1c" stroke-width="0"/><path d="m51.42,119.47c0-.42.04-.76.13-1.02.09-.26.22-.46.39-.6.17-.14.39-.21.65-.21.19,0,.36.04.51.12.15.08.26.19.36.33.09.15.17.32.22.53.05.21.08.49.08.85,0,.42-.04.76-.13,1.02-.09.26-.22.46-.39.6-.17.14-.39.21-.65.21-.35,0-.62-.12-.81-.37-.24-.3-.35-.78-.35-1.46Zm.45,0c0,.59.07.98.21,1.17.14.19.31.29.51.29s.37-.1.51-.29c.14-.2.21-.59.21-1.17s-.07-.98-.21-1.17c-.14-.19-.31-.29-.51-.29s-.36.09-.48.26c-.15.22-.23.62-.23,1.21Z" fill="#251e1c" stroke-width="0"/><path d="m54.21,119.47c0-.42.04-.76.13-1.02.09-.26.22-.46.39-.6.17-.14.39-.21.65-.21.19,0,.36.04.51.12.15.08.26.19.36.33.09.15.17.32.22.53.05.21.08.49.08.85,0,.42-.04.76-.13,1.02-.09.26-.22.46-.39.6-.17.14-.39.21-.65.21-.35,0-.62-.12-.81-.37-.24-.3-.35-.78-.35-1.46Zm.45,0c0,.59.07.98.21,1.17.14.19.31.29.51.29s.37-.1.51-.29c.14-.2.21-.59.21-1.17s-.07-.98-.21-1.17c-.14-.19-.31-.29-.51-.29s-.36.09-.48.26c-.15.22-.23.62-.23,1.21Z" fill="#251e1c" stroke-width="0"/><path d="m56.99,119.47c0-.42.04-.76.13-1.02.09-.26.22-.46.39-.6.17-.14.39-.21.65-.21.19,0,.36.04.51.12.15.08.26.19.36.33.09.15.17.32.22.53.05.21.08.49.08.85,0,.42-.04.76-.13,1.02-.09.26-.22.46-.39.6-.17.14-.39.21-.65.21-.35,0-.62-.12-.81-.37-.24-.3-.35-.78-.35-1.46Zm.45,0c0,.59.07.98.21,1.17.14.19.31.29.51.29s.37-.1.51-.29c.14-.2.21-.59.21-1.17s-.07-.98-.21-1.17c-.14-.19-.31-.29-.51-.29s-.36.09-.48.26c-.15.22-.23.62-.23,1.21Z" fill="#251e1c" stroke-width="0"/><path d="m108.88,120.29l.44-.06c.05.25.14.43.26.54.12.11.27.16.44.16.21,0,.38-.07.52-.21.14-.14.21-.32.21-.53s-.07-.37-.2-.5c-.13-.13-.3-.2-.5-.2-.08,0-.19.02-.31.05l.05-.39s.05,0,.07,0c.19,0,.36-.05.51-.15s.22-.25.22-.45c0-.16-.05-.29-.16-.4s-.25-.16-.42-.16-.31.05-.43.16-.19.27-.22.48l-.44-.08c.05-.29.18-.52.37-.68.19-.16.43-.24.71-.24.2,0,.38.04.54.13.16.08.29.2.38.34.09.15.13.3.13.46s-.04.3-.12.42-.21.23-.37.3c.21.05.38.15.49.3.12.15.18.35.18.58,0,.31-.11.58-.34.79-.23.22-.52.33-.86.33-.31,0-.58-.09-.78-.28-.21-.19-.33-.43-.36-.73Z" fill="#251e1c" stroke-width="0"/><path d="m111.66,119.47c0-.42.04-.76.13-1.02.09-.26.22-.46.39-.6.17-.14.39-.21.65-.21.19,0,.36.04.51.12.15.08.26.19.36.33.09.15.17.32.22.53.05.21.08.49.08.85,0,.42-.04.76-.13,1.02-.09.26-.22.46-.39.6-.17.14-.39.21-.65.21-.35,0-.62-.12-.81-.37-.24-.3-.35-.78-.35-1.46Zm.45,0c0,.59.07.98.21,1.17.14.19.31.29.51.29s.37-.1.51-.29c.14-.2.21-.59.21-1.17s-.07-.98-.21-1.17c-.14-.19-.31-.29-.51-.29s-.36.09-.48.26c-.15.22-.23.62-.23,1.21Z" fill="#251e1c" stroke-width="0"/><path d="m114.44,119.47c0-.42.04-.76.13-1.02.09-.26.22-.46.39-.6.17-.14.39-.21.65-.21.19,0,.36.04.51.12.15.08.26.19.36.33.09.15.17.32.22.53.05.21.08.49.08.85,0,.42-.04.76-.13,1.02-.09.26-.22.46-.39.6-.17.14-.39.21-.65.21-.35,0-.62-.12-.81-.37-.24-.3-.35-.78-.35-1.46Zm.45,0c0,.59.07.98.21,1.17.14.19.31.29.51.29s.37-.1.51-.29c.14-.2.21-.59.21-1.17s-.07-.98-.21-1.17c-.14-.19-.31-.29-.51-.29s-.36.09-.48.26c-.15.22-.23.62-.23,1.21Z" fill="#251e1c" stroke-width="0"/><path d="m117.22,119.47c0-.42.04-.76.13-1.02.09-.26.22-.46.39-.6.17-.14.39-.21.65-.21.19,0,.36.04.51.12.15.08.26.19.36.33.09.15.17.32.22.53.05.21.08.49.08.85,0,.42-.04.76-.13,1.02-.09.26-.22.46-.39.6-.17.14-.39.21-.65.21-.35,0-.62-.12-.81-.37-.24-.3-.35-.78-.35-1.46Zm.45,0c0,.59.07.98.21,1.17.14.19.31.29.51.29s.37-.1.51-.29c.14-.2.21-.59.21-1.17s-.07-.98-.21-1.17c-.14-.19-.31-.29-.51-.29s-.36.09-.48.26c-.15.22-.23.62-.23,1.21Z" fill="#251e1c" stroke-width="0"/><rect x="23.53" y="2.18" width="90.71" height="113.39" fill="none" stroke="#251e1c" stroke-miterlimit="10" stroke-width=".5"/><rect x="27.16" y="34.72" width="46.89" height="17.1" fill="#fff" stroke-width="0"/><rect x="27.16" y="92.74" width="46" height="17.22" fill="#fff" stroke-width="0"/><path d="m28.8,39.54l.63-.05c.03.25.1.46.21.62.11.16.28.29.5.39.23.1.48.15.77.15.25,0,.48-.04.67-.11s.34-.18.43-.31c.09-.13.14-.27.14-.43s-.05-.29-.14-.41-.24-.22-.45-.3c-.13-.05-.43-.13-.89-.24s-.78-.21-.97-.31c-.24-.13-.42-.28-.54-.47-.12-.19-.18-.39-.18-.62,0-.25.07-.49.22-.71s.35-.39.63-.5c.28-.11.58-.17.92-.17.37,0,.7.06.98.18.28.12.5.3.65.53s.23.5.25.79l-.64.05c-.03-.32-.15-.56-.35-.72-.2-.16-.49-.24-.87-.24s-.69.07-.88.22c-.18.15-.27.32-.27.53,0,.18.06.33.19.44.13.12.46.24,1,.36.54.12.91.23,1.11.32.29.13.51.3.65.51s.21.44.21.71-.08.52-.23.75c-.15.24-.37.42-.66.55-.29.13-.61.2-.97.2-.45,0-.83-.07-1.14-.2-.31-.13-.55-.33-.72-.6-.17-.27-.27-.57-.28-.9Z" fill="#251e1c" stroke-width="0"/><path d="m33.62,41.15v-5.01h.62v1.8c.29-.33.65-.5,1.09-.5.27,0,.5.05.7.16.2.11.34.25.43.44.08.19.13.46.13.81v2.3h-.62v-2.3c0-.31-.07-.53-.2-.67-.13-.14-.32-.21-.57-.21-.18,0-.35.05-.51.14-.16.09-.27.22-.34.38-.07.16-.1.39-.1.67v1.99h-.62Z" fill="#251e1c" stroke-width="0"/><path d="m37.28,39.34c0-.67.19-1.17.56-1.49.31-.27.69-.4,1.14-.4.5,0,.91.16,1.22.49s.48.78.48,1.36c0,.47-.07.83-.21,1.1-.14.27-.34.48-.61.62-.27.15-.56.22-.88.22-.51,0-.92-.16-1.23-.49-.31-.33-.47-.79-.47-1.41Zm.63,0c0,.46.1.81.3,1.04.2.23.46.35.77.35s.56-.12.76-.35.3-.59.3-1.06c0-.45-.1-.79-.31-1.02-.2-.23-.46-.35-.76-.35s-.56.12-.77.35c-.2.23-.3.58-.3,1.04Z" fill="#251e1c" stroke-width="0"/><path d="m41.4,41.15v-3.63h.55v.55c.14-.26.27-.43.39-.51.12-.08.25-.12.4-.12.21,0,.42.07.63.2l-.21.57c-.15-.09-.3-.13-.45-.13-.13,0-.26.04-.36.12s-.18.19-.23.34c-.07.22-.1.46-.1.72v1.9h-.62Z" fill="#251e1c" stroke-width="0"/><path d="m45.08,40.6l.09.54c-.17.04-.33.05-.46.05-.22,0-.4-.04-.52-.11-.12-.07-.21-.16-.26-.28s-.08-.36-.08-.73v-2.09h-.45v-.48h.45v-.9l.61-.37v1.27h.62v.48h-.62v2.12c0,.18.01.29.03.34.02.05.06.09.11.12.05.03.12.04.21.04.07,0,.16,0,.27-.02Z" fill="#251e1c" stroke-width="0"/><path d="m45.44,39.65v-.62h1.89v.62h-1.89Z" fill="#251e1c" stroke-width="0"/><path d="m50.36,41.15v-.46c-.23.36-.57.54-1.02.54-.29,0-.56-.08-.8-.24-.24-.16-.43-.38-.56-.67-.13-.29-.2-.62-.2-.99s.06-.69.18-.99.3-.52.54-.68.51-.24.81-.24c.22,0,.41.05.58.14.17.09.31.21.42.36v-1.8h.61v5.01h-.57Zm-1.94-1.81c0,.46.1.81.29,1.04.2.23.43.35.69.35s.5-.11.69-.33c.19-.22.28-.56.28-1.01,0-.5-.1-.86-.29-1.09s-.43-.35-.71-.35-.5.11-.69.33c-.18.22-.27.58-.27,1.06Z" fill="#251e1c" stroke-width="0"/><path d="m54.28,41.15v-.53c-.28.41-.67.62-1.15.62-.21,0-.41-.04-.6-.12-.19-.08-.32-.19-.41-.31-.09-.12-.15-.28-.19-.46-.02-.12-.04-.31-.04-.57v-2.25h.62v2.01c0,.32.01.54.04.65.04.16.12.29.25.38.13.09.28.14.46.14s.36-.05.52-.14.28-.22.34-.39c.07-.16.1-.4.1-.71v-1.94h.62v3.63h-.55Z" fill="#251e1c" stroke-width="0"/><path d="m55.79,41.15v-3.63h.55v.55c.14-.26.27-.43.39-.51.12-.08.25-.12.4-.12.21,0,.42.07.63.2l-.21.57c-.15-.09-.3-.13-.45-.13-.13,0-.26.04-.36.12s-.18.19-.23.34c-.07.22-.1.46-.1.72v1.9h-.62Z" fill="#251e1c" stroke-width="0"/><path d="m60.5,40.71c-.23.19-.45.33-.66.41-.21.08-.44.12-.68.12-.4,0-.71-.1-.92-.29-.21-.2-.32-.44-.32-.75,0-.18.04-.34.12-.49.08-.15.19-.26.32-.35.13-.09.28-.16.44-.2.12-.03.3-.06.55-.09.5-.06.86-.13,1.1-.21,0-.08,0-.14,0-.16,0-.25-.06-.43-.17-.53-.16-.14-.39-.21-.7-.21-.29,0-.5.05-.64.15-.14.1-.24.28-.31.54l-.6-.08c.05-.26.14-.46.27-.62.13-.16.31-.28.54-.37.24-.08.51-.13.82-.13s.56.04.76.11c.19.07.34.16.43.28.09.11.15.25.19.42.02.11.03.29.03.57v.82c0,.57.01.93.04,1.09.03.15.08.3.16.44h-.64c-.06-.13-.1-.28-.12-.45Zm-.05-1.37c-.22.09-.56.17-1,.23-.25.04-.43.08-.54.12-.1.05-.19.11-.24.2s-.09.19-.09.29c0,.16.06.3.19.41.12.11.31.16.54.16s.45-.05.63-.16.32-.25.41-.43c.07-.14.1-.34.1-.62v-.23Z" fill="#251e1c" stroke-width="0"/><path d="m63.36,40.6l.09.54c-.17.04-.33.05-.46.05-.22,0-.4-.04-.52-.11-.12-.07-.21-.16-.26-.28s-.08-.36-.08-.73v-2.09h-.45v-.48h.45v-.9l.61-.37v1.27h.62v.48h-.62v2.12c0,.18.01.29.03.34.02.05.06.09.11.12.05.03.12.04.21.04.07,0,.16,0,.27-.02Z" fill="#251e1c" stroke-width="0"/><path d="m63.97,36.85v-.71h.62v.71h-.62Zm0,4.3v-3.63h.62v3.63h-.62Z" fill="#251e1c" stroke-width="0"/><path d="m65.29,39.34c0-.67.19-1.17.56-1.49.31-.27.69-.4,1.14-.4.5,0,.91.16,1.22.49s.48.78.48,1.36c0,.47-.07.83-.21,1.1-.14.27-.34.48-.61.62-.27.15-.56.22-.88.22-.51,0-.92-.16-1.23-.49-.31-.33-.47-.79-.47-1.41Zm.63,0c0,.46.1.81.3,1.04.2.23.46.35.77.35s.56-.12.76-.35.3-.59.3-1.06c0-.45-.1-.79-.31-1.02-.2-.23-.46-.35-.76-.35s-.56.12-.77.35c-.2.23-.3.58-.3,1.04Z" fill="#251e1c" stroke-width="0"/><path d="m69.41,41.15v-3.63h.55v.52c.27-.4.65-.6,1.16-.6.22,0,.42.04.6.12.18.08.32.18.41.31.09.13.15.28.19.46.02.11.03.31.03.6v2.23h-.62v-2.21c0-.25-.02-.44-.07-.56s-.13-.22-.25-.3c-.12-.07-.27-.11-.43-.11-.26,0-.49.08-.68.25-.19.17-.29.48-.29.95v1.98h-.62Z" fill="#251e1c" stroke-width="0"/><path d="m28.94,49.55v-3.63h.55v.55c.14-.26.27-.43.39-.51.12-.08.25-.12.4-.12.21,0,.42.07.63.2l-.21.57c-.15-.09-.3-.13-.45-.13-.13,0-.26.04-.36.12-.11.08-.18.19-.23.34-.07.22-.1.46-.1.72v1.9h-.62Z" fill="#251e1c" stroke-width="0"/><path d="m33.66,49.55v-.53c-.28.41-.67.62-1.15.62-.21,0-.41-.04-.6-.12-.19-.08-.32-.18-.41-.31-.09-.12-.15-.28-.19-.46-.02-.12-.04-.31-.04-.57v-2.25h.62v2.01c0,.32.01.54.04.65.04.16.12.29.25.38.13.09.28.14.46.14s.36-.05.52-.14c.16-.09.28-.22.34-.39.07-.16.1-.4.1-.71v-1.95h.62v3.63h-.55Z" fill="#251e1c" stroke-width="0"/><path d="m35.17,49.55v-3.63h.55v.52c.27-.4.65-.6,1.16-.6.22,0,.42.04.6.12.18.08.32.18.41.31.09.13.15.28.19.45.02.11.03.31.03.6v2.23h-.62v-2.21c0-.25-.02-.44-.07-.56-.05-.12-.13-.22-.25-.3-.12-.07-.27-.11-.43-.11-.26,0-.49.08-.68.25-.19.17-.29.48-.29.95v1.98h-.62Z" fill="#251e1c" stroke-width="0"/><path d="m39.06,49.55v-3.63h.55v.52c.27-.4.65-.6,1.16-.6.22,0,.42.04.6.12.18.08.32.18.41.31.09.13.15.28.19.45.02.11.03.31.03.6v2.23h-.62v-2.21c0-.25-.02-.44-.07-.56-.05-.12-.13-.22-.25-.3-.12-.07-.27-.11-.43-.11-.26,0-.49.08-.68.25-.19.17-.29.48-.29.95v1.98h-.62Z" fill="#251e1c" stroke-width="0"/><path d="m42.96,45.25v-.71h.62v.71h-.62Zm0,4.3v-3.63h.62v3.63h-.62Z" fill="#251e1c" stroke-width="0"/><path d="m44.51,49.55v-3.63h.55v.52c.27-.4.65-.6,1.16-.6.22,0,.42.04.6.12.18.08.32.18.41.31.09.13.15.28.19.45.02.11.03.31.03.6v2.23h-.62v-2.21c0-.25-.02-.44-.07-.56-.05-.12-.13-.22-.25-.3-.12-.07-.27-.11-.43-.11-.26,0-.49.08-.68.25-.19.17-.29.48-.29.95v1.98h-.62Z" fill="#251e1c" stroke-width="0"/><path d="m48.29,49.85l.6.09c.02.18.09.32.21.4.15.11.36.17.63.17.28,0,.5-.06.66-.17.15-.11.26-.27.31-.48.03-.12.05-.39.04-.79-.27.32-.6.47-1,.47-.5,0-.89-.18-1.16-.54-.27-.36-.41-.79-.41-1.29,0-.35.06-.67.19-.96s.31-.52.55-.68c.24-.16.52-.24.84-.24.43,0,.78.17,1.06.52v-.44h.57v3.14c0,.57-.06.97-.17,1.2-.11.24-.3.42-.55.56-.25.14-.56.21-.92.21-.43,0-.78-.1-1.05-.29-.27-.19-.4-.49-.39-.88Zm.51-2.18c0,.48.09.82.28,1.04s.43.33.71.33.52-.11.71-.33c.19-.22.29-.56.29-1.02s-.1-.78-.3-1c-.2-.23-.43-.34-.71-.34s-.51.11-.7.33c-.19.22-.29.55-.29.99Z" fill="#251e1c" stroke-width="0"/><path d="m54.24,49.55v-3.63h.55v.55c.14-.26.27-.43.39-.51.12-.08.25-.12.4-.12.21,0,.42.07.63.2l-.21.57c-.15-.09-.3-.13-.45-.13-.13,0-.26.04-.36.12-.11.08-.18.19-.23.34-.07.22-.1.46-.1.72v1.9h-.62Z" fill="#251e1c" stroke-width="0"/><path d="m58.94,49.11c-.23.19-.45.33-.66.41-.21.08-.44.12-.68.12-.4,0-.71-.1-.92-.29-.21-.2-.32-.44-.32-.75,0-.18.04-.34.12-.49.08-.15.19-.26.32-.35.13-.09.28-.16.44-.2.12-.03.3-.06.55-.09.5-.06.86-.13,1.1-.21,0-.08,0-.14,0-.16,0-.25-.06-.43-.17-.53-.16-.14-.39-.21-.7-.21-.29,0-.5.05-.64.15-.14.1-.24.28-.31.54l-.6-.08c.05-.26.14-.47.27-.62s.31-.28.54-.37c.24-.08.51-.13.82-.13s.56.04.76.11c.19.07.34.17.43.28s.15.25.19.42c.02.1.03.29.03.57v.82c0,.57.01.93.04,1.08.03.15.08.3.16.44h-.64c-.06-.13-.1-.28-.12-.45Zm-.05-1.37c-.22.09-.56.17-1,.23-.25.04-.43.08-.54.12-.1.04-.19.11-.24.2-.06.09-.09.19-.09.29,0,.16.06.3.19.41.12.11.31.16.54.16s.45-.05.63-.16c.18-.1.32-.25.41-.42.07-.14.1-.34.1-.62v-.23Z" fill="#251e1c" stroke-width="0"/><path d="m60.47,49.55v-3.63h.55v.52c.27-.4.65-.6,1.16-.6.22,0,.42.04.6.12.18.08.32.18.41.31.09.13.15.28.19.45.02.11.03.31.03.6v2.23h-.62v-2.21c0-.25-.02-.44-.07-.56-.05-.12-.13-.22-.25-.3-.12-.07-.27-.11-.43-.11-.26,0-.49.08-.68.25-.19.17-.29.48-.29.95v1.98h-.62Z" fill="#251e1c" stroke-width="0"/><path d="m64.25,49.85l.6.09c.02.18.09.32.21.4.15.11.36.17.63.17.28,0,.5-.06.66-.17.15-.11.26-.27.31-.48.03-.12.05-.39.04-.79-.27.32-.6.47-1,.47-.5,0-.89-.18-1.16-.54-.27-.36-.41-.79-.41-1.29,0-.35.06-.67.19-.96s.31-.52.55-.68c.24-.16.52-.24.84-.24.43,0,.78.17,1.06.52v-.44h.57v3.14c0,.57-.06.97-.17,1.2-.11.24-.3.42-.55.56-.25.14-.56.21-.92.21-.43,0-.78-.1-1.05-.29-.27-.19-.4-.49-.39-.88Zm.51-2.18c0,.48.09.82.28,1.04s.43.33.71.33.52-.11.71-.33c.19-.22.29-.56.29-1.02s-.1-.78-.3-1c-.2-.23-.43-.34-.71-.34s-.51.11-.7.33c-.19.22-.29.55-.29.99Z" fill="#251e1c" stroke-width="0"/><path d="m70.74,48.38l.64.08c-.1.37-.29.66-.56.86s-.62.31-1.04.31c-.53,0-.95-.16-1.26-.49-.31-.33-.47-.79-.47-1.38s.16-1.08.47-1.42c.31-.34.72-.51,1.22-.51s.88.17,1.19.5c.31.33.46.79.46,1.39,0,.04,0,.09,0,.16h-2.71c.02.4.14.7.34.92s.46.32.76.32c.23,0,.42-.06.58-.18.16-.12.29-.31.38-.57Zm-2.02-.99h2.03c-.03-.31-.1-.53-.23-.69-.2-.24-.45-.36-.76-.36-.28,0-.52.09-.71.28-.19.19-.3.44-.32.76Z" fill="#251e1c" stroke-width="0"/><path d="m5.01,77.73H.59v1.65h-.59v-3.97h.59v1.66h4.42v.66Z" fill="#251e1c" stroke-width="0"/><path d="m3.2,75.04c-.67,0-1.17-.19-1.49-.56-.27-.31-.4-.69-.4-1.14,0-.5.16-.91.49-1.22.33-.32.78-.48,1.35-.48.47,0,.83.07,1.1.21.27.14.48.34.62.61.15.27.22.56.22.88,0,.51-.16.92-.49,1.23-.33.31-.8.47-1.41.47Zm0-.63c.46,0,.81-.1,1.04-.3.23-.2.35-.46.35-.77s-.12-.56-.35-.76-.59-.3-1.06-.3c-.45,0-.79.1-1.02.31-.23.2-.35.46-.35.76s.12.56.35.77.58.3,1.04.3Z" fill="#251e1c" stroke-width="0"/><path d="m5.01,70.92H1.38v-.55h.55c-.26-.14-.43-.27-.51-.39-.08-.12-.12-.25-.12-.4,0-.21.07-.42.2-.63l.57.21c-.09.15-.13.3-.13.45,0,.13.04.26.12.36.08.11.19.18.34.23.22.07.46.1.72.1h1.9v.62Z" fill="#251e1c" stroke-width="0"/><path d="m6.4,66.27h-1.78c.13.1.25.23.33.4.09.17.13.35.13.55,0,.43-.17.8-.52,1.11-.34.31-.82.47-1.42.47-.36,0-.69-.06-.98-.19-.29-.13-.51-.31-.66-.55-.15-.24-.22-.5-.22-.79,0-.45.19-.8.57-1.06h-.49v-.55h5.02v.62Zm-3.22,1.9c.47,0,.82-.1,1.05-.29.23-.2.35-.43.35-.7s-.11-.49-.33-.68c-.22-.19-.56-.28-1.01-.28-.48,0-.85.1-1.09.3-.24.2-.37.43-.37.7s.11.49.34.68c.23.19.58.28,1.06.28Z" fill="#251e1c" stroke-width="0"/><path d="m5.01,62.31h-.53c.41.28.62.67.62,1.15,0,.21-.04.41-.12.6-.08.19-.19.32-.31.41-.12.09-.28.15-.46.19-.12.02-.31.04-.57.04H1.38v-.62h2.01c.32,0,.54-.01.65-.04.16-.04.29-.12.38-.25.09-.13.14-.28.14-.46s-.05-.36-.14-.52c-.09-.16-.22-.28-.39-.34-.16-.07-.4-.1-.71-.1h-1.94v-.62h3.63v.55Z" fill="#251e1c" stroke-width="0"/><path d="m3.84,58.31l.08-.64c.37.1.66.29.86.56s.31.62.31,1.04c0,.53-.16.95-.49,1.26-.33.31-.79.47-1.38.47s-1.08-.16-1.42-.47-.51-.72-.51-1.22.17-.88.5-1.19.8-.46,1.39-.46c.04,0,.09,0,.16,0v2.71c.4-.02.7-.14.92-.34s.32-.46.32-.76c0-.23-.06-.42-.18-.58s-.31-.29-.57-.38Zm-.99,2.02v-2.03c-.31.03-.53.1-.69.23-.24.2-.36.45-.36.76,0,.28.09.52.28.71.19.19.44.3.76.32Z" fill="#251e1c" stroke-width="0"/><path d="m6.4,54.95H0v-1.36h.51v.74h5.38v-.74h.51v1.36Z" fill="#251e1c" stroke-width="0"/><path d="m5.01,52.94H0v-.68l3.93-2.63H0v-.64h5.01v.68l-3.94,2.63h3.94v.64Z" fill="#251e1c" stroke-width="0"/><path d="m2.56,48.05c-.24,0-.44-.08-.61-.25-.17-.17-.25-.37-.25-.61s.08-.44.25-.61c.17-.17.37-.25.61-.25s.44.08.61.25.25.37.25.61-.08.44-.25.61c-.17.17-.37.25-.61.25Z" fill="#251e1c" stroke-width="0"/><path d="m5.01,45.51H1.38v-.55h.51c-.18-.11-.32-.27-.43-.45-.11-.19-.16-.4-.16-.65,0-.27.06-.49.17-.66.11-.17.27-.29.47-.36-.42-.29-.64-.66-.64-1.12,0-.36.1-.64.3-.83.2-.19.51-.29.92-.29h2.49v.61h-2.29c-.25,0-.42.02-.53.06-.11.04-.2.11-.26.22s-.1.23-.1.37c0,.26.08.47.25.64.17.17.44.25.82.25h2.11v.62h-2.36c-.27,0-.48.05-.62.15s-.21.26-.21.49c0,.17.05.33.14.48.09.15.22.25.4.32s.43.1.76.1h1.88v.62Z" fill="#251e1c" stroke-width="0"/><path d="m6.4,38.65v1.36h-.51v-.74H.51v.74h-.51v-1.36h6.4Z" fill="#251e1c" stroke-width="0"/><path d="m32.6,97.51l.66.17c-.14.54-.39.96-.75,1.25-.36.29-.8.43-1.33.43s-.98-.11-1.32-.33c-.34-.22-.6-.54-.77-.96s-.26-.86-.26-1.34c0-.52.1-.98.3-1.37.2-.39.48-.68.85-.89.37-.2.77-.3,1.21-.3.5,0,.92.13,1.26.38.34.26.58.61.71,1.08l-.65.15c-.12-.36-.29-.63-.51-.8-.22-.17-.5-.25-.83-.25-.39,0-.71.09-.97.28s-.44.43-.54.74c-.11.31-.16.63-.16.96,0,.43.06.8.19,1.12.12.32.32.56.58.71.26.16.55.24.85.24.37,0,.69-.11.94-.32.26-.21.43-.53.52-.95Z" fill="#251e1c" stroke-width="0"/><path d="m33.77,97.45c0-.67.19-1.17.56-1.49.31-.27.69-.4,1.14-.4.5,0,.91.16,1.22.49.32.33.48.78.48,1.36,0,.47-.07.83-.21,1.1-.14.27-.34.48-.61.62-.27.15-.56.22-.88.22-.51,0-.92-.16-1.23-.49-.31-.33-.47-.79-.47-1.41Zm.63,0c0,.46.1.81.3,1.04.2.23.46.35.77.35s.56-.12.76-.35c.2-.23.3-.59.3-1.06,0-.45-.1-.79-.31-1.02-.2-.23-.46-.35-.76-.35s-.56.12-.77.35c-.2.23-.3.58-.3,1.04Z" fill="#251e1c" stroke-width="0"/><path d="m37.9,99.26v-3.63h.55v.52c.27-.4.65-.6,1.16-.6.22,0,.42.04.6.12.18.08.32.18.41.31.09.13.15.28.19.46.02.11.03.31.03.6v2.23h-.62v-2.21c0-.25-.02-.44-.07-.56s-.13-.22-.25-.3c-.12-.07-.27-.11-.43-.11-.26,0-.49.08-.68.25-.19.17-.29.48-.29.95v1.98h-.62Z" fill="#251e1c" stroke-width="0"/><path d="m43.13,98.71l.09.54c-.17.04-.33.05-.46.05-.22,0-.4-.04-.52-.11-.12-.07-.21-.16-.26-.28-.05-.12-.08-.36-.08-.73v-2.09h-.45v-.48h.45v-.9l.61-.37v1.27h.62v.48h-.62v2.12c0,.18.01.29.03.34.02.05.06.09.11.12.05.03.12.04.21.04.07,0,.16,0,.27-.02Z" fill="#251e1c" stroke-width="0"/><path d="m43.74,94.96v-.71h.62v.71h-.62Zm0,4.3v-3.63h.62v3.63h-.62Z" fill="#251e1c" stroke-width="0"/><path d="m45.29,99.26v-3.63h.55v.52c.27-.4.65-.6,1.16-.6.22,0,.42.04.6.12.18.08.32.18.41.31.09.13.16.28.19.46.02.11.03.31.03.6v2.23h-.62v-2.21c0-.25-.02-.44-.07-.56s-.13-.22-.25-.3c-.12-.07-.26-.11-.43-.11-.26,0-.49.08-.68.25-.19.17-.29.48-.29.95v1.98h-.62Z" fill="#251e1c" stroke-width="0"/><path d="m51.56,99.26v-.53c-.28.41-.67.62-1.15.62-.21,0-.41-.04-.6-.12-.19-.08-.32-.19-.41-.31s-.15-.28-.19-.46c-.03-.12-.04-.31-.04-.57v-2.25h.62v2.01c0,.32.01.54.04.65.04.16.12.29.25.38.12.09.28.14.46.14s.36-.05.52-.14c.16-.09.28-.22.34-.39.07-.16.1-.4.1-.71v-1.94h.62v3.63h-.55Z" fill="#251e1c" stroke-width="0"/><path d="m52.85,97.45c0-.67.19-1.17.56-1.49.31-.27.69-.4,1.14-.4.5,0,.91.16,1.22.49.32.33.48.78.48,1.36,0,.47-.07.83-.21,1.1-.14.27-.34.48-.61.62-.27.15-.56.22-.88.22-.51,0-.92-.16-1.23-.49-.31-.33-.47-.79-.47-1.41Zm.63,0c0,.46.1.81.3,1.04.2.23.46.35.77.35s.56-.12.76-.35c.2-.23.3-.59.3-1.06,0-.45-.1-.79-.31-1.02-.2-.23-.46-.35-.76-.35s-.56.12-.77.35c-.2.23-.3.58-.3,1.04Z" fill="#251e1c" stroke-width="0"/><path d="m59.35,99.26v-.53c-.28.41-.67.62-1.15.62-.21,0-.41-.04-.6-.12-.19-.08-.32-.19-.41-.31s-.15-.28-.19-.46c-.03-.12-.04-.31-.04-.57v-2.25h.62v2.01c0,.32.01.54.04.65.04.16.12.29.25.38.12.09.28.14.46.14s.36-.05.52-.14c.16-.09.28-.22.34-.39.07-.16.1-.4.1-.71v-1.94h.62v3.63h-.55Z" fill="#251e1c" stroke-width="0"/><path d="m60.61,98.18l.61-.1c.03.24.13.43.29.56s.37.2.65.2.49-.06.63-.17.21-.25.21-.41c0-.14-.06-.25-.18-.33-.08-.05-.29-.12-.63-.21-.45-.11-.76-.21-.94-.3-.17-.08-.31-.2-.4-.34-.09-.15-.13-.31-.13-.49,0-.16.04-.31.11-.45.07-.14.18-.25.3-.34.1-.07.23-.13.39-.18s.34-.07.53-.07c.29,0,.54.04.75.12.22.08.38.19.48.33.1.14.17.33.21.56l-.6.08c-.03-.19-.11-.33-.24-.44-.13-.11-.32-.16-.55-.16-.28,0-.48.05-.61.14-.12.09-.18.2-.18.33,0,.08.02.15.08.22.05.07.13.12.24.16.06.02.24.08.54.16.43.12.74.21.91.29.17.07.31.18.41.32.1.14.15.32.15.53s-.06.4-.18.58c-.12.18-.29.32-.52.42-.23.1-.48.15-.77.15-.47,0-.83-.1-1.08-.29-.25-.2-.4-.49-.47-.87Z" fill="#251e1c" stroke-width="0"/><path d="m28.94,107.66v-3.63h.55v.55c.14-.26.27-.43.39-.51.12-.08.25-.12.39-.12.21,0,.42.07.63.2l-.21.57c-.15-.09-.3-.13-.45-.13-.13,0-.26.04-.36.12-.11.08-.18.19-.23.34-.07.22-.1.46-.1.72v1.9h-.62Z" fill="#251e1c" stroke-width="0"/><path d="m33.66,107.66v-.53c-.28.41-.67.62-1.15.62-.21,0-.41-.04-.6-.12-.19-.08-.32-.18-.41-.31-.09-.12-.15-.28-.19-.46-.03-.12-.04-.31-.04-.57v-2.25h.62v2.01c0,.32.01.54.04.65.04.16.12.29.25.38.12.09.28.14.46.14s.36-.05.52-.14c.16-.09.28-.22.34-.39.07-.16.1-.4.1-.71v-1.95h.62v3.63h-.55Z" fill="#251e1c" stroke-width="0"/><path d="m35.17,107.66v-3.63h.55v.52c.27-.4.65-.6,1.16-.6.22,0,.42.04.6.12.18.08.32.18.41.31.09.13.16.28.19.45.02.11.03.31.03.6v2.23h-.62v-2.21c0-.25-.02-.44-.07-.56-.05-.12-.13-.22-.25-.3s-.26-.11-.43-.11c-.26,0-.49.08-.68.25-.19.17-.29.48-.29.95v1.98h-.62Z" fill="#251e1c" stroke-width="0"/><path d="m39.06,107.66v-3.63h.55v.52c.27-.4.65-.6,1.16-.6.22,0,.42.04.6.12.18.08.32.18.41.31.09.13.15.28.19.45.02.11.03.31.03.6v2.23h-.62v-2.21c0-.25-.02-.44-.07-.56-.05-.12-.13-.22-.25-.3-.12-.07-.27-.11-.43-.11-.26,0-.49.08-.68.25-.19.17-.29.48-.29.95v1.98h-.62Z" fill="#251e1c" stroke-width="0"/><path d="m42.96,103.36v-.71h.62v.71h-.62Zm0,4.3v-3.63h.62v3.63h-.62Z" fill="#251e1c" stroke-width="0"/><path d="m44.51,107.66v-3.63h.55v.52c.27-.4.65-.6,1.16-.6.22,0,.42.04.6.12.18.08.32.18.41.31.09.13.15.28.19.45.02.11.03.31.03.6v2.23h-.62v-2.21c0-.25-.02-.44-.07-.56-.05-.12-.13-.22-.25-.3-.12-.07-.27-.11-.43-.11-.26,0-.49.08-.68.25-.19.17-.29.48-.29.95v1.98h-.62Z" fill="#251e1c" stroke-width="0"/><path d="m48.29,107.96l.6.09c.02.18.09.32.21.4.15.11.36.17.63.17.28,0,.5-.06.66-.17.16-.11.26-.27.31-.48.03-.12.05-.39.04-.79-.27.32-.6.47-1,.47-.5,0-.89-.18-1.16-.54-.27-.36-.41-.79-.41-1.29,0-.35.06-.67.19-.96.12-.29.31-.52.54-.68.24-.16.52-.24.84-.24.43,0,.78.17,1.06.52v-.44h.57v3.14c0,.57-.06.97-.17,1.2-.11.24-.3.42-.55.56-.25.14-.56.21-.92.21-.43,0-.78-.1-1.05-.29-.27-.19-.4-.49-.39-.88Zm.51-2.18c0,.48.09.82.28,1.04.19.22.43.33.71.33s.52-.11.71-.33c.19-.22.29-.56.29-1.02s-.1-.78-.3-1c-.2-.23-.43-.34-.71-.34s-.51.11-.7.33c-.19.22-.29.55-.29.99Z" fill="#251e1c" stroke-width="0"/><path d="m54.24,107.66v-3.63h.55v.55c.14-.26.27-.43.39-.51.12-.08.25-.12.4-.12.21,0,.42.07.63.2l-.21.57c-.15-.09-.3-.13-.45-.13-.13,0-.25.04-.36.12-.11.08-.18.19-.23.34-.07.22-.1.46-.1.72v1.9h-.62Z" fill="#251e1c" stroke-width="0"/><path d="m58.94,107.22c-.23.19-.45.33-.66.41-.21.08-.44.12-.68.12-.4,0-.71-.1-.92-.29-.21-.2-.32-.44-.32-.75,0-.18.04-.34.12-.49.08-.15.19-.26.32-.35s.28-.16.44-.2c.12-.03.3-.06.55-.09.5-.06.86-.13,1.1-.21,0-.08,0-.14,0-.16,0-.25-.06-.43-.17-.53-.16-.14-.39-.21-.7-.21-.29,0-.5.05-.64.15-.14.1-.24.28-.31.54l-.6-.08c.05-.26.14-.47.27-.62.13-.16.31-.28.54-.37.24-.08.51-.13.82-.13s.56.04.76.11c.19.07.34.17.43.28.09.11.16.25.19.42.02.1.03.29.03.57v.82c0,.57.01.93.04,1.08s.08.3.16.44h-.64c-.06-.13-.1-.28-.12-.45Zm-.05-1.37c-.22.09-.56.17-1,.23-.25.04-.43.08-.54.12-.1.04-.19.11-.24.2-.06.09-.09.19-.09.29,0,.16.06.3.19.41s.31.16.54.16.45-.05.63-.16c.18-.1.32-.25.41-.42.07-.14.1-.34.1-.62v-.23Z" fill="#251e1c" stroke-width="0"/><path d="m60.47,107.66v-3.63h.55v.52c.27-.4.65-.6,1.16-.6.22,0,.42.04.6.12.18.08.32.18.41.31.09.13.15.28.19.45.02.11.03.31.03.6v2.23h-.62v-2.21c0-.25-.02-.44-.07-.56-.05-.12-.13-.22-.25-.3-.12-.07-.27-.11-.43-.11-.26,0-.49.08-.68.25-.19.17-.29.48-.29.95v1.98h-.62Z" fill="#251e1c" stroke-width="0"/><path d="m64.25,107.96l.6.09c.02.18.09.32.21.4.15.11.36.17.63.17.28,0,.5-.06.66-.17.16-.11.26-.27.31-.48.03-.12.05-.39.04-.79-.27.32-.6.47-1,.47-.5,0-.89-.18-1.16-.54-.27-.36-.41-.79-.41-1.29,0-.35.06-.67.19-.96.12-.29.31-.52.54-.68.24-.16.52-.24.84-.24.43,0,.78.17,1.06.52v-.44h.57v3.14c0,.57-.06.97-.17,1.2-.11.24-.3.42-.55.56-.25.14-.56.21-.92.21-.43,0-.78-.1-1.05-.29-.27-.19-.4-.49-.39-.88Zm.51-2.18c0,.48.09.82.28,1.04.19.22.43.33.71.33s.52-.11.71-.33c.19-.22.29-.56.29-1.02s-.1-.78-.3-1c-.2-.23-.43-.34-.71-.34s-.51.11-.7.33c-.19.22-.29.55-.29.99Z" fill="#251e1c" stroke-width="0"/><path d="m70.74,106.5l.64.08c-.1.37-.29.66-.56.86-.27.21-.62.31-1.04.31-.53,0-.95-.16-1.26-.49-.31-.33-.47-.79-.47-1.38s.16-1.08.47-1.42c.31-.34.72-.51,1.22-.51s.88.17,1.19.5c.31.33.46.79.46,1.39,0,.04,0,.09,0,.16h-2.71c.02.4.14.7.34.92.2.21.46.32.76.32.23,0,.42-.06.58-.18.16-.12.29-.31.38-.57Zm-2.02-.99h2.03c-.03-.31-.11-.53-.23-.69-.2-.24-.45-.36-.76-.36-.28,0-.52.09-.71.28-.19.19-.3.44-.32.76Z" fill="#251e1c" stroke-width="0"/><path d="m48.38,128.13l.63-.05c.03.25.1.46.21.62.11.16.28.29.5.39.23.1.48.15.77.15.25,0,.48-.04.67-.11s.34-.18.43-.31c.09-.13.14-.27.14-.43s-.05-.29-.14-.41c-.09-.12-.24-.22-.45-.3-.13-.05-.43-.13-.89-.24-.46-.11-.78-.21-.97-.31-.24-.13-.42-.28-.54-.47-.12-.19-.18-.39-.18-.62,0-.25.07-.49.22-.71.14-.22.35-.39.63-.5s.58-.17.92-.17c.37,0,.7.06.98.18.28.12.5.3.65.53s.23.5.25.79l-.64.05c-.03-.32-.15-.56-.35-.72-.2-.16-.49-.24-.87-.24s-.69.07-.88.22c-.18.15-.27.32-.27.53,0,.18.06.33.19.44.13.12.46.24,1,.36.54.12.91.23,1.11.32.29.13.51.3.65.51.14.21.21.44.21.71s-.08.52-.23.75c-.15.24-.37.42-.66.55-.29.13-.61.2-.97.2-.45,0-.83-.07-1.14-.2-.31-.13-.55-.33-.72-.6-.17-.27-.27-.57-.28-.9Z" fill="#251e1c" stroke-width="0"/><path d="m53.2,131.13v-5.02h.56v.47c.13-.18.28-.32.45-.42.17-.09.37-.14.6-.14.31,0,.58.08.82.24s.42.38.54.67c.12.29.18.61.18.96,0,.37-.07.71-.2,1-.13.3-.33.52-.58.68-.25.16-.52.24-.8.24-.21,0-.39-.04-.55-.13-.16-.09-.3-.2-.4-.33v1.77h-.62Zm.56-3.19c0,.47.09.81.28,1.04s.42.33.69.33.51-.12.7-.35c.2-.23.29-.59.29-1.08s-.1-.81-.29-1.04c-.19-.23-.42-.35-.68-.35s-.49.12-.7.37c-.2.24-.3.6-.3,1.07Z" fill="#251e1c" stroke-width="0"/><path d="m59.57,128.57l.64.08c-.1.37-.29.66-.56.86s-.62.31-1.04.31c-.53,0-.95-.16-1.26-.49-.31-.33-.47-.79-.47-1.38s.16-1.08.47-1.42.72-.51,1.22-.51.88.17,1.19.5.46.8.46,1.39c0,.04,0,.09,0,.16h-2.71c.02.4.14.7.34.92s.46.32.76.32c.23,0,.42-.06.58-.18s.29-.31.38-.57Zm-2.02-.99h2.03c-.03-.31-.1-.53-.23-.69-.2-.24-.45-.36-.76-.36-.28,0-.52.09-.71.28-.19.19-.3.44-.32.76Z" fill="#251e1c" stroke-width="0"/><path d="m63.47,128.57l.64.08c-.1.37-.29.66-.56.86s-.62.31-1.04.31c-.53,0-.95-.16-1.26-.49-.31-.33-.47-.79-.47-1.38s.16-1.08.47-1.42.72-.51,1.22-.51.88.17,1.19.5.46.8.46,1.39c0,.04,0,.09,0,.16h-2.71c.02.4.14.7.34.92s.46.32.76.32c.23,0,.42-.06.58-.18s.29-.31.38-.57Zm-2.02-.99h2.03c-.03-.31-.1-.53-.23-.69-.2-.24-.45-.36-.76-.36-.28,0-.52.09-.71.28-.19.19-.3.44-.32.76Z" fill="#251e1c" stroke-width="0"/><path d="m67.23,129.74v-.46c-.23.36-.57.54-1.02.54-.29,0-.56-.08-.8-.24-.24-.16-.43-.38-.56-.67-.13-.29-.2-.61-.2-.99s.06-.69.18-.99c.12-.29.3-.52.54-.68s.51-.24.81-.24c.22,0,.41.05.58.14.17.09.31.21.42.36v-1.8h.61v5.01h-.57Zm-1.94-1.81c0,.46.1.81.29,1.04s.43.35.69.35.5-.11.69-.33c.19-.22.28-.56.28-1.01,0-.5-.1-.86-.29-1.09s-.43-.35-.71-.35-.5.11-.69.33c-.18.22-.28.58-.28,1.06Z" fill="#251e1c" stroke-width="0"/><path d="m70.73,131.13v-6.4h1.36v.51h-.74v5.38h.74v.51h-1.36Z" fill="#251e1c" stroke-width="0"/><path d="m72.65,129.74v-3.63h.55v.55c.14-.26.27-.43.39-.51.12-.08.25-.12.4-.12.21,0,.42.07.63.2l-.21.57c-.15-.09-.3-.13-.45-.13-.13,0-.26.04-.36.12-.11.08-.18.19-.23.34-.07.22-.1.46-.1.72v1.9h-.62Z" fill="#251e1c" stroke-width="0"/><path d="m74.53,129.82l1.45-5.18h.49l-1.45,5.18h-.5Z" fill="#251e1c" stroke-width="0"/><path d="m76.93,129.74v-3.63h.55v.51c.11-.18.27-.32.45-.43.19-.11.4-.16.65-.16.27,0,.49.06.66.17.17.11.29.27.36.47.29-.42.66-.64,1.12-.64.36,0,.64.1.83.3.19.2.29.51.29.92v2.49h-.61v-2.29c0-.25-.02-.42-.06-.53-.04-.11-.11-.2-.22-.26s-.23-.1-.37-.1c-.26,0-.47.08-.64.25-.17.17-.25.44-.25.81v2.11h-.62v-2.36c0-.27-.05-.48-.15-.62s-.26-.21-.49-.21c-.17,0-.33.05-.48.14-.15.09-.25.22-.32.4s-.1.43-.1.76v1.88h-.62Z" fill="#251e1c" stroke-width="0"/><path d="m82.77,125.43v-.71h.62v.71h-.62Zm0,4.3v-3.63h.62v3.63h-.62Z" fill="#251e1c" stroke-width="0"/><path d="m84.32,129.74v-3.63h.55v.52c.27-.4.65-.6,1.16-.6.22,0,.42.04.6.12.18.08.32.18.41.31s.15.28.19.45c.02.11.03.31.03.6v2.23h-.62v-2.21c0-.25-.02-.44-.07-.56-.05-.12-.13-.22-.25-.3-.12-.07-.27-.11-.43-.11-.26,0-.49.08-.68.25-.19.17-.29.48-.29.95v1.98h-.62Z" fill="#251e1c" stroke-width="0"/><path d="m89.24,131.13h-1.36v-.51h.74v-5.38h-.74v-.51h1.36v6.4Z" fill="#251e1c" stroke-width="0"/></svg>