<svg xmlns="http://www.w3.org/2000/svg" viewBox="0 0 113.06 131.42"><defs><style>.cls-1,.cls-2,.cls-5,.cls-6,.繝医Ν繧ｯ繧ｰ繝ｩ繝廟繧ｰ繝ｬ繝ｼ邱{fill:none;}.cls-1,.繝医Ν繧ｯ繧ｰ繝ｩ繝廟繧ｰ繝ｬ繝ｼ邱{stroke:#9fa0a0;}.cls-1,.cls-6{stroke-miterlimit:10;}.cls-1{stroke-width:1px;stroke-dasharray:3.1 1.5;}.cls-2,.cls-5,.cls-6{stroke:#231815;}.cls-2{stroke-linejoin:round;stroke-width:0.14px;}.繝医Ν繧ｯ繧ｰ繝ｩ繝廟繧ｰ繝ｬ繝ｼ邱{stroke-width:3px;}.cls-3{fill:#231815;}.cls-4{fill:#fff;}.cls-6{stroke-width:0.5px;fill-rule:evenodd;}</style></defs><g id="Illust"><line class="cls-1" x1="86.89" y1="100.83" x2="86.89" y2="115.56"/><line class="cls-2" x1="18.44" y1="101.14" x2="107.6" y2="101.14"/><line class="cls-2" x1="18.44" y1="87" x2="107.6" y2="87"/><line class="cls-2" x1="18.44" y1="72.85" x2="107.6" y2="72.85"/><line class="cls-2" x1="18.44" y1="58.76" x2="107.6" y2="58.76"/><line class="cls-2" x1="18.44" y1="44.61" x2="107.6" y2="44.61"/><line class="cls-2" x1="18.44" y1="30.47" x2="107.6" y2="30.47"/><line class="cls-2" x1="18.44" y1="16.38" x2="107.6" y2="16.38"/><line class="cls-2" x1="48.21" y1="2.23" x2="48.21" y2="115.53"/><line class="cls-2" x1="77.96" y1="2.23" x2="77.96" y2="115.53"/><polyline class="繝医Ν繧ｯ繧ｰ繝ｩ繝廟繧ｰ繝ｬ繝ｼ邱" points="18.45 36.55 63.08 36.55 108.97 75.31"/><polyline class="繝医Ν繧ｯ繧ｰ繝ｩ繝廟繧ｰ繝ｬ繝ｼ邱" points="18.45 92.75 25.88 92.75 33.33 92.75 48.2 92.75 63.08 92.75 77.97 98.36 92.83 101.77 107.72 103.97"/><path class="cls-3" d="M17.24,141.39a3.23,3.23,0,0,1,.13-1,1.33,1.33,0,0,1,.39-.59,1,1,0,0,1,.65-.21,1.12,1.12,0,0,1,.5.11.9.9,0,0,1,.36.34,1.73,1.73,0,0,1,.22.53,3.25,3.25,0,0,1,.08.85,3.18,3.18,0,0,1-.13,1,1.22,1.22,0,0,1-.38.6,1.1,1.1,0,0,1-1.47-.16A2.39,2.39,0,0,1,17.24,141.39Zm.45,0a2.23,2.23,0,0,0,.21,1.17.6.6,0,0,0,.51.29.62.62,0,0,0,.51-.29,3.55,3.55,0,0,0,0-2.35.63.63,0,0,0-.52-.29.56.56,0,0,0-.48.26A2.26,2.26,0,0,0,17.69,141.39Z" transform="translate(0.01 -21.92)"/><path class="cls-3" d="M45.13,142.73v.42H42.76a.94.94,0,0,1,.05-.3,1.62,1.62,0,0,1,.29-.48,4,4,0,0,1,.58-.54,4.87,4.87,0,0,0,.79-.76,1,1,0,0,0,.2-.53.58.58,0,0,0-.19-.44.65.65,0,0,0-.48-.18.67.67,0,0,0-.51.19.7.7,0,0,0-.19.53l-.46,0a1.16,1.16,0,0,1,.35-.77,1.21,1.21,0,0,1,.82-.26,1.13,1.13,0,0,1,.81.28.94.94,0,0,1,.3.71A1.06,1.06,0,0,1,45,141a1.33,1.33,0,0,1-.29.44,7.63,7.63,0,0,1-.67.63,5.24,5.24,0,0,0-.51.45,1.33,1.33,0,0,0-.19.24Z" transform="translate(0.01 -21.92)"/><path class="cls-3" d="M45.63,141.39a3.23,3.23,0,0,1,.13-1,1.33,1.33,0,0,1,.39-.59,1,1,0,0,1,.65-.21,1.12,1.12,0,0,1,.5.11,1,1,0,0,1,.36.34,1.73,1.73,0,0,1,.22.53,3.25,3.25,0,0,1,.08.85,3.18,3.18,0,0,1-.13,1,1.22,1.22,0,0,1-.38.6,1,1,0,0,1-.65.21,1,1,0,0,1-.82-.37A2.39,2.39,0,0,1,45.63,141.39Zm.45,0a2.23,2.23,0,0,0,.21,1.17.58.58,0,0,0,1,0,3.39,3.39,0,0,0,0-2.35.61.61,0,0,0-.51-.29.56.56,0,0,0-.48.26A2.17,2.17,0,0,0,46.08,141.39Z" transform="translate(0.01 -21.92)"/><path class="cls-3" d="M48.38,141.39a3.23,3.23,0,0,1,.13-1,1.33,1.33,0,0,1,.39-.59,1,1,0,0,1,.65-.21,1.12,1.12,0,0,1,.5.11.9.9,0,0,1,.36.34,1.73,1.73,0,0,1,.22.53,3.25,3.25,0,0,1,.08.85,3.18,3.18,0,0,1-.13,1,1.22,1.22,0,0,1-.38.6,1.1,1.1,0,0,1-1.47-.16A2.39,2.39,0,0,1,48.38,141.39Zm.45,0a2.23,2.23,0,0,0,.21,1.17.6.6,0,0,0,.51.29.62.62,0,0,0,.51-.29,3.55,3.55,0,0,0,0-2.35.63.63,0,0,0-.52-.29.56.56,0,0,0-.48.26A2.26,2.26,0,0,0,48.83,141.39Z" transform="translate(0.01 -21.92)"/><path class="cls-3" d="M51.19,141.39a3.23,3.23,0,0,1,.13-1,1.33,1.33,0,0,1,.39-.59,1,1,0,0,1,.65-.21,1.12,1.12,0,0,1,.5.11.9.9,0,0,1,.36.34,1.51,1.51,0,0,1,.22.53,3.25,3.25,0,0,1,.08.85,3.18,3.18,0,0,1-.13,1,1.22,1.22,0,0,1-.38.6,1.1,1.1,0,0,1-1.47-.16A2.39,2.39,0,0,1,51.19,141.39Zm.45,0a2.23,2.23,0,0,0,.21,1.17.6.6,0,0,0,.51.29.62.62,0,0,0,.51-.29,3.55,3.55,0,0,0,0-2.35.63.63,0,0,0-.52-.29.56.56,0,0,0-.48.26A2.26,2.26,0,0,0,51.64,141.39Z" transform="translate(0.01 -21.92)"/><path class="cls-3" d="M74,143.15v-.86H72.44v-.4l1.63-2.32h.36v2.32h.48v.4h-.48v.86Zm0-1.26v-1.61l-1.12,1.61Z" transform="translate(0.01 -21.92)"/><path class="cls-3" d="M75.39,141.39a3.54,3.54,0,0,1,.13-1,1.33,1.33,0,0,1,.39-.59,1,1,0,0,1,.65-.21,1.12,1.12,0,0,1,.5.11.9.9,0,0,1,.36.34,1.73,1.73,0,0,1,.23.53,3.76,3.76,0,0,1,.08.85,3.49,3.49,0,0,1-.13,1,1.31,1.31,0,0,1-.39.6,1,1,0,0,1-.65.21,1,1,0,0,1-.81-.37A2.32,2.32,0,0,1,75.39,141.39Zm.45,0a2.23,2.23,0,0,0,.21,1.17.59.59,0,0,0,1,0,3.55,3.55,0,0,0,0-2.35.63.63,0,0,0-.52-.29.56.56,0,0,0-.48.26A2.26,2.26,0,0,0,75.84,141.39Z" transform="translate(0.01 -21.92)"/><path class="cls-3" d="M78.14,141.39a3.54,3.54,0,0,1,.13-1,1.33,1.33,0,0,1,.39-.59,1,1,0,0,1,.65-.21,1.19,1.19,0,0,1,.51.11,1,1,0,0,1,.35.34,1.73,1.73,0,0,1,.23.53,3.76,3.76,0,0,1,.08.85,3.49,3.49,0,0,1-.13,1,1.31,1.31,0,0,1-.39.6,1,1,0,0,1-.65.21,1,1,0,0,1-.81-.37A2.32,2.32,0,0,1,78.14,141.39Zm.45,0a2.23,2.23,0,0,0,.21,1.17.59.59,0,0,0,1,0,3.39,3.39,0,0,0,0-2.35.63.63,0,0,0-.52-.29.56.56,0,0,0-.48.26A2.26,2.26,0,0,0,78.59,141.39Z" transform="translate(0.01 -21.92)"/><path class="cls-3" d="M81,141.39a3.54,3.54,0,0,1,.13-1,1.33,1.33,0,0,1,.39-.59,1,1,0,0,1,.65-.21,1.19,1.19,0,0,1,.51.11A1,1,0,0,1,83,140a1.73,1.73,0,0,1,.23.53,3.76,3.76,0,0,1,.08.85,3.49,3.49,0,0,1-.13,1,1.31,1.31,0,0,1-.39.6,1,1,0,0,1-.65.21,1,1,0,0,1-.81-.37A2.32,2.32,0,0,1,81,141.39Zm.46,0a2.25,2.25,0,0,0,.2,1.17.59.59,0,0,0,1,0,3.39,3.39,0,0,0,0-2.35.62.62,0,0,0-.51-.29.57.57,0,0,0-.49.26A2.28,2.28,0,0,0,81.41,141.39Z" transform="translate(0.01 -21.92)"/><path class="cls-3" d="M104.63,140.45l-.44,0a.8.8,0,0,0-.17-.37.56.56,0,0,0-.44-.19.67.67,0,0,0-.37.11,1.11,1.11,0,0,0-.32.45,2.41,2.41,0,0,0-.13.82,1,1,0,0,1,.39-.35,1,1,0,0,1,.48-.12,1,1,0,0,1,.75.32,1.16,1.16,0,0,1,.31.84,1.32,1.32,0,0,1-.15.62,1,1,0,0,1-.4.45,1.08,1.08,0,0,1-.57.15,1.12,1.12,0,0,1-.9-.4,2.06,2.06,0,0,1-.34-1.33,2.34,2.34,0,0,1,.38-1.51,1.08,1.08,0,0,1,.9-.41,1,1,0,0,1,1,.89Zm-1.8,1.54a1,1,0,0,0,.1.44.68.68,0,0,0,.27.31.66.66,0,0,0,.36.11.61.61,0,0,0,.48-.22.92.92,0,0,0,.2-.62.83.83,0,0,0-.2-.58.66.66,0,0,0-.5-.21.69.69,0,0,0-.5.21A.76.76,0,0,0,102.83,142Z" transform="translate(0.01 -21.92)"/><path class="cls-3" d="M105.16,141.39a3.23,3.23,0,0,1,.13-1,1.24,1.24,0,0,1,.38-.59,1,1,0,0,1,.65-.21,1.19,1.19,0,0,1,.51.11,1.06,1.06,0,0,1,.36.34,1.73,1.73,0,0,1,.22.53,3.76,3.76,0,0,1,.08.85,3.18,3.18,0,0,1-.13,1,1.23,1.23,0,0,1-.39.6,1.09,1.09,0,0,1-1.46-.16A2.33,2.33,0,0,1,105.16,141.39Zm.45,0a2.36,2.36,0,0,0,.2,1.17.59.59,0,0,0,1,0,3.39,3.39,0,0,0,0-2.35.62.62,0,0,0-.51-.29.56.56,0,0,0-.48.26A2.17,2.17,0,0,0,105.61,141.39Z" transform="translate(0.01 -21.92)"/><path class="cls-3" d="M107.91,141.39a3.23,3.23,0,0,1,.13-1,1.18,1.18,0,0,1,.39-.59,1,1,0,0,1,.64-.21,1.16,1.16,0,0,1,.51.11,1.06,1.06,0,0,1,.36.34,1.73,1.73,0,0,1,.22.53,3.76,3.76,0,0,1,.08.85,3.18,3.18,0,0,1-.13,1,1.17,1.17,0,0,1-.39.6,1.09,1.09,0,0,1-1.46-.16A2.33,2.33,0,0,1,107.91,141.39Zm.45,0a2.36,2.36,0,0,0,.2,1.17.62.62,0,0,0,.51.29.6.6,0,0,0,.51-.29,3.39,3.39,0,0,0,0-2.35.61.61,0,0,0-.51-.29.56.56,0,0,0-.48.26A2.17,2.17,0,0,0,108.36,141.39Z" transform="translate(0.01 -21.92)"/><path class="cls-3" d="M110.72,141.39a3.23,3.23,0,0,1,.13-1,1.18,1.18,0,0,1,.39-.59,1,1,0,0,1,.64-.21,1.13,1.13,0,0,1,.51.11,1.06,1.06,0,0,1,.36.34,1.73,1.73,0,0,1,.22.53,3.76,3.76,0,0,1,.08.85,3.18,3.18,0,0,1-.13,1,1.22,1.22,0,0,1-.38.6,1,1,0,0,1-.66.21,1,1,0,0,1-.81-.37A2.39,2.39,0,0,1,110.72,141.39Zm.45,0a2.23,2.23,0,0,0,.21,1.17.58.58,0,0,0,1,0,3.39,3.39,0,0,0,0-2.35.61.61,0,0,0-.51-.29.56.56,0,0,0-.48.26A2.17,2.17,0,0,0,111.17,141.39Z" transform="translate(0.01 -21.92)"/><rect class="cls-4" x="15.6" y="2.18" width="2.83" height="113.39"/><path class="cls-3" d="M10.23,137.06a3.2,3.2,0,0,1,.13-1,1.28,1.28,0,0,1,.39-.59,1.14,1.14,0,0,1,1.15-.1.9.9,0,0,1,.36.34,1.73,1.73,0,0,1,.22.53,4.23,4.23,0,0,1-.05,1.86,1.22,1.22,0,0,1-.38.6,1.1,1.1,0,0,1-1.47-.16A2.41,2.41,0,0,1,10.23,137.06Zm.45,0a2.25,2.25,0,0,0,.21,1.18.6.6,0,0,0,.51.29.62.62,0,0,0,.51-.29,2.38,2.38,0,0,0,.2-1.18,2.34,2.34,0,0,0-.2-1.17.63.63,0,0,0-.52-.29.56.56,0,0,0-.48.26A2.24,2.24,0,0,0,10.68,137.06Z" transform="translate(0.01 -21.92)"/><path class="cls-3" d="M13.29,138.83v-.5h.5v.5Z" transform="translate(0.01 -21.92)"/><path class="cls-3" d="M14.43,137.06a3.52,3.52,0,0,1,.13-1,1.28,1.28,0,0,1,.39-.59,1,1,0,0,1,.65-.21.95.95,0,0,1,.87.45,2,2,0,0,1,.22.53,3.72,3.72,0,0,1,.08.84,3.2,3.2,0,0,1-.13,1,1.31,1.31,0,0,1-.39.6,1,1,0,0,1-.65.21,1,1,0,0,1-.81-.37A2.33,2.33,0,0,1,14.43,137.06Zm.46,0a2.27,2.27,0,0,0,.2,1.18.59.59,0,0,0,1,0,2.25,2.25,0,0,0,.21-1.18,2.2,2.2,0,0,0-.21-1.17.62.62,0,0,0-.51-.29.57.57,0,0,0-.49.26A2.26,2.26,0,0,0,14.89,137.06Z" transform="translate(0.01 -21.92)"/><path class="cls-3" d="M12.54,124.28v.42H10.17a1,1,0,0,1,.05-.3,1.76,1.76,0,0,1,.29-.48,6.66,6.66,0,0,1,.58-.54,4.87,4.87,0,0,0,.79-.76.92.92,0,0,0,.2-.53.6.6,0,0,0-.18-.44.69.69,0,0,0-.49-.18.73.73,0,0,0-.51.19.72.72,0,0,0-.19.53l-.45,0a1.1,1.1,0,0,1,.35-.78,1.21,1.21,0,0,1,.81-.26,1.13,1.13,0,0,1,.81.29.92.92,0,0,1,.3.7,1.26,1.26,0,0,1-.08.43,1.69,1.69,0,0,1-.3.43,5.45,5.45,0,0,1-.67.63A5.24,5.24,0,0,0,11,124a1.33,1.33,0,0,0-.19.24Z" transform="translate(0.01 -21.92)"/><path class="cls-3" d="M13.29,124.7v-.5h.5v.5Z" transform="translate(0.01 -21.92)"/><path class="cls-3" d="M14.43,122.94a3.52,3.52,0,0,1,.13-1,1.31,1.31,0,0,1,.39-.6,1,1,0,0,1,.65-.21,1.07,1.07,0,0,1,.51.12.94.94,0,0,1,.36.33,2.17,2.17,0,0,1,.22.53,3.76,3.76,0,0,1,.08.85,3.2,3.2,0,0,1-.13,1,1.33,1.33,0,0,1-.39.59,1,1,0,0,1-.65.21,1,1,0,0,1-.81-.37A2.3,2.3,0,0,1,14.43,122.94Zm.46,0a2.2,2.2,0,0,0,.2,1.17.59.59,0,0,0,1,0,2.2,2.2,0,0,0,.21-1.17,2.25,2.25,0,0,0-.21-1.18.62.62,0,0,0-.51-.29.57.57,0,0,0-.49.26A2.3,2.3,0,0,0,14.89,122.94Z" transform="translate(0.01 -21.92)"/><path class="cls-3" d="M11.64,110.57v-.85H10.09v-.41L11.72,107h.36v2.32h.48v.41h-.48v.85Zm0-1.26V107.7l-1.12,1.61Z" transform="translate(0.01 -21.92)"/><path class="cls-3" d="M13.29,110.57v-.5h.5v.5Z" transform="translate(0.01 -21.92)"/><path class="cls-3" d="M14.43,108.81a3.52,3.52,0,0,1,.13-1,1.31,1.31,0,0,1,.39-.6,1,1,0,0,1,.65-.21,1.07,1.07,0,0,1,.51.12.94.94,0,0,1,.36.33,2.17,2.17,0,0,1,.22.53,3.76,3.76,0,0,1,.08.85,3.2,3.2,0,0,1-.13,1,1.33,1.33,0,0,1-.39.59,1,1,0,0,1-.65.22,1,1,0,0,1-.81-.38A2.3,2.3,0,0,1,14.43,108.81Zm.46,0a2.2,2.2,0,0,0,.2,1.17.59.59,0,0,0,1,0,2.2,2.2,0,0,0,.21-1.17,2.25,2.25,0,0,0-.21-1.18.62.62,0,0,0-.51-.29.57.57,0,0,0-.49.26A2.3,2.3,0,0,0,14.89,108.81Z" transform="translate(0.01 -21.92)"/><path class="cls-3" d="M12.51,93.75l-.44,0a.9.9,0,0,0-.16-.38.6.6,0,0,0-.44-.18.65.65,0,0,0-.37.11,1,1,0,0,0-.33.45,2.18,2.18,0,0,0-.12.82,1,1,0,0,1,.38-.36,1.21,1.21,0,0,1,.49-.11,1,1,0,0,1,.74.32,1.15,1.15,0,0,1,.31.84,1.44,1.44,0,0,1-.14.62,1.1,1.1,0,0,1-.4.45,1.11,1.11,0,0,1-.58.15,1.15,1.15,0,0,1-.89-.4,2.07,2.07,0,0,1-.35-1.34,2.44,2.44,0,0,1,.38-1.51,1.13,1.13,0,0,1,.9-.41,1,1,0,0,1,.7.24A1,1,0,0,1,12.51,93.75Zm-1.8,1.54a1,1,0,0,0,.1.43.78.78,0,0,0,.27.32.72.72,0,0,0,.36.11.62.62,0,0,0,.48-.23.85.85,0,0,0,.2-.61.83.83,0,0,0-.19-.58.68.68,0,0,0-.5-.22.7.7,0,0,0-.51.22A.76.76,0,0,0,10.71,95.29Z" transform="translate(0.01 -21.92)"/><path class="cls-3" d="M13.29,96.45V96h.5v.5Z" transform="translate(0.01 -21.92)"/><path class="cls-3" d="M14.43,94.68a3.52,3.52,0,0,1,.13-1,1.31,1.31,0,0,1,.39-.6,1,1,0,0,1,.65-.21,1.07,1.07,0,0,1,.51.12,1.13,1.13,0,0,1,.36.33,2.25,2.25,0,0,1,.22.54,3.72,3.72,0,0,1,.08.84,3.2,3.2,0,0,1-.13,1,1.31,1.31,0,0,1-.39.6,1,1,0,0,1-.65.21,1,1,0,0,1-.81-.37A2.33,2.33,0,0,1,14.43,94.68Zm.46,0a2.27,2.27,0,0,0,.2,1.18.59.59,0,0,0,1,0,2.25,2.25,0,0,0,.21-1.18,2.18,2.18,0,0,0-.21-1.17.62.62,0,0,0-.51-.29.56.56,0,0,0-.49.25A2.33,2.33,0,0,0,14.89,94.68Z" transform="translate(0.01 -21.92)"/><path class="cls-3" d="M10.91,80.38a.8.8,0,0,1-.41-.29.72.72,0,0,1-.13-.44.87.87,0,0,1,.28-.66,1.19,1.19,0,0,1,1.5,0,.88.88,0,0,1,.29.66.75.75,0,0,1-.13.43.82.82,0,0,1-.4.29,1,1,0,0,1,.5.34.93.93,0,0,1,.17.58,1.06,1.06,0,0,1-.32.77,1.18,1.18,0,0,1-.86.31,1.17,1.17,0,0,1-.85-.31,1,1,0,0,1-.33-.79.93.93,0,0,1,.18-.58A.9.9,0,0,1,10.91,80.38Zm-.23.91a.94.94,0,0,0,.08.36.59.59,0,0,0,.27.27.72.72,0,0,0,.38.1.73.73,0,0,0,.52-.2.69.69,0,0,0,.2-.52.69.69,0,0,0-.21-.52.71.71,0,0,0-.53-.21.73.73,0,0,0-.51.2A.69.69,0,0,0,10.68,81.29Zm.14-1.66a.57.57,0,0,0,.16.42.57.57,0,0,0,.43.16.54.54,0,0,0,.41-.16.53.53,0,0,0,.16-.39.56.56,0,0,0-.16-.41.63.63,0,0,0-.84,0A.51.51,0,0,0,10.82,79.63Z" transform="translate(0.01 -21.92)"/><path class="cls-3" d="M13.29,82.32v-.5h.5v.5Z" transform="translate(0.01 -21.92)"/><path class="cls-3" d="M14.43,80.55a3.52,3.52,0,0,1,.13-1,1.28,1.28,0,0,1,.39-.59,1,1,0,0,1,.65-.21.95.95,0,0,1,.87.45,2,2,0,0,1,.22.53,3.72,3.72,0,0,1,.08.84,3.2,3.2,0,0,1-.13,1,1.31,1.31,0,0,1-.39.6,1,1,0,0,1-.65.21,1,1,0,0,1-.81-.37A2.33,2.33,0,0,1,14.43,80.55Zm.46,0a2.27,2.27,0,0,0,.2,1.18.59.59,0,0,0,1,0,2.25,2.25,0,0,0,.21-1.18,2.18,2.18,0,0,0-.21-1.17.62.62,0,0,0-.51-.29.55.55,0,0,0-.49.26A2.26,2.26,0,0,0,14.89,80.55Z" transform="translate(0.01 -21.92)"/><path class="cls-3" d="M9.13,68.19H8.69v-2.8a2.56,2.56,0,0,1-.41.31,3.09,3.09,0,0,1-.46.22V65.5a3,3,0,0,0,.64-.42,2,2,0,0,0,.39-.48h.28Z" transform="translate(0.01 -21.92)"/><path class="cls-3" d="M10.29,66.43a3.12,3.12,0,0,1,.13-1,1.31,1.31,0,0,1,.39-.6A1.11,1.11,0,0,1,12,64.72a.82.82,0,0,1,.36.33,1.84,1.84,0,0,1,.22.53,3.25,3.25,0,0,1,.08.85,3.2,3.2,0,0,1-.13,1,1.24,1.24,0,0,1-.38.59,1.1,1.1,0,0,1-1.47-.16A2.37,2.37,0,0,1,10.29,66.43Zm.45,0A2.18,2.18,0,0,0,11,67.6a.58.58,0,0,0,.51.29A.6.6,0,0,0,12,67.6a3.55,3.55,0,0,0,0-2.35.63.63,0,0,0-.52-.29.56.56,0,0,0-.48.26A2.28,2.28,0,0,0,10.74,66.43Z" transform="translate(0.01 -21.92)"/><path class="cls-3" d="M13.29,68.19v-.5h.5v.5Z" transform="translate(0.01 -21.92)"/><path class="cls-3" d="M14.43,66.43a3.42,3.42,0,0,1,.13-1,1.31,1.31,0,0,1,.39-.6,1,1,0,0,1,.65-.21,1.07,1.07,0,0,1,.51.12.94.94,0,0,1,.36.33,2.17,2.17,0,0,1,.22.53,3.76,3.76,0,0,1,.08.85,3.2,3.2,0,0,1-.13,1,1.33,1.33,0,0,1-.39.59,1,1,0,0,1-.65.21,1,1,0,0,1-.81-.37A2.3,2.3,0,0,1,14.43,66.43Zm.46,0a2.2,2.2,0,0,0,.2,1.17.59.59,0,0,0,1,0,3.39,3.39,0,0,0,0-2.35A.62.62,0,0,0,15.6,65a.57.57,0,0,0-.49.26A2.3,2.3,0,0,0,14.89,66.43Z" transform="translate(0.01 -21.92)"/><path class="cls-3" d="M9.13,54.06H8.69v-2.8a2.08,2.08,0,0,1-.41.31,3.09,3.09,0,0,1-.46.22v-.42A3,3,0,0,0,8.46,51a2,2,0,0,0,.39-.48h.28Z" transform="translate(0.01 -21.92)"/><path class="cls-3" d="M12.6,53.64v.42H10.23a1,1,0,0,1,0-.3,1.76,1.76,0,0,1,.29-.48,6.66,6.66,0,0,1,.58-.54,4.87,4.87,0,0,0,.79-.76.92.92,0,0,0,.2-.53A.6.6,0,0,0,12,51a.69.69,0,0,0-.49-.18A.73.73,0,0,0,11,51a.72.72,0,0,0-.19.53l-.45,0a1.1,1.1,0,0,1,.35-.78,1.21,1.21,0,0,1,.81-.26,1.13,1.13,0,0,1,.81.29.92.92,0,0,1,.3.7,1.26,1.26,0,0,1-.08.43,1.69,1.69,0,0,1-.3.43,5.45,5.45,0,0,1-.67.63,5.24,5.24,0,0,0-.51.45,1.33,1.33,0,0,0-.19.24Z" transform="translate(0.01 -21.92)"/><path class="cls-3" d="M13.29,54.06v-.5h.5v.5Z" transform="translate(0.01 -21.92)"/><path class="cls-3" d="M14.43,52.3a3.47,3.47,0,0,1,.13-1,1.31,1.31,0,0,1,.39-.6,1,1,0,0,1,.65-.21,1.07,1.07,0,0,1,.51.12.94.94,0,0,1,.36.33,2.17,2.17,0,0,1,.22.53,3.76,3.76,0,0,1,.08.85,3.2,3.2,0,0,1-.13,1,1.33,1.33,0,0,1-.39.59,1,1,0,0,1-.65.21,1,1,0,0,1-.81-.37A2.3,2.3,0,0,1,14.43,52.3Zm.46,0a2.2,2.2,0,0,0,.2,1.17.59.59,0,0,0,1,0,2.2,2.2,0,0,0,.21-1.17,2.25,2.25,0,0,0-.21-1.18.62.62,0,0,0-.51-.29.57.57,0,0,0-.49.26A2.3,2.3,0,0,0,14.89,52.3Z" transform="translate(0.01 -21.92)"/><path class="cls-3" d="M9.13,39.94H8.69v-2.8a2.07,2.07,0,0,1-.41.3,3.27,3.27,0,0,1-.46.23v-.43a2.37,2.37,0,0,0,.64-.42,1.65,1.65,0,0,0,.39-.48h.28Z" transform="translate(0.01 -21.92)"/><path class="cls-3" d="M11.7,39.94v-.86H10.15v-.4l1.63-2.32h.36v2.32h.48v.4h-.48v.86Zm0-1.26V37.06l-1.12,1.62Z" transform="translate(0.01 -21.92)"/><path class="cls-3" d="M13.29,39.94v-.5h.5v.5Z" transform="translate(0.01 -21.92)"/><path class="cls-3" d="M14.43,38.17a3.52,3.52,0,0,1,.13-1,1.31,1.31,0,0,1,.39-.6,1,1,0,0,1,.65-.21,1.07,1.07,0,0,1,.51.12,1.13,1.13,0,0,1,.36.33,2.25,2.25,0,0,1,.22.54,3.72,3.72,0,0,1,.08.84,3.2,3.2,0,0,1-.13,1,1.31,1.31,0,0,1-.39.6,1,1,0,0,1-.65.21,1,1,0,0,1-.81-.37A2.33,2.33,0,0,1,14.43,38.17Zm.46,0a2.27,2.27,0,0,0,.2,1.18.62.62,0,0,0,.51.29.61.61,0,0,0,.51-.3,2.18,2.18,0,0,0,.21-1.17A2.18,2.18,0,0,0,16.11,37a.6.6,0,0,0-.51-.29.56.56,0,0,0-.49.25A2.33,2.33,0,0,0,14.89,38.17Z" transform="translate(0.01 -21.92)"/><path class="cls-3" d="M9.13,25.51H8.69v-2.8a2.07,2.07,0,0,1-.41.3,2.45,2.45,0,0,1-.46.23v-.42a3,3,0,0,0,.64-.42,2,2,0,0,0,.39-.48h.28Z" transform="translate(0.01 -21.92)"/><path class="cls-3" d="M12.57,22.81l-.44,0a.85.85,0,0,0-.16-.37.58.58,0,0,0-.44-.19.59.59,0,0,0-.37.12,1,1,0,0,0-.33.44,2.24,2.24,0,0,0-.12.83,1,1,0,0,1,.38-.36,1.07,1.07,0,0,1,.49-.12,1,1,0,0,1,.74.32,1.16,1.16,0,0,1,.31.84,1.52,1.52,0,0,1-.14.63,1.07,1.07,0,0,1-.4.44,1.19,1.19,0,0,1-1.47-.25,2,2,0,0,1-.35-1.33,2.42,2.42,0,0,1,.38-1.51,1.13,1.13,0,0,1,.9-.41,1,1,0,0,1,.7.24A1,1,0,0,1,12.57,22.81Zm-1.79,1.54a1.12,1.12,0,0,0,.09.44.75.75,0,0,0,.27.31.63.63,0,0,0,.36.11A.61.61,0,0,0,12,25a.86.86,0,0,0,.2-.61.84.84,0,0,0-.19-.59.67.67,0,0,0-.5-.21.69.69,0,0,0-.51.21A.76.76,0,0,0,10.78,24.35Z" transform="translate(0.01 -21.92)"/><path class="cls-3" d="M13.29,25.51V25h.5v.5Z" transform="translate(0.01 -21.92)"/><path class="cls-3" d="M14.43,23.75a3.42,3.42,0,0,1,.13-1,1.31,1.31,0,0,1,.39-.6,1,1,0,0,1,.65-.21,1.19,1.19,0,0,1,.51.11,1.06,1.06,0,0,1,.36.34,2,2,0,0,1,.22.53,3.76,3.76,0,0,1,.08.85,3.09,3.09,0,0,1-.13,1,1.31,1.31,0,0,1-.39.6,1,1,0,0,1-.65.21,1,1,0,0,1-.81-.37A2.32,2.32,0,0,1,14.43,23.75Zm.46,0a2.23,2.23,0,0,0,.2,1.17.6.6,0,0,0,.51.29.62.62,0,0,0,.51-.29,2.23,2.23,0,0,0,.21-1.17,2.25,2.25,0,0,0-.21-1.18.62.62,0,0,0-.51-.29.57.57,0,0,0-.49.26A2.3,2.3,0,0,0,14.89,23.75Z" transform="translate(0.01 -21.92)"/><polyline class="cls-5" points="18.45 92.75 25.88 92.75 33.33 92.75 48.2 92.75 63.08 92.75 77.97 98.36 92.83 101.77 107.72 103.97"/><polyline class="cls-5" points="18.45 36.55 58.62 36.55 107.72 78.49"/><rect class="cls-4" x="107.73" y="2.18" width="2.83" height="113.39"/><polygon class="cls-6" points="18.44 115.56 107.73 115.56 107.73 2.18 18.44 2.18 18.44 115.56 18.44 115.56"/></g><g id="English"><path class="cls-3" d="M4.64,98.27H.54V99.8H0V96.11H.54v1.54h4.1Z" transform="translate(0.01 -21.92)"/><path class="cls-3" d="M3,95.77a1.72,1.72,0,0,1-1.38-.52,1.57,1.57,0,0,1-.38-1.06,1.51,1.51,0,0,1,.46-1.14,1.74,1.74,0,0,1,1.26-.44,2.22,2.22,0,0,1,1,.2,1.42,1.42,0,0,1,.58.56,1.64,1.64,0,0,1,.21.82,1.48,1.48,0,0,1-.46,1.14A1.82,1.82,0,0,1,3,95.77Zm0-.59a1.41,1.41,0,0,0,1-.28.91.91,0,0,0,.33-.71.89.89,0,0,0-.33-.71,1.43,1.43,0,0,0-1-.28,1.38,1.38,0,0,0-.95.28A.95.95,0,0,0,2,94.9,1.39,1.39,0,0,0,3,95.18Z" transform="translate(0.01 -21.92)"/><path class="cls-3" d="M4.64,92H1.27v-.52h.51a1.31,1.31,0,0,1-.47-.36.61.61,0,0,1-.12-.37,1,1,0,0,1,.19-.58l.53.19a.76.76,0,0,0-.13.42.52.52,0,0,0,.12.34.58.58,0,0,0,.31.21,2.3,2.3,0,0,0,.67.1H4.64Z" transform="translate(0.01 -21.92)"/><path class="cls-3" d="M5.93,87.63H4.28a1,1,0,0,1,.31.37,1.14,1.14,0,0,1,.13.51,1.34,1.34,0,0,1-.48,1A1.9,1.9,0,0,1,2.92,90,2.21,2.21,0,0,1,2,89.8a1.33,1.33,0,0,1-.82-1.25,1.14,1.14,0,0,1,.53-1H1.27v-.51H5.93ZM3,89.39a1.5,1.5,0,0,0,1-.27.81.81,0,0,0,0-1.29A1.46,1.46,0,0,0,3,87.57a1.57,1.57,0,0,0-1,.28.83.83,0,0,0-.34.65.79.79,0,0,0,.32.63A1.56,1.56,0,0,0,3,89.39Z" transform="translate(0.01 -21.92)"/><path class="cls-3" d="M4.64,84h-.5A1.22,1.22,0,0,1,4.72,85a1.31,1.31,0,0,1-.12.56.82.82,0,0,1-.29.38.9.9,0,0,1-.42.18,3.33,3.33,0,0,1-.53,0H1.27V85.6H3.14a3.77,3.77,0,0,0,.6,0,.63.63,0,0,0,.36-.23.75.75,0,0,0,.12-.43.91.91,0,0,0-.13-.48.7.7,0,0,0-.36-.32,1.61,1.61,0,0,0-.65-.1H1.27v-.57H4.64Z" transform="translate(0.01 -21.92)"/><path class="cls-3" d="M3.55,80.24l.08-.59a1.39,1.39,0,0,1,.8.52,1.72,1.72,0,0,1-.17,2.13A1.77,1.77,0,0,1,3,82.74a1.9,1.9,0,0,1-1.32-.44,1.49,1.49,0,0,1-.47-1.14,1.45,1.45,0,0,1,.46-1.1A1.82,1.82,0,0,1,3,79.63H3.1v2.52A1.29,1.29,0,0,0,4,81.83a.92.92,0,0,0,.3-.7.89.89,0,0,0-.17-.54A1.07,1.07,0,0,0,3.55,80.24Zm-.92,1.88V80.23a1.18,1.18,0,0,0-.64.22.88.88,0,0,0-.33.71.9.9,0,0,0,.27.66A1,1,0,0,0,2.63,82.12Z" transform="translate(0.01 -21.92)"/><path class="cls-3" d="M5.93,77.11H0V75.85H.46v.69h5v-.69h.47Z" transform="translate(0.01 -21.92)"/><path class="cls-3" d="M4.64,75.25H0v-.63l3.65-2.44H0v-.59H4.64v.63L1,74.66H4.64Z" transform="translate(0.01 -21.92)"/><path class="cls-3" d="M2.36,70.71a.81.81,0,1,1,.57-1.37.75.75,0,0,1,.24.57.76.76,0,0,1-.24.56A.78.78,0,0,1,2.36,70.71Z" transform="translate(0.01 -21.92)"/><path class="cls-3" d="M4.64,68.35H1.27v-.51h.47a1.34,1.34,0,0,1-.4-.42,1.21,1.21,0,0,1-.15-.6,1.16,1.16,0,0,1,.16-.62.79.79,0,0,1,.43-.33,1.23,1.23,0,0,1-.59-1.05,1.05,1.05,0,0,1,.28-.77,1.2,1.2,0,0,1,.86-.27H4.64v.57H2.52a1.49,1.49,0,0,0-.5.06.42.42,0,0,0-.24.2.64.64,0,0,0-.09.34.79.79,0,0,0,.24.59,1,1,0,0,0,.75.24h2v.57H2.45a.92.92,0,0,0-.57.14.51.51,0,0,0-.19.45.81.81,0,0,0,.13.45.66.66,0,0,0,.37.3,2.08,2.08,0,0,0,.7.09H4.64Z" transform="translate(0.01 -21.92)"/><path class="cls-3" d="M5.93,62v1.26H5.46v-.69h-5v.69H0V62Z" transform="translate(0.01 -21.92)"/><rect class="cls-4" x="19.86" y="59.08" width="48.83" height="16.58"/><path class="cls-3" d="M22.45,85.87l.58-.05a1.32,1.32,0,0,0,.19.57,1,1,0,0,0,.47.36,1.81,1.81,0,0,0,.72.14,1.71,1.71,0,0,0,.62-.11.8.8,0,0,0,.4-.28.66.66,0,0,0,.13-.4.57.57,0,0,0-.13-.38,1,1,0,0,0-.41-.28c-.13,0-.41-.12-.83-.22a4,4,0,0,1-.9-.3,1.26,1.26,0,0,1-.5-.43,1,1,0,0,1-.16-.58,1.24,1.24,0,0,1,.2-.66,1.28,1.28,0,0,1,.58-.46,2.16,2.16,0,0,1,.86-.16,2.34,2.34,0,0,1,.91.17,1.3,1.3,0,0,1,.61.49A1.5,1.5,0,0,1,26,84l-.59,0a1,1,0,0,0-.33-.66,1.24,1.24,0,0,0-.81-.23,1.27,1.27,0,0,0-.81.21.61.61,0,0,0-.26.49.51.51,0,0,0,.18.41,2.52,2.52,0,0,0,.93.34,6.29,6.29,0,0,1,1,.29,1.48,1.48,0,0,1,.6.48,1.14,1.14,0,0,1,.2.66,1.29,1.29,0,0,1-.22.7,1.34,1.34,0,0,1-.61.51,2.11,2.11,0,0,1-.89.18,2.69,2.69,0,0,1-1.06-.18,1.42,1.42,0,0,1-.67-.56A1.57,1.57,0,0,1,22.45,85.87Z" transform="translate(0.01 -21.92)"/><path class="cls-3" d="M26.92,87.36V82.71h.57v1.67a1.28,1.28,0,0,1,1-.46,1.45,1.45,0,0,1,.65.14.88.88,0,0,1,.4.41,1.88,1.88,0,0,1,.12.76v2.13H29.1V85.23a.86.86,0,0,0-.19-.63.68.68,0,0,0-.52-.19.91.91,0,0,0-.48.13.74.74,0,0,0-.32.36,1.66,1.66,0,0,0-.1.62v1.84Z" transform="translate(0.01 -21.92)"/><path class="cls-3" d="M30.33,85.68a1.73,1.73,0,0,1,.52-1.39,1.56,1.56,0,0,1,1.06-.37,1.51,1.51,0,0,1,1.13.45,1.7,1.7,0,0,1,.44,1.26,2.24,2.24,0,0,1-.19,1,1.39,1.39,0,0,1-.57.58,1.63,1.63,0,0,1-.81.21A1.49,1.49,0,0,1,30.76,87,1.79,1.79,0,0,1,30.33,85.68Zm.58,0a1.44,1.44,0,0,0,.29,1,.94.94,0,0,0,1.41,0,1.48,1.48,0,0,0,.29-1,1.4,1.4,0,0,0-.29-1,.94.94,0,0,0-1.41,0A1.42,1.42,0,0,0,30.91,85.68Z" transform="translate(0.01 -21.92)"/><path class="cls-3" d="M34.15,87.36V84h.51v.51A1.41,1.41,0,0,1,35,84a.64.64,0,0,1,.37-.11,1.15,1.15,0,0,1,.59.18l-.2.53a.84.84,0,0,0-.42-.12.51.51,0,0,0-.33.11.65.65,0,0,0-.22.31,2.36,2.36,0,0,0-.09.67v1.76Z" transform="translate(0.01 -21.92)"/><path class="cls-3" d="M37.57,86.85l.08.51a2.47,2.47,0,0,1-.43,0,1.09,1.09,0,0,1-.49-.1.6.6,0,0,1-.24-.26,2.24,2.24,0,0,1-.07-.67V84.44H36V84h.42v-.83l.57-.35V84h.58v.45H37v2a1,1,0,0,0,0,.31.18.18,0,0,0,.1.11.34.34,0,0,0,.19,0A1.33,1.33,0,0,0,37.57,86.85Z" transform="translate(0.01 -21.92)"/><path class="cls-3" d="M37.9,86v-.58h1.76V86Z" transform="translate(0.01 -21.92)"/><path class="cls-3" d="M42.48,87.36v-.42a1.07,1.07,0,0,1-.95.5,1.39,1.39,0,0,1-.74-.22,1.51,1.51,0,0,1-.52-.62,2.07,2.07,0,0,1-.19-.92,2.38,2.38,0,0,1,.17-.91,1.35,1.35,0,0,1,.5-.64,1.43,1.43,0,0,1,.76-.21,1.19,1.19,0,0,1,.54.12,1.17,1.17,0,0,1,.39.34V82.71H43v4.65Zm-1.81-1.68a1.5,1.5,0,0,0,.27,1,.84.84,0,0,0,.65.32.78.78,0,0,0,.63-.31,1.36,1.36,0,0,0,.26-.93,1.6,1.6,0,0,0-.26-1,.84.84,0,0,0-.66-.32.78.78,0,0,0-.63.31A1.47,1.47,0,0,0,40.67,85.68Z" transform="translate(0.01 -21.92)"/><path class="cls-3" d="M46.11,87.36v-.49a1.23,1.23,0,0,1-1.07.57,1.26,1.26,0,0,1-.55-.12A.91.91,0,0,1,44.1,87a1.11,1.11,0,0,1-.17-.43,2.3,2.3,0,0,1,0-.53V84h.57v1.87a2.63,2.63,0,0,0,0,.6.58.58,0,0,0,.23.36.73.73,0,0,0,.43.13,1,1,0,0,0,.48-.13.74.74,0,0,0,.32-.36,1.9,1.9,0,0,0,.09-.66V84h.57v3.37Z" transform="translate(0.01 -21.92)"/><path class="cls-3" d="M47.51,87.36V84H48v.51a1.41,1.41,0,0,1,.36-.47.6.6,0,0,1,.37-.11,1.12,1.12,0,0,1,.58.18l-.19.53a.84.84,0,0,0-.42-.12.51.51,0,0,0-.34.11.58.58,0,0,0-.21.31,2.35,2.35,0,0,0-.1.67v1.76Z" transform="translate(0.01 -21.92)"/><path class="cls-3" d="M51.88,87a2.17,2.17,0,0,1-.61.38,1.81,1.81,0,0,1-.63.11,1.22,1.22,0,0,1-.85-.27.89.89,0,0,1-.3-.7A1,1,0,0,1,49.6,86a1.06,1.06,0,0,1,.3-.33,1.38,1.38,0,0,1,.41-.18,4.17,4.17,0,0,1,.51-.09,5,5,0,0,0,1-.2,1,1,0,0,0,0-.15.67.67,0,0,0-.16-.49,1,1,0,0,0-.65-.19,1.06,1.06,0,0,0-.6.14.83.83,0,0,0-.28.5L49.59,85a1.34,1.34,0,0,1,.25-.58,1,1,0,0,1,.5-.33,2.26,2.26,0,0,1,.77-.12,2,2,0,0,1,.7.1,1,1,0,0,1,.4.25.93.93,0,0,1,.17.39,3.08,3.08,0,0,1,0,.53V86a6.89,6.89,0,0,0,0,1,1.19,1.19,0,0,0,.14.4H52A1.23,1.23,0,0,1,51.88,87Zm-.05-1.28a3.73,3.73,0,0,1-.93.22,2.25,2.25,0,0,0-.5.11.51.51,0,0,0-.22.19.5.5,0,0,0,.09.65.78.78,0,0,0,.51.15,1.28,1.28,0,0,0,.59-.14.89.89,0,0,0,.37-.4,1.41,1.41,0,0,0,.09-.57Z" transform="translate(0.01 -21.92)"/><path class="cls-3" d="M54.55,86.85l.08.51a2.47,2.47,0,0,1-.43,0,1.09,1.09,0,0,1-.49-.1.6.6,0,0,1-.24-.26,2.24,2.24,0,0,1-.07-.67V84.44H53V84h.42v-.83l.57-.35V84h.58v.45H54v2a1,1,0,0,0,0,.31.18.18,0,0,0,.1.11.34.34,0,0,0,.19,0A1.33,1.33,0,0,0,54.55,86.85Z" transform="translate(0.01 -21.92)"/><path class="cls-3" d="M55.11,83.37v-.66h.57v.66Zm0,4V84h.57v3.37Z" transform="translate(0.01 -21.92)"/><path class="cls-3" d="M56.34,85.68a1.73,1.73,0,0,1,.52-1.39,1.56,1.56,0,0,1,1.06-.37,1.51,1.51,0,0,1,1.13.45,1.7,1.7,0,0,1,.44,1.26,2.24,2.24,0,0,1-.19,1,1.39,1.39,0,0,1-.57.58,1.63,1.63,0,0,1-.81.21A1.49,1.49,0,0,1,56.77,87,1.79,1.79,0,0,1,56.34,85.68Zm.58,0a1.5,1.5,0,0,0,.28,1,.93.93,0,0,0,.72.32.89.89,0,0,0,.7-.32,1.48,1.48,0,0,0,.29-1,1.4,1.4,0,0,0-.29-1,.91.91,0,0,0-.7-.32.93.93,0,0,0-.72.32A1.48,1.48,0,0,0,56.92,85.68Z" transform="translate(0.01 -21.92)"/><path class="cls-3" d="M60.16,87.36V84h.52v.48a1.19,1.19,0,0,1,1.07-.55,1.47,1.47,0,0,1,.56.1.89.89,0,0,1,.38.29,1,1,0,0,1,.18.42,3.6,3.6,0,0,1,0,.56v2.07h-.57v-2a1.41,1.41,0,0,0-.07-.52.53.53,0,0,0-.23-.28.88.88,0,0,0-.4-.1,1,1,0,0,0-.63.23,1.14,1.14,0,0,0-.27.88v1.84Z" transform="translate(0.01 -21.92)"/><path class="cls-3" d="M22.58,95.16V91.79h.52v.51a1.41,1.41,0,0,1,.36-.47.6.6,0,0,1,.37-.11,1.12,1.12,0,0,1,.58.18l-.19.53a.84.84,0,0,0-.42-.12.51.51,0,0,0-.34.11.58.58,0,0,0-.21.31,2,2,0,0,0-.1.67v1.76Z" transform="translate(0.01 -21.92)"/><path class="cls-3" d="M27,95.16v-.49a1.23,1.23,0,0,1-1.07.57,1.34,1.34,0,0,1-.56-.12.88.88,0,0,1-.38-.28,1.3,1.3,0,0,1-.18-.43,3.33,3.33,0,0,1,0-.53V91.79h.57v1.87a2.63,2.63,0,0,0,0,.6.61.61,0,0,0,.22.36.76.76,0,0,0,.44.13,1,1,0,0,0,.48-.13.79.79,0,0,0,.32-.36,1.9,1.9,0,0,0,.09-.66V91.79h.57v3.37Z" transform="translate(0.01 -21.92)"/><path class="cls-3" d="M28.37,95.16V91.79h.51v.48A1.21,1.21,0,0,1,30,91.72a1.43,1.43,0,0,1,.56.1,1,1,0,0,1,.39.29,1.13,1.13,0,0,1,.17.42,2.49,2.49,0,0,1,0,.56v2.07h-.57v-2a1.66,1.66,0,0,0-.07-.52.55.55,0,0,0-.24-.28.82.82,0,0,0-.4-.1,1,1,0,0,0-.63.23,1.18,1.18,0,0,0-.26.88v1.84Z" transform="translate(0.01 -21.92)"/><path class="cls-3" d="M32,95.16V91.79h.52v.48a1.19,1.19,0,0,1,1.07-.55,1.47,1.47,0,0,1,.56.1.89.89,0,0,1,.38.29,1,1,0,0,1,.18.42,3.6,3.6,0,0,1,0,.56v2.07h-.57v-2a1.41,1.41,0,0,0-.07-.52.53.53,0,0,0-.23-.28.88.88,0,0,0-.4-.1,1,1,0,0,0-.63.23,1.14,1.14,0,0,0-.27.88v1.84Z" transform="translate(0.01 -21.92)"/><path class="cls-3" d="M35.6,91.17v-.66h.57v.66Zm0,4V91.79h.57v3.37Z" transform="translate(0.01 -21.92)"/><path class="cls-3" d="M37,95.16V91.79h.52v.48a1.19,1.19,0,0,1,1.07-.55,1.47,1.47,0,0,1,.56.1.89.89,0,0,1,.38.29,1,1,0,0,1,.18.42,3.6,3.6,0,0,1,0,.56v2.07h-.57v-2a1.41,1.41,0,0,0-.07-.52.53.53,0,0,0-.23-.28.88.88,0,0,0-.4-.1.92.92,0,0,0-.63.23,1.14,1.14,0,0,0-.27.88v1.84Z" transform="translate(0.01 -21.92)"/><path class="cls-3" d="M40.55,95.44l.56.08a.5.5,0,0,0,.19.38,1,1,0,0,0,.58.16,1,1,0,0,0,.61-.16.79.79,0,0,0,.3-.45,3.76,3.76,0,0,0,0-.73,1.16,1.16,0,0,1-.94.44,1.24,1.24,0,0,1-1.07-.5,1.87,1.87,0,0,1-.38-1.2,2.35,2.35,0,0,1,.17-.89,1.46,1.46,0,0,1,.51-.63,1.35,1.35,0,0,1,.78-.22,1.2,1.2,0,0,1,1,.48v-.41h.53v2.92a2.88,2.88,0,0,1-.16,1.11,1.22,1.22,0,0,1-.51.52,1.74,1.74,0,0,1-.86.19,1.61,1.61,0,0,1-1-.27A.91.91,0,0,1,40.55,95.44Zm.47-2a1.41,1.41,0,0,0,.27,1,.81.81,0,0,0,.66.31.85.85,0,0,0,.66-.3,1.76,1.76,0,0,0,0-1.89.83.83,0,0,0-.66-.31.81.81,0,0,0-.65.31A1.35,1.35,0,0,0,41,93.42Z" transform="translate(0.01 -21.92)"/><path class="cls-3" d="M46.07,95.16V91.79h.52v.51a1.41,1.41,0,0,1,.36-.47.6.6,0,0,1,.37-.11,1.12,1.12,0,0,1,.58.18l-.19.53a.84.84,0,0,0-.42-.12.51.51,0,0,0-.34.11.58.58,0,0,0-.21.31,2,2,0,0,0-.1.67v1.76Z" transform="translate(0.01 -21.92)"/><path class="cls-3" d="M50.44,94.75a2.17,2.17,0,0,1-.61.38,1.9,1.9,0,0,1-.63.11,1.22,1.22,0,0,1-.85-.27.89.89,0,0,1-.3-.7,1,1,0,0,1,.11-.45,1,1,0,0,1,.3-.33,1.28,1.28,0,0,1,.41-.18,4.17,4.17,0,0,1,.51-.09,5,5,0,0,0,1-.2,1,1,0,0,0,0-.15.67.67,0,0,0-.16-.49,1,1,0,0,0-.66-.19,1,1,0,0,0-.59.14.83.83,0,0,0-.28.5l-.56-.08a1.34,1.34,0,0,1,.25-.58,1,1,0,0,1,.5-.33,2.26,2.26,0,0,1,.77-.12,2,2,0,0,1,.7.1,1,1,0,0,1,.4.25.93.93,0,0,1,.17.39A3.08,3.08,0,0,1,51,93v.76a6.89,6.89,0,0,0,0,1,1.19,1.19,0,0,0,.14.4h-.59A1.23,1.23,0,0,1,50.44,94.75Zm0-1.28a3.73,3.73,0,0,1-.93.22,2.25,2.25,0,0,0-.5.11.51.51,0,0,0-.22.19.43.43,0,0,0-.08.27.5.5,0,0,0,.17.38.76.76,0,0,0,.51.15,1.21,1.21,0,0,0,.58-.14.86.86,0,0,0,.38-.4,1.41,1.41,0,0,0,.09-.57Z" transform="translate(0.01 -21.92)"/><path class="cls-3" d="M51.86,95.16V91.79h.51v.48a1.21,1.21,0,0,1,1.07-.55,1.43,1.43,0,0,1,.56.1,1,1,0,0,1,.39.29,1.13,1.13,0,0,1,.17.42,2.49,2.49,0,0,1,0,.56v2.07H54v-2a1.72,1.72,0,0,0-.06-.52.6.6,0,0,0-.24-.28.82.82,0,0,0-.4-.1,1,1,0,0,0-.63.23,1.18,1.18,0,0,0-.26.88v1.84Z" transform="translate(0.01 -21.92)"/><path class="cls-3" d="M55.37,95.44l.55.08a.54.54,0,0,0,.2.38,1,1,0,0,0,.58.16,1.05,1.05,0,0,0,.61-.16.82.82,0,0,0,.29-.45,3.76,3.76,0,0,0,0-.73,1.15,1.15,0,0,1-.93.44,1.28,1.28,0,0,1-1.08-.5,1.93,1.93,0,0,1-.38-1.2,2.18,2.18,0,0,1,.18-.89,1.37,1.37,0,0,1,.5-.63,1.35,1.35,0,0,1,.78-.22,1.22,1.22,0,0,1,1,.48v-.41h.52v2.92a2.7,2.7,0,0,1-.16,1.11,1.14,1.14,0,0,1-.5.52,1.76,1.76,0,0,1-.86.19,1.59,1.59,0,0,1-1-.27A.91.91,0,0,1,55.37,95.44Zm.47-2a1.47,1.47,0,0,0,.26,1,.87.87,0,0,0,1.32,0,1.79,1.79,0,0,0,0-1.89.87.87,0,0,0-.67-.31.79.79,0,0,0-.64.31A1.35,1.35,0,0,0,55.84,93.42Z" transform="translate(0.01 -21.92)"/><path class="cls-3" d="M61.39,94.08l.59.07a1.43,1.43,0,0,1-.51.8,1.57,1.57,0,0,1-1,.29,1.52,1.52,0,0,1-1.17-.46,1.76,1.76,0,0,1-.43-1.27,1.86,1.86,0,0,1,.43-1.32,1.49,1.49,0,0,1,1.14-.47,1.45,1.45,0,0,1,1.11.46A1.82,1.82,0,0,1,62,93.47v.15H59.49a1.26,1.26,0,0,0,.31.85.93.93,0,0,0,.71.3A.86.86,0,0,0,61,94.6,1,1,0,0,0,61.39,94.08Zm-1.87-.93H61.4a1.07,1.07,0,0,0-.22-.63.93.93,0,0,0-1.36-.07A1,1,0,0,0,59.52,93.15Z" transform="translate(0.01 -21.92)"/><rect class="cls-4" x="20.71" y="97.56" width="41.46" height="16.58"/><path class="cls-3" d="M26.08,124.21l.62.16a2,2,0,0,1-.7,1.15,1.91,1.91,0,0,1-1.23.4,2.23,2.23,0,0,1-1.22-.3,1.88,1.88,0,0,1-.72-.89,3.07,3.07,0,0,1-.25-1.25,2.83,2.83,0,0,1,.28-1.27,2,2,0,0,1,.79-.82,2.28,2.28,0,0,1,1.13-.28,1.87,1.87,0,0,1,1.17.36,1.84,1.84,0,0,1,.67,1l-.61.14a1.4,1.4,0,0,0-.47-.74,1.26,1.26,0,0,0-.77-.23,1.45,1.45,0,0,0-.9.26,1.37,1.37,0,0,0-.51.69,2.91,2.91,0,0,0-.14.89,3,3,0,0,0,.17,1,1.37,1.37,0,0,0,.54.66,1.57,1.57,0,0,0,.79.22,1.3,1.3,0,0,0,.87-.3A1.52,1.52,0,0,0,26.08,124.21Z" transform="translate(0.01 -21.92)"/><path class="cls-3" d="M27.17,124.16a1.73,1.73,0,0,1,.52-1.39,1.69,1.69,0,0,1,2.2.08,1.77,1.77,0,0,1,.44,1.26,2.2,2.2,0,0,1-.2,1,1.33,1.33,0,0,1-.57.58,1.6,1.6,0,0,1-.81.21,1.51,1.51,0,0,1-1.14-.45A1.84,1.84,0,0,1,27.17,124.16Zm.59,0a1.44,1.44,0,0,0,.28,1,.91.91,0,0,0,.71.32.93.93,0,0,0,.71-.32,1.48,1.48,0,0,0,.28-1,1.4,1.4,0,0,0-.28-1,.93.93,0,0,0-.71-.32.91.91,0,0,0-.71.32A1.42,1.42,0,0,0,27.76,124.16Z" transform="translate(0.01 -21.92)"/><path class="cls-3" d="M31,125.84v-3.37h.51V123a1.21,1.21,0,0,1,1.07-.55,1.27,1.27,0,0,1,.56.11.89.89,0,0,1,.39.28,1.11,1.11,0,0,1,.17.43,2.34,2.34,0,0,1,0,.55v2.07h-.57v-2a1.66,1.66,0,0,0-.07-.52.65.65,0,0,0-.24-.28.82.82,0,0,0-.4-.1,1,1,0,0,0-.63.23,1.18,1.18,0,0,0-.26.88v1.84Z" transform="translate(0.01 -21.92)"/><path class="cls-3" d="M35.86,125.33l.08.51a2.37,2.37,0,0,1-.43,0,1,1,0,0,1-.48-.1.5.5,0,0,1-.24-.26,1.94,1.94,0,0,1-.07-.67v-1.94H34.3v-.45h.42v-.83l.57-.34v1.17h.57v.45h-.57v2a1.67,1.67,0,0,0,0,.31.22.22,0,0,0,.1.11.37.37,0,0,0,.2,0A1.24,1.24,0,0,0,35.86,125.33Z" transform="translate(0.01 -21.92)"/><path class="cls-3" d="M36.42,121.85v-.66H37v.66Zm0,4v-3.37H37v3.37Z" transform="translate(0.01 -21.92)"/><path class="cls-3" d="M37.86,125.84v-3.37h.52V123a1.19,1.19,0,0,1,1.07-.55,1.3,1.3,0,0,1,.56.11.81.81,0,0,1,.38.28,1,1,0,0,1,.18.43,3.37,3.37,0,0,1,0,.55v2.07H40v-2a1.41,1.41,0,0,0-.07-.52.57.57,0,0,0-.23-.28.88.88,0,0,0-.4-.1,1,1,0,0,0-.63.23,1.14,1.14,0,0,0-.27.88v1.84Z" transform="translate(0.01 -21.92)"/><path class="cls-3" d="M43.69,125.84v-.49a1.25,1.25,0,0,1-1.07.57,1.47,1.47,0,0,1-.56-.11.91.91,0,0,1-.56-.72,3.07,3.07,0,0,1,0-.53v-2.09H42v1.87a4,4,0,0,0,0,.61.6.6,0,0,0,.23.35.67.67,0,0,0,.43.13,1,1,0,0,0,.48-.13.74.74,0,0,0,.32-.36,1.83,1.83,0,0,0,.1-.66v-1.81h.57v3.37Z" transform="translate(0.01 -21.92)"/><path class="cls-3" d="M44.88,124.16a1.73,1.73,0,0,1,.52-1.39,1.69,1.69,0,0,1,2.2.08,1.77,1.77,0,0,1,.44,1.26,2.2,2.2,0,0,1-.2,1,1.33,1.33,0,0,1-.57.58,1.6,1.6,0,0,1-.81.21,1.51,1.51,0,0,1-1.14-.45A1.84,1.84,0,0,1,44.88,124.16Zm.59,0a1.44,1.44,0,0,0,.28,1,.91.91,0,0,0,.71.32.93.93,0,0,0,.71-.32,1.48,1.48,0,0,0,.28-1,1.4,1.4,0,0,0-.28-1,.93.93,0,0,0-.71-.32.91.91,0,0,0-.71.32A1.42,1.42,0,0,0,45.47,124.16Z" transform="translate(0.01 -21.92)"/><path class="cls-3" d="M50.92,125.84v-.49a1.25,1.25,0,0,1-1.07.57,1.47,1.47,0,0,1-.56-.11.91.91,0,0,1-.56-.72,3.07,3.07,0,0,1,0-.53v-2.09h.58v1.87a4,4,0,0,0,0,.61.6.6,0,0,0,.23.35.67.67,0,0,0,.43.13,1,1,0,0,0,.48-.13.74.74,0,0,0,.32-.36,1.83,1.83,0,0,0,.1-.66v-1.81h.57v3.37Z" transform="translate(0.01 -21.92)"/><path class="cls-3" d="M52.09,124.84l.57-.09a.81.81,0,0,0,.26.52.94.94,0,0,0,.61.18.86.86,0,0,0,.58-.16.48.48,0,0,0,.2-.38.34.34,0,0,0-.17-.3,2.32,2.32,0,0,0-.59-.19,5.22,5.22,0,0,1-.87-.28.81.81,0,0,1-.49-.77.87.87,0,0,1,.1-.42,1,1,0,0,1,.28-.32,1.17,1.17,0,0,1,.37-.16,1.53,1.53,0,0,1,.49-.07,1.91,1.91,0,0,1,.7.11,1,1,0,0,1,.44.31,1.31,1.31,0,0,1,.2.52l-.56.08A.66.66,0,0,0,54,123a.89.89,0,0,0-.52-.14.91.91,0,0,0-.56.13.36.36,0,0,0-.17.3.29.29,0,0,0,.07.2.53.53,0,0,0,.22.15l.5.15c.41.11.69.2.85.26a.78.78,0,0,1,.51.79,1,1,0,0,1-.16.54,1,1,0,0,1-.48.39,1.81,1.81,0,0,1-.72.14,1.61,1.61,0,0,1-1-.27A1.34,1.34,0,0,1,52.09,124.84Z" transform="translate(0.01 -21.92)"/><path class="cls-3" d="M22.68,133.64v-3.37h.52v.51a1.41,1.41,0,0,1,.36-.47.6.6,0,0,1,.37-.11,1.12,1.12,0,0,1,.58.18l-.19.53a.84.84,0,0,0-.42-.12.51.51,0,0,0-.34.11.58.58,0,0,0-.21.31,2.09,2.09,0,0,0-.1.67v1.76Z" transform="translate(0.01 -21.92)"/><path class="cls-3" d="M27.06,133.64v-.49a1.23,1.23,0,0,1-1.07.57,1.42,1.42,0,0,1-.55-.11,1,1,0,0,1-.39-.29,1.11,1.11,0,0,1-.17-.43,2.3,2.3,0,0,1,0-.53v-2.09h.57v1.87a2.79,2.79,0,0,0,0,.61.59.59,0,0,0,.22.35.72.72,0,0,0,.44.13,1,1,0,0,0,.48-.13.74.74,0,0,0,.32-.36,1.86,1.86,0,0,0,.09-.66v-1.81h.57v3.37Z" transform="translate(0.01 -21.92)"/><path class="cls-3" d="M28.47,133.64v-3.37H29v.48a1.21,1.21,0,0,1,1.07-.55,1.27,1.27,0,0,1,.56.11.89.89,0,0,1,.39.28,1.11,1.11,0,0,1,.17.43,2.34,2.34,0,0,1,0,.55v2.07h-.57v-2a1.66,1.66,0,0,0-.07-.52.59.59,0,0,0-.24-.28.82.82,0,0,0-.4-.1,1,1,0,0,0-.63.23,1.18,1.18,0,0,0-.26.88v1.84Z" transform="translate(0.01 -21.92)"/><path class="cls-3" d="M32.08,133.64v-3.37h.52v.48a1.19,1.19,0,0,1,1.07-.55,1.3,1.3,0,0,1,.56.11.81.81,0,0,1,.38.28,1,1,0,0,1,.18.43,3.37,3.37,0,0,1,0,.55v2.07h-.57v-2a1.41,1.41,0,0,0-.07-.52.57.57,0,0,0-.23-.28.88.88,0,0,0-.4-.1,1,1,0,0,0-.63.23,1.14,1.14,0,0,0-.27.88v1.84Z" transform="translate(0.01 -21.92)"/><path class="cls-3" d="M35.7,129.65V129h.57v.66Zm0,4v-3.37h.57v3.37Z" transform="translate(0.01 -21.92)"/><path class="cls-3" d="M37.14,133.64v-3.37h.52v.48a1.19,1.19,0,0,1,1.07-.55,1.3,1.3,0,0,1,.56.11.81.81,0,0,1,.38.28,1.12,1.12,0,0,1,.18.43,3.37,3.37,0,0,1,0,.55v2.07h-.57v-2a1.41,1.41,0,0,0-.07-.52.57.57,0,0,0-.23-.28.88.88,0,0,0-.4-.1.94.94,0,0,0-.63.23,1.14,1.14,0,0,0-.27.88v1.84Z" transform="translate(0.01 -21.92)"/><path class="cls-3" d="M40.65,133.92l.56.09a.53.53,0,0,0,.19.37.93.93,0,0,0,.58.16,1,1,0,0,0,.61-.16.76.76,0,0,0,.3-.44,4,4,0,0,0,0-.74,1.16,1.16,0,0,1-.94.44,1.24,1.24,0,0,1-1.07-.5,1.87,1.87,0,0,1-.38-1.2,2.35,2.35,0,0,1,.17-.89,1.46,1.46,0,0,1,.51-.63,1.35,1.35,0,0,1,.78-.22,1.2,1.2,0,0,1,1,.48v-.41h.53v2.92a2.88,2.88,0,0,1-.16,1.11,1.22,1.22,0,0,1-.51.52A1.74,1.74,0,0,1,42,135a1.61,1.61,0,0,1-1-.27A.91.91,0,0,1,40.65,133.92Zm.48-2a1.46,1.46,0,0,0,.26,1,.83.83,0,0,0,.66.3.85.85,0,0,0,.66-.3,1.82,1.82,0,0,0,0-1.89.85.85,0,0,0-1.31,0A1.37,1.37,0,0,0,41.13,131.9Z" transform="translate(0.01 -21.92)"/><path class="cls-3" d="M46.17,133.64v-3.37h.52v.51a1.41,1.41,0,0,1,.36-.47.6.6,0,0,1,.37-.11,1.12,1.12,0,0,1,.58.18l-.19.53a.84.84,0,0,0-.42-.12.51.51,0,0,0-.34.11.58.58,0,0,0-.21.31,2.09,2.09,0,0,0-.1.67v1.76Z" transform="translate(0.01 -21.92)"/><path class="cls-3" d="M50.54,133.23a2.17,2.17,0,0,1-.61.38,1.85,1.85,0,0,1-.63.11,1.22,1.22,0,0,1-.85-.27.89.89,0,0,1-.3-.7,1,1,0,0,1,.11-.45,1.18,1.18,0,0,1,.3-.33,1.28,1.28,0,0,1,.41-.18,4.31,4.31,0,0,1,.5-.09,4.4,4.4,0,0,0,1-.2,1,1,0,0,0,0-.14.68.68,0,0,0-.16-.5,1,1,0,0,0-.66-.19,1,1,0,0,0-.59.14.83.83,0,0,0-.28.5l-.56-.08a1.4,1.4,0,0,1,.25-.58,1,1,0,0,1,.5-.33,2.26,2.26,0,0,1,.77-.12,2,2,0,0,1,.7.1.91.91,0,0,1,.39.25.88.88,0,0,1,.18.39,3.16,3.16,0,0,1,0,.53v.76a6.89,6.89,0,0,0,0,1,1.19,1.19,0,0,0,.14.4h-.59A1.23,1.23,0,0,1,50.54,133.23Zm0-1.28a3.73,3.73,0,0,1-.93.22,2.25,2.25,0,0,0-.5.11.51.51,0,0,0-.22.19.43.43,0,0,0-.08.27.5.5,0,0,0,.17.38.76.76,0,0,0,.51.15,1.21,1.21,0,0,0,.58-.14.86.86,0,0,0,.38-.4,1.41,1.41,0,0,0,.09-.57Z" transform="translate(0.01 -21.92)"/><path class="cls-3" d="M52,133.64v-3.37h.51v.48a1.21,1.21,0,0,1,1.07-.55,1.27,1.27,0,0,1,.56.11.89.89,0,0,1,.39.28,1.11,1.11,0,0,1,.17.43,2.34,2.34,0,0,1,0,.55v2.07h-.57v-2a1.66,1.66,0,0,0-.07-.52.65.65,0,0,0-.24-.28.82.82,0,0,0-.4-.1,1,1,0,0,0-.63.23,1.18,1.18,0,0,0-.26.88v1.84Z" transform="translate(0.01 -21.92)"/><path class="cls-3" d="M55.47,133.92,56,134a.54.54,0,0,0,.2.37.91.91,0,0,0,.58.16,1,1,0,0,0,.61-.16.8.8,0,0,0,.29-.44,4,4,0,0,0,0-.74,1.15,1.15,0,0,1-.93.44,1.28,1.28,0,0,1-1.08-.5,1.93,1.93,0,0,1-.38-1.2,2.18,2.18,0,0,1,.18-.89,1.31,1.31,0,0,1,1.28-.85,1.22,1.22,0,0,1,1,.48v-.41h.52v2.92a2.7,2.7,0,0,1-.16,1.11,1.14,1.14,0,0,1-.5.52,1.76,1.76,0,0,1-.86.19,1.59,1.59,0,0,1-1-.27A.91.91,0,0,1,55.47,133.92Zm.47-2a1.52,1.52,0,0,0,.26,1,.85.85,0,0,0,.66.3.83.83,0,0,0,.66-.3,1.79,1.79,0,0,0,0-1.89.87.87,0,0,0-.67-.31.79.79,0,0,0-.64.31A1.37,1.37,0,0,0,55.94,131.9Z" transform="translate(0.01 -21.92)"/><path class="cls-3" d="M61.49,132.56l.6.07a1.46,1.46,0,0,1-.52.8,1.57,1.57,0,0,1-1,.29,1.52,1.52,0,0,1-1.17-.46A1.76,1.76,0,0,1,59,132a1.86,1.86,0,0,1,.43-1.32,1.49,1.49,0,0,1,1.14-.47,1.45,1.45,0,0,1,1.11.46A1.84,1.84,0,0,1,62.1,132v.15H59.59a1.26,1.26,0,0,0,.31.85.93.93,0,0,0,.71.3.86.86,0,0,0,.53-.17A1,1,0,0,0,61.49,132.56Zm-1.87-.93H61.5a1.14,1.14,0,0,0-.21-.63.89.89,0,0,0-.71-.33.87.87,0,0,0-.66.26A1,1,0,0,0,59.62,131.63Z" transform="translate(0.01 -21.92)"/><path class="cls-3" d="M44.05,150.56l.58-.05a1.32,1.32,0,0,0,.19.57,1,1,0,0,0,.47.36,1.8,1.8,0,0,0,.71.14,1.73,1.73,0,0,0,.63-.11.87.87,0,0,0,.4-.28.68.68,0,0,0,.13-.4.55.55,0,0,0-.13-.38.93.93,0,0,0-.42-.28c-.12,0-.4-.12-.82-.23a4.09,4.09,0,0,1-.9-.29,1.26,1.26,0,0,1-.5-.43,1,1,0,0,1-.16-.58,1.16,1.16,0,0,1,.2-.66,1.22,1.22,0,0,1,.58-.46,2.15,2.15,0,0,1,.85-.16,2.22,2.22,0,0,1,.92.17,1.27,1.27,0,0,1,.6.49,1.32,1.32,0,0,1,.23.73l-.59,0a1,1,0,0,0-.32-.66,1.24,1.24,0,0,0-.81-.23,1.27,1.27,0,0,0-.81.21.61.61,0,0,0-.26.49A.52.52,0,0,0,45,149a2.39,2.39,0,0,0,.93.33,7.58,7.58,0,0,1,1,.3,1.41,1.41,0,0,1,.6.48,1.14,1.14,0,0,1,.19.66,1.3,1.3,0,0,1-.21.7,1.34,1.34,0,0,1-.61.51,2.19,2.19,0,0,1-.9.18A2.76,2.76,0,0,1,45,152a1.51,1.51,0,0,1-.66-.56A1.48,1.48,0,0,1,44.05,150.56Z" transform="translate(0.01 -21.92)"/><path class="cls-3" d="M48.52,153.34v-4.66H49v.44a1.29,1.29,0,0,1,.42-.39,1.19,1.19,0,0,1,.56-.13,1.31,1.31,0,0,1,.76.23,1.29,1.29,0,0,1,.5.62,2.35,2.35,0,0,1,.17.89,2.12,2.12,0,0,1-.19.93,1.36,1.36,0,0,1-.54.64,1.42,1.42,0,0,1-.74.22,1.07,1.07,0,0,1-.51-.12,1.17,1.17,0,0,1-.38-.31v1.64Zm.52-3a1.52,1.52,0,0,0,.26,1,.82.82,0,0,0,1.29,0,1.55,1.55,0,0,0,.27-1,1.5,1.5,0,0,0-.26-1,.82.82,0,0,0-.63-.32.85.85,0,0,0-.65.34A1.52,1.52,0,0,0,49,150.38Z" transform="translate(0.01 -21.92)"/><path class="cls-3" d="M54.44,151,55,151a1.43,1.43,0,0,1-.51.8,1.6,1.6,0,0,1-1,.29,1.52,1.52,0,0,1-1.17-.46,1.77,1.77,0,0,1-.43-1.28,1.89,1.89,0,0,1,.43-1.32,1.51,1.51,0,0,1,1.14-.47,1.45,1.45,0,0,1,1.1.46,1.82,1.82,0,0,1,.43,1.3v.15H52.54a1.26,1.26,0,0,0,.31.85.92.92,0,0,0,.7.3.89.89,0,0,0,.54-.17A1,1,0,0,0,54.44,151ZM52.57,150h1.88a1.21,1.21,0,0,0-.22-.64.86.86,0,0,0-.7-.33.9.9,0,0,0-.67.27A1.07,1.07,0,0,0,52.57,150Z" transform="translate(0.01 -21.92)"/><path class="cls-3" d="M58.06,151l.59.07a1.44,1.44,0,0,1-.52.8,1.74,1.74,0,0,1-2.14-.17,1.82,1.82,0,0,1-.43-1.28,1.9,1.9,0,0,1,.44-1.32,1.49,1.49,0,0,1,1.13-.47,1.47,1.47,0,0,1,1.11.46,1.82,1.82,0,0,1,.43,1.3,1,1,0,0,1,0,.15H56.15a1.27,1.27,0,0,0,.32.85.91.91,0,0,0,.7.3.89.89,0,0,0,.54-.17A1.16,1.16,0,0,0,58.06,151ZM56.18,150h1.88a1.13,1.13,0,0,0-.21-.64.88.88,0,0,0-.71-.33.9.9,0,0,0-.66.27A1,1,0,0,0,56.18,150Z" transform="translate(0.01 -21.92)"/><path class="cls-3" d="M61.55,152.05v-.42a1.05,1.05,0,0,1-.94.5,1.37,1.37,0,0,1-.74-.22,1.41,1.41,0,0,1-.52-.63,2,2,0,0,1-.19-.91,2.47,2.47,0,0,1,.17-.92,1.37,1.37,0,0,1,.5-.63,1.43,1.43,0,0,1,.75-.22,1.21,1.21,0,0,1,.55.13,1,1,0,0,1,.38.34V147.4h.57v4.65Zm-1.8-1.68a1.5,1.5,0,0,0,.27,1,.83.83,0,0,0,.64.32.79.79,0,0,0,.64-.31,1.36,1.36,0,0,0,.26-.93,1.66,1.66,0,0,0-.26-1,.84.84,0,0,0-.66-.32.78.78,0,0,0-.64.31A1.54,1.54,0,0,0,59.75,150.37Z" transform="translate(0.01 -21.92)"/><path class="cls-3" d="M64.8,153.34V147.4h1.26v.47h-.69v5h.69v.47Z" transform="translate(0.01 -21.92)"/><path class="cls-3" d="M66.59,152.05v-3.37h.51v.51a1.31,1.31,0,0,1,.36-.47.65.65,0,0,1,.37-.12,1.17,1.17,0,0,1,.59.19l-.2.53a.86.86,0,0,0-.42-.13.52.52,0,0,0-.33.12.65.65,0,0,0-.22.31,2.36,2.36,0,0,0-.09.67v1.76Z" transform="translate(0.01 -21.92)"/><path class="cls-3" d="M68.33,152.13l1.35-4.81h.45l-1.34,4.81Z" transform="translate(0.01 -21.92)"/><path class="cls-3" d="M70.56,152.05v-3.37h.51v.47a1.24,1.24,0,0,1,.43-.39,1.08,1.08,0,0,1,.6-.16,1.13,1.13,0,0,1,.61.16.86.86,0,0,1,.34.43,1.22,1.22,0,0,1,1-.59,1.05,1.05,0,0,1,.77.28,1.2,1.2,0,0,1,.27.86v2.31h-.57v-2.12a1.91,1.91,0,0,0,0-.5.52.52,0,0,0-.2-.24.68.68,0,0,0-.35-.09.81.81,0,0,0-.59.24,1.05,1.05,0,0,0-.23.75v2h-.57v-2.19a1,1,0,0,0-.14-.57.54.54,0,0,0-.46-.19.81.81,0,0,0-.45.13.69.69,0,0,0-.29.37,2.08,2.08,0,0,0-.1.7v1.75Z" transform="translate(0.01 -21.92)"/><path class="cls-3" d="M76,148.06v-.66h.57v.66Zm0,4v-3.37h.57v3.37Z" transform="translate(0.01 -21.92)"/><path class="cls-3" d="M77.42,152.05v-3.37h.52v.48A1.2,1.2,0,0,1,79,148.6a1.47,1.47,0,0,1,.56.11A.89.89,0,0,1,80,149a1,1,0,0,1,.18.42,3.51,3.51,0,0,1,0,.56v2.07h-.57V150a1.38,1.38,0,0,0-.07-.52.53.53,0,0,0-.23-.28.77.77,0,0,0-.4-.1,1,1,0,0,0-.63.23,1.14,1.14,0,0,0-.27.88v1.84Z" transform="translate(0.01 -21.92)"/><path class="cls-3" d="M82,153.34H80.73v-.47h.69v-5h-.69v-.47H82Z" transform="translate(0.01 -21.92)"/></g></svg>