<svg xmlns="http://www.w3.org/2000/svg" viewBox="0 0 118.01 131.42"><defs><style>.cls-1,.cls-2,.cls-3,.cls-4,.cls-6,.繝医Ν繧ｯ繧ｰ繝ｩ繝廟繧ｰ繝ｬ繝ｼ邱,.邱喟0\.5pt-4{fill:none;}.cls-1,.cls-4,.cls-6,.邱喟0\.5pt-4{stroke:#231815;}.cls-1{stroke-linejoin:round;stroke-width:0.14px;}.cls-2,.cls-3,.繝医Ν繧ｯ繧ｰ繝ｩ繝廟繧ｰ繝ｬ繝ｼ邱{stroke:#9fa0a0;}.cls-2,.cls-3,.cls-4,.邱喟0\.5pt-4{stroke-miterlimit:10;}.cls-3{stroke-dasharray:2.59 1.25;}.cls-4{stroke-width:0.14px;}.繝医Ν繧ｯ繧ｰ繝ｩ繝廟繧ｰ繝ｬ繝ｼ邱{stroke-width:3px;}.cls-5{fill:#231815;}.繝後Μ_逋ｽ{fill:#fff;}.邱喟0\.5pt-4{stroke-width:0.5px;}</style></defs><g id="Illust"><line class="cls-1" x1="46.94" y1="2.18" x2="46.94" y2="115.56"/><line class="cls-1" x1="74.01" y1="2.18" x2="74.01" y2="115.56"/><line class="cls-1" x1="101.08" y1="2.18" x2="101.08" y2="115.56"/><line class="cls-2" x1="94.1" y1="103.35" x2="94.1" y2="104.9"/><line class="cls-3" x1="94.1" y1="106.15" x2="94.1" y2="113.22"/><line class="cls-2" x1="94.1" y1="113.85" x2="94.1" y2="115.4"/><line class="cls-4" x1="19.86" y1="39.97" x2="110.56" y2="39.97"/><line class="cls-4" x1="19.86" y1="21.07" x2="110.56" y2="21.07"/><line class="cls-4" x1="19.86" y1="58.87" x2="110.56" y2="58.87"/><line class="cls-4" x1="19.86" y1="77.77" x2="110.56" y2="77.77"/><line class="cls-4" x1="19.86" y1="96.66" x2="110.56" y2="96.66"/><polyline class="繝医Ν繧ｯ繧ｰ繝ｩ繝廟繧ｰ繝ｬ繝ｼ邱" points="19.86 36.62 60.25 36.62 111.11 76.34"/><path class="cls-5" d="M10.26,137.13a3.17,3.17,0,0,1,.14-1,1.22,1.22,0,0,1,.38-.6,1,1,0,0,1,.65-.21,1.07,1.07,0,0,1,.51.12,1.13,1.13,0,0,1,.36.33,2.25,2.25,0,0,1,.22.54,3.72,3.72,0,0,1,.08.84,3.2,3.2,0,0,1-.13,1,1.31,1.31,0,0,1-.39.6,1,1,0,0,1-.65.21,1,1,0,0,1-.81-.37A2.35,2.35,0,0,1,10.26,137.13Zm.46,0a2.38,2.38,0,0,0,.2,1.18.62.62,0,0,0,.51.29.61.61,0,0,0,.51-.3,3.36,3.36,0,0,0,0-2.34.6.6,0,0,0-.51-.29.57.57,0,0,0-.49.25A2.33,2.33,0,0,0,10.72,137.13Z" transform="translate(1.43 -21.92)"/><path class="cls-5" d="M13.29,138.9v-.5h.5v.5Z" transform="translate(1.43 -21.92)"/><path class="cls-5" d="M14.43,137.13a3.17,3.17,0,0,1,.14-1,1.22,1.22,0,0,1,.38-.6,1,1,0,0,1,.65-.21,1.07,1.07,0,0,1,.51.12,1.13,1.13,0,0,1,.36.33,2.25,2.25,0,0,1,.22.54,3.72,3.72,0,0,1,.08.84,3.2,3.2,0,0,1-.13,1,1.31,1.31,0,0,1-.39.6,1,1,0,0,1-.65.21,1,1,0,0,1-.81-.37A2.35,2.35,0,0,1,14.43,137.13Zm.46,0a2.38,2.38,0,0,0,.2,1.18.62.62,0,0,0,.51.29.61.61,0,0,0,.51-.3,3.36,3.36,0,0,0,0-2.34.6.6,0,0,0-.51-.29.57.57,0,0,0-.49.25A2.33,2.33,0,0,0,14.89,137.13Z" transform="translate(1.43 -21.92)"/><path class="cls-5" d="M12.57,119.58V120H10.21a.81.81,0,0,1,0-.31,1.71,1.71,0,0,1,.29-.47,3.81,3.81,0,0,1,.57-.54,4.48,4.48,0,0,0,.79-.76.9.9,0,0,0,.21-.53.58.58,0,0,0-.19-.44.67.67,0,0,0-.49-.18.65.65,0,0,0-.5.19.71.71,0,0,0-.2.53l-.45,0a1.12,1.12,0,0,1,.35-.77,1.16,1.16,0,0,1,.81-.26,1.13,1.13,0,0,1,.82.28.94.94,0,0,1,.3.71,1.06,1.06,0,0,1-.09.42,1.51,1.51,0,0,1-.29.44,8.11,8.11,0,0,1-.68.63l-.51.45a1.88,1.88,0,0,0-.18.24Z" transform="translate(1.43 -21.92)"/><path class="cls-5" d="M13.29,120v-.5h.5v.5Z" transform="translate(1.43 -21.92)"/><path class="cls-5" d="M14.43,118.24a3.19,3.19,0,0,1,.14-1,1.24,1.24,0,0,1,.38-.59,1,1,0,0,1,.65-.21.95.95,0,0,1,.87.45,2,2,0,0,1,.22.53,3.76,3.76,0,0,1,.08.85,3.18,3.18,0,0,1-.13,1,1.31,1.31,0,0,1-.39.6,1,1,0,0,1-.65.21,1,1,0,0,1-.81-.37A2.32,2.32,0,0,1,14.43,118.24Zm.46,0a2.36,2.36,0,0,0,.2,1.17.59.59,0,0,0,1,0,3.39,3.39,0,0,0,0-2.35.62.62,0,0,0-.51-.29.58.58,0,0,0-.49.26A2.28,2.28,0,0,0,14.89,118.24Z" transform="translate(1.43 -21.92)"/><path class="cls-5" d="M11.67,101.1v-.85H10.12v-.41l1.63-2.32h.36v2.32h.49v.41h-.49v.85Zm0-1.26V98.23l-1.12,1.61Z" transform="translate(1.43 -21.92)"/><path class="cls-5" d="M13.29,101.1v-.5h.5v.5Z" transform="translate(1.43 -21.92)"/><path class="cls-5" d="M14.43,99.34a3.42,3.42,0,0,1,.13-1,1.31,1.31,0,0,1,.39-.6,1,1,0,0,1,.65-.21,1.07,1.07,0,0,1,.51.12.94.94,0,0,1,.36.33,2.17,2.17,0,0,1,.22.53,3.76,3.76,0,0,1,.08.85,3.09,3.09,0,0,1-.13,1,1.31,1.31,0,0,1-.39.6,1,1,0,0,1-.65.21,1,1,0,0,1-.81-.37A2.32,2.32,0,0,1,14.43,99.34Zm.46,0a2.23,2.23,0,0,0,.2,1.17.6.6,0,0,0,.51.29.62.62,0,0,0,.51-.29,3.39,3.39,0,0,0,0-2.35.62.62,0,0,0-.51-.29.57.57,0,0,0-.49.26A2.3,2.3,0,0,0,14.89,99.34Z" transform="translate(1.43 -21.92)"/><path class="cls-5" d="M12.55,79.5l-.44,0a.84.84,0,0,0-.17-.38A.56.56,0,0,0,11.5,79a.61.61,0,0,0-.37.12,1.07,1.07,0,0,0-.32.44,2.43,2.43,0,0,0-.13.83,1.11,1.11,0,0,1,.39-.36,1,1,0,0,1,1.23.21,1.12,1.12,0,0,1,.31.83,1.33,1.33,0,0,1-.15.63,1,1,0,0,1-.4.44,1.11,1.11,0,0,1-.57.16,1.13,1.13,0,0,1-.9-.41,2,2,0,0,1-.34-1.33A2.36,2.36,0,0,1,10.63,79a1.1,1.1,0,0,1,.9-.41,1,1,0,0,1,.69.24A1,1,0,0,1,12.55,79.5ZM10.75,81a1,1,0,0,0,.1.44.71.71,0,0,0,.27.32.65.65,0,0,0,.36.1.61.61,0,0,0,.48-.22.9.9,0,0,0,.2-.61.86.86,0,0,0-.2-.59.66.66,0,0,0-.5-.21.67.67,0,0,0-.5.21A.78.78,0,0,0,10.75,81Z" transform="translate(1.43 -21.92)"/><path class="cls-5" d="M13.29,82.2v-.5h.5v.5Z" transform="translate(1.43 -21.92)"/><path class="cls-5" d="M14.43,80.44a3.17,3.17,0,0,1,.14-1,1.22,1.22,0,0,1,.38-.6,1,1,0,0,1,.65-.21,1.07,1.07,0,0,1,.51.12,1,1,0,0,1,.36.33,2.17,2.17,0,0,1,.22.53,3.76,3.76,0,0,1,.08.85,3.2,3.2,0,0,1-.13,1,1.33,1.33,0,0,1-.39.59,1,1,0,0,1-.65.22,1,1,0,0,1-.81-.38A2.3,2.3,0,0,1,14.43,80.44Zm.46,0a2.31,2.31,0,0,0,.2,1.17.59.59,0,0,0,1,0,2.18,2.18,0,0,0,.21-1.17,2.25,2.25,0,0,0-.21-1.18A.62.62,0,0,0,15.6,79a.58.58,0,0,0-.49.26A2.3,2.3,0,0,0,14.89,80.44Z" transform="translate(1.43 -21.92)"/><path class="cls-5" d="M10.94,61.37a.83.83,0,0,1-.4-.29.72.72,0,0,1-.14-.44.91.91,0,0,1,.28-.66,1,1,0,0,1,.75-.27,1,1,0,0,1,.76.28.87.87,0,0,1,.28.66.71.71,0,0,1-.13.43.89.89,0,0,1-.4.29.89.89,0,0,1,.68.91,1,1,0,0,1-.33.78,1.32,1.32,0,0,1-1.71,0,1.06,1.06,0,0,1-.32-.78.91.91,0,0,1,.18-.58A.8.8,0,0,1,10.94,61.37Zm-.23.9a.81.81,0,0,0,.09.37.59.59,0,0,0,.27.27.79.79,0,0,0,.37.1A.69.69,0,0,0,12,62.8a.66.66,0,0,0,.21-.51.72.72,0,0,0-.21-.53.76.76,0,0,0-.53-.2.66.66,0,0,0-.51.2A.69.69,0,0,0,10.71,62.27Zm.14-1.65A.57.57,0,0,0,11,61a.63.63,0,0,0,.84,0,.53.53,0,0,0,.16-.39.55.55,0,0,0-.17-.41.57.57,0,0,0-.41-.17.57.57,0,0,0-.42.17A.5.5,0,0,0,10.85,60.62Z" transform="translate(1.43 -21.92)"/><path class="cls-5" d="M13.29,63.31v-.5h.5v.5Z" transform="translate(1.43 -21.92)"/><path class="cls-5" d="M14.43,61.54a3.17,3.17,0,0,1,.14-1,1.22,1.22,0,0,1,.38-.6,1,1,0,0,1,.65-.21,1.07,1.07,0,0,1,.51.12,1.13,1.13,0,0,1,.36.33,2.25,2.25,0,0,1,.22.54,3.66,3.66,0,0,1,.08.84,3.2,3.2,0,0,1-.13,1,1.31,1.31,0,0,1-.39.6,1,1,0,0,1-.65.21,1,1,0,0,1-.81-.37A2.35,2.35,0,0,1,14.43,61.54Zm.46,0a2.38,2.38,0,0,0,.2,1.18.62.62,0,0,0,.51.29.61.61,0,0,0,.51-.3,3.36,3.36,0,0,0,0-2.34.6.6,0,0,0-.51-.29.57.57,0,0,0-.49.25A2.3,2.3,0,0,0,14.89,61.54Z" transform="translate(1.43 -21.92)"/><path class="cls-5" d="M9.14,44.41H8.7v-2.8a2.54,2.54,0,0,1-.42.3,2.81,2.81,0,0,1-.46.23v-.43a2.42,2.42,0,0,0,.65-.42,1.76,1.76,0,0,0,.39-.47h.28Z" transform="translate(1.43 -21.92)"/><path class="cls-5" d="M10.26,42.64a3.52,3.52,0,0,1,.13-1,1.28,1.28,0,0,1,.39-.59.94.94,0,0,1,.65-.21.95.95,0,0,1,.87.45,2,2,0,0,1,.22.53,3.72,3.72,0,0,1,.08.84,3.2,3.2,0,0,1-.13,1,1.31,1.31,0,0,1-.39.6,1,1,0,0,1-.65.21,1,1,0,0,1-.81-.37A2.33,2.33,0,0,1,10.26,42.64Zm.46,0a2.27,2.27,0,0,0,.2,1.18.59.59,0,0,0,1,0,2.25,2.25,0,0,0,.21-1.18,2.18,2.18,0,0,0-.21-1.17.62.62,0,0,0-.51-.29.55.55,0,0,0-.49.26A2.26,2.26,0,0,0,10.72,42.64Z" transform="translate(1.43 -21.92)"/><path class="cls-5" d="M13.29,44.41v-.5h.5v.5Z" transform="translate(1.43 -21.92)"/><path class="cls-5" d="M14.43,42.64a3.52,3.52,0,0,1,.13-1A1.28,1.28,0,0,1,15,41a.94.94,0,0,1,.65-.21.95.95,0,0,1,.87.45,2,2,0,0,1,.22.53,3.72,3.72,0,0,1,.08.84,3.2,3.2,0,0,1-.13,1,1.31,1.31,0,0,1-.39.6,1,1,0,0,1-.65.21,1,1,0,0,1-.81-.37A2.33,2.33,0,0,1,14.43,42.64Zm.46,0a2.27,2.27,0,0,0,.2,1.18.59.59,0,0,0,1,0,2.25,2.25,0,0,0,.21-1.18,2.18,2.18,0,0,0-.21-1.17.62.62,0,0,0-.51-.29.55.55,0,0,0-.49.26A2.26,2.26,0,0,0,14.89,42.64Z" transform="translate(1.43 -21.92)"/><path class="cls-5" d="M9.14,25.51H8.7v-2.8a2.18,2.18,0,0,1-.42.3,2.81,2.81,0,0,1-.46.23v-.42a3,3,0,0,0,.65-.42,2,2,0,0,0,.39-.48h.28Z" transform="translate(1.43 -21.92)"/><path class="cls-5" d="M12.57,25.09v.42H10.21a.76.76,0,0,1,0-.3,1.76,1.76,0,0,1,.29-.48,3.81,3.81,0,0,1,.57-.54,4.48,4.48,0,0,0,.79-.76.9.9,0,0,0,.21-.53.58.58,0,0,0-.19-.44.67.67,0,0,0-.49-.18.65.65,0,0,0-.5.19.71.71,0,0,0-.2.53L10.29,23a1.14,1.14,0,0,1,.35-.77,1.21,1.21,0,0,1,.81-.26,1.13,1.13,0,0,1,.82.28.94.94,0,0,1,.3.71,1,1,0,0,1-.09.42,1.51,1.51,0,0,1-.29.44,8.11,8.11,0,0,1-.68.63l-.51.45a1.88,1.88,0,0,0-.18.24Z" transform="translate(1.43 -21.92)"/><path class="cls-5" d="M13.29,25.51V25h.5v.5Z" transform="translate(1.43 -21.92)"/><path class="cls-5" d="M14.43,23.75a3.19,3.19,0,0,1,.14-1,1.24,1.24,0,0,1,.38-.59,1,1,0,0,1,.65-.21,1.19,1.19,0,0,1,.51.11,1.06,1.06,0,0,1,.36.34,2,2,0,0,1,.22.53,3.76,3.76,0,0,1,.08.85,3.09,3.09,0,0,1-.13,1,1.31,1.31,0,0,1-.39.6,1,1,0,0,1-.65.21,1,1,0,0,1-.81-.37A2.32,2.32,0,0,1,14.43,23.75Zm.46,0a2.36,2.36,0,0,0,.2,1.17.59.59,0,0,0,1,0,2.23,2.23,0,0,0,.21-1.17,2.25,2.25,0,0,0-.21-1.18.62.62,0,0,0-.51-.29.58.58,0,0,0-.49.26A2.3,2.3,0,0,0,14.89,23.75Z" transform="translate(1.43 -21.92)"/><polyline class="繝医Ν繧ｯ繧ｰ繝ｩ繝廟繧ｰ繝ｬ繝ｼ邱" points="19.86 93.02 33.32 93.02 46.78 93.02 60.25 93.02 73.71 98.64 87.18 102.06 100.64 104.32 110.56 105.47"/><polyline class="cls-6" points="19.86 36.62 54.84 36.64 111.11 82.96"/><polyline class="cls-6" points="19.86 93.02 33.32 93.02 46.78 93.02 60.25 93.02 73.71 98.64 87.18 102.06 100.64 104.32 110.56 105.47"/><path class="cls-5" d="M17.24,141.38a3.52,3.52,0,0,1,.13-1,1.28,1.28,0,0,1,.39-.59,1.14,1.14,0,0,1,1.15-.1.9.9,0,0,1,.36.34,1.73,1.73,0,0,1,.23.53,3.72,3.72,0,0,1,.08.84,3.52,3.52,0,0,1-.13,1,1.31,1.31,0,0,1-.39.6,1,1,0,0,1-.65.21,1,1,0,0,1-.81-.37A2.33,2.33,0,0,1,17.24,141.38Zm.45,0a2.25,2.25,0,0,0,.21,1.18.59.59,0,0,0,1,0,2.27,2.27,0,0,0,.2-1.18,2.23,2.23,0,0,0-.2-1.17.63.63,0,0,0-.52-.29.56.56,0,0,0-.48.26A2.24,2.24,0,0,0,17.69,141.38Z" transform="translate(1.43 -21.92)"/><path class="cls-5" d="M108.19,140.45l-.44,0a.8.8,0,0,0-.17-.37.56.56,0,0,0-.44-.19.67.67,0,0,0-.37.11,1.11,1.11,0,0,0-.32.45,2.41,2.41,0,0,0-.13.82,1.11,1.11,0,0,1,.39-.36,1.13,1.13,0,0,1,.48-.11,1,1,0,0,1,.75.32,1.16,1.16,0,0,1,.31.84,1.32,1.32,0,0,1-.15.62,1,1,0,0,1-.4.45,1.08,1.08,0,0,1-.57.15,1.12,1.12,0,0,1-.9-.4,2.07,2.07,0,0,1-.34-1.34,2.33,2.33,0,0,1,.38-1.5,1.08,1.08,0,0,1,.9-.41,1,1,0,0,1,.69.23A1,1,0,0,1,108.19,140.45Zm-1.8,1.54a.91.91,0,0,0,.1.43.7.7,0,0,0,.63.43.62.62,0,0,0,.48-.23.9.9,0,0,0,.2-.61.83.83,0,0,0-.2-.58.66.66,0,0,0-.5-.21.69.69,0,0,0-.5.21A.76.76,0,0,0,106.39,142Z" transform="translate(1.43 -21.92)"/><path class="cls-5" d="M108.72,140v-.42H111V140a4.77,4.77,0,0,0-.68,1,5.79,5.79,0,0,0-.51,1.24,4.17,4.17,0,0,0-.17,1h-.45a4.4,4.4,0,0,1,.16-1,5.42,5.42,0,0,1,.46-1.15,5.11,5.11,0,0,1,.63-.94Z" transform="translate(1.43 -21.92)"/><path class="cls-5" d="M111.47,141.38a3.2,3.2,0,0,1,.13-1,1.14,1.14,0,0,1,.39-.59,1,1,0,0,1,.64-.21,1,1,0,0,1,.51.11,1.06,1.06,0,0,1,.36.34,1.73,1.73,0,0,1,.22.53,3.72,3.72,0,0,1,.08.84,3.2,3.2,0,0,1-.13,1,1.17,1.17,0,0,1-.39.6,1.09,1.09,0,0,1-1.46-.16A2.41,2.41,0,0,1,111.47,141.38Zm.45,0a2.38,2.38,0,0,0,.2,1.18.62.62,0,0,0,.51.29.6.6,0,0,0,.51-.29,2.25,2.25,0,0,0,.21-1.18,2.2,2.2,0,0,0-.21-1.17.61.61,0,0,0-.51-.29.56.56,0,0,0-.48.26A2.15,2.15,0,0,0,111.92,141.38Z" transform="translate(1.43 -21.92)"/><path class="cls-5" d="M114.25,141.38a3.2,3.2,0,0,1,.13-1,1.2,1.2,0,0,1,.39-.59,1,1,0,0,1,.64-.21,1,1,0,0,1,.51.11,1,1,0,0,1,.36.34,1.73,1.73,0,0,1,.22.53,3.72,3.72,0,0,1,.08.84,3.2,3.2,0,0,1-.13,1,1.22,1.22,0,0,1-.38.6,1,1,0,0,1-.66.21,1,1,0,0,1-.81-.37A2.41,2.41,0,0,1,114.25,141.38Zm.45,0a2.25,2.25,0,0,0,.21,1.18.58.58,0,0,0,1,0,2.25,2.25,0,0,0,.21-1.18,2.2,2.2,0,0,0-.21-1.17.61.61,0,0,0-.51-.29.56.56,0,0,0-.48.26A2.24,2.24,0,0,0,114.7,141.38Z" transform="translate(1.43 -21.92)"/><rect class="繝後Μ_逋ｽ" x="110.56" y="2.18" width="2.83" height="113.39"/><path class="cls-5" d="M42.3,142.73v.42H39.93a.81.81,0,0,1,.06-.31,1.5,1.5,0,0,1,.29-.47,3.81,3.81,0,0,1,.57-.54,4.87,4.87,0,0,0,.79-.76.88.88,0,0,0,.2-.53.6.6,0,0,0-.18-.44.77.77,0,0,0-1,0,.74.74,0,0,0-.19.53l-.45,0a1.12,1.12,0,0,1,.35-.77,1.37,1.37,0,0,1,1.63,0,.94.94,0,0,1,.3.71,1.06,1.06,0,0,1-.09.42,1.75,1.75,0,0,1-.29.44c-.14.15-.37.36-.68.63s-.43.37-.51.45a1.25,1.25,0,0,0-.18.24Z" transform="translate(1.43 -21.92)"/><path class="cls-5" d="M42.8,141.38a3.2,3.2,0,0,1,.13-1,1.33,1.33,0,0,1,.39-.59,1.14,1.14,0,0,1,1.15-.1.9.9,0,0,1,.36.34,1.51,1.51,0,0,1,.22.53,3.16,3.16,0,0,1,.09.84,3.52,3.52,0,0,1-.13,1,1.31,1.31,0,0,1-.39.6,1,1,0,0,1-.65.21,1,1,0,0,1-.81-.37A2.33,2.33,0,0,1,42.8,141.38Zm.45,0a2.25,2.25,0,0,0,.21,1.18.59.59,0,0,0,1,0,2.38,2.38,0,0,0,.2-1.18,2.34,2.34,0,0,0-.2-1.17.63.63,0,0,0-.52-.29.56.56,0,0,0-.48.26A2.24,2.24,0,0,0,43.25,141.38Z" transform="translate(1.43 -21.92)"/><path class="cls-5" d="M45.55,141.38a3.52,3.52,0,0,1,.13-1,1.33,1.33,0,0,1,.39-.59,1.14,1.14,0,0,1,1.15-.1.9.9,0,0,1,.36.34,1.73,1.73,0,0,1,.23.53,3.72,3.72,0,0,1,.08.84,3.52,3.52,0,0,1-.13,1,1.31,1.31,0,0,1-.39.6,1,1,0,0,1-.65.21,1,1,0,0,1-.81-.37A2.33,2.33,0,0,1,45.55,141.38Zm.45,0a2.25,2.25,0,0,0,.21,1.18.59.59,0,0,0,1,0,2.27,2.27,0,0,0,.2-1.18,2.23,2.23,0,0,0-.2-1.17.63.63,0,0,0-.52-.29.56.56,0,0,0-.48.26A2.24,2.24,0,0,0,46,141.38Z" transform="translate(1.43 -21.92)"/><path class="cls-5" d="M48.36,141.38a3.52,3.52,0,0,1,.13-1,1.33,1.33,0,0,1,.39-.59,1,1,0,0,1,.65-.21,1.06,1.06,0,0,1,.51.11,1,1,0,0,1,.35.34,1.73,1.73,0,0,1,.23.53,3.72,3.72,0,0,1,.08.84,3.52,3.52,0,0,1-.13,1,1.31,1.31,0,0,1-.39.6,1,1,0,0,1-.65.21,1,1,0,0,1-.81-.37A2.33,2.33,0,0,1,48.36,141.38Zm.45,0a2.25,2.25,0,0,0,.21,1.18.59.59,0,0,0,1,0,2.25,2.25,0,0,0,.21-1.18,2.2,2.2,0,0,0-.21-1.17.62.62,0,0,0-.51-.29.57.57,0,0,0-.49.26A2.24,2.24,0,0,0,48.81,141.38Z" transform="translate(1.43 -21.92)"/><path class="cls-5" d="M68.34,143.15v-.86H66.79v-.4l1.63-2.32h.36v2.32h.49v.4h-.49v.86Zm0-1.26v-1.61l-1.12,1.61Z" transform="translate(1.43 -21.92)"/><path class="cls-5" d="M69.75,141.38a3.2,3.2,0,0,1,.13-1,1.24,1.24,0,0,1,.38-.59,1,1,0,0,1,.65-.21.95.95,0,0,1,.87.45,1.73,1.73,0,0,1,.22.53,3.72,3.72,0,0,1,.08.84,3.2,3.2,0,0,1-.13,1,1.23,1.23,0,0,1-.39.6,1.09,1.09,0,0,1-1.46-.16A2.34,2.34,0,0,1,69.75,141.38Zm.45,0a2.38,2.38,0,0,0,.2,1.18.59.59,0,0,0,1,0,2.25,2.25,0,0,0,.21-1.18,2.2,2.2,0,0,0-.21-1.17.62.62,0,0,0-.51-.29.59.59,0,0,0-.49.26A2.26,2.26,0,0,0,70.2,141.38Z" transform="translate(1.43 -21.92)"/><path class="cls-5" d="M72.5,141.38a3.2,3.2,0,0,1,.13-1,1.18,1.18,0,0,1,.39-.59,1,1,0,0,1,.64-.21,1,1,0,0,1,.51.11,1.06,1.06,0,0,1,.36.34,1.73,1.73,0,0,1,.22.53,3.72,3.72,0,0,1,.08.84,3.2,3.2,0,0,1-.13,1,1.23,1.23,0,0,1-.39.6,1.09,1.09,0,0,1-1.46-.16A2.34,2.34,0,0,1,72.5,141.38Zm.45,0a2.38,2.38,0,0,0,.2,1.18.62.62,0,0,0,.51.29.6.6,0,0,0,.51-.29,2.25,2.25,0,0,0,.21-1.18,2.2,2.2,0,0,0-.21-1.17.61.61,0,0,0-.51-.29.56.56,0,0,0-.48.26A2.15,2.15,0,0,0,73,141.38Z" transform="translate(1.43 -21.92)"/><path class="cls-5" d="M75.31,141.38a3.2,3.2,0,0,1,.13-1,1.25,1.25,0,0,1,.39-.59,1,1,0,0,1,.64-.21,1,1,0,0,1,.51.11,1.06,1.06,0,0,1,.36.34,1.73,1.73,0,0,1,.22.53,3.72,3.72,0,0,1,.08.84,3.2,3.2,0,0,1-.13,1,1.22,1.22,0,0,1-.38.6,1,1,0,0,1-.66.21,1,1,0,0,1-.81-.37A2.41,2.41,0,0,1,75.31,141.38Zm.45,0a2.25,2.25,0,0,0,.21,1.18.58.58,0,0,0,1,0,2.25,2.25,0,0,0,.21-1.18,2.2,2.2,0,0,0-.21-1.17.61.61,0,0,0-.51-.29.56.56,0,0,0-.48.26A2.15,2.15,0,0,0,75.76,141.38Z" transform="translate(1.43 -21.92)"/><path class="cls-5" d="M96.12,140.45l-.43,0a.8.8,0,0,0-.17-.37.56.56,0,0,0-.44-.19.67.67,0,0,0-.37.11,1,1,0,0,0-.32.45,2.19,2.19,0,0,0-.13.82,1.11,1.11,0,0,1,.39-.36,1.13,1.13,0,0,1,.48-.11,1,1,0,0,1,.75.32,1.21,1.21,0,0,1,.31.84,1.32,1.32,0,0,1-.15.62,1,1,0,0,1-.4.45,1.1,1.1,0,0,1-.57.15,1.12,1.12,0,0,1-.9-.4,2.07,2.07,0,0,1-.35-1.34,2.32,2.32,0,0,1,.39-1.5,1.08,1.08,0,0,1,.9-.41.94.94,0,0,1,1,.89ZM94.33,142a.91.91,0,0,0,.1.43.7.7,0,0,0,.63.43.65.65,0,0,0,.48-.23.9.9,0,0,0,.2-.61.83.83,0,0,0-.2-.58.66.66,0,0,0-.5-.21.67.67,0,0,0-.5.21A.76.76,0,0,0,94.33,142Z" transform="translate(1.43 -21.92)"/><path class="cls-5" d="M96.65,141.38a3.52,3.52,0,0,1,.13-1,1.28,1.28,0,0,1,.39-.59,1,1,0,0,1,.65-.21.95.95,0,0,1,.87.45,2,2,0,0,1,.22.53,3.72,3.72,0,0,1,.08.84,3.2,3.2,0,0,1-.13,1,1.31,1.31,0,0,1-.39.6,1,1,0,0,1-.65.21,1,1,0,0,1-.81-.37A2.33,2.33,0,0,1,96.65,141.38Zm.46,0a2.27,2.27,0,0,0,.2,1.18.59.59,0,0,0,1,0,2.25,2.25,0,0,0,.21-1.18,2.2,2.2,0,0,0-.21-1.17.62.62,0,0,0-.51-.29.57.57,0,0,0-.49.26A2.26,2.26,0,0,0,97.11,141.38Z" transform="translate(1.43 -21.92)"/><path class="cls-5" d="M99.4,141.38a3.17,3.17,0,0,1,.14-1,1.19,1.19,0,0,1,.38-.59,1,1,0,0,1,.65-.21.95.95,0,0,1,.87.45,2,2,0,0,1,.22.53,3.72,3.72,0,0,1,.08.84,3.2,3.2,0,0,1-.13,1,1.31,1.31,0,0,1-.39.6,1,1,0,0,1-.65.21,1,1,0,0,1-.81-.37A2.33,2.33,0,0,1,99.4,141.38Zm.46,0a2.38,2.38,0,0,0,.2,1.18.59.59,0,0,0,1,0,2.25,2.25,0,0,0,.21-1.18,2.2,2.2,0,0,0-.21-1.17.62.62,0,0,0-.51-.29.58.58,0,0,0-.49.26A2.26,2.26,0,0,0,99.86,141.38Z" transform="translate(1.43 -21.92)"/><path class="cls-5" d="M102.22,141.38a3.2,3.2,0,0,1,.13-1,1.19,1.19,0,0,1,.38-.59,1,1,0,0,1,.65-.21.95.95,0,0,1,.87.45,1.73,1.73,0,0,1,.22.53,3.72,3.72,0,0,1,.08.84,3.2,3.2,0,0,1-.13,1,1.31,1.31,0,0,1-.39.6,1,1,0,0,1-.65.21,1,1,0,0,1-.81-.37A2.34,2.34,0,0,1,102.22,141.38Zm.45,0a2.38,2.38,0,0,0,.2,1.18.59.59,0,0,0,1,0,2.25,2.25,0,0,0,.21-1.18,2.2,2.2,0,0,0-.21-1.17.62.62,0,0,0-.51-.29.58.58,0,0,0-.49.26A2.26,2.26,0,0,0,102.67,141.38Z" transform="translate(1.43 -21.92)"/><rect class="邱喟0.5pt-4" x="19.86" y="2.18" width="90.71" height="113.39"/></g><g id="English"><path class="cls-5" d="M3.22,98.27H-.88V99.8h-.55V96.11h.55v1.54h4.1Z" transform="translate(1.43 -21.92)"/><path class="cls-5" d="M1.54,95.77a1.73,1.73,0,0,1-1.39-.52,1.58,1.58,0,0,1-.37-1.06,1.53,1.53,0,0,1,.45-1.14,1.74,1.74,0,0,1,1.26-.44,2.22,2.22,0,0,1,1,.2,1.42,1.42,0,0,1,.58.56,1.64,1.64,0,0,1,.21.82,1.48,1.48,0,0,1-.46,1.14A1.79,1.79,0,0,1,1.54,95.77Zm0-.59a1.44,1.44,0,0,0,1-.28.93.93,0,0,0,.32-.71.91.91,0,0,0-.32-.71,1.48,1.48,0,0,0-1-.28,1.4,1.4,0,0,0-.95.28.95.95,0,0,0,0,1.42A1.42,1.42,0,0,0,1.54,95.18Z" transform="translate(1.43 -21.92)"/><path class="cls-5" d="M3.22,92H-.15v-.52H.36a1.41,1.41,0,0,1-.47-.36.6.6,0,0,1-.11-.37A1.09,1.09,0,0,1,0,90.12l.53.19a.84.84,0,0,0-.12.42.51.51,0,0,0,.11.34.58.58,0,0,0,.31.21,2.35,2.35,0,0,0,.67.1H3.22Z" transform="translate(1.43 -21.92)"/><path class="cls-5" d="M4.51,87.63H2.86a1,1,0,0,1,.31.37,1,1,0,0,1,.13.51,1.34,1.34,0,0,1-.48,1A1.89,1.89,0,0,1,1.51,90a2.25,2.25,0,0,1-.92-.18A1.4,1.4,0,0,1,0,89.29a1.35,1.35,0,0,1-.2-.74,1.13,1.13,0,0,1,.52-1H-.15v-.51H4.51Zm-3,1.76a1.48,1.48,0,0,0,1-.27.84.84,0,0,0,.33-.66.8.8,0,0,0-.31-.63,1.46,1.46,0,0,0-.94-.26,1.52,1.52,0,0,0-1,.28.8.8,0,0,0-.34.65.78.78,0,0,0,.31.63A1.56,1.56,0,0,0,1.53,89.39Z" transform="translate(1.43 -21.92)"/><path class="cls-5" d="M3.22,84H2.73A1.23,1.23,0,0,1,3.3,85a1.31,1.31,0,0,1-.12.56A.88.88,0,0,1,2.9,86a1,1,0,0,1-.43.18,3.33,3.33,0,0,1-.53,0H-.15V85.6H1.72a3.77,3.77,0,0,0,.6,0,.63.63,0,0,0,.36-.23.75.75,0,0,0,.13-.43.92.92,0,0,0-.14-.48.64.64,0,0,0-.35-.32,1.66,1.66,0,0,0-.66-.1H-.15v-.57H3.22Z" transform="translate(1.43 -21.92)"/><path class="cls-5" d="M2.14,80.24l.07-.59a1.39,1.39,0,0,1,.8.52,1.54,1.54,0,0,1,.29,1,1.52,1.52,0,0,1-.46,1.17,1.77,1.77,0,0,1-1.27.44A1.86,1.86,0,0,1,.25,82.3a1.46,1.46,0,0,1-.47-1.14,1.41,1.41,0,0,1,.46-1.1,1.78,1.78,0,0,1,1.29-.43h.15v2.52a1.27,1.27,0,0,0,.85-.32.92.92,0,0,0,.3-.7.89.89,0,0,0-.17-.54A1.09,1.09,0,0,0,2.14,80.24Zm-.93,1.87V80.23a1.14,1.14,0,0,0-.63.22.88.88,0,0,0-.33.71.89.89,0,0,0,.26.66A1,1,0,0,0,1.21,82.11Z" transform="translate(1.43 -21.92)"/><path class="cls-5" d="M4.51,77.11H-1.43V75.85H-1v.69H4v-.69h.47Z" transform="translate(1.43 -21.92)"/><path class="cls-5" d="M3.22,75.25H-1.43v-.63l3.65-2.44H-1.43v-.59H3.22v.63L-.43,74.66H3.22Z" transform="translate(1.43 -21.92)"/><path class="cls-5" d="M.94,70.71a.74.74,0,0,1-.56-.24.76.76,0,0,1-.24-.57.78.78,0,0,1,.24-.57.77.77,0,0,1,.56-.23.78.78,0,0,1,.57.23.78.78,0,0,1,.24.57.76.76,0,0,1-.24.57A.75.75,0,0,1,.94,70.71Z" transform="translate(1.43 -21.92)"/><path class="cls-5" d="M3.22,68.35H-.15v-.51H.32a1.31,1.31,0,0,1-.39-.42,1.21,1.21,0,0,1-.15-.6,1.16,1.16,0,0,1,.15-.62.84.84,0,0,1,.44-.34,1.18,1.18,0,0,1-.59-1,1,1,0,0,1,.27-.77,1.2,1.2,0,0,1,.86-.27H3.22v.57H1.1a1.42,1.42,0,0,0-.49.06.41.41,0,0,0-.25.2A.62.62,0,0,0,.27,65a.79.79,0,0,0,.24.59,1,1,0,0,0,.75.24h2v.57H1a.92.92,0,0,0-.57.14.51.51,0,0,0-.19.45.81.81,0,0,0,.13.45.74.74,0,0,0,.37.3,2.12,2.12,0,0,0,.7.09H3.22Z" transform="translate(1.43 -21.92)"/><path class="cls-5" d="M4.51,62v1.26H4v-.69H-1v.69h-.47V62Z" transform="translate(1.43 -21.92)"/><rect class="繝後Μ_逋ｽ" x="22.69" y="52.49" width="47.91" height="16.58"/><path class="cls-5" d="M23.76,79.28l.58,0a1.21,1.21,0,0,0,.2.57,1,1,0,0,0,.46.36,1.81,1.81,0,0,0,.72.14,1.71,1.71,0,0,0,.62-.11.87.87,0,0,0,.4-.28.66.66,0,0,0,.13-.4.62.62,0,0,0-.12-.38,1.06,1.06,0,0,0-.42-.28,8,8,0,0,0-.83-.22,4,4,0,0,1-.9-.3,1.26,1.26,0,0,1-.5-.43,1,1,0,0,1-.16-.58,1.24,1.24,0,0,1,.2-.66,1.22,1.22,0,0,1,.58-.46,2.46,2.46,0,0,1,1.77,0,1.3,1.3,0,0,1,.61.49,1.4,1.4,0,0,1,.23.73l-.59,0a1,1,0,0,0-.33-.66,1.24,1.24,0,0,0-.81-.23,1.27,1.27,0,0,0-.81.21.61.61,0,0,0-.26.49.51.51,0,0,0,.18.41,2.39,2.39,0,0,0,.93.33,7.15,7.15,0,0,1,1,.3,1.41,1.41,0,0,1,.6.48,1.14,1.14,0,0,1,.2.66,1.29,1.29,0,0,1-.22.7,1.34,1.34,0,0,1-.61.51,2.11,2.11,0,0,1-.89.18,2.69,2.69,0,0,1-1.06-.18,1.48,1.48,0,0,1-.67-.56A1.57,1.57,0,0,1,23.76,79.28Z" transform="translate(1.43 -21.92)"/><path class="cls-5" d="M28.23,80.77V76.12h.58v1.67a1.25,1.25,0,0,1,1-.46,1.39,1.39,0,0,1,.66.14.91.91,0,0,1,.39.41,1.88,1.88,0,0,1,.12.76v2.13h-.57V78.64a.86.86,0,0,0-.19-.63.68.68,0,0,0-.52-.19.91.91,0,0,0-.48.13.74.74,0,0,0-.32.36,1.69,1.69,0,0,0-.09.62v1.84Z" transform="translate(1.43 -21.92)"/><path class="cls-5" d="M31.64,79.09a1.73,1.73,0,0,1,.52-1.39,1.56,1.56,0,0,1,1.06-.37,1.51,1.51,0,0,1,1.13.45A1.7,1.7,0,0,1,34.79,79a2.24,2.24,0,0,1-.19,1,1.39,1.39,0,0,1-.57.58,1.63,1.63,0,0,1-.81.21,1.51,1.51,0,0,1-1.15-.46A1.79,1.79,0,0,1,31.64,79.09Zm.58,0a1.44,1.44,0,0,0,.29,1,.9.9,0,0,0,.71.32.87.87,0,0,0,.7-.33,1.43,1.43,0,0,0,.29-1,1.38,1.38,0,0,0-.29-.95.91.91,0,0,0-.7-.32.87.87,0,0,0-.71.32A1.41,1.41,0,0,0,32.22,79.09Z" transform="translate(1.43 -21.92)"/><path class="cls-5" d="M35.46,80.77V77.4H36v.51a1.29,1.29,0,0,1,.37-.47.59.59,0,0,1,.36-.11,1.15,1.15,0,0,1,.59.18l-.2.53a.84.84,0,0,0-.42-.12.51.51,0,0,0-.33.11.65.65,0,0,0-.22.31A2.36,2.36,0,0,0,36,79v1.76Z" transform="translate(1.43 -21.92)"/><path class="cls-5" d="M38.88,80.26l.08.51a2.47,2.47,0,0,1-.43,0,1.09,1.09,0,0,1-.49-.1.6.6,0,0,1-.24-.26,2.27,2.27,0,0,1-.07-.68V77.85h-.42V77.4h.42v-.83l.57-.35V77.4h.58v.45H38.3v2a1,1,0,0,0,0,.31.21.21,0,0,0,.1.11.37.37,0,0,0,.2,0A1.29,1.29,0,0,0,38.88,80.26Z" transform="translate(1.43 -21.92)"/><path class="cls-5" d="M39.21,79.38V78.8H41v.58Z" transform="translate(1.43 -21.92)"/><path class="cls-5" d="M43.79,80.77v-.42a1.07,1.07,0,0,1-.95.5,1.39,1.39,0,0,1-.74-.22,1.48,1.48,0,0,1-.52-.63,2,2,0,0,1-.19-.91,2.47,2.47,0,0,1,.17-.92,1.33,1.33,0,0,1,.51-.63,1.37,1.37,0,0,1,.75-.21,1.19,1.19,0,0,1,.54.12,1.17,1.17,0,0,1,.39.34V76.12h.57v4.65ZM42,79.09a1.5,1.5,0,0,0,.27,1,.84.84,0,0,0,.65.32.78.78,0,0,0,.63-.31,1.36,1.36,0,0,0,.27-.93,1.59,1.59,0,0,0-.27-1,.84.84,0,0,0-.66-.32.78.78,0,0,0-.63.31A1.47,1.47,0,0,0,42,79.09Z" transform="translate(1.43 -21.92)"/><path class="cls-5" d="M47.42,80.77v-.49a1.23,1.23,0,0,1-1.07.57,1.26,1.26,0,0,1-.55-.12.91.91,0,0,1-.39-.28,1.11,1.11,0,0,1-.17-.43,2.3,2.3,0,0,1,0-.53V77.4h.57v1.87a2.63,2.63,0,0,0,0,.6.58.58,0,0,0,.23.36.73.73,0,0,0,.43.13.92.92,0,0,0,.48-.14.68.68,0,0,0,.32-.35,1.94,1.94,0,0,0,.09-.66V77.4h.57v3.37Z" transform="translate(1.43 -21.92)"/><path class="cls-5" d="M48.82,80.77V77.4h.52v.51a1.41,1.41,0,0,1,.36-.47.6.6,0,0,1,.37-.11,1.09,1.09,0,0,1,.58.18l-.19.53a.84.84,0,0,0-.42-.12.51.51,0,0,0-.34.11.58.58,0,0,0-.21.31,2.35,2.35,0,0,0-.1.67v1.76Z" transform="translate(1.43 -21.92)"/><path class="cls-5" d="M53.19,80.36a2.17,2.17,0,0,1-.61.38,1.81,1.81,0,0,1-.63.11,1.22,1.22,0,0,1-.85-.27.91.91,0,0,1-.3-.7,1,1,0,0,1,.11-.45,1,1,0,0,1,.3-.33,1.38,1.38,0,0,1,.41-.18,4.17,4.17,0,0,1,.51-.09,5.33,5.33,0,0,0,1-.2v-.15A.67.67,0,0,0,53,78a1,1,0,0,0-.65-.19,1,1,0,0,0-.6.14.83.83,0,0,0-.28.5l-.56-.08a1.34,1.34,0,0,1,.25-.58,1.17,1.17,0,0,1,.5-.34,2.27,2.27,0,0,1,.77-.11,2,2,0,0,1,.7.1.92.92,0,0,1,.4.25.87.87,0,0,1,.17.39,3.08,3.08,0,0,1,0,.53v.76a8.82,8.82,0,0,0,0,1,1.19,1.19,0,0,0,.14.4h-.59A1.31,1.31,0,0,1,53.19,80.36Zm0-1.28a4.52,4.52,0,0,1-.94.22,2.25,2.25,0,0,0-.5.11.45.45,0,0,0-.22.19.5.5,0,0,0,.09.65.78.78,0,0,0,.51.15,1.28,1.28,0,0,0,.59-.14.89.89,0,0,0,.37-.4,1.39,1.39,0,0,0,.1-.57Z" transform="translate(1.43 -21.92)"/><path class="cls-5" d="M55.86,80.26l.08.51a2.47,2.47,0,0,1-.43,0,1.09,1.09,0,0,1-.49-.1.6.6,0,0,1-.24-.26,2.27,2.27,0,0,1-.07-.68V77.85h-.42V77.4h.42v-.83l.57-.35V77.4h.58v.45h-.58v2a1,1,0,0,0,0,.31.21.21,0,0,0,.1.11.37.37,0,0,0,.2,0A1.29,1.29,0,0,0,55.86,80.26Z" transform="translate(1.43 -21.92)"/><path class="cls-5" d="M56.42,76.78v-.66H57v.66Zm0,4V77.4H57v3.37Z" transform="translate(1.43 -21.92)"/><path class="cls-5" d="M57.65,79.09a1.73,1.73,0,0,1,.52-1.39,1.56,1.56,0,0,1,1.06-.37,1.51,1.51,0,0,1,1.13.45A1.7,1.7,0,0,1,60.8,79a2.24,2.24,0,0,1-.19,1,1.39,1.39,0,0,1-.57.58,1.63,1.63,0,0,1-.81.21,1.49,1.49,0,0,1-1.15-.46A1.79,1.79,0,0,1,57.65,79.09Zm.58,0a1.44,1.44,0,0,0,.29,1,.9.9,0,0,0,.71.32.87.87,0,0,0,.7-.33,1.43,1.43,0,0,0,.29-1,1.38,1.38,0,0,0-.29-.95.91.91,0,0,0-.7-.32.87.87,0,0,0-.71.32A1.41,1.41,0,0,0,58.23,79.09Z" transform="translate(1.43 -21.92)"/><path class="cls-5" d="M61.47,80.77V77.4H62v.48a1.2,1.2,0,0,1,1.07-.55,1.47,1.47,0,0,1,.56.1.89.89,0,0,1,.38.29,1,1,0,0,1,.18.42,3.51,3.51,0,0,1,0,.56v2.07h-.57v-2a1.38,1.38,0,0,0-.07-.52.53.53,0,0,0-.23-.28.77.77,0,0,0-.4-.1,1,1,0,0,0-.63.23,1.14,1.14,0,0,0-.27.88v1.84Z" transform="translate(1.43 -21.92)"/><path class="cls-5" d="M23.89,88.57V85.2h.52v.51a1.41,1.41,0,0,1,.36-.47.6.6,0,0,1,.37-.11,1.12,1.12,0,0,1,.58.18l-.19.53a.84.84,0,0,0-.42-.12.51.51,0,0,0-.34.11.58.58,0,0,0-.21.31,2.35,2.35,0,0,0-.1.67v1.76Z" transform="translate(1.43 -21.92)"/><path class="cls-5" d="M28.27,88.57v-.49a1.23,1.23,0,0,1-1.07.57,1.26,1.26,0,0,1-.55-.12.86.86,0,0,1-.39-.28,1.11,1.11,0,0,1-.17-.43,2.3,2.3,0,0,1,0-.53V85.2h.57v1.87a2.63,2.63,0,0,0,0,.6.58.58,0,0,0,.23.36.73.73,0,0,0,.43.13A.92.92,0,0,0,27.8,88a.68.68,0,0,0,.32-.35,1.94,1.94,0,0,0,.09-.66V85.2h.57v3.37Z" transform="translate(1.43 -21.92)"/><path class="cls-5" d="M29.68,88.57V85.2h.51v.48a1.21,1.21,0,0,1,1.07-.55,1.52,1.52,0,0,1,.57.1,1,1,0,0,1,.38.29,1.33,1.33,0,0,1,.18.42,3.51,3.51,0,0,1,0,.56v2.07h-.57v-2a1.62,1.62,0,0,0-.07-.52.55.55,0,0,0-.24-.28.72.72,0,0,0-.4-.1,1,1,0,0,0-.63.23,1.18,1.18,0,0,0-.26.88v1.84Z" transform="translate(1.43 -21.92)"/><path class="cls-5" d="M33.29,88.57V85.2h.52v.48a1.19,1.19,0,0,1,1.07-.55,1.47,1.47,0,0,1,.56.1.89.89,0,0,1,.38.29,1,1,0,0,1,.18.42,3.51,3.51,0,0,1,0,.56v2.07h-.57v-2a1.38,1.38,0,0,0-.07-.52.53.53,0,0,0-.23-.28.77.77,0,0,0-.4-.1,1,1,0,0,0-.63.23,1.14,1.14,0,0,0-.27.88v1.84Z" transform="translate(1.43 -21.92)"/><path class="cls-5" d="M36.91,84.58v-.66h.57v.66Zm0,4V85.2h.57v3.37Z" transform="translate(1.43 -21.92)"/><path class="cls-5" d="M38.35,88.57V85.2h.52v.48a1.19,1.19,0,0,1,1.07-.55,1.47,1.47,0,0,1,.56.1.89.89,0,0,1,.38.29,1,1,0,0,1,.18.42,3.51,3.51,0,0,1,0,.56v2.07h-.57v-2a1.38,1.38,0,0,0-.07-.52.53.53,0,0,0-.23-.28.77.77,0,0,0-.4-.1,1,1,0,0,0-.63.23,1.14,1.14,0,0,0-.27.88v1.84Z" transform="translate(1.43 -21.92)"/><path class="cls-5" d="M41.86,88.85l.56.08a.56.56,0,0,0,.19.38,1,1,0,0,0,.58.16,1,1,0,0,0,.61-.16.79.79,0,0,0,.3-.45,3.76,3.76,0,0,0,0-.73,1.19,1.19,0,0,1-.94.44,1.27,1.27,0,0,1-1.07-.5,1.93,1.93,0,0,1-.38-1.2,2.35,2.35,0,0,1,.17-.89,1.46,1.46,0,0,1,.51-.63,1.35,1.35,0,0,1,.78-.22,1.2,1.2,0,0,1,1,.48V85.2h.53v2.91a2.72,2.72,0,0,1-.16,1.12,1.22,1.22,0,0,1-.51.52,1.72,1.72,0,0,1-.85.19,1.63,1.63,0,0,1-1-.27A.92.92,0,0,1,41.86,88.85Zm.48-2a1.41,1.41,0,0,0,.26,1,.81.81,0,0,0,.66.31.85.85,0,0,0,.66-.3,1.76,1.76,0,0,0,0-1.89.85.85,0,0,0-1.31,0A1.35,1.35,0,0,0,42.34,86.83Z" transform="translate(1.43 -21.92)"/><path class="cls-5" d="M47.38,88.57V85.2h.52v.51a1.41,1.41,0,0,1,.36-.47.6.6,0,0,1,.37-.11,1.12,1.12,0,0,1,.58.18l-.19.53a.84.84,0,0,0-.42-.12.51.51,0,0,0-.34.11.58.58,0,0,0-.21.31,2,2,0,0,0-.1.67v1.76Z" transform="translate(1.43 -21.92)"/><path class="cls-5" d="M51.75,88.16a2.17,2.17,0,0,1-.61.38,1.81,1.81,0,0,1-.63.11,1.22,1.22,0,0,1-.85-.27.91.91,0,0,1-.3-.7,1,1,0,0,1,.11-.45,1,1,0,0,1,.3-.33,1.38,1.38,0,0,1,.41-.18,4.17,4.17,0,0,1,.51-.09,5,5,0,0,0,1-.2,1.14,1.14,0,0,0,0-.15.67.67,0,0,0-.16-.49,1,1,0,0,0-.65-.19,1,1,0,0,0-.6.14.83.83,0,0,0-.28.5l-.56-.08a1.34,1.34,0,0,1,.25-.58,1.11,1.11,0,0,1,.5-.34,2.27,2.27,0,0,1,.77-.11,2,2,0,0,1,.7.1.92.92,0,0,1,.4.25.87.87,0,0,1,.17.39,3.08,3.08,0,0,1,0,.53v.76a6.89,6.89,0,0,0,0,1,1.19,1.19,0,0,0,.14.4h-.59A1.31,1.31,0,0,1,51.75,88.16Zm0-1.28a4.24,4.24,0,0,1-.93.22,2.25,2.25,0,0,0-.5.11.45.45,0,0,0-.22.19.43.43,0,0,0-.08.27.5.5,0,0,0,.17.38.78.78,0,0,0,.51.15,1.21,1.21,0,0,0,.58-.14.86.86,0,0,0,.38-.4,1.41,1.41,0,0,0,.09-.57Z" transform="translate(1.43 -21.92)"/><path class="cls-5" d="M53.17,88.57V85.2h.51v.48a1.21,1.21,0,0,1,1.07-.55,1.43,1.43,0,0,1,.56.1.93.93,0,0,1,.39.29,1.13,1.13,0,0,1,.17.42,2.44,2.44,0,0,1,0,.56v2.07h-.57v-2a1.62,1.62,0,0,0-.07-.52.55.55,0,0,0-.24-.28.72.72,0,0,0-.4-.1,1,1,0,0,0-.63.23,1.18,1.18,0,0,0-.26.88v1.84Z" transform="translate(1.43 -21.92)"/><path class="cls-5" d="M56.68,88.85l.55.08a.56.56,0,0,0,.2.38,1,1,0,0,0,.58.16,1.05,1.05,0,0,0,.61-.16.82.82,0,0,0,.29-.45,3.07,3.07,0,0,0,0-.73,1.18,1.18,0,0,1-.93.44,1.3,1.3,0,0,1-1.08-.5,1.93,1.93,0,0,1-.38-1.2,2.18,2.18,0,0,1,.18-.89,1.37,1.37,0,0,1,.5-.63,1.39,1.39,0,0,1,.78-.22,1.22,1.22,0,0,1,1,.48V85.2h.52v2.91a2.72,2.72,0,0,1-.16,1.12,1.14,1.14,0,0,1-.5.52,1.76,1.76,0,0,1-.86.19,1.59,1.59,0,0,1-1-.27A.92.92,0,0,1,56.68,88.85Zm.47-2a1.47,1.47,0,0,0,.26,1,.87.87,0,0,0,1.32,0,1.79,1.79,0,0,0,0-1.89.87.87,0,0,0-.67-.31.81.81,0,0,0-.64.31A1.35,1.35,0,0,0,57.15,86.83Z" transform="translate(1.43 -21.92)"/><path class="cls-5" d="M62.7,87.49l.6.07a1.5,1.5,0,0,1-.52.8,1.57,1.57,0,0,1-1,.29,1.52,1.52,0,0,1-1.17-.46,1.76,1.76,0,0,1-.43-1.27,1.86,1.86,0,0,1,.44-1.33,1.48,1.48,0,0,1,1.13-.46,1.45,1.45,0,0,1,1.11.46,1.82,1.82,0,0,1,.42,1.29V87H60.8a1.26,1.26,0,0,0,.31.85.94.94,0,0,0,.71.3.86.86,0,0,0,.53-.17A1,1,0,0,0,62.7,87.49Zm-1.87-.93h1.88a1.21,1.21,0,0,0-.21-.64.93.93,0,0,0-1.37-.06A1,1,0,0,0,60.83,86.56Z" transform="translate(1.43 -21.92)"/><rect class="繝後Μ_逋ｽ" x="21.98" y="99.26" width="41.46" height="14.17"/><path class="cls-5" d="M25.94,124.5l.61.15a2.05,2.05,0,0,1-.69,1.16,2,2,0,0,1-1.23.4,2.29,2.29,0,0,1-1.23-.31,1.87,1.87,0,0,1-.71-.89,3,3,0,0,1-.25-1.24,2.67,2.67,0,0,1,.28-1.27,1.84,1.84,0,0,1,.79-.82,2.29,2.29,0,0,1,1.13-.29,1.89,1.89,0,0,1,1.17.36,1.81,1.81,0,0,1,.66,1l-.6.14a1.51,1.51,0,0,0-.47-.74,1.29,1.29,0,0,0-.78-.23,1.51,1.51,0,0,0-.89.26,1.37,1.37,0,0,0-.51.69,2.72,2.72,0,0,0-.14.89,2.77,2.77,0,0,0,.17,1,1.27,1.27,0,0,0,.54.66,1.45,1.45,0,0,0,.79.22,1.31,1.31,0,0,0,.87-.3A1.55,1.55,0,0,0,25.94,124.5Z" transform="translate(1.43 -21.92)"/><path class="cls-5" d="M27,124.44a1.74,1.74,0,0,1,.52-1.39,1.61,1.61,0,0,1,1.06-.37,1.48,1.48,0,0,1,1.13.46,1.69,1.69,0,0,1,.45,1.25,2.24,2.24,0,0,1-.2,1,1.39,1.39,0,0,1-.57.58,1.73,1.73,0,0,1-.81.2,1.54,1.54,0,0,1-1.15-.45A1.82,1.82,0,0,1,27,124.44Zm.58,0a1.42,1.42,0,0,0,.29,1,.88.88,0,0,0,.71.32.9.9,0,0,0,.71-.32,1.54,1.54,0,0,0,.28-1,1.42,1.42,0,0,0-.29-1,.94.94,0,0,0-1.41,0A1.44,1.44,0,0,0,27.61,124.44Z" transform="translate(1.43 -21.92)"/><path class="cls-5" d="M30.85,126.13v-3.37h.52v.48a1.21,1.21,0,0,1,1.07-.56,1.47,1.47,0,0,1,.56.11.82.82,0,0,1,.38.29,1,1,0,0,1,.18.42,3.37,3.37,0,0,1,0,.55v2.08H33v-2a1.75,1.75,0,0,0-.06-.53.62.62,0,0,0-.24-.27.74.74,0,0,0-.4-.1.91.91,0,0,0-.63.23,1.11,1.11,0,0,0-.26.88v1.84Z" transform="translate(1.43 -21.92)"/><path class="cls-5" d="M35.72,125.62l.08.5a2.47,2.47,0,0,1-.43,0,.9.9,0,0,1-.48-.1.53.53,0,0,1-.25-.26,2.19,2.19,0,0,1-.07-.67V123.2h-.41v-.44h.41v-.84l.57-.34v1.18h.58v.44h-.58v2a1.08,1.08,0,0,0,0,.32.35.35,0,0,0,.1.11.5.5,0,0,0,.2,0Z" transform="translate(1.43 -21.92)"/><path class="cls-5" d="M36.28,122.13v-.66h.57v.66Zm0,4v-3.37h.57v3.37Z" transform="translate(1.43 -21.92)"/><path class="cls-5" d="M37.72,126.13v-3.37h.51v.48a1.23,1.23,0,0,1,1.08-.56,1.47,1.47,0,0,1,.56.11.88.88,0,0,1,.38.29,1.33,1.33,0,0,1,.18.42,3.37,3.37,0,0,1,0,.55v2.08h-.57v-2a1.44,1.44,0,0,0-.07-.53.52.52,0,0,0-.24-.27.71.71,0,0,0-.39-.1.88.88,0,0,0-.63.23,1.11,1.11,0,0,0-.27.88v1.84Z" transform="translate(1.43 -21.92)"/><path class="cls-5" d="M43.54,126.13v-.5a1.23,1.23,0,0,1-1.07.57,1.46,1.46,0,0,1-.55-.11.93.93,0,0,1-.39-.29,1.06,1.06,0,0,1-.17-.42,2.35,2.35,0,0,1,0-.54v-2.08h.57v1.87a2.69,2.69,0,0,0,0,.6.54.54,0,0,0,.23.35.67.67,0,0,0,.43.13.91.91,0,0,0,.48-.13.74.74,0,0,0,.32-.36,1.86,1.86,0,0,0,.09-.66v-1.8h.57v3.37Z" transform="translate(1.43 -21.92)"/><path class="cls-5" d="M44.74,124.44a1.74,1.74,0,0,1,.52-1.39,1.61,1.61,0,0,1,1.06-.37,1.48,1.48,0,0,1,1.13.46,1.69,1.69,0,0,1,.45,1.25,2.24,2.24,0,0,1-.2,1,1.39,1.39,0,0,1-.57.58,1.73,1.73,0,0,1-.81.2,1.54,1.54,0,0,1-1.15-.45A1.82,1.82,0,0,1,44.74,124.44Zm.58,0a1.42,1.42,0,0,0,.29,1,.88.88,0,0,0,.71.32.9.9,0,0,0,.71-.32,1.54,1.54,0,0,0,.28-1,1.42,1.42,0,0,0-.29-1,.94.94,0,0,0-1.41,0A1.44,1.44,0,0,0,45.32,124.44Z" transform="translate(1.43 -21.92)"/><path class="cls-5" d="M50.77,126.13v-.5a1.23,1.23,0,0,1-1.07.57,1.46,1.46,0,0,1-.55-.11.93.93,0,0,1-.39-.29,1.06,1.06,0,0,1-.17-.42,2.35,2.35,0,0,1,0-.54v-2.08h.57v1.87a2.69,2.69,0,0,0,0,.6.54.54,0,0,0,.23.35.67.67,0,0,0,.43.13.91.91,0,0,0,.48-.13.74.74,0,0,0,.32-.36,1.86,1.86,0,0,0,.09-.66v-1.8h.57v3.37Z" transform="translate(1.43 -21.92)"/><path class="cls-5" d="M52,125.12l.57-.09a.79.79,0,0,0,.26.52.94.94,0,0,0,.61.18.86.86,0,0,0,.58-.16.46.46,0,0,0,.19-.37.36.36,0,0,0-.16-.31,2.83,2.83,0,0,0-.59-.19,5.22,5.22,0,0,1-.87-.28.83.83,0,0,1-.37-.32.84.84,0,0,1-.12-.45.87.87,0,0,1,.1-.42,1.06,1.06,0,0,1,.28-.32,1.21,1.21,0,0,1,.36-.16,1.63,1.63,0,0,1,.5-.07,2.08,2.08,0,0,1,.69.11,1,1,0,0,1,.45.31,1.22,1.22,0,0,1,.19.53l-.56.07a.54.54,0,0,0-.22-.4.78.78,0,0,0-.51-.15.91.91,0,0,0-.56.13.37.37,0,0,0-.17.3.27.27,0,0,0,.07.2.42.42,0,0,0,.22.16l.5.14a6.75,6.75,0,0,1,.85.27.85.85,0,0,1,.37.3.84.84,0,0,1,.14.49.86.86,0,0,1-.17.53,1,1,0,0,1-.48.39,1.61,1.61,0,0,1-.71.14,1.59,1.59,0,0,1-1-.27A1.24,1.24,0,0,1,52,125.12Z" transform="translate(1.43 -21.92)"/><path class="cls-5" d="M22.54,133.93v-3.37h.51v.51a1.47,1.47,0,0,1,.37-.48.66.66,0,0,1,.36-.11,1.12,1.12,0,0,1,.59.18l-.2.53a.84.84,0,0,0-.42-.12.57.57,0,0,0-.33.11.6.6,0,0,0-.21.32,2,2,0,0,0-.1.66v1.77Z" transform="translate(1.43 -21.92)"/><path class="cls-5" d="M26.92,133.93v-.5a1.23,1.23,0,0,1-1.07.57,1.47,1.47,0,0,1-.56-.11.89.89,0,0,1-.38-.29,1.24,1.24,0,0,1-.18-.42,3.39,3.39,0,0,1,0-.54v-2.08h.57v1.87a3.86,3.86,0,0,0,0,.6.62.62,0,0,0,.23.35.69.69,0,0,0,.43.13.92.92,0,0,0,.49-.13.72.72,0,0,0,.31-.36,1.63,1.63,0,0,0,.1-.66v-1.8h.57v3.37Z" transform="translate(1.43 -21.92)"/><path class="cls-5" d="M28.33,133.93v-3.37h.51V131a1.21,1.21,0,0,1,1.07-.56,1.43,1.43,0,0,1,.56.11.82.82,0,0,1,.38.29,1,1,0,0,1,.18.42,3.37,3.37,0,0,1,0,.55v2.08h-.57v-2.05a1.75,1.75,0,0,0-.06-.53.62.62,0,0,0-.24-.27.74.74,0,0,0-.4-.1.91.91,0,0,0-.63.23,1.11,1.11,0,0,0-.26.88v1.84Z" transform="translate(1.43 -21.92)"/><path class="cls-5" d="M31.94,133.93v-3.37h.51V131a1.23,1.23,0,0,1,1.08-.56,1.47,1.47,0,0,1,.56.11.82.82,0,0,1,.38.29,1.33,1.33,0,0,1,.18.42,3.37,3.37,0,0,1,0,.55v2.08h-.57v-2.05a1.44,1.44,0,0,0-.07-.53.52.52,0,0,0-.24-.27.71.71,0,0,0-.39-.1.88.88,0,0,0-.63.23,1.11,1.11,0,0,0-.27.88v1.84Z" transform="translate(1.43 -21.92)"/><path class="cls-5" d="M35.56,129.93v-.66h.57v.66Zm0,4v-3.37h.57v3.37Z" transform="translate(1.43 -21.92)"/><path class="cls-5" d="M37,133.93v-3.37h.51V131a1.23,1.23,0,0,1,1.08-.56,1.47,1.47,0,0,1,.56.11.88.88,0,0,1,.38.29,1.33,1.33,0,0,1,.18.42,3.37,3.37,0,0,1,0,.55v2.08h-.57v-2.05a1.69,1.69,0,0,0-.07-.53.52.52,0,0,0-.24-.27.71.71,0,0,0-.39-.1.88.88,0,0,0-.63.23,1.11,1.11,0,0,0-.27.88v1.84Z" transform="translate(1.43 -21.92)"/><path class="cls-5" d="M40.51,134.21l.55.08a.52.52,0,0,0,.2.37.91.91,0,0,0,.58.16,1,1,0,0,0,.61-.16.72.72,0,0,0,.29-.44,3.56,3.56,0,0,0,0-.73,1.2,1.2,0,0,1-.94.44,1.27,1.27,0,0,1-1.07-.5,1.92,1.92,0,0,1-.38-1.21,2.17,2.17,0,0,1,.17-.89,1.39,1.39,0,0,1,.51-.63,1.35,1.35,0,0,1,.78-.22,1.22,1.22,0,0,1,1,.48v-.4h.53v2.91a2.94,2.94,0,0,1-.16,1.12,1.2,1.2,0,0,1-.51.51,1.74,1.74,0,0,1-.86.19,1.61,1.61,0,0,1-1-.27A.9.9,0,0,1,40.51,134.21Zm.47-2a1.44,1.44,0,0,0,.27,1,.83.83,0,0,0,.66.3.85.85,0,0,0,.66-.3,1.46,1.46,0,0,0,.26-1,1.39,1.39,0,0,0-.27-.93.86.86,0,0,0-.66-.32.84.84,0,0,0-.65.31A1.38,1.38,0,0,0,41,132.18Z" transform="translate(1.43 -21.92)"/><path class="cls-5" d="M46,133.93v-3.37h.51v.51a1.47,1.47,0,0,1,.37-.48.66.66,0,0,1,.36-.11,1.12,1.12,0,0,1,.59.18l-.2.53a.84.84,0,0,0-.42-.12.57.57,0,0,0-.33.11.6.6,0,0,0-.21.32,2,2,0,0,0-.1.66v1.77Z" transform="translate(1.43 -21.92)"/><path class="cls-5" d="M50.4,133.51a2.08,2.08,0,0,1-.61.38,1.67,1.67,0,0,1-.63.11,1.25,1.25,0,0,1-.86-.27A.91.91,0,0,1,48,133a.84.84,0,0,1,.11-.45.85.85,0,0,1,.29-.33,1.28,1.28,0,0,1,.41-.19l.51-.09a5.49,5.49,0,0,0,1-.19v-.15a.61.61,0,0,0-.16-.49.94.94,0,0,0-.65-.2,1,1,0,0,0-.59.14.87.87,0,0,0-.29.5l-.56-.07a1.48,1.48,0,0,1,.26-.58,1,1,0,0,1,.5-.34,2.2,2.2,0,0,1,.76-.12,2,2,0,0,1,.71.1.83.83,0,0,1,.39.26.79.79,0,0,1,.18.39,2.94,2.94,0,0,1,0,.52v.76a6.8,6.8,0,0,0,0,1,1.25,1.25,0,0,0,.14.41h-.6A1.29,1.29,0,0,1,50.4,133.51Zm0-1.27a4.67,4.67,0,0,1-.93.21,1.64,1.64,0,0,0-.5.12.52.52,0,0,0-.23.18.5.5,0,0,0-.07.27.47.47,0,0,0,.17.38.73.73,0,0,0,.5.16,1.15,1.15,0,0,0,.59-.15,1,1,0,0,0,.38-.39,1.43,1.43,0,0,0,.09-.58Z" transform="translate(1.43 -21.92)"/><path class="cls-5" d="M51.81,133.93v-3.37h.52V131a1.21,1.21,0,0,1,1.07-.56,1.47,1.47,0,0,1,.56.11.82.82,0,0,1,.38.29,1,1,0,0,1,.18.42,3.37,3.37,0,0,1,0,.55v2.08H54v-2.05a1.75,1.75,0,0,0-.06-.53.62.62,0,0,0-.24-.27.74.74,0,0,0-.4-.1.91.91,0,0,0-.63.23,1.11,1.11,0,0,0-.26.88v1.84Z" transform="translate(1.43 -21.92)"/><path class="cls-5" d="M55.32,134.21l.56.08a.51.51,0,0,0,.19.37,1,1,0,0,0,.58.16,1,1,0,0,0,.62-.16.76.76,0,0,0,.29-.44,3.83,3.83,0,0,0,0-.73,1.18,1.18,0,0,1-.93.44,1.29,1.29,0,0,1-1.08-.5,2,2,0,0,1-.38-1.21,2.18,2.18,0,0,1,.18-.89,1.37,1.37,0,0,1,.5-.63,1.35,1.35,0,0,1,.78-.22,1.19,1.19,0,0,1,1,.48v-.4h.53v2.91a2.75,2.75,0,0,1-.16,1.12,1.2,1.2,0,0,1-.51.51,1.7,1.7,0,0,1-.85.19,1.65,1.65,0,0,1-1-.27A1,1,0,0,1,55.32,134.21Zm.48-2a1.5,1.5,0,0,0,.26,1,.88.88,0,0,0,1.32,0,1.4,1.4,0,0,0,.27-1,1.34,1.34,0,0,0-.28-.93.84.84,0,0,0-.66-.32.86.86,0,0,0-.65.31A1.44,1.44,0,0,0,55.8,132.18Z" transform="translate(1.43 -21.92)"/><path class="cls-5" d="M61.35,132.84l.59.07a1.42,1.42,0,0,1-.51.81,1.59,1.59,0,0,1-1,.28,1.55,1.55,0,0,1-1.17-.45,1.79,1.79,0,0,1-.44-1.28,1.86,1.86,0,0,1,.44-1.32,1.49,1.49,0,0,1,1.14-.47,1.41,1.41,0,0,1,1.1.46,1.82,1.82,0,0,1,.43,1.3v.15H59.44a1.34,1.34,0,0,0,.32.85,1,1,0,0,0,.7.29.89.89,0,0,0,.54-.16A1.05,1.05,0,0,0,61.35,132.84Zm-1.87-.92h1.88a1.15,1.15,0,0,0-.22-.64.88.88,0,0,0-.71-.33.93.93,0,0,0-.66.26A1,1,0,0,0,59.48,131.92Z" transform="translate(1.43 -21.92)"/><path class="cls-5" d="M44.76,150.56l.58-.06a1.32,1.32,0,0,0,.19.58,1,1,0,0,0,.47.36,1.8,1.8,0,0,0,.71.14,1.67,1.67,0,0,0,.62-.11.91.91,0,0,0,.41-.28.76.76,0,0,0,.13-.4.65.65,0,0,0-.13-.39.92.92,0,0,0-.42-.27c-.12,0-.4-.12-.83-.23a4.51,4.51,0,0,1-.9-.29,1.22,1.22,0,0,1-.49-.43,1.06,1.06,0,0,1-.17-.58,1.19,1.19,0,0,1,.79-1.12,2.11,2.11,0,0,1,.85-.16,2.31,2.31,0,0,1,.91.16,1.33,1.33,0,0,1,.61.5,1.4,1.4,0,0,1,.23.73l-.59,0a1,1,0,0,0-.32-.66,1.24,1.24,0,0,0-.81-.23,1.3,1.3,0,0,0-.82.21.6.6,0,0,0-.25.49.52.52,0,0,0,.18.41,2.39,2.39,0,0,0,.93.33,7.58,7.58,0,0,1,1,.3,1.47,1.47,0,0,1,.6.47,1.19,1.19,0,0,1,.19.67,1.3,1.3,0,0,1-.21.7,1.4,1.4,0,0,1-.61.51,2.19,2.19,0,0,1-.9.18,2.76,2.76,0,0,1-1.06-.18,1.54,1.54,0,0,1-.67-.56A1.56,1.56,0,0,1,44.76,150.56Z" transform="translate(1.43 -21.92)"/><path class="cls-5" d="M49.23,153.34v-4.66h.52v.44a1.29,1.29,0,0,1,.42-.39,1.19,1.19,0,0,1,.56-.13,1.34,1.34,0,0,1,.76.23,1.35,1.35,0,0,1,.5.62,2.39,2.39,0,0,1,0,1.82,1.36,1.36,0,0,1-.54.64,1.45,1.45,0,0,1-.74.22,1.11,1.11,0,0,1-.52-.12,1.25,1.25,0,0,1-.37-.31v1.64Zm.52-3a1.46,1.46,0,0,0,.26,1,.82.82,0,0,0,1.29,0,2,2,0,0,0,0-2,.82.82,0,0,0-.64-.32.8.8,0,0,0-.64.34A1.52,1.52,0,0,0,49.75,150.38Z" transform="translate(1.43 -21.92)"/><path class="cls-5" d="M55.15,151l.59.07a1.39,1.39,0,0,1-.52.8,1.72,1.72,0,0,1-2.13-.17,1.77,1.77,0,0,1-.44-1.28,1.9,1.9,0,0,1,.44-1.32,1.49,1.49,0,0,1,1.14-.47,1.45,1.45,0,0,1,1.1.46,1.82,1.82,0,0,1,.43,1.3v.15H53.24a1.29,1.29,0,0,0,.32.85.92.92,0,0,0,.7.3.89.89,0,0,0,.54-.17A1.09,1.09,0,0,0,55.15,151ZM53.28,150h1.88a1.21,1.21,0,0,0-.22-.64.88.88,0,0,0-.71-.33.9.9,0,0,0-.66.27A1,1,0,0,0,53.28,150Z" transform="translate(1.43 -21.92)"/><path class="cls-5" d="M58.77,151l.59.07a1.5,1.5,0,0,1-.52.8,1.74,1.74,0,0,1-2.14-.17,1.77,1.77,0,0,1-.43-1.28,1.85,1.85,0,0,1,.44-1.32,1.58,1.58,0,0,1,2.24,0,1.87,1.87,0,0,1,.43,1.3s0,.08,0,.15H56.86a1.28,1.28,0,0,0,.31.85.94.94,0,0,0,.71.3.84.84,0,0,0,.53-.17A1.1,1.1,0,0,0,58.77,151ZM56.89,150h1.88a1.13,1.13,0,0,0-.21-.64.93.93,0,0,0-1.37-.06A1,1,0,0,0,56.89,150Z" transform="translate(1.43 -21.92)"/><path class="cls-5" d="M62.26,152.05v-.42a1.05,1.05,0,0,1-.94.5,1.3,1.3,0,0,1-.74-.23,1.41,1.41,0,0,1-.53-.62,2.17,2.17,0,0,1-.18-.91,2.29,2.29,0,0,1,.17-.92,1.37,1.37,0,0,1,.5-.63,1.4,1.4,0,0,1,.75-.22,1.21,1.21,0,0,1,.55.13,1.24,1.24,0,0,1,.38.34V147.4h.57v4.65Zm-1.81-1.68a1.5,1.5,0,0,0,.28,1,.82.82,0,0,0,.64.32.84.84,0,0,0,.64-.31,1.43,1.43,0,0,0,.26-.93,1.58,1.58,0,0,0-.27-1,.82.82,0,0,0-1.29,0A1.53,1.53,0,0,0,60.45,150.37Z" transform="translate(1.43 -21.92)"/><path class="cls-5" d="M65.51,153.34V147.4h1.26v.47h-.69v5h.69v.47Z" transform="translate(1.43 -21.92)"/><path class="cls-5" d="M67.29,152.05v-3.37h.52v.51a1.31,1.31,0,0,1,.36-.47.63.63,0,0,1,.37-.12,1.17,1.17,0,0,1,.59.19l-.2.53a.86.86,0,0,0-.42-.13.52.52,0,0,0-.34.12.58.58,0,0,0-.21.31,2.31,2.31,0,0,0-.09.67v1.76Z" transform="translate(1.43 -21.92)"/><path class="cls-5" d="M69,152.13l1.35-4.81h.45l-1.34,4.81Z" transform="translate(1.43 -21.92)"/><path class="cls-5" d="M71.27,152.05v-3.37h.51v.47a1.46,1.46,0,0,1,.42-.4,1.21,1.21,0,0,1,.6-.15,1.16,1.16,0,0,1,.62.16.86.86,0,0,1,.34.43,1.2,1.2,0,0,1,1-.59,1.05,1.05,0,0,1,.77.28,1.2,1.2,0,0,1,.27.86v2.31h-.57v-2.12a1.49,1.49,0,0,0-.06-.5.42.42,0,0,0-.2-.24.62.62,0,0,0-.34-.09.79.79,0,0,0-.59.24,1,1,0,0,0-.23.75v2h-.58v-2.19a.92.92,0,0,0-.14-.57.51.51,0,0,0-.45-.19.81.81,0,0,0-.45.13.7.7,0,0,0-.3.37,2.12,2.12,0,0,0-.09.7v1.75Z" transform="translate(1.43 -21.92)"/><path class="cls-5" d="M76.69,148.05v-.65h.57v.65Zm0,4v-3.37h.57v3.37Z" transform="translate(1.43 -21.92)"/><path class="cls-5" d="M78.13,152.05v-3.37h.51v.48a1.23,1.23,0,0,1,1.08-.56,1.47,1.47,0,0,1,.56.11,1,1,0,0,1,.38.29,1.33,1.33,0,0,1,.18.42,3.51,3.51,0,0,1,0,.56v2.07H80.3V150a1.38,1.38,0,0,0-.07-.52.5.5,0,0,0-.24-.28.71.71,0,0,0-.39-.1.92.92,0,0,0-.63.23,1.13,1.13,0,0,0-.27.88v1.84Z" transform="translate(1.43 -21.92)"/><path class="cls-5" d="M82.7,153.34H81.44v-.47h.69v-5h-.69v-.47H82.7Z" transform="translate(1.43 -21.92)"/></g></svg>