<?xml version="1.0" encoding="UTF-8"?><svg id="d" xmlns="http://www.w3.org/2000/svg" viewBox="0 0 115.41 130.55"><line x1="84.65" y1="103.95" x2="84.65" y2="105.5" fill="none" stroke="#9fa0a0" stroke-miterlimit="10"/><line x1="84.65" y1="106.66" x2="84.65" y2="113.16" fill="none" stroke="#9fa0a0" stroke-dasharray="0 0 2.39 1.15" stroke-miterlimit="10"/><line x1="84.65" y1="113.74" x2="84.65" y2="115.29" fill="none" stroke="#9fa0a0" stroke-miterlimit="10"/><line x1="44.13" y1="1.91" x2="44.13" y2="115.29" fill="none" stroke="#231815" stroke-linejoin="round" stroke-width=".14"/><line x1="71.21" y1="1.91" x2="71.21" y2="115.29" fill="none" stroke="#231815" stroke-linejoin="round" stroke-width=".14"/><line x1="98.28" y1="1.91" x2="98.28" y2="115.29" fill="none" stroke="#231815" stroke-linejoin="round" stroke-width=".14"/><line x1="17.05" y1="96.13" x2="107.64" y2="96.13" fill="none" stroke="#231815" stroke-miterlimit="10" stroke-width=".14"/><line x1="17.05" y1="77.29" x2="107.64" y2="77.29" fill="none" stroke="#231815" stroke-miterlimit="10" stroke-width=".14"/><line x1="17.05" y1="58.46" x2="107.64" y2="58.46" fill="none" stroke="#231815" stroke-miterlimit="10" stroke-width=".14"/><line x1="17.05" y1="39.63" x2="107.64" y2="39.63" fill="none" stroke="#231815" stroke-miterlimit="10" stroke-width=".14"/><line x1="17.05" y1="20.74" x2="107.64" y2="20.74" fill="none" stroke="#231815" stroke-miterlimit="10" stroke-width=".14"/><polyline points="17.06 92.47 23.81 92.47 30.59 92.47 49.52 92.47 57.62 96.98 71.15 101.5 84.65 104.19 98.18 105.96 107.65 106.89" fill="none" stroke="#9fa0a0" stroke-linecap="round" stroke-linejoin="round" stroke-width="3"/><polyline points="17.06 92.47 23.81 92.47 30.59 92.47 49.52 92.47 57.62 96.98 71.15 101.5 84.65 104.19 98.18 105.96 107.65 106.89" fill="none" stroke="#231815" stroke-linecap="round" stroke-linejoin="round"/><path d="m15.83,119.2c0-.42.04-.76.13-1.02.09-.26.22-.46.4-.6s.4-.21.67-.21c.2,0,.37.04.52.12.15.08.27.19.37.33.1.15.17.32.23.53.06.21.08.49.08.85,0,.42-.04.76-.13,1.02-.09.26-.22.46-.4.6-.18.14-.4.21-.67.21-.36,0-.64-.12-.84-.37-.24-.3-.37-.78-.37-1.46Zm.47,0c0,.59.07.98.21,1.17.14.19.32.29.53.29s.38-.1.53-.29.21-.59.21-1.17-.07-.98-.21-1.17-.32-.29-.53-.29-.37.09-.5.26c-.16.22-.23.62-.23,1.21Z" fill="#231815"/><path d="m106.68,118.26l-.45.03c-.04-.17-.1-.3-.17-.38-.12-.13-.27-.19-.45-.19-.14,0-.27.04-.38.12-.14.1-.26.25-.34.44-.08.19-.13.47-.13.83.11-.16.24-.28.4-.36.16-.08.32-.12.5-.12.3,0,.56.11.77.32.21.22.32.49.32.84,0,.22-.05.43-.15.63-.1.19-.24.34-.41.44-.17.1-.37.15-.59.15-.38,0-.69-.13-.93-.4-.24-.27-.36-.71-.36-1.33,0-.69.13-1.19.4-1.51.23-.27.54-.41.93-.41.29,0,.53.08.71.24.19.16.3.38.33.65Zm-1.85,1.54c0,.15.03.3.1.43s.16.24.28.32c.12.07.24.11.38.11.19,0,.36-.07.49-.22.14-.15.21-.35.21-.61s-.07-.44-.2-.58c-.14-.14-.31-.21-.51-.21s-.38.07-.52.21c-.14.14-.21.33-.21.56Z" fill="#231815"/><path d="m107.26,117.85v-.42h2.39v.34c-.24.24-.47.56-.7.97-.23.4-.41.82-.54,1.24-.09.3-.15.63-.17.98h-.47c0-.28.06-.62.17-1.02.11-.4.27-.78.47-1.15.2-.37.42-.68.65-.94h-1.81Z" fill="#231815"/><path d="m110.1,119.2c0-.42.04-.76.13-1.02.09-.26.22-.46.4-.6s.4-.21.67-.21c.2,0,.37.04.52.12.15.08.27.19.37.33.1.15.17.32.23.53.06.21.08.49.08.85,0,.42-.04.76-.13,1.02-.09.26-.22.46-.4.6-.18.14-.4.21-.67.21-.36,0-.64-.12-.84-.37-.24-.3-.37-.78-.37-1.46Zm.47,0c0,.59.07.98.21,1.17.14.19.32.29.53.29s.38-.1.53-.29.21-.59.21-1.17-.07-.98-.21-1.17-.32-.29-.53-.29-.37.09-.5.26c-.16.22-.23.62-.23,1.21Z" fill="#231815"/><path d="m113,119.2c0-.42.04-.76.13-1.02.09-.26.22-.46.4-.6s.4-.21.67-.21c.2,0,.37.04.52.12.15.08.27.19.37.33.1.15.17.32.23.53.06.21.08.49.08.85,0,.42-.04.76-.13,1.02-.09.26-.22.46-.4.6-.18.14-.4.21-.67.21-.36,0-.64-.12-.84-.37-.24-.3-.37-.78-.37-1.46Zm.47,0c0,.59.07.98.21,1.17.14.19.32.29.53.29s.38-.1.53-.29.21-.59.21-1.17-.07-.98-.21-1.17-.32-.29-.53-.29-.37.09-.5.26c-.16.22-.23.62-.23,1.21Z" fill="#231815"/><path d="m40.93,120.54v.42h-2.37c0-.11.01-.21.05-.31.06-.16.16-.32.29-.48.13-.16.32-.34.57-.54.39-.32.65-.57.79-.76.14-.19.21-.36.21-.53,0-.17-.06-.32-.19-.44-.12-.12-.29-.18-.49-.18-.21,0-.38.06-.51.19s-.19.3-.19.53l-.45-.05c.03-.34.15-.59.35-.77.2-.18.47-.26.81-.26s.62.1.82.29.3.43.3.71c0,.14-.03.28-.09.42s-.16.28-.29.44c-.14.15-.36.36-.68.63-.26.22-.43.37-.51.45-.07.08-.14.16-.19.24h1.76Z" fill="#231815"/><path d="m41.43,119.2c0-.42.04-.76.13-1.02.09-.26.22-.46.39-.6.17-.14.39-.21.65-.21.19,0,.36.04.51.12.15.08.26.19.36.33.09.15.17.32.22.53.05.21.08.49.08.85,0,.42-.04.76-.13,1.02-.09.26-.22.46-.39.6-.17.14-.39.21-.65.21-.35,0-.62-.12-.81-.37-.24-.3-.35-.78-.35-1.46Zm.45,0c0,.59.07.98.21,1.17.14.19.31.29.51.29s.37-.1.51-.29c.14-.2.21-.59.21-1.17s-.07-.98-.21-1.17c-.14-.19-.31-.29-.51-.29s-.36.09-.48.26c-.15.22-.23.62-.23,1.21Z" fill="#231815"/><path d="m44.18,119.2c0-.42.04-.76.13-1.02.09-.26.22-.46.39-.6.17-.14.39-.21.65-.21.19,0,.36.04.51.12.15.08.26.19.36.33.09.15.17.32.22.53.05.21.08.49.08.85,0,.42-.04.76-.13,1.02-.09.26-.22.46-.39.6-.17.14-.39.21-.65.21-.35,0-.62-.12-.81-.37-.24-.3-.35-.78-.35-1.46Zm.45,0c0,.59.07.98.21,1.17.14.19.31.29.51.29s.37-.1.51-.29c.14-.2.21-.59.21-1.17s-.07-.98-.21-1.17c-.14-.19-.31-.29-.51-.29s-.36.09-.48.26c-.15.22-.23.62-.23,1.21Z" fill="#231815"/><path d="m46.99,119.2c0-.42.04-.76.13-1.02.09-.26.22-.46.39-.6.17-.14.39-.21.65-.21.19,0,.36.04.51.12.15.08.26.19.36.33.09.15.17.32.22.53.05.21.08.49.08.85,0,.42-.04.76-.13,1.02-.09.26-.22.46-.39.6-.17.14-.39.21-.65.21-.35,0-.62-.12-.81-.37-.24-.3-.35-.78-.35-1.46Zm.45,0c0,.59.07.98.21,1.17.14.19.31.29.51.29s.37-.1.51-.29c.14-.2.21-.59.21-1.17s-.07-.98-.21-1.17c-.14-.19-.31-.29-.51-.29s-.36.09-.48.26c-.15.22-.23.62-.23,1.21Z" fill="#231815"/><path d="m66.97,120.96v-.86h-1.55v-.4l1.63-2.32h.36v2.32h.48v.4h-.48v.86h-.44Zm0-1.26v-1.61l-1.12,1.61h1.12Z" fill="#231815"/><path d="m68.37,119.2c0-.42.04-.76.13-1.02.09-.26.22-.46.39-.6.17-.14.39-.21.65-.21.19,0,.36.04.51.12.15.08.26.19.36.33.09.15.17.32.22.53.05.21.08.49.08.85,0,.42-.04.76-.13,1.02-.09.26-.22.46-.39.6-.17.14-.39.21-.65.21-.35,0-.62-.12-.81-.37-.24-.3-.35-.78-.35-1.46Zm.45,0c0,.59.07.98.21,1.17.14.19.31.29.51.29s.37-.1.51-.29c.14-.2.21-.59.21-1.17s-.07-.98-.21-1.17c-.14-.19-.31-.29-.51-.29s-.36.09-.48.26c-.15.22-.23.62-.23,1.21Z" fill="#231815"/><path d="m71.12,119.2c0-.42.04-.76.13-1.02.09-.26.22-.46.39-.6.17-.14.39-.21.65-.21.19,0,.36.04.51.12.15.08.26.19.36.33.09.15.17.32.22.53.05.21.08.49.08.85,0,.42-.04.76-.13,1.02-.09.26-.22.46-.39.6-.17.14-.39.21-.65.21-.35,0-.62-.12-.81-.37-.24-.3-.35-.78-.35-1.46Zm.45,0c0,.59.07.98.21,1.17.14.19.31.29.51.29s.37-.1.51-.29c.14-.2.21-.59.21-1.17s-.07-.98-.21-1.17c-.14-.19-.31-.29-.51-.29s-.36.09-.48.26c-.15.22-.23.62-.23,1.21Z" fill="#231815"/><path d="m73.93,119.2c0-.42.04-.76.13-1.02.09-.26.22-.46.39-.6.17-.14.39-.21.65-.21.19,0,.36.04.51.12.15.08.26.19.36.33.09.15.17.32.22.53.05.21.08.49.08.85,0,.42-.04.76-.13,1.02-.09.26-.22.46-.39.6-.17.14-.39.21-.65.21-.35,0-.62-.12-.81-.37-.24-.3-.35-.78-.35-1.46Zm.45,0c0,.59.07.98.21,1.17.14.19.31.29.51.29s.37-.1.51-.29c.14-.2.21-.59.21-1.17s-.07-.98-.21-1.17c-.14-.19-.31-.29-.51-.29s-.36.09-.48.26c-.15.22-.23.62-.23,1.21Z" fill="#231815"/><path d="m94.75,118.26l-.44.03c-.04-.17-.09-.3-.17-.38-.12-.13-.27-.19-.44-.19-.14,0-.26.04-.37.12-.14.1-.25.25-.33.44s-.12.47-.12.83c.11-.16.24-.28.39-.36s.31-.12.48-.12c.29,0,.54.11.75.32.21.22.31.49.31.84,0,.22-.05.43-.15.63-.1.19-.23.34-.4.44s-.36.15-.58.15c-.37,0-.67-.13-.9-.4-.23-.27-.35-.71-.35-1.33,0-.69.13-1.19.38-1.51.22-.27.52-.41.9-.41.28,0,.51.08.69.24.18.16.29.38.32.65Zm-1.79,1.54c0,.15.03.3.1.43.06.14.15.24.27.32.12.07.24.11.36.11.19,0,.35-.07.48-.22s.2-.35.2-.61-.07-.44-.2-.58c-.13-.14-.3-.21-.5-.21s-.37.07-.51.21c-.14.14-.21.33-.21.56Z" fill="#231815"/><path d="m95.28,119.2c0-.42.04-.76.13-1.02.09-.26.22-.46.39-.6.17-.14.39-.21.65-.21.19,0,.36.04.51.12.15.08.26.19.36.33.09.15.17.32.22.53.05.21.08.49.08.85,0,.42-.04.76-.13,1.02-.09.26-.22.46-.39.6-.17.14-.39.21-.65.21-.35,0-.62-.12-.81-.37-.24-.3-.35-.78-.35-1.46Zm.45,0c0,.59.07.98.21,1.17.14.19.31.29.51.29s.37-.1.51-.29c.14-.2.21-.59.21-1.17s-.07-.98-.21-1.17c-.14-.19-.31-.29-.51-.29s-.36.09-.48.26c-.15.22-.23.62-.23,1.21Z" fill="#231815"/><path d="m98.03,119.2c0-.42.04-.76.13-1.02.09-.26.22-.46.39-.6.17-.14.39-.21.65-.21.19,0,.36.04.51.12.15.08.26.19.36.33.09.15.17.32.22.53.05.21.08.49.08.85,0,.42-.04.76-.13,1.02-.09.26-.22.46-.39.6-.17.14-.39.21-.65.21-.35,0-.62-.12-.81-.37-.24-.3-.35-.78-.35-1.46Zm.45,0c0,.59.07.98.21,1.17.14.19.31.29.51.29s.37-.1.51-.29c.14-.2.21-.59.21-1.17s-.07-.98-.21-1.17c-.14-.19-.31-.29-.51-.29s-.36.09-.48.26c-.15.22-.23.62-.23,1.21Z" fill="#231815"/><path d="m100.84,119.2c0-.42.04-.76.13-1.02.09-.26.22-.46.39-.6.17-.14.39-.21.65-.21.19,0,.36.04.51.12.15.08.26.19.36.33.09.15.17.32.22.53.05.21.08.49.08.85,0,.42-.04.76-.13,1.02-.09.26-.22.46-.39.6-.17.14-.39.21-.65.21-.35,0-.62-.12-.81-.37-.24-.3-.35-.78-.35-1.46Zm.45,0c0,.59.07.98.21,1.17.14.19.31.29.51.29s.37-.1.51-.29c.14-.2.21-.59.21-1.17s-.07-.98-.21-1.17c-.14-.19-.31-.29-.51-.29s-.36.09-.48.26c-.15.22-.23.62-.23,1.21Z" fill="#231815"/><polyline points="17.07 18.32 52.26 18.32 98.28 72.77 107.76 84.09" fill="none" stroke="#9fa0a0" stroke-linecap="round" stroke-linejoin="round" stroke-width="3"/><polyline points="17.05 18.32 44.14 18.32 71.21 56.71 107.75 88.83" fill="none" stroke="#231815" stroke-linecap="round" stroke-linejoin="round" stroke-width="1"/><rect x="14.22" y="1.91" width="2.83" height="113.39" fill="#fff"/><rect x="107.76" y="1.91" width="2.83" height="113.39" fill="#fff"/><rect x="17.05" y="1.91" width="90.71" height="113.39" fill="none" stroke="#231815" stroke-miterlimit="10" stroke-width=".5"/><path d="m8.64,114.88c0-.42.04-.76.13-1.02.09-.26.22-.46.4-.6s.4-.21.67-.21c.2,0,.37.04.52.12.15.08.27.19.37.33.1.15.17.32.23.53.06.21.08.49.08.85,0,.42-.04.76-.13,1.02-.09.26-.22.46-.4.6-.18.14-.4.21-.67.21-.36,0-.64-.12-.84-.37-.24-.3-.37-.78-.37-1.46Zm.47,0c0,.59.07.98.21,1.17.14.19.32.29.53.29s.38-.1.53-.29.21-.59.21-1.17-.07-.98-.21-1.17-.32-.29-.53-.29-.37.09-.5.26c-.16.22-.23.62-.23,1.21Z" fill="#231815"/><path d="m11.79,116.64v-.5h.52v.5h-.52Z" fill="#231815"/><path d="m12.98,114.88c0-.42.04-.76.13-1.02.09-.26.22-.46.4-.6s.4-.21.67-.21c.2,0,.37.04.52.12.15.08.27.19.37.33.1.15.17.32.23.53.06.21.08.49.08.85,0,.42-.04.76-.13,1.02-.09.26-.22.46-.4.6-.18.14-.4.21-.67.21-.36,0-.64-.12-.84-.37-.24-.3-.37-.78-.37-1.46Zm.47,0c0,.59.07.98.21,1.17.14.19.32.29.53.29s.38-.1.53-.29.21-.59.21-1.17-.07-.98-.21-1.17-.32-.29-.53-.29-.37.09-.5.26c-.16.22-.23.62-.23,1.21Z" fill="#231815"/><path d="m11.02,97.38v.42h-2.44c0-.11.01-.21.05-.31.06-.16.16-.32.3-.48s.33-.34.59-.54c.4-.32.67-.57.81-.76.14-.19.21-.36.21-.53,0-.17-.06-.32-.19-.44-.13-.12-.3-.18-.5-.18-.22,0-.39.06-.52.19s-.2.3-.2.53l-.47-.05c.03-.34.15-.59.36-.77.21-.18.49-.26.84-.26s.64.1.84.29.31.43.31.71c0,.14-.03.28-.09.42s-.16.28-.3.44c-.14.15-.37.36-.7.63-.27.22-.45.37-.52.45-.08.08-.14.16-.19.24h1.81Z" fill="#231815"/><path d="m11.79,97.8v-.5h.52v.5h-.52Z" fill="#231815"/><path d="m12.98,96.04c0-.42.04-.76.13-1.02.09-.26.22-.46.4-.6s.4-.21.67-.21c.2,0,.37.04.52.12.15.08.27.19.37.33.1.15.17.32.23.53.06.21.08.49.08.85,0,.42-.04.76-.13,1.02-.09.26-.22.46-.4.6-.18.14-.4.21-.67.21-.36,0-.64-.12-.84-.37-.24-.3-.37-.78-.37-1.46Zm.47,0c0,.59.07.98.21,1.17.14.19.32.29.53.29s.38-.1.53-.29.21-.59.21-1.17-.07-.98-.21-1.17-.32-.29-.53-.29-.37.09-.5.26c-.16.22-.23.62-.23,1.21Z" fill="#231815"/><path d="m10.09,78.96v-.86h-1.6v-.4l1.69-2.32h.37v2.32h.5v.4h-.5v.86h-.45Zm0-1.26v-1.61l-1.16,1.61h1.16Z" fill="#231815"/><path d="m11.79,78.96v-.5h.52v.5h-.52Z" fill="#231815"/><path d="m12.98,77.19c0-.42.04-.76.13-1.02.09-.26.22-.46.4-.6s.4-.21.67-.21c.2,0,.37.04.52.12.15.08.27.19.37.33.1.15.17.32.23.53.06.21.08.49.08.85,0,.42-.04.76-.13,1.02-.09.26-.22.46-.4.6-.18.14-.4.21-.67.21-.36,0-.64-.12-.84-.37-.24-.3-.37-.78-.37-1.46Zm.47,0c0,.59.07.98.21,1.17.14.19.32.29.53.29s.38-.1.53-.29.21-.59.21-1.17-.07-.98-.21-1.17-.32-.29-.53-.29-.37.09-.5.26c-.16.22-.23.62-.23,1.21Z" fill="#231815"/><path d="m10.99,57.41l-.45.03c-.04-.17-.1-.3-.17-.38-.12-.13-.27-.19-.45-.19-.14,0-.27.04-.38.12-.14.1-.26.25-.34.44-.08.19-.13.47-.13.83.11-.16.24-.28.4-.36.16-.08.32-.12.5-.12.3,0,.56.11.77.32.21.22.32.49.32.84,0,.22-.05.43-.15.63-.1.19-.24.34-.41.44-.17.1-.37.15-.59.15-.38,0-.69-.13-.93-.4-.24-.27-.36-.71-.36-1.33,0-.69.13-1.19.4-1.51.23-.27.54-.41.93-.41.29,0,.53.08.71.24.19.16.3.38.33.65Zm-1.85,1.54c0,.15.03.3.1.43s.16.24.28.32c.12.07.24.11.38.11.19,0,.36-.07.49-.22.14-.15.21-.35.21-.61s-.07-.44-.2-.58c-.14-.14-.31-.21-.51-.21s-.38.07-.52.21c-.14.14-.21.33-.21.56Z" fill="#231815"/><path d="m11.79,60.12v-.5h.52v.5h-.52Z" fill="#231815"/><path d="m12.98,58.35c0-.42.04-.76.13-1.02.09-.26.22-.46.4-.6s.4-.21.67-.21c.2,0,.37.04.52.12.15.08.27.19.37.33.1.15.17.32.23.53.06.21.08.49.08.85,0,.42-.04.76-.13,1.02-.09.26-.22.46-.4.6-.18.14-.4.21-.67.21-.36,0-.64-.12-.84-.37-.24-.3-.37-.78-.37-1.46Zm.47,0c0,.59.07.98.21,1.17.14.19.32.29.53.29s.38-.1.53-.29.21-.59.21-1.17-.07-.98-.21-1.17-.32-.29-.53-.29-.37.09-.5.26c-.16.22-.23.62-.23,1.21Z" fill="#231815"/><path d="m9.34,39.34c-.19-.07-.33-.16-.42-.29-.09-.12-.14-.27-.14-.44,0-.26.1-.48.29-.66.19-.18.45-.27.77-.27s.58.09.78.27c.2.18.29.4.29.66,0,.17-.05.31-.14.43-.09.12-.23.22-.41.28.23.07.4.19.52.35.12.16.18.35.18.57,0,.31-.11.56-.33.77-.22.21-.52.31-.88.31s-.66-.1-.88-.31c-.22-.21-.34-.47-.34-.78,0-.23.06-.43.18-.58.12-.16.29-.26.52-.32Zm-.24.91c0,.13.03.25.09.36.06.12.15.21.27.27.12.06.25.1.39.1.22,0,.4-.07.54-.2s.21-.31.21-.52-.07-.39-.22-.52-.33-.21-.55-.21-.39.07-.53.21-.21.31-.21.51Zm.15-1.65c0,.17.06.31.17.42.11.11.26.16.44.16s.32-.05.43-.16c.11-.11.17-.24.17-.39s-.06-.3-.17-.41c-.12-.11-.26-.17-.43-.17s-.32.05-.43.16-.17.24-.17.39Z" fill="#231815"/><path d="m11.79,41.28v-.5h.52v.5h-.52Z" fill="#231815"/><path d="m12.98,39.51c0-.42.04-.76.13-1.02.09-.26.22-.46.4-.6s.4-.21.67-.21c.2,0,.37.04.52.12.15.08.27.19.37.33.1.15.17.32.23.53.06.21.08.49.08.85,0,.42-.04.76-.13,1.02-.09.26-.22.46-.4.6-.18.14-.4.21-.67.21-.36,0-.64-.12-.84-.37-.24-.3-.37-.78-.37-1.46Zm.47,0c0,.59.07.98.21,1.17.14.19.32.29.53.29s.38-.1.53-.29.21-.59.21-1.17-.07-.98-.21-1.17-.32-.29-.53-.29-.37.09-.5.26c-.16.22-.23.62-.23,1.21Z" fill="#231815"/><path d="m7.51,22.44h-.45v-2.8c-.11.1-.25.2-.43.3s-.34.18-.48.23v-.42c.25-.12.48-.26.67-.42.19-.16.32-.32.4-.48h.29v3.59Z" fill="#231815"/><path d="m8.7,20.67c0-.42.04-.76.13-1.02.09-.26.22-.46.4-.6s.4-.21.67-.21c.2,0,.37.04.52.12.15.08.27.19.37.33.1.15.17.32.23.53.06.21.08.49.08.85,0,.42-.04.76-.13,1.02-.09.26-.22.46-.4.6-.18.14-.4.21-.67.21-.36,0-.64-.12-.84-.37-.24-.3-.37-.78-.37-1.46Zm.47,0c0,.59.07.98.21,1.17.14.19.32.29.53.29s.38-.1.53-.29.21-.59.21-1.17-.07-.98-.21-1.17-.32-.29-.53-.29-.37.09-.5.26c-.16.22-.23.62-.23,1.21Z" fill="#231815"/><path d="m11.79,22.44v-.5h.52v.5h-.52Z" fill="#231815"/><path d="m12.98,20.67c0-.42.04-.76.13-1.02.09-.26.22-.46.4-.6s.4-.21.67-.21c.2,0,.37.04.52.12.15.08.27.19.37.33.1.15.17.32.23.53.06.21.08.49.08.85,0,.42-.04.76-.13,1.02-.09.26-.22.46-.4.6-.18.14-.4.21-.67.21-.36,0-.64-.12-.84-.37-.24-.3-.37-.78-.37-1.46Zm.47,0c0,.59.07.98.21,1.17.14.19.32.29.53.29s.38-.1.53-.29.21-.59.21-1.17-.07-.98-.21-1.17-.32-.29-.53-.29-.37.09-.5.26c-.16.22-.23.62-.23,1.21Z" fill="#231815"/><path d="m7.51,3.59h-.45V.79c-.11.1-.25.2-.43.3s-.34.18-.48.23v-.42c.25-.12.48-.26.67-.42.19-.16.32-.32.4-.48h.29v3.59Z" fill="#231815"/><path d="m11.08,3.17v.42h-2.44c0-.11.01-.21.05-.31.06-.16.16-.32.3-.48s.33-.34.59-.54c.4-.32.67-.57.81-.76.14-.19.21-.36.21-.53,0-.17-.06-.32-.19-.44-.13-.12-.3-.18-.5-.18-.22,0-.39.06-.52.19s-.2.3-.2.53l-.47-.05c.03-.34.15-.59.36-.77.21-.18.49-.26.84-.26s.64.1.84.29.31.43.31.71c0,.14-.03.28-.09.42s-.16.28-.3.44c-.14.15-.37.36-.7.63-.27.22-.45.37-.52.45-.08.08-.14.16-.19.24h1.81Z" fill="#231815"/><path d="m11.79,3.59v-.5h.52v.5h-.52Z" fill="#231815"/><path d="m12.98,1.83c0-.42.04-.76.13-1.02.09-.26.22-.46.4-.6s.4-.21.67-.21c.2,0,.37.04.52.12.15.08.27.19.37.33.1.15.17.32.23.53.06.21.08.49.08.85,0,.42-.04.76-.13,1.02-.09.26-.22.46-.4.6-.18.14-.4.21-.67.21-.36,0-.64-.12-.84-.37-.24-.3-.37-.78-.37-1.46Zm.47,0c0,.59.07.98.21,1.17.14.19.32.29.53.29s.38-.1.53-.29.21-.59.21-1.17-.07-.98-.21-1.17-.32-.29-.53-.29-.37.09-.5.26c-.16.22-.23.62-.23,1.21Z" fill="#231815"/><rect x="18.08" y="98.99" width="39.37" height="14.17" fill="#fff"/><rect x="19.18" y="47.26" width="40.12" height="14.17" fill="#fff"/><path d="m4.29,74.26H.51v1.37h-.51v-3.3h.51v1.38h3.79v.55Z" fill="#231815"/><path d="m2.74,72.02c-.58,0-1-.16-1.28-.47-.23-.26-.35-.58-.35-.95,0-.41.14-.75.42-1.02.28-.26.67-.39,1.16-.39.4,0,.72.06.94.17.23.12.41.29.53.51.13.22.19.47.19.73,0,.42-.14.76-.42,1.02-.28.26-.68.39-1.21.39Zm0-.53c.4,0,.7-.08.9-.25s.3-.38.3-.64-.1-.46-.3-.63-.5-.25-.91-.25c-.38,0-.68.08-.87.25s-.3.38-.3.63.1.47.3.64.5.25.89.25Z" fill="#231815"/><path d="m4.29,68.61H1.18v-.46h.47c-.22-.12-.37-.23-.44-.32-.07-.1-.11-.21-.11-.33,0-.17.06-.35.17-.52l.49.18c-.08.12-.11.25-.11.37,0,.11.03.21.1.3s.17.15.29.19c.19.06.39.09.62.09h1.63v.51Z" fill="#231815"/><path d="m5.49,64.74h-1.52c.12.08.21.19.29.33.08.14.11.29.11.46,0,.36-.15.67-.44.92s-.7.39-1.21.39c-.31,0-.59-.05-.84-.16s-.44-.26-.56-.46-.19-.42-.19-.66c0-.37.16-.67.49-.88h-.42v-.46h4.3v.51Zm-2.76,1.58c.4,0,.7-.08.9-.24.2-.16.3-.36.3-.58s-.1-.4-.29-.56-.48-.24-.87-.24c-.41,0-.73.08-.93.25s-.31.36-.31.58.1.41.29.56c.19.15.5.23.91.23Z" fill="#231815"/><path d="m4.29,61.46h-.46c.35.23.53.55.53.96,0,.18-.04.34-.11.5s-.16.27-.27.34-.24.13-.39.16c-.1.02-.27.03-.49.03h-1.93v-.51h1.73c.28,0,.46-.01.56-.03.14-.03.25-.1.33-.2s.12-.23.12-.39-.04-.3-.12-.43-.19-.23-.33-.29c-.14-.06-.34-.08-.61-.08h-1.67v-.51h3.11v.46Z" fill="#231815"/><path d="m3.29,58.14l.07-.53c.32.08.57.24.74.46s.26.51.26.86c0,.44-.14.79-.42,1.05s-.67.39-1.18.39-.93-.13-1.22-.39-.43-.6-.43-1.02.14-.73.42-.99.68-.38,1.2-.38c.03,0,.08,0,.14,0v2.25c.34-.02.6-.11.79-.28.18-.17.27-.38.27-.63,0-.19-.05-.35-.15-.48s-.26-.24-.49-.31Zm-.85,1.68v-1.68c-.26.02-.46.09-.59.19-.2.16-.3.37-.3.63,0,.23.08.43.24.59.16.16.38.25.65.27Z" fill="#231815"/><path d="m5.49,55.34H0v-1.13h.44v.62h4.61v-.62h.44v1.13Z" fill="#231815"/><path d="m4.29,53.68H0v-.56l3.37-2.19H0v-.53h4.29v.56l-3.38,2.19h3.38v.53Z" fill="#231815"/><path d="m2.19,49.61c-.21,0-.38-.07-.52-.21-.14-.14-.22-.31-.22-.51s.07-.37.22-.51c.14-.14.32-.21.52-.21s.38.07.53.21c.15.14.22.31.22.51s-.07.37-.22.51c-.15.14-.32.21-.53.21Z" fill="#231815"/><path d="m4.29,47.5H1.18v-.46h.44c-.15-.09-.27-.22-.37-.38-.09-.16-.14-.34-.14-.54,0-.22.05-.41.14-.55.1-.14.23-.24.4-.3-.36-.24-.54-.55-.54-.93,0-.3.09-.53.26-.69.17-.16.43-.24.79-.24h2.14v.51h-1.96c-.21,0-.36.02-.46.05-.09.03-.17.09-.22.18-.06.09-.08.19-.08.31,0,.21.07.39.22.53.15.14.38.21.7.21h1.81v.51h-2.02c-.23,0-.41.04-.53.12-.12.08-.18.22-.18.41,0,.14.04.28.12.4s.19.21.34.27c.15.06.37.08.65.08h1.61v.51Z" fill="#231815"/><path d="m5.49,41.81v1.13h-.44v-.62H.44v.62h-.44v-1.13h5.49Z" fill="#231815"/><path d="m20.7,50.84l.54-.05c.03.21.08.39.18.53s.24.25.43.33.42.13.66.13c.22,0,.41-.03.57-.1s.29-.15.37-.27.12-.23.12-.37-.04-.25-.12-.35-.21-.19-.39-.25c-.12-.04-.37-.11-.76-.21s-.67-.18-.83-.27c-.21-.11-.36-.24-.46-.4s-.15-.34-.15-.53c0-.22.06-.42.18-.61s.3-.33.54-.43.5-.15.79-.15c.32,0,.6.05.84.15s.43.25.56.45.2.42.21.68l-.54.04c-.03-.27-.13-.48-.3-.62s-.42-.21-.75-.21-.59.06-.75.19-.24.28-.24.46c0,.15.06.28.17.38.11.1.4.2.86.31s.78.2.95.27c.25.12.43.26.55.44s.18.38.18.61-.07.44-.2.65-.32.36-.56.47-.52.17-.83.17c-.39,0-.71-.06-.98-.17s-.47-.28-.62-.51-.23-.48-.24-.77Z" fill="#231815"/><path d="m24.83,52.22v-4.29h.53v1.54c.25-.29.56-.43.93-.43.23,0,.43.05.6.14s.29.22.36.38.11.39.11.7v1.97h-.53v-1.97c0-.26-.06-.46-.17-.58s-.28-.18-.48-.18c-.16,0-.3.04-.44.12s-.24.19-.29.33-.09.33-.09.57v1.7h-.53Z" fill="#231815"/><path d="m27.97,50.66c0-.58.16-1,.48-1.28.27-.23.59-.35.98-.35.43,0,.78.14,1.05.42s.41.67.41,1.16c0,.4-.06.72-.18.94s-.29.41-.52.53-.48.19-.75.19c-.44,0-.79-.14-1.06-.42s-.4-.68-.4-1.21Zm.54,0c0,.4.09.7.26.9s.39.3.66.3.48-.1.65-.3.26-.5.26-.91c0-.38-.09-.68-.26-.87s-.39-.3-.65-.3-.48.1-.66.3-.26.5-.26.89Z" fill="#231815"/><path d="m31.5,52.22v-3.11h.47v.47c.12-.22.23-.37.34-.44s.22-.11.34-.11c.18,0,.36.06.54.17l-.18.49c-.13-.08-.26-.11-.39-.11-.12,0-.22.03-.31.1s-.16.17-.2.29c-.06.19-.09.39-.09.62v1.63h-.53Z" fill="#231815"/><path d="m34.65,51.75l.08.47c-.15.03-.28.05-.4.05-.19,0-.34-.03-.45-.09s-.18-.14-.22-.24-.06-.31-.06-.62v-1.79h-.39v-.41h.39v-.77l.52-.32v1.09h.53v.41h-.53v1.82c0,.15,0,.25.03.29s.05.08.09.1.1.04.18.04c.06,0,.14,0,.23-.02Z" fill="#231815"/><path d="m34.96,50.93v-.53h1.62v.53h-1.62Z" fill="#231815"/><path d="m39.18,52.22v-.39c-.2.31-.49.46-.87.46-.25,0-.48-.07-.68-.21s-.37-.33-.48-.57-.17-.53-.17-.85.05-.59.16-.85.26-.45.47-.58.44-.2.69-.2c.19,0,.35.04.5.12s.27.18.36.31v-1.54h.52v4.29h-.49Zm-1.67-1.55c0,.4.08.7.25.89s.37.3.59.3.43-.09.59-.28.24-.48.24-.86c0-.43-.08-.74-.25-.94s-.37-.3-.61-.3-.43.1-.59.29-.24.49-.24.91Z" fill="#231815"/><path d="m42.54,52.22v-.46c-.24.35-.57.53-.99.53-.18,0-.35-.04-.51-.11s-.28-.16-.35-.27-.13-.24-.16-.39c-.02-.1-.03-.27-.03-.49v-1.93h.53v1.73c0,.28.01.46.03.56.03.14.1.25.21.33s.24.12.4.12.31-.04.45-.12.24-.19.29-.33.09-.34.09-.61v-1.67h.53v3.11h-.47Z" fill="#231815"/><path d="m43.83,52.22v-3.11h.47v.47c.12-.22.23-.37.34-.44s.22-.11.34-.11c.18,0,.36.06.54.17l-.18.49c-.13-.08-.26-.11-.39-.11-.12,0-.22.03-.31.1s-.16.17-.2.29c-.06.19-.09.39-.09.62v1.63h-.53Z" fill="#231815"/><path d="m47.87,51.84c-.2.17-.38.28-.56.35s-.37.1-.58.1c-.34,0-.6-.08-.79-.25s-.28-.38-.28-.64c0-.15.03-.29.1-.42s.16-.23.27-.3.24-.13.38-.17c.1-.03.26-.05.47-.08.43-.05.74-.11.94-.18,0-.07,0-.12,0-.14,0-.21-.05-.37-.15-.45-.13-.12-.33-.18-.6-.18-.25,0-.43.04-.55.13s-.21.24-.26.46l-.52-.07c.05-.22.12-.4.23-.53s.26-.24.47-.31.44-.11.71-.11.48.03.65.09.29.14.37.24.13.21.16.36c.02.09.03.25.03.49v.7c0,.49.01.8.03.93.02.13.07.25.13.37h-.55c-.05-.11-.09-.24-.11-.38Zm-.04-1.18c-.19.08-.48.14-.86.2-.22.03-.37.07-.46.11s-.16.1-.21.17-.07.16-.07.25c0,.14.05.26.16.35s.26.14.47.14.38-.04.54-.13.27-.21.35-.36c.06-.12.08-.29.08-.53v-.19Z" fill="#231815"/><path d="m50.33,51.75l.08.47c-.15.03-.28.05-.4.05-.19,0-.34-.03-.45-.09s-.18-.14-.22-.24-.06-.31-.06-.62v-1.79h-.39v-.41h.39v-.77l.52-.32v1.09h.53v.41h-.53v1.82c0,.15,0,.25.03.29s.05.08.09.1.1.04.18.04c.06,0,.14,0,.23-.02Z" fill="#231815"/><path d="m50.84,48.53v-.61h.53v.61h-.53Zm0,3.69v-3.11h.53v3.11h-.53Z" fill="#231815"/><path d="m51.98,50.66c0-.58.16-1,.48-1.28.27-.23.59-.35.98-.35.43,0,.78.14,1.05.42s.41.67.41,1.16c0,.4-.06.72-.18.94s-.29.41-.52.53-.48.19-.75.19c-.44,0-.79-.14-1.06-.42s-.4-.68-.4-1.21Zm.54,0c0,.4.09.7.26.9s.39.3.66.3.48-.1.65-.3.26-.5.26-.91c0-.38-.09-.68-.26-.87s-.39-.3-.65-.3-.48.1-.66.3-.26.5-.26.89Z" fill="#231815"/><path d="m55.51,52.22v-3.11h.47v.44c.23-.34.56-.51.99-.51.19,0,.36.03.52.1s.27.16.35.27.13.24.16.39c.02.1.03.27.03.51v1.91h-.53v-1.89c0-.21-.02-.38-.06-.48s-.11-.19-.22-.25-.23-.1-.37-.1c-.22,0-.42.07-.58.21s-.24.41-.24.81v1.7h-.53Z" fill="#231815"/><path d="m22.15,59.22v-3.11h.47v.47c.12-.22.23-.37.34-.44s.22-.11.34-.11c.18,0,.36.06.54.17l-.18.49c-.13-.08-.26-.11-.39-.11-.12,0-.22.03-.31.1s-.16.17-.2.29c-.06.19-.09.39-.09.62v1.63h-.53Z" fill="#231815"/><path d="m26.19,59.22v-.46c-.24.35-.57.53-.99.53-.18,0-.35-.04-.51-.11s-.28-.16-.35-.27-.13-.24-.16-.39c-.02-.1-.03-.27-.03-.49v-1.93h.53v1.73c0,.28.01.46.03.56.03.14.1.25.21.33s.24.12.4.12.31-.04.45-.12.24-.19.29-.33.09-.34.09-.61v-1.67h.53v3.11h-.47Z" fill="#231815"/><path d="m27.49,59.22v-3.11h.47v.44c.23-.34.56-.51.99-.51.19,0,.36.03.52.1s.27.16.35.27.13.24.16.39c.02.1.03.27.03.51v1.91h-.53v-1.89c0-.21-.02-.38-.06-.48s-.11-.19-.22-.25-.23-.1-.37-.1c-.22,0-.42.07-.58.21s-.24.41-.24.81v1.7h-.53Z" fill="#231815"/><path d="m30.83,59.22v-3.11h.47v.44c.23-.34.56-.51.99-.51.19,0,.36.03.52.1s.27.16.35.27.13.24.16.39c.02.1.03.27.03.51v1.91h-.53v-1.89c0-.21-.02-.38-.06-.48s-.11-.19-.22-.25c-.1-.06-.23-.1-.37-.1-.22,0-.42.07-.58.21s-.24.41-.24.81v1.7h-.53Z" fill="#231815"/><path d="m34.17,55.53v-.61h.53v.61h-.53Zm0,3.69v-3.11h.53v3.11h-.53Z" fill="#231815"/><path d="m35.5,59.22v-3.11h.47v.44c.23-.34.56-.51.99-.51.19,0,.36.03.52.1s.27.16.35.27.13.24.16.39c.02.1.03.27.03.51v1.91h-.53v-1.89c0-.21-.02-.38-.06-.48s-.11-.19-.22-.25-.23-.1-.37-.1c-.22,0-.42.07-.58.21s-.24.41-.24.81v1.7h-.53Z" fill="#231815"/><path d="m38.74,59.48l.51.08c.02.16.08.27.18.35.13.1.31.15.54.15.24,0,.43-.05.57-.15s.22-.23.27-.41c.03-.11.04-.33.04-.68-.23.27-.52.41-.86.41-.43,0-.76-.15-.99-.46s-.35-.68-.35-1.11c0-.3.05-.57.16-.82s.26-.44.47-.58.44-.21.72-.21c.37,0,.67.15.91.45v-.38h.49v2.69c0,.48-.05.83-.15,1.03s-.25.36-.47.48-.48.18-.79.18c-.37,0-.67-.08-.9-.25s-.34-.42-.33-.75Zm.44-1.87c0,.41.08.71.24.89s.37.28.61.28.45-.09.61-.28.25-.48.25-.88-.08-.67-.25-.86-.37-.29-.61-.29-.43.1-.6.29-.25.47-.25.85Z" fill="#231815"/><path d="m43.83,59.22v-3.11h.47v.47c.12-.22.23-.37.34-.44s.22-.11.34-.11c.18,0,.36.06.54.17l-.18.49c-.13-.08-.26-.11-.39-.11-.12,0-.22.03-.31.1s-.16.17-.2.29c-.06.19-.09.39-.09.62v1.63h-.53Z" fill="#231815"/><path d="m47.87,58.84c-.2.17-.38.28-.56.35s-.37.1-.58.1c-.34,0-.6-.08-.79-.25s-.28-.38-.28-.64c0-.15.03-.29.1-.42s.16-.23.27-.3.24-.13.38-.17c.1-.03.26-.05.47-.08.43-.05.74-.11.94-.18,0-.07,0-.12,0-.14,0-.21-.05-.37-.15-.45-.13-.12-.33-.18-.6-.18-.25,0-.43.04-.55.13s-.21.24-.26.46l-.52-.07c.05-.22.12-.4.23-.53s.26-.24.47-.31.44-.11.71-.11.48.03.65.09.29.14.37.24.13.21.16.36c.02.09.03.25.03.49v.7c0,.49.01.8.03.93.02.13.07.25.13.37h-.55c-.05-.11-.09-.24-.11-.38Zm-.04-1.18c-.19.08-.48.14-.86.2-.22.03-.37.07-.46.11s-.16.1-.21.17-.07.16-.07.25c0,.14.05.26.16.35s.26.14.47.14.38-.04.54-.13.27-.21.35-.36c.06-.12.08-.29.08-.53v-.19Z" fill="#231815"/><path d="m49.17,59.22v-3.11h.47v.44c.23-.34.56-.51.99-.51.19,0,.36.03.52.1s.27.16.35.27.13.24.16.39c.02.1.03.27.03.51v1.91h-.53v-1.89c0-.21-.02-.38-.06-.48s-.11-.19-.22-.25-.23-.1-.37-.1c-.22,0-.42.07-.58.21s-.24.41-.24.81v1.7h-.53Z" fill="#231815"/><path d="m52.41,59.48l.51.08c.02.16.08.27.18.35.13.1.31.15.54.15.24,0,.43-.05.57-.15s.22-.23.27-.41c.03-.11.04-.33.04-.68-.23.27-.52.41-.86.41-.43,0-.76-.15-.99-.46s-.35-.68-.35-1.11c0-.3.05-.57.16-.82s.26-.44.47-.58.44-.21.72-.21c.37,0,.67.15.91.45v-.38h.49v2.69c0,.48-.05.83-.15,1.03s-.25.36-.47.48-.48.18-.79.18c-.37,0-.67-.08-.9-.25s-.34-.42-.33-.75Zm.44-1.87c0,.41.08.71.24.89s.37.28.61.28.45-.09.61-.28.25-.48.25-.88-.08-.67-.25-.86-.37-.29-.61-.29-.43.1-.6.29-.25.47-.25.85Z" fill="#231815"/><path d="m57.98,58.22l.54.07c-.09.32-.25.57-.48.74s-.53.26-.89.26c-.46,0-.82-.14-1.08-.42s-.4-.67-.4-1.18.13-.93.4-1.22.62-.43,1.05-.43.76.14,1.02.42.4.68.4,1.2c0,.03,0,.08,0,.14h-2.32c.02.34.12.6.29.79s.39.27.65.27c.19,0,.36-.05.5-.15s.25-.26.33-.49Zm-1.73-.85h1.74c-.02-.26-.09-.46-.2-.59-.17-.2-.39-.3-.65-.3-.24,0-.45.08-.61.24s-.26.38-.27.65Z" fill="#231815"/><path d="m25.28,102.45l.57.14c-.12.47-.33.82-.64,1.07s-.69.37-1.14.37-.84-.09-1.13-.28-.51-.46-.66-.82-.23-.74-.23-1.15c0-.45.09-.84.26-1.17s.41-.59.73-.76.66-.26,1.04-.26c.43,0,.79.11,1.08.33s.5.53.61.92l-.56.13c-.1-.31-.24-.54-.43-.68s-.43-.21-.71-.21c-.33,0-.61.08-.83.24s-.38.37-.47.64-.13.54-.13.82c0,.37.05.68.16.96s.27.48.5.61.47.2.73.2c.32,0,.59-.09.81-.28s.37-.46.45-.82Z" fill="#231815"/><path d="m26.28,102.4c0-.58.16-1,.48-1.28.27-.23.59-.35.98-.35.43,0,.78.14,1.05.42s.41.67.41,1.16c0,.4-.06.72-.18.94s-.29.41-.52.53-.48.19-.75.19c-.44,0-.79-.14-1.06-.42s-.4-.68-.4-1.21Zm.54,0c0,.4.09.7.26.9s.39.3.66.3.48-.1.65-.3.26-.5.26-.91c0-.38-.09-.68-.26-.87s-.39-.3-.65-.3-.48.1-.66.3-.26.5-.26.89Z" fill="#231815"/><path d="m29.82,103.95v-3.11h.47v.44c.23-.34.56-.51.99-.51.19,0,.36.03.52.1s.27.16.35.27.13.24.16.39c.02.1.03.27.03.51v1.91h-.53v-1.89c0-.21-.02-.38-.06-.48-.04-.11-.11-.19-.22-.25s-.23-.1-.37-.1c-.22,0-.42.07-.58.21s-.24.41-.24.81v1.7h-.53Z" fill="#231815"/><path d="m34.31,103.48l.08.47c-.15.03-.28.05-.4.05-.19,0-.34-.03-.45-.09s-.18-.14-.22-.24-.06-.31-.06-.62v-1.79h-.39v-.41h.39v-.77l.52-.32v1.09h.53v.41h-.53v1.82c0,.15,0,.25.03.29s.05.08.09.1.1.04.18.04c.06,0,.14,0,.23-.02Z" fill="#231815"/><path d="m34.82,100.26v-.61h.53v.61h-.53Zm0,3.69v-3.11h.53v3.11h-.53Z" fill="#231815"/><path d="m36.15,103.95v-3.11h.47v.44c.23-.34.56-.51.99-.51.19,0,.36.03.52.1s.27.16.35.27.13.24.16.39c.02.1.03.27.03.51v1.91h-.53v-1.89c0-.21-.02-.38-.06-.48-.04-.11-.11-.19-.22-.25s-.23-.1-.37-.1c-.22,0-.42.07-.58.21s-.24.41-.24.81v1.7h-.53Z" fill="#231815"/><path d="m41.53,103.95v-.46c-.24.35-.57.53-.99.53-.18,0-.35-.04-.51-.11s-.28-.16-.35-.27-.13-.24-.16-.39c-.02-.1-.03-.27-.03-.49v-1.93h.53v1.73c0,.28.01.46.03.56.03.14.1.25.21.33s.24.12.4.12.31-.04.45-.12.24-.19.29-.33c.06-.14.09-.34.09-.61v-1.67h.53v3.11h-.47Z" fill="#231815"/><path d="m42.63,102.4c0-.58.16-1,.48-1.28.27-.23.59-.35.98-.35.43,0,.78.14,1.05.42s.41.67.41,1.16c0,.4-.06.72-.18.94s-.29.41-.52.53-.48.19-.75.19c-.44,0-.79-.14-1.06-.42s-.4-.68-.4-1.21Zm.54,0c0,.4.09.7.26.9s.39.3.66.3.48-.1.65-.3.26-.5.26-.91c0-.38-.09-.68-.26-.87s-.39-.3-.65-.3-.48.1-.66.3-.26.5-.26.89Z" fill="#231815"/><path d="m48.2,103.95v-.46c-.24.35-.57.53-.99.53-.18,0-.35-.04-.51-.11s-.28-.16-.35-.27-.13-.24-.16-.39c-.02-.1-.03-.27-.03-.49v-1.93h.53v1.73c0,.28.01.46.03.56.03.14.1.25.21.33s.24.12.4.12.31-.04.45-.12.24-.19.29-.33.09-.34.09-.61v-1.67h.53v3.11h-.47Z" fill="#231815"/><path d="m49.29,103.02l.52-.08c.03.21.11.37.24.48s.32.17.56.17.42-.05.54-.15.18-.21.18-.35c0-.12-.05-.21-.16-.28-.07-.05-.25-.11-.54-.18-.39-.1-.65-.18-.8-.25-.15-.07-.26-.17-.34-.3s-.12-.27-.12-.42c0-.14.03-.27.1-.39s.15-.22.26-.29c.08-.06.19-.11.34-.15s.29-.06.46-.06c.24,0,.46.04.64.11s.32.17.41.29.15.28.18.48l-.52.07c-.02-.16-.09-.29-.2-.38s-.27-.13-.48-.13c-.24,0-.42.04-.52.12s-.16.17-.16.28c0,.07.02.13.06.18.04.06.11.1.2.14.05.02.21.06.47.13.37.1.63.18.78.24s.26.16.35.28.13.27.13.45-.05.34-.15.5-.25.28-.44.36-.41.13-.66.13c-.4,0-.71-.08-.92-.25s-.35-.42-.41-.75Z" fill="#231815"/><path d="m19.64,110.95v-3.11h.47v.47c.12-.22.23-.37.34-.44s.22-.11.34-.11c.18,0,.36.06.54.17l-.18.49c-.13-.08-.26-.11-.39-.11-.12,0-.22.03-.31.1s-.16.17-.2.29c-.06.19-.09.39-.09.62v1.63h-.53Z" fill="#231815"/><path d="m23.68,110.95v-.46c-.24.35-.57.53-.99.53-.18,0-.35-.04-.51-.11s-.28-.16-.35-.27-.13-.24-.16-.39c-.02-.1-.03-.27-.03-.49v-1.93h.53v1.73c0,.28.01.46.03.56.03.14.1.25.21.33s.24.12.4.12.31-.04.45-.12.24-.19.29-.33.09-.34.09-.61v-1.67h.53v3.11h-.47Z" fill="#231815"/><path d="m24.98,110.95v-3.11h.47v.44c.23-.34.56-.51.99-.51.19,0,.36.03.52.1s.27.16.35.27.13.24.16.39c.02.1.03.27.03.51v1.91h-.53v-1.89c0-.21-.02-.38-.06-.48-.04-.11-.11-.19-.22-.25s-.23-.1-.37-.1c-.22,0-.42.07-.58.21s-.24.41-.24.81v1.7h-.53Z" fill="#231815"/><path d="m28.32,110.95v-3.11h.47v.44c.23-.34.56-.51.99-.51.19,0,.36.03.52.1s.27.16.35.27.13.24.16.39c.02.1.03.27.03.51v1.91h-.53v-1.89c0-.21-.02-.38-.06-.48-.04-.11-.11-.19-.22-.25s-.23-.1-.37-.1c-.22,0-.42.07-.58.21s-.24.41-.24.81v1.7h-.53Z" fill="#231815"/><path d="m31.66,107.26v-.61h.53v.61h-.53Zm0,3.69v-3.11h.53v3.11h-.53Z" fill="#231815"/><path d="m32.99,110.95v-3.11h.47v.44c.23-.34.56-.51.99-.51.19,0,.36.03.52.1s.27.16.35.27c.08.11.13.24.16.39.02.1.03.27.03.51v1.91h-.53v-1.89c0-.21-.02-.38-.06-.48-.04-.11-.11-.19-.22-.25s-.23-.1-.37-.1c-.22,0-.42.07-.58.21s-.24.41-.24.81v1.7h-.53Z" fill="#231815"/><path d="m36.23,111.21l.51.08c.02.16.08.27.18.35.13.1.31.15.54.15.24,0,.43-.05.57-.15s.22-.23.27-.41c.03-.11.04-.33.04-.68-.23.27-.52.41-.86.41-.43,0-.76-.15-.99-.46s-.35-.68-.35-1.11c0-.3.05-.57.16-.82s.26-.44.47-.58.44-.21.72-.21c.37,0,.67.15.91.45v-.38h.49v2.69c0,.48-.05.83-.15,1.03s-.25.36-.47.48-.48.18-.79.18c-.37,0-.67-.08-.9-.25s-.34-.42-.33-.75Zm.44-1.87c0,.41.08.71.24.89s.37.28.61.28.45-.09.61-.28.25-.48.25-.88-.08-.67-.25-.86-.37-.29-.61-.29-.43.1-.6.29-.25.47-.25.85Z" fill="#231815"/><path d="m41.32,110.95v-3.11h.47v.47c.12-.22.23-.37.34-.44s.22-.11.34-.11c.18,0,.36.06.54.17l-.18.49c-.13-.08-.26-.11-.39-.11-.12,0-.22.03-.31.1s-.16.17-.2.29c-.06.19-.09.39-.09.62v1.63h-.53Z" fill="#231815"/><path d="m45.35,110.57c-.2.17-.38.28-.56.35s-.37.1-.58.1c-.34,0-.6-.08-.79-.25s-.28-.38-.28-.64c0-.15.03-.29.1-.42s.16-.23.27-.3.24-.13.38-.17c.1-.03.26-.05.47-.08.43-.05.74-.11.94-.18,0-.07,0-.12,0-.14,0-.21-.05-.37-.15-.45-.13-.12-.33-.18-.6-.18-.25,0-.43.04-.55.13s-.21.24-.26.46l-.52-.07c.05-.22.12-.4.23-.53s.26-.24.47-.31.44-.11.71-.11.48.03.65.09.29.14.37.24.13.21.16.36c.02.09.03.25.03.49v.7c0,.49.01.8.03.93s.07.25.13.37h-.55c-.05-.11-.09-.24-.11-.38Zm-.04-1.18c-.19.08-.48.14-.86.2-.22.03-.37.07-.46.11s-.16.1-.21.17-.07.16-.07.25c0,.14.05.26.16.35s.26.14.47.14.38-.04.54-.13.27-.21.35-.36c.06-.12.08-.29.08-.53v-.19Z" fill="#231815"/><path d="m46.66,110.95v-3.11h.47v.44c.23-.34.56-.51.99-.51.19,0,.36.03.52.1s.27.16.35.27.13.24.16.39c.02.1.03.27.03.51v1.91h-.53v-1.89c0-.21-.02-.38-.06-.48-.04-.11-.11-.19-.22-.25s-.23-.1-.37-.1c-.22,0-.42.07-.58.21s-.24.41-.24.81v1.7h-.53Z" fill="#231815"/><path d="m49.9,111.21l.51.08c.02.16.08.27.18.35.13.1.31.15.54.15.24,0,.43-.05.57-.15s.22-.23.27-.41c.03-.11.04-.33.04-.68-.23.27-.52.41-.86.41-.43,0-.76-.15-.99-.46s-.35-.68-.35-1.11c0-.3.05-.57.16-.82s.26-.44.47-.58.44-.21.72-.21c.37,0,.67.15.91.45v-.38h.49v2.69c0,.48-.05.83-.15,1.03s-.25.36-.47.48-.48.18-.79.18c-.37,0-.67-.08-.9-.25s-.34-.42-.33-.75Zm.44-1.87c0,.41.08.71.24.89s.37.28.61.28.45-.09.61-.28.25-.48.25-.88-.08-.67-.25-.86-.37-.29-.61-.29-.43.1-.6.29-.25.47-.25.85Z" fill="#231815"/><path d="m55.46,109.95l.54.07c-.09.32-.25.57-.48.74s-.53.26-.89.26c-.46,0-.82-.14-1.08-.42s-.4-.67-.4-1.18.13-.93.4-1.22.62-.43,1.05-.43.76.14,1.02.42.4.68.4,1.2c0,.03,0,.08,0,.14h-2.32c.02.34.12.6.29.79.17.18.39.27.65.27.19,0,.36-.05.5-.15s.25-.26.33-.49Zm-1.73-.85h1.74c-.02-.26-.09-.46-.2-.59-.17-.2-.39-.3-.65-.3-.24,0-.45.08-.61.24s-.26.38-.27.65Z" fill="#231815"/><path d="m44.27,127.98l.55-.05c.03.21.09.39.18.53s.24.25.45.33c.2.08.43.13.68.13.22,0,.42-.03.59-.1s.3-.15.38-.27c.08-.11.13-.23.13-.37s-.04-.25-.12-.35-.21-.19-.4-.25c-.12-.04-.38-.11-.79-.21s-.69-.18-.86-.27c-.21-.11-.37-.24-.47-.4-.1-.16-.16-.34-.16-.53,0-.22.06-.42.19-.61s.31-.33.56-.43c.24-.1.52-.15.81-.15.33,0,.62.05.87.15s.44.25.58.45c.14.2.21.42.22.68l-.56.04c-.03-.27-.13-.48-.31-.62-.17-.14-.43-.21-.77-.21s-.61.06-.78.19c-.16.13-.24.28-.24.46,0,.15.06.28.17.38.11.1.41.2.88.31.48.1.8.2.98.27.26.12.45.26.57.44s.18.38.18.61-.07.44-.2.65c-.14.2-.33.36-.58.47-.25.11-.54.17-.85.17-.4,0-.74-.06-1.01-.17-.27-.11-.48-.28-.64-.51-.15-.23-.24-.48-.24-.77Z" fill="#231815"/><path d="m48.53,130.55v-4.3h.5v.4c.12-.16.25-.28.4-.36.15-.08.33-.12.54-.12.27,0,.52.07.73.21.21.14.37.33.47.58s.16.52.16.82c0,.32-.06.6-.18.86-.12.25-.29.45-.51.59-.22.14-.46.2-.71.2-.18,0-.34-.04-.49-.11-.14-.07-.26-.17-.36-.28v1.51h-.54Zm.49-2.73c0,.4.08.7.25.89.17.19.37.29.61.29s.45-.1.62-.3.26-.51.26-.92-.08-.69-.25-.89-.37-.3-.6-.3-.44.1-.62.31c-.18.21-.27.52-.27.92Z" fill="#231815"/><path d="m54.17,128.35l.56.07c-.09.32-.25.57-.49.74-.24.18-.55.26-.92.26-.47,0-.84-.14-1.12-.42s-.41-.67-.41-1.18.14-.93.42-1.22.64-.43,1.08-.43.78.14,1.05.42c.27.28.41.68.41,1.2,0,.03,0,.08,0,.14h-2.4c.02.34.12.6.3.79.18.18.4.27.67.27.2,0,.37-.05.51-.15s.25-.26.34-.49Zm-1.79-.85h1.79c-.02-.26-.09-.46-.21-.59-.17-.2-.4-.3-.67-.3-.25,0-.46.08-.63.24-.17.16-.26.38-.28.65Z" fill="#231815"/><path d="m57.61,128.35l.56.07c-.09.32-.25.57-.49.74-.24.18-.55.26-.92.26-.47,0-.84-.14-1.12-.42s-.41-.67-.41-1.18.14-.93.42-1.22.64-.43,1.08-.43.78.14,1.05.42c.27.28.41.68.41,1.2,0,.03,0,.08,0,.14h-2.4c.02.34.12.6.3.79.18.18.4.27.67.27.2,0,.37-.05.51-.15s.25-.26.34-.49Zm-1.79-.85h1.79c-.02-.26-.09-.46-.21-.59-.17-.2-.4-.3-.67-.3-.25,0-.46.08-.63.24-.17.16-.26.38-.28.65Z" fill="#231815"/><path d="m60.94,129.35v-.39c-.2.31-.5.46-.9.46-.26,0-.49-.07-.71-.21s-.38-.33-.5-.57c-.12-.25-.18-.53-.18-.85s.05-.59.16-.85.27-.45.48-.58c.21-.13.45-.2.72-.2.19,0,.37.04.52.12.15.08.27.18.37.31v-1.54h.54v4.29h-.51Zm-1.72-1.55c0,.4.09.7.26.89s.38.3.61.3.44-.09.61-.28.25-.48.25-.86c0-.43-.08-.74-.25-.94s-.38-.3-.63-.3-.44.1-.61.29-.24.49-.24.91Z" fill="#231815"/><path d="m64.04,130.55v-5.49h1.2v.44h-.66v4.61h.66v.44h-1.2Z" fill="#231815"/><path d="m65.74,129.35v-3.11h.49v.47c.12-.22.24-.37.35-.44s.22-.11.35-.11c.18,0,.37.06.56.17l-.19.49c-.13-.08-.27-.11-.4-.11-.12,0-.23.03-.32.1s-.16.17-.2.29c-.06.19-.09.39-.09.62v1.63h-.54Z" fill="#231815"/><path d="m67.4,129.43l1.29-4.44h.44l-1.28,4.44h-.44Z" fill="#231815"/><path d="m69.53,129.35v-3.11h.49v.44c.1-.15.23-.27.4-.37s.36-.14.57-.14c.24,0,.43.05.58.14s.26.23.32.4c.25-.36.58-.54.99-.54.32,0,.56.09.73.26s.26.43.26.79v2.14h-.54v-1.96c0-.21-.02-.36-.05-.46-.04-.09-.1-.17-.19-.22s-.2-.08-.33-.08c-.23,0-.41.07-.56.22-.15.15-.22.38-.22.7v1.81h-.54v-2.02c0-.23-.04-.41-.13-.53-.09-.12-.23-.18-.44-.18-.15,0-.29.04-.42.12-.13.08-.22.19-.28.34-.06.15-.09.37-.09.65v1.61h-.54Z" fill="#231815"/><path d="m74.69,125.67v-.61h.54v.61h-.54Zm0,3.69v-3.11h.54v3.11h-.54Z" fill="#231815"/><path d="m76.07,129.35v-3.11h.49v.44c.24-.34.58-.51,1.02-.51.19,0,.37.03.53.1s.28.16.36.27.14.24.17.39c.02.1.03.27.03.51v1.91h-.54v-1.89c0-.21-.02-.38-.06-.48-.04-.11-.12-.19-.23-.25s-.23-.1-.38-.1c-.23,0-.43.07-.6.21s-.25.41-.25.81v1.7h-.54Z" fill="#231815"/><path d="m80.42,130.55h-1.2v-.44h.66v-4.61h-.66v-.44h1.2v5.49Z" fill="#231815"/></svg>