<svg xmlns="http://www.w3.org/2000/svg" viewBox="0 0 116.59 131.42"><defs><style>.cls-1,.cls-2,.cls-3,.繝医Ν繧ｯ繧ｰ繝ｩ繝廟繧ｰ繝ｬ繝ｼ邱,.邱喟0\.5pt-4{fill:none;}.cls-1,.cls-2,.cls-3,.邱喟0\.5pt-4{stroke:#231815;}.cls-1{stroke-linejoin:round;stroke-width:0.14px;}.cls-2,.邱喟0\.5pt-4{stroke-miterlimit:10;}.cls-2{stroke-width:0.14px;}.繝医Ν繧ｯ繧ｰ繝ｩ繝廟繧ｰ繝ｬ繝ｼ邱{stroke:#9fa0a0;stroke-width:3px;}.cls-4{fill:#231815;}.繝後Μ_逋ｽ{fill:#fff;}.邱喟0\.5pt-4{stroke-width:0.5px;}</style></defs><g id="Illust"><line class="cls-1" x1="45.52" y1="2.18" x2="45.52" y2="115.56"/><line class="cls-1" x1="72.59" y1="2.18" x2="72.59" y2="115.56"/><line class="cls-1" x1="99.67" y1="2.18" x2="99.67" y2="115.56"/><line class="cls-2" x1="18.44" y1="39.99" x2="109.15" y2="39.99"/><line class="cls-2" x1="18.44" y1="96.69" x2="109.15" y2="96.69"/><line class="cls-2" x1="18.44" y1="77.81" x2="109.15" y2="77.81"/><line class="cls-2" x1="18.44" y1="58.87" x2="109.15" y2="58.87"/><line class="cls-2" x1="18.44" y1="21.12" x2="109.15" y2="21.12"/><polyline class="繝医Ν繧ｯ繧ｰ繝ｩ繝廟繧ｰ繝ｬ繝ｼ邱" points="18.44 31.3 58.83 31.3 109.72 74.58"/><polyline class="cls-3" points="18.44 31.3 53.64 31.27 109.72 89.85"/><path class="cls-4" d="M10.27,137.13a3.2,3.2,0,0,1,.13-1,1.22,1.22,0,0,1,.38-.6,1,1,0,0,1,.65-.21,1.07,1.07,0,0,1,.51.12,1.13,1.13,0,0,1,.36.33,2.25,2.25,0,0,1,.22.54,3.72,3.72,0,0,1,.08.84,3.2,3.2,0,0,1-.13,1,1.31,1.31,0,0,1-.39.6,1,1,0,0,1-.65.21,1,1,0,0,1-.81-.37A2.34,2.34,0,0,1,10.27,137.13Zm.45,0a2.38,2.38,0,0,0,.2,1.18.62.62,0,0,0,.51.29.61.61,0,0,0,.51-.3,3.36,3.36,0,0,0,0-2.34.6.6,0,0,0-.51-.29.57.57,0,0,0-.49.25A2.33,2.33,0,0,0,10.72,137.13Z" transform="translate(0.01 -21.92)"/><path class="cls-4" d="M13.29,138.9v-.5h.5v.5Z" transform="translate(0.01 -21.92)"/><path class="cls-4" d="M14.44,137.13a3.2,3.2,0,0,1,.13-1,1.22,1.22,0,0,1,.38-.6,1,1,0,0,1,.65-.21,1.07,1.07,0,0,1,.51.12,1.13,1.13,0,0,1,.36.33,2.25,2.25,0,0,1,.22.54,3.72,3.72,0,0,1,.08.84,3.2,3.2,0,0,1-.13,1,1.31,1.31,0,0,1-.39.6,1,1,0,0,1-.65.21,1,1,0,0,1-.81-.37A2.34,2.34,0,0,1,14.44,137.13Zm.45,0a2.38,2.38,0,0,0,.2,1.18.62.62,0,0,0,.51.29.61.61,0,0,0,.51-.3,3.36,3.36,0,0,0,0-2.34.6.6,0,0,0-.51-.29.57.57,0,0,0-.49.25A2.33,2.33,0,0,0,14.89,137.13Z" transform="translate(0.01 -21.92)"/><polyline class="繝医Ν繧ｯ繧ｰ繝ｩ繝廟繧ｰ繝ｬ繝ｼ邱" points="18.44 91.54 31.9 91.54 45.37 91.54 58.83 91.54 72.3 97.54 85.76 101.16 99.23 103.55 109.15 104.84"/><path class="cls-4" d="M10.23,118.23a3.2,3.2,0,0,1,.13-1,1.28,1.28,0,0,1,.39-.59,1.14,1.14,0,0,1,1.15-.1.9.9,0,0,1,.36.34,1.51,1.51,0,0,1,.22.53,4.23,4.23,0,0,1-.05,1.86,1.22,1.22,0,0,1-.38.6,1.1,1.1,0,0,1-1.47-.16A2.41,2.41,0,0,1,10.23,118.23Zm.45,0a2.25,2.25,0,0,0,.21,1.18.59.59,0,0,0,1,0,2.38,2.38,0,0,0,.2-1.18,2.34,2.34,0,0,0-.2-1.17.63.63,0,0,0-.52-.29.56.56,0,0,0-.48.26A2.24,2.24,0,0,0,10.68,118.23Z" transform="translate(0.01 -21.92)"/><path class="cls-4" d="M13.29,120v-.5h.5v.5Z" transform="translate(0.01 -21.92)"/><path class="cls-4" d="M14.44,119.06l.46,0a.81.81,0,0,0,.23.51.69.69,0,0,0,.46.17.68.68,0,0,0,.53-.24.88.88,0,0,0,.22-.63.84.84,0,0,0-.21-.6.74.74,0,0,0-.55-.21.86.86,0,0,0-.39.09.78.78,0,0,0-.26.25l-.42,0,.35-1.84h1.78v.42H15.21l-.19,1a1.14,1.14,0,0,1,.67-.22,1.11,1.11,0,0,1,.8.32,1.17,1.17,0,0,1,.32.84,1.37,1.37,0,0,1-.28.84,1.14,1.14,0,0,1-.94.43,1.16,1.16,0,0,1-.8-.27A1,1,0,0,1,14.44,119.06Z" transform="translate(0.01 -21.92)"/><path class="cls-4" d="M11.89,101.1h-.44V98.3a2.54,2.54,0,0,1-.42.3,2.45,2.45,0,0,1-.46.23v-.42a3,3,0,0,0,.64-.42,1.58,1.58,0,0,0,.39-.48h.29Z" transform="translate(0.01 -21.92)"/><path class="cls-4" d="M13.29,101.1v-.5h.5v.5Z" transform="translate(0.01 -21.92)"/><path class="cls-4" d="M14.44,99.34a3.12,3.12,0,0,1,.13-1,1.22,1.22,0,0,1,.38-.6,1,1,0,0,1,.65-.21,1.19,1.19,0,0,1,.51.11,1.06,1.06,0,0,1,.36.34,2,2,0,0,1,.22.53,3.76,3.76,0,0,1,.08.85,3.09,3.09,0,0,1-.13,1,1.31,1.31,0,0,1-.39.6,1,1,0,0,1-.65.21,1,1,0,0,1-.81-.37A2.33,2.33,0,0,1,14.44,99.34Zm.45,0a2.34,2.34,0,0,0,.2,1.17.59.59,0,0,0,1,0,3.39,3.39,0,0,0,0-2.35.62.62,0,0,0-.51-.29.58.58,0,0,0-.49.26A2.3,2.3,0,0,0,14.89,99.34Z" transform="translate(0.01 -21.92)"/><path class="cls-4" d="M11.89,82.2h-.44V79.4a2.08,2.08,0,0,1-.42.31,3.09,3.09,0,0,1-.46.22v-.42a3,3,0,0,0,.64-.42,1.47,1.47,0,0,0,.39-.48h.29Z" transform="translate(0.01 -21.92)"/><path class="cls-4" d="M13.29,82.2v-.5h.5v.5Z" transform="translate(0.01 -21.92)"/><path class="cls-4" d="M14.44,81.27l.46,0a.81.81,0,0,0,.23.5.64.64,0,0,0,.46.17.68.68,0,0,0,.53-.24.86.86,0,0,0,.22-.63.8.8,0,0,0-.21-.59.71.71,0,0,0-.55-.22.76.76,0,0,0-.39.1.63.63,0,0,0-.26.25l-.42-.06.35-1.84h1.78v.42H15.21l-.19,1a1.15,1.15,0,0,1,.67-.23,1.08,1.08,0,0,1,.8.33,1.13,1.13,0,0,1,.32.83,1.35,1.35,0,0,1-.28.84,1.15,1.15,0,0,1-.94.44,1.16,1.16,0,0,1-.8-.28A1,1,0,0,1,14.44,81.27Z" transform="translate(0.01 -21.92)"/><path class="cls-4" d="M12.54,62.88v.43H10.17a.81.81,0,0,1,.06-.31,1.54,1.54,0,0,1,.28-.47,5.35,5.35,0,0,1,.58-.55,5.41,5.41,0,0,0,.79-.75,1,1,0,0,0,.2-.53.59.59,0,0,0-.18-.44.77.77,0,0,0-1,0,.68.68,0,0,0-.19.52l-.45,0a1.06,1.06,0,0,1,.35-.77,1.17,1.17,0,0,1,.81-.27,1.13,1.13,0,0,1,.81.29.94.94,0,0,1,.3.71,1,1,0,0,1-.08.42,2,2,0,0,1-.29.44c-.14.15-.37.36-.68.63a5.24,5.24,0,0,0-.51.45l-.19.23Z" transform="translate(0.01 -21.92)"/><path class="cls-4" d="M13.29,63.31v-.5h.5v.5Z" transform="translate(0.01 -21.92)"/><path class="cls-4" d="M14.44,61.54a3.2,3.2,0,0,1,.13-1,1.22,1.22,0,0,1,.38-.6,1,1,0,0,1,.65-.21,1.07,1.07,0,0,1,.51.12,1.13,1.13,0,0,1,.36.33,2.25,2.25,0,0,1,.22.54,3.72,3.72,0,0,1,.08.84,3.2,3.2,0,0,1-.13,1,1.31,1.31,0,0,1-.39.6,1,1,0,0,1-.65.21,1,1,0,0,1-.81-.37A2.36,2.36,0,0,1,14.44,61.54Zm.45,0a2.38,2.38,0,0,0,.2,1.18.62.62,0,0,0,.51.29.61.61,0,0,0,.51-.3,3.36,3.36,0,0,0,0-2.34.6.6,0,0,0-.51-.29.57.57,0,0,0-.49.25A2.3,2.3,0,0,0,14.89,61.54Z" transform="translate(0.01 -21.92)"/><path class="cls-4" d="M12.54,44v.42H10.17a.81.81,0,0,1,.06-.31,1.54,1.54,0,0,1,.28-.47,4.54,4.54,0,0,1,.58-.54,5.35,5.35,0,0,0,.79-.76,1,1,0,0,0,.2-.53.6.6,0,0,0-.18-.44.77.77,0,0,0-1,0,.7.7,0,0,0-.19.53l-.45,0a1.08,1.08,0,0,1,.35-.77,1.16,1.16,0,0,1,.81-.26,1.13,1.13,0,0,1,.81.28.94.94,0,0,1,.3.71,1,1,0,0,1-.08.42,1.75,1.75,0,0,1-.29.44c-.14.15-.37.36-.68.63a5.24,5.24,0,0,0-.51.45,2,2,0,0,0-.19.24Z" transform="translate(0.01 -21.92)"/><path class="cls-4" d="M13.29,44.41v-.5h.5v.5Z" transform="translate(0.01 -21.92)"/><path class="cls-4" d="M14.44,43.47l.46,0a.81.81,0,0,0,.23.51.69.69,0,0,0,.46.17.68.68,0,0,0,.53-.24.88.88,0,0,0,.22-.63.83.83,0,0,0-.21-.6.75.75,0,0,0-.55-.22.87.87,0,0,0-.39.1.78.78,0,0,0-.26.25l-.42-.05.35-1.84h1.78v.42H15.21l-.19,1a1.14,1.14,0,0,1,.67-.22,1.07,1.07,0,0,1,.8.32,1.17,1.17,0,0,1,.32.84,1.37,1.37,0,0,1-.28.84,1.14,1.14,0,0,1-.94.43,1.16,1.16,0,0,1-.8-.27A1,1,0,0,1,14.44,43.47Z" transform="translate(0.01 -21.92)"/><path class="cls-4" d="M10.23,24.57l.44-.06a1,1,0,0,0,.26.54.63.63,0,0,0,.44.16.72.72,0,0,0,.74-.75.7.7,0,0,0-.2-.5.68.68,0,0,0-.5-.19,1,1,0,0,0-.31.05l.05-.39h.07a.87.87,0,0,0,.5-.15.51.51,0,0,0,.23-.45.56.56,0,0,0-.16-.4.57.57,0,0,0-.43-.16.57.57,0,0,0-.42.16.77.77,0,0,0-.22.48l-.44-.07a1.1,1.1,0,0,1,.36-.69,1.07,1.07,0,0,1,.71-.24,1.19,1.19,0,0,1,.54.12.92.92,0,0,1,.38.35.84.84,0,0,1,.13.46.79.79,0,0,1-.12.42.85.85,0,0,1-.37.3.82.82,0,0,1,.49.31.88.88,0,0,1,.18.57,1.06,1.06,0,0,1-.35.8,1.17,1.17,0,0,1-.86.33,1.12,1.12,0,0,1-.78-.29A1.07,1.07,0,0,1,10.23,24.57Z" transform="translate(0.01 -21.92)"/><path class="cls-4" d="M13.29,25.51V25h.5v.5Z" transform="translate(0.01 -21.92)"/><path class="cls-4" d="M14.44,23.75a3.23,3.23,0,0,1,.13-1,1.24,1.24,0,0,1,.38-.59,1,1,0,0,1,.65-.21,1.19,1.19,0,0,1,.51.11,1.06,1.06,0,0,1,.36.34,2,2,0,0,1,.22.53,3.76,3.76,0,0,1,.08.85,3.09,3.09,0,0,1-.13,1,1.31,1.31,0,0,1-.39.6,1,1,0,0,1-.65.21,1,1,0,0,1-.81-.37A2.33,2.33,0,0,1,14.44,23.75Zm.45,0a2.36,2.36,0,0,0,.2,1.17.59.59,0,0,0,1,0,2.23,2.23,0,0,0,.21-1.17,2.25,2.25,0,0,0-.21-1.18.62.62,0,0,0-.51-.29.58.58,0,0,0-.49.26A2.3,2.3,0,0,0,14.89,23.75Z" transform="translate(0.01 -21.92)"/><line class="cls-2" x1="18.44" y1="2.18" x2="109.15" y2="2.18"/><path class="cls-4" d="M17.24,141.38a3.52,3.52,0,0,1,.13-1,1.28,1.28,0,0,1,.39-.59,1,1,0,0,1,.65-.21,1.06,1.06,0,0,1,.51.11,1,1,0,0,1,.35.34,1.73,1.73,0,0,1,.23.53,3.72,3.72,0,0,1,.08.84,3.52,3.52,0,0,1-.13,1,1.31,1.31,0,0,1-.39.6,1,1,0,0,1-.65.21,1,1,0,0,1-.81-.37A2.33,2.33,0,0,1,17.24,141.38Zm.45,0a2.25,2.25,0,0,0,.21,1.18.59.59,0,0,0,1,0,2.25,2.25,0,0,0,.21-1.18,2.2,2.2,0,0,0-.21-1.17.62.62,0,0,0-.51-.29.57.57,0,0,0-.49.26A2.24,2.24,0,0,0,17.69,141.38Z" transform="translate(0.01 -21.92)"/><path class="cls-4" d="M108.19,140.45l-.44,0a.9.9,0,0,0-.17-.38.59.59,0,0,0-.44-.18.61.61,0,0,0-.36.11,1,1,0,0,0-.33.45,2.41,2.41,0,0,0-.13.82,1.11,1.11,0,0,1,.39-.36,1.16,1.16,0,0,1,.48-.11,1,1,0,0,1,.75.32,1.16,1.16,0,0,1,.31.84,1.32,1.32,0,0,1-.15.62,1.08,1.08,0,0,1-.39.45,1.14,1.14,0,0,1-.58.15,1.12,1.12,0,0,1-.9-.4,2.07,2.07,0,0,1-.34-1.34,2.33,2.33,0,0,1,.38-1.5,1.08,1.08,0,0,1,.9-.41,1,1,0,0,1,.69.23A1,1,0,0,1,108.19,140.45Zm-1.8,1.54a.91.91,0,0,0,.1.43.7.7,0,0,0,.63.43.62.62,0,0,0,.48-.23.9.9,0,0,0,.2-.61.83.83,0,0,0-.2-.58.66.66,0,0,0-.5-.21.69.69,0,0,0-.5.21A.76.76,0,0,0,106.39,142Z" transform="translate(0.01 -21.92)"/><path class="cls-4" d="M108.72,140v-.42H111V140a4.41,4.41,0,0,0-.67,1,5.35,5.35,0,0,0-.52,1.24,4.08,4.08,0,0,0-.17,1h-.45a4.4,4.4,0,0,1,.16-1,5.42,5.42,0,0,1,.46-1.15,4.79,4.79,0,0,1,.63-.94Z" transform="translate(0.01 -21.92)"/><path class="cls-4" d="M111.47,141.38a3.2,3.2,0,0,1,.13-1,1.2,1.2,0,0,1,.39-.59,1,1,0,0,1,.64-.21,1,1,0,0,1,.51.11,1.06,1.06,0,0,1,.36.34,1.73,1.73,0,0,1,.22.53,3.72,3.72,0,0,1,.08.84,3.2,3.2,0,0,1-.13,1,1.22,1.22,0,0,1-.38.6,1,1,0,0,1-.66.21,1,1,0,0,1-.81-.37A2.41,2.41,0,0,1,111.47,141.38Zm.45,0a2.25,2.25,0,0,0,.21,1.18.58.58,0,0,0,1,0,2.25,2.25,0,0,0,.21-1.18,2.18,2.18,0,0,0-.21-1.17.61.61,0,0,0-.51-.29.54.54,0,0,0-.48.26A2.15,2.15,0,0,0,111.92,141.38Z" transform="translate(0.01 -21.92)"/><path class="cls-4" d="M114.25,141.38a3.2,3.2,0,0,1,.13-1,1.28,1.28,0,0,1,.39-.59,1,1,0,0,1,.65-.21,1,1,0,0,1,.5.11.9.9,0,0,1,.36.34,1.73,1.73,0,0,1,.22.53,4.23,4.23,0,0,1,0,1.86,1.22,1.22,0,0,1-.38.6,1,1,0,0,1-.65.21,1,1,0,0,1-.82-.37A2.41,2.41,0,0,1,114.25,141.38Zm.45,0a2.25,2.25,0,0,0,.21,1.18.58.58,0,0,0,1,0,2.25,2.25,0,0,0,.21-1.18,2.18,2.18,0,0,0-.21-1.17.6.6,0,0,0-.51-.29.54.54,0,0,0-.48.26A2.24,2.24,0,0,0,114.7,141.38Z" transform="translate(0.01 -21.92)"/><rect class="繝後Μ_逋ｽ" x="109.15" y="2.18" width="2.83" height="113.39"/><polyline class="cls-3" points="18.44 91.54 31.9 91.54 45.37 91.54 58.83 91.54 72.3 97.54 85.76 101.16 99.23 103.55 109.15 104.84"/><path class="cls-4" d="M42.3,142.73v.42H39.94a.65.65,0,0,1,.05-.31,1.4,1.4,0,0,1,.29-.47,3.81,3.81,0,0,1,.57-.54,5.35,5.35,0,0,0,.79-.76.88.88,0,0,0,.2-.53.6.6,0,0,0-.18-.44.77.77,0,0,0-1,0,.74.74,0,0,0-.19.53l-.45,0a1.12,1.12,0,0,1,.35-.77,1.37,1.37,0,0,1,1.63,0,.94.94,0,0,1,.3.71,1.06,1.06,0,0,1-.09.42,1.75,1.75,0,0,1-.29.44,8.11,8.11,0,0,1-.68.63l-.51.45a1.25,1.25,0,0,0-.18.24Z" transform="translate(0.01 -21.92)"/><path class="cls-4" d="M42.8,141.38a3.52,3.52,0,0,1,.13-1,1.28,1.28,0,0,1,.39-.59,1.14,1.14,0,0,1,1.15-.1.9.9,0,0,1,.36.34,1.73,1.73,0,0,1,.23.53,3.72,3.72,0,0,1,.08.84,3.52,3.52,0,0,1-.13,1,1.31,1.31,0,0,1-.39.6,1,1,0,0,1-.65.21,1,1,0,0,1-.81-.37A2.33,2.33,0,0,1,42.8,141.38Zm.45,0a2.25,2.25,0,0,0,.21,1.18.59.59,0,0,0,1,0,2.27,2.27,0,0,0,.2-1.18,2.23,2.23,0,0,0-.2-1.17.63.63,0,0,0-.52-.29.56.56,0,0,0-.48.26A2.24,2.24,0,0,0,43.25,141.38Z" transform="translate(0.01 -21.92)"/><path class="cls-4" d="M45.55,141.38a3.52,3.52,0,0,1,.13-1,1.28,1.28,0,0,1,.39-.59,1,1,0,0,1,.65-.21,1.06,1.06,0,0,1,.51.11,1,1,0,0,1,.35.34,1.73,1.73,0,0,1,.23.53,3.72,3.72,0,0,1,.08.84,3.52,3.52,0,0,1-.13,1,1.31,1.31,0,0,1-.39.6,1,1,0,0,1-.65.21,1,1,0,0,1-.81-.37A2.33,2.33,0,0,1,45.55,141.38Zm.45,0a2.25,2.25,0,0,0,.21,1.18.59.59,0,0,0,1,0,2.25,2.25,0,0,0,.21-1.18,2.2,2.2,0,0,0-.21-1.17.62.62,0,0,0-.51-.29.57.57,0,0,0-.49.26A2.24,2.24,0,0,0,46,141.38Z" transform="translate(0.01 -21.92)"/><path class="cls-4" d="M48.36,141.38a3.52,3.52,0,0,1,.13-1,1.28,1.28,0,0,1,.39-.59,1,1,0,0,1,.65-.21.95.95,0,0,1,.87.45,2,2,0,0,1,.22.53,3.72,3.72,0,0,1,.08.84,3.52,3.52,0,0,1-.13,1,1.31,1.31,0,0,1-.39.6,1,1,0,0,1-.65.21,1,1,0,0,1-.81-.37A2.33,2.33,0,0,1,48.36,141.38Zm.46,0a2.27,2.27,0,0,0,.2,1.18.59.59,0,0,0,1,0,2.25,2.25,0,0,0,.21-1.18,2.2,2.2,0,0,0-.21-1.17.62.62,0,0,0-.51-.29.57.57,0,0,0-.49.26A2.26,2.26,0,0,0,48.82,141.38Z" transform="translate(0.01 -21.92)"/><path class="cls-4" d="M68.34,143.15v-.86H66.79v-.4l1.64-2.32h.35v2.32h.49v.4h-.49v.86Zm0-1.26v-1.61l-1.12,1.61Z" transform="translate(0.01 -21.92)"/><path class="cls-4" d="M69.75,141.38a3.2,3.2,0,0,1,.13-1,1.14,1.14,0,0,1,.39-.59,1,1,0,0,1,.64-.21,1,1,0,0,1,.51.11,1.06,1.06,0,0,1,.36.34,1.73,1.73,0,0,1,.22.53,3.72,3.72,0,0,1,.08.84,3.2,3.2,0,0,1-.13,1,1.23,1.23,0,0,1-.39.6,1.09,1.09,0,0,1-1.46-.16A2.34,2.34,0,0,1,69.75,141.38Zm.45,0a2.38,2.38,0,0,0,.2,1.18.62.62,0,0,0,.51.29.6.6,0,0,0,.51-.29,2.25,2.25,0,0,0,.21-1.18,2.2,2.2,0,0,0-.21-1.17.61.61,0,0,0-.51-.29.56.56,0,0,0-.48.26A2.15,2.15,0,0,0,70.2,141.38Z" transform="translate(0.01 -21.92)"/><path class="cls-4" d="M72.5,141.38a3.2,3.2,0,0,1,.13-1,1.2,1.2,0,0,1,.39-.59,1,1,0,0,1,.64-.21,1,1,0,0,1,.51.11,1,1,0,0,1,.36.34,1.73,1.73,0,0,1,.22.53,3.72,3.72,0,0,1,.08.84,3.2,3.2,0,0,1-.13,1,1.22,1.22,0,0,1-.38.6,1,1,0,0,1-.66.21,1,1,0,0,1-.81-.37A2.41,2.41,0,0,1,72.5,141.38Zm.45,0a2.25,2.25,0,0,0,.21,1.18.58.58,0,0,0,1,0,2.25,2.25,0,0,0,.21-1.18,2.2,2.2,0,0,0-.21-1.17.61.61,0,0,0-.51-.29.56.56,0,0,0-.48.26A2.24,2.24,0,0,0,73,141.38Z" transform="translate(0.01 -21.92)"/><path class="cls-4" d="M75.31,141.38a3.2,3.2,0,0,1,.13-1,1.28,1.28,0,0,1,.39-.59,1,1,0,0,1,.65-.21,1,1,0,0,1,.5.11.9.9,0,0,1,.36.34,1.73,1.73,0,0,1,.22.53,4.23,4.23,0,0,1,0,1.86,1.22,1.22,0,0,1-.38.6,1,1,0,0,1-.65.21,1,1,0,0,1-.82-.37A2.41,2.41,0,0,1,75.31,141.38Zm.45,0a2.25,2.25,0,0,0,.21,1.18.58.58,0,0,0,1,0,2.25,2.25,0,0,0,.21-1.18,2.2,2.2,0,0,0-.21-1.17.6.6,0,0,0-.51-.29.56.56,0,0,0-.48.26A2.24,2.24,0,0,0,75.76,141.38Z" transform="translate(0.01 -21.92)"/><path class="cls-4" d="M96.12,140.45l-.43,0a.8.8,0,0,0-.17-.37.56.56,0,0,0-.44-.19.67.67,0,0,0-.37.11,1.11,1.11,0,0,0-.32.45,2.41,2.41,0,0,0-.13.82,1,1,0,0,1,.39-.35,1,1,0,0,1,.48-.12,1,1,0,0,1,.75.32,1.16,1.16,0,0,1,.31.84,1.32,1.32,0,0,1-.15.62,1,1,0,0,1-.4.45,1.1,1.1,0,0,1-.57.15,1.12,1.12,0,0,1-.9-.4,2.07,2.07,0,0,1-.35-1.34,2.32,2.32,0,0,1,.39-1.5,1.08,1.08,0,0,1,.9-.41,1,1,0,0,1,.69.23A1,1,0,0,1,96.12,140.45ZM94.33,142a.91.91,0,0,0,.1.43.7.7,0,0,0,.63.43.62.62,0,0,0,.48-.23.9.9,0,0,0,.2-.61.83.83,0,0,0-.2-.58.66.66,0,0,0-.5-.21.67.67,0,0,0-.5.21A.76.76,0,0,0,94.33,142Z" transform="translate(0.01 -21.92)"/><path class="cls-4" d="M96.65,141.38a3.17,3.17,0,0,1,.14-1,1.19,1.19,0,0,1,.38-.59,1,1,0,0,1,.65-.21.95.95,0,0,1,.87.45,2,2,0,0,1,.22.53,3.72,3.72,0,0,1,.08.84,3.2,3.2,0,0,1-.13,1,1.31,1.31,0,0,1-.39.6,1,1,0,0,1-.65.21,1,1,0,0,1-.81-.37A2.33,2.33,0,0,1,96.65,141.38Zm.46,0a2.38,2.38,0,0,0,.2,1.18.59.59,0,0,0,1,0,2.25,2.25,0,0,0,.21-1.18,2.2,2.2,0,0,0-.21-1.17.62.62,0,0,0-.51-.29.58.58,0,0,0-.49.26A2.26,2.26,0,0,0,97.11,141.38Z" transform="translate(0.01 -21.92)"/><path class="cls-4" d="M99.41,141.38a3.2,3.2,0,0,1,.13-1,1.19,1.19,0,0,1,.38-.59,1,1,0,0,1,.65-.21.95.95,0,0,1,.87.45,1.73,1.73,0,0,1,.22.53,3.72,3.72,0,0,1,.08.84,3.2,3.2,0,0,1-.13,1,1.23,1.23,0,0,1-.39.6,1.09,1.09,0,0,1-1.46-.16A2.34,2.34,0,0,1,99.41,141.38Zm.45,0a2.38,2.38,0,0,0,.2,1.18.59.59,0,0,0,1,0,2.25,2.25,0,0,0,.21-1.18,2.2,2.2,0,0,0-.21-1.17.62.62,0,0,0-.51-.29.59.59,0,0,0-.49.26A2.26,2.26,0,0,0,99.86,141.38Z" transform="translate(0.01 -21.92)"/><path class="cls-4" d="M102.22,141.38a3.2,3.2,0,0,1,.13-1,1.14,1.14,0,0,1,.39-.59,1,1,0,0,1,.64-.21,1,1,0,0,1,.51.11,1.06,1.06,0,0,1,.36.34,1.73,1.73,0,0,1,.22.53,3.72,3.72,0,0,1,.08.84,3.2,3.2,0,0,1-.13,1,1.23,1.23,0,0,1-.39.6,1.09,1.09,0,0,1-1.46-.16A2.34,2.34,0,0,1,102.22,141.38Zm.45,0a2.38,2.38,0,0,0,.2,1.18.62.62,0,0,0,.51.29.61.61,0,0,0,.51-.29,2.25,2.25,0,0,0,.21-1.18,2.2,2.2,0,0,0-.21-1.17.62.62,0,0,0-.51-.29.56.56,0,0,0-.48.26A2.15,2.15,0,0,0,102.67,141.38Z" transform="translate(0.01 -21.92)"/><rect class="邱喟0.5pt-4" x="18.44" y="2.18" width="90.71" height="113.39"/></g><g id="English"><rect class="繝後Μ_逋ｽ" x="21.98" y="52.49" width="47.91" height="15.8"/><path class="cls-4" d="M24.47,79.19l.58,0a1.21,1.21,0,0,0,.2.57,1,1,0,0,0,.46.36,1.81,1.81,0,0,0,.72.14,1.71,1.71,0,0,0,.62-.11.87.87,0,0,0,.4-.28.66.66,0,0,0,.13-.4.62.62,0,0,0-.12-.38,1.06,1.06,0,0,0-.42-.28c-.13-.05-.4-.12-.83-.23a3.61,3.61,0,0,1-.9-.29,1.26,1.26,0,0,1-.5-.43,1,1,0,0,1-.16-.58,1.24,1.24,0,0,1,.2-.66,1.22,1.22,0,0,1,.58-.46,2.46,2.46,0,0,1,1.77,0,1.3,1.3,0,0,1,.61.49,1.4,1.4,0,0,1,.23.73l-.59,0a1,1,0,0,0-.33-.66,1.24,1.24,0,0,0-.81-.23,1.27,1.27,0,0,0-.81.21.61.61,0,0,0-.26.49.51.51,0,0,0,.18.41,2.39,2.39,0,0,0,.93.33,7.15,7.15,0,0,1,1,.3,1.41,1.41,0,0,1,.6.48,1.14,1.14,0,0,1,.2.66,1.29,1.29,0,0,1-.22.7,1.34,1.34,0,0,1-.61.51,2.11,2.11,0,0,1-.89.18,2.69,2.69,0,0,1-1.06-.18,1.48,1.48,0,0,1-.67-.56A1.57,1.57,0,0,1,24.47,79.19Z" transform="translate(0.01 -21.92)"/><path class="cls-4" d="M28.94,80.68V76h.57V77.7a1.29,1.29,0,0,1,1-.47,1.4,1.4,0,0,1,.66.15.91.91,0,0,1,.39.41,1.88,1.88,0,0,1,.12.76v2.13h-.57V78.55a.86.86,0,0,0-.19-.63.68.68,0,0,0-.52-.19.91.91,0,0,0-.48.13.74.74,0,0,0-.32.36,1.66,1.66,0,0,0-.1.62v1.84Z" transform="translate(0.01 -21.92)"/><path class="cls-4" d="M32.35,79a1.73,1.73,0,0,1,.52-1.39,1.57,1.57,0,0,1,1.06-.38,1.51,1.51,0,0,1,1.13.46A1.7,1.7,0,0,1,35.5,79a2.24,2.24,0,0,1-.19,1,1.39,1.39,0,0,1-.57.58,1.63,1.63,0,0,1-.81.21,1.51,1.51,0,0,1-1.15-.46A1.79,1.79,0,0,1,32.35,79Zm.58,0a1.44,1.44,0,0,0,.29,1,.9.9,0,0,0,.71.32.87.87,0,0,0,.7-.33,1.43,1.43,0,0,0,.29-1,1.4,1.4,0,0,0-.29-1,.94.94,0,0,0-1.41,0A1.42,1.42,0,0,0,32.93,79Z" transform="translate(0.01 -21.92)"/><path class="cls-4" d="M36.17,80.68V77.31h.51v.51a1.29,1.29,0,0,1,.37-.47.6.6,0,0,1,.36-.12,1.17,1.17,0,0,1,.59.19l-.2.53a.84.84,0,0,0-.42-.12.51.51,0,0,0-.33.11.65.65,0,0,0-.22.31,2.36,2.36,0,0,0-.09.67v1.76Z" transform="translate(0.01 -21.92)"/><path class="cls-4" d="M39.59,80.17l.08.51a2.47,2.47,0,0,1-.43,0,1.09,1.09,0,0,1-.49-.1.6.6,0,0,1-.24-.26,2.24,2.24,0,0,1-.07-.67V77.76H38v-.45h.42v-.83l.57-.35v1.18h.58v.45H39v2A1,1,0,0,0,39,80a.21.21,0,0,0,.1.11.34.34,0,0,0,.19,0A1.33,1.33,0,0,0,39.59,80.17Z" transform="translate(0.01 -21.92)"/><path class="cls-4" d="M39.92,79.29v-.58h1.76v.58Z" transform="translate(0.01 -21.92)"/><path class="cls-4" d="M44.5,80.68v-.42a1.07,1.07,0,0,1-1,.5,1.39,1.39,0,0,1-.74-.22,1.48,1.48,0,0,1-.52-.63A2,2,0,0,1,42.1,79a2.47,2.47,0,0,1,.17-.92,1.37,1.37,0,0,1,.5-.63,1.43,1.43,0,0,1,.76-.22,1.2,1.2,0,0,1,.54.13,1.17,1.17,0,0,1,.39.34V76H45v4.65ZM42.69,79A1.5,1.5,0,0,0,43,80a.84.84,0,0,0,.65.32.78.78,0,0,0,.63-.31,1.36,1.36,0,0,0,.27-.93,1.59,1.59,0,0,0-.27-1,.84.84,0,0,0-.66-.32A.78.78,0,0,0,43,78,1.47,1.47,0,0,0,42.69,79Z" transform="translate(0.01 -21.92)"/><path class="cls-4" d="M48.13,80.68v-.49a1.23,1.23,0,0,1-1.07.57,1.26,1.26,0,0,1-.55-.12.91.91,0,0,1-.39-.28,1.11,1.11,0,0,1-.17-.43,2.3,2.3,0,0,1,0-.53V77.31h.57v1.87a2.63,2.63,0,0,0,0,.6.58.58,0,0,0,.23.36.73.73,0,0,0,.43.13.92.92,0,0,0,.48-.14.68.68,0,0,0,.32-.35,1.94,1.94,0,0,0,.09-.66V77.31h.57v3.37Z" transform="translate(0.01 -21.92)"/><path class="cls-4" d="M49.53,80.68V77.31h.52v.51a1.41,1.41,0,0,1,.36-.47.61.61,0,0,1,.37-.12,1.11,1.11,0,0,1,.58.19l-.19.53a.84.84,0,0,0-.42-.12.51.51,0,0,0-.34.11.58.58,0,0,0-.21.31,2.35,2.35,0,0,0-.1.67v1.76Z" transform="translate(0.01 -21.92)"/><path class="cls-4" d="M53.9,80.27a2.17,2.17,0,0,1-.61.38,1.81,1.81,0,0,1-.63.11,1.22,1.22,0,0,1-.85-.27.91.91,0,0,1-.3-.7,1,1,0,0,1,.11-.45,1,1,0,0,1,.3-.33,1.38,1.38,0,0,1,.41-.18,4.17,4.17,0,0,1,.51-.09,5.33,5.33,0,0,0,1-.2v-.15a.67.67,0,0,0-.16-.49,1,1,0,0,0-.65-.19,1.06,1.06,0,0,0-.6.14.83.83,0,0,0-.28.5l-.56-.08a1.34,1.34,0,0,1,.25-.58,1.17,1.17,0,0,1,.5-.34,2.26,2.26,0,0,1,.77-.12,1.94,1.94,0,0,1,.7.11,1,1,0,0,1,.4.25.87.87,0,0,1,.17.39,3.08,3.08,0,0,1,0,.53v.76a6.89,6.89,0,0,0,0,1,1.19,1.19,0,0,0,.14.4H54A1.23,1.23,0,0,1,53.9,80.27Zm0-1.28a4.52,4.52,0,0,1-.94.22,2.25,2.25,0,0,0-.5.11.45.45,0,0,0-.22.19.5.5,0,0,0,.09.65.78.78,0,0,0,.51.15,1.28,1.28,0,0,0,.59-.14.89.89,0,0,0,.37-.4,1.39,1.39,0,0,0,.1-.57Z" transform="translate(0.01 -21.92)"/><path class="cls-4" d="M56.57,80.17l.08.51a2.47,2.47,0,0,1-.43,0,1.09,1.09,0,0,1-.49-.1.6.6,0,0,1-.24-.26,2.24,2.24,0,0,1-.07-.67V77.76H55v-.45h.42v-.83l.57-.35v1.18h.58v.45H56v2A1,1,0,0,0,56,80a.21.21,0,0,0,.1.11.34.34,0,0,0,.19,0A1.33,1.33,0,0,0,56.57,80.17Z" transform="translate(0.01 -21.92)"/><path class="cls-4" d="M57.13,76.69V76h.57v.66Zm0,4V77.31h.57v3.37Z" transform="translate(0.01 -21.92)"/><path class="cls-4" d="M58.36,79a1.73,1.73,0,0,1,.52-1.39,1.57,1.57,0,0,1,1.06-.38,1.51,1.51,0,0,1,1.13.46A1.7,1.7,0,0,1,61.51,79a2.24,2.24,0,0,1-.19,1,1.39,1.39,0,0,1-.57.58,1.63,1.63,0,0,1-.81.21,1.49,1.49,0,0,1-1.15-.46A1.79,1.79,0,0,1,58.36,79Zm.58,0a1.44,1.44,0,0,0,.29,1,.9.9,0,0,0,.71.32.87.87,0,0,0,.7-.33,1.43,1.43,0,0,0,.29-1,1.4,1.4,0,0,0-.29-1,.94.94,0,0,0-1.41,0A1.42,1.42,0,0,0,58.94,79Z" transform="translate(0.01 -21.92)"/><path class="cls-4" d="M62.18,80.68V77.31h.52v.48a1.21,1.21,0,0,1,1.07-.56,1.47,1.47,0,0,1,.56.11.89.89,0,0,1,.38.29,1,1,0,0,1,.18.42,3.51,3.51,0,0,1,0,.56v2.07h-.57V78.63a1.41,1.41,0,0,0-.07-.52.53.53,0,0,0-.23-.28.77.77,0,0,0-.4-.1A1,1,0,0,0,63,78a1.14,1.14,0,0,0-.27.88v1.84Z" transform="translate(0.01 -21.92)"/><path class="cls-4" d="M24.6,88.48V85.11h.52v.51a1.41,1.41,0,0,1,.36-.47.61.61,0,0,1,.37-.12,1.14,1.14,0,0,1,.58.19l-.19.53a.84.84,0,0,0-.42-.12.51.51,0,0,0-.34.11.58.58,0,0,0-.21.31,2,2,0,0,0-.1.67v1.76Z" transform="translate(0.01 -21.92)"/><path class="cls-4" d="M29,88.48V88a1.23,1.23,0,0,1-1.07.57,1.26,1.26,0,0,1-.55-.12.86.86,0,0,1-.39-.28,1.11,1.11,0,0,1-.17-.43,2.3,2.3,0,0,1,0-.53V85.11h.57V87a2.63,2.63,0,0,0,0,.6.58.58,0,0,0,.23.36.73.73,0,0,0,.43.13.92.92,0,0,0,.48-.14.68.68,0,0,0,.32-.35,1.94,1.94,0,0,0,.09-.66V85.11h.57v3.37Z" transform="translate(0.01 -21.92)"/><path class="cls-4" d="M30.39,88.48V85.11h.51v.48A1.23,1.23,0,0,1,32,85a1.42,1.42,0,0,1,.55.11,1,1,0,0,1,.39.29,1.13,1.13,0,0,1,.17.42,2.44,2.44,0,0,1,0,.56v2.07h-.57v-2a1.66,1.66,0,0,0-.07-.52.55.55,0,0,0-.24-.28.72.72,0,0,0-.4-.1,1,1,0,0,0-.63.23,1.18,1.18,0,0,0-.26.88v1.84Z" transform="translate(0.01 -21.92)"/><path class="cls-4" d="M34,88.48V85.11h.52v.48A1.2,1.2,0,0,1,35.59,85a1.47,1.47,0,0,1,.56.11.89.89,0,0,1,.38.29,1,1,0,0,1,.18.42,3.51,3.51,0,0,1,0,.56v2.07h-.57v-2a1.41,1.41,0,0,0-.07-.52.53.53,0,0,0-.23-.28.77.77,0,0,0-.4-.1,1,1,0,0,0-.63.23,1.14,1.14,0,0,0-.27.88v1.84Z" transform="translate(0.01 -21.92)"/><path class="cls-4" d="M37.62,84.49v-.66h.57v.66Zm0,4V85.11h.57v3.37Z" transform="translate(0.01 -21.92)"/><path class="cls-4" d="M39.06,88.48V85.11h.52v.48A1.2,1.2,0,0,1,40.65,85a1.47,1.47,0,0,1,.56.11.89.89,0,0,1,.38.29,1,1,0,0,1,.18.42,3.51,3.51,0,0,1,0,.56v2.07h-.57v-2a1.41,1.41,0,0,0-.07-.52.53.53,0,0,0-.23-.28.77.77,0,0,0-.4-.1.94.94,0,0,0-.63.23,1.14,1.14,0,0,0-.27.88v1.84Z" transform="translate(0.01 -21.92)"/><path class="cls-4" d="M42.57,88.76l.56.08a.56.56,0,0,0,.19.38,1,1,0,0,0,.58.16,1,1,0,0,0,.61-.16.79.79,0,0,0,.3-.45,3.76,3.76,0,0,0,0-.73,1.19,1.19,0,0,1-.94.44,1.24,1.24,0,0,1-1.07-.5,1.87,1.87,0,0,1-.38-1.2,2.35,2.35,0,0,1,.17-.89,1.46,1.46,0,0,1,.51-.63,1.35,1.35,0,0,1,.78-.23,1.21,1.21,0,0,1,1,.49v-.41h.53V88a2.9,2.9,0,0,1-.16,1.12,1.22,1.22,0,0,1-.51.52,1.74,1.74,0,0,1-.86.19,1.61,1.61,0,0,1-1-.27A.91.91,0,0,1,42.57,88.76Zm.48-2a1.41,1.41,0,0,0,.26,1A.81.81,0,0,0,44,88a.85.85,0,0,0,.66-.3,1.76,1.76,0,0,0,0-1.89.85.85,0,0,0-1.31,0A1.35,1.35,0,0,0,43.05,86.74Z" transform="translate(0.01 -21.92)"/><path class="cls-4" d="M48.09,88.48V85.11h.52v.51a1.41,1.41,0,0,1,.36-.47.61.61,0,0,1,.37-.12,1.14,1.14,0,0,1,.58.19l-.19.53a.84.84,0,0,0-.42-.12.51.51,0,0,0-.34.11.58.58,0,0,0-.21.31,2,2,0,0,0-.1.67v1.76Z" transform="translate(0.01 -21.92)"/><path class="cls-4" d="M52.46,88.07a2.17,2.17,0,0,1-.61.38,1.85,1.85,0,0,1-.63.11,1.22,1.22,0,0,1-.85-.27.91.91,0,0,1-.3-.7,1,1,0,0,1,.11-.45,1,1,0,0,1,.3-.33,1.28,1.28,0,0,1,.41-.18,4.17,4.17,0,0,1,.51-.09,5,5,0,0,0,1-.2,1.06,1.06,0,0,0,0-.15.67.67,0,0,0-.16-.49,1,1,0,0,0-.66-.19,1,1,0,0,0-.59.14.83.83,0,0,0-.28.5l-.56-.08a1.34,1.34,0,0,1,.25-.58,1.11,1.11,0,0,1,.5-.34,2.26,2.26,0,0,1,.77-.12,1.94,1.94,0,0,1,.7.11,1,1,0,0,1,.4.25.87.87,0,0,1,.17.39,3.08,3.08,0,0,1,0,.53v.76a6.89,6.89,0,0,0,0,1,1.19,1.19,0,0,0,.14.4h-.59A1.23,1.23,0,0,1,52.46,88.07Zm-.05-1.28a4.24,4.24,0,0,1-.93.22,2.25,2.25,0,0,0-.5.11.45.45,0,0,0-.22.19.43.43,0,0,0-.08.27.5.5,0,0,0,.17.38.76.76,0,0,0,.51.15,1.21,1.21,0,0,0,.58-.14.86.86,0,0,0,.38-.4,1.41,1.41,0,0,0,.09-.57Z" transform="translate(0.01 -21.92)"/><path class="cls-4" d="M53.88,88.48V85.11h.51v.48A1.22,1.22,0,0,1,55.46,85a1.52,1.52,0,0,1,.57.11,1,1,0,0,1,.38.29,1.13,1.13,0,0,1,.17.42,2.44,2.44,0,0,1,0,.56v2.07h-.57v-2a1.66,1.66,0,0,0-.07-.52.6.6,0,0,0-.24-.28.72.72,0,0,0-.4-.1,1,1,0,0,0-.63.23,1.18,1.18,0,0,0-.26.88v1.84Z" transform="translate(0.01 -21.92)"/><path class="cls-4" d="M57.39,88.76l.55.08a.56.56,0,0,0,.2.38,1,1,0,0,0,.58.16,1.05,1.05,0,0,0,.61-.16.82.82,0,0,0,.29-.45,3.76,3.76,0,0,0,0-.73,1.18,1.18,0,0,1-.93.44,1.28,1.28,0,0,1-1.08-.5,1.93,1.93,0,0,1-.38-1.2,2.18,2.18,0,0,1,.18-.89A1.34,1.34,0,0,1,58.73,85a1.23,1.23,0,0,1,1,.49v-.41h.52V88a2.72,2.72,0,0,1-.16,1.12,1.14,1.14,0,0,1-.5.52,1.76,1.76,0,0,1-.86.19,1.59,1.59,0,0,1-1-.27A.91.91,0,0,1,57.39,88.76Zm.47-2a1.47,1.47,0,0,0,.26,1,.87.87,0,0,0,1.32,0,1.79,1.79,0,0,0,0-1.89.87.87,0,0,0-.67-.31.81.81,0,0,0-.64.31A1.35,1.35,0,0,0,57.86,86.74Z" transform="translate(0.01 -21.92)"/><path class="cls-4" d="M63.41,87.4l.6.07a1.5,1.5,0,0,1-.52.8,1.57,1.57,0,0,1-1,.29,1.52,1.52,0,0,1-1.17-.46,1.77,1.77,0,0,1-.43-1.28,1.89,1.89,0,0,1,.43-1.32A1.52,1.52,0,0,1,62.49,85a1.46,1.46,0,0,1,1.11.47A1.82,1.82,0,0,1,64,86.79v.15H61.51a1.26,1.26,0,0,0,.31.85.93.93,0,0,0,.71.3.86.86,0,0,0,.53-.17A1,1,0,0,0,63.41,87.4Zm-1.87-.93h1.88a1.21,1.21,0,0,0-.21-.64.92.92,0,0,0-.71-.33.88.88,0,0,0-.66.27A1,1,0,0,0,61.54,86.47Z" transform="translate(0.01 -21.92)"/><path class="cls-4" d="M4.64,98.27H.54V99.8H0V96.11H.54v1.54h4.1Z" transform="translate(0.01 -21.92)"/><path class="cls-4" d="M3,95.77a1.73,1.73,0,0,1-1.39-.52,1.57,1.57,0,0,1-.38-1.06,1.54,1.54,0,0,1,.46-1.14,1.74,1.74,0,0,1,1.26-.44,2.22,2.22,0,0,1,1,.2,1.42,1.42,0,0,1,.58.56,1.64,1.64,0,0,1,.21.82,1.48,1.48,0,0,1-.46,1.14A1.81,1.81,0,0,1,3,95.77Zm0-.59a1.39,1.39,0,0,0,1-.28.91.91,0,0,0,.33-.71.89.89,0,0,0-.33-.71,1.43,1.43,0,0,0-1-.28,1.38,1.38,0,0,0-.95.28A.95.95,0,0,0,2,94.9,1.41,1.41,0,0,0,3,95.18Z" transform="translate(0.01 -21.92)"/><path class="cls-4" d="M4.64,92H1.27v-.52h.51a1.31,1.31,0,0,1-.47-.36.61.61,0,0,1-.12-.37,1.11,1.11,0,0,1,.19-.58l.53.19a.86.86,0,0,0-.13.42.52.52,0,0,0,.12.34.58.58,0,0,0,.31.21,2.3,2.3,0,0,0,.67.1H4.64Z" transform="translate(0.01 -21.92)"/><path class="cls-4" d="M5.93,87.63H4.28a1,1,0,0,1,.31.37,1,1,0,0,1,.13.51,1.34,1.34,0,0,1-.48,1A1.9,1.9,0,0,1,2.92,90,2.24,2.24,0,0,1,2,89.8a1.33,1.33,0,0,1-.82-1.25,1.14,1.14,0,0,1,.53-1H1.27v-.51H5.93ZM3,89.39a1.5,1.5,0,0,0,1-.27.81.81,0,0,0,0-1.29A1.46,1.46,0,0,0,3,87.57a1.57,1.57,0,0,0-1,.28.83.83,0,0,0-.34.65.79.79,0,0,0,.32.63A1.56,1.56,0,0,0,3,89.39Z" transform="translate(0.01 -21.92)"/><path class="cls-4" d="M4.64,84H4.15A1.23,1.23,0,0,1,4.72,85a1.31,1.31,0,0,1-.12.56.88.88,0,0,1-.28.38,1,1,0,0,1-.43.18,3.33,3.33,0,0,1-.53,0H1.27V85.6H3.14a3.77,3.77,0,0,0,.6,0,.63.63,0,0,0,.36-.23.75.75,0,0,0,.12-.43.91.91,0,0,0-.13-.48.63.63,0,0,0-.36-.32,1.61,1.61,0,0,0-.65-.1H1.27v-.57H4.64Z" transform="translate(0.01 -21.92)"/><path class="cls-4" d="M3.56,80.24l.07-.59a1.39,1.39,0,0,1,.8.52,1.72,1.72,0,0,1-.17,2.13A1.77,1.77,0,0,1,3,82.74a1.9,1.9,0,0,1-1.32-.44,1.49,1.49,0,0,1-.47-1.14,1.45,1.45,0,0,1,.46-1.1A1.82,1.82,0,0,1,3,79.63H3.1v2.52A1.27,1.27,0,0,0,4,81.83a.92.92,0,0,0,.3-.7.89.89,0,0,0-.17-.54A1.09,1.09,0,0,0,3.56,80.24Zm-.93,1.87V80.23a1.21,1.21,0,0,0-.64.22.88.88,0,0,0-.33.71.9.9,0,0,0,.27.66A1,1,0,0,0,2.63,82.11Z" transform="translate(0.01 -21.92)"/><path class="cls-4" d="M5.93,77.11H0V75.85H.46v.69h5v-.69h.47Z" transform="translate(0.01 -21.92)"/><path class="cls-4" d="M4.64,75.25H0v-.63l3.65-2.44H0v-.59H4.64v.63L1,74.66H4.64Z" transform="translate(0.01 -21.92)"/><path class="cls-4" d="M2.36,70.71a.81.81,0,1,1,.57-1.37.75.75,0,0,1,.24.57.76.76,0,0,1-.24.56A.78.78,0,0,1,2.36,70.71Z" transform="translate(0.01 -21.92)"/><path class="cls-4" d="M4.64,68.35H1.27v-.51h.47a1.46,1.46,0,0,1-.4-.42,1.21,1.21,0,0,1-.15-.6,1.16,1.16,0,0,1,.16-.62.86.86,0,0,1,.43-.34,1.2,1.2,0,0,1-.59-1,1.05,1.05,0,0,1,.28-.77,1.2,1.2,0,0,1,.86-.27H4.64v.57H2.52a1.49,1.49,0,0,0-.5.06.42.42,0,0,0-.24.2.64.64,0,0,0-.09.34.79.79,0,0,0,.24.59,1,1,0,0,0,.75.24h2v.57H2.45a.92.92,0,0,0-.57.14.51.51,0,0,0-.19.45.81.81,0,0,0,.13.45.7.7,0,0,0,.37.3,2.12,2.12,0,0,0,.7.09H4.64Z" transform="translate(0.01 -21.92)"/><path class="cls-4" d="M5.93,62v1.26H5.46v-.69h-5v.69H0V62Z" transform="translate(0.01 -21.92)"/><rect class="繝後Μ_逋ｽ" x="22.73" y="96.62" width="41.46" height="16.73"/><path class="cls-4" d="M28.1,123.29l.62.16a2,2,0,0,1-.7,1.15,1.91,1.91,0,0,1-1.23.4,2.14,2.14,0,0,1-1.22-.31,1.86,1.86,0,0,1-.72-.88,3.28,3.28,0,0,1-.25-1.25,2.83,2.83,0,0,1,.28-1.27,2,2,0,0,1,.79-.82,2.28,2.28,0,0,1,1.13-.28,1.93,1.93,0,0,1,1.17.35,1.88,1.88,0,0,1,.67,1l-.61.15a1.4,1.4,0,0,0-.47-.74,1.2,1.2,0,0,0-.77-.23,1.52,1.52,0,0,0-.9.25,1.37,1.37,0,0,0-.51.69,3,3,0,0,0-.14.9,2.92,2.92,0,0,0,.17,1,1.35,1.35,0,0,0,.54.67,1.53,1.53,0,0,0,.79.21,1.39,1.39,0,0,0,.88-.29A1.57,1.57,0,0,0,28.1,123.29Z" transform="translate(0.01 -21.92)"/><path class="cls-4" d="M29.19,123.24a1.73,1.73,0,0,1,.52-1.39,1.65,1.65,0,0,1,2.2.08,1.74,1.74,0,0,1,.44,1.26,2.22,2.22,0,0,1-.2,1,1.39,1.39,0,0,1-.57.58,1.6,1.6,0,0,1-.81.21,1.48,1.48,0,0,1-1.14-.46A1.75,1.75,0,0,1,29.19,123.24Zm.59,0a1.44,1.44,0,0,0,.28,1,.94.94,0,0,0,1.42,0,1.43,1.43,0,0,0,.28-1,1.38,1.38,0,0,0-.28-1,.93.93,0,0,0-.71-.32.88.88,0,0,0-.71.32A1.41,1.41,0,0,0,29.78,123.24Z" transform="translate(0.01 -21.92)"/><path class="cls-4" d="M33,124.92v-3.37h.51V122a1.22,1.22,0,0,1,1.07-.56,1.43,1.43,0,0,1,.56.11,1,1,0,0,1,.39.29,1.13,1.13,0,0,1,.17.42,2.44,2.44,0,0,1,0,.56v2.07h-.58v-2a1.67,1.67,0,0,0-.06-.52.55.55,0,0,0-.24-.28.72.72,0,0,0-.4-.1,1,1,0,0,0-.63.23,1.18,1.18,0,0,0-.26.88v1.84Z" transform="translate(0.01 -21.92)"/><path class="cls-4" d="M37.88,124.41l.08.51a2.37,2.37,0,0,1-.43,0,1,1,0,0,1-.48-.1.5.5,0,0,1-.24-.26,2,2,0,0,1-.07-.68V122h-.42v-.45h.42v-.83l.56-.35v1.18h.58V122H37.3v2a1,1,0,0,0,0,.31.36.36,0,0,0,.1.11.37.37,0,0,0,.2,0A1.24,1.24,0,0,0,37.88,124.41Z" transform="translate(0.01 -21.92)"/><path class="cls-4" d="M38.44,120.93v-.66H39v.66Zm0,4v-3.37H39v3.37Z" transform="translate(0.01 -21.92)"/><path class="cls-4" d="M39.88,124.92v-3.37h.52V122a1.2,1.2,0,0,1,1.07-.56,1.47,1.47,0,0,1,.56.11.89.89,0,0,1,.38.29,1,1,0,0,1,.18.42,3.51,3.51,0,0,1,0,.56v2.07h-.57v-2a1.38,1.38,0,0,0-.07-.52.53.53,0,0,0-.23-.28.77.77,0,0,0-.4-.1.94.94,0,0,0-.63.23,1.14,1.14,0,0,0-.27.88v1.84Z" transform="translate(0.01 -21.92)"/><path class="cls-4" d="M45.71,124.92v-.49a1.25,1.25,0,0,1-1.07.57,1.31,1.31,0,0,1-.56-.12.88.88,0,0,1-.38-.28,1,1,0,0,1-.18-.43,3.07,3.07,0,0,1,0-.53v-2.09h.58v1.87a3.77,3.77,0,0,0,0,.6.63.63,0,0,0,.23.36.75.75,0,0,0,.43.13.92.92,0,0,0,.48-.14.68.68,0,0,0,.32-.35,1.91,1.91,0,0,0,.1-.66v-1.81h.57v3.37Z" transform="translate(0.01 -21.92)"/><path class="cls-4" d="M46.9,123.24a1.73,1.73,0,0,1,.52-1.39,1.65,1.65,0,0,1,2.2.08,1.74,1.74,0,0,1,.44,1.26,2.22,2.22,0,0,1-.2,1,1.39,1.39,0,0,1-.57.58,1.6,1.6,0,0,1-.81.21,1.48,1.48,0,0,1-1.14-.46A1.75,1.75,0,0,1,46.9,123.24Zm.59,0a1.44,1.44,0,0,0,.28,1,.94.94,0,0,0,1.42,0,1.43,1.43,0,0,0,.28-1,1.38,1.38,0,0,0-.28-1,.93.93,0,0,0-.71-.32.88.88,0,0,0-.71.32A1.41,1.41,0,0,0,47.49,123.24Z" transform="translate(0.01 -21.92)"/><path class="cls-4" d="M52.94,124.92v-.49a1.25,1.25,0,0,1-1.07.57,1.31,1.31,0,0,1-.56-.12.88.88,0,0,1-.38-.28,1,1,0,0,1-.18-.43,3.07,3.07,0,0,1,0-.53v-2.09h.58v1.87a3.77,3.77,0,0,0,0,.6.63.63,0,0,0,.23.36.75.75,0,0,0,.43.13.92.92,0,0,0,.48-.14.68.68,0,0,0,.32-.35,1.91,1.91,0,0,0,.1-.66v-1.81h.57v3.37Z" transform="translate(0.01 -21.92)"/><path class="cls-4" d="M54.11,123.92l.57-.09a.81.81,0,0,0,.26.52.94.94,0,0,0,.61.18,1,1,0,0,0,.59-.16.5.5,0,0,0,.19-.38.34.34,0,0,0-.17-.3,2.64,2.64,0,0,0-.59-.2,4.57,4.57,0,0,1-.87-.27.81.81,0,0,1-.49-.77.89.89,0,0,1,.38-.74,1.16,1.16,0,0,1,.37-.17,1.87,1.87,0,0,1,.49-.07,1.9,1.9,0,0,1,.7.12,1,1,0,0,1,.44.31,1.31,1.31,0,0,1,.2.52l-.56.08a.64.64,0,0,0-.22-.41.81.81,0,0,0-.52-.15,1,1,0,0,0-.56.13.4.4,0,0,0-.17.31.31.31,0,0,0,.07.2.53.53,0,0,0,.22.15l.5.15a7.22,7.22,0,0,1,.85.26.88.88,0,0,1,.38.3.85.85,0,0,1,.13.49,1,1,0,0,1-.16.54,1.07,1.07,0,0,1-.49.39,1.73,1.73,0,0,1-.71.14,1.55,1.55,0,0,1-1-.28A1.29,1.29,0,0,1,54.11,123.92Z" transform="translate(0.01 -21.92)"/><path class="cls-4" d="M24.7,132.72v-3.37h.52v.51a1.41,1.41,0,0,1,.36-.47.61.61,0,0,1,.37-.12,1.14,1.14,0,0,1,.58.19l-.19.53a.84.84,0,0,0-.42-.12.51.51,0,0,0-.34.11.58.58,0,0,0-.21.31,2,2,0,0,0-.1.67v1.76Z" transform="translate(0.01 -21.92)"/><path class="cls-4" d="M29.08,132.72v-.49a1.23,1.23,0,0,1-1.07.57,1.34,1.34,0,0,1-.56-.12.88.88,0,0,1-.38-.28,1.3,1.3,0,0,1-.18-.43,3.33,3.33,0,0,1,0-.53v-2.09h.57v1.87a2.63,2.63,0,0,0,0,.6.61.61,0,0,0,.22.36.76.76,0,0,0,.44.13.92.92,0,0,0,.48-.14.73.73,0,0,0,.32-.35,1.94,1.94,0,0,0,.09-.66v-1.81h.57v3.37Z" transform="translate(0.01 -21.92)"/><path class="cls-4" d="M30.49,132.72v-3.37H31v.48a1.22,1.22,0,0,1,1.07-.56,1.52,1.52,0,0,1,.57.11,1,1,0,0,1,.38.29,1.13,1.13,0,0,1,.17.42,2.44,2.44,0,0,1,0,.56v2.07h-.57v-2.05a1.62,1.62,0,0,0-.07-.52.6.6,0,0,0-.24-.28.72.72,0,0,0-.4-.1,1,1,0,0,0-.63.23,1.18,1.18,0,0,0-.26.88v1.84Z" transform="translate(0.01 -21.92)"/><path class="cls-4" d="M34.1,132.72v-3.37h.52v.48a1.2,1.2,0,0,1,1.07-.56,1.47,1.47,0,0,1,.56.11.89.89,0,0,1,.38.29,1,1,0,0,1,.18.42,3.51,3.51,0,0,1,0,.56v2.07h-.57v-2.05a1.38,1.38,0,0,0-.07-.52.53.53,0,0,0-.23-.28.77.77,0,0,0-.4-.1,1,1,0,0,0-.63.23,1.14,1.14,0,0,0-.27.88v1.84Z" transform="translate(0.01 -21.92)"/><path class="cls-4" d="M37.72,128.73v-.66h.57v.66Zm0,4v-3.37h.57v3.37Z" transform="translate(0.01 -21.92)"/><path class="cls-4" d="M39.16,132.72v-3.37h.52v.48a1.2,1.2,0,0,1,1.07-.56,1.47,1.47,0,0,1,.56.11.89.89,0,0,1,.38.29,1,1,0,0,1,.18.42,3.51,3.51,0,0,1,0,.56v2.07h-.57v-2.05a1.38,1.38,0,0,0-.07-.52.53.53,0,0,0-.23-.28.77.77,0,0,0-.4-.1A.92.92,0,0,0,40,130a1.14,1.14,0,0,0-.27.88v1.84Z" transform="translate(0.01 -21.92)"/><path class="cls-4" d="M42.67,133l.56.08a.52.52,0,0,0,.19.38,1,1,0,0,0,.58.16,1,1,0,0,0,.61-.16.79.79,0,0,0,.3-.45,3.76,3.76,0,0,0,0-.73,1.19,1.19,0,0,1-.94.44,1.27,1.27,0,0,1-1.07-.5,1.87,1.87,0,0,1-.38-1.2,2.35,2.35,0,0,1,.17-.89,1.4,1.4,0,0,1,.51-.63,1.35,1.35,0,0,1,.78-.23,1.21,1.21,0,0,1,1,.49v-.41h.53v2.91a2.72,2.72,0,0,1-.16,1.12,1.22,1.22,0,0,1-.51.52,1.74,1.74,0,0,1-.86.19,1.61,1.61,0,0,1-1-.27A.92.92,0,0,1,42.67,133Zm.47-2a1.41,1.41,0,0,0,.27,1,.81.81,0,0,0,.66.31.85.85,0,0,0,.66-.3,1.76,1.76,0,0,0,0-1.89.83.83,0,0,0-.66-.31.81.81,0,0,0-.65.31A1.35,1.35,0,0,0,43.14,131Z" transform="translate(0.01 -21.92)"/><path class="cls-4" d="M48.19,132.72v-3.37h.51v.51a1.55,1.55,0,0,1,.37-.47.6.6,0,0,1,.36-.12,1.14,1.14,0,0,1,.59.19l-.19.53a.84.84,0,0,0-.42-.12.51.51,0,0,0-.34.11.58.58,0,0,0-.21.31,2,2,0,0,0-.1.67v1.76Z" transform="translate(0.01 -21.92)"/><path class="cls-4" d="M52.56,132.31a2.17,2.17,0,0,1-.61.38,1.9,1.9,0,0,1-.63.11,1.2,1.2,0,0,1-.85-.27.91.91,0,0,1-.3-.7,1,1,0,0,1,.11-.45.87.87,0,0,1,.3-.33,1.72,1.72,0,0,1,.41-.19l.51-.08a5,5,0,0,0,1-.2,1.14,1.14,0,0,0,0-.15.63.63,0,0,0-.17-.49.94.94,0,0,0-.65-.19,1,1,0,0,0-.59.14.89.89,0,0,0-.29.5l-.55-.08a1.34,1.34,0,0,1,.25-.58,1.11,1.11,0,0,1,.5-.34,2.26,2.26,0,0,1,.77-.12,2,2,0,0,1,.7.11.92.92,0,0,1,.4.25.87.87,0,0,1,.17.39,3.08,3.08,0,0,1,0,.53v.76a6.89,6.89,0,0,0,0,1,1.19,1.19,0,0,0,.14.4h-.59A1.31,1.31,0,0,1,52.56,132.31ZM52.51,131a4.24,4.24,0,0,1-.93.22,2.25,2.25,0,0,0-.5.11.41.41,0,0,0-.22.19.43.43,0,0,0-.08.27.5.5,0,0,0,.17.38.76.76,0,0,0,.51.15,1.21,1.21,0,0,0,.58-.14.86.86,0,0,0,.38-.4,1.41,1.41,0,0,0,.09-.57Z" transform="translate(0.01 -21.92)"/><path class="cls-4" d="M54,132.72v-3.37h.51v.48a1.22,1.22,0,0,1,1.07-.56,1.43,1.43,0,0,1,.56.11,1,1,0,0,1,.39.29,1.13,1.13,0,0,1,.17.42,2.44,2.44,0,0,1,0,.56v2.07h-.58v-2.05a1.67,1.67,0,0,0-.06-.52.55.55,0,0,0-.24-.28.72.72,0,0,0-.4-.1,1,1,0,0,0-.63.23,1.18,1.18,0,0,0-.26.88v1.84Z" transform="translate(0.01 -21.92)"/><path class="cls-4" d="M57.49,133l.55.08a.56.56,0,0,0,.2.38,1,1,0,0,0,.58.16,1.05,1.05,0,0,0,.61-.16.82.82,0,0,0,.29-.45,3.76,3.76,0,0,0,0-.73,1.18,1.18,0,0,1-.93.44,1.3,1.3,0,0,1-1.08-.5,1.93,1.93,0,0,1-.38-1.2,2.18,2.18,0,0,1,.18-.89,1.32,1.32,0,0,1,.5-.63,1.35,1.35,0,0,1,.78-.23,1.23,1.23,0,0,1,1,.49v-.41h.52v2.91a2.72,2.72,0,0,1-.16,1.12,1.14,1.14,0,0,1-.5.52,1.76,1.76,0,0,1-.86.19,1.59,1.59,0,0,1-1-.27A.92.92,0,0,1,57.49,133Zm.47-2a1.47,1.47,0,0,0,.26,1,.87.87,0,0,0,1.32,0,1.79,1.79,0,0,0,0-1.89.87.87,0,0,0-.67-.31.79.79,0,0,0-.64.31A1.35,1.35,0,0,0,58,131Z" transform="translate(0.01 -21.92)"/><path class="cls-4" d="M63.51,131.64l.59.07a1.43,1.43,0,0,1-.51.8,1.6,1.6,0,0,1-1,.29,1.52,1.52,0,0,1-1.17-.46,1.77,1.77,0,0,1-.43-1.28,1.89,1.89,0,0,1,.43-1.32,1.52,1.52,0,0,1,1.14-.47,1.46,1.46,0,0,1,1.11.47,1.82,1.82,0,0,1,.42,1.29v.15H61.61a1.26,1.26,0,0,0,.31.85.93.93,0,0,0,.71.3.88.88,0,0,0,.53-.17A1,1,0,0,0,63.51,131.64Zm-1.87-.93h1.88a1.21,1.21,0,0,0-.22-.64.86.86,0,0,0-.7-.33.9.9,0,0,0-.67.27A1.07,1.07,0,0,0,61.64,130.71Z" transform="translate(0.01 -21.92)"/><path class="cls-4" d="M44.76,150.56l.58-.05a1.32,1.32,0,0,0,.19.57,1,1,0,0,0,.47.36,1.8,1.8,0,0,0,.71.14,1.64,1.64,0,0,0,.62-.11.91.91,0,0,0,.41-.28.76.76,0,0,0,.13-.4.59.59,0,0,0-.13-.39.92.92,0,0,0-.42-.27c-.12,0-.4-.12-.83-.23a4.15,4.15,0,0,1-.89-.29,1.19,1.19,0,0,1-.5-.43,1.06,1.06,0,0,1-.16-.58,1.16,1.16,0,0,1,.2-.66,1.18,1.18,0,0,1,.58-.46,2.15,2.15,0,0,1,.85-.16,2.4,2.4,0,0,1,.92.16,1.35,1.35,0,0,1,.6.5,1.32,1.32,0,0,1,.23.73l-.59,0a1,1,0,0,0-.32-.66,1.24,1.24,0,0,0-.81-.23,1.3,1.3,0,0,0-.82.21.6.6,0,0,0-.25.49.52.52,0,0,0,.18.41,2.39,2.39,0,0,0,.93.33,7.58,7.58,0,0,1,1,.3,1.47,1.47,0,0,1,.6.47,1.19,1.19,0,0,1,.19.67,1.3,1.3,0,0,1-.21.7,1.4,1.4,0,0,1-.61.51,2.19,2.19,0,0,1-.9.18,2.76,2.76,0,0,1-1.06-.18,1.59,1.59,0,0,1-.67-.56A1.56,1.56,0,0,1,44.76,150.56Z" transform="translate(0.01 -21.92)"/><path class="cls-4" d="M49.23,153.34v-4.66h.52v.44a1.29,1.29,0,0,1,.42-.39,1.19,1.19,0,0,1,.56-.13,1.31,1.31,0,0,1,.76.23,1.29,1.29,0,0,1,.5.62,2.35,2.35,0,0,1,.17.89,2.3,2.3,0,0,1-.19.93,1.36,1.36,0,0,1-.54.64,1.45,1.45,0,0,1-.74.22,1.14,1.14,0,0,1-.52-.12,1.25,1.25,0,0,1-.37-.31v1.64Zm.52-3a1.46,1.46,0,0,0,.26,1,.82.82,0,0,0,1.29,0,2,2,0,0,0,0-2,.82.82,0,0,0-.64-.32.84.84,0,0,0-.64.34A1.52,1.52,0,0,0,49.75,150.38Z" transform="translate(0.01 -21.92)"/><path class="cls-4" d="M55.15,151l.59.07a1.43,1.43,0,0,1-.51.8,1.6,1.6,0,0,1-1,.29,1.52,1.52,0,0,1-1.17-.46,1.77,1.77,0,0,1-.44-1.28,1.9,1.9,0,0,1,.44-1.32,1.49,1.49,0,0,1,1.14-.47,1.45,1.45,0,0,1,1.1.46,1.82,1.82,0,0,1,.43,1.3v.15H53.24a1.32,1.32,0,0,0,.32.85.92.92,0,0,0,.7.3.89.89,0,0,0,.54-.17A1,1,0,0,0,55.15,151ZM53.28,150h1.88a1.21,1.21,0,0,0-.22-.64.88.88,0,0,0-.71-.33.9.9,0,0,0-.66.27A1,1,0,0,0,53.28,150Z" transform="translate(0.01 -21.92)"/><path class="cls-4" d="M58.77,151l.59.07a1.5,1.5,0,0,1-.52.8,1.74,1.74,0,0,1-2.14-.17,1.77,1.77,0,0,1-.43-1.28,1.9,1.9,0,0,1,.44-1.32,1.58,1.58,0,0,1,2.24,0,1.87,1.87,0,0,1,.43,1.3,1,1,0,0,1,0,.15H56.86a1.32,1.32,0,0,0,.31.85.94.94,0,0,0,.71.3.84.84,0,0,0,.53-.17A1.1,1.1,0,0,0,58.77,151ZM56.89,150h1.88a1.13,1.13,0,0,0-.21-.64.88.88,0,0,0-.71-.33.9.9,0,0,0-.66.27A1,1,0,0,0,56.89,150Z" transform="translate(0.01 -21.92)"/><path class="cls-4" d="M62.26,152.05v-.42a1.05,1.05,0,0,1-.94.5,1.3,1.3,0,0,1-.74-.23,1.41,1.41,0,0,1-.53-.62,2.17,2.17,0,0,1-.18-.91,2.29,2.29,0,0,1,.17-.92,1.37,1.37,0,0,1,.5-.63,1.43,1.43,0,0,1,.75-.22,1.21,1.21,0,0,1,.55.13,1.24,1.24,0,0,1,.38.34V147.4h.57v4.65Zm-1.8-1.68a1.5,1.5,0,0,0,.27,1,.81.81,0,0,0,1.28,0,1.41,1.41,0,0,0,.26-.93,1.58,1.58,0,0,0-.27-1,.82.82,0,0,0-1.29,0A1.54,1.54,0,0,0,60.46,150.37Z" transform="translate(0.01 -21.92)"/><path class="cls-4" d="M65.51,153.34V147.4h1.26v.47h-.69v5h.69v.47Z" transform="translate(0.01 -21.92)"/><path class="cls-4" d="M67.3,152.05v-3.37h.51v.51a1.31,1.31,0,0,1,.36-.47.63.63,0,0,1,.37-.12,1.17,1.17,0,0,1,.59.19l-.2.53a.86.86,0,0,0-.42-.13.54.54,0,0,0-.34.12.58.58,0,0,0-.21.31,2.31,2.31,0,0,0-.09.67v1.76Z" transform="translate(0.01 -21.92)"/><path class="cls-4" d="M69,152.13l1.35-4.81h.45l-1.34,4.81Z" transform="translate(0.01 -21.92)"/><path class="cls-4" d="M71.27,152.05v-3.37h.51v.47a1.38,1.38,0,0,1,.43-.4,1.26,1.26,0,0,1,1.21,0,.86.86,0,0,1,.34.43,1.2,1.2,0,0,1,1-.59,1.05,1.05,0,0,1,.77.28,1.2,1.2,0,0,1,.27.86v2.31h-.57v-2.12a1.91,1.91,0,0,0,0-.5.49.49,0,0,0-.21-.24.62.62,0,0,0-.34-.09.79.79,0,0,0-.59.24,1,1,0,0,0-.23.75v2h-.58v-2.19a1,1,0,0,0-.13-.57.54.54,0,0,0-.46-.19.81.81,0,0,0-.45.13.69.69,0,0,0-.29.37,1.85,1.85,0,0,0-.1.7v1.75Z" transform="translate(0.01 -21.92)"/><path class="cls-4" d="M76.69,148.05v-.65h.57v.65Zm0,4v-3.37h.57v3.37Z" transform="translate(0.01 -21.92)"/><path class="cls-4" d="M78.13,152.05v-3.37h.51v.48a1.23,1.23,0,0,1,1.08-.56,1.47,1.47,0,0,1,.56.11.89.89,0,0,1,.38.29,1.33,1.33,0,0,1,.18.42,3.51,3.51,0,0,1,0,.56v2.07H80.3V150a1.38,1.38,0,0,0-.07-.52.5.5,0,0,0-.24-.28.71.71,0,0,0-.39-.1.92.92,0,0,0-.63.23,1.13,1.13,0,0,0-.27.88v1.84Z" transform="translate(0.01 -21.92)"/><path class="cls-4" d="M82.7,153.34H81.44v-.47h.69v-5h-.69v-.47H82.7Z" transform="translate(0.01 -21.92)"/></g></svg>