<svg xmlns="http://www.w3.org/2000/svg" viewBox="0 0 113.06 131.13"><defs><style>.cls-1,.cls-2,.cls-4,.cls-5,.cls-7,.繝医Ν繧ｯ繧ｰ繝ｩ繝廟繧ｰ繝ｬ繝ｼ邱{fill:none;}.cls-1,.繝医Ν繧ｯ繧ｰ繝ｩ繝廟繧ｰ繝ｬ繝ｼ邱{stroke:#9fa0a0;}.cls-1,.cls-7{stroke-miterlimit:10;}.cls-1{stroke-width:1px;stroke-dasharray:3.1 1.5;}.cls-2,.cls-4,.cls-5,.cls-7{stroke:#231815;}.cls-2{stroke-linejoin:round;stroke-width:0.14px;}.繝医Ν繧ｯ繧ｰ繝ｩ繝廟繧ｰ繝ｬ繝ｼ邱{stroke-width:3px;}.cls-3{fill:#231815;}.cls-5{stroke-linecap:round;}.cls-6{fill:#fff;}.cls-7{stroke-width:0.5px;}</style></defs><g id="Illust"><line class="cls-1" x1="86.89" y1="100.53" x2="86.89" y2="115.27"/><line class="cls-2" x1="18.44" y1="100.84" x2="107.6" y2="100.84"/><line class="cls-2" x1="18.44" y1="86.7" x2="107.6" y2="86.7"/><line class="cls-2" x1="18.44" y1="72.55" x2="107.6" y2="72.55"/><line class="cls-2" x1="18.44" y1="58.46" x2="107.6" y2="58.46"/><line class="cls-2" x1="18.44" y1="44.32" x2="107.6" y2="44.32"/><line class="cls-2" x1="18.44" y1="30.17" x2="107.6" y2="30.17"/><line class="cls-2" x1="18.44" y1="16.08" x2="107.6" y2="16.08"/><line class="cls-2" x1="48.21" y1="1.94" x2="48.21" y2="115.24"/><line class="cls-2" x1="77.96" y1="1.94" x2="77.96" y2="115.24"/><polyline class="繝医Ν繧ｯ繧ｰ繝ｩ繝廟繧ｰ繝ｬ繝ｼ邱" points="18.45 92.45 25.88 92.45 33.33 92.45 48.2 92.45 63.08 92.45 77.97 98.06 92.83 101.48 107.72 103.68"/><polyline class="繝医Ν繧ｯ繧ｰ繝ｩ繝廟繧ｰ繝ｬ繝ｼ邱" points="18.45 13.74 54.16 13.74 108.58 74.87"/><path class="cls-3" d="M17.24,141.39a3.23,3.23,0,0,1,.13-1,1.33,1.33,0,0,1,.39-.59,1,1,0,0,1,.65-.21,1.12,1.12,0,0,1,.5.11.9.9,0,0,1,.36.34,1.51,1.51,0,0,1,.22.53,3.25,3.25,0,0,1,.08.85,3.18,3.18,0,0,1-.13,1,1.22,1.22,0,0,1-.38.6,1.1,1.1,0,0,1-1.47-.16A2.39,2.39,0,0,1,17.24,141.39Zm.45,0a2.23,2.23,0,0,0,.21,1.17.59.59,0,0,0,1,0,3.55,3.55,0,0,0,0-2.35.63.63,0,0,0-.52-.29.56.56,0,0,0-.48.26A2.26,2.26,0,0,0,17.69,141.39Z" transform="translate(0.01 -22.21)"/><path class="cls-3" d="M45.13,142.73v.42H42.76a.94.94,0,0,1,.05-.3,1.62,1.62,0,0,1,.29-.48,4.54,4.54,0,0,1,.58-.54,4.87,4.87,0,0,0,.79-.76,1,1,0,0,0,.2-.53.58.58,0,0,0-.19-.44.65.65,0,0,0-.48-.18.69.69,0,0,0-.51.19.7.7,0,0,0-.19.53l-.46,0a1.16,1.16,0,0,1,.35-.77,1.21,1.21,0,0,1,.82-.26,1.13,1.13,0,0,1,.81.28.94.94,0,0,1,.3.71A1.06,1.06,0,0,1,45,141a1.33,1.33,0,0,1-.29.44,7.63,7.63,0,0,1-.67.63,5.24,5.24,0,0,0-.51.45,1.33,1.33,0,0,0-.19.24Z" transform="translate(0.01 -22.21)"/><path class="cls-3" d="M45.63,141.39a3.23,3.23,0,0,1,.13-1,1.33,1.33,0,0,1,.39-.59,1,1,0,0,1,.65-.21,1.12,1.12,0,0,1,.5.11.9.9,0,0,1,.36.34,1.73,1.73,0,0,1,.22.53,3.25,3.25,0,0,1,.08.85,3.18,3.18,0,0,1-.13,1,1.22,1.22,0,0,1-.38.6,1,1,0,0,1-.65.21,1,1,0,0,1-.82-.37A2.39,2.39,0,0,1,45.63,141.39Zm.45,0a2.23,2.23,0,0,0,.21,1.17.58.58,0,0,0,1,0,3.39,3.39,0,0,0,0-2.35.6.6,0,0,0-.51-.29.56.56,0,0,0-.48.26A2.26,2.26,0,0,0,46.08,141.39Z" transform="translate(0.01 -22.21)"/><path class="cls-3" d="M48.38,141.39a3.23,3.23,0,0,1,.13-1,1.33,1.33,0,0,1,.39-.59,1,1,0,0,1,.65-.21,1.12,1.12,0,0,1,.5.11.9.9,0,0,1,.36.34,1.73,1.73,0,0,1,.22.53,3.25,3.25,0,0,1,.08.85,3.18,3.18,0,0,1-.13,1,1.22,1.22,0,0,1-.38.6,1.1,1.1,0,0,1-1.47-.16A2.39,2.39,0,0,1,48.38,141.39Zm.45,0a2.23,2.23,0,0,0,.21,1.17.6.6,0,0,0,.51.29.62.62,0,0,0,.51-.29,3.55,3.55,0,0,0,0-2.35.63.63,0,0,0-.52-.29.56.56,0,0,0-.48.26A2.26,2.26,0,0,0,48.83,141.39Z" transform="translate(0.01 -22.21)"/><path class="cls-3" d="M51.19,141.39a3.23,3.23,0,0,1,.13-1,1.33,1.33,0,0,1,.39-.59,1,1,0,0,1,.65-.21,1.12,1.12,0,0,1,.5.11.9.9,0,0,1,.36.34,1.51,1.51,0,0,1,.22.53,3.25,3.25,0,0,1,.08.85,3.18,3.18,0,0,1-.13,1,1.22,1.22,0,0,1-.38.6,1.1,1.1,0,0,1-1.47-.16A2.39,2.39,0,0,1,51.19,141.39Zm.45,0a2.23,2.23,0,0,0,.21,1.17.59.59,0,0,0,1,0,3.55,3.55,0,0,0,0-2.35.63.63,0,0,0-.52-.29.56.56,0,0,0-.48.26A2.26,2.26,0,0,0,51.64,141.39Z" transform="translate(0.01 -22.21)"/><path class="cls-3" d="M74,143.15v-.86H72.44v-.4l1.63-2.32h.36v2.32h.48v.4h-.48v.86Zm0-1.26v-1.61l-1.12,1.61Z" transform="translate(0.01 -22.21)"/><path class="cls-3" d="M75.39,141.39a3.54,3.54,0,0,1,.13-1,1.33,1.33,0,0,1,.39-.59,1,1,0,0,1,.65-.21,1.12,1.12,0,0,1,.5.11.9.9,0,0,1,.36.34,1.73,1.73,0,0,1,.23.53,3.76,3.76,0,0,1,.08.85,3.49,3.49,0,0,1-.13,1,1.31,1.31,0,0,1-.39.6,1,1,0,0,1-.65.21,1,1,0,0,1-.81-.37A2.32,2.32,0,0,1,75.39,141.39Zm.45,0a2.23,2.23,0,0,0,.21,1.17.59.59,0,0,0,1,0,3.55,3.55,0,0,0,0-2.35.63.63,0,0,0-.52-.29.56.56,0,0,0-.48.26A2.26,2.26,0,0,0,75.84,141.39Z" transform="translate(0.01 -22.21)"/><path class="cls-3" d="M78.14,141.39a3.54,3.54,0,0,1,.13-1,1.33,1.33,0,0,1,.39-.59,1,1,0,0,1,.65-.21,1.19,1.19,0,0,1,.51.11,1,1,0,0,1,.35.34,1.73,1.73,0,0,1,.23.53,3.76,3.76,0,0,1,.08.85,3.49,3.49,0,0,1-.13,1,1.31,1.31,0,0,1-.39.6,1,1,0,0,1-.65.21,1,1,0,0,1-.81-.37A2.32,2.32,0,0,1,78.14,141.39Zm.45,0a2.23,2.23,0,0,0,.21,1.17.59.59,0,0,0,1,0,3.39,3.39,0,0,0,0-2.35.63.63,0,0,0-.52-.29.56.56,0,0,0-.48.26A2.26,2.26,0,0,0,78.59,141.39Z" transform="translate(0.01 -22.21)"/><path class="cls-3" d="M81,141.39a3.54,3.54,0,0,1,.13-1,1.33,1.33,0,0,1,.39-.59,1,1,0,0,1,.65-.21,1.19,1.19,0,0,1,.51.11A1,1,0,0,1,83,140a1.73,1.73,0,0,1,.23.53,3.76,3.76,0,0,1,.08.85,3.49,3.49,0,0,1-.13,1,1.31,1.31,0,0,1-.39.6,1,1,0,0,1-.65.21,1,1,0,0,1-.81-.37A2.32,2.32,0,0,1,81,141.39Zm.46,0a2.25,2.25,0,0,0,.2,1.17.59.59,0,0,0,1,0,3.39,3.39,0,0,0,0-2.35.62.62,0,0,0-.51-.29.57.57,0,0,0-.49.26A2.28,2.28,0,0,0,81.41,141.39Z" transform="translate(0.01 -22.21)"/><path class="cls-3" d="M104.63,140.45l-.44,0a.8.8,0,0,0-.17-.37.56.56,0,0,0-.44-.19.67.67,0,0,0-.37.11,1.11,1.11,0,0,0-.32.45,2.41,2.41,0,0,0-.13.82,1,1,0,0,1,.39-.35,1,1,0,0,1,1.23.2,1.16,1.16,0,0,1,.31.84,1.32,1.32,0,0,1-.15.62,1.08,1.08,0,0,1-.39.45,1.14,1.14,0,0,1-.58.15,1.12,1.12,0,0,1-.9-.4,2.06,2.06,0,0,1-.34-1.33,2.34,2.34,0,0,1,.38-1.51,1.08,1.08,0,0,1,.9-.41,1,1,0,0,1,1,.89Zm-1.8,1.54a1,1,0,0,0,.1.44.68.68,0,0,0,.27.31.69.69,0,0,0,.36.11.61.61,0,0,0,.48-.22.92.92,0,0,0,.2-.62.83.83,0,0,0-.2-.58.66.66,0,0,0-.5-.21.69.69,0,0,0-.5.21A.76.76,0,0,0,102.83,142Z" transform="translate(0.01 -22.21)"/><path class="cls-3" d="M105.16,141.39a3.23,3.23,0,0,1,.13-1,1.18,1.18,0,0,1,.39-.59,1,1,0,0,1,.64-.21,1.16,1.16,0,0,1,.51.11,1.06,1.06,0,0,1,.36.34,1.73,1.73,0,0,1,.22.53,3.76,3.76,0,0,1,.08.85,3.18,3.18,0,0,1-.13,1,1.23,1.23,0,0,1-.39.6,1.09,1.09,0,0,1-1.46-.16A2.33,2.33,0,0,1,105.16,141.39Zm.45,0a2.36,2.36,0,0,0,.2,1.17.59.59,0,0,0,1,0,3.39,3.39,0,0,0,0-2.35.62.62,0,0,0-.51-.29.56.56,0,0,0-.48.26A2.17,2.17,0,0,0,105.61,141.39Z" transform="translate(0.01 -22.21)"/><path class="cls-3" d="M107.91,141.39a3.23,3.23,0,0,1,.13-1,1.18,1.18,0,0,1,.39-.59,1,1,0,0,1,.64-.21,1.13,1.13,0,0,1,.51.11,1.06,1.06,0,0,1,.36.34,1.73,1.73,0,0,1,.22.53,3.76,3.76,0,0,1,.08.85,3.18,3.18,0,0,1-.13,1,1.22,1.22,0,0,1-.38.6,1,1,0,0,1-.66.21,1,1,0,0,1-.81-.37A2.33,2.33,0,0,1,107.91,141.39Zm.45,0a2.36,2.36,0,0,0,.2,1.17.62.62,0,0,0,.51.29.6.6,0,0,0,.51-.29,3.39,3.39,0,0,0,0-2.35.61.61,0,0,0-.51-.29.56.56,0,0,0-.48.26A2.17,2.17,0,0,0,108.36,141.39Z" transform="translate(0.01 -22.21)"/><path class="cls-3" d="M110.72,141.39a3.23,3.23,0,0,1,.13-1,1.25,1.25,0,0,1,.39-.59,1,1,0,0,1,.65-.21,1.12,1.12,0,0,1,.5.11,1.06,1.06,0,0,1,.36.34,1.73,1.73,0,0,1,.22.53,3.76,3.76,0,0,1,.08.85,3.18,3.18,0,0,1-.13,1,1.22,1.22,0,0,1-.38.6,1,1,0,0,1-.65.21,1,1,0,0,1-.82-.37A2.39,2.39,0,0,1,110.72,141.39Zm.45,0a2.23,2.23,0,0,0,.21,1.17.58.58,0,0,0,1,0,3.39,3.39,0,0,0,0-2.35.61.61,0,0,0-.51-.29.56.56,0,0,0-.48.26A2.17,2.17,0,0,0,111.17,141.39Z" transform="translate(0.01 -22.21)"/><polyline class="cls-4" points="18.45 92.45 25.88 92.45 33.33 92.45 48.2 92.45 63.08 92.45 77.97 98.06 92.83 101.48 107.72 103.68"/><polyline class="cls-5" points="18.45 13.74 51.17 13.74 107.91 78.36"/><line class="cls-2" x1="107.73" y1="1.94" x2="107.73" y2="114.94"/><rect class="cls-6" x="107.73" y="1.88" width="2.83" height="113.39"/><rect class="cls-6" x="15.6" y="1.88" width="2.83" height="113.39"/><rect class="cls-7" x="18.44" y="1.88" width="89.29" height="113.39"/><path class="cls-3" d="M10.23,137.06a3.2,3.2,0,0,1,.13-1,1.28,1.28,0,0,1,.39-.59,1.14,1.14,0,0,1,1.15-.1.9.9,0,0,1,.36.34,1.51,1.51,0,0,1,.22.53,4.23,4.23,0,0,1-.05,1.86,1.22,1.22,0,0,1-.38.6,1.1,1.1,0,0,1-1.47-.16A2.41,2.41,0,0,1,10.23,137.06Zm.45,0a2.25,2.25,0,0,0,.21,1.18.6.6,0,0,0,.51.29.62.62,0,0,0,.51-.29,2.38,2.38,0,0,0,.2-1.18,2.34,2.34,0,0,0-.2-1.17.63.63,0,0,0-.52-.29.56.56,0,0,0-.48.26A2.24,2.24,0,0,0,10.68,137.06Z" transform="translate(0.01 -22.21)"/><path class="cls-3" d="M13.29,138.83v-.5h.5v.5Z" transform="translate(0.01 -22.21)"/><path class="cls-3" d="M14.43,137.06a3.52,3.52,0,0,1,.13-1,1.28,1.28,0,0,1,.39-.59,1,1,0,0,1,.65-.21.95.95,0,0,1,.87.45,2,2,0,0,1,.22.53,3.72,3.72,0,0,1,.08.84,3.2,3.2,0,0,1-.13,1,1.31,1.31,0,0,1-.39.6,1,1,0,0,1-.65.21,1,1,0,0,1-.81-.37A2.33,2.33,0,0,1,14.43,137.06Zm.46,0a2.38,2.38,0,0,0,.2,1.18.59.59,0,0,0,1,0,2.25,2.25,0,0,0,.21-1.18,2.2,2.2,0,0,0-.21-1.17.62.62,0,0,0-.51-.29.58.58,0,0,0-.49.26A2.26,2.26,0,0,0,14.89,137.06Z" transform="translate(0.01 -22.21)"/><path class="cls-3" d="M12.54,124.28v.42H10.17a1,1,0,0,1,.05-.3,1.76,1.76,0,0,1,.29-.48,6.66,6.66,0,0,1,.58-.54,4.87,4.87,0,0,0,.79-.76.92.92,0,0,0,.2-.53.6.6,0,0,0-.18-.44.69.69,0,0,0-.49-.18.73.73,0,0,0-.51.19.72.72,0,0,0-.19.53l-.45,0a1.1,1.1,0,0,1,.35-.78,1.21,1.21,0,0,1,.81-.26,1.13,1.13,0,0,1,.81.29.92.92,0,0,1,.3.7,1.26,1.26,0,0,1-.08.43,1.69,1.69,0,0,1-.3.43,5.45,5.45,0,0,1-.67.63A5.24,5.24,0,0,0,11,124a1.33,1.33,0,0,0-.19.24Z" transform="translate(0.01 -22.21)"/><path class="cls-3" d="M13.29,124.7v-.5h.5v.5Z" transform="translate(0.01 -22.21)"/><path class="cls-3" d="M14.43,122.94a3.52,3.52,0,0,1,.13-1,1.31,1.31,0,0,1,.39-.6,1,1,0,0,1,.65-.21,1.07,1.07,0,0,1,.51.12.94.94,0,0,1,.36.33,2.17,2.17,0,0,1,.22.53,3.76,3.76,0,0,1,.08.85,3.2,3.2,0,0,1-.13,1,1.33,1.33,0,0,1-.39.59,1,1,0,0,1-.65.21,1,1,0,0,1-.81-.37A2.3,2.3,0,0,1,14.43,122.94Zm.46,0a2.31,2.31,0,0,0,.2,1.17.59.59,0,0,0,1,0,2.2,2.2,0,0,0,.21-1.17,2.25,2.25,0,0,0-.21-1.18.62.62,0,0,0-.51-.29.58.58,0,0,0-.49.26A2.3,2.3,0,0,0,14.89,122.94Z" transform="translate(0.01 -22.21)"/><path class="cls-3" d="M11.64,110.57v-.85H10.09v-.41L11.72,107h.36v2.32h.48v.41h-.48v.85Zm0-1.26V107.7l-1.12,1.61Z" transform="translate(0.01 -22.21)"/><path class="cls-3" d="M13.29,110.57v-.5h.5v.5Z" transform="translate(0.01 -22.21)"/><path class="cls-3" d="M14.43,108.81a3.52,3.52,0,0,1,.13-1,1.31,1.31,0,0,1,.39-.6,1,1,0,0,1,.65-.21,1.07,1.07,0,0,1,.51.12.94.94,0,0,1,.36.33,2.17,2.17,0,0,1,.22.53,3.76,3.76,0,0,1,.08.85,3.2,3.2,0,0,1-.13,1,1.33,1.33,0,0,1-.39.59,1,1,0,0,1-.65.22,1,1,0,0,1-.81-.38A2.3,2.3,0,0,1,14.43,108.81Zm.46,0a2.31,2.31,0,0,0,.2,1.17.59.59,0,0,0,1,0,2.2,2.2,0,0,0,.21-1.17,2.25,2.25,0,0,0-.21-1.18.62.62,0,0,0-.51-.29.58.58,0,0,0-.49.26A2.3,2.3,0,0,0,14.89,108.81Z" transform="translate(0.01 -22.21)"/><path class="cls-3" d="M12.51,93.75l-.44,0a.9.9,0,0,0-.16-.38.6.6,0,0,0-.44-.18.65.65,0,0,0-.37.11,1,1,0,0,0-.33.45,2.18,2.18,0,0,0-.12.82,1,1,0,0,1,.39-.36,1.13,1.13,0,0,1,.48-.11,1,1,0,0,1,.74.32,1.15,1.15,0,0,1,.31.84,1.44,1.44,0,0,1-.14.62,1.1,1.1,0,0,1-.4.45,1.11,1.11,0,0,1-.58.15,1.15,1.15,0,0,1-.89-.4,2.07,2.07,0,0,1-.35-1.34,2.44,2.44,0,0,1,.38-1.51,1.13,1.13,0,0,1,.9-.41,1,1,0,0,1,.7.24A1,1,0,0,1,12.51,93.75Zm-1.79,1.54a1,1,0,0,0,.09.43.78.78,0,0,0,.27.32.72.72,0,0,0,.37.11.61.61,0,0,0,.47-.23.85.85,0,0,0,.2-.61.83.83,0,0,0-.19-.58.68.68,0,0,0-.5-.22.7.7,0,0,0-.51.22A.76.76,0,0,0,10.72,95.29Z" transform="translate(0.01 -22.21)"/><path class="cls-3" d="M13.29,96.45V96h.5v.5Z" transform="translate(0.01 -22.21)"/><path class="cls-3" d="M14.43,94.68a3.52,3.52,0,0,1,.13-1,1.31,1.31,0,0,1,.39-.6,1,1,0,0,1,.65-.21,1.07,1.07,0,0,1,.51.12,1.13,1.13,0,0,1,.36.33,2.25,2.25,0,0,1,.22.54,3.72,3.72,0,0,1,.08.84,3.2,3.2,0,0,1-.13,1,1.31,1.31,0,0,1-.39.6,1,1,0,0,1-.65.21,1,1,0,0,1-.81-.37A2.33,2.33,0,0,1,14.43,94.68Zm.46,0a2.38,2.38,0,0,0,.2,1.18.59.59,0,0,0,1,0,2.25,2.25,0,0,0,.21-1.18,2.18,2.18,0,0,0-.21-1.17.62.62,0,0,0-.51-.29.57.57,0,0,0-.49.25A2.33,2.33,0,0,0,14.89,94.68Z" transform="translate(0.01 -22.21)"/><path class="cls-3" d="M10.91,80.38a.8.8,0,0,1-.41-.29.72.72,0,0,1-.13-.44.87.87,0,0,1,.28-.66,1.19,1.19,0,0,1,1.5,0,.88.88,0,0,1,.29.66.75.75,0,0,1-.13.43.82.82,0,0,1-.4.29,1,1,0,0,1,.5.34.93.93,0,0,1,.17.58,1.06,1.06,0,0,1-.32.77,1.18,1.18,0,0,1-.86.31,1.17,1.17,0,0,1-.85-.31,1,1,0,0,1-.33-.79.93.93,0,0,1,.18-.58A.9.9,0,0,1,10.91,80.38Zm-.23.91a.8.8,0,0,0,.09.36.53.53,0,0,0,.26.27.72.72,0,0,0,.38.1.73.73,0,0,0,.52-.2.69.69,0,0,0,.2-.52.69.69,0,0,0-.21-.52.71.71,0,0,0-.53-.21.73.73,0,0,0-.51.2A.69.69,0,0,0,10.68,81.29Zm.14-1.66a.57.57,0,0,0,.16.42.57.57,0,0,0,.43.16.54.54,0,0,0,.41-.16.53.53,0,0,0,.16-.39.56.56,0,0,0-.16-.41.63.63,0,0,0-.84,0A.51.51,0,0,0,10.82,79.63Z" transform="translate(0.01 -22.21)"/><path class="cls-3" d="M13.29,82.32v-.5h.5v.5Z" transform="translate(0.01 -22.21)"/><path class="cls-3" d="M14.43,80.55a3.52,3.52,0,0,1,.13-1,1.28,1.28,0,0,1,.39-.59,1,1,0,0,1,.65-.21.95.95,0,0,1,.87.45,2,2,0,0,1,.22.53,3.72,3.72,0,0,1,.08.84,3.2,3.2,0,0,1-.13,1,1.31,1.31,0,0,1-.39.6,1,1,0,0,1-.65.21,1,1,0,0,1-.81-.37A2.33,2.33,0,0,1,14.43,80.55Zm.46,0a2.38,2.38,0,0,0,.2,1.18.59.59,0,0,0,1,0,2.25,2.25,0,0,0,.21-1.18,2.18,2.18,0,0,0-.21-1.17.62.62,0,0,0-.51-.29.56.56,0,0,0-.49.26A2.26,2.26,0,0,0,14.89,80.55Z" transform="translate(0.01 -22.21)"/><path class="cls-3" d="M9.13,68.19H8.69v-2.8a2.56,2.56,0,0,1-.41.31,3.09,3.09,0,0,1-.46.22V65.5a3,3,0,0,0,.64-.42,2,2,0,0,0,.39-.48h.28Z" transform="translate(0.01 -22.21)"/><path class="cls-3" d="M10.29,66.43a3.12,3.12,0,0,1,.13-1,1.31,1.31,0,0,1,.39-.6A1.11,1.11,0,0,1,12,64.72a.82.82,0,0,1,.36.33,1.6,1.6,0,0,1,.22.53,3.25,3.25,0,0,1,.08.85,3.2,3.2,0,0,1-.13,1,1.24,1.24,0,0,1-.38.59,1.1,1.1,0,0,1-1.47-.16A2.37,2.37,0,0,1,10.29,66.43Zm.45,0A2.18,2.18,0,0,0,11,67.6a.58.58,0,0,0,.51.29A.6.6,0,0,0,12,67.6a3.55,3.55,0,0,0,0-2.35.63.63,0,0,0-.52-.29.56.56,0,0,0-.48.26A2.28,2.28,0,0,0,10.74,66.43Z" transform="translate(0.01 -22.21)"/><path class="cls-3" d="M13.29,68.19v-.5h.5v.5Z" transform="translate(0.01 -22.21)"/><path class="cls-3" d="M14.43,66.43a3.42,3.42,0,0,1,.13-1,1.31,1.31,0,0,1,.39-.6,1,1,0,0,1,.65-.21,1.07,1.07,0,0,1,.51.12.94.94,0,0,1,.36.33,2.17,2.17,0,0,1,.22.53,3.76,3.76,0,0,1,.08.85,3.2,3.2,0,0,1-.13,1,1.33,1.33,0,0,1-.39.59,1,1,0,0,1-.65.21,1,1,0,0,1-.81-.37A2.3,2.3,0,0,1,14.43,66.43Zm.46,0a2.31,2.31,0,0,0,.2,1.17.59.59,0,0,0,1,0,3.39,3.39,0,0,0,0-2.35A.62.62,0,0,0,15.6,65a.58.58,0,0,0-.49.26A2.3,2.3,0,0,0,14.89,66.43Z" transform="translate(0.01 -22.21)"/><path class="cls-3" d="M9.13,54.06H8.69v-2.8a2.08,2.08,0,0,1-.41.31,3.09,3.09,0,0,1-.46.22v-.42A3,3,0,0,0,8.46,51a2,2,0,0,0,.39-.48h.28Z" transform="translate(0.01 -22.21)"/><path class="cls-3" d="M12.6,53.64v.42H10.23a1,1,0,0,1,0-.3,1.76,1.76,0,0,1,.29-.48,6.66,6.66,0,0,1,.58-.54,4.87,4.87,0,0,0,.79-.76.92.92,0,0,0,.2-.53A.6.6,0,0,0,12,51a.69.69,0,0,0-.49-.18A.73.73,0,0,0,11,51a.72.72,0,0,0-.19.53l-.45,0a1.1,1.1,0,0,1,.35-.78,1.21,1.21,0,0,1,.81-.26,1.13,1.13,0,0,1,.81.29.92.92,0,0,1,.3.7,1.26,1.26,0,0,1-.08.43,1.69,1.69,0,0,1-.3.43,5.45,5.45,0,0,1-.67.63,5.24,5.24,0,0,0-.51.45,1.33,1.33,0,0,0-.19.24Z" transform="translate(0.01 -22.21)"/><path class="cls-3" d="M13.29,54.06v-.5h.5v.5Z" transform="translate(0.01 -22.21)"/><path class="cls-3" d="M14.43,52.3a3.47,3.47,0,0,1,.13-1,1.31,1.31,0,0,1,.39-.6,1,1,0,0,1,.65-.21,1.07,1.07,0,0,1,.51.12.94.94,0,0,1,.36.33,2.17,2.17,0,0,1,.22.53,3.76,3.76,0,0,1,.08.85,3.2,3.2,0,0,1-.13,1,1.33,1.33,0,0,1-.39.59,1,1,0,0,1-.65.21,1,1,0,0,1-.81-.37A2.3,2.3,0,0,1,14.43,52.3Zm.46,0a2.31,2.31,0,0,0,.2,1.17.59.59,0,0,0,1,0,2.2,2.2,0,0,0,.21-1.17,2.25,2.25,0,0,0-.21-1.18.62.62,0,0,0-.51-.29.58.58,0,0,0-.49.26A2.3,2.3,0,0,0,14.89,52.3Z" transform="translate(0.01 -22.21)"/><path class="cls-3" d="M9.13,39.94H8.69v-2.8a2.07,2.07,0,0,1-.41.3,3.27,3.27,0,0,1-.46.23v-.43a2.37,2.37,0,0,0,.64-.42,1.65,1.65,0,0,0,.39-.48h.28Z" transform="translate(0.01 -22.21)"/><path class="cls-3" d="M11.7,39.94v-.86H10.15v-.4l1.63-2.32h.36v2.32h.48v.4h-.48v.86Zm0-1.26V37.06l-1.12,1.62Z" transform="translate(0.01 -22.21)"/><path class="cls-3" d="M13.29,39.94v-.5h.5v.5Z" transform="translate(0.01 -22.21)"/><path class="cls-3" d="M14.43,38.17a3.52,3.52,0,0,1,.13-1,1.31,1.31,0,0,1,.39-.6,1,1,0,0,1,.65-.21,1.07,1.07,0,0,1,.51.12,1.13,1.13,0,0,1,.36.33,2.25,2.25,0,0,1,.22.54,3.72,3.72,0,0,1,.08.84,3.2,3.2,0,0,1-.13,1,1.31,1.31,0,0,1-.39.6,1,1,0,0,1-.65.21,1,1,0,0,1-.81-.37A2.33,2.33,0,0,1,14.43,38.17Zm.46,0a2.38,2.38,0,0,0,.2,1.18.62.62,0,0,0,.51.29.61.61,0,0,0,.51-.3,2.18,2.18,0,0,0,.21-1.17A2.18,2.18,0,0,0,16.11,37a.6.6,0,0,0-.51-.29.57.57,0,0,0-.49.25A2.33,2.33,0,0,0,14.89,38.17Z" transform="translate(0.01 -22.21)"/><path class="cls-3" d="M9.13,25.81H8.69V23a2.07,2.07,0,0,1-.41.3,3.27,3.27,0,0,1-.46.23v-.43a2.37,2.37,0,0,0,.64-.42,1.65,1.65,0,0,0,.39-.48h.28Z" transform="translate(0.01 -22.21)"/><path class="cls-3" d="M12.57,23.11l-.44,0a.9.9,0,0,0-.16-.38.6.6,0,0,0-.44-.18.65.65,0,0,0-.37.11,1,1,0,0,0-.33.45,2.18,2.18,0,0,0-.12.82,1,1,0,0,1,.39-.36,1.13,1.13,0,0,1,.48-.11,1,1,0,0,1,.74.32,1.15,1.15,0,0,1,.31.84,1.44,1.44,0,0,1-.14.62,1.1,1.1,0,0,1-.4.45,1.11,1.11,0,0,1-.58.15,1.15,1.15,0,0,1-.89-.4,2.07,2.07,0,0,1-.35-1.34,2.44,2.44,0,0,1,.38-1.51,1.13,1.13,0,0,1,.9-.41,1,1,0,0,1,.7.24A1,1,0,0,1,12.57,23.11Zm-1.79,1.54a1,1,0,0,0,.09.43.78.78,0,0,0,.27.32.72.72,0,0,0,.37.11.61.61,0,0,0,.47-.23.85.85,0,0,0,.2-.61.83.83,0,0,0-.19-.58.68.68,0,0,0-.5-.22.7.7,0,0,0-.51.22A.76.76,0,0,0,10.78,24.65Z" transform="translate(0.01 -22.21)"/><path class="cls-3" d="M13.29,25.81v-.5h.5v.5Z" transform="translate(0.01 -22.21)"/><path class="cls-3" d="M14.43,24a3.52,3.52,0,0,1,.13-1,1.31,1.31,0,0,1,.39-.6,1,1,0,0,1,.65-.21,1.07,1.07,0,0,1,.51.12,1.13,1.13,0,0,1,.36.33,2.25,2.25,0,0,1,.22.54,3.72,3.72,0,0,1,.08.84,3.2,3.2,0,0,1-.13,1,1.31,1.31,0,0,1-.39.6,1,1,0,0,1-.65.21,1,1,0,0,1-.81-.37A2.33,2.33,0,0,1,14.43,24Zm.46,0a2.38,2.38,0,0,0,.2,1.18.59.59,0,0,0,1,0A2.25,2.25,0,0,0,16.32,24a2.18,2.18,0,0,0-.21-1.17.62.62,0,0,0-.51-.29.57.57,0,0,0-.49.25A2.33,2.33,0,0,0,14.89,24Z" transform="translate(0.01 -22.21)"/></g><g id="English"><path class="cls-3" d="M4.64,98.27H.54V99.8H0V96.11H.54v1.54h4.1Z" transform="translate(0.01 -22.21)"/><path class="cls-3" d="M3,95.77a1.72,1.72,0,0,1-1.38-.52,1.57,1.57,0,0,1-.38-1.06,1.51,1.51,0,0,1,.46-1.14,1.74,1.74,0,0,1,1.26-.44,2.22,2.22,0,0,1,1,.2,1.42,1.42,0,0,1,.58.56,1.64,1.64,0,0,1,.21.82,1.48,1.48,0,0,1-.46,1.14A1.82,1.82,0,0,1,3,95.77Zm0-.59a1.41,1.41,0,0,0,1-.28.91.91,0,0,0,.33-.71.89.89,0,0,0-.33-.71,1.43,1.43,0,0,0-1-.28,1.38,1.38,0,0,0-.95.28A.95.95,0,0,0,2,94.9,1.39,1.39,0,0,0,3,95.18Z" transform="translate(0.01 -22.21)"/><path class="cls-3" d="M4.64,92H1.27v-.52h.51a1.31,1.31,0,0,1-.47-.36.61.61,0,0,1-.12-.37,1,1,0,0,1,.19-.58l.53.19a.76.76,0,0,0-.13.42.52.52,0,0,0,.12.34.58.58,0,0,0,.31.21,2.3,2.3,0,0,0,.67.1H4.64Z" transform="translate(0.01 -22.21)"/><path class="cls-3" d="M5.93,87.63H4.28a1,1,0,0,1,.31.37,1.14,1.14,0,0,1,.13.51,1.34,1.34,0,0,1-.48,1A1.9,1.9,0,0,1,2.92,90,2.21,2.21,0,0,1,2,89.8a1.33,1.33,0,0,1-.82-1.25,1.14,1.14,0,0,1,.53-1H1.27v-.51H5.93ZM3,89.39a1.5,1.5,0,0,0,1-.27.81.81,0,0,0,0-1.29A1.46,1.46,0,0,0,3,87.57a1.57,1.57,0,0,0-1,.28.83.83,0,0,0-.34.65.79.79,0,0,0,.32.63A1.56,1.56,0,0,0,3,89.39Z" transform="translate(0.01 -22.21)"/><path class="cls-3" d="M4.64,84h-.5A1.22,1.22,0,0,1,4.72,85a1.31,1.31,0,0,1-.12.56.82.82,0,0,1-.29.38.9.9,0,0,1-.42.18,3.33,3.33,0,0,1-.53,0H1.27V85.6H3.14a3.77,3.77,0,0,0,.6,0,.63.63,0,0,0,.36-.23.75.75,0,0,0,.12-.43.91.91,0,0,0-.13-.48.7.7,0,0,0-.36-.32,1.61,1.61,0,0,0-.65-.1H1.27v-.57H4.64Z" transform="translate(0.01 -22.21)"/><path class="cls-3" d="M3.55,80.24l.08-.59a1.39,1.39,0,0,1,.8.52,1.72,1.72,0,0,1-.17,2.13A1.77,1.77,0,0,1,3,82.74a1.9,1.9,0,0,1-1.32-.44,1.49,1.49,0,0,1-.47-1.14,1.45,1.45,0,0,1,.46-1.1A1.82,1.82,0,0,1,3,79.63H3.1v2.52A1.29,1.29,0,0,0,4,81.83a.92.92,0,0,0,.3-.7.89.89,0,0,0-.17-.54A1.07,1.07,0,0,0,3.55,80.24Zm-.92,1.88V80.23a1.18,1.18,0,0,0-.64.22.88.88,0,0,0-.33.71.9.9,0,0,0,.27.66A1,1,0,0,0,2.63,82.12Z" transform="translate(0.01 -22.21)"/><path class="cls-3" d="M5.93,77.11H0V75.85H.46v.69h5v-.69h.47Z" transform="translate(0.01 -22.21)"/><path class="cls-3" d="M4.64,75.25H0v-.63l3.65-2.44H0v-.59H4.64v.63L1,74.66H4.64Z" transform="translate(0.01 -22.21)"/><path class="cls-3" d="M2.36,70.71a.81.81,0,1,1,.57-1.37.75.75,0,0,1,.24.57.76.76,0,0,1-.24.56A.78.78,0,0,1,2.36,70.71Z" transform="translate(0.01 -22.21)"/><path class="cls-3" d="M4.64,68.35H1.27v-.51h.47a1.34,1.34,0,0,1-.4-.42,1.21,1.21,0,0,1-.15-.6,1.16,1.16,0,0,1,.16-.62.79.79,0,0,1,.43-.33,1.23,1.23,0,0,1-.59-1.05,1.05,1.05,0,0,1,.28-.77,1.2,1.2,0,0,1,.86-.27H4.64v.57H2.52a1.49,1.49,0,0,0-.5.06.42.42,0,0,0-.24.2.64.64,0,0,0-.09.34.79.79,0,0,0,.24.59,1,1,0,0,0,.75.24h2v.57H2.45a.92.92,0,0,0-.57.14.51.51,0,0,0-.19.45.81.81,0,0,0,.13.45.66.66,0,0,0,.37.3,2.08,2.08,0,0,0,.7.09H4.64Z" transform="translate(0.01 -22.21)"/><path class="cls-3" d="M5.93,62v1.26H5.46v-.69h-5v.69H0V62Z" transform="translate(0.01 -22.21)"/><rect class="cls-6" x="19.46" y="53.82" width="48.83" height="16.58"/><path class="cls-3" d="M22,80.91l.58,0a1.32,1.32,0,0,0,.19.57,1.09,1.09,0,0,0,.47.36,1.81,1.81,0,0,0,.72.14,1.71,1.71,0,0,0,.62-.11.87.87,0,0,0,.4-.28.68.68,0,0,0,.13-.4.62.62,0,0,0-.12-.38,1.06,1.06,0,0,0-.42-.28c-.13,0-.4-.12-.83-.23a3.61,3.61,0,0,1-.9-.29,1.26,1.26,0,0,1-.5-.43,1,1,0,0,1-.16-.58,1.24,1.24,0,0,1,.2-.66,1.22,1.22,0,0,1,.58-.46,2.46,2.46,0,0,1,1.77,0,1.3,1.3,0,0,1,.61.49,1.4,1.4,0,0,1,.23.73l-.59,0a1,1,0,0,0-.33-.66,1.24,1.24,0,0,0-.81-.23,1.27,1.27,0,0,0-.81.21.61.61,0,0,0-.26.49.52.52,0,0,0,.18.41,2.39,2.39,0,0,0,.93.33,7.15,7.15,0,0,1,1,.3,1.41,1.41,0,0,1,.6.48,1.14,1.14,0,0,1,.2.66,1.31,1.31,0,0,1-.22.7,1.34,1.34,0,0,1-.61.51,2.13,2.13,0,0,1-.9.18,2.67,2.67,0,0,1-1.05-.18,1.48,1.48,0,0,1-.67-.56A1.57,1.57,0,0,1,22,80.91Z" transform="translate(0.01 -22.21)"/><path class="cls-3" d="M26.43,82.4V77.75H27v1.67A1.29,1.29,0,0,1,28,79a1.33,1.33,0,0,1,.65.15.88.88,0,0,1,.4.41,1.88,1.88,0,0,1,.12.76V82.4h-.57V80.27a.86.86,0,0,0-.19-.63.68.68,0,0,0-.52-.19.91.91,0,0,0-.48.13.7.7,0,0,0-.32.36,1.66,1.66,0,0,0-.1.62V82.4Z" transform="translate(0.01 -22.21)"/><path class="cls-3" d="M29.84,80.72a1.73,1.73,0,0,1,.52-1.39A1.57,1.57,0,0,1,31.42,79a1.51,1.51,0,0,1,1.13.46A1.7,1.7,0,0,1,33,80.67a2.24,2.24,0,0,1-.19,1,1.39,1.39,0,0,1-.57.58,1.63,1.63,0,0,1-.81.21A1.49,1.49,0,0,1,30.27,82,1.79,1.79,0,0,1,29.84,80.72Zm.58,0a1.44,1.44,0,0,0,.29,1,.9.9,0,0,0,.71.32.87.87,0,0,0,.7-.33,1.43,1.43,0,0,0,.29-1,1.4,1.4,0,0,0-.29-1,.94.94,0,0,0-1.41,0A1.42,1.42,0,0,0,30.42,80.72Z" transform="translate(0.01 -22.21)"/><path class="cls-3" d="M33.66,82.4V79h.51v.51a1.29,1.29,0,0,1,.37-.47A.6.6,0,0,1,34.9,79a1.17,1.17,0,0,1,.59.19l-.2.53a.86.86,0,0,0-.42-.13.52.52,0,0,0-.33.12.65.65,0,0,0-.22.31,2.36,2.36,0,0,0-.09.67V82.4Z" transform="translate(0.01 -22.21)"/><path class="cls-3" d="M37.08,81.89l.08.51a2.47,2.47,0,0,1-.43,0,1.09,1.09,0,0,1-.49-.1.6.6,0,0,1-.24-.26,2.27,2.27,0,0,1-.07-.68V79.48h-.42V79h.42V78.2l.57-.35V79h.58v.45H36.5v2a1,1,0,0,0,0,.31.21.21,0,0,0,.1.11.34.34,0,0,0,.19,0A1.33,1.33,0,0,0,37.08,81.89Z" transform="translate(0.01 -22.21)"/><path class="cls-3" d="M37.41,81v-.57h1.76V81Z" transform="translate(0.01 -22.21)"/><path class="cls-3" d="M42,82.4V82a1,1,0,0,1-.94.5,1.39,1.39,0,0,1-.74-.22,1.48,1.48,0,0,1-.52-.63,2,2,0,0,1-.19-.91,2.47,2.47,0,0,1,.17-.92,1.37,1.37,0,0,1,.5-.63A1.43,1.43,0,0,1,41,79a1.2,1.2,0,0,1,.54.13,1.17,1.17,0,0,1,.39.34V77.75h.57V82.4Zm-1.8-1.68a1.5,1.5,0,0,0,.27,1,.84.84,0,0,0,.65.32.78.78,0,0,0,.63-.31,1.36,1.36,0,0,0,.26-.93,1.6,1.6,0,0,0-.26-1,.84.84,0,0,0-.66-.32.79.79,0,0,0-.64.31A1.54,1.54,0,0,0,40.18,80.72Z" transform="translate(0.01 -22.21)"/><path class="cls-3" d="M45.62,82.4v-.49a1.23,1.23,0,0,1-1.07.57,1.26,1.26,0,0,1-.55-.12.86.86,0,0,1-.39-.28,1.11,1.11,0,0,1-.17-.43,2.3,2.3,0,0,1,0-.53V79H44V80.9a2.63,2.63,0,0,0,0,.6.58.58,0,0,0,.23.36.73.73,0,0,0,.43.13.92.92,0,0,0,.48-.14.66.66,0,0,0,.32-.36,1.84,1.84,0,0,0,.09-.65V79h.57V82.4Z" transform="translate(0.01 -22.21)"/><path class="cls-3" d="M47,82.4V79h.52v.51a1.41,1.41,0,0,1,.36-.47.61.61,0,0,1,.37-.12,1.14,1.14,0,0,1,.58.19l-.19.53a.86.86,0,0,0-.42-.13.52.52,0,0,0-.34.12.58.58,0,0,0-.21.31,2.35,2.35,0,0,0-.1.67V82.4Z" transform="translate(0.01 -22.21)"/><path class="cls-3" d="M51.39,82a2.17,2.17,0,0,1-.61.38,1.81,1.81,0,0,1-.63.11,1.22,1.22,0,0,1-.85-.27.91.91,0,0,1-.3-.7,1,1,0,0,1,.11-.45,1,1,0,0,1,.3-.33,1.38,1.38,0,0,1,.41-.18,2.84,2.84,0,0,1,.51-.09,5.33,5.33,0,0,0,1-.2v-.15a.67.67,0,0,0-.16-.49,1,1,0,0,0-.65-.19,1.06,1.06,0,0,0-.6.14.83.83,0,0,0-.28.5L49.1,80a1.34,1.34,0,0,1,.25-.58,1.11,1.11,0,0,1,.5-.34,2.26,2.26,0,0,1,.77-.12,1.94,1.94,0,0,1,.7.11.92.92,0,0,1,.4.25.87.87,0,0,1,.17.39,3.08,3.08,0,0,1,0,.53V81a6.89,6.89,0,0,0,0,1,1.19,1.19,0,0,0,.14.4h-.59A1.31,1.31,0,0,1,51.39,82Zm0-1.28a4.52,4.52,0,0,1-.94.22,2.25,2.25,0,0,0-.5.11.45.45,0,0,0-.22.19.5.5,0,0,0,.09.65.78.78,0,0,0,.51.15,1.28,1.28,0,0,0,.59-.14.89.89,0,0,0,.37-.4,1.39,1.39,0,0,0,.1-.57Z" transform="translate(0.01 -22.21)"/><path class="cls-3" d="M54.06,81.89l.08.51a2.47,2.47,0,0,1-.43,0,1.09,1.09,0,0,1-.49-.1.6.6,0,0,1-.24-.26,2.27,2.27,0,0,1-.07-.68V79.48h-.42V79h.42V78.2l.57-.35V79h.58v.45h-.58v2a1,1,0,0,0,0,.31.21.21,0,0,0,.1.11.34.34,0,0,0,.19,0A1.33,1.33,0,0,0,54.06,81.89Z" transform="translate(0.01 -22.21)"/><path class="cls-3" d="M54.62,78.41v-.66h.57v.66Zm0,4V79h.57V82.4Z" transform="translate(0.01 -22.21)"/><path class="cls-3" d="M55.85,80.72a1.73,1.73,0,0,1,.52-1.39A1.57,1.57,0,0,1,57.43,79a1.51,1.51,0,0,1,1.13.46A1.7,1.7,0,0,1,59,80.67a2.24,2.24,0,0,1-.19,1,1.39,1.39,0,0,1-.57.58,1.63,1.63,0,0,1-.81.21A1.49,1.49,0,0,1,56.28,82,1.79,1.79,0,0,1,55.85,80.72Zm.58,0a1.44,1.44,0,0,0,.29,1,.9.9,0,0,0,.71.32.87.87,0,0,0,.7-.33,1.43,1.43,0,0,0,.29-1,1.4,1.4,0,0,0-.29-1,.94.94,0,0,0-1.41,0A1.42,1.42,0,0,0,56.43,80.72Z" transform="translate(0.01 -22.21)"/><path class="cls-3" d="M59.67,82.4V79h.52v.48A1.2,1.2,0,0,1,61.26,79a1.47,1.47,0,0,1,.56.11.89.89,0,0,1,.38.29,1,1,0,0,1,.18.42,3.51,3.51,0,0,1,0,.56V82.4h-.57V80.35a1.38,1.38,0,0,0-.07-.52.53.53,0,0,0-.23-.28.77.77,0,0,0-.4-.1,1,1,0,0,0-.63.23,1.14,1.14,0,0,0-.27.88V82.4Z" transform="translate(0.01 -22.21)"/><path class="cls-3" d="M22.09,90.2V86.83h.52v.51a1.41,1.41,0,0,1,.36-.47.61.61,0,0,1,.37-.12,1.14,1.14,0,0,1,.58.19l-.19.53a.86.86,0,0,0-.42-.13.52.52,0,0,0-.34.12.58.58,0,0,0-.21.31,2,2,0,0,0-.1.67V90.2Z" transform="translate(0.01 -22.21)"/><path class="cls-3" d="M26.47,90.2v-.49a1.23,1.23,0,0,1-1.07.57,1.34,1.34,0,0,1-.56-.12.88.88,0,0,1-.38-.28,1.11,1.11,0,0,1-.17-.43,2.3,2.3,0,0,1,0-.53V86.83h.57V88.7a2.63,2.63,0,0,0,0,.6.61.61,0,0,0,.22.36.79.79,0,0,0,.44.13.92.92,0,0,0,.48-.14.66.66,0,0,0,.32-.36,1.84,1.84,0,0,0,.09-.65V86.83H27V90.2Z" transform="translate(0.01 -22.21)"/><path class="cls-3" d="M27.88,90.2V86.83h.51v.48a1.22,1.22,0,0,1,1.07-.56,1.43,1.43,0,0,1,.56.11,1,1,0,0,1,.39.29,1.13,1.13,0,0,1,.17.42,2.44,2.44,0,0,1,0,.56V90.2H30v-2a1.67,1.67,0,0,0-.06-.52.55.55,0,0,0-.24-.28.72.72,0,0,0-.4-.1,1,1,0,0,0-.63.23,1.18,1.18,0,0,0-.26.88V90.2Z" transform="translate(0.01 -22.21)"/><path class="cls-3" d="M31.49,90.2V86.83H32v.48a1.2,1.2,0,0,1,1.07-.56,1.47,1.47,0,0,1,.56.11.89.89,0,0,1,.38.29,1,1,0,0,1,.18.42,3.51,3.51,0,0,1,0,.56V90.2h-.57v-2a1.38,1.38,0,0,0-.07-.52.53.53,0,0,0-.23-.28.77.77,0,0,0-.4-.1,1,1,0,0,0-.63.23,1.14,1.14,0,0,0-.27.88V90.2Z" transform="translate(0.01 -22.21)"/><path class="cls-3" d="M35.11,86.21v-.66h.57v.66Zm0,4V86.83h.57V90.2Z" transform="translate(0.01 -22.21)"/><path class="cls-3" d="M36.55,90.2V86.83h.52v.48a1.2,1.2,0,0,1,1.07-.56,1.47,1.47,0,0,1,.56.11.89.89,0,0,1,.38.29,1.14,1.14,0,0,1,.18.42,3.51,3.51,0,0,1,0,.56V90.2h-.57v-2a1.38,1.38,0,0,0-.07-.52.53.53,0,0,0-.23-.28.77.77,0,0,0-.4-.1.94.94,0,0,0-.63.23,1.14,1.14,0,0,0-.27.88V90.2Z" transform="translate(0.01 -22.21)"/><path class="cls-3" d="M40.06,90.48l.56.08a.56.56,0,0,0,.19.38,1,1,0,0,0,.58.16,1,1,0,0,0,.61-.16.79.79,0,0,0,.3-.45,3.76,3.76,0,0,0,0-.73,1.19,1.19,0,0,1-.94.44,1.24,1.24,0,0,1-1.07-.5A1.89,1.89,0,0,1,40,88.5a2.35,2.35,0,0,1,.17-.89,1.4,1.4,0,0,1,.51-.63,1.35,1.35,0,0,1,.78-.23,1.21,1.21,0,0,1,1,.49v-.41h.53v2.91a2.9,2.9,0,0,1-.16,1.12,1.22,1.22,0,0,1-.51.52,1.74,1.74,0,0,1-.86.19,1.61,1.61,0,0,1-1-.27A.91.91,0,0,1,40.06,90.48Zm.48-2a1.41,1.41,0,0,0,.26,1,.81.81,0,0,0,.66.31.85.85,0,0,0,.66-.3,1.43,1.43,0,0,0,.26-1,1.39,1.39,0,0,0-.27-.93.85.85,0,0,0-1.31,0A1.35,1.35,0,0,0,40.54,88.46Z" transform="translate(0.01 -22.21)"/><path class="cls-3" d="M45.58,90.2V86.83h.52v.51a1.41,1.41,0,0,1,.36-.47.61.61,0,0,1,.37-.12,1.14,1.14,0,0,1,.58.19l-.19.53a.86.86,0,0,0-.42-.13.52.52,0,0,0-.34.12.58.58,0,0,0-.21.31,2,2,0,0,0-.1.67V90.2Z" transform="translate(0.01 -22.21)"/><path class="cls-3" d="M50,89.79a2.17,2.17,0,0,1-.61.38,1.9,1.9,0,0,1-.63.11,1.22,1.22,0,0,1-.85-.27.91.91,0,0,1-.3-.7,1,1,0,0,1,.11-.45.87.87,0,0,1,.3-.33,1.28,1.28,0,0,1,.41-.18,2.87,2.87,0,0,1,.5-.09,5,5,0,0,0,1-.2,1.14,1.14,0,0,0,0-.15.67.67,0,0,0-.16-.49,1,1,0,0,0-.66-.19,1,1,0,0,0-.59.14.83.83,0,0,0-.28.5l-.56-.08a1.34,1.34,0,0,1,.25-.58,1.11,1.11,0,0,1,.5-.34,2.26,2.26,0,0,1,.77-.12,2,2,0,0,1,.7.11.82.82,0,0,1,.39.25.79.79,0,0,1,.18.39,3.08,3.08,0,0,1,0,.53v.76a6.89,6.89,0,0,0,0,1,1.19,1.19,0,0,0,.14.4h-.59A1.31,1.31,0,0,1,50,89.79Zm-.05-1.28a4.39,4.39,0,0,1-.93.22,2.25,2.25,0,0,0-.5.11.45.45,0,0,0-.22.19.43.43,0,0,0-.08.27.5.5,0,0,0,.17.38.76.76,0,0,0,.51.15,1.21,1.21,0,0,0,.58-.14.86.86,0,0,0,.38-.4,1.41,1.41,0,0,0,.09-.57Z" transform="translate(0.01 -22.21)"/><path class="cls-3" d="M51.37,90.2V86.83h.51v.48A1.22,1.22,0,0,1,53,86.75a1.43,1.43,0,0,1,.56.11,1,1,0,0,1,.39.29,1.13,1.13,0,0,1,.17.42,3.21,3.21,0,0,1,0,.56V90.2h-.57v-2a1.62,1.62,0,0,0-.07-.52.6.6,0,0,0-.24-.28.72.72,0,0,0-.4-.1,1,1,0,0,0-.63.23,1.18,1.18,0,0,0-.26.88V90.2Z" transform="translate(0.01 -22.21)"/><path class="cls-3" d="M54.88,90.48l.55.08a.56.56,0,0,0,.2.38,1,1,0,0,0,.58.16,1.05,1.05,0,0,0,.61-.16.82.82,0,0,0,.29-.45,3.76,3.76,0,0,0,0-.73,1.18,1.18,0,0,1-.93.44,1.28,1.28,0,0,1-1.08-.5,2,2,0,0,1-.38-1.2,2.18,2.18,0,0,1,.18-.89,1.32,1.32,0,0,1,.5-.63,1.38,1.38,0,0,1,.78-.23,1.23,1.23,0,0,1,1,.49v-.41h.52v2.91a2.72,2.72,0,0,1-.16,1.12,1.14,1.14,0,0,1-.5.52,1.76,1.76,0,0,1-.86.19,1.59,1.59,0,0,1-1-.27A.91.91,0,0,1,54.88,90.48Zm.47-2a1.47,1.47,0,0,0,.26,1,.87.87,0,0,0,1.32,0,1.43,1.43,0,0,0,.27-1,1.39,1.39,0,0,0-.27-.93.87.87,0,0,0-.67-.31.79.79,0,0,0-.64.31A1.35,1.35,0,0,0,55.35,88.46Z" transform="translate(0.01 -22.21)"/><path class="cls-3" d="M60.9,89.12l.59.07A1.43,1.43,0,0,1,61,90a1.57,1.57,0,0,1-1,.29,1.52,1.52,0,0,1-1.17-.46,1.77,1.77,0,0,1-.43-1.28,1.89,1.89,0,0,1,.43-1.32A1.52,1.52,0,0,1,60,86.75a1.42,1.42,0,0,1,1.1.47,1.78,1.78,0,0,1,.43,1.29v.15H59a1.26,1.26,0,0,0,.31.85.93.93,0,0,0,.71.3.86.86,0,0,0,.53-.17A1,1,0,0,0,60.9,89.12ZM59,88.19h1.88a1.21,1.21,0,0,0-.21-.64.93.93,0,0,0-1.37-.06A1,1,0,0,0,59,88.19Z" transform="translate(0.01 -22.21)"/><rect class="cls-6" x="20.31" y="96.23" width="41.46" height="16.58"/><path class="cls-3" d="M25.38,123.18l.62.16a2,2,0,0,1-.7,1.15,1.88,1.88,0,0,1-1.23.4,2.23,2.23,0,0,1-1.22-.3,2,2,0,0,1-.72-.89,3.24,3.24,0,0,1-.24-1.25,2.7,2.7,0,0,1,.28-1.27,1.84,1.84,0,0,1,.79-.82,2.24,2.24,0,0,1,1.12-.28,1.9,1.9,0,0,1,1.18.36,1.78,1.78,0,0,1,.66,1l-.6.14a1.46,1.46,0,0,0-.47-.74,1.24,1.24,0,0,0-.78-.23,1.52,1.52,0,0,0-.9.25,1.42,1.42,0,0,0-.5.7,2.64,2.64,0,0,0-.15.89,2.92,2.92,0,0,0,.17,1,1.35,1.35,0,0,0,.54.67,1.58,1.58,0,0,0,.79.21,1.32,1.32,0,0,0,.88-.29A1.51,1.51,0,0,0,25.38,123.18Z" transform="translate(0.01 -22.21)"/><path class="cls-3" d="M26.47,123.13a1.76,1.76,0,0,1,.52-1.39,1.58,1.58,0,0,1,1.06-.37,1.51,1.51,0,0,1,1.14.45,1.76,1.76,0,0,1,.44,1.26,2.24,2.24,0,0,1-.19,1,1.39,1.39,0,0,1-.57.58,1.64,1.64,0,0,1-.82.21,1.48,1.48,0,0,1-1.14-.46A1.79,1.79,0,0,1,26.47,123.13Zm.59,0a1.44,1.44,0,0,0,.28,1,.93.93,0,0,0,.71.32.91.91,0,0,0,.71-.32,1.48,1.48,0,0,0,.28-1,1.4,1.4,0,0,0-.28-1,.91.91,0,0,0-.71-.32.9.9,0,0,0-.71.32A1.42,1.42,0,0,0,27.06,123.13Z" transform="translate(0.01 -22.21)"/><path class="cls-3" d="M30.3,124.81v-3.37h.52v.48a1.19,1.19,0,0,1,1.07-.55,1.3,1.3,0,0,1,.56.11.81.81,0,0,1,.38.28,1,1,0,0,1,.18.42,3.6,3.6,0,0,1,0,.56v2.07h-.57v-2a1.41,1.41,0,0,0-.07-.52.57.57,0,0,0-.23-.28.88.88,0,0,0-.4-.1.92.92,0,0,0-.63.23,1.14,1.14,0,0,0-.27.88v1.84Z" transform="translate(0.01 -22.21)"/><path class="cls-3" d="M35.16,124.3l.09.51a2.47,2.47,0,0,1-.43,0,1.09,1.09,0,0,1-.49-.1.6.6,0,0,1-.24-.26,1.94,1.94,0,0,1-.07-.67v-1.94H33.6v-.45H34v-.83l.57-.35v1.18h.57v.45h-.57v2a1,1,0,0,0,0,.31.18.18,0,0,0,.1.11.34.34,0,0,0,.19,0A1.19,1.19,0,0,0,35.16,124.3Z" transform="translate(0.01 -22.21)"/><path class="cls-3" d="M35.73,120.82v-.66h.57v.66Zm0,4v-3.37h.57v3.37Z" transform="translate(0.01 -22.21)"/><path class="cls-3" d="M37.17,124.81v-3.37h.51v.48a1.21,1.21,0,0,1,1.07-.55,1.27,1.27,0,0,1,.56.11.89.89,0,0,1,.39.28,1.13,1.13,0,0,1,.17.42,3.3,3.3,0,0,1,0,.56v2.07h-.58v-2a1.72,1.72,0,0,0-.06-.52A.65.65,0,0,0,39,122a.85.85,0,0,0-.4-.1,1,1,0,0,0-.63.23,1.18,1.18,0,0,0-.26.88v1.84Z" transform="translate(0.01 -22.21)"/><path class="cls-3" d="M43,124.81v-.49a1.23,1.23,0,0,1-1.07.57,1.34,1.34,0,0,1-.56-.12.88.88,0,0,1-.38-.28,1.3,1.3,0,0,1-.18-.43,3.33,3.33,0,0,1,0-.53v-2.09h.57v1.87a3.77,3.77,0,0,0,0,.6.65.65,0,0,0,.23.36.75.75,0,0,0,.43.13,1,1,0,0,0,.49-.13.79.79,0,0,0,.32-.36,1.86,1.86,0,0,0,.09-.66v-1.81h.57v3.37Z" transform="translate(0.01 -22.21)"/><path class="cls-3" d="M44.18,123.13a1.76,1.76,0,0,1,.52-1.39,1.58,1.58,0,0,1,1.06-.37,1.51,1.51,0,0,1,1.14.45,1.76,1.76,0,0,1,.44,1.26,2.24,2.24,0,0,1-.19,1,1.39,1.39,0,0,1-.57.58,1.64,1.64,0,0,1-.82.21,1.48,1.48,0,0,1-1.14-.46A1.79,1.79,0,0,1,44.18,123.13Zm.59,0a1.44,1.44,0,0,0,.28,1,.93.93,0,0,0,.71.32.91.91,0,0,0,.71-.32,1.48,1.48,0,0,0,.28-1,1.4,1.4,0,0,0-.28-1,.91.91,0,0,0-.71-.32.9.9,0,0,0-.71.32A1.42,1.42,0,0,0,44.77,123.13Z" transform="translate(0.01 -22.21)"/><path class="cls-3" d="M50.22,124.81v-.49a1.23,1.23,0,0,1-1.07.57,1.34,1.34,0,0,1-.56-.12.88.88,0,0,1-.38-.28,1.3,1.3,0,0,1-.18-.43,3.33,3.33,0,0,1,0-.53v-2.09h.57v1.87a3.77,3.77,0,0,0,0,.6.65.65,0,0,0,.23.36.75.75,0,0,0,.43.13,1,1,0,0,0,.49-.13.79.79,0,0,0,.32-.36,1.86,1.86,0,0,0,.09-.66v-1.81h.57v3.37Z" transform="translate(0.01 -22.21)"/><path class="cls-3" d="M51.4,123.81l.56-.09a.78.78,0,0,0,.27.52.92.92,0,0,0,.61.18.87.87,0,0,0,.58-.16.47.47,0,0,0,.19-.38.34.34,0,0,0-.17-.3,2.49,2.49,0,0,0-.58-.2,4.57,4.57,0,0,1-.87-.27.83.83,0,0,1-.37-.32.81.81,0,0,1-.13-.45.88.88,0,0,1,.11-.42.87.87,0,0,1,.28-.32,1.21,1.21,0,0,1,.36-.17,1.93,1.93,0,0,1,.49-.06,1.87,1.87,0,0,1,.7.11.94.94,0,0,1,.44.31,1.18,1.18,0,0,1,.2.52l-.56.08a.6.6,0,0,0-.22-.41.77.77,0,0,0-.51-.14.94.94,0,0,0-.57.13.35.35,0,0,0-.16.3.36.36,0,0,0,.06.2.53.53,0,0,0,.22.15l.51.15a7.91,7.91,0,0,1,.85.26.91.91,0,0,1,.37.3.86.86,0,0,1,.14.49,1,1,0,0,1-.17.54,1,1,0,0,1-.48.39,1.8,1.8,0,0,1-.71.14,1.59,1.59,0,0,1-1-.27A1.29,1.29,0,0,1,51.4,123.81Z" transform="translate(0.01 -22.21)"/><path class="cls-3" d="M22,132.61v-3.37h.51v.51a1.41,1.41,0,0,1,.36-.47.62.62,0,0,1,.37-.11,1.15,1.15,0,0,1,.59.18l-.2.53a.84.84,0,0,0-.42-.12.55.55,0,0,0-.34.11.64.64,0,0,0-.21.31,2.36,2.36,0,0,0-.09.67v1.76Z" transform="translate(0.01 -22.21)"/><path class="cls-3" d="M26.37,132.61v-.49a1.25,1.25,0,0,1-1.07.57,1.31,1.31,0,0,1-.56-.12.88.88,0,0,1-.38-.28,1,1,0,0,1-.18-.43,3.07,3.07,0,0,1,0-.53v-2.09h.58v1.87a3.77,3.77,0,0,0,0,.6.6.6,0,0,0,.23.36.75.75,0,0,0,.43.13,1,1,0,0,0,.48-.13.74.74,0,0,0,.32-.36,1.83,1.83,0,0,0,.1-.66v-1.81h.57v3.37Z" transform="translate(0.01 -22.21)"/><path class="cls-3" d="M27.77,132.61v-3.37h.52v.48a1.19,1.19,0,0,1,1.07-.55,1.3,1.3,0,0,1,.56.11.81.81,0,0,1,.38.28,1,1,0,0,1,.18.42,3.6,3.6,0,0,1,0,.56v2.07h-.57v-2.05a1.41,1.41,0,0,0-.07-.52.57.57,0,0,0-.23-.28.88.88,0,0,0-.4-.1.94.94,0,0,0-.63.23,1.14,1.14,0,0,0-.27.88v1.84Z" transform="translate(0.01 -22.21)"/><path class="cls-3" d="M31.39,132.61v-3.37h.51v.48a1.21,1.21,0,0,1,1.07-.55,1.27,1.27,0,0,1,.56.11.89.89,0,0,1,.39.28,1.13,1.13,0,0,1,.17.42,2.49,2.49,0,0,1,0,.56v2.07h-.58v-2.05a1.72,1.72,0,0,0-.06-.52.59.59,0,0,0-.24-.28.82.82,0,0,0-.4-.1,1,1,0,0,0-.63.23,1.18,1.18,0,0,0-.26.88v1.84Z" transform="translate(0.01 -22.21)"/><path class="cls-3" d="M35,128.62V128h.57v.66Zm0,4v-3.37h.57v3.37Z" transform="translate(0.01 -22.21)"/><path class="cls-3" d="M36.45,132.61v-3.37H37v.48a1.2,1.2,0,0,1,1.07-.55,1.27,1.27,0,0,1,.56.11.89.89,0,0,1,.39.28,1.13,1.13,0,0,1,.17.42,3.6,3.6,0,0,1,0,.56v2.07h-.57v-2.05a1.72,1.72,0,0,0-.06-.52.65.65,0,0,0-.24-.28.82.82,0,0,0-.4-.1,1,1,0,0,0-.63.23,1.18,1.18,0,0,0-.26.88v1.84Z" transform="translate(0.01 -22.21)"/><path class="cls-3" d="M40,132.89l.55.08a.54.54,0,0,0,.2.38,1,1,0,0,0,.58.16,1.08,1.08,0,0,0,.61-.16.79.79,0,0,0,.29-.45,3.76,3.76,0,0,0,0-.73,1.15,1.15,0,0,1-.93.44,1.28,1.28,0,0,1-1.08-.5,1.93,1.93,0,0,1-.38-1.2A2.18,2.18,0,0,1,40,130a1.37,1.37,0,0,1,.5-.63,1.35,1.35,0,0,1,.78-.22,1.22,1.22,0,0,1,1,.48v-.41h.52v2.92a2.7,2.7,0,0,1-.16,1.11,1.14,1.14,0,0,1-.5.52,1.76,1.76,0,0,1-.86.19,1.65,1.65,0,0,1-1-.27A.92.92,0,0,1,40,132.89Zm.47-2a1.47,1.47,0,0,0,.26,1,.87.87,0,0,0,1.32,0A1.79,1.79,0,0,0,42,130a.87.87,0,0,0-.67-.31.79.79,0,0,0-.64.31A1.37,1.37,0,0,0,40.43,130.87Z" transform="translate(0.01 -22.21)"/><path class="cls-3" d="M45.48,132.61v-3.37H46v.51a1.41,1.41,0,0,1,.36-.47.62.62,0,0,1,.37-.11,1.15,1.15,0,0,1,.59.18l-.2.53a.84.84,0,0,0-.42-.12.49.49,0,0,0-.33.11.54.54,0,0,0-.22.31,2.36,2.36,0,0,0-.09.67v1.76Z" transform="translate(0.01 -22.21)"/><path class="cls-3" d="M49.85,132.2a2.49,2.49,0,0,1-.61.38,1.91,1.91,0,0,1-.64.11,1.24,1.24,0,0,1-.85-.27.91.91,0,0,1-.3-.7.89.89,0,0,1,.12-.45,1,1,0,0,1,.29-.33,1.38,1.38,0,0,1,.41-.18,4.17,4.17,0,0,1,.51-.09,5.33,5.33,0,0,0,1-.2v-.15a.63.63,0,0,0-.16-.49,1,1,0,0,0-.65-.19,1.06,1.06,0,0,0-.6.14.88.88,0,0,0-.28.5l-.56-.08a1.48,1.48,0,0,1,.25-.58,1.11,1.11,0,0,1,.51-.33,2.2,2.2,0,0,1,.76-.12,2,2,0,0,1,.7.1.92.92,0,0,1,.4.25,1.17,1.17,0,0,1,.18.39,3.08,3.08,0,0,1,0,.53v.76a9.89,9.89,0,0,0,0,1,1.22,1.22,0,0,0,.15.4H50A1,1,0,0,1,49.85,132.2Zm-.05-1.28a4,4,0,0,1-.94.22,2,2,0,0,0-.49.11.43.43,0,0,0-.23.19.5.5,0,0,0-.08.27.48.48,0,0,0,.18.38.73.73,0,0,0,.5.15,1.25,1.25,0,0,0,.59-.14.92.92,0,0,0,.38-.4,1.41,1.41,0,0,0,.09-.57Z" transform="translate(0.01 -22.21)"/><path class="cls-3" d="M51.26,132.61v-3.37h.52v.48a1.19,1.19,0,0,1,1.07-.55,1.3,1.3,0,0,1,.56.11.81.81,0,0,1,.38.28A1,1,0,0,1,54,130a3.6,3.6,0,0,1,0,.56v2.07h-.57v-2.05a1.41,1.41,0,0,0-.07-.52.57.57,0,0,0-.23-.28.88.88,0,0,0-.4-.1.92.92,0,0,0-.63.23,1.14,1.14,0,0,0-.27.88v1.84Z" transform="translate(0.01 -22.21)"/><path class="cls-3" d="M54.77,132.89l.56.08a.5.5,0,0,0,.19.38,1,1,0,0,0,.58.16,1,1,0,0,0,.61-.16.76.76,0,0,0,.3-.45,3.76,3.76,0,0,0,0-.73,1.16,1.16,0,0,1-.94.44,1.24,1.24,0,0,1-1.07-.5,1.87,1.87,0,0,1-.38-1.2,2.35,2.35,0,0,1,.17-.89,1.46,1.46,0,0,1,.51-.63,1.35,1.35,0,0,1,.78-.22,1.2,1.2,0,0,1,1,.48v-.41h.53v2.92a2.7,2.7,0,0,1-.16,1.11,1.22,1.22,0,0,1-.51.52,1.72,1.72,0,0,1-.85.19,1.63,1.63,0,0,1-1-.27A.91.91,0,0,1,54.77,132.89Zm.47-2a1.41,1.41,0,0,0,.27,1,.81.81,0,0,0,.66.31.85.85,0,0,0,.66-.3,1.76,1.76,0,0,0,0-1.89.83.83,0,0,0-.66-.31.81.81,0,0,0-.65.31A1.37,1.37,0,0,0,55.24,130.87Z" transform="translate(0.01 -22.21)"/><path class="cls-3" d="M60.8,131.53l.59.07a1.41,1.41,0,0,1-.52.8,1.74,1.74,0,0,1-2.14-.17A1.76,1.76,0,0,1,58.3,131a1.86,1.86,0,0,1,.44-1.32,1.46,1.46,0,0,1,1.14-.47,1.43,1.43,0,0,1,1.1.46,1.78,1.78,0,0,1,.43,1.29v.15H58.89a1.27,1.27,0,0,0,.32.85.91.91,0,0,0,.7.3.89.89,0,0,0,.54-.17A1.16,1.16,0,0,0,60.8,131.53Zm-1.88-.93H60.8a1.07,1.07,0,0,0-.21-.63.85.85,0,0,0-.71-.33.89.89,0,0,0-.66.26A1,1,0,0,0,58.92,130.6Z" transform="translate(0.01 -22.21)"/><path class="cls-3" d="M44.05,150.56l.58-.06a1.32,1.32,0,0,0,.19.58,1,1,0,0,0,.47.36,1.8,1.8,0,0,0,.71.14,1.73,1.73,0,0,0,.63-.11.87.87,0,0,0,.4-.28.68.68,0,0,0,.13-.4.55.55,0,0,0-.13-.38.86.86,0,0,0-.42-.28c-.12,0-.4-.12-.82-.23a4.09,4.09,0,0,1-.9-.29,1.19,1.19,0,0,1-.5-.43,1.06,1.06,0,0,1-.16-.58,1.16,1.16,0,0,1,.2-.66,1.22,1.22,0,0,1,.58-.46,2.15,2.15,0,0,1,.85-.16,2.22,2.22,0,0,1,.92.17,1.27,1.27,0,0,1,.6.49,1.32,1.32,0,0,1,.23.73l-.59,0a1,1,0,0,0-.32-.66,1.24,1.24,0,0,0-.81-.23,1.27,1.27,0,0,0-.81.21.61.61,0,0,0-.26.49A.52.52,0,0,0,45,149a2.39,2.39,0,0,0,.93.33,7.58,7.58,0,0,1,1,.3,1.41,1.41,0,0,1,.6.48,1.14,1.14,0,0,1,.19.66,1.3,1.3,0,0,1-.21.7,1.34,1.34,0,0,1-.61.51,2.19,2.19,0,0,1-.9.18A2.76,2.76,0,0,1,45,152a1.51,1.51,0,0,1-.66-.56A1.48,1.48,0,0,1,44.05,150.56Z" transform="translate(0.01 -22.21)"/><path class="cls-3" d="M48.52,153.34v-4.66H49v.44a1.29,1.29,0,0,1,.42-.39,1.19,1.19,0,0,1,.56-.13,1.31,1.31,0,0,1,.76.23,1.29,1.29,0,0,1,.5.62,2.35,2.35,0,0,1,.17.89,2.15,2.15,0,0,1-.19.93,1.36,1.36,0,0,1-.54.64,1.42,1.42,0,0,1-.74.22,1.07,1.07,0,0,1-.51-.12,1.17,1.17,0,0,1-.38-.31v1.64Zm.52-3a1.52,1.52,0,0,0,.26,1,.84.84,0,0,0,.64.31.82.82,0,0,0,.65-.33,1.94,1.94,0,0,0,0-2,.79.79,0,0,0-1.28,0A1.52,1.52,0,0,0,49,150.38Z" transform="translate(0.01 -22.21)"/><path class="cls-3" d="M54.44,151,55,151a1.43,1.43,0,0,1-.51.8,1.6,1.6,0,0,1-1,.29,1.52,1.52,0,0,1-1.17-.46,1.77,1.77,0,0,1-.43-1.28,1.89,1.89,0,0,1,.43-1.32,1.51,1.51,0,0,1,1.14-.47,1.45,1.45,0,0,1,1.1.46,1.82,1.82,0,0,1,.43,1.3v.15H52.54a1.26,1.26,0,0,0,.31.85.92.92,0,0,0,.7.3.89.89,0,0,0,.54-.17A1,1,0,0,0,54.44,151ZM52.57,150h1.88a1.21,1.21,0,0,0-.22-.64.86.86,0,0,0-.7-.33.9.9,0,0,0-.67.27A1.07,1.07,0,0,0,52.57,150Z" transform="translate(0.01 -22.21)"/><path class="cls-3" d="M58.06,151l.59.07a1.44,1.44,0,0,1-.52.8,1.74,1.74,0,0,1-2.14-.17,1.82,1.82,0,0,1-.43-1.28,1.9,1.9,0,0,1,.44-1.32,1.49,1.49,0,0,1,1.13-.47,1.47,1.47,0,0,1,1.11.46,1.82,1.82,0,0,1,.43,1.3,1,1,0,0,1,0,.15H56.15a1.27,1.27,0,0,0,.32.85.91.91,0,0,0,.7.3.89.89,0,0,0,.54-.17A1.16,1.16,0,0,0,58.06,151ZM56.18,150h1.88a1.13,1.13,0,0,0-.21-.64.88.88,0,0,0-.71-.33.9.9,0,0,0-.66.27A1,1,0,0,0,56.18,150Z" transform="translate(0.01 -22.21)"/><path class="cls-3" d="M61.55,152.05v-.42a1.05,1.05,0,0,1-.94.5,1.3,1.3,0,0,1-.74-.23,1.33,1.33,0,0,1-.52-.62,2,2,0,0,1-.19-.91,2.47,2.47,0,0,1,.17-.92,1.37,1.37,0,0,1,.5-.63,1.43,1.43,0,0,1,.75-.22,1.21,1.21,0,0,1,.55.13,1,1,0,0,1,.38.34V147.4h.57v4.65Zm-1.8-1.68a1.5,1.5,0,0,0,.27,1,.83.83,0,0,0,.64.32.82.82,0,0,0,.64-.31,1.38,1.38,0,0,0,.26-.93,1.64,1.64,0,0,0-.26-1,.81.81,0,0,0-.66-.32.78.78,0,0,0-.64.31A1.54,1.54,0,0,0,59.75,150.37Z" transform="translate(0.01 -22.21)"/><path class="cls-3" d="M64.8,153.34V147.4h1.26v.47h-.69v5h.69v.47Z" transform="translate(0.01 -22.21)"/><path class="cls-3" d="M66.59,152.05v-3.37h.51v.51a1.31,1.31,0,0,1,.36-.47.65.65,0,0,1,.37-.12,1.17,1.17,0,0,1,.59.19l-.2.53a.86.86,0,0,0-.42-.13.52.52,0,0,0-.33.12.65.65,0,0,0-.22.31,2.31,2.31,0,0,0-.09.67v1.76Z" transform="translate(0.01 -22.21)"/><path class="cls-3" d="M68.33,152.13l1.35-4.81h.45l-1.34,4.81Z" transform="translate(0.01 -22.21)"/><path class="cls-3" d="M70.56,152.05v-3.37h.51v.47a1.38,1.38,0,0,1,.43-.4,1.16,1.16,0,0,1,.6-.15,1.13,1.13,0,0,1,.61.16.86.86,0,0,1,.34.43,1.22,1.22,0,0,1,1-.59,1.05,1.05,0,0,1,.77.28,1.2,1.2,0,0,1,.27.86v2.31h-.57v-2.12a1.91,1.91,0,0,0,0-.5.52.52,0,0,0-.2-.24.68.68,0,0,0-.35-.09.81.81,0,0,0-.59.24,1.05,1.05,0,0,0-.23.75v2h-.57v-2.19a1,1,0,0,0-.14-.57.54.54,0,0,0-.46-.19.81.81,0,0,0-.45.13.69.69,0,0,0-.29.37,2.08,2.08,0,0,0-.1.7v1.75Z" transform="translate(0.01 -22.21)"/><path class="cls-3" d="M76,148.05v-.65h.57v.65Zm0,4v-3.37h.57v3.37Z" transform="translate(0.01 -22.21)"/><path class="cls-3" d="M77.42,152.05v-3.37h.52v.48A1.2,1.2,0,0,1,79,148.6a1.47,1.47,0,0,1,.56.11A.89.89,0,0,1,80,149a1,1,0,0,1,.18.42,3.51,3.51,0,0,1,0,.56v2.07h-.57V150a1.38,1.38,0,0,0-.07-.52.53.53,0,0,0-.23-.28.77.77,0,0,0-.4-.1,1,1,0,0,0-.63.23,1.13,1.13,0,0,0-.27.88v1.84Z" transform="translate(0.01 -22.21)"/><path class="cls-3" d="M82,153.34H80.73v-.47h.69v-5h-.69v-.47H82Z" transform="translate(0.01 -22.21)"/></g></svg>