<svg xmlns="http://www.w3.org/2000/svg" viewBox="0 0 115.88 131.42"><defs><style>.cls-1,.cls-2,.cls-4,.繝医Ν繧ｯ繧ｰ繝ｩ繝廟繧ｰ繝ｬ繝ｼ邱,.邱喟0\.5pt-2{fill:none;}.cls-1,.cls-2,.繝医Ν繧ｯ繧ｰ繝ｩ繝廟繧ｰ繝ｬ繝ｼ邱{stroke:#9fa0a0;}.cls-1,.cls-2,.cls-4,.邱喟0\.5pt-2{stroke-miterlimit:10;}.cls-1,.cls-2{stroke-width:1px;}.cls-2{stroke-dasharray:3.29 1.59;}.cls-3{fill:#231815;}.cls-4,.邱喟0\.5pt-2{stroke:#231815;}.cls-4{stroke-width:0.14px;}.繝医Ν繧ｯ繧ｰ繝ｩ繝廟繧ｰ繝ｬ繝ｼ邱{stroke-width:3px;}.繝後Μ_逋ｽ{fill:#fff;}.邱喟0\.5pt-2{stroke-width:0.5px;}</style></defs><g id="Illust"><line class="cls-1" x1="92.78" y1="101.07" x2="92.78" y2="102.62"/><line class="cls-2" x1="92.78" y1="104.21" x2="92.78" y2="113.18"/><line class="cls-1" x1="92.78" y1="113.98" x2="92.78" y2="115.53"/><path class="cls-3" d="M10.26,137.13a3.52,3.52,0,0,1,.13-1,1.31,1.31,0,0,1,.39-.6,1,1,0,0,1,.65-.21,1.07,1.07,0,0,1,.51.12,1.13,1.13,0,0,1,.36.33,2.25,2.25,0,0,1,.22.54,3.72,3.72,0,0,1,.08.84,3.2,3.2,0,0,1-.13,1,1.31,1.31,0,0,1-.39.6,1,1,0,0,1-.65.21,1,1,0,0,1-.81-.37A2.35,2.35,0,0,1,10.26,137.13Zm.46,0a2.27,2.27,0,0,0,.2,1.18.62.62,0,0,0,.51.29.61.61,0,0,0,.51-.3,3.36,3.36,0,0,0,0-2.34.6.6,0,0,0-.51-.29.56.56,0,0,0-.49.25A2.33,2.33,0,0,0,10.72,137.13Z" transform="translate(0.01 -21.92)"/><path class="cls-3" d="M13.29,138.9v-.5h.5v.5Z" transform="translate(0.01 -21.92)"/><path class="cls-3" d="M14.43,137.13a3.52,3.52,0,0,1,.13-1,1.31,1.31,0,0,1,.39-.6,1,1,0,0,1,.65-.21,1.07,1.07,0,0,1,.51.12,1.13,1.13,0,0,1,.36.33,2.25,2.25,0,0,1,.22.54,3.72,3.72,0,0,1,.08.84,3.52,3.52,0,0,1-.13,1,1.31,1.31,0,0,1-.39.6,1,1,0,0,1-.65.21,1,1,0,0,1-.81-.37A2.35,2.35,0,0,1,14.43,137.13Zm.46,0a2.27,2.27,0,0,0,.2,1.18.62.62,0,0,0,.51.29.61.61,0,0,0,.51-.3,3.36,3.36,0,0,0,0-2.34.6.6,0,0,0-.51-.29.56.56,0,0,0-.49.25A2.33,2.33,0,0,0,14.89,137.13Z" transform="translate(0.01 -21.92)"/><line class="cls-4" x1="107.73" y1="2.18" x2="107.73" y2="115.56"/><line class="cls-4" x1="18.44" y1="39.97" x2="107.73" y2="39.97"/><line class="cls-4" x1="18.44" y1="21.07" x2="107.73" y2="21.07"/><line class="cls-4" x1="18.44" y1="58.87" x2="107.73" y2="58.87"/><line class="cls-4" x1="18.44" y1="77.77" x2="107.73" y2="77.77"/><line class="cls-4" x1="18.44" y1="96.66" x2="107.73" y2="96.66"/><path class="cls-3" d="M10.26,119.06l.46,0a.87.87,0,0,0,.24.51.68.68,0,0,0,.45.17.71.71,0,0,0,.54-.24.88.88,0,0,0,.22-.63.84.84,0,0,0-.21-.6.75.75,0,0,0-.55-.21.83.83,0,0,0-.39.09.93.93,0,0,0-.27.25l-.41,0,.35-1.84h1.78v.42H11l-.19,1a1.14,1.14,0,0,1,.67-.22,1.07,1.07,0,0,1,.79.32,1.14,1.14,0,0,1,.33.84,1.32,1.32,0,0,1-.29.84,1.13,1.13,0,0,1-.94.43,1.15,1.15,0,0,1-.79-.27A1.07,1.07,0,0,1,10.26,119.06Z" transform="translate(0.01 -21.92)"/><path class="cls-3" d="M13.29,120v-.5h.5v.5Z" transform="translate(0.01 -21.92)"/><path class="cls-3" d="M14.43,118.23a3.52,3.52,0,0,1,.13-1,1.33,1.33,0,0,1,.39-.59,1,1,0,0,1,.65-.21,1.06,1.06,0,0,1,.51.11,1,1,0,0,1,.35.34,1.73,1.73,0,0,1,.23.53,3.72,3.72,0,0,1,.08.84,3.52,3.52,0,0,1-.13,1,1.31,1.31,0,0,1-.39.6,1,1,0,0,1-.65.21,1,1,0,0,1-.81-.37A2.33,2.33,0,0,1,14.43,118.23Zm.46,0a2.27,2.27,0,0,0,.2,1.18.59.59,0,0,0,1,0,2.25,2.25,0,0,0,.21-1.18,2.2,2.2,0,0,0-.21-1.17.62.62,0,0,0-.51-.29.57.57,0,0,0-.49.26A2.26,2.26,0,0,0,14.89,118.23Z" transform="translate(0.01 -21.92)"/><path class="cls-3" d="M9.14,101.1H8.7V98.3a3.28,3.28,0,0,1-.42.31,2.69,2.69,0,0,1-.46.22v-.42A2.73,2.73,0,0,0,8.46,98a1.58,1.58,0,0,0,.39-.48h.29Z" transform="translate(0.01 -21.92)"/><path class="cls-3" d="M10.26,99.34a3.42,3.42,0,0,1,.13-1,1.31,1.31,0,0,1,.39-.6,1,1,0,0,1,.65-.21,1.07,1.07,0,0,1,.51.12.85.85,0,0,1,.35.33,1.84,1.84,0,0,1,.23.53,3.76,3.76,0,0,1,.08.85,3.39,3.39,0,0,1-.13,1,1.31,1.31,0,0,1-.39.6,1,1,0,0,1-.65.21,1,1,0,0,1-.81-.37A2.32,2.32,0,0,1,10.26,99.34Zm.46,0a2.23,2.23,0,0,0,.2,1.17.6.6,0,0,0,.51.29.62.62,0,0,0,.51-.29,3.39,3.39,0,0,0,0-2.35.62.62,0,0,0-.51-.29.57.57,0,0,0-.49.26A2.3,2.3,0,0,0,10.72,99.34Z" transform="translate(0.01 -21.92)"/><path class="cls-3" d="M13.29,101.1v-.5h.5v.5Z" transform="translate(0.01 -21.92)"/><path class="cls-3" d="M14.43,99.34a3.42,3.42,0,0,1,.13-1,1.31,1.31,0,0,1,.39-.6,1,1,0,0,1,.65-.21,1.07,1.07,0,0,1,.51.12.85.85,0,0,1,.35.33,1.84,1.84,0,0,1,.23.53,3.76,3.76,0,0,1,.08.85,3.39,3.39,0,0,1-.13,1,1.31,1.31,0,0,1-.39.6,1,1,0,0,1-.65.21,1,1,0,0,1-.81-.37A2.32,2.32,0,0,1,14.43,99.34Zm.46,0a2.23,2.23,0,0,0,.2,1.17.6.6,0,0,0,.51.29.62.62,0,0,0,.51-.29,3.39,3.39,0,0,0,0-2.35.62.62,0,0,0-.51-.29.57.57,0,0,0-.49.26A2.3,2.3,0,0,0,14.89,99.34Z" transform="translate(0.01 -21.92)"/><path class="cls-3" d="M9.14,82.2H8.7V79.4a2.08,2.08,0,0,1-.42.31,2.69,2.69,0,0,1-.46.22v-.42a2.73,2.73,0,0,0,.64-.42,1.47,1.47,0,0,0,.39-.48h.29Z" transform="translate(0.01 -21.92)"/><path class="cls-3" d="M10.26,81.27l.46,0a.87.87,0,0,0,.24.5.63.63,0,0,0,.45.17.71.71,0,0,0,.54-.24.86.86,0,0,0,.22-.63.8.8,0,0,0-.21-.59.72.72,0,0,0-.55-.22.73.73,0,0,0-.39.1.72.72,0,0,0-.27.25l-.41-.06.35-1.84h1.78v.42H11l-.19,1a1.15,1.15,0,0,1,.67-.23,1,1,0,0,1,.79.33,1.1,1.1,0,0,1,.33.83,1.32,1.32,0,0,1-.29.84,1.14,1.14,0,0,1-.94.44,1.15,1.15,0,0,1-.79-.28A1,1,0,0,1,10.26,81.27Z" transform="translate(0.01 -21.92)"/><path class="cls-3" d="M13.29,82.2v-.5h.5v.5Z" transform="translate(0.01 -21.92)"/><path class="cls-3" d="M14.43,80.44a3.52,3.52,0,0,1,.13-1,1.31,1.31,0,0,1,.39-.6,1,1,0,0,1,.65-.21,1.07,1.07,0,0,1,.51.12.92.92,0,0,1,.35.33,1.84,1.84,0,0,1,.23.53,3.76,3.76,0,0,1,.08.85,3.52,3.52,0,0,1-.13,1,1.33,1.33,0,0,1-.39.59,1,1,0,0,1-.65.22,1,1,0,0,1-.81-.38A2.3,2.3,0,0,1,14.43,80.44Zm.46,0a2.2,2.2,0,0,0,.2,1.17.59.59,0,0,0,1,0,2.18,2.18,0,0,0,.21-1.17,2.25,2.25,0,0,0-.21-1.18A.62.62,0,0,0,15.6,79a.57.57,0,0,0-.49.26A2.3,2.3,0,0,0,14.89,80.44Z" transform="translate(0.01 -21.92)"/><path class="cls-3" d="M9.79,62.88v.43H7.43A.65.65,0,0,1,7.48,63a1.4,1.4,0,0,1,.29-.47A4.37,4.37,0,0,1,8.34,62a5.41,5.41,0,0,0,.79-.75.92.92,0,0,0,.21-.53.6.6,0,0,0-.19-.44.77.77,0,0,0-1,0,.72.72,0,0,0-.19.52l-.45,0A1.1,1.1,0,0,1,7.86,60a1.17,1.17,0,0,1,.81-.27,1.16,1.16,0,0,1,.82.29.93.93,0,0,1,.3.71,1.06,1.06,0,0,1-.09.42,2,2,0,0,1-.29.44,8.11,8.11,0,0,1-.68.63l-.51.45a1.81,1.81,0,0,0-.18.23Z" transform="translate(0.01 -21.92)"/><path class="cls-3" d="M10.26,61.54a3.52,3.52,0,0,1,.13-1,1.31,1.31,0,0,1,.39-.6,1,1,0,0,1,.65-.21,1.07,1.07,0,0,1,.51.12,1,1,0,0,1,.35.33,1.91,1.91,0,0,1,.23.54,3.66,3.66,0,0,1,.08.84,3.52,3.52,0,0,1-.13,1,1.31,1.31,0,0,1-.39.6A1.09,1.09,0,0,1,10.62,63,2.35,2.35,0,0,1,10.26,61.54Zm.46,0a2.2,2.2,0,0,0,.2,1.17.58.58,0,0,0,1,0,3.36,3.36,0,0,0,0-2.34.6.6,0,0,0-.51-.29.56.56,0,0,0-.49.25A2.3,2.3,0,0,0,10.72,61.54Z" transform="translate(0.01 -21.92)"/><path class="cls-3" d="M13.29,63.31v-.5h.5v.5Z" transform="translate(0.01 -21.92)"/><path class="cls-3" d="M14.43,61.54a3.52,3.52,0,0,1,.13-1,1.31,1.31,0,0,1,.39-.6,1,1,0,0,1,.65-.21,1.07,1.07,0,0,1,.51.12,1,1,0,0,1,.35.33,1.91,1.91,0,0,1,.23.54,3.66,3.66,0,0,1,.08.84,3.52,3.52,0,0,1-.13,1,1.31,1.31,0,0,1-.39.6A1.09,1.09,0,0,1,14.79,63,2.35,2.35,0,0,1,14.43,61.54Zm.46,0a2.2,2.2,0,0,0,.2,1.17.58.58,0,0,0,1,0,3.36,3.36,0,0,0,0-2.34.6.6,0,0,0-.51-.29.56.56,0,0,0-.49.25A2.3,2.3,0,0,0,14.89,61.54Z" transform="translate(0.01 -21.92)"/><path class="cls-3" d="M9.79,44v.42H7.43a.65.65,0,0,1,.05-.31,1.4,1.4,0,0,1,.29-.47,3.81,3.81,0,0,1,.57-.54,5.35,5.35,0,0,0,.79-.76.9.9,0,0,0,.21-.53.61.61,0,0,0-.19-.44.77.77,0,0,0-1,0A.74.74,0,0,0,8,41.9l-.45,0a1.12,1.12,0,0,1,.35-.77,1.16,1.16,0,0,1,.81-.26,1.15,1.15,0,0,1,.82.28.94.94,0,0,1,.3.71,1.06,1.06,0,0,1-.09.42,1.75,1.75,0,0,1-.29.44,8.11,8.11,0,0,1-.68.63l-.51.45A1.88,1.88,0,0,0,8,44Z" transform="translate(0.01 -21.92)"/><path class="cls-3" d="M10.26,43.47l.46,0a.87.87,0,0,0,.24.51.68.68,0,0,0,.45.17.71.71,0,0,0,.54-.24.89.89,0,0,0,.22-.64.82.82,0,0,0-.21-.59.76.76,0,0,0-.55-.22.84.84,0,0,0-.39.1.93.93,0,0,0-.27.25l-.41-.05.35-1.84h1.78v.42H11l-.19,1a1.14,1.14,0,0,1,.67-.22,1,1,0,0,1,.79.32,1.14,1.14,0,0,1,.33.84,1.32,1.32,0,0,1-.29.84,1.13,1.13,0,0,1-.94.43,1.15,1.15,0,0,1-.79-.27A1.09,1.09,0,0,1,10.26,43.47Z" transform="translate(0.01 -21.92)"/><path class="cls-3" d="M13.29,44.41v-.5h.5v.5Z" transform="translate(0.01 -21.92)"/><path class="cls-3" d="M14.43,42.64a3.52,3.52,0,0,1,.13-1A1.28,1.28,0,0,1,15,41a1,1,0,0,1,.65-.21,1.06,1.06,0,0,1,.51.11,1,1,0,0,1,.35.34,1.73,1.73,0,0,1,.23.53,3.72,3.72,0,0,1,.08.84,3.52,3.52,0,0,1-.13,1,1.31,1.31,0,0,1-.39.6,1,1,0,0,1-.65.21,1,1,0,0,1-.81-.37A2.33,2.33,0,0,1,14.43,42.64Zm.46,0a2.27,2.27,0,0,0,.2,1.18.59.59,0,0,0,1,0,2.25,2.25,0,0,0,.21-1.18,2.18,2.18,0,0,0-.21-1.17.62.62,0,0,0-.51-.29.55.55,0,0,0-.49.26A2.26,2.26,0,0,0,14.89,42.64Z" transform="translate(0.01 -21.92)"/><path class="cls-3" d="M7.49,24.57l.43-.06a1,1,0,0,0,.26.54.64.64,0,0,0,.45.16A.72.72,0,0,0,9.15,25a.75.75,0,0,0,.21-.54.67.67,0,0,0-.7-.69,1,1,0,0,0-.31.05l.05-.39h.07A.9.9,0,0,0,9,23.29a.5.5,0,0,0,.22-.45.52.52,0,0,0-.16-.4.57.57,0,0,0-.42-.16.57.57,0,0,0-.43.16.77.77,0,0,0-.22.48l-.44-.07a1.06,1.06,0,0,1,.37-.69,1.05,1.05,0,0,1,.71-.24,1.25,1.25,0,0,1,.54.12.9.9,0,0,1,.37.35.84.84,0,0,1,.13.46.79.79,0,0,1-.12.42.8.8,0,0,1-.37.3.79.79,0,0,1,.49.31.88.88,0,0,1,.18.57,1.05,1.05,0,0,1-.34.8,1.21,1.21,0,0,1-.87.33,1.12,1.12,0,0,1-.78-.29A1,1,0,0,1,7.49,24.57Z" transform="translate(0.01 -21.92)"/><path class="cls-3" d="M10.26,23.75a3.54,3.54,0,0,1,.13-1,1.33,1.33,0,0,1,.39-.59,1,1,0,0,1,.65-.21,1.19,1.19,0,0,1,.51.11,1,1,0,0,1,.35.34,1.73,1.73,0,0,1,.23.53,3.76,3.76,0,0,1,.08.85,3.39,3.39,0,0,1-.13,1,1.31,1.31,0,0,1-.39.6,1,1,0,0,1-.65.21,1,1,0,0,1-.81-.37A2.32,2.32,0,0,1,10.26,23.75Zm.46,0a2.23,2.23,0,0,0,.2,1.17.59.59,0,0,0,1,0,2.23,2.23,0,0,0,.21-1.17,2.25,2.25,0,0,0-.21-1.18.62.62,0,0,0-.51-.29.57.57,0,0,0-.49.26A2.3,2.3,0,0,0,10.72,23.75Z" transform="translate(0.01 -21.92)"/><path class="cls-3" d="M13.29,25.51V25h.5v.5Z" transform="translate(0.01 -21.92)"/><path class="cls-3" d="M14.43,23.75a3.54,3.54,0,0,1,.13-1,1.33,1.33,0,0,1,.39-.59,1,1,0,0,1,.65-.21,1.19,1.19,0,0,1,.51.11,1,1,0,0,1,.35.34,1.73,1.73,0,0,1,.23.53,3.76,3.76,0,0,1,.08.85,3.39,3.39,0,0,1-.13,1,1.31,1.31,0,0,1-.39.6,1,1,0,0,1-.65.21,1,1,0,0,1-.81-.37A2.32,2.32,0,0,1,14.43,23.75Zm.46,0a2.23,2.23,0,0,0,.2,1.17.59.59,0,0,0,1,0,2.23,2.23,0,0,0,.21-1.17,2.25,2.25,0,0,0-.21-1.18.62.62,0,0,0-.51-.29.57.57,0,0,0-.49.26A2.3,2.3,0,0,0,14.89,23.75Z" transform="translate(0.01 -21.92)"/><path class="cls-3" d="M17.24,141.38a3.52,3.52,0,0,1,.13-1,1.28,1.28,0,0,1,.39-.59,1.14,1.14,0,0,1,1.15-.1.9.9,0,0,1,.36.34,1.73,1.73,0,0,1,.23.53,3.72,3.72,0,0,1,.08.84,3.52,3.52,0,0,1-.13,1,1.31,1.31,0,0,1-.39.6,1,1,0,0,1-.65.21,1,1,0,0,1-.81-.37A2.33,2.33,0,0,1,17.24,141.38Zm.45,0a2.25,2.25,0,0,0,.21,1.18.59.59,0,0,0,1,0,2.27,2.27,0,0,0,.2-1.18,2.23,2.23,0,0,0-.2-1.17.63.63,0,0,0-.52-.29.56.56,0,0,0-.48.26A2.24,2.24,0,0,0,17.69,141.38Z" transform="translate(0.01 -21.92)"/><path class="cls-3" d="M46.09,142.73v.42H43.72a1.06,1.06,0,0,1,.05-.31,1.58,1.58,0,0,1,.29-.47,4.54,4.54,0,0,1,.58-.54,5.35,5.35,0,0,0,.79-.76,1,1,0,0,0,.2-.53.6.6,0,0,0-.18-.44.77.77,0,0,0-1,0,.7.7,0,0,0-.19.53l-.45,0a1.08,1.08,0,0,1,.35-.77,1.16,1.16,0,0,1,.81-.26,1.13,1.13,0,0,1,.81.28.94.94,0,0,1,.3.71A1.25,1.25,0,0,1,46,141a1.57,1.57,0,0,1-.3.44A7.63,7.63,0,0,1,45,142a5.24,5.24,0,0,0-.51.45,1.33,1.33,0,0,0-.19.24Z" transform="translate(0.01 -21.92)"/><path class="cls-3" d="M46.56,141.38a3.2,3.2,0,0,1,.13-1,1.28,1.28,0,0,1,.39-.59,1.14,1.14,0,0,1,1.15-.1.9.9,0,0,1,.36.34,1.51,1.51,0,0,1,.22.53,4.23,4.23,0,0,1-.05,1.86,1.22,1.22,0,0,1-.38.6,1.1,1.1,0,0,1-1.47-.16A2.41,2.41,0,0,1,46.56,141.38Zm.45,0a2.25,2.25,0,0,0,.21,1.18.59.59,0,0,0,1,0,2.38,2.38,0,0,0,.2-1.18,2.34,2.34,0,0,0-.2-1.17.63.63,0,0,0-.52-.29.56.56,0,0,0-.48.26A2.24,2.24,0,0,0,47,141.38Z" transform="translate(0.01 -21.92)"/><path class="cls-3" d="M49.34,141.38a3.2,3.2,0,0,1,.13-1,1.28,1.28,0,0,1,.39-.59,1.14,1.14,0,0,1,1.15-.1.9.9,0,0,1,.36.34,1.51,1.51,0,0,1,.22.53,3.22,3.22,0,0,1,.08.84,3.56,3.56,0,0,1-.12,1,1.31,1.31,0,0,1-.39.6,1.1,1.1,0,0,1-1.47-.16A2.41,2.41,0,0,1,49.34,141.38Zm.45,0a2.25,2.25,0,0,0,.21,1.18.59.59,0,0,0,1,0,2.38,2.38,0,0,0,.2-1.18,2.34,2.34,0,0,0-.2-1.17.63.63,0,0,0-.52-.29.56.56,0,0,0-.48.26A2.24,2.24,0,0,0,49.79,141.38Z" transform="translate(0.01 -21.92)"/><path class="cls-3" d="M52.12,141.38a3.2,3.2,0,0,1,.13-1,1.28,1.28,0,0,1,.39-.59,1.14,1.14,0,0,1,1.15-.1.9.9,0,0,1,.36.34,1.51,1.51,0,0,1,.22.53,3.16,3.16,0,0,1,.09.84,3.52,3.52,0,0,1-.13,1,1.31,1.31,0,0,1-.39.6,1,1,0,0,1-.65.21,1,1,0,0,1-.81-.37A2.33,2.33,0,0,1,52.12,141.38Zm.45,0a2.25,2.25,0,0,0,.21,1.18.59.59,0,0,0,1,0,2.38,2.38,0,0,0,.2-1.18,2.34,2.34,0,0,0-.2-1.17.63.63,0,0,0-.52-.29.56.56,0,0,0-.48.26A2.24,2.24,0,0,0,52.57,141.38Z" transform="translate(0.01 -21.92)"/><path class="cls-3" d="M75.9,143.15v-.86H74.34v-.4L76,139.57h.36v2.32h.48v.4h-.48v.86Zm0-1.26v-1.61l-1.12,1.61Z" transform="translate(0.01 -21.92)"/><path class="cls-3" d="M77.27,141.38a3.2,3.2,0,0,1,.13-1,1.28,1.28,0,0,1,.39-.59,1.14,1.14,0,0,1,1.15-.1.9.9,0,0,1,.36.34,1.73,1.73,0,0,1,.22.53,4.23,4.23,0,0,1,0,1.86,1.22,1.22,0,0,1-.38.6,1,1,0,0,1-.65.21,1,1,0,0,1-.82-.37A2.41,2.41,0,0,1,77.27,141.38Zm.45,0a2.25,2.25,0,0,0,.21,1.18.58.58,0,0,0,1,0,2.25,2.25,0,0,0,.21-1.18,2.2,2.2,0,0,0-.21-1.17.6.6,0,0,0-.51-.29.56.56,0,0,0-.48.26A2.24,2.24,0,0,0,77.72,141.38Z" transform="translate(0.01 -21.92)"/><path class="cls-3" d="M80.05,141.38a3.2,3.2,0,0,1,.13-1,1.28,1.28,0,0,1,.39-.59,1.14,1.14,0,0,1,1.15-.1.9.9,0,0,1,.36.34,1.73,1.73,0,0,1,.22.53,4.23,4.23,0,0,1,0,1.86,1.22,1.22,0,0,1-.38.6,1.1,1.1,0,0,1-1.47-.16A2.41,2.41,0,0,1,80.05,141.38Zm.45,0a2.25,2.25,0,0,0,.21,1.18.6.6,0,0,0,.51.29.62.62,0,0,0,.51-.29,2.38,2.38,0,0,0,.2-1.18,2.34,2.34,0,0,0-.2-1.17.63.63,0,0,0-.52-.29.56.56,0,0,0-.48.26A2.24,2.24,0,0,0,80.5,141.38Z" transform="translate(0.01 -21.92)"/><path class="cls-3" d="M82.83,141.38a3.2,3.2,0,0,1,.13-1,1.28,1.28,0,0,1,.39-.59,1.14,1.14,0,0,1,1.15-.1.9.9,0,0,1,.36.34,1.51,1.51,0,0,1,.22.53,4.23,4.23,0,0,1,0,1.86,1.22,1.22,0,0,1-.38.6,1.1,1.1,0,0,1-1.47-.16A2.41,2.41,0,0,1,82.83,141.38Zm.45,0a2.25,2.25,0,0,0,.21,1.18.59.59,0,0,0,1,0,2.38,2.38,0,0,0,.2-1.18,2.34,2.34,0,0,0-.2-1.17.63.63,0,0,0-.52-.29.56.56,0,0,0-.48.26A2.24,2.24,0,0,0,83.28,141.38Z" transform="translate(0.01 -21.92)"/><path class="cls-3" d="M107.48,140.45l-.44,0a.8.8,0,0,0-.17-.37.56.56,0,0,0-.44-.19.67.67,0,0,0-.37.11,1.11,1.11,0,0,0-.32.45,2.41,2.41,0,0,0-.13.82,1.11,1.11,0,0,1,.39-.36,1.13,1.13,0,0,1,.48-.11,1,1,0,0,1,.75.32,1.16,1.16,0,0,1,.31.84,1.32,1.32,0,0,1-.15.62,1,1,0,0,1-.4.45,1.08,1.08,0,0,1-.57.15,1.12,1.12,0,0,1-.9-.4,2.07,2.07,0,0,1-.34-1.34,2.33,2.33,0,0,1,.38-1.5,1.08,1.08,0,0,1,.9-.41,1,1,0,0,1,.69.23A1,1,0,0,1,107.48,140.45Zm-1.8,1.54a.91.91,0,0,0,.1.43.7.7,0,0,0,.63.43.62.62,0,0,0,.48-.23.9.9,0,0,0,.2-.61.83.83,0,0,0-.2-.58.66.66,0,0,0-.5-.21.69.69,0,0,0-.5.21A.76.76,0,0,0,105.68,142Z" transform="translate(0.01 -21.92)"/><path class="cls-3" d="M108,141.38a3.2,3.2,0,0,1,.13-1,1.19,1.19,0,0,1,.38-.59,1,1,0,0,1,.65-.21.95.95,0,0,1,.87.45,1.73,1.73,0,0,1,.22.53,3.72,3.72,0,0,1,.08.84,3.2,3.2,0,0,1-.13,1,1.23,1.23,0,0,1-.39.6,1.09,1.09,0,0,1-1.46-.16A2.34,2.34,0,0,1,108,141.38Zm.45,0a2.38,2.38,0,0,0,.2,1.18.59.59,0,0,0,1,0,2.25,2.25,0,0,0,.21-1.18,2.2,2.2,0,0,0-.21-1.17.62.62,0,0,0-.51-.29.59.59,0,0,0-.49.26A2.26,2.26,0,0,0,108.43,141.38Z" transform="translate(0.01 -21.92)"/><path class="cls-3" d="M110.76,141.38a3.2,3.2,0,0,1,.13-1,1.14,1.14,0,0,1,.39-.59,1,1,0,0,1,.64-.21,1,1,0,0,1,.51.11,1.06,1.06,0,0,1,.36.34,1.73,1.73,0,0,1,.22.53,3.72,3.72,0,0,1,.08.84,3.2,3.2,0,0,1-.13,1,1.23,1.23,0,0,1-.39.6,1.09,1.09,0,0,1-1.46-.16A2.34,2.34,0,0,1,110.76,141.38Zm.45,0a2.38,2.38,0,0,0,.2,1.18.62.62,0,0,0,.51.29.6.6,0,0,0,.51-.29,2.25,2.25,0,0,0,.21-1.18,2.2,2.2,0,0,0-.21-1.17.61.61,0,0,0-.51-.29.56.56,0,0,0-.48.26A2.15,2.15,0,0,0,111.21,141.38Z" transform="translate(0.01 -21.92)"/><path class="cls-3" d="M113.54,141.38a3.2,3.2,0,0,1,.13-1,1.2,1.2,0,0,1,.39-.59,1,1,0,0,1,.64-.21,1,1,0,0,1,.51.11,1.06,1.06,0,0,1,.36.34,1.73,1.73,0,0,1,.22.53,3.72,3.72,0,0,1,.08.84,3.2,3.2,0,0,1-.13,1,1.22,1.22,0,0,1-.38.6,1,1,0,0,1-.66.21,1,1,0,0,1-.81-.37A2.41,2.41,0,0,1,113.54,141.38Zm.45,0a2.25,2.25,0,0,0,.21,1.18.58.58,0,0,0,1,0,2.25,2.25,0,0,0,.21-1.18,2.2,2.2,0,0,0-.21-1.17.61.61,0,0,0-.51-.29.56.56,0,0,0-.48.26A2.15,2.15,0,0,0,114,141.38Z" transform="translate(0.01 -21.92)"/><line class="cls-4" x1="48.2" y1="2.18" x2="48.2" y2="115.56"/><line class="cls-4" x1="77.97" y1="2.18" x2="77.97" y2="115.56"/><polyline class="繝医Ν繧ｯ繧ｰ繝ｩ繝廟繧ｰ繝ｬ繝ｼ邱" points="18.44 91.49 25.86 91.49 33.31 91.49 48.17 91.49 63.05 91.49 77.9 97.48 92.78 101.07 107.63 103.48"/><polyline class="繝医Ν繧ｯ繧ｰ繝ｩ繝廟繧ｰ繝ｬ繝ｼ邱" points="18.45 19.34 57.09 19.34 108.66 73.1"/><rect class="繝後Μ_逋ｽ" x="107.73" y="2.18" width="2.83" height="113.39"/><rect class="邱喟0.5pt-2" x="18.44" y="2.18" width="89.29" height="113.39"/></g><g id="English"><rect class="繝後Μ_逋ｽ" x="19.43" y="39.74" width="47.91" height="16.58"/><path class="cls-3" d="M21.92,66.52l.58,0a1.37,1.37,0,0,0,.19.58,1.2,1.2,0,0,0,.47.36,1.8,1.8,0,0,0,.71.13,1.74,1.74,0,0,0,.63-.1.89.89,0,0,0,.4-.29.64.64,0,0,0,.13-.4.58.58,0,0,0-.13-.38.85.85,0,0,0-.42-.27,6.63,6.63,0,0,0-.83-.23,4.15,4.15,0,0,1-.89-.29,1.34,1.34,0,0,1-.5-.43,1.08,1.08,0,0,1-.16-.58,1.12,1.12,0,0,1,.2-.66,1.24,1.24,0,0,1,.58-.47,2.34,2.34,0,0,1,.85-.15,2.4,2.4,0,0,1,.92.16,1.33,1.33,0,0,1,.6.49,1.35,1.35,0,0,1,.23.74l-.59,0a1,1,0,0,0-.32-.67,1.24,1.24,0,0,0-.81-.22A1.34,1.34,0,0,0,23,64a.63.63,0,0,0-.26.5.54.54,0,0,0,.18.41,2.39,2.39,0,0,0,.93.33,5.44,5.44,0,0,1,1,.3,1.39,1.39,0,0,1,.6.47,1.14,1.14,0,0,1,.19.66,1.27,1.27,0,0,1-.21.7,1.34,1.34,0,0,1-.61.51,2,2,0,0,1-.9.19,2.58,2.58,0,0,1-1.06-.19,1.5,1.5,0,0,1-.67-.55A1.62,1.62,0,0,1,21.92,66.52Z" transform="translate(0.01 -21.92)"/><path class="cls-3" d="M26.39,68V63.36H27V65a1.39,1.39,0,0,1,1.66-.31.84.84,0,0,1,.4.41,1.83,1.83,0,0,1,.12.75V68h-.57V65.88a.9.9,0,0,0-.19-.62.69.69,0,0,0-.53-.2,1,1,0,0,0-.47.13.74.74,0,0,0-.32.36,1.51,1.51,0,0,0-.1.62V68Z" transform="translate(0.01 -21.92)"/><path class="cls-3" d="M29.79,66.33A1.75,1.75,0,0,1,30.31,65a1.58,1.58,0,0,1,1.06-.38,1.48,1.48,0,0,1,1.14.46A1.73,1.73,0,0,1,33,66.28a2.25,2.25,0,0,1-.19,1,1.39,1.39,0,0,1-.57.58,1.63,1.63,0,0,1-.82.2,1.51,1.51,0,0,1-1.14-.45A1.82,1.82,0,0,1,29.79,66.33Zm.59,0a1.42,1.42,0,0,0,.28,1,.9.9,0,0,0,.71.32.88.88,0,0,0,.71-.32,1.46,1.46,0,0,0,.28-1,1.37,1.37,0,0,0-.28-.94.89.89,0,0,0-.71-.33.93.93,0,0,0-.71.32A1.44,1.44,0,0,0,30.38,66.33Z" transform="translate(0.01 -21.92)"/><path class="cls-3" d="M33.61,68V64.65h.52v.51a1.31,1.31,0,0,1,.36-.47.63.63,0,0,1,.37-.12,1.15,1.15,0,0,1,.59.18l-.2.53a.84.84,0,0,0-.42-.12.58.58,0,0,0-.34.11.6.6,0,0,0-.21.32,2.29,2.29,0,0,0-.09.66V68Z" transform="translate(0.01 -21.92)"/><path class="cls-3" d="M37,67.51l.09.5a2.58,2.58,0,0,1-.44,0,1,1,0,0,1-.48-.1.58.58,0,0,1-.24-.25,2,2,0,0,1-.07-.68V65.09h-.42v-.44h.42v-.84l.57-.34v1.18H37v.44h-.57v2a1,1,0,0,0,0,.32.26.26,0,0,0,.1.11.45.45,0,0,0,.19,0Z" transform="translate(0.01 -21.92)"/><path class="cls-3" d="M37.37,66.62v-.57h1.75v.57Z" transform="translate(0.01 -21.92)"/><path class="cls-3" d="M41.94,68v-.43a1,1,0,0,1-.94.5,1.29,1.29,0,0,1-.74-.22,1.47,1.47,0,0,1-.53-.62,2.17,2.17,0,0,1-.18-.91,2.43,2.43,0,0,1,.17-.92,1.37,1.37,0,0,1,.5-.63,1.35,1.35,0,0,1,.76-.22,1.08,1.08,0,0,1,.54.13,1.12,1.12,0,0,1,.38.33V63.36h.57V68Zm-1.8-1.68a1.45,1.45,0,0,0,.27,1,.8.8,0,0,0,.64.32.81.81,0,0,0,.64-.3,1.41,1.41,0,0,0,.26-.94,1.61,1.61,0,0,0-.26-1A.82.82,0,0,0,41,65a.81.81,0,0,0-.64.31A1.57,1.57,0,0,0,40.14,66.34Z" transform="translate(0.01 -21.92)"/><path class="cls-3" d="M45.58,68v-.5a1.23,1.23,0,0,1-1.07.57A1.33,1.33,0,0,1,44,68a.89.89,0,0,1-.38-.29,1.16,1.16,0,0,1-.18-.42,3.33,3.33,0,0,1,0-.53V64.65h.57v1.87a3.86,3.86,0,0,0,0,.6.62.62,0,0,0,.23.35.7.7,0,0,0,.44.13.91.91,0,0,0,.48-.13.79.79,0,0,0,.32-.36,1.86,1.86,0,0,0,.09-.66v-1.8h.57V68Z" transform="translate(0.01 -21.92)"/><path class="cls-3" d="M47,68V64.65h.51v.51a1.31,1.31,0,0,1,.37-.47.6.6,0,0,1,.36-.12,1.12,1.12,0,0,1,.59.18l-.2.53a.84.84,0,0,0-.42-.12.57.57,0,0,0-.33.11.6.6,0,0,0-.21.32,2,2,0,0,0-.1.66V68Z" transform="translate(0.01 -21.92)"/><path class="cls-3" d="M51.35,67.6a2.08,2.08,0,0,1-.61.38,1.67,1.67,0,0,1-.63.11,1.25,1.25,0,0,1-.86-.27.91.91,0,0,1-.29-.69.84.84,0,0,1,.11-.45.85.85,0,0,1,.29-.33,1.46,1.46,0,0,1,.42-.19,3.06,3.06,0,0,1,.5-.08,6,6,0,0,0,1-.2c0-.08,0-.13,0-.15a.62.62,0,0,0-.17-.49.94.94,0,0,0-.65-.2,1,1,0,0,0-.59.15.89.89,0,0,0-.29.49l-.55-.07a1.34,1.34,0,0,1,.25-.58,1,1,0,0,1,.5-.34,2.26,2.26,0,0,1,.77-.12,2,2,0,0,1,.7.1.92.92,0,0,1,.39.26.79.79,0,0,1,.18.39,2.94,2.94,0,0,1,0,.52v.77a6.72,6.72,0,0,0,0,1,1.25,1.25,0,0,0,.14.41h-.6A1.61,1.61,0,0,1,51.35,67.6Zm-.05-1.27a4.67,4.67,0,0,1-.93.21,2,2,0,0,0-.5.12.44.44,0,0,0-.22.18.43.43,0,0,0-.08.27.46.46,0,0,0,.17.38.69.69,0,0,0,.51.16,1.11,1.11,0,0,0,.58-.15.89.89,0,0,0,.38-.39,1.41,1.41,0,0,0,.09-.57Z" transform="translate(0.01 -21.92)"/><path class="cls-3" d="M54,67.51l.09.5a2.58,2.58,0,0,1-.44,0,1,1,0,0,1-.48-.1.58.58,0,0,1-.24-.25,2,2,0,0,1-.07-.68V65.09h-.42v-.44h.42v-.84l.57-.34v1.18H54v.44h-.57v2a1,1,0,0,0,0,.32.26.26,0,0,0,.1.11.45.45,0,0,0,.19,0Z" transform="translate(0.01 -21.92)"/><path class="cls-3" d="M54.57,64v-.66h.58V64Zm0,4V64.65h.58V68Z" transform="translate(0.01 -21.92)"/><path class="cls-3" d="M55.8,66.33A1.75,1.75,0,0,1,56.32,65a1.58,1.58,0,0,1,1.06-.38,1.48,1.48,0,0,1,1.14.46A1.73,1.73,0,0,1,59,66.28a2.25,2.25,0,0,1-.19,1,1.39,1.39,0,0,1-.57.58,1.63,1.63,0,0,1-.82.2,1.51,1.51,0,0,1-1.14-.45A1.82,1.82,0,0,1,55.8,66.33Zm.59,0a1.42,1.42,0,0,0,.28,1,.9.9,0,0,0,.71.32.88.88,0,0,0,.71-.32,1.46,1.46,0,0,0,.28-1,1.37,1.37,0,0,0-.28-.94.91.91,0,0,0-.71-.33.93.93,0,0,0-.71.32A1.44,1.44,0,0,0,56.39,66.33Z" transform="translate(0.01 -21.92)"/><path class="cls-3" d="M59.63,68V64.65h.52v.48a1.2,1.2,0,0,1,1.07-.56,1.47,1.47,0,0,1,.56.11.82.82,0,0,1,.38.29,1.33,1.33,0,0,1,.18.42,3.51,3.51,0,0,1,0,.56V68H61.8V66a1.34,1.34,0,0,0-.07-.52.5.5,0,0,0-.24-.28.71.71,0,0,0-.39-.1.88.88,0,0,0-.63.23,1.13,1.13,0,0,0-.27.88V68Z" transform="translate(0.01 -21.92)"/><path class="cls-3" d="M22.05,75.82V72.45h.51V73a1.43,1.43,0,0,1,.37-.47.6.6,0,0,1,.36-.12,1.12,1.12,0,0,1,.59.18l-.2.53a.83.83,0,0,0-.41-.12.58.58,0,0,0-.34.11.6.6,0,0,0-.21.32,2,2,0,0,0-.1.66v1.77Z" transform="translate(0.01 -21.92)"/><path class="cls-3" d="M26.43,75.82v-.5a1.23,1.23,0,0,1-1.07.57,1.33,1.33,0,0,1-.56-.11.89.89,0,0,1-.38-.29,1.16,1.16,0,0,1-.18-.42,3.33,3.33,0,0,1,0-.53V72.45h.57v1.87a3.86,3.86,0,0,0,0,.6.62.62,0,0,0,.23.35.69.69,0,0,0,.43.13.92.92,0,0,0,.49-.13.79.79,0,0,0,.32-.36,1.86,1.86,0,0,0,.09-.66v-1.8h.57v3.37Z" transform="translate(0.01 -21.92)"/><path class="cls-3" d="M27.84,75.82V72.45h.51v.48a1.21,1.21,0,0,1,1.07-.56,1.43,1.43,0,0,1,.56.11.82.82,0,0,1,.38.29,1,1,0,0,1,.18.42,3.51,3.51,0,0,1,0,.56v2.07H30v-2a1.63,1.63,0,0,0-.06-.52A.6.6,0,0,0,29.7,73a.74.74,0,0,0-.4-.1.91.91,0,0,0-.63.23,1.13,1.13,0,0,0-.26.88v1.84Z" transform="translate(0.01 -21.92)"/><path class="cls-3" d="M31.45,75.82V72.45H32v.48A1.23,1.23,0,0,1,33,72.37a1.47,1.47,0,0,1,.56.11.88.88,0,0,1,.38.29,1.33,1.33,0,0,1,.18.42,3.51,3.51,0,0,1,0,.56v2.07h-.57v-2a1.34,1.34,0,0,0-.07-.52.5.5,0,0,0-.24-.28.71.71,0,0,0-.39-.1.88.88,0,0,0-.63.23A1.13,1.13,0,0,0,32,74v1.84Z" transform="translate(0.01 -21.92)"/><path class="cls-3" d="M35.07,71.82v-.66h.57v.66Zm0,4V72.45h.57v3.37Z" transform="translate(0.01 -21.92)"/><path class="cls-3" d="M36.51,75.82V72.45H37v.48a1.23,1.23,0,0,1,1.08-.56,1.47,1.47,0,0,1,.56.11.88.88,0,0,1,.38.29,1.33,1.33,0,0,1,.18.42,3.51,3.51,0,0,1,0,.56v2.07h-.57v-2a1.57,1.57,0,0,0-.07-.52.5.5,0,0,0-.24-.28.71.71,0,0,0-.39-.1.88.88,0,0,0-.63.23,1.13,1.13,0,0,0-.27.88v1.84Z" transform="translate(0.01 -21.92)"/><path class="cls-3" d="M40,76.1l.56.08a.48.48,0,0,0,.19.37.91.91,0,0,0,.58.16,1,1,0,0,0,.61-.16.72.72,0,0,0,.29-.44,3.56,3.56,0,0,0,0-.73,1.2,1.2,0,0,1-.94.44,1.27,1.27,0,0,1-1.07-.5,1.93,1.93,0,0,1-.39-1.21,2.18,2.18,0,0,1,.18-.89,1.39,1.39,0,0,1,.51-.63,1.42,1.42,0,0,1,.77-.22,1.22,1.22,0,0,1,1,.48v-.4h.53v2.91a2.9,2.9,0,0,1-.16,1.12,1.27,1.27,0,0,1-.51.52,1.85,1.85,0,0,1-.86.19,1.62,1.62,0,0,1-1-.28A.9.9,0,0,1,40,76.1Zm.47-2a1.44,1.44,0,0,0,.27,1,.83.83,0,0,0,.66.3.85.85,0,0,0,.66-.3,1.46,1.46,0,0,0,.26-1,1.39,1.39,0,0,0-.27-.93.86.86,0,0,0-.66-.32.84.84,0,0,0-.65.31A1.38,1.38,0,0,0,40.49,74.07Z" transform="translate(0.01 -21.92)"/><path class="cls-3" d="M45.54,75.82V72.45h.51V73a1.21,1.21,0,0,1,.37-.47.6.6,0,0,1,.36-.12,1.15,1.15,0,0,1,.59.18l-.2.53a.84.84,0,0,0-.42-.12.57.57,0,0,0-.33.11.6.6,0,0,0-.21.32,2,2,0,0,0-.1.66v1.77Z" transform="translate(0.01 -21.92)"/><path class="cls-3" d="M49.91,75.4a2.08,2.08,0,0,1-.61.38,1.67,1.67,0,0,1-.63.11,1.25,1.25,0,0,1-.86-.27.91.91,0,0,1-.29-.69.84.84,0,0,1,.11-.45.85.85,0,0,1,.29-.33,1.53,1.53,0,0,1,.41-.19,3.44,3.44,0,0,1,.51-.08,6.26,6.26,0,0,0,1-.2v-.15A.61.61,0,0,0,49.7,73,1.19,1.19,0,0,0,48.46,73a.84.84,0,0,0-.29.49l-.56-.07a1.64,1.64,0,0,1,.25-.58,1.12,1.12,0,0,1,.51-.34,2.2,2.2,0,0,1,.76-.12,2,2,0,0,1,.71.1.92.92,0,0,1,.39.26.79.79,0,0,1,.18.39,2.94,2.94,0,0,1,0,.52v.77a6.72,6.72,0,0,0,0,1,1.25,1.25,0,0,0,.14.41H50A1.29,1.29,0,0,1,49.91,75.4Zm0-1.27a4.67,4.67,0,0,1-.93.21,2,2,0,0,0-.5.12.44.44,0,0,0-.22.18.43.43,0,0,0-.08.27.46.46,0,0,0,.17.38.68.68,0,0,0,.5.16,1.13,1.13,0,0,0,.59-.15.89.89,0,0,0,.38-.39,1.41,1.41,0,0,0,.09-.57Z" transform="translate(0.01 -21.92)"/><path class="cls-3" d="M51.32,75.82V72.45h.52v.48a1.21,1.21,0,0,1,1.07-.56,1.47,1.47,0,0,1,.56.11.82.82,0,0,1,.38.29,1,1,0,0,1,.18.42,3.51,3.51,0,0,1,0,.56v2.07h-.57v-2a1.63,1.63,0,0,0-.06-.52.6.6,0,0,0-.24-.28.74.74,0,0,0-.4-.1.91.91,0,0,0-.63.23,1.13,1.13,0,0,0-.26.88v1.84Z" transform="translate(0.01 -21.92)"/><path class="cls-3" d="M54.83,76.1l.56.08a.51.51,0,0,0,.19.37,1,1,0,0,0,.59.16,1,1,0,0,0,.61-.16.76.76,0,0,0,.29-.44,3.83,3.83,0,0,0,0-.73,1.18,1.18,0,0,1-.93.44,1.29,1.29,0,0,1-1.08-.5,2,2,0,0,1-.38-1.21,2.18,2.18,0,0,1,.18-.89,1.37,1.37,0,0,1,.5-.63,1.43,1.43,0,0,1,.78-.22,1.19,1.19,0,0,1,1,.48v-.4h.53v2.91a2.72,2.72,0,0,1-.16,1.12A1.27,1.27,0,0,1,57,77a1.81,1.81,0,0,1-.85.19,1.65,1.65,0,0,1-1-.28A1,1,0,0,1,54.83,76.1Zm.48-2a1.5,1.5,0,0,0,.26,1,.88.88,0,0,0,1.32,0,1.4,1.4,0,0,0,.27-1,1.34,1.34,0,0,0-.28-.93.84.84,0,0,0-.66-.32.86.86,0,0,0-.65.31A1.44,1.44,0,0,0,55.31,74.07Z" transform="translate(0.01 -21.92)"/><path class="cls-3" d="M60.86,74.73l.59.08a1.39,1.39,0,0,1-.52.8,1.76,1.76,0,0,1-2.13-.17,1.79,1.79,0,0,1-.44-1.28,1.86,1.86,0,0,1,.44-1.32,1.49,1.49,0,0,1,1.14-.47,1.41,1.41,0,0,1,1.1.46,1.82,1.82,0,0,1,.43,1.3v.15H59a1.34,1.34,0,0,0,.32.85.91.91,0,0,0,.7.29.89.89,0,0,0,.54-.16A1.12,1.12,0,0,0,60.86,74.73ZM59,73.81h1.88a1.15,1.15,0,0,0-.22-.64.86.86,0,0,0-.71-.33.93.93,0,0,0-.66.26A1,1,0,0,0,59,73.81Z" transform="translate(0.01 -21.92)"/><rect class="繝後Μ_逋ｽ" x="20.17" y="96.64" width="41.46" height="16.58"/><path class="cls-3" d="M25.55,123.29l.61.16a2,2,0,0,1-.69,1.15,1.91,1.91,0,0,1-1.23.4,2.29,2.29,0,0,1-1.23-.3,1.92,1.92,0,0,1-.71-.89,3.07,3.07,0,0,1-.25-1.25,2.7,2.7,0,0,1,.28-1.27,1.9,1.9,0,0,1,.79-.82,2.28,2.28,0,0,1,1.13-.28,1.89,1.89,0,0,1,1.17.36,1.78,1.78,0,0,1,.66,1l-.6.14A1.46,1.46,0,0,0,25,121a1.23,1.23,0,0,0-.78-.23,1.51,1.51,0,0,0-.89.25,1.46,1.46,0,0,0-.51.69,3.09,3.09,0,0,0,0,1.93,1.25,1.25,0,0,0,.54.67,1.53,1.53,0,0,0,.79.21,1.31,1.31,0,0,0,.87-.29A1.58,1.58,0,0,0,25.55,123.29Z" transform="translate(0.01 -21.92)"/><path class="cls-3" d="M26.64,123.24a1.73,1.73,0,0,1,.52-1.39,1.56,1.56,0,0,1,1.06-.37,1.51,1.51,0,0,1,1.13.45,1.7,1.7,0,0,1,.44,1.26,2.24,2.24,0,0,1-.19,1,1.39,1.39,0,0,1-.57.58,1.63,1.63,0,0,1-.81.21,1.51,1.51,0,0,1-1.15-.46A1.79,1.79,0,0,1,26.64,123.24Zm.58,0a1.44,1.44,0,0,0,.29,1,.9.9,0,0,0,.71.32.93.93,0,0,0,.71-.32,1.54,1.54,0,0,0,.28-1,1.4,1.4,0,0,0-.29-1,.91.91,0,0,0-.7-.32.87.87,0,0,0-.71.32A1.41,1.41,0,0,0,27.22,123.24Z" transform="translate(0.01 -21.92)"/><path class="cls-3" d="M30.46,124.92v-3.37H31V122a1.2,1.2,0,0,1,1.07-.55,1.47,1.47,0,0,1,.56.1.89.89,0,0,1,.38.29,1,1,0,0,1,.18.42,3.6,3.6,0,0,1,0,.56v2.07h-.57v-2a1.67,1.67,0,0,0-.06-.52.6.6,0,0,0-.24-.28.85.85,0,0,0-.4-.1,1,1,0,0,0-.63.23,1.14,1.14,0,0,0-.26.88v1.84Z" transform="translate(0.01 -21.92)"/><path class="cls-3" d="M35.33,124.41l.08.51a2.47,2.47,0,0,1-.43,0,1,1,0,0,1-.48-.1.57.57,0,0,1-.25-.26,2.27,2.27,0,0,1-.07-.68V122h-.41v-.45h.41v-.83l.57-.35v1.18h.58V122h-.58v2a1,1,0,0,0,0,.31.22.22,0,0,0,.1.11.37.37,0,0,0,.2,0A1.29,1.29,0,0,0,35.33,124.41Z" transform="translate(0.01 -21.92)"/><path class="cls-3" d="M35.89,120.93v-.66h.57v.66Zm0,4v-3.37h.57v3.37Z" transform="translate(0.01 -21.92)"/><path class="cls-3" d="M37.33,124.92v-3.37h.51V122a1.22,1.22,0,0,1,1.08-.55,1.47,1.47,0,0,1,.56.1,1,1,0,0,1,.38.29,1.33,1.33,0,0,1,.18.42,3.6,3.6,0,0,1,0,.56v2.07H39.5v-2a1.62,1.62,0,0,0-.07-.52.5.5,0,0,0-.24-.28.81.81,0,0,0-.39-.1.92.92,0,0,0-.63.23,1.14,1.14,0,0,0-.27.88v1.84Z" transform="translate(0.01 -21.92)"/><path class="cls-3" d="M43.15,124.92v-.49a1.23,1.23,0,0,1-1.07.57,1.3,1.3,0,0,1-.55-.12.91.91,0,0,1-.39-.28,1.11,1.11,0,0,1-.17-.43,2.3,2.3,0,0,1,0-.53v-2.09h.57v1.87a2.63,2.63,0,0,0,0,.6.58.58,0,0,0,.23.36.73.73,0,0,0,.43.13,1,1,0,0,0,.48-.13A.74.74,0,0,0,43,124a1.86,1.86,0,0,0,.09-.66v-1.81h.57v3.37Z" transform="translate(0.01 -21.92)"/><path class="cls-3" d="M44.35,123.24a1.73,1.73,0,0,1,.52-1.39,1.56,1.56,0,0,1,1.06-.37,1.51,1.51,0,0,1,1.13.45,1.7,1.7,0,0,1,.44,1.26,2.24,2.24,0,0,1-.19,1,1.39,1.39,0,0,1-.57.58,1.63,1.63,0,0,1-.81.21,1.51,1.51,0,0,1-1.15-.46A1.79,1.79,0,0,1,44.35,123.24Zm.58,0a1.44,1.44,0,0,0,.29,1,.9.9,0,0,0,.71.32.93.93,0,0,0,.71-.32,1.54,1.54,0,0,0,.28-1,1.4,1.4,0,0,0-.29-1,.91.91,0,0,0-.7-.32.87.87,0,0,0-.71.32A1.41,1.41,0,0,0,44.93,123.24Z" transform="translate(0.01 -21.92)"/><path class="cls-3" d="M50.38,124.92v-.49a1.23,1.23,0,0,1-1.07.57,1.3,1.3,0,0,1-.55-.12.91.91,0,0,1-.39-.28,1.11,1.11,0,0,1-.17-.43,2.3,2.3,0,0,1,0-.53v-2.09h.57v1.87a2.63,2.63,0,0,0,0,.6.58.58,0,0,0,.23.36.73.73,0,0,0,.43.13,1,1,0,0,0,.48-.13.74.74,0,0,0,.32-.36,1.86,1.86,0,0,0,.09-.66v-1.81h.57v3.37Z" transform="translate(0.01 -21.92)"/><path class="cls-3" d="M51.56,123.92l.57-.09a.81.81,0,0,0,.26.52.94.94,0,0,0,.61.18.86.86,0,0,0,.58-.16.47.47,0,0,0,.19-.38.32.32,0,0,0-.17-.3,2.32,2.32,0,0,0-.58-.2,4.57,4.57,0,0,1-.87-.27.83.83,0,0,1-.37-.32.89.89,0,0,1-.12-.45.89.89,0,0,1,.38-.74,1.21,1.21,0,0,1,.36-.17,2,2,0,0,1,.5-.06,1.85,1.85,0,0,1,.69.11,1,1,0,0,1,.45.31,1.18,1.18,0,0,1,.19.52l-.56.08a.56.56,0,0,0-.22-.41.77.77,0,0,0-.51-.14,1,1,0,0,0-.56.12.37.37,0,0,0-.17.31.31.31,0,0,0,.07.2.47.47,0,0,0,.22.15l.5.15a7.22,7.22,0,0,1,.85.26.82.82,0,0,1,.51.79,1,1,0,0,1-.17.54,1,1,0,0,1-.48.39A1.76,1.76,0,0,1,53,125a1.59,1.59,0,0,1-1-.27A1.29,1.29,0,0,1,51.56,123.92Z" transform="translate(0.01 -21.92)"/><path class="cls-3" d="M22.15,132.72v-3.37h.51v.51a1.41,1.41,0,0,1,.37-.47.59.59,0,0,1,.36-.11,1.12,1.12,0,0,1,.59.18l-.2.53a.84.84,0,0,0-.42-.12A.51.51,0,0,0,23,130a.58.58,0,0,0-.21.31,2,2,0,0,0-.1.67v1.76Z" transform="translate(0.01 -21.92)"/><path class="cls-3" d="M26.53,132.72v-.49a1.23,1.23,0,0,1-1.07.57,1.31,1.31,0,0,1-.56-.12.88.88,0,0,1-.38-.28,1.12,1.12,0,0,1-.18-.43,3.33,3.33,0,0,1,0-.53v-2.09h.57v1.87a3.77,3.77,0,0,0,0,.6.68.68,0,0,0,.23.36.75.75,0,0,0,.43.13,1.05,1.05,0,0,0,.49-.13.72.72,0,0,0,.31-.36,1.63,1.63,0,0,0,.1-.66v-1.81H27v3.37Z" transform="translate(0.01 -21.92)"/><path class="cls-3" d="M27.93,132.72v-3.37h.52v.48a1.2,1.2,0,0,1,1.07-.55,1.47,1.47,0,0,1,.56.1.89.89,0,0,1,.38.29,1,1,0,0,1,.18.42,3.6,3.6,0,0,1,0,.56v2.07H30.1v-2.05a1.67,1.67,0,0,0-.06-.52.6.6,0,0,0-.24-.28.85.85,0,0,0-.4-.1,1,1,0,0,0-.63.23,1.14,1.14,0,0,0-.26.88v1.84Z" transform="translate(0.01 -21.92)"/><path class="cls-3" d="M31.55,132.72v-3.37h.51v.48a1.22,1.22,0,0,1,1.08-.55,1.47,1.47,0,0,1,.56.1,1,1,0,0,1,.38.29,1.33,1.33,0,0,1,.18.42,3.6,3.6,0,0,1,0,.56v2.07h-.57v-2.05a1.38,1.38,0,0,0-.07-.52.5.5,0,0,0-.24-.28.81.81,0,0,0-.39-.1.92.92,0,0,0-.63.23,1.14,1.14,0,0,0-.27.88v1.84Z" transform="translate(0.01 -21.92)"/><path class="cls-3" d="M35.17,128.73v-.66h.57v.66Zm0,4v-3.37h.57v3.37Z" transform="translate(0.01 -21.92)"/><path class="cls-3" d="M36.61,132.72v-3.37h.51v.48a1.22,1.22,0,0,1,1.08-.55,1.47,1.47,0,0,1,.56.1,1,1,0,0,1,.38.29,1.33,1.33,0,0,1,.18.42,3.6,3.6,0,0,1,0,.56v2.07h-.57v-2.05a1.62,1.62,0,0,0-.07-.52.5.5,0,0,0-.24-.28.81.81,0,0,0-.39-.1,1,1,0,0,0-.64.23,1.18,1.18,0,0,0-.26.88v1.84Z" transform="translate(0.01 -21.92)"/><path class="cls-3" d="M40.12,133l.55.08a.54.54,0,0,0,.2.38,1,1,0,0,0,.58.16,1.05,1.05,0,0,0,.61-.16.77.77,0,0,0,.29-.45,3.07,3.07,0,0,0,0-.73,1.14,1.14,0,0,1-.93.44,1.27,1.27,0,0,1-1.07-.5A1.88,1.88,0,0,1,40,131a2.18,2.18,0,0,1,.18-.89,1.39,1.39,0,0,1,.51-.63,1.34,1.34,0,0,1,.77-.22,1.22,1.22,0,0,1,1,.48v-.41H43v2.92a2.88,2.88,0,0,1-.16,1.11,1.22,1.22,0,0,1-.51.52,1.74,1.74,0,0,1-.86.19,1.61,1.61,0,0,1-1-.27A.92.92,0,0,1,40.12,133Zm.47-2a1.41,1.41,0,0,0,.27,1,.81.81,0,0,0,.66.31.85.85,0,0,0,.66-.3,1.48,1.48,0,0,0,.26-.95,1.41,1.41,0,0,0-.27-.94.86.86,0,0,0-.66-.31.81.81,0,0,0-.65.31A1.35,1.35,0,0,0,40.59,131Z" transform="translate(0.01 -21.92)"/><path class="cls-3" d="M45.64,132.72v-3.37h.51v.51a1.29,1.29,0,0,1,.37-.47.59.59,0,0,1,.36-.11,1.15,1.15,0,0,1,.59.18l-.2.53a.84.84,0,0,0-.42-.12.51.51,0,0,0-.33.11.65.65,0,0,0-.22.31,2.36,2.36,0,0,0-.09.67v1.76Z" transform="translate(0.01 -21.92)"/><path class="cls-3" d="M50,132.31a2.32,2.32,0,0,1-.61.38,1.9,1.9,0,0,1-.63.11,1.25,1.25,0,0,1-.86-.27.93.93,0,0,1-.29-.7.88.88,0,0,1,.11-.45.92.92,0,0,1,.29-.33,1.5,1.5,0,0,1,.41-.18l.51-.09a5.33,5.33,0,0,0,1-.2v-.15a.63.63,0,0,0-.16-.49.94.94,0,0,0-.65-.19,1,1,0,0,0-.59.14.83.83,0,0,0-.29.5l-.56-.08a1.48,1.48,0,0,1,.25-.58,1.11,1.11,0,0,1,.51-.33,2.2,2.2,0,0,1,.76-.12,2,2,0,0,1,.71.1.8.8,0,0,1,.57.64,3.08,3.08,0,0,1,0,.53v.76a6.89,6.89,0,0,0,0,1,1.19,1.19,0,0,0,.14.4h-.6A1.3,1.3,0,0,1,50,132.31ZM50,131a4,4,0,0,1-.93.22,2.12,2.12,0,0,0-.5.11.48.48,0,0,0-.23.19.5.5,0,0,0-.07.27.47.47,0,0,0,.17.38.73.73,0,0,0,.5.15,1.25,1.25,0,0,0,.59-.14.92.92,0,0,0,.38-.4,1.41,1.41,0,0,0,.09-.57Z" transform="translate(0.01 -21.92)"/><path class="cls-3" d="M51.42,132.72v-3.37h.52v.48a1.2,1.2,0,0,1,1.07-.55,1.47,1.47,0,0,1,.56.1.89.89,0,0,1,.38.29,1,1,0,0,1,.18.42,3.6,3.6,0,0,1,0,.56v2.07h-.57v-2.05a1.67,1.67,0,0,0-.06-.52.6.6,0,0,0-.24-.28.85.85,0,0,0-.4-.1,1,1,0,0,0-.63.23,1.14,1.14,0,0,0-.26.88v1.84Z" transform="translate(0.01 -21.92)"/><path class="cls-3" d="M54.93,133l.56.08a.53.53,0,0,0,.19.38,1,1,0,0,0,.58.16,1.09,1.09,0,0,0,.62-.16.82.82,0,0,0,.29-.45,3.76,3.76,0,0,0,0-.73,1.15,1.15,0,0,1-.93.44,1.29,1.29,0,0,1-1.08-.5,1.93,1.93,0,0,1-.38-1.2,2.35,2.35,0,0,1,.17-.89,1.46,1.46,0,0,1,.51-.63,1.35,1.35,0,0,1,.78-.22,1.19,1.19,0,0,1,1,.48v-.41h.53v2.92a2.7,2.7,0,0,1-.16,1.11,1.22,1.22,0,0,1-.51.52,1.7,1.7,0,0,1-.85.19,1.65,1.65,0,0,1-1-.27A1,1,0,0,1,54.93,133Zm.48-2a1.47,1.47,0,0,0,.26,1,.83.83,0,0,0,.66.31A.85.85,0,0,0,57,132a1.42,1.42,0,0,0,.27-.95,1.35,1.35,0,0,0-.28-.94.85.85,0,0,0-1.31,0A1.4,1.4,0,0,0,55.41,131Z" transform="translate(0.01 -21.92)"/><path class="cls-3" d="M61,131.64l.59.07a1.39,1.39,0,0,1-.52.8,1.54,1.54,0,0,1-1,.29,1.52,1.52,0,0,1-1.17-.46,1.77,1.77,0,0,1-.44-1.27,1.86,1.86,0,0,1,.44-1.32,1.46,1.46,0,0,1,1.14-.47,1.41,1.41,0,0,1,1.1.46,1.78,1.78,0,0,1,.43,1.29v.15H59.05a1.32,1.32,0,0,0,.32.85.92.92,0,0,0,.7.3.89.89,0,0,0,.54-.17A1.09,1.09,0,0,0,61,131.64Zm-1.87-.93H61a1.14,1.14,0,0,0-.22-.63.85.85,0,0,0-.71-.33.89.89,0,0,0-.66.26A1,1,0,0,0,59.09,130.71Z" transform="translate(0.01 -21.92)"/><path class="cls-3" d="M44.05,150.56l.58-.05a1.32,1.32,0,0,0,.19.57,1,1,0,0,0,.47.36,1.8,1.8,0,0,0,.71.14,1.73,1.73,0,0,0,.63-.11.87.87,0,0,0,.4-.28.68.68,0,0,0,.13-.4.55.55,0,0,0-.13-.38.93.93,0,0,0-.42-.28c-.12,0-.4-.12-.83-.23a4.15,4.15,0,0,1-.89-.29,1.19,1.19,0,0,1-.5-.43,1.06,1.06,0,0,1-.16-.58,1.16,1.16,0,0,1,.2-.66,1.18,1.18,0,0,1,.58-.46,2.15,2.15,0,0,1,.85-.16,2.22,2.22,0,0,1,.92.17,1.27,1.27,0,0,1,.6.49,1.32,1.32,0,0,1,.23.73l-.59,0a1,1,0,0,0-.32-.66,1.24,1.24,0,0,0-.81-.23,1.32,1.32,0,0,0-.82.21.6.6,0,0,0-.25.49A.52.52,0,0,0,45,149a2.39,2.39,0,0,0,.93.33,7.58,7.58,0,0,1,1,.3,1.41,1.41,0,0,1,.6.48,1.14,1.14,0,0,1,.19.66,1.3,1.3,0,0,1-.21.7,1.4,1.4,0,0,1-.61.51,2.19,2.19,0,0,1-.9.18A2.76,2.76,0,0,1,45,152a1.59,1.59,0,0,1-.67-.56A1.56,1.56,0,0,1,44.05,150.56Z" transform="translate(0.01 -21.92)"/><path class="cls-3" d="M48.52,153.34v-4.66H49v.44a1.29,1.29,0,0,1,.42-.39,1.19,1.19,0,0,1,.56-.13,1.31,1.31,0,0,1,.76.23,1.29,1.29,0,0,1,.5.62,2.35,2.35,0,0,1,.17.89,2.3,2.3,0,0,1-.19.93,1.36,1.36,0,0,1-.54.64,1.42,1.42,0,0,1-.74.22,1.07,1.07,0,0,1-.51-.12,1.17,1.17,0,0,1-.38-.31v1.64Zm.52-3a1.52,1.52,0,0,0,.26,1,.84.84,0,0,0,.64.31.82.82,0,0,0,.65-.33,1.5,1.5,0,0,0,.27-1,1.56,1.56,0,0,0-.26-1,.82.82,0,0,0-.64-.32.84.84,0,0,0-.64.34A1.52,1.52,0,0,0,49,150.38Z" transform="translate(0.01 -21.92)"/><path class="cls-3" d="M54.44,151,55,151a1.43,1.43,0,0,1-.51.8,1.6,1.6,0,0,1-1,.29,1.52,1.52,0,0,1-1.17-.46,1.77,1.77,0,0,1-.43-1.28,1.89,1.89,0,0,1,.43-1.32,1.51,1.51,0,0,1,1.14-.47,1.45,1.45,0,0,1,1.1.46,1.82,1.82,0,0,1,.43,1.3v.15H52.54a1.26,1.26,0,0,0,.31.85.92.92,0,0,0,.7.3.89.89,0,0,0,.54-.17A1,1,0,0,0,54.44,151ZM52.57,150h1.88a1.21,1.21,0,0,0-.22-.64.86.86,0,0,0-.7-.33.9.9,0,0,0-.67.27A1.07,1.07,0,0,0,52.57,150Z" transform="translate(0.01 -21.92)"/><path class="cls-3" d="M58.06,151l.59.07a1.5,1.5,0,0,1-.52.8,1.74,1.74,0,0,1-2.14-.17,1.77,1.77,0,0,1-.43-1.28,1.9,1.9,0,0,1,.44-1.32,1.58,1.58,0,0,1,2.24,0,1.87,1.87,0,0,1,.43,1.3,1,1,0,0,1,0,.15H56.15a1.32,1.32,0,0,0,.31.85.94.94,0,0,0,.71.3.89.89,0,0,0,.54-.17A1.16,1.16,0,0,0,58.06,151ZM56.18,150h1.88a1.13,1.13,0,0,0-.21-.64.88.88,0,0,0-.71-.33.9.9,0,0,0-.66.27A1,1,0,0,0,56.18,150Z" transform="translate(0.01 -21.92)"/><path class="cls-3" d="M61.55,152.05v-.42a1.05,1.05,0,0,1-.94.5,1.3,1.3,0,0,1-.74-.23,1.41,1.41,0,0,1-.53-.62,2.17,2.17,0,0,1-.18-.91,2.47,2.47,0,0,1,.17-.92,1.37,1.37,0,0,1,.5-.63,1.43,1.43,0,0,1,.75-.22,1.21,1.21,0,0,1,.55.13,1.14,1.14,0,0,1,.38.34V147.4h.57v4.65Zm-1.8-1.68a1.5,1.5,0,0,0,.27,1,.83.83,0,0,0,.64.32.79.79,0,0,0,.64-.31,1.41,1.41,0,0,0,.26-.93,1.64,1.64,0,0,0-.26-1,.81.81,0,0,0-.66-.32.78.78,0,0,0-.64.31A1.54,1.54,0,0,0,59.75,150.37Z" transform="translate(0.01 -21.92)"/><path class="cls-3" d="M64.8,153.34V147.4h1.26v.47h-.69v5h.69v.47Z" transform="translate(0.01 -21.92)"/><path class="cls-3" d="M66.59,152.05v-3.37h.51v.51a1.31,1.31,0,0,1,.36-.47.63.63,0,0,1,.37-.12,1.17,1.17,0,0,1,.59.19l-.2.53a.86.86,0,0,0-.42-.13.5.5,0,0,0-.33.12.59.59,0,0,0-.22.31,2.36,2.36,0,0,0-.09.67v1.76Z" transform="translate(0.01 -21.92)"/><path class="cls-3" d="M68.33,152.13l1.35-4.81h.45l-1.34,4.81Z" transform="translate(0.01 -21.92)"/><path class="cls-3" d="M70.56,152.05v-3.37h.51v.47a1.24,1.24,0,0,1,.43-.39,1.08,1.08,0,0,1,.6-.16,1.13,1.13,0,0,1,.61.16.86.86,0,0,1,.34.43,1.2,1.2,0,0,1,1-.59,1.05,1.05,0,0,1,.77.28,1.2,1.2,0,0,1,.27.86v2.31h-.57v-2.12a1.91,1.91,0,0,0,0-.5.49.49,0,0,0-.21-.24.62.62,0,0,0-.34-.09.81.81,0,0,0-.59.24,1,1,0,0,0-.23.75v2h-.57v-2.19a1,1,0,0,0-.14-.57.54.54,0,0,0-.46-.19.81.81,0,0,0-.45.13.69.69,0,0,0-.29.37,1.85,1.85,0,0,0-.1.7v1.75Z" transform="translate(0.01 -21.92)"/><path class="cls-3" d="M76,148.06v-.66h.57v.66Zm0,4v-3.37h.57v3.37Z" transform="translate(0.01 -21.92)"/><path class="cls-3" d="M77.42,152.05v-3.37h.52v.48A1.2,1.2,0,0,1,79,148.6a1.47,1.47,0,0,1,.56.11A.89.89,0,0,1,80,149a1.14,1.14,0,0,1,.18.42,3.51,3.51,0,0,1,0,.56v2.07h-.57V150a1.38,1.38,0,0,0-.07-.52.53.53,0,0,0-.23-.28.77.77,0,0,0-.4-.1.92.92,0,0,0-.63.23,1.14,1.14,0,0,0-.27.88v1.84Z" transform="translate(0.01 -21.92)"/><path class="cls-3" d="M82,153.34H80.73v-.47h.69v-5h-.69v-.47H82Z" transform="translate(0.01 -21.92)"/><path class="cls-3" d="M4.64,98.27H.54V99.8H0V96.11H.54v1.54h4.1Z" transform="translate(0.01 -21.92)"/><path class="cls-3" d="M3,95.77a1.72,1.72,0,0,1-1.38-.52,1.57,1.57,0,0,1-.38-1.06,1.5,1.5,0,0,1,.46-1.14,1.74,1.74,0,0,1,1.26-.44,2.22,2.22,0,0,1,1,.2,1.42,1.42,0,0,1,.58.56,1.64,1.64,0,0,1,.21.82,1.52,1.52,0,0,1-.46,1.14A1.82,1.82,0,0,1,3,95.77Zm0-.59a1.41,1.41,0,0,0,1-.28.91.91,0,0,0,.33-.71.89.89,0,0,0-.33-.71,1.45,1.45,0,0,0-1-.28,1.37,1.37,0,0,0-.94.28A.95.95,0,0,0,2,94.9,1.39,1.39,0,0,0,3,95.18Z" transform="translate(0.01 -21.92)"/><path class="cls-3" d="M4.64,92H1.27v-.52h.51a1.31,1.31,0,0,1-.47-.36.61.61,0,0,1-.12-.37,1,1,0,0,1,.19-.58l.53.19a.76.76,0,0,0-.13.42.52.52,0,0,0,.12.34.54.54,0,0,0,.31.21,2.28,2.28,0,0,0,.66.1H4.64Z" transform="translate(0.01 -21.92)"/><path class="cls-3" d="M5.93,87.63H4.28a1,1,0,0,1,.31.37,1.14,1.14,0,0,1,.13.51,1.34,1.34,0,0,1-.48,1A1.9,1.9,0,0,1,2.92,90,2.21,2.21,0,0,1,2,89.8a1.33,1.33,0,0,1-.82-1.25,1.14,1.14,0,0,1,.53-1H1.27v-.51H5.93Zm-3,1.76a1.51,1.51,0,0,0,1-.27.81.81,0,0,0,0-1.29A1.46,1.46,0,0,0,3,87.57a1.57,1.57,0,0,0-1,.28.83.83,0,0,0-.34.65.79.79,0,0,0,.32.63A1.55,1.55,0,0,0,2.94,89.39Z" transform="translate(0.01 -21.92)"/><path class="cls-3" d="M4.64,84h-.5A1.22,1.22,0,0,1,4.72,85a1.31,1.31,0,0,1-.12.56.82.82,0,0,1-.29.38.9.9,0,0,1-.42.18,3.33,3.33,0,0,1-.53,0H1.27V85.6H3.14a3.77,3.77,0,0,0,.6,0,.63.63,0,0,0,.36-.23.75.75,0,0,0,.12-.43.91.91,0,0,0-.13-.48.74.74,0,0,0-.36-.32,1.63,1.63,0,0,0-.66-.1H1.27v-.57H4.64Z" transform="translate(0.01 -21.92)"/><path class="cls-3" d="M3.55,80.24l.08-.59a1.39,1.39,0,0,1,.8.52,1.72,1.72,0,0,1-.17,2.13A1.77,1.77,0,0,1,3,82.74a1.9,1.9,0,0,1-1.32-.44,1.49,1.49,0,0,1-.47-1.14,1.45,1.45,0,0,1,.46-1.1A1.82,1.82,0,0,1,3,79.63H3.1v2.52A1.29,1.29,0,0,0,4,81.83a.92.92,0,0,0,.3-.7.89.89,0,0,0-.17-.54A1.07,1.07,0,0,0,3.55,80.24Zm-.92,1.87V80.23a1.18,1.18,0,0,0-.64.22.88.88,0,0,0-.33.71.9.9,0,0,0,.27.66A1,1,0,0,0,2.63,82.11Z" transform="translate(0.01 -21.92)"/><path class="cls-3" d="M5.93,77.11H0V75.85H.46v.69h5v-.69h.47Z" transform="translate(0.01 -21.92)"/><path class="cls-3" d="M4.64,75.25H0v-.63l3.65-2.44H0v-.59H4.64v.63L1,74.66H4.64Z" transform="translate(0.01 -21.92)"/><path class="cls-3" d="M2.36,70.71a.81.81,0,1,1,.57-1.37.75.75,0,0,1,.24.57.76.76,0,0,1-.24.56A.78.78,0,0,1,2.36,70.71Z" transform="translate(0.01 -21.92)"/><path class="cls-3" d="M4.64,68.35H1.27v-.51h.47a1.34,1.34,0,0,1-.4-.42,1.21,1.21,0,0,1-.15-.6,1.08,1.08,0,0,1,.16-.62.86.86,0,0,1,.43-.34,1.2,1.2,0,0,1-.59-1,1.05,1.05,0,0,1,.28-.77,1.2,1.2,0,0,1,.86-.27H4.64v.57H2.52a1.49,1.49,0,0,0-.5.06.42.42,0,0,0-.24.2.64.64,0,0,0-.09.34.82.82,0,0,0,.23.59,1,1,0,0,0,.76.24h2v.57H2.45a.92.92,0,0,0-.57.14.51.51,0,0,0-.19.45.89.89,0,0,0,.12.45.72.72,0,0,0,.38.3,2.08,2.08,0,0,0,.7.09H4.64Z" transform="translate(0.01 -21.92)"/><path class="cls-3" d="M5.93,62v1.26H5.46v-.69h-5v.69H0V62Z" transform="translate(0.01 -21.92)"/></g></svg>