<svg xmlns="http://www.w3.org/2000/svg" viewBox="0 0 113.05 131.42"><defs><style>.cls-1,.cls-2,.cls-3,.cls-4,.cls-6,.繝医Ν繧ｯ繧ｰ繝ｩ繝廟繧ｰ繝ｬ繝ｼ邱,.邱喟0\.5pt{fill:none;}.cls-1,.cls-2,.繝医Ν繧ｯ繧ｰ繝ｩ繝廟繧ｰ繝ｬ繝ｼ邱{stroke:#9fa0a0;}.cls-1,.cls-2,.cls-3,.cls-4,.邱喟0\.5pt{stroke-miterlimit:10;}.cls-1,.cls-2{stroke-width:1px;}.cls-2{stroke-dasharray:2.41 1.17;}.cls-3,.cls-4,.cls-6,.邱喟0\.5pt{stroke:#231815;}.cls-3{stroke-width:0.14px;}.cls-4{stroke-width:0.14px;}.繝医Ν繧ｯ繧ｰ繝ｩ繝廟繧ｰ繝ｬ繝ｼ邱{stroke-width:3px;}.cls-5{fill:#231815;}.繝後Μ_逋ｽ{fill:#fff;}.邱喟0\.5pt{stroke-width:0.5px;}</style></defs><g id="Illust"><line class="cls-1" x1="101.69" y1="104.09" x2="101.69" y2="105.64"/><line class="cls-2" x1="101.69" y1="106.81" x2="101.69" y2="113.38"/><line class="cls-1" x1="101.69" y1="113.97" x2="101.69" y2="115.52"/><line class="cls-3" x1="18.44" y1="24.85" x2="107.73" y2="24.85"/><line class="cls-3" x1="18.44" y1="47.53" x2="107.73" y2="47.53"/><line class="cls-3" x1="18.44" y1="70.21" x2="107.73" y2="70.21"/><line class="cls-3" x1="18.44" y1="92.88" x2="107.73" y2="92.89"/><line class="cls-4" x1="48.2" y1="2.18" x2="48.2" y2="115.56"/><line class="cls-4" x1="77.97" y1="2.18" x2="77.97" y2="115.56"/><polyline class="繝医Ν繧ｯ繧ｰ繝ｩ繝廟繧ｰ繝ｬ繝ｼ邱" points="18.44 18.07 51.19 18.07 108.51 84.63"/><path class="cls-5" d="M10.23,137.13a3.2,3.2,0,0,1,.13-1,1.31,1.31,0,0,1,.39-.6,1.11,1.11,0,0,1,1.15-.09,1,1,0,0,1,.36.33,1.91,1.91,0,0,1,.22.54,4.23,4.23,0,0,1-.05,1.86,1.22,1.22,0,0,1-.38.6,1.1,1.1,0,0,1-1.47-.16A2.43,2.43,0,0,1,10.23,137.13Zm.45,0a2.25,2.25,0,0,0,.21,1.18.6.6,0,0,0,.51.29.61.61,0,0,0,.51-.3,3.52,3.52,0,0,0,0-2.34.6.6,0,0,0-.52-.29.56.56,0,0,0-.48.25A2.28,2.28,0,0,0,10.68,137.13Z" transform="translate(0.01 -21.92)"/><path class="cls-5" d="M13.29,138.9v-.5h.5v.5Z" transform="translate(0.01 -21.92)"/><path class="cls-5" d="M14.43,137.13a3.52,3.52,0,0,1,.13-1,1.31,1.31,0,0,1,.39-.6,1,1,0,0,1,.65-.21,1.07,1.07,0,0,1,.51.12,1.13,1.13,0,0,1,.36.33,2.25,2.25,0,0,1,.22.54,3.72,3.72,0,0,1,.08.84,3.52,3.52,0,0,1-.13,1,1.31,1.31,0,0,1-.39.6,1.09,1.09,0,0,1-1.46-.16A2.35,2.35,0,0,1,14.43,137.13Zm.46,0a2.27,2.27,0,0,0,.2,1.18.62.62,0,0,0,.51.29.61.61,0,0,0,.51-.3,3.36,3.36,0,0,0,0-2.34.6.6,0,0,0-.51-.29.56.56,0,0,0-.49.25A2.3,2.3,0,0,0,14.89,137.13Z" transform="translate(0.01 -21.92)"/><path class="cls-5" d="M10.26,115.28l.47,0a.81.81,0,0,0,.23.51.68.68,0,0,0,.45.17.7.7,0,0,0,.54-.24.88.88,0,0,0,.22-.63.84.84,0,0,0-.21-.6.75.75,0,0,0-.55-.21.83.83,0,0,0-.39.09.93.93,0,0,0-.27.25l-.41,0,.35-1.84h1.78v.42H11l-.19,1a1.14,1.14,0,0,1,.67-.22,1.07,1.07,0,0,1,.79.32,1.14,1.14,0,0,1,.33.84,1.32,1.32,0,0,1-.29.84,1.13,1.13,0,0,1-.94.43,1.15,1.15,0,0,1-.79-.27A1.07,1.07,0,0,1,10.26,115.28Z" transform="translate(0.01 -21.92)"/><path class="cls-5" d="M13.29,116.22v-.5h.5v.5Z" transform="translate(0.01 -21.92)"/><path class="cls-5" d="M14.43,114.46a3.54,3.54,0,0,1,.13-1,1.33,1.33,0,0,1,.39-.59,1,1,0,0,1,.65-.21,1.19,1.19,0,0,1,.51.11,1.06,1.06,0,0,1,.36.34,2,2,0,0,1,.22.53,3.76,3.76,0,0,1,.08.85,3.44,3.44,0,0,1-.13,1,1.31,1.31,0,0,1-.39.6,1,1,0,0,1-.65.21,1,1,0,0,1-.81-.37A2.32,2.32,0,0,1,14.43,114.46Zm.46,0a2.25,2.25,0,0,0,.2,1.17.59.59,0,0,0,1,0,3.39,3.39,0,0,0,0-2.35.62.62,0,0,0-.51-.29.57.57,0,0,0-.49.26A2.3,2.3,0,0,0,14.89,114.46Z" transform="translate(0.01 -21.92)"/><path class="cls-5" d="M9.11,93.54H8.67v-2.8a3.28,3.28,0,0,1-.42.31,2.69,2.69,0,0,1-.46.22v-.42a2.73,2.73,0,0,0,.64-.42,1.81,1.81,0,0,0,.4-.48h.28Z" transform="translate(0.01 -21.92)"/><path class="cls-5" d="M10.26,91.78a3.42,3.42,0,0,1,.13-1,1.31,1.31,0,0,1,.39-.6,1,1,0,0,1,.65-.21,1.07,1.07,0,0,1,.51.12.94.94,0,0,1,.36.33,2.17,2.17,0,0,1,.22.53,3.76,3.76,0,0,1,.08.85,3.09,3.09,0,0,1-.13,1,1.31,1.31,0,0,1-.39.6,1,1,0,0,1-.65.21,1,1,0,0,1-.81-.37A2.32,2.32,0,0,1,10.26,91.78Zm.46,0a2.2,2.2,0,0,0,.2,1.17.6.6,0,0,0,.51.29.62.62,0,0,0,.51-.29,3.39,3.39,0,0,0,0-2.35.62.62,0,0,0-.51-.29.57.57,0,0,0-.49.26A2.3,2.3,0,0,0,10.72,91.78Z" transform="translate(0.01 -21.92)"/><path class="cls-5" d="M13.29,93.54V93h.5v.5Z" transform="translate(0.01 -21.92)"/><path class="cls-5" d="M14.43,91.78a3.42,3.42,0,0,1,.13-1,1.31,1.31,0,0,1,.39-.6A1,1,0,0,1,15.6,90a1.07,1.07,0,0,1,.51.12.94.94,0,0,1,.36.33,2.17,2.17,0,0,1,.22.53,3.76,3.76,0,0,1,.08.85,3.39,3.39,0,0,1-.13,1,1.31,1.31,0,0,1-.39.6,1,1,0,0,1-.65.21,1,1,0,0,1-.81-.37A2.32,2.32,0,0,1,14.43,91.78Zm.46,0a2.2,2.2,0,0,0,.2,1.17.6.6,0,0,0,.51.29.62.62,0,0,0,.51-.29,3.39,3.39,0,0,0,0-2.35.62.62,0,0,0-.51-.29.57.57,0,0,0-.49.26A2.3,2.3,0,0,0,14.89,91.78Z" transform="translate(0.01 -21.92)"/><path class="cls-5" d="M9.11,70.87H8.67v-2.8a2.54,2.54,0,0,1-.42.3,2.81,2.81,0,0,1-.46.23v-.43a2.22,2.22,0,0,0,.64-.42,1.55,1.55,0,0,0,.4-.48h.28Z" transform="translate(0.01 -21.92)"/><path class="cls-5" d="M10.26,69.93l.47,0a.87.87,0,0,0,.23.51.68.68,0,0,0,.45.17.7.7,0,0,0,.54-.24.89.89,0,0,0,.22-.64A.8.8,0,0,0,12,69.1a.72.72,0,0,0-.55-.22A.73.73,0,0,0,11,69a.81.81,0,0,0-.27.25l-.41-.06.35-1.83h1.78v.42H11l-.19,1a1.15,1.15,0,0,1,.67-.23,1,1,0,0,1,.79.33,1.1,1.1,0,0,1,.33.83,1.28,1.28,0,0,1-.29.84,1.14,1.14,0,0,1-.94.44,1.11,1.11,0,0,1-.79-.28A1,1,0,0,1,10.26,69.93Z" transform="translate(0.01 -21.92)"/><path class="cls-5" d="M13.29,70.87v-.5h.5v.5Z" transform="translate(0.01 -21.92)"/><path class="cls-5" d="M14.43,69.1a3.52,3.52,0,0,1,.13-1,1.31,1.31,0,0,1,.39-.6,1,1,0,0,1,.65-.21,1.07,1.07,0,0,1,.51.12,1.13,1.13,0,0,1,.36.33,2.35,2.35,0,0,1,.22.53,3.82,3.82,0,0,1,.08.85,3.52,3.52,0,0,1-.13,1,1.31,1.31,0,0,1-.39.6,1.09,1.09,0,0,1-1.46-.16A2.35,2.35,0,0,1,14.43,69.1Zm.46,0a2.2,2.2,0,0,0,.2,1.17.58.58,0,0,0,1,0,3.36,3.36,0,0,0,0-2.34.6.6,0,0,0-.51-.29.56.56,0,0,0-.49.25A2.3,2.3,0,0,0,14.89,69.1Z" transform="translate(0.01 -21.92)"/><path class="cls-5" d="M9.76,47.77v.42H7.39a1.06,1.06,0,0,1,.05-.31,1.58,1.58,0,0,1,.29-.47,4.54,4.54,0,0,1,.58-.54,5.35,5.35,0,0,0,.79-.76,1,1,0,0,0,.2-.53.56.56,0,0,0-.19-.44A.65.65,0,0,0,8.63,45a.69.69,0,0,0-.51.19.7.7,0,0,0-.19.53l-.46,0a1.16,1.16,0,0,1,.35-.77,1.21,1.21,0,0,1,.82-.26,1.13,1.13,0,0,1,.81.28.94.94,0,0,1,.3.71,1.06,1.06,0,0,1-.09.42,1.33,1.33,0,0,1-.29.44,7.63,7.63,0,0,1-.67.63,5.24,5.24,0,0,0-.51.45,1.33,1.33,0,0,0-.19.24Z" transform="translate(0.01 -21.92)"/><path class="cls-5" d="M10.26,46.42a3.2,3.2,0,0,1,.13-1,1.28,1.28,0,0,1,.39-.59.94.94,0,0,1,.65-.21,1,1,0,0,1,.5.11.9.9,0,0,1,.36.34,1.73,1.73,0,0,1,.22.53,4.23,4.23,0,0,1,0,1.86,1.22,1.22,0,0,1-.38.6,1,1,0,0,1-.65.21,1,1,0,0,1-.82-.37A2.41,2.41,0,0,1,10.26,46.42Zm.45,0a2.25,2.25,0,0,0,.21,1.18.58.58,0,0,0,1,0,2.25,2.25,0,0,0,.21-1.18,2.18,2.18,0,0,0-.21-1.17.6.6,0,0,0-.51-.29.54.54,0,0,0-.48.26A2.24,2.24,0,0,0,10.71,46.42Z" transform="translate(0.01 -21.92)"/><path class="cls-5" d="M13.29,48.19v-.5h.5v.5Z" transform="translate(0.01 -21.92)"/><path class="cls-5" d="M14.43,46.42a3.52,3.52,0,0,1,.13-1,1.28,1.28,0,0,1,.39-.59.94.94,0,0,1,.65-.21.95.95,0,0,1,.87.45,2,2,0,0,1,.22.53,3.72,3.72,0,0,1,.08.84,3.52,3.52,0,0,1-.13,1,1.31,1.31,0,0,1-.39.6,1,1,0,0,1-.65.21,1,1,0,0,1-.81-.37A2.33,2.33,0,0,1,14.43,46.42Zm.46,0a2.27,2.27,0,0,0,.2,1.18.59.59,0,0,0,1,0,2.25,2.25,0,0,0,.21-1.18,2.18,2.18,0,0,0-.21-1.17A.62.62,0,0,0,15.6,45a.55.55,0,0,0-.49.26A2.26,2.26,0,0,0,14.89,46.42Z" transform="translate(0.01 -21.92)"/><path class="cls-5" d="M9.76,25.09v.42H7.4a.61.61,0,0,1,0-.3,1.76,1.76,0,0,1,.29-.48,3.81,3.81,0,0,1,.57-.54,4.87,4.87,0,0,0,.79-.76.9.9,0,0,0,.21-.53.61.61,0,0,0-.19-.44.69.69,0,0,0-.49-.18.73.73,0,0,0-.51.19.74.74,0,0,0-.19.53L7.48,23a1.14,1.14,0,0,1,.35-.77,1.21,1.21,0,0,1,.81-.26,1.13,1.13,0,0,1,.82.28.94.94,0,0,1,.3.71,1,1,0,0,1-.09.42,1.75,1.75,0,0,1-.29.44,8.11,8.11,0,0,1-.68.63l-.51.45a1.88,1.88,0,0,0-.18.24Z" transform="translate(0.01 -21.92)"/><path class="cls-5" d="M10.26,24.57l.47,0A.81.81,0,0,0,11,25a.68.68,0,0,0,.45.17A.7.7,0,0,0,12,25a.88.88,0,0,0,.22-.63.84.84,0,0,0-.21-.6.75.75,0,0,0-.55-.21.83.83,0,0,0-.39.09.93.93,0,0,0-.27.25l-.41-.05L10.69,22h1.78v.42H11l-.19,1a1.14,1.14,0,0,1,.67-.22,1.07,1.07,0,0,1,.79.32,1.14,1.14,0,0,1,.33.84,1.32,1.32,0,0,1-.29.84,1.13,1.13,0,0,1-.94.43,1.15,1.15,0,0,1-.79-.27A1,1,0,0,1,10.26,24.57Z" transform="translate(0.01 -21.92)"/><path class="cls-5" d="M13.29,25.51V25h.5v.5Z" transform="translate(0.01 -21.92)"/><path class="cls-5" d="M14.43,23.75a3.54,3.54,0,0,1,.13-1,1.33,1.33,0,0,1,.39-.59,1,1,0,0,1,.65-.21,1.19,1.19,0,0,1,.51.11,1.06,1.06,0,0,1,.36.34,2,2,0,0,1,.22.53,3.76,3.76,0,0,1,.08.85,3.39,3.39,0,0,1-.13,1,1.31,1.31,0,0,1-.39.6,1,1,0,0,1-.65.21,1,1,0,0,1-.81-.37A2.32,2.32,0,0,1,14.43,23.75Zm.46,0a2.25,2.25,0,0,0,.2,1.17.59.59,0,0,0,1,0,2.23,2.23,0,0,0,.21-1.17,2.25,2.25,0,0,0-.21-1.18.62.62,0,0,0-.51-.29.57.57,0,0,0-.49.26A2.3,2.3,0,0,0,14.89,23.75Z" transform="translate(0.01 -21.92)"/><path class="cls-5" d="M17.24,141.38a3.52,3.52,0,0,1,.13-1,1.28,1.28,0,0,1,.39-.59,1.14,1.14,0,0,1,1.15-.1.9.9,0,0,1,.36.34,1.73,1.73,0,0,1,.23.53,3.72,3.72,0,0,1,.08.84,3.52,3.52,0,0,1-.13,1,1.31,1.31,0,0,1-.39.6,1,1,0,0,1-.65.21,1,1,0,0,1-.81-.37A2.33,2.33,0,0,1,17.24,141.38Zm.45,0a2.25,2.25,0,0,0,.21,1.18.59.59,0,0,0,1,0,2.27,2.27,0,0,0,.2-1.18,2.2,2.2,0,0,0-.2-1.17.63.63,0,0,0-.52-.29.54.54,0,0,0-.48.26A2.24,2.24,0,0,0,17.69,141.38Z" transform="translate(0.01 -21.92)"/><path class="cls-5" d="M45.44,143.15H45v-2.8a2.07,2.07,0,0,1-.41.3,3.32,3.32,0,0,1-.47.23v-.43a2.42,2.42,0,0,0,.65-.42,1.76,1.76,0,0,0,.39-.47h.28Z" transform="translate(0.01 -21.92)"/><path class="cls-5" d="M46.57,141.38a3.2,3.2,0,0,1,.13-1,1.14,1.14,0,0,1,.39-.59,1,1,0,0,1,.64-.21,1,1,0,0,1,.51.11,1.06,1.06,0,0,1,.36.34,1.73,1.73,0,0,1,.22.53,3.72,3.72,0,0,1,.08.84,3.2,3.2,0,0,1-.13,1,1.22,1.22,0,0,1-.38.6,1,1,0,0,1-.66.21,1,1,0,0,1-.81-.37A2.41,2.41,0,0,1,46.57,141.38Zm.45,0a2.38,2.38,0,0,0,.2,1.18.62.62,0,0,0,.51.29.6.6,0,0,0,.51-.29,2.25,2.25,0,0,0,.21-1.18,2.2,2.2,0,0,0-.21-1.17.61.61,0,0,0-.51-.29.56.56,0,0,0-.48.26A2.15,2.15,0,0,0,47,141.38Z" transform="translate(0.01 -21.92)"/><path class="cls-5" d="M49.35,141.38a3.2,3.2,0,0,1,.13-1,1.28,1.28,0,0,1,.39-.59,1,1,0,0,1,.64-.21,1,1,0,0,1,.51.11,1,1,0,0,1,.36.34,1.73,1.73,0,0,1,.22.53,4.23,4.23,0,0,1-.05,1.86,1.22,1.22,0,0,1-.38.6,1,1,0,0,1-.66.21,1,1,0,0,1-.81-.37A2.41,2.41,0,0,1,49.35,141.38Zm.45,0a2.25,2.25,0,0,0,.21,1.18.58.58,0,0,0,1,0,2.25,2.25,0,0,0,.21-1.18,2.2,2.2,0,0,0-.21-1.17.6.6,0,0,0-.51-.29.56.56,0,0,0-.48.26A2.24,2.24,0,0,0,49.8,141.38Z" transform="translate(0.01 -21.92)"/><path class="cls-5" d="M52.13,141.38a3.2,3.2,0,0,1,.13-1,1.28,1.28,0,0,1,.39-.59,1.14,1.14,0,0,1,1.15-.1.9.9,0,0,1,.36.34,1.73,1.73,0,0,1,.22.53,4.23,4.23,0,0,1-.05,1.86,1.22,1.22,0,0,1-.38.6,1,1,0,0,1-.65.21,1,1,0,0,1-.82-.37A2.41,2.41,0,0,1,52.13,141.38Zm.45,0a2.25,2.25,0,0,0,.21,1.18.6.6,0,0,0,.51.29.62.62,0,0,0,.51-.29,2.38,2.38,0,0,0,.2-1.18,2.34,2.34,0,0,0-.2-1.17.63.63,0,0,0-.52-.29.56.56,0,0,0-.48.26A2.24,2.24,0,0,0,52.58,141.38Z" transform="translate(0.01 -21.92)"/><path class="cls-5" d="M74.91,142.73v.42H72.54a1.06,1.06,0,0,1,0-.31,1.58,1.58,0,0,1,.29-.47,4.54,4.54,0,0,1,.58-.54,5.35,5.35,0,0,0,.79-.76,1,1,0,0,0,.2-.53.6.6,0,0,0-.18-.44.77.77,0,0,0-1,0,.7.7,0,0,0-.19.53l-.45,0a1.11,1.11,0,0,1,.34-.77,1.21,1.21,0,0,1,.82-.26,1.13,1.13,0,0,1,.81.28.94.94,0,0,1,.3.71,1.25,1.25,0,0,1-.08.42,1.57,1.57,0,0,1-.3.44,7.63,7.63,0,0,1-.67.63,5.24,5.24,0,0,0-.51.45,1.33,1.33,0,0,0-.19.24Z" transform="translate(0.01 -21.92)"/><path class="cls-5" d="M75.38,141.38a3.2,3.2,0,0,1,.13-1,1.28,1.28,0,0,1,.39-.59,1.14,1.14,0,0,1,1.15-.1.9.9,0,0,1,.36.34,1.51,1.51,0,0,1,.22.53,4.23,4.23,0,0,1,0,1.86,1.22,1.22,0,0,1-.38.6,1.1,1.1,0,0,1-1.47-.16A2.41,2.41,0,0,1,75.38,141.38Zm.45,0a2.25,2.25,0,0,0,.21,1.18.59.59,0,0,0,1,0,2.38,2.38,0,0,0,.2-1.18,2.34,2.34,0,0,0-.2-1.17.63.63,0,0,0-.52-.29.56.56,0,0,0-.48.26A2.24,2.24,0,0,0,75.83,141.38Z" transform="translate(0.01 -21.92)"/><path class="cls-5" d="M78.16,141.38a3.2,3.2,0,0,1,.13-1,1.28,1.28,0,0,1,.39-.59,1.14,1.14,0,0,1,1.15-.1.9.9,0,0,1,.36.34,1.51,1.51,0,0,1,.22.53,3.22,3.22,0,0,1,.08.84,3.56,3.56,0,0,1-.12,1,1.31,1.31,0,0,1-.39.6,1.1,1.1,0,0,1-1.47-.16A2.41,2.41,0,0,1,78.16,141.38Zm.45,0a2.25,2.25,0,0,0,.21,1.18.59.59,0,0,0,1,0,2.38,2.38,0,0,0,.2-1.18,2.34,2.34,0,0,0-.2-1.17.63.63,0,0,0-.52-.29.56.56,0,0,0-.48.26A2.24,2.24,0,0,0,78.61,141.38Z" transform="translate(0.01 -21.92)"/><path class="cls-5" d="M80.94,141.38a3.2,3.2,0,0,1,.13-1,1.28,1.28,0,0,1,.39-.59,1.14,1.14,0,0,1,1.15-.1A.9.9,0,0,1,83,140a1.51,1.51,0,0,1,.22.53,3.16,3.16,0,0,1,.09.84,3.52,3.52,0,0,1-.13,1,1.31,1.31,0,0,1-.39.6,1,1,0,0,1-.65.21,1,1,0,0,1-.81-.37A2.33,2.33,0,0,1,80.94,141.38Zm.45,0a2.25,2.25,0,0,0,.21,1.18.59.59,0,0,0,1,0,2.38,2.38,0,0,0,.2-1.18,2.34,2.34,0,0,0-.2-1.17.63.63,0,0,0-.52-.29.56.56,0,0,0-.48.26A2.24,2.24,0,0,0,81.39,141.38Z" transform="translate(0.01 -21.92)"/><path class="cls-5" d="M102.37,142.2l.43,0a1,1,0,0,0,.26.53.64.64,0,0,0,.45.17.69.69,0,0,0,.52-.22.72.72,0,0,0,.21-.53.65.65,0,0,0-.2-.5.66.66,0,0,0-.5-.19,1.38,1.38,0,0,0-.31,0l0-.38h.07a.89.89,0,0,0,.51-.14.5.5,0,0,0,.22-.45.51.51,0,0,0-.16-.4.57.57,0,0,0-.42-.16.57.57,0,0,0-.43.16.77.77,0,0,0-.22.48l-.44-.08a1.07,1.07,0,0,1,.37-.68,1.05,1.05,0,0,1,.71-.24,1.25,1.25,0,0,1,.54.12.94.94,0,0,1,.37.34.88.88,0,0,1,.13.47.79.79,0,0,1-.12.42.8.8,0,0,1-.37.3.82.82,0,0,1,.49.3.93.93,0,0,1,.18.58,1.07,1.07,0,0,1-.34.8,1.24,1.24,0,0,1-.87.32,1.12,1.12,0,0,1-.78-.28A1,1,0,0,1,102.37,142.2Z" transform="translate(0.01 -21.92)"/><path class="cls-5" d="M105.14,141.38a3.52,3.52,0,0,1,.13-1,1.28,1.28,0,0,1,.39-.59,1,1,0,0,1,.65-.21,1.06,1.06,0,0,1,.51.11,1,1,0,0,1,.35.34,1.73,1.73,0,0,1,.23.53,3.72,3.72,0,0,1,.08.84,3.52,3.52,0,0,1-.13,1,1.31,1.31,0,0,1-.39.6,1,1,0,0,1-.65.21,1,1,0,0,1-.81-.37A2.33,2.33,0,0,1,105.14,141.38Zm.46,0a2.27,2.27,0,0,0,.2,1.18.59.59,0,0,0,1,0,2.25,2.25,0,0,0,.21-1.18,2.18,2.18,0,0,0-.21-1.17.62.62,0,0,0-.51-.29.55.55,0,0,0-.49.26A2.26,2.26,0,0,0,105.6,141.38Z" transform="translate(0.01 -21.92)"/><path class="cls-5" d="M107.92,141.38a3.52,3.52,0,0,1,.13-1,1.28,1.28,0,0,1,.39-.59,1,1,0,0,1,.65-.21.95.95,0,0,1,.87.45,2,2,0,0,1,.22.53,3.72,3.72,0,0,1,.08.84,3.2,3.2,0,0,1-.13,1,1.31,1.31,0,0,1-.39.6,1,1,0,0,1-.65.21,1,1,0,0,1-.81-.37A2.33,2.33,0,0,1,107.92,141.38Zm.46,0a2.27,2.27,0,0,0,.2,1.18.59.59,0,0,0,1,0,2.25,2.25,0,0,0,.21-1.18,2.18,2.18,0,0,0-.21-1.17.62.62,0,0,0-.51-.29.55.55,0,0,0-.49.26A2.26,2.26,0,0,0,108.38,141.38Z" transform="translate(0.01 -21.92)"/><path class="cls-5" d="M110.7,141.38a3.17,3.17,0,0,1,.14-1,1.19,1.19,0,0,1,.38-.59,1,1,0,0,1,.65-.21.95.95,0,0,1,.87.45,2,2,0,0,1,.22.53,3.72,3.72,0,0,1,.08.84,3.2,3.2,0,0,1-.13,1,1.31,1.31,0,0,1-.39.6,1,1,0,0,1-.65.21,1,1,0,0,1-.81-.37A2.33,2.33,0,0,1,110.7,141.38Zm.46,0a2.38,2.38,0,0,0,.2,1.18.59.59,0,0,0,1,0,2.25,2.25,0,0,0,.21-1.18,2.18,2.18,0,0,0-.21-1.17.62.62,0,0,0-.51-.29.56.56,0,0,0-.49.26A2.26,2.26,0,0,0,111.16,141.38Z" transform="translate(0.01 -21.92)"/><polyline class="繝医Ν繧ｯ繧ｰ繝ｩ繝廟繧ｰ繝ｬ繝ｼ邱" points="18.44 93.92 33.32 93.92 63.07 93.92 77.96 99.33 107.73 104.74"/><polyline class="cls-6" points="18.44 18.07 33.3 18.07 108.38 98.1"/><polyline class="cls-6" points="18.44 93.92 33.32 93.92 63.07 93.92 77.96 99.33 107.73 104.74"/><rect class="繝後Μ_逋ｽ" x="107.73" y="2.18" width="2.83" height="113.39"/><rect class="邱喟0.5pt" x="18.44" y="2.18" width="89.29" height="113.39"/></g><g id="English"><path class="cls-5" d="M4.64,98.27H.54V99.8H0V96.11H.54v1.54h4.1Z" transform="translate(0.01 -21.92)"/><path class="cls-5" d="M3,95.77a1.75,1.75,0,0,1-1.38-.52,1.58,1.58,0,0,1-.38-1.06,1.5,1.5,0,0,1,.46-1.14,1.74,1.74,0,0,1,1.26-.44,2.1,2.1,0,0,1,1,.2,1.36,1.36,0,0,1,.58.56,1.64,1.64,0,0,1,.21.82,1.52,1.52,0,0,1-.46,1.14A1.82,1.82,0,0,1,3,95.77Zm0-.59a1.41,1.41,0,0,0,1-.28.91.91,0,0,0,.33-.71.89.89,0,0,0-.33-.71,1.43,1.43,0,0,0-1-.28,1.38,1.38,0,0,0-.95.28A.95.95,0,0,0,2,94.9,1.39,1.39,0,0,0,3,95.18Z" transform="translate(0.01 -21.92)"/><path class="cls-5" d="M4.64,92H1.27v-.52h.51a1.31,1.31,0,0,1-.47-.36.61.61,0,0,1-.12-.37,1,1,0,0,1,.19-.58l.53.19a.76.76,0,0,0-.13.42.52.52,0,0,0,.12.34.58.58,0,0,0,.31.21,2.3,2.3,0,0,0,.67.1H4.64Z" transform="translate(0.01 -21.92)"/><path class="cls-5" d="M5.93,87.63H4.28a1,1,0,0,1,.31.37,1.14,1.14,0,0,1,.13.51,1.34,1.34,0,0,1-.48,1A1.9,1.9,0,0,1,2.92,90,2.21,2.21,0,0,1,2,89.8a1.33,1.33,0,0,1-.82-1.25,1.14,1.14,0,0,1,.53-1H1.27v-.51H5.93Zm-3,1.76a1.51,1.51,0,0,0,1-.27.81.81,0,0,0,0-1.29A1.46,1.46,0,0,0,3,87.57a1.57,1.57,0,0,0-1,.28.83.83,0,0,0-.34.65.79.79,0,0,0,.32.63A1.55,1.55,0,0,0,2.94,89.39Z" transform="translate(0.01 -21.92)"/><path class="cls-5" d="M4.64,84h-.5A1.22,1.22,0,0,1,4.72,85a1.31,1.31,0,0,1-.12.56.82.82,0,0,1-.29.38.9.9,0,0,1-.42.18,3.33,3.33,0,0,1-.53,0H1.27V85.6H3.14a3.77,3.77,0,0,0,.6,0,.63.63,0,0,0,.36-.23.75.75,0,0,0,.12-.43,1,1,0,0,0-.13-.49.68.68,0,0,0-.36-.31,1.61,1.61,0,0,0-.65-.1H1.27v-.57H4.64Z" transform="translate(0.01 -21.92)"/><path class="cls-5" d="M3.55,80.24l.08-.59a1.39,1.39,0,0,1,.8.52,1.72,1.72,0,0,1-.17,2.13A1.77,1.77,0,0,1,3,82.74a1.9,1.9,0,0,1-1.32-.44,1.49,1.49,0,0,1-.47-1.14,1.45,1.45,0,0,1,.46-1.1A1.82,1.82,0,0,1,3,79.63H3.1v2.52A1.29,1.29,0,0,0,4,81.83a.92.92,0,0,0,.3-.7.89.89,0,0,0-.17-.54A1.07,1.07,0,0,0,3.55,80.24Zm-.92,1.87V80.23a1.18,1.18,0,0,0-.64.22.88.88,0,0,0-.33.71.9.9,0,0,0,.27.66A1,1,0,0,0,2.63,82.11Z" transform="translate(0.01 -21.92)"/><path class="cls-5" d="M5.93,77.11H0V75.85H.46v.69h5v-.69h.47Z" transform="translate(0.01 -21.92)"/><path class="cls-5" d="M4.64,75.25H0v-.63l3.65-2.44H0v-.59H4.64v.63L1,74.66H4.64Z" transform="translate(0.01 -21.92)"/><path class="cls-5" d="M2.36,70.71a.78.78,0,0,1-.57-.24.81.81,0,0,1,1.14-1.14.81.81,0,0,1-.57,1.38Z" transform="translate(0.01 -21.92)"/><path class="cls-5" d="M4.64,68.35H1.27v-.51h.47a1.34,1.34,0,0,1-.4-.42,1.21,1.21,0,0,1-.15-.6,1.16,1.16,0,0,1,.16-.62.86.86,0,0,1,.43-.34,1.2,1.2,0,0,1-.59-1,1.05,1.05,0,0,1,.28-.77,1.2,1.2,0,0,1,.86-.27H4.64v.57H2.52a1.49,1.49,0,0,0-.5.06.42.42,0,0,0-.24.2.62.62,0,0,0-.09.34.82.82,0,0,0,.23.59,1,1,0,0,0,.76.24h2v.57H2.45a.92.92,0,0,0-.57.14.51.51,0,0,0-.19.45.81.81,0,0,0,.13.45.7.7,0,0,0,.37.3,2.08,2.08,0,0,0,.7.09H4.64Z" transform="translate(0.01 -21.92)"/><path class="cls-5" d="M5.93,62v1.26H5.46v-.69h-5v.69H0V62Z" transform="translate(0.01 -21.92)"/><rect class="繝後Μ_逋ｽ" x="19.43" y="58.16" width="47.91" height="16.58"/><path class="cls-5" d="M21.92,85l.58,0a1.32,1.32,0,0,0,.19.57,1,1,0,0,0,.47.36,1.8,1.8,0,0,0,.71.14,1.73,1.73,0,0,0,.63-.11.87.87,0,0,0,.4-.28.66.66,0,0,0,.13-.4.55.55,0,0,0-.13-.38.93.93,0,0,0-.42-.28c-.12,0-.4-.12-.82-.23a4.09,4.09,0,0,1-.9-.29,1.26,1.26,0,0,1-.5-.43A1,1,0,0,1,22.1,83a1.16,1.16,0,0,1,.2-.66,1.22,1.22,0,0,1,.58-.46,2.16,2.16,0,0,1,.86-.16,2.21,2.21,0,0,1,.91.17,1.35,1.35,0,0,1,.61.49,1.39,1.39,0,0,1,.22.73l-.59,0a1,1,0,0,0-.32-.66,1.24,1.24,0,0,0-.81-.23,1.27,1.27,0,0,0-.81.21.61.61,0,0,0-.26.49.51.51,0,0,0,.18.41,2.39,2.39,0,0,0,.93.33,7.58,7.58,0,0,1,1,.3,1.41,1.41,0,0,1,.6.48,1.14,1.14,0,0,1,.19.66,1.27,1.27,0,0,1-.21.7,1.34,1.34,0,0,1-.61.51,2.16,2.16,0,0,1-.9.18,2.67,2.67,0,0,1-1-.18A1.55,1.55,0,0,1,21.92,85Z" transform="translate(0.01 -21.92)"/><path class="cls-5" d="M26.39,86.44V81.79H27v1.67A1.29,1.29,0,0,1,28,83a1.33,1.33,0,0,1,.65.15.88.88,0,0,1,.4.41,1.88,1.88,0,0,1,.12.76v2.13h-.57V84.31a.91.91,0,0,0-.19-.63.69.69,0,0,0-.53-.19.9.9,0,0,0-.47.13.74.74,0,0,0-.32.36,1.48,1.48,0,0,0-.1.62v1.84Z" transform="translate(0.01 -21.92)"/><path class="cls-5" d="M29.79,84.76a1.76,1.76,0,0,1,.52-1.39A1.58,1.58,0,0,1,31.37,83a1.52,1.52,0,0,1,1.14.46A1.74,1.74,0,0,1,33,84.71a2.24,2.24,0,0,1-.19,1,1.39,1.39,0,0,1-.57.58,1.64,1.64,0,0,1-.82.21,1.48,1.48,0,0,1-1.14-.46A1.79,1.79,0,0,1,29.79,84.76Zm.59,0a1.5,1.5,0,0,0,.28,1,.93.93,0,0,0,.71.32.89.89,0,0,0,.71-.33,1.43,1.43,0,0,0,.28-1,1.38,1.38,0,0,0-.28-.95.88.88,0,0,0-.71-.32.9.9,0,0,0-.71.32A1.46,1.46,0,0,0,30.38,84.76Z" transform="translate(0.01 -21.92)"/><path class="cls-5" d="M33.62,86.44V83.07h.51v.51a1.41,1.41,0,0,1,.36-.47.63.63,0,0,1,.37-.12,1.17,1.17,0,0,1,.59.19l-.2.53a.84.84,0,0,0-.42-.12.53.53,0,0,0-.34.11.58.58,0,0,0-.21.31,2.36,2.36,0,0,0-.09.67v1.76Z" transform="translate(0.01 -21.92)"/><path class="cls-5" d="M37,85.93l.09.51a2.47,2.47,0,0,1-.44,0,1.07,1.07,0,0,1-.48-.1.6.6,0,0,1-.24-.26,2,2,0,0,1-.07-.68V83.52h-.42v-.45h.42v-.83l.57-.35v1.18H37v.45h-.57v2a1,1,0,0,0,0,.31.21.21,0,0,0,.1.11.34.34,0,0,0,.19,0A1.19,1.19,0,0,0,37,85.93Z" transform="translate(0.01 -21.92)"/><path class="cls-5" d="M37.37,85.05v-.58h1.76v.58Z" transform="translate(0.01 -21.92)"/><path class="cls-5" d="M41.94,86.44V86a1,1,0,0,1-.94.5,1.37,1.37,0,0,1-.74-.22,1.41,1.41,0,0,1-.52-.63,2,2,0,0,1-.19-.91,2.47,2.47,0,0,1,.17-.92,1.37,1.37,0,0,1,.5-.63A1.43,1.43,0,0,1,41,83a1.2,1.2,0,0,1,.54.13,1.17,1.17,0,0,1,.39.34V81.79h.56v4.65Zm-1.8-1.68a1.5,1.5,0,0,0,.27,1,.83.83,0,0,0,.64.32.79.79,0,0,0,.64-.31,1.36,1.36,0,0,0,.26-.93,1.66,1.66,0,0,0-.26-1,.84.84,0,0,0-.66-.32.79.79,0,0,0-.64.31A1.54,1.54,0,0,0,40.14,84.76Z" transform="translate(0.01 -21.92)"/><path class="cls-5" d="M45.58,86.44V86a1.23,1.23,0,0,1-1.07.57A1.34,1.34,0,0,1,44,86.4a.88.88,0,0,1-.38-.28,1.3,1.3,0,0,1-.18-.43,3.33,3.33,0,0,1,0-.53V83.07h.57v1.87a2.63,2.63,0,0,0,0,.6.61.61,0,0,0,.22.36.76.76,0,0,0,.44.13.92.92,0,0,0,.48-.14.73.73,0,0,0,.32-.35,1.94,1.94,0,0,0,.09-.66V83.07h.57v3.37Z" transform="translate(0.01 -21.92)"/><path class="cls-5" d="M47,86.44V83.07h.51v.51a1.55,1.55,0,0,1,.37-.47.6.6,0,0,1,.36-.12,1.14,1.14,0,0,1,.59.19l-.2.53a.78.78,0,0,0-.41-.12.51.51,0,0,0-.34.11.58.58,0,0,0-.21.31,2,2,0,0,0-.1.67v1.76Z" transform="translate(0.01 -21.92)"/><path class="cls-5" d="M51.35,86a2.17,2.17,0,0,1-.61.38,1.9,1.9,0,0,1-.63.11,1.2,1.2,0,0,1-.85-.27.91.91,0,0,1-.3-.7,1,1,0,0,1,.11-.45.87.87,0,0,1,.3-.33,1.55,1.55,0,0,1,.41-.19l.5-.08a5,5,0,0,0,1-.2,1.14,1.14,0,0,0,0-.15.63.63,0,0,0-.17-.49.94.94,0,0,0-.65-.19,1,1,0,0,0-.59.14.89.89,0,0,0-.29.5L49.06,84a1.34,1.34,0,0,1,.25-.58,1.11,1.11,0,0,1,.5-.34,2.26,2.26,0,0,1,.77-.12,2,2,0,0,1,.7.11.82.82,0,0,1,.39.25.79.79,0,0,1,.18.39,3.08,3.08,0,0,1,0,.53V85a6.89,6.89,0,0,0,0,1,1.19,1.19,0,0,0,.14.4h-.59A1.31,1.31,0,0,1,51.35,86Zm-.05-1.28a4.39,4.39,0,0,1-.93.22,2.25,2.25,0,0,0-.5.11.41.41,0,0,0-.22.19.43.43,0,0,0-.08.27.47.47,0,0,0,.17.38.76.76,0,0,0,.51.15,1.21,1.21,0,0,0,.58-.14.92.92,0,0,0,.38-.4A1.41,1.41,0,0,0,51.3,85Z" transform="translate(0.01 -21.92)"/><path class="cls-5" d="M54,85.93l.09.51a2.47,2.47,0,0,1-.44,0,1.07,1.07,0,0,1-.48-.1.6.6,0,0,1-.24-.26,2,2,0,0,1-.07-.68V83.52h-.42v-.45h.42v-.83l.57-.35v1.18H54v.45h-.57v2a1,1,0,0,0,0,.31.21.21,0,0,0,.1.11.34.34,0,0,0,.19,0A1.19,1.19,0,0,0,54,85.93Z" transform="translate(0.01 -21.92)"/><path class="cls-5" d="M54.58,82.45v-.66h.57v.66Zm0,4V83.07h.57v3.37Z" transform="translate(0.01 -21.92)"/><path class="cls-5" d="M55.8,84.76a1.76,1.76,0,0,1,.52-1.39A1.58,1.58,0,0,1,57.38,83a1.52,1.52,0,0,1,1.14.46A1.74,1.74,0,0,1,59,84.71a2.24,2.24,0,0,1-.19,1,1.39,1.39,0,0,1-.57.58,1.64,1.64,0,0,1-.82.21,1.48,1.48,0,0,1-1.14-.46A1.79,1.79,0,0,1,55.8,84.76Zm.59,0a1.44,1.44,0,0,0,.28,1,.93.93,0,0,0,.71.32.89.89,0,0,0,.71-.33,1.43,1.43,0,0,0,.28-1,1.38,1.38,0,0,0-.28-.95.88.88,0,0,0-.71-.32.9.9,0,0,0-.71.32A1.41,1.41,0,0,0,56.39,84.76Z" transform="translate(0.01 -21.92)"/><path class="cls-5" d="M59.63,86.44V83.07h.52v.48A1.2,1.2,0,0,1,61.22,83a1.47,1.47,0,0,1,.56.11.89.89,0,0,1,.38.29,1.14,1.14,0,0,1,.18.42,3.51,3.51,0,0,1,0,.56v2.07H61.8v-2a1.38,1.38,0,0,0-.07-.52.53.53,0,0,0-.23-.28.77.77,0,0,0-.4-.1.92.92,0,0,0-.63.23,1.14,1.14,0,0,0-.27.88v1.84Z" transform="translate(0.01 -21.92)"/><path class="cls-5" d="M22.05,94.24V90.87h.51v.51a1.55,1.55,0,0,1,.37-.47.6.6,0,0,1,.36-.12,1.14,1.14,0,0,1,.59.19l-.2.53a.81.81,0,0,0-.41-.12.51.51,0,0,0-.34.11.58.58,0,0,0-.21.31,2,2,0,0,0-.1.67v1.76Z" transform="translate(0.01 -21.92)"/><path class="cls-5" d="M26.43,94.24v-.49a1.23,1.23,0,0,1-1.07.57,1.34,1.34,0,0,1-.56-.12.88.88,0,0,1-.38-.28,1.3,1.3,0,0,1-.18-.43,3.33,3.33,0,0,1,0-.53V90.87h.57v1.87a3.77,3.77,0,0,0,0,.6.68.68,0,0,0,.23.36.75.75,0,0,0,.43.13.93.93,0,0,0,.49-.14.73.73,0,0,0,.32-.35,1.94,1.94,0,0,0,.09-.66V90.87h.57v3.37Z" transform="translate(0.01 -21.92)"/><path class="cls-5" d="M27.84,94.24V90.87h.51v.48a1.21,1.21,0,0,1,1.07-.56,1.43,1.43,0,0,1,.56.11,1,1,0,0,1,.39.29,1.13,1.13,0,0,1,.17.42,3.51,3.51,0,0,1,0,.56v2.07H30v-2a1.67,1.67,0,0,0-.06-.52.6.6,0,0,0-.24-.28.74.74,0,0,0-.4-.1,1,1,0,0,0-.63.23,1.18,1.18,0,0,0-.26.88v1.84Z" transform="translate(0.01 -21.92)"/><path class="cls-5" d="M31.45,94.24V90.87H32v.48A1.2,1.2,0,0,1,33,90.79a1.47,1.47,0,0,1,.56.11.89.89,0,0,1,.38.29,1.33,1.33,0,0,1,.18.42,3.51,3.51,0,0,1,0,.56v2.07h-.57v-2a1.38,1.38,0,0,0-.07-.52.53.53,0,0,0-.23-.28.77.77,0,0,0-.4-.1.92.92,0,0,0-.63.23,1.14,1.14,0,0,0-.27.88v1.84Z" transform="translate(0.01 -21.92)"/><path class="cls-5" d="M35.07,90.25v-.66h.57v.66Zm0,4V90.87h.57v3.37Z" transform="translate(0.01 -21.92)"/><path class="cls-5" d="M36.51,94.24V90.87H37v.48a1.23,1.23,0,0,1,1.08-.56,1.47,1.47,0,0,1,.56.11.89.89,0,0,1,.38.29,1.33,1.33,0,0,1,.18.42,3.51,3.51,0,0,1,0,.56v2.07h-.57v-2a1.38,1.38,0,0,0-.07-.52.5.5,0,0,0-.24-.28.71.71,0,0,0-.39-.1.92.92,0,0,0-.63.23,1.14,1.14,0,0,0-.27.88v1.84Z" transform="translate(0.01 -21.92)"/><path class="cls-5" d="M40,94.52l.56.08a.52.52,0,0,0,.19.38,1,1,0,0,0,.58.16A1.05,1.05,0,0,0,42,95a.77.77,0,0,0,.29-.45,3.49,3.49,0,0,0,0-.73,1.19,1.19,0,0,1-.94.44,1.27,1.27,0,0,1-1.07-.5,1.87,1.87,0,0,1-.38-1.2,2.17,2.17,0,0,1,.17-.89,1.37,1.37,0,0,1,1.29-.86,1.23,1.23,0,0,1,1,.49v-.41h.53v2.91a2.9,2.9,0,0,1-.16,1.12,1.22,1.22,0,0,1-.51.52,1.74,1.74,0,0,1-.86.19,1.61,1.61,0,0,1-1-.27A.92.92,0,0,1,40,94.52Zm.47-2a1.41,1.41,0,0,0,.27,1,.81.81,0,0,0,.66.31.85.85,0,0,0,.66-.3,1.48,1.48,0,0,0,.26-1,1.41,1.41,0,0,0-.27-.94.83.83,0,0,0-.66-.31.81.81,0,0,0-.65.31A1.35,1.35,0,0,0,40.49,92.5Z" transform="translate(0.01 -21.92)"/><path class="cls-5" d="M45.54,94.24V90.87h.51v.51a1.55,1.55,0,0,1,.37-.47.6.6,0,0,1,.36-.12,1.14,1.14,0,0,1,.59.19l-.2.53a.83.83,0,0,0-.41-.12.51.51,0,0,0-.34.11.58.58,0,0,0-.21.31,2,2,0,0,0-.1.67v1.76Z" transform="translate(0.01 -21.92)"/><path class="cls-5" d="M49.91,93.83a2.32,2.32,0,0,1-.61.38,1.9,1.9,0,0,1-.63.11,1.2,1.2,0,0,1-.85-.27.91.91,0,0,1-.3-.7.88.88,0,0,1,.11-.45.85.85,0,0,1,.29-.33,1.79,1.79,0,0,1,.42-.19l.5-.08a5.33,5.33,0,0,0,1-.2c0-.08,0-.13,0-.15a.63.63,0,0,0-.17-.49.94.94,0,0,0-.65-.19,1,1,0,0,0-.59.14.89.89,0,0,0-.29.5l-.55-.08a1.34,1.34,0,0,1,.25-.58,1.11,1.11,0,0,1,.5-.34,2.26,2.26,0,0,1,.77-.12,2,2,0,0,1,.7.11.82.82,0,0,1,.39.25.79.79,0,0,1,.18.39,3.08,3.08,0,0,1,0,.53v.76a6.89,6.89,0,0,0,0,1,1.19,1.19,0,0,0,.14.4H50A1.64,1.64,0,0,1,49.91,93.83Zm0-1.28a4.56,4.56,0,0,1-.93.22,2.12,2.12,0,0,0-.5.11.41.41,0,0,0-.22.19.43.43,0,0,0-.08.27.47.47,0,0,0,.17.38.74.74,0,0,0,.51.15,1.21,1.21,0,0,0,.58-.14.92.92,0,0,0,.38-.4,1.41,1.41,0,0,0,.09-.57Z" transform="translate(0.01 -21.92)"/><path class="cls-5" d="M51.33,94.24V90.87h.51v.48a1.21,1.21,0,0,1,1.07-.56,1.43,1.43,0,0,1,.56.11.89.89,0,0,1,.38.29,1,1,0,0,1,.18.42,3.51,3.51,0,0,1,0,.56v2.07h-.57v-2a1.67,1.67,0,0,0-.06-.52.6.6,0,0,0-.24-.28.74.74,0,0,0-.4-.1,1,1,0,0,0-.63.23,1.14,1.14,0,0,0-.26.88v1.84Z" transform="translate(0.01 -21.92)"/><path class="cls-5" d="M54.84,94.52l.55.08a.56.56,0,0,0,.19.38,1,1,0,0,0,.59.16,1.08,1.08,0,0,0,.61-.16.82.82,0,0,0,.29-.45,3.76,3.76,0,0,0,0-.73,1.18,1.18,0,0,1-.93.44,1.29,1.29,0,0,1-1.08-.5,1.93,1.93,0,0,1-.38-1.2,2.18,2.18,0,0,1,.18-.89,1.28,1.28,0,0,1,.5-.63,1.35,1.35,0,0,1,.78-.23,1.23,1.23,0,0,1,1,.49v-.41h.52v2.91a2.72,2.72,0,0,1-.16,1.12,1.16,1.16,0,0,1-.51.52,1.7,1.7,0,0,1-.85.19,1.65,1.65,0,0,1-1-.27A.94.94,0,0,1,54.84,94.52Zm.47-2a1.47,1.47,0,0,0,.26,1,.83.83,0,0,0,.66.31.85.85,0,0,0,.66-.3,1.42,1.42,0,0,0,.27-1,1.35,1.35,0,0,0-.28-.94.83.83,0,0,0-.66-.31.79.79,0,0,0-.64.31A1.35,1.35,0,0,0,55.31,92.5Z" transform="translate(0.01 -21.92)"/><path class="cls-5" d="M60.86,93.16l.59.07a1.43,1.43,0,0,1-.51.8,1.6,1.6,0,0,1-1,.29,1.52,1.52,0,0,1-1.17-.46,1.77,1.77,0,0,1-.44-1.28,1.9,1.9,0,0,1,.44-1.32,1.49,1.49,0,0,1,1.14-.47,1.45,1.45,0,0,1,1.1.46,1.82,1.82,0,0,1,.43,1.3v.15H59a1.26,1.26,0,0,0,.31.85.92.92,0,0,0,.7.3.89.89,0,0,0,.54-.17A1,1,0,0,0,60.86,93.16ZM59,92.23h1.88a1.21,1.21,0,0,0-.22-.64.86.86,0,0,0-.7-.33.9.9,0,0,0-.67.27A1.07,1.07,0,0,0,59,92.23Z" transform="translate(0.01 -21.92)"/><rect class="繝後Μ_逋ｽ" x="20.17" y="96.64" width="41.46" height="16.58"/><path class="cls-5" d="M25.55,123.29l.62.16a2.09,2.09,0,0,1-.7,1.15,1.91,1.91,0,0,1-1.23.4,2.23,2.23,0,0,1-1.22-.3,1.93,1.93,0,0,1-.72-.89,3.07,3.07,0,0,1-.25-1.25,2.7,2.7,0,0,1,.28-1.27,1.9,1.9,0,0,1,.79-.82,2.28,2.28,0,0,1,1.13-.28,1.93,1.93,0,0,1,1.17.35,1.87,1.87,0,0,1,.67,1l-.61.14A1.46,1.46,0,0,0,25,121a1.21,1.21,0,0,0-.77-.23,1.52,1.52,0,0,0-.9.25,1.46,1.46,0,0,0-.51.69,3,3,0,0,0-.14.9,2.71,2.71,0,0,0,.17,1,1.3,1.3,0,0,0,.54.67,1.53,1.53,0,0,0,.79.21,1.31,1.31,0,0,0,.87-.29A1.58,1.58,0,0,0,25.55,123.29Z" transform="translate(0.01 -21.92)"/><path class="cls-5" d="M26.64,123.24a1.73,1.73,0,0,1,.52-1.39,1.56,1.56,0,0,1,1.06-.37,1.51,1.51,0,0,1,1.13.45,1.7,1.7,0,0,1,.45,1.26,2.22,2.22,0,0,1-.2,1,1.39,1.39,0,0,1-.57.58,1.63,1.63,0,0,1-.81.21,1.52,1.52,0,0,1-1.15-.46A1.79,1.79,0,0,1,26.64,123.24Zm.59,0a1.44,1.44,0,0,0,.28,1,.94.94,0,0,0,1.42,0,1.49,1.49,0,0,0,.28-1,1.38,1.38,0,0,0-.29-1,.91.91,0,0,0-.7-.32.88.88,0,0,0-.71.32A1.41,1.41,0,0,0,27.23,123.24Z" transform="translate(0.01 -21.92)"/><path class="cls-5" d="M30.47,124.92v-3.37H31V122a1.2,1.2,0,0,1,1.07-.55,1.43,1.43,0,0,1,.56.1,1,1,0,0,1,.39.29,1.13,1.13,0,0,1,.17.42,3.6,3.6,0,0,1,0,.56v2.07h-.57v-2a1.67,1.67,0,0,0-.06-.52.6.6,0,0,0-.24-.28.74.74,0,0,0-.4-.1,1,1,0,0,0-.63.23,1.18,1.18,0,0,0-.26.88v1.84Z" transform="translate(0.01 -21.92)"/><path class="cls-5" d="M35.33,124.41l.08.51a2.37,2.37,0,0,1-.43,0,1,1,0,0,1-.48-.1.57.57,0,0,1-.25-.26,2.27,2.27,0,0,1-.07-.68V122h-.41v-.45h.41v-.83l.57-.35v1.18h.58V122h-.58v2a1,1,0,0,0,0,.31.27.27,0,0,0,.1.11.37.37,0,0,0,.2,0A1.29,1.29,0,0,0,35.33,124.41Z" transform="translate(0.01 -21.92)"/><path class="cls-5" d="M35.89,120.93v-.66h.57v.66Zm0,4v-3.37h.57v3.37Z" transform="translate(0.01 -21.92)"/><path class="cls-5" d="M37.33,124.92v-3.37h.52V122a1.19,1.19,0,0,1,1.07-.55,1.47,1.47,0,0,1,.56.1.89.89,0,0,1,.38.29,1.33,1.33,0,0,1,.18.42,3.6,3.6,0,0,1,0,.56v2.07H39.5v-2a1.38,1.38,0,0,0-.07-.52.5.5,0,0,0-.24-.28.71.71,0,0,0-.39-.1.92.92,0,0,0-.63.23,1.14,1.14,0,0,0-.27.88v1.84Z" transform="translate(0.01 -21.92)"/><path class="cls-5" d="M43.15,124.92v-.49a1.22,1.22,0,0,1-1.06.57,1.31,1.31,0,0,1-.56-.12,1,1,0,0,1-.39-.28,1.11,1.11,0,0,1-.17-.43,2.3,2.3,0,0,1,0-.53v-2.09h.57v1.87a3.41,3.41,0,0,0,0,.6.58.58,0,0,0,.23.36.73.73,0,0,0,.43.13,1,1,0,0,0,.48-.13A.74.74,0,0,0,43,124a1.9,1.9,0,0,0,.09-.66v-1.81h.58v3.37Z" transform="translate(0.01 -21.92)"/><path class="cls-5" d="M44.35,123.24a1.73,1.73,0,0,1,.52-1.39,1.56,1.56,0,0,1,1.06-.37,1.51,1.51,0,0,1,1.13.45,1.7,1.7,0,0,1,.45,1.26,2.22,2.22,0,0,1-.2,1,1.39,1.39,0,0,1-.57.58,1.63,1.63,0,0,1-.81.21,1.52,1.52,0,0,1-1.15-.46A1.79,1.79,0,0,1,44.35,123.24Zm.59,0a1.44,1.44,0,0,0,.28,1,.94.94,0,0,0,1.42,0,1.49,1.49,0,0,0,.28-1,1.38,1.38,0,0,0-.29-1,.91.91,0,0,0-.7-.32.88.88,0,0,0-.71.32A1.41,1.41,0,0,0,44.94,123.24Z" transform="translate(0.01 -21.92)"/><path class="cls-5" d="M50.38,124.92v-.49a1.22,1.22,0,0,1-1.06.57,1.31,1.31,0,0,1-.56-.12,1,1,0,0,1-.39-.28,1.11,1.11,0,0,1-.17-.43,2.3,2.3,0,0,1,0-.53v-2.09h.57v1.87a3.41,3.41,0,0,0,0,.6.58.58,0,0,0,.23.36.73.73,0,0,0,.43.13,1,1,0,0,0,.48-.13.74.74,0,0,0,.32-.36,1.9,1.9,0,0,0,.09-.66v-1.81h.58v3.37Z" transform="translate(0.01 -21.92)"/><path class="cls-5" d="M51.56,123.92l.57-.09a.81.81,0,0,0,.26.52.94.94,0,0,0,.61.18.86.86,0,0,0,.58-.16.47.47,0,0,0,.19-.38.33.33,0,0,0-.16-.3,2.64,2.64,0,0,0-.59-.2,4.57,4.57,0,0,1-.87-.27.81.81,0,0,1-.49-.77.89.89,0,0,1,.38-.74,1.21,1.21,0,0,1,.36-.17,2,2,0,0,1,.5-.06,1.85,1.85,0,0,1,.69.11,1,1,0,0,1,.45.31,1.18,1.18,0,0,1,.19.52l-.55.08a.64.64,0,0,0-.22-.41.82.82,0,0,0-.52-.14,1,1,0,0,0-.56.12.4.4,0,0,0-.17.31.31.31,0,0,0,.07.2.53.53,0,0,0,.22.15l.5.15a7.22,7.22,0,0,1,.85.26.85.85,0,0,1,.37.3.79.79,0,0,1,.14.49.91.91,0,0,1-.17.54,1,1,0,0,1-.48.39A1.76,1.76,0,0,1,53,125a1.61,1.61,0,0,1-1-.27A1.34,1.34,0,0,1,51.56,123.92Z" transform="translate(0.01 -21.92)"/><path class="cls-5" d="M22.15,132.72v-3.37h.51v.51a1.55,1.55,0,0,1,.37-.47.59.59,0,0,1,.36-.11,1.12,1.12,0,0,1,.59.18l-.2.53a.78.78,0,0,0-.41-.12A.51.51,0,0,0,23,130a.58.58,0,0,0-.21.31,2,2,0,0,0-.1.67v1.76Z" transform="translate(0.01 -21.92)"/><path class="cls-5" d="M26.53,132.72v-.49a1.23,1.23,0,0,1-1.07.57,1.34,1.34,0,0,1-.56-.12.88.88,0,0,1-.38-.28,1.3,1.3,0,0,1-.18-.43,3.33,3.33,0,0,1,0-.53v-2.09h.57v1.87a3.77,3.77,0,0,0,0,.6.68.68,0,0,0,.23.36.76.76,0,0,0,.44.13,1,1,0,0,0,.48-.13.79.79,0,0,0,.32-.36,1.9,1.9,0,0,0,.09-.66v-1.81H27v3.37Z" transform="translate(0.01 -21.92)"/><path class="cls-5" d="M27.94,132.72v-3.37h.51v.48a1.2,1.2,0,0,1,1.07-.55,1.43,1.43,0,0,1,.56.1,1,1,0,0,1,.39.29,1.13,1.13,0,0,1,.17.42,3.6,3.6,0,0,1,0,.56v2.07H30.1v-2.05a1.67,1.67,0,0,0-.06-.52.6.6,0,0,0-.24-.28.72.72,0,0,0-.4-.1,1,1,0,0,0-.63.23,1.18,1.18,0,0,0-.26.88v1.84Z" transform="translate(0.01 -21.92)"/><path class="cls-5" d="M31.55,132.72v-3.37h.51v.48a1.22,1.22,0,0,1,1.08-.55,1.47,1.47,0,0,1,.56.1.89.89,0,0,1,.38.29,1.33,1.33,0,0,1,.18.42,3.6,3.6,0,0,1,0,.56v2.07h-.57v-2.05a1.38,1.38,0,0,0-.07-.52.53.53,0,0,0-.23-.28.77.77,0,0,0-.4-.1.92.92,0,0,0-.63.23,1.14,1.14,0,0,0-.27.88v1.84Z" transform="translate(0.01 -21.92)"/><path class="cls-5" d="M35.17,128.73v-.66h.57v.66Zm0,4v-3.37h.57v3.37Z" transform="translate(0.01 -21.92)"/><path class="cls-5" d="M36.61,132.72v-3.37h.51v.48a1.22,1.22,0,0,1,1.08-.55,1.47,1.47,0,0,1,.56.1,1,1,0,0,1,.38.29,1.33,1.33,0,0,1,.18.42,3.6,3.6,0,0,1,0,.56v2.07h-.57v-2.05a1.38,1.38,0,0,0-.07-.52.5.5,0,0,0-.24-.28.71.71,0,0,0-.39-.1.92.92,0,0,0-.63.23,1.14,1.14,0,0,0-.27.88v1.84Z" transform="translate(0.01 -21.92)"/><path class="cls-5" d="M40.12,133l.56.08a.5.5,0,0,0,.19.38,1,1,0,0,0,.58.16,1.05,1.05,0,0,0,.61-.16.77.77,0,0,0,.29-.45,3.49,3.49,0,0,0,0-.73,1.16,1.16,0,0,1-.94.44,1.27,1.27,0,0,1-1.07-.5A1.87,1.87,0,0,1,40,131a2.17,2.17,0,0,1,.17-.89,1.4,1.4,0,0,1,.51-.63,1.35,1.35,0,0,1,.78-.22,1.22,1.22,0,0,1,1,.48v-.41H43v2.92a2.88,2.88,0,0,1-.16,1.11,1.22,1.22,0,0,1-.51.52,1.74,1.74,0,0,1-.86.19,1.61,1.61,0,0,1-1-.27A.92.92,0,0,1,40.12,133Zm.47-2a1.41,1.41,0,0,0,.27,1,.81.81,0,0,0,.66.31.85.85,0,0,0,.66-.3,1.48,1.48,0,0,0,.26-.95,1.41,1.41,0,0,0-.27-.94.83.83,0,0,0-.66-.31.81.81,0,0,0-.65.31A1.35,1.35,0,0,0,40.59,131Z" transform="translate(0.01 -21.92)"/><path class="cls-5" d="M45.64,132.72v-3.37h.51v.51a1.41,1.41,0,0,1,.37-.47.59.59,0,0,1,.36-.11,1.12,1.12,0,0,1,.59.18l-.2.53a.84.84,0,0,0-.42-.12.51.51,0,0,0-.33.11.58.58,0,0,0-.21.31,2,2,0,0,0-.1.67v1.76Z" transform="translate(0.01 -21.92)"/><path class="cls-5" d="M50,132.31a2.32,2.32,0,0,1-.61.38,1.9,1.9,0,0,1-.63.11,1.25,1.25,0,0,1-.86-.27.93.93,0,0,1-.29-.7.88.88,0,0,1,.11-.45.92.92,0,0,1,.29-.33,1.79,1.79,0,0,1,.42-.19l.5-.08a5.17,5.17,0,0,0,1-.2c0-.08,0-.13,0-.15a.63.63,0,0,0-.17-.49.94.94,0,0,0-.65-.19,1,1,0,0,0-.59.14.89.89,0,0,0-.29.5l-.55-.08a1.34,1.34,0,0,1,.25-.58,1.11,1.11,0,0,1,.5-.34,2.27,2.27,0,0,1,.77-.11,2,2,0,0,1,.7.1.8.8,0,0,1,.57.64,3.08,3.08,0,0,1,0,.53v.76a6.89,6.89,0,0,0,0,1,1.19,1.19,0,0,0,.14.4h-.6A1.64,1.64,0,0,1,50,132.31ZM50,131a4,4,0,0,1-.93.22,2.12,2.12,0,0,0-.5.11.41.41,0,0,0-.22.19.43.43,0,0,0-.08.27.47.47,0,0,0,.17.38.74.74,0,0,0,.51.15,1.21,1.21,0,0,0,.58-.14.92.92,0,0,0,.38-.4,1.41,1.41,0,0,0,.09-.57Z" transform="translate(0.01 -21.92)"/><path class="cls-5" d="M51.43,132.72v-3.37h.51v.48a1.2,1.2,0,0,1,1.07-.55,1.43,1.43,0,0,1,.56.1,1,1,0,0,1,.39.29,1.13,1.13,0,0,1,.17.42,3.6,3.6,0,0,1,0,.56v2.07h-.57v-2.05a1.67,1.67,0,0,0-.06-.52.6.6,0,0,0-.24-.28.74.74,0,0,0-.4-.1,1,1,0,0,0-.63.23,1.18,1.18,0,0,0-.26.88v1.84Z" transform="translate(0.01 -21.92)"/><path class="cls-5" d="M54.94,133l.55.08a.53.53,0,0,0,.19.38,1,1,0,0,0,.59.16,1.08,1.08,0,0,0,.61-.16.82.82,0,0,0,.29-.45,3.76,3.76,0,0,0,0-.73,1.15,1.15,0,0,1-.93.44,1.3,1.3,0,0,1-1.08-.5,1.93,1.93,0,0,1-.38-1.2,2.18,2.18,0,0,1,.18-.89,1.32,1.32,0,0,1,.5-.63,1.35,1.35,0,0,1,.78-.22,1.22,1.22,0,0,1,1,.48v-.41h.52v2.92a2.7,2.7,0,0,1-.16,1.11,1.11,1.11,0,0,1-.51.52,1.7,1.7,0,0,1-.85.19,1.65,1.65,0,0,1-1-.27A.94.94,0,0,1,54.94,133Zm.47-2a1.47,1.47,0,0,0,.26,1,.83.83,0,0,0,.66.31A.85.85,0,0,0,57,132a1.42,1.42,0,0,0,.27-.95,1.35,1.35,0,0,0-.28-.94.83.83,0,0,0-.66-.31.79.79,0,0,0-.64.31A1.35,1.35,0,0,0,55.41,131Z" transform="translate(0.01 -21.92)"/><path class="cls-5" d="M61,131.64l.59.07a1.43,1.43,0,0,1-.51.8,1.6,1.6,0,0,1-1,.29,1.52,1.52,0,0,1-1.17-.46,1.77,1.77,0,0,1-.44-1.27,1.86,1.86,0,0,1,.44-1.32,1.46,1.46,0,0,1,1.14-.47,1.41,1.41,0,0,1,1.1.46,1.78,1.78,0,0,1,.43,1.29v.15H59.06a1.26,1.26,0,0,0,.31.85.92.92,0,0,0,.7.3.89.89,0,0,0,.54-.17A1,1,0,0,0,61,131.64Zm-1.87-.93H61a1.14,1.14,0,0,0-.22-.63.83.83,0,0,0-.7-.33.9.9,0,0,0-.67.26A1,1,0,0,0,59.09,130.71Z" transform="translate(0.01 -21.92)"/><path class="cls-5" d="M44.05,150.56l.58-.06a1.32,1.32,0,0,0,.19.58,1,1,0,0,0,.47.36,1.8,1.8,0,0,0,.71.14,1.73,1.73,0,0,0,.63-.11.82.82,0,0,0,.4-.29.63.63,0,0,0,.13-.39.59.59,0,0,0-.13-.39.92.92,0,0,0-.42-.27c-.12,0-.4-.12-.82-.23a4.09,4.09,0,0,1-.9-.29,1.26,1.26,0,0,1-.5-.43,1.06,1.06,0,0,1-.16-.58,1.16,1.16,0,0,1,.2-.66,1.22,1.22,0,0,1,.58-.46,2.15,2.15,0,0,1,.85-.16,2.4,2.4,0,0,1,.92.16,1.49,1.49,0,0,1,.61.49,1.46,1.46,0,0,1,.22.74l-.59,0a1,1,0,0,0-.32-.66,1.24,1.24,0,0,0-.81-.23,1.27,1.27,0,0,0-.81.21.61.61,0,0,0-.26.49A.52.52,0,0,0,45,149a2.39,2.39,0,0,0,.93.33,7.58,7.58,0,0,1,1,.3,1.47,1.47,0,0,1,.6.47,1.19,1.19,0,0,1,.19.67,1.3,1.3,0,0,1-.21.7,1.41,1.41,0,0,1-.61.51,2.16,2.16,0,0,1-.9.18A2.76,2.76,0,0,1,45,152a1.56,1.56,0,0,1-.92-1.39Z" transform="translate(0.01 -21.92)"/><path class="cls-5" d="M48.52,153.34v-4.66H49v.44a1.29,1.29,0,0,1,.42-.39,1.19,1.19,0,0,1,.56-.13,1.31,1.31,0,0,1,.76.23,1.29,1.29,0,0,1,.5.62,2.35,2.35,0,0,1,.17.89,2.18,2.18,0,0,1-.19.93,1.36,1.36,0,0,1-.54.64,1.42,1.42,0,0,1-.74.22,1.07,1.07,0,0,1-.51-.12,1.17,1.17,0,0,1-.38-.31v1.64Zm.52-3a1.52,1.52,0,0,0,.26,1,.84.84,0,0,0,.64.31.82.82,0,0,0,.65-.33,1.94,1.94,0,0,0,0-2,.79.79,0,0,0-1.28,0A1.52,1.52,0,0,0,49,150.38Z" transform="translate(0.01 -21.92)"/><path class="cls-5" d="M54.44,151,55,151a1.43,1.43,0,0,1-.51.8,1.6,1.6,0,0,1-1,.29,1.56,1.56,0,0,1-1.17-.46,1.77,1.77,0,0,1-.43-1.28,1.89,1.89,0,0,1,.43-1.32,1.51,1.51,0,0,1,1.14-.47,1.45,1.45,0,0,1,1.1.46,1.82,1.82,0,0,1,.43,1.3v.15H52.54a1.28,1.28,0,0,0,.31.85.93.93,0,0,0,.71.3.88.88,0,0,0,.53-.17A1,1,0,0,0,54.44,151ZM52.57,150h1.88a1.18,1.18,0,0,0-.22-.64.86.86,0,0,0-.7-.33.9.9,0,0,0-.67.27A1.07,1.07,0,0,0,52.57,150Z" transform="translate(0.01 -21.92)"/><path class="cls-5" d="M58.06,151l.59.08a1.44,1.44,0,0,1-.52.8,1.54,1.54,0,0,1-1,.29,1.57,1.57,0,0,1-1.18-.46,1.82,1.82,0,0,1-.43-1.28,1.9,1.9,0,0,1,.44-1.32,1.49,1.49,0,0,1,1.14-.47,1.46,1.46,0,0,1,1.1.46,1.82,1.82,0,0,1,.43,1.3,1,1,0,0,1,0,.15H56.15a1.29,1.29,0,0,0,.32.85.91.91,0,0,0,.7.3.89.89,0,0,0,.54-.17A1.14,1.14,0,0,0,58.06,151ZM56.18,150h1.89a1.18,1.18,0,0,0-.22-.64.88.88,0,0,0-.71-.33.9.9,0,0,0-.66.27A1,1,0,0,0,56.18,150Z" transform="translate(0.01 -21.92)"/><path class="cls-5" d="M61.55,152.05v-.43a1,1,0,0,1-.94.51,1.3,1.3,0,0,1-.74-.23,1.33,1.33,0,0,1-.52-.62,2,2,0,0,1-.19-.91,2.47,2.47,0,0,1,.17-.92,1.37,1.37,0,0,1,.5-.63,1.43,1.43,0,0,1,.76-.22,1.2,1.2,0,0,1,.54.13,1.17,1.17,0,0,1,.39.34V147.4h.56v4.65Zm-1.8-1.68a1.5,1.5,0,0,0,.27,1,.83.83,0,0,0,.64.32.82.82,0,0,0,.64-.31,1.38,1.38,0,0,0,.26-.93,1.64,1.64,0,0,0-.26-1,.81.81,0,0,0-.66-.32.79.79,0,0,0-.64.31A1.52,1.52,0,0,0,59.75,150.37Z" transform="translate(0.01 -21.92)"/><path class="cls-5" d="M64.8,153.34V147.4h1.26v.47h-.69v5h.69v.47Z" transform="translate(0.01 -21.92)"/><path class="cls-5" d="M66.59,152.05v-3.37h.51v.51a1.31,1.31,0,0,1,.36-.47.65.65,0,0,1,.37-.12,1.08,1.08,0,0,1,.59.19l-.2.53a.76.76,0,0,0-.42-.13.52.52,0,0,0-.33.12.65.65,0,0,0-.22.31,2.31,2.31,0,0,0-.09.67v1.76Z" transform="translate(0.01 -21.92)"/><path class="cls-5" d="M68.33,152.13l1.35-4.81h.46l-1.35,4.81Z" transform="translate(0.01 -21.92)"/><path class="cls-5" d="M70.56,152.05v-3.37h.51v.47a1.27,1.27,0,0,1,.43-.4,1.16,1.16,0,0,1,.6-.15,1.13,1.13,0,0,1,.61.16.86.86,0,0,1,.34.43,1.22,1.22,0,0,1,1-.59,1.05,1.05,0,0,1,.77.28,1.2,1.2,0,0,1,.27.86v2.31h-.57v-2.12a1.91,1.91,0,0,0,0-.5.52.52,0,0,0-.2-.24.68.68,0,0,0-.35-.09.81.81,0,0,0-.59.24,1,1,0,0,0-.23.75v2h-.57v-2.19a1,1,0,0,0-.14-.57.54.54,0,0,0-.46-.19.81.81,0,0,0-.45.13.69.69,0,0,0-.29.37,2,2,0,0,0-.1.7v1.75Z" transform="translate(0.01 -21.92)"/><path class="cls-5" d="M76,148.05v-.65h.57v.65Zm0,4v-3.37h.57v3.37Z" transform="translate(0.01 -21.92)"/><path class="cls-5" d="M77.42,152.05v-3.37h.52v.48A1.2,1.2,0,0,1,79,148.6a1.47,1.47,0,0,1,.56.11A.89.89,0,0,1,80,149a1,1,0,0,1,.18.42,3.51,3.51,0,0,1,0,.56v2.07h-.57V150a1.38,1.38,0,0,0-.07-.52.53.53,0,0,0-.23-.28.77.77,0,0,0-.4-.1,1,1,0,0,0-.63.23,1.13,1.13,0,0,0-.27.88v1.84Z" transform="translate(0.01 -21.92)"/><path class="cls-5" d="M82,153.34H80.73v-.47h.69v-5h-.69v-.47H82Z" transform="translate(0.01 -21.92)"/></g></svg>