<svg xmlns="http://www.w3.org/2000/svg" viewBox="0 0 116.59 131.42"><defs><style>.cls-1,.cls-2,.cls-3,.cls-5,.cls-6,.邱喟0\.5pt-6{fill:none;}.cls-1,.cls-2,.cls-5,.cls-6,.邱喟0\.5pt-6{stroke:#231815;}.cls-1{stroke-linejoin:round;stroke-width:0.14px;}.cls-2,.cls-3,.cls-5,.cls-6,.邱喟0\.5pt-6{stroke-miterlimit:10;}.cls-2{stroke-width:0.14px;}.cls-3{stroke:#9fa0a0;stroke-width:3px;}.cls-4{fill:#231815;}.cls-5,.cls-6{stroke-width:1px;}.cls-6{stroke-dasharray:3.06 1.48;}.邱喟0\.5pt-6{stroke-width:0.5px;}.cls-7{fill:#fff;}</style></defs><g id="Illust"><line class="cls-1" x1="45.52" y1="2.18" x2="45.52" y2="115.56"/><line class="cls-1" x1="72.59" y1="2.18" x2="72.59" y2="115.56"/><line class="cls-1" x1="99.67" y1="2.18" x2="99.67" y2="115.56"/><line class="cls-2" x1="18.44" y1="16.35" x2="109.15" y2="16.35"/><line class="cls-2" x1="18.44" y1="30.52" x2="109.15" y2="30.52"/><line class="cls-2" x1="18.44" y1="44.7" x2="109.15" y2="44.7"/><line class="cls-2" x1="18.44" y1="58.87" x2="109.15" y2="58.87"/><line class="cls-2" x1="18.44" y1="73.04" x2="109.15" y2="73.04"/><line class="cls-2" x1="18.44" y1="87.22" x2="109.15" y2="87.22"/><line class="cls-2" x1="18.44" y1="101.39" x2="109.15" y2="101.39"/><polyline class="cls-3" points="18.44 36.59 59.05 36.59 109.15 36.59"/><path class="cls-4" d="M17.24,141.38a3.52,3.52,0,0,1,.13-1,1.28,1.28,0,0,1,.39-.59,1.14,1.14,0,0,1,1.15-.1.9.9,0,0,1,.36.34,1.73,1.73,0,0,1,.23.53,3.72,3.72,0,0,1,.08.84,3.52,3.52,0,0,1-.13,1,1.31,1.31,0,0,1-.39.6,1,1,0,0,1-.65.21,1,1,0,0,1-.81-.37A2.33,2.33,0,0,1,17.24,141.38Zm.45,0a2.25,2.25,0,0,0,.21,1.18.59.59,0,0,0,1,0,2.27,2.27,0,0,0,.2-1.18,2.23,2.23,0,0,0-.2-1.17.63.63,0,0,0-.52-.29.56.56,0,0,0-.48.26A2.24,2.24,0,0,0,17.69,141.38Z" transform="translate(0.01 -21.92)"/><path class="cls-4" d="M10.26,137.13a3.17,3.17,0,0,1,.14-1,1.22,1.22,0,0,1,.38-.6,1,1,0,0,1,.65-.21,1.07,1.07,0,0,1,.51.12,1.13,1.13,0,0,1,.36.33,2.25,2.25,0,0,1,.22.54,3.72,3.72,0,0,1,.08.84,3.2,3.2,0,0,1-.13,1,1.31,1.31,0,0,1-.39.6,1,1,0,0,1-.65.21,1,1,0,0,1-.81-.37A2.33,2.33,0,0,1,10.26,137.13Zm.46,0a2.38,2.38,0,0,0,.2,1.18.62.62,0,0,0,.51.29.61.61,0,0,0,.51-.3,3.36,3.36,0,0,0,0-2.34.6.6,0,0,0-.51-.29.57.57,0,0,0-.49.25A2.33,2.33,0,0,0,10.72,137.13Z" transform="translate(0.01 -21.92)"/><path class="cls-4" d="M13.29,138.9v-.5h.5v.5Z" transform="translate(0.01 -21.92)"/><path class="cls-4" d="M14.43,137.13a3.52,3.52,0,0,1,.13-1,1.31,1.31,0,0,1,.39-.6,1,1,0,0,1,.65-.21,1.07,1.07,0,0,1,.51.12,1.13,1.13,0,0,1,.36.33,2.25,2.25,0,0,1,.22.54,3.72,3.72,0,0,1,.08.84,3.2,3.2,0,0,1-.13,1,1.31,1.31,0,0,1-.39.6,1,1,0,0,1-.65.21,1,1,0,0,1-.81-.37A2.33,2.33,0,0,1,14.43,137.13Zm.46,0a2.38,2.38,0,0,0,.2,1.18.62.62,0,0,0,.51.29.61.61,0,0,0,.51-.3,3.36,3.36,0,0,0,0-2.34.6.6,0,0,0-.51-.29.57.57,0,0,0-.49.25A2.33,2.33,0,0,0,14.89,137.13Z" transform="translate(0.01 -21.92)"/><polyline class="cls-3" points="18.44 93.03 31.9 93.03 45.37 93.03 58.83 93.03 72.3 98.65 85.76 102.03 99.23 104.27 109.15 105.47"/><polyline class="cls-5" points="18.44 36.59 59.05 36.59 109.15 36.59"/><line class="cls-5" x1="18.44" y1="36.59" x2="19.99" y2="36.59"/><polyline class="cls-6" points="21.47 36.59 59.05 36.59 106.86 36.59"/><line class="cls-5" x1="107.6" y1="36.59" x2="109.15" y2="36.59"/><polyline class="cls-5" points="18.44 93.03 31.9 93.03 45.37 93.03 58.83 93.03 72.3 98.65 85.76 102.03 99.23 104.27 109.15 105.47"/><path class="cls-4" d="M10.23,123a3.2,3.2,0,0,1,.13-1,1.31,1.31,0,0,1,.39-.6,1.11,1.11,0,0,1,1.15-.09.88.88,0,0,1,.36.33,1.6,1.6,0,0,1,.22.53,3.25,3.25,0,0,1,.08.85,3.2,3.2,0,0,1-.13,1,1.24,1.24,0,0,1-.38.59,1,1,0,0,1-.65.22,1,1,0,0,1-.82-.38A2.37,2.37,0,0,1,10.23,123Zm.45,0a2.18,2.18,0,0,0,.21,1.17.59.59,0,0,0,1,0,3.52,3.52,0,0,0,0-2.34.61.61,0,0,0-.52-.3.56.56,0,0,0-.48.26A2.28,2.28,0,0,0,10.68,123Z" transform="translate(0.01 -21.92)"/><path class="cls-4" d="M13.29,124.72v-.5h.5v.5Z" transform="translate(0.01 -21.92)"/><path class="cls-4" d="M16.09,124.72h-.44v-2.8a1.83,1.83,0,0,1-.42.31,2.69,2.69,0,0,1-.46.22V122a3,3,0,0,0,.65-.42,1.79,1.79,0,0,0,.39-.48h.28Z" transform="translate(0.01 -21.92)"/><path class="cls-4" d="M10.23,108.79a3.23,3.23,0,0,1,.13-1,1.33,1.33,0,0,1,.39-.59,1,1,0,0,1,.65-.21,1.12,1.12,0,0,1,.5.11.9.9,0,0,1,.36.34,1.51,1.51,0,0,1,.22.53,3.25,3.25,0,0,1,.08.85,3.14,3.14,0,0,1-.13,1,1.22,1.22,0,0,1-.38.6,1.1,1.1,0,0,1-1.47-.16A2.39,2.39,0,0,1,10.23,108.79Zm.45,0a2.23,2.23,0,0,0,.21,1.17.59.59,0,0,0,1,0,3.55,3.55,0,0,0,0-2.35.63.63,0,0,0-.52-.29.56.56,0,0,0-.48.26A2.28,2.28,0,0,0,10.68,108.79Z" transform="translate(0.01 -21.92)"/><path class="cls-4" d="M13.29,110.55v-.5h.5v.5Z" transform="translate(0.01 -21.92)"/><path class="cls-4" d="M16.74,110.13v.42H14.38a.73.73,0,0,1,0-.3,1.62,1.62,0,0,1,.29-.48,3.81,3.81,0,0,1,.57-.54,4.48,4.48,0,0,0,.79-.76.9.9,0,0,0,.21-.53.58.58,0,0,0-.19-.44.67.67,0,0,0-.49-.18.65.65,0,0,0-.5.19.75.75,0,0,0-.2.53l-.45-.05a1.14,1.14,0,0,1,.35-.77,1.21,1.21,0,0,1,.81-.26,1.13,1.13,0,0,1,.82.28.94.94,0,0,1,.3.71,1.06,1.06,0,0,1-.09.42,1.51,1.51,0,0,1-.29.44,8.11,8.11,0,0,1-.68.63l-.51.45a1.88,1.88,0,0,0-.18.24Z" transform="translate(0.01 -21.92)"/><path class="cls-4" d="M10.23,94.61a3.2,3.2,0,0,1,.13-1,1.31,1.31,0,0,1,.39-.6,1.11,1.11,0,0,1,1.15-.09,1,1,0,0,1,.36.33,1.91,1.91,0,0,1,.22.54,4.23,4.23,0,0,1-.05,1.86,1.22,1.22,0,0,1-.38.6,1.1,1.1,0,0,1-1.47-.16A2.41,2.41,0,0,1,10.23,94.61Zm.45,0a2.25,2.25,0,0,0,.21,1.18.6.6,0,0,0,.51.29.61.61,0,0,0,.51-.3,3.52,3.52,0,0,0,0-2.34.6.6,0,0,0-.52-.29.56.56,0,0,0-.48.25A2.31,2.31,0,0,0,10.68,94.61Z" transform="translate(0.01 -21.92)"/><path class="cls-4" d="M13.29,96.38v-.5h.5v.5Z" transform="translate(0.01 -21.92)"/><path class="cls-4" d="M14.44,95.43l.44-.06a1,1,0,0,0,.25.54.66.66,0,0,0,.45.17.69.69,0,0,0,.52-.22.72.72,0,0,0,.21-.53.68.68,0,0,0-.19-.5.71.71,0,0,0-.51-.2,1.5,1.5,0,0,0-.31.05l0-.38h.07a1,1,0,0,0,.51-.14.51.51,0,0,0,.22-.46.54.54,0,0,0-.16-.4.6.6,0,0,0-.42-.15.59.59,0,0,0-.43.16.8.8,0,0,0-.22.48l-.44-.08a1.11,1.11,0,0,1,.37-.68,1.06,1.06,0,0,1,.71-.25,1.26,1.26,0,0,1,.54.13.9.9,0,0,1,.5.8.8.8,0,0,1-.12.43.94.94,0,0,1-.37.3.82.82,0,0,1,.49.3.93.93,0,0,1,.18.58,1.07,1.07,0,0,1-.34.8,1.24,1.24,0,0,1-.87.32,1.12,1.12,0,0,1-.78-.28A1.08,1.08,0,0,1,14.44,95.43Z" transform="translate(0.01 -21.92)"/><path class="cls-4" d="M10.23,80.6a3.23,3.23,0,0,1,.13-1,1.33,1.33,0,0,1,.39-.59,1,1,0,0,1,.65-.21,1.12,1.12,0,0,1,.5.11.9.9,0,0,1,.36.34,1.51,1.51,0,0,1,.22.53,3.25,3.25,0,0,1,.08.85,3.14,3.14,0,0,1-.13,1,1.22,1.22,0,0,1-.38.6,1.1,1.1,0,0,1-1.47-.16A2.39,2.39,0,0,1,10.23,80.6Zm.45,0a2.23,2.23,0,0,0,.21,1.17.59.59,0,0,0,1,0,3.55,3.55,0,0,0,0-2.35.63.63,0,0,0-.52-.29.56.56,0,0,0-.48.26A2.28,2.28,0,0,0,10.68,80.6Z" transform="translate(0.01 -21.92)"/><path class="cls-4" d="M13.29,82.36v-.5h.5v.5Z" transform="translate(0.01 -21.92)"/><path class="cls-4" d="M15.84,82.36V81.5H14.29v-.4l1.63-2.32h.36V81.1h.49v.4h-.49v.86Zm0-1.26V79.49L14.72,81.1Z" transform="translate(0.01 -21.92)"/><path class="cls-4" d="M10.23,66.27a3.23,3.23,0,0,1,.13-1,1.33,1.33,0,0,1,.39-.59,1,1,0,0,1,.65-.21,1.12,1.12,0,0,1,.5.11.9.9,0,0,1,.36.34,1.51,1.51,0,0,1,.22.53,3.25,3.25,0,0,1,.08.85,3.09,3.09,0,0,1-.13,1,1.22,1.22,0,0,1-.38.6,1.1,1.1,0,0,1-1.47-.16A2.39,2.39,0,0,1,10.23,66.27Zm.45,0a2.2,2.2,0,0,0,.21,1.17.59.59,0,0,0,1,0,3.55,3.55,0,0,0,0-2.35.63.63,0,0,0-.52-.29.56.56,0,0,0-.48.26A2.28,2.28,0,0,0,10.68,66.27Z" transform="translate(0.01 -21.92)"/><path class="cls-4" d="M13.29,68v-.5h.5V68Z" transform="translate(0.01 -21.92)"/><path class="cls-4" d="M14.44,67.09l.46,0a.81.81,0,0,0,.23.5.71.71,0,0,0,1-.07.88.88,0,0,0,.22-.63.84.84,0,0,0-.21-.6.74.74,0,0,0-.55-.21.86.86,0,0,0-.39.09.78.78,0,0,0-.26.25l-.42,0,.35-1.84h1.78v.42H15.21l-.19,1a1.14,1.14,0,0,1,.67-.22,1.11,1.11,0,0,1,.8.32,1.17,1.17,0,0,1,.32.84,1.32,1.32,0,0,1-.29.84,1.11,1.11,0,0,1-.94.43,1.15,1.15,0,0,1-.79-.27A1,1,0,0,1,14.44,67.09Z" transform="translate(0.01 -21.92)"/><path class="cls-4" d="M10.23,52.09a3.2,3.2,0,0,1,.13-1,1.31,1.31,0,0,1,.39-.6,1.11,1.11,0,0,1,1.15-.09,1,1,0,0,1,.36.33,1.65,1.65,0,0,1,.22.54,4.23,4.23,0,0,1-.05,1.86,1.22,1.22,0,0,1-.38.6,1.1,1.1,0,0,1-1.47-.16A2.41,2.41,0,0,1,10.23,52.09Zm.45,0a2.25,2.25,0,0,0,.21,1.18.59.59,0,0,0,1,0,2.38,2.38,0,0,0,.2-1.18,2.31,2.31,0,0,0-.2-1.17.63.63,0,0,0-.52-.29.56.56,0,0,0-.48.25A2.31,2.31,0,0,0,10.68,52.09Z" transform="translate(0.01 -21.92)"/><path class="cls-4" d="M13.29,53.86v-.5h.5v.5Z" transform="translate(0.01 -21.92)"/><path class="cls-4" d="M16.72,51.16l-.44,0a.9.9,0,0,0-.17-.38.59.59,0,0,0-.44-.18.67.67,0,0,0-.37.11,1,1,0,0,0-.32.45,2.37,2.37,0,0,0-.13.82,1.11,1.11,0,0,1,.39-.36,1.13,1.13,0,0,1,.48-.11,1,1,0,0,1,.75.32,1.15,1.15,0,0,1,.31.84,1.32,1.32,0,0,1-.15.62,1,1,0,0,1-.4.45,1.1,1.1,0,0,1-.57.15,1.15,1.15,0,0,1-.9-.4,2.07,2.07,0,0,1-.34-1.34,2.38,2.38,0,0,1,.38-1.51,1.1,1.1,0,0,1,.9-.41,1,1,0,0,1,.69.24A1,1,0,0,1,16.72,51.16Zm-1.8,1.54a.91.91,0,0,0,.1.43.7.7,0,0,0,.63.43.62.62,0,0,0,.48-.23.9.9,0,0,0,.2-.61.83.83,0,0,0-.2-.58.67.67,0,0,0-.5-.22.7.7,0,0,0-.5.22A.76.76,0,0,0,14.92,52.7Z" transform="translate(0.01 -21.92)"/><path class="cls-4" d="M10.23,37.92a3.2,3.2,0,0,1,.13-1,1.31,1.31,0,0,1,.39-.6,1.11,1.11,0,0,1,1.15-.09.88.88,0,0,1,.36.33,1.6,1.6,0,0,1,.22.53,3.25,3.25,0,0,1,.08.85,3.2,3.2,0,0,1-.13,1,1.24,1.24,0,0,1-.38.59,1,1,0,0,1-.65.22,1,1,0,0,1-.82-.38A2.37,2.37,0,0,1,10.23,37.92Zm.45,0a2.18,2.18,0,0,0,.21,1.17.59.59,0,0,0,1,0,2.31,2.31,0,0,0,.2-1.17,2.31,2.31,0,0,0-.2-1.17.6.6,0,0,0-.52-.29.56.56,0,0,0-.48.25A2.28,2.28,0,0,0,10.68,37.92Z" transform="translate(0.01 -21.92)"/><path class="cls-4" d="M13.29,39.69v-.51h.5v.51Z" transform="translate(0.01 -21.92)"/><path class="cls-4" d="M14.46,36.57v-.42h2.32v.34a5.42,5.42,0,0,0-.68,1,6.66,6.66,0,0,0-.52,1.24,4.88,4.88,0,0,0-.16,1H15a4.48,4.48,0,0,1,.17-1,5.64,5.64,0,0,1,.46-1.15,4.53,4.53,0,0,1,.63-.94Z" transform="translate(0.01 -21.92)"/><path class="cls-4" d="M10.23,23.75a3.23,3.23,0,0,1,.13-1,1.33,1.33,0,0,1,.39-.59,1,1,0,0,1,.65-.21,1.12,1.12,0,0,1,.5.11.9.9,0,0,1,.36.34,1.51,1.51,0,0,1,.22.53,3.25,3.25,0,0,1,.08.85,3.09,3.09,0,0,1-.13,1,1.22,1.22,0,0,1-.38.6,1.1,1.1,0,0,1-1.47-.16A2.39,2.39,0,0,1,10.23,23.75Zm.45,0a2.2,2.2,0,0,0,.21,1.17.59.59,0,0,0,1,0,2.36,2.36,0,0,0,.2-1.17,2.38,2.38,0,0,0-.2-1.18.63.63,0,0,0-.52-.29.56.56,0,0,0-.48.26A2.28,2.28,0,0,0,10.68,23.75Z" transform="translate(0.01 -21.92)"/><path class="cls-4" d="M13.29,25.51V25h.5v.5Z" transform="translate(0.01 -21.92)"/><path class="cls-4" d="M15.11,23.57a.82.82,0,0,1-.4-.28.77.77,0,0,1-.14-.45.91.91,0,0,1,.28-.66,1.09,1.09,0,0,1,.75-.26,1.07,1.07,0,0,1,.76.27.87.87,0,0,1,.28.66.74.74,0,0,1-.13.44.87.87,0,0,1-.4.28,1,1,0,0,1,.51.35,1,1,0,0,1,.17.57,1,1,0,0,1-.33.77,1.16,1.16,0,0,1-.85.31,1.2,1.2,0,0,1-.86-.31,1.06,1.06,0,0,1-.32-.78.94.94,0,0,1,.18-.59A.88.88,0,0,1,15.11,23.57Zm-.23.91a.77.77,0,0,0,.09.36.66.66,0,0,0,.27.28.78.78,0,0,0,.37.09.72.72,0,0,0,.52-.2.75.75,0,0,0,0-1,.72.72,0,0,0-.53-.21.72.72,0,0,0-.72.72ZM15,22.83a.55.55,0,0,0,.17.41.63.63,0,0,0,.84,0,.5.5,0,0,0,.16-.39.57.57,0,0,0-.17-.41.56.56,0,0,0-.41-.16.57.57,0,0,0-.42.16A.54.54,0,0,0,15,22.83Z" transform="translate(0.01 -21.92)"/><path class="cls-4" d="M108.19,140.45l-.44,0a.9.9,0,0,0-.17-.38.59.59,0,0,0-.44-.18.67.67,0,0,0-.37.11,1.11,1.11,0,0,0-.32.45,2.41,2.41,0,0,0-.13.82,1.11,1.11,0,0,1,.39-.36,1.13,1.13,0,0,1,.48-.11,1,1,0,0,1,.75.32,1.16,1.16,0,0,1,.31.84,1.32,1.32,0,0,1-.15.62,1.08,1.08,0,0,1-.39.45,1.14,1.14,0,0,1-.58.15,1.12,1.12,0,0,1-.9-.4,2.07,2.07,0,0,1-.34-1.34,2.33,2.33,0,0,1,.38-1.5,1.08,1.08,0,0,1,.9-.41,1,1,0,0,1,.69.23A1,1,0,0,1,108.19,140.45Zm-1.8,1.54a.91.91,0,0,0,.1.43.7.7,0,0,0,.63.43.62.62,0,0,0,.48-.23.9.9,0,0,0,.2-.61.83.83,0,0,0-.2-.58.66.66,0,0,0-.5-.21.69.69,0,0,0-.5.21A.76.76,0,0,0,106.39,142Z" transform="translate(0.01 -21.92)"/><path class="cls-4" d="M108.72,140v-.42H111V140a4.77,4.77,0,0,0-.68,1,5.79,5.79,0,0,0-.51,1.24,4.08,4.08,0,0,0-.17,1h-.45a4.4,4.4,0,0,1,.16-1,5.42,5.42,0,0,1,.46-1.15,4.79,4.79,0,0,1,.63-.94Z" transform="translate(0.01 -21.92)"/><path class="cls-4" d="M111.47,141.38a3.2,3.2,0,0,1,.13-1,1.2,1.2,0,0,1,.39-.59,1,1,0,0,1,.64-.21,1,1,0,0,1,.51.11,1.06,1.06,0,0,1,.36.34,1.73,1.73,0,0,1,.22.53,3.72,3.72,0,0,1,.08.84,3.2,3.2,0,0,1-.13,1,1.22,1.22,0,0,1-.38.6,1,1,0,0,1-.66.21,1,1,0,0,1-.81-.37A2.41,2.41,0,0,1,111.47,141.38Zm.45,0a2.25,2.25,0,0,0,.21,1.18.58.58,0,0,0,1,0,2.25,2.25,0,0,0,.21-1.18,2.18,2.18,0,0,0-.21-1.17.61.61,0,0,0-.51-.29.54.54,0,0,0-.48.26A2.15,2.15,0,0,0,111.92,141.38Z" transform="translate(0.01 -21.92)"/><path class="cls-4" d="M114.25,141.38a3.2,3.2,0,0,1,.13-1,1.28,1.28,0,0,1,.39-.59,1,1,0,0,1,.65-.21,1,1,0,0,1,.5.11.9.9,0,0,1,.36.34,1.73,1.73,0,0,1,.22.53,4.23,4.23,0,0,1,0,1.86,1.22,1.22,0,0,1-.38.6,1,1,0,0,1-.65.21,1,1,0,0,1-.82-.37A2.41,2.41,0,0,1,114.25,141.38Zm.45,0a2.25,2.25,0,0,0,.21,1.18.58.58,0,0,0,1,0,2.25,2.25,0,0,0,.21-1.18,2.18,2.18,0,0,0-.21-1.17.6.6,0,0,0-.51-.29.54.54,0,0,0-.48.26A2.24,2.24,0,0,0,114.7,141.38Z" transform="translate(0.01 -21.92)"/><path class="cls-4" d="M42.3,142.73v.42H39.94a.65.65,0,0,1,.05-.31,1.4,1.4,0,0,1,.29-.47,3.81,3.81,0,0,1,.57-.54,5.35,5.35,0,0,0,.79-.76.88.88,0,0,0,.2-.53.6.6,0,0,0-.18-.44.77.77,0,0,0-1,0,.74.74,0,0,0-.19.53l-.45,0a1.12,1.12,0,0,1,.35-.77,1.37,1.37,0,0,1,1.63,0,.94.94,0,0,1,.3.71,1.06,1.06,0,0,1-.09.42,1.75,1.75,0,0,1-.29.44c-.14.15-.37.36-.68.63l-.51.45a1.25,1.25,0,0,0-.18.24Z" transform="translate(0.01 -21.92)"/><path class="cls-4" d="M42.8,141.38a3.52,3.52,0,0,1,.13-1,1.28,1.28,0,0,1,.39-.59,1.14,1.14,0,0,1,1.15-.1.9.9,0,0,1,.36.34,1.73,1.73,0,0,1,.23.53,3.72,3.72,0,0,1,.08.84,3.52,3.52,0,0,1-.13,1,1.31,1.31,0,0,1-.39.6,1,1,0,0,1-.65.21,1,1,0,0,1-.81-.37A2.33,2.33,0,0,1,42.8,141.38Zm.45,0a2.25,2.25,0,0,0,.21,1.18.59.59,0,0,0,1,0,2.27,2.27,0,0,0,.2-1.18,2.23,2.23,0,0,0-.2-1.17.63.63,0,0,0-.52-.29.56.56,0,0,0-.48.26A2.24,2.24,0,0,0,43.25,141.38Z" transform="translate(0.01 -21.92)"/><path class="cls-4" d="M45.55,141.38a3.52,3.52,0,0,1,.13-1,1.28,1.28,0,0,1,.39-.59,1,1,0,0,1,.65-.21,1.06,1.06,0,0,1,.51.11,1,1,0,0,1,.35.34,1.73,1.73,0,0,1,.23.53,3.72,3.72,0,0,1,.08.84,3.52,3.52,0,0,1-.13,1,1.31,1.31,0,0,1-.39.6,1,1,0,0,1-.65.21,1,1,0,0,1-.81-.37A2.33,2.33,0,0,1,45.55,141.38Zm.45,0a2.25,2.25,0,0,0,.21,1.18.59.59,0,0,0,1,0,2.25,2.25,0,0,0,.21-1.18,2.2,2.2,0,0,0-.21-1.17.63.63,0,0,0-.52-.29.56.56,0,0,0-.48.26A2.24,2.24,0,0,0,46,141.38Z" transform="translate(0.01 -21.92)"/><path class="cls-4" d="M48.36,141.38a3.52,3.52,0,0,1,.13-1,1.28,1.28,0,0,1,.39-.59,1,1,0,0,1,.65-.21,1.06,1.06,0,0,1,.51.11,1,1,0,0,1,.35.34,1.73,1.73,0,0,1,.23.53,3.72,3.72,0,0,1,.08.84,3.52,3.52,0,0,1-.13,1,1.31,1.31,0,0,1-.39.6,1,1,0,0,1-.65.21,1,1,0,0,1-.81-.37A2.33,2.33,0,0,1,48.36,141.38Zm.45,0a2.25,2.25,0,0,0,.21,1.18.59.59,0,0,0,1,0,2.25,2.25,0,0,0,.21-1.18,2.2,2.2,0,0,0-.21-1.17.62.62,0,0,0-.51-.29.57.57,0,0,0-.49.26A2.24,2.24,0,0,0,48.81,141.38Z" transform="translate(0.01 -21.92)"/><path class="cls-4" d="M68.34,143.15v-.86H66.79v-.4l1.63-2.32h.36v2.32h.49v.4h-.49v.86Zm0-1.26v-1.61l-1.12,1.61Z" transform="translate(0.01 -21.92)"/><path class="cls-4" d="M69.75,141.38a3.2,3.2,0,0,1,.13-1,1.14,1.14,0,0,1,.39-.59,1,1,0,0,1,.64-.21.95.95,0,0,1,.87.45,1.73,1.73,0,0,1,.22.53,3.72,3.72,0,0,1,.08.84,3.2,3.2,0,0,1-.13,1,1.23,1.23,0,0,1-.39.6,1.09,1.09,0,0,1-1.46-.16A2.34,2.34,0,0,1,69.75,141.38Zm.45,0a2.38,2.38,0,0,0,.2,1.18.59.59,0,0,0,1,0,2.25,2.25,0,0,0,.21-1.18,2.2,2.2,0,0,0-.21-1.17.62.62,0,0,0-.51-.29.59.59,0,0,0-.49.26A2.26,2.26,0,0,0,70.2,141.38Z" transform="translate(0.01 -21.92)"/><path class="cls-4" d="M72.5,141.38a3.2,3.2,0,0,1,.13-1,1.14,1.14,0,0,1,.39-.59,1,1,0,0,1,.64-.21,1,1,0,0,1,.51.11,1.06,1.06,0,0,1,.36.34,1.73,1.73,0,0,1,.22.53,3.72,3.72,0,0,1,.08.84,3.2,3.2,0,0,1-.13,1,1.17,1.17,0,0,1-.39.6,1.09,1.09,0,0,1-1.46-.16A2.41,2.41,0,0,1,72.5,141.38Zm.45,0a2.38,2.38,0,0,0,.2,1.18.62.62,0,0,0,.51.29.6.6,0,0,0,.51-.29,2.25,2.25,0,0,0,.21-1.18,2.2,2.2,0,0,0-.21-1.17.61.61,0,0,0-.51-.29.56.56,0,0,0-.48.26A2.15,2.15,0,0,0,73,141.38Z" transform="translate(0.01 -21.92)"/><path class="cls-4" d="M75.31,141.38a3.2,3.2,0,0,1,.13-1,1.2,1.2,0,0,1,.39-.59,1,1,0,0,1,.64-.21,1,1,0,0,1,.51.11,1,1,0,0,1,.36.34,1.73,1.73,0,0,1,.22.53,3.72,3.72,0,0,1,.08.84,3.2,3.2,0,0,1-.13,1,1.22,1.22,0,0,1-.38.6,1,1,0,0,1-.66.21,1,1,0,0,1-.81-.37A2.41,2.41,0,0,1,75.31,141.38Zm.45,0a2.25,2.25,0,0,0,.21,1.18.58.58,0,0,0,1,0,2.25,2.25,0,0,0,.21-1.18,2.2,2.2,0,0,0-.21-1.17.61.61,0,0,0-.51-.29.56.56,0,0,0-.48.26A2.15,2.15,0,0,0,75.76,141.38Z" transform="translate(0.01 -21.92)"/><path class="cls-4" d="M96.12,140.45l-.43,0a.8.8,0,0,0-.17-.37.56.56,0,0,0-.44-.19.67.67,0,0,0-.37.11,1,1,0,0,0-.32.45,2.19,2.19,0,0,0-.13.82,1,1,0,0,1,.39-.35,1,1,0,0,1,.48-.12,1,1,0,0,1,.75.32,1.21,1.21,0,0,1,.31.84,1.32,1.32,0,0,1-.15.62,1,1,0,0,1-.4.45,1.1,1.1,0,0,1-.57.15,1.12,1.12,0,0,1-.9-.4,2.06,2.06,0,0,1-.35-1.33,2.34,2.34,0,0,1,.39-1.51,1.08,1.08,0,0,1,.9-.41,1,1,0,0,1,.69.23A1,1,0,0,1,96.12,140.45ZM94.33,142a.91.91,0,0,0,.1.43.7.7,0,0,0,.63.43.63.63,0,0,0,.48-.23.88.88,0,0,0,.2-.61.83.83,0,0,0-.2-.58.66.66,0,0,0-.5-.21.67.67,0,0,0-.5.21A.76.76,0,0,0,94.33,142Z" transform="translate(0.01 -21.92)"/><path class="cls-4" d="M96.65,141.38a3.52,3.52,0,0,1,.13-1,1.28,1.28,0,0,1,.39-.59,1,1,0,0,1,.65-.21.95.95,0,0,1,.87.45,2,2,0,0,1,.22.53,3.72,3.72,0,0,1,.08.84,3.2,3.2,0,0,1-.13,1,1.31,1.31,0,0,1-.39.6,1,1,0,0,1-.65.21,1,1,0,0,1-.81-.37A2.33,2.33,0,0,1,96.65,141.38Zm.46,0a2.27,2.27,0,0,0,.2,1.18.59.59,0,0,0,1,0,2.25,2.25,0,0,0,.21-1.18,2.2,2.2,0,0,0-.21-1.17.62.62,0,0,0-.51-.29.57.57,0,0,0-.49.26A2.26,2.26,0,0,0,97.11,141.38Z" transform="translate(0.01 -21.92)"/><path class="cls-4" d="M99.41,141.38a3.2,3.2,0,0,1,.13-1,1.19,1.19,0,0,1,.38-.59,1,1,0,0,1,.65-.21.95.95,0,0,1,.87.45,2,2,0,0,1,.22.53,3.72,3.72,0,0,1,.08.84,3.2,3.2,0,0,1-.13,1,1.31,1.31,0,0,1-.39.6,1,1,0,0,1-.65.21,1,1,0,0,1-.81-.37A2.34,2.34,0,0,1,99.41,141.38Zm.45,0a2.38,2.38,0,0,0,.2,1.18.59.59,0,0,0,1,0,2.25,2.25,0,0,0,.21-1.18,2.2,2.2,0,0,0-.21-1.17.62.62,0,0,0-.51-.29.58.58,0,0,0-.49.26A2.26,2.26,0,0,0,99.86,141.38Z" transform="translate(0.01 -21.92)"/><path class="cls-4" d="M102.22,141.38a3.2,3.2,0,0,1,.13-1,1.19,1.19,0,0,1,.38-.59,1,1,0,0,1,.65-.21.95.95,0,0,1,.87.45,1.73,1.73,0,0,1,.22.53,3.72,3.72,0,0,1,.08.84,3.2,3.2,0,0,1-.13,1,1.23,1.23,0,0,1-.39.6,1.09,1.09,0,0,1-1.46-.16A2.34,2.34,0,0,1,102.22,141.38Zm.45,0a2.38,2.38,0,0,0,.2,1.18.59.59,0,0,0,1,0,2.25,2.25,0,0,0,.21-1.18,2.2,2.2,0,0,0-.21-1.17.62.62,0,0,0-.51-.29.59.59,0,0,0-.49.26A2.26,2.26,0,0,0,102.67,141.38Z" transform="translate(0.01 -21.92)"/><rect class="邱喟0.5pt-6" x="18.44" y="2.18" width="90.71" height="113.39"/></g><g id="English"><rect class="cls-7" x="19.86" y="41.15" width="47.91" height="16.72"/><path class="cls-4" d="M22.35,68l.58-.06a1.21,1.21,0,0,0,.19.58,1,1,0,0,0,.47.36,1.8,1.8,0,0,0,.71.14,1.67,1.67,0,0,0,.62-.11.82.82,0,0,0,.4-.28.69.69,0,0,0,.14-.4.65.65,0,0,0-.13-.39,1.05,1.05,0,0,0-.42-.27c-.13,0-.4-.12-.83-.23a4.09,4.09,0,0,1-.9-.29,1.16,1.16,0,0,1-.49-.43,1.06,1.06,0,0,1-.17-.58,1.19,1.19,0,0,1,.79-1.12,2.11,2.11,0,0,1,.85-.16,2.31,2.31,0,0,1,.91.16,1.37,1.37,0,0,1,.61.49,1.44,1.44,0,0,1,.23.74l-.59,0a1,1,0,0,0-.32-.66,1.28,1.28,0,0,0-.81-.23,1.35,1.35,0,0,0-.82.2.63.63,0,0,0-.25.5.52.52,0,0,0,.18.41,2.39,2.39,0,0,0,.93.33,7.58,7.58,0,0,1,1,.3,1.39,1.39,0,0,1,.6.47,1.28,1.28,0,0,1,.19.67,1.3,1.3,0,0,1-.21.7,1.46,1.46,0,0,1-.61.51,2.19,2.19,0,0,1-.9.18,2.76,2.76,0,0,1-1.06-.18,1.54,1.54,0,0,1-.67-.56A1.5,1.5,0,0,1,22.35,68Z" transform="translate(0.01 -21.92)"/><path class="cls-4" d="M26.82,69.45V64.8h.57v1.67a1.27,1.27,0,0,1,1-.47,1.36,1.36,0,0,1,.65.15.91.91,0,0,1,.39.41,1.83,1.83,0,0,1,.12.75v2.14H29V67.31a.9.9,0,0,0-.18-.62.7.7,0,0,0-.53-.19.91.91,0,0,0-.48.13.73.73,0,0,0-.32.35,1.75,1.75,0,0,0-.09.63v1.84Z" transform="translate(0.01 -21.92)"/><path class="cls-4" d="M30.22,67.76a1.72,1.72,0,0,1,.52-1.38A1.57,1.57,0,0,1,31.8,66a1.51,1.51,0,0,1,1.14.46,1.74,1.74,0,0,1,.44,1.26,2.22,2.22,0,0,1-.2,1,1.39,1.39,0,0,1-.57.58,1.6,1.6,0,0,1-.81.21,1.48,1.48,0,0,1-1.14-.46A1.82,1.82,0,0,1,30.22,67.76Zm.59,0a1.41,1.41,0,0,0,.28,1,.89.89,0,0,0,.71.33.91.91,0,0,0,.71-.33,1.43,1.43,0,0,0,.28-1,1.38,1.38,0,0,0-.28-1,.9.9,0,0,0-.71-.32.88.88,0,0,0-.71.32A1.39,1.39,0,0,0,30.81,67.76Z" transform="translate(0.01 -21.92)"/><path class="cls-4" d="M34,69.45V66.08h.51v.51a1.43,1.43,0,0,1,.37-.47.6.6,0,0,1,.36-.12,1.06,1.06,0,0,1,.59.19l-.19.53a.76.76,0,0,0-.42-.13.52.52,0,0,0-.34.12.58.58,0,0,0-.21.31,2,2,0,0,0-.1.67v1.76Z" transform="translate(0.01 -21.92)"/><path class="cls-4" d="M37.46,68.94l.08.5a1.72,1.72,0,0,1-.43,0,1,1,0,0,1-.48-.09.54.54,0,0,1-.24-.26,2,2,0,0,1-.07-.68V66.52H35.9v-.44h.42v-.84l.56-.34v1.18h.58v.44h-.58v2a1,1,0,0,0,0,.32.27.27,0,0,0,.1.11.37.37,0,0,0,.2,0Z" transform="translate(0.01 -21.92)"/><path class="cls-4" d="M37.8,68.05v-.57h1.75v.57Z" transform="translate(0.01 -21.92)"/><path class="cls-4" d="M42.37,69.45V69a1,1,0,0,1-.94.51,1.3,1.3,0,0,1-.74-.23,1.41,1.41,0,0,1-.53-.62,2.17,2.17,0,0,1-.18-.91,2.47,2.47,0,0,1,.16-.92,1.39,1.39,0,0,1,.51-.63A1.37,1.37,0,0,1,41.4,66a1.2,1.2,0,0,1,.54.13,1.17,1.17,0,0,1,.39.34V64.8h.57v4.65Zm-1.81-1.68a1.44,1.44,0,0,0,.28,1,.82.82,0,0,0,.64.32.84.84,0,0,0,.64-.31,1.43,1.43,0,0,0,.26-.93,1.58,1.58,0,0,0-.27-1,.81.81,0,0,0-.66-.32.78.78,0,0,0-.63.31A1.51,1.51,0,0,0,40.56,67.77Z" transform="translate(0.01 -21.92)"/><path class="cls-4" d="M46,69.45V69a1.23,1.23,0,0,1-1.07.58,1.31,1.31,0,0,1-.56-.12.82.82,0,0,1-.38-.29.9.9,0,0,1-.18-.42,3.07,3.07,0,0,1,0-.53V66.08h.58V68a3.77,3.77,0,0,0,0,.6.63.63,0,0,0,.23.36.73.73,0,0,0,.43.12.91.91,0,0,0,.48-.13.7.7,0,0,0,.32-.36,1.8,1.8,0,0,0,.1-.65V66.08h.57v3.37Z" transform="translate(0.01 -21.92)"/><path class="cls-4" d="M47.41,69.45V66.08h.51v.51a1.31,1.31,0,0,1,.36-.47.63.63,0,0,1,.37-.12,1.08,1.08,0,0,1,.59.19l-.2.53a.76.76,0,0,0-.42-.13.54.54,0,0,0-.34.12.64.64,0,0,0-.21.31,2.31,2.31,0,0,0-.09.67v1.76Z" transform="translate(0.01 -21.92)"/><path class="cls-4" d="M51.78,69a2.38,2.38,0,0,1-.61.39,1.9,1.9,0,0,1-.63.11,1.19,1.19,0,0,1-.86-.28.93.93,0,0,1-.18-1.14.85.85,0,0,1,.29-.33,1.72,1.72,0,0,1,.41-.19,3,3,0,0,1,.51-.08,5.33,5.33,0,0,0,1-.2v-.15a.61.61,0,0,0-.16-.49,1,1,0,0,0-.65-.19,1,1,0,0,0-.6.14.88.88,0,0,0-.28.5L49.48,67a1.48,1.48,0,0,1,.25-.58,1.12,1.12,0,0,1,.51-.34,2.48,2.48,0,0,1,1.46,0,1,1,0,0,1,.4.26,1,1,0,0,1,.18.39,3.08,3.08,0,0,1,0,.53V68a9.64,9.64,0,0,0,0,1,1.44,1.44,0,0,0,.15.41h-.6A1.08,1.08,0,0,1,51.78,69Zm-.05-1.27a4.06,4.06,0,0,1-.93.21,2.41,2.41,0,0,0-.5.12.47.47,0,0,0-.23.18.57.57,0,0,0-.08.28.52.52,0,0,0,.17.38.78.78,0,0,0,.51.15,1.15,1.15,0,0,0,.59-.15.84.84,0,0,0,.38-.39,1.41,1.41,0,0,0,.09-.57Z" transform="translate(0.01 -21.92)"/><path class="cls-4" d="M54.44,68.94l.08.5a1.72,1.72,0,0,1-.43,0,1,1,0,0,1-.48-.09.54.54,0,0,1-.24-.26,2,2,0,0,1-.07-.68V66.52h-.42v-.44h.42v-.84l.56-.34v1.18h.58v.44h-.58v2a1,1,0,0,0,0,.32.27.27,0,0,0,.1.11.37.37,0,0,0,.2,0Z" transform="translate(0.01 -21.92)"/><path class="cls-4" d="M55,65.45V64.8h.57v.65Zm0,4V66.08h.57v3.37Z" transform="translate(0.01 -21.92)"/><path class="cls-4" d="M56.23,67.76a1.72,1.72,0,0,1,.52-1.38A1.57,1.57,0,0,1,57.81,66a1.51,1.51,0,0,1,1.14.46,1.74,1.74,0,0,1,.44,1.26,2.22,2.22,0,0,1-.2,1,1.39,1.39,0,0,1-.57.58,1.63,1.63,0,0,1-.81.21,1.48,1.48,0,0,1-1.14-.46A1.78,1.78,0,0,1,56.23,67.76Zm.59,0a1.41,1.41,0,0,0,.28,1,.89.89,0,0,0,.71.33.91.91,0,0,0,.71-.33,1.8,1.8,0,0,0,0-1.93.9.9,0,0,0-.71-.32.88.88,0,0,0-.71.32A1.39,1.39,0,0,0,56.82,67.76Z" transform="translate(0.01 -21.92)"/><path class="cls-4" d="M60.06,69.45V66.08h.51v.48A1.22,1.22,0,0,1,61.64,66a1.43,1.43,0,0,1,.56.11,1,1,0,0,1,.39.29,1.13,1.13,0,0,1,.17.42,2.44,2.44,0,0,1,0,.56v2.07h-.58v-2a1.67,1.67,0,0,0-.06-.52.6.6,0,0,0-.24-.28.72.72,0,0,0-.4-.1,1,1,0,0,0-.63.23,1.17,1.17,0,0,0-.26.88v1.84Z" transform="translate(0.01 -21.92)"/><path class="cls-4" d="M22.48,77.25V73.88H23v.51a1.31,1.31,0,0,1,.36-.47.63.63,0,0,1,.37-.12,1.08,1.08,0,0,1,.59.19l-.2.53a.76.76,0,0,0-.42-.13.54.54,0,0,0-.34.12.58.58,0,0,0-.21.31,2.31,2.31,0,0,0-.09.67v1.76Z" transform="translate(0.01 -21.92)"/><path class="cls-4" d="M26.85,77.25v-.5a1.2,1.2,0,0,1-1.06.58,1.31,1.31,0,0,1-.56-.12.82.82,0,0,1-.38-.29.9.9,0,0,1-.18-.42,2.3,2.3,0,0,1,0-.53V73.88h.57v1.87a3.41,3.41,0,0,0,0,.6.63.63,0,0,0,.23.36.73.73,0,0,0,.43.12.91.91,0,0,0,.48-.13.7.7,0,0,0,.32-.36,1.8,1.8,0,0,0,.1-.65V73.88h.57v3.37Z" transform="translate(0.01 -21.92)"/><path class="cls-4" d="M28.26,77.25V73.88h.52v.48a1.2,1.2,0,0,1,1.07-.56,1.47,1.47,0,0,1,.56.11.89.89,0,0,1,.38.29,1,1,0,0,1,.18.42,3.51,3.51,0,0,1,0,.56v2.07h-.57v-2a1.38,1.38,0,0,0-.07-.52.53.53,0,0,0-.23-.28.77.77,0,0,0-.4-.1.92.92,0,0,0-.63.23,1.13,1.13,0,0,0-.27.88v1.84Z" transform="translate(0.01 -21.92)"/><path class="cls-4" d="M31.88,77.25V73.88h.51v.48a1.22,1.22,0,0,1,1.07-.56,1.43,1.43,0,0,1,.56.11,1,1,0,0,1,.39.29,1.13,1.13,0,0,1,.17.42,3.21,3.21,0,0,1,0,.56v2.07H34v-2a1.67,1.67,0,0,0-.06-.52.6.6,0,0,0-.24-.28.74.74,0,0,0-.4-.1,1,1,0,0,0-.63.23,1.17,1.17,0,0,0-.26.88v1.84Z" transform="translate(0.01 -21.92)"/><path class="cls-4" d="M35.49,73.25V72.6h.58v.65Zm0,4V73.88h.58v3.37Z" transform="translate(0.01 -21.92)"/><path class="cls-4" d="M36.93,77.25V73.88h.52v.48a1.21,1.21,0,0,1,1.07-.56,1.43,1.43,0,0,1,.56.11,1,1,0,0,1,.39.29,1.13,1.13,0,0,1,.17.42,3.51,3.51,0,0,1,0,.56v2.07H39.1v-2a1.67,1.67,0,0,0-.06-.52.6.6,0,0,0-.24-.28.74.74,0,0,0-.4-.1,1,1,0,0,0-.63.23,1.17,1.17,0,0,0-.26.88v1.84Z" transform="translate(0.01 -21.92)"/><path class="cls-4" d="M40.45,77.53l.55.08a.56.56,0,0,0,.19.38,1,1,0,0,0,.59.15,1.08,1.08,0,0,0,.61-.15.82.82,0,0,0,.29-.45,3.76,3.76,0,0,0,0-.73,1.18,1.18,0,0,1-.93.44,1.3,1.3,0,0,1-1.08-.5,2,2,0,0,1-.38-1.2,2.14,2.14,0,0,1,.18-.89A1.28,1.28,0,0,1,41,74a1.35,1.35,0,0,1,.78-.23,1.17,1.17,0,0,1,1,.49v-.41h.53v2.91a2.72,2.72,0,0,1-.16,1.12,1.16,1.16,0,0,1-.51.52,1.81,1.81,0,0,1-.85.19,1.65,1.65,0,0,1-1-.27A.94.94,0,0,1,40.45,77.53Zm.47-2a1.48,1.48,0,0,0,.26,1,.86.86,0,0,0,1.32,0,1.38,1.38,0,0,0,.27-1,1.34,1.34,0,0,0-.28-.93.83.83,0,0,0-.66-.31.79.79,0,0,0-.64.31A1.34,1.34,0,0,0,40.92,75.5Z" transform="translate(0.01 -21.92)"/><path class="cls-4" d="M46,77.25V73.88h.51v.51a1.31,1.31,0,0,1,.36-.47.63.63,0,0,1,.37-.12,1.08,1.08,0,0,1,.59.19l-.2.53a.76.76,0,0,0-.42-.13.54.54,0,0,0-.34.12.58.58,0,0,0-.21.31,2.31,2.31,0,0,0-.09.67v1.76Z" transform="translate(0.01 -21.92)"/><path class="cls-4" d="M50.33,76.83a2.22,2.22,0,0,1-.61.39,1.81,1.81,0,0,1-.63.11,1.18,1.18,0,0,1-.85-.28.89.89,0,0,1-.3-.69,1,1,0,0,1,.11-.45,1,1,0,0,1,.3-.33,1.72,1.72,0,0,1,.41-.19,3,3,0,0,1,.51-.08,5.33,5.33,0,0,0,1-.2V75a.61.61,0,0,0-.16-.49,1,1,0,0,0-.65-.19,1,1,0,0,0-.6.14.88.88,0,0,0-.28.5L48,74.84a1.48,1.48,0,0,1,.25-.58,1.12,1.12,0,0,1,.51-.34,2.48,2.48,0,0,1,1.46,0,1,1,0,0,1,.4.26,1,1,0,0,1,.18.39,3.08,3.08,0,0,1,0,.53v.76a9.64,9.64,0,0,0,0,1,1.19,1.19,0,0,0,.15.41h-.6A1.29,1.29,0,0,1,50.33,76.83Zm0-1.27a4,4,0,0,1-.94.21,2.45,2.45,0,0,0-.49.12.47.47,0,0,0-.23.18.57.57,0,0,0-.08.28.52.52,0,0,0,.17.38.78.78,0,0,0,.51.15,1.15,1.15,0,0,0,.59-.15.84.84,0,0,0,.38-.39,1.41,1.41,0,0,0,.09-.57Z" transform="translate(0.01 -21.92)"/><path class="cls-4" d="M51.75,77.25V73.88h.51v.48a1.23,1.23,0,0,1,1.08-.56,1.47,1.47,0,0,1,.56.11.89.89,0,0,1,.38.29,1.33,1.33,0,0,1,.18.42,3.51,3.51,0,0,1,0,.56v2.07h-.57v-2a1.38,1.38,0,0,0-.07-.52.53.53,0,0,0-.23-.28.77.77,0,0,0-.4-.1.92.92,0,0,0-.63.23,1.13,1.13,0,0,0-.27.88v1.84Z" transform="translate(0.01 -21.92)"/><path class="cls-4" d="M55.26,77.53l.56.08A.52.52,0,0,0,56,78a1,1,0,0,0,.58.15A1,1,0,0,0,57.2,78a.84.84,0,0,0,.3-.45,3.76,3.76,0,0,0,0-.73,1.19,1.19,0,0,1-.94.44,1.27,1.27,0,0,1-1.07-.5,1.91,1.91,0,0,1-.38-1.2,2.14,2.14,0,0,1,.17-.89,1.37,1.37,0,0,1,1.29-.86,1.19,1.19,0,0,1,1,.49v-.41h.53v2.91A2.9,2.9,0,0,1,58,77.91a1.22,1.22,0,0,1-.51.52,1.85,1.85,0,0,1-.86.19,1.61,1.61,0,0,1-1-.27A.92.92,0,0,1,55.26,77.53Zm.47-2a1.42,1.42,0,0,0,.27,1,.81.81,0,0,0,.66.31.83.83,0,0,0,.66-.31,1.8,1.8,0,0,0,0-1.88.83.83,0,0,0-.66-.31.81.81,0,0,0-.65.31A1.34,1.34,0,0,0,55.73,75.5Z" transform="translate(0.01 -21.92)"/><path class="cls-4" d="M61.29,76.16l.59.08a1.5,1.5,0,0,1-.52.8,1.54,1.54,0,0,1-1,.29,1.57,1.57,0,0,1-1.18-.46,1.77,1.77,0,0,1-.43-1.28,1.9,1.9,0,0,1,.44-1.32,1.58,1.58,0,0,1,2.24,0,1.87,1.87,0,0,1,.43,1.3,1,1,0,0,1,0,.15H59.38a1.29,1.29,0,0,0,.32.85.91.91,0,0,0,.7.3.89.89,0,0,0,.54-.17A1.14,1.14,0,0,0,61.29,76.16Zm-1.88-.92h1.88a1.1,1.1,0,0,0-.21-.64.88.88,0,0,0-.71-.33.9.9,0,0,0-.66.27A1,1,0,0,0,59.41,75.24Z" transform="translate(0.01 -21.92)"/><path class="cls-4" d="M4.64,98.27H.54V99.8H0V96.11H.54v1.54h4.1Z" transform="translate(0.01 -21.92)"/><path class="cls-4" d="M3,95.77a1.72,1.72,0,0,1-1.38-.52,1.57,1.57,0,0,1-.38-1.06,1.5,1.5,0,0,1,.46-1.14,1.74,1.74,0,0,1,1.26-.44,2.22,2.22,0,0,1,1,.2,1.42,1.42,0,0,1,.58.56,1.64,1.64,0,0,1,.21.82,1.48,1.48,0,0,1-.46,1.14A1.82,1.82,0,0,1,3,95.77Zm0-.59a1.41,1.41,0,0,0,1-.28.91.91,0,0,0,.33-.71.89.89,0,0,0-.33-.71,1.43,1.43,0,0,0-1-.28,1.38,1.38,0,0,0-.95.28A.95.95,0,0,0,2,94.9,1.39,1.39,0,0,0,3,95.18Z" transform="translate(0.01 -21.92)"/><path class="cls-4" d="M4.64,92H1.27v-.52h.51a1.31,1.31,0,0,1-.47-.36.61.61,0,0,1-.12-.37,1,1,0,0,1,.19-.58l.53.19a.76.76,0,0,0-.13.42.52.52,0,0,0,.12.34.58.58,0,0,0,.31.21,2.3,2.3,0,0,0,.67.1H4.64Z" transform="translate(0.01 -21.92)"/><path class="cls-4" d="M5.93,87.63H4.28a1,1,0,0,1,.31.37,1.14,1.14,0,0,1,.13.51,1.34,1.34,0,0,1-.48,1A1.9,1.9,0,0,1,2.92,90,2.21,2.21,0,0,1,2,89.8a1.33,1.33,0,0,1-.82-1.25,1.14,1.14,0,0,1,.53-1H1.27v-.51H5.93ZM3,89.39a1.5,1.5,0,0,0,1-.27.81.81,0,0,0,0-1.29A1.46,1.46,0,0,0,3,87.57a1.57,1.57,0,0,0-1,.28.83.83,0,0,0-.34.65.79.79,0,0,0,.32.63A1.56,1.56,0,0,0,3,89.39Z" transform="translate(0.01 -21.92)"/><path class="cls-4" d="M4.64,84h-.5A1.22,1.22,0,0,1,4.72,85a1.31,1.31,0,0,1-.12.56.82.82,0,0,1-.29.38.9.9,0,0,1-.42.18,3.33,3.33,0,0,1-.53,0H1.27V85.6H3.14a3.77,3.77,0,0,0,.6,0,.63.63,0,0,0,.36-.23.75.75,0,0,0,.12-.43.91.91,0,0,0-.13-.48.66.66,0,0,0-.36-.32,1.61,1.61,0,0,0-.65-.1H1.27v-.57H4.64Z" transform="translate(0.01 -21.92)"/><path class="cls-4" d="M3.55,80.24l.08-.59a1.39,1.39,0,0,1,.8.52,1.72,1.72,0,0,1-.17,2.13A1.77,1.77,0,0,1,3,82.74a1.9,1.9,0,0,1-1.32-.44,1.49,1.49,0,0,1-.47-1.14,1.45,1.45,0,0,1,.46-1.1A1.82,1.82,0,0,1,3,79.63H3.1v2.52A1.29,1.29,0,0,0,4,81.83a.92.92,0,0,0,.3-.7.89.89,0,0,0-.17-.54A1.07,1.07,0,0,0,3.55,80.24Zm-.92,1.87V80.23a1.18,1.18,0,0,0-.64.22.88.88,0,0,0-.33.71.9.9,0,0,0,.27.66A1,1,0,0,0,2.63,82.11Z" transform="translate(0.01 -21.92)"/><path class="cls-4" d="M5.93,77.11H0V75.85H.46v.69h5v-.69h.47Z" transform="translate(0.01 -21.92)"/><path class="cls-4" d="M4.64,75.25H0v-.63l3.65-2.44H0v-.59H4.64v.63L1,74.66H4.64Z" transform="translate(0.01 -21.92)"/><path class="cls-4" d="M2.36,70.71a.81.81,0,1,1,.57-1.37.75.75,0,0,1,.24.57.76.76,0,0,1-.24.56A.78.78,0,0,1,2.36,70.71Z" transform="translate(0.01 -21.92)"/><path class="cls-4" d="M4.64,68.35H1.27v-.51h.47a1.34,1.34,0,0,1-.4-.42,1.21,1.21,0,0,1-.15-.6,1.16,1.16,0,0,1,.16-.62.86.86,0,0,1,.43-.34,1.2,1.2,0,0,1-.59-1,1.05,1.05,0,0,1,.28-.77,1.2,1.2,0,0,1,.86-.27H4.64v.57H2.52a1.49,1.49,0,0,0-.5.06.42.42,0,0,0-.24.2.64.64,0,0,0-.09.34.82.82,0,0,0,.23.59,1,1,0,0,0,.76.24h2v.57H2.45a.92.92,0,0,0-.57.14.51.51,0,0,0-.19.45.81.81,0,0,0,.13.45.66.66,0,0,0,.37.3,2.08,2.08,0,0,0,.7.09H4.64Z" transform="translate(0.01 -21.92)"/><path class="cls-4" d="M5.93,62v1.26H5.46v-.69h-5v.69H0V62Z" transform="translate(0.01 -21.92)"/><rect class="cls-7" x="20.6" y="96.62" width="41.46" height="16.72"/><path class="cls-4" d="M26,123.29l.62.16a2,2,0,0,1-.7,1.15,1.88,1.88,0,0,1-1.23.4,2.14,2.14,0,0,1-1.22-.31,1.87,1.87,0,0,1-.72-.88,3.27,3.27,0,0,1-.24-1.25,2.83,2.83,0,0,1,.27-1.27,2,2,0,0,1,.79-.82,2.31,2.31,0,0,1,1.13-.28,1.9,1.9,0,0,1,1.18.36,1.84,1.84,0,0,1,.66,1l-.61.15a1.34,1.34,0,0,0-.47-.74,1.2,1.2,0,0,0-.77-.23,1.52,1.52,0,0,0-.9.25,1.3,1.3,0,0,0-.5.69,2.74,2.74,0,0,0-.15.9,2.92,2.92,0,0,0,.17,1,1.35,1.35,0,0,0,.54.67,1.58,1.58,0,0,0,.79.21,1.37,1.37,0,0,0,.88-.29A1.51,1.51,0,0,0,26,123.29Z" transform="translate(0.01 -21.92)"/><path class="cls-4" d="M27.06,123.24a1.76,1.76,0,0,1,.52-1.39,1.58,1.58,0,0,1,1.06-.38,1.52,1.52,0,0,1,1.14.46,1.74,1.74,0,0,1,.44,1.26,2.24,2.24,0,0,1-.19,1,1.39,1.39,0,0,1-.57.58,1.64,1.64,0,0,1-.82.21,1.48,1.48,0,0,1-1.14-.46A1.79,1.79,0,0,1,27.06,123.24Zm.59,0a1.44,1.44,0,0,0,.28,1,.93.93,0,0,0,.71.32.89.89,0,0,0,.71-.33,1.43,1.43,0,0,0,.28-1,1.4,1.4,0,0,0-.28-1,.95.95,0,0,0-1.42,0A1.42,1.42,0,0,0,27.65,123.24Z" transform="translate(0.01 -21.92)"/><path class="cls-4" d="M30.89,124.92v-3.37h.51V122a1.23,1.23,0,0,1,1.08-.56,1.47,1.47,0,0,1,.56.11.89.89,0,0,1,.38.29,1.33,1.33,0,0,1,.18.42,3.51,3.51,0,0,1,0,.56v2.07h-.57v-2a1.41,1.41,0,0,0-.07-.52.5.5,0,0,0-.24-.28.71.71,0,0,0-.39-.1.92.92,0,0,0-.63.23,1.14,1.14,0,0,0-.27.88v1.84Z" transform="translate(0.01 -21.92)"/><path class="cls-4" d="M35.75,124.41l.09.51a2.58,2.58,0,0,1-.44,0,1.07,1.07,0,0,1-.48-.1.6.6,0,0,1-.24-.26,1.94,1.94,0,0,1-.07-.67V122h-.42v-.45h.42v-.83l.57-.35v1.18h.57V122h-.57v2a1,1,0,0,0,0,.31.21.21,0,0,0,.1.11.34.34,0,0,0,.19,0A1.19,1.19,0,0,0,35.75,124.41Z" transform="translate(0.01 -21.92)"/><path class="cls-4" d="M36.31,120.93v-.66h.58v.66Zm0,4v-3.37h.58v3.37Z" transform="translate(0.01 -21.92)"/><path class="cls-4" d="M37.76,124.92v-3.37h.51V122a1.21,1.21,0,0,1,1.07-.56,1.43,1.43,0,0,1,.56.11,1,1,0,0,1,.39.29,1.13,1.13,0,0,1,.17.42,3.51,3.51,0,0,1,0,.56v2.07h-.57v-2a1.72,1.72,0,0,0-.06-.52.6.6,0,0,0-.24-.28.74.74,0,0,0-.4-.1,1,1,0,0,0-.63.23,1.18,1.18,0,0,0-.26.88v1.84Z" transform="translate(0.01 -21.92)"/><path class="cls-4" d="M43.58,124.92v-.49a1.23,1.23,0,0,1-1.07.57,1.31,1.31,0,0,1-.56-.12.88.88,0,0,1-.38-.28,1.12,1.12,0,0,1-.18-.43,3.33,3.33,0,0,1,0-.53v-2.09h.57v1.87a3.77,3.77,0,0,0,0,.6.68.68,0,0,0,.23.36.75.75,0,0,0,.43.13.93.93,0,0,0,.49-.14.66.66,0,0,0,.31-.35,1.7,1.7,0,0,0,.1-.66v-1.81h.57v3.37Z" transform="translate(0.01 -21.92)"/><path class="cls-4" d="M44.77,123.24a1.76,1.76,0,0,1,.52-1.39,1.58,1.58,0,0,1,1.06-.38,1.52,1.52,0,0,1,1.14.46,1.74,1.74,0,0,1,.44,1.26,2.24,2.24,0,0,1-.19,1,1.39,1.39,0,0,1-.57.58,1.64,1.64,0,0,1-.82.21,1.48,1.48,0,0,1-1.14-.46A1.79,1.79,0,0,1,44.77,123.24Zm.59,0a1.44,1.44,0,0,0,.28,1,.93.93,0,0,0,.71.32.89.89,0,0,0,.71-.33,1.43,1.43,0,0,0,.28-1,1.4,1.4,0,0,0-.28-1,.95.95,0,0,0-1.42,0A1.42,1.42,0,0,0,45.36,123.24Z" transform="translate(0.01 -21.92)"/><path class="cls-4" d="M50.81,124.92v-.49a1.23,1.23,0,0,1-1.07.57,1.31,1.31,0,0,1-.56-.12.88.88,0,0,1-.38-.28,1.12,1.12,0,0,1-.18-.43,3.33,3.33,0,0,1,0-.53v-2.09h.57v1.87a3.77,3.77,0,0,0,0,.6.68.68,0,0,0,.23.36.75.75,0,0,0,.43.13.93.93,0,0,0,.49-.14.66.66,0,0,0,.31-.35,1.7,1.7,0,0,0,.1-.66v-1.81h.57v3.37Z" transform="translate(0.01 -21.92)"/><path class="cls-4" d="M52,123.92l.56-.09a.78.78,0,0,0,.27.52.9.9,0,0,0,.6.18.94.94,0,0,0,.59-.16.47.47,0,0,0,.19-.38.34.34,0,0,0-.17-.3,2.49,2.49,0,0,0-.58-.2,4.57,4.57,0,0,1-.87-.27.78.78,0,0,1-.37-.32.81.81,0,0,1-.13-.45.88.88,0,0,1,.11-.42.79.79,0,0,1,.28-.32,1.21,1.21,0,0,1,.36-.17,1.93,1.93,0,0,1,.49-.07,1.86,1.86,0,0,1,.7.12.94.94,0,0,1,.44.31,1.18,1.18,0,0,1,.2.52l-.56.08a.64.64,0,0,0-.22-.41.79.79,0,0,0-.52-.15.9.9,0,0,0-.56.14.36.36,0,0,0-.17.3.37.37,0,0,0,.07.2.53.53,0,0,0,.22.15l.51.15a7.54,7.54,0,0,1,.84.26.88.88,0,0,1,.38.3.86.86,0,0,1,.14.49,1,1,0,0,1-.17.54,1,1,0,0,1-.48.39,1.8,1.8,0,0,1-.71.14,1.53,1.53,0,0,1-1-.28A1.24,1.24,0,0,1,52,123.92Z" transform="translate(0.01 -21.92)"/><path class="cls-4" d="M22.58,132.72v-3.37h.51v.51a1.41,1.41,0,0,1,.36-.47.63.63,0,0,1,.37-.12,1.17,1.17,0,0,1,.59.19l-.2.53a.84.84,0,0,0-.42-.12.53.53,0,0,0-.34.11.58.58,0,0,0-.21.31,2.36,2.36,0,0,0-.09.67v1.76Z" transform="translate(0.01 -21.92)"/><path class="cls-4" d="M27,132.72v-.49a1.25,1.25,0,0,1-1.08.57,1.3,1.3,0,0,1-.55-.12,1,1,0,0,1-.39-.28,1.11,1.11,0,0,1-.17-.43,2.3,2.3,0,0,1,0-.53v-2.09h.57v1.87a3.41,3.41,0,0,0,0,.6.63.63,0,0,0,.23.36.73.73,0,0,0,.43.13.92.92,0,0,0,.48-.14.68.68,0,0,0,.32-.35,1.94,1.94,0,0,0,.09-.66v-1.81h.58v3.37Z" transform="translate(0.01 -21.92)"/><path class="cls-4" d="M28.36,132.72v-3.37h.51v.48a1.23,1.23,0,0,1,1.08-.56,1.47,1.47,0,0,1,.56.11.89.89,0,0,1,.38.29,1.33,1.33,0,0,1,.18.42,3.51,3.51,0,0,1,0,.56v2.07h-.57v-2.05a1.41,1.41,0,0,0-.07-.52.53.53,0,0,0-.23-.28.77.77,0,0,0-.4-.1.92.92,0,0,0-.63.23,1.14,1.14,0,0,0-.27.88v1.84Z" transform="translate(0.01 -21.92)"/><path class="cls-4" d="M32,132.72v-3.37h.51v.48a1.21,1.21,0,0,1,1.07-.56,1.43,1.43,0,0,1,.56.11,1,1,0,0,1,.39.29,1.13,1.13,0,0,1,.17.42,3.51,3.51,0,0,1,0,.56v2.07h-.57v-2.05a1.72,1.72,0,0,0-.06-.52.6.6,0,0,0-.24-.28.74.74,0,0,0-.4-.1,1,1,0,0,0-.63.23,1.14,1.14,0,0,0-.26.88v1.84Z" transform="translate(0.01 -21.92)"/><path class="cls-4" d="M35.59,128.73v-.66h.58v.66Zm0,4v-3.37h.58v3.37Z" transform="translate(0.01 -21.92)"/><path class="cls-4" d="M37,132.72v-3.37h.51v.48a1.21,1.21,0,0,1,1.07-.56,1.43,1.43,0,0,1,.56.11.89.89,0,0,1,.38.29,1,1,0,0,1,.18.42,3.51,3.51,0,0,1,0,.56v2.07H39.2v-2.05a1.72,1.72,0,0,0-.06-.52.6.6,0,0,0-.24-.28.74.74,0,0,0-.4-.1,1,1,0,0,0-.63.23,1.14,1.14,0,0,0-.26.88v1.84Z" transform="translate(0.01 -21.92)"/><path class="cls-4" d="M40.55,133l.55.08a.56.56,0,0,0,.19.38,1,1,0,0,0,.58.16,1.09,1.09,0,0,0,.62-.16.82.82,0,0,0,.29-.45,3.76,3.76,0,0,0,0-.73,1.18,1.18,0,0,1-.93.44,1.26,1.26,0,0,1-1.08-.5,1.93,1.93,0,0,1-.38-1.2,2.18,2.18,0,0,1,.18-.89,1.37,1.37,0,0,1,.5-.63,1.35,1.35,0,0,1,.78-.23,1.23,1.23,0,0,1,1,.49v-.41h.52v2.91a2.72,2.72,0,0,1-.16,1.12,1.16,1.16,0,0,1-.51.52,1.7,1.7,0,0,1-.85.19,1.65,1.65,0,0,1-1-.27A.92.92,0,0,1,40.55,133Zm.47-2a1.47,1.47,0,0,0,.26,1,.83.83,0,0,0,.66.31.85.85,0,0,0,.66-.3,1.42,1.42,0,0,0,.27-.95,1.35,1.35,0,0,0-.28-.94.85.85,0,0,0-1.31,0A1.4,1.4,0,0,0,41,131Z" transform="translate(0.01 -21.92)"/><path class="cls-4" d="M46.06,132.72v-3.37h.52v.51a1.41,1.41,0,0,1,.36-.47.61.61,0,0,1,.37-.12,1.17,1.17,0,0,1,.59.19l-.2.53a.84.84,0,0,0-.42-.12.51.51,0,0,0-.34.11.58.58,0,0,0-.21.31,2.36,2.36,0,0,0-.09.67v1.76Z" transform="translate(0.01 -21.92)"/><path class="cls-4" d="M50.44,132.31a2.36,2.36,0,0,1-.62.38,1.81,1.81,0,0,1-.63.11,1.22,1.22,0,0,1-.85-.27.91.91,0,0,1-.3-.7.89.89,0,0,1,.12-.45.85.85,0,0,1,.29-.33,1.38,1.38,0,0,1,.41-.18,4.17,4.17,0,0,1,.51-.09,5.33,5.33,0,0,0,1-.2v-.15a.63.63,0,0,0-.16-.49,1,1,0,0,0-.65-.19,1.06,1.06,0,0,0-.6.14.83.83,0,0,0-.28.5l-.56-.08a1.34,1.34,0,0,1,.25-.58,1.2,1.2,0,0,1,.51-.34,2.2,2.2,0,0,1,.76-.12,1.94,1.94,0,0,1,.7.11.92.92,0,0,1,.4.25,1,1,0,0,1,.18.39,3.43,3.43,0,0,1,0,.53v.76a8.82,8.82,0,0,0,0,1,1.22,1.22,0,0,0,.15.4h-.6A1,1,0,0,1,50.44,132.31Zm0-1.28a4.52,4.52,0,0,1-.94.22,2,2,0,0,0-.49.11.43.43,0,0,0-.23.19.5.5,0,0,0,.09.65.78.78,0,0,0,.51.15,1.25,1.25,0,0,0,.59-.14,1,1,0,0,0,.38-.4,1.41,1.41,0,0,0,.09-.57Z" transform="translate(0.01 -21.92)"/><path class="cls-4" d="M51.85,132.72v-3.37h.51v.48a1.23,1.23,0,0,1,1.08-.56,1.47,1.47,0,0,1,.56.11.89.89,0,0,1,.38.29,1.33,1.33,0,0,1,.18.42,3.51,3.51,0,0,1,0,.56v2.07H54v-2.05a1.41,1.41,0,0,0-.07-.52.5.5,0,0,0-.24-.28.71.71,0,0,0-.39-.1.92.92,0,0,0-.63.23,1.14,1.14,0,0,0-.27.88v1.84Z" transform="translate(0.01 -21.92)"/><path class="cls-4" d="M55.36,133l.56.08a.52.52,0,0,0,.19.38,1,1,0,0,0,.58.16,1,1,0,0,0,.61-.16.84.84,0,0,0,.3-.45,4.85,4.85,0,0,0,0-.73,1.19,1.19,0,0,1-.94.44,1.24,1.24,0,0,1-1.07-.5,1.87,1.87,0,0,1-.38-1.2,2.35,2.35,0,0,1,.17-.89,1.46,1.46,0,0,1,.51-.63,1.35,1.35,0,0,1,.78-.23,1.23,1.23,0,0,1,1,.49v-.41h.53v2.91a2.9,2.9,0,0,1-.16,1.12,1.22,1.22,0,0,1-.51.52,1.74,1.74,0,0,1-.86.19,1.61,1.61,0,0,1-1-.27A.91.91,0,0,1,55.36,133Zm.47-2a1.41,1.41,0,0,0,.27,1,.81.81,0,0,0,.66.31.85.85,0,0,0,.66-.3,1.82,1.82,0,0,0,0-1.89.83.83,0,0,0-.66-.31.81.81,0,0,0-.65.31A1.35,1.35,0,0,0,55.83,131Z" transform="translate(0.01 -21.92)"/><path class="cls-4" d="M61.39,131.64l.59.07a1.5,1.5,0,0,1-.52.8,1.74,1.74,0,0,1-2.14-.17,1.77,1.77,0,0,1-.43-1.28,1.9,1.9,0,0,1,.44-1.32,1.49,1.49,0,0,1,1.13-.47,1.44,1.44,0,0,1,1.11.47A1.82,1.82,0,0,1,62,131a1,1,0,0,1,0,.15H59.48a1.32,1.32,0,0,0,.31.85.94.94,0,0,0,.71.3.89.89,0,0,0,.54-.17A1.16,1.16,0,0,0,61.39,131.64Zm-1.88-.93h1.88a1.13,1.13,0,0,0-.21-.64.91.91,0,0,0-.71-.33.9.9,0,0,0-.66.27A1,1,0,0,0,59.51,130.71Z" transform="translate(0.01 -21.92)"/><path class="cls-4" d="M44.76,150.56l.58-.05a1.32,1.32,0,0,0,.19.57,1,1,0,0,0,.47.36,1.8,1.8,0,0,0,.71.14,1.64,1.64,0,0,0,.62-.11.91.91,0,0,0,.41-.28.76.76,0,0,0,.13-.4.59.59,0,0,0-.13-.39.92.92,0,0,0-.42-.27c-.12,0-.4-.12-.83-.23a4.15,4.15,0,0,1-.89-.29,1.19,1.19,0,0,1-.5-.43,1.06,1.06,0,0,1-.16-.58,1.16,1.16,0,0,1,.2-.66,1.18,1.18,0,0,1,.58-.46,2.15,2.15,0,0,1,.85-.16,2.4,2.4,0,0,1,.92.16,1.35,1.35,0,0,1,.6.5,1.4,1.4,0,0,1,.23.73l-.59,0a1,1,0,0,0-.32-.66,1.24,1.24,0,0,0-.81-.23,1.3,1.3,0,0,0-.82.21.6.6,0,0,0-.25.49.52.52,0,0,0,.18.41,2.39,2.39,0,0,0,.93.33,7.58,7.58,0,0,1,1,.3,1.47,1.47,0,0,1,.6.47,1.19,1.19,0,0,1,.19.67,1.3,1.3,0,0,1-.21.7,1.4,1.4,0,0,1-.61.51,2.19,2.19,0,0,1-.9.18,2.76,2.76,0,0,1-1.06-.18,1.54,1.54,0,0,1-.67-.56A1.56,1.56,0,0,1,44.76,150.56Z" transform="translate(0.01 -21.92)"/><path class="cls-4" d="M49.23,153.34v-4.66h.52v.44a1.29,1.29,0,0,1,.42-.39,1.19,1.19,0,0,1,.56-.13,1.31,1.31,0,0,1,.76.23,1.29,1.29,0,0,1,.5.62,2.35,2.35,0,0,1,.17.89,2.3,2.3,0,0,1-.19.93,1.36,1.36,0,0,1-.54.64,1.45,1.45,0,0,1-.74.22,1.14,1.14,0,0,1-.52-.12,1.25,1.25,0,0,1-.37-.31v1.64Zm.52-3a1.46,1.46,0,0,0,.26,1,.82.82,0,0,0,1.29,0,2,2,0,0,0,0-2,.79.79,0,0,0-1.28,0A1.52,1.52,0,0,0,49.75,150.38Z" transform="translate(0.01 -21.92)"/><path class="cls-4" d="M55.15,151l.59.07a1.39,1.39,0,0,1-.52.8,1.54,1.54,0,0,1-1,.29,1.52,1.52,0,0,1-1.17-.46,1.77,1.77,0,0,1-.44-1.28,1.9,1.9,0,0,1,.44-1.32,1.49,1.49,0,0,1,1.14-.47,1.45,1.45,0,0,1,1.1.46,1.82,1.82,0,0,1,.43,1.3v.15H53.24a1.32,1.32,0,0,0,.32.85.92.92,0,0,0,.7.3.89.89,0,0,0,.54-.17A1,1,0,0,0,55.15,151ZM53.28,150h1.88a1.21,1.21,0,0,0-.22-.64.88.88,0,0,0-.71-.33.9.9,0,0,0-.66.27A1,1,0,0,0,53.28,150Z" transform="translate(0.01 -21.92)"/><path class="cls-4" d="M58.77,151l.59.07a1.5,1.5,0,0,1-.52.8,1.74,1.74,0,0,1-2.14-.17,1.77,1.77,0,0,1-.43-1.28,1.9,1.9,0,0,1,.44-1.32,1.58,1.58,0,0,1,2.24,0,1.87,1.87,0,0,1,.43,1.3,1,1,0,0,1,0,.15H56.86a1.32,1.32,0,0,0,.31.85.94.94,0,0,0,.71.3.84.84,0,0,0,.53-.17A1.1,1.1,0,0,0,58.77,151ZM56.89,150h1.88a1.13,1.13,0,0,0-.21-.64.88.88,0,0,0-.71-.33.9.9,0,0,0-.66.27A1,1,0,0,0,56.89,150Z" transform="translate(0.01 -21.92)"/><path class="cls-4" d="M62.26,152.05v-.42a1.05,1.05,0,0,1-.94.5,1.3,1.3,0,0,1-.74-.23,1.41,1.41,0,0,1-.53-.62,2.17,2.17,0,0,1-.18-.91,2.29,2.29,0,0,1,.17-.92,1.37,1.37,0,0,1,.5-.63,1.43,1.43,0,0,1,.75-.22,1.21,1.21,0,0,1,.55.13,1.24,1.24,0,0,1,.38.34V147.4h.57v4.65Zm-1.8-1.68a1.5,1.5,0,0,0,.27,1,.83.83,0,0,0,.64.32.81.81,0,0,0,.64-.31,1.41,1.41,0,0,0,.26-.93,1.58,1.58,0,0,0-.27-1,.82.82,0,0,0-1.29,0A1.54,1.54,0,0,0,60.46,150.37Z" transform="translate(0.01 -21.92)"/><path class="cls-4" d="M65.51,153.34V147.4h1.26v.47h-.69v5h.69v.47Z" transform="translate(0.01 -21.92)"/><path class="cls-4" d="M67.3,152.05v-3.37h.51v.51a1.31,1.31,0,0,1,.36-.47.63.63,0,0,1,.37-.12,1.17,1.17,0,0,1,.59.19l-.2.53a.86.86,0,0,0-.42-.13.54.54,0,0,0-.34.12.58.58,0,0,0-.21.31,2.31,2.31,0,0,0-.09.67v1.76Z" transform="translate(0.01 -21.92)"/><path class="cls-4" d="M69,152.13l1.35-4.81h.45l-1.34,4.81Z" transform="translate(0.01 -21.92)"/><path class="cls-4" d="M71.27,152.05v-3.37h.51v.47a1.46,1.46,0,0,1,.42-.4,1.21,1.21,0,0,1,.6-.15,1.16,1.16,0,0,1,.62.16.86.86,0,0,1,.34.43,1.2,1.2,0,0,1,1-.59,1.05,1.05,0,0,1,.77.28,1.2,1.2,0,0,1,.27.86v2.31h-.57v-2.12a1.91,1.91,0,0,0,0-.5.49.49,0,0,0-.21-.24.62.62,0,0,0-.34-.09.79.79,0,0,0-.59.24,1,1,0,0,0-.23.75v2h-.58v-2.19a.92.92,0,0,0-.14-.57.51.51,0,0,0-.45-.19.81.81,0,0,0-.45.13.69.69,0,0,0-.29.37,1.85,1.85,0,0,0-.1.7v1.75Z" transform="translate(0.01 -21.92)"/><path class="cls-4" d="M76.69,148.05v-.65h.57v.65Zm0,4v-3.37h.57v3.37Z" transform="translate(0.01 -21.92)"/><path class="cls-4" d="M78.13,152.05v-3.37h.51v.48a1.23,1.23,0,0,1,1.08-.56,1.47,1.47,0,0,1,.56.11.89.89,0,0,1,.38.29,1.33,1.33,0,0,1,.18.42,3.51,3.51,0,0,1,0,.56v2.07H80.3V150a1.38,1.38,0,0,0-.07-.52.53.53,0,0,0-.23-.28.77.77,0,0,0-.4-.1.92.92,0,0,0-.63.23,1.14,1.14,0,0,0-.27.88v1.84Z" transform="translate(0.01 -21.92)"/><path class="cls-4" d="M82.7,153.34H81.44v-.47h.69v-5h-.69v-.47H82.7Z" transform="translate(0.01 -21.92)"/></g></svg>