<svg xmlns="http://www.w3.org/2000/svg" viewBox="0 0 113.05 131.42"><defs><style>.cls-1,.cls-2,.繝医Ν繧ｯ繧ｰ繝ｩ繝廟繧ｰ繝ｬ繝ｼ邱,.邱喟0\.5pt-3{fill:none;}.cls-1,.cls-2,.邱喟0\.5pt-3{stroke:#231815;}.cls-1,.邱喟0\.5pt-3{stroke-miterlimit:10;}.cls-1{stroke-width:0.14px;}.繝医Ν繧ｯ繧ｰ繝ｩ繝廟繧ｰ繝ｬ繝ｼ邱{stroke:#9fa0a0;stroke-width:3px;}.cls-3{fill:#231815;}.繝後Μ_逋ｽ{fill:#fff;}.邱喟0\.5pt-3{stroke-width:0.5px;}</style></defs><g id="Illust"><line class="cls-1" x1="43.95" y1="2.18" x2="43.95" y2="115.56"/><line class="cls-1" x1="69.46" y1="2.18" x2="69.46" y2="115.56"/><line class="cls-1" x1="94.97" y1="2.18" x2="94.97" y2="115.56"/><line class="cls-1" x1="18.44" y1="39.99" x2="107.73" y2="39.99"/><line class="cls-1" x1="18.44" y1="96.69" x2="107.73" y2="96.69"/><line class="cls-1" x1="18.44" y1="77.81" x2="107.73" y2="77.81"/><line class="cls-1" x1="18.44" y1="58.87" x2="107.73" y2="58.87"/><line class="cls-1" x1="18.44" y1="21.12" x2="107.73" y2="21.12"/><polyline class="繝医Ν繧ｯ繧ｰ繝ｩ繝廟繧ｰ繝ｬ繝ｼ邱" points="18.44 91.54 31.18 91.54 56.72 91.54 69.46 97.54 94.99 103.55 107.73 105.27"/><polyline class="cls-2" points="18.44 91.54 31.18 91.54 56.72 91.54 69.46 97.54 94.99 103.55 107.73 105.27"/><polyline class="繝医Ν繧ｯ繧ｰ繝ｩ繝廟繧ｰ繝ｬ繝ｼ邱" points="18.44 7.29 38.85 7.29 43.95 31.38 108.46 91.7"/><polyline class="cls-2" points="18.44 7.29 31.17 7.29 36.28 31.35 108.46 99.28"/><path class="cls-3" d="M10.26,137.13a3.52,3.52,0,0,1,.13-1,1.31,1.31,0,0,1,.39-.6,1,1,0,0,1,.65-.21,1.07,1.07,0,0,1,.51.12,1.13,1.13,0,0,1,.36.33,2.25,2.25,0,0,1,.22.54,3.72,3.72,0,0,1,.08.84,3.2,3.2,0,0,1-.13,1,1.31,1.31,0,0,1-.39.6,1,1,0,0,1-.65.21,1,1,0,0,1-.81-.37A2.35,2.35,0,0,1,10.26,137.13Zm.46,0a2.27,2.27,0,0,0,.2,1.18.62.62,0,0,0,.51.29.61.61,0,0,0,.51-.3,3.36,3.36,0,0,0,0-2.34.6.6,0,0,0-.51-.29.56.56,0,0,0-.49.25A2.33,2.33,0,0,0,10.72,137.13Z" transform="translate(0.01 -21.92)"/><path class="cls-3" d="M13.29,138.9v-.5h.5v.5Z" transform="translate(0.01 -21.92)"/><path class="cls-3" d="M14.43,137.13a3.52,3.52,0,0,1,.13-1,1.31,1.31,0,0,1,.39-.6,1,1,0,0,1,.65-.21,1.07,1.07,0,0,1,.51.12,1.13,1.13,0,0,1,.36.33,2.25,2.25,0,0,1,.22.54,3.72,3.72,0,0,1,.08.84,3.2,3.2,0,0,1-.13,1,1.31,1.31,0,0,1-.39.6,1,1,0,0,1-.65.21,1,1,0,0,1-.81-.37A2.35,2.35,0,0,1,14.43,137.13Zm.46,0a2.27,2.27,0,0,0,.2,1.18.62.62,0,0,0,.51.29.61.61,0,0,0,.51-.3,3.36,3.36,0,0,0,0-2.34.6.6,0,0,0-.51-.29.56.56,0,0,0-.49.25A2.33,2.33,0,0,0,14.89,137.13Z" transform="translate(0.01 -21.92)"/><path class="cls-3" d="M11.92,120h-.44v-2.8a2.18,2.18,0,0,1-.42.3,2.81,2.81,0,0,1-.46.23v-.43a2.66,2.66,0,0,0,.65-.41,2,2,0,0,0,.39-.48h.28Z" transform="translate(0.01 -21.92)"/><path class="cls-3" d="M13.29,120v-.5h.5v.5Z" transform="translate(0.01 -21.92)"/><path class="cls-3" d="M14.43,118.24a3.54,3.54,0,0,1,.13-1,1.33,1.33,0,0,1,.39-.59,1,1,0,0,1,.65-.21,1.19,1.19,0,0,1,.51.11,1.06,1.06,0,0,1,.36.34,2,2,0,0,1,.22.53,3.76,3.76,0,0,1,.08.85,3.14,3.14,0,0,1-.13,1,1.31,1.31,0,0,1-.39.6,1,1,0,0,1-.65.21,1,1,0,0,1-.81-.37A2.32,2.32,0,0,1,14.43,118.24Zm.46,0a2.25,2.25,0,0,0,.2,1.17.59.59,0,0,0,1,0,3.39,3.39,0,0,0,0-2.35.62.62,0,0,0-.51-.29.57.57,0,0,0-.49.26A2.28,2.28,0,0,0,14.89,118.24Z" transform="translate(0.01 -21.92)"/><path class="cls-3" d="M12.57,100.68v.42H10.21a.61.61,0,0,1,0-.3,1.76,1.76,0,0,1,.29-.48,3.81,3.81,0,0,1,.57-.54,4.48,4.48,0,0,0,.79-.76.9.9,0,0,0,.21-.53.61.61,0,0,0-.19-.44.67.67,0,0,0-.49-.18.69.69,0,0,0-.5.19.72.72,0,0,0-.2.53l-.45,0a1.14,1.14,0,0,1,.35-.77,1.21,1.21,0,0,1,.81-.26,1.13,1.13,0,0,1,.82.28.94.94,0,0,1,.3.71,1,1,0,0,1-.09.42,1.51,1.51,0,0,1-.29.44,8.11,8.11,0,0,1-.68.63l-.51.45a1.88,1.88,0,0,0-.18.24Z" transform="translate(0.01 -21.92)"/><path class="cls-3" d="M13.29,101.1v-.5h.5v.5Z" transform="translate(0.01 -21.92)"/><path class="cls-3" d="M14.43,99.34a3.42,3.42,0,0,1,.13-1,1.31,1.31,0,0,1,.39-.6,1,1,0,0,1,.65-.21,1.19,1.19,0,0,1,.51.11,1.06,1.06,0,0,1,.36.34,2,2,0,0,1,.22.53,3.76,3.76,0,0,1,.08.85,3.09,3.09,0,0,1-.13,1,1.31,1.31,0,0,1-.39.6,1,1,0,0,1-.65.21,1,1,0,0,1-.81-.37A2.32,2.32,0,0,1,14.43,99.34Zm.46,0a2.23,2.23,0,0,0,.2,1.17.59.59,0,0,0,1,0,3.39,3.39,0,0,0,0-2.35.62.62,0,0,0-.51-.29.57.57,0,0,0-.49.26A2.3,2.3,0,0,0,14.89,99.34Z" transform="translate(0.01 -21.92)"/><path class="cls-3" d="M10.27,81.26l.44-.06a1,1,0,0,0,.25.54.65.65,0,0,0,.45.16.72.72,0,0,0,.73-.74.68.68,0,0,0-.19-.5.71.71,0,0,0-.51-.2,1.5,1.5,0,0,0-.31.05l0-.39h.07a.9.9,0,0,0,.51-.15.48.48,0,0,0,.22-.45.54.54,0,0,0-.16-.4A.61.61,0,0,0,11.4,79a.63.63,0,0,0-.43.16.83.83,0,0,0-.22.49l-.44-.08a1.14,1.14,0,0,1,.37-.69,1.05,1.05,0,0,1,.71-.24,1.13,1.13,0,0,1,.54.13.82.82,0,0,1,.37.34.84.84,0,0,1,.13.46.74.74,0,0,1-.12.42.88.88,0,0,1-.37.31.82.82,0,0,1,.49.3.91.91,0,0,1,.18.58,1,1,0,0,1-.34.79,1.21,1.21,0,0,1-.87.33,1.16,1.16,0,0,1-.78-.28A1.08,1.08,0,0,1,10.27,81.26Z" transform="translate(0.01 -21.92)"/><path class="cls-3" d="M13.29,82.2v-.5h.5v.5Z" transform="translate(0.01 -21.92)"/><path class="cls-3" d="M14.43,80.44a3.52,3.52,0,0,1,.13-1,1.31,1.31,0,0,1,.39-.6,1,1,0,0,1,.65-.21,1.07,1.07,0,0,1,.51.12,1,1,0,0,1,.36.33,2.17,2.17,0,0,1,.22.53,3.76,3.76,0,0,1,.08.85,3.2,3.2,0,0,1-.13,1,1.33,1.33,0,0,1-.39.59,1,1,0,0,1-.65.22,1,1,0,0,1-.81-.38A2.3,2.3,0,0,1,14.43,80.44Zm.46,0a2.2,2.2,0,0,0,.2,1.17.59.59,0,0,0,1,0,3.36,3.36,0,0,0,0-2.34.61.61,0,0,0-.51-.3.57.57,0,0,0-.49.26A2.3,2.3,0,0,0,14.89,80.44Z" transform="translate(0.01 -21.92)"/><path class="cls-3" d="M11.67,63.31v-.86H10.12v-.4l1.63-2.32h.36v2.32h.49v.4h-.49v.86Zm0-1.26V60.43l-1.12,1.62Z" transform="translate(0.01 -21.92)"/><path class="cls-3" d="M13.29,63.31v-.5h.5v.5Z" transform="translate(0.01 -21.92)"/><path class="cls-3" d="M14.43,61.54a3.52,3.52,0,0,1,.13-1,1.31,1.31,0,0,1,.39-.6,1,1,0,0,1,.65-.21,1.07,1.07,0,0,1,.51.12,1.13,1.13,0,0,1,.36.33,2.25,2.25,0,0,1,.22.54,3.72,3.72,0,0,1,.08.84,3.2,3.2,0,0,1-.13,1,1.31,1.31,0,0,1-.39.6A1.09,1.09,0,0,1,14.79,63,2.35,2.35,0,0,1,14.43,61.54Zm.46,0a2.27,2.27,0,0,0,.2,1.18.62.62,0,0,0,.51.29.61.61,0,0,0,.51-.3,3.36,3.36,0,0,0,0-2.34.6.6,0,0,0-.51-.29.56.56,0,0,0-.49.25A2.3,2.3,0,0,0,14.89,61.54Z" transform="translate(0.01 -21.92)"/><path class="cls-3" d="M10.26,43.47l.47,0a.81.81,0,0,0,.23.51.68.68,0,0,0,.45.17.7.7,0,0,0,.54-.24.88.88,0,0,0,.22-.63.83.83,0,0,0-.21-.6.76.76,0,0,0-.55-.22.87.87,0,0,0-.39.1.93.93,0,0,0-.27.25l-.41-.05.35-1.84h1.78v.42H11l-.19,1a1.14,1.14,0,0,1,.67-.22,1.07,1.07,0,0,1,.8.32,1.17,1.17,0,0,1,.32.84,1.32,1.32,0,0,1-.29.84,1.13,1.13,0,0,1-.94.43,1.15,1.15,0,0,1-.79-.27A1.09,1.09,0,0,1,10.26,43.47Z" transform="translate(0.01 -21.92)"/><path class="cls-3" d="M13.29,44.41v-.5h.5v.5Z" transform="translate(0.01 -21.92)"/><path class="cls-3" d="M14.43,42.64a3.52,3.52,0,0,1,.13-1A1.28,1.28,0,0,1,15,41a1,1,0,0,1,.65-.21.95.95,0,0,1,.87.45,2,2,0,0,1,.22.53,3.72,3.72,0,0,1,.08.84,3.2,3.2,0,0,1-.13,1,1.31,1.31,0,0,1-.39.6,1,1,0,0,1-.65.21,1,1,0,0,1-.81-.37A2.33,2.33,0,0,1,14.43,42.64Zm.46,0a2.27,2.27,0,0,0,.2,1.18.59.59,0,0,0,1,0,2.25,2.25,0,0,0,.21-1.18,2.18,2.18,0,0,0-.21-1.17.62.62,0,0,0-.51-.29.55.55,0,0,0-.49.26A2.26,2.26,0,0,0,14.89,42.64Z" transform="translate(0.01 -21.92)"/><path class="cls-3" d="M12.54,22.81l-.43,0a.85.85,0,0,0-.17-.37.56.56,0,0,0-.44-.19.61.61,0,0,0-.37.12,1,1,0,0,0-.32.44,2.43,2.43,0,0,0-.13.83,1,1,0,0,1,.39-.36,1,1,0,0,1,.48-.12,1,1,0,0,1,.75.32,1.21,1.21,0,0,1,.31.84,1.39,1.39,0,0,1-.15.63,1,1,0,0,1-.4.44,1.1,1.1,0,0,1-.57.15,1.12,1.12,0,0,1-.9-.4,2,2,0,0,1-.35-1.33,2.34,2.34,0,0,1,.39-1.51,1.08,1.08,0,0,1,.9-.41,1,1,0,0,1,.69.23A1,1,0,0,1,12.54,22.81Zm-1.79,1.54a1,1,0,0,0,.1.44.68.68,0,0,0,.27.31.59.59,0,0,0,.36.11A.61.61,0,0,0,12,25a.91.91,0,0,0,.2-.61.84.84,0,0,0-.2-.59.66.66,0,0,0-.5-.21.67.67,0,0,0-.5.21A.76.76,0,0,0,10.75,24.35Z" transform="translate(0.01 -21.92)"/><path class="cls-3" d="M13.29,25.51V25h.5v.5Z" transform="translate(0.01 -21.92)"/><path class="cls-3" d="M14.43,23.75a3.54,3.54,0,0,1,.13-1,1.33,1.33,0,0,1,.39-.59,1,1,0,0,1,.65-.21,1.19,1.19,0,0,1,.51.11,1.06,1.06,0,0,1,.36.34,2,2,0,0,1,.22.53,3.76,3.76,0,0,1,.08.85,3.09,3.09,0,0,1-.13,1,1.31,1.31,0,0,1-.39.6,1,1,0,0,1-.65.21,1,1,0,0,1-.81-.37A2.32,2.32,0,0,1,14.43,23.75Zm.46,0a2.25,2.25,0,0,0,.2,1.17.59.59,0,0,0,1,0,2.23,2.23,0,0,0,.21-1.17,2.25,2.25,0,0,0-.21-1.18.62.62,0,0,0-.51-.29.57.57,0,0,0-.49.26A2.3,2.3,0,0,0,14.89,23.75Z" transform="translate(0.01 -21.92)"/><path class="cls-3" d="M17.24,141.38a3.52,3.52,0,0,1,.13-1,1.28,1.28,0,0,1,.39-.59,1.14,1.14,0,0,1,1.15-.1.9.9,0,0,1,.36.34,1.73,1.73,0,0,1,.23.53,3.72,3.72,0,0,1,.08.84,3.52,3.52,0,0,1-.13,1,1.31,1.31,0,0,1-.39.6,1,1,0,0,1-.65.21,1,1,0,0,1-.81-.37A2.33,2.33,0,0,1,17.24,141.38Zm.45,0a2.25,2.25,0,0,0,.21,1.18.59.59,0,0,0,1,0,2.27,2.27,0,0,0,.2-1.18,2.23,2.23,0,0,0-.2-1.17.63.63,0,0,0-.52-.29.56.56,0,0,0-.48.26A2.24,2.24,0,0,0,17.69,141.38Z" transform="translate(0.01 -21.92)"/><path class="cls-3" d="M40.24,143.15H39.8v-2.8a2.54,2.54,0,0,1-.42.3,2.81,2.81,0,0,1-.46.23v-.43a2.22,2.22,0,0,0,.64-.42,1.45,1.45,0,0,0,.39-.47h.29Z" transform="translate(0.01 -21.92)"/><path class="cls-3" d="M41.36,141.38a3.52,3.52,0,0,1,.13-1,1.28,1.28,0,0,1,.39-.59,1,1,0,0,1,.65-.21,1.06,1.06,0,0,1,.51.11,1,1,0,0,1,.35.34,1.73,1.73,0,0,1,.23.53,3.72,3.72,0,0,1,.08.84,3.52,3.52,0,0,1-.13,1,1.31,1.31,0,0,1-.39.6,1,1,0,0,1-.65.21,1,1,0,0,1-.81-.37A2.33,2.33,0,0,1,41.36,141.38Zm.46,0a2.27,2.27,0,0,0,.2,1.18.59.59,0,0,0,1,0,2.25,2.25,0,0,0,.21-1.18,2.18,2.18,0,0,0-.21-1.17.62.62,0,0,0-.51-.29.55.55,0,0,0-.49.26A2.26,2.26,0,0,0,41.82,141.38Z" transform="translate(0.01 -21.92)"/><path class="cls-3" d="M44.14,141.38a3.52,3.52,0,0,1,.13-1,1.28,1.28,0,0,1,.39-.59,1,1,0,0,1,.65-.21.95.95,0,0,1,.87.45,2,2,0,0,1,.22.53,3.72,3.72,0,0,1,.08.84,3.2,3.2,0,0,1-.13,1,1.31,1.31,0,0,1-.39.6,1,1,0,0,1-.65.21,1,1,0,0,1-.81-.37A2.33,2.33,0,0,1,44.14,141.38Zm.46,0a2.27,2.27,0,0,0,.2,1.18.59.59,0,0,0,1,0,2.25,2.25,0,0,0,.21-1.18,2.18,2.18,0,0,0-.21-1.17.62.62,0,0,0-.51-.29.55.55,0,0,0-.49.26A2.26,2.26,0,0,0,44.6,141.38Z" transform="translate(0.01 -21.92)"/><path class="cls-3" d="M46.92,141.38a3.17,3.17,0,0,1,.14-1,1.19,1.19,0,0,1,.38-.59,1,1,0,0,1,.65-.21A.95.95,0,0,1,49,140a2,2,0,0,1,.22.53,3.72,3.72,0,0,1,.08.84,3.2,3.2,0,0,1-.13,1,1.31,1.31,0,0,1-.39.6,1,1,0,0,1-.65.21,1,1,0,0,1-.81-.37A2.33,2.33,0,0,1,46.92,141.38Zm.46,0a2.38,2.38,0,0,0,.2,1.18.59.59,0,0,0,1,0,2.25,2.25,0,0,0,.21-1.18,2.18,2.18,0,0,0-.21-1.17.62.62,0,0,0-.51-.29.56.56,0,0,0-.49.26A2.26,2.26,0,0,0,47.38,141.38Z" transform="translate(0.01 -21.92)"/><path class="cls-3" d="M66.4,142.73v.42H64a.81.81,0,0,1,0-.31,1.58,1.58,0,0,1,.29-.47,3.81,3.81,0,0,1,.57-.54,4.87,4.87,0,0,0,.79-.76.9.9,0,0,0,.21-.53.58.58,0,0,0-.19-.44.67.67,0,0,0-.49-.18.65.65,0,0,0-.5.19.71.71,0,0,0-.2.53l-.45,0a1.12,1.12,0,0,1,.35-.77,1.16,1.16,0,0,1,.81-.26,1.13,1.13,0,0,1,.82.28.94.94,0,0,1,.3.71,1.06,1.06,0,0,1-.09.42,1.51,1.51,0,0,1-.29.44,8.11,8.11,0,0,1-.68.63l-.51.45a1.88,1.88,0,0,0-.18.24Z" transform="translate(0.01 -21.92)"/><path class="cls-3" d="M66.88,141.38a3.2,3.2,0,0,1,.13-1,1.19,1.19,0,0,1,.38-.59,1,1,0,0,1,.65-.21.95.95,0,0,1,.87.45,1.73,1.73,0,0,1,.22.53,3.72,3.72,0,0,1,.08.84,3.2,3.2,0,0,1-.13,1,1.31,1.31,0,0,1-.39.6,1,1,0,0,1-.65.21,1,1,0,0,1-.81-.37A2.34,2.34,0,0,1,66.88,141.38Zm.45,0a2.38,2.38,0,0,0,.2,1.18.59.59,0,0,0,1,0,2.25,2.25,0,0,0,.21-1.18,2.18,2.18,0,0,0-.21-1.17.62.62,0,0,0-.51-.29.56.56,0,0,0-.49.26A2.26,2.26,0,0,0,67.33,141.38Z" transform="translate(0.01 -21.92)"/><path class="cls-3" d="M69.66,141.38a3.2,3.2,0,0,1,.13-1,1.14,1.14,0,0,1,.39-.59,1,1,0,0,1,.64-.21,1,1,0,0,1,.51.11,1.06,1.06,0,0,1,.36.34,1.73,1.73,0,0,1,.22.53,3.72,3.72,0,0,1,.08.84,3.2,3.2,0,0,1-.13,1,1.23,1.23,0,0,1-.39.6,1.09,1.09,0,0,1-1.46-.16A2.34,2.34,0,0,1,69.66,141.38Zm.45,0a2.38,2.38,0,0,0,.2,1.18.59.59,0,0,0,1,0,2.25,2.25,0,0,0,.21-1.18,2.18,2.18,0,0,0-.21-1.17.62.62,0,0,0-.51-.29.54.54,0,0,0-.48.26A2.15,2.15,0,0,0,70.11,141.38Z" transform="translate(0.01 -21.92)"/><path class="cls-3" d="M72.44,141.38a3.2,3.2,0,0,1,.13-1,1.14,1.14,0,0,1,.39-.59,1,1,0,0,1,.64-.21,1,1,0,0,1,.51.11,1.06,1.06,0,0,1,.36.34,1.73,1.73,0,0,1,.22.53,3.72,3.72,0,0,1,.08.84,3.2,3.2,0,0,1-.13,1,1.17,1.17,0,0,1-.39.6,1.09,1.09,0,0,1-1.46-.16A2.41,2.41,0,0,1,72.44,141.38Zm.45,0a2.38,2.38,0,0,0,.2,1.18.62.62,0,0,0,.51.29.6.6,0,0,0,.51-.29,2.25,2.25,0,0,0,.21-1.18,2.18,2.18,0,0,0-.21-1.17.61.61,0,0,0-.51-.29.54.54,0,0,0-.48.26A2.15,2.15,0,0,0,72.89,141.38Z" transform="translate(0.01 -21.92)"/><path class="cls-3" d="M89.61,142.2l.44,0a.92.92,0,0,0,.26.53.62.62,0,0,0,.44.17.67.67,0,0,0,.52-.22.73.73,0,0,0,.22-.53.69.69,0,0,0-.2-.5.68.68,0,0,0-.5-.19,1.25,1.25,0,0,0-.31,0l0-.38h.07a.89.89,0,0,0,.51-.14.5.5,0,0,0,.22-.45.51.51,0,0,0-.16-.4.57.57,0,0,0-.42-.16.6.6,0,0,0-.43.16.83.83,0,0,0-.22.48l-.44-.08a1.16,1.16,0,0,1,.37-.68,1.07,1.07,0,0,1,.71-.24,1.25,1.25,0,0,1,.54.12,1,1,0,0,1,.38.34,1,1,0,0,1,.13.47.8.8,0,0,1-.13.42.81.81,0,0,1-.37.3.88.88,0,0,1,.5.3,1,1,0,0,1,.17.58,1.07,1.07,0,0,1-.34.8,1.24,1.24,0,0,1-.86.32,1.08,1.08,0,0,1-1.14-1Z" transform="translate(0.01 -21.92)"/><path class="cls-3" d="M92.39,141.38a3.2,3.2,0,0,1,.13-1,1.14,1.14,0,0,1,.39-.59,1,1,0,0,1,.64-.21,1,1,0,0,1,.51.11,1.06,1.06,0,0,1,.36.34,1.73,1.73,0,0,1,.22.53,3.72,3.72,0,0,1,.08.84,3.2,3.2,0,0,1-.13,1,1.23,1.23,0,0,1-.39.6,1.09,1.09,0,0,1-1.46-.16A2.34,2.34,0,0,1,92.39,141.38Zm.45,0a2.38,2.38,0,0,0,.2,1.18.62.62,0,0,0,.51.29.6.6,0,0,0,.51-.29,2.25,2.25,0,0,0,.21-1.18,2.18,2.18,0,0,0-.21-1.17.61.61,0,0,0-.51-.29.54.54,0,0,0-.48.26A2.15,2.15,0,0,0,92.84,141.38Z" transform="translate(0.01 -21.92)"/><path class="cls-3" d="M95.17,141.38a3.2,3.2,0,0,1,.13-1,1.2,1.2,0,0,1,.39-.59,1,1,0,0,1,.64-.21,1,1,0,0,1,.51.11,1.06,1.06,0,0,1,.36.34,1.73,1.73,0,0,1,.22.53,3.72,3.72,0,0,1,.08.84,3.2,3.2,0,0,1-.13,1,1.22,1.22,0,0,1-.38.6,1,1,0,0,1-.66.21,1,1,0,0,1-.81-.37A2.41,2.41,0,0,1,95.17,141.38Zm.45,0a2.25,2.25,0,0,0,.21,1.18.58.58,0,0,0,1,0,2.25,2.25,0,0,0,.21-1.18,2.18,2.18,0,0,0-.21-1.17.61.61,0,0,0-.51-.29.54.54,0,0,0-.48.26A2.15,2.15,0,0,0,95.62,141.38Z" transform="translate(0.01 -21.92)"/><path class="cls-3" d="M98,141.38a3.2,3.2,0,0,1,.13-1,1.28,1.28,0,0,1,.39-.59,1.14,1.14,0,0,1,1.15-.1.9.9,0,0,1,.36.34,1.73,1.73,0,0,1,.22.53,4.23,4.23,0,0,1,0,1.86,1.22,1.22,0,0,1-.38.6,1,1,0,0,1-.65.21,1,1,0,0,1-.82-.37A2.41,2.41,0,0,1,98,141.38Zm.45,0a2.25,2.25,0,0,0,.21,1.18.58.58,0,0,0,1,0,2.25,2.25,0,0,0,.21-1.18,2.18,2.18,0,0,0-.21-1.17.6.6,0,0,0-.51-.29.54.54,0,0,0-.48.26A2.24,2.24,0,0,0,98.4,141.38Z" transform="translate(0.01 -21.92)"/><path class="cls-3" d="M102.36,142.2l.44,0a1,1,0,0,0,.26.53.64.64,0,0,0,.44.17.69.69,0,0,0,.53-.22.72.72,0,0,0,.21-.53.65.65,0,0,0-.2-.5.66.66,0,0,0-.5-.19,1.38,1.38,0,0,0-.31,0l0-.38h.07a.89.89,0,0,0,.51-.14.5.5,0,0,0,.22-.45.51.51,0,0,0-.16-.4.57.57,0,0,0-.42-.16.57.57,0,0,0-.43.16.77.77,0,0,0-.22.48l-.44-.08a1,1,0,0,1,1.08-.92,1.18,1.18,0,0,1,.53.12.85.85,0,0,1,.38.34.88.88,0,0,1,.13.47.79.79,0,0,1-.12.42.86.86,0,0,1-.37.3.82.82,0,0,1,.49.3.93.93,0,0,1,.18.58,1.1,1.1,0,0,1-.34.8,1.24,1.24,0,0,1-.87.32,1.12,1.12,0,0,1-.78-.28A1.09,1.09,0,0,1,102.36,142.2Z" transform="translate(0.01 -21.92)"/><path class="cls-3" d="M105.14,142.21l.46,0a.87.87,0,0,0,.24.51.68.68,0,0,0,.45.17.71.71,0,0,0,.54-.24.89.89,0,0,0,.22-.64.82.82,0,0,0-.21-.59.76.76,0,0,0-.55-.22.84.84,0,0,0-.39.1.81.81,0,0,0-.27.25l-.41,0,.35-1.84h1.78V140h-1.43l-.19,1a1.14,1.14,0,0,1,.67-.22,1,1,0,0,1,.79.32,1.14,1.14,0,0,1,.33.84,1.32,1.32,0,0,1-.29.84,1.13,1.13,0,0,1-.94.43,1.15,1.15,0,0,1-.79-.27A1.09,1.09,0,0,1,105.14,142.21Z" transform="translate(0.01 -21.92)"/><path class="cls-3" d="M107.92,141.38a3.52,3.52,0,0,1,.13-1,1.28,1.28,0,0,1,.39-.59,1,1,0,0,1,.65-.21.95.95,0,0,1,.87.45,2,2,0,0,1,.22.53,3.72,3.72,0,0,1,.08.84,3.52,3.52,0,0,1-.13,1,1.31,1.31,0,0,1-.39.6,1,1,0,0,1-.65.21,1,1,0,0,1-.81-.37A2.33,2.33,0,0,1,107.92,141.38Zm.46,0a2.27,2.27,0,0,0,.2,1.18.59.59,0,0,0,1,0,2.25,2.25,0,0,0,.21-1.18,2.18,2.18,0,0,0-.21-1.17.62.62,0,0,0-.51-.29.55.55,0,0,0-.49.26A2.26,2.26,0,0,0,108.38,141.38Z" transform="translate(0.01 -21.92)"/><path class="cls-3" d="M110.7,141.38a3.17,3.17,0,0,1,.14-1,1.19,1.19,0,0,1,.38-.59,1,1,0,0,1,.65-.21.95.95,0,0,1,.87.45,2,2,0,0,1,.22.53,3.72,3.72,0,0,1,.08.84,3.2,3.2,0,0,1-.13,1,1.31,1.31,0,0,1-.39.6,1,1,0,0,1-.65.21,1,1,0,0,1-.81-.37A2.33,2.33,0,0,1,110.7,141.38Zm.46,0a2.38,2.38,0,0,0,.2,1.18.59.59,0,0,0,1,0,2.25,2.25,0,0,0,.21-1.18,2.18,2.18,0,0,0-.21-1.17.62.62,0,0,0-.51-.29.56.56,0,0,0-.49.26A2.26,2.26,0,0,0,111.16,141.38Z" transform="translate(0.01 -21.92)"/><rect class="繝後Μ_逋ｽ" x="107.73" y="2.18" width="2.83" height="113.39"/><rect class="邱喟0.5pt-3" x="18.44" y="2.18" width="89.29" height="113.39"/></g><g id="English"><path class="cls-3" d="M4.64,98.27H.54V99.8H0V96.11H.54v1.54h4.1Z" transform="translate(0.01 -21.92)"/><path class="cls-3" d="M3,95.77a1.72,1.72,0,0,1-1.38-.52,1.58,1.58,0,0,1-.38-1.06,1.5,1.5,0,0,1,.46-1.14,1.74,1.74,0,0,1,1.26-.44,2.22,2.22,0,0,1,1,.2,1.42,1.42,0,0,1,.58.56,1.64,1.64,0,0,1,.21.82,1.52,1.52,0,0,1-.46,1.14A1.82,1.82,0,0,1,3,95.77Zm0-.59a1.41,1.41,0,0,0,1-.28.91.91,0,0,0,.33-.71.89.89,0,0,0-.33-.71,1.43,1.43,0,0,0-1-.28,1.38,1.38,0,0,0-.95.28A.95.95,0,0,0,2,94.9,1.39,1.39,0,0,0,3,95.18Z" transform="translate(0.01 -21.92)"/><path class="cls-3" d="M4.64,92H1.27v-.52h.51a1.31,1.31,0,0,1-.47-.36.61.61,0,0,1-.12-.37,1,1,0,0,1,.19-.58l.53.19a.76.76,0,0,0-.13.42.52.52,0,0,0,.12.34.58.58,0,0,0,.31.21,2.28,2.28,0,0,0,.66.1H4.64Z" transform="translate(0.01 -21.92)"/><path class="cls-3" d="M5.93,87.63H4.28a1,1,0,0,1,.31.37,1.14,1.14,0,0,1,.13.51,1.34,1.34,0,0,1-.48,1A1.9,1.9,0,0,1,2.92,90,2.21,2.21,0,0,1,2,89.8a1.33,1.33,0,0,1-.82-1.25,1.14,1.14,0,0,1,.53-1H1.27v-.51H5.93Zm-3,1.76a1.51,1.51,0,0,0,1-.27.81.81,0,0,0,0-1.29A1.46,1.46,0,0,0,3,87.57a1.57,1.57,0,0,0-1,.28.83.83,0,0,0-.34.65.79.79,0,0,0,.32.63A1.55,1.55,0,0,0,2.94,89.39Z" transform="translate(0.01 -21.92)"/><path class="cls-3" d="M4.64,84h-.5A1.22,1.22,0,0,1,4.72,85a1.31,1.31,0,0,1-.12.56.82.82,0,0,1-.29.38.9.9,0,0,1-.42.18,3.33,3.33,0,0,1-.53,0H1.27V85.6H3.14a3.77,3.77,0,0,0,.6,0,.57.57,0,0,0,.35-.23.69.69,0,0,0,.13-.43.91.91,0,0,0-.13-.48.7.7,0,0,0-.36-.32,1.63,1.63,0,0,0-.66-.1H1.27v-.57H4.64Z" transform="translate(0.01 -21.92)"/><path class="cls-3" d="M3.55,80.24l.08-.59a1.39,1.39,0,0,1,.8.52,1.72,1.72,0,0,1-.17,2.13A1.77,1.77,0,0,1,3,82.74a1.9,1.9,0,0,1-1.32-.44,1.49,1.49,0,0,1-.47-1.14,1.45,1.45,0,0,1,.46-1.1A1.82,1.82,0,0,1,3,79.63H3.1v2.52A1.29,1.29,0,0,0,4,81.83a.92.92,0,0,0,.3-.7.89.89,0,0,0-.17-.54A1.07,1.07,0,0,0,3.55,80.24Zm-.92,1.87V80.23a1.18,1.18,0,0,0-.64.22.88.88,0,0,0-.33.71.9.9,0,0,0,.27.66A1,1,0,0,0,2.63,82.11Z" transform="translate(0.01 -21.92)"/><path class="cls-3" d="M5.93,77.11H0V75.85H.46v.69h5v-.69h.47Z" transform="translate(0.01 -21.92)"/><path class="cls-3" d="M4.64,75.25H0v-.63l3.65-2.44H0v-.59H4.64v.63L1,74.66H4.64Z" transform="translate(0.01 -21.92)"/><path class="cls-3" d="M2.36,70.71a.78.78,0,0,1-.57-.24.79.79,0,0,1-.23-.57.81.81,0,0,1,1.37-.57.78.78,0,0,1,.24.57.76.76,0,0,1-.24.57A.78.78,0,0,1,2.36,70.71Z" transform="translate(0.01 -21.92)"/><path class="cls-3" d="M4.64,68.35H1.27v-.51h.47a1.34,1.34,0,0,1-.4-.42,1.21,1.21,0,0,1-.15-.6,1.08,1.08,0,0,1,.16-.62.86.86,0,0,1,.43-.34,1.2,1.2,0,0,1-.59-1,1.05,1.05,0,0,1,.28-.77,1.2,1.2,0,0,1,.86-.27H4.64v.57H2.52a1.49,1.49,0,0,0-.5.06.42.42,0,0,0-.24.2.62.62,0,0,0-.09.34.82.82,0,0,0,.23.59,1,1,0,0,0,.76.24h2v.57H2.45a.92.92,0,0,0-.57.14.51.51,0,0,0-.19.45.89.89,0,0,0,.12.45.77.77,0,0,0,.38.3,2.08,2.08,0,0,0,.7.09H4.64Z" transform="translate(0.01 -21.92)"/><path class="cls-3" d="M5.93,62v1.26H5.46v-.69h-5v.69H0V62Z" transform="translate(0.01 -21.92)"/><rect class="繝後Μ_逋ｽ" x="19.86" y="62.41" width="48.83" height="16.58"/><path class="cls-3" d="M22.45,89.2l.58,0a1.32,1.32,0,0,0,.19.57,1,1,0,0,0,.47.36,1.81,1.81,0,0,0,.72.14,2,2,0,0,0,.62-.1.89.89,0,0,0,.4-.29.66.66,0,0,0,.13-.4.57.57,0,0,0-.13-.38,1,1,0,0,0-.41-.28c-.13,0-.41-.12-.83-.22a4.72,4.72,0,0,1-.9-.29,1.36,1.36,0,0,1-.5-.44,1,1,0,0,1-.16-.58,1.16,1.16,0,0,1,.2-.66,1.28,1.28,0,0,1,.58-.46,2.16,2.16,0,0,1,.86-.16,2.38,2.38,0,0,1,.91.17,1.35,1.35,0,0,1,.61.49,1.39,1.39,0,0,1,.22.73l-.59.05a.91.91,0,0,0-.32-.67,1.24,1.24,0,0,0-.81-.23,1.27,1.27,0,0,0-.81.21.61.61,0,0,0-.26.49.51.51,0,0,0,.18.41,2.52,2.52,0,0,0,.93.34,6.61,6.61,0,0,1,1,.29,1.48,1.48,0,0,1,.6.48,1.14,1.14,0,0,1,.19.66,1.27,1.27,0,0,1-.21.7,1.34,1.34,0,0,1-.61.51,2.13,2.13,0,0,1-.9.18,2.67,2.67,0,0,1-1.05-.18,1.42,1.42,0,0,1-.67-.56A1.48,1.48,0,0,1,22.45,89.2Z" transform="translate(0.01 -21.92)"/><path class="cls-3" d="M26.92,90.69V86h.57v1.67a1.28,1.28,0,0,1,1-.46,1.45,1.45,0,0,1,.65.14.88.88,0,0,1,.4.41,1.88,1.88,0,0,1,.12.76v2.13H29.1V88.56a.91.91,0,0,0-.19-.63.68.68,0,0,0-.52-.19.91.91,0,0,0-.48.13.74.74,0,0,0-.32.36,1.66,1.66,0,0,0-.1.62v1.84Z" transform="translate(0.01 -21.92)"/><path class="cls-3" d="M30.32,89a1.73,1.73,0,0,1,.53-1.39,1.56,1.56,0,0,1,1.06-.37A1.51,1.51,0,0,1,33,87.7,1.71,1.71,0,0,1,33.48,89a2.24,2.24,0,0,1-.19,1,1.39,1.39,0,0,1-.57.58,1.63,1.63,0,0,1-.81.21,1.52,1.52,0,0,1-1.15-.45A1.84,1.84,0,0,1,30.32,89Zm.59,0a1.5,1.5,0,0,0,.28,1,.93.93,0,0,0,.72.32.91.91,0,0,0,.7-.32,1.48,1.48,0,0,0,.29-1,1.4,1.4,0,0,0-.29-.95.91.91,0,0,0-.7-.32.93.93,0,0,0-.72.32A1.48,1.48,0,0,0,30.91,89Z" transform="translate(0.01 -21.92)"/><path class="cls-3" d="M34.15,90.69V87.32h.51v.51a1.41,1.41,0,0,1,.36-.47.62.62,0,0,1,.37-.11,1.15,1.15,0,0,1,.59.18l-.2.53a.84.84,0,0,0-.42-.12A.49.49,0,0,0,35,88a.65.65,0,0,0-.22.31,2.36,2.36,0,0,0-.09.67v1.76Z" transform="translate(0.01 -21.92)"/><path class="cls-3" d="M37.56,90.18l.09.51a2.47,2.47,0,0,1-.43,0,1.09,1.09,0,0,1-.49-.1.6.6,0,0,1-.24-.26,2.24,2.24,0,0,1-.07-.67V87.77H36v-.45h.42v-.83l.57-.35v1.18h.57v.45H37v2a1,1,0,0,0,0,.31.18.18,0,0,0,.1.11.34.34,0,0,0,.19,0A1.19,1.19,0,0,0,37.56,90.18Z" transform="translate(0.01 -21.92)"/><path class="cls-3" d="M37.9,89.3v-.58h1.76v.58Z" transform="translate(0.01 -21.92)"/><path class="cls-3" d="M42.47,90.69v-.42a1,1,0,0,1-.94.5,1.39,1.39,0,0,1-.74-.22,1.44,1.44,0,0,1-.52-.62,2.07,2.07,0,0,1-.19-.92,2.38,2.38,0,0,1,.17-.91,1.35,1.35,0,0,1,.5-.64,1.43,1.43,0,0,1,.76-.21,1.19,1.19,0,0,1,.54.12,1.17,1.17,0,0,1,.39.34V86H43v4.65ZM40.67,89a1.5,1.5,0,0,0,.27,1,.84.84,0,0,0,.65.32.78.78,0,0,0,.63-.31,1.36,1.36,0,0,0,.26-.93,1.66,1.66,0,0,0-.26-1,.84.84,0,0,0-.66-.32.79.79,0,0,0-.64.31A1.54,1.54,0,0,0,40.67,89Z" transform="translate(0.01 -21.92)"/><path class="cls-3" d="M46.11,90.69V90.2a1.23,1.23,0,0,1-1.07.57,1.34,1.34,0,0,1-.56-.12.88.88,0,0,1-.38-.28,1.3,1.3,0,0,1-.18-.43,3.33,3.33,0,0,1,0-.53V87.32h.57v1.87a2.63,2.63,0,0,0,0,.6.61.61,0,0,0,.22.36.76.76,0,0,0,.44.13,1,1,0,0,0,.48-.13.74.74,0,0,0,.32-.36,1.86,1.86,0,0,0,.09-.66V87.32h.57v3.37Z" transform="translate(0.01 -21.92)"/><path class="cls-3" d="M47.51,90.69V87.32H48v.51a1.41,1.41,0,0,1,.36-.47.6.6,0,0,1,.37-.11,1.12,1.12,0,0,1,.58.18l-.19.53a.84.84,0,0,0-.42-.12.51.51,0,0,0-.34.11.58.58,0,0,0-.21.31,2,2,0,0,0-.1.67v1.76Z" transform="translate(0.01 -21.92)"/><path class="cls-3" d="M51.88,90.28a2.17,2.17,0,0,1-.61.38,1.9,1.9,0,0,1-.63.11,1.22,1.22,0,0,1-.85-.27.89.89,0,0,1-.3-.7,1,1,0,0,1,.11-.45,1,1,0,0,1,.3-.33,1.28,1.28,0,0,1,.41-.18,4.17,4.17,0,0,1,.51-.09,4.41,4.41,0,0,0,1-.2,1,1,0,0,0,0-.15.67.67,0,0,0-.16-.49,1,1,0,0,0-.66-.19,1,1,0,0,0-.59.14.83.83,0,0,0-.28.5l-.56-.08a1.34,1.34,0,0,1,.25-.58,1,1,0,0,1,.5-.33,2.26,2.26,0,0,1,.77-.12,2,2,0,0,1,.7.1,1,1,0,0,1,.4.25.93.93,0,0,1,.17.39,3.08,3.08,0,0,1,0,.53v.76a6.89,6.89,0,0,0,0,1,1.19,1.19,0,0,0,.14.4H52A1.23,1.23,0,0,1,51.88,90.28ZM51.83,89a3.73,3.73,0,0,1-.93.22,2.25,2.25,0,0,0-.5.11.51.51,0,0,0-.22.19.43.43,0,0,0-.08.27.5.5,0,0,0,.17.38.76.76,0,0,0,.51.15,1.21,1.21,0,0,0,.58-.14.86.86,0,0,0,.38-.4,1.41,1.41,0,0,0,.09-.57Z" transform="translate(0.01 -21.92)"/><path class="cls-3" d="M54.54,90.18l.09.51a2.47,2.47,0,0,1-.43,0,1.09,1.09,0,0,1-.49-.1.6.6,0,0,1-.24-.26,2.24,2.24,0,0,1-.07-.67V87.77H53v-.45h.42v-.83l.57-.35v1.18h.57v.45H54v2a1,1,0,0,0,0,.31.18.18,0,0,0,.1.11.34.34,0,0,0,.19,0A1.19,1.19,0,0,0,54.54,90.18Z" transform="translate(0.01 -21.92)"/><path class="cls-3" d="M55.11,86.7V86h.57v.66Zm0,4V87.32h.57v3.37Z" transform="translate(0.01 -21.92)"/><path class="cls-3" d="M56.33,89a1.76,1.76,0,0,1,.52-1.39,1.58,1.58,0,0,1,1.06-.37,1.51,1.51,0,0,1,1.14.45A1.71,1.71,0,0,1,59.49,89a2.24,2.24,0,0,1-.19,1,1.39,1.39,0,0,1-.57.58,1.64,1.64,0,0,1-.82.21,1.51,1.51,0,0,1-1.14-.45A1.84,1.84,0,0,1,56.33,89Zm.59,0a1.5,1.5,0,0,0,.28,1,.93.93,0,0,0,.71.32.91.91,0,0,0,.71-.32,1.48,1.48,0,0,0,.29-1,1.4,1.4,0,0,0-.29-.95.91.91,0,0,0-.71-.32.93.93,0,0,0-.71.32A1.48,1.48,0,0,0,56.92,89Z" transform="translate(0.01 -21.92)"/><path class="cls-3" d="M60.16,90.69V87.32h.52v.48a1.19,1.19,0,0,1,1.07-.55,1.3,1.3,0,0,1,.56.11.81.81,0,0,1,.38.28,1,1,0,0,1,.18.42,3.6,3.6,0,0,1,0,.56v2.07h-.57v-2a1.41,1.41,0,0,0-.07-.52.57.57,0,0,0-.23-.28.88.88,0,0,0-.4-.1A1,1,0,0,0,61,88a1.14,1.14,0,0,0-.27.88v1.84Z" transform="translate(0.01 -21.92)"/><path class="cls-3" d="M22.58,98.49V95.12h.51v.51a1.55,1.55,0,0,1,.37-.47.59.59,0,0,1,.36-.11,1.12,1.12,0,0,1,.59.18l-.19.53a.84.84,0,0,0-.42-.12.51.51,0,0,0-.34.11.58.58,0,0,0-.21.31,2,2,0,0,0-.1.67v1.76Z" transform="translate(0.01 -21.92)"/><path class="cls-3" d="M27,98.49V98a1.23,1.23,0,0,1-1.07.57,1.34,1.34,0,0,1-.56-.12.88.88,0,0,1-.38-.28,1.3,1.3,0,0,1-.18-.43,3.33,3.33,0,0,1,0-.53V95.12h.57V97a2.63,2.63,0,0,0,0,.6.61.61,0,0,0,.22.36.76.76,0,0,0,.44.13,1,1,0,0,0,.48-.13.79.79,0,0,0,.32-.36,1.86,1.86,0,0,0,.09-.66V95.12h.57v3.37Z" transform="translate(0.01 -21.92)"/><path class="cls-3" d="M28.37,98.49V95.12h.51v.48A1.21,1.21,0,0,1,30,95.05a1.27,1.27,0,0,1,.56.11.89.89,0,0,1,.39.28,1.13,1.13,0,0,1,.17.42,3.3,3.3,0,0,1,0,.56v2.07h-.58v-2a1.72,1.72,0,0,0-.06-.52.65.65,0,0,0-.24-.28.82.82,0,0,0-.4-.1,1,1,0,0,0-.63.23,1.18,1.18,0,0,0-.26.88v1.84Z" transform="translate(0.01 -21.92)"/><path class="cls-3" d="M32,98.49V95.12h.52v.48a1.19,1.19,0,0,1,1.07-.55,1.3,1.3,0,0,1,.56.11.81.81,0,0,1,.38.28,1,1,0,0,1,.18.42,3.6,3.6,0,0,1,0,.56v2.07h-.57v-2a1.41,1.41,0,0,0-.07-.52.57.57,0,0,0-.23-.28.88.88,0,0,0-.4-.1.92.92,0,0,0-.63.23,1.14,1.14,0,0,0-.27.88v1.84Z" transform="translate(0.01 -21.92)"/><path class="cls-3" d="M35.6,94.5v-.66h.57v.66Zm0,4V95.12h.57v3.37Z" transform="translate(0.01 -21.92)"/><path class="cls-3" d="M37,98.49V95.12h.51v.48a1.22,1.22,0,0,1,1.08-.55,1.3,1.3,0,0,1,.56.11.81.81,0,0,1,.38.28,1.33,1.33,0,0,1,.18.42,3.6,3.6,0,0,1,0,.56v2.07h-.57v-2a1.41,1.41,0,0,0-.07-.52.54.54,0,0,0-.24-.28.81.81,0,0,0-.39-.1.92.92,0,0,0-.63.23,1.14,1.14,0,0,0-.27.88v1.84Z" transform="translate(0.01 -21.92)"/><path class="cls-3" d="M40.55,98.77l.56.08a.5.5,0,0,0,.19.38.93.93,0,0,0,.58.16,1,1,0,0,0,.61-.16.8.8,0,0,0,.3-.45,3.76,3.76,0,0,0,0-.73,1.16,1.16,0,0,1-.94.44,1.24,1.24,0,0,1-1.07-.5,1.87,1.87,0,0,1-.38-1.2,2.35,2.35,0,0,1,.17-.89,1.46,1.46,0,0,1,.51-.63,1.35,1.35,0,0,1,.78-.22,1.22,1.22,0,0,1,1,.48v-.41h.53V98a2.88,2.88,0,0,1-.16,1.11,1.22,1.22,0,0,1-.51.52,1.74,1.74,0,0,1-.86.19,1.61,1.61,0,0,1-1-.27A.91.91,0,0,1,40.55,98.77Zm.47-2a1.46,1.46,0,0,0,.27,1A.83.83,0,0,0,42,98a.85.85,0,0,0,.66-.3,1.82,1.82,0,0,0,0-1.89.83.83,0,0,0-.66-.31.81.81,0,0,0-.65.31A1.35,1.35,0,0,0,41,96.75Z" transform="translate(0.01 -21.92)"/><path class="cls-3" d="M46.07,98.49V95.12h.51v.51a1.55,1.55,0,0,1,.37-.47.59.59,0,0,1,.36-.11,1.12,1.12,0,0,1,.59.18l-.2.53a.78.78,0,0,0-.41-.12.51.51,0,0,0-.34.11.58.58,0,0,0-.21.31,2,2,0,0,0-.1.67v1.76Z" transform="translate(0.01 -21.92)"/><path class="cls-3" d="M50.44,98.08a2.17,2.17,0,0,1-.61.38,1.9,1.9,0,0,1-.63.11,1.2,1.2,0,0,1-.85-.27.89.89,0,0,1-.3-.7.88.88,0,0,1,.11-.45,1,1,0,0,1,.3-.33,1.28,1.28,0,0,1,.41-.18,4.31,4.31,0,0,1,.5-.09,4.4,4.4,0,0,0,1-.2c0-.07,0-.12,0-.15a.63.63,0,0,0-.17-.49.94.94,0,0,0-.65-.19,1,1,0,0,0-.59.14.89.89,0,0,0-.29.5l-.55-.08a1.34,1.34,0,0,1,.25-.58,1,1,0,0,1,.5-.33,2.26,2.26,0,0,1,.77-.12,2,2,0,0,1,.7.1.91.91,0,0,1,.39.25.83.83,0,0,1,.18.39,3.08,3.08,0,0,1,0,.53v.76a6.89,6.89,0,0,0,0,1,1.19,1.19,0,0,0,.14.4h-.6A1.53,1.53,0,0,1,50.44,98.08Zm0-1.28a3.85,3.85,0,0,1-.93.22,2.12,2.12,0,0,0-.5.11.46.46,0,0,0-.22.19.43.43,0,0,0-.08.27.47.47,0,0,0,.17.38.76.76,0,0,0,.51.15,1.21,1.21,0,0,0,.58-.14.92.92,0,0,0,.38-.4,1.41,1.41,0,0,0,.09-.57Z" transform="translate(0.01 -21.92)"/><path class="cls-3" d="M51.86,98.49V95.12h.51v.48a1.21,1.21,0,0,1,1.07-.55,1.27,1.27,0,0,1,.56.11.89.89,0,0,1,.39.28,1.13,1.13,0,0,1,.17.42,3.3,3.3,0,0,1,0,.56v2.07H54v-2a1.72,1.72,0,0,0-.06-.52.65.65,0,0,0-.24-.28.85.85,0,0,0-.4-.1,1,1,0,0,0-.63.23,1.18,1.18,0,0,0-.26.88v1.84Z" transform="translate(0.01 -21.92)"/><path class="cls-3" d="M55.37,98.77l.55.08a.54.54,0,0,0,.2.38.91.91,0,0,0,.58.16,1,1,0,0,0,.61-.16.79.79,0,0,0,.29-.45,3.76,3.76,0,0,0,0-.73,1.15,1.15,0,0,1-.93.44,1.28,1.28,0,0,1-1.08-.5,1.93,1.93,0,0,1-.38-1.2,2.18,2.18,0,0,1,.18-.89,1.37,1.37,0,0,1,.5-.63,1.35,1.35,0,0,1,.78-.22,1.22,1.22,0,0,1,1,.48v-.41h.52V98a2.7,2.7,0,0,1-.16,1.11,1.14,1.14,0,0,1-.5.52,1.76,1.76,0,0,1-.86.19,1.65,1.65,0,0,1-1-.27A.92.92,0,0,1,55.37,98.77Zm.47-2a1.52,1.52,0,0,0,.26,1,.85.85,0,0,0,.66.3.84.84,0,0,0,.66-.3,1.79,1.79,0,0,0,0-1.89.87.87,0,0,0-.67-.31.79.79,0,0,0-.64.31A1.35,1.35,0,0,0,55.84,96.75Z" transform="translate(0.01 -21.92)"/><path class="cls-3" d="M61.39,97.41l.59.07a1.43,1.43,0,0,1-.51.8,1.6,1.6,0,0,1-1,.29,1.52,1.52,0,0,1-1.17-.46,1.76,1.76,0,0,1-.43-1.27,1.86,1.86,0,0,1,.43-1.32,1.47,1.47,0,0,1,1.14-.47,1.41,1.41,0,0,1,1.1.46A1.78,1.78,0,0,1,62,96.8V97H59.49a1.26,1.26,0,0,0,.31.85.92.92,0,0,0,.7.3.89.89,0,0,0,.54-.17A1,1,0,0,0,61.39,97.41Zm-1.87-.93H61.4a1.14,1.14,0,0,0-.22-.63.86.86,0,0,0-.7-.33.9.9,0,0,0-.67.26A1.07,1.07,0,0,0,59.52,96.48Z" transform="translate(0.01 -21.92)"/><rect class="繝後Μ_逋ｽ" x="20.71" y="96.64" width="41.46" height="16.58"/><path class="cls-3" d="M26.08,123.29l.62.16a2,2,0,0,1-.7,1.15,1.91,1.91,0,0,1-1.23.4,2.14,2.14,0,0,1-1.22-.31,1.81,1.81,0,0,1-.72-.88,3.1,3.1,0,0,1-.25-1.25,2.7,2.7,0,0,1,.28-1.27,2,2,0,0,1,.79-.82,2.28,2.28,0,0,1,1.13-.28,1.87,1.87,0,0,1,1.17.36,1.85,1.85,0,0,1,.67,1l-.61.15a1.4,1.4,0,0,0-.47-.74,1.2,1.2,0,0,0-.77-.23,1.52,1.52,0,0,0-.9.25,1.37,1.37,0,0,0-.51.69,3,3,0,0,0-.14.9,2.92,2.92,0,0,0,.17,1,1.28,1.28,0,0,0,.54.66,1.45,1.45,0,0,0,.79.22,1.36,1.36,0,0,0,.87-.29A1.52,1.52,0,0,0,26.08,123.29Z" transform="translate(0.01 -21.92)"/><path class="cls-3" d="M27.17,123.24a1.73,1.73,0,0,1,.52-1.39,1.65,1.65,0,0,1,2.2.08,1.74,1.74,0,0,1,.44,1.26,2.22,2.22,0,0,1-.2,1,1.39,1.39,0,0,1-.57.58,1.63,1.63,0,0,1-.81.21,1.48,1.48,0,0,1-1.14-.46A1.75,1.75,0,0,1,27.17,123.24Zm.59,0a1.44,1.44,0,0,0,.28,1,.94.94,0,0,0,1.42,0,1.43,1.43,0,0,0,.28-1,1.45,1.45,0,0,0-.28-1,.9.9,0,0,0-.71-.32.88.88,0,0,0-.71.32A1.42,1.42,0,0,0,27.76,123.24Z" transform="translate(0.01 -21.92)"/><path class="cls-3" d="M31,124.92v-3.37h.51V122a1.22,1.22,0,0,1,1.07-.56,1.43,1.43,0,0,1,.56.11,1,1,0,0,1,.39.29,1.13,1.13,0,0,1,.17.42,3.21,3.21,0,0,1,0,.56v2.07h-.58v-2a1.67,1.67,0,0,0-.06-.52.6.6,0,0,0-.24-.28.72.72,0,0,0-.4-.1,1,1,0,0,0-.63.23,1.18,1.18,0,0,0-.26.88v1.84Z" transform="translate(0.01 -21.92)"/><path class="cls-3" d="M35.86,124.41l.08.51a2.37,2.37,0,0,1-.43,0,1,1,0,0,1-.48-.1.5.5,0,0,1-.24-.26,2,2,0,0,1-.07-.68V122H34.3v-.45h.42v-.83l.56-.35v1.18h.58V122h-.58v2a1,1,0,0,0,0,.31.27.27,0,0,0,.1.11.37.37,0,0,0,.2,0A1.29,1.29,0,0,0,35.86,124.41Z" transform="translate(0.01 -21.92)"/><path class="cls-3" d="M36.42,120.93v-.66H37v.66Zm0,4v-3.37H37v3.37Z" transform="translate(0.01 -21.92)"/><path class="cls-3" d="M37.86,124.92v-3.37h.52V122a1.2,1.2,0,0,1,1.07-.56,1.47,1.47,0,0,1,.56.11.89.89,0,0,1,.38.29,1.14,1.14,0,0,1,.18.42,3.51,3.51,0,0,1,0,.56v2.07H40v-2a1.38,1.38,0,0,0-.07-.52.53.53,0,0,0-.23-.28.77.77,0,0,0-.4-.1.92.92,0,0,0-.63.23,1.14,1.14,0,0,0-.27.88v1.84Z" transform="translate(0.01 -21.92)"/><path class="cls-3" d="M43.69,124.92v-.49a1.25,1.25,0,0,1-1.07.57,1.31,1.31,0,0,1-.56-.12,1,1,0,0,1-.39-.28,1.11,1.11,0,0,1-.17-.43,3.07,3.07,0,0,1,0-.53v-2.09H42v1.87a3.77,3.77,0,0,0,0,.6.63.63,0,0,0,.23.36.73.73,0,0,0,.43.13.92.92,0,0,0,.48-.14.66.66,0,0,0,.32-.36,1.84,1.84,0,0,0,.09-.65v-1.81h.58v3.37Z" transform="translate(0.01 -21.92)"/><path class="cls-3" d="M44.88,123.24a1.73,1.73,0,0,1,.52-1.39,1.65,1.65,0,0,1,2.2.08,1.74,1.74,0,0,1,.44,1.26,2.22,2.22,0,0,1-.2,1,1.39,1.39,0,0,1-.57.58,1.63,1.63,0,0,1-.81.21,1.48,1.48,0,0,1-1.14-.46A1.75,1.75,0,0,1,44.88,123.24Zm.59,0a1.44,1.44,0,0,0,.28,1,.94.94,0,0,0,1.42,0,1.43,1.43,0,0,0,.28-1,1.45,1.45,0,0,0-.28-1,.9.9,0,0,0-.71-.32.88.88,0,0,0-.71.32A1.42,1.42,0,0,0,45.47,123.24Z" transform="translate(0.01 -21.92)"/><path class="cls-3" d="M50.92,124.92v-.49a1.25,1.25,0,0,1-1.07.57,1.31,1.31,0,0,1-.56-.12,1,1,0,0,1-.39-.28,1.11,1.11,0,0,1-.17-.43,3.07,3.07,0,0,1,0-.53v-2.09h.58v1.87a3.77,3.77,0,0,0,0,.6.63.63,0,0,0,.23.36.73.73,0,0,0,.43.13.92.92,0,0,0,.48-.14.66.66,0,0,0,.32-.36,1.84,1.84,0,0,0,.09-.65v-1.81h.58v3.37Z" transform="translate(0.01 -21.92)"/><path class="cls-3" d="M52.09,123.92l.57-.09a.81.81,0,0,0,.26.52.94.94,0,0,0,.61.18.91.91,0,0,0,.58-.16.48.48,0,0,0,.2-.38.34.34,0,0,0-.17-.3,2.64,2.64,0,0,0-.59-.2,4.57,4.57,0,0,1-.87-.27,1,1,0,0,1-.37-.32.89.89,0,0,1-.12-.45.89.89,0,0,1,.38-.74,1.16,1.16,0,0,1,.37-.17,1.87,1.87,0,0,1,.49-.07,1.9,1.9,0,0,1,.7.12,1,1,0,0,1,.44.31,1.18,1.18,0,0,1,.19.52l-.55.08a.64.64,0,0,0-.22-.41.82.82,0,0,0-.52-.15.9.9,0,0,0-.56.14.36.36,0,0,0-.17.3.31.31,0,0,0,.07.2.53.53,0,0,0,.22.15l.5.15a7.22,7.22,0,0,1,.85.26.94.94,0,0,1,.38.3.85.85,0,0,1,.13.49,1,1,0,0,1-.16.54,1.07,1.07,0,0,1-.49.39,1.76,1.76,0,0,1-.71.14,1.55,1.55,0,0,1-1-.28A1.29,1.29,0,0,1,52.09,123.92Z" transform="translate(0.01 -21.92)"/><path class="cls-3" d="M22.68,132.72v-3.37h.52v.51a1.41,1.41,0,0,1,.36-.47.61.61,0,0,1,.37-.12,1.14,1.14,0,0,1,.58.19l-.19.53a.86.86,0,0,0-.42-.13.52.52,0,0,0-.34.12.58.58,0,0,0-.21.31,2,2,0,0,0-.1.67v1.76Z" transform="translate(0.01 -21.92)"/><path class="cls-3" d="M27.06,132.72v-.49a1.23,1.23,0,0,1-1.07.57,1.34,1.34,0,0,1-.56-.12.88.88,0,0,1-.38-.28,1.3,1.3,0,0,1-.18-.43,3.33,3.33,0,0,1,0-.53v-2.09h.57v1.87a2.63,2.63,0,0,0,0,.6.61.61,0,0,0,.22.36.76.76,0,0,0,.44.13.92.92,0,0,0,.48-.14.71.71,0,0,0,.32-.36,1.84,1.84,0,0,0,.09-.65v-1.81h.57v3.37Z" transform="translate(0.01 -21.92)"/><path class="cls-3" d="M28.47,132.72v-3.37H29v.48a1.22,1.22,0,0,1,1.07-.56,1.43,1.43,0,0,1,.56.11,1,1,0,0,1,.39.29,1.13,1.13,0,0,1,.17.42,3.21,3.21,0,0,1,0,.56v2.07h-.58v-2.05a1.67,1.67,0,0,0-.06-.52.6.6,0,0,0-.24-.28.72.72,0,0,0-.4-.1,1,1,0,0,0-.63.23,1.18,1.18,0,0,0-.26.88v1.84Z" transform="translate(0.01 -21.92)"/><path class="cls-3" d="M32.08,132.72v-3.37h.52v.48a1.2,1.2,0,0,1,1.07-.56,1.47,1.47,0,0,1,.56.11.89.89,0,0,1,.38.29,1,1,0,0,1,.18.42,3.51,3.51,0,0,1,0,.56v2.07h-.57v-2.05a1.38,1.38,0,0,0-.07-.52.53.53,0,0,0-.23-.28.77.77,0,0,0-.4-.1.94.94,0,0,0-.63.23,1.14,1.14,0,0,0-.27.88v1.84Z" transform="translate(0.01 -21.92)"/><path class="cls-3" d="M35.7,128.73v-.66h.57v.66Zm0,4v-3.37h.57v3.37Z" transform="translate(0.01 -21.92)"/><path class="cls-3" d="M37.14,132.72v-3.37h.52v.48a1.2,1.2,0,0,1,1.07-.56,1.47,1.47,0,0,1,.56.11.89.89,0,0,1,.38.29,1.14,1.14,0,0,1,.18.42,3.51,3.51,0,0,1,0,.56v2.07h-.57v-2.05a1.38,1.38,0,0,0-.07-.52.5.5,0,0,0-.24-.28.71.71,0,0,0-.39-.1A.92.92,0,0,0,38,130a1.14,1.14,0,0,0-.27.88v1.84Z" transform="translate(0.01 -21.92)"/><path class="cls-3" d="M40.65,133l.56.08a.52.52,0,0,0,.19.38,1,1,0,0,0,.58.16,1,1,0,0,0,.61-.16.79.79,0,0,0,.3-.45,3.76,3.76,0,0,0,0-.73,1.19,1.19,0,0,1-.94.44,1.24,1.24,0,0,1-1.07-.5,1.89,1.89,0,0,1-.38-1.2,2.35,2.35,0,0,1,.17-.89,1.4,1.4,0,0,1,.51-.63,1.35,1.35,0,0,1,.78-.23,1.23,1.23,0,0,1,1,.49v-.41h.53v2.91a2.9,2.9,0,0,1-.16,1.12,1.22,1.22,0,0,1-.51.52,1.74,1.74,0,0,1-.86.19,1.61,1.61,0,0,1-1-.27A.91.91,0,0,1,40.65,133Zm.47-2a1.41,1.41,0,0,0,.27,1,.81.81,0,0,0,.66.31.85.85,0,0,0,.66-.3,1.43,1.43,0,0,0,.26-1,1.39,1.39,0,0,0-.27-.93.83.83,0,0,0-.66-.31.81.81,0,0,0-.65.31A1.35,1.35,0,0,0,41.12,131Z" transform="translate(0.01 -21.92)"/><path class="cls-3" d="M46.17,132.72v-3.37h.51v.51a1.55,1.55,0,0,1,.37-.47.6.6,0,0,1,.36-.12,1.14,1.14,0,0,1,.59.19l-.19.53a.86.86,0,0,0-.42-.13.52.52,0,0,0-.34.12.58.58,0,0,0-.21.31,2,2,0,0,0-.1.67v1.76Z" transform="translate(0.01 -21.92)"/><path class="cls-3" d="M50.54,132.31a2.17,2.17,0,0,1-.61.38,1.9,1.9,0,0,1-.63.11,1.2,1.2,0,0,1-.85-.27.91.91,0,0,1-.3-.7.88.88,0,0,1,.11-.45.87.87,0,0,1,.3-.33,1.28,1.28,0,0,1,.41-.18,2.87,2.87,0,0,1,.5-.09,5,5,0,0,0,1-.2,1.14,1.14,0,0,0,0-.15.63.63,0,0,0-.17-.49.94.94,0,0,0-.65-.19,1,1,0,0,0-.59.14.89.89,0,0,0-.29.5l-.55-.08a1.34,1.34,0,0,1,.25-.58,1.11,1.11,0,0,1,.5-.34,2.26,2.26,0,0,1,.77-.12,2,2,0,0,1,.7.11.82.82,0,0,1,.39.25A.79.79,0,0,1,51,130a3.08,3.08,0,0,1,0,.53v.76a6.89,6.89,0,0,0,0,1,1.19,1.19,0,0,0,.14.4h-.59A1.31,1.31,0,0,1,50.54,132.31Zm0-1.28a4.39,4.39,0,0,1-.93.22,2.12,2.12,0,0,0-.5.11.41.41,0,0,0-.22.19.43.43,0,0,0-.08.27.47.47,0,0,0,.17.38.76.76,0,0,0,.51.15,1.21,1.21,0,0,0,.58-.14.92.92,0,0,0,.38-.4,1.41,1.41,0,0,0,.09-.57Z" transform="translate(0.01 -21.92)"/><path class="cls-3" d="M52,132.72v-3.37h.51v.48a1.22,1.22,0,0,1,1.07-.56,1.43,1.43,0,0,1,.56.11,1,1,0,0,1,.39.29,1.13,1.13,0,0,1,.17.42,3.21,3.21,0,0,1,0,.56v2.07h-.58v-2.05a1.67,1.67,0,0,0-.06-.52.6.6,0,0,0-.24-.28.72.72,0,0,0-.4-.1,1,1,0,0,0-.63.23,1.18,1.18,0,0,0-.26.88v1.84Z" transform="translate(0.01 -21.92)"/><path class="cls-3" d="M55.47,133l.55.08a.56.56,0,0,0,.2.38,1,1,0,0,0,.58.16,1.08,1.08,0,0,0,.61-.16.82.82,0,0,0,.29-.45,3.76,3.76,0,0,0,0-.73,1.18,1.18,0,0,1-.93.44,1.28,1.28,0,0,1-1.08-.5,2,2,0,0,1-.38-1.2,2.18,2.18,0,0,1,.18-.89,1.32,1.32,0,0,1,.5-.63,1.35,1.35,0,0,1,.78-.23,1.23,1.23,0,0,1,1,.49v-.41h.52v2.91a2.72,2.72,0,0,1-.16,1.12,1.14,1.14,0,0,1-.5.52,1.76,1.76,0,0,1-.86.19,1.65,1.65,0,0,1-1-.27A.92.92,0,0,1,55.47,133Zm.47-2a1.47,1.47,0,0,0,.26,1,.87.87,0,0,0,1.32,0,1.43,1.43,0,0,0,.27-1,1.39,1.39,0,0,0-.27-.93.87.87,0,0,0-.67-.31.79.79,0,0,0-.64.31A1.35,1.35,0,0,0,55.94,131Z" transform="translate(0.01 -21.92)"/><path class="cls-3" d="M61.49,131.64l.59.07a1.43,1.43,0,0,1-.51.8,1.6,1.6,0,0,1-1,.29,1.52,1.52,0,0,1-1.17-.46,1.77,1.77,0,0,1-.43-1.28,1.89,1.89,0,0,1,.43-1.32,1.51,1.51,0,0,1,1.14-.47,1.42,1.42,0,0,1,1.1.47A1.78,1.78,0,0,1,62.1,131v.15H59.59a1.26,1.26,0,0,0,.31.85.92.92,0,0,0,.7.3.89.89,0,0,0,.54-.17A1,1,0,0,0,61.49,131.64Zm-1.87-.93H61.5a1.21,1.21,0,0,0-.22-.64.86.86,0,0,0-.7-.33.9.9,0,0,0-.67.27A1.07,1.07,0,0,0,59.62,130.71Z" transform="translate(0.01 -21.92)"/><path class="cls-3" d="M44.05,150.56l.58-.06a1.32,1.32,0,0,0,.19.58,1,1,0,0,0,.47.36,1.8,1.8,0,0,0,.71.14,1.73,1.73,0,0,0,.63-.11.87.87,0,0,0,.4-.28.68.68,0,0,0,.13-.4.59.59,0,0,0-.13-.39.92.92,0,0,0-.42-.27c-.12,0-.4-.12-.83-.23a4.15,4.15,0,0,1-.89-.29,1.19,1.19,0,0,1-.5-.43,1.06,1.06,0,0,1-.16-.58,1.16,1.16,0,0,1,.2-.66,1.18,1.18,0,0,1,.58-.46,2.15,2.15,0,0,1,.85-.16,2.4,2.4,0,0,1,.92.16,1.35,1.35,0,0,1,.6.5,1.32,1.32,0,0,1,.23.73l-.59,0a1,1,0,0,0-.32-.66,1.24,1.24,0,0,0-.81-.23,1.27,1.27,0,0,0-.81.21.61.61,0,0,0-.26.49A.52.52,0,0,0,45,149a2.39,2.39,0,0,0,.93.33,7.58,7.58,0,0,1,1,.3,1.47,1.47,0,0,1,.6.47,1.19,1.19,0,0,1,.19.67,1.3,1.3,0,0,1-.21.7,1.4,1.4,0,0,1-.61.51,2.19,2.19,0,0,1-.9.18A2.76,2.76,0,0,1,45,152a1.59,1.59,0,0,1-.67-.56A1.56,1.56,0,0,1,44.05,150.56Z" transform="translate(0.01 -21.92)"/><path class="cls-3" d="M48.52,153.34v-4.66H49v.44a1.29,1.29,0,0,1,.42-.39,1.19,1.19,0,0,1,.56-.13,1.31,1.31,0,0,1,.76.23,1.29,1.29,0,0,1,.5.62,2.35,2.35,0,0,1,.17.89,2.18,2.18,0,0,1-.19.93,1.36,1.36,0,0,1-.54.64,1.42,1.42,0,0,1-.74.22,1.14,1.14,0,0,1-.52-.12,1.25,1.25,0,0,1-.37-.31v1.64Zm.52-3a1.52,1.52,0,0,0,.26,1,.82.82,0,0,0,1.29,0,2,2,0,0,0,0-2,.79.79,0,0,0-1.28,0A1.52,1.52,0,0,0,49,150.38Z" transform="translate(0.01 -21.92)"/><path class="cls-3" d="M54.44,151,55,151a1.43,1.43,0,0,1-.51.8,1.6,1.6,0,0,1-1,.29,1.52,1.52,0,0,1-1.17-.46,1.77,1.77,0,0,1-.43-1.28,1.89,1.89,0,0,1,.43-1.32,1.51,1.51,0,0,1,1.14-.47,1.45,1.45,0,0,1,1.1.46,1.82,1.82,0,0,1,.43,1.3v.15H52.54a1.26,1.26,0,0,0,.31.85.92.92,0,0,0,.7.3.89.89,0,0,0,.54-.17A1,1,0,0,0,54.44,151ZM52.57,150h1.88a1.21,1.21,0,0,0-.22-.64.86.86,0,0,0-.7-.33.9.9,0,0,0-.67.27A1.07,1.07,0,0,0,52.57,150Z" transform="translate(0.01 -21.92)"/><path class="cls-3" d="M58.06,151l.59.07a1.44,1.44,0,0,1-.52.8,1.74,1.74,0,0,1-2.14-.17,1.77,1.77,0,0,1-.43-1.28,1.9,1.9,0,0,1,.44-1.32,1.49,1.49,0,0,1,1.13-.47,1.47,1.47,0,0,1,1.11.46,1.87,1.87,0,0,1,.43,1.3,1,1,0,0,1,0,.15H56.15a1.32,1.32,0,0,0,.31.85.94.94,0,0,0,.71.3.89.89,0,0,0,.54-.17A1.16,1.16,0,0,0,58.06,151ZM56.18,150h1.88a1.13,1.13,0,0,0-.21-.64.88.88,0,0,0-.71-.33.9.9,0,0,0-.66.27A1,1,0,0,0,56.18,150Z" transform="translate(0.01 -21.92)"/><path class="cls-3" d="M61.55,152.05v-.42a1.05,1.05,0,0,1-.94.5,1.3,1.3,0,0,1-.74-.23,1.33,1.33,0,0,1-.52-.62,2,2,0,0,1-.19-.91,2.47,2.47,0,0,1,.17-.92,1.37,1.37,0,0,1,.5-.63,1.43,1.43,0,0,1,.75-.22,1.21,1.21,0,0,1,.55.13,1.14,1.14,0,0,1,.38.34V147.4h.57v4.65Zm-1.8-1.68a1.5,1.5,0,0,0,.27,1,.83.83,0,0,0,.64.32.82.82,0,0,0,.64-.31,1.43,1.43,0,0,0,.26-.93,1.64,1.64,0,0,0-.26-1,.81.81,0,0,0-.66-.32.78.78,0,0,0-.64.31A1.54,1.54,0,0,0,59.75,150.37Z" transform="translate(0.01 -21.92)"/><path class="cls-3" d="M64.8,153.34V147.4h1.26v.47h-.69v5h.69v.47Z" transform="translate(0.01 -21.92)"/><path class="cls-3" d="M66.59,152.05v-3.37h.51v.51a1.31,1.31,0,0,1,.36-.47.63.63,0,0,1,.37-.12,1.17,1.17,0,0,1,.59.19l-.2.53a.86.86,0,0,0-.42-.13.5.5,0,0,0-.33.12.65.65,0,0,0-.22.31,2.31,2.31,0,0,0-.09.67v1.76Z" transform="translate(0.01 -21.92)"/><path class="cls-3" d="M68.33,152.13l1.35-4.81h.45l-1.34,4.81Z" transform="translate(0.01 -21.92)"/><path class="cls-3" d="M70.56,152.05v-3.37h.51v.47a1.38,1.38,0,0,1,.43-.4,1.16,1.16,0,0,1,.6-.15,1.13,1.13,0,0,1,.61.16.86.86,0,0,1,.34.43,1.2,1.2,0,0,1,1-.59,1.05,1.05,0,0,1,.77.28,1.2,1.2,0,0,1,.27.86v2.31h-.57v-2.12a1.91,1.91,0,0,0,0-.5.49.49,0,0,0-.21-.24.62.62,0,0,0-.34-.09.81.81,0,0,0-.59.24,1,1,0,0,0-.23.75v2h-.57v-2.19a1,1,0,0,0-.14-.57.54.54,0,0,0-.46-.19.81.81,0,0,0-.45.13.69.69,0,0,0-.29.37,1.85,1.85,0,0,0-.1.7v1.75Z" transform="translate(0.01 -21.92)"/><path class="cls-3" d="M76,148.05v-.65h.57v.65Zm0,4v-3.37h.57v3.37Z" transform="translate(0.01 -21.92)"/><path class="cls-3" d="M77.42,152.05v-3.37h.52v.48A1.2,1.2,0,0,1,79,148.6a1.47,1.47,0,0,1,.56.11A.89.89,0,0,1,80,149a1,1,0,0,1,.18.42,3.51,3.51,0,0,1,0,.56v2.07h-.57V150a1.38,1.38,0,0,0-.07-.52.53.53,0,0,0-.23-.28.77.77,0,0,0-.4-.1.92.92,0,0,0-.63.23,1.13,1.13,0,0,0-.27.88v1.84Z" transform="translate(0.01 -21.92)"/><path class="cls-3" d="M82,153.34H80.73v-.47h.69v-5h-.69v-.47H82Z" transform="translate(0.01 -21.92)"/></g></svg>