<svg xmlns="http://www.w3.org/2000/svg" viewBox="0 0 116.6 131.43"><defs><style>.cls-1,.cls-2,.cls-4,.cls-5,.cls-6,.繝医Ν繧ｯ繧ｰ繝ｩ繝廟繧ｰ繝ｬ繝ｼ邱,.邱喟0\.5pt-5{fill:none;}.cls-1,.cls-6,.邱喟0\.5pt-5{stroke:#231815;}.cls-1,.cls-4{stroke-linejoin:round;}.cls-1{stroke-width:0.14px;}.cls-2,.cls-5,.繝医Ν繧ｯ繧ｰ繝ｩ繝廟繧ｰ繝ｬ繝ｼ邱{stroke:#9fa0a0;}.cls-2,.邱喟0\.5pt-5{stroke-miterlimit:10;}.cls-2{stroke-width:1px;stroke-dasharray:3.1 1.5;}.cls-3{fill:#231815;}.cls-4{stroke:#040000;stroke-linecap:round;stroke-width:0.28px;stroke-dasharray:76200 76200;}.cls-5{stroke-linecap:square;}.cls-5,.繝医Ν繧ｯ繧ｰ繝ｩ繝廟繧ｰ繝ｬ繝ｼ邱{stroke-width:3px;}.繝後Μ_逋ｽ{fill:#fff;}.邱喟0\.5pt-5{stroke-width:0.5px;}</style></defs><g id="Illust"><line class="cls-1" x1="45.43" y1="2.18" x2="45.43" y2="115.56"/><line class="cls-1" x1="72.51" y1="2.18" x2="72.51" y2="115.56"/><line class="cls-1" x1="99.58" y1="2.18" x2="99.58" y2="115.56"/><line class="cls-2" x1="95.61" y1="104.22" x2="95.61" y2="115.56"/><line class="cls-1" x1="18.44" y1="92.92" x2="109.15" y2="92.92"/><line class="cls-1" x1="18.44" y1="70.22" x2="109.15" y2="70.22"/><line class="cls-1" x1="18.44" y1="47.52" x2="109.15" y2="47.52"/><line class="cls-1" x1="18.44" y1="24.82" x2="109.15" y2="24.82"/><path class="cls-3" d="M17.24,141.38a3.52,3.52,0,0,1,.13-1,1.28,1.28,0,0,1,.39-.59,1.14,1.14,0,0,1,1.15-.1.9.9,0,0,1,.36.34,1.73,1.73,0,0,1,.23.53,3.72,3.72,0,0,1,.08.84,3.52,3.52,0,0,1-.13,1,1.31,1.31,0,0,1-.39.6,1,1,0,0,1-.65.21,1,1,0,0,1-.81-.37A2.33,2.33,0,0,1,17.24,141.38Zm.45,0a2.25,2.25,0,0,0,.21,1.18.59.59,0,0,0,1,0,2.27,2.27,0,0,0,.2-1.18,2.2,2.2,0,0,0-.2-1.17.63.63,0,0,0-.52-.29.54.54,0,0,0-.48.26A2.24,2.24,0,0,0,17.69,141.38Z" transform="translate(0.01 -21.92)"/><path class="cls-4" d="M18.44,40" transform="translate(0.01 -21.92)"/><path class="cls-4" d="M18.44,40" transform="translate(0.01 -21.92)"/><polyline class="cls-5" points="18.44 39.75 67.56 39.75 109.15 84.35"/><polyline class="繝医Ν繧ｯ繧ｰ繝ｩ繝廟繧ｰ繝ｬ繝ｼ邱" points="18.44 93.91 25.2 93.91 31.99 93.91 45.52 93.91 59.07 93.91 72.6 99.31 86.15 102.58 99.68 104.72 109.15 105.85"/><path class="cls-3" d="M108.19,140.45l-.44,0a.8.8,0,0,0-.17-.37.56.56,0,0,0-.44-.19.61.61,0,0,0-.36.11,1,1,0,0,0-.33.45,2.41,2.41,0,0,0-.13.82,1,1,0,0,1,.39-.35,1,1,0,0,1,.48-.12,1,1,0,0,1,.75.32,1.16,1.16,0,0,1,.31.84,1.32,1.32,0,0,1-.15.62,1.08,1.08,0,0,1-.39.45,1.14,1.14,0,0,1-.58.15,1.12,1.12,0,0,1-.9-.4,2.06,2.06,0,0,1-.34-1.33,2.34,2.34,0,0,1,.38-1.51,1.08,1.08,0,0,1,.9-.41,1,1,0,0,1,1,.89Zm-1.8,1.54a.91.91,0,0,0,.1.43.7.7,0,0,0,.63.43.64.64,0,0,0,.48-.22.92.92,0,0,0,.2-.62.83.83,0,0,0-.2-.58.66.66,0,0,0-.5-.21.69.69,0,0,0-.5.21A.76.76,0,0,0,106.39,142Z" transform="translate(0.01 -21.92)"/><path class="cls-3" d="M108.72,140v-.42H111V140a4.41,4.41,0,0,0-.67,1,5.35,5.35,0,0,0-.52,1.24,4.17,4.17,0,0,0-.17,1h-.45a4.4,4.4,0,0,1,.16-1,5.42,5.42,0,0,1,.46-1.15,5.11,5.11,0,0,1,.63-.94Z" transform="translate(0.01 -21.92)"/><path class="cls-3" d="M111.47,141.38a3.2,3.2,0,0,1,.13-1,1.25,1.25,0,0,1,.39-.59,1,1,0,0,1,.64-.21,1,1,0,0,1,.51.11,1.06,1.06,0,0,1,.36.34,1.73,1.73,0,0,1,.22.53,3.72,3.72,0,0,1,.08.84,3.2,3.2,0,0,1-.13,1,1.22,1.22,0,0,1-.38.6,1,1,0,0,1-.66.21,1,1,0,0,1-.81-.37A2.41,2.41,0,0,1,111.47,141.38Zm.45,0a2.25,2.25,0,0,0,.21,1.18.58.58,0,0,0,1,0,2.25,2.25,0,0,0,.21-1.18,2.2,2.2,0,0,0-.21-1.17.61.61,0,0,0-.51-.29.56.56,0,0,0-.48.26A2.15,2.15,0,0,0,111.92,141.38Z" transform="translate(0.01 -21.92)"/><path class="cls-3" d="M114.25,141.38a3.2,3.2,0,0,1,.13-1,1.33,1.33,0,0,1,.39-.59,1,1,0,0,1,.65-.21,1,1,0,0,1,.5.11.9.9,0,0,1,.36.34,1.73,1.73,0,0,1,.22.53,4.23,4.23,0,0,1,0,1.86,1.22,1.22,0,0,1-.38.6,1,1,0,0,1-.65.21,1,1,0,0,1-.82-.37A2.41,2.41,0,0,1,114.25,141.38Zm.45,0a2.25,2.25,0,0,0,.21,1.18.58.58,0,0,0,1,0,2.25,2.25,0,0,0,.21-1.18,2.2,2.2,0,0,0-.21-1.17.6.6,0,0,0-.51-.29.56.56,0,0,0-.48.26A2.24,2.24,0,0,0,114.7,141.38Z" transform="translate(0.01 -21.92)"/><polyline class="cls-6" points="18.44 39.74 64.46 39.74 109.15 86.65"/><polyline class="cls-6" points="18.44 93.91 25.2 93.91 31.99 93.91 45.52 93.91 59.07 93.91 72.6 99.31 86.15 102.58 99.68 104.72 109.15 105.85"/><rect class="繝後Μ_逋ｽ" x="109.15" y="2.18" width="2.75" height="113.39"/><rect class="繝後Μ_逋ｽ" x="15.6" y="2.18" width="2.75" height="113.39"/><path class="cls-3" d="M10.23,137.13a3.2,3.2,0,0,1,.13-1,1.31,1.31,0,0,1,.39-.6,1.11,1.11,0,0,1,1.15-.09,1,1,0,0,1,.36.33,1.65,1.65,0,0,1,.22.54,4.23,4.23,0,0,1-.05,1.86,1.22,1.22,0,0,1-.38.6,1,1,0,0,1-.65.21,1,1,0,0,1-.82-.37A2.43,2.43,0,0,1,10.23,137.13Zm.45,0a2.25,2.25,0,0,0,.21,1.18.62.62,0,0,0,.51.29.61.61,0,0,0,.51-.3,3.52,3.52,0,0,0,0-2.34.6.6,0,0,0-.52-.29.56.56,0,0,0-.48.25A2.28,2.28,0,0,0,10.68,137.13Z" transform="translate(0.01 -21.92)"/><path class="cls-3" d="M13.29,138.9v-.5h.5v.5Z" transform="translate(0.01 -21.92)"/><path class="cls-3" d="M14.43,137.13a3.17,3.17,0,0,1,.14-1,1.22,1.22,0,0,1,.38-.6,1,1,0,0,1,.65-.21,1.07,1.07,0,0,1,.51.12,1.13,1.13,0,0,1,.36.33,2.25,2.25,0,0,1,.22.54,3.72,3.72,0,0,1,.08.84,3.2,3.2,0,0,1-.13,1,1.31,1.31,0,0,1-.39.6,1,1,0,0,1-.65.21,1,1,0,0,1-.81-.37A2.35,2.35,0,0,1,14.43,137.13Zm.46,0a2.38,2.38,0,0,0,.2,1.18.62.62,0,0,0,.51.29.61.61,0,0,0,.51-.3,3.36,3.36,0,0,0,0-2.34.6.6,0,0,0-.51-.29.57.57,0,0,0-.49.25A2.3,2.3,0,0,0,14.89,137.13Z" transform="translate(0.01 -21.92)"/><path class="cls-3" d="M10.26,115.28l.47,0a.81.81,0,0,0,.23.51.71.71,0,0,0,1-.07.88.88,0,0,0,.22-.63.84.84,0,0,0-.21-.6.74.74,0,0,0-.55-.21.86.86,0,0,0-.39.09.78.78,0,0,0-.26.25l-.42,0,.35-1.84h1.78v.42H11l-.19,1a1.14,1.14,0,0,1,.67-.22,1.11,1.11,0,0,1,.8.32,1.17,1.17,0,0,1,.32.84,1.32,1.32,0,0,1-.29.84,1.11,1.11,0,0,1-.94.43,1.15,1.15,0,0,1-.79-.27A1.07,1.07,0,0,1,10.26,115.28Z" transform="translate(0.01 -21.92)"/><path class="cls-3" d="M13.29,116.22v-.5h.5v.5Z" transform="translate(0.01 -21.92)"/><path class="cls-3" d="M14.43,114.46a3.19,3.19,0,0,1,.14-1,1.24,1.24,0,0,1,.38-.59,1,1,0,0,1,.65-.21,1.19,1.19,0,0,1,.51.11,1.06,1.06,0,0,1,.36.34,2,2,0,0,1,.22.53,3.76,3.76,0,0,1,.08.85,3.14,3.14,0,0,1-.13,1,1.31,1.31,0,0,1-.39.6,1,1,0,0,1-.65.21,1,1,0,0,1-.81-.37A2.32,2.32,0,0,1,14.43,114.46Zm.46,0a2.36,2.36,0,0,0,.2,1.17.59.59,0,0,0,1,0,3.39,3.39,0,0,0,0-2.35.62.62,0,0,0-.51-.29.58.58,0,0,0-.49.26A2.28,2.28,0,0,0,14.89,114.46Z" transform="translate(0.01 -21.92)"/><path class="cls-3" d="M9.11,93.54H8.67v-2.8a2.72,2.72,0,0,1-.88.53v-.42a3,3,0,0,0,.65-.42A2,2,0,0,0,8.83,90h.28Z" transform="translate(0.01 -21.92)"/><path class="cls-3" d="M10.26,91.78a3.09,3.09,0,0,1,.14-1,1.22,1.22,0,0,1,.38-.6,1,1,0,0,1,.65-.21,1.07,1.07,0,0,1,.51.12.94.94,0,0,1,.36.33,2.17,2.17,0,0,1,.22.53,3.76,3.76,0,0,1,.08.85,3.09,3.09,0,0,1-.13,1,1.31,1.31,0,0,1-.39.6,1,1,0,0,1-.65.21,1,1,0,0,1-.81-.37A2.3,2.3,0,0,1,10.26,91.78Zm.46,0a2.31,2.31,0,0,0,.2,1.17.59.59,0,0,0,1,0,3.39,3.39,0,0,0,0-2.35.62.62,0,0,0-.51-.29.58.58,0,0,0-.49.26A2.3,2.3,0,0,0,10.72,91.78Z" transform="translate(0.01 -21.92)"/><path class="cls-3" d="M13.29,93.54V93h.5v.5Z" transform="translate(0.01 -21.92)"/><path class="cls-3" d="M14.43,91.78a3.09,3.09,0,0,1,.14-1,1.22,1.22,0,0,1,.38-.6A1,1,0,0,1,15.6,90a1.07,1.07,0,0,1,.51.12.94.94,0,0,1,.36.33,2.17,2.17,0,0,1,.22.53,3.76,3.76,0,0,1,.08.85,3.09,3.09,0,0,1-.13,1,1.31,1.31,0,0,1-.39.6,1,1,0,0,1-.65.21,1,1,0,0,1-.81-.37A2.3,2.3,0,0,1,14.43,91.78Zm.46,0a2.31,2.31,0,0,0,.2,1.17.59.59,0,0,0,1,0,3.39,3.39,0,0,0,0-2.35.62.62,0,0,0-.51-.29.58.58,0,0,0-.49.26A2.3,2.3,0,0,0,14.89,91.78Z" transform="translate(0.01 -21.92)"/><path class="cls-3" d="M9.11,70.87H8.67v-2.8a2.18,2.18,0,0,1-.42.3,2.81,2.81,0,0,1-.46.23v-.43a2.42,2.42,0,0,0,.65-.42,1.65,1.65,0,0,0,.39-.48h.28Z" transform="translate(0.01 -21.92)"/><path class="cls-3" d="M10.26,69.93l.47,0a.87.87,0,0,0,.23.51.71.71,0,0,0,1-.07.89.89,0,0,0,.22-.64A.8.8,0,0,0,12,69.1a.71.71,0,0,0-.55-.22A.76.76,0,0,0,11,69a.69.69,0,0,0-.26.25l-.42-.06.35-1.83h1.78v.42H11l-.19,1a1.15,1.15,0,0,1,.67-.23,1.08,1.08,0,0,1,.8.33,1.13,1.13,0,0,1,.32.83,1.28,1.28,0,0,1-.29.84,1.12,1.12,0,0,1-.94.44,1.11,1.11,0,0,1-.79-.28A1,1,0,0,1,10.26,69.93Z" transform="translate(0.01 -21.92)"/><path class="cls-3" d="M13.29,70.87v-.5h.5v.5Z" transform="translate(0.01 -21.92)"/><path class="cls-3" d="M14.43,69.1a3.17,3.17,0,0,1,.14-1,1.22,1.22,0,0,1,.38-.6,1,1,0,0,1,.65-.21,1.07,1.07,0,0,1,.51.12,1.13,1.13,0,0,1,.36.33,2.35,2.35,0,0,1,.22.53,3.82,3.82,0,0,1,.08.85,3.2,3.2,0,0,1-.13,1,1.31,1.31,0,0,1-.39.6,1,1,0,0,1-.65.21,1,1,0,0,1-.81-.37A2.35,2.35,0,0,1,14.43,69.1Zm.46,0a2.31,2.31,0,0,0,.2,1.17.58.58,0,0,0,1,0,3.36,3.36,0,0,0,0-2.34.6.6,0,0,0-.51-.29.57.57,0,0,0-.49.25A2.3,2.3,0,0,0,14.89,69.1Z" transform="translate(0.01 -21.92)"/><path class="cls-3" d="M9.76,47.77v.42H7.39a1.06,1.06,0,0,1,.05-.31,1.58,1.58,0,0,1,.29-.47,4.54,4.54,0,0,1,.58-.54,5.35,5.35,0,0,0,.79-.76,1,1,0,0,0,.2-.53.59.59,0,0,0-.18-.44.77.77,0,0,0-1,0,.7.7,0,0,0-.19.53l-.45,0a1.11,1.11,0,0,1,.34-.77,1.21,1.21,0,0,1,.82-.27,1.13,1.13,0,0,1,.81.29.94.94,0,0,1,.3.71,1.25,1.25,0,0,1-.08.42,1.72,1.72,0,0,1-.3.44,7.63,7.63,0,0,1-.67.63,5.24,5.24,0,0,0-.51.45,1.33,1.33,0,0,0-.19.24Z" transform="translate(0.01 -21.92)"/><path class="cls-3" d="M10.26,46.42a3.2,3.2,0,0,1,.13-1,1.31,1.31,0,0,1,.39-.6,1.11,1.11,0,0,1,1.15-.09,1,1,0,0,1,.36.33,1.91,1.91,0,0,1,.22.54,4.23,4.23,0,0,1,0,1.86,1.22,1.22,0,0,1-.38.6,1.1,1.1,0,0,1-1.47-.16A2.41,2.41,0,0,1,10.26,46.42Zm.45,0a2.25,2.25,0,0,0,.21,1.18.6.6,0,0,0,.51.29.62.62,0,0,0,.51-.29,2.38,2.38,0,0,0,.2-1.18,2.31,2.31,0,0,0-.2-1.17.63.63,0,0,0-.52-.29.56.56,0,0,0-.48.25A2.31,2.31,0,0,0,10.71,46.42Z" transform="translate(0.01 -21.92)"/><path class="cls-3" d="M13.29,48.19v-.5h.5v.5Z" transform="translate(0.01 -21.92)"/><path class="cls-3" d="M14.43,46.42a3.17,3.17,0,0,1,.14-1,1.22,1.22,0,0,1,.38-.6,1,1,0,0,1,.65-.21,1.07,1.07,0,0,1,.51.12,1.13,1.13,0,0,1,.36.33,2.25,2.25,0,0,1,.22.54,3.72,3.72,0,0,1,.08.84,3.2,3.2,0,0,1-.13,1,1.31,1.31,0,0,1-.39.6,1,1,0,0,1-.65.21,1,1,0,0,1-.81-.37A2.33,2.33,0,0,1,14.43,46.42Zm.46,0a2.38,2.38,0,0,0,.2,1.18.59.59,0,0,0,1,0,2.25,2.25,0,0,0,.21-1.18,2.18,2.18,0,0,0-.21-1.17A.62.62,0,0,0,15.6,45a.57.57,0,0,0-.49.25A2.33,2.33,0,0,0,14.89,46.42Z" transform="translate(0.01 -21.92)"/><path class="cls-3" d="M9.76,25.09v.42H7.4a.61.61,0,0,1,0-.3,1.62,1.62,0,0,1,.29-.48,3.81,3.81,0,0,1,.57-.54,4.48,4.48,0,0,0,.79-.76.9.9,0,0,0,.21-.53.61.61,0,0,0-.19-.44.67.67,0,0,0-.49-.18.65.65,0,0,0-.5.19.71.71,0,0,0-.2.53L7.48,23a1.14,1.14,0,0,1,.35-.77,1.21,1.21,0,0,1,.81-.26,1.13,1.13,0,0,1,.82.28.94.94,0,0,1,.3.71,1,1,0,0,1-.09.42,1.51,1.51,0,0,1-.29.44,8.11,8.11,0,0,1-.68.63l-.51.45a1.88,1.88,0,0,0-.18.24Z" transform="translate(0.01 -21.92)"/><path class="cls-3" d="M10.26,24.57l.47,0A.81.81,0,0,0,11,25,.71.71,0,0,0,12,25a.88.88,0,0,0,.22-.63.84.84,0,0,0-.21-.6.74.74,0,0,0-.55-.21.86.86,0,0,0-.39.09.78.78,0,0,0-.26.25l-.42-.05L10.69,22h1.78v.42H11l-.19,1a1.14,1.14,0,0,1,.67-.22,1.11,1.11,0,0,1,.8.32,1.17,1.17,0,0,1,.32.84,1.32,1.32,0,0,1-.29.84,1.11,1.11,0,0,1-.94.43,1.15,1.15,0,0,1-.79-.27A1,1,0,0,1,10.26,24.57Z" transform="translate(0.01 -21.92)"/><path class="cls-3" d="M13.29,25.51V25h.5v.5Z" transform="translate(0.01 -21.92)"/><path class="cls-3" d="M14.43,23.75a3.19,3.19,0,0,1,.14-1,1.24,1.24,0,0,1,.38-.59,1,1,0,0,1,.65-.21,1.19,1.19,0,0,1,.51.11,1.06,1.06,0,0,1,.36.34,2,2,0,0,1,.22.53,3.76,3.76,0,0,1,.08.85,3.14,3.14,0,0,1-.13,1,1.31,1.31,0,0,1-.39.6,1,1,0,0,1-.65.21,1,1,0,0,1-.81-.37A2.32,2.32,0,0,1,14.43,23.75Zm.46,0a2.36,2.36,0,0,0,.2,1.17.59.59,0,0,0,1,0,2.23,2.23,0,0,0,.21-1.17,2.25,2.25,0,0,0-.21-1.18.62.62,0,0,0-.51-.29.58.58,0,0,0-.49.26A2.3,2.3,0,0,0,14.89,23.75Z" transform="translate(0.01 -21.92)"/><path class="cls-3" d="M42.21,142.73v.42H39.85a.65.65,0,0,1,0-.31,1.58,1.58,0,0,1,.29-.47,3.81,3.81,0,0,1,.57-.54,4.87,4.87,0,0,0,.79-.76.9.9,0,0,0,.21-.53.61.61,0,0,0-.19-.44.67.67,0,0,0-.49-.18.65.65,0,0,0-.5.19.71.71,0,0,0-.2.53l-.45,0a1.12,1.12,0,0,1,.35-.77,1.16,1.16,0,0,1,.81-.26,1.13,1.13,0,0,1,.82.28.94.94,0,0,1,.3.71,1.06,1.06,0,0,1-.09.42,1.51,1.51,0,0,1-.29.44,8.11,8.11,0,0,1-.68.63l-.51.45a1.88,1.88,0,0,0-.18.24Z" transform="translate(0.01 -21.92)"/><path class="cls-3" d="M42.71,141.38a3.52,3.52,0,0,1,.13-1,1.33,1.33,0,0,1,.39-.59,1,1,0,0,1,.65-.21.95.95,0,0,1,.87.45,2,2,0,0,1,.22.53,3.72,3.72,0,0,1,.08.84,3.2,3.2,0,0,1-.13,1,1.31,1.31,0,0,1-.39.6,1,1,0,0,1-.65.21,1,1,0,0,1-.81-.37A2.33,2.33,0,0,1,42.71,141.38Zm.46,0a2.38,2.38,0,0,0,.2,1.18.59.59,0,0,0,1,0,2.25,2.25,0,0,0,.21-1.18,2.2,2.2,0,0,0-.21-1.17.62.62,0,0,0-.51-.29.58.58,0,0,0-.49.26A2.26,2.26,0,0,0,43.17,141.38Z" transform="translate(0.01 -21.92)"/><path class="cls-3" d="M45.47,141.38a3.2,3.2,0,0,1,.13-1,1.24,1.24,0,0,1,.38-.59,1,1,0,0,1,.65-.21.95.95,0,0,1,.87.45,1.73,1.73,0,0,1,.22.53,3.72,3.72,0,0,1,.08.84,3.2,3.2,0,0,1-.13,1,1.31,1.31,0,0,1-.39.6,1,1,0,0,1-.65.21,1,1,0,0,1-.81-.37A2.34,2.34,0,0,1,45.47,141.38Zm.45,0a2.38,2.38,0,0,0,.2,1.18.59.59,0,0,0,1,0,2.25,2.25,0,0,0,.21-1.18,2.2,2.2,0,0,0-.21-1.17.62.62,0,0,0-.51-.29.58.58,0,0,0-.49.26A2.26,2.26,0,0,0,45.92,141.38Z" transform="translate(0.01 -21.92)"/><path class="cls-3" d="M48.28,141.38a3.2,3.2,0,0,1,.13-1,1.18,1.18,0,0,1,.39-.59,1,1,0,0,1,.64-.21.95.95,0,0,1,.87.45,1.73,1.73,0,0,1,.22.53,3.72,3.72,0,0,1,.08.84,3.2,3.2,0,0,1-.13,1,1.23,1.23,0,0,1-.39.6,1.09,1.09,0,0,1-1.46-.16A2.34,2.34,0,0,1,48.28,141.38Zm.45,0a2.38,2.38,0,0,0,.2,1.18.59.59,0,0,0,1,0,2.25,2.25,0,0,0,.21-1.18,2.2,2.2,0,0,0-.21-1.17.62.62,0,0,0-.51-.29.59.59,0,0,0-.49.26A2.26,2.26,0,0,0,48.73,141.38Z" transform="translate(0.01 -21.92)"/><path class="cls-3" d="M68.26,143.15v-.86H66.7v-.4l1.64-2.32h.36v2.32h.48v.4H68.7v.86Zm0-1.26v-1.61l-1.12,1.61Z" transform="translate(0.01 -21.92)"/><path class="cls-3" d="M69.66,141.38a3.2,3.2,0,0,1,.13-1,1.33,1.33,0,0,1,.39-.59,1.14,1.14,0,0,1,1.15-.1.9.9,0,0,1,.36.34,1.73,1.73,0,0,1,.22.53,4.23,4.23,0,0,1,0,1.86,1.22,1.22,0,0,1-.38.6,1,1,0,0,1-.65.21,1,1,0,0,1-.82-.37A2.41,2.41,0,0,1,69.66,141.38Zm.45,0a2.25,2.25,0,0,0,.21,1.18.6.6,0,0,0,.51.29.62.62,0,0,0,.51-.29,2.38,2.38,0,0,0,.2-1.18,2.34,2.34,0,0,0-.2-1.17.63.63,0,0,0-.52-.29.56.56,0,0,0-.48.26A2.24,2.24,0,0,0,70.11,141.38Z" transform="translate(0.01 -21.92)"/><path class="cls-3" d="M72.41,141.38a3.2,3.2,0,0,1,.13-1,1.33,1.33,0,0,1,.39-.59,1.14,1.14,0,0,1,1.15-.1.9.9,0,0,1,.36.34,1.51,1.51,0,0,1,.22.53,4.23,4.23,0,0,1,0,1.86,1.22,1.22,0,0,1-.38.6,1.1,1.1,0,0,1-1.47-.16A2.41,2.41,0,0,1,72.41,141.38Zm.45,0a2.25,2.25,0,0,0,.21,1.18.59.59,0,0,0,1,0,2.38,2.38,0,0,0,.2-1.18,2.34,2.34,0,0,0-.2-1.17.63.63,0,0,0-.52-.29.56.56,0,0,0-.48.26A2.24,2.24,0,0,0,72.86,141.38Z" transform="translate(0.01 -21.92)"/><path class="cls-3" d="M75.22,141.38a3.2,3.2,0,0,1,.13-1,1.33,1.33,0,0,1,.39-.59,1.14,1.14,0,0,1,1.15-.1.9.9,0,0,1,.36.34,1.51,1.51,0,0,1,.22.53,3.22,3.22,0,0,1,.08.84,3.56,3.56,0,0,1-.12,1,1.31,1.31,0,0,1-.39.6,1.1,1.1,0,0,1-1.47-.16A2.41,2.41,0,0,1,75.22,141.38Zm.45,0a2.25,2.25,0,0,0,.21,1.18.59.59,0,0,0,1,0,2.38,2.38,0,0,0,.2-1.18,2.34,2.34,0,0,0-.2-1.17.63.63,0,0,0-.52-.29.56.56,0,0,0-.48.26A2.24,2.24,0,0,0,75.67,141.38Z" transform="translate(0.01 -21.92)"/><path class="cls-3" d="M96,140.45l-.44,0a.71.71,0,0,0-.17-.37.55.55,0,0,0-.44-.19.61.61,0,0,0-.36.11,1,1,0,0,0-.33.45,2.41,2.41,0,0,0-.13.82,1.11,1.11,0,0,1,.39-.36,1.2,1.2,0,0,1,.48-.11,1,1,0,0,1,.75.32,1.16,1.16,0,0,1,.31.84,1.44,1.44,0,0,1-.14.62,1.1,1.1,0,0,1-.4.45,1.14,1.14,0,0,1-.58.15,1.12,1.12,0,0,1-.9-.4,2.07,2.07,0,0,1-.34-1.34,2.33,2.33,0,0,1,.38-1.5,1.08,1.08,0,0,1,.9-.41,1,1,0,0,1,.69.23A1,1,0,0,1,96,140.45ZM94.24,142a.91.91,0,0,0,.1.43.66.66,0,0,0,.27.32.69.69,0,0,0,.36.11.62.62,0,0,0,.48-.23.9.9,0,0,0,.2-.61.79.79,0,0,0-.2-.58.64.64,0,0,0-.49-.21.69.69,0,0,0-.51.21A.76.76,0,0,0,94.24,142Z" transform="translate(0.01 -21.92)"/><path class="cls-3" d="M96.57,141.38a3.2,3.2,0,0,1,.13-1,1.14,1.14,0,0,1,.39-.59,1,1,0,0,1,.64-.21,1,1,0,0,1,.51.11,1.06,1.06,0,0,1,.36.34,1.73,1.73,0,0,1,.22.53,3.72,3.72,0,0,1,.08.84,3.2,3.2,0,0,1-.13,1,1.17,1.17,0,0,1-.39.6,1.09,1.09,0,0,1-1.46-.16A2.41,2.41,0,0,1,96.57,141.38Zm.45,0a2.38,2.38,0,0,0,.2,1.18.62.62,0,0,0,.51.29.6.6,0,0,0,.51-.29,2.25,2.25,0,0,0,.21-1.18,2.18,2.18,0,0,0-.21-1.17.61.61,0,0,0-.51-.29.54.54,0,0,0-.48.26A2.15,2.15,0,0,0,97,141.38Z" transform="translate(0.01 -21.92)"/><path class="cls-3" d="M99.32,141.38a3.2,3.2,0,0,1,.13-1,1.28,1.28,0,0,1,.39-.59,1,1,0,0,1,.65-.21,1,1,0,0,1,.5.11.9.9,0,0,1,.36.34,1.73,1.73,0,0,1,.22.53,4.23,4.23,0,0,1,0,1.86,1.22,1.22,0,0,1-.38.6,1,1,0,0,1-.65.21,1,1,0,0,1-.82-.37A2.41,2.41,0,0,1,99.32,141.38Zm.45,0a2.25,2.25,0,0,0,.21,1.18.58.58,0,0,0,1,0,2.25,2.25,0,0,0,.21-1.18,2.18,2.18,0,0,0-.21-1.17.6.6,0,0,0-.51-.29.54.54,0,0,0-.48.26A2.24,2.24,0,0,0,99.77,141.38Z" transform="translate(0.01 -21.92)"/><path class="cls-3" d="M102.13,141.38a3.2,3.2,0,0,1,.13-1,1.28,1.28,0,0,1,.39-.59,1.14,1.14,0,0,1,1.15-.1.9.9,0,0,1,.36.34,1.73,1.73,0,0,1,.22.53,4.23,4.23,0,0,1,0,1.86,1.22,1.22,0,0,1-.38.6,1,1,0,0,1-.65.21,1,1,0,0,1-.82-.37A2.41,2.41,0,0,1,102.13,141.38Zm.45,0a2.25,2.25,0,0,0,.21,1.18.58.58,0,0,0,1,0,2.25,2.25,0,0,0,.21-1.18,2.18,2.18,0,0,0-.21-1.17.6.6,0,0,0-.51-.29.54.54,0,0,0-.48.26A2.24,2.24,0,0,0,102.58,141.38Z" transform="translate(0.01 -21.92)"/><rect class="邱喟0.5pt-5" x="18.35" y="2.18" width="90.71" height="113.39"/></g><g id="English"><path class="cls-3" d="M4.64,98.27H.54V99.8H0V96.12H.54v1.53h4.1Z" transform="translate(0.01 -21.92)"/><path class="cls-3" d="M3,95.77a1.72,1.72,0,0,1-1.38-.52,1.57,1.57,0,0,1-.38-1.06,1.51,1.51,0,0,1,.46-1.14,1.74,1.74,0,0,1,1.26-.44,2.22,2.22,0,0,1,1,.2,1.42,1.42,0,0,1,.58.56,1.64,1.64,0,0,1,.21.82,1.52,1.52,0,0,1-.46,1.14A1.82,1.82,0,0,1,3,95.77Zm0-.59a1.41,1.41,0,0,0,1-.28.91.91,0,0,0,.33-.71.89.89,0,0,0-.33-.71,1.43,1.43,0,0,0-1-.28,1.38,1.38,0,0,0-.95.28A.95.95,0,0,0,2,94.9,1.39,1.39,0,0,0,3,95.18Z" transform="translate(0.01 -21.92)"/><path class="cls-3" d="M4.64,92H1.27v-.52h.51a1.31,1.31,0,0,1-.47-.36.61.61,0,0,1-.12-.37,1,1,0,0,1,.19-.58l.53.19a.76.76,0,0,0-.13.42.52.52,0,0,0,.12.34.58.58,0,0,0,.31.21,2.28,2.28,0,0,0,.66.1H4.64Z" transform="translate(0.01 -21.92)"/><path class="cls-3" d="M5.93,87.63H4.28a1,1,0,0,1,.31.37,1.14,1.14,0,0,1,.13.51,1.33,1.33,0,0,1-.48,1A1.9,1.9,0,0,1,2.92,90,2.21,2.21,0,0,1,2,89.8a1.33,1.33,0,0,1-.82-1.24,1.14,1.14,0,0,1,.53-1H1.27v-.51H5.93Zm-3,1.76a1.51,1.51,0,0,0,1-.27.81.81,0,0,0,0-1.29A1.46,1.46,0,0,0,3,87.57a1.57,1.57,0,0,0-1,.28.83.83,0,0,0-.34.65.79.79,0,0,0,.32.63A1.55,1.55,0,0,0,2.94,89.39Z" transform="translate(0.01 -21.92)"/><path class="cls-3" d="M4.64,84h-.5A1.23,1.23,0,0,1,4.72,85a1.31,1.31,0,0,1-.12.56.82.82,0,0,1-.29.38.9.9,0,0,1-.42.18,3.33,3.33,0,0,1-.53,0H1.27V85.6H3.14a3.77,3.77,0,0,0,.6,0,.63.63,0,0,0,.36-.23.75.75,0,0,0,.12-.43.91.91,0,0,0-.13-.48.74.74,0,0,0-.36-.32,1.63,1.63,0,0,0-.66-.1H1.27v-.57H4.64Z" transform="translate(0.01 -21.92)"/><path class="cls-3" d="M3.55,80.24l.08-.59a1.39,1.39,0,0,1,.8.52,1.72,1.72,0,0,1-.17,2.13A1.77,1.77,0,0,1,3,82.74a1.9,1.9,0,0,1-1.32-.44,1.49,1.49,0,0,1-.47-1.14,1.45,1.45,0,0,1,.46-1.1A1.82,1.82,0,0,1,3,79.63H3.1v2.52A1.29,1.29,0,0,0,4,81.83a.92.92,0,0,0,.3-.7.89.89,0,0,0-.17-.54A1.07,1.07,0,0,0,3.55,80.24Zm-.92,1.88V80.23a1.18,1.18,0,0,0-.64.22.88.88,0,0,0-.33.71.9.9,0,0,0,.27.66A1,1,0,0,0,2.63,82.12Z" transform="translate(0.01 -21.92)"/><path class="cls-3" d="M5.93,77.11H0V75.85H.46v.69h5v-.69h.47Z" transform="translate(0.01 -21.92)"/><path class="cls-3" d="M4.64,75.25H0v-.63l3.65-2.44H0v-.59H4.64v.63L1,74.66H4.64Z" transform="translate(0.01 -21.92)"/><path class="cls-3" d="M2.36,70.71a.81.81,0,1,1,.57-1.37.75.75,0,0,1,.24.57.76.76,0,0,1-.24.56A.78.78,0,0,1,2.36,70.71Z" transform="translate(0.01 -21.92)"/><path class="cls-3" d="M4.64,68.35H1.27v-.51h.47a1.34,1.34,0,0,1-.4-.42,1.21,1.21,0,0,1-.15-.6,1.08,1.08,0,0,1,.16-.62.79.79,0,0,1,.43-.33,1.23,1.23,0,0,1-.59-1.05,1.05,1.05,0,0,1,.28-.77,1.2,1.2,0,0,1,.86-.27H4.64v.57H2.52a1.49,1.49,0,0,0-.5.06.42.42,0,0,0-.24.2.64.64,0,0,0-.09.34.82.82,0,0,0,.23.59,1,1,0,0,0,.76.24h2v.57H2.45a.92.92,0,0,0-.57.14.51.51,0,0,0-.19.45.87.87,0,0,0,.12.45.72.72,0,0,0,.38.3,2.08,2.08,0,0,0,.7.09H4.64Z" transform="translate(0.01 -21.92)"/><path class="cls-3" d="M5.93,62v1.26H5.46v-.69h-5v.69H0V62Z" transform="translate(0.01 -21.92)"/><rect class="繝後Μ_逋ｽ" x="20.14" y="51.29" width="47.91" height="16.58"/><path class="cls-3" d="M22.63,78.07l.58,0a1.32,1.32,0,0,0,.19.58,1.11,1.11,0,0,0,.47.36,1.8,1.8,0,0,0,.71.13,1.74,1.74,0,0,0,.63-.1.89.89,0,0,0,.4-.29.63.63,0,0,0,.13-.39.59.59,0,0,0-.13-.39.85.85,0,0,0-.42-.27,6.63,6.63,0,0,0-.83-.23,4.15,4.15,0,0,1-.89-.29,1.26,1.26,0,0,1-.5-.43,1.06,1.06,0,0,1-.16-.58,1.12,1.12,0,0,1,.2-.66,1.25,1.25,0,0,1,.58-.47,2.34,2.34,0,0,1,.85-.15,2.4,2.4,0,0,1,.92.16,1.33,1.33,0,0,1,.6.49,1.35,1.35,0,0,1,.23.74l-.59,0a1,1,0,0,0-.32-.67,1.24,1.24,0,0,0-.81-.22,1.39,1.39,0,0,0-.82.2.62.62,0,0,0-.25.5.54.54,0,0,0,.18.41,2.39,2.39,0,0,0,.93.33,5.44,5.44,0,0,1,1,.3,1.39,1.39,0,0,1,.6.47,1.14,1.14,0,0,1,.19.66,1.25,1.25,0,0,1-.21.7,1.49,1.49,0,0,1-.61.52,2.19,2.19,0,0,1-.9.18,2.58,2.58,0,0,1-1.06-.19,1.5,1.5,0,0,1-.67-.55A1.62,1.62,0,0,1,22.63,78.07Z" transform="translate(0.01 -21.92)"/><path class="cls-3" d="M27.1,79.57V74.92h.57v1.67a1.28,1.28,0,0,1,1-.47,1.33,1.33,0,0,1,.65.15.84.84,0,0,1,.4.41,1.83,1.83,0,0,1,.12.75v2.14h-.58V77.43a.9.9,0,0,0-.18-.62.71.71,0,0,0-.53-.2,1,1,0,0,0-.47.13.74.74,0,0,0-.32.36,1.51,1.51,0,0,0-.1.62v1.85Z" transform="translate(0.01 -21.92)"/><path class="cls-3" d="M30.5,77.88A1.75,1.75,0,0,1,31,76.5a1.58,1.58,0,0,1,1.06-.38,1.48,1.48,0,0,1,1.14.46,1.74,1.74,0,0,1,.44,1.26,2.24,2.24,0,0,1-.19,1,1.39,1.39,0,0,1-.57.58,1.63,1.63,0,0,1-.82.2,1.51,1.51,0,0,1-1.14-.45A1.82,1.82,0,0,1,30.5,77.88Zm.59,0a1.42,1.42,0,0,0,.28,1,.9.9,0,0,0,.71.32.88.88,0,0,0,.71-.32,1.45,1.45,0,0,0,.28-1,1.37,1.37,0,0,0-.28-.94.93.93,0,0,0-1.42,0A1.39,1.39,0,0,0,31.09,77.88Z" transform="translate(0.01 -21.92)"/><path class="cls-3" d="M34.32,79.57V76.2h.52v.51a1.31,1.31,0,0,1,.36-.47.61.61,0,0,1,.37-.12,1,1,0,0,1,.58.19l-.19.53a.76.76,0,0,0-.42-.13.58.58,0,0,0-.34.11.6.6,0,0,0-.21.32,2.29,2.29,0,0,0-.09.66v1.77Z" transform="translate(0.01 -21.92)"/><path class="cls-3" d="M37.74,79.06l.08.5a1.72,1.72,0,0,1-.43,0,.93.93,0,0,1-.48-.1.58.58,0,0,1-.24-.25,2,2,0,0,1-.07-.68V76.64h-.42V76.2h.42v-.84l.57-.34V76.2h.57v.44h-.57v2a1,1,0,0,0,0,.32.26.26,0,0,0,.1.11.34.34,0,0,0,.19,0Z" transform="translate(0.01 -21.92)"/><path class="cls-3" d="M38.08,78.17V77.6h1.75v.57Z" transform="translate(0.01 -21.92)"/><path class="cls-3" d="M42.65,79.57v-.43a1,1,0,0,1-.94.5,1.29,1.29,0,0,1-.74-.22,1.47,1.47,0,0,1-.53-.62,2.17,2.17,0,0,1-.18-.91,2.43,2.43,0,0,1,.17-.92,1.37,1.37,0,0,1,.5-.63,1.34,1.34,0,0,1,.75-.22,1.09,1.09,0,0,1,.55.13,1.14,1.14,0,0,1,.38.34V74.92h.57v4.65Zm-1.8-1.68a1.45,1.45,0,0,0,.27,1,.8.8,0,0,0,.64.32.81.81,0,0,0,.64-.3,1.46,1.46,0,0,0,.26-.94,1.54,1.54,0,0,0-.27-1,.79.79,0,0,0-.65-.33.81.81,0,0,0-.64.31A1.57,1.57,0,0,0,40.85,77.89Z" transform="translate(0.01 -21.92)"/><path class="cls-3" d="M46.29,79.57v-.5a1.23,1.23,0,0,1-1.07.57,1.3,1.3,0,0,1-.56-.11.89.89,0,0,1-.38-.29,1,1,0,0,1-.18-.42,3.33,3.33,0,0,1,0-.53V76.2h.57v1.87a3.86,3.86,0,0,0,0,.6.62.62,0,0,0,.23.35.69.69,0,0,0,.43.13,1,1,0,0,0,.49-.13.72.72,0,0,0,.31-.36,1.63,1.63,0,0,0,.1-.66V76.2h.57v3.37Z" transform="translate(0.01 -21.92)"/><path class="cls-3" d="M47.69,79.57V76.2h.51v.51a1.31,1.31,0,0,1,.37-.47.6.6,0,0,1,.36-.12,1.06,1.06,0,0,1,.59.19l-.2.53a.76.76,0,0,0-.42-.13.57.57,0,0,0-.33.11.68.68,0,0,0-.22.32,2.29,2.29,0,0,0-.09.66v1.77Z" transform="translate(0.01 -21.92)"/><path class="cls-3" d="M52.06,79.15a2.08,2.08,0,0,1-.61.38,1.67,1.67,0,0,1-.63.11,1.25,1.25,0,0,1-.86-.27.91.91,0,0,1-.29-.69.84.84,0,0,1,.11-.45.85.85,0,0,1,.29-.33,1.46,1.46,0,0,1,.42-.19,3.06,3.06,0,0,1,.5-.08,5.33,5.33,0,0,0,1-.2c0-.08,0-.13,0-.15a.62.62,0,0,0-.17-.49.94.94,0,0,0-.65-.2,1,1,0,0,0-.59.15.83.83,0,0,0-.29.5l-.56-.08a1.35,1.35,0,0,1,.26-.58,1,1,0,0,1,.5-.34,2.22,2.22,0,0,1,.77-.12,2,2,0,0,1,.7.1.92.92,0,0,1,.39.26.79.79,0,0,1,.18.39,2.94,2.94,0,0,1,0,.52v.77a6.72,6.72,0,0,0,0,1,1.25,1.25,0,0,0,.14.41h-.6A1.29,1.29,0,0,1,52.06,79.15ZM52,77.88a4.67,4.67,0,0,1-.93.21,2,2,0,0,0-.5.12.52.52,0,0,0-.23.18.5.5,0,0,0-.07.27.46.46,0,0,0,.17.38.68.68,0,0,0,.5.16,1.15,1.15,0,0,0,.59-.15.89.89,0,0,0,.38-.39,1.41,1.41,0,0,0,.09-.57Z" transform="translate(0.01 -21.92)"/><path class="cls-3" d="M54.72,79.06l.08.5a1.72,1.72,0,0,1-.43,0,.93.93,0,0,1-.48-.1.58.58,0,0,1-.24-.25,2,2,0,0,1-.07-.68V76.64h-.42V76.2h.42v-.84l.57-.34V76.2h.57v.44h-.57v2a1,1,0,0,0,0,.32.26.26,0,0,0,.1.11.34.34,0,0,0,.19,0Z" transform="translate(0.01 -21.92)"/><path class="cls-3" d="M55.28,75.57v-.65h.58v.65Zm0,4V76.2h.58v3.37Z" transform="translate(0.01 -21.92)"/><path class="cls-3" d="M56.51,77.88A1.75,1.75,0,0,1,57,76.5a1.58,1.58,0,0,1,1.06-.38,1.48,1.48,0,0,1,1.14.46,1.74,1.74,0,0,1,.44,1.26,2.22,2.22,0,0,1-.2,1,1.42,1.42,0,0,1-.56.58,1.63,1.63,0,0,1-.82.2A1.51,1.51,0,0,1,57,79.19,1.82,1.82,0,0,1,56.51,77.88Zm.59,0a1.42,1.42,0,0,0,.28,1,.9.9,0,0,0,.71.32.88.88,0,0,0,.71-.32,1.45,1.45,0,0,0,.28-1,1.37,1.37,0,0,0-.28-.94.93.93,0,0,0-1.42,0A1.39,1.39,0,0,0,57.1,77.88Z" transform="translate(0.01 -21.92)"/><path class="cls-3" d="M60.34,79.57V76.2h.51v.48a1.23,1.23,0,0,1,1.08-.56,1.47,1.47,0,0,1,.56.11.88.88,0,0,1,.38.29,1.33,1.33,0,0,1,.18.42,3.51,3.51,0,0,1,0,.56v2.07h-.57v-2a1.57,1.57,0,0,0-.07-.52.5.5,0,0,0-.24-.28.71.71,0,0,0-.39-.1.88.88,0,0,0-.63.23,1.13,1.13,0,0,0-.27.88v1.84Z" transform="translate(0.01 -21.92)"/><path class="cls-3" d="M22.76,87.37V84h.51v.51a1.21,1.21,0,0,1,.37-.47.6.6,0,0,1,.36-.12,1.08,1.08,0,0,1,.59.19l-.2.53a.76.76,0,0,0-.42-.13.57.57,0,0,0-.33.11.6.6,0,0,0-.21.32,2,2,0,0,0-.1.66v1.77Z" transform="translate(0.01 -21.92)"/><path class="cls-3" d="M27.14,87.37v-.5a1.23,1.23,0,0,1-1.07.57,1.3,1.3,0,0,1-.56-.11.89.89,0,0,1-.38-.29,1,1,0,0,1-.18-.42,3.33,3.33,0,0,1,0-.53V84h.57v1.87a3.86,3.86,0,0,0,0,.6.62.62,0,0,0,.23.35.69.69,0,0,0,.43.13,1,1,0,0,0,.49-.13.72.72,0,0,0,.31-.36,1.63,1.63,0,0,0,.1-.66V84h.57v3.37Z" transform="translate(0.01 -21.92)"/><path class="cls-3" d="M28.54,87.37V84h.52v.48a1.21,1.21,0,0,1,1.07-.56,1.47,1.47,0,0,1,.56.11.82.82,0,0,1,.38.29,1,1,0,0,1,.18.42,3.51,3.51,0,0,1,0,.56v2.07h-.57V85.32a1.63,1.63,0,0,0-.06-.52.6.6,0,0,0-.24-.28.74.74,0,0,0-.4-.1.91.91,0,0,0-.63.23,1.13,1.13,0,0,0-.26.88v1.84Z" transform="translate(0.01 -21.92)"/><path class="cls-3" d="M32.16,87.37V84h.51v.48a1.23,1.23,0,0,1,1.08-.56,1.47,1.47,0,0,1,.56.11.88.88,0,0,1,.38.29,1.33,1.33,0,0,1,.18.42,3.51,3.51,0,0,1,0,.56v2.07h-.57V85.32a1.34,1.34,0,0,0-.07-.52.5.5,0,0,0-.24-.28.71.71,0,0,0-.39-.1.92.92,0,0,0-.64.23,1.17,1.17,0,0,0-.26.88v1.84Z" transform="translate(0.01 -21.92)"/><path class="cls-3" d="M35.78,83.37v-.65h.57v.65Zm0,4V84h.57v3.37Z" transform="translate(0.01 -21.92)"/><path class="cls-3" d="M37.22,87.37V84h.51v.48a1.23,1.23,0,0,1,1.08-.56,1.47,1.47,0,0,1,.56.11.88.88,0,0,1,.38.29,1.33,1.33,0,0,1,.18.42,3.51,3.51,0,0,1,0,.56v2.07h-.57V85.32a1.57,1.57,0,0,0-.07-.52.5.5,0,0,0-.24-.28.72.72,0,0,0-.4-.1.91.91,0,0,0-.63.23,1.17,1.17,0,0,0-.26.88v1.84Z" transform="translate(0.01 -21.92)"/><path class="cls-3" d="M40.73,87.65l.55.08a.52.52,0,0,0,.2.37.91.91,0,0,0,.58.16,1,1,0,0,0,.61-.16.76.76,0,0,0,.29-.44,3.12,3.12,0,0,0,0-.73,1.17,1.17,0,0,1-.93.44,1.27,1.27,0,0,1-1.07-.5,1.93,1.93,0,0,1-.39-1.21,2.21,2.21,0,0,1,.18-.89,1.39,1.39,0,0,1,.51-.63,1.42,1.42,0,0,1,.77-.22,1.22,1.22,0,0,1,1,.48V84h.53v2.91A2.9,2.9,0,0,1,43.43,88a1.22,1.22,0,0,1-.51.52,1.85,1.85,0,0,1-.86.19,1.59,1.59,0,0,1-1-.27A.93.93,0,0,1,40.73,87.65Zm.47-2a1.44,1.44,0,0,0,.27,1,.83.83,0,0,0,.66.3.85.85,0,0,0,.66-.3,1.46,1.46,0,0,0,.26-1,1.39,1.39,0,0,0-.27-.93.87.87,0,0,0-.66-.32.84.84,0,0,0-.65.31A1.38,1.38,0,0,0,41.2,85.62Z" transform="translate(0.01 -21.92)"/><path class="cls-3" d="M46.25,87.37V84h.51v.51a1.21,1.21,0,0,1,.37-.47.6.6,0,0,1,.36-.12,1.08,1.08,0,0,1,.59.19l-.2.53a.76.76,0,0,0-.42-.13.57.57,0,0,0-.33.11.68.68,0,0,0-.22.32,2.29,2.29,0,0,0-.09.66v1.77Z" transform="translate(0.01 -21.92)"/><path class="cls-3" d="M50.62,87a2.08,2.08,0,0,1-.61.38,1.67,1.67,0,0,1-.63.11,1.25,1.25,0,0,1-.86-.27.88.88,0,0,1-.29-.69.84.84,0,0,1,.11-.45.85.85,0,0,1,.29-.33,1.4,1.4,0,0,1,.41-.19,3.22,3.22,0,0,1,.51-.08,5.33,5.33,0,0,0,1-.2v-.15a.61.61,0,0,0-.16-.49,1.19,1.19,0,0,0-1.24,0,.83.83,0,0,0-.29.5L48.32,85a1.48,1.48,0,0,1,.25-.58,1.12,1.12,0,0,1,.51-.34,2.2,2.2,0,0,1,.76-.12,1.92,1.92,0,0,1,.7.1.9.9,0,0,1,.4.26.79.79,0,0,1,.18.39,2.94,2.94,0,0,1,0,.52V86a9.64,9.64,0,0,0,0,1,1.56,1.56,0,0,0,.15.41h-.6A1.29,1.29,0,0,1,50.62,87Zm0-1.27a4.67,4.67,0,0,1-.93.21,2,2,0,0,0-.5.12.52.52,0,0,0-.23.18.5.5,0,0,0-.08.27.46.46,0,0,0,.18.38.68.68,0,0,0,.5.16,1.15,1.15,0,0,0,.59-.15.89.89,0,0,0,.38-.39,1.41,1.41,0,0,0,.09-.57Z" transform="translate(0.01 -21.92)"/><path class="cls-3" d="M52,87.37V84h.52v.48a1.21,1.21,0,0,1,1.07-.56,1.47,1.47,0,0,1,.56.11.82.82,0,0,1,.38.29,1,1,0,0,1,.18.42,3.51,3.51,0,0,1,0,.56v2.07H54.2V85.32a1.63,1.63,0,0,0-.06-.52.6.6,0,0,0-.24-.28.77.77,0,0,0-.4-.1.91.91,0,0,0-.63.23,1.13,1.13,0,0,0-.26.88v1.84Z" transform="translate(0.01 -21.92)"/><path class="cls-3" d="M55.54,87.65l.56.08a.51.51,0,0,0,.19.37.93.93,0,0,0,.58.16,1,1,0,0,0,.62-.16.76.76,0,0,0,.29-.44,3.83,3.83,0,0,0,0-.73,1.18,1.18,0,0,1-.93.44,1.28,1.28,0,0,1-1.08-.5,2,2,0,0,1-.38-1.21,2.39,2.39,0,0,1,.17-.89,1.46,1.46,0,0,1,.51-.63,1.43,1.43,0,0,1,.78-.22,1.2,1.2,0,0,1,1,.48V84h.53v2.91A2.72,2.72,0,0,1,58.24,88a1.22,1.22,0,0,1-.51.52,1.81,1.81,0,0,1-.85.19,1.63,1.63,0,0,1-1-.27A1,1,0,0,1,55.54,87.65Zm.48-2a1.44,1.44,0,0,0,.26,1,.88.88,0,0,0,1.32,0,1.4,1.4,0,0,0,.27-1,1.34,1.34,0,0,0-.28-.93.84.84,0,0,0-.66-.32.86.86,0,0,0-.65.31A1.44,1.44,0,0,0,56,85.62Z" transform="translate(0.01 -21.92)"/><path class="cls-3" d="M61.57,86.28l.59.08a1.39,1.39,0,0,1-.52.8A1.76,1.76,0,0,1,59.51,87a1.77,1.77,0,0,1-.44-1.28,1.86,1.86,0,0,1,.44-1.32,1.49,1.49,0,0,1,1.14-.47,1.45,1.45,0,0,1,1.1.46,1.82,1.82,0,0,1,.43,1.3v.15H59.66a1.29,1.29,0,0,0,.32.85.91.91,0,0,0,.7.29.89.89,0,0,0,.54-.16A1.12,1.12,0,0,0,61.57,86.28Zm-1.87-.92h1.88a1.18,1.18,0,0,0-.22-.64.88.88,0,0,0-.71-.33.93.93,0,0,0-.66.26A1,1,0,0,0,59.7,85.36Z" transform="translate(0.01 -21.92)"/><rect class="繝後Μ_逋ｽ" x="20.88" y="97.56" width="41.46" height="16.58"/><path class="cls-3" d="M26.26,124.21l.61.16a2.08,2.08,0,0,1-.69,1.15,1.91,1.91,0,0,1-1.23.4,2.29,2.29,0,0,1-1.23-.3,1.92,1.92,0,0,1-.71-.89,3.07,3.07,0,0,1-.25-1.25,2.73,2.73,0,0,1,.28-1.27,1.9,1.9,0,0,1,.79-.82,2.28,2.28,0,0,1,1.13-.28,1.89,1.89,0,0,1,1.17.36,1.78,1.78,0,0,1,.66,1l-.6.14a1.46,1.46,0,0,0-.47-.74,1.31,1.31,0,0,0-.78-.23,1.44,1.44,0,0,0-.89.26,1.37,1.37,0,0,0-.51.69,2.64,2.64,0,0,0-.15.89,2.8,2.8,0,0,0,.18,1,1.27,1.27,0,0,0,.54.66,1.54,1.54,0,0,0,.79.22,1.31,1.31,0,0,0,.87-.3A1.58,1.58,0,0,0,26.26,124.21Z" transform="translate(0.01 -21.92)"/><path class="cls-3" d="M27.35,124.16a1.73,1.73,0,0,1,.52-1.39,1.56,1.56,0,0,1,1.06-.37,1.51,1.51,0,0,1,1.13.45,1.73,1.73,0,0,1,.44,1.26,2.21,2.21,0,0,1-.19,1,1.33,1.33,0,0,1-.57.58,1.63,1.63,0,0,1-.81.21,1.52,1.52,0,0,1-1.15-.45A1.83,1.83,0,0,1,27.35,124.16Zm.58,0a1.44,1.44,0,0,0,.29,1,.94.94,0,0,0,1.41,0,1.48,1.48,0,0,0,.29-1,1.4,1.4,0,0,0-.29-1,.94.94,0,0,0-1.41,0A1.42,1.42,0,0,0,27.93,124.16Z" transform="translate(0.01 -21.92)"/><path class="cls-3" d="M31.17,125.84v-3.37h.52V123a1.2,1.2,0,0,1,1.07-.55,1.3,1.3,0,0,1,.56.11.81.81,0,0,1,.38.28,1,1,0,0,1,.18.43,3.37,3.37,0,0,1,0,.55v2.07h-.57v-2a1.41,1.41,0,0,0-.07-.52A.57.57,0,0,0,33,123a.88.88,0,0,0-.4-.1,1,1,0,0,0-.63.23,1.14,1.14,0,0,0-.27.88v1.84Z" transform="translate(0.01 -21.92)"/><path class="cls-3" d="M36,125.33l.08.51a2.47,2.47,0,0,1-.43,0,1.09,1.09,0,0,1-.49-.1.6.6,0,0,1-.24-.26,2.24,2.24,0,0,1-.07-.67v-1.94h-.42v-.45h.42v-.83l.57-.34v1.17H36v.45h-.58v2a1,1,0,0,0,0,.31.18.18,0,0,0,.1.11.37.37,0,0,0,.2,0A1.29,1.29,0,0,0,36,125.33Z" transform="translate(0.01 -21.92)"/><path class="cls-3" d="M36.6,121.85v-.66h.57v.66Zm0,4v-3.37h.57v3.37Z" transform="translate(0.01 -21.92)"/><path class="cls-3" d="M38,125.84v-3.37h.51V123a1.22,1.22,0,0,1,1.08-.55,1.3,1.3,0,0,1,.56.11.86.86,0,0,1,.38.28,1.3,1.3,0,0,1,.18.43,3.37,3.37,0,0,1,0,.55v2.07h-.57v-2a1.66,1.66,0,0,0-.07-.52.54.54,0,0,0-.24-.28.82.82,0,0,0-.4-.1,1,1,0,0,0-.63.23,1.18,1.18,0,0,0-.26.88v1.84Z" transform="translate(0.01 -21.92)"/><path class="cls-3" d="M43.86,125.84v-.49a1.23,1.23,0,0,1-1.07.57,1.42,1.42,0,0,1-.55-.11,1,1,0,0,1-.39-.29,1.11,1.11,0,0,1-.17-.43,2.3,2.3,0,0,1,0-.53v-2.09h.57v1.87a2.79,2.79,0,0,0,0,.61.56.56,0,0,0,.23.35.67.67,0,0,0,.43.13,1,1,0,0,0,.48-.13.74.74,0,0,0,.32-.36,1.86,1.86,0,0,0,.09-.66v-1.81h.57v3.37Z" transform="translate(0.01 -21.92)"/><path class="cls-3" d="M45.06,124.16a1.73,1.73,0,0,1,.52-1.39,1.56,1.56,0,0,1,1.06-.37,1.51,1.51,0,0,1,1.13.45,1.73,1.73,0,0,1,.44,1.26,2.21,2.21,0,0,1-.19,1,1.33,1.33,0,0,1-.57.58,1.63,1.63,0,0,1-.81.21,1.52,1.52,0,0,1-1.15-.45A1.83,1.83,0,0,1,45.06,124.16Zm.58,0a1.44,1.44,0,0,0,.29,1,.94.94,0,0,0,1.41,0,1.48,1.48,0,0,0,.29-1,1.4,1.4,0,0,0-.29-1,.94.94,0,0,0-1.41,0A1.42,1.42,0,0,0,45.64,124.16Z" transform="translate(0.01 -21.92)"/><path class="cls-3" d="M51.09,125.84v-.49a1.23,1.23,0,0,1-1.07.57,1.42,1.42,0,0,1-.55-.11,1,1,0,0,1-.39-.29,1.11,1.11,0,0,1-.17-.43,2.3,2.3,0,0,1,0-.53v-2.09h.57v1.87a2.79,2.79,0,0,0,0,.61.56.56,0,0,0,.23.35.67.67,0,0,0,.43.13,1,1,0,0,0,.48-.13.74.74,0,0,0,.32-.36,1.86,1.86,0,0,0,.09-.66v-1.81h.57v3.37Z" transform="translate(0.01 -21.92)"/><path class="cls-3" d="M52.27,124.84l.56-.09a.8.8,0,0,0,.27.52.92.92,0,0,0,.61.18.87.87,0,0,0,.58-.16.47.47,0,0,0,.19-.38.32.32,0,0,0-.17-.3,2.06,2.06,0,0,0-.58-.19,5.22,5.22,0,0,1-.87-.28.83.83,0,0,1-.37-.32.89.89,0,0,1-.12-.45.87.87,0,0,1,.1-.42,1,1,0,0,1,.28-.32,1.21,1.21,0,0,1,.36-.16,1.63,1.63,0,0,1,.5-.07,1.85,1.85,0,0,1,.69.11,1,1,0,0,1,.45.31,1.18,1.18,0,0,1,.19.52l-.56.08a.62.62,0,0,0-.22-.41.84.84,0,0,0-.51-.14.91.91,0,0,0-.56.13.35.35,0,0,0-.17.3.29.29,0,0,0,.07.2.47.47,0,0,0,.22.15l.5.15c.41.11.69.2.85.26a.85.85,0,0,1,.37.3.88.88,0,0,1,.14.49,1,1,0,0,1-.17.54,1,1,0,0,1-.48.39,1.76,1.76,0,0,1-.71.14,1.59,1.59,0,0,1-1-.27A1.29,1.29,0,0,1,52.27,124.84Z" transform="translate(0.01 -21.92)"/><path class="cls-3" d="M22.86,133.64v-3.37h.51v.51a1.29,1.29,0,0,1,.37-.47.59.59,0,0,1,.36-.11,1.15,1.15,0,0,1,.59.18l-.2.53a.84.84,0,0,0-.42-.12.51.51,0,0,0-.33.11.65.65,0,0,0-.22.31,2.41,2.41,0,0,0-.09.67v1.76Z" transform="translate(0.01 -21.92)"/><path class="cls-3" d="M27.24,133.64v-.49a1.23,1.23,0,0,1-1.07.57,1.47,1.47,0,0,1-.56-.11.91.91,0,0,1-.56-.72,3.33,3.33,0,0,1,0-.53v-2.09h.57v1.87a4,4,0,0,0,0,.61.6.6,0,0,0,.23.35.69.69,0,0,0,.43.13,1.09,1.09,0,0,0,.49-.13.72.72,0,0,0,.31-.36,1.63,1.63,0,0,0,.1-.66v-1.81h.57v3.37Z" transform="translate(0.01 -21.92)"/><path class="cls-3" d="M28.64,133.64v-3.37h.52v.48a1.2,1.2,0,0,1,1.07-.55,1.3,1.3,0,0,1,.56.11.81.81,0,0,1,.38.28,1,1,0,0,1,.18.43,3.37,3.37,0,0,1,0,.55v2.07h-.57v-2a1.72,1.72,0,0,0-.06-.52.65.65,0,0,0-.24-.28.85.85,0,0,0-.4-.1,1,1,0,0,0-.63.23,1.14,1.14,0,0,0-.26.88v1.84Z" transform="translate(0.01 -21.92)"/><path class="cls-3" d="M32.26,133.64v-3.37h.51v.48a1.22,1.22,0,0,1,1.08-.55,1.3,1.3,0,0,1,.56.11.86.86,0,0,1,.38.28A1.3,1.3,0,0,1,35,131a3.37,3.37,0,0,1,0,.55v2.07h-.57v-2a1.66,1.66,0,0,0-.07-.52.54.54,0,0,0-.24-.28.81.81,0,0,0-.39-.1,1,1,0,0,0-.64.23,1.18,1.18,0,0,0-.26.88v1.84Z" transform="translate(0.01 -21.92)"/><path class="cls-3" d="M35.88,129.65V129h.57v.66Zm0,4v-3.37h.57v3.37Z" transform="translate(0.01 -21.92)"/><path class="cls-3" d="M37.32,133.64v-3.37h.51v.48a1.21,1.21,0,0,1,1.07-.55,1.35,1.35,0,0,1,.57.11.86.86,0,0,1,.38.28A1.3,1.3,0,0,1,40,131a3.37,3.37,0,0,1,0,.55v2.07h-.57v-2a1.66,1.66,0,0,0-.07-.52.59.59,0,0,0-.24-.28.82.82,0,0,0-.4-.1,1,1,0,0,0-.63.23,1.18,1.18,0,0,0-.26.88v1.84Z" transform="translate(0.01 -21.92)"/><path class="cls-3" d="M40.83,133.92l.55.09a.54.54,0,0,0,.2.37.91.91,0,0,0,.58.16,1,1,0,0,0,.61-.16.8.8,0,0,0,.29-.44,3.22,3.22,0,0,0,0-.74,1.15,1.15,0,0,1-.93.44,1.28,1.28,0,0,1-1.08-.5,1.93,1.93,0,0,1-.38-1.2,2.18,2.18,0,0,1,.18-.89,1.37,1.37,0,0,1,.5-.63,1.39,1.39,0,0,1,.78-.22,1.22,1.22,0,0,1,1,.48v-.41h.52v2.92a2.7,2.7,0,0,1-.16,1.11,1.14,1.14,0,0,1-.5.52,1.76,1.76,0,0,1-.86.19,1.59,1.59,0,0,1-1-.27A.91.91,0,0,1,40.83,133.92Zm.47-2a1.52,1.52,0,0,0,.26,1,.85.85,0,0,0,.66.3.83.83,0,0,0,.66-.3,1.79,1.79,0,0,0,0-1.89.86.86,0,0,0-.66-.31.81.81,0,0,0-.65.31A1.37,1.37,0,0,0,41.3,131.9Z" transform="translate(0.01 -21.92)"/><path class="cls-3" d="M46.35,133.64v-3.37h.51v.51a1.29,1.29,0,0,1,.37-.47.59.59,0,0,1,.36-.11,1.15,1.15,0,0,1,.59.18l-.2.53a.84.84,0,0,0-.42-.12.51.51,0,0,0-.33.11.65.65,0,0,0-.22.31,2.41,2.41,0,0,0-.09.67v1.76Z" transform="translate(0.01 -21.92)"/><path class="cls-3" d="M50.72,133.23a2.32,2.32,0,0,1-.61.38,1.9,1.9,0,0,1-.63.11,1.25,1.25,0,0,1-.86-.27.94.94,0,0,1-.18-1.15,1,1,0,0,1,.29-.33,1.38,1.38,0,0,1,.41-.18,4.57,4.57,0,0,1,.51-.09,4.65,4.65,0,0,0,1-.2v-.14a.64.64,0,0,0-.16-.5.94.94,0,0,0-.65-.19,1,1,0,0,0-.59.14.87.87,0,0,0-.29.5l-.56-.08a1.43,1.43,0,0,1,.25-.57,1,1,0,0,1,.51-.34,2.2,2.2,0,0,1,.76-.12,1.92,1.92,0,0,1,.7.1,1,1,0,0,1,.4.25.88.88,0,0,1,.18.39,3.16,3.16,0,0,1,0,.53v.76a9.89,9.89,0,0,0,0,1,1.49,1.49,0,0,0,.15.4h-.6A1.23,1.23,0,0,1,50.72,133.23Zm0-1.28a4,4,0,0,1-.93.22,2.12,2.12,0,0,0-.5.11.54.54,0,0,0-.23.19.5.5,0,0,0-.08.27.48.48,0,0,0,.18.38.73.73,0,0,0,.5.15,1.25,1.25,0,0,0,.59-.14.92.92,0,0,0,.38-.4,1.41,1.41,0,0,0,.09-.57Z" transform="translate(0.01 -21.92)"/><path class="cls-3" d="M52.13,133.64v-3.37h.52v.48a1.2,1.2,0,0,1,1.07-.55,1.3,1.3,0,0,1,.56.11.81.81,0,0,1,.38.28,1,1,0,0,1,.18.43,3.37,3.37,0,0,1,0,.55v2.07H54.3v-2a1.41,1.41,0,0,0-.07-.52.57.57,0,0,0-.23-.28.88.88,0,0,0-.4-.1,1,1,0,0,0-.63.23,1.14,1.14,0,0,0-.27.88v1.84Z" transform="translate(0.01 -21.92)"/><path class="cls-3" d="M55.64,133.92l.56.09a.53.53,0,0,0,.19.37.93.93,0,0,0,.58.16,1,1,0,0,0,.62-.16.8.8,0,0,0,.29-.44,4,4,0,0,0,0-.74,1.15,1.15,0,0,1-.93.44,1.25,1.25,0,0,1-1.08-.5,1.93,1.93,0,0,1-.38-1.2,2.35,2.35,0,0,1,.17-.89,1.46,1.46,0,0,1,.51-.63,1.35,1.35,0,0,1,.78-.22,1.19,1.19,0,0,1,1,.48v-.41h.53v2.92a2.7,2.7,0,0,1-.16,1.11,1.22,1.22,0,0,1-.51.52A1.7,1.7,0,0,1,57,135a1.63,1.63,0,0,1-1-.27A.93.93,0,0,1,55.64,133.92Zm.48-2a1.46,1.46,0,0,0,.26,1,.88.88,0,0,0,1.32,0,1.4,1.4,0,0,0,.27-1,1.35,1.35,0,0,0-.28-.94.85.85,0,0,0-1.31,0A1.42,1.42,0,0,0,56.12,131.9Z" transform="translate(0.01 -21.92)"/><path class="cls-3" d="M61.67,132.56l.59.07a1.36,1.36,0,0,1-.52.8,1.54,1.54,0,0,1-1,.29,1.51,1.51,0,0,1-1.17-.46,1.77,1.77,0,0,1-.44-1.27,1.86,1.86,0,0,1,.44-1.32,1.46,1.46,0,0,1,1.14-.47,1.41,1.41,0,0,1,1.1.46,1.8,1.8,0,0,1,.43,1.29v.15H59.76a1.27,1.27,0,0,0,.32.85.92.92,0,0,0,.7.3.89.89,0,0,0,.54-.17A1,1,0,0,0,61.67,132.56Zm-1.87-.93h1.88a1.14,1.14,0,0,0-.22-.63.88.88,0,0,0-.71-.33.89.89,0,0,0-.66.26A1,1,0,0,0,59.8,131.63Z" transform="translate(0.01 -21.92)"/><path class="cls-3" d="M44.76,150.56l.58-.05a1.32,1.32,0,0,0,.19.57,1,1,0,0,0,.47.36,1.8,1.8,0,0,0,.71.14,1.73,1.73,0,0,0,.63-.11.87.87,0,0,0,.4-.28.76.76,0,0,0,.13-.4.59.59,0,0,0-.13-.39.92.92,0,0,0-.42-.27c-.12,0-.4-.12-.83-.23a4.15,4.15,0,0,1-.89-.29,1.19,1.19,0,0,1-.5-.43,1.06,1.06,0,0,1-.16-.58,1.16,1.16,0,0,1,.2-.66,1.18,1.18,0,0,1,.58-.46,2.15,2.15,0,0,1,.85-.16,2.4,2.4,0,0,1,.92.16,1.35,1.35,0,0,1,.6.5,1.32,1.32,0,0,1,.23.73l-.59,0a1,1,0,0,0-.32-.66,1.24,1.24,0,0,0-.81-.23,1.27,1.27,0,0,0-.81.21.58.58,0,0,0-.26.49.52.52,0,0,0,.18.41,2.39,2.39,0,0,0,.93.33,7.58,7.58,0,0,1,1,.3,1.47,1.47,0,0,1,.6.47,1.19,1.19,0,0,1,.19.67,1.3,1.3,0,0,1-.21.7,1.4,1.4,0,0,1-.61.51,2.19,2.19,0,0,1-.9.18,2.76,2.76,0,0,1-1.06-.18,1.59,1.59,0,0,1-.67-.56A1.56,1.56,0,0,1,44.76,150.56Z" transform="translate(0.01 -21.92)"/><path class="cls-3" d="M49.23,153.34v-4.66h.52v.44a1.29,1.29,0,0,1,.42-.39,1.19,1.19,0,0,1,.56-.13,1.31,1.31,0,0,1,.76.23,1.29,1.29,0,0,1,.5.62,2.35,2.35,0,0,1,.17.89,2.15,2.15,0,0,1-.19.93,1.36,1.36,0,0,1-.54.64,1.42,1.42,0,0,1-.74.22,1.14,1.14,0,0,1-.52-.12,1.25,1.25,0,0,1-.37-.31v1.64Zm.52-3a1.52,1.52,0,0,0,.26,1,.82.82,0,0,0,1.29,0,2,2,0,0,0,0-2,.82.82,0,0,0-.64-.32.84.84,0,0,0-.64.34A1.52,1.52,0,0,0,49.75,150.38Z" transform="translate(0.01 -21.92)"/><path class="cls-3" d="M55.15,151l.59.07a1.43,1.43,0,0,1-.51.8,1.6,1.6,0,0,1-1,.29,1.52,1.52,0,0,1-1.17-.46,1.77,1.77,0,0,1-.44-1.28,1.9,1.9,0,0,1,.44-1.32,1.49,1.49,0,0,1,1.14-.47,1.45,1.45,0,0,1,1.1.46,1.82,1.82,0,0,1,.43,1.3v.15H53.25a1.26,1.26,0,0,0,.31.85.92.92,0,0,0,.7.3.89.89,0,0,0,.54-.17A1,1,0,0,0,55.15,151ZM53.28,150h1.88a1.21,1.21,0,0,0-.22-.64.86.86,0,0,0-.7-.33.9.9,0,0,0-.67.27A1.07,1.07,0,0,0,53.28,150Z" transform="translate(0.01 -21.92)"/><path class="cls-3" d="M58.77,151l.59.07a1.5,1.5,0,0,1-.52.8,1.74,1.74,0,0,1-2.14-.17,1.77,1.77,0,0,1-.43-1.28,1.9,1.9,0,0,1,.44-1.32,1.58,1.58,0,0,1,2.24,0,1.87,1.87,0,0,1,.43,1.3,1,1,0,0,1,0,.15H56.86a1.32,1.32,0,0,0,.31.85.94.94,0,0,0,.71.3.89.89,0,0,0,.54-.17A1.16,1.16,0,0,0,58.77,151ZM56.89,150h1.88a1.13,1.13,0,0,0-.21-.64.88.88,0,0,0-.71-.33.9.9,0,0,0-.66.27A1,1,0,0,0,56.89,150Z" transform="translate(0.01 -21.92)"/><path class="cls-3" d="M62.26,152.05v-.42a1.05,1.05,0,0,1-.94.5,1.3,1.3,0,0,1-.74-.23,1.41,1.41,0,0,1-.53-.62,2.17,2.17,0,0,1-.18-.91,2.29,2.29,0,0,1,.17-.92,1.37,1.37,0,0,1,.5-.63,1.43,1.43,0,0,1,.75-.22,1.21,1.21,0,0,1,.55.13,1.14,1.14,0,0,1,.38.34V147.4h.57v4.65Zm-1.8-1.68a1.5,1.5,0,0,0,.27,1,.83.83,0,0,0,.64.32.81.81,0,0,0,.64-.31,1.41,1.41,0,0,0,.26-.93,1.58,1.58,0,0,0-.27-1,.82.82,0,0,0-1.29,0A1.54,1.54,0,0,0,60.46,150.37Z" transform="translate(0.01 -21.92)"/><path class="cls-3" d="M65.51,153.34V147.4h1.26v.47h-.69v5h.69v.47Z" transform="translate(0.01 -21.92)"/><path class="cls-3" d="M67.3,152.05v-3.37h.51v.51a1.31,1.31,0,0,1,.36-.47.63.63,0,0,1,.37-.12,1.17,1.17,0,0,1,.59.19l-.2.53a.86.86,0,0,0-.42-.13.54.54,0,0,0-.34.12.64.64,0,0,0-.21.31,2.31,2.31,0,0,0-.09.67v1.76Z" transform="translate(0.01 -21.92)"/><path class="cls-3" d="M69,152.13l1.35-4.81h.45l-1.34,4.81Z" transform="translate(0.01 -21.92)"/><path class="cls-3" d="M71.27,152.05v-3.37h.51v.47a1.38,1.38,0,0,1,.43-.4,1.26,1.26,0,0,1,1.21,0,.86.86,0,0,1,.34.43,1.2,1.2,0,0,1,1-.59,1.05,1.05,0,0,1,.77.28,1.2,1.2,0,0,1,.27.86v2.31h-.57v-2.12a1.91,1.91,0,0,0,0-.5.49.49,0,0,0-.21-.24.62.62,0,0,0-.34-.09.79.79,0,0,0-.59.24,1,1,0,0,0-.23.75v2h-.57v-2.19a1,1,0,0,0-.14-.57.54.54,0,0,0-.46-.19.81.81,0,0,0-.45.13.69.69,0,0,0-.29.37,1.85,1.85,0,0,0-.1.7v1.75Z" transform="translate(0.01 -21.92)"/><path class="cls-3" d="M76.69,148.05v-.65h.57v.65Zm0,4v-3.37h.57v3.37Z" transform="translate(0.01 -21.92)"/><path class="cls-3" d="M78.13,152.05v-3.37h.52v.48a1.2,1.2,0,0,1,1.07-.56,1.47,1.47,0,0,1,.56.11.89.89,0,0,1,.38.29,1.14,1.14,0,0,1,.18.42,3.51,3.51,0,0,1,0,.56v2.07H80.3V150a1.38,1.38,0,0,0-.07-.52.53.53,0,0,0-.23-.28.77.77,0,0,0-.4-.1.92.92,0,0,0-.63.23,1.14,1.14,0,0,0-.27.88v1.84Z" transform="translate(0.01 -21.92)"/><path class="cls-3" d="M82.7,153.34H81.44v-.47h.69v-5h-.69v-.47H82.7Z" transform="translate(0.01 -21.92)"/></g></svg>