<svg xmlns="http://www.w3.org/2000/svg" viewBox="0 0 116.59 131.42"><defs><style>.cls-1,.cls-2,.cls-3,.cls-4,.cls-5,.cls-6,.繝医Ν繧ｯ繧ｰ繝ｩ繝廟繧ｰ繝ｬ繝ｼ邱,.邱喟0\.5pt-4{fill:none;}.cls-1,.cls-4,.cls-5,.邱喟0\.5pt-4{stroke:#231815;}.cls-1{stroke-linejoin:round;stroke-width:0.14px;}.cls-2,.cls-3,.cls-6,.繝医Ν繧ｯ繧ｰ繝ｩ繝廟繧ｰ繝ｬ繝ｼ邱{stroke:#9fa0a0;}.cls-2,.cls-3,.cls-4,.邱喟0\.5pt-4{stroke-miterlimit:10;}.cls-3{stroke-dasharray:2.59 1.25;}.cls-4{stroke-width:0.14px;}.cls-6,.繝医Ν繧ｯ繧ｰ繝ｩ繝廟繧ｰ繝ｬ繝ｼ邱{stroke-width:3px;}.cls-6{stroke-linecap:square;}.cls-7{fill:#231815;}.繝後Μ_逋ｽ{fill:#fff;}.邱喟0\.5pt-4{stroke-width:0.5px;}</style></defs><g id="Illust"><line class="cls-1" x1="45.52" y1="2.18" x2="45.52" y2="115.56"/><line class="cls-1" x1="72.59" y1="2.18" x2="72.59" y2="115.56"/><line class="cls-1" x1="99.67" y1="2.18" x2="99.67" y2="115.56"/><line class="cls-2" x1="92.14" y1="103.62" x2="92.14" y2="105.17"/><line class="cls-3" x1="92.14" y1="106.43" x2="92.14" y2="113.49"/><line class="cls-2" x1="92.14" y1="114.12" x2="92.14" y2="115.67"/><line class="cls-4" x1="18.44" y1="39.97" x2="109.15" y2="39.97"/><line class="cls-4" x1="18.44" y1="21.07" x2="109.15" y2="21.07"/><line class="cls-4" x1="18.44" y1="58.87" x2="109.15" y2="58.87"/><line class="cls-4" x1="18.44" y1="77.77" x2="109.15" y2="77.77"/><line class="cls-4" x1="18.44" y1="96.66" x2="109.15" y2="96.66"/><polyline class="繝医Ν繧ｯ繧ｰ繝ｩ繝廟繧ｰ繝ｬ繝ｼ邱" points="18.44 93.02 31.9 93.02 45.37 93.02 58.83 93.02 72.3 98.64 85.76 102.06 99.23 104.32 109.15 105.47"/><polyline class="cls-5" points="18.44 93.02 31.9 93.02 45.37 93.02 58.83 93.02 72.3 98.64 85.76 102.06 99.23 104.32 109.15 105.47"/><polyline class="cls-6" points="18.44 14.08 52.1 14.08 109.63 76.45"/><path class="cls-7" d="M17.24,141.38a3.52,3.52,0,0,1,.13-1,1.28,1.28,0,0,1,.39-.59,1.14,1.14,0,0,1,1.15-.1.9.9,0,0,1,.36.34,1.73,1.73,0,0,1,.23.53,3.72,3.72,0,0,1,.08.84,3.52,3.52,0,0,1-.13,1,1.31,1.31,0,0,1-.39.6,1,1,0,0,1-.65.21,1,1,0,0,1-.81-.37A2.33,2.33,0,0,1,17.24,141.38Zm.45,0a2.25,2.25,0,0,0,.21,1.18.59.59,0,0,0,1,0,2.27,2.27,0,0,0,.2-1.18,2.2,2.2,0,0,0-.2-1.17.63.63,0,0,0-.52-.29.54.54,0,0,0-.48.26A2.24,2.24,0,0,0,17.69,141.38Z" transform="translate(0.01 -21.92)"/><path class="cls-7" d="M108.19,140.45l-.44,0a.8.8,0,0,0-.17-.37.56.56,0,0,0-.44-.19.67.67,0,0,0-.37.11,1.11,1.11,0,0,0-.32.45,2.41,2.41,0,0,0-.13.82,1.11,1.11,0,0,1,.39-.36,1.13,1.13,0,0,1,.48-.11,1,1,0,0,1,.75.32,1.16,1.16,0,0,1,.31.84,1.32,1.32,0,0,1-.15.62,1,1,0,0,1-.4.45,1.08,1.08,0,0,1-.57.15,1.12,1.12,0,0,1-.9-.4,2.07,2.07,0,0,1-.34-1.34,2.33,2.33,0,0,1,.38-1.5,1.08,1.08,0,0,1,.9-.41,1,1,0,0,1,.69.23A1,1,0,0,1,108.19,140.45Zm-1.8,1.54a.91.91,0,0,0,.1.43.7.7,0,0,0,.63.43.62.62,0,0,0,.48-.23.9.9,0,0,0,.2-.61.83.83,0,0,0-.2-.58.66.66,0,0,0-.5-.21.69.69,0,0,0-.5.21A.76.76,0,0,0,106.39,142Z" transform="translate(0.01 -21.92)"/><path class="cls-7" d="M108.72,140v-.42H111V140a4.77,4.77,0,0,0-.68,1,5.79,5.79,0,0,0-.51,1.24,4.08,4.08,0,0,0-.17,1h-.45a4.4,4.4,0,0,1,.16-1,5.42,5.42,0,0,1,.46-1.15,5.11,5.11,0,0,1,.63-.94Z" transform="translate(0.01 -21.92)"/><path class="cls-7" d="M111.47,141.38a3.2,3.2,0,0,1,.13-1,1.14,1.14,0,0,1,.39-.59,1,1,0,0,1,.64-.21,1,1,0,0,1,.51.11,1.06,1.06,0,0,1,.36.34,1.73,1.73,0,0,1,.22.53,3.72,3.72,0,0,1,.08.84,3.2,3.2,0,0,1-.13,1,1.22,1.22,0,0,1-.38.6,1,1,0,0,1-.66.21,1,1,0,0,1-.81-.37A2.41,2.41,0,0,1,111.47,141.38Zm.45,0a2.38,2.38,0,0,0,.2,1.18.62.62,0,0,0,.51.29.6.6,0,0,0,.51-.29,2.25,2.25,0,0,0,.21-1.18,2.18,2.18,0,0,0-.21-1.17.61.61,0,0,0-.51-.29.54.54,0,0,0-.48.26A2.15,2.15,0,0,0,111.92,141.38Z" transform="translate(0.01 -21.92)"/><path class="cls-7" d="M114.25,141.38a3.2,3.2,0,0,1,.13-1,1.28,1.28,0,0,1,.39-.59,1,1,0,0,1,.64-.21,1,1,0,0,1,.51.11,1,1,0,0,1,.36.34,1.73,1.73,0,0,1,.22.53,4.23,4.23,0,0,1,0,1.86,1.22,1.22,0,0,1-.38.6,1,1,0,0,1-.66.21,1,1,0,0,1-.81-.37A2.41,2.41,0,0,1,114.25,141.38Zm.45,0a2.25,2.25,0,0,0,.21,1.18.58.58,0,0,0,1,0,2.25,2.25,0,0,0,.21-1.18,2.18,2.18,0,0,0-.21-1.17.6.6,0,0,0-.51-.29.54.54,0,0,0-.48.26A2.24,2.24,0,0,0,114.7,141.38Z" transform="translate(0.01 -21.92)"/><polyline class="cls-5" points="18.44 14.08 45.32 14.08 109.63 83.01"/><rect class="繝後Μ_逋ｽ" x="109.15" y="2.18" width="2.83" height="113.39"/><rect class="繝後Μ_逋ｽ" x="15.6" y="2.18" width="2.83" height="113.39"/><path class="cls-7" d="M10.27,137.13a3.2,3.2,0,0,1,.13-1,1.22,1.22,0,0,1,.38-.6,1,1,0,0,1,.65-.21,1.07,1.07,0,0,1,.51.12,1.13,1.13,0,0,1,.36.33,2.25,2.25,0,0,1,.22.54,3.72,3.72,0,0,1,.08.84,3.2,3.2,0,0,1-.13,1,1.31,1.31,0,0,1-.39.6,1,1,0,0,1-.65.21,1,1,0,0,1-.81-.37A2.36,2.36,0,0,1,10.27,137.13Zm.45,0a2.38,2.38,0,0,0,.2,1.18.62.62,0,0,0,.51.29.61.61,0,0,0,.51-.3,3.36,3.36,0,0,0,0-2.34.6.6,0,0,0-.51-.29.57.57,0,0,0-.49.25A2.3,2.3,0,0,0,10.72,137.13Z" transform="translate(0.01 -21.92)"/><path class="cls-7" d="M13.29,138.9v-.5h.5v.5Z" transform="translate(0.01 -21.92)"/><path class="cls-7" d="M14.43,137.13a3.17,3.17,0,0,1,.14-1,1.22,1.22,0,0,1,.38-.6,1,1,0,0,1,.65-.21,1.07,1.07,0,0,1,.51.12,1.13,1.13,0,0,1,.36.33,2.25,2.25,0,0,1,.22.54,3.72,3.72,0,0,1,.08.84,3.2,3.2,0,0,1-.13,1,1.31,1.31,0,0,1-.39.6,1,1,0,0,1-.65.21,1,1,0,0,1-.81-.37A2.35,2.35,0,0,1,14.43,137.13Zm.46,0a2.38,2.38,0,0,0,.2,1.18.62.62,0,0,0,.51.29.61.61,0,0,0,.51-.3,3.36,3.36,0,0,0,0-2.34.6.6,0,0,0-.51-.29.57.57,0,0,0-.49.25A2.3,2.3,0,0,0,14.89,137.13Z" transform="translate(0.01 -21.92)"/><path class="cls-7" d="M12.57,119.58V120H10.21a.81.81,0,0,1,0-.31,1.71,1.71,0,0,1,.29-.47,3.81,3.81,0,0,1,.57-.54,4.48,4.48,0,0,0,.79-.76.9.9,0,0,0,.21-.53.58.58,0,0,0-.19-.44.67.67,0,0,0-.49-.18.65.65,0,0,0-.5.19.75.75,0,0,0-.2.53l-.45,0a1.12,1.12,0,0,1,.35-.77,1.16,1.16,0,0,1,.81-.26,1.13,1.13,0,0,1,.82.28.94.94,0,0,1,.3.71,1.06,1.06,0,0,1-.09.42,1.51,1.51,0,0,1-.29.44,8.11,8.11,0,0,1-.68.63l-.51.45a1.88,1.88,0,0,0-.18.24Z" transform="translate(0.01 -21.92)"/><path class="cls-7" d="M13.29,120v-.5h.5v.5Z" transform="translate(0.01 -21.92)"/><path class="cls-7" d="M14.43,118.23a3.17,3.17,0,0,1,.14-1,1.24,1.24,0,0,1,.38-.59,1,1,0,0,1,.65-.21.95.95,0,0,1,.87.45,2,2,0,0,1,.22.53,3.72,3.72,0,0,1,.08.84,3.2,3.2,0,0,1-.13,1,1.31,1.31,0,0,1-.39.6,1,1,0,0,1-.65.21,1,1,0,0,1-.81-.37A2.33,2.33,0,0,1,14.43,118.23Zm.46,0a2.38,2.38,0,0,0,.2,1.18.59.59,0,0,0,1,0,2.25,2.25,0,0,0,.21-1.18,2.2,2.2,0,0,0-.21-1.17.62.62,0,0,0-.51-.29.58.58,0,0,0-.49.26A2.26,2.26,0,0,0,14.89,118.23Z" transform="translate(0.01 -21.92)"/><path class="cls-7" d="M11.67,101.1v-.85H10.12v-.41l1.63-2.32h.36v2.32h.49v.41h-.49v.85Zm0-1.26V98.23l-1.12,1.61Z" transform="translate(0.01 -21.92)"/><path class="cls-7" d="M13.29,101.1v-.5h.5v.5Z" transform="translate(0.01 -21.92)"/><path class="cls-7" d="M14.43,99.34a3.09,3.09,0,0,1,.14-1,1.22,1.22,0,0,1,.38-.6,1,1,0,0,1,.65-.21,1.07,1.07,0,0,1,.51.12.94.94,0,0,1,.36.33,2.17,2.17,0,0,1,.22.53,3.76,3.76,0,0,1,.08.85,3.09,3.09,0,0,1-.13,1,1.31,1.31,0,0,1-.39.6,1,1,0,0,1-.65.21,1,1,0,0,1-.81-.37A2.32,2.32,0,0,1,14.43,99.34Zm.46,0a2.34,2.34,0,0,0,.2,1.17.6.6,0,0,0,.51.29.62.62,0,0,0,.51-.29,3.39,3.39,0,0,0,0-2.35.62.62,0,0,0-.51-.29.58.58,0,0,0-.49.26A2.3,2.3,0,0,0,14.89,99.34Z" transform="translate(0.01 -21.92)"/><path class="cls-7" d="M12.55,79.5l-.44,0a.84.84,0,0,0-.17-.38A.56.56,0,0,0,11.5,79a.61.61,0,0,0-.37.12,1.07,1.07,0,0,0-.32.44,2.43,2.43,0,0,0-.13.83,1.11,1.11,0,0,1,.39-.36,1,1,0,0,1,1.23.21,1.12,1.12,0,0,1,.31.83,1.33,1.33,0,0,1-.15.63,1,1,0,0,1-.4.44,1.11,1.11,0,0,1-.57.16,1.13,1.13,0,0,1-.9-.41,2,2,0,0,1-.34-1.33A2.36,2.36,0,0,1,10.63,79a1.1,1.1,0,0,1,.9-.41,1,1,0,0,1,1,.89ZM10.75,81a1,1,0,0,0,.1.44.63.63,0,0,0,.27.31.59.59,0,0,0,.36.11.61.61,0,0,0,.48-.22.9.9,0,0,0,.2-.61.86.86,0,0,0-.2-.59.66.66,0,0,0-.5-.21.69.69,0,0,0-.5.21A.78.78,0,0,0,10.75,81Z" transform="translate(0.01 -21.92)"/><path class="cls-7" d="M13.29,82.2v-.5h.5v.5Z" transform="translate(0.01 -21.92)"/><path class="cls-7" d="M14.43,80.44a3.17,3.17,0,0,1,.14-1,1.22,1.22,0,0,1,.38-.6,1,1,0,0,1,.65-.21,1.07,1.07,0,0,1,.51.12,1,1,0,0,1,.36.33,2.17,2.17,0,0,1,.22.53,3.76,3.76,0,0,1,.08.85,3.2,3.2,0,0,1-.13,1,1.33,1.33,0,0,1-.39.59,1,1,0,0,1-.65.22,1,1,0,0,1-.81-.38A2.3,2.3,0,0,1,14.43,80.44Zm.46,0a2.31,2.31,0,0,0,.2,1.17.59.59,0,0,0,1,0,2.2,2.2,0,0,0,.21-1.17,2.25,2.25,0,0,0-.21-1.18A.62.62,0,0,0,15.6,79a.58.58,0,0,0-.49.26A2.3,2.3,0,0,0,14.89,80.44Z" transform="translate(0.01 -21.92)"/><path class="cls-7" d="M10.94,61.37a.83.83,0,0,1-.4-.29.72.72,0,0,1-.14-.44.91.91,0,0,1,.28-.66,1,1,0,0,1,.75-.27,1,1,0,0,1,.76.28.87.87,0,0,1,.28.66.71.71,0,0,1-.13.43.89.89,0,0,1-.4.29.89.89,0,0,1,.68.91,1,1,0,0,1-.33.78,1.32,1.32,0,0,1-1.71,0,1.06,1.06,0,0,1-.32-.78.91.91,0,0,1,.18-.58A.83.83,0,0,1,10.94,61.37Zm-.23.9a.81.81,0,0,0,.09.37.64.64,0,0,0,.27.27.79.79,0,0,0,.37.1A.69.69,0,0,0,12,62.8a.66.66,0,0,0,.21-.51.72.72,0,0,0-.21-.53.76.76,0,0,0-.53-.2.66.66,0,0,0-.51.2A.69.69,0,0,0,10.71,62.27Zm.14-1.65A.57.57,0,0,0,11,61a.63.63,0,0,0,.84,0,.53.53,0,0,0,.16-.39.55.55,0,0,0-.17-.41.57.57,0,0,0-.41-.17.57.57,0,0,0-.42.17A.5.5,0,0,0,10.85,60.62Z" transform="translate(0.01 -21.92)"/><path class="cls-7" d="M13.29,63.31v-.5h.5v.5Z" transform="translate(0.01 -21.92)"/><path class="cls-7" d="M14.43,61.54a3.17,3.17,0,0,1,.14-1,1.22,1.22,0,0,1,.38-.6,1,1,0,0,1,.65-.21,1.07,1.07,0,0,1,.51.12,1.13,1.13,0,0,1,.36.33,2.25,2.25,0,0,1,.22.54,3.66,3.66,0,0,1,.08.84,3.2,3.2,0,0,1-.13,1,1.31,1.31,0,0,1-.39.6,1,1,0,0,1-.65.21,1,1,0,0,1-.81-.37A2.35,2.35,0,0,1,14.43,61.54Zm.46,0a2.31,2.31,0,0,0,.2,1.17.58.58,0,0,0,1,0,3.36,3.36,0,0,0,0-2.34.6.6,0,0,0-.51-.29.57.57,0,0,0-.49.25A2.3,2.3,0,0,0,14.89,61.54Z" transform="translate(0.01 -21.92)"/><path class="cls-7" d="M9.14,44.41H8.7v-2.8a2.54,2.54,0,0,1-.42.3,2.81,2.81,0,0,1-.46.23v-.43a2.42,2.42,0,0,0,.65-.42,1.76,1.76,0,0,0,.39-.47h.28Z" transform="translate(0.01 -21.92)"/><path class="cls-7" d="M10.26,42.64a3.52,3.52,0,0,1,.13-1,1.28,1.28,0,0,1,.39-.59,1,1,0,0,1,.65-.21.95.95,0,0,1,.87.45,2,2,0,0,1,.22.53,3.72,3.72,0,0,1,.08.84,3.2,3.2,0,0,1-.13,1,1.31,1.31,0,0,1-.39.6,1,1,0,0,1-.65.21,1,1,0,0,1-.81-.37A2.33,2.33,0,0,1,10.26,42.64Zm.46,0a2.38,2.38,0,0,0,.2,1.18.59.59,0,0,0,1,0,2.25,2.25,0,0,0,.21-1.18,2.18,2.18,0,0,0-.21-1.17.62.62,0,0,0-.51-.29.55.55,0,0,0-.49.26A2.26,2.26,0,0,0,10.72,42.64Z" transform="translate(0.01 -21.92)"/><path class="cls-7" d="M13.29,44.41v-.5h.5v.5Z" transform="translate(0.01 -21.92)"/><path class="cls-7" d="M14.43,42.64a3.52,3.52,0,0,1,.13-1A1.28,1.28,0,0,1,15,41a1,1,0,0,1,.65-.21.95.95,0,0,1,.87.45,2,2,0,0,1,.22.53,3.72,3.72,0,0,1,.08.84,3.2,3.2,0,0,1-.13,1,1.31,1.31,0,0,1-.39.6,1,1,0,0,1-.65.21,1,1,0,0,1-.81-.37A2.33,2.33,0,0,1,14.43,42.64Zm.46,0a2.27,2.27,0,0,0,.2,1.18.59.59,0,0,0,1,0,2.25,2.25,0,0,0,.21-1.18,2.18,2.18,0,0,0-.21-1.17.62.62,0,0,0-.51-.29.55.55,0,0,0-.49.26A2.26,2.26,0,0,0,14.89,42.64Z" transform="translate(0.01 -21.92)"/><path class="cls-7" d="M9.14,25.51H8.7v-2.8a2.18,2.18,0,0,1-.42.3,2.18,2.18,0,0,1-.46.23v-.42a3,3,0,0,0,.65-.42,2,2,0,0,0,.39-.48h.28Z" transform="translate(0.01 -21.92)"/><path class="cls-7" d="M12.57,25.09v.42H10.21a.76.76,0,0,1,0-.3,1.76,1.76,0,0,1,.29-.48,3.81,3.81,0,0,1,.57-.54,4.48,4.48,0,0,0,.79-.76.9.9,0,0,0,.21-.53.58.58,0,0,0-.19-.44.67.67,0,0,0-.49-.18.69.69,0,0,0-.5.19.75.75,0,0,0-.2.53L10.29,23a1.14,1.14,0,0,1,.35-.77,1.21,1.21,0,0,1,.81-.26,1.13,1.13,0,0,1,.82.28.94.94,0,0,1,.3.71,1,1,0,0,1-.09.42,1.51,1.51,0,0,1-.29.44,8.11,8.11,0,0,1-.68.63l-.51.45a1.88,1.88,0,0,0-.18.24Z" transform="translate(0.01 -21.92)"/><path class="cls-7" d="M13.29,25.51V25h.5v.5Z" transform="translate(0.01 -21.92)"/><path class="cls-7" d="M14.43,23.75a3.19,3.19,0,0,1,.14-1,1.24,1.24,0,0,1,.38-.59,1,1,0,0,1,.65-.21,1.19,1.19,0,0,1,.51.11,1.06,1.06,0,0,1,.36.34,2,2,0,0,1,.22.53,3.76,3.76,0,0,1,.08.85,3.09,3.09,0,0,1-.13,1,1.31,1.31,0,0,1-.39.6,1,1,0,0,1-.65.21,1,1,0,0,1-.81-.37A2.32,2.32,0,0,1,14.43,23.75Zm.46,0a2.34,2.34,0,0,0,.2,1.17.59.59,0,0,0,1,0,2.23,2.23,0,0,0,.21-1.17,2.25,2.25,0,0,0-.21-1.18.62.62,0,0,0-.51-.29.58.58,0,0,0-.49.26A2.3,2.3,0,0,0,14.89,23.75Z" transform="translate(0.01 -21.92)"/><path class="cls-7" d="M42.3,142.73v.42H39.93a.81.81,0,0,1,.06-.31,1.4,1.4,0,0,1,.29-.47,3.81,3.81,0,0,1,.57-.54,5.35,5.35,0,0,0,.79-.76.88.88,0,0,0,.2-.53.6.6,0,0,0-.18-.44.77.77,0,0,0-1,0,.74.74,0,0,0-.19.53l-.45,0a1.12,1.12,0,0,1,.35-.77,1.37,1.37,0,0,1,1.63,0,.94.94,0,0,1,.3.71,1.06,1.06,0,0,1-.09.42,1.75,1.75,0,0,1-.29.44c-.14.15-.37.36-.68.63s-.43.37-.51.45a1.25,1.25,0,0,0-.18.24Z" transform="translate(0.01 -21.92)"/><path class="cls-7" d="M42.8,141.38a3.52,3.52,0,0,1,.13-1,1.33,1.33,0,0,1,.39-.59,1.14,1.14,0,0,1,1.15-.1.9.9,0,0,1,.36.34,1.73,1.73,0,0,1,.23.53,3.72,3.72,0,0,1,.08.84,3.52,3.52,0,0,1-.13,1,1.31,1.31,0,0,1-.39.6,1,1,0,0,1-.65.21,1,1,0,0,1-.81-.37A2.33,2.33,0,0,1,42.8,141.38Zm.45,0a2.25,2.25,0,0,0,.21,1.18.59.59,0,0,0,1,0,2.27,2.27,0,0,0,.2-1.18,2.23,2.23,0,0,0-.2-1.17.63.63,0,0,0-.52-.29.56.56,0,0,0-.48.26A2.24,2.24,0,0,0,43.25,141.38Z" transform="translate(0.01 -21.92)"/><path class="cls-7" d="M45.55,141.38a3.52,3.52,0,0,1,.13-1,1.33,1.33,0,0,1,.39-.59,1.14,1.14,0,0,1,1.15-.1.9.9,0,0,1,.36.34,1.73,1.73,0,0,1,.23.53,3.72,3.72,0,0,1,.08.84,3.52,3.52,0,0,1-.13,1,1.31,1.31,0,0,1-.39.6,1,1,0,0,1-.65.21,1,1,0,0,1-.81-.37A2.33,2.33,0,0,1,45.55,141.38Zm.45,0a2.25,2.25,0,0,0,.21,1.18.59.59,0,0,0,1,0,2.27,2.27,0,0,0,.2-1.18,2.23,2.23,0,0,0-.2-1.17.63.63,0,0,0-.52-.29.56.56,0,0,0-.48.26A2.24,2.24,0,0,0,46,141.38Z" transform="translate(0.01 -21.92)"/><path class="cls-7" d="M48.36,141.38a3.52,3.52,0,0,1,.13-1,1.33,1.33,0,0,1,.39-.59,1,1,0,0,1,.65-.21,1.06,1.06,0,0,1,.51.11,1,1,0,0,1,.35.34,1.73,1.73,0,0,1,.23.53,3.72,3.72,0,0,1,.08.84,3.52,3.52,0,0,1-.13,1,1.31,1.31,0,0,1-.39.6,1,1,0,0,1-.65.21,1,1,0,0,1-.81-.37A2.33,2.33,0,0,1,48.36,141.38Zm.45,0a2.25,2.25,0,0,0,.21,1.18.59.59,0,0,0,1,0,2.25,2.25,0,0,0,.21-1.18,2.2,2.2,0,0,0-.21-1.17.62.62,0,0,0-.51-.29.57.57,0,0,0-.49.26A2.24,2.24,0,0,0,48.81,141.38Z" transform="translate(0.01 -21.92)"/><path class="cls-7" d="M68.34,143.15v-.86H66.79v-.4l1.63-2.32h.36v2.32h.49v.4h-.49v.86Zm0-1.26v-1.61l-1.12,1.61Z" transform="translate(0.01 -21.92)"/><path class="cls-7" d="M69.75,141.38a3.2,3.2,0,0,1,.13-1,1.18,1.18,0,0,1,.39-.59,1,1,0,0,1,.64-.21.95.95,0,0,1,.87.45,1.73,1.73,0,0,1,.22.53,3.72,3.72,0,0,1,.08.84,3.2,3.2,0,0,1-.13,1,1.23,1.23,0,0,1-.39.6,1.09,1.09,0,0,1-1.46-.16A2.34,2.34,0,0,1,69.75,141.38Zm.45,0a2.38,2.38,0,0,0,.2,1.18.59.59,0,0,0,1,0,2.25,2.25,0,0,0,.21-1.18,2.2,2.2,0,0,0-.21-1.17.62.62,0,0,0-.51-.29.59.59,0,0,0-.49.26A2.26,2.26,0,0,0,70.2,141.38Z" transform="translate(0.01 -21.92)"/><path class="cls-7" d="M72.5,141.38a3.2,3.2,0,0,1,.13-1,1.18,1.18,0,0,1,.39-.59,1,1,0,0,1,.64-.21,1,1,0,0,1,.51.11,1.06,1.06,0,0,1,.36.34,1.73,1.73,0,0,1,.22.53,3.72,3.72,0,0,1,.08.84,3.2,3.2,0,0,1-.13,1,1.17,1.17,0,0,1-.39.6,1.09,1.09,0,0,1-1.46-.16A2.41,2.41,0,0,1,72.5,141.38Zm.45,0a2.38,2.38,0,0,0,.2,1.18.62.62,0,0,0,.51.29.6.6,0,0,0,.51-.29,2.25,2.25,0,0,0,.21-1.18,2.2,2.2,0,0,0-.21-1.17.61.61,0,0,0-.51-.29.56.56,0,0,0-.48.26A2.15,2.15,0,0,0,73,141.38Z" transform="translate(0.01 -21.92)"/><path class="cls-7" d="M75.31,141.38a3.2,3.2,0,0,1,.13-1,1.25,1.25,0,0,1,.39-.59,1,1,0,0,1,.64-.21,1,1,0,0,1,.51.11,1.06,1.06,0,0,1,.36.34,1.73,1.73,0,0,1,.22.53,3.72,3.72,0,0,1,.08.84,3.2,3.2,0,0,1-.13,1,1.22,1.22,0,0,1-.38.6,1,1,0,0,1-.66.21,1,1,0,0,1-.81-.37A2.41,2.41,0,0,1,75.31,141.38Zm.45,0a2.25,2.25,0,0,0,.21,1.18.58.58,0,0,0,1,0,2.25,2.25,0,0,0,.21-1.18,2.2,2.2,0,0,0-.21-1.17.61.61,0,0,0-.51-.29.56.56,0,0,0-.48.26A2.15,2.15,0,0,0,75.76,141.38Z" transform="translate(0.01 -21.92)"/><path class="cls-7" d="M96.12,140.45l-.43,0a.8.8,0,0,0-.17-.37.56.56,0,0,0-.44-.19.67.67,0,0,0-.37.11,1,1,0,0,0-.32.45,2.19,2.19,0,0,0-.13.82,1.11,1.11,0,0,1,.39-.36,1.13,1.13,0,0,1,.48-.11,1,1,0,0,1,.75.32,1.21,1.21,0,0,1,.31.84,1.32,1.32,0,0,1-.15.62,1,1,0,0,1-.4.45,1.1,1.1,0,0,1-.57.15,1.12,1.12,0,0,1-.9-.4,2.07,2.07,0,0,1-.35-1.34,2.32,2.32,0,0,1,.39-1.5,1.08,1.08,0,0,1,.9-.41.94.94,0,0,1,1,.89ZM94.33,142a.91.91,0,0,0,.1.43.7.7,0,0,0,.63.43.63.63,0,0,0,.48-.23.9.9,0,0,0,.2-.61.83.83,0,0,0-.2-.58.66.66,0,0,0-.5-.21.67.67,0,0,0-.5.21A.76.76,0,0,0,94.33,142Z" transform="translate(0.01 -21.92)"/><path class="cls-7" d="M96.65,141.38a3.52,3.52,0,0,1,.13-1,1.28,1.28,0,0,1,.39-.59,1,1,0,0,1,.65-.21.95.95,0,0,1,.87.45,2,2,0,0,1,.22.53,3.72,3.72,0,0,1,.08.84,3.2,3.2,0,0,1-.13,1,1.31,1.31,0,0,1-.39.6,1,1,0,0,1-.65.21,1,1,0,0,1-.81-.37A2.33,2.33,0,0,1,96.65,141.38Zm.46,0a2.27,2.27,0,0,0,.2,1.18.59.59,0,0,0,1,0,2.25,2.25,0,0,0,.21-1.18,2.18,2.18,0,0,0-.21-1.17.62.62,0,0,0-.51-.29.55.55,0,0,0-.49.26A2.26,2.26,0,0,0,97.11,141.38Z" transform="translate(0.01 -21.92)"/><path class="cls-7" d="M99.41,141.38a3.2,3.2,0,0,1,.13-1,1.19,1.19,0,0,1,.38-.59,1,1,0,0,1,.65-.21.95.95,0,0,1,.87.45,2,2,0,0,1,.22.53,3.72,3.72,0,0,1,.08.84,3.2,3.2,0,0,1-.13,1,1.31,1.31,0,0,1-.39.6,1,1,0,0,1-.65.21,1,1,0,0,1-.81-.37A2.34,2.34,0,0,1,99.41,141.38Zm.45,0a2.38,2.38,0,0,0,.2,1.18.59.59,0,0,0,1,0,2.25,2.25,0,0,0,.21-1.18,2.18,2.18,0,0,0-.21-1.17.62.62,0,0,0-.51-.29.56.56,0,0,0-.49.26A2.26,2.26,0,0,0,99.86,141.38Z" transform="translate(0.01 -21.92)"/><path class="cls-7" d="M102.22,141.38a3.2,3.2,0,0,1,.13-1,1.19,1.19,0,0,1,.38-.59,1,1,0,0,1,.65-.21.95.95,0,0,1,.87.45,1.73,1.73,0,0,1,.22.53,3.72,3.72,0,0,1,.08.84,3.2,3.2,0,0,1-.13,1,1.31,1.31,0,0,1-.39.6,1,1,0,0,1-.65.21,1,1,0,0,1-.81-.37A2.34,2.34,0,0,1,102.22,141.38Zm.45,0a2.38,2.38,0,0,0,.2,1.18.59.59,0,0,0,1,0,2.25,2.25,0,0,0,.21-1.18,2.18,2.18,0,0,0-.21-1.17.62.62,0,0,0-.51-.29.57.57,0,0,0-.49.26A2.26,2.26,0,0,0,102.67,141.38Z" transform="translate(0.01 -21.92)"/><rect class="邱喟0.5pt-4" x="18.44" y="2.18" width="90.71" height="113.39"/></g><g id="English"><rect class="繝後Μ_逋ｽ" x="19.86" y="42.57" width="47.91" height="16.58"/><path class="cls-7" d="M22.34,69.36l.59,0a1.2,1.2,0,0,0,.19.57,1,1,0,0,0,.47.36,1.76,1.76,0,0,0,.71.14,1.71,1.71,0,0,0,.62-.11.87.87,0,0,0,.4-.28.68.68,0,0,0,.13-.4.6.6,0,0,0-.12-.38,1,1,0,0,0-.42-.28c-.13-.05-.4-.12-.83-.23a4.09,4.09,0,0,1-.9-.29,1.16,1.16,0,0,1-.49-.43,1.06,1.06,0,0,1-.17-.58,1.19,1.19,0,0,1,.79-1.12,2.11,2.11,0,0,1,.85-.16,2.17,2.17,0,0,1,.91.17,1.3,1.3,0,0,1,.61.49,1.4,1.4,0,0,1,.23.73l-.59,0a1,1,0,0,0-.32-.66,1.29,1.29,0,0,0-.82-.23,1.27,1.27,0,0,0-.81.21.6.6,0,0,0-.25.49.52.52,0,0,0,.18.41,2.32,2.32,0,0,0,.92.33,6.76,6.76,0,0,1,1,.3,1.29,1.29,0,0,1,.6.48,1.14,1.14,0,0,1,.2.66,1.3,1.3,0,0,1-.21.7,1.43,1.43,0,0,1-.62.51,2.11,2.11,0,0,1-.89.18,2.73,2.73,0,0,1-1.06-.18,1.54,1.54,0,0,1-.67-.56A1.57,1.57,0,0,1,22.34,69.36Z" transform="translate(0.01 -21.92)"/><path class="cls-7" d="M26.82,70.85V66.2h.57v1.67a1.27,1.27,0,0,1,1-.47,1.36,1.36,0,0,1,.65.15.91.91,0,0,1,.39.41,1.83,1.83,0,0,1,.12.75v2.14H29V68.71a.85.85,0,0,0-.19-.62.67.67,0,0,0-.52-.19.91.91,0,0,0-.48.13.77.77,0,0,0-.32.35,1.79,1.79,0,0,0-.09.63v1.84Z" transform="translate(0.01 -21.92)"/><path class="cls-7" d="M30.22,69.17a1.73,1.73,0,0,1,.52-1.39,1.65,1.65,0,0,1,2.2.08,1.74,1.74,0,0,1,.44,1.26,2.22,2.22,0,0,1-.2,1,1.39,1.39,0,0,1-.57.58,1.63,1.63,0,0,1-.81.21,1.48,1.48,0,0,1-1.14-.46A1.77,1.77,0,0,1,30.22,69.17Zm.59,0a1.39,1.39,0,0,0,.28,1,.89.89,0,0,0,.71.33.91.91,0,0,0,.71-.33,1.8,1.8,0,0,0,0-1.93.9.9,0,0,0-.71-.32.88.88,0,0,0-.71.32A1.41,1.41,0,0,0,30.81,69.17Z" transform="translate(0.01 -21.92)"/><path class="cls-7" d="M34,70.85V67.48h.51V68a1.43,1.43,0,0,1,.37-.47.6.6,0,0,1,.36-.12,1.14,1.14,0,0,1,.59.19l-.2.53a.85.85,0,0,0-.41-.13.52.52,0,0,0-.34.12.58.58,0,0,0-.21.31,2,2,0,0,0-.1.67v1.76Z" transform="translate(0.01 -21.92)"/><path class="cls-7" d="M37.46,70.34l.08.5a1.77,1.77,0,0,1-.43.06,1,1,0,0,1-.48-.1.57.57,0,0,1-.25-.26,2.39,2.39,0,0,1-.06-.68V67.92H35.9v-.44h.42v-.83l.56-.35v1.18h.58v.44h-.58v2a1,1,0,0,0,0,.31.27.27,0,0,0,.1.11.37.37,0,0,0,.2,0Z" transform="translate(0.01 -21.92)"/><path class="cls-7" d="M37.79,69.45v-.57h1.76v.57Z" transform="translate(0.01 -21.92)"/><path class="cls-7" d="M42.37,70.85v-.42a1.07,1.07,0,0,1-.95.5,1.34,1.34,0,0,1-.74-.23,1.39,1.39,0,0,1-.52-.62,2.17,2.17,0,0,1-.18-.91,2.47,2.47,0,0,1,.16-.92,1.39,1.39,0,0,1,.51-.63,1.37,1.37,0,0,1,.75-.22,1.2,1.2,0,0,1,.54.13,1.17,1.17,0,0,1,.39.34V66.2h.57v4.65Zm-1.81-1.68a1.5,1.5,0,0,0,.27,1,.85.85,0,0,0,.65.32.81.81,0,0,0,.64-.31,1.41,1.41,0,0,0,.26-.93,1.58,1.58,0,0,0-.27-1,.81.81,0,0,0-.66-.32.78.78,0,0,0-.63.31A1.53,1.53,0,0,0,40.56,69.17Z" transform="translate(0.01 -21.92)"/><path class="cls-7" d="M46,70.85v-.49a1.25,1.25,0,0,1-1.07.57,1.31,1.31,0,0,1-.56-.12,1,1,0,0,1-.39-.28,1.11,1.11,0,0,1-.17-.43,3.07,3.07,0,0,1,0-.53V67.48h.58v1.87a3.77,3.77,0,0,0,0,.6.63.63,0,0,0,.23.36.73.73,0,0,0,.43.13.92.92,0,0,0,.48-.14.66.66,0,0,0,.32-.36,1.84,1.84,0,0,0,.09-.65V67.48h.58v3.37Z" transform="translate(0.01 -21.92)"/><path class="cls-7" d="M47.4,70.85V67.48h.52V68a1.31,1.31,0,0,1,.36-.47.63.63,0,0,1,.37-.12,1.17,1.17,0,0,1,.59.19l-.2.53a.86.86,0,0,0-.42-.13.52.52,0,0,0-.34.12.58.58,0,0,0-.21.31,2.36,2.36,0,0,0-.09.67v1.76Z" transform="translate(0.01 -21.92)"/><path class="cls-7" d="M51.78,70.44a2.66,2.66,0,0,1-.62.38,1.81,1.81,0,0,1-.63.11,1.22,1.22,0,0,1-.85-.27.91.91,0,0,1-.3-.7.89.89,0,0,1,.12-.45.85.85,0,0,1,.29-.33A1.72,1.72,0,0,1,50.2,69a4.64,4.64,0,0,1,.51-.08,5.33,5.33,0,0,0,1-.2v-.15a.63.63,0,0,0-.16-.49,1,1,0,0,0-.65-.19,1,1,0,0,0-.6.14.83.83,0,0,0-.28.5l-.56-.08a1.34,1.34,0,0,1,.25-.58,1.2,1.2,0,0,1,.51-.34A2.2,2.2,0,0,1,51,67.4a1.94,1.94,0,0,1,.7.11.92.92,0,0,1,.4.25,1,1,0,0,1,.18.39,3.43,3.43,0,0,1,0,.53v.76a8.82,8.82,0,0,0,0,1,1.22,1.22,0,0,0,.15.4h-.6A1.08,1.08,0,0,1,51.78,70.44Zm-.05-1.28a4.52,4.52,0,0,1-.94.22,2,2,0,0,0-.49.11.43.43,0,0,0-.23.19.5.5,0,0,0,.09.65.78.78,0,0,0,.51.15,1.25,1.25,0,0,0,.59-.14,1,1,0,0,0,.38-.4,1.41,1.41,0,0,0,.09-.57Z" transform="translate(0.01 -21.92)"/><path class="cls-7" d="M54.44,70.34l.08.5a1.77,1.77,0,0,1-.43.06,1,1,0,0,1-.48-.1.57.57,0,0,1-.25-.26,2.39,2.39,0,0,1-.06-.68V67.92h-.42v-.44h.42v-.83l.56-.35v1.18h.58v.44h-.58v2a1,1,0,0,0,0,.31.27.27,0,0,0,.1.11.37.37,0,0,0,.2,0Z" transform="translate(0.01 -21.92)"/><path class="cls-7" d="M55,66.86V66.2h.57v.66Zm0,4V67.48h.57v3.37Z" transform="translate(0.01 -21.92)"/><path class="cls-7" d="M56.23,69.17a1.73,1.73,0,0,1,.52-1.39,1.57,1.57,0,0,1,1.06-.38,1.51,1.51,0,0,1,1.13.46,1.7,1.7,0,0,1,.45,1.26,2.22,2.22,0,0,1-.2,1,1.39,1.39,0,0,1-.57.58,1.63,1.63,0,0,1-.81.21,1.52,1.52,0,0,1-1.15-.46A1.81,1.81,0,0,1,56.23,69.17Zm.59,0a1.39,1.39,0,0,0,.28,1,.89.89,0,0,0,.71.33.91.91,0,0,0,.71-.33,1.49,1.49,0,0,0,.28-1,1.38,1.38,0,0,0-.29-1,.94.94,0,0,0-1.41,0A1.41,1.41,0,0,0,56.82,69.17Z" transform="translate(0.01 -21.92)"/><path class="cls-7" d="M60.06,70.85V67.48h.51V68a1.22,1.22,0,0,1,1.07-.56,1.43,1.43,0,0,1,.56.11,1,1,0,0,1,.39.29,1.13,1.13,0,0,1,.17.42,3.51,3.51,0,0,1,0,.56v2.07h-.57v-2a1.67,1.67,0,0,0-.06-.52.6.6,0,0,0-.24-.28.74.74,0,0,0-.4-.1,1,1,0,0,0-.63.23,1.18,1.18,0,0,0-.26.88v1.84Z" transform="translate(0.01 -21.92)"/><path class="cls-7" d="M22.47,78.65V75.28H23v.51a1.31,1.31,0,0,1,.36-.47.63.63,0,0,1,.37-.12,1.17,1.17,0,0,1,.59.19l-.2.53a.86.86,0,0,0-.42-.13.54.54,0,0,0-.34.12.58.58,0,0,0-.21.31,2.36,2.36,0,0,0-.09.67v1.76Z" transform="translate(0.01 -21.92)"/><path class="cls-7" d="M26.85,78.65v-.49a1.22,1.22,0,0,1-1.07.57,1.3,1.3,0,0,1-.55-.12,1,1,0,0,1-.39-.28,1.11,1.11,0,0,1-.17-.43,2.3,2.3,0,0,1,0-.53V75.28h.57v1.87a3.41,3.41,0,0,0,0,.6.63.63,0,0,0,.23.36.73.73,0,0,0,.43.13.92.92,0,0,0,.48-.14.66.66,0,0,0,.32-.36,1.84,1.84,0,0,0,.09-.65V75.28h.57v3.37Z" transform="translate(0.01 -21.92)"/><path class="cls-7" d="M28.26,78.65V75.28h.51v.48a1.23,1.23,0,0,1,1.08-.56,1.47,1.47,0,0,1,.56.11.89.89,0,0,1,.38.29A1.33,1.33,0,0,1,31,76a3.51,3.51,0,0,1,0,.56v2.07h-.57V76.6a1.38,1.38,0,0,0-.07-.52.5.5,0,0,0-.24-.28.71.71,0,0,0-.39-.1.92.92,0,0,0-.63.23,1.14,1.14,0,0,0-.27.88v1.84Z" transform="translate(0.01 -21.92)"/><path class="cls-7" d="M31.88,78.65V75.28h.51v.48a1.21,1.21,0,0,1,1.07-.56,1.43,1.43,0,0,1,.56.11.89.89,0,0,1,.38.29,1,1,0,0,1,.18.42,3.51,3.51,0,0,1,0,.56v2.07H34V76.6a1.67,1.67,0,0,0-.06-.52.6.6,0,0,0-.24-.28.74.74,0,0,0-.4-.1,1,1,0,0,0-.63.23,1.14,1.14,0,0,0-.26.88v1.84Z" transform="translate(0.01 -21.92)"/><path class="cls-7" d="M35.49,74.66V74h.57v.66Zm0,4V75.28h.57v3.37Z" transform="translate(0.01 -21.92)"/><path class="cls-7" d="M36.93,78.65V75.28h.52v.48a1.21,1.21,0,0,1,1.07-.56,1.47,1.47,0,0,1,.56.11.89.89,0,0,1,.38.29,1,1,0,0,1,.18.42,3.51,3.51,0,0,1,0,.56v2.07H39.1V76.6a1.67,1.67,0,0,0-.06-.52.6.6,0,0,0-.24-.28.74.74,0,0,0-.4-.1,1,1,0,0,0-.63.23,1.14,1.14,0,0,0-.26.88v1.84Z" transform="translate(0.01 -21.92)"/><path class="cls-7" d="M40.44,78.93,41,79a.56.56,0,0,0,.19.38,1,1,0,0,0,.58.16,1.09,1.09,0,0,0,.62-.16.82.82,0,0,0,.29-.45,3.76,3.76,0,0,0,0-.73,1.18,1.18,0,0,1-.93.44,1.29,1.29,0,0,1-1.08-.5,2,2,0,0,1-.38-1.2,2.31,2.31,0,0,1,.17-.89,1.37,1.37,0,0,1,1.29-.86,1.17,1.17,0,0,1,1,.49v-.41h.53v2.91a2.72,2.72,0,0,1-.16,1.12,1.22,1.22,0,0,1-.51.52,1.7,1.7,0,0,1-.85.19,1.65,1.65,0,0,1-1-.27A1,1,0,0,1,40.44,78.93Zm.48-2a1.41,1.41,0,0,0,.26,1,.83.83,0,0,0,.66.31.85.85,0,0,0,.66-.3,1.43,1.43,0,0,0,.27-1,1.34,1.34,0,0,0-.28-.93.85.85,0,0,0-1.31,0A1.4,1.4,0,0,0,40.92,76.91Z" transform="translate(0.01 -21.92)"/><path class="cls-7" d="M46,78.65V75.28h.52v.51a1.31,1.31,0,0,1,.36-.47.61.61,0,0,1,.37-.12,1.17,1.17,0,0,1,.59.19l-.2.53a.86.86,0,0,0-.42-.13.52.52,0,0,0-.34.12.58.58,0,0,0-.21.31,2.35,2.35,0,0,0-.1.67v1.76Z" transform="translate(0.01 -21.92)"/><path class="cls-7" d="M50.33,78.24a2.43,2.43,0,0,1-.61.38,1.81,1.81,0,0,1-.63.11,1.22,1.22,0,0,1-.85-.27.91.91,0,0,1-.3-.7,1,1,0,0,1,.11-.45,1,1,0,0,1,.3-.33,1.72,1.72,0,0,1,.41-.19,4.64,4.64,0,0,1,.51-.08,5.33,5.33,0,0,0,1-.2v-.15a.63.63,0,0,0-.16-.49,1,1,0,0,0-.65-.19,1,1,0,0,0-.6.14.83.83,0,0,0-.28.5L48,76.24a1.34,1.34,0,0,1,.25-.58,1.17,1.17,0,0,1,.5-.34,2.3,2.3,0,0,1,.77-.12,1.94,1.94,0,0,1,.7.11.92.92,0,0,1,.4.25,1,1,0,0,1,.18.39,3.43,3.43,0,0,1,0,.53v.76a8.82,8.82,0,0,0,0,1,1,1,0,0,0,.15.4h-.6A1.31,1.31,0,0,1,50.33,78.24Zm0-1.28a4.52,4.52,0,0,1-.94.22,2,2,0,0,0-.49.11.43.43,0,0,0-.23.19.5.5,0,0,0,.09.65.78.78,0,0,0,.51.15,1.25,1.25,0,0,0,.59-.14.89.89,0,0,0,.37-.4,1.24,1.24,0,0,0,.1-.57Z" transform="translate(0.01 -21.92)"/><path class="cls-7" d="M51.75,78.65V75.28h.51v.48a1.23,1.23,0,0,1,1.08-.56,1.47,1.47,0,0,1,.56.11.89.89,0,0,1,.38.29,1.33,1.33,0,0,1,.18.42,3.51,3.51,0,0,1,0,.56v2.07h-.57V76.6a1.38,1.38,0,0,0-.07-.52.5.5,0,0,0-.24-.28.71.71,0,0,0-.39-.1.92.92,0,0,0-.63.23,1.14,1.14,0,0,0-.27.88v1.84Z" transform="translate(0.01 -21.92)"/><path class="cls-7" d="M55.26,78.93l.56.08a.52.52,0,0,0,.19.38,1,1,0,0,0,.58.16,1.05,1.05,0,0,0,.61-.16.77.77,0,0,0,.29-.45,3.49,3.49,0,0,0,0-.73,1.19,1.19,0,0,1-.94.44,1.27,1.27,0,0,1-1.07-.5,1.91,1.91,0,0,1-.38-1.2,2.14,2.14,0,0,1,.17-.89,1.37,1.37,0,0,1,1.29-.86,1.2,1.2,0,0,1,1,.49v-.41h.53v2.91A2.9,2.9,0,0,1,58,79.31a1.22,1.22,0,0,1-.51.52,1.74,1.74,0,0,1-.86.19,1.61,1.61,0,0,1-1-.27A.92.92,0,0,1,55.26,78.93Zm.47-2a1.41,1.41,0,0,0,.27,1,.81.81,0,0,0,.66.31.85.85,0,0,0,.66-.3,1.49,1.49,0,0,0,.26-1,1.39,1.39,0,0,0-.27-.93.83.83,0,0,0-.66-.31A.81.81,0,0,0,56,76,1.35,1.35,0,0,0,55.73,76.91Z" transform="translate(0.01 -21.92)"/><path class="cls-7" d="M61.29,77.57l.59.07a1.5,1.5,0,0,1-.52.8,1.74,1.74,0,0,1-2.14-.17A1.77,1.77,0,0,1,58.79,77a1.9,1.9,0,0,1,.44-1.32,1.58,1.58,0,0,1,2.24,0A1.87,1.87,0,0,1,61.9,77s0,.08,0,.15H59.38a1.32,1.32,0,0,0,.31.85.94.94,0,0,0,.71.3.89.89,0,0,0,.54-.17A1.16,1.16,0,0,0,61.29,77.57Zm-1.88-.93h1.88a1.13,1.13,0,0,0-.21-.64.88.88,0,0,0-.71-.33.9.9,0,0,0-.66.27A1,1,0,0,0,59.41,76.64Z" transform="translate(0.01 -21.92)"/><path class="cls-7" d="M4.64,98.27H.54V99.8H0V96.11H.54v1.54h4.1Z" transform="translate(0.01 -21.92)"/><path class="cls-7" d="M3,95.77a1.75,1.75,0,0,1-1.38-.52,1.58,1.58,0,0,1-.38-1.06,1.5,1.5,0,0,1,.46-1.14,1.74,1.74,0,0,1,1.26-.44,2.22,2.22,0,0,1,1,.2,1.42,1.42,0,0,1,.58.56,1.64,1.64,0,0,1,.21.82,1.52,1.52,0,0,1-.46,1.14A1.82,1.82,0,0,1,3,95.77Zm0-.59a1.41,1.41,0,0,0,1-.28.91.91,0,0,0,.33-.71.89.89,0,0,0-.33-.71,1.43,1.43,0,0,0-1-.28,1.38,1.38,0,0,0-.95.28A.95.95,0,0,0,2,94.9,1.39,1.39,0,0,0,3,95.18Z" transform="translate(0.01 -21.92)"/><path class="cls-7" d="M4.64,92H1.27v-.52h.51a1.31,1.31,0,0,1-.47-.36.61.61,0,0,1-.12-.37,1,1,0,0,1,.19-.58l.53.19a.76.76,0,0,0-.13.42.52.52,0,0,0,.12.34.58.58,0,0,0,.31.21,2.3,2.3,0,0,0,.67.1H4.64Z" transform="translate(0.01 -21.92)"/><path class="cls-7" d="M5.93,87.63H4.28a1,1,0,0,1,.31.37,1.14,1.14,0,0,1,.13.51,1.34,1.34,0,0,1-.48,1A1.9,1.9,0,0,1,2.92,90,2.21,2.21,0,0,1,2,89.8a1.33,1.33,0,0,1-.82-1.25,1.14,1.14,0,0,1,.53-1H1.27v-.51H5.93Zm-3,1.76a1.51,1.51,0,0,0,1-.27.81.81,0,0,0,0-1.29A1.46,1.46,0,0,0,3,87.57a1.57,1.57,0,0,0-1,.28.83.83,0,0,0-.34.65.79.79,0,0,0,.32.63A1.55,1.55,0,0,0,2.94,89.39Z" transform="translate(0.01 -21.92)"/><path class="cls-7" d="M4.64,84h-.5A1.22,1.22,0,0,1,4.72,85a1.31,1.31,0,0,1-.12.56.82.82,0,0,1-.29.38.9.9,0,0,1-.42.18,3.33,3.33,0,0,1-.53,0H1.27V85.6H3.14a3.77,3.77,0,0,0,.6,0,.63.63,0,0,0,.36-.23.75.75,0,0,0,.12-.43,1,1,0,0,0-.13-.49.68.68,0,0,0-.36-.31,1.61,1.61,0,0,0-.65-.1H1.27v-.57H4.64Z" transform="translate(0.01 -21.92)"/><path class="cls-7" d="M3.55,80.24l.08-.59a1.39,1.39,0,0,1,.8.52,1.72,1.72,0,0,1-.17,2.13A1.77,1.77,0,0,1,3,82.74a1.9,1.9,0,0,1-1.32-.44,1.49,1.49,0,0,1-.47-1.14,1.45,1.45,0,0,1,.46-1.1A1.82,1.82,0,0,1,3,79.63H3.1v2.52A1.29,1.29,0,0,0,4,81.83a.92.92,0,0,0,.3-.7.89.89,0,0,0-.17-.54A1.07,1.07,0,0,0,3.55,80.24Zm-.92,1.87V80.23a1.18,1.18,0,0,0-.64.22.88.88,0,0,0-.33.71.9.9,0,0,0,.27.66A1,1,0,0,0,2.63,82.11Z" transform="translate(0.01 -21.92)"/><path class="cls-7" d="M5.93,77.11H0V75.85H.46v.69h5v-.69h.47Z" transform="translate(0.01 -21.92)"/><path class="cls-7" d="M4.64,75.25H0v-.63l3.65-2.44H0v-.59H4.64v.63L1,74.66H4.64Z" transform="translate(0.01 -21.92)"/><path class="cls-7" d="M2.36,70.71a.78.78,0,0,1-.57-.24.81.81,0,0,1,1.14-1.14.81.81,0,0,1-.57,1.38Z" transform="translate(0.01 -21.92)"/><path class="cls-7" d="M4.64,68.35H1.27v-.51h.47a1.34,1.34,0,0,1-.4-.42,1.21,1.21,0,0,1-.15-.6,1.16,1.16,0,0,1,.16-.62.86.86,0,0,1,.43-.34,1.2,1.2,0,0,1-.59-1,1.05,1.05,0,0,1,.28-.77,1.2,1.2,0,0,1,.86-.27H4.64v.57H2.52a1.49,1.49,0,0,0-.5.06.42.42,0,0,0-.24.2.62.62,0,0,0-.09.34.82.82,0,0,0,.23.59,1,1,0,0,0,.76.24h2v.57H2.45a.92.92,0,0,0-.57.14.51.51,0,0,0-.19.45.81.81,0,0,0,.13.45.7.7,0,0,0,.37.3,2.08,2.08,0,0,0,.7.09H4.64Z" transform="translate(0.01 -21.92)"/><path class="cls-7" d="M5.93,62v1.26H5.46v-.69h-5v.69H0V62Z" transform="translate(0.01 -21.92)"/><rect class="繝後Μ_逋ｽ" x="20.6" y="97.14" width="41.46" height="16.58"/><path class="cls-7" d="M26,123.79l.62.15a2.07,2.07,0,0,1-.7,1.16,1.88,1.88,0,0,1-1.23.4,2.14,2.14,0,0,1-1.22-.31,2,2,0,0,1-.72-.89,3.19,3.19,0,0,1-.24-1.24,2.8,2.8,0,0,1,.27-1.27,1.9,1.9,0,0,1,.79-.82,2.31,2.31,0,0,1,1.13-.28,2,2,0,0,1,1.18.35,1.87,1.87,0,0,1,.66,1l-.61.14a1.35,1.35,0,0,0-.47-.73,1.2,1.2,0,0,0-.77-.24,1.52,1.52,0,0,0-.9.26,1.3,1.3,0,0,0-.5.69,2.73,2.73,0,0,0-.15.89,3,3,0,0,0,.17,1,1.28,1.28,0,0,0,.54.66,1.47,1.47,0,0,0,.79.22,1.32,1.32,0,0,0,.88-.3A1.48,1.48,0,0,0,26,123.79Z" transform="translate(0.01 -21.92)"/><path class="cls-7" d="M27.06,123.73a1.75,1.75,0,0,1,.52-1.38,1.58,1.58,0,0,1,1.06-.38,1.48,1.48,0,0,1,1.14.46,1.74,1.74,0,0,1,.44,1.26,2.38,2.38,0,0,1-.19,1,1.45,1.45,0,0,1-.57.58,1.63,1.63,0,0,1-.82.2A1.51,1.51,0,0,1,27.5,125,1.82,1.82,0,0,1,27.06,123.73Zm.59,0a1.42,1.42,0,0,0,.28,1,.91.91,0,0,0,.71.33.89.89,0,0,0,.71-.33,1.45,1.45,0,0,0,.28-1,1.37,1.37,0,0,0-.28-.94.93.93,0,0,0-1.42,0A1.39,1.39,0,0,0,27.65,123.73Z" transform="translate(0.01 -21.92)"/><path class="cls-7" d="M30.89,125.42v-3.37h.51v.48a1.23,1.23,0,0,1,1.08-.56,1.47,1.47,0,0,1,.56.11.88.88,0,0,1,.38.29,1.33,1.33,0,0,1,.18.42,3.51,3.51,0,0,1,0,.56v2.07h-.57v-2a1.34,1.34,0,0,0-.07-.52.5.5,0,0,0-.24-.28.71.71,0,0,0-.39-.1.88.88,0,0,0-.63.23,1.13,1.13,0,0,0-.27.88v1.84Z" transform="translate(0.01 -21.92)"/><path class="cls-7" d="M35.75,124.91l.08.5a1.72,1.72,0,0,1-.43,0,.93.93,0,0,1-.48-.1.58.58,0,0,1-.24-.25,2,2,0,0,1-.07-.68v-1.94h-.42v-.44h.42v-.84l.57-.34v1.18h.57v.44h-.57v2a1,1,0,0,0,0,.32.26.26,0,0,0,.1.11.34.34,0,0,0,.19,0Z" transform="translate(0.01 -21.92)"/><path class="cls-7" d="M36.31,121.42v-.65h.58v.65Zm0,4v-3.37h.58v3.37Z" transform="translate(0.01 -21.92)"/><path class="cls-7" d="M37.76,125.42v-3.37h.51v.48a1.21,1.21,0,0,1,1.07-.56,1.43,1.43,0,0,1,.56.11.82.82,0,0,1,.38.29,1,1,0,0,1,.18.42,3.51,3.51,0,0,1,0,.56v2.07h-.57v-2a1.63,1.63,0,0,0-.06-.52.6.6,0,0,0-.24-.28.74.74,0,0,0-.4-.1.91.91,0,0,0-.63.23,1.13,1.13,0,0,0-.26.88v1.84Z" transform="translate(0.01 -21.92)"/><path class="cls-7" d="M43.58,125.42v-.5a1.23,1.23,0,0,1-1.07.57,1.33,1.33,0,0,1-.56-.11.89.89,0,0,1-.38-.29,1.16,1.16,0,0,1-.18-.42,3.33,3.33,0,0,1,0-.53v-2.09h.57v1.87a3.77,3.77,0,0,0,0,.6.62.62,0,0,0,.23.35.69.69,0,0,0,.43.13.92.92,0,0,0,.49-.13.79.79,0,0,0,.32-.36,1.86,1.86,0,0,0,.09-.66v-1.8h.57v3.37Z" transform="translate(0.01 -21.92)"/><path class="cls-7" d="M44.77,123.73a1.75,1.75,0,0,1,.52-1.38,1.58,1.58,0,0,1,1.06-.38,1.48,1.48,0,0,1,1.14.46,1.74,1.74,0,0,1,.44,1.26,2.38,2.38,0,0,1-.19,1,1.45,1.45,0,0,1-.57.58,1.63,1.63,0,0,1-.82.2,1.51,1.51,0,0,1-1.14-.45A1.82,1.82,0,0,1,44.77,123.73Zm.59,0a1.42,1.42,0,0,0,.28,1,.91.91,0,0,0,.71.33.89.89,0,0,0,.71-.33,1.45,1.45,0,0,0,.28-1,1.37,1.37,0,0,0-.28-.94.93.93,0,0,0-1.42,0A1.39,1.39,0,0,0,45.36,123.73Z" transform="translate(0.01 -21.92)"/><path class="cls-7" d="M50.81,125.42v-.5a1.23,1.23,0,0,1-1.07.57,1.33,1.33,0,0,1-.56-.11.89.89,0,0,1-.38-.29,1.16,1.16,0,0,1-.18-.42,3.33,3.33,0,0,1,0-.53v-2.09h.57v1.87a3.77,3.77,0,0,0,0,.6.62.62,0,0,0,.23.35.69.69,0,0,0,.43.13.92.92,0,0,0,.49-.13.79.79,0,0,0,.32-.36,1.86,1.86,0,0,0,.09-.66v-1.8h.57v3.37Z" transform="translate(0.01 -21.92)"/><path class="cls-7" d="M52,124.41l.56-.09a.76.76,0,0,0,.27.52.9.9,0,0,0,.6.19.94.94,0,0,0,.59-.16.52.52,0,0,0,.19-.38.37.37,0,0,0-.17-.31,2.66,2.66,0,0,0-.58-.19,7.72,7.72,0,0,1-.88-.27.87.87,0,0,1-.36-.32.82.82,0,0,1-.13-.46.92.92,0,0,1,.1-.41.89.89,0,0,1,.29-.32.93.93,0,0,1,.36-.17,1.57,1.57,0,0,1,.49-.07,1.86,1.86,0,0,1,.7.12.88.88,0,0,1,.44.31,1.18,1.18,0,0,1,.2.52l-.56.07a.57.57,0,0,0-.22-.4.79.79,0,0,0-.52-.15.91.91,0,0,0-.56.13.4.4,0,0,0-.17.31.37.37,0,0,0,.07.2.53.53,0,0,0,.22.15l.51.14a7,7,0,0,1,.84.27.88.88,0,0,1,.38.3.84.84,0,0,1,.14.49,1,1,0,0,1-.17.54,1.11,1.11,0,0,1-.48.39,1.8,1.8,0,0,1-.71.13,1.59,1.59,0,0,1-1-.27A1.24,1.24,0,0,1,52,124.41Z" transform="translate(0.01 -21.92)"/><path class="cls-7" d="M22.57,133.22v-3.37h.52v.51a1.31,1.31,0,0,1,.36-.47.63.63,0,0,1,.37-.12,1.08,1.08,0,0,1,.59.19l-.2.53a.76.76,0,0,0-.42-.13.52.52,0,0,0-.34.12.54.54,0,0,0-.21.31,2.29,2.29,0,0,0-.09.66v1.77Z" transform="translate(0.01 -21.92)"/><path class="cls-7" d="M27,133.22v-.5a1.22,1.22,0,0,1-1.06.57,1.3,1.3,0,0,1-.56-.11.87.87,0,0,1-.56-.71,2.3,2.3,0,0,1,0-.53v-2.09h.57v1.87a3.41,3.41,0,0,0,0,.6.57.57,0,0,0,.23.35.67.67,0,0,0,.43.13.91.91,0,0,0,.48-.13.74.74,0,0,0,.32-.36,1.86,1.86,0,0,0,.09-.66v-1.8h.58v3.37Z" transform="translate(0.01 -21.92)"/><path class="cls-7" d="M28.36,133.22v-3.37h.52v.48a1.2,1.2,0,0,1,1.07-.56,1.47,1.47,0,0,1,.56.11.82.82,0,0,1,.38.29,1.33,1.33,0,0,1,.18.42,3.51,3.51,0,0,1,0,.56v2.07h-.57v-2.05a1.34,1.34,0,0,0-.07-.52.5.5,0,0,0-.24-.28.71.71,0,0,0-.39-.1.88.88,0,0,0-.63.23,1.13,1.13,0,0,0-.27.88v1.84Z" transform="translate(0.01 -21.92)"/><path class="cls-7" d="M32,133.22v-3.37h.51v.48a1.22,1.22,0,0,1,1.07-.56,1.43,1.43,0,0,1,.56.11.91.91,0,0,1,.39.29,1.13,1.13,0,0,1,.17.42,3.51,3.51,0,0,1,0,.56v2.07h-.57v-2.05a1.63,1.63,0,0,0-.06-.52.6.6,0,0,0-.24-.28.74.74,0,0,0-.4-.1.91.91,0,0,0-.63.23,1.17,1.17,0,0,0-.26.88v1.84Z" transform="translate(0.01 -21.92)"/><path class="cls-7" d="M35.59,129.22v-.65h.57v.65Zm0,4v-3.37h.57v3.37Z" transform="translate(0.01 -21.92)"/><path class="cls-7" d="M37,133.22v-3.37h.52v.48a1.21,1.21,0,0,1,1.07-.56,1.47,1.47,0,0,1,.56.11.82.82,0,0,1,.38.29,1,1,0,0,1,.18.42,3.51,3.51,0,0,1,0,.56v2.07H39.2v-2.05a1.63,1.63,0,0,0-.06-.52.6.6,0,0,0-.24-.28.74.74,0,0,0-.4-.1.91.91,0,0,0-.63.23,1.13,1.13,0,0,0-.26.88v1.84Z" transform="translate(0.01 -21.92)"/><path class="cls-7" d="M40.54,133.5l.56.08a.51.51,0,0,0,.19.37,1,1,0,0,0,.59.16,1,1,0,0,0,.61-.16.76.76,0,0,0,.29-.44,3.83,3.83,0,0,0,0-.73,1.18,1.18,0,0,1-.93.44,1.29,1.29,0,0,1-1.08-.5,2,2,0,0,1-.38-1.21,2.21,2.21,0,0,1,.18-.89,1.37,1.37,0,0,1,.5-.63,1.43,1.43,0,0,1,.78-.22,1.19,1.19,0,0,1,1,.48v-.4h.53v2.91a2.72,2.72,0,0,1-.16,1.12,1.22,1.22,0,0,1-.51.52,1.81,1.81,0,0,1-.85.19,1.65,1.65,0,0,1-1-.27A1,1,0,0,1,40.54,133.5Zm.48-2a1.5,1.5,0,0,0,.26,1,.86.86,0,0,0,1.32,0,1.4,1.4,0,0,0,.27-.95,1.34,1.34,0,0,0-.28-.93.84.84,0,0,0-.66-.32.86.86,0,0,0-.65.31A1.44,1.44,0,0,0,41,131.47Z" transform="translate(0.01 -21.92)"/><path class="cls-7" d="M46.06,133.22v-3.37h.52v.51a1.31,1.31,0,0,1,.36-.47.63.63,0,0,1,.37-.12,1.08,1.08,0,0,1,.59.19l-.2.53a.76.76,0,0,0-.42-.13.59.59,0,0,0-.55.43,2.29,2.29,0,0,0-.09.66v1.77Z" transform="translate(0.01 -21.92)"/><path class="cls-7" d="M50.43,132.8a2,2,0,0,1-.61.38,1.61,1.61,0,0,1-.63.11,1.22,1.22,0,0,1-.85-.27.89.89,0,0,1-.3-.69.94.94,0,0,1,.11-.45,1,1,0,0,1,.3-.33,1.4,1.4,0,0,1,.41-.19,3,3,0,0,1,.51-.08,5.33,5.33,0,0,0,1-.2v-.15a.61.61,0,0,0-.16-.49,1,1,0,0,0-.65-.2,1,1,0,0,0-.6.15.83.83,0,0,0-.28.5l-.56-.08a1.34,1.34,0,0,1,.25-.58,1.07,1.07,0,0,1,.51-.34,2.2,2.2,0,0,1,.76-.12,2,2,0,0,1,.7.1,1,1,0,0,1,.4.26,1,1,0,0,1,.18.39c0,.09,0,.27,0,.52v.77a8.6,8.6,0,0,0,0,1,1.27,1.27,0,0,0,.15.41h-.6A1.29,1.29,0,0,1,50.43,132.8Zm0-1.27a4.63,4.63,0,0,1-.94.21,1.9,1.9,0,0,0-.49.12.47.47,0,0,0-.23.18.5.5,0,0,0-.08.27.49.49,0,0,0,.17.38.73.73,0,0,0,.51.16,1.15,1.15,0,0,0,.59-.15.87.87,0,0,0,.37-.39,1.24,1.24,0,0,0,.1-.57Z" transform="translate(0.01 -21.92)"/><path class="cls-7" d="M51.85,133.22v-3.37h.51v.48a1.23,1.23,0,0,1,1.08-.56,1.47,1.47,0,0,1,.56.11.88.88,0,0,1,.38.29,1.33,1.33,0,0,1,.18.42,3.51,3.51,0,0,1,0,.56v2.07H54v-2.05a1.34,1.34,0,0,0-.07-.52.5.5,0,0,0-.24-.28.71.71,0,0,0-.39-.1.88.88,0,0,0-.63.23,1.13,1.13,0,0,0-.27.88v1.84Z" transform="translate(0.01 -21.92)"/><path class="cls-7" d="M55.36,133.5l.56.08a.48.48,0,0,0,.19.37.91.91,0,0,0,.58.16,1,1,0,0,0,.61-.16.72.72,0,0,0,.29-.44,3.56,3.56,0,0,0,0-.73,1.19,1.19,0,0,1-.94.44,1.27,1.27,0,0,1-1.07-.5,1.92,1.92,0,0,1-.38-1.21,2.21,2.21,0,0,1,.17-.89,1.46,1.46,0,0,1,.51-.63,1.43,1.43,0,0,1,.78-.22,1.22,1.22,0,0,1,1,.48v-.4h.53v2.91a2.9,2.9,0,0,1-.16,1.12,1.22,1.22,0,0,1-.51.52,1.85,1.85,0,0,1-.86.19,1.61,1.61,0,0,1-1-.27A.93.93,0,0,1,55.36,133.5Zm.47-2a1.44,1.44,0,0,0,.27,1,.83.83,0,0,0,.66.31.86.86,0,0,0,.66-.31,1.46,1.46,0,0,0,.26-.95,1.39,1.39,0,0,0-.27-.93.84.84,0,0,0-1.31,0A1.38,1.38,0,0,0,55.83,131.47Z" transform="translate(0.01 -21.92)"/><path class="cls-7" d="M61.39,132.13l.59.08a1.5,1.5,0,0,1-.52.8,1.54,1.54,0,0,1-1,.28,1.56,1.56,0,0,1-1.18-.45,1.77,1.77,0,0,1-.43-1.28,1.86,1.86,0,0,1,.44-1.32,1.58,1.58,0,0,1,2.24,0,1.87,1.87,0,0,1,.43,1.3,1,1,0,0,1,0,.15H59.48a1.34,1.34,0,0,0,.31.85.94.94,0,0,0,.71.3.84.84,0,0,0,.53-.17A1.13,1.13,0,0,0,61.39,132.13Zm-1.88-.92h1.88a1.1,1.1,0,0,0-.21-.64.88.88,0,0,0-.71-.33.93.93,0,0,0-.66.26A1.08,1.08,0,0,0,59.51,131.21Z" transform="translate(0.01 -21.92)"/><path class="cls-7" d="M44.76,150.56l.58-.06a1.32,1.32,0,0,0,.19.58,1,1,0,0,0,.47.36,1.8,1.8,0,0,0,.71.14,1.67,1.67,0,0,0,.62-.11.91.91,0,0,0,.41-.28.76.76,0,0,0,.13-.4.65.65,0,0,0-.13-.39.92.92,0,0,0-.42-.27c-.12,0-.4-.12-.83-.23a4.51,4.51,0,0,1-.9-.29,1.22,1.22,0,0,1-.49-.43,1.06,1.06,0,0,1-.17-.58,1.19,1.19,0,0,1,.79-1.12,2.11,2.11,0,0,1,.85-.16,2.4,2.4,0,0,1,.92.16,1.35,1.35,0,0,1,.6.5,1.4,1.4,0,0,1,.23.73l-.59,0a1,1,0,0,0-.32-.66,1.24,1.24,0,0,0-.81-.23,1.3,1.3,0,0,0-.82.21.6.6,0,0,0-.25.49.52.52,0,0,0,.18.41,2.39,2.39,0,0,0,.93.33,7.58,7.58,0,0,1,1,.3,1.47,1.47,0,0,1,.6.47,1.19,1.19,0,0,1,.19.67,1.3,1.3,0,0,1-.21.7,1.47,1.47,0,0,1-.61.51,2.19,2.19,0,0,1-.9.18,2.76,2.76,0,0,1-1.06-.18,1.54,1.54,0,0,1-.67-.56A1.56,1.56,0,0,1,44.76,150.56Z" transform="translate(0.01 -21.92)"/><path class="cls-7" d="M49.23,153.34v-4.66h.52v.44a1.29,1.29,0,0,1,.42-.39,1.19,1.19,0,0,1,.56-.13,1.34,1.34,0,0,1,.76.23,1.35,1.35,0,0,1,.5.62,2.39,2.39,0,0,1,0,1.82,1.36,1.36,0,0,1-.54.64,1.45,1.45,0,0,1-.74.22,1.11,1.11,0,0,1-.52-.12,1.25,1.25,0,0,1-.37-.31v1.64Zm.52-3a1.46,1.46,0,0,0,.26,1,.84.84,0,0,0,.64.31.82.82,0,0,0,.65-.33,1.5,1.5,0,0,0,.27-1,1.56,1.56,0,0,0-.26-1,.82.82,0,0,0-.64-.32.8.8,0,0,0-.64.34A1.52,1.52,0,0,0,49.75,150.38Z" transform="translate(0.01 -21.92)"/><path class="cls-7" d="M55.15,151l.59.08a1.39,1.39,0,0,1-.52.8,1.72,1.72,0,0,1-2.13-.17,1.77,1.77,0,0,1-.44-1.28,1.9,1.9,0,0,1,.44-1.32,1.49,1.49,0,0,1,1.14-.47,1.45,1.45,0,0,1,1.1.46,1.82,1.82,0,0,1,.43,1.3v.15H53.24a1.29,1.29,0,0,0,.32.85.92.92,0,0,0,.7.3.89.89,0,0,0,.54-.17A1.07,1.07,0,0,0,55.15,151ZM53.28,150h1.88a1.18,1.18,0,0,0-.22-.64.88.88,0,0,0-.71-.33.9.9,0,0,0-.66.27A1,1,0,0,0,53.28,150Z" transform="translate(0.01 -21.92)"/><path class="cls-7" d="M58.77,151l.59.08a1.5,1.5,0,0,1-.52.8,1.74,1.74,0,0,1-2.14-.17,1.77,1.77,0,0,1-.43-1.28,1.85,1.85,0,0,1,.44-1.32,1.58,1.58,0,0,1,2.24,0,1.87,1.87,0,0,1,.43,1.3s0,.08,0,.15H56.86a1.28,1.28,0,0,0,.31.85.94.94,0,0,0,.71.3.84.84,0,0,0,.53-.17A1.08,1.08,0,0,0,58.77,151ZM56.89,150h1.88a1.1,1.1,0,0,0-.21-.64.93.93,0,0,0-1.37-.06A1,1,0,0,0,56.89,150Z" transform="translate(0.01 -21.92)"/><path class="cls-7" d="M62.26,152.05v-.42a1.05,1.05,0,0,1-.94.5,1.3,1.3,0,0,1-.74-.23,1.41,1.41,0,0,1-.53-.62,2.17,2.17,0,0,1-.18-.91,2.29,2.29,0,0,1,.17-.92,1.37,1.37,0,0,1,.5-.63,1.4,1.4,0,0,1,.75-.22,1.21,1.21,0,0,1,.55.13,1.24,1.24,0,0,1,.38.34V147.4h.57v4.65Zm-1.81-1.68a1.5,1.5,0,0,0,.28,1,.82.82,0,0,0,.64.32.84.84,0,0,0,.64-.31,1.43,1.43,0,0,0,.26-.93,1.58,1.58,0,0,0-.27-1,.82.82,0,0,0-1.29,0A1.53,1.53,0,0,0,60.45,150.37Z" transform="translate(0.01 -21.92)"/><path class="cls-7" d="M65.51,153.34V147.4h1.26v.47h-.69v5h.69v.47Z" transform="translate(0.01 -21.92)"/><path class="cls-7" d="M67.29,152.05v-3.37h.52v.51a1.31,1.31,0,0,1,.36-.47.63.63,0,0,1,.37-.12,1.17,1.17,0,0,1,.59.19l-.2.53a.86.86,0,0,0-.42-.13.52.52,0,0,0-.34.12.58.58,0,0,0-.21.31,2.31,2.31,0,0,0-.09.67v1.76Z" transform="translate(0.01 -21.92)"/><path class="cls-7" d="M69,152.13l1.35-4.81h.45l-1.34,4.81Z" transform="translate(0.01 -21.92)"/><path class="cls-7" d="M71.27,152.05v-3.37h.51v.47a1.34,1.34,0,0,1,.42-.4,1.21,1.21,0,0,1,.6-.15,1.16,1.16,0,0,1,.62.16.86.86,0,0,1,.34.43,1.2,1.2,0,0,1,1-.59,1.05,1.05,0,0,1,.77.28,1.2,1.2,0,0,1,.27.86v2.31h-.57v-2.12a1.49,1.49,0,0,0-.06-.5.42.42,0,0,0-.2-.24.62.62,0,0,0-.34-.09.79.79,0,0,0-.59.24,1,1,0,0,0-.23.75v2h-.58v-2.19a.92.92,0,0,0-.14-.57.51.51,0,0,0-.45-.19.81.81,0,0,0-.45.13.75.75,0,0,0-.3.37,2.08,2.08,0,0,0-.09.7v1.75Z" transform="translate(0.01 -21.92)"/><path class="cls-7" d="M76.69,148.05v-.65h.57v.65Zm0,4v-3.37h.57v3.37Z" transform="translate(0.01 -21.92)"/><path class="cls-7" d="M78.13,152.05v-3.37h.51v.48a1.23,1.23,0,0,1,1.08-.56,1.47,1.47,0,0,1,.56.11.89.89,0,0,1,.38.29,1.33,1.33,0,0,1,.18.42,3.51,3.51,0,0,1,0,.56v2.07H80.3V150a1.38,1.38,0,0,0-.07-.52.5.5,0,0,0-.24-.28.71.71,0,0,0-.39-.1.92.92,0,0,0-.63.23,1.13,1.13,0,0,0-.27.88v1.84Z" transform="translate(0.01 -21.92)"/><path class="cls-7" d="M82.7,153.34H81.44v-.47h.69v-5h-.69v-.47H82.7Z" transform="translate(0.01 -21.92)"/></g></svg>