<svg xmlns="http://www.w3.org/2000/svg" viewBox="0 0 116.6 131.42"><defs><style>.cls-1,.cls-2,.cls-3,.cls-5,.cls-6,.繝医Ν繧ｯ繧ｰ繝ｩ繝廟繧ｰ繝ｬ繝ｼ邱,.邱喟0\.5pt-3{fill:none;}.cls-1,.cls-2,.cls-5,.邱喟0\.5pt-3{stroke:#231815;}.cls-1,.cls-3,.邱喟0\.5pt-3{stroke-miterlimit:10;}.cls-1{stroke-width:0.14px;}.cls-2{stroke-linejoin:round;stroke-width:0.14px;}.cls-3,.cls-6,.繝医Ν繧ｯ繧ｰ繝ｩ繝廟繧ｰ繝ｬ繝ｼ邱{stroke:#9fa0a0;}.cls-3{stroke-width:1px;stroke-dasharray:3.1 1.5;}.cls-4{fill:#231815;}.cls-6,.繝医Ν繧ｯ繧ｰ繝ｩ繝廟繧ｰ繝ｬ繝ｼ邱{stroke-width:3px;}.cls-6{stroke-linecap:square;}.繝後Μ_逋ｽ{fill:#fff;}.邱喟0\.5pt-3{stroke-width:0.5px;}</style></defs><g id="Illust"><line class="cls-1" x1="18.44" y1="16.35" x2="106.31" y2="16.35"/><line class="cls-1" x1="18.44" y1="30.52" x2="106.31" y2="30.52"/><line class="cls-1" x1="18.44" y1="44.7" x2="106.31" y2="44.7"/><line class="cls-1" x1="18.44" y1="58.87" x2="106.31" y2="58.87"/><line class="cls-1" x1="18.44" y1="73.04" x2="106.31" y2="73.04"/><line class="cls-1" x1="18.44" y1="87.22" x2="106.31" y2="87.22"/><line class="cls-1" x1="18.44" y1="101.39" x2="106.31" y2="101.39"/><line class="cls-2" x1="72.3" y1="2.24" x2="72.3" y2="115.56"/><line class="cls-2" x1="99.23" y1="2.24" x2="99.23" y2="115.56"/><line class="cls-3" x1="95.42" y1="103.52" x2="95.42" y2="115.37"/><path class="cls-4" d="M17.24,141.38a3.52,3.52,0,0,1,.13-1,1.28,1.28,0,0,1,.39-.59,1.14,1.14,0,0,1,1.15-.1.9.9,0,0,1,.36.34,1.73,1.73,0,0,1,.23.53,3.72,3.72,0,0,1,.08.84,3.52,3.52,0,0,1-.13,1,1.31,1.31,0,0,1-.39.6,1,1,0,0,1-.65.21,1,1,0,0,1-.81-.37A2.33,2.33,0,0,1,17.24,141.38Zm.45,0a2.25,2.25,0,0,0,.21,1.18.59.59,0,0,0,1,0,2.27,2.27,0,0,0,.2-1.18,2.2,2.2,0,0,0-.2-1.17.63.63,0,0,0-.52-.29.54.54,0,0,0-.48.26A2.24,2.24,0,0,0,17.69,141.38Z" transform="translate(0.01 -21.92)"/><path class="cls-4" d="M42.31,142.73v.42H39.94a.81.81,0,0,1,.06-.31,1.54,1.54,0,0,1,.28-.47,4.54,4.54,0,0,1,.58-.54,5.35,5.35,0,0,0,.79-.76,1,1,0,0,0,.2-.53.6.6,0,0,0-.18-.44.77.77,0,0,0-1,0,.7.7,0,0,0-.19.53l-.45,0a1.08,1.08,0,0,1,.35-.77,1.16,1.16,0,0,1,.81-.26,1.13,1.13,0,0,1,.81.28.94.94,0,0,1,.3.71,1,1,0,0,1-.08.42,1.75,1.75,0,0,1-.29.44c-.14.15-.37.36-.68.63a5.24,5.24,0,0,0-.51.45,2,2,0,0,0-.19.24Z" transform="translate(0.01 -21.92)"/><path class="cls-4" d="M42.78,141.38a3.2,3.2,0,0,1,.13-1,1.28,1.28,0,0,1,.39-.59,1.14,1.14,0,0,1,1.15-.1.9.9,0,0,1,.36.34,1.51,1.51,0,0,1,.22.53,3.22,3.22,0,0,1,.08.84,3.56,3.56,0,0,1-.12,1,1.31,1.31,0,0,1-.39.6,1.1,1.1,0,0,1-1.47-.16A2.41,2.41,0,0,1,42.78,141.38Zm.45,0a2.25,2.25,0,0,0,.21,1.18.59.59,0,0,0,1,0,2.38,2.38,0,0,0,.2-1.18,2.31,2.31,0,0,0-.2-1.17.63.63,0,0,0-.52-.29.54.54,0,0,0-.48.26A2.24,2.24,0,0,0,43.23,141.38Z" transform="translate(0.01 -21.92)"/><path class="cls-4" d="M45.56,141.38a3.52,3.52,0,0,1,.13-1,1.28,1.28,0,0,1,.39-.59,1.14,1.14,0,0,1,1.15-.1.9.9,0,0,1,.36.34,1.73,1.73,0,0,1,.23.53,3.72,3.72,0,0,1,.08.84,3.52,3.52,0,0,1-.13,1,1.31,1.31,0,0,1-.39.6,1,1,0,0,1-.65.21,1,1,0,0,1-.81-.37A2.33,2.33,0,0,1,45.56,141.38Zm.45,0a2.25,2.25,0,0,0,.21,1.18.59.59,0,0,0,1,0,2.27,2.27,0,0,0,.2-1.18,2.2,2.2,0,0,0-.2-1.17.63.63,0,0,0-.52-.29.54.54,0,0,0-.48.26A2.24,2.24,0,0,0,46,141.38Z" transform="translate(0.01 -21.92)"/><path class="cls-4" d="M48.34,141.38a3.52,3.52,0,0,1,.13-1,1.28,1.28,0,0,1,.39-.59,1.14,1.14,0,0,1,1.15-.1.9.9,0,0,1,.36.34,1.73,1.73,0,0,1,.23.53,3.72,3.72,0,0,1,.08.84,3.52,3.52,0,0,1-.13,1,1.31,1.31,0,0,1-.39.6,1,1,0,0,1-.65.21,1,1,0,0,1-.81-.37A2.33,2.33,0,0,1,48.34,141.38Zm.45,0a2.25,2.25,0,0,0,.21,1.18.59.59,0,0,0,1,0,2.27,2.27,0,0,0,.2-1.18,2.2,2.2,0,0,0-.2-1.17.63.63,0,0,0-.52-.29.54.54,0,0,0-.48.26A2.24,2.24,0,0,0,48.79,141.38Z" transform="translate(0.01 -21.92)"/><path class="cls-4" d="M68.34,143.15v-.86H66.79v-.4l1.63-2.32h.36v2.32h.48v.4h-.48v.86Zm0-1.26v-1.61l-1.12,1.61Z" transform="translate(0.01 -21.92)"/><path class="cls-4" d="M69.71,141.38a3.2,3.2,0,0,1,.13-1,1.28,1.28,0,0,1,.39-.59,1.14,1.14,0,0,1,1.15-.1.9.9,0,0,1,.36.34,1.51,1.51,0,0,1,.22.53,4.23,4.23,0,0,1,0,1.86,1.22,1.22,0,0,1-.38.6,1.1,1.1,0,0,1-1.47-.16A2.41,2.41,0,0,1,69.71,141.38Zm.45,0a2.25,2.25,0,0,0,.21,1.18.59.59,0,0,0,1,0,2.38,2.38,0,0,0,.2-1.18,2.34,2.34,0,0,0-.2-1.17.63.63,0,0,0-.52-.29.56.56,0,0,0-.48.26A2.24,2.24,0,0,0,70.16,141.38Z" transform="translate(0.01 -21.92)"/><path class="cls-4" d="M72.49,141.38a3.2,3.2,0,0,1,.13-1,1.28,1.28,0,0,1,.39-.59,1.14,1.14,0,0,1,1.15-.1.9.9,0,0,1,.36.34,1.51,1.51,0,0,1,.22.53,3.22,3.22,0,0,1,.08.84,3.56,3.56,0,0,1-.12,1,1.31,1.31,0,0,1-.39.6,1.1,1.1,0,0,1-1.47-.16A2.41,2.41,0,0,1,72.49,141.38Zm.45,0a2.25,2.25,0,0,0,.21,1.18.59.59,0,0,0,1,0,2.38,2.38,0,0,0,.2-1.18,2.34,2.34,0,0,0-.2-1.17.63.63,0,0,0-.52-.29.56.56,0,0,0-.48.26A2.24,2.24,0,0,0,72.94,141.38Z" transform="translate(0.01 -21.92)"/><path class="cls-4" d="M75.27,141.38a3.52,3.52,0,0,1,.13-1,1.28,1.28,0,0,1,.39-.59,1.14,1.14,0,0,1,1.15-.1.9.9,0,0,1,.36.34,1.73,1.73,0,0,1,.23.53,3.72,3.72,0,0,1,.08.84,3.52,3.52,0,0,1-.13,1,1.31,1.31,0,0,1-.39.6,1,1,0,0,1-.65.21,1,1,0,0,1-.81-.37A2.33,2.33,0,0,1,75.27,141.38Zm.45,0a2.25,2.25,0,0,0,.21,1.18.59.59,0,0,0,1,0,2.27,2.27,0,0,0,.2-1.18,2.23,2.23,0,0,0-.2-1.17.63.63,0,0,0-.52-.29.56.56,0,0,0-.48.26A2.24,2.24,0,0,0,75.72,141.38Z" transform="translate(0.01 -21.92)"/><path class="cls-4" d="M96.14,140.45l-.44,0a.9.9,0,0,0-.16-.38.6.6,0,0,0-.44-.18.65.65,0,0,0-.37.11,1,1,0,0,0-.33.45,2.22,2.22,0,0,0-.12.82,1,1,0,0,1,.38-.36,1.21,1.21,0,0,1,.49-.11,1,1,0,0,1,.74.32,1.16,1.16,0,0,1,.31.84,1.44,1.44,0,0,1-.14.62,1.1,1.1,0,0,1-.4.45,1.19,1.19,0,0,1-1.47-.25,2,2,0,0,1-.35-1.34,2.39,2.39,0,0,1,.38-1.5,1.1,1.1,0,0,1,.9-.41,1,1,0,0,1,.7.23A1,1,0,0,1,96.14,140.45ZM94.34,142a1,1,0,0,0,.1.43.7.7,0,0,0,.63.43.62.62,0,0,0,.48-.23.85.85,0,0,0,.2-.61.83.83,0,0,0-.19-.58.67.67,0,0,0-.5-.21.69.69,0,0,0-.51.21A.76.76,0,0,0,94.34,142Z" transform="translate(0.01 -21.92)"/><path class="cls-4" d="M96.64,141.38a3.2,3.2,0,0,1,.13-1,1.28,1.28,0,0,1,.39-.59,1.14,1.14,0,0,1,1.15-.1.9.9,0,0,1,.36.34,1.73,1.73,0,0,1,.22.53,4.23,4.23,0,0,1,0,1.86,1.22,1.22,0,0,1-.38.6,1.1,1.1,0,0,1-1.47-.16A2.41,2.41,0,0,1,96.64,141.38Zm.45,0a2.25,2.25,0,0,0,.21,1.18.6.6,0,0,0,.51.29.62.62,0,0,0,.51-.29,2.38,2.38,0,0,0,.2-1.18,2.31,2.31,0,0,0-.2-1.17.63.63,0,0,0-.52-.29.54.54,0,0,0-.48.26A2.24,2.24,0,0,0,97.09,141.38Z" transform="translate(0.01 -21.92)"/><path class="cls-4" d="M99.42,141.38a3.2,3.2,0,0,1,.13-1,1.28,1.28,0,0,1,.39-.59,1.14,1.14,0,0,1,1.15-.1.9.9,0,0,1,.36.34,1.51,1.51,0,0,1,.22.53,4.23,4.23,0,0,1,0,1.86,1.22,1.22,0,0,1-.38.6,1.1,1.1,0,0,1-1.47-.16A2.41,2.41,0,0,1,99.42,141.38Zm.45,0a2.25,2.25,0,0,0,.21,1.18.59.59,0,0,0,1,0,2.38,2.38,0,0,0,.2-1.18,2.31,2.31,0,0,0-.2-1.17.63.63,0,0,0-.52-.29.54.54,0,0,0-.48.26A2.24,2.24,0,0,0,99.87,141.38Z" transform="translate(0.01 -21.92)"/><path class="cls-4" d="M102.2,141.38a3.2,3.2,0,0,1,.13-1,1.28,1.28,0,0,1,.39-.59,1.14,1.14,0,0,1,1.15-.1.9.9,0,0,1,.36.34,1.51,1.51,0,0,1,.22.53,3.22,3.22,0,0,1,.08.84,3.56,3.56,0,0,1-.12,1,1.31,1.31,0,0,1-.39.6,1.1,1.1,0,0,1-1.47-.16A2.41,2.41,0,0,1,102.2,141.38Zm.45,0a2.25,2.25,0,0,0,.21,1.18.59.59,0,0,0,1,0,2.38,2.38,0,0,0,.2-1.18,2.31,2.31,0,0,0-.2-1.17.63.63,0,0,0-.52-.29.54.54,0,0,0-.48.26A2.24,2.24,0,0,0,102.65,141.38Z" transform="translate(0.01 -21.92)"/><path class="cls-4" d="M108.19,140.45l-.44,0a.8.8,0,0,0-.17-.37.56.56,0,0,0-.44-.19.61.61,0,0,0-.36.11,1,1,0,0,0-.33.45,2.41,2.41,0,0,0-.13.82,1,1,0,0,1,.39-.35,1,1,0,0,1,.48-.12,1,1,0,0,1,.75.32,1.16,1.16,0,0,1,.31.84,1.32,1.32,0,0,1-.15.62,1.08,1.08,0,0,1-.39.45,1.14,1.14,0,0,1-.58.15,1.12,1.12,0,0,1-.9-.4,2.07,2.07,0,0,1-.34-1.34,2.33,2.33,0,0,1,.38-1.5,1.08,1.08,0,0,1,.9-.41,1,1,0,0,1,1,.89Zm-1.8,1.54a.91.91,0,0,0,.1.43.7.7,0,0,0,.63.43.62.62,0,0,0,.48-.23.9.9,0,0,0,.2-.61.83.83,0,0,0-.2-.58.66.66,0,0,0-.5-.21.69.69,0,0,0-.5.21A.76.76,0,0,0,106.39,142Z" transform="translate(0.01 -21.92)"/><path class="cls-4" d="M108.69,142.21l.46,0a.77.77,0,0,0,.24.51.64.64,0,0,0,.45.17.68.68,0,0,0,.53-.24.88.88,0,0,0,.22-.63.83.83,0,0,0-.21-.6.75.75,0,0,0-.55-.22.8.8,0,0,0-.38.1.73.73,0,0,0-.27.25l-.42,0,.35-1.84h1.78V140h-1.43l-.19,1a1.17,1.17,0,0,1,.68-.22,1.1,1.1,0,0,1,.79.32,1.17,1.17,0,0,1,.32.84,1.31,1.31,0,0,1-.28.84,1.14,1.14,0,0,1-.94.43,1.17,1.17,0,0,1-.8-.27A1.06,1.06,0,0,1,108.69,142.21Z" transform="translate(0.01 -21.92)"/><path class="cls-4" d="M111.47,141.38a3.2,3.2,0,0,1,.13-1,1.2,1.2,0,0,1,.39-.59,1,1,0,0,1,.64-.21,1,1,0,0,1,.51.11,1.06,1.06,0,0,1,.36.34,1.73,1.73,0,0,1,.22.53,3.72,3.72,0,0,1,.08.84,3.2,3.2,0,0,1-.13,1,1.22,1.22,0,0,1-.38.6,1,1,0,0,1-.66.21,1,1,0,0,1-.81-.37A2.41,2.41,0,0,1,111.47,141.38Zm.45,0a2.25,2.25,0,0,0,.21,1.18.58.58,0,0,0,1,0,2.25,2.25,0,0,0,.21-1.18,2.2,2.2,0,0,0-.21-1.17.61.61,0,0,0-.51-.29.56.56,0,0,0-.48.26A2.15,2.15,0,0,0,111.92,141.38Z" transform="translate(0.01 -21.92)"/><path class="cls-4" d="M114.25,141.38a3.2,3.2,0,0,1,.13-1,1.28,1.28,0,0,1,.39-.59,1,1,0,0,1,.65-.21,1,1,0,0,1,.5.11.9.9,0,0,1,.36.34,1.73,1.73,0,0,1,.22.53,4.23,4.23,0,0,1,0,1.86,1.22,1.22,0,0,1-.38.6,1,1,0,0,1-.65.21,1,1,0,0,1-.82-.37A2.41,2.41,0,0,1,114.25,141.38Zm.45,0a2.25,2.25,0,0,0,.21,1.18.58.58,0,0,0,1,0,2.25,2.25,0,0,0,.21-1.18,2.2,2.2,0,0,0-.21-1.17.6.6,0,0,0-.51-.29.56.56,0,0,0-.48.26A2.24,2.24,0,0,0,114.7,141.38Z" transform="translate(0.01 -21.92)"/><line class="cls-2" x1="45.37" y1="2.18" x2="45.37" y2="115.5"/><polyline class="繝医Ν繧ｯ繧ｰ繝ｩ繝廟繧ｰ繝ｬ繝ｼ邱" points="18.44 93.01 25.28 93.01 32 93.01 45.56 93.01 59.01 93.01 72.58 98.63 86.02 102.05 99.59 104.38 106.31 105.23"/><polyline class="cls-5" points="18.44 93.01 25.28 93.01 32 93.01 45.56 93.01 59.01 93.01 72.58 98.63 86.02 102.05 99.59 104.38 106.31 105.23"/><polyline class="cls-6" points="18.44 14.16 45.56 14.16 53.68 36.65 53.68 36.65 106.31 78.7"/><polyline class="cls-5" points="18.44 14.16 41.51 14.16 48.23 36.65 106.31 85.18"/><rect class="繝後Μ_逋ｽ" x="106.31" y="2.18" width="2.83" height="113.39"/><rect class="繝後Μ_逋ｽ" x="15.6" y="2.18" width="2.83" height="113.39"/><rect class="邱喟0.5pt-3" x="18.44" y="2.18" width="87.87" height="113.39"/><path class="cls-4" d="M10.26,137.13a3.17,3.17,0,0,1,.14-1,1.22,1.22,0,0,1,.38-.6,1,1,0,0,1,.65-.21,1.07,1.07,0,0,1,.51.12,1.13,1.13,0,0,1,.36.33,2.25,2.25,0,0,1,.22.54,3.72,3.72,0,0,1,.08.84,3.2,3.2,0,0,1-.13,1,1.31,1.31,0,0,1-.39.6,1,1,0,0,1-.65.21,1,1,0,0,1-.81-.37A2.35,2.35,0,0,1,10.26,137.13Zm.46,0a2.38,2.38,0,0,0,.2,1.18.62.62,0,0,0,.51.29.61.61,0,0,0,.51-.3,3.36,3.36,0,0,0,0-2.34.6.6,0,0,0-.51-.29.57.57,0,0,0-.49.25A2.3,2.3,0,0,0,10.72,137.13Z" transform="translate(0.01 -21.92)"/><path class="cls-4" d="M13.29,138.9v-.5h.5v.5Z" transform="translate(0.01 -21.92)"/><path class="cls-4" d="M14.43,137.13a3.17,3.17,0,0,1,.14-1,1.22,1.22,0,0,1,.38-.6,1,1,0,0,1,.65-.21,1.07,1.07,0,0,1,.51.12,1.13,1.13,0,0,1,.36.33,2.25,2.25,0,0,1,.22.54,3.72,3.72,0,0,1,.08.84,3.2,3.2,0,0,1-.13,1,1.31,1.31,0,0,1-.39.6,1,1,0,0,1-.65.21,1,1,0,0,1-.81-.37A2.35,2.35,0,0,1,14.43,137.13Zm.46,0a2.38,2.38,0,0,0,.2,1.18.62.62,0,0,0,.51.29.61.61,0,0,0,.51-.3,3.36,3.36,0,0,0,0-2.34.6.6,0,0,0-.51-.29.57.57,0,0,0-.49.25A2.3,2.3,0,0,0,14.89,137.13Z" transform="translate(0.01 -21.92)"/><path class="cls-4" d="M12.57,124.3v.42H10.21a.79.79,0,0,1,0-.3,1.76,1.76,0,0,1,.29-.48,5.2,5.2,0,0,1,.57-.54,4.48,4.48,0,0,0,.79-.76.88.88,0,0,0,.21-.53.58.58,0,0,0-.19-.44.67.67,0,0,0-.49-.18.69.69,0,0,0-.5.19.72.72,0,0,0-.2.53l-.45,0a1.1,1.1,0,0,1,.35-.77,1.17,1.17,0,0,1,.81-.27,1.14,1.14,0,0,1,.82.29.92.92,0,0,1,.3.7,1.07,1.07,0,0,1-.09.43,1.62,1.62,0,0,1-.29.43,5.7,5.7,0,0,1-.68.63l-.51.45a1.88,1.88,0,0,0-.18.24Z" transform="translate(0.01 -21.92)"/><path class="cls-4" d="M13.29,124.72v-.5h.5v.5Z" transform="translate(0.01 -21.92)"/><path class="cls-4" d="M14.43,123a3.17,3.17,0,0,1,.14-1,1.22,1.22,0,0,1,.38-.6,1,1,0,0,1,.65-.21,1.07,1.07,0,0,1,.51.12,1,1,0,0,1,.36.33,2.17,2.17,0,0,1,.22.53,3.76,3.76,0,0,1,.08.85,3.2,3.2,0,0,1-.13,1,1.33,1.33,0,0,1-.39.59,1,1,0,0,1-.65.22,1,1,0,0,1-.81-.38A2.3,2.3,0,0,1,14.43,123Zm.46,0a2.31,2.31,0,0,0,.2,1.17.59.59,0,0,0,1,0,2.18,2.18,0,0,0,.21-1.17,2.25,2.25,0,0,0-.21-1.18.62.62,0,0,0-.51-.29.58.58,0,0,0-.49.26A2.3,2.3,0,0,0,14.89,123Z" transform="translate(0.01 -21.92)"/><path class="cls-4" d="M11.67,110.55v-.86H10.12v-.4L11.75,107h.36v2.32h.49v.4h-.49v.86Zm0-1.26v-1.61l-1.12,1.61Z" transform="translate(0.01 -21.92)"/><path class="cls-4" d="M13.29,110.55v-.5h.5v.5Z" transform="translate(0.01 -21.92)"/><path class="cls-4" d="M14.43,108.79a3.19,3.19,0,0,1,.14-1,1.24,1.24,0,0,1,.38-.59,1,1,0,0,1,.65-.21,1.19,1.19,0,0,1,.51.11,1.06,1.06,0,0,1,.36.34,2,2,0,0,1,.22.53,3.76,3.76,0,0,1,.08.85,3.14,3.14,0,0,1-.13,1,1.31,1.31,0,0,1-.39.6,1,1,0,0,1-.65.21,1,1,0,0,1-.81-.37A2.32,2.32,0,0,1,14.43,108.79Zm.46,0a2.36,2.36,0,0,0,.2,1.17.59.59,0,0,0,1,0,3.39,3.39,0,0,0,0-2.35.62.62,0,0,0-.51-.29.58.58,0,0,0-.49.26A2.3,2.3,0,0,0,14.89,108.79Z" transform="translate(0.01 -21.92)"/><path class="cls-4" d="M12.55,93.68l-.44,0a.9.9,0,0,0-.17-.38.59.59,0,0,0-.44-.18.6.6,0,0,0-.37.11,1.07,1.07,0,0,0-.32.44,2.48,2.48,0,0,0-.13.83,1.11,1.11,0,0,1,.39-.36,1.06,1.06,0,0,1,1.23.21,1.13,1.13,0,0,1,.31.84,1.32,1.32,0,0,1-.15.62,1,1,0,0,1-.4.44,1,1,0,0,1-.57.16,1.13,1.13,0,0,1-.9-.41,2,2,0,0,1-.34-1.33,2.38,2.38,0,0,1,.38-1.51,1.1,1.1,0,0,1,.9-.41,1,1,0,0,1,.69.24A1,1,0,0,1,12.55,93.68Zm-1.8,1.54a.94.94,0,0,0,.1.43.7.7,0,0,0,.63.43.62.62,0,0,0,.48-.23.9.9,0,0,0,.2-.61.82.82,0,0,0-.2-.58.67.67,0,0,0-.5-.22.68.68,0,0,0-.5.22A.76.76,0,0,0,10.75,95.22Z" transform="translate(0.01 -21.92)"/><path class="cls-4" d="M13.29,96.38v-.5h.5v.5Z" transform="translate(0.01 -21.92)"/><path class="cls-4" d="M14.43,94.61a3.17,3.17,0,0,1,.14-1A1.22,1.22,0,0,1,15,93a1,1,0,0,1,.65-.21,1.07,1.07,0,0,1,.51.12,1.13,1.13,0,0,1,.36.33,2.25,2.25,0,0,1,.22.54,3.72,3.72,0,0,1,.08.84,3.2,3.2,0,0,1-.13,1,1.31,1.31,0,0,1-.39.6,1,1,0,0,1-.65.21,1,1,0,0,1-.81-.37A2.35,2.35,0,0,1,14.43,94.61Zm.46,0a2.38,2.38,0,0,0,.2,1.18.62.62,0,0,0,.51.29.61.61,0,0,0,.51-.3,3.36,3.36,0,0,0,0-2.34.6.6,0,0,0-.51-.29.57.57,0,0,0-.49.25A2.33,2.33,0,0,0,14.89,94.61Z" transform="translate(0.01 -21.92)"/><path class="cls-4" d="M10.94,80.42a.78.78,0,0,1-.4-.29.72.72,0,0,1-.14-.44.91.91,0,0,1,.28-.66,1.09,1.09,0,0,1,.75-.26,1.07,1.07,0,0,1,.76.27.87.87,0,0,1,.28.66.69.69,0,0,1-.13.43.82.82,0,0,1-.4.29,1,1,0,0,1,.51.35,1,1,0,0,1,.17.57,1,1,0,0,1-.33.77,1.16,1.16,0,0,1-.85.31,1.2,1.2,0,0,1-.86-.31,1.07,1.07,0,0,1-.32-.79.93.93,0,0,1,.18-.58A.84.84,0,0,1,10.94,80.42Zm-.23.91a.8.8,0,0,0,.09.36.59.59,0,0,0,.27.27.69.69,0,0,0,.37.1.72.72,0,0,0,.52-.2.75.75,0,0,0,0-1,.72.72,0,0,0-.53-.21.69.69,0,0,0-.51.2A.7.7,0,0,0,10.71,81.33Zm.14-1.66a.57.57,0,0,0,.17.42.63.63,0,0,0,.84,0A.53.53,0,0,0,12,79.7a.57.57,0,0,0-.17-.41.56.56,0,0,0-.41-.16.57.57,0,0,0-.42.16A.52.52,0,0,0,10.85,79.67Z" transform="translate(0.01 -21.92)"/><path class="cls-4" d="M13.29,82.36v-.5h.5v.5Z" transform="translate(0.01 -21.92)"/><path class="cls-4" d="M14.43,80.59a3.17,3.17,0,0,1,.14-1A1.24,1.24,0,0,1,15,79a1,1,0,0,1,.65-.21.95.95,0,0,1,.87.45,2,2,0,0,1,.22.53,3.72,3.72,0,0,1,.08.84,3.2,3.2,0,0,1-.13,1,1.31,1.31,0,0,1-.39.6,1,1,0,0,1-.65.21,1,1,0,0,1-.81-.37A2.33,2.33,0,0,1,14.43,80.59Zm.46,0a2.38,2.38,0,0,0,.2,1.18.59.59,0,0,0,1,0,2.25,2.25,0,0,0,.21-1.18,2.2,2.2,0,0,0-.21-1.17.62.62,0,0,0-.51-.29.58.58,0,0,0-.49.26A2.26,2.26,0,0,0,14.89,80.59Z" transform="translate(0.01 -21.92)"/><path class="cls-4" d="M9.14,68H8.7v-2.8a2.18,2.18,0,0,1-.42.3,2.18,2.18,0,0,1-.46.23v-.42a3,3,0,0,0,.65-.42,2,2,0,0,0,.39-.48h.28Z" transform="translate(0.01 -21.92)"/><path class="cls-4" d="M10.26,66.27a3.19,3.19,0,0,1,.14-1,1.24,1.24,0,0,1,.38-.59,1,1,0,0,1,.65-.21,1.19,1.19,0,0,1,.51.11,1.06,1.06,0,0,1,.36.34,2,2,0,0,1,.22.53,3.76,3.76,0,0,1,.08.85,3.09,3.09,0,0,1-.13,1,1.31,1.31,0,0,1-.39.6,1,1,0,0,1-.65.21,1,1,0,0,1-.81-.37A2.32,2.32,0,0,1,10.26,66.27Zm.46,0a2.36,2.36,0,0,0,.2,1.17.59.59,0,0,0,1,0,3.39,3.39,0,0,0,0-2.35.62.62,0,0,0-.51-.29.58.58,0,0,0-.49.26A2.3,2.3,0,0,0,10.72,66.27Z" transform="translate(0.01 -21.92)"/><path class="cls-4" d="M13.29,68v-.5h.5V68Z" transform="translate(0.01 -21.92)"/><path class="cls-4" d="M14.43,66.27a3.19,3.19,0,0,1,.14-1,1.24,1.24,0,0,1,.38-.59,1,1,0,0,1,.65-.21,1.19,1.19,0,0,1,.51.11,1.06,1.06,0,0,1,.36.34,2,2,0,0,1,.22.53,3.76,3.76,0,0,1,.08.85,3.09,3.09,0,0,1-.13,1,1.31,1.31,0,0,1-.39.6,1,1,0,0,1-.65.21,1,1,0,0,1-.81-.37A2.32,2.32,0,0,1,14.43,66.27Zm.46,0a2.36,2.36,0,0,0,.2,1.17.59.59,0,0,0,1,0,3.39,3.39,0,0,0,0-2.35.62.62,0,0,0-.51-.29.58.58,0,0,0-.49.26A2.3,2.3,0,0,0,14.89,66.27Z" transform="translate(0.01 -21.92)"/><path class="cls-4" d="M9.14,53.86H8.7v-2.8a2.18,2.18,0,0,1-.42.3,2.81,2.81,0,0,1-.46.23v-.43a2.42,2.42,0,0,0,.65-.42,1.65,1.65,0,0,0,.39-.48h.28Z" transform="translate(0.01 -21.92)"/><path class="cls-4" d="M12.57,53.44v.42H10.21a.81.81,0,0,1,0-.31,1.58,1.58,0,0,1,.29-.47,4.37,4.37,0,0,1,.57-.55,4.51,4.51,0,0,0,.79-.75.92.92,0,0,0,.21-.53.56.56,0,0,0-.19-.44.67.67,0,0,0-.49-.18.65.65,0,0,0-.5.19.71.71,0,0,0-.2.53l-.45-.05a1.12,1.12,0,0,1,.35-.77,1.17,1.17,0,0,1,.81-.27,1.14,1.14,0,0,1,.82.29.94.94,0,0,1,.3.71,1.06,1.06,0,0,1-.09.42,1.66,1.66,0,0,1-.29.44,8.11,8.11,0,0,1-.68.63L11,53.2a1.88,1.88,0,0,0-.18.24Z" transform="translate(0.01 -21.92)"/><path class="cls-4" d="M13.29,53.86v-.5h.5v.5Z" transform="translate(0.01 -21.92)"/><path class="cls-4" d="M14.43,52.09a3.17,3.17,0,0,1,.14-1,1.22,1.22,0,0,1,.38-.6,1,1,0,0,1,.65-.21,1.07,1.07,0,0,1,.51.12,1.13,1.13,0,0,1,.36.33,2.25,2.25,0,0,1,.22.54,3.72,3.72,0,0,1,.08.84,3.2,3.2,0,0,1-.13,1,1.31,1.31,0,0,1-.39.6,1,1,0,0,1-.65.21,1,1,0,0,1-.81-.37A2.33,2.33,0,0,1,14.43,52.09Zm.46,0a2.38,2.38,0,0,0,.2,1.18.62.62,0,0,0,.51.29.61.61,0,0,0,.51-.3,3.36,3.36,0,0,0,0-2.34.6.6,0,0,0-.51-.29.57.57,0,0,0-.49.25A2.33,2.33,0,0,0,14.89,52.09Z" transform="translate(0.01 -21.92)"/><path class="cls-4" d="M9.14,39.68H8.7v-2.8a1.83,1.83,0,0,1-.42.31,2.69,2.69,0,0,1-.46.22V37a3,3,0,0,0,.65-.42,1.65,1.65,0,0,0,.39-.48h.28Z" transform="translate(0.01 -21.92)"/><path class="cls-4" d="M11.67,39.68v-.85H10.12v-.4l1.63-2.32h.36v2.32h.49v.4h-.49v.85Zm0-1.25V36.81l-1.12,1.62Z" transform="translate(0.01 -21.92)"/><path class="cls-4" d="M13.29,39.68v-.5h.5v.5Z" transform="translate(0.01 -21.92)"/><path class="cls-4" d="M14.43,37.92a3.17,3.17,0,0,1,.14-1,1.22,1.22,0,0,1,.38-.6,1,1,0,0,1,.65-.21,1.07,1.07,0,0,1,.51.12,1,1,0,0,1,.36.33,2.17,2.17,0,0,1,.22.53,3.76,3.76,0,0,1,.08.85,3.2,3.2,0,0,1-.13,1,1.33,1.33,0,0,1-.39.59,1,1,0,0,1-.65.22,1,1,0,0,1-.81-.38A2.3,2.3,0,0,1,14.43,37.92Zm.46,0a2.31,2.31,0,0,0,.2,1.17.59.59,0,0,0,1,0,2.18,2.18,0,0,0,.21-1.17,2.18,2.18,0,0,0-.21-1.17.61.61,0,0,0-.51-.3.58.58,0,0,0-.49.26A2.3,2.3,0,0,0,14.89,37.92Z" transform="translate(0.01 -21.92)"/><path class="cls-4" d="M9.14,25.51H8.7v-2.8a2.18,2.18,0,0,1-.42.3,2.18,2.18,0,0,1-.46.23v-.42a3,3,0,0,0,.65-.42,2,2,0,0,0,.39-.48h.28Z" transform="translate(0.01 -21.92)"/><path class="cls-4" d="M12.55,22.81l-.44,0a.85.85,0,0,0-.17-.37.56.56,0,0,0-.44-.19.61.61,0,0,0-.37.12,1,1,0,0,0-.32.44,2.43,2.43,0,0,0-.13.83,1,1,0,0,1,.39-.36,1,1,0,0,1,.48-.12,1,1,0,0,1,.75.32,1.16,1.16,0,0,1,.31.84,1.39,1.39,0,0,1-.15.63,1,1,0,0,1-.4.44,1.1,1.1,0,0,1-.57.15,1.12,1.12,0,0,1-.9-.4,2,2,0,0,1-.34-1.33,2.34,2.34,0,0,1,.38-1.51,1.08,1.08,0,0,1,.9-.41,1,1,0,0,1,1,.89Zm-1.8,1.54a1,1,0,0,0,.1.44.68.68,0,0,0,.27.31.59.59,0,0,0,.36.11A.61.61,0,0,0,12,25a.91.91,0,0,0,.2-.61.84.84,0,0,0-.2-.59.66.66,0,0,0-.5-.21.67.67,0,0,0-.5.21A.76.76,0,0,0,10.75,24.35Z" transform="translate(0.01 -21.92)"/><path class="cls-4" d="M13.29,25.51V25h.5v.5Z" transform="translate(0.01 -21.92)"/><path class="cls-4" d="M14.43,23.75a3.19,3.19,0,0,1,.14-1,1.24,1.24,0,0,1,.38-.59,1,1,0,0,1,.65-.21,1.19,1.19,0,0,1,.51.11,1.06,1.06,0,0,1,.36.34,2,2,0,0,1,.22.53,3.76,3.76,0,0,1,.08.85,3.09,3.09,0,0,1-.13,1,1.31,1.31,0,0,1-.39.6,1,1,0,0,1-.65.21,1,1,0,0,1-.81-.37A2.32,2.32,0,0,1,14.43,23.75Zm.46,0a2.36,2.36,0,0,0,.2,1.17.59.59,0,0,0,1,0,2.23,2.23,0,0,0,.21-1.17,2.25,2.25,0,0,0-.21-1.18.62.62,0,0,0-.51-.29.58.58,0,0,0-.49.26A2.3,2.3,0,0,0,14.89,23.75Z" transform="translate(0.01 -21.92)"/></g><g id="English"><path class="cls-4" d="M4.64,98.27H.54V99.8H0V96.11H.54v1.54h4.1Z" transform="translate(0.01 -21.92)"/><path class="cls-4" d="M3,95.77a1.72,1.72,0,0,1-1.38-.52,1.58,1.58,0,0,1-.38-1.06,1.5,1.5,0,0,1,.46-1.14,1.74,1.74,0,0,1,1.26-.44,2.22,2.22,0,0,1,1,.2,1.42,1.42,0,0,1,.58.56,1.64,1.64,0,0,1,.21.82,1.52,1.52,0,0,1-.46,1.14A1.82,1.82,0,0,1,3,95.77Zm0-.59a1.41,1.41,0,0,0,1-.28.91.91,0,0,0,.33-.71.89.89,0,0,0-.33-.71,1.43,1.43,0,0,0-1-.28,1.38,1.38,0,0,0-.95.28A.95.95,0,0,0,2,94.9,1.39,1.39,0,0,0,3,95.18Z" transform="translate(0.01 -21.92)"/><path class="cls-4" d="M4.64,92H1.27v-.52h.51a1.31,1.31,0,0,1-.47-.36.61.61,0,0,1-.12-.37,1,1,0,0,1,.19-.58l.53.19a.76.76,0,0,0-.13.42.52.52,0,0,0,.12.34.58.58,0,0,0,.31.21,2.28,2.28,0,0,0,.66.1H4.64Z" transform="translate(0.01 -21.92)"/><path class="cls-4" d="M5.93,87.63H4.28a1,1,0,0,1,.31.37,1.14,1.14,0,0,1,.13.51,1.34,1.34,0,0,1-.48,1A1.9,1.9,0,0,1,2.92,90,2.21,2.21,0,0,1,2,89.8a1.33,1.33,0,0,1-.82-1.25,1.14,1.14,0,0,1,.53-1H1.27v-.51H5.93Zm-3,1.76a1.51,1.51,0,0,0,1-.27.81.81,0,0,0,0-1.29A1.46,1.46,0,0,0,3,87.57a1.57,1.57,0,0,0-1,.28.83.83,0,0,0-.34.65.79.79,0,0,0,.32.63A1.55,1.55,0,0,0,2.94,89.39Z" transform="translate(0.01 -21.92)"/><path class="cls-4" d="M4.64,84h-.5A1.22,1.22,0,0,1,4.72,85a1.31,1.31,0,0,1-.12.56.82.82,0,0,1-.29.38.9.9,0,0,1-.42.18,3.33,3.33,0,0,1-.53,0H1.27V85.6H3.14a3.77,3.77,0,0,0,.6,0,.63.63,0,0,0,.36-.23.75.75,0,0,0,.12-.43.91.91,0,0,0-.13-.48.7.7,0,0,0-.36-.32,1.63,1.63,0,0,0-.66-.1H1.27v-.57H4.64Z" transform="translate(0.01 -21.92)"/><path class="cls-4" d="M3.55,80.24l.08-.59a1.39,1.39,0,0,1,.8.52,1.72,1.72,0,0,1-.17,2.13A1.77,1.77,0,0,1,3,82.74a1.9,1.9,0,0,1-1.32-.44,1.49,1.49,0,0,1-.47-1.14,1.45,1.45,0,0,1,.46-1.1A1.82,1.82,0,0,1,3,79.63H3.1v2.52A1.29,1.29,0,0,0,4,81.83a.92.92,0,0,0,.3-.7.89.89,0,0,0-.17-.54A1.07,1.07,0,0,0,3.55,80.24Zm-.92,1.87V80.23a1.18,1.18,0,0,0-.64.22.88.88,0,0,0-.33.71.9.9,0,0,0,.27.66A1,1,0,0,0,2.63,82.11Z" transform="translate(0.01 -21.92)"/><path class="cls-4" d="M5.93,77.11H0V75.85H.46v.69h5v-.69h.47Z" transform="translate(0.01 -21.92)"/><path class="cls-4" d="M4.64,75.25H0v-.63l3.65-2.44H0v-.59H4.64v.63L1,74.66H4.64Z" transform="translate(0.01 -21.92)"/><path class="cls-4" d="M2.36,70.71a.78.78,0,0,1-.57-.24.79.79,0,0,1-.23-.57.81.81,0,0,1,1.37-.57.78.78,0,0,1,.24.57.76.76,0,0,1-.24.57A.78.78,0,0,1,2.36,70.71Z" transform="translate(0.01 -21.92)"/><path class="cls-4" d="M4.64,68.35H1.27v-.51h.47a1.34,1.34,0,0,1-.4-.42,1.21,1.21,0,0,1-.15-.6,1.08,1.08,0,0,1,.16-.62.86.86,0,0,1,.43-.34,1.2,1.2,0,0,1-.59-1,1.05,1.05,0,0,1,.28-.77,1.2,1.2,0,0,1,.86-.27H4.64v.57H2.52a1.49,1.49,0,0,0-.5.06.42.42,0,0,0-.24.2.62.62,0,0,0-.09.34.82.82,0,0,0,.23.59,1,1,0,0,0,.76.24h2v.57H2.45a.92.92,0,0,0-.57.14.51.51,0,0,0-.19.45.89.89,0,0,0,.12.45.77.77,0,0,0,.38.3,2.08,2.08,0,0,0,.7.09H4.64Z" transform="translate(0.01 -21.92)"/><path class="cls-4" d="M5.93,62v1.26H5.46v-.69h-5v.69H0V62Z" transform="translate(0.01 -21.92)"/><rect class="繝後Μ_逋ｽ" x="19.86" y="57.88" width="47.91" height="16.58"/><path class="cls-4" d="M22.34,84.66l.59,0a1.24,1.24,0,0,0,.19.58,1.13,1.13,0,0,0,.47.36,1.8,1.8,0,0,0,.71.13,1.72,1.72,0,0,0,.62-.1.83.83,0,0,0,.4-.29.63.63,0,0,0,0-.78,1,1,0,0,0-.42-.27,7.21,7.21,0,0,0-.83-.23,4.09,4.09,0,0,1-.9-.29,1.23,1.23,0,0,1-.49-.43,1.09,1.09,0,0,1-.17-.58,1.19,1.19,0,0,1,.2-.66,1.33,1.33,0,0,1,.59-.47,2.3,2.3,0,0,1,.85-.15,2.35,2.35,0,0,1,.91.16,1.31,1.31,0,0,1,.61.49,1.44,1.44,0,0,1,.23.74l-.59,0a1,1,0,0,0-.32-.67,1.28,1.28,0,0,0-.81-.22,1.35,1.35,0,0,0-.82.2.62.62,0,0,0-.25.5.54.54,0,0,0,.18.41,2.32,2.32,0,0,0,.92.33,5.37,5.37,0,0,1,1,.3,1.3,1.3,0,0,1,.59.47,1.14,1.14,0,0,1,.2.66,1.27,1.27,0,0,1-.21.7,1.46,1.46,0,0,1-.61.51,2,2,0,0,1-.9.19,2.54,2.54,0,0,1-1.06-.19,1.45,1.45,0,0,1-.67-.55A1.63,1.63,0,0,1,22.34,84.66Z" transform="translate(0.01 -21.92)"/><path class="cls-4" d="M26.82,86.16V81.5h.57v1.67a1.29,1.29,0,0,1,1-.46,1.36,1.36,0,0,1,.65.15.86.86,0,0,1,.39.41,1.83,1.83,0,0,1,.12.75v2.14H29V84a.9.9,0,0,0-.18-.62.71.71,0,0,0-.53-.2,1,1,0,0,0-.48.13.79.79,0,0,0-.32.36,1.73,1.73,0,0,0-.09.62v1.85Z" transform="translate(0.01 -21.92)"/><path class="cls-4" d="M30.22,84.47a1.72,1.72,0,0,1,.52-1.38,1.57,1.57,0,0,1,1.06-.38,1.51,1.51,0,0,1,1.14.46,1.73,1.73,0,0,1,.44,1.25,2.24,2.24,0,0,1-.2,1,1.39,1.39,0,0,1-.57.58,1.6,1.6,0,0,1-.81.2,1.51,1.51,0,0,1-1.14-.45A1.78,1.78,0,0,1,30.22,84.47Zm.59,0a1.42,1.42,0,0,0,.28,1,.88.88,0,0,0,.71.32.9.9,0,0,0,.71-.32,1.46,1.46,0,0,0,.28-1,1.37,1.37,0,0,0-.28-.94.94.94,0,0,0-1.42,0A1.44,1.44,0,0,0,30.81,84.47Z" transform="translate(0.01 -21.92)"/><path class="cls-4" d="M34,86.16V82.79h.51v.51a1.43,1.43,0,0,1,.37-.47.6.6,0,0,1,.36-.12,1.12,1.12,0,0,1,.59.18l-.2.53a.78.78,0,0,0-.41-.12.58.58,0,0,0-.34.11.6.6,0,0,0-.21.32,2,2,0,0,0-.1.66v1.77Z" transform="translate(0.01 -21.92)"/><path class="cls-4" d="M37.46,85.65l.08.5a2.37,2.37,0,0,1-.43,0,.9.9,0,0,1-.48-.1.48.48,0,0,1-.24-.25,2,2,0,0,1-.07-.68V83.23H35.9v-.44h.42V82l.56-.34v1.18h.58v.44h-.58v2a1,1,0,0,0,0,.32.35.35,0,0,0,.1.11.5.5,0,0,0,.2,0Z" transform="translate(0.01 -21.92)"/><path class="cls-4" d="M37.79,84.76v-.57h1.76v.57Z" transform="translate(0.01 -21.92)"/><path class="cls-4" d="M42.37,86.16v-.43a1,1,0,0,1-.94.5,1.34,1.34,0,0,1-.75-.22,1.52,1.52,0,0,1-.52-.62,2.17,2.17,0,0,1-.18-.91,2.43,2.43,0,0,1,.16-.92,1.39,1.39,0,0,1,.51-.63,1.3,1.3,0,0,1,.75-.22,1.08,1.08,0,0,1,.54.13,1.27,1.27,0,0,1,.39.33V81.5h.57v4.66Zm-1.81-1.68a1.39,1.39,0,0,0,.28,1,.79.79,0,0,0,.64.32.83.83,0,0,0,.64-.3,1.46,1.46,0,0,0,.26-.94,1.54,1.54,0,0,0-.27-1,.82.82,0,0,0-.66-.33.81.81,0,0,0-.63.31A1.56,1.56,0,0,0,40.56,84.48Z" transform="translate(0.01 -21.92)"/><path class="cls-4" d="M46,86.16v-.5a1.25,1.25,0,0,1-1.07.57,1.3,1.3,0,0,1-.56-.11.92.92,0,0,1-.56-.71,3.07,3.07,0,0,1,0-.53V82.79h.58v1.87a3.86,3.86,0,0,0,0,.6.57.57,0,0,0,.23.35.67.67,0,0,0,.43.13.91.91,0,0,0,.48-.13.74.74,0,0,0,.32-.36,1.83,1.83,0,0,0,.1-.66v-1.8h.57v3.37Z" transform="translate(0.01 -21.92)"/><path class="cls-4" d="M47.41,86.16V82.79h.51v.51a1.31,1.31,0,0,1,.36-.47.63.63,0,0,1,.37-.12,1.15,1.15,0,0,1,.59.18l-.2.53a.84.84,0,0,0-.42-.12.56.56,0,0,0-.55.43,2.29,2.29,0,0,0-.09.66v1.77Z" transform="translate(0.01 -21.92)"/><path class="cls-4" d="M51.78,85.74a2.12,2.12,0,0,1-.62.38,1.61,1.61,0,0,1-.63.11,1.22,1.22,0,0,1-.85-.27.89.89,0,0,1-.3-.69,1,1,0,0,1,.41-.78,1.4,1.4,0,0,1,.41-.19,3,3,0,0,1,.51-.08,6.26,6.26,0,0,0,1-.2v-.15a.61.61,0,0,0-.16-.49,1,1,0,0,0-.65-.2,1,1,0,0,0-.6.15.88.88,0,0,0-.28.49l-.56-.07a1.48,1.48,0,0,1,.25-.58,1.12,1.12,0,0,1,.51-.34,2.2,2.2,0,0,1,.76-.12,2,2,0,0,1,.7.1,1,1,0,0,1,.4.26,1,1,0,0,1,.18.39,2.94,2.94,0,0,1,0,.52v.77a9.64,9.64,0,0,0,0,1,1.27,1.27,0,0,0,.15.41h-.6A1.08,1.08,0,0,1,51.78,85.74Zm-.05-1.27a4.63,4.63,0,0,1-.94.21,1.9,1.9,0,0,0-.49.12.47.47,0,0,0-.23.18.5.5,0,0,0-.08.27.49.49,0,0,0,.17.38.73.73,0,0,0,.51.16,1.15,1.15,0,0,0,.59-.15.89.89,0,0,0,.38-.39,1.41,1.41,0,0,0,.09-.57Z" transform="translate(0.01 -21.92)"/><path class="cls-4" d="M54.44,85.65l.08.5a2.37,2.37,0,0,1-.43,0,.9.9,0,0,1-.48-.1.48.48,0,0,1-.24-.25,2,2,0,0,1-.07-.68V83.23h-.42v-.44h.42V82l.56-.34v1.18h.58v.44h-.58v2a1,1,0,0,0,0,.32.35.35,0,0,0,.1.11.5.5,0,0,0,.2,0Z" transform="translate(0.01 -21.92)"/><path class="cls-4" d="M55,82.16V81.5h.57v.66Zm0,4V82.79h.57v3.37Z" transform="translate(0.01 -21.92)"/><path class="cls-4" d="M56.23,84.47a1.72,1.72,0,0,1,.52-1.38,1.57,1.57,0,0,1,1.06-.38,1.51,1.51,0,0,1,1.14.46,1.73,1.73,0,0,1,.44,1.25,2.24,2.24,0,0,1-.2,1,1.39,1.39,0,0,1-.57.58,1.62,1.62,0,0,1-.81.2,1.51,1.51,0,0,1-1.14-.45A1.78,1.78,0,0,1,56.23,84.47Zm.59,0a1.42,1.42,0,0,0,.28,1,.88.88,0,0,0,.71.32.9.9,0,0,0,.71-.32,1.46,1.46,0,0,0,.28-1,1.37,1.37,0,0,0-.29-.94.87.87,0,0,0-.7-.33.91.91,0,0,0-.71.32A1.44,1.44,0,0,0,56.82,84.47Z" transform="translate(0.01 -21.92)"/><path class="cls-4" d="M60.06,86.16V82.79h.51v.48a1.22,1.22,0,0,1,1.07-.56,1.43,1.43,0,0,1,.56.11.91.91,0,0,1,.39.29,1.13,1.13,0,0,1,.17.42,3.21,3.21,0,0,1,0,.56v2.07h-.58v-2a1.63,1.63,0,0,0-.06-.52.6.6,0,0,0-.24-.28.74.74,0,0,0-.4-.1.91.91,0,0,0-.63.23,1.17,1.17,0,0,0-.26.88v1.84Z" transform="translate(0.01 -21.92)"/><path class="cls-4" d="M22.47,94V90.59H23v.51a1.31,1.31,0,0,1,.36-.47.63.63,0,0,1,.37-.12,1.15,1.15,0,0,1,.59.18l-.2.53a.84.84,0,0,0-.42-.12.56.56,0,0,0-.55.43,2.29,2.29,0,0,0-.09.66V94Z" transform="translate(0.01 -21.92)"/><path class="cls-4" d="M26.85,94v-.5a1.22,1.22,0,0,1-1.06.57,1.3,1.3,0,0,1-.56-.11.87.87,0,0,1-.56-.71,2.3,2.3,0,0,1,0-.53V90.59h.57v1.87a3.5,3.5,0,0,0,0,.6.57.57,0,0,0,.23.35.67.67,0,0,0,.43.13.91.91,0,0,0,.48-.13.74.74,0,0,0,.32-.36,1.86,1.86,0,0,0,.09-.66v-1.8h.58V94Z" transform="translate(0.01 -21.92)"/><path class="cls-4" d="M28.26,94V90.59h.51v.48a1.23,1.23,0,0,1,1.08-.56,1.47,1.47,0,0,1,.56.11.82.82,0,0,1,.38.29,1.33,1.33,0,0,1,.18.42,3.51,3.51,0,0,1,0,.56V94h-.57v-2a1.34,1.34,0,0,0-.07-.52.53.53,0,0,0-.23-.28.77.77,0,0,0-.4-.1.88.88,0,0,0-.63.23,1.13,1.13,0,0,0-.27.88V94Z" transform="translate(0.01 -21.92)"/><path class="cls-4" d="M31.88,94V90.59h.51v.48a1.21,1.21,0,0,1,1.07-.56,1.43,1.43,0,0,1,.56.11.91.91,0,0,1,.39.29,1.13,1.13,0,0,1,.17.42,3.51,3.51,0,0,1,0,.56V94H34v-2a1.63,1.63,0,0,0-.06-.52.6.6,0,0,0-.24-.28.74.74,0,0,0-.4-.1.91.91,0,0,0-.63.23,1.17,1.17,0,0,0-.26.88V94Z" transform="translate(0.01 -21.92)"/><path class="cls-4" d="M35.49,90V89.3h.58V90Zm0,4V90.59h.58V94Z" transform="translate(0.01 -21.92)"/><path class="cls-4" d="M36.93,94V90.59h.52v.48a1.21,1.21,0,0,1,1.07-.56,1.47,1.47,0,0,1,.56.11.82.82,0,0,1,.38.29,1,1,0,0,1,.18.42,3.51,3.51,0,0,1,0,.56V94H39.1v-2a1.63,1.63,0,0,0-.06-.52.6.6,0,0,0-.24-.28.74.74,0,0,0-.4-.1.91.91,0,0,0-.63.23,1.13,1.13,0,0,0-.26.88V94Z" transform="translate(0.01 -21.92)"/><path class="cls-4" d="M40.45,94.24l.55.08a.51.51,0,0,0,.19.37,1,1,0,0,0,.58.16,1,1,0,0,0,.62-.16.76.76,0,0,0,.29-.44,3.83,3.83,0,0,0,0-.73,1.18,1.18,0,0,1-.93.44,1.29,1.29,0,0,1-1.08-.5,2,2,0,0,1-.38-1.21,2.21,2.21,0,0,1,.18-.89,1.37,1.37,0,0,1,.5-.63,1.43,1.43,0,0,1,.78-.22,1.19,1.19,0,0,1,1,.48v-.4h.53V93.5a2.72,2.72,0,0,1-.16,1.12,1.27,1.27,0,0,1-.51.52,1.81,1.81,0,0,1-.85.19,1.65,1.65,0,0,1-1-.28A.92.92,0,0,1,40.45,94.24Zm.47-2a1.5,1.5,0,0,0,.26,1,.88.88,0,0,0,1.32,0,1.4,1.4,0,0,0,.27-1,1.34,1.34,0,0,0-.28-.93.84.84,0,0,0-.66-.32.86.86,0,0,0-.65.31A1.44,1.44,0,0,0,40.92,92.21Z" transform="translate(0.01 -21.92)"/><path class="cls-4" d="M46,94V90.59h.52v.51a1.31,1.31,0,0,1,.36-.47.63.63,0,0,1,.37-.12,1.15,1.15,0,0,1,.59.18l-.2.53a.84.84,0,0,0-.42-.12.58.58,0,0,0-.34.11.6.6,0,0,0-.21.32,2.29,2.29,0,0,0-.09.66V94Z" transform="translate(0.01 -21.92)"/><path class="cls-4" d="M50.33,93.54a2,2,0,0,1-.61.38,1.61,1.61,0,0,1-.63.11,1.22,1.22,0,0,1-.85-.27.89.89,0,0,1-.3-.69.94.94,0,0,1,.11-.45,1,1,0,0,1,.3-.33,1.4,1.4,0,0,1,.41-.19,3,3,0,0,1,.51-.08,6.26,6.26,0,0,0,1-.2v-.15a.61.61,0,0,0-.16-.49,1,1,0,0,0-.65-.2,1,1,0,0,0-.6.15.83.83,0,0,0-.28.49L48,91.55a1.34,1.34,0,0,1,.25-.58,1.12,1.12,0,0,1,.51-.34,2.2,2.2,0,0,1,.76-.12,2,2,0,0,1,.7.1,1,1,0,0,1,.4.26,1,1,0,0,1,.18.39,3.28,3.28,0,0,1,0,.52v.77a8.6,8.6,0,0,0,0,1,1.27,1.27,0,0,0,.15.41h-.6A1.29,1.29,0,0,1,50.33,93.54Zm0-1.27a4.63,4.63,0,0,1-.94.21,1.9,1.9,0,0,0-.49.12.47.47,0,0,0-.23.18.5.5,0,0,0-.08.27.49.49,0,0,0,.17.38.73.73,0,0,0,.51.16,1.15,1.15,0,0,0,.59-.15,1,1,0,0,0,.38-.39,1.41,1.41,0,0,0,.09-.57Z" transform="translate(0.01 -21.92)"/><path class="cls-4" d="M51.75,94V90.59h.51v.48a1.23,1.23,0,0,1,1.08-.56,1.47,1.47,0,0,1,.56.11.82.82,0,0,1,.38.29,1.33,1.33,0,0,1,.18.42,3.51,3.51,0,0,1,0,.56V94h-.57v-2a1.34,1.34,0,0,0-.07-.52.5.5,0,0,0-.24-.28.71.71,0,0,0-.39-.1.88.88,0,0,0-.63.23,1.13,1.13,0,0,0-.27.88V94Z" transform="translate(0.01 -21.92)"/><path class="cls-4" d="M55.26,94.24l.56.08a.48.48,0,0,0,.19.37.91.91,0,0,0,.58.16,1,1,0,0,0,.61-.16.72.72,0,0,0,.29-.44,3.56,3.56,0,0,0,0-.73,1.19,1.19,0,0,1-.94.44,1.27,1.27,0,0,1-1.07-.5,1.92,1.92,0,0,1-.38-1.21,2.21,2.21,0,0,1,.17-.89,1.46,1.46,0,0,1,.51-.63,1.43,1.43,0,0,1,.78-.22,1.22,1.22,0,0,1,1,.48v-.4h.53V93.5A2.9,2.9,0,0,1,58,94.62a1.27,1.27,0,0,1-.51.52,1.85,1.85,0,0,1-.86.19,1.62,1.62,0,0,1-1-.28A.9.9,0,0,1,55.26,94.24Zm.47-2a1.44,1.44,0,0,0,.27,1,.83.83,0,0,0,.66.3.85.85,0,0,0,.66-.3,1.46,1.46,0,0,0,.26-1,1.39,1.39,0,0,0-.27-.93.84.84,0,0,0-1.31,0A1.38,1.38,0,0,0,55.73,92.21Z" transform="translate(0.01 -21.92)"/><path class="cls-4" d="M61.29,92.87l.59.08a1.5,1.5,0,0,1-.52.8,1.54,1.54,0,0,1-1,.28,1.56,1.56,0,0,1-1.18-.45,1.79,1.79,0,0,1-.43-1.28A1.86,1.86,0,0,1,59.23,91a1.49,1.49,0,0,1,1.13-.47,1.45,1.45,0,0,1,1.11.46,1.87,1.87,0,0,1,.43,1.3,1,1,0,0,1,0,.15H59.38a1.34,1.34,0,0,0,.31.85.94.94,0,0,0,.71.29.89.89,0,0,0,.54-.16A1.2,1.2,0,0,0,61.29,92.87ZM59.41,92h1.88a1.08,1.08,0,0,0-.21-.64.88.88,0,0,0-.71-.33.93.93,0,0,0-.66.26A1.05,1.05,0,0,0,59.41,92Z" transform="translate(0.01 -21.92)"/><rect class="繝後Μ_逋ｽ" x="20.6" y="96.64" width="41.46" height="16.58"/><path class="cls-4" d="M26,123.29l.62.16a2,2,0,0,1-.7,1.15,1.88,1.88,0,0,1-1.23.4,2.14,2.14,0,0,1-1.22-.31,1.92,1.92,0,0,1-.72-.88,3.27,3.27,0,0,1-.24-1.25,2.83,2.83,0,0,1,.27-1.27,2,2,0,0,1,.79-.82,2.31,2.31,0,0,1,1.13-.28,1.9,1.9,0,0,1,1.18.36,1.84,1.84,0,0,1,.66,1l-.61.15a1.34,1.34,0,0,0-.47-.74,1.2,1.2,0,0,0-.77-.23,1.52,1.52,0,0,0-.9.25,1.3,1.3,0,0,0-.5.69,2.74,2.74,0,0,0-.15.9,2.92,2.92,0,0,0,.17,1,1.28,1.28,0,0,0,.54.66,1.5,1.5,0,0,0,.79.22,1.37,1.37,0,0,0,.88-.29A1.51,1.51,0,0,0,26,123.29Z" transform="translate(0.01 -21.92)"/><path class="cls-4" d="M27.06,123.24a1.76,1.76,0,0,1,.52-1.39,1.58,1.58,0,0,1,1.06-.38,1.52,1.52,0,0,1,1.14.46,1.74,1.74,0,0,1,.44,1.26,2.24,2.24,0,0,1-.19,1,1.45,1.45,0,0,1-.57.58,1.64,1.64,0,0,1-.82.21,1.48,1.48,0,0,1-1.14-.46A1.79,1.79,0,0,1,27.06,123.24Zm.59,0a1.44,1.44,0,0,0,.28,1,.93.93,0,0,0,.71.32.89.89,0,0,0,.71-.33,1.43,1.43,0,0,0,.28-1,1.4,1.4,0,0,0-.28-1,.95.95,0,0,0-1.42,0A1.42,1.42,0,0,0,27.65,123.24Z" transform="translate(0.01 -21.92)"/><path class="cls-4" d="M30.89,124.92v-3.37h.51V122a1.23,1.23,0,0,1,1.08-.56,1.47,1.47,0,0,1,.56.11.89.89,0,0,1,.38.29,1.33,1.33,0,0,1,.18.42,3.51,3.51,0,0,1,0,.56v2.07h-.57v-2a1.38,1.38,0,0,0-.07-.52.53.53,0,0,0-.23-.28.77.77,0,0,0-.4-.1.92.92,0,0,0-.63.23,1.14,1.14,0,0,0-.27.88v1.84Z" transform="translate(0.01 -21.92)"/><path class="cls-4" d="M35.75,124.41l.08.51a2.37,2.37,0,0,1-.43,0,1.07,1.07,0,0,1-.48-.1.6.6,0,0,1-.24-.26,2,2,0,0,1-.07-.68V122h-.42v-.45h.42v-.83l.57-.35v1.18h.57V122h-.57v2a1,1,0,0,0,0,.31.21.21,0,0,0,.1.11.34.34,0,0,0,.19,0A1.19,1.19,0,0,0,35.75,124.41Z" transform="translate(0.01 -21.92)"/><path class="cls-4" d="M36.31,120.93v-.66h.58v.66Zm0,4v-3.37h.58v3.37Z" transform="translate(0.01 -21.92)"/><path class="cls-4" d="M37.76,124.92v-3.37h.51V122a1.21,1.21,0,0,1,1.07-.56,1.43,1.43,0,0,1,.56.11.89.89,0,0,1,.38.29,1,1,0,0,1,.18.42,3.51,3.51,0,0,1,0,.56v2.07h-.57v-2a1.67,1.67,0,0,0-.06-.52.6.6,0,0,0-.24-.28.74.74,0,0,0-.4-.1,1,1,0,0,0-.63.23,1.14,1.14,0,0,0-.26.88v1.84Z" transform="translate(0.01 -21.92)"/><path class="cls-4" d="M43.58,124.92v-.49a1.23,1.23,0,0,1-1.07.57,1.34,1.34,0,0,1-.56-.12.88.88,0,0,1-.38-.28,1.3,1.3,0,0,1-.18-.43,3.33,3.33,0,0,1,0-.53v-2.09h.57v1.87a3.77,3.77,0,0,0,0,.6.68.68,0,0,0,.23.36.75.75,0,0,0,.43.13.93.93,0,0,0,.49-.14.71.71,0,0,0,.32-.36,1.84,1.84,0,0,0,.09-.65v-1.81h.57v3.37Z" transform="translate(0.01 -21.92)"/><path class="cls-4" d="M44.77,123.24a1.76,1.76,0,0,1,.52-1.39,1.58,1.58,0,0,1,1.06-.38,1.52,1.52,0,0,1,1.14.46,1.74,1.74,0,0,1,.44,1.26,2.38,2.38,0,0,1-.19,1,1.45,1.45,0,0,1-.57.58,1.64,1.64,0,0,1-.82.21,1.48,1.48,0,0,1-1.14-.46A1.79,1.79,0,0,1,44.77,123.24Zm.59,0a1.44,1.44,0,0,0,.28,1,.93.93,0,0,0,.71.32.89.89,0,0,0,.71-.33,1.43,1.43,0,0,0,.28-1,1.4,1.4,0,0,0-.28-1,.95.95,0,0,0-1.42,0A1.42,1.42,0,0,0,45.36,123.24Z" transform="translate(0.01 -21.92)"/><path class="cls-4" d="M50.81,124.92v-.49a1.23,1.23,0,0,1-1.07.57,1.34,1.34,0,0,1-.56-.12.88.88,0,0,1-.38-.28,1.3,1.3,0,0,1-.18-.43,3.33,3.33,0,0,1,0-.53v-2.09h.57v1.87a3.77,3.77,0,0,0,0,.6.68.68,0,0,0,.23.36.75.75,0,0,0,.43.13.93.93,0,0,0,.49-.14.71.71,0,0,0,.32-.36,1.84,1.84,0,0,0,.09-.65v-1.81h.57v3.37Z" transform="translate(0.01 -21.92)"/><path class="cls-4" d="M52,123.92l.56-.09a.78.78,0,0,0,.27.52.9.9,0,0,0,.6.18.94.94,0,0,0,.59-.16.47.47,0,0,0,.19-.38.34.34,0,0,0-.17-.3,2.49,2.49,0,0,0-.58-.2,5,5,0,0,1-.88-.27.87.87,0,0,1-.36-.32.81.81,0,0,1-.13-.45.88.88,0,0,1,.11-.42.79.79,0,0,1,.28-.32,1.1,1.1,0,0,1,.36-.17,1.93,1.93,0,0,1,.49-.07,1.86,1.86,0,0,1,.7.12.94.94,0,0,1,.44.31,1.18,1.18,0,0,1,.2.52l-.56.08a.6.6,0,0,0-.22-.41.79.79,0,0,0-.52-.15.92.92,0,0,0-.56.14.36.36,0,0,0-.17.3.37.37,0,0,0,.07.2.53.53,0,0,0,.22.15l.51.15a7.54,7.54,0,0,1,.84.26.88.88,0,0,1,.38.3.86.86,0,0,1,.14.49,1,1,0,0,1-.17.54,1,1,0,0,1-.48.39,1.8,1.8,0,0,1-.71.14,1.53,1.53,0,0,1-1-.28A1.24,1.24,0,0,1,52,123.92Z" transform="translate(0.01 -21.92)"/><path class="cls-4" d="M22.57,132.72v-3.37h.52v.51a1.41,1.41,0,0,1,.36-.47.63.63,0,0,1,.37-.12,1.17,1.17,0,0,1,.59.19l-.2.53a.86.86,0,0,0-.42-.13.54.54,0,0,0-.34.12.58.58,0,0,0-.21.31,2.36,2.36,0,0,0-.09.67v1.76Z" transform="translate(0.01 -21.92)"/><path class="cls-4" d="M27,132.72v-.49a1.22,1.22,0,0,1-1.06.57,1.31,1.31,0,0,1-.56-.12,1,1,0,0,1-.39-.28,1.11,1.11,0,0,1-.17-.43,2.3,2.3,0,0,1,0-.53v-2.09h.57v1.87a3.41,3.41,0,0,0,0,.6.63.63,0,0,0,.23.36.73.73,0,0,0,.43.13.92.92,0,0,0,.48-.14.66.66,0,0,0,.32-.36,1.84,1.84,0,0,0,.09-.65v-1.81h.58v3.37Z" transform="translate(0.01 -21.92)"/><path class="cls-4" d="M28.36,132.72v-3.37h.52v.48a1.2,1.2,0,0,1,1.07-.56,1.47,1.47,0,0,1,.56.11.89.89,0,0,1,.38.29,1.14,1.14,0,0,1,.18.42,3.51,3.51,0,0,1,0,.56v2.07h-.57v-2.05a1.38,1.38,0,0,0-.07-.52.5.5,0,0,0-.24-.28.71.71,0,0,0-.39-.1.92.92,0,0,0-.63.23,1.14,1.14,0,0,0-.27.88v1.84Z" transform="translate(0.01 -21.92)"/><path class="cls-4" d="M32,132.72v-3.37h.51v.48a1.22,1.22,0,0,1,1.07-.56,1.43,1.43,0,0,1,.56.11,1,1,0,0,1,.39.29,1.13,1.13,0,0,1,.17.42,3.21,3.21,0,0,1,0,.56v2.07h-.58v-2.05a1.67,1.67,0,0,0-.06-.52.6.6,0,0,0-.24-.28.74.74,0,0,0-.4-.1,1,1,0,0,0-.63.23,1.18,1.18,0,0,0-.26.88v1.84Z" transform="translate(0.01 -21.92)"/><path class="cls-4" d="M35.59,128.73v-.66h.57v.66Zm0,4v-3.37h.57v3.37Z" transform="translate(0.01 -21.92)"/><path class="cls-4" d="M37,132.72v-3.37h.52v.48a1.21,1.21,0,0,1,1.07-.56,1.47,1.47,0,0,1,.56.11.89.89,0,0,1,.38.29,1,1,0,0,1,.18.42,3.51,3.51,0,0,1,0,.56v2.07H39.2v-2.05a1.67,1.67,0,0,0-.06-.52.6.6,0,0,0-.24-.28.74.74,0,0,0-.4-.1,1,1,0,0,0-.63.23,1.14,1.14,0,0,0-.26.88v1.84Z" transform="translate(0.01 -21.92)"/><path class="cls-4" d="M40.54,133l.56.08a.56.56,0,0,0,.19.38,1,1,0,0,0,.59.16,1.08,1.08,0,0,0,.61-.16.82.82,0,0,0,.29-.45,3.76,3.76,0,0,0,0-.73,1.18,1.18,0,0,1-.93.44,1.26,1.26,0,0,1-1.08-.5,2,2,0,0,1-.38-1.2,2.18,2.18,0,0,1,.18-.89,1.32,1.32,0,0,1,.5-.63,1.35,1.35,0,0,1,.78-.23,1.2,1.2,0,0,1,1,.49v-.41h.53v2.91a2.72,2.72,0,0,1-.16,1.12,1.22,1.22,0,0,1-.51.52,1.7,1.7,0,0,1-.85.19,1.65,1.65,0,0,1-1-.27A1,1,0,0,1,40.54,133Zm.48-2a1.47,1.47,0,0,0,.26,1,.83.83,0,0,0,.66.31.85.85,0,0,0,.66-.3,1.43,1.43,0,0,0,.27-1,1.34,1.34,0,0,0-.28-.93.85.85,0,0,0-1.31,0A1.4,1.4,0,0,0,41,131Z" transform="translate(0.01 -21.92)"/><path class="cls-4" d="M46.06,132.72v-3.37h.52v.51a1.41,1.41,0,0,1,.36-.47.63.63,0,0,1,.37-.12,1.17,1.17,0,0,1,.59.19l-.2.53a.86.86,0,0,0-.42-.13.54.54,0,0,0-.34.12.58.58,0,0,0-.21.31,2.36,2.36,0,0,0-.09.67v1.76Z" transform="translate(0.01 -21.92)"/><path class="cls-4" d="M50.43,132.31a2.17,2.17,0,0,1-.61.38,1.81,1.81,0,0,1-.63.11,1.22,1.22,0,0,1-.85-.27.91.91,0,0,1-.3-.7,1,1,0,0,1,.11-.45,1,1,0,0,1,.3-.33,1.38,1.38,0,0,1,.41-.18,2.84,2.84,0,0,1,.51-.09,5.33,5.33,0,0,0,1-.2v-.15a.63.63,0,0,0-.16-.49,1,1,0,0,0-.65-.19,1.06,1.06,0,0,0-.6.14.88.88,0,0,0-.28.5l-.56-.08a1.48,1.48,0,0,1,.25-.58,1.14,1.14,0,0,1,.51-.34,2.2,2.2,0,0,1,.76-.12,1.94,1.94,0,0,1,.7.11.92.92,0,0,1,.4.25,1,1,0,0,1,.18.39,3.08,3.08,0,0,1,0,.53v.76a9.89,9.89,0,0,0,0,1,1.22,1.22,0,0,0,.15.4h-.6A1.31,1.31,0,0,1,50.43,132.31Zm0-1.28a4.52,4.52,0,0,1-.94.22,2,2,0,0,0-.49.11.43.43,0,0,0-.23.19.5.5,0,0,0,.09.65.78.78,0,0,0,.51.15,1.25,1.25,0,0,0,.59-.14.89.89,0,0,0,.37-.4,1.24,1.24,0,0,0,.1-.57Z" transform="translate(0.01 -21.92)"/><path class="cls-4" d="M51.85,132.72v-3.37h.51v.48a1.23,1.23,0,0,1,1.08-.56,1.47,1.47,0,0,1,.56.11.89.89,0,0,1,.38.29,1.33,1.33,0,0,1,.18.42,3.51,3.51,0,0,1,0,.56v2.07H54v-2.05a1.38,1.38,0,0,0-.07-.52.5.5,0,0,0-.24-.28.71.71,0,0,0-.39-.1.92.92,0,0,0-.63.23,1.14,1.14,0,0,0-.27.88v1.84Z" transform="translate(0.01 -21.92)"/><path class="cls-4" d="M55.36,133l.56.08a.52.52,0,0,0,.19.38,1,1,0,0,0,.58.16,1.05,1.05,0,0,0,.61-.16.77.77,0,0,0,.29-.45,2.89,2.89,0,0,0,0-.73,1.19,1.19,0,0,1-.94.44,1.24,1.24,0,0,1-1.07-.5,1.89,1.89,0,0,1-.38-1.2,2.17,2.17,0,0,1,.17-.89,1.4,1.4,0,0,1,.51-.63,1.35,1.35,0,0,1,.78-.23,1.23,1.23,0,0,1,1,.49v-.41h.53v2.91a2.9,2.9,0,0,1-.16,1.12,1.22,1.22,0,0,1-.51.52,1.74,1.74,0,0,1-.86.19,1.61,1.61,0,0,1-1-.27A.91.91,0,0,1,55.36,133Zm.47-2a1.41,1.41,0,0,0,.27,1,.81.81,0,0,0,.66.31.85.85,0,0,0,.66-.3,1.49,1.49,0,0,0,.26-1,1.39,1.39,0,0,0-.27-.93.83.83,0,0,0-.66-.31.81.81,0,0,0-.65.31A1.35,1.35,0,0,0,55.83,131Z" transform="translate(0.01 -21.92)"/><path class="cls-4" d="M61.39,131.64l.59.07a1.5,1.5,0,0,1-.52.8,1.74,1.74,0,0,1-2.14-.17,1.77,1.77,0,0,1-.43-1.28,1.9,1.9,0,0,1,.44-1.32,1.49,1.49,0,0,1,1.13-.47,1.46,1.46,0,0,1,1.11.47A1.82,1.82,0,0,1,62,131a1,1,0,0,1,0,.15H59.48a1.32,1.32,0,0,0,.31.85.94.94,0,0,0,.71.3.89.89,0,0,0,.54-.17A1.16,1.16,0,0,0,61.39,131.64Zm-1.88-.93h1.88a1.13,1.13,0,0,0-.21-.64.88.88,0,0,0-.71-.33.9.9,0,0,0-.66.27A1,1,0,0,0,59.51,130.71Z" transform="translate(0.01 -21.92)"/><path class="cls-4" d="M43.34,150.56l.58-.06a1.32,1.32,0,0,0,.19.58,1,1,0,0,0,.47.36,1.81,1.81,0,0,0,.72.14,1.71,1.71,0,0,0,.62-.11.87.87,0,0,0,.4-.28.68.68,0,0,0,.13-.4.59.59,0,0,0-.13-.39.92.92,0,0,0-.42-.27c-.12,0-.4-.12-.82-.23a4.09,4.09,0,0,1-.9-.29,1.26,1.26,0,0,1-.5-.43,1.06,1.06,0,0,1-.16-.58,1.16,1.16,0,0,1,.2-.66,1.22,1.22,0,0,1,.58-.46,2.16,2.16,0,0,1,.86-.16,2.35,2.35,0,0,1,.91.16,1.49,1.49,0,0,1,.61.49,1.46,1.46,0,0,1,.22.74l-.59,0a.91.91,0,0,0-.32-.66,1.24,1.24,0,0,0-.81-.23,1.27,1.27,0,0,0-.81.21.61.61,0,0,0-.26.49.52.52,0,0,0,.18.41,2.39,2.39,0,0,0,.93.33,7.58,7.58,0,0,1,1,.3,1.39,1.39,0,0,1,.6.47,1.19,1.19,0,0,1,.19.67,1.3,1.3,0,0,1-.21.7,1.34,1.34,0,0,1-.61.51,2.13,2.13,0,0,1-.9.18,2.67,2.67,0,0,1-1-.18,1.48,1.48,0,0,1-.67-.56A1.51,1.51,0,0,1,43.34,150.56Z" transform="translate(0.01 -21.92)"/><path class="cls-4" d="M47.81,153.34v-4.66h.52v.44a1.4,1.4,0,0,1,.42-.39,1.19,1.19,0,0,1,.56-.13,1.31,1.31,0,0,1,.76.23,1.29,1.29,0,0,1,.5.62,2.35,2.35,0,0,1,.17.89,2.15,2.15,0,0,1-.19.93,1.36,1.36,0,0,1-.54.64,1.42,1.42,0,0,1-.74.22,1.07,1.07,0,0,1-.51-.12,1.29,1.29,0,0,1-.38-.31v1.64Zm.52-3a1.52,1.52,0,0,0,.26,1,.84.84,0,0,0,.64.31.82.82,0,0,0,.65-.33,1.94,1.94,0,0,0,0-2,.79.79,0,0,0-1.28,0A1.52,1.52,0,0,0,48.33,150.38Z" transform="translate(0.01 -21.92)"/><path class="cls-4" d="M53.73,151l.6.08a1.5,1.5,0,0,1-.52.8,1.57,1.57,0,0,1-1,.29,1.56,1.56,0,0,1-1.17-.46,1.77,1.77,0,0,1-.43-1.28,1.89,1.89,0,0,1,.43-1.32,1.52,1.52,0,0,1,1.14-.47,1.48,1.48,0,0,1,1.11.46,1.86,1.86,0,0,1,.42,1.3v.15H51.83a1.28,1.28,0,0,0,.31.85.93.93,0,0,0,.71.3.86.86,0,0,0,.53-.17A1,1,0,0,0,53.73,151ZM51.86,150h1.88a1.18,1.18,0,0,0-.21-.64.93.93,0,0,0-1.37-.06A1,1,0,0,0,51.86,150Z" transform="translate(0.01 -21.92)"/><path class="cls-4" d="M57.35,151l.59.08a1.44,1.44,0,0,1-.52.8,1.54,1.54,0,0,1-1,.29,1.57,1.57,0,0,1-1.18-.46,1.82,1.82,0,0,1-.43-1.28,1.9,1.9,0,0,1,.44-1.32,1.49,1.49,0,0,1,1.14-.47,1.46,1.46,0,0,1,1.1.46,1.82,1.82,0,0,1,.43,1.3v.15H55.44a1.29,1.29,0,0,0,.32.85.91.91,0,0,0,.7.3.89.89,0,0,0,.54-.17A1.07,1.07,0,0,0,57.35,151ZM55.47,150h1.89a1.18,1.18,0,0,0-.22-.64.88.88,0,0,0-.71-.33.9.9,0,0,0-.66.27A1,1,0,0,0,55.47,150Z" transform="translate(0.01 -21.92)"/><path class="cls-4" d="M60.84,152.05v-.43a1,1,0,0,1-.94.51,1.4,1.4,0,0,1-1.26-.85,2,2,0,0,1-.19-.91,2.47,2.47,0,0,1,.17-.92,1.37,1.37,0,0,1,.5-.63,1.43,1.43,0,0,1,.76-.22,1.2,1.2,0,0,1,.54.13,1.17,1.17,0,0,1,.39.34V147.4h.56v4.65ZM59,150.37a1.5,1.5,0,0,0,.27,1,.84.84,0,0,0,.65.32.82.82,0,0,0,.63-.31,1.38,1.38,0,0,0,.26-.93,1.64,1.64,0,0,0-.26-1,.81.81,0,0,0-.66-.32.79.79,0,0,0-.64.31A1.52,1.52,0,0,0,59,150.37Z" transform="translate(0.01 -21.92)"/><path class="cls-4" d="M64.09,153.34V147.4h1.26v.47h-.69v5h.69v.47Z" transform="translate(0.01 -21.92)"/><path class="cls-4" d="M65.88,152.05v-3.37h.51v.51a1.21,1.21,0,0,1,.37-.47.6.6,0,0,1,.36-.12,1.08,1.08,0,0,1,.59.19l-.2.53a.76.76,0,0,0-.42-.13.52.52,0,0,0-.33.12.65.65,0,0,0-.22.31,2.31,2.31,0,0,0-.09.67v1.76Z" transform="translate(0.01 -21.92)"/><path class="cls-4" d="M67.62,152.13,69,147.32h.46l-1.35,4.81Z" transform="translate(0.01 -21.92)"/><path class="cls-4" d="M69.85,152.05v-3.37h.52v.47a1.17,1.17,0,0,1,1-.55,1.13,1.13,0,0,1,.61.16.86.86,0,0,1,.34.43,1.22,1.22,0,0,1,1-.59,1,1,0,0,1,.77.28,1.2,1.2,0,0,1,.27.86v2.31h-.57v-2.12a1.55,1.55,0,0,0,0-.5.52.52,0,0,0-.2-.24.65.65,0,0,0-.35-.09.84.84,0,0,0-.59.23,1.08,1.08,0,0,0-.23.76v2h-.57v-2.19a1,1,0,0,0-.14-.57.54.54,0,0,0-.46-.19.81.81,0,0,0-.45.13.69.69,0,0,0-.29.37,2.08,2.08,0,0,0-.09.7v1.75Z" transform="translate(0.01 -21.92)"/><path class="cls-4" d="M75.27,148.05v-.65h.57v.65Zm0,4v-3.37h.57v3.37Z" transform="translate(0.01 -21.92)"/><path class="cls-4" d="M76.71,152.05v-3.37h.52v.48a1.2,1.2,0,0,1,1.07-.56,1.47,1.47,0,0,1,.56.11.89.89,0,0,1,.38.29,1,1,0,0,1,.18.42,3.51,3.51,0,0,1,0,.56v2.07h-.57V150a1.38,1.38,0,0,0-.07-.52.53.53,0,0,0-.23-.28.77.77,0,0,0-.4-.1,1,1,0,0,0-.63.23,1.13,1.13,0,0,0-.27.88v1.84Z" transform="translate(0.01 -21.92)"/><path class="cls-4" d="M81.28,153.34H80v-.47h.69v-5H80v-.47h1.26Z" transform="translate(0.01 -21.92)"/></g></svg>