<?xml version="1.0" encoding="UTF-8"?><svg id="d" xmlns="http://www.w3.org/2000/svg" viewBox="0 0 115.21 130.93"><line x1="44.13" y1="2.18" x2="44.13" y2="115.56" fill="none" stroke="#231815" stroke-linejoin="round" stroke-width=".14"/><line x1="71.21" y1="2.18" x2="71.21" y2="115.56" fill="none" stroke="#231815" stroke-linejoin="round" stroke-width=".14"/><line x1="98.28" y1="2.18" x2="98.28" y2="115.56" fill="none" stroke="#231815" stroke-linejoin="round" stroke-width=".14"/><line x1="17.05" y1="21.07" x2="107.76" y2="21.07" fill="none" stroke="#231815" stroke-miterlimit="10" stroke-width=".14"/><line x1="17.05" y1="39.97" x2="107.76" y2="39.97" fill="none" stroke="#231815" stroke-miterlimit="10" stroke-width=".14"/><line x1="17.05" y1="21.07" x2="107.76" y2="21.07" fill="none" stroke="#231815" stroke-miterlimit="10" stroke-width=".14"/><line x1="17.05" y1="58.87" x2="107.76" y2="58.87" fill="none" stroke="#231815" stroke-miterlimit="10" stroke-width=".14"/><line x1="17.05" y1="77.77" x2="107.76" y2="77.77" fill="none" stroke="#231815" stroke-miterlimit="10" stroke-width=".14"/><line x1="17.05" y1="96.66" x2="107.76" y2="96.66" fill="none" stroke="#231815" stroke-miterlimit="10" stroke-width=".14"/><polyline points="17.05 93.02 30.59 93.02 43.98 93.02 57.44 93.02 70.91 98.64 84.37 102.06 97.84 104.32 107.76 105.47" fill="none" stroke="#9fa0a0" stroke-linecap="round" stroke-linejoin="round" stroke-width="3"/><path d="m15.87,119.47c0-.42.04-.76.13-1.02.09-.26.22-.46.39-.6s.39-.21.65-.21c.19,0,.36.04.51.12.14.08.26.19.36.33.09.15.17.32.22.53.05.21.08.49.08.85,0,.42-.04.76-.13,1.02-.09.26-.22.46-.39.6-.17.14-.39.21-.65.21-.34,0-.62-.12-.81-.37-.24-.3-.35-.78-.35-1.46Zm.45,0c0,.59.07.98.21,1.17.14.19.31.29.51.29s.37-.1.51-.29.21-.59.21-1.17-.07-.98-.21-1.17-.31-.29-.51-.29-.36.09-.48.26c-.15.22-.23.62-.23,1.21Z" fill="#231815"/><polyline points="17.05 36.62 64.32 36.62 108.52 67.95" fill="none" stroke="#9fa0a0" stroke-linecap="round" stroke-linejoin="round" stroke-width="3"/><polyline points="17.05 93.02 30.59 93.02 43.98 93.02 57.44 93.02 70.91 98.64 84.37 102.06 97.84 104.32 107.76 105.47" fill="none" stroke="#231815" stroke-linecap="round" stroke-linejoin="round"/><path d="m106.81,118.53l-.44.03c-.04-.17-.09-.3-.17-.38-.12-.13-.27-.19-.44-.19-.14,0-.26.04-.37.12-.14.1-.25.25-.33.44s-.12.47-.12.83c.11-.16.24-.28.39-.36s.31-.12.48-.12c.29,0,.54.11.75.32.21.22.31.49.31.84,0,.22-.05.43-.15.63-.1.19-.23.34-.4.44s-.36.15-.58.15c-.37,0-.67-.13-.9-.4-.23-.27-.35-.71-.35-1.33,0-.69.13-1.19.38-1.51.22-.27.52-.41.9-.41.28,0,.51.08.69.24.18.16.29.38.32.65Zm-1.79,1.54c0,.15.03.3.1.43.06.14.15.24.27.32.12.07.24.11.36.11.19,0,.35-.07.48-.22s.2-.35.2-.61-.07-.44-.2-.58c-.13-.14-.3-.21-.5-.21s-.37.07-.51.21c-.14.14-.21.33-.21.56Z" fill="#231815"/><path d="m107.34,118.12v-.42h2.32v.34c-.23.24-.45.56-.68.97-.22.4-.4.82-.52,1.24-.09.3-.14.63-.17.98h-.45c0-.28.06-.62.17-1.02s.26-.78.46-1.15c.2-.37.41-.68.63-.94h-1.75Z" fill="#231815"/><path d="m110.09,119.47c0-.42.04-.76.13-1.02.09-.26.22-.46.39-.6.17-.14.39-.21.65-.21.19,0,.36.04.51.12.15.08.26.19.36.33.09.15.17.32.22.53.05.21.08.49.08.85,0,.42-.04.76-.13,1.02-.09.26-.22.46-.39.6-.17.14-.39.21-.65.21-.35,0-.62-.12-.81-.37-.24-.3-.35-.78-.35-1.46Zm.45,0c0,.59.07.98.21,1.17.14.19.31.29.51.29s.37-.1.51-.29c.14-.2.21-.59.21-1.17s-.07-.98-.21-1.17c-.14-.19-.31-.29-.51-.29s-.36.09-.48.26c-.15.22-.23.62-.23,1.21Z" fill="#231815"/><path d="m112.87,119.47c0-.42.04-.76.13-1.02.09-.26.22-.46.39-.6.17-.14.39-.21.65-.21.19,0,.36.04.51.12.15.08.26.19.36.33.09.15.17.32.22.53.05.21.08.49.08.85,0,.42-.04.76-.13,1.02-.09.26-.22.46-.39.6-.17.14-.39.21-.65.21-.35,0-.62-.12-.81-.37-.24-.3-.35-.78-.35-1.46Zm.45,0c0,.59.07.98.21,1.17.14.19.31.29.51.29s.37-.1.51-.29c.14-.2.21-.59.21-1.17s-.07-.98-.21-1.17c-.14-.19-.31-.29-.51-.29s-.36.09-.48.26c-.15.22-.23.62-.23,1.21Z" fill="#231815"/><path d="m40.93,120.81v.42h-2.37c0-.11.01-.21.05-.31.06-.16.16-.32.29-.48.13-.16.32-.34.57-.54.39-.32.65-.57.79-.76.14-.19.21-.36.21-.53,0-.17-.06-.32-.19-.44-.12-.12-.29-.18-.49-.18-.21,0-.38.06-.51.19s-.19.3-.19.53l-.45-.05c.03-.34.15-.59.35-.77.2-.18.47-.26.81-.26s.62.1.82.29.3.43.3.71c0,.14-.03.28-.09.42s-.16.28-.29.44c-.14.15-.36.36-.68.63-.26.22-.43.37-.51.45-.07.08-.14.16-.19.24h1.76Z" fill="#231815"/><path d="m41.43,119.47c0-.42.04-.76.13-1.02.09-.26.22-.46.39-.6.17-.14.39-.21.65-.21.19,0,.36.04.51.12.15.08.26.19.36.33.09.15.17.32.22.53.05.21.08.49.08.85,0,.42-.04.76-.13,1.02-.09.26-.22.46-.39.6-.17.14-.39.21-.65.21-.35,0-.62-.12-.81-.37-.24-.3-.35-.78-.35-1.46Zm.45,0c0,.59.07.98.21,1.17.14.19.31.29.51.29s.37-.1.51-.29c.14-.2.21-.59.21-1.17s-.07-.98-.21-1.17c-.14-.19-.31-.29-.51-.29s-.36.09-.48.26c-.15.22-.23.62-.23,1.21Z" fill="#231815"/><path d="m44.18,119.47c0-.42.04-.76.13-1.02.09-.26.22-.46.39-.6.17-.14.39-.21.65-.21.19,0,.36.04.51.12.15.08.26.19.36.33.09.15.17.32.22.53.05.21.08.49.08.85,0,.42-.04.76-.13,1.02-.09.26-.22.46-.39.6-.17.14-.39.21-.65.21-.35,0-.62-.12-.81-.37-.24-.3-.35-.78-.35-1.46Zm.45,0c0,.59.07.98.21,1.17.14.19.31.29.51.29s.37-.1.51-.29c.14-.2.21-.59.21-1.17s-.07-.98-.21-1.17c-.14-.19-.31-.29-.51-.29s-.36.09-.48.26c-.15.22-.23.62-.23,1.21Z" fill="#231815"/><path d="m46.99,119.47c0-.42.04-.76.13-1.02.09-.26.22-.46.39-.6.17-.14.39-.21.65-.21.19,0,.36.04.51.12.15.08.26.19.36.33.09.15.17.32.22.53.05.21.08.49.08.85,0,.42-.04.76-.13,1.02-.09.26-.22.46-.39.6-.17.14-.39.21-.65.21-.35,0-.62-.12-.81-.37-.24-.3-.35-.78-.35-1.46Zm.45,0c0,.59.07.98.21,1.17.14.19.31.29.51.29s.37-.1.51-.29c.14-.2.21-.59.21-1.17s-.07-.98-.21-1.17c-.14-.19-.31-.29-.51-.29s-.36.09-.48.26c-.15.22-.23.62-.23,1.21Z" fill="#231815"/><path d="m66.97,121.23v-.86h-1.55v-.4l1.63-2.32h.36v2.32h.48v.4h-.48v.86h-.44Zm0-1.26v-1.61l-1.12,1.61h1.12Z" fill="#231815"/><path d="m68.37,119.47c0-.42.04-.76.13-1.02.09-.26.22-.46.39-.6.17-.14.39-.21.65-.21.19,0,.36.04.51.12.15.08.26.19.36.33.09.15.17.32.22.53.05.21.08.49.08.85,0,.42-.04.76-.13,1.02-.09.26-.22.46-.39.6-.17.14-.39.21-.65.21-.35,0-.62-.12-.81-.37-.24-.3-.35-.78-.35-1.46Zm.45,0c0,.59.07.98.21,1.17.14.19.31.29.51.29s.37-.1.51-.29c.14-.2.21-.59.21-1.17s-.07-.98-.21-1.17c-.14-.19-.31-.29-.51-.29s-.36.09-.48.26c-.15.22-.23.62-.23,1.21Z" fill="#231815"/><path d="m71.12,119.47c0-.42.04-.76.13-1.02.09-.26.22-.46.39-.6.17-.14.39-.21.65-.21.19,0,.36.04.51.12.15.08.26.19.36.33.09.15.17.32.22.53.05.21.08.49.08.85,0,.42-.04.76-.13,1.02-.09.26-.22.46-.39.6-.17.14-.39.21-.65.21-.35,0-.62-.12-.81-.37-.24-.3-.35-.78-.35-1.46Zm.45,0c0,.59.07.98.21,1.17.14.19.31.29.51.29s.37-.1.51-.29c.14-.2.21-.59.21-1.17s-.07-.98-.21-1.17c-.14-.19-.31-.29-.51-.29s-.36.09-.48.26c-.15.22-.23.62-.23,1.21Z" fill="#231815"/><path d="m73.93,119.47c0-.42.04-.76.13-1.02.09-.26.22-.46.39-.6.17-.14.39-.21.65-.21.19,0,.36.04.51.12.15.08.26.19.36.33.09.15.17.32.22.53.05.21.08.49.08.85,0,.42-.04.76-.13,1.02-.09.26-.22.46-.39.6-.17.14-.39.21-.65.21-.35,0-.62-.12-.81-.37-.24-.3-.35-.78-.35-1.46Zm.45,0c0,.59.07.98.21,1.17.14.19.31.29.51.29s.37-.1.51-.29c.14-.2.21-.59.21-1.17s-.07-.98-.21-1.17c-.14-.19-.31-.29-.51-.29s-.36.09-.48.26c-.15.22-.23.62-.23,1.21Z" fill="#231815"/><path d="m94.75,118.53l-.44.03c-.04-.17-.09-.3-.17-.38-.12-.13-.27-.19-.44-.19-.14,0-.26.04-.37.12-.14.1-.25.25-.33.44s-.12.47-.12.83c.11-.16.24-.28.39-.36s.31-.12.48-.12c.29,0,.54.11.75.32.21.22.31.49.31.84,0,.22-.05.43-.15.63-.1.19-.23.34-.4.44s-.36.15-.58.15c-.37,0-.67-.13-.9-.4-.23-.27-.35-.71-.35-1.33,0-.69.13-1.19.38-1.51.22-.27.52-.41.9-.41.28,0,.51.08.69.24.18.16.29.38.32.65Zm-1.79,1.54c0,.15.03.3.1.43.06.14.15.24.27.32.12.07.24.11.36.11.19,0,.35-.07.48-.22s.2-.35.2-.61-.07-.44-.2-.58c-.13-.14-.3-.21-.5-.21s-.37.07-.51.21c-.14.14-.21.33-.21.56Z" fill="#231815"/><path d="m95.28,119.47c0-.42.04-.76.13-1.02.09-.26.22-.46.39-.6.17-.14.39-.21.65-.21.19,0,.36.04.51.12.15.08.26.19.36.33.09.15.17.32.22.53.05.21.08.49.08.85,0,.42-.04.76-.13,1.02-.09.26-.22.46-.39.6-.17.14-.39.21-.65.21-.35,0-.62-.12-.81-.37-.24-.3-.35-.78-.35-1.46Zm.45,0c0,.59.07.98.21,1.17.14.19.31.29.51.29s.37-.1.51-.29c.14-.2.21-.59.21-1.17s-.07-.98-.21-1.17c-.14-.19-.31-.29-.51-.29s-.36.09-.48.26c-.15.22-.23.62-.23,1.21Z" fill="#231815"/><path d="m98.03,119.47c0-.42.04-.76.13-1.02.09-.26.22-.46.39-.6.17-.14.39-.21.65-.21.19,0,.36.04.51.12.15.08.26.19.36.33.09.15.17.32.22.53.05.21.08.49.08.85,0,.42-.04.76-.13,1.02-.09.26-.22.46-.39.6-.17.14-.39.21-.65.21-.35,0-.62-.12-.81-.37-.24-.3-.35-.78-.35-1.46Zm.45,0c0,.59.07.98.21,1.17.14.19.31.29.51.29s.37-.1.51-.29c.14-.2.21-.59.21-1.17s-.07-.98-.21-1.17c-.14-.19-.31-.29-.51-.29s-.36.09-.48.26c-.15.22-.23.62-.23,1.21Z" fill="#231815"/><path d="m100.84,119.47c0-.42.04-.76.13-1.02.09-.26.22-.46.39-.6.17-.14.39-.21.65-.21.19,0,.36.04.51.12.15.08.26.19.36.33.09.15.17.32.22.53.05.21.08.49.08.85,0,.42-.04.76-.13,1.02-.09.26-.22.46-.39.6-.17.14-.39.21-.65.21-.35,0-.62-.12-.81-.37-.24-.3-.35-.78-.35-1.46Zm.45,0c0,.59.07.98.21,1.17.14.19.31.29.51.29s.37-.1.51-.29c.14-.2.21-.59.21-1.17s-.07-.98-.21-1.17c-.14-.19-.31-.29-.51-.29s-.36.09-.48.26c-.15.22-.23.62-.23,1.21Z" fill="#231815"/><polyline points="17.05 36.64 53.61 36.64 107.76 77.78" fill="none" stroke="#231815" stroke-linecap="round" stroke-linejoin="round" stroke-width="1"/><rect x="107.76" y="2.18" width="2.83" height="113.39" fill="#fff"/><rect x="14.22" y="2.18" width="2.83" height="113.39" fill="#fff"/><rect x="17.05" y="2.18" width="90.71" height="113.39" fill="none" stroke="#231815" stroke-miterlimit="10" stroke-width=".5"/><path d="m8.89,115.21c0-.42.04-.76.13-1.02.09-.26.22-.46.39-.6.17-.14.39-.21.65-.21.19,0,.36.04.51.12.15.08.26.19.36.33.09.15.17.32.22.53.05.21.08.49.08.85,0,.42-.04.76-.13,1.02-.09.26-.22.46-.39.6-.17.14-.39.21-.65.21-.35,0-.62-.12-.81-.37-.24-.3-.35-.78-.35-1.46Zm.45,0c0,.59.07.98.21,1.17.14.19.31.29.51.29s.37-.1.51-.29c.14-.2.21-.59.21-1.17s-.07-.98-.21-1.17c-.14-.19-.31-.29-.51-.29s-.36.09-.48.26c-.15.22-.23.62-.23,1.21Z" fill="#231815"/><path d="m11.92,116.98v-.5h.5v.5h-.5Z" fill="#231815"/><path d="m13.06,115.21c0-.42.04-.76.13-1.02.09-.26.22-.46.39-.6.17-.14.39-.21.65-.21.19,0,.36.04.51.12.15.08.26.19.36.33.09.15.17.32.22.53.05.21.08.49.08.85,0,.42-.04.76-.13,1.02-.09.26-.22.46-.39.6-.17.14-.39.21-.65.21-.35,0-.62-.12-.81-.37-.24-.3-.35-.78-.35-1.46Zm.45,0c0,.59.07.98.21,1.17.14.19.31.29.51.29s.37-.1.51-.29c.14-.2.21-.59.21-1.17s-.07-.98-.21-1.17c-.14-.19-.31-.29-.51-.29s-.36.09-.48.26c-.15.22-.23.62-.23,1.21Z" fill="#231815"/><path d="m11.2,97.66v.42h-2.37c0-.11.01-.21.05-.31.06-.16.16-.32.29-.48.13-.16.32-.34.57-.54.39-.32.65-.57.79-.76.14-.19.21-.36.21-.53,0-.17-.06-.32-.19-.44-.12-.12-.29-.18-.49-.18-.21,0-.38.06-.51.19s-.19.3-.19.53l-.45-.05c.03-.34.15-.59.35-.77.2-.18.47-.26.81-.26s.62.1.82.29.3.43.3.71c0,.14-.03.28-.09.42s-.16.28-.29.44c-.14.15-.36.36-.68.63-.26.22-.43.37-.51.45-.07.08-.14.16-.19.24h1.76Z" fill="#231815"/><path d="m11.92,98.08v-.5h.5v.5h-.5Z" fill="#231815"/><path d="m13.06,96.32c0-.42.04-.76.13-1.02.09-.26.22-.46.39-.6.17-.14.39-.21.65-.21.19,0,.36.04.51.12.15.08.26.19.36.33.09.15.17.32.22.53.05.21.08.49.08.85,0,.42-.04.76-.13,1.02-.09.26-.22.46-.39.6-.17.14-.39.21-.65.21-.35,0-.62-.12-.81-.37-.24-.3-.35-.78-.35-1.46Zm.45,0c0,.59.07.98.21,1.17.14.19.31.29.51.29s.37-.1.51-.29c.14-.2.21-.59.21-1.17s-.07-.98-.21-1.17c-.14-.19-.31-.29-.51-.29s-.36.09-.48.26c-.15.22-.23.62-.23,1.21Z" fill="#231815"/><path d="m10.3,79.19v-.86h-1.55v-.4l1.63-2.32h.36v2.32h.48v.4h-.48v.86h-.44Zm0-1.26v-1.61l-1.12,1.61h1.12Z" fill="#231815"/><path d="m11.92,79.19v-.5h.5v.5h-.5Z" fill="#231815"/><path d="m13.06,77.42c0-.42.04-.76.13-1.02.09-.26.22-.46.39-.6.17-.14.39-.21.65-.21.19,0,.36.04.51.12.15.08.26.19.36.33.09.15.17.32.22.53.05.21.08.49.08.85,0,.42-.04.76-.13,1.02-.09.26-.22.46-.39.6-.17.14-.39.21-.65.21-.35,0-.62-.12-.81-.37-.24-.3-.35-.78-.35-1.46Zm.45,0c0,.59.07.98.21,1.17.14.19.31.29.51.29s.37-.1.51-.29c.14-.2.21-.59.21-1.17s-.07-.98-.21-1.17c-.14-.19-.31-.29-.51-.29s-.36.09-.48.26c-.15.22-.23.62-.23,1.21Z" fill="#231815"/><path d="m11.17,57.58l-.44.03c-.04-.17-.09-.3-.17-.38-.12-.13-.27-.19-.44-.19-.14,0-.26.04-.37.12-.14.1-.25.25-.33.44s-.12.47-.12.83c.11-.16.24-.28.39-.36s.31-.12.48-.12c.29,0,.54.11.75.32.21.22.31.49.31.84,0,.22-.05.43-.15.63-.1.19-.23.34-.4.44s-.36.15-.58.15c-.37,0-.67-.13-.9-.4-.23-.27-.35-.71-.35-1.33,0-.69.13-1.19.38-1.51.22-.27.52-.41.9-.41.28,0,.51.08.69.24.18.16.29.38.32.65Zm-1.79,1.54c0,.15.03.3.1.43.06.14.15.24.27.32.12.07.24.11.36.11.19,0,.35-.07.48-.22s.2-.35.2-.61-.07-.44-.2-.58c-.13-.14-.3-.21-.5-.21s-.37.07-.51.21c-.14.14-.21.33-.21.56Z" fill="#231815"/><path d="m11.92,60.29v-.5h.5v.5h-.5Z" fill="#231815"/><path d="m13.06,58.52c0-.42.04-.76.13-1.02.09-.26.22-.46.39-.6.17-.14.39-.21.65-.21.19,0,.36.04.51.12.15.08.26.19.36.33.09.15.17.32.22.53.05.21.08.49.08.85,0,.42-.04.76-.13,1.02-.09.26-.22.46-.39.6-.17.14-.39.21-.65.21-.35,0-.62-.12-.81-.37-.24-.3-.35-.78-.35-1.46Zm.45,0c0,.59.07.98.21,1.17.14.19.31.29.51.29s.37-.1.51-.29c.14-.2.21-.59.21-1.17s-.07-.98-.21-1.17c-.14-.19-.31-.29-.51-.29s-.36.09-.48.26c-.15.22-.23.62-.23,1.21Z" fill="#231815"/><path d="m9.57,39.45c-.18-.07-.32-.16-.41-.29s-.13-.27-.13-.44c0-.26.09-.48.28-.66s.44-.27.75-.27.56.09.75.27c.19.18.29.4.29.66,0,.17-.04.31-.13.43-.09.12-.22.22-.4.28.22.07.39.19.5.35.12.16.17.35.17.57,0,.31-.11.56-.32.77s-.5.31-.85.31-.64-.1-.85-.31c-.22-.21-.32-.47-.32-.78,0-.23.06-.43.18-.58.12-.16.29-.26.5-.32Zm-.23.91c0,.13.03.25.09.36.06.12.15.21.27.27.12.06.24.1.38.1.21,0,.38-.07.52-.2s.21-.31.21-.52-.07-.39-.21-.52c-.14-.14-.32-.21-.53-.21s-.38.07-.51.21c-.14.14-.2.31-.2.51Zm.14-1.65c0,.17.05.31.16.42s.25.16.42.16.31-.05.42-.16c.11-.11.16-.24.16-.39s-.06-.3-.17-.41c-.11-.11-.25-.17-.42-.17s-.31.05-.42.16-.17.24-.17.39Z" fill="#231815"/><path d="m11.92,41.39v-.5h.5v.5h-.5Z" fill="#231815"/><path d="m13.06,39.62c0-.42.04-.76.13-1.02.09-.26.22-.46.39-.6.17-.14.39-.21.65-.21.19,0,.36.04.51.12.15.08.26.19.36.33.09.15.17.32.22.53.05.21.08.49.08.85,0,.42-.04.76-.13,1.02-.09.26-.22.46-.39.6-.17.14-.39.21-.65.21-.35,0-.62-.12-.81-.37-.24-.3-.35-.78-.35-1.46Zm.45,0c0,.59.07.98.21,1.17.14.19.31.29.51.29s.37-.1.51-.29c.14-.2.21-.59.21-1.17s-.07-.98-.21-1.17c-.14-.19-.31-.29-.51-.29s-.36.09-.48.26c-.15.22-.23.62-.23,1.21Z" fill="#231815"/><path d="m7.76,22.49h-.44v-2.8c-.11.1-.24.2-.42.3-.17.1-.33.18-.46.23v-.42c.25-.12.46-.26.64-.42s.31-.32.39-.48h.28v3.59Z" fill="#231815"/><path d="m8.89,20.73c0-.42.04-.76.13-1.02.09-.26.22-.46.39-.6.17-.14.39-.21.65-.21.19,0,.36.04.51.12.15.08.26.19.36.33.09.15.17.32.22.53.05.21.08.49.08.85,0,.42-.04.76-.13,1.02-.09.26-.22.46-.39.6-.17.14-.39.21-.65.21-.35,0-.62-.12-.81-.37-.24-.3-.35-.78-.35-1.46Zm.45,0c0,.59.07.98.21,1.17.14.19.31.29.51.29s.37-.1.51-.29c.14-.2.21-.59.21-1.17s-.07-.98-.21-1.17c-.14-.19-.31-.29-.51-.29s-.36.09-.48.26c-.15.22-.23.62-.23,1.21Z" fill="#231815"/><path d="m11.92,22.49v-.5h.5v.5h-.5Z" fill="#231815"/><path d="m13.06,20.73c0-.42.04-.76.13-1.02.09-.26.22-.46.39-.6.17-.14.39-.21.65-.21.19,0,.36.04.51.12.15.08.26.19.36.33.09.15.17.32.22.53.05.21.08.49.08.85,0,.42-.04.76-.13,1.02-.09.26-.22.46-.39.6-.17.14-.39.21-.65.21-.35,0-.62-.12-.81-.37-.24-.3-.35-.78-.35-1.46Zm.45,0c0,.59.07.98.21,1.17.14.19.31.29.51.29s.37-.1.51-.29c.14-.2.21-.59.21-1.17s-.07-.98-.21-1.17c-.14-.19-.31-.29-.51-.29s-.36.09-.48.26c-.15.22-.23.62-.23,1.21Z" fill="#231815"/><path d="m7.76,3.59h-.44V.79c-.11.1-.24.2-.42.3-.17.1-.33.18-.46.23v-.42c.25-.12.46-.26.64-.42s.31-.32.39-.48h.28v3.59Z" fill="#231815"/><path d="m11.2,3.17v.42h-2.37c0-.11.01-.21.05-.31.06-.16.16-.32.29-.48.13-.16.32-.34.57-.54.39-.32.65-.57.79-.76.14-.19.21-.36.21-.53,0-.17-.06-.32-.19-.44-.12-.12-.29-.18-.49-.18-.21,0-.38.06-.51.19s-.19.3-.19.53l-.45-.05c.03-.34.15-.59.35-.77.2-.18.47-.26.81-.26s.62.1.82.29.3.43.3.71c0,.14-.03.28-.09.42s-.16.28-.29.44c-.14.15-.36.36-.68.63-.26.22-.43.37-.51.45-.07.08-.14.16-.19.24h1.76Z" fill="#231815"/><path d="m11.92,3.59v-.5h.5v.5h-.5Z" fill="#231815"/><path d="m13.06,1.83c0-.42.04-.76.13-1.02.09-.26.22-.46.39-.6.17-.14.39-.21.65-.21.19,0,.36.04.51.12.15.08.26.19.36.33.09.15.17.32.22.53.05.21.08.49.08.85,0,.42-.04.76-.13,1.02-.09.26-.22.46-.39.6-.17.14-.39.21-.65.21-.35,0-.62-.12-.81-.37-.24-.3-.35-.78-.35-1.46Zm.45,0c0,.59.07.98.21,1.17.14.19.31.29.51.29s.37-.1.51-.29c.14-.2.21-.59.21-1.17s-.07-.98-.21-1.17c-.14-.19-.31-.29-.51-.29s-.36.09-.48.26c-.15.22-.23.62-.23,1.21Z" fill="#231815"/><rect x="18.47" y="98.55" width="37.56" height="14.17" fill="#fff"/><rect x="19.18" y="41.86" width="39.69" height="14.17" fill="#fff"/><path d="m20.15,45.44l.54-.05c.03.21.08.39.18.53s.24.25.43.33.42.13.66.13c.22,0,.41-.03.57-.1s.29-.15.37-.27.12-.23.12-.37-.04-.25-.12-.35-.21-.18-.39-.25c-.12-.04-.37-.12-.76-.21s-.67-.18-.83-.27c-.21-.11-.36-.24-.46-.4s-.15-.34-.15-.53c0-.22.06-.42.18-.61s.3-.33.54-.43.5-.15.79-.15c.32,0,.6.05.84.15s.43.25.56.45.2.42.21.68l-.54.04c-.03-.27-.13-.48-.3-.62s-.42-.21-.75-.21-.59.06-.75.19-.24.28-.24.46c0,.15.06.28.17.38.11.1.39.2.86.31s.78.2.95.27c.25.12.43.26.55.44s.18.38.18.61-.07.44-.2.65-.32.36-.56.47-.52.17-.83.17c-.39,0-.71-.06-.98-.17s-.47-.28-.62-.51-.23-.48-.24-.77Z" fill="#231815"/><path d="m24.28,46.82v-4.29h.53v1.54c.25-.29.56-.43.93-.43.23,0,.43.04.6.14s.29.22.36.38.11.39.11.7v1.97h-.53v-1.97c0-.26-.06-.46-.17-.58s-.28-.18-.48-.18c-.16,0-.3.04-.44.12s-.24.19-.29.33-.09.33-.09.57v1.7h-.53Z" fill="#231815"/><path d="m27.42,45.27c0-.58.16-1,.48-1.28.27-.23.59-.35.98-.35.43,0,.78.14,1.05.42s.41.67.41,1.16c0,.4-.06.71-.18.94s-.29.41-.52.54-.48.19-.75.19c-.44,0-.79-.14-1.06-.42s-.4-.68-.4-1.21Zm.54,0c0,.4.09.7.26.89s.39.3.66.3.48-.1.65-.3.26-.5.26-.91c0-.38-.09-.68-.26-.88s-.39-.3-.65-.3-.48.1-.66.3-.26.5-.26.89Z" fill="#231815"/><path d="m30.95,46.82v-3.11h.47v.47c.12-.22.23-.37.33-.44s.22-.11.34-.11c.18,0,.36.06.54.17l-.18.49c-.13-.08-.26-.11-.39-.11-.12,0-.22.03-.31.1s-.16.17-.2.29c-.06.19-.09.39-.09.62v1.63h-.53Z" fill="#231815"/><path d="m34.1,46.35l.08.47c-.15.03-.28.05-.4.05-.19,0-.34-.03-.45-.09s-.18-.14-.22-.24-.06-.31-.06-.62v-1.79h-.39v-.41h.39v-.77l.52-.32v1.09h.53v.41h-.53v1.82c0,.15,0,.25.03.29s.05.08.09.1.1.04.18.04c.06,0,.14,0,.23-.02Z" fill="#231815"/><path d="m34.42,45.53v-.53h1.62v.53h-1.62Z" fill="#231815"/><path d="m38.64,46.82v-.39c-.2.31-.49.46-.87.46-.25,0-.48-.07-.68-.21s-.37-.33-.48-.57-.17-.53-.17-.84.05-.59.16-.85.26-.45.47-.58.44-.2.69-.2c.19,0,.35.04.5.12s.27.18.36.31v-1.54h.52v4.29h-.49Zm-1.67-1.55c0,.4.08.7.25.89s.37.3.59.3.43-.09.59-.28.24-.48.24-.86c0-.43-.08-.74-.25-.94s-.37-.3-.61-.3-.43.1-.59.29-.24.49-.24.91Z" fill="#231815"/><path d="m41.99,46.82v-.46c-.24.35-.57.53-.99.53-.18,0-.36-.04-.51-.11s-.28-.16-.35-.27-.13-.24-.16-.39c-.02-.1-.03-.27-.03-.49v-1.93h.53v1.73c0,.28.01.46.03.56.03.14.1.25.21.33s.24.12.4.12.31-.04.45-.12.24-.19.29-.33.09-.34.09-.61v-1.67h.53v3.11h-.47Z" fill="#231815"/><path d="m43.29,46.82v-3.11h.47v.47c.12-.22.23-.37.33-.44s.22-.11.34-.11c.18,0,.36.06.54.17l-.18.49c-.13-.08-.26-.11-.39-.11-.12,0-.22.03-.31.1s-.16.17-.2.29c-.06.19-.09.39-.09.62v1.63h-.53Z" fill="#231815"/><path d="m47.32,46.44c-.2.17-.38.28-.56.35s-.37.1-.58.1c-.34,0-.6-.08-.79-.25s-.28-.38-.28-.64c0-.15.03-.29.1-.42s.16-.23.27-.3.24-.13.38-.17c.1-.03.26-.05.47-.08.43-.05.74-.11.94-.18,0-.07,0-.12,0-.14,0-.21-.05-.37-.15-.45-.13-.12-.33-.18-.6-.18-.25,0-.43.04-.55.13s-.21.24-.26.46l-.52-.07c.05-.22.12-.4.23-.54s.26-.24.47-.31.44-.11.71-.11.48.03.65.09.29.14.37.24.13.21.16.36c.02.09.03.25.03.49v.7c0,.49.01.8.03.93s.07.25.13.37h-.55c-.05-.11-.09-.24-.11-.38Zm-.04-1.18c-.19.08-.48.14-.86.2-.22.03-.37.07-.46.11s-.16.1-.21.17-.07.16-.07.25c0,.14.05.26.16.35s.26.14.47.14.38-.04.54-.13.27-.21.35-.36c.06-.12.08-.29.08-.53v-.19Z" fill="#231815"/><path d="m49.78,46.35l.08.47c-.15.03-.28.05-.4.05-.19,0-.34-.03-.45-.09s-.18-.14-.22-.24-.06-.31-.06-.62v-1.79h-.39v-.41h.39v-.77l.52-.32v1.09h.53v.41h-.53v1.82c0,.15,0,.25.03.29s.05.08.09.1.1.04.18.04c.06,0,.14,0,.23-.02Z" fill="#231815"/><path d="m50.3,43.13v-.61h.53v.61h-.53Zm0,3.69v-3.11h.53v3.11h-.53Z" fill="#231815"/><path d="m51.43,45.27c0-.58.16-1,.48-1.28.27-.23.59-.35.98-.35.43,0,.78.14,1.05.42s.41.67.41,1.16c0,.4-.06.71-.18.94s-.29.41-.52.54-.48.19-.75.19c-.44,0-.79-.14-1.06-.42s-.4-.68-.4-1.21Zm.54,0c0,.4.09.7.26.89s.39.3.66.3.48-.1.65-.3.26-.5.26-.91c0-.38-.09-.68-.26-.88s-.39-.3-.65-.3-.48.1-.66.3-.26.5-.26.89Z" fill="#231815"/><path d="m54.96,46.82v-3.11h.47v.44c.23-.34.56-.51.99-.51.19,0,.36.03.52.1s.28.16.35.27.13.24.16.39c.02.1.03.27.03.51v1.91h-.53v-1.89c0-.21-.02-.38-.06-.48s-.11-.19-.22-.25-.23-.09-.37-.09c-.22,0-.42.07-.58.21s-.24.41-.24.81v1.7h-.53Z" fill="#231815"/><path d="m21.6,53.82v-3.11h.47v.47c.12-.22.23-.37.33-.44s.22-.11.34-.11c.18,0,.36.06.54.17l-.18.49c-.13-.08-.26-.11-.39-.11-.12,0-.22.03-.31.1s-.16.17-.2.29c-.06.19-.09.39-.09.62v1.63h-.53Z" fill="#231815"/><path d="m25.65,53.82v-.46c-.24.35-.57.53-.99.53-.18,0-.36-.04-.51-.11s-.28-.16-.35-.27-.13-.24-.16-.39c-.02-.1-.03-.27-.03-.49v-1.93h.53v1.73c0,.28.01.46.03.56.03.14.1.25.21.33s.24.12.4.12.31-.04.45-.12.24-.19.29-.33.09-.34.09-.61v-1.67h.53v3.11h-.47Z" fill="#231815"/><path d="m26.94,53.82v-3.11h.47v.44c.23-.34.56-.51.99-.51.19,0,.36.03.52.1s.28.16.35.27.13.24.16.39c.02.1.03.27.03.51v1.91h-.53v-1.89c0-.21-.02-.38-.06-.48s-.11-.19-.22-.25-.23-.09-.37-.09c-.22,0-.42.07-.58.21s-.24.41-.24.81v1.7h-.53Z" fill="#231815"/><path d="m30.28,53.82v-3.11h.47v.44c.23-.34.56-.51.99-.51.19,0,.36.03.52.1s.28.16.35.27.13.24.16.39c.02.1.03.27.03.51v1.91h-.53v-1.89c0-.21-.02-.38-.06-.48s-.11-.19-.22-.25-.23-.09-.37-.09c-.22,0-.42.07-.58.21s-.24.41-.24.81v1.7h-.53Z" fill="#231815"/><path d="m33.62,50.13v-.61h.53v.61h-.53Zm0,3.69v-3.11h.53v3.11h-.53Z" fill="#231815"/><path d="m34.95,53.82v-3.11h.47v.44c.23-.34.56-.51.99-.51.19,0,.36.03.52.1s.28.16.35.27.13.24.16.39c.02.1.03.27.03.51v1.91h-.53v-1.89c0-.21-.02-.38-.06-.48s-.11-.19-.22-.25-.23-.09-.37-.09c-.22,0-.42.07-.58.21s-.24.41-.24.81v1.7h-.53Z" fill="#231815"/><path d="m38.19,54.08l.51.08c.02.16.08.27.18.35.13.1.31.15.54.15.24,0,.43-.05.57-.15s.22-.23.27-.41c.03-.11.04-.33.04-.68-.23.27-.52.41-.86.41-.43,0-.76-.15-.99-.46s-.35-.68-.35-1.11c0-.3.05-.57.16-.82s.26-.44.47-.58.44-.21.72-.21c.37,0,.67.15.91.45v-.38h.49v2.69c0,.48-.05.83-.15,1.03s-.25.36-.47.48-.48.18-.79.18c-.37,0-.67-.08-.9-.25s-.34-.42-.33-.75Zm.44-1.87c0,.41.08.71.24.89s.37.28.61.28.45-.09.61-.28.25-.48.25-.88-.08-.67-.25-.86-.37-.29-.61-.29-.43.09-.6.29-.25.47-.25.85Z" fill="#231815"/><path d="m43.29,53.82v-3.11h.47v.47c.12-.22.23-.37.33-.44s.22-.11.34-.11c.18,0,.36.06.54.17l-.18.49c-.13-.08-.26-.11-.39-.11-.12,0-.22.03-.31.1s-.16.17-.2.29c-.06.19-.09.39-.09.62v1.63h-.53Z" fill="#231815"/><path d="m47.32,53.44c-.2.17-.38.28-.56.35s-.37.1-.58.1c-.34,0-.6-.08-.79-.25s-.28-.38-.28-.64c0-.15.03-.29.1-.42s.16-.23.27-.3.24-.13.38-.17c.1-.03.26-.05.47-.08.43-.05.74-.11.94-.18,0-.07,0-.12,0-.14,0-.21-.05-.37-.15-.45-.13-.12-.33-.18-.6-.18-.25,0-.43.04-.55.13s-.21.24-.26.46l-.52-.07c.05-.22.12-.4.23-.54s.26-.24.47-.31.44-.11.71-.11.48.03.65.09.29.14.37.24.13.21.16.36c.02.09.03.25.03.49v.7c0,.49.01.8.03.93s.07.25.13.37h-.55c-.05-.11-.09-.24-.11-.38Zm-.04-1.18c-.19.08-.48.14-.86.2-.22.03-.37.07-.46.11s-.16.1-.21.17-.07.16-.07.25c0,.14.05.26.16.35s.26.14.47.14.38-.04.54-.13.27-.21.35-.36c.06-.12.08-.29.08-.53v-.19Z" fill="#231815"/><path d="m48.63,53.82v-3.11h.47v.44c.23-.34.56-.51.99-.51.19,0,.36.03.52.1s.28.16.35.27.13.24.16.39c.02.1.03.27.03.51v1.91h-.53v-1.89c0-.21-.02-.38-.06-.48s-.11-.19-.22-.25-.23-.09-.37-.09c-.22,0-.42.07-.58.21s-.24.41-.24.81v1.7h-.53Z" fill="#231815"/><path d="m51.87,54.08l.51.08c.02.16.08.27.18.35.13.1.31.15.54.15.24,0,.43-.05.57-.15s.22-.23.27-.41c.03-.11.04-.33.04-.68-.23.27-.52.41-.86.41-.43,0-.76-.15-.99-.46s-.35-.68-.35-1.11c0-.3.05-.57.16-.82s.26-.44.47-.58.44-.21.72-.21c.37,0,.67.15.91.45v-.38h.49v2.69c0,.48-.05.83-.15,1.03s-.25.36-.47.48-.48.18-.79.18c-.37,0-.67-.08-.9-.25s-.34-.42-.33-.75Zm.44-1.87c0,.41.08.71.24.89s.37.28.61.28.45-.09.61-.28.25-.48.25-.88-.08-.67-.25-.86-.37-.29-.61-.29-.43.09-.6.29-.25.47-.25.85Z" fill="#231815"/><path d="m57.43,52.82l.54.07c-.09.32-.25.57-.48.74s-.53.26-.89.26c-.46,0-.82-.14-1.08-.42s-.4-.67-.4-1.18.13-.93.4-1.22.62-.43,1.05-.43.76.14,1.02.42.4.68.4,1.2c0,.03,0,.08,0,.14h-2.32c.02.34.12.6.29.79s.39.27.65.27c.19,0,.36-.05.5-.15s.25-.26.33-.49Zm-1.73-.85h1.74c-.02-.26-.09-.46-.2-.59-.17-.2-.39-.3-.65-.3-.24,0-.45.08-.61.24s-.26.38-.27.65Z" fill="#231815"/><path d="m4.29,75.04H.51v1.42h-.51v-3.4h.51v1.42h3.79v.57Z" fill="#231815"/><path d="m2.74,72.73c-.58,0-1-.16-1.28-.48-.23-.27-.35-.59-.35-.98,0-.43.14-.78.42-1.05s.67-.41,1.16-.41c.4,0,.72.06.94.18s.41.29.53.52.19.48.19.75c0,.44-.14.79-.42,1.06s-.68.4-1.21.4Zm0-.54c.4,0,.7-.09.9-.26s.3-.39.3-.66-.1-.48-.3-.65-.5-.26-.91-.26c-.38,0-.68.09-.87.26s-.3.39-.3.65.1.48.3.66.5.26.89.26Z" fill="#231815"/><path d="m4.29,69.2H1.18v-.47h.47c-.22-.12-.37-.23-.44-.34s-.11-.22-.11-.34c0-.18.06-.36.17-.54l.49.18c-.08.13-.11.26-.11.39,0,.12.03.22.1.31s.17.16.29.2c.19.06.39.09.62.09h1.63v.53Z" fill="#231815"/><path d="m5.49,65.21h-1.52c.12.08.21.2.29.34s.11.3.11.47c0,.37-.15.69-.44.95s-.7.4-1.21.4c-.31,0-.59-.05-.84-.16s-.44-.27-.56-.47-.19-.43-.19-.68c0-.38.16-.69.49-.91h-.42v-.47h4.3v.53Zm-2.76,1.63c.4,0,.7-.08.9-.25s.3-.37.3-.6-.1-.42-.29-.58-.48-.24-.87-.24c-.41,0-.73.09-.93.26s-.31.37-.31.6.1.42.29.58.5.24.91.24Z" fill="#231815"/><path d="m4.29,61.82h-.46c.35.24.53.57.53.99,0,.18-.04.35-.11.51s-.16.28-.27.35-.24.13-.39.16c-.1.02-.27.03-.49.03h-1.93v-.53h1.73c.28,0,.46-.01.56-.03.14-.03.25-.1.33-.21s.12-.24.12-.4-.04-.31-.12-.45-.19-.24-.33-.29-.34-.09-.61-.09h-1.67v-.53h3.11v.47Z" fill="#231815"/><path d="m3.29,58.39l.07-.54c.32.09.57.25.74.48s.26.53.26.89c0,.46-.14.82-.42,1.08s-.67.4-1.18.4-.93-.13-1.22-.4-.43-.62-.43-1.05.14-.76.42-1.02.68-.4,1.2-.4c.03,0,.08,0,.14,0v2.32c.34-.02.6-.12.79-.29s.27-.39.27-.65c0-.19-.05-.36-.15-.5s-.26-.25-.49-.33Zm-.85,1.73v-1.74c-.26.02-.46.09-.59.2-.2.17-.3.39-.3.65,0,.24.08.45.24.61s.38.26.65.27Z" fill="#231815"/><path d="m5.49,55.51H0v-1.16h.44v.64h4.61v-.64h.44v1.16Z" fill="#231815"/><path d="m4.29,53.79H0v-.58l3.37-2.26H0v-.54h4.29v.58l-3.38,2.26h3.38v.54Z" fill="#231815"/><path d="m2.19,49.59c-.21,0-.38-.07-.52-.22s-.22-.32-.22-.52.07-.38.22-.53.32-.22.52-.22.38.07.53.22.22.32.22.53-.07.38-.22.52-.32.22-.53.22Z" fill="#231815"/><path d="m4.29,47.42H1.18v-.47h.44c-.15-.1-.27-.23-.37-.39s-.14-.35-.14-.55c0-.23.05-.42.14-.57s.23-.25.4-.31c-.36-.25-.54-.57-.54-.96,0-.31.09-.55.26-.71s.43-.25.79-.25h2.14v.52h-1.96c-.21,0-.36.02-.46.05s-.17.1-.22.19-.08.2-.08.32c0,.22.07.4.22.54s.38.22.7.22h1.81v.53h-2.02c-.23,0-.41.04-.53.13s-.18.23-.18.42c0,.15.04.29.12.41s.19.22.34.27.37.08.65.08h1.61v.53Z" fill="#231815"/><path d="m5.49,41.54v1.16h-.44v-.64H.44v.64h-.44v-1.16h5.49Z" fill="#231815"/><path d="m24.76,102.01l.57.14c-.12.47-.33.82-.64,1.07s-.69.37-1.14.37-.84-.09-1.13-.28-.51-.46-.66-.82-.23-.74-.23-1.15c0-.45.09-.84.26-1.17s.41-.59.73-.76.66-.26,1.04-.26c.43,0,.79.11,1.08.33s.5.53.61.92l-.56.13c-.1-.31-.24-.54-.43-.68s-.43-.21-.71-.21c-.33,0-.61.08-.83.24s-.38.37-.47.64-.13.54-.13.82c0,.37.05.68.16.96s.27.48.5.61.47.2.73.2c.32,0,.59-.09.81-.28s.37-.46.45-.82Z" fill="#231815"/><path d="m25.77,101.96c0-.58.16-1,.48-1.28.27-.23.59-.35.98-.35.43,0,.78.14,1.05.42s.41.67.41,1.16c0,.4-.06.72-.18.94s-.29.41-.52.53-.48.19-.75.19c-.44,0-.79-.14-1.06-.42s-.4-.68-.4-1.21Zm.54,0c0,.4.09.7.26.9s.39.3.66.3.48-.1.65-.3.26-.5.26-.91c0-.38-.09-.68-.26-.87s-.39-.3-.65-.3-.48.1-.66.3-.26.5-.26.89Z" fill="#231815"/><path d="m29.3,103.52v-3.11h.47v.44c.23-.34.56-.51.99-.51.19,0,.36.03.52.1s.27.16.35.27.13.24.16.39c.02.1.03.27.03.51v1.91h-.53v-1.89c0-.21-.02-.38-.06-.48s-.11-.19-.22-.25-.23-.1-.37-.1c-.22,0-.42.07-.58.21s-.24.41-.24.81v1.7h-.53Z" fill="#231815"/><path d="m33.79,103.04l.08.47c-.15.03-.28.05-.4.05-.19,0-.34-.03-.45-.09s-.18-.14-.22-.24-.06-.31-.06-.62v-1.79h-.39v-.41h.39v-.77l.52-.32v1.09h.53v.41h-.53v1.82c0,.15,0,.25.03.29s.05.08.09.1.1.04.18.04c.06,0,.14,0,.23-.02Z" fill="#231815"/><path d="m34.31,99.83v-.61h.53v.61h-.53Zm0,3.69v-3.11h.53v3.11h-.53Z" fill="#231815"/><path d="m35.64,103.52v-3.11h.47v.44c.23-.34.56-.51.99-.51.19,0,.36.03.52.1s.27.16.35.27.13.24.16.39c.02.1.03.27.03.51v1.91h-.53v-1.89c0-.21-.02-.38-.06-.48s-.11-.19-.22-.25-.23-.1-.37-.1c-.22,0-.42.07-.58.21s-.24.41-.24.81v1.7h-.53Z" fill="#231815"/><path d="m41.02,103.52v-.46c-.24.35-.57.53-.99.53-.18,0-.35-.04-.51-.11s-.28-.16-.35-.27-.13-.24-.16-.39c-.02-.1-.03-.27-.03-.49v-1.93h.53v1.73c0,.28.01.46.03.56.03.14.1.25.21.33s.24.12.4.12.31-.04.45-.12.24-.19.29-.33.09-.34.09-.61v-1.67h.53v3.11h-.47Z" fill="#231815"/><path d="m42.12,101.96c0-.58.16-1,.48-1.28.27-.23.59-.35.98-.35.43,0,.78.14,1.05.42s.41.67.41,1.16c0,.4-.06.72-.18.94s-.29.41-.52.53-.48.19-.75.19c-.44,0-.79-.14-1.06-.42s-.4-.68-.4-1.21Zm.54,0c0,.4.09.7.26.9s.39.3.66.3.48-.1.65-.3.26-.5.26-.91c0-.38-.09-.68-.26-.87s-.39-.3-.65-.3-.48.1-.66.3-.26.5-.26.89Z" fill="#231815"/><path d="m47.69,103.52v-.46c-.24.35-.57.53-.99.53-.18,0-.35-.04-.51-.11s-.28-.16-.35-.27-.13-.24-.16-.39c-.02-.1-.03-.27-.03-.49v-1.93h.53v1.73c0,.28.01.46.03.56.03.14.1.25.21.33s.24.12.4.12.31-.04.45-.12.24-.19.29-.33.09-.34.09-.61v-1.67h.53v3.11h-.47Z" fill="#231815"/><path d="m48.78,102.59l.52-.08c.03.21.11.37.24.48s.32.17.56.17.42-.05.54-.15.18-.21.18-.35c0-.12-.05-.21-.16-.28-.07-.05-.25-.11-.54-.18-.39-.1-.65-.18-.8-.25s-.26-.17-.34-.3-.12-.27-.12-.42c0-.14.03-.27.1-.39s.15-.22.26-.29c.08-.06.19-.11.34-.15s.29-.06.46-.06c.24,0,.46.04.64.11s.32.17.41.29.15.28.18.48l-.52.07c-.02-.16-.09-.29-.2-.38s-.27-.13-.48-.13c-.24,0-.42.04-.52.12s-.16.17-.16.28c0,.07.02.13.06.18.04.06.11.1.2.14.05.02.21.06.47.13.37.1.63.18.78.24s.26.16.35.28.13.27.13.45-.05.34-.15.5-.25.28-.44.36-.41.13-.66.13c-.4,0-.71-.08-.92-.25s-.35-.42-.41-.75Z" fill="#231815"/><path d="m19.12,110.52v-3.11h.47v.47c.12-.22.23-.37.34-.44s.22-.11.34-.11c.18,0,.36.06.54.17l-.18.49c-.13-.08-.26-.11-.39-.11-.12,0-.22.03-.31.1s-.16.17-.2.29c-.06.19-.09.39-.09.62v1.63h-.53Z" fill="#231815"/><path d="m23.17,110.52v-.46c-.24.35-.57.53-.99.53-.18,0-.35-.04-.51-.11s-.28-.16-.35-.27-.13-.24-.16-.39c-.02-.1-.03-.27-.03-.49v-1.93h.53v1.73c0,.28.01.46.03.56.03.14.1.25.21.33s.24.12.4.12.31-.04.45-.12.24-.19.29-.33.09-.34.09-.61v-1.67h.53v3.11h-.47Z" fill="#231815"/><path d="m24.46,110.52v-3.11h.47v.44c.23-.34.56-.51.99-.51.19,0,.36.03.52.1s.27.16.35.27.13.24.16.39c.02.1.03.27.03.51v1.91h-.53v-1.89c0-.21-.02-.38-.06-.48s-.11-.19-.22-.25-.23-.1-.37-.1c-.22,0-.42.07-.58.21s-.24.41-.24.81v1.7h-.53Z" fill="#231815"/><path d="m27.8,110.52v-3.11h.47v.44c.23-.34.56-.51.99-.51.19,0,.36.03.52.1s.27.16.35.27.13.24.16.39c.02.1.03.27.03.51v1.91h-.53v-1.89c0-.21-.02-.38-.06-.48s-.11-.19-.22-.25-.23-.1-.37-.1c-.22,0-.42.07-.58.21s-.24.41-.24.81v1.7h-.53Z" fill="#231815"/><path d="m31.14,106.83v-.61h.53v.61h-.53Zm0,3.69v-3.11h.53v3.11h-.53Z" fill="#231815"/><path d="m32.47,110.52v-3.11h.47v.44c.23-.34.56-.51.99-.51.19,0,.36.03.52.1s.27.16.35.27.13.24.16.39c.02.1.03.27.03.51v1.91h-.53v-1.89c0-.21-.02-.38-.06-.48s-.11-.19-.22-.25-.23-.1-.37-.1c-.22,0-.42.07-.58.21s-.24.41-.24.81v1.7h-.53Z" fill="#231815"/><path d="m35.71,110.77l.51.08c.02.16.08.27.18.35.13.1.31.15.54.15.24,0,.43-.05.57-.15s.22-.23.27-.41c.03-.11.04-.33.04-.68-.23.27-.52.41-.86.41-.43,0-.76-.15-.99-.46s-.35-.68-.35-1.11c0-.3.05-.57.16-.82s.26-.44.47-.58.44-.21.72-.21c.37,0,.67.15.91.45v-.38h.49v2.69c0,.48-.05.83-.15,1.03s-.25.36-.47.48-.48.18-.79.18c-.37,0-.67-.08-.9-.25s-.34-.42-.33-.75Zm.44-1.87c0,.41.08.71.24.89s.37.28.61.28.45-.09.61-.28.25-.48.25-.88-.08-.67-.25-.86-.37-.29-.61-.29-.43.1-.6.29-.25.47-.25.85Z" fill="#231815"/><path d="m40.81,110.52v-3.11h.47v.47c.12-.22.23-.37.34-.44s.22-.11.34-.11c.18,0,.36.06.54.17l-.18.49c-.13-.08-.26-.11-.39-.11-.12,0-.22.03-.31.1s-.16.17-.2.29c-.06.19-.09.39-.09.62v1.63h-.53Z" fill="#231815"/><path d="m44.84,110.13c-.2.17-.38.28-.56.35s-.37.1-.58.1c-.34,0-.6-.08-.79-.25s-.28-.38-.28-.64c0-.15.03-.29.1-.42s.16-.23.27-.3.24-.13.38-.17c.1-.03.26-.05.47-.08.43-.05.74-.11.94-.18,0-.07,0-.12,0-.14,0-.21-.05-.37-.15-.45-.13-.12-.33-.18-.6-.18-.25,0-.43.04-.55.13s-.21.24-.26.46l-.52-.07c.05-.22.12-.4.23-.53s.26-.24.47-.31.44-.11.71-.11.48.03.65.09.29.14.37.24.13.21.16.36c.02.09.03.25.03.49v.7c0,.49.01.8.03.93s.07.25.13.37h-.55c-.05-.11-.09-.24-.11-.38Zm-.04-1.18c-.19.08-.48.14-.86.2-.22.03-.37.07-.46.11s-.16.1-.21.17-.07.16-.07.25c0,.14.05.26.16.35s.26.14.47.14.38-.04.54-.13.27-.21.35-.36c.06-.12.08-.29.08-.53v-.19Z" fill="#231815"/><path d="m46.15,110.52v-3.11h.47v.44c.23-.34.56-.51.99-.51.19,0,.36.03.52.1s.27.16.35.27.13.24.16.39c.02.1.03.27.03.51v1.91h-.53v-1.89c0-.21-.02-.38-.06-.48s-.11-.19-.22-.25-.23-.1-.37-.1c-.22,0-.42.07-.58.21s-.24.41-.24.81v1.7h-.53Z" fill="#231815"/><path d="m49.39,110.77l.51.08c.02.16.08.27.18.35.13.1.31.15.54.15.24,0,.43-.05.57-.15s.22-.23.27-.41c.03-.11.04-.33.04-.68-.23.27-.52.41-.86.41-.43,0-.76-.15-.99-.46s-.35-.68-.35-1.11c0-.3.05-.57.16-.82s.26-.44.47-.58.44-.21.72-.21c.37,0,.67.15.91.45v-.38h.49v2.69c0,.48-.05.83-.15,1.03s-.25.36-.47.48-.48.18-.79.18c-.37,0-.67-.08-.9-.25s-.34-.42-.33-.75Zm.44-1.87c0,.41.08.71.24.89s.37.28.61.28.45-.09.61-.28.25-.48.25-.88-.08-.67-.25-.86-.37-.29-.61-.29-.43.1-.6.29-.25.47-.25.85Z" fill="#231815"/><path d="m54.95,109.51l.54.07c-.09.32-.25.57-.48.74s-.53.26-.89.26c-.46,0-.82-.14-1.08-.42s-.4-.67-.4-1.18.13-.93.4-1.22.62-.43,1.05-.43.76.14,1.02.42.4.68.4,1.2c0,.03,0,.08,0,.14h-2.32c.02.34.12.6.29.79s.39.27.65.27c.19,0,.36-.05.5-.15s.25-.26.33-.49Zm-1.73-.85h1.74c-.02-.26-.09-.46-.2-.59-.17-.2-.39-.3-.65-.3-.24,0-.45.08-.61.24s-.26.38-.27.65Z" fill="#231815"/><path d="m44.83,128.36l.54-.05c.03.21.08.39.18.53s.24.25.43.33.42.13.66.13c.22,0,.41-.03.57-.1s.29-.15.37-.27.12-.23.12-.37-.04-.25-.12-.35-.21-.19-.39-.25c-.12-.04-.37-.11-.76-.21s-.67-.18-.83-.27c-.21-.11-.36-.24-.46-.4s-.15-.34-.15-.53c0-.22.06-.42.18-.61s.3-.33.54-.43.5-.15.79-.15c.32,0,.6.05.84.15s.43.25.56.45.2.42.21.68l-.54.04c-.03-.27-.13-.48-.3-.62s-.42-.21-.75-.21-.59.06-.75.19-.24.28-.24.46c0,.15.06.28.17.38.11.1.4.2.86.31s.78.2.95.27c.25.12.43.26.55.44s.18.38.18.61-.07.44-.2.65-.32.36-.56.47-.52.17-.83.17c-.39,0-.71-.06-.98-.17s-.47-.28-.62-.51-.23-.48-.24-.77Z" fill="#231815"/><path d="m48.96,130.93v-4.3h.48v.4c.11-.16.24-.28.38-.36s.32-.12.52-.12c.27,0,.5.07.7.21s.36.33.46.58.16.52.16.82c0,.32-.06.6-.17.86s-.28.45-.5.59-.45.2-.69.2c-.18,0-.33-.04-.47-.11s-.25-.17-.34-.28v1.51h-.53Zm.48-2.73c0,.4.08.7.24.89s.36.29.59.29.44-.1.6-.3.25-.51.25-.92-.08-.69-.24-.89-.36-.3-.58-.3-.42.1-.6.31-.26.52-.26.92Z" fill="#231815"/><path d="m54.43,128.73l.54.07c-.09.32-.25.57-.48.74s-.53.26-.89.26c-.46,0-.82-.14-1.08-.42s-.4-.67-.4-1.18.13-.93.4-1.22.62-.43,1.05-.43.76.14,1.02.42.4.68.4,1.2c0,.03,0,.08,0,.14h-2.32c.02.34.12.6.29.79s.39.27.65.27c.19,0,.36-.05.5-.15s.25-.26.33-.49Zm-1.73-.85h1.74c-.02-.26-.09-.46-.2-.59-.17-.2-.39-.3-.65-.3-.24,0-.45.08-.61.24s-.26.38-.27.65Z" fill="#231815"/><path d="m57.76,128.73l.54.07c-.09.32-.25.57-.48.74s-.53.26-.89.26c-.46,0-.82-.14-1.08-.42s-.4-.67-.4-1.18.13-.93.4-1.22.62-.43,1.05-.43.76.14,1.02.42.4.68.4,1.2c0,.03,0,.08,0,.14h-2.32c.02.34.12.6.29.79s.39.27.65.27c.19,0,.36-.05.5-.15s.25-.26.33-.49Zm-1.73-.85h1.74c-.02-.26-.09-.46-.2-.59-.17-.2-.39-.3-.65-.3-.24,0-.45.08-.61.24s-.26.38-.27.65Z" fill="#231815"/><path d="m60.99,129.74v-.39c-.2.31-.49.46-.87.46-.25,0-.48-.07-.68-.21s-.37-.33-.48-.57-.17-.53-.17-.85.05-.59.16-.85.26-.45.47-.58.44-.2.69-.2c.19,0,.35.04.5.12s.27.18.36.31v-1.54h.52v4.29h-.49Zm-1.67-1.55c0,.4.08.7.25.89s.37.3.59.3.43-.09.59-.28.24-.48.24-.86c0-.43-.08-.74-.25-.94s-.37-.3-.61-.3-.43.1-.59.29-.24.49-.24.91Z" fill="#231815"/><path d="m63.99,130.93v-5.49h1.16v.44h-.64v4.61h.64v.44h-1.16Z" fill="#231815"/><path d="m65.64,129.74v-3.11h.47v.47c.12-.22.23-.37.34-.44s.22-.11.34-.11c.18,0,.36.06.54.17l-.18.49c-.13-.08-.26-.11-.39-.11-.12,0-.22.03-.31.1s-.16.17-.2.29c-.06.19-.09.39-.09.62v1.63h-.53Z" fill="#231815"/><path d="m67.24,129.81l1.25-4.44h.42l-1.24,4.44h-.42Z" fill="#231815"/><path d="m69.31,129.74v-3.11h.47v.44c.1-.15.23-.27.39-.37s.35-.14.55-.14c.23,0,.42.05.57.14s.25.23.31.4c.25-.36.57-.54.96-.54.31,0,.55.09.71.26s.25.43.25.79v2.14h-.52v-1.96c0-.21-.02-.36-.05-.46s-.1-.17-.19-.22-.2-.08-.32-.08c-.22,0-.4.07-.54.22s-.22.38-.22.7v1.81h-.53v-2.02c0-.23-.04-.41-.13-.53s-.23-.18-.42-.18c-.15,0-.29.04-.41.12s-.22.19-.27.34-.08.37-.08.65v1.61h-.53Z" fill="#231815"/><path d="m74.31,126.05v-.61h.53v.61h-.53Zm0,3.69v-3.11h.53v3.11h-.53Z" fill="#231815"/><path d="m75.64,129.74v-3.11h.47v.44c.23-.34.56-.51.99-.51.19,0,.36.03.52.1s.27.16.35.27.13.24.16.39c.02.1.03.27.03.51v1.91h-.53v-1.89c0-.21-.02-.38-.06-.48s-.11-.19-.22-.25-.23-.1-.37-.1c-.22,0-.42.07-.58.21s-.24.41-.24.81v1.7h-.53Z" fill="#231815"/><path d="m79.86,130.93h-1.16v-.44h.64v-4.61h-.64v-.44h1.16v5.49Z" fill="#231815"/></svg>