<svg xmlns="http://www.w3.org/2000/svg" viewBox="0 0 116.59 131.42"><defs><style>.cls-1,.cls-2,.cls-3,.cls-4,.邱喟0\.5pt-4{fill:none;}.cls-1,.cls-2,.cls-4,.邱喟0\.5pt-4{stroke:#231815;}.cls-1{stroke-linejoin:round;stroke-width:0.14px;}.cls-2,.cls-3,.cls-4,.邱喟0\.5pt-4{stroke-miterlimit:10;}.cls-2{stroke-width:0.14px;}.cls-3{stroke:#9fa0a0;stroke-width:3px;}.cls-4{stroke-width:1px;}.繝後Μ_逋ｽ{fill:#fff;}.cls-5{fill:#231815;}.邱喟0\.5pt-4{stroke-width:0.5px;}</style></defs><g id="Illust"><line class="cls-1" x1="45.52" y1="2.18" x2="45.52" y2="115.56"/><line class="cls-1" x1="72.59" y1="2.18" x2="72.59" y2="115.56"/><line class="cls-1" x1="99.67" y1="2.18" x2="99.67" y2="115.56"/><line class="cls-2" x1="18.44" y1="44.7" x2="109.15" y2="44.7"/><line class="cls-2" x1="18.44" y1="16.35" x2="109.15" y2="16.35"/><line class="cls-2" x1="18.44" y1="30.52" x2="109.15" y2="30.52"/><line class="cls-2" x1="18.44" y1="30.52" x2="109.15" y2="30.52"/><line class="cls-2" x1="18.44" y1="58.87" x2="109.15" y2="58.87"/><line class="cls-2" x1="18.44" y1="73.04" x2="109.15" y2="73.04"/><line class="cls-2" x1="18.44" y1="87.22" x2="109.15" y2="87.22"/><line class="cls-2" x1="18.44" y1="101.39" x2="109.15" y2="101.39"/><polyline class="cls-3" points="18.44 92.98 31.9 92.98 45.37 92.98 58.83 92.98 72.3 98.65 85.76 102.01 99.22 104.27 109.15 105.48"/><polyline class="cls-3" points="18.44 36.6 85.76 36.6 109.66 44.87"/><polyline class="cls-4" points="18.44 92.98 31.9 92.98 45.37 92.98 58.83 92.98 72.3 98.65 85.76 102.01 99.22 104.27 109.15 105.48"/><rect class="繝後Μ_逋ｽ" x="109.15" y="2.18" width="2.83" height="113.39"/><path class="cls-5" d="M10.23,137.13a3.2,3.2,0,0,1,.13-1,1.31,1.31,0,0,1,.39-.6,1.11,1.11,0,0,1,1.15-.09,1,1,0,0,1,.36.33,1.91,1.91,0,0,1,.22.54,4.23,4.23,0,0,1-.05,1.86,1.22,1.22,0,0,1-.38.6,1,1,0,0,1-.65.21,1,1,0,0,1-.82-.37A2.43,2.43,0,0,1,10.23,137.13Zm.45,0a2.25,2.25,0,0,0,.21,1.18.6.6,0,0,0,.51.29.61.61,0,0,0,.51-.3,3.52,3.52,0,0,0,0-2.34.6.6,0,0,0-.52-.29.56.56,0,0,0-.48.25A2.28,2.28,0,0,0,10.68,137.13Z" transform="translate(0.01 -21.92)"/><path class="cls-5" d="M13.29,138.9v-.5h.5v.5Z" transform="translate(0.01 -21.92)"/><path class="cls-5" d="M14.43,137.13a3.52,3.52,0,0,1,.13-1,1.31,1.31,0,0,1,.39-.6,1,1,0,0,1,.65-.21,1.07,1.07,0,0,1,.51.12,1.13,1.13,0,0,1,.36.33,2.25,2.25,0,0,1,.22.54,3.72,3.72,0,0,1,.08.84,3.2,3.2,0,0,1-.13,1,1.31,1.31,0,0,1-.39.6,1,1,0,0,1-.65.21,1,1,0,0,1-.81-.37A2.35,2.35,0,0,1,14.43,137.13Zm.46,0a2.38,2.38,0,0,0,.2,1.18.62.62,0,0,0,.51.29.61.61,0,0,0,.51-.3,3.36,3.36,0,0,0,0-2.34.6.6,0,0,0-.51-.29.56.56,0,0,0-.49.25A2.3,2.3,0,0,0,14.89,137.13Z" transform="translate(0.01 -21.92)"/><path class="cls-5" d="M10.23,123a3.2,3.2,0,0,1,.13-1,1.31,1.31,0,0,1,.39-.6,1.11,1.11,0,0,1,1.15-.09.88.88,0,0,1,.36.33,1.84,1.84,0,0,1,.22.53,3.25,3.25,0,0,1,.08.85,3.2,3.2,0,0,1-.13,1,1.24,1.24,0,0,1-.38.59,1.07,1.07,0,0,1-1.47-.16A2.37,2.37,0,0,1,10.23,123Zm.45,0a2.18,2.18,0,0,0,.21,1.17.58.58,0,0,0,.51.29.6.6,0,0,0,.51-.29,2.34,2.34,0,0,0,.2-1.17,2.38,2.38,0,0,0-.2-1.18.63.63,0,0,0-.52-.29.56.56,0,0,0-.48.26A2.28,2.28,0,0,0,10.68,123Z" transform="translate(0.01 -21.92)"/><path class="cls-5" d="M13.29,124.72v-.5h.5v.5Z" transform="translate(0.01 -21.92)"/><path class="cls-5" d="M16.74,124.3v.42H14.38a.63.63,0,0,1,0-.3,1.76,1.76,0,0,1,.29-.48,5.2,5.2,0,0,1,.57-.54,4.48,4.48,0,0,0,.79-.76.88.88,0,0,0,.21-.53.58.58,0,0,0-.19-.44.67.67,0,0,0-.49-.18.69.69,0,0,0-.5.19.72.72,0,0,0-.2.53l-.45,0a1.14,1.14,0,0,1,.35-.78,1.21,1.21,0,0,1,.81-.26,1.14,1.14,0,0,1,.82.29.92.92,0,0,1,.3.7,1.07,1.07,0,0,1-.09.43,1.62,1.62,0,0,1-.29.43,5.7,5.7,0,0,1-.68.63l-.51.45a1.88,1.88,0,0,0-.18.24Z" transform="translate(0.01 -21.92)"/><path class="cls-5" d="M10.23,108.79a3.23,3.23,0,0,1,.13-1,1.33,1.33,0,0,1,.39-.59,1,1,0,0,1,.65-.21,1.12,1.12,0,0,1,.5.11.9.9,0,0,1,.36.34,1.73,1.73,0,0,1,.22.53,3.25,3.25,0,0,1,.08.85,3.14,3.14,0,0,1-.13,1,1.22,1.22,0,0,1-.38.6,1.1,1.1,0,0,1-1.47-.16A2.39,2.39,0,0,1,10.23,108.79Zm.45,0a2.23,2.23,0,0,0,.21,1.17.6.6,0,0,0,.51.29.62.62,0,0,0,.51-.29,3.55,3.55,0,0,0,0-2.35.63.63,0,0,0-.52-.29.56.56,0,0,0-.48.26A2.28,2.28,0,0,0,10.68,108.79Z" transform="translate(0.01 -21.92)"/><path class="cls-5" d="M13.29,110.55v-.5h.5v.5Z" transform="translate(0.01 -21.92)"/><path class="cls-5" d="M15.84,110.55v-.86H14.29v-.4L15.92,107h.36v2.32h.49v.4h-.49v.86Zm0-1.26v-1.61l-1.12,1.61Z" transform="translate(0.01 -21.92)"/><path class="cls-5" d="M10.23,94.61a3.2,3.2,0,0,1,.13-1,1.31,1.31,0,0,1,.39-.6,1.11,1.11,0,0,1,1.15-.09,1,1,0,0,1,.36.33,1.91,1.91,0,0,1,.22.54,4.23,4.23,0,0,1-.05,1.86,1.22,1.22,0,0,1-.38.6,1,1,0,0,1-.65.21,1,1,0,0,1-.82-.37A2.43,2.43,0,0,1,10.23,94.61Zm.45,0a2.25,2.25,0,0,0,.21,1.18.6.6,0,0,0,.51.29.61.61,0,0,0,.51-.3,3.52,3.52,0,0,0,0-2.34.6.6,0,0,0-.52-.29.56.56,0,0,0-.48.25A2.28,2.28,0,0,0,10.68,94.61Z" transform="translate(0.01 -21.92)"/><path class="cls-5" d="M13.29,96.38v-.5h.5v.5Z" transform="translate(0.01 -21.92)"/><path class="cls-5" d="M16.71,93.67l-.43,0a.9.9,0,0,0-.17-.38.6.6,0,0,0-.44-.19.61.61,0,0,0-.37.12,1.07,1.07,0,0,0-.32.44,2.48,2.48,0,0,0-.13.83,1.11,1.11,0,0,1,.39-.36,1.06,1.06,0,0,1,1.23.21,1.13,1.13,0,0,1,.31.84,1.32,1.32,0,0,1-.15.62,1,1,0,0,1-.4.44,1,1,0,0,1-.57.16,1.13,1.13,0,0,1-.9-.41,2,2,0,0,1-.35-1.33,2.38,2.38,0,0,1,.39-1.51,1.1,1.1,0,0,1,.9-.41,1,1,0,0,1,.69.24A1,1,0,0,1,16.71,93.67Zm-1.79,1.55a.94.94,0,0,0,.1.43.7.7,0,0,0,.63.43.62.62,0,0,0,.48-.23.9.9,0,0,0,.2-.61.82.82,0,0,0-.2-.58.67.67,0,0,0-.5-.22.68.68,0,0,0-.5.22A.76.76,0,0,0,14.92,95.22Z" transform="translate(0.01 -21.92)"/><path class="cls-5" d="M10.23,80.44a3.2,3.2,0,0,1,.13-1,1.31,1.31,0,0,1,.39-.6,1.11,1.11,0,0,1,1.15-.09.88.88,0,0,1,.36.33,1.84,1.84,0,0,1,.22.53,3.25,3.25,0,0,1,.08.85,3.2,3.2,0,0,1-.13,1,1.24,1.24,0,0,1-.38.59,1,1,0,0,1-.65.22,1,1,0,0,1-.82-.38A2.37,2.37,0,0,1,10.23,80.44Zm.45,0a2.18,2.18,0,0,0,.21,1.17.58.58,0,0,0,.51.29.6.6,0,0,0,.51-.29,3.52,3.52,0,0,0,0-2.34.61.61,0,0,0-.52-.3.56.56,0,0,0-.48.26A2.28,2.28,0,0,0,10.68,80.44Z" transform="translate(0.01 -21.92)"/><path class="cls-5" d="M13.29,82.2v-.5h.5v.5Z" transform="translate(0.01 -21.92)"/><path class="cls-5" d="M15.11,80.26a.76.76,0,0,1-.4-.28.75.75,0,0,1-.14-.45.87.87,0,0,1,.28-.65,1,1,0,0,1,.75-.27,1.07,1.07,0,0,1,.76.27.89.89,0,0,1,.28.67.71.71,0,0,1-.13.43.8.8,0,0,1-.4.28,1.06,1.06,0,0,1,.51.35,1,1,0,0,1,.17.57,1,1,0,0,1-.33.77,1.16,1.16,0,0,1-.85.32,1.2,1.2,0,0,1-.86-.32,1.06,1.06,0,0,1-.32-.78,1,1,0,0,1,.18-.59A.89.89,0,0,1,15.11,80.26Zm-.23.91a.81.81,0,0,0,.09.37.7.7,0,0,0,.27.27.78.78,0,0,0,.37.09.7.7,0,0,0,.73-.71.72.72,0,0,0-.74-.74.66.66,0,0,0-.51.21A.69.69,0,0,0,14.88,81.17ZM15,79.52a.53.53,0,0,0,.17.41.57.57,0,0,0,.42.17.61.61,0,0,0,.42-.16.54.54,0,0,0,.16-.4.54.54,0,0,0-.17-.4.57.57,0,0,0-.41-.17.61.61,0,0,0-.42.16A.54.54,0,0,0,15,79.52Z" transform="translate(0.01 -21.92)"/><path class="cls-5" d="M11.88,68h-.43v-2.8a2.54,2.54,0,0,1-.42.3,3.27,3.27,0,0,1-.46.23v-.42a3,3,0,0,0,.64-.42,2,2,0,0,0,.39-.48h.28Z" transform="translate(0.01 -21.92)"/><path class="cls-5" d="M13.29,68v-.5h.5V68Z" transform="translate(0.01 -21.92)"/><path class="cls-5" d="M14.43,66.27a3.54,3.54,0,0,1,.13-1,1.33,1.33,0,0,1,.39-.59,1,1,0,0,1,.65-.21,1.19,1.19,0,0,1,.51.11,1.06,1.06,0,0,1,.36.34,2,2,0,0,1,.22.53,3.76,3.76,0,0,1,.08.85,3.14,3.14,0,0,1-.13,1,1.31,1.31,0,0,1-.39.6,1,1,0,0,1-.65.21,1,1,0,0,1-.81-.37A2.32,2.32,0,0,1,14.43,66.27Zm.46,0a2.36,2.36,0,0,0,.2,1.17.59.59,0,0,0,1,0,3.39,3.39,0,0,0,0-2.35.62.62,0,0,0-.51-.29.57.57,0,0,0-.49.26A2.3,2.3,0,0,0,14.89,66.27Z" transform="translate(0.01 -21.92)"/><path class="cls-5" d="M11.88,53.86h-.43v-2.8a2.54,2.54,0,0,1-.42.3,3.27,3.27,0,0,1-.46.23v-.43a2.37,2.37,0,0,0,.64-.42,1.65,1.65,0,0,0,.39-.48h.28Z" transform="translate(0.01 -21.92)"/><path class="cls-5" d="M13.29,53.86v-.5h.5v.5Z" transform="translate(0.01 -21.92)"/><path class="cls-5" d="M16.74,53.44v.42H14.38a.65.65,0,0,1,0-.31,1.58,1.58,0,0,1,.29-.47,4.37,4.37,0,0,1,.57-.55,4.51,4.51,0,0,0,.79-.75.92.92,0,0,0,.21-.53.56.56,0,0,0-.19-.44.67.67,0,0,0-.49-.18.65.65,0,0,0-.5.19.71.71,0,0,0-.2.53l-.45-.05a1.12,1.12,0,0,1,.35-.77,1.17,1.17,0,0,1,.81-.27,1.14,1.14,0,0,1,.82.29.94.94,0,0,1,.3.71,1.06,1.06,0,0,1-.09.42,1.66,1.66,0,0,1-.29.44,8.11,8.11,0,0,1-.68.63l-.51.45a1.88,1.88,0,0,0-.18.24Z" transform="translate(0.01 -21.92)"/><path class="cls-5" d="M11.88,39.68h-.43v-2.8a2.08,2.08,0,0,1-.42.31,3.09,3.09,0,0,1-.46.22V37a3,3,0,0,0,.64-.42,1.79,1.79,0,0,0,.39-.48h.28Z" transform="translate(0.01 -21.92)"/><path class="cls-5" d="M13.29,39.68v-.5h.5v.5Z" transform="translate(0.01 -21.92)"/><path class="cls-5" d="M15.84,39.68v-.85H14.29v-.41l1.63-2.31h.36v2.31h.49v.41h-.49v.85Zm0-1.26V36.81l-1.12,1.61Z" transform="translate(0.01 -21.92)"/><path class="cls-5" d="M11.88,25.51h-.43v-2.8A2.54,2.54,0,0,1,11,23a3.27,3.27,0,0,1-.46.23v-.42a3,3,0,0,0,.64-.42,2,2,0,0,0,.39-.48h.28Z" transform="translate(0.01 -21.92)"/><path class="cls-5" d="M13.29,25.51V25h.5v.5Z" transform="translate(0.01 -21.92)"/><path class="cls-5" d="M16.71,22.81l-.43,0a.8.8,0,0,0-.17-.37.56.56,0,0,0-.44-.19.61.61,0,0,0-.37.12,1,1,0,0,0-.32.44,2.43,2.43,0,0,0-.13.83,1,1,0,0,1,.39-.36,1,1,0,0,1,.48-.12,1,1,0,0,1,.75.32,1.16,1.16,0,0,1,.31.84,1.39,1.39,0,0,1-.15.63,1,1,0,0,1-.4.44,1.1,1.1,0,0,1-.57.15,1.12,1.12,0,0,1-.9-.4,2,2,0,0,1-.35-1.33,2.34,2.34,0,0,1,.39-1.51,1.08,1.08,0,0,1,.9-.41,1,1,0,0,1,.69.23A1,1,0,0,1,16.71,22.81Zm-1.79,1.54a1,1,0,0,0,.1.44.68.68,0,0,0,.27.31.66.66,0,0,0,.36.11.61.61,0,0,0,.48-.22.91.91,0,0,0,.2-.61.84.84,0,0,0-.2-.59.66.66,0,0,0-.5-.21.67.67,0,0,0-.5.21A.76.76,0,0,0,14.92,24.35Z" transform="translate(0.01 -21.92)"/><path class="cls-5" d="M17.24,141.38a3.52,3.52,0,0,1,.13-1,1.28,1.28,0,0,1,.39-.59,1.14,1.14,0,0,1,1.15-.1.9.9,0,0,1,.36.34,1.73,1.73,0,0,1,.23.53,3.72,3.72,0,0,1,.08.84,3.52,3.52,0,0,1-.13,1,1.31,1.31,0,0,1-.39.6,1,1,0,0,1-.65.21,1,1,0,0,1-.81-.37A2.33,2.33,0,0,1,17.24,141.38Zm.45,0a2.25,2.25,0,0,0,.21,1.18.59.59,0,0,0,1,0,2.27,2.27,0,0,0,.2-1.18,2.2,2.2,0,0,0-.2-1.17.63.63,0,0,0-.52-.29.54.54,0,0,0-.48.26A2.24,2.24,0,0,0,17.69,141.38Z" transform="translate(0.01 -21.92)"/><path class="cls-5" d="M108.19,140.45l-.44,0a.9.9,0,0,0-.17-.38.59.59,0,0,0-.44-.18.67.67,0,0,0-.37.11,1.11,1.11,0,0,0-.32.45,2.41,2.41,0,0,0-.13.82,1.11,1.11,0,0,1,.39-.36,1.13,1.13,0,0,1,.48-.11,1,1,0,0,1,.75.32,1.16,1.16,0,0,1,.31.84,1.32,1.32,0,0,1-.15.62,1,1,0,0,1-.4.45,1.08,1.08,0,0,1-.57.15,1.12,1.12,0,0,1-.9-.4,2.07,2.07,0,0,1-.34-1.34,2.33,2.33,0,0,1,.38-1.5,1.08,1.08,0,0,1,.9-.41,1,1,0,0,1,.69.23A1,1,0,0,1,108.19,140.45Zm-1.8,1.54a.91.91,0,0,0,.1.43.7.7,0,0,0,.63.43.62.62,0,0,0,.48-.23.9.9,0,0,0,.2-.61.83.83,0,0,0-.2-.58.66.66,0,0,0-.5-.21.69.69,0,0,0-.5.21A.76.76,0,0,0,106.39,142Z" transform="translate(0.01 -21.92)"/><path class="cls-5" d="M108.72,140v-.42H111V140a4.77,4.77,0,0,0-.68,1,5.79,5.79,0,0,0-.51,1.24,4.08,4.08,0,0,0-.17,1h-.45a4.4,4.4,0,0,1,.16-1,5.42,5.42,0,0,1,.46-1.15,4.79,4.79,0,0,1,.63-.94Z" transform="translate(0.01 -21.92)"/><path class="cls-5" d="M111.47,141.38a3.2,3.2,0,0,1,.13-1,1.14,1.14,0,0,1,.39-.59,1,1,0,0,1,.64-.21,1,1,0,0,1,.51.11,1.06,1.06,0,0,1,.36.34,1.73,1.73,0,0,1,.22.53,3.72,3.72,0,0,1,.08.84,3.2,3.2,0,0,1-.13,1,1.23,1.23,0,0,1-.39.6,1.09,1.09,0,0,1-1.46-.16A2.34,2.34,0,0,1,111.47,141.38Zm.45,0a2.38,2.38,0,0,0,.2,1.18.62.62,0,0,0,.51.29.6.6,0,0,0,.51-.29,2.25,2.25,0,0,0,.21-1.18,2.18,2.18,0,0,0-.21-1.17.61.61,0,0,0-.51-.29.54.54,0,0,0-.48.26A2.15,2.15,0,0,0,111.92,141.38Z" transform="translate(0.01 -21.92)"/><path class="cls-5" d="M114.25,141.38a3.2,3.2,0,0,1,.13-1,1.2,1.2,0,0,1,.39-.59,1,1,0,0,1,.64-.21,1,1,0,0,1,.51.11,1.06,1.06,0,0,1,.36.34,1.73,1.73,0,0,1,.22.53,3.72,3.72,0,0,1,.08.84,3.2,3.2,0,0,1-.13,1,1.22,1.22,0,0,1-.38.6,1,1,0,0,1-.66.21,1,1,0,0,1-.81-.37A2.41,2.41,0,0,1,114.25,141.38Zm.45,0a2.25,2.25,0,0,0,.21,1.18.58.58,0,0,0,1,0,2.25,2.25,0,0,0,.21-1.18,2.18,2.18,0,0,0-.21-1.17.61.61,0,0,0-.51-.29.54.54,0,0,0-.48.26A2.15,2.15,0,0,0,114.7,141.38Z" transform="translate(0.01 -21.92)"/><polyline class="cls-4" points="18.46 36.63 80.72 36.63 109.15 55.33"/><path class="cls-5" d="M42.3,142.73v.42H39.93a.81.81,0,0,1,.06-.31,1.4,1.4,0,0,1,.29-.47,3.81,3.81,0,0,1,.57-.54,5.35,5.35,0,0,0,.79-.76.88.88,0,0,0,.2-.53.6.6,0,0,0-.18-.44.77.77,0,0,0-1,0,.74.74,0,0,0-.19.53l-.45,0a1.12,1.12,0,0,1,.35-.77,1.37,1.37,0,0,1,1.63,0,.94.94,0,0,1,.3.71,1.06,1.06,0,0,1-.09.42,1.75,1.75,0,0,1-.29.44c-.14.15-.37.36-.68.63l-.51.45a1.25,1.25,0,0,0-.18.24Z" transform="translate(0.01 -21.92)"/><path class="cls-5" d="M42.8,141.38a3.52,3.52,0,0,1,.13-1,1.28,1.28,0,0,1,.39-.59,1.14,1.14,0,0,1,1.15-.1.9.9,0,0,1,.36.34,1.73,1.73,0,0,1,.23.53,3.72,3.72,0,0,1,.08.84,3.52,3.52,0,0,1-.13,1,1.31,1.31,0,0,1-.39.6,1,1,0,0,1-.65.21,1,1,0,0,1-.81-.37A2.33,2.33,0,0,1,42.8,141.38Zm.45,0a2.25,2.25,0,0,0,.21,1.18.59.59,0,0,0,1,0,2.27,2.27,0,0,0,.2-1.18,2.23,2.23,0,0,0-.2-1.17.63.63,0,0,0-.52-.29.56.56,0,0,0-.48.26A2.24,2.24,0,0,0,43.25,141.38Z" transform="translate(0.01 -21.92)"/><path class="cls-5" d="M45.55,141.38a3.52,3.52,0,0,1,.13-1,1.28,1.28,0,0,1,.39-.59,1,1,0,0,1,.65-.21,1.06,1.06,0,0,1,.51.11,1,1,0,0,1,.35.34,1.73,1.73,0,0,1,.23.53,3.72,3.72,0,0,1,.08.84,3.52,3.52,0,0,1-.13,1,1.31,1.31,0,0,1-.39.6,1,1,0,0,1-.65.21,1,1,0,0,1-.81-.37A2.33,2.33,0,0,1,45.55,141.38Zm.45,0a2.25,2.25,0,0,0,.21,1.18.59.59,0,0,0,1,0,2.27,2.27,0,0,0,.2-1.18,2.23,2.23,0,0,0-.2-1.17.63.63,0,0,0-.52-.29.56.56,0,0,0-.48.26A2.24,2.24,0,0,0,46,141.38Z" transform="translate(0.01 -21.92)"/><path class="cls-5" d="M48.36,141.38a3.52,3.52,0,0,1,.13-1,1.28,1.28,0,0,1,.39-.59,1,1,0,0,1,.65-.21,1.06,1.06,0,0,1,.51.11,1,1,0,0,1,.35.34,1.73,1.73,0,0,1,.23.53,3.72,3.72,0,0,1,.08.84,3.52,3.52,0,0,1-.13,1,1.31,1.31,0,0,1-.39.6,1,1,0,0,1-.65.21,1,1,0,0,1-.81-.37A2.33,2.33,0,0,1,48.36,141.38Zm.45,0a2.25,2.25,0,0,0,.21,1.18.59.59,0,0,0,1,0,2.25,2.25,0,0,0,.21-1.18,2.2,2.2,0,0,0-.21-1.17.62.62,0,0,0-.51-.29.57.57,0,0,0-.49.26A2.24,2.24,0,0,0,48.81,141.38Z" transform="translate(0.01 -21.92)"/><path class="cls-5" d="M68.34,143.15v-.86H66.79v-.4l1.63-2.32h.36v2.32h.49v.4h-.49v.86Zm0-1.26v-1.61l-1.12,1.61Z" transform="translate(0.01 -21.92)"/><path class="cls-5" d="M69.75,141.38a3.2,3.2,0,0,1,.13-1,1.14,1.14,0,0,1,.39-.59,1,1,0,0,1,.64-.21.95.95,0,0,1,.87.45,1.73,1.73,0,0,1,.22.53,3.72,3.72,0,0,1,.08.84,3.2,3.2,0,0,1-.13,1,1.23,1.23,0,0,1-.39.6,1.09,1.09,0,0,1-1.46-.16A2.34,2.34,0,0,1,69.75,141.38Zm.45,0a2.38,2.38,0,0,0,.2,1.18.59.59,0,0,0,1,0,2.25,2.25,0,0,0,.21-1.18,2.2,2.2,0,0,0-.21-1.17.62.62,0,0,0-.51-.29.59.59,0,0,0-.49.26A2.26,2.26,0,0,0,70.2,141.38Z" transform="translate(0.01 -21.92)"/><path class="cls-5" d="M72.5,141.38a3.2,3.2,0,0,1,.13-1,1.14,1.14,0,0,1,.39-.59,1,1,0,0,1,.64-.21,1,1,0,0,1,.51.11,1.06,1.06,0,0,1,.36.34,1.73,1.73,0,0,1,.22.53,3.72,3.72,0,0,1,.08.84,3.2,3.2,0,0,1-.13,1,1.17,1.17,0,0,1-.39.6,1.09,1.09,0,0,1-1.46-.16A2.41,2.41,0,0,1,72.5,141.38Zm.45,0a2.38,2.38,0,0,0,.2,1.18.62.62,0,0,0,.51.29.6.6,0,0,0,.51-.29,2.25,2.25,0,0,0,.21-1.18,2.2,2.2,0,0,0-.21-1.17.61.61,0,0,0-.51-.29.56.56,0,0,0-.48.26A2.15,2.15,0,0,0,73,141.38Z" transform="translate(0.01 -21.92)"/><path class="cls-5" d="M75.31,141.38a3.2,3.2,0,0,1,.13-1,1.2,1.2,0,0,1,.39-.59,1,1,0,0,1,.64-.21,1,1,0,0,1,.51.11,1.06,1.06,0,0,1,.36.34,1.73,1.73,0,0,1,.22.53,3.72,3.72,0,0,1,.08.84,3.2,3.2,0,0,1-.13,1,1.22,1.22,0,0,1-.38.6,1,1,0,0,1-.66.21,1,1,0,0,1-.81-.37A2.41,2.41,0,0,1,75.31,141.38Zm.45,0a2.25,2.25,0,0,0,.21,1.18.58.58,0,0,0,1,0,2.25,2.25,0,0,0,.21-1.18,2.2,2.2,0,0,0-.21-1.17.61.61,0,0,0-.51-.29.56.56,0,0,0-.48.26A2.15,2.15,0,0,0,75.76,141.38Z" transform="translate(0.01 -21.92)"/><path class="cls-5" d="M96.12,140.45l-.43,0a.9.9,0,0,0-.17-.38.59.59,0,0,0-.44-.18.67.67,0,0,0-.37.11,1,1,0,0,0-.32.45,2.19,2.19,0,0,0-.13.82,1.11,1.11,0,0,1,.39-.36,1.13,1.13,0,0,1,.48-.11,1,1,0,0,1,.75.32,1.21,1.21,0,0,1,.31.84,1.32,1.32,0,0,1-.15.62,1,1,0,0,1-.4.45,1.1,1.1,0,0,1-.57.15,1.12,1.12,0,0,1-.9-.4,2.07,2.07,0,0,1-.35-1.34,2.32,2.32,0,0,1,.39-1.5,1.08,1.08,0,0,1,.9-.41.94.94,0,0,1,1,.89ZM94.33,142a.91.91,0,0,0,.1.43.7.7,0,0,0,.63.43.63.63,0,0,0,.48-.23.9.9,0,0,0,.2-.61.83.83,0,0,0-.2-.58.66.66,0,0,0-.5-.21.67.67,0,0,0-.5.21A.76.76,0,0,0,94.33,142Z" transform="translate(0.01 -21.92)"/><path class="cls-5" d="M96.65,141.38a3.52,3.52,0,0,1,.13-1,1.28,1.28,0,0,1,.39-.59,1,1,0,0,1,.65-.21.95.95,0,0,1,.87.45,2,2,0,0,1,.22.53,3.72,3.72,0,0,1,.08.84,3.2,3.2,0,0,1-.13,1,1.31,1.31,0,0,1-.39.6,1,1,0,0,1-.65.21,1,1,0,0,1-.81-.37A2.33,2.33,0,0,1,96.65,141.38Zm.46,0a2.27,2.27,0,0,0,.2,1.18.59.59,0,0,0,1,0,2.25,2.25,0,0,0,.21-1.18,2.18,2.18,0,0,0-.21-1.17.62.62,0,0,0-.51-.29.55.55,0,0,0-.49.26A2.26,2.26,0,0,0,97.11,141.38Z" transform="translate(0.01 -21.92)"/><path class="cls-5" d="M99.41,141.38a3.2,3.2,0,0,1,.13-1,1.19,1.19,0,0,1,.38-.59,1,1,0,0,1,.65-.21.95.95,0,0,1,.87.45,2,2,0,0,1,.22.53,3.72,3.72,0,0,1,.08.84,3.2,3.2,0,0,1-.13,1,1.31,1.31,0,0,1-.39.6,1,1,0,0,1-.65.21,1,1,0,0,1-.81-.37A2.34,2.34,0,0,1,99.41,141.38Zm.45,0a2.38,2.38,0,0,0,.2,1.18.59.59,0,0,0,1,0,2.25,2.25,0,0,0,.21-1.18,2.18,2.18,0,0,0-.21-1.17.62.62,0,0,0-.51-.29.56.56,0,0,0-.49.26A2.26,2.26,0,0,0,99.86,141.38Z" transform="translate(0.01 -21.92)"/><path class="cls-5" d="M102.22,141.38a3.2,3.2,0,0,1,.13-1,1.19,1.19,0,0,1,.38-.59,1,1,0,0,1,.65-.21.95.95,0,0,1,.87.45,1.73,1.73,0,0,1,.22.53,3.72,3.72,0,0,1,.08.84,3.2,3.2,0,0,1-.13,1,1.23,1.23,0,0,1-.39.6,1,1,0,0,1-.65.21,1,1,0,0,1-.81-.37A2.34,2.34,0,0,1,102.22,141.38Zm.45,0a2.38,2.38,0,0,0,.2,1.18.59.59,0,0,0,1,0,2.25,2.25,0,0,0,.21-1.18,2.18,2.18,0,0,0-.21-1.17.62.62,0,0,0-.51-.29.57.57,0,0,0-.49.26A2.26,2.26,0,0,0,102.67,141.38Z" transform="translate(0.01 -21.92)"/><rect class="邱喟0.5pt-4" x="18.44" y="2.18" width="90.71" height="113.39"/></g><g id="English"><rect class="繝後Μ_逋ｽ" x="19.43" y="41.86" width="47.91" height="16.58"/><path class="cls-5" d="M21.92,68.65l.58-.05a1.32,1.32,0,0,0,.19.57,1,1,0,0,0,.47.36,1.8,1.8,0,0,0,.71.14,1.73,1.73,0,0,0,.63-.11.87.87,0,0,0,.4-.28.66.66,0,0,0,.13-.4.57.57,0,0,0-.13-.38.93.93,0,0,0-.42-.28,7.58,7.58,0,0,0-.82-.22,4,4,0,0,1-.9-.3,1.26,1.26,0,0,1-.5-.43,1,1,0,0,1-.16-.58,1.16,1.16,0,0,1,.2-.66,1.22,1.22,0,0,1,.58-.46,2.16,2.16,0,0,1,.86-.16,2.38,2.38,0,0,1,.91.17,1.27,1.27,0,0,1,.6.49,1.32,1.32,0,0,1,.23.73l-.59,0a1,1,0,0,0-.32-.66,1.24,1.24,0,0,0-.81-.23,1.27,1.27,0,0,0-.81.21.61.61,0,0,0-.26.49.51.51,0,0,0,.18.41,2.39,2.39,0,0,0,.93.33,7.58,7.58,0,0,1,1,.3,1.48,1.48,0,0,1,.6.48,1.14,1.14,0,0,1,.19.66,1.27,1.27,0,0,1-.21.7,1.34,1.34,0,0,1-.61.51,2.16,2.16,0,0,1-.9.18,2.67,2.67,0,0,1-1-.18,1.55,1.55,0,0,1-.93-1.39Z" transform="translate(0.01 -21.92)"/><path class="cls-5" d="M26.39,70.14V65.49H27v1.67a1.28,1.28,0,0,1,1-.46,1.33,1.33,0,0,1,.65.14.88.88,0,0,1,.4.41,1.88,1.88,0,0,1,.12.76v2.13h-.57V68a.91.91,0,0,0-.19-.63.69.69,0,0,0-.53-.19.88.88,0,0,0-.47.13.74.74,0,0,0-.32.36,1.48,1.48,0,0,0-.1.62v1.84Z" transform="translate(0.01 -21.92)"/><path class="cls-5" d="M29.79,68.46a1.76,1.76,0,0,1,.52-1.39,1.58,1.58,0,0,1,1.06-.37,1.51,1.51,0,0,1,1.14.45A1.74,1.74,0,0,1,33,68.41a2.24,2.24,0,0,1-.19,1,1.39,1.39,0,0,1-.57.58,1.64,1.64,0,0,1-.82.21,1.48,1.48,0,0,1-1.14-.46A1.79,1.79,0,0,1,29.79,68.46Zm.59,0a1.5,1.5,0,0,0,.28,1,.93.93,0,0,0,.71.32.89.89,0,0,0,.71-.33,1.43,1.43,0,0,0,.28-1,1.4,1.4,0,0,0-.28-1,.91.91,0,0,0-.71-.32.9.9,0,0,0-.71.32A1.48,1.48,0,0,0,30.38,68.46Z" transform="translate(0.01 -21.92)"/><path class="cls-5" d="M33.61,70.14V66.77h.52v.51a1.41,1.41,0,0,1,.36-.47.62.62,0,0,1,.37-.11,1.15,1.15,0,0,1,.59.18l-.2.53a.84.84,0,0,0-.42-.12.53.53,0,0,0-.34.11.58.58,0,0,0-.21.31,2.36,2.36,0,0,0-.09.67v1.76Z" transform="translate(0.01 -21.92)"/><path class="cls-5" d="M37,69.63l.09.51a2.58,2.58,0,0,1-.44,0,1.07,1.07,0,0,1-.48-.1.6.6,0,0,1-.24-.26,1.94,1.94,0,0,1-.07-.67V67.22h-.42v-.45h.42v-.83l.57-.35v1.18H37v.45h-.57v2a1,1,0,0,0,0,.31.21.21,0,0,0,.1.11.34.34,0,0,0,.19,0A1.19,1.19,0,0,0,37,69.63Z" transform="translate(0.01 -21.92)"/><path class="cls-5" d="M37.37,68.75v-.58h1.75v.58Z" transform="translate(0.01 -21.92)"/><path class="cls-5" d="M41.94,70.14v-.42a1.05,1.05,0,0,1-.94.5,1.37,1.37,0,0,1-.74-.22,1.44,1.44,0,0,1-.52-.62,2.1,2.1,0,0,1-.19-.92,2.47,2.47,0,0,1,.17-.92,1.37,1.37,0,0,1,.5-.63A1.43,1.43,0,0,1,41,66.7a1.19,1.19,0,0,1,.54.12,1,1,0,0,1,.38.34V65.49h.57v4.65Zm-1.8-1.68a1.5,1.5,0,0,0,.27,1,.83.83,0,0,0,.64.32.79.79,0,0,0,.64-.31,1.36,1.36,0,0,0,.26-.93,1.66,1.66,0,0,0-.26-1,.84.84,0,0,0-.66-.32.78.78,0,0,0-.64.31A1.54,1.54,0,0,0,40.14,68.46Z" transform="translate(0.01 -21.92)"/><path class="cls-5" d="M45.58,70.14v-.49a1.23,1.23,0,0,1-1.07.57A1.34,1.34,0,0,1,44,70.1a.88.88,0,0,1-.38-.28,1.3,1.3,0,0,1-.18-.43,3.33,3.33,0,0,1,0-.53V66.77h.57v1.87a2.63,2.63,0,0,0,0,.6.61.61,0,0,0,.22.36.76.76,0,0,0,.44.13.92.92,0,0,0,.48-.14.73.73,0,0,0,.32-.35,1.94,1.94,0,0,0,.09-.66V66.77h.57v3.37Z" transform="translate(0.01 -21.92)"/><path class="cls-5" d="M47,70.14V66.77h.51v.51a1.55,1.55,0,0,1,.37-.47.59.59,0,0,1,.36-.11,1.12,1.12,0,0,1,.59.18l-.2.53a.83.83,0,0,0-.41-.12.51.51,0,0,0-.34.11.58.58,0,0,0-.21.31,2,2,0,0,0-.1.67v1.76Z" transform="translate(0.01 -21.92)"/><path class="cls-5" d="M51.35,69.73a2.32,2.32,0,0,1-.61.38,1.9,1.9,0,0,1-.63.11,1.2,1.2,0,0,1-.85-.27.91.91,0,0,1-.3-.7,1,1,0,0,1,.11-.45.92.92,0,0,1,.29-.33,1.44,1.44,0,0,1,.42-.18,4.31,4.31,0,0,1,.5-.09,5.17,5.17,0,0,0,1-.2c0-.08,0-.13,0-.15a.63.63,0,0,0-.17-.49.94.94,0,0,0-.65-.19,1,1,0,0,0-.59.14.89.89,0,0,0-.29.5l-.55-.08a1.34,1.34,0,0,1,.25-.58,1.11,1.11,0,0,1,.5-.34,2.27,2.27,0,0,1,.77-.11,2,2,0,0,1,.7.1.82.82,0,0,1,.39.25.79.79,0,0,1,.18.39,3.08,3.08,0,0,1,0,.53v.76a6.89,6.89,0,0,0,0,1,1.19,1.19,0,0,0,.14.4h-.6A1.53,1.53,0,0,1,51.35,69.73Zm-.05-1.28a4.56,4.56,0,0,1-.93.22,2.25,2.25,0,0,0-.5.11.41.41,0,0,0-.22.19.43.43,0,0,0-.08.27.47.47,0,0,0,.17.38.74.74,0,0,0,.51.15,1.21,1.21,0,0,0,.58-.14.92.92,0,0,0,.38-.4,1.41,1.41,0,0,0,.09-.57Z" transform="translate(0.01 -21.92)"/><path class="cls-5" d="M54,69.63l.09.51a2.58,2.58,0,0,1-.44,0,1.07,1.07,0,0,1-.48-.1.6.6,0,0,1-.24-.26,1.94,1.94,0,0,1-.07-.67V67.22h-.42v-.45h.42v-.83l.57-.35v1.18H54v.45h-.57v2a1,1,0,0,0,0,.31.21.21,0,0,0,.1.11.34.34,0,0,0,.19,0A1.19,1.19,0,0,0,54,69.63Z" transform="translate(0.01 -21.92)"/><path class="cls-5" d="M54.57,66.15v-.66h.58v.66Zm0,4V66.77h.58v3.37Z" transform="translate(0.01 -21.92)"/><path class="cls-5" d="M55.8,68.46a1.76,1.76,0,0,1,.52-1.39,1.58,1.58,0,0,1,1.06-.37,1.51,1.51,0,0,1,1.14.45A1.74,1.74,0,0,1,59,68.41a2.24,2.24,0,0,1-.19,1,1.39,1.39,0,0,1-.57.58,1.64,1.64,0,0,1-.82.21,1.48,1.48,0,0,1-1.14-.46A1.79,1.79,0,0,1,55.8,68.46Zm.59,0a1.44,1.44,0,0,0,.28,1,.93.93,0,0,0,.71.32.89.89,0,0,0,.71-.33,1.43,1.43,0,0,0,.28-1,1.4,1.4,0,0,0-.28-1,.93.93,0,0,0-.71-.32.9.9,0,0,0-.71.32A1.42,1.42,0,0,0,56.39,68.46Z" transform="translate(0.01 -21.92)"/><path class="cls-5" d="M59.63,70.14V66.77h.52v.48a1.19,1.19,0,0,1,1.07-.55,1.47,1.47,0,0,1,.56.1.89.89,0,0,1,.38.29,1.14,1.14,0,0,1,.18.42,3.51,3.51,0,0,1,0,.56v2.07H61.8v-2a1.38,1.38,0,0,0-.07-.52.5.5,0,0,0-.24-.28.71.71,0,0,0-.39-.1.92.92,0,0,0-.63.23,1.14,1.14,0,0,0-.27.88v1.84Z" transform="translate(0.01 -21.92)"/><path class="cls-5" d="M22.05,77.94V74.57h.51v.51a1.55,1.55,0,0,1,.37-.47.59.59,0,0,1,.36-.11,1.12,1.12,0,0,1,.59.18l-.2.53a.81.81,0,0,0-.41-.12.51.51,0,0,0-.34.11.58.58,0,0,0-.21.31,2,2,0,0,0-.1.67v1.76Z" transform="translate(0.01 -21.92)"/><path class="cls-5" d="M26.43,77.94v-.49a1.23,1.23,0,0,1-1.07.57,1.34,1.34,0,0,1-.56-.12.88.88,0,0,1-.38-.28,1.3,1.3,0,0,1-.18-.43,3.33,3.33,0,0,1,0-.53V74.57h.57v1.87a3.77,3.77,0,0,0,0,.6.68.68,0,0,0,.23.36.75.75,0,0,0,.43.13.93.93,0,0,0,.49-.14.73.73,0,0,0,.32-.35,1.94,1.94,0,0,0,.09-.66V74.57h.57v3.37Z" transform="translate(0.01 -21.92)"/><path class="cls-5" d="M27.84,77.94V74.57h.51v.48a1.2,1.2,0,0,1,1.07-.55,1.43,1.43,0,0,1,.56.1.89.89,0,0,1,.38.29,1,1,0,0,1,.18.42,3.51,3.51,0,0,1,0,.56v2.07H30v-2a1.67,1.67,0,0,0-.06-.52.6.6,0,0,0-.24-.28.74.74,0,0,0-.4-.1,1,1,0,0,0-.63.23,1.14,1.14,0,0,0-.26.88v1.84Z" transform="translate(0.01 -21.92)"/><path class="cls-5" d="M31.45,77.94V74.57H32v.48A1.22,1.22,0,0,1,33,74.5a1.47,1.47,0,0,1,.56.1.89.89,0,0,1,.38.29,1.33,1.33,0,0,1,.18.42,3.51,3.51,0,0,1,0,.56v2.07h-.57v-2a1.38,1.38,0,0,0-.07-.52.53.53,0,0,0-.23-.28.77.77,0,0,0-.4-.1.92.92,0,0,0-.63.23,1.14,1.14,0,0,0-.27.88v1.84Z" transform="translate(0.01 -21.92)"/><path class="cls-5" d="M35.07,74v-.66h.57V74Zm0,4V74.57h.57v3.37Z" transform="translate(0.01 -21.92)"/><path class="cls-5" d="M36.51,77.94V74.57H37v.48a1.22,1.22,0,0,1,1.08-.55,1.47,1.47,0,0,1,.56.1,1,1,0,0,1,.38.29,1.33,1.33,0,0,1,.18.42,3.51,3.51,0,0,1,0,.56v2.07h-.57v-2a1.62,1.62,0,0,0-.07-.52.5.5,0,0,0-.24-.28A.71.71,0,0,0,38,75a.92.92,0,0,0-.63.23,1.14,1.14,0,0,0-.27.88v1.84Z" transform="translate(0.01 -21.92)"/><path class="cls-5" d="M40,78.22l.56.08a.5.5,0,0,0,.19.38,1,1,0,0,0,.58.16,1.05,1.05,0,0,0,.61-.16.77.77,0,0,0,.29-.45,3.49,3.49,0,0,0,0-.73,1.2,1.2,0,0,1-.94.44,1.24,1.24,0,0,1-1.07-.5,1.87,1.87,0,0,1-.38-1.2,2.17,2.17,0,0,1,.17-.89,1.39,1.39,0,0,1,.51-.63,1.35,1.35,0,0,1,.78-.22,1.22,1.22,0,0,1,1,.48v-.41h.53v2.92a2.88,2.88,0,0,1-.16,1.11,1.22,1.22,0,0,1-.51.52,1.74,1.74,0,0,1-.86.19,1.61,1.61,0,0,1-1-.27A.91.91,0,0,1,40,78.22Zm.47-2a1.41,1.41,0,0,0,.27,1,.81.81,0,0,0,.66.31.85.85,0,0,0,.66-.3,1.48,1.48,0,0,0,.26-1,1.41,1.41,0,0,0-.27-.94.85.85,0,0,0-.66-.31.81.81,0,0,0-.65.31A1.35,1.35,0,0,0,40.49,76.2Z" transform="translate(0.01 -21.92)"/><path class="cls-5" d="M45.54,77.94V74.57h.51v.51a1.41,1.41,0,0,1,.37-.47.59.59,0,0,1,.36-.11,1.12,1.12,0,0,1,.59.18l-.2.53a.84.84,0,0,0-.42-.12.51.51,0,0,0-.33.11.58.58,0,0,0-.21.31,2,2,0,0,0-.1.67v1.76Z" transform="translate(0.01 -21.92)"/><path class="cls-5" d="M49.91,77.53a2.32,2.32,0,0,1-.61.38,1.9,1.9,0,0,1-.63.11,1.25,1.25,0,0,1-.86-.27.93.93,0,0,1-.29-.7.88.88,0,0,1,.11-.45.92.92,0,0,1,.29-.33,1.5,1.5,0,0,1,.41-.18l.51-.09a5.33,5.33,0,0,0,1-.2v-.15a.63.63,0,0,0-.16-.49.94.94,0,0,0-.65-.19,1,1,0,0,0-.59.14.83.83,0,0,0-.29.5l-.55-.08a1.34,1.34,0,0,1,.25-.58,1.11,1.11,0,0,1,.5-.34,2.25,2.25,0,0,1,.76-.11,2,2,0,0,1,.71.1.82.82,0,0,1,.39.25.79.79,0,0,1,.18.39,3.08,3.08,0,0,1,0,.53v.76a6.89,6.89,0,0,0,0,1,1.19,1.19,0,0,0,.14.4H50A1.53,1.53,0,0,1,49.91,77.53Zm0-1.28a4.56,4.56,0,0,1-.93.22,2.12,2.12,0,0,0-.5.11.41.41,0,0,0-.22.19.43.43,0,0,0-.08.27.47.47,0,0,0,.17.38.73.73,0,0,0,.5.15,1.22,1.22,0,0,0,.59-.14.92.92,0,0,0,.38-.4,1.41,1.41,0,0,0,.09-.57Z" transform="translate(0.01 -21.92)"/><path class="cls-5" d="M51.32,77.94V74.57h.52v.48a1.2,1.2,0,0,1,1.07-.55,1.47,1.47,0,0,1,.56.1.89.89,0,0,1,.38.29,1,1,0,0,1,.18.42,3.51,3.51,0,0,1,0,.56v2.07h-.57v-2a1.67,1.67,0,0,0-.06-.52.6.6,0,0,0-.24-.28.74.74,0,0,0-.4-.1,1,1,0,0,0-.63.23,1.14,1.14,0,0,0-.26.88v1.84Z" transform="translate(0.01 -21.92)"/><path class="cls-5" d="M54.83,78.22l.56.08a.53.53,0,0,0,.19.38,1,1,0,0,0,.59.16,1.08,1.08,0,0,0,.61-.16.82.82,0,0,0,.29-.45,3.76,3.76,0,0,0,0-.73,1.18,1.18,0,0,1-.93.44,1.26,1.26,0,0,1-1.08-.5,1.93,1.93,0,0,1-.38-1.2,2.18,2.18,0,0,1,.18-.89,1.37,1.37,0,0,1,.5-.63,1.35,1.35,0,0,1,.78-.22,1.19,1.19,0,0,1,1,.48v-.41h.53v2.92a2.7,2.7,0,0,1-.16,1.11,1.22,1.22,0,0,1-.51.52,1.7,1.7,0,0,1-.85.19,1.65,1.65,0,0,1-1-.27A1,1,0,0,1,54.83,78.22Zm.48-2a1.47,1.47,0,0,0,.26,1,.83.83,0,0,0,.66.31.85.85,0,0,0,.66-.3,1.42,1.42,0,0,0,.27-1,1.35,1.35,0,0,0-.28-.94.83.83,0,0,0-.66-.31.79.79,0,0,0-.64.31A1.35,1.35,0,0,0,55.31,76.2Z" transform="translate(0.01 -21.92)"/><path class="cls-5" d="M60.86,76.86l.59.07a1.43,1.43,0,0,1-.51.8A1.6,1.6,0,0,1,60,78a1.52,1.52,0,0,1-1.17-.46,1.77,1.77,0,0,1-.44-1.27A1.86,1.86,0,0,1,58.8,75a1.46,1.46,0,0,1,1.14-.47A1.41,1.41,0,0,1,61,75a1.78,1.78,0,0,1,.43,1.29v.15H59a1.32,1.32,0,0,0,.32.85.92.92,0,0,0,.7.3.89.89,0,0,0,.54-.17A1,1,0,0,0,60.86,76.86ZM59,75.93h1.88a1.14,1.14,0,0,0-.22-.63.84.84,0,0,0-.71-.33.89.89,0,0,0-.66.26A1,1,0,0,0,59,75.93Z" transform="translate(0.01 -21.92)"/><path class="cls-5" d="M4.64,98.27H.54V99.8H0V96.11H.54v1.54h4.1Z" transform="translate(0.01 -21.92)"/><path class="cls-5" d="M3,95.77a1.75,1.75,0,0,1-1.38-.52,1.58,1.58,0,0,1-.38-1.06,1.5,1.5,0,0,1,.46-1.14,1.74,1.74,0,0,1,1.26-.44,2.1,2.1,0,0,1,1,.2,1.36,1.36,0,0,1,.58.56,1.64,1.64,0,0,1,.21.82,1.52,1.52,0,0,1-.46,1.14A1.82,1.82,0,0,1,3,95.77Zm0-.59a1.41,1.41,0,0,0,1-.28.91.91,0,0,0,.33-.71.89.89,0,0,0-.33-.71,1.43,1.43,0,0,0-1-.28,1.38,1.38,0,0,0-.95.28A.95.95,0,0,0,2,94.9,1.39,1.39,0,0,0,3,95.18Z" transform="translate(0.01 -21.92)"/><path class="cls-5" d="M4.64,92H1.27v-.52h.51a1.31,1.31,0,0,1-.47-.36.61.61,0,0,1-.12-.37,1,1,0,0,1,.19-.58l.53.19a.76.76,0,0,0-.13.42.52.52,0,0,0,.12.34.58.58,0,0,0,.31.21,2.3,2.3,0,0,0,.67.1H4.64Z" transform="translate(0.01 -21.92)"/><path class="cls-5" d="M5.93,87.63H4.28a1,1,0,0,1,.31.37,1.14,1.14,0,0,1,.13.51,1.34,1.34,0,0,1-.48,1A1.9,1.9,0,0,1,2.92,90,2.21,2.21,0,0,1,2,89.8a1.33,1.33,0,0,1-.82-1.25,1.14,1.14,0,0,1,.53-1H1.27v-.51H5.93ZM3,89.39a1.5,1.5,0,0,0,1-.27.81.81,0,0,0,0-1.29A1.46,1.46,0,0,0,3,87.57a1.57,1.57,0,0,0-1,.28.83.83,0,0,0-.34.65.79.79,0,0,0,.32.63A1.56,1.56,0,0,0,3,89.39Z" transform="translate(0.01 -21.92)"/><path class="cls-5" d="M4.64,84h-.5A1.22,1.22,0,0,1,4.72,85a1.31,1.31,0,0,1-.12.56.82.82,0,0,1-.29.38.9.9,0,0,1-.42.18,3.33,3.33,0,0,1-.53,0H1.27V85.6H3.14a3.77,3.77,0,0,0,.6,0,.63.63,0,0,0,.36-.23.75.75,0,0,0,.12-.43,1,1,0,0,0-.13-.49.68.68,0,0,0-.36-.31,1.61,1.61,0,0,0-.65-.1H1.27v-.57H4.64Z" transform="translate(0.01 -21.92)"/><path class="cls-5" d="M3.55,80.24l.08-.59a1.39,1.39,0,0,1,.8.52,1.72,1.72,0,0,1-.17,2.13A1.77,1.77,0,0,1,3,82.74a1.9,1.9,0,0,1-1.32-.44,1.49,1.49,0,0,1-.47-1.14,1.45,1.45,0,0,1,.46-1.1A1.82,1.82,0,0,1,3,79.63H3.1v2.52A1.29,1.29,0,0,0,4,81.83a.92.92,0,0,0,.3-.7.89.89,0,0,0-.17-.54A1.07,1.07,0,0,0,3.55,80.24Zm-.92,1.87V80.23a1.18,1.18,0,0,0-.64.22.88.88,0,0,0-.33.71.9.9,0,0,0,.27.66A1,1,0,0,0,2.63,82.11Z" transform="translate(0.01 -21.92)"/><path class="cls-5" d="M5.93,77.11H0V75.85H.46v.69h5v-.69h.47Z" transform="translate(0.01 -21.92)"/><path class="cls-5" d="M4.64,75.25H0v-.63l3.65-2.44H0v-.59H4.64v.63L1,74.66H4.64Z" transform="translate(0.01 -21.92)"/><path class="cls-5" d="M2.36,70.71a.78.78,0,0,1-.57-.24.81.81,0,0,1,1.14-1.14.81.81,0,0,1-.57,1.38Z" transform="translate(0.01 -21.92)"/><path class="cls-5" d="M4.64,68.35H1.27v-.51h.47a1.34,1.34,0,0,1-.4-.42,1.21,1.21,0,0,1-.15-.6,1.16,1.16,0,0,1,.16-.62.86.86,0,0,1,.43-.34,1.2,1.2,0,0,1-.59-1,1.05,1.05,0,0,1,.28-.77,1.2,1.2,0,0,1,.86-.27H4.64v.57H2.52a1.49,1.49,0,0,0-.5.06.42.42,0,0,0-.24.2.62.62,0,0,0-.09.34.82.82,0,0,0,.23.59,1,1,0,0,0,.76.24h2v.57H2.45a.92.92,0,0,0-.57.14.51.51,0,0,0-.19.45.81.81,0,0,0,.13.45.7.7,0,0,0,.37.3,2.08,2.08,0,0,0,.7.09H4.64Z" transform="translate(0.01 -21.92)"/><path class="cls-5" d="M5.93,62v1.26H5.46v-.69h-5v.69H0V62Z" transform="translate(0.01 -21.92)"/><rect class="繝後Μ_逋ｽ" x="20.17" y="96.64" width="41.46" height="16.58"/><path class="cls-5" d="M25.55,123.29l.61.16a2,2,0,0,1-.69,1.15,1.91,1.91,0,0,1-1.23.4,2.14,2.14,0,0,1-1.22-.31,1.86,1.86,0,0,1-.72-.88,3.1,3.1,0,0,1-.25-1.25,2.7,2.7,0,0,1,.28-1.27,1.9,1.9,0,0,1,.79-.82,2.28,2.28,0,0,1,1.13-.28,1.89,1.89,0,0,1,1.17.36,1.79,1.79,0,0,1,.66,1l-.6.15A1.46,1.46,0,0,0,25,121a1.21,1.21,0,0,0-.77-.23,1.52,1.52,0,0,0-.9.25,1.37,1.37,0,0,0-.51.69,3.09,3.09,0,0,0,0,1.93,1.19,1.19,0,0,0,.54.66,1.45,1.45,0,0,0,.79.22,1.36,1.36,0,0,0,.87-.29A1.58,1.58,0,0,0,25.55,123.29Z" transform="translate(0.01 -21.92)"/><path class="cls-5" d="M26.64,123.24a1.73,1.73,0,0,1,.52-1.39,1.57,1.57,0,0,1,1.06-.38,1.51,1.51,0,0,1,1.13.46,1.7,1.7,0,0,1,.45,1.26,2.22,2.22,0,0,1-.2,1,1.39,1.39,0,0,1-.57.58,1.63,1.63,0,0,1-.81.21,1.51,1.51,0,0,1-1.15-.46A1.79,1.79,0,0,1,26.64,123.24Zm.58,0a1.44,1.44,0,0,0,.29,1,.94.94,0,0,0,1.42,0,1.49,1.49,0,0,0,.28-1,1.38,1.38,0,0,0-.29-1,.94.94,0,0,0-1.41,0A1.41,1.41,0,0,0,27.22,123.24Z" transform="translate(0.01 -21.92)"/><path class="cls-5" d="M30.46,124.92v-3.37H31V122a1.21,1.21,0,0,1,1.07-.56,1.47,1.47,0,0,1,.56.11.89.89,0,0,1,.38.29,1,1,0,0,1,.18.42,3.51,3.51,0,0,1,0,.56v2.07h-.57v-2a1.67,1.67,0,0,0-.06-.52.6.6,0,0,0-.24-.28.74.74,0,0,0-.4-.1,1,1,0,0,0-.63.23,1.14,1.14,0,0,0-.26.88v1.84Z" transform="translate(0.01 -21.92)"/><path class="cls-5" d="M35.33,124.41l.08.5A1.84,1.84,0,0,1,35,125a1,1,0,0,1-.48-.1.57.57,0,0,1-.25-.26,2.27,2.27,0,0,1-.07-.68V122h-.41v-.44h.41v-.83l.57-.35v1.18h.58V122h-.58v2a1,1,0,0,0,0,.31.27.27,0,0,0,.1.11.37.37,0,0,0,.2,0Z" transform="translate(0.01 -21.92)"/><path class="cls-5" d="M35.89,120.93v-.66h.57v.66Zm0,4v-3.37h.57v3.37Z" transform="translate(0.01 -21.92)"/><path class="cls-5" d="M37.33,124.92v-3.37h.51V122a1.23,1.23,0,0,1,1.08-.56,1.47,1.47,0,0,1,.56.11.89.89,0,0,1,.38.29,1.33,1.33,0,0,1,.18.42,3.51,3.51,0,0,1,0,.56v2.07H39.5v-2a1.38,1.38,0,0,0-.07-.52.5.5,0,0,0-.24-.28.71.71,0,0,0-.39-.1.92.92,0,0,0-.63.23,1.14,1.14,0,0,0-.27.88v1.84Z" transform="translate(0.01 -21.92)"/><path class="cls-5" d="M43.15,124.92v-.49a1.22,1.22,0,0,1-1.07.57,1.3,1.3,0,0,1-.55-.12.91.91,0,0,1-.39-.28,1.11,1.11,0,0,1-.17-.43,2.3,2.3,0,0,1,0-.53v-2.09h.57v1.87a2.63,2.63,0,0,0,0,.6.58.58,0,0,0,.23.36.73.73,0,0,0,.43.13.92.92,0,0,0,.48-.14A.66.66,0,0,0,43,124a1.84,1.84,0,0,0,.09-.65v-1.81h.58v3.37Z" transform="translate(0.01 -21.92)"/><path class="cls-5" d="M44.35,123.24a1.73,1.73,0,0,1,.52-1.39,1.57,1.57,0,0,1,1.06-.38,1.51,1.51,0,0,1,1.13.46,1.7,1.7,0,0,1,.45,1.26,2.22,2.22,0,0,1-.2,1,1.39,1.39,0,0,1-.57.58,1.63,1.63,0,0,1-.81.21,1.51,1.51,0,0,1-1.15-.46A1.79,1.79,0,0,1,44.35,123.24Zm.58,0a1.44,1.44,0,0,0,.29,1,.94.94,0,0,0,1.42,0,1.49,1.49,0,0,0,.28-1,1.38,1.38,0,0,0-.29-1,.94.94,0,0,0-1.41,0A1.41,1.41,0,0,0,44.93,123.24Z" transform="translate(0.01 -21.92)"/><path class="cls-5" d="M50.38,124.92v-.49a1.22,1.22,0,0,1-1.07.57,1.3,1.3,0,0,1-.55-.12.91.91,0,0,1-.39-.28,1.11,1.11,0,0,1-.17-.43,2.3,2.3,0,0,1,0-.53v-2.09h.57v1.87a2.63,2.63,0,0,0,0,.6.58.58,0,0,0,.23.36.73.73,0,0,0,.43.13.92.92,0,0,0,.48-.14.66.66,0,0,0,.32-.36,1.84,1.84,0,0,0,.09-.65v-1.81h.58v3.37Z" transform="translate(0.01 -21.92)"/><path class="cls-5" d="M51.56,123.92l.57-.09a.81.81,0,0,0,.26.52.94.94,0,0,0,.61.18.91.91,0,0,0,.58-.16.47.47,0,0,0,.19-.38.33.33,0,0,0-.16-.3,2.64,2.64,0,0,0-.59-.2,4.57,4.57,0,0,1-.87-.27,1,1,0,0,1-.37-.32.89.89,0,0,1-.12-.45.89.89,0,0,1,.38-.74,1.21,1.21,0,0,1,.36-.17,2,2,0,0,1,.5-.07,1.85,1.85,0,0,1,.69.12,1,1,0,0,1,.45.31,1.18,1.18,0,0,1,.19.52l-.55.08a.61.61,0,0,0-.23-.41.78.78,0,0,0-.51-.15,1,1,0,0,0-.56.13.4.4,0,0,0-.17.31.31.31,0,0,0,.07.2.47.47,0,0,0,.22.15l.5.15a7.22,7.22,0,0,1,.85.26.85.85,0,0,1,.37.3.79.79,0,0,1,.14.49.91.91,0,0,1-.17.54,1,1,0,0,1-.48.39A1.76,1.76,0,0,1,53,125a1.53,1.53,0,0,1-1-.28A1.29,1.29,0,0,1,51.56,123.92Z" transform="translate(0.01 -21.92)"/><path class="cls-5" d="M22.15,132.72v-3.37h.51v.51a1.43,1.43,0,0,1,.37-.47.6.6,0,0,1,.36-.12,1.14,1.14,0,0,1,.59.19l-.2.53a.82.82,0,0,0-.41-.13A.52.52,0,0,0,23,130a.58.58,0,0,0-.21.31,2,2,0,0,0-.1.67v1.76Z" transform="translate(0.01 -21.92)"/><path class="cls-5" d="M26.53,132.72v-.49a1.23,1.23,0,0,1-1.07.57,1.34,1.34,0,0,1-.56-.12.88.88,0,0,1-.38-.28,1.3,1.3,0,0,1-.18-.43,3.33,3.33,0,0,1,0-.53v-2.09h.57v1.87a3.77,3.77,0,0,0,0,.6.68.68,0,0,0,.23.36.75.75,0,0,0,.43.13.93.93,0,0,0,.49-.14.71.71,0,0,0,.32-.36,1.84,1.84,0,0,0,.09-.65v-1.81H27v3.37Z" transform="translate(0.01 -21.92)"/><path class="cls-5" d="M27.94,132.72v-3.37h.51v.48a1.21,1.21,0,0,1,1.07-.56,1.43,1.43,0,0,1,.56.11.89.89,0,0,1,.38.29,1,1,0,0,1,.18.42,3.51,3.51,0,0,1,0,.56v2.07H30.1v-2.05a1.67,1.67,0,0,0-.06-.52.6.6,0,0,0-.24-.28.74.74,0,0,0-.4-.1,1,1,0,0,0-.63.23,1.14,1.14,0,0,0-.26.88v1.84Z" transform="translate(0.01 -21.92)"/><path class="cls-5" d="M31.55,132.72v-3.37h.51v.48a1.23,1.23,0,0,1,1.08-.56,1.47,1.47,0,0,1,.56.11.89.89,0,0,1,.38.29,1.33,1.33,0,0,1,.18.42,3.51,3.51,0,0,1,0,.56v2.07h-.57v-2.05a1.38,1.38,0,0,0-.07-.52.53.53,0,0,0-.23-.28.77.77,0,0,0-.4-.1.92.92,0,0,0-.63.23,1.14,1.14,0,0,0-.27.88v1.84Z" transform="translate(0.01 -21.92)"/><path class="cls-5" d="M35.17,128.73v-.66h.57v.66Zm0,4v-3.37h.57v3.37Z" transform="translate(0.01 -21.92)"/><path class="cls-5" d="M36.61,132.72v-3.37h.51v.48a1.23,1.23,0,0,1,1.08-.56,1.47,1.47,0,0,1,.56.11,1,1,0,0,1,.38.29,1.33,1.33,0,0,1,.18.42,3.51,3.51,0,0,1,0,.56v2.07h-.57v-2.05a1.62,1.62,0,0,0-.07-.52.5.5,0,0,0-.24-.28.71.71,0,0,0-.39-.1.92.92,0,0,0-.63.23,1.14,1.14,0,0,0-.27.88v1.84Z" transform="translate(0.01 -21.92)"/><path class="cls-5" d="M40.12,133l.56.08a.52.52,0,0,0,.19.38,1,1,0,0,0,.58.16,1.05,1.05,0,0,0,.61-.16.77.77,0,0,0,.29-.45,3.49,3.49,0,0,0,0-.73,1.2,1.2,0,0,1-.94.44,1.27,1.27,0,0,1-1.07-.5A1.89,1.89,0,0,1,40,131a2.14,2.14,0,0,1,.17-.89,1.34,1.34,0,0,1,.51-.63,1.35,1.35,0,0,1,.78-.23,1.23,1.23,0,0,1,1,.49v-.41H43v2.91a2.9,2.9,0,0,1-.16,1.12,1.22,1.22,0,0,1-.51.52,1.74,1.74,0,0,1-.86.19,1.61,1.61,0,0,1-1-.27A.92.92,0,0,1,40.12,133Zm.47-2a1.41,1.41,0,0,0,.27,1,.81.81,0,0,0,.66.31.85.85,0,0,0,.66-.3,1.49,1.49,0,0,0,.26-1,1.39,1.39,0,0,0-.27-.93.85.85,0,0,0-.66-.31.81.81,0,0,0-.65.31A1.35,1.35,0,0,0,40.59,131Z" transform="translate(0.01 -21.92)"/><path class="cls-5" d="M45.64,132.72v-3.37h.51v.51a1.21,1.21,0,0,1,.37-.47.6.6,0,0,1,.36-.12,1.14,1.14,0,0,1,.59.19l-.2.53a.86.86,0,0,0-.42-.13.52.52,0,0,0-.33.12.58.58,0,0,0-.21.31,2,2,0,0,0-.1.67v1.76Z" transform="translate(0.01 -21.92)"/><path class="cls-5" d="M50,132.31a2.62,2.62,0,0,1-.61.38,1.9,1.9,0,0,1-.63.11,1.25,1.25,0,0,1-.86-.27.93.93,0,0,1-.29-.7.88.88,0,0,1,.11-.45.85.85,0,0,1,.29-.33,1.5,1.5,0,0,1,.41-.18,3.22,3.22,0,0,1,.51-.09,5.33,5.33,0,0,0,1-.2v-.15a.63.63,0,0,0-.16-.49,1.25,1.25,0,0,0-1.24-.05.83.83,0,0,0-.29.5l-.55-.08a1.34,1.34,0,0,1,.25-.58,1.11,1.11,0,0,1,.5-.34,2.24,2.24,0,0,1,.76-.12,2,2,0,0,1,.71.11.82.82,0,0,1,.39.25.79.79,0,0,1,.18.39,3.08,3.08,0,0,1,0,.53v.76a6.89,6.89,0,0,0,0,1,1.19,1.19,0,0,0,.14.4h-.6A1.3,1.3,0,0,1,50,132.31ZM50,131a4.56,4.56,0,0,1-.93.22,2.12,2.12,0,0,0-.5.11.41.41,0,0,0-.22.19.43.43,0,0,0-.08.27.47.47,0,0,0,.17.38.73.73,0,0,0,.5.15,1.22,1.22,0,0,0,.59-.14.92.92,0,0,0,.38-.4,1.41,1.41,0,0,0,.09-.57Z" transform="translate(0.01 -21.92)"/><path class="cls-5" d="M51.42,132.72v-3.37h.52v.48a1.21,1.21,0,0,1,1.07-.56,1.47,1.47,0,0,1,.56.11.89.89,0,0,1,.38.29,1,1,0,0,1,.18.42,3.51,3.51,0,0,1,0,.56v2.07h-.57v-2.05a1.67,1.67,0,0,0-.06-.52.6.6,0,0,0-.24-.28.74.74,0,0,0-.4-.1,1,1,0,0,0-.63.23,1.14,1.14,0,0,0-.26.88v1.84Z" transform="translate(0.01 -21.92)"/><path class="cls-5" d="M54.93,133l.56.08a.56.56,0,0,0,.19.38,1,1,0,0,0,.59.16,1.08,1.08,0,0,0,.61-.16.82.82,0,0,0,.29-.45,3.76,3.76,0,0,0,0-.73,1.18,1.18,0,0,1-.93.44,1.29,1.29,0,0,1-1.08-.5,2,2,0,0,1-.38-1.2,2.14,2.14,0,0,1,.18-.89,1.32,1.32,0,0,1,.5-.63,1.35,1.35,0,0,1,.78-.23,1.2,1.2,0,0,1,1,.49v-.41h.53v2.91a2.72,2.72,0,0,1-.16,1.12,1.22,1.22,0,0,1-.51.52,1.7,1.7,0,0,1-.85.19,1.65,1.65,0,0,1-1-.27A1,1,0,0,1,54.93,133Zm.48-2a1.47,1.47,0,0,0,.26,1,.83.83,0,0,0,.66.31A.85.85,0,0,0,57,132a1.43,1.43,0,0,0,.27-1,1.34,1.34,0,0,0-.28-.93.83.83,0,0,0-.66-.31.79.79,0,0,0-.64.31A1.35,1.35,0,0,0,55.41,131Z" transform="translate(0.01 -21.92)"/><path class="cls-5" d="M61,131.64l.59.07a1.39,1.39,0,0,1-.52.8,1.54,1.54,0,0,1-1,.29,1.52,1.52,0,0,1-1.17-.46,1.77,1.77,0,0,1-.44-1.28,1.9,1.9,0,0,1,.44-1.32,1.49,1.49,0,0,1,1.14-.47,1.42,1.42,0,0,1,1.1.47,1.78,1.78,0,0,1,.43,1.29v.15H59.05a1.32,1.32,0,0,0,.32.85.92.92,0,0,0,.7.3.89.89,0,0,0,.54-.17A1,1,0,0,0,61,131.64Zm-1.87-.93H61a1.21,1.21,0,0,0-.22-.64.86.86,0,0,0-.71-.33.9.9,0,0,0-.66.27A1,1,0,0,0,59.09,130.71Z" transform="translate(0.01 -21.92)"/><path class="cls-5" d="M44.76,150.56l.58-.06a1.21,1.21,0,0,0,.19.58,1,1,0,0,0,.47.36,1.8,1.8,0,0,0,.71.14,1.67,1.67,0,0,0,.62-.11.82.82,0,0,0,.4-.28.69.69,0,0,0,.14-.4.65.65,0,0,0-.13-.39.92.92,0,0,0-.42-.27c-.12,0-.4-.12-.83-.23a4.51,4.51,0,0,1-.9-.29,1.22,1.22,0,0,1-.49-.43,1.06,1.06,0,0,1-.17-.58,1.19,1.19,0,0,1,.79-1.12,2.11,2.11,0,0,1,.85-.16,2.31,2.31,0,0,1,.91.16,1.33,1.33,0,0,1,.61.5,1.4,1.4,0,0,1,.23.73l-.59,0a1,1,0,0,0-.32-.66,1.26,1.26,0,0,0-.81-.23,1.28,1.28,0,0,0-.82.21.6.6,0,0,0-.25.49.52.52,0,0,0,.18.41,2.39,2.39,0,0,0,.93.33,7.58,7.58,0,0,1,1,.3,1.47,1.47,0,0,1,.6.47,1.19,1.19,0,0,1,.19.67,1.3,1.3,0,0,1-.21.7,1.47,1.47,0,0,1-.61.51,2.19,2.19,0,0,1-.9.18,2.76,2.76,0,0,1-1.06-.18,1.54,1.54,0,0,1-.67-.56A1.48,1.48,0,0,1,44.76,150.56Z" transform="translate(0.01 -21.92)"/><path class="cls-5" d="M49.23,153.34v-4.66h.52v.44a1.37,1.37,0,0,1,.41-.39,1.26,1.26,0,0,1,.57-.13,1.34,1.34,0,0,1,.76.23,1.35,1.35,0,0,1,.5.62,2.52,2.52,0,0,1,0,1.82,1.36,1.36,0,0,1-.54.64,1.45,1.45,0,0,1-.74.22,1.08,1.08,0,0,1-.52-.12,1.25,1.25,0,0,1-.37-.31v1.64Zm.52-3a1.46,1.46,0,0,0,.26,1,.84.84,0,0,0,.64.31.82.82,0,0,0,.65-.33,1.5,1.5,0,0,0,.27-1,1.56,1.56,0,0,0-.26-1,.82.82,0,0,0-.64-.32.8.8,0,0,0-.64.34A1.52,1.52,0,0,0,49.75,150.38Z" transform="translate(0.01 -21.92)"/><path class="cls-5" d="M55.15,151l.59.08a1.39,1.39,0,0,1-.52.8,1.72,1.72,0,0,1-2.13-.17,1.77,1.77,0,0,1-.44-1.28,1.9,1.9,0,0,1,.44-1.32,1.49,1.49,0,0,1,1.14-.47,1.45,1.45,0,0,1,1.1.46,1.82,1.82,0,0,1,.43,1.3v.15H53.24a1.29,1.29,0,0,0,.32.85.92.92,0,0,0,.7.3.89.89,0,0,0,.54-.17A1.07,1.07,0,0,0,55.15,151ZM53.28,150h1.88a1.18,1.18,0,0,0-.22-.64.88.88,0,0,0-.71-.33.9.9,0,0,0-.66.27A1,1,0,0,0,53.28,150Z" transform="translate(0.01 -21.92)"/><path class="cls-5" d="M58.77,151l.59.08a1.5,1.5,0,0,1-.52.8,1.74,1.74,0,0,1-2.14-.17,1.77,1.77,0,0,1-.43-1.28,1.85,1.85,0,0,1,.44-1.32,1.58,1.58,0,0,1,2.24,0,1.87,1.87,0,0,1,.43,1.3s0,.08,0,.15H56.86a1.28,1.28,0,0,0,.31.85.94.94,0,0,0,.71.3.84.84,0,0,0,.53-.17A1.08,1.08,0,0,0,58.77,151ZM56.89,150h1.88a1.1,1.1,0,0,0-.21-.64.93.93,0,0,0-1.37-.06A1,1,0,0,0,56.89,150Z" transform="translate(0.01 -21.92)"/><path class="cls-5" d="M62.26,152.05v-.43a1,1,0,0,1-.94.51,1.3,1.3,0,0,1-.74-.23,1.41,1.41,0,0,1-.53-.62,2.17,2.17,0,0,1-.18-.91,2.29,2.29,0,0,1,.17-.92,1.31,1.31,0,0,1,1.25-.85,1.21,1.21,0,0,1,.55.13,1.24,1.24,0,0,1,.38.34V147.4h.57v4.65Zm-1.81-1.68a1.5,1.5,0,0,0,.28,1,.82.82,0,0,0,.64.32.84.84,0,0,0,.64-.31,1.43,1.43,0,0,0,.26-.93,1.58,1.58,0,0,0-.27-1,.82.82,0,0,0-1.29,0A1.51,1.51,0,0,0,60.45,150.37Z" transform="translate(0.01 -21.92)"/><path class="cls-5" d="M65.51,153.34V147.4h1.26v.47h-.69v5h.69v.47Z" transform="translate(0.01 -21.92)"/><path class="cls-5" d="M67.29,152.05v-3.37h.52v.51a1.31,1.31,0,0,1,.36-.47.61.61,0,0,1,.37-.12,1.17,1.17,0,0,1,.59.19l-.2.53a.86.86,0,0,0-.42-.13.52.52,0,0,0-.34.12.58.58,0,0,0-.21.31,2.31,2.31,0,0,0-.09.67v1.76Z" transform="translate(0.01 -21.92)"/><path class="cls-5" d="M69,152.13l1.35-4.81h.45l-1.34,4.81Z" transform="translate(0.01 -21.92)"/><path class="cls-5" d="M71.27,152.05v-3.37h.51v.47a1.34,1.34,0,0,1,.42-.4,1.21,1.21,0,0,1,.6-.15,1.16,1.16,0,0,1,.62.16.86.86,0,0,1,.34.43,1.2,1.2,0,0,1,1-.59,1.05,1.05,0,0,1,.77.28,1.2,1.2,0,0,1,.27.86v2.31h-.57v-2.12a1.49,1.49,0,0,0-.06-.5.42.42,0,0,0-.2-.24.62.62,0,0,0-.34-.09.79.79,0,0,0-.59.24,1,1,0,0,0-.24.75v2h-.57v-2.19a.92.92,0,0,0-.14-.57.51.51,0,0,0-.45-.19.81.81,0,0,0-.45.13.7.7,0,0,0-.3.37,2.08,2.08,0,0,0-.09.7v1.75Z" transform="translate(0.01 -21.92)"/><path class="cls-5" d="M76.69,148.05v-.65h.57v.65Zm0,4v-3.37h.57v3.37Z" transform="translate(0.01 -21.92)"/><path class="cls-5" d="M78.13,152.05v-3.37h.51v.48a1.23,1.23,0,0,1,1.08-.56,1.47,1.47,0,0,1,.56.11,1,1,0,0,1,.38.29,1.33,1.33,0,0,1,.18.42,3.51,3.51,0,0,1,0,.56v2.07H80.3V150a1.62,1.62,0,0,0-.07-.52.5.5,0,0,0-.24-.28.71.71,0,0,0-.39-.1.92.92,0,0,0-.63.23,1.13,1.13,0,0,0-.27.88v1.84Z" transform="translate(0.01 -21.92)"/><path class="cls-5" d="M82.7,153.34H81.44v-.47h.69v-5h-.69v-.47H82.7Z" transform="translate(0.01 -21.92)"/></g></svg>