<svg xmlns="http://www.w3.org/2000/svg" viewBox="0 0 113.05 131.42"><defs><style>.cls-1,.cls-2,.cls-3,.cls-5,.繝医Ν繧ｯ繧ｰ繝ｩ繝廟繧ｰ繝ｬ繝ｼ邱,.邱喟0\.5pt-3{fill:none;}.cls-1,.cls-2,.繝医Ν繧ｯ繧ｰ繝ｩ繝廟繧ｰ繝ｬ繝ｼ邱{stroke:#9fa0a0;}.cls-1,.cls-2,.cls-3,.邱喟0\.5pt-3{stroke-miterlimit:10;}.cls-2{stroke-dasharray:2.85 1.38;}.cls-3,.cls-5,.邱喟0\.5pt-3{stroke:#231815;}.cls-3{stroke-width:0.14px;}.繝医Ν繧ｯ繧ｰ繝ｩ繝廟繧ｰ繝ｬ繝ｼ邱{stroke-width:3px;}.cls-4{fill:#231815;}.繝後Μ_逋ｽ{fill:#fff;}.邱喟0\.5pt-3{stroke-width:0.5px;}</style></defs><g id="Illust"><line class="cls-1" x1="92.85" y1="102.64" x2="92.85" y2="104.19"/><line class="cls-2" x1="92.85" y1="105.57" x2="92.85" y2="113.32"/><line class="cls-1" x1="92.85" y1="114.01" x2="92.85" y2="115.56"/><line class="cls-3" x1="18.44" y1="16.35" x2="107.73" y2="16.35"/><line class="cls-3" x1="18.44" y1="30.52" x2="107.73" y2="30.52"/><line class="cls-3" x1="18.44" y1="44.7" x2="107.73" y2="44.7"/><line class="cls-3" x1="18.44" y1="58.87" x2="107.73" y2="58.87"/><line class="cls-3" x1="18.44" y1="73.04" x2="107.73" y2="73.04"/><line class="cls-3" x1="18.44" y1="87.22" x2="107.73" y2="87.22"/><line class="cls-3" x1="18.44" y1="101.39" x2="107.73" y2="101.39"/><line class="cls-3" x1="77.97" y1="2.18" x2="77.97" y2="115.56"/><line class="cls-3" x1="48.2" y1="2.18" x2="48.2" y2="115.56"/><polyline class="繝医Ν繧ｯ繧ｰ繝ｩ繝廟繧ｰ繝ｬ繝ｼ邱" points="18.43 14.06 42.25 14.06 54.15 36.61 108.6 88.03"/><path class="cls-4" d="M10.26,137.13a3.17,3.17,0,0,1,.14-1,1.22,1.22,0,0,1,.38-.6,1,1,0,0,1,.65-.21,1.07,1.07,0,0,1,.51.12,1.13,1.13,0,0,1,.36.33,2.25,2.25,0,0,1,.22.54,3.72,3.72,0,0,1,.08.84,3.2,3.2,0,0,1-.13,1,1.31,1.31,0,0,1-.39.6,1,1,0,0,1-.65.21,1,1,0,0,1-.81-.37A2.35,2.35,0,0,1,10.26,137.13Zm.46,0a2.38,2.38,0,0,0,.2,1.18.62.62,0,0,0,.51.29.61.61,0,0,0,.51-.3,3.36,3.36,0,0,0,0-2.34.6.6,0,0,0-.51-.29.57.57,0,0,0-.49.25A2.3,2.3,0,0,0,10.72,137.13Z" transform="translate(0.01 -21.92)"/><path class="cls-4" d="M13.29,138.9v-.5h.5v.5Z" transform="translate(0.01 -21.92)"/><path class="cls-4" d="M14.43,137.13a3.17,3.17,0,0,1,.14-1,1.22,1.22,0,0,1,.38-.6,1,1,0,0,1,.65-.21,1.07,1.07,0,0,1,.51.12,1.13,1.13,0,0,1,.36.33,2.25,2.25,0,0,1,.22.54,3.72,3.72,0,0,1,.08.84,3.2,3.2,0,0,1-.13,1,1.31,1.31,0,0,1-.39.6,1,1,0,0,1-.65.21,1,1,0,0,1-.81-.37A2.35,2.35,0,0,1,14.43,137.13Zm.46,0a2.38,2.38,0,0,0,.2,1.18.62.62,0,0,0,.51.29.61.61,0,0,0,.51-.3,3.36,3.36,0,0,0,0-2.34.6.6,0,0,0-.51-.29.56.56,0,0,0-.49.25A2.3,2.3,0,0,0,14.89,137.13Z" transform="translate(0.01 -21.92)"/><path class="cls-4" d="M12.57,124.3v.42H10.21a.79.79,0,0,1,0-.3,1.76,1.76,0,0,1,.29-.48,5.2,5.2,0,0,1,.57-.54,4.48,4.48,0,0,0,.79-.76.88.88,0,0,0,.21-.53.58.58,0,0,0-.19-.44.67.67,0,0,0-.49-.18.65.65,0,0,0-.5.2.69.69,0,0,0-.2.52l-.45,0a1.1,1.1,0,0,1,.35-.77,1.17,1.17,0,0,1,.81-.27,1.14,1.14,0,0,1,.82.29.92.92,0,0,1,.3.7,1.07,1.07,0,0,1-.09.43,1.48,1.48,0,0,1-.29.43,5.7,5.7,0,0,1-.68.63l-.51.45a1.88,1.88,0,0,0-.18.24Z" transform="translate(0.01 -21.92)"/><path class="cls-4" d="M13.29,124.72v-.5h.5v.5Z" transform="translate(0.01 -21.92)"/><path class="cls-4" d="M14.43,123a3.52,3.52,0,0,1,.13-1,1.31,1.31,0,0,1,.39-.6,1,1,0,0,1,.65-.21,1.07,1.07,0,0,1,.51.12,1,1,0,0,1,.36.33,2.17,2.17,0,0,1,.22.53,3.76,3.76,0,0,1,.08.85,3.2,3.2,0,0,1-.13,1,1.33,1.33,0,0,1-.39.59,1,1,0,0,1-.65.22,1,1,0,0,1-.81-.38A2.3,2.3,0,0,1,14.43,123Zm.46,0a2.31,2.31,0,0,0,.2,1.17.59.59,0,0,0,1,0,3.36,3.36,0,0,0,0-2.34.61.61,0,0,0-.51-.3.57.57,0,0,0-.49.26A2.3,2.3,0,0,0,14.89,123Z" transform="translate(0.01 -21.92)"/><path class="cls-4" d="M11.67,110.55v-.86H10.12v-.4L11.75,107h.36v2.32h.49v.4h-.49v.86Zm0-1.26v-1.61l-1.12,1.61Z" transform="translate(0.01 -21.92)"/><path class="cls-4" d="M13.29,110.55v-.5h.5v.5Z" transform="translate(0.01 -21.92)"/><path class="cls-4" d="M14.43,108.79a3.54,3.54,0,0,1,.13-1,1.33,1.33,0,0,1,.39-.59,1,1,0,0,1,.65-.21,1.19,1.19,0,0,1,.51.11,1.06,1.06,0,0,1,.36.34,2,2,0,0,1,.22.53,3.76,3.76,0,0,1,.08.85,3.14,3.14,0,0,1-.13,1,1.31,1.31,0,0,1-.39.6,1,1,0,0,1-.65.21,1,1,0,0,1-.81-.37A2.32,2.32,0,0,1,14.43,108.79Zm.46,0a2.36,2.36,0,0,0,.2,1.17.59.59,0,0,0,1,0,3.39,3.39,0,0,0,0-2.35.62.62,0,0,0-.51-.29.57.57,0,0,0-.49.26A2.3,2.3,0,0,0,14.89,108.79Z" transform="translate(0.01 -21.92)"/><path class="cls-4" d="M12.54,93.68l-.43,0a.9.9,0,0,0-.17-.38.59.59,0,0,0-.44-.18.6.6,0,0,0-.37.11,1.07,1.07,0,0,0-.32.44,2.48,2.48,0,0,0-.13.83,1.11,1.11,0,0,1,.39-.36,1.13,1.13,0,0,1,.48-.11,1,1,0,0,1,.75.32,1.15,1.15,0,0,1,.31.84,1.32,1.32,0,0,1-.15.62,1,1,0,0,1-.4.45,1.1,1.1,0,0,1-.57.15,1.15,1.15,0,0,1-.9-.4,2.07,2.07,0,0,1-.34-1.34,2.38,2.38,0,0,1,.38-1.51,1.1,1.1,0,0,1,.9-.41,1,1,0,0,1,1,.9Zm-1.79,1.54a.94.94,0,0,0,.1.43.7.7,0,0,0,.63.43.62.62,0,0,0,.48-.23.9.9,0,0,0,.2-.61.83.83,0,0,0-.2-.58.67.67,0,0,0-.5-.22.68.68,0,0,0-.5.22A.76.76,0,0,0,10.75,95.22Z" transform="translate(0.01 -21.92)"/><path class="cls-4" d="M13.29,96.38v-.5h.5v.5Z" transform="translate(0.01 -21.92)"/><path class="cls-4" d="M14.43,94.61a3.52,3.52,0,0,1,.13-1A1.31,1.31,0,0,1,15,93a1,1,0,0,1,.65-.21,1.07,1.07,0,0,1,.51.12,1.13,1.13,0,0,1,.36.33,2.25,2.25,0,0,1,.22.54,3.72,3.72,0,0,1,.08.84,3.2,3.2,0,0,1-.13,1,1.31,1.31,0,0,1-.39.6,1,1,0,0,1-.65.21,1,1,0,0,1-.81-.37A2.33,2.33,0,0,1,14.43,94.61Zm.46,0a2.38,2.38,0,0,0,.2,1.18.62.62,0,0,0,.51.29.61.61,0,0,0,.51-.3,3.36,3.36,0,0,0,0-2.34.6.6,0,0,0-.51-.29.56.56,0,0,0-.49.25A2.33,2.33,0,0,0,14.89,94.61Z" transform="translate(0.01 -21.92)"/><path class="cls-4" d="M10.94,80.42a.78.78,0,0,1-.4-.29.72.72,0,0,1-.14-.44.91.91,0,0,1,.28-.66,1.09,1.09,0,0,1,.75-.26,1.07,1.07,0,0,1,.76.27.87.87,0,0,1,.28.66.69.69,0,0,1-.13.43.82.82,0,0,1-.4.29,1,1,0,0,1,.51.35,1,1,0,0,1,.17.57,1,1,0,0,1-.33.77,1.16,1.16,0,0,1-.85.31,1.2,1.2,0,0,1-.86-.31,1.06,1.06,0,0,1-.32-.78.94.94,0,0,1,.18-.59A.84.84,0,0,1,10.94,80.42Zm-.23.91a.8.8,0,0,0,.09.36.59.59,0,0,0,.27.27.69.69,0,0,0,.37.1.72.72,0,0,0,.52-.2.75.75,0,0,0,0-1,.72.72,0,0,0-.53-.21.69.69,0,0,0-.51.2A.7.7,0,0,0,10.71,81.33Zm.14-1.66a.57.57,0,0,0,.17.42.63.63,0,0,0,.84,0A.53.53,0,0,0,12,79.7a.57.57,0,0,0-.17-.41.56.56,0,0,0-.41-.16.57.57,0,0,0-.42.16A.52.52,0,0,0,10.85,79.67Z" transform="translate(0.01 -21.92)"/><path class="cls-4" d="M13.29,82.36v-.5h.5v.5Z" transform="translate(0.01 -21.92)"/><path class="cls-4" d="M14.43,80.6a3.54,3.54,0,0,1,.13-1A1.33,1.33,0,0,1,15,79a1,1,0,0,1,.65-.21,1.19,1.19,0,0,1,.51.11,1.06,1.06,0,0,1,.36.34,2,2,0,0,1,.22.53,3.76,3.76,0,0,1,.08.85,3.14,3.14,0,0,1-.13,1,1.31,1.31,0,0,1-.39.6,1,1,0,0,1-.65.21,1,1,0,0,1-.81-.37A2.32,2.32,0,0,1,14.43,80.6Zm.46,0a2.36,2.36,0,0,0,.2,1.17.59.59,0,0,0,1,0,3.39,3.39,0,0,0,0-2.35.62.62,0,0,0-.51-.29.57.57,0,0,0-.49.26A2.3,2.3,0,0,0,14.89,80.6Z" transform="translate(0.01 -21.92)"/><path class="cls-4" d="M9.14,68H8.7v-2.8a2.18,2.18,0,0,1-.42.3,2.81,2.81,0,0,1-.46.23v-.42a3,3,0,0,0,.65-.42,2,2,0,0,0,.39-.48h.28Z" transform="translate(0.01 -21.92)"/><path class="cls-4" d="M10.26,66.27a3.54,3.54,0,0,1,.13-1,1.33,1.33,0,0,1,.39-.59,1,1,0,0,1,.65-.21,1.19,1.19,0,0,1,.51.11,1.06,1.06,0,0,1,.36.34,2,2,0,0,1,.22.53,3.76,3.76,0,0,1,.08.85,3.14,3.14,0,0,1-.13,1,1.31,1.31,0,0,1-.39.6,1,1,0,0,1-.65.21,1,1,0,0,1-.81-.37A2.32,2.32,0,0,1,10.26,66.27Zm.46,0a2.36,2.36,0,0,0,.2,1.17.59.59,0,0,0,1,0,3.39,3.39,0,0,0,0-2.35.62.62,0,0,0-.51-.29.58.58,0,0,0-.49.26A2.3,2.3,0,0,0,10.72,66.27Z" transform="translate(0.01 -21.92)"/><path class="cls-4" d="M13.29,68v-.5h.5V68Z" transform="translate(0.01 -21.92)"/><path class="cls-4" d="M14.43,66.27a3.54,3.54,0,0,1,.13-1,1.33,1.33,0,0,1,.39-.59,1,1,0,0,1,.65-.21,1.19,1.19,0,0,1,.51.11,1.06,1.06,0,0,1,.36.34,2,2,0,0,1,.22.53,3.76,3.76,0,0,1,.08.85,3.14,3.14,0,0,1-.13,1,1.31,1.31,0,0,1-.39.6,1,1,0,0,1-.65.21,1,1,0,0,1-.81-.37A2.32,2.32,0,0,1,14.43,66.27Zm.46,0a2.36,2.36,0,0,0,.2,1.17.59.59,0,0,0,1,0,3.39,3.39,0,0,0,0-2.35.62.62,0,0,0-.51-.29.57.57,0,0,0-.49.26A2.3,2.3,0,0,0,14.89,66.27Z" transform="translate(0.01 -21.92)"/><path class="cls-4" d="M9.14,53.86H8.7v-2.8a2.18,2.18,0,0,1-.42.3,2.81,2.81,0,0,1-.46.23v-.43a2.42,2.42,0,0,0,.65-.42,1.65,1.65,0,0,0,.39-.48h.28Z" transform="translate(0.01 -21.92)"/><path class="cls-4" d="M12.57,53.44v.42H10.21a.81.81,0,0,1,0-.31,1.58,1.58,0,0,1,.29-.47,3.81,3.81,0,0,1,.57-.54,4.87,4.87,0,0,0,.79-.76.92.92,0,0,0,.21-.53.56.56,0,0,0-.19-.44.67.67,0,0,0-.49-.18.65.65,0,0,0-.5.19.71.71,0,0,0-.2.53l-.45-.05a1.12,1.12,0,0,1,.35-.77,1.17,1.17,0,0,1,.81-.27,1.14,1.14,0,0,1,.82.29.94.94,0,0,1,.3.71,1.06,1.06,0,0,1-.09.42,1.66,1.66,0,0,1-.29.44,8.11,8.11,0,0,1-.68.63L11,53.2a1.88,1.88,0,0,0-.18.24Z" transform="translate(0.01 -21.92)"/><path class="cls-4" d="M13.29,53.86v-.5h.5v.5Z" transform="translate(0.01 -21.92)"/><path class="cls-4" d="M14.43,52.09a3.52,3.52,0,0,1,.13-1,1.31,1.31,0,0,1,.39-.6,1,1,0,0,1,.65-.21,1.07,1.07,0,0,1,.51.12,1.13,1.13,0,0,1,.36.33,2.25,2.25,0,0,1,.22.54,3.72,3.72,0,0,1,.08.84,3.2,3.2,0,0,1-.13,1,1.31,1.31,0,0,1-.39.6,1,1,0,0,1-.65.21,1,1,0,0,1-.81-.37A2.33,2.33,0,0,1,14.43,52.09Zm.46,0a2.38,2.38,0,0,0,.2,1.18.59.59,0,0,0,1,0,2.25,2.25,0,0,0,.21-1.18,2.18,2.18,0,0,0-.21-1.17.62.62,0,0,0-.51-.29.56.56,0,0,0-.49.25A2.33,2.33,0,0,0,14.89,52.09Z" transform="translate(0.01 -21.92)"/><path class="cls-4" d="M9.14,39.68H8.7v-2.8a1.83,1.83,0,0,1-.42.31,2.69,2.69,0,0,1-.46.22V37a3,3,0,0,0,.65-.42,1.79,1.79,0,0,0,.39-.48h.28Z" transform="translate(0.01 -21.92)"/><path class="cls-4" d="M11.67,39.68v-.85H10.12v-.41l1.63-2.31h.36v2.31h.49v.41h-.49v.85Zm0-1.26V36.81l-1.12,1.61Z" transform="translate(0.01 -21.92)"/><path class="cls-4" d="M13.29,39.68v-.5h.5v.5Z" transform="translate(0.01 -21.92)"/><path class="cls-4" d="M14.43,37.92a3.52,3.52,0,0,1,.13-1,1.31,1.31,0,0,1,.39-.6,1,1,0,0,1,.65-.21,1.07,1.07,0,0,1,.51.12,1,1,0,0,1,.36.33,2.17,2.17,0,0,1,.22.53,3.76,3.76,0,0,1,.08.85,3.2,3.2,0,0,1-.13,1,1.33,1.33,0,0,1-.39.59,1,1,0,0,1-.65.22,1,1,0,0,1-.81-.38A2.3,2.3,0,0,1,14.43,37.92Zm.46,0a2.31,2.31,0,0,0,.2,1.17.59.59,0,0,0,1,0,2.18,2.18,0,0,0,.21-1.17,2.18,2.18,0,0,0-.21-1.17.61.61,0,0,0-.51-.3.57.57,0,0,0-.49.26A2.3,2.3,0,0,0,14.89,37.92Z" transform="translate(0.01 -21.92)"/><path class="cls-4" d="M9.14,25.51H8.7v-2.8a2.18,2.18,0,0,1-.42.3,2.18,2.18,0,0,1-.46.23v-.42a3,3,0,0,0,.65-.42,2,2,0,0,0,.39-.48h.28Z" transform="translate(0.01 -21.92)"/><path class="cls-4" d="M12.54,22.81l-.43,0a.85.85,0,0,0-.17-.37.56.56,0,0,0-.44-.19.61.61,0,0,0-.37.12,1,1,0,0,0-.32.44,2.43,2.43,0,0,0-.13.83,1,1,0,0,1,.39-.36,1,1,0,0,1,.48-.12,1,1,0,0,1,.75.32,1.16,1.16,0,0,1,.31.84,1.39,1.39,0,0,1-.15.63,1,1,0,0,1-.4.44,1.1,1.1,0,0,1-.57.15,1.12,1.12,0,0,1-.9-.4,2,2,0,0,1-.34-1.33,2.36,2.36,0,0,1,.38-1.51,1.08,1.08,0,0,1,.9-.41,1,1,0,0,1,.69.23A1,1,0,0,1,12.54,22.81Zm-1.79,1.54a1,1,0,0,0,.1.44.68.68,0,0,0,.27.31.59.59,0,0,0,.36.11A.61.61,0,0,0,12,25a.91.91,0,0,0,.2-.61.84.84,0,0,0-.2-.59.66.66,0,0,0-.5-.21.67.67,0,0,0-.5.21A.76.76,0,0,0,10.75,24.35Z" transform="translate(0.01 -21.92)"/><path class="cls-4" d="M13.29,25.51V25h.5v.5Z" transform="translate(0.01 -21.92)"/><path class="cls-4" d="M14.43,23.75a3.54,3.54,0,0,1,.13-1,1.33,1.33,0,0,1,.39-.59,1,1,0,0,1,.65-.21,1.19,1.19,0,0,1,.51.11,1.06,1.06,0,0,1,.36.34,2,2,0,0,1,.22.53,3.76,3.76,0,0,1,.08.85,3.09,3.09,0,0,1-.13,1,1.31,1.31,0,0,1-.39.6,1,1,0,0,1-.65.21,1,1,0,0,1-.81-.37A2.32,2.32,0,0,1,14.43,23.75Zm.46,0a2.34,2.34,0,0,0,.2,1.17.59.59,0,0,0,1,0,2.23,2.23,0,0,0,.21-1.17,2.25,2.25,0,0,0-.21-1.18.62.62,0,0,0-.51-.29.57.57,0,0,0-.49.26A2.3,2.3,0,0,0,14.89,23.75Z" transform="translate(0.01 -21.92)"/><path class="cls-4" d="M17.24,141.38a3.52,3.52,0,0,1,.13-1,1.28,1.28,0,0,1,.39-.59,1.14,1.14,0,0,1,1.15-.1.9.9,0,0,1,.36.34,1.73,1.73,0,0,1,.23.53,3.72,3.72,0,0,1,.08.84,3.52,3.52,0,0,1-.13,1,1.31,1.31,0,0,1-.39.6,1,1,0,0,1-.65.21,1,1,0,0,1-.81-.37A2.33,2.33,0,0,1,17.24,141.38Zm.45,0a2.25,2.25,0,0,0,.21,1.18.59.59,0,0,0,1,0,2.27,2.27,0,0,0,.2-1.18,2.2,2.2,0,0,0-.2-1.17.63.63,0,0,0-.52-.29.54.54,0,0,0-.48.26A2.24,2.24,0,0,0,17.69,141.38Z" transform="translate(0.01 -21.92)"/><path class="cls-4" d="M44.49,143.15h-.44v-2.8a2.18,2.18,0,0,1-.42.3,2.81,2.81,0,0,1-.46.23v-.43a2.42,2.42,0,0,0,.65-.42,1.76,1.76,0,0,0,.39-.47h.28Z" transform="translate(0.01 -21.92)"/><path class="cls-4" d="M45.62,141.38a3.2,3.2,0,0,1,.13-1,1.19,1.19,0,0,1,.38-.59,1,1,0,0,1,.65-.21.95.95,0,0,1,.87.45,1.73,1.73,0,0,1,.22.53,3.72,3.72,0,0,1,.08.84,3.2,3.2,0,0,1-.13,1,1.31,1.31,0,0,1-.39.6,1,1,0,0,1-.65.21,1,1,0,0,1-.81-.37A2.34,2.34,0,0,1,45.62,141.38Zm.45,0a2.38,2.38,0,0,0,.2,1.18.59.59,0,0,0,1,0,2.25,2.25,0,0,0,.21-1.18,2.18,2.18,0,0,0-.21-1.17.62.62,0,0,0-.51-.29.56.56,0,0,0-.49.26A2.26,2.26,0,0,0,46.07,141.38Z" transform="translate(0.01 -21.92)"/><path class="cls-4" d="M48.4,141.38a3.2,3.2,0,0,1,.13-1,1.14,1.14,0,0,1,.39-.59,1,1,0,0,1,.64-.21,1,1,0,0,1,.51.11,1.06,1.06,0,0,1,.36.34,1.73,1.73,0,0,1,.22.53,3.72,3.72,0,0,1,.08.84,3.2,3.2,0,0,1-.13,1,1.23,1.23,0,0,1-.39.6,1.09,1.09,0,0,1-1.46-.16A2.34,2.34,0,0,1,48.4,141.38Zm.45,0a2.38,2.38,0,0,0,.2,1.18.62.62,0,0,0,.51.29.61.61,0,0,0,.51-.29,2.25,2.25,0,0,0,.21-1.18,2.18,2.18,0,0,0-.21-1.17.62.62,0,0,0-.51-.29.54.54,0,0,0-.48.26A2.15,2.15,0,0,0,48.85,141.38Z" transform="translate(0.01 -21.92)"/><path class="cls-4" d="M51.18,141.38a3.2,3.2,0,0,1,.13-1,1.14,1.14,0,0,1,.39-.59,1,1,0,0,1,.64-.21,1,1,0,0,1,.51.11,1.06,1.06,0,0,1,.36.34,1.73,1.73,0,0,1,.22.53,3.72,3.72,0,0,1,.08.84,3.2,3.2,0,0,1-.13,1,1.22,1.22,0,0,1-.38.6,1,1,0,0,1-.66.21,1,1,0,0,1-.81-.37A2.41,2.41,0,0,1,51.18,141.38Zm.45,0a2.38,2.38,0,0,0,.2,1.18.62.62,0,0,0,.51.29.6.6,0,0,0,.51-.29,2.25,2.25,0,0,0,.21-1.18,2.18,2.18,0,0,0-.21-1.17.61.61,0,0,0-.51-.29.54.54,0,0,0-.48.26A2.15,2.15,0,0,0,51.63,141.38Z" transform="translate(0.01 -21.92)"/><path class="cls-4" d="M74.91,142.73v.42H72.54a1.06,1.06,0,0,1,0-.31,1.58,1.58,0,0,1,.29-.47,4.54,4.54,0,0,1,.58-.54,5.35,5.35,0,0,0,.79-.76,1,1,0,0,0,.2-.53.6.6,0,0,0-.18-.44.77.77,0,0,0-1,0,.7.7,0,0,0-.19.53l-.45,0a1.11,1.11,0,0,1,.34-.77,1.21,1.21,0,0,1,.82-.26,1.13,1.13,0,0,1,.81.28.94.94,0,0,1,.3.71,1.25,1.25,0,0,1-.08.42,1.57,1.57,0,0,1-.3.44,7.63,7.63,0,0,1-.67.63,5.24,5.24,0,0,0-.51.45,1.33,1.33,0,0,0-.19.24Z" transform="translate(0.01 -21.92)"/><path class="cls-4" d="M75.38,141.38a3.2,3.2,0,0,1,.13-1,1.28,1.28,0,0,1,.39-.59,1.14,1.14,0,0,1,1.15-.1.9.9,0,0,1,.36.34,1.73,1.73,0,0,1,.22.53,4.23,4.23,0,0,1,0,1.86,1.22,1.22,0,0,1-.38.6,1.1,1.1,0,0,1-1.47-.16A2.41,2.41,0,0,1,75.38,141.38Zm.45,0a2.25,2.25,0,0,0,.21,1.18.6.6,0,0,0,.51.29.62.62,0,0,0,.51-.29,2.38,2.38,0,0,0,.2-1.18,2.31,2.31,0,0,0-.2-1.17.63.63,0,0,0-.52-.29.54.54,0,0,0-.48.26A2.24,2.24,0,0,0,75.83,141.38Z" transform="translate(0.01 -21.92)"/><path class="cls-4" d="M78.16,141.38a3.2,3.2,0,0,1,.13-1,1.28,1.28,0,0,1,.39-.59,1.14,1.14,0,0,1,1.15-.1.9.9,0,0,1,.36.34,1.51,1.51,0,0,1,.22.53,4.23,4.23,0,0,1,0,1.86,1.22,1.22,0,0,1-.38.6,1.1,1.1,0,0,1-1.47-.16A2.41,2.41,0,0,1,78.16,141.38Zm.45,0a2.25,2.25,0,0,0,.21,1.18.59.59,0,0,0,1,0,2.38,2.38,0,0,0,.2-1.18,2.31,2.31,0,0,0-.2-1.17.63.63,0,0,0-.52-.29.54.54,0,0,0-.48.26A2.24,2.24,0,0,0,78.61,141.38Z" transform="translate(0.01 -21.92)"/><path class="cls-4" d="M80.94,141.38a3.2,3.2,0,0,1,.13-1,1.28,1.28,0,0,1,.39-.59,1.14,1.14,0,0,1,1.15-.1A.9.9,0,0,1,83,140a1.51,1.51,0,0,1,.22.53,3.22,3.22,0,0,1,.08.84,3.56,3.56,0,0,1-.12,1,1.31,1.31,0,0,1-.39.6,1.1,1.1,0,0,1-1.47-.16A2.41,2.41,0,0,1,80.94,141.38Zm.45,0a2.25,2.25,0,0,0,.21,1.18.59.59,0,0,0,1,0,2.38,2.38,0,0,0,.2-1.18,2.31,2.31,0,0,0-.2-1.17.63.63,0,0,0-.52-.29.54.54,0,0,0-.48.26A2.24,2.24,0,0,0,81.39,141.38Z" transform="translate(0.01 -21.92)"/><path class="cls-4" d="M102.36,142.2l.44,0a.94.94,0,0,0,.26.53.64.64,0,0,0,.44.17.69.69,0,0,0,.53-.22.72.72,0,0,0,.21-.53.65.65,0,0,0-.2-.5.66.66,0,0,0-.5-.19,1,1,0,0,0-.31.05l0-.39h.07a.89.89,0,0,0,.51-.14.5.5,0,0,0,.22-.45.51.51,0,0,0-.16-.4.57.57,0,0,0-.42-.16.57.57,0,0,0-.43.16.77.77,0,0,0-.22.48l-.44-.08a1,1,0,0,1,1.08-.92,1.18,1.18,0,0,1,.53.12,1,1,0,0,1,.38.34.88.88,0,0,1,.13.47.79.79,0,0,1-.12.42.8.8,0,0,1-.37.3.82.82,0,0,1,.49.3.93.93,0,0,1,.18.58,1.1,1.1,0,0,1-.34.8,1.24,1.24,0,0,1-.87.32,1.12,1.12,0,0,1-.78-.28A1.07,1.07,0,0,1,102.36,142.2Z" transform="translate(0.01 -21.92)"/><path class="cls-4" d="M105.14,141.38a3.52,3.52,0,0,1,.13-1,1.28,1.28,0,0,1,.39-.59,1,1,0,0,1,.65-.21,1.06,1.06,0,0,1,.51.11,1,1,0,0,1,.35.34,1.73,1.73,0,0,1,.23.53,3.72,3.72,0,0,1,.08.84,3.52,3.52,0,0,1-.13,1,1.31,1.31,0,0,1-.39.6,1,1,0,0,1-.65.21,1,1,0,0,1-.81-.37A2.33,2.33,0,0,1,105.14,141.38Zm.45,0a2.25,2.25,0,0,0,.21,1.18.59.59,0,0,0,1,0,2.25,2.25,0,0,0,.21-1.18,2.18,2.18,0,0,0-.21-1.17.62.62,0,0,0-.51-.29.55.55,0,0,0-.49.26A2.24,2.24,0,0,0,105.59,141.38Z" transform="translate(0.01 -21.92)"/><path class="cls-4" d="M107.92,141.38a3.52,3.52,0,0,1,.13-1,1.28,1.28,0,0,1,.39-.59,1,1,0,0,1,.65-.21.95.95,0,0,1,.87.45,2,2,0,0,1,.22.53,3.72,3.72,0,0,1,.08.84,3.52,3.52,0,0,1-.13,1,1.31,1.31,0,0,1-.39.6,1,1,0,0,1-.65.21,1,1,0,0,1-.81-.37A2.33,2.33,0,0,1,107.92,141.38Zm.46,0a2.27,2.27,0,0,0,.2,1.18.59.59,0,0,0,1,0,2.25,2.25,0,0,0,.21-1.18,2.18,2.18,0,0,0-.21-1.17.62.62,0,0,0-.51-.29.55.55,0,0,0-.49.26A2.26,2.26,0,0,0,108.38,141.38Z" transform="translate(0.01 -21.92)"/><path class="cls-4" d="M110.7,141.38a3.52,3.52,0,0,1,.13-1,1.28,1.28,0,0,1,.39-.59,1,1,0,0,1,.65-.21.95.95,0,0,1,.87.45,2,2,0,0,1,.22.53,3.72,3.72,0,0,1,.08.84,3.2,3.2,0,0,1-.13,1,1.31,1.31,0,0,1-.39.6,1,1,0,0,1-.65.21,1,1,0,0,1-.81-.37A2.33,2.33,0,0,1,110.7,141.38Zm.46,0a2.38,2.38,0,0,0,.2,1.18.59.59,0,0,0,1,0,2.25,2.25,0,0,0,.21-1.18,2.18,2.18,0,0,0-.21-1.17.62.62,0,0,0-.51-.29.55.55,0,0,0-.49.26A2.26,2.26,0,0,0,111.16,141.38Z" transform="translate(0.01 -21.92)"/><polyline class="繝医Ν繧ｯ繧ｰ繝ｩ繝廟繧ｰ繝ｬ繝ｼ邱" points="18.44 93.01 33.31 93.01 63.09 93.01 77.95 98.64 107.73 104.31"/><polyline class="cls-5" points="18.43 14.06 36.31 14.06 45.23 36.61 108.6 95.13"/><polyline class="cls-5" points="18.44 93.01 33.31 93.01 63.09 93.01 77.95 98.64 107.73 104.31"/><rect class="繝後Μ_逋ｽ" x="107.73" y="2.18" width="2.83" height="113.39"/><rect class="邱喟0.5pt-3" x="18.44" y="2.18" width="89.29" height="113.39"/></g><g id="English"><path class="cls-4" d="M4.64,98.27H.54V99.8H0V96.11H.54v1.54h4.1Z" transform="translate(0.01 -21.92)"/><path class="cls-4" d="M3,95.77a1.75,1.75,0,0,1-1.38-.52,1.58,1.58,0,0,1-.38-1.06,1.5,1.5,0,0,1,.46-1.14,1.74,1.74,0,0,1,1.26-.44,2.22,2.22,0,0,1,1,.2,1.42,1.42,0,0,1,.58.56,1.64,1.64,0,0,1,.21.82,1.52,1.52,0,0,1-.46,1.14A1.82,1.82,0,0,1,3,95.77Zm0-.59a1.41,1.41,0,0,0,1-.28.91.91,0,0,0,.33-.71.89.89,0,0,0-.33-.71,1.43,1.43,0,0,0-1-.28,1.38,1.38,0,0,0-.95.28A.95.95,0,0,0,2,94.9,1.39,1.39,0,0,0,3,95.18Z" transform="translate(0.01 -21.92)"/><path class="cls-4" d="M4.64,92H1.27v-.52h.51a1.31,1.31,0,0,1-.47-.36.61.61,0,0,1-.12-.37,1,1,0,0,1,.19-.58l.53.19a.76.76,0,0,0-.13.42.52.52,0,0,0,.12.34.58.58,0,0,0,.31.21,2.3,2.3,0,0,0,.67.1H4.64Z" transform="translate(0.01 -21.92)"/><path class="cls-4" d="M5.93,87.63H4.28a1,1,0,0,1,.31.37,1.14,1.14,0,0,1,.13.51,1.34,1.34,0,0,1-.48,1A1.9,1.9,0,0,1,2.92,90,2.21,2.21,0,0,1,2,89.8a1.33,1.33,0,0,1-.82-1.25,1.14,1.14,0,0,1,.53-1H1.27v-.51H5.93ZM3,89.39a1.5,1.5,0,0,0,1-.27.81.81,0,0,0,0-1.29A1.46,1.46,0,0,0,3,87.57a1.57,1.57,0,0,0-1,.28.83.83,0,0,0-.34.65.79.79,0,0,0,.32.63A1.56,1.56,0,0,0,3,89.39Z" transform="translate(0.01 -21.92)"/><path class="cls-4" d="M4.64,84h-.5A1.22,1.22,0,0,1,4.72,85a1.31,1.31,0,0,1-.12.56.82.82,0,0,1-.29.38.9.9,0,0,1-.42.18,3.33,3.33,0,0,1-.53,0H1.27V85.6H3.14a3.77,3.77,0,0,0,.6,0,.63.63,0,0,0,.36-.23.75.75,0,0,0,.12-.43,1,1,0,0,0-.13-.49.68.68,0,0,0-.36-.31,1.61,1.61,0,0,0-.65-.1H1.27v-.57H4.64Z" transform="translate(0.01 -21.92)"/><path class="cls-4" d="M3.55,80.24l.08-.59a1.39,1.39,0,0,1,.8.52,1.72,1.72,0,0,1-.17,2.13A1.77,1.77,0,0,1,3,82.74a1.9,1.9,0,0,1-1.32-.44,1.49,1.49,0,0,1-.47-1.14,1.45,1.45,0,0,1,.46-1.1A1.82,1.82,0,0,1,3,79.63H3.1v2.52A1.29,1.29,0,0,0,4,81.83a.92.92,0,0,0,.3-.7.89.89,0,0,0-.17-.54A1.07,1.07,0,0,0,3.55,80.24Zm-.92,1.87V80.23a1.18,1.18,0,0,0-.64.22.88.88,0,0,0-.33.71.9.9,0,0,0,.27.66A1,1,0,0,0,2.63,82.11Z" transform="translate(0.01 -21.92)"/><path class="cls-4" d="M5.93,77.11H0V75.85H.46v.69h5v-.69h.47Z" transform="translate(0.01 -21.92)"/><path class="cls-4" d="M4.64,75.25H0v-.63l3.65-2.44H0v-.59H4.64v.63L1,74.66H4.64Z" transform="translate(0.01 -21.92)"/><path class="cls-4" d="M2.36,70.71a.78.78,0,0,1-.57-.24.81.81,0,0,1-.23-.57.77.77,0,0,1,.23-.56.8.8,0,0,1,1.14,0,.74.74,0,0,1,.24.56.82.82,0,0,1-.81.81Z" transform="translate(0.01 -21.92)"/><path class="cls-4" d="M4.64,68.35H1.27v-.51h.47a1.34,1.34,0,0,1-.4-.42,1.21,1.21,0,0,1-.15-.6,1.16,1.16,0,0,1,.16-.62.86.86,0,0,1,.43-.34,1.2,1.2,0,0,1-.59-1,1.05,1.05,0,0,1,.28-.77,1.2,1.2,0,0,1,.86-.27H4.64v.57H2.52a1.49,1.49,0,0,0-.5.06.42.42,0,0,0-.24.2.62.62,0,0,0-.09.34.82.82,0,0,0,.23.59,1,1,0,0,0,.76.24h2v.57H2.45a.92.92,0,0,0-.57.14.51.51,0,0,0-.19.45.81.81,0,0,0,.13.45.7.7,0,0,0,.37.3,2.08,2.08,0,0,0,.7.09H4.64Z" transform="translate(0.01 -21.92)"/><path class="cls-4" d="M5.93,62v1.26H5.46v-.69h-5v.69H0V62Z" transform="translate(0.01 -21.92)"/><rect class="繝後Μ_逋ｽ" x="19.43" y="61" width="47.91" height="16.58"/><path class="cls-4" d="M21.92,87.78l.58,0a1.32,1.32,0,0,0,.19.57,1.13,1.13,0,0,0,.47.37,1.8,1.8,0,0,0,.71.13,1.74,1.74,0,0,0,.63-.1.89.89,0,0,0,.4-.29A.64.64,0,0,0,25,88a.58.58,0,0,0-.13-.38.85.85,0,0,0-.42-.27,6.84,6.84,0,0,0-.82-.23,4.09,4.09,0,0,1-.9-.29,1.26,1.26,0,0,1-.5-.43,1.08,1.08,0,0,1-.16-.58,1.12,1.12,0,0,1,.2-.66,1.24,1.24,0,0,1,.58-.47,2.34,2.34,0,0,1,.85-.16,2.4,2.4,0,0,1,.92.17,1.34,1.34,0,0,1,.83,1.22l-.59,0a1,1,0,0,0-.32-.67,1.24,1.24,0,0,0-.81-.22,1.34,1.34,0,0,0-.81.2.63.63,0,0,0-.26.5.54.54,0,0,0,.18.41,2.39,2.39,0,0,0,.93.33,5.44,5.44,0,0,1,1,.3,1.39,1.39,0,0,1,.6.47,1.14,1.14,0,0,1,.19.66,1.27,1.27,0,0,1-.21.7,1.34,1.34,0,0,1-.61.51,2.2,2.2,0,0,1-.9.19,2.75,2.75,0,0,1-1.06-.19,1.57,1.57,0,0,1-.67-.55A1.62,1.62,0,0,1,21.92,87.78Z" transform="translate(0.01 -21.92)"/><path class="cls-4" d="M26.39,89.28V84.62H27v1.67a1.28,1.28,0,0,1,1-.46,1.33,1.33,0,0,1,.65.15.86.86,0,0,1,.4.4,1.91,1.91,0,0,1,.12.76v2.14h-.57V87.14a.88.88,0,0,0-.19-.62.69.69,0,0,0-.53-.2,1,1,0,0,0-.47.13.74.74,0,0,0-.32.36,1.51,1.51,0,0,0-.1.62v1.85Z" transform="translate(0.01 -21.92)"/><path class="cls-4" d="M29.79,87.59a1.77,1.77,0,0,1,.52-1.39,1.58,1.58,0,0,1,1.06-.37,1.48,1.48,0,0,1,1.14.46A1.73,1.73,0,0,1,33,87.54a2.25,2.25,0,0,1-.19,1,1.39,1.39,0,0,1-.57.58,1.74,1.74,0,0,1-.82.2,1.51,1.51,0,0,1-1.14-.45A1.82,1.82,0,0,1,29.79,87.59Zm.59,0a1.42,1.42,0,0,0,.28,1,.93.93,0,0,0,.71.32.91.91,0,0,0,.71-.32,1.48,1.48,0,0,0,.28-1,1.4,1.4,0,0,0-.28-.95.91.91,0,0,0-.71-.32.93.93,0,0,0-.71.32A1.44,1.44,0,0,0,30.38,87.59Z" transform="translate(0.01 -21.92)"/><path class="cls-4" d="M33.61,89.28V85.91h.52v.51a1.47,1.47,0,0,1,.36-.48.7.7,0,0,1,.37-.11,1.15,1.15,0,0,1,.59.18l-.2.53a.84.84,0,0,0-.42-.12.56.56,0,0,0-.55.43,2.29,2.29,0,0,0-.09.66v1.77Z" transform="translate(0.01 -21.92)"/><path class="cls-4" d="M37,88.76l.09.51a2.58,2.58,0,0,1-.44,0,1,1,0,0,1-.48-.1A.55.55,0,0,1,36,89a1.9,1.9,0,0,1-.07-.67V86.35h-.42v-.44h.42v-.84l.57-.34v1.18H37v.44h-.57v2a1.08,1.08,0,0,0,0,.32.26.26,0,0,0,.1.11.45.45,0,0,0,.19,0Z" transform="translate(0.01 -21.92)"/><path class="cls-4" d="M37.37,87.88V87.3h1.75v.58Z" transform="translate(0.01 -21.92)"/><path class="cls-4" d="M41.94,89.28v-.43a1.05,1.05,0,0,1-.94.5,1.29,1.29,0,0,1-.74-.22,1.44,1.44,0,0,1-.52-.62,2.07,2.07,0,0,1-.19-.92,2.42,2.42,0,0,1,.17-.91,1.28,1.28,0,0,1,.5-.63,1.34,1.34,0,0,1,.75-.22,1.09,1.09,0,0,1,.55.13.94.94,0,0,1,.38.33V84.62h.57v4.66Zm-1.8-1.69a1.46,1.46,0,0,0,.27,1,.8.8,0,0,0,.64.32.81.81,0,0,0,.64-.3,1.41,1.41,0,0,0,.26-.94,1.61,1.61,0,0,0-.26-1A.82.82,0,0,0,41,86.3a.81.81,0,0,0-.64.31A1.55,1.55,0,0,0,40.14,87.59Z" transform="translate(0.01 -21.92)"/><path class="cls-4" d="M45.58,89.28v-.5a1.23,1.23,0,0,1-1.07.57,1.51,1.51,0,0,1-.56-.11.89.89,0,0,1-.38-.29,1.24,1.24,0,0,1-.18-.42,3.48,3.48,0,0,1,0-.54V85.91h.57v1.86a4,4,0,0,0,0,.61.62.62,0,0,0,.23.35.69.69,0,0,0,.43.13.92.92,0,0,0,.49-.13.79.79,0,0,0,.32-.36,1.86,1.86,0,0,0,.09-.66v-1.8h.57v3.37Z" transform="translate(0.01 -21.92)"/><path class="cls-4" d="M47,89.28V85.91h.51v.51a1.62,1.62,0,0,1,.37-.48.66.66,0,0,1,.36-.11,1.12,1.12,0,0,1,.59.18l-.2.53a.81.81,0,0,0-.41-.12.58.58,0,0,0-.34.11.6.6,0,0,0-.21.32,2,2,0,0,0-.1.66v1.77Z" transform="translate(0.01 -21.92)"/><path class="cls-4" d="M51.35,88.86a2,2,0,0,1-.61.38,1.67,1.67,0,0,1-.63.11,1.2,1.2,0,0,1-.85-.27.89.89,0,0,1-.3-.69.84.84,0,0,1,.11-.45.85.85,0,0,1,.29-.33,1.23,1.23,0,0,1,.42-.19,4.31,4.31,0,0,1,.5-.09,5.33,5.33,0,0,0,1-.19c0-.08,0-.13,0-.15a.62.62,0,0,0-.17-.49.94.94,0,0,0-.65-.2,1,1,0,0,0-.59.14.92.92,0,0,0-.29.5l-.55-.07a1.34,1.34,0,0,1,.25-.58,1,1,0,0,1,.5-.34,2.26,2.26,0,0,1,.77-.12,2,2,0,0,1,.7.1.83.83,0,0,1,.39.26.79.79,0,0,1,.18.38,3.16,3.16,0,0,1,0,.53v.76a6.8,6.8,0,0,0,0,1,1.25,1.25,0,0,0,.14.41h-.6A1.61,1.61,0,0,1,51.35,88.86Zm-.05-1.28a4,4,0,0,1-.93.22,2.12,2.12,0,0,0-.5.11.52.52,0,0,0-.22.19.43.43,0,0,0-.08.27.47.47,0,0,0,.17.38.74.74,0,0,0,.51.15,1.11,1.11,0,0,0,.58-.14.92.92,0,0,0,.38-.4,1.35,1.35,0,0,0,.09-.57Z" transform="translate(0.01 -21.92)"/><path class="cls-4" d="M54,88.76l.09.51a2.58,2.58,0,0,1-.44,0,1,1,0,0,1-.48-.1.55.55,0,0,1-.24-.26,1.9,1.9,0,0,1-.07-.67V86.35h-.42v-.44h.42v-.84l.57-.34v1.18H54v.44h-.57v2a1.08,1.08,0,0,0,0,.32.26.26,0,0,0,.1.11.45.45,0,0,0,.19,0Z" transform="translate(0.01 -21.92)"/><path class="cls-4" d="M54.57,85.28v-.66h.58v.66Zm0,4V85.91h.58v3.37Z" transform="translate(0.01 -21.92)"/><path class="cls-4" d="M55.8,87.59a1.77,1.77,0,0,1,.52-1.39,1.58,1.58,0,0,1,1.06-.37,1.48,1.48,0,0,1,1.14.46A1.73,1.73,0,0,1,59,87.54a2.25,2.25,0,0,1-.19,1,1.39,1.39,0,0,1-.57.58,1.74,1.74,0,0,1-.82.2,1.51,1.51,0,0,1-1.14-.45A1.82,1.82,0,0,1,55.8,87.59Zm.59,0a1.42,1.42,0,0,0,.28,1,.93.93,0,0,0,.71.32.91.91,0,0,0,.71-.32,1.48,1.48,0,0,0,.28-1,1.4,1.4,0,0,0-.28-.95.95.95,0,0,0-1.42,0A1.44,1.44,0,0,0,56.39,87.59Z" transform="translate(0.01 -21.92)"/><path class="cls-4" d="M59.63,89.28V85.91h.51v.47a1.22,1.22,0,0,1,1.08-.55,1.47,1.47,0,0,1,.56.11.82.82,0,0,1,.38.29,1.24,1.24,0,0,1,.18.42,3.37,3.37,0,0,1,0,.55v2.08H61.8v-2a1.44,1.44,0,0,0-.07-.53.52.52,0,0,0-.24-.27.71.71,0,0,0-.39-.11.88.88,0,0,0-.63.24,1.11,1.11,0,0,0-.27.88v1.84Z" transform="translate(0.01 -21.92)"/><path class="cls-4" d="M22.05,97.08V93.71h.51v.51a1.47,1.47,0,0,1,.37-.48.66.66,0,0,1,.36-.11,1.12,1.12,0,0,1,.59.18l-.2.53a.84.84,0,0,0-.42-.12.57.57,0,0,0-.33.11.6.6,0,0,0-.21.32,2,2,0,0,0-.1.66v1.77Z" transform="translate(0.01 -21.92)"/><path class="cls-4" d="M26.43,97.08v-.5a1.23,1.23,0,0,1-1.07.57A1.51,1.51,0,0,1,24.8,97a.89.89,0,0,1-.38-.29,1.24,1.24,0,0,1-.18-.42,3.48,3.48,0,0,1,0-.54V93.71h.57v1.86a4,4,0,0,0,0,.61.62.62,0,0,0,.23.35.69.69,0,0,0,.43.13.92.92,0,0,0,.49-.13.79.79,0,0,0,.32-.36,1.86,1.86,0,0,0,.09-.66v-1.8h.57v3.37Z" transform="translate(0.01 -21.92)"/><path class="cls-4" d="M27.84,97.08V93.71h.51v.47a1.2,1.2,0,0,1,1.07-.55,1.43,1.43,0,0,1,.56.11.82.82,0,0,1,.38.29.94.94,0,0,1,.18.42,3.37,3.37,0,0,1,0,.55v2.08H30V95a1.75,1.75,0,0,0-.06-.53.62.62,0,0,0-.24-.27.75.75,0,0,0-.4-.11.92.92,0,0,0-.63.24,1.11,1.11,0,0,0-.26.88v1.84Z" transform="translate(0.01 -21.92)"/><path class="cls-4" d="M31.45,97.08V93.71H32v.47A1.22,1.22,0,0,1,33,93.63a1.47,1.47,0,0,1,.56.11A.82.82,0,0,1,34,94a1.24,1.24,0,0,1,.18.42,3.37,3.37,0,0,1,0,.55v2.08h-.57V95a1.44,1.44,0,0,0-.07-.53.52.52,0,0,0-.24-.27.71.71,0,0,0-.39-.11.88.88,0,0,0-.63.24,1.11,1.11,0,0,0-.27.88v1.84Z" transform="translate(0.01 -21.92)"/><path class="cls-4" d="M35.07,93.08v-.66h.57v.66Zm0,4V93.71h.57v3.37Z" transform="translate(0.01 -21.92)"/><path class="cls-4" d="M36.51,97.08V93.71H37v.47a1.22,1.22,0,0,1,1.08-.55,1.47,1.47,0,0,1,.56.11A.88.88,0,0,1,39,94a1.24,1.24,0,0,1,.18.42,3.37,3.37,0,0,1,0,.55v2.08h-.57V95a1.69,1.69,0,0,0-.07-.53.52.52,0,0,0-.24-.27.71.71,0,0,0-.39-.11.88.88,0,0,0-.63.24,1.11,1.11,0,0,0-.27.88v1.84Z" transform="translate(0.01 -21.92)"/><path class="cls-4" d="M40,97.36l.56.08a.5.5,0,0,0,.19.37.91.91,0,0,0,.58.16,1,1,0,0,0,.61-.16.72.72,0,0,0,.29-.44,3.61,3.61,0,0,0,0-.74,1.18,1.18,0,0,1-.94.45,1.25,1.25,0,0,1-1.07-.51,1.87,1.87,0,0,1-.38-1.2,2.17,2.17,0,0,1,.17-.89,1.39,1.39,0,0,1,.51-.63,1.35,1.35,0,0,1,.78-.22,1.22,1.22,0,0,1,1,.48v-.4h.53v2.91a2.94,2.94,0,0,1-.16,1.12,1.2,1.2,0,0,1-.51.51,1.74,1.74,0,0,1-.86.19,1.61,1.61,0,0,1-1-.27A.9.9,0,0,1,40,97.36Zm.47-2a1.44,1.44,0,0,0,.27,1,.83.83,0,0,0,.66.3.85.85,0,0,0,.66-.3,1.46,1.46,0,0,0,.26-1,1.39,1.39,0,0,0-.27-.93.86.86,0,0,0-.66-.32.84.84,0,0,0-.65.31A1.37,1.37,0,0,0,40.49,95.33Z" transform="translate(0.01 -21.92)"/><path class="cls-4" d="M45.54,97.08V93.71h.51v.51a1.47,1.47,0,0,1,.37-.48.66.66,0,0,1,.36-.11,1.12,1.12,0,0,1,.59.18l-.2.53a.84.84,0,0,0-.42-.12.57.57,0,0,0-.33.11.6.6,0,0,0-.21.32,2,2,0,0,0-.1.66v1.77Z" transform="translate(0.01 -21.92)"/><path class="cls-4" d="M49.91,96.66a2.08,2.08,0,0,1-.61.38,1.67,1.67,0,0,1-.63.11,1.25,1.25,0,0,1-.86-.27.91.91,0,0,1-.29-.69.84.84,0,0,1,.11-.45.85.85,0,0,1,.29-.33,1.23,1.23,0,0,1,.42-.19,4.31,4.31,0,0,1,.5-.09,5.49,5.49,0,0,0,1-.19v-.15a.61.61,0,0,0-.16-.49.94.94,0,0,0-.65-.2,1,1,0,0,0-.59.14.87.87,0,0,0-.29.5l-.56-.07a1.48,1.48,0,0,1,.26-.58,1,1,0,0,1,.5-.34,2.2,2.2,0,0,1,.76-.12,2,2,0,0,1,.71.1.83.83,0,0,1,.39.26.79.79,0,0,1,.18.38,3.16,3.16,0,0,1,0,.53v.76a6.8,6.8,0,0,0,0,1,1.25,1.25,0,0,0,.14.41H50A1.29,1.29,0,0,1,49.91,96.66Zm0-1.28a4,4,0,0,1-.93.22,2.12,2.12,0,0,0-.5.11.62.62,0,0,0-.23.19.5.5,0,0,0-.07.27.47.47,0,0,0,.17.38.73.73,0,0,0,.5.15,1.12,1.12,0,0,0,.59-.14.92.92,0,0,0,.38-.4,1.35,1.35,0,0,0,.09-.57Z" transform="translate(0.01 -21.92)"/><path class="cls-4" d="M51.32,97.08V93.71h.52v.47a1.2,1.2,0,0,1,1.07-.55,1.47,1.47,0,0,1,.56.11.82.82,0,0,1,.38.29.94.94,0,0,1,.18.42,3.37,3.37,0,0,1,0,.55v2.08h-.57V95a1.75,1.75,0,0,0-.06-.53.62.62,0,0,0-.24-.27.75.75,0,0,0-.4-.11.92.92,0,0,0-.63.24,1.11,1.11,0,0,0-.26.88v1.84Z" transform="translate(0.01 -21.92)"/><path class="cls-4" d="M54.84,97.36l.55.08a.53.53,0,0,0,.19.37,1,1,0,0,0,.58.16,1,1,0,0,0,.62-.16.76.76,0,0,0,.29-.44,3.89,3.89,0,0,0,0-.74,1.16,1.16,0,0,1-.93.45,1.27,1.27,0,0,1-1.08-.51,1.93,1.93,0,0,1-.38-1.2,2.18,2.18,0,0,1,.18-.89,1.37,1.37,0,0,1,.5-.63,1.35,1.35,0,0,1,.78-.22,1.19,1.19,0,0,1,1,.48v-.4h.53v2.91a2.75,2.75,0,0,1-.16,1.12,1.2,1.2,0,0,1-.51.51,1.7,1.7,0,0,1-.85.19,1.65,1.65,0,0,1-1-.27A.92.92,0,0,1,54.84,97.36Zm.47-2a1.5,1.5,0,0,0,.26,1,.88.88,0,0,0,1.32,0,1.4,1.4,0,0,0,.27-1,1.34,1.34,0,0,0-.28-.93.84.84,0,0,0-.66-.32.86.86,0,0,0-.65.31A1.42,1.42,0,0,0,55.31,95.33Z" transform="translate(0.01 -21.92)"/><path class="cls-4" d="M60.86,96l.59.07a1.42,1.42,0,0,1-.51.81,1.59,1.59,0,0,1-1,.28,1.55,1.55,0,0,1-1.17-.45,1.79,1.79,0,0,1-.44-1.28,1.86,1.86,0,0,1,.44-1.32,1.49,1.49,0,0,1,1.14-.47,1.41,1.41,0,0,1,1.1.46,1.81,1.81,0,0,1,.43,1.29v.16H59a1.34,1.34,0,0,0,.32.85,1,1,0,0,0,.7.29.89.89,0,0,0,.54-.16A1.05,1.05,0,0,0,60.86,96ZM59,95.07h1.88a1.15,1.15,0,0,0-.22-.64.88.88,0,0,0-.71-.33.93.93,0,0,0-.66.26A1,1,0,0,0,59,95.07Z" transform="translate(0.01 -21.92)"/><rect class="繝後Μ_逋ｽ" x="20.17" y="96.64" width="41.46" height="16.58"/><path class="cls-4" d="M25.55,123.29l.61.16a2,2,0,0,1-.69,1.15,1.91,1.91,0,0,1-1.23.4,2.14,2.14,0,0,1-1.22-.31,1.81,1.81,0,0,1-.72-.88,3.1,3.1,0,0,1-.25-1.25,2.7,2.7,0,0,1,.28-1.27,1.9,1.9,0,0,1,.79-.82,2.28,2.28,0,0,1,1.13-.28,1.89,1.89,0,0,1,1.17.36,1.79,1.79,0,0,1,.66,1l-.6.15A1.46,1.46,0,0,0,25,121a1.21,1.21,0,0,0-.77-.23,1.52,1.52,0,0,0-.9.25,1.37,1.37,0,0,0-.51.69,3.09,3.09,0,0,0,0,1.93,1.25,1.25,0,0,0,.54.67,1.53,1.53,0,0,0,.79.21,1.36,1.36,0,0,0,.87-.29A1.58,1.58,0,0,0,25.55,123.29Z" transform="translate(0.01 -21.92)"/><path class="cls-4" d="M26.64,123.24a1.73,1.73,0,0,1,.52-1.39,1.57,1.57,0,0,1,1.06-.38,1.51,1.51,0,0,1,1.13.46,1.7,1.7,0,0,1,.45,1.26,2.22,2.22,0,0,1-.2,1,1.39,1.39,0,0,1-.57.58,1.63,1.63,0,0,1-.81.21,1.51,1.51,0,0,1-1.15-.46A1.79,1.79,0,0,1,26.64,123.24Zm.58,0a1.44,1.44,0,0,0,.29,1,.94.94,0,0,0,1.42,0,1.49,1.49,0,0,0,.28-1,1.4,1.4,0,0,0-.29-1,.94.94,0,0,0-1.41,0A1.42,1.42,0,0,0,27.22,123.24Z" transform="translate(0.01 -21.92)"/><path class="cls-4" d="M30.46,124.92v-3.37H31V122a1.21,1.21,0,0,1,1.07-.56,1.47,1.47,0,0,1,.56.11.89.89,0,0,1,.38.29,1,1,0,0,1,.18.42,3.51,3.51,0,0,1,0,.56v2.07h-.57v-2a1.72,1.72,0,0,0-.06-.52.6.6,0,0,0-.24-.28.74.74,0,0,0-.4-.1,1,1,0,0,0-.63.23,1.14,1.14,0,0,0-.26.88v1.84Z" transform="translate(0.01 -21.92)"/><path class="cls-4" d="M35.33,124.41l.08.51a2.47,2.47,0,0,1-.43,0,1,1,0,0,1-.48-.1.57.57,0,0,1-.25-.26,2.24,2.24,0,0,1-.07-.67V122h-.41v-.45h.41v-.83l.57-.35v1.18h.58V122h-.58v2a1,1,0,0,0,0,.31.27.27,0,0,0,.1.11.37.37,0,0,0,.2,0A1.29,1.29,0,0,0,35.33,124.41Z" transform="translate(0.01 -21.92)"/><path class="cls-4" d="M35.89,120.93v-.66h.57v.66Zm0,4v-3.37h.57v3.37Z" transform="translate(0.01 -21.92)"/><path class="cls-4" d="M37.33,124.92v-3.37h.51V122a1.23,1.23,0,0,1,1.08-.56,1.47,1.47,0,0,1,.56.11.89.89,0,0,1,.38.29,1.33,1.33,0,0,1,.18.42,3.51,3.51,0,0,1,0,.56v2.07H39.5v-2a1.41,1.41,0,0,0-.07-.52.5.5,0,0,0-.24-.28.71.71,0,0,0-.39-.1.92.92,0,0,0-.63.23,1.14,1.14,0,0,0-.27.88v1.84Z" transform="translate(0.01 -21.92)"/><path class="cls-4" d="M43.15,124.92v-.49a1.22,1.22,0,0,1-1.07.57,1.3,1.3,0,0,1-.55-.12.91.91,0,0,1-.39-.28,1.11,1.11,0,0,1-.17-.43,2.3,2.3,0,0,1,0-.53v-2.09h.57v1.87a2.63,2.63,0,0,0,0,.6.58.58,0,0,0,.23.36.73.73,0,0,0,.43.13.92.92,0,0,0,.48-.14A.68.68,0,0,0,43,124a1.94,1.94,0,0,0,.09-.66v-1.81h.58v3.37Z" transform="translate(0.01 -21.92)"/><path class="cls-4" d="M44.35,123.24a1.73,1.73,0,0,1,.52-1.39,1.57,1.57,0,0,1,1.06-.38,1.51,1.51,0,0,1,1.13.46,1.7,1.7,0,0,1,.45,1.26,2.22,2.22,0,0,1-.2,1,1.39,1.39,0,0,1-.57.58,1.63,1.63,0,0,1-.81.21,1.51,1.51,0,0,1-1.15-.46A1.79,1.79,0,0,1,44.35,123.24Zm.58,0a1.44,1.44,0,0,0,.29,1,.94.94,0,0,0,1.42,0,1.49,1.49,0,0,0,.28-1,1.4,1.4,0,0,0-.29-1,.94.94,0,0,0-1.41,0A1.42,1.42,0,0,0,44.93,123.24Z" transform="translate(0.01 -21.92)"/><path class="cls-4" d="M50.38,124.92v-.49a1.22,1.22,0,0,1-1.07.57,1.3,1.3,0,0,1-.55-.12.91.91,0,0,1-.39-.28,1.11,1.11,0,0,1-.17-.43,2.3,2.3,0,0,1,0-.53v-2.09h.57v1.87a2.63,2.63,0,0,0,0,.6.58.58,0,0,0,.23.36.73.73,0,0,0,.43.13.92.92,0,0,0,.48-.14.68.68,0,0,0,.32-.35,1.94,1.94,0,0,0,.09-.66v-1.81h.58v3.37Z" transform="translate(0.01 -21.92)"/><path class="cls-4" d="M51.56,123.92l.57-.09a.81.81,0,0,0,.26.52.94.94,0,0,0,.61.18.91.91,0,0,0,.58-.16.47.47,0,0,0,.19-.38.33.33,0,0,0-.16-.3,2.64,2.64,0,0,0-.59-.2,4.57,4.57,0,0,1-.87-.27.81.81,0,0,1-.49-.77.89.89,0,0,1,.38-.74,1.21,1.21,0,0,1,.36-.17,2,2,0,0,1,.5-.07,1.85,1.85,0,0,1,.69.12,1,1,0,0,1,.45.31,1.18,1.18,0,0,1,.19.52l-.55.08a.61.61,0,0,0-.23-.41.78.78,0,0,0-.51-.15.9.9,0,0,0-.56.14.36.36,0,0,0-.17.3.31.31,0,0,0,.07.2.47.47,0,0,0,.22.15l.5.15a7.22,7.22,0,0,1,.85.26.85.85,0,0,1,.37.3.79.79,0,0,1,.14.49.91.91,0,0,1-.17.54,1,1,0,0,1-.48.39A1.76,1.76,0,0,1,53,125a1.53,1.53,0,0,1-1-.28A1.29,1.29,0,0,1,51.56,123.92Z" transform="translate(0.01 -21.92)"/><path class="cls-4" d="M22.15,132.72v-3.37h.51v.51a1.55,1.55,0,0,1,.37-.47.6.6,0,0,1,.36-.12,1.14,1.14,0,0,1,.59.19l-.2.53a.81.81,0,0,0-.41-.12A.51.51,0,0,0,23,130a.58.58,0,0,0-.21.31,2,2,0,0,0-.1.67v1.76Z" transform="translate(0.01 -21.92)"/><path class="cls-4" d="M26.53,132.72v-.49a1.23,1.23,0,0,1-1.07.57,1.34,1.34,0,0,1-.56-.12.88.88,0,0,1-.38-.28,1.3,1.3,0,0,1-.18-.43,3.33,3.33,0,0,1,0-.53v-2.09h.57v1.87a3.77,3.77,0,0,0,0,.6.68.68,0,0,0,.23.36.75.75,0,0,0,.43.13.93.93,0,0,0,.49-.14.73.73,0,0,0,.32-.35,1.94,1.94,0,0,0,.09-.66v-1.81H27v3.37Z" transform="translate(0.01 -21.92)"/><path class="cls-4" d="M27.94,132.72v-3.37h.51v.48a1.21,1.21,0,0,1,1.07-.56,1.43,1.43,0,0,1,.56.11.89.89,0,0,1,.38.29,1,1,0,0,1,.18.42,3.51,3.51,0,0,1,0,.56v2.07H30.1v-2.05a1.72,1.72,0,0,0-.06-.52.6.6,0,0,0-.24-.28.74.74,0,0,0-.4-.1,1,1,0,0,0-.63.23,1.14,1.14,0,0,0-.26.88v1.84Z" transform="translate(0.01 -21.92)"/><path class="cls-4" d="M31.55,132.72v-3.37h.51v.48a1.23,1.23,0,0,1,1.08-.56,1.47,1.47,0,0,1,.56.11.89.89,0,0,1,.38.29,1.33,1.33,0,0,1,.18.42,3.51,3.51,0,0,1,0,.56v2.07h-.57v-2.05a1.41,1.41,0,0,0-.07-.52.53.53,0,0,0-.23-.28.77.77,0,0,0-.4-.1.92.92,0,0,0-.63.23,1.14,1.14,0,0,0-.27.88v1.84Z" transform="translate(0.01 -21.92)"/><path class="cls-4" d="M35.17,128.73v-.66h.57v.66Zm0,4v-3.37h.57v3.37Z" transform="translate(0.01 -21.92)"/><path class="cls-4" d="M36.61,132.72v-3.37h.51v.48a1.23,1.23,0,0,1,1.08-.56,1.47,1.47,0,0,1,.56.11,1,1,0,0,1,.38.29,1.33,1.33,0,0,1,.18.42,3.51,3.51,0,0,1,0,.56v2.07h-.57v-2.05a1.66,1.66,0,0,0-.07-.52.5.5,0,0,0-.24-.28.71.71,0,0,0-.39-.1.92.92,0,0,0-.63.23,1.14,1.14,0,0,0-.27.88v1.84Z" transform="translate(0.01 -21.92)"/><path class="cls-4" d="M40.12,133l.56.08a.52.52,0,0,0,.19.38,1,1,0,0,0,.58.16,1.05,1.05,0,0,0,.61-.16.77.77,0,0,0,.29-.45,3.49,3.49,0,0,0,0-.73,1.2,1.2,0,0,1-.94.44,1.24,1.24,0,0,1-1.07-.5A1.87,1.87,0,0,1,40,131a2.17,2.17,0,0,1,.17-.89,1.39,1.39,0,0,1,.51-.63,1.35,1.35,0,0,1,.78-.23,1.23,1.23,0,0,1,1,.49v-.41H43v2.91a2.9,2.9,0,0,1-.16,1.12,1.22,1.22,0,0,1-.51.52,1.74,1.74,0,0,1-.86.19,1.61,1.61,0,0,1-1-.27A.91.91,0,0,1,40.12,133Zm.47-2a1.41,1.41,0,0,0,.27,1,.81.81,0,0,0,.66.31.85.85,0,0,0,.66-.3,1.48,1.48,0,0,0,.26-.95,1.41,1.41,0,0,0-.27-.94.85.85,0,0,0-.66-.31.81.81,0,0,0-.65.31A1.35,1.35,0,0,0,40.59,131Z" transform="translate(0.01 -21.92)"/><path class="cls-4" d="M45.64,132.72v-3.37h.51v.51a1.29,1.29,0,0,1,.37-.47.6.6,0,0,1,.36-.12,1.14,1.14,0,0,1,.59.19l-.2.53a.84.84,0,0,0-.42-.12.51.51,0,0,0-.33.11.58.58,0,0,0-.21.31,2,2,0,0,0-.1.67v1.76Z" transform="translate(0.01 -21.92)"/><path class="cls-4" d="M50,132.31a2.32,2.32,0,0,1-.61.38,1.9,1.9,0,0,1-.63.11,1.25,1.25,0,0,1-.86-.27.93.93,0,0,1-.29-.7.88.88,0,0,1,.11-.45.85.85,0,0,1,.29-.33,1.5,1.5,0,0,1,.41-.18l.51-.09a5.33,5.33,0,0,0,1-.2v-.15a.63.63,0,0,0-.16-.49.94.94,0,0,0-.65-.19,1,1,0,0,0-.59.14.83.83,0,0,0-.29.5l-.55-.08a1.34,1.34,0,0,1,.25-.58,1.11,1.11,0,0,1,.5-.34,2.24,2.24,0,0,1,.76-.12,2,2,0,0,1,.71.11.82.82,0,0,1,.39.25.79.79,0,0,1,.18.39,3.08,3.08,0,0,1,0,.53v.76a6.89,6.89,0,0,0,0,1,1.19,1.19,0,0,0,.14.4h-.6A1.23,1.23,0,0,1,50,132.31ZM50,131a4.56,4.56,0,0,1-.93.22,2.12,2.12,0,0,0-.5.11.41.41,0,0,0-.22.19.43.43,0,0,0-.08.27.47.47,0,0,0,.17.38.73.73,0,0,0,.5.15,1.22,1.22,0,0,0,.59-.14.92.92,0,0,0,.38-.4,1.41,1.41,0,0,0,.09-.57Z" transform="translate(0.01 -21.92)"/><path class="cls-4" d="M51.42,132.72v-3.37h.52v.48a1.21,1.21,0,0,1,1.07-.56,1.47,1.47,0,0,1,.56.11.89.89,0,0,1,.38.29,1,1,0,0,1,.18.42,3.51,3.51,0,0,1,0,.56v2.07h-.57v-2.05a1.72,1.72,0,0,0-.06-.52.6.6,0,0,0-.24-.28.74.74,0,0,0-.4-.1,1,1,0,0,0-.63.23,1.14,1.14,0,0,0-.26.88v1.84Z" transform="translate(0.01 -21.92)"/><path class="cls-4" d="M54.93,133l.56.08a.56.56,0,0,0,.19.38,1,1,0,0,0,.59.16,1.08,1.08,0,0,0,.61-.16.82.82,0,0,0,.29-.45,3.76,3.76,0,0,0,0-.73,1.18,1.18,0,0,1-.93.44,1.26,1.26,0,0,1-1.08-.5,1.93,1.93,0,0,1-.38-1.2,2.18,2.18,0,0,1,.18-.89,1.37,1.37,0,0,1,.5-.63,1.35,1.35,0,0,1,.78-.23,1.2,1.2,0,0,1,1,.49v-.41h.53v2.91a2.72,2.72,0,0,1-.16,1.12,1.22,1.22,0,0,1-.51.52,1.7,1.7,0,0,1-.85.19,1.65,1.65,0,0,1-1-.27A1,1,0,0,1,54.93,133Zm.48-2a1.47,1.47,0,0,0,.26,1,.83.83,0,0,0,.66.31A.85.85,0,0,0,57,132a1.42,1.42,0,0,0,.27-.95,1.35,1.35,0,0,0-.28-.94.85.85,0,0,0-1.31,0A1.4,1.4,0,0,0,55.41,131Z" transform="translate(0.01 -21.92)"/><path class="cls-4" d="M61,131.64l.59.07a1.39,1.39,0,0,1-.52.8,1.54,1.54,0,0,1-1,.29,1.52,1.52,0,0,1-1.17-.46,1.77,1.77,0,0,1-.44-1.28,1.9,1.9,0,0,1,.44-1.32,1.49,1.49,0,0,1,1.14-.47,1.42,1.42,0,0,1,1.1.47,1.78,1.78,0,0,1,.43,1.29v.15H59.05a1.32,1.32,0,0,0,.32.85.92.92,0,0,0,.7.3.89.89,0,0,0,.54-.17A1.09,1.09,0,0,0,61,131.64Zm-1.87-.93H61a1.21,1.21,0,0,0-.22-.64.93.93,0,0,0-1.37-.06A1,1,0,0,0,59.09,130.71Z" transform="translate(0.01 -21.92)"/><path class="cls-4" d="M44.05,150.56l.58-.06a1.32,1.32,0,0,0,.19.58,1,1,0,0,0,.47.36,1.8,1.8,0,0,0,.71.14,1.73,1.73,0,0,0,.63-.11.87.87,0,0,0,.4-.28.68.68,0,0,0,.13-.4.55.55,0,0,0-.13-.38.86.86,0,0,0-.42-.28c-.12,0-.4-.12-.82-.23a4.09,4.09,0,0,1-.9-.29,1.19,1.19,0,0,1-.5-.43,1.06,1.06,0,0,1-.16-.58,1.16,1.16,0,0,1,.2-.66,1.18,1.18,0,0,1,.58-.46,2.15,2.15,0,0,1,.85-.16,2.22,2.22,0,0,1,.92.17,1.27,1.27,0,0,1,.6.49,1.32,1.32,0,0,1,.23.73l-.59,0a1,1,0,0,0-.32-.66,1.24,1.24,0,0,0-.81-.23,1.27,1.27,0,0,0-.81.21.61.61,0,0,0-.26.49A.52.52,0,0,0,45,149a2.39,2.39,0,0,0,.93.33,7.58,7.58,0,0,1,1,.3,1.47,1.47,0,0,1,.6.47,1.19,1.19,0,0,1,.19.67,1.3,1.3,0,0,1-.21.7,1.34,1.34,0,0,1-.61.51,2.19,2.19,0,0,1-.9.18A2.76,2.76,0,0,1,45,152a1.59,1.59,0,0,1-.67-.56A1.56,1.56,0,0,1,44.05,150.56Z" transform="translate(0.01 -21.92)"/><path class="cls-4" d="M48.52,153.34v-4.66H49v.44a1.29,1.29,0,0,1,.42-.39,1.19,1.19,0,0,1,.56-.13,1.31,1.31,0,0,1,.76.23,1.29,1.29,0,0,1,.5.62,2.35,2.35,0,0,1,.17.89,2.15,2.15,0,0,1-.19.93,1.36,1.36,0,0,1-.54.64,1.42,1.42,0,0,1-.74.22,1.07,1.07,0,0,1-.51-.12,1.17,1.17,0,0,1-.38-.31v1.64Zm.52-3a1.52,1.52,0,0,0,.26,1,.84.84,0,0,0,.64.31.82.82,0,0,0,.65-.33,1.94,1.94,0,0,0,0-2,.79.79,0,0,0-1.28,0A1.52,1.52,0,0,0,49,150.38Z" transform="translate(0.01 -21.92)"/><path class="cls-4" d="M54.44,151,55,151a1.43,1.43,0,0,1-.51.8,1.6,1.6,0,0,1-1,.29,1.56,1.56,0,0,1-1.17-.46,1.77,1.77,0,0,1-.43-1.28,1.89,1.89,0,0,1,.43-1.32,1.51,1.51,0,0,1,1.14-.47,1.45,1.45,0,0,1,1.1.46,1.82,1.82,0,0,1,.43,1.3v.15H52.54a1.28,1.28,0,0,0,.31.85.92.92,0,0,0,.7.3.89.89,0,0,0,.54-.17A1,1,0,0,0,54.44,151ZM52.57,150h1.88a1.18,1.18,0,0,0-.22-.64.86.86,0,0,0-.7-.33.9.9,0,0,0-.67.27A1.07,1.07,0,0,0,52.57,150Z" transform="translate(0.01 -21.92)"/><path class="cls-4" d="M58.06,151l.59.08a1.44,1.44,0,0,1-.52.8,1.54,1.54,0,0,1-1,.29,1.57,1.57,0,0,1-1.18-.46,1.82,1.82,0,0,1-.43-1.28,1.9,1.9,0,0,1,.44-1.32,1.49,1.49,0,0,1,1.13-.47,1.47,1.47,0,0,1,1.11.46,1.87,1.87,0,0,1,.43,1.3,1,1,0,0,1,0,.15H56.15a1.29,1.29,0,0,0,.32.85.91.91,0,0,0,.7.3.89.89,0,0,0,.54-.17A1.14,1.14,0,0,0,58.06,151ZM56.18,150h1.88a1.1,1.1,0,0,0-.21-.64.88.88,0,0,0-.71-.33.9.9,0,0,0-.66.27A1,1,0,0,0,56.18,150Z" transform="translate(0.01 -21.92)"/><path class="cls-4" d="M61.55,152.05v-.42a1.05,1.05,0,0,1-.94.5,1.3,1.3,0,0,1-.74-.23,1.33,1.33,0,0,1-.52-.62,2,2,0,0,1-.19-.91,2.47,2.47,0,0,1,.17-.92,1.37,1.37,0,0,1,.5-.63,1.43,1.43,0,0,1,.75-.22,1.21,1.21,0,0,1,.55.13,1,1,0,0,1,.38.34V147.4h.57v4.65Zm-1.8-1.68a1.5,1.5,0,0,0,.27,1,.83.83,0,0,0,.64.32.82.82,0,0,0,.64-.31,1.38,1.38,0,0,0,.26-.93,1.64,1.64,0,0,0-.26-1,.81.81,0,0,0-.66-.32.78.78,0,0,0-.64.31A1.54,1.54,0,0,0,59.75,150.37Z" transform="translate(0.01 -21.92)"/><path class="cls-4" d="M64.8,153.34V147.4h1.26v.47h-.69v5h.69v.47Z" transform="translate(0.01 -21.92)"/><path class="cls-4" d="M66.59,152.05v-3.37h.51v.51a1.31,1.31,0,0,1,.36-.47.65.65,0,0,1,.37-.12,1.17,1.17,0,0,1,.59.19l-.2.53a.86.86,0,0,0-.42-.13.52.52,0,0,0-.33.12.65.65,0,0,0-.22.31,2.31,2.31,0,0,0-.09.67v1.76Z" transform="translate(0.01 -21.92)"/><path class="cls-4" d="M68.33,152.13l1.35-4.81h.45l-1.34,4.81Z" transform="translate(0.01 -21.92)"/><path class="cls-4" d="M70.56,152.05v-3.37h.51v.47a1.27,1.27,0,0,1,.43-.4,1.16,1.16,0,0,1,.6-.15,1.13,1.13,0,0,1,.61.16.86.86,0,0,1,.34.43,1.22,1.22,0,0,1,1-.59,1.05,1.05,0,0,1,.77.28,1.2,1.2,0,0,1,.27.86v2.31h-.57v-2.12a1.91,1.91,0,0,0,0-.5.52.52,0,0,0-.2-.24.68.68,0,0,0-.35-.09.84.84,0,0,0-.59.23,1.08,1.08,0,0,0-.23.76v2h-.57v-2.19a1,1,0,0,0-.14-.57.54.54,0,0,0-.46-.19.81.81,0,0,0-.45.13.69.69,0,0,0-.29.37,2,2,0,0,0-.1.7v1.75Z" transform="translate(0.01 -21.92)"/><path class="cls-4" d="M76,148.05v-.65h.57v.65Zm0,4v-3.37h.57v3.37Z" transform="translate(0.01 -21.92)"/><path class="cls-4" d="M77.42,152.05v-3.37h.52v.48A1.2,1.2,0,0,1,79,148.6a1.47,1.47,0,0,1,.56.11A.89.89,0,0,1,80,149a1,1,0,0,1,.18.42,3.51,3.51,0,0,1,0,.56v2.07h-.57V150a1.38,1.38,0,0,0-.07-.52.53.53,0,0,0-.23-.28.77.77,0,0,0-.4-.1,1,1,0,0,0-.63.23,1.13,1.13,0,0,0-.27.88v1.84Z" transform="translate(0.01 -21.92)"/><path class="cls-4" d="M82,153.34H80.73v-.47h.69v-5h-.69v-.47H82Z" transform="translate(0.01 -21.92)"/></g></svg>