<svg xmlns="http://www.w3.org/2000/svg" viewBox="0 0 116.62 131.42"><defs><style>.cls-1,.cls-2,.cls-3,.cls-4,.繝医Ν繧ｯ繧ｰ繝ｩ繝廟繧ｰ繝ｬ繝ｼ邱,.邱喟0\.5pt-6{fill:none;}.cls-1,.cls-2,.邱喟0\.5pt-6{stroke:#231815;}.cls-1{stroke-linejoin:round;stroke-width:0.14px;}.cls-2,.cls-3,.cls-4,.邱喟0\.5pt-6{stroke-miterlimit:10;}.cls-2{stroke-width:0.14px;}.cls-3,.cls-4,.繝医Ν繧ｯ繧ｰ繝ｩ繝廟繧ｰ繝ｬ繝ｼ邱{stroke:#9fa0a0;}.cls-3,.cls-4{stroke-width:1px;}.cls-4{stroke-dasharray:3.47 1.68;}.繝医Ν繧ｯ繧ｰ繝ｩ繝廟繧ｰ繝ｬ繝ｼ邱{stroke-width:3px;}.cls-5{fill:#231815;}.繝後Μ_逋ｽ-2{fill:#fff;}.邱喟0\.5pt-6{stroke-width:0.5px;}</style></defs><g id="Illust"><line class="cls-1" x1="45.52" y1="2.18" x2="45.52" y2="115.56"/><line class="cls-1" x1="72.59" y1="2.18" x2="72.59" y2="115.56"/><line class="cls-1" x1="99.67" y1="2.18" x2="99.67" y2="115.56"/><line class="cls-2" x1="18.44" y1="24.85" x2="109.15" y2="24.85"/><line class="cls-2" x1="18.44" y1="47.53" x2="109.15" y2="47.53"/><line class="cls-2" x1="18.44" y1="70.21" x2="109.15" y2="70.21"/><line class="cls-2" x1="18.44" y1="92.89" x2="109.15" y2="92.89"/><line class="cls-3" x1="96.97" y1="105.64" x2="96.97" y2="107.19"/><line class="cls-4" x1="96.97" y1="108.87" x2="96.97" y2="113.17"/><line class="cls-3" x1="96.97" y1="114.01" x2="96.97" y2="115.56"/><polyline class="繝医Ν繧ｯ繧ｰ繝ｩ繝廟繧ｰ繝ｬ繝ｼ邱" points="18.47 93.87 25.23 93.87 31.99 93.87 45.54 93.87 59.06 93.87 72.61 99.28 86.14 102.56 99.68 104.74 109.15 105.84"/><polyline class="繝医Ν繧ｯ繧ｰ繝ｩ繝廟繧ｰ繝ｬ繝ｼ邱" points="18.46 18.11 53.66 18.11 109.89 84.63"/><path class="cls-5" d="M10.23,137.13a3.2,3.2,0,0,1,.13-1,1.31,1.31,0,0,1,.39-.6,1.11,1.11,0,0,1,1.15-.09,1,1,0,0,1,.36.33,1.91,1.91,0,0,1,.22.54,4.23,4.23,0,0,1-.05,1.86,1.22,1.22,0,0,1-.38.6,1.1,1.1,0,0,1-1.47-.16A2.43,2.43,0,0,1,10.23,137.13Zm.45,0a2.25,2.25,0,0,0,.21,1.18.6.6,0,0,0,.51.29.61.61,0,0,0,.51-.3,3.52,3.52,0,0,0,0-2.34.6.6,0,0,0-.52-.29.56.56,0,0,0-.48.25A2.28,2.28,0,0,0,10.68,137.13Z" transform="translate(0.01 -21.92)"/><path class="cls-5" d="M13.29,138.9v-.5h.5v.5Z" transform="translate(0.01 -21.92)"/><path class="cls-5" d="M14.43,137.13a3.52,3.52,0,0,1,.13-1,1.31,1.31,0,0,1,.39-.6,1,1,0,0,1,.65-.21,1.07,1.07,0,0,1,.51.12,1.13,1.13,0,0,1,.36.33,2.25,2.25,0,0,1,.22.54,3.72,3.72,0,0,1,.08.84,3.2,3.2,0,0,1-.13,1,1.31,1.31,0,0,1-.39.6,1,1,0,0,1-.65.21,1,1,0,0,1-.81-.37A2.35,2.35,0,0,1,14.43,137.13Zm.46,0a2.27,2.27,0,0,0,.2,1.18.62.62,0,0,0,.51.29.61.61,0,0,0,.51-.3,3.36,3.36,0,0,0,0-2.34.6.6,0,0,0-.51-.29.56.56,0,0,0-.49.25A2.3,2.3,0,0,0,14.89,137.13Z" transform="translate(0.01 -21.92)"/><path class="cls-5" d="M10,115.28l.46,0a.77.77,0,0,0,.24.51.64.64,0,0,0,.45.17.68.68,0,0,0,.53-.24.88.88,0,0,0,.22-.63.84.84,0,0,0-.21-.6.74.74,0,0,0-.55-.21.79.79,0,0,0-.38.09.73.73,0,0,0-.27.25l-.42,0,.35-1.84h1.78v.42H10.75l-.19,1a1.15,1.15,0,0,1,.68-.22,1.1,1.1,0,0,1,.79.32,1.17,1.17,0,0,1,.32.84,1.31,1.31,0,0,1-.28.84,1.14,1.14,0,0,1-.94.43,1.17,1.17,0,0,1-.8-.27A1.06,1.06,0,0,1,10,115.28Z" transform="translate(0.01 -21.92)"/><path class="cls-5" d="M13,116.22v-.5h.5v.5Z" transform="translate(0.01 -21.92)"/><path class="cls-5" d="M14.15,114.46a3.23,3.23,0,0,1,.13-1,1.18,1.18,0,0,1,.39-.59,1,1,0,0,1,.64-.21,1.16,1.16,0,0,1,.51.11,1.06,1.06,0,0,1,.36.34,1.73,1.73,0,0,1,.22.53,3.76,3.76,0,0,1,.08.85,3.14,3.14,0,0,1-.13,1,1.23,1.23,0,0,1-.39.6,1.09,1.09,0,0,1-1.46-.16A2.33,2.33,0,0,1,14.15,114.46Zm.45,0a2.36,2.36,0,0,0,.2,1.17.62.62,0,0,0,.51.29.6.6,0,0,0,.51-.29,3.39,3.39,0,0,0,0-2.35.61.61,0,0,0-.51-.29.56.56,0,0,0-.48.26A2.19,2.19,0,0,0,14.6,114.46Z" transform="translate(0.01 -21.92)"/><path class="cls-5" d="M9.14,93.54H8.7v-2.8a3.28,3.28,0,0,1-.42.31,2.69,2.69,0,0,1-.46.22v-.42a2.73,2.73,0,0,0,.64-.42,1.81,1.81,0,0,0,.4-.48h.28Z" transform="translate(0.01 -21.92)"/><path class="cls-5" d="M10.26,91.78a3.47,3.47,0,0,1,.13-1,1.31,1.31,0,0,1,.39-.6,1,1,0,0,1,.65-.21,1.07,1.07,0,0,1,.51.12.94.94,0,0,1,.36.33,2.17,2.17,0,0,1,.22.53,3.76,3.76,0,0,1,.08.85,3.2,3.2,0,0,1-.13,1,1.33,1.33,0,0,1-.39.59,1,1,0,0,1-.65.21,1,1,0,0,1-.81-.37A2.3,2.3,0,0,1,10.26,91.78Zm.46,0a2.2,2.2,0,0,0,.2,1.17.59.59,0,0,0,1,0,3.39,3.39,0,0,0,0-2.35.62.62,0,0,0-.51-.29.57.57,0,0,0-.49.26A2.3,2.3,0,0,0,10.72,91.78Z" transform="translate(0.01 -21.92)"/><path class="cls-5" d="M13.29,93.54V93h.5v.5Z" transform="translate(0.01 -21.92)"/><path class="cls-5" d="M14.43,91.78a3.47,3.47,0,0,1,.13-1,1.31,1.31,0,0,1,.39-.6A1,1,0,0,1,15.6,90a1.07,1.07,0,0,1,.51.12.94.94,0,0,1,.36.33,2.17,2.17,0,0,1,.22.53,3.76,3.76,0,0,1,.08.85,3.2,3.2,0,0,1-.13,1,1.33,1.33,0,0,1-.39.59,1,1,0,0,1-.65.21,1,1,0,0,1-.81-.37A2.3,2.3,0,0,1,14.43,91.78Zm.46,0a2.2,2.2,0,0,0,.2,1.17.59.59,0,0,0,1,0,3.39,3.39,0,0,0,0-2.35.62.62,0,0,0-.51-.29.57.57,0,0,0-.49.26A2.3,2.3,0,0,0,14.89,91.78Z" transform="translate(0.01 -21.92)"/><path class="cls-5" d="M9.11,70.87H8.67v-2.8a2.54,2.54,0,0,1-.42.3,2.81,2.81,0,0,1-.46.23v-.43a2.42,2.42,0,0,0,.65-.42,1.65,1.65,0,0,0,.39-.48h.28Z" transform="translate(0.01 -21.92)"/><path class="cls-5" d="M10.26,69.93l.47,0a.87.87,0,0,0,.23.51.68.68,0,0,0,.45.17.7.7,0,0,0,.54-.24.89.89,0,0,0,.22-.64A.8.8,0,0,0,12,69.1a.72.72,0,0,0-.55-.22A.76.76,0,0,0,11,69a.81.81,0,0,0-.27.25l-.41-.06.35-1.83h1.78v.42H11l-.19,1a1.15,1.15,0,0,1,.67-.23,1,1,0,0,1,.79.33,1.1,1.1,0,0,1,.33.83,1.28,1.28,0,0,1-.29.84,1.14,1.14,0,0,1-.94.44,1.11,1.11,0,0,1-.79-.28A1,1,0,0,1,10.26,69.93Z" transform="translate(0.01 -21.92)"/><path class="cls-5" d="M13.29,70.87v-.5h.5v.5Z" transform="translate(0.01 -21.92)"/><path class="cls-5" d="M14.43,69.1a3.52,3.52,0,0,1,.13-1,1.31,1.31,0,0,1,.39-.6,1,1,0,0,1,.65-.21,1.07,1.07,0,0,1,.51.12,1.13,1.13,0,0,1,.36.33,2.35,2.35,0,0,1,.22.53,3.82,3.82,0,0,1,.08.85,3.2,3.2,0,0,1-.13,1,1.31,1.31,0,0,1-.39.6,1.09,1.09,0,0,1-1.46-.16A2.35,2.35,0,0,1,14.43,69.1Zm.46,0a2.2,2.2,0,0,0,.2,1.17.58.58,0,0,0,1,0,3.36,3.36,0,0,0,0-2.34.6.6,0,0,0-.51-.29.56.56,0,0,0-.49.25A2.3,2.3,0,0,0,14.89,69.1Z" transform="translate(0.01 -21.92)"/><path class="cls-5" d="M9.76,47.77v.42H7.4a.65.65,0,0,1,0-.31,1.58,1.58,0,0,1,.29-.47,3.81,3.81,0,0,1,.57-.54,5.35,5.35,0,0,0,.79-.76.9.9,0,0,0,.21-.53.6.6,0,0,0-.19-.44A.67.67,0,0,0,8.63,45a.65.65,0,0,0-.5.19.71.71,0,0,0-.2.53l-.45,0a1.12,1.12,0,0,1,.35-.77,1.16,1.16,0,0,1,.81-.26,1.13,1.13,0,0,1,.82.28.94.94,0,0,1,.3.71,1.06,1.06,0,0,1-.09.42,1.75,1.75,0,0,1-.29.44,8.11,8.11,0,0,1-.68.63l-.51.45a1.88,1.88,0,0,0-.18.24Z" transform="translate(0.01 -21.92)"/><path class="cls-5" d="M10.26,46.42a3.52,3.52,0,0,1,.13-1,1.28,1.28,0,0,1,.39-.59,1,1,0,0,1,.65-.21.95.95,0,0,1,.87.45,2,2,0,0,1,.22.53,3.72,3.72,0,0,1,.08.84,3.2,3.2,0,0,1-.13,1,1.31,1.31,0,0,1-.39.6,1,1,0,0,1-.65.21,1,1,0,0,1-.81-.37A2.33,2.33,0,0,1,10.26,46.42Zm.46,0a2.27,2.27,0,0,0,.2,1.18.59.59,0,0,0,1,0,2.25,2.25,0,0,0,.21-1.18,2.18,2.18,0,0,0-.21-1.17.62.62,0,0,0-.51-.29.55.55,0,0,0-.49.26A2.26,2.26,0,0,0,10.72,46.42Z" transform="translate(0.01 -21.92)"/><path class="cls-5" d="M13.29,48.19v-.5h.5v.5Z" transform="translate(0.01 -21.92)"/><path class="cls-5" d="M14.43,46.42a3.52,3.52,0,0,1,.13-1,1.28,1.28,0,0,1,.39-.59,1,1,0,0,1,.65-.21.95.95,0,0,1,.87.45,2,2,0,0,1,.22.53,3.72,3.72,0,0,1,.08.84,3.2,3.2,0,0,1-.13,1,1.31,1.31,0,0,1-.39.6,1,1,0,0,1-.65.21,1,1,0,0,1-.81-.37A2.33,2.33,0,0,1,14.43,46.42Zm.46,0a2.27,2.27,0,0,0,.2,1.18.59.59,0,0,0,1,0,2.25,2.25,0,0,0,.21-1.18,2.18,2.18,0,0,0-.21-1.17A.62.62,0,0,0,15.6,45a.55.55,0,0,0-.49.26A2.26,2.26,0,0,0,14.89,46.42Z" transform="translate(0.01 -21.92)"/><path class="cls-5" d="M9.76,25.09v.42H7.4a.61.61,0,0,1,0-.3,1.76,1.76,0,0,1,.29-.48,3.81,3.81,0,0,1,.57-.54,4.87,4.87,0,0,0,.79-.76.9.9,0,0,0,.21-.53.61.61,0,0,0-.19-.44.67.67,0,0,0-.49-.18.69.69,0,0,0-.5.19.71.71,0,0,0-.2.53L7.48,23a1.14,1.14,0,0,1,.35-.77,1.21,1.21,0,0,1,.81-.26,1.13,1.13,0,0,1,.82.28.94.94,0,0,1,.3.71,1,1,0,0,1-.09.42,1.75,1.75,0,0,1-.29.44,8.11,8.11,0,0,1-.68.63l-.51.45a1.88,1.88,0,0,0-.18.24Z" transform="translate(0.01 -21.92)"/><path class="cls-5" d="M10.26,24.57l.47,0A.81.81,0,0,0,11,25a.68.68,0,0,0,.45.17A.7.7,0,0,0,12,25a.88.88,0,0,0,.22-.63.84.84,0,0,0-.21-.6.75.75,0,0,0-.55-.21.86.86,0,0,0-.39.09.93.93,0,0,0-.27.25l-.41-.05L10.69,22h1.78v.42H11l-.19,1a1.14,1.14,0,0,1,.67-.22,1.07,1.07,0,0,1,.79.32,1.14,1.14,0,0,1,.33.84,1.32,1.32,0,0,1-.29.84,1.13,1.13,0,0,1-.94.43,1.15,1.15,0,0,1-.79-.27A1,1,0,0,1,10.26,24.57Z" transform="translate(0.01 -21.92)"/><path class="cls-5" d="M13.29,25.51V25h.5v.5Z" transform="translate(0.01 -21.92)"/><path class="cls-5" d="M14.43,23.75a3.54,3.54,0,0,1,.13-1,1.33,1.33,0,0,1,.39-.59,1,1,0,0,1,.65-.21,1.19,1.19,0,0,1,.51.11,1.06,1.06,0,0,1,.36.34,2,2,0,0,1,.22.53,3.76,3.76,0,0,1,.08.85,3.09,3.09,0,0,1-.13,1,1.31,1.31,0,0,1-.39.6,1,1,0,0,1-.65.21,1,1,0,0,1-.81-.37A2.32,2.32,0,0,1,14.43,23.75Zm.46,0a2.23,2.23,0,0,0,.2,1.17.59.59,0,0,0,1,0,2.23,2.23,0,0,0,.21-1.17,2.25,2.25,0,0,0-.21-1.18.62.62,0,0,0-.51-.29.57.57,0,0,0-.49.26A2.3,2.3,0,0,0,14.89,23.75Z" transform="translate(0.01 -21.92)"/><path class="cls-5" d="M17.24,141.38a3.2,3.2,0,0,1,.13-1,1.28,1.28,0,0,1,.39-.59,1.14,1.14,0,0,1,1.15-.1.9.9,0,0,1,.36.34,1.51,1.51,0,0,1,.22.53,3.16,3.16,0,0,1,.09.84,3.52,3.52,0,0,1-.13,1,1.31,1.31,0,0,1-.39.6,1.1,1.1,0,0,1-1.47-.16A2.41,2.41,0,0,1,17.24,141.38Zm.45,0a2.25,2.25,0,0,0,.21,1.18.59.59,0,0,0,1,0,2.38,2.38,0,0,0,.2-1.18,2.31,2.31,0,0,0-.2-1.17.63.63,0,0,0-.52-.29.54.54,0,0,0-.48.26A2.24,2.24,0,0,0,17.69,141.38Z" transform="translate(0.01 -21.92)"/><path class="cls-5" d="M108.16,140.45l-.44,0a.8.8,0,0,0-.17-.37.56.56,0,0,0-.44-.19.67.67,0,0,0-.37.11,1.11,1.11,0,0,0-.32.45,2.41,2.41,0,0,0-.13.82,1.11,1.11,0,0,1,.39-.36,1.13,1.13,0,0,1,.48-.11,1,1,0,0,1,.75.32,1.16,1.16,0,0,1,.31.84,1.32,1.32,0,0,1-.15.62,1,1,0,0,1-.4.45,1.08,1.08,0,0,1-.57.15,1.12,1.12,0,0,1-.9-.4,2.07,2.07,0,0,1-.34-1.34,2.33,2.33,0,0,1,.38-1.5,1.08,1.08,0,0,1,.9-.41,1,1,0,0,1,.69.23A1,1,0,0,1,108.16,140.45Zm-1.8,1.54a.91.91,0,0,0,.1.43.7.7,0,0,0,.63.43.62.62,0,0,0,.48-.23.9.9,0,0,0,.2-.61.83.83,0,0,0-.2-.58.66.66,0,0,0-.5-.21.69.69,0,0,0-.5.21A.76.76,0,0,0,106.36,142Z" transform="translate(0.01 -21.92)"/><path class="cls-5" d="M108.71,140v-.42H111V140a4.77,4.77,0,0,0-.68,1,5.79,5.79,0,0,0-.51,1.24,4.08,4.08,0,0,0-.17,1h-.45a4.4,4.4,0,0,1,.16-1,5.42,5.42,0,0,1,.46-1.15,5.11,5.11,0,0,1,.63-.94Z" transform="translate(0.01 -21.92)"/><path class="cls-5" d="M111.47,141.38a3.2,3.2,0,0,1,.13-1,1.14,1.14,0,0,1,.39-.59,1,1,0,0,1,.64-.21,1,1,0,0,1,.51.11,1.06,1.06,0,0,1,.36.34,1.73,1.73,0,0,1,.22.53,3.72,3.72,0,0,1,.08.84,3.2,3.2,0,0,1-.13,1,1.22,1.22,0,0,1-.38.6,1,1,0,0,1-.66.21,1,1,0,0,1-.81-.37A2.34,2.34,0,0,1,111.47,141.38Zm.45,0a2.25,2.25,0,0,0,.21,1.18.58.58,0,0,0,1,0,2.25,2.25,0,0,0,.21-1.18,2.18,2.18,0,0,0-.21-1.17.61.61,0,0,0-.51-.29.54.54,0,0,0-.48.26A2.15,2.15,0,0,0,111.92,141.38Z" transform="translate(0.01 -21.92)"/><path class="cls-5" d="M114.28,141.38a3.2,3.2,0,0,1,.13-1,1.28,1.28,0,0,1,.39-.59,1,1,0,0,1,.65-.21,1,1,0,0,1,.5.11,1.06,1.06,0,0,1,.36.34,1.73,1.73,0,0,1,.22.53,3.72,3.72,0,0,1,.08.84,3.2,3.2,0,0,1-.13,1,1.22,1.22,0,0,1-.38.6,1,1,0,0,1-.65.21,1,1,0,0,1-.82-.37A2.41,2.41,0,0,1,114.28,141.38Zm.45,0a2.25,2.25,0,0,0,.21,1.18.58.58,0,0,0,1,0,2.25,2.25,0,0,0,.21-1.18,2.18,2.18,0,0,0-.21-1.17.61.61,0,0,0-.51-.29.54.54,0,0,0-.48.26A2.15,2.15,0,0,0,114.73,141.38Z" transform="translate(0.01 -21.92)"/><rect class="繝後Μ_逋ｽ-2" x="109.15" y="2.18" width="2.83" height="113.39"/><path class="cls-5" d="M42.3,142.73v.42H39.94a.65.65,0,0,1,.05-.31,1.4,1.4,0,0,1,.29-.47,3.81,3.81,0,0,1,.57-.54,5.35,5.35,0,0,0,.79-.76.88.88,0,0,0,.2-.53.6.6,0,0,0-.18-.44.77.77,0,0,0-1,0,.74.74,0,0,0-.19.53l-.45,0a1.12,1.12,0,0,1,.35-.77,1.37,1.37,0,0,1,1.63,0,.94.94,0,0,1,.3.71,1.06,1.06,0,0,1-.09.42,1.75,1.75,0,0,1-.29.44c-.14.15-.37.36-.68.63l-.51.45a1.25,1.25,0,0,0-.18.24Z" transform="translate(0.01 -21.92)"/><path class="cls-5" d="M42.8,141.38a3.52,3.52,0,0,1,.13-1,1.28,1.28,0,0,1,.39-.59,1.14,1.14,0,0,1,1.15-.1.9.9,0,0,1,.36.34,1.73,1.73,0,0,1,.23.53,3.72,3.72,0,0,1,.08.84,3.52,3.52,0,0,1-.13,1,1.31,1.31,0,0,1-.39.6,1,1,0,0,1-.65.21,1,1,0,0,1-.81-.37A2.33,2.33,0,0,1,42.8,141.38Zm.45,0a2.25,2.25,0,0,0,.21,1.18.59.59,0,0,0,1,0,2.27,2.27,0,0,0,.2-1.18,2.2,2.2,0,0,0-.2-1.17.63.63,0,0,0-.52-.29.54.54,0,0,0-.48.26A2.24,2.24,0,0,0,43.25,141.38Z" transform="translate(0.01 -21.92)"/><path class="cls-5" d="M45.55,141.38a3.52,3.52,0,0,1,.13-1,1.28,1.28,0,0,1,.39-.59,1,1,0,0,1,.65-.21,1.06,1.06,0,0,1,.51.11,1,1,0,0,1,.35.34,1.73,1.73,0,0,1,.23.53,3.72,3.72,0,0,1,.08.84,3.52,3.52,0,0,1-.13,1,1.31,1.31,0,0,1-.39.6,1,1,0,0,1-.65.21,1,1,0,0,1-.81-.37A2.33,2.33,0,0,1,45.55,141.38Zm.45,0a2.25,2.25,0,0,0,.21,1.18.59.59,0,0,0,1,0,2.25,2.25,0,0,0,.21-1.18,2.18,2.18,0,0,0-.21-1.17.63.63,0,0,0-.52-.29.54.54,0,0,0-.48.26A2.24,2.24,0,0,0,46,141.38Z" transform="translate(0.01 -21.92)"/><path class="cls-5" d="M48.36,141.38a3.52,3.52,0,0,1,.13-1,1.28,1.28,0,0,1,.39-.59,1,1,0,0,1,.65-.21,1.06,1.06,0,0,1,.51.11,1,1,0,0,1,.35.34,1.73,1.73,0,0,1,.23.53,3.72,3.72,0,0,1,.08.84,3.52,3.52,0,0,1-.13,1,1.31,1.31,0,0,1-.39.6,1,1,0,0,1-.65.21,1,1,0,0,1-.81-.37A2.33,2.33,0,0,1,48.36,141.38Zm.45,0a2.25,2.25,0,0,0,.21,1.18.59.59,0,0,0,1,0,2.25,2.25,0,0,0,.21-1.18,2.18,2.18,0,0,0-.21-1.17.62.62,0,0,0-.51-.29.55.55,0,0,0-.49.26A2.24,2.24,0,0,0,48.81,141.38Z" transform="translate(0.01 -21.92)"/><path class="cls-5" d="M68.34,143.15v-.86H66.79v-.4l1.63-2.32h.36v2.32h.49v.4h-.49v.86Zm0-1.26v-1.61l-1.12,1.61Z" transform="translate(0.01 -21.92)"/><path class="cls-5" d="M69.75,141.38a3.2,3.2,0,0,1,.13-1,1.14,1.14,0,0,1,.39-.59,1,1,0,0,1,.64-.21,1,1,0,0,1,.51.11,1.06,1.06,0,0,1,.36.34,1.73,1.73,0,0,1,.22.53,3.72,3.72,0,0,1,.08.84,3.2,3.2,0,0,1-.13,1,1.23,1.23,0,0,1-.39.6,1.09,1.09,0,0,1-1.46-.16A2.34,2.34,0,0,1,69.75,141.38Zm.45,0a2.38,2.38,0,0,0,.2,1.18.59.59,0,0,0,1,0,2.25,2.25,0,0,0,.21-1.18,2.18,2.18,0,0,0-.21-1.17.62.62,0,0,0-.51-.29.57.57,0,0,0-.49.26A2.26,2.26,0,0,0,70.2,141.38Z" transform="translate(0.01 -21.92)"/><path class="cls-5" d="M72.5,141.38a3.2,3.2,0,0,1,.13-1,1.14,1.14,0,0,1,.39-.59,1,1,0,0,1,.64-.21,1,1,0,0,1,.51.11,1.06,1.06,0,0,1,.36.34,1.73,1.73,0,0,1,.22.53,3.72,3.72,0,0,1,.08.84,3.2,3.2,0,0,1-.13,1,1.17,1.17,0,0,1-.39.6,1.09,1.09,0,0,1-1.46-.16A2.41,2.41,0,0,1,72.5,141.38Zm.45,0a2.38,2.38,0,0,0,.2,1.18.62.62,0,0,0,.51.29.6.6,0,0,0,.51-.29,2.25,2.25,0,0,0,.21-1.18,2.18,2.18,0,0,0-.21-1.17.61.61,0,0,0-.51-.29.54.54,0,0,0-.48.26A2.15,2.15,0,0,0,73,141.38Z" transform="translate(0.01 -21.92)"/><path class="cls-5" d="M75.31,141.38a3.2,3.2,0,0,1,.13-1,1.2,1.2,0,0,1,.39-.59,1,1,0,0,1,.64-.21,1,1,0,0,1,.51.11,1,1,0,0,1,.36.34,1.73,1.73,0,0,1,.22.53,3.72,3.72,0,0,1,.08.84,3.2,3.2,0,0,1-.13,1,1.22,1.22,0,0,1-.38.6,1,1,0,0,1-.66.21,1,1,0,0,1-.81-.37A2.41,2.41,0,0,1,75.31,141.38Zm.45,0a2.25,2.25,0,0,0,.21,1.18.58.58,0,0,0,1,0,2.25,2.25,0,0,0,.21-1.18,2.18,2.18,0,0,0-.21-1.17.61.61,0,0,0-.51-.29.54.54,0,0,0-.48.26A2.15,2.15,0,0,0,75.76,141.38Z" transform="translate(0.01 -21.92)"/><path class="cls-5" d="M96.12,140.45l-.43,0a.8.8,0,0,0-.17-.37.56.56,0,0,0-.44-.19.67.67,0,0,0-.37.11,1,1,0,0,0-.32.45,2.19,2.19,0,0,0-.13.82,1.11,1.11,0,0,1,.39-.36,1.13,1.13,0,0,1,.48-.11,1,1,0,0,1,.75.32,1.21,1.21,0,0,1,.31.84,1.32,1.32,0,0,1-.15.62,1,1,0,0,1-.4.45,1.1,1.1,0,0,1-.57.15,1.12,1.12,0,0,1-.9-.4,2.07,2.07,0,0,1-.35-1.34,2.32,2.32,0,0,1,.39-1.5,1.08,1.08,0,0,1,.9-.41.94.94,0,0,1,1,.89ZM94.33,142a.91.91,0,0,0,.1.43.7.7,0,0,0,.63.43.63.63,0,0,0,.48-.23.9.9,0,0,0,.2-.61.83.83,0,0,0-.2-.58.66.66,0,0,0-.5-.21.67.67,0,0,0-.5.21A.76.76,0,0,0,94.33,142Z" transform="translate(0.01 -21.92)"/><path class="cls-5" d="M96.65,141.38a3.52,3.52,0,0,1,.13-1,1.28,1.28,0,0,1,.39-.59,1,1,0,0,1,.65-.21.95.95,0,0,1,.87.45,2,2,0,0,1,.22.53,3.72,3.72,0,0,1,.08.84,3.2,3.2,0,0,1-.13,1,1.31,1.31,0,0,1-.39.6,1,1,0,0,1-.65.21,1,1,0,0,1-.81-.37A2.33,2.33,0,0,1,96.65,141.38Zm.46,0a2.27,2.27,0,0,0,.2,1.18.59.59,0,0,0,1,0,2.25,2.25,0,0,0,.21-1.18,2.18,2.18,0,0,0-.21-1.17.62.62,0,0,0-.51-.29.55.55,0,0,0-.49.26A2.26,2.26,0,0,0,97.11,141.38Z" transform="translate(0.01 -21.92)"/><path class="cls-5" d="M99.41,141.38a3.2,3.2,0,0,1,.13-1,1.19,1.19,0,0,1,.38-.59,1,1,0,0,1,.65-.21.95.95,0,0,1,.87.45,1.73,1.73,0,0,1,.22.53,3.72,3.72,0,0,1,.08.84,3.2,3.2,0,0,1-.13,1,1.31,1.31,0,0,1-.39.6,1,1,0,0,1-.65.21,1,1,0,0,1-.81-.37A2.34,2.34,0,0,1,99.41,141.38Zm.45,0a2.38,2.38,0,0,0,.2,1.18.59.59,0,0,0,1,0,2.25,2.25,0,0,0,.21-1.18,2.18,2.18,0,0,0-.21-1.17.62.62,0,0,0-.51-.29.56.56,0,0,0-.49.26A2.26,2.26,0,0,0,99.86,141.38Z" transform="translate(0.01 -21.92)"/><path class="cls-5" d="M102.22,141.38a3.2,3.2,0,0,1,.13-1,1.19,1.19,0,0,1,.38-.59,1,1,0,0,1,.65-.21.95.95,0,0,1,.87.45,1.73,1.73,0,0,1,.22.53,3.72,3.72,0,0,1,.08.84,3.2,3.2,0,0,1-.13,1,1.23,1.23,0,0,1-.39.6,1.09,1.09,0,0,1-1.46-.16A2.34,2.34,0,0,1,102.22,141.38Zm.45,0a2.38,2.38,0,0,0,.2,1.18.59.59,0,0,0,1,0,2.25,2.25,0,0,0,.21-1.18,2.18,2.18,0,0,0-.21-1.17.62.62,0,0,0-.51-.29.57.57,0,0,0-.49.26A2.26,2.26,0,0,0,102.67,141.38Z" transform="translate(0.01 -21.92)"/><rect class="邱喟0.5pt-6" x="18.44" y="2.18" width="90.71" height="113.39"/></g><g id="English"><path class="cls-5" d="M4.64,98.27H.54V99.8H0V96.11H.54v1.54h4.1Z" transform="translate(0.01 -21.92)"/><path class="cls-5" d="M3,95.77a1.75,1.75,0,0,1-1.38-.52,1.58,1.58,0,0,1-.38-1.06,1.48,1.48,0,0,1,.46-1.14,1.74,1.74,0,0,1,1.26-.44,2.38,2.38,0,0,1,1,.19,1.45,1.45,0,0,1,.58.57,1.64,1.64,0,0,1,.21.82,1.52,1.52,0,0,1-.46,1.14A1.82,1.82,0,0,1,3,95.77Zm0-.59a1.41,1.41,0,0,0,1-.28.91.91,0,0,0,.33-.71.89.89,0,0,0-.33-.71,1.43,1.43,0,0,0-1-.28,1.38,1.38,0,0,0-.95.28A.95.95,0,0,0,2,94.9,1.39,1.39,0,0,0,3,95.18Z" transform="translate(0.01 -21.92)"/><path class="cls-5" d="M4.64,92H1.27v-.52h.51a1.31,1.31,0,0,1-.47-.36.61.61,0,0,1-.12-.37,1,1,0,0,1,.19-.58l.53.19a.76.76,0,0,0-.13.42.52.52,0,0,0,.12.34.58.58,0,0,0,.31.21,2.28,2.28,0,0,0,.66.1H4.64Z" transform="translate(0.01 -21.92)"/><path class="cls-5" d="M5.93,87.63H4.28a1,1,0,0,1,.31.37,1.14,1.14,0,0,1,.13.51,1.34,1.34,0,0,1-.48,1A1.9,1.9,0,0,1,2.92,90,2.21,2.21,0,0,1,2,89.8a1.33,1.33,0,0,1-.82-1.25,1.14,1.14,0,0,1,.53-1H1.27v-.51H5.93Zm-3,1.76a1.51,1.51,0,0,0,1-.27.81.81,0,0,0,0-1.29A1.46,1.46,0,0,0,3,87.57a1.57,1.57,0,0,0-1,.28.83.83,0,0,0-.34.65.79.79,0,0,0,.32.63A1.55,1.55,0,0,0,2.94,89.39Z" transform="translate(0.01 -21.92)"/><path class="cls-5" d="M4.64,84h-.5A1.22,1.22,0,0,1,4.72,85a1.31,1.31,0,0,1-.12.56.82.82,0,0,1-.29.38,1,1,0,0,1-.42.18,3.33,3.33,0,0,1-.53,0H1.27V85.6H3.14a3.77,3.77,0,0,0,.6,0,.62.62,0,0,0,.35-.23.69.69,0,0,0,.13-.43,1,1,0,0,0-.13-.49.72.72,0,0,0-.36-.31,1.63,1.63,0,0,0-.66-.1H1.27v-.57H4.64Z" transform="translate(0.01 -21.92)"/><path class="cls-5" d="M3.55,80.24l.08-.59a1.39,1.39,0,0,1,.8.52,1.72,1.72,0,0,1-.17,2.13A1.77,1.77,0,0,1,3,82.74a1.9,1.9,0,0,1-1.32-.44,1.49,1.49,0,0,1-.47-1.14,1.45,1.45,0,0,1,.46-1.1A1.82,1.82,0,0,1,3,79.63H3.1v2.52A1.34,1.34,0,0,0,4,81.83a.92.92,0,0,0,.3-.7.89.89,0,0,0-.17-.54A1.07,1.07,0,0,0,3.55,80.24Zm-.92,1.87V80.23a1.18,1.18,0,0,0-.64.22.88.88,0,0,0-.33.71.9.9,0,0,0,.27.66A1,1,0,0,0,2.63,82.11Z" transform="translate(0.01 -21.92)"/><path class="cls-5" d="M5.93,77.11H0V75.85H.46v.69h5v-.69h.47Z" transform="translate(0.01 -21.92)"/><path class="cls-5" d="M4.64,75.25H0v-.63l3.65-2.44H0v-.59H4.64v.63L1,74.66H4.64Z" transform="translate(0.01 -21.92)"/><path class="cls-5" d="M2.36,70.71a.78.78,0,0,1-.57-.24.81.81,0,0,1,1.14-1.14.81.81,0,0,1-.57,1.38Z" transform="translate(0.01 -21.92)"/><path class="cls-5" d="M4.64,68.35H1.27v-.51h.47a1.34,1.34,0,0,1-.4-.42,1.21,1.21,0,0,1-.15-.6,1.08,1.08,0,0,1,.16-.62.86.86,0,0,1,.43-.34,1.2,1.2,0,0,1-.59-1,1.05,1.05,0,0,1,.28-.77,1.2,1.2,0,0,1,.86-.27H4.64v.57H2.52a1.49,1.49,0,0,0-.5.06.42.42,0,0,0-.24.2.62.62,0,0,0-.09.34.82.82,0,0,0,.23.59,1,1,0,0,0,.76.24h2v.57H2.45a.92.92,0,0,0-.57.14.51.51,0,0,0-.19.45.89.89,0,0,0,.12.45.77.77,0,0,0,.38.3,2.08,2.08,0,0,0,.7.09H4.64Z" transform="translate(0.01 -21.92)"/><path class="cls-5" d="M5.93,62v1.26H5.46v-.69h-5v.69H0V62Z" transform="translate(0.01 -21.92)"/><rect class="繝後Μ_逋ｽ-2" x="21.98" y="47.03" width="47.91" height="16.58"/><path class="cls-5" d="M24.47,73.82l.58,0a1.32,1.32,0,0,0,.19.57,1,1,0,0,0,.47.36,1.65,1.65,0,0,0,.72.14,1.72,1.72,0,0,0,.62-.1.89.89,0,0,0,.4-.29.64.64,0,0,0,.13-.4.58.58,0,0,0-.13-.38,1,1,0,0,0-.41-.28c-.13,0-.41-.12-.83-.22a4.09,4.09,0,0,1-.9-.29,1.28,1.28,0,0,1-.5-.44,1,1,0,0,1-.16-.58,1.11,1.11,0,0,1,.2-.65,1.24,1.24,0,0,1,.58-.47,2.46,2.46,0,0,1,1.77,0,1.3,1.3,0,0,1,.61.49A1.42,1.42,0,0,1,28,72l-.59,0a.91.91,0,0,0-.32-.67,1.24,1.24,0,0,0-.81-.22,1.27,1.27,0,0,0-.81.2.62.62,0,0,0-.26.49.54.54,0,0,0,.18.42,2.79,2.79,0,0,0,.93.33,6.29,6.29,0,0,1,1,.29,1.48,1.48,0,0,1,.6.48,1.14,1.14,0,0,1,.19.66,1.27,1.27,0,0,1-.21.7,1.34,1.34,0,0,1-.61.51,2.13,2.13,0,0,1-.9.18,2.67,2.67,0,0,1-1.05-.18,1.46,1.46,0,0,1-.67-.55A1.63,1.63,0,0,1,24.47,73.82Z" transform="translate(0.01 -21.92)"/><path class="cls-5" d="M28.94,75.32V70.66h.57v1.67a1.28,1.28,0,0,1,1-.46,1.33,1.33,0,0,1,.65.15.82.82,0,0,1,.4.4,1.91,1.91,0,0,1,.12.76v2.14h-.57V73.18a.84.84,0,0,0-.19-.62.69.69,0,0,0-.52-.2.91.91,0,0,0-.48.13.74.74,0,0,0-.32.36,1.7,1.7,0,0,0-.1.62v1.85Z" transform="translate(0.01 -21.92)"/><path class="cls-5" d="M32.34,73.63a1.74,1.74,0,0,1,.53-1.39,1.56,1.56,0,0,1,1.06-.37,1.51,1.51,0,0,1,1.13.45,1.73,1.73,0,0,1,.44,1.26,2.25,2.25,0,0,1-.19,1,1.36,1.36,0,0,1-.57.57,1.63,1.63,0,0,1-.81.21,1.52,1.52,0,0,1-1.15-.45A1.84,1.84,0,0,1,32.34,73.63Zm.59,0a1.5,1.5,0,0,0,.28,1,.93.93,0,0,0,.72.32.91.91,0,0,0,.7-.32,1.48,1.48,0,0,0,.29-1,1.4,1.4,0,0,0-.29-1,.91.91,0,0,0-.7-.32.93.93,0,0,0-.72.32A1.5,1.5,0,0,0,32.93,73.63Z" transform="translate(0.01 -21.92)"/><path class="cls-5" d="M36.17,75.32V71.94h.51v.51A1.52,1.52,0,0,1,37,72a.72.72,0,0,1,.37-.11,1.15,1.15,0,0,1,.59.18l-.2.53a.84.84,0,0,0-.42-.12.55.55,0,0,0-.33.11.7.7,0,0,0-.22.31,2.41,2.41,0,0,0-.09.67v1.77Z" transform="translate(0.01 -21.92)"/><path class="cls-5" d="M39.58,74.8l.09.51a2.47,2.47,0,0,1-.43,0,1,1,0,0,1-.49-.1.55.55,0,0,1-.24-.26,2.24,2.24,0,0,1-.07-.67V72.39H38v-.45h.42v-.83l.57-.34v1.17h.57v.45H39v2a1,1,0,0,0,0,.31.18.18,0,0,0,.1.11.33.33,0,0,0,.19,0Z" transform="translate(0.01 -21.92)"/><path class="cls-5" d="M39.92,73.92v-.58h1.76v.58Z" transform="translate(0.01 -21.92)"/><path class="cls-5" d="M44.49,75.32v-.43a1,1,0,0,1-.94.5,1.31,1.31,0,0,1-.74-.22,1.44,1.44,0,0,1-.52-.62,2.07,2.07,0,0,1-.19-.92,2.42,2.42,0,0,1,.17-.91,1.28,1.28,0,0,1,.5-.63,1.35,1.35,0,0,1,.76-.22,1.08,1.08,0,0,1,.54.13,1,1,0,0,1,.39.33V70.66H45v4.66Zm-1.8-1.69a1.48,1.48,0,0,0,.27,1,.84.84,0,0,0,.65.32.8.8,0,0,0,.63-.3,1.41,1.41,0,0,0,.26-.94,1.6,1.6,0,0,0-.26-1,.84.84,0,0,0-.66-.32.79.79,0,0,0-.64.31A1.55,1.55,0,0,0,42.69,73.63Z" transform="translate(0.01 -21.92)"/><path class="cls-5" d="M48.13,75.32v-.5a1.23,1.23,0,0,1-1.07.57,1.42,1.42,0,0,1-.55-.11,1,1,0,0,1-.39-.29,1.13,1.13,0,0,1-.17-.42,2.4,2.4,0,0,1,0-.54V71.94h.57v1.87a2.79,2.79,0,0,0,0,.61.54.54,0,0,0,.23.35.67.67,0,0,0,.43.13.91.91,0,0,0,.48-.13.74.74,0,0,0,.32-.36,1.86,1.86,0,0,0,.09-.66V71.94h.57v3.38Z" transform="translate(0.01 -21.92)"/><path class="cls-5" d="M49.53,75.32V71.94h.52v.51a1.52,1.52,0,0,1,.36-.47.67.67,0,0,1,.37-.11,1.12,1.12,0,0,1,.58.18l-.19.53a.84.84,0,0,0-.42-.12.58.58,0,0,0-.34.11.62.62,0,0,0-.21.31,2.09,2.09,0,0,0-.1.67v1.77Z" transform="translate(0.01 -21.92)"/><path class="cls-5" d="M53.9,74.9a2,2,0,0,1-.61.38,1.85,1.85,0,0,1-.63.11,1.22,1.22,0,0,1-.85-.27.89.89,0,0,1-.3-.69,1,1,0,0,1,.11-.46,1,1,0,0,1,.3-.32,1.11,1.11,0,0,1,.41-.19,4.17,4.17,0,0,1,.51-.09,5.19,5.19,0,0,0,1-.19,1.14,1.14,0,0,0,0-.15.68.68,0,0,0-.16-.5,1.27,1.27,0,0,0-1.25,0,.86.86,0,0,0-.28.5l-.56-.07a1.29,1.29,0,0,1,.25-.58,1,1,0,0,1,.5-.34,2.26,2.26,0,0,1,.77-.12,2,2,0,0,1,.7.1.93.93,0,0,1,.4.26.89.89,0,0,1,.17.38,3.16,3.16,0,0,1,0,.53v.76a6.89,6.89,0,0,0,0,1,1.25,1.25,0,0,0,.14.41H54A1.29,1.29,0,0,1,53.9,74.9Zm0-1.28a3.73,3.73,0,0,1-.93.22,2.25,2.25,0,0,0-.5.11.59.59,0,0,0-.22.19.43.43,0,0,0-.08.27.5.5,0,0,0,.17.38.76.76,0,0,0,.51.15,1.21,1.21,0,0,0,.58-.14.86.86,0,0,0,.38-.4,1.38,1.38,0,0,0,.09-.57Z" transform="translate(0.01 -21.92)"/><path class="cls-5" d="M56.56,74.8l.09.51a2.47,2.47,0,0,1-.43,0,1,1,0,0,1-.49-.1.55.55,0,0,1-.24-.26,2.24,2.24,0,0,1-.07-.67V72.39H55v-.45h.42v-.83l.57-.34v1.17h.57v.45H56v2a1,1,0,0,0,0,.31.18.18,0,0,0,.1.11.33.33,0,0,0,.19,0Z" transform="translate(0.01 -21.92)"/><path class="cls-5" d="M57.13,71.32v-.66h.57v.66Zm0,4V71.94h.57v3.38Z" transform="translate(0.01 -21.92)"/><path class="cls-5" d="M58.36,73.63a1.74,1.74,0,0,1,.52-1.39,1.54,1.54,0,0,1,1.06-.37,1.51,1.51,0,0,1,1.13.45,1.73,1.73,0,0,1,.44,1.26,2.25,2.25,0,0,1-.19,1,1.36,1.36,0,0,1-.57.57,1.63,1.63,0,0,1-.81.21,1.52,1.52,0,0,1-1.15-.45A1.83,1.83,0,0,1,58.36,73.63Zm.58,0a1.5,1.5,0,0,0,.28,1,.93.93,0,0,0,.72.32.91.91,0,0,0,.7-.32,1.48,1.48,0,0,0,.29-1,1.4,1.4,0,0,0-.29-1,.91.91,0,0,0-.7-.32.93.93,0,0,0-.72.32A1.5,1.5,0,0,0,58.94,73.63Z" transform="translate(0.01 -21.92)"/><path class="cls-5" d="M62.18,75.32V71.94h.52v.48a1.19,1.19,0,0,1,1.07-.55,1.47,1.47,0,0,1,.56.11.88.88,0,0,1,.38.28,1,1,0,0,1,.18.43,3.37,3.37,0,0,1,0,.55v2.08h-.57V73.26a1.41,1.41,0,0,0-.07-.52.51.51,0,0,0-.23-.27.77.77,0,0,0-.4-.11,1,1,0,0,0-.63.23,1.14,1.14,0,0,0-.27.88v1.85Z" transform="translate(0.01 -21.92)"/><path class="cls-5" d="M24.6,83.12V79.74h.51v.51a1.69,1.69,0,0,1,.37-.47.66.66,0,0,1,.36-.11,1.12,1.12,0,0,1,.59.18l-.19.53a.84.84,0,0,0-.42-.12.58.58,0,0,0-.34.11.62.62,0,0,0-.21.31,2.09,2.09,0,0,0-.1.67v1.77Z" transform="translate(0.01 -21.92)"/><path class="cls-5" d="M29,83.12v-.5a1.23,1.23,0,0,1-1.07.57,1.51,1.51,0,0,1-.56-.11,1,1,0,0,1-.38-.29,1.33,1.33,0,0,1-.18-.42,3.48,3.48,0,0,1,0-.54V79.74h.57v1.87a2.79,2.79,0,0,0,0,.61.56.56,0,0,0,.22.35.7.7,0,0,0,.44.13.91.91,0,0,0,.48-.13.79.79,0,0,0,.32-.36,1.86,1.86,0,0,0,.09-.66V79.74h.57v3.38Z" transform="translate(0.01 -21.92)"/><path class="cls-5" d="M30.39,83.12V79.74h.51v.48A1.21,1.21,0,0,1,32,79.67a1.43,1.43,0,0,1,.56.11,1,1,0,0,1,.39.28,1.11,1.11,0,0,1,.17.43,2.34,2.34,0,0,1,0,.55v2.08h-.58V81.06a1.72,1.72,0,0,0-.06-.52.52.52,0,0,0-.24-.27.72.72,0,0,0-.4-.11,1,1,0,0,0-.63.23,1.18,1.18,0,0,0-.26.88v1.85Z" transform="translate(0.01 -21.92)"/><path class="cls-5" d="M34,83.12V79.74h.52v.48a1.19,1.19,0,0,1,1.07-.55,1.47,1.47,0,0,1,.56.11.88.88,0,0,1,.38.28,1,1,0,0,1,.18.43,3.37,3.37,0,0,1,0,.55v2.08h-.57V81.06a1.41,1.41,0,0,0-.07-.52.51.51,0,0,0-.23-.27.77.77,0,0,0-.4-.11.94.94,0,0,0-.63.23,1.14,1.14,0,0,0-.27.88v1.85Z" transform="translate(0.01 -21.92)"/><path class="cls-5" d="M37.62,79.12v-.66h.57v.66Zm0,4V79.74h.57v3.38Z" transform="translate(0.01 -21.92)"/><path class="cls-5" d="M39.06,83.12V79.74h.51v.48a1.22,1.22,0,0,1,1.08-.55,1.47,1.47,0,0,1,.56.11.88.88,0,0,1,.38.28,1.3,1.3,0,0,1,.18.43,3.37,3.37,0,0,1,0,.55v2.08h-.57V81.06a1.41,1.41,0,0,0-.07-.52.51.51,0,0,0-.23-.27.77.77,0,0,0-.4-.11.92.92,0,0,0-.63.23,1.14,1.14,0,0,0-.27.88v1.85Z" transform="translate(0.01 -21.92)"/><path class="cls-5" d="M42.57,83.39l.56.09a.5.5,0,0,0,.19.37.93.93,0,0,0,.58.16,1,1,0,0,0,.61-.16.81.81,0,0,0,.3-.44,3.89,3.89,0,0,0,0-.74,1.17,1.17,0,0,1-.94.45,1.25,1.25,0,0,1-1.07-.51,1.87,1.87,0,0,1-.38-1.2,2.35,2.35,0,0,1,.17-.89,1.46,1.46,0,0,1,.51-.63,1.35,1.35,0,0,1,.78-.22,1.2,1.2,0,0,1,1,.48v-.41h.53v2.92a2.88,2.88,0,0,1-.16,1.11,1.22,1.22,0,0,1-.51.52,1.74,1.74,0,0,1-.86.19,1.61,1.61,0,0,1-1-.27A.91.91,0,0,1,42.57,83.39Zm.47-2a1.46,1.46,0,0,0,.27,1,.83.83,0,0,0,.66.3.85.85,0,0,0,.66-.3,1.4,1.4,0,0,0,.26-1,1.38,1.38,0,0,0-.27-.93.84.84,0,0,0-.66-.32.81.81,0,0,0-.65.31A1.37,1.37,0,0,0,43,81.37Z" transform="translate(0.01 -21.92)"/><path class="cls-5" d="M48.09,83.12V79.74h.52v.51a1.52,1.52,0,0,1,.36-.47.66.66,0,0,1,.36-.11,1.12,1.12,0,0,1,.59.18l-.2.53a.78.78,0,0,0-.41-.12.58.58,0,0,0-.34.11.62.62,0,0,0-.21.31,2.09,2.09,0,0,0-.1.67v1.77Z" transform="translate(0.01 -21.92)"/><path class="cls-5" d="M52.46,82.7a2,2,0,0,1-.61.38,1.9,1.9,0,0,1-.63.11,1.22,1.22,0,0,1-.85-.27.89.89,0,0,1-.3-.69,1,1,0,0,1,.11-.46.92.92,0,0,1,.3-.32,1.11,1.11,0,0,1,.41-.19,4.31,4.31,0,0,1,.5-.09,5.17,5.17,0,0,0,1-.19c0-.08,0-.13,0-.15a.64.64,0,0,0-.17-.5,1,1,0,0,0-.65-.19,1,1,0,0,0-.59.14.86.86,0,0,0-.28.5l-.56-.07a1.29,1.29,0,0,1,.25-.58,1,1,0,0,1,.5-.34,2.26,2.26,0,0,1,.77-.12,2,2,0,0,1,.7.1.83.83,0,0,1,.39.26.79.79,0,0,1,.18.38,3.16,3.16,0,0,1,0,.53v.76a6.89,6.89,0,0,0,0,1,1.25,1.25,0,0,0,.14.41h-.6A1.61,1.61,0,0,1,52.46,82.7Zm-.05-1.28a3.85,3.85,0,0,1-.93.22,2.25,2.25,0,0,0-.5.11.59.59,0,0,0-.22.19.43.43,0,0,0-.08.27.5.5,0,0,0,.17.38.76.76,0,0,0,.51.15,1.21,1.21,0,0,0,.58-.14.86.86,0,0,0,.38-.4,1.38,1.38,0,0,0,.09-.57Z" transform="translate(0.01 -21.92)"/><path class="cls-5" d="M53.88,83.12V79.74h.51v.48a1.21,1.21,0,0,1,1.07-.55,1.43,1.43,0,0,1,.56.11,1,1,0,0,1,.39.28,1.11,1.11,0,0,1,.17.43,3.07,3.07,0,0,1,0,.55v2.08H56V81.06a1.72,1.72,0,0,0-.06-.52.57.57,0,0,0-.24-.27.75.75,0,0,0-.4-.11,1,1,0,0,0-.63.23,1.18,1.18,0,0,0-.26.88v1.85Z" transform="translate(0.01 -21.92)"/><path class="cls-5" d="M57.39,83.39l.55.09a.54.54,0,0,0,.2.37.91.91,0,0,0,.58.16,1,1,0,0,0,.61-.16.8.8,0,0,0,.29-.44,3.89,3.89,0,0,0,0-.74,1.16,1.16,0,0,1-.93.45,1.28,1.28,0,0,1-1.08-.51,1.93,1.93,0,0,1-.38-1.2,2.18,2.18,0,0,1,.18-.89,1.37,1.37,0,0,1,.5-.63,1.35,1.35,0,0,1,.78-.22,1.22,1.22,0,0,1,1,.48v-.41h.52v2.92a2.7,2.7,0,0,1-.16,1.11,1.14,1.14,0,0,1-.5.52,1.76,1.76,0,0,1-.86.19,1.59,1.59,0,0,1-1-.27A.91.91,0,0,1,57.39,83.39Zm.47-2a1.52,1.52,0,0,0,.26,1,.85.85,0,0,0,.66.3.83.83,0,0,0,.66-.3,1.4,1.4,0,0,0,.27-1,1.38,1.38,0,0,0-.27-.93.88.88,0,0,0-.67-.32.79.79,0,0,0-.64.31A1.37,1.37,0,0,0,57.86,81.37Z" transform="translate(0.01 -21.92)"/><path class="cls-5" d="M63.41,82l.59.07a1.42,1.42,0,0,1-.51.81,1.57,1.57,0,0,1-1,.28,1.55,1.55,0,0,1-1.17-.45,1.79,1.79,0,0,1-.43-1.28,1.86,1.86,0,0,1,.43-1.32,1.49,1.49,0,0,1,1.14-.47,1.41,1.41,0,0,1,1.1.46A1.81,1.81,0,0,1,64,81.42v.16H61.51a1.28,1.28,0,0,0,.31.85,1,1,0,0,0,.71.29.88.88,0,0,0,.53-.16A1.05,1.05,0,0,0,63.41,82Zm-1.87-.92h1.88a1.08,1.08,0,0,0-.22-.64.86.86,0,0,0-.7-.33.94.94,0,0,0-.67.26A1.1,1.1,0,0,0,61.54,81.11Z" transform="translate(0.01 -21.92)"/><rect class="繝後Μ_逋ｽ-2" x="22.73" y="98.06" width="41.46" height="16.58"/><path class="cls-5" d="M28.1,124.71l.62.15A2.09,2.09,0,0,1,28,126a1.91,1.91,0,0,1-1.23.4,2.14,2.14,0,0,1-1.22-.31,1.86,1.86,0,0,1-.72-.88A3.1,3.1,0,0,1,24.6,124a2.67,2.67,0,0,1,.28-1.27,1.9,1.9,0,0,1,.79-.82,2.28,2.28,0,0,1,1.13-.28A1.93,1.93,0,0,1,28,122a1.88,1.88,0,0,1,.67,1l-.61.15a1.4,1.4,0,0,0-.47-.74,1.2,1.2,0,0,0-.77-.24,1.52,1.52,0,0,0-.9.26,1.37,1.37,0,0,0-.51.69,3,3,0,0,0-.14.9,2.92,2.92,0,0,0,.17,1,1.24,1.24,0,0,0,.54.66,1.45,1.45,0,0,0,.79.22,1.31,1.31,0,0,0,.87-.3A1.49,1.49,0,0,0,28.1,124.71Z" transform="translate(0.01 -21.92)"/><path class="cls-5" d="M29.19,124.65a1.72,1.72,0,0,1,.52-1.38,1.57,1.57,0,0,1,1.06-.38,1.51,1.51,0,0,1,1.14.46,1.74,1.74,0,0,1,.44,1.26,2.22,2.22,0,0,1-.2,1,1.39,1.39,0,0,1-.57.58,1.63,1.63,0,0,1-.81.21,1.52,1.52,0,0,1-1.14-.46A1.78,1.78,0,0,1,29.19,124.65Zm.59,0a1.41,1.41,0,0,0,.28,1,.89.89,0,0,0,.71.33.91.91,0,0,0,.71-.33,1.8,1.8,0,0,0,0-1.93.9.9,0,0,0-.71-.32.88.88,0,0,0-.71.32A1.39,1.39,0,0,0,29.78,124.65Z" transform="translate(0.01 -21.92)"/><path class="cls-5" d="M33,126.34V123h.51v.48a1.21,1.21,0,0,1,1.07-.56,1.43,1.43,0,0,1,.56.11,1,1,0,0,1,.39.29,1.13,1.13,0,0,1,.17.42,3.51,3.51,0,0,1,0,.56v2.07h-.57v-2a1.67,1.67,0,0,0-.06-.52.6.6,0,0,0-.24-.28.74.74,0,0,0-.4-.1.91.91,0,0,0-.63.23,1.17,1.17,0,0,0-.26.88v1.84Z" transform="translate(0.01 -21.92)"/><path class="cls-5" d="M37.88,125.83l.08.5a1.72,1.72,0,0,1-.43,0,1,1,0,0,1-.48-.09.54.54,0,0,1-.24-.26,2,2,0,0,1-.07-.68v-1.94h-.42V123h.42v-.84l.56-.34V123h.58v.44H37.3v2a1,1,0,0,0,0,.32.27.27,0,0,0,.1.11.37.37,0,0,0,.2,0Z" transform="translate(0.01 -21.92)"/><path class="cls-5" d="M38.44,122.34v-.65H39v.65Zm0,4V123H39v3.37Z" transform="translate(0.01 -21.92)"/><path class="cls-5" d="M39.88,126.34V123h.51v.48a1.23,1.23,0,0,1,1.08-.56A1.47,1.47,0,0,1,42,123a.89.89,0,0,1,.38.29,1.33,1.33,0,0,1,.18.42,3.51,3.51,0,0,1,0,.56v2.07h-.57v-2a1.38,1.38,0,0,0-.07-.52.53.53,0,0,0-.23-.28.77.77,0,0,0-.4-.1.88.88,0,0,0-.63.23,1.13,1.13,0,0,0-.27.88v1.84Z" transform="translate(0.01 -21.92)"/><path class="cls-5" d="M45.71,126.34v-.5a1.25,1.25,0,0,1-1.07.58,1.31,1.31,0,0,1-.56-.12.87.87,0,0,1-.56-.71,3.07,3.07,0,0,1,0-.53V123h.57v1.87a3.41,3.41,0,0,0,0,.6.57.57,0,0,0,.23.35.67.67,0,0,0,.43.13.91.91,0,0,0,.48-.13.7.7,0,0,0,.32-.36,1.84,1.84,0,0,0,.09-.65V123h.58v3.37Z" transform="translate(0.01 -21.92)"/><path class="cls-5" d="M46.9,124.65a1.72,1.72,0,0,1,.52-1.38,1.57,1.57,0,0,1,1.06-.38,1.51,1.51,0,0,1,1.14.46,1.74,1.74,0,0,1,.44,1.26,2.22,2.22,0,0,1-.2,1,1.39,1.39,0,0,1-.57.58,1.63,1.63,0,0,1-.81.21,1.52,1.52,0,0,1-1.14-.46A1.78,1.78,0,0,1,46.9,124.65Zm.59,0a1.41,1.41,0,0,0,.28,1,.89.89,0,0,0,.71.33.91.91,0,0,0,.71-.33,1.8,1.8,0,0,0,0-1.93.9.9,0,0,0-.71-.32.88.88,0,0,0-.71.32A1.39,1.39,0,0,0,47.49,124.65Z" transform="translate(0.01 -21.92)"/><path class="cls-5" d="M52.94,126.34v-.5a1.25,1.25,0,0,1-1.07.58,1.31,1.31,0,0,1-.56-.12.87.87,0,0,1-.56-.71,3.07,3.07,0,0,1,0-.53V123h.57v1.87a3.41,3.41,0,0,0,0,.6.57.57,0,0,0,.23.35.67.67,0,0,0,.43.13.91.91,0,0,0,.48-.13.7.7,0,0,0,.32-.36,1.84,1.84,0,0,0,.09-.65V123h.58v3.37Z" transform="translate(0.01 -21.92)"/><path class="cls-5" d="M54.11,125.33l.57-.09a.84.84,0,0,0,.26.53.94.94,0,0,0,.61.18.91.91,0,0,0,.58-.16.49.49,0,0,0,.19-.38.33.33,0,0,0-.16-.3,2.2,2.2,0,0,0-.59-.2,5.47,5.47,0,0,1-.87-.27,1,1,0,0,1-.37-.32.9.9,0,0,1-.12-.46.8.8,0,0,1,.1-.41.87.87,0,0,1,.28-.32A1.16,1.16,0,0,1,55,123a1.87,1.87,0,0,1,.49-.07,1.9,1.9,0,0,1,.7.12.92.92,0,0,1,.44.31,1.18,1.18,0,0,1,.19.52l-.55.07a.64.64,0,0,0-.22-.4.82.82,0,0,0-.52-.15,1,1,0,0,0-.56.13.4.4,0,0,0-.17.31.31.31,0,0,0,.07.2.53.53,0,0,0,.22.15l.5.15a5.68,5.68,0,0,1,.85.26.94.94,0,0,1,.38.3.83.83,0,0,1,.13.49,1,1,0,0,1-.16.54,1.2,1.2,0,0,1-.49.39,1.76,1.76,0,0,1-.71.14,1.55,1.55,0,0,1-1-.28A1.29,1.29,0,0,1,54.11,125.33Z" transform="translate(0.01 -21.92)"/><path class="cls-5" d="M24.7,134.14v-3.37h.52v.51a1.31,1.31,0,0,1,.36-.47.61.61,0,0,1,.37-.12,1,1,0,0,1,.58.19l-.2.53a.71.71,0,0,0-.41-.13.52.52,0,0,0-.34.12.54.54,0,0,0-.21.31,2,2,0,0,0-.1.66v1.77Z" transform="translate(0.01 -21.92)"/><path class="cls-5" d="M29.08,134.14v-.5a1.24,1.24,0,0,1-1.07.58,1.34,1.34,0,0,1-.56-.12.89.89,0,0,1-.38-.29,1.16,1.16,0,0,1-.18-.42,3.33,3.33,0,0,1,0-.53v-2.09h.57v1.87a3.77,3.77,0,0,0,0,.6.62.62,0,0,0,.23.35.69.69,0,0,0,.43.13.92.92,0,0,0,.49-.13.75.75,0,0,0,.32-.36,1.84,1.84,0,0,0,.09-.65v-1.81h.57v3.37Z" transform="translate(0.01 -21.92)"/><path class="cls-5" d="M30.49,134.14v-3.37H31v.48a1.22,1.22,0,0,1,1.07-.56,1.43,1.43,0,0,1,.56.11,1,1,0,0,1,.39.29,1.13,1.13,0,0,1,.17.42,3.21,3.21,0,0,1,0,.56v2.07h-.58v-2a1.67,1.67,0,0,0-.06-.52.6.6,0,0,0-.24-.28.74.74,0,0,0-.4-.1.91.91,0,0,0-.63.23,1.17,1.17,0,0,0-.26.88v1.84Z" transform="translate(0.01 -21.92)"/><path class="cls-5" d="M34.1,134.14v-3.37h.52v.48a1.2,1.2,0,0,1,1.07-.56,1.47,1.47,0,0,1,.56.11.89.89,0,0,1,.38.29,1,1,0,0,1,.18.42,3.51,3.51,0,0,1,0,.56v2.07h-.57v-2a1.38,1.38,0,0,0-.07-.52.53.53,0,0,0-.23-.28.77.77,0,0,0-.4-.1.88.88,0,0,0-.63.23,1.13,1.13,0,0,0-.27.88v1.84Z" transform="translate(0.01 -21.92)"/><path class="cls-5" d="M37.72,130.14v-.65h.57v.65Zm0,4v-3.37h.57v3.37Z" transform="translate(0.01 -21.92)"/><path class="cls-5" d="M39.16,134.14v-3.37h.52v.48a1.2,1.2,0,0,1,1.07-.56,1.47,1.47,0,0,1,.56.11.89.89,0,0,1,.38.29,1.33,1.33,0,0,1,.18.42,3.51,3.51,0,0,1,0,.56v2.07h-.57v-2a1.38,1.38,0,0,0-.07-.52.5.5,0,0,0-.24-.28.71.71,0,0,0-.39-.1.88.88,0,0,0-.63.23,1.13,1.13,0,0,0-.27.88v1.84Z" transform="translate(0.01 -21.92)"/><path class="cls-5" d="M42.67,134.42l.56.08a.52.52,0,0,0,.19.38A1,1,0,0,0,44,135a1,1,0,0,0,.61-.15.84.84,0,0,0,.3-.45,4.85,4.85,0,0,0,0-.73,1.19,1.19,0,0,1-.94.44,1.27,1.27,0,0,1-1.07-.5,1.91,1.91,0,0,1-.38-1.2,2.4,2.4,0,0,1,.17-.9,1.46,1.46,0,0,1,.51-.63,1.43,1.43,0,0,1,.78-.22,1.22,1.22,0,0,1,1,.48v-.4h.53v2.91a2.9,2.9,0,0,1-.16,1.12,1.22,1.22,0,0,1-.51.52,1.85,1.85,0,0,1-.86.19,1.61,1.61,0,0,1-1-.27A.93.93,0,0,1,42.67,134.42Zm.47-2a1.42,1.42,0,0,0,.27,1,.81.81,0,0,0,.66.31.83.83,0,0,0,.66-.31,1.8,1.8,0,0,0,0-1.88.86.86,0,0,0-1.31,0A1.38,1.38,0,0,0,43.14,132.39Z" transform="translate(0.01 -21.92)"/><path class="cls-5" d="M48.19,134.14v-3.37h.51v.51a1.43,1.43,0,0,1,.37-.47.6.6,0,0,1,.36-.12,1.06,1.06,0,0,1,.59.19l-.2.53a.71.71,0,0,0-.41-.13.52.52,0,0,0-.34.12.54.54,0,0,0-.21.31,2,2,0,0,0-.1.66v1.77Z" transform="translate(0.01 -21.92)"/><path class="cls-5" d="M52.56,133.72a2,2,0,0,1-.61.38,1.68,1.68,0,0,1-.63.12,1.16,1.16,0,0,1-.85-.28.89.89,0,0,1-.3-.69.86.86,0,0,1,.11-.45.87.87,0,0,1,.3-.33,1.55,1.55,0,0,1,.41-.19,3.06,3.06,0,0,1,.5-.08,5,5,0,0,0,1-.2,1.14,1.14,0,0,0,0-.15.62.62,0,0,0-.17-.49.94.94,0,0,0-.65-.19,1,1,0,0,0-.59.14.89.89,0,0,0-.29.5l-.55-.08a1.34,1.34,0,0,1,.25-.58,1,1,0,0,1,.5-.34,2.52,2.52,0,0,1,1.47,0,.92.92,0,0,1,.39.26.79.79,0,0,1,.18.39,3.08,3.08,0,0,1,0,.53v.76a6.72,6.72,0,0,0,0,1,1.17,1.17,0,0,0,.14.41h-.59A1.29,1.29,0,0,1,52.56,133.72Zm-.05-1.27a4.51,4.51,0,0,1-.93.21,2.6,2.6,0,0,0-.5.12.48.48,0,0,0-.3.46.48.48,0,0,0,.17.38.76.76,0,0,0,.51.15,1.11,1.11,0,0,0,.58-.15.84.84,0,0,0,.38-.39,1.41,1.41,0,0,0,.09-.57Z" transform="translate(0.01 -21.92)"/><path class="cls-5" d="M54,134.14v-3.37h.51v.48a1.21,1.21,0,0,1,1.07-.56,1.43,1.43,0,0,1,.56.11,1,1,0,0,1,.39.29,1.13,1.13,0,0,1,.17.42,3.51,3.51,0,0,1,0,.56v2.07h-.57v-2a1.67,1.67,0,0,0-.06-.52.6.6,0,0,0-.24-.28.74.74,0,0,0-.4-.1.91.91,0,0,0-.63.23,1.17,1.17,0,0,0-.26.88v1.84Z" transform="translate(0.01 -21.92)"/><path class="cls-5" d="M57.49,134.42l.55.08a.56.56,0,0,0,.2.38,1,1,0,0,0,.58.15,1.08,1.08,0,0,0,.61-.15.82.82,0,0,0,.29-.45,3.76,3.76,0,0,0,0-.73,1.18,1.18,0,0,1-.93.44,1.3,1.3,0,0,1-1.08-.5,2,2,0,0,1-.38-1.2,2.23,2.23,0,0,1,.18-.9,1.37,1.37,0,0,1,.5-.63,1.43,1.43,0,0,1,.78-.22,1.22,1.22,0,0,1,1,.48v-.4h.52v2.91a2.72,2.72,0,0,1-.16,1.12,1.14,1.14,0,0,1-.5.52,1.88,1.88,0,0,1-.86.19,1.65,1.65,0,0,1-1-.27A1,1,0,0,1,57.49,134.42Zm.47-2a1.48,1.48,0,0,0,.26,1,.83.83,0,0,0,.66.31.82.82,0,0,0,.66-.31,1.77,1.77,0,0,0,0-1.88.87.87,0,0,0-.67-.31.81.81,0,0,0-.64.3A1.38,1.38,0,0,0,58,132.39Z" transform="translate(0.01 -21.92)"/><path class="cls-5" d="M63.51,133.05l.59.08a1.43,1.43,0,0,1-.51.8,1.6,1.6,0,0,1-1,.29,1.56,1.56,0,0,1-1.17-.46,1.77,1.77,0,0,1-.43-1.28,1.89,1.89,0,0,1,.43-1.32,1.51,1.51,0,0,1,1.14-.47,1.45,1.45,0,0,1,1.1.46,1.82,1.82,0,0,1,.43,1.3v.15H61.61a1.28,1.28,0,0,0,.31.85.92.92,0,0,0,.7.3.89.89,0,0,0,.54-.17A1.05,1.05,0,0,0,63.51,133.05Zm-1.87-.92h1.88a1.18,1.18,0,0,0-.22-.64.86.86,0,0,0-.7-.33.9.9,0,0,0-.67.27A1.07,1.07,0,0,0,61.64,132.13Z" transform="translate(0.01 -21.92)"/><path class="cls-5" d="M44.76,150.56l.58-.06a1.32,1.32,0,0,0,.19.58,1,1,0,0,0,.47.36,1.8,1.8,0,0,0,.71.14,1.73,1.73,0,0,0,.63-.11.93.93,0,0,0,.4-.28.76.76,0,0,0,.13-.4.59.59,0,0,0-.13-.39.92.92,0,0,0-.42-.27c-.12,0-.4-.12-.83-.23a4.15,4.15,0,0,1-.89-.29,1.19,1.19,0,0,1-.5-.43,1.06,1.06,0,0,1-.16-.58,1.16,1.16,0,0,1,.2-.66,1.18,1.18,0,0,1,.58-.46,2.15,2.15,0,0,1,.85-.16,2.4,2.4,0,0,1,.92.16,1.35,1.35,0,0,1,.6.5,1.32,1.32,0,0,1,.23.73l-.59,0a1,1,0,0,0-.32-.66,1.24,1.24,0,0,0-.81-.23,1.32,1.32,0,0,0-.82.21.6.6,0,0,0-.25.49.52.52,0,0,0,.18.41,2.39,2.39,0,0,0,.93.33,7.58,7.58,0,0,1,1,.3,1.47,1.47,0,0,1,.6.47,1.19,1.19,0,0,1,.19.67,1.3,1.3,0,0,1-.21.7,1.47,1.47,0,0,1-.61.51,2.19,2.19,0,0,1-.9.18,2.76,2.76,0,0,1-1.06-.18,1.59,1.59,0,0,1-.67-.56A1.56,1.56,0,0,1,44.76,150.56Z" transform="translate(0.01 -21.92)"/><path class="cls-5" d="M49.23,153.34v-4.66h.52v.44a1.29,1.29,0,0,1,.42-.39,1.19,1.19,0,0,1,.56-.13,1.31,1.31,0,0,1,.76.23,1.29,1.29,0,0,1,.5.62,2.39,2.39,0,0,1,0,1.82,1.36,1.36,0,0,1-.54.64,1.42,1.42,0,0,1-.74.22,1.14,1.14,0,0,1-.52-.12,1.25,1.25,0,0,1-.37-.31v1.64Zm.52-3a1.52,1.52,0,0,0,.26,1,.84.84,0,0,0,.64.31.82.82,0,0,0,.65-.33,1.5,1.5,0,0,0,.27-1,1.56,1.56,0,0,0-.26-1,.79.79,0,0,0-1.28,0A1.52,1.52,0,0,0,49.75,150.38Z" transform="translate(0.01 -21.92)"/><path class="cls-5" d="M55.15,151l.59.08a1.43,1.43,0,0,1-.51.8,1.6,1.6,0,0,1-1,.29,1.56,1.56,0,0,1-1.17-.46,1.77,1.77,0,0,1-.44-1.28,1.9,1.9,0,0,1,.44-1.32,1.49,1.49,0,0,1,1.14-.47,1.45,1.45,0,0,1,1.1.46,1.82,1.82,0,0,1,.43,1.3v.15H53.25a1.28,1.28,0,0,0,.31.85.92.92,0,0,0,.7.3.89.89,0,0,0,.54-.17A1,1,0,0,0,55.15,151ZM53.28,150h1.88a1.18,1.18,0,0,0-.22-.64.86.86,0,0,0-.7-.33.9.9,0,0,0-.67.27A1,1,0,0,0,53.28,150Z" transform="translate(0.01 -21.92)"/><path class="cls-5" d="M58.77,151l.59.08a1.5,1.5,0,0,1-.52.8,1.54,1.54,0,0,1-1,.29,1.57,1.57,0,0,1-1.18-.46,1.77,1.77,0,0,1-.43-1.28,1.9,1.9,0,0,1,.44-1.32,1.58,1.58,0,0,1,2.24,0,1.87,1.87,0,0,1,.43,1.3,1,1,0,0,1,0,.15H56.86a1.34,1.34,0,0,0,.31.85.94.94,0,0,0,.71.3.89.89,0,0,0,.54-.17A1.14,1.14,0,0,0,58.77,151ZM56.89,150h1.88a1.1,1.1,0,0,0-.21-.64.88.88,0,0,0-.71-.33.9.9,0,0,0-.66.27A1,1,0,0,0,56.89,150Z" transform="translate(0.01 -21.92)"/><path class="cls-5" d="M62.26,152.05v-.42a1.05,1.05,0,0,1-.94.5,1.3,1.3,0,0,1-.74-.23,1.41,1.41,0,0,1-.53-.62,2.17,2.17,0,0,1-.18-.91,2.29,2.29,0,0,1,.17-.92,1.37,1.37,0,0,1,.5-.63,1.43,1.43,0,0,1,.75-.22,1.21,1.21,0,0,1,.55.13,1.14,1.14,0,0,1,.38.34V147.4h.57v4.65Zm-1.8-1.68a1.5,1.5,0,0,0,.27,1,.83.83,0,0,0,.64.32.82.82,0,0,0,.64-.31,1.43,1.43,0,0,0,.26-.93,1.58,1.58,0,0,0-.27-1,.82.82,0,0,0-1.29,0A1.54,1.54,0,0,0,60.46,150.37Z" transform="translate(0.01 -21.92)"/><path class="cls-5" d="M65.51,153.34V147.4h1.26v.47h-.69v5h.69v.47Z" transform="translate(0.01 -21.92)"/><path class="cls-5" d="M67.3,152.05v-3.37h.51v.51a1.31,1.31,0,0,1,.36-.47.63.63,0,0,1,.37-.12,1.17,1.17,0,0,1,.59.19l-.2.53a.86.86,0,0,0-.42-.13.54.54,0,0,0-.34.12.64.64,0,0,0-.21.31,2.31,2.31,0,0,0-.09.67v1.76Z" transform="translate(0.01 -21.92)"/><path class="cls-5" d="M69,152.13l1.35-4.81h.45l-1.34,4.81Z" transform="translate(0.01 -21.92)"/><path class="cls-5" d="M71.27,152.05v-3.37h.51v.47a1.27,1.27,0,0,1,.43-.4,1.26,1.26,0,0,1,1.21,0,.86.86,0,0,1,.34.43,1.2,1.2,0,0,1,1-.59,1.05,1.05,0,0,1,.77.28,1.2,1.2,0,0,1,.27.86v2.31h-.57v-2.12a1.91,1.91,0,0,0,0-.5.49.49,0,0,0-.21-.24.62.62,0,0,0-.34-.09.79.79,0,0,0-.59.24,1,1,0,0,0-.23.75v2h-.57v-2.19a1,1,0,0,0-.14-.57.54.54,0,0,0-.46-.19.81.81,0,0,0-.45.13.69.69,0,0,0-.29.37,1.82,1.82,0,0,0-.1.7v1.75Z" transform="translate(0.01 -21.92)"/><path class="cls-5" d="M76.69,148.05v-.65h.57v.65Zm0,4v-3.37h.57v3.37Z" transform="translate(0.01 -21.92)"/><path class="cls-5" d="M78.13,152.05v-3.37h.52v.48a1.2,1.2,0,0,1,1.07-.56,1.47,1.47,0,0,1,.56.11.89.89,0,0,1,.38.29,1.33,1.33,0,0,1,.18.42,3.51,3.51,0,0,1,0,.56v2.07H80.3V150a1.38,1.38,0,0,0-.07-.52.53.53,0,0,0-.23-.28.77.77,0,0,0-.4-.1.92.92,0,0,0-.63.23,1.13,1.13,0,0,0-.27.88v1.84Z" transform="translate(0.01 -21.92)"/><path class="cls-5" d="M82.7,153.34H81.44v-.47h.69v-5h-.69v-.47H82.7Z" transform="translate(0.01 -21.92)"/></g></svg>