<svg xmlns="http://www.w3.org/2000/svg" viewBox="0 0 116.6 131.16"><defs><style>.cls-1,.cls-2,.cls-4,.繝医Ν繧ｯ繧ｰ繝ｩ繝廟繧ｰ繝ｬ繝ｼ邱,.邱喟0\.5pt-4{fill:none;}.cls-1,.cls-4,.邱喟0\.5pt-4{stroke:#231815;}.cls-1{stroke-linejoin:round;stroke-width:0.14px;}.cls-2,.繝医Ν繧ｯ繧ｰ繝ｩ繝廟繧ｰ繝ｬ繝ｼ邱{stroke:#9fa0a0;stroke-width:3px;}.cls-2{stroke-linecap:square;}.cls-3{fill:#231815;}.繝後Μ_逋ｽ-2{fill:#fff;}.邱喟0\.5pt-4{stroke-miterlimit:10;stroke-width:0.5px;}</style></defs><g id="Illust"><line class="cls-1" x1="18.45" y1="92.64" x2="109.15" y2="92.64"/><line class="cls-1" x1="18.45" y1="69.98" x2="109.15" y2="69.98"/><line class="cls-1" x1="18.45" y1="47.27" x2="109.15" y2="47.27"/><line class="cls-1" x1="18.45" y1="24.62" x2="109.15" y2="24.62"/><line class="cls-1" x1="45.52" y1="1.91" x2="45.52" y2="115.29"/><line class="cls-1" x1="72.59" y1="1.91" x2="72.59" y2="115.29"/><line class="cls-1" x1="99.67" y1="1.91" x2="99.67" y2="115.29"/><polyline class="繝医Ν繧ｯ繧ｰ繝ｩ繝廟繧ｰ繝ｬ繝ｼ邱" points="18.44 93.68 25.22 93.68 31.98 93.68 45.51 93.68 59.05 93.68 72.58 99.08 86.12 102.34 99.66 104.47 109.14 105.6"/><polyline class="cls-2" points="18.44 28.7 45.51 28.7 60.4 50.45 86.12 78.13 109.14 83.58"/><path class="cls-3" d="M17.24,141.38a3.52,3.52,0,0,1,.13-1,1.28,1.28,0,0,1,.39-.59,1.14,1.14,0,0,1,1.15-.1.9.9,0,0,1,.36.34,1.73,1.73,0,0,1,.23.53,3.72,3.72,0,0,1,.08.84,3.52,3.52,0,0,1-.13,1,1.31,1.31,0,0,1-.39.6,1,1,0,0,1-.65.21,1,1,0,0,1-.81-.37A2.33,2.33,0,0,1,17.24,141.38Zm.45,0a2.25,2.25,0,0,0,.21,1.18.59.59,0,0,0,1,0,2.27,2.27,0,0,0,.2-1.18,2.23,2.23,0,0,0-.2-1.17.63.63,0,0,0-.52-.29.56.56,0,0,0-.48.26A2.24,2.24,0,0,0,17.69,141.38Z" transform="translate(0.01 -22.19)"/><path class="cls-3" d="M42.52,142.73v.42H40.15a.81.81,0,0,1,.05-.31,1.58,1.58,0,0,1,.29-.47,4,4,0,0,1,.58-.54,4.7,4.7,0,0,0,.78-.76.9.9,0,0,0,.21-.53.58.58,0,0,0-.19-.44.65.65,0,0,0-.48-.18.66.66,0,0,0-.51.19.7.7,0,0,0-.19.53l-.46,0a1.12,1.12,0,0,1,.35-.77,1.19,1.19,0,0,1,.82-.26,1.13,1.13,0,0,1,.81.28.94.94,0,0,1,.3.71,1.06,1.06,0,0,1-.09.42,1.51,1.51,0,0,1-.29.44,6.75,6.75,0,0,1-.68.63,6.1,6.1,0,0,0-.5.45,1.33,1.33,0,0,0-.19.24Z" transform="translate(0.01 -22.19)"/><path class="cls-3" d="M43,141.38a3.2,3.2,0,0,1,.13-1,1.14,1.14,0,0,1,.39-.59,1,1,0,0,1,.64-.21,1,1,0,0,1,.51.11,1.06,1.06,0,0,1,.36.34,1.73,1.73,0,0,1,.22.53,3.72,3.72,0,0,1,.08.84,3.2,3.2,0,0,1-.13,1,1.17,1.17,0,0,1-.39.6,1.09,1.09,0,0,1-1.46-.16A2.41,2.41,0,0,1,43,141.38Zm.45,0a2.38,2.38,0,0,0,.2,1.18.62.62,0,0,0,.51.29.6.6,0,0,0,.51-.29,2.25,2.25,0,0,0,.21-1.18,2.2,2.2,0,0,0-.21-1.17.61.61,0,0,0-.51-.29.56.56,0,0,0-.48.26A2.15,2.15,0,0,0,43.47,141.38Z" transform="translate(0.01 -22.19)"/><path class="cls-3" d="M45.77,141.38a3.2,3.2,0,0,1,.13-1,1.28,1.28,0,0,1,.39-.59,1,1,0,0,1,.65-.21,1,1,0,0,1,.5.11.9.9,0,0,1,.36.34,1.73,1.73,0,0,1,.22.53A4.23,4.23,0,0,1,48,142.4a1.22,1.22,0,0,1-.38.6,1,1,0,0,1-.65.21,1,1,0,0,1-.82-.37A2.41,2.41,0,0,1,45.77,141.38Zm.45,0a2.25,2.25,0,0,0,.21,1.18.58.58,0,0,0,1,0,2.25,2.25,0,0,0,.21-1.18,2.2,2.2,0,0,0-.21-1.17.6.6,0,0,0-.51-.29.56.56,0,0,0-.48.26A2.24,2.24,0,0,0,46.22,141.38Z" transform="translate(0.01 -22.19)"/><path class="cls-3" d="M48.58,141.38a3.2,3.2,0,0,1,.13-1,1.28,1.28,0,0,1,.39-.59,1.14,1.14,0,0,1,1.15-.1.9.9,0,0,1,.36.34,1.73,1.73,0,0,1,.22.53,4.23,4.23,0,0,1,0,1.86,1.22,1.22,0,0,1-.38.6,1,1,0,0,1-.65.21,1,1,0,0,1-.82-.37A2.41,2.41,0,0,1,48.58,141.38Zm.45,0a2.25,2.25,0,0,0,.21,1.18.58.58,0,0,0,1,0,2.25,2.25,0,0,0,.21-1.18,2.2,2.2,0,0,0-.21-1.17.6.6,0,0,0-.51-.29.56.56,0,0,0-.48.26A2.24,2.24,0,0,0,49,141.38Z" transform="translate(0.01 -22.19)"/><path class="cls-3" d="M68.79,143.15v-.86H67.24v-.4l1.63-2.32h.36v2.32h.48v.4h-.48v.86Zm0-1.26v-1.61l-1.12,1.61Z" transform="translate(0.01 -22.19)"/><path class="cls-3" d="M70.19,141.38a3.52,3.52,0,0,1,.13-1,1.28,1.28,0,0,1,.39-.59,1.14,1.14,0,0,1,1.15-.1.9.9,0,0,1,.36.34,1.73,1.73,0,0,1,.23.53,3.72,3.72,0,0,1,.08.84,3.52,3.52,0,0,1-.13,1,1.31,1.31,0,0,1-.39.6,1,1,0,0,1-.65.21,1,1,0,0,1-.81-.37A2.33,2.33,0,0,1,70.19,141.38Zm.45,0a2.25,2.25,0,0,0,.21,1.18.59.59,0,0,0,1,0,2.27,2.27,0,0,0,.2-1.18,2.23,2.23,0,0,0-.2-1.17.63.63,0,0,0-.52-.29.56.56,0,0,0-.48.26A2.24,2.24,0,0,0,70.64,141.38Z" transform="translate(0.01 -22.19)"/><path class="cls-3" d="M72.94,141.38a3.52,3.52,0,0,1,.13-1,1.28,1.28,0,0,1,.39-.59,1,1,0,0,1,.65-.21,1.06,1.06,0,0,1,.51.11A1,1,0,0,1,75,140a1.73,1.73,0,0,1,.23.53,3.72,3.72,0,0,1,.08.84,3.52,3.52,0,0,1-.13,1,1.31,1.31,0,0,1-.39.6,1,1,0,0,1-.65.21,1,1,0,0,1-.81-.37A2.33,2.33,0,0,1,72.94,141.38Zm.45,0a2.25,2.25,0,0,0,.21,1.18.59.59,0,0,0,1,0,2.25,2.25,0,0,0,.21-1.18,2.2,2.2,0,0,0-.21-1.17.63.63,0,0,0-.52-.29.56.56,0,0,0-.48.26A2.24,2.24,0,0,0,73.39,141.38Z" transform="translate(0.01 -22.19)"/><path class="cls-3" d="M75.75,141.38a3.52,3.52,0,0,1,.13-1,1.28,1.28,0,0,1,.39-.59,1,1,0,0,1,.65-.21,1.06,1.06,0,0,1,.51.11,1,1,0,0,1,.35.34,1.73,1.73,0,0,1,.23.53,3.72,3.72,0,0,1,.08.84,3.52,3.52,0,0,1-.13,1,1.31,1.31,0,0,1-.39.6,1,1,0,0,1-.65.21,1,1,0,0,1-.81-.37A2.33,2.33,0,0,1,75.75,141.38Zm.46,0a2.27,2.27,0,0,0,.2,1.18.59.59,0,0,0,1,0,2.25,2.25,0,0,0,.21-1.18,2.2,2.2,0,0,0-.21-1.17.62.62,0,0,0-.51-.29.57.57,0,0,0-.49.26A2.26,2.26,0,0,0,76.21,141.38Z" transform="translate(0.01 -22.19)"/><path class="cls-3" d="M96.12,140.45l-.43,0a.8.8,0,0,0-.17-.37.56.56,0,0,0-.44-.19.67.67,0,0,0-.37.11,1,1,0,0,0-.32.45,2.19,2.19,0,0,0-.13.82,1,1,0,0,1,.39-.35,1,1,0,0,1,.48-.12,1,1,0,0,1,.75.32,1.21,1.21,0,0,1,.31.84,1.32,1.32,0,0,1-.15.62,1,1,0,0,1-1,.6,1.12,1.12,0,0,1-.9-.4,2.07,2.07,0,0,1-.35-1.34,2.32,2.32,0,0,1,.39-1.5,1.08,1.08,0,0,1,.9-.41.94.94,0,0,1,1,.89ZM94.33,142a.91.91,0,0,0,.1.43.7.7,0,0,0,.63.43.65.65,0,0,0,.48-.23.9.9,0,0,0,.2-.61.83.83,0,0,0-.2-.58.7.7,0,0,0-1,0A.76.76,0,0,0,94.33,142Z" transform="translate(0.01 -22.19)"/><path class="cls-3" d="M96.65,141.38a3.52,3.52,0,0,1,.13-1,1.28,1.28,0,0,1,.39-.59,1,1,0,0,1,.65-.21.95.95,0,0,1,.87.45,2,2,0,0,1,.22.53,3.72,3.72,0,0,1,.08.84,3.52,3.52,0,0,1-.13,1,1.31,1.31,0,0,1-.39.6,1,1,0,0,1-.65.21,1,1,0,0,1-.81-.37A2.33,2.33,0,0,1,96.65,141.38Zm.46,0a2.27,2.27,0,0,0,.2,1.18.59.59,0,0,0,1,0,2.25,2.25,0,0,0,.21-1.18,2.2,2.2,0,0,0-.21-1.17.62.62,0,0,0-.51-.29.57.57,0,0,0-.49.26A2.26,2.26,0,0,0,97.11,141.38Z" transform="translate(0.01 -22.19)"/><path class="cls-3" d="M99.4,141.38a3.17,3.17,0,0,1,.14-1,1.19,1.19,0,0,1,.38-.59,1,1,0,0,1,.65-.21.95.95,0,0,1,.87.45,2,2,0,0,1,.22.53,3.72,3.72,0,0,1,.08.84,3.2,3.2,0,0,1-.13,1,1.31,1.31,0,0,1-.39.6,1,1,0,0,1-.65.21,1,1,0,0,1-.81-.37A2.33,2.33,0,0,1,99.4,141.38Zm.46,0a2.38,2.38,0,0,0,.2,1.18.59.59,0,0,0,1,0,2.25,2.25,0,0,0,.21-1.18,2.2,2.2,0,0,0-.21-1.17.62.62,0,0,0-.51-.29.58.58,0,0,0-.49.26A2.26,2.26,0,0,0,99.86,141.38Z" transform="translate(0.01 -22.19)"/><path class="cls-3" d="M102.22,141.38a3.2,3.2,0,0,1,.13-1,1.19,1.19,0,0,1,.38-.59,1,1,0,0,1,.65-.21.95.95,0,0,1,.87.45,1.73,1.73,0,0,1,.22.53,3.72,3.72,0,0,1,.08.84,3.2,3.2,0,0,1-.13,1,1.31,1.31,0,0,1-.39.6,1,1,0,0,1-.65.21,1,1,0,0,1-.81-.37A2.34,2.34,0,0,1,102.22,141.38Zm.45,0a2.38,2.38,0,0,0,.2,1.18.59.59,0,0,0,1,0,2.25,2.25,0,0,0,.21-1.18,2.2,2.2,0,0,0-.21-1.17.62.62,0,0,0-.51-.29.58.58,0,0,0-.49.26A2.26,2.26,0,0,0,102.67,141.38Z" transform="translate(0.01 -22.19)"/><polyline class="cls-4" points="18.44 93.68 25.22 93.68 31.98 93.68 45.51 93.68 59.05 93.68 72.58 99.08 86.12 102.34 99.66 104.47 109.14 105.6"/><polyline class="cls-4" points="18.44 28.7 37.4 28.7 52.29 50.34 86.12 87.22 109.14 91.28"/><rect class="繝後Μ_逋ｽ-2" x="109.15" y="1.91" width="2.83" height="113.39"/><rect class="繝後Μ_逋ｽ-2" x="15.6" y="1.91" width="2.83" height="113.39"/><path class="cls-3" d="M10.23,137.41a3.2,3.2,0,0,1,.13-1,1.28,1.28,0,0,1,.39-.59,1.14,1.14,0,0,1,1.15-.1.9.9,0,0,1,.36.34,1.51,1.51,0,0,1,.22.53,4.23,4.23,0,0,1-.05,1.86,1.22,1.22,0,0,1-.38.6,1.1,1.1,0,0,1-1.47-.16A2.41,2.41,0,0,1,10.23,137.41Zm.45,0a2.25,2.25,0,0,0,.21,1.18.59.59,0,0,0,1,0,2.38,2.38,0,0,0,.2-1.18,2.31,2.31,0,0,0-.2-1.17.63.63,0,0,0-.52-.29.54.54,0,0,0-.48.26A2.24,2.24,0,0,0,10.68,137.41Z" transform="translate(0.01 -22.19)"/><path class="cls-3" d="M13.29,139.18v-.5h.5v.5Z" transform="translate(0.01 -22.19)"/><path class="cls-3" d="M14.44,137.41a3.2,3.2,0,0,1,.13-1,1.19,1.19,0,0,1,.38-.59,1,1,0,0,1,.65-.21.95.95,0,0,1,.87.45,2,2,0,0,1,.22.53,3.72,3.72,0,0,1,.08.84,3.2,3.2,0,0,1-.13,1,1.31,1.31,0,0,1-.39.6,1,1,0,0,1-.65.21,1,1,0,0,1-.81-.37A2.34,2.34,0,0,1,14.44,137.41Zm.45,0a2.38,2.38,0,0,0,.2,1.18.59.59,0,0,0,1,0,2.25,2.25,0,0,0,.21-1.18,2.18,2.18,0,0,0-.21-1.17.62.62,0,0,0-.51-.29.56.56,0,0,0-.49.26A2.26,2.26,0,0,0,14.89,137.41Z" transform="translate(0.01 -22.19)"/><path class="cls-3" d="M10.23,114.73a3.2,3.2,0,0,1,.13-1,1.31,1.31,0,0,1,.39-.6A1.11,1.11,0,0,1,11.9,113a1,1,0,0,1,.36.33,1.65,1.65,0,0,1,.22.54,4.23,4.23,0,0,1-.05,1.86,1.22,1.22,0,0,1-.38.6,1.1,1.1,0,0,1-1.47-.16A2.43,2.43,0,0,1,10.23,114.73Zm.45,0a2.25,2.25,0,0,0,.21,1.18.62.62,0,0,0,.51.29.61.61,0,0,0,.51-.3,3.52,3.52,0,0,0,0-2.34.6.6,0,0,0-.52-.29.56.56,0,0,0-.48.25A2.31,2.31,0,0,0,10.68,114.73Z" transform="translate(0.01 -22.19)"/><path class="cls-3" d="M13.29,116.5V116h.5v.5Z" transform="translate(0.01 -22.19)"/><path class="cls-3" d="M14.44,115.56l.46,0a.84.84,0,0,0,.23.51.71.71,0,0,0,1-.07.89.89,0,0,0,.22-.64.82.82,0,0,0-.21-.59.75.75,0,0,0-.55-.22.87.87,0,0,0-.39.1.69.69,0,0,0-.26.25l-.42,0,.35-1.84h1.78v.42H15.21l-.19,1a1.15,1.15,0,0,1,.67-.23,1.08,1.08,0,0,1,.8.33,1.15,1.15,0,0,1,.32.83,1.28,1.28,0,0,1-.29.84,1.12,1.12,0,0,1-.94.44,1.15,1.15,0,0,1-.79-.27A1,1,0,0,1,14.44,115.56Z" transform="translate(0.01 -22.19)"/><path class="cls-3" d="M11.89,93.82h-.44V91a2.54,2.54,0,0,1-.42.3,3.27,3.27,0,0,1-.46.23v-.43a2.37,2.37,0,0,0,.64-.42,1.45,1.45,0,0,0,.39-.47h.29Z" transform="translate(0.01 -22.19)"/><path class="cls-3" d="M13.29,93.82v-.5h.5v.5Z" transform="translate(0.01 -22.19)"/><path class="cls-3" d="M14.44,92.05a3.2,3.2,0,0,1,.13-1,1.19,1.19,0,0,1,.38-.59,1,1,0,0,1,.65-.21.95.95,0,0,1,.87.45,2,2,0,0,1,.22.53,3.72,3.72,0,0,1,.08.84,3.2,3.2,0,0,1-.13,1,1.31,1.31,0,0,1-.39.6,1,1,0,0,1-.65.21,1,1,0,0,1-.81-.37A2.34,2.34,0,0,1,14.44,92.05Zm.45,0a2.38,2.38,0,0,0,.2,1.18.59.59,0,0,0,1,0,2.25,2.25,0,0,0,.21-1.18,2.2,2.2,0,0,0-.21-1.17.62.62,0,0,0-.51-.29.58.58,0,0,0-.49.26A2.26,2.26,0,0,0,14.89,92.05Z" transform="translate(0.01 -22.19)"/><path class="cls-3" d="M11.89,71.14h-.44v-2.8a2.54,2.54,0,0,1-.42.3,3.27,3.27,0,0,1-.46.23v-.42a3,3,0,0,0,.64-.42,1.58,1.58,0,0,0,.39-.48h.29Z" transform="translate(0.01 -22.19)"/><path class="cls-3" d="M13.29,71.14v-.5h.5v.5Z" transform="translate(0.01 -22.19)"/><path class="cls-3" d="M14.44,70.2l.46,0a.81.81,0,0,0,.23.51.71.71,0,0,0,1-.07.88.88,0,0,0,.22-.63.84.84,0,0,0-.21-.6.74.74,0,0,0-.55-.21.86.86,0,0,0-.39.09.78.78,0,0,0-.26.25l-.42,0,.35-1.84h1.78V68H15.21L15,69a1.14,1.14,0,0,1,.67-.22,1.11,1.11,0,0,1,.8.32,1.17,1.17,0,0,1,.32.84,1.32,1.32,0,0,1-.29.84,1.11,1.11,0,0,1-.94.43,1.15,1.15,0,0,1-.79-.27A1,1,0,0,1,14.44,70.2Z" transform="translate(0.01 -22.19)"/><path class="cls-3" d="M12.54,48v.42H10.17a.77.77,0,0,1,.06-.3,1.71,1.71,0,0,1,.28-.48,4.54,4.54,0,0,1,.58-.54,4.87,4.87,0,0,0,.79-.76,1,1,0,0,0,.2-.53.6.6,0,0,0-.18-.44.69.69,0,0,0-.49-.18.73.73,0,0,0-.51.19.72.72,0,0,0-.19.53l-.45-.05a1.09,1.09,0,0,1,.35-.77,1.21,1.21,0,0,1,.81-.26,1.13,1.13,0,0,1,.81.28.94.94,0,0,1,.3.71,1,1,0,0,1-.08.42,1.75,1.75,0,0,1-.29.44c-.14.15-.37.36-.68.63a5.24,5.24,0,0,0-.51.45,2,2,0,0,0-.19.24Z" transform="translate(0.01 -22.19)"/><path class="cls-3" d="M13.29,48.46V48h.5v.5Z" transform="translate(0.01 -22.19)"/><path class="cls-3" d="M14.44,46.7a3.12,3.12,0,0,1,.13-1,1.22,1.22,0,0,1,.38-.6,1,1,0,0,1,.65-.21,1.19,1.19,0,0,1,.51.11,1.06,1.06,0,0,1,.36.34,2,2,0,0,1,.22.53,3.76,3.76,0,0,1,.08.85,3.09,3.09,0,0,1-.13,1,1.31,1.31,0,0,1-.39.6,1,1,0,0,1-.65.21,1,1,0,0,1-.81-.37A2.33,2.33,0,0,1,14.44,46.7Zm.45,0a2.34,2.34,0,0,0,.2,1.17.59.59,0,0,0,1,0,3.39,3.39,0,0,0,0-2.35.62.62,0,0,0-.51-.29.58.58,0,0,0-.49.26A2.3,2.3,0,0,0,14.89,46.7Z" transform="translate(0.01 -22.19)"/><path class="cls-3" d="M12.54,25.36v.42H10.17a.73.73,0,0,1,.06-.3,1.58,1.58,0,0,1,.28-.48,4.54,4.54,0,0,1,.58-.54,4.87,4.87,0,0,0,.79-.76,1,1,0,0,0,.2-.53.6.6,0,0,0-.18-.44.77.77,0,0,0-1,0,.7.7,0,0,0-.19.53l-.45-.05a1.08,1.08,0,0,1,.35-.77,1.21,1.21,0,0,1,.81-.26,1.13,1.13,0,0,1,.81.28.94.94,0,0,1,.3.71,1,1,0,0,1-.08.42,1.75,1.75,0,0,1-.29.44c-.14.15-.37.36-.68.63a5.24,5.24,0,0,0-.51.45,2,2,0,0,0-.19.24Z" transform="translate(0.01 -22.19)"/><path class="cls-3" d="M13.29,25.78v-.5h.5v.5Z" transform="translate(0.01 -22.19)"/><path class="cls-3" d="M14.44,24.84l.46,0a.81.81,0,0,0,.23.51.71.71,0,0,0,1-.07.88.88,0,0,0,.22-.63.84.84,0,0,0-.21-.6.74.74,0,0,0-.55-.21.86.86,0,0,0-.39.09.78.78,0,0,0-.26.25l-.42-.05.35-1.84h1.78v.42H15.21l-.19,1a1.14,1.14,0,0,1,.67-.22,1.11,1.11,0,0,1,.8.32,1.17,1.17,0,0,1,.32.84,1.32,1.32,0,0,1-.29.84,1.11,1.11,0,0,1-.94.43,1.15,1.15,0,0,1-.79-.27A1,1,0,0,1,14.44,24.84Z" transform="translate(0.01 -22.19)"/><rect class="邱喟0.5pt-4" x="18.44" y="1.91" width="90.71" height="113.39"/><path class="cls-3" d="M108.19,140.45l-.44,0a.8.8,0,0,0-.17-.37.56.56,0,0,0-.44-.19.67.67,0,0,0-.37.11,1.11,1.11,0,0,0-.32.45,2.41,2.41,0,0,0-.13.82,1,1,0,0,1,.39-.35,1,1,0,0,1,1.23.2,1.16,1.16,0,0,1,.31.84,1.32,1.32,0,0,1-.15.62,1.08,1.08,0,0,1-.39.45,1.14,1.14,0,0,1-.58.15,1.12,1.12,0,0,1-.9-.4,2.07,2.07,0,0,1-.34-1.34,2.33,2.33,0,0,1,.38-1.5,1.08,1.08,0,0,1,.9-.41,1,1,0,0,1,.69.23A1,1,0,0,1,108.19,140.45Zm-1.8,1.54a.91.91,0,0,0,.1.43.7.7,0,0,0,.63.43.62.62,0,0,0,.48-.23.9.9,0,0,0,.2-.61.83.83,0,0,0-.2-.58.66.66,0,0,0-.5-.21.69.69,0,0,0-.5.21A.76.76,0,0,0,106.39,142Z" transform="translate(0.01 -22.19)"/><path class="cls-3" d="M108.72,140v-.42H111V140a4.77,4.77,0,0,0-.68,1,5.79,5.79,0,0,0-.51,1.24,4.17,4.17,0,0,0-.17,1h-.45a4.4,4.4,0,0,1,.16-1,5.42,5.42,0,0,1,.46-1.15,5.11,5.11,0,0,1,.63-.94Z" transform="translate(0.01 -22.19)"/><path class="cls-3" d="M111.47,141.38a3.2,3.2,0,0,1,.13-1,1.2,1.2,0,0,1,.39-.59,1,1,0,0,1,.64-.21,1,1,0,0,1,.51.11,1.06,1.06,0,0,1,.36.34,1.73,1.73,0,0,1,.22.53,3.72,3.72,0,0,1,.08.84,3.2,3.2,0,0,1-.13,1,1.22,1.22,0,0,1-.38.6,1,1,0,0,1-.66.21,1,1,0,0,1-.81-.37A2.41,2.41,0,0,1,111.47,141.38Zm.45,0a2.38,2.38,0,0,0,.2,1.18.62.62,0,0,0,.51.29.6.6,0,0,0,.51-.29,2.25,2.25,0,0,0,.21-1.18,2.2,2.2,0,0,0-.21-1.17.61.61,0,0,0-.51-.29.56.56,0,0,0-.48.26A2.15,2.15,0,0,0,111.92,141.38Z" transform="translate(0.01 -22.19)"/><path class="cls-3" d="M114.25,141.38a3.2,3.2,0,0,1,.13-1,1.28,1.28,0,0,1,.39-.59,1,1,0,0,1,.65-.21,1,1,0,0,1,.5.11.9.9,0,0,1,.36.34,1.73,1.73,0,0,1,.22.53,4.23,4.23,0,0,1,0,1.86,1.22,1.22,0,0,1-.38.6,1,1,0,0,1-.65.21,1,1,0,0,1-.82-.37A2.41,2.41,0,0,1,114.25,141.38Zm.45,0a2.25,2.25,0,0,0,.21,1.18.58.58,0,0,0,1,0,2.25,2.25,0,0,0,.21-1.18,2.2,2.2,0,0,0-.21-1.17.6.6,0,0,0-.51-.29.56.56,0,0,0-.48.26A2.24,2.24,0,0,0,114.7,141.38Z" transform="translate(0.01 -22.19)"/></g><g id="English"><rect class="繝後Μ_逋ｽ-2" x="19.15" y="68.81" width="47.91" height="16.72"/><path class="cls-3" d="M22.34,95.88l.58,0a1.33,1.33,0,0,0,.2.57,1.07,1.07,0,0,0,.47.37,1.76,1.76,0,0,0,.71.13,1.72,1.72,0,0,0,.62-.1.89.89,0,0,0,.4-.29.67.67,0,0,0,0-.78,1,1,0,0,0-.42-.27,7.21,7.21,0,0,0-.83-.23,4.09,4.09,0,0,1-.9-.29,1.23,1.23,0,0,1-.49-.43,1.09,1.09,0,0,1-.17-.58,1.19,1.19,0,0,1,.2-.66,1.27,1.27,0,0,1,.59-.47,2.3,2.3,0,0,1,.85-.16,2.34,2.34,0,0,1,.91.17,1.31,1.31,0,0,1,.61.49,1.43,1.43,0,0,1,.23.73l-.59,0a1,1,0,0,0-.32-.67,1.29,1.29,0,0,0-.82-.22,1.34,1.34,0,0,0-.81.2.62.62,0,0,0-.25.5.54.54,0,0,0,.18.41,2.32,2.32,0,0,0,.92.33,5,5,0,0,1,1,.3,1.28,1.28,0,0,1,.6.47,1.14,1.14,0,0,1,.2.66,1.27,1.27,0,0,1-.21.7,1.43,1.43,0,0,1-.62.51,2.11,2.11,0,0,1-.89.19,2.72,2.72,0,0,1-1.06-.19,1.46,1.46,0,0,1-.67-.55A1.63,1.63,0,0,1,22.34,95.88Z" transform="translate(0.01 -22.19)"/><path class="cls-3" d="M26.82,97.38V92.72h.57v1.67a1.26,1.26,0,0,1,1-.46,1.36,1.36,0,0,1,.65.15.89.89,0,0,1,.39.4,1.91,1.91,0,0,1,.12.76v2.14H29V95.24a.84.84,0,0,0-.19-.62.67.67,0,0,0-.52-.2,1,1,0,0,0-.48.13.79.79,0,0,0-.32.36,1.73,1.73,0,0,0-.09.62v1.85Z" transform="translate(0.01 -22.19)"/><path class="cls-3" d="M30.22,95.69a1.74,1.74,0,0,1,.52-1.39,1.56,1.56,0,0,1,1.06-.37,1.51,1.51,0,0,1,1.14.46,1.73,1.73,0,0,1,.44,1.25,2.24,2.24,0,0,1-.2,1,1.39,1.39,0,0,1-.57.58,1.73,1.73,0,0,1-.81.2A1.51,1.51,0,0,1,30.66,97,1.78,1.78,0,0,1,30.22,95.69Zm.59,0a1.42,1.42,0,0,0,.28,1,.88.88,0,0,0,.71.32.9.9,0,0,0,.71-.32,1.48,1.48,0,0,0,.28-1,1.42,1.42,0,0,0-.29-1,.89.89,0,0,0-.7-.32.91.91,0,0,0-.71.32A1.44,1.44,0,0,0,30.81,95.69Z" transform="translate(0.01 -22.19)"/><path class="cls-3" d="M34,97.38V94h.51v.51a1.62,1.62,0,0,1,.37-.48.66.66,0,0,1,.36-.11,1.12,1.12,0,0,1,.59.18l-.2.53a.83.83,0,0,0-.41-.12.58.58,0,0,0-.34.11.6.6,0,0,0-.21.32,2,2,0,0,0-.1.66v1.77Z" transform="translate(0.01 -22.19)"/><path class="cls-3" d="M37.46,96.87l.08.5a2.37,2.37,0,0,1-.43,0,.9.9,0,0,1-.48-.1.47.47,0,0,1-.24-.26,1.9,1.9,0,0,1-.07-.67V94.45H35.9V94h.42v-.84l.56-.34V94h.58v.44h-.58v2a1.08,1.08,0,0,0,0,.32.35.35,0,0,0,.1.11.5.5,0,0,0,.2,0Z" transform="translate(0.01 -22.19)"/><path class="cls-3" d="M37.79,96v-.57h1.76V96Z" transform="translate(0.01 -22.19)"/><path class="cls-3" d="M42.37,97.38V97a1,1,0,0,1-.94.5,1.34,1.34,0,0,1-.75-.22,1.45,1.45,0,0,1-.52-.62,2.22,2.22,0,0,1-.19-.92,2.42,2.42,0,0,1,.17-.91,1.34,1.34,0,0,1,.51-.63,1.3,1.3,0,0,1,.75-.22,1.08,1.08,0,0,1,.54.13,1.14,1.14,0,0,1,.39.33V92.72h.57v4.66Zm-1.81-1.69a1.46,1.46,0,0,0,.27,1,.83.83,0,0,0,1.29,0,1.46,1.46,0,0,0,.26-.94,1.54,1.54,0,0,0-.27-1,.82.82,0,0,0-.66-.33.81.81,0,0,0-.63.31A1.55,1.55,0,0,0,40.56,95.69Z" transform="translate(0.01 -22.19)"/><path class="cls-3" d="M46,97.38v-.5a1.25,1.25,0,0,1-1.07.57,1.47,1.47,0,0,1-.56-.11,1,1,0,0,1-.39-.29,1.06,1.06,0,0,1-.17-.42,2.4,2.4,0,0,1,0-.54V94h.57v1.86a3.55,3.55,0,0,0,0,.61.57.57,0,0,0,.23.35.67.67,0,0,0,.43.13.91.91,0,0,0,.48-.13.74.74,0,0,0,.32-.36,1.86,1.86,0,0,0,.09-.66V94h.58v3.37Z" transform="translate(0.01 -22.19)"/><path class="cls-3" d="M47.4,97.38V94h.52v.51a1.47,1.47,0,0,1,.36-.48.7.7,0,0,1,.37-.11,1.15,1.15,0,0,1,.59.18l-.2.53a.84.84,0,0,0-.42-.12.56.56,0,0,0-.55.43,2.29,2.29,0,0,0-.09.66v1.77Z" transform="translate(0.01 -22.19)"/><path class="cls-3" d="M51.78,97a2.12,2.12,0,0,1-.62.38,1.61,1.61,0,0,1-.63.11,1.22,1.22,0,0,1-.85-.27.89.89,0,0,1-.3-.69,1,1,0,0,1,.41-.78,1.18,1.18,0,0,1,.41-.19,4.17,4.17,0,0,1,.51-.09,5.49,5.49,0,0,0,1-.19v-.15a.61.61,0,0,0-.16-.49,1,1,0,0,0-.65-.2,1.06,1.06,0,0,0-.6.14A.92.92,0,0,0,50,95L49.48,95a1.34,1.34,0,0,1,.25-.58,1.12,1.12,0,0,1,.51-.34,2.2,2.2,0,0,1,.76-.12,2,2,0,0,1,.7.1.93.93,0,0,1,.4.26,1,1,0,0,1,.18.39,2.94,2.94,0,0,1,0,.52V96a9.75,9.75,0,0,0,0,1,1.27,1.27,0,0,0,.15.41h-.6A1.08,1.08,0,0,1,51.78,97Zm-.05-1.28a4,4,0,0,1-.94.22,2,2,0,0,0-.49.11.55.55,0,0,0-.23.19.5.5,0,0,0,.09.65.78.78,0,0,0,.51.15,1.15,1.15,0,0,0,.59-.14,1,1,0,0,0,.38-.39,1.43,1.43,0,0,0,.09-.58Z" transform="translate(0.01 -22.19)"/><path class="cls-3" d="M54.44,96.87l.08.5a2.37,2.37,0,0,1-.43,0,.9.9,0,0,1-.48-.1.47.47,0,0,1-.24-.26,1.9,1.9,0,0,1-.07-.67V94.45h-.42V94h.42v-.84l.56-.34V94h.58v.44h-.58v2a1.08,1.08,0,0,0,0,.32.35.35,0,0,0,.1.11.5.5,0,0,0,.2,0Z" transform="translate(0.01 -22.19)"/><path class="cls-3" d="M55,93.38v-.66h.57v.66Zm0,4V94h.57v3.37Z" transform="translate(0.01 -22.19)"/><path class="cls-3" d="M56.23,95.69a1.74,1.74,0,0,1,.52-1.39,1.56,1.56,0,0,1,1.06-.37,1.48,1.48,0,0,1,1.13.46,1.69,1.69,0,0,1,.45,1.25,2.24,2.24,0,0,1-.2,1,1.39,1.39,0,0,1-.57.58,1.73,1.73,0,0,1-.81.2A1.55,1.55,0,0,1,56.66,97,1.82,1.82,0,0,1,56.23,95.69Zm.59,0a1.42,1.42,0,0,0,.28,1,.88.88,0,0,0,.71.32.9.9,0,0,0,.71-.32,1.54,1.54,0,0,0,.28-1,1.42,1.42,0,0,0-.29-1,.89.89,0,0,0-.7-.32.91.91,0,0,0-.71.32A1.44,1.44,0,0,0,56.82,95.69Z" transform="translate(0.01 -22.19)"/><path class="cls-3" d="M60.06,97.38V94h.51v.47a1.23,1.23,0,0,1,1.07-.55,1.43,1.43,0,0,1,.56.11.91.91,0,0,1,.39.29,1.13,1.13,0,0,1,.17.42,3.37,3.37,0,0,1,0,.55v2.08h-.57v-2a1.75,1.75,0,0,0-.06-.53.62.62,0,0,0-.24-.27.74.74,0,0,0-.4-.1.91.91,0,0,0-.63.23,1.15,1.15,0,0,0-.26.88v1.84Z" transform="translate(0.01 -22.19)"/><path class="cls-3" d="M22.47,105.18v-3.37H23v.51a1.47,1.47,0,0,1,.36-.48.7.7,0,0,1,.37-.11,1.15,1.15,0,0,1,.59.18l-.2.53a.84.84,0,0,0-.42-.12.58.58,0,0,0-.34.11.6.6,0,0,0-.21.32,2.29,2.29,0,0,0-.09.66v1.77Z" transform="translate(0.01 -22.19)"/><path class="cls-3" d="M26.85,105.18v-.5a1.22,1.22,0,0,1-1.07.57,1.46,1.46,0,0,1-.55-.11,1,1,0,0,1-.39-.29,1.06,1.06,0,0,1-.17-.42,2.4,2.4,0,0,1,0-.54v-2.08h.57v1.86a3.55,3.55,0,0,0,0,.61.54.54,0,0,0,.23.35.67.67,0,0,0,.43.13.91.91,0,0,0,.48-.13.74.74,0,0,0,.32-.36,1.86,1.86,0,0,0,.09-.66v-1.8h.58v3.37Z" transform="translate(0.01 -22.19)"/><path class="cls-3" d="M28.26,105.18v-3.37h.51v.47a1.24,1.24,0,0,1,1.08-.55,1.47,1.47,0,0,1,.56.11.82.82,0,0,1,.38.29,1.33,1.33,0,0,1,.18.42,3.37,3.37,0,0,1,0,.55v2.08h-.57v-2.05a1.44,1.44,0,0,0-.07-.53.52.52,0,0,0-.24-.27.71.71,0,0,0-.39-.1.88.88,0,0,0-.63.23,1.11,1.11,0,0,0-.27.88v1.84Z" transform="translate(0.01 -22.19)"/><path class="cls-3" d="M31.88,105.18v-3.37h.51v.47a1.23,1.23,0,0,1,1.07-.55,1.43,1.43,0,0,1,.56.11.82.82,0,0,1,.38.29,1,1,0,0,1,.18.42,3.37,3.37,0,0,1,0,.55v2.08H34v-2.05a1.75,1.75,0,0,0-.06-.53.62.62,0,0,0-.24-.27.74.74,0,0,0-.4-.1.91.91,0,0,0-.63.23,1.11,1.11,0,0,0-.26.88v1.84Z" transform="translate(0.01 -22.19)"/><path class="cls-3" d="M35.49,101.18v-.66h.57v.66Zm0,4v-3.37h.57v3.37Z" transform="translate(0.01 -22.19)"/><path class="cls-3" d="M36.93,105.18v-3.37h.52v.47a1.23,1.23,0,0,1,1.07-.55,1.47,1.47,0,0,1,.56.11.82.82,0,0,1,.38.29,1,1,0,0,1,.18.42,3.37,3.37,0,0,1,0,.55v2.08H39.1v-2.05a1.75,1.75,0,0,0-.06-.53.62.62,0,0,0-.24-.27.74.74,0,0,0-.4-.1.91.91,0,0,0-.63.23,1.11,1.11,0,0,0-.26.88v1.84Z" transform="translate(0.01 -22.19)"/><path class="cls-3" d="M40.44,105.46l.56.08a.53.53,0,0,0,.19.37,1,1,0,0,0,.58.16,1,1,0,0,0,.62-.16.76.76,0,0,0,.29-.44,3.89,3.89,0,0,0,0-.74,1.16,1.16,0,0,1-.93.45,1.29,1.29,0,0,1-1.08-.5,2,2,0,0,1-.38-1.21,2.35,2.35,0,0,1,.17-.89A1.46,1.46,0,0,1,41,102a1.35,1.35,0,0,1,.78-.22,1.19,1.19,0,0,1,1,.48v-.4h.53v2.91a2.75,2.75,0,0,1-.16,1.12,1.2,1.2,0,0,1-.51.51,1.7,1.7,0,0,1-.85.19,1.65,1.65,0,0,1-1-.27A1,1,0,0,1,40.44,105.46Zm.48-2a1.5,1.5,0,0,0,.26,1,.88.88,0,0,0,1.32,0,1.4,1.4,0,0,0,.27-1,1.34,1.34,0,0,0-.28-.93.84.84,0,0,0-.66-.32.86.86,0,0,0-.65.31A1.42,1.42,0,0,0,40.92,103.43Z" transform="translate(0.01 -22.19)"/><path class="cls-3" d="M46,105.18v-3.37h.52v.51a1.47,1.47,0,0,1,.36-.48.67.67,0,0,1,.37-.11,1.15,1.15,0,0,1,.59.18l-.2.53a.84.84,0,0,0-.42-.12.58.58,0,0,0-.34.11.6.6,0,0,0-.21.32,2.29,2.29,0,0,0-.09.66v1.77Z" transform="translate(0.01 -22.19)"/><path class="cls-3" d="M50.33,104.76a2,2,0,0,1-.61.38,1.61,1.61,0,0,1-.63.11,1.22,1.22,0,0,1-.85-.27.89.89,0,0,1-.3-.69.94.94,0,0,1,.11-.45,1,1,0,0,1,.3-.33,1.18,1.18,0,0,1,.41-.19,4.17,4.17,0,0,1,.51-.09,5.49,5.49,0,0,0,1-.19v-.15a.61.61,0,0,0-.16-.49,1,1,0,0,0-.65-.2,1.06,1.06,0,0,0-.6.14.86.86,0,0,0-.28.5l-.56-.07a1.34,1.34,0,0,1,.25-.58,1.09,1.09,0,0,1,.5-.34,2.3,2.3,0,0,1,.77-.12,2,2,0,0,1,.7.1.93.93,0,0,1,.4.26,1,1,0,0,1,.18.39c0,.09,0,.27,0,.52v.76a8.68,8.68,0,0,0,0,1,1.27,1.27,0,0,0,.15.41h-.6A1.29,1.29,0,0,1,50.33,104.76Zm0-1.28a4,4,0,0,1-.94.22,2,2,0,0,0-.49.11.55.55,0,0,0-.23.19.5.5,0,0,0,.09.65.78.78,0,0,0,.51.15,1.15,1.15,0,0,0,.59-.14.92.92,0,0,0,.37-.39,1.26,1.26,0,0,0,.1-.58Z" transform="translate(0.01 -22.19)"/><path class="cls-3" d="M51.75,105.18v-3.37h.51v.47a1.24,1.24,0,0,1,1.08-.55,1.47,1.47,0,0,1,.56.11.88.88,0,0,1,.38.29,1.33,1.33,0,0,1,.18.42,3.37,3.37,0,0,1,0,.55v2.08h-.57v-2.05a1.44,1.44,0,0,0-.07-.53.52.52,0,0,0-.24-.27.71.71,0,0,0-.39-.1.88.88,0,0,0-.63.23,1.11,1.11,0,0,0-.27.88v1.84Z" transform="translate(0.01 -22.19)"/><path class="cls-3" d="M55.26,105.46l.56.08a.5.5,0,0,0,.19.37.91.91,0,0,0,.58.16,1,1,0,0,0,.61-.16.72.72,0,0,0,.29-.44,3.61,3.61,0,0,0,0-.74,1.17,1.17,0,0,1-.94.45,1.27,1.27,0,0,1-1.07-.5,1.92,1.92,0,0,1-.38-1.21,2.17,2.17,0,0,1,.17-.89,1.46,1.46,0,0,1,.51-.63,1.35,1.35,0,0,1,.78-.22,1.22,1.22,0,0,1,1,.48v-.4h.53v2.91a2.94,2.94,0,0,1-.16,1.12,1.2,1.2,0,0,1-.51.51,1.74,1.74,0,0,1-.86.19,1.61,1.61,0,0,1-1-.27A.9.9,0,0,1,55.26,105.46Zm.47-2a1.44,1.44,0,0,0,.27,1,.83.83,0,0,0,.66.3.85.85,0,0,0,.66-.3,1.46,1.46,0,0,0,.26-1,1.39,1.39,0,0,0-.27-.93.84.84,0,0,0-1.31,0A1.37,1.37,0,0,0,55.73,103.43Z" transform="translate(0.01 -22.19)"/><path class="cls-3" d="M61.29,104.09l.59.07a1.49,1.49,0,0,1-.52.81,1.54,1.54,0,0,1-1,.28,1.56,1.56,0,0,1-1.18-.45,1.79,1.79,0,0,1-.43-1.28,1.86,1.86,0,0,1,.44-1.32,1.49,1.49,0,0,1,1.13-.47,1.45,1.45,0,0,1,1.11.46,1.86,1.86,0,0,1,.43,1.29,1,1,0,0,1,0,.16H59.38a1.34,1.34,0,0,0,.31.85,1,1,0,0,0,.71.29.84.84,0,0,0,.53-.16A1.13,1.13,0,0,0,61.29,104.09Zm-1.88-.92h1.88a1.08,1.08,0,0,0-.21-.64.88.88,0,0,0-.71-.33.93.93,0,0,0-.66.26A1.05,1.05,0,0,0,59.41,103.17Z" transform="translate(0.01 -22.19)"/><rect class="繝後Μ_逋ｽ-2" x="19.68" y="97.15" width="43.3" height="16.72"/><path class="cls-3" d="M26,124.09l.62.15a2.07,2.07,0,0,1-.7,1.16,1.93,1.93,0,0,1-1.23.4,2.14,2.14,0,0,1-1.22-.31,1.89,1.89,0,0,1-.72-.89,3.19,3.19,0,0,1-.24-1.24,2.8,2.8,0,0,1,.27-1.27,1.9,1.9,0,0,1,.79-.82,2.31,2.31,0,0,1,1.13-.28,1.9,1.9,0,0,1,1.18.35,1.92,1.92,0,0,1,.66,1l-.61.14a1.42,1.42,0,0,0-.47-.74,1.26,1.26,0,0,0-.77-.23,1.52,1.52,0,0,0-.9.26,1.3,1.3,0,0,0-.5.69,2.73,2.73,0,0,0-.15.89,3,3,0,0,0,.17,1,1.32,1.32,0,0,0,.54.66,1.47,1.47,0,0,0,.79.22,1.32,1.32,0,0,0,.88-.3A1.48,1.48,0,0,0,26,124.09Z" transform="translate(0.01 -22.19)"/><path class="cls-3" d="M27.06,124a1.75,1.75,0,0,1,.52-1.38,1.58,1.58,0,0,1,1.06-.38,1.5,1.5,0,0,1,1.14.46,1.74,1.74,0,0,1,.44,1.26,2.38,2.38,0,0,1-.19,1,1.45,1.45,0,0,1-.57.58,1.63,1.63,0,0,1-.82.2,1.51,1.51,0,0,1-1.14-.45A1.82,1.82,0,0,1,27.06,124Zm.59,0a1.42,1.42,0,0,0,.28,1,.9.9,0,0,0,.71.32.88.88,0,0,0,.71-.32,1.45,1.45,0,0,0,.28-1,1.37,1.37,0,0,0-.28-.94.91.91,0,0,0-.71-.33.93.93,0,0,0-.71.32A1.44,1.44,0,0,0,27.65,124Z" transform="translate(0.01 -22.19)"/><path class="cls-3" d="M30.89,125.72v-3.37h.51v.48a1.23,1.23,0,0,1,1.08-.56,1.47,1.47,0,0,1,.56.11.88.88,0,0,1,.38.29,1.33,1.33,0,0,1,.18.42,3.51,3.51,0,0,1,0,.56v2.07h-.57v-2a1.34,1.34,0,0,0-.07-.52.5.5,0,0,0-.24-.28.71.71,0,0,0-.39-.1.88.88,0,0,0-.63.23,1.13,1.13,0,0,0-.27.88v1.84Z" transform="translate(0.01 -22.19)"/><path class="cls-3" d="M35.75,125.21l.08.5a2.37,2.37,0,0,1-.43.05.93.93,0,0,1-.48-.1.58.58,0,0,1-.24-.25,2,2,0,0,1-.07-.68v-1.94h-.42v-.44h.42v-.84l.57-.34v1.18h.57v.44h-.57v2a1,1,0,0,0,0,.32.26.26,0,0,0,.1.11.34.34,0,0,0,.19,0Z" transform="translate(0.01 -22.19)"/><path class="cls-3" d="M36.31,121.72v-.65h.58v.65Zm0,4v-3.37h.58v3.37Z" transform="translate(0.01 -22.19)"/><path class="cls-3" d="M37.75,125.72v-3.37h.52v.48a1.21,1.21,0,0,1,1.07-.56,1.47,1.47,0,0,1,.56.11.82.82,0,0,1,.38.29,1,1,0,0,1,.18.42,3.51,3.51,0,0,1,0,.56v2.07h-.57v-2a1.63,1.63,0,0,0-.06-.52.6.6,0,0,0-.24-.28.74.74,0,0,0-.4-.1.91.91,0,0,0-.63.23,1.13,1.13,0,0,0-.26.88v1.84Z" transform="translate(0.01 -22.19)"/><path class="cls-3" d="M43.58,125.72v-.5a1.23,1.23,0,0,1-1.07.57,1.3,1.3,0,0,1-.56-.11.89.89,0,0,1-.38-.29,1,1,0,0,1-.18-.42,3.33,3.33,0,0,1,0-.53v-2.09h.57v1.87a3.86,3.86,0,0,0,0,.6.62.62,0,0,0,.23.35.69.69,0,0,0,.43.13,1,1,0,0,0,.49-.13.72.72,0,0,0,.31-.36,1.63,1.63,0,0,0,.1-.66v-1.8h.57v3.37Z" transform="translate(0.01 -22.19)"/><path class="cls-3" d="M44.77,124a1.75,1.75,0,0,1,.52-1.38,1.58,1.58,0,0,1,1.06-.38,1.5,1.5,0,0,1,1.14.46,1.74,1.74,0,0,1,.44,1.26,2.38,2.38,0,0,1-.19,1,1.45,1.45,0,0,1-.57.58,1.63,1.63,0,0,1-.82.2,1.51,1.51,0,0,1-1.14-.45A1.82,1.82,0,0,1,44.77,124Zm.59,0a1.42,1.42,0,0,0,.28,1,.9.9,0,0,0,.71.32.88.88,0,0,0,.71-.32,1.45,1.45,0,0,0,.28-1,1.37,1.37,0,0,0-.28-.94.91.91,0,0,0-.71-.33.93.93,0,0,0-.71.32A1.44,1.44,0,0,0,45.36,124Z" transform="translate(0.01 -22.19)"/><path class="cls-3" d="M50.81,125.72v-.5a1.23,1.23,0,0,1-1.07.57,1.3,1.3,0,0,1-.56-.11.89.89,0,0,1-.38-.29,1,1,0,0,1-.18-.42,3.33,3.33,0,0,1,0-.53v-2.09h.57v1.87a3.86,3.86,0,0,0,0,.6.62.62,0,0,0,.23.35.69.69,0,0,0,.43.13,1,1,0,0,0,.49-.13.72.72,0,0,0,.31-.36,1.63,1.63,0,0,0,.1-.66v-1.8h.57v3.37Z" transform="translate(0.01 -22.19)"/><path class="cls-3" d="M52,124.71l.56-.09a.76.76,0,0,0,.27.52.9.9,0,0,0,.6.18.89.89,0,0,0,.59-.16.48.48,0,0,0,.19-.37.37.37,0,0,0-.17-.31,2.66,2.66,0,0,0-.58-.19,7.72,7.72,0,0,1-.88-.27.83.83,0,0,1-.36-.33.77.77,0,0,1-.13-.45,1,1,0,0,1,.1-.42,1,1,0,0,1,.29-.31.93.93,0,0,1,.36-.17,1.57,1.57,0,0,1,.49-.07,1.86,1.86,0,0,1,.7.12.82.82,0,0,1,.44.31,1.13,1.13,0,0,1,.2.52l-.56.07a.61.61,0,0,0-.22-.4.79.79,0,0,0-.52-.15.91.91,0,0,0-.56.13.4.4,0,0,0-.17.31.37.37,0,0,0,.07.2.53.53,0,0,0,.22.15l.51.14a7,7,0,0,1,.84.27.88.88,0,0,1,.38.3.84.84,0,0,1,.14.49,1,1,0,0,1-.17.54,1.18,1.18,0,0,1-.48.39,1.8,1.8,0,0,1-.71.13,1.59,1.59,0,0,1-1-.27A1.24,1.24,0,0,1,52,124.71Z" transform="translate(0.01 -22.19)"/><path class="cls-3" d="M22.57,133.52v-3.37h.52v.51a1.31,1.31,0,0,1,.36-.47.63.63,0,0,1,.37-.12,1.08,1.08,0,0,1,.59.19l-.2.52a.84.84,0,0,0-.42-.12.58.58,0,0,0-.34.11.6.6,0,0,0-.21.32,2.29,2.29,0,0,0-.09.66v1.77Z" transform="translate(0.01 -22.19)"/><path class="cls-3" d="M27,133.52V133a1.22,1.22,0,0,1-1.07.57,1.29,1.29,0,0,1-.55-.11.87.87,0,0,1-.56-.71,2.3,2.3,0,0,1,0-.53v-2.09h.57V132a3.5,3.5,0,0,0,0,.6.54.54,0,0,0,.23.35.67.67,0,0,0,.43.13.91.91,0,0,0,.48-.13.74.74,0,0,0,.32-.36,1.86,1.86,0,0,0,.09-.66v-1.8h.58v3.37Z" transform="translate(0.01 -22.19)"/><path class="cls-3" d="M28.36,133.52v-3.37h.51v.48a1.23,1.23,0,0,1,1.08-.56,1.47,1.47,0,0,1,.56.11.82.82,0,0,1,.38.29,1.33,1.33,0,0,1,.18.42,3.51,3.51,0,0,1,0,.56v2.07h-.57v-2.05a1.34,1.34,0,0,0-.07-.52.5.5,0,0,0-.24-.28.71.71,0,0,0-.39-.1.88.88,0,0,0-.63.23,1.13,1.13,0,0,0-.27.88v1.84Z" transform="translate(0.01 -22.19)"/><path class="cls-3" d="M32,133.52v-3.37h.51v.48a1.21,1.21,0,0,1,1.07-.56,1.43,1.43,0,0,1,.56.11.82.82,0,0,1,.38.29,1,1,0,0,1,.18.42,3.51,3.51,0,0,1,0,.56v2.07h-.57v-2.05a1.63,1.63,0,0,0-.06-.52.6.6,0,0,0-.24-.28.74.74,0,0,0-.4-.1.91.91,0,0,0-.63.23,1.13,1.13,0,0,0-.26.88v1.84Z" transform="translate(0.01 -22.19)"/><path class="cls-3" d="M35.59,129.52v-.65h.57v.65Zm0,4v-3.37h.57v3.37Z" transform="translate(0.01 -22.19)"/><path class="cls-3" d="M37,133.52v-3.37h.52v.48a1.21,1.21,0,0,1,1.07-.56,1.47,1.47,0,0,1,.56.11.82.82,0,0,1,.38.29,1,1,0,0,1,.18.42,3.51,3.51,0,0,1,0,.56v2.07H39.2v-2.05a1.63,1.63,0,0,0-.06-.52.6.6,0,0,0-.24-.28.74.74,0,0,0-.4-.1.91.91,0,0,0-.63.23,1.13,1.13,0,0,0-.26.88v1.84Z" transform="translate(0.01 -22.19)"/><path class="cls-3" d="M40.54,133.8l.56.08a.51.51,0,0,0,.19.37,1,1,0,0,0,.58.16,1,1,0,0,0,.62-.16.76.76,0,0,0,.29-.44,3.83,3.83,0,0,0,0-.73,1.18,1.18,0,0,1-.93.44,1.28,1.28,0,0,1-1.08-.5,2,2,0,0,1-.38-1.21,2.35,2.35,0,0,1,.17-.89,1.46,1.46,0,0,1,.51-.63,1.43,1.43,0,0,1,.78-.22,1.19,1.19,0,0,1,1,.48v-.4h.53v2.91a2.72,2.72,0,0,1-.16,1.12,1.22,1.22,0,0,1-.51.52,1.81,1.81,0,0,1-.85.19,1.65,1.65,0,0,1-1-.27A1,1,0,0,1,40.54,133.8Zm.48-2a1.44,1.44,0,0,0,.26,1,.88.88,0,0,0,1.32,0,1.4,1.4,0,0,0,.27-1,1.34,1.34,0,0,0-.28-.93.84.84,0,0,0-.66-.32.86.86,0,0,0-.65.31A1.44,1.44,0,0,0,41,131.77Z" transform="translate(0.01 -22.19)"/><path class="cls-3" d="M46.06,133.52v-3.37h.52v.51a1.31,1.31,0,0,1,.36-.47.61.61,0,0,1,.37-.12,1.08,1.08,0,0,1,.59.19l-.2.52a.84.84,0,0,0-.42-.12.58.58,0,0,0-.34.11.6.6,0,0,0-.21.32,2.29,2.29,0,0,0-.09.66v1.77Z" transform="translate(0.01 -22.19)"/><path class="cls-3" d="M50.43,133.1a2,2,0,0,1-.61.38,1.61,1.61,0,0,1-.63.11,1.22,1.22,0,0,1-.85-.27.89.89,0,0,1-.3-.69.94.94,0,0,1,.11-.45,1,1,0,0,1,.3-.33,1.4,1.4,0,0,1,.41-.19,3,3,0,0,1,.51-.08,5.33,5.33,0,0,0,1-.2v-.15a.61.61,0,0,0-.16-.49,1,1,0,0,0-.65-.2,1,1,0,0,0-.6.15.83.83,0,0,0-.28.49l-.56-.07a1.34,1.34,0,0,1,.25-.58,1.09,1.09,0,0,1,.5-.34,2.3,2.3,0,0,1,.77-.12,2,2,0,0,1,.7.1,1,1,0,0,1,.4.26,1,1,0,0,1,.18.39c0,.09,0,.27,0,.52v.77a8.6,8.6,0,0,0,0,1,1.27,1.27,0,0,0,.15.41h-.6A1.29,1.29,0,0,1,50.43,133.1Zm0-1.27a4.63,4.63,0,0,1-.94.21,1.9,1.9,0,0,0-.49.12.47.47,0,0,0-.23.18.5.5,0,0,0-.08.27.49.49,0,0,0,.17.38.73.73,0,0,0,.51.16,1.15,1.15,0,0,0,.59-.15.87.87,0,0,0,.37-.39,1.24,1.24,0,0,0,.1-.57Z" transform="translate(0.01 -22.19)"/><path class="cls-3" d="M51.85,133.52v-3.37h.51v.48a1.23,1.23,0,0,1,1.08-.56,1.47,1.47,0,0,1,.56.11.88.88,0,0,1,.38.29,1.33,1.33,0,0,1,.18.42,3.51,3.51,0,0,1,0,.56v2.07H54v-2.05A1.34,1.34,0,0,0,54,131a.5.5,0,0,0-.24-.28.71.71,0,0,0-.39-.1.88.88,0,0,0-.63.23,1.13,1.13,0,0,0-.27.88v1.84Z" transform="translate(0.01 -22.19)"/><path class="cls-3" d="M55.36,133.8l.56.08a.48.48,0,0,0,.19.37.91.91,0,0,0,.58.16,1,1,0,0,0,.61-.16.72.72,0,0,0,.29-.44,3.56,3.56,0,0,0,0-.73,1.19,1.19,0,0,1-.94.44,1.27,1.27,0,0,1-1.07-.5,1.92,1.92,0,0,1-.38-1.21,2.17,2.17,0,0,1,.17-.89,1.46,1.46,0,0,1,.51-.63,1.43,1.43,0,0,1,.78-.22,1.22,1.22,0,0,1,1,.48v-.4h.53v2.91a2.9,2.9,0,0,1-.16,1.12,1.22,1.22,0,0,1-.51.52,1.85,1.85,0,0,1-.86.19,1.61,1.61,0,0,1-1-.27A.93.93,0,0,1,55.36,133.8Zm.47-2a1.44,1.44,0,0,0,.27,1,.83.83,0,0,0,.66.3.85.85,0,0,0,.66-.3,1.46,1.46,0,0,0,.26-1,1.39,1.39,0,0,0-.27-.93.84.84,0,0,0-1.31,0A1.38,1.38,0,0,0,55.83,131.77Z" transform="translate(0.01 -22.19)"/><path class="cls-3" d="M61.39,132.43l.59.08a1.5,1.5,0,0,1-.52.8,1.54,1.54,0,0,1-1,.28,1.56,1.56,0,0,1-1.18-.45,1.77,1.77,0,0,1-.43-1.28,1.86,1.86,0,0,1,.44-1.32,1.58,1.58,0,0,1,2.24,0,1.87,1.87,0,0,1,.43,1.3,1,1,0,0,1,0,.15H59.48a1.34,1.34,0,0,0,.31.85.94.94,0,0,0,.71.29A.84.84,0,0,0,61,133,1.13,1.13,0,0,0,61.39,132.43Zm-1.88-.92h1.88a1.1,1.1,0,0,0-.21-.64.88.88,0,0,0-.71-.33.93.93,0,0,0-.66.26A1.08,1.08,0,0,0,59.51,131.51Z" transform="translate(0.01 -22.19)"/><path class="cls-3" d="M4.64,98.27H.54V99.8H0V96.11H.54v1.54h4.1Z" transform="translate(0.01 -22.19)"/><path class="cls-3" d="M3,95.77a1.75,1.75,0,0,1-1.38-.52,1.58,1.58,0,0,1-.38-1.06,1.48,1.48,0,0,1,.46-1.14,1.74,1.74,0,0,1,1.26-.44,2.38,2.38,0,0,1,1,.19,1.45,1.45,0,0,1,.58.57,1.64,1.64,0,0,1,.21.82,1.52,1.52,0,0,1-.46,1.14A1.82,1.82,0,0,1,3,95.77Zm0-.59a1.41,1.41,0,0,0,1-.28.91.91,0,0,0,.33-.71.89.89,0,0,0-.33-.71,1.45,1.45,0,0,0-1-.28,1.37,1.37,0,0,0-.94.28A.95.95,0,0,0,2,94.9,1.39,1.39,0,0,0,3,95.18Z" transform="translate(0.01 -22.19)"/><path class="cls-3" d="M4.64,92H1.27v-.52h.51a1.31,1.31,0,0,1-.47-.36.61.61,0,0,1-.12-.37,1,1,0,0,1,.19-.58l.53.19a.76.76,0,0,0-.13.42.52.52,0,0,0,.12.34.54.54,0,0,0,.31.21,2.28,2.28,0,0,0,.66.1H4.64Z" transform="translate(0.01 -22.19)"/><path class="cls-3" d="M5.93,87.63H4.28a1,1,0,0,1,.31.37,1.14,1.14,0,0,1,.13.51,1.34,1.34,0,0,1-.48,1A1.9,1.9,0,0,1,2.92,90,2.21,2.21,0,0,1,2,89.8a1.33,1.33,0,0,1-.82-1.25,1.14,1.14,0,0,1,.53-1H1.27v-.51H5.93Zm-3,1.76a1.51,1.51,0,0,0,1-.27.81.81,0,0,0,0-1.29A1.48,1.48,0,0,0,3,87.57a1.56,1.56,0,0,0-1,.28.83.83,0,0,0-.34.65.79.79,0,0,0,.32.63A1.55,1.55,0,0,0,2.94,89.39Z" transform="translate(0.01 -22.19)"/><path class="cls-3" d="M4.64,84h-.5A1.24,1.24,0,0,1,4.72,85a1.31,1.31,0,0,1-.12.56.89.89,0,0,1-.29.38,1,1,0,0,1-.42.18,3.33,3.33,0,0,1-.53,0H1.27V85.6H3.14a3.77,3.77,0,0,0,.6,0,.62.62,0,0,0,.35-.23.69.69,0,0,0,.13-.43,1,1,0,0,0-.13-.49.72.72,0,0,0-.36-.31,1.63,1.63,0,0,0-.66-.1H1.27v-.57H4.64Z" transform="translate(0.01 -22.19)"/><path class="cls-3" d="M3.55,80.24l.08-.59a1.39,1.39,0,0,1,.8.52,1.72,1.72,0,0,1-.17,2.13A1.77,1.77,0,0,1,3,82.74a1.88,1.88,0,0,1-1.32-.44,1.49,1.49,0,0,1-.47-1.14,1.45,1.45,0,0,1,.46-1.1A1.82,1.82,0,0,1,3,79.63H3.1v2.52A1.34,1.34,0,0,0,4,81.83a.92.92,0,0,0,.3-.7.89.89,0,0,0-.17-.54A1.12,1.12,0,0,0,3.55,80.24Zm-.92,1.87V80.23a1.18,1.18,0,0,0-.64.22.88.88,0,0,0-.33.71.9.9,0,0,0,.27.66A1,1,0,0,0,2.63,82.11Z" transform="translate(0.01 -22.19)"/><path class="cls-3" d="M5.93,77.11H0V75.85H.46v.69h5v-.69h.47Z" transform="translate(0.01 -22.19)"/><path class="cls-3" d="M4.64,75.25H0v-.63l3.65-2.44H0v-.59H4.64v.63L1,74.66H4.64Z" transform="translate(0.01 -22.19)"/><path class="cls-3" d="M2.36,70.71a.78.78,0,0,1-.57-.24.81.81,0,0,1,1.14-1.14.81.81,0,0,1-.57,1.38Z" transform="translate(0.01 -22.19)"/><path class="cls-3" d="M4.64,68.35H1.27v-.51h.47a1.34,1.34,0,0,1-.4-.42,1.21,1.21,0,0,1-.15-.6,1.08,1.08,0,0,1,.16-.62.86.86,0,0,1,.43-.34,1.2,1.2,0,0,1-.59-1,1,1,0,0,1,.28-.77,1.18,1.18,0,0,1,.86-.27H4.64v.57H2.52a1.49,1.49,0,0,0-.5.06.42.42,0,0,0-.24.2.62.62,0,0,0-.09.34.82.82,0,0,0,.23.59,1,1,0,0,0,.76.24h2v.57H2.45a.91.91,0,0,0-.57.14.51.51,0,0,0-.19.45.89.89,0,0,0,.12.45.77.77,0,0,0,.38.3,2.08,2.08,0,0,0,.7.09H4.64Z" transform="translate(0.01 -22.19)"/><path class="cls-3" d="M5.93,62v1.26H5.46v-.69h-5v.69H0V62Z" transform="translate(0.01 -22.19)"/><path class="cls-3" d="M44.76,150.56l.58-.06a1.32,1.32,0,0,0,.19.58,1,1,0,0,0,.47.36,1.8,1.8,0,0,0,.71.14,1.64,1.64,0,0,0,.62-.11.91.91,0,0,0,.41-.28.76.76,0,0,0,.13-.4.59.59,0,0,0-.13-.39.92.92,0,0,0-.42-.27c-.12,0-.4-.12-.83-.23a4.15,4.15,0,0,1-.89-.29,1.19,1.19,0,0,1-.5-.43,1.06,1.06,0,0,1-.16-.58,1.16,1.16,0,0,1,.2-.66,1.18,1.18,0,0,1,.58-.46,2.15,2.15,0,0,1,.85-.16,2.4,2.4,0,0,1,.92.16,1.4,1.4,0,0,1,.6.49,1.47,1.47,0,0,1,.23.74l-.59,0a1,1,0,0,0-.32-.66,1.24,1.24,0,0,0-.81-.23,1.37,1.37,0,0,0-.82.2.63.63,0,0,0-.25.5.52.52,0,0,0,.18.41,2.39,2.39,0,0,0,.93.33,7.58,7.58,0,0,1,1,.3,1.39,1.39,0,0,1,.6.47,1.19,1.19,0,0,1,.19.67,1.3,1.3,0,0,1-.21.7,1.4,1.4,0,0,1-.61.51,2.19,2.19,0,0,1-.9.18,2.76,2.76,0,0,1-1.06-.18,1.54,1.54,0,0,1-.67-.56A1.59,1.59,0,0,1,44.76,150.56Z" transform="translate(0.01 -22.19)"/><path class="cls-3" d="M49.23,153.34v-4.66h.52v.44a1.29,1.29,0,0,1,.42-.39,1.19,1.19,0,0,1,.56-.13,1.31,1.31,0,0,1,.76.23,1.29,1.29,0,0,1,.5.62,2.35,2.35,0,0,1,.17.89,2.3,2.3,0,0,1-.19.93,1.36,1.36,0,0,1-.54.64,1.45,1.45,0,0,1-.74.22,1.14,1.14,0,0,1-.52-.12,1.42,1.42,0,0,1-.37-.31v1.64Zm.52-3a1.46,1.46,0,0,0,.26,1,.84.84,0,0,0,.64.31.82.82,0,0,0,.65-.33,1.5,1.5,0,0,0,.27-1,1.56,1.56,0,0,0-.26-1,.82.82,0,0,0-.64-.32.8.8,0,0,0-.64.34A1.52,1.52,0,0,0,49.75,150.38Z" transform="translate(0.01 -22.19)"/><path class="cls-3" d="M55.15,151l.59.08a1.39,1.39,0,0,1-.52.8,1.72,1.72,0,0,1-2.13-.17,1.77,1.77,0,0,1-.44-1.28,1.9,1.9,0,0,1,.44-1.32,1.49,1.49,0,0,1,1.14-.47,1.45,1.45,0,0,1,1.1.46,1.82,1.82,0,0,1,.43,1.3v.15H53.24a1.34,1.34,0,0,0,.32.85.92.92,0,0,0,.7.3.89.89,0,0,0,.54-.17A1,1,0,0,0,55.15,151ZM53.28,150h1.88a1.18,1.18,0,0,0-.22-.64.88.88,0,0,0-.71-.33.9.9,0,0,0-.66.27A1,1,0,0,0,53.28,150Z" transform="translate(0.01 -22.19)"/><path class="cls-3" d="M58.77,151l.59.08a1.5,1.5,0,0,1-.52.8,1.54,1.54,0,0,1-1,.29,1.57,1.57,0,0,1-1.18-.46,1.77,1.77,0,0,1-.43-1.28,1.9,1.9,0,0,1,.44-1.32,1.58,1.58,0,0,1,2.24,0,1.87,1.87,0,0,1,.43,1.3,1,1,0,0,1,0,.15H56.86a1.34,1.34,0,0,0,.31.85.94.94,0,0,0,.71.3.84.84,0,0,0,.53-.17A1.08,1.08,0,0,0,58.77,151ZM56.89,150h1.88a1.1,1.1,0,0,0-.21-.64.88.88,0,0,0-.71-.33.9.9,0,0,0-.66.27A1,1,0,0,0,56.89,150Z" transform="translate(0.01 -22.19)"/><path class="cls-3" d="M62.26,152.05v-.43a1,1,0,0,1-.94.51,1.3,1.3,0,0,1-.74-.23,1.41,1.41,0,0,1-.53-.62,2.17,2.17,0,0,1-.18-.91,2.29,2.29,0,0,1,.17-.92,1.37,1.37,0,0,1,.5-.63,1.43,1.43,0,0,1,.75-.22,1.21,1.21,0,0,1,.55.13,1.24,1.24,0,0,1,.38.34V147.4h.57v4.65Zm-1.8-1.68a1.5,1.5,0,0,0,.27,1,.81.81,0,0,0,1.28,0,1.43,1.43,0,0,0,.26-.93,1.58,1.58,0,0,0-.27-1,.82.82,0,0,0-1.29,0A1.52,1.52,0,0,0,60.46,150.37Z" transform="translate(0.01 -22.19)"/><path class="cls-3" d="M65.51,153.34V147.4h1.26v.47h-.69v5h.69v.47Z" transform="translate(0.01 -22.19)"/><path class="cls-3" d="M67.3,152.05v-3.37h.51v.51a1.31,1.31,0,0,1,.36-.47.63.63,0,0,1,.37-.12,1.08,1.08,0,0,1,.59.19l-.2.53a.76.76,0,0,0-.42-.13.54.54,0,0,0-.34.12.58.58,0,0,0-.21.31,2.31,2.31,0,0,0-.09.67v1.76Z" transform="translate(0.01 -22.19)"/><path class="cls-3" d="M69,152.13l1.35-4.81h.45l-1.34,4.81Z" transform="translate(0.01 -22.19)"/><path class="cls-3" d="M71.27,152.05v-3.37h.51v.47a1.34,1.34,0,0,1,.42-.4,1.21,1.21,0,0,1,.6-.15,1.16,1.16,0,0,1,.62.16.86.86,0,0,1,.34.43,1.2,1.2,0,0,1,1-.59,1.05,1.05,0,0,1,.77.28,1.2,1.2,0,0,1,.27.86v2.31h-.57v-2.12a1.91,1.91,0,0,0,0-.5.49.49,0,0,0-.21-.24.62.62,0,0,0-.34-.09.82.82,0,0,0-.59.23,1,1,0,0,0-.23.76v2h-.58v-2.19a.92.92,0,0,0-.14-.57.51.51,0,0,0-.45-.19.81.81,0,0,0-.45.13.69.69,0,0,0-.29.37,1.82,1.82,0,0,0-.1.7v1.75Z" transform="translate(0.01 -22.19)"/><path class="cls-3" d="M76.69,148.05v-.65h.57v.65Zm0,4v-3.37h.57v3.37Z" transform="translate(0.01 -22.19)"/><path class="cls-3" d="M78.13,152.05v-3.37h.51v.48a1.23,1.23,0,0,1,1.08-.56,1.47,1.47,0,0,1,.56.11.89.89,0,0,1,.38.29,1.33,1.33,0,0,1,.18.42,3.51,3.51,0,0,1,0,.56v2.07H80.3V150a1.38,1.38,0,0,0-.07-.52.53.53,0,0,0-.23-.28.77.77,0,0,0-.4-.1.92.92,0,0,0-.63.23,1.13,1.13,0,0,0-.27.88v1.84Z" transform="translate(0.01 -22.19)"/><path class="cls-3" d="M82.7,153.34H81.44v-.47h.69v-5h-.69v-.47H82.7Z" transform="translate(0.01 -22.19)"/></g></svg>