<svg xmlns="http://www.w3.org/2000/svg" viewBox="0 0 116.63 130.72"><defs><style>.cls-1,.cls-3,.cls-4,.繝医Ν繧ｯ繧ｰ繝ｩ繝廟繧ｰ繝ｬ繝ｼ邱,.邱喟0\.5pt-5{fill:none;}.cls-1,.cls-3,.cls-4,.邱喟0\.5pt-5{stroke:#231815;}.cls-1{stroke-linejoin:round;stroke-width:0.14px;}.繝医Ν繧ｯ繧ｰ繝ｩ繝廟繧ｰ繝ｬ繝ｼ邱{stroke:#9fa0a0;stroke-width:3px;}.cls-2{fill:#231815;}.cls-4{stroke-linecap:round;}.繝後Μ_逋ｽ-2{fill:#fff;}.邱喟0\.5pt-5{stroke-miterlimit:10;stroke-width:0.5px;}</style></defs><g id="Illust"><line class="cls-1" x1="45.52" y1="1.47" x2="45.52" y2="114.85"/><line class="cls-1" x1="72.59" y1="1.47" x2="72.59" y2="114.85"/><line class="cls-1" x1="99.67" y1="1.47" x2="99.67" y2="114.85"/><line class="cls-1" x1="18.45" y1="103.53" x2="109.15" y2="103.53"/><line class="cls-1" x1="18.45" y1="92.2" x2="109.15" y2="92.2"/><line class="cls-1" x1="18.45" y1="80.87" x2="109.15" y2="80.87"/><line class="cls-1" x1="18.45" y1="69.54" x2="109.15" y2="69.54"/><line class="cls-1" x1="18.45" y1="58.16" x2="109.15" y2="58.16"/><line class="cls-1" x1="18.45" y1="46.83" x2="109.15" y2="46.83"/><line class="cls-1" x1="18.45" y1="35.51" x2="109.15" y2="35.51"/><line class="cls-1" x1="18.45" y1="24.18" x2="109.15" y2="24.18"/><line class="cls-1" x1="18.45" y1="12.85" x2="109.15" y2="12.85"/><polyline class="繝医Ν繧ｯ繧ｰ繝ｩ繝廟繧ｰ繝ｬ繝ｼ邱" points="18.44 87.79 25.22 87.79 31.98 87.79 45.51 87.79 59.05 87.79 72.58 94.58 86.12 98.64 99.66 101.36 109.14 102.75"/><polyline class="繝医Ν繧ｯ繧ｰ繝ｩ繝廟繧ｰ繝ｬ繝ｼ邱" points="18.44 33.66 69.88 33.66 110.56 70.92"/><path class="cls-2" d="M17.23,141.38a3.52,3.52,0,0,1,.13-1,1.28,1.28,0,0,1,.39-.59,1.14,1.14,0,0,1,1.15-.1.9.9,0,0,1,.36.34,1.73,1.73,0,0,1,.23.53,3.72,3.72,0,0,1,.08.84,3.52,3.52,0,0,1-.13,1,1.31,1.31,0,0,1-.39.6,1,1,0,0,1-.65.21,1,1,0,0,1-.81-.37A2.33,2.33,0,0,1,17.23,141.38Zm.45,0a2.25,2.25,0,0,0,.21,1.18.59.59,0,0,0,1,0,2.27,2.27,0,0,0,.2-1.18,2.2,2.2,0,0,0-.2-1.17.63.63,0,0,0-.52-.29.54.54,0,0,0-.48.26A2.24,2.24,0,0,0,17.68,141.38Z" transform="translate(0.01 -22.63)"/><path class="cls-2" d="M108.16,140.45l-.44,0a.71.71,0,0,0-.17-.37.56.56,0,0,0-.44-.19.61.61,0,0,0-.36.11,1,1,0,0,0-.33.45,2.41,2.41,0,0,0-.13.82,1.11,1.11,0,0,1,.39-.36,1.16,1.16,0,0,1,.48-.11,1,1,0,0,1,.75.32,1.16,1.16,0,0,1,.31.84,1.32,1.32,0,0,1-.15.62,1.08,1.08,0,0,1-.39.45,1.14,1.14,0,0,1-.58.15,1.12,1.12,0,0,1-.9-.4,2.07,2.07,0,0,1-.34-1.34,2.33,2.33,0,0,1,.38-1.5,1.08,1.08,0,0,1,.9-.41,1,1,0,0,1,.69.23A1,1,0,0,1,108.16,140.45Zm-1.8,1.54a.91.91,0,0,0,.1.43.7.7,0,0,0,.63.43.62.62,0,0,0,.48-.23.9.9,0,0,0,.2-.61.83.83,0,0,0-.2-.58.66.66,0,0,0-.5-.21.69.69,0,0,0-.5.21A.76.76,0,0,0,106.36,142Z" transform="translate(0.01 -22.63)"/><path class="cls-2" d="M108.72,140v-.42H111V140a4.41,4.41,0,0,0-.67,1,5.35,5.35,0,0,0-.52,1.24,4.08,4.08,0,0,0-.17,1h-.45a4.4,4.4,0,0,1,.16-1,5.42,5.42,0,0,1,.46-1.15,5.11,5.11,0,0,1,.63-.94Z" transform="translate(0.01 -22.63)"/><path class="cls-2" d="M111.47,141.38a3.2,3.2,0,0,1,.13-1,1.2,1.2,0,0,1,.39-.59,1,1,0,0,1,.64-.21,1,1,0,0,1,.51.11,1.06,1.06,0,0,1,.36.34,1.73,1.73,0,0,1,.22.53,3.72,3.72,0,0,1,.08.84,3.2,3.2,0,0,1-.13,1,1.22,1.22,0,0,1-.38.6,1,1,0,0,1-.66.21,1,1,0,0,1-.81-.37A2.41,2.41,0,0,1,111.47,141.38Zm.45,0a2.25,2.25,0,0,0,.21,1.18.58.58,0,0,0,1,0,2.25,2.25,0,0,0,.21-1.18,2.18,2.18,0,0,0-.21-1.17.61.61,0,0,0-.51-.29.54.54,0,0,0-.48.26A2.15,2.15,0,0,0,111.92,141.38Z" transform="translate(0.01 -22.63)"/><path class="cls-2" d="M114.28,141.38a3.2,3.2,0,0,1,.13-1,1.28,1.28,0,0,1,.39-.59,1.14,1.14,0,0,1,1.15-.1.9.9,0,0,1,.36.34,1.73,1.73,0,0,1,.22.53,4.23,4.23,0,0,1,0,1.86,1.22,1.22,0,0,1-.38.6,1,1,0,0,1-.65.21,1,1,0,0,1-.82-.37A2.41,2.41,0,0,1,114.28,141.38Zm.45,0a2.25,2.25,0,0,0,.21,1.18.58.58,0,0,0,1,0,2.25,2.25,0,0,0,.21-1.18,2.18,2.18,0,0,0-.21-1.17.6.6,0,0,0-.51-.29.54.54,0,0,0-.48.26A2.24,2.24,0,0,0,114.73,141.38Z" transform="translate(0.01 -22.63)"/><polyline class="cls-3" points="18.44 87.79 25.22 87.79 31.98 87.79 45.51 87.79 59.05 87.79 72.58 94.58 86.12 98.64 99.66 101.36 109.14 102.75"/><polyline class="cls-4" points="18.44 33.66 57.7 33.66 109.14 77.69"/><path class="cls-2" d="M42.3,142.73v.42H39.93a.81.81,0,0,1,.06-.31,1.4,1.4,0,0,1,.29-.47,3.81,3.81,0,0,1,.57-.54,5.35,5.35,0,0,0,.79-.76.88.88,0,0,0,.2-.53.6.6,0,0,0-.18-.44.77.77,0,0,0-1,0,.74.74,0,0,0-.19.53l-.45,0a1.12,1.12,0,0,1,.35-.77,1.37,1.37,0,0,1,1.63,0,.94.94,0,0,1,.3.71,1.06,1.06,0,0,1-.09.42,1.75,1.75,0,0,1-.29.44c-.14.15-.37.36-.68.63s-.43.37-.51.45a2,2,0,0,0-.19.24Z" transform="translate(0.01 -22.63)"/><path class="cls-2" d="M42.8,141.38a3.2,3.2,0,0,1,.13-1,1.33,1.33,0,0,1,.39-.59,1.14,1.14,0,0,1,1.15-.1.9.9,0,0,1,.36.34,1.51,1.51,0,0,1,.22.53,3.16,3.16,0,0,1,.09.84,3.52,3.52,0,0,1-.13,1,1.31,1.31,0,0,1-.39.6,1,1,0,0,1-.65.21,1,1,0,0,1-.81-.37A2.33,2.33,0,0,1,42.8,141.38Zm.45,0a2.25,2.25,0,0,0,.21,1.18.59.59,0,0,0,1,0,2.38,2.38,0,0,0,.2-1.18,2.34,2.34,0,0,0-.2-1.17.63.63,0,0,0-.52-.29.56.56,0,0,0-.48.26A2.24,2.24,0,0,0,43.25,141.38Z" transform="translate(0.01 -22.63)"/><path class="cls-2" d="M45.55,141.38a3.52,3.52,0,0,1,.13-1,1.33,1.33,0,0,1,.39-.59,1.14,1.14,0,0,1,1.15-.1.9.9,0,0,1,.36.34,1.73,1.73,0,0,1,.23.53,3.72,3.72,0,0,1,.08.84,3.52,3.52,0,0,1-.13,1,1.31,1.31,0,0,1-.39.6,1,1,0,0,1-.65.21,1,1,0,0,1-.81-.37A2.33,2.33,0,0,1,45.55,141.38Zm.45,0a2.25,2.25,0,0,0,.21,1.18.59.59,0,0,0,1,0,2.27,2.27,0,0,0,.2-1.18,2.23,2.23,0,0,0-.2-1.17.63.63,0,0,0-.52-.29.56.56,0,0,0-.48.26A2.24,2.24,0,0,0,46,141.38Z" transform="translate(0.01 -22.63)"/><path class="cls-2" d="M48.36,141.38a3.52,3.52,0,0,1,.13-1,1.33,1.33,0,0,1,.39-.59,1,1,0,0,1,.65-.21,1.06,1.06,0,0,1,.51.11,1,1,0,0,1,.35.34,1.73,1.73,0,0,1,.23.53,3.72,3.72,0,0,1,.08.84,3.52,3.52,0,0,1-.13,1,1.31,1.31,0,0,1-.39.6,1,1,0,0,1-.65.21,1,1,0,0,1-.81-.37A2.33,2.33,0,0,1,48.36,141.38Zm.45,0a2.25,2.25,0,0,0,.21,1.18.59.59,0,0,0,1,0,2.25,2.25,0,0,0,.21-1.18,2.2,2.2,0,0,0-.21-1.17.63.63,0,0,0-.52-.29.56.56,0,0,0-.48.26A2.24,2.24,0,0,0,48.81,141.38Z" transform="translate(0.01 -22.63)"/><path class="cls-2" d="M68.34,143.15v-.86H66.79v-.4l1.63-2.32h.36v2.32h.49v.4h-.49v.86Zm0-1.26v-1.61l-1.12,1.61Z" transform="translate(0.01 -22.63)"/><path class="cls-2" d="M69.75,141.38a3.2,3.2,0,0,1,.13-1,1.24,1.24,0,0,1,.38-.59,1,1,0,0,1,.65-.21.95.95,0,0,1,.87.45,1.73,1.73,0,0,1,.22.53,3.72,3.72,0,0,1,.08.84,3.2,3.2,0,0,1-.13,1,1.31,1.31,0,0,1-.39.6,1,1,0,0,1-.65.21,1,1,0,0,1-.81-.37A2.34,2.34,0,0,1,69.75,141.38Zm.45,0a2.38,2.38,0,0,0,.2,1.18.59.59,0,0,0,1,0,2.25,2.25,0,0,0,.21-1.18,2.2,2.2,0,0,0-.21-1.17.62.62,0,0,0-.51-.29.58.58,0,0,0-.49.26A2.26,2.26,0,0,0,70.2,141.38Z" transform="translate(0.01 -22.63)"/><path class="cls-2" d="M72.5,141.38a3.2,3.2,0,0,1,.13-1,1.18,1.18,0,0,1,.39-.59,1,1,0,0,1,.64-.21,1,1,0,0,1,.51.11,1.06,1.06,0,0,1,.36.34,1.73,1.73,0,0,1,.22.53,3.72,3.72,0,0,1,.08.84,3.2,3.2,0,0,1-.13,1,1.23,1.23,0,0,1-.39.6,1.09,1.09,0,0,1-1.46-.16A2.34,2.34,0,0,1,72.5,141.38Zm.45,0a2.38,2.38,0,0,0,.2,1.18.62.62,0,0,0,.51.29.6.6,0,0,0,.51-.29,2.25,2.25,0,0,0,.21-1.18,2.2,2.2,0,0,0-.21-1.17.61.61,0,0,0-.51-.29.56.56,0,0,0-.48.26A2.15,2.15,0,0,0,73,141.38Z" transform="translate(0.01 -22.63)"/><path class="cls-2" d="M75.31,141.38a3.2,3.2,0,0,1,.13-1,1.18,1.18,0,0,1,.39-.59,1,1,0,0,1,.64-.21,1,1,0,0,1,.51.11,1.06,1.06,0,0,1,.36.34,1.73,1.73,0,0,1,.22.53,3.72,3.72,0,0,1,.08.84,3.2,3.2,0,0,1-.13,1,1.22,1.22,0,0,1-.38.6,1,1,0,0,1-.66.21,1,1,0,0,1-.81-.37A2.41,2.41,0,0,1,75.31,141.38Zm.45,0a2.38,2.38,0,0,0,.2,1.18.62.62,0,0,0,.51.29.6.6,0,0,0,.51-.29,2.25,2.25,0,0,0,.21-1.18,2.2,2.2,0,0,0-.21-1.17.61.61,0,0,0-.51-.29.56.56,0,0,0-.48.26A2.15,2.15,0,0,0,75.76,141.38Z" transform="translate(0.01 -22.63)"/><path class="cls-2" d="M96.12,140.45l-.43,0a.8.8,0,0,0-.17-.37.56.56,0,0,0-.44-.19.67.67,0,0,0-.37.11,1,1,0,0,0-.32.45,2.19,2.19,0,0,0-.13.82,1.11,1.11,0,0,1,.39-.36,1.13,1.13,0,0,1,.48-.11,1,1,0,0,1,.75.32,1.21,1.21,0,0,1,.31.84,1.32,1.32,0,0,1-.15.62,1,1,0,0,1-1,.6,1.12,1.12,0,0,1-.9-.4,2.07,2.07,0,0,1-.35-1.34,2.32,2.32,0,0,1,.39-1.5,1.08,1.08,0,0,1,.9-.41.94.94,0,0,1,1,.89ZM94.33,142a.91.91,0,0,0,.1.43.7.7,0,0,0,.63.43.65.65,0,0,0,.48-.23.9.9,0,0,0,.2-.61.83.83,0,0,0-.2-.58.7.7,0,0,0-1,0A.76.76,0,0,0,94.33,142Z" transform="translate(0.01 -22.63)"/><path class="cls-2" d="M96.65,141.38a3.52,3.52,0,0,1,.13-1,1.28,1.28,0,0,1,.39-.59,1,1,0,0,1,.65-.21.95.95,0,0,1,.87.45,2,2,0,0,1,.22.53,3.72,3.72,0,0,1,.08.84,3.52,3.52,0,0,1-.13,1,1.31,1.31,0,0,1-.39.6,1,1,0,0,1-.65.21,1,1,0,0,1-.81-.37A2.33,2.33,0,0,1,96.65,141.38Zm.46,0a2.27,2.27,0,0,0,.2,1.18.59.59,0,0,0,1,0,2.25,2.25,0,0,0,.21-1.18,2.18,2.18,0,0,0-.21-1.17.62.62,0,0,0-.51-.29.55.55,0,0,0-.49.26A2.26,2.26,0,0,0,97.11,141.38Z" transform="translate(0.01 -22.63)"/><path class="cls-2" d="M99.4,141.38a3.17,3.17,0,0,1,.14-1,1.19,1.19,0,0,1,.38-.59,1,1,0,0,1,.65-.21.95.95,0,0,1,.87.45,2,2,0,0,1,.22.53,3.72,3.72,0,0,1,.08.84,3.2,3.2,0,0,1-.13,1,1.31,1.31,0,0,1-.39.6,1,1,0,0,1-.65.21,1,1,0,0,1-.81-.37A2.33,2.33,0,0,1,99.4,141.38Zm.46,0a2.38,2.38,0,0,0,.2,1.18.59.59,0,0,0,1,0,2.25,2.25,0,0,0,.21-1.18,2.18,2.18,0,0,0-.21-1.17.62.62,0,0,0-.51-.29.56.56,0,0,0-.49.26A2.26,2.26,0,0,0,99.86,141.38Z" transform="translate(0.01 -22.63)"/><path class="cls-2" d="M102.22,141.38a3.2,3.2,0,0,1,.13-1,1.19,1.19,0,0,1,.38-.59,1,1,0,0,1,.65-.21.95.95,0,0,1,.87.45,1.73,1.73,0,0,1,.22.53,3.72,3.72,0,0,1,.08.84,3.2,3.2,0,0,1-.13,1,1.31,1.31,0,0,1-.39.6,1,1,0,0,1-.65.21,1,1,0,0,1-.81-.37A2.34,2.34,0,0,1,102.22,141.38Zm.45,0a2.38,2.38,0,0,0,.2,1.18.59.59,0,0,0,1,0,2.25,2.25,0,0,0,.21-1.18,2.18,2.18,0,0,0-.21-1.17.62.62,0,0,0-.51-.29.56.56,0,0,0-.49.26A2.26,2.26,0,0,0,102.67,141.38Z" transform="translate(0.01 -22.63)"/><rect class="繝後Μ_逋ｽ-2" x="109.15" y="1.47" width="2.83" height="113.39"/><rect class="繝後Μ_逋ｽ-2" x="15.6" y="1.47" width="2.83" height="113.39"/><path class="cls-2" d="M10.22,137.84a3.2,3.2,0,0,1,.13-1,1.31,1.31,0,0,1,.39-.6,1.11,1.11,0,0,1,1.15-.09,1,1,0,0,1,.36.33,1.65,1.65,0,0,1,.22.54,4.23,4.23,0,0,1-.05,1.86,1.22,1.22,0,0,1-.38.6,1,1,0,0,1-.65.21,1,1,0,0,1-.82-.37A2.43,2.43,0,0,1,10.22,137.84Zm.45,0a2.18,2.18,0,0,0,.21,1.17.58.58,0,0,0,1,0,3.52,3.52,0,0,0,0-2.34.6.6,0,0,0-.52-.29.56.56,0,0,0-.48.25A2.28,2.28,0,0,0,10.67,137.84Z" transform="translate(0.01 -22.63)"/><path class="cls-2" d="M13.28,139.61v-.5h.5v.5Z" transform="translate(0.01 -22.63)"/><path class="cls-2" d="M14.42,137.84a3.17,3.17,0,0,1,.14-1,1.22,1.22,0,0,1,.38-.6,1,1,0,0,1,.65-.21,1.07,1.07,0,0,1,.51.12,1.13,1.13,0,0,1,.36.33,2.25,2.25,0,0,1,.22.54,3.66,3.66,0,0,1,.08.84,3.2,3.2,0,0,1-.13,1,1.31,1.31,0,0,1-.39.6,1,1,0,0,1-.65.21,1,1,0,0,1-.81-.37A2.35,2.35,0,0,1,14.42,137.84Zm.46,0a2.31,2.31,0,0,0,.2,1.17.58.58,0,0,0,1,0,3.36,3.36,0,0,0,0-2.34.6.6,0,0,0-.51-.29.57.57,0,0,0-.49.25A2.3,2.3,0,0,0,14.88,137.84Z" transform="translate(0.01 -22.63)"/><path class="cls-2" d="M11.88,128.27h-.44v-2.8a2.54,2.54,0,0,1-.42.3,3.27,3.27,0,0,1-.46.23v-.43a2.37,2.37,0,0,0,.64-.42,1.38,1.38,0,0,0,.39-.48h.29Z" transform="translate(0.01 -22.63)"/><path class="cls-2" d="M13.28,128.27v-.5h.5v.5Z" transform="translate(0.01 -22.63)"/><path class="cls-2" d="M14.42,126.5a3.17,3.17,0,0,1,.14-1,1.22,1.22,0,0,1,.38-.6,1,1,0,0,1,.65-.21,1.07,1.07,0,0,1,.51.12,1.13,1.13,0,0,1,.36.33,2.25,2.25,0,0,1,.22.54,3.66,3.66,0,0,1,.08.84,3.2,3.2,0,0,1-.13,1,1.31,1.31,0,0,1-.39.6,1,1,0,0,1-.65.21,1,1,0,0,1-.81-.37A2.35,2.35,0,0,1,14.42,126.5Zm.46,0a2.31,2.31,0,0,0,.2,1.17.58.58,0,0,0,1,0,3.36,3.36,0,0,0,0-2.34.6.6,0,0,0-.51-.29.57.57,0,0,0-.49.25A2.3,2.3,0,0,0,14.88,126.5Z" transform="translate(0.01 -22.63)"/><path class="cls-2" d="M12.53,116.51v.42H10.16a1,1,0,0,1,.05-.3,1.76,1.76,0,0,1,.29-.48,4.54,4.54,0,0,1,.58-.54,4.87,4.87,0,0,0,.79-.76,1,1,0,0,0,.2-.53.6.6,0,0,0-.18-.44.69.69,0,0,0-.49-.18.73.73,0,0,0-.51.19.7.7,0,0,0-.19.53l-.45,0a1.09,1.09,0,0,1,.35-.77,1.21,1.21,0,0,1,.81-.26,1.13,1.13,0,0,1,.81.28.94.94,0,0,1,.3.71,1,1,0,0,1-.08.42,1.75,1.75,0,0,1-.29.44c-.14.15-.37.36-.68.63a5.24,5.24,0,0,0-.51.45,1.33,1.33,0,0,0-.19.24Z" transform="translate(0.01 -22.63)"/><path class="cls-2" d="M13.28,116.93v-.5h.5v.5Z" transform="translate(0.01 -22.63)"/><path class="cls-2" d="M14.42,115.17a3.19,3.19,0,0,1,.14-1,1.24,1.24,0,0,1,.38-.59,1,1,0,0,1,.65-.21,1.19,1.19,0,0,1,.51.11,1.06,1.06,0,0,1,.36.34,2,2,0,0,1,.22.53,3.76,3.76,0,0,1,.08.85,3.09,3.09,0,0,1-.13,1,1.31,1.31,0,0,1-.39.6,1,1,0,0,1-.65.21,1,1,0,0,1-.81-.37A2.32,2.32,0,0,1,14.42,115.17Zm.46,0a2.34,2.34,0,0,0,.2,1.17.59.59,0,0,0,1,0,3.39,3.39,0,0,0,0-2.35.62.62,0,0,0-.51-.29.58.58,0,0,0-.49.26A2.3,2.3,0,0,0,14.88,115.17Z" transform="translate(0.01 -22.63)"/><path class="cls-2" d="M10.22,104.64l.44-.06a1,1,0,0,0,.26.54.64.64,0,0,0,.44.17.71.71,0,0,0,.53-.22.72.72,0,0,0,.21-.53.68.68,0,0,0-.7-.7,1.4,1.4,0,0,0-.31,0l.05-.38h.07a.94.94,0,0,0,.5-.14.51.51,0,0,0,.23-.46.54.54,0,0,0-.17-.4.58.58,0,0,0-.42-.15.57.57,0,0,0-.42.16.75.75,0,0,0-.22.48l-.44-.08a1.1,1.1,0,0,1,.36-.68,1.08,1.08,0,0,1,.71-.25,1.2,1.2,0,0,1,.54.13.9.9,0,0,1,.38.34.87.87,0,0,1,.13.46.8.8,0,0,1-.12.43,1,1,0,0,1-.37.3.86.86,0,0,1,.49.3.93.93,0,0,1,.18.58,1.08,1.08,0,0,1-.35.8,1.2,1.2,0,0,1-.86.32,1.1,1.1,0,0,1-1.14-1Z" transform="translate(0.01 -22.63)"/><path class="cls-2" d="M13.28,105.59v-.5h.5v.5Z" transform="translate(0.01 -22.63)"/><path class="cls-2" d="M14.42,103.82a3.17,3.17,0,0,1,.14-1,1.22,1.22,0,0,1,.38-.6,1,1,0,0,1,.65-.21,1.07,1.07,0,0,1,.51.12,1.13,1.13,0,0,1,.36.33,2.25,2.25,0,0,1,.22.54,3.72,3.72,0,0,1,.08.84,3.2,3.2,0,0,1-.13,1,1.31,1.31,0,0,1-.39.6,1,1,0,0,1-.65.21,1,1,0,0,1-.81-.37A2.33,2.33,0,0,1,14.42,103.82Zm.46,0a2.38,2.38,0,0,0,.2,1.18.62.62,0,0,0,.51.29.61.61,0,0,0,.51-.3,3.36,3.36,0,0,0,0-2.34.6.6,0,0,0-.51-.29.57.57,0,0,0-.49.25A2.33,2.33,0,0,0,14.88,103.82Z" transform="translate(0.01 -22.63)"/><path class="cls-2" d="M11.63,94.25v-.86H10.08V93l1.63-2.32h.36V93h.48v.4h-.48v.86Zm0-1.26V91.38L10.51,93Z" transform="translate(0.01 -22.63)"/><path class="cls-2" d="M13.28,94.25v-.5h.5v.5Z" transform="translate(0.01 -22.63)"/><path class="cls-2" d="M14.42,92.48a3.17,3.17,0,0,1,.14-1,1.24,1.24,0,0,1,.38-.59,1,1,0,0,1,.65-.21.95.95,0,0,1,.87.45,2,2,0,0,1,.22.53,3.72,3.72,0,0,1,.08.84,3.2,3.2,0,0,1-.13,1,1.31,1.31,0,0,1-.39.6,1,1,0,0,1-.65.21,1,1,0,0,1-.81-.37A2.33,2.33,0,0,1,14.42,92.48Zm.46,0a2.38,2.38,0,0,0,.2,1.18.59.59,0,0,0,1,0,2.25,2.25,0,0,0,.21-1.18,2.2,2.2,0,0,0-.21-1.17.62.62,0,0,0-.51-.29.58.58,0,0,0-.49.26A2.26,2.26,0,0,0,14.88,92.48Z" transform="translate(0.01 -22.63)"/><path class="cls-2" d="M10.22,82l.46,0a.87.87,0,0,0,.24.51.64.64,0,0,0,.45.17.71.71,0,0,0,.54-.24.94.94,0,0,0,.22-.64.8.8,0,0,0-.21-.59.75.75,0,0,0-.56-.22A.7.7,0,0,0,11,81a.81.81,0,0,0-.27.25l-.41-.06.34-1.83h1.78v.42H11l-.2,1a1.18,1.18,0,0,1,.68-.23,1.06,1.06,0,0,1,.79.33,1.09,1.09,0,0,1,.32.83,1.27,1.27,0,0,1-.28.84,1.25,1.25,0,0,1-1.74.16A1.08,1.08,0,0,1,10.22,82Z" transform="translate(0.01 -22.63)"/><path class="cls-2" d="M13.28,82.91v-.5h.5v.5Z" transform="translate(0.01 -22.63)"/><path class="cls-2" d="M14.42,81.14a3.17,3.17,0,0,1,.14-1,1.22,1.22,0,0,1,.38-.6,1,1,0,0,1,.65-.21,1.07,1.07,0,0,1,.51.12,1.13,1.13,0,0,1,.36.33,2.35,2.35,0,0,1,.22.53,3.82,3.82,0,0,1,.08.85,3.2,3.2,0,0,1-.13,1,1.31,1.31,0,0,1-.39.6,1,1,0,0,1-.65.21,1,1,0,0,1-.81-.37A2.35,2.35,0,0,1,14.42,81.14Zm.46,0a2.31,2.31,0,0,0,.2,1.17.58.58,0,0,0,1,0,3.36,3.36,0,0,0,0-2.34.6.6,0,0,0-.51-.29.57.57,0,0,0-.49.25A2.3,2.3,0,0,0,14.88,81.14Z" transform="translate(0.01 -22.63)"/><path class="cls-2" d="M12.5,68.86l-.44,0a.9.9,0,0,0-.16-.38.6.6,0,0,0-.44-.18.58.58,0,0,0-.37.11,1,1,0,0,0-.33.44,2.28,2.28,0,0,0-.12.83,1,1,0,0,1,.39-.36,1,1,0,0,1,.48-.11,1,1,0,0,1,.74.32,1.13,1.13,0,0,1,.31.84,1.31,1.31,0,0,1-.14.62,1.07,1.07,0,0,1-.4.44,1,1,0,0,1-.58.16,1.12,1.12,0,0,1-.89-.41,2,2,0,0,1-.35-1.33,2.44,2.44,0,0,1,.38-1.51,1.13,1.13,0,0,1,.9-.41,1,1,0,0,1,.7.24A1,1,0,0,1,12.5,68.86Zm-1.79,1.55a1.07,1.07,0,0,0,.09.43.78.78,0,0,0,.27.32.72.72,0,0,0,.37.11.61.61,0,0,0,.47-.23.85.85,0,0,0,.2-.61.81.81,0,0,0-.19-.58.68.68,0,0,0-.5-.22.7.7,0,0,0-.51.22A.76.76,0,0,0,10.71,70.41Z" transform="translate(0.01 -22.63)"/><path class="cls-2" d="M13.28,71.57v-.5h.5v.5Z" transform="translate(0.01 -22.63)"/><path class="cls-2" d="M14.42,69.8a3.17,3.17,0,0,1,.14-1,1.22,1.22,0,0,1,.38-.6,1,1,0,0,1,.65-.21,1.07,1.07,0,0,1,.51.12,1.13,1.13,0,0,1,.36.33,2.25,2.25,0,0,1,.22.54,3.72,3.72,0,0,1,.08.84,3.2,3.2,0,0,1-.13,1,1.31,1.31,0,0,1-.39.6,1,1,0,0,1-.65.21,1,1,0,0,1-.81-.37A2.35,2.35,0,0,1,14.42,69.8Zm.46,0a2.38,2.38,0,0,0,.2,1.18.62.62,0,0,0,.51.29.61.61,0,0,0,.51-.3,3.36,3.36,0,0,0,0-2.34.6.6,0,0,0-.51-.29.57.57,0,0,0-.49.25A2.3,2.3,0,0,0,14.88,69.8Z" transform="translate(0.01 -22.63)"/><path class="cls-2" d="M10.25,57.12V56.7h2.32V57a4.67,4.67,0,0,0-.68,1,5.35,5.35,0,0,0-.52,1.24,4.88,4.88,0,0,0-.17,1h-.45a4,4,0,0,1,.17-1,4.9,4.9,0,0,1,.45-1.15,5.48,5.48,0,0,1,.63-.94Z" transform="translate(0.01 -22.63)"/><path class="cls-2" d="M13.28,60.23v-.5h.5v.5Z" transform="translate(0.01 -22.63)"/><path class="cls-2" d="M14.42,58.47a3.09,3.09,0,0,1,.14-1,1.22,1.22,0,0,1,.38-.6,1,1,0,0,1,.65-.21,1.19,1.19,0,0,1,.51.11,1.06,1.06,0,0,1,.36.34,2,2,0,0,1,.22.53,3.76,3.76,0,0,1,.08.85,3.09,3.09,0,0,1-.13,1,1.31,1.31,0,0,1-.39.6,1,1,0,0,1-.65.21,1,1,0,0,1-.81-.37A2.32,2.32,0,0,1,14.42,58.47Zm.46,0a2.34,2.34,0,0,0,.2,1.17.6.6,0,0,0,.51.29.62.62,0,0,0,.51-.29,3.39,3.39,0,0,0,0-2.35.62.62,0,0,0-.51-.29.58.58,0,0,0-.49.26A2.3,2.3,0,0,0,14.88,58.47Z" transform="translate(0.01 -22.63)"/><path class="cls-2" d="M10.9,47a.8.8,0,0,1-.41-.29.72.72,0,0,1-.13-.44.87.87,0,0,1,.28-.66,1.19,1.19,0,0,1,1.5,0,.88.88,0,0,1,.29.66.75.75,0,0,1-.13.43.82.82,0,0,1-.4.29.93.93,0,0,1,.5.35.92.92,0,0,1,.17.57,1.06,1.06,0,0,1-.32.77,1.18,1.18,0,0,1-.86.31,1.17,1.17,0,0,1-.85-.31,1,1,0,0,1-.33-.79.93.93,0,0,1,.18-.58A.9.9,0,0,1,10.9,47Zm-.23.91a.8.8,0,0,0,.09.36.53.53,0,0,0,.26.27.72.72,0,0,0,.38.1.73.73,0,0,0,.52-.2.69.69,0,0,0,.2-.52.69.69,0,0,0-.21-.52.71.71,0,0,0-.53-.21.73.73,0,0,0-.51.2A.69.69,0,0,0,10.67,47.86Zm.14-1.66a.57.57,0,0,0,.16.42.57.57,0,0,0,.43.16.56.56,0,0,0,.58-.55.6.6,0,0,0-1-.41A.51.51,0,0,0,10.81,46.2Z" transform="translate(0.01 -22.63)"/><path class="cls-2" d="M13.28,48.89v-.5h.5v.5Z" transform="translate(0.01 -22.63)"/><path class="cls-2" d="M14.42,47.12a3.17,3.17,0,0,1,.14-1,1.19,1.19,0,0,1,.38-.59,1,1,0,0,1,.65-.21.95.95,0,0,1,.87.45,2,2,0,0,1,.22.53,3.72,3.72,0,0,1,.08.84,3.2,3.2,0,0,1-.13,1,1.31,1.31,0,0,1-.39.6,1,1,0,0,1-.65.21,1,1,0,0,1-.81-.37A2.33,2.33,0,0,1,14.42,47.12Zm.46,0a2.38,2.38,0,0,0,.2,1.18.59.59,0,0,0,1,0,2.25,2.25,0,0,0,.21-1.18A2.2,2.2,0,0,0,16.1,46a.62.62,0,0,0-.51-.29.58.58,0,0,0-.49.26A2.26,2.26,0,0,0,14.88,47.12Z" transform="translate(0.01 -22.63)"/><path class="cls-2" d="M10.29,36.72l.42,0a.73.73,0,0,0,.2.44.61.61,0,0,0,.39.13.71.71,0,0,0,.36-.09,1,1,0,0,0,.25-.25,1.42,1.42,0,0,0,.16-.42,2.42,2.42,0,0,0,.07-.54.25.25,0,0,0,0-.08.91.91,0,0,1-.36.34,1,1,0,0,1-.49.13,1,1,0,0,1-.75-.33,1.14,1.14,0,0,1-.31-.85,1.21,1.21,0,0,1,.32-.87,1.07,1.07,0,0,1,.81-.33,1.16,1.16,0,0,1,.63.18,1.18,1.18,0,0,1,.44.54,2.65,2.65,0,0,1,.15,1,3.25,3.25,0,0,1-.15,1.09,1.2,1.2,0,0,1-.44.62,1.13,1.13,0,0,1-.69.21.94.94,0,0,1-1-.89Zm1.79-1.58a.84.84,0,0,0-.2-.6.61.61,0,0,0-.48-.22.65.65,0,0,0-.51.24.87.87,0,0,0-.22.62.74.74,0,0,0,.21.55.67.67,0,0,0,.51.22.63.63,0,0,0,.5-.22A.82.82,0,0,0,12.08,35.14Z" transform="translate(0.01 -22.63)"/><path class="cls-2" d="M13.28,37.55v-.5h.5v.5Z" transform="translate(0.01 -22.63)"/><path class="cls-2" d="M14.42,35.78a3.17,3.17,0,0,1,.14-1,1.19,1.19,0,0,1,.38-.59,1,1,0,0,1,.65-.21.95.95,0,0,1,.87.45,2,2,0,0,1,.22.53,3.72,3.72,0,0,1,.08.84,3.2,3.2,0,0,1-.13,1,1.31,1.31,0,0,1-.39.6,1,1,0,0,1-.65.21,1,1,0,0,1-.81-.37A2.33,2.33,0,0,1,14.42,35.78Zm.46,0a2.38,2.38,0,0,0,.2,1.18.59.59,0,0,0,1,0,2.25,2.25,0,0,0,.21-1.18,2.2,2.2,0,0,0-.21-1.17.62.62,0,0,0-.51-.29.58.58,0,0,0-.49.26A2.26,2.26,0,0,0,14.88,35.78Z" transform="translate(0.01 -22.63)"/><path class="cls-2" d="M9.12,26.22H8.69v-2.8a2.54,2.54,0,0,1-.42.3,3.27,3.27,0,0,1-.46.23v-.43a2.6,2.6,0,0,0,.64-.41,2,2,0,0,0,.39-.48h.28Z" transform="translate(0.01 -22.63)"/><path class="cls-2" d="M10.28,24.46a3.23,3.23,0,0,1,.13-1,1.33,1.33,0,0,1,.39-.59,1,1,0,0,1,.65-.21,1.12,1.12,0,0,1,.5.11.9.9,0,0,1,.36.34,1.51,1.51,0,0,1,.22.53,3.25,3.25,0,0,1,.08.85,3.14,3.14,0,0,1-.13,1,1.22,1.22,0,0,1-.38.6,1.1,1.1,0,0,1-1.47-.16A2.39,2.39,0,0,1,10.28,24.46Zm.45,0a2.23,2.23,0,0,0,.21,1.17.59.59,0,0,0,1,0,2.36,2.36,0,0,0,.2-1.17,2.36,2.36,0,0,0-.2-1.18.63.63,0,0,0-.52-.29.56.56,0,0,0-.48.26A2.26,2.26,0,0,0,10.73,24.46Z" transform="translate(0.01 -22.63)"/><path class="cls-2" d="M13.28,26.22v-.5h.5v.5Z" transform="translate(0.01 -22.63)"/><path class="cls-2" d="M14.42,24.46a3.19,3.19,0,0,1,.14-1,1.24,1.24,0,0,1,.38-.59,1,1,0,0,1,.65-.21,1.19,1.19,0,0,1,.51.11,1.06,1.06,0,0,1,.36.34,2,2,0,0,1,.22.53,3.76,3.76,0,0,1,.08.85,3.14,3.14,0,0,1-.13,1,1.31,1.31,0,0,1-.39.6,1,1,0,0,1-.65.21,1,1,0,0,1-.81-.37A2.32,2.32,0,0,1,14.42,24.46Zm.46,0a2.36,2.36,0,0,0,.2,1.17.59.59,0,0,0,1,0,2.23,2.23,0,0,0,.21-1.17,2.22,2.22,0,0,0-.21-1.18.62.62,0,0,0-.51-.29.58.58,0,0,0-.49.26A2.28,2.28,0,0,0,14.88,24.46Z" transform="translate(0.01 -22.63)"/><rect class="邱喟0.5pt-5" x="18.44" y="1.47" width="90.71" height="113.39"/></g><g id="English"><rect class="繝後Μ_逋ｽ-2" x="21.27" y="50.37" width="47.91" height="16.58"/><path class="cls-2" d="M24.47,77.86l.58,0a1.32,1.32,0,0,0,.19.57,1.13,1.13,0,0,0,.47.37,1.81,1.81,0,0,0,.72.13,1.72,1.72,0,0,0,.62-.1.89.89,0,0,0,.4-.29.64.64,0,0,0,.13-.4.58.58,0,0,0-.13-.38.86.86,0,0,0-.41-.27,7.91,7.91,0,0,0-.83-.23,4.09,4.09,0,0,1-.9-.29,1.34,1.34,0,0,1-.5-.43,1.08,1.08,0,0,1-.16-.58,1.12,1.12,0,0,1,.2-.66,1.24,1.24,0,0,1,.58-.47,2.46,2.46,0,0,1,1.77,0,1.36,1.36,0,0,1,.61.49A1.42,1.42,0,0,1,28,76l-.59,0a.93.93,0,0,0-.32-.67,1.24,1.24,0,0,0-.81-.22,1.34,1.34,0,0,0-.81.2.63.63,0,0,0-.26.5.54.54,0,0,0,.18.41,2.39,2.39,0,0,0,.93.33,5.21,5.21,0,0,1,1,.3,1.39,1.39,0,0,1,.6.47,1.14,1.14,0,0,1,.19.66,1.27,1.27,0,0,1-.21.7,1.34,1.34,0,0,1-.61.51,2.13,2.13,0,0,1-.9.19,2.66,2.66,0,0,1-1.05-.19,1.46,1.46,0,0,1-.67-.55A1.63,1.63,0,0,1,24.47,77.86Z" transform="translate(0.01 -22.63)"/><path class="cls-2" d="M28.94,79.36V74.7h.57v1.67a1.28,1.28,0,0,1,1-.46,1.33,1.33,0,0,1,.65.15.86.86,0,0,1,.4.4,1.91,1.91,0,0,1,.12.76v2.14h-.57V77.22a.84.84,0,0,0-.19-.62.69.69,0,0,0-.52-.2,1,1,0,0,0-.48.13.74.74,0,0,0-.32.36,1.7,1.7,0,0,0-.1.62v1.85Z" transform="translate(0.01 -22.63)"/><path class="cls-2" d="M32.34,77.67a1.74,1.74,0,0,1,.53-1.39,1.56,1.56,0,0,1,1.06-.37,1.48,1.48,0,0,1,1.13.46,1.69,1.69,0,0,1,.44,1.25,2.25,2.25,0,0,1-.19,1,1.39,1.39,0,0,1-.57.58,1.73,1.73,0,0,1-.81.2A1.52,1.52,0,0,1,32.78,79,1.82,1.82,0,0,1,32.34,77.67Zm.59,0a1.48,1.48,0,0,0,.28,1,.9.9,0,0,0,.72.32.88.88,0,0,0,.7-.32,1.48,1.48,0,0,0,.29-1,1.42,1.42,0,0,0-.29-1,.91.91,0,0,0-.7-.32.93.93,0,0,0-.72.32A1.5,1.5,0,0,0,32.93,77.67Z" transform="translate(0.01 -22.63)"/><path class="cls-2" d="M36.17,79.36V76h.51v.51A1.47,1.47,0,0,1,37,76a.72.72,0,0,1,.37-.11,1.15,1.15,0,0,1,.59.18l-.2.53a.84.84,0,0,0-.42-.12.55.55,0,0,0-.33.11.68.68,0,0,0-.22.32,2.29,2.29,0,0,0-.09.66v1.77Z" transform="translate(0.01 -22.63)"/><path class="cls-2" d="M39.58,78.85l.09.5a2.47,2.47,0,0,1-.43.05,1,1,0,0,1-.49-.1.55.55,0,0,1-.24-.26,2.19,2.19,0,0,1-.07-.67V76.43H38V76h.42v-.84l.57-.34V76h.57v.44H39v2a1.08,1.08,0,0,0,0,.32.26.26,0,0,0,.1.11.45.45,0,0,0,.19,0Z" transform="translate(0.01 -22.63)"/><path class="cls-2" d="M39.92,78v-.57h1.76V78Z" transform="translate(0.01 -22.63)"/><path class="cls-2" d="M44.49,79.36v-.43a1,1,0,0,1-.94.5,1.31,1.31,0,0,1-.74-.22,1.38,1.38,0,0,1-.52-.62,2.07,2.07,0,0,1-.19-.92,2.42,2.42,0,0,1,.17-.91,1.32,1.32,0,0,1,.5-.63,1.35,1.35,0,0,1,.76-.22,1.08,1.08,0,0,1,.54.13,1,1,0,0,1,.39.33V74.7H45v4.66Zm-1.8-1.69a1.46,1.46,0,0,0,.27,1,.81.81,0,0,0,.65.32.8.8,0,0,0,.63-.3,1.41,1.41,0,0,0,.26-.94,1.55,1.55,0,0,0-.26-1,.82.82,0,0,0-1.3,0A1.55,1.55,0,0,0,42.69,77.67Z" transform="translate(0.01 -22.63)"/><path class="cls-2" d="M48.13,79.36v-.5a1.23,1.23,0,0,1-1.07.57,1.42,1.42,0,0,1-.55-.11.87.87,0,0,1-.39-.29,1.06,1.06,0,0,1-.17-.42,2.4,2.4,0,0,1,0-.54V76h.57v1.86a2.73,2.73,0,0,0,0,.61.54.54,0,0,0,.23.35.67.67,0,0,0,.43.13.91.91,0,0,0,.48-.13.74.74,0,0,0,.32-.36,1.86,1.86,0,0,0,.09-.66V76h.57v3.37Z" transform="translate(0.01 -22.63)"/><path class="cls-2" d="M49.53,79.36V76h.52v.51a1.47,1.47,0,0,1,.36-.48.67.67,0,0,1,.37-.11,1.12,1.12,0,0,1,.58.18l-.19.53a.84.84,0,0,0-.42-.12.58.58,0,0,0-.34.11.6.6,0,0,0-.21.32,2,2,0,0,0-.1.66v1.77Z" transform="translate(0.01 -22.63)"/><path class="cls-2" d="M53.9,78.94a2,2,0,0,1-.61.38,1.64,1.64,0,0,1-.63.11,1.22,1.22,0,0,1-.85-.27.89.89,0,0,1-.3-.69.94.94,0,0,1,.11-.45,1,1,0,0,1,.3-.33,1.11,1.11,0,0,1,.41-.19,4.17,4.17,0,0,1,.51-.09,5.19,5.19,0,0,0,1-.19,1.14,1.14,0,0,0,0-.15.65.65,0,0,0-.16-.49,1,1,0,0,0-.66-.2,1,1,0,0,0-.59.14.86.86,0,0,0-.28.5L51.61,77a1.34,1.34,0,0,1,.25-.58,1,1,0,0,1,.5-.34,2.26,2.26,0,0,1,.77-.12,2,2,0,0,1,.7.1.93.93,0,0,1,.4.26.87.87,0,0,1,.17.39,2.94,2.94,0,0,1,0,.52v.76a6.8,6.8,0,0,0,0,1,1.25,1.25,0,0,0,.14.41H54A1.29,1.29,0,0,1,53.9,78.94Zm0-1.28a3.73,3.73,0,0,1-.93.22,2.25,2.25,0,0,0-.5.11.59.59,0,0,0-.22.19.43.43,0,0,0-.08.27.5.5,0,0,0,.17.38.76.76,0,0,0,.51.15,1.11,1.11,0,0,0,.58-.14.89.89,0,0,0,.38-.39,1.43,1.43,0,0,0,.09-.58Z" transform="translate(0.01 -22.63)"/><path class="cls-2" d="M56.56,78.85l.09.5a2.47,2.47,0,0,1-.43.05,1,1,0,0,1-.49-.1.55.55,0,0,1-.24-.26,2.19,2.19,0,0,1-.07-.67V76.43H55V76h.42v-.84l.57-.34V76h.57v.44H56v2a1.08,1.08,0,0,0,0,.32.26.26,0,0,0,.1.11.45.45,0,0,0,.19,0Z" transform="translate(0.01 -22.63)"/><path class="cls-2" d="M57.13,75.36V74.7h.57v.66Zm0,4V76h.57v3.37Z" transform="translate(0.01 -22.63)"/><path class="cls-2" d="M58.36,77.67a1.74,1.74,0,0,1,.52-1.39,1.54,1.54,0,0,1,1.06-.37,1.48,1.48,0,0,1,1.13.46,1.69,1.69,0,0,1,.44,1.25,2.25,2.25,0,0,1-.19,1,1.39,1.39,0,0,1-.57.58,1.73,1.73,0,0,1-.81.2A1.52,1.52,0,0,1,58.79,79,1.82,1.82,0,0,1,58.36,77.67Zm.58,0a1.48,1.48,0,0,0,.28,1,.9.9,0,0,0,.72.32.88.88,0,0,0,.7-.32,1.48,1.48,0,0,0,.29-1,1.42,1.42,0,0,0-.29-1,.91.91,0,0,0-.7-.32.93.93,0,0,0-.72.32A1.5,1.5,0,0,0,58.94,77.67Z" transform="translate(0.01 -22.63)"/><path class="cls-2" d="M62.18,79.36V76h.52v.47a1.21,1.21,0,0,1,1.07-.55,1.47,1.47,0,0,1,.56.11.82.82,0,0,1,.38.29,1,1,0,0,1,.18.42,3.37,3.37,0,0,1,0,.55v2.08h-.57v-2a1.44,1.44,0,0,0-.07-.53.54.54,0,0,0-.23-.27.77.77,0,0,0-.4-.1.91.91,0,0,0-.63.23,1.11,1.11,0,0,0-.27.88v1.84Z" transform="translate(0.01 -22.63)"/><path class="cls-2" d="M24.6,87.16V83.79h.51v.51a1.62,1.62,0,0,1,.37-.48.66.66,0,0,1,.36-.11,1.12,1.12,0,0,1,.59.18l-.19.53a.84.84,0,0,0-.42-.12.58.58,0,0,0-.34.11.6.6,0,0,0-.21.32,2,2,0,0,0-.1.66v1.77Z" transform="translate(0.01 -22.63)"/><path class="cls-2" d="M29,87.16v-.5a1.23,1.23,0,0,1-1.07.57,1.51,1.51,0,0,1-.56-.11.89.89,0,0,1-.38-.29,1.24,1.24,0,0,1-.18-.42,3.48,3.48,0,0,1,0-.54V83.79h.57v1.86a2.73,2.73,0,0,0,0,.61.56.56,0,0,0,.22.35.7.7,0,0,0,.44.13.91.91,0,0,0,.48-.13.79.79,0,0,0,.32-.36,1.86,1.86,0,0,0,.09-.66v-1.8h.57v3.37Z" transform="translate(0.01 -22.63)"/><path class="cls-2" d="M30.39,87.16V83.79h.51v.47A1.24,1.24,0,0,1,32,83.71a1.43,1.43,0,0,1,.56.11.91.91,0,0,1,.39.29,1.13,1.13,0,0,1,.17.42,2.34,2.34,0,0,1,0,.55v2.08h-.58v-2a1.75,1.75,0,0,0-.06-.53.57.57,0,0,0-.24-.27.72.72,0,0,0-.4-.1.91.91,0,0,0-.63.23,1.15,1.15,0,0,0-.26.88v1.84Z" transform="translate(0.01 -22.63)"/><path class="cls-2" d="M34,87.16V83.79h.52v.47a1.21,1.21,0,0,1,1.07-.55,1.47,1.47,0,0,1,.56.11.82.82,0,0,1,.38.29,1,1,0,0,1,.18.42,3.37,3.37,0,0,1,0,.55v2.08h-.57v-2a1.44,1.44,0,0,0-.07-.53.54.54,0,0,0-.23-.27.77.77,0,0,0-.4-.1.89.89,0,0,0-.63.23,1.11,1.11,0,0,0-.27.88v1.84Z" transform="translate(0.01 -22.63)"/><path class="cls-2" d="M37.62,83.16V82.5h.57v.66Zm0,4V83.79h.57v3.37Z" transform="translate(0.01 -22.63)"/><path class="cls-2" d="M39.06,87.16V83.79h.51v.47a1.24,1.24,0,0,1,1.08-.55,1.47,1.47,0,0,1,.56.11.82.82,0,0,1,.38.29,1.33,1.33,0,0,1,.18.42,3.37,3.37,0,0,1,0,.55v2.08h-.57v-2a1.44,1.44,0,0,0-.07-.53.54.54,0,0,0-.23-.27.77.77,0,0,0-.4-.1.88.88,0,0,0-.63.23,1.11,1.11,0,0,0-.27.88v1.84Z" transform="translate(0.01 -22.63)"/><path class="cls-2" d="M42.57,87.44l.56.08a.5.5,0,0,0,.19.37.93.93,0,0,0,.58.16,1,1,0,0,0,.61-.16.78.78,0,0,0,.3-.44,3.89,3.89,0,0,0,0-.74,1.17,1.17,0,0,1-.94.45,1.27,1.27,0,0,1-1.07-.5,1.92,1.92,0,0,1-.38-1.21,2.35,2.35,0,0,1,.17-.89,1.46,1.46,0,0,1,.51-.63,1.35,1.35,0,0,1,.78-.22,1.2,1.2,0,0,1,1,.48v-.4h.53V86.7a2.94,2.94,0,0,1-.16,1.12,1.2,1.2,0,0,1-.51.51,1.74,1.74,0,0,1-.86.19,1.61,1.61,0,0,1-1-.27A.9.9,0,0,1,42.57,87.44Zm.47-2a1.44,1.44,0,0,0,.27,1,.83.83,0,0,0,.66.3.85.85,0,0,0,.66-.3,1.8,1.8,0,0,0,0-1.88.84.84,0,0,0-1.31,0A1.37,1.37,0,0,0,43,85.41Z" transform="translate(0.01 -22.63)"/><path class="cls-2" d="M48.09,87.16V83.79h.52v.51a1.47,1.47,0,0,1,.36-.48.66.66,0,0,1,.36-.11,1.12,1.12,0,0,1,.59.18l-.2.53a.78.78,0,0,0-.41-.12.58.58,0,0,0-.34.11.6.6,0,0,0-.21.32,2,2,0,0,0-.1.66v1.77Z" transform="translate(0.01 -22.63)"/><path class="cls-2" d="M52.46,86.74a2,2,0,0,1-.61.38,1.67,1.67,0,0,1-.63.11,1.22,1.22,0,0,1-.85-.27.89.89,0,0,1-.3-.69.94.94,0,0,1,.11-.45.87.87,0,0,1,.3-.33,1.11,1.11,0,0,1,.41-.19,4.31,4.31,0,0,1,.5-.09,5.17,5.17,0,0,0,1-.19c0-.08,0-.13,0-.15a.62.62,0,0,0-.17-.49.94.94,0,0,0-.65-.2,1,1,0,0,0-.59.14.86.86,0,0,0-.28.5l-.56-.07a1.34,1.34,0,0,1,.25-.58,1,1,0,0,1,.5-.34,2.26,2.26,0,0,1,.77-.12,2,2,0,0,1,.7.1.83.83,0,0,1,.39.26.79.79,0,0,1,.18.39A2.94,2.94,0,0,1,53,85v.76a6.8,6.8,0,0,0,0,1,1.25,1.25,0,0,0,.14.41h-.6A1.61,1.61,0,0,1,52.46,86.74Zm-.05-1.28a3.85,3.85,0,0,1-.93.22,2.25,2.25,0,0,0-.5.11.59.59,0,0,0-.22.19.43.43,0,0,0-.08.27.5.5,0,0,0,.17.38.76.76,0,0,0,.51.15,1.11,1.11,0,0,0,.58-.14.89.89,0,0,0,.38-.39,1.43,1.43,0,0,0,.09-.58Z" transform="translate(0.01 -22.63)"/><path class="cls-2" d="M53.88,87.16V83.79h.51v.47a1.24,1.24,0,0,1,1.07-.55,1.43,1.43,0,0,1,.56.11.91.91,0,0,1,.39.29,1.13,1.13,0,0,1,.17.42,3.07,3.07,0,0,1,0,.55v2.08H56v-2a1.75,1.75,0,0,0-.06-.53.62.62,0,0,0-.24-.27.74.74,0,0,0-.4-.1.91.91,0,0,0-.63.23,1.15,1.15,0,0,0-.26.88v1.84Z" transform="translate(0.01 -22.63)"/><path class="cls-2" d="M57.39,87.44l.55.08a.54.54,0,0,0,.2.37.91.91,0,0,0,.58.16,1,1,0,0,0,.61-.16.76.76,0,0,0,.29-.44,3.89,3.89,0,0,0,0-.74,1.16,1.16,0,0,1-.93.45,1.3,1.3,0,0,1-1.08-.5,2,2,0,0,1-.38-1.21,2.18,2.18,0,0,1,.18-.89,1.37,1.37,0,0,1,.5-.63,1.35,1.35,0,0,1,.78-.22,1.22,1.22,0,0,1,1,.48v-.4h.52V86.7a2.75,2.75,0,0,1-.16,1.12,1.12,1.12,0,0,1-.5.51,1.76,1.76,0,0,1-.86.19,1.59,1.59,0,0,1-1-.27A.9.9,0,0,1,57.39,87.44Zm.47-2a1.5,1.5,0,0,0,.26,1,.85.85,0,0,0,.66.3.83.83,0,0,0,.66-.3,1.77,1.77,0,0,0,0-1.88.88.88,0,0,0-.67-.32.82.82,0,0,0-.64.31A1.37,1.37,0,0,0,57.86,85.41Z" transform="translate(0.01 -22.63)"/><path class="cls-2" d="M63.41,86.07l.59.07a1.42,1.42,0,0,1-.51.81,1.57,1.57,0,0,1-1,.28,1.55,1.55,0,0,1-1.17-.45,1.79,1.79,0,0,1-.43-1.28,1.86,1.86,0,0,1,.43-1.32,1.52,1.52,0,0,1,1.14-.47,1.41,1.41,0,0,1,1.1.46A1.81,1.81,0,0,1,64,85.46v.16H61.51a1.28,1.28,0,0,0,.31.85,1,1,0,0,0,.71.29.88.88,0,0,0,.53-.16A1.05,1.05,0,0,0,63.41,86.07Zm-1.87-.92h1.88a1.08,1.08,0,0,0-.22-.64.86.86,0,0,0-.7-.33.94.94,0,0,0-.67.26A1.1,1.1,0,0,0,61.54,85.15Z" transform="translate(0.01 -22.63)"/><rect class="繝後Μ_逋ｽ-2" x="22.02" y="93.1" width="41.46" height="16.58"/><path class="cls-2" d="M28.1,120.46l.62.15a2.12,2.12,0,0,1-.7,1.16,1.91,1.91,0,0,1-1.23.4,2.14,2.14,0,0,1-1.22-.31,1.84,1.84,0,0,1-.72-.89,3,3,0,0,1-.25-1.24,2.8,2.8,0,0,1,.28-1.27,1.84,1.84,0,0,1,.79-.82,2.28,2.28,0,0,1,1.13-.28,1.93,1.93,0,0,1,1.17.35,1.88,1.88,0,0,1,.67,1l-.61.14a1.48,1.48,0,0,0-.47-.74,1.26,1.26,0,0,0-.77-.23,1.52,1.52,0,0,0-.9.26,1.37,1.37,0,0,0-.51.69,3,3,0,0,0-.14.89,2.77,2.77,0,0,0,.17,1,1.24,1.24,0,0,0,.54.66,1.47,1.47,0,0,0,.79.22,1.3,1.3,0,0,0,.87-.3A1.49,1.49,0,0,0,28.1,120.46Z" transform="translate(0.01 -22.63)"/><path class="cls-2" d="M29.19,120.4a1.72,1.72,0,0,1,.52-1.38,1.57,1.57,0,0,1,1.06-.38,1.51,1.51,0,0,1,1.14.46,1.74,1.74,0,0,1,.44,1.26,2.22,2.22,0,0,1-.2,1,1.39,1.39,0,0,1-.57.58,1.6,1.6,0,0,1-.81.2,1.51,1.51,0,0,1-1.14-.45A1.78,1.78,0,0,1,29.19,120.4Zm.59,0a1.42,1.42,0,0,0,.28,1,.88.88,0,0,0,.71.32.9.9,0,0,0,.71-.32,1.45,1.45,0,0,0,.28-1,1.32,1.32,0,0,0-.29-.94.87.87,0,0,0-.7-.33.89.89,0,0,0-.71.33A1.39,1.39,0,0,0,29.78,120.4Z" transform="translate(0.01 -22.63)"/><path class="cls-2" d="M33,122.09v-3.37h.51v.48a1.22,1.22,0,0,1,1.07-.56,1.43,1.43,0,0,1,.56.11.91.91,0,0,1,.39.29,1.13,1.13,0,0,1,.17.42,3.21,3.21,0,0,1,0,.56v2.07h-.58v-2a1.63,1.63,0,0,0-.06-.52.6.6,0,0,0-.24-.28.74.74,0,0,0-.4-.1.91.91,0,0,0-.63.23,1.17,1.17,0,0,0-.26.88v1.84Z" transform="translate(0.01 -22.63)"/><path class="cls-2" d="M37.88,121.58l.08.5a1.72,1.72,0,0,1-.43,0,.9.9,0,0,1-.48-.1.48.48,0,0,1-.24-.25,2,2,0,0,1-.07-.68v-1.94h-.42v-.44h.42v-.84l.56-.34v1.18h.58v.44H37.3v2a1,1,0,0,0,0,.32.35.35,0,0,0,.1.11.37.37,0,0,0,.2,0Z" transform="translate(0.01 -22.63)"/><path class="cls-2" d="M38.44,118.09v-.65H39v.65Zm0,4v-3.37H39v3.37Z" transform="translate(0.01 -22.63)"/><path class="cls-2" d="M39.88,122.09v-3.37h.52v.48a1.2,1.2,0,0,1,1.07-.56,1.47,1.47,0,0,1,.56.11.82.82,0,0,1,.38.29,1,1,0,0,1,.18.42,3.51,3.51,0,0,1,0,.56v2.07h-.57v-2a1.34,1.34,0,0,0-.07-.52.53.53,0,0,0-.23-.28.77.77,0,0,0-.4-.1.88.88,0,0,0-.63.23,1.13,1.13,0,0,0-.27.88v1.84Z" transform="translate(0.01 -22.63)"/><path class="cls-2" d="M45.71,122.09v-.5a1.25,1.25,0,0,1-1.07.57,1.3,1.3,0,0,1-.56-.11.92.92,0,0,1-.56-.71,2.3,2.3,0,0,1,0-.53v-2.09h.57v1.87a3.5,3.5,0,0,0,0,.6.57.57,0,0,0,.23.35.67.67,0,0,0,.43.13.91.91,0,0,0,.48-.13.74.74,0,0,0,.32-.36,1.83,1.83,0,0,0,.1-.66v-1.8h.57v3.37Z" transform="translate(0.01 -22.63)"/><path class="cls-2" d="M46.9,120.4a1.72,1.72,0,0,1,.52-1.38,1.57,1.57,0,0,1,1.06-.38,1.51,1.51,0,0,1,1.14.46,1.74,1.74,0,0,1,.44,1.26,2.22,2.22,0,0,1-.2,1,1.39,1.39,0,0,1-.57.58,1.6,1.6,0,0,1-.81.2,1.51,1.51,0,0,1-1.14-.45A1.78,1.78,0,0,1,46.9,120.4Zm.59,0a1.42,1.42,0,0,0,.28,1,.88.88,0,0,0,.71.32.9.9,0,0,0,.71-.32,1.45,1.45,0,0,0,.28-1,1.32,1.32,0,0,0-.29-.94.87.87,0,0,0-.7-.33.89.89,0,0,0-.71.33A1.39,1.39,0,0,0,47.49,120.4Z" transform="translate(0.01 -22.63)"/><path class="cls-2" d="M52.93,122.09v-.5a1.22,1.22,0,0,1-1.06.57,1.3,1.3,0,0,1-.56-.11.92.92,0,0,1-.56-.71,2.3,2.3,0,0,1,0-.53v-2.09h.57v1.87a3.5,3.5,0,0,0,0,.6.57.57,0,0,0,.23.35.67.67,0,0,0,.43.13.91.91,0,0,0,.48-.13.74.74,0,0,0,.32-.36,1.83,1.83,0,0,0,.1-.66v-1.8h.57v3.37Z" transform="translate(0.01 -22.63)"/><path class="cls-2" d="M54.11,121.08l.57-.09a.79.79,0,0,0,.26.52.94.94,0,0,0,.61.18.86.86,0,0,0,.58-.16.46.46,0,0,0,.19-.37.36.36,0,0,0-.16-.31,2.83,2.83,0,0,0-.59-.19,6.8,6.8,0,0,1-.87-.27.91.91,0,0,1-.37-.33.84.84,0,0,1-.12-.45.8.8,0,0,1,.1-.41.87.87,0,0,1,.28-.32,1,1,0,0,1,.36-.17,1.63,1.63,0,0,1,.5-.07,1.9,1.9,0,0,1,.7.12.9.9,0,0,1,.44.31,1.31,1.31,0,0,1,.2.52l-.56.07a.61.61,0,0,0-.22-.4.82.82,0,0,0-.52-.15.91.91,0,0,0-.56.13.4.4,0,0,0-.17.31.31.31,0,0,0,.07.2.53.53,0,0,0,.22.15l.5.14a6.75,6.75,0,0,1,.85.27.88.88,0,0,1,.38.3.83.83,0,0,1,.13.49.91.91,0,0,1-.17.54,1.18,1.18,0,0,1-.48.39,1.73,1.73,0,0,1-.71.13,1.61,1.61,0,0,1-1-.27A1.29,1.29,0,0,1,54.11,121.08Z" transform="translate(0.01 -22.63)"/><path class="cls-2" d="M24.7,129.89v-3.37h.51V127a1.43,1.43,0,0,1,.37-.47.6.6,0,0,1,.36-.12,1.06,1.06,0,0,1,.59.19l-.19.53a.76.76,0,0,0-.42-.13.52.52,0,0,0-.34.12.54.54,0,0,0-.21.31,2,2,0,0,0-.1.66v1.77Z" transform="translate(0.01 -22.63)"/><path class="cls-2" d="M29.08,129.89v-.5A1.23,1.23,0,0,1,28,130a1.33,1.33,0,0,1-.56-.11.89.89,0,0,1-.38-.29,1.16,1.16,0,0,1-.18-.42,3.33,3.33,0,0,1,0-.53v-2.09h.57v1.87a2.69,2.69,0,0,0,0,.6.56.56,0,0,0,.22.35.7.7,0,0,0,.44.13.91.91,0,0,0,.48-.13.79.79,0,0,0,.32-.36,1.86,1.86,0,0,0,.09-.66v-1.8h.57v3.37Z" transform="translate(0.01 -22.63)"/><path class="cls-2" d="M30.49,129.89v-3.37H31V127a1.22,1.22,0,0,1,1.07-.56,1.43,1.43,0,0,1,.56.11.91.91,0,0,1,.39.29,1.13,1.13,0,0,1,.17.42,2.44,2.44,0,0,1,0,.56v2.07h-.58v-2a1.63,1.63,0,0,0-.06-.52.55.55,0,0,0-.24-.28.72.72,0,0,0-.4-.1.91.91,0,0,0-.63.23,1.17,1.17,0,0,0-.26.88v1.84Z" transform="translate(0.01 -22.63)"/><path class="cls-2" d="M34.1,129.89v-3.37h.52V127a1.2,1.2,0,0,1,1.07-.56,1.47,1.47,0,0,1,.56.11.82.82,0,0,1,.38.29,1,1,0,0,1,.18.42,3.51,3.51,0,0,1,0,.56v2.07h-.57v-2a1.34,1.34,0,0,0-.07-.52A.53.53,0,0,0,36,127a.77.77,0,0,0-.4-.1.89.89,0,0,0-.63.23,1.13,1.13,0,0,0-.27.88v1.84Z" transform="translate(0.01 -22.63)"/><path class="cls-2" d="M37.72,125.89v-.65h.57v.65Zm0,4v-3.37h.57v3.37Z" transform="translate(0.01 -22.63)"/><path class="cls-2" d="M39.16,129.89v-3.37h.51V127a1.23,1.23,0,0,1,1.08-.56,1.47,1.47,0,0,1,.56.11.82.82,0,0,1,.38.29,1.33,1.33,0,0,1,.18.42,3.51,3.51,0,0,1,0,.56v2.07h-.57v-2a1.34,1.34,0,0,0-.07-.52A.53.53,0,0,0,41,127a.77.77,0,0,0-.4-.1.88.88,0,0,0-.63.23,1.13,1.13,0,0,0-.27.88v1.84Z" transform="translate(0.01 -22.63)"/><path class="cls-2" d="M42.67,130.17l.56.08a.48.48,0,0,0,.19.37.93.93,0,0,0,.58.16,1,1,0,0,0,.61-.16.78.78,0,0,0,.3-.44,3.83,3.83,0,0,0,0-.73,1.19,1.19,0,0,1-.94.44,1.27,1.27,0,0,1-1.07-.5,1.92,1.92,0,0,1-.38-1.21,2.21,2.21,0,0,1,.17-.89,1.46,1.46,0,0,1,.51-.63,1.43,1.43,0,0,1,.78-.22,1.2,1.2,0,0,1,1,.48v-.4h.53v2.91a2.9,2.9,0,0,1-.16,1.12,1.22,1.22,0,0,1-.51.52,1.85,1.85,0,0,1-.86.19,1.61,1.61,0,0,1-1-.27A.93.93,0,0,1,42.67,130.17Zm.47-2a1.44,1.44,0,0,0,.27,1,.83.83,0,0,0,.66.3.85.85,0,0,0,.66-.3,1.8,1.8,0,0,0,0-1.88.84.84,0,0,0-1.31,0A1.38,1.38,0,0,0,43.14,128.14Z" transform="translate(0.01 -22.63)"/><path class="cls-2" d="M48.19,129.89v-3.37h.51V127a1.43,1.43,0,0,1,.37-.47.6.6,0,0,1,.36-.12,1.06,1.06,0,0,1,.59.19l-.2.53a.73.73,0,0,0-.41-.13.52.52,0,0,0-.34.12.54.54,0,0,0-.21.31,2,2,0,0,0-.1.66v1.77Z" transform="translate(0.01 -22.63)"/><path class="cls-2" d="M52.56,129.47a2,2,0,0,1-.61.38,1.67,1.67,0,0,1-.63.11,1.22,1.22,0,0,1-.85-.27.89.89,0,0,1-.3-.69.95.95,0,0,1,.4-.78A1.46,1.46,0,0,1,51,128a3.06,3.06,0,0,1,.5-.08,5,5,0,0,0,1-.2c0-.08,0-.13,0-.15a.62.62,0,0,0-.17-.49.94.94,0,0,0-.65-.2,1,1,0,0,0-.59.15.83.83,0,0,0-.28.5l-.56-.08a1.34,1.34,0,0,1,.25-.58,1,1,0,0,1,.5-.34,2.26,2.26,0,0,1,.77-.12,2,2,0,0,1,.7.1.92.92,0,0,1,.39.26.79.79,0,0,1,.18.39,2.94,2.94,0,0,1,0,.52v.77a6.72,6.72,0,0,0,0,1,1.25,1.25,0,0,0,.14.41h-.6A1.61,1.61,0,0,1,52.56,129.47Zm-.05-1.27a4.51,4.51,0,0,1-.93.21,2.14,2.14,0,0,0-.5.12.44.44,0,0,0-.22.18.43.43,0,0,0-.08.27.49.49,0,0,0,.17.38.69.69,0,0,0,.51.16,1.11,1.11,0,0,0,.58-.15.84.84,0,0,0,.38-.39,1.41,1.41,0,0,0,.09-.57Z" transform="translate(0.01 -22.63)"/><path class="cls-2" d="M54,129.89v-3.37h.51V127a1.22,1.22,0,0,1,1.07-.56,1.43,1.43,0,0,1,.56.11.91.91,0,0,1,.39.29,1.13,1.13,0,0,1,.17.42,3.21,3.21,0,0,1,0,.56v2.07h-.58v-2a1.63,1.63,0,0,0-.06-.52.6.6,0,0,0-.24-.28.74.74,0,0,0-.4-.1.91.91,0,0,0-.63.23,1.17,1.17,0,0,0-.26.88v1.84Z" transform="translate(0.01 -22.63)"/><path class="cls-2" d="M57.49,130.17l.55.08a.52.52,0,0,0,.2.37.91.91,0,0,0,.58.16,1,1,0,0,0,.61-.16.76.76,0,0,0,.29-.44,3.83,3.83,0,0,0,0-.73,1.18,1.18,0,0,1-.93.44,1.3,1.3,0,0,1-1.08-.5,2,2,0,0,1-.38-1.21,2.21,2.21,0,0,1,.18-.89,1.37,1.37,0,0,1,.5-.63,1.43,1.43,0,0,1,.78-.22,1.22,1.22,0,0,1,1,.48v-.4h.52v2.91a2.72,2.72,0,0,1-.16,1.12,1.11,1.11,0,0,1-.51.52,1.81,1.81,0,0,1-.85.19,1.59,1.59,0,0,1-1-.27A.93.93,0,0,1,57.49,130.17Zm.47-2a1.5,1.5,0,0,0,.26,1,.85.85,0,0,0,.66.3.83.83,0,0,0,.66-.3,1.77,1.77,0,0,0,0-1.88.88.88,0,0,0-.67-.32.82.82,0,0,0-.64.31A1.38,1.38,0,0,0,58,128.14Z" transform="translate(0.01 -22.63)"/><path class="cls-2" d="M63.51,128.8l.59.08a1.43,1.43,0,0,1-.51.8,1.59,1.59,0,0,1-1,.28,1.55,1.55,0,0,1-1.17-.45,1.77,1.77,0,0,1-.43-1.28,1.86,1.86,0,0,1,.43-1.32,1.52,1.52,0,0,1,1.14-.47,1.45,1.45,0,0,1,1.1.46,1.82,1.82,0,0,1,.43,1.3v.15H61.61a1.28,1.28,0,0,0,.31.85.92.92,0,0,0,.71.29.88.88,0,0,0,.53-.16A1.05,1.05,0,0,0,63.51,128.8Zm-1.87-.92h1.88a1.18,1.18,0,0,0-.22-.64.86.86,0,0,0-.7-.33.94.94,0,0,0-.67.26A1.12,1.12,0,0,0,61.64,127.88Z" transform="translate(0.01 -22.63)"/><path class="cls-2" d="M4.64,98.27H.54V99.8H0V96.11H.54v1.54h4.1Z" transform="translate(0.01 -22.63)"/><path class="cls-2" d="M3,95.77a1.75,1.75,0,0,1-1.38-.52,1.58,1.58,0,0,1-.38-1.06,1.5,1.5,0,0,1,.46-1.14,1.74,1.74,0,0,1,1.26-.44,2.22,2.22,0,0,1,1,.2,1.42,1.42,0,0,1,.58.56,1.64,1.64,0,0,1,.21.82,1.52,1.52,0,0,1-.46,1.14A1.82,1.82,0,0,1,3,95.77Zm0-.59a1.41,1.41,0,0,0,1-.28.91.91,0,0,0,.33-.71.89.89,0,0,0-.33-.71,1.43,1.43,0,0,0-1-.28,1.38,1.38,0,0,0-.95.28A.95.95,0,0,0,2,94.9,1.39,1.39,0,0,0,3,95.18Z" transform="translate(0.01 -22.63)"/><path class="cls-2" d="M4.64,92H1.27v-.52h.51a1.31,1.31,0,0,1-.47-.36.61.61,0,0,1-.12-.37,1,1,0,0,1,.19-.58l.53.19a.76.76,0,0,0-.13.42.52.52,0,0,0,.12.34.58.58,0,0,0,.31.21,2.28,2.28,0,0,0,.66.1H4.64Z" transform="translate(0.01 -22.63)"/><path class="cls-2" d="M5.93,87.63H4.28a1,1,0,0,1,.31.37,1.14,1.14,0,0,1,.13.51,1.34,1.34,0,0,1-.48,1A1.9,1.9,0,0,1,2.92,90,2.21,2.21,0,0,1,2,89.8a1.33,1.33,0,0,1-.82-1.25,1.14,1.14,0,0,1,.53-1H1.27v-.51H5.93Zm-3,1.76a1.51,1.51,0,0,0,1-.27.81.81,0,0,0,0-1.29A1.46,1.46,0,0,0,3,87.57a1.57,1.57,0,0,0-1,.28.83.83,0,0,0-.34.65.79.79,0,0,0,.32.63A1.55,1.55,0,0,0,2.94,89.39Z" transform="translate(0.01 -22.63)"/><path class="cls-2" d="M4.64,84h-.5A1.22,1.22,0,0,1,4.72,85a1.31,1.31,0,0,1-.12.56.82.82,0,0,1-.29.38.9.9,0,0,1-.42.18,3.33,3.33,0,0,1-.53,0H1.27V85.6H3.14a3.77,3.77,0,0,0,.6,0,.57.57,0,0,0,.35-.23.69.69,0,0,0,.13-.43,1,1,0,0,0-.13-.49.72.72,0,0,0-.36-.31,1.63,1.63,0,0,0-.66-.1H1.27v-.57H4.64Z" transform="translate(0.01 -22.63)"/><path class="cls-2" d="M3.55,80.24l.08-.59a1.39,1.39,0,0,1,.8.52,1.72,1.72,0,0,1-.17,2.13A1.77,1.77,0,0,1,3,82.74a1.9,1.9,0,0,1-1.32-.44,1.49,1.49,0,0,1-.47-1.14,1.45,1.45,0,0,1,.46-1.1A1.82,1.82,0,0,1,3,79.63H3.1v2.52A1.29,1.29,0,0,0,4,81.83a.92.92,0,0,0,.3-.7.89.89,0,0,0-.17-.54A1.07,1.07,0,0,0,3.55,80.24Zm-.92,1.87V80.23a1.18,1.18,0,0,0-.64.22.88.88,0,0,0-.33.71.9.9,0,0,0,.27.66A1,1,0,0,0,2.63,82.11Z" transform="translate(0.01 -22.63)"/><path class="cls-2" d="M5.93,77.11H0V75.85H.46v.69h5v-.69h.47Z" transform="translate(0.01 -22.63)"/><path class="cls-2" d="M4.64,75.25H0v-.63l3.65-2.44H0v-.59H4.64v.63L1,74.66H4.64Z" transform="translate(0.01 -22.63)"/><path class="cls-2" d="M2.36,70.71a.78.78,0,0,1-.57-.24.81.81,0,0,1,1.14-1.14.81.81,0,0,1-.57,1.38Z" transform="translate(0.01 -22.63)"/><path class="cls-2" d="M4.64,68.35H1.27v-.51h.47a1.34,1.34,0,0,1-.4-.42,1.21,1.21,0,0,1-.15-.6,1.08,1.08,0,0,1,.16-.62.86.86,0,0,1,.43-.34,1.2,1.2,0,0,1-.59-1,1.05,1.05,0,0,1,.28-.77,1.2,1.2,0,0,1,.86-.27H4.64v.57H2.52a1.49,1.49,0,0,0-.5.06.42.42,0,0,0-.24.2.62.62,0,0,0-.09.34.82.82,0,0,0,.23.59,1,1,0,0,0,.76.24h2v.57H2.45a.92.92,0,0,0-.57.14.51.51,0,0,0-.19.45.89.89,0,0,0,.12.45.77.77,0,0,0,.38.3,2.08,2.08,0,0,0,.7.09H4.64Z" transform="translate(0.01 -22.63)"/><path class="cls-2" d="M5.93,62v1.26H5.46v-.69h-5v.69H0V62Z" transform="translate(0.01 -22.63)"/><path class="cls-2" d="M44.76,150.56l.58-.06a1.32,1.32,0,0,0,.19.58,1,1,0,0,0,.47.36,1.8,1.8,0,0,0,.71.14,1.64,1.64,0,0,0,.62-.11.91.91,0,0,0,.41-.28.76.76,0,0,0,.13-.4.59.59,0,0,0-.13-.39.92.92,0,0,0-.42-.27c-.12,0-.4-.12-.83-.23a4.15,4.15,0,0,1-.89-.29,1.19,1.19,0,0,1-.5-.43,1.06,1.06,0,0,1-.16-.58,1.16,1.16,0,0,1,.2-.66,1.18,1.18,0,0,1,.58-.46,2.15,2.15,0,0,1,.85-.16,2.4,2.4,0,0,1,.92.16,1.35,1.35,0,0,1,.6.5,1.4,1.4,0,0,1,.23.73l-.59,0a1,1,0,0,0-.32-.66,1.24,1.24,0,0,0-.81-.23,1.3,1.3,0,0,0-.82.21.6.6,0,0,0-.25.49.52.52,0,0,0,.18.41,2.39,2.39,0,0,0,.93.33,7.58,7.58,0,0,1,1,.3,1.47,1.47,0,0,1,.6.47,1.19,1.19,0,0,1,.19.67,1.3,1.3,0,0,1-.21.7,1.47,1.47,0,0,1-.61.51,2.19,2.19,0,0,1-.9.18,2.76,2.76,0,0,1-1.06-.18,1.59,1.59,0,0,1-.67-.56A1.56,1.56,0,0,1,44.76,150.56Z" transform="translate(0.01 -22.63)"/><path class="cls-2" d="M49.23,153.34v-4.66h.52v.44a1.29,1.29,0,0,1,.42-.39,1.19,1.19,0,0,1,.56-.13,1.31,1.31,0,0,1,.76.23,1.29,1.29,0,0,1,.5.62,2.39,2.39,0,0,1,0,1.82,1.36,1.36,0,0,1-.54.64,1.45,1.45,0,0,1-.74.22,1.14,1.14,0,0,1-.52-.12,1.25,1.25,0,0,1-.37-.31v1.64Zm.52-3a1.46,1.46,0,0,0,.26,1,.84.84,0,0,0,.64.31.82.82,0,0,0,.65-.33,1.5,1.5,0,0,0,.27-1,1.56,1.56,0,0,0-.26-1,.79.79,0,0,0-1.28,0A1.52,1.52,0,0,0,49.75,150.38Z" transform="translate(0.01 -22.63)"/><path class="cls-2" d="M55.15,151l.59.08a1.43,1.43,0,0,1-.51.8,1.6,1.6,0,0,1-1,.29,1.56,1.56,0,0,1-1.17-.46,1.77,1.77,0,0,1-.44-1.28,1.9,1.9,0,0,1,.44-1.32,1.49,1.49,0,0,1,1.14-.47,1.45,1.45,0,0,1,1.1.46,1.82,1.82,0,0,1,.43,1.3v.15H53.24a1.34,1.34,0,0,0,.32.85.92.92,0,0,0,.7.3.89.89,0,0,0,.54-.17A1,1,0,0,0,55.15,151ZM53.28,150h1.88a1.18,1.18,0,0,0-.22-.64.88.88,0,0,0-.71-.33.9.9,0,0,0-.66.27A1,1,0,0,0,53.28,150Z" transform="translate(0.01 -22.63)"/><path class="cls-2" d="M58.77,151l.59.08a1.5,1.5,0,0,1-.52.8,1.54,1.54,0,0,1-1,.29,1.57,1.57,0,0,1-1.18-.46,1.77,1.77,0,0,1-.43-1.28,1.9,1.9,0,0,1,.44-1.32,1.58,1.58,0,0,1,2.24,0,1.87,1.87,0,0,1,.43,1.3,1,1,0,0,1,0,.15H56.86a1.34,1.34,0,0,0,.31.85.94.94,0,0,0,.71.3.84.84,0,0,0,.53-.17A1.08,1.08,0,0,0,58.77,151ZM56.89,150h1.88a1.1,1.1,0,0,0-.21-.64.88.88,0,0,0-.71-.33.9.9,0,0,0-.66.27A1,1,0,0,0,56.89,150Z" transform="translate(0.01 -22.63)"/><path class="cls-2" d="M62.26,152.05v-.42a1.05,1.05,0,0,1-.94.5,1.3,1.3,0,0,1-.74-.23,1.41,1.41,0,0,1-.53-.62,2.17,2.17,0,0,1-.18-.91,2.29,2.29,0,0,1,.17-.92,1.37,1.37,0,0,1,.5-.63,1.43,1.43,0,0,1,.75-.22,1.21,1.21,0,0,1,.55.13,1.24,1.24,0,0,1,.38.34V147.4h.57v4.65Zm-1.8-1.68a1.5,1.5,0,0,0,.27,1,.81.81,0,0,0,1.28,0,1.43,1.43,0,0,0,.26-.93,1.58,1.58,0,0,0-.27-1,.82.82,0,0,0-1.29,0A1.54,1.54,0,0,0,60.46,150.37Z" transform="translate(0.01 -22.63)"/><path class="cls-2" d="M65.51,153.34V147.4h1.26v.47h-.69v5h.69v.47Z" transform="translate(0.01 -22.63)"/><path class="cls-2" d="M67.3,152.05v-3.37h.51v.51a1.31,1.31,0,0,1,.36-.47.63.63,0,0,1,.37-.12,1.17,1.17,0,0,1,.59.19l-.2.53a.86.86,0,0,0-.42-.13.54.54,0,0,0-.34.12.58.58,0,0,0-.21.31,2.31,2.31,0,0,0-.09.67v1.76Z" transform="translate(0.01 -22.63)"/><path class="cls-2" d="M69,152.13l1.35-4.81h.45l-1.34,4.81Z" transform="translate(0.01 -22.63)"/><path class="cls-2" d="M71.27,152.05v-3.37h.51v.47a1.34,1.34,0,0,1,.42-.4,1.21,1.21,0,0,1,.6-.15,1.16,1.16,0,0,1,.62.16.86.86,0,0,1,.34.43,1.2,1.2,0,0,1,1-.59,1.05,1.05,0,0,1,.77.28,1.2,1.2,0,0,1,.27.86v2.31h-.57v-2.12a1.91,1.91,0,0,0,0-.5.49.49,0,0,0-.21-.24.62.62,0,0,0-.34-.09.79.79,0,0,0-.59.24,1,1,0,0,0-.23.75v2h-.58v-2.19a.92.92,0,0,0-.14-.57.51.51,0,0,0-.45-.19.81.81,0,0,0-.45.13.69.69,0,0,0-.29.37,1.82,1.82,0,0,0-.1.7v1.75Z" transform="translate(0.01 -22.63)"/><path class="cls-2" d="M76.69,148.05v-.65h.57v.65Zm0,4v-3.37h.57v3.37Z" transform="translate(0.01 -22.63)"/><path class="cls-2" d="M78.13,152.05v-3.37h.51v.48a1.23,1.23,0,0,1,1.08-.56,1.47,1.47,0,0,1,.56.11.89.89,0,0,1,.38.29,1.33,1.33,0,0,1,.18.42,3.51,3.51,0,0,1,0,.56v2.07H80.3V150a1.38,1.38,0,0,0-.07-.52.5.5,0,0,0-.24-.28.71.71,0,0,0-.39-.1.92.92,0,0,0-.63.23,1.13,1.13,0,0,0-.27.88v1.84Z" transform="translate(0.01 -22.63)"/><path class="cls-2" d="M82.7,153.34H81.44v-.47h.69v-5h-.69v-.47H82.7Z" transform="translate(0.01 -22.63)"/></g></svg>