<svg xmlns="http://www.w3.org/2000/svg" viewBox="0 0 117.99 130.72"><defs><style>.cls-1,.cls-2,.繝医Ν繧ｯ繧ｰ繝ｩ繝廟邱喟0\.7緕,.邱喟0\.5pt-5{fill:none;}.cls-1,.繝医Ν繧ｯ繧ｰ繝ｩ繝廟邱喟0\.7緕,.邱喟0\.5pt-5{stroke:#231815;}.cls-1{stroke-linejoin:round;stroke-width:0.14px;}.繝医Ν繧ｯ繧ｰ繝ｩ繝廟邱喟0\.7緕,.邱喟0\.5pt-5{stroke-miterlimit:10;}.繝医Ν繧ｯ繧ｰ繝ｩ繝廟邱喟0\.7緕{stroke-width:1.98px;}.cls-2{stroke:#9fa0a0;stroke-width:3px;}.cls-3{fill:#231815;}.繝後Μ_逋ｽ-2{fill:#fff;}.邱喟0\.5pt-5{stroke-width:0.5px;}</style></defs><g id="Illust"><line class="cls-1" x1="47.07" y1="1.47" x2="47.07" y2="114.85"/><line class="cls-1" x1="101.49" y1="1.47" x2="101.49" y2="114.85"/><line class="cls-1" x1="74.28" y1="1.47" x2="74.28" y2="114.85"/><path class="cls-1" d="M18.43,121.28h90.7m-90.7-16.2h90.7M18.43,88.89h90.7m-90.7-16.2h90.7m-90.7-16.2h90.7m-90.7-16.2h90.7" transform="translate(1.43 -22.63)"/><polyline class="繝医Ν繧ｯ繧ｰ繝ｩ繝廟邱喟0.7緕" points="19.86 89.09 47.06 89.09 56.14 95.52 65.22 99.41 74.29 102.01 83.35 103.84 92.42 105.23 101.5 106.28 110.56 107.11"/><polyline class="cls-2" points="19.86 89.09 47.06 89.09 56.14 95.52 65.22 99.41 74.29 102.01 83.35 103.84 92.42 105.23 101.5 106.28 110.56 107.11"/><polyline class="繝医Ν繧ｯ繧ｰ繝ｩ繝廟邱喟0.7緕" points="19.86 22.08 47.06 22.08 51.6 37.55 111.66 87.44"/><polyline class="cls-2" points="19.86 22.08 47.06 22.08 51.6 37.55 111.66 87.44"/><path class="cls-3" d="M10.23,137.42a3.2,3.2,0,0,1,.13-1,1.28,1.28,0,0,1,.39-.59,1.14,1.14,0,0,1,1.15-.1.9.9,0,0,1,.36.34,1.51,1.51,0,0,1,.22.53,4.23,4.23,0,0,1-.05,1.86,1.22,1.22,0,0,1-.38.6,1.1,1.1,0,0,1-1.47-.16A2.41,2.41,0,0,1,10.23,137.42Zm.45,0a2.25,2.25,0,0,0,.21,1.18.59.59,0,0,0,1,0,2.38,2.38,0,0,0,.2-1.18,2.31,2.31,0,0,0-.2-1.17.63.63,0,0,0-.52-.29.54.54,0,0,0-.48.26A2.24,2.24,0,0,0,10.68,137.42Z" transform="translate(1.43 -22.63)"/><path class="cls-3" d="M13.29,139.19v-.5h.5v.5Z" transform="translate(1.43 -22.63)"/><path class="cls-3" d="M14.43,137.42a3.17,3.17,0,0,1,.14-1,1.19,1.19,0,0,1,.38-.59,1,1,0,0,1,.65-.21.95.95,0,0,1,.87.45,2,2,0,0,1,.22.53,3.72,3.72,0,0,1,.08.84,3.2,3.2,0,0,1-.13,1,1.31,1.31,0,0,1-.39.6,1,1,0,0,1-.65.21,1,1,0,0,1-.81-.37A2.33,2.33,0,0,1,14.43,137.42Zm.46,0a2.38,2.38,0,0,0,.2,1.18.59.59,0,0,0,1,0,2.25,2.25,0,0,0,.21-1.18,2.18,2.18,0,0,0-.21-1.17.62.62,0,0,0-.51-.29.56.56,0,0,0-.49.26A2.26,2.26,0,0,0,14.89,137.42Z" transform="translate(1.43 -22.63)"/><path class="cls-3" d="M12.54,122.63v.42H10.17a1,1,0,0,1,.05-.3,1.76,1.76,0,0,1,.29-.48,4.54,4.54,0,0,1,.58-.54,4.87,4.87,0,0,0,.79-.76,1,1,0,0,0,.2-.53.6.6,0,0,0-.18-.44.77.77,0,0,0-1,0,.7.7,0,0,0-.19.53l-.45-.05a1.09,1.09,0,0,1,.35-.77,1.21,1.21,0,0,1,.81-.26,1.13,1.13,0,0,1,.81.28.94.94,0,0,1,.3.71,1,1,0,0,1-.08.42,1.75,1.75,0,0,1-.29.44c-.14.15-.37.36-.68.63a5.24,5.24,0,0,0-.51.45,1.33,1.33,0,0,0-.19.24Z" transform="translate(1.43 -22.63)"/><path class="cls-3" d="M13.29,123.05v-.5h.5v.5Z" transform="translate(1.43 -22.63)"/><path class="cls-3" d="M14.43,121.29a3.19,3.19,0,0,1,.14-1,1.24,1.24,0,0,1,.38-.59,1,1,0,0,1,.65-.21,1.19,1.19,0,0,1,.51.11,1.06,1.06,0,0,1,.36.34,2,2,0,0,1,.22.53,3.76,3.76,0,0,1,.08.85,3.09,3.09,0,0,1-.13,1,1.31,1.31,0,0,1-.39.6,1,1,0,0,1-.65.21,1,1,0,0,1-.81-.37A2.32,2.32,0,0,1,14.43,121.29Zm.46,0a2.36,2.36,0,0,0,.2,1.17.59.59,0,0,0,1,0,3.39,3.39,0,0,0,0-2.35.62.62,0,0,0-.51-.29.58.58,0,0,0-.49.26A2.3,2.3,0,0,0,14.89,121.29Z" transform="translate(1.43 -22.63)"/><path class="cls-3" d="M11.64,106.91v-.85H10.09v-.4l1.63-2.32h.36v2.32h.48v.4h-.48v.85Zm0-1.25V104l-1.12,1.62Z" transform="translate(1.43 -22.63)"/><path class="cls-3" d="M13.29,106.91v-.5h.5v.5Z" transform="translate(1.43 -22.63)"/><path class="cls-3" d="M14.43,105.15a3.17,3.17,0,0,1,.14-1,1.22,1.22,0,0,1,.38-.6,1,1,0,0,1,.65-.21,1.07,1.07,0,0,1,.51.12,1,1,0,0,1,.36.33,2.17,2.17,0,0,1,.22.53,3.76,3.76,0,0,1,.08.85,3.2,3.2,0,0,1-.13,1,1.33,1.33,0,0,1-.39.59,1,1,0,0,1-.65.22,1,1,0,0,1-.81-.38A2.3,2.3,0,0,1,14.43,105.15Zm.46,0a2.31,2.31,0,0,0,.2,1.17.59.59,0,0,0,1,0,3.36,3.36,0,0,0,0-2.34.61.61,0,0,0-.51-.3.58.58,0,0,0-.49.26A2.3,2.3,0,0,0,14.89,105.15Z" transform="translate(1.43 -22.63)"/><path class="cls-3" d="M12.51,88.07l-.44,0a.85.85,0,0,0-.16-.37.58.58,0,0,0-.44-.19.59.59,0,0,0-.37.12,1,1,0,0,0-.33.44,2.24,2.24,0,0,0-.12.83,1,1,0,0,1,.39-.36,1,1,0,0,1,.48-.12,1,1,0,0,1,.74.32,1.16,1.16,0,0,1,.31.84,1.38,1.38,0,0,1-.14.63,1.07,1.07,0,0,1-.4.44,1.19,1.19,0,0,1-1.47-.25,2,2,0,0,1-.35-1.33,2.42,2.42,0,0,1,.38-1.51,1.13,1.13,0,0,1,.9-.41,1,1,0,0,1,.7.24A1,1,0,0,1,12.51,88.07Zm-1.79,1.54a1.12,1.12,0,0,0,.09.44.75.75,0,0,0,.27.31.64.64,0,0,0,.37.11.6.6,0,0,0,.47-.22.86.86,0,0,0,.2-.61.84.84,0,0,0-.19-.59.67.67,0,0,0-.5-.21.69.69,0,0,0-.51.21A.76.76,0,0,0,10.72,89.61Z" transform="translate(1.43 -22.63)"/><path class="cls-3" d="M13.29,90.77v-.5h.5v.5Z" transform="translate(1.43 -22.63)"/><path class="cls-3" d="M14.43,89a3.09,3.09,0,0,1,.14-1,1.22,1.22,0,0,1,.38-.6,1,1,0,0,1,.65-.21,1.19,1.19,0,0,1,.51.11,1.06,1.06,0,0,1,.36.34,2,2,0,0,1,.22.53,3.76,3.76,0,0,1,.08.85,3.09,3.09,0,0,1-.13,1,1.31,1.31,0,0,1-.39.6,1,1,0,0,1-.65.21,1,1,0,0,1-.81-.37A2.32,2.32,0,0,1,14.43,89Zm.46,0a2.34,2.34,0,0,0,.2,1.17.59.59,0,0,0,1,0,3.39,3.39,0,0,0,0-2.35.62.62,0,0,0-.51-.29.58.58,0,0,0-.49.26A2.3,2.3,0,0,0,14.89,89Z" transform="translate(1.43 -22.63)"/><path class="cls-3" d="M10.91,72.69a.79.79,0,0,1-.41-.28.73.73,0,0,1-.13-.45.85.85,0,0,1,.28-.65,1.18,1.18,0,0,1,1.5,0,.92.92,0,0,1,.29.67.78.78,0,0,1-.13.43.8.8,0,0,1-.4.28,1,1,0,0,1,.5.35.92.92,0,0,1,.17.57,1,1,0,0,1-.32.77,1.3,1.3,0,0,1-1.71,0,1,1,0,0,1-.33-.78.89.89,0,0,1,.69-.91Zm-.23.91a.81.81,0,0,0,.09.37.61.61,0,0,0,.26.27.83.83,0,0,0,.38.1.7.7,0,0,0,.52-.21.66.66,0,0,0,.2-.51.72.72,0,0,0-.21-.53.71.71,0,0,0-.53-.21.69.69,0,0,0-.51.21A.69.69,0,0,0,10.68,73.6ZM10.82,72a.53.53,0,0,0,.16.41.62.62,0,0,0,.84,0,.56.56,0,0,0,0-.8.57.57,0,0,0-.42-.17.61.61,0,0,0-.42.16A.53.53,0,0,0,10.82,72Z" transform="translate(1.43 -22.63)"/><path class="cls-3" d="M13.29,74.64v-.51h.5v.51Z" transform="translate(1.43 -22.63)"/><path class="cls-3" d="M14.43,72.87a3.17,3.17,0,0,1,.14-1,1.22,1.22,0,0,1,.38-.6A1,1,0,0,1,15.6,71a1.07,1.07,0,0,1,.51.12,1.13,1.13,0,0,1,.36.33,2.35,2.35,0,0,1,.22.53,3.82,3.82,0,0,1,.08.85,3.2,3.2,0,0,1-.13,1,1.36,1.36,0,0,1-.39.6,1,1,0,0,1-.65.21,1,1,0,0,1-.81-.37A2.35,2.35,0,0,1,14.43,72.87Zm.46,0a2.31,2.31,0,0,0,.2,1.17.58.58,0,0,0,1,0,3.36,3.36,0,0,0,0-2.34.6.6,0,0,0-.51-.29.57.57,0,0,0-.49.25A2.3,2.3,0,0,0,14.89,72.87Z" transform="translate(1.43 -22.63)"/><path class="cls-3" d="M9.13,58.5H8.7V55.7a2.54,2.54,0,0,1-.42.3,3.27,3.27,0,0,1-.46.23V55.8a2.63,2.63,0,0,0,.64-.42,1.65,1.65,0,0,0,.39-.48h.28Z" transform="translate(1.43 -22.63)"/><path class="cls-3" d="M10.29,56.73a3.2,3.2,0,0,1,.13-1,1.31,1.31,0,0,1,.39-.6A1.11,1.11,0,0,1,12,55a1,1,0,0,1,.36.33,1.69,1.69,0,0,1,.22.53,3.3,3.3,0,0,1,.08.85,3.2,3.2,0,0,1-.13,1,1.27,1.27,0,0,1-.38.6,1,1,0,0,1-.65.21,1,1,0,0,1-.82-.37A2.43,2.43,0,0,1,10.29,56.73Zm.45,0A2.18,2.18,0,0,0,11,57.9a.58.58,0,0,0,1,0,3.52,3.52,0,0,0,0-2.34.6.6,0,0,0-.52-.29.56.56,0,0,0-.48.25A2.28,2.28,0,0,0,10.74,56.73Z" transform="translate(1.43 -22.63)"/><path class="cls-3" d="M13.29,58.5V58h.5v.5Z" transform="translate(1.43 -22.63)"/><path class="cls-3" d="M14.43,56.73a3.17,3.17,0,0,1,.14-1,1.22,1.22,0,0,1,.38-.6,1,1,0,0,1,.65-.21,1.07,1.07,0,0,1,.51.12,1.13,1.13,0,0,1,.36.33,2.35,2.35,0,0,1,.22.53,3.82,3.82,0,0,1,.08.85,3.2,3.2,0,0,1-.13,1,1.36,1.36,0,0,1-.39.6,1,1,0,0,1-.65.21,1,1,0,0,1-.81-.37A2.35,2.35,0,0,1,14.43,56.73Zm.46,0a2.31,2.31,0,0,0,.2,1.17.58.58,0,0,0,1,0,3.36,3.36,0,0,0,0-2.34.6.6,0,0,0-.51-.29.57.57,0,0,0-.49.25A2.3,2.3,0,0,0,14.89,56.73Z" transform="translate(1.43 -22.63)"/><path class="cls-3" d="M9.13,42.36H8.7v-2.8a2.54,2.54,0,0,1-.42.3,3.27,3.27,0,0,1-.46.23v-.43a2.37,2.37,0,0,0,.64-.42,1.65,1.65,0,0,0,.39-.48h.28Z" transform="translate(1.43 -22.63)"/><path class="cls-3" d="M12.6,41.93v.43H10.23a1.06,1.06,0,0,1,0-.31,1.58,1.58,0,0,1,.29-.47,5.35,5.35,0,0,1,.58-.55,4.92,4.92,0,0,0,.79-.75,1,1,0,0,0,.2-.53.59.59,0,0,0-.18-.44.77.77,0,0,0-1,0,.68.68,0,0,0-.19.52l-.45,0a1.06,1.06,0,0,1,.35-.77,1.17,1.17,0,0,1,.81-.27,1.13,1.13,0,0,1,.81.29.94.94,0,0,1,.3.71,1,1,0,0,1-.08.42,2,2,0,0,1-.29.44c-.14.15-.37.36-.68.63a5.24,5.24,0,0,0-.51.45,1.77,1.77,0,0,0-.19.23Z" transform="translate(1.43 -22.63)"/><path class="cls-3" d="M13.29,42.36v-.5h.5v.5Z" transform="translate(1.43 -22.63)"/><path class="cls-3" d="M14.43,40.59a3.17,3.17,0,0,1,.14-1A1.22,1.22,0,0,1,15,39a1,1,0,0,1,.65-.21,1.07,1.07,0,0,1,.51.12,1.13,1.13,0,0,1,.36.33,2.25,2.25,0,0,1,.22.54,3.72,3.72,0,0,1,.08.84,3.2,3.2,0,0,1-.13,1,1.31,1.31,0,0,1-.39.6,1,1,0,0,1-.65.21,1,1,0,0,1-.81-.37A2.35,2.35,0,0,1,14.43,40.59Zm.46,0a2.38,2.38,0,0,0,.2,1.18.62.62,0,0,0,.51.29.61.61,0,0,0,.51-.3,2.18,2.18,0,0,0,.21-1.17,2.18,2.18,0,0,0-.21-1.17.6.6,0,0,0-.51-.29.57.57,0,0,0-.49.25A2.3,2.3,0,0,0,14.89,40.59Z" transform="translate(1.43 -22.63)"/><path class="cls-3" d="M9.13,26.22H8.7v-2.8a2.54,2.54,0,0,1-.42.3,3.27,3.27,0,0,1-.46.23v-.42a3,3,0,0,0,.64-.42,2,2,0,0,0,.39-.48h.28Z" transform="translate(1.43 -22.63)"/><path class="cls-3" d="M11.7,26.22v-.86H10.15V25l1.63-2.32h.36V25h.48v.4h-.48v.86Zm0-1.26V23.35L10.58,25Z" transform="translate(1.43 -22.63)"/><path class="cls-3" d="M13.29,26.22v-.5h.5v.5Z" transform="translate(1.43 -22.63)"/><path class="cls-3" d="M14.43,24.46a3.19,3.19,0,0,1,.14-1,1.24,1.24,0,0,1,.38-.59,1,1,0,0,1,.65-.21,1.19,1.19,0,0,1,.51.11,1.06,1.06,0,0,1,.36.34,2,2,0,0,1,.22.53,3.76,3.76,0,0,1,.08.85,3.14,3.14,0,0,1-.13,1,1.31,1.31,0,0,1-.39.6,1,1,0,0,1-.65.21,1,1,0,0,1-.81-.37A2.32,2.32,0,0,1,14.43,24.46Zm.46,0a2.36,2.36,0,0,0,.2,1.17.59.59,0,0,0,1,0,2.23,2.23,0,0,0,.21-1.17,2.22,2.22,0,0,0-.21-1.18A.62.62,0,0,0,15.6,23a.58.58,0,0,0-.49.26A2.3,2.3,0,0,0,14.89,24.46Z" transform="translate(1.43 -22.63)"/><path class="cls-3" d="M17.24,141.38a3.52,3.52,0,0,1,.13-1,1.28,1.28,0,0,1,.39-.59,1.14,1.14,0,0,1,1.15-.1.9.9,0,0,1,.36.34,1.73,1.73,0,0,1,.23.53,3.72,3.72,0,0,1,.08.84,3.52,3.52,0,0,1-.13,1,1.31,1.31,0,0,1-.39.6,1,1,0,0,1-.65.21,1,1,0,0,1-.81-.37A2.33,2.33,0,0,1,17.24,141.38Zm.45,0a2.25,2.25,0,0,0,.21,1.18.59.59,0,0,0,1,0,2.27,2.27,0,0,0,.2-1.18,2.23,2.23,0,0,0-.2-1.17.63.63,0,0,0-.52-.29.56.56,0,0,0-.48.26A2.24,2.24,0,0,0,17.69,141.38Z" transform="translate(1.43 -22.63)"/><rect class="繝後Μ_逋ｽ-2" x="110.56" y="1.47" width="2.83" height="113.39"/><path class="cls-3" d="M40.29,142.21l.43-.06a1.09,1.09,0,0,0,.26.54.72.72,0,0,0,1-.06.72.72,0,0,0,.21-.53.68.68,0,0,0-.19-.5.7.7,0,0,0-.51-.19,1,1,0,0,0-.31.05l.05-.39h.07a.89.89,0,0,0,.51-.14.5.5,0,0,0,.22-.45.52.52,0,0,0-.16-.4.57.57,0,0,0-.42-.16.57.57,0,0,0-.43.16.77.77,0,0,0-.22.48l-.44-.08a1.11,1.11,0,0,1,.37-.68,1.05,1.05,0,0,1,.71-.24,1.25,1.25,0,0,1,.54.12.9.9,0,0,1,.37.35.82.82,0,0,1,.13.46.79.79,0,0,1-.12.42.8.8,0,0,1-.37.3.79.79,0,0,1,.49.31.88.88,0,0,1,.18.57,1.05,1.05,0,0,1-.34.8,1.2,1.2,0,0,1-.87.32,1.12,1.12,0,0,1-.78-.28A1,1,0,0,1,40.29,142.21Z" transform="translate(1.43 -22.63)"/><path class="cls-3" d="M43.06,141.38a3.52,3.52,0,0,1,.13-1,1.33,1.33,0,0,1,.39-.59,1,1,0,0,1,.65-.21,1.06,1.06,0,0,1,.51.11,1,1,0,0,1,.35.34,1.73,1.73,0,0,1,.23.53,3.72,3.72,0,0,1,.08.84,3.52,3.52,0,0,1-.13,1,1.31,1.31,0,0,1-.39.6,1,1,0,0,1-.65.21,1,1,0,0,1-.81-.37A2.33,2.33,0,0,1,43.06,141.38Zm.46,0a2.27,2.27,0,0,0,.2,1.18.59.59,0,0,0,1,0,2.25,2.25,0,0,0,.21-1.18,2.2,2.2,0,0,0-.21-1.17.62.62,0,0,0-.51-.29.57.57,0,0,0-.49.26A2.26,2.26,0,0,0,43.52,141.38Z" transform="translate(1.43 -22.63)"/><path class="cls-3" d="M45.81,141.38a3.17,3.17,0,0,1,.14-1,1.24,1.24,0,0,1,.38-.59,1,1,0,0,1,.65-.21.95.95,0,0,1,.87.45,2,2,0,0,1,.22.53,3.72,3.72,0,0,1,.08.84,3.2,3.2,0,0,1-.13,1,1.31,1.31,0,0,1-.39.6,1,1,0,0,1-.65.21,1,1,0,0,1-.81-.37A2.33,2.33,0,0,1,45.81,141.38Zm.46,0a2.38,2.38,0,0,0,.2,1.18.59.59,0,0,0,1,0,2.25,2.25,0,0,0,.21-1.18,2.2,2.2,0,0,0-.21-1.17.62.62,0,0,0-.51-.29.58.58,0,0,0-.49.26A2.26,2.26,0,0,0,46.27,141.38Z" transform="translate(1.43 -22.63)"/><path class="cls-3" d="M48.63,141.38a3.2,3.2,0,0,1,.13-1,1.24,1.24,0,0,1,.38-.59,1,1,0,0,1,.65-.21.95.95,0,0,1,.87.45,2,2,0,0,1,.22.53,3.72,3.72,0,0,1,.08.84,3.2,3.2,0,0,1-.13,1,1.31,1.31,0,0,1-.39.6,1,1,0,0,1-.65.21,1,1,0,0,1-.81-.37A2.34,2.34,0,0,1,48.63,141.38Zm.45,0a2.38,2.38,0,0,0,.2,1.18.59.59,0,0,0,1,0,2.25,2.25,0,0,0,.21-1.18,2.2,2.2,0,0,0-.21-1.17.62.62,0,0,0-.51-.29.58.58,0,0,0-.49.26A2.26,2.26,0,0,0,49.08,141.38Z" transform="translate(1.43 -22.63)"/><path class="cls-3" d="M69.76,140.45l-.44,0a.8.8,0,0,0-.16-.37.58.58,0,0,0-.44-.19.67.67,0,0,0-.37.11,1,1,0,0,0-.33.45,2.22,2.22,0,0,0-.12.82.87.87,0,0,1,.39-.35,1,1,0,0,1,.48-.12,1,1,0,0,1,.75.32,1.2,1.2,0,0,1,.3.84,1.31,1.31,0,0,1-.14.62,1.1,1.1,0,0,1-.4.45,1.19,1.19,0,0,1-1.47-.25,2.06,2.06,0,0,1-.35-1.33,2.4,2.4,0,0,1,.38-1.51,1.11,1.11,0,0,1,.91-.41,1,1,0,0,1,.69.23A1,1,0,0,1,69.76,140.45ZM68,142a1.12,1.12,0,0,0,.09.44.82.82,0,0,0,.27.31.72.72,0,0,0,.37.11.64.64,0,0,0,.48-.22.92.92,0,0,0,.2-.62.83.83,0,0,0-.2-.58.66.66,0,0,0-.5-.21.69.69,0,0,0-.51.21A.8.8,0,0,0,68,142Z" transform="translate(1.43 -22.63)"/><path class="cls-3" d="M70.29,141.38a3.2,3.2,0,0,1,.13-1,1.33,1.33,0,0,1,.39-.59,1.14,1.14,0,0,1,1.15-.1.9.9,0,0,1,.36.34,1.51,1.51,0,0,1,.22.53,3.16,3.16,0,0,1,.09.84,3.52,3.52,0,0,1-.13,1,1.31,1.31,0,0,1-.39.6,1,1,0,0,1-.65.21,1,1,0,0,1-.81-.37A2.33,2.33,0,0,1,70.29,141.38Zm.45,0a2.25,2.25,0,0,0,.21,1.18.59.59,0,0,0,1,0,2.38,2.38,0,0,0,.2-1.18,2.34,2.34,0,0,0-.2-1.17.63.63,0,0,0-.52-.29.56.56,0,0,0-.48.26A2.24,2.24,0,0,0,70.74,141.38Z" transform="translate(1.43 -22.63)"/><path class="cls-3" d="M73,141.38a3.52,3.52,0,0,1,.13-1,1.33,1.33,0,0,1,.39-.59,1.14,1.14,0,0,1,1.15-.1.9.9,0,0,1,.36.34,1.73,1.73,0,0,1,.23.53,3.72,3.72,0,0,1,.08.84,3.52,3.52,0,0,1-.13,1,1.31,1.31,0,0,1-.39.6,1,1,0,0,1-.65.21,1,1,0,0,1-.81-.37A2.33,2.33,0,0,1,73,141.38Zm.45,0a2.25,2.25,0,0,0,.21,1.18.59.59,0,0,0,1,0,2.27,2.27,0,0,0,.2-1.18,2.23,2.23,0,0,0-.2-1.17.63.63,0,0,0-.52-.29.56.56,0,0,0-.48.26A2.24,2.24,0,0,0,73.49,141.38Z" transform="translate(1.43 -22.63)"/><path class="cls-3" d="M75.85,141.38a3.52,3.52,0,0,1,.13-1,1.33,1.33,0,0,1,.39-.59,1,1,0,0,1,.65-.21,1.06,1.06,0,0,1,.51.11,1,1,0,0,1,.35.34,1.73,1.73,0,0,1,.23.53,3.72,3.72,0,0,1,.08.84,3.52,3.52,0,0,1-.13,1,1.31,1.31,0,0,1-.39.6,1,1,0,0,1-.65.21,1,1,0,0,1-.81-.37A2.33,2.33,0,0,1,75.85,141.38Zm.45,0a2.25,2.25,0,0,0,.21,1.18.59.59,0,0,0,1,0,2.25,2.25,0,0,0,.21-1.18,2.2,2.2,0,0,0-.21-1.17.63.63,0,0,0-.52-.29.56.56,0,0,0-.48.26A2.24,2.24,0,0,0,76.3,141.38Z" transform="translate(1.43 -22.63)"/><path class="cls-3" d="M94.74,142.32l.43,0a.73.73,0,0,0,.2.44.61.61,0,0,0,.39.13.68.68,0,0,0,.35-.09.75.75,0,0,0,.25-.25,1.4,1.4,0,0,0,.17-.42,2.42,2.42,0,0,0,.06-.54v-.08a1.07,1.07,0,0,1-.36.34,1.05,1.05,0,0,1-.49.13,1,1,0,0,1-.75-.33,1.14,1.14,0,0,1-.31-.85,1.17,1.17,0,0,1,.32-.87,1.06,1.06,0,0,1,.8-.33,1.17,1.17,0,0,1,.64.18,1.24,1.24,0,0,1,.44.54,2.65,2.65,0,0,1,.15,1,3.25,3.25,0,0,1-.15,1.09,1.26,1.26,0,0,1-.44.62,1.17,1.17,0,0,1-.69.21,1,1,0,0,1-.69-.23A1.09,1.09,0,0,1,94.74,142.32Zm1.8-1.58a.84.84,0,0,0-.2-.6.61.61,0,0,0-.48-.22.65.65,0,0,0-.51.24.87.87,0,0,0-.22.62.74.74,0,0,0,.21.55.63.63,0,0,0,.5.22.64.64,0,0,0,.51-.22A.84.84,0,0,0,96.54,140.74Z" transform="translate(1.43 -22.63)"/><path class="cls-3" d="M97.46,141.38a3.2,3.2,0,0,1,.13-1,1.28,1.28,0,0,1,.39-.59,1.14,1.14,0,0,1,1.15-.1.9.9,0,0,1,.36.34,1.73,1.73,0,0,1,.22.53,4.23,4.23,0,0,1,0,1.86,1.22,1.22,0,0,1-.38.6,1,1,0,0,1-.65.21,1,1,0,0,1-.82-.37A2.41,2.41,0,0,1,97.46,141.38Zm.45,0a2.25,2.25,0,0,0,.21,1.18.58.58,0,0,0,1,0,2.25,2.25,0,0,0,.21-1.18,2.2,2.2,0,0,0-.21-1.17.6.6,0,0,0-.51-.29.56.56,0,0,0-.48.26A2.24,2.24,0,0,0,97.91,141.38Z" transform="translate(1.43 -22.63)"/><path class="cls-3" d="M100.27,141.38a3.2,3.2,0,0,1,.13-1,1.28,1.28,0,0,1,.39-.59,1.14,1.14,0,0,1,1.15-.1.9.9,0,0,1,.36.34,1.73,1.73,0,0,1,.22.53,4.23,4.23,0,0,1,0,1.86,1.22,1.22,0,0,1-.38.6,1.1,1.1,0,0,1-1.47-.16A2.41,2.41,0,0,1,100.27,141.38Zm.45,0a2.25,2.25,0,0,0,.21,1.18.6.6,0,0,0,.51.29.62.62,0,0,0,.51-.29,2.38,2.38,0,0,0,.2-1.18,2.34,2.34,0,0,0-.2-1.17.63.63,0,0,0-.52-.29.56.56,0,0,0-.48.26A2.24,2.24,0,0,0,100.72,141.38Z" transform="translate(1.43 -22.63)"/><path class="cls-3" d="M103.08,141.38a3.2,3.2,0,0,1,.13-1,1.28,1.28,0,0,1,.39-.59,1.14,1.14,0,0,1,1.15-.1.9.9,0,0,1,.36.34,1.51,1.51,0,0,1,.22.53,4.23,4.23,0,0,1,0,1.86,1.22,1.22,0,0,1-.38.6,1.1,1.1,0,0,1-1.47-.16A2.41,2.41,0,0,1,103.08,141.38Zm.45,0a2.25,2.25,0,0,0,.21,1.18.59.59,0,0,0,1,0,2.38,2.38,0,0,0,.2-1.18,2.34,2.34,0,0,0-.2-1.17.63.63,0,0,0-.52-.29.56.56,0,0,0-.48.26A2.24,2.24,0,0,0,103.53,141.38Z" transform="translate(1.43 -22.63)"/><rect class="邱喟0.5pt-5" x="19.86" y="1.47" width="90.71" height="113.39"/><path class="cls-3" d="M104.75,147.4h-.44v-2.8a2.07,2.07,0,0,1-.41.3,2.45,2.45,0,0,1-.46.23v-.42a3,3,0,0,0,.64-.42,2,2,0,0,0,.39-.48h.28Z" transform="translate(1.43 -22.63)"/><path class="cls-3" d="M105.88,145.64a3.23,3.23,0,0,1,.13-1,1.33,1.33,0,0,1,.39-.59,1,1,0,0,1,.65-.21,1.12,1.12,0,0,1,.5.11.9.9,0,0,1,.36.34,1.73,1.73,0,0,1,.22.53,3.25,3.25,0,0,1,.08.85,3.09,3.09,0,0,1-.13,1,1.22,1.22,0,0,1-.38.6,1.1,1.1,0,0,1-1.47-.16A2.39,2.39,0,0,1,105.88,145.64Zm.45,0a2.2,2.2,0,0,0,.21,1.17.6.6,0,0,0,.51.29.62.62,0,0,0,.51-.29,3.55,3.55,0,0,0,0-2.35.63.63,0,0,0-.52-.29.56.56,0,0,0-.48.26A2.28,2.28,0,0,0,106.33,145.64Z" transform="translate(1.43 -22.63)"/><path class="cls-3" d="M108.66,145.64a3.23,3.23,0,0,1,.13-1,1.33,1.33,0,0,1,.39-.59,1,1,0,0,1,.65-.21,1.12,1.12,0,0,1,.5.11.9.9,0,0,1,.36.34,1.51,1.51,0,0,1,.22.53,3.25,3.25,0,0,1,.08.85,3.09,3.09,0,0,1-.13,1,1.22,1.22,0,0,1-.38.6,1.1,1.1,0,0,1-1.47-.16A2.39,2.39,0,0,1,108.66,145.64Zm.45,0a2.2,2.2,0,0,0,.21,1.17.59.59,0,0,0,1,0,3.55,3.55,0,0,0,0-2.35.63.63,0,0,0-.52-.29.56.56,0,0,0-.48.26A2.28,2.28,0,0,0,109.11,145.64Z" transform="translate(1.43 -22.63)"/><path class="cls-3" d="M111.44,145.64a3.23,3.23,0,0,1,.13-1A1.33,1.33,0,0,1,112,144a1,1,0,0,1,.65-.21,1.12,1.12,0,0,1,.5.11.9.9,0,0,1,.36.34,1.51,1.51,0,0,1,.22.53,3.25,3.25,0,0,1,.08.85,3.44,3.44,0,0,1-.12,1,1.31,1.31,0,0,1-.39.6,1.1,1.1,0,0,1-1.47-.16A2.39,2.39,0,0,1,111.44,145.64Zm.45,0a2.2,2.2,0,0,0,.21,1.17.59.59,0,0,0,1,0,3.55,3.55,0,0,0,0-2.35.63.63,0,0,0-.52-.29.56.56,0,0,0-.48.26A2.28,2.28,0,0,0,111.89,145.64Z" transform="translate(1.43 -22.63)"/><path class="cls-3" d="M114.22,145.64a3.23,3.23,0,0,1,.13-1,1.33,1.33,0,0,1,.39-.59,1,1,0,0,1,.65-.21,1.12,1.12,0,0,1,.5.11.9.9,0,0,1,.36.34,1.51,1.51,0,0,1,.22.53,3.19,3.19,0,0,1,.09.85,3.39,3.39,0,0,1-.13,1,1.31,1.31,0,0,1-.39.6,1,1,0,0,1-.65.21,1,1,0,0,1-.81-.37A2.32,2.32,0,0,1,114.22,145.64Zm.45,0a2.2,2.2,0,0,0,.21,1.17.59.59,0,0,0,1,0,3.55,3.55,0,0,0,0-2.35.63.63,0,0,0-.52-.29.56.56,0,0,0-.48.26A2.28,2.28,0,0,0,114.67,145.64Z" transform="translate(1.43 -22.63)"/></g><g id="English"><path class="cls-3" d="M3.22,98.27H-.88V99.8h-.55V96.11h.55v1.54h4.1Z" transform="translate(1.43 -22.63)"/><path class="cls-3" d="M1.54,95.77a1.76,1.76,0,0,1-1.39-.52,1.58,1.58,0,0,1-.37-1.06,1.53,1.53,0,0,1,.45-1.14,1.74,1.74,0,0,1,1.26-.44,2.38,2.38,0,0,1,1,.19,1.45,1.45,0,0,1,.58.57,1.64,1.64,0,0,1,.21.82,1.48,1.48,0,0,1-.46,1.14A1.79,1.79,0,0,1,1.54,95.77Zm0-.59a1.44,1.44,0,0,0,1-.28.93.93,0,0,0,.32-.71.89.89,0,0,0-.33-.71,1.43,1.43,0,0,0-1-.28,1.38,1.38,0,0,0-.95.28.93.93,0,0,0-.32.71.9.9,0,0,0,.32.71A1.41,1.41,0,0,0,1.54,95.18Z" transform="translate(1.43 -22.63)"/><path class="cls-3" d="M3.22,92H-.15v-.52H.36a1.41,1.41,0,0,1-.47-.36.6.6,0,0,1-.11-.37A1.09,1.09,0,0,1,0,90.12l.53.19a.84.84,0,0,0-.12.42.51.51,0,0,0,.11.34.58.58,0,0,0,.31.21,2.35,2.35,0,0,0,.67.1H3.22Z" transform="translate(1.43 -22.63)"/><path class="cls-3" d="M4.51,87.63H2.86a1,1,0,0,1,.31.37,1,1,0,0,1,.13.51,1.34,1.34,0,0,1-.48,1A1.9,1.9,0,0,1,1.5,90a2.24,2.24,0,0,1-.91-.18A1.4,1.4,0,0,1,0,89.29a1.35,1.35,0,0,1-.2-.74,1.13,1.13,0,0,1,.52-1H-.15v-.51H4.51Zm-3,1.76a1.48,1.48,0,0,0,1-.27.84.84,0,0,0,.33-.66.8.8,0,0,0-.31-.63,1.46,1.46,0,0,0-.94-.26,1.52,1.52,0,0,0-1,.28.8.8,0,0,0-.34.65.78.78,0,0,0,.31.63A1.56,1.56,0,0,0,1.53,89.39Z" transform="translate(1.43 -22.63)"/><path class="cls-3" d="M3.22,84H2.73A1.23,1.23,0,0,1,3.3,85a1.31,1.31,0,0,1-.12.56A.88.88,0,0,1,2.9,86a1.12,1.12,0,0,1-.43.18,3.33,3.33,0,0,1-.53,0H-.15V85.6H1.72a3.77,3.77,0,0,0,.6,0,.68.68,0,0,0,.36-.23.75.75,0,0,0,.13-.43,1,1,0,0,0-.14-.49.66.66,0,0,0-.35-.31,1.7,1.7,0,0,0-.66-.1H-.15v-.57H3.22Z" transform="translate(1.43 -22.63)"/><path class="cls-3" d="M2.14,80.24l.07-.59a1.39,1.39,0,0,1,.8.52,1.54,1.54,0,0,1,.29,1,1.52,1.52,0,0,1-.46,1.17,1.77,1.77,0,0,1-1.27.44A1.9,1.9,0,0,1,.24,82.3a1.48,1.48,0,0,1-.46-1.14,1.41,1.41,0,0,1,.46-1.1,1.78,1.78,0,0,1,1.29-.43h.15v2.52a1.32,1.32,0,0,0,.85-.32.92.92,0,0,0,.3-.7.89.89,0,0,0-.17-.54A1.09,1.09,0,0,0,2.14,80.24Zm-.93,1.87V80.23a1.21,1.21,0,0,0-.64.22.88.88,0,0,0-.33.71.9.9,0,0,0,.27.66A1,1,0,0,0,1.21,82.11Z" transform="translate(1.43 -22.63)"/><path class="cls-3" d="M4.51,77.11H-1.43V75.85H-1v.69H4v-.69h.47Z" transform="translate(1.43 -22.63)"/><path class="cls-3" d="M3.22,75.25H-1.43v-.63l3.65-2.44H-1.43v-.59H3.22v.63L-.43,74.66H3.22Z" transform="translate(1.43 -22.63)"/><path class="cls-3" d="M.94,70.71a.78.78,0,0,1-.57-.24.81.81,0,0,1-.23-.57.77.77,0,0,1,.23-.56.78.78,0,0,1,.57-.24.75.75,0,0,1,.57.24.74.74,0,0,1,.24.56.78.78,0,0,1-.24.57A.75.75,0,0,1,.94,70.71Z" transform="translate(1.43 -22.63)"/><path class="cls-3" d="M3.22,68.35H-.15v-.51H.32a1.31,1.31,0,0,1-.39-.42,1.21,1.21,0,0,1-.15-.6,1.16,1.16,0,0,1,.15-.62.84.84,0,0,1,.44-.34,1.18,1.18,0,0,1-.59-1,1,1,0,0,1,.27-.77,1.2,1.2,0,0,1,.86-.27H3.22v.57H1.1a1.42,1.42,0,0,0-.49.06.41.41,0,0,0-.25.2A.62.62,0,0,0,.27,65a.79.79,0,0,0,.24.59,1,1,0,0,0,.75.24h2v.57H1a.92.92,0,0,0-.57.14.51.51,0,0,0-.19.45.81.81,0,0,0,.13.45.74.74,0,0,0,.37.3,2.12,2.12,0,0,0,.7.09H3.22Z" transform="translate(1.43 -22.63)"/><path class="cls-3" d="M4.51,62v1.26H4v-.69H-1v.69h-.47V62Z" transform="translate(1.43 -22.63)"/><rect class="繝後Μ_逋ｽ-2" x="20.66" y="59.86" width="47.91" height="16.72"/><path class="cls-3" d="M21,87.38l.58,0a1.2,1.2,0,0,0,.19.57,1,1,0,0,0,.47.36,1.8,1.8,0,0,0,.71.14,1.67,1.67,0,0,0,.62-.11A.82.82,0,0,0,24,88a.69.69,0,0,0,.14-.4.6.6,0,0,0-.13-.38,1,1,0,0,0-.42-.28c-.12,0-.4-.12-.83-.23a4.29,4.29,0,0,1-.9-.29,1.22,1.22,0,0,1-.49-.43,1,1,0,0,1-.17-.58A1.19,1.19,0,0,1,22,84.3a2.11,2.11,0,0,1,.85-.16,2.14,2.14,0,0,1,.91.17,1.25,1.25,0,0,1,.61.49,1.4,1.4,0,0,1,.23.73l-.59,0a1,1,0,0,0-.32-.66,1.62,1.62,0,0,0-1.63,0,.6.6,0,0,0-.25.49.52.52,0,0,0,.18.41,2.39,2.39,0,0,0,.93.33,7.58,7.58,0,0,1,1,.3,1.41,1.41,0,0,1,.6.48,1.22,1.22,0,0,1,.19.66,1.3,1.3,0,0,1-.21.7,1.4,1.4,0,0,1-.61.51A2.19,2.19,0,0,1,23,89,2.76,2.76,0,0,1,22,88.77a1.54,1.54,0,0,1-.67-.56A1.48,1.48,0,0,1,21,87.38Z" transform="translate(1.43 -22.63)"/><path class="cls-3" d="M25.5,88.87V84.22h.57v1.67a1.28,1.28,0,0,1,1-.47,1.36,1.36,0,0,1,.65.15.86.86,0,0,1,.39.41,1.88,1.88,0,0,1,.12.76v2.13h-.57V86.74a.91.91,0,0,0-.18-.63.7.7,0,0,0-.53-.19.91.91,0,0,0-.48.13.75.75,0,0,0-.32.36,1.69,1.69,0,0,0-.09.62v1.84Z" transform="translate(1.43 -22.63)"/><path class="cls-3" d="M28.9,87.19a1.73,1.73,0,0,1,.52-1.39,1.65,1.65,0,0,1,2.2.08,1.74,1.74,0,0,1,.44,1.26,2.22,2.22,0,0,1-.2,1,1.39,1.39,0,0,1-.57.58,1.6,1.6,0,0,1-.81.21,1.48,1.48,0,0,1-1.14-.46A1.79,1.79,0,0,1,28.9,87.19Zm.59,0a1.44,1.44,0,0,0,.28,1,.93.93,0,0,0,.71.32.91.91,0,0,0,.71-.33,1.43,1.43,0,0,0,.28-1,1.38,1.38,0,0,0-.28-1,.95.95,0,0,0-1.42,0A1.41,1.41,0,0,0,29.49,87.19Z" transform="translate(1.43 -22.63)"/><path class="cls-3" d="M32.72,88.87V85.5h.52V86a1.31,1.31,0,0,1,.36-.47.61.61,0,0,1,.37-.12,1.14,1.14,0,0,1,.58.19l-.19.53a.86.86,0,0,0-.42-.13.52.52,0,0,0-.34.12.58.58,0,0,0-.21.31,2,2,0,0,0-.1.67v1.76Z" transform="translate(1.43 -22.63)"/><path class="cls-3" d="M36.14,88.36l.08.5a1.77,1.77,0,0,1-.43.06,1,1,0,0,1-.48-.1.5.5,0,0,1-.24-.26,2,2,0,0,1-.07-.68V86h-.42V85.5H35v-.83l.57-.35V85.5h.57V86h-.57v2a1.76,1.76,0,0,0,0,.31.36.36,0,0,0,.1.11.37.37,0,0,0,.2,0Z" transform="translate(1.43 -22.63)"/><path class="cls-3" d="M36.48,87.47V86.9h1.75v.57Z" transform="translate(1.43 -22.63)"/><path class="cls-3" d="M41.05,88.87v-.42a1.05,1.05,0,0,1-.94.5,1.37,1.37,0,0,1-.74-.22,1.5,1.5,0,0,1-.53-.63,2.17,2.17,0,0,1-.18-.91,2.47,2.47,0,0,1,.16-.92,1.46,1.46,0,0,1,.51-.63,1.37,1.37,0,0,1,.75-.22,1.13,1.13,0,0,1,.93.47V84.22h.57v4.65Zm-1.81-1.68a1.44,1.44,0,0,0,.28,1,.82.82,0,0,0,.64.32.81.81,0,0,0,.64-.31,1.41,1.41,0,0,0,.26-.93,1.59,1.59,0,0,0-.27-1,.82.82,0,0,0-.65-.32.78.78,0,0,0-.64.31A1.53,1.53,0,0,0,39.24,87.19Z" transform="translate(1.43 -22.63)"/><path class="cls-3" d="M44.69,88.87v-.49a1.25,1.25,0,0,1-1.07.57,1.31,1.31,0,0,1-.56-.12.88.88,0,0,1-.38-.28,1,1,0,0,1-.18-.43,3.33,3.33,0,0,1,0-.53V85.5H43v1.87a3.77,3.77,0,0,0,0,.6.63.63,0,0,0,.23.36.75.75,0,0,0,.43.13.92.92,0,0,0,.48-.14.66.66,0,0,0,.32-.36,1.61,1.61,0,0,0,.1-.65V85.5h.57v3.37Z" transform="translate(1.43 -22.63)"/><path class="cls-3" d="M46.09,88.87V85.5h.51V86a1.31,1.31,0,0,1,.36-.47.63.63,0,0,1,.37-.12,1.17,1.17,0,0,1,.59.19l-.2.53A.86.86,0,0,0,47.3,86a.52.52,0,0,0-.33.12.65.65,0,0,0-.22.31,2.36,2.36,0,0,0-.09.67v1.76Z" transform="translate(1.43 -22.63)"/><path class="cls-3" d="M50.46,88.46a2.32,2.32,0,0,1-.61.38,1.9,1.9,0,0,1-.63.11,1.25,1.25,0,0,1-.86-.27.91.91,0,0,1-.3-.7.89.89,0,0,1,.12-.45.85.85,0,0,1,.29-.33,1.72,1.72,0,0,1,.41-.19,4.64,4.64,0,0,1,.51-.08,5.33,5.33,0,0,0,1-.2v-.15a.63.63,0,0,0-.16-.49,1,1,0,0,0-.65-.19A1,1,0,0,0,49,86a.88.88,0,0,0-.28.5l-.56-.08a1.48,1.48,0,0,1,.25-.58,1.2,1.2,0,0,1,.51-.34,2.2,2.2,0,0,1,.76-.12,1.94,1.94,0,0,1,.7.11.86.86,0,0,1,.4.25,1,1,0,0,1,.18.39,3.08,3.08,0,0,1,0,.53v.76a9.89,9.89,0,0,0,0,1,1.49,1.49,0,0,0,.15.4h-.6A1.08,1.08,0,0,1,50.46,88.46Zm-.05-1.28a4.56,4.56,0,0,1-.93.22,2,2,0,0,0-.5.11.48.48,0,0,0-.23.19.5.5,0,0,0-.08.27.48.48,0,0,0,.18.38.73.73,0,0,0,.5.15,1.25,1.25,0,0,0,.59-.14.92.92,0,0,0,.38-.4,1.41,1.41,0,0,0,.09-.57Z" transform="translate(1.43 -22.63)"/><path class="cls-3" d="M53.12,88.36l.08.5a1.77,1.77,0,0,1-.43.06,1,1,0,0,1-.48-.1.5.5,0,0,1-.24-.26,2,2,0,0,1-.07-.68V86h-.42V85.5H52v-.83l.57-.35V85.5h.57V86h-.57v2a1.76,1.76,0,0,0,0,.31.36.36,0,0,0,.1.11.37.37,0,0,0,.2,0Z" transform="translate(1.43 -22.63)"/><path class="cls-3" d="M53.68,84.88v-.66h.57v.66Zm0,4V85.5h.57v3.37Z" transform="translate(1.43 -22.63)"/><path class="cls-3" d="M54.91,87.19a1.73,1.73,0,0,1,.52-1.39,1.65,1.65,0,0,1,2.2.08,1.74,1.74,0,0,1,.44,1.26,2.22,2.22,0,0,1-.2,1,1.39,1.39,0,0,1-.57.58,1.6,1.6,0,0,1-.81.21,1.48,1.48,0,0,1-1.14-.46A1.75,1.75,0,0,1,54.91,87.19Zm.59,0a1.44,1.44,0,0,0,.28,1,.94.94,0,0,0,1.42,0,1.43,1.43,0,0,0,.28-1,1.38,1.38,0,0,0-.28-1,.9.9,0,0,0-.71-.32.88.88,0,0,0-.71.32A1.41,1.41,0,0,0,55.5,87.19Z" transform="translate(1.43 -22.63)"/><path class="cls-3" d="M58.74,88.87V85.5h.51V86a1.22,1.22,0,0,1,1.07-.56,1.43,1.43,0,0,1,.56.11,1,1,0,0,1,.39.29,1.13,1.13,0,0,1,.17.42,2.44,2.44,0,0,1,0,.56v2.07H60.9V86.82a1.67,1.67,0,0,0-.06-.52A.55.55,0,0,0,60.6,86a.72.72,0,0,0-.4-.1,1,1,0,0,0-.63.23,1.18,1.18,0,0,0-.26.88v1.84Z" transform="translate(1.43 -22.63)"/><path class="cls-3" d="M21.16,96.67V93.3h.51v.51a1.31,1.31,0,0,1,.36-.47.63.63,0,0,1,.37-.12,1.17,1.17,0,0,1,.59.19l-.2.53a.86.86,0,0,0-.42-.13.5.5,0,0,0-.33.12.65.65,0,0,0-.22.31,2.36,2.36,0,0,0-.09.67v1.76Z" transform="translate(1.43 -22.63)"/><path class="cls-3" d="M25.54,96.67v-.49a1.25,1.25,0,0,1-1.07.57,1.31,1.31,0,0,1-.56-.12.88.88,0,0,1-.38-.28,1,1,0,0,1-.18-.43,3.07,3.07,0,0,1,0-.53V93.3h.58v1.87a3.77,3.77,0,0,0,0,.6.63.63,0,0,0,.23.36.75.75,0,0,0,.43.13.92.92,0,0,0,.48-.14.66.66,0,0,0,.32-.36,1.8,1.8,0,0,0,.1-.65V93.3h.57v3.37Z" transform="translate(1.43 -22.63)"/><path class="cls-3" d="M26.94,96.67V93.3h.52v.48a1.2,1.2,0,0,1,1.07-.56,1.47,1.47,0,0,1,.56.11.89.89,0,0,1,.38.29,1,1,0,0,1,.18.42,3.51,3.51,0,0,1,0,.56v2.07h-.57v-2A1.38,1.38,0,0,0,29,94.1a.53.53,0,0,0-.23-.28.77.77,0,0,0-.4-.1.94.94,0,0,0-.63.23,1.14,1.14,0,0,0-.27.88v1.84Z" transform="translate(1.43 -22.63)"/><path class="cls-3" d="M30.56,96.67V93.3h.51v.48a1.22,1.22,0,0,1,1.07-.56,1.43,1.43,0,0,1,.56.11,1,1,0,0,1,.39.29,1.13,1.13,0,0,1,.17.42,2.44,2.44,0,0,1,0,.56v2.07h-.58v-2a1.67,1.67,0,0,0-.06-.52.6.6,0,0,0-.24-.28.72.72,0,0,0-.4-.1,1,1,0,0,0-.63.23,1.18,1.18,0,0,0-.26.88v1.84Z" transform="translate(1.43 -22.63)"/><path class="cls-3" d="M34.18,92.68V92h.57v.66Zm0,4V93.3h.57v3.37Z" transform="translate(1.43 -22.63)"/><path class="cls-3" d="M35.62,96.67V93.3h.51v.48a1.22,1.22,0,0,1,1.07-.56,1.43,1.43,0,0,1,.56.11,1,1,0,0,1,.39.29,1.13,1.13,0,0,1,.17.42,3.51,3.51,0,0,1,0,.56v2.07h-.57v-2a1.67,1.67,0,0,0-.06-.52.6.6,0,0,0-.24-.28.74.74,0,0,0-.4-.1,1,1,0,0,0-.63.23,1.18,1.18,0,0,0-.26.88v1.84Z" transform="translate(1.43 -22.63)"/><path class="cls-3" d="M39.13,97l.55.08a.56.56,0,0,0,.2.38,1,1,0,0,0,.58.16,1.08,1.08,0,0,0,.61-.16.82.82,0,0,0,.29-.45,3.76,3.76,0,0,0,0-.73,1.18,1.18,0,0,1-.93.44,1.3,1.3,0,0,1-1.08-.5A2,2,0,0,1,39,95a2.18,2.18,0,0,1,.18-.89,1.28,1.28,0,0,1,.5-.63,1.35,1.35,0,0,1,.78-.23,1.23,1.23,0,0,1,1,.49V93.3H42v2.91a2.72,2.72,0,0,1-.16,1.12,1.11,1.11,0,0,1-.51.52,1.7,1.7,0,0,1-.85.19,1.65,1.65,0,0,1-1-.27A.94.94,0,0,1,39.13,97Zm.47-2a1.47,1.47,0,0,0,.26,1,.87.87,0,0,0,1.32,0,1.43,1.43,0,0,0,.27-1,1.39,1.39,0,0,0-.27-.93.87.87,0,0,0-.67-.31.79.79,0,0,0-.64.31A1.35,1.35,0,0,0,39.6,94.93Z" transform="translate(1.43 -22.63)"/><path class="cls-3" d="M44.65,96.67V93.3h.51v.51a1.31,1.31,0,0,1,.36-.47.63.63,0,0,1,.37-.12,1.17,1.17,0,0,1,.59.19l-.2.53a.86.86,0,0,0-.42-.13.54.54,0,0,0-.34.12.58.58,0,0,0-.21.31,2.36,2.36,0,0,0-.09.67v1.76Z" transform="translate(1.43 -22.63)"/><path class="cls-3" d="M49,96.26a2.49,2.49,0,0,1-.61.38,1.91,1.91,0,0,1-.64.11,1.22,1.22,0,0,1-.85-.27.91.91,0,0,1-.3-.7.89.89,0,0,1,.12-.45A.85.85,0,0,1,47,95a1.72,1.72,0,0,1,.41-.19,4.64,4.64,0,0,1,.51-.08,5.33,5.33,0,0,0,1-.2v-.15a.63.63,0,0,0-.16-.49,1,1,0,0,0-.65-.19,1,1,0,0,0-.6.14.88.88,0,0,0-.28.5l-.56-.08a1.48,1.48,0,0,1,.25-.58,1.2,1.2,0,0,1,.51-.34,2.2,2.2,0,0,1,.76-.12,1.94,1.94,0,0,1,.7.11.86.86,0,0,1,.4.25,1,1,0,0,1,.18.39,3.08,3.08,0,0,1,0,.53v.76a9.89,9.89,0,0,0,0,1,1.49,1.49,0,0,0,.15.4h-.6A1.08,1.08,0,0,1,49,96.26ZM49,95a4.56,4.56,0,0,1-.93.22,2,2,0,0,0-.5.11.43.43,0,0,0-.23.19.5.5,0,0,0,.09.65.78.78,0,0,0,.51.15,1.25,1.25,0,0,0,.59-.14.92.92,0,0,0,.38-.4,1.41,1.41,0,0,0,.09-.57Z" transform="translate(1.43 -22.63)"/><path class="cls-3" d="M50.43,96.67V93.3H51v.48A1.2,1.2,0,0,1,52,93.22a1.47,1.47,0,0,1,.56.11.89.89,0,0,1,.38.29,1.14,1.14,0,0,1,.18.42,3.51,3.51,0,0,1,0,.56v2.07H52.6v-2a1.38,1.38,0,0,0-.07-.52.53.53,0,0,0-.23-.28.77.77,0,0,0-.4-.1.92.92,0,0,0-.63.23,1.14,1.14,0,0,0-.27.88v1.84Z" transform="translate(1.43 -22.63)"/><path class="cls-3" d="M53.94,97l.56.08a.52.52,0,0,0,.19.38,1,1,0,0,0,.58.16,1,1,0,0,0,.61-.16.79.79,0,0,0,.3-.45,3.76,3.76,0,0,0,0-.73,1.19,1.19,0,0,1-.94.44,1.27,1.27,0,0,1-1.07-.5,1.89,1.89,0,0,1-.38-1.2,2.35,2.35,0,0,1,.17-.89,1.37,1.37,0,0,1,1.29-.86,1.21,1.21,0,0,1,1,.49V93.3h.53v2.91a2.9,2.9,0,0,1-.16,1.12,1.22,1.22,0,0,1-.51.52,1.74,1.74,0,0,1-.86.19,1.61,1.61,0,0,1-1-.27A.92.92,0,0,1,53.94,97Zm.47-2a1.41,1.41,0,0,0,.27,1,.81.81,0,0,0,.66.31.85.85,0,0,0,.66-.3,1.43,1.43,0,0,0,.26-1A1.39,1.39,0,0,0,56,94a.83.83,0,0,0-.66-.31.81.81,0,0,0-.65.31A1.35,1.35,0,0,0,54.41,94.93Z" transform="translate(1.43 -22.63)"/><path class="cls-3" d="M60,95.59l.59.07a1.44,1.44,0,0,1-.52.8,1.74,1.74,0,0,1-2.14-.17A1.82,1.82,0,0,1,57.47,95a1.9,1.9,0,0,1,.44-1.32,1.49,1.49,0,0,1,1.14-.47,1.46,1.46,0,0,1,1.1.46,1.82,1.82,0,0,1,.43,1.3,1,1,0,0,1,0,.15H58.06a1.27,1.27,0,0,0,.32.85.91.91,0,0,0,.7.3.89.89,0,0,0,.54-.17A1.16,1.16,0,0,0,60,95.59Zm-1.88-.93H60a1.21,1.21,0,0,0-.22-.64.88.88,0,0,0-.71-.33.9.9,0,0,0-.66.27A1,1,0,0,0,58.09,94.66Z" transform="translate(1.43 -22.63)"/><rect class="繝後Μ_逋ｽ-2" x="20.6" y="99.97" width="41.46" height="14.17"/><path class="cls-3" d="M23.85,125.93l.61.16a2,2,0,0,1-.69,1.15,1.91,1.91,0,0,1-1.23.4,2.2,2.2,0,0,1-1.23-.31,1.9,1.9,0,0,1-.71-.88,3.1,3.1,0,0,1-.25-1.25,2.7,2.7,0,0,1,.28-1.27,1.9,1.9,0,0,1,.79-.82,2.28,2.28,0,0,1,1.13-.28,2,2,0,0,1,1.17.35,1.88,1.88,0,0,1,.67,1l-.61.15a1.46,1.46,0,0,0-.47-.74,1.23,1.23,0,0,0-.78-.23,1.51,1.51,0,0,0-.89.25,1.37,1.37,0,0,0-.51.69,3.09,3.09,0,0,0,0,1.93,1.19,1.19,0,0,0,.54.66,1.45,1.45,0,0,0,.79.22,1.36,1.36,0,0,0,.87-.29A1.58,1.58,0,0,0,23.85,125.93Z" transform="translate(1.43 -22.63)"/><path class="cls-3" d="M24.94,125.88a1.73,1.73,0,0,1,.52-1.39,1.57,1.57,0,0,1,1.06-.38,1.51,1.51,0,0,1,1.13.46,1.7,1.7,0,0,1,.45,1.26,2.22,2.22,0,0,1-.2,1,1.39,1.39,0,0,1-.57.58,1.63,1.63,0,0,1-.81.21,1.51,1.51,0,0,1-1.15-.46A1.81,1.81,0,0,1,24.94,125.88Zm.58,0a1.39,1.39,0,0,0,.29,1,.89.89,0,0,0,.71.33.91.91,0,0,0,.71-.33,1.49,1.49,0,0,0,.28-1,1.38,1.38,0,0,0-.29-1,.94.94,0,0,0-1.41,0A1.41,1.41,0,0,0,25.52,125.88Z" transform="translate(1.43 -22.63)"/><path class="cls-3" d="M28.77,127.56v-3.37h.51v.48a1.21,1.21,0,0,1,1.07-.56,1.43,1.43,0,0,1,.56.11.89.89,0,0,1,.38.29,1,1,0,0,1,.18.42,3.51,3.51,0,0,1,0,.56v2.07h-.57v-2a1.67,1.67,0,0,0-.06-.52.6.6,0,0,0-.24-.28.74.74,0,0,0-.4-.1,1,1,0,0,0-.63.23,1.13,1.13,0,0,0-.26.88v1.84Z" transform="translate(1.43 -22.63)"/><path class="cls-3" d="M33.63,127.05l.08.5a1.72,1.72,0,0,1-.43,0,1,1,0,0,1-.48-.09.62.62,0,0,1-.25-.26,2.27,2.27,0,0,1-.07-.68v-1.94h-.41v-.44h.41v-.83l.57-.35v1.18h.58v.44h-.58v2a1,1,0,0,0,0,.31.27.27,0,0,0,.1.11.37.37,0,0,0,.2,0Z" transform="translate(1.43 -22.63)"/><path class="cls-3" d="M34.19,123.57v-.66h.57v.66Zm0,4v-3.37h.57v3.37Z" transform="translate(1.43 -22.63)"/><path class="cls-3" d="M35.63,127.56v-3.37h.51v.48a1.23,1.23,0,0,1,1.08-.56,1.47,1.47,0,0,1,.56.11.89.89,0,0,1,.38.29,1.33,1.33,0,0,1,.18.42,3.51,3.51,0,0,1,0,.56v2.07H37.8v-2a1.38,1.38,0,0,0-.07-.52.5.5,0,0,0-.24-.28.71.71,0,0,0-.39-.1.92.92,0,0,0-.63.23,1.13,1.13,0,0,0-.27.88v1.84Z" transform="translate(1.43 -22.63)"/><path class="cls-3" d="M41.45,127.56v-.49a1.22,1.22,0,0,1-1.07.57,1.3,1.3,0,0,1-.55-.12,1,1,0,0,1-.39-.28,1.11,1.11,0,0,1-.17-.43,2.3,2.3,0,0,1,0-.53v-2.09h.57v1.87a3.41,3.41,0,0,0,0,.6.58.58,0,0,0,.23.36.73.73,0,0,0,.43.13A.92.92,0,0,0,41,127a.66.66,0,0,0,.32-.36,1.84,1.84,0,0,0,.09-.65v-1.81H42v3.37Z" transform="translate(1.43 -22.63)"/><path class="cls-3" d="M42.65,125.88a1.73,1.73,0,0,1,.52-1.39,1.57,1.57,0,0,1,1.06-.38,1.51,1.51,0,0,1,1.13.46,1.7,1.7,0,0,1,.45,1.26,2.22,2.22,0,0,1-.2,1,1.39,1.39,0,0,1-.57.58,1.63,1.63,0,0,1-.81.21,1.51,1.51,0,0,1-1.15-.46A1.81,1.81,0,0,1,42.65,125.88Zm.58,0a1.39,1.39,0,0,0,.29,1,.89.89,0,0,0,.71.33.91.91,0,0,0,.71-.33,1.49,1.49,0,0,0,.28-1,1.38,1.38,0,0,0-.29-1,.94.94,0,0,0-1.41,0A1.41,1.41,0,0,0,43.23,125.88Z" transform="translate(1.43 -22.63)"/><path class="cls-3" d="M48.68,127.56v-.49a1.22,1.22,0,0,1-1.07.57,1.3,1.3,0,0,1-.55-.12,1,1,0,0,1-.39-.28,1.11,1.11,0,0,1-.17-.43,2.3,2.3,0,0,1,0-.53v-2.09H47v1.87a3.41,3.41,0,0,0,0,.6.58.58,0,0,0,.23.36.73.73,0,0,0,.43.13.92.92,0,0,0,.48-.14.66.66,0,0,0,.32-.36,1.84,1.84,0,0,0,.09-.65v-1.81h.58v3.37Z" transform="translate(1.43 -22.63)"/><path class="cls-3" d="M49.86,126.56l.57-.09a.81.81,0,0,0,.26.52.94.94,0,0,0,.61.18.91.91,0,0,0,.58-.16.49.49,0,0,0,.19-.38.33.33,0,0,0-.16-.3,2.64,2.64,0,0,0-.59-.2,4.57,4.57,0,0,1-.87-.27,1,1,0,0,1-.37-.32.9.9,0,0,1-.12-.46.86.86,0,0,1,.1-.41.87.87,0,0,1,.28-.32,1.21,1.21,0,0,1,.36-.17,2,2,0,0,1,.5-.07,1.85,1.85,0,0,1,.69.12,1,1,0,0,1,.45.31,1.18,1.18,0,0,1,.19.52l-.55.08a.64.64,0,0,0-.22-.41.82.82,0,0,0-.52-.15,1,1,0,0,0-.56.13.37.37,0,0,0-.17.31.31.31,0,0,0,.07.2.53.53,0,0,0,.22.15l.5.15a5.68,5.68,0,0,1,.85.26.85.85,0,0,1,.37.3.79.79,0,0,1,.14.49.91.91,0,0,1-.17.54,1,1,0,0,1-.48.39,1.76,1.76,0,0,1-.71.14,1.53,1.53,0,0,1-1-.28A1.29,1.29,0,0,1,49.86,126.56Z" transform="translate(1.43 -22.63)"/><path class="cls-3" d="M20.45,135.36V132H21v.51a1.43,1.43,0,0,1,.37-.47.6.6,0,0,1,.36-.12,1.14,1.14,0,0,1,.59.19l-.2.53a.85.85,0,0,0-.41-.13.52.52,0,0,0-.34.12.58.58,0,0,0-.21.31,2,2,0,0,0-.1.67v1.76Z" transform="translate(1.43 -22.63)"/><path class="cls-3" d="M24.83,135.36v-.49a1.23,1.23,0,0,1-1.07.57,1.34,1.34,0,0,1-.56-.12.88.88,0,0,1-.38-.28,1.3,1.3,0,0,1-.18-.43,3.33,3.33,0,0,1,0-.53V132h.57v1.87a3.77,3.77,0,0,0,0,.6.68.68,0,0,0,.23.36.75.75,0,0,0,.43.13.93.93,0,0,0,.49-.14.71.71,0,0,0,.32-.36,1.84,1.84,0,0,0,.09-.65V132h.57v3.37Z" transform="translate(1.43 -22.63)"/><path class="cls-3" d="M26.24,135.36V132h.51v.48a1.21,1.21,0,0,1,1.07-.56,1.43,1.43,0,0,1,.56.11,1,1,0,0,1,.39.29,1.13,1.13,0,0,1,.17.42,3.51,3.51,0,0,1,0,.56v2.07H28.4v-2.05a1.67,1.67,0,0,0-.06-.52.6.6,0,0,0-.24-.28.74.74,0,0,0-.4-.1,1,1,0,0,0-.63.23,1.17,1.17,0,0,0-.26.88v1.84Z" transform="translate(1.43 -22.63)"/><path class="cls-3" d="M29.85,135.36V132h.51v.48a1.23,1.23,0,0,1,1.08-.56A1.47,1.47,0,0,1,32,132a.89.89,0,0,1,.38.29,1.33,1.33,0,0,1,.18.42,3.51,3.51,0,0,1,0,.56v2.07H32v-2.05a1.38,1.38,0,0,0-.07-.52.5.5,0,0,0-.24-.28.71.71,0,0,0-.39-.1.92.92,0,0,0-.63.23,1.13,1.13,0,0,0-.27.88v1.84Z" transform="translate(1.43 -22.63)"/><path class="cls-3" d="M33.47,131.37v-.66H34v.66Zm0,4V132H34v3.37Z" transform="translate(1.43 -22.63)"/><path class="cls-3" d="M34.91,135.36V132h.51v.48a1.23,1.23,0,0,1,1.08-.56,1.47,1.47,0,0,1,.56.11,1,1,0,0,1,.38.29,1.33,1.33,0,0,1,.18.42,3.51,3.51,0,0,1,0,.56v2.07h-.57v-2.05a1.38,1.38,0,0,0-.07-.52.5.5,0,0,0-.24-.28.71.71,0,0,0-.39-.1.92.92,0,0,0-.63.23,1.13,1.13,0,0,0-.27.88v1.84Z" transform="translate(1.43 -22.63)"/><path class="cls-3" d="M38.42,135.64l.56.08a.52.52,0,0,0,.19.38,1,1,0,0,0,.58.16,1.05,1.05,0,0,0,.61-.16.77.77,0,0,0,.29-.45,3.49,3.49,0,0,0,.05-.73,1.19,1.19,0,0,1-.94.44,1.27,1.27,0,0,1-1.07-.5,1.89,1.89,0,0,1-.38-1.2,2.14,2.14,0,0,1,.17-.89,1.37,1.37,0,0,1,1.29-.86,1.2,1.2,0,0,1,1,.49V132h.53v2.91a2.9,2.9,0,0,1-.16,1.12,1.22,1.22,0,0,1-.51.52,1.74,1.74,0,0,1-.86.19,1.61,1.61,0,0,1-1-.27A.92.92,0,0,1,38.42,135.64Zm.47-2a1.42,1.42,0,0,0,.27,1,.81.81,0,0,0,.66.31.83.83,0,0,0,.66-.31,1.44,1.44,0,0,0,.26-1,1.39,1.39,0,0,0-.27-.93.83.83,0,0,0-.66-.31.81.81,0,0,0-.65.31A1.34,1.34,0,0,0,38.89,133.61Z" transform="translate(1.43 -22.63)"/><path class="cls-3" d="M43.94,135.36V132h.51v.51a1.31,1.31,0,0,1,.37-.47.6.6,0,0,1,.36-.12,1.14,1.14,0,0,1,.59.19l-.2.53a.86.86,0,0,0-.42-.13.52.52,0,0,0-.33.12.58.58,0,0,0-.21.31,2,2,0,0,0-.1.67v1.76Z" transform="translate(1.43 -22.63)"/><path class="cls-3" d="M48.31,135a2.62,2.62,0,0,1-.61.38,1.9,1.9,0,0,1-.63.11,1.2,1.2,0,0,1-.86-.28.91.91,0,0,1-.29-.69A.88.88,0,0,1,46,134a.85.85,0,0,1,.29-.33,1.79,1.79,0,0,1,.42-.19,4.79,4.79,0,0,1,.5-.08,5.33,5.33,0,0,0,1-.2c0-.08,0-.13,0-.15a.63.63,0,0,0-.17-.49.94.94,0,0,0-.65-.19,1,1,0,0,0-.59.14.89.89,0,0,0-.29.5L46,133a1.48,1.48,0,0,1,.26-.58,1.11,1.11,0,0,1,.5-.34,2.26,2.26,0,0,1,.77-.12,2,2,0,0,1,.7.11.82.82,0,0,1,.39.25.79.79,0,0,1,.18.39,3.08,3.08,0,0,1,0,.53V134a6.89,6.89,0,0,0,0,1,1.19,1.19,0,0,0,.14.4h-.6A1.3,1.3,0,0,1,48.31,135Zm-.05-1.28a4.56,4.56,0,0,1-.93.22,2.12,2.12,0,0,0-.5.11.44.44,0,0,0-.22.18.48.48,0,0,0-.08.28.47.47,0,0,0,.17.38.74.74,0,0,0,.51.15,1.21,1.21,0,0,0,.58-.14.92.92,0,0,0,.38-.4,1.41,1.41,0,0,0,.09-.57Z" transform="translate(1.43 -22.63)"/><path class="cls-3" d="M49.73,135.36V132h.51v.48a1.21,1.21,0,0,1,1.07-.56,1.43,1.43,0,0,1,.56.11.89.89,0,0,1,.38.29,1,1,0,0,1,.18.42,3.51,3.51,0,0,1,0,.56v2.07h-.57v-2.05a1.67,1.67,0,0,0-.06-.52.6.6,0,0,0-.24-.28.74.74,0,0,0-.4-.1,1,1,0,0,0-.63.23,1.13,1.13,0,0,0-.26.88v1.84Z" transform="translate(1.43 -22.63)"/><path class="cls-3" d="M53.24,135.64l.55.08a.56.56,0,0,0,.19.38,1,1,0,0,0,.59.16,1.08,1.08,0,0,0,.61-.16.82.82,0,0,0,.29-.45,3.76,3.76,0,0,0,0-.73,1.18,1.18,0,0,1-.93.44,1.29,1.29,0,0,1-1.08-.5,2,2,0,0,1-.38-1.2,2.14,2.14,0,0,1,.18-.89,1.28,1.28,0,0,1,.5-.63,1.35,1.35,0,0,1,.78-.23,1.17,1.17,0,0,1,1,.49V132h.53v2.91a2.72,2.72,0,0,1-.16,1.12,1.16,1.16,0,0,1-.51.52,1.7,1.7,0,0,1-.85.19,1.65,1.65,0,0,1-1-.27A.94.94,0,0,1,53.24,135.64Zm.47-2a1.48,1.48,0,0,0,.26,1,.86.86,0,0,0,1.32,0,1.38,1.38,0,0,0,.27-1,1.34,1.34,0,0,0-.28-.93.85.85,0,0,0-1.31,0A1.39,1.39,0,0,0,53.71,133.61Z" transform="translate(1.43 -22.63)"/><path class="cls-3" d="M59.26,134.28l.59.07a1.43,1.43,0,0,1-.51.8,1.6,1.6,0,0,1-1,.29A1.52,1.52,0,0,1,57.2,135a1.77,1.77,0,0,1-.44-1.28,1.9,1.9,0,0,1,.44-1.32,1.49,1.49,0,0,1,1.14-.47,1.45,1.45,0,0,1,1.1.46,1.82,1.82,0,0,1,.43,1.3v.15H57.35a1.32,1.32,0,0,0,.32.85.92.92,0,0,0,.7.3.89.89,0,0,0,.54-.17A1,1,0,0,0,59.26,134.28Zm-1.87-.93h1.88a1.21,1.21,0,0,0-.22-.64.86.86,0,0,0-.7-.33.9.9,0,0,0-.67.27A1,1,0,0,0,57.39,133.35Z" transform="translate(1.43 -22.63)"/><path class="cls-3" d="M44.76,150.56l.58-.06a1.32,1.32,0,0,0,.19.58,1,1,0,0,0,.47.36,1.8,1.8,0,0,0,.71.14,1.67,1.67,0,0,0,.62-.11.91.91,0,0,0,.41-.28.76.76,0,0,0,.13-.4.59.59,0,0,0-.13-.39.92.92,0,0,0-.42-.27c-.12,0-.4-.12-.83-.23a4.15,4.15,0,0,1-.89-.29,1.19,1.19,0,0,1-.5-.43,1.06,1.06,0,0,1-.16-.58,1.16,1.16,0,0,1,.2-.66,1.18,1.18,0,0,1,.58-.46,2.11,2.11,0,0,1,.85-.16,2.4,2.4,0,0,1,.92.16,1.4,1.4,0,0,1,.6.49,1.47,1.47,0,0,1,.23.74l-.59,0a1,1,0,0,0-.32-.66,1.24,1.24,0,0,0-.81-.23,1.37,1.37,0,0,0-.82.2.63.63,0,0,0-.25.5.52.52,0,0,0,.18.41,2.39,2.39,0,0,0,.93.33,7.58,7.58,0,0,1,1,.3,1.39,1.39,0,0,1,.6.47,1.19,1.19,0,0,1,.19.67,1.3,1.3,0,0,1-.21.7,1.4,1.4,0,0,1-.61.51,2.19,2.19,0,0,1-.9.18,2.76,2.76,0,0,1-1.06-.18,1.52,1.52,0,0,1-.92-1.39Z" transform="translate(1.43 -22.63)"/><path class="cls-3" d="M49.23,153.34v-4.66h.52v.44a1.29,1.29,0,0,1,.42-.39,1.19,1.19,0,0,1,.56-.13,1.34,1.34,0,0,1,.76.23,1.29,1.29,0,0,1,.5.62,2.35,2.35,0,0,1,.17.89,2.3,2.3,0,0,1-.19.93,1.36,1.36,0,0,1-.54.64,1.45,1.45,0,0,1-.74.22,1.11,1.11,0,0,1-.52-.12,1.42,1.42,0,0,1-.37-.31v1.64Zm.52-3a1.46,1.46,0,0,0,.26,1,.84.84,0,0,0,.64.31.82.82,0,0,0,.65-.33,1.5,1.5,0,0,0,.27-1,1.56,1.56,0,0,0-.26-1,.79.79,0,0,0-1.28,0A1.52,1.52,0,0,0,49.75,150.38Z" transform="translate(1.43 -22.63)"/><path class="cls-3" d="M55.15,151l.59.08a1.39,1.39,0,0,1-.52.8,1.72,1.72,0,0,1-2.13-.17,1.77,1.77,0,0,1-.44-1.28,1.9,1.9,0,0,1,.44-1.32,1.49,1.49,0,0,1,1.14-.47,1.45,1.45,0,0,1,1.1.46,1.82,1.82,0,0,1,.43,1.3v.15H53.24a1.34,1.34,0,0,0,.32.85.92.92,0,0,0,.7.3.89.89,0,0,0,.54-.17A1.07,1.07,0,0,0,55.15,151ZM53.28,150h1.88a1.18,1.18,0,0,0-.22-.64.88.88,0,0,0-.71-.33.9.9,0,0,0-.66.27A1,1,0,0,0,53.28,150Z" transform="translate(1.43 -22.63)"/><path class="cls-3" d="M58.77,151l.59.08a1.5,1.5,0,0,1-.52.8,1.74,1.74,0,0,1-2.14-.17,1.77,1.77,0,0,1-.43-1.28,1.85,1.85,0,0,1,.44-1.32,1.58,1.58,0,0,1,2.24,0,1.87,1.87,0,0,1,.43,1.3s0,.08,0,.15H56.86a1.28,1.28,0,0,0,.31.85.94.94,0,0,0,.71.3.84.84,0,0,0,.53-.17A1.08,1.08,0,0,0,58.77,151ZM56.89,150h1.88a1.1,1.1,0,0,0-.21-.64.88.88,0,0,0-.71-.33.9.9,0,0,0-.66.27A1,1,0,0,0,56.89,150Z" transform="translate(1.43 -22.63)"/><path class="cls-3" d="M62.26,152.05v-.43a1,1,0,0,1-.94.51,1.3,1.3,0,0,1-.74-.23,1.41,1.41,0,0,1-.53-.62,2.17,2.17,0,0,1-.18-.91,2.29,2.29,0,0,1,.17-.92,1.37,1.37,0,0,1,.5-.63,1.4,1.4,0,0,1,.75-.22,1.21,1.21,0,0,1,.55.13,1.24,1.24,0,0,1,.38.34V147.4h.57v4.65Zm-1.8-1.68a1.5,1.5,0,0,0,.27,1,.82.82,0,0,0,.64.32.84.84,0,0,0,.64-.31,1.43,1.43,0,0,0,.26-.93,1.58,1.58,0,0,0-.27-1,.82.82,0,0,0-1.29,0A1.52,1.52,0,0,0,60.46,150.37Z" transform="translate(1.43 -22.63)"/><path class="cls-3" d="M65.51,153.34V147.4h1.26v.47h-.69v5h.69v.47Z" transform="translate(1.43 -22.63)"/><path class="cls-3" d="M67.29,152.05v-3.37h.52v.51a1.31,1.31,0,0,1,.36-.47.63.63,0,0,1,.37-.12,1.08,1.08,0,0,1,.59.19l-.2.53a.76.76,0,0,0-.42-.13.54.54,0,0,0-.34.12.58.58,0,0,0-.21.31,2.31,2.31,0,0,0-.09.67v1.76Z" transform="translate(1.43 -22.63)"/><path class="cls-3" d="M69,152.13l1.35-4.81h.45l-1.34,4.81Z" transform="translate(1.43 -22.63)"/><path class="cls-3" d="M71.27,152.05v-3.37h.51v.47a1.34,1.34,0,0,1,.42-.4,1.21,1.21,0,0,1,.6-.15,1.16,1.16,0,0,1,.62.16.86.86,0,0,1,.34.43,1.2,1.2,0,0,1,1-.59,1.05,1.05,0,0,1,.77.28,1.2,1.2,0,0,1,.27.86v2.31h-.57v-2.12a1.49,1.49,0,0,0-.06-.5.42.42,0,0,0-.2-.24.62.62,0,0,0-.34-.09.82.82,0,0,0-.59.23,1,1,0,0,0-.23.76v2h-.58v-2.19a.92.92,0,0,0-.14-.57.51.51,0,0,0-.45-.19.81.81,0,0,0-.45.13.75.75,0,0,0-.3.37,2.08,2.08,0,0,0-.09.7v1.75Z" transform="translate(1.43 -22.63)"/><path class="cls-3" d="M76.69,148.05v-.65h.57v.65Zm0,4v-3.37h.57v3.37Z" transform="translate(1.43 -22.63)"/><path class="cls-3" d="M78.13,152.05v-3.37h.51v.48a1.23,1.23,0,0,1,1.08-.56,1.47,1.47,0,0,1,.56.11.89.89,0,0,1,.38.29,1.33,1.33,0,0,1,.18.42,3.51,3.51,0,0,1,0,.56v2.07H80.3V150a1.38,1.38,0,0,0-.07-.52.5.5,0,0,0-.24-.28.71.71,0,0,0-.39-.1.92.92,0,0,0-.63.23,1.13,1.13,0,0,0-.27.88v1.84Z" transform="translate(1.43 -22.63)"/><path class="cls-3" d="M82.7,153.34H81.44v-.47h.69v-5h-.69v-.47H82.7Z" transform="translate(1.43 -22.63)"/></g></svg>