<svg xmlns="http://www.w3.org/2000/svg" viewBox="0 0 116.57 130.73"><defs><style>.cls-1,.cls-3,.繝医Ν繧ｯ繧ｰ繝ｩ繝廟繧ｰ繝ｬ繝ｼ邱,.邱喟0\.5pt-5{fill:none;}.cls-1,.cls-3,.邱喟0\.5pt-5{stroke:#231815;}.cls-1{stroke-linejoin:round;stroke-width:0.14px;}.繝医Ν繧ｯ繧ｰ繝ｩ繝廟繧ｰ繝ｬ繝ｼ邱{stroke:#9fa0a0;stroke-width:3px;}.cls-2{fill:#231815;}.繝後Μ_逋ｽ-2{fill:#fff;}.邱喟0\.5pt-5{stroke-miterlimit:10;stroke-width:0.5px;}</style></defs><g id="Illust"><line class="cls-1" x1="45.65" y1="1.48" x2="45.65" y2="114.87"/><line class="cls-1" x1="100.08" y1="1.48" x2="100.08" y2="114.87"/><line class="cls-1" x1="72.86" y1="1.48" x2="72.86" y2="114.87"/><line class="cls-1" x1="18.45" y1="98.68" x2="109.15" y2="98.68"/><line class="cls-1" x1="18.45" y1="82.49" x2="109.15" y2="82.49"/><line class="cls-1" x1="18.45" y1="66.3" x2="109.15" y2="66.3"/><line class="cls-1" x1="18.45" y1="50.11" x2="109.15" y2="50.11"/><line class="cls-1" x1="18.45" y1="33.92" x2="109.15" y2="33.92"/><line class="cls-1" x1="18.45" y1="17.73" x2="109.15" y2="17.73"/><polyline class="繝医Ν繧ｯ繧ｰ繝ｩ繝廟繧ｰ繝ｬ繝ｼ邱" points="18.44 89.09 45.65 89.09 54.72 95.55 63.8 99.4 72.87 102.02 81.93 103.83 91 105.22 100.08 106.29 109.14 107.15"/><polyline class="繝医Ν繧ｯ繧ｰ繝ｩ繝廟繧ｰ繝ｬ繝ｼ邱" points="18.44 37.58 68.33 37.58 79.21 47.67 110.56 77.31"/><path class="cls-2" d="M10.23,137.84a3.2,3.2,0,0,1,.13-1,1.31,1.31,0,0,1,.39-.6,1.11,1.11,0,0,1,1.15-.09,1,1,0,0,1,.36.33,1.91,1.91,0,0,1,.22.54,4.23,4.23,0,0,1-.05,1.86,1.22,1.22,0,0,1-.38.6,1.1,1.1,0,0,1-1.47-.16A2.43,2.43,0,0,1,10.23,137.84Zm.45,0a2.18,2.18,0,0,0,.21,1.17.59.59,0,0,0,.51.3.61.61,0,0,0,.51-.3,3.52,3.52,0,0,0,0-2.34.6.6,0,0,0-.52-.29.56.56,0,0,0-.48.25A2.28,2.28,0,0,0,10.68,137.84Z" transform="translate(0.01 -22.61)"/><path class="cls-2" d="M13.29,139.61v-.5h.5v.5Z" transform="translate(0.01 -22.61)"/><path class="cls-2" d="M14.43,137.84a3.52,3.52,0,0,1,.13-1,1.31,1.31,0,0,1,.39-.6,1,1,0,0,1,.65-.21,1.07,1.07,0,0,1,.51.12,1.13,1.13,0,0,1,.36.33,2.25,2.25,0,0,1,.22.54,3.66,3.66,0,0,1,.08.84,3.52,3.52,0,0,1-.13,1,1.31,1.31,0,0,1-.39.6,1.09,1.09,0,0,1-1.46-.16A2.35,2.35,0,0,1,14.43,137.84Zm.46,0a2.2,2.2,0,0,0,.2,1.17.58.58,0,0,0,1,0,3.36,3.36,0,0,0,0-2.34.6.6,0,0,0-.51-.29.56.56,0,0,0-.49.25A2.3,2.3,0,0,0,14.89,137.84Z" transform="translate(0.01 -22.61)"/><path class="cls-2" d="M10.23,121.64a3.2,3.2,0,0,1,.13-1,1.28,1.28,0,0,1,.39-.59,1.14,1.14,0,0,1,1.15-.1.9.9,0,0,1,.36.34,1.73,1.73,0,0,1,.22.53,4.23,4.23,0,0,1-.05,1.86,1.22,1.22,0,0,1-.38.6,1,1,0,0,1-.65.21,1,1,0,0,1-.82-.37A2.41,2.41,0,0,1,10.23,121.64Zm.45,0a2.25,2.25,0,0,0,.21,1.18.6.6,0,0,0,.51.29.62.62,0,0,0,.51-.29,2.38,2.38,0,0,0,.2-1.18,2.31,2.31,0,0,0-.2-1.17.63.63,0,0,0-.52-.29.54.54,0,0,0-.48.26A2.24,2.24,0,0,0,10.68,121.64Z" transform="translate(0.01 -22.61)"/><path class="cls-2" d="M13.29,123.41v-.5h.5v.5Z" transform="translate(0.01 -22.61)"/><path class="cls-2" d="M16.74,123v.42H14.38a.65.65,0,0,1,0-.31,1.58,1.58,0,0,1,.29-.47,3.81,3.81,0,0,1,.57-.54,4.87,4.87,0,0,0,.79-.76.9.9,0,0,0,.21-.53.61.61,0,0,0-.19-.44.67.67,0,0,0-.49-.18.65.65,0,0,0-.5.19.71.71,0,0,0-.2.53l-.45-.05a1.12,1.12,0,0,1,.35-.77,1.16,1.16,0,0,1,.81-.26,1.13,1.13,0,0,1,.82.28.94.94,0,0,1,.3.71,1.06,1.06,0,0,1-.09.42,1.75,1.75,0,0,1-.29.44,8.11,8.11,0,0,1-.68.63l-.51.45A1.88,1.88,0,0,0,15,123Z" transform="translate(0.01 -22.61)"/><path class="cls-2" d="M10.23,105.44a3.2,3.2,0,0,1,.13-1,1.33,1.33,0,0,1,.39-.59,1.14,1.14,0,0,1,1.15-.1.9.9,0,0,1,.36.34,1.73,1.73,0,0,1,.22.53,4.23,4.23,0,0,1-.05,1.86,1.22,1.22,0,0,1-.38.6,1,1,0,0,1-.65.21,1,1,0,0,1-.82-.37A2.41,2.41,0,0,1,10.23,105.44Zm.45,0a2.25,2.25,0,0,0,.21,1.18.6.6,0,0,0,.51.29.62.62,0,0,0,.51-.29,2.38,2.38,0,0,0,.2-1.18,2.34,2.34,0,0,0-.2-1.17.63.63,0,0,0-.52-.29.56.56,0,0,0-.48.26A2.24,2.24,0,0,0,10.68,105.44Z" transform="translate(0.01 -22.61)"/><path class="cls-2" d="M13.29,107.21v-.5h.5v.5Z" transform="translate(0.01 -22.61)"/><path class="cls-2" d="M15.84,107.21v-.86H14.29V106l1.63-2.32h.36V106h.49v.4h-.49v.86Zm0-1.26v-1.61L14.72,106Z" transform="translate(0.01 -22.61)"/><path class="cls-2" d="M10.23,89.24a3.2,3.2,0,0,1,.13-1,1.28,1.28,0,0,1,.39-.59.94.94,0,0,1,.65-.21,1,1,0,0,1,.5.11.9.9,0,0,1,.36.34,1.73,1.73,0,0,1,.22.53,4.23,4.23,0,0,1-.05,1.86,1.22,1.22,0,0,1-.38.6,1,1,0,0,1-.65.21,1,1,0,0,1-.82-.37A2.41,2.41,0,0,1,10.23,89.24Zm.45,0a2.25,2.25,0,0,0,.21,1.18.6.6,0,0,0,.51.29.62.62,0,0,0,.51-.29,2.38,2.38,0,0,0,.2-1.18,2.31,2.31,0,0,0-.2-1.17.63.63,0,0,0-.52-.29.54.54,0,0,0-.48.26A2.24,2.24,0,0,0,10.68,89.24Z" transform="translate(0.01 -22.61)"/><path class="cls-2" d="M13.29,91v-.5h.5V91Z" transform="translate(0.01 -22.61)"/><path class="cls-2" d="M16.71,88.31l-.43,0a.9.9,0,0,0-.17-.38.59.59,0,0,0-.44-.18.67.67,0,0,0-.37.11,1,1,0,0,0-.32.45,2.19,2.19,0,0,0-.13.82,1.11,1.11,0,0,1,.39-.36,1.13,1.13,0,0,1,.48-.11,1,1,0,0,1,.75.32,1.19,1.19,0,0,1,.31.84,1.32,1.32,0,0,1-.15.62,1,1,0,0,1-.4.45,1.1,1.1,0,0,1-.57.15,1.12,1.12,0,0,1-.9-.4,2.07,2.07,0,0,1-.35-1.34,2.32,2.32,0,0,1,.39-1.5,1.08,1.08,0,0,1,.9-.41.94.94,0,0,1,1,.89Zm-1.79,1.54a.91.91,0,0,0,.1.43.7.7,0,0,0,.63.43.63.63,0,0,0,.48-.23.9.9,0,0,0,.2-.61.83.83,0,0,0-.2-.58.66.66,0,0,0-.5-.21.67.67,0,0,0-.5.21A.76.76,0,0,0,14.92,89.85Z" transform="translate(0.01 -22.61)"/><path class="cls-2" d="M10.23,73.05a3.23,3.23,0,0,1,.13-1,1.33,1.33,0,0,1,.39-.59,1,1,0,0,1,.65-.21,1.12,1.12,0,0,1,.5.11.9.9,0,0,1,.36.34,1.73,1.73,0,0,1,.22.53,3.25,3.25,0,0,1,.08.85,3.09,3.09,0,0,1-.13,1,1.22,1.22,0,0,1-.38.6,1,1,0,0,1-.65.21,1,1,0,0,1-.82-.37A2.39,2.39,0,0,1,10.23,73.05Zm.45,0a2.23,2.23,0,0,0,.21,1.17.6.6,0,0,0,.51.29.62.62,0,0,0,.51-.29,3.55,3.55,0,0,0,0-2.35.63.63,0,0,0-.52-.29.56.56,0,0,0-.48.26A2.28,2.28,0,0,0,10.68,73.05Z" transform="translate(0.01 -22.61)"/><path class="cls-2" d="M13.29,74.81v-.5h.5v.5Z" transform="translate(0.01 -22.61)"/><path class="cls-2" d="M15.11,72.87a.91.91,0,0,1-.41-.28.85.85,0,0,1-.13-.45.91.91,0,0,1,.28-.66,1.21,1.21,0,0,1,1.51,0,.87.87,0,0,1,.28.66.74.74,0,0,1-.13.44.87.87,0,0,1-.4.28,1,1,0,0,1,.51.35,1,1,0,0,1,.17.57,1,1,0,0,1-.33.77,1.16,1.16,0,0,1-.85.31,1.2,1.2,0,0,1-.86-.31,1.06,1.06,0,0,1-.32-.78.94.94,0,0,1,.18-.59A.84.84,0,0,1,15.11,72.87Zm-.23.91a.77.77,0,0,0,.09.36.7.7,0,0,0,.26.28.85.85,0,0,0,.38.09.72.72,0,0,0,.52-.2.75.75,0,0,0,0-1,.72.72,0,0,0-.53-.21.7.7,0,0,0-.52.21A.69.69,0,0,0,14.88,73.78ZM15,72.13a.56.56,0,0,0,.59.57.57.57,0,0,0,.42-.16.5.5,0,0,0,.16-.39.57.57,0,0,0-.17-.41.56.56,0,0,0-.41-.16.57.57,0,0,0-.42.16A.54.54,0,0,0,15,72.13Z" transform="translate(0.01 -22.61)"/><path class="cls-2" d="M11.88,58.61h-.44v-2.8a2.07,2.07,0,0,1-.41.3,3.27,3.27,0,0,1-.46.23v-.43a2.37,2.37,0,0,0,.64-.42A1.65,1.65,0,0,0,11.6,55h.28Z" transform="translate(0.01 -22.61)"/><path class="cls-2" d="M13.29,58.61v-.5h.5v.5Z" transform="translate(0.01 -22.61)"/><path class="cls-2" d="M14.43,56.84a3.52,3.52,0,0,1,.13-1,1.31,1.31,0,0,1,.39-.6A1,1,0,0,1,15.6,55a1.07,1.07,0,0,1,.51.12,1.13,1.13,0,0,1,.36.33,2.25,2.25,0,0,1,.22.54,3.72,3.72,0,0,1,.08.84,3.52,3.52,0,0,1-.13,1,1.31,1.31,0,0,1-.39.6,1,1,0,0,1-.65.21,1,1,0,0,1-.81-.37A2.35,2.35,0,0,1,14.43,56.84Zm.46,0a2.27,2.27,0,0,0,.2,1.18.62.62,0,0,0,.51.29.61.61,0,0,0,.51-.3,3.36,3.36,0,0,0,0-2.34.6.6,0,0,0-.51-.29.56.56,0,0,0-.49.25A2.3,2.3,0,0,0,14.89,56.84Z" transform="translate(0.01 -22.61)"/><path class="cls-2" d="M11.88,42.41h-.44v-2.8a2.07,2.07,0,0,1-.41.3,3.27,3.27,0,0,1-.46.23v-.43a2.37,2.37,0,0,0,.64-.42,1.65,1.65,0,0,0,.39-.48h.28Z" transform="translate(0.01 -22.61)"/><path class="cls-2" d="M13.29,42.41v-.5h.5v.5Z" transform="translate(0.01 -22.61)"/><path class="cls-2" d="M16.74,42v.43H14.38a.65.65,0,0,1,0-.31,1.58,1.58,0,0,1,.29-.47,4.37,4.37,0,0,1,.57-.55,4.51,4.51,0,0,0,.79-.75.92.92,0,0,0,.21-.53.6.6,0,0,0-.19-.44.67.67,0,0,0-.49-.18.65.65,0,0,0-.5.19.69.69,0,0,0-.2.53l-.45,0a1.1,1.1,0,0,1,.35-.77,1.17,1.17,0,0,1,.81-.27,1.14,1.14,0,0,1,.82.29.94.94,0,0,1,.3.71,1.06,1.06,0,0,1-.09.42,2,2,0,0,1-.29.44,8.11,8.11,0,0,1-.68.63l-.51.45L15,42Z" transform="translate(0.01 -22.61)"/><path class="cls-2" d="M11.88,26.21h-.44v-2.8a2.07,2.07,0,0,1-.41.3,3.27,3.27,0,0,1-.46.23v-.43a2.37,2.37,0,0,0,.64-.42,1.65,1.65,0,0,0,.39-.48h.28Z" transform="translate(0.01 -22.61)"/><path class="cls-2" d="M13.29,26.21v-.5h.5v.5Z" transform="translate(0.01 -22.61)"/><path class="cls-2" d="M15.84,26.21v-.86H14.29V25l1.63-2.32h.36V25h.49v.4h-.49v.86Zm0-1.26V23.33L14.72,25Z" transform="translate(0.01 -22.61)"/><path class="cls-2" d="M17.2,141.38a3.2,3.2,0,0,1,.13-1,1.28,1.28,0,0,1,.39-.59,1,1,0,0,1,.65-.21,1,1,0,0,1,.5.11.9.9,0,0,1,.36.34,1.73,1.73,0,0,1,.22.53,4.23,4.23,0,0,1-.05,1.86,1.22,1.22,0,0,1-.38.6,1,1,0,0,1-.65.21,1,1,0,0,1-.82-.37A2.41,2.41,0,0,1,17.2,141.38Zm.45,0a2.25,2.25,0,0,0,.21,1.18.58.58,0,0,0,1,0,2.25,2.25,0,0,0,.21-1.18,2.2,2.2,0,0,0-.21-1.17.6.6,0,0,0-.51-.29.54.54,0,0,0-.48.26A2.24,2.24,0,0,0,17.65,141.38Z" transform="translate(0.01 -22.61)"/><polyline class="cls-3" points="18.44 89.09 45.65 89.09 54.72 95.55 63.8 99.4 72.87 102.02 81.93 103.83 91 105.22 100.08 106.29 109.14 107.15"/><polyline class="cls-3" points="18.44 37.58 59.26 37.58 109.14 87.38"/><rect class="繝後Μ_逋ｽ-2" x="109.15" y="1.48" width="2.83" height="113.39"/><path class="cls-2" d="M40.29,142.21l.43-.06a1,1,0,0,0,.26.54.72.72,0,0,0,1-.06.72.72,0,0,0,.21-.53.65.65,0,0,0-.2-.5.66.66,0,0,0-.5-.19,1,1,0,0,0-.31.05l.05-.39h.07a.89.89,0,0,0,.51-.14.5.5,0,0,0,.22-.45.52.52,0,0,0-.16-.4.57.57,0,0,0-.42-.16.57.57,0,0,0-.43.16.77.77,0,0,0-.22.48l-.44-.08a1.07,1.07,0,0,1,.37-.68,1.05,1.05,0,0,1,.71-.24,1.25,1.25,0,0,1,.54.12.94.94,0,0,1,.37.34.88.88,0,0,1,.13.47.79.79,0,0,1-.12.42.8.8,0,0,1-.37.3.79.79,0,0,1,.49.31.88.88,0,0,1,.18.57,1.05,1.05,0,0,1-.34.8,1.2,1.2,0,0,1-.87.32,1.12,1.12,0,0,1-.78-.28A1,1,0,0,1,40.29,142.21Z" transform="translate(0.01 -22.61)"/><path class="cls-2" d="M43.06,141.38a3.52,3.52,0,0,1,.13-1,1.33,1.33,0,0,1,.39-.59,1,1,0,0,1,.65-.21,1.06,1.06,0,0,1,.51.11,1,1,0,0,1,.35.34,1.73,1.73,0,0,1,.23.53,3.72,3.72,0,0,1,.08.84,3.52,3.52,0,0,1-.13,1,1.31,1.31,0,0,1-.39.6,1,1,0,0,1-.65.21,1,1,0,0,1-.81-.37A2.33,2.33,0,0,1,43.06,141.38Zm.46,0a2.27,2.27,0,0,0,.2,1.18.59.59,0,0,0,1,0,2.25,2.25,0,0,0,.21-1.18,2.2,2.2,0,0,0-.21-1.17.62.62,0,0,0-.51-.29.57.57,0,0,0-.49.26A2.26,2.26,0,0,0,43.52,141.38Z" transform="translate(0.01 -22.61)"/><path class="cls-2" d="M45.81,141.38a3.52,3.52,0,0,1,.13-1,1.33,1.33,0,0,1,.39-.59,1,1,0,0,1,.65-.21.95.95,0,0,1,.87.45,2,2,0,0,1,.22.53,3.72,3.72,0,0,1,.08.84,3.2,3.2,0,0,1-.13,1,1.31,1.31,0,0,1-.39.6,1,1,0,0,1-.65.21,1,1,0,0,1-.81-.37A2.33,2.33,0,0,1,45.81,141.38Zm.46,0a2.27,2.27,0,0,0,.2,1.18.59.59,0,0,0,1,0,2.25,2.25,0,0,0,.21-1.18,2.2,2.2,0,0,0-.21-1.17.62.62,0,0,0-.51-.29.57.57,0,0,0-.49.26A2.26,2.26,0,0,0,46.27,141.38Z" transform="translate(0.01 -22.61)"/><path class="cls-2" d="M48.62,141.38a3.17,3.17,0,0,1,.14-1,1.24,1.24,0,0,1,.38-.59,1,1,0,0,1,.65-.21.95.95,0,0,1,.87.45,2,2,0,0,1,.22.53,3.72,3.72,0,0,1,.08.84,3.2,3.2,0,0,1-.13,1,1.31,1.31,0,0,1-.39.6,1,1,0,0,1-.65.21,1,1,0,0,1-.81-.37A2.33,2.33,0,0,1,48.62,141.38Zm.46,0a2.38,2.38,0,0,0,.2,1.18.59.59,0,0,0,1,0,2.25,2.25,0,0,0,.21-1.18,2.2,2.2,0,0,0-.21-1.17.62.62,0,0,0-.51-.29.58.58,0,0,0-.49.26A2.26,2.26,0,0,0,49.08,141.38Z" transform="translate(0.01 -22.61)"/><path class="cls-2" d="M69.76,140.45l-.44,0a.8.8,0,0,0-.16-.37.58.58,0,0,0-.44-.19.67.67,0,0,0-.37.11,1,1,0,0,0-.33.45,2.22,2.22,0,0,0-.12.82.87.87,0,0,1,.39-.35,1,1,0,0,1,.48-.12,1,1,0,0,1,.75.32,1.2,1.2,0,0,1,.3.84,1.31,1.31,0,0,1-.14.62,1.1,1.1,0,0,1-.4.45,1.19,1.19,0,0,1-1.47-.25,2.06,2.06,0,0,1-.35-1.33,2.4,2.4,0,0,1,.38-1.51,1.1,1.1,0,0,1,.9-.41,1.05,1.05,0,0,1,.7.23A1,1,0,0,1,69.76,140.45ZM68,142a1,1,0,0,0,.09.43.78.78,0,0,0,.27.32.72.72,0,0,0,.37.11.63.63,0,0,0,.47-.22.87.87,0,0,0,.2-.62.83.83,0,0,0-.19-.58.66.66,0,0,0-.5-.21.69.69,0,0,0-.51.21A.8.8,0,0,0,68,142Z" transform="translate(0.01 -22.61)"/><path class="cls-2" d="M70.29,141.38a3.2,3.2,0,0,1,.13-1,1.33,1.33,0,0,1,.39-.59,1.14,1.14,0,0,1,1.15-.1.9.9,0,0,1,.36.34,1.51,1.51,0,0,1,.22.53,3.22,3.22,0,0,1,.08.84,3.56,3.56,0,0,1-.12,1,1.31,1.31,0,0,1-.39.6,1.1,1.1,0,0,1-1.47-.16A2.41,2.41,0,0,1,70.29,141.38Zm.45,0a2.25,2.25,0,0,0,.21,1.18.59.59,0,0,0,1,0,2.38,2.38,0,0,0,.2-1.18,2.34,2.34,0,0,0-.2-1.17.63.63,0,0,0-.52-.29.56.56,0,0,0-.48.26A2.24,2.24,0,0,0,70.74,141.38Z" transform="translate(0.01 -22.61)"/><path class="cls-2" d="M73,141.38a3.52,3.52,0,0,1,.13-1,1.33,1.33,0,0,1,.39-.59,1.14,1.14,0,0,1,1.15-.1.9.9,0,0,1,.36.34,1.73,1.73,0,0,1,.23.53,3.72,3.72,0,0,1,.08.84,3.52,3.52,0,0,1-.13,1,1.31,1.31,0,0,1-.39.6,1,1,0,0,1-.65.21,1,1,0,0,1-.81-.37A2.33,2.33,0,0,1,73,141.38Zm.45,0a2.25,2.25,0,0,0,.21,1.18.59.59,0,0,0,1,0,2.27,2.27,0,0,0,.2-1.18,2.23,2.23,0,0,0-.2-1.17.63.63,0,0,0-.52-.29.56.56,0,0,0-.48.26A2.24,2.24,0,0,0,73.49,141.38Z" transform="translate(0.01 -22.61)"/><path class="cls-2" d="M75.85,141.38a3.52,3.52,0,0,1,.13-1,1.33,1.33,0,0,1,.39-.59,1.14,1.14,0,0,1,1.15-.1.9.9,0,0,1,.36.34,1.73,1.73,0,0,1,.23.53,3.72,3.72,0,0,1,.08.84,3.52,3.52,0,0,1-.13,1,1.31,1.31,0,0,1-.39.6,1,1,0,0,1-.65.21,1,1,0,0,1-.81-.37A2.33,2.33,0,0,1,75.85,141.38Zm.45,0a2.25,2.25,0,0,0,.21,1.18.59.59,0,0,0,1,0,2.27,2.27,0,0,0,.2-1.18,2.23,2.23,0,0,0-.2-1.17.63.63,0,0,0-.52-.29.56.56,0,0,0-.48.26A2.24,2.24,0,0,0,76.3,141.38Z" transform="translate(0.01 -22.61)"/><path class="cls-2" d="M94.74,142.32l.43,0a.67.67,0,0,0,.2.43.56.56,0,0,0,.39.14.68.68,0,0,0,.35-.09.75.75,0,0,0,.25-.25,1.4,1.4,0,0,0,.17-.42,2.48,2.48,0,0,0,.06-.54v-.09a1,1,0,0,1-.36.35,1.05,1.05,0,0,1-.49.13,1,1,0,0,1-.75-.33,1.14,1.14,0,0,1-.31-.85,1.17,1.17,0,0,1,.32-.87,1.06,1.06,0,0,1,.8-.33,1.17,1.17,0,0,1,.64.18,1.24,1.24,0,0,1,.44.54,2.65,2.65,0,0,1,.15,1,3.25,3.25,0,0,1-.15,1.09,1.26,1.26,0,0,1-.44.62,1.17,1.17,0,0,1-.69.21,1,1,0,0,1-.69-.23A1.09,1.09,0,0,1,94.74,142.32Zm1.8-1.58a.84.84,0,0,0-.2-.6.61.61,0,0,0-.48-.22.65.65,0,0,0-.51.24.86.86,0,0,0-.22.62.74.74,0,0,0,.21.55.63.63,0,0,0,.5.22.64.64,0,0,0,.51-.22A.84.84,0,0,0,96.54,140.74Z" transform="translate(0.01 -22.61)"/><path class="cls-2" d="M97.46,141.38a3.2,3.2,0,0,1,.13-1,1.28,1.28,0,0,1,.39-.59,1.14,1.14,0,0,1,1.15-.1.9.9,0,0,1,.36.34,1.73,1.73,0,0,1,.22.53,4.23,4.23,0,0,1,0,1.86,1.22,1.22,0,0,1-.38.6,1,1,0,0,1-.65.21,1,1,0,0,1-.82-.37A2.41,2.41,0,0,1,97.46,141.38Zm.45,0a2.25,2.25,0,0,0,.21,1.18.58.58,0,0,0,1,0,2.25,2.25,0,0,0,.21-1.18,2.2,2.2,0,0,0-.21-1.17.6.6,0,0,0-.51-.29.54.54,0,0,0-.48.26A2.24,2.24,0,0,0,97.91,141.38Z" transform="translate(0.01 -22.61)"/><path class="cls-2" d="M100.27,141.38a3.2,3.2,0,0,1,.13-1,1.28,1.28,0,0,1,.39-.59,1.14,1.14,0,0,1,1.15-.1.9.9,0,0,1,.36.34,1.73,1.73,0,0,1,.22.53,4.23,4.23,0,0,1,0,1.86,1.22,1.22,0,0,1-.38.6,1,1,0,0,1-.65.21,1,1,0,0,1-.82-.37A2.41,2.41,0,0,1,100.27,141.38Zm.45,0a2.25,2.25,0,0,0,.21,1.18.6.6,0,0,0,.51.29.62.62,0,0,0,.51-.29,2.38,2.38,0,0,0,.2-1.18,2.34,2.34,0,0,0-.2-1.17.63.63,0,0,0-.52-.29.54.54,0,0,0-.48.26A2.24,2.24,0,0,0,100.72,141.38Z" transform="translate(0.01 -22.61)"/><path class="cls-2" d="M103.08,141.38a3.2,3.2,0,0,1,.13-1,1.28,1.28,0,0,1,.39-.59,1.14,1.14,0,0,1,1.15-.1.9.9,0,0,1,.36.34,1.51,1.51,0,0,1,.22.53,4.23,4.23,0,0,1,0,1.86,1.22,1.22,0,0,1-.38.6,1.1,1.1,0,0,1-1.47-.16A2.41,2.41,0,0,1,103.08,141.38Zm.45,0a2.25,2.25,0,0,0,.21,1.18.59.59,0,0,0,1,0,2.38,2.38,0,0,0,.2-1.18,2.34,2.34,0,0,0-.2-1.17.63.63,0,0,0-.52-.29.54.54,0,0,0-.48.26A2.24,2.24,0,0,0,103.53,141.38Z" transform="translate(0.01 -22.61)"/><rect class="邱喟0.5pt-5" x="18.44" y="1.48" width="90.71" height="113.39"/><path class="cls-2" d="M104.75,147.4h-.44v-2.8a2.07,2.07,0,0,1-.41.3,2.24,2.24,0,0,1-.47.23v-.42a2.8,2.8,0,0,0,.65-.42,2,2,0,0,0,.39-.48h.28Z" transform="translate(0.01 -22.61)"/><path class="cls-2" d="M105.88,145.64a3.23,3.23,0,0,1,.13-1,1.33,1.33,0,0,1,.39-.59,1,1,0,0,1,.65-.21,1.12,1.12,0,0,1,.5.11.9.9,0,0,1,.36.34,1.73,1.73,0,0,1,.22.53,3.25,3.25,0,0,1,.08.85,3.09,3.09,0,0,1-.13,1,1.22,1.22,0,0,1-.38.6,1,1,0,0,1-.65.21,1,1,0,0,1-.82-.37A2.39,2.39,0,0,1,105.88,145.64Zm.45,0a2.2,2.2,0,0,0,.21,1.17.6.6,0,0,0,.51.29.62.62,0,0,0,.51-.29,3.55,3.55,0,0,0,0-2.35.63.63,0,0,0-.52-.29.56.56,0,0,0-.48.26A2.28,2.28,0,0,0,106.33,145.64Z" transform="translate(0.01 -22.61)"/><path class="cls-2" d="M108.66,145.64a3.23,3.23,0,0,1,.13-1,1.33,1.33,0,0,1,.39-.59,1,1,0,0,1,.65-.21,1.12,1.12,0,0,1,.5.11.9.9,0,0,1,.36.34,1.51,1.51,0,0,1,.22.53,3.25,3.25,0,0,1,.08.85,3.09,3.09,0,0,1-.13,1,1.22,1.22,0,0,1-.38.6,1.1,1.1,0,0,1-1.47-.16A2.39,2.39,0,0,1,108.66,145.64Zm.45,0a2.2,2.2,0,0,0,.21,1.17.6.6,0,0,0,.51.29.62.62,0,0,0,.51-.29,3.55,3.55,0,0,0,0-2.35.63.63,0,0,0-.52-.29.56.56,0,0,0-.48.26A2.28,2.28,0,0,0,109.11,145.64Z" transform="translate(0.01 -22.61)"/><path class="cls-2" d="M111.44,145.64a3.23,3.23,0,0,1,.13-1A1.33,1.33,0,0,1,112,144a1,1,0,0,1,.65-.21,1.12,1.12,0,0,1,.5.11.9.9,0,0,1,.36.34,1.51,1.51,0,0,1,.22.53,3.25,3.25,0,0,1,.08.85,3.09,3.09,0,0,1-.13,1,1.22,1.22,0,0,1-.38.6,1.1,1.1,0,0,1-1.47-.16A2.39,2.39,0,0,1,111.44,145.64Zm.45,0a2.2,2.2,0,0,0,.21,1.17.59.59,0,0,0,1,0,3.55,3.55,0,0,0,0-2.35.63.63,0,0,0-.52-.29.56.56,0,0,0-.48.26A2.28,2.28,0,0,0,111.89,145.64Z" transform="translate(0.01 -22.61)"/><path class="cls-2" d="M114.22,145.64a3.23,3.23,0,0,1,.13-1,1.33,1.33,0,0,1,.39-.59,1,1,0,0,1,.65-.21,1.12,1.12,0,0,1,.5.11.9.9,0,0,1,.36.34,1.51,1.51,0,0,1,.22.53,3.19,3.19,0,0,1,.09.85,3.39,3.39,0,0,1-.13,1,1.31,1.31,0,0,1-.39.6,1,1,0,0,1-.65.21,1,1,0,0,1-.81-.37A2.32,2.32,0,0,1,114.22,145.64Zm.45,0a2.2,2.2,0,0,0,.21,1.17.59.59,0,0,0,1,0,3.55,3.55,0,0,0,0-2.35.63.63,0,0,0-.52-.29.56.56,0,0,0-.48.26A2.28,2.28,0,0,0,114.67,145.64Z" transform="translate(0.01 -22.61)"/></g><g id="English"><rect class="繝後Μ_逋ｽ-2" x="19.15" y="51.8" width="47.91" height="16.58"/><path class="cls-2" d="M21.64,79.28l.58,0a1.2,1.2,0,0,0,.19.57,1,1,0,0,0,.47.36,1.8,1.8,0,0,0,.71.14,1.68,1.68,0,0,0,.62-.1.83.83,0,0,0,.4-.29.67.67,0,0,0,.14-.4.62.62,0,0,0-.13-.38,1.06,1.06,0,0,0-.42-.28,7.32,7.32,0,0,0-.83-.22,4.72,4.72,0,0,1-.9-.29A1.24,1.24,0,0,1,22,77.9a1,1,0,0,1-.17-.58,1.18,1.18,0,0,1,.2-.65,1.27,1.27,0,0,1,.59-.47,2.11,2.11,0,0,1,.85-.16,2.31,2.31,0,0,1,.91.17,1.25,1.25,0,0,1,.61.49,1.4,1.4,0,0,1,.23.73l-.59,0a1,1,0,0,0-.32-.67,1.62,1.62,0,0,0-1.63,0,.61.61,0,0,0-.25.49.54.54,0,0,0,.18.42,2.79,2.79,0,0,0,.93.33,6.61,6.61,0,0,1,1,.29,1.48,1.48,0,0,1,.6.48,1.22,1.22,0,0,1,.19.66,1.27,1.27,0,0,1-.21.7,1.4,1.4,0,0,1-.61.51,2.19,2.19,0,0,1-.9.18,2.76,2.76,0,0,1-1.06-.18,1.52,1.52,0,0,1-.92-1.39Z" transform="translate(0.01 -22.61)"/><path class="cls-2" d="M26.11,80.77V76.12h.57v1.67a1.27,1.27,0,0,1,1-.46,1.48,1.48,0,0,1,.65.14.91.91,0,0,1,.39.41,1.91,1.91,0,0,1,.12.76v2.13h-.57V78.64A.91.91,0,0,0,28.1,78a.7.7,0,0,0-.53-.19.91.91,0,0,0-.48.13.79.79,0,0,0-.32.36,1.73,1.73,0,0,0-.09.62v1.84Z" transform="translate(0.01 -22.61)"/><path class="cls-2" d="M29.51,79.09A1.73,1.73,0,0,1,30,77.7a1.69,1.69,0,0,1,2.2.08A1.77,1.77,0,0,1,32.67,79a2.2,2.2,0,0,1-.2,1,1.33,1.33,0,0,1-.57.58,1.6,1.6,0,0,1-.81.21A1.51,1.51,0,0,1,30,80.4,1.84,1.84,0,0,1,29.51,79.09Zm.59,0a1.44,1.44,0,0,0,.28,1,.91.91,0,0,0,.71.32.93.93,0,0,0,.71-.32,1.48,1.48,0,0,0,.28-1,1.4,1.4,0,0,0-.28-.95.93.93,0,0,0-.71-.32.91.91,0,0,0-.71.32A1.42,1.42,0,0,0,30.1,79.09Z" transform="translate(0.01 -22.61)"/><path class="cls-2" d="M33.33,80.77V77.4h.52v.51a1.41,1.41,0,0,1,.36-.47.67.67,0,0,1,.37-.11,1.12,1.12,0,0,1,.58.18L35,78a.84.84,0,0,0-.42-.12.51.51,0,0,0-.34.11.62.62,0,0,0-.21.31,2.09,2.09,0,0,0-.1.67v1.76Z" transform="translate(0.01 -22.61)"/><path class="cls-2" d="M36.75,80.26l.08.51a2.37,2.37,0,0,1-.43,0,.9.9,0,0,1-.48-.1.5.5,0,0,1-.24-.26,1.94,1.94,0,0,1-.07-.67V77.85h-.42V77.4h.42v-.83l.56-.34V77.4h.58v.45h-.58v2a1.39,1.39,0,0,0,0,.31.27.27,0,0,0,.1.11.37.37,0,0,0,.2,0A1.24,1.24,0,0,0,36.75,80.26Z" transform="translate(0.01 -22.61)"/><path class="cls-2" d="M37.09,79.38V78.8h1.75v.58Z" transform="translate(0.01 -22.61)"/><path class="cls-2" d="M41.66,80.77v-.42a1.05,1.05,0,0,1-.94.5,1.29,1.29,0,0,1-.74-.22,1.53,1.53,0,0,1-.53-.62,2.22,2.22,0,0,1-.18-.92,2.42,2.42,0,0,1,.16-.91,1.35,1.35,0,0,1,.51-.63,1.3,1.3,0,0,1,.75-.22,1.15,1.15,0,0,1,.93.46V76.12h.57v4.65Zm-1.81-1.68a1.42,1.42,0,0,0,.28,1,.82.82,0,0,0,.64.32.81.81,0,0,0,.64-.31,1.41,1.41,0,0,0,.26-.93,1.59,1.59,0,0,0-.27-1,.82.82,0,0,0-.65-.32.78.78,0,0,0-.64.31A1.55,1.55,0,0,0,39.85,79.09Z" transform="translate(0.01 -22.61)"/><path class="cls-2" d="M45.3,80.77v-.49a1.25,1.25,0,0,1-1.07.57,1.47,1.47,0,0,1-.56-.11.91.91,0,0,1-.56-.72,3.07,3.07,0,0,1,0-.53V77.4h.58v1.87a4,4,0,0,0,0,.61.6.6,0,0,0,.23.35.69.69,0,0,0,.43.13,1,1,0,0,0,.48-.13.74.74,0,0,0,.32-.36,1.63,1.63,0,0,0,.1-.66V77.4h.57v3.37Z" transform="translate(0.01 -22.61)"/><path class="cls-2" d="M46.7,80.77V77.4h.51v.51a1.41,1.41,0,0,1,.36-.47.7.7,0,0,1,.37-.11,1.15,1.15,0,0,1,.59.18l-.2.53a.84.84,0,0,0-.42-.12.51.51,0,0,0-.33.11.7.7,0,0,0-.22.31,2.41,2.41,0,0,0-.09.67v1.76Z" transform="translate(0.01 -22.61)"/><path class="cls-2" d="M51.07,80.36a2.32,2.32,0,0,1-.61.38,1.9,1.9,0,0,1-.63.11,1.25,1.25,0,0,1-.86-.27.89.89,0,0,1-.3-.69.9.9,0,0,1,.12-.46,1,1,0,0,1,.29-.33,1.38,1.38,0,0,1,.41-.18,4.17,4.17,0,0,1,.51-.09,4.65,4.65,0,0,0,1-.2v-.14a.64.64,0,0,0-.16-.5,1,1,0,0,0-.65-.19,1.06,1.06,0,0,0-.6.14.92.92,0,0,0-.28.5l-.56-.08a1.43,1.43,0,0,1,.25-.57,1.12,1.12,0,0,1,.51-.34,2.2,2.2,0,0,1,.76-.12,2,2,0,0,1,.7.1,1,1,0,0,1,.4.25,1.17,1.17,0,0,1,.18.39,3.16,3.16,0,0,1,0,.53v.76a9.89,9.89,0,0,0,0,1,1.49,1.49,0,0,0,.15.4h-.6A1,1,0,0,1,51.07,80.36Zm0-1.28a4,4,0,0,1-.93.22,2,2,0,0,0-.5.11.48.48,0,0,0-.23.19.5.5,0,0,0-.08.27.48.48,0,0,0,.18.38.73.73,0,0,0,.5.15,1.25,1.25,0,0,0,.59-.14.92.92,0,0,0,.38-.4,1.41,1.41,0,0,0,.09-.57Z" transform="translate(0.01 -22.61)"/><path class="cls-2" d="M53.73,80.26l.08.51a2.37,2.37,0,0,1-.43,0,.9.9,0,0,1-.48-.1.5.5,0,0,1-.24-.26,1.94,1.94,0,0,1-.07-.67V77.85h-.42V77.4h.42v-.83l.56-.34V77.4h.58v.45h-.58v2a1.39,1.39,0,0,0,0,.31.27.27,0,0,0,.1.11.37.37,0,0,0,.2,0A1.24,1.24,0,0,0,53.73,80.26Z" transform="translate(0.01 -22.61)"/><path class="cls-2" d="M54.29,76.78v-.66h.57v.66Zm0,4V77.4h.57v3.37Z" transform="translate(0.01 -22.61)"/><path class="cls-2" d="M55.52,79.09A1.73,1.73,0,0,1,56,77.7a1.69,1.69,0,0,1,2.2.08A1.77,1.77,0,0,1,58.68,79a2.2,2.2,0,0,1-.2,1,1.33,1.33,0,0,1-.57.58,1.6,1.6,0,0,1-.81.21A1.51,1.51,0,0,1,56,80.4,1.79,1.79,0,0,1,55.52,79.09Zm.59,0a1.44,1.44,0,0,0,.28,1,.91.91,0,0,0,.71.32.93.93,0,0,0,.71-.32,1.48,1.48,0,0,0,.28-1,1.4,1.4,0,0,0-.28-.95.93.93,0,0,0-.71-.32.91.91,0,0,0-.71.32A1.42,1.42,0,0,0,56.11,79.09Z" transform="translate(0.01 -22.61)"/><path class="cls-2" d="M59.35,80.77V77.4h.51v.48a1.21,1.21,0,0,1,1.07-.55,1.27,1.27,0,0,1,.56.11,1,1,0,0,1,.39.28,1.11,1.11,0,0,1,.17.43,2.34,2.34,0,0,1,0,.55v2.07h-.58v-2a1.72,1.72,0,0,0-.06-.52.59.59,0,0,0-.24-.28.82.82,0,0,0-.4-.1,1,1,0,0,0-.63.23,1.18,1.18,0,0,0-.26.88v1.84Z" transform="translate(0.01 -22.61)"/><path class="cls-2" d="M21.77,88.57V85.2h.51v.51a1.41,1.41,0,0,1,.36-.47.7.7,0,0,1,.37-.11,1.15,1.15,0,0,1,.59.18l-.2.53a.84.84,0,0,0-.42-.12.53.53,0,0,0-.34.11.69.69,0,0,0-.21.31,2.41,2.41,0,0,0-.09.67v1.76Z" transform="translate(0.01 -22.61)"/><path class="cls-2" d="M26.15,88.57v-.49a1.25,1.25,0,0,1-1.07.57,1.47,1.47,0,0,1-.56-.11.91.91,0,0,1-.56-.72,3.07,3.07,0,0,1,0-.53V85.2h.58v1.87a4,4,0,0,0,0,.61.6.6,0,0,0,.23.35.67.67,0,0,0,.43.13,1,1,0,0,0,.48-.13.74.74,0,0,0,.32-.36,1.83,1.83,0,0,0,.1-.66V85.2h.57v3.37Z" transform="translate(0.01 -22.61)"/><path class="cls-2" d="M27.55,88.57V85.2h.52v.48a1.19,1.19,0,0,1,1.07-.55,1.3,1.3,0,0,1,.56.11.88.88,0,0,1,.38.28,1,1,0,0,1,.18.43,3.37,3.37,0,0,1,0,.55v2.07h-.57v-2a1.41,1.41,0,0,0-.07-.52.57.57,0,0,0-.23-.28.88.88,0,0,0-.4-.1.92.92,0,0,0-.63.23,1.14,1.14,0,0,0-.27.88v1.84Z" transform="translate(0.01 -22.61)"/><path class="cls-2" d="M31.17,88.57V85.2h.51v.48a1.21,1.21,0,0,1,1.07-.55,1.27,1.27,0,0,1,.56.11,1,1,0,0,1,.39.28,1.11,1.11,0,0,1,.17.43,3.07,3.07,0,0,1,0,.55v2.07h-.58v-2a1.72,1.72,0,0,0-.06-.52.65.65,0,0,0-.24-.28.82.82,0,0,0-.4-.1,1,1,0,0,0-.63.23,1.18,1.18,0,0,0-.26.88v1.84Z" transform="translate(0.01 -22.61)"/><path class="cls-2" d="M34.78,84.58v-.66h.58v.66Zm0,4V85.2h.58v3.37Z" transform="translate(0.01 -22.61)"/><path class="cls-2" d="M36.23,88.57V85.2h.51v.48a1.2,1.2,0,0,1,1.07-.55,1.27,1.27,0,0,1,.56.11,1,1,0,0,1,.39.28,1.11,1.11,0,0,1,.17.43,3.37,3.37,0,0,1,0,.55v2.07h-.57v-2a1.72,1.72,0,0,0-.06-.52.65.65,0,0,0-.24-.28.85.85,0,0,0-.4-.1,1,1,0,0,0-.63.23,1.18,1.18,0,0,0-.26.88v1.84Z" transform="translate(0.01 -22.61)"/><path class="cls-2" d="M39.74,88.85l.55.09a.5.5,0,0,0,.2.37.91.91,0,0,0,.58.16,1,1,0,0,0,.61-.16.8.8,0,0,0,.29-.44,3.89,3.89,0,0,0,0-.74,1.15,1.15,0,0,1-.93.44,1.28,1.28,0,0,1-1.08-.5,1.93,1.93,0,0,1-.38-1.2A2.18,2.18,0,0,1,39.8,86a1.37,1.37,0,0,1,.5-.63,1.35,1.35,0,0,1,.78-.22,1.22,1.22,0,0,1,1,.48V85.2h.52v2.92a2.7,2.7,0,0,1-.16,1.11,1.11,1.11,0,0,1-.51.52,1.7,1.7,0,0,1-.85.19,1.65,1.65,0,0,1-1-.27A.92.92,0,0,1,39.74,88.85Zm.47-2a1.52,1.52,0,0,0,.26,1,.88.88,0,0,0,1.32,0,1.79,1.79,0,0,0,0-1.89.87.87,0,0,0-.67-.31.79.79,0,0,0-.64.31A1.37,1.37,0,0,0,40.21,86.83Z" transform="translate(0.01 -22.61)"/><path class="cls-2" d="M45.26,88.57V85.2h.51v.51a1.41,1.41,0,0,1,.36-.47.7.7,0,0,1,.37-.11,1.15,1.15,0,0,1,.59.18l-.2.53a.84.84,0,0,0-.42-.12.53.53,0,0,0-.34.11.62.62,0,0,0-.21.31,2.41,2.41,0,0,0-.09.67v1.76Z" transform="translate(0.01 -22.61)"/><path class="cls-2" d="M49.63,88.16a2.36,2.36,0,0,1-.62.38,1.81,1.81,0,0,1-.63.11,1.22,1.22,0,0,1-.85-.27.89.89,0,0,1-.3-.69.9.9,0,0,1,.12-.46,1,1,0,0,1,.29-.33,1.38,1.38,0,0,1,.41-.18,4.17,4.17,0,0,1,.51-.09,4.65,4.65,0,0,0,1-.2v-.14a.64.64,0,0,0-.16-.5,1,1,0,0,0-.65-.19,1.06,1.06,0,0,0-.6.14.92.92,0,0,0-.28.5l-.56-.08a1.43,1.43,0,0,1,.25-.57,1.12,1.12,0,0,1,.51-.34,2.2,2.2,0,0,1,.76-.12,2,2,0,0,1,.7.1,1,1,0,0,1,.4.25,1.17,1.17,0,0,1,.18.39,3.16,3.16,0,0,1,0,.53v.76a9.89,9.89,0,0,0,0,1,1.22,1.22,0,0,0,.15.4h-.6A1,1,0,0,1,49.63,88.16Zm-.05-1.28a4,4,0,0,1-.94.22,2,2,0,0,0-.49.11.48.48,0,0,0-.23.19.5.5,0,0,0,.09.65.78.78,0,0,0,.51.15,1.25,1.25,0,0,0,.59-.14.92.92,0,0,0,.38-.4,1.41,1.41,0,0,0,.09-.57Z" transform="translate(0.01 -22.61)"/><path class="cls-2" d="M51,88.57V85.2h.52v.48a1.19,1.19,0,0,1,1.07-.55,1.3,1.3,0,0,1,.56.11.88.88,0,0,1,.38.28,1.12,1.12,0,0,1,.18.43,3.37,3.37,0,0,1,0,.55v2.07h-.57v-2a1.41,1.41,0,0,0-.07-.52.57.57,0,0,0-.23-.28.88.88,0,0,0-.4-.1.92.92,0,0,0-.63.23,1.14,1.14,0,0,0-.27.88v1.84Z" transform="translate(0.01 -22.61)"/><path class="cls-2" d="M54.55,88.85l.56.09a.5.5,0,0,0,.19.37.93.93,0,0,0,.58.16,1,1,0,0,0,.61-.16.76.76,0,0,0,.3-.44,3.89,3.89,0,0,0,0-.74,1.16,1.16,0,0,1-.94.44,1.24,1.24,0,0,1-1.07-.5,1.87,1.87,0,0,1-.38-1.2,2.35,2.35,0,0,1,.17-.89,1.46,1.46,0,0,1,.51-.63,1.35,1.35,0,0,1,.78-.22,1.2,1.2,0,0,1,1,.48V85.2h.53v2.92a2.88,2.88,0,0,1-.16,1.11,1.22,1.22,0,0,1-.51.52,1.74,1.74,0,0,1-.86.19,1.61,1.61,0,0,1-1-.27A.91.91,0,0,1,54.55,88.85Zm.47-2a1.46,1.46,0,0,0,.27,1,.83.83,0,0,0,.66.3.85.85,0,0,0,.66-.3,1.82,1.82,0,0,0,0-1.89.83.83,0,0,0-.66-.31.81.81,0,0,0-.65.31A1.37,1.37,0,0,0,55,86.83Z" transform="translate(0.01 -22.61)"/><path class="cls-2" d="M60.58,87.49l.59.07a1.41,1.41,0,0,1-.52.8,1.74,1.74,0,0,1-2.14-.17,1.76,1.76,0,0,1-.43-1.27,1.86,1.86,0,0,1,.44-1.32,1.45,1.45,0,0,1,1.13-.47,1.43,1.43,0,0,1,1.11.46,1.8,1.8,0,0,1,.43,1.29.86.86,0,0,1,0,.15H58.67a1.32,1.32,0,0,0,.32.86.93.93,0,0,0,.7.29,1,1,0,0,0,.54-.16A1.2,1.2,0,0,0,60.58,87.49Zm-1.88-.93h1.88a1.07,1.07,0,0,0-.21-.63.88.88,0,0,0-.71-.33.89.89,0,0,0-.66.26A1,1,0,0,0,58.7,86.56Z" transform="translate(0.01 -22.61)"/><rect class="繝後Μ_逋ｽ-2" x="19.89" y="100.27" width="41.46" height="13.46"/><path class="cls-2" d="M25.26,125.7l.62.15a2,2,0,0,1-.7,1.16,1.88,1.88,0,0,1-1.23.4,2.14,2.14,0,0,1-1.22-.31,2,2,0,0,1-.72-.88,3.27,3.27,0,0,1-.24-1.25,2.7,2.7,0,0,1,.28-1.27,1.84,1.84,0,0,1,.79-.82A2.24,2.24,0,0,1,24,122.6a2,2,0,0,1,1.18.35,1.81,1.81,0,0,1,.66,1l-.6.15a1.46,1.46,0,0,0-.47-.74,1.24,1.24,0,0,0-.78-.23,1.52,1.52,0,0,0-.9.25,1.35,1.35,0,0,0-.5.69,2.74,2.74,0,0,0-.15.9,2.92,2.92,0,0,0,.17,1,1.28,1.28,0,0,0,.54.66,1.5,1.5,0,0,0,.79.22,1.32,1.32,0,0,0,.88-.3A1.45,1.45,0,0,0,25.26,125.7Z" transform="translate(0.01 -22.61)"/><path class="cls-2" d="M26.35,125.65a1.76,1.76,0,0,1,.52-1.39,1.58,1.58,0,0,1,1.06-.38,1.52,1.52,0,0,1,1.14.46,1.74,1.74,0,0,1,.44,1.26,2.24,2.24,0,0,1-.19,1,1.39,1.39,0,0,1-.57.58,1.64,1.64,0,0,1-.82.21,1.48,1.48,0,0,1-1.14-.46A1.81,1.81,0,0,1,26.35,125.65Zm.59,0a1.39,1.39,0,0,0,.28,1,.91.91,0,0,0,.71.33.89.89,0,0,0,.71-.33,1.43,1.43,0,0,0,.28-1,1.38,1.38,0,0,0-.28-.95.88.88,0,0,0-.71-.32.9.9,0,0,0-.71.32A1.41,1.41,0,0,0,26.94,125.65Z" transform="translate(0.01 -22.61)"/><path class="cls-2" d="M30.18,127.33V124h.52v.48a1.2,1.2,0,0,1,1.07-.56,1.47,1.47,0,0,1,.56.11.89.89,0,0,1,.38.29,1.14,1.14,0,0,1,.18.42,3.51,3.51,0,0,1,0,.56v2.07h-.57v-2a1.38,1.38,0,0,0-.07-.52.53.53,0,0,0-.23-.28.77.77,0,0,0-.4-.1.92.92,0,0,0-.63.23,1.13,1.13,0,0,0-.27.88v1.84Z" transform="translate(0.01 -22.61)"/><path class="cls-2" d="M35,126.82l.09.5a1.85,1.85,0,0,1-.44.06,1.07,1.07,0,0,1-.48-.1A.66.66,0,0,1,34,127a2,2,0,0,1-.07-.68V124.4h-.42V124h.42v-.83l.57-.35V124H35v.44h-.57v2a1,1,0,0,0,0,.31.21.21,0,0,0,.1.11.34.34,0,0,0,.19,0Z" transform="translate(0.01 -22.61)"/><path class="cls-2" d="M35.61,123.33v-.65h.57v.65Zm0,4V124h.57v3.37Z" transform="translate(0.01 -22.61)"/><path class="cls-2" d="M37.05,127.33V124h.51v.48a1.22,1.22,0,0,1,1.07-.56,1.43,1.43,0,0,1,.56.11,1,1,0,0,1,.39.29,1.13,1.13,0,0,1,.17.42,3.21,3.21,0,0,1,0,.56v2.07h-.58v-2a1.67,1.67,0,0,0-.06-.52.6.6,0,0,0-.24-.28.74.74,0,0,0-.4-.1,1,1,0,0,0-.63.23,1.17,1.17,0,0,0-.26.88v1.84Z" transform="translate(0.01 -22.61)"/><path class="cls-2" d="M42.87,127.33v-.49a1.23,1.23,0,0,1-1.07.57,1.34,1.34,0,0,1-.56-.12.88.88,0,0,1-.38-.28,1.3,1.3,0,0,1-.18-.43,3.33,3.33,0,0,1,0-.53V124h.57v1.87a3.77,3.77,0,0,0,0,.6.68.68,0,0,0,.23.36.75.75,0,0,0,.43.12.92.92,0,0,0,.49-.13.71.71,0,0,0,.32-.36,1.84,1.84,0,0,0,.09-.65V124h.57v3.37Z" transform="translate(0.01 -22.61)"/><path class="cls-2" d="M44.06,125.65a1.76,1.76,0,0,1,.52-1.39,1.58,1.58,0,0,1,1.06-.38,1.52,1.52,0,0,1,1.14.46,1.74,1.74,0,0,1,.44,1.26,2.24,2.24,0,0,1-.19,1,1.39,1.39,0,0,1-.57.58,1.64,1.64,0,0,1-.82.21A1.48,1.48,0,0,1,44.5,127,1.81,1.81,0,0,1,44.06,125.65Zm.59,0a1.39,1.39,0,0,0,.28,1,.91.91,0,0,0,.71.33.89.89,0,0,0,.71-.33,1.43,1.43,0,0,0,.28-1,1.38,1.38,0,0,0-.28-.95.88.88,0,0,0-.71-.32.9.9,0,0,0-.71.32A1.41,1.41,0,0,0,44.65,125.65Z" transform="translate(0.01 -22.61)"/><path class="cls-2" d="M50.1,127.33v-.49a1.23,1.23,0,0,1-1.07.57,1.34,1.34,0,0,1-.56-.12.88.88,0,0,1-.38-.28,1.3,1.3,0,0,1-.18-.43,3.33,3.33,0,0,1,0-.53V124h.57v1.87a3.77,3.77,0,0,0,0,.6.68.68,0,0,0,.23.36.75.75,0,0,0,.43.12.92.92,0,0,0,.49-.13.71.71,0,0,0,.32-.36,1.84,1.84,0,0,0,.09-.65V124h.57v3.37Z" transform="translate(0.01 -22.61)"/><path class="cls-2" d="M51.28,126.32l.56-.08a.78.78,0,0,0,.27.52,1.13,1.13,0,0,0,1.19,0,.49.49,0,0,0,.19-.38.34.34,0,0,0-.17-.3,2.49,2.49,0,0,0-.58-.2,4.57,4.57,0,0,1-.87-.27.84.84,0,0,1-.37-.32.81.81,0,0,1-.13-.45.85.85,0,0,1,.11-.42.79.79,0,0,1,.28-.32,1.21,1.21,0,0,1,.36-.17,1.93,1.93,0,0,1,.49-.07,1.86,1.86,0,0,1,.7.12.88.88,0,0,1,.44.31,1.18,1.18,0,0,1,.2.52l-.56.08a.6.6,0,0,0-.22-.41.78.78,0,0,0-.51-.15,1,1,0,0,0-.57.13.38.38,0,0,0-.16.31.36.36,0,0,0,.06.2.53.53,0,0,0,.22.15l.51.15a5.85,5.85,0,0,1,.84.26.88.88,0,0,1,.38.3.86.86,0,0,1,.14.49,1,1,0,0,1-.17.54,1,1,0,0,1-.48.39,1.8,1.8,0,0,1-.71.14,1.53,1.53,0,0,1-1-.28A1.24,1.24,0,0,1,51.28,126.32Z" transform="translate(0.01 -22.61)"/><path class="cls-2" d="M21.87,135.13v-3.37h.51v.51a1.31,1.31,0,0,1,.36-.47.63.63,0,0,1,.37-.12,1.17,1.17,0,0,1,.59.19l-.2.53a.86.86,0,0,0-.42-.13.54.54,0,0,0-.34.12.64.64,0,0,0-.21.31,2.31,2.31,0,0,0-.09.67v1.76Z" transform="translate(0.01 -22.61)"/><path class="cls-2" d="M26.25,135.13v-.49a1.25,1.25,0,0,1-1.07.57,1.31,1.31,0,0,1-.56-.12.88.88,0,0,1-.38-.28,1,1,0,0,1-.18-.43,3.07,3.07,0,0,1,0-.53v-2.09h.58v1.87a3.77,3.77,0,0,0,0,.6.63.63,0,0,0,.23.36.73.73,0,0,0,.43.12.91.91,0,0,0,.48-.13.66.66,0,0,0,.32-.36,1.8,1.8,0,0,0,.1-.65v-1.81h.57v3.37Z" transform="translate(0.01 -22.61)"/><path class="cls-2" d="M27.65,135.13v-3.37h.52v.48a1.2,1.2,0,0,1,1.07-.56,1.47,1.47,0,0,1,.56.11.89.89,0,0,1,.38.29,1,1,0,0,1,.18.42,3.51,3.51,0,0,1,0,.56v2.07h-.57v-2a1.38,1.38,0,0,0-.07-.52.53.53,0,0,0-.23-.28.77.77,0,0,0-.4-.1.92.92,0,0,0-.63.23,1.13,1.13,0,0,0-.27.88v1.84Z" transform="translate(0.01 -22.61)"/><path class="cls-2" d="M31.27,135.13v-3.37h.51v.48a1.22,1.22,0,0,1,1.07-.56,1.43,1.43,0,0,1,.56.11,1,1,0,0,1,.39.29,1.13,1.13,0,0,1,.17.42,3.21,3.21,0,0,1,0,.56v2.07h-.58v-2a1.67,1.67,0,0,0-.06-.52.6.6,0,0,0-.24-.28.72.72,0,0,0-.4-.1,1,1,0,0,0-.63.23,1.17,1.17,0,0,0-.26.88v1.84Z" transform="translate(0.01 -22.61)"/><path class="cls-2" d="M34.88,131.13v-.65h.58v.65Zm0,4v-3.37h.58v3.37Z" transform="translate(0.01 -22.61)"/><path class="cls-2" d="M36.33,135.13v-3.37h.51v.48a1.21,1.21,0,0,1,1.07-.56,1.43,1.43,0,0,1,.56.11,1,1,0,0,1,.39.29,1.13,1.13,0,0,1,.17.42,3.51,3.51,0,0,1,0,.56v2.07h-.57v-2a1.67,1.67,0,0,0-.06-.52.6.6,0,0,0-.24-.28.74.74,0,0,0-.4-.1,1,1,0,0,0-.63.23,1.17,1.17,0,0,0-.26.88v1.84Z" transform="translate(0.01 -22.61)"/><path class="cls-2" d="M39.84,135.41l.55.08a.56.56,0,0,0,.19.38,1,1,0,0,0,.59.16,1.08,1.08,0,0,0,.61-.16.82.82,0,0,0,.29-.45,3.76,3.76,0,0,0,0-.73,1.18,1.18,0,0,1-.93.44,1.3,1.3,0,0,1-1.08-.5,2,2,0,0,1-.38-1.2,2.14,2.14,0,0,1,.18-.89,1.28,1.28,0,0,1,.5-.63,1.35,1.35,0,0,1,.78-.23,1.2,1.2,0,0,1,1,.49v-.41h.52v2.91a2.72,2.72,0,0,1-.16,1.12,1.11,1.11,0,0,1-.51.52,1.7,1.7,0,0,1-.85.19,1.65,1.65,0,0,1-1-.27A.94.94,0,0,1,39.84,135.41Zm.47-2a1.47,1.47,0,0,0,.26,1,.86.86,0,0,0,1.32,0,1.38,1.38,0,0,0,.27-.95,1.34,1.34,0,0,0-.28-.93.83.83,0,0,0-.66-.31.79.79,0,0,0-.64.31A1.35,1.35,0,0,0,40.31,133.39Z" transform="translate(0.01 -22.61)"/><path class="cls-2" d="M45.36,135.13v-3.37h.51v.51a1.31,1.31,0,0,1,.36-.47.63.63,0,0,1,.37-.12,1.17,1.17,0,0,1,.59.19l-.2.53a.86.86,0,0,0-.42-.13.54.54,0,0,0-.34.12.58.58,0,0,0-.21.31,2.31,2.31,0,0,0-.09.67v1.76Z" transform="translate(0.01 -22.61)"/><path class="cls-2" d="M49.73,134.71a2.42,2.42,0,0,1-.62.39,1.81,1.81,0,0,1-.63.11,1.22,1.22,0,0,1-.85-.27.92.92,0,0,1-.3-.7.89.89,0,0,1,.12-.45.85.85,0,0,1,.29-.33,1.72,1.72,0,0,1,.41-.19,4.64,4.64,0,0,1,.51-.08,5.33,5.33,0,0,0,1-.2v-.15a.63.63,0,0,0-.16-.49,1,1,0,0,0-.65-.19,1,1,0,0,0-.6.14.88.88,0,0,0-.28.5l-.56-.08a1.48,1.48,0,0,1,.25-.58,1.2,1.2,0,0,1,.51-.34,2.2,2.2,0,0,1,.76-.12,1.94,1.94,0,0,1,.7.11.92.92,0,0,1,.4.25,1,1,0,0,1,.18.39,3.08,3.08,0,0,1,0,.53v.76a9.89,9.89,0,0,0,0,1,1.22,1.22,0,0,0,.15.4h-.6A1.08,1.08,0,0,1,49.73,134.71Zm0-1.27a4,4,0,0,1-.94.21,2.45,2.45,0,0,0-.49.12A.43.43,0,0,0,48,134a.5.5,0,0,0,.09.65.78.78,0,0,0,.51.15,1.25,1.25,0,0,0,.59-.14.92.92,0,0,0,.38-.4,1.41,1.41,0,0,0,.09-.57Z" transform="translate(0.01 -22.61)"/><path class="cls-2" d="M51.14,135.13v-3.37h.52v.48a1.2,1.2,0,0,1,1.07-.56,1.47,1.47,0,0,1,.56.11.89.89,0,0,1,.38.29,1.14,1.14,0,0,1,.18.42,3.51,3.51,0,0,1,0,.56v2.07h-.57v-2a1.38,1.38,0,0,0-.07-.52.53.53,0,0,0-.23-.28.77.77,0,0,0-.4-.1.92.92,0,0,0-.63.23,1.13,1.13,0,0,0-.27.88v1.84Z" transform="translate(0.01 -22.61)"/><path class="cls-2" d="M54.65,135.41l.56.08a.52.52,0,0,0,.19.38A1,1,0,0,0,56,136a1,1,0,0,0,.61-.16.84.84,0,0,0,.3-.45,3.76,3.76,0,0,0,0-.73,1.19,1.19,0,0,1-.94.44,1.27,1.27,0,0,1-1.07-.5,1.91,1.91,0,0,1-.38-1.2,2.31,2.31,0,0,1,.17-.89,1.37,1.37,0,0,1,1.29-.86,1.19,1.19,0,0,1,1,.49v-.41h.53v2.91a2.9,2.9,0,0,1-.16,1.12,1.22,1.22,0,0,1-.51.52,1.74,1.74,0,0,1-.86.19,1.61,1.61,0,0,1-1-.27A.92.92,0,0,1,54.65,135.41Zm.47-2a1.41,1.41,0,0,0,.27,1,.81.81,0,0,0,.66.31.83.83,0,0,0,.66-.31,1.8,1.8,0,0,0,0-1.88.83.83,0,0,0-.66-.31.81.81,0,0,0-.65.31A1.35,1.35,0,0,0,55.12,133.39Z" transform="translate(0.01 -22.61)"/><path class="cls-2" d="M60.68,134.05l.59.07a1.44,1.44,0,0,1-.52.8,1.74,1.74,0,0,1-2.14-.17,1.77,1.77,0,0,1-.43-1.28,1.9,1.9,0,0,1,.44-1.32,1.49,1.49,0,0,1,1.13-.47,1.47,1.47,0,0,1,1.11.46,1.82,1.82,0,0,1,.43,1.3,1,1,0,0,1,0,.15H58.77a1.27,1.27,0,0,0,.32.85.91.91,0,0,0,.7.3.89.89,0,0,0,.54-.17A1.16,1.16,0,0,0,60.68,134.05Zm-1.88-.93h1.88a1.13,1.13,0,0,0-.21-.64.88.88,0,0,0-.71-.33.9.9,0,0,0-.66.27A1,1,0,0,0,58.8,133.12Z" transform="translate(0.01 -22.61)"/><path class="cls-2" d="M4.64,98.27H.54V99.8H0V96.11H.54v1.54h4.1Z" transform="translate(0.01 -22.61)"/><path class="cls-2" d="M3,95.77a1.75,1.75,0,0,1-1.38-.52,1.58,1.58,0,0,1-.38-1.06,1.5,1.5,0,0,1,.46-1.14,1.74,1.74,0,0,1,1.26-.44,2.22,2.22,0,0,1,1,.2,1.42,1.42,0,0,1,.58.56,1.64,1.64,0,0,1,.21.82,1.52,1.52,0,0,1-.46,1.14A1.82,1.82,0,0,1,3,95.77Zm0-.59a1.41,1.41,0,0,0,1-.28.91.91,0,0,0,.33-.71.89.89,0,0,0-.33-.71,1.43,1.43,0,0,0-1-.28,1.38,1.38,0,0,0-.95.28A.95.95,0,0,0,2,94.9,1.39,1.39,0,0,0,3,95.18Z" transform="translate(0.01 -22.61)"/><path class="cls-2" d="M4.64,92H1.27v-.52h.51a1.31,1.31,0,0,1-.47-.36.61.61,0,0,1-.12-.37,1,1,0,0,1,.19-.58l.53.19a.76.76,0,0,0-.13.42.52.52,0,0,0,.12.34.58.58,0,0,0,.31.21,2.3,2.3,0,0,0,.67.1H4.64Z" transform="translate(0.01 -22.61)"/><path class="cls-2" d="M5.93,87.63H4.28a1,1,0,0,1,.31.37,1.14,1.14,0,0,1,.13.51,1.34,1.34,0,0,1-.48,1A1.9,1.9,0,0,1,2.92,90,2.21,2.21,0,0,1,2,89.8a1.33,1.33,0,0,1-.82-1.25,1.14,1.14,0,0,1,.53-1H1.27v-.51H5.93Zm-3,1.76a1.51,1.51,0,0,0,1-.27.81.81,0,0,0,0-1.29A1.46,1.46,0,0,0,3,87.57a1.57,1.57,0,0,0-1,.28.83.83,0,0,0-.34.65.79.79,0,0,0,.32.63A1.55,1.55,0,0,0,2.94,89.39Z" transform="translate(0.01 -22.61)"/><path class="cls-2" d="M4.64,84h-.5A1.22,1.22,0,0,1,4.72,85a1.31,1.31,0,0,1-.12.56.82.82,0,0,1-.29.38.9.9,0,0,1-.42.18,3.33,3.33,0,0,1-.53,0H1.27V85.6H3.14a3.77,3.77,0,0,0,.6,0,.63.63,0,0,0,.36-.23.75.75,0,0,0,.12-.43.91.91,0,0,0-.13-.48.66.66,0,0,0-.36-.32,1.61,1.61,0,0,0-.65-.1H1.27v-.57H4.64Z" transform="translate(0.01 -22.61)"/><path class="cls-2" d="M3.55,80.24l.08-.59a1.39,1.39,0,0,1,.8.52,1.72,1.72,0,0,1-.17,2.13A1.77,1.77,0,0,1,3,82.74a1.9,1.9,0,0,1-1.32-.44,1.49,1.49,0,0,1-.47-1.14,1.45,1.45,0,0,1,.46-1.1A1.82,1.82,0,0,1,3,79.63H3.1v2.52A1.29,1.29,0,0,0,4,81.83a.92.92,0,0,0,.3-.7.89.89,0,0,0-.17-.54A1.07,1.07,0,0,0,3.55,80.24Zm-.92,1.87V80.23a1.18,1.18,0,0,0-.64.22.88.88,0,0,0-.33.71.9.9,0,0,0,.27.66A1,1,0,0,0,2.63,82.11Z" transform="translate(0.01 -22.61)"/><path class="cls-2" d="M5.93,77.11H0V75.85H.46v.69h5v-.69h.47Z" transform="translate(0.01 -22.61)"/><path class="cls-2" d="M4.64,75.25H0v-.63l3.65-2.44H0v-.59H4.64v.63L1,74.66H4.64Z" transform="translate(0.01 -22.61)"/><path class="cls-2" d="M2.36,70.71a.78.78,0,0,1-.57-.24.79.79,0,0,1-.23-.57.81.81,0,0,1,1.37-.57.78.78,0,0,1,.24.57.76.76,0,0,1-.24.57A.78.78,0,0,1,2.36,70.71Z" transform="translate(0.01 -22.61)"/><path class="cls-2" d="M4.64,68.35H1.27v-.51h.47a1.34,1.34,0,0,1-.4-.42,1.21,1.21,0,0,1-.15-.6,1.16,1.16,0,0,1,.16-.62.86.86,0,0,1,.43-.34,1.2,1.2,0,0,1-.59-1,1.05,1.05,0,0,1,.28-.77,1.2,1.2,0,0,1,.86-.27H4.64v.57H2.52a1.49,1.49,0,0,0-.5.06.42.42,0,0,0-.24.2.62.62,0,0,0-.09.34.82.82,0,0,0,.23.59,1,1,0,0,0,.76.24h2v.57H2.45a.92.92,0,0,0-.57.14.51.51,0,0,0-.19.45.81.81,0,0,0,.13.45.7.7,0,0,0,.37.3,2.08,2.08,0,0,0,.7.09H4.64Z" transform="translate(0.01 -22.61)"/><path class="cls-2" d="M5.93,62v1.26H5.46v-.69h-5v.69H0V62Z" transform="translate(0.01 -22.61)"/><path class="cls-2" d="M44.76,150.56l.58-.06a1.32,1.32,0,0,0,.19.58,1,1,0,0,0,.47.36,1.8,1.8,0,0,0,.71.14,1.64,1.64,0,0,0,.62-.11.91.91,0,0,0,.41-.28.76.76,0,0,0,.13-.4.59.59,0,0,0-.13-.39.92.92,0,0,0-.42-.27c-.12,0-.4-.12-.83-.23a4.15,4.15,0,0,1-.89-.29,1.19,1.19,0,0,1-.5-.43,1.06,1.06,0,0,1-.16-.58,1.16,1.16,0,0,1,.2-.66,1.18,1.18,0,0,1,.58-.46,2.15,2.15,0,0,1,.85-.16,2.4,2.4,0,0,1,.92.16,1.35,1.35,0,0,1,.6.5,1.4,1.4,0,0,1,.23.73l-.59,0a1,1,0,0,0-.32-.66,1.24,1.24,0,0,0-.81-.23,1.3,1.3,0,0,0-.82.21.6.6,0,0,0-.25.49.52.52,0,0,0,.18.41,2.39,2.39,0,0,0,.93.33,7.58,7.58,0,0,1,1,.3,1.47,1.47,0,0,1,.6.47,1.19,1.19,0,0,1,.19.67,1.3,1.3,0,0,1-.21.7,1.47,1.47,0,0,1-.61.51,2.19,2.19,0,0,1-.9.18,2.76,2.76,0,0,1-1.06-.18,1.54,1.54,0,0,1-.67-.56A1.56,1.56,0,0,1,44.76,150.56Z" transform="translate(0.01 -22.61)"/><path class="cls-2" d="M49.23,153.34v-4.66h.52v.44a1.29,1.29,0,0,1,.42-.39,1.19,1.19,0,0,1,.56-.13,1.31,1.31,0,0,1,.76.23,1.29,1.29,0,0,1,.5.62,2.39,2.39,0,0,1,0,1.82,1.36,1.36,0,0,1-.54.64,1.45,1.45,0,0,1-.74.22,1.14,1.14,0,0,1-.52-.12,1.25,1.25,0,0,1-.37-.31v1.64Zm.52-3a1.46,1.46,0,0,0,.26,1,.82.82,0,0,0,1.29,0,2,2,0,0,0,0-2,.82.82,0,0,0-.64-.32.8.8,0,0,0-.64.34A1.52,1.52,0,0,0,49.75,150.38Z" transform="translate(0.01 -22.61)"/><path class="cls-2" d="M55.15,151l.59.08a1.39,1.39,0,0,1-.52.8,1.72,1.72,0,0,1-2.13-.17,1.77,1.77,0,0,1-.44-1.28,1.9,1.9,0,0,1,.44-1.32,1.49,1.49,0,0,1,1.14-.47,1.45,1.45,0,0,1,1.1.46,1.82,1.82,0,0,1,.43,1.3v.15H53.24a1.34,1.34,0,0,0,.32.85.92.92,0,0,0,.7.3.89.89,0,0,0,.54-.17A1.07,1.07,0,0,0,55.15,151ZM53.28,150h1.88a1.18,1.18,0,0,0-.22-.64.88.88,0,0,0-.71-.33.9.9,0,0,0-.66.27A1,1,0,0,0,53.28,150Z" transform="translate(0.01 -22.61)"/><path class="cls-2" d="M58.77,151l.59.08a1.5,1.5,0,0,1-.52.8,1.74,1.74,0,0,1-2.14-.17,1.77,1.77,0,0,1-.43-1.28,1.9,1.9,0,0,1,.44-1.32,1.58,1.58,0,0,1,2.24,0,1.87,1.87,0,0,1,.43,1.3s0,.08,0,.15H56.86a1.34,1.34,0,0,0,.31.85.94.94,0,0,0,.71.3.84.84,0,0,0,.53-.17A1.08,1.08,0,0,0,58.77,151ZM56.89,150h1.88a1.1,1.1,0,0,0-.21-.64.88.88,0,0,0-.71-.33.9.9,0,0,0-.66.27A1,1,0,0,0,56.89,150Z" transform="translate(0.01 -22.61)"/><path class="cls-2" d="M62.26,152.05v-.42a1.05,1.05,0,0,1-.94.5,1.3,1.3,0,0,1-.74-.23,1.41,1.41,0,0,1-.53-.62,2.17,2.17,0,0,1-.18-.91,2.29,2.29,0,0,1,.17-.92,1.37,1.37,0,0,1,.5-.63,1.43,1.43,0,0,1,.75-.22,1.21,1.21,0,0,1,.55.13,1.24,1.24,0,0,1,.38.34V147.4h.57v4.65Zm-1.8-1.68a1.5,1.5,0,0,0,.27,1,.82.82,0,0,0,.64.32.84.84,0,0,0,.64-.31,1.43,1.43,0,0,0,.26-.93,1.58,1.58,0,0,0-.27-1,.82.82,0,0,0-1.29,0A1.54,1.54,0,0,0,60.46,150.37Z" transform="translate(0.01 -22.61)"/><path class="cls-2" d="M65.51,153.34V147.4h1.26v.47h-.69v5h.69v.47Z" transform="translate(0.01 -22.61)"/><path class="cls-2" d="M67.29,152.05v-3.37h.52v.51a1.31,1.31,0,0,1,.36-.47.63.63,0,0,1,.37-.12,1.17,1.17,0,0,1,.59.19l-.2.53a.86.86,0,0,0-.42-.13.54.54,0,0,0-.34.12.58.58,0,0,0-.21.31,2.31,2.31,0,0,0-.09.67v1.76Z" transform="translate(0.01 -22.61)"/><path class="cls-2" d="M69,152.13l1.35-4.81h.45l-1.34,4.81Z" transform="translate(0.01 -22.61)"/><path class="cls-2" d="M71.27,152.05v-3.37h.51v.47a1.34,1.34,0,0,1,.42-.4,1.21,1.21,0,0,1,.6-.15,1.16,1.16,0,0,1,.62.16.86.86,0,0,1,.34.43,1.2,1.2,0,0,1,1-.59,1.05,1.05,0,0,1,.77.28,1.2,1.2,0,0,1,.27.86v2.31h-.57v-2.12a1.91,1.91,0,0,0,0-.5.49.49,0,0,0-.21-.24.62.62,0,0,0-.34-.09.79.79,0,0,0-.59.24,1,1,0,0,0-.23.75v2h-.58v-2.19a.92.92,0,0,0-.14-.57.51.51,0,0,0-.45-.19.81.81,0,0,0-.45.13.69.69,0,0,0-.29.37,1.85,1.85,0,0,0-.1.7v1.75Z" transform="translate(0.01 -22.61)"/><path class="cls-2" d="M76.69,148.05v-.65h.57v.65Zm0,4v-3.37h.57v3.37Z" transform="translate(0.01 -22.61)"/><path class="cls-2" d="M78.13,152.05v-3.37h.51v.48a1.23,1.23,0,0,1,1.08-.56,1.47,1.47,0,0,1,.56.11.89.89,0,0,1,.38.29,1.33,1.33,0,0,1,.18.42,3.51,3.51,0,0,1,0,.56v2.07H80.3V150a1.38,1.38,0,0,0-.07-.52.53.53,0,0,0-.23-.28.77.77,0,0,0-.4-.1.92.92,0,0,0-.63.23,1.13,1.13,0,0,0-.27.88v1.84Z" transform="translate(0.01 -22.61)"/><path class="cls-2" d="M82.7,153.34H81.44v-.47h.69v-5h-.69v-.47H82.7Z" transform="translate(0.01 -22.61)"/></g></svg>