<svg xmlns="http://www.w3.org/2000/svg" viewBox="0 0 117.99 130.95"><defs><style>.cls-1,.cls-2,.cls-3,.cls-5,.繝医Ν繧ｯ繧ｰ繝ｩ繝廟繧ｰ繝ｬ繝ｼ邱,.邱喟0\.5pt-5{fill:none;}.cls-1,.cls-5,.邱喟0\.5pt-5{stroke:#231815;}.cls-1{stroke-linejoin:round;stroke-width:0.14px;}.cls-2,.cls-3,.繝医Ν繧ｯ繧ｰ繝ｩ繝廟繧ｰ繝ｬ繝ｼ邱{stroke:#9fa0a0;}.cls-2,.cls-3,.邱喟0\.5pt-5{stroke-miterlimit:10;}.cls-2,.cls-3{stroke-width:1px;}.cls-3{stroke-dasharray:2.75 1.33;}.繝医Ν繧ｯ繧ｰ繝ｩ繝廟繧ｰ繝ｬ繝ｼ邱{stroke-width:3px;}.cls-4{fill:#231815;}.cls-6,.繝後Μ_逋ｽ-2{fill:#fff;}.邱喟0\.5pt-5{stroke-width:0.5px;}.cls-6{fill-rule:evenodd;}</style></defs><g id="Illust"><line class="cls-1" x1="47.07" y1="1.7" x2="47.07" y2="115.09"/><line class="cls-1" x1="101.49" y1="1.7" x2="101.49" y2="115.09"/><line class="cls-1" x1="74.28" y1="1.7" x2="74.28" y2="115.09"/><line class="cls-2" x1="87.89" y1="106.59" x2="87.89" y2="108.14"/><line class="cls-3" x1="87.89" y1="109.46" x2="87.89" y2="112.87"/><line class="cls-2" x1="87.89" y1="113.54" x2="87.89" y2="115.09"/><line class="cls-1" x1="19.87" y1="92.41" x2="110.55" y2="92.41"/><line class="cls-1" x1="19.87" y1="69.74" x2="110.55" y2="69.74"/><line class="cls-1" x1="19.87" y1="47.06" x2="110.55" y2="47.06"/><line class="cls-1" x1="19.87" y1="24.38" x2="110.55" y2="24.38"/><polyline class="繝医Ν繧ｯ繧ｰ繝ｩ繝廟繧ｰ繝ｬ繝ｼ邱" points="19.86 93.46 47.06 93.46 56.13 98.89 65.21 102.11 74.27 104.26 83.36 105.84 92.42 106.97 101.48 107.88 110.56 108.61"/><polyline class="繝医Ν繧ｯ繧ｰ繝ｩ繝廟繧ｰ繝ｬ繝ｼ邱" points="19.86 50.14 47.98 50.14 65.21 77.91 111.98 93.83"/><path class="cls-4" d="M10.23,137.84a3.2,3.2,0,0,1,.13-1,1.31,1.31,0,0,1,.39-.6,1.11,1.11,0,0,1,1.15-.09,1,1,0,0,1,.36.33,1.91,1.91,0,0,1,.22.54,4.23,4.23,0,0,1-.05,1.86,1.22,1.22,0,0,1-.38.6,1.1,1.1,0,0,1-1.47-.16A2.43,2.43,0,0,1,10.23,137.84Zm.45,0a2.18,2.18,0,0,0,.21,1.17.59.59,0,0,0,.51.3.61.61,0,0,0,.51-.3,3.52,3.52,0,0,0,0-2.34.6.6,0,0,0-.52-.29.56.56,0,0,0-.48.25A2.28,2.28,0,0,0,10.68,137.84Z" transform="translate(1.43 -22.39)"/><path class="cls-4" d="M13.29,139.61v-.5h.5v.5Z" transform="translate(1.43 -22.39)"/><path class="cls-4" d="M14.43,137.84a3.52,3.52,0,0,1,.13-1,1.31,1.31,0,0,1,.39-.6,1,1,0,0,1,.65-.21,1.07,1.07,0,0,1,.51.12,1.13,1.13,0,0,1,.36.33,2.25,2.25,0,0,1,.22.54,3.66,3.66,0,0,1,.08.84,3.52,3.52,0,0,1-.13,1,1.31,1.31,0,0,1-.39.6,1.09,1.09,0,0,1-1.46-.16A2.35,2.35,0,0,1,14.43,137.84Zm.46,0a2.2,2.2,0,0,0,.2,1.17.58.58,0,0,0,1,0,3.36,3.36,0,0,0,0-2.34.6.6,0,0,0-.51-.29.56.56,0,0,0-.49.25A2.3,2.3,0,0,0,14.89,137.84Z" transform="translate(1.43 -22.39)"/><path class="cls-4" d="M10.23,114.54a3.2,3.2,0,0,1,.13-1,1.28,1.28,0,0,1,.39-.59.94.94,0,0,1,.65-.21,1,1,0,0,1,.5.11.9.9,0,0,1,.36.34,1.73,1.73,0,0,1,.22.53,4.23,4.23,0,0,1-.05,1.86,1.22,1.22,0,0,1-.38.6,1,1,0,0,1-.65.21,1,1,0,0,1-.82-.37A2.41,2.41,0,0,1,10.23,114.54Zm.45,0a2.25,2.25,0,0,0,.21,1.18.6.6,0,0,0,.51.29.62.62,0,0,0,.51-.29,2.38,2.38,0,0,0,.2-1.18,2.31,2.31,0,0,0-.2-1.17.63.63,0,0,0-.52-.29.54.54,0,0,0-.48.26A2.24,2.24,0,0,0,10.68,114.54Z" transform="translate(1.43 -22.39)"/><path class="cls-4" d="M13.29,116.31v-.5h.5v.5Z" transform="translate(1.43 -22.39)"/><path class="cls-4" d="M14.43,115.37l.47,0a.81.81,0,0,0,.23.51.68.68,0,0,0,.45.17.7.7,0,0,0,.54-.24.89.89,0,0,0,.22-.64.82.82,0,0,0-.21-.59.76.76,0,0,0-.55-.22.84.84,0,0,0-.39.1.81.81,0,0,0-.27.25l-.41,0,.35-1.84h1.78v.42H15.21l-.19,1a1.14,1.14,0,0,1,.67-.22,1,1,0,0,1,.79.32,1.14,1.14,0,0,1,.33.84,1.32,1.32,0,0,1-.29.84,1.26,1.26,0,0,1-1.73.16A1.09,1.09,0,0,1,14.43,115.37Z" transform="translate(1.43 -22.39)"/><path class="cls-4" d="M11.88,93.73h-.44v-2.8a2.07,2.07,0,0,1-.41.3,2.45,2.45,0,0,1-.46.23V91a3,3,0,0,0,.64-.42,2,2,0,0,0,.39-.48h.28Z" transform="translate(1.43 -22.39)"/><path class="cls-4" d="M13.29,93.73v-.5h.5v.5Z" transform="translate(1.43 -22.39)"/><path class="cls-4" d="M14.43,92a3.54,3.54,0,0,1,.13-1,1.33,1.33,0,0,1,.39-.59,1,1,0,0,1,.65-.21,1.19,1.19,0,0,1,.51.11,1.06,1.06,0,0,1,.36.34,2,2,0,0,1,.22.53,3.76,3.76,0,0,1,.08.85,3.39,3.39,0,0,1-.13,1,1.31,1.31,0,0,1-.39.6,1,1,0,0,1-.65.21,1,1,0,0,1-.81-.37A2.32,2.32,0,0,1,14.43,92Zm.46,0a2.23,2.23,0,0,0,.2,1.17.59.59,0,0,0,1,0,3.39,3.39,0,0,0,0-2.35.62.62,0,0,0-.51-.29.57.57,0,0,0-.49.26A2.3,2.3,0,0,0,14.89,92Z" transform="translate(1.43 -22.39)"/><path class="cls-4" d="M11.88,71.15h-.44v-2.8a2.07,2.07,0,0,1-.41.3,3.27,3.27,0,0,1-.46.23v-.43a2.37,2.37,0,0,0,.64-.42,1.65,1.65,0,0,0,.39-.48h.28Z" transform="translate(1.43 -22.39)"/><path class="cls-4" d="M13.29,71.15v-.5h.5v.5Z" transform="translate(1.43 -22.39)"/><path class="cls-4" d="M14.43,70.21l.47,0a.87.87,0,0,0,.23.51.68.68,0,0,0,.45.17.7.7,0,0,0,.54-.24.89.89,0,0,0,.22-.64.8.8,0,0,0-.21-.59.72.72,0,0,0-.55-.22.73.73,0,0,0-.39.1.81.81,0,0,0-.27.25l-.41-.06.35-1.83h1.78V68H15.21L15,69a1.15,1.15,0,0,1,.67-.23,1,1,0,0,1,.79.33,1.1,1.1,0,0,1,.33.83,1.28,1.28,0,0,1-.29.84,1.14,1.14,0,0,1-.94.44,1.11,1.11,0,0,1-.79-.28A1,1,0,0,1,14.43,70.21Z" transform="translate(1.43 -22.39)"/><path class="cls-4" d="M12.54,48.14v.43H10.17a1.06,1.06,0,0,1,.05-.31,1.58,1.58,0,0,1,.29-.47,5.35,5.35,0,0,1,.58-.55,5.41,5.41,0,0,0,.79-.75,1,1,0,0,0,.2-.53.59.59,0,0,0-.18-.44.77.77,0,0,0-1,0,.68.68,0,0,0-.19.52l-.45,0a1.09,1.09,0,0,1,.34-.77,1.21,1.21,0,0,1,.82-.27,1.13,1.13,0,0,1,.81.29.93.93,0,0,1,.3.71,1.25,1.25,0,0,1-.08.42,1.72,1.72,0,0,1-.3.44,7.63,7.63,0,0,1-.67.63,5.24,5.24,0,0,0-.51.45,1.28,1.28,0,0,0-.19.23Z" transform="translate(1.43 -22.39)"/><path class="cls-4" d="M13.29,48.57v-.5h.5v.5Z" transform="translate(1.43 -22.39)"/><path class="cls-4" d="M14.43,46.8a3.52,3.52,0,0,1,.13-1,1.31,1.31,0,0,1,.39-.6A1,1,0,0,1,15.6,45a1.07,1.07,0,0,1,.51.12,1.13,1.13,0,0,1,.36.33,2.25,2.25,0,0,1,.22.54,3.66,3.66,0,0,1,.08.84,3.52,3.52,0,0,1-.13,1,1.31,1.31,0,0,1-.39.6,1.09,1.09,0,0,1-1.46-.16A2.35,2.35,0,0,1,14.43,46.8Zm.46,0a2.2,2.2,0,0,0,.2,1.17.58.58,0,0,0,1,0,3.36,3.36,0,0,0,0-2.34.6.6,0,0,0-.51-.29.56.56,0,0,0-.49.25A2.3,2.3,0,0,0,14.89,46.8Z" transform="translate(1.43 -22.39)"/><path class="cls-4" d="M12.54,25.56V26H10.17a1,1,0,0,1,.05-.3,1.76,1.76,0,0,1,.29-.48,6.66,6.66,0,0,1,.58-.54,4.87,4.87,0,0,0,.79-.76.92.92,0,0,0,.2-.53.6.6,0,0,0-.18-.44.75.75,0,0,0-1,0,.68.68,0,0,0-.19.52l-.45,0a1.09,1.09,0,0,1,.34-.77,1.21,1.21,0,0,1,.82-.27,1.13,1.13,0,0,1,.81.29.92.92,0,0,1,.3.7,1.26,1.26,0,0,1-.08.43,1.53,1.53,0,0,1-.3.43,5.45,5.45,0,0,1-.67.63c-.27.22-.44.38-.51.45a1.33,1.33,0,0,0-.19.24Z" transform="translate(1.43 -22.39)"/><path class="cls-4" d="M13.29,26v-.5h.5V26Z" transform="translate(1.43 -22.39)"/><path class="cls-4" d="M14.43,25.05l.47,0a.81.81,0,0,0,.23.5.63.63,0,0,0,.45.17.73.73,0,0,0,.54-.23.91.91,0,0,0,.22-.64.8.8,0,0,0-.21-.59.72.72,0,0,0-.55-.22.73.73,0,0,0-.39.1.72.72,0,0,0-.27.25l-.41-.06.35-1.84h1.78v.42H15.21l-.19,1a1.15,1.15,0,0,1,.67-.23,1,1,0,0,1,.79.33,1.1,1.1,0,0,1,.33.83,1.3,1.3,0,0,1-.29.84,1.14,1.14,0,0,1-.94.44,1.15,1.15,0,0,1-.79-.28A1,1,0,0,1,14.43,25.05Z" transform="translate(1.43 -22.39)"/><path class="cls-4" d="M17.24,141.38a3.52,3.52,0,0,1,.13-1,1.28,1.28,0,0,1,.39-.59,1.14,1.14,0,0,1,1.15-.1.9.9,0,0,1,.36.34,1.73,1.73,0,0,1,.23.53,3.72,3.72,0,0,1,.08.84,3.52,3.52,0,0,1-.13,1,1.31,1.31,0,0,1-.39.6,1,1,0,0,1-.65.21,1,1,0,0,1-.81-.37A2.33,2.33,0,0,1,17.24,141.38Zm.45,0a2.25,2.25,0,0,0,.21,1.18.59.59,0,0,0,1,0,2.27,2.27,0,0,0,.2-1.18,2.23,2.23,0,0,0-.2-1.17.63.63,0,0,0-.52-.29.56.56,0,0,0-.48.26A2.24,2.24,0,0,0,17.69,141.38Z" transform="translate(1.43 -22.39)"/><polyline class="cls-5" points="19.86 93.46 47.06 93.46 56.13 98.89 65.21 102.11 74.27 104.26 83.36 105.84 92.42 106.97 101.48 107.88 110.56 108.61"/><polyline class="cls-5" points="19.86 50.14 42.53 50.14 65.21 87.01 110.56 100.13"/><rect class="繝後Μ_逋ｽ-2" x="110.56" y="1.7" width="2.83" height="113.39"/><path class="cls-4" d="M40.29,142.21l.44-.06a1,1,0,0,0,.25.54.72.72,0,0,0,1-.06.72.72,0,0,0,.21-.53.68.68,0,0,0-.19-.5.7.7,0,0,0-.51-.19,1,1,0,0,0-.31.05l.05-.39h.07a.89.89,0,0,0,.51-.14.5.5,0,0,0,.22-.45.52.52,0,0,0-.16-.4.57.57,0,0,0-.42-.16.59.59,0,0,0-.43.16.83.83,0,0,0-.22.48l-.44-.08a1.11,1.11,0,0,1,.37-.68,1.05,1.05,0,0,1,.71-.24,1.25,1.25,0,0,1,.54.12.9.9,0,0,1,.37.35.82.82,0,0,1,.13.46.79.79,0,0,1-.12.42.8.8,0,0,1-.37.3.79.79,0,0,1,.49.31.88.88,0,0,1,.18.57,1.05,1.05,0,0,1-.34.8,1.2,1.2,0,0,1-.87.32,1.12,1.12,0,0,1-.78-.28A1.06,1.06,0,0,1,40.29,142.21Z" transform="translate(1.43 -22.39)"/><path class="cls-4" d="M43.06,141.38a3.17,3.17,0,0,1,.14-1,1.24,1.24,0,0,1,.38-.59,1,1,0,0,1,.65-.21.95.95,0,0,1,.87.45,2,2,0,0,1,.22.53,3.72,3.72,0,0,1,.08.84,3.2,3.2,0,0,1-.13,1,1.31,1.31,0,0,1-.39.6,1,1,0,0,1-.65.21,1,1,0,0,1-.81-.37A2.33,2.33,0,0,1,43.06,141.38Zm.46,0a2.38,2.38,0,0,0,.2,1.18.59.59,0,0,0,1,0,2.25,2.25,0,0,0,.21-1.18,2.2,2.2,0,0,0-.21-1.17.62.62,0,0,0-.51-.29.58.58,0,0,0-.49.26A2.26,2.26,0,0,0,43.52,141.38Z" transform="translate(1.43 -22.39)"/><path class="cls-4" d="M45.82,141.38a3.2,3.2,0,0,1,.13-1,1.24,1.24,0,0,1,.38-.59,1,1,0,0,1,.65-.21.95.95,0,0,1,.87.45,1.73,1.73,0,0,1,.22.53,3.72,3.72,0,0,1,.08.84,3.2,3.2,0,0,1-.13,1,1.23,1.23,0,0,1-.39.6,1,1,0,0,1-.65.21,1,1,0,0,1-.81-.37A2.34,2.34,0,0,1,45.82,141.38Zm.45,0a2.38,2.38,0,0,0,.2,1.18.59.59,0,0,0,1,0,2.25,2.25,0,0,0,.21-1.18,2.2,2.2,0,0,0-.21-1.17.62.62,0,0,0-.51-.29.59.59,0,0,0-.49.26A2.26,2.26,0,0,0,46.27,141.38Z" transform="translate(1.43 -22.39)"/><path class="cls-4" d="M48.63,141.38a3.2,3.2,0,0,1,.13-1,1.18,1.18,0,0,1,.39-.59,1,1,0,0,1,.64-.21,1,1,0,0,1,.51.11,1.06,1.06,0,0,1,.36.34,1.73,1.73,0,0,1,.22.53,3.72,3.72,0,0,1,.08.84,3.2,3.2,0,0,1-.13,1,1.23,1.23,0,0,1-.39.6,1.09,1.09,0,0,1-1.46-.16A2.34,2.34,0,0,1,48.63,141.38Zm.45,0a2.38,2.38,0,0,0,.2,1.18.59.59,0,0,0,1,0,2.25,2.25,0,0,0,.21-1.18,2.2,2.2,0,0,0-.21-1.17.62.62,0,0,0-.51-.29.56.56,0,0,0-.48.26A2.15,2.15,0,0,0,49.08,141.38Z" transform="translate(1.43 -22.39)"/><path class="cls-4" d="M69.76,140.45l-.43,0a.8.8,0,0,0-.17-.37.58.58,0,0,0-.44-.19.67.67,0,0,0-.37.11,1,1,0,0,0-.33.45,2.22,2.22,0,0,0-.12.82.93.93,0,0,1,.39-.35,1,1,0,0,1,.48-.12,1,1,0,0,1,.75.32,1.21,1.21,0,0,1,.31.84,1.32,1.32,0,0,1-.15.62,1.1,1.1,0,0,1-.4.45,1.19,1.19,0,0,1-1.47-.25,2.06,2.06,0,0,1-.35-1.33,2.34,2.34,0,0,1,.39-1.51,1.08,1.08,0,0,1,.9-.41,1,1,0,0,1,.69.23A1,1,0,0,1,69.76,140.45ZM68,142a1.12,1.12,0,0,0,.09.44.82.82,0,0,0,.27.31.72.72,0,0,0,.37.11.64.64,0,0,0,.48-.22.92.92,0,0,0,.2-.62.83.83,0,0,0-.2-.58.7.7,0,0,0-1,0A.76.76,0,0,0,68,142Z" transform="translate(1.43 -22.39)"/><path class="cls-4" d="M70.29,141.38a3.52,3.52,0,0,1,.13-1,1.33,1.33,0,0,1,.39-.59,1.14,1.14,0,0,1,1.15-.1.9.9,0,0,1,.36.34,1.73,1.73,0,0,1,.23.53,3.72,3.72,0,0,1,.08.84,3.52,3.52,0,0,1-.13,1,1.31,1.31,0,0,1-.39.6,1,1,0,0,1-.65.21,1,1,0,0,1-.81-.37A2.33,2.33,0,0,1,70.29,141.38Zm.45,0a2.25,2.25,0,0,0,.21,1.18.59.59,0,0,0,1,0,2.27,2.27,0,0,0,.2-1.18,2.23,2.23,0,0,0-.2-1.17.63.63,0,0,0-.52-.29.56.56,0,0,0-.48.26A2.24,2.24,0,0,0,70.74,141.38Z" transform="translate(1.43 -22.39)"/><path class="cls-4" d="M73,141.38a3.52,3.52,0,0,1,.13-1,1.33,1.33,0,0,1,.39-.59,1,1,0,0,1,.65-.21,1.06,1.06,0,0,1,.51.11,1,1,0,0,1,.35.34,1.73,1.73,0,0,1,.23.53,3.72,3.72,0,0,1,.08.84,3.52,3.52,0,0,1-.13,1,1.31,1.31,0,0,1-.39.6,1,1,0,0,1-.65.21,1,1,0,0,1-.81-.37A2.33,2.33,0,0,1,73,141.38Zm.45,0a2.25,2.25,0,0,0,.21,1.18.59.59,0,0,0,1,0,2.25,2.25,0,0,0,.21-1.18,2.2,2.2,0,0,0-.21-1.17.62.62,0,0,0-.51-.29.57.57,0,0,0-.49.26A2.24,2.24,0,0,0,73.49,141.38Z" transform="translate(1.43 -22.39)"/><path class="cls-4" d="M75.85,141.38a3.52,3.52,0,0,1,.13-1,1.33,1.33,0,0,1,.39-.59,1,1,0,0,1,.65-.21.95.95,0,0,1,.87.45,2,2,0,0,1,.22.53,3.72,3.72,0,0,1,.08.84,3.52,3.52,0,0,1-.13,1,1.31,1.31,0,0,1-.39.6,1,1,0,0,1-.65.21,1,1,0,0,1-.81-.37A2.33,2.33,0,0,1,75.85,141.38Zm.46,0a2.27,2.27,0,0,0,.2,1.18.59.59,0,0,0,1,0,2.25,2.25,0,0,0,.21-1.18,2.2,2.2,0,0,0-.21-1.17.62.62,0,0,0-.51-.29.57.57,0,0,0-.49.26A2.26,2.26,0,0,0,76.31,141.38Z" transform="translate(1.43 -22.39)"/><path class="cls-4" d="M94.74,142.32l.43,0a.73.73,0,0,0,.2.44.61.61,0,0,0,.39.13.71.71,0,0,0,.36-.09,1,1,0,0,0,.25-.25,1.42,1.42,0,0,0,.16-.42,2.42,2.42,0,0,0,.07-.54s0-.05,0-.08a.91.91,0,0,1-.36.34,1,1,0,0,1-.49.13,1,1,0,0,1-.75-.33,1.14,1.14,0,0,1-.31-.85,1.21,1.21,0,0,1,.32-.87,1.06,1.06,0,0,1,.8-.33,1.13,1.13,0,0,1,1.08.72,2.65,2.65,0,0,1,.15,1,3.25,3.25,0,0,1-.15,1.09,1.26,1.26,0,0,1-.44.62,1.17,1.17,0,0,1-.69.21,1,1,0,0,1-.69-.23A1.09,1.09,0,0,1,94.74,142.32Zm1.8-1.58a.84.84,0,0,0-.2-.6.61.61,0,0,0-.48-.22.65.65,0,0,0-.51.24.87.87,0,0,0-.22.62.74.74,0,0,0,.21.55.64.64,0,0,0,.51.22.63.63,0,0,0,.5-.22A.84.84,0,0,0,96.54,140.74Z" transform="translate(1.43 -22.39)"/><path class="cls-4" d="M97.46,141.38a3.2,3.2,0,0,1,.13-1,1.28,1.28,0,0,1,.39-.59,1.14,1.14,0,0,1,1.15-.1.9.9,0,0,1,.36.34,1.51,1.51,0,0,1,.22.53,4.23,4.23,0,0,1,0,1.86,1.22,1.22,0,0,1-.38.6,1.1,1.1,0,0,1-1.47-.16A2.41,2.41,0,0,1,97.46,141.38Zm.45,0a2.25,2.25,0,0,0,.21,1.18.59.59,0,0,0,1,0,2.38,2.38,0,0,0,.2-1.18,2.34,2.34,0,0,0-.2-1.17.63.63,0,0,0-.52-.29.56.56,0,0,0-.48.26A2.24,2.24,0,0,0,97.91,141.38Z" transform="translate(1.43 -22.39)"/><path class="cls-4" d="M100.27,141.38a3.2,3.2,0,0,1,.13-1,1.28,1.28,0,0,1,.39-.59,1.14,1.14,0,0,1,1.15-.1.9.9,0,0,1,.36.34,1.51,1.51,0,0,1,.22.53,4.23,4.23,0,0,1,0,1.86,1.22,1.22,0,0,1-.38.6,1.1,1.1,0,0,1-1.47-.16A2.41,2.41,0,0,1,100.27,141.38Zm.45,0a2.25,2.25,0,0,0,.21,1.18.59.59,0,0,0,1,0,2.38,2.38,0,0,0,.2-1.18,2.34,2.34,0,0,0-.2-1.17.63.63,0,0,0-.52-.29.56.56,0,0,0-.48.26A2.24,2.24,0,0,0,100.72,141.38Z" transform="translate(1.43 -22.39)"/><path class="cls-4" d="M103.08,141.38a3.2,3.2,0,0,1,.13-1,1.28,1.28,0,0,1,.39-.59,1.14,1.14,0,0,1,1.15-.1.9.9,0,0,1,.36.34,1.51,1.51,0,0,1,.22.53,3.16,3.16,0,0,1,.09.84,3.52,3.52,0,0,1-.13,1,1.31,1.31,0,0,1-.39.6,1,1,0,0,1-.65.21,1,1,0,0,1-.81-.37A2.33,2.33,0,0,1,103.08,141.38Zm.45,0a2.25,2.25,0,0,0,.21,1.18.59.59,0,0,0,1,0,2.38,2.38,0,0,0,.2-1.18,2.34,2.34,0,0,0-.2-1.17.63.63,0,0,0-.52-.29.56.56,0,0,0-.48.26A2.24,2.24,0,0,0,103.53,141.38Z" transform="translate(1.43 -22.39)"/><rect class="邱喟0.5pt-5" x="19.86" y="1.7" width="90.71" height="113.39"/><path class="cls-4" d="M104.75,147.4h-.43v-2.8a2.54,2.54,0,0,1-.42.3,2.45,2.45,0,0,1-.46.23v-.42a3,3,0,0,0,.64-.42,1.75,1.75,0,0,0,.39-.48h.28Z" transform="translate(1.43 -22.39)"/><path class="cls-4" d="M105.88,145.64a3.23,3.23,0,0,1,.13-1,1.33,1.33,0,0,1,.39-.59,1,1,0,0,1,.65-.21,1.12,1.12,0,0,1,.5.11.9.9,0,0,1,.36.34,1.51,1.51,0,0,1,.22.53,3.25,3.25,0,0,1,.08.85,3.09,3.09,0,0,1-.13,1,1.22,1.22,0,0,1-.38.6,1.1,1.1,0,0,1-1.47-.16A2.39,2.39,0,0,1,105.88,145.64Zm.45,0a2.2,2.2,0,0,0,.21,1.17.59.59,0,0,0,1,0,3.55,3.55,0,0,0,0-2.35.63.63,0,0,0-.52-.29.56.56,0,0,0-.48.26A2.28,2.28,0,0,0,106.33,145.64Z" transform="translate(1.43 -22.39)"/><path class="cls-4" d="M108.66,145.64a3.23,3.23,0,0,1,.13-1,1.33,1.33,0,0,1,.39-.59,1,1,0,0,1,.65-.21,1.12,1.12,0,0,1,.5.11.9.9,0,0,1,.36.34,1.51,1.51,0,0,1,.22.53,3.25,3.25,0,0,1,.08.85,3.44,3.44,0,0,1-.12,1,1.31,1.31,0,0,1-.39.6,1,1,0,0,1-.65.21,1,1,0,0,1-.81-.37A2.32,2.32,0,0,1,108.66,145.64Zm.45,0a2.2,2.2,0,0,0,.21,1.17.59.59,0,0,0,1,0,3.55,3.55,0,0,0,0-2.35.63.63,0,0,0-.52-.29.56.56,0,0,0-.48.26A2.28,2.28,0,0,0,109.11,145.64Z" transform="translate(1.43 -22.39)"/><path class="cls-4" d="M111.44,145.64a3.54,3.54,0,0,1,.13-1A1.33,1.33,0,0,1,112,144a1,1,0,0,1,.65-.21,1.12,1.12,0,0,1,.5.11.9.9,0,0,1,.36.34,1.73,1.73,0,0,1,.23.53,3.76,3.76,0,0,1,.08.85,3.39,3.39,0,0,1-.13,1,1.31,1.31,0,0,1-.39.6,1,1,0,0,1-.65.21,1,1,0,0,1-.81-.37A2.32,2.32,0,0,1,111.44,145.64Zm.45,0a2.2,2.2,0,0,0,.21,1.17.59.59,0,0,0,1,0,3.55,3.55,0,0,0,0-2.35.63.63,0,0,0-.52-.29.56.56,0,0,0-.48.26A2.28,2.28,0,0,0,111.89,145.64Z" transform="translate(1.43 -22.39)"/><path class="cls-4" d="M114.22,145.64a3.54,3.54,0,0,1,.13-1,1.33,1.33,0,0,1,.39-.59,1,1,0,0,1,.65-.21,1.12,1.12,0,0,1,.5.11.9.9,0,0,1,.36.34,1.73,1.73,0,0,1,.23.53,3.76,3.76,0,0,1,.08.85,3.39,3.39,0,0,1-.13,1,1.31,1.31,0,0,1-.39.6,1,1,0,0,1-.65.21,1,1,0,0,1-.81-.37A2.32,2.32,0,0,1,114.22,145.64Zm.45,0a2.2,2.2,0,0,0,.21,1.17.59.59,0,0,0,1,0,3.55,3.55,0,0,0,0-2.35.63.63,0,0,0-.52-.29.56.56,0,0,0-.48.26A2.28,2.28,0,0,0,114.67,145.64Z" transform="translate(1.43 -22.39)"/></g><g id="English"><polygon class="cls-6" points="68.47 91.7 20.56 91.7 20.56 67.61 51.04 67.61 63.08 88.16 68.47 91.7"/><path class="cls-4" d="M19.79,94.65l.58-.05a1.32,1.32,0,0,0,.2.58,1,1,0,0,0,.46.36,1.85,1.85,0,0,0,.72.14,1.71,1.71,0,0,0,.62-.11.82.82,0,0,0,.4-.29.63.63,0,0,0,.13-.39.65.65,0,0,0-.12-.39,1,1,0,0,0-.42-.27c-.13,0-.4-.12-.83-.23a4.09,4.09,0,0,1-.9-.29,1.26,1.26,0,0,1-.5-.43A1.15,1.15,0,0,1,20,92.7a1.22,1.22,0,0,1,.2-.66,1.2,1.2,0,0,1,.59-.46,2.11,2.11,0,0,1,.85-.16,2.35,2.35,0,0,1,.91.16,1.36,1.36,0,0,1,.61.49,1.44,1.44,0,0,1,.23.74l-.59,0a1,1,0,0,0-.32-.66,1.23,1.23,0,0,0-.82-.23,1.34,1.34,0,0,0-.81.2.64.64,0,0,0-.26.5.5.5,0,0,0,.19.41,2.26,2.26,0,0,0,.92.33,7.15,7.15,0,0,1,1,.3,1.39,1.39,0,0,1,.6.47,1.2,1.2,0,0,1,.2.67,1.18,1.18,0,0,1-.22.69,1.43,1.43,0,0,1-.61.52,2.11,2.11,0,0,1-.89.18A2.54,2.54,0,0,1,20.72,96a1.4,1.4,0,0,1-.67-.55A1.6,1.6,0,0,1,19.79,94.65Z" transform="translate(1.43 -22.39)"/><path class="cls-4" d="M24.27,96.15V91.5h.57v1.67a1.27,1.27,0,0,1,1-.47,1.36,1.36,0,0,1,.65.15.86.86,0,0,1,.39.41A1.83,1.83,0,0,1,27,94v2.14h-.57V94a.85.85,0,0,0-.19-.62.67.67,0,0,0-.52-.2.92.92,0,0,0-.48.14.73.73,0,0,0-.32.35,1.75,1.75,0,0,0-.09.63v1.84Z" transform="translate(1.43 -22.39)"/><path class="cls-4" d="M27.67,94.46a1.72,1.72,0,0,1,.52-1.38,1.57,1.57,0,0,1,1.06-.38,1.48,1.48,0,0,1,1.13.46,1.7,1.7,0,0,1,.45,1.26,2.22,2.22,0,0,1-.2,1,1.39,1.39,0,0,1-.57.58,1.63,1.63,0,0,1-.81.21,1.56,1.56,0,0,1-1.15-.46A1.82,1.82,0,0,1,27.67,94.46Zm.58,0a1.41,1.41,0,0,0,.29,1,.89.89,0,0,0,.71.33.91.91,0,0,0,.71-.33,1.49,1.49,0,0,0,.28-1,1.38,1.38,0,0,0-.29-1,.94.94,0,0,0-1.41,0A1.39,1.39,0,0,0,28.25,94.46Z" transform="translate(1.43 -22.39)"/><path class="cls-4" d="M31.49,96.15V92.78H32v.51a1.31,1.31,0,0,1,.37-.47.6.6,0,0,1,.36-.12,1.06,1.06,0,0,1,.59.19l-.2.53a.76.76,0,0,0-.42-.13.52.52,0,0,0-.33.12.54.54,0,0,0-.21.31,2,2,0,0,0-.1.66v1.77Z" transform="translate(1.43 -22.39)"/><path class="cls-4" d="M34.91,95.64l.08.5a1.72,1.72,0,0,1-.43,0,1,1,0,0,1-.48-.09.62.62,0,0,1-.25-.26,2.27,2.27,0,0,1-.07-.68V93.22h-.41v-.44h.41v-.84l.57-.34v1.18h.58v.44h-.58v2a1,1,0,0,0,0,.32.35.35,0,0,0,.1.11.37.37,0,0,0,.2,0Z" transform="translate(1.43 -22.39)"/><path class="cls-4" d="M35.24,94.75v-.57H37v.57Z" transform="translate(1.43 -22.39)"/><path class="cls-4" d="M22.19,104.38V104a1,1,0,0,1-1,.5,1.33,1.33,0,0,1-.74-.22,1.45,1.45,0,0,1-.52-.62,2.22,2.22,0,0,1-.19-.92,2.42,2.42,0,0,1,.17-.91,1.24,1.24,0,0,1,.51-.63,1.3,1.3,0,0,1,.75-.22,1.08,1.08,0,0,1,.54.13,1,1,0,0,1,.39.33V99.72h.57v4.66Zm-1.81-1.69a1.48,1.48,0,0,0,.27,1,.82.82,0,0,0,.65.32.8.8,0,0,0,.63-.3,1.41,1.41,0,0,0,.27-.94,1.54,1.54,0,0,0-.27-1,.82.82,0,0,0-.66-.33.81.81,0,0,0-.63.31A1.55,1.55,0,0,0,20.38,102.69Z" transform="translate(1.43 -22.39)"/><path class="cls-4" d="M25.82,104.38v-.5a1.23,1.23,0,0,1-1.07.57,1.46,1.46,0,0,1-.55-.11.93.93,0,0,1-.39-.29,1.13,1.13,0,0,1-.17-.42,2.4,2.4,0,0,1,0-.54V101h.57v1.87a2.79,2.79,0,0,0,0,.61.54.54,0,0,0,.23.35.67.67,0,0,0,.43.13.91.91,0,0,0,.48-.13.74.74,0,0,0,.32-.36,1.86,1.86,0,0,0,.09-.66V101h.57v3.38Z" transform="translate(1.43 -22.39)"/><path class="cls-4" d="M27.22,104.38V101h.52v.52a1.47,1.47,0,0,1,.36-.48.67.67,0,0,1,.37-.11,1.09,1.09,0,0,1,.58.18l-.19.53a.84.84,0,0,0-.42-.12.58.58,0,0,0-.34.11.62.62,0,0,0-.21.31,2.41,2.41,0,0,0-.1.67v1.77Z" transform="translate(1.43 -22.39)"/><path class="cls-4" d="M31.59,104a2,2,0,0,1-.61.38,1.81,1.81,0,0,1-.63.11,1.22,1.22,0,0,1-.85-.27.89.89,0,0,1-.3-.69,1,1,0,0,1,.11-.46,1,1,0,0,1,.3-.32,1.18,1.18,0,0,1,.41-.19,4.17,4.17,0,0,1,.51-.09,5.49,5.49,0,0,0,1-.19v-.15a.6.6,0,0,0-.16-.49,1,1,0,0,0-.65-.2,1.06,1.06,0,0,0-.6.14.86.86,0,0,0-.28.5L29.3,102a1.29,1.29,0,0,1,.25-.58,1.09,1.09,0,0,1,.5-.34,2.26,2.26,0,0,1,.77-.12,2,2,0,0,1,.7.1.93.93,0,0,1,.4.26,1,1,0,0,1,.18.39c0,.09,0,.27,0,.52V103a8.82,8.82,0,0,0,0,1,1.25,1.25,0,0,0,.14.41h-.59A1.29,1.29,0,0,1,31.59,104Zm0-1.28a4,4,0,0,1-.94.22,2.25,2.25,0,0,0-.5.11.59.59,0,0,0-.22.19.5.5,0,0,0,.09.65.78.78,0,0,0,.51.15,1.15,1.15,0,0,0,.59-.14.92.92,0,0,0,.37-.39,1.26,1.26,0,0,0,.1-.58Z" transform="translate(1.43 -22.39)"/><path class="cls-4" d="M34.26,103.87l.08.5a2.47,2.47,0,0,1-.43,0,.9.9,0,0,1-.48-.1.53.53,0,0,1-.25-.26,2.19,2.19,0,0,1-.07-.67v-1.94H32.7V101h.41v-.83l.57-.34V101h.58v.45h-.58v2a1,1,0,0,0,0,.31.29.29,0,0,0,.1.12.5.5,0,0,0,.2,0Z" transform="translate(1.43 -22.39)"/><path class="cls-4" d="M34.82,100.38v-.66h.57v.66Zm0,4V101h.57v3.38Z" transform="translate(1.43 -22.39)"/><path class="cls-4" d="M36.05,102.69a1.74,1.74,0,0,1,.52-1.39,1.56,1.56,0,0,1,1.06-.37,1.51,1.51,0,0,1,1.13.45,1.73,1.73,0,0,1,.44,1.26,2.25,2.25,0,0,1-.19,1,1.44,1.44,0,0,1-.57.58,1.73,1.73,0,0,1-.81.2,1.54,1.54,0,0,1-1.15-.45A1.83,1.83,0,0,1,36.05,102.69Zm.58,0a1.44,1.44,0,0,0,.29,1,.87.87,0,0,0,.71.32.89.89,0,0,0,.7-.32,1.48,1.48,0,0,0,.29-1,1.4,1.4,0,0,0-.29-1,.94.94,0,0,0-1.41,0A1.44,1.44,0,0,0,36.63,102.69Z" transform="translate(1.43 -22.39)"/><path class="cls-4" d="M39.87,104.38V101h.52v.48a1.2,1.2,0,0,1,1.07-.55A1.47,1.47,0,0,1,42,101a.82.82,0,0,1,.38.29.94.94,0,0,1,.18.42,3.37,3.37,0,0,1,0,.55v2.08H42v-2a1.75,1.75,0,0,0-.06-.53.62.62,0,0,0-.24-.27.75.75,0,0,0-.4-.11.92.92,0,0,0-.63.24,1.1,1.1,0,0,0-.26.87v1.85Z" transform="translate(1.43 -22.39)"/><path class="cls-4" d="M19.79,112.18V108.8h.52v.52a1.47,1.47,0,0,1,.36-.48.67.67,0,0,1,.37-.11,1.09,1.09,0,0,1,.58.18l-.19.53a.84.84,0,0,0-.42-.12.58.58,0,0,0-.34.11.62.62,0,0,0-.21.31,2.41,2.41,0,0,0-.1.67v1.77Z" transform="translate(1.43 -22.39)"/><path class="cls-4" d="M24.17,112.18v-.5a1.23,1.23,0,0,1-1.07.57,1.46,1.46,0,0,1-.55-.11.93.93,0,0,1-.39-.29,1.13,1.13,0,0,1-.17-.42,2.4,2.4,0,0,1,0-.54V108.8h.57v1.87a2.79,2.79,0,0,0,0,.61.54.54,0,0,0,.23.35.67.67,0,0,0,.43.13.91.91,0,0,0,.48-.13.74.74,0,0,0,.32-.36,1.86,1.86,0,0,0,.09-.66V108.8h.57v3.38Z" transform="translate(1.43 -22.39)"/><path class="cls-4" d="M25.58,112.18V108.8h.51v.48a1.22,1.22,0,0,1,1.08-.55,1.47,1.47,0,0,1,.56.11.88.88,0,0,1,.38.29,1.24,1.24,0,0,1,.18.42,3.37,3.37,0,0,1,0,.55v2.08h-.57v-2.05a1.69,1.69,0,0,0-.07-.53.52.52,0,0,0-.24-.27.71.71,0,0,0-.39-.11.88.88,0,0,0-.63.24,1.1,1.1,0,0,0-.27.87v1.85Z" transform="translate(1.43 -22.39)"/><path class="cls-4" d="M29.19,112.18V108.8h.52v.48a1.2,1.2,0,0,1,1.07-.55,1.47,1.47,0,0,1,.56.11.82.82,0,0,1,.38.29.94.94,0,0,1,.18.42,3.37,3.37,0,0,1,0,.55v2.08h-.57v-2.05a1.75,1.75,0,0,0-.06-.53.62.62,0,0,0-.24-.27.75.75,0,0,0-.4-.11.92.92,0,0,0-.63.24,1.1,1.1,0,0,0-.26.87v1.85Z" transform="translate(1.43 -22.39)"/><path class="cls-4" d="M32.81,108.18v-.66h.57v.66Zm0,4V108.8h.57v3.38Z" transform="translate(1.43 -22.39)"/><path class="cls-4" d="M34.25,112.18V108.8h.52v.48a1.2,1.2,0,0,1,1.07-.55,1.47,1.47,0,0,1,.56.11.82.82,0,0,1,.38.29.94.94,0,0,1,.18.42,3.37,3.37,0,0,1,0,.55v2.08h-.57v-2.05a1.44,1.44,0,0,0-.07-.53.54.54,0,0,0-.23-.27.77.77,0,0,0-.4-.11.92.92,0,0,0-.63.24,1.1,1.1,0,0,0-.27.87v1.85Z" transform="translate(1.43 -22.39)"/><path class="cls-4" d="M37.76,112.45l.56.09a.53.53,0,0,0,.19.37.93.93,0,0,0,.58.16,1,1,0,0,0,.62-.16.76.76,0,0,0,.29-.44,3.89,3.89,0,0,0,0-.74,1.16,1.16,0,0,1-.93.45,1.26,1.26,0,0,1-1.08-.51,1.93,1.93,0,0,1-.38-1.2,2.35,2.35,0,0,1,.17-.89,1.46,1.46,0,0,1,.51-.63,1.35,1.35,0,0,1,.78-.22,1.2,1.2,0,0,1,1,.48v-.41h.53v2.92a2.7,2.7,0,0,1-.16,1.11,1.16,1.16,0,0,1-.51.52,1.72,1.72,0,0,1-.85.19,1.63,1.63,0,0,1-1-.27A.93.93,0,0,1,37.76,112.45Zm.48-2a1.44,1.44,0,0,0,.26,1,.88.88,0,0,0,1.32,0,1.4,1.4,0,0,0,.27-1,1.34,1.34,0,0,0-.28-.93.84.84,0,0,0-.66-.32.86.86,0,0,0-.65.31A1.42,1.42,0,0,0,38.24,110.43Z" transform="translate(1.43 -22.39)"/><path class="cls-4" d="M43.41,112.18V108.8h.52v.52a1.47,1.47,0,0,1,.36-.48.67.67,0,0,1,.37-.11,1.09,1.09,0,0,1,.58.18l-.19.53a.84.84,0,0,0-.42-.12.58.58,0,0,0-.34.11.62.62,0,0,0-.21.31,2.41,2.41,0,0,0-.1.67v1.77Z" transform="translate(1.43 -22.39)"/><path class="cls-4" d="M47.78,111.76a2,2,0,0,1-.61.38,1.81,1.81,0,0,1-.63.11,1.22,1.22,0,0,1-.85-.27.89.89,0,0,1-.3-.69,1,1,0,0,1,.11-.46,1,1,0,0,1,.3-.32,1.18,1.18,0,0,1,.41-.19,4.17,4.17,0,0,1,.51-.09,5.49,5.49,0,0,0,1-.19v-.15a.6.6,0,0,0-.16-.49,1,1,0,0,0-.65-.2,1.06,1.06,0,0,0-.6.14.86.86,0,0,0-.28.5l-.56-.07a1.29,1.29,0,0,1,.25-.58,1.09,1.09,0,0,1,.5-.34,2.26,2.26,0,0,1,.77-.12,2,2,0,0,1,.7.1.93.93,0,0,1,.4.26.87.87,0,0,1,.17.39,2.94,2.94,0,0,1,0,.52v.76a8.82,8.82,0,0,0,0,1,1.25,1.25,0,0,0,.14.41H47.9A1.29,1.29,0,0,1,47.78,111.76Zm0-1.28a4,4,0,0,1-.94.22,2.25,2.25,0,0,0-.5.11.59.59,0,0,0-.22.19.5.5,0,0,0,.09.65.78.78,0,0,0,.51.15,1.17,1.17,0,0,0,.59-.14.92.92,0,0,0,.37-.39,1.26,1.26,0,0,0,.1-.58Z" transform="translate(1.43 -22.39)"/><path class="cls-4" d="M49.2,112.18V108.8h.51v.48a1.22,1.22,0,0,1,1.08-.55,1.47,1.47,0,0,1,.56.11.88.88,0,0,1,.38.29,1.24,1.24,0,0,1,.18.42,3.37,3.37,0,0,1,0,.55v2.08h-.57v-2.05a1.69,1.69,0,0,0-.07-.53.52.52,0,0,0-.24-.27.71.71,0,0,0-.39-.11.93.93,0,0,0-.64.24,1.14,1.14,0,0,0-.26.87v1.85Z" transform="translate(1.43 -22.39)"/><path class="cls-4" d="M52.71,112.45l.55.09a.54.54,0,0,0,.2.37.91.91,0,0,0,.58.16,1,1,0,0,0,.61-.16.72.72,0,0,0,.29-.44,3.17,3.17,0,0,0,0-.74,1.15,1.15,0,0,1-.93.45,1.25,1.25,0,0,1-1.07-.51,1.88,1.88,0,0,1-.39-1.2,2.18,2.18,0,0,1,.18-.89,1.39,1.39,0,0,1,.51-.63,1.34,1.34,0,0,1,.77-.22,1.22,1.22,0,0,1,1,.48v-.41h.53v2.92a2.88,2.88,0,0,1-.16,1.11,1.16,1.16,0,0,1-.51.52,1.74,1.74,0,0,1-.86.19,1.61,1.61,0,0,1-1-.27A.91.91,0,0,1,52.71,112.45Zm.47-2a1.44,1.44,0,0,0,.27,1,.83.83,0,0,0,.66.3.85.85,0,0,0,.66-.3,1.46,1.46,0,0,0,.26-1,1.39,1.39,0,0,0-.27-.93.87.87,0,0,0-.66-.32.84.84,0,0,0-.65.31A1.37,1.37,0,0,0,53.18,110.43Z" transform="translate(1.43 -22.39)"/><path class="cls-4" d="M58.74,111.09l.59.07a1.49,1.49,0,0,1-.52.81,1.78,1.78,0,0,1-2.14-.17,1.79,1.79,0,0,1-.43-1.28,1.82,1.82,0,0,1,.44-1.32,1.49,1.49,0,0,1,1.13-.47,1.45,1.45,0,0,1,1.11.46,1.86,1.86,0,0,1,.43,1.29s0,.09,0,.16H56.83a1.28,1.28,0,0,0,.31.85,1,1,0,0,0,.71.29.84.84,0,0,0,.53-.16A1.13,1.13,0,0,0,58.74,111.09Zm-1.88-.92h1.88a1.08,1.08,0,0,0-.21-.64.89.89,0,0,0-.71-.33.93.93,0,0,0-.66.26A1.05,1.05,0,0,0,56.86,110.17Z" transform="translate(1.43 -22.39)"/><polygon class="cls-6" points="60.21 114.38 20.56 114.38 20.56 97.8 48.91 98.29 60.21 104.46 60.21 114.38"/><path class="cls-4" d="M23.42,125.42l.62.15a2.07,2.07,0,0,1-.7,1.16,1.88,1.88,0,0,1-1.23.4,2.14,2.14,0,0,1-1.22-.31,1.91,1.91,0,0,1-.72-.88,3.27,3.27,0,0,1-.24-1.25,2.8,2.8,0,0,1,.27-1.27,2,2,0,0,1,.79-.82,2.28,2.28,0,0,1,1.13-.28,2,2,0,0,1,1.18.35,1.92,1.92,0,0,1,.66,1l-.61.15a1.4,1.4,0,0,0-.47-.74,1.2,1.2,0,0,0-.77-.24,1.52,1.52,0,0,0-.9.26,1.3,1.3,0,0,0-.5.69,2.73,2.73,0,0,0-.15.89,2.94,2.94,0,0,0,.17,1,1.28,1.28,0,0,0,.54.66,1.47,1.47,0,0,0,.79.22,1.32,1.32,0,0,0,.88-.3A1.48,1.48,0,0,0,23.42,125.42Z" transform="translate(1.43 -22.39)"/><path class="cls-4" d="M24.51,125.36A1.72,1.72,0,0,1,25,124a1.57,1.57,0,0,1,1.06-.38,1.51,1.51,0,0,1,1.14.46,1.74,1.74,0,0,1,.44,1.26,2.22,2.22,0,0,1-.2,1,1.42,1.42,0,0,1-.56.58,1.64,1.64,0,0,1-.82.21,1.52,1.52,0,0,1-1.14-.46A1.82,1.82,0,0,1,24.51,125.36Zm.59,0a1.41,1.41,0,0,0,.28,1,.91.91,0,0,0,.71.33.89.89,0,0,0,.71-.33,1.43,1.43,0,0,0,.28-1,1.38,1.38,0,0,0-.28-.95.95.95,0,0,0-1.42,0A1.39,1.39,0,0,0,25.1,125.36Z" transform="translate(1.43 -22.39)"/><path class="cls-4" d="M28.34,127.05v-3.37h.51v.48a1.23,1.23,0,0,1,1.08-.56,1.51,1.51,0,0,1,.56.11,1,1,0,0,1,.38.29,1.33,1.33,0,0,1,.18.42,3.51,3.51,0,0,1,0,.56v2.07h-.57v-2a1.62,1.62,0,0,0-.07-.52.55.55,0,0,0-.24-.28.72.72,0,0,0-.4-.1,1,1,0,0,0-.63.23,1.17,1.17,0,0,0-.26.88v1.84Z" transform="translate(1.43 -22.39)"/><path class="cls-4" d="M33.2,126.54l.08.5a1.72,1.72,0,0,1-.43,0,1,1,0,0,1-.48-.09.54.54,0,0,1-.24-.26,2,2,0,0,1-.07-.68v-1.94h-.42v-.44h.42v-.84l.57-.34v1.18h.57v.44h-.57v2a1,1,0,0,0,0,.32.26.26,0,0,0,.1.11.34.34,0,0,0,.19,0Z" transform="translate(1.43 -22.39)"/><path class="cls-4" d="M33.76,123.05v-.65h.57v.65Zm0,4v-3.37h.57v3.37Z" transform="translate(1.43 -22.39)"/><path class="cls-4" d="M35.2,127.05v-3.37h.52v.48a1.21,1.21,0,0,1,1.07-.56,1.47,1.47,0,0,1,.56.11.89.89,0,0,1,.38.29,1,1,0,0,1,.18.42,3.51,3.51,0,0,1,0,.56v2.07h-.57v-2a1.67,1.67,0,0,0-.06-.52.6.6,0,0,0-.24-.28.77.77,0,0,0-.4-.1,1,1,0,0,0-.63.23,1.13,1.13,0,0,0-.26.88v1.84Z" transform="translate(1.43 -22.39)"/><path class="cls-4" d="M41,127.05v-.5a1.22,1.22,0,0,1-1.07.58,1.31,1.31,0,0,1-.56-.12.82.82,0,0,1-.38-.29.9.9,0,0,1-.18-.42,3.33,3.33,0,0,1,0-.53v-2.09h.57v1.87a3.77,3.77,0,0,0,0,.6.57.57,0,0,0,.23.35.69.69,0,0,0,.43.13,1,1,0,0,0,.49-.13.77.77,0,0,0,.31-.36,1.63,1.63,0,0,0,.1-.66v-1.8h.57v3.37Z" transform="translate(1.43 -22.39)"/><path class="cls-4" d="M42.22,125.36a1.72,1.72,0,0,1,.52-1.38,1.57,1.57,0,0,1,1.06-.38,1.51,1.51,0,0,1,1.14.46,1.74,1.74,0,0,1,.44,1.26,2.22,2.22,0,0,1-.2,1,1.39,1.39,0,0,1-.57.58,1.58,1.58,0,0,1-.81.21,1.52,1.52,0,0,1-1.14-.46A1.82,1.82,0,0,1,42.22,125.36Zm.59,0a1.41,1.41,0,0,0,.28,1,.91.91,0,0,0,.71.33.89.89,0,0,0,.71-.33,1.43,1.43,0,0,0,.28-1,1.38,1.38,0,0,0-.28-.95.95.95,0,0,0-1.42,0A1.39,1.39,0,0,0,42.81,125.36Z" transform="translate(1.43 -22.39)"/><path class="cls-4" d="M48.26,127.05v-.5a1.22,1.22,0,0,1-1.07.58,1.31,1.31,0,0,1-.56-.12.82.82,0,0,1-.38-.29.9.9,0,0,1-.18-.42,3.33,3.33,0,0,1,0-.53v-2.09h.57v1.87a3.77,3.77,0,0,0,0,.6.57.57,0,0,0,.23.35.69.69,0,0,0,.43.13,1,1,0,0,0,.49-.13.77.77,0,0,0,.31-.36,1.63,1.63,0,0,0,.1-.66v-1.8h.57v3.37Z" transform="translate(1.43 -22.39)"/><path class="cls-4" d="M49.44,126,50,126a.79.79,0,0,0,.26.52.89.89,0,0,0,.61.19.94.94,0,0,0,.59-.16.52.52,0,0,0,.19-.38.37.37,0,0,0-.17-.31,2.66,2.66,0,0,0-.58-.19,6.08,6.08,0,0,1-.88-.27.87.87,0,0,1-.36-.32.82.82,0,0,1-.13-.46.8.8,0,0,1,.1-.41,1,1,0,0,1,.28-.32,1.16,1.16,0,0,1,.37-.17,1.93,1.93,0,0,1,.49-.07,1.86,1.86,0,0,1,.7.12.88.88,0,0,1,.44.31,1.18,1.18,0,0,1,.2.52l-.56.07a.64.64,0,0,0-.22-.4.79.79,0,0,0-.52-.15,1,1,0,0,0-.56.13.4.4,0,0,0-.17.31.37.37,0,0,0,.07.2.53.53,0,0,0,.22.15l.51.15a5.85,5.85,0,0,1,.84.26.88.88,0,0,1,.38.3.83.83,0,0,1,.13.49,1,1,0,0,1-.16.54,1,1,0,0,1-.48.39,1.8,1.8,0,0,1-.71.14,1.62,1.62,0,0,1-1-.28A1.23,1.23,0,0,1,49.44,126Z" transform="translate(1.43 -22.39)"/><path class="cls-4" d="M20,134.85v-3.37h.52V132a1.31,1.31,0,0,1,.36-.47.61.61,0,0,1,.37-.12,1,1,0,0,1,.58.19l-.19.53a.76.76,0,0,0-.42-.13.52.52,0,0,0-.34.12.54.54,0,0,0-.21.31,2.28,2.28,0,0,0-.1.66v1.77Z" transform="translate(1.43 -22.39)"/><path class="cls-4" d="M24.4,134.85v-.5a1.22,1.22,0,0,1-1.07.58,1.26,1.26,0,0,1-.55-.12.85.85,0,0,1-.39-.29,1,1,0,0,1-.17-.42,2.3,2.3,0,0,1,0-.53v-2.09h.57v1.87a2.63,2.63,0,0,0,0,.6.54.54,0,0,0,.23.35.67.67,0,0,0,.43.13.91.91,0,0,0,.48-.13.74.74,0,0,0,.32-.36,1.86,1.86,0,0,0,.09-.66v-1.8h.57v3.37Z" transform="translate(1.43 -22.39)"/><path class="cls-4" d="M25.81,134.85v-3.37h.51V132a1.23,1.23,0,0,1,1.08-.56,1.47,1.47,0,0,1,.56.11,1,1,0,0,1,.38.29,1.33,1.33,0,0,1,.18.42,3.51,3.51,0,0,1,0,.56v2.07H28v-2a1.62,1.62,0,0,0-.07-.52.5.5,0,0,0-.24-.28.71.71,0,0,0-.39-.1,1,1,0,0,0-.64.23,1.17,1.17,0,0,0-.26.88v1.84Z" transform="translate(1.43 -22.39)"/><path class="cls-4" d="M29.42,134.85v-3.37h.52V132A1.21,1.21,0,0,1,31,131.4a1.47,1.47,0,0,1,.56.11.89.89,0,0,1,.38.29,1,1,0,0,1,.18.42,3.51,3.51,0,0,1,0,.56v2.07h-.57v-2a1.38,1.38,0,0,0-.07-.52.53.53,0,0,0-.23-.28.74.74,0,0,0-.4-.1,1,1,0,0,0-.63.23A1.13,1.13,0,0,0,30,133v1.84Z" transform="translate(1.43 -22.39)"/><path class="cls-4" d="M33,130.85v-.65h.57v.65Zm0,4v-3.37h.57v3.37Z" transform="translate(1.43 -22.39)"/><path class="cls-4" d="M34.48,134.85v-3.37H35V132a1.2,1.2,0,0,1,1.07-.56,1.47,1.47,0,0,1,.56.11.89.89,0,0,1,.38.29,1,1,0,0,1,.18.42,3.51,3.51,0,0,1,0,.56v2.07h-.57v-2a1.38,1.38,0,0,0-.07-.52.53.53,0,0,0-.23-.28.77.77,0,0,0-.4-.1,1,1,0,0,0-.63.23,1.13,1.13,0,0,0-.27.88v1.84Z" transform="translate(1.43 -22.39)"/><path class="cls-4" d="M38,135.13l.56.08a.56.56,0,0,0,.19.38,1,1,0,0,0,.58.15,1.09,1.09,0,0,0,.62-.15.82.82,0,0,0,.29-.45,3.76,3.76,0,0,0,0-.73,1.18,1.18,0,0,1-.93.44,1.28,1.28,0,0,1-1.08-.5,2,2,0,0,1-.38-1.2,2.4,2.4,0,0,1,.17-.9,1.46,1.46,0,0,1,.51-.63,1.43,1.43,0,0,1,.78-.22,1.19,1.19,0,0,1,1,.49v-.41h.53v2.91a2.72,2.72,0,0,1-.16,1.12,1.22,1.22,0,0,1-.51.52,1.81,1.81,0,0,1-.85.19,1.63,1.63,0,0,1-1-.27A1,1,0,0,1,38,135.13Zm.48-2a1.43,1.43,0,0,0,.26,1,.86.86,0,0,0,.66.31.83.83,0,0,0,.66-.31,1.74,1.74,0,0,0,0-1.88.83.83,0,0,0-.66-.31.85.85,0,0,0-.65.3A1.44,1.44,0,0,0,38.47,133.1Z" transform="translate(1.43 -22.39)"/><path class="cls-4" d="M43.51,134.85v-3.37H44V132a1.31,1.31,0,0,1,.36-.47.61.61,0,0,1,.37-.12,1,1,0,0,1,.58.19l-.19.53a.76.76,0,0,0-.42-.13.52.52,0,0,0-.34.12.54.54,0,0,0-.21.31,2.28,2.28,0,0,0-.1.66v1.77Z" transform="translate(1.43 -22.39)"/><path class="cls-4" d="M47.88,134.43a2,2,0,0,1-.61.38,1.61,1.61,0,0,1-.63.12,1.18,1.18,0,0,1-.85-.28.89.89,0,0,1-.3-.69.92.92,0,0,1,.41-.78,1.72,1.72,0,0,1,.41-.19,3,3,0,0,1,.51-.08,5.33,5.33,0,0,0,1-.2v-.15a.61.61,0,0,0-.16-.49,1,1,0,0,0-.65-.19,1,1,0,0,0-.6.14.83.83,0,0,0-.28.5l-.56-.08a1.34,1.34,0,0,1,.25-.58,1.09,1.09,0,0,1,.5-.34,2.26,2.26,0,0,1,.77-.12,2.21,2.21,0,0,1,.7.1,1,1,0,0,1,.4.26.87.87,0,0,1,.17.39,3.08,3.08,0,0,1,0,.53v.76a6.72,6.72,0,0,0,0,1,1.17,1.17,0,0,0,.14.41H48A1.29,1.29,0,0,1,47.88,134.43Zm0-1.27a4.63,4.63,0,0,1-.94.21,2.81,2.81,0,0,0-.5.12.49.49,0,0,0-.22.18.56.56,0,0,0-.08.27.52.52,0,0,0,.17.39.78.78,0,0,0,.51.15,1.18,1.18,0,0,0,.59-.15.82.82,0,0,0,.37-.39,1.24,1.24,0,0,0,.1-.57Z" transform="translate(1.43 -22.39)"/><path class="cls-4" d="M49.3,134.85v-3.37h.51V132a1.23,1.23,0,0,1,1.08-.56,1.51,1.51,0,0,1,.56.11,1,1,0,0,1,.38.29,1.33,1.33,0,0,1,.18.42,3.51,3.51,0,0,1,0,.56v2.07h-.57v-2a1.62,1.62,0,0,0-.07-.52.55.55,0,0,0-.24-.28.72.72,0,0,0-.4-.1,1,1,0,0,0-.63.23,1.17,1.17,0,0,0-.26.88v1.84Z" transform="translate(1.43 -22.39)"/><path class="cls-4" d="M52.81,135.13l.55.08a.56.56,0,0,0,.2.38,1,1,0,0,0,.58.15,1.06,1.06,0,0,0,.61-.15.77.77,0,0,0,.29-.45,3.07,3.07,0,0,0,0-.73,1.18,1.18,0,0,1-.93.44,1.27,1.27,0,0,1-1.07-.5,1.92,1.92,0,0,1-.39-1.2,2.23,2.23,0,0,1,.18-.9,1.44,1.44,0,0,1,.5-.63,1.48,1.48,0,0,1,.78-.22,1.2,1.2,0,0,1,1,.49v-.41h.52v2.91a3,3,0,0,1-.15,1.12A1.22,1.22,0,0,1,55,136a1.88,1.88,0,0,1-.86.19,1.61,1.61,0,0,1-1-.27A.93.93,0,0,1,52.81,135.13Zm.47-2a1.48,1.48,0,0,0,.26,1,.87.87,0,0,0,.67.31.83.83,0,0,0,.66-.31,1.46,1.46,0,0,0,.26-.95,1.39,1.39,0,0,0-.27-.93.86.86,0,0,0-.66-.31.83.83,0,0,0-.65.3A1.38,1.38,0,0,0,53.28,133.1Z" transform="translate(1.43 -22.39)"/><path class="cls-4" d="M58.84,133.76l.59.08a1.5,1.5,0,0,1-.52.8,1.74,1.74,0,0,1-2.14-.17,1.77,1.77,0,0,1-.43-1.28,1.85,1.85,0,0,1,.44-1.32,1.58,1.58,0,0,1,2.24,0,1.87,1.87,0,0,1,.43,1.3s0,.08,0,.15H56.93a1.28,1.28,0,0,0,.31.85.94.94,0,0,0,.71.3.84.84,0,0,0,.53-.17A1.08,1.08,0,0,0,58.84,133.76ZM57,132.84h1.88a1.18,1.18,0,0,0-.21-.64.93.93,0,0,0-1.37-.06A1,1,0,0,0,57,132.84Z" transform="translate(1.43 -22.39)"/><path class="cls-4" d="M3.22,98.27H-.88V99.8h-.55V96.11h.55v1.54h4.1Z" transform="translate(1.43 -22.39)"/><path class="cls-4" d="M1.54,95.77a1.73,1.73,0,0,1-1.39-.52,1.58,1.58,0,0,1-.37-1.06,1.53,1.53,0,0,1,.45-1.14,1.74,1.74,0,0,1,1.26-.44,2.22,2.22,0,0,1,1,.2,1.42,1.42,0,0,1,.58.56,1.64,1.64,0,0,1,.21.82,1.48,1.48,0,0,1-.46,1.14A1.79,1.79,0,0,1,1.54,95.77Zm0-.59a1.44,1.44,0,0,0,1-.28.93.93,0,0,0,.32-.71.91.91,0,0,0-.32-.71,1.48,1.48,0,0,0-1-.28,1.4,1.4,0,0,0-.95.28.95.95,0,0,0,0,1.42A1.42,1.42,0,0,0,1.54,95.18Z" transform="translate(1.43 -22.39)"/><path class="cls-4" d="M3.22,92H-.15v-.52H.36a1.41,1.41,0,0,1-.47-.36.6.6,0,0,1-.11-.37A1.09,1.09,0,0,1,0,90.12l.53.19a.84.84,0,0,0-.12.42.51.51,0,0,0,.11.34.58.58,0,0,0,.31.21,2.35,2.35,0,0,0,.67.1H3.22Z" transform="translate(1.43 -22.39)"/><path class="cls-4" d="M4.51,87.63H2.86a1,1,0,0,1,.31.37,1,1,0,0,1,.13.51,1.34,1.34,0,0,1-.48,1A1.89,1.89,0,0,1,1.51,90a2.25,2.25,0,0,1-.92-.18A1.4,1.4,0,0,1,0,89.29a1.35,1.35,0,0,1-.2-.74,1.13,1.13,0,0,1,.52-1H-.15v-.51H4.51Zm-3,1.76a1.48,1.48,0,0,0,1-.27.84.84,0,0,0,.33-.66.8.8,0,0,0-.31-.63,1.46,1.46,0,0,0-.94-.26,1.52,1.52,0,0,0-1,.28.8.8,0,0,0-.34.65.78.78,0,0,0,.31.63A1.56,1.56,0,0,0,1.53,89.39Z" transform="translate(1.43 -22.39)"/><path class="cls-4" d="M3.22,84H2.73A1.23,1.23,0,0,1,3.3,85a1.31,1.31,0,0,1-.12.56A.88.88,0,0,1,2.9,86a1,1,0,0,1-.43.18,3.33,3.33,0,0,1-.53,0H-.15V85.6H1.72a3.77,3.77,0,0,0,.6,0,.63.63,0,0,0,.36-.23.75.75,0,0,0,.13-.43,1,1,0,0,0-.13-.48.7.7,0,0,0-.36-.32,1.66,1.66,0,0,0-.66-.1H-.15v-.57H3.22Z" transform="translate(1.43 -22.39)"/><path class="cls-4" d="M2.14,80.24l.07-.59a1.39,1.39,0,0,1,.8.52,1.54,1.54,0,0,1,.29,1,1.52,1.52,0,0,1-.46,1.17,1.77,1.77,0,0,1-1.27.44A1.86,1.86,0,0,1,.25,82.3a1.46,1.46,0,0,1-.47-1.14,1.41,1.41,0,0,1,.46-1.1,1.78,1.78,0,0,1,1.29-.43h.15v2.52a1.27,1.27,0,0,0,.85-.32.92.92,0,0,0,.3-.7.89.89,0,0,0-.17-.54A1.09,1.09,0,0,0,2.14,80.24Zm-.93,1.87V80.23a1.14,1.14,0,0,0-.63.22.88.88,0,0,0-.33.71.89.89,0,0,0,.26.66A1,1,0,0,0,1.21,82.11Z" transform="translate(1.43 -22.39)"/><path class="cls-4" d="M4.51,77.11H-1.43V75.85H-1v.69H4v-.69h.47Z" transform="translate(1.43 -22.39)"/><path class="cls-4" d="M3.22,75.25H-1.43v-.63l3.65-2.44H-1.43v-.59H3.22v.63L-.43,74.66H3.22Z" transform="translate(1.43 -22.39)"/><path class="cls-4" d="M.94,70.71a.74.74,0,0,1-.56-.24.76.76,0,0,1-.24-.57.78.78,0,0,1,.24-.57.77.77,0,0,1,.56-.23.78.78,0,0,1,.57.23.78.78,0,0,1,.24.57.76.76,0,0,1-.24.57A.75.75,0,0,1,.94,70.71Z" transform="translate(1.43 -22.39)"/><path class="cls-4" d="M3.22,68.35H-.15v-.51H.32a1.31,1.31,0,0,1-.39-.42,1.21,1.21,0,0,1-.15-.6,1.16,1.16,0,0,1,.15-.62.84.84,0,0,1,.44-.34,1.18,1.18,0,0,1-.59-1,1,1,0,0,1,.27-.77,1.2,1.2,0,0,1,.86-.27H3.22v.57H1.1a1.42,1.42,0,0,0-.49.06.44.44,0,0,0-.25.2A.62.62,0,0,0,.27,65a.79.79,0,0,0,.24.59,1,1,0,0,0,.75.24h2v.57H1a.92.92,0,0,0-.57.14.51.51,0,0,0-.19.45.81.81,0,0,0,.13.45.74.74,0,0,0,.37.3,2.12,2.12,0,0,0,.7.09H3.22Z" transform="translate(1.43 -22.39)"/><path class="cls-4" d="M4.51,62v1.26H4v-.69H-1v.69h-.47V62Z" transform="translate(1.43 -22.39)"/><path class="cls-4" d="M44.76,150.56l.58-.06a1.32,1.32,0,0,0,.19.58,1,1,0,0,0,.47.36,1.8,1.8,0,0,0,.71.14,1.64,1.64,0,0,0,.62-.11.91.91,0,0,0,.41-.28.76.76,0,0,0,.13-.4.59.59,0,0,0-.13-.39.92.92,0,0,0-.42-.27c-.12,0-.4-.12-.83-.23a4.15,4.15,0,0,1-.89-.29,1.19,1.19,0,0,1-.5-.43,1.06,1.06,0,0,1-.16-.58,1.16,1.16,0,0,1,.2-.66,1.18,1.18,0,0,1,.58-.46,2.15,2.15,0,0,1,.85-.16,2.4,2.4,0,0,1,.92.16,1.35,1.35,0,0,1,.6.5,1.4,1.4,0,0,1,.23.73l-.59,0a1,1,0,0,0-.32-.66,1.24,1.24,0,0,0-.81-.23,1.3,1.3,0,0,0-.82.21.6.6,0,0,0-.25.49.52.52,0,0,0,.18.41,2.39,2.39,0,0,0,.93.33,7.58,7.58,0,0,1,1,.3,1.47,1.47,0,0,1,.6.47,1.19,1.19,0,0,1,.19.67,1.3,1.3,0,0,1-.21.7,1.4,1.4,0,0,1-.61.51,2.19,2.19,0,0,1-.9.18,2.76,2.76,0,0,1-1.06-.18,1.54,1.54,0,0,1-.67-.56A1.56,1.56,0,0,1,44.76,150.56Z" transform="translate(1.43 -22.39)"/><path class="cls-4" d="M49.23,153.34v-4.66h.52v.44a1.29,1.29,0,0,1,.42-.39,1.19,1.19,0,0,1,.56-.13,1.31,1.31,0,0,1,.76.23,1.29,1.29,0,0,1,.5.62,2.39,2.39,0,0,1,0,1.82,1.36,1.36,0,0,1-.54.64,1.45,1.45,0,0,1-.74.22,1.14,1.14,0,0,1-.52-.12,1.25,1.25,0,0,1-.37-.31v1.64Zm.52-3a1.46,1.46,0,0,0,.26,1,.82.82,0,0,0,1.29,0,2,2,0,0,0,0-2,.82.82,0,0,0-.64-.32.8.8,0,0,0-.64.34A1.52,1.52,0,0,0,49.75,150.38Z" transform="translate(1.43 -22.39)"/><path class="cls-4" d="M55.15,151l.59.07a1.39,1.39,0,0,1-.52.8,1.72,1.72,0,0,1-2.13-.17,1.77,1.77,0,0,1-.44-1.28,1.9,1.9,0,0,1,.44-1.32,1.49,1.49,0,0,1,1.14-.47,1.45,1.45,0,0,1,1.1.46,1.82,1.82,0,0,1,.43,1.3v.15H53.24a1.32,1.32,0,0,0,.32.85.92.92,0,0,0,.7.3.89.89,0,0,0,.54-.17A1.09,1.09,0,0,0,55.15,151ZM53.28,150h1.88a1.21,1.21,0,0,0-.22-.64.88.88,0,0,0-.71-.33.9.9,0,0,0-.66.27A1,1,0,0,0,53.28,150Z" transform="translate(1.43 -22.39)"/><path class="cls-4" d="M58.77,151l.59.07a1.5,1.5,0,0,1-.52.8,1.74,1.74,0,0,1-2.14-.17,1.77,1.77,0,0,1-.43-1.28,1.9,1.9,0,0,1,.44-1.32,1.58,1.58,0,0,1,2.24,0,1.87,1.87,0,0,1,.43,1.3s0,.08,0,.15H56.86a1.32,1.32,0,0,0,.31.85.94.94,0,0,0,.71.3.84.84,0,0,0,.53-.17A1.1,1.1,0,0,0,58.77,151ZM56.89,150h1.88a1.13,1.13,0,0,0-.21-.64.88.88,0,0,0-.71-.33.9.9,0,0,0-.66.27A1,1,0,0,0,56.89,150Z" transform="translate(1.43 -22.39)"/><path class="cls-4" d="M62.26,152.05v-.42a1.05,1.05,0,0,1-.94.5,1.3,1.3,0,0,1-.74-.23,1.41,1.41,0,0,1-.53-.62,2.17,2.17,0,0,1-.18-.91,2.29,2.29,0,0,1,.17-.92,1.37,1.37,0,0,1,.5-.63,1.43,1.43,0,0,1,.75-.22,1.21,1.21,0,0,1,.55.13,1.24,1.24,0,0,1,.38.34V147.4h.57v4.65Zm-1.8-1.68a1.5,1.5,0,0,0,.27,1,.82.82,0,0,0,.64.32.84.84,0,0,0,.64-.31,1.43,1.43,0,0,0,.26-.93,1.58,1.58,0,0,0-.27-1,.82.82,0,0,0-1.29,0A1.54,1.54,0,0,0,60.46,150.37Z" transform="translate(1.43 -22.39)"/><path class="cls-4" d="M65.51,153.34V147.4h1.26v.47h-.69v5h.69v.47Z" transform="translate(1.43 -22.39)"/><path class="cls-4" d="M67.29,152.05v-3.37h.52v.51a1.31,1.31,0,0,1,.36-.47.63.63,0,0,1,.37-.12,1.17,1.17,0,0,1,.59.19l-.2.53a.86.86,0,0,0-.42-.13.54.54,0,0,0-.34.12.58.58,0,0,0-.21.31,2.31,2.31,0,0,0-.09.67v1.76Z" transform="translate(1.43 -22.39)"/><path class="cls-4" d="M69,152.13l1.35-4.81h.45l-1.34,4.81Z" transform="translate(1.43 -22.39)"/><path class="cls-4" d="M71.27,152.05v-3.37h.51v.47a1.46,1.46,0,0,1,.42-.4,1.21,1.21,0,0,1,.6-.15,1.16,1.16,0,0,1,.62.16.86.86,0,0,1,.34.43,1.2,1.2,0,0,1,1-.59,1.05,1.05,0,0,1,.77.28,1.2,1.2,0,0,1,.27.86v2.31h-.57v-2.12a1.91,1.91,0,0,0,0-.5.49.49,0,0,0-.21-.24.62.62,0,0,0-.34-.09.79.79,0,0,0-.59.24,1,1,0,0,0-.23.75v2h-.58v-2.19a.92.92,0,0,0-.14-.57.51.51,0,0,0-.45-.19.81.81,0,0,0-.45.13.69.69,0,0,0-.29.37,1.85,1.85,0,0,0-.1.7v1.75Z" transform="translate(1.43 -22.39)"/><path class="cls-4" d="M76.69,148.05v-.65h.57v.65Zm0,4v-3.37h.57v3.37Z" transform="translate(1.43 -22.39)"/><path class="cls-4" d="M78.13,152.05v-3.37h.51v.48a1.23,1.23,0,0,1,1.08-.56,1.47,1.47,0,0,1,.56.11.89.89,0,0,1,.38.29,1.33,1.33,0,0,1,.18.42,3.51,3.51,0,0,1,0,.56v2.07H80.3V150a1.38,1.38,0,0,0-.07-.52.53.53,0,0,0-.23-.28.77.77,0,0,0-.4-.1.92.92,0,0,0-.63.23,1.13,1.13,0,0,0-.27.88v1.84Z" transform="translate(1.43 -22.39)"/><path class="cls-4" d="M82.7,153.34H81.44v-.47h.69v-5h-.69v-.47H82.7Z" transform="translate(1.43 -22.39)"/></g></svg>