<svg xmlns="http://www.w3.org/2000/svg" viewBox="0 0 117.99 131.16"><defs><style>.cls-1,.cls-3,.繝医Ν繧ｯ繧ｰ繝ｩ繝廟繧ｰ繝ｬ繝ｼ邱,.邱喟0\.5pt-5{fill:none;}.cls-1,.cls-3,.邱喟0\.5pt-5{stroke:#231815;}.cls-1{stroke-linejoin:round;stroke-width:0.14px;}.繝医Ν繧ｯ繧ｰ繝ｩ繝廟繧ｰ繝ｬ繝ｼ邱{stroke:#9fa0a0;stroke-width:3px;}.cls-2{fill:#231815;}.繝後Μ_逋ｽ-2{fill:#fff;}.邱喟0\.5pt-5{stroke-miterlimit:10;stroke-width:0.5px;}</style></defs><g id="Illust"><line class="cls-1" x1="47.07" y1="1.91" x2="47.07" y2="115.3"/><line class="cls-1" x1="101.49" y1="1.91" x2="101.49" y2="115.3"/><line class="cls-1" x1="74.28" y1="1.91" x2="74.28" y2="115.3"/><path class="cls-1" d="M18.43,126.15h90.7m-90.7-11.33h90.7M18.43,103.5h90.7M18.43,92.17h90.7M18.43,80.79h90.7M18.43,69.46h90.7M18.43,58.13h90.7M18.43,46.8h90.7M18.43,35.48h90.7" transform="translate(1.43 -22.19)"/><polyline class="繝医Ν繧ｯ繧ｰ繝ｩ繝廟繧ｰ繝ｬ繝ｼ邱" points="19.86 88.23 47.06 88.23 56.14 95.02 65.22 99.08 74.29 101.8 83.35 103.73 92.42 105.17 101.5 106.29 110.56 107.2"/><polyline class="繝医Ν繧ｯ繧ｰ繝ｩ繝廟繧ｰ繝ｬ繝ｼ邱" points="19.86 34.1 54.32 34.1 80.62 69.96 111.66 84.13"/><path class="cls-2" d="M10.23,137.35a3.2,3.2,0,0,1,.13-1,1.31,1.31,0,0,1,.39-.6,1.11,1.11,0,0,1,1.15-.09,1,1,0,0,1,.36.33,2,2,0,0,1,.22.53,3.3,3.3,0,0,1,.08.85,3.2,3.2,0,0,1-.13,1,1.27,1.27,0,0,1-.38.6,1,1,0,0,1-.65.21,1,1,0,0,1-.82-.37A2.43,2.43,0,0,1,10.23,137.35Zm.45,0a2.18,2.18,0,0,0,.21,1.17.59.59,0,0,0,.51.3.61.61,0,0,0,.51-.3,3.52,3.52,0,0,0,0-2.34.6.6,0,0,0-.52-.29.56.56,0,0,0-.48.25A2.28,2.28,0,0,0,10.68,137.35Z" transform="translate(1.43 -22.19)"/><path class="cls-2" d="M13.29,139.12v-.5h.5v.5Z" transform="translate(1.43 -22.19)"/><path class="cls-2" d="M14.43,137.35a3.52,3.52,0,0,1,.13-1,1.31,1.31,0,0,1,.39-.6,1,1,0,0,1,.65-.21,1.07,1.07,0,0,1,.51.12,1.13,1.13,0,0,1,.36.33,2.35,2.35,0,0,1,.22.53,3.82,3.82,0,0,1,.08.85,3.2,3.2,0,0,1-.13,1,1.36,1.36,0,0,1-.39.6,1,1,0,0,1-.65.21,1,1,0,0,1-.81-.37A2.35,2.35,0,0,1,14.43,137.35Zm.46,0a2.2,2.2,0,0,0,.2,1.17.58.58,0,0,0,1,0,3.36,3.36,0,0,0,0-2.34.6.6,0,0,0-.51-.29.56.56,0,0,0-.49.25A2.3,2.3,0,0,0,14.89,137.35Z" transform="translate(1.43 -22.19)"/><path class="cls-2" d="M11.88,127.78h-.43V125a3.28,3.28,0,0,1-.42.31,3.09,3.09,0,0,1-.46.22v-.42a3,3,0,0,0,.64-.42,2,2,0,0,0,.39-.48h.28Z" transform="translate(1.43 -22.19)"/><path class="cls-2" d="M13.29,127.78v-.5h.5v.5Z" transform="translate(1.43 -22.19)"/><path class="cls-2" d="M14.43,126a3.42,3.42,0,0,1,.13-1,1.31,1.31,0,0,1,.39-.6,1,1,0,0,1,.65-.21,1.07,1.07,0,0,1,.51.12.94.94,0,0,1,.36.33,2.17,2.17,0,0,1,.22.53,3.76,3.76,0,0,1,.08.85,3.09,3.09,0,0,1-.13,1,1.31,1.31,0,0,1-.39.6,1,1,0,0,1-.65.21,1,1,0,0,1-.81-.37A2.32,2.32,0,0,1,14.43,126Zm.46,0a2.2,2.2,0,0,0,.2,1.17.6.6,0,0,0,.51.29.62.62,0,0,0,.51-.29,3.39,3.39,0,0,0,0-2.35.62.62,0,0,0-.51-.29.57.57,0,0,0-.49.26A2.3,2.3,0,0,0,14.89,126Z" transform="translate(1.43 -22.19)"/><path class="cls-2" d="M12.54,116v.42H10.17a1,1,0,0,1,.05-.3,1.76,1.76,0,0,1,.29-.48,4.54,4.54,0,0,1,.58-.54,4.87,4.87,0,0,0,.79-.76,1,1,0,0,0,.2-.53.6.6,0,0,0-.18-.44.69.69,0,0,0-.49-.18.73.73,0,0,0-.51.19.7.7,0,0,0-.19.53l-.45,0a1.09,1.09,0,0,1,.35-.77,1.21,1.21,0,0,1,.81-.26,1.13,1.13,0,0,1,.81.28.94.94,0,0,1,.3.71,1.2,1.2,0,0,1-.08.42,1.57,1.57,0,0,1-.3.44,7.63,7.63,0,0,1-.67.63,5.24,5.24,0,0,0-.51.45,1.33,1.33,0,0,0-.19.24Z" transform="translate(1.43 -22.19)"/><path class="cls-2" d="M13.29,116.45V116h.5v.5Z" transform="translate(1.43 -22.19)"/><path class="cls-2" d="M14.43,114.69a3.54,3.54,0,0,1,.13-1,1.33,1.33,0,0,1,.39-.59,1,1,0,0,1,.65-.21,1.19,1.19,0,0,1,.51.11,1.06,1.06,0,0,1,.36.34,2,2,0,0,1,.22.53,3.76,3.76,0,0,1,.08.85,3.09,3.09,0,0,1-.13,1,1.31,1.31,0,0,1-.39.6,1,1,0,0,1-.65.21,1,1,0,0,1-.81-.37A2.32,2.32,0,0,1,14.43,114.69Zm.46,0a2.23,2.23,0,0,0,.2,1.17.59.59,0,0,0,1,0,3.39,3.39,0,0,0,0-2.35.62.62,0,0,0-.51-.29.57.57,0,0,0-.49.26A2.3,2.3,0,0,0,14.89,114.69Z" transform="translate(1.43 -22.19)"/><path class="cls-2" d="M10.23,104.17l.44-.06a1,1,0,0,0,.26.54.64.64,0,0,0,.44.17.75.75,0,0,0,.53-.22.72.72,0,0,0,.21-.53.68.68,0,0,0-.7-.7,1.4,1.4,0,0,0-.31,0l.05-.38h.07a.94.94,0,0,0,.5-.14.51.51,0,0,0,.23-.46.54.54,0,0,0-.17-.4.59.59,0,0,0-.42-.16.61.61,0,0,0-.43.17.77.77,0,0,0-.21.48l-.44-.08a1.1,1.1,0,0,1,.36-.68,1,1,0,0,1,.71-.25,1.2,1.2,0,0,1,.54.13.9.9,0,0,1,.38.34.87.87,0,0,1,.13.46.8.8,0,0,1-.12.43,1,1,0,0,1-.37.3.86.86,0,0,1,.49.3.93.93,0,0,1,.18.58,1,1,0,0,1-.35.79,1.17,1.17,0,0,1-.86.33,1.1,1.1,0,0,1-1.14-1Z" transform="translate(1.43 -22.19)"/><path class="cls-2" d="M13.29,105.12v-.5h.5v.5Z" transform="translate(1.43 -22.19)"/><path class="cls-2" d="M14.43,103.35a3.52,3.52,0,0,1,.13-1,1.31,1.31,0,0,1,.39-.6,1,1,0,0,1,.65-.21,1.07,1.07,0,0,1,.51.12,1.13,1.13,0,0,1,.36.33,2.25,2.25,0,0,1,.22.54,3.66,3.66,0,0,1,.08.84,3.2,3.2,0,0,1-.13,1,1.31,1.31,0,0,1-.39.6,1,1,0,0,1-.65.21,1,1,0,0,1-.81-.37A2.35,2.35,0,0,1,14.43,103.35Zm.46,0a2.2,2.2,0,0,0,.2,1.17.58.58,0,0,0,1,0,3.36,3.36,0,0,0,0-2.34.6.6,0,0,0-.51-.29.56.56,0,0,0-.49.25A2.3,2.3,0,0,0,14.89,103.35Z" transform="translate(1.43 -22.19)"/><path class="cls-2" d="M11.64,93.78v-.85H10.09v-.41l1.63-2.32h.36v2.32h.48v.41h-.48v.85Zm0-1.26V90.91l-1.12,1.61Z" transform="translate(1.43 -22.19)"/><path class="cls-2" d="M13.29,93.78v-.5h.5v.5Z" transform="translate(1.43 -22.19)"/><path class="cls-2" d="M14.43,92a3.47,3.47,0,0,1,.13-1,1.31,1.31,0,0,1,.39-.6,1,1,0,0,1,.65-.21,1.07,1.07,0,0,1,.51.12.94.94,0,0,1,.36.33,2.17,2.17,0,0,1,.22.53,3.76,3.76,0,0,1,.08.85,3.2,3.2,0,0,1-.13,1,1.33,1.33,0,0,1-.39.59,1,1,0,0,1-.65.21,1,1,0,0,1-.81-.37A2.3,2.3,0,0,1,14.43,92Zm.46,0a2.2,2.2,0,0,0,.2,1.17.59.59,0,0,0,1,0A2.2,2.2,0,0,0,16.32,92a2.25,2.25,0,0,0-.21-1.18.62.62,0,0,0-.51-.29.57.57,0,0,0-.49.26A2.3,2.3,0,0,0,14.89,92Z" transform="translate(1.43 -22.19)"/><path class="cls-2" d="M10.23,81.51l.46,0a.82.82,0,0,0,.24.51.64.64,0,0,0,.45.17.71.71,0,0,0,.54-.24.94.94,0,0,0,.22-.64.8.8,0,0,0-.21-.59.75.75,0,0,0-.56-.22.7.7,0,0,0-.38.1.66.66,0,0,0-.27.25l-.41-.06.34-1.83h1.78v.42H11l-.2,1a1.18,1.18,0,0,1,.68-.23,1.06,1.06,0,0,1,.79.33,1.13,1.13,0,0,1,.32.83,1.27,1.27,0,0,1-.28.84,1.25,1.25,0,0,1-1.74.16A1.08,1.08,0,0,1,10.23,81.51Z" transform="translate(1.43 -22.19)"/><path class="cls-2" d="M13.29,82.45V82h.5v.5Z" transform="translate(1.43 -22.19)"/><path class="cls-2" d="M14.43,80.68a3.52,3.52,0,0,1,.13-1,1.31,1.31,0,0,1,.39-.6,1,1,0,0,1,.65-.21,1.07,1.07,0,0,1,.51.12,1.13,1.13,0,0,1,.36.33,2.25,2.25,0,0,1,.22.54,3.72,3.72,0,0,1,.08.84,3.2,3.2,0,0,1-.13,1,1.31,1.31,0,0,1-.39.6,1,1,0,0,1-.65.21,1,1,0,0,1-.81-.37A2.35,2.35,0,0,1,14.43,80.68Zm.46,0a2.27,2.27,0,0,0,.2,1.18.62.62,0,0,0,.51.29.61.61,0,0,0,.51-.3,3.36,3.36,0,0,0,0-2.34.6.6,0,0,0-.51-.29.56.56,0,0,0-.49.25A2.3,2.3,0,0,0,14.89,80.68Z" transform="translate(1.43 -22.19)"/><path class="cls-2" d="M12.51,68.41l-.44,0a.85.85,0,0,0-.16-.38.58.58,0,0,0-.44-.19.59.59,0,0,0-.37.12,1,1,0,0,0-.33.44,2.24,2.24,0,0,0-.12.83,1,1,0,0,1,.38-.36,1.07,1.07,0,0,1,.49-.12,1,1,0,0,1,.74.33,1.12,1.12,0,0,1,.31.83,1.46,1.46,0,0,1-.14.63A1.07,1.07,0,0,1,12,71a1.19,1.19,0,0,1-1.47-.25,2,2,0,0,1-.35-1.33,2.42,2.42,0,0,1,.38-1.51,1.13,1.13,0,0,1,.9-.41,1,1,0,0,1,.7.24A1,1,0,0,1,12.51,68.41ZM10.72,70a1.08,1.08,0,0,0,.09.44.75.75,0,0,0,.27.31.64.64,0,0,0,.37.11.6.6,0,0,0,.47-.22,1,1,0,0,0,0-1.2.67.67,0,0,0-.5-.21.69.69,0,0,0-.51.21A.77.77,0,0,0,10.72,70Z" transform="translate(1.43 -22.19)"/><path class="cls-2" d="M13.29,71.11v-.5h.5v.5Z" transform="translate(1.43 -22.19)"/><path class="cls-2" d="M14.43,69.35a3.52,3.52,0,0,1,.13-1,1.31,1.31,0,0,1,.39-.6,1,1,0,0,1,.65-.21,1.07,1.07,0,0,1,.51.12.94.94,0,0,1,.36.33,2.17,2.17,0,0,1,.22.53,3.76,3.76,0,0,1,.08.85,3.2,3.2,0,0,1-.13,1,1.33,1.33,0,0,1-.39.59,1,1,0,0,1-.65.21,1,1,0,0,1-.81-.37A2.3,2.3,0,0,1,14.43,69.35Zm.46,0a2.2,2.2,0,0,0,.2,1.17.59.59,0,0,0,1,0,2.2,2.2,0,0,0,.21-1.17,2.25,2.25,0,0,0-.21-1.18.62.62,0,0,0-.51-.29.57.57,0,0,0-.49.26A2.3,2.3,0,0,0,14.89,69.35Z" transform="translate(1.43 -22.19)"/><path class="cls-2" d="M10.26,56.67v-.42h2.32v.34a5,5,0,0,0-.68,1,5.54,5.54,0,0,0-.52,1.24,4.88,4.88,0,0,0-.17,1h-.45a4,4,0,0,1,.17-1,4.9,4.9,0,0,1,.45-1.15,5.48,5.48,0,0,1,.63-.94Z" transform="translate(1.43 -22.19)"/><path class="cls-2" d="M13.29,59.78v-.5h.5v.5Z" transform="translate(1.43 -22.19)"/><path class="cls-2" d="M14.43,58a3.47,3.47,0,0,1,.13-1,1.31,1.31,0,0,1,.39-.6,1,1,0,0,1,.65-.21,1.07,1.07,0,0,1,.51.12.94.94,0,0,1,.36.33,2.17,2.17,0,0,1,.22.53,3.76,3.76,0,0,1,.08.85,3.2,3.2,0,0,1-.13,1,1.33,1.33,0,0,1-.39.59,1,1,0,0,1-.65.21,1,1,0,0,1-.81-.37A2.3,2.3,0,0,1,14.43,58Zm.46,0a2.2,2.2,0,0,0,.2,1.17.59.59,0,0,0,1,0A2.2,2.2,0,0,0,16.32,58a2.25,2.25,0,0,0-.21-1.18.62.62,0,0,0-.51-.29.57.57,0,0,0-.49.26A2.3,2.3,0,0,0,14.89,58Z" transform="translate(1.43 -22.19)"/><path class="cls-2" d="M10.91,46.51a.87.87,0,0,1-.41-.29.72.72,0,0,1-.13-.44.87.87,0,0,1,.28-.66,1,1,0,0,1,.75-.27,1,1,0,0,1,.75.28.88.88,0,0,1,.29.66.75.75,0,0,1-.13.43.82.82,0,0,1-.4.29.89.89,0,0,1,.67.91,1.06,1.06,0,0,1-.32.78,1.22,1.22,0,0,1-.86.31,1.18,1.18,0,0,1-.85-.32,1,1,0,0,1-.33-.78.91.91,0,0,1,.18-.58A.85.85,0,0,1,10.91,46.51Zm-.23.91a.94.94,0,0,0,.08.36.59.59,0,0,0,.27.27.72.72,0,0,0,.38.1.7.7,0,0,0,.52-.21.66.66,0,0,0,.2-.51.72.72,0,0,0-.21-.53.74.74,0,0,0-.53-.2.73.73,0,0,0-.51.2A.69.69,0,0,0,10.68,47.42Zm.14-1.66a.57.57,0,0,0,.16.42.61.61,0,0,0,.43.16.54.54,0,0,0,.41-.16.53.53,0,0,0,.16-.39.56.56,0,0,0-.16-.41.63.63,0,0,0-.84,0A.49.49,0,0,0,10.82,45.76Z" transform="translate(1.43 -22.19)"/><path class="cls-2" d="M13.29,48.45V48h.5v.5Z" transform="translate(1.43 -22.19)"/><path class="cls-2" d="M14.43,46.68a3.52,3.52,0,0,1,.13-1,1.31,1.31,0,0,1,.39-.6,1,1,0,0,1,.65-.21,1.07,1.07,0,0,1,.51.12,1.13,1.13,0,0,1,.36.33,2.25,2.25,0,0,1,.22.54,3.72,3.72,0,0,1,.08.84,3.2,3.2,0,0,1-.13,1,1.31,1.31,0,0,1-.39.6,1,1,0,0,1-.65.21,1,1,0,0,1-.81-.37A2.33,2.33,0,0,1,14.43,46.68Zm.46,0a2.27,2.27,0,0,0,.2,1.18.62.62,0,0,0,.51.29.61.61,0,0,0,.51-.3,3.36,3.36,0,0,0,0-2.34.6.6,0,0,0-.51-.29.56.56,0,0,0-.49.25A2.33,2.33,0,0,0,14.89,46.68Z" transform="translate(1.43 -22.19)"/><path class="cls-2" d="M10.3,36.29l.42,0a.7.7,0,0,0,.2.43.56.56,0,0,0,.39.13.71.71,0,0,0,.36-.09.75.75,0,0,0,.25-.25,1.46,1.46,0,0,0,.16-.41,2.5,2.5,0,0,0,.07-.54s0-.05,0-.09a.91.91,0,0,1-.36.34.92.92,0,0,1-.49.13,1,1,0,0,1-.75-.32,1.17,1.17,0,0,1-.31-.85,1.24,1.24,0,0,1,.32-.88,1.06,1.06,0,0,1,.8-.33,1.17,1.17,0,0,1,1.08.72,2.68,2.68,0,0,1,.15,1,3.21,3.21,0,0,1-.15,1.09A1.21,1.21,0,0,1,12,37a1.12,1.12,0,0,1-.69.22,1,1,0,0,1-.69-.24A1,1,0,0,1,10.3,36.29Zm1.79-1.58a.82.82,0,0,0-.2-.6.62.62,0,0,0-.48-.23.65.65,0,0,0-.51.24.87.87,0,0,0-.22.62.76.76,0,0,0,.21.56.66.66,0,0,0,.51.21.66.66,0,0,0,.5-.21A.84.84,0,0,0,12.09,34.71Z" transform="translate(1.43 -22.19)"/><path class="cls-2" d="M13.29,37.11v-.5h.5v.5Z" transform="translate(1.43 -22.19)"/><path class="cls-2" d="M14.43,35.35a3.52,3.52,0,0,1,.13-1,1.31,1.31,0,0,1,.39-.6,1,1,0,0,1,.65-.21,1.07,1.07,0,0,1,.51.12,1,1,0,0,1,.36.33,2.17,2.17,0,0,1,.22.53,3.76,3.76,0,0,1,.08.85,3.2,3.2,0,0,1-.13,1,1.33,1.33,0,0,1-.39.59,1,1,0,0,1-.65.22,1,1,0,0,1-.81-.38A2.3,2.3,0,0,1,14.43,35.35Zm.46,0a2.2,2.2,0,0,0,.2,1.17.59.59,0,0,0,1,0,2.18,2.18,0,0,0,.21-1.17,2.18,2.18,0,0,0-.21-1.17.61.61,0,0,0-.51-.3.57.57,0,0,0-.49.26A2.3,2.3,0,0,0,14.89,35.35Z" transform="translate(1.43 -22.19)"/><path class="cls-2" d="M9.13,25.78H8.7V23a2.54,2.54,0,0,1-.42.3,3.27,3.27,0,0,1-.46.23v-.43a2.37,2.37,0,0,0,.64-.42,1.76,1.76,0,0,0,.39-.47h.28Z" transform="translate(1.43 -22.19)"/><path class="cls-2" d="M10.29,24a3.2,3.2,0,0,1,.13-1,1.28,1.28,0,0,1,.39-.59.94.94,0,0,1,.65-.21,1,1,0,0,1,.5.11.9.9,0,0,1,.36.34,1.51,1.51,0,0,1,.22.53,4.23,4.23,0,0,1,0,1.86,1.22,1.22,0,0,1-.38.6,1.1,1.1,0,0,1-1.47-.16A2.41,2.41,0,0,1,10.29,24Zm.45,0A2.25,2.25,0,0,0,11,25.19a.59.59,0,0,0,1,0,2.38,2.38,0,0,0,.2-1.18,2.31,2.31,0,0,0-.2-1.17.63.63,0,0,0-.52-.29.54.54,0,0,0-.48.26A2.24,2.24,0,0,0,10.74,24Z" transform="translate(1.43 -22.19)"/><path class="cls-2" d="M13.29,25.78v-.5h.5v.5Z" transform="translate(1.43 -22.19)"/><path class="cls-2" d="M14.43,24a3.17,3.17,0,0,1,.14-1A1.19,1.19,0,0,1,15,22.4a1,1,0,0,1,.65-.21.95.95,0,0,1,.87.45,2,2,0,0,1,.22.53,3.72,3.72,0,0,1,.08.84,3.2,3.2,0,0,1-.13,1,1.31,1.31,0,0,1-.39.6,1,1,0,0,1-.65.21,1,1,0,0,1-.81-.37A2.33,2.33,0,0,1,14.43,24Zm.46,0a2.38,2.38,0,0,0,.2,1.18.59.59,0,0,0,1,0A2.25,2.25,0,0,0,16.32,24a2.18,2.18,0,0,0-.21-1.17.62.62,0,0,0-.51-.29.56.56,0,0,0-.49.26A2.26,2.26,0,0,0,14.89,24Z" transform="translate(1.43 -22.19)"/><path class="cls-2" d="M17.24,141.38a3.52,3.52,0,0,1,.13-1,1.28,1.28,0,0,1,.39-.59,1,1,0,0,1,.65-.21,1.06,1.06,0,0,1,.51.11,1,1,0,0,1,.35.34,1.73,1.73,0,0,1,.23.53,3.72,3.72,0,0,1,.08.84,3.52,3.52,0,0,1-.13,1,1.31,1.31,0,0,1-.39.6,1,1,0,0,1-.65.21,1,1,0,0,1-.81-.37A2.33,2.33,0,0,1,17.24,141.38Zm.45,0a2.25,2.25,0,0,0,.21,1.18.59.59,0,0,0,1,0,2.25,2.25,0,0,0,.21-1.18,2.2,2.2,0,0,0-.21-1.17.62.62,0,0,0-.51-.29.55.55,0,0,0-.49.26A2.24,2.24,0,0,0,17.69,141.38Z" transform="translate(1.43 -22.19)"/><rect class="繝後Μ_逋ｽ-2" x="110.56" y="1.91" width="2.83" height="113.39"/><polyline class="cls-3" points="19.86 88.23 47.06 88.23 56.14 95.02 65.22 99.08 74.29 101.8 83.35 103.73 92.42 105.17 101.5 106.29 110.56 107.2"/><polyline class="cls-3" points="19.86 34.1 46.17 34.1 80.62 78.13 110.56 92.67"/><path class="cls-2" d="M40.29,142.21l.44-.06a1,1,0,0,0,.25.54.72.72,0,0,0,1-.06.72.72,0,0,0,.21-.53.68.68,0,0,0-.19-.5.7.7,0,0,0-.51-.19,1,1,0,0,0-.31.05l.05-.39h.07a.89.89,0,0,0,.51-.14.5.5,0,0,0,.22-.45.52.52,0,0,0-.16-.4.57.57,0,0,0-.42-.16.59.59,0,0,0-.43.16.83.83,0,0,0-.22.48l-.44-.08a1.11,1.11,0,0,1,.37-.68,1.05,1.05,0,0,1,.71-.24,1.25,1.25,0,0,1,.54.12.94.94,0,0,1,.37.34.88.88,0,0,1,.13.47.79.79,0,0,1-.12.42.8.8,0,0,1-.37.3.79.79,0,0,1,.49.31.88.88,0,0,1,.18.57,1.05,1.05,0,0,1-.34.8,1.2,1.2,0,0,1-.87.32,1.12,1.12,0,0,1-.78-.28A1.06,1.06,0,0,1,40.29,142.21Z" transform="translate(1.43 -22.19)"/><path class="cls-2" d="M43.06,141.38a3.17,3.17,0,0,1,.14-1,1.24,1.24,0,0,1,.38-.59,1,1,0,0,1,.65-.21.95.95,0,0,1,.87.45,2,2,0,0,1,.22.53,3.72,3.72,0,0,1,.08.84,3.2,3.2,0,0,1-.13,1,1.31,1.31,0,0,1-.39.6,1,1,0,0,1-.65.21,1,1,0,0,1-.81-.37A2.33,2.33,0,0,1,43.06,141.38Zm.46,0a2.38,2.38,0,0,0,.2,1.18.59.59,0,0,0,1,0,2.25,2.25,0,0,0,.21-1.18,2.2,2.2,0,0,0-.21-1.17.62.62,0,0,0-.51-.29.58.58,0,0,0-.49.26A2.26,2.26,0,0,0,43.52,141.38Z" transform="translate(1.43 -22.19)"/><path class="cls-2" d="M45.82,141.38a3.2,3.2,0,0,1,.13-1,1.24,1.24,0,0,1,.38-.59,1,1,0,0,1,.65-.21.95.95,0,0,1,.87.45,1.73,1.73,0,0,1,.22.53,3.72,3.72,0,0,1,.08.84,3.2,3.2,0,0,1-.13,1,1.31,1.31,0,0,1-.39.6,1,1,0,0,1-.65.21,1,1,0,0,1-.81-.37A2.34,2.34,0,0,1,45.82,141.38Zm.45,0a2.38,2.38,0,0,0,.2,1.18.59.59,0,0,0,1,0,2.25,2.25,0,0,0,.21-1.18,2.2,2.2,0,0,0-.21-1.17.62.62,0,0,0-.51-.29.58.58,0,0,0-.49.26A2.26,2.26,0,0,0,46.27,141.38Z" transform="translate(1.43 -22.19)"/><path class="cls-2" d="M48.63,141.38a3.2,3.2,0,0,1,.13-1,1.18,1.18,0,0,1,.39-.59,1,1,0,0,1,.64-.21,1,1,0,0,1,.51.11,1.06,1.06,0,0,1,.36.34,1.73,1.73,0,0,1,.22.53,3.72,3.72,0,0,1,.08.84,3.2,3.2,0,0,1-.13,1,1.23,1.23,0,0,1-.39.6,1.09,1.09,0,0,1-1.46-.16A2.34,2.34,0,0,1,48.63,141.38Zm.45,0a2.38,2.38,0,0,0,.2,1.18.59.59,0,0,0,1,0,2.25,2.25,0,0,0,.21-1.18,2.2,2.2,0,0,0-.21-1.17.62.62,0,0,0-.51-.29.59.59,0,0,0-.49.26A2.26,2.26,0,0,0,49.08,141.38Z" transform="translate(1.43 -22.19)"/><path class="cls-2" d="M69.76,140.45l-.43,0a.8.8,0,0,0-.17-.37.58.58,0,0,0-.44-.19.67.67,0,0,0-.37.11,1,1,0,0,0-.33.45,2.22,2.22,0,0,0-.12.82.93.93,0,0,1,.39-.35,1,1,0,0,1,.48-.12,1,1,0,0,1,.75.32,1.21,1.21,0,0,1,.31.84,1.32,1.32,0,0,1-.15.62,1,1,0,0,1-1,.6,1.12,1.12,0,0,1-.9-.4,2.06,2.06,0,0,1-.35-1.33,2.34,2.34,0,0,1,.39-1.51,1.08,1.08,0,0,1,.9-.41,1,1,0,0,1,.69.23A1,1,0,0,1,69.76,140.45ZM68,142a1,1,0,0,0,.09.43.78.78,0,0,0,.27.32.72.72,0,0,0,.37.11.67.67,0,0,0,.48-.22.92.92,0,0,0,.2-.62.83.83,0,0,0-.2-.58.7.7,0,0,0-1,0A.76.76,0,0,0,68,142Z" transform="translate(1.43 -22.19)"/><path class="cls-2" d="M70.29,141.38a3.52,3.52,0,0,1,.13-1,1.33,1.33,0,0,1,.39-.59,1,1,0,0,1,.65-.21,1.06,1.06,0,0,1,.51.11,1,1,0,0,1,.35.34,1.73,1.73,0,0,1,.23.53,3.72,3.72,0,0,1,.08.84,3.52,3.52,0,0,1-.13,1,1.31,1.31,0,0,1-.39.6,1,1,0,0,1-.65.21,1,1,0,0,1-.81-.37A2.33,2.33,0,0,1,70.29,141.38Zm.45,0a2.25,2.25,0,0,0,.21,1.18.59.59,0,0,0,1,0,2.25,2.25,0,0,0,.21-1.18,2.2,2.2,0,0,0-.21-1.17.63.63,0,0,0-.52-.29.56.56,0,0,0-.48.26A2.24,2.24,0,0,0,70.74,141.38Z" transform="translate(1.43 -22.19)"/><path class="cls-2" d="M73,141.38a3.52,3.52,0,0,1,.13-1,1.33,1.33,0,0,1,.39-.59,1,1,0,0,1,.65-.21,1.06,1.06,0,0,1,.51.11,1,1,0,0,1,.35.34,1.73,1.73,0,0,1,.23.53,3.72,3.72,0,0,1,.08.84,3.52,3.52,0,0,1-.13,1,1.31,1.31,0,0,1-.39.6,1,1,0,0,1-.65.21,1,1,0,0,1-.81-.37A2.33,2.33,0,0,1,73,141.38Zm.46,0a2.27,2.27,0,0,0,.2,1.18.59.59,0,0,0,1,0,2.25,2.25,0,0,0,.21-1.18,2.2,2.2,0,0,0-.21-1.17.62.62,0,0,0-.51-.29.57.57,0,0,0-.49.26A2.26,2.26,0,0,0,73.5,141.38Z" transform="translate(1.43 -22.19)"/><path class="cls-2" d="M75.85,141.38a3.52,3.52,0,0,1,.13-1,1.33,1.33,0,0,1,.39-.59,1,1,0,0,1,.65-.21.95.95,0,0,1,.87.45,2,2,0,0,1,.22.53,3.72,3.72,0,0,1,.08.84,3.2,3.2,0,0,1-.13,1,1.31,1.31,0,0,1-.39.6,1,1,0,0,1-.65.21,1,1,0,0,1-.81-.37A2.33,2.33,0,0,1,75.85,141.38Zm.46,0a2.27,2.27,0,0,0,.2,1.18.59.59,0,0,0,1,0,2.25,2.25,0,0,0,.21-1.18,2.2,2.2,0,0,0-.21-1.17.62.62,0,0,0-.51-.29.57.57,0,0,0-.49.26A2.26,2.26,0,0,0,76.31,141.38Z" transform="translate(1.43 -22.19)"/><path class="cls-2" d="M94.75,142.32l.42,0a.67.67,0,0,0,.2.43.56.56,0,0,0,.39.14.71.71,0,0,0,.36-.09,1,1,0,0,0,.25-.25,1.42,1.42,0,0,0,.16-.42,2.5,2.5,0,0,0,.07-.54s0-.05,0-.09a.87.87,0,0,1-.36.35,1,1,0,0,1-.49.13,1,1,0,0,1-.75-.33,1.14,1.14,0,0,1-.31-.85,1.21,1.21,0,0,1,.32-.87,1.06,1.06,0,0,1,.8-.33,1.13,1.13,0,0,1,1.08.72,2.65,2.65,0,0,1,.15,1,3.25,3.25,0,0,1-.15,1.09,1.26,1.26,0,0,1-.44.62,1.17,1.17,0,0,1-.69.21.94.94,0,0,1-1-.89Zm1.79-1.58a.84.84,0,0,0-.2-.6.61.61,0,0,0-.48-.22.65.65,0,0,0-.51.24.86.86,0,0,0-.22.62.74.74,0,0,0,.21.55.64.64,0,0,0,.51.22.63.63,0,0,0,.5-.22A.84.84,0,0,0,96.54,140.74Z" transform="translate(1.43 -22.19)"/><path class="cls-2" d="M97.46,141.38a3.2,3.2,0,0,1,.13-1,1.28,1.28,0,0,1,.39-.59,1.14,1.14,0,0,1,1.15-.1.9.9,0,0,1,.36.34,1.51,1.51,0,0,1,.22.53,4.23,4.23,0,0,1,0,1.86,1.22,1.22,0,0,1-.38.6,1.1,1.1,0,0,1-1.47-.16A2.41,2.41,0,0,1,97.46,141.38Zm.45,0a2.25,2.25,0,0,0,.21,1.18.59.59,0,0,0,1,0,2.38,2.38,0,0,0,.2-1.18,2.34,2.34,0,0,0-.2-1.17.63.63,0,0,0-.52-.29.54.54,0,0,0-.48.26A2.24,2.24,0,0,0,97.91,141.38Z" transform="translate(1.43 -22.19)"/><path class="cls-2" d="M100.27,141.38a3.2,3.2,0,0,1,.13-1,1.28,1.28,0,0,1,.39-.59,1.14,1.14,0,0,1,1.15-.1.9.9,0,0,1,.36.34,1.51,1.51,0,0,1,.22.53,3.22,3.22,0,0,1,.08.84,3.56,3.56,0,0,1-.12,1,1.31,1.31,0,0,1-.39.6,1.1,1.1,0,0,1-1.47-.16A2.41,2.41,0,0,1,100.27,141.38Zm.45,0a2.25,2.25,0,0,0,.21,1.18.59.59,0,0,0,1,0,2.38,2.38,0,0,0,.2-1.18,2.34,2.34,0,0,0-.2-1.17.63.63,0,0,0-.52-.29.54.54,0,0,0-.48.26A2.24,2.24,0,0,0,100.72,141.38Z" transform="translate(1.43 -22.19)"/><path class="cls-2" d="M103.08,141.38a3.52,3.52,0,0,1,.13-1,1.28,1.28,0,0,1,.39-.59,1.14,1.14,0,0,1,1.15-.1.9.9,0,0,1,.36.34,1.73,1.73,0,0,1,.23.53,3.72,3.72,0,0,1,.08.84,3.52,3.52,0,0,1-.13,1,1.31,1.31,0,0,1-.39.6,1,1,0,0,1-.65.21,1,1,0,0,1-.81-.37A2.33,2.33,0,0,1,103.08,141.38Zm.45,0a2.25,2.25,0,0,0,.21,1.18.59.59,0,0,0,1,0,2.27,2.27,0,0,0,.2-1.18,2.23,2.23,0,0,0-.2-1.17.63.63,0,0,0-.52-.29.54.54,0,0,0-.48.26A2.24,2.24,0,0,0,103.53,141.38Z" transform="translate(1.43 -22.19)"/><rect class="邱喟0.5pt-5" x="19.86" y="1.91" width="90.71" height="113.39"/><path class="cls-2" d="M104.76,147.4h-.44v-2.8a2.54,2.54,0,0,1-.42.3,2.45,2.45,0,0,1-.46.23v-.42a3,3,0,0,0,.64-.42,1.58,1.58,0,0,0,.39-.48h.29Z" transform="translate(1.43 -22.19)"/><path class="cls-2" d="M105.88,145.64a3.23,3.23,0,0,1,.13-1,1.33,1.33,0,0,1,.39-.59,1,1,0,0,1,.65-.21,1.12,1.12,0,0,1,.5.11.9.9,0,0,1,.36.34,1.51,1.51,0,0,1,.22.53,3.25,3.25,0,0,1,.08.85,3.44,3.44,0,0,1-.12,1,1.31,1.31,0,0,1-.39.6,1.1,1.1,0,0,1-1.47-.16A2.39,2.39,0,0,1,105.88,145.64Zm.45,0a2.2,2.2,0,0,0,.21,1.17.59.59,0,0,0,1,0,3.55,3.55,0,0,0,0-2.35.63.63,0,0,0-.52-.29.56.56,0,0,0-.48.26A2.28,2.28,0,0,0,106.33,145.64Z" transform="translate(1.43 -22.19)"/><path class="cls-2" d="M108.66,145.64a3.23,3.23,0,0,1,.13-1,1.33,1.33,0,0,1,.39-.59,1,1,0,0,1,.65-.21,1.12,1.12,0,0,1,.5.11.9.9,0,0,1,.36.34,1.51,1.51,0,0,1,.22.53,3.19,3.19,0,0,1,.09.85,3.39,3.39,0,0,1-.13,1,1.31,1.31,0,0,1-.39.6,1,1,0,0,1-.65.21,1,1,0,0,1-.81-.37A2.32,2.32,0,0,1,108.66,145.64Zm.45,0a2.2,2.2,0,0,0,.21,1.17.59.59,0,0,0,1,0,3.55,3.55,0,0,0,0-2.35.63.63,0,0,0-.52-.29.56.56,0,0,0-.48.26A2.28,2.28,0,0,0,109.11,145.64Z" transform="translate(1.43 -22.19)"/><path class="cls-2" d="M111.44,145.64a3.54,3.54,0,0,1,.13-1A1.33,1.33,0,0,1,112,144a1,1,0,0,1,.65-.21,1.12,1.12,0,0,1,.5.11.9.9,0,0,1,.36.34,1.73,1.73,0,0,1,.23.53,3.76,3.76,0,0,1,.08.85,3.39,3.39,0,0,1-.13,1,1.31,1.31,0,0,1-.39.6,1,1,0,0,1-.65.21,1,1,0,0,1-.81-.37A2.32,2.32,0,0,1,111.44,145.64Zm.45,0a2.2,2.2,0,0,0,.21,1.17.59.59,0,0,0,1,0,3.55,3.55,0,0,0,0-2.35.63.63,0,0,0-.52-.29.56.56,0,0,0-.48.26A2.28,2.28,0,0,0,111.89,145.64Z" transform="translate(1.43 -22.19)"/><path class="cls-2" d="M114.22,145.64a3.54,3.54,0,0,1,.13-1,1.33,1.33,0,0,1,.39-.59,1,1,0,0,1,.65-.21,1.19,1.19,0,0,1,.51.11,1,1,0,0,1,.35.34,1.73,1.73,0,0,1,.23.53,3.76,3.76,0,0,1,.08.85,3.39,3.39,0,0,1-.13,1,1.31,1.31,0,0,1-.39.6,1,1,0,0,1-.65.21,1,1,0,0,1-.81-.37A2.32,2.32,0,0,1,114.22,145.64Zm.45,0a2.2,2.2,0,0,0,.21,1.17.59.59,0,0,0,1,0,3.39,3.39,0,0,0,0-2.35.63.63,0,0,0-.52-.29.56.56,0,0,0-.48.26A2.28,2.28,0,0,0,114.67,145.64Z" transform="translate(1.43 -22.19)"/></g><g id="English"><rect class="繝後Μ_逋ｽ-2" x="20.56" y="67.53" width="47.91" height="16.58"/><path class="cls-2" d="M20.93,94.59l.58,0a1.32,1.32,0,0,0,.19.57,1,1,0,0,0,.47.36,1.8,1.8,0,0,0,.71.14,1.73,1.73,0,0,0,.63-.11.93.93,0,0,0,.4-.28.73.73,0,0,0,.13-.4.57.57,0,0,0-.13-.38.93.93,0,0,0-.42-.28,7.32,7.32,0,0,0-.83-.22,4,4,0,0,1-.89-.3,1.19,1.19,0,0,1-.5-.43,1,1,0,0,1-.16-.58,1.16,1.16,0,0,1,.2-.66,1.18,1.18,0,0,1,.58-.46,2.15,2.15,0,0,1,.85-.16,2.4,2.4,0,0,1,.92.17,1.27,1.27,0,0,1,.6.49,1.32,1.32,0,0,1,.23.73l-.59,0a1,1,0,0,0-.32-.66,1.24,1.24,0,0,0-.81-.23,1.32,1.32,0,0,0-.82.21.6.6,0,0,0-.25.49.51.51,0,0,0,.18.41,2.39,2.39,0,0,0,.93.33,7.58,7.58,0,0,1,1,.3,1.41,1.41,0,0,1,.6.48,1.14,1.14,0,0,1,.19.66,1.27,1.27,0,0,1-.21.7,1.4,1.4,0,0,1-.61.51,2.19,2.19,0,0,1-.9.18A2.76,2.76,0,0,1,21.85,96a1.59,1.59,0,0,1-.67-.56A1.56,1.56,0,0,1,20.93,94.59Z" transform="translate(1.43 -22.19)"/><path class="cls-2" d="M25.4,96.08V91.43H26V93.1a1.27,1.27,0,0,1,1-.46,1.33,1.33,0,0,1,.65.14.88.88,0,0,1,.4.41,1.88,1.88,0,0,1,.12.76v2.13h-.58V94a.91.91,0,0,0-.18-.63.7.7,0,0,0-.53-.19.85.85,0,0,0-.47.13.74.74,0,0,0-.32.36,1.48,1.48,0,0,0-.1.62v1.84Z" transform="translate(1.43 -22.19)"/><path class="cls-2" d="M28.8,94.4A1.76,1.76,0,0,1,29.32,93a1.58,1.58,0,0,1,1.06-.37,1.51,1.51,0,0,1,1.14.45A1.74,1.74,0,0,1,32,94.35a2.38,2.38,0,0,1-.19,1,1.45,1.45,0,0,1-.57.58,1.64,1.64,0,0,1-.82.21,1.48,1.48,0,0,1-1.14-.46A1.79,1.79,0,0,1,28.8,94.4Zm.59,0a1.44,1.44,0,0,0,.28,1,.93.93,0,0,0,.71.32.89.89,0,0,0,.71-.33,1.43,1.43,0,0,0,.28-1,1.4,1.4,0,0,0-.28-.95.93.93,0,0,0-.71-.32.9.9,0,0,0-.71.32A1.42,1.42,0,0,0,29.39,94.4Z" transform="translate(1.43 -22.19)"/><path class="cls-2" d="M32.62,96.08V92.71h.52v.51a1.41,1.41,0,0,1,.36-.47.6.6,0,0,1,.37-.11,1.09,1.09,0,0,1,.58.18l-.19.53a.84.84,0,0,0-.42-.12.51.51,0,0,0-.34.11.58.58,0,0,0-.21.31,2.35,2.35,0,0,0-.1.67v1.76Z" transform="translate(1.43 -22.19)"/><path class="cls-2" d="M36,95.57l.08.51a2.37,2.37,0,0,1-.43,0,1,1,0,0,1-.48-.1.6.6,0,0,1-.24-.26,2,2,0,0,1-.07-.68V93.16h-.42v-.45h.42v-.83l.57-.35v1.18H36v.45h-.57v2a1,1,0,0,0,0,.31.21.21,0,0,0,.1.11.34.34,0,0,0,.19,0A1.24,1.24,0,0,0,36,95.57Z" transform="translate(1.43 -22.19)"/><path class="cls-2" d="M36.38,94.69v-.58h1.75v.58Z" transform="translate(1.43 -22.19)"/><path class="cls-2" d="M41,96.08v-.42a1.05,1.05,0,0,1-.94.5,1.37,1.37,0,0,1-.74-.22,1.53,1.53,0,0,1-.53-.62,2.25,2.25,0,0,1-.18-.92,2.29,2.29,0,0,1,.17-.92,1.37,1.37,0,0,1,.5-.63,1.42,1.42,0,0,1,.75-.21,1.2,1.2,0,0,1,.55.12,1.24,1.24,0,0,1,.38.34V91.43h.57v4.65Zm-1.8-1.68a1.5,1.5,0,0,0,.27,1,.83.83,0,0,0,.64.32.81.81,0,0,0,.64-.31,1.41,1.41,0,0,0,.26-.93,1.59,1.59,0,0,0-.27-1,.81.81,0,0,0-.65-.32.78.78,0,0,0-.64.31A1.54,1.54,0,0,0,39.15,94.4Z" transform="translate(1.43 -22.19)"/><path class="cls-2" d="M44.59,96.08v-.49a1.23,1.23,0,0,1-1.07.57A1.31,1.31,0,0,1,43,96a.88.88,0,0,1-.38-.28,1.12,1.12,0,0,1-.18-.43,3.33,3.33,0,0,1,0-.53V92.71h.57v1.87a3.77,3.77,0,0,0,0,.6.68.68,0,0,0,.23.36.75.75,0,0,0,.43.13,1,1,0,0,0,.49-.14.66.66,0,0,0,.31-.35,1.7,1.7,0,0,0,.1-.66V92.71h.57v3.37Z" transform="translate(1.43 -22.19)"/><path class="cls-2" d="M46,96.08V92.71h.51v.51a1.29,1.29,0,0,1,.37-.47.59.59,0,0,1,.36-.11,1.15,1.15,0,0,1,.59.18l-.2.53a.84.84,0,0,0-.42-.12.51.51,0,0,0-.33.11.65.65,0,0,0-.22.31,2.36,2.36,0,0,0-.09.67v1.76Z" transform="translate(1.43 -22.19)"/><path class="cls-2" d="M50.36,95.67a2.32,2.32,0,0,1-.61.38,1.9,1.9,0,0,1-.63.11,1.25,1.25,0,0,1-.86-.27.93.93,0,0,1-.29-.7.88.88,0,0,1,.11-.45.92.92,0,0,1,.29-.33,1.5,1.5,0,0,1,.41-.18l.51-.09a5.33,5.33,0,0,0,1-.2v-.15a.63.63,0,0,0-.16-.49.94.94,0,0,0-.65-.19,1,1,0,0,0-.59.14.83.83,0,0,0-.29.5l-.56-.08a1.48,1.48,0,0,1,.25-.58,1.2,1.2,0,0,1,.51-.34,2.21,2.21,0,0,1,.76-.11,2,2,0,0,1,.71.1.82.82,0,0,1,.39.25.79.79,0,0,1,.18.39,3.08,3.08,0,0,1,0,.53v.76a9.89,9.89,0,0,0,0,1,1.49,1.49,0,0,0,.15.4h-.6A1.3,1.3,0,0,1,50.36,95.67Zm0-1.28a4.56,4.56,0,0,1-.93.22,2.12,2.12,0,0,0-.5.11.48.48,0,0,0-.23.19.5.5,0,0,0-.07.27.47.47,0,0,0,.17.38.73.73,0,0,0,.5.15,1.25,1.25,0,0,0,.59-.14.92.92,0,0,0,.38-.4,1.41,1.41,0,0,0,.09-.57Z" transform="translate(1.43 -22.19)"/><path class="cls-2" d="M53,95.57l.08.51a2.37,2.37,0,0,1-.43,0,1,1,0,0,1-.48-.1.6.6,0,0,1-.24-.26,2,2,0,0,1-.07-.68V93.16h-.42v-.45h.42v-.83l.57-.35v1.18H53v.45h-.57v2a1,1,0,0,0,0,.31.21.21,0,0,0,.1.11.34.34,0,0,0,.19,0A1.24,1.24,0,0,0,53,95.57Z" transform="translate(1.43 -22.19)"/><path class="cls-2" d="M53.58,92.09v-.66h.57v.66Zm0,4V92.71h.57v3.37Z" transform="translate(1.43 -22.19)"/><path class="cls-2" d="M54.81,94.4A1.73,1.73,0,0,1,55.33,93a1.58,1.58,0,0,1,1.06-.37,1.53,1.53,0,0,1,1.14.45A1.74,1.74,0,0,1,58,94.35a2.22,2.22,0,0,1-.2,1,1.42,1.42,0,0,1-.56.58,1.64,1.64,0,0,1-.82.21,1.48,1.48,0,0,1-1.14-.46A1.79,1.79,0,0,1,54.81,94.4Zm.59,0a1.44,1.44,0,0,0,.28,1,.93.93,0,0,0,.71.32.89.89,0,0,0,.71-.33,1.43,1.43,0,0,0,.28-1,1.4,1.4,0,0,0-.28-.95.93.93,0,0,0-.71-.32.9.9,0,0,0-.71.32A1.42,1.42,0,0,0,55.4,94.4Z" transform="translate(1.43 -22.19)"/><path class="cls-2" d="M58.64,96.08V92.71h.51v.48a1.22,1.22,0,0,1,1.08-.55,1.47,1.47,0,0,1,.56.1,1,1,0,0,1,.38.29,1.33,1.33,0,0,1,.18.42,3.51,3.51,0,0,1,0,.56v2.07h-.57V94a1.62,1.62,0,0,0-.07-.52.5.5,0,0,0-.24-.28.71.71,0,0,0-.39-.1.92.92,0,0,0-.63.23,1.14,1.14,0,0,0-.27.88v1.84Z" transform="translate(1.43 -22.19)"/><path class="cls-2" d="M21.06,103.88v-3.37h.51V101a1.29,1.29,0,0,1,.37-.47.59.59,0,0,1,.36-.11,1.15,1.15,0,0,1,.59.18l-.2.53a.84.84,0,0,0-.42-.12.51.51,0,0,0-.33.11.65.65,0,0,0-.22.31,2.36,2.36,0,0,0-.09.67v1.76Z" transform="translate(1.43 -22.19)"/><path class="cls-2" d="M25.44,103.88v-.49a1.23,1.23,0,0,1-1.07.57,1.31,1.31,0,0,1-.56-.12.88.88,0,0,1-.38-.28,1,1,0,0,1-.18-.43,3.33,3.33,0,0,1,0-.53v-2.09h.57v1.87a3.77,3.77,0,0,0,0,.6.63.63,0,0,0,.23.36.75.75,0,0,0,.43.13.92.92,0,0,0,.48-.14.64.64,0,0,0,.32-.35,1.7,1.7,0,0,0,.1-.66v-1.81H26v3.37Z" transform="translate(1.43 -22.19)"/><path class="cls-2" d="M26.84,103.88v-3.37h.52V101a1.2,1.2,0,0,1,1.07-.55,1.47,1.47,0,0,1,.56.1.89.89,0,0,1,.38.29,1,1,0,0,1,.18.42,3.51,3.51,0,0,1,0,.56v2.07H29v-2a1.38,1.38,0,0,0-.07-.52.53.53,0,0,0-.23-.28.74.74,0,0,0-.4-.1,1,1,0,0,0-.63.23,1.14,1.14,0,0,0-.26.88v1.84Z" transform="translate(1.43 -22.19)"/><path class="cls-2" d="M30.46,103.88v-3.37H31V101a1.22,1.22,0,0,1,1.08-.55,1.47,1.47,0,0,1,.56.1,1,1,0,0,1,.38.29,1.33,1.33,0,0,1,.18.42,3.51,3.51,0,0,1,0,.56v2.07h-.57v-2a1.62,1.62,0,0,0-.07-.52.5.5,0,0,0-.24-.28.71.71,0,0,0-.39-.1,1,1,0,0,0-.64.23A1.18,1.18,0,0,0,31,102v1.84Z" transform="translate(1.43 -22.19)"/><path class="cls-2" d="M34.08,99.89v-.66h.57v.66Zm0,4v-3.37h.57v3.37Z" transform="translate(1.43 -22.19)"/><path class="cls-2" d="M35.52,103.88v-3.37H36V101a1.21,1.21,0,0,1,1.07-.55,1.52,1.52,0,0,1,.57.1,1,1,0,0,1,.38.29,1.33,1.33,0,0,1,.18.42,3.51,3.51,0,0,1,0,.56v2.07h-.57v-2a1.62,1.62,0,0,0-.07-.52.55.55,0,0,0-.24-.28.72.72,0,0,0-.4-.1,1,1,0,0,0-.63.23,1.18,1.18,0,0,0-.26.88v1.84Z" transform="translate(1.43 -22.19)"/><path class="cls-2" d="M39,104.16l.55.08a.54.54,0,0,0,.2.38,1,1,0,0,0,.58.16,1.05,1.05,0,0,0,.61-.16.82.82,0,0,0,.29-.45,3.07,3.07,0,0,0,0-.73,1.18,1.18,0,0,1-.93.44,1.28,1.28,0,0,1-1.08-.5,1.93,1.93,0,0,1-.38-1.2,2.18,2.18,0,0,1,.18-.89,1.37,1.37,0,0,1,.5-.63,1.39,1.39,0,0,1,.78-.22,1.22,1.22,0,0,1,1,.48v-.41h.52v2.91a2.72,2.72,0,0,1-.16,1.12,1.14,1.14,0,0,1-.5.52,1.76,1.76,0,0,1-.86.19,1.59,1.59,0,0,1-1-.27A.92.92,0,0,1,39,104.16Zm.47-2a1.47,1.47,0,0,0,.26,1,.87.87,0,0,0,1.32,0,1.79,1.79,0,0,0,0-1.89.86.86,0,0,0-.66-.31.81.81,0,0,0-.65.31A1.35,1.35,0,0,0,39.5,102.14Z" transform="translate(1.43 -22.19)"/><path class="cls-2" d="M44.55,103.88v-3.37h.51V101a1.29,1.29,0,0,1,.37-.47.59.59,0,0,1,.36-.11,1.15,1.15,0,0,1,.59.18l-.2.53a.84.84,0,0,0-.42-.12.51.51,0,0,0-.33.11.65.65,0,0,0-.22.31,2.36,2.36,0,0,0-.09.67v1.76Z" transform="translate(1.43 -22.19)"/><path class="cls-2" d="M48.92,103.47a2.32,2.32,0,0,1-.61.38,1.9,1.9,0,0,1-.63.11,1.25,1.25,0,0,1-.86-.27.91.91,0,0,1-.3-.7.89.89,0,0,1,.12-.45.92.92,0,0,1,.29-.33,1.38,1.38,0,0,1,.41-.18,4.57,4.57,0,0,1,.51-.09,5.33,5.33,0,0,0,1-.2v-.15a.63.63,0,0,0-.16-.49.94.94,0,0,0-.65-.19,1,1,0,0,0-.59.14.83.83,0,0,0-.29.5l-.56-.08a1.48,1.48,0,0,1,.25-.58,1.2,1.2,0,0,1,.51-.34,2.21,2.21,0,0,1,.76-.11,1.92,1.92,0,0,1,.7.1.86.86,0,0,1,.4.25.79.79,0,0,1,.18.39,3.08,3.08,0,0,1,0,.53v.76a9.89,9.89,0,0,0,0,1,1.49,1.49,0,0,0,.15.4H49A1.08,1.08,0,0,1,48.92,103.47Zm-.05-1.28a4.56,4.56,0,0,1-.93.22,2.12,2.12,0,0,0-.5.11.48.48,0,0,0-.23.19.5.5,0,0,0-.08.27.48.48,0,0,0,.18.38.73.73,0,0,0,.5.15,1.25,1.25,0,0,0,.59-.14.92.92,0,0,0,.38-.4,1.41,1.41,0,0,0,.09-.57Z" transform="translate(1.43 -22.19)"/><path class="cls-2" d="M50.33,103.88v-3.37h.52V101a1.2,1.2,0,0,1,1.07-.55,1.47,1.47,0,0,1,.56.1.89.89,0,0,1,.38.29,1,1,0,0,1,.18.42,3.51,3.51,0,0,1,0,.56v2.07H52.5v-2a1.38,1.38,0,0,0-.07-.52.53.53,0,0,0-.23-.28.77.77,0,0,0-.4-.1,1,1,0,0,0-.63.23,1.14,1.14,0,0,0-.27.88v1.84Z" transform="translate(1.43 -22.19)"/><path class="cls-2" d="M53.84,104.16l.56.08a.53.53,0,0,0,.19.38,1,1,0,0,0,.58.16,1.09,1.09,0,0,0,.62-.16.82.82,0,0,0,.29-.45,3.76,3.76,0,0,0,0-.73,1.18,1.18,0,0,1-.93.44,1.25,1.25,0,0,1-1.08-.5,1.93,1.93,0,0,1-.38-1.2,2.35,2.35,0,0,1,.17-.89,1.46,1.46,0,0,1,.51-.63,1.35,1.35,0,0,1,.78-.22,1.2,1.2,0,0,1,1,.48v-.41h.53v2.91a2.72,2.72,0,0,1-.16,1.12,1.22,1.22,0,0,1-.51.52,1.72,1.72,0,0,1-.85.19,1.63,1.63,0,0,1-1-.27A.94.94,0,0,1,53.84,104.16Zm.48-2a1.41,1.41,0,0,0,.26,1,.83.83,0,0,0,.66.31.85.85,0,0,0,.66-.3,1.42,1.42,0,0,0,.27-1,1.35,1.35,0,0,0-.28-.94.85.85,0,0,0-1.31,0A1.4,1.4,0,0,0,54.32,102.14Z" transform="translate(1.43 -22.19)"/><path class="cls-2" d="M59.87,102.8l.59.07a1.39,1.39,0,0,1-.52.8,1.54,1.54,0,0,1-1,.29,1.51,1.51,0,0,1-1.17-.46,1.77,1.77,0,0,1-.44-1.27,1.9,1.9,0,0,1,.44-1.33,1.48,1.48,0,0,1,1.14-.46,1.41,1.41,0,0,1,1.1.46,1.78,1.78,0,0,1,.43,1.29v.15H58a1.27,1.27,0,0,0,.32.85.92.92,0,0,0,.7.3.89.89,0,0,0,.54-.17A1.09,1.09,0,0,0,59.87,102.8ZM58,101.87h1.88a1.21,1.21,0,0,0-.22-.64.88.88,0,0,0-.71-.33.9.9,0,0,0-.66.27A1,1,0,0,0,58,101.87Z" transform="translate(1.43 -22.19)"/><rect class="繝後Μ_逋ｽ-2" x="20.56" y="99.7" width="41.46" height="14.88"/><path class="cls-2" d="M23.81,125.63l.62.16a2,2,0,0,1-.7,1.15,1.88,1.88,0,0,1-1.23.4,2.14,2.14,0,0,1-1.22-.31,1.91,1.91,0,0,1-.72-.88,3.27,3.27,0,0,1-.24-1.25,2.83,2.83,0,0,1,.27-1.27,2,2,0,0,1,.79-.82,2.28,2.28,0,0,1,1.13-.28,2,2,0,0,1,1.18.35,1.92,1.92,0,0,1,.66,1l-.61.15a1.4,1.4,0,0,0-.47-.74,1.2,1.2,0,0,0-.77-.23,1.52,1.52,0,0,0-.9.25,1.3,1.3,0,0,0-.5.69,2.74,2.74,0,0,0-.15.9,2.92,2.92,0,0,0,.17,1,1.28,1.28,0,0,0,.54.66,1.47,1.47,0,0,0,.79.22,1.37,1.37,0,0,0,.88-.29A1.51,1.51,0,0,0,23.81,125.63Z" transform="translate(1.43 -22.19)"/><path class="cls-2" d="M24.9,125.58a1.73,1.73,0,0,1,.52-1.39,1.57,1.57,0,0,1,1.06-.38,1.54,1.54,0,0,1,1.14.46,1.74,1.74,0,0,1,.44,1.26,2.22,2.22,0,0,1-.2,1,1.42,1.42,0,0,1-.56.58,1.64,1.64,0,0,1-.82.21,1.48,1.48,0,0,1-1.14-.46A1.79,1.79,0,0,1,24.9,125.58Zm.59,0a1.44,1.44,0,0,0,.28,1,.93.93,0,0,0,.71.32.89.89,0,0,0,.71-.33,1.43,1.43,0,0,0,.28-1,1.38,1.38,0,0,0-.28-1,.95.95,0,0,0-1.42,0A1.41,1.41,0,0,0,25.49,125.58Z" transform="translate(1.43 -22.19)"/><path class="cls-2" d="M28.73,127.26v-3.37h.51v.48a1.23,1.23,0,0,1,1.08-.56,1.47,1.47,0,0,1,.56.11,1,1,0,0,1,.38.29,1.33,1.33,0,0,1,.18.42,3.51,3.51,0,0,1,0,.56v2.07H30.9v-2.05a1.62,1.62,0,0,0-.07-.52.5.5,0,0,0-.24-.28.71.71,0,0,0-.39-.1,1,1,0,0,0-.64.23,1.18,1.18,0,0,0-.26.88v1.84Z" transform="translate(1.43 -22.19)"/><path class="cls-2" d="M33.59,126.75l.08.5a1.77,1.77,0,0,1-.43.06,1,1,0,0,1-.48-.1.55.55,0,0,1-.24-.26,2,2,0,0,1-.07-.68v-1.93H32v-.45h.42v-.83l.57-.35v1.18h.57v.45H33v2a1,1,0,0,0,0,.31.21.21,0,0,0,.1.11.34.34,0,0,0,.19,0Z" transform="translate(1.43 -22.19)"/><path class="cls-2" d="M34.15,123.27v-.66h.57v.66Zm0,4v-3.37h.57v3.37Z" transform="translate(1.43 -22.19)"/><path class="cls-2" d="M35.59,127.26v-3.37h.52v.48a1.21,1.21,0,0,1,1.07-.56,1.47,1.47,0,0,1,.56.11.89.89,0,0,1,.38.29,1,1,0,0,1,.18.42,3.51,3.51,0,0,1,0,.56v2.07h-.57v-2.05a1.38,1.38,0,0,0-.07-.52.53.53,0,0,0-.23-.28.74.74,0,0,0-.4-.1,1,1,0,0,0-.63.23,1.14,1.14,0,0,0-.26.88v1.84Z" transform="translate(1.43 -22.19)"/><path class="cls-2" d="M41.42,127.26v-.49a1.23,1.23,0,0,1-1.07.57,1.31,1.31,0,0,1-.56-.12.88.88,0,0,1-.38-.28,1,1,0,0,1-.18-.43,3.33,3.33,0,0,1,0-.53v-2.09h.57v1.87a3.77,3.77,0,0,0,0,.6.63.63,0,0,0,.23.36.75.75,0,0,0,.43.13.92.92,0,0,0,.48-.14.63.63,0,0,0,.32-.36,1.61,1.61,0,0,0,.1-.65v-1.81h.57v3.37Z" transform="translate(1.43 -22.19)"/><path class="cls-2" d="M42.61,125.58a1.73,1.73,0,0,1,.52-1.39,1.57,1.57,0,0,1,1.06-.38,1.54,1.54,0,0,1,1.14.46,1.74,1.74,0,0,1,.44,1.26,2.22,2.22,0,0,1-.2,1,1.42,1.42,0,0,1-.56.58,1.64,1.64,0,0,1-.82.21,1.48,1.48,0,0,1-1.14-.46A1.79,1.79,0,0,1,42.61,125.58Zm.59,0a1.44,1.44,0,0,0,.28,1,.93.93,0,0,0,.71.32.89.89,0,0,0,.71-.33,1.43,1.43,0,0,0,.28-1,1.38,1.38,0,0,0-.28-1,.95.95,0,0,0-1.42,0A1.41,1.41,0,0,0,43.2,125.58Z" transform="translate(1.43 -22.19)"/><path class="cls-2" d="M48.65,127.26v-.49a1.23,1.23,0,0,1-1.07.57,1.31,1.31,0,0,1-.56-.12.88.88,0,0,1-.38-.28,1,1,0,0,1-.18-.43,3.33,3.33,0,0,1,0-.53v-2.09H47v1.87a3.77,3.77,0,0,0,0,.6.63.63,0,0,0,.23.36.75.75,0,0,0,.43.13.92.92,0,0,0,.48-.14.63.63,0,0,0,.32-.36,1.61,1.61,0,0,0,.1-.65v-1.81h.57v3.37Z" transform="translate(1.43 -22.19)"/><path class="cls-2" d="M49.83,126.26l.56-.09a.81.81,0,0,0,.26.52,1.14,1.14,0,0,0,1.2,0,.5.5,0,0,0,.19-.38.34.34,0,0,0-.17-.3,2.49,2.49,0,0,0-.58-.2,5,5,0,0,1-.88-.27.87.87,0,0,1-.36-.32.81.81,0,0,1-.13-.45.87.87,0,0,1,.1-.42,1,1,0,0,1,.28-.32,1.16,1.16,0,0,1,.37-.17,1.93,1.93,0,0,1,.49-.07,1.86,1.86,0,0,1,.7.12.88.88,0,0,1,.44.31,1.18,1.18,0,0,1,.2.52l-.56.08a.64.64,0,0,0-.22-.41.81.81,0,0,0-.52-.15,1,1,0,0,0-.56.13.4.4,0,0,0-.17.31.37.37,0,0,0,.07.2.53.53,0,0,0,.22.15l.51.15a7.54,7.54,0,0,1,.84.26.88.88,0,0,1,.38.3.85.85,0,0,1,.13.49,1,1,0,0,1-.16.54,1,1,0,0,1-.48.39,1.8,1.8,0,0,1-.71.14,1.51,1.51,0,0,1-1-.28A1.24,1.24,0,0,1,49.83,126.26Z" transform="translate(1.43 -22.19)"/><path class="cls-2" d="M20.41,135.06v-3.37h.52v.51a1.31,1.31,0,0,1,.36-.47.61.61,0,0,1,.37-.12,1.11,1.11,0,0,1,.58.19l-.19.53a.86.86,0,0,0-.42-.13.52.52,0,0,0-.34.12.58.58,0,0,0-.21.31,2.35,2.35,0,0,0-.1.67v1.76Z" transform="translate(1.43 -22.19)"/><path class="cls-2" d="M24.79,135.06v-.49a1.23,1.23,0,0,1-1.07.57,1.3,1.3,0,0,1-.55-.12.91.91,0,0,1-.39-.28,1.11,1.11,0,0,1-.17-.43,2.3,2.3,0,0,1,0-.53v-2.09h.57v1.87a2.63,2.63,0,0,0,0,.6.58.58,0,0,0,.23.36.73.73,0,0,0,.43.13.92.92,0,0,0,.48-.14.66.66,0,0,0,.32-.36,1.84,1.84,0,0,0,.09-.65v-1.81h.57v3.37Z" transform="translate(1.43 -22.19)"/><path class="cls-2" d="M26.2,135.06v-3.37h.51v.48a1.23,1.23,0,0,1,1.08-.56,1.47,1.47,0,0,1,.56.11,1,1,0,0,1,.38.29,1.33,1.33,0,0,1,.18.42,3.51,3.51,0,0,1,0,.56v2.07h-.57V133a1.62,1.62,0,0,0-.07-.52.5.5,0,0,0-.24-.28.71.71,0,0,0-.39-.1.92.92,0,0,0-.63.23,1.14,1.14,0,0,0-.27.88v1.84Z" transform="translate(1.43 -22.19)"/><path class="cls-2" d="M29.81,135.06v-3.37h.52v.48a1.21,1.21,0,0,1,1.07-.56,1.47,1.47,0,0,1,.56.11.89.89,0,0,1,.38.29,1,1,0,0,1,.18.42,3.51,3.51,0,0,1,0,.56v2.07H32V133a1.67,1.67,0,0,0-.06-.52.6.6,0,0,0-.24-.28.74.74,0,0,0-.4-.1,1,1,0,0,0-.63.23,1.14,1.14,0,0,0-.26.88v1.84Z" transform="translate(1.43 -22.19)"/><path class="cls-2" d="M33.43,131.07v-.66H34v.66Zm0,4v-3.37H34v3.37Z" transform="translate(1.43 -22.19)"/><path class="cls-2" d="M34.87,135.06v-3.37h.52v.48a1.21,1.21,0,0,1,1.07-.56,1.47,1.47,0,0,1,.56.11.89.89,0,0,1,.38.29,1,1,0,0,1,.18.42,3.51,3.51,0,0,1,0,.56v2.07H37V133a1.38,1.38,0,0,0-.07-.52.53.53,0,0,0-.23-.28.77.77,0,0,0-.4-.1,1,1,0,0,0-.63.23,1.14,1.14,0,0,0-.27.88v1.84Z" transform="translate(1.43 -22.19)"/><path class="cls-2" d="M38.38,135.34l.56.08a.56.56,0,0,0,.19.38,1,1,0,0,0,.58.16,1.09,1.09,0,0,0,.62-.16.82.82,0,0,0,.29-.45,3.76,3.76,0,0,0,0-.73,1.18,1.18,0,0,1-.93.44,1.28,1.28,0,0,1-1.08-.5,2,2,0,0,1-.38-1.2,2.35,2.35,0,0,1,.17-.89,1.37,1.37,0,0,1,1.29-.86,1.21,1.21,0,0,1,1,.49v-.41h.53v2.91a2.72,2.72,0,0,1-.16,1.12,1.22,1.22,0,0,1-.51.52,1.72,1.72,0,0,1-.85.19,1.63,1.63,0,0,1-1-.27A.94.94,0,0,1,38.38,135.34Zm.48-2a1.41,1.41,0,0,0,.26,1,.83.83,0,0,0,.66.31.85.85,0,0,0,.66-.3,1.43,1.43,0,0,0,.27-1,1.34,1.34,0,0,0-.28-.93.85.85,0,0,0-1.31,0A1.4,1.4,0,0,0,38.86,133.32Z" transform="translate(1.43 -22.19)"/><path class="cls-2" d="M43.9,135.06v-3.37h.52v.51a1.31,1.31,0,0,1,.36-.47.61.61,0,0,1,.37-.12,1.11,1.11,0,0,1,.58.19l-.19.53a.86.86,0,0,0-.42-.13.52.52,0,0,0-.34.12.58.58,0,0,0-.21.31,2.35,2.35,0,0,0-.1.67v1.76Z" transform="translate(1.43 -22.19)"/><path class="cls-2" d="M48.27,134.65a2.17,2.17,0,0,1-.61.38,1.81,1.81,0,0,1-.63.11,1.22,1.22,0,0,1-.85-.27.91.91,0,0,1-.3-.7,1,1,0,0,1,.11-.45,1,1,0,0,1,.3-.33,1.72,1.72,0,0,1,.41-.19,4.64,4.64,0,0,1,.51-.08,5.33,5.33,0,0,0,1-.2v-.15a.67.67,0,0,0-.16-.49,1,1,0,0,0-.65-.19,1,1,0,0,0-.6.14.83.83,0,0,0-.28.5l-.56-.08a1.34,1.34,0,0,1,.25-.58,1.17,1.17,0,0,1,.5-.34,2.26,2.26,0,0,1,.77-.12,1.94,1.94,0,0,1,.7.11.92.92,0,0,1,.4.25.87.87,0,0,1,.17.39,3.08,3.08,0,0,1,0,.53v.76a8.82,8.82,0,0,0,0,1,1.19,1.19,0,0,0,.14.4h-.59A1.31,1.31,0,0,1,48.27,134.65Zm0-1.28a4.52,4.52,0,0,1-.94.22,2.25,2.25,0,0,0-.5.11.45.45,0,0,0-.22.19.5.5,0,0,0,.09.65.78.78,0,0,0,.51.15,1.28,1.28,0,0,0,.59-.14.89.89,0,0,0,.37-.4,1.24,1.24,0,0,0,.1-.57Z" transform="translate(1.43 -22.19)"/><path class="cls-2" d="M49.69,135.06v-3.37h.51v.48a1.23,1.23,0,0,1,1.08-.56,1.47,1.47,0,0,1,.56.11,1,1,0,0,1,.38.29,1.33,1.33,0,0,1,.18.42,3.51,3.51,0,0,1,0,.56v2.07h-.57V133a1.62,1.62,0,0,0-.07-.52.5.5,0,0,0-.24-.28.71.71,0,0,0-.39-.1,1,1,0,0,0-.64.23,1.18,1.18,0,0,0-.26.88v1.84Z" transform="translate(1.43 -22.19)"/><path class="cls-2" d="M53.2,135.34l.55.08a.56.56,0,0,0,.2.38,1,1,0,0,0,.58.16,1.05,1.05,0,0,0,.61-.16.77.77,0,0,0,.29-.45,3.07,3.07,0,0,0,0-.73,1.17,1.17,0,0,1-.93.44,1.27,1.27,0,0,1-1.07-.5,1.9,1.9,0,0,1-.39-1.2,2.18,2.18,0,0,1,.18-.89,1.29,1.29,0,0,1,.51-.63,1.34,1.34,0,0,1,.77-.23,1.23,1.23,0,0,1,1,.49v-.41h.53v2.91a2.9,2.9,0,0,1-.16,1.12,1.22,1.22,0,0,1-.51.52,1.74,1.74,0,0,1-.86.19,1.61,1.61,0,0,1-1-.27A.92.92,0,0,1,53.2,135.34Zm.47-2a1.41,1.41,0,0,0,.27,1,.81.81,0,0,0,.66.31.85.85,0,0,0,.66-.3,1.49,1.49,0,0,0,.26-1,1.39,1.39,0,0,0-.27-.93.86.86,0,0,0-.66-.31.81.81,0,0,0-.65.31A1.35,1.35,0,0,0,53.67,133.32Z" transform="translate(1.43 -22.19)"/><path class="cls-2" d="M59.23,134l.59.07a1.5,1.5,0,0,1-.52.8,1.55,1.55,0,0,1-1,.29,1.52,1.52,0,0,1-1.17-.46,1.77,1.77,0,0,1-.43-1.28,1.85,1.85,0,0,1,.44-1.32,1.58,1.58,0,0,1,2.24,0,1.87,1.87,0,0,1,.43,1.3s0,.08,0,.15H57.32a1.26,1.26,0,0,0,.31.85.94.94,0,0,0,.71.3.84.84,0,0,0,.53-.17A1.1,1.1,0,0,0,59.23,134Zm-1.88-.93h1.88a1.13,1.13,0,0,0-.21-.64.93.93,0,0,0-1.37-.06A1,1,0,0,0,57.35,133.05Z" transform="translate(1.43 -22.19)"/><path class="cls-2" d="M3.22,98.27H-.88V99.8h-.55V96.11h.55v1.54h4.1Z" transform="translate(1.43 -22.19)"/><path class="cls-2" d="M1.54,95.77a1.73,1.73,0,0,1-1.39-.52,1.56,1.56,0,0,1-.37-1.06,1.53,1.53,0,0,1,.45-1.14,1.74,1.74,0,0,1,1.26-.44,2.22,2.22,0,0,1,1,.2,1.42,1.42,0,0,1,.58.56,1.64,1.64,0,0,1,.21.82,1.48,1.48,0,0,1-.46,1.14A1.79,1.79,0,0,1,1.54,95.77Zm0-.59a1.44,1.44,0,0,0,1-.28.93.93,0,0,0,.32-.71.91.91,0,0,0-.32-.71,1.48,1.48,0,0,0-1-.28,1.4,1.4,0,0,0-.95.28.95.95,0,0,0,0,1.42A1.42,1.42,0,0,0,1.54,95.18Z" transform="translate(1.43 -22.19)"/><path class="cls-2" d="M3.22,92H-.15v-.52H.36a1.41,1.41,0,0,1-.47-.36.6.6,0,0,1-.11-.37A1.09,1.09,0,0,1,0,90.12l.53.19a.84.84,0,0,0-.12.42.51.51,0,0,0,.11.34.58.58,0,0,0,.31.21,2.35,2.35,0,0,0,.67.1H3.22Z" transform="translate(1.43 -22.19)"/><path class="cls-2" d="M4.51,87.63H2.86a1,1,0,0,1,.31.37,1,1,0,0,1,.13.51,1.34,1.34,0,0,1-.48,1A1.89,1.89,0,0,1,1.51,90a2.25,2.25,0,0,1-.92-.18A1.4,1.4,0,0,1,0,89.29a1.35,1.35,0,0,1-.2-.74,1.13,1.13,0,0,1,.52-1H-.15v-.51H4.51Zm-3,1.76a1.48,1.48,0,0,0,1-.27.84.84,0,0,0,.33-.66.8.8,0,0,0-.31-.63,1.46,1.46,0,0,0-.94-.26,1.52,1.52,0,0,0-1,.28.8.8,0,0,0-.34.65.78.78,0,0,0,.31.63A1.56,1.56,0,0,0,1.53,89.39Z" transform="translate(1.43 -22.19)"/><path class="cls-2" d="M3.22,84H2.73A1.23,1.23,0,0,1,3.3,85a1.31,1.31,0,0,1-.12.56A.88.88,0,0,1,2.9,86a1,1,0,0,1-.43.18,3.33,3.33,0,0,1-.53,0H-.15V85.6H1.72a3.77,3.77,0,0,0,.6,0,.63.63,0,0,0,.36-.23.75.75,0,0,0,.13-.43.92.92,0,0,0-.14-.48.68.68,0,0,0-.35-.32,1.66,1.66,0,0,0-.66-.1H-.15v-.57H3.22Z" transform="translate(1.43 -22.19)"/><path class="cls-2" d="M2.14,80.24l.07-.59a1.39,1.39,0,0,1,.8.52,1.54,1.54,0,0,1,.29,1,1.52,1.52,0,0,1-.46,1.17,1.77,1.77,0,0,1-1.27.44A1.86,1.86,0,0,1,.25,82.3a1.46,1.46,0,0,1-.47-1.14,1.41,1.41,0,0,1,.46-1.1,1.78,1.78,0,0,1,1.29-.43h.15v2.52a1.27,1.27,0,0,0,.85-.32.92.92,0,0,0,.3-.7.89.89,0,0,0-.17-.54A1.09,1.09,0,0,0,2.14,80.24Zm-.93,1.87V80.23a1.14,1.14,0,0,0-.63.22.88.88,0,0,0-.33.71.89.89,0,0,0,.26.66A1,1,0,0,0,1.21,82.11Z" transform="translate(1.43 -22.19)"/><path class="cls-2" d="M4.51,77.11H-1.43V75.85H-1v.69H4v-.69h.47Z" transform="translate(1.43 -22.19)"/><path class="cls-2" d="M3.22,75.25H-1.43v-.63l3.65-2.44H-1.43v-.59H3.22v.63L-.43,74.66H3.22Z" transform="translate(1.43 -22.19)"/><path class="cls-2" d="M.94,70.71a.74.74,0,0,1-.56-.24.76.76,0,0,1-.24-.56.75.75,0,0,1,.24-.57.74.74,0,0,1,.56-.24.75.75,0,0,1,.57.24.75.75,0,0,1,.24.57.76.76,0,0,1-.24.56A.75.75,0,0,1,.94,70.71Z" transform="translate(1.43 -22.19)"/><path class="cls-2" d="M3.22,68.35H-.15v-.51H.32a1.31,1.31,0,0,1-.39-.42,1.21,1.21,0,0,1-.15-.6,1.16,1.16,0,0,1,.15-.62.84.84,0,0,1,.44-.34,1.18,1.18,0,0,1-.59-1,1,1,0,0,1,.27-.77,1.2,1.2,0,0,1,.86-.27H3.22v.57H1.1a1.42,1.42,0,0,0-.49.06.41.41,0,0,0-.25.2A.64.64,0,0,0,.27,65a.79.79,0,0,0,.24.59,1,1,0,0,0,.75.24h2v.57H1a.92.92,0,0,0-.57.14.51.51,0,0,0-.19.45.81.81,0,0,0,.13.45.69.69,0,0,0,.37.3,2.12,2.12,0,0,0,.7.09H3.22Z" transform="translate(1.43 -22.19)"/><path class="cls-2" d="M4.51,62v1.26H4v-.69H-1v.69h-.47V62Z" transform="translate(1.43 -22.19)"/><path class="cls-2" d="M44.76,150.56l.58-.05a1.32,1.32,0,0,0,.19.57,1,1,0,0,0,.47.36,1.8,1.8,0,0,0,.71.14,1.67,1.67,0,0,0,.62-.11.91.91,0,0,0,.41-.28.76.76,0,0,0,.13-.4.55.55,0,0,0-.13-.38.86.86,0,0,0-.42-.28c-.12,0-.4-.12-.83-.23a4.15,4.15,0,0,1-.89-.29,1.19,1.19,0,0,1-.5-.43,1.06,1.06,0,0,1-.16-.58,1.16,1.16,0,0,1,.2-.66,1.18,1.18,0,0,1,.58-.46,2.11,2.11,0,0,1,.85-.16,2.22,2.22,0,0,1,.92.17,1.27,1.27,0,0,1,.6.49,1.4,1.4,0,0,1,.23.73l-.59,0a1,1,0,0,0-.32-.66,1.24,1.24,0,0,0-.81-.23,1.3,1.3,0,0,0-.82.21.6.6,0,0,0-.25.49.52.52,0,0,0,.18.41,2.39,2.39,0,0,0,.93.33,7.58,7.58,0,0,1,1,.3,1.41,1.41,0,0,1,.6.48,1.14,1.14,0,0,1,.19.66,1.3,1.3,0,0,1-.21.7,1.4,1.4,0,0,1-.61.51,2.19,2.19,0,0,1-.9.18,2.76,2.76,0,0,1-1.06-.18,1.59,1.59,0,0,1-.67-.56A1.56,1.56,0,0,1,44.76,150.56Z" transform="translate(1.43 -22.19)"/><path class="cls-2" d="M49.23,153.34v-4.66h.52v.44a1.29,1.29,0,0,1,.42-.39,1.19,1.19,0,0,1,.56-.13,1.34,1.34,0,0,1,.76.23,1.29,1.29,0,0,1,.5.62,2.35,2.35,0,0,1,.17.89,2.3,2.3,0,0,1-.19.93,1.36,1.36,0,0,1-.54.64,1.45,1.45,0,0,1-.74.22,1.11,1.11,0,0,1-.52-.12,1.25,1.25,0,0,1-.37-.31v1.64Zm.52-3a1.46,1.46,0,0,0,.26,1,.84.84,0,0,0,.64.31.82.82,0,0,0,.65-.33,1.5,1.5,0,0,0,.27-1,1.56,1.56,0,0,0-.26-1,.82.82,0,0,0-.64-.32.84.84,0,0,0-.64.34A1.52,1.52,0,0,0,49.75,150.38Z" transform="translate(1.43 -22.19)"/><path class="cls-2" d="M55.15,151l.59.07a1.39,1.39,0,0,1-.52.8,1.54,1.54,0,0,1-1,.29,1.52,1.52,0,0,1-1.17-.46,1.77,1.77,0,0,1-.44-1.28,1.9,1.9,0,0,1,.44-1.32,1.49,1.49,0,0,1,1.14-.47,1.45,1.45,0,0,1,1.1.46,1.82,1.82,0,0,1,.43,1.3v.15H53.24a1.32,1.32,0,0,0,.32.85.92.92,0,0,0,.7.3.89.89,0,0,0,.54-.17A1.09,1.09,0,0,0,55.15,151ZM53.28,150h1.88a1.21,1.21,0,0,0-.22-.64.88.88,0,0,0-.71-.33.9.9,0,0,0-.66.27A1,1,0,0,0,53.28,150Z" transform="translate(1.43 -22.19)"/><path class="cls-2" d="M58.77,151l.59.07a1.5,1.5,0,0,1-.52.8,1.55,1.55,0,0,1-1,.29,1.52,1.52,0,0,1-1.17-.46,1.77,1.77,0,0,1-.43-1.28,1.85,1.85,0,0,1,.44-1.32,1.58,1.58,0,0,1,2.24,0,1.87,1.87,0,0,1,.43,1.3s0,.08,0,.15H56.86a1.26,1.26,0,0,0,.31.85.94.94,0,0,0,.71.3.84.84,0,0,0,.53-.17A1.1,1.1,0,0,0,58.77,151ZM56.89,150h1.88a1.13,1.13,0,0,0-.21-.64.88.88,0,0,0-.71-.33.9.9,0,0,0-.66.27A1,1,0,0,0,56.89,150Z" transform="translate(1.43 -22.19)"/><path class="cls-2" d="M62.26,152.05v-.42a1.05,1.05,0,0,1-.94.5,1.3,1.3,0,0,1-.74-.23,1.41,1.41,0,0,1-.53-.62,2.17,2.17,0,0,1-.18-.91,2.29,2.29,0,0,1,.17-.92,1.37,1.37,0,0,1,.5-.63,1.4,1.4,0,0,1,.75-.22,1.21,1.21,0,0,1,.55.13,1.24,1.24,0,0,1,.38.34V147.4h.57v4.65Zm-1.8-1.68a1.5,1.5,0,0,0,.27,1,.82.82,0,0,0,.64.32.81.81,0,0,0,.64-.31,1.41,1.41,0,0,0,.26-.93,1.58,1.58,0,0,0-.27-1,.82.82,0,0,0-1.29,0A1.54,1.54,0,0,0,60.46,150.37Z" transform="translate(1.43 -22.19)"/><path class="cls-2" d="M65.51,153.34V147.4h1.26v.47h-.69v5h.69v.47Z" transform="translate(1.43 -22.19)"/><path class="cls-2" d="M67.29,152.05v-3.37h.52v.51a1.31,1.31,0,0,1,.36-.47.63.63,0,0,1,.37-.12,1.17,1.17,0,0,1,.59.19l-.2.53a.86.86,0,0,0-.42-.13.54.54,0,0,0-.34.12.58.58,0,0,0-.21.31,2.36,2.36,0,0,0-.09.67v1.76Z" transform="translate(1.43 -22.19)"/><path class="cls-2" d="M69,152.13l1.35-4.81h.45l-1.34,4.81Z" transform="translate(1.43 -22.19)"/><path class="cls-2" d="M71.27,152.05v-3.37h.51v.47a1.31,1.31,0,0,1,.42-.39,1.12,1.12,0,0,1,.6-.16,1.16,1.16,0,0,1,.62.16.86.86,0,0,1,.34.43,1.2,1.2,0,0,1,1-.59,1.05,1.05,0,0,1,.77.28,1.2,1.2,0,0,1,.27.86v2.31h-.57v-2.12a1.49,1.49,0,0,0-.06-.5.42.42,0,0,0-.2-.24.62.62,0,0,0-.34-.09.79.79,0,0,0-.59.24,1,1,0,0,0-.23.75v2h-.58v-2.19a.92.92,0,0,0-.14-.57.51.51,0,0,0-.45-.19.81.81,0,0,0-.45.13.75.75,0,0,0-.3.37,2.12,2.12,0,0,0-.09.7v1.75Z" transform="translate(1.43 -22.19)"/><path class="cls-2" d="M76.69,148.06v-.66h.57v.66Zm0,4v-3.37h.57v3.37Z" transform="translate(1.43 -22.19)"/><path class="cls-2" d="M78.13,152.05v-3.37h.51v.48a1.23,1.23,0,0,1,1.08-.56,1.47,1.47,0,0,1,.56.11.89.89,0,0,1,.38.29,1.33,1.33,0,0,1,.18.42,3.51,3.51,0,0,1,0,.56v2.07H80.3V150a1.38,1.38,0,0,0-.07-.52.5.5,0,0,0-.24-.28.71.71,0,0,0-.39-.1.92.92,0,0,0-.63.23,1.14,1.14,0,0,0-.27.88v1.84Z" transform="translate(1.43 -22.19)"/><path class="cls-2" d="M82.7,153.34H81.44v-.47h.69v-5h-.69v-.47H82.7Z" transform="translate(1.43 -22.19)"/></g></svg>