<svg xmlns="http://www.w3.org/2000/svg" viewBox="0 0 116.57 130.73"><defs><style>.cls-1,.cls-3,.繝医Ν繧ｯ繧ｰ繝ｩ繝廟繧ｰ繝ｬ繝ｼ邱,.邱喟0\.5pt-6{fill:none;}.cls-1,.cls-3,.邱喟0\.5pt-6{stroke:#231815;}.cls-1{stroke-linejoin:round;stroke-width:0.14px;}.繝医Ν繧ｯ繧ｰ繝ｩ繝廟繧ｰ繝ｬ繝ｼ邱{stroke:#9fa0a0;stroke-width:3px;}.cls-2{fill:#231815;}.繝後Μ_逋ｽ-2{fill:#fff;}.邱喟0\.5pt-6{stroke-miterlimit:10;stroke-width:0.5px;}</style></defs><g id="Illust"><line class="cls-1" x1="45.65" y1="1.48" x2="45.65" y2="114.87"/><line class="cls-1" x1="100.08" y1="1.48" x2="100.08" y2="114.87"/><line class="cls-1" x1="72.86" y1="1.48" x2="72.86" y2="114.87"/><line class="cls-1" x1="18.45" y1="98.63" x2="109.15" y2="98.63"/><line class="cls-1" x1="18.45" y1="82.44" x2="109.15" y2="82.44"/><line class="cls-1" x1="18.45" y1="66.25" x2="109.15" y2="66.25"/><line class="cls-1" x1="18.45" y1="50.06" x2="109.15" y2="50.06"/><line class="cls-1" x1="18.45" y1="33.86" x2="109.15" y2="33.86"/><line class="cls-1" x1="18.45" y1="17.67" x2="109.15" y2="17.67"/><polyline class="繝医Ν繧ｯ繧ｰ繝ｩ繝廟繧ｰ繝ｬ繝ｼ邱" points="18.44 89.09 45.65 89.09 54.72 95.5 63.8 99.4 72.87 101.97 81.93 103.78 91.01 105.17 100.08 106.24 109.14 107.09"/><line class="繝医Ν繧ｯ繧ｰ繝ｩ繝廟繧ｰ繝ｬ繝ｼ邱" x1="18.44" y1="11.72" x2="109.14" y2="11.72"/><path class="cls-2" d="M10.23,137.84a3.2,3.2,0,0,1,.13-1,1.31,1.31,0,0,1,.39-.6,1.11,1.11,0,0,1,1.15-.09,1,1,0,0,1,.36.33,1.65,1.65,0,0,1,.22.54,4.23,4.23,0,0,1-.05,1.86,1.22,1.22,0,0,1-.38.6,1,1,0,0,1-.65.21,1,1,0,0,1-.82-.37A2.43,2.43,0,0,1,10.23,137.84Zm.45,0a2.18,2.18,0,0,0,.21,1.17.58.58,0,0,0,1,0,3.52,3.52,0,0,0,0-2.34.6.6,0,0,0-.52-.29.56.56,0,0,0-.48.25A2.28,2.28,0,0,0,10.68,137.84Z" transform="translate(0.01 -22.61)"/><path class="cls-2" d="M13.29,139.61v-.5h.5v.5Z" transform="translate(0.01 -22.61)"/><path class="cls-2" d="M14.43,137.84a3.17,3.17,0,0,1,.14-1,1.22,1.22,0,0,1,.38-.6,1,1,0,0,1,.65-.21,1.07,1.07,0,0,1,.51.12,1.13,1.13,0,0,1,.36.33,2.25,2.25,0,0,1,.22.54,3.66,3.66,0,0,1,.08.84,3.2,3.2,0,0,1-.13,1,1.31,1.31,0,0,1-.39.6,1,1,0,0,1-.65.21,1,1,0,0,1-.81-.37A2.35,2.35,0,0,1,14.43,137.84Zm.46,0a2.31,2.31,0,0,0,.2,1.17.58.58,0,0,0,1,0,3.36,3.36,0,0,0,0-2.34.6.6,0,0,0-.51-.29.57.57,0,0,0-.49.25A2.3,2.3,0,0,0,14.89,137.84Z" transform="translate(0.01 -22.61)"/><path class="cls-2" d="M10.23,121.64a3.2,3.2,0,0,1,.13-1,1.31,1.31,0,0,1,.39-.6,1.11,1.11,0,0,1,1.15-.09,1,1,0,0,1,.36.33,1.65,1.65,0,0,1,.22.54,4.23,4.23,0,0,1-.05,1.86,1.22,1.22,0,0,1-.38.6,1,1,0,0,1-.65.21,1,1,0,0,1-.82-.37A2.43,2.43,0,0,1,10.23,121.64Zm.45,0a2.25,2.25,0,0,0,.21,1.18.62.62,0,0,0,.51.29.61.61,0,0,0,.51-.3,3.52,3.52,0,0,0,0-2.34.6.6,0,0,0-.52-.29.56.56,0,0,0-.48.25A2.28,2.28,0,0,0,10.68,121.64Z" transform="translate(0.01 -22.61)"/><path class="cls-2" d="M13.29,123.41v-.5h.5v.5Z" transform="translate(0.01 -22.61)"/><path class="cls-2" d="M16.09,123.41h-.44v-2.8a2.18,2.18,0,0,1-.42.3,2.81,2.81,0,0,1-.46.23v-.43a2.42,2.42,0,0,0,.65-.42,1.65,1.65,0,0,0,.39-.48h.28Z" transform="translate(0.01 -22.61)"/><path class="cls-2" d="M10.23,105.44a3.2,3.2,0,0,1,.13-1,1.31,1.31,0,0,1,.39-.6,1.11,1.11,0,0,1,1.15-.09.88.88,0,0,1,.36.33,1.6,1.6,0,0,1,.22.53,3.25,3.25,0,0,1,.08.85,3.2,3.2,0,0,1-.13,1,1.24,1.24,0,0,1-.38.59,1,1,0,0,1-.65.22,1,1,0,0,1-.82-.38A2.37,2.37,0,0,1,10.23,105.44Zm.45,0a2.18,2.18,0,0,0,.21,1.17.59.59,0,0,0,1,0,2.31,2.31,0,0,0,.2-1.17,2.38,2.38,0,0,0-.2-1.18.63.63,0,0,0-.52-.29.56.56,0,0,0-.48.26A2.28,2.28,0,0,0,10.68,105.44Z" transform="translate(0.01 -22.61)"/><path class="cls-2" d="M13.29,107.2v-.5h.5v.5Z" transform="translate(0.01 -22.61)"/><path class="cls-2" d="M16.74,106.78v.42H14.38a.79.79,0,0,1,0-.3,1.76,1.76,0,0,1,.29-.48,5.2,5.2,0,0,1,.57-.54,4.48,4.48,0,0,0,.79-.76.88.88,0,0,0,.21-.53.58.58,0,0,0-.19-.44.67.67,0,0,0-.49-.18.69.69,0,0,0-.5.19.72.72,0,0,0-.2.53l-.45,0a1.1,1.1,0,0,1,.35-.77,1.17,1.17,0,0,1,.81-.27,1.14,1.14,0,0,1,.82.29.92.92,0,0,1,.3.7,1.07,1.07,0,0,1-.09.43,1.62,1.62,0,0,1-.29.43,5.7,5.7,0,0,1-.68.63l-.51.45a1.88,1.88,0,0,0-.18.24Z" transform="translate(0.01 -22.61)"/><path class="cls-2" d="M10.23,89.24a3.12,3.12,0,0,1,.13-1,1.31,1.31,0,0,1,.39-.6,1.11,1.11,0,0,1,1.15-.09.82.82,0,0,1,.36.33,1.6,1.6,0,0,1,.22.53,3.25,3.25,0,0,1,.08.85,3.2,3.2,0,0,1-.13,1,1.24,1.24,0,0,1-.38.59,1.1,1.1,0,0,1-1.47-.16A2.37,2.37,0,0,1,10.23,89.24Zm.45,0a2.18,2.18,0,0,0,.21,1.17.59.59,0,0,0,1,0,3.55,3.55,0,0,0,0-2.35.63.63,0,0,0-.52-.29.56.56,0,0,0-.48.26A2.28,2.28,0,0,0,10.68,89.24Z" transform="translate(0.01 -22.61)"/><path class="cls-2" d="M13.29,91v-.5h.5V91Z" transform="translate(0.01 -22.61)"/><path class="cls-2" d="M14.44,90.06l.44-.06a1,1,0,0,0,.25.54.65.65,0,0,0,.45.16.72.72,0,0,0,.52-.21.74.74,0,0,0,.21-.53.66.66,0,0,0-.19-.5.69.69,0,0,0-.51-.2,1.5,1.5,0,0,0-.31,0l0-.39h.07a.9.9,0,0,0,.51-.15.5.5,0,0,0,.22-.45.54.54,0,0,0-.16-.4.57.57,0,0,0-.42-.16.59.59,0,0,0-.43.16.83.83,0,0,0-.22.49l-.44-.08a1.11,1.11,0,0,1,.37-.69,1.05,1.05,0,0,1,.71-.24,1.13,1.13,0,0,1,.54.13.82.82,0,0,1,.37.34.86.86,0,0,1,.14.46.79.79,0,0,1-.5.72.9.9,0,0,1,.5.31,1,1,0,0,1,.17.58,1,1,0,0,1-.34.79,1.21,1.21,0,0,1-.87.33,1.16,1.16,0,0,1-.78-.28A1.08,1.08,0,0,1,14.44,90.06Z" transform="translate(0.01 -22.61)"/><path class="cls-2" d="M10.23,73a3.2,3.2,0,0,1,.13-1,1.31,1.31,0,0,1,.39-.6,1.11,1.11,0,0,1,1.15-.09.88.88,0,0,1,.36.33,1.6,1.6,0,0,1,.22.53,3.25,3.25,0,0,1,.08.85,3.2,3.2,0,0,1-.13,1,1.24,1.24,0,0,1-.38.59,1,1,0,0,1-.65.22,1,1,0,0,1-.82-.38A2.37,2.37,0,0,1,10.23,73Zm.45,0a2.18,2.18,0,0,0,.21,1.17.59.59,0,0,0,1,0,3.52,3.52,0,0,0,0-2.34.61.61,0,0,0-.52-.3.56.56,0,0,0-.48.26A2.28,2.28,0,0,0,10.68,73Z" transform="translate(0.01 -22.61)"/><path class="cls-2" d="M13.29,74.8v-.5h.5v.5Z" transform="translate(0.01 -22.61)"/><path class="cls-2" d="M15.84,74.8V74H14.29v-.4l1.63-2.32h.36v2.32h.49V74h-.49v.85Zm0-1.25V71.93l-1.12,1.62Z" transform="translate(0.01 -22.61)"/><path class="cls-2" d="M10.23,56.84a3.2,3.2,0,0,1,.13-1,1.31,1.31,0,0,1,.39-.6,1.11,1.11,0,0,1,1.15-.09.88.88,0,0,1,.36.33,1.6,1.6,0,0,1,.22.53,3.25,3.25,0,0,1,.08.85,3.2,3.2,0,0,1-.13,1,1.24,1.24,0,0,1-.38.59,1,1,0,0,1-.65.22,1,1,0,0,1-.82-.38A2.37,2.37,0,0,1,10.23,56.84Zm.45,0A2.18,2.18,0,0,0,10.89,58a.59.59,0,0,0,1,0,3.52,3.52,0,0,0,0-2.34.61.61,0,0,0-.52-.3.56.56,0,0,0-.48.26A2.28,2.28,0,0,0,10.68,56.84Z" transform="translate(0.01 -22.61)"/><path class="cls-2" d="M13.29,58.6v-.5h.5v.5Z" transform="translate(0.01 -22.61)"/><path class="cls-2" d="M14.43,57.67l.47,0a.81.81,0,0,0,.23.5.63.63,0,0,0,.45.17.71.71,0,0,0,.54-.23.91.91,0,0,0,.22-.64.8.8,0,0,0-.21-.59.71.71,0,0,0-.55-.22.76.76,0,0,0-.39.1.63.63,0,0,0-.26.25l-.42-.06.35-1.84h1.78v.42H15.21l-.19,1a1.15,1.15,0,0,1,.67-.23,1.08,1.08,0,0,1,.8.33,1.13,1.13,0,0,1,.32.83,1.28,1.28,0,0,1-.29.84,1.12,1.12,0,0,1-.94.44,1.15,1.15,0,0,1-.79-.28A1,1,0,0,1,14.43,57.67Z" transform="translate(0.01 -22.61)"/><path class="cls-2" d="M10.23,40.64a3.2,3.2,0,0,1,.13-1,1.31,1.31,0,0,1,.39-.6,1.11,1.11,0,0,1,1.15-.09,1,1,0,0,1,.36.33,1.65,1.65,0,0,1,.22.54,4.23,4.23,0,0,1-.05,1.86,1.22,1.22,0,0,1-.38.6,1.1,1.1,0,0,1-1.47-.16A2.41,2.41,0,0,1,10.23,40.64Zm.45,0a2.25,2.25,0,0,0,.21,1.18.59.59,0,0,0,1,0,2.38,2.38,0,0,0,.2-1.18,2.31,2.31,0,0,0-.2-1.17.63.63,0,0,0-.52-.29.56.56,0,0,0-.48.25A2.31,2.31,0,0,0,10.68,40.64Z" transform="translate(0.01 -22.61)"/><path class="cls-2" d="M13.29,42.41v-.5h.5v.5Z" transform="translate(0.01 -22.61)"/><path class="cls-2" d="M16.72,39.71l-.44,0a.9.9,0,0,0-.17-.38.59.59,0,0,0-.44-.18.67.67,0,0,0-.37.11,1,1,0,0,0-.32.45,2.37,2.37,0,0,0-.13.82,1.11,1.11,0,0,1,.39-.36,1.13,1.13,0,0,1,.48-.11,1,1,0,0,1,.75.32,1.15,1.15,0,0,1,.31.84,1.32,1.32,0,0,1-.15.62,1,1,0,0,1-.4.45,1.1,1.1,0,0,1-.57.15,1.15,1.15,0,0,1-.9-.4,2.07,2.07,0,0,1-.34-1.34,2.38,2.38,0,0,1,.38-1.51,1.1,1.1,0,0,1,.9-.41,1,1,0,0,1,.69.24A1,1,0,0,1,16.72,39.71Zm-1.8,1.54a.91.91,0,0,0,.1.43.7.7,0,0,0,.63.43.62.62,0,0,0,.48-.23.9.9,0,0,0,.2-.61.83.83,0,0,0-.2-.58.67.67,0,0,0-.5-.22.68.68,0,0,0-.5.22A.76.76,0,0,0,14.92,41.25Z" transform="translate(0.01 -22.61)"/><path class="cls-2" d="M10.23,24.44a3.2,3.2,0,0,1,.13-1,1.31,1.31,0,0,1,.39-.6,1.11,1.11,0,0,1,1.15-.09.88.88,0,0,1,.36.33,1.6,1.6,0,0,1,.22.53,3.25,3.25,0,0,1,.08.85,3.2,3.2,0,0,1-.13,1,1.24,1.24,0,0,1-.38.59,1,1,0,0,1-.65.22,1,1,0,0,1-.82-.38A2.37,2.37,0,0,1,10.23,24.44Zm.45,0a2.18,2.18,0,0,0,.21,1.17.59.59,0,0,0,1,0,2.31,2.31,0,0,0,.2-1.17,2.38,2.38,0,0,0-.2-1.18.63.63,0,0,0-.52-.29.56.56,0,0,0-.48.26A2.28,2.28,0,0,0,10.68,24.44Z" transform="translate(0.01 -22.61)"/><path class="cls-2" d="M13.29,26.2v-.5h.5v.5Z" transform="translate(0.01 -22.61)"/><path class="cls-2" d="M14.46,23.09v-.42h2.32V23a5.42,5.42,0,0,0-.68,1,6.66,6.66,0,0,0-.52,1.24,4.89,4.89,0,0,0-.16,1H15a4.49,4.49,0,0,1,.17-1A5.42,5.42,0,0,1,15.59,24a4.53,4.53,0,0,1,.63-.94Z" transform="translate(0.01 -22.61)"/><path class="cls-2" d="M17.2,141.38a3.2,3.2,0,0,1,.13-1,1.28,1.28,0,0,1,.39-.59,1.14,1.14,0,0,1,1.15-.1.9.9,0,0,1,.36.34,1.73,1.73,0,0,1,.22.53,4.23,4.23,0,0,1-.05,1.86,1.22,1.22,0,0,1-.38.6,1.1,1.1,0,0,1-1.47-.16A2.41,2.41,0,0,1,17.2,141.38Zm.45,0a2.25,2.25,0,0,0,.21,1.18.6.6,0,0,0,.51.29.62.62,0,0,0,.51-.29,2.38,2.38,0,0,0,.2-1.18,2.34,2.34,0,0,0-.2-1.17.63.63,0,0,0-.52-.29.56.56,0,0,0-.48.26A2.24,2.24,0,0,0,17.65,141.38Z" transform="translate(0.01 -22.61)"/><polyline class="cls-3" points="18.44 89.09 45.65 89.09 54.72 95.5 63.8 99.4 72.87 101.97 81.93 103.78 91.01 105.17 100.08 106.24 109.14 107.09"/><polyline class="cls-3" points="18.44 11.72 85.56 11.72 109.14 37.1"/><rect class="繝後Μ_逋ｽ-2" x="109.15" y="1.48" width="2.83" height="113.39"/><path class="cls-2" d="M40.29,142.21l.44-.06a1,1,0,0,0,.25.54.72.72,0,0,0,1-.06.72.72,0,0,0,.21-.53.68.68,0,0,0-.19-.5.7.7,0,0,0-.51-.19,1,1,0,0,0-.31.05l.05-.39h.07a.89.89,0,0,0,.51-.14.5.5,0,0,0,.22-.45.52.52,0,0,0-.16-.4.57.57,0,0,0-.42-.16.59.59,0,0,0-.43.16.83.83,0,0,0-.22.48l-.44-.08a1.11,1.11,0,0,1,.37-.68,1.05,1.05,0,0,1,.71-.24,1.25,1.25,0,0,1,.54.12.9.9,0,0,1,.37.35.82.82,0,0,1,.13.46.79.79,0,0,1-.12.42.8.8,0,0,1-.37.3.79.79,0,0,1,.49.31.88.88,0,0,1,.18.57,1.05,1.05,0,0,1-.34.8,1.2,1.2,0,0,1-.87.32,1.12,1.12,0,0,1-.78-.28A1.06,1.06,0,0,1,40.29,142.21Z" transform="translate(0.01 -22.61)"/><path class="cls-2" d="M43.06,141.38a3.17,3.17,0,0,1,.14-1,1.24,1.24,0,0,1,.38-.59,1,1,0,0,1,.65-.21.95.95,0,0,1,.87.45,2,2,0,0,1,.22.53,3.72,3.72,0,0,1,.08.84,3.2,3.2,0,0,1-.13,1,1.31,1.31,0,0,1-.39.6,1,1,0,0,1-.65.21,1,1,0,0,1-.81-.37A2.33,2.33,0,0,1,43.06,141.38Zm.46,0a2.38,2.38,0,0,0,.2,1.18.59.59,0,0,0,1,0,2.25,2.25,0,0,0,.21-1.18,2.2,2.2,0,0,0-.21-1.17.62.62,0,0,0-.51-.29.58.58,0,0,0-.49.26A2.26,2.26,0,0,0,43.52,141.38Z" transform="translate(0.01 -22.61)"/><path class="cls-2" d="M45.82,141.38a3.2,3.2,0,0,1,.13-1,1.24,1.24,0,0,1,.38-.59,1,1,0,0,1,.65-.21.95.95,0,0,1,.87.45,1.73,1.73,0,0,1,.22.53,3.72,3.72,0,0,1,.08.84,3.2,3.2,0,0,1-.13,1,1.31,1.31,0,0,1-.39.6,1,1,0,0,1-.65.21,1,1,0,0,1-.81-.37A2.34,2.34,0,0,1,45.82,141.38Zm.45,0a2.38,2.38,0,0,0,.2,1.18.59.59,0,0,0,1,0,2.25,2.25,0,0,0,.21-1.18,2.2,2.2,0,0,0-.21-1.17.62.62,0,0,0-.51-.29.58.58,0,0,0-.49.26A2.26,2.26,0,0,0,46.27,141.38Z" transform="translate(0.01 -22.61)"/><path class="cls-2" d="M48.63,141.38a3.2,3.2,0,0,1,.13-1,1.18,1.18,0,0,1,.39-.59,1,1,0,0,1,.64-.21,1,1,0,0,1,.51.11,1.06,1.06,0,0,1,.36.34,1.73,1.73,0,0,1,.22.53,3.72,3.72,0,0,1,.08.84,3.2,3.2,0,0,1-.13,1,1.23,1.23,0,0,1-.39.6,1.09,1.09,0,0,1-1.46-.16A2.34,2.34,0,0,1,48.63,141.38Zm.45,0a2.38,2.38,0,0,0,.2,1.18.59.59,0,0,0,1,0,2.25,2.25,0,0,0,.21-1.18,2.2,2.2,0,0,0-.21-1.17.62.62,0,0,0-.51-.29.59.59,0,0,0-.49.26A2.26,2.26,0,0,0,49.08,141.38Z" transform="translate(0.01 -22.61)"/><path class="cls-2" d="M69.76,140.45l-.43,0a.8.8,0,0,0-.17-.37.58.58,0,0,0-.44-.19.67.67,0,0,0-.37.11,1,1,0,0,0-.33.45,2.22,2.22,0,0,0-.12.82.93.93,0,0,1,.39-.35,1,1,0,0,1,.48-.12,1,1,0,0,1,.75.32,1.21,1.21,0,0,1,.31.84,1.32,1.32,0,0,1-.15.62,1,1,0,0,1-1,.6,1.12,1.12,0,0,1-.9-.4,2.06,2.06,0,0,1-.35-1.33,2.34,2.34,0,0,1,.39-1.51,1.08,1.08,0,0,1,.9-.41,1,1,0,0,1,.69.23A1,1,0,0,1,69.76,140.45ZM68,142a1.12,1.12,0,0,0,.09.44.82.82,0,0,0,.27.31.72.72,0,0,0,.37.11.64.64,0,0,0,.48-.22.92.92,0,0,0,.2-.62.83.83,0,0,0-.2-.58.7.7,0,0,0-1,0A.76.76,0,0,0,68,142Z" transform="translate(0.01 -22.61)"/><path class="cls-2" d="M70.29,141.38a3.52,3.52,0,0,1,.13-1,1.33,1.33,0,0,1,.39-.59,1,1,0,0,1,.65-.21,1.06,1.06,0,0,1,.51.11,1,1,0,0,1,.35.34,1.73,1.73,0,0,1,.23.53,3.72,3.72,0,0,1,.08.84,3.52,3.52,0,0,1-.13,1,1.31,1.31,0,0,1-.39.6,1,1,0,0,1-.65.21,1,1,0,0,1-.81-.37A2.33,2.33,0,0,1,70.29,141.38Zm.45,0a2.25,2.25,0,0,0,.21,1.18.59.59,0,0,0,1,0,2.25,2.25,0,0,0,.21-1.18,2.2,2.2,0,0,0-.21-1.17.63.63,0,0,0-.52-.29.56.56,0,0,0-.48.26A2.24,2.24,0,0,0,70.74,141.38Z" transform="translate(0.01 -22.61)"/><path class="cls-2" d="M73,141.38a3.52,3.52,0,0,1,.13-1,1.33,1.33,0,0,1,.39-.59,1,1,0,0,1,.65-.21,1.06,1.06,0,0,1,.51.11,1,1,0,0,1,.35.34,1.73,1.73,0,0,1,.23.53,3.72,3.72,0,0,1,.08.84,3.52,3.52,0,0,1-.13,1,1.31,1.31,0,0,1-.39.6,1,1,0,0,1-.65.21,1,1,0,0,1-.81-.37A2.33,2.33,0,0,1,73,141.38Zm.46,0a2.27,2.27,0,0,0,.2,1.18.59.59,0,0,0,1,0,2.25,2.25,0,0,0,.21-1.18,2.2,2.2,0,0,0-.21-1.17.62.62,0,0,0-.51-.29.57.57,0,0,0-.49.26A2.26,2.26,0,0,0,73.5,141.38Z" transform="translate(0.01 -22.61)"/><path class="cls-2" d="M75.85,141.38a3.52,3.52,0,0,1,.13-1,1.33,1.33,0,0,1,.39-.59,1,1,0,0,1,.65-.21.95.95,0,0,1,.87.45,2,2,0,0,1,.22.53,3.72,3.72,0,0,1,.08.84,3.2,3.2,0,0,1-.13,1,1.31,1.31,0,0,1-.39.6,1,1,0,0,1-.65.21,1,1,0,0,1-.81-.37A2.33,2.33,0,0,1,75.85,141.38Zm.46,0a2.27,2.27,0,0,0,.2,1.18.59.59,0,0,0,1,0,2.25,2.25,0,0,0,.21-1.18,2.2,2.2,0,0,0-.21-1.17.62.62,0,0,0-.51-.29.57.57,0,0,0-.49.26A2.26,2.26,0,0,0,76.31,141.38Z" transform="translate(0.01 -22.61)"/><path class="cls-2" d="M94.75,142.32l.42,0a.73.73,0,0,0,.2.44.61.61,0,0,0,.39.13.71.71,0,0,0,.36-.09,1,1,0,0,0,.25-.25,1.42,1.42,0,0,0,.16-.42,2.42,2.42,0,0,0,.07-.54s0-.05,0-.08a.91.91,0,0,1-.36.34,1,1,0,0,1-.49.13,1,1,0,0,1-.75-.33,1.14,1.14,0,0,1-.31-.85,1.21,1.21,0,0,1,.32-.87,1.06,1.06,0,0,1,.8-.33,1.13,1.13,0,0,1,1.08.72,2.65,2.65,0,0,1,.15,1,3.25,3.25,0,0,1-.15,1.09,1.26,1.26,0,0,1-.44.62,1.17,1.17,0,0,1-.69.21.94.94,0,0,1-1-.89Zm1.79-1.58a.84.84,0,0,0-.2-.6.61.61,0,0,0-.48-.22.65.65,0,0,0-.51.24.87.87,0,0,0-.22.62.74.74,0,0,0,.21.55.64.64,0,0,0,.51.22.63.63,0,0,0,.5-.22A.84.84,0,0,0,96.54,140.74Z" transform="translate(0.01 -22.61)"/><path class="cls-2" d="M97.46,141.38a3.2,3.2,0,0,1,.13-1,1.28,1.28,0,0,1,.39-.59,1.14,1.14,0,0,1,1.15-.1.9.9,0,0,1,.36.34,1.51,1.51,0,0,1,.22.53,4.23,4.23,0,0,1,0,1.86,1.22,1.22,0,0,1-.38.6,1.1,1.1,0,0,1-1.47-.16A2.41,2.41,0,0,1,97.46,141.38Zm.45,0a2.25,2.25,0,0,0,.21,1.18.59.59,0,0,0,1,0,2.38,2.38,0,0,0,.2-1.18,2.34,2.34,0,0,0-.2-1.17.63.63,0,0,0-.52-.29.56.56,0,0,0-.48.26A2.24,2.24,0,0,0,97.91,141.38Z" transform="translate(0.01 -22.61)"/><path class="cls-2" d="M100.27,141.38a3.2,3.2,0,0,1,.13-1,1.28,1.28,0,0,1,.39-.59,1.14,1.14,0,0,1,1.15-.1.9.9,0,0,1,.36.34,1.51,1.51,0,0,1,.22.53,3.22,3.22,0,0,1,.08.84,3.56,3.56,0,0,1-.12,1,1.31,1.31,0,0,1-.39.6,1.1,1.1,0,0,1-1.47-.16A2.41,2.41,0,0,1,100.27,141.38Zm.45,0a2.25,2.25,0,0,0,.21,1.18.59.59,0,0,0,1,0,2.38,2.38,0,0,0,.2-1.18,2.34,2.34,0,0,0-.2-1.17.63.63,0,0,0-.52-.29.56.56,0,0,0-.48.26A2.24,2.24,0,0,0,100.72,141.38Z" transform="translate(0.01 -22.61)"/><path class="cls-2" d="M103.08,141.38a3.52,3.52,0,0,1,.13-1,1.28,1.28,0,0,1,.39-.59,1.14,1.14,0,0,1,1.15-.1.9.9,0,0,1,.36.34,1.73,1.73,0,0,1,.23.53,3.72,3.72,0,0,1,.08.84,3.52,3.52,0,0,1-.13,1,1.31,1.31,0,0,1-.39.6,1,1,0,0,1-.65.21,1,1,0,0,1-.81-.37A2.33,2.33,0,0,1,103.08,141.38Zm.45,0a2.25,2.25,0,0,0,.21,1.18.59.59,0,0,0,1,0,2.27,2.27,0,0,0,.2-1.18,2.23,2.23,0,0,0-.2-1.17.63.63,0,0,0-.52-.29.56.56,0,0,0-.48.26A2.24,2.24,0,0,0,103.53,141.38Z" transform="translate(0.01 -22.61)"/><rect class="邱喟0.5pt-6" x="18.44" y="1.48" width="90.71" height="113.39"/><path class="cls-2" d="M104.76,147.4h-.44v-2.8a2.54,2.54,0,0,1-.42.3,2.45,2.45,0,0,1-.46.23v-.42a3,3,0,0,0,.64-.42,1.58,1.58,0,0,0,.39-.48h.29Z" transform="translate(0.01 -22.61)"/><path class="cls-2" d="M105.88,145.64a3.23,3.23,0,0,1,.13-1,1.33,1.33,0,0,1,.39-.59,1,1,0,0,1,.65-.21,1.12,1.12,0,0,1,.5.11.9.9,0,0,1,.36.34,1.51,1.51,0,0,1,.22.53,3.25,3.25,0,0,1,.08.85,3.44,3.44,0,0,1-.12,1,1.31,1.31,0,0,1-.39.6,1.1,1.1,0,0,1-1.47-.16A2.39,2.39,0,0,1,105.88,145.64Zm.45,0a2.2,2.2,0,0,0,.21,1.17.59.59,0,0,0,1,0,3.55,3.55,0,0,0,0-2.35.63.63,0,0,0-.52-.29.56.56,0,0,0-.48.26A2.28,2.28,0,0,0,106.33,145.64Z" transform="translate(0.01 -22.61)"/><path class="cls-2" d="M108.66,145.64a3.23,3.23,0,0,1,.13-1,1.33,1.33,0,0,1,.39-.59,1,1,0,0,1,.65-.21,1.12,1.12,0,0,1,.5.11.9.9,0,0,1,.36.34,1.51,1.51,0,0,1,.22.53,3.19,3.19,0,0,1,.09.85,3.39,3.39,0,0,1-.13,1,1.31,1.31,0,0,1-.39.6,1,1,0,0,1-.65.21,1,1,0,0,1-.81-.37A2.32,2.32,0,0,1,108.66,145.64Zm.45,0a2.2,2.2,0,0,0,.21,1.17.59.59,0,0,0,1,0,3.55,3.55,0,0,0,0-2.35.63.63,0,0,0-.52-.29.56.56,0,0,0-.48.26A2.28,2.28,0,0,0,109.11,145.64Z" transform="translate(0.01 -22.61)"/><path class="cls-2" d="M111.44,145.64a3.54,3.54,0,0,1,.13-1A1.33,1.33,0,0,1,112,144a1,1,0,0,1,.65-.21,1.12,1.12,0,0,1,.5.11.9.9,0,0,1,.36.34,1.73,1.73,0,0,1,.23.53,3.76,3.76,0,0,1,.08.85,3.39,3.39,0,0,1-.13,1,1.31,1.31,0,0,1-.39.6,1,1,0,0,1-.65.21,1,1,0,0,1-.81-.37A2.32,2.32,0,0,1,111.44,145.64Zm.45,0a2.2,2.2,0,0,0,.21,1.17.59.59,0,0,0,1,0,3.55,3.55,0,0,0,0-2.35.63.63,0,0,0-.52-.29.56.56,0,0,0-.48.26A2.28,2.28,0,0,0,111.89,145.64Z" transform="translate(0.01 -22.61)"/><path class="cls-2" d="M114.22,145.64a3.54,3.54,0,0,1,.13-1,1.33,1.33,0,0,1,.39-.59,1,1,0,0,1,.65-.21,1.19,1.19,0,0,1,.51.11,1,1,0,0,1,.35.34,1.73,1.73,0,0,1,.23.53,3.76,3.76,0,0,1,.08.85,3.39,3.39,0,0,1-.13,1,1.31,1.31,0,0,1-.39.6,1,1,0,0,1-.65.21,1,1,0,0,1-.81-.37A2.32,2.32,0,0,1,114.22,145.64Zm.45,0a2.2,2.2,0,0,0,.21,1.17.59.59,0,0,0,1,0,3.39,3.39,0,0,0,0-2.35.63.63,0,0,0-.52-.29.56.56,0,0,0-.48.26A2.28,2.28,0,0,0,114.67,145.64Z" transform="translate(0.01 -22.61)"/></g><g id="English"><rect class="繝後Μ_逋ｽ-2" x="19.15" y="22.23" width="47.91" height="16.72"/><path class="cls-2" d="M20.93,49.73l.58,0a1.32,1.32,0,0,0,.19.57,1,1,0,0,0,.47.36,1.8,1.8,0,0,0,.71.14,1.64,1.64,0,0,0,.62-.11.91.91,0,0,0,.41-.28A.73.73,0,0,0,24,50a.57.57,0,0,0-.13-.38.93.93,0,0,0-.42-.28,7.32,7.32,0,0,0-.83-.22,4,4,0,0,1-.89-.3,1.19,1.19,0,0,1-.5-.43,1,1,0,0,1-.16-.58,1.16,1.16,0,0,1,.2-.66,1.18,1.18,0,0,1,.58-.46,2.15,2.15,0,0,1,.85-.16,2.4,2.4,0,0,1,.92.17,1.27,1.27,0,0,1,.6.49,1.4,1.4,0,0,1,.23.73l-.59,0a1,1,0,0,0-.32-.66,1.24,1.24,0,0,0-.81-.23,1.3,1.3,0,0,0-.82.21.6.6,0,0,0-.25.49.51.51,0,0,0,.18.41,2.52,2.52,0,0,0,.93.34,6.61,6.61,0,0,1,1,.29,1.48,1.48,0,0,1,.6.48,1.14,1.14,0,0,1,.19.66,1.27,1.27,0,0,1-.21.7,1.4,1.4,0,0,1-.61.51,2.19,2.19,0,0,1-.9.18,2.76,2.76,0,0,1-1.06-.18,1.52,1.52,0,0,1-.67-.56A1.56,1.56,0,0,1,20.93,49.73Z" transform="translate(0.01 -22.61)"/><path class="cls-2" d="M25.4,51.22V46.57H26v1.67a1.27,1.27,0,0,1,1-.46,1.45,1.45,0,0,1,.65.14.93.93,0,0,1,.4.41,1.88,1.88,0,0,1,.12.76v2.13h-.58V49.09a.91.91,0,0,0-.18-.63.7.7,0,0,0-.53-.19.85.85,0,0,0-.47.13.74.74,0,0,0-.32.36,1.48,1.48,0,0,0-.1.62v1.84Z" transform="translate(0.01 -22.61)"/><path class="cls-2" d="M28.8,49.54a1.76,1.76,0,0,1,.52-1.39,1.58,1.58,0,0,1,1.06-.37,1.53,1.53,0,0,1,1.14.45A1.74,1.74,0,0,1,32,49.49a2.38,2.38,0,0,1-.19,1,1.45,1.45,0,0,1-.57.58,1.64,1.64,0,0,1-.82.21,1.48,1.48,0,0,1-1.14-.46A1.79,1.79,0,0,1,28.8,49.54Zm.59,0a1.44,1.44,0,0,0,.28,1,.93.93,0,0,0,.71.32.91.91,0,0,0,.71-.32,1.48,1.48,0,0,0,.28-1,1.4,1.4,0,0,0-.28-1,.95.95,0,0,0-1.42,0A1.42,1.42,0,0,0,29.39,49.54Z" transform="translate(0.01 -22.61)"/><path class="cls-2" d="M32.62,51.22V47.85h.52v.51a1.41,1.41,0,0,1,.36-.47.6.6,0,0,1,.37-.11,1.09,1.09,0,0,1,.58.18l-.19.53a.84.84,0,0,0-.42-.12.51.51,0,0,0-.34.11.58.58,0,0,0-.21.31,2.35,2.35,0,0,0-.1.67v1.76Z" transform="translate(0.01 -22.61)"/><path class="cls-2" d="M36,50.71l.08.51a2.37,2.37,0,0,1-.43.05,1,1,0,0,1-.48-.1.6.6,0,0,1-.24-.26,1.94,1.94,0,0,1-.07-.67V48.3h-.42v-.45h.42V47l.57-.35v1.18H36v.45h-.57v2a1,1,0,0,0,0,.31.21.21,0,0,0,.1.11.34.34,0,0,0,.19,0A1.24,1.24,0,0,0,36,50.71Z" transform="translate(0.01 -22.61)"/><path class="cls-2" d="M36.38,49.83v-.58h1.75v.58Z" transform="translate(0.01 -22.61)"/><path class="cls-2" d="M41,51.22V50.8a1.05,1.05,0,0,1-.94.5,1.37,1.37,0,0,1-.74-.22,1.53,1.53,0,0,1-.53-.62,2.25,2.25,0,0,1-.18-.92,2.29,2.29,0,0,1,.17-.92,1.37,1.37,0,0,1,.5-.63,1.42,1.42,0,0,1,.75-.21,1.2,1.2,0,0,1,.55.12,1.24,1.24,0,0,1,.38.34V46.57h.57v4.65Zm-1.8-1.68a1.5,1.5,0,0,0,.27,1,.83.83,0,0,0,.64.32.81.81,0,0,0,.64-.31,1.41,1.41,0,0,0,.26-.93,1.59,1.59,0,0,0-.27-1,.81.81,0,0,0-.65-.32.78.78,0,0,0-.64.31A1.54,1.54,0,0,0,39.15,49.54Z" transform="translate(0.01 -22.61)"/><path class="cls-2" d="M44.59,51.22v-.49a1.23,1.23,0,0,1-1.07.57,1.31,1.31,0,0,1-.56-.12.88.88,0,0,1-.38-.28,1.12,1.12,0,0,1-.18-.43,3.33,3.33,0,0,1,0-.53V47.85h.57v1.87a3.77,3.77,0,0,0,0,.6.68.68,0,0,0,.23.36.75.75,0,0,0,.43.13,1.05,1.05,0,0,0,.49-.13.72.72,0,0,0,.31-.36,1.66,1.66,0,0,0,.1-.66V47.85h.57v3.37Z" transform="translate(0.01 -22.61)"/><path class="cls-2" d="M46,51.22V47.85h.51v.51a1.29,1.29,0,0,1,.37-.47.59.59,0,0,1,.36-.11,1.15,1.15,0,0,1,.59.18l-.2.53a.84.84,0,0,0-.42-.12.51.51,0,0,0-.33.11.65.65,0,0,0-.22.31,2.36,2.36,0,0,0-.09.67v1.76Z" transform="translate(0.01 -22.61)"/><path class="cls-2" d="M50.36,50.81a2.32,2.32,0,0,1-.61.38,1.9,1.9,0,0,1-.63.11,1.25,1.25,0,0,1-.86-.27.93.93,0,0,1-.29-.7.88.88,0,0,1,.11-.45.92.92,0,0,1,.29-.33,1.38,1.38,0,0,1,.41-.18l.51-.09a5.33,5.33,0,0,0,1-.2v-.15a.63.63,0,0,0-.16-.49.94.94,0,0,0-.65-.19,1,1,0,0,0-.59.14.83.83,0,0,0-.29.5l-.56-.08a1.48,1.48,0,0,1,.25-.58,1.2,1.2,0,0,1,.51-.34,2.21,2.21,0,0,1,.76-.11,2,2,0,0,1,.71.1.8.8,0,0,1,.57.64,3.08,3.08,0,0,1,0,.53v.76a9.89,9.89,0,0,0,0,1,1.49,1.49,0,0,0,.15.4h-.6A1.23,1.23,0,0,1,50.36,50.81Zm0-1.28a4,4,0,0,1-.93.22,2.12,2.12,0,0,0-.5.11.48.48,0,0,0-.23.19.5.5,0,0,0-.08.27.48.48,0,0,0,.18.38.73.73,0,0,0,.5.15,1.25,1.25,0,0,0,.59-.14.92.92,0,0,0,.38-.4,1.41,1.41,0,0,0,.09-.57Z" transform="translate(0.01 -22.61)"/><path class="cls-2" d="M53,50.71l.08.51a2.37,2.37,0,0,1-.43.05,1,1,0,0,1-.48-.1.6.6,0,0,1-.24-.26,1.94,1.94,0,0,1-.07-.67V48.3h-.42v-.45h.42V47l.57-.35v1.18H53v.45h-.57v2a1,1,0,0,0,0,.31.21.21,0,0,0,.1.11.34.34,0,0,0,.19,0A1.24,1.24,0,0,0,53,50.71Z" transform="translate(0.01 -22.61)"/><path class="cls-2" d="M53.58,47.23v-.66h.57v.66Zm0,4V47.85h.57v3.37Z" transform="translate(0.01 -22.61)"/><path class="cls-2" d="M54.81,49.54a1.73,1.73,0,0,1,.52-1.39,1.58,1.58,0,0,1,1.06-.37,1.53,1.53,0,0,1,1.14.45A1.74,1.74,0,0,1,58,49.49a2.22,2.22,0,0,1-.2,1,1.42,1.42,0,0,1-.56.58,1.64,1.64,0,0,1-.82.21,1.48,1.48,0,0,1-1.14-.46A1.79,1.79,0,0,1,54.81,49.54Zm.59,0a1.44,1.44,0,0,0,.28,1,.93.93,0,0,0,.71.32.91.91,0,0,0,.71-.32,1.48,1.48,0,0,0,.28-1,1.4,1.4,0,0,0-.28-1,.95.95,0,0,0-1.42,0A1.42,1.42,0,0,0,55.4,49.54Z" transform="translate(0.01 -22.61)"/><path class="cls-2" d="M58.64,51.22V47.85h.51v.48a1.22,1.22,0,0,1,1.08-.55,1.47,1.47,0,0,1,.56.1,1,1,0,0,1,.38.29,1.33,1.33,0,0,1,.18.42,3.6,3.6,0,0,1,0,.56v2.07h-.57v-2a1.66,1.66,0,0,0-.07-.52.5.5,0,0,0-.24-.28.71.71,0,0,0-.39-.1.92.92,0,0,0-.63.23,1.14,1.14,0,0,0-.27.88v1.84Z" transform="translate(0.01 -22.61)"/><path class="cls-2" d="M21.06,59V55.65h.51v.51a1.29,1.29,0,0,1,.37-.47.59.59,0,0,1,.36-.11,1.15,1.15,0,0,1,.59.18l-.2.53a.84.84,0,0,0-.42-.12.51.51,0,0,0-.33.11.65.65,0,0,0-.22.31,2.36,2.36,0,0,0-.09.67V59Z" transform="translate(0.01 -22.61)"/><path class="cls-2" d="M25.44,59v-.49a1.23,1.23,0,0,1-1.07.57,1.31,1.31,0,0,1-.56-.12.88.88,0,0,1-.38-.28,1,1,0,0,1-.18-.43,3.33,3.33,0,0,1,0-.53V55.65h.57v1.87a3.77,3.77,0,0,0,0,.6.63.63,0,0,0,.23.36.75.75,0,0,0,.43.13,1,1,0,0,0,.48-.13.7.7,0,0,0,.32-.36,1.66,1.66,0,0,0,.1-.66V55.65H26V59Z" transform="translate(0.01 -22.61)"/><path class="cls-2" d="M26.84,59V55.65h.52v.48a1.2,1.2,0,0,1,1.07-.55,1.47,1.47,0,0,1,.56.1.89.89,0,0,1,.38.29,1,1,0,0,1,.18.42,3.6,3.6,0,0,1,0,.56V59H29V57a1.41,1.41,0,0,0-.07-.52.53.53,0,0,0-.23-.28.74.74,0,0,0-.4-.1,1,1,0,0,0-.63.23,1.14,1.14,0,0,0-.26.88V59Z" transform="translate(0.01 -22.61)"/><path class="cls-2" d="M30.46,59V55.65H31v.48a1.22,1.22,0,0,1,1.08-.55,1.47,1.47,0,0,1,.56.1A1,1,0,0,1,33,56a1.33,1.33,0,0,1,.18.42,3.6,3.6,0,0,1,0,.56V59h-.57V57a1.66,1.66,0,0,0-.07-.52.5.5,0,0,0-.24-.28.71.71,0,0,0-.39-.1,1,1,0,0,0-.64.23,1.18,1.18,0,0,0-.26.88V59Z" transform="translate(0.01 -22.61)"/><path class="cls-2" d="M34.08,55v-.66h.57V55Zm0,4V55.65h.57V59Z" transform="translate(0.01 -22.61)"/><path class="cls-2" d="M35.52,59V55.65H36v.48a1.21,1.21,0,0,1,1.07-.55,1.52,1.52,0,0,1,.57.1,1,1,0,0,1,.38.29,1.33,1.33,0,0,1,.18.42,3.6,3.6,0,0,1,0,.56V59h-.57V57a1.66,1.66,0,0,0-.07-.52.55.55,0,0,0-.24-.28.72.72,0,0,0-.4-.1,1,1,0,0,0-.63.23,1.18,1.18,0,0,0-.26.88V59Z" transform="translate(0.01 -22.61)"/><path class="cls-2" d="M39,59.3l.55.08a.54.54,0,0,0,.2.38,1,1,0,0,0,.58.16,1.05,1.05,0,0,0,.61-.16.82.82,0,0,0,.29-.45,3.07,3.07,0,0,0,0-.73,1.15,1.15,0,0,1-.93.44,1.28,1.28,0,0,1-1.08-.5,1.93,1.93,0,0,1-.38-1.2,2.18,2.18,0,0,1,.18-.89,1.37,1.37,0,0,1,.5-.63,1.39,1.39,0,0,1,.78-.22,1.22,1.22,0,0,1,1,.48v-.41h.52v2.92a2.7,2.7,0,0,1-.16,1.11,1.14,1.14,0,0,1-.5.52,1.76,1.76,0,0,1-.86.19,1.59,1.59,0,0,1-1-.27A.91.91,0,0,1,39,59.3Zm.47-2a1.47,1.47,0,0,0,.26,1,.87.87,0,0,0,1.32,0,1.79,1.79,0,0,0,0-1.89.86.86,0,0,0-.66-.31.81.81,0,0,0-.65.31A1.35,1.35,0,0,0,39.5,57.28Z" transform="translate(0.01 -22.61)"/><path class="cls-2" d="M44.55,59V55.65h.51v.51a1.29,1.29,0,0,1,.37-.47.59.59,0,0,1,.36-.11,1.15,1.15,0,0,1,.59.18l-.2.53a.84.84,0,0,0-.42-.12.51.51,0,0,0-.33.11.65.65,0,0,0-.22.31,2.36,2.36,0,0,0-.09.67V59Z" transform="translate(0.01 -22.61)"/><path class="cls-2" d="M48.92,58.61a2.32,2.32,0,0,1-.61.38,1.9,1.9,0,0,1-.63.11,1.25,1.25,0,0,1-.86-.27.91.91,0,0,1-.3-.7.89.89,0,0,1,.12-.45.92.92,0,0,1,.29-.33,1.38,1.38,0,0,1,.41-.18,4.57,4.57,0,0,1,.51-.09,5.33,5.33,0,0,0,1-.2v-.15a.63.63,0,0,0-.16-.49.94.94,0,0,0-.65-.19,1,1,0,0,0-.59.14.83.83,0,0,0-.29.5l-.56-.08a1.48,1.48,0,0,1,.25-.58,1.2,1.2,0,0,1,.51-.34,2.21,2.21,0,0,1,.76-.11,1.92,1.92,0,0,1,.7.1.86.86,0,0,1,.4.25.83.83,0,0,1,.18.39,3.08,3.08,0,0,1,0,.53v.76a9.89,9.89,0,0,0,0,1,1.49,1.49,0,0,0,.15.4H49A1,1,0,0,1,48.92,58.61Zm-.05-1.28a4,4,0,0,1-.93.22,2.12,2.12,0,0,0-.5.11.48.48,0,0,0-.23.19.5.5,0,0,0-.08.27.48.48,0,0,0,.18.38.73.73,0,0,0,.5.15,1.25,1.25,0,0,0,.59-.14.92.92,0,0,0,.38-.4,1.41,1.41,0,0,0,.09-.57Z" transform="translate(0.01 -22.61)"/><path class="cls-2" d="M50.33,59V55.65h.52v.48a1.19,1.19,0,0,1,1.07-.55,1.47,1.47,0,0,1,.56.1.89.89,0,0,1,.38.29,1,1,0,0,1,.18.42,3.6,3.6,0,0,1,0,.56V59H52.5V57a1.41,1.41,0,0,0-.07-.52.53.53,0,0,0-.23-.28.77.77,0,0,0-.4-.1,1,1,0,0,0-.63.23,1.14,1.14,0,0,0-.27.88V59Z" transform="translate(0.01 -22.61)"/><path class="cls-2" d="M53.84,59.3l.56.08a.53.53,0,0,0,.19.38,1,1,0,0,0,.58.16,1.09,1.09,0,0,0,.62-.16.82.82,0,0,0,.29-.45,3.76,3.76,0,0,0,0-.73,1.15,1.15,0,0,1-.93.44,1.25,1.25,0,0,1-1.08-.5,1.93,1.93,0,0,1-.38-1.2,2.35,2.35,0,0,1,.17-.89,1.46,1.46,0,0,1,.51-.63,1.35,1.35,0,0,1,.78-.22,1.2,1.2,0,0,1,1,.48v-.41h.53v2.92a2.7,2.7,0,0,1-.16,1.11,1.22,1.22,0,0,1-.51.52,1.72,1.72,0,0,1-.85.19,1.63,1.63,0,0,1-1-.27A.93.93,0,0,1,53.84,59.3Zm.48-2a1.41,1.41,0,0,0,.26,1,.83.83,0,0,0,.66.31.85.85,0,0,0,.66-.3,1.42,1.42,0,0,0,.27-1,1.35,1.35,0,0,0-.28-.94.85.85,0,0,0-1.31,0A1.4,1.4,0,0,0,54.32,57.28Z" transform="translate(0.01 -22.61)"/><path class="cls-2" d="M59.87,57.94l.59.07a1.39,1.39,0,0,1-.52.8,1.54,1.54,0,0,1-1,.29,1.51,1.51,0,0,1-1.17-.46,1.77,1.77,0,0,1-.44-1.27,1.86,1.86,0,0,1,.44-1.32A1.46,1.46,0,0,1,59,55.58a1.41,1.41,0,0,1,1.1.46,1.78,1.78,0,0,1,.43,1.29v.15H58a1.27,1.27,0,0,0,.32.85.92.92,0,0,0,.7.3.89.89,0,0,0,.54-.17A1.09,1.09,0,0,0,59.87,57.94ZM58,57h1.89a1.14,1.14,0,0,0-.22-.63.88.88,0,0,0-.71-.33.89.89,0,0,0-.66.26A1,1,0,0,0,58,57Z" transform="translate(0.01 -22.61)"/><rect class="繝後Μ_逋ｽ-2" x="19.89" y="99.99" width="41.46" height="14.17"/><path class="cls-2" d="M24.56,126.12l.61.16a2.11,2.11,0,0,1-.69,1.16,2,2,0,0,1-1.23.4,2.26,2.26,0,0,1-1.23-.31,1.92,1.92,0,0,1-.71-.89,3.07,3.07,0,0,1-.25-1.25,2.66,2.66,0,0,1,.28-1.26,1.84,1.84,0,0,1,.79-.82,2.29,2.29,0,0,1,1.13-.29,1.89,1.89,0,0,1,1.17.36,1.81,1.81,0,0,1,.66,1l-.6.14a1.51,1.51,0,0,0-.47-.74,1.31,1.31,0,0,0-.78-.23,1.51,1.51,0,0,0-.89.26,1.37,1.37,0,0,0-.51.69,2.73,2.73,0,0,0-.15.89,2.76,2.76,0,0,0,.18,1,1.27,1.27,0,0,0,.54.66,1.45,1.45,0,0,0,.79.22,1.31,1.31,0,0,0,.87-.3A1.54,1.54,0,0,0,24.56,126.12Z" transform="translate(0.01 -22.61)"/><path class="cls-2" d="M25.65,126.07a1.74,1.74,0,0,1,.52-1.39,1.56,1.56,0,0,1,1.06-.37,1.48,1.48,0,0,1,1.13.46A1.69,1.69,0,0,1,28.8,126a2.25,2.25,0,0,1-.19,1,1.39,1.39,0,0,1-.57.58,1.73,1.73,0,0,1-.81.2,1.52,1.52,0,0,1-1.15-.45A1.82,1.82,0,0,1,25.65,126.07Zm.58,0a1.42,1.42,0,0,0,.29,1,.94.94,0,0,0,1.41,0,1.48,1.48,0,0,0,.29-1,1.4,1.4,0,0,0-.29-1,.94.94,0,0,0-1.41,0A1.44,1.44,0,0,0,26.23,126.07Z" transform="translate(0.01 -22.61)"/><path class="cls-2" d="M29.47,127.76v-3.37H30v.47a1.19,1.19,0,0,1,1.07-.55,1.47,1.47,0,0,1,.56.11.82.82,0,0,1,.38.29.9.9,0,0,1,.18.42,3.37,3.37,0,0,1,0,.55v2.08h-.57v-2.05a1.44,1.44,0,0,0-.07-.53.54.54,0,0,0-.23-.27.77.77,0,0,0-.4-.11.92.92,0,0,0-.63.24,1.11,1.11,0,0,0-.27.88v1.84Z" transform="translate(0.01 -22.61)"/><path class="cls-2" d="M34.34,127.24l.08.51a2.47,2.47,0,0,1-.43,0,1,1,0,0,1-.49-.1.55.55,0,0,1-.24-.26,2.19,2.19,0,0,1-.07-.67v-1.94h-.42v-.44h.42v-.84l.57-.34v1.18h.58v.44h-.58v2a1.08,1.08,0,0,0,0,.32.26.26,0,0,0,.1.11.49.49,0,0,0,.19,0Z" transform="translate(0.01 -22.61)"/><path class="cls-2" d="M34.9,123.76v-.66h.57v.66Zm0,4v-3.37h.57v3.37Z" transform="translate(0.01 -22.61)"/><path class="cls-2" d="M36.34,127.76v-3.37h.51v.47a1.22,1.22,0,0,1,1.08-.55,1.51,1.51,0,0,1,.56.11.88.88,0,0,1,.38.29,1.16,1.16,0,0,1,.18.42,3.37,3.37,0,0,1,0,.55v2.08h-.57v-2.05a1.69,1.69,0,0,0-.07-.53.57.57,0,0,0-.24-.27.72.72,0,0,0-.4-.11.92.92,0,0,0-.63.24,1.15,1.15,0,0,0-.26.88v1.84Z" transform="translate(0.01 -22.61)"/><path class="cls-2" d="M42.16,127.76v-.5a1.23,1.23,0,0,1-1.07.57,1.42,1.42,0,0,1-.55-.11.93.93,0,0,1-.39-.29A1.06,1.06,0,0,1,40,127a2.4,2.4,0,0,1,0-.54v-2.08h.57v1.86a2.79,2.79,0,0,0,0,.61.54.54,0,0,0,.23.35.67.67,0,0,0,.43.13.91.91,0,0,0,.48-.13.74.74,0,0,0,.32-.36,1.86,1.86,0,0,0,.09-.66v-1.8h.57v3.37Z" transform="translate(0.01 -22.61)"/><path class="cls-2" d="M43.36,126.07a1.74,1.74,0,0,1,.52-1.39,1.56,1.56,0,0,1,1.06-.37,1.48,1.48,0,0,1,1.13.46,1.69,1.69,0,0,1,.44,1.25,2.25,2.25,0,0,1-.19,1,1.39,1.39,0,0,1-.57.58,1.73,1.73,0,0,1-.81.2,1.52,1.52,0,0,1-1.15-.45A1.82,1.82,0,0,1,43.36,126.07Zm.58,0a1.42,1.42,0,0,0,.29,1,.94.94,0,0,0,1.41,0,1.48,1.48,0,0,0,.29-1,1.4,1.4,0,0,0-.29-1,.94.94,0,0,0-1.41,0A1.44,1.44,0,0,0,43.94,126.07Z" transform="translate(0.01 -22.61)"/><path class="cls-2" d="M49.39,127.76v-.5a1.23,1.23,0,0,1-1.07.57,1.42,1.42,0,0,1-.55-.11.93.93,0,0,1-.39-.29,1.06,1.06,0,0,1-.17-.42,2.4,2.4,0,0,1,0-.54v-2.08h.57v1.86a2.79,2.79,0,0,0,0,.61.54.54,0,0,0,.23.35.67.67,0,0,0,.43.13.91.91,0,0,0,.48-.13.74.74,0,0,0,.32-.36,1.86,1.86,0,0,0,.09-.66v-1.8h.57v3.37Z" transform="translate(0.01 -22.61)"/><path class="cls-2" d="M50.57,126.75l.56-.09a.8.8,0,0,0,.27.52.92.92,0,0,0,.61.18.87.87,0,0,0,.58-.16.47.47,0,0,0,.19-.37.35.35,0,0,0-.17-.31,2.47,2.47,0,0,0-.58-.19,5.22,5.22,0,0,1-.87-.28.78.78,0,0,1-.37-.32.85.85,0,0,1-.13-.45.88.88,0,0,1,.11-.42,1,1,0,0,1,.28-.32,1.21,1.21,0,0,1,.36-.16,1.63,1.63,0,0,1,.5-.07,2.08,2.08,0,0,1,.69.11,1,1,0,0,1,.45.31,1.22,1.22,0,0,1,.19.53l-.56.07a.57.57,0,0,0-.22-.4.78.78,0,0,0-.51-.15.89.89,0,0,0-.56.13.37.37,0,0,0-.17.3.29.29,0,0,0,.07.2.48.48,0,0,0,.22.16l.5.14a7.37,7.37,0,0,1,.85.27.85.85,0,0,1,.37.3.84.84,0,0,1,.14.49.93.93,0,0,1-.17.53,1,1,0,0,1-.48.39,1.61,1.61,0,0,1-.71.14,1.59,1.59,0,0,1-1-.27A1.24,1.24,0,0,1,50.57,126.75Z" transform="translate(0.01 -22.61)"/><path class="cls-2" d="M21.16,135.56v-3.37h.51v.51a1.34,1.34,0,0,1,.37-.48.66.66,0,0,1,.36-.11,1.15,1.15,0,0,1,.59.18l-.2.53a.84.84,0,0,0-.42-.12.57.57,0,0,0-.33.11.68.68,0,0,0-.22.32,2.29,2.29,0,0,0-.09.66v1.77Z" transform="translate(0.01 -22.61)"/><path class="cls-2" d="M25.54,135.56v-.5a1.23,1.23,0,0,1-1.07.57,1.47,1.47,0,0,1-.56-.11.89.89,0,0,1-.38-.29.94.94,0,0,1-.18-.42,3.48,3.48,0,0,1,0-.54v-2.08h.57v1.86a4,4,0,0,0,0,.61.57.57,0,0,0,.23.35.69.69,0,0,0,.43.13.91.91,0,0,0,.48-.13.7.7,0,0,0,.32-.36,1.63,1.63,0,0,0,.1-.66v-1.8h.57v3.37Z" transform="translate(0.01 -22.61)"/><path class="cls-2" d="M26.94,135.56v-3.37h.52v.47a1.2,1.2,0,0,1,1.07-.55,1.47,1.47,0,0,1,.56.11.82.82,0,0,1,.38.29.9.9,0,0,1,.18.42,3.37,3.37,0,0,1,0,.55v2.08h-.57v-2.05A1.44,1.44,0,0,0,29,133a.54.54,0,0,0-.23-.27.75.75,0,0,0-.4-.11.92.92,0,0,0-.63.24,1.11,1.11,0,0,0-.26.88v1.84Z" transform="translate(0.01 -22.61)"/><path class="cls-2" d="M30.56,135.56v-3.37h.51v.47a1.22,1.22,0,0,1,1.08-.55,1.47,1.47,0,0,1,.56.11.88.88,0,0,1,.38.29,1.16,1.16,0,0,1,.18.42,3.37,3.37,0,0,1,0,.55v2.08h-.57v-2.05a1.69,1.69,0,0,0-.07-.53.52.52,0,0,0-.24-.27.71.71,0,0,0-.39-.11.93.93,0,0,0-.64.24,1.15,1.15,0,0,0-.26.88v1.84Z" transform="translate(0.01 -22.61)"/><path class="cls-2" d="M34.18,131.56v-.66h.57v.66Zm0,4v-3.37h.57v3.37Z" transform="translate(0.01 -22.61)"/><path class="cls-2" d="M35.62,135.56v-3.37h.51v.47a1.21,1.21,0,0,1,1.07-.55,1.52,1.52,0,0,1,.57.11.88.88,0,0,1,.38.29,1.16,1.16,0,0,1,.18.42,3.37,3.37,0,0,1,0,.55v2.08h-.57v-2.05a1.69,1.69,0,0,0-.07-.53.57.57,0,0,0-.24-.27.72.72,0,0,0-.4-.11.92.92,0,0,0-.63.24,1.15,1.15,0,0,0-.26.88v1.84Z" transform="translate(0.01 -22.61)"/><path class="cls-2" d="M39.13,135.84l.55.08a.54.54,0,0,0,.2.37.91.91,0,0,0,.58.16,1,1,0,0,0,.61-.16.76.76,0,0,0,.29-.44,3.17,3.17,0,0,0,0-.74,1.16,1.16,0,0,1-.93.45,1.28,1.28,0,0,1-1.08-.51,1.93,1.93,0,0,1-.38-1.2,2.18,2.18,0,0,1,.18-.89,1.37,1.37,0,0,1,.5-.63,1.39,1.39,0,0,1,.78-.22,1.22,1.22,0,0,1,1,.48v-.4H42v2.91a2.75,2.75,0,0,1-.16,1.12,1.12,1.12,0,0,1-.5.51,1.76,1.76,0,0,1-.86.19,1.59,1.59,0,0,1-1-.27A.9.9,0,0,1,39.13,135.84Zm.47-2a1.52,1.52,0,0,0,.26,1,.85.85,0,0,0,.66.3.83.83,0,0,0,.66-.3,1.77,1.77,0,0,0,0-1.88.87.87,0,0,0-.66-.32.84.84,0,0,0-.65.31A1.37,1.37,0,0,0,39.6,133.81Z" transform="translate(0.01 -22.61)"/><path class="cls-2" d="M44.65,135.56v-3.37h.51v.51a1.34,1.34,0,0,1,.37-.48.66.66,0,0,1,.36-.11,1.15,1.15,0,0,1,.59.18l-.2.53a.84.84,0,0,0-.42-.12.57.57,0,0,0-.33.11.68.68,0,0,0-.22.32,2.29,2.29,0,0,0-.09.66v1.77Z" transform="translate(0.01 -22.61)"/><path class="cls-2" d="M49,135.14a2.08,2.08,0,0,1-.61.38,1.67,1.67,0,0,1-.63.11,1.25,1.25,0,0,1-.86-.27.89.89,0,0,1-.3-.69,1,1,0,0,1,.41-.78,1.18,1.18,0,0,1,.41-.19,4.57,4.57,0,0,1,.51-.09,5.49,5.49,0,0,0,1-.19v-.15a.61.61,0,0,0-.16-.49.94.94,0,0,0-.65-.2,1,1,0,0,0-.59.14.87.87,0,0,0-.29.5l-.56-.07a1.48,1.48,0,0,1,.25-.58,1.12,1.12,0,0,1,.51-.34,2.2,2.2,0,0,1,.76-.12,1.92,1.92,0,0,1,.7.1.87.87,0,0,1,.4.26.79.79,0,0,1,.18.38,3.16,3.16,0,0,1,0,.53v.76a9.75,9.75,0,0,0,0,1,1.56,1.56,0,0,0,.15.41h-.6A1.08,1.08,0,0,1,49,135.14ZM49,133.86a4,4,0,0,1-.93.22,2.12,2.12,0,0,0-.5.11.62.62,0,0,0-.23.19.5.5,0,0,0-.08.27.48.48,0,0,0,.18.38.73.73,0,0,0,.5.15,1.15,1.15,0,0,0,.59-.14.92.92,0,0,0,.38-.4,1.35,1.35,0,0,0,.09-.57Z" transform="translate(0.01 -22.61)"/><path class="cls-2" d="M50.43,135.56v-3.37H51v.47a1.19,1.19,0,0,1,1.07-.55,1.47,1.47,0,0,1,.56.11.82.82,0,0,1,.38.29.9.9,0,0,1,.18.42,3.37,3.37,0,0,1,0,.55v2.08H52.6v-2.05a1.44,1.44,0,0,0-.07-.53.54.54,0,0,0-.23-.27.77.77,0,0,0-.4-.11.92.92,0,0,0-.63.24,1.11,1.11,0,0,0-.27.88v1.84Z" transform="translate(0.01 -22.61)"/><path class="cls-2" d="M53.94,135.84l.56.08a.53.53,0,0,0,.19.37.93.93,0,0,0,.58.16,1,1,0,0,0,.62-.16.76.76,0,0,0,.29-.44,3.89,3.89,0,0,0,0-.74,1.16,1.16,0,0,1-.93.45,1.26,1.26,0,0,1-1.08-.51,1.93,1.93,0,0,1-.38-1.2A2.35,2.35,0,0,1,54,133a1.46,1.46,0,0,1,.51-.63,1.35,1.35,0,0,1,.78-.22,1.2,1.2,0,0,1,1,.48v-.4h.53v2.91a2.75,2.75,0,0,1-.16,1.12,1.2,1.2,0,0,1-.51.51,1.72,1.72,0,0,1-.85.19,1.63,1.63,0,0,1-1-.27A.92.92,0,0,1,53.94,135.84Zm.48-2a1.46,1.46,0,0,0,.26,1,.88.88,0,0,0,1.32,0,1.4,1.4,0,0,0,.27-.95,1.34,1.34,0,0,0-.28-.93.84.84,0,0,0-.66-.32.86.86,0,0,0-.65.31A1.42,1.42,0,0,0,54.42,133.81Z" transform="translate(0.01 -22.61)"/><path class="cls-2" d="M60,134.47l.59.07a1.39,1.39,0,0,1-.52.81,1.76,1.76,0,0,1-2.13-.17,1.79,1.79,0,0,1-.44-1.28,1.86,1.86,0,0,1,.44-1.32,1.49,1.49,0,0,1,1.14-.47,1.41,1.41,0,0,1,1.1.46,1.81,1.81,0,0,1,.43,1.29V134H58.06a1.29,1.29,0,0,0,.32.85,1,1,0,0,0,.7.29.89.89,0,0,0,.54-.16A1.12,1.12,0,0,0,60,134.47Zm-1.88-.92H60a1.15,1.15,0,0,0-.22-.64.88.88,0,0,0-.71-.33.93.93,0,0,0-.66.26A1.05,1.05,0,0,0,58.09,133.55Z" transform="translate(0.01 -22.61)"/><path class="cls-2" d="M4.64,98.27H.54V99.8H0V96.11H.54v1.54h4.1Z" transform="translate(0.01 -22.61)"/><path class="cls-2" d="M3,95.77a1.75,1.75,0,0,1-1.38-.52,1.58,1.58,0,0,1-.38-1.06,1.5,1.5,0,0,1,.46-1.14,1.74,1.74,0,0,1,1.26-.44,2.38,2.38,0,0,1,1,.19,1.45,1.45,0,0,1,.58.57,1.64,1.64,0,0,1,.21.82,1.52,1.52,0,0,1-.46,1.14A1.82,1.82,0,0,1,3,95.77Zm0-.59a1.41,1.41,0,0,0,1-.28.91.91,0,0,0,.33-.71.89.89,0,0,0-.33-.71,1.45,1.45,0,0,0-1-.28,1.37,1.37,0,0,0-.94.28A.95.95,0,0,0,2,94.9,1.39,1.39,0,0,0,3,95.18Z" transform="translate(0.01 -22.61)"/><path class="cls-2" d="M4.64,92H1.27v-.52h.51a1.31,1.31,0,0,1-.47-.36.61.61,0,0,1-.12-.37,1,1,0,0,1,.19-.58l.53.19a.76.76,0,0,0-.13.42.52.52,0,0,0,.12.34.54.54,0,0,0,.31.21,2.28,2.28,0,0,0,.66.1H4.64Z" transform="translate(0.01 -22.61)"/><path class="cls-2" d="M5.93,87.63H4.28a1,1,0,0,1,.31.37,1.14,1.14,0,0,1,.13.51,1.34,1.34,0,0,1-.48,1A1.9,1.9,0,0,1,2.92,90,2.21,2.21,0,0,1,2,89.8a1.33,1.33,0,0,1-.82-1.25,1.14,1.14,0,0,1,.53-1H1.27v-.51H5.93Zm-3,1.76a1.51,1.51,0,0,0,1-.27.81.81,0,0,0,0-1.29A1.46,1.46,0,0,0,3,87.57a1.57,1.57,0,0,0-1,.28.83.83,0,0,0-.34.65.79.79,0,0,0,.32.63A1.55,1.55,0,0,0,2.94,89.39Z" transform="translate(0.01 -22.61)"/><path class="cls-2" d="M4.64,84h-.5A1.24,1.24,0,0,1,4.72,85a1.31,1.31,0,0,1-.12.56.89.89,0,0,1-.29.38,1,1,0,0,1-.42.18,3.33,3.33,0,0,1-.53,0H1.27V85.6H3.14a3.77,3.77,0,0,0,.6,0,.62.62,0,0,0,.35-.23.69.69,0,0,0,.13-.43,1,1,0,0,0-.13-.49.72.72,0,0,0-.36-.31,1.63,1.63,0,0,0-.66-.1H1.27v-.57H4.64Z" transform="translate(0.01 -22.61)"/><path class="cls-2" d="M3.55,80.24l.08-.59a1.39,1.39,0,0,1,.8.52,1.72,1.72,0,0,1-.17,2.13A1.77,1.77,0,0,1,3,82.74a1.9,1.9,0,0,1-1.32-.44,1.49,1.49,0,0,1-.47-1.14,1.45,1.45,0,0,1,.46-1.1A1.82,1.82,0,0,1,3,79.63H3.1v2.52A1.34,1.34,0,0,0,4,81.83a.92.92,0,0,0,.3-.7.89.89,0,0,0-.17-.54A1.12,1.12,0,0,0,3.55,80.24Zm-.92,1.87V80.23a1.18,1.18,0,0,0-.64.22.88.88,0,0,0-.33.71.9.9,0,0,0,.27.66A1,1,0,0,0,2.63,82.11Z" transform="translate(0.01 -22.61)"/><path class="cls-2" d="M5.93,77.11H0V75.85H.46v.69h5v-.69h.47Z" transform="translate(0.01 -22.61)"/><path class="cls-2" d="M4.64,75.25H0v-.63l3.65-2.44H0v-.59H4.64v.63L1,74.66H4.64Z" transform="translate(0.01 -22.61)"/><path class="cls-2" d="M2.36,70.71a.78.78,0,0,1-.57-.24.81.81,0,0,1-.23-.57.77.77,0,0,1,.23-.56.8.8,0,0,1,1.14,0,.74.74,0,0,1,.24.56.82.82,0,0,1-.81.81Z" transform="translate(0.01 -22.61)"/><path class="cls-2" d="M4.64,68.35H1.27v-.51h.47a1.34,1.34,0,0,1-.4-.42,1.21,1.21,0,0,1-.15-.6,1.08,1.08,0,0,1,.16-.62.86.86,0,0,1,.43-.34,1.2,1.2,0,0,1-.59-1,1.05,1.05,0,0,1,.28-.77,1.2,1.2,0,0,1,.86-.27H4.64v.57H2.52a1.49,1.49,0,0,0-.5.06.42.42,0,0,0-.24.2.62.62,0,0,0-.09.34.82.82,0,0,0,.23.59,1,1,0,0,0,.76.24h2v.57H2.45a.91.91,0,0,0-.57.14.51.51,0,0,0-.19.45.89.89,0,0,0,.12.45.77.77,0,0,0,.38.3,2.08,2.08,0,0,0,.7.09H4.64Z" transform="translate(0.01 -22.61)"/><path class="cls-2" d="M5.93,62v1.26H5.46v-.69h-5v.69H0V62Z" transform="translate(0.01 -22.61)"/><path class="cls-2" d="M44.76,150.56l.58-.06a1.32,1.32,0,0,0,.19.58,1,1,0,0,0,.47.36,1.8,1.8,0,0,0,.71.14,1.67,1.67,0,0,0,.62-.11.91.91,0,0,0,.41-.28.76.76,0,0,0,.13-.4.59.59,0,0,0-.13-.39.92.92,0,0,0-.42-.27c-.12,0-.4-.12-.83-.23a4.15,4.15,0,0,1-.89-.29,1.19,1.19,0,0,1-.5-.43,1.06,1.06,0,0,1-.16-.58,1.16,1.16,0,0,1,.2-.66,1.18,1.18,0,0,1,.58-.46,2.11,2.11,0,0,1,.85-.16,2.4,2.4,0,0,1,.92.16,1.4,1.4,0,0,1,.6.49,1.47,1.47,0,0,1,.23.74l-.59,0a1,1,0,0,0-.32-.66,1.24,1.24,0,0,0-.81-.23,1.37,1.37,0,0,0-.82.2.63.63,0,0,0-.25.5.52.52,0,0,0,.18.41,2.39,2.39,0,0,0,.93.33,7.58,7.58,0,0,1,1,.3,1.39,1.39,0,0,1,.6.47,1.19,1.19,0,0,1,.19.67,1.3,1.3,0,0,1-.21.7,1.4,1.4,0,0,1-.61.51,2.19,2.19,0,0,1-.9.18,2.76,2.76,0,0,1-1.06-.18,1.52,1.52,0,0,1-.92-1.39Z" transform="translate(0.01 -22.61)"/><path class="cls-2" d="M49.23,153.34v-4.66h.52v.44a1.29,1.29,0,0,1,.42-.39,1.19,1.19,0,0,1,.56-.13,1.34,1.34,0,0,1,.76.23,1.29,1.29,0,0,1,.5.62,2.35,2.35,0,0,1,.17.89,2.3,2.3,0,0,1-.19.93,1.36,1.36,0,0,1-.54.64,1.45,1.45,0,0,1-.74.22,1.11,1.11,0,0,1-.52-.12,1.42,1.42,0,0,1-.37-.31v1.64Zm.52-3a1.46,1.46,0,0,0,.26,1,.84.84,0,0,0,.64.31.82.82,0,0,0,.65-.33,1.5,1.5,0,0,0,.27-1,1.56,1.56,0,0,0-.26-1,.79.79,0,0,0-1.28,0A1.52,1.52,0,0,0,49.75,150.38Z" transform="translate(0.01 -22.61)"/><path class="cls-2" d="M55.15,151l.59.08a1.39,1.39,0,0,1-.52.8,1.72,1.72,0,0,1-2.13-.17,1.77,1.77,0,0,1-.44-1.28,1.9,1.9,0,0,1,.44-1.32,1.49,1.49,0,0,1,1.14-.47,1.45,1.45,0,0,1,1.1.46,1.82,1.82,0,0,1,.43,1.3v.15H53.24a1.34,1.34,0,0,0,.32.85.92.92,0,0,0,.7.3.89.89,0,0,0,.54-.17A1.07,1.07,0,0,0,55.15,151ZM53.28,150h1.88a1.18,1.18,0,0,0-.22-.64.88.88,0,0,0-.71-.33.9.9,0,0,0-.66.27A1,1,0,0,0,53.28,150Z" transform="translate(0.01 -22.61)"/><path class="cls-2" d="M58.77,151l.59.08a1.5,1.5,0,0,1-.52.8,1.74,1.74,0,0,1-2.14-.17,1.77,1.77,0,0,1-.43-1.28,1.85,1.85,0,0,1,.44-1.32,1.58,1.58,0,0,1,2.24,0,1.87,1.87,0,0,1,.43,1.3s0,.08,0,.15H56.86a1.28,1.28,0,0,0,.31.85.94.94,0,0,0,.71.3.84.84,0,0,0,.53-.17A1.08,1.08,0,0,0,58.77,151ZM56.89,150h1.88a1.1,1.1,0,0,0-.21-.64.88.88,0,0,0-.71-.33.9.9,0,0,0-.66.27A1,1,0,0,0,56.89,150Z" transform="translate(0.01 -22.61)"/><path class="cls-2" d="M62.26,152.05v-.43a1,1,0,0,1-.94.51,1.3,1.3,0,0,1-.74-.23,1.41,1.41,0,0,1-.53-.62,2.17,2.17,0,0,1-.18-.91,2.29,2.29,0,0,1,.17-.92,1.37,1.37,0,0,1,.5-.63,1.4,1.4,0,0,1,.75-.22,1.21,1.21,0,0,1,.55.13,1.24,1.24,0,0,1,.38.34V147.4h.57v4.65Zm-1.8-1.68a1.5,1.5,0,0,0,.27,1,.82.82,0,0,0,.64.32.84.84,0,0,0,.64-.31,1.43,1.43,0,0,0,.26-.93,1.58,1.58,0,0,0-.27-1,.82.82,0,0,0-1.29,0A1.52,1.52,0,0,0,60.46,150.37Z" transform="translate(0.01 -22.61)"/><path class="cls-2" d="M65.51,153.34V147.4h1.26v.47h-.69v5h.69v.47Z" transform="translate(0.01 -22.61)"/><path class="cls-2" d="M67.29,152.05v-3.37h.52v.51a1.31,1.31,0,0,1,.36-.47.63.63,0,0,1,.37-.12,1.08,1.08,0,0,1,.59.19l-.2.53a.76.76,0,0,0-.42-.13.54.54,0,0,0-.34.12.58.58,0,0,0-.21.31,2.31,2.31,0,0,0-.09.67v1.76Z" transform="translate(0.01 -22.61)"/><path class="cls-2" d="M69,152.13l1.35-4.81h.45l-1.34,4.81Z" transform="translate(0.01 -22.61)"/><path class="cls-2" d="M71.27,152.05v-3.37h.51v.47a1.34,1.34,0,0,1,.42-.4,1.21,1.21,0,0,1,.6-.15,1.16,1.16,0,0,1,.62.16.86.86,0,0,1,.34.43,1.2,1.2,0,0,1,1-.59,1.05,1.05,0,0,1,.77.28,1.2,1.2,0,0,1,.27.86v2.31h-.57v-2.12a1.49,1.49,0,0,0-.06-.5.42.42,0,0,0-.2-.24.62.62,0,0,0-.34-.09.82.82,0,0,0-.59.23,1,1,0,0,0-.23.76v2h-.58v-2.19a.92.92,0,0,0-.14-.57.51.51,0,0,0-.45-.19.81.81,0,0,0-.45.13.75.75,0,0,0-.3.37,2.08,2.08,0,0,0-.09.7v1.75Z" transform="translate(0.01 -22.61)"/><path class="cls-2" d="M76.69,148.05v-.65h.57v.65Zm0,4v-3.37h.57v3.37Z" transform="translate(0.01 -22.61)"/><path class="cls-2" d="M78.13,152.05v-3.37h.51v.48a1.23,1.23,0,0,1,1.08-.56,1.47,1.47,0,0,1,.56.11.89.89,0,0,1,.38.29,1.33,1.33,0,0,1,.18.42,3.51,3.51,0,0,1,0,.56v2.07H80.3V150a1.38,1.38,0,0,0-.07-.52.5.5,0,0,0-.24-.28.71.71,0,0,0-.39-.1.92.92,0,0,0-.63.23,1.13,1.13,0,0,0-.27.88v1.84Z" transform="translate(0.01 -22.61)"/><path class="cls-2" d="M82.7,153.34H81.44v-.47h.69v-5h-.69v-.47H82.7Z" transform="translate(0.01 -22.61)"/></g></svg>