<svg xmlns="http://www.w3.org/2000/svg" viewBox="0 0 116.63 130.9"><defs><style>.cls-1,.cls-3,.繝医Ν繧ｯ繧ｰ繝ｩ繝廟繧ｰ繝ｬ繝ｼ邱,.邱喟0\.5pt-6{fill:none;}.cls-1,.cls-3,.邱喟0\.5pt-6{stroke:#231815;}.cls-1{stroke-linejoin:round;stroke-width:0.14px;}.繝医Ν繧ｯ繧ｰ繝ｩ繝廟繧ｰ繝ｬ繝ｼ邱{stroke:#9fa0a0;stroke-width:3px;}.cls-2{fill:#231815;}.繝後Μ_逋ｽ-2{fill:#fff;}.邱喟0\.5pt-6{stroke-miterlimit:10;stroke-width:0.5px;}</style></defs><g id="Illust"><line class="cls-1" x1="45.52" y1="1.66" x2="45.52" y2="115.04"/><line class="cls-1" x1="72.59" y1="1.66" x2="72.59" y2="115.04"/><line class="cls-1" x1="99.67" y1="1.66" x2="99.67" y2="115.04"/><line class="cls-1" x1="18.45" y1="103.71" x2="109.15" y2="103.71"/><line class="cls-1" x1="18.45" y1="92.39" x2="109.15" y2="92.39"/><line class="cls-1" x1="18.45" y1="81.06" x2="109.15" y2="81.06"/><line class="cls-1" x1="18.45" y1="69.73" x2="109.15" y2="69.73"/><line class="cls-1" x1="18.45" y1="58.35" x2="109.15" y2="58.35"/><line class="cls-1" x1="18.45" y1="47.02" x2="109.15" y2="47.02"/><line class="cls-1" x1="18.45" y1="35.69" x2="109.15" y2="35.69"/><line class="cls-1" x1="18.45" y1="24.36" x2="109.15" y2="24.36"/><line class="cls-1" x1="18.45" y1="13.04" x2="109.15" y2="13.04"/><polyline class="繝医Ν繧ｯ繧ｰ繝ｩ繝廟繧ｰ繝ｬ繝ｼ邱" points="18.44 86.21 25.22 86.21 31.98 86.21 45.51 86.21 59.05 86.21 72.58 93.43 86.12 97.75 99.66 100.64 109.14 102.14"/><polyline class="繝医Ν繧ｯ繧ｰ繝ｩ繝廟繧ｰ繝ｬ繝ｼ邱" points="18.44 14.03 46.86 14.03 59.05 28.45 110.61 80.75"/><path class="cls-2" d="M10.23,137.84a3.2,3.2,0,0,1,.13-1,1.31,1.31,0,0,1,.39-.6,1.11,1.11,0,0,1,1.15-.09,1,1,0,0,1,.36.33,1.65,1.65,0,0,1,.22.54,4.23,4.23,0,0,1-.05,1.86,1.22,1.22,0,0,1-.38.6,1,1,0,0,1-.65.21,1,1,0,0,1-.82-.37A2.43,2.43,0,0,1,10.23,137.84Zm.45,0a2.18,2.18,0,0,0,.21,1.17.59.59,0,0,0,.51.3.61.61,0,0,0,.51-.3,3.52,3.52,0,0,0,0-2.34.6.6,0,0,0-.52-.29.56.56,0,0,0-.48.25A2.28,2.28,0,0,0,10.68,137.84Z" transform="translate(0.01 -22.44)"/><path class="cls-2" d="M13.29,139.61v-.5h.5v.5Z" transform="translate(0.01 -22.44)"/><path class="cls-2" d="M14.43,137.84a3.52,3.52,0,0,1,.13-1,1.31,1.31,0,0,1,.39-.6,1,1,0,0,1,.65-.21,1.07,1.07,0,0,1,.51.12,1.13,1.13,0,0,1,.36.33,2.25,2.25,0,0,1,.22.54,3.66,3.66,0,0,1,.08.84,3.2,3.2,0,0,1-.13,1,1.31,1.31,0,0,1-.39.6,1,1,0,0,1-.65.21,1,1,0,0,1-.81-.37A2.35,2.35,0,0,1,14.43,137.84Zm.46,0a2.31,2.31,0,0,0,.2,1.17.58.58,0,0,0,1,0,3.36,3.36,0,0,0,0-2.34.6.6,0,0,0-.51-.29.57.57,0,0,0-.49.25A2.3,2.3,0,0,0,14.89,137.84Z" transform="translate(0.01 -22.44)"/><path class="cls-2" d="M10.23,126.48a3.2,3.2,0,0,1,.13-1,1.31,1.31,0,0,1,.39-.6,1.11,1.11,0,0,1,1.15-.09,1,1,0,0,1,.36.33,1.65,1.65,0,0,1,.22.54,4.23,4.23,0,0,1-.05,1.86,1.22,1.22,0,0,1-.38.6,1,1,0,0,1-.65.21,1,1,0,0,1-.82-.37A2.43,2.43,0,0,1,10.23,126.48Zm.45,0a2.18,2.18,0,0,0,.21,1.17.59.59,0,0,0,.51.3.61.61,0,0,0,.51-.3,3.52,3.52,0,0,0,0-2.34.6.6,0,0,0-.52-.29.56.56,0,0,0-.48.25A2.28,2.28,0,0,0,10.68,126.48Z" transform="translate(0.01 -22.44)"/><path class="cls-2" d="M13.29,128.25v-.5h.5v.5Z" transform="translate(0.01 -22.44)"/><path class="cls-2" d="M14.43,127.31l.47,0a.87.87,0,0,0,.23.51.71.71,0,0,0,1-.07.89.89,0,0,0,.22-.64.8.8,0,0,0-.21-.59.71.71,0,0,0-.55-.22.76.76,0,0,0-.39.1.69.69,0,0,0-.26.25l-.42-.06.35-1.83h1.78v.42H15.21l-.19,1a1.15,1.15,0,0,1,.67-.23,1.08,1.08,0,0,1,.8.33,1.13,1.13,0,0,1,.32.83,1.28,1.28,0,0,1-.29.84,1.14,1.14,0,0,1-.94.44,1.11,1.11,0,0,1-.79-.28A1,1,0,0,1,14.43,127.31Z" transform="translate(0.01 -22.44)"/><path class="cls-2" d="M11.88,116.89h-.43v-2.8a2.54,2.54,0,0,1-.42.3,3.27,3.27,0,0,1-.46.23v-.43a2.37,2.37,0,0,0,.64-.42,1.59,1.59,0,0,0,.39-.47h.28Z" transform="translate(0.01 -22.44)"/><path class="cls-2" d="M13.29,116.89v-.5h.5v.5Z" transform="translate(0.01 -22.44)"/><path class="cls-2" d="M14.43,115.12a3.52,3.52,0,0,1,.13-1,1.28,1.28,0,0,1,.39-.59,1,1,0,0,1,.65-.21.95.95,0,0,1,.87.45,2,2,0,0,1,.22.53,3.72,3.72,0,0,1,.08.84,3.2,3.2,0,0,1-.13,1,1.31,1.31,0,0,1-.39.6,1,1,0,0,1-.65.21,1,1,0,0,1-.81-.37A2.33,2.33,0,0,1,14.43,115.12Zm.46,0a2.38,2.38,0,0,0,.2,1.18.59.59,0,0,0,1,0,2.25,2.25,0,0,0,.21-1.18,2.18,2.18,0,0,0-.21-1.17.62.62,0,0,0-.51-.29.56.56,0,0,0-.49.26A2.26,2.26,0,0,0,14.89,115.12Z" transform="translate(0.01 -22.44)"/><path class="cls-2" d="M11.88,105.53h-.43v-2.8A3.28,3.28,0,0,1,11,103a3.09,3.09,0,0,1-.46.22v-.42a3,3,0,0,0,.64-.42,1.75,1.75,0,0,0,.39-.48h.28Z" transform="translate(0.01 -22.44)"/><path class="cls-2" d="M13.29,105.53V105h.5v.5Z" transform="translate(0.01 -22.44)"/><path class="cls-2" d="M14.43,104.6l.47,0a.81.81,0,0,0,.23.5.63.63,0,0,0,.45.17.68.68,0,0,0,.54-.24.88.88,0,0,0,.22-.63.8.8,0,0,0-.21-.59.71.71,0,0,0-.55-.22.86.86,0,0,0-.39.09.78.78,0,0,0-.26.25l-.42,0,.35-1.84h1.78v.42H15.21l-.19,1a1.14,1.14,0,0,1,.67-.22,1.11,1.11,0,0,1,.8.32,1.17,1.17,0,0,1,.32.84,1.32,1.32,0,0,1-.29.84,1.13,1.13,0,0,1-.94.43,1.15,1.15,0,0,1-.79-.27A1,1,0,0,1,14.43,104.6Z" transform="translate(0.01 -22.44)"/><path class="cls-2" d="M12.54,93.75v.42H10.17a1,1,0,0,1,.05-.3,1.76,1.76,0,0,1,.29-.48,6.66,6.66,0,0,1,.58-.54,4.87,4.87,0,0,0,.79-.76.92.92,0,0,0,.2-.53.6.6,0,0,0-.18-.44.69.69,0,0,0-.49-.18.73.73,0,0,0-.51.19.72.72,0,0,0-.19.53l-.45,0a1.09,1.09,0,0,1,.35-.77,1.21,1.21,0,0,1,.81-.26,1.09,1.09,0,0,1,.81.29.92.92,0,0,1,.3.7,1.26,1.26,0,0,1-.08.43,1.69,1.69,0,0,1-.3.43,5.45,5.45,0,0,1-.67.63,5.24,5.24,0,0,0-.51.45,1.33,1.33,0,0,0-.19.24Z" transform="translate(0.01 -22.44)"/><path class="cls-2" d="M13.29,94.17v-.5h.5v.5Z" transform="translate(0.01 -22.44)"/><path class="cls-2" d="M14.43,92.41a3.42,3.42,0,0,1,.13-1,1.31,1.31,0,0,1,.39-.6,1,1,0,0,1,.65-.21,1.07,1.07,0,0,1,.51.12.94.94,0,0,1,.36.33,2.17,2.17,0,0,1,.22.53,3.76,3.76,0,0,1,.08.85,3.2,3.2,0,0,1-.13,1,1.33,1.33,0,0,1-.39.59,1,1,0,0,1-.65.21,1,1,0,0,1-.81-.37A2.3,2.3,0,0,1,14.43,92.41Zm.46,0a2.31,2.31,0,0,0,.2,1.17.59.59,0,0,0,1,0,3.39,3.39,0,0,0,0-2.35.62.62,0,0,0-.51-.29.58.58,0,0,0-.49.26A2.3,2.3,0,0,0,14.89,92.41Z" transform="translate(0.01 -22.44)"/><path class="cls-2" d="M12.54,82.4v.42H10.17a.94.94,0,0,1,.05-.3,1.62,1.62,0,0,1,.29-.48,4.54,4.54,0,0,1,.58-.54,4.87,4.87,0,0,0,.79-.76,1,1,0,0,0,.2-.53.6.6,0,0,0-.18-.44.77.77,0,0,0-1,0,.7.7,0,0,0-.19.53l-.45,0a1.08,1.08,0,0,1,.35-.77,1.16,1.16,0,0,1,.81-.26,1.13,1.13,0,0,1,.81.28.94.94,0,0,1,.3.71,1.25,1.25,0,0,1-.08.42,1.57,1.57,0,0,1-.3.44,7.63,7.63,0,0,1-.67.63,5.24,5.24,0,0,0-.51.45,1.33,1.33,0,0,0-.19.24Z" transform="translate(0.01 -22.44)"/><path class="cls-2" d="M13.29,82.82v-.5h.5v.5Z" transform="translate(0.01 -22.44)"/><path class="cls-2" d="M14.43,81.88l.47,0a.81.81,0,0,0,.23.51.71.71,0,0,0,1-.07.88.88,0,0,0,.22-.63.84.84,0,0,0-.21-.6.74.74,0,0,0-.55-.21.86.86,0,0,0-.39.09.78.78,0,0,0-.26.25l-.42-.05.35-1.84h1.78v.42H15.21l-.19,1a1.14,1.14,0,0,1,.67-.22,1.11,1.11,0,0,1,.8.32,1.17,1.17,0,0,1,.32.84,1.32,1.32,0,0,1-.29.84,1.13,1.13,0,0,1-.94.43,1.15,1.15,0,0,1-.79-.27A1.07,1.07,0,0,1,14.43,81.88Z" transform="translate(0.01 -22.44)"/><path class="cls-2" d="M10.23,70.52l.44-.06a1,1,0,0,0,.26.54.68.68,0,0,0,.44.16.71.71,0,0,0,.53-.22.72.72,0,0,0,.21-.53.69.69,0,0,0-.2-.5.68.68,0,0,0-.5-.19,1,1,0,0,0-.31,0l.05-.39h.07a.86.86,0,0,0,.5-.14.51.51,0,0,0,.23-.45.53.53,0,0,0-.17-.4.55.55,0,0,0-.42-.16.57.57,0,0,0-.42.16.77.77,0,0,0-.22.48l-.44-.08a1.1,1.1,0,0,1,.36-.68,1.07,1.07,0,0,1,.71-.24,1.19,1.19,0,0,1,.54.12,1,1,0,0,1,.38.34.88.88,0,0,1,.13.47.79.79,0,0,1-.12.42.85.85,0,0,1-.37.3.82.82,0,0,1,.49.31.88.88,0,0,1,.18.57,1.06,1.06,0,0,1-.35.8,1.2,1.2,0,0,1-.86.32,1.1,1.1,0,0,1-.78-.28A1.07,1.07,0,0,1,10.23,70.52Z" transform="translate(0.01 -22.44)"/><path class="cls-2" d="M13.29,71.46V71h.5v.5Z" transform="translate(0.01 -22.44)"/><path class="cls-2" d="M14.43,69.69a3.52,3.52,0,0,1,.13-1,1.28,1.28,0,0,1,.39-.59,1,1,0,0,1,.65-.21.95.95,0,0,1,.87.45,2,2,0,0,1,.22.53,3.72,3.72,0,0,1,.08.84,3.2,3.2,0,0,1-.13,1,1.31,1.31,0,0,1-.39.6,1,1,0,0,1-.65.21,1,1,0,0,1-.81-.37A2.33,2.33,0,0,1,14.43,69.69Zm.46,0a2.38,2.38,0,0,0,.2,1.18.59.59,0,0,0,1,0,2.25,2.25,0,0,0,.21-1.18,2.2,2.2,0,0,0-.21-1.17.62.62,0,0,0-.51-.29.58.58,0,0,0-.49.26A2.26,2.26,0,0,0,14.89,69.69Z" transform="translate(0.01 -22.44)"/><path class="cls-2" d="M10.23,59.16l.44-.06a1,1,0,0,0,.26.54.63.63,0,0,0,.44.16.74.74,0,0,0,.53-.21.72.72,0,0,0,.21-.53.67.67,0,0,0-.2-.5.69.69,0,0,0-.5-.2,1.4,1.4,0,0,0-.31,0l.05-.39h.07a.87.87,0,0,0,.5-.15.51.51,0,0,0,.23-.45.54.54,0,0,0-.17-.4.55.55,0,0,0-.42-.16.57.57,0,0,0-.42.16.77.77,0,0,0-.22.49l-.44-.08a1.1,1.1,0,0,1,.36-.69,1.18,1.18,0,0,1,1.25-.11.89.89,0,0,1,.51.8.76.76,0,0,1-.12.42.85.85,0,0,1-.37.3.87.87,0,0,1,.49.31.91.91,0,0,1,.18.58,1.05,1.05,0,0,1-.35.79,1.17,1.17,0,0,1-.86.33,1.15,1.15,0,0,1-.78-.28A1.09,1.09,0,0,1,10.23,59.16Z" transform="translate(0.01 -22.44)"/><path class="cls-2" d="M13.29,60.1v-.5h.5v.5Z" transform="translate(0.01 -22.44)"/><path class="cls-2" d="M14.43,59.17l.47,0a.81.81,0,0,0,.23.5.63.63,0,0,0,.45.17.68.68,0,0,0,.54-.24.88.88,0,0,0,.22-.63.8.8,0,0,0-.21-.59.71.71,0,0,0-.55-.22.86.86,0,0,0-.39.09.72.72,0,0,0-.26.26l-.42-.06.35-1.84h1.78V57H15.21L15,58a1.22,1.22,0,0,1,.67-.22,1.08,1.08,0,0,1,.8.33,1.13,1.13,0,0,1,.32.83,1.32,1.32,0,0,1-.29.84,1.13,1.13,0,0,1-.94.43,1.15,1.15,0,0,1-.79-.27A1,1,0,0,1,14.43,59.17Z" transform="translate(0.01 -22.44)"/><path class="cls-2" d="M11.64,48.75v-.86H10.09v-.4l1.63-2.32h.36v2.32h.48v.4h-.48v.86Zm0-1.26V45.87l-1.12,1.62Z" transform="translate(0.01 -22.44)"/><path class="cls-2" d="M13.29,48.75v-.5h.5v.5Z" transform="translate(0.01 -22.44)"/><path class="cls-2" d="M14.43,47a3.52,3.52,0,0,1,.13-1,1.31,1.31,0,0,1,.39-.6,1,1,0,0,1,.65-.21,1.07,1.07,0,0,1,.51.12,1.13,1.13,0,0,1,.36.33,2.25,2.25,0,0,1,.22.54,3.72,3.72,0,0,1,.08.84,3.2,3.2,0,0,1-.13,1,1.31,1.31,0,0,1-.39.6,1,1,0,0,1-.65.21,1,1,0,0,1-.81-.37A2.35,2.35,0,0,1,14.43,47Zm.46,0a2.38,2.38,0,0,0,.2,1.18.62.62,0,0,0,.51.29.61.61,0,0,0,.51-.3,3.36,3.36,0,0,0,0-2.34.6.6,0,0,0-.51-.29.57.57,0,0,0-.49.25A2.3,2.3,0,0,0,14.89,47Z" transform="translate(0.01 -22.44)"/><path class="cls-2" d="M11.64,37.39v-.86H10.09v-.4l1.63-2.32h.36v2.32h.48v.4h-.48v.86Zm0-1.26V34.51l-1.12,1.62Z" transform="translate(0.01 -22.44)"/><path class="cls-2" d="M13.29,37.39v-.5h.5v.5Z" transform="translate(0.01 -22.44)"/><path class="cls-2" d="M14.43,36.45l.47,0a.87.87,0,0,0,.23.51.71.71,0,0,0,1-.07.89.89,0,0,0,.22-.64.8.8,0,0,0-.21-.59.71.71,0,0,0-.55-.22.76.76,0,0,0-.39.1.69.69,0,0,0-.26.25l-.42-.06.35-1.83h1.78v.42H15.21l-.19,1a1.15,1.15,0,0,1,.67-.23,1.08,1.08,0,0,1,.8.33,1.13,1.13,0,0,1,.32.83,1.28,1.28,0,0,1-.29.84,1.14,1.14,0,0,1-.94.44,1.11,1.11,0,0,1-.79-.28A1,1,0,0,1,14.43,36.45Z" transform="translate(0.01 -22.44)"/><path class="cls-2" d="M10.23,25.1l.46,0a.82.82,0,0,0,.24.5.6.6,0,0,0,.45.17.71.71,0,0,0,.54-.24.93.93,0,0,0,.22-.63.8.8,0,0,0-.21-.59.75.75,0,0,0-.56-.22.79.79,0,0,0-.38.09.93.93,0,0,0-.27.25l-.41-.05.34-1.84h1.78v.42H11l-.2,1a1.17,1.17,0,0,1,.68-.22,1.09,1.09,0,0,1,.79.32,1.13,1.13,0,0,1,.32.84,1.31,1.31,0,0,1-.28.84,1.13,1.13,0,0,1-.94.43,1.17,1.17,0,0,1-.8-.27A1.08,1.08,0,0,1,10.23,25.1Z" transform="translate(0.01 -22.44)"/><path class="cls-2" d="M13.29,26v-.5h.5V26Z" transform="translate(0.01 -22.44)"/><path class="cls-2" d="M14.43,24.27a3.42,3.42,0,0,1,.13-1,1.31,1.31,0,0,1,.39-.6,1,1,0,0,1,.65-.21,1.07,1.07,0,0,1,.51.12.94.94,0,0,1,.36.33,2.17,2.17,0,0,1,.22.53,3.76,3.76,0,0,1,.08.85,3.2,3.2,0,0,1-.13,1,1.33,1.33,0,0,1-.39.59,1,1,0,0,1-.65.21,1,1,0,0,1-.81-.37A2.3,2.3,0,0,1,14.43,24.27Zm.46,0a2.31,2.31,0,0,0,.2,1.17.59.59,0,0,0,1,0,2.23,2.23,0,0,0,.21-1.17,2.25,2.25,0,0,0-.21-1.18.62.62,0,0,0-.51-.29.58.58,0,0,0-.49.26A2.3,2.3,0,0,0,14.89,24.27Z" transform="translate(0.01 -22.44)"/><path class="cls-2" d="M17.24,141.38a3.52,3.52,0,0,1,.13-1,1.28,1.28,0,0,1,.39-.59,1.14,1.14,0,0,1,1.15-.1.9.9,0,0,1,.36.34,1.73,1.73,0,0,1,.23.53,3.72,3.72,0,0,1,.08.84,3.52,3.52,0,0,1-.13,1,1.31,1.31,0,0,1-.39.6,1,1,0,0,1-.65.21,1,1,0,0,1-.81-.37A2.33,2.33,0,0,1,17.24,141.38Zm.45,0a2.25,2.25,0,0,0,.21,1.18.59.59,0,0,0,1,0,2.27,2.27,0,0,0,.2-1.18,2.23,2.23,0,0,0-.2-1.17.63.63,0,0,0-.52-.29.56.56,0,0,0-.48.26A2.24,2.24,0,0,0,17.69,141.38Z" transform="translate(0.01 -22.44)"/><path class="cls-2" d="M108.16,140.45l-.44,0a.71.71,0,0,0-.17-.37.56.56,0,0,0-.44-.19.61.61,0,0,0-.36.11,1,1,0,0,0-.33.45,2.41,2.41,0,0,0-.13.82,1,1,0,0,1,.39-.35,1,1,0,0,1,.48-.12,1,1,0,0,1,.75.32,1.16,1.16,0,0,1,.31.84,1.32,1.32,0,0,1-.15.62,1.08,1.08,0,0,1-.39.45,1.14,1.14,0,0,1-.58.15,1.12,1.12,0,0,1-.9-.4,2.07,2.07,0,0,1-.34-1.34,2.33,2.33,0,0,1,.38-1.5,1.08,1.08,0,0,1,.9-.41,1,1,0,0,1,1,.89Zm-1.8,1.54a.91.91,0,0,0,.1.43.7.7,0,0,0,.63.43.62.62,0,0,0,.48-.23.9.9,0,0,0,.2-.61.83.83,0,0,0-.2-.58.66.66,0,0,0-.5-.21.69.69,0,0,0-.5.21A.76.76,0,0,0,106.36,142Z" transform="translate(0.01 -22.44)"/><path class="cls-2" d="M108.72,140v-.42H111V140a4.41,4.41,0,0,0-.67,1,5.35,5.35,0,0,0-.52,1.24,4.17,4.17,0,0,0-.17,1h-.45a4.4,4.4,0,0,1,.16-1,5.42,5.42,0,0,1,.46-1.15,5.11,5.11,0,0,1,.63-.94Z" transform="translate(0.01 -22.44)"/><path class="cls-2" d="M111.47,141.38a3.2,3.2,0,0,1,.13-1,1.2,1.2,0,0,1,.39-.59,1,1,0,0,1,.64-.21,1,1,0,0,1,.51.11,1.06,1.06,0,0,1,.36.34,1.73,1.73,0,0,1,.22.53,3.72,3.72,0,0,1,.08.84,3.2,3.2,0,0,1-.13,1,1.22,1.22,0,0,1-.38.6,1,1,0,0,1-.66.21,1,1,0,0,1-.81-.37A2.41,2.41,0,0,1,111.47,141.38Zm.45,0a2.25,2.25,0,0,0,.21,1.18.58.58,0,0,0,1,0,2.25,2.25,0,0,0,.21-1.18,2.2,2.2,0,0,0-.21-1.17.61.61,0,0,0-.51-.29.56.56,0,0,0-.48.26A2.15,2.15,0,0,0,111.92,141.38Z" transform="translate(0.01 -22.44)"/><path class="cls-2" d="M114.28,141.38a3.2,3.2,0,0,1,.13-1,1.28,1.28,0,0,1,.39-.59,1.14,1.14,0,0,1,1.15-.1.9.9,0,0,1,.36.34,1.73,1.73,0,0,1,.22.53,4.23,4.23,0,0,1,0,1.86,1.22,1.22,0,0,1-.38.6,1,1,0,0,1-.65.21,1,1,0,0,1-.82-.37A2.41,2.41,0,0,1,114.28,141.38Zm.45,0a2.25,2.25,0,0,0,.21,1.18.58.58,0,0,0,1,0,2.25,2.25,0,0,0,.21-1.18,2.2,2.2,0,0,0-.21-1.17.6.6,0,0,0-.51-.29.56.56,0,0,0-.48.26A2.24,2.24,0,0,0,114.73,141.38Z" transform="translate(0.01 -22.44)"/><polyline class="cls-3" points="18.44 86.21 25.22 86.21 31.98 86.21 45.51 86.21 59.05 86.21 72.58 93.43 86.12 97.75 99.66 100.64 109.14 102.14"/><polyline class="cls-3" points="18.44 14.03 38.75 14.03 52.29 28.45 109.14 87.87"/><path class="cls-2" d="M42.3,142.73v.42H39.94a.6.6,0,0,1,.05-.3,1.43,1.43,0,0,1,.29-.48,3.81,3.81,0,0,1,.57-.54,4.87,4.87,0,0,0,.79-.76.88.88,0,0,0,.2-.53.6.6,0,0,0-.18-.44.77.77,0,0,0-1,0,.74.74,0,0,0-.19.53l-.45,0a1.12,1.12,0,0,1,.35-.77,1.37,1.37,0,0,1,1.63,0,.94.94,0,0,1,.3.71,1.06,1.06,0,0,1-.09.42,1.75,1.75,0,0,1-.29.44c-.14.15-.37.36-.68.63l-.51.45a1.25,1.25,0,0,0-.18.24Z" transform="translate(0.01 -22.44)"/><path class="cls-2" d="M42.8,141.39a3.54,3.54,0,0,1,.13-1,1.33,1.33,0,0,1,.39-.59,1,1,0,0,1,.65-.21,1.12,1.12,0,0,1,.5.11.9.9,0,0,1,.36.34,1.73,1.73,0,0,1,.23.53,3.76,3.76,0,0,1,.08.85,3.44,3.44,0,0,1-.13,1,1.31,1.31,0,0,1-.39.6,1,1,0,0,1-.65.21,1,1,0,0,1-.81-.37A2.32,2.32,0,0,1,42.8,141.39Zm.45,0a2.23,2.23,0,0,0,.21,1.17.59.59,0,0,0,1,0,3.55,3.55,0,0,0,0-2.35.63.63,0,0,0-.52-.29.56.56,0,0,0-.48.26A2.26,2.26,0,0,0,43.25,141.39Z" transform="translate(0.01 -22.44)"/><path class="cls-2" d="M45.55,141.39a3.54,3.54,0,0,1,.13-1,1.33,1.33,0,0,1,.39-.59,1,1,0,0,1,.65-.21,1.19,1.19,0,0,1,.51.11,1,1,0,0,1,.35.34,1.73,1.73,0,0,1,.23.53,3.76,3.76,0,0,1,.08.85,3.44,3.44,0,0,1-.13,1,1.31,1.31,0,0,1-.39.6,1,1,0,0,1-.65.21,1,1,0,0,1-.81-.37A2.32,2.32,0,0,1,45.55,141.39Zm.45,0a2.23,2.23,0,0,0,.21,1.17.59.59,0,0,0,1,0,3.39,3.39,0,0,0,0-2.35.63.63,0,0,0-.52-.29.56.56,0,0,0-.48.26A2.26,2.26,0,0,0,46,141.39Z" transform="translate(0.01 -22.44)"/><path class="cls-2" d="M48.36,141.39a3.54,3.54,0,0,1,.13-1,1.33,1.33,0,0,1,.39-.59,1,1,0,0,1,.65-.21,1.19,1.19,0,0,1,.51.11,1,1,0,0,1,.35.34,1.73,1.73,0,0,1,.23.53,3.76,3.76,0,0,1,.08.85,3.44,3.44,0,0,1-.13,1,1.31,1.31,0,0,1-.39.6,1,1,0,0,1-.65.21,1,1,0,0,1-.81-.37A2.32,2.32,0,0,1,48.36,141.39Zm.45,0a2.23,2.23,0,0,0,.21,1.17.59.59,0,0,0,1,0,3.39,3.39,0,0,0,0-2.35.62.62,0,0,0-.51-.29.57.57,0,0,0-.49.26A2.26,2.26,0,0,0,48.81,141.39Z" transform="translate(0.01 -22.44)"/><path class="cls-2" d="M68.34,143.15v-.86H66.79v-.4l1.63-2.32h.36v2.32h.49v.4h-.49v.86Zm0-1.26v-1.61l-1.12,1.61Z" transform="translate(0.01 -22.44)"/><path class="cls-2" d="M69.75,141.39a3.23,3.23,0,0,1,.13-1,1.18,1.18,0,0,1,.39-.59,1,1,0,0,1,.64-.21,1.16,1.16,0,0,1,.51.11,1.06,1.06,0,0,1,.36.34,1.73,1.73,0,0,1,.22.53,3.76,3.76,0,0,1,.08.85,3.14,3.14,0,0,1-.13,1,1.23,1.23,0,0,1-.39.6,1.09,1.09,0,0,1-1.46-.16A2.33,2.33,0,0,1,69.75,141.39Zm.45,0a2.36,2.36,0,0,0,.2,1.17.59.59,0,0,0,1,0,3.39,3.39,0,0,0,0-2.35.62.62,0,0,0-.51-.29.59.59,0,0,0-.49.26A2.28,2.28,0,0,0,70.2,141.39Z" transform="translate(0.01 -22.44)"/><path class="cls-2" d="M72.5,141.39a3.23,3.23,0,0,1,.13-1,1.18,1.18,0,0,1,.39-.59,1,1,0,0,1,.64-.21,1.16,1.16,0,0,1,.51.11,1.06,1.06,0,0,1,.36.34,1.73,1.73,0,0,1,.22.53,3.76,3.76,0,0,1,.08.85,3.14,3.14,0,0,1-.13,1,1.17,1.17,0,0,1-.39.6,1.09,1.09,0,0,1-1.46-.16A2.39,2.39,0,0,1,72.5,141.39Zm.45,0a2.36,2.36,0,0,0,.2,1.17.62.62,0,0,0,.51.29.6.6,0,0,0,.51-.29,3.39,3.39,0,0,0,0-2.35.61.61,0,0,0-.51-.29.56.56,0,0,0-.48.26A2.17,2.17,0,0,0,73,141.39Z" transform="translate(0.01 -22.44)"/><path class="cls-2" d="M75.31,141.39a3.23,3.23,0,0,1,.13-1,1.25,1.25,0,0,1,.39-.59,1,1,0,0,1,.64-.21,1.16,1.16,0,0,1,.51.11,1,1,0,0,1,.36.34,1.73,1.73,0,0,1,.22.53,3.76,3.76,0,0,1,.08.85,3.14,3.14,0,0,1-.13,1,1.22,1.22,0,0,1-.38.6,1,1,0,0,1-.66.21,1,1,0,0,1-.81-.37A2.39,2.39,0,0,1,75.31,141.39Zm.45,0a2.23,2.23,0,0,0,.21,1.17.58.58,0,0,0,1,0,3.39,3.39,0,0,0,0-2.35.61.61,0,0,0-.51-.29.56.56,0,0,0-.48.26A2.17,2.17,0,0,0,75.76,141.39Z" transform="translate(0.01 -22.44)"/><path class="cls-2" d="M96.12,140.45l-.43,0a.8.8,0,0,0-.17-.37.56.56,0,0,0-.44-.19.67.67,0,0,0-.37.11,1,1,0,0,0-.32.45,2.19,2.19,0,0,0-.13.82,1,1,0,0,1,.39-.35,1,1,0,0,1,.48-.12,1,1,0,0,1,.75.32,1.21,1.21,0,0,1,.31.84,1.32,1.32,0,0,1-.15.62,1,1,0,0,1-.4.45,1.1,1.1,0,0,1-.57.15,1.12,1.12,0,0,1-.9-.4,2.07,2.07,0,0,1-.35-1.34,2.32,2.32,0,0,1,.39-1.5,1.08,1.08,0,0,1,.9-.41,1,1,0,0,1,.69.23A1,1,0,0,1,96.12,140.45ZM94.33,142a.91.91,0,0,0,.1.43.7.7,0,0,0,.63.43.63.63,0,0,0,.48-.23.9.9,0,0,0,.2-.61.83.83,0,0,0-.2-.58.66.66,0,0,0-.5-.21.67.67,0,0,0-.5.21A.76.76,0,0,0,94.33,142Z" transform="translate(0.01 -22.44)"/><path class="cls-2" d="M96.65,141.38a3.52,3.52,0,0,1,.13-1,1.28,1.28,0,0,1,.39-.59,1,1,0,0,1,.65-.21.95.95,0,0,1,.87.45,2,2,0,0,1,.22.53,3.72,3.72,0,0,1,.08.84,3.2,3.2,0,0,1-.13,1,1.31,1.31,0,0,1-.39.6,1,1,0,0,1-.65.21,1,1,0,0,1-.81-.37A2.33,2.33,0,0,1,96.65,141.38Zm.46,0a2.27,2.27,0,0,0,.2,1.18.59.59,0,0,0,1,0,2.25,2.25,0,0,0,.21-1.18,2.2,2.2,0,0,0-.21-1.17.62.62,0,0,0-.51-.29.57.57,0,0,0-.49.26A2.26,2.26,0,0,0,97.11,141.38Z" transform="translate(0.01 -22.44)"/><path class="cls-2" d="M99.41,141.38a3.2,3.2,0,0,1,.13-1,1.19,1.19,0,0,1,.38-.59,1,1,0,0,1,.65-.21.95.95,0,0,1,.87.45,1.73,1.73,0,0,1,.22.53,3.72,3.72,0,0,1,.08.84,3.2,3.2,0,0,1-.13,1,1.31,1.31,0,0,1-.39.6,1,1,0,0,1-.65.21,1,1,0,0,1-.81-.37A2.34,2.34,0,0,1,99.41,141.38Zm.45,0a2.38,2.38,0,0,0,.2,1.18.59.59,0,0,0,1,0,2.25,2.25,0,0,0,.21-1.18,2.2,2.2,0,0,0-.21-1.17.62.62,0,0,0-.51-.29.58.58,0,0,0-.49.26A2.26,2.26,0,0,0,99.86,141.38Z" transform="translate(0.01 -22.44)"/><path class="cls-2" d="M102.22,141.38a3.2,3.2,0,0,1,.13-1,1.19,1.19,0,0,1,.38-.59,1,1,0,0,1,.65-.21.95.95,0,0,1,.87.45,1.73,1.73,0,0,1,.22.53,3.72,3.72,0,0,1,.08.84,3.2,3.2,0,0,1-.13,1,1.23,1.23,0,0,1-.39.6,1.09,1.09,0,0,1-1.46-.16A2.34,2.34,0,0,1,102.22,141.38Zm.45,0a2.38,2.38,0,0,0,.2,1.18.59.59,0,0,0,1,0,2.25,2.25,0,0,0,.21-1.18,2.2,2.2,0,0,0-.21-1.17.62.62,0,0,0-.51-.29.59.59,0,0,0-.49.26A2.26,2.26,0,0,0,102.67,141.38Z" transform="translate(0.01 -22.44)"/><rect class="繝後Μ_逋ｽ-2" x="109.15" y="1.66" width="2.83" height="113.39"/><rect class="邱喟0.5pt-6" x="18.44" y="1.66" width="90.71" height="113.39"/></g><g id="English"><path class="cls-2" d="M4.64,98.27H.54V99.8H0V96.11H.54v1.54h4.1Z" transform="translate(0.01 -22.44)"/><path class="cls-2" d="M3,95.77a1.75,1.75,0,0,1-1.38-.52,1.58,1.58,0,0,1-.38-1.06,1.5,1.5,0,0,1,.46-1.14,1.74,1.74,0,0,1,1.26-.44,2.1,2.1,0,0,1,1,.2,1.36,1.36,0,0,1,.58.56,1.64,1.64,0,0,1,.21.82,1.52,1.52,0,0,1-.46,1.14A1.82,1.82,0,0,1,3,95.77Zm0-.59a1.41,1.41,0,0,0,1-.28.91.91,0,0,0,.33-.71.89.89,0,0,0-.33-.71,1.43,1.43,0,0,0-1-.28,1.38,1.38,0,0,0-.95.28A.95.95,0,0,0,2,94.9,1.39,1.39,0,0,0,3,95.18Z" transform="translate(0.01 -22.44)"/><path class="cls-2" d="M4.64,92H1.27v-.52h.51a1.31,1.31,0,0,1-.47-.36.61.61,0,0,1-.12-.37,1,1,0,0,1,.19-.58l.53.19a.76.76,0,0,0-.13.42.52.52,0,0,0,.12.34.58.58,0,0,0,.31.21,2.28,2.28,0,0,0,.66.1H4.64Z" transform="translate(0.01 -22.44)"/><path class="cls-2" d="M5.93,87.63H4.28a1,1,0,0,1,.31.37,1.14,1.14,0,0,1,.13.51,1.34,1.34,0,0,1-.48,1A1.9,1.9,0,0,1,2.92,90,2.21,2.21,0,0,1,2,89.8a1.33,1.33,0,0,1-.82-1.25,1.14,1.14,0,0,1,.53-1H1.27v-.51H5.93Zm-3,1.76a1.51,1.51,0,0,0,1-.27.81.81,0,0,0,0-1.29A1.46,1.46,0,0,0,3,87.57a1.57,1.57,0,0,0-1,.28.83.83,0,0,0-.34.65.79.79,0,0,0,.32.63A1.55,1.55,0,0,0,2.94,89.39Z" transform="translate(0.01 -22.44)"/><path class="cls-2" d="M4.64,84h-.5A1.22,1.22,0,0,1,4.72,85a1.31,1.31,0,0,1-.12.56.82.82,0,0,1-.29.38.9.9,0,0,1-.42.18,3.33,3.33,0,0,1-.53,0H1.27V85.6H3.14a3.77,3.77,0,0,0,.6,0,.57.57,0,0,0,.35-.23.69.69,0,0,0,.13-.43,1,1,0,0,0-.13-.49.72.72,0,0,0-.36-.31,1.63,1.63,0,0,0-.66-.1H1.27v-.57H4.64Z" transform="translate(0.01 -22.44)"/><path class="cls-2" d="M3.55,80.24l.08-.59a1.39,1.39,0,0,1,.8.52,1.72,1.72,0,0,1-.17,2.13A1.77,1.77,0,0,1,3,82.74a1.9,1.9,0,0,1-1.32-.44,1.49,1.49,0,0,1-.47-1.14,1.45,1.45,0,0,1,.46-1.1A1.82,1.82,0,0,1,3,79.63H3.1v2.52A1.29,1.29,0,0,0,4,81.83a.92.92,0,0,0,.3-.7.89.89,0,0,0-.17-.54A1.07,1.07,0,0,0,3.55,80.24Zm-.92,1.87V80.23a1.18,1.18,0,0,0-.64.22.88.88,0,0,0-.33.71.9.9,0,0,0,.27.66A1,1,0,0,0,2.63,82.11Z" transform="translate(0.01 -22.44)"/><path class="cls-2" d="M5.93,77.11H0V75.85H.46v.69h5v-.69h.47Z" transform="translate(0.01 -22.44)"/><path class="cls-2" d="M4.64,75.25H0v-.63l3.65-2.44H0v-.59H4.64v.63L1,74.66H4.64Z" transform="translate(0.01 -22.44)"/><path class="cls-2" d="M2.36,70.71a.78.78,0,0,1-.57-.24.81.81,0,0,1,1.14-1.14.81.81,0,0,1-.57,1.38Z" transform="translate(0.01 -22.44)"/><path class="cls-2" d="M4.64,68.35H1.27v-.51h.47a1.34,1.34,0,0,1-.4-.42,1.21,1.21,0,0,1-.15-.6,1.08,1.08,0,0,1,.16-.62.86.86,0,0,1,.43-.34,1.2,1.2,0,0,1-.59-1,1.05,1.05,0,0,1,.28-.77,1.2,1.2,0,0,1,.86-.27H4.64v.57H2.52a1.49,1.49,0,0,0-.5.06.42.42,0,0,0-.24.2.62.62,0,0,0-.09.34.82.82,0,0,0,.23.59,1,1,0,0,0,.76.24h2v.57H2.45a.92.92,0,0,0-.57.14.51.51,0,0,0-.19.45.89.89,0,0,0,.12.45.77.77,0,0,0,.38.3,2.08,2.08,0,0,0,.7.09H4.64Z" transform="translate(0.01 -22.44)"/><path class="cls-2" d="M5.93,62v1.26H5.46v-.69h-5v.69H0V62Z" transform="translate(0.01 -22.44)"/><path class="cls-2" d="M44.76,150.56l.58-.06a1.32,1.32,0,0,0,.19.58,1,1,0,0,0,.47.36,1.8,1.8,0,0,0,.71.14,1.73,1.73,0,0,0,.63-.11.87.87,0,0,0,.4-.29.7.7,0,0,0,.13-.39.59.59,0,0,0-.13-.39.92.92,0,0,0-.42-.27c-.12,0-.4-.12-.83-.23a4.15,4.15,0,0,1-.89-.29,1.19,1.19,0,0,1-.5-.43,1.06,1.06,0,0,1-.16-.58,1.16,1.16,0,0,1,.2-.66,1.18,1.18,0,0,1,.58-.46,2.15,2.15,0,0,1,.85-.16,2.4,2.4,0,0,1,.92.16,1.4,1.4,0,0,1,.6.49,1.38,1.38,0,0,1,.23.74l-.59,0a1,1,0,0,0-.32-.66,1.24,1.24,0,0,0-.81-.23,1.32,1.32,0,0,0-.82.21.6.6,0,0,0-.25.49.52.52,0,0,0,.18.41,2.39,2.39,0,0,0,.93.33,7.58,7.58,0,0,1,1,.3,1.47,1.47,0,0,1,.6.47,1.19,1.19,0,0,1,.19.67,1.3,1.3,0,0,1-.21.7,1.47,1.47,0,0,1-.61.51,2.19,2.19,0,0,1-.9.18,2.76,2.76,0,0,1-1.06-.18,1.59,1.59,0,0,1-.67-.56A1.56,1.56,0,0,1,44.76,150.56Z" transform="translate(0.01 -22.44)"/><path class="cls-2" d="M49.23,153.34v-4.66h.52v.44a1.29,1.29,0,0,1,.42-.39,1.19,1.19,0,0,1,.56-.13,1.31,1.31,0,0,1,.76.23,1.29,1.29,0,0,1,.5.62,2.39,2.39,0,0,1,0,1.82,1.36,1.36,0,0,1-.54.64,1.42,1.42,0,0,1-.74.22,1.14,1.14,0,0,1-.52-.12,1.25,1.25,0,0,1-.37-.31v1.64Zm.52-3a1.52,1.52,0,0,0,.26,1,.84.84,0,0,0,.64.31.82.82,0,0,0,.65-.33,1.5,1.5,0,0,0,.27-1,1.56,1.56,0,0,0-.26-1,.79.79,0,0,0-1.28,0A1.52,1.52,0,0,0,49.75,150.38Z" transform="translate(0.01 -22.44)"/><path class="cls-2" d="M55.15,151l.59.08a1.43,1.43,0,0,1-.51.8,1.6,1.6,0,0,1-1,.29,1.56,1.56,0,0,1-1.17-.46,1.77,1.77,0,0,1-.44-1.28,1.9,1.9,0,0,1,.44-1.32,1.49,1.49,0,0,1,1.14-.47,1.45,1.45,0,0,1,1.1.46,1.82,1.82,0,0,1,.43,1.3v.15H53.25a1.28,1.28,0,0,0,.31.85.92.92,0,0,0,.7.3.89.89,0,0,0,.54-.17A1,1,0,0,0,55.15,151ZM53.28,150h1.88a1.18,1.18,0,0,0-.22-.64.86.86,0,0,0-.7-.33.9.9,0,0,0-.67.27A1,1,0,0,0,53.28,150Z" transform="translate(0.01 -22.44)"/><path class="cls-2" d="M58.77,151l.59.08a1.5,1.5,0,0,1-.52.8,1.54,1.54,0,0,1-1,.29,1.57,1.57,0,0,1-1.18-.46,1.77,1.77,0,0,1-.43-1.28,1.9,1.9,0,0,1,.44-1.32,1.58,1.58,0,0,1,2.24,0,1.87,1.87,0,0,1,.43,1.3,1,1,0,0,1,0,.15H56.86a1.34,1.34,0,0,0,.31.85.94.94,0,0,0,.71.3.89.89,0,0,0,.54-.17A1.14,1.14,0,0,0,58.77,151ZM56.89,150h1.88a1.1,1.1,0,0,0-.21-.64.88.88,0,0,0-.71-.33.9.9,0,0,0-.66.27A1,1,0,0,0,56.89,150Z" transform="translate(0.01 -22.44)"/><path class="cls-2" d="M62.26,152.05v-.43a1,1,0,0,1-.94.51,1.3,1.3,0,0,1-.74-.23,1.41,1.41,0,0,1-.53-.62,2.17,2.17,0,0,1-.18-.91,2.29,2.29,0,0,1,.17-.92,1.37,1.37,0,0,1,.5-.63,1.43,1.43,0,0,1,.75-.22,1.21,1.21,0,0,1,.55.13,1.14,1.14,0,0,1,.38.34V147.4h.57v4.65Zm-1.8-1.68a1.5,1.5,0,0,0,.27,1,.83.83,0,0,0,.64.32.82.82,0,0,0,.64-.31,1.43,1.43,0,0,0,.26-.93,1.58,1.58,0,0,0-.27-1,.82.82,0,0,0-1.29,0A1.52,1.52,0,0,0,60.46,150.37Z" transform="translate(0.01 -22.44)"/><path class="cls-2" d="M65.51,153.34V147.4h1.26v.47h-.69v5h.69v.47Z" transform="translate(0.01 -22.44)"/><path class="cls-2" d="M67.3,152.05v-3.37h.51v.51a1.31,1.31,0,0,1,.36-.47.63.63,0,0,1,.37-.12,1.08,1.08,0,0,1,.59.19l-.2.53a.76.76,0,0,0-.42-.13.54.54,0,0,0-.34.12.64.64,0,0,0-.21.31,2.31,2.31,0,0,0-.09.67v1.76Z" transform="translate(0.01 -22.44)"/><path class="cls-2" d="M69,152.13l1.35-4.81h.45l-1.34,4.81Z" transform="translate(0.01 -22.44)"/><path class="cls-2" d="M71.27,152.05v-3.37h.51v.47a1.27,1.27,0,0,1,.43-.4,1.26,1.26,0,0,1,1.21,0,.86.86,0,0,1,.34.43,1.2,1.2,0,0,1,1-.59,1.05,1.05,0,0,1,.77.28,1.2,1.2,0,0,1,.27.86v2.31h-.57v-2.12a1.91,1.91,0,0,0,0-.5.49.49,0,0,0-.21-.24.62.62,0,0,0-.34-.09.79.79,0,0,0-.59.24,1,1,0,0,0-.23.75v2h-.57v-2.19a1,1,0,0,0-.14-.57.54.54,0,0,0-.46-.19.81.81,0,0,0-.45.13.69.69,0,0,0-.29.37,1.82,1.82,0,0,0-.1.7v1.75Z" transform="translate(0.01 -22.44)"/><path class="cls-2" d="M76.69,148.05v-.65h.57v.65Zm0,4v-3.37h.57v3.37Z" transform="translate(0.01 -22.44)"/><path class="cls-2" d="M78.13,152.05v-3.37h.52v.48a1.2,1.2,0,0,1,1.07-.56,1.47,1.47,0,0,1,.56.11.89.89,0,0,1,.38.29,1.33,1.33,0,0,1,.18.42,3.51,3.51,0,0,1,0,.56v2.07H80.3V150a1.38,1.38,0,0,0-.07-.52.53.53,0,0,0-.23-.28.77.77,0,0,0-.4-.1.92.92,0,0,0-.63.23,1.13,1.13,0,0,0-.27.88v1.84Z" transform="translate(0.01 -22.44)"/><path class="cls-2" d="M82.7,153.34H81.44v-.47h.69v-5h-.69v-.47H82.7Z" transform="translate(0.01 -22.44)"/><rect class="繝後Μ_逋ｽ-2" x="19.15" y="50.55" width="47.91" height="16.58"/><path class="cls-2" d="M22.34,77.86l.59,0a1.2,1.2,0,0,0,.19.57,1.07,1.07,0,0,0,.47.37,1.8,1.8,0,0,0,.71.13,1.72,1.72,0,0,0,.62-.1.83.83,0,0,0,.4-.29.63.63,0,0,0,0-.78,1,1,0,0,0-.42-.27,7.21,7.21,0,0,0-.83-.23,4.09,4.09,0,0,1-.9-.29,1.23,1.23,0,0,1-.49-.43,1.09,1.09,0,0,1-.17-.58,1.19,1.19,0,0,1,.2-.66,1.27,1.27,0,0,1,.59-.47,2.3,2.3,0,0,1,.85-.16,2.34,2.34,0,0,1,.91.17,1.31,1.31,0,0,1,.61.49,1.43,1.43,0,0,1,.23.73l-.59,0a1,1,0,0,0-.32-.67,1.28,1.28,0,0,0-.81-.22,1.35,1.35,0,0,0-.82.2.61.61,0,0,0-.25.49.54.54,0,0,0,.18.42,2.32,2.32,0,0,0,.92.33,5.37,5.37,0,0,1,1,.3,1.39,1.39,0,0,1,.6.47,1.22,1.22,0,0,1,.19.66,1.27,1.27,0,0,1-.21.7,1.46,1.46,0,0,1-.61.51,2.2,2.2,0,0,1-.9.19,2.72,2.72,0,0,1-1.06-.19,1.51,1.51,0,0,1-.67-.55A1.63,1.63,0,0,1,22.34,77.86Z" transform="translate(0.01 -22.44)"/><path class="cls-2" d="M26.82,79.36V74.7h.57v1.67a1.26,1.26,0,0,1,1-.46,1.36,1.36,0,0,1,.65.15.89.89,0,0,1,.39.4,1.91,1.91,0,0,1,.12.76v2.14H29V77.22a.88.88,0,0,0-.18-.62.71.71,0,0,0-.53-.2,1,1,0,0,0-.48.13.79.79,0,0,0-.32.36,1.73,1.73,0,0,0-.09.62v1.85Z" transform="translate(0.01 -22.44)"/><path class="cls-2" d="M30.22,77.67a1.74,1.74,0,0,1,.52-1.39,1.56,1.56,0,0,1,1.06-.37,1.51,1.51,0,0,1,1.14.46,1.73,1.73,0,0,1,.44,1.25,2.24,2.24,0,0,1-.2,1,1.39,1.39,0,0,1-.57.58,1.7,1.7,0,0,1-.81.2A1.51,1.51,0,0,1,30.66,79,1.78,1.78,0,0,1,30.22,77.67Zm.59,0a1.42,1.42,0,0,0,.28,1,.88.88,0,0,0,.71.32.93.93,0,0,0,.71-.32,1.48,1.48,0,0,0,.28-1,1.4,1.4,0,0,0-.28-1,.93.93,0,0,0-.71-.32.91.91,0,0,0-.71.32A1.44,1.44,0,0,0,30.81,77.67Z" transform="translate(0.01 -22.44)"/><path class="cls-2" d="M34,79.36V76h.51v.51a1.62,1.62,0,0,1,.37-.48.66.66,0,0,1,.36-.11,1.12,1.12,0,0,1,.59.18l-.2.53a.78.78,0,0,0-.41-.12.58.58,0,0,0-.34.11.6.6,0,0,0-.21.32,2,2,0,0,0-.1.66v1.77Z" transform="translate(0.01 -22.44)"/><path class="cls-2" d="M37.46,78.85l.08.5a2.37,2.37,0,0,1-.43.05.9.9,0,0,1-.48-.1.47.47,0,0,1-.24-.26,1.9,1.9,0,0,1-.07-.67V76.43H35.9V76h.42v-.84l.56-.34V76h.58v.44h-.58v2a1.08,1.08,0,0,0,0,.32.35.35,0,0,0,.1.11.5.5,0,0,0,.2,0Z" transform="translate(0.01 -22.44)"/><path class="cls-2" d="M37.79,78v-.57h1.76V78Z" transform="translate(0.01 -22.44)"/><path class="cls-2" d="M42.37,79.36v-.43a1,1,0,0,1-.94.5,1.29,1.29,0,0,1-.74-.22,1.47,1.47,0,0,1-.53-.62,2.22,2.22,0,0,1-.18-.92,2.42,2.42,0,0,1,.16-.91,1.34,1.34,0,0,1,1.26-.85,1.08,1.08,0,0,1,.54.13,1.14,1.14,0,0,1,.39.33V74.7h.57v4.66Zm-1.81-1.69a1.41,1.41,0,0,0,.28,1,.79.79,0,0,0,.64.32.83.83,0,0,0,.64-.3,1.46,1.46,0,0,0,.26-.94,1.54,1.54,0,0,0-.27-1,.82.82,0,0,0-.66-.33.81.81,0,0,0-.63.31A1.55,1.55,0,0,0,40.56,77.67Z" transform="translate(0.01 -22.44)"/><path class="cls-2" d="M46,79.36v-.5a1.25,1.25,0,0,1-1.07.57,1.47,1.47,0,0,1-.56-.11A.89.89,0,0,1,44,79a.94.94,0,0,1-.18-.42,3.21,3.21,0,0,1,0-.54V76h.58v1.86a4,4,0,0,0,0,.61.57.57,0,0,0,.23.35.67.67,0,0,0,.43.13.91.91,0,0,0,.48-.13.74.74,0,0,0,.32-.36,1.83,1.83,0,0,0,.1-.66V76h.57v3.37Z" transform="translate(0.01 -22.44)"/><path class="cls-2" d="M47.41,79.36V76h.51v.51a1.47,1.47,0,0,1,.36-.48.7.7,0,0,1,.37-.11,1.15,1.15,0,0,1,.59.18l-.2.53a.84.84,0,0,0-.42-.12.56.56,0,0,0-.55.43,2.29,2.29,0,0,0-.09.66v1.77Z" transform="translate(0.01 -22.44)"/><path class="cls-2" d="M51.78,78.94a2.22,2.22,0,0,1-.61.38,1.69,1.69,0,0,1-.64.11,1.22,1.22,0,0,1-.85-.27.89.89,0,0,1-.3-.69,1,1,0,0,1,.41-.78,1.18,1.18,0,0,1,.41-.19,4.17,4.17,0,0,1,.51-.09,5.49,5.49,0,0,0,1-.19v-.15a.6.6,0,0,0-.16-.49,1,1,0,0,0-.65-.2,1.06,1.06,0,0,0-.6.14A.92.92,0,0,0,50,77L49.48,77a1.41,1.41,0,0,1,.25-.58,1.12,1.12,0,0,1,.51-.34,2.2,2.2,0,0,1,.76-.12,2,2,0,0,1,.7.1.87.87,0,0,1,.4.26,1,1,0,0,1,.18.39,2.94,2.94,0,0,1,0,.52v.76a9.75,9.75,0,0,0,0,1,1.27,1.27,0,0,0,.15.41h-.6A1.08,1.08,0,0,1,51.78,78.94Zm-.05-1.28a4,4,0,0,1-.94.22,2,2,0,0,0-.49.11.55.55,0,0,0-.23.19.5.5,0,0,0,.09.65.78.78,0,0,0,.51.15,1.15,1.15,0,0,0,.59-.14,1,1,0,0,0,.38-.39,1.43,1.43,0,0,0,.09-.58Z" transform="translate(0.01 -22.44)"/><path class="cls-2" d="M54.44,78.85l.08.5a2.37,2.37,0,0,1-.43.05.9.9,0,0,1-.48-.1.47.47,0,0,1-.24-.26,1.9,1.9,0,0,1-.07-.67V76.43h-.42V76h.42v-.84l.56-.34V76h.58v.44h-.58v2a1.08,1.08,0,0,0,0,.32.35.35,0,0,0,.1.11.5.5,0,0,0,.2,0Z" transform="translate(0.01 -22.44)"/><path class="cls-2" d="M55,75.36V74.7h.57v.66Zm0,4V76h.57v3.37Z" transform="translate(0.01 -22.44)"/><path class="cls-2" d="M56.23,77.67a1.74,1.74,0,0,1,.52-1.39,1.56,1.56,0,0,1,1.06-.37,1.51,1.51,0,0,1,1.14.46,1.73,1.73,0,0,1,.44,1.25,2.24,2.24,0,0,1-.2,1,1.39,1.39,0,0,1-.57.58,1.73,1.73,0,0,1-.81.2A1.51,1.51,0,0,1,56.67,79,1.78,1.78,0,0,1,56.23,77.67Zm.59,0a1.42,1.42,0,0,0,.28,1,.88.88,0,0,0,.71.32.93.93,0,0,0,.71-.32,1.48,1.48,0,0,0,.28-1,1.45,1.45,0,0,0-.28-1,.93.93,0,0,0-.71-.32.91.91,0,0,0-.71.32A1.44,1.44,0,0,0,56.82,77.67Z" transform="translate(0.01 -22.44)"/><path class="cls-2" d="M60.06,79.36V76h.51v.47a1.21,1.21,0,0,1,1.07-.55,1.43,1.43,0,0,1,.56.11.91.91,0,0,1,.39.29,1.06,1.06,0,0,1,.17.42,3.07,3.07,0,0,1,0,.55v2.08h-.58v-2a1.75,1.75,0,0,0-.06-.53.62.62,0,0,0-.24-.27.75.75,0,0,0-.4-.11.92.92,0,0,0-.63.24,1.15,1.15,0,0,0-.26.88v1.84Z" transform="translate(0.01 -22.44)"/><path class="cls-2" d="M22.47,87.16V83.79H23v.51a1.47,1.47,0,0,1,.36-.48.7.7,0,0,1,.37-.11,1.15,1.15,0,0,1,.59.18l-.2.53a.84.84,0,0,0-.42-.12.56.56,0,0,0-.55.43,2.29,2.29,0,0,0-.09.66v1.77Z" transform="translate(0.01 -22.44)"/><path class="cls-2" d="M26.85,87.16v-.5a1.22,1.22,0,0,1-1.06.57,1.47,1.47,0,0,1-.56-.11,1,1,0,0,1-.39-.29,1.06,1.06,0,0,1-.17-.42,2.4,2.4,0,0,1,0-.54V83.79h.57v1.86a3.65,3.65,0,0,0,0,.61.57.57,0,0,0,.23.35.67.67,0,0,0,.43.13.91.91,0,0,0,.48-.13.74.74,0,0,0,.32-.36,1.86,1.86,0,0,0,.09-.66v-1.8h.58v3.37Z" transform="translate(0.01 -22.44)"/><path class="cls-2" d="M28.26,87.16V83.79h.51v.47a1.22,1.22,0,0,1,1.08-.55,1.47,1.47,0,0,1,.56.11.82.82,0,0,1,.38.29,1.24,1.24,0,0,1,.18.42,3.37,3.37,0,0,1,0,.55v2.08h-.57v-2a1.44,1.44,0,0,0-.07-.53.54.54,0,0,0-.23-.27.77.77,0,0,0-.4-.11.88.88,0,0,0-.63.24,1.11,1.11,0,0,0-.27.88v1.84Z" transform="translate(0.01 -22.44)"/><path class="cls-2" d="M31.88,87.16V83.79h.51v.47a1.2,1.2,0,0,1,1.07-.55,1.43,1.43,0,0,1,.56.11.91.91,0,0,1,.39.29,1.06,1.06,0,0,1,.17.42,3.37,3.37,0,0,1,0,.55v2.08H34v-2a1.75,1.75,0,0,0-.06-.53.62.62,0,0,0-.24-.27.75.75,0,0,0-.4-.11.92.92,0,0,0-.63.24,1.15,1.15,0,0,0-.26.88v1.84Z" transform="translate(0.01 -22.44)"/><path class="cls-2" d="M35.49,83.16V82.5h.58v.66Zm0,4V83.79h.58v3.37Z" transform="translate(0.01 -22.44)"/><path class="cls-2" d="M36.93,87.16V83.79h.52v.47a1.2,1.2,0,0,1,1.07-.55,1.47,1.47,0,0,1,.56.11.82.82,0,0,1,.38.29.94.94,0,0,1,.18.42,3.37,3.37,0,0,1,0,.55v2.08H39.1v-2a1.75,1.75,0,0,0-.06-.53.62.62,0,0,0-.24-.27.75.75,0,0,0-.4-.11.92.92,0,0,0-.63.24,1.11,1.11,0,0,0-.26.88v1.84Z" transform="translate(0.01 -22.44)"/><path class="cls-2" d="M40.45,87.44l.55.08a.53.53,0,0,0,.19.37,1,1,0,0,0,.58.16,1,1,0,0,0,.62-.16.76.76,0,0,0,.29-.44,3.83,3.83,0,0,0,0-.73,1.18,1.18,0,0,1-.93.44,1.27,1.27,0,0,1-1.08-.51,1.93,1.93,0,0,1-.38-1.2,2.18,2.18,0,0,1,.18-.89,1.37,1.37,0,0,1,.5-.63,1.35,1.35,0,0,1,.78-.22,1.19,1.19,0,0,1,1,.48v-.4h.53V86.7a2.75,2.75,0,0,1-.16,1.12,1.2,1.2,0,0,1-.51.51,1.7,1.7,0,0,1-.85.19,1.65,1.65,0,0,1-1-.27A.92.92,0,0,1,40.45,87.44Zm.47-2a1.5,1.5,0,0,0,.26,1,.88.88,0,0,0,1.32,0,1.4,1.4,0,0,0,.27-.95,1.34,1.34,0,0,0-.28-.93.84.84,0,0,0-.66-.32.86.86,0,0,0-.65.31A1.42,1.42,0,0,0,40.92,85.41Z" transform="translate(0.01 -22.44)"/><path class="cls-2" d="M46,87.16V83.79h.52v.51a1.47,1.47,0,0,1,.36-.48.7.7,0,0,1,.37-.11,1.15,1.15,0,0,1,.59.18l-.2.53a.84.84,0,0,0-.42-.12.58.58,0,0,0-.34.11.6.6,0,0,0-.21.32,2.29,2.29,0,0,0-.09.66v1.77Z" transform="translate(0.01 -22.44)"/><path class="cls-2" d="M50.33,86.74a2,2,0,0,1-.61.38,1.61,1.61,0,0,1-.63.11,1.22,1.22,0,0,1-.85-.27.89.89,0,0,1-.3-.69.94.94,0,0,1,.11-.45,1,1,0,0,1,.3-.33,1.18,1.18,0,0,1,.41-.19,4.17,4.17,0,0,1,.51-.09,5.49,5.49,0,0,0,1-.19v-.15a.6.6,0,0,0-.16-.49,1,1,0,0,0-.65-.2,1.06,1.06,0,0,0-.6.14.86.86,0,0,0-.28.5L48,84.75a1.29,1.29,0,0,1,.25-.58,1.12,1.12,0,0,1,.51-.34,2.2,2.2,0,0,1,.76-.12,2,2,0,0,1,.7.1.93.93,0,0,1,.4.26,1,1,0,0,1,.18.39,3.28,3.28,0,0,1,0,.52v.76a8.68,8.68,0,0,0,0,1,1.27,1.27,0,0,0,.15.41h-.6A1.29,1.29,0,0,1,50.33,86.74Zm0-1.28a4,4,0,0,1-.94.22,2,2,0,0,0-.49.11.55.55,0,0,0-.23.19.5.5,0,0,0,.09.65.78.78,0,0,0,.51.15,1.15,1.15,0,0,0,.59-.14,1,1,0,0,0,.38-.39,1.43,1.43,0,0,0,.09-.58Z" transform="translate(0.01 -22.44)"/><path class="cls-2" d="M51.75,87.16V83.79h.51v.47a1.22,1.22,0,0,1,1.08-.55,1.47,1.47,0,0,1,.56.11.82.82,0,0,1,.38.29,1.24,1.24,0,0,1,.18.42,3.37,3.37,0,0,1,0,.55v2.08h-.57v-2a1.44,1.44,0,0,0-.07-.53.52.52,0,0,0-.24-.27.71.71,0,0,0-.39-.11.88.88,0,0,0-.63.24,1.11,1.11,0,0,0-.27.88v1.84Z" transform="translate(0.01 -22.44)"/><path class="cls-2" d="M55.26,87.44l.56.08a.5.5,0,0,0,.19.37.91.91,0,0,0,.58.16,1,1,0,0,0,.61-.16.72.72,0,0,0,.29-.44,3.56,3.56,0,0,0,0-.73,1.19,1.19,0,0,1-.94.44,1.25,1.25,0,0,1-1.07-.51,1.87,1.87,0,0,1-.38-1.2,2.17,2.17,0,0,1,.17-.89,1.46,1.46,0,0,1,.51-.63,1.35,1.35,0,0,1,.78-.22,1.22,1.22,0,0,1,1,.48v-.4h.53V86.7A2.94,2.94,0,0,1,58,87.82a1.2,1.2,0,0,1-.51.51,1.74,1.74,0,0,1-.86.19,1.61,1.61,0,0,1-1-.27A.9.9,0,0,1,55.26,87.44Zm.47-2a1.44,1.44,0,0,0,.27,1,.83.83,0,0,0,.66.3.85.85,0,0,0,.66-.3,1.46,1.46,0,0,0,.26-.95,1.39,1.39,0,0,0-.27-.93.84.84,0,0,0-1.31,0A1.37,1.37,0,0,0,55.73,85.41Z" transform="translate(0.01 -22.44)"/><path class="cls-2" d="M61.29,86.07l.59.07a1.49,1.49,0,0,1-.52.81,1.54,1.54,0,0,1-1,.28,1.56,1.56,0,0,1-1.18-.45,1.79,1.79,0,0,1-.43-1.28,1.86,1.86,0,0,1,.44-1.32,1.49,1.49,0,0,1,1.13-.47,1.45,1.45,0,0,1,1.11.46,1.86,1.86,0,0,1,.43,1.29,1,1,0,0,1,0,.16H59.38a1.34,1.34,0,0,0,.31.85,1,1,0,0,0,.71.29.89.89,0,0,0,.54-.16A1.2,1.2,0,0,0,61.29,86.07Zm-1.88-.92h1.88a1.08,1.08,0,0,0-.21-.64.88.88,0,0,0-.71-.33.93.93,0,0,0-.66.26A1.05,1.05,0,0,0,59.41,85.15Z" transform="translate(0.01 -22.44)"/><rect class="繝後Μ_逋ｽ-2" x="19.47" y="94.21" width="45.14" height="16.58"/><path class="cls-2" d="M26,121.38l.62.15a2.07,2.07,0,0,1-.7,1.16,1.88,1.88,0,0,1-1.23.4,2.14,2.14,0,0,1-1.22-.31,1.91,1.91,0,0,1-.72-.88,3.27,3.27,0,0,1-.24-1.25,2.8,2.8,0,0,1,.27-1.27,2,2,0,0,1,.79-.82,2.31,2.31,0,0,1,1.13-.28,2,2,0,0,1,1.18.35,1.92,1.92,0,0,1,.66,1l-.61.15a1.34,1.34,0,0,0-.47-.74,1.2,1.2,0,0,0-.77-.24,1.52,1.52,0,0,0-.9.26,1.3,1.3,0,0,0-.5.69,2.73,2.73,0,0,0-.15.89,2.94,2.94,0,0,0,.17,1,1.28,1.28,0,0,0,.54.66,1.47,1.47,0,0,0,.79.22,1.32,1.32,0,0,0,.88-.3A1.45,1.45,0,0,0,26,121.38Z" transform="translate(0.01 -22.44)"/><path class="cls-2" d="M27.06,121.32a1.75,1.75,0,0,1,.52-1.38,1.58,1.58,0,0,1,1.06-.38,1.48,1.48,0,0,1,1.14.46,1.74,1.74,0,0,1,.44,1.26,2.38,2.38,0,0,1-.19,1,1.45,1.45,0,0,1-.57.58,1.64,1.64,0,0,1-.82.21,1.48,1.48,0,0,1-1.14-.46A1.82,1.82,0,0,1,27.06,121.32Zm.59,0a1.41,1.41,0,0,0,.28,1,.91.91,0,0,0,.71.33.89.89,0,0,0,.71-.33,1.45,1.45,0,0,0,.28-1,1.37,1.37,0,0,0-.28-.94.95.95,0,0,0-1.42,0A1.39,1.39,0,0,0,27.65,121.32Z" transform="translate(0.01 -22.44)"/><path class="cls-2" d="M30.89,123v-3.37h.51v.48a1.23,1.23,0,0,1,1.08-.56,1.47,1.47,0,0,1,.56.11,1,1,0,0,1,.38.29,1.33,1.33,0,0,1,.18.42,3.51,3.51,0,0,1,0,.56V123h-.57V121a1.38,1.38,0,0,0-.07-.52.5.5,0,0,0-.24-.28.71.71,0,0,0-.39-.1.92.92,0,0,0-.63.23,1.13,1.13,0,0,0-.27.88V123Z" transform="translate(0.01 -22.44)"/><path class="cls-2" d="M35.75,122.5l.08.5a1.72,1.72,0,0,1-.43,0,1.05,1.05,0,0,1-.48-.09.66.66,0,0,1-.24-.26,2,2,0,0,1-.07-.68v-1.94h-.42v-.44h.42v-.84l.57-.34v1.18h.57v.44h-.57v2a1,1,0,0,0,0,.32.26.26,0,0,0,.1.11.34.34,0,0,0,.19,0Z" transform="translate(0.01 -22.44)"/><path class="cls-2" d="M36.31,119v-.65h.58V119Zm0,4v-3.37h.58V123Z" transform="translate(0.01 -22.44)"/><path class="cls-2" d="M37.75,123v-3.37h.52v.48a1.21,1.21,0,0,1,1.07-.56,1.47,1.47,0,0,1,.56.11.89.89,0,0,1,.38.29,1,1,0,0,1,.18.42,3.51,3.51,0,0,1,0,.56V123h-.57V121a1.67,1.67,0,0,0-.06-.52.6.6,0,0,0-.24-.28.74.74,0,0,0-.4-.1,1,1,0,0,0-.63.23,1.13,1.13,0,0,0-.26.88V123Z" transform="translate(0.01 -22.44)"/><path class="cls-2" d="M43.58,123v-.5a1.22,1.22,0,0,1-1.07.58A1.31,1.31,0,0,1,42,123a.82.82,0,0,1-.38-.29,1,1,0,0,1-.18-.42,3.33,3.33,0,0,1,0-.53v-2.09h.57v1.87a3.77,3.77,0,0,0,0,.6.68.68,0,0,0,.23.36.75.75,0,0,0,.43.12,1,1,0,0,0,.49-.13.72.72,0,0,0,.31-.36,1.63,1.63,0,0,0,.1-.66v-1.8h.57V123Z" transform="translate(0.01 -22.44)"/><path class="cls-2" d="M44.77,121.32a1.75,1.75,0,0,1,.52-1.38,1.58,1.58,0,0,1,1.06-.38,1.48,1.48,0,0,1,1.14.46,1.74,1.74,0,0,1,.44,1.26,2.38,2.38,0,0,1-.19,1,1.45,1.45,0,0,1-.57.58,1.64,1.64,0,0,1-.82.21,1.48,1.48,0,0,1-1.14-.46A1.82,1.82,0,0,1,44.77,121.32Zm.59,0a1.41,1.41,0,0,0,.28,1,.91.91,0,0,0,.71.33.89.89,0,0,0,.71-.33,1.45,1.45,0,0,0,.28-1,1.37,1.37,0,0,0-.28-.94.95.95,0,0,0-1.42,0A1.39,1.39,0,0,0,45.36,121.32Z" transform="translate(0.01 -22.44)"/><path class="cls-2" d="M50.81,123v-.5a1.22,1.22,0,0,1-1.07.58,1.31,1.31,0,0,1-.56-.12.82.82,0,0,1-.38-.29,1,1,0,0,1-.18-.42,3.33,3.33,0,0,1,0-.53v-2.09h.57v1.87a3.77,3.77,0,0,0,0,.6.68.68,0,0,0,.23.36.75.75,0,0,0,.43.12,1,1,0,0,0,.49-.13.72.72,0,0,0,.31-.36,1.63,1.63,0,0,0,.1-.66v-1.8h.57V123Z" transform="translate(0.01 -22.44)"/><path class="cls-2" d="M52,122l.56-.09a.76.76,0,0,0,.27.52.85.85,0,0,0,.6.19.94.94,0,0,0,.59-.16.52.52,0,0,0,.19-.38.37.37,0,0,0-.17-.31,2.66,2.66,0,0,0-.58-.19,6.08,6.08,0,0,1-.88-.27.87.87,0,0,1-.36-.32.82.82,0,0,1-.13-.46.92.92,0,0,1,.1-.41.89.89,0,0,1,.29-.32,1.1,1.1,0,0,1,.36-.17,1.93,1.93,0,0,1,.49-.07,1.86,1.86,0,0,1,.7.12.88.88,0,0,1,.44.31,1.18,1.18,0,0,1,.2.52l-.56.08a.64.64,0,0,0-.22-.41.79.79,0,0,0-.52-.15,1,1,0,0,0-.56.13.4.4,0,0,0-.17.31.37.37,0,0,0,.07.2.53.53,0,0,0,.22.15l.51.15a5.85,5.85,0,0,1,.84.26.88.88,0,0,1,.38.3.84.84,0,0,1,.14.49,1,1,0,0,1-.17.54,1,1,0,0,1-.48.39,1.8,1.8,0,0,1-.71.14,1.59,1.59,0,0,1-1-.28A1.24,1.24,0,0,1,52,122Z" transform="translate(0.01 -22.44)"/><path class="cls-2" d="M22.57,130.81v-3.37h.52V128a1.31,1.31,0,0,1,.36-.47.63.63,0,0,1,.37-.12,1.08,1.08,0,0,1,.59.19l-.2.53a.76.76,0,0,0-.42-.13.52.52,0,0,0-.34.12.58.58,0,0,0-.21.31,2.31,2.31,0,0,0-.09.67v1.76Z" transform="translate(0.01 -22.44)"/><path class="cls-2" d="M27,130.81v-.5a1.21,1.21,0,0,1-1.07.58,1.3,1.3,0,0,1-.55-.12.91.91,0,0,1-.39-.29,1,1,0,0,1-.17-.42,2.3,2.3,0,0,1,0-.53v-2.09h.57v1.87a3.41,3.41,0,0,0,0,.6.58.58,0,0,0,.23.36.73.73,0,0,0,.43.12.91.91,0,0,0,.48-.13.74.74,0,0,0,.32-.36,1.86,1.86,0,0,0,.09-.66v-1.8h.58v3.37Z" transform="translate(0.01 -22.44)"/><path class="cls-2" d="M28.36,130.81v-3.37h.51v.48a1.23,1.23,0,0,1,1.08-.56,1.47,1.47,0,0,1,.56.11.89.89,0,0,1,.38.29,1.33,1.33,0,0,1,.18.42,3.51,3.51,0,0,1,0,.56v2.07h-.57v-2.05a1.38,1.38,0,0,0-.07-.52.5.5,0,0,0-.24-.28.71.71,0,0,0-.39-.1.92.92,0,0,0-.63.23,1.13,1.13,0,0,0-.27.88v1.84Z" transform="translate(0.01 -22.44)"/><path class="cls-2" d="M32,130.81v-3.37h.51v.48a1.21,1.21,0,0,1,1.07-.56,1.43,1.43,0,0,1,.56.11.89.89,0,0,1,.38.29,1,1,0,0,1,.18.42,3.51,3.51,0,0,1,0,.56v2.07h-.57v-2.05a1.67,1.67,0,0,0-.06-.52.6.6,0,0,0-.24-.28.74.74,0,0,0-.4-.1,1,1,0,0,0-.63.23,1.13,1.13,0,0,0-.26.88v1.84Z" transform="translate(0.01 -22.44)"/><path class="cls-2" d="M35.59,126.81v-.65h.57v.65Zm0,4v-3.37h.57v3.37Z" transform="translate(0.01 -22.44)"/><path class="cls-2" d="M37,130.81v-3.37h.52v.48a1.21,1.21,0,0,1,1.07-.56,1.47,1.47,0,0,1,.56.11.89.89,0,0,1,.38.29,1,1,0,0,1,.18.42,3.51,3.51,0,0,1,0,.56v2.07H39.2v-2.05a1.67,1.67,0,0,0-.06-.52.6.6,0,0,0-.24-.28.74.74,0,0,0-.4-.1,1,1,0,0,0-.63.23,1.13,1.13,0,0,0-.26.88v1.84Z" transform="translate(0.01 -22.44)"/><path class="cls-2" d="M40.54,131.09l.56.08a.56.56,0,0,0,.19.38,1,1,0,0,0,.58.15,1.09,1.09,0,0,0,.62-.15.82.82,0,0,0,.29-.45,3.76,3.76,0,0,0,0-.73,1.18,1.18,0,0,1-.93.44,1.29,1.29,0,0,1-1.08-.5,2,2,0,0,1-.38-1.21,2.3,2.3,0,0,1,.17-.88,1.37,1.37,0,0,1,1.29-.86,1.17,1.17,0,0,1,1,.49v-.41h.53v2.91a2.72,2.72,0,0,1-.16,1.12,1.22,1.22,0,0,1-.51.52,1.81,1.81,0,0,1-.85.19,1.65,1.65,0,0,1-1-.27A1,1,0,0,1,40.54,131.09Zm.48-2a1.48,1.48,0,0,0,.26,1,.86.86,0,0,0,.66.31.83.83,0,0,0,.66-.31,1.38,1.38,0,0,0,.27-.95,1.34,1.34,0,0,0-.28-.93.85.85,0,0,0-1.31,0A1.39,1.39,0,0,0,41,129.06Z" transform="translate(0.01 -22.44)"/><path class="cls-2" d="M46.06,130.81v-3.37h.52V128a1.31,1.31,0,0,1,.36-.47.61.61,0,0,1,.37-.12,1.08,1.08,0,0,1,.59.19l-.2.53a.76.76,0,0,0-.42-.13.52.52,0,0,0-.34.12.58.58,0,0,0-.21.31,2.31,2.31,0,0,0-.09.67v1.76Z" transform="translate(0.01 -22.44)"/><path class="cls-2" d="M50.43,130.39a2,2,0,0,1-.61.38,1.61,1.61,0,0,1-.63.12,1.18,1.18,0,0,1-.85-.28.89.89,0,0,1-.3-.69,1,1,0,0,1,.11-.45,1,1,0,0,1,.3-.33,1.72,1.72,0,0,1,.41-.19,3,3,0,0,1,.51-.08,5.33,5.33,0,0,0,1-.2v-.15a.61.61,0,0,0-.16-.49,1,1,0,0,0-.65-.19,1,1,0,0,0-.6.14.83.83,0,0,0-.28.5l-.56-.08a1.34,1.34,0,0,1,.25-.58,1.09,1.09,0,0,1,.5-.34,2.3,2.3,0,0,1,.77-.12,2.21,2.21,0,0,1,.7.1,1,1,0,0,1,.4.26,1,1,0,0,1,.18.39c0,.1,0,.27,0,.53v.76a8.6,8.6,0,0,0,0,1,1.19,1.19,0,0,0,.15.41h-.6A1.29,1.29,0,0,1,50.43,130.39Zm0-1.27a4,4,0,0,1-.94.21,2.45,2.45,0,0,0-.49.12.47.47,0,0,0-.23.18.56.56,0,0,0-.08.27.52.52,0,0,0,.17.39.78.78,0,0,0,.51.15,1.15,1.15,0,0,0,.59-.15.82.82,0,0,0,.37-.39,1.24,1.24,0,0,0,.1-.57Z" transform="translate(0.01 -22.44)"/><path class="cls-2" d="M51.85,130.81v-3.37h.51v.48a1.23,1.23,0,0,1,1.08-.56,1.47,1.47,0,0,1,.56.11,1,1,0,0,1,.38.29,1.33,1.33,0,0,1,.18.42,3.51,3.51,0,0,1,0,.56v2.07H54v-2.05a1.38,1.38,0,0,0-.07-.52.5.5,0,0,0-.24-.28.71.71,0,0,0-.39-.1.92.92,0,0,0-.63.23,1.13,1.13,0,0,0-.27.88v1.84Z" transform="translate(0.01 -22.44)"/><path class="cls-2" d="M55.36,131.09l.56.08a.52.52,0,0,0,.19.38,1,1,0,0,0,.58.15,1.06,1.06,0,0,0,.61-.15.77.77,0,0,0,.29-.45,3.49,3.49,0,0,0,0-.73,1.19,1.19,0,0,1-.94.44,1.27,1.27,0,0,1-1.07-.5,1.92,1.92,0,0,1-.38-1.21,2.13,2.13,0,0,1,.17-.88,1.37,1.37,0,0,1,1.29-.86,1.2,1.2,0,0,1,1,.49v-.41h.53v2.91a2.9,2.9,0,0,1-.16,1.12,1.22,1.22,0,0,1-.51.52,1.85,1.85,0,0,1-.86.19,1.61,1.61,0,0,1-1-.27A.92.92,0,0,1,55.36,131.09Zm.47-2a1.42,1.42,0,0,0,.27,1,.86.86,0,0,0,1.32,0,1.44,1.44,0,0,0,.26-.95,1.39,1.39,0,0,0-.27-.93.83.83,0,0,0-.66-.31.81.81,0,0,0-.65.31A1.34,1.34,0,0,0,55.83,129.06Z" transform="translate(0.01 -22.44)"/><path class="cls-2" d="M61.39,129.72l.59.08a1.5,1.5,0,0,1-.52.8,1.54,1.54,0,0,1-1,.29,1.57,1.57,0,0,1-1.18-.46,1.77,1.77,0,0,1-.43-1.28,1.9,1.9,0,0,1,.44-1.32,1.58,1.58,0,0,1,2.24,0,1.87,1.87,0,0,1,.43,1.3,1,1,0,0,1,0,.15H59.48a1.34,1.34,0,0,0,.31.85.94.94,0,0,0,.71.3.84.84,0,0,0,.53-.17A1.08,1.08,0,0,0,61.39,129.72Zm-1.88-.92h1.88a1.1,1.1,0,0,0-.21-.64.88.88,0,0,0-.71-.33.9.9,0,0,0-.66.27A1,1,0,0,0,59.51,128.8Z" transform="translate(0.01 -22.44)"/></g></svg>