<svg xmlns="http://www.w3.org/2000/svg" viewBox="0 0 116.63 131.16"><defs><style>.cls-1,.cls-3,.繝医Ν繧ｯ繧ｰ繝ｩ繝廟繧ｰ繝ｬ繝ｼ邱,.邱喟0\.5pt-5{fill:none;}.cls-1,.cls-3,.邱喟0\.5pt-5{stroke:#231815;}.cls-1{stroke-linejoin:round;stroke-width:0.14px;}.繝医Ν繧ｯ繧ｰ繝ｩ繝廟繧ｰ繝ｬ繝ｼ邱{stroke:#9fa0a0;stroke-width:3px;}.cls-2{fill:#231815;}.繝後Μ_逋ｽ-2{fill:#fff;}.邱喟0\.5pt-5{stroke-miterlimit:10;stroke-width:0.5px;}</style></defs><g id="Illust"><line class="cls-1" x1="45.52" y1="1.91" x2="45.52" y2="115.29"/><line class="cls-1" x1="72.59" y1="1.91" x2="72.59" y2="115.29"/><line class="cls-1" x1="99.67" y1="1.91" x2="99.67" y2="115.29"/><path class="cls-1" d="M18.43,114.8h90.7M18.43,92.13h90.7M18.43,69.45h90.7M18.43,46.77h90.7" transform="translate(0.01 -22.19)"/><polyline class="繝医Ν繧ｯ繧ｰ繝ｩ繝廟繧ｰ繝ｬ繝ｼ邱" points="18.44 11.44 45.76 11.44 59.24 28.75 109.86 70.65"/><polyline class="繝医Ν繧ｯ繧ｰ繝ｩ繝廟繧ｰ繝ｬ繝ｼ邱" points="18.44 86.52 25.54 86.52 32.27 86.52 45.76 86.52 59.24 86.52 72.73 93.74 86.21 98.07 99.69 100.95 109.14 102.45"/><path class="cls-2" d="M10.23,137.41a3.2,3.2,0,0,1,.13-1,1.28,1.28,0,0,1,.39-.59,1.14,1.14,0,0,1,1.15-.1.9.9,0,0,1,.36.34,1.73,1.73,0,0,1,.22.53,4.23,4.23,0,0,1-.05,1.86,1.22,1.22,0,0,1-.38.6,1.1,1.1,0,0,1-1.47-.16A2.41,2.41,0,0,1,10.23,137.41Zm.45,0a2.25,2.25,0,0,0,.21,1.18.6.6,0,0,0,.51.29.62.62,0,0,0,.51-.29,2.38,2.38,0,0,0,.2-1.18,2.34,2.34,0,0,0-.2-1.17.63.63,0,0,0-.52-.29.56.56,0,0,0-.48.26A2.24,2.24,0,0,0,10.68,137.41Z" transform="translate(0.01 -22.19)"/><path class="cls-2" d="M13.29,139.18v-.5h.5v.5Z" transform="translate(0.01 -22.19)"/><path class="cls-2" d="M14.43,137.41a3.52,3.52,0,0,1,.13-1,1.28,1.28,0,0,1,.39-.59,1,1,0,0,1,.65-.21.95.95,0,0,1,.87.45,2,2,0,0,1,.22.53,3.72,3.72,0,0,1,.08.84,3.2,3.2,0,0,1-.13,1,1.31,1.31,0,0,1-.39.6,1,1,0,0,1-.65.21,1,1,0,0,1-.81-.37A2.33,2.33,0,0,1,14.43,137.41Zm.46,0a2.38,2.38,0,0,0,.2,1.18.59.59,0,0,0,1,0,2.25,2.25,0,0,0,.21-1.18,2.2,2.2,0,0,0-.21-1.17.62.62,0,0,0-.51-.29.58.58,0,0,0-.49.26A2.26,2.26,0,0,0,14.89,137.41Z" transform="translate(0.01 -22.19)"/><path class="cls-2" d="M10.23,114.74a3.2,3.2,0,0,1,.13-1,1.31,1.31,0,0,1,.39-.6A1.11,1.11,0,0,1,11.9,113a1,1,0,0,1,.36.33,2,2,0,0,1,.22.53,3.3,3.3,0,0,1,.08.85,3.2,3.2,0,0,1-.13,1,1.27,1.27,0,0,1-.38.6,1,1,0,0,1-.65.21,1,1,0,0,1-.82-.37A2.43,2.43,0,0,1,10.23,114.74Zm.45,0a2.18,2.18,0,0,0,.21,1.17.59.59,0,0,0,.51.3.61.61,0,0,0,.51-.3,3.52,3.52,0,0,0,0-2.34.6.6,0,0,0-.52-.29.56.56,0,0,0-.48.25A2.28,2.28,0,0,0,10.68,114.74Z" transform="translate(0.01 -22.19)"/><path class="cls-2" d="M13.29,116.51V116h.5v.5Z" transform="translate(0.01 -22.19)"/><path class="cls-2" d="M14.43,115.57l.47,0a.87.87,0,0,0,.23.51.71.71,0,0,0,1-.07.89.89,0,0,0,.22-.64.8.8,0,0,0-.21-.59.71.71,0,0,0-.55-.22.76.76,0,0,0-.39.1.69.69,0,0,0-.26.25l-.42-.06.35-1.83h1.78v.42H15.21l-.19,1a1.15,1.15,0,0,1,.67-.23,1.08,1.08,0,0,1,.8.33,1.13,1.13,0,0,1,.32.83,1.28,1.28,0,0,1-.29.84,1.14,1.14,0,0,1-.94.44,1.11,1.11,0,0,1-.79-.28A1,1,0,0,1,14.43,115.57Z" transform="translate(0.01 -22.19)"/><path class="cls-2" d="M11.88,93.82h-.43V91a3.28,3.28,0,0,1-.42.31,3.09,3.09,0,0,1-.46.22v-.42a3,3,0,0,0,.64-.42,1.75,1.75,0,0,0,.39-.48h.28Z" transform="translate(0.01 -22.19)"/><path class="cls-2" d="M13.29,93.82v-.5h.5v.5Z" transform="translate(0.01 -22.19)"/><path class="cls-2" d="M14.43,92.06a3.42,3.42,0,0,1,.13-1,1.31,1.31,0,0,1,.39-.6,1,1,0,0,1,.65-.21,1.07,1.07,0,0,1,.51.12.94.94,0,0,1,.36.33,2.17,2.17,0,0,1,.22.53,3.76,3.76,0,0,1,.08.85,3.2,3.2,0,0,1-.13,1,1.33,1.33,0,0,1-.39.59,1,1,0,0,1-.65.21,1,1,0,0,1-.81-.37A2.3,2.3,0,0,1,14.43,92.06Zm.46,0a2.31,2.31,0,0,0,.2,1.17.59.59,0,0,0,1,0,3.39,3.39,0,0,0,0-2.35.62.62,0,0,0-.51-.29.58.58,0,0,0-.49.26A2.3,2.3,0,0,0,14.89,92.06Z" transform="translate(0.01 -22.19)"/><path class="cls-2" d="M11.88,71.14h-.43v-2.8a2.54,2.54,0,0,1-.42.3,2.45,2.45,0,0,1-.46.23v-.42a3,3,0,0,0,.64-.42,1.75,1.75,0,0,0,.39-.48h.28Z" transform="translate(0.01 -22.19)"/><path class="cls-2" d="M13.29,71.14v-.5h.5v.5Z" transform="translate(0.01 -22.19)"/><path class="cls-2" d="M14.43,70.2l.47,0a.81.81,0,0,0,.23.5.71.71,0,0,0,1-.07.88.88,0,0,0,.22-.63.84.84,0,0,0-.21-.6.74.74,0,0,0-.55-.21.86.86,0,0,0-.39.09.78.78,0,0,0-.26.25l-.42,0,.35-1.84h1.78V68H15.21L15,69a1.14,1.14,0,0,1,.67-.22,1.11,1.11,0,0,1,.8.32,1.17,1.17,0,0,1,.32.84,1.32,1.32,0,0,1-.29.84,1.13,1.13,0,0,1-.94.43,1.15,1.15,0,0,1-.79-.27A1,1,0,0,1,14.43,70.2Z" transform="translate(0.01 -22.19)"/><path class="cls-2" d="M12.54,48v.42H10.17a1,1,0,0,1,.05-.3,1.76,1.76,0,0,1,.29-.48,4.54,4.54,0,0,1,.58-.54,4.87,4.87,0,0,0,.79-.76,1,1,0,0,0,.2-.53.6.6,0,0,0-.18-.44.69.69,0,0,0-.49-.18.73.73,0,0,0-.51.19.72.72,0,0,0-.19.53l-.45-.05a1.09,1.09,0,0,1,.35-.77,1.21,1.21,0,0,1,.81-.26,1.13,1.13,0,0,1,.81.28.94.94,0,0,1,.3.71,1.2,1.2,0,0,1-.08.42,1.57,1.57,0,0,1-.3.44,7.63,7.63,0,0,1-.67.63,5.24,5.24,0,0,0-.51.45,1.33,1.33,0,0,0-.19.24Z" transform="translate(0.01 -22.19)"/><path class="cls-2" d="M13.29,48.46V48h.5v.5Z" transform="translate(0.01 -22.19)"/><path class="cls-2" d="M14.43,46.7a3.54,3.54,0,0,1,.13-1,1.33,1.33,0,0,1,.39-.59,1,1,0,0,1,.65-.21,1.19,1.19,0,0,1,.51.11,1.06,1.06,0,0,1,.36.34,2,2,0,0,1,.22.53,3.76,3.76,0,0,1,.08.85,3.09,3.09,0,0,1-.13,1,1.31,1.31,0,0,1-.39.6,1,1,0,0,1-.65.21,1,1,0,0,1-.81-.37A2.32,2.32,0,0,1,14.43,46.7Zm.46,0a2.34,2.34,0,0,0,.2,1.17.59.59,0,0,0,1,0,3.39,3.39,0,0,0,0-2.35.62.62,0,0,0-.51-.29.58.58,0,0,0-.49.26A2.3,2.3,0,0,0,14.89,46.7Z" transform="translate(0.01 -22.19)"/><path class="cls-2" d="M12.54,25.36v.42H10.17a.94.94,0,0,1,.05-.3,1.62,1.62,0,0,1,.29-.48,4.54,4.54,0,0,1,.58-.54,4.87,4.87,0,0,0,.79-.76,1,1,0,0,0,.2-.53.6.6,0,0,0-.18-.44.77.77,0,0,0-1,0,.7.7,0,0,0-.19.53l-.45-.05a1.08,1.08,0,0,1,.35-.77,1.16,1.16,0,0,1,.81-.26,1.13,1.13,0,0,1,.81.28.94.94,0,0,1,.3.71,1.25,1.25,0,0,1-.08.42,1.57,1.57,0,0,1-.3.44,7.63,7.63,0,0,1-.67.63,5.24,5.24,0,0,0-.51.45,1.33,1.33,0,0,0-.19.24Z" transform="translate(0.01 -22.19)"/><path class="cls-2" d="M13.29,25.78v-.5h.5v.5Z" transform="translate(0.01 -22.19)"/><path class="cls-2" d="M14.43,24.84l.47,0a.81.81,0,0,0,.23.51.71.71,0,0,0,1-.07.88.88,0,0,0,.22-.63.84.84,0,0,0-.21-.6.74.74,0,0,0-.55-.21.86.86,0,0,0-.39.09.78.78,0,0,0-.26.25l-.42-.05.35-1.84h1.78v.42H15.21l-.19,1a1.14,1.14,0,0,1,.67-.22,1.11,1.11,0,0,1,.8.32,1.17,1.17,0,0,1,.32.84,1.32,1.32,0,0,1-.29.84,1.13,1.13,0,0,1-.94.43,1.15,1.15,0,0,1-.79-.27A1.07,1.07,0,0,1,14.43,24.84Z" transform="translate(0.01 -22.19)"/><path class="cls-2" d="M17.24,141.38a3.52,3.52,0,0,1,.13-1,1.33,1.33,0,0,1,.39-.59,1,1,0,0,1,.65-.21,1.06,1.06,0,0,1,.51.11,1,1,0,0,1,.35.34,1.73,1.73,0,0,1,.23.53,3.72,3.72,0,0,1,.08.84,3.52,3.52,0,0,1-.13,1,1.31,1.31,0,0,1-.39.6,1,1,0,0,1-.65.21,1,1,0,0,1-.81-.37A2.33,2.33,0,0,1,17.24,141.38Zm.45,0a2.25,2.25,0,0,0,.21,1.18.59.59,0,0,0,1,0,2.27,2.27,0,0,0,.2-1.18,2.23,2.23,0,0,0-.2-1.17.63.63,0,0,0-.52-.29.56.56,0,0,0-.48.26A2.24,2.24,0,0,0,17.69,141.38Z" transform="translate(0.01 -22.19)"/><path class="cls-2" d="M108.16,140.45l-.44,0a.8.8,0,0,0-.17-.37.56.56,0,0,0-.44-.19.61.61,0,0,0-.36.11,1,1,0,0,0-.33.45,2.41,2.41,0,0,0-.13.82,1,1,0,0,1,.39-.35,1,1,0,0,1,.48-.12,1,1,0,0,1,.75.32,1.16,1.16,0,0,1,.31.84,1.32,1.32,0,0,1-.15.62,1.08,1.08,0,0,1-.39.45,1.14,1.14,0,0,1-.58.15,1.12,1.12,0,0,1-.9-.4,2.06,2.06,0,0,1-.34-1.33,2.34,2.34,0,0,1,.38-1.51,1.08,1.08,0,0,1,.9-.41,1,1,0,0,1,1,.89Zm-1.8,1.54a.91.91,0,0,0,.1.43.7.7,0,0,0,.63.43.64.64,0,0,0,.48-.22.92.92,0,0,0,.2-.62.83.83,0,0,0-.2-.58.66.66,0,0,0-.5-.21.69.69,0,0,0-.5.21A.76.76,0,0,0,106.36,142Z" transform="translate(0.01 -22.19)"/><path class="cls-2" d="M108.72,140v-.42H111V140a4.77,4.77,0,0,0-.68,1,5.79,5.79,0,0,0-.51,1.24,4.17,4.17,0,0,0-.17,1h-.45a4.4,4.4,0,0,1,.16-1,5.42,5.42,0,0,1,.46-1.15,5.11,5.11,0,0,1,.63-.94Z" transform="translate(0.01 -22.19)"/><path class="cls-2" d="M111.47,141.38a3.2,3.2,0,0,1,.13-1,1.25,1.25,0,0,1,.39-.59,1,1,0,0,1,.64-.21,1,1,0,0,1,.51.11,1.06,1.06,0,0,1,.36.34,1.73,1.73,0,0,1,.22.53,3.72,3.72,0,0,1,.08.84,3.2,3.2,0,0,1-.13,1,1.22,1.22,0,0,1-.38.6,1,1,0,0,1-.66.21,1,1,0,0,1-.81-.37A2.41,2.41,0,0,1,111.47,141.38Zm.45,0a2.38,2.38,0,0,0,.2,1.18.62.62,0,0,0,.51.29.6.6,0,0,0,.51-.29,2.25,2.25,0,0,0,.21-1.18,2.2,2.2,0,0,0-.21-1.17.61.61,0,0,0-.51-.29.56.56,0,0,0-.48.26A2.15,2.15,0,0,0,111.92,141.38Z" transform="translate(0.01 -22.19)"/><path class="cls-2" d="M114.28,141.38a3.2,3.2,0,0,1,.13-1,1.33,1.33,0,0,1,.39-.59,1.14,1.14,0,0,1,1.15-.1.9.9,0,0,1,.36.34,1.73,1.73,0,0,1,.22.53,4.23,4.23,0,0,1,0,1.86,1.22,1.22,0,0,1-.38.6,1,1,0,0,1-.65.21,1,1,0,0,1-.82-.37A2.41,2.41,0,0,1,114.28,141.38Zm.45,0a2.25,2.25,0,0,0,.21,1.18.58.58,0,0,0,1,0,2.25,2.25,0,0,0,.21-1.18,2.2,2.2,0,0,0-.21-1.17.6.6,0,0,0-.51-.29.56.56,0,0,0-.48.26A2.24,2.24,0,0,0,114.73,141.38Z" transform="translate(0.01 -22.19)"/><polyline class="cls-3" points="18.44 86.52 25.54 86.52 32.27 86.52 45.76 86.52 59.24 86.52 72.73 93.74 86.21 98.07 99.69 100.95 109.14 102.45"/><polyline class="cls-3" points="18.44 11.44 43.07 11.44 52.51 28.75 109.14 83.64"/><rect class="繝後Μ_逋ｽ-2" x="109.15" y="1.91" width="2.83" height="113.39"/><path class="cls-2" d="M42.3,142.73v.42H39.93a.73.73,0,0,1,.06-.3,1.43,1.43,0,0,1,.29-.48,3.81,3.81,0,0,1,.57-.54,4.87,4.87,0,0,0,.79-.76.88.88,0,0,0,.2-.53.6.6,0,0,0-.18-.44.77.77,0,0,0-1,0,.74.74,0,0,0-.19.53l-.45,0a1.12,1.12,0,0,1,.35-.77,1.21,1.21,0,0,1,.81-.26,1.17,1.17,0,0,1,.82.28.94.94,0,0,1,.3.71,1.06,1.06,0,0,1-.09.42,1.75,1.75,0,0,1-.29.44c-.14.15-.37.36-.68.63s-.43.37-.51.45a2,2,0,0,0-.19.24Z" transform="translate(0.01 -22.19)"/><path class="cls-2" d="M42.8,141.39a3.23,3.23,0,0,1,.13-1,1.33,1.33,0,0,1,.39-.59,1,1,0,0,1,.65-.21,1.12,1.12,0,0,1,.5.11.9.9,0,0,1,.36.34,1.51,1.51,0,0,1,.22.53,3.19,3.19,0,0,1,.09.85,3.44,3.44,0,0,1-.13,1,1.31,1.31,0,0,1-.39.6,1,1,0,0,1-.65.21,1,1,0,0,1-.81-.37A2.32,2.32,0,0,1,42.8,141.39Zm.45,0a2.23,2.23,0,0,0,.21,1.17.59.59,0,0,0,1,0,3.55,3.55,0,0,0,0-2.35.63.63,0,0,0-.52-.29.56.56,0,0,0-.48.26A2.28,2.28,0,0,0,43.25,141.39Z" transform="translate(0.01 -22.19)"/><path class="cls-2" d="M45.55,141.39a3.54,3.54,0,0,1,.13-1,1.33,1.33,0,0,1,.39-.59,1,1,0,0,1,.65-.21,1.12,1.12,0,0,1,.5.11.9.9,0,0,1,.36.34,1.73,1.73,0,0,1,.23.53,3.76,3.76,0,0,1,.08.85,3.44,3.44,0,0,1-.13,1,1.31,1.31,0,0,1-.39.6,1,1,0,0,1-.65.21,1,1,0,0,1-.81-.37A2.32,2.32,0,0,1,45.55,141.39Zm.45,0a2.23,2.23,0,0,0,.21,1.17.59.59,0,0,0,1,0,3.55,3.55,0,0,0,0-2.35.63.63,0,0,0-.52-.29.56.56,0,0,0-.48.26A2.28,2.28,0,0,0,46,141.39Z" transform="translate(0.01 -22.19)"/><path class="cls-2" d="M48.36,141.39a3.54,3.54,0,0,1,.13-1,1.33,1.33,0,0,1,.39-.59,1,1,0,0,1,.65-.21,1.19,1.19,0,0,1,.51.11,1,1,0,0,1,.35.34,1.73,1.73,0,0,1,.23.53,3.76,3.76,0,0,1,.08.85,3.44,3.44,0,0,1-.13,1,1.31,1.31,0,0,1-.39.6,1,1,0,0,1-.65.21,1,1,0,0,1-.81-.37A2.32,2.32,0,0,1,48.36,141.39Zm.45,0a2.23,2.23,0,0,0,.21,1.17.59.59,0,0,0,1,0,3.39,3.39,0,0,0,0-2.35.63.63,0,0,0-.52-.29.56.56,0,0,0-.48.26A2.28,2.28,0,0,0,48.81,141.39Z" transform="translate(0.01 -22.19)"/><path class="cls-2" d="M68.34,143.15v-.86H66.79v-.4l1.63-2.32h.36v2.32h.49v.4h-.49v.86Zm0-1.26v-1.61l-1.12,1.61Z" transform="translate(0.01 -22.19)"/><path class="cls-2" d="M69.75,141.39a3.23,3.23,0,0,1,.13-1,1.24,1.24,0,0,1,.38-.59,1,1,0,0,1,.65-.21,1.19,1.19,0,0,1,.51.11,1.06,1.06,0,0,1,.36.34,1.73,1.73,0,0,1,.22.53,3.76,3.76,0,0,1,.08.85,3.14,3.14,0,0,1-.13,1,1.31,1.31,0,0,1-.39.6,1,1,0,0,1-.65.21,1,1,0,0,1-.81-.37A2.33,2.33,0,0,1,69.75,141.39Zm.45,0a2.36,2.36,0,0,0,.2,1.17.59.59,0,0,0,1,0,3.39,3.39,0,0,0,0-2.35.62.62,0,0,0-.51-.29.58.58,0,0,0-.49.26A2.3,2.3,0,0,0,70.2,141.39Z" transform="translate(0.01 -22.19)"/><path class="cls-2" d="M72.5,141.39a3.23,3.23,0,0,1,.13-1,1.18,1.18,0,0,1,.39-.59,1,1,0,0,1,.64-.21,1.16,1.16,0,0,1,.51.11,1.06,1.06,0,0,1,.36.34,1.73,1.73,0,0,1,.22.53,3.76,3.76,0,0,1,.08.85,3.14,3.14,0,0,1-.13,1,1.23,1.23,0,0,1-.39.6,1.09,1.09,0,0,1-1.46-.16A2.33,2.33,0,0,1,72.5,141.39Zm.45,0a2.36,2.36,0,0,0,.2,1.17.62.62,0,0,0,.51.29.6.6,0,0,0,.51-.29,3.39,3.39,0,0,0,0-2.35.61.61,0,0,0-.51-.29.56.56,0,0,0-.48.26A2.19,2.19,0,0,0,73,141.39Z" transform="translate(0.01 -22.19)"/><path class="cls-2" d="M75.31,141.39a3.23,3.23,0,0,1,.13-1,1.18,1.18,0,0,1,.39-.59,1,1,0,0,1,.64-.21,1.16,1.16,0,0,1,.51.11,1.06,1.06,0,0,1,.36.34,1.73,1.73,0,0,1,.22.53,3.76,3.76,0,0,1,.08.85,3.14,3.14,0,0,1-.13,1,1.17,1.17,0,0,1-.39.6,1.09,1.09,0,0,1-1.46-.16A2.39,2.39,0,0,1,75.31,141.39Zm.45,0a2.36,2.36,0,0,0,.2,1.17.62.62,0,0,0,.51.29.6.6,0,0,0,.51-.29,3.39,3.39,0,0,0,0-2.35.61.61,0,0,0-.51-.29.56.56,0,0,0-.48.26A2.19,2.19,0,0,0,75.76,141.39Z" transform="translate(0.01 -22.19)"/><path class="cls-2" d="M96.12,140.45l-.43,0a.8.8,0,0,0-.17-.37.56.56,0,0,0-.44-.19.67.67,0,0,0-.37.11,1,1,0,0,0-.32.45,2.19,2.19,0,0,0-.13.82,1,1,0,0,1,.39-.35,1,1,0,0,1,.48-.12,1,1,0,0,1,.75.32,1.21,1.21,0,0,1,.31.84,1.32,1.32,0,0,1-.15.62,1,1,0,0,1-1,.6,1.12,1.12,0,0,1-.9-.4,2.06,2.06,0,0,1-.35-1.33,2.34,2.34,0,0,1,.39-1.51,1.08,1.08,0,0,1,.9-.41,1,1,0,0,1,.69.23A1,1,0,0,1,96.12,140.45ZM94.33,142a.91.91,0,0,0,.1.43.7.7,0,0,0,.63.43.67.67,0,0,0,.48-.22.92.92,0,0,0,.2-.62.83.83,0,0,0-.2-.58.7.7,0,0,0-1,0A.76.76,0,0,0,94.33,142Z" transform="translate(0.01 -22.19)"/><path class="cls-2" d="M96.65,141.38a3.52,3.52,0,0,1,.13-1,1.33,1.33,0,0,1,.39-.59,1,1,0,0,1,.65-.21.95.95,0,0,1,.87.45,2,2,0,0,1,.22.53,3.72,3.72,0,0,1,.08.84,3.52,3.52,0,0,1-.13,1,1.31,1.31,0,0,1-.39.6,1,1,0,0,1-.65.21,1,1,0,0,1-.81-.37A2.33,2.33,0,0,1,96.65,141.38Zm.46,0a2.27,2.27,0,0,0,.2,1.18.59.59,0,0,0,1,0,2.25,2.25,0,0,0,.21-1.18,2.2,2.2,0,0,0-.21-1.17.62.62,0,0,0-.51-.29.57.57,0,0,0-.49.26A2.26,2.26,0,0,0,97.11,141.38Z" transform="translate(0.01 -22.19)"/><path class="cls-2" d="M99.4,141.38a3.17,3.17,0,0,1,.14-1,1.24,1.24,0,0,1,.38-.59,1,1,0,0,1,.65-.21.95.95,0,0,1,.87.45,2,2,0,0,1,.22.53,3.72,3.72,0,0,1,.08.84,3.2,3.2,0,0,1-.13,1,1.31,1.31,0,0,1-.39.6,1,1,0,0,1-.65.21,1,1,0,0,1-.81-.37A2.33,2.33,0,0,1,99.4,141.38Zm.46,0a2.38,2.38,0,0,0,.2,1.18.59.59,0,0,0,1,0,2.25,2.25,0,0,0,.21-1.18,2.2,2.2,0,0,0-.21-1.17.62.62,0,0,0-.51-.29.58.58,0,0,0-.49.26A2.26,2.26,0,0,0,99.86,141.38Z" transform="translate(0.01 -22.19)"/><path class="cls-2" d="M102.22,141.38a3.2,3.2,0,0,1,.13-1,1.24,1.24,0,0,1,.38-.59,1,1,0,0,1,.65-.21.95.95,0,0,1,.87.45,1.73,1.73,0,0,1,.22.53,3.72,3.72,0,0,1,.08.84,3.2,3.2,0,0,1-.13,1,1.31,1.31,0,0,1-.39.6,1,1,0,0,1-.65.21,1,1,0,0,1-.81-.37A2.34,2.34,0,0,1,102.22,141.38Zm.45,0a2.38,2.38,0,0,0,.2,1.18.59.59,0,0,0,1,0,2.25,2.25,0,0,0,.21-1.18,2.2,2.2,0,0,0-.21-1.17.62.62,0,0,0-.51-.29.58.58,0,0,0-.49.26A2.26,2.26,0,0,0,102.67,141.38Z" transform="translate(0.01 -22.19)"/><rect class="邱喟0.5pt-5" x="18.44" y="1.91" width="90.71" height="113.39"/></g><g id="English"><path class="cls-2" d="M44.76,150.55l.58-.05a1.32,1.32,0,0,0,.19.58,1,1,0,0,0,.47.36,1.8,1.8,0,0,0,.71.14,1.64,1.64,0,0,0,.62-.11.91.91,0,0,0,.41-.28.76.76,0,0,0,.13-.4.59.59,0,0,0-.13-.39.92.92,0,0,0-.42-.27c-.12,0-.4-.12-.83-.23a4.15,4.15,0,0,1-.89-.29,1.19,1.19,0,0,1-.5-.43,1.06,1.06,0,0,1-.16-.58,1.16,1.16,0,0,1,.2-.66,1.18,1.18,0,0,1,.58-.46,2.15,2.15,0,0,1,.85-.16,2.4,2.4,0,0,1,.92.16,1.4,1.4,0,0,1,.6.49,1.44,1.44,0,0,1,.23.74l-.59,0a1,1,0,0,0-.32-.66,1.24,1.24,0,0,0-.81-.23,1.37,1.37,0,0,0-.82.2.63.63,0,0,0-.25.5.52.52,0,0,0,.18.41,2.39,2.39,0,0,0,.93.33,7.58,7.58,0,0,1,1,.3,1.39,1.39,0,0,1,.6.47,1.19,1.19,0,0,1,.19.67,1.3,1.3,0,0,1-.21.7,1.4,1.4,0,0,1-.61.51,2.19,2.19,0,0,1-.9.18,2.76,2.76,0,0,1-1.06-.18,1.54,1.54,0,0,1-.67-.56A1.59,1.59,0,0,1,44.76,150.55Z" transform="translate(0.01 -22.19)"/><path class="cls-2" d="M49.23,153.34v-4.66h.52v.44a1.29,1.29,0,0,1,.42-.39,1.19,1.19,0,0,1,.56-.13,1.31,1.31,0,0,1,.76.23,1.29,1.29,0,0,1,.5.62,2.39,2.39,0,0,1,0,1.82,1.36,1.36,0,0,1-.54.64,1.45,1.45,0,0,1-.74.22,1.14,1.14,0,0,1-.52-.12,1.42,1.42,0,0,1-.37-.31v1.64Zm.52-3a1.46,1.46,0,0,0,.26,1,.84.84,0,0,0,.64.31.82.82,0,0,0,.65-.33,1.5,1.5,0,0,0,.27-1,1.56,1.56,0,0,0-.26-1,.82.82,0,0,0-.64-.32.8.8,0,0,0-.64.34A1.52,1.52,0,0,0,49.75,150.38Z" transform="translate(0.01 -22.19)"/><path class="cls-2" d="M55.15,151l.59.08a1.39,1.39,0,0,1-.52.8,1.72,1.72,0,0,1-2.13-.17,1.77,1.77,0,0,1-.44-1.28,1.9,1.9,0,0,1,.44-1.32,1.49,1.49,0,0,1,1.14-.47,1.45,1.45,0,0,1,1.1.46,1.82,1.82,0,0,1,.43,1.3v.15H53.24a1.34,1.34,0,0,0,.32.85.92.92,0,0,0,.7.3.89.89,0,0,0,.54-.17A1,1,0,0,0,55.15,151ZM53.28,150h1.88a1.18,1.18,0,0,0-.22-.64.88.88,0,0,0-.71-.33.9.9,0,0,0-.66.27A1,1,0,0,0,53.28,150Z" transform="translate(0.01 -22.19)"/><path class="cls-2" d="M58.77,151l.59.08a1.5,1.5,0,0,1-.52.8,1.54,1.54,0,0,1-1,.29,1.57,1.57,0,0,1-1.18-.46,1.77,1.77,0,0,1-.43-1.28,1.9,1.9,0,0,1,.44-1.32,1.58,1.58,0,0,1,2.24,0,1.87,1.87,0,0,1,.43,1.3,1,1,0,0,1,0,.15H56.86a1.34,1.34,0,0,0,.31.85.94.94,0,0,0,.71.3.84.84,0,0,0,.53-.17A1.08,1.08,0,0,0,58.77,151ZM56.89,150h1.88a1.1,1.1,0,0,0-.21-.64.88.88,0,0,0-.71-.33.9.9,0,0,0-.66.27A1,1,0,0,0,56.89,150Z" transform="translate(0.01 -22.19)"/><path class="cls-2" d="M62.26,152.05v-.43a1,1,0,0,1-.94.51,1.3,1.3,0,0,1-.74-.23,1.41,1.41,0,0,1-.53-.62,2.17,2.17,0,0,1-.18-.91,2.29,2.29,0,0,1,.17-.92,1.37,1.37,0,0,1,.5-.63,1.43,1.43,0,0,1,.75-.22,1.21,1.21,0,0,1,.55.13,1.24,1.24,0,0,1,.38.34V147.4h.57v4.65Zm-1.8-1.68a1.5,1.5,0,0,0,.27,1,.81.81,0,0,0,1.28,0,1.43,1.43,0,0,0,.26-.93,1.58,1.58,0,0,0-.27-1,.82.82,0,0,0-1.29,0A1.52,1.52,0,0,0,60.46,150.37Z" transform="translate(0.01 -22.19)"/><path class="cls-2" d="M65.51,153.34V147.4h1.26v.47h-.69v5h.69v.47Z" transform="translate(0.01 -22.19)"/><path class="cls-2" d="M67.3,152.05v-3.37h.51v.51a1.31,1.31,0,0,1,.36-.47.63.63,0,0,1,.37-.12,1.08,1.08,0,0,1,.59.19l-.2.53a.76.76,0,0,0-.42-.13.54.54,0,0,0-.34.12.58.58,0,0,0-.21.31,2.31,2.31,0,0,0-.09.67v1.76Z" transform="translate(0.01 -22.19)"/><path class="cls-2" d="M69,152.13l1.35-4.81h.45l-1.34,4.81Z" transform="translate(0.01 -22.19)"/><path class="cls-2" d="M71.27,152.05v-3.37h.51v.47a1.34,1.34,0,0,1,.42-.4,1.21,1.21,0,0,1,.6-.15,1.16,1.16,0,0,1,.62.16.86.86,0,0,1,.34.43,1.2,1.2,0,0,1,1-.59,1.05,1.05,0,0,1,.77.28,1.2,1.2,0,0,1,.27.86v2.31h-.57v-2.12a1.91,1.91,0,0,0,0-.5.49.49,0,0,0-.21-.24.62.62,0,0,0-.34-.09.82.82,0,0,0-.59.23,1,1,0,0,0-.23.76v2h-.58v-2.19a.92.92,0,0,0-.14-.57.51.51,0,0,0-.45-.19.81.81,0,0,0-.45.13.69.69,0,0,0-.29.37,1.82,1.82,0,0,0-.1.7v1.75Z" transform="translate(0.01 -22.19)"/><path class="cls-2" d="M76.69,148.05v-.65h.57v.65Zm0,4v-3.37h.57v3.37Z" transform="translate(0.01 -22.19)"/><path class="cls-2" d="M78.13,152.05v-3.37h.51v.48a1.23,1.23,0,0,1,1.08-.56,1.47,1.47,0,0,1,.56.11.89.89,0,0,1,.38.29,1.33,1.33,0,0,1,.18.42,3.51,3.51,0,0,1,0,.56v2.07H80.3V150a1.38,1.38,0,0,0-.07-.52.53.53,0,0,0-.23-.28.77.77,0,0,0-.4-.1.92.92,0,0,0-.63.23,1.13,1.13,0,0,0-.27.88v1.84Z" transform="translate(0.01 -22.19)"/><path class="cls-2" d="M82.7,153.34H81.44v-.47h.69v-5h-.69v-.47H82.7Z" transform="translate(0.01 -22.19)"/><rect class="繝後Μ_逋ｽ-2" x="21.8" y="94.94" width="43.3" height="16.72"/><path class="cls-2" d="M28.1,121.87l.62.16a2.12,2.12,0,0,1-.7,1.16,2,2,0,0,1-1.23.39,2.23,2.23,0,0,1-1.22-.3,1.88,1.88,0,0,1-.72-.89,3.07,3.07,0,0,1-.25-1.25,2.78,2.78,0,0,1,.28-1.26,2,2,0,0,1,.79-.83,2.39,2.39,0,0,1,1.13-.28,1.81,1.81,0,0,1,1.84,1.36l-.61.14a1.44,1.44,0,0,0-.47-.74,1.26,1.26,0,0,0-.77-.23,1.52,1.52,0,0,0-.9.26,1.37,1.37,0,0,0-.51.69,3,3,0,0,0-.14.89,2.77,2.77,0,0,0,.17,1,1.37,1.37,0,0,0,.54.66,1.54,1.54,0,0,0,.79.22,1.3,1.3,0,0,0,.87-.3A1.49,1.49,0,0,0,28.1,121.87Z" transform="translate(0.01 -22.19)"/><path class="cls-2" d="M29.19,121.82a1.74,1.74,0,0,1,.52-1.39,1.69,1.69,0,0,1,2.2.08,1.77,1.77,0,0,1,.44,1.26,2.24,2.24,0,0,1-.2,1,1.36,1.36,0,0,1-.57.57,1.63,1.63,0,0,1-.81.21,1.51,1.51,0,0,1-1.14-.45A1.78,1.78,0,0,1,29.19,121.82Zm.59,0a1.44,1.44,0,0,0,.28,1,.91.91,0,0,0,.71.32.93.93,0,0,0,.71-.32,1.48,1.48,0,0,0,.28-1,1.45,1.45,0,0,0-.28-1,.93.93,0,0,0-.71-.32.91.91,0,0,0-.71.32A1.44,1.44,0,0,0,29.78,121.82Z" transform="translate(0.01 -22.19)"/><path class="cls-2" d="M33,123.51v-3.38h.51v.48a1.21,1.21,0,0,1,1.07-.55,1.43,1.43,0,0,1,.56.11,1,1,0,0,1,.39.28,1.11,1.11,0,0,1,.17.43,3.07,3.07,0,0,1,0,.55v2.08h-.58v-2.05a1.75,1.75,0,0,0-.06-.53.62.62,0,0,0-.24-.27.75.75,0,0,0-.4-.11,1,1,0,0,0-.63.23,1.18,1.18,0,0,0-.26.88v1.85Z" transform="translate(0.01 -22.19)"/><path class="cls-2" d="M37.88,123l.08.51a2.37,2.37,0,0,1-.43,0,.9.9,0,0,1-.48-.1.47.47,0,0,1-.24-.26,1.9,1.9,0,0,1-.07-.67v-1.94h-.42v-.45h.42v-.83l.56-.34v1.17h.58v.45H37.3v2a1,1,0,0,0,0,.31.22.22,0,0,0,.1.11.37.37,0,0,0,.2,0Z" transform="translate(0.01 -22.19)"/><path class="cls-2" d="M38.44,119.51v-.66H39v.66Zm0,4v-3.38H39v3.38Z" transform="translate(0.01 -22.19)"/><path class="cls-2" d="M39.88,123.51v-3.38h.52v.48a1.19,1.19,0,0,1,1.07-.55,1.47,1.47,0,0,1,.56.11.88.88,0,0,1,.38.28,1.12,1.12,0,0,1,.18.43,3.37,3.37,0,0,1,0,.55v2.08h-.57v-2.05a1.44,1.44,0,0,0-.07-.53.54.54,0,0,0-.23-.27.77.77,0,0,0-.4-.11.92.92,0,0,0-.63.23,1.14,1.14,0,0,0-.27.88v1.85Z" transform="translate(0.01 -22.19)"/><path class="cls-2" d="M45.71,123.51V123a1.25,1.25,0,0,1-1.07.57,1.47,1.47,0,0,1-.56-.11,1.1,1.1,0,0,1-.39-.29,1.13,1.13,0,0,1-.17-.42,2.4,2.4,0,0,1,0-.54v-2.09h.57V122a3.65,3.65,0,0,0,0,.61.57.57,0,0,0,.23.35.67.67,0,0,0,.43.13.91.91,0,0,0,.48-.13.74.74,0,0,0,.32-.36,1.86,1.86,0,0,0,.09-.66v-1.81h.58v3.38Z" transform="translate(0.01 -22.19)"/><path class="cls-2" d="M46.9,121.82a1.74,1.74,0,0,1,.52-1.39,1.69,1.69,0,0,1,2.2.08,1.77,1.77,0,0,1,.44,1.26,2.24,2.24,0,0,1-.2,1,1.36,1.36,0,0,1-.57.57,1.63,1.63,0,0,1-.81.21,1.51,1.51,0,0,1-1.14-.45A1.78,1.78,0,0,1,46.9,121.82Zm.59,0a1.44,1.44,0,0,0,.28,1,.91.91,0,0,0,.71.32.93.93,0,0,0,.71-.32,1.48,1.48,0,0,0,.28-1,1.45,1.45,0,0,0-.28-1,.93.93,0,0,0-.71-.32.91.91,0,0,0-.71.32A1.44,1.44,0,0,0,47.49,121.82Z" transform="translate(0.01 -22.19)"/><path class="cls-2" d="M52.94,123.51V123a1.25,1.25,0,0,1-1.07.57,1.47,1.47,0,0,1-.56-.11,1.1,1.1,0,0,1-.39-.29,1.13,1.13,0,0,1-.17-.42,2.4,2.4,0,0,1,0-.54v-2.09h.57V122a3.65,3.65,0,0,0,0,.61.57.57,0,0,0,.23.35.67.67,0,0,0,.43.13.91.91,0,0,0,.48-.13.74.74,0,0,0,.32-.36,1.86,1.86,0,0,0,.09-.66v-1.81h.58v3.38Z" transform="translate(0.01 -22.19)"/><path class="cls-2" d="M54.11,122.5l.57-.09a.79.79,0,0,0,.26.52.94.94,0,0,0,.61.18.86.86,0,0,0,.58-.16.47.47,0,0,0,.19-.38.35.35,0,0,0-.16-.3,2.32,2.32,0,0,0-.59-.19,5.22,5.22,0,0,1-.87-.28.83.83,0,0,1-.37-.32.92.92,0,0,1,0-.87,1,1,0,0,1,.28-.32,1.17,1.17,0,0,1,.37-.16,1.53,1.53,0,0,1,.49-.07,2.14,2.14,0,0,1,.7.11,1,1,0,0,1,.44.31,1.38,1.38,0,0,1,.2.52l-.56.08a.66.66,0,0,0-.22-.41.89.89,0,0,0-.52-.14.91.91,0,0,0-.56.13.39.39,0,0,0-.17.3.29.29,0,0,0,.07.2.66.66,0,0,0,.22.16l.5.14a6.75,6.75,0,0,1,.85.27.87.87,0,0,1,.38.3.83.83,0,0,1,.13.49.94.94,0,0,1-.16.53,1.12,1.12,0,0,1-.49.39,1.58,1.58,0,0,1-.71.14,1.61,1.61,0,0,1-1-.27A1.29,1.29,0,0,1,54.11,122.5Z" transform="translate(0.01 -22.19)"/><path class="cls-2" d="M24.7,131.31v-3.38h.52v.52a1.47,1.47,0,0,1,.36-.48.66.66,0,0,1,.36-.11,1.12,1.12,0,0,1,.59.18l-.19.53a.84.84,0,0,0-.42-.12.58.58,0,0,0-.34.11.62.62,0,0,0-.21.31,2.09,2.09,0,0,0-.1.67v1.77Z" transform="translate(0.01 -22.19)"/><path class="cls-2" d="M29.08,131.31v-.5a1.23,1.23,0,0,1-1.07.57,1.51,1.51,0,0,1-.56-.11,1,1,0,0,1-.38-.29,1.33,1.33,0,0,1-.18-.42,3.48,3.48,0,0,1,0-.54v-2.09h.57v1.87a2.79,2.79,0,0,0,0,.61.56.56,0,0,0,.22.35.7.7,0,0,0,.44.13.91.91,0,0,0,.48-.13.79.79,0,0,0,.32-.36,1.86,1.86,0,0,0,.09-.66v-1.81h.57v3.38Z" transform="translate(0.01 -22.19)"/><path class="cls-2" d="M30.49,131.31v-3.38H31v.48a1.21,1.21,0,0,1,1.07-.55,1.43,1.43,0,0,1,.56.11,1,1,0,0,1,.39.28,1.11,1.11,0,0,1,.17.43,3.07,3.07,0,0,1,0,.55v2.08h-.58v-2.05a1.75,1.75,0,0,0-.06-.53.62.62,0,0,0-.24-.27.72.72,0,0,0-.4-.11,1,1,0,0,0-.63.23,1.18,1.18,0,0,0-.26.88v1.85Z" transform="translate(0.01 -22.19)"/><path class="cls-2" d="M34.1,131.31v-3.38h.52v.48a1.19,1.19,0,0,1,1.07-.55,1.47,1.47,0,0,1,.56.11.88.88,0,0,1,.38.28,1,1,0,0,1,.18.43,3.37,3.37,0,0,1,0,.55v2.08h-.57v-2.05a1.44,1.44,0,0,0-.07-.53.54.54,0,0,0-.23-.27.77.77,0,0,0-.4-.11.92.92,0,0,0-.63.23,1.14,1.14,0,0,0-.27.88v1.85Z" transform="translate(0.01 -22.19)"/><path class="cls-2" d="M37.72,127.31v-.66h.57v.66Zm0,4v-3.38h.57v3.38Z" transform="translate(0.01 -22.19)"/><path class="cls-2" d="M39.16,131.31v-3.38h.51v.48a1.22,1.22,0,0,1,1.08-.55,1.47,1.47,0,0,1,.56.11.88.88,0,0,1,.38.28,1.3,1.3,0,0,1,.18.43,3.37,3.37,0,0,1,0,.55v2.08h-.57v-2.05a1.44,1.44,0,0,0-.07-.53.54.54,0,0,0-.23-.27.77.77,0,0,0-.4-.11.92.92,0,0,0-.63.23,1.14,1.14,0,0,0-.27.88v1.85Z" transform="translate(0.01 -22.19)"/><path class="cls-2" d="M42.67,131.58l.56.09a.5.5,0,0,0,.19.37.93.93,0,0,0,.58.16,1,1,0,0,0,.61-.16.78.78,0,0,0,.3-.44,3.89,3.89,0,0,0,0-.74,1.17,1.17,0,0,1-.94.45,1.25,1.25,0,0,1-1.07-.51,1.87,1.87,0,0,1-.38-1.2,2.35,2.35,0,0,1,.17-.89,1.46,1.46,0,0,1,.51-.63,1.35,1.35,0,0,1,.78-.22,1.22,1.22,0,0,1,1,.48v-.41h.53v2.92a2.88,2.88,0,0,1-.16,1.11,1.16,1.16,0,0,1-.51.52,1.74,1.74,0,0,1-.86.19,1.61,1.61,0,0,1-1-.27A.91.91,0,0,1,42.67,131.58Zm.47-2a1.46,1.46,0,0,0,.27,1,.83.83,0,0,0,.66.3.85.85,0,0,0,.66-.3,1.8,1.8,0,0,0,0-1.88.84.84,0,0,0-1.31,0A1.37,1.37,0,0,0,43.14,129.56Z" transform="translate(0.01 -22.19)"/><path class="cls-2" d="M48.19,131.31v-3.38h.51v.52a1.62,1.62,0,0,1,.37-.48.66.66,0,0,1,.36-.11A1.12,1.12,0,0,1,50,128l-.2.53a.78.78,0,0,0-.41-.12.58.58,0,0,0-.34.11.62.62,0,0,0-.21.31,2.09,2.09,0,0,0-.1.67v1.77Z" transform="translate(0.01 -22.19)"/><path class="cls-2" d="M52.56,130.89a2,2,0,0,1-.61.38,1.9,1.9,0,0,1-.63.11,1.2,1.2,0,0,1-.85-.27.89.89,0,0,1-.3-.69,1,1,0,0,1,.11-.46.92.92,0,0,1,.3-.32,1.11,1.11,0,0,1,.41-.19,4.31,4.31,0,0,1,.5-.09,5.17,5.17,0,0,0,1-.19,1.14,1.14,0,0,0,0-.15.6.6,0,0,0-.17-.49.94.94,0,0,0-.65-.2,1,1,0,0,0-.59.14.92.92,0,0,0-.29.5l-.55-.07a1.29,1.29,0,0,1,.25-.58A1,1,0,0,1,51,128a2.26,2.26,0,0,1,.77-.12,2,2,0,0,1,.7.1.83.83,0,0,1,.39.26.79.79,0,0,1,.18.38,3.16,3.16,0,0,1,0,.53v.76a6.89,6.89,0,0,0,0,1,1.25,1.25,0,0,0,.14.41h-.6A1.61,1.61,0,0,1,52.56,130.89Zm-.05-1.28a3.85,3.85,0,0,1-.93.22,2.25,2.25,0,0,0-.5.11.52.52,0,0,0-.22.19.43.43,0,0,0-.08.27.47.47,0,0,0,.17.38.76.76,0,0,0,.51.15,1.11,1.11,0,0,0,.58-.14.92.92,0,0,0,.38-.4,1.35,1.35,0,0,0,.09-.57Z" transform="translate(0.01 -22.19)"/><path class="cls-2" d="M54,131.31v-3.38h.51v.48a1.21,1.21,0,0,1,1.07-.55,1.43,1.43,0,0,1,.56.11,1,1,0,0,1,.39.28,1.11,1.11,0,0,1,.17.43,3.07,3.07,0,0,1,0,.55v2.08h-.58v-2.05a1.75,1.75,0,0,0-.06-.53.62.62,0,0,0-.24-.27.75.75,0,0,0-.4-.11,1,1,0,0,0-.63.23,1.18,1.18,0,0,0-.26.88v1.85Z" transform="translate(0.01 -22.19)"/><path class="cls-2" d="M57.49,131.58l.55.09a.54.54,0,0,0,.2.37.91.91,0,0,0,.58.16,1,1,0,0,0,.61-.16.76.76,0,0,0,.29-.44,3.89,3.89,0,0,0,0-.74,1.16,1.16,0,0,1-.93.45,1.28,1.28,0,0,1-1.08-.51,1.93,1.93,0,0,1-.38-1.2,2.18,2.18,0,0,1,.18-.89,1.37,1.37,0,0,1,.5-.63,1.35,1.35,0,0,1,.78-.22,1.22,1.22,0,0,1,1,.48v-.41h.52v2.92a2.7,2.7,0,0,1-.16,1.11,1.09,1.09,0,0,1-.5.52,1.76,1.76,0,0,1-.86.19,1.59,1.59,0,0,1-1-.27A.91.91,0,0,1,57.49,131.58Zm.47-2a1.52,1.52,0,0,0,.26,1,.85.85,0,0,0,.66.3.83.83,0,0,0,.66-.3,1.77,1.77,0,0,0,0-1.88.88.88,0,0,0-.67-.32.82.82,0,0,0-.64.31A1.37,1.37,0,0,0,58,129.56Z" transform="translate(0.01 -22.19)"/><path class="cls-2" d="M63.51,130.22l.59.07a1.42,1.42,0,0,1-.51.81,1.59,1.59,0,0,1-1,.28,1.55,1.55,0,0,1-1.17-.45,1.79,1.79,0,0,1-.43-1.28,1.86,1.86,0,0,1,.43-1.32,1.47,1.47,0,0,1,1.14-.47,1.41,1.41,0,0,1,1.1.46,1.81,1.81,0,0,1,.43,1.29v.16H61.61a1.28,1.28,0,0,0,.31.85,1,1,0,0,0,.7.29.89.89,0,0,0,.54-.16A1.05,1.05,0,0,0,63.51,130.22Zm-1.87-.92h1.88a1.15,1.15,0,0,0-.22-.64.86.86,0,0,0-.7-.33.94.94,0,0,0-.67.26A1.1,1.1,0,0,0,61.64,129.3Z" transform="translate(0.01 -22.19)"/><rect class="繝後Μ_逋ｽ-2" x="21.27" y="48.68" width="47.91" height="16.72"/><path class="cls-2" d="M24.47,75.75l.58,0a1.32,1.32,0,0,0,.19.58,1,1,0,0,0,.47.36,1.81,1.81,0,0,0,.72.14,1.71,1.71,0,0,0,.62-.11.82.82,0,0,0,.4-.29.63.63,0,0,0,.13-.39.59.59,0,0,0-.13-.39.86.86,0,0,0-.41-.27,7.91,7.91,0,0,0-.83-.23,4.09,4.09,0,0,1-.9-.29,1.34,1.34,0,0,1-.5-.43,1.06,1.06,0,0,1-.16-.58,1.19,1.19,0,0,1,.2-.66,1.3,1.3,0,0,1,.58-.47,2.35,2.35,0,0,1,.86-.15,2.38,2.38,0,0,1,.91.16A1.3,1.3,0,0,1,28,73.91l-.59,0a1,1,0,0,0-.32-.67,1.24,1.24,0,0,0-.81-.22,1.34,1.34,0,0,0-.81.2.63.63,0,0,0-.26.5.54.54,0,0,0,.18.41,2.39,2.39,0,0,0,.93.33,5.21,5.21,0,0,1,1,.3,1.39,1.39,0,0,1,.6.47,1.14,1.14,0,0,1,.19.66,1.25,1.25,0,0,1-.21.7,1.43,1.43,0,0,1-.61.52,2.13,2.13,0,0,1-.9.18,2.5,2.5,0,0,1-1.05-.19,1.4,1.4,0,0,1-.67-.55A1.54,1.54,0,0,1,24.47,75.75Z" transform="translate(0.01 -22.19)"/><path class="cls-2" d="M28.94,77.25V72.6h.57v1.67a1.29,1.29,0,0,1,1-.47,1.33,1.33,0,0,1,.65.15.84.84,0,0,1,.4.41,1.83,1.83,0,0,1,.12.75v2.14h-.57V75.11a.9.9,0,0,0-.19-.62.69.69,0,0,0-.52-.2.92.92,0,0,0-.48.14.68.68,0,0,0-.32.35,1.7,1.7,0,0,0-.1.62v1.85Z" transform="translate(0.01 -22.19)"/><path class="cls-2" d="M32.35,75.56a1.72,1.72,0,0,1,.52-1.38,1.57,1.57,0,0,1,1.06-.38,1.48,1.48,0,0,1,1.13.46,1.7,1.7,0,0,1,.44,1.26,2.24,2.24,0,0,1-.19,1,1.39,1.39,0,0,1-.57.58,1.63,1.63,0,0,1-.81.21,1.53,1.53,0,0,1-1.15-.46A1.82,1.82,0,0,1,32.35,75.56Zm.58,0a1.48,1.48,0,0,0,.28,1,.91.91,0,0,0,.72.33.89.89,0,0,0,.7-.33,1.44,1.44,0,0,0,.29-1,1.37,1.37,0,0,0-.29-.94.89.89,0,0,0-.7-.33.91.91,0,0,0-.72.33A1.45,1.45,0,0,0,32.93,75.56Z" transform="translate(0.01 -22.19)"/><path class="cls-2" d="M36.17,77.25V73.88h.51v.51a1.31,1.31,0,0,1,.36-.47.63.63,0,0,1,.37-.12A1.08,1.08,0,0,1,38,74l-.2.53a.76.76,0,0,0-.42-.13.52.52,0,0,0-.33.12.61.61,0,0,0-.22.31,2.29,2.29,0,0,0-.09.66v1.77Z" transform="translate(0.01 -22.19)"/><path class="cls-2" d="M39.58,76.74l.09.5a1.78,1.78,0,0,1-.43.05,1,1,0,0,1-.49-.1.58.58,0,0,1-.24-.25,2.32,2.32,0,0,1-.07-.68V74.32H38v-.44h.42V73L39,72.7v1.18h.57v.44H39v2a1,1,0,0,0,0,.32.26.26,0,0,0,.1.11.34.34,0,0,0,.19,0Z" transform="translate(0.01 -22.19)"/><path class="cls-2" d="M39.92,75.85v-.57h1.76v.57Z" transform="translate(0.01 -22.19)"/><path class="cls-2" d="M44.49,77.25v-.43a1,1,0,0,1-.94.51,1.32,1.32,0,0,1-.74-.23,1.45,1.45,0,0,1-.52-.62,2,2,0,0,1-.19-.91,2.43,2.43,0,0,1,.17-.92,1.37,1.37,0,0,1,.5-.63,1.35,1.35,0,0,1,.76-.22,1.2,1.2,0,0,1,.54.13,1.17,1.17,0,0,1,.39.34V72.6H45v4.65Zm-1.8-1.68a1.45,1.45,0,0,0,.27,1,.82.82,0,0,0,.65.33.81.81,0,0,0,.63-.31,1.39,1.39,0,0,0,.26-.94,1.55,1.55,0,0,0-.26-1,.82.82,0,0,0-.66-.33.8.8,0,0,0-.64.32A1.52,1.52,0,0,0,42.69,75.57Z" transform="translate(0.01 -22.19)"/><path class="cls-2" d="M48.13,77.25v-.5a1.24,1.24,0,0,1-1.07.58,1.34,1.34,0,0,1-.56-.12.89.89,0,0,1-.38-.29,1.16,1.16,0,0,1-.18-.42,3.33,3.33,0,0,1,0-.53V73.88h.57v1.87a2.63,2.63,0,0,0,0,.6.56.56,0,0,0,.22.35.7.7,0,0,0,.44.13.91.91,0,0,0,.48-.13.74.74,0,0,0,.32-.36,1.86,1.86,0,0,0,.09-.66v-1.8h.57v3.37Z" transform="translate(0.01 -22.19)"/><path class="cls-2" d="M49.53,77.25V73.88h.52v.51a1.31,1.31,0,0,1,.36-.47.61.61,0,0,1,.37-.12,1,1,0,0,1,.58.19l-.19.53a.76.76,0,0,0-.42-.13.52.52,0,0,0-.34.12.54.54,0,0,0-.21.31,2,2,0,0,0-.1.66v1.77Z" transform="translate(0.01 -22.19)"/><path class="cls-2" d="M53.9,76.83a2,2,0,0,1-.61.38,1.68,1.68,0,0,1-.63.12,1.22,1.22,0,0,1-.85-.28.89.89,0,0,1-.3-.69,1,1,0,0,1,.11-.45.87.87,0,0,1,.3-.33,1.4,1.4,0,0,1,.41-.19,3,3,0,0,1,.51-.08,5,5,0,0,0,1-.2,1.14,1.14,0,0,0,0-.15.65.65,0,0,0-.16-.49,1,1,0,0,0-.66-.2,1,1,0,0,0-.59.15.83.83,0,0,0-.28.5l-.56-.08a1.34,1.34,0,0,1,.25-.58,1,1,0,0,1,.5-.34,2.52,2.52,0,0,1,1.47,0,1,1,0,0,1,.4.26.87.87,0,0,1,.17.39,3,3,0,0,1,0,.52v.77a6.72,6.72,0,0,0,0,1,1.25,1.25,0,0,0,.14.41H54A1.29,1.29,0,0,1,53.9,76.83Zm0-1.27a4.35,4.35,0,0,1-.93.21,2.14,2.14,0,0,0-.5.12.49.49,0,0,0-.22.18.43.43,0,0,0-.08.27.49.49,0,0,0,.17.38.71.71,0,0,0,.51.16,1.11,1.11,0,0,0,.58-.15.8.8,0,0,0,.38-.39,1.41,1.41,0,0,0,.09-.57Z" transform="translate(0.01 -22.19)"/><path class="cls-2" d="M56.56,76.74l.09.5a1.78,1.78,0,0,1-.43.05,1,1,0,0,1-.49-.1.58.58,0,0,1-.24-.25,2.32,2.32,0,0,1-.07-.68V74.32H55v-.44h.42V73L56,72.7v1.18h.57v.44H56v2a1,1,0,0,0,0,.32.26.26,0,0,0,.1.11.34.34,0,0,0,.19,0Z" transform="translate(0.01 -22.19)"/><path class="cls-2" d="M57.13,73.25V72.6h.57v.65Zm0,4V73.88h.57v3.37Z" transform="translate(0.01 -22.19)"/><path class="cls-2" d="M58.35,75.56a1.72,1.72,0,0,1,.53-1.38,1.57,1.57,0,0,1,1.06-.38,1.48,1.48,0,0,1,1.13.46,1.7,1.7,0,0,1,.44,1.26,2.24,2.24,0,0,1-.19,1,1.39,1.39,0,0,1-.57.58,1.63,1.63,0,0,1-.81.21,1.53,1.53,0,0,1-1.15-.46A1.82,1.82,0,0,1,58.35,75.56Zm.59,0a1.48,1.48,0,0,0,.28,1,.91.91,0,0,0,.72.33.89.89,0,0,0,.7-.33,1.44,1.44,0,0,0,.29-1,1.37,1.37,0,0,0-.29-.94.89.89,0,0,0-.7-.33.91.91,0,0,0-.72.33A1.45,1.45,0,0,0,58.94,75.56Z" transform="translate(0.01 -22.19)"/><path class="cls-2" d="M62.18,77.25V73.88h.52v.48a1.2,1.2,0,0,1,1.07-.56,1.47,1.47,0,0,1,.56.11.82.82,0,0,1,.38.29,1,1,0,0,1,.18.42,3.51,3.51,0,0,1,0,.56v2.07h-.57v-2a1.38,1.38,0,0,0-.07-.52.53.53,0,0,0-.23-.28.77.77,0,0,0-.4-.1.91.91,0,0,0-.63.23,1.13,1.13,0,0,0-.27.88v1.84Z" transform="translate(0.01 -22.19)"/><path class="cls-2" d="M24.6,85.05V81.68h.52v.51a1.31,1.31,0,0,1,.36-.47.61.61,0,0,1,.37-.12,1,1,0,0,1,.58.19l-.19.53a.76.76,0,0,0-.42-.13.52.52,0,0,0-.34.12.54.54,0,0,0-.21.31,2,2,0,0,0-.1.66v1.77Z" transform="translate(0.01 -22.19)"/><path class="cls-2" d="M29,85.05v-.5a1.24,1.24,0,0,1-1.07.58,1.34,1.34,0,0,1-.56-.12.89.89,0,0,1-.38-.29,1.16,1.16,0,0,1-.18-.42,3.33,3.33,0,0,1,0-.53V81.68h.57v1.87a2.63,2.63,0,0,0,0,.6.56.56,0,0,0,.22.35.7.7,0,0,0,.44.13.91.91,0,0,0,.48-.13.79.79,0,0,0,.32-.36,1.86,1.86,0,0,0,.09-.66v-1.8h.57v3.37Z" transform="translate(0.01 -22.19)"/><path class="cls-2" d="M30.39,85.05V81.68h.51v.48A1.22,1.22,0,0,1,32,81.6a1.43,1.43,0,0,1,.56.11.91.91,0,0,1,.39.29,1.13,1.13,0,0,1,.17.42,3.21,3.21,0,0,1,0,.56v2.07h-.58V83a1.67,1.67,0,0,0-.06-.52.6.6,0,0,0-.24-.28.72.72,0,0,0-.4-.1.91.91,0,0,0-.63.23,1.17,1.17,0,0,0-.26.88v1.84Z" transform="translate(0.01 -22.19)"/><path class="cls-2" d="M34,85.05V81.68h.52v.48a1.2,1.2,0,0,1,1.07-.56,1.47,1.47,0,0,1,.56.11.82.82,0,0,1,.38.29,1,1,0,0,1,.18.42,3.51,3.51,0,0,1,0,.56v2.07h-.57V83a1.38,1.38,0,0,0-.07-.52.53.53,0,0,0-.23-.28.77.77,0,0,0-.4-.1.88.88,0,0,0-.63.23,1.13,1.13,0,0,0-.27.88v1.84Z" transform="translate(0.01 -22.19)"/><path class="cls-2" d="M37.62,81.05V80.4h.57v.65Zm0,4V81.68h.57v3.37Z" transform="translate(0.01 -22.19)"/><path class="cls-2" d="M39.06,85.05V81.68h.51v.48a1.23,1.23,0,0,1,1.08-.56,1.47,1.47,0,0,1,.56.11.82.82,0,0,1,.38.29,1.33,1.33,0,0,1,.18.42,3.51,3.51,0,0,1,0,.56v2.07h-.57V83a1.38,1.38,0,0,0-.07-.52.53.53,0,0,0-.23-.28.77.77,0,0,0-.4-.1.88.88,0,0,0-.63.23,1.13,1.13,0,0,0-.27.88v1.84Z" transform="translate(0.01 -22.19)"/><path class="cls-2" d="M42.57,85.33l.56.08a.52.52,0,0,0,.19.38,1,1,0,0,0,.58.15,1,1,0,0,0,.61-.15.84.84,0,0,0,.3-.45,3.83,3.83,0,0,0,0-.73,1.19,1.19,0,0,1-.94.44,1.27,1.27,0,0,1-1.07-.5,1.92,1.92,0,0,1-.38-1.21,2.39,2.39,0,0,1,.17-.89,1.46,1.46,0,0,1,.51-.63,1.43,1.43,0,0,1,.78-.22,1.22,1.22,0,0,1,1,.48v-.4h.53v2.91a2.9,2.9,0,0,1-.16,1.12,1.22,1.22,0,0,1-.51.52,1.85,1.85,0,0,1-.86.19,1.61,1.61,0,0,1-1-.27A.93.93,0,0,1,42.57,85.33Zm.47-2a1.42,1.42,0,0,0,.27,1,.86.86,0,0,0,1.32,0,1.8,1.8,0,0,0,0-1.88.84.84,0,0,0-1.31,0A1.38,1.38,0,0,0,43,83.3Z" transform="translate(0.01 -22.19)"/><path class="cls-2" d="M48.09,85.05V81.68h.51v.51a1.43,1.43,0,0,1,.37-.47.6.6,0,0,1,.36-.12,1.06,1.06,0,0,1,.59.19l-.2.53a.71.71,0,0,0-.41-.13.52.52,0,0,0-.34.12.54.54,0,0,0-.21.31,2,2,0,0,0-.1.66v1.77Z" transform="translate(0.01 -22.19)"/><path class="cls-2" d="M52.46,84.63a2,2,0,0,1-.61.38,1.68,1.68,0,0,1-.63.12,1.21,1.21,0,0,1-.85-.28.89.89,0,0,1-.3-.69,1,1,0,0,1,.11-.45.87.87,0,0,1,.3-.33,1.29,1.29,0,0,1,.41-.19,3.06,3.06,0,0,1,.5-.08,5,5,0,0,0,1-.2,1.14,1.14,0,0,0,0-.15.62.62,0,0,0-.17-.49.94.94,0,0,0-.65-.2,1,1,0,0,0-.59.15.89.89,0,0,0-.29.5l-.55-.08a1.34,1.34,0,0,1,.25-.58,1,1,0,0,1,.5-.34,2.52,2.52,0,0,1,1.47,0,.92.92,0,0,1,.39.26.79.79,0,0,1,.18.39,3,3,0,0,1,0,.52v.77a6.72,6.72,0,0,0,0,1,1.25,1.25,0,0,0,.14.41h-.6A1.61,1.61,0,0,1,52.46,84.63Zm-.05-1.27a4.51,4.51,0,0,1-.93.21,2.14,2.14,0,0,0-.5.12.44.44,0,0,0-.22.18.43.43,0,0,0-.08.27.46.46,0,0,0,.17.38.71.71,0,0,0,.51.16,1.11,1.11,0,0,0,.58-.15.84.84,0,0,0,.38-.39,1.41,1.41,0,0,0,.09-.57Z" transform="translate(0.01 -22.19)"/><path class="cls-2" d="M53.88,85.05V81.68h.51v.48a1.22,1.22,0,0,1,1.07-.56,1.43,1.43,0,0,1,.56.11.91.91,0,0,1,.39.29,1.13,1.13,0,0,1,.17.42,3.21,3.21,0,0,1,0,.56v2.07H56V83a1.67,1.67,0,0,0-.06-.52.6.6,0,0,0-.24-.28.74.74,0,0,0-.4-.1.91.91,0,0,0-.63.23,1.17,1.17,0,0,0-.26.88v1.84Z" transform="translate(0.01 -22.19)"/><path class="cls-2" d="M57.39,85.33l.55.08a.56.56,0,0,0,.2.38,1,1,0,0,0,.58.15,1.08,1.08,0,0,0,.61-.15.82.82,0,0,0,.29-.45,3.83,3.83,0,0,0,0-.73,1.18,1.18,0,0,1-.93.44,1.3,1.3,0,0,1-1.08-.5,2,2,0,0,1-.38-1.21,2.21,2.21,0,0,1,.18-.89,1.37,1.37,0,0,1,.5-.63,1.43,1.43,0,0,1,.78-.22,1.22,1.22,0,0,1,1,.48v-.4h.52v2.91a2.72,2.72,0,0,1-.16,1.12,1.14,1.14,0,0,1-.5.52,1.88,1.88,0,0,1-.86.19,1.59,1.59,0,0,1-1-.27A.93.93,0,0,1,57.39,85.33Zm.47-2a1.48,1.48,0,0,0,.26,1,.86.86,0,0,0,.66.31.81.81,0,0,0,.66-.31,1.77,1.77,0,0,0,0-1.88.88.88,0,0,0-.67-.32.82.82,0,0,0-.64.31A1.38,1.38,0,0,0,57.86,83.3Z" transform="translate(0.01 -22.19)"/><path class="cls-2" d="M63.41,84,64,84a1.43,1.43,0,0,1-.51.8,1.6,1.6,0,0,1-1,.29,1.56,1.56,0,0,1-1.17-.46,1.77,1.77,0,0,1-.43-1.28,1.86,1.86,0,0,1,.43-1.32,1.51,1.51,0,0,1,1.14-.47,1.45,1.45,0,0,1,1.1.46,1.82,1.82,0,0,1,.43,1.3v.15H61.51a1.28,1.28,0,0,0,.31.85.92.92,0,0,0,.7.3.89.89,0,0,0,.54-.17A1.05,1.05,0,0,0,63.41,84ZM61.54,83h1.88a1.18,1.18,0,0,0-.22-.64.86.86,0,0,0-.7-.33.94.94,0,0,0-.67.26A1.12,1.12,0,0,0,61.54,83Z" transform="translate(0.01 -22.19)"/><path class="cls-2" d="M4.64,98.27H.54V99.8H0V96.11H.54v1.54h4.1Z" transform="translate(0.01 -22.19)"/><path class="cls-2" d="M3,95.77a1.75,1.75,0,0,1-1.38-.52,1.58,1.58,0,0,1-.38-1.06,1.48,1.48,0,0,1,.46-1.14,1.74,1.74,0,0,1,1.26-.44,2.38,2.38,0,0,1,1,.19,1.45,1.45,0,0,1,.58.57,1.64,1.64,0,0,1,.21.82,1.52,1.52,0,0,1-.46,1.14A1.82,1.82,0,0,1,3,95.77Zm0-.59a1.41,1.41,0,0,0,1-.28.91.91,0,0,0,.33-.71.89.89,0,0,0-.33-.71,1.43,1.43,0,0,0-1-.28,1.38,1.38,0,0,0-.95.28A.95.95,0,0,0,2,94.9,1.39,1.39,0,0,0,3,95.18Z" transform="translate(0.01 -22.19)"/><path class="cls-2" d="M4.64,92H1.27v-.52h.51a1.31,1.31,0,0,1-.47-.36.61.61,0,0,1-.12-.37,1,1,0,0,1,.19-.58l.53.19a.76.76,0,0,0-.13.42.52.52,0,0,0,.12.34.54.54,0,0,0,.31.21,2.28,2.28,0,0,0,.66.1H4.64Z" transform="translate(0.01 -22.19)"/><path class="cls-2" d="M5.93,87.63H4.28a1,1,0,0,1,.31.37,1.14,1.14,0,0,1,.13.51,1.34,1.34,0,0,1-.48,1A1.9,1.9,0,0,1,2.92,90,2.21,2.21,0,0,1,2,89.8a1.33,1.33,0,0,1-.82-1.25,1.14,1.14,0,0,1,.53-1H1.27v-.51H5.93Zm-3,1.76a1.51,1.51,0,0,0,1-.27.81.81,0,0,0,0-1.29A1.46,1.46,0,0,0,3,87.57a1.57,1.57,0,0,0-1,.28.83.83,0,0,0-.34.65.79.79,0,0,0,.32.63A1.55,1.55,0,0,0,2.94,89.39Z" transform="translate(0.01 -22.19)"/><path class="cls-2" d="M4.64,84h-.5A1.22,1.22,0,0,1,4.72,85a1.31,1.31,0,0,1-.12.56.82.82,0,0,1-.29.38,1,1,0,0,1-.42.18,3.33,3.33,0,0,1-.53,0H1.27V85.6H3.14a3.77,3.77,0,0,0,.6,0,.68.68,0,0,0,.36-.23.75.75,0,0,0,.12-.43,1,1,0,0,0-.13-.49.72.72,0,0,0-.36-.31,1.63,1.63,0,0,0-.66-.1H1.27v-.57H4.64Z" transform="translate(0.01 -22.19)"/><path class="cls-2" d="M3.55,80.24l.08-.59a1.39,1.39,0,0,1,.8.52,1.72,1.72,0,0,1-.17,2.13A1.77,1.77,0,0,1,3,82.74a1.9,1.9,0,0,1-1.32-.44,1.49,1.49,0,0,1-.47-1.14,1.45,1.45,0,0,1,.46-1.1A1.82,1.82,0,0,1,3,79.63H3.1v2.52A1.34,1.34,0,0,0,4,81.83a.92.92,0,0,0,.3-.7.89.89,0,0,0-.17-.54A1.07,1.07,0,0,0,3.55,80.24Zm-.92,1.87V80.23a1.18,1.18,0,0,0-.64.22.88.88,0,0,0-.33.71.9.9,0,0,0,.27.66A1,1,0,0,0,2.63,82.11Z" transform="translate(0.01 -22.19)"/><path class="cls-2" d="M5.93,77.11H0V75.85H.46v.69h5v-.69h.47Z" transform="translate(0.01 -22.19)"/><path class="cls-2" d="M4.64,75.25H0v-.63l3.65-2.44H0v-.59H4.64v.63L1,74.66H4.64Z" transform="translate(0.01 -22.19)"/><path class="cls-2" d="M2.36,70.71a.78.78,0,0,1-.57-.24.81.81,0,0,1,1.14-1.14.81.81,0,0,1-.57,1.38Z" transform="translate(0.01 -22.19)"/><path class="cls-2" d="M4.64,68.35H1.27v-.51h.47a1.34,1.34,0,0,1-.4-.42,1.21,1.21,0,0,1-.15-.6,1.08,1.08,0,0,1,.16-.62.86.86,0,0,1,.43-.34,1.2,1.2,0,0,1-.59-1,1.05,1.05,0,0,1,.28-.77,1.2,1.2,0,0,1,.86-.27H4.64v.57H2.52a1.49,1.49,0,0,0-.5.06.42.42,0,0,0-.24.2.62.62,0,0,0-.09.34.82.82,0,0,0,.23.59,1,1,0,0,0,.76.24h2v.57H2.45a.92.92,0,0,0-.57.14.51.51,0,0,0-.19.45.89.89,0,0,0,.12.45.77.77,0,0,0,.38.3,2.08,2.08,0,0,0,.7.09H4.64Z" transform="translate(0.01 -22.19)"/><path class="cls-2" d="M5.93,62v1.26H5.46v-.69h-5v.69H0V62Z" transform="translate(0.01 -22.19)"/></g></svg>