<svg xmlns="http://www.w3.org/2000/svg" viewBox="0 0 116.6 130.7"><defs><style>.cls-1,.cls-2,.cls-3,.繝医Ν繧ｯ繧ｰ繝ｩ繝廟邱喟0\.7緕,.邱喟0\.5pt-4{fill:none;}.cls-1,.cls-3,.繝医Ν繧ｯ繧ｰ繝ｩ繝廟邱喟0\.7緕,.邱喟0\.5pt-4{stroke:#231815;}.cls-1{stroke-linejoin:round;stroke-width:0.14px;}.繝医Ν繧ｯ繧ｰ繝ｩ繝廟邱喟0\.7緕,.邱喟0\.5pt-4{stroke-miterlimit:10;}.繝医Ν繧ｯ繧ｰ繝ｩ繝廟邱喟0\.7緕{stroke-width:1.98px;}.cls-2{stroke:#9fa0a0;stroke-width:3px;}.cls-4{fill:#231815;}.繝後Μ_逋ｽ-2{fill:#fff;}.邱喟0\.5pt-4{stroke-width:0.5px;}</style></defs><g id="Illust"><line class="cls-1" x1="45.52" y1="1.46" x2="45.52" y2="114.84"/><line class="cls-1" x1="72.59" y1="1.46" x2="72.59" y2="114.84"/><line class="cls-1" x1="99.67" y1="1.46" x2="99.67" y2="114.84"/><path class="cls-1" d="M18.35,121.29h90.7M18.35,105.1h90.7M18.35,88.91h90.7M18.35,72.72h90.7M18.35,56.53h90.7M18.35,40.34h90.7" transform="translate(0.01 -22.61)"/><polyline class="繝医Ν繧ｯ繧ｰ繝ｩ繝廟邱喟0.7緕" points="18.36 89.09 25.13 89.09 31.89 89.09 45.43 89.09 58.97 89.09 72.5 95.55 86.04 99.4 99.57 102.02 109.06 103.35"/><polyline class="cls-2" points="18.36 89.09 25.13 89.09 31.89 89.09 45.43 89.09 58.97 89.09 72.5 95.55 86.04 99.4 99.57 102.02 109.06 103.35"/><polyline class="cls-3" points="18.36 89.09 25.13 89.09 31.89 89.09 45.43 89.09 58.97 89.09 72.5 95.55 86.04 99.4 99.57 102.02 109.06 103.35"/><polyline class="繝医Ν繧ｯ繧ｰ繝ｩ繝廟邱喟0.7緕" points="18.36 37.58 92.82 37.58 109.77 48.25"/><polyline class="cls-2" points="18.36 37.58 92.82 37.58 109.77 48.25"/><path class="cls-4" d="M10.23,137.84a3.2,3.2,0,0,1,.13-1,1.31,1.31,0,0,1,.39-.6,1.11,1.11,0,0,1,1.15-.09,1,1,0,0,1,.36.33,1.69,1.69,0,0,1,.22.53,3.3,3.3,0,0,1,.08.85,3.2,3.2,0,0,1-.13,1,1.22,1.22,0,0,1-.38.6,1,1,0,0,1-.65.21,1,1,0,0,1-.82-.37A2.43,2.43,0,0,1,10.23,137.84Zm.45,0a2.18,2.18,0,0,0,.21,1.17.58.58,0,0,0,1,0,3.52,3.52,0,0,0,0-2.34.6.6,0,0,0-.52-.29.56.56,0,0,0-.48.25A2.28,2.28,0,0,0,10.68,137.84Z" transform="translate(0.01 -22.61)"/><path class="cls-4" d="M13.29,139.61v-.5h.5v.5Z" transform="translate(0.01 -22.61)"/><path class="cls-4" d="M14.43,137.84a3.17,3.17,0,0,1,.14-1,1.22,1.22,0,0,1,.38-.6,1,1,0,0,1,.65-.21,1.07,1.07,0,0,1,.51.12,1.13,1.13,0,0,1,.36.33,2.35,2.35,0,0,1,.22.53,3.82,3.82,0,0,1,.08.85,3.2,3.2,0,0,1-.13,1,1.31,1.31,0,0,1-.39.6,1,1,0,0,1-.65.21,1,1,0,0,1-.81-.37A2.35,2.35,0,0,1,14.43,137.84Zm.46,0a2.31,2.31,0,0,0,.2,1.17.58.58,0,0,0,1,0,3.36,3.36,0,0,0,0-2.34.6.6,0,0,0-.51-.29.57.57,0,0,0-.49.25A2.3,2.3,0,0,0,14.89,137.84Z" transform="translate(0.01 -22.61)"/><path class="cls-4" d="M10.23,121.64a3.2,3.2,0,0,1,.13-1,1.28,1.28,0,0,1,.39-.59,1.14,1.14,0,0,1,1.15-.1.9.9,0,0,1,.36.34,1.51,1.51,0,0,1,.22.53,4.23,4.23,0,0,1-.05,1.86,1.22,1.22,0,0,1-.38.6,1.1,1.1,0,0,1-1.47-.16A2.41,2.41,0,0,1,10.23,121.64Zm.45,0a2.25,2.25,0,0,0,.21,1.18.59.59,0,0,0,1,0,2.38,2.38,0,0,0,.2-1.18,2.34,2.34,0,0,0-.2-1.17.63.63,0,0,0-.52-.29.56.56,0,0,0-.48.26A2.24,2.24,0,0,0,10.68,121.64Z" transform="translate(0.01 -22.61)"/><path class="cls-4" d="M13.29,123.41v-.5h.5v.5Z" transform="translate(0.01 -22.61)"/><path class="cls-4" d="M16.74,123v.42H14.38a.81.81,0,0,1,0-.31,1.58,1.58,0,0,1,.29-.47,3.81,3.81,0,0,1,.57-.54,4.87,4.87,0,0,0,.79-.76.9.9,0,0,0,.21-.53.58.58,0,0,0-.19-.44.67.67,0,0,0-.49-.18.65.65,0,0,0-.5.19.71.71,0,0,0-.2.53l-.45-.05a1.12,1.12,0,0,1,.35-.77,1.16,1.16,0,0,1,.81-.26,1.13,1.13,0,0,1,.82.28.94.94,0,0,1,.3.71,1.06,1.06,0,0,1-.09.42,1.51,1.51,0,0,1-.29.44,8.11,8.11,0,0,1-.68.63l-.51.45A1.88,1.88,0,0,0,15,123Z" transform="translate(0.01 -22.61)"/><path class="cls-4" d="M10.23,105.44a3.2,3.2,0,0,1,.13-1,1.28,1.28,0,0,1,.39-.59,1.14,1.14,0,0,1,1.15-.1.9.9,0,0,1,.36.34,1.51,1.51,0,0,1,.22.53,4.23,4.23,0,0,1-.05,1.86,1.22,1.22,0,0,1-.38.6,1.1,1.1,0,0,1-1.47-.16A2.41,2.41,0,0,1,10.23,105.44Zm.45,0a2.25,2.25,0,0,0,.21,1.18.59.59,0,0,0,1,0,2.38,2.38,0,0,0,.2-1.18,2.34,2.34,0,0,0-.2-1.17.63.63,0,0,0-.52-.29.56.56,0,0,0-.48.26A2.24,2.24,0,0,0,10.68,105.44Z" transform="translate(0.01 -22.61)"/><path class="cls-4" d="M13.29,107.21v-.5h.5v.5Z" transform="translate(0.01 -22.61)"/><path class="cls-4" d="M15.84,107.21v-.86H14.29V106l1.63-2.32h.36V106h.49v.4h-.49v.86Zm0-1.26v-1.61L14.72,106Z" transform="translate(0.01 -22.61)"/><path class="cls-4" d="M10.23,89.24a3.2,3.2,0,0,1,.13-1,1.33,1.33,0,0,1,.39-.59,1.14,1.14,0,0,1,1.15-.1.9.9,0,0,1,.36.34,1.51,1.51,0,0,1,.22.53,4.23,4.23,0,0,1-.05,1.86,1.22,1.22,0,0,1-.38.6,1.1,1.1,0,0,1-1.47-.16A2.41,2.41,0,0,1,10.23,89.24Zm.45,0a2.25,2.25,0,0,0,.21,1.18.59.59,0,0,0,1,0,2.38,2.38,0,0,0,.2-1.18,2.34,2.34,0,0,0-.2-1.17.63.63,0,0,0-.52-.29.56.56,0,0,0-.48.26A2.24,2.24,0,0,0,10.68,89.24Z" transform="translate(0.01 -22.61)"/><path class="cls-4" d="M13.29,91v-.5h.5V91Z" transform="translate(0.01 -22.61)"/><path class="cls-4" d="M16.72,88.31l-.44,0a.8.8,0,0,0-.17-.37.56.56,0,0,0-.44-.19.67.67,0,0,0-.37.11,1.11,1.11,0,0,0-.32.45,2.41,2.41,0,0,0-.13.82,1,1,0,0,1,.39-.35,1,1,0,0,1,.48-.12,1,1,0,0,1,.75.32,1.16,1.16,0,0,1,.31.84,1.32,1.32,0,0,1-.15.62,1,1,0,0,1-.4.45,1.1,1.1,0,0,1-.57.15,1.12,1.12,0,0,1-.9-.4,2.06,2.06,0,0,1-.34-1.33,2.34,2.34,0,0,1,.38-1.51,1.08,1.08,0,0,1,.9-.41,1,1,0,0,1,1,.89Zm-1.8,1.54a.91.91,0,0,0,.1.43.7.7,0,0,0,.63.43.64.64,0,0,0,.48-.22.92.92,0,0,0,.2-.62.83.83,0,0,0-.2-.58.66.66,0,0,0-.5-.21.67.67,0,0,0-.5.21A.76.76,0,0,0,14.92,89.85Z" transform="translate(0.01 -22.61)"/><path class="cls-4" d="M10.23,73a3.2,3.2,0,0,1,.13-1,1.28,1.28,0,0,1,.39-.59,1.14,1.14,0,0,1,1.15-.1.9.9,0,0,1,.36.34,1.51,1.51,0,0,1,.22.53,4.23,4.23,0,0,1-.05,1.86,1.22,1.22,0,0,1-.38.6,1.1,1.1,0,0,1-1.47-.16A2.41,2.41,0,0,1,10.23,73Zm.45,0a2.25,2.25,0,0,0,.21,1.18.59.59,0,0,0,1,0,2.38,2.38,0,0,0,.2-1.18,2.34,2.34,0,0,0-.2-1.17.63.63,0,0,0-.52-.29.56.56,0,0,0-.48.26A2.24,2.24,0,0,0,10.68,73Z" transform="translate(0.01 -22.61)"/><path class="cls-4" d="M13.29,74.81v-.5h.5v.5Z" transform="translate(0.01 -22.61)"/><path class="cls-4" d="M15.11,72.87a.78.78,0,0,1-.4-.29.72.72,0,0,1-.14-.44.91.91,0,0,1,.28-.66,1,1,0,0,1,.75-.26,1.07,1.07,0,0,1,.76.27.87.87,0,0,1,.28.66.69.69,0,0,1-.13.43.82.82,0,0,1-.4.29,1,1,0,0,1,.51.35,1,1,0,0,1,.17.57,1,1,0,0,1-.33.77,1.16,1.16,0,0,1-.85.31,1.2,1.2,0,0,1-.86-.31,1.07,1.07,0,0,1-.32-.79.93.93,0,0,1,.18-.58A.84.84,0,0,1,15.11,72.87Zm-.23.91a.8.8,0,0,0,.09.36.59.59,0,0,0,.27.27.69.69,0,0,0,.37.1.72.72,0,0,0,.52-.2.75.75,0,0,0,0-1,.72.72,0,0,0-.53-.21.69.69,0,0,0-.51.2A.7.7,0,0,0,14.88,73.78ZM15,72.12a.57.57,0,0,0,.17.42.63.63,0,0,0,.84,0,.53.53,0,0,0,.16-.39.57.57,0,0,0-.17-.41.56.56,0,0,0-.41-.16.57.57,0,0,0-.42.16A.52.52,0,0,0,15,72.12Z" transform="translate(0.01 -22.61)"/><path class="cls-4" d="M11.88,58.61h-.43v-2.8a2.54,2.54,0,0,1-.42.3,3.27,3.27,0,0,1-.46.23v-.43a2.37,2.37,0,0,0,.64-.42A1.38,1.38,0,0,0,11.6,55h.28Z" transform="translate(0.01 -22.61)"/><path class="cls-4" d="M13.29,58.61v-.5h.5v.5Z" transform="translate(0.01 -22.61)"/><path class="cls-4" d="M14.43,56.84a3.17,3.17,0,0,1,.14-1,1.22,1.22,0,0,1,.38-.6A1,1,0,0,1,15.6,55a1.07,1.07,0,0,1,.51.12,1.13,1.13,0,0,1,.36.33,2.25,2.25,0,0,1,.22.54,3.66,3.66,0,0,1,.08.84,3.2,3.2,0,0,1-.13,1,1.31,1.31,0,0,1-.39.6,1,1,0,0,1-.65.21,1,1,0,0,1-.81-.37A2.35,2.35,0,0,1,14.43,56.84Zm.46,0a2.31,2.31,0,0,0,.2,1.17.58.58,0,0,0,1,0,3.36,3.36,0,0,0,0-2.34.6.6,0,0,0-.51-.29.57.57,0,0,0-.49.25A2.3,2.3,0,0,0,14.89,56.84Z" transform="translate(0.01 -22.61)"/><path class="cls-4" d="M11.88,42.41h-.43v-2.8a2.54,2.54,0,0,1-.42.3,3.27,3.27,0,0,1-.46.23v-.43a2.37,2.37,0,0,0,.64-.42,1.38,1.38,0,0,0,.39-.48h.28Z" transform="translate(0.01 -22.61)"/><path class="cls-4" d="M13.29,42.41v-.5h.5v.5Z" transform="translate(0.01 -22.61)"/><path class="cls-4" d="M16.74,42v.43H14.38a.81.81,0,0,1,0-.31,1.58,1.58,0,0,1,.29-.47,4.37,4.37,0,0,1,.57-.55,4.92,4.92,0,0,0,.79-.75.92.92,0,0,0,.21-.53.56.56,0,0,0-.19-.44.67.67,0,0,0-.49-.18.65.65,0,0,0-.5.19.69.69,0,0,0-.2.52l-.45,0a1.1,1.1,0,0,1,.35-.77,1.17,1.17,0,0,1,.81-.27,1.14,1.14,0,0,1,.82.29.93.93,0,0,1,.3.71,1.06,1.06,0,0,1-.09.42,1.66,1.66,0,0,1-.29.44,8.11,8.11,0,0,1-.68.63l-.51.45A1.3,1.3,0,0,0,15,42Z" transform="translate(0.01 -22.61)"/><path class="cls-4" d="M11.88,26.21h-.43v-2.8a2.54,2.54,0,0,1-.42.3,3.27,3.27,0,0,1-.46.23v-.43a2.37,2.37,0,0,0,.64-.42,1.38,1.38,0,0,0,.39-.48h.28Z" transform="translate(0.01 -22.61)"/><path class="cls-4" d="M13.29,26.21v-.5h.5v.5Z" transform="translate(0.01 -22.61)"/><path class="cls-4" d="M15.84,26.21v-.86H14.29V25l1.63-2.32h.36V25h.49v.4h-.49v.86Zm0-1.26V23.33L14.72,25Z" transform="translate(0.01 -22.61)"/><path class="cls-4" d="M17.16,141.38a3.2,3.2,0,0,1,.13-1,1.28,1.28,0,0,1,.39-.59,1.14,1.14,0,0,1,1.15-.1.9.9,0,0,1,.36.34,1.51,1.51,0,0,1,.22.53,4.23,4.23,0,0,1-.05,1.86,1.22,1.22,0,0,1-.38.6,1.1,1.1,0,0,1-1.47-.16A2.41,2.41,0,0,1,17.16,141.38Zm.45,0a2.25,2.25,0,0,0,.21,1.18.59.59,0,0,0,1,0,2.38,2.38,0,0,0,.2-1.18,2.34,2.34,0,0,0-.2-1.17.63.63,0,0,0-.52-.29.56.56,0,0,0-.48.26A2.24,2.24,0,0,0,17.61,141.38Z" transform="translate(0.01 -22.61)"/><path class="cls-4" d="M108.19,140.42l-.44,0a.75.75,0,0,0-.17-.38.55.55,0,0,0-.44-.19.56.56,0,0,0-.36.12,1,1,0,0,0-.33.44,2.43,2.43,0,0,0-.13.83,1.11,1.11,0,0,1,.39-.36,1,1,0,0,1,.48-.12,1,1,0,0,1,.75.33,1.12,1.12,0,0,1,.31.83,1.46,1.46,0,0,1-.14.63,1.07,1.07,0,0,1-.4.44,1.14,1.14,0,0,1-.58.15,1.12,1.12,0,0,1-.9-.4,2,2,0,0,1-.34-1.33,2.36,2.36,0,0,1,.38-1.51,1.1,1.1,0,0,1,.9-.41,1,1,0,0,1,1,.89Zm-1.8,1.54a1,1,0,0,0,.1.44.63.63,0,0,0,.27.31.64.64,0,0,0,.84-.11.9.9,0,0,0,.2-.61.81.81,0,0,0-.2-.59.64.64,0,0,0-.49-.21.69.69,0,0,0-.51.21A.78.78,0,0,0,106.39,142Z" transform="translate(0.01 -22.61)"/><path class="cls-4" d="M108.72,140v-.42H111v.34a5.42,5.42,0,0,0-.67,1,5.54,5.54,0,0,0-.52,1.24,4.27,4.27,0,0,0-.17,1h-.45a4.4,4.4,0,0,1,.16-1,5.42,5.42,0,0,1,.46-1.15,5.48,5.48,0,0,1,.63-.94Z" transform="translate(0.01 -22.61)"/><path class="cls-4" d="M111.47,141.36a3.16,3.16,0,0,1,.13-1,1.31,1.31,0,0,1,.39-.6,1,1,0,0,1,.64-.21,1,1,0,0,1,.51.12.87.87,0,0,1,.36.33,1.84,1.84,0,0,1,.22.53,3.25,3.25,0,0,1,.08.85,3.2,3.2,0,0,1-.13,1,1.24,1.24,0,0,1-.38.59,1,1,0,0,1-.66.21,1,1,0,0,1-.81-.37A2.37,2.37,0,0,1,111.47,141.36Zm.45,0a2.18,2.18,0,0,0,.21,1.17.58.58,0,0,0,1,0,2.2,2.2,0,0,0,.21-1.17,2.25,2.25,0,0,0-.21-1.18.6.6,0,0,0-.51-.29.56.56,0,0,0-.48.26A2.28,2.28,0,0,0,111.92,141.36Z" transform="translate(0.01 -22.61)"/><path class="cls-4" d="M114.25,141.36a3.16,3.16,0,0,1,.13-1,1.31,1.31,0,0,1,.39-.6,1.11,1.11,0,0,1,1.15-.09.82.82,0,0,1,.36.33,1.84,1.84,0,0,1,.22.53,3.25,3.25,0,0,1,.08.85,3.2,3.2,0,0,1-.13,1,1.24,1.24,0,0,1-.38.59,1,1,0,0,1-.65.21,1,1,0,0,1-.82-.37A2.37,2.37,0,0,1,114.25,141.36Zm.45,0a2.18,2.18,0,0,0,.21,1.17.58.58,0,0,0,.51.29.6.6,0,0,0,.51-.29,2.34,2.34,0,0,0,.2-1.17,2.38,2.38,0,0,0-.2-1.18.63.63,0,0,0-.52-.29.56.56,0,0,0-.48.26A2.28,2.28,0,0,0,114.7,141.36Z" transform="translate(0.01 -22.61)"/><polyline class="cls-3" points="18.36 37.58 79.28 37.58 109.06 62.26"/><rect class="繝後Μ_逋ｽ-2" x="109.07" y="1.48" width="2.13" height="113.39"/><path class="cls-4" d="M42.3,142.7v.42H39.93a.8.8,0,0,1,.06-.3,1.54,1.54,0,0,1,.29-.48,5.2,5.2,0,0,1,.57-.54,4.87,4.87,0,0,0,.79-.76.86.86,0,0,0,.2-.53.6.6,0,0,0-.18-.44.69.69,0,0,0-.49-.18.73.73,0,0,0-.51.19.76.76,0,0,0-.19.53l-.45,0a1.1,1.1,0,0,1,.35-.77,1.33,1.33,0,0,1,1.63,0,.92.92,0,0,1,.3.7,1.07,1.07,0,0,1-.09.43,1.91,1.91,0,0,1-.29.43,6.63,6.63,0,0,1-.68.63c-.27.22-.43.37-.51.45a1.25,1.25,0,0,0-.18.24Z" transform="translate(0.01 -22.61)"/><path class="cls-4" d="M42.8,141.36a3.2,3.2,0,0,1,.13-1,1.31,1.31,0,0,1,.39-.6,1.11,1.11,0,0,1,1.15-.09.88.88,0,0,1,.36.33,1.6,1.6,0,0,1,.22.53,3.19,3.19,0,0,1,.09.85,3.52,3.52,0,0,1-.13,1,1.33,1.33,0,0,1-.39.59,1,1,0,0,1-.65.22,1,1,0,0,1-.81-.38A2.3,2.3,0,0,1,42.8,141.36Zm.45,0a2.18,2.18,0,0,0,.21,1.17.59.59,0,0,0,1,0,2.31,2.31,0,0,0,.2-1.17,2.38,2.38,0,0,0-.2-1.18.63.63,0,0,0-.52-.29.56.56,0,0,0-.48.26A2.28,2.28,0,0,0,43.25,141.36Z" transform="translate(0.01 -22.61)"/><path class="cls-4" d="M45.55,141.36a3.52,3.52,0,0,1,.13-1,1.31,1.31,0,0,1,.39-.6,1.11,1.11,0,0,1,1.15-.09.88.88,0,0,1,.36.33,1.84,1.84,0,0,1,.23.53,3.76,3.76,0,0,1,.08.85,3.52,3.52,0,0,1-.13,1,1.33,1.33,0,0,1-.39.59,1,1,0,0,1-.65.22,1,1,0,0,1-.81-.38A2.3,2.3,0,0,1,45.55,141.36Zm.45,0a2.18,2.18,0,0,0,.21,1.17.59.59,0,0,0,1,0,2.2,2.2,0,0,0,.2-1.17,2.27,2.27,0,0,0-.2-1.18.63.63,0,0,0-.52-.29.56.56,0,0,0-.48.26A2.28,2.28,0,0,0,46,141.36Z" transform="translate(0.01 -22.61)"/><path class="cls-4" d="M48.36,141.36a3.52,3.52,0,0,1,.13-1,1.31,1.31,0,0,1,.39-.6,1,1,0,0,1,.65-.21,1.07,1.07,0,0,1,.51.12.92.92,0,0,1,.35.33,1.84,1.84,0,0,1,.23.53,3.76,3.76,0,0,1,.08.85,3.52,3.52,0,0,1-.13,1,1.33,1.33,0,0,1-.39.59,1,1,0,0,1-.65.22,1,1,0,0,1-.81-.38A2.3,2.3,0,0,1,48.36,141.36Zm.45,0a2.18,2.18,0,0,0,.21,1.17.59.59,0,0,0,1,0,2.18,2.18,0,0,0,.21-1.17,2.25,2.25,0,0,0-.21-1.18.62.62,0,0,0-.51-.29.57.57,0,0,0-.49.26A2.28,2.28,0,0,0,48.81,141.36Z" transform="translate(0.01 -22.61)"/><path class="cls-4" d="M68.34,143.12v-.85H66.79v-.41l1.63-2.31h.36v2.31h.49v.41h-.49v.85Zm0-1.26v-1.61l-1.12,1.61Z" transform="translate(0.01 -22.61)"/><path class="cls-4" d="M69.75,141.36a3.2,3.2,0,0,1,.13-1,1.22,1.22,0,0,1,.38-.6,1,1,0,0,1,.65-.21,1.07,1.07,0,0,1,.51.12,1,1,0,0,1,.36.33,1.84,1.84,0,0,1,.22.53,3.76,3.76,0,0,1,.08.85,3.2,3.2,0,0,1-.13,1,1.25,1.25,0,0,1-.39.59,1.06,1.06,0,0,1-1.46-.16A2.31,2.31,0,0,1,69.75,141.36Zm.45,0a2.31,2.31,0,0,0,.2,1.17.59.59,0,0,0,1,0,2.18,2.18,0,0,0,.21-1.17,2.25,2.25,0,0,0-.21-1.18.62.62,0,0,0-.51-.29.59.59,0,0,0-.49.26A2.3,2.3,0,0,0,70.2,141.36Z" transform="translate(0.01 -22.61)"/><path class="cls-4" d="M72.5,141.36a3.2,3.2,0,0,1,.13-1,1.17,1.17,0,0,1,.39-.6,1,1,0,0,1,.64-.21,1,1,0,0,1,.51.12,1,1,0,0,1,.36.33,1.84,1.84,0,0,1,.22.53,3.76,3.76,0,0,1,.08.85,3.2,3.2,0,0,1-.13,1,1.25,1.25,0,0,1-.39.59,1.06,1.06,0,0,1-1.46-.16A2.31,2.31,0,0,1,72.5,141.36Zm.45,0a2.31,2.31,0,0,0,.2,1.17.6.6,0,0,0,.51.29.58.58,0,0,0,.51-.29,2.18,2.18,0,0,0,.21-1.17,2.25,2.25,0,0,0-.21-1.18.61.61,0,0,0-.51-.29.56.56,0,0,0-.48.26A2.19,2.19,0,0,0,73,141.36Z" transform="translate(0.01 -22.61)"/><path class="cls-4" d="M75.31,141.36a3.2,3.2,0,0,1,.13-1,1.23,1.23,0,0,1,.39-.6,1,1,0,0,1,.64-.21,1,1,0,0,1,.51.12,1,1,0,0,1,.36.33,1.84,1.84,0,0,1,.22.53,3.76,3.76,0,0,1,.08.85,3.2,3.2,0,0,1-.13,1,1.24,1.24,0,0,1-.38.59,1,1,0,0,1-.66.22,1,1,0,0,1-.81-.38A2.37,2.37,0,0,1,75.31,141.36Zm.45,0a2.18,2.18,0,0,0,.21,1.17.58.58,0,0,0,1,0,2.18,2.18,0,0,0,.21-1.17,2.25,2.25,0,0,0-.21-1.18.61.61,0,0,0-.51-.29.56.56,0,0,0-.48.26A2.19,2.19,0,0,0,75.76,141.36Z" transform="translate(0.01 -22.61)"/><path class="cls-4" d="M96.12,140.42l-.43,0a.84.84,0,0,0-.17-.38.56.56,0,0,0-.44-.19.61.61,0,0,0-.37.12,1,1,0,0,0-.32.44,2.21,2.21,0,0,0-.13.83,1.11,1.11,0,0,1,.39-.36,1,1,0,0,1,1.23.21,1.17,1.17,0,0,1,.31.83,1.33,1.33,0,0,1-.15.63,1,1,0,0,1-.4.44,1.1,1.1,0,0,1-.57.15,1.12,1.12,0,0,1-.9-.4,2,2,0,0,1-.35-1.33,2.36,2.36,0,0,1,.39-1.51,1.1,1.1,0,0,1,.9-.41,1,1,0,0,1,.69.24A1,1,0,0,1,96.12,140.42ZM94.33,142a1,1,0,0,0,.1.44.63.63,0,0,0,.27.31.59.59,0,0,0,.36.11.64.64,0,0,0,.48-.22.9.9,0,0,0,.2-.61.86.86,0,0,0-.2-.59.66.66,0,0,0-.5-.21.67.67,0,0,0-.5.21A.78.78,0,0,0,94.33,142Z" transform="translate(0.01 -22.61)"/><path class="cls-4" d="M96.65,141.36a3.47,3.47,0,0,1,.13-1,1.31,1.31,0,0,1,.39-.6,1,1,0,0,1,.65-.21,1.07,1.07,0,0,1,.51.12.94.94,0,0,1,.36.33,2.17,2.17,0,0,1,.22.53,3.76,3.76,0,0,1,.08.85,3.2,3.2,0,0,1-.13,1,1.33,1.33,0,0,1-.39.59,1,1,0,0,1-.65.21,1,1,0,0,1-.81-.37A2.3,2.3,0,0,1,96.65,141.36Zm.46,0a2.2,2.2,0,0,0,.2,1.17.59.59,0,0,0,1,0,2.2,2.2,0,0,0,.21-1.17,2.25,2.25,0,0,0-.21-1.18.62.62,0,0,0-.51-.29.57.57,0,0,0-.49.26A2.3,2.3,0,0,0,97.11,141.36Z" transform="translate(0.01 -22.61)"/><path class="cls-4" d="M99.4,141.36a3.13,3.13,0,0,1,.14-1,1.22,1.22,0,0,1,.38-.6,1,1,0,0,1,.65-.21,1.07,1.07,0,0,1,.51.12.94.94,0,0,1,.36.33,2.17,2.17,0,0,1,.22.53,3.76,3.76,0,0,1,.08.85,3.2,3.2,0,0,1-.13,1,1.33,1.33,0,0,1-.39.59,1,1,0,0,1-.65.21,1,1,0,0,1-.81-.37A2.3,2.3,0,0,1,99.4,141.36Zm.46,0a2.31,2.31,0,0,0,.2,1.17.59.59,0,0,0,1,0,2.2,2.2,0,0,0,.21-1.17,2.25,2.25,0,0,0-.21-1.18.62.62,0,0,0-.51-.29.58.58,0,0,0-.49.26A2.3,2.3,0,0,0,99.86,141.36Z" transform="translate(0.01 -22.61)"/><path class="cls-4" d="M102.22,141.36a3.16,3.16,0,0,1,.13-1,1.22,1.22,0,0,1,.38-.6,1,1,0,0,1,.65-.21,1.07,1.07,0,0,1,.51.12.94.94,0,0,1,.36.33,1.84,1.84,0,0,1,.22.53,3.76,3.76,0,0,1,.08.85,3.2,3.2,0,0,1-.13,1,1.33,1.33,0,0,1-.39.59,1,1,0,0,1-.65.21,1,1,0,0,1-.81-.37A2.31,2.31,0,0,1,102.22,141.36Zm.45,0a2.31,2.31,0,0,0,.2,1.17.59.59,0,0,0,1,0,2.2,2.2,0,0,0,.21-1.17,2.25,2.25,0,0,0-.21-1.18.62.62,0,0,0-.51-.29.58.58,0,0,0-.49.26A2.3,2.3,0,0,0,102.67,141.36Z" transform="translate(0.01 -22.61)"/><rect class="邱喟0.5pt-4" x="18.44" y="1.46" width="90.71" height="113.39"/></g><g id="English"><path class="cls-4" d="M4.64,98.24H.54v1.54H0V96.09H.54v1.54h4.1Z" transform="translate(0.01 -22.61)"/><path class="cls-4" d="M3,95.74a1.72,1.72,0,0,1-1.38-.52,1.57,1.57,0,0,1-.38-1.06A1.48,1.48,0,0,1,1.65,93a1.7,1.7,0,0,1,1.26-.45,2.22,2.22,0,0,1,1,.2,1.39,1.39,0,0,1,.58.57,1.63,1.63,0,0,1,.21.81,1.56,1.56,0,0,1-.46,1.15A1.82,1.82,0,0,1,3,95.74Zm0-.59a1.41,1.41,0,0,0,1-.28.89.89,0,0,0,.33-.71.91.91,0,0,0-.33-.71,1.49,1.49,0,0,0-1-.28,1.44,1.44,0,0,0-.95.28.9.9,0,0,0-.32.71.88.88,0,0,0,.32.71A1.39,1.39,0,0,0,3,95.15Z" transform="translate(0.01 -22.61)"/><path class="cls-4" d="M4.64,91.92H1.27v-.51h.51A1.31,1.31,0,0,1,1.31,91a.6.6,0,0,1-.12-.36,1.06,1.06,0,0,1,.19-.59l.53.2a.76.76,0,0,0-.13.42A.52.52,0,0,0,1.9,91a.58.58,0,0,0,.31.21,2,2,0,0,0,.66.1H4.64Z" transform="translate(0.01 -22.61)"/><path class="cls-4" d="M5.93,87.6H4.28a1,1,0,0,1,.31.37,1.14,1.14,0,0,1,.13.51,1.36,1.36,0,0,1-.48,1A1.89,1.89,0,0,1,2.92,90,2.21,2.21,0,0,1,2,89.77a1.23,1.23,0,0,1-.61-.51,1.35,1.35,0,0,1-.21-.73,1.14,1.14,0,0,1,.53-1H1.27V87H5.93Zm-3,1.76a1.51,1.51,0,0,0,1-.27.82.82,0,0,0,.33-.65.81.81,0,0,0-.31-.63A1.41,1.41,0,0,0,3,87.54a1.63,1.63,0,0,0-1,.28.85.85,0,0,0-.34.65A.79.79,0,0,0,2,89.1,1.49,1.49,0,0,0,2.94,89.36Z" transform="translate(0.01 -22.61)"/><path class="cls-4" d="M4.64,83.93h-.5A1.21,1.21,0,0,1,4.72,85a1.3,1.3,0,0,1-.12.55.91.91,0,0,1-.29.39,1,1,0,0,1-.42.17,2.3,2.3,0,0,1-.53,0H1.27v-.57H3.14a3.41,3.41,0,0,0,.6,0,.58.58,0,0,0,.36-.23.73.73,0,0,0,.12-.43.91.91,0,0,0-.13-.48.74.74,0,0,0-.36-.32A1.86,1.86,0,0,0,3.07,84H1.27v-.58H4.64Z" transform="translate(0.01 -22.61)"/><path class="cls-4" d="M3.55,80.21l.08-.59a1.5,1.5,0,0,1,.8.52,1.54,1.54,0,0,1,.29,1,1.57,1.57,0,0,1-.46,1.18A1.77,1.77,0,0,1,3,82.71a1.9,1.9,0,0,1-1.32-.44,1.58,1.58,0,0,1,0-2.24A1.87,1.87,0,0,1,3,79.6H3.1v2.51A1.34,1.34,0,0,0,4,81.81a.94.94,0,0,0,.3-.71.89.89,0,0,0-.17-.54A1.14,1.14,0,0,0,3.55,80.21Zm-.92,1.88V80.21a1.1,1.1,0,0,0-.64.21.88.88,0,0,0-.33.71.9.9,0,0,0,.27.66A1,1,0,0,0,2.63,82.09Z" transform="translate(0.01 -22.61)"/><path class="cls-4" d="M5.93,77.09H0V75.83H.46v.68h5v-.68h.47Z" transform="translate(0.01 -22.61)"/><path class="cls-4" d="M4.64,75.23H0v-.64l3.65-2.44H0v-.59H4.64v.63L1,74.64H4.64Z" transform="translate(0.01 -22.61)"/><path class="cls-4" d="M2.36,70.68a.78.78,0,0,1-.57-.24.77.77,0,0,1-.23-.56.81.81,0,0,1,.23-.57.8.8,0,0,1,1.14,0,.78.78,0,0,1,.24.57.74.74,0,0,1-.24.56A.78.78,0,0,1,2.36,70.68Z" transform="translate(0.01 -22.61)"/><path class="cls-4" d="M4.64,68.32H1.27v-.51h.47a1.16,1.16,0,0,1-.4-.42,1.21,1.21,0,0,1-.15-.6,1,1,0,0,1,.16-.61.81.81,0,0,1,.43-.34,1.23,1.23,0,0,1-.59-1A1,1,0,0,1,1.47,64a1.2,1.2,0,0,1,.86-.27H4.64v.56H2.52a1.49,1.49,0,0,0-.5.06.47.47,0,0,0-.24.2.64.64,0,0,0-.09.34.81.81,0,0,0,.23.59,1,1,0,0,0,.76.24h2v.57H2.45a1,1,0,0,0-.57.14.52.52,0,0,0-.19.46.83.83,0,0,0,.12.44.72.72,0,0,0,.38.3,2.08,2.08,0,0,0,.7.09H4.64Z" transform="translate(0.01 -22.61)"/><path class="cls-4" d="M5.93,62v1.26H5.46v-.69h-5v.69H0V62Z" transform="translate(0.01 -22.61)"/><rect class="繝後Μ_逋ｽ-2" x="21.27" y="43.51" width="47.91" height="16.58"/><path class="cls-4" d="M24.48,71l.59,0a1.2,1.2,0,0,0,.19.57,1,1,0,0,0,.47.36,1.76,1.76,0,0,0,.71.14,1.71,1.71,0,0,0,.62-.11.76.76,0,0,0,.4-.28.66.66,0,0,0,.13-.4.62.62,0,0,0-.12-.38,1.06,1.06,0,0,0-.42-.28,8,8,0,0,0-.83-.22,4.72,4.72,0,0,1-.9-.29,1.25,1.25,0,0,1-.49-.44,1,1,0,0,1-.17-.58,1.24,1.24,0,0,1,.2-.66,1.31,1.31,0,0,1,.59-.46,2.11,2.11,0,0,1,.85-.16,2.34,2.34,0,0,1,.91.17,1.25,1.25,0,0,1,.61.49,1.4,1.4,0,0,1,.23.73l-.59,0a1,1,0,0,0-.32-.66,1.62,1.62,0,0,0-1.63,0,.6.6,0,0,0-.25.49.51.51,0,0,0,.18.41,2.45,2.45,0,0,0,.92.34,6,6,0,0,1,1,.29,1.36,1.36,0,0,1,.6.48,1.14,1.14,0,0,1,.2.66,1.27,1.27,0,0,1-.21.7,1.43,1.43,0,0,1-.62.51,2.11,2.11,0,0,1-.89.18,2.73,2.73,0,0,1-1.06-.18,1.42,1.42,0,0,1-.67-.56A1.57,1.57,0,0,1,24.48,71Z" transform="translate(0.01 -22.61)"/><path class="cls-4" d="M29,72.48V67.83h.57V69.5a1.26,1.26,0,0,1,1-.46,1.48,1.48,0,0,1,.65.14.91.91,0,0,1,.39.41,1.88,1.88,0,0,1,.12.76v2.13h-.57V70.35a.91.91,0,0,0-.18-.63.7.7,0,0,0-.53-.19.91.91,0,0,0-.48.13.79.79,0,0,0-.32.36,1.69,1.69,0,0,0-.09.62v1.84Z" transform="translate(0.01 -22.61)"/><path class="cls-4" d="M32.36,70.8a1.73,1.73,0,0,1,.52-1.39,1.69,1.69,0,0,1,2.2.08,1.74,1.74,0,0,1,.44,1.26,2.22,2.22,0,0,1-.2,1,1.39,1.39,0,0,1-.57.58,1.63,1.63,0,0,1-.81.21,1.48,1.48,0,0,1-1.14-.46A1.75,1.75,0,0,1,32.36,70.8Zm.59,0a1.44,1.44,0,0,0,.28,1,.91.91,0,0,0,.71.32.93.93,0,0,0,.71-.32,1.48,1.48,0,0,0,.28-1,1.45,1.45,0,0,0-.28-1,.93.93,0,0,0-.71-.32.91.91,0,0,0-.71.32A1.42,1.42,0,0,0,33,70.8Z" transform="translate(0.01 -22.61)"/><path class="cls-4" d="M36.18,72.48V69.11h.51v.51a1.55,1.55,0,0,1,.37-.47.59.59,0,0,1,.36-.11,1.12,1.12,0,0,1,.59.18l-.2.53a.81.81,0,0,0-.41-.12.51.51,0,0,0-.34.11.58.58,0,0,0-.21.31,2,2,0,0,0-.1.67v1.76Z" transform="translate(0.01 -22.61)"/><path class="cls-4" d="M39.6,72l.08.51a2.37,2.37,0,0,1-.43,0,1,1,0,0,1-.48-.1.5.5,0,0,1-.24-.26,1.94,1.94,0,0,1-.07-.67V69.56H38v-.45h.42v-.83l.56-.35v1.18h.58v.45H39v2a1,1,0,0,0,0,.31.22.22,0,0,0,.1.11.37.37,0,0,0,.2,0A1.29,1.29,0,0,0,39.6,72Z" transform="translate(0.01 -22.61)"/><path class="cls-4" d="M39.93,71.09v-.58h1.76v.58Z" transform="translate(0.01 -22.61)"/><path class="cls-4" d="M44.51,72.48v-.42a1.06,1.06,0,0,1-.94.5,1.43,1.43,0,0,1-.75-.22,1.51,1.51,0,0,1-.52-.62,2.22,2.22,0,0,1-.18-.92,2.38,2.38,0,0,1,.16-.91A1.3,1.3,0,0,1,43.54,69a1.19,1.19,0,0,1,.54.12,1.17,1.17,0,0,1,.39.34V67.83H45v4.65ZM42.7,70.8a1.44,1.44,0,0,0,.28,1,.82.82,0,0,0,.64.32.81.81,0,0,0,.64-.31,1.41,1.41,0,0,0,.26-.93,1.59,1.59,0,0,0-.27-1,.84.84,0,0,0-.66-.32.78.78,0,0,0-.63.31A1.53,1.53,0,0,0,42.7,70.8Z" transform="translate(0.01 -22.61)"/><path class="cls-4" d="M48.15,72.48V72a1.25,1.25,0,0,1-1.07.57,1.31,1.31,0,0,1-.56-.12.88.88,0,0,1-.38-.28,1,1,0,0,1-.18-.43,3.07,3.07,0,0,1,0-.53V69.11h.57V71a3.41,3.41,0,0,0,0,.6.63.63,0,0,0,.23.36.73.73,0,0,0,.43.13,1,1,0,0,0,.48-.13.74.74,0,0,0,.32-.36,1.83,1.83,0,0,0,.1-.66V69.11h.57v3.37Z" transform="translate(0.01 -22.61)"/><path class="cls-4" d="M49.54,72.48V69.11h.52v.51a1.41,1.41,0,0,1,.36-.47.62.62,0,0,1,.37-.11,1.15,1.15,0,0,1,.59.18l-.2.53a.84.84,0,0,0-.42-.12.53.53,0,0,0-.34.11.58.58,0,0,0-.21.31,2.36,2.36,0,0,0-.09.67v1.76Z" transform="translate(0.01 -22.61)"/><path class="cls-4" d="M53.92,72.07a2.36,2.36,0,0,1-.62.38,1.81,1.81,0,0,1-.63.11,1.22,1.22,0,0,1-.85-.27.94.94,0,0,1-.18-1.15.92.92,0,0,1,.29-.33,1.38,1.38,0,0,1,.41-.18,4.17,4.17,0,0,1,.51-.09,5.33,5.33,0,0,0,1-.2v-.15a.63.63,0,0,0-.16-.49,1,1,0,0,0-.65-.19,1.06,1.06,0,0,0-.6.14.88.88,0,0,0-.28.5l-.56-.08a1.48,1.48,0,0,1,.25-.58,1.11,1.11,0,0,1,.51-.33,2.2,2.2,0,0,1,.76-.12,2,2,0,0,1,.7.1,1,1,0,0,1,.4.25,1.08,1.08,0,0,1,.18.39,3.08,3.08,0,0,1,0,.53v.76a9.89,9.89,0,0,0,0,1,1.22,1.22,0,0,0,.15.4H54A1,1,0,0,1,53.92,72.07Zm-.05-1.28a4,4,0,0,1-.94.22,2,2,0,0,0-.49.11.48.48,0,0,0-.23.19.5.5,0,0,0,.09.65.78.78,0,0,0,.51.15A1.25,1.25,0,0,0,53.4,72a.92.92,0,0,0,.38-.4,1.41,1.41,0,0,0,.09-.57Z" transform="translate(0.01 -22.61)"/><path class="cls-4" d="M56.58,72l.08.51a2.37,2.37,0,0,1-.43,0,1,1,0,0,1-.48-.1.5.5,0,0,1-.24-.26,1.94,1.94,0,0,1-.07-.67V69.56H55v-.45h.42v-.83l.56-.35v1.18h.58v.45H56v2a1,1,0,0,0,0,.31.22.22,0,0,0,.1.11.37.37,0,0,0,.2,0A1.29,1.29,0,0,0,56.58,72Z" transform="translate(0.01 -22.61)"/><path class="cls-4" d="M57.14,68.49v-.66h.57v.66Zm0,4V69.11h.57v3.37Z" transform="translate(0.01 -22.61)"/><path class="cls-4" d="M58.37,70.8a1.73,1.73,0,0,1,.52-1.39,1.69,1.69,0,0,1,2.2.08,1.74,1.74,0,0,1,.44,1.26,2.22,2.22,0,0,1-.2,1,1.39,1.39,0,0,1-.57.58,1.63,1.63,0,0,1-.81.21,1.52,1.52,0,0,1-1.15-.46A1.79,1.79,0,0,1,58.37,70.8Zm.59,0a1.44,1.44,0,0,0,.28,1,.91.91,0,0,0,.71.32.93.93,0,0,0,.71-.32,1.48,1.48,0,0,0,.28-1,1.4,1.4,0,0,0-.29-1,.89.89,0,0,0-.7-.32.91.91,0,0,0-.71.32A1.42,1.42,0,0,0,59,70.8Z" transform="translate(0.01 -22.61)"/><path class="cls-4" d="M62.2,72.48V69.11h.51v.48A1.2,1.2,0,0,1,63.78,69a1.43,1.43,0,0,1,.56.1,1,1,0,0,1,.39.29,1.13,1.13,0,0,1,.17.42,3.6,3.6,0,0,1,0,.56v2.07h-.57v-2a1.72,1.72,0,0,0-.06-.52.6.6,0,0,0-.24-.28.85.85,0,0,0-.4-.1,1,1,0,0,0-.63.23,1.18,1.18,0,0,0-.26.88v1.84Z" transform="translate(0.01 -22.61)"/><path class="cls-4" d="M24.61,80.28V76.91h.52v.51a1.41,1.41,0,0,1,.36-.47.62.62,0,0,1,.37-.11,1.15,1.15,0,0,1,.59.18l-.2.53a.84.84,0,0,0-.42-.12.53.53,0,0,0-.34.11.58.58,0,0,0-.21.31,2.36,2.36,0,0,0-.09.67v1.76Z" transform="translate(0.01 -22.61)"/><path class="cls-4" d="M29,80.28v-.49a1.22,1.22,0,0,1-1.07.57,1.3,1.3,0,0,1-.55-.12A1,1,0,0,1,27,80a1.11,1.11,0,0,1-.17-.43,2.3,2.3,0,0,1,0-.53V76.91h.57v1.87a3.41,3.41,0,0,0,0,.6.63.63,0,0,0,.23.36.73.73,0,0,0,.43.13,1,1,0,0,0,.48-.13.74.74,0,0,0,.32-.36,1.86,1.86,0,0,0,.09-.66V76.91h.58v3.37Z" transform="translate(0.01 -22.61)"/><path class="cls-4" d="M30.4,80.28V76.91h.51v.48A1.22,1.22,0,0,1,32,76.84a1.47,1.47,0,0,1,.56.1.89.89,0,0,1,.38.29,1.33,1.33,0,0,1,.18.42,3.6,3.6,0,0,1,0,.56v2.07h-.57v-2a1.41,1.41,0,0,0-.07-.52.5.5,0,0,0-.24-.28.81.81,0,0,0-.39-.1.92.92,0,0,0-.63.23,1.14,1.14,0,0,0-.27.88v1.84Z" transform="translate(0.01 -22.61)"/><path class="cls-4" d="M34,80.28V76.91h.51v.48a1.2,1.2,0,0,1,1.07-.55,1.43,1.43,0,0,1,.56.1.89.89,0,0,1,.38.29,1,1,0,0,1,.18.42,3.6,3.6,0,0,1,0,.56v2.07h-.57v-2a1.72,1.72,0,0,0-.06-.52.6.6,0,0,0-.24-.28.85.85,0,0,0-.4-.1,1,1,0,0,0-.63.23,1.14,1.14,0,0,0-.26.88v1.84Z" transform="translate(0.01 -22.61)"/><path class="cls-4" d="M37.63,76.29v-.66h.57v.66Zm0,4V76.91h.57v3.37Z" transform="translate(0.01 -22.61)"/><path class="cls-4" d="M39.07,80.28V76.91h.52v.48a1.2,1.2,0,0,1,1.07-.55,1.47,1.47,0,0,1,.56.1.89.89,0,0,1,.38.29,1,1,0,0,1,.18.42,3.6,3.6,0,0,1,0,.56v2.07h-.57v-2a1.72,1.72,0,0,0-.06-.52.6.6,0,0,0-.24-.28.85.85,0,0,0-.4-.1,1,1,0,0,0-.63.23,1.14,1.14,0,0,0-.26.88v1.84Z" transform="translate(0.01 -22.61)"/><path class="cls-4" d="M42.58,80.56l.56.08a.53.53,0,0,0,.19.38,1,1,0,0,0,.58.16,1.09,1.09,0,0,0,.62-.16.82.82,0,0,0,.29-.45,3.76,3.76,0,0,0,0-.73,1.15,1.15,0,0,1-.93.44,1.26,1.26,0,0,1-1.08-.5,1.93,1.93,0,0,1-.38-1.2,2.18,2.18,0,0,1,.18-.89,1.37,1.37,0,0,1,.5-.63,1.35,1.35,0,0,1,.78-.22,1.19,1.19,0,0,1,1,.48v-.41h.53v2.92a2.7,2.7,0,0,1-.16,1.11,1.22,1.22,0,0,1-.51.52,1.7,1.7,0,0,1-.85.19,1.65,1.65,0,0,1-1-.27A1,1,0,0,1,42.58,80.56Zm.48-2a1.47,1.47,0,0,0,.26,1,.83.83,0,0,0,.66.31.85.85,0,0,0,.66-.3,1.42,1.42,0,0,0,.27-1,1.35,1.35,0,0,0-.28-.94.85.85,0,0,0-1.31,0A1.4,1.4,0,0,0,43.06,78.54Z" transform="translate(0.01 -22.61)"/><path class="cls-4" d="M48.1,80.28V76.91h.52v.51A1.41,1.41,0,0,1,49,77a.6.6,0,0,1,.37-.11,1.15,1.15,0,0,1,.59.18l-.2.53a.84.84,0,0,0-.42-.12.51.51,0,0,0-.34.11.58.58,0,0,0-.21.31,2.36,2.36,0,0,0-.09.67v1.76Z" transform="translate(0.01 -22.61)"/><path class="cls-4" d="M52.47,79.87a2.17,2.17,0,0,1-.61.38,1.81,1.81,0,0,1-.63.11,1.22,1.22,0,0,1-.85-.27.89.89,0,0,1-.3-.7,1,1,0,0,1,.11-.45,1.06,1.06,0,0,1,.3-.33,1.38,1.38,0,0,1,.41-.18,4.17,4.17,0,0,1,.51-.09,5.33,5.33,0,0,0,1-.2V78a.63.63,0,0,0-.16-.49,1,1,0,0,0-.65-.19,1.06,1.06,0,0,0-.6.14.83.83,0,0,0-.28.5l-.56-.08a1.34,1.34,0,0,1,.25-.58,1.06,1.06,0,0,1,.51-.33,2.2,2.2,0,0,1,.76-.12,2,2,0,0,1,.7.1,1,1,0,0,1,.4.25,1.08,1.08,0,0,1,.18.39c0,.1,0,.27,0,.53v.76a8.82,8.82,0,0,0,0,1,1.22,1.22,0,0,0,.15.4h-.6A1.23,1.23,0,0,1,52.47,79.87Zm0-1.28a4,4,0,0,1-.94.22,2,2,0,0,0-.49.11.48.48,0,0,0-.23.19.5.5,0,0,0,.09.65.78.78,0,0,0,.51.15,1.25,1.25,0,0,0,.59-.14.89.89,0,0,0,.37-.4,1.24,1.24,0,0,0,.1-.57Z" transform="translate(0.01 -22.61)"/><path class="cls-4" d="M53.89,80.28V76.91h.51v.48a1.22,1.22,0,0,1,1.08-.55,1.47,1.47,0,0,1,.56.1.89.89,0,0,1,.38.29,1.33,1.33,0,0,1,.18.42,3.6,3.6,0,0,1,0,.56v2.07h-.57v-2a1.41,1.41,0,0,0-.07-.52.5.5,0,0,0-.24-.28.81.81,0,0,0-.39-.1.92.92,0,0,0-.63.23,1.14,1.14,0,0,0-.27.88v1.84Z" transform="translate(0.01 -22.61)"/><path class="cls-4" d="M57.4,80.56l.56.08a.5.5,0,0,0,.19.38,1,1,0,0,0,.58.16,1.05,1.05,0,0,0,.61-.16.77.77,0,0,0,.29-.45,3.49,3.49,0,0,0,0-.73,1.16,1.16,0,0,1-.94.44,1.24,1.24,0,0,1-1.07-.5,1.87,1.87,0,0,1-.38-1.2,2.17,2.17,0,0,1,.17-.89,1.46,1.46,0,0,1,.51-.63,1.35,1.35,0,0,1,.78-.22,1.22,1.22,0,0,1,1,.48v-.41h.53v2.92a2.88,2.88,0,0,1-.16,1.11,1.22,1.22,0,0,1-.51.52,1.74,1.74,0,0,1-.86.19,1.61,1.61,0,0,1-1-.27A.91.91,0,0,1,57.4,80.56Zm.47-2a1.41,1.41,0,0,0,.27,1,.81.81,0,0,0,.66.31.85.85,0,0,0,.66-.3,1.48,1.48,0,0,0,.26-1,1.41,1.41,0,0,0-.27-.94.83.83,0,0,0-.66-.31.81.81,0,0,0-.65.31A1.35,1.35,0,0,0,57.87,78.54Z" transform="translate(0.01 -22.61)"/><path class="cls-4" d="M63.43,79.2l.59.07a1.5,1.5,0,0,1-.52.8,1.74,1.74,0,0,1-2.14-.17,1.76,1.76,0,0,1-.43-1.27,1.86,1.86,0,0,1,.44-1.32,1.58,1.58,0,0,1,2.24,0A1.82,1.82,0,0,1,64,78.59a.92.92,0,0,1,0,.15H61.52a1.32,1.32,0,0,0,.31.85.94.94,0,0,0,.71.3.84.84,0,0,0,.53-.17A1.1,1.1,0,0,0,63.43,79.2Zm-1.88-.93h1.88a1.07,1.07,0,0,0-.21-.63.88.88,0,0,0-.71-.33.89.89,0,0,0-.66.26A1,1,0,0,0,61.55,78.27Z" transform="translate(0.01 -22.61)"/><rect class="繝後Μ_逋ｽ-2" x="22.02" y="93.11" width="41.46" height="16.58"/><path class="cls-4" d="M28.11,120.46l.62.15a2.07,2.07,0,0,1-.7,1.16,1.88,1.88,0,0,1-1.23.4,2.14,2.14,0,0,1-1.22-.31,1.89,1.89,0,0,1-.72-.89,3.19,3.19,0,0,1-.24-1.24,2.8,2.8,0,0,1,.27-1.27,1.9,1.9,0,0,1,.79-.82,2.31,2.31,0,0,1,1.13-.28,2,2,0,0,1,1.18.35,1.87,1.87,0,0,1,.66,1l-.61.14a1.35,1.35,0,0,0-.47-.73,1.2,1.2,0,0,0-.77-.24,1.52,1.52,0,0,0-.9.26,1.3,1.3,0,0,0-.5.69,2.73,2.73,0,0,0-.15.89,3,3,0,0,0,.17,1,1.28,1.28,0,0,0,.54.66,1.47,1.47,0,0,0,.79.22,1.32,1.32,0,0,0,.88-.3A1.48,1.48,0,0,0,28.11,120.46Z" transform="translate(0.01 -22.61)"/><path class="cls-4" d="M29.2,120.4a1.75,1.75,0,0,1,.52-1.38,1.58,1.58,0,0,1,1.06-.38,1.48,1.48,0,0,1,1.14.46,1.74,1.74,0,0,1,.44,1.26,2.38,2.38,0,0,1-.19,1,1.45,1.45,0,0,1-.57.58,1.63,1.63,0,0,1-.82.2,1.51,1.51,0,0,1-1.14-.45A1.82,1.82,0,0,1,29.2,120.4Zm.59,0a1.42,1.42,0,0,0,.28,1,.91.91,0,0,0,.71.33.89.89,0,0,0,.71-.33,1.45,1.45,0,0,0,.28-1,1.37,1.37,0,0,0-.28-.94.93.93,0,0,0-1.42,0A1.39,1.39,0,0,0,29.79,120.4Z" transform="translate(0.01 -22.61)"/><path class="cls-4" d="M33,122.09v-3.37h.51v.48a1.23,1.23,0,0,1,1.08-.56,1.47,1.47,0,0,1,.56.11.82.82,0,0,1,.38.29,1.33,1.33,0,0,1,.18.42,3.51,3.51,0,0,1,0,.56v2.07H35.2v-2a1.34,1.34,0,0,0-.07-.52.5.5,0,0,0-.24-.28.71.71,0,0,0-.39-.1.88.88,0,0,0-.63.23,1.13,1.13,0,0,0-.27.88v1.84Z" transform="translate(0.01 -22.61)"/><path class="cls-4" d="M37.89,121.58l.08.5a1.72,1.72,0,0,1-.43,0,.93.93,0,0,1-.48-.1.58.58,0,0,1-.24-.25,2,2,0,0,1-.07-.68v-1.94h-.42v-.44h.42v-.84l.57-.34v1.18h.57v.44h-.57v2a1,1,0,0,0,0,.32.26.26,0,0,0,.1.11.34.34,0,0,0,.19,0Z" transform="translate(0.01 -22.61)"/><path class="cls-4" d="M38.45,118.09v-.65H39v.65Zm0,4v-3.37H39v3.37Z" transform="translate(0.01 -22.61)"/><path class="cls-4" d="M39.89,122.09v-3.37h.52v.48a1.21,1.21,0,0,1,1.07-.56,1.47,1.47,0,0,1,.56.11.82.82,0,0,1,.38.29,1,1,0,0,1,.18.42,3.51,3.51,0,0,1,0,.56v2.07h-.57v-2a1.63,1.63,0,0,0-.06-.52.6.6,0,0,0-.24-.28.74.74,0,0,0-.4-.1.91.91,0,0,0-.63.23,1.13,1.13,0,0,0-.26.88v1.84Z" transform="translate(0.01 -22.61)"/><path class="cls-4" d="M45.72,122.09v-.5a1.23,1.23,0,0,1-1.07.57,1.3,1.3,0,0,1-.56-.11.89.89,0,0,1-.38-.29,1,1,0,0,1-.18-.42,3.33,3.33,0,0,1,0-.53v-2.09h.57v1.87a3.77,3.77,0,0,0,0,.6.62.62,0,0,0,.23.35.69.69,0,0,0,.43.13,1,1,0,0,0,.49-.13.72.72,0,0,0,.31-.36,1.63,1.63,0,0,0,.1-.66v-1.8h.57v3.37Z" transform="translate(0.01 -22.61)"/><path class="cls-4" d="M46.91,120.4a1.75,1.75,0,0,1,.52-1.38,1.58,1.58,0,0,1,1.06-.38,1.48,1.48,0,0,1,1.14.46,1.74,1.74,0,0,1,.44,1.26,2.38,2.38,0,0,1-.19,1,1.45,1.45,0,0,1-.57.58,1.63,1.63,0,0,1-.82.2,1.51,1.51,0,0,1-1.14-.45A1.82,1.82,0,0,1,46.91,120.4Zm.59,0a1.42,1.42,0,0,0,.28,1,.91.91,0,0,0,.71.33.89.89,0,0,0,.71-.33,1.45,1.45,0,0,0,.28-1,1.37,1.37,0,0,0-.28-.94.93.93,0,0,0-1.42,0A1.39,1.39,0,0,0,47.5,120.4Z" transform="translate(0.01 -22.61)"/><path class="cls-4" d="M53,122.09v-.5a1.23,1.23,0,0,1-1.07.57,1.3,1.3,0,0,1-.56-.11.89.89,0,0,1-.38-.29,1,1,0,0,1-.18-.42,3.33,3.33,0,0,1,0-.53v-2.09h.57v1.87a3.77,3.77,0,0,0,0,.6.62.62,0,0,0,.23.35.69.69,0,0,0,.43.13,1,1,0,0,0,.49-.13.72.72,0,0,0,.31-.36,1.63,1.63,0,0,0,.1-.66v-1.8h.57v3.37Z" transform="translate(0.01 -22.61)"/><path class="cls-4" d="M54.13,121.08l.56-.09a.76.76,0,0,0,.27.52.9.9,0,0,0,.6.19.94.94,0,0,0,.59-.16.49.49,0,0,0,.19-.38.37.37,0,0,0-.17-.31,2.66,2.66,0,0,0-.58-.19,7.72,7.72,0,0,1-.88-.27.87.87,0,0,1-.36-.32.82.82,0,0,1-.13-.46.81.81,0,0,1,.11-.41.79.79,0,0,1,.28-.32.93.93,0,0,1,.36-.17,1.57,1.57,0,0,1,.49-.07,1.86,1.86,0,0,1,.7.12.88.88,0,0,1,.44.31,1.18,1.18,0,0,1,.2.52l-.56.07a.61.61,0,0,0-.22-.4.79.79,0,0,0-.52-.15.91.91,0,0,0-.56.13.4.4,0,0,0-.17.31.37.37,0,0,0,.07.2.53.53,0,0,0,.22.15l.51.14a7,7,0,0,1,.84.27.88.88,0,0,1,.38.3.84.84,0,0,1,.14.49,1,1,0,0,1-.17.54,1.11,1.11,0,0,1-.48.39,1.8,1.8,0,0,1-.71.13,1.59,1.59,0,0,1-1-.27A1.24,1.24,0,0,1,54.13,121.08Z" transform="translate(0.01 -22.61)"/><path class="cls-4" d="M24.71,129.89v-3.37h.52V127a1.31,1.31,0,0,1,.36-.47.63.63,0,0,1,.37-.12,1.08,1.08,0,0,1,.59.19l-.2.53a.76.76,0,0,0-.42-.13.59.59,0,0,0-.55.43,2.29,2.29,0,0,0-.09.66v1.77Z" transform="translate(0.01 -22.61)"/><path class="cls-4" d="M29.09,129.89v-.5A1.22,1.22,0,0,1,28,130a1.29,1.29,0,0,1-.55-.11.87.87,0,0,1-.56-.71,2.3,2.3,0,0,1,0-.53v-2.09h.57v1.87a3.41,3.41,0,0,0,0,.6.57.57,0,0,0,.23.35.67.67,0,0,0,.43.13.91.91,0,0,0,.48-.13.74.74,0,0,0,.32-.36,1.86,1.86,0,0,0,.09-.66v-1.8h.58v3.37Z" transform="translate(0.01 -22.61)"/><path class="cls-4" d="M30.5,129.89v-3.37H31V127a1.23,1.23,0,0,1,1.08-.56,1.47,1.47,0,0,1,.56.11.82.82,0,0,1,.38.29,1.33,1.33,0,0,1,.18.42,3.51,3.51,0,0,1,0,.56v2.07h-.57v-2a1.34,1.34,0,0,0-.07-.52.5.5,0,0,0-.24-.28.71.71,0,0,0-.39-.1.88.88,0,0,0-.63.23,1.13,1.13,0,0,0-.27.88v1.84Z" transform="translate(0.01 -22.61)"/><path class="cls-4" d="M34.12,129.89v-3.37h.51V127a1.21,1.21,0,0,1,1.07-.56,1.43,1.43,0,0,1,.56.11.82.82,0,0,1,.38.29,1,1,0,0,1,.18.42,3.51,3.51,0,0,1,0,.56v2.07h-.57v-2a1.63,1.63,0,0,0-.06-.52A.6.6,0,0,0,36,127a.74.74,0,0,0-.4-.1.91.91,0,0,0-.63.23,1.13,1.13,0,0,0-.26.88v1.84Z" transform="translate(0.01 -22.61)"/><path class="cls-4" d="M37.73,125.89v-.65h.57v.65Zm0,4v-3.37h.57v3.37Z" transform="translate(0.01 -22.61)"/><path class="cls-4" d="M39.17,129.89v-3.37h.52V127a1.21,1.21,0,0,1,1.07-.56,1.47,1.47,0,0,1,.56.11.82.82,0,0,1,.38.29,1,1,0,0,1,.18.42,3.51,3.51,0,0,1,0,.56v2.07h-.57v-2a1.63,1.63,0,0,0-.06-.52A.6.6,0,0,0,41,127a.74.74,0,0,0-.4-.1.91.91,0,0,0-.63.23,1.13,1.13,0,0,0-.26.88v1.84Z" transform="translate(0.01 -22.61)"/><path class="cls-4" d="M42.68,130.17l.56.08a.51.51,0,0,0,.19.37,1,1,0,0,0,.58.16,1,1,0,0,0,.62-.16.76.76,0,0,0,.29-.44,3.83,3.83,0,0,0,0-.73,1.18,1.18,0,0,1-.93.44,1.29,1.29,0,0,1-1.08-.5,2,2,0,0,1-.38-1.21,2.21,2.21,0,0,1,.18-.89,1.37,1.37,0,0,1,.5-.63,1.43,1.43,0,0,1,.78-.22,1.19,1.19,0,0,1,1,.48v-.4h.53v2.91a2.72,2.72,0,0,1-.16,1.12,1.22,1.22,0,0,1-.51.52,1.81,1.81,0,0,1-.85.19,1.65,1.65,0,0,1-1-.27A1,1,0,0,1,42.68,130.17Zm.48-2a1.5,1.5,0,0,0,.26,1,.86.86,0,0,0,1.32,0,1.4,1.4,0,0,0,.27-1,1.34,1.34,0,0,0-.28-.93.84.84,0,0,0-.66-.32.86.86,0,0,0-.65.31A1.44,1.44,0,0,0,43.16,128.14Z" transform="translate(0.01 -22.61)"/><path class="cls-4" d="M48.2,129.89v-3.37h.52V127a1.31,1.31,0,0,1,.36-.47.61.61,0,0,1,.37-.12,1.08,1.08,0,0,1,.59.19l-.2.53a.76.76,0,0,0-.42-.13.52.52,0,0,0-.34.12.54.54,0,0,0-.21.31,2.29,2.29,0,0,0-.09.66v1.77Z" transform="translate(0.01 -22.61)"/><path class="cls-4" d="M52.57,129.47a2,2,0,0,1-.61.38,1.61,1.61,0,0,1-.63.11,1.22,1.22,0,0,1-.85-.27.89.89,0,0,1-.3-.69.94.94,0,0,1,.11-.45,1,1,0,0,1,.3-.33A1.4,1.4,0,0,1,51,128a3,3,0,0,1,.51-.08,5.33,5.33,0,0,0,1-.2v-.15a.61.61,0,0,0-.16-.49,1,1,0,0,0-.65-.2,1,1,0,0,0-.6.15.83.83,0,0,0-.28.5l-.56-.08a1.34,1.34,0,0,1,.25-.58,1.07,1.07,0,0,1,.51-.34,2.2,2.2,0,0,1,.76-.12,2,2,0,0,1,.7.1,1,1,0,0,1,.4.26,1,1,0,0,1,.18.39c0,.09,0,.27,0,.52v.77a8.6,8.6,0,0,0,0,1,1.27,1.27,0,0,0,.15.41h-.6A1.29,1.29,0,0,1,52.57,129.47Zm0-1.27a4.63,4.63,0,0,1-.94.21,1.9,1.9,0,0,0-.49.12.47.47,0,0,0-.23.18.5.5,0,0,0-.08.27.49.49,0,0,0,.17.38.73.73,0,0,0,.51.16,1.15,1.15,0,0,0,.59-.15.87.87,0,0,0,.37-.39,1.24,1.24,0,0,0,.1-.57Z" transform="translate(0.01 -22.61)"/><path class="cls-4" d="M54,129.89v-3.37h.51V127a1.23,1.23,0,0,1,1.08-.56,1.47,1.47,0,0,1,.56.11.82.82,0,0,1,.38.29,1.33,1.33,0,0,1,.18.42,3.51,3.51,0,0,1,0,.56v2.07h-.57v-2a1.34,1.34,0,0,0-.07-.52.5.5,0,0,0-.24-.28.71.71,0,0,0-.39-.1.88.88,0,0,0-.63.23,1.13,1.13,0,0,0-.27.88v1.84Z" transform="translate(0.01 -22.61)"/><path class="cls-4" d="M57.5,130.17l.56.08a.48.48,0,0,0,.19.37.91.91,0,0,0,.58.16,1,1,0,0,0,.61-.16.72.72,0,0,0,.29-.44,3.56,3.56,0,0,0,.05-.73,1.19,1.19,0,0,1-.94.44,1.27,1.27,0,0,1-1.07-.5,1.92,1.92,0,0,1-.38-1.21,2.21,2.21,0,0,1,.17-.89,1.46,1.46,0,0,1,.51-.63,1.43,1.43,0,0,1,.78-.22,1.22,1.22,0,0,1,1,.48v-.4h.53v2.91a2.9,2.9,0,0,1-.16,1.12,1.22,1.22,0,0,1-.51.52,1.85,1.85,0,0,1-.86.19,1.61,1.61,0,0,1-1-.27A.93.93,0,0,1,57.5,130.17Zm.47-2a1.44,1.44,0,0,0,.27,1,.83.83,0,0,0,.66.31.86.86,0,0,0,.66-.31,1.46,1.46,0,0,0,.26-1,1.39,1.39,0,0,0-.27-.93.84.84,0,0,0-1.31,0A1.38,1.38,0,0,0,58,128.14Z" transform="translate(0.01 -22.61)"/><path class="cls-4" d="M63.53,128.8l.59.08a1.5,1.5,0,0,1-.52.8,1.54,1.54,0,0,1-1,.28,1.56,1.56,0,0,1-1.18-.45,1.77,1.77,0,0,1-.43-1.28,1.86,1.86,0,0,1,.44-1.32,1.58,1.58,0,0,1,2.24,0,1.87,1.87,0,0,1,.43,1.3,1,1,0,0,1,0,.15H61.62a1.34,1.34,0,0,0,.31.85.94.94,0,0,0,.71.3.84.84,0,0,0,.53-.17A1.13,1.13,0,0,0,63.53,128.8Zm-1.88-.92h1.88a1.1,1.1,0,0,0-.21-.64.88.88,0,0,0-.71-.33.93.93,0,0,0-.66.26A1.08,1.08,0,0,0,61.65,127.88Z" transform="translate(0.01 -22.61)"/><path class="cls-4" d="M44.76,150.53l.58-.05a1.32,1.32,0,0,0,.19.57,1,1,0,0,0,.47.36,1.64,1.64,0,0,0,.71.14,1.74,1.74,0,0,0,.63-.1.94.94,0,0,0,.4-.29.71.71,0,0,0,.13-.4.57.57,0,0,0-.13-.38.93.93,0,0,0-.42-.28c-.12,0-.4-.12-.83-.22a4.82,4.82,0,0,1-.89-.29,1.21,1.21,0,0,1-.5-.44,1,1,0,0,1-.16-.58,1.11,1.11,0,0,1,.2-.65,1.19,1.19,0,0,1,.58-.47,2.15,2.15,0,0,1,.85-.16,2.4,2.4,0,0,1,.92.17,1.27,1.27,0,0,1,.6.49,1.32,1.32,0,0,1,.23.73l-.59,0a1,1,0,0,0-.32-.67,1.24,1.24,0,0,0-.81-.23,1.32,1.32,0,0,0-.82.21.61.61,0,0,0-.25.49.54.54,0,0,0,.18.42,2.79,2.79,0,0,0,.93.33,6.61,6.61,0,0,1,1,.29,1.48,1.48,0,0,1,.6.48,1.14,1.14,0,0,1,.19.66,1.27,1.27,0,0,1-.21.7,1.4,1.4,0,0,1-.61.51,2.19,2.19,0,0,1-.9.18,2.76,2.76,0,0,1-1.06-.18,1.51,1.51,0,0,1-.67-.55A1.62,1.62,0,0,1,44.76,150.53Z" transform="translate(0.01 -22.61)"/><path class="cls-4" d="M49.23,153.32v-4.67h.52v.44a1.16,1.16,0,0,1,.42-.38,1.08,1.08,0,0,1,.56-.13,1.31,1.31,0,0,1,.76.22,1.37,1.37,0,0,1,.5.63,2.3,2.3,0,0,1,.17.88,2.35,2.35,0,0,1-.19.94,1.39,1.39,0,0,1-.54.63,1.33,1.33,0,0,1-.74.22,1.14,1.14,0,0,1-.52-.12,1.22,1.22,0,0,1-.37-.3v1.64Zm.52-3a1.45,1.45,0,0,0,.26,1,.81.81,0,0,0,.64.31.84.84,0,0,0,.65-.32,1.55,1.55,0,0,0,.27-1,1.51,1.51,0,0,0-.26-1,.8.8,0,0,0-.64-.33.81.81,0,0,0-.64.35A1.48,1.48,0,0,0,49.75,150.36Z" transform="translate(0.01 -22.61)"/><path class="cls-4" d="M55.15,150.94l.59.07a1.4,1.4,0,0,1-.51.8,1.53,1.53,0,0,1-1,.29,1.55,1.55,0,0,1-1.17-.45,1.79,1.79,0,0,1-.44-1.28,1.86,1.86,0,0,1,.44-1.32,1.46,1.46,0,0,1,1.14-.47,1.41,1.41,0,0,1,1.1.46,1.8,1.8,0,0,1,.43,1.29v.15H53.24a1.37,1.37,0,0,0,.32.86,1,1,0,0,0,.7.29.89.89,0,0,0,.54-.16A1.05,1.05,0,0,0,55.15,150.94ZM53.28,150h1.88a1.15,1.15,0,0,0-.22-.64.86.86,0,0,0-.71-.33.89.89,0,0,0-.66.26A1,1,0,0,0,53.28,150Z" transform="translate(0.01 -22.61)"/><path class="cls-4" d="M58.77,150.94l.59.07a1.46,1.46,0,0,1-.52.8,1.48,1.48,0,0,1-1,.29,1.56,1.56,0,0,1-1.18-.45,1.79,1.79,0,0,1-.43-1.28,1.86,1.86,0,0,1,.44-1.32A1.58,1.58,0,0,1,59,149a1.84,1.84,0,0,1,.43,1.29.86.86,0,0,1,0,.15H56.86a1.37,1.37,0,0,0,.31.86,1,1,0,0,0,.71.29.84.84,0,0,0,.53-.16A1.13,1.13,0,0,0,58.77,150.94ZM56.89,150h1.88a1.08,1.08,0,0,0-.21-.64.88.88,0,0,0-.71-.33.89.89,0,0,0-.66.26A1.05,1.05,0,0,0,56.89,150Z" transform="translate(0.01 -22.61)"/><path class="cls-4" d="M62.26,152v-.42a1.05,1.05,0,0,1-.94.5,1.29,1.29,0,0,1-.74-.22,1.53,1.53,0,0,1-.53-.62,2.48,2.48,0,0,1,0-1.83,1.28,1.28,0,0,1,.5-.63,1.34,1.34,0,0,1,.75-.22,1.12,1.12,0,0,1,.93.46v-1.67h.57V152Zm-1.8-1.68a1.48,1.48,0,0,0,.27,1,.83.83,0,0,0,.64.32.81.81,0,0,0,.64-.31,1.41,1.41,0,0,0,.26-.93,1.59,1.59,0,0,0-.27-1,.81.81,0,0,0-.65-.32.78.78,0,0,0-.64.31A1.55,1.55,0,0,0,60.46,150.34Z" transform="translate(0.01 -22.61)"/><path class="cls-4" d="M65.51,153.32v-5.95h1.26v.47h-.69v5h.69v.48Z" transform="translate(0.01 -22.61)"/><path class="cls-4" d="M67.3,152v-3.37h.51v.51a1.52,1.52,0,0,1,.36-.47.7.7,0,0,1,.37-.11,1.15,1.15,0,0,1,.59.18l-.2.53a.84.84,0,0,0-.42-.12.6.6,0,0,0-.34.11.62.62,0,0,0-.21.31,2.41,2.41,0,0,0-.09.67V152Z" transform="translate(0.01 -22.61)"/><path class="cls-4" d="M69,152.1l1.35-4.81h.45L69.5,152.1Z" transform="translate(0.01 -22.61)"/><path class="cls-4" d="M71.27,152v-3.37h.51v.48a1.18,1.18,0,0,1,.43-.4,1.16,1.16,0,0,1,.6-.15,1.15,1.15,0,0,1,.61.15.88.88,0,0,1,.34.44,1.18,1.18,0,0,1,1-.59,1,1,0,0,1,.77.27,1.22,1.22,0,0,1,.27.86V152h-.57V149.9a1.82,1.82,0,0,0,0-.49.56.56,0,0,0-.21-.25.62.62,0,0,0-.34-.09.79.79,0,0,0-.59.24,1,1,0,0,0-.23.76v2h-.58v-2.19a1,1,0,0,0-.13-.57.57.57,0,0,0-.46-.19.9.9,0,0,0-.45.13.72.72,0,0,0-.29.37,1.88,1.88,0,0,0-.1.71V152Z" transform="translate(0.01 -22.61)"/><path class="cls-4" d="M76.69,148v-.66h.57V148Zm0,4v-3.37h.57V152Z" transform="translate(0.01 -22.61)"/><path class="cls-4" d="M78.13,152v-3.37h.51v.48a1.22,1.22,0,0,1,1.08-.55,1.3,1.3,0,0,1,.56.11.88.88,0,0,1,.38.28,1.3,1.3,0,0,1,.18.43,3.37,3.37,0,0,1,0,.55V152H80.3V150a1.41,1.41,0,0,0-.07-.52.51.51,0,0,0-.23-.27.77.77,0,0,0-.4-.11.92.92,0,0,0-.63.23,1.14,1.14,0,0,0-.27.88V152Z" transform="translate(0.01 -22.61)"/><path class="cls-4" d="M82.7,153.32H81.44v-.48h.69v-5h-.69v-.47H82.7Z" transform="translate(0.01 -22.61)"/></g></svg>