<svg xmlns="http://www.w3.org/2000/svg" viewBox="0 0 118.01 130.73"><defs><style>.cls-1,.cls-2,.cls-3,.cls-4,.cls-6,.繝医Ν繧ｯ繧ｰ繝ｩ繝廟繧ｰ繝ｬ繝ｼ邱,.邱喟0\.5pt{fill:none;}.cls-1,.cls-4,.邱喟0\.5pt{stroke:#231815;}.cls-1{stroke-linejoin:round;stroke-width:0.14px;}.cls-2,.cls-3,.cls-6,.繝医Ν繧ｯ繧ｰ繝ｩ繝廟繧ｰ繝ｬ繝ｼ邱{stroke:#9fa0a0;}.cls-2,.cls-3,.邱喟0\.5pt{stroke-miterlimit:10;}.cls-2,.cls-3{stroke-width:1px;}.cls-3{stroke-dasharray:3.05 1.48;}.cls-6,.繝医Ν繧ｯ繧ｰ繝ｩ繝廟繧ｰ繝ｬ繝ｼ邱{stroke-width:3px;}.cls-5{fill:#231815;}.cls-6{stroke-linecap:square;}.繝後Μ_逋ｽ-2{fill:#fff;}.邱喟0\.5pt{stroke-width:0.5px;}</style></defs><g id="Illust"><line class="cls-1" x1="19.86" y1="100.65" x2="110.55" y2="100.65"/><line class="cls-1" x1="19.86" y1="86.48" x2="110.55" y2="86.48"/><line class="cls-1" x1="19.86" y1="72.31" x2="110.55" y2="72.31"/><line class="cls-1" x1="19.86" y1="58.15" x2="110.55" y2="58.15"/><line class="cls-1" x1="19.86" y1="43.98" x2="110.55" y2="43.98"/><line class="cls-1" x1="19.86" y1="29.82" x2="110.55" y2="29.82"/><line class="cls-1" x1="19.86" y1="15.65" x2="110.55" y2="15.65"/><line class="cls-1" x1="47.07" y1="1.48" x2="47.07" y2="114.87"/><line class="cls-1" x1="74.28" y1="1.48" x2="74.28" y2="114.87"/><line class="cls-1" x1="101.49" y1="1.48" x2="101.49" y2="114.87"/><line class="cls-2" x1="96.05" y1="92.19" x2="96.05" y2="93.74"/><line class="cls-3" x1="96.05" y1="95.22" x2="96.05" y2="112.58"/><line class="cls-2" x1="96.05" y1="113.32" x2="96.05" y2="114.87"/><polyline class="繝医Ν繧ｯ繧ｰ繝ｩ繝廟繧ｰ繝ｬ繝ｼ邱" points="19.86 83.24 28.93 83.24 37.99 83.24 56.14 83.24 74.29 83.24 92.42 91.15 110.56 95.91"/><polyline class="cls-4" points="19.86 83.24 28.93 83.24 37.99 83.24 56.14 83.24 74.29 83.24 92.42 91.15 110.56 95.91"/><path class="cls-5" d="M105.91,142.21l.46,0a.81.81,0,0,0,.23.51.69.69,0,0,0,.46.17.68.68,0,0,0,.53-.24.88.88,0,0,0,.22-.63.83.83,0,0,0-.21-.6.75.75,0,0,0-.55-.22.87.87,0,0,0-.39.1.78.78,0,0,0-.26.25l-.42,0,.35-1.84h1.78V140h-1.43l-.19,1a1.14,1.14,0,0,1,.67-.22,1.07,1.07,0,0,1,.8.32,1.17,1.17,0,0,1,.32.84,1.37,1.37,0,0,1-.28.84,1.14,1.14,0,0,1-.94.43,1.16,1.16,0,0,1-.8-.27A1,1,0,0,1,105.91,142.21Z" transform="translate(1.43 -22.61)"/><path class="cls-5" d="M108.69,141.38a3.2,3.2,0,0,1,.13-1,1.19,1.19,0,0,1,.38-.59,1,1,0,0,1,.65-.21.95.95,0,0,1,.87.45,1.73,1.73,0,0,1,.22.53,3.72,3.72,0,0,1,.08.84,3.2,3.2,0,0,1-.13,1,1.23,1.23,0,0,1-.39.6,1.09,1.09,0,0,1-1.46-.16A2.34,2.34,0,0,1,108.69,141.38Zm.45,0a2.38,2.38,0,0,0,.2,1.18.59.59,0,0,0,1,0,2.25,2.25,0,0,0,.21-1.18,2.18,2.18,0,0,0-.21-1.17.62.62,0,0,0-.51-.29.57.57,0,0,0-.49.26A2.26,2.26,0,0,0,109.14,141.38Z" transform="translate(1.43 -22.61)"/><path class="cls-5" d="M111.47,141.38a3.2,3.2,0,0,1,.13-1,1.14,1.14,0,0,1,.39-.59,1,1,0,0,1,.64-.21,1,1,0,0,1,.51.11,1.06,1.06,0,0,1,.36.34,1.73,1.73,0,0,1,.22.53,3.72,3.72,0,0,1,.08.84,3.2,3.2,0,0,1-.13,1,1.23,1.23,0,0,1-.39.6,1.09,1.09,0,0,1-1.46-.16A2.34,2.34,0,0,1,111.47,141.38Zm.45,0a2.38,2.38,0,0,0,.2,1.18.62.62,0,0,0,.51.29.6.6,0,0,0,.51-.29,2.25,2.25,0,0,0,.21-1.18,2.18,2.18,0,0,0-.21-1.17.61.61,0,0,0-.51-.29.54.54,0,0,0-.48.26A2.15,2.15,0,0,0,111.92,141.38Z" transform="translate(1.43 -22.61)"/><path class="cls-5" d="M114.25,141.38a3.2,3.2,0,0,1,.13-1,1.2,1.2,0,0,1,.39-.59,1,1,0,0,1,.64-.21,1,1,0,0,1,.51.11,1.06,1.06,0,0,1,.36.34,1.73,1.73,0,0,1,.22.53,3.72,3.72,0,0,1,.08.84,3.2,3.2,0,0,1-.13,1,1.22,1.22,0,0,1-.38.6,1,1,0,0,1-.66.21,1,1,0,0,1-.81-.37A2.41,2.41,0,0,1,114.25,141.38Zm.45,0a2.25,2.25,0,0,0,.21,1.18.58.58,0,0,0,1,0,2.25,2.25,0,0,0,.21-1.18,2.18,2.18,0,0,0-.21-1.17.61.61,0,0,0-.51-.29.54.54,0,0,0-.48.26A2.15,2.15,0,0,0,114.7,141.38Z" transform="translate(1.43 -22.61)"/><path class="cls-5" d="M95.25,143.15v-.86H93.7v-.4l1.63-2.32h.36v2.32h.49v.4h-.49v.86Zm0-1.26v-1.61l-1.12,1.61Z" transform="translate(1.43 -22.61)"/><path class="cls-5" d="M96.62,142.21l.47,0a.81.81,0,0,0,.23.51.68.68,0,0,0,.45.17.7.7,0,0,0,.54-.24.88.88,0,0,0,.22-.63.84.84,0,0,0-.21-.6.74.74,0,0,0-.55-.21.86.86,0,0,0-.39.09.78.78,0,0,0-.26.25l-.42,0,.35-1.84h1.78V140H97.4l-.19,1a1.14,1.14,0,0,1,.67-.22,1.11,1.11,0,0,1,.8.32,1.17,1.17,0,0,1,.32.84,1.32,1.32,0,0,1-.29.84,1.13,1.13,0,0,1-.94.43,1.15,1.15,0,0,1-.79-.27A1.07,1.07,0,0,1,96.62,142.21Z" transform="translate(1.43 -22.61)"/><path class="cls-5" d="M99.41,141.38a3.2,3.2,0,0,1,.13-1,1.24,1.24,0,0,1,.38-.59,1,1,0,0,1,.65-.21.95.95,0,0,1,.87.45,2,2,0,0,1,.22.53,3.72,3.72,0,0,1,.08.84,3.2,3.2,0,0,1-.13,1,1.31,1.31,0,0,1-.39.6,1,1,0,0,1-.65.21,1,1,0,0,1-.81-.37A2.34,2.34,0,0,1,99.41,141.38Zm.45,0a2.38,2.38,0,0,0,.2,1.18.59.59,0,0,0,1,0,2.25,2.25,0,0,0,.21-1.18,2.2,2.2,0,0,0-.21-1.17.62.62,0,0,0-.51-.29.58.58,0,0,0-.49.26A2.26,2.26,0,0,0,99.86,141.38Z" transform="translate(1.43 -22.61)"/><path class="cls-5" d="M102.22,141.38a3.2,3.2,0,0,1,.13-1,1.24,1.24,0,0,1,.38-.59,1,1,0,0,1,.65-.21.95.95,0,0,1,.87.45,1.73,1.73,0,0,1,.22.53,3.72,3.72,0,0,1,.08.84,3.2,3.2,0,0,1-.13,1,1.31,1.31,0,0,1-.39.6,1,1,0,0,1-.65.21,1,1,0,0,1-.81-.37A2.34,2.34,0,0,1,102.22,141.38Zm.45,0a2.38,2.38,0,0,0,.2,1.18.59.59,0,0,0,1,0,2.25,2.25,0,0,0,.21-1.18,2.2,2.2,0,0,0-.21-1.17.62.62,0,0,0-.51-.29.59.59,0,0,0-.49.26A2.26,2.26,0,0,0,102.67,141.38Z" transform="translate(1.43 -22.61)"/><polyline class="cls-6" points="19.86 20.09 51.16 20.09 101.5 76.57 110.56 82.22"/><path class="cls-5" d="M17.24,141.38a3.52,3.52,0,0,1,.13-1,1.28,1.28,0,0,1,.39-.59,1.14,1.14,0,0,1,1.15-.1.9.9,0,0,1,.36.34,1.73,1.73,0,0,1,.23.53,3.72,3.72,0,0,1,.08.84,3.52,3.52,0,0,1-.13,1,1.31,1.31,0,0,1-.39.6,1,1,0,0,1-.65.21,1,1,0,0,1-.81-.37A2.33,2.33,0,0,1,17.24,141.38Zm.45,0a2.25,2.25,0,0,0,.21,1.18.59.59,0,0,0,1,0,2.27,2.27,0,0,0,.2-1.18,2.2,2.2,0,0,0-.2-1.17.63.63,0,0,0-.52-.29.54.54,0,0,0-.48.26A2.24,2.24,0,0,0,17.69,141.38Z" transform="translate(1.43 -22.61)"/><path class="cls-5" d="M41.64,143.15H41.2v-2.8a1.9,1.9,0,0,1-.42.3,2.81,2.81,0,0,1-.46.23v-.43A2.42,2.42,0,0,0,41,140a1.76,1.76,0,0,0,.39-.47h.28Z" transform="translate(1.43 -22.61)"/><path class="cls-5" d="M42.8,142.21l.46,0a.77.77,0,0,0,.24.51.64.64,0,0,0,.45.17.68.68,0,0,0,.53-.24.88.88,0,0,0,.22-.63.83.83,0,0,0-.21-.6.75.75,0,0,0-.55-.22.8.8,0,0,0-.38.1.73.73,0,0,0-.27.25l-.42,0,.35-1.84H45V140H43.57l-.19,1a1.15,1.15,0,0,1,.68-.22,1.06,1.06,0,0,1,.79.32,1.17,1.17,0,0,1,.32.84,1.37,1.37,0,0,1-.28.84,1.14,1.14,0,0,1-.94.43,1.16,1.16,0,0,1-.8-.27A1.08,1.08,0,0,1,42.8,142.21Z" transform="translate(1.43 -22.61)"/><path class="cls-5" d="M45.55,141.38a3.2,3.2,0,0,1,.13-1,1.14,1.14,0,0,1,.39-.59,1,1,0,0,1,.64-.21,1,1,0,0,1,.51.11,1.06,1.06,0,0,1,.36.34,1.73,1.73,0,0,1,.22.53,3.72,3.72,0,0,1,.08.84,3.2,3.2,0,0,1-.13,1,1.23,1.23,0,0,1-.39.6,1.09,1.09,0,0,1-1.46-.16A2.34,2.34,0,0,1,45.55,141.38Zm.45,0a2.38,2.38,0,0,0,.2,1.18.62.62,0,0,0,.51.29.6.6,0,0,0,.51-.29,2.25,2.25,0,0,0,.21-1.18,2.18,2.18,0,0,0-.21-1.17.61.61,0,0,0-.51-.29.54.54,0,0,0-.48.26A2.15,2.15,0,0,0,46,141.38Z" transform="translate(1.43 -22.61)"/><path class="cls-5" d="M48.36,141.38a3.2,3.2,0,0,1,.13-1,1.2,1.2,0,0,1,.39-.59,1,1,0,0,1,.64-.21,1,1,0,0,1,.51.11,1.06,1.06,0,0,1,.36.34,1.73,1.73,0,0,1,.22.53,3.72,3.72,0,0,1,.08.84,3.2,3.2,0,0,1-.13,1,1.22,1.22,0,0,1-.38.6,1,1,0,0,1-.66.21,1,1,0,0,1-.81-.37A2.41,2.41,0,0,1,48.36,141.38Zm.45,0a2.25,2.25,0,0,0,.21,1.18.58.58,0,0,0,1,0,2.25,2.25,0,0,0,.21-1.18,2.18,2.18,0,0,0-.21-1.17.61.61,0,0,0-.51-.29.54.54,0,0,0-.48.26A2.15,2.15,0,0,0,48.81,141.38Z" transform="translate(1.43 -22.61)"/><path class="cls-5" d="M67.29,142.2l.44,0a.94.94,0,0,0,.26.53.64.64,0,0,0,.44.17.69.69,0,0,0,.53-.22.72.72,0,0,0,.21-.53.65.65,0,0,0-.2-.5.66.66,0,0,0-.5-.19,1,1,0,0,0-.31.05l0-.39h.07a.89.89,0,0,0,.51-.14.5.5,0,0,0,.22-.45.52.52,0,0,0-.16-.4.57.57,0,0,0-.42-.16.57.57,0,0,0-.43.16.77.77,0,0,0-.22.48l-.44-.08a1,1,0,0,1,1.08-.92,1.18,1.18,0,0,1,.53.12.91.91,0,0,1,.38.34.88.88,0,0,1,.13.47.79.79,0,0,1-.12.42.8.8,0,0,1-.37.3.82.82,0,0,1,.49.3.93.93,0,0,1,.18.58,1.1,1.1,0,0,1-.34.8,1.24,1.24,0,0,1-.87.32,1.12,1.12,0,0,1-.78-.28A1.07,1.07,0,0,1,67.29,142.2Z" transform="translate(1.43 -22.61)"/><path class="cls-5" d="M70.1,141.38a3.52,3.52,0,0,1,.13-1,1.28,1.28,0,0,1,.39-.59,1,1,0,0,1,.65-.21,1.06,1.06,0,0,1,.51.11,1,1,0,0,1,.35.34,1.73,1.73,0,0,1,.23.53,3.72,3.72,0,0,1,.08.84,3.52,3.52,0,0,1-.13,1,1.31,1.31,0,0,1-.39.6,1,1,0,0,1-.65.21,1,1,0,0,1-.81-.37A2.33,2.33,0,0,1,70.1,141.38Zm.45,0a2.25,2.25,0,0,0,.21,1.18.59.59,0,0,0,1,0,2.25,2.25,0,0,0,.21-1.18,2.18,2.18,0,0,0-.21-1.17.62.62,0,0,0-.51-.29.55.55,0,0,0-.49.26A2.24,2.24,0,0,0,70.55,141.38Z" transform="translate(1.43 -22.61)"/><path class="cls-5" d="M72.85,141.38a3.52,3.52,0,0,1,.13-1,1.28,1.28,0,0,1,.39-.59,1,1,0,0,1,.65-.21.95.95,0,0,1,.87.45,2,2,0,0,1,.22.53,3.72,3.72,0,0,1,.08.84,3.52,3.52,0,0,1-.13,1,1.31,1.31,0,0,1-.39.6,1,1,0,0,1-.65.21,1,1,0,0,1-.81-.37A2.33,2.33,0,0,1,72.85,141.38Zm.46,0a2.27,2.27,0,0,0,.2,1.18.59.59,0,0,0,1,0,2.25,2.25,0,0,0,.21-1.18,2.18,2.18,0,0,0-.21-1.17.62.62,0,0,0-.51-.29.55.55,0,0,0-.49.26A2.26,2.26,0,0,0,73.31,141.38Z" transform="translate(1.43 -22.61)"/><path class="cls-5" d="M75.66,141.38a3.52,3.52,0,0,1,.13-1,1.28,1.28,0,0,1,.39-.59,1,1,0,0,1,.65-.21.95.95,0,0,1,.87.45,2,2,0,0,1,.22.53,3.72,3.72,0,0,1,.08.84,3.2,3.2,0,0,1-.13,1,1.31,1.31,0,0,1-.39.6,1,1,0,0,1-.65.21,1,1,0,0,1-.81-.37A2.33,2.33,0,0,1,75.66,141.38Zm.46,0a2.27,2.27,0,0,0,.2,1.18.59.59,0,0,0,1,0,2.25,2.25,0,0,0,.21-1.18,2.18,2.18,0,0,0-.21-1.17.62.62,0,0,0-.51-.29.55.55,0,0,0-.49.26A2.26,2.26,0,0,0,76.12,141.38Z" transform="translate(1.43 -22.61)"/><rect class="繝後Μ_逋ｽ-2" x="110.56" y="1.48" width="2.83" height="113.39"/><rect class="繝後Μ_逋ｽ-2" x="17.02" y="1.48" width="2.83" height="113.39"/><rect class="邱喟0.5pt" x="19.86" y="1.48" width="90.71" height="113.39"/><polyline class="cls-4" points="19.86 20.09 48.89 20.09 101.5 79.13 110.56 84.37"/><path class="cls-5" d="M10.23,137.53a3.2,3.2,0,0,1,.13-1,1.31,1.31,0,0,1,.39-.6,1.11,1.11,0,0,1,1.15-.09,1,1,0,0,1,.36.33,1.65,1.65,0,0,1,.22.54,4.23,4.23,0,0,1-.05,1.86,1.22,1.22,0,0,1-.38.6,1,1,0,0,1-.65.21,1,1,0,0,1-.82-.37A2.43,2.43,0,0,1,10.23,137.53Zm.45,0a2.25,2.25,0,0,0,.21,1.18.62.62,0,0,0,.51.29.61.61,0,0,0,.51-.3,3.52,3.52,0,0,0,0-2.34.6.6,0,0,0-.52-.29.56.56,0,0,0-.48.25A2.28,2.28,0,0,0,10.68,137.53Z" transform="translate(1.43 -22.61)"/><path class="cls-5" d="M13.29,139.3v-.5h.5v.5Z" transform="translate(1.43 -22.61)"/><path class="cls-5" d="M14.43,137.53a3.17,3.17,0,0,1,.14-1,1.22,1.22,0,0,1,.38-.6,1,1,0,0,1,.65-.21,1.07,1.07,0,0,1,.51.12,1.13,1.13,0,0,1,.36.33,2.25,2.25,0,0,1,.22.54,3.72,3.72,0,0,1,.08.84,3.2,3.2,0,0,1-.13,1,1.31,1.31,0,0,1-.39.6,1,1,0,0,1-.65.21,1,1,0,0,1-.81-.37A2.35,2.35,0,0,1,14.43,137.53Zm.46,0a2.38,2.38,0,0,0,.2,1.18.62.62,0,0,0,.51.29.61.61,0,0,0,.51-.3,3.36,3.36,0,0,0,0-2.34.6.6,0,0,0-.51-.29.57.57,0,0,0-.49.25A2.3,2.3,0,0,0,14.89,137.53Z" transform="translate(1.43 -22.61)"/><path class="cls-5" d="M9.13,125.16H8.7v-2.8a2.54,2.54,0,0,1-.42.3,2.45,2.45,0,0,1-.46.23v-.42a3,3,0,0,0,.64-.42,2,2,0,0,0,.39-.48h.28Z" transform="translate(1.43 -22.61)"/><path class="cls-5" d="M10.29,123.4a3.12,3.12,0,0,1,.13-1,1.31,1.31,0,0,1,.39-.6,1,1,0,0,1,.65-.21,1.12,1.12,0,0,1,.5.11.9.9,0,0,1,.36.34,1.51,1.51,0,0,1,.22.53,3.25,3.25,0,0,1,.08.85,3.09,3.09,0,0,1-.13,1,1.22,1.22,0,0,1-.38.6,1.1,1.1,0,0,1-1.47-.16A2.39,2.39,0,0,1,10.29,123.4Zm.45,0a2.2,2.2,0,0,0,.21,1.17.59.59,0,0,0,1,0,3.55,3.55,0,0,0,0-2.35.63.63,0,0,0-.52-.29.56.56,0,0,0-.48.26A2.28,2.28,0,0,0,10.74,123.4Z" transform="translate(1.43 -22.61)"/><path class="cls-5" d="M13.29,125.16v-.5h.5v.5Z" transform="translate(1.43 -22.61)"/><path class="cls-5" d="M14.43,123.4a3.09,3.09,0,0,1,.14-1,1.22,1.22,0,0,1,.38-.6,1,1,0,0,1,.65-.21,1.19,1.19,0,0,1,.51.11,1.06,1.06,0,0,1,.36.34,2,2,0,0,1,.22.53,3.76,3.76,0,0,1,.08.85,3.09,3.09,0,0,1-.13,1,1.31,1.31,0,0,1-.39.6,1,1,0,0,1-.65.21,1,1,0,0,1-.81-.37A2.32,2.32,0,0,1,14.43,123.4Zm.46,0a2.34,2.34,0,0,0,.2,1.17.59.59,0,0,0,1,0,3.39,3.39,0,0,0,0-2.35.62.62,0,0,0-.51-.29.58.58,0,0,0-.49.26A2.3,2.3,0,0,0,14.89,123.4Z" transform="translate(1.43 -22.61)"/><path class="cls-5" d="M9.79,110.6V111H7.42a1,1,0,0,1,0-.3,1.76,1.76,0,0,1,.29-.48,5.4,5.4,0,0,1,.58-.54,4.87,4.87,0,0,0,.79-.76,1,1,0,0,0,.2-.53.6.6,0,0,0-.18-.44.69.69,0,0,0-.49-.18.73.73,0,0,0-.51.19.72.72,0,0,0-.19.53l-.45-.05a1.09,1.09,0,0,1,.35-.77,1.21,1.21,0,0,1,.81-.26,1.13,1.13,0,0,1,.81.28.94.94,0,0,1,.3.71,1.16,1.16,0,0,1-.08.42,1.57,1.57,0,0,1-.3.44,7.63,7.63,0,0,1-.67.63,5.24,5.24,0,0,0-.51.45,1.33,1.33,0,0,0-.19.24Z" transform="translate(1.43 -22.61)"/><path class="cls-5" d="M10.29,109.26a3.12,3.12,0,0,1,.13-1,1.31,1.31,0,0,1,.39-.6,1,1,0,0,1,.65-.21,1.12,1.12,0,0,1,.5.11.9.9,0,0,1,.36.34,1.51,1.51,0,0,1,.22.53,3.25,3.25,0,0,1,.08.85,3.09,3.09,0,0,1-.13,1,1.22,1.22,0,0,1-.38.6,1.1,1.1,0,0,1-1.47-.16A2.39,2.39,0,0,1,10.29,109.26Zm.45,0a2.2,2.2,0,0,0,.21,1.17.6.6,0,0,0,.51.29.62.62,0,0,0,.51-.29,3.55,3.55,0,0,0,0-2.35.63.63,0,0,0-.52-.29.56.56,0,0,0-.48.26A2.28,2.28,0,0,0,10.74,109.26Z" transform="translate(1.43 -22.61)"/><path class="cls-5" d="M13.29,111v-.5h.5v.5Z" transform="translate(1.43 -22.61)"/><path class="cls-5" d="M14.43,109.26a3.09,3.09,0,0,1,.14-1,1.22,1.22,0,0,1,.38-.6,1,1,0,0,1,.65-.21,1.19,1.19,0,0,1,.51.11,1.06,1.06,0,0,1,.36.34,2,2,0,0,1,.22.53,3.76,3.76,0,0,1,.08.85,3.09,3.09,0,0,1-.13,1,1.31,1.31,0,0,1-.39.6,1,1,0,0,1-.65.21,1,1,0,0,1-.81-.37A2.32,2.32,0,0,1,14.43,109.26Zm.46,0a2.34,2.34,0,0,0,.2,1.17.6.6,0,0,0,.51.29.62.62,0,0,0,.51-.29,3.39,3.39,0,0,0,0-2.35.62.62,0,0,0-.51-.29.58.58,0,0,0-.49.26A2.3,2.3,0,0,0,14.89,109.26Z" transform="translate(1.43 -22.61)"/><path class="cls-5" d="M7.48,95.94l.44-.06a1,1,0,0,0,.26.54.64.64,0,0,0,.44.17.75.75,0,0,0,.53-.22.72.72,0,0,0,.21-.53.68.68,0,0,0-.7-.7,1.4,1.4,0,0,0-.31,0l.05-.38h.07a.87.87,0,0,0,.5-.15.49.49,0,0,0,.23-.45.54.54,0,0,0-.17-.4.59.59,0,0,0-.42-.16.65.65,0,0,0-.43.16A.83.83,0,0,0,8,94.3l-.44-.08a1.13,1.13,0,0,1,.36-.69,1.18,1.18,0,0,1,1.25-.11.9.9,0,0,1,.38.34.87.87,0,0,1,.13.46.74.74,0,0,1-.12.42,1,1,0,0,1-.37.31.86.86,0,0,1,.49.3.91.91,0,0,1,.18.58,1,1,0,0,1-.35.79,1.17,1.17,0,0,1-.86.33,1.1,1.1,0,0,1-1.14-1Z" transform="translate(1.43 -22.61)"/><path class="cls-5" d="M10.29,95.12a3.2,3.2,0,0,1,.13-1,1.31,1.31,0,0,1,.39-.6A1.11,1.11,0,0,1,12,93.41a.88.88,0,0,1,.36.33,1.69,1.69,0,0,1,.22.53,3.3,3.3,0,0,1,.08.85,3.2,3.2,0,0,1-.13,1,1.19,1.19,0,0,1-.38.59,1,1,0,0,1-.65.22,1,1,0,0,1-.82-.37A2.43,2.43,0,0,1,10.29,95.12Zm.45,0A2.18,2.18,0,0,0,11,96.29a.58.58,0,0,0,1,0A3.52,3.52,0,0,0,12,94a.6.6,0,0,0-.52-.29.56.56,0,0,0-.48.25A2.28,2.28,0,0,0,10.74,95.12Z" transform="translate(1.43 -22.61)"/><path class="cls-5" d="M13.29,96.89v-.51h.5v.51Z" transform="translate(1.43 -22.61)"/><path class="cls-5" d="M14.43,95.12a3.17,3.17,0,0,1,.14-1,1.22,1.22,0,0,1,.38-.6,1,1,0,0,1,.65-.21,1.07,1.07,0,0,1,.51.12,1,1,0,0,1,.36.33,2.35,2.35,0,0,1,.22.53,3.82,3.82,0,0,1,.08.85,3.2,3.2,0,0,1-.13,1,1.28,1.28,0,0,1-.39.59,1,1,0,0,1-.65.22,1,1,0,0,1-.81-.37A2.35,2.35,0,0,1,14.43,95.12Zm.46,0a2.31,2.31,0,0,0,.2,1.17.58.58,0,0,0,1,0,3.36,3.36,0,0,0,0-2.34.6.6,0,0,0-.51-.29.57.57,0,0,0-.49.25A2.3,2.3,0,0,0,14.89,95.12Z" transform="translate(1.43 -22.61)"/><path class="cls-5" d="M8.89,82.75v-.86H7.34v-.4L9,79.17h.36v2.32h.48v.4H9.33v.86Zm0-1.26V79.88L7.77,81.49Z" transform="translate(1.43 -22.61)"/><path class="cls-5" d="M10.29,81a3.23,3.23,0,0,1,.13-1,1.33,1.33,0,0,1,.39-.59,1,1,0,0,1,.65-.21,1.12,1.12,0,0,1,.5.11.9.9,0,0,1,.36.34,1.51,1.51,0,0,1,.22.53,3.25,3.25,0,0,1,.08.85,3.14,3.14,0,0,1-.13,1,1.22,1.22,0,0,1-.38.6,1.1,1.1,0,0,1-1.47-.16A2.39,2.39,0,0,1,10.29,81Zm.45,0A2.23,2.23,0,0,0,11,82.16a.59.59,0,0,0,1,0,3.55,3.55,0,0,0,0-2.35.63.63,0,0,0-.52-.29.56.56,0,0,0-.48.26A2.28,2.28,0,0,0,10.74,81Z" transform="translate(1.43 -22.61)"/><path class="cls-5" d="M13.29,82.75v-.5h.5v.5Z" transform="translate(1.43 -22.61)"/><path class="cls-5" d="M14.43,81a3.19,3.19,0,0,1,.14-1,1.24,1.24,0,0,1,.38-.59,1,1,0,0,1,.65-.21,1.19,1.19,0,0,1,.51.11,1.06,1.06,0,0,1,.36.34,2,2,0,0,1,.22.53,3.76,3.76,0,0,1,.08.85,3.14,3.14,0,0,1-.13,1,1.31,1.31,0,0,1-.39.6,1,1,0,0,1-.65.21,1,1,0,0,1-.81-.37A2.32,2.32,0,0,1,14.43,81Zm.46,0a2.36,2.36,0,0,0,.2,1.17.59.59,0,0,0,1,0,3.39,3.39,0,0,0,0-2.35.62.62,0,0,0-.51-.29.58.58,0,0,0-.49.26A2.3,2.3,0,0,0,14.89,81Z" transform="translate(1.43 -22.61)"/><path class="cls-5" d="M7.48,67.68l.46,0a.82.82,0,0,0,.24.51.64.64,0,0,0,.45.16.74.74,0,0,0,.54-.23,1,1,0,0,0,.22-.64.8.8,0,0,0-.21-.59.75.75,0,0,0-.56-.22.7.7,0,0,0-.38.1A.65.65,0,0,0,8,67l-.41-.06.34-1.84H9.68v.42H8.26l-.2,1a1.18,1.18,0,0,1,.68-.23,1.06,1.06,0,0,1,.79.33,1.09,1.09,0,0,1,.32.83,1.27,1.27,0,0,1-.28.84,1.14,1.14,0,0,1-.94.44,1.18,1.18,0,0,1-.8-.28A1.08,1.08,0,0,1,7.48,67.68Z" transform="translate(1.43 -22.61)"/><path class="cls-5" d="M10.29,66.85a3.2,3.2,0,0,1,.13-1,1.31,1.31,0,0,1,.39-.6A1.11,1.11,0,0,1,12,65.14a.88.88,0,0,1,.36.33,1.6,1.6,0,0,1,.22.53,3.25,3.25,0,0,1,.08.85,3.2,3.2,0,0,1-.13,1,1.24,1.24,0,0,1-.38.59,1,1,0,0,1-.65.22,1,1,0,0,1-.82-.38A2.37,2.37,0,0,1,10.29,66.85Zm.45,0A2.18,2.18,0,0,0,11,68a.59.59,0,0,0,1,0,3.52,3.52,0,0,0,0-2.34.61.61,0,0,0-.52-.3.56.56,0,0,0-.48.26A2.28,2.28,0,0,0,10.74,66.85Z" transform="translate(1.43 -22.61)"/><path class="cls-5" d="M13.29,68.61v-.5h.5v.5Z" transform="translate(1.43 -22.61)"/><path class="cls-5" d="M14.43,66.85a3.17,3.17,0,0,1,.14-1,1.22,1.22,0,0,1,.38-.6A1,1,0,0,1,15.6,65a1.07,1.07,0,0,1,.51.12,1,1,0,0,1,.36.33,2.17,2.17,0,0,1,.22.53,3.76,3.76,0,0,1,.08.85,3.2,3.2,0,0,1-.13,1,1.33,1.33,0,0,1-.39.59,1,1,0,0,1-.65.22,1,1,0,0,1-.81-.38A2.3,2.3,0,0,1,14.43,66.85Zm.46,0a2.31,2.31,0,0,0,.2,1.17.59.59,0,0,0,1,0,3.36,3.36,0,0,0,0-2.34.61.61,0,0,0-.51-.3.58.58,0,0,0-.49.26A2.3,2.3,0,0,0,14.89,66.85Z" transform="translate(1.43 -22.61)"/><path class="cls-5" d="M9.76,51.77l-.44,0a.9.9,0,0,0-.16-.38.61.61,0,0,0-.44-.19.59.59,0,0,0-.37.12A1,1,0,0,0,8,51.8a2.28,2.28,0,0,0-.12.83,1,1,0,0,1,.39-.36,1,1,0,0,1,.48-.12,1,1,0,0,1,.74.33,1.12,1.12,0,0,1,.31.83,1.46,1.46,0,0,1-.14.63,1.07,1.07,0,0,1-.4.44,1,1,0,0,1-.58.16,1.12,1.12,0,0,1-.89-.41,2,2,0,0,1-.35-1.33,2.44,2.44,0,0,1,.38-1.51,1.13,1.13,0,0,1,.9-.41,1,1,0,0,1,.7.24A1,1,0,0,1,9.76,51.77ZM8,53.32a1.07,1.07,0,0,0,.09.43.86.86,0,0,0,.27.32.72.72,0,0,0,.37.11A.61.61,0,0,0,9.17,54a.85.85,0,0,0,.2-.61.81.81,0,0,0-.19-.58.65.65,0,0,0-.5-.22.67.67,0,0,0-.51.22A.76.76,0,0,0,8,53.32Z" transform="translate(1.43 -22.61)"/><path class="cls-5" d="M10.29,52.71a3.2,3.2,0,0,1,.13-1,1.31,1.31,0,0,1,.39-.6A1.11,1.11,0,0,1,12,51a1,1,0,0,1,.36.33,1.69,1.69,0,0,1,.22.53,3.3,3.3,0,0,1,.08.85,3.2,3.2,0,0,1-.13,1,1.22,1.22,0,0,1-.38.6,1,1,0,0,1-.65.21,1,1,0,0,1-.82-.37A2.43,2.43,0,0,1,10.29,52.71Zm.45,0A2.18,2.18,0,0,0,11,53.88a.58.58,0,0,0,1,0,3.52,3.52,0,0,0,0-2.34.6.6,0,0,0-.52-.29.56.56,0,0,0-.48.25A2.28,2.28,0,0,0,10.74,52.71Z" transform="translate(1.43 -22.61)"/><path class="cls-5" d="M13.29,54.48V54h.5v.5Z" transform="translate(1.43 -22.61)"/><path class="cls-5" d="M14.43,52.71a3.17,3.17,0,0,1,.14-1,1.22,1.22,0,0,1,.38-.6,1,1,0,0,1,.65-.21,1.07,1.07,0,0,1,.51.12,1.13,1.13,0,0,1,.36.33,2.35,2.35,0,0,1,.22.53,3.82,3.82,0,0,1,.08.85,3.2,3.2,0,0,1-.13,1,1.31,1.31,0,0,1-.39.6,1,1,0,0,1-.65.21,1,1,0,0,1-.81-.37A2.35,2.35,0,0,1,14.43,52.71Zm.46,0a2.31,2.31,0,0,0,.2,1.17.58.58,0,0,0,1,0,3.36,3.36,0,0,0,0-2.34.6.6,0,0,0-.51-.29.57.57,0,0,0-.49.25A2.3,2.3,0,0,0,14.89,52.71Z" transform="translate(1.43 -22.61)"/><path class="cls-5" d="M7.51,37.23v-.42H9.83v.34a4.57,4.57,0,0,0-.68,1,5.74,5.74,0,0,0-.52,1.24,4.86,4.86,0,0,0-.17,1H8a4,4,0,0,1,.17-1,5.26,5.26,0,0,1,1.08-2.09Z" transform="translate(1.43 -22.61)"/><path class="cls-5" d="M10.29,38.57a3.2,3.2,0,0,1,.13-1,1.31,1.31,0,0,1,.39-.6A1.11,1.11,0,0,1,12,36.86a1,1,0,0,1,.36.33,1.65,1.65,0,0,1,.22.54,4.23,4.23,0,0,1,0,1.86,1.22,1.22,0,0,1-.38.6A1.1,1.1,0,0,1,10.64,40,2.41,2.41,0,0,1,10.29,38.57Zm.45,0A2.25,2.25,0,0,0,11,39.75a.62.62,0,0,0,.51.29.61.61,0,0,0,.51-.3,2.31,2.31,0,0,0,.2-1.17A2.31,2.31,0,0,0,12,37.4a.6.6,0,0,0-.52-.29.56.56,0,0,0-.48.25A2.31,2.31,0,0,0,10.74,38.57Z" transform="translate(1.43 -22.61)"/><path class="cls-5" d="M13.29,40.34v-.5h.5v.5Z" transform="translate(1.43 -22.61)"/><path class="cls-5" d="M14.43,38.57a3.17,3.17,0,0,1,.14-1A1.22,1.22,0,0,1,15,37a1,1,0,0,1,.65-.21,1.07,1.07,0,0,1,.51.12,1.13,1.13,0,0,1,.36.33,2.25,2.25,0,0,1,.22.54,3.72,3.72,0,0,1,.08.84,3.2,3.2,0,0,1-.13,1,1.31,1.31,0,0,1-.39.6,1,1,0,0,1-.65.21,1,1,0,0,1-.81-.37A2.33,2.33,0,0,1,14.43,38.57Zm.46,0a2.38,2.38,0,0,0,.2,1.18.62.62,0,0,0,.51.29.61.61,0,0,0,.51-.3,2.18,2.18,0,0,0,.21-1.17,2.18,2.18,0,0,0-.21-1.17.6.6,0,0,0-.51-.29.57.57,0,0,0-.49.25A2.33,2.33,0,0,0,14.89,38.57Z" transform="translate(1.43 -22.61)"/><path class="cls-5" d="M8.16,24.26A.79.79,0,0,1,7.75,24a.75.75,0,0,1-.13-.45.83.83,0,0,1,.28-.65,1,1,0,0,1,.75-.27,1,1,0,0,1,.75.27.88.88,0,0,1,.29.66.79.79,0,0,1-.13.44.8.8,0,0,1-.4.28.93.93,0,0,1,.5.35.92.92,0,0,1,.17.57,1,1,0,0,1-.32.77,1.18,1.18,0,0,1-.86.31A1.17,1.17,0,0,1,7.8,26a1,1,0,0,1-.33-.78.87.87,0,0,1,.69-.91Zm-.23.91a.74.74,0,0,0,.09.36.59.59,0,0,0,.26.28.82.82,0,0,0,.38.09.69.69,0,0,0,.52-.2.67.67,0,0,0,.2-.51.72.72,0,0,0-.74-.74.69.69,0,0,0-.51.21A.67.67,0,0,0,7.93,25.17Zm.14-1.65a.53.53,0,0,0,.16.41.57.57,0,0,0,.43.16.54.54,0,0,0,.41-.16.5.5,0,0,0,.16-.39.54.54,0,0,0-.16-.4A.57.57,0,0,0,8.65,23a.57.57,0,0,0-.42.16A.53.53,0,0,0,8.07,23.52Z" transform="translate(1.43 -22.61)"/><path class="cls-5" d="M10.29,24.44a3.16,3.16,0,0,1,.13-1,1.31,1.31,0,0,1,.39-.6A1.11,1.11,0,0,1,12,22.73a.82.82,0,0,1,.36.33,1.6,1.6,0,0,1,.22.53,3.25,3.25,0,0,1,.08.85,3.2,3.2,0,0,1-.13,1,1.24,1.24,0,0,1-.38.59,1.1,1.1,0,0,1-1.47-.16A2.37,2.37,0,0,1,10.29,24.44Zm.45,0A2.18,2.18,0,0,0,11,25.61a.59.59,0,0,0,1,0,2.34,2.34,0,0,0,.2-1.17,2.38,2.38,0,0,0-.2-1.18.63.63,0,0,0-.52-.29.56.56,0,0,0-.48.26A2.28,2.28,0,0,0,10.74,24.44Z" transform="translate(1.43 -22.61)"/><path class="cls-5" d="M13.29,26.2v-.5h.5v.5Z" transform="translate(1.43 -22.61)"/><path class="cls-5" d="M14.43,24.44a3.13,3.13,0,0,1,.14-1,1.22,1.22,0,0,1,.38-.6,1,1,0,0,1,.65-.21,1.07,1.07,0,0,1,.51.12.94.94,0,0,1,.36.33,2.17,2.17,0,0,1,.22.53,3.76,3.76,0,0,1,.08.85,3.2,3.2,0,0,1-.13,1,1.33,1.33,0,0,1-.39.59,1,1,0,0,1-.65.21,1,1,0,0,1-.81-.37A2.3,2.3,0,0,1,14.43,24.44Zm.46,0a2.31,2.31,0,0,0,.2,1.17.59.59,0,0,0,1,0,2.2,2.2,0,0,0,.21-1.17,2.25,2.25,0,0,0-.21-1.18A.62.62,0,0,0,15.6,23a.58.58,0,0,0-.49.26A2.3,2.3,0,0,0,14.89,24.44Z" transform="translate(1.43 -22.61)"/></g><g id="English"><rect class="繝後Μ_逋ｽ-2" x="22.69" y="48.54" width="47.91" height="16.72"/><path class="cls-5" d="M24.47,76l.58-.05a1.32,1.32,0,0,0,.19.57,1,1,0,0,0,.47.36,1.81,1.81,0,0,0,.72.14,1.71,1.71,0,0,0,.62-.11.87.87,0,0,0,.4-.28.66.66,0,0,0,.13-.4.57.57,0,0,0-.13-.38,1,1,0,0,0-.41-.28c-.13,0-.41-.12-.83-.22a4,4,0,0,1-.9-.3,1.26,1.26,0,0,1-.5-.43,1,1,0,0,1-.16-.58,1.24,1.24,0,0,1,.2-.66,1.22,1.22,0,0,1,.58-.46,2.16,2.16,0,0,1,.86-.16,2.21,2.21,0,0,1,.91.17,1.35,1.35,0,0,1,.61.49,1.5,1.5,0,0,1,.23.73l-.59,0a1,1,0,0,0-.33-.66,1.24,1.24,0,0,0-.81-.23,1.27,1.27,0,0,0-.81.21.61.61,0,0,0-.26.49.51.51,0,0,0,.18.41,2.39,2.39,0,0,0,.93.33,7.15,7.15,0,0,1,1,.3,1.41,1.41,0,0,1,.6.48,1.14,1.14,0,0,1,.2.66,1.29,1.29,0,0,1-.22.7,1.34,1.34,0,0,1-.61.51,2.13,2.13,0,0,1-.9.18,2.67,2.67,0,0,1-1.05-.18A1.55,1.55,0,0,1,24.47,76Z" transform="translate(1.43 -22.61)"/><path class="cls-5" d="M28.94,77.53V72.88h.57v1.67a1.28,1.28,0,0,1,1-.46,1.33,1.33,0,0,1,.65.14.88.88,0,0,1,.4.41,1.88,1.88,0,0,1,.12.76v2.13h-.57V75.4a.91.91,0,0,0-.19-.63.68.68,0,0,0-.52-.19.91.91,0,0,0-.48.13.74.74,0,0,0-.32.36,1.66,1.66,0,0,0-.1.62v1.84Z" transform="translate(1.43 -22.61)"/><path class="cls-5" d="M32.35,75.85a1.73,1.73,0,0,1,.52-1.39,1.56,1.56,0,0,1,1.06-.37,1.51,1.51,0,0,1,1.13.45,1.7,1.7,0,0,1,.44,1.26,2.24,2.24,0,0,1-.19,1,1.39,1.39,0,0,1-.57.58,1.63,1.63,0,0,1-.81.21,1.49,1.49,0,0,1-1.15-.46A1.79,1.79,0,0,1,32.35,75.85Zm.58,0a1.44,1.44,0,0,0,.29,1,.9.9,0,0,0,.71.32.87.87,0,0,0,.7-.33,1.43,1.43,0,0,0,.29-1,1.38,1.38,0,0,0-.29-1,.91.91,0,0,0-.7-.32.87.87,0,0,0-.71.32A1.41,1.41,0,0,0,32.93,75.85Z" transform="translate(1.43 -22.61)"/><path class="cls-5" d="M36.17,77.53V74.16h.51v.51A1.41,1.41,0,0,1,37,74.2a.62.62,0,0,1,.37-.11,1.15,1.15,0,0,1,.59.18l-.2.53a.84.84,0,0,0-.42-.12.51.51,0,0,0-.33.11.65.65,0,0,0-.22.31,2.36,2.36,0,0,0-.09.67v1.76Z" transform="translate(1.43 -22.61)"/><path class="cls-5" d="M39.58,77l.09.51a2.47,2.47,0,0,1-.43,0,1.09,1.09,0,0,1-.49-.1.6.6,0,0,1-.24-.26,2.27,2.27,0,0,1-.07-.68V74.61H38v-.45h.42v-.83L39,73v1.18h.57v.45H39v2a1,1,0,0,0,0,.31.21.21,0,0,0,.1.11.34.34,0,0,0,.19,0A1.19,1.19,0,0,0,39.58,77Z" transform="translate(1.43 -22.61)"/><path class="cls-5" d="M39.92,76.14v-.58h1.76v.58Z" transform="translate(1.43 -22.61)"/><path class="cls-5" d="M44.49,77.53v-.42a1,1,0,0,1-.94.5,1.39,1.39,0,0,1-.74-.22,1.51,1.51,0,0,1-.52-.62,2.1,2.1,0,0,1-.19-.92,2.47,2.47,0,0,1,.17-.92,1.37,1.37,0,0,1,.5-.63,1.43,1.43,0,0,1,.76-.21,1.19,1.19,0,0,1,.54.12,1.17,1.17,0,0,1,.39.34V72.88H45v4.65Zm-1.8-1.68a1.5,1.5,0,0,0,.27,1,.84.84,0,0,0,.65.32.78.78,0,0,0,.63-.31,1.36,1.36,0,0,0,.26-.93,1.66,1.66,0,0,0-.26-1,.84.84,0,0,0-.66-.32.79.79,0,0,0-.64.31A1.54,1.54,0,0,0,42.69,75.85Z" transform="translate(1.43 -22.61)"/><path class="cls-5" d="M48.13,77.53V77a1.23,1.23,0,0,1-1.07.57,1.34,1.34,0,0,1-.56-.12.88.88,0,0,1-.38-.28,1.3,1.3,0,0,1-.18-.43,3.33,3.33,0,0,1,0-.53V74.16h.57V76a2.63,2.63,0,0,0,0,.6.61.61,0,0,0,.22.36.76.76,0,0,0,.44.13.92.92,0,0,0,.48-.14.68.68,0,0,0,.32-.35,1.94,1.94,0,0,0,.09-.66V74.16h.57v3.37Z" transform="translate(1.43 -22.61)"/><path class="cls-5" d="M49.53,77.53V74.16h.52v.51a1.41,1.41,0,0,1,.36-.47.6.6,0,0,1,.37-.11,1.12,1.12,0,0,1,.58.18l-.19.53a.84.84,0,0,0-.42-.12.51.51,0,0,0-.34.11.58.58,0,0,0-.21.31,2,2,0,0,0-.1.67v1.76Z" transform="translate(1.43 -22.61)"/><path class="cls-5" d="M53.9,77.12a2.17,2.17,0,0,1-.61.38,1.85,1.85,0,0,1-.63.11,1.22,1.22,0,0,1-.85-.27.91.91,0,0,1-.3-.7,1,1,0,0,1,.11-.45.87.87,0,0,1,.3-.33,1.38,1.38,0,0,1,.41-.18,4.17,4.17,0,0,1,.51-.09,5,5,0,0,0,1-.2,1.14,1.14,0,0,0,0-.15.67.67,0,0,0-.16-.49,1,1,0,0,0-.65-.19,1,1,0,0,0-.6.14.83.83,0,0,0-.28.5l-.56-.08a1.34,1.34,0,0,1,.25-.58,1.11,1.11,0,0,1,.5-.34,2.27,2.27,0,0,1,.77-.11,2,2,0,0,1,.7.1.92.92,0,0,1,.4.25.87.87,0,0,1,.17.39,3.08,3.08,0,0,1,0,.53v.76a6.89,6.89,0,0,0,0,1,1.19,1.19,0,0,0,.14.4H54A1.31,1.31,0,0,1,53.9,77.12Zm0-1.28a4.24,4.24,0,0,1-.93.22,2.25,2.25,0,0,0-.5.11.45.45,0,0,0-.22.19.5.5,0,0,0,.09.65.78.78,0,0,0,.51.15,1.21,1.21,0,0,0,.58-.14.86.86,0,0,0,.38-.4,1.41,1.41,0,0,0,.09-.57Z" transform="translate(1.43 -22.61)"/><path class="cls-5" d="M56.56,77l.09.51a2.47,2.47,0,0,1-.43,0,1.09,1.09,0,0,1-.49-.1.6.6,0,0,1-.24-.26,2.27,2.27,0,0,1-.07-.68V74.61H55v-.45h.42v-.83L56,73v1.18h.57v.45H56v2a1,1,0,0,0,0,.31.21.21,0,0,0,.1.11.34.34,0,0,0,.19,0A1.19,1.19,0,0,0,56.56,77Z" transform="translate(1.43 -22.61)"/><path class="cls-5" d="M57.13,73.54v-.66h.57v.66Zm0,4V74.16h.57v3.37Z" transform="translate(1.43 -22.61)"/><path class="cls-5" d="M58.35,75.85a1.76,1.76,0,0,1,.52-1.39,1.59,1.59,0,0,1,1.06-.37,1.51,1.51,0,0,1,1.14.45,1.7,1.7,0,0,1,.44,1.26,2.24,2.24,0,0,1-.19,1,1.39,1.39,0,0,1-.57.58,1.64,1.64,0,0,1-.82.21,1.48,1.48,0,0,1-1.14-.46A1.79,1.79,0,0,1,58.35,75.85Zm.59,0a1.5,1.5,0,0,0,.28,1,.93.93,0,0,0,.71.32.89.89,0,0,0,.71-.33,1.43,1.43,0,0,0,.29-1,1.38,1.38,0,0,0-.29-1,.91.91,0,0,0-.71-.32.9.9,0,0,0-.71.32A1.46,1.46,0,0,0,58.94,75.85Z" transform="translate(1.43 -22.61)"/><path class="cls-5" d="M62.18,77.53V74.16h.52v.48a1.19,1.19,0,0,1,1.07-.55,1.47,1.47,0,0,1,.56.1.89.89,0,0,1,.38.29,1,1,0,0,1,.18.42,3.51,3.51,0,0,1,0,.56v2.07h-.57v-2a1.38,1.38,0,0,0-.07-.52.53.53,0,0,0-.23-.28.77.77,0,0,0-.4-.1,1,1,0,0,0-.63.23,1.14,1.14,0,0,0-.27.88v1.84Z" transform="translate(1.43 -22.61)"/><path class="cls-5" d="M24.6,85.33V82h.52v.51a1.41,1.41,0,0,1,.36-.47.6.6,0,0,1,.37-.11,1.12,1.12,0,0,1,.58.18l-.19.53a.84.84,0,0,0-.42-.12.51.51,0,0,0-.34.11.58.58,0,0,0-.21.31,2,2,0,0,0-.1.67v1.76Z" transform="translate(1.43 -22.61)"/><path class="cls-5" d="M29,85.33v-.49a1.23,1.23,0,0,1-1.07.57,1.34,1.34,0,0,1-.56-.12A.88.88,0,0,1,27,85a1.3,1.3,0,0,1-.18-.43,3.33,3.33,0,0,1,0-.53V82h.57v1.87a2.63,2.63,0,0,0,0,.6.61.61,0,0,0,.22.36.76.76,0,0,0,.44.13.92.92,0,0,0,.48-.14.73.73,0,0,0,.32-.35,1.94,1.94,0,0,0,.09-.66V82h.57v3.37Z" transform="translate(1.43 -22.61)"/><path class="cls-5" d="M30.39,85.33V82h.51v.48A1.21,1.21,0,0,1,32,81.89a1.43,1.43,0,0,1,.56.1,1,1,0,0,1,.39.29,1.13,1.13,0,0,1,.17.42,3.21,3.21,0,0,1,0,.56v2.07h-.58v-2a1.67,1.67,0,0,0-.06-.52.6.6,0,0,0-.24-.28.72.72,0,0,0-.4-.1,1,1,0,0,0-.63.23,1.18,1.18,0,0,0-.26.88v1.84Z" transform="translate(1.43 -22.61)"/><path class="cls-5" d="M34,85.33V82h.52v.48a1.19,1.19,0,0,1,1.07-.55,1.47,1.47,0,0,1,.56.1.89.89,0,0,1,.38.29,1,1,0,0,1,.18.42,3.51,3.51,0,0,1,0,.56v2.07h-.57v-2a1.38,1.38,0,0,0-.07-.52.53.53,0,0,0-.23-.28.77.77,0,0,0-.4-.1.94.94,0,0,0-.63.23,1.14,1.14,0,0,0-.27.88v1.84Z" transform="translate(1.43 -22.61)"/><path class="cls-5" d="M37.62,81.34v-.66h.57v.66Zm0,4V82h.57v3.37Z" transform="translate(1.43 -22.61)"/><path class="cls-5" d="M39.06,85.33V82h.52v.48a1.19,1.19,0,0,1,1.07-.55,1.47,1.47,0,0,1,.56.1.89.89,0,0,1,.38.29,1.14,1.14,0,0,1,.18.42,3.51,3.51,0,0,1,0,.56v2.07h-.57v-2a1.38,1.38,0,0,0-.07-.52.5.5,0,0,0-.24-.28.71.71,0,0,0-.39-.1.92.92,0,0,0-.63.23,1.14,1.14,0,0,0-.27.88v1.84Z" transform="translate(1.43 -22.61)"/><path class="cls-5" d="M42.57,85.61l.56.08a.5.5,0,0,0,.19.38,1,1,0,0,0,.58.16,1,1,0,0,0,.61-.16.79.79,0,0,0,.3-.45,3.76,3.76,0,0,0,0-.73,1.19,1.19,0,0,1-.94.44,1.27,1.27,0,0,1-1.07-.5,1.87,1.87,0,0,1-.38-1.2,2.35,2.35,0,0,1,.17-.89,1.46,1.46,0,0,1,.51-.63,1.35,1.35,0,0,1,.78-.22,1.22,1.22,0,0,1,1,.48V82h.53v2.91A2.9,2.9,0,0,1,45.27,86a1.22,1.22,0,0,1-.51.52,1.74,1.74,0,0,1-.86.19,1.61,1.61,0,0,1-1-.27A.92.92,0,0,1,42.57,85.61Zm.47-2a1.41,1.41,0,0,0,.27,1,.81.81,0,0,0,.66.31.85.85,0,0,0,.66-.3,1.82,1.82,0,0,0,0-1.89.83.83,0,0,0-.66-.31.81.81,0,0,0-.65.31A1.35,1.35,0,0,0,43,83.59Z" transform="translate(1.43 -22.61)"/><path class="cls-5" d="M48.09,85.33V82h.51v.51A1.55,1.55,0,0,1,49,82a.59.59,0,0,1,.36-.11,1.12,1.12,0,0,1,.59.18l-.19.53a.84.84,0,0,0-.42-.12.51.51,0,0,0-.34.11.58.58,0,0,0-.21.31,2,2,0,0,0-.1.67v1.76Z" transform="translate(1.43 -22.61)"/><path class="cls-5" d="M52.46,84.92a2.17,2.17,0,0,1-.61.38,1.9,1.9,0,0,1-.63.11,1.2,1.2,0,0,1-.85-.27.91.91,0,0,1-.3-.7.88.88,0,0,1,.11-.45.87.87,0,0,1,.3-.33,1.28,1.28,0,0,1,.41-.18,4.31,4.31,0,0,1,.5-.09,5,5,0,0,0,1-.2,1.14,1.14,0,0,0,0-.15.63.63,0,0,0-.17-.49.94.94,0,0,0-.65-.19,1,1,0,0,0-.59.14.89.89,0,0,0-.29.5l-.55-.08a1.34,1.34,0,0,1,.25-.58,1.11,1.11,0,0,1,.5-.34,2.27,2.27,0,0,1,.77-.11,2,2,0,0,1,.7.1.82.82,0,0,1,.39.25.79.79,0,0,1,.18.39,3.08,3.08,0,0,1,0,.53v.76a6.89,6.89,0,0,0,0,1,1.19,1.19,0,0,0,.14.4h-.59A1.31,1.31,0,0,1,52.46,84.92Zm-.05-1.28a4.24,4.24,0,0,1-.93.22A2.25,2.25,0,0,0,51,84a.41.41,0,0,0-.22.19.43.43,0,0,0-.08.27.47.47,0,0,0,.17.38.76.76,0,0,0,.51.15,1.21,1.21,0,0,0,.58-.14.92.92,0,0,0,.38-.4,1.41,1.41,0,0,0,.09-.57Z" transform="translate(1.43 -22.61)"/><path class="cls-5" d="M53.88,85.33V82h.51v.48a1.21,1.21,0,0,1,1.07-.55A1.43,1.43,0,0,1,56,82a1,1,0,0,1,.39.29,1.13,1.13,0,0,1,.17.42,3.21,3.21,0,0,1,0,.56v2.07H56v-2a1.67,1.67,0,0,0-.06-.52.6.6,0,0,0-.24-.28.72.72,0,0,0-.4-.1,1,1,0,0,0-.63.23,1.18,1.18,0,0,0-.26.88v1.84Z" transform="translate(1.43 -22.61)"/><path class="cls-5" d="M57.39,85.61l.55.08a.54.54,0,0,0,.2.38,1,1,0,0,0,.58.16,1.08,1.08,0,0,0,.61-.16.82.82,0,0,0,.29-.45,3.76,3.76,0,0,0,0-.73,1.18,1.18,0,0,1-.93.44,1.3,1.3,0,0,1-1.08-.5,1.93,1.93,0,0,1-.38-1.2,2.18,2.18,0,0,1,.18-.89,1.37,1.37,0,0,1,.5-.63,1.35,1.35,0,0,1,.78-.22,1.22,1.22,0,0,1,1,.48V82h.52v2.91A2.72,2.72,0,0,1,60.08,86a1.14,1.14,0,0,1-.5.52,1.76,1.76,0,0,1-.86.19,1.59,1.59,0,0,1-1-.27A.92.92,0,0,1,57.39,85.61Zm.47-2a1.47,1.47,0,0,0,.26,1,.87.87,0,0,0,1.32,0,1.79,1.79,0,0,0,0-1.89.87.87,0,0,0-.67-.31.79.79,0,0,0-.64.31A1.35,1.35,0,0,0,57.86,83.59Z" transform="translate(1.43 -22.61)"/><path class="cls-5" d="M63.41,84.25l.59.07a1.43,1.43,0,0,1-.51.8,1.6,1.6,0,0,1-1,.29A1.52,1.52,0,0,1,61.35,85a1.76,1.76,0,0,1-.43-1.27,1.9,1.9,0,0,1,.43-1.33,1.5,1.5,0,0,1,1.14-.46,1.45,1.45,0,0,1,1.11.46A1.82,1.82,0,0,1,64,83.64v.15H61.51a1.26,1.26,0,0,0,.31.85.92.92,0,0,0,.7.3.89.89,0,0,0,.54-.17A1,1,0,0,0,63.41,84.25Zm-1.87-.93h1.88a1.21,1.21,0,0,0-.22-.64.86.86,0,0,0-.7-.33.9.9,0,0,0-.67.27A1.07,1.07,0,0,0,61.54,83.32Z" transform="translate(1.43 -22.61)"/><rect class="繝後Μ_逋ｽ-2" x="23.43" y="91.68" width="41.46" height="16.72"/><path class="cls-5" d="M28.1,119l.62.15a2,2,0,0,1-.7,1.16,1.91,1.91,0,0,1-1.23.4,2.14,2.14,0,0,1-1.22-.31,1.86,1.86,0,0,1-.72-.88,3.1,3.1,0,0,1-.25-1.25,2.8,2.8,0,0,1,.28-1.27,2,2,0,0,1,.79-.82,2.28,2.28,0,0,1,1.13-.28,1.93,1.93,0,0,1,1.17.35,1.88,1.88,0,0,1,.67,1l-.61.15a1.4,1.4,0,0,0-.47-.74,1.2,1.2,0,0,0-.77-.24,1.52,1.52,0,0,0-.9.26,1.37,1.37,0,0,0-.51.69,3,3,0,0,0-.14.9,2.92,2.92,0,0,0,.17,1A1.28,1.28,0,0,0,26,120a1.45,1.45,0,0,0,.79.22,1.3,1.3,0,0,0,.87-.3A1.46,1.46,0,0,0,28.1,119Z" transform="translate(1.43 -22.61)"/><path class="cls-5" d="M29.19,119a1.72,1.72,0,0,1,.52-1.38,1.57,1.57,0,0,1,1.06-.38,1.51,1.51,0,0,1,1.14.46,1.74,1.74,0,0,1,.44,1.26,2.22,2.22,0,0,1-.2,1,1.39,1.39,0,0,1-.57.58,1.63,1.63,0,0,1-.81.21,1.48,1.48,0,0,1-1.14-.46A1.78,1.78,0,0,1,29.19,119Zm.59,0a1.41,1.41,0,0,0,.28,1,.89.89,0,0,0,.71.33.91.91,0,0,0,.71-.33,1.8,1.8,0,0,0,0-1.93.9.9,0,0,0-.71-.32.88.88,0,0,0-.71.32A1.39,1.39,0,0,0,29.78,119Z" transform="translate(1.43 -22.61)"/><path class="cls-5" d="M33,120.67V117.3h.51v.48a1.22,1.22,0,0,1,1.07-.56,1.43,1.43,0,0,1,.56.11,1,1,0,0,1,.39.29,1.13,1.13,0,0,1,.17.42,2.44,2.44,0,0,1,0,.56v2.07h-.58v-2a1.67,1.67,0,0,0-.06-.52.6.6,0,0,0-.24-.28.72.72,0,0,0-.4-.1,1,1,0,0,0-.63.23,1.17,1.17,0,0,0-.26.88v1.84Z" transform="translate(1.43 -22.61)"/><path class="cls-5" d="M37.88,120.16l.08.5a1.72,1.72,0,0,1-.43,0,1,1,0,0,1-.48-.09.54.54,0,0,1-.24-.26,2,2,0,0,1-.07-.68v-1.94h-.42v-.44h.42v-.84l.56-.34v1.18h.58v.44H37.3v2a1,1,0,0,0,0,.32.27.27,0,0,0,.1.11.37.37,0,0,0,.2,0Z" transform="translate(1.43 -22.61)"/><path class="cls-5" d="M38.44,116.67V116H39v.65Zm0,4V117.3H39v3.37Z" transform="translate(1.43 -22.61)"/><path class="cls-5" d="M39.88,120.67V117.3h.52v.48a1.2,1.2,0,0,1,1.07-.56,1.47,1.47,0,0,1,.56.11.89.89,0,0,1,.38.29,1.14,1.14,0,0,1,.18.42,3.51,3.51,0,0,1,0,.56v2.07h-.57v-2a1.38,1.38,0,0,0-.07-.52.53.53,0,0,0-.23-.28.77.77,0,0,0-.4-.1.94.94,0,0,0-.63.23,1.13,1.13,0,0,0-.27.88v1.84Z" transform="translate(1.43 -22.61)"/><path class="cls-5" d="M45.71,120.67v-.49a1.25,1.25,0,0,1-1.07.57,1.31,1.31,0,0,1-.56-.12,1,1,0,0,1-.39-.28,1.11,1.11,0,0,1-.17-.43,3.07,3.07,0,0,1,0-.53V117.3h.58v1.87a3.77,3.77,0,0,0,0,.6.63.63,0,0,0,.23.36.73.73,0,0,0,.43.12.91.91,0,0,0,.48-.13.7.7,0,0,0,.32-.36,1.84,1.84,0,0,0,.09-.65V117.3h.58v3.37Z" transform="translate(1.43 -22.61)"/><path class="cls-5" d="M46.9,119a1.72,1.72,0,0,1,.52-1.38,1.57,1.57,0,0,1,1.06-.38,1.51,1.51,0,0,1,1.14.46,1.74,1.74,0,0,1,.44,1.26,2.22,2.22,0,0,1-.2,1,1.39,1.39,0,0,1-.57.58,1.63,1.63,0,0,1-.81.21,1.48,1.48,0,0,1-1.14-.46A1.78,1.78,0,0,1,46.9,119Zm.59,0a1.41,1.41,0,0,0,.28,1,.89.89,0,0,0,.71.33.91.91,0,0,0,.71-.33,1.8,1.8,0,0,0,0-1.93.9.9,0,0,0-.71-.32.88.88,0,0,0-.71.32A1.39,1.39,0,0,0,47.49,119Z" transform="translate(1.43 -22.61)"/><path class="cls-5" d="M52.94,120.67v-.49a1.25,1.25,0,0,1-1.07.57,1.31,1.31,0,0,1-.56-.12,1,1,0,0,1-.39-.28,1.11,1.11,0,0,1-.17-.43,3.07,3.07,0,0,1,0-.53V117.3h.58v1.87a3.77,3.77,0,0,0,0,.6.63.63,0,0,0,.23.36.73.73,0,0,0,.43.12.91.91,0,0,0,.48-.13.7.7,0,0,0,.32-.36,1.84,1.84,0,0,0,.09-.65V117.3h.58v3.37Z" transform="translate(1.43 -22.61)"/><path class="cls-5" d="M54.11,119.66l.57-.09a.84.84,0,0,0,.26.53.94.94,0,0,0,.61.18.91.91,0,0,0,.58-.16.5.5,0,0,0,.2-.38.34.34,0,0,0-.17-.3,2.2,2.2,0,0,0-.59-.2,5.47,5.47,0,0,1-.87-.27,1,1,0,0,1-.37-.32.9.9,0,0,1-.12-.46.83.83,0,0,1,.1-.41.87.87,0,0,1,.28-.32,1.16,1.16,0,0,1,.37-.17,1.87,1.87,0,0,1,.49-.07,1.9,1.9,0,0,1,.7.12.92.92,0,0,1,.44.31,1.18,1.18,0,0,1,.19.52l-.55.08a.64.64,0,0,0-.22-.41.82.82,0,0,0-.52-.15,1,1,0,0,0-.56.13.4.4,0,0,0-.17.31.31.31,0,0,0,.07.2.53.53,0,0,0,.22.15l.5.15a5.68,5.68,0,0,1,.85.26.94.94,0,0,1,.38.3.83.83,0,0,1,.13.49,1,1,0,0,1-.16.54,1.07,1.07,0,0,1-.49.39,1.73,1.73,0,0,1-.71.14,1.55,1.55,0,0,1-1-.28A1.29,1.29,0,0,1,54.11,119.66Z" transform="translate(1.43 -22.61)"/><path class="cls-5" d="M24.7,128.47V125.1h.52v.51a1.31,1.31,0,0,1,.36-.47A.61.61,0,0,1,26,125a1,1,0,0,1,.58.19l-.19.53a.76.76,0,0,0-.42-.13.52.52,0,0,0-.34.12.58.58,0,0,0-.21.31,2,2,0,0,0-.1.67v1.76Z" transform="translate(1.43 -22.61)"/><path class="cls-5" d="M29.08,128.47V128a1.23,1.23,0,0,1-1.07.57,1.34,1.34,0,0,1-.56-.12.88.88,0,0,1-.38-.28,1.3,1.3,0,0,1-.18-.43,3.33,3.33,0,0,1,0-.53V125.1h.57V127a2.63,2.63,0,0,0,0,.6.61.61,0,0,0,.22.36.76.76,0,0,0,.44.12.91.91,0,0,0,.48-.13.75.75,0,0,0,.32-.36,1.84,1.84,0,0,0,.09-.65V125.1h.57v3.37Z" transform="translate(1.43 -22.61)"/><path class="cls-5" d="M30.49,128.47V125.1H31v.48a1.22,1.22,0,0,1,1.07-.56,1.43,1.43,0,0,1,.56.11,1,1,0,0,1,.39.29,1.13,1.13,0,0,1,.17.42,3.21,3.21,0,0,1,0,.56v2.07h-.57v-2a1.62,1.62,0,0,0-.07-.52.6.6,0,0,0-.24-.28.72.72,0,0,0-.4-.1,1,1,0,0,0-.63.23,1.17,1.17,0,0,0-.26.88v1.84Z" transform="translate(1.43 -22.61)"/><path class="cls-5" d="M34.1,128.47V125.1h.52v.48a1.2,1.2,0,0,1,1.07-.56,1.47,1.47,0,0,1,.56.11.89.89,0,0,1,.38.29,1,1,0,0,1,.18.42,3.51,3.51,0,0,1,0,.56v2.07h-.57v-2a1.38,1.38,0,0,0-.07-.52.53.53,0,0,0-.23-.28.77.77,0,0,0-.4-.1.94.94,0,0,0-.63.23,1.13,1.13,0,0,0-.27.88v1.84Z" transform="translate(1.43 -22.61)"/><path class="cls-5" d="M37.72,124.47v-.65h.57v.65Zm0,4V125.1h.57v3.37Z" transform="translate(1.43 -22.61)"/><path class="cls-5" d="M39.16,128.47V125.1h.52v.48a1.2,1.2,0,0,1,1.07-.56,1.47,1.47,0,0,1,.56.11.89.89,0,0,1,.38.29,1.14,1.14,0,0,1,.18.42,3.51,3.51,0,0,1,0,.56v2.07h-.57v-2a1.38,1.38,0,0,0-.07-.52.53.53,0,0,0-.23-.28.77.77,0,0,0-.4-.1.92.92,0,0,0-.63.23,1.13,1.13,0,0,0-.27.88v1.84Z" transform="translate(1.43 -22.61)"/><path class="cls-5" d="M42.67,128.75l.56.08a.52.52,0,0,0,.19.38,1,1,0,0,0,.58.16,1,1,0,0,0,.61-.16.79.79,0,0,0,.3-.45,3.76,3.76,0,0,0,0-.73,1.19,1.19,0,0,1-.94.44,1.27,1.27,0,0,1-1.07-.5,1.91,1.91,0,0,1-.38-1.2,2.31,2.31,0,0,1,.17-.89A1.37,1.37,0,0,1,44,125a1.2,1.2,0,0,1,1,.49v-.41h.53V128a2.9,2.9,0,0,1-.16,1.12,1.22,1.22,0,0,1-.51.52,1.85,1.85,0,0,1-.86.19,1.61,1.61,0,0,1-1-.27A.92.92,0,0,1,42.67,128.75Zm.47-2a1.42,1.42,0,0,0,.27,1,.81.81,0,0,0,.66.31.83.83,0,0,0,.66-.31,1.8,1.8,0,0,0,0-1.88.83.83,0,0,0-.66-.31.81.81,0,0,0-.65.31A1.34,1.34,0,0,0,43.14,126.72Z" transform="translate(1.43 -22.61)"/><path class="cls-5" d="M48.19,128.47V125.1h.51v.51a1.43,1.43,0,0,1,.37-.47.6.6,0,0,1,.36-.12,1.06,1.06,0,0,1,.59.19l-.19.53a.76.76,0,0,0-.42-.13.52.52,0,0,0-.34.12.58.58,0,0,0-.21.31,2,2,0,0,0-.1.67v1.76Z" transform="translate(1.43 -22.61)"/><path class="cls-5" d="M52.56,128.05a2,2,0,0,1-.61.38,1.68,1.68,0,0,1-.63.12,1.2,1.2,0,0,1-.85-.27.92.92,0,0,1-.3-.7,1,1,0,0,1,.11-.45.87.87,0,0,1,.3-.33,1.55,1.55,0,0,1,.41-.19,3.06,3.06,0,0,1,.5-.08,5,5,0,0,0,1-.2,1.14,1.14,0,0,0,0-.15.63.63,0,0,0-.17-.49.94.94,0,0,0-.65-.19,1,1,0,0,0-.59.14.89.89,0,0,0-.29.5l-.55-.08a1.34,1.34,0,0,1,.25-.58,1,1,0,0,1,.5-.34,2.26,2.26,0,0,1,.77-.12,2,2,0,0,1,.7.11.82.82,0,0,1,.39.25.79.79,0,0,1,.18.39,3.08,3.08,0,0,1,0,.53v.76a7,7,0,0,0,0,1,1.19,1.19,0,0,0,.14.4h-.59A1.29,1.29,0,0,1,52.56,128.05Zm-.05-1.27a3.81,3.81,0,0,1-.93.21,2.81,2.81,0,0,0-.5.12.44.44,0,0,0-.22.18A.52.52,0,0,0,51,128a.76.76,0,0,0,.51.15A1.21,1.21,0,0,0,52,128a.92.92,0,0,0,.38-.4,1.41,1.41,0,0,0,.09-.57Z" transform="translate(1.43 -22.61)"/><path class="cls-5" d="M54,128.47V125.1h.51v.48a1.22,1.22,0,0,1,1.07-.56,1.43,1.43,0,0,1,.56.11,1,1,0,0,1,.39.29,1.13,1.13,0,0,1,.17.42,2.44,2.44,0,0,1,0,.56v2.07h-.58v-2a1.67,1.67,0,0,0-.06-.52.6.6,0,0,0-.24-.28.72.72,0,0,0-.4-.1,1,1,0,0,0-.63.23,1.17,1.17,0,0,0-.26.88v1.84Z" transform="translate(1.43 -22.61)"/><path class="cls-5" d="M57.49,128.75l.55.08a.56.56,0,0,0,.2.38,1,1,0,0,0,.58.16,1.08,1.08,0,0,0,.61-.16.82.82,0,0,0,.29-.45,3.76,3.76,0,0,0,0-.73,1.18,1.18,0,0,1-.93.44,1.3,1.3,0,0,1-1.08-.5,2,2,0,0,1-.38-1.2,2.14,2.14,0,0,1,.18-.89,1.28,1.28,0,0,1,.5-.63,1.35,1.35,0,0,1,.78-.23,1.2,1.2,0,0,1,1,.49v-.41h.52V128a2.72,2.72,0,0,1-.16,1.12,1.14,1.14,0,0,1-.5.52,1.88,1.88,0,0,1-.86.19,1.59,1.59,0,0,1-1-.27A.92.92,0,0,1,57.49,128.75Zm.47-2a1.48,1.48,0,0,0,.26,1,.83.83,0,0,0,.66.31.81.81,0,0,0,.66-.31,1.77,1.77,0,0,0,0-1.88.87.87,0,0,0-.67-.31.79.79,0,0,0-.64.31A1.34,1.34,0,0,0,58,126.72Z" transform="translate(1.43 -22.61)"/><path class="cls-5" d="M63.51,127.39l.59.07a1.43,1.43,0,0,1-.51.8,1.6,1.6,0,0,1-1,.29,1.56,1.56,0,0,1-1.17-.46,1.77,1.77,0,0,1-.43-1.28,1.89,1.89,0,0,1,.43-1.32,1.51,1.51,0,0,1,1.14-.47,1.48,1.48,0,0,1,1.11.46,1.86,1.86,0,0,1,.42,1.3v.15H61.61a1.28,1.28,0,0,0,.31.85.92.92,0,0,0,.7.3.89.89,0,0,0,.54-.17A1,1,0,0,0,63.51,127.39Zm-1.87-.93h1.88a1.18,1.18,0,0,0-.22-.64.86.86,0,0,0-.7-.33.9.9,0,0,0-.67.27A1.07,1.07,0,0,0,61.64,126.46Z" transform="translate(1.43 -22.61)"/><path class="cls-5" d="M3.22,98.27H-.88V99.8h-.55V96.11h.55v1.54h4.1Z" transform="translate(1.43 -22.61)"/><path class="cls-5" d="M1.54,95.77a1.76,1.76,0,0,1-1.39-.52,1.58,1.58,0,0,1-.37-1.06,1.51,1.51,0,0,1,.45-1.14,1.74,1.74,0,0,1,1.26-.44,2.38,2.38,0,0,1,1,.19,1.45,1.45,0,0,1,.58.57,1.64,1.64,0,0,1,.21.82,1.48,1.48,0,0,1-.46,1.14A1.79,1.79,0,0,1,1.54,95.77Zm0-.59a1.44,1.44,0,0,0,1-.28.93.93,0,0,0,.32-.71.91.91,0,0,0-.32-.71,1.48,1.48,0,0,0-1-.28,1.4,1.4,0,0,0-.95.28.95.95,0,0,0,0,1.42A1.42,1.42,0,0,0,1.54,95.18Z" transform="translate(1.43 -22.61)"/><path class="cls-5" d="M3.22,92H-.15v-.52H.36a1.41,1.41,0,0,1-.47-.36.6.6,0,0,1-.11-.37A1.09,1.09,0,0,1,0,90.12l.53.19a.84.84,0,0,0-.12.42.51.51,0,0,0,.11.34.58.58,0,0,0,.31.21,2.35,2.35,0,0,0,.67.1H3.22Z" transform="translate(1.43 -22.61)"/><path class="cls-5" d="M4.51,87.63H2.86a1,1,0,0,1,.31.37,1,1,0,0,1,.13.51,1.34,1.34,0,0,1-.48,1A1.89,1.89,0,0,1,1.51,90a2.25,2.25,0,0,1-.92-.18A1.4,1.4,0,0,1,0,89.29a1.35,1.35,0,0,1-.2-.74,1.13,1.13,0,0,1,.52-1H-.15v-.51H4.51Zm-3,1.76a1.48,1.48,0,0,0,1-.27.84.84,0,0,0,.33-.66.8.8,0,0,0-.31-.63,1.46,1.46,0,0,0-.94-.26,1.52,1.52,0,0,0-1,.28.8.8,0,0,0-.34.65.78.78,0,0,0,.31.63A1.56,1.56,0,0,0,1.53,89.39Z" transform="translate(1.43 -22.61)"/><path class="cls-5" d="M3.22,84H2.73A1.23,1.23,0,0,1,3.3,85a1.31,1.31,0,0,1-.12.56A.88.88,0,0,1,2.9,86a1.12,1.12,0,0,1-.43.18,3.33,3.33,0,0,1-.53,0H-.15V85.6H1.72a3.77,3.77,0,0,0,.6,0,.68.68,0,0,0,.36-.23.75.75,0,0,0,.13-.43,1.05,1.05,0,0,0-.13-.49.72.72,0,0,0-.36-.31,1.66,1.66,0,0,0-.66-.1H-.15v-.57H3.22Z" transform="translate(1.43 -22.61)"/><path class="cls-5" d="M2.14,80.24l.07-.59a1.39,1.39,0,0,1,.8.52,1.54,1.54,0,0,1,.29,1,1.52,1.52,0,0,1-.46,1.17,1.77,1.77,0,0,1-1.27.44A1.86,1.86,0,0,1,.25,82.3a1.46,1.46,0,0,1-.47-1.14,1.41,1.41,0,0,1,.46-1.1,1.78,1.78,0,0,1,1.29-.43h.15v2.52a1.32,1.32,0,0,0,.85-.32.92.92,0,0,0,.3-.7.89.89,0,0,0-.17-.54A1.09,1.09,0,0,0,2.14,80.24Zm-.93,1.87V80.23a1.14,1.14,0,0,0-.63.22.88.88,0,0,0-.33.71.89.89,0,0,0,.26.66A1,1,0,0,0,1.21,82.11Z" transform="translate(1.43 -22.61)"/><path class="cls-5" d="M4.51,77.11H-1.43V75.85H-1v.69H4v-.69h.47Z" transform="translate(1.43 -22.61)"/><path class="cls-5" d="M3.22,75.25H-1.43v-.63l3.65-2.44H-1.43v-.59H3.22v.63L-.43,74.66H3.22Z" transform="translate(1.43 -22.61)"/><path class="cls-5" d="M.94,70.71a.74.74,0,0,1-.56-.24.8.8,0,0,1,0-1.14.77.77,0,0,1,.56-.23.78.78,0,0,1,.57.23.8.8,0,0,1,0,1.14A.75.75,0,0,1,.94,70.71Z" transform="translate(1.43 -22.61)"/><path class="cls-5" d="M3.22,68.35H-.15v-.51H.32a1.31,1.31,0,0,1-.39-.42,1.21,1.21,0,0,1-.15-.6,1.16,1.16,0,0,1,.15-.62.84.84,0,0,1,.44-.34,1.18,1.18,0,0,1-.59-1,1,1,0,0,1,.27-.77,1.2,1.2,0,0,1,.86-.27H3.22v.57H1.1a1.42,1.42,0,0,0-.49.06.44.44,0,0,0-.25.2A.62.62,0,0,0,.27,65a.79.79,0,0,0,.24.59,1,1,0,0,0,.75.24h2v.57H1a.92.92,0,0,0-.57.14.51.51,0,0,0-.19.45.81.81,0,0,0,.13.45.74.74,0,0,0,.37.3,2.12,2.12,0,0,0,.7.09H3.22Z" transform="translate(1.43 -22.61)"/><path class="cls-5" d="M4.51,62v1.26H4v-.69H-1v.69h-.47V62Z" transform="translate(1.43 -22.61)"/><path class="cls-5" d="M44.76,150.55l.58-.05a1.32,1.32,0,0,0,.19.58,1,1,0,0,0,.47.36,1.8,1.8,0,0,0,.71.14,1.64,1.64,0,0,0,.62-.11.91.91,0,0,0,.41-.28.76.76,0,0,0,.13-.4.59.59,0,0,0-.13-.39.92.92,0,0,0-.42-.27c-.12,0-.4-.12-.83-.23a4.15,4.15,0,0,1-.89-.29,1.19,1.19,0,0,1-.5-.43,1.06,1.06,0,0,1-.16-.58,1.16,1.16,0,0,1,.2-.66,1.18,1.18,0,0,1,.58-.46,2.15,2.15,0,0,1,.85-.16,2.4,2.4,0,0,1,.92.16,1.4,1.4,0,0,1,.6.49,1.44,1.44,0,0,1,.23.74l-.59,0a1,1,0,0,0-.32-.66,1.24,1.24,0,0,0-.81-.23,1.37,1.37,0,0,0-.82.2.63.63,0,0,0-.25.5.52.52,0,0,0,.18.41,2.39,2.39,0,0,0,.93.33,7.58,7.58,0,0,1,1,.3,1.39,1.39,0,0,1,.6.47,1.19,1.19,0,0,1,.19.67,1.3,1.3,0,0,1-.21.7,1.4,1.4,0,0,1-.61.51,2.19,2.19,0,0,1-.9.18,2.76,2.76,0,0,1-1.06-.18,1.54,1.54,0,0,1-.67-.56A1.59,1.59,0,0,1,44.76,150.55Z" transform="translate(1.43 -22.61)"/><path class="cls-5" d="M49.23,153.34v-4.66h.52v.44a1.29,1.29,0,0,1,.42-.39,1.19,1.19,0,0,1,.56-.13,1.31,1.31,0,0,1,.76.23,1.29,1.29,0,0,1,.5.62,2.39,2.39,0,0,1,0,1.82,1.36,1.36,0,0,1-.54.64,1.45,1.45,0,0,1-.74.22,1.14,1.14,0,0,1-.52-.12,1.42,1.42,0,0,1-.37-.31v1.64Zm.52-3a1.46,1.46,0,0,0,.26,1,.84.84,0,0,0,.64.31.82.82,0,0,0,.65-.33,1.5,1.5,0,0,0,.27-1,1.56,1.56,0,0,0-.26-1,.82.82,0,0,0-.64-.32.8.8,0,0,0-.64.34A1.52,1.52,0,0,0,49.75,150.38Z" transform="translate(1.43 -22.61)"/><path class="cls-5" d="M55.15,151l.59.08a1.39,1.39,0,0,1-.52.8,1.72,1.72,0,0,1-2.13-.17,1.77,1.77,0,0,1-.44-1.28,1.9,1.9,0,0,1,.44-1.32,1.49,1.49,0,0,1,1.14-.47,1.45,1.45,0,0,1,1.1.46,1.82,1.82,0,0,1,.43,1.3v.15H53.24a1.34,1.34,0,0,0,.32.85.92.92,0,0,0,.7.3.89.89,0,0,0,.54-.17A1.07,1.07,0,0,0,55.15,151ZM53.28,150h1.88a1.18,1.18,0,0,0-.22-.64.88.88,0,0,0-.71-.33.9.9,0,0,0-.66.27A1,1,0,0,0,53.28,150Z" transform="translate(1.43 -22.61)"/><path class="cls-5" d="M58.77,151l.59.08a1.5,1.5,0,0,1-.52.8,1.54,1.54,0,0,1-1,.29,1.57,1.57,0,0,1-1.18-.46,1.77,1.77,0,0,1-.43-1.28,1.9,1.9,0,0,1,.44-1.32,1.58,1.58,0,0,1,2.24,0,1.87,1.87,0,0,1,.43,1.3s0,.08,0,.15H56.86a1.34,1.34,0,0,0,.31.85.94.94,0,0,0,.71.3.84.84,0,0,0,.53-.17A1.08,1.08,0,0,0,58.77,151ZM56.89,150h1.88a1.1,1.1,0,0,0-.21-.64.88.88,0,0,0-.71-.33.9.9,0,0,0-.66.27A1,1,0,0,0,56.89,150Z" transform="translate(1.43 -22.61)"/><path class="cls-5" d="M62.26,152.05v-.43a1,1,0,0,1-.94.51,1.3,1.3,0,0,1-.74-.23,1.41,1.41,0,0,1-.53-.62,2.17,2.17,0,0,1-.18-.91,2.29,2.29,0,0,1,.17-.92,1.37,1.37,0,0,1,.5-.63,1.43,1.43,0,0,1,.75-.22,1.21,1.21,0,0,1,.55.13,1.24,1.24,0,0,1,.38.34V147.4h.57v4.65Zm-1.8-1.68a1.5,1.5,0,0,0,.27,1,.81.81,0,0,0,1.28,0,1.43,1.43,0,0,0,.26-.93,1.58,1.58,0,0,0-.27-1,.82.82,0,0,0-1.29,0A1.52,1.52,0,0,0,60.46,150.37Z" transform="translate(1.43 -22.61)"/><path class="cls-5" d="M65.51,153.34V147.4h1.26v.47h-.69v5h.69v.47Z" transform="translate(1.43 -22.61)"/><path class="cls-5" d="M67.29,152.05v-3.37h.52v.51a1.31,1.31,0,0,1,.36-.47.63.63,0,0,1,.37-.12,1.08,1.08,0,0,1,.59.19l-.2.53a.76.76,0,0,0-.42-.13.54.54,0,0,0-.34.12.58.58,0,0,0-.21.31,2.31,2.31,0,0,0-.09.67v1.76Z" transform="translate(1.43 -22.61)"/><path class="cls-5" d="M69,152.13l1.35-4.81h.45l-1.34,4.81Z" transform="translate(1.43 -22.61)"/><path class="cls-5" d="M71.27,152.05v-3.37h.51v.47a1.34,1.34,0,0,1,.42-.4,1.21,1.21,0,0,1,.6-.15,1.16,1.16,0,0,1,.62.16.86.86,0,0,1,.34.43,1.2,1.2,0,0,1,1-.59,1.05,1.05,0,0,1,.77.28,1.2,1.2,0,0,1,.27.86v2.31h-.57v-2.12a1.91,1.91,0,0,0,0-.5.49.49,0,0,0-.21-.24.62.62,0,0,0-.34-.09.82.82,0,0,0-.59.23,1,1,0,0,0-.23.76v2h-.58v-2.19a.92.92,0,0,0-.14-.57.51.51,0,0,0-.45-.19.81.81,0,0,0-.45.13.69.69,0,0,0-.29.37,1.82,1.82,0,0,0-.1.7v1.75Z" transform="translate(1.43 -22.61)"/><path class="cls-5" d="M76.69,148.05v-.65h.57v.65Zm0,4v-3.37h.57v3.37Z" transform="translate(1.43 -22.61)"/><path class="cls-5" d="M78.13,152.05v-3.37h.51v.48a1.23,1.23,0,0,1,1.08-.56,1.47,1.47,0,0,1,.56.11.89.89,0,0,1,.38.29,1.33,1.33,0,0,1,.18.42,3.51,3.51,0,0,1,0,.56v2.07H80.3V150a1.38,1.38,0,0,0-.07-.52.53.53,0,0,0-.23-.28.77.77,0,0,0-.4-.1.92.92,0,0,0-.63.23,1.13,1.13,0,0,0-.27.88v1.84Z" transform="translate(1.43 -22.61)"/><path class="cls-5" d="M82.7,153.34H81.44v-.47h.69v-5h-.69v-.47H82.7Z" transform="translate(1.43 -22.61)"/></g></svg>