<svg xmlns="http://www.w3.org/2000/svg" viewBox="0 0 114.15 131.42"><defs><style>.cls-1,.cls-2,.cls-3,.cls-4,.繝医Ν繧ｯ繧ｰ繝ｩ繝廟繧ｰ繝ｬ繝ｼ邱,.邱喟0\.5pt{fill:none;}.cls-1,.邱喟0\.5pt{stroke:#231815;}.cls-1{stroke-linejoin:round;stroke-width:0.24px;}.cls-2,.cls-3,.cls-4,.繝医Ν繧ｯ繧ｰ繝ｩ繝廟繧ｰ繝ｬ繝ｼ邱{stroke:#9fa0a0;}.cls-2,.cls-3,.邱喟0\.5pt{stroke-miterlimit:10;}.cls-2,.cls-3{stroke-width:1px;}.cls-3{stroke-dasharray:2.76 1.33;}.cls-4{stroke-linecap:square;}.cls-4,.繝医Ν繧ｯ繧ｰ繝ｩ繝廟繧ｰ繝ｬ繝ｼ邱{stroke-width:3px;}.cls-5{fill:#231815;}.繝後Μ_逋ｽ{fill:#fff;}.邱喟0\.5pt{stroke-width:0.5px;}</style></defs><g id="Illust"><line class="cls-1" x1="19.86" y1="99.38" x2="109.13" y2="99.38"/><line class="cls-1" x1="19.86" y1="83.14" x2="109.13" y2="83.14"/><line class="cls-1" x1="19.86" y1="66.96" x2="109.13" y2="66.96"/><line class="cls-1" x1="19.86" y1="50.78" x2="109.13" y2="50.78"/><line class="cls-1" x1="19.86" y1="34.6" x2="109.13" y2="34.6"/><line class="cls-1" x1="19.86" y1="18.36" x2="109.13" y2="18.36"/><line class="cls-1" x1="49.62" y1="2.18" x2="49.62" y2="115.56"/><line class="cls-1" x1="79.38" y1="2.18" x2="79.38" y2="115.56"/><line class="cls-2" x1="97.23" y1="94.73" x2="97.23" y2="96.28"/><line class="cls-3" x1="97.23" y1="97.61" x2="97.23" y2="113.31"/><line class="cls-2" x1="97.23" y1="113.98" x2="97.23" y2="115.53"/><polyline class="cls-4" points="19.86 25.32 64.49 25.32 79.38 50.75 109.69 79.75"/><path class="cls-5" d="M17.24,142.09a3.52,3.52,0,0,1,.13-1,1.31,1.31,0,0,1,.39-.6,1.11,1.11,0,0,1,1.15-.09,1,1,0,0,1,.36.33,1.91,1.91,0,0,1,.23.54,3.72,3.72,0,0,1,.08.84,3.52,3.52,0,0,1-.13,1,1.31,1.31,0,0,1-.39.6,1,1,0,0,1-.65.21,1,1,0,0,1-.81-.37A2.33,2.33,0,0,1,17.24,142.09Zm.45,0a2.25,2.25,0,0,0,.21,1.18.59.59,0,0,0,1,0,2.27,2.27,0,0,0,.2-1.18,2.2,2.2,0,0,0-.2-1.17.6.6,0,0,0-.52-.29.56.56,0,0,0-.48.25A2.31,2.31,0,0,0,17.69,142.09Z" transform="translate(1.43 -22.63)"/><rect class="繝後Μ_逋ｽ" x="109.15" y="2.18" width="2.83" height="113.39"/><rect class="繝後Μ_逋ｽ" x="17.02" y="2.18" width="2.83" height="113.39"/><path class="cls-5" d="M10.26,137.84a3.17,3.17,0,0,1,.14-1,1.22,1.22,0,0,1,.38-.6,1,1,0,0,1,.65-.21,1.07,1.07,0,0,1,.51.12,1.13,1.13,0,0,1,.36.33,2.35,2.35,0,0,1,.22.53,3.82,3.82,0,0,1,.08.85,3.2,3.2,0,0,1-.13,1,1.31,1.31,0,0,1-.39.6,1,1,0,0,1-.65.21,1,1,0,0,1-.81-.37A2.35,2.35,0,0,1,10.26,137.84Zm.46,0a2.31,2.31,0,0,0,.2,1.17.58.58,0,0,0,1,0,3.36,3.36,0,0,0,0-2.34.6.6,0,0,0-.51-.29.57.57,0,0,0-.49.25A2.3,2.3,0,0,0,10.72,137.84Z" transform="translate(1.43 -22.63)"/><path class="cls-5" d="M13.29,139.61v-.5h.5v.5Z" transform="translate(1.43 -22.63)"/><path class="cls-5" d="M14.43,137.84a3.17,3.17,0,0,1,.14-1,1.22,1.22,0,0,1,.38-.6,1,1,0,0,1,.65-.21,1.07,1.07,0,0,1,.51.12,1.13,1.13,0,0,1,.36.33,2.35,2.35,0,0,1,.22.53,3.82,3.82,0,0,1,.08.85,3.2,3.2,0,0,1-.13,1,1.31,1.31,0,0,1-.39.6,1,1,0,0,1-.65.21,1,1,0,0,1-.81-.37A2.35,2.35,0,0,1,14.43,137.84Zm.46,0a2.31,2.31,0,0,0,.2,1.17.58.58,0,0,0,1,0,3.36,3.36,0,0,0,0-2.34.6.6,0,0,0-.51-.29.57.57,0,0,0-.49.25A2.3,2.3,0,0,0,14.89,137.84Z" transform="translate(1.43 -22.63)"/><path class="cls-5" d="M45.15,143.44v.42H42.78a.81.81,0,0,1,0-.31,1.58,1.58,0,0,1,.29-.47,3.49,3.49,0,0,1,.58-.54,5.15,5.15,0,0,0,.78-.76.92.92,0,0,0,.21-.53.56.56,0,0,0-.19-.44.66.66,0,0,0-.49-.18.65.65,0,0,0-.5.19.75.75,0,0,0-.2.53l-.45,0a1.12,1.12,0,0,1,.35-.77,1.17,1.17,0,0,1,.81-.27,1.14,1.14,0,0,1,.82.29.94.94,0,0,1,.3.71,1.06,1.06,0,0,1-.09.42,1.66,1.66,0,0,1-.29.44,8.11,8.11,0,0,1-.68.63,6.1,6.1,0,0,0-.5.45,1.33,1.33,0,0,0-.19.24Z" transform="translate(1.43 -22.63)"/><path class="cls-5" d="M45.62,142.09a3.2,3.2,0,0,1,.13-1,1.17,1.17,0,0,1,.39-.6,1,1,0,0,1,.64-.21,1,1,0,0,1,.51.12,1.13,1.13,0,0,1,.36.33,1.91,1.91,0,0,1,.22.54,3.72,3.72,0,0,1,.08.84,3.2,3.2,0,0,1-.13,1,1.23,1.23,0,0,1-.39.6,1.09,1.09,0,0,1-1.46-.16A2.34,2.34,0,0,1,45.62,142.09Zm.45,0a2.38,2.38,0,0,0,.2,1.18.62.62,0,0,0,.51.29.61.61,0,0,0,.51-.29,2.25,2.25,0,0,0,.21-1.18,2.18,2.18,0,0,0-.21-1.17.6.6,0,0,0-.51-.29.56.56,0,0,0-.48.25A2.21,2.21,0,0,0,46.07,142.09Z" transform="translate(1.43 -22.63)"/><path class="cls-5" d="M48.4,142.09a3.2,3.2,0,0,1,.13-1,1.17,1.17,0,0,1,.39-.6,1,1,0,0,1,.64-.21,1,1,0,0,1,.51.12,1.13,1.13,0,0,1,.36.33,1.91,1.91,0,0,1,.22.54,3.72,3.72,0,0,1,.08.84,3.2,3.2,0,0,1-.13,1,1.22,1.22,0,0,1-.38.6,1,1,0,0,1-.66.21,1,1,0,0,1-.81-.37A2.41,2.41,0,0,1,48.4,142.09Zm.45,0a2.38,2.38,0,0,0,.2,1.18.62.62,0,0,0,.51.29.6.6,0,0,0,.51-.29,2.25,2.25,0,0,0,.21-1.18,2.18,2.18,0,0,0-.21-1.17.59.59,0,0,0-.51-.29.56.56,0,0,0-.48.25A2.21,2.21,0,0,0,48.85,142.09Z" transform="translate(1.43 -22.63)"/><path class="cls-5" d="M51.18,142.09a3.2,3.2,0,0,1,.13-1,1.31,1.31,0,0,1,.39-.6,1,1,0,0,1,.64-.21,1,1,0,0,1,.51.12,1,1,0,0,1,.36.33,1.91,1.91,0,0,1,.22.54,4.23,4.23,0,0,1,0,1.86,1.22,1.22,0,0,1-.38.6,1,1,0,0,1-.66.21,1,1,0,0,1-.81-.37A2.41,2.41,0,0,1,51.18,142.09Zm.45,0a2.25,2.25,0,0,0,.21,1.18.58.58,0,0,0,1,0,2.25,2.25,0,0,0,.21-1.18,2.18,2.18,0,0,0-.21-1.17.58.58,0,0,0-.51-.29.56.56,0,0,0-.48.25A2.31,2.31,0,0,0,51.63,142.09Z" transform="translate(1.43 -22.63)"/><path class="cls-5" d="M74,143.86V143H72.46v-.4l1.63-2.32h.36v2.32h.48v.4h-.48v.86Zm0-1.26V141l-1.12,1.61Z" transform="translate(1.43 -22.63)"/><path class="cls-5" d="M75.38,142.09a3.2,3.2,0,0,1,.13-1,1.36,1.36,0,0,1,.39-.6,1.17,1.17,0,0,1,1.15-.09.9.9,0,0,1,.36.34,1.51,1.51,0,0,1,.22.53,4.23,4.23,0,0,1,0,1.86,1.22,1.22,0,0,1-.38.6,1.1,1.1,0,0,1-1.47-.16A2.41,2.41,0,0,1,75.38,142.09Zm.45,0a2.25,2.25,0,0,0,.21,1.18.59.59,0,0,0,1,0,2.38,2.38,0,0,0,.2-1.18,2.31,2.31,0,0,0-.2-1.17.63.63,0,0,0-.52-.29.54.54,0,0,0-.48.26A2.24,2.24,0,0,0,75.83,142.09Z" transform="translate(1.43 -22.63)"/><path class="cls-5" d="M78.16,142.09a3.2,3.2,0,0,1,.13-1,1.36,1.36,0,0,1,.39-.6,1.17,1.17,0,0,1,1.15-.09.9.9,0,0,1,.36.34,1.51,1.51,0,0,1,.22.53,3.22,3.22,0,0,1,.08.84,3.56,3.56,0,0,1-.12,1,1.31,1.31,0,0,1-.39.6,1.1,1.1,0,0,1-1.47-.16A2.41,2.41,0,0,1,78.16,142.09Zm.45,0a2.25,2.25,0,0,0,.21,1.18.59.59,0,0,0,1,0,2.38,2.38,0,0,0,.2-1.18,2.31,2.31,0,0,0-.2-1.17.63.63,0,0,0-.52-.29.54.54,0,0,0-.48.26A2.24,2.24,0,0,0,78.61,142.09Z" transform="translate(1.43 -22.63)"/><path class="cls-5" d="M80.94,142.09a3.52,3.52,0,0,1,.13-1,1.36,1.36,0,0,1,.39-.6,1.17,1.17,0,0,1,1.15-.09.9.9,0,0,1,.36.34,1.73,1.73,0,0,1,.23.53,3.72,3.72,0,0,1,.08.84,3.52,3.52,0,0,1-.13,1,1.31,1.31,0,0,1-.39.6,1,1,0,0,1-.65.21,1,1,0,0,1-.81-.37A2.33,2.33,0,0,1,80.94,142.09Zm.45,0a2.25,2.25,0,0,0,.21,1.18.59.59,0,0,0,1,0,2.27,2.27,0,0,0,.2-1.18,2.2,2.2,0,0,0-.2-1.17.63.63,0,0,0-.52-.29.54.54,0,0,0-.48.26A2.24,2.24,0,0,0,81.39,142.09Z" transform="translate(1.43 -22.63)"/><path class="cls-5" d="M104.32,141.16l-.44,0a.9.9,0,0,0-.16-.38.6.6,0,0,0-.44-.18.67.67,0,0,0-.37.11,1,1,0,0,0-.33.45,2.22,2.22,0,0,0-.12.82,1,1,0,0,1,.39-.36,1.13,1.13,0,0,1,.48-.11,1,1,0,0,1,.74.32,1.15,1.15,0,0,1,.31.84,1.31,1.31,0,0,1-.14.62,1.1,1.1,0,0,1-.4.45,1.19,1.19,0,0,1-1.47-.25,2.07,2.07,0,0,1-.35-1.34,2.39,2.39,0,0,1,.38-1.5,1.1,1.1,0,0,1,.9-.41,1,1,0,0,1,.7.23A1,1,0,0,1,104.32,141.16Zm-1.79,1.54a1,1,0,0,0,.09.43.78.78,0,0,0,.27.32.72.72,0,0,0,.37.11.61.61,0,0,0,.47-.23.85.85,0,0,0,.2-.61.83.83,0,0,0-.19-.58.66.66,0,0,0-.5-.21.69.69,0,0,0-.51.21A.8.8,0,0,0,102.53,142.7Z" transform="translate(1.43 -22.63)"/><path class="cls-5" d="M104.82,142.09a3.2,3.2,0,0,1,.13-1,1.36,1.36,0,0,1,.39-.6,1.17,1.17,0,0,1,1.15-.09.9.9,0,0,1,.36.34,1.51,1.51,0,0,1,.22.53,3.22,3.22,0,0,1,.08.84,3.56,3.56,0,0,1-.12,1,1.31,1.31,0,0,1-.39.6,1,1,0,0,1-.65.21,1,1,0,0,1-.81-.37A2.33,2.33,0,0,1,104.82,142.09Zm.45,0a2.25,2.25,0,0,0,.21,1.18.59.59,0,0,0,1,0,2.38,2.38,0,0,0,.2-1.18,2.31,2.31,0,0,0-.2-1.17.63.63,0,0,0-.52-.29.54.54,0,0,0-.48.26A2.24,2.24,0,0,0,105.27,142.09Z" transform="translate(1.43 -22.63)"/><path class="cls-5" d="M107.6,142.09a3.52,3.52,0,0,1,.13-1,1.36,1.36,0,0,1,.39-.6,1.17,1.17,0,0,1,1.15-.09.9.9,0,0,1,.36.34,1.73,1.73,0,0,1,.23.53,3.72,3.72,0,0,1,.08.84,3.52,3.52,0,0,1-.13,1,1.31,1.31,0,0,1-.39.6,1,1,0,0,1-.65.21,1,1,0,0,1-.81-.37A2.33,2.33,0,0,1,107.6,142.09Zm.45,0a2.25,2.25,0,0,0,.21,1.18.59.59,0,0,0,1,0,2.27,2.27,0,0,0,.2-1.18,2.2,2.2,0,0,0-.2-1.17.63.63,0,0,0-.52-.29.54.54,0,0,0-.48.26A2.24,2.24,0,0,0,108.05,142.09Z" transform="translate(1.43 -22.63)"/><path class="cls-5" d="M110.38,142.09a3.52,3.52,0,0,1,.13-1,1.36,1.36,0,0,1,.39-.6,1.17,1.17,0,0,1,1.15-.09.9.9,0,0,1,.36.34,1.73,1.73,0,0,1,.23.53,3.72,3.72,0,0,1,.08.84,3.52,3.52,0,0,1-.13,1,1.31,1.31,0,0,1-.39.6,1,1,0,0,1-.65.21,1,1,0,0,1-.81-.37A2.33,2.33,0,0,1,110.38,142.09Zm.45,0a2.25,2.25,0,0,0,.21,1.18.59.59,0,0,0,1,0,2.27,2.27,0,0,0,.2-1.18,2.2,2.2,0,0,0-.2-1.17.63.63,0,0,0-.52-.29.54.54,0,0,0-.48.26A2.24,2.24,0,0,0,110.83,142.09Z" transform="translate(1.43 -22.63)"/><path class="cls-5" d="M10.26,122.36l.47,0a.81.81,0,0,0,.23.51.71.71,0,0,0,1-.07.89.89,0,0,0,.22-.64.82.82,0,0,0-.21-.59.75.75,0,0,0-.55-.22.87.87,0,0,0-.39.1.69.69,0,0,0-.26.25l-.42,0,.35-1.84h1.78v.42H11l-.19,1a1.14,1.14,0,0,1,.67-.22,1.07,1.07,0,0,1,.8.32,1.17,1.17,0,0,1,.32.84,1.32,1.32,0,0,1-.29.84,1.11,1.11,0,0,1-.94.43,1.15,1.15,0,0,1-.79-.27A1.09,1.09,0,0,1,10.26,122.36Z" transform="translate(1.43 -22.63)"/><path class="cls-5" d="M13.29,123.3v-.5h.5v.5Z" transform="translate(1.43 -22.63)"/><path class="cls-5" d="M14.43,121.53a3.17,3.17,0,0,1,.14-1,1.19,1.19,0,0,1,.38-.59,1,1,0,0,1,.65-.21.95.95,0,0,1,.87.45,2,2,0,0,1,.22.53,3.72,3.72,0,0,1,.08.84,3.2,3.2,0,0,1-.13,1,1.31,1.31,0,0,1-.39.6,1,1,0,0,1-.65.21,1,1,0,0,1-.81-.37A2.33,2.33,0,0,1,14.43,121.53Zm.46,0a2.38,2.38,0,0,0,.2,1.18.59.59,0,0,0,1,0,2.25,2.25,0,0,0,.21-1.18,2.18,2.18,0,0,0-.21-1.17.62.62,0,0,0-.51-.29.56.56,0,0,0-.49.26A2.26,2.26,0,0,0,14.89,121.53Z" transform="translate(1.43 -22.63)"/><path class="cls-5" d="M9.14,107.14H8.7v-2.8a2.18,2.18,0,0,1-.42.3,3.93,3.93,0,0,1-.46.23v-.43a3,3,0,0,0,.65-.42,1.65,1.65,0,0,0,.39-.48h.28Z" transform="translate(1.43 -22.63)"/><path class="cls-5" d="M10.26,105.37a3.17,3.17,0,0,1,.14-1,1.22,1.22,0,0,1,.38-.6,1,1,0,0,1,.65-.21,1.07,1.07,0,0,1,.51.12,1.13,1.13,0,0,1,.36.33,2.35,2.35,0,0,1,.22.53,3.82,3.82,0,0,1,.08.85,3.2,3.2,0,0,1-.13,1,1.36,1.36,0,0,1-.39.6,1,1,0,0,1-.65.21,1,1,0,0,1-.81-.37A2.35,2.35,0,0,1,10.26,105.37Zm.46,0a2.31,2.31,0,0,0,.2,1.17.58.58,0,0,0,1,0,3.36,3.36,0,0,0,0-2.34.6.6,0,0,0-.51-.29.57.57,0,0,0-.49.25A2.3,2.3,0,0,0,10.72,105.37Z" transform="translate(1.43 -22.63)"/><path class="cls-5" d="M13.29,107.14v-.5h.5v.5Z" transform="translate(1.43 -22.63)"/><path class="cls-5" d="M14.43,105.37a3.17,3.17,0,0,1,.14-1,1.22,1.22,0,0,1,.38-.6,1,1,0,0,1,.65-.21,1.07,1.07,0,0,1,.51.12,1.13,1.13,0,0,1,.36.33,2.35,2.35,0,0,1,.22.53,3.82,3.82,0,0,1,.08.85,3.2,3.2,0,0,1-.13,1,1.36,1.36,0,0,1-.39.6,1,1,0,0,1-.65.21,1,1,0,0,1-.81-.37A2.35,2.35,0,0,1,14.43,105.37Zm.46,0a2.31,2.31,0,0,0,.2,1.17.58.58,0,0,0,1,0,3.36,3.36,0,0,0,0-2.34.6.6,0,0,0-.51-.29.57.57,0,0,0-.49.25A2.3,2.3,0,0,0,14.89,105.37Z" transform="translate(1.43 -22.63)"/><path class="cls-5" d="M9.14,90.91H8.7v-2.8a2.18,2.18,0,0,1-.42.3,2.81,2.81,0,0,1-.46.23v-.42a3,3,0,0,0,.65-.42,2,2,0,0,0,.39-.48h.28Z" transform="translate(1.43 -22.63)"/><path class="cls-5" d="M10.26,90l.47,0a.81.81,0,0,0,.23.51.71.71,0,0,0,1-.07.88.88,0,0,0,.22-.63.84.84,0,0,0-.21-.6.74.74,0,0,0-.55-.21A.86.86,0,0,0,11,89a.78.78,0,0,0-.26.25l-.42,0,.35-1.84h1.78v.42H11l-.19,1a1.14,1.14,0,0,1,.67-.22,1.11,1.11,0,0,1,.8.32,1.17,1.17,0,0,1,.32.84,1.32,1.32,0,0,1-.29.84,1.11,1.11,0,0,1-.94.43,1.15,1.15,0,0,1-.79-.27A1.07,1.07,0,0,1,10.26,90Z" transform="translate(1.43 -22.63)"/><path class="cls-5" d="M13.29,90.91v-.5h.5v.5Z" transform="translate(1.43 -22.63)"/><path class="cls-5" d="M14.43,89.15a3.19,3.19,0,0,1,.14-1,1.24,1.24,0,0,1,.38-.59,1,1,0,0,1,.65-.21,1.19,1.19,0,0,1,.51.11,1.06,1.06,0,0,1,.36.34,2,2,0,0,1,.22.53,3.76,3.76,0,0,1,.08.85,3.14,3.14,0,0,1-.13,1,1.31,1.31,0,0,1-.39.6,1,1,0,0,1-.65.21,1,1,0,0,1-.81-.37A2.32,2.32,0,0,1,14.43,89.15Zm.46,0a2.36,2.36,0,0,0,.2,1.17.59.59,0,0,0,1,0,3.39,3.39,0,0,0,0-2.35.62.62,0,0,0-.51-.29.58.58,0,0,0-.49.26A2.3,2.3,0,0,0,14.89,89.15Z" transform="translate(1.43 -22.63)"/><path class="cls-5" d="M9.79,74.33v.42H7.43a.65.65,0,0,1,.05-.31A1.58,1.58,0,0,1,7.77,74a3.81,3.81,0,0,1,.57-.54,4.87,4.87,0,0,0,.79-.76.92.92,0,0,0,.21-.53.6.6,0,0,0-.19-.44.67.67,0,0,0-.49-.18.65.65,0,0,0-.5.19.71.71,0,0,0-.2.53l-.45,0a1.12,1.12,0,0,1,.35-.77,1.17,1.17,0,0,1,.81-.27,1.14,1.14,0,0,1,.82.29.94.94,0,0,1,.3.71,1.06,1.06,0,0,1-.09.42,1.66,1.66,0,0,1-.29.44,8.11,8.11,0,0,1-.68.63l-.51.45a1.88,1.88,0,0,0-.18.24Z" transform="translate(1.43 -22.63)"/><path class="cls-5" d="M10.26,73a3.17,3.17,0,0,1,.14-1,1.22,1.22,0,0,1,.38-.6,1,1,0,0,1,.65-.21,1.07,1.07,0,0,1,.51.12,1.13,1.13,0,0,1,.36.33,2.25,2.25,0,0,1,.22.54,3.72,3.72,0,0,1,.08.84,3.2,3.2,0,0,1-.13,1,1.31,1.31,0,0,1-.39.6,1,1,0,0,1-.65.21,1,1,0,0,1-.81-.37A2.33,2.33,0,0,1,10.26,73Zm.46,0a2.38,2.38,0,0,0,.2,1.18.59.59,0,0,0,1,0A2.25,2.25,0,0,0,12.15,73a2.18,2.18,0,0,0-.21-1.17.62.62,0,0,0-.51-.29.57.57,0,0,0-.49.25A2.33,2.33,0,0,0,10.72,73Z" transform="translate(1.43 -22.63)"/><path class="cls-5" d="M13.29,74.75v-.5h.5v.5Z" transform="translate(1.43 -22.63)"/><path class="cls-5" d="M14.43,73a3.17,3.17,0,0,1,.14-1,1.22,1.22,0,0,1,.38-.6,1,1,0,0,1,.65-.21,1.07,1.07,0,0,1,.51.12,1.13,1.13,0,0,1,.36.33,2.25,2.25,0,0,1,.22.54,3.72,3.72,0,0,1,.08.84,3.2,3.2,0,0,1-.13,1,1.31,1.31,0,0,1-.39.6,1,1,0,0,1-.65.21,1,1,0,0,1-.81-.37A2.33,2.33,0,0,1,14.43,73Zm.46,0a2.38,2.38,0,0,0,.2,1.18.59.59,0,0,0,1,0A2.25,2.25,0,0,0,16.32,73a2.18,2.18,0,0,0-.21-1.17.62.62,0,0,0-.51-.29.57.57,0,0,0-.49.25A2.33,2.33,0,0,0,14.89,73Z" transform="translate(1.43 -22.63)"/><path class="cls-5" d="M9.79,58.1v.42H7.43a.63.63,0,0,1,.05-.3,1.76,1.76,0,0,1,.29-.48,5.2,5.2,0,0,1,.57-.54,4.48,4.48,0,0,0,.79-.76.88.88,0,0,0,.21-.53.61.61,0,0,0-.19-.44.67.67,0,0,0-.49-.18.69.69,0,0,0-.5.19A.72.72,0,0,0,8,56l-.45,0a1.1,1.1,0,0,1,.35-.77,1.17,1.17,0,0,1,.81-.27,1.14,1.14,0,0,1,.82.29.92.92,0,0,1,.3.7,1.07,1.07,0,0,1-.09.43,1.62,1.62,0,0,1-.29.43,5.7,5.7,0,0,1-.68.63l-.51.45A1.88,1.88,0,0,0,8,58.1Z" transform="translate(1.43 -22.63)"/><path class="cls-5" d="M10.26,57.59l.47,0a.81.81,0,0,0,.23.5.63.63,0,0,0,.45.17A.68.68,0,0,0,12,58a.86.86,0,0,0,.22-.63.8.8,0,0,0-.21-.59.71.71,0,0,0-.55-.22.76.76,0,0,0-.39.1.63.63,0,0,0-.26.25l-.42-.06L10.69,55h1.78v.42H11l-.19,1a1.15,1.15,0,0,1,.67-.23,1.08,1.08,0,0,1,.8.33,1.13,1.13,0,0,1,.32.83,1.32,1.32,0,0,1-.29.84,1.12,1.12,0,0,1-.94.44,1.15,1.15,0,0,1-.79-.28A1,1,0,0,1,10.26,57.59Z" transform="translate(1.43 -22.63)"/><path class="cls-5" d="M13.29,58.52V58h.5v.5Z" transform="translate(1.43 -22.63)"/><path class="cls-5" d="M14.43,56.76a3.17,3.17,0,0,1,.14-1,1.22,1.22,0,0,1,.38-.6,1,1,0,0,1,.65-.21,1.07,1.07,0,0,1,.51.12,1,1,0,0,1,.36.33,2.17,2.17,0,0,1,.22.53,3.76,3.76,0,0,1,.08.85,3.2,3.2,0,0,1-.13,1,1.33,1.33,0,0,1-.39.59,1,1,0,0,1-.65.22,1,1,0,0,1-.81-.38A2.3,2.3,0,0,1,14.43,56.76Zm.46,0a2.31,2.31,0,0,0,.2,1.17.59.59,0,0,0,1,0,2.18,2.18,0,0,0,.21-1.17,2.25,2.25,0,0,0-.21-1.18.62.62,0,0,0-.51-.29.58.58,0,0,0-.49.26A2.3,2.3,0,0,0,14.89,56.76Z" transform="translate(1.43 -22.63)"/><path class="cls-5" d="M7.49,41.42l.44-.06a1,1,0,0,0,.25.54.64.64,0,0,0,.45.16.72.72,0,0,0,.52-.21.75.75,0,0,0,.21-.54.69.69,0,0,0-.19-.5.7.7,0,0,0-.51-.19,1,1,0,0,0-.31.05l.05-.39h.07A.9.9,0,0,0,9,40.14a.5.5,0,0,0,.22-.45.52.52,0,0,0-.16-.4.57.57,0,0,0-.42-.16.59.59,0,0,0-.43.16.83.83,0,0,0-.22.48l-.44-.07A1.11,1.11,0,0,1,7.9,39a1.05,1.05,0,0,1,.71-.24,1.25,1.25,0,0,1,.54.12.9.9,0,0,1,.37.35.84.84,0,0,1,.13.46.79.79,0,0,1-.12.42.8.8,0,0,1-.37.3.79.79,0,0,1,.49.31.88.88,0,0,1,.18.57,1.05,1.05,0,0,1-.34.8,1.2,1.2,0,0,1-.87.32,1.12,1.12,0,0,1-.78-.28A1.06,1.06,0,0,1,7.49,41.42Z" transform="translate(1.43 -22.63)"/><path class="cls-5" d="M10.26,40.6a3.19,3.19,0,0,1,.14-1,1.24,1.24,0,0,1,.38-.59,1,1,0,0,1,.65-.21,1.19,1.19,0,0,1,.51.11,1.06,1.06,0,0,1,.36.34,2,2,0,0,1,.22.53,3.76,3.76,0,0,1,.08.85,3.14,3.14,0,0,1-.13,1,1.31,1.31,0,0,1-.39.6,1,1,0,0,1-.65.21,1,1,0,0,1-.81-.37A2.32,2.32,0,0,1,10.26,40.6Zm.46,0a2.36,2.36,0,0,0,.2,1.17.59.59,0,0,0,1,0,2.23,2.23,0,0,0,.21-1.17,2.25,2.25,0,0,0-.21-1.18.62.62,0,0,0-.51-.29.58.58,0,0,0-.49.26A2.3,2.3,0,0,0,10.72,40.6Z" transform="translate(1.43 -22.63)"/><path class="cls-5" d="M13.29,42.36v-.5h.5v.5Z" transform="translate(1.43 -22.63)"/><path class="cls-5" d="M14.43,40.6a3.19,3.19,0,0,1,.14-1A1.24,1.24,0,0,1,15,39a1,1,0,0,1,.65-.21,1.19,1.19,0,0,1,.51.11,1.06,1.06,0,0,1,.36.34,2,2,0,0,1,.22.53,3.76,3.76,0,0,1,.08.85,3.14,3.14,0,0,1-.13,1,1.31,1.31,0,0,1-.39.6,1,1,0,0,1-.65.21,1,1,0,0,1-.81-.37A2.32,2.32,0,0,1,14.43,40.6Zm.46,0a2.36,2.36,0,0,0,.2,1.17.59.59,0,0,0,1,0,2.23,2.23,0,0,0,.21-1.17,2.25,2.25,0,0,0-.21-1.18.62.62,0,0,0-.51-.29.58.58,0,0,0-.49.26A2.3,2.3,0,0,0,14.89,40.6Z" transform="translate(1.43 -22.63)"/><path class="cls-5" d="M7.49,25.28l.44-.06a1,1,0,0,0,.25.54.72.72,0,0,0,1-.06.72.72,0,0,0,.21-.53.68.68,0,0,0-.19-.5.7.7,0,0,0-.51-.19,1,1,0,0,0-.31.05l.05-.39h.07A.89.89,0,0,0,9,24a.5.5,0,0,0,.22-.45.52.52,0,0,0-.16-.4A.57.57,0,0,0,8.62,23a.59.59,0,0,0-.43.16.83.83,0,0,0-.22.48l-.44-.08a1.11,1.11,0,0,1,.37-.68,1.05,1.05,0,0,1,.71-.24,1.25,1.25,0,0,1,.54.12.9.9,0,0,1,.37.35.82.82,0,0,1,.13.46.79.79,0,0,1-.12.42.8.8,0,0,1-.37.3.79.79,0,0,1,.49.31.88.88,0,0,1,.18.57,1.05,1.05,0,0,1-.34.8,1.2,1.2,0,0,1-.87.32A1.12,1.12,0,0,1,7.84,26,1.06,1.06,0,0,1,7.49,25.28Z" transform="translate(1.43 -22.63)"/><path class="cls-5" d="M10.26,25.28l.47,0a.81.81,0,0,0,.23.51.71.71,0,0,0,1-.07.88.88,0,0,0,.22-.63.84.84,0,0,0-.21-.6.74.74,0,0,0-.55-.21.86.86,0,0,0-.39.09.78.78,0,0,0-.26.25l-.42,0,.35-1.84h1.78v.42H11l-.19,1a1.14,1.14,0,0,1,.67-.22,1.11,1.11,0,0,1,.8.32,1.17,1.17,0,0,1,.32.84,1.32,1.32,0,0,1-.29.84,1.11,1.11,0,0,1-.94.43,1.15,1.15,0,0,1-.79-.27A1.07,1.07,0,0,1,10.26,25.28Z" transform="translate(1.43 -22.63)"/><path class="cls-5" d="M13.29,26.22v-.5h.5v.5Z" transform="translate(1.43 -22.63)"/><path class="cls-5" d="M14.43,24.45a3.17,3.17,0,0,1,.14-1,1.24,1.24,0,0,1,.38-.59,1,1,0,0,1,.65-.21.95.95,0,0,1,.87.45,2,2,0,0,1,.22.53,3.72,3.72,0,0,1,.08.84,3.2,3.2,0,0,1-.13,1,1.31,1.31,0,0,1-.39.6,1,1,0,0,1-.65.21,1,1,0,0,1-.81-.37A2.33,2.33,0,0,1,14.43,24.45Zm.46,0a2.38,2.38,0,0,0,.2,1.18.59.59,0,0,0,1,0,2.25,2.25,0,0,0,.21-1.18,2.2,2.2,0,0,0-.21-1.17A.62.62,0,0,0,15.6,23a.58.58,0,0,0-.49.26A2.26,2.26,0,0,0,14.89,24.45Z" transform="translate(1.43 -22.63)"/><polyline class="繝医Ν繧ｯ繧ｰ繝ｩ繝廟繧ｰ繝ｬ繝ｼ邱" points="19.86 79.44 27.29 79.44 34.73 79.44 49.62 79.44 64.49 79.44 79.36 88.49 94.25 93.9 109.13 97.53"/><rect class="邱喟0.5pt" x="19.86" y="2.18" width="89.29" height="113.39"/></g><g id="English"><rect class="繝後Μ_逋ｽ" x="24.43" y="92.39" width="41.46" height="16.58"/><path class="cls-5" d="M28.38,119.75l.62.15a2.07,2.07,0,0,1-.7,1.16,1.88,1.88,0,0,1-1.23.4,2.14,2.14,0,0,1-1.22-.31,2,2,0,0,1-.72-.88,3.27,3.27,0,0,1-.24-1.25,2.8,2.8,0,0,1,.27-1.27,1.9,1.9,0,0,1,.79-.82,2.31,2.31,0,0,1,1.13-.28,2,2,0,0,1,1.18.35,1.87,1.87,0,0,1,.66,1l-.61.15a1.34,1.34,0,0,0-.47-.74,1.2,1.2,0,0,0-.77-.24,1.52,1.52,0,0,0-.9.26,1.3,1.3,0,0,0-.5.69,2.73,2.73,0,0,0-.15.89,2.94,2.94,0,0,0,.17,1,1.28,1.28,0,0,0,.54.66,1.47,1.47,0,0,0,.79.22,1.32,1.32,0,0,0,.88-.3A1.48,1.48,0,0,0,28.38,119.75Z" transform="translate(1.43 -22.63)"/><path class="cls-5" d="M29.47,119.69a1.75,1.75,0,0,1,.52-1.38,1.58,1.58,0,0,1,1.06-.38,1.48,1.48,0,0,1,1.14.46,1.74,1.74,0,0,1,.44,1.26,2.38,2.38,0,0,1-.19,1,1.45,1.45,0,0,1-.57.58,1.64,1.64,0,0,1-.82.21,1.52,1.52,0,0,1-1.14-.46A1.82,1.82,0,0,1,29.47,119.69Zm.59,0a1.41,1.41,0,0,0,.28,1,.91.91,0,0,0,.71.33.89.89,0,0,0,.71-.33,1.45,1.45,0,0,0,.28-1,1.37,1.37,0,0,0-.28-.94.95.95,0,0,0-1.42,0A1.39,1.39,0,0,0,30.06,119.69Z" transform="translate(1.43 -22.63)"/><path class="cls-5" d="M33.3,121.38V118h.51v.48a1.23,1.23,0,0,1,1.08-.56,1.47,1.47,0,0,1,.56.11,1,1,0,0,1,.38.29,1.33,1.33,0,0,1,.18.42,3.51,3.51,0,0,1,0,.56v2.07h-.57v-2a1.38,1.38,0,0,0-.07-.52.5.5,0,0,0-.24-.28.71.71,0,0,0-.39-.1.88.88,0,0,0-.63.23,1.13,1.13,0,0,0-.27.88v1.84Z" transform="translate(1.43 -22.63)"/><path class="cls-5" d="M38.16,120.87l.08.5a1.72,1.72,0,0,1-.43,0,1.05,1.05,0,0,1-.48-.09.66.66,0,0,1-.24-.26,2,2,0,0,1-.07-.68v-1.94H36.6V118H37v-.84l.57-.34V118h.57v.44h-.57v2a1,1,0,0,0,0,.32.26.26,0,0,0,.1.11.34.34,0,0,0,.19,0Z" transform="translate(1.43 -22.63)"/><path class="cls-5" d="M38.72,117.38v-.65h.58v.65Zm0,4V118h.58v3.37Z" transform="translate(1.43 -22.63)"/><path class="cls-5" d="M40.17,121.38V118h.51v.48a1.21,1.21,0,0,1,1.07-.56,1.43,1.43,0,0,1,.56.11.89.89,0,0,1,.38.29,1,1,0,0,1,.18.42,3.51,3.51,0,0,1,0,.56v2.07h-.57v-2a1.67,1.67,0,0,0-.06-.52.6.6,0,0,0-.24-.28.74.74,0,0,0-.4-.1.91.91,0,0,0-.63.23,1.13,1.13,0,0,0-.26.88v1.84Z" transform="translate(1.43 -22.63)"/><path class="cls-5" d="M46,121.38v-.5a1.24,1.24,0,0,1-1.07.58,1.34,1.34,0,0,1-.56-.12.89.89,0,0,1-.38-.29,1.16,1.16,0,0,1-.18-.42,3.33,3.33,0,0,1,0-.53V118h.57v1.87a3.77,3.77,0,0,0,0,.6.62.62,0,0,0,.23.35A.69.69,0,0,0,45,121a.92.92,0,0,0,.49-.13.79.79,0,0,0,.32-.36,1.86,1.86,0,0,0,.09-.66V118h.57v3.37Z" transform="translate(1.43 -22.63)"/><path class="cls-5" d="M47.18,119.69a1.75,1.75,0,0,1,.52-1.38,1.58,1.58,0,0,1,1.06-.38,1.48,1.48,0,0,1,1.14.46,1.74,1.74,0,0,1,.44,1.26,2.38,2.38,0,0,1-.19,1,1.45,1.45,0,0,1-.57.58,1.64,1.64,0,0,1-.82.21,1.52,1.52,0,0,1-1.14-.46A1.82,1.82,0,0,1,47.18,119.69Zm.59,0a1.41,1.41,0,0,0,.28,1,.91.91,0,0,0,.71.33.89.89,0,0,0,.71-.33,1.45,1.45,0,0,0,.28-1,1.37,1.37,0,0,0-.28-.94.95.95,0,0,0-1.42,0A1.39,1.39,0,0,0,47.77,119.69Z" transform="translate(1.43 -22.63)"/><path class="cls-5" d="M53.22,121.38v-.5a1.24,1.24,0,0,1-1.07.58,1.34,1.34,0,0,1-.56-.12.89.89,0,0,1-.38-.29,1.16,1.16,0,0,1-.18-.42,3.33,3.33,0,0,1,0-.53V118h.57v1.87a3.77,3.77,0,0,0,0,.6.62.62,0,0,0,.23.35.69.69,0,0,0,.43.13.92.92,0,0,0,.49-.13.79.79,0,0,0,.32-.36,1.86,1.86,0,0,0,.09-.66V118h.57v3.37Z" transform="translate(1.43 -22.63)"/><path class="cls-5" d="M54.4,120.37l.56-.09a.76.76,0,0,0,.27.52.85.85,0,0,0,.6.19.94.94,0,0,0,.59-.16.52.52,0,0,0,.19-.38.37.37,0,0,0-.17-.31,2.66,2.66,0,0,0-.58-.19,7.72,7.72,0,0,1-.88-.27.87.87,0,0,1-.36-.32.82.82,0,0,1-.13-.46.92.92,0,0,1,.1-.41.89.89,0,0,1,.29-.32,1.1,1.1,0,0,1,.36-.17,1.93,1.93,0,0,1,.49-.07,1.86,1.86,0,0,1,.7.12.88.88,0,0,1,.44.31,1.18,1.18,0,0,1,.2.52l-.56.07a.59.59,0,0,0-.22-.4.79.79,0,0,0-.52-.15,1,1,0,0,0-.56.13.4.4,0,0,0-.17.31.37.37,0,0,0,.07.2.53.53,0,0,0,.22.15l.51.15a5.85,5.85,0,0,1,.84.26.88.88,0,0,1,.38.3.84.84,0,0,1,.14.49,1,1,0,0,1-.17.54,1.11,1.11,0,0,1-.48.39,1.8,1.8,0,0,1-.71.14,1.59,1.59,0,0,1-1-.28A1.24,1.24,0,0,1,54.4,120.37Z" transform="translate(1.43 -22.63)"/><path class="cls-5" d="M25,129.18v-3.37h.52v.51a1.31,1.31,0,0,1,.36-.47.63.63,0,0,1,.37-.12,1.08,1.08,0,0,1,.59.19l-.2.53a.76.76,0,0,0-.42-.13.52.52,0,0,0-.34.12.54.54,0,0,0-.21.31,2.29,2.29,0,0,0-.09.66v1.77Z" transform="translate(1.43 -22.63)"/><path class="cls-5" d="M29.36,129.18v-.5a1.23,1.23,0,0,1-1.06.58,1.31,1.31,0,0,1-.56-.12.87.87,0,0,1-.56-.71,2.3,2.3,0,0,1,0-.53v-2.09h.57v1.87a3.41,3.41,0,0,0,0,.6.54.54,0,0,0,.23.35.67.67,0,0,0,.43.13.91.91,0,0,0,.48-.13.74.74,0,0,0,.32-.36,1.86,1.86,0,0,0,.09-.66v-1.8h.58v3.37Z" transform="translate(1.43 -22.63)"/><path class="cls-5" d="M30.77,129.18v-3.37h.51v.48a1.23,1.23,0,0,1,1.08-.56,1.47,1.47,0,0,1,.56.11.89.89,0,0,1,.38.29,1.33,1.33,0,0,1,.18.42,3.51,3.51,0,0,1,0,.56v2.07h-.57v-2.05a1.38,1.38,0,0,0-.07-.52.5.5,0,0,0-.24-.28.71.71,0,0,0-.39-.1.88.88,0,0,0-.63.23,1.13,1.13,0,0,0-.27.88v1.84Z" transform="translate(1.43 -22.63)"/><path class="cls-5" d="M34.39,129.18v-3.37h.51v.48a1.21,1.21,0,0,1,1.07-.56,1.43,1.43,0,0,1,.56.11,1,1,0,0,1,.39.29,1.13,1.13,0,0,1,.17.42,3.51,3.51,0,0,1,0,.56v2.07h-.57v-2.05a1.67,1.67,0,0,0-.06-.52.6.6,0,0,0-.24-.28.74.74,0,0,0-.4-.1.91.91,0,0,0-.63.23,1.17,1.17,0,0,0-.26.88v1.84Z" transform="translate(1.43 -22.63)"/><path class="cls-5" d="M38,125.18v-.65h.57v.65Zm0,4v-3.37h.57v3.37Z" transform="translate(1.43 -22.63)"/><path class="cls-5" d="M39.44,129.18v-3.37H40v.48a1.21,1.21,0,0,1,1.07-.56,1.47,1.47,0,0,1,.56.11.89.89,0,0,1,.38.29,1,1,0,0,1,.18.42,3.51,3.51,0,0,1,0,.56v2.07h-.57v-2.05a1.67,1.67,0,0,0-.06-.52.6.6,0,0,0-.24-.28.74.74,0,0,0-.4-.1.91.91,0,0,0-.63.23,1.13,1.13,0,0,0-.26.88v1.84Z" transform="translate(1.43 -22.63)"/><path class="cls-5" d="M43,129.46l.56.08a.56.56,0,0,0,.19.38,1,1,0,0,0,.58.15,1.09,1.09,0,0,0,.62-.15.82.82,0,0,0,.29-.45,3.76,3.76,0,0,0,0-.73,1.18,1.18,0,0,1-.93.44,1.28,1.28,0,0,1-1.08-.5,2,2,0,0,1-.38-1.21,2.21,2.21,0,0,1,.18-.89,1.37,1.37,0,0,1,.5-.63,1.43,1.43,0,0,1,.78-.22,1.19,1.19,0,0,1,1,.48v-.4h.53v2.91a2.72,2.72,0,0,1-.16,1.12,1.22,1.22,0,0,1-.51.52,1.81,1.81,0,0,1-.85.19,1.65,1.65,0,0,1-1-.27A1,1,0,0,1,43,129.46Zm.48-2a1.48,1.48,0,0,0,.26,1,.86.86,0,0,0,.66.31.83.83,0,0,0,.66-.31,1.4,1.4,0,0,0,.27-1,1.34,1.34,0,0,0-.28-.93.83.83,0,0,0-.66-.31.85.85,0,0,0-.65.3A1.44,1.44,0,0,0,43.43,127.43Z" transform="translate(1.43 -22.63)"/><path class="cls-5" d="M48.47,129.18v-3.37H49v.51a1.31,1.31,0,0,1,.36-.47.63.63,0,0,1,.37-.12,1.08,1.08,0,0,1,.59.19l-.2.53a.76.76,0,0,0-.42-.13.52.52,0,0,0-.34.12.54.54,0,0,0-.21.31,2.29,2.29,0,0,0-.09.66v1.77Z" transform="translate(1.43 -22.63)"/><path class="cls-5" d="M52.84,128.76a2,2,0,0,1-.61.38,1.61,1.61,0,0,1-.63.12,1.18,1.18,0,0,1-.85-.28.89.89,0,0,1-.3-.69.92.92,0,0,1,.41-.78,1.72,1.72,0,0,1,.41-.19,3,3,0,0,1,.51-.08,5.33,5.33,0,0,0,1-.2v-.15a.61.61,0,0,0-.16-.49,1,1,0,0,0-.65-.19,1,1,0,0,0-.6.14.83.83,0,0,0-.28.5l-.56-.08a1.34,1.34,0,0,1,.25-.58,1.07,1.07,0,0,1,.51-.34,2.48,2.48,0,0,1,1.46,0,1,1,0,0,1,.4.26,1,1,0,0,1,.18.39c0,.1,0,.27,0,.53v.76a8.6,8.6,0,0,0,0,1,1.19,1.19,0,0,0,.15.41H53A1.29,1.29,0,0,1,52.84,128.76Zm0-1.27a4.63,4.63,0,0,1-.94.21,2.45,2.45,0,0,0-.49.12.47.47,0,0,0-.23.18.5.5,0,0,0-.08.27.52.52,0,0,0,.17.39.78.78,0,0,0,.51.15,1.15,1.15,0,0,0,.59-.15.82.82,0,0,0,.37-.39,1.24,1.24,0,0,0,.1-.57Z" transform="translate(1.43 -22.63)"/><path class="cls-5" d="M54.26,129.18v-3.37h.51v.48a1.23,1.23,0,0,1,1.08-.56,1.47,1.47,0,0,1,.56.11,1,1,0,0,1,.38.29,1.33,1.33,0,0,1,.18.42,3.51,3.51,0,0,1,0,.56v2.07h-.57v-2.05a1.38,1.38,0,0,0-.07-.52.5.5,0,0,0-.24-.28.71.71,0,0,0-.39-.1.88.88,0,0,0-.63.23,1.13,1.13,0,0,0-.27.88v1.84Z" transform="translate(1.43 -22.63)"/><path class="cls-5" d="M57.77,129.46l.56.08a.52.52,0,0,0,.19.38,1,1,0,0,0,.58.15,1.06,1.06,0,0,0,.61-.15.77.77,0,0,0,.29-.45,3.49,3.49,0,0,0,0-.73,1.19,1.19,0,0,1-.94.44,1.27,1.27,0,0,1-1.07-.5,1.92,1.92,0,0,1-.38-1.21,2.21,2.21,0,0,1,.17-.89,1.46,1.46,0,0,1,.51-.63,1.43,1.43,0,0,1,.78-.22,1.22,1.22,0,0,1,1,.48v-.4h.53v2.91a2.9,2.9,0,0,1-.16,1.12,1.22,1.22,0,0,1-.51.52,1.85,1.85,0,0,1-.86.19,1.61,1.61,0,0,1-1-.27A.93.93,0,0,1,57.77,129.46Zm.47-2a1.42,1.42,0,0,0,.27,1,.86.86,0,0,0,1.32,0,1.46,1.46,0,0,0,.26-1,1.39,1.39,0,0,0-.27-.93.86.86,0,0,0-1.31,0A1.38,1.38,0,0,0,58.24,127.43Z" transform="translate(1.43 -22.63)"/><path class="cls-5" d="M63.8,128.09l.59.08a1.5,1.5,0,0,1-.52.8,1.54,1.54,0,0,1-1,.29,1.57,1.57,0,0,1-1.18-.46,1.77,1.77,0,0,1-.43-1.28,1.9,1.9,0,0,1,.44-1.32,1.58,1.58,0,0,1,2.24,0,1.87,1.87,0,0,1,.43,1.3,1,1,0,0,1,0,.15H61.89a1.34,1.34,0,0,0,.31.85.94.94,0,0,0,.71.3.84.84,0,0,0,.53-.17A1.13,1.13,0,0,0,63.8,128.09Zm-1.88-.92H63.8a1.1,1.1,0,0,0-.21-.64.88.88,0,0,0-.71-.33.9.9,0,0,0-.66.27A1,1,0,0,0,61.92,127.17Z" transform="translate(1.43 -22.63)"/><rect class="繝後Μ_逋ｽ" x="23.68" y="47.04" width="47.91" height="16.58"/><path class="cls-5" d="M24.75,74.53l.59,0a1.2,1.2,0,0,0,.19.57,1,1,0,0,0,.47.36,1.61,1.61,0,0,0,.71.14,1.72,1.72,0,0,0,.62-.1.89.89,0,0,0,.4-.29.67.67,0,0,0,0-.78,1.06,1.06,0,0,0-.42-.28c-.13,0-.4-.12-.83-.22a4.09,4.09,0,0,1-.9-.29,1.18,1.18,0,0,1-.49-.44,1,1,0,0,1-.17-.58,1.18,1.18,0,0,1,.2-.65,1.27,1.27,0,0,1,.59-.47,2.3,2.3,0,0,1,.85-.16,2.34,2.34,0,0,1,.91.17,1.3,1.3,0,0,1,.61.49,1.43,1.43,0,0,1,.23.73l-.59,0a1,1,0,0,0-.32-.67,1.29,1.29,0,0,0-.82-.22,1.27,1.27,0,0,0-.81.2.61.61,0,0,0-.25.49.54.54,0,0,0,.18.42,2.5,2.5,0,0,0,.92.33,5,5,0,0,1,1,.3,1.28,1.28,0,0,1,.6.47,1.14,1.14,0,0,1,.2.66,1.21,1.21,0,0,1-.22.7,1.34,1.34,0,0,1-.61.51,2.11,2.11,0,0,1-.89.18,2.73,2.73,0,0,1-1.06-.18,1.46,1.46,0,0,1-.67-.55A1.63,1.63,0,0,1,24.75,74.53Z" transform="translate(1.43 -22.63)"/><path class="cls-5" d="M29.23,76V71.37h.57V73a1.26,1.26,0,0,1,1-.46,1.36,1.36,0,0,1,.65.15.84.84,0,0,1,.39.4,1.91,1.91,0,0,1,.12.76V76H31.4V73.89a.84.84,0,0,0-.19-.62.67.67,0,0,0-.52-.2.91.91,0,0,0-.48.13.79.79,0,0,0-.32.36,1.73,1.73,0,0,0-.09.62V76Z" transform="translate(1.43 -22.63)"/><path class="cls-5" d="M32.63,74.34A1.74,1.74,0,0,1,33.15,73a1.69,1.69,0,0,1,2.2.08,1.77,1.77,0,0,1,.44,1.26,2.24,2.24,0,0,1-.2,1,1.36,1.36,0,0,1-.57.57,1.63,1.63,0,0,1-.81.21,1.51,1.51,0,0,1-1.14-.45A1.79,1.79,0,0,1,32.63,74.34Zm.59,0a1.44,1.44,0,0,0,.28,1,.91.91,0,0,0,.71.32.93.93,0,0,0,.71-.32,1.48,1.48,0,0,0,.28-1,1.45,1.45,0,0,0-.28-.95.93.93,0,0,0-.71-.32.91.91,0,0,0-.71.32A1.44,1.44,0,0,0,33.22,74.34Z" transform="translate(1.43 -22.63)"/><path class="cls-5" d="M36.45,76V72.65H37v.52a1.47,1.47,0,0,1,.37-.48.66.66,0,0,1,.36-.11,1.12,1.12,0,0,1,.59.18l-.2.53a.84.84,0,0,0-.42-.12.57.57,0,0,0-.33.11.62.62,0,0,0-.21.31,2.09,2.09,0,0,0-.1.67V76Z" transform="translate(1.43 -22.63)"/><path class="cls-5" d="M39.87,75.51,40,76a2.37,2.37,0,0,1-.43,0A.9.9,0,0,1,39,76a.53.53,0,0,1-.25-.26,2.19,2.19,0,0,1-.07-.67V73.1h-.41v-.45h.41v-.83l.57-.34v1.17h.58v.45h-.58v2a1,1,0,0,0,0,.31.22.22,0,0,0,.1.11.37.37,0,0,0,.2.05Z" transform="translate(1.43 -22.63)"/><path class="cls-5" d="M40.2,74.63v-.58H42v.58Z" transform="translate(1.43 -22.63)"/><path class="cls-5" d="M44.78,76V75.6a1.07,1.07,0,0,1-1,.5,1.33,1.33,0,0,1-.74-.22,1.51,1.51,0,0,1-.52-.62,2.22,2.22,0,0,1-.19-.92,2.42,2.42,0,0,1,.17-.91,1.34,1.34,0,0,1,1.26-.85,1.08,1.08,0,0,1,.54.13,1,1,0,0,1,.39.33V71.37h.57V76ZM43,74.34a1.48,1.48,0,0,0,.27,1,.83.83,0,0,0,1.29,0,1.46,1.46,0,0,0,.26-.94,1.59,1.59,0,0,0-.27-1,.84.84,0,0,0-.66-.32.78.78,0,0,0-.63.31A1.55,1.55,0,0,0,43,74.34Z" transform="translate(1.43 -22.63)"/><path class="cls-5" d="M48.42,76v-.5a1.25,1.25,0,0,1-1.07.57,1.47,1.47,0,0,1-.56-.11,1.1,1.1,0,0,1-.39-.29,1.13,1.13,0,0,1-.17-.42,2.4,2.4,0,0,1,0-.54V72.65h.57v1.87a3.65,3.65,0,0,0,0,.61.57.57,0,0,0,.23.35.67.67,0,0,0,.43.13.91.91,0,0,0,.48-.13.74.74,0,0,0,.32-.36,1.86,1.86,0,0,0,.09-.66V72.65h.58V76Z" transform="translate(1.43 -22.63)"/><path class="cls-5" d="M49.81,76V72.65h.52v.52a1.47,1.47,0,0,1,.36-.48.7.7,0,0,1,.37-.11,1.15,1.15,0,0,1,.59.18l-.2.53a.84.84,0,0,0-.42-.12.58.58,0,0,0-.34.11.62.62,0,0,0-.21.31,2.41,2.41,0,0,0-.09.67V76Z" transform="translate(1.43 -22.63)"/><path class="cls-5" d="M54.19,75.61a2.12,2.12,0,0,1-.62.38,1.81,1.81,0,0,1-.63.11,1.22,1.22,0,0,1-.85-.27.89.89,0,0,1-.3-.69,1,1,0,0,1,.41-.78,1.18,1.18,0,0,1,.41-.19,4.17,4.17,0,0,1,.51-.09,5.49,5.49,0,0,0,1-.19v-.15a.6.6,0,0,0-.16-.49,1,1,0,0,0-.65-.2,1.06,1.06,0,0,0-.6.14.86.86,0,0,0-.28.5l-.56-.07a1.29,1.29,0,0,1,.25-.58,1.12,1.12,0,0,1,.51-.34,2.2,2.2,0,0,1,.76-.12,2,2,0,0,1,.7.1.93.93,0,0,1,.4.26,1,1,0,0,1,.18.38,3.5,3.5,0,0,1,0,.53v.76a8.82,8.82,0,0,0,0,1,1.27,1.27,0,0,0,.15.41h-.6A1.08,1.08,0,0,1,54.19,75.61Zm0-1.28a4,4,0,0,1-.94.22,2,2,0,0,0-.49.11.55.55,0,0,0-.23.19.5.5,0,0,0,.09.65.78.78,0,0,0,.51.15,1.15,1.15,0,0,0,.59-.14,1,1,0,0,0,.38-.4,1.35,1.35,0,0,0,.09-.57Z" transform="translate(1.43 -22.63)"/><path class="cls-5" d="M56.85,75.51l.08.51a2.37,2.37,0,0,1-.43,0A.9.9,0,0,1,56,76a.53.53,0,0,1-.25-.26A2.19,2.19,0,0,1,55.7,75V73.1h-.41v-.45h.41v-.83l.57-.34v1.17h.58v.45h-.58v2a1,1,0,0,0,0,.31.22.22,0,0,0,.1.11.37.37,0,0,0,.2.05Z" transform="translate(1.43 -22.63)"/><path class="cls-5" d="M57.41,72v-.66H58V72Zm0,4V72.65H58V76Z" transform="translate(1.43 -22.63)"/><path class="cls-5" d="M58.64,74.34A1.74,1.74,0,0,1,59.16,73a1.56,1.56,0,0,1,1.06-.37,1.51,1.51,0,0,1,1.13.45,1.74,1.74,0,0,1,.45,1.26,2.24,2.24,0,0,1-.2,1,1.36,1.36,0,0,1-.57.57,1.63,1.63,0,0,1-.81.21,1.54,1.54,0,0,1-1.15-.45A1.83,1.83,0,0,1,58.64,74.34Zm.59,0a1.44,1.44,0,0,0,.28,1,.91.91,0,0,0,.71.32.93.93,0,0,0,.71-.32,1.54,1.54,0,0,0,.28-1,1.4,1.4,0,0,0-.29-.95.94.94,0,0,0-1.41,0A1.44,1.44,0,0,0,59.23,74.34Z" transform="translate(1.43 -22.63)"/><path class="cls-5" d="M62.47,76V72.65H63v.48a1.2,1.2,0,0,1,1.07-.55,1.43,1.43,0,0,1,.56.11A1,1,0,0,1,65,73a1.11,1.11,0,0,1,.17.43,3.37,3.37,0,0,1,0,.55V76h-.57V74a1.75,1.75,0,0,0-.06-.53.62.62,0,0,0-.24-.27.75.75,0,0,0-.4-.11,1,1,0,0,0-.63.23,1.18,1.18,0,0,0-.26.88V76Z" transform="translate(1.43 -22.63)"/><path class="cls-5" d="M24.88,83.83V80.45h.52V81a1.47,1.47,0,0,1,.36-.48.7.7,0,0,1,.37-.11,1.15,1.15,0,0,1,.59.18l-.2.53A.84.84,0,0,0,26.1,81a.6.6,0,0,0-.34.11.62.62,0,0,0-.21.31,2.41,2.41,0,0,0-.09.67v1.77Z" transform="translate(1.43 -22.63)"/><path class="cls-5" d="M29.26,83.83v-.5a1.23,1.23,0,0,1-1.07.57,1.46,1.46,0,0,1-.55-.11,1.1,1.1,0,0,1-.39-.29,1.13,1.13,0,0,1-.17-.42,2.4,2.4,0,0,1,0-.54V80.45h.57v1.87a3.65,3.65,0,0,0,0,.61.57.57,0,0,0,.23.35.67.67,0,0,0,.43.13.91.91,0,0,0,.48-.13.74.74,0,0,0,.32-.36,1.86,1.86,0,0,0,.09-.66V80.45h.57v3.38Z" transform="translate(1.43 -22.63)"/><path class="cls-5" d="M30.67,83.83V80.45h.51v.48a1.22,1.22,0,0,1,1.08-.55,1.47,1.47,0,0,1,.56.11.94.94,0,0,1,.38.28,1.3,1.3,0,0,1,.18.43,3.37,3.37,0,0,1,0,.55v2.08h-.57v-2a1.44,1.44,0,0,0-.07-.53.52.52,0,0,0-.24-.27.71.71,0,0,0-.39-.11.92.92,0,0,0-.63.23,1.14,1.14,0,0,0-.27.88v1.85Z" transform="translate(1.43 -22.63)"/><path class="cls-5" d="M34.29,83.83V80.45h.51v.48a1.2,1.2,0,0,1,1.07-.55,1.43,1.43,0,0,1,.56.11.88.88,0,0,1,.38.28,1,1,0,0,1,.18.43,3.37,3.37,0,0,1,0,.55v2.08h-.57v-2a1.75,1.75,0,0,0-.06-.53.62.62,0,0,0-.24-.27.75.75,0,0,0-.4-.11,1,1,0,0,0-.63.23,1.14,1.14,0,0,0-.26.88v1.85Z" transform="translate(1.43 -22.63)"/><path class="cls-5" d="M37.9,79.83v-.66h.57v.66Zm0,4V80.45h.57v3.38Z" transform="translate(1.43 -22.63)"/><path class="cls-5" d="M39.34,83.83V80.45h.52v.48a1.2,1.2,0,0,1,1.07-.55,1.47,1.47,0,0,1,.56.11.88.88,0,0,1,.38.28,1,1,0,0,1,.18.43,3.37,3.37,0,0,1,0,.55v2.08h-.57v-2a1.75,1.75,0,0,0-.06-.53.62.62,0,0,0-.24-.27.75.75,0,0,0-.4-.11,1,1,0,0,0-.63.23,1.14,1.14,0,0,0-.26.88v1.85Z" transform="translate(1.43 -22.63)"/><path class="cls-5" d="M42.85,84.1l.56.09a.53.53,0,0,0,.19.37.93.93,0,0,0,.58.16,1,1,0,0,0,.62-.16.76.76,0,0,0,.29-.44,3.89,3.89,0,0,0,0-.74,1.16,1.16,0,0,1-.93.45,1.27,1.27,0,0,1-1.08-.51,1.93,1.93,0,0,1-.38-1.2,2.35,2.35,0,0,1,.17-.89,1.46,1.46,0,0,1,.51-.63,1.35,1.35,0,0,1,.78-.22,1.19,1.19,0,0,1,1,.48v-.41h.53v2.92a2.7,2.7,0,0,1-.16,1.11A1.16,1.16,0,0,1,45,85a1.7,1.7,0,0,1-.85.19,1.65,1.65,0,0,1-1-.27A1,1,0,0,1,42.85,84.1Zm.48-2a1.46,1.46,0,0,0,.26,1,.88.88,0,0,0,1.32,0,1.4,1.4,0,0,0,.27-1,1.34,1.34,0,0,0-.28-.93.84.84,0,0,0-.66-.32.83.83,0,0,0-.65.31A1.42,1.42,0,0,0,43.33,82.08Z" transform="translate(1.43 -22.63)"/><path class="cls-5" d="M48.37,83.83V80.45h.52V81a1.47,1.47,0,0,1,.36-.48.67.67,0,0,1,.37-.11,1.15,1.15,0,0,1,.59.18l-.2.53a.84.84,0,0,0-.42-.12.58.58,0,0,0-.34.11.62.62,0,0,0-.21.31,2.41,2.41,0,0,0-.1.67v1.77Z" transform="translate(1.43 -22.63)"/><path class="cls-5" d="M52.74,83.41a2,2,0,0,1-.61.38,1.81,1.81,0,0,1-.63.11,1.22,1.22,0,0,1-.85-.27.89.89,0,0,1-.3-.69,1,1,0,0,1,.11-.46,1,1,0,0,1,.3-.32,1.18,1.18,0,0,1,.41-.19,4.17,4.17,0,0,1,.51-.09,5.49,5.49,0,0,0,1-.19v-.15a.6.6,0,0,0-.16-.49,1,1,0,0,0-.65-.2,1.06,1.06,0,0,0-.6.14.86.86,0,0,0-.28.5l-.56-.07a1.29,1.29,0,0,1,.25-.58,1.09,1.09,0,0,1,.5-.34,2.3,2.3,0,0,1,.77-.12,2,2,0,0,1,.7.1.93.93,0,0,1,.4.26,1,1,0,0,1,.18.38c0,.1,0,.28,0,.53v.76a8.82,8.82,0,0,0,0,1,1.07,1.07,0,0,0,.15.41h-.6A1.29,1.29,0,0,1,52.74,83.41Zm0-1.28a4,4,0,0,1-.94.22,2,2,0,0,0-.49.11.55.55,0,0,0-.23.19.5.5,0,0,0,.09.65.78.78,0,0,0,.51.15,1.17,1.17,0,0,0,.59-.14.89.89,0,0,0,.37-.4,1.19,1.19,0,0,0,.1-.57Z" transform="translate(1.43 -22.63)"/><path class="cls-5" d="M54.16,83.83V80.45h.51v.48a1.22,1.22,0,0,1,1.08-.55,1.47,1.47,0,0,1,.56.11.94.94,0,0,1,.38.28,1.3,1.3,0,0,1,.18.43,3.37,3.37,0,0,1,0,.55v2.08h-.57v-2a1.44,1.44,0,0,0-.07-.53A.52.52,0,0,0,56,81a.71.71,0,0,0-.39-.11.92.92,0,0,0-.63.23,1.14,1.14,0,0,0-.27.88v1.85Z" transform="translate(1.43 -22.63)"/><path class="cls-5" d="M57.67,84.1l.55.09a.54.54,0,0,0,.2.37.91.91,0,0,0,.58.16,1,1,0,0,0,.61-.16.72.72,0,0,0,.29-.44,3.61,3.61,0,0,0,.05-.74,1.17,1.17,0,0,1-.94.45,1.25,1.25,0,0,1-1.07-.51,1.87,1.87,0,0,1-.38-1.2,2.17,2.17,0,0,1,.17-.89,1.46,1.46,0,0,1,.51-.63,1.35,1.35,0,0,1,.78-.22,1.22,1.22,0,0,1,1,.48v-.41h.53v2.92a2.88,2.88,0,0,1-.16,1.11,1.16,1.16,0,0,1-.51.52,1.74,1.74,0,0,1-.86.19,1.61,1.61,0,0,1-1-.27A.91.91,0,0,1,57.67,84.1Zm.47-2a1.46,1.46,0,0,0,.27,1,.83.83,0,0,0,.66.3.85.85,0,0,0,.66-.3,1.46,1.46,0,0,0,.26-1,1.39,1.39,0,0,0-.27-.93.84.84,0,0,0-.66-.32.81.81,0,0,0-.65.31A1.37,1.37,0,0,0,58.14,82.08Z" transform="translate(1.43 -22.63)"/><path class="cls-5" d="M63.7,82.74l.59.07a1.49,1.49,0,0,1-.52.81,1.54,1.54,0,0,1-1,.28,1.56,1.56,0,0,1-1.18-.45,1.79,1.79,0,0,1-.43-1.28,1.86,1.86,0,0,1,.44-1.32,1.58,1.58,0,0,1,2.24,0,1.86,1.86,0,0,1,.43,1.29s0,.09,0,.16H61.79a1.34,1.34,0,0,0,.31.85,1,1,0,0,0,.71.29.84.84,0,0,0,.53-.16A1.13,1.13,0,0,0,63.7,82.74Zm-1.88-.92H63.7a1.08,1.08,0,0,0-.21-.64.88.88,0,0,0-.71-.33.93.93,0,0,0-.66.26A1.05,1.05,0,0,0,61.82,81.82Z" transform="translate(1.43 -22.63)"/><path class="cls-5" d="M3.22,99H-.88v1.53h-.55V96.82h.55v1.54h4.1Z" transform="translate(1.43 -22.63)"/><path class="cls-5" d="M1.54,96.48A1.76,1.76,0,0,1,.15,96,1.58,1.58,0,0,1-.22,94.9a1.51,1.51,0,0,1,.45-1.14,1.76,1.76,0,0,1,1.26-.44,2.24,2.24,0,0,1,1,.19,1.39,1.39,0,0,1,.58.57,1.64,1.64,0,0,1,.21.82A1.51,1.51,0,0,1,2.85,96,1.84,1.84,0,0,1,1.54,96.48Zm0-.59a1.44,1.44,0,0,0,1-.28.93.93,0,0,0,.32-.71.91.91,0,0,0-.32-.71,1.48,1.48,0,0,0-1-.28,1.4,1.4,0,0,0-.95.28.95.95,0,0,0,0,1.42A1.42,1.42,0,0,0,1.54,95.89Z" transform="translate(1.43 -22.63)"/><path class="cls-5" d="M3.22,92.66H-.15v-.52H.36a1.41,1.41,0,0,1-.47-.36.62.62,0,0,1-.11-.37A1.15,1.15,0,0,1,0,90.82l.53.2a.84.84,0,0,0-.12.42.51.51,0,0,0,.11.34A.58.58,0,0,0,.79,92a2.36,2.36,0,0,0,.67.09H3.22Z" transform="translate(1.43 -22.63)"/><path class="cls-5" d="M4.51,88.34H2.86a1.06,1.06,0,0,1,.32.37,1.13,1.13,0,0,1,.12.51,1.34,1.34,0,0,1-.48,1,1.88,1.88,0,0,1-1.31.43,2.25,2.25,0,0,1-.92-.17A1.4,1.4,0,0,1,0,90a1.47,1.47,0,0,1-.2-.74,1.13,1.13,0,0,1,.52-1H-.15v-.52H4.51Zm-3,1.76a1.42,1.42,0,0,0,1-.28.82.82,0,0,0,.33-.65.8.8,0,0,0-.31-.63,1.46,1.46,0,0,0-.94-.26,1.52,1.52,0,0,0-1,.28.8.8,0,0,0-.34.65.78.78,0,0,0,.31.63A1.56,1.56,0,0,0,1.53,90.1Z" transform="translate(1.43 -22.63)"/><path class="cls-5" d="M3.22,84.66H2.73a1.23,1.23,0,0,1,.57,1.07,1.31,1.31,0,0,1-.12.56.88.88,0,0,1-.28.38,1.3,1.3,0,0,1-.43.18,3.33,3.33,0,0,1-.53,0H-.15v-.57H1.72a3.77,3.77,0,0,0,.6,0,.65.65,0,0,0,.36-.23.75.75,0,0,0,.13-.43,1,1,0,0,0-.13-.49.72.72,0,0,0-.36-.31,1.63,1.63,0,0,0-.66-.1H-.15v-.57H3.22Z" transform="translate(1.43 -22.63)"/><path class="cls-5" d="M2.14,81l.07-.59a1.4,1.4,0,0,1,.8.51,1.6,1.6,0,0,1,.29,1A1.52,1.52,0,0,1,2.84,83a1.77,1.77,0,0,1-1.27.44A1.86,1.86,0,0,1,.25,83a1.46,1.46,0,0,1-.47-1.14,1.41,1.41,0,0,1,.46-1.1,1.78,1.78,0,0,1,1.29-.43h.15v2.51a1.26,1.26,0,0,0,.85-.31.92.92,0,0,0,.3-.7.89.89,0,0,0-.17-.54A1,1,0,0,0,2.14,81Zm-.93,1.87V80.94a1.14,1.14,0,0,0-.63.22.86.86,0,0,0-.33.7.9.9,0,0,0,.26.67A1,1,0,0,0,1.21,82.82Z" transform="translate(1.43 -22.63)"/><path class="cls-5" d="M4.51,77.82H-1.43V76.56H-1v.69H4v-.69h.47Z" transform="translate(1.43 -22.63)"/><path class="cls-5" d="M3.22,76H-1.43v-.63l3.65-2.44H-1.43V72.3H3.22v.63L-.43,75.37H3.22Z" transform="translate(1.43 -22.63)"/><path class="cls-5" d="M.94,71.42a.74.74,0,0,1-.56-.24A.8.8,0,0,1,.38,70a.77.77,0,0,1,.56-.23.78.78,0,0,1,.57.23.8.8,0,0,1,0,1.14A.75.75,0,0,1,.94,71.42Z" transform="translate(1.43 -22.63)"/><path class="cls-5" d="M3.22,69.06H-.15v-.51H.33a1.24,1.24,0,0,1-.4-.42,1.21,1.21,0,0,1-.15-.6,1.16,1.16,0,0,1,.15-.62.88.88,0,0,1,.44-.34,1.18,1.18,0,0,1-.59-1,1,1,0,0,1,.27-.77,1.2,1.2,0,0,1,.86-.27H3.22v.57H1.1a1.82,1.82,0,0,0-.49,0,.51.51,0,0,0-.25.21.62.62,0,0,0-.09.34.79.79,0,0,0,.24.59,1,1,0,0,0,.75.23h2v.58H1a.92.92,0,0,0-.57.14.51.51,0,0,0-.19.45.81.81,0,0,0,.13.45.74.74,0,0,0,.37.3,2.12,2.12,0,0,0,.7.09H3.22Z" transform="translate(1.43 -22.63)"/><path class="cls-5" d="M4.51,62.69V64H4v-.69H-1V64h-.47V62.69Z" transform="translate(1.43 -22.63)"/><path class="cls-5" d="M44.05,151.26l.58,0a1.32,1.32,0,0,0,.19.58,1,1,0,0,0,.47.36,1.8,1.8,0,0,0,.71.14,1.73,1.73,0,0,0,.63-.11.82.82,0,0,0,.4-.29.63.63,0,0,0,.13-.39.59.59,0,0,0-.13-.39.85.85,0,0,0-.42-.27,6.84,6.84,0,0,0-.82-.23,4.09,4.09,0,0,1-.9-.29,1.26,1.26,0,0,1-.5-.43,1.06,1.06,0,0,1-.16-.58,1.12,1.12,0,0,1,.2-.66,1.22,1.22,0,0,1,.58-.46,2.15,2.15,0,0,1,.85-.16,2.4,2.4,0,0,1,.92.16,1.3,1.3,0,0,1,.83,1.23l-.59,0a1,1,0,0,0-.32-.66,1.19,1.19,0,0,0-.81-.23,1.34,1.34,0,0,0-.81.2.64.64,0,0,0-.26.5.54.54,0,0,0,.18.41,2.39,2.39,0,0,0,.93.33,6.34,6.34,0,0,1,1,.3,1.39,1.39,0,0,1,.6.47,1.17,1.17,0,0,1,.19.67,1.24,1.24,0,0,1-.21.69,1.43,1.43,0,0,1-.61.52,2.16,2.16,0,0,1-.9.18,2.58,2.58,0,0,1-1.06-.19,1.5,1.5,0,0,1-.67-.55A1.59,1.59,0,0,1,44.05,151.26Z" transform="translate(1.43 -22.63)"/><path class="cls-5" d="M48.52,154.05v-4.66H49v.44a1.29,1.29,0,0,1,.42-.39,1.19,1.19,0,0,1,.56-.13,1.31,1.31,0,0,1,1.26.85,2.35,2.35,0,0,1,.17.89,2.18,2.18,0,0,1-.19.93,1.29,1.29,0,0,1-.54.63,1.34,1.34,0,0,1-.74.23,1,1,0,0,1-.51-.13,1.15,1.15,0,0,1-.38-.3v1.64Zm.52-3a1.47,1.47,0,0,0,.26,1,.8.8,0,0,0,1.29,0,1.5,1.5,0,0,0,.27-1,1.48,1.48,0,0,0-.26-1,.79.79,0,0,0-1.28,0A1.52,1.52,0,0,0,49,151.09Z" transform="translate(1.43 -22.63)"/><path class="cls-5" d="M54.44,151.67l.59.08a1.43,1.43,0,0,1-.51.8,1.6,1.6,0,0,1-1,.29,1.56,1.56,0,0,1-1.17-.46A1.77,1.77,0,0,1,52,151.1a1.89,1.89,0,0,1,.43-1.32,1.51,1.51,0,0,1,1.14-.47,1.45,1.45,0,0,1,1.1.46,1.82,1.82,0,0,1,.43,1.3v.15H52.54a1.28,1.28,0,0,0,.31.85.93.93,0,0,0,.71.3.88.88,0,0,0,.53-.17A1.05,1.05,0,0,0,54.44,151.67Zm-1.87-.92h1.88a1.18,1.18,0,0,0-.22-.64.86.86,0,0,0-.7-.33.87.87,0,0,0-.66.27A1,1,0,0,0,52.57,150.75Z" transform="translate(1.43 -22.63)"/><path class="cls-5" d="M58.06,151.67l.59.08a1.44,1.44,0,0,1-.52.8,1.54,1.54,0,0,1-1,.29,1.57,1.57,0,0,1-1.18-.46,1.77,1.77,0,0,1-.43-1.28,1.9,1.9,0,0,1,.44-1.32,1.49,1.49,0,0,1,1.14-.47,1.46,1.46,0,0,1,1.1.46,1.82,1.82,0,0,1,.43,1.3,1,1,0,0,1,0,.15H56.15a1.29,1.29,0,0,0,.32.85.91.91,0,0,0,.7.3.89.89,0,0,0,.54-.17A1.2,1.2,0,0,0,58.06,151.67Zm-1.88-.92h1.89a1.18,1.18,0,0,0-.22-.64.88.88,0,0,0-.71-.33.9.9,0,0,0-.66.27A1,1,0,0,0,56.18,150.75Z" transform="translate(1.43 -22.63)"/><path class="cls-5" d="M61.55,152.76v-.43a1,1,0,0,1-.94.51,1.4,1.4,0,0,1-1.26-.85,2,2,0,0,1-.19-.91,2.47,2.47,0,0,1,.17-.92,1.37,1.37,0,0,1,.5-.63,1.43,1.43,0,0,1,.76-.22,1.2,1.2,0,0,1,.54.13,1,1,0,0,1,.38.34v-1.67h.57v4.65Zm-1.8-1.68a1.5,1.5,0,0,0,.27,1,.83.83,0,0,0,.64.32.82.82,0,0,0,.64-.31,1.44,1.44,0,0,0,.26-.94,1.61,1.61,0,0,0-.26-1,.81.81,0,0,0-.66-.32.79.79,0,0,0-.64.31A1.52,1.52,0,0,0,59.75,151.08Z" transform="translate(1.43 -22.63)"/><path class="cls-5" d="M64.8,154.05v-5.94h1.26v.47h-.69v5h.69v.47Z" transform="translate(1.43 -22.63)"/><path class="cls-5" d="M66.59,152.76v-3.37h.51v.51a1.31,1.31,0,0,1,.36-.47.65.65,0,0,1,.37-.12,1.08,1.08,0,0,1,.59.19l-.2.53a.76.76,0,0,0-.42-.13.52.52,0,0,0-.33.12.61.61,0,0,0-.22.31,2.29,2.29,0,0,0-.09.66v1.77Z" transform="translate(1.43 -22.63)"/><path class="cls-5" d="M68.33,152.84,69.68,148h.46l-1.35,4.81Z" transform="translate(1.43 -22.63)"/><path class="cls-5" d="M70.56,152.76v-3.37h.51v.47a1.27,1.27,0,0,1,.43-.4,1.16,1.16,0,0,1,.6-.15,1,1,0,0,1,.61.16.86.86,0,0,1,.34.43,1.22,1.22,0,0,1,1-.59,1.05,1.05,0,0,1,.77.28,1.2,1.2,0,0,1,.27.86v2.31h-.57v-2.12a1.91,1.91,0,0,0,0-.5.52.52,0,0,0-.2-.24.68.68,0,0,0-.35-.09.84.84,0,0,0-.59.23,1.08,1.08,0,0,0-.23.76v2h-.57v-2.19a1,1,0,0,0-.14-.57.54.54,0,0,0-.46-.19.89.89,0,0,0-.45.12.75.75,0,0,0-.29.38,2,2,0,0,0-.1.7v1.75Z" transform="translate(1.43 -22.63)"/><path class="cls-5" d="M76,148.76v-.65h.57v.65Zm0,4v-3.37h.57v3.37Z" transform="translate(1.43 -22.63)"/><path class="cls-5" d="M77.42,152.76v-3.37h.52v.48a1.2,1.2,0,0,1,1.07-.56,1.47,1.47,0,0,1,.56.11.89.89,0,0,1,.38.29,1,1,0,0,1,.18.42,3.51,3.51,0,0,1,0,.56v2.07h-.57v-2a1.38,1.38,0,0,0-.07-.52.53.53,0,0,0-.23-.28.77.77,0,0,0-.4-.1.91.91,0,0,0-.63.23,1.13,1.13,0,0,0-.27.88v1.84Z" transform="translate(1.43 -22.63)"/><path class="cls-5" d="M82,154.05H80.73v-.47h.69v-5h-.69v-.47H82Z" transform="translate(1.43 -22.63)"/></g></svg>