<svg xmlns="http://www.w3.org/2000/svg" viewBox="0 0 114.48 130.88"><defs><style>.cls-1,.cls-2,.cls-3,.cls-4,.cls-5,.cls-6,.繝医Ν繧ｯ繧ｰ繝ｩ繝廟繧ｰ繝ｬ繝ｼ邱,.邱喟0\.5pt{fill:none;}.cls-1,.cls-4,.邱喟0\.5pt{stroke:#231815;}.cls-1,.cls-6{stroke-linejoin:round;}.cls-1{stroke-width:0.14px;}.cls-2,.cls-3,.cls-5,.繝医Ν繧ｯ繧ｰ繝ｩ繝廟繧ｰ繝ｬ繝ｼ邱{stroke:#9fa0a0;}.cls-2,.cls-3,.邱喟0\.5pt{stroke-miterlimit:10;}.cls-2,.cls-3{stroke-width:1px;}.cls-3{stroke-dasharray:2.96 1.43;}.cls-5,.繝医Ν繧ｯ繧ｰ繝ｩ繝廟繧ｰ繝ｬ繝ｼ邱{stroke-width:3px;}.cls-5{stroke-linecap:square;}.cls-6{stroke:#040000;stroke-linecap:round;stroke-width:3px;stroke-dasharray:76200 76200;}.cls-7{fill:#231815;}.繝後Μ_逋ｽ-2{fill:#fff;}.邱喟0\.5pt{stroke-width:0.5px;}</style></defs><g id="Illust"><line class="cls-1" x1="19.86" y1="100.86" x2="109.15" y2="100.86"/><line class="cls-2" x1="97.24" y1="97.31" x2="97.24" y2="98.86"/><line class="cls-3" x1="97.24" y1="100.29" x2="97.24" y2="112.76"/><line class="cls-2" x1="97.24" y1="113.47" x2="97.24" y2="115.02"/><line class="cls-1" x1="19.86" y1="86.67" x2="109.15" y2="86.67"/><line class="cls-1" x1="19.86" y1="72.48" x2="109.15" y2="72.48"/><line class="cls-1" x1="19.86" y1="58.34" x2="109.15" y2="58.34"/><line class="cls-1" x1="19.86" y1="44.15" x2="109.15" y2="44.15"/><line class="cls-1" x1="19.86" y1="30.02" x2="109.15" y2="30.02"/><line class="cls-1" x1="19.86" y1="15.83" x2="109.15" y2="15.83"/><line class="cls-1" x1="49.62" y1="1.64" x2="49.62" y2="114.99"/><line class="cls-1" x1="79.38" y1="1.64" x2="79.38" y2="114.99"/><polyline class="繝医Ν繧ｯ繧ｰ繝ｩ繝廟繧ｰ繝ｬ繝ｼ邱" points="19.86 83.42 27.31 83.42 34.74 83.42 49.62 83.42 64.51 83.42 79.39 91.31 94.25 96.04 109.14 99.25"/><polyline class="cls-4" points="19.86 83.42 27.31 83.42 34.74 83.42 49.62 83.42 64.51 83.42 79.39 91.31 94.25 96.04 109.14 99.25"/><polyline class="cls-5" points="19.86 36.12 64.51 36.12 79.39 58.31 109.14 83.3"/><path class="cls-6" d="M18.42,42.74" transform="translate(1.43 -22.46)"/><polyline class="cls-4" points="19.86 36.12 61.52 36.12 79.39 62.01 109.14 85.55"/><path class="cls-7" d="M17.24,141.38a3.52,3.52,0,0,1,.13-1,1.28,1.28,0,0,1,.39-.59,1.14,1.14,0,0,1,1.15-.1.9.9,0,0,1,.36.34,1.73,1.73,0,0,1,.23.53,3.72,3.72,0,0,1,.08.84,3.52,3.52,0,0,1-.13,1,1.31,1.31,0,0,1-.39.6,1,1,0,0,1-.65.21,1,1,0,0,1-.81-.37A2.33,2.33,0,0,1,17.24,141.38Zm.45,0a2.25,2.25,0,0,0,.21,1.18.59.59,0,0,0,1,0,2.27,2.27,0,0,0,.2-1.18,2.23,2.23,0,0,0-.2-1.17.63.63,0,0,0-.52-.29.56.56,0,0,0-.48.26A2.24,2.24,0,0,0,17.69,141.38Z" transform="translate(1.43 -22.46)"/><path class="cls-7" d="M45.13,142.73v.42H42.76a1.06,1.06,0,0,1,.05-.31,1.58,1.58,0,0,1,.29-.47,4.54,4.54,0,0,1,.58-.54,5.35,5.35,0,0,0,.79-.76,1,1,0,0,0,.2-.53.6.6,0,0,0-.18-.44.77.77,0,0,0-1,0,.7.7,0,0,0-.19.53l-.45,0a1.08,1.08,0,0,1,.35-.77,1.16,1.16,0,0,1,.81-.26,1.13,1.13,0,0,1,.81.28.94.94,0,0,1,.3.71A1,1,0,0,1,45,141a1.75,1.75,0,0,1-.29.44c-.14.15-.37.36-.68.63a5.24,5.24,0,0,0-.51.45,1.33,1.33,0,0,0-.19.24Z" transform="translate(1.43 -22.46)"/><path class="cls-7" d="M45.63,141.38a3.2,3.2,0,0,1,.13-1,1.28,1.28,0,0,1,.39-.59,1.14,1.14,0,0,1,1.15-.1.9.9,0,0,1,.36.34,1.51,1.51,0,0,1,.22.53,4.23,4.23,0,0,1-.05,1.86,1.22,1.22,0,0,1-.38.6,1.1,1.1,0,0,1-1.47-.16A2.41,2.41,0,0,1,45.63,141.38Zm.45,0a2.25,2.25,0,0,0,.21,1.18.59.59,0,0,0,1,0,2.38,2.38,0,0,0,.2-1.18,2.34,2.34,0,0,0-.2-1.17.63.63,0,0,0-.52-.29.56.56,0,0,0-.48.26A2.24,2.24,0,0,0,46.08,141.38Z" transform="translate(1.43 -22.46)"/><path class="cls-7" d="M48.38,141.38a3.2,3.2,0,0,1,.13-1,1.28,1.28,0,0,1,.39-.59,1.14,1.14,0,0,1,1.15-.1.9.9,0,0,1,.36.34,1.51,1.51,0,0,1,.22.53,3.16,3.16,0,0,1,.09.84,3.52,3.52,0,0,1-.13,1,1.31,1.31,0,0,1-.39.6,1,1,0,0,1-.65.21,1,1,0,0,1-.81-.37A2.33,2.33,0,0,1,48.38,141.38Zm.45,0a2.25,2.25,0,0,0,.21,1.18.59.59,0,0,0,1,0,2.38,2.38,0,0,0,.2-1.18,2.34,2.34,0,0,0-.2-1.17.63.63,0,0,0-.52-.29.56.56,0,0,0-.48.26A2.24,2.24,0,0,0,48.83,141.38Z" transform="translate(1.43 -22.46)"/><path class="cls-7" d="M51.19,141.38a3.52,3.52,0,0,1,.13-1,1.28,1.28,0,0,1,.39-.59,1.14,1.14,0,0,1,1.15-.1.9.9,0,0,1,.36.34,1.73,1.73,0,0,1,.23.53,3.72,3.72,0,0,1,.08.84,3.52,3.52,0,0,1-.13,1,1.31,1.31,0,0,1-.39.6,1,1,0,0,1-.65.21,1,1,0,0,1-.81-.37A2.33,2.33,0,0,1,51.19,141.38Zm.45,0a2.25,2.25,0,0,0,.21,1.18.59.59,0,0,0,1,0,2.27,2.27,0,0,0,.2-1.18,2.23,2.23,0,0,0-.2-1.17.63.63,0,0,0-.52-.29.56.56,0,0,0-.48.26A2.24,2.24,0,0,0,51.64,141.38Z" transform="translate(1.43 -22.46)"/><path class="cls-7" d="M74,143.15v-.86H72.44v-.4l1.63-2.32h.36v2.32h.48v.4h-.48v.86Zm0-1.26v-1.61l-1.12,1.61Z" transform="translate(1.43 -22.46)"/><path class="cls-7" d="M75.39,141.38a3.52,3.52,0,0,1,.13-1,1.28,1.28,0,0,1,.39-.59,1,1,0,0,1,.65-.21.95.95,0,0,1,.87.45,2,2,0,0,1,.22.53,3.72,3.72,0,0,1,.08.84,3.52,3.52,0,0,1-.13,1,1.31,1.31,0,0,1-.39.6,1,1,0,0,1-.65.21,1,1,0,0,1-.81-.37A2.33,2.33,0,0,1,75.39,141.38Zm.46,0a2.27,2.27,0,0,0,.2,1.18.59.59,0,0,0,1,0,2.25,2.25,0,0,0,.21-1.18,2.2,2.2,0,0,0-.21-1.17.62.62,0,0,0-.51-.29.57.57,0,0,0-.49.26A2.26,2.26,0,0,0,75.85,141.38Z" transform="translate(1.43 -22.46)"/><path class="cls-7" d="M78.14,141.38a3.17,3.17,0,0,1,.14-1,1.19,1.19,0,0,1,.38-.59,1,1,0,0,1,.65-.21.95.95,0,0,1,.87.45,2,2,0,0,1,.22.53,3.72,3.72,0,0,1,.08.84,3.2,3.2,0,0,1-.13,1,1.31,1.31,0,0,1-.39.6,1,1,0,0,1-.65.21,1,1,0,0,1-.81-.37A2.33,2.33,0,0,1,78.14,141.38Zm.46,0a2.38,2.38,0,0,0,.2,1.18.59.59,0,0,0,1,0,2.25,2.25,0,0,0,.21-1.18,2.2,2.2,0,0,0-.21-1.17.62.62,0,0,0-.51-.29.58.58,0,0,0-.49.26A2.26,2.26,0,0,0,78.6,141.38Z" transform="translate(1.43 -22.46)"/><path class="cls-7" d="M81,141.38a3.2,3.2,0,0,1,.13-1,1.19,1.19,0,0,1,.38-.59,1,1,0,0,1,.65-.21A.95.95,0,0,1,83,140a1.73,1.73,0,0,1,.22.53,3.72,3.72,0,0,1,.08.84,3.2,3.2,0,0,1-.13,1,1.31,1.31,0,0,1-.39.6,1,1,0,0,1-.65.21,1,1,0,0,1-.81-.37A2.34,2.34,0,0,1,81,141.38Zm.45,0a2.38,2.38,0,0,0,.2,1.18.59.59,0,0,0,1,0,2.25,2.25,0,0,0,.21-1.18,2.2,2.2,0,0,0-.21-1.17.62.62,0,0,0-.51-.29.58.58,0,0,0-.49.26A2.26,2.26,0,0,0,81.41,141.38Z" transform="translate(1.43 -22.46)"/><path class="cls-7" d="M104.63,140.45l-.44,0a.71.71,0,0,0-.17-.37.55.55,0,0,0-.44-.19.61.61,0,0,0-.36.11,1,1,0,0,0-.33.45,2.41,2.41,0,0,0-.13.82,1,1,0,0,1,.39-.35,1.07,1.07,0,0,1,.48-.12,1,1,0,0,1,.75.32,1.16,1.16,0,0,1,.31.84,1.44,1.44,0,0,1-.14.62,1.1,1.1,0,0,1-.4.45,1.11,1.11,0,0,1-.58.15,1.14,1.14,0,0,1-.9-.4,2.07,2.07,0,0,1-.34-1.34,2.39,2.39,0,0,1,.38-1.5,1.08,1.08,0,0,1,.9-.41,1,1,0,0,1,1,.89Zm-1.8,1.54a1,1,0,0,0,.1.43.66.66,0,0,0,.27.32.69.69,0,0,0,.36.11.62.62,0,0,0,.48-.23.9.9,0,0,0,.2-.61.79.79,0,0,0-.2-.58.64.64,0,0,0-.49-.21.69.69,0,0,0-.51.21A.76.76,0,0,0,102.83,142Z" transform="translate(1.43 -22.46)"/><path class="cls-7" d="M105.16,141.38a3.2,3.2,0,0,1,.13-1,1.2,1.2,0,0,1,.39-.59,1,1,0,0,1,.64-.21,1,1,0,0,1,.51.11,1.06,1.06,0,0,1,.36.34,1.73,1.73,0,0,1,.22.53,3.72,3.72,0,0,1,.08.84,3.2,3.2,0,0,1-.13,1,1.22,1.22,0,0,1-.38.6,1,1,0,0,1-.66.21,1,1,0,0,1-.81-.37A2.41,2.41,0,0,1,105.16,141.38Zm.45,0a2.25,2.25,0,0,0,.21,1.18.58.58,0,0,0,1,0,2.25,2.25,0,0,0,.21-1.18,2.2,2.2,0,0,0-.21-1.17.61.61,0,0,0-.51-.29.56.56,0,0,0-.48.26A2.15,2.15,0,0,0,105.61,141.38Z" transform="translate(1.43 -22.46)"/><path class="cls-7" d="M107.91,141.38a3.2,3.2,0,0,1,.13-1,1.28,1.28,0,0,1,.39-.59,1.14,1.14,0,0,1,1.15-.1.9.9,0,0,1,.36.34,1.73,1.73,0,0,1,.22.53,4.23,4.23,0,0,1,0,1.86,1.22,1.22,0,0,1-.38.6,1,1,0,0,1-.65.21,1,1,0,0,1-.82-.37A2.41,2.41,0,0,1,107.91,141.38Zm.45,0a2.25,2.25,0,0,0,.21,1.18.58.58,0,0,0,1,0,2.25,2.25,0,0,0,.21-1.18,2.2,2.2,0,0,0-.21-1.17.6.6,0,0,0-.51-.29.56.56,0,0,0-.48.26A2.24,2.24,0,0,0,108.36,141.38Z" transform="translate(1.43 -22.46)"/><path class="cls-7" d="M110.72,141.38a3.2,3.2,0,0,1,.13-1,1.28,1.28,0,0,1,.39-.59,1.14,1.14,0,0,1,1.15-.1.9.9,0,0,1,.36.34,1.73,1.73,0,0,1,.22.53,4.23,4.23,0,0,1,0,1.86,1.22,1.22,0,0,1-.38.6,1.1,1.1,0,0,1-1.47-.16A2.41,2.41,0,0,1,110.72,141.38Zm.45,0a2.25,2.25,0,0,0,.21,1.18.6.6,0,0,0,.51.29.62.62,0,0,0,.51-.29,2.38,2.38,0,0,0,.2-1.18,2.34,2.34,0,0,0-.2-1.17.63.63,0,0,0-.52-.29.56.56,0,0,0-.48.26A2.24,2.24,0,0,0,111.17,141.38Z" transform="translate(1.43 -22.46)"/><rect class="繝後Μ_逋ｽ-2" x="109.15" y="1.64" width="2.83" height="113.39"/><rect class="繝後Μ_逋ｽ-2" x="17.02" y="1.64" width="2.83" height="113.39"/><rect class="邱喟0.5pt" x="19.86" y="1.64" width="89.29" height="113.39"/><path class="cls-7" d="M10.23,137.84a3.2,3.2,0,0,1,.13-1,1.31,1.31,0,0,1,.39-.6,1.11,1.11,0,0,1,1.15-.09,1,1,0,0,1,.36.33,1.91,1.91,0,0,1,.22.54,4.23,4.23,0,0,1-.05,1.86,1.22,1.22,0,0,1-.38.6,1,1,0,0,1-.65.21,1,1,0,0,1-.82-.37A2.43,2.43,0,0,1,10.23,137.84Zm.45,0a2.25,2.25,0,0,0,.21,1.18.6.6,0,0,0,.51.29.61.61,0,0,0,.51-.3,3.52,3.52,0,0,0,0-2.34.6.6,0,0,0-.52-.29.56.56,0,0,0-.48.25A2.28,2.28,0,0,0,10.68,137.84Z" transform="translate(1.43 -22.46)"/><path class="cls-7" d="M13.29,139.61v-.5h.5v.5Z" transform="translate(1.43 -22.46)"/><path class="cls-7" d="M14.43,137.84a3.52,3.52,0,0,1,.13-1,1.31,1.31,0,0,1,.39-.6,1,1,0,0,1,.65-.21,1.07,1.07,0,0,1,.51.12,1.13,1.13,0,0,1,.36.33,2.25,2.25,0,0,1,.22.54,3.66,3.66,0,0,1,.08.84,3.2,3.2,0,0,1-.13,1,1.31,1.31,0,0,1-.39.6,1,1,0,0,1-.65.21,1,1,0,0,1-.81-.37A2.35,2.35,0,0,1,14.43,137.84Zm.46,0a2.27,2.27,0,0,0,.2,1.18.62.62,0,0,0,.51.29.61.61,0,0,0,.51-.3,3.36,3.36,0,0,0,0-2.34.6.6,0,0,0-.51-.29.56.56,0,0,0-.49.25A2.3,2.3,0,0,0,14.89,137.84Z" transform="translate(1.43 -22.46)"/><path class="cls-7" d="M10.23,124.48l.46,0a.82.82,0,0,0,.24.51.64.64,0,0,0,.45.17.71.71,0,0,0,.54-.24,1,1,0,0,0,.22-.64.8.8,0,0,0-.21-.59.75.75,0,0,0-.56-.22.7.7,0,0,0-.38.1.65.65,0,0,0-.27.25l-.41-.06.34-1.83h1.78v.42H11l-.2,1a1.18,1.18,0,0,1,.68-.23,1.06,1.06,0,0,1,.79.33,1.09,1.09,0,0,1,.32.83,1.27,1.27,0,0,1-.28.84,1.25,1.25,0,0,1-1.74.16A1.08,1.08,0,0,1,10.23,124.48Z" transform="translate(1.43 -22.46)"/><path class="cls-7" d="M13.29,125.42v-.51h.5v.51Z" transform="translate(1.43 -22.46)"/><path class="cls-7" d="M14.43,123.65a3.52,3.52,0,0,1,.13-1A1.31,1.31,0,0,1,15,122a1,1,0,0,1,.65-.21,1.07,1.07,0,0,1,.51.12,1.13,1.13,0,0,1,.36.33,2.35,2.35,0,0,1,.22.53,3.82,3.82,0,0,1,.08.85,3.2,3.2,0,0,1-.13,1,1.36,1.36,0,0,1-.39.6,1,1,0,0,1-.65.21,1,1,0,0,1-.81-.37A2.35,2.35,0,0,1,14.43,123.65Zm.46,0a2.2,2.2,0,0,0,.2,1.17.58.58,0,0,0,1,0,3.36,3.36,0,0,0,0-2.34.6.6,0,0,0-.51-.29.56.56,0,0,0-.49.25A2.3,2.3,0,0,0,14.89,123.65Z" transform="translate(1.43 -22.46)"/><path class="cls-7" d="M9.13,111.22H8.69v-2.8a2.07,2.07,0,0,1-.41.3,3.27,3.27,0,0,1-.46.23v-.43a2.37,2.37,0,0,0,.64-.42,1.65,1.65,0,0,0,.39-.48h.28Z" transform="translate(1.43 -22.46)"/><path class="cls-7" d="M10.29,109.45a3.2,3.2,0,0,1,.13-1,1.31,1.31,0,0,1,.39-.6,1.11,1.11,0,0,1,1.15-.09,1,1,0,0,1,.36.33,1.91,1.91,0,0,1,.22.54,4.23,4.23,0,0,1,0,1.86,1.22,1.22,0,0,1-.38.6,1.1,1.1,0,0,1-1.47-.16A2.43,2.43,0,0,1,10.29,109.45Zm.45,0a2.25,2.25,0,0,0,.21,1.18.6.6,0,0,0,.51.29.61.61,0,0,0,.51-.3,3.52,3.52,0,0,0,0-2.34.6.6,0,0,0-.52-.29.56.56,0,0,0-.48.25A2.31,2.31,0,0,0,10.74,109.45Z" transform="translate(1.43 -22.46)"/><path class="cls-7" d="M13.29,111.22v-.5h.5v.5Z" transform="translate(1.43 -22.46)"/><path class="cls-7" d="M14.43,109.45a3.52,3.52,0,0,1,.13-1,1.31,1.31,0,0,1,.39-.6,1,1,0,0,1,.65-.21,1.07,1.07,0,0,1,.51.12,1.13,1.13,0,0,1,.36.33,2.25,2.25,0,0,1,.22.54,3.72,3.72,0,0,1,.08.84,3.2,3.2,0,0,1-.13,1,1.31,1.31,0,0,1-.39.6,1,1,0,0,1-.65.21,1,1,0,0,1-.81-.37A2.35,2.35,0,0,1,14.43,109.45Zm.46,0a2.27,2.27,0,0,0,.2,1.18.62.62,0,0,0,.51.29.61.61,0,0,0,.51-.3,3.36,3.36,0,0,0,0-2.34.6.6,0,0,0-.51-.29.56.56,0,0,0-.49.25A2.33,2.33,0,0,0,14.89,109.45Z" transform="translate(1.43 -22.46)"/><path class="cls-7" d="M9,97H8.6v-2.8a2.18,2.18,0,0,1-.42.31,2.69,2.69,0,0,1-.46.22v-.42a3,3,0,0,0,.65-.42,2,2,0,0,0,.39-.48H9Z" transform="translate(1.43 -22.46)"/><path class="cls-7" d="M10.2,96.09l.46,0a.81.81,0,0,0,.23.5.64.64,0,0,0,.46.17.68.68,0,0,0,.53-.24.88.88,0,0,0,.22-.63.8.8,0,0,0-.21-.59.71.71,0,0,0-.55-.22.76.76,0,0,0-.39.1.63.63,0,0,0-.26.25l-.42-.06.35-1.84H12.4v.42H11l-.19,1a1.15,1.15,0,0,1,.67-.23,1.08,1.08,0,0,1,.8.33,1.13,1.13,0,0,1,.32.83,1.37,1.37,0,0,1-.28.84,1.14,1.14,0,0,1-.94.43,1.16,1.16,0,0,1-.8-.27A1,1,0,0,1,10.2,96.09Z" transform="translate(1.43 -22.46)"/><path class="cls-7" d="M13.19,97v-.5h.5V97Z" transform="translate(1.43 -22.46)"/><path class="cls-7" d="M14.34,95.26a3.2,3.2,0,0,1,.13-1,1.31,1.31,0,0,1,.39-.6A1.11,1.11,0,0,1,16,93.55a.82.82,0,0,1,.36.33,1.6,1.6,0,0,1,.22.53,3.25,3.25,0,0,1,.08.85,3.2,3.2,0,0,1-.13,1,1.24,1.24,0,0,1-.38.59,1.1,1.1,0,0,1-1.47-.16A2.37,2.37,0,0,1,14.34,95.26Zm.45,0A2.18,2.18,0,0,0,15,96.43a.59.59,0,0,0,1,0,2.34,2.34,0,0,0,.2-1.17,2.38,2.38,0,0,0-.2-1.18.63.63,0,0,0-.52-.29.56.56,0,0,0-.48.26A2.28,2.28,0,0,0,14.79,95.26Z" transform="translate(1.43 -22.46)"/><path class="cls-7" d="M9.69,82.41v.42H7.33a.81.81,0,0,1,0-.31,1.58,1.58,0,0,1,.29-.47,4.37,4.37,0,0,1,.57-.55A4.51,4.51,0,0,0,9,80.75a.92.92,0,0,0,.21-.53.56.56,0,0,0-.19-.44.67.67,0,0,0-.49-.18.65.65,0,0,0-.5.19.69.69,0,0,0-.2.53l-.45,0a1.12,1.12,0,0,1,.35-.77,1.17,1.17,0,0,1,.81-.27,1.14,1.14,0,0,1,.82.29.94.94,0,0,1,.3.71,1.06,1.06,0,0,1-.09.42,1.66,1.66,0,0,1-.29.44,8.11,8.11,0,0,1-.68.63l-.51.45a1.88,1.88,0,0,0-.18.24Z" transform="translate(1.43 -22.46)"/><path class="cls-7" d="M10.2,81.06a3.2,3.2,0,0,1,.13-1,1.22,1.22,0,0,1,.38-.6,1,1,0,0,1,.65-.21,1.07,1.07,0,0,1,.51.12,1.13,1.13,0,0,1,.36.33,2.25,2.25,0,0,1,.22.54,3.72,3.72,0,0,1,.08.84,3.2,3.2,0,0,1-.13,1,1.31,1.31,0,0,1-.39.6,1,1,0,0,1-.65.21,1,1,0,0,1-.81-.37A2.36,2.36,0,0,1,10.2,81.06Zm.45,0a2.38,2.38,0,0,0,.2,1.18.62.62,0,0,0,.51.29.61.61,0,0,0,.51-.3,3.36,3.36,0,0,0,0-2.34.6.6,0,0,0-.51-.29.57.57,0,0,0-.49.25A2.3,2.3,0,0,0,10.65,81.06Z" transform="translate(1.43 -22.46)"/><path class="cls-7" d="M13.19,82.83v-.5h.5v.5Z" transform="translate(1.43 -22.46)"/><path class="cls-7" d="M14.34,81.06a3.2,3.2,0,0,1,.13-1,1.31,1.31,0,0,1,.39-.6A1.11,1.11,0,0,1,16,79.35a1,1,0,0,1,.36.33,1.65,1.65,0,0,1,.22.54,4.23,4.23,0,0,1-.05,1.86,1.22,1.22,0,0,1-.38.6,1.1,1.1,0,0,1-1.47-.16A2.43,2.43,0,0,1,14.34,81.06Zm.45,0A2.25,2.25,0,0,0,15,82.24a.62.62,0,0,0,.51.29.61.61,0,0,0,.51-.3,3.52,3.52,0,0,0,0-2.34.6.6,0,0,0-.52-.29.56.56,0,0,0-.48.25A2.28,2.28,0,0,0,14.79,81.06Z" transform="translate(1.43 -22.46)"/><path class="cls-7" d="M9.69,68.21v.42H7.33a.79.79,0,0,1,0-.3,1.76,1.76,0,0,1,.29-.48,5.2,5.2,0,0,1,.57-.54A4.48,4.48,0,0,0,9,66.55.88.88,0,0,0,9.24,66a.58.58,0,0,0-.19-.44.67.67,0,0,0-.49-.18.69.69,0,0,0-.5.19.72.72,0,0,0-.2.53l-.45-.05a1.14,1.14,0,0,1,.35-.77A1.21,1.21,0,0,1,8.57,65a1.1,1.1,0,0,1,.82.29.92.92,0,0,1,.3.7,1.07,1.07,0,0,1-.09.43,1.62,1.62,0,0,1-.29.43,5.7,5.7,0,0,1-.68.63L8.12,68a1.88,1.88,0,0,0-.18.24Z" transform="translate(1.43 -22.46)"/><path class="cls-7" d="M10.2,67.7l.46,0a.81.81,0,0,0,.23.5.64.64,0,0,0,.46.17.68.68,0,0,0,.53-.24.88.88,0,0,0,.22-.63.8.8,0,0,0-.21-.59.71.71,0,0,0-.55-.22.86.86,0,0,0-.39.09.72.72,0,0,0-.26.26l-.42-.06.35-1.84H12.4v.42H11l-.19,1a1.14,1.14,0,0,1,.67-.22,1.11,1.11,0,0,1,.8.32,1.17,1.17,0,0,1,.32.84,1.37,1.37,0,0,1-.28.84,1.14,1.14,0,0,1-.94.43,1.16,1.16,0,0,1-.8-.27A1,1,0,0,1,10.2,67.7Z" transform="translate(1.43 -22.46)"/><path class="cls-7" d="M13.19,68.63v-.5h.5v.5Z" transform="translate(1.43 -22.46)"/><path class="cls-7" d="M14.34,66.87a3.12,3.12,0,0,1,.13-1,1.31,1.31,0,0,1,.39-.6A1.11,1.11,0,0,1,16,65.16a.82.82,0,0,1,.36.33,1.6,1.6,0,0,1,.22.53,3.25,3.25,0,0,1,.08.85,3.2,3.2,0,0,1-.13,1,1.24,1.24,0,0,1-.38.59,1.1,1.1,0,0,1-1.47-.16A2.37,2.37,0,0,1,14.34,66.87Zm.45,0A2.18,2.18,0,0,0,15,68a.59.59,0,0,0,1,0,3.55,3.55,0,0,0,0-2.35.63.63,0,0,0-.52-.29.56.56,0,0,0-.48.26A2.28,2.28,0,0,0,14.79,66.87Z" transform="translate(1.43 -22.46)"/><path class="cls-7" d="M7.39,53.49l.44-.06a1,1,0,0,0,.25.54.66.66,0,0,0,.45.17.73.73,0,0,0,.73-.75.68.68,0,0,0-.19-.5.71.71,0,0,0-.51-.2,1.5,1.5,0,0,0-.31.05l.05-.38h.07a1,1,0,0,0,.51-.14.51.51,0,0,0,.22-.46.54.54,0,0,0-.16-.4.61.61,0,0,0-.42-.16.6.6,0,0,0-.43.17.77.77,0,0,0-.22.48l-.44-.08a1.11,1.11,0,0,1,.37-.68,1,1,0,0,1,.71-.25,1.26,1.26,0,0,1,.54.13.93.93,0,0,1,.51.8.8.8,0,0,1-.13.43.94.94,0,0,1-.37.3.88.88,0,0,1,.5.3,1,1,0,0,1,.17.58,1,1,0,0,1-.34.79,1.21,1.21,0,0,1-.87.33,1.12,1.12,0,0,1-.78-.28A1.08,1.08,0,0,1,7.39,53.49Z" transform="translate(1.43 -22.46)"/><path class="cls-7" d="M10.2,52.67a3.2,3.2,0,0,1,.13-1,1.22,1.22,0,0,1,.38-.6,1,1,0,0,1,.65-.21,1.07,1.07,0,0,1,.51.12,1.13,1.13,0,0,1,.36.33,2.25,2.25,0,0,1,.22.54,3.72,3.72,0,0,1,.08.84,3.2,3.2,0,0,1-.13,1,1.31,1.31,0,0,1-.39.6,1,1,0,0,1-.65.21,1,1,0,0,1-.81-.37A2.36,2.36,0,0,1,10.2,52.67Zm.45,0a2.38,2.38,0,0,0,.2,1.18.62.62,0,0,0,.51.29.61.61,0,0,0,.51-.3,3.36,3.36,0,0,0,0-2.34.6.6,0,0,0-.51-.29.57.57,0,0,0-.49.25A2.3,2.3,0,0,0,10.65,52.67Z" transform="translate(1.43 -22.46)"/><path class="cls-7" d="M13.19,54.44v-.5h.5v.5Z" transform="translate(1.43 -22.46)"/><path class="cls-7" d="M14.34,52.67a3.2,3.2,0,0,1,.13-1,1.31,1.31,0,0,1,.39-.6A1.11,1.11,0,0,1,16,51a1,1,0,0,1,.36.33,1.65,1.65,0,0,1,.22.54,4.23,4.23,0,0,1-.05,1.86,1.22,1.22,0,0,1-.38.6,1,1,0,0,1-.65.21,1,1,0,0,1-.82-.37A2.43,2.43,0,0,1,14.34,52.67Zm.45,0A2.25,2.25,0,0,0,15,53.85a.62.62,0,0,0,.51.29.61.61,0,0,0,.51-.3,3.52,3.52,0,0,0,0-2.34.6.6,0,0,0-.52-.29.56.56,0,0,0-.48.25A2.28,2.28,0,0,0,14.79,52.67Z" transform="translate(1.43 -22.46)"/><path class="cls-7" d="M7.39,39.3l.44-.06a1,1,0,0,0,.25.54.65.65,0,0,0,.45.16.72.72,0,0,0,.52-.21.74.74,0,0,0,.21-.53.66.66,0,0,0-.19-.5.71.71,0,0,0-.51-.2,1.5,1.5,0,0,0-.31,0l.05-.39h.07A.9.9,0,0,0,8.88,38a.5.5,0,0,0,.22-.45.54.54,0,0,0-.16-.4A.57.57,0,0,0,8.52,37a.59.59,0,0,0-.43.16.83.83,0,0,0-.22.49l-.44-.08a1.11,1.11,0,0,1,.37-.69,1.05,1.05,0,0,1,.71-.24,1.13,1.13,0,0,1,.54.13.82.82,0,0,1,.37.34.86.86,0,0,1,.14.46.79.79,0,0,1-.5.72.84.84,0,0,1,.5.31,1,1,0,0,1,.17.58,1,1,0,0,1-.34.79,1.21,1.21,0,0,1-.87.33A1.16,1.16,0,0,1,7.74,40,1.08,1.08,0,0,1,7.39,39.3Z" transform="translate(1.43 -22.46)"/><path class="cls-7" d="M10.2,39.31l.46,0a.81.81,0,0,0,.23.5.64.64,0,0,0,.46.17.68.68,0,0,0,.53-.24.88.88,0,0,0,.22-.63.8.8,0,0,0-.21-.59.71.71,0,0,0-.55-.22.86.86,0,0,0-.39.09.78.78,0,0,0-.26.25l-.42-.05.35-1.84H12.4v.42H11l-.19,1a1.14,1.14,0,0,1,.67-.22,1.11,1.11,0,0,1,.8.32,1.17,1.17,0,0,1,.32.84,1.37,1.37,0,0,1-.28.84,1.14,1.14,0,0,1-.94.43,1.16,1.16,0,0,1-.8-.27A1,1,0,0,1,10.2,39.31Z" transform="translate(1.43 -22.46)"/><path class="cls-7" d="M13.19,40.24v-.5h.5v.5Z" transform="translate(1.43 -22.46)"/><path class="cls-7" d="M14.34,38.48a3.12,3.12,0,0,1,.13-1,1.31,1.31,0,0,1,.39-.6A1.11,1.11,0,0,1,16,36.77a.82.82,0,0,1,.36.33,1.6,1.6,0,0,1,.22.53,3.25,3.25,0,0,1,.08.85,3.2,3.2,0,0,1-.13,1,1.24,1.24,0,0,1-.38.59,1.1,1.1,0,0,1-1.47-.16A2.37,2.37,0,0,1,14.34,38.48Zm.45,0A2.18,2.18,0,0,0,15,39.65a.59.59,0,0,0,1,0,2.36,2.36,0,0,0,.2-1.17A2.38,2.38,0,0,0,16,37.3.63.63,0,0,0,15.5,37a.56.56,0,0,0-.48.26A2.28,2.28,0,0,0,14.79,38.48Z" transform="translate(1.43 -22.46)"/><path class="cls-7" d="M8.79,26.05v-.86H7.24v-.4l1.63-2.32h.36v2.32h.49v.4H9.23v.86Zm0-1.26V23.18L7.67,24.79Z" transform="translate(1.43 -22.46)"/><path class="cls-7" d="M10.2,24.29a3.23,3.23,0,0,1,.13-1,1.24,1.24,0,0,1,.38-.59,1,1,0,0,1,.65-.21,1.19,1.19,0,0,1,.51.11,1.06,1.06,0,0,1,.36.34,2,2,0,0,1,.22.53,3.76,3.76,0,0,1,.08.85,3.09,3.09,0,0,1-.13,1,1.31,1.31,0,0,1-.39.6,1,1,0,0,1-.65.21,1,1,0,0,1-.81-.37A2.33,2.33,0,0,1,10.2,24.29Zm.45,0a2.34,2.34,0,0,0,.2,1.17.59.59,0,0,0,1,0,2.23,2.23,0,0,0,.21-1.17,2.25,2.25,0,0,0-.21-1.18.62.62,0,0,0-.51-.29.58.58,0,0,0-.49.26A2.3,2.3,0,0,0,10.65,24.29Z" transform="translate(1.43 -22.46)"/><path class="cls-7" d="M13.19,26.05v-.5h.5v.5Z" transform="translate(1.43 -22.46)"/><path class="cls-7" d="M14.34,24.29a3.23,3.23,0,0,1,.13-1,1.33,1.33,0,0,1,.39-.59,1,1,0,0,1,.65-.21,1.12,1.12,0,0,1,.5.11.9.9,0,0,1,.36.34,1.51,1.51,0,0,1,.22.53,3.25,3.25,0,0,1,.08.85,3.09,3.09,0,0,1-.13,1,1.22,1.22,0,0,1-.38.6,1.1,1.1,0,0,1-1.47-.16A2.39,2.39,0,0,1,14.34,24.29Zm.45,0A2.2,2.2,0,0,0,15,25.46a.59.59,0,0,0,1,0,2.36,2.36,0,0,0,.2-1.17,2.38,2.38,0,0,0-.2-1.18.63.63,0,0,0-.52-.29.56.56,0,0,0-.48.26A2.28,2.28,0,0,0,14.79,24.29Z" transform="translate(1.43 -22.46)"/></g><g id="English"><path class="cls-7" d="M3.22,98.27H-.88V99.8h-.55V96.11h.55v1.54h4.1Z" transform="translate(1.43 -22.46)"/><path class="cls-7" d="M1.54,95.77a1.73,1.73,0,0,1-1.39-.52,1.56,1.56,0,0,1-.37-1.06,1.53,1.53,0,0,1,.45-1.14,1.74,1.74,0,0,1,1.26-.44,2.22,2.22,0,0,1,1,.2,1.42,1.42,0,0,1,.58.56,1.64,1.64,0,0,1,.21.82,1.48,1.48,0,0,1-.46,1.14A1.79,1.79,0,0,1,1.54,95.77Zm0-.59a1.44,1.44,0,0,0,1-.28.93.93,0,0,0,.32-.71.91.91,0,0,0-.32-.71,1.48,1.48,0,0,0-1-.28,1.4,1.4,0,0,0-.95.28.95.95,0,0,0,0,1.42A1.42,1.42,0,0,0,1.54,95.18Z" transform="translate(1.43 -22.46)"/><path class="cls-7" d="M3.22,92H-.15v-.52H.36a1.41,1.41,0,0,1-.47-.36.6.6,0,0,1-.11-.37A1.09,1.09,0,0,1,0,90.12l.53.19a.84.84,0,0,0-.12.42.51.51,0,0,0,.11.34.58.58,0,0,0,.31.21,2.35,2.35,0,0,0,.67.1H3.22Z" transform="translate(1.43 -22.46)"/><path class="cls-7" d="M4.51,87.63H2.86a1,1,0,0,1,.31.37,1,1,0,0,1,.13.51,1.34,1.34,0,0,1-.48,1A1.89,1.89,0,0,1,1.51,90a2.25,2.25,0,0,1-.92-.18A1.4,1.4,0,0,1,0,89.29a1.35,1.35,0,0,1-.2-.74,1.13,1.13,0,0,1,.52-1H-.15v-.51H4.51Zm-3,1.76a1.48,1.48,0,0,0,1-.27.84.84,0,0,0,.33-.66.8.8,0,0,0-.31-.63,1.46,1.46,0,0,0-.94-.26,1.52,1.52,0,0,0-1,.28.8.8,0,0,0-.34.65.78.78,0,0,0,.31.63A1.56,1.56,0,0,0,1.53,89.39Z" transform="translate(1.43 -22.46)"/><path class="cls-7" d="M3.22,84H2.73A1.23,1.23,0,0,1,3.3,85a1.31,1.31,0,0,1-.12.56A.88.88,0,0,1,2.9,86a1,1,0,0,1-.43.18,3.33,3.33,0,0,1-.53,0H-.15V85.6H1.72a3.77,3.77,0,0,0,.6,0,.63.63,0,0,0,.36-.23.75.75,0,0,0,.13-.43,1,1,0,0,0-.13-.48.7.7,0,0,0-.36-.32,1.66,1.66,0,0,0-.66-.1H-.15v-.57H3.22Z" transform="translate(1.43 -22.46)"/><path class="cls-7" d="M2.14,80.24l.07-.59a1.39,1.39,0,0,1,.8.52,1.54,1.54,0,0,1,.29,1,1.51,1.51,0,0,1-.46,1.17,1.77,1.77,0,0,1-1.27.44A1.86,1.86,0,0,1,.25,82.3a1.46,1.46,0,0,1-.47-1.14,1.41,1.41,0,0,1,.46-1.1,1.78,1.78,0,0,1,1.29-.43h.15v2.52a1.27,1.27,0,0,0,.85-.32.92.92,0,0,0,.3-.7.89.89,0,0,0-.17-.54A1.09,1.09,0,0,0,2.14,80.24Zm-.93,1.87V80.23a1.14,1.14,0,0,0-.63.22.88.88,0,0,0-.33.71.89.89,0,0,0,.26.66A1,1,0,0,0,1.21,82.11Z" transform="translate(1.43 -22.46)"/><path class="cls-7" d="M4.51,77.11H-1.43V75.85H-1v.69H4v-.69h.47Z" transform="translate(1.43 -22.46)"/><path class="cls-7" d="M3.22,75.25H-1.43v-.63l3.65-2.44H-1.43v-.59H3.22v.63L-.43,74.66H3.22Z" transform="translate(1.43 -22.46)"/><path class="cls-7" d="M.94,70.71a.74.74,0,0,1-.56-.24.76.76,0,0,1-.24-.56.75.75,0,0,1,.24-.57.74.74,0,0,1,.56-.24.75.75,0,0,1,.57.24.75.75,0,0,1,.24.57.76.76,0,0,1-.24.56A.75.75,0,0,1,.94,70.71Z" transform="translate(1.43 -22.46)"/><path class="cls-7" d="M3.22,68.35H-.15v-.51H.32a1.31,1.31,0,0,1-.39-.42,1.21,1.21,0,0,1-.15-.6,1.16,1.16,0,0,1,.15-.62.84.84,0,0,1,.44-.34,1.18,1.18,0,0,1-.59-1,1,1,0,0,1,.27-.77,1.2,1.2,0,0,1,.86-.27H3.22v.57H1.1a1.42,1.42,0,0,0-.49.06.44.44,0,0,0-.25.2A.64.64,0,0,0,.27,65a.79.79,0,0,0,.24.59,1,1,0,0,0,.75.24h2v.57H1a.92.92,0,0,0-.57.14.51.51,0,0,0-.19.45.81.81,0,0,0,.13.45.74.74,0,0,0,.37.3,2.12,2.12,0,0,0,.7.09H3.22Z" transform="translate(1.43 -22.46)"/><path class="cls-7" d="M4.51,62v1.26H4v-.69H-1v.69h-.47V62Z" transform="translate(1.43 -22.46)"/><rect class="繝後Μ_逋ｽ-2" x="20.56" y="48.83" width="47.91" height="16.58"/><path class="cls-7" d="M21.64,76.16l.58,0a1.2,1.2,0,0,0,.19.57,1,1,0,0,0,.47.36,1.64,1.64,0,0,0,.71.14,1.68,1.68,0,0,0,.62-.1.83.83,0,0,0,.4-.29.63.63,0,0,0,0-.78.9.9,0,0,0-.42-.27,6.63,6.63,0,0,0-.83-.23,4.09,4.09,0,0,1-.9-.29,1.3,1.3,0,0,1-.49-.43,1.09,1.09,0,0,1-.17-.58,1.19,1.19,0,0,1,.2-.66,1.27,1.27,0,0,1,.59-.47,2.43,2.43,0,0,1,1.76,0,1.25,1.25,0,0,1,.61.49,1.43,1.43,0,0,1,.23.73l-.59,0a1,1,0,0,0-.32-.67,1.69,1.69,0,0,0-1.63,0,.61.61,0,0,0-.25.49.54.54,0,0,0,.18.42,2.58,2.58,0,0,0,.93.33,5.44,5.44,0,0,1,1,.3,1.39,1.39,0,0,1,.6.47,1.22,1.22,0,0,1,.19.66,1.27,1.27,0,0,1-.21.7,1.4,1.4,0,0,1-.61.51,2.2,2.2,0,0,1-.9.19,2.72,2.72,0,0,1-1.06-.19,1.51,1.51,0,0,1-.67-.55A1.53,1.53,0,0,1,21.64,76.16Z" transform="translate(1.43 -22.46)"/><path class="cls-7" d="M26.11,77.66V73h.57v1.67a1.27,1.27,0,0,1,1-.46,1.36,1.36,0,0,1,.65.15.84.84,0,0,1,.39.4,1.91,1.91,0,0,1,.12.76v2.14h-.57V75.52a.88.88,0,0,0-.18-.62.71.71,0,0,0-.53-.2.91.91,0,0,0-.48.13.79.79,0,0,0-.32.36,1.73,1.73,0,0,0-.09.62v1.85Z" transform="translate(1.43 -22.46)"/><path class="cls-7" d="M29.51,76A1.74,1.74,0,0,1,30,74.58a1.69,1.69,0,0,1,2.2.08,1.77,1.77,0,0,1,.44,1.26,2.24,2.24,0,0,1-.2,1,1.44,1.44,0,0,1-.57.58,1.7,1.7,0,0,1-.81.2A1.51,1.51,0,0,1,30,77.28,1.79,1.79,0,0,1,29.51,76Zm.59,0a1.44,1.44,0,0,0,.28,1,.88.88,0,0,0,.71.32.93.93,0,0,0,.71-.32,1.48,1.48,0,0,0,.28-1,1.4,1.4,0,0,0-.28-1,.93.93,0,0,0-.71-.32.91.91,0,0,0-.71.32A1.44,1.44,0,0,0,30.1,76Z" transform="translate(1.43 -22.46)"/><path class="cls-7" d="M33.33,77.66V74.28h.52v.52a1.47,1.47,0,0,1,.36-.48.67.67,0,0,1,.37-.11,1.12,1.12,0,0,1,.58.18l-.19.53a.84.84,0,0,0-.42-.12.58.58,0,0,0-.34.11.62.62,0,0,0-.21.31,2.09,2.09,0,0,0-.1.67v1.77Z" transform="translate(1.43 -22.46)"/><path class="cls-7" d="M36.75,77.15l.08.5a2.37,2.37,0,0,1-.43,0,.9.9,0,0,1-.48-.1.47.47,0,0,1-.24-.26,1.9,1.9,0,0,1-.07-.67V74.73h-.42v-.45h.42v-.83l.57-.34v1.17h.57v.45h-.57v2a1.67,1.67,0,0,0,0,.31.29.29,0,0,0,.1.12.5.5,0,0,0,.2,0Z" transform="translate(1.43 -22.46)"/><path class="cls-7" d="M37.09,76.26v-.57h1.75v.57Z" transform="translate(1.43 -22.46)"/><path class="cls-7" d="M41.66,77.66v-.43a1,1,0,0,1-.94.5,1.29,1.29,0,0,1-.74-.22,1.47,1.47,0,0,1-.53-.62,2.22,2.22,0,0,1-.18-.92,2.42,2.42,0,0,1,.16-.91,1.34,1.34,0,0,1,1.26-.85,1.15,1.15,0,0,1,.93.46V73h.57v4.66ZM39.85,76a1.42,1.42,0,0,0,.28,1,.79.79,0,0,0,.64.32.83.83,0,0,0,.64-.3,1.46,1.46,0,0,0,.26-.94,1.54,1.54,0,0,0-.27-1,.81.81,0,0,0-1.29,0A1.55,1.55,0,0,0,39.85,76Z" transform="translate(1.43 -22.46)"/><path class="cls-7" d="M45.3,77.66v-.5a1.25,1.25,0,0,1-1.07.57,1.47,1.47,0,0,1-.56-.11.89.89,0,0,1-.38-.29,1,1,0,0,1-.18-.42,3.21,3.21,0,0,1,0-.54V74.28h.58v1.87a4,4,0,0,0,0,.61.57.57,0,0,0,.23.35.69.69,0,0,0,.43.13.91.91,0,0,0,.48-.13.74.74,0,0,0,.32-.36,1.63,1.63,0,0,0,.1-.66V74.28h.57v3.38Z" transform="translate(1.43 -22.46)"/><path class="cls-7" d="M46.7,77.66V74.28h.51v.52a1.47,1.47,0,0,1,.36-.48.7.7,0,0,1,.37-.11,1.15,1.15,0,0,1,.59.18l-.2.53a.84.84,0,0,0-.42-.12.55.55,0,0,0-.33.11.7.7,0,0,0-.22.31,2.41,2.41,0,0,0-.09.67v1.77Z" transform="translate(1.43 -22.46)"/><path class="cls-7" d="M51.07,77.24a2.22,2.22,0,0,1-.61.38,1.9,1.9,0,0,1-.63.11,1.25,1.25,0,0,1-.86-.27.89.89,0,0,1-.3-.69,1,1,0,0,1,.41-.78,1.18,1.18,0,0,1,.41-.19,4.17,4.17,0,0,1,.51-.09,5.49,5.49,0,0,0,1-.19v-.15a.6.6,0,0,0-.16-.49,1,1,0,0,0-.65-.2,1.06,1.06,0,0,0-.6.14.92.92,0,0,0-.28.5l-.56-.07a1.41,1.41,0,0,1,.25-.58,1.12,1.12,0,0,1,.51-.34,2.2,2.2,0,0,1,.76-.12,2,2,0,0,1,.7.1.87.87,0,0,1,.4.26,1,1,0,0,1,.18.39,2.94,2.94,0,0,1,0,.52v.76a9.89,9.89,0,0,0,0,1,1.56,1.56,0,0,0,.15.41h-.6A1.08,1.08,0,0,1,51.07,77.24ZM51,76a4,4,0,0,1-.93.22,2,2,0,0,0-.5.11.55.55,0,0,0-.23.19.5.5,0,0,0-.08.27.48.48,0,0,0,.18.38.73.73,0,0,0,.5.15,1.15,1.15,0,0,0,.59-.14,1,1,0,0,0,.38-.39,1.43,1.43,0,0,0,.09-.58Z" transform="translate(1.43 -22.46)"/><path class="cls-7" d="M53.73,77.15l.08.5a2.37,2.37,0,0,1-.43,0,.9.9,0,0,1-.48-.1.47.47,0,0,1-.24-.26,1.9,1.9,0,0,1-.07-.67V74.73h-.42v-.45h.42v-.83l.57-.34v1.17h.57v.45h-.57v2a1.67,1.67,0,0,0,0,.31.29.29,0,0,0,.1.12.5.5,0,0,0,.2,0Z" transform="translate(1.43 -22.46)"/><path class="cls-7" d="M54.29,73.66V73h.57v.66Zm0,4V74.28h.57v3.38Z" transform="translate(1.43 -22.46)"/><path class="cls-7" d="M55.52,76A1.74,1.74,0,0,1,56,74.58a1.69,1.69,0,0,1,2.2.08,1.77,1.77,0,0,1,.44,1.26,2.24,2.24,0,0,1-.2,1,1.44,1.44,0,0,1-.57.58,1.7,1.7,0,0,1-.81.2A1.51,1.51,0,0,1,56,77.28,1.79,1.79,0,0,1,55.52,76Zm.59,0a1.44,1.44,0,0,0,.28,1,.88.88,0,0,0,.71.32.93.93,0,0,0,.71-.32,1.48,1.48,0,0,0,.28-1,1.4,1.4,0,0,0-.28-1,.93.93,0,0,0-.71-.32.91.91,0,0,0-.71.32A1.44,1.44,0,0,0,56.11,76Z" transform="translate(1.43 -22.46)"/><path class="cls-7" d="M59.35,77.66V74.28h.51v.48a1.21,1.21,0,0,1,1.07-.55,1.43,1.43,0,0,1,.56.11.91.91,0,0,1,.39.29,1.06,1.06,0,0,1,.17.42,3.07,3.07,0,0,1,0,.55v2.08h-.58v-2a1.75,1.75,0,0,0-.06-.53.62.62,0,0,0-.24-.27.72.72,0,0,0-.4-.11.92.92,0,0,0-.63.24,1.14,1.14,0,0,0-.26.87v1.85Z" transform="translate(1.43 -22.46)"/><path class="cls-7" d="M21.77,85.46V82.08h.51v.52a1.47,1.47,0,0,1,.36-.48A.7.7,0,0,1,23,82a1.15,1.15,0,0,1,.59.18l-.2.53A.84.84,0,0,0,23,82.6a.6.6,0,0,0-.34.11.69.69,0,0,0-.21.31,2.41,2.41,0,0,0-.09.67v1.77Z" transform="translate(1.43 -22.46)"/><path class="cls-7" d="M26.15,85.46V85a1.25,1.25,0,0,1-1.07.57,1.47,1.47,0,0,1-.56-.11,1,1,0,0,1-.39-.29,1.13,1.13,0,0,1-.17-.42,3.21,3.21,0,0,1,0-.54V82.08h.58V84a4,4,0,0,0,0,.61.57.57,0,0,0,.23.35.67.67,0,0,0,.43.13.91.91,0,0,0,.48-.13.74.74,0,0,0,.32-.36,1.86,1.86,0,0,0,.09-.66V82.08h.58v3.38Z" transform="translate(1.43 -22.46)"/><path class="cls-7" d="M27.55,85.46V82.08h.52v.48A1.19,1.19,0,0,1,29.14,82a1.47,1.47,0,0,1,.56.11.82.82,0,0,1,.38.29,1.07,1.07,0,0,1,.18.42,3.37,3.37,0,0,1,0,.55v2.08h-.57v-2a1.44,1.44,0,0,0-.07-.53.54.54,0,0,0-.23-.27.77.77,0,0,0-.4-.11.88.88,0,0,0-.63.24,1.1,1.1,0,0,0-.27.87v1.85Z" transform="translate(1.43 -22.46)"/><path class="cls-7" d="M31.17,85.46V82.08h.51v.48A1.21,1.21,0,0,1,32.75,82a1.43,1.43,0,0,1,.56.11.91.91,0,0,1,.39.29,1.06,1.06,0,0,1,.17.42,3.07,3.07,0,0,1,0,.55v2.08h-.58v-2a1.75,1.75,0,0,0-.06-.53.62.62,0,0,0-.24-.27.72.72,0,0,0-.4-.11.92.92,0,0,0-.63.24,1.14,1.14,0,0,0-.26.87v1.85Z" transform="translate(1.43 -22.46)"/><path class="cls-7" d="M34.78,81.46V80.8h.58v.66Zm0,4V82.08h.58v3.38Z" transform="translate(1.43 -22.46)"/><path class="cls-7" d="M36.23,85.46V82.08h.51v.48A1.2,1.2,0,0,1,37.81,82a1.43,1.43,0,0,1,.56.11.82.82,0,0,1,.38.29.94.94,0,0,1,.18.42,3.37,3.37,0,0,1,0,.55v2.08h-.57v-2a1.75,1.75,0,0,0-.06-.53.62.62,0,0,0-.24-.27.75.75,0,0,0-.4-.11.92.92,0,0,0-.63.24,1.1,1.1,0,0,0-.26.87v1.85Z" transform="translate(1.43 -22.46)"/><path class="cls-7" d="M39.74,85.73l.55.09a.5.5,0,0,0,.2.37.91.91,0,0,0,.58.16,1,1,0,0,0,.61-.16.76.76,0,0,0,.29-.44A3.89,3.89,0,0,0,42,85a1.16,1.16,0,0,1-.93.45A1.27,1.27,0,0,1,40,85a1.93,1.93,0,0,1-.38-1.2,2.18,2.18,0,0,1,.18-.89,1.37,1.37,0,0,1,.5-.63,1.35,1.35,0,0,1,.78-.22,1.22,1.22,0,0,1,1,.48v-.41h.52V85a2.7,2.7,0,0,1-.16,1.11,1.12,1.12,0,0,1-.51.52,1.7,1.7,0,0,1-.85.19,1.65,1.65,0,0,1-1-.27A.92.92,0,0,1,39.74,85.73Zm.47-2a1.5,1.5,0,0,0,.26,1,.88.88,0,0,0,1.32,0,1.77,1.77,0,0,0,0-1.88.88.88,0,0,0-.67-.32.86.86,0,0,0-.65.31A1.42,1.42,0,0,0,40.21,83.71Z" transform="translate(1.43 -22.46)"/><path class="cls-7" d="M45.25,85.46V82.08h.52v.52a1.47,1.47,0,0,1,.36-.48A.7.7,0,0,1,46.5,82a1.15,1.15,0,0,1,.59.18l-.2.53a.84.84,0,0,0-.42-.12.6.6,0,0,0-.34.11.62.62,0,0,0-.21.31,2.41,2.41,0,0,0-.09.67v1.77Z" transform="translate(1.43 -22.46)"/><path class="cls-7" d="M49.63,85a2.22,2.22,0,0,1-.61.38,1.91,1.91,0,0,1-.64.11,1.22,1.22,0,0,1-.85-.27.89.89,0,0,1-.3-.69,1,1,0,0,1,.41-.78,1.18,1.18,0,0,1,.41-.19,4.17,4.17,0,0,1,.51-.09,5.49,5.49,0,0,0,1-.19v-.15a.6.6,0,0,0-.16-.49,1,1,0,0,0-.65-.2,1.06,1.06,0,0,0-.6.14.92.92,0,0,0-.28.5l-.56-.07a1.29,1.29,0,0,1,.25-.58,1.12,1.12,0,0,1,.51-.34,2.2,2.2,0,0,1,.76-.12,2,2,0,0,1,.7.1.93.93,0,0,1,.4.26,1,1,0,0,1,.18.39,2.94,2.94,0,0,1,0,.52V84a9.89,9.89,0,0,0,0,1,1.27,1.27,0,0,0,.15.41h-.6A1.08,1.08,0,0,1,49.63,85Zm-.05-1.28a4,4,0,0,1-.94.22,2,2,0,0,0-.49.11.55.55,0,0,0-.23.19.5.5,0,0,0,.09.65.78.78,0,0,0,.51.15,1.15,1.15,0,0,0,.59-.14,1,1,0,0,0,.38-.39,1.43,1.43,0,0,0,.09-.58Z" transform="translate(1.43 -22.46)"/><path class="cls-7" d="M51,85.46V82.08h.52v.48A1.19,1.19,0,0,1,52.63,82a1.47,1.47,0,0,1,.56.11.82.82,0,0,1,.38.29,1.07,1.07,0,0,1,.18.42,3.37,3.37,0,0,1,0,.55v2.08h-.57v-2a1.44,1.44,0,0,0-.07-.53.52.52,0,0,0-.24-.27.71.71,0,0,0-.39-.11.88.88,0,0,0-.63.24,1.1,1.1,0,0,0-.27.87v1.85Z" transform="translate(1.43 -22.46)"/><path class="cls-7" d="M54.55,85.73l.56.09a.5.5,0,0,0,.19.37.93.93,0,0,0,.58.16,1,1,0,0,0,.61-.16.73.73,0,0,0,.3-.44,3.89,3.89,0,0,0,0-.74,1.17,1.17,0,0,1-.94.45A1.25,1.25,0,0,1,54.82,85a1.87,1.87,0,0,1-.38-1.2,2.35,2.35,0,0,1,.17-.89,1.46,1.46,0,0,1,.51-.63A1.35,1.35,0,0,1,55.9,82a1.22,1.22,0,0,1,1,.48v-.41h.53V85a2.88,2.88,0,0,1-.16,1.11,1.16,1.16,0,0,1-.51.52,1.74,1.74,0,0,1-.86.19,1.61,1.61,0,0,1-1-.27A.91.91,0,0,1,54.55,85.73Zm.47-2a1.44,1.44,0,0,0,.27,1A.83.83,0,0,0,56,85a.85.85,0,0,0,.66-.3,1.8,1.8,0,0,0,0-1.88.84.84,0,0,0-1.31,0A1.37,1.37,0,0,0,55,83.71Z" transform="translate(1.43 -22.46)"/><path class="cls-7" d="M60.58,84.37l.59.07a1.44,1.44,0,0,1-.52.81,1.54,1.54,0,0,1-1,.28,1.56,1.56,0,0,1-1.18-.45,1.79,1.79,0,0,1-.43-1.28,1.86,1.86,0,0,1,.44-1.32A1.49,1.49,0,0,1,59.66,82a1.43,1.43,0,0,1,1.1.46,1.81,1.81,0,0,1,.43,1.29,1,1,0,0,1,0,.16H58.67a1.34,1.34,0,0,0,.31.85,1,1,0,0,0,.71.29.89.89,0,0,0,.54-.16A1.2,1.2,0,0,0,60.58,84.37Zm-1.88-.92h1.88a1.08,1.08,0,0,0-.21-.64.88.88,0,0,0-.71-.33.93.93,0,0,0-.66.26A1.05,1.05,0,0,0,58.7,83.45Z" transform="translate(1.43 -22.46)"/><rect class="繝後Μ_逋ｽ-2" x="21.31" y="92.77" width="41.46" height="16.58"/><path class="cls-7" d="M26,120l.62.16a2,2,0,0,1-.7,1.15,1.88,1.88,0,0,1-1.23.4,2.14,2.14,0,0,1-1.22-.31,1.91,1.91,0,0,1-.72-.88,3.27,3.27,0,0,1-.24-1.25,2.83,2.83,0,0,1,.27-1.27,2,2,0,0,1,.79-.82,2.31,2.31,0,0,1,1.13-.28,2,2,0,0,1,1.18.35,1.92,1.92,0,0,1,.66,1l-.61.15a1.34,1.34,0,0,0-.47-.74,1.2,1.2,0,0,0-.77-.23,1.52,1.52,0,0,0-.9.25,1.3,1.3,0,0,0-.5.69,2.74,2.74,0,0,0-.15.9,2.92,2.92,0,0,0,.17,1,1.35,1.35,0,0,0,.54.67,1.56,1.56,0,0,0,.79.21,1.37,1.37,0,0,0,.88-.29A1.51,1.51,0,0,0,26,120Z" transform="translate(1.43 -22.46)"/><path class="cls-7" d="M27.06,119.91a1.76,1.76,0,0,1,.52-1.39,1.58,1.58,0,0,1,1.06-.38,1.54,1.54,0,0,1,1.14.46,1.74,1.74,0,0,1,.44,1.26,2.38,2.38,0,0,1-.19,1,1.45,1.45,0,0,1-.57.58,1.64,1.64,0,0,1-.82.21,1.48,1.48,0,0,1-1.14-.46A1.79,1.79,0,0,1,27.06,119.91Zm.59,0a1.44,1.44,0,0,0,.28,1,.93.93,0,0,0,.71.32.89.89,0,0,0,.71-.33,1.43,1.43,0,0,0,.28-1,1.38,1.38,0,0,0-.28-1,.93.93,0,0,0-.71-.32.9.9,0,0,0-.71.32A1.41,1.41,0,0,0,27.65,119.91Z" transform="translate(1.43 -22.46)"/><path class="cls-7" d="M30.89,121.59v-3.37h.51v.48a1.23,1.23,0,0,1,1.08-.56,1.47,1.47,0,0,1,.56.11,1,1,0,0,1,.38.29,1.33,1.33,0,0,1,.18.42,3.51,3.51,0,0,1,0,.56v2.07h-.57v-2A1.38,1.38,0,0,0,33,119a.5.5,0,0,0-.24-.28.71.71,0,0,0-.39-.1.92.92,0,0,0-.63.23,1.14,1.14,0,0,0-.27.88v1.84Z" transform="translate(1.43 -22.46)"/><path class="cls-7" d="M35.75,121.08l.08.51a2.37,2.37,0,0,1-.43,0,1,1,0,0,1-.48-.1.6.6,0,0,1-.24-.26,2,2,0,0,1-.07-.68v-1.93h-.42v-.45h.42v-.83l.57-.35v1.18h.57v.45h-.57v2a1,1,0,0,0,0,.31.21.21,0,0,0,.1.11.34.34,0,0,0,.19,0A1.24,1.24,0,0,0,35.75,121.08Z" transform="translate(1.43 -22.46)"/><path class="cls-7" d="M36.31,117.6v-.66h.58v.66Zm0,4v-3.37h.58v3.37Z" transform="translate(1.43 -22.46)"/><path class="cls-7" d="M37.75,121.59v-3.37h.52v.48a1.21,1.21,0,0,1,1.07-.56,1.47,1.47,0,0,1,.56.11.89.89,0,0,1,.38.29,1,1,0,0,1,.18.42,3.51,3.51,0,0,1,0,.56v2.07h-.57v-2a1.67,1.67,0,0,0-.06-.52.6.6,0,0,0-.24-.28.74.74,0,0,0-.4-.1,1,1,0,0,0-.63.23,1.14,1.14,0,0,0-.26.88v1.84Z" transform="translate(1.43 -22.46)"/><path class="cls-7" d="M43.58,121.59v-.49a1.23,1.23,0,0,1-1.07.57,1.31,1.31,0,0,1-.56-.12.88.88,0,0,1-.38-.28,1.12,1.12,0,0,1-.18-.43,3.33,3.33,0,0,1,0-.53v-2.09h.57v1.87a3.77,3.77,0,0,0,0,.6.68.68,0,0,0,.23.36.75.75,0,0,0,.43.13,1,1,0,0,0,.49-.14.66.66,0,0,0,.31-.35,1.7,1.7,0,0,0,.1-.66v-1.81h.57v3.37Z" transform="translate(1.43 -22.46)"/><path class="cls-7" d="M44.77,119.91a1.76,1.76,0,0,1,.52-1.39,1.58,1.58,0,0,1,1.06-.38,1.54,1.54,0,0,1,1.14.46,1.74,1.74,0,0,1,.44,1.26,2.38,2.38,0,0,1-.19,1,1.45,1.45,0,0,1-.57.58,1.64,1.64,0,0,1-.82.21,1.48,1.48,0,0,1-1.14-.46A1.79,1.79,0,0,1,44.77,119.91Zm.59,0a1.44,1.44,0,0,0,.28,1,.93.93,0,0,0,.71.32.89.89,0,0,0,.71-.33,1.43,1.43,0,0,0,.28-1,1.38,1.38,0,0,0-.28-1,.93.93,0,0,0-.71-.32.9.9,0,0,0-.71.32A1.41,1.41,0,0,0,45.36,119.91Z" transform="translate(1.43 -22.46)"/><path class="cls-7" d="M50.81,121.59v-.49a1.23,1.23,0,0,1-1.07.57,1.31,1.31,0,0,1-.56-.12.88.88,0,0,1-.38-.28,1.12,1.12,0,0,1-.18-.43,3.33,3.33,0,0,1,0-.53v-2.09h.57v1.87a3.77,3.77,0,0,0,0,.6.68.68,0,0,0,.23.36.75.75,0,0,0,.43.13,1,1,0,0,0,.49-.14.66.66,0,0,0,.31-.35,1.7,1.7,0,0,0,.1-.66v-1.81h.57v3.37Z" transform="translate(1.43 -22.46)"/><path class="cls-7" d="M52,120.59l.56-.09a.78.78,0,0,0,.27.52.9.9,0,0,0,.6.18A.94.94,0,0,0,54,121a.5.5,0,0,0,.19-.38.34.34,0,0,0-.17-.3,2.49,2.49,0,0,0-.58-.2,5,5,0,0,1-.88-.27.86.86,0,0,1-.49-.77,1,1,0,0,1,.1-.42.89.89,0,0,1,.29-.32,1.1,1.1,0,0,1,.36-.17,1.93,1.93,0,0,1,.49-.07,1.86,1.86,0,0,1,.7.12.94.94,0,0,1,.44.31,1.18,1.18,0,0,1,.2.52l-.56.08a.64.64,0,0,0-.22-.41.79.79,0,0,0-.52-.15,1,1,0,0,0-.56.13.4.4,0,0,0-.17.31.37.37,0,0,0,.07.2.53.53,0,0,0,.22.15l.51.15a7.54,7.54,0,0,1,.84.26.88.88,0,0,1,.38.3.86.86,0,0,1,.14.49,1,1,0,0,1-.17.54,1,1,0,0,1-.48.39,1.8,1.8,0,0,1-.71.14,1.53,1.53,0,0,1-1-.28A1.24,1.24,0,0,1,52,120.59Z" transform="translate(1.43 -22.46)"/><path class="cls-7" d="M22.57,129.39V126h.52v.51a1.41,1.41,0,0,1,.36-.47.63.63,0,0,1,.37-.12,1.17,1.17,0,0,1,.59.19l-.2.53a.84.84,0,0,0-.42-.12.51.51,0,0,0-.34.11.58.58,0,0,0-.21.31,2.36,2.36,0,0,0-.09.67v1.76Z" transform="translate(1.43 -22.46)"/><path class="cls-7" d="M27,129.39v-.49a1.22,1.22,0,0,1-1.07.57,1.3,1.3,0,0,1-.55-.12,1,1,0,0,1-.39-.28,1.11,1.11,0,0,1-.17-.43,2.3,2.3,0,0,1,0-.53V126h.57v1.87a3.41,3.41,0,0,0,0,.6.58.58,0,0,0,.23.36A.73.73,0,0,0,26,129a.92.92,0,0,0,.48-.14.68.68,0,0,0,.32-.35,1.94,1.94,0,0,0,.09-.66V126h.58v3.37Z" transform="translate(1.43 -22.46)"/><path class="cls-7" d="M28.36,129.39V126h.51v.48a1.23,1.23,0,0,1,1.08-.56,1.47,1.47,0,0,1,.56.11.89.89,0,0,1,.38.29,1.33,1.33,0,0,1,.18.42,3.51,3.51,0,0,1,0,.56v2.07h-.57v-2a1.38,1.38,0,0,0-.07-.52.5.5,0,0,0-.24-.28.71.71,0,0,0-.39-.1.92.92,0,0,0-.63.23,1.14,1.14,0,0,0-.27.88v1.84Z" transform="translate(1.43 -22.46)"/><path class="cls-7" d="M32,129.39V126h.51v.48a1.21,1.21,0,0,1,1.07-.56,1.43,1.43,0,0,1,.56.11.89.89,0,0,1,.38.29,1,1,0,0,1,.18.42,3.51,3.51,0,0,1,0,.56v2.07h-.57v-2a1.67,1.67,0,0,0-.06-.52.6.6,0,0,0-.24-.28.74.74,0,0,0-.4-.1,1,1,0,0,0-.63.23,1.14,1.14,0,0,0-.26.88v1.84Z" transform="translate(1.43 -22.46)"/><path class="cls-7" d="M35.59,125.4v-.66h.57v.66Zm0,4V126h.57v3.37Z" transform="translate(1.43 -22.46)"/><path class="cls-7" d="M37,129.39V126h.52v.48a1.21,1.21,0,0,1,1.07-.56,1.47,1.47,0,0,1,.56.11.89.89,0,0,1,.38.29,1,1,0,0,1,.18.42,3.51,3.51,0,0,1,0,.56v2.07H39.2v-2a1.67,1.67,0,0,0-.06-.52.6.6,0,0,0-.24-.28.74.74,0,0,0-.4-.1,1,1,0,0,0-.63.23,1.14,1.14,0,0,0-.26.88v1.84Z" transform="translate(1.43 -22.46)"/><path class="cls-7" d="M40.54,129.67l.56.08a.56.56,0,0,0,.19.38,1,1,0,0,0,.58.16,1.09,1.09,0,0,0,.62-.16.82.82,0,0,0,.29-.45,3.76,3.76,0,0,0,0-.73,1.18,1.18,0,0,1-.93.44,1.28,1.28,0,0,1-1.08-.5,1.93,1.93,0,0,1-.38-1.2,2.35,2.35,0,0,1,.17-.89,1.4,1.4,0,0,1,.51-.63,1.35,1.35,0,0,1,.78-.23,1.2,1.2,0,0,1,1,.49V126h.53v2.91a2.72,2.72,0,0,1-.16,1.12,1.22,1.22,0,0,1-.51.52,1.7,1.7,0,0,1-.85.19,1.65,1.65,0,0,1-1-.27A1,1,0,0,1,40.54,129.67Zm.48-2a1.41,1.41,0,0,0,.26,1,.83.83,0,0,0,.66.31.85.85,0,0,0,.66-.3,1.42,1.42,0,0,0,.27-1,1.35,1.35,0,0,0-.28-.94.85.85,0,0,0-1.31,0A1.4,1.4,0,0,0,41,127.65Z" transform="translate(1.43 -22.46)"/><path class="cls-7" d="M46.06,129.39V126h.52v.51a1.41,1.41,0,0,1,.36-.47.61.61,0,0,1,.37-.12,1.17,1.17,0,0,1,.59.19l-.2.53a.84.84,0,0,0-.42-.12.51.51,0,0,0-.34.11.58.58,0,0,0-.21.31,2.36,2.36,0,0,0-.09.67v1.76Z" transform="translate(1.43 -22.46)"/><path class="cls-7" d="M50.43,129a2.17,2.17,0,0,1-.61.38,1.81,1.81,0,0,1-.63.11,1.22,1.22,0,0,1-.85-.27.91.91,0,0,1-.3-.7,1,1,0,0,1,.11-.45,1,1,0,0,1,.3-.33,1.72,1.72,0,0,1,.41-.19l.51-.08a5.33,5.33,0,0,0,1-.2v-.15a.63.63,0,0,0-.16-.49,1,1,0,0,0-.65-.19,1,1,0,0,0-.6.14.83.83,0,0,0-.28.5l-.56-.08a1.34,1.34,0,0,1,.25-.58,1.17,1.17,0,0,1,.5-.34,2.3,2.3,0,0,1,.77-.12,1.94,1.94,0,0,1,.7.11.92.92,0,0,1,.4.25,1,1,0,0,1,.18.39c0,.1,0,.27,0,.53V128a8.82,8.82,0,0,0,0,1,1.22,1.22,0,0,0,.15.4h-.6A1.31,1.31,0,0,1,50.43,129Zm0-1.28a4.52,4.52,0,0,1-.94.22A2,2,0,0,0,49,128a.43.43,0,0,0-.23.19.5.5,0,0,0,.09.65.78.78,0,0,0,.51.15,1.25,1.25,0,0,0,.59-.14.89.89,0,0,0,.37-.4,1.24,1.24,0,0,0,.1-.57Z" transform="translate(1.43 -22.46)"/><path class="cls-7" d="M51.85,129.39V126h.51v.48a1.23,1.23,0,0,1,1.08-.56,1.47,1.47,0,0,1,.56.11,1,1,0,0,1,.38.29,1.33,1.33,0,0,1,.18.42,3.51,3.51,0,0,1,0,.56v2.07H54v-2a1.38,1.38,0,0,0-.07-.52.5.5,0,0,0-.24-.28.71.71,0,0,0-.39-.1.92.92,0,0,0-.63.23,1.14,1.14,0,0,0-.27.88v1.84Z" transform="translate(1.43 -22.46)"/><path class="cls-7" d="M55.36,129.67l.56.08a.52.52,0,0,0,.19.38,1,1,0,0,0,.58.16,1.05,1.05,0,0,0,.61-.16.77.77,0,0,0,.29-.45,3.49,3.49,0,0,0,0-.73,1.19,1.19,0,0,1-.94.44,1.27,1.27,0,0,1-1.07-.5,1.87,1.87,0,0,1-.38-1.2,2.17,2.17,0,0,1,.17-.89,1.4,1.4,0,0,1,.51-.63,1.35,1.35,0,0,1,.78-.23,1.23,1.23,0,0,1,1,.49V126h.53v2.91a2.9,2.9,0,0,1-.16,1.12,1.22,1.22,0,0,1-.51.52,1.74,1.74,0,0,1-.86.19,1.61,1.61,0,0,1-1-.27A.92.92,0,0,1,55.36,129.67Zm.47-2a1.41,1.41,0,0,0,.27,1,.81.81,0,0,0,.66.31.85.85,0,0,0,.66-.3,1.48,1.48,0,0,0,.26-1,1.41,1.41,0,0,0-.27-.94.83.83,0,0,0-.66-.31.81.81,0,0,0-.65.31A1.35,1.35,0,0,0,55.83,127.65Z" transform="translate(1.43 -22.46)"/><path class="cls-7" d="M61.39,128.31l.59.07a1.5,1.5,0,0,1-.52.8,1.74,1.74,0,0,1-2.14-.17,1.77,1.77,0,0,1-.43-1.28,1.9,1.9,0,0,1,.44-1.32,1.49,1.49,0,0,1,1.13-.47,1.46,1.46,0,0,1,1.11.47A1.82,1.82,0,0,1,62,127.7a1,1,0,0,1,0,.15H59.48a1.32,1.32,0,0,0,.31.85.94.94,0,0,0,.71.3.84.84,0,0,0,.53-.17A1.1,1.1,0,0,0,61.39,128.31Zm-1.88-.93h1.88a1.13,1.13,0,0,0-.21-.64.88.88,0,0,0-.71-.33.9.9,0,0,0-.66.27A1,1,0,0,0,59.51,127.38Z" transform="translate(1.43 -22.46)"/><path class="cls-7" d="M44.05,150.56l.58-.05a1.32,1.32,0,0,0,.19.57,1,1,0,0,0,.47.36,1.8,1.8,0,0,0,.71.14,1.73,1.73,0,0,0,.63-.11.87.87,0,0,0,.4-.28.68.68,0,0,0,.13-.4.59.59,0,0,0-.13-.39.92.92,0,0,0-.42-.27c-.12,0-.4-.12-.82-.23a4.09,4.09,0,0,1-.9-.29,1.19,1.19,0,0,1-.5-.43,1.06,1.06,0,0,1-.16-.58,1.16,1.16,0,0,1,.2-.66,1.18,1.18,0,0,1,.58-.46,2.15,2.15,0,0,1,.85-.16,2.4,2.4,0,0,1,.92.16,1.35,1.35,0,0,1,.6.5,1.32,1.32,0,0,1,.23.73l-.59,0a1,1,0,0,0-.32-.66,1.24,1.24,0,0,0-.81-.23,1.27,1.27,0,0,0-.81.21.61.61,0,0,0-.26.49A.52.52,0,0,0,45,149a2.39,2.39,0,0,0,.93.33,7.58,7.58,0,0,1,1,.3,1.47,1.47,0,0,1,.6.47,1.19,1.19,0,0,1,.19.67,1.3,1.3,0,0,1-.21.7,1.4,1.4,0,0,1-.61.51,2.19,2.19,0,0,1-.9.18A2.76,2.76,0,0,1,45,152a1.59,1.59,0,0,1-.67-.56A1.56,1.56,0,0,1,44.05,150.56Z" transform="translate(1.43 -22.46)"/><path class="cls-7" d="M48.52,153.34v-4.66H49v.44a1.29,1.29,0,0,1,.42-.39,1.19,1.19,0,0,1,.56-.13,1.31,1.31,0,0,1,.76.23,1.29,1.29,0,0,1,.5.62,2.35,2.35,0,0,1,.17.89,2.15,2.15,0,0,1-.19.93,1.36,1.36,0,0,1-.54.64,1.42,1.42,0,0,1-.74.22,1.14,1.14,0,0,1-.52-.12,1.25,1.25,0,0,1-.37-.31v1.64Zm.52-3a1.52,1.52,0,0,0,.26,1,.82.82,0,0,0,1.29,0,1.55,1.55,0,0,0,.27-1,1.5,1.5,0,0,0-.26-1,.82.82,0,0,0-.63-.32.85.85,0,0,0-.65.34A1.52,1.52,0,0,0,49,150.38Z" transform="translate(1.43 -22.46)"/><path class="cls-7" d="M54.44,151,55,151a1.43,1.43,0,0,1-.51.8,1.6,1.6,0,0,1-1,.29,1.52,1.52,0,0,1-1.17-.46,1.77,1.77,0,0,1-.43-1.28,1.89,1.89,0,0,1,.43-1.32,1.51,1.51,0,0,1,1.14-.47,1.45,1.45,0,0,1,1.1.46,1.82,1.82,0,0,1,.43,1.3v.15H52.54a1.26,1.26,0,0,0,.31.85.92.92,0,0,0,.7.3.89.89,0,0,0,.54-.17A1,1,0,0,0,54.44,151ZM52.57,150h1.88a1.21,1.21,0,0,0-.22-.64.86.86,0,0,0-.7-.33.9.9,0,0,0-.67.27A1.07,1.07,0,0,0,52.57,150Z" transform="translate(1.43 -22.46)"/><path class="cls-7" d="M58.06,151l.59.07a1.44,1.44,0,0,1-.52.8,1.74,1.74,0,0,1-2.14-.17,1.77,1.77,0,0,1-.43-1.28,1.9,1.9,0,0,1,.44-1.32,1.49,1.49,0,0,1,1.13-.47,1.47,1.47,0,0,1,1.11.46,1.87,1.87,0,0,1,.43,1.3,1,1,0,0,1,0,.15H56.15a1.27,1.27,0,0,0,.32.85.91.91,0,0,0,.7.3.89.89,0,0,0,.54-.17A1.16,1.16,0,0,0,58.06,151ZM56.18,150h1.88a1.13,1.13,0,0,0-.21-.64.88.88,0,0,0-.71-.33.9.9,0,0,0-.66.27A1,1,0,0,0,56.18,150Z" transform="translate(1.43 -22.46)"/><path class="cls-7" d="M61.55,152.05v-.42a1.05,1.05,0,0,1-.94.5,1.3,1.3,0,0,1-.74-.23,1.33,1.33,0,0,1-.52-.62,2,2,0,0,1-.19-.91,2.47,2.47,0,0,1,.17-.92,1.37,1.37,0,0,1,.5-.63,1.43,1.43,0,0,1,.75-.22,1.21,1.21,0,0,1,.55.13,1,1,0,0,1,.38.34V147.4h.57v4.65Zm-1.8-1.68a1.5,1.5,0,0,0,.27,1,.83.83,0,0,0,.64.32.82.82,0,0,0,.64-.31,1.41,1.41,0,0,0,.26-.93,1.64,1.64,0,0,0-.26-1,.81.81,0,0,0-.66-.32.78.78,0,0,0-.64.31A1.54,1.54,0,0,0,59.75,150.37Z" transform="translate(1.43 -22.46)"/><path class="cls-7" d="M64.8,153.34V147.4h1.26v.47h-.69v5h.69v.47Z" transform="translate(1.43 -22.46)"/><path class="cls-7" d="M66.59,152.05v-3.37h.51v.51a1.31,1.31,0,0,1,.36-.47.63.63,0,0,1,.37-.12,1.17,1.17,0,0,1,.59.19l-.2.53a.86.86,0,0,0-.42-.13.52.52,0,0,0-.33.12.65.65,0,0,0-.22.31,2.31,2.31,0,0,0-.09.67v1.76Z" transform="translate(1.43 -22.46)"/><path class="cls-7" d="M68.33,152.13l1.35-4.81h.45l-1.34,4.81Z" transform="translate(1.43 -22.46)"/><path class="cls-7" d="M70.56,152.05v-3.37h.51v.47a1.38,1.38,0,0,1,.43-.4,1.16,1.16,0,0,1,.6-.15,1.13,1.13,0,0,1,.61.16.86.86,0,0,1,.34.43,1.2,1.2,0,0,1,1-.59,1.05,1.05,0,0,1,.77.28,1.2,1.2,0,0,1,.27.86v2.31h-.57v-2.12a1.91,1.91,0,0,0,0-.5.52.52,0,0,0-.2-.24.68.68,0,0,0-.35-.09.81.81,0,0,0-.59.24,1.05,1.05,0,0,0-.23.75v2h-.57v-2.19a1,1,0,0,0-.14-.57.54.54,0,0,0-.46-.19.81.81,0,0,0-.45.13.69.69,0,0,0-.29.37,2.08,2.08,0,0,0-.1.7v1.75Z" transform="translate(1.43 -22.46)"/><path class="cls-7" d="M76,148.05v-.65h.57v.65Zm0,4v-3.37h.57v3.37Z" transform="translate(1.43 -22.46)"/><path class="cls-7" d="M77.42,152.05v-3.37h.52v.48A1.2,1.2,0,0,1,79,148.6a1.47,1.47,0,0,1,.56.11A.89.89,0,0,1,80,149a1,1,0,0,1,.18.42,3.51,3.51,0,0,1,0,.56v2.07h-.57V150a1.38,1.38,0,0,0-.07-.52.53.53,0,0,0-.23-.28.77.77,0,0,0-.4-.1.94.94,0,0,0-.63.23,1.13,1.13,0,0,0-.27.88v1.84Z" transform="translate(1.43 -22.46)"/><path class="cls-7" d="M82,153.34H80.73v-.47h.69v-5h-.69v-.47H82Z" transform="translate(1.43 -22.46)"/></g></svg>