<svg xmlns="http://www.w3.org/2000/svg" viewBox="0 0 115.72 130.66"><defs><style>.cls-1,.cls-2,.cls-3,.cls-4,.cls-5,.cls-6,.cls-7,.邱喟0\.5pt{fill:none;}.cls-1,.cls-6,.cls-7,.邱喟0\.5pt{stroke:#231815;}.cls-1{stroke-linejoin:round;stroke-width:0.14px;}.cls-2,.cls-3,.cls-4,.cls-5{stroke:#9fa0a0;}.cls-2,.cls-3,.邱喟0\.5pt{stroke-miterlimit:10;}.cls-2,.cls-3{stroke-width:1px;}.cls-3{stroke-dasharray:2.94 1.42;}.cls-4{stroke-linecap:square;}.cls-4,.cls-5{stroke-width:3px;}.cls-5,.cls-6{stroke-linecap:round;}.cls-8{fill:#231815;}.繝後Μ_逋ｽ-2{fill:#fff;}.邱喟0\.5pt{stroke-width:0.5px;}</style></defs><g id="Illust"><line class="cls-1" x1="19.87" y1="100.63" x2="109.15" y2="100.63"/><line class="cls-2" x1="97.24" y1="97.19" x2="97.24" y2="98.74"/><line class="cls-3" x1="97.24" y1="100.16" x2="97.24" y2="112.53"/><line class="cls-2" x1="97.24" y1="113.24" x2="97.24" y2="114.8"/><line class="cls-1" x1="19.87" y1="86.44" x2="109.15" y2="86.44"/><line class="cls-1" x1="19.87" y1="72.25" x2="109.15" y2="72.25"/><line class="cls-1" x1="19.87" y1="58.12" x2="109.15" y2="58.12"/><line class="cls-1" x1="19.87" y1="43.93" x2="109.15" y2="43.93"/><line class="cls-1" x1="19.87" y1="29.79" x2="109.15" y2="29.79"/><line class="cls-1" x1="19.87" y1="15.6" x2="109.15" y2="15.6"/><line class="cls-1" x1="49.61" y1="1.41" x2="49.61" y2="114.76"/><line class="cls-1" x1="79.38" y1="1.41" x2="79.38" y2="114.76"/><polyline class="cls-4" points="19.86 20.06 54.09 20.06 79.39 58.09 109.14 83.08"/><polyline class="cls-5" points="19.86 83.2 27.31 83.2 34.74 83.2 49.62 83.2 64.51 83.2 79.39 91.08 94.25 95.81 109.14 99.03"/><polyline class="cls-6" points="19.86 83.2 27.31 83.2 34.74 83.2 49.62 83.2 64.51 83.2 79.39 91.08 94.25 95.81 109.14 99.03"/><polyline class="cls-7" points="19.86 20.06 50.37 20.06 61.52 35.89 79.39 61.79 109.44 85.54"/><path class="cls-8" d="M45.69,142.73v.42H43.32a.81.81,0,0,1,0-.31,1.58,1.58,0,0,1,.29-.47,3.49,3.49,0,0,1,.58-.54,5.15,5.15,0,0,0,.78-.76.9.9,0,0,0,.21-.53.58.58,0,0,0-.19-.44.66.66,0,0,0-.49-.18.65.65,0,0,0-.5.19.75.75,0,0,0-.2.53l-.45,0a1.12,1.12,0,0,1,.35-.77,1.16,1.16,0,0,1,.81-.26,1.13,1.13,0,0,1,.82.28.94.94,0,0,1,.3.71,1.06,1.06,0,0,1-.09.42,1.51,1.51,0,0,1-.29.44,8.11,8.11,0,0,1-.68.63,6.1,6.1,0,0,0-.5.45,1.33,1.33,0,0,0-.19.24Z" transform="translate(1.43 -22.69)"/><path class="cls-8" d="M46.19,141.38a3.2,3.2,0,0,1,.13-1,1.14,1.14,0,0,1,.39-.59,1,1,0,0,1,.64-.21,1,1,0,0,1,.51.11,1.06,1.06,0,0,1,.36.34,1.73,1.73,0,0,1,.22.53,3.72,3.72,0,0,1,.08.84,3.2,3.2,0,0,1-.13,1,1.23,1.23,0,0,1-.39.6,1.09,1.09,0,0,1-1.46-.16A2.34,2.34,0,0,1,46.19,141.38Zm.45,0a2.38,2.38,0,0,0,.2,1.18.59.59,0,0,0,1,0,2.25,2.25,0,0,0,.21-1.18,2.2,2.2,0,0,0-.21-1.17.62.62,0,0,0-.51-.29.59.59,0,0,0-.49.26A2.26,2.26,0,0,0,46.64,141.38Z" transform="translate(1.43 -22.69)"/><path class="cls-8" d="M48.94,141.38a3.2,3.2,0,0,1,.13-1,1.2,1.2,0,0,1,.39-.59,1,1,0,0,1,.64-.21,1,1,0,0,1,.51.11A1.06,1.06,0,0,1,51,140a1.73,1.73,0,0,1,.22.53,3.72,3.72,0,0,1,.08.84,3.2,3.2,0,0,1-.13,1,1.22,1.22,0,0,1-.38.6,1,1,0,0,1-.66.21,1,1,0,0,1-.81-.37A2.41,2.41,0,0,1,48.94,141.38Zm.45,0a2.38,2.38,0,0,0,.2,1.18.62.62,0,0,0,.51.29.6.6,0,0,0,.51-.29,2.25,2.25,0,0,0,.21-1.18,2.2,2.2,0,0,0-.21-1.17.61.61,0,0,0-.51-.29.56.56,0,0,0-.48.26A2.15,2.15,0,0,0,49.39,141.38Z" transform="translate(1.43 -22.69)"/><path class="cls-8" d="M51.75,141.38a3.2,3.2,0,0,1,.13-1,1.2,1.2,0,0,1,.39-.59,1,1,0,0,1,.64-.21,1,1,0,0,1,.51.11,1,1,0,0,1,.36.34,1.73,1.73,0,0,1,.22.53,3.72,3.72,0,0,1,.08.84,3.2,3.2,0,0,1-.13,1,1.22,1.22,0,0,1-.38.6,1,1,0,0,1-.66.21,1,1,0,0,1-.81-.37A2.41,2.41,0,0,1,51.75,141.38Zm.45,0a2.25,2.25,0,0,0,.21,1.18.58.58,0,0,0,1,0,2.25,2.25,0,0,0,.21-1.18,2.2,2.2,0,0,0-.21-1.17.61.61,0,0,0-.51-.29.56.56,0,0,0-.48.26A2.24,2.24,0,0,0,52.2,141.38Z" transform="translate(1.43 -22.69)"/><path class="cls-8" d="M74.89,143.15v-.86H73.34v-.4L75,139.57h.36v2.32h.48v.4h-.48v.86Zm0-1.26v-1.61l-1.12,1.61Z" transform="translate(1.43 -22.69)"/><path class="cls-8" d="M76.29,141.38a3.52,3.52,0,0,1,.13-1,1.28,1.28,0,0,1,.39-.59,1.14,1.14,0,0,1,1.15-.1.9.9,0,0,1,.36.34,1.73,1.73,0,0,1,.23.53,3.72,3.72,0,0,1,.08.84,3.52,3.52,0,0,1-.13,1,1.31,1.31,0,0,1-.39.6,1,1,0,0,1-.65.21,1,1,0,0,1-.81-.37A2.33,2.33,0,0,1,76.29,141.38Zm.45,0a2.25,2.25,0,0,0,.21,1.18.59.59,0,0,0,1,0,2.27,2.27,0,0,0,.2-1.18,2.23,2.23,0,0,0-.2-1.17.63.63,0,0,0-.52-.29.56.56,0,0,0-.48.26A2.24,2.24,0,0,0,76.74,141.38Z" transform="translate(1.43 -22.69)"/><path class="cls-8" d="M79,141.38a3.52,3.52,0,0,1,.13-1,1.28,1.28,0,0,1,.39-.59,1,1,0,0,1,.65-.21,1.06,1.06,0,0,1,.51.11,1,1,0,0,1,.35.34,1.73,1.73,0,0,1,.23.53,3.72,3.72,0,0,1,.08.84,3.52,3.52,0,0,1-.13,1,1.31,1.31,0,0,1-.39.6,1,1,0,0,1-.65.21,1,1,0,0,1-.81-.37A2.33,2.33,0,0,1,79,141.38Zm.45,0a2.25,2.25,0,0,0,.21,1.18.59.59,0,0,0,1,0,2.25,2.25,0,0,0,.21-1.18,2.2,2.2,0,0,0-.21-1.17.63.63,0,0,0-.52-.29.56.56,0,0,0-.48.26A2.24,2.24,0,0,0,79.49,141.38Z" transform="translate(1.43 -22.69)"/><path class="cls-8" d="M81.85,141.38a3.52,3.52,0,0,1,.13-1,1.28,1.28,0,0,1,.39-.59,1,1,0,0,1,.65-.21,1.06,1.06,0,0,1,.51.11,1,1,0,0,1,.35.34,1.73,1.73,0,0,1,.23.53,3.72,3.72,0,0,1,.08.84,3.52,3.52,0,0,1-.13,1,1.31,1.31,0,0,1-.39.6,1,1,0,0,1-.65.21,1,1,0,0,1-.81-.37A2.33,2.33,0,0,1,81.85,141.38Zm.45,0a2.25,2.25,0,0,0,.21,1.18.59.59,0,0,0,1,0,2.25,2.25,0,0,0,.21-1.18,2.2,2.2,0,0,0-.21-1.17.62.62,0,0,0-.51-.29.57.57,0,0,0-.49.26A2.24,2.24,0,0,0,82.3,141.38Z" transform="translate(1.43 -22.69)"/><path class="cls-8" d="M105.87,140.45l-.44,0a.8.8,0,0,0-.17-.37.56.56,0,0,0-.44-.19.67.67,0,0,0-.37.11,1.11,1.11,0,0,0-.32.45,2.41,2.41,0,0,0-.13.82,1,1,0,0,1,.39-.35,1,1,0,0,1,1.23.2,1.16,1.16,0,0,1,.31.84,1.32,1.32,0,0,1-.15.62,1,1,0,0,1-.4.45,1.08,1.08,0,0,1-.57.15,1.12,1.12,0,0,1-.9-.4,2.07,2.07,0,0,1-.34-1.34A2.33,2.33,0,0,1,104,140a1.08,1.08,0,0,1,.9-.41,1,1,0,0,1,.69.23A1,1,0,0,1,105.87,140.45Zm-1.8,1.54a.91.91,0,0,0,.1.43.7.7,0,0,0,.63.43.62.62,0,0,0,.48-.23.9.9,0,0,0,.2-.61.83.83,0,0,0-.2-.58.66.66,0,0,0-.5-.21.69.69,0,0,0-.5.21A.76.76,0,0,0,104.07,142Z" transform="translate(1.43 -22.69)"/><path class="cls-8" d="M106.4,141.38a3.2,3.2,0,0,1,.13-1,1.14,1.14,0,0,1,.39-.59,1,1,0,0,1,.64-.21,1,1,0,0,1,.51.11,1.06,1.06,0,0,1,.36.34,1.73,1.73,0,0,1,.22.53,3.72,3.72,0,0,1,.08.84,3.2,3.2,0,0,1-.13,1,1.23,1.23,0,0,1-.39.6,1.09,1.09,0,0,1-1.46-.16A2.34,2.34,0,0,1,106.4,141.38Zm.45,0a2.38,2.38,0,0,0,.2,1.18.59.59,0,0,0,1,0,2.25,2.25,0,0,0,.21-1.18,2.2,2.2,0,0,0-.21-1.17.62.62,0,0,0-.51-.29.59.59,0,0,0-.49.26A2.26,2.26,0,0,0,106.85,141.38Z" transform="translate(1.43 -22.69)"/><path class="cls-8" d="M109.15,141.38a3.2,3.2,0,0,1,.13-1,1.14,1.14,0,0,1,.39-.59,1,1,0,0,1,.64-.21,1,1,0,0,1,.51.11,1.06,1.06,0,0,1,.36.34,1.73,1.73,0,0,1,.22.53,3.72,3.72,0,0,1,.08.84,3.2,3.2,0,0,1-.13,1,1.22,1.22,0,0,1-.38.6,1,1,0,0,1-.66.21,1,1,0,0,1-.81-.37A2.41,2.41,0,0,1,109.15,141.38Zm.45,0a2.38,2.38,0,0,0,.2,1.18.62.62,0,0,0,.51.29.6.6,0,0,0,.51-.29,2.25,2.25,0,0,0,.21-1.18,2.2,2.2,0,0,0-.21-1.17.61.61,0,0,0-.51-.29.56.56,0,0,0-.48.26A2.15,2.15,0,0,0,109.6,141.38Z" transform="translate(1.43 -22.69)"/><path class="cls-8" d="M112,141.38a3.2,3.2,0,0,1,.13-1,1.2,1.2,0,0,1,.39-.59,1,1,0,0,1,.64-.21,1,1,0,0,1,.51.11,1,1,0,0,1,.36.34,1.73,1.73,0,0,1,.22.53,3.72,3.72,0,0,1,.08.84,3.2,3.2,0,0,1-.13,1,1.22,1.22,0,0,1-.38.6,1,1,0,0,1-.66.21,1,1,0,0,1-.81-.37A2.41,2.41,0,0,1,112,141.38Zm.45,0a2.25,2.25,0,0,0,.21,1.18.58.58,0,0,0,1,0,2.25,2.25,0,0,0,.21-1.18,2.2,2.2,0,0,0-.21-1.17.61.61,0,0,0-.51-.29.56.56,0,0,0-.48.26A2.24,2.24,0,0,0,112.41,141.38Z" transform="translate(1.43 -22.69)"/><rect class="繝後Μ_逋ｽ-2" x="109.15" y="1.41" width="2.83" height="113.39"/><rect class="繝後Μ_逋ｽ-2" x="17.02" y="1.41" width="2.83" height="113.39"/><rect class="邱喟0.5pt" x="19.86" y="1.41" width="89.29" height="113.39"/><path class="cls-8" d="M10.23,137.42a3.2,3.2,0,0,1,.13-1,1.31,1.31,0,0,1,.39-.6,1.11,1.11,0,0,1,1.15-.09.88.88,0,0,1,.36.33,1.6,1.6,0,0,1,.22.53,3.3,3.3,0,0,1,.08.85,3.2,3.2,0,0,1-.13,1,1.19,1.19,0,0,1-.38.59,1,1,0,0,1-.65.22,1,1,0,0,1-.82-.37A2.43,2.43,0,0,1,10.23,137.42Zm.45,0a2.18,2.18,0,0,0,.21,1.17.59.59,0,0,0,1,0,3.52,3.52,0,0,0,0-2.34.6.6,0,0,0-.52-.29.56.56,0,0,0-.48.25A2.28,2.28,0,0,0,10.68,137.42Z" transform="translate(1.43 -22.69)"/><path class="cls-8" d="M13.29,139.19v-.51h.5v.51Z" transform="translate(1.43 -22.69)"/><path class="cls-8" d="M14.43,137.42a3.17,3.17,0,0,1,.14-1,1.22,1.22,0,0,1,.38-.6,1,1,0,0,1,.65-.21,1.07,1.07,0,0,1,.51.12,1,1,0,0,1,.36.33,2.17,2.17,0,0,1,.22.53,3.82,3.82,0,0,1,.08.85,3.2,3.2,0,0,1-.13,1,1.28,1.28,0,0,1-.39.59,1,1,0,0,1-.65.22,1,1,0,0,1-.81-.37A2.35,2.35,0,0,1,14.43,137.42Zm.46,0a2.31,2.31,0,0,0,.2,1.17.59.59,0,0,0,1,0,3.36,3.36,0,0,0,0-2.34.6.6,0,0,0-.51-.29.57.57,0,0,0-.49.25A2.3,2.3,0,0,0,14.89,137.42Z" transform="translate(1.43 -22.69)"/><path class="cls-8" d="M10.23,124.14l.46,0a.82.82,0,0,0,.24.5.6.6,0,0,0,.45.17.71.71,0,0,0,.54-.24.93.93,0,0,0,.22-.63.8.8,0,0,0-.21-.59.75.75,0,0,0-.56-.22.79.79,0,0,0-.38.09.93.93,0,0,0-.27.25l-.41-.05.34-1.84h1.78V122H11l-.2,1a1.17,1.17,0,0,1,.68-.22,1.09,1.09,0,0,1,.79.32,1.13,1.13,0,0,1,.32.84,1.31,1.31,0,0,1-.28.84,1.13,1.13,0,0,1-.94.43,1.17,1.17,0,0,1-.8-.27A1.08,1.08,0,0,1,10.23,124.14Z" transform="translate(1.43 -22.69)"/><path class="cls-8" d="M13.29,125.07v-.5h.5v.5Z" transform="translate(1.43 -22.69)"/><path class="cls-8" d="M14.43,123.31a3.09,3.09,0,0,1,.14-1,1.22,1.22,0,0,1,.38-.6,1,1,0,0,1,.65-.21,1.07,1.07,0,0,1,.51.12.94.94,0,0,1,.36.33,2.17,2.17,0,0,1,.22.53,3.76,3.76,0,0,1,.08.85,3.09,3.09,0,0,1-.13,1,1.31,1.31,0,0,1-.39.6,1,1,0,0,1-.65.21,1,1,0,0,1-.81-.37A2.3,2.3,0,0,1,14.43,123.31Zm.46,0a2.31,2.31,0,0,0,.2,1.17.59.59,0,0,0,1,0,3.39,3.39,0,0,0,0-2.35.62.62,0,0,0-.51-.29.58.58,0,0,0-.49.26A2.3,2.3,0,0,0,14.89,123.31Z" transform="translate(1.43 -22.69)"/><path class="cls-8" d="M9.13,111H8.69v-2.8a2.07,2.07,0,0,1-.41.3,3.27,3.27,0,0,1-.46.23v-.43a2.37,2.37,0,0,0,.64-.42,1.65,1.65,0,0,0,.39-.48h.28Z" transform="translate(1.43 -22.69)"/><path class="cls-8" d="M10.29,109.19a3.2,3.2,0,0,1,.13-1,1.31,1.31,0,0,1,.39-.6,1.11,1.11,0,0,1,1.15-.09,1,1,0,0,1,.36.33,1.91,1.91,0,0,1,.22.54,4.23,4.23,0,0,1,0,1.86,1.22,1.22,0,0,1-.38.6,1.1,1.1,0,0,1-1.47-.16A2.43,2.43,0,0,1,10.29,109.19Zm.45,0a2.25,2.25,0,0,0,.21,1.18.6.6,0,0,0,.51.29.61.61,0,0,0,.51-.3A3.52,3.52,0,0,0,12,108a.6.6,0,0,0-.52-.29A.56.56,0,0,0,11,108,2.31,2.31,0,0,0,10.74,109.19Z" transform="translate(1.43 -22.69)"/><path class="cls-8" d="M13.29,111v-.5h.5v.5Z" transform="translate(1.43 -22.69)"/><path class="cls-8" d="M14.43,109.19a3.52,3.52,0,0,1,.13-1,1.31,1.31,0,0,1,.39-.6,1,1,0,0,1,.65-.21,1.07,1.07,0,0,1,.51.12,1.13,1.13,0,0,1,.36.33,2.25,2.25,0,0,1,.22.54,3.72,3.72,0,0,1,.08.84,3.2,3.2,0,0,1-.13,1,1.31,1.31,0,0,1-.39.6,1,1,0,0,1-.65.21,1,1,0,0,1-.81-.37A2.35,2.35,0,0,1,14.43,109.19Zm.46,0a2.27,2.27,0,0,0,.2,1.18.62.62,0,0,0,.51.29.61.61,0,0,0,.51-.3,3.36,3.36,0,0,0,0-2.34.6.6,0,0,0-.51-.29.56.56,0,0,0-.49.25A2.33,2.33,0,0,0,14.89,109.19Z" transform="translate(1.43 -22.69)"/><path class="cls-8" d="M9.13,96.84H8.69V94a1.75,1.75,0,0,1-.41.31,3.09,3.09,0,0,1-.46.22v-.42a3,3,0,0,0,.64-.42,1.79,1.79,0,0,0,.39-.48h.28Z" transform="translate(1.43 -22.69)"/><path class="cls-8" d="M10.29,95.91l.46,0a.77.77,0,0,0,.24.5.6.6,0,0,0,.45.17A.71.71,0,0,0,12,96.3a.91.91,0,0,0,.22-.63.8.8,0,0,0-.21-.59.75.75,0,0,0-.56-.22.7.7,0,0,0-.38.1.6.6,0,0,0-.27.25l-.41-.06.34-1.84h1.78v.42H11.07l-.2,1a1.18,1.18,0,0,1,.68-.23,1.06,1.06,0,0,1,.79.33,1.13,1.13,0,0,1,.32.83,1.29,1.29,0,0,1-.28.84,1.14,1.14,0,0,1-.94.44,1.18,1.18,0,0,1-.8-.28A1.08,1.08,0,0,1,10.29,95.91Z" transform="translate(1.43 -22.69)"/><path class="cls-8" d="M13.29,96.84v-.5h.5v.5Z" transform="translate(1.43 -22.69)"/><path class="cls-8" d="M14.43,95.08a3.52,3.52,0,0,1,.13-1,1.31,1.31,0,0,1,.39-.6,1,1,0,0,1,.65-.21,1.07,1.07,0,0,1,.51.12,1,1,0,0,1,.36.33,2.17,2.17,0,0,1,.22.53,3.76,3.76,0,0,1,.08.85,3.2,3.2,0,0,1-.13,1,1.33,1.33,0,0,1-.39.59,1,1,0,0,1-.65.22,1,1,0,0,1-.81-.38A2.3,2.3,0,0,1,14.43,95.08Zm.46,0a2.2,2.2,0,0,0,.2,1.17.59.59,0,0,0,1,0,3.36,3.36,0,0,0,0-2.34.61.61,0,0,0-.51-.3.57.57,0,0,0-.49.26A2.3,2.3,0,0,0,14.89,95.08Z" transform="translate(1.43 -22.69)"/><path class="cls-8" d="M9.79,82.31v.42H7.42a1.06,1.06,0,0,1,0-.31A1.58,1.58,0,0,1,7.76,82a4.54,4.54,0,0,1,.58-.54,5.35,5.35,0,0,0,.79-.76,1,1,0,0,0,.2-.53.6.6,0,0,0-.18-.44.77.77,0,0,0-1,0,.7.7,0,0,0-.19.53l-.45,0a1.11,1.11,0,0,1,.34-.77,1.21,1.21,0,0,1,.82-.26,1.13,1.13,0,0,1,.81.28.94.94,0,0,1,.3.71,1.25,1.25,0,0,1-.08.42,1.57,1.57,0,0,1-.3.44,7.63,7.63,0,0,1-.67.63,5.24,5.24,0,0,0-.51.45,1.33,1.33,0,0,0-.19.24Z" transform="translate(1.43 -22.69)"/><path class="cls-8" d="M10.29,81a3.2,3.2,0,0,1,.13-1,1.28,1.28,0,0,1,.39-.59,1.14,1.14,0,0,1,1.15-.1.9.9,0,0,1,.36.34,1.73,1.73,0,0,1,.22.53,4.23,4.23,0,0,1,0,1.86,1.22,1.22,0,0,1-.38.6,1.1,1.1,0,0,1-1.47-.16A2.41,2.41,0,0,1,10.29,81Zm.45,0A2.25,2.25,0,0,0,11,82.14a.6.6,0,0,0,.51.29.62.62,0,0,0,.51-.29,2.38,2.38,0,0,0,.2-1.18,2.31,2.31,0,0,0-.2-1.17.63.63,0,0,0-.52-.29.54.54,0,0,0-.48.26A2.24,2.24,0,0,0,10.74,81Z" transform="translate(1.43 -22.69)"/><path class="cls-8" d="M13.29,82.73v-.5h.5v.5Z" transform="translate(1.43 -22.69)"/><path class="cls-8" d="M14.43,81a3.52,3.52,0,0,1,.13-1,1.28,1.28,0,0,1,.39-.59,1,1,0,0,1,.65-.21.95.95,0,0,1,.87.45,2,2,0,0,1,.22.53,3.72,3.72,0,0,1,.08.84,3.2,3.2,0,0,1-.13,1,1.31,1.31,0,0,1-.39.6,1,1,0,0,1-.65.21,1,1,0,0,1-.81-.37A2.33,2.33,0,0,1,14.43,81Zm.46,0a2.27,2.27,0,0,0,.2,1.18.59.59,0,0,0,1,0A2.25,2.25,0,0,0,16.32,81a2.18,2.18,0,0,0-.21-1.17.62.62,0,0,0-.51-.29.55.55,0,0,0-.49.26A2.26,2.26,0,0,0,14.89,81Z" transform="translate(1.43 -22.69)"/><path class="cls-8" d="M9.79,68.19v.42H7.42a1,1,0,0,1,0-.3,1.76,1.76,0,0,1,.29-.48,6.66,6.66,0,0,1,.58-.54,4.87,4.87,0,0,0,.79-.76.92.92,0,0,0,.2-.52.61.61,0,0,0-.18-.45.74.74,0,0,0-.49-.18.69.69,0,0,0-.51.2A.68.68,0,0,0,8,66.1l-.45,0a1.09,1.09,0,0,1,.34-.77A1.21,1.21,0,0,1,8.67,65a1.13,1.13,0,0,1,.81.29.92.92,0,0,1,.3.7,1.26,1.26,0,0,1-.08.43,1.53,1.53,0,0,1-.3.43,5.45,5.45,0,0,1-.67.63L8.22,68a1.33,1.33,0,0,0-.19.24Z" transform="translate(1.43 -22.69)"/><path class="cls-8" d="M10.29,67.68l.46,0a.82.82,0,0,0,.24.51.64.64,0,0,0,.45.16.7.7,0,0,0,.54-.23,1,1,0,0,0,.22-.64.8.8,0,0,0-.21-.59.75.75,0,0,0-.56-.22.7.7,0,0,0-.38.1.6.6,0,0,0-.27.25l-.41-.06.34-1.84h1.78v.42H11.07l-.2,1a1.18,1.18,0,0,1,.68-.23,1.06,1.06,0,0,1,.79.33,1.13,1.13,0,0,1,.32.83,1.27,1.27,0,0,1-.28.84,1.14,1.14,0,0,1-.94.44,1.18,1.18,0,0,1-.8-.28A1.08,1.08,0,0,1,10.29,67.68Z" transform="translate(1.43 -22.69)"/><path class="cls-8" d="M13.29,68.61v-.5h.5v.5Z" transform="translate(1.43 -22.69)"/><path class="cls-8" d="M14.43,66.85a3.52,3.52,0,0,1,.13-1,1.31,1.31,0,0,1,.39-.6A1,1,0,0,1,15.6,65a1.07,1.07,0,0,1,.51.12,1,1,0,0,1,.36.33,2.17,2.17,0,0,1,.22.53,3.76,3.76,0,0,1,.08.85,3.2,3.2,0,0,1-.13,1,1.33,1.33,0,0,1-.39.59,1,1,0,0,1-.65.22,1,1,0,0,1-.81-.38A2.3,2.3,0,0,1,14.43,66.85Zm.46,0a2.2,2.2,0,0,0,.2,1.17.59.59,0,0,0,1,0,3.36,3.36,0,0,0,0-2.34.61.61,0,0,0-.51-.3.57.57,0,0,0-.49.26A2.3,2.3,0,0,0,14.89,66.85Z" transform="translate(1.43 -22.69)"/><path class="cls-8" d="M7.48,53.56l.44-.06a1,1,0,0,0,.26.54.63.63,0,0,0,.44.16.72.72,0,0,0,.74-.75.7.7,0,0,0-.2-.5.68.68,0,0,0-.5-.19,1,1,0,0,0-.31.05l.05-.39h.07a.89.89,0,0,0,.5-.15.51.51,0,0,0,.23-.45.53.53,0,0,0-.17-.4.55.55,0,0,0-.42-.16.6.6,0,0,0-.43.16.9.9,0,0,0-.22.48l-.43-.07a1.1,1.1,0,0,1,.36-.69,1.07,1.07,0,0,1,.71-.24,1.19,1.19,0,0,1,.54.12.92.92,0,0,1,.38.35.84.84,0,0,1,.13.46.72.72,0,0,1-.13.42.77.77,0,0,1-.36.3.82.82,0,0,1,.49.31.88.88,0,0,1,.17.57,1.05,1.05,0,0,1-.34.8,1.17,1.17,0,0,1-.86.33,1.09,1.09,0,0,1-.78-.29A1.07,1.07,0,0,1,7.48,53.56Z" transform="translate(1.43 -22.69)"/><path class="cls-8" d="M10.29,52.74a3.23,3.23,0,0,1,.13-1,1.33,1.33,0,0,1,.39-.59,1,1,0,0,1,.65-.21A1.12,1.12,0,0,1,12,51a.9.9,0,0,1,.36.34,1.73,1.73,0,0,1,.22.53,3.25,3.25,0,0,1,.08.85,3.09,3.09,0,0,1-.13,1,1.22,1.22,0,0,1-.38.6,1.1,1.1,0,0,1-1.47-.16A2.39,2.39,0,0,1,10.29,52.74Zm.45,0A2.2,2.2,0,0,0,11,53.91a.6.6,0,0,0,.51.29.62.62,0,0,0,.51-.29,3.55,3.55,0,0,0,0-2.35.63.63,0,0,0-.52-.29.56.56,0,0,0-.48.26A2.28,2.28,0,0,0,10.74,52.74Z" transform="translate(1.43 -22.69)"/><path class="cls-8" d="M13.29,54.5V54h.5v.5Z" transform="translate(1.43 -22.69)"/><path class="cls-8" d="M14.43,52.74a3.54,3.54,0,0,1,.13-1,1.33,1.33,0,0,1,.39-.59,1,1,0,0,1,.65-.21,1.19,1.19,0,0,1,.51.11,1.06,1.06,0,0,1,.36.34,2,2,0,0,1,.22.53,3.76,3.76,0,0,1,.08.85,3.09,3.09,0,0,1-.13,1,1.31,1.31,0,0,1-.39.6,1,1,0,0,1-.65.21,1,1,0,0,1-.81-.37A2.32,2.32,0,0,1,14.43,52.74Zm.46,0a2.23,2.23,0,0,0,.2,1.17.59.59,0,0,0,1,0,3.39,3.39,0,0,0,0-2.35.62.62,0,0,0-.51-.29.57.57,0,0,0-.49.26A2.3,2.3,0,0,0,14.89,52.74Z" transform="translate(1.43 -22.69)"/><path class="cls-8" d="M7.48,39.44l.44-.06a1,1,0,0,0,.26.54.64.64,0,0,0,.44.17.71.71,0,0,0,.53-.22.72.72,0,0,0,.21-.53.69.69,0,0,0-.2-.5.68.68,0,0,0-.5-.19,1.25,1.25,0,0,0-.31,0l.05-.38h.07a1,1,0,0,0,.5-.14.51.51,0,0,0,.23-.45A.55.55,0,0,0,9,37.31a.58.58,0,0,0-.42-.15.6.6,0,0,0-.43.16A.86.86,0,0,0,8,37.8l-.43-.08A1.1,1.1,0,0,1,7.89,37a1.08,1.08,0,0,1,.71-.25,1.2,1.2,0,0,1,.54.13.9.9,0,0,1,.38.34.87.87,0,0,1,.13.46.73.73,0,0,1-.13.43.83.83,0,0,1-.36.3.86.86,0,0,1,.49.3.93.93,0,0,1,.17.58,1.07,1.07,0,0,1-.34.8,1.2,1.2,0,0,1-.86.32,1.1,1.1,0,0,1-1.14-1Z" transform="translate(1.43 -22.69)"/><path class="cls-8" d="M10.29,39.45l.46,0a.77.77,0,0,0,.24.51.64.64,0,0,0,.45.17.71.71,0,0,0,.54-.24.94.94,0,0,0,.22-.64.82.82,0,0,0-.21-.59.79.79,0,0,0-.56-.22.8.8,0,0,0-.38.1.66.66,0,0,0-.27.25l-.41,0,.34-1.84h1.78v.42H11.07l-.2,1a1.17,1.17,0,0,1,.68-.22,1,1,0,0,1,.79.32,1.15,1.15,0,0,1,.32.84,1.26,1.26,0,0,1-.28.83,1.14,1.14,0,0,1-.94.44,1.17,1.17,0,0,1-.8-.27A1.12,1.12,0,0,1,10.29,39.45Z" transform="translate(1.43 -22.69)"/><path class="cls-8" d="M13.29,40.39v-.5h.5v.5Z" transform="translate(1.43 -22.69)"/><path class="cls-8" d="M14.43,38.62a3.52,3.52,0,0,1,.13-1A1.31,1.31,0,0,1,15,37a1,1,0,0,1,.65-.21,1.07,1.07,0,0,1,.51.12,1.13,1.13,0,0,1,.36.33,2.25,2.25,0,0,1,.22.54,3.72,3.72,0,0,1,.08.84,3.2,3.2,0,0,1-.13,1,1.31,1.31,0,0,1-.39.6,1,1,0,0,1-.65.21,1,1,0,0,1-.81-.37A2.33,2.33,0,0,1,14.43,38.62Zm.46,0a2.27,2.27,0,0,0,.2,1.18.59.59,0,0,0,1,0,2.25,2.25,0,0,0,.21-1.18,2.18,2.18,0,0,0-.21-1.17.62.62,0,0,0-.51-.29.56.56,0,0,0-.49.25A2.33,2.33,0,0,0,14.89,38.62Z" transform="translate(1.43 -22.69)"/><path class="cls-8" d="M8.89,26.28v-.86H7.33V25L9,22.7h.36V25h.48v.4H9.33v.86Zm0-1.26V23.41L7.77,25Z" transform="translate(1.43 -22.69)"/><path class="cls-8" d="M10.29,24.51a3.2,3.2,0,0,1,.13-1,1.28,1.28,0,0,1,.39-.59A1.14,1.14,0,0,1,12,22.8a.9.9,0,0,1,.36.34,1.73,1.73,0,0,1,.22.53,4.23,4.23,0,0,1,0,1.86,1.22,1.22,0,0,1-.38.6A1.1,1.1,0,0,1,10.64,26,2.41,2.41,0,0,1,10.29,24.51Zm.45,0A2.25,2.25,0,0,0,11,25.69a.6.6,0,0,0,.51.29.62.62,0,0,0,.51-.29,2.38,2.38,0,0,0,.2-1.18,2.31,2.31,0,0,0-.2-1.17.63.63,0,0,0-.52-.29.54.54,0,0,0-.48.26A2.24,2.24,0,0,0,10.74,24.51Z" transform="translate(1.43 -22.69)"/><path class="cls-8" d="M13.29,26.28v-.5h.5v.5Z" transform="translate(1.43 -22.69)"/><path class="cls-8" d="M14.43,24.51a3.52,3.52,0,0,1,.13-1A1.28,1.28,0,0,1,15,22.9a1,1,0,0,1,.65-.21.95.95,0,0,1,.87.45,2,2,0,0,1,.22.53,3.72,3.72,0,0,1,.08.84,3.2,3.2,0,0,1-.13,1,1.31,1.31,0,0,1-.39.6,1,1,0,0,1-.65.21,1,1,0,0,1-.81-.37A2.33,2.33,0,0,1,14.43,24.51Zm.46,0a2.27,2.27,0,0,0,.2,1.18.59.59,0,0,0,1,0,2.25,2.25,0,0,0,.21-1.18,2.18,2.18,0,0,0-.21-1.17.62.62,0,0,0-.51-.29.55.55,0,0,0-.49.26A2.26,2.26,0,0,0,14.89,24.51Z" transform="translate(1.43 -22.69)"/><path class="cls-8" d="M17.24,141.38a3.52,3.52,0,0,1,.13-1,1.28,1.28,0,0,1,.39-.59,1.14,1.14,0,0,1,1.15-.1.9.9,0,0,1,.36.34,1.73,1.73,0,0,1,.23.53,3.72,3.72,0,0,1,.08.84,3.52,3.52,0,0,1-.13,1,1.31,1.31,0,0,1-.39.6,1,1,0,0,1-.65.21,1,1,0,0,1-.81-.37A2.33,2.33,0,0,1,17.24,141.38Zm.45,0a2.25,2.25,0,0,0,.21,1.18.59.59,0,0,0,1,0,2.27,2.27,0,0,0,.2-1.18,2.23,2.23,0,0,0-.2-1.17.63.63,0,0,0-.52-.29.56.56,0,0,0-.48.26A2.24,2.24,0,0,0,17.69,141.38Z" transform="translate(1.43 -22.69)"/></g><g id="English"><rect class="繝後Μ_逋ｽ-2" x="22.78" y="53.76" width="47.91" height="16.72"/><path class="cls-8" d="M23.89,81.33l.58,0a1.21,1.21,0,0,0,.2.57,1.09,1.09,0,0,0,.46.37,1.81,1.81,0,0,0,.72.13,1.72,1.72,0,0,0,.62-.1.89.89,0,0,0,.4-.29.67.67,0,0,0,0-.78,1,1,0,0,0-.42-.27,7.21,7.21,0,0,0-.83-.23,4.09,4.09,0,0,1-.9-.29,1.34,1.34,0,0,1-.5-.43,1.08,1.08,0,0,1-.16-.58,1.19,1.19,0,0,1,.2-.66,1.24,1.24,0,0,1,.58-.47,2.46,2.46,0,0,1,1.77,0,1.36,1.36,0,0,1,.61.49,1.43,1.43,0,0,1,.23.73l-.59,0a1,1,0,0,0-.33-.67,1.24,1.24,0,0,0-.81-.22,1.34,1.34,0,0,0-.81.2.63.63,0,0,0-.26.5.54.54,0,0,0,.18.41,2.39,2.39,0,0,0,.93.33,5.21,5.21,0,0,1,1,.3,1.39,1.39,0,0,1,.6.47,1.14,1.14,0,0,1,.2.66,1.29,1.29,0,0,1-.22.7,1.34,1.34,0,0,1-.61.51,2,2,0,0,1-.9.19,2.66,2.66,0,0,1-1.05-.19,1.46,1.46,0,0,1-.67-.55A1.63,1.63,0,0,1,23.89,81.33Z" transform="translate(1.43 -22.69)"/><path class="cls-8" d="M28.36,82.83V78.17h.57v1.67a1.28,1.28,0,0,1,1-.46,1.4,1.4,0,0,1,.66.15.86.86,0,0,1,.39.41,1.83,1.83,0,0,1,.12.75v2.14h-.57V80.69a.85.85,0,0,0-.19-.62.69.69,0,0,0-.52-.2,1,1,0,0,0-.48.13.74.74,0,0,0-.32.36,1.7,1.7,0,0,0-.1.62v1.85Z" transform="translate(1.43 -22.69)"/><path class="cls-8" d="M31.77,81.14a1.74,1.74,0,0,1,.52-1.39,1.56,1.56,0,0,1,1.06-.37,1.48,1.48,0,0,1,1.13.46,1.69,1.69,0,0,1,.44,1.25,2.25,2.25,0,0,1-.19,1,1.39,1.39,0,0,1-.57.58,1.73,1.73,0,0,1-.81.2,1.54,1.54,0,0,1-1.15-.45A1.82,1.82,0,0,1,31.77,81.14Zm.58,0a1.42,1.42,0,0,0,.29,1,.94.94,0,0,0,1.41,0,1.48,1.48,0,0,0,.29-1,1.42,1.42,0,0,0-.29-1,.94.94,0,0,0-1.41,0A1.44,1.44,0,0,0,32.35,81.14Z" transform="translate(1.43 -22.69)"/><path class="cls-8" d="M35.59,82.83V79.46h.51V80a1.34,1.34,0,0,1,.37-.48.66.66,0,0,1,.36-.11,1.15,1.15,0,0,1,.59.18l-.2.53A.84.84,0,0,0,36.8,80a.57.57,0,0,0-.33.11.68.68,0,0,0-.22.32,2.29,2.29,0,0,0-.09.66v1.77Z" transform="translate(1.43 -22.69)"/><path class="cls-8" d="M39,82.32l.08.5a2.47,2.47,0,0,1-.43.05,1,1,0,0,1-.49-.1.55.55,0,0,1-.24-.26,2.19,2.19,0,0,1-.07-.67V79.9h-.42v-.44h.42v-.84l.57-.34v1.18H39v.44h-.58v2a1.08,1.08,0,0,0,0,.32.26.26,0,0,0,.1.11.45.45,0,0,0,.19,0Z" transform="translate(1.43 -22.69)"/><path class="cls-8" d="M39.34,81.43v-.57H41.1v.57Z" transform="translate(1.43 -22.69)"/><path class="cls-8" d="M43.91,82.83V82.4a1,1,0,0,1-.94.5,1.31,1.31,0,0,1-.74-.22,1.45,1.45,0,0,1-.52-.62,2.07,2.07,0,0,1-.19-.92,2.42,2.42,0,0,1,.17-.91,1.28,1.28,0,0,1,.5-.63,1.35,1.35,0,0,1,.76-.22,1.08,1.08,0,0,1,.54.13,1.14,1.14,0,0,1,.39.33V78.17h.57v4.66Zm-1.8-1.69a1.46,1.46,0,0,0,.27,1,.81.81,0,0,0,.65.32.8.8,0,0,0,.63-.3,1.41,1.41,0,0,0,.27-.94,1.54,1.54,0,0,0-.27-1,.82.82,0,0,0-1.3,0A1.55,1.55,0,0,0,42.11,81.14Z" transform="translate(1.43 -22.69)"/><path class="cls-8" d="M47.55,82.83v-.5a1.23,1.23,0,0,1-1.07.57,1.42,1.42,0,0,1-.55-.11.93.93,0,0,1-.39-.29,1.06,1.06,0,0,1-.17-.42,2.35,2.35,0,0,1,0-.54V79.46h.57v1.87a2.69,2.69,0,0,0,0,.6.54.54,0,0,0,.23.35.67.67,0,0,0,.43.13.91.91,0,0,0,.48-.13.74.74,0,0,0,.32-.36,1.86,1.86,0,0,0,.09-.66v-1.8h.57v3.37Z" transform="translate(1.43 -22.69)"/><path class="cls-8" d="M49,82.83V79.46h.52V80a1.47,1.47,0,0,1,.36-.48.67.67,0,0,1,.37-.11,1.09,1.09,0,0,1,.58.18l-.19.53a.84.84,0,0,0-.42-.12.58.58,0,0,0-.34.11.6.6,0,0,0-.21.32,2.28,2.28,0,0,0-.1.66v1.77Z" transform="translate(1.43 -22.69)"/><path class="cls-8" d="M53.32,82.41a2,2,0,0,1-.61.38,1.61,1.61,0,0,1-.63.11,1.22,1.22,0,0,1-.85-.27.89.89,0,0,1-.3-.69.94.94,0,0,1,.11-.45,1,1,0,0,1,.3-.33,1.18,1.18,0,0,1,.41-.19,4.17,4.17,0,0,1,.51-.09,5.49,5.49,0,0,0,1-.19v-.15a.65.65,0,0,0-.16-.49,1,1,0,0,0-.65-.2,1.06,1.06,0,0,0-.6.14.86.86,0,0,0-.28.5L51,80.42a1.34,1.34,0,0,1,.25-.58,1.09,1.09,0,0,1,.5-.34,2.26,2.26,0,0,1,.77-.12,2,2,0,0,1,.7.1.93.93,0,0,1,.4.26.87.87,0,0,1,.17.39,2.94,2.94,0,0,1,0,.52v.76a6.8,6.8,0,0,0,0,1,1.25,1.25,0,0,0,.14.41h-.59A1.29,1.29,0,0,1,53.32,82.41Zm0-1.27a4.63,4.63,0,0,1-.94.21,1.72,1.72,0,0,0-.5.12.49.49,0,0,0-.22.18.5.5,0,0,0,.09.65.78.78,0,0,0,.51.16,1.18,1.18,0,0,0,.59-.15.92.92,0,0,0,.37-.39,1.41,1.41,0,0,0,.1-.58Z" transform="translate(1.43 -22.69)"/><path class="cls-8" d="M56,82.32l.08.5a2.47,2.47,0,0,1-.43.05,1,1,0,0,1-.49-.1.55.55,0,0,1-.24-.26,2.19,2.19,0,0,1-.07-.67V79.9h-.42v-.44h.42v-.84l.57-.34v1.18H56v.44h-.58v2a1.08,1.08,0,0,0,0,.32.26.26,0,0,0,.1.11.45.45,0,0,0,.19,0Z" transform="translate(1.43 -22.69)"/><path class="cls-8" d="M56.55,78.83v-.66h.57v.66Zm0,4V79.46h.57v3.37Z" transform="translate(1.43 -22.69)"/><path class="cls-8" d="M57.78,81.14a1.74,1.74,0,0,1,.52-1.39,1.56,1.56,0,0,1,1.06-.37,1.48,1.48,0,0,1,1.13.46,1.69,1.69,0,0,1,.44,1.25,2.25,2.25,0,0,1-.19,1,1.39,1.39,0,0,1-.57.58,1.73,1.73,0,0,1-.81.2,1.52,1.52,0,0,1-1.15-.45A1.82,1.82,0,0,1,57.78,81.14Zm.58,0a1.42,1.42,0,0,0,.29,1,.94.94,0,0,0,1.41,0,1.48,1.48,0,0,0,.29-1,1.42,1.42,0,0,0-.29-1,.94.94,0,0,0-1.41,0A1.44,1.44,0,0,0,58.36,81.14Z" transform="translate(1.43 -22.69)"/><path class="cls-8" d="M61.6,82.83V79.46h.52v.48a1.21,1.21,0,0,1,1.07-.56,1.47,1.47,0,0,1,.56.11.82.82,0,0,1,.38.29,1,1,0,0,1,.18.42,3.37,3.37,0,0,1,0,.55v2.08h-.57v-2a1.44,1.44,0,0,0-.07-.53.54.54,0,0,0-.23-.27.77.77,0,0,0-.4-.1.91.91,0,0,0-.63.23,1.11,1.11,0,0,0-.27.88v1.84Z" transform="translate(1.43 -22.69)"/><path class="cls-8" d="M24,90.63V87.26h.52v.51a1.47,1.47,0,0,1,.36-.48.67.67,0,0,1,.37-.11,1.12,1.12,0,0,1,.58.18l-.19.53a.84.84,0,0,0-.42-.12.58.58,0,0,0-.34.11.6.6,0,0,0-.21.32,2,2,0,0,0-.1.66v1.77Z" transform="translate(1.43 -22.69)"/><path class="cls-8" d="M28.4,90.63v-.5a1.23,1.23,0,0,1-1.07.57,1.42,1.42,0,0,1-.55-.11.87.87,0,0,1-.39-.29,1.06,1.06,0,0,1-.17-.42,2.35,2.35,0,0,1,0-.54V87.26h.57v1.87a2.69,2.69,0,0,0,0,.6.56.56,0,0,0,.22.35.72.72,0,0,0,.44.13.91.91,0,0,0,.48-.13.74.74,0,0,0,.32-.36,1.86,1.86,0,0,0,.09-.66v-1.8h.57v3.37Z" transform="translate(1.43 -22.69)"/><path class="cls-8" d="M29.81,90.63V87.26h.51v.48a1.22,1.22,0,0,1,1.07-.56,1.43,1.43,0,0,1,.56.11.91.91,0,0,1,.39.29,1.13,1.13,0,0,1,.17.42,2.34,2.34,0,0,1,0,.55v2.08H32v-2a1.69,1.69,0,0,0-.07-.53.57.57,0,0,0-.24-.27.72.72,0,0,0-.4-.1.91.91,0,0,0-.63.23,1.15,1.15,0,0,0-.26.88v1.84Z" transform="translate(1.43 -22.69)"/><path class="cls-8" d="M33.42,90.63V87.26h.52v.48A1.2,1.2,0,0,1,35,87.18a1.47,1.47,0,0,1,.56.11.82.82,0,0,1,.38.29,1,1,0,0,1,.18.42,3.37,3.37,0,0,1,0,.55v2.08h-.57v-2a1.44,1.44,0,0,0-.07-.53.54.54,0,0,0-.23-.27.77.77,0,0,0-.4-.1.91.91,0,0,0-.63.23,1.11,1.11,0,0,0-.27.88v1.84Z" transform="translate(1.43 -22.69)"/><path class="cls-8" d="M37,86.63V86h.57v.66Zm0,4V87.26h.57v3.37Z" transform="translate(1.43 -22.69)"/><path class="cls-8" d="M38.48,90.63V87.26H39v.48a1.2,1.2,0,0,1,1.07-.56,1.47,1.47,0,0,1,.56.11.82.82,0,0,1,.38.29,1,1,0,0,1,.18.42,3.37,3.37,0,0,1,0,.55v2.08h-.57v-2a1.44,1.44,0,0,0-.07-.53.54.54,0,0,0-.23-.27.77.77,0,0,0-.4-.1.89.89,0,0,0-.63.23,1.11,1.11,0,0,0-.27.88v1.84Z" transform="translate(1.43 -22.69)"/><path class="cls-8" d="M42,90.91l.56.08a.53.53,0,0,0,.19.37.93.93,0,0,0,.58.16,1,1,0,0,0,.61-.16.73.73,0,0,0,.3-.44,3.83,3.83,0,0,0,0-.73,1.19,1.19,0,0,1-.94.44,1.27,1.27,0,0,1-1.07-.5,1.92,1.92,0,0,1-.38-1.21,2.35,2.35,0,0,1,.17-.89,1.46,1.46,0,0,1,.51-.63,1.35,1.35,0,0,1,.78-.22,1.2,1.2,0,0,1,1,.48v-.4h.53v2.91a2.94,2.94,0,0,1-.16,1.12,1.2,1.2,0,0,1-.51.51,1.74,1.74,0,0,1-.86.19,1.61,1.61,0,0,1-1-.27A.9.9,0,0,1,42,90.91Zm.48-2a1.44,1.44,0,0,0,.26,1,.83.83,0,0,0,.66.3.85.85,0,0,0,.66-.3A1.8,1.8,0,0,0,44,88a.84.84,0,0,0-.66-.32.86.86,0,0,0-.65.31A1.37,1.37,0,0,0,42.47,88.88Z" transform="translate(1.43 -22.69)"/><path class="cls-8" d="M47.51,90.63V87.26H48v.51a1.47,1.47,0,0,1,.36-.48.67.67,0,0,1,.37-.11,1.12,1.12,0,0,1,.58.18l-.19.53a.84.84,0,0,0-.42-.12.58.58,0,0,0-.34.11.6.6,0,0,0-.21.32,2,2,0,0,0-.1.66v1.77Z" transform="translate(1.43 -22.69)"/><path class="cls-8" d="M51.88,90.21a2,2,0,0,1-.61.38,1.64,1.64,0,0,1-.63.11,1.22,1.22,0,0,1-.85-.27.89.89,0,0,1-.3-.69.94.94,0,0,1,.11-.45,1,1,0,0,1,.3-.33,1.11,1.11,0,0,1,.41-.19,4.31,4.31,0,0,1,.5-.09,5.17,5.17,0,0,0,1-.19,1.14,1.14,0,0,0,0-.15.65.65,0,0,0-.16-.49,1,1,0,0,0-.66-.2,1,1,0,0,0-.59.14.86.86,0,0,0-.28.5l-.56-.07a1.34,1.34,0,0,1,.25-.58,1,1,0,0,1,.5-.34,2.26,2.26,0,0,1,.77-.12,2,2,0,0,1,.7.1.93.93,0,0,1,.4.26.87.87,0,0,1,.17.39,2.94,2.94,0,0,1,0,.52v.76a6.8,6.8,0,0,0,0,1,1.25,1.25,0,0,0,.14.41H52A1.29,1.29,0,0,1,51.88,90.21Zm-.05-1.27a4.35,4.35,0,0,1-.93.21,1.72,1.72,0,0,0-.5.12.49.49,0,0,0-.22.18.43.43,0,0,0-.08.27.5.5,0,0,0,.17.38.76.76,0,0,0,.51.16,1.11,1.11,0,0,0,.58-.15.89.89,0,0,0,.38-.39,1.43,1.43,0,0,0,.09-.58Z" transform="translate(1.43 -22.69)"/><path class="cls-8" d="M53.3,90.63V87.26h.51v.48a1.22,1.22,0,0,1,1.07-.56,1.43,1.43,0,0,1,.56.11.91.91,0,0,1,.39.29A1.13,1.13,0,0,1,56,88a2.34,2.34,0,0,1,0,.55v2.08h-.57v-2a1.69,1.69,0,0,0-.07-.53.62.62,0,0,0-.24-.27.72.72,0,0,0-.4-.1.91.91,0,0,0-.63.23,1.15,1.15,0,0,0-.26.88v1.84Z" transform="translate(1.43 -22.69)"/><path class="cls-8" d="M56.81,90.91l.55.08a.54.54,0,0,0,.2.37.91.91,0,0,0,.58.16,1,1,0,0,0,.61-.16.76.76,0,0,0,.29-.44,3.83,3.83,0,0,0,0-.73,1.18,1.18,0,0,1-.93.44,1.3,1.3,0,0,1-1.08-.5,2,2,0,0,1-.38-1.21,2.18,2.18,0,0,1,.18-.89,1.31,1.31,0,0,1,1.28-.85,1.22,1.22,0,0,1,1,.48v-.4h.52v2.91a2.75,2.75,0,0,1-.16,1.12,1.12,1.12,0,0,1-.5.51,1.76,1.76,0,0,1-.86.19,1.59,1.59,0,0,1-1-.27A.9.9,0,0,1,56.81,90.91Zm.47-2a1.5,1.5,0,0,0,.26,1,.85.85,0,0,0,.66.3.83.83,0,0,0,.66-.3,1.77,1.77,0,0,0,0-1.88.88.88,0,0,0-.67-.32.82.82,0,0,0-.64.31A1.37,1.37,0,0,0,57.28,88.88Z" transform="translate(1.43 -22.69)"/><path class="cls-8" d="M62.83,89.54l.6.07a1.49,1.49,0,0,1-.52.81,1.57,1.57,0,0,1-1,.28,1.55,1.55,0,0,1-1.17-.45A1.79,1.79,0,0,1,60.34,89a1.86,1.86,0,0,1,.43-1.32,1.52,1.52,0,0,1,1.14-.47,1.45,1.45,0,0,1,1.11.46,1.86,1.86,0,0,1,.42,1.3v.15H60.93a1.28,1.28,0,0,0,.31.85,1,1,0,0,0,.71.29.86.86,0,0,0,.53-.16A1.05,1.05,0,0,0,62.83,89.54ZM61,88.62h1.88a1.15,1.15,0,0,0-.21-.64.89.89,0,0,0-.71-.33.91.91,0,0,0-.66.26A1.05,1.05,0,0,0,61,88.62Z" transform="translate(1.43 -22.69)"/><rect class="繝後Μ_逋ｽ-2" x="23.52" y="91.61" width="41.46" height="16.72"/><path class="cls-8" d="M27.53,119l.61.15a2.07,2.07,0,0,1-.69,1.16,1.91,1.91,0,0,1-1.23.4,2.18,2.18,0,0,1-1.23-.31,1.9,1.9,0,0,1-.71-.88,3.1,3.1,0,0,1-.25-1.25,2.67,2.67,0,0,1,.28-1.27,1.9,1.9,0,0,1,.79-.82,2.26,2.26,0,0,1,1.13-.28,2,2,0,0,1,1.17.35,1.81,1.81,0,0,1,.66,1l-.6.15a1.46,1.46,0,0,0-.47-.74,1.25,1.25,0,0,0-.78-.24,1.51,1.51,0,0,0-.89.26,1.37,1.37,0,0,0-.51.69,2.74,2.74,0,0,0-.15.9,2.71,2.71,0,0,0,.18,1,1.22,1.22,0,0,0,.53.66,1.5,1.5,0,0,0,.79.22,1.32,1.32,0,0,0,.88-.3A1.52,1.52,0,0,0,27.53,119Z" transform="translate(1.43 -22.69)"/><path class="cls-8" d="M28.62,119a1.72,1.72,0,0,1,.52-1.38,1.57,1.57,0,0,1,1.06-.38,1.48,1.48,0,0,1,1.13.46,1.7,1.7,0,0,1,.44,1.26,2.24,2.24,0,0,1-.19,1,1.39,1.39,0,0,1-.57.58,1.63,1.63,0,0,1-.81.21,1.49,1.49,0,0,1-1.15-.46A1.82,1.82,0,0,1,28.62,119Zm.58,0a1.46,1.46,0,0,0,.28,1,.91.91,0,0,0,.72.33.89.89,0,0,0,.7-.33,1.43,1.43,0,0,0,.29-1,1.38,1.38,0,0,0-.29-1,.88.88,0,0,0-.7-.32.9.9,0,0,0-.72.32A1.45,1.45,0,0,0,29.2,119Z" transform="translate(1.43 -22.69)"/><path class="cls-8" d="M32.44,120.67V117.3H33v.48a1.2,1.2,0,0,1,1.07-.56,1.47,1.47,0,0,1,.56.11.89.89,0,0,1,.38.29,1,1,0,0,1,.18.42,3.51,3.51,0,0,1,0,.56v2.07h-.57v-2a1.38,1.38,0,0,0-.07-.52.53.53,0,0,0-.23-.28.77.77,0,0,0-.4-.1,1,1,0,0,0-.63.23,1.13,1.13,0,0,0-.27.88v1.84Z" transform="translate(1.43 -22.69)"/><path class="cls-8" d="M37.31,120.16l.08.5a1.78,1.78,0,0,1-.43,0,1.1,1.1,0,0,1-.49-.09.66.66,0,0,1-.24-.26,2.27,2.27,0,0,1-.07-.68v-1.94h-.42v-.44h.42v-.84l.57-.34v1.18h.58v.44h-.58v2a1,1,0,0,0,0,.32.21.21,0,0,0,.1.11.34.34,0,0,0,.19,0Z" transform="translate(1.43 -22.69)"/><path class="cls-8" d="M37.87,116.67V116h.57v.65Zm0,4V117.3h.57v3.37Z" transform="translate(1.43 -22.69)"/><path class="cls-8" d="M39.31,120.67V117.3h.51v.48a1.22,1.22,0,0,1,1.07-.56,1.52,1.52,0,0,1,.57.11,1,1,0,0,1,.38.29A1.33,1.33,0,0,1,42,118a3.51,3.51,0,0,1,0,.56v2.07h-.57v-2a1.62,1.62,0,0,0-.07-.52.55.55,0,0,0-.24-.28.72.72,0,0,0-.4-.1,1,1,0,0,0-.63.23,1.17,1.17,0,0,0-.26.88v1.84Z" transform="translate(1.43 -22.69)"/><path class="cls-8" d="M45.13,120.67v-.5a1.22,1.22,0,0,1-1.07.58,1.34,1.34,0,0,1-.56-.12.88.88,0,0,1-.38-.28,1.3,1.3,0,0,1-.18-.43,3.33,3.33,0,0,1,0-.53V117.3h.57v1.87a2.63,2.63,0,0,0,0,.6.61.61,0,0,0,.22.36.78.78,0,0,0,.44.12.91.91,0,0,0,.48-.13.7.7,0,0,0,.32-.36,1.84,1.84,0,0,0,.09-.65V117.3h.57v3.37Z" transform="translate(1.43 -22.69)"/><path class="cls-8" d="M46.33,119a1.72,1.72,0,0,1,.52-1.38,1.57,1.57,0,0,1,1.06-.38,1.48,1.48,0,0,1,1.13.46,1.7,1.7,0,0,1,.44,1.26,2.24,2.24,0,0,1-.19,1,1.39,1.39,0,0,1-.57.58,1.63,1.63,0,0,1-.81.21,1.49,1.49,0,0,1-1.15-.46A1.82,1.82,0,0,1,46.33,119Zm.58,0a1.46,1.46,0,0,0,.28,1,.91.91,0,0,0,.72.33.89.89,0,0,0,.7-.33,1.43,1.43,0,0,0,.29-1,1.38,1.38,0,0,0-.29-1,.88.88,0,0,0-.7-.32.9.9,0,0,0-.72.32A1.45,1.45,0,0,0,46.91,119Z" transform="translate(1.43 -22.69)"/><path class="cls-8" d="M52.36,120.67v-.5a1.22,1.22,0,0,1-1.07.58,1.34,1.34,0,0,1-.56-.12.88.88,0,0,1-.38-.28,1.3,1.3,0,0,1-.18-.43,3.33,3.33,0,0,1,0-.53V117.3h.57v1.87a2.63,2.63,0,0,0,0,.6.61.61,0,0,0,.22.36.76.76,0,0,0,.44.12.91.91,0,0,0,.48-.13.7.7,0,0,0,.32-.36,1.84,1.84,0,0,0,.09-.65V117.3h.57v3.37Z" transform="translate(1.43 -22.69)"/><path class="cls-8" d="M53.54,119.66l.56-.08a.85.85,0,0,0,.27.52,1.13,1.13,0,0,0,1.19,0,.49.49,0,0,0,.19-.38.32.32,0,0,0-.17-.3,2,2,0,0,0-.58-.2,5.47,5.47,0,0,1-.87-.27.9.9,0,0,1-.37-.32.91.91,0,0,1-.13-.46.84.84,0,0,1,.11-.41.87.87,0,0,1,.28-.32,1.21,1.21,0,0,1,.36-.17,2,2,0,0,1,.5-.07,1.85,1.85,0,0,1,.69.12.88.88,0,0,1,.44.31,1.07,1.07,0,0,1,.2.52l-.56.08a.6.6,0,0,0-.22-.41.78.78,0,0,0-.51-.15,1,1,0,0,0-.57.13.38.38,0,0,0-.16.31.31.31,0,0,0,.07.2.47.47,0,0,0,.22.15l.5.15a6.1,6.1,0,0,1,.85.26.85.85,0,0,1,.37.3.84.84,0,0,1,.14.49,1,1,0,0,1-.17.54,1,1,0,0,1-.48.39,1.8,1.8,0,0,1-.71.14,1.53,1.53,0,0,1-1-.28A1.24,1.24,0,0,1,53.54,119.66Z" transform="translate(1.43 -22.69)"/><path class="cls-8" d="M24.13,128.47V125.1h.51v.51a1.21,1.21,0,0,1,.37-.47.6.6,0,0,1,.36-.12,1.08,1.08,0,0,1,.59.19l-.2.53a.76.76,0,0,0-.42-.13.52.52,0,0,0-.33.12.65.65,0,0,0-.22.31,2.31,2.31,0,0,0-.09.67v1.76Z" transform="translate(1.43 -22.69)"/><path class="cls-8" d="M28.51,128.47V128a1.22,1.22,0,0,1-1.07.58,1.31,1.31,0,0,1-.56-.12.88.88,0,0,1-.38-.28,1,1,0,0,1-.18-.43,3.33,3.33,0,0,1,0-.53V125.1h.57V127a3.77,3.77,0,0,0,0,.6.63.63,0,0,0,.23.36.75.75,0,0,0,.43.12.91.91,0,0,0,.48-.13.7.7,0,0,0,.32-.36,1.61,1.61,0,0,0,.1-.65V125.1H29v3.37Z" transform="translate(1.43 -22.69)"/><path class="cls-8" d="M29.91,128.47V125.1h.52v.48A1.2,1.2,0,0,1,31.5,125a1.47,1.47,0,0,1,.56.11.89.89,0,0,1,.38.29,1,1,0,0,1,.18.42,3.51,3.51,0,0,1,0,.56v2.07h-.57v-2a1.38,1.38,0,0,0-.07-.52.53.53,0,0,0-.23-.28.77.77,0,0,0-.4-.1,1,1,0,0,0-.63.23,1.13,1.13,0,0,0-.27.88v1.84Z" transform="translate(1.43 -22.69)"/><path class="cls-8" d="M33.53,128.47V125.1H34v.48a1.23,1.23,0,0,1,1.08-.56,1.51,1.51,0,0,1,.56.11,1,1,0,0,1,.38.29,1.33,1.33,0,0,1,.18.42,3.51,3.51,0,0,1,0,.56v2.07H35.7v-2a1.62,1.62,0,0,0-.07-.52.55.55,0,0,0-.24-.28.72.72,0,0,0-.4-.1,1,1,0,0,0-.63.23,1.17,1.17,0,0,0-.26.88v1.84Z" transform="translate(1.43 -22.69)"/><path class="cls-8" d="M37.15,124.47v-.65h.57v.65Zm0,4V125.1h.57v3.37Z" transform="translate(1.43 -22.69)"/><path class="cls-8" d="M38.59,128.47V125.1h.51v.48a1.22,1.22,0,0,1,1.07-.56,1.43,1.43,0,0,1,.56.11,1,1,0,0,1,.39.29,1.13,1.13,0,0,1,.17.42,2.44,2.44,0,0,1,0,.56v2.07h-.57v-2a1.62,1.62,0,0,0-.07-.52.55.55,0,0,0-.24-.28.72.72,0,0,0-.4-.1,1,1,0,0,0-.63.23,1.17,1.17,0,0,0-.26.88v1.84Z" transform="translate(1.43 -22.69)"/><path class="cls-8" d="M42.1,128.75l.55.08a.56.56,0,0,0,.2.38,1,1,0,0,0,.58.16,1.05,1.05,0,0,0,.61-.16.82.82,0,0,0,.29-.45,3.07,3.07,0,0,0,0-.73,1.18,1.18,0,0,1-.93.44,1.3,1.3,0,0,1-1.08-.5,2,2,0,0,1-.38-1.2,2.14,2.14,0,0,1,.18-.89,1.28,1.28,0,0,1,.5-.63,1.38,1.38,0,0,1,.78-.23,1.2,1.2,0,0,1,1,.49v-.41H45V128a2.72,2.72,0,0,1-.16,1.12,1.14,1.14,0,0,1-.5.52,1.88,1.88,0,0,1-.86.19,1.59,1.59,0,0,1-1-.27A.92.92,0,0,1,42.1,128.75Zm.47-2a1.48,1.48,0,0,0,.26,1,.83.83,0,0,0,.66.31.81.81,0,0,0,.66-.31,1.77,1.77,0,0,0,0-1.88.87.87,0,0,0-.67-.31.79.79,0,0,0-.64.31A1.34,1.34,0,0,0,42.57,126.72Z" transform="translate(1.43 -22.69)"/><path class="cls-8" d="M47.62,128.47V125.1h.51v.51a1.31,1.31,0,0,1,.36-.47.65.65,0,0,1,.37-.12,1.08,1.08,0,0,1,.59.19l-.2.53a.76.76,0,0,0-.42-.13.52.52,0,0,0-.33.12.65.65,0,0,0-.22.31,2.31,2.31,0,0,0-.09.67v1.76Z" transform="translate(1.43 -22.69)"/><path class="cls-8" d="M52,128.05a2.38,2.38,0,0,1-.61.39,1.9,1.9,0,0,1-.63.11,1.2,1.2,0,0,1-.86-.28.93.93,0,0,1-.18-1.14.85.85,0,0,1,.29-.33,1.72,1.72,0,0,1,.41-.19,3.22,3.22,0,0,1,.51-.08,5.33,5.33,0,0,0,1-.2v-.15a.61.61,0,0,0-.16-.49,1,1,0,0,0-.65-.19,1,1,0,0,0-.6.14.88.88,0,0,0-.28.5l-.56-.08a1.48,1.48,0,0,1,.25-.58,1.12,1.12,0,0,1,.51-.34,2.48,2.48,0,0,1,1.46,0,1,1,0,0,1,.4.26.79.79,0,0,1,.18.39,3.08,3.08,0,0,1,0,.53v.76a10,10,0,0,0,0,1,1.49,1.49,0,0,0,.15.4h-.6A1.08,1.08,0,0,1,52,128.05Zm-.05-1.27A4.06,4.06,0,0,1,51,127a2.6,2.6,0,0,0-.5.12.52.52,0,0,0-.23.18.57.57,0,0,0-.08.28.49.49,0,0,0,.18.38.73.73,0,0,0,.5.15,1.15,1.15,0,0,0,.59-.15.84.84,0,0,0,.38-.39,1.41,1.41,0,0,0,.09-.57Z" transform="translate(1.43 -22.69)"/><path class="cls-8" d="M53.4,128.47V125.1h.52v.48A1.2,1.2,0,0,1,55,125a1.47,1.47,0,0,1,.56.11.89.89,0,0,1,.38.29,1,1,0,0,1,.18.42,3.51,3.51,0,0,1,0,.56v2.07h-.57v-2a1.38,1.38,0,0,0-.07-.52.53.53,0,0,0-.23-.28.77.77,0,0,0-.4-.1,1,1,0,0,0-.63.23,1.13,1.13,0,0,0-.27.88v1.84Z" transform="translate(1.43 -22.69)"/><path class="cls-8" d="M56.91,128.75l.56.08a.56.56,0,0,0,.19.38,1,1,0,0,0,.58.16,1.09,1.09,0,0,0,.62-.16.82.82,0,0,0,.29-.45,3.76,3.76,0,0,0,0-.73,1.18,1.18,0,0,1-.93.44,1.28,1.28,0,0,1-1.08-.5,2,2,0,0,1-.38-1.2,2.31,2.31,0,0,1,.17-.89,1.37,1.37,0,0,1,1.29-.86,1.19,1.19,0,0,1,1,.49v-.41h.53V128a2.72,2.72,0,0,1-.16,1.12,1.22,1.22,0,0,1-.51.52,1.84,1.84,0,0,1-.85.19,1.63,1.63,0,0,1-1-.27A.92.92,0,0,1,56.91,128.75Zm.48-2a1.43,1.43,0,0,0,.26,1,.82.82,0,0,0,.66.31.83.83,0,0,0,.66-.31,1.74,1.74,0,0,0,0-1.88.85.85,0,0,0-1.31,0A1.34,1.34,0,0,0,57.39,126.72Z" transform="translate(1.43 -22.69)"/><path class="cls-8" d="M62.94,127.38l.59.08a1.39,1.39,0,0,1-.52.8,1.72,1.72,0,0,1-2.13-.17,1.77,1.77,0,0,1-.44-1.28,1.9,1.9,0,0,1,.44-1.32A1.49,1.49,0,0,1,62,125a1.45,1.45,0,0,1,1.1.46,1.82,1.82,0,0,1,.43,1.3v.15H61a1.29,1.29,0,0,0,.32.85.92.92,0,0,0,.7.3.89.89,0,0,0,.54-.17A1.07,1.07,0,0,0,62.94,127.38Zm-1.88-.92H63a1.18,1.18,0,0,0-.22-.64.88.88,0,0,0-.71-.33.9.9,0,0,0-.66.27A1,1,0,0,0,61.06,126.46Z" transform="translate(1.43 -22.69)"/><path class="cls-8" d="M3.22,98.27H-.88V99.8h-.55V96.11h.55v1.54h4.1Z" transform="translate(1.43 -22.69)"/><path class="cls-8" d="M1.54,95.77a1.76,1.76,0,0,1-1.39-.52,1.58,1.58,0,0,1-.37-1.06,1.53,1.53,0,0,1,.45-1.14,1.74,1.74,0,0,1,1.26-.44,2.38,2.38,0,0,1,1,.19,1.45,1.45,0,0,1,.58.57,1.64,1.64,0,0,1,.21.82,1.48,1.48,0,0,1-.46,1.14A1.79,1.79,0,0,1,1.54,95.77Zm0-.59a1.44,1.44,0,0,0,1-.28.93.93,0,0,0,.32-.71.89.89,0,0,0-.33-.71,1.43,1.43,0,0,0-1-.28,1.38,1.38,0,0,0-.95.28.93.93,0,0,0-.32.71.9.9,0,0,0,.32.71A1.41,1.41,0,0,0,1.54,95.18Z" transform="translate(1.43 -22.69)"/><path class="cls-8" d="M3.22,92H-.15v-.52H.36a1.41,1.41,0,0,1-.47-.36.6.6,0,0,1-.11-.37A1.09,1.09,0,0,1,0,90.12l.53.19a.84.84,0,0,0-.12.42.51.51,0,0,0,.11.34.58.58,0,0,0,.31.21,2.35,2.35,0,0,0,.67.1H3.22Z" transform="translate(1.43 -22.69)"/><path class="cls-8" d="M4.51,87.63H2.86a1,1,0,0,1,.31.37,1,1,0,0,1,.13.51,1.34,1.34,0,0,1-.48,1A1.9,1.9,0,0,1,1.5,90a2.24,2.24,0,0,1-.91-.18A1.4,1.4,0,0,1,0,89.29a1.35,1.35,0,0,1-.2-.74,1.13,1.13,0,0,1,.52-1H-.15v-.51H4.51Zm-3,1.76a1.48,1.48,0,0,0,1-.27.84.84,0,0,0,.33-.66.8.8,0,0,0-.31-.63,1.46,1.46,0,0,0-.94-.26,1.52,1.52,0,0,0-1,.28.8.8,0,0,0-.34.65.78.78,0,0,0,.31.63A1.56,1.56,0,0,0,1.53,89.39Z" transform="translate(1.43 -22.69)"/><path class="cls-8" d="M3.22,84H2.73A1.23,1.23,0,0,1,3.3,85a1.31,1.31,0,0,1-.12.56A.88.88,0,0,1,2.9,86a1.12,1.12,0,0,1-.43.18,3.33,3.33,0,0,1-.53,0H-.15V85.6H1.72a3.77,3.77,0,0,0,.6,0,.68.68,0,0,0,.36-.23.75.75,0,0,0,.13-.43,1,1,0,0,0-.14-.49.66.66,0,0,0-.35-.31,1.7,1.7,0,0,0-.66-.1H-.15v-.57H3.22Z" transform="translate(1.43 -22.69)"/><path class="cls-8" d="M2.14,80.24l.07-.59a1.39,1.39,0,0,1,.8.52,1.54,1.54,0,0,1,.29,1,1.52,1.52,0,0,1-.46,1.17,1.77,1.77,0,0,1-1.27.44A1.9,1.9,0,0,1,.24,82.3a1.48,1.48,0,0,1-.46-1.14,1.41,1.41,0,0,1,.46-1.1,1.78,1.78,0,0,1,1.29-.43h.15v2.52a1.32,1.32,0,0,0,.85-.32.92.92,0,0,0,.3-.7.89.89,0,0,0-.17-.54A1.09,1.09,0,0,0,2.14,80.24Zm-.93,1.87V80.23a1.21,1.21,0,0,0-.64.22.88.88,0,0,0-.33.71.9.9,0,0,0,.27.66A1,1,0,0,0,1.21,82.11Z" transform="translate(1.43 -22.69)"/><path class="cls-8" d="M4.51,77.11H-1.43V75.85H-1v.69H4v-.69h.47Z" transform="translate(1.43 -22.69)"/><path class="cls-8" d="M3.22,75.25H-1.43v-.63l3.65-2.44H-1.43v-.59H3.22v.63L-.43,74.66H3.22Z" transform="translate(1.43 -22.69)"/><path class="cls-8" d="M.94,70.71a.78.78,0,0,1-.57-.24.81.81,0,0,1-.23-.57.77.77,0,0,1,.23-.56.78.78,0,0,1,.57-.24.75.75,0,0,1,.57.24.74.74,0,0,1,.24.56.78.78,0,0,1-.24.57A.75.75,0,0,1,.94,70.71Z" transform="translate(1.43 -22.69)"/><path class="cls-8" d="M3.22,68.35H-.15v-.51H.32a1.31,1.31,0,0,1-.39-.42,1.21,1.21,0,0,1-.15-.6,1.16,1.16,0,0,1,.15-.62.84.84,0,0,1,.44-.34,1.18,1.18,0,0,1-.59-1,1,1,0,0,1,.27-.77,1.2,1.2,0,0,1,.86-.27H3.22v.57H1.1a1.42,1.42,0,0,0-.49.06.41.41,0,0,0-.25.2A.62.62,0,0,0,.27,65a.79.79,0,0,0,.24.59,1,1,0,0,0,.75.24h2v.57H1a.92.92,0,0,0-.57.14.51.51,0,0,0-.19.45.81.81,0,0,0,.13.45.74.74,0,0,0,.37.3,2.12,2.12,0,0,0,.7.09H3.22Z" transform="translate(1.43 -22.69)"/><path class="cls-8" d="M4.51,62v1.26H4v-.69H-1v.69h-.47V62Z" transform="translate(1.43 -22.69)"/><path class="cls-8" d="M44.05,150.56l.58-.06a1.32,1.32,0,0,0,.19.58,1,1,0,0,0,.47.36,1.8,1.8,0,0,0,.71.14,1.73,1.73,0,0,0,.63-.11.87.87,0,0,0,.4-.28.68.68,0,0,0,.13-.4.59.59,0,0,0-.13-.39.92.92,0,0,0-.42-.27c-.12,0-.4-.12-.82-.23a4.09,4.09,0,0,1-.9-.29,1.26,1.26,0,0,1-.5-.43,1.06,1.06,0,0,1-.16-.58,1.16,1.16,0,0,1,.2-.66,1.22,1.22,0,0,1,.58-.46,2.15,2.15,0,0,1,.85-.16,2.4,2.4,0,0,1,.92.16,1.49,1.49,0,0,1,.61.49,1.46,1.46,0,0,1,.22.74l-.59,0a1,1,0,0,0-.32-.66,1.24,1.24,0,0,0-.81-.23,1.34,1.34,0,0,0-.81.2.64.64,0,0,0-.26.5A.52.52,0,0,0,45,149a2.39,2.39,0,0,0,.93.33,7.58,7.58,0,0,1,1,.3,1.39,1.39,0,0,1,.6.47,1.19,1.19,0,0,1,.19.67,1.3,1.3,0,0,1-.21.7,1.34,1.34,0,0,1-.61.51,2.16,2.16,0,0,1-.9.18A2.76,2.76,0,0,1,45,152a1.52,1.52,0,0,1-.92-1.39Z" transform="translate(1.43 -22.69)"/><path class="cls-8" d="M48.52,153.34v-4.66H49v.44a1.29,1.29,0,0,1,.42-.39,1.19,1.19,0,0,1,.56-.13,1.31,1.31,0,0,1,.76.23,1.29,1.29,0,0,1,.5.62,2.35,2.35,0,0,1,.17.89,2.15,2.15,0,0,1-.19.93,1.36,1.36,0,0,1-.54.64,1.42,1.42,0,0,1-.74.22,1.07,1.07,0,0,1-.51-.12,1.32,1.32,0,0,1-.38-.31v1.64Zm.52-3a1.52,1.52,0,0,0,.26,1,.84.84,0,0,0,.64.31.82.82,0,0,0,.65-.33,1.94,1.94,0,0,0,0-2,.79.79,0,0,0-1.28,0A1.52,1.52,0,0,0,49,150.38Z" transform="translate(1.43 -22.69)"/><path class="cls-8" d="M54.44,151,55,151a1.43,1.43,0,0,1-.51.8,1.6,1.6,0,0,1-1,.29,1.56,1.56,0,0,1-1.17-.46,1.77,1.77,0,0,1-.43-1.28,1.89,1.89,0,0,1,.43-1.32,1.51,1.51,0,0,1,1.14-.47,1.45,1.45,0,0,1,1.1.46,1.82,1.82,0,0,1,.43,1.3v.15H52.54a1.28,1.28,0,0,0,.31.85.93.93,0,0,0,.71.3.88.88,0,0,0,.53-.17A1,1,0,0,0,54.44,151ZM52.57,150h1.88a1.18,1.18,0,0,0-.22-.64.86.86,0,0,0-.7-.33.87.87,0,0,0-.66.27A1,1,0,0,0,52.57,150Z" transform="translate(1.43 -22.69)"/><path class="cls-8" d="M58.06,151l.59.08a1.44,1.44,0,0,1-.52.8,1.54,1.54,0,0,1-1,.29,1.57,1.57,0,0,1-1.18-.46,1.77,1.77,0,0,1-.43-1.28,1.9,1.9,0,0,1,.44-1.32,1.49,1.49,0,0,1,1.14-.47,1.46,1.46,0,0,1,1.1.46,1.82,1.82,0,0,1,.43,1.3,1,1,0,0,1,0,.15H56.15a1.29,1.29,0,0,0,.32.85.91.91,0,0,0,.7.3.89.89,0,0,0,.54-.17A1.14,1.14,0,0,0,58.06,151ZM56.18,150h1.89a1.18,1.18,0,0,0-.22-.64.88.88,0,0,0-.71-.33.9.9,0,0,0-.66.27A1,1,0,0,0,56.18,150Z" transform="translate(1.43 -22.69)"/><path class="cls-8" d="M61.55,152.05v-.43a1,1,0,0,1-.94.51,1.4,1.4,0,0,1-1.26-.85,2,2,0,0,1-.19-.91,2.47,2.47,0,0,1,.17-.92,1.37,1.37,0,0,1,.5-.63,1.43,1.43,0,0,1,.76-.22,1.2,1.2,0,0,1,.54.13,1,1,0,0,1,.38.34V147.4h.57v4.65Zm-1.8-1.68a1.5,1.5,0,0,0,.27,1,.83.83,0,0,0,.64.32.82.82,0,0,0,.64-.31,1.38,1.38,0,0,0,.26-.93,1.64,1.64,0,0,0-.26-1,.81.81,0,0,0-.66-.32.79.79,0,0,0-.64.31A1.52,1.52,0,0,0,59.75,150.37Z" transform="translate(1.43 -22.69)"/><path class="cls-8" d="M64.8,153.34V147.4h1.26v.47h-.69v5h.69v.47Z" transform="translate(1.43 -22.69)"/><path class="cls-8" d="M66.59,152.05v-3.37h.51v.51a1.31,1.31,0,0,1,.36-.47.65.65,0,0,1,.37-.12,1.08,1.08,0,0,1,.59.19l-.2.53a.76.76,0,0,0-.42-.13.52.52,0,0,0-.33.12.65.65,0,0,0-.22.31,2.31,2.31,0,0,0-.09.67v1.76Z" transform="translate(1.43 -22.69)"/><path class="cls-8" d="M68.33,152.13l1.35-4.81h.46l-1.35,4.81Z" transform="translate(1.43 -22.69)"/><path class="cls-8" d="M70.56,152.05v-3.37h.51v.47a1.27,1.27,0,0,1,.43-.4,1.16,1.16,0,0,1,.6-.15,1.13,1.13,0,0,1,.61.16.86.86,0,0,1,.34.43,1.22,1.22,0,0,1,1-.59,1.05,1.05,0,0,1,.77.28,1.2,1.2,0,0,1,.27.86v2.31h-.57v-2.12a1.91,1.91,0,0,0,0-.5.52.52,0,0,0-.2-.24.68.68,0,0,0-.35-.09.84.84,0,0,0-.59.23,1.08,1.08,0,0,0-.23.76v2h-.57v-2.19a1,1,0,0,0-.14-.57.54.54,0,0,0-.46-.19.81.81,0,0,0-.45.13.69.69,0,0,0-.29.37,2,2,0,0,0-.1.7v1.75Z" transform="translate(1.43 -22.69)"/><path class="cls-8" d="M76,148.05v-.65h.57v.65Zm0,4v-3.37h.57v3.37Z" transform="translate(1.43 -22.69)"/><path class="cls-8" d="M77.42,152.05v-3.37h.52v.48A1.2,1.2,0,0,1,79,148.6a1.47,1.47,0,0,1,.56.11A.89.89,0,0,1,80,149a1,1,0,0,1,.18.42,3.51,3.51,0,0,1,0,.56v2.07h-.57V150a1.38,1.38,0,0,0-.07-.52.53.53,0,0,0-.23-.28.77.77,0,0,0-.4-.1,1,1,0,0,0-.63.23,1.13,1.13,0,0,0-.27.88v1.84Z" transform="translate(1.43 -22.69)"/><path class="cls-8" d="M82,153.34H80.73v-.47h.69v-5h-.69v-.47H82Z" transform="translate(1.43 -22.69)"/></g></svg>