<svg xmlns="http://www.w3.org/2000/svg" viewBox="0 0 118.01 131.42"><defs><style>.cls-1,.cls-2,.繝医Ν繧ｯ繧ｰ繝ｩ繝廟繧ｰ繝ｬ繝ｼ邱,.邱喟0\.5pt-10{fill:none;}.cls-1,.cls-2,.邱喟0\.5pt-10{stroke:#231815;}.cls-1{stroke-linejoin:round;stroke-width:0.14px;}.繝医Ν繧ｯ繧ｰ繝ｩ繝廟繧ｰ繝ｬ繝ｼ邱{stroke:#9fa0a0;stroke-width:3px;}.cls-3{fill:#231815;}.繝後Μ_逋ｽ{fill:#fff;}.邱喟0\.5pt-10{stroke-miterlimit:10;stroke-width:0.5px;}</style></defs><g id="Illust"><line class="cls-1" x1="46.94" y1="2.18" x2="46.94" y2="115.56"/><line class="cls-1" x1="74.01" y1="2.18" x2="74.01" y2="115.56"/><line class="cls-1" x1="101.08" y1="2.18" x2="101.08" y2="115.56"/><line class="cls-1" x1="19.86" y1="92.89" x2="110.55" y2="92.89"/><line class="cls-1" x1="19.86" y1="70.21" x2="110.55" y2="70.21"/><line class="cls-1" x1="19.86" y1="47.53" x2="110.55" y2="47.53"/><line class="cls-1" x1="19.86" y1="24.85" x2="110.55" y2="24.85"/><polyline class="繝医Ν繧ｯ繧ｰ繝ｩ繝廟繧ｰ繝ｬ繝ｼ邱" points="19.86 86.67 26.63 86.67 33.39 86.67 46.94 86.67 60.47 86.67 74.02 93.87 87.55 98.21 101.09 101.13 110.56 102.62"/><polyline class="cls-2" points="19.86 86.67 26.63 86.67 33.39 86.67 46.94 86.67 60.47 86.67 74.02 93.87 87.55 98.21 101.09 101.13 110.56 102.62"/><polyline class="繝医Ν繧ｯ繧ｰ繝ｩ繝廟繧ｰ繝ｬ繝ｼ邱" points="19.86 28.93 48.3 28.93 60.47 43.39 87.55 79.28 110.56 86.55"/><path class="cls-3" d="M17.24,141.38a3.52,3.52,0,0,1,.13-1,1.28,1.28,0,0,1,.39-.59,1,1,0,0,1,.65-.21,1.06,1.06,0,0,1,.51.11,1,1,0,0,1,.35.34,1.73,1.73,0,0,1,.23.53,3.72,3.72,0,0,1,.08.84,3.52,3.52,0,0,1-.13,1,1.31,1.31,0,0,1-.39.6,1,1,0,0,1-.65.21,1,1,0,0,1-.81-.37A2.33,2.33,0,0,1,17.24,141.38Zm.45,0a2.25,2.25,0,0,0,.21,1.18.59.59,0,0,0,1,0,2.25,2.25,0,0,0,.21-1.18,2.2,2.2,0,0,0-.21-1.17.63.63,0,0,0-.52-.29.56.56,0,0,0-.48.26A2.24,2.24,0,0,0,17.69,141.38Z" transform="translate(1.43 -21.92)"/><rect class="繝後Μ_逋ｽ" x="110.56" y="2.18" width="2.83" height="113.39"/><path class="cls-3" d="M10.27,137.13a3.2,3.2,0,0,1,.13-1,1.22,1.22,0,0,1,.38-.6,1,1,0,0,1,.65-.21,1.07,1.07,0,0,1,.51.12,1.13,1.13,0,0,1,.36.33,1.91,1.91,0,0,1,.22.54,3.72,3.72,0,0,1,.08.84,3.2,3.2,0,0,1-.13,1,1.31,1.31,0,0,1-.39.6,1,1,0,0,1-.65.21,1,1,0,0,1-.81-.37A2.36,2.36,0,0,1,10.27,137.13Zm.45,0a2.31,2.31,0,0,0,.2,1.17.58.58,0,0,0,1,0,3.36,3.36,0,0,0,0-2.34.6.6,0,0,0-.51-.29.58.58,0,0,0-.49.25A2.3,2.3,0,0,0,10.72,137.13Z" transform="translate(1.43 -21.92)"/><path class="cls-3" d="M13.29,138.9v-.5h.5v.5Z" transform="translate(1.43 -21.92)"/><path class="cls-3" d="M14.44,137.13a3.2,3.2,0,0,1,.13-1,1.22,1.22,0,0,1,.38-.6,1,1,0,0,1,.65-.21,1.07,1.07,0,0,1,.51.12,1.13,1.13,0,0,1,.36.33,1.91,1.91,0,0,1,.22.54,3.72,3.72,0,0,1,.08.84,3.2,3.2,0,0,1-.13,1,1.31,1.31,0,0,1-.39.6,1,1,0,0,1-.65.21,1,1,0,0,1-.81-.37A2.36,2.36,0,0,1,14.44,137.13Zm.45,0a2.31,2.31,0,0,0,.2,1.17.58.58,0,0,0,1,0,3.36,3.36,0,0,0,0-2.34.6.6,0,0,0-.51-.29.57.57,0,0,0-.49.25A2.3,2.3,0,0,0,14.89,137.13Z" transform="translate(1.43 -21.92)"/><path class="cls-3" d="M10.27,116l.46,0a.77.77,0,0,0,.24.51.64.64,0,0,0,.45.17.68.68,0,0,0,.53-.24.89.89,0,0,0,.22-.64.82.82,0,0,0-.21-.59.75.75,0,0,0-.55-.22.8.8,0,0,0-.38.1.66.66,0,0,0-.27.25l-.42-.05.35-1.84h1.78v.42H11l-.19,1a1.15,1.15,0,0,1,.68-.22,1.06,1.06,0,0,1,.79.32,1.17,1.17,0,0,1,.32.84,1.37,1.37,0,0,1-.28.84,1.17,1.17,0,0,1-.94.43,1.16,1.16,0,0,1-.8-.27A1.08,1.08,0,0,1,10.27,116Z" transform="translate(1.43 -21.92)"/><path class="cls-3" d="M13.29,116.93v-.5h.5v.5Z" transform="translate(1.43 -21.92)"/><path class="cls-3" d="M14.44,115.16a3.2,3.2,0,0,1,.13-1,1.19,1.19,0,0,1,.38-.59,1,1,0,0,1,.65-.21.95.95,0,0,1,.87.45,1.73,1.73,0,0,1,.22.53,3.72,3.72,0,0,1,.08.84,3.2,3.2,0,0,1-.13,1,1.31,1.31,0,0,1-.39.6,1,1,0,0,1-.65.21,1,1,0,0,1-.81-.37A2.34,2.34,0,0,1,14.44,115.16Zm.45,0a2.38,2.38,0,0,0,.2,1.18.59.59,0,0,0,1,0,2.25,2.25,0,0,0,.21-1.18,2.18,2.18,0,0,0-.21-1.17.62.62,0,0,0-.51-.29.56.56,0,0,0-.49.26A2.26,2.26,0,0,0,14.89,115.16Z" transform="translate(1.43 -21.92)"/><path class="cls-3" d="M9.14,94.25H8.7v-2.8a2.18,2.18,0,0,1-.42.3,2.18,2.18,0,0,1-.46.23v-.42a3,3,0,0,0,.65-.42,2,2,0,0,0,.39-.48h.28Z" transform="translate(1.43 -21.92)"/><path class="cls-3" d="M10.27,92.49a3.12,3.12,0,0,1,.13-1,1.22,1.22,0,0,1,.38-.6,1,1,0,0,1,.65-.21,1.19,1.19,0,0,1,.51.11,1.06,1.06,0,0,1,.36.34,1.73,1.73,0,0,1,.22.53,3.76,3.76,0,0,1,.08.85,3.09,3.09,0,0,1-.13,1,1.31,1.31,0,0,1-.39.6,1,1,0,0,1-.65.21,1,1,0,0,1-.81-.37A2.33,2.33,0,0,1,10.27,92.49Zm.45,0a2.34,2.34,0,0,0,.2,1.17.59.59,0,0,0,1,0,3.39,3.39,0,0,0,0-2.35.62.62,0,0,0-.51-.29.59.59,0,0,0-.49.26A2.3,2.3,0,0,0,10.72,92.49Z" transform="translate(1.43 -21.92)"/><path class="cls-3" d="M13.29,94.25v-.5h.5v.5Z" transform="translate(1.43 -21.92)"/><path class="cls-3" d="M14.44,92.49a3.12,3.12,0,0,1,.13-1,1.22,1.22,0,0,1,.38-.6,1,1,0,0,1,.65-.21,1.19,1.19,0,0,1,.51.11,1.06,1.06,0,0,1,.36.34,1.73,1.73,0,0,1,.22.53,3.76,3.76,0,0,1,.08.85,3.09,3.09,0,0,1-.13,1,1.31,1.31,0,0,1-.39.6,1,1,0,0,1-.65.21,1,1,0,0,1-.81-.37A2.33,2.33,0,0,1,14.44,92.49Zm.45,0a2.34,2.34,0,0,0,.2,1.17.59.59,0,0,0,1,0,3.39,3.39,0,0,0,0-2.35A.62.62,0,0,0,15.6,91a.58.58,0,0,0-.49.26A2.3,2.3,0,0,0,14.89,92.49Z" transform="translate(1.43 -21.92)"/><path class="cls-3" d="M9.14,71.57H8.7v-2.8a1.83,1.83,0,0,1-.42.31,2.69,2.69,0,0,1-.46.22v-.42a3,3,0,0,0,.65-.42A1.79,1.79,0,0,0,8.86,68h.28Z" transform="translate(1.43 -21.92)"/><path class="cls-3" d="M10.27,70.64l.46,0a.77.77,0,0,0,.24.5.6.6,0,0,0,.45.17A.68.68,0,0,0,12,71a.86.86,0,0,0,.22-.63.8.8,0,0,0-.21-.59.71.71,0,0,0-.55-.22.7.7,0,0,0-.38.1.6.6,0,0,0-.27.25l-.42-.06L10.69,68h1.78v.42H11l-.19,1a1.16,1.16,0,0,1,.68-.23,1.07,1.07,0,0,1,.79.33,1.13,1.13,0,0,1,.32.83,1.35,1.35,0,0,1-.28.84,1.15,1.15,0,0,1-.94.44,1.16,1.16,0,0,1-.8-.28A1,1,0,0,1,10.27,70.64Z" transform="translate(1.43 -21.92)"/><path class="cls-3" d="M13.29,71.57v-.5h.5v.5Z" transform="translate(1.43 -21.92)"/><path class="cls-3" d="M14.44,69.81a3.2,3.2,0,0,1,.13-1,1.22,1.22,0,0,1,.38-.6A1,1,0,0,1,15.6,68a1.07,1.07,0,0,1,.51.12,1,1,0,0,1,.36.33,1.84,1.84,0,0,1,.22.53,3.76,3.76,0,0,1,.08.85,3.2,3.2,0,0,1-.13,1,1.33,1.33,0,0,1-.39.59,1,1,0,0,1-.65.22,1,1,0,0,1-.81-.38A2.31,2.31,0,0,1,14.44,69.81Zm.45,0a2.31,2.31,0,0,0,.2,1.17.59.59,0,0,0,1,0,2.18,2.18,0,0,0,.21-1.17,2.25,2.25,0,0,0-.21-1.18.62.62,0,0,0-.51-.29.58.58,0,0,0-.49.26A2.3,2.3,0,0,0,14.89,69.81Z" transform="translate(1.43 -21.92)"/><path class="cls-3" d="M9.79,48.48v.42H7.43a.81.81,0,0,1,.05-.31,1.58,1.58,0,0,1,.29-.47,4.37,4.37,0,0,1,.57-.55,4.51,4.51,0,0,0,.79-.75.92.92,0,0,0,.21-.53.56.56,0,0,0-.19-.44.67.67,0,0,0-.49-.18.65.65,0,0,0-.5.19.71.71,0,0,0-.2.53l-.45,0a1.12,1.12,0,0,1,.35-.77,1.17,1.17,0,0,1,.81-.27,1.14,1.14,0,0,1,.82.29.94.94,0,0,1,.3.71,1.06,1.06,0,0,1-.09.42,1.66,1.66,0,0,1-.29.44,8.11,8.11,0,0,1-.68.63l-.51.45a1.88,1.88,0,0,0-.18.24Z" transform="translate(1.43 -21.92)"/><path class="cls-3" d="M10.27,47.13a3.2,3.2,0,0,1,.13-1,1.22,1.22,0,0,1,.38-.6,1,1,0,0,1,.65-.21,1.07,1.07,0,0,1,.51.12,1.13,1.13,0,0,1,.36.33,1.91,1.91,0,0,1,.22.54,3.72,3.72,0,0,1,.08.84,3.2,3.2,0,0,1-.13,1,1.31,1.31,0,0,1-.39.6,1,1,0,0,1-.65.21,1,1,0,0,1-.81-.37A2.36,2.36,0,0,1,10.27,47.13Zm.45,0a2.38,2.38,0,0,0,.2,1.18.62.62,0,0,0,.51.29.61.61,0,0,0,.51-.3,3.36,3.36,0,0,0,0-2.34.6.6,0,0,0-.51-.29.58.58,0,0,0-.49.25A2.33,2.33,0,0,0,10.72,47.13Z" transform="translate(1.43 -21.92)"/><path class="cls-3" d="M13.29,48.9v-.5h.5v.5Z" transform="translate(1.43 -21.92)"/><path class="cls-3" d="M14.44,47.13a3.2,3.2,0,0,1,.13-1,1.22,1.22,0,0,1,.38-.6,1,1,0,0,1,.65-.21,1.07,1.07,0,0,1,.51.12,1.13,1.13,0,0,1,.36.33,1.91,1.91,0,0,1,.22.54,3.72,3.72,0,0,1,.08.84,3.2,3.2,0,0,1-.13,1,1.31,1.31,0,0,1-.39.6,1,1,0,0,1-.65.21,1,1,0,0,1-.81-.37A2.36,2.36,0,0,1,14.44,47.13Zm.45,0a2.38,2.38,0,0,0,.2,1.18.62.62,0,0,0,.51.29.61.61,0,0,0,.51-.3,3.36,3.36,0,0,0,0-2.34.6.6,0,0,0-.51-.29.57.57,0,0,0-.49.25A2.33,2.33,0,0,0,14.89,47.13Z" transform="translate(1.43 -21.92)"/><path class="cls-3" d="M9.79,25.09v.42H7.43a.76.76,0,0,1,.05-.3,1.76,1.76,0,0,1,.29-.48,3.81,3.81,0,0,1,.57-.54,4.48,4.48,0,0,0,.79-.76.9.9,0,0,0,.21-.53.58.58,0,0,0-.19-.44.67.67,0,0,0-.49-.18.69.69,0,0,0-.5.19A.72.72,0,0,0,8,23L7.51,23a1.14,1.14,0,0,1,.35-.77,1.21,1.21,0,0,1,.81-.26,1.13,1.13,0,0,1,.82.28.94.94,0,0,1,.3.71,1,1,0,0,1-.09.42,1.51,1.51,0,0,1-.29.44,8.11,8.11,0,0,1-.68.63l-.51.45a1.88,1.88,0,0,0-.18.24Z" transform="translate(1.43 -21.92)"/><path class="cls-3" d="M10.27,24.57l.46,0A.77.77,0,0,0,11,25a.64.64,0,0,0,.45.17A.68.68,0,0,0,12,25a.88.88,0,0,0,.22-.63.84.84,0,0,0-.21-.6.74.74,0,0,0-.55-.21.79.79,0,0,0-.38.09.73.73,0,0,0-.27.25l-.42-.05L10.69,22h1.78v.42H11l-.19,1a1.15,1.15,0,0,1,.68-.22,1.1,1.1,0,0,1,.79.32,1.17,1.17,0,0,1,.32.84,1.37,1.37,0,0,1-.28.84,1.14,1.14,0,0,1-.94.43,1.16,1.16,0,0,1-.8-.27A1,1,0,0,1,10.27,24.57Z" transform="translate(1.43 -21.92)"/><path class="cls-3" d="M13.29,25.51V25h.5v.5Z" transform="translate(1.43 -21.92)"/><path class="cls-3" d="M14.44,23.75a3.23,3.23,0,0,1,.13-1,1.24,1.24,0,0,1,.38-.59,1,1,0,0,1,.65-.21,1.19,1.19,0,0,1,.51.11,1.06,1.06,0,0,1,.36.34,1.73,1.73,0,0,1,.22.53,3.76,3.76,0,0,1,.08.85,3.09,3.09,0,0,1-.13,1,1.31,1.31,0,0,1-.39.6,1,1,0,0,1-.65.21,1,1,0,0,1-.81-.37A2.33,2.33,0,0,1,14.44,23.75Zm.45,0a2.34,2.34,0,0,0,.2,1.17.59.59,0,0,0,1,0,2.23,2.23,0,0,0,.21-1.17,2.25,2.25,0,0,0-.21-1.18.62.62,0,0,0-.51-.29.58.58,0,0,0-.49.26A2.3,2.3,0,0,0,14.89,23.75Z" transform="translate(1.43 -21.92)"/><path class="cls-3" d="M108.19,140.45l-.44,0a.71.71,0,0,0-.17-.37.56.56,0,0,0-.44-.19.61.61,0,0,0-.36.11,1,1,0,0,0-.33.45,2.41,2.41,0,0,0-.13.82,1,1,0,0,1,.39-.35,1,1,0,0,1,.48-.12,1,1,0,0,1,.75.32,1.16,1.16,0,0,1,.31.84,1.44,1.44,0,0,1-.14.62,1.1,1.1,0,0,1-.4.45,1.14,1.14,0,0,1-.58.15,1.12,1.12,0,0,1-.9-.4,2.07,2.07,0,0,1-.34-1.34,2.33,2.33,0,0,1,.38-1.5,1.08,1.08,0,0,1,.9-.41,1,1,0,0,1,.69.23A1,1,0,0,1,108.19,140.45Zm-1.8,1.54a.91.91,0,0,0,.1.43.66.66,0,0,0,.27.32.69.69,0,0,0,.36.11.62.62,0,0,0,.48-.23.9.9,0,0,0,.2-.61.83.83,0,0,0-.2-.58.64.64,0,0,0-.49-.21.69.69,0,0,0-.51.21A.76.76,0,0,0,106.39,142Z" transform="translate(1.43 -21.92)"/><path class="cls-3" d="M108.72,140v-.42H111V140a4.78,4.78,0,0,0-.67,1,5.35,5.35,0,0,0-.52,1.24,4.17,4.17,0,0,0-.17,1h-.45a4.4,4.4,0,0,1,.16-1,5.42,5.42,0,0,1,.46-1.15,5.11,5.11,0,0,1,.63-.94Z" transform="translate(1.43 -21.92)"/><path class="cls-3" d="M111.47,141.38a3.2,3.2,0,0,1,.13-1,1.28,1.28,0,0,1,.39-.59,1,1,0,0,1,.64-.21,1,1,0,0,1,.51.11,1,1,0,0,1,.36.34,1.73,1.73,0,0,1,.22.53,4.23,4.23,0,0,1,0,1.86,1.22,1.22,0,0,1-.38.6,1,1,0,0,1-.66.21,1,1,0,0,1-.81-.37A2.41,2.41,0,0,1,111.47,141.38Zm.45,0a2.25,2.25,0,0,0,.21,1.18.58.58,0,0,0,1,0,2.25,2.25,0,0,0,.21-1.18,2.2,2.2,0,0,0-.21-1.17.6.6,0,0,0-.51-.29.56.56,0,0,0-.48.26A2.24,2.24,0,0,0,111.92,141.38Z" transform="translate(1.43 -21.92)"/><path class="cls-3" d="M114.25,141.38a3.2,3.2,0,0,1,.13-1,1.28,1.28,0,0,1,.39-.59,1.14,1.14,0,0,1,1.15-.1.9.9,0,0,1,.36.34,1.73,1.73,0,0,1,.22.53,4.23,4.23,0,0,1,0,1.86,1.22,1.22,0,0,1-.38.6,1,1,0,0,1-.65.21,1,1,0,0,1-.82-.37A2.41,2.41,0,0,1,114.25,141.38Zm.45,0a2.25,2.25,0,0,0,.21,1.18.58.58,0,0,0,1,0,2.25,2.25,0,0,0,.21-1.18,2.2,2.2,0,0,0-.21-1.17.6.6,0,0,0-.51-.29.56.56,0,0,0-.48.26A2.24,2.24,0,0,0,114.7,141.38Z" transform="translate(1.43 -21.92)"/><path class="cls-3" d="M42.3,142.73v.42H39.94a.65.65,0,0,1,.05-.31,1.5,1.5,0,0,1,.29-.47,3.81,3.81,0,0,1,.57-.54,4.87,4.87,0,0,0,.79-.76.88.88,0,0,0,.2-.53.6.6,0,0,0-.18-.44.77.77,0,0,0-1,0,.74.74,0,0,0-.19.53l-.45,0a1.12,1.12,0,0,1,.35-.77,1.37,1.37,0,0,1,1.63,0,.94.94,0,0,1,.3.71,1.06,1.06,0,0,1-.09.42,1.75,1.75,0,0,1-.29.44,8.11,8.11,0,0,1-.68.63l-.51.45a1.25,1.25,0,0,0-.18.24Z" transform="translate(1.43 -21.92)"/><path class="cls-3" d="M42.8,141.38a3.52,3.52,0,0,1,.13-1,1.33,1.33,0,0,1,.39-.59,1.14,1.14,0,0,1,1.15-.1.9.9,0,0,1,.36.34,1.73,1.73,0,0,1,.23.53,3.72,3.72,0,0,1,.08.84,3.52,3.52,0,0,1-.13,1,1.31,1.31,0,0,1-.39.6,1,1,0,0,1-.65.21,1,1,0,0,1-.81-.37A2.33,2.33,0,0,1,42.8,141.38Zm.45,0a2.25,2.25,0,0,0,.21,1.18.59.59,0,0,0,1,0,2.27,2.27,0,0,0,.2-1.18,2.23,2.23,0,0,0-.2-1.17.63.63,0,0,0-.52-.29.56.56,0,0,0-.48.26A2.24,2.24,0,0,0,43.25,141.38Z" transform="translate(1.43 -21.92)"/><path class="cls-3" d="M45.55,141.38a3.52,3.52,0,0,1,.13-1,1.33,1.33,0,0,1,.39-.59,1,1,0,0,1,.65-.21,1.06,1.06,0,0,1,.51.11,1,1,0,0,1,.35.34,1.73,1.73,0,0,1,.23.53,3.72,3.72,0,0,1,.08.84,3.52,3.52,0,0,1-.13,1,1.31,1.31,0,0,1-.39.6,1,1,0,0,1-.65.21,1,1,0,0,1-.81-.37A2.33,2.33,0,0,1,45.55,141.38Zm.45,0a2.25,2.25,0,0,0,.21,1.18.59.59,0,0,0,1,0,2.25,2.25,0,0,0,.21-1.18,2.2,2.2,0,0,0-.21-1.17.62.62,0,0,0-.51-.29.57.57,0,0,0-.49.26A2.24,2.24,0,0,0,46,141.38Z" transform="translate(1.43 -21.92)"/><path class="cls-3" d="M48.36,141.38a3.52,3.52,0,0,1,.13-1,1.33,1.33,0,0,1,.39-.59,1,1,0,0,1,.65-.21.95.95,0,0,1,.87.45,2,2,0,0,1,.22.53,3.72,3.72,0,0,1,.08.84,3.52,3.52,0,0,1-.13,1,1.31,1.31,0,0,1-.39.6,1,1,0,0,1-.65.21,1,1,0,0,1-.81-.37A2.33,2.33,0,0,1,48.36,141.38Zm.46,0a2.27,2.27,0,0,0,.2,1.18.59.59,0,0,0,1,0,2.25,2.25,0,0,0,.21-1.18,2.2,2.2,0,0,0-.21-1.17.62.62,0,0,0-.51-.29.57.57,0,0,0-.49.26A2.26,2.26,0,0,0,48.82,141.38Z" transform="translate(1.43 -21.92)"/><path class="cls-3" d="M68.34,143.15v-.86H66.79v-.4l1.64-2.32h.35v2.32h.49v.4h-.49v.86Zm0-1.26v-1.61l-1.12,1.61Z" transform="translate(1.43 -21.92)"/><path class="cls-3" d="M69.75,141.38a3.2,3.2,0,0,1,.13-1,1.18,1.18,0,0,1,.39-.59,1,1,0,0,1,.64-.21,1,1,0,0,1,.51.11,1.06,1.06,0,0,1,.36.34,1.73,1.73,0,0,1,.22.53,3.72,3.72,0,0,1,.08.84,3.2,3.2,0,0,1-.13,1,1.23,1.23,0,0,1-.39.6,1.09,1.09,0,0,1-1.46-.16A2.34,2.34,0,0,1,69.75,141.38Zm.45,0a2.38,2.38,0,0,0,.2,1.18.62.62,0,0,0,.51.29.6.6,0,0,0,.51-.29,2.25,2.25,0,0,0,.21-1.18,2.2,2.2,0,0,0-.21-1.17.61.61,0,0,0-.51-.29.56.56,0,0,0-.48.26A2.15,2.15,0,0,0,70.2,141.38Z" transform="translate(1.43 -21.92)"/><path class="cls-3" d="M72.5,141.38a3.2,3.2,0,0,1,.13-1,1.25,1.25,0,0,1,.39-.59,1,1,0,0,1,.64-.21,1,1,0,0,1,.51.11,1,1,0,0,1,.36.34,1.73,1.73,0,0,1,.22.53,3.72,3.72,0,0,1,.08.84,3.2,3.2,0,0,1-.13,1,1.22,1.22,0,0,1-.38.6,1,1,0,0,1-.66.21,1,1,0,0,1-.81-.37A2.41,2.41,0,0,1,72.5,141.38Zm.45,0a2.25,2.25,0,0,0,.21,1.18.58.58,0,0,0,1,0,2.25,2.25,0,0,0,.21-1.18,2.2,2.2,0,0,0-.21-1.17.61.61,0,0,0-.51-.29.56.56,0,0,0-.48.26A2.24,2.24,0,0,0,73,141.38Z" transform="translate(1.43 -21.92)"/><path class="cls-3" d="M75.31,141.38a3.2,3.2,0,0,1,.13-1,1.33,1.33,0,0,1,.39-.59,1,1,0,0,1,.65-.21,1,1,0,0,1,.5.11.9.9,0,0,1,.36.34,1.73,1.73,0,0,1,.22.53,4.23,4.23,0,0,1,0,1.86,1.22,1.22,0,0,1-.38.6,1,1,0,0,1-.65.21,1,1,0,0,1-.82-.37A2.41,2.41,0,0,1,75.31,141.38Zm.45,0a2.25,2.25,0,0,0,.21,1.18.58.58,0,0,0,1,0,2.25,2.25,0,0,0,.21-1.18,2.2,2.2,0,0,0-.21-1.17.6.6,0,0,0-.51-.29.56.56,0,0,0-.48.26A2.24,2.24,0,0,0,75.76,141.38Z" transform="translate(1.43 -21.92)"/><path class="cls-3" d="M96.12,140.45l-.43,0a.8.8,0,0,0-.17-.37.56.56,0,0,0-.44-.19.67.67,0,0,0-.37.11,1.11,1.11,0,0,0-.32.45,2.41,2.41,0,0,0-.13.82,1,1,0,0,1,.39-.35,1,1,0,0,1,.48-.12,1,1,0,0,1,.75.32,1.16,1.16,0,0,1,.31.84,1.32,1.32,0,0,1-.15.62,1,1,0,0,1-.4.45,1.1,1.1,0,0,1-.57.15,1.12,1.12,0,0,1-.9-.4,2.07,2.07,0,0,1-.35-1.34,2.32,2.32,0,0,1,.39-1.5,1.08,1.08,0,0,1,.9-.41.94.94,0,0,1,1,.89ZM94.33,142a.91.91,0,0,0,.1.43.7.7,0,0,0,.63.43.62.62,0,0,0,.48-.23.9.9,0,0,0,.2-.61.83.83,0,0,0-.2-.58.66.66,0,0,0-.5-.21.67.67,0,0,0-.5.21A.76.76,0,0,0,94.33,142Z" transform="translate(1.43 -21.92)"/><path class="cls-3" d="M96.65,141.38a3.17,3.17,0,0,1,.14-1,1.19,1.19,0,0,1,.38-.59,1,1,0,0,1,.65-.21.95.95,0,0,1,.87.45,2,2,0,0,1,.22.53,3.72,3.72,0,0,1,.08.84,3.2,3.2,0,0,1-.13,1,1.31,1.31,0,0,1-.39.6,1,1,0,0,1-.65.21,1,1,0,0,1-.81-.37A2.33,2.33,0,0,1,96.65,141.38Zm.46,0a2.38,2.38,0,0,0,.2,1.18.59.59,0,0,0,1,0,2.25,2.25,0,0,0,.21-1.18,2.2,2.2,0,0,0-.21-1.17.62.62,0,0,0-.51-.29.58.58,0,0,0-.49.26A2.26,2.26,0,0,0,97.11,141.38Z" transform="translate(1.43 -21.92)"/><path class="cls-3" d="M99.41,141.38a3.2,3.2,0,0,1,.13-1,1.19,1.19,0,0,1,.38-.59,1,1,0,0,1,.65-.21.95.95,0,0,1,.87.45,1.73,1.73,0,0,1,.22.53,3.72,3.72,0,0,1,.08.84,3.2,3.2,0,0,1-.13,1,1.23,1.23,0,0,1-.39.6,1.09,1.09,0,0,1-1.46-.16A2.34,2.34,0,0,1,99.41,141.38Zm.45,0a2.38,2.38,0,0,0,.2,1.18.59.59,0,0,0,1,0,2.25,2.25,0,0,0,.21-1.18,2.2,2.2,0,0,0-.21-1.17.62.62,0,0,0-.51-.29.59.59,0,0,0-.49.26A2.26,2.26,0,0,0,99.86,141.38Z" transform="translate(1.43 -21.92)"/><path class="cls-3" d="M102.22,141.38a3.2,3.2,0,0,1,.13-1,1.14,1.14,0,0,1,.39-.59,1,1,0,0,1,.64-.21,1,1,0,0,1,.51.11,1.06,1.06,0,0,1,.36.34,1.73,1.73,0,0,1,.22.53,3.72,3.72,0,0,1,.08.84,3.2,3.2,0,0,1-.13,1,1.23,1.23,0,0,1-.39.6,1.09,1.09,0,0,1-1.46-.16A2.34,2.34,0,0,1,102.22,141.38Zm.45,0a2.38,2.38,0,0,0,.2,1.18.62.62,0,0,0,.51.29.61.61,0,0,0,.51-.29,2.25,2.25,0,0,0,.21-1.18,2.2,2.2,0,0,0-.21-1.17.62.62,0,0,0-.51-.29.56.56,0,0,0-.48.26A2.15,2.15,0,0,0,102.67,141.38Z" transform="translate(1.43 -21.92)"/><polyline class="cls-2" points="19.86 28.93 45.86 28.93 58.44 43.33 87.55 81.55 110.56 88.33"/><rect class="邱喟0.5pt-10" x="19.86" y="2.18" width="90.71" height="113.39"/></g><g id="English"><rect class="繝後Μ_逋ｽ" x="21.28" y="62.13" width="47.91" height="16.58"/><path class="cls-3" d="M22.35,88.92l.58-.06a1.32,1.32,0,0,0,.19.58,1,1,0,0,0,.47.36,1.81,1.81,0,0,0,.72.14,1.71,1.71,0,0,0,.62-.11.87.87,0,0,0,.4-.28.68.68,0,0,0,.13-.4.55.55,0,0,0-.13-.38.93.93,0,0,0-.42-.28c-.12,0-.4-.12-.82-.23a4.09,4.09,0,0,1-.9-.29,1.26,1.26,0,0,1-.5-.43,1,1,0,0,1-.16-.58,1.16,1.16,0,0,1,.2-.66,1.22,1.22,0,0,1,.58-.46,2.16,2.16,0,0,1,.86-.16,2.21,2.21,0,0,1,.91.17,1.35,1.35,0,0,1,.61.49,1.39,1.39,0,0,1,.22.73l-.59,0a.91.91,0,0,0-.32-.66,1.24,1.24,0,0,0-.81-.23,1.27,1.27,0,0,0-.81.21.61.61,0,0,0-.26.49.52.52,0,0,0,.18.41,2.39,2.39,0,0,0,.93.33,7.58,7.58,0,0,1,1,.3,1.41,1.41,0,0,1,.6.48,1.14,1.14,0,0,1,.19.66,1.3,1.3,0,0,1-.21.7,1.34,1.34,0,0,1-.61.51,2.13,2.13,0,0,1-.9.18,2.67,2.67,0,0,1-1-.18,1.55,1.55,0,0,1-.93-1.39Z" transform="translate(1.43 -21.92)"/><path class="cls-3" d="M26.82,90.41V85.76h.57v1.67a1.29,1.29,0,0,1,1-.47,1.33,1.33,0,0,1,.65.15.88.88,0,0,1,.4.41,1.83,1.83,0,0,1,.12.75v2.14H29V88.27a.9.9,0,0,0-.19-.62.68.68,0,0,0-.52-.19.91.91,0,0,0-.48.13.72.72,0,0,0-.32.35,1.76,1.76,0,0,0-.1.63v1.84Z" transform="translate(1.43 -21.92)"/><path class="cls-3" d="M30.22,88.73a1.73,1.73,0,0,1,.53-1.39A1.57,1.57,0,0,1,31.81,87a1.51,1.51,0,0,1,1.13.46,1.7,1.7,0,0,1,.44,1.26,2.24,2.24,0,0,1-.19,1,1.39,1.39,0,0,1-.57.58,1.63,1.63,0,0,1-.81.21A1.49,1.49,0,0,1,30.66,90,1.79,1.79,0,0,1,30.22,88.73Zm.59,0a1.5,1.5,0,0,0,.28,1,.93.93,0,0,0,.72.32.89.89,0,0,0,.7-.33,1.43,1.43,0,0,0,.29-1,1.38,1.38,0,0,0-.29-.95.88.88,0,0,0-.7-.32.9.9,0,0,0-.72.32A1.46,1.46,0,0,0,30.81,88.73Z" transform="translate(1.43 -21.92)"/><path class="cls-3" d="M34.05,90.41V87h.51v.51a1.31,1.31,0,0,1,.36-.47.63.63,0,0,1,.37-.12,1.17,1.17,0,0,1,.59.19l-.2.53a.86.86,0,0,0-.42-.13.5.5,0,0,0-.33.12.65.65,0,0,0-.22.31,2.36,2.36,0,0,0-.09.67v1.76Z" transform="translate(1.43 -21.92)"/><path class="cls-3" d="M37.46,89.9l.09.5a1.84,1.84,0,0,1-.43.06,1.09,1.09,0,0,1-.49-.1.6.6,0,0,1-.24-.26,2.27,2.27,0,0,1-.07-.68V87.48H35.9V87h.42v-.83l.57-.35V87h.57v.44h-.57v2a1,1,0,0,0,0,.31.21.21,0,0,0,.1.11.34.34,0,0,0,.19,0Z" transform="translate(1.43 -21.92)"/><path class="cls-3" d="M37.8,89v-.57h1.76V89Z" transform="translate(1.43 -21.92)"/><path class="cls-3" d="M42.37,90.41V90a1,1,0,0,1-.94.5,1.39,1.39,0,0,1-.74-.22,1.41,1.41,0,0,1-.52-.63,2,2,0,0,1-.19-.91,2.47,2.47,0,0,1,.17-.92,1.37,1.37,0,0,1,.5-.63,1.43,1.43,0,0,1,.76-.22,1.2,1.2,0,0,1,.54.13,1.17,1.17,0,0,1,.39.34V85.76h.56v4.65Zm-1.8-1.68a1.5,1.5,0,0,0,.27,1,.84.84,0,0,0,.65.32.82.82,0,0,0,.63-.31,1.38,1.38,0,0,0,.26-.93,1.66,1.66,0,0,0-.26-1,.81.81,0,0,0-.66-.32.79.79,0,0,0-.64.31A1.54,1.54,0,0,0,40.57,88.73Z" transform="translate(1.43 -21.92)"/><path class="cls-3" d="M46,90.41v-.49a1.23,1.23,0,0,1-1.07.57,1.34,1.34,0,0,1-.56-.12.88.88,0,0,1-.38-.28,1.3,1.3,0,0,1-.18-.43,3.33,3.33,0,0,1,0-.53V87h.57v1.87a2.63,2.63,0,0,0,0,.6.61.61,0,0,0,.22.36.76.76,0,0,0,.44.12.91.91,0,0,0,.48-.13.71.71,0,0,0,.32-.36,1.84,1.84,0,0,0,.09-.65V87h.57v3.37Z" transform="translate(1.43 -21.92)"/><path class="cls-3" d="M47.41,90.41V87h.52v.51a1.31,1.31,0,0,1,.36-.47.61.61,0,0,1,.37-.12,1.14,1.14,0,0,1,.58.19l-.19.53a.86.86,0,0,0-.42-.13.52.52,0,0,0-.34.12.58.58,0,0,0-.21.31,2,2,0,0,0-.1.67v1.76Z" transform="translate(1.43 -21.92)"/><path class="cls-3" d="M51.78,90a2,2,0,0,1-.61.39,1.9,1.9,0,0,1-.63.11,1.22,1.22,0,0,1-.85-.27.91.91,0,0,1-.3-.7,1,1,0,0,1,.11-.45.87.87,0,0,1,.3-.33,1.55,1.55,0,0,1,.41-.19,4.79,4.79,0,0,1,.5-.08,5,5,0,0,0,1-.2,1.14,1.14,0,0,0,0-.15.67.67,0,0,0-.16-.49,1.27,1.27,0,0,0-1.25,0,.83.83,0,0,0-.28.5L49.49,88a1.34,1.34,0,0,1,.25-.58,1.11,1.11,0,0,1,.5-.34A2.26,2.26,0,0,1,51,87a2,2,0,0,1,.7.11.92.92,0,0,1,.4.25.87.87,0,0,1,.17.39,3.08,3.08,0,0,1,0,.53V89a6.89,6.89,0,0,0,0,1,1.19,1.19,0,0,0,.14.4H51.9A1.29,1.29,0,0,1,51.78,90Zm-.05-1.27a3.81,3.81,0,0,1-.93.21,2.81,2.81,0,0,0-.5.12.45.45,0,0,0-.22.19.43.43,0,0,0-.08.27.5.5,0,0,0,.17.38.76.76,0,0,0,.51.15,1.21,1.21,0,0,0,.58-.14.86.86,0,0,0,.38-.4,1.41,1.41,0,0,0,.09-.57Z" transform="translate(1.43 -21.92)"/><path class="cls-3" d="M54.44,89.9l.09.5a1.84,1.84,0,0,1-.43.06,1.09,1.09,0,0,1-.49-.1.6.6,0,0,1-.24-.26,2.27,2.27,0,0,1-.07-.68V87.48h-.42V87h.42v-.83l.57-.35V87h.57v.44h-.57v2a1,1,0,0,0,0,.31.21.21,0,0,0,.1.11.34.34,0,0,0,.19,0Z" transform="translate(1.43 -21.92)"/><path class="cls-3" d="M55,86.41v-.65h.57v.65Zm0,4V87h.57v3.37Z" transform="translate(1.43 -21.92)"/><path class="cls-3" d="M56.23,88.73a1.76,1.76,0,0,1,.52-1.39A1.58,1.58,0,0,1,57.81,87a1.52,1.52,0,0,1,1.14.46,1.74,1.74,0,0,1,.44,1.26,2.24,2.24,0,0,1-.19,1,1.39,1.39,0,0,1-.57.58,1.64,1.64,0,0,1-.82.21A1.48,1.48,0,0,1,56.67,90,1.79,1.79,0,0,1,56.23,88.73Zm.59,0a1.5,1.5,0,0,0,.28,1,.93.93,0,0,0,.71.32.89.89,0,0,0,.71-.33,1.43,1.43,0,0,0,.29-1,1.38,1.38,0,0,0-.29-.95.88.88,0,0,0-.71-.32.9.9,0,0,0-.71.32A1.46,1.46,0,0,0,56.82,88.73Z" transform="translate(1.43 -21.92)"/><path class="cls-3" d="M60.06,90.41V87h.52v.48A1.2,1.2,0,0,1,61.65,87a1.47,1.47,0,0,1,.56.11.89.89,0,0,1,.38.29,1,1,0,0,1,.18.42,3.51,3.51,0,0,1,0,.56v2.07h-.57v-2a1.38,1.38,0,0,0-.07-.52.53.53,0,0,0-.23-.28.77.77,0,0,0-.4-.1.94.94,0,0,0-.63.23,1.14,1.14,0,0,0-.27.88v1.84Z" transform="translate(1.43 -21.92)"/><path class="cls-3" d="M22.48,98.21V94.84H23v.51a1.43,1.43,0,0,1,.37-.47.6.6,0,0,1,.36-.12,1.14,1.14,0,0,1,.59.19l-.19.53a.86.86,0,0,0-.42-.13.52.52,0,0,0-.34.12.58.58,0,0,0-.21.31,2,2,0,0,0-.1.67v1.76Z" transform="translate(1.43 -21.92)"/><path class="cls-3" d="M26.86,98.21v-.49a1.23,1.23,0,0,1-1.07.57,1.34,1.34,0,0,1-.56-.12.88.88,0,0,1-.38-.28,1.3,1.3,0,0,1-.18-.43,3.33,3.33,0,0,1,0-.53V94.84h.57v1.87a3.77,3.77,0,0,0,0,.6.68.68,0,0,0,.23.36.76.76,0,0,0,.44.12.91.91,0,0,0,.48-.13.71.71,0,0,0,.32-.36,1.84,1.84,0,0,0,.09-.65V94.84h.57v3.37Z" transform="translate(1.43 -21.92)"/><path class="cls-3" d="M28.27,98.21V94.84h.51v.48a1.22,1.22,0,0,1,1.07-.56,1.43,1.43,0,0,1,.56.11,1,1,0,0,1,.39.29,1.13,1.13,0,0,1,.17.42,3.21,3.21,0,0,1,0,.56v2.07h-.58v-2a1.67,1.67,0,0,0-.06-.52.6.6,0,0,0-.24-.28.72.72,0,0,0-.4-.1,1,1,0,0,0-.63.23,1.18,1.18,0,0,0-.26.88v1.84Z" transform="translate(1.43 -21.92)"/><path class="cls-3" d="M31.88,98.21V94.84h.52v.48a1.2,1.2,0,0,1,1.07-.56,1.47,1.47,0,0,1,.56.11.89.89,0,0,1,.38.29,1,1,0,0,1,.18.42,3.51,3.51,0,0,1,0,.56v2.07h-.57v-2a1.38,1.38,0,0,0-.07-.52.53.53,0,0,0-.23-.28.77.77,0,0,0-.4-.1.92.92,0,0,0-.63.23,1.14,1.14,0,0,0-.27.88v1.84Z" transform="translate(1.43 -21.92)"/><path class="cls-3" d="M35.5,94.21v-.65h.57v.65Zm0,4V94.84h.57v3.37Z" transform="translate(1.43 -21.92)"/><path class="cls-3" d="M36.94,98.21V94.84h.51v.48a1.23,1.23,0,0,1,1.08-.56,1.47,1.47,0,0,1,.56.11.89.89,0,0,1,.38.29,1.33,1.33,0,0,1,.18.42,3.51,3.51,0,0,1,0,.56v2.07h-.57v-2a1.38,1.38,0,0,0-.07-.52.5.5,0,0,0-.24-.28.71.71,0,0,0-.39-.1.92.92,0,0,0-.63.23,1.14,1.14,0,0,0-.27.88v1.84Z" transform="translate(1.43 -21.92)"/><path class="cls-3" d="M40.45,98.49l.56.08a.52.52,0,0,0,.19.38,1,1,0,0,0,.58.16,1,1,0,0,0,.61-.16.84.84,0,0,0,.3-.45,4.85,4.85,0,0,0,0-.73,1.19,1.19,0,0,1-.94.44,1.27,1.27,0,0,1-1.07-.5,1.91,1.91,0,0,1-.38-1.2,2.17,2.17,0,0,1,.17-.89,1.37,1.37,0,0,1,1.29-.86,1.2,1.2,0,0,1,1,.49v-.41h.53v2.91a2.9,2.9,0,0,1-.16,1.12,1.22,1.22,0,0,1-.51.52,1.74,1.74,0,0,1-.86.19,1.61,1.61,0,0,1-1-.27A.92.92,0,0,1,40.45,98.49Zm.47-2a1.41,1.41,0,0,0,.27,1,.81.81,0,0,0,.66.31.85.85,0,0,0,.66-.3,1.43,1.43,0,0,0,.26-1,1.39,1.39,0,0,0-.27-.93.83.83,0,0,0-.66-.31.81.81,0,0,0-.65.31A1.35,1.35,0,0,0,40.92,96.47Z" transform="translate(1.43 -21.92)"/><path class="cls-3" d="M46,98.21V94.84h.51v.51a1.43,1.43,0,0,1,.37-.47.6.6,0,0,1,.36-.12,1.14,1.14,0,0,1,.59.19l-.2.53a.82.82,0,0,0-.41-.13.52.52,0,0,0-.34.12.58.58,0,0,0-.21.31,2,2,0,0,0-.1.67v1.76Z" transform="translate(1.43 -21.92)"/><path class="cls-3" d="M50.34,97.79a2,2,0,0,1-.61.39,1.9,1.9,0,0,1-.63.11,1.2,1.2,0,0,1-.85-.27.91.91,0,0,1-.3-.7.88.88,0,0,1,.11-.45.94.94,0,0,1,.29-.33,1.79,1.79,0,0,1,.42-.19,4.79,4.79,0,0,1,.5-.08,5,5,0,0,0,1-.2c0-.08,0-.13,0-.15a.63.63,0,0,0-.17-.49.94.94,0,0,0-.65-.19,1,1,0,0,0-.59.14.89.89,0,0,0-.29.5l-.55-.08a1.34,1.34,0,0,1,.25-.58,1.11,1.11,0,0,1,.5-.34,2.26,2.26,0,0,1,.77-.12,2,2,0,0,1,.7.11.82.82,0,0,1,.39.25.79.79,0,0,1,.18.39,3.08,3.08,0,0,1,0,.53v.76a6.89,6.89,0,0,0,0,1,1.19,1.19,0,0,0,.14.4h-.6A1.61,1.61,0,0,1,50.34,97.79Zm-.05-1.27a3.93,3.93,0,0,1-.93.21,2.6,2.6,0,0,0-.5.12.41.41,0,0,0-.22.19.43.43,0,0,0-.08.27.47.47,0,0,0,.17.38.74.74,0,0,0,.51.15,1.21,1.21,0,0,0,.58-.14.92.92,0,0,0,.38-.4,1.41,1.41,0,0,0,.09-.57Z" transform="translate(1.43 -21.92)"/><path class="cls-3" d="M51.76,98.21V94.84h.51v.48a1.22,1.22,0,0,1,1.07-.56,1.43,1.43,0,0,1,.56.11,1,1,0,0,1,.39.29,1.13,1.13,0,0,1,.17.42,3.51,3.51,0,0,1,0,.56v2.07h-.57v-2a1.67,1.67,0,0,0-.06-.52.6.6,0,0,0-.24-.28.74.74,0,0,0-.4-.1,1,1,0,0,0-.63.23,1.18,1.18,0,0,0-.26.88v1.84Z" transform="translate(1.43 -21.92)"/><path class="cls-3" d="M55.27,98.49l.55.08A.56.56,0,0,0,56,99a1,1,0,0,0,.58.16,1.08,1.08,0,0,0,.61-.16.82.82,0,0,0,.29-.45,3.76,3.76,0,0,0,0-.73,1.18,1.18,0,0,1-.93.44,1.3,1.3,0,0,1-1.08-.5,2,2,0,0,1-.38-1.2,2.18,2.18,0,0,1,.18-.89,1.28,1.28,0,0,1,.5-.63,1.35,1.35,0,0,1,.78-.23,1.2,1.2,0,0,1,1,.49v-.41h.52v2.91A2.72,2.72,0,0,1,58,98.87a1.11,1.11,0,0,1-.51.52,1.7,1.7,0,0,1-.85.19,1.65,1.65,0,0,1-1-.27A.94.94,0,0,1,55.27,98.49Zm.47-2a1.47,1.47,0,0,0,.26,1,.87.87,0,0,0,1.32,0,1.43,1.43,0,0,0,.27-1,1.39,1.39,0,0,0-.27-.93.87.87,0,0,0-.67-.31.79.79,0,0,0-.64.31A1.35,1.35,0,0,0,55.74,96.47Z" transform="translate(1.43 -21.92)"/><path class="cls-3" d="M61.29,97.13l.59.07a1.43,1.43,0,0,1-.51.8,1.6,1.6,0,0,1-1,.29,1.52,1.52,0,0,1-1.17-.46,1.77,1.77,0,0,1-.43-1.28,1.89,1.89,0,0,1,.43-1.32,1.51,1.51,0,0,1,1.14-.47,1.45,1.45,0,0,1,1.1.46,1.82,1.82,0,0,1,.43,1.3v.15H59.39a1.26,1.26,0,0,0,.31.85.92.92,0,0,0,.7.3.89.89,0,0,0,.54-.17A1,1,0,0,0,61.29,97.13Zm-1.87-.93H61.3a1.21,1.21,0,0,0-.22-.64.86.86,0,0,0-.7-.33.9.9,0,0,0-.67.27A1.07,1.07,0,0,0,59.42,96.2Z" transform="translate(1.43 -21.92)"/><path class="cls-3" d="M3.22,98.27H-.88V99.8h-.55V96.11h.55v1.54h4.1Z" transform="translate(1.43 -21.92)"/><path class="cls-3" d="M1.54,95.77a1.73,1.73,0,0,1-1.39-.52,1.58,1.58,0,0,1-.37-1.06,1.53,1.53,0,0,1,.45-1.14,1.77,1.77,0,0,1,1.26-.44,2.2,2.2,0,0,1,1,.2,1.36,1.36,0,0,1,.58.56,1.64,1.64,0,0,1,.21.82,1.51,1.51,0,0,1-.45,1.14A1.84,1.84,0,0,1,1.54,95.77Zm0-.59a1.44,1.44,0,0,0,1-.28.93.93,0,0,0,.32-.71.91.91,0,0,0-.32-.71,1.48,1.48,0,0,0-1-.28,1.4,1.4,0,0,0-.95.28.95.95,0,0,0,0,1.42A1.42,1.42,0,0,0,1.54,95.18Z" transform="translate(1.43 -21.92)"/><path class="cls-3" d="M3.22,92H-.15v-.52H.36a1.41,1.41,0,0,1-.47-.36.6.6,0,0,1-.11-.37A1.09,1.09,0,0,1,0,90.12l.53.19a.84.84,0,0,0-.12.42.51.51,0,0,0,.11.34.58.58,0,0,0,.31.21,2.41,2.41,0,0,0,.67.1H3.22Z" transform="translate(1.43 -21.92)"/><path class="cls-3" d="M4.51,87.63H2.86a1.06,1.06,0,0,1,.32.37,1.13,1.13,0,0,1,.12.51,1.34,1.34,0,0,1-.48,1A1.89,1.89,0,0,1,1.51,90,2.17,2.17,0,0,1,.6,89.8,1.37,1.37,0,0,1,0,89.29a1.44,1.44,0,0,1-.2-.74,1.13,1.13,0,0,1,.52-1H-.15v-.51H4.51Zm-3,1.76a1.48,1.48,0,0,0,1-.27.84.84,0,0,0,.33-.66.8.8,0,0,0-.31-.63,1.46,1.46,0,0,0-.94-.26,1.52,1.52,0,0,0-1,.28.8.8,0,0,0-.34.65.78.78,0,0,0,.31.63A1.56,1.56,0,0,0,1.53,89.39Z" transform="translate(1.43 -21.92)"/><path class="cls-3" d="M3.22,84H2.73A1.23,1.23,0,0,1,3.3,85a1.47,1.47,0,0,1-.11.56A1,1,0,0,1,2.9,86a1,1,0,0,1-.43.18,3.33,3.33,0,0,1-.53,0H-.15V85.6H1.72a4,4,0,0,0,.61,0,.6.6,0,0,0,.35-.23.75.75,0,0,0,.13-.43,1,1,0,0,0-.13-.48.7.7,0,0,0-.36-.32,1.63,1.63,0,0,0-.66-.1H-.15v-.57H3.22Z" transform="translate(1.43 -21.92)"/><path class="cls-3" d="M2.14,80.24l.07-.59a1.36,1.36,0,0,1,.8.52,1.54,1.54,0,0,1,.29,1,1.52,1.52,0,0,1-.46,1.17,1.77,1.77,0,0,1-1.27.44A1.86,1.86,0,0,1,.25,82.3a1.46,1.46,0,0,1-.47-1.14,1.41,1.41,0,0,1,.46-1.1,1.78,1.78,0,0,1,1.29-.43h.15v2.52a1.27,1.27,0,0,0,.85-.32.92.92,0,0,0,.3-.7.89.89,0,0,0-.17-.54A1.09,1.09,0,0,0,2.14,80.24Zm-.93,1.87V80.23a1.14,1.14,0,0,0-.63.22.88.88,0,0,0-.33.71.89.89,0,0,0,.26.66A1,1,0,0,0,1.21,82.11Z" transform="translate(1.43 -21.92)"/><path class="cls-3" d="M4.51,77.11H-1.43V75.85H-1v.69H4v-.69h.47Z" transform="translate(1.43 -21.92)"/><path class="cls-3" d="M3.22,75.25H-1.43v-.63l3.65-2.44H-1.43v-.59H3.22v.63L-.43,74.66H3.22Z" transform="translate(1.43 -21.92)"/><path class="cls-3" d="M.94,70.71a.74.74,0,0,1-.56-.24.76.76,0,0,1-.24-.57.74.74,0,0,1,.24-.56.74.74,0,0,1,.56-.24.75.75,0,0,1,.57.24.74.74,0,0,1,.24.56.76.76,0,0,1-.24.57A.75.75,0,0,1,.94,70.71Z" transform="translate(1.43 -21.92)"/><path class="cls-3" d="M3.22,68.35H-.15v-.51H.33a1.24,1.24,0,0,1-.4-.42,1.21,1.21,0,0,1-.15-.6,1.16,1.16,0,0,1,.15-.62.88.88,0,0,1,.44-.34,1.18,1.18,0,0,1-.59-1,1,1,0,0,1,.27-.77,1.2,1.2,0,0,1,.86-.27H3.22v.57H1.1a1.42,1.42,0,0,0-.49.06.48.48,0,0,0-.25.2A.62.62,0,0,0,.27,65a.79.79,0,0,0,.24.59,1,1,0,0,0,.75.24h2v.57H1a.92.92,0,0,0-.57.14.53.53,0,0,0-.19.45.81.81,0,0,0,.13.45.74.74,0,0,0,.37.3,2.12,2.12,0,0,0,.7.09H3.22Z" transform="translate(1.43 -21.92)"/><path class="cls-3" d="M4.51,62v1.26H4v-.69H-1v.69h-.47V62Z" transform="translate(1.43 -21.92)"/><rect class="繝後Μ_逋ｽ" x="22.02" y="94.79" width="41.46" height="16.58"/><path class="cls-3" d="M26,121.44l.62.16a2.16,2.16,0,0,1-.7,1.16,2,2,0,0,1-1.23.39,2.23,2.23,0,0,1-1.22-.3,1.88,1.88,0,0,1-.72-.89,3.07,3.07,0,0,1-.25-1.25,2.66,2.66,0,0,1,.28-1.26,1.87,1.87,0,0,1,.79-.83,2.39,2.39,0,0,1,1.13-.28,1.87,1.87,0,0,1,1.17.36,1.84,1.84,0,0,1,.67,1l-.61.14a1.44,1.44,0,0,0-.47-.74,1.26,1.26,0,0,0-.77-.23,1.52,1.52,0,0,0-.9.26,1.37,1.37,0,0,0-.51.69,3,3,0,0,0-.14.89,2.77,2.77,0,0,0,.17,1,1.32,1.32,0,0,0,.54.66,1.54,1.54,0,0,0,.79.22,1.31,1.31,0,0,0,.87-.3A1.49,1.49,0,0,0,26,121.44Z" transform="translate(1.43 -21.92)"/><path class="cls-3" d="M27.07,121.39a1.74,1.74,0,0,1,.52-1.39,1.69,1.69,0,0,1,2.2.08,1.77,1.77,0,0,1,.44,1.26,2.24,2.24,0,0,1-.2,1,1.36,1.36,0,0,1-.57.57,1.63,1.63,0,0,1-.81.21,1.51,1.51,0,0,1-1.14-.45A1.79,1.79,0,0,1,27.07,121.39Zm.59,0a1.44,1.44,0,0,0,.28,1,.91.91,0,0,0,.71.32.93.93,0,0,0,.71-.32,1.48,1.48,0,0,0,.28-1,1.4,1.4,0,0,0-.29-1,.89.89,0,0,0-.7-.32.91.91,0,0,0-.71.32A1.44,1.44,0,0,0,27.66,121.39Z" transform="translate(1.43 -21.92)"/><path class="cls-3" d="M30.9,123.07V119.7h.51v.48a1.21,1.21,0,0,1,1.07-.55,1.27,1.27,0,0,1,.56.11,1,1,0,0,1,.39.28,1.11,1.11,0,0,1,.17.43,3.37,3.37,0,0,1,0,.55v2.07h-.57v-2a1.72,1.72,0,0,0-.06-.52.62.62,0,0,0-.24-.27.75.75,0,0,0-.4-.11,1,1,0,0,0-.63.23,1.18,1.18,0,0,0-.26.88v1.84Z" transform="translate(1.43 -21.92)"/><path class="cls-3" d="M35.76,122.56l.08.51a2.37,2.37,0,0,1-.43.05.9.9,0,0,1-.48-.1.47.47,0,0,1-.24-.26,1.9,1.9,0,0,1-.07-.67v-1.94H34.2v-.45h.42v-.83l.56-.34v1.17h.58v.45h-.58v2a1,1,0,0,0,0,.31.22.22,0,0,0,.1.11.37.37,0,0,0,.2,0Z" transform="translate(1.43 -21.92)"/><path class="cls-3" d="M36.32,119.08v-.66h.57v.66Zm0,4V119.7h.57v3.37Z" transform="translate(1.43 -21.92)"/><path class="cls-3" d="M37.76,123.07V119.7h.52v.48a1.19,1.19,0,0,1,1.07-.55,1.3,1.3,0,0,1,.56.11.88.88,0,0,1,.38.28,1.3,1.3,0,0,1,.18.43,3.37,3.37,0,0,1,0,.55v2.07h-.57v-2a1.41,1.41,0,0,0-.07-.52.54.54,0,0,0-.23-.27.77.77,0,0,0-.4-.11.92.92,0,0,0-.63.23,1.14,1.14,0,0,0-.27.88v1.84Z" transform="translate(1.43 -21.92)"/><path class="cls-3" d="M43.58,123.07v-.49a1.22,1.22,0,0,1-1.06.57A1.47,1.47,0,0,1,42,123a1.1,1.1,0,0,1-.39-.29,1.13,1.13,0,0,1-.17-.42,2.4,2.4,0,0,1,0-.54V119.7h.57v1.87a3.65,3.65,0,0,0,0,.61.57.57,0,0,0,.23.35.67.67,0,0,0,.43.13.91.91,0,0,0,.48-.13.74.74,0,0,0,.32-.36,1.86,1.86,0,0,0,.09-.66V119.7h.58v3.37Z" transform="translate(1.43 -21.92)"/><path class="cls-3" d="M44.78,121.39A1.74,1.74,0,0,1,45.3,120a1.69,1.69,0,0,1,2.2.08,1.77,1.77,0,0,1,.44,1.26,2.24,2.24,0,0,1-.2,1,1.36,1.36,0,0,1-.57.57,1.63,1.63,0,0,1-.81.21,1.51,1.51,0,0,1-1.14-.45A1.79,1.79,0,0,1,44.78,121.39Zm.59,0a1.44,1.44,0,0,0,.28,1,.91.91,0,0,0,.71.32.93.93,0,0,0,.71-.32,1.48,1.48,0,0,0,.28-1,1.4,1.4,0,0,0-.29-1,.89.89,0,0,0-.7-.32.91.91,0,0,0-.71.32A1.44,1.44,0,0,0,45.37,121.39Z" transform="translate(1.43 -21.92)"/><path class="cls-3" d="M50.81,123.07v-.49a1.22,1.22,0,0,1-1.06.57,1.47,1.47,0,0,1-.56-.11,1.1,1.1,0,0,1-.39-.29,1.13,1.13,0,0,1-.17-.42,2.4,2.4,0,0,1,0-.54V119.7h.57v1.87a3.65,3.65,0,0,0,0,.61.57.57,0,0,0,.23.35.67.67,0,0,0,.43.13.91.91,0,0,0,.48-.13.74.74,0,0,0,.32-.36,1.86,1.86,0,0,0,.09-.66V119.7h.58v3.37Z" transform="translate(1.43 -21.92)"/><path class="cls-3" d="M52,122.07l.57-.09a.79.79,0,0,0,.26.52.94.94,0,0,0,.61.18.86.86,0,0,0,.58-.16.47.47,0,0,0,.19-.38.34.34,0,0,0-.16-.3,2.32,2.32,0,0,0-.59-.19,5.22,5.22,0,0,1-.87-.28.89.89,0,0,1-.37-.32.92.92,0,0,1,0-.87,1,1,0,0,1,.28-.32,1.21,1.21,0,0,1,.36-.16,1.63,1.63,0,0,1,.5-.07,2.19,2.19,0,0,1,.7.11,1.06,1.06,0,0,1,.44.31,1.23,1.23,0,0,1,.19.52l-.55.08a.66.66,0,0,0-.22-.41.89.89,0,0,0-.52-.14.91.91,0,0,0-.56.13.38.38,0,0,0-.17.3.29.29,0,0,0,.07.2.53.53,0,0,0,.22.15c.06,0,.22.07.5.15a6.75,6.75,0,0,1,.85.27.8.8,0,0,1,.38.3.82.82,0,0,1,.13.48.91.91,0,0,1-.17.54,1,1,0,0,1-.48.39,1.94,1.94,0,0,1-1.71-.13A1.29,1.29,0,0,1,52,122.07Z" transform="translate(1.43 -21.92)"/><path class="cls-3" d="M22.58,130.87V127.5h.51V128a1.62,1.62,0,0,1,.37-.48.66.66,0,0,1,.36-.11,1.12,1.12,0,0,1,.59.18l-.19.53a.84.84,0,0,0-.42-.12.58.58,0,0,0-.34.11.62.62,0,0,0-.21.31,2.09,2.09,0,0,0-.1.67v1.76Z" transform="translate(1.43 -21.92)"/><path class="cls-3" d="M27,130.87v-.49a1.23,1.23,0,0,1-1.07.57,1.51,1.51,0,0,1-.56-.11,1,1,0,0,1-.38-.29,1.33,1.33,0,0,1-.18-.42,3.48,3.48,0,0,1,0-.54V127.5h.57v1.87a4,4,0,0,0,0,.61.62.62,0,0,0,.23.35.7.7,0,0,0,.44.13.91.91,0,0,0,.48-.13.79.79,0,0,0,.32-.36,1.86,1.86,0,0,0,.09-.66V127.5h.57v3.37Z" transform="translate(1.43 -21.92)"/><path class="cls-3" d="M28.37,130.87V127.5h.51V128a1.21,1.21,0,0,1,1.07-.55,1.27,1.27,0,0,1,.56.11,1,1,0,0,1,.39.28,1.11,1.11,0,0,1,.17.43,3.07,3.07,0,0,1,0,.55v2.07h-.58v-2.05a1.72,1.72,0,0,0-.06-.52.62.62,0,0,0-.24-.27.72.72,0,0,0-.4-.11,1,1,0,0,0-.63.23,1.18,1.18,0,0,0-.26.88v1.84Z" transform="translate(1.43 -21.92)"/><path class="cls-3" d="M32,130.87V127.5h.52V128a1.19,1.19,0,0,1,1.07-.55,1.3,1.3,0,0,1,.56.11.88.88,0,0,1,.38.28,1,1,0,0,1,.18.43,3.37,3.37,0,0,1,0,.55v2.07h-.57v-2.05a1.41,1.41,0,0,0-.07-.52.54.54,0,0,0-.23-.27.77.77,0,0,0-.4-.11.92.92,0,0,0-.63.23,1.14,1.14,0,0,0-.27.88v1.84Z" transform="translate(1.43 -21.92)"/><path class="cls-3" d="M35.6,126.88v-.66h.57v.66Zm0,4V127.5h.57v3.37Z" transform="translate(1.43 -21.92)"/><path class="cls-3" d="M37,130.87V127.5h.51V128a1.22,1.22,0,0,1,1.08-.55,1.3,1.3,0,0,1,.56.11.88.88,0,0,1,.38.28,1.3,1.3,0,0,1,.18.43,3.37,3.37,0,0,1,0,.55v2.07h-.57v-2.05a1.41,1.41,0,0,0-.07-.52.52.52,0,0,0-.24-.27.71.71,0,0,0-.39-.11.92.92,0,0,0-.63.23,1.14,1.14,0,0,0-.27.88v1.84Z" transform="translate(1.43 -21.92)"/><path class="cls-3" d="M40.55,131.15l.56.09a.5.5,0,0,0,.19.37.91.91,0,0,0,.58.16,1,1,0,0,0,.61-.16.78.78,0,0,0,.3-.44,5,5,0,0,0,0-.74,1.16,1.16,0,0,1-.94.44,1.24,1.24,0,0,1-1.07-.5,1.87,1.87,0,0,1-.38-1.2,2.17,2.17,0,0,1,.17-.89,1.46,1.46,0,0,1,.51-.63,1.35,1.35,0,0,1,.78-.22,1.22,1.22,0,0,1,1,.48v-.41h.53v2.92a2.88,2.88,0,0,1-.16,1.11,1.16,1.16,0,0,1-.51.52,1.74,1.74,0,0,1-.86.19,1.61,1.61,0,0,1-1-.27A.91.91,0,0,1,40.55,131.15Zm.47-2a1.46,1.46,0,0,0,.27,1,.83.83,0,0,0,.66.3.85.85,0,0,0,.66-.3,1.4,1.4,0,0,0,.26-.95,1.38,1.38,0,0,0-.27-.93.84.84,0,0,0-.66-.32.81.81,0,0,0-.65.31A1.37,1.37,0,0,0,41,129.13Z" transform="translate(1.43 -21.92)"/><path class="cls-3" d="M46.07,130.87V127.5h.51V128a1.62,1.62,0,0,1,.37-.48.66.66,0,0,1,.36-.11,1.12,1.12,0,0,1,.59.18l-.2.53a.81.81,0,0,0-.41-.12.58.58,0,0,0-.34.11.62.62,0,0,0-.21.31,2.09,2.09,0,0,0-.1.67v1.76Z" transform="translate(1.43 -21.92)"/><path class="cls-3" d="M50.44,130.46a2,2,0,0,1-.61.38,1.9,1.9,0,0,1-.63.11,1.2,1.2,0,0,1-.85-.27,1,1,0,0,1-.19-1.15,1,1,0,0,1,.29-.32,1.23,1.23,0,0,1,.42-.19,4.31,4.31,0,0,1,.5-.09,5.17,5.17,0,0,0,1-.19c0-.08,0-.13,0-.15a.64.64,0,0,0-.17-.5,1,1,0,0,0-.65-.19A1,1,0,0,0,49,128a.92.92,0,0,0-.29.5l-.55-.07a1.29,1.29,0,0,1,.25-.58,1,1,0,0,1,.5-.34,2.26,2.26,0,0,1,.77-.12,2,2,0,0,1,.7.1.91.91,0,0,1,.39.25.88.88,0,0,1,.18.39,3.16,3.16,0,0,1,0,.53v.76a6.89,6.89,0,0,0,0,1,1.12,1.12,0,0,0,.14.4h-.6A1.43,1.43,0,0,1,50.44,130.46Zm0-1.28a3.85,3.85,0,0,1-.93.22,2.12,2.12,0,0,0-.5.11.52.52,0,0,0-.22.19.43.43,0,0,0-.08.27.47.47,0,0,0,.17.38.74.74,0,0,0,.51.15,1.11,1.11,0,0,0,.58-.14.92.92,0,0,0,.38-.4,1.38,1.38,0,0,0,.09-.57Z" transform="translate(1.43 -21.92)"/><path class="cls-3" d="M51.86,130.87V127.5h.51V128a1.21,1.21,0,0,1,1.07-.55,1.27,1.27,0,0,1,.56.11,1,1,0,0,1,.39.28,1.11,1.11,0,0,1,.17.43,3.37,3.37,0,0,1,0,.55v2.07H54v-2.05a1.72,1.72,0,0,0-.06-.52.62.62,0,0,0-.24-.27.75.75,0,0,0-.4-.11,1,1,0,0,0-.63.23,1.18,1.18,0,0,0-.26.88v1.84Z" transform="translate(1.43 -21.92)"/><path class="cls-3" d="M55.37,131.15l.55.09a.54.54,0,0,0,.2.37.91.91,0,0,0,.58.16,1,1,0,0,0,.61-.16.76.76,0,0,0,.29-.44,3.89,3.89,0,0,0,0-.74,1.15,1.15,0,0,1-.93.44,1.28,1.28,0,0,1-1.08-.5,1.93,1.93,0,0,1-.38-1.2,2.18,2.18,0,0,1,.18-.89,1.37,1.37,0,0,1,.5-.63,1.35,1.35,0,0,1,.78-.22,1.22,1.22,0,0,1,1,.48v-.41h.52v2.92a2.7,2.7,0,0,1-.16,1.11,1.07,1.07,0,0,1-.51.52,1.7,1.7,0,0,1-.85.19,1.65,1.65,0,0,1-1-.27A.92.92,0,0,1,55.37,131.15Zm.47-2a1.52,1.52,0,0,0,.26,1,.85.85,0,0,0,.66.3.84.84,0,0,0,.66-.3,1.4,1.4,0,0,0,.27-.95,1.38,1.38,0,0,0-.27-.93.88.88,0,0,0-.67-.32.79.79,0,0,0-.64.31A1.37,1.37,0,0,0,55.84,129.13Z" transform="translate(1.43 -21.92)"/><path class="cls-3" d="M61.39,129.79l.59.07a1.46,1.46,0,0,1-.51.81,1.59,1.59,0,0,1-1,.28,1.55,1.55,0,0,1-1.17-.45,1.79,1.79,0,0,1-.43-1.28,1.86,1.86,0,0,1,.43-1.32,1.47,1.47,0,0,1,1.14-.47,1.41,1.41,0,0,1,1.1.46,1.8,1.8,0,0,1,.43,1.29v.16H59.49a1.28,1.28,0,0,0,.31.85,1,1,0,0,0,.7.29.89.89,0,0,0,.54-.16A1.05,1.05,0,0,0,61.39,129.79Zm-1.87-.92H61.4a1.15,1.15,0,0,0-.22-.64.86.86,0,0,0-.7-.33.94.94,0,0,0-.67.26A1.1,1.1,0,0,0,59.52,128.87Z" transform="translate(1.43 -21.92)"/><path class="cls-3" d="M44.76,150.56l.58-.06a1.32,1.32,0,0,0,.19.58,1,1,0,0,0,.47.36,1.8,1.8,0,0,0,.71.14,1.73,1.73,0,0,0,.63-.11.87.87,0,0,0,.4-.28.68.68,0,0,0,.13-.4.55.55,0,0,0-.13-.38.86.86,0,0,0-.42-.28c-.12,0-.4-.12-.83-.23a4.15,4.15,0,0,1-.89-.29,1.19,1.19,0,0,1-.5-.43,1.06,1.06,0,0,1-.16-.58,1.16,1.16,0,0,1,.2-.66,1.18,1.18,0,0,1,.58-.46,2.15,2.15,0,0,1,.85-.16,2.22,2.22,0,0,1,.92.17,1.27,1.27,0,0,1,.6.49,1.32,1.32,0,0,1,.23.73l-.59,0a1,1,0,0,0-.32-.66,1.24,1.24,0,0,0-.81-.23,1.27,1.27,0,0,0-.81.21.61.61,0,0,0-.26.49.52.52,0,0,0,.18.41,2.39,2.39,0,0,0,.93.33,7.58,7.58,0,0,1,1,.3,1.41,1.41,0,0,1,.6.48,1.14,1.14,0,0,1,.19.66,1.3,1.3,0,0,1-.21.7,1.4,1.4,0,0,1-.61.51,2.19,2.19,0,0,1-.9.18,2.76,2.76,0,0,1-1.06-.18,1.59,1.59,0,0,1-.67-.56A1.56,1.56,0,0,1,44.76,150.56Z" transform="translate(1.43 -21.92)"/><path class="cls-3" d="M49.23,153.34v-4.66h.52v.44a1.29,1.29,0,0,1,.42-.39,1.19,1.19,0,0,1,.56-.13,1.31,1.31,0,0,1,.76.23,1.29,1.29,0,0,1,.5.62,2.35,2.35,0,0,1,.17.89,2.15,2.15,0,0,1-.19.93,1.36,1.36,0,0,1-.54.64,1.42,1.42,0,0,1-.74.22,1.14,1.14,0,0,1-.52-.12,1.25,1.25,0,0,1-.37-.31v1.64Zm.52-3a1.52,1.52,0,0,0,.26,1,.84.84,0,0,0,.64.31.82.82,0,0,0,.65-.33,1.5,1.5,0,0,0,.27-1,1.56,1.56,0,0,0-.26-1,.79.79,0,0,0-1.28,0A1.52,1.52,0,0,0,49.75,150.38Z" transform="translate(1.43 -21.92)"/><path class="cls-3" d="M55.15,151l.59.07a1.43,1.43,0,0,1-.51.8,1.6,1.6,0,0,1-1,.29,1.56,1.56,0,0,1-1.17-.46,1.77,1.77,0,0,1-.43-1.28,1.89,1.89,0,0,1,.43-1.32,1.51,1.51,0,0,1,1.14-.47,1.45,1.45,0,0,1,1.1.46,1.82,1.82,0,0,1,.43,1.3v.15H53.25a1.28,1.28,0,0,0,.31.85.92.92,0,0,0,.7.3.89.89,0,0,0,.54-.17A1,1,0,0,0,55.15,151ZM53.28,150h1.88a1.21,1.21,0,0,0-.22-.64.86.86,0,0,0-.7-.33.9.9,0,0,0-.67.27A1.07,1.07,0,0,0,53.28,150Z" transform="translate(1.43 -21.92)"/><path class="cls-3" d="M58.77,151l.59.07a1.44,1.44,0,0,1-.52.8,1.54,1.54,0,0,1-1,.29,1.57,1.57,0,0,1-1.18-.46,1.77,1.77,0,0,1-.43-1.28,1.9,1.9,0,0,1,.44-1.32,1.49,1.49,0,0,1,1.13-.47,1.47,1.47,0,0,1,1.11.46,1.87,1.87,0,0,1,.43,1.3,1,1,0,0,1,0,.15H56.86a1.34,1.34,0,0,0,.31.85.94.94,0,0,0,.71.3.89.89,0,0,0,.54-.17A1.16,1.16,0,0,0,58.77,151ZM56.89,150h1.88a1.13,1.13,0,0,0-.21-.64.88.88,0,0,0-.71-.33.9.9,0,0,0-.66.27A1,1,0,0,0,56.89,150Z" transform="translate(1.43 -21.92)"/><path class="cls-3" d="M62.26,152.05v-.42a1.05,1.05,0,0,1-.94.5,1.3,1.3,0,0,1-.74-.23,1.33,1.33,0,0,1-.52-.62,2,2,0,0,1-.19-.91,2.47,2.47,0,0,1,.17-.92,1.37,1.37,0,0,1,.5-.63,1.43,1.43,0,0,1,.75-.22,1.21,1.21,0,0,1,.55.13,1.14,1.14,0,0,1,.38.34V147.4h.57v4.65Zm-1.8-1.68a1.5,1.5,0,0,0,.27,1,.83.83,0,0,0,.64.32.82.82,0,0,0,.64-.31,1.43,1.43,0,0,0,.26-.93,1.64,1.64,0,0,0-.26-1,.81.81,0,0,0-.66-.32.78.78,0,0,0-.64.31A1.54,1.54,0,0,0,60.46,150.37Z" transform="translate(1.43 -21.92)"/><path class="cls-3" d="M65.51,153.34V147.4h1.26v.47h-.69v5h.69v.47Z" transform="translate(1.43 -21.92)"/><path class="cls-3" d="M67.3,152.05v-3.37h.51v.51a1.31,1.31,0,0,1,.36-.47.63.63,0,0,1,.37-.12,1.17,1.17,0,0,1,.59.19l-.2.53a.86.86,0,0,0-.42-.13.5.5,0,0,0-.33.12.65.65,0,0,0-.22.31,2.31,2.31,0,0,0-.09.67v1.76Z" transform="translate(1.43 -21.92)"/><path class="cls-3" d="M69,152.13l1.35-4.81h.45l-1.34,4.81Z" transform="translate(1.43 -21.92)"/><path class="cls-3" d="M71.27,152.05v-3.37h.51v.47a1.38,1.38,0,0,1,.43-.4,1.16,1.16,0,0,1,.6-.15,1.13,1.13,0,0,1,.61.16.86.86,0,0,1,.34.43,1.2,1.2,0,0,1,1-.59,1.05,1.05,0,0,1,.77.28,1.2,1.2,0,0,1,.27.86v2.31h-.57v-2.12a1.91,1.91,0,0,0,0-.5.49.49,0,0,0-.21-.24.62.62,0,0,0-.34-.09.84.84,0,0,0-.59.23,1,1,0,0,0-.23.76v2h-.57v-2.19a1,1,0,0,0-.14-.57.54.54,0,0,0-.46-.19.81.81,0,0,0-.45.13.69.69,0,0,0-.29.37,1.85,1.85,0,0,0-.1.7v1.75Z" transform="translate(1.43 -21.92)"/><path class="cls-3" d="M76.69,148.05v-.65h.57v.65Zm0,4v-3.37h.57v3.37Z" transform="translate(1.43 -21.92)"/><path class="cls-3" d="M78.13,152.05v-3.37h.52v.48a1.2,1.2,0,0,1,1.07-.56,1.47,1.47,0,0,1,.56.11.89.89,0,0,1,.38.29,1,1,0,0,1,.18.42,3.51,3.51,0,0,1,0,.56v2.07H80.3V150a1.38,1.38,0,0,0-.07-.52.53.53,0,0,0-.23-.28.77.77,0,0,0-.4-.1.92.92,0,0,0-.63.23,1.13,1.13,0,0,0-.27.88v1.84Z" transform="translate(1.43 -21.92)"/><path class="cls-3" d="M82.7,153.34H81.44v-.47h.69v-5h-.69v-.47H82.7Z" transform="translate(1.43 -21.92)"/></g></svg>