<svg xmlns="http://www.w3.org/2000/svg" viewBox="0 0 113.07 131.01"><defs><style>.cls-1,.cls-2,.cls-3,.繝医Ν繧ｯ繧ｰ繝ｩ繝廟繧ｰ繝ｬ繝ｼ邱,.邱喟0\.5pt{fill:none;}.cls-1,.cls-2,.邱喟0\.5pt{stroke:#231815;}.cls-1{stroke-linejoin:round;stroke-width:0.14px;}.cls-3,.繝医Ν繧ｯ繧ｰ繝ｩ繝廟繧ｰ繝ｬ繝ｼ邱{stroke:#9fa0a0;stroke-width:3px;}.cls-3{stroke-linecap:square;}.cls-4{fill:#231815;}.繝後Μ_逋ｽ-2{fill:#fff;}.邱喟0\.5pt{stroke-miterlimit:10;stroke-width:0.5px;}</style></defs><g id="Illust"><line class="cls-1" x1="18.45" y1="96.23" x2="107.73" y2="96.23"/><line class="cls-1" x1="18.45" y1="77.32" x2="107.73" y2="77.32"/><line class="cls-1" x1="18.45" y1="58.46" x2="107.73" y2="58.46"/><line class="cls-1" x1="18.45" y1="39.54" x2="107.73" y2="39.54"/><line class="cls-1" x1="18.45" y1="20.62" x2="107.73" y2="20.62"/><line class="cls-1" x1="48.2" y1="1.76" x2="48.2" y2="115.15"/><line class="cls-1" x1="77.97" y1="1.76" x2="77.97" y2="115.15"/><polyline class="繝医Ν繧ｯ繧ｰ繝ｩ繝廟繧ｰ繝ｬ繝ｼ邱" points="18.44 85.06 25.89 85.06 33.32 85.06 48.2 85.06 63.09 85.06 77.95 92.6 92.84 97.09 107.72 100.09"/><polyline class="cls-2" points="18.44 85.06 25.89 85.06 33.32 85.06 48.2 85.06 63.09 85.06 77.95 92.6 92.84 97.09 107.72 100.09"/><polyline class="cls-3" points="18.44 24.92 63.09 24.92 85.41 64.09 107.72 77.34"/><polyline class="cls-2" points="18.44 24.92 60.85 24.92 85.41 67.3 107.72 79.78"/><path class="cls-4" d="M17.24,141.38a3.52,3.52,0,0,1,.13-1,1.28,1.28,0,0,1,.39-.59,1.14,1.14,0,0,1,1.15-.1.9.9,0,0,1,.36.34,1.73,1.73,0,0,1,.23.53,3.72,3.72,0,0,1,.08.84,3.52,3.52,0,0,1-.13,1,1.31,1.31,0,0,1-.39.6,1,1,0,0,1-.65.21,1,1,0,0,1-.81-.37A2.33,2.33,0,0,1,17.24,141.38Zm.45,0a2.25,2.25,0,0,0,.21,1.18.59.59,0,0,0,1,0,2.27,2.27,0,0,0,.2-1.18,2.23,2.23,0,0,0-.2-1.17.63.63,0,0,0-.52-.29.56.56,0,0,0-.48.26A2.24,2.24,0,0,0,17.69,141.38Z" transform="translate(0.01 -22.33)"/><path class="cls-4" d="M45.13,142.73v.42H42.76a1.06,1.06,0,0,1,.05-.31,1.71,1.71,0,0,1,.29-.47,4.54,4.54,0,0,1,.58-.54,4.87,4.87,0,0,0,.79-.76,1,1,0,0,0,.2-.53.6.6,0,0,0-.18-.44.77.77,0,0,0-1,0,.7.7,0,0,0-.19.53l-.45,0a1.08,1.08,0,0,1,.35-.77,1.16,1.16,0,0,1,.81-.26,1.13,1.13,0,0,1,.81.28.94.94,0,0,1,.3.71A1.25,1.25,0,0,1,45,141a1.57,1.57,0,0,1-.3.44,7.63,7.63,0,0,1-.67.63,5.24,5.24,0,0,0-.51.45,1.33,1.33,0,0,0-.19.24Z" transform="translate(0.01 -22.33)"/><path class="cls-4" d="M45.63,141.38a3.2,3.2,0,0,1,.13-1,1.33,1.33,0,0,1,.39-.59,1.14,1.14,0,0,1,1.15-.1.9.9,0,0,1,.36.34,1.51,1.51,0,0,1,.22.53,4.23,4.23,0,0,1-.05,1.86,1.22,1.22,0,0,1-.38.6,1.1,1.1,0,0,1-1.47-.16A2.41,2.41,0,0,1,45.63,141.38Zm.45,0a2.25,2.25,0,0,0,.21,1.18.59.59,0,0,0,1,0,2.38,2.38,0,0,0,.2-1.18,2.34,2.34,0,0,0-.2-1.17.63.63,0,0,0-.52-.29.56.56,0,0,0-.48.26A2.24,2.24,0,0,0,46.08,141.38Z" transform="translate(0.01 -22.33)"/><path class="cls-4" d="M48.38,141.38a3.2,3.2,0,0,1,.13-1,1.33,1.33,0,0,1,.39-.59,1.14,1.14,0,0,1,1.15-.1.9.9,0,0,1,.36.34,1.51,1.51,0,0,1,.22.53,3.16,3.16,0,0,1,.09.84,3.52,3.52,0,0,1-.13,1,1.31,1.31,0,0,1-.39.6,1,1,0,0,1-.65.21,1,1,0,0,1-.81-.37A2.33,2.33,0,0,1,48.38,141.38Zm.45,0a2.25,2.25,0,0,0,.21,1.18.59.59,0,0,0,1,0,2.38,2.38,0,0,0,.2-1.18,2.34,2.34,0,0,0-.2-1.17.63.63,0,0,0-.52-.29.56.56,0,0,0-.48.26A2.24,2.24,0,0,0,48.83,141.38Z" transform="translate(0.01 -22.33)"/><path class="cls-4" d="M51.19,141.38a3.52,3.52,0,0,1,.13-1,1.33,1.33,0,0,1,.39-.59,1.14,1.14,0,0,1,1.15-.1.9.9,0,0,1,.36.34,1.73,1.73,0,0,1,.23.53,3.72,3.72,0,0,1,.08.84,3.52,3.52,0,0,1-.13,1,1.31,1.31,0,0,1-.39.6,1,1,0,0,1-.65.21,1,1,0,0,1-.81-.37A2.33,2.33,0,0,1,51.19,141.38Zm.45,0a2.25,2.25,0,0,0,.21,1.18.59.59,0,0,0,1,0,2.27,2.27,0,0,0,.2-1.18,2.23,2.23,0,0,0-.2-1.17.63.63,0,0,0-.52-.29.56.56,0,0,0-.48.26A2.24,2.24,0,0,0,51.64,141.38Z" transform="translate(0.01 -22.33)"/><path class="cls-4" d="M74,143.15v-.86H72.44v-.4l1.63-2.32h.36v2.32h.48v.4h-.48v.86Zm0-1.26v-1.61l-1.12,1.61Z" transform="translate(0.01 -22.33)"/><path class="cls-4" d="M75.39,141.38a3.52,3.52,0,0,1,.13-1,1.33,1.33,0,0,1,.39-.59,1,1,0,0,1,.65-.21.95.95,0,0,1,.87.45,2,2,0,0,1,.22.53,3.72,3.72,0,0,1,.08.84,3.52,3.52,0,0,1-.13,1,1.31,1.31,0,0,1-.39.6,1,1,0,0,1-.65.21,1,1,0,0,1-.81-.37A2.33,2.33,0,0,1,75.39,141.38Zm.46,0a2.27,2.27,0,0,0,.2,1.18.59.59,0,0,0,1,0,2.25,2.25,0,0,0,.21-1.18,2.2,2.2,0,0,0-.21-1.17.62.62,0,0,0-.51-.29.57.57,0,0,0-.49.26A2.26,2.26,0,0,0,75.85,141.38Z" transform="translate(0.01 -22.33)"/><path class="cls-4" d="M78.14,141.38a3.17,3.17,0,0,1,.14-1,1.24,1.24,0,0,1,.38-.59,1,1,0,0,1,.65-.21.95.95,0,0,1,.87.45,2,2,0,0,1,.22.53,3.72,3.72,0,0,1,.08.84,3.2,3.2,0,0,1-.13,1,1.31,1.31,0,0,1-.39.6,1,1,0,0,1-.65.21,1,1,0,0,1-.81-.37A2.33,2.33,0,0,1,78.14,141.38Zm.46,0a2.38,2.38,0,0,0,.2,1.18.59.59,0,0,0,1,0,2.25,2.25,0,0,0,.21-1.18,2.2,2.2,0,0,0-.21-1.17.62.62,0,0,0-.51-.29.58.58,0,0,0-.49.26A2.26,2.26,0,0,0,78.6,141.38Z" transform="translate(0.01 -22.33)"/><path class="cls-4" d="M81,141.38a3.2,3.2,0,0,1,.13-1,1.24,1.24,0,0,1,.38-.59,1,1,0,0,1,.65-.21A.95.95,0,0,1,83,140a1.73,1.73,0,0,1,.22.53,3.72,3.72,0,0,1,.08.84,3.2,3.2,0,0,1-.13,1,1.31,1.31,0,0,1-.39.6,1,1,0,0,1-.65.21,1,1,0,0,1-.81-.37A2.34,2.34,0,0,1,81,141.38Zm.45,0a2.38,2.38,0,0,0,.2,1.18.59.59,0,0,0,1,0,2.25,2.25,0,0,0,.21-1.18,2.2,2.2,0,0,0-.21-1.17.62.62,0,0,0-.51-.29.58.58,0,0,0-.49.26A2.26,2.26,0,0,0,81.41,141.38Z" transform="translate(0.01 -22.33)"/><path class="cls-4" d="M104.63,140.45l-.44,0a.71.71,0,0,0-.17-.37.54.54,0,0,0-.43-.19.65.65,0,0,0-.37.11,1,1,0,0,0-.33.45,2.41,2.41,0,0,0-.13.82,1,1,0,0,1,.39-.35,1.07,1.07,0,0,1,.48-.12,1,1,0,0,1,.75.32,1.16,1.16,0,0,1,.31.84,1.44,1.44,0,0,1-.14.62,1.1,1.1,0,0,1-.4.45,1.11,1.11,0,0,1-.58.15,1.14,1.14,0,0,1-.9-.4,2.07,2.07,0,0,1-.34-1.34,2.39,2.39,0,0,1,.38-1.5,1.08,1.08,0,0,1,.9-.41,1,1,0,0,1,.69.23A1,1,0,0,1,104.63,140.45Zm-1.8,1.54a1,1,0,0,0,.1.43.66.66,0,0,0,.27.32.72.72,0,0,0,.36.11.62.62,0,0,0,.48-.23.85.85,0,0,0,.2-.61.79.79,0,0,0-.2-.58.64.64,0,0,0-.49-.21.69.69,0,0,0-.51.21A.76.76,0,0,0,102.83,142Z" transform="translate(0.01 -22.33)"/><path class="cls-4" d="M105.16,141.38a3.2,3.2,0,0,1,.13-1,1.28,1.28,0,0,1,.39-.59,1,1,0,0,1,.64-.21,1,1,0,0,1,.51.11,1,1,0,0,1,.36.34,1.73,1.73,0,0,1,.22.53,4.23,4.23,0,0,1,0,1.86,1.22,1.22,0,0,1-.38.6,1,1,0,0,1-.66.21,1,1,0,0,1-.81-.37A2.41,2.41,0,0,1,105.16,141.38Zm.45,0a2.25,2.25,0,0,0,.21,1.18.58.58,0,0,0,1,0,2.25,2.25,0,0,0,.21-1.18,2.2,2.2,0,0,0-.21-1.17.6.6,0,0,0-.51-.29.56.56,0,0,0-.48.26A2.24,2.24,0,0,0,105.61,141.38Z" transform="translate(0.01 -22.33)"/><path class="cls-4" d="M107.91,141.38a3.2,3.2,0,0,1,.13-1,1.28,1.28,0,0,1,.39-.59,1.14,1.14,0,0,1,1.15-.1.9.9,0,0,1,.36.34,1.73,1.73,0,0,1,.22.53,4.23,4.23,0,0,1,0,1.86,1.22,1.22,0,0,1-.38.6,1,1,0,0,1-.65.21,1,1,0,0,1-.82-.37A2.41,2.41,0,0,1,107.91,141.38Zm.45,0a2.25,2.25,0,0,0,.21,1.18.6.6,0,0,0,.51.29.62.62,0,0,0,.51-.29,2.38,2.38,0,0,0,.2-1.18,2.34,2.34,0,0,0-.2-1.17.63.63,0,0,0-.52-.29.56.56,0,0,0-.48.26A2.24,2.24,0,0,0,108.36,141.38Z" transform="translate(0.01 -22.33)"/><path class="cls-4" d="M110.72,141.38a3.2,3.2,0,0,1,.13-1,1.28,1.28,0,0,1,.39-.59,1.14,1.14,0,0,1,1.15-.1.9.9,0,0,1,.36.34,1.73,1.73,0,0,1,.22.53,4.23,4.23,0,0,1,0,1.86,1.22,1.22,0,0,1-.38.6,1.1,1.1,0,0,1-1.47-.16A2.41,2.41,0,0,1,110.72,141.38Zm.45,0a2.25,2.25,0,0,0,.21,1.18.6.6,0,0,0,.51.29.62.62,0,0,0,.51-.29,2.38,2.38,0,0,0,.2-1.18,2.34,2.34,0,0,0-.2-1.17.63.63,0,0,0-.52-.29.56.56,0,0,0-.48.26A2.24,2.24,0,0,0,111.17,141.38Z" transform="translate(0.01 -22.33)"/><rect class="繝後Μ_逋ｽ-2" x="107.73" y="1.76" width="2.83" height="113.39"/><rect class="繝後Μ_逋ｽ-2" x="15.6" y="1.76" width="2.83" height="113.39"/><rect class="邱喟0.5pt" x="18.44" y="1.76" width="89.29" height="113.39"/><path class="cls-4" d="M10.23,137.55a3.2,3.2,0,0,1,.13-1,1.28,1.28,0,0,1,.39-.59,1.14,1.14,0,0,1,1.15-.1.9.9,0,0,1,.36.34,1.51,1.51,0,0,1,.22.53,4.23,4.23,0,0,1-.05,1.86,1.22,1.22,0,0,1-.38.6,1.1,1.1,0,0,1-1.47-.16A2.41,2.41,0,0,1,10.23,137.55Zm.45,0a2.25,2.25,0,0,0,.21,1.18.59.59,0,0,0,1,0,2.38,2.38,0,0,0,.2-1.18,2.34,2.34,0,0,0-.2-1.17.63.63,0,0,0-.52-.29.56.56,0,0,0-.48.26A2.24,2.24,0,0,0,10.68,137.55Z" transform="translate(0.01 -22.33)"/><path class="cls-4" d="M13.29,139.32v-.5h.5v.5Z" transform="translate(0.01 -22.33)"/><path class="cls-4" d="M14.43,137.55a3.17,3.17,0,0,1,.14-1,1.19,1.19,0,0,1,.38-.59,1,1,0,0,1,.65-.21.95.95,0,0,1,.87.45,2,2,0,0,1,.22.53,3.72,3.72,0,0,1,.08.84,3.2,3.2,0,0,1-.13,1,1.31,1.31,0,0,1-.39.6,1,1,0,0,1-.65.21,1,1,0,0,1-.81-.37A2.33,2.33,0,0,1,14.43,137.55Zm.46,0a2.38,2.38,0,0,0,.2,1.18.59.59,0,0,0,1,0,2.25,2.25,0,0,0,.21-1.18,2.2,2.2,0,0,0-.21-1.17.62.62,0,0,0-.51-.29.58.58,0,0,0-.49.26A2.26,2.26,0,0,0,14.89,137.55Z" transform="translate(0.01 -22.33)"/><path class="cls-4" d="M9,120.42H8.6v-2.8a2.07,2.07,0,0,1-.41.3,2.87,2.87,0,0,1-.47.23v-.43a2.42,2.42,0,0,0,.65-.42,1.65,1.65,0,0,0,.39-.48H9Z" transform="translate(0.01 -22.33)"/><path class="cls-4" d="M10.2,118.65a3.2,3.2,0,0,1,.13-1,1.31,1.31,0,0,1,.39-.6,1,1,0,0,1,.64-.21,1,1,0,0,1,.51.12,1,1,0,0,1,.36.33,1.91,1.91,0,0,1,.22.54,4.23,4.23,0,0,1,0,1.86,1.22,1.22,0,0,1-.38.6,1,1,0,0,1-.66.21,1,1,0,0,1-.81-.37A2.43,2.43,0,0,1,10.2,118.65Zm.45,0a2.25,2.25,0,0,0,.21,1.18.59.59,0,0,0,.5.29.59.59,0,0,0,.51-.3,3.36,3.36,0,0,0,0-2.34.58.58,0,0,0-.51-.29.56.56,0,0,0-.48.25A2.28,2.28,0,0,0,10.65,118.65Z" transform="translate(0.01 -22.33)"/><path class="cls-4" d="M13.2,120.42v-.5h.5v.5Z" transform="translate(0.01 -22.33)"/><path class="cls-4" d="M14.34,118.65a3.52,3.52,0,0,1,.13-1,1.31,1.31,0,0,1,.39-.6,1,1,0,0,1,.65-.21,1.07,1.07,0,0,1,.51.12,1,1,0,0,1,.35.33,1.91,1.91,0,0,1,.23.54,3.72,3.72,0,0,1,.08.84,3.52,3.52,0,0,1-.13,1,1.31,1.31,0,0,1-.39.6,1,1,0,0,1-.65.21,1,1,0,0,1-.81-.37A2.35,2.35,0,0,1,14.34,118.65Zm.45,0a2.25,2.25,0,0,0,.21,1.18.62.62,0,0,0,.51.29.61.61,0,0,0,.51-.3,3.36,3.36,0,0,0,0-2.34.6.6,0,0,0-.51-.29.56.56,0,0,0-.49.25A2.28,2.28,0,0,0,14.79,118.65Z" transform="translate(0.01 -22.33)"/><path class="cls-4" d="M9.7,101.1v.42H7.33a.81.81,0,0,1,0-.31,1.58,1.58,0,0,1,.29-.47,4,4,0,0,1,.58-.54A5.35,5.35,0,0,0,9,99.44a1,1,0,0,0,.2-.53.58.58,0,0,0-.19-.44.65.65,0,0,0-.48-.18.69.69,0,0,0-.51.19.7.7,0,0,0-.19.53L7.41,99a1.16,1.16,0,0,1,.35-.77,1.21,1.21,0,0,1,.82-.26,1.13,1.13,0,0,1,.81.28.94.94,0,0,1,.3.71,1.06,1.06,0,0,1-.09.42,1.33,1.33,0,0,1-.29.44,7.63,7.63,0,0,1-.67.63,5.24,5.24,0,0,0-.51.45,1.33,1.33,0,0,0-.19.24Z" transform="translate(0.01 -22.33)"/><path class="cls-4" d="M10.2,99.75a3.2,3.2,0,0,1,.13-1,1.28,1.28,0,0,1,.39-.59,1,1,0,0,1,.64-.21,1,1,0,0,1,.51.11.9.9,0,0,1,.36.34,1.73,1.73,0,0,1,.22.53,4.23,4.23,0,0,1,0,1.86,1.22,1.22,0,0,1-.38.6,1,1,0,0,1-.66.21,1,1,0,0,1-.81-.37A2.41,2.41,0,0,1,10.2,99.75Zm.45,0a2.25,2.25,0,0,0,.21,1.18.58.58,0,0,0,1,0,2.25,2.25,0,0,0,.21-1.18,2.18,2.18,0,0,0-.21-1.17.6.6,0,0,0-.51-.29.54.54,0,0,0-.48.26A2.24,2.24,0,0,0,10.65,99.75Z" transform="translate(0.01 -22.33)"/><path class="cls-4" d="M13.2,101.52V101h.5v.5Z" transform="translate(0.01 -22.33)"/><path class="cls-4" d="M14.34,99.75a3.52,3.52,0,0,1,.13-1,1.28,1.28,0,0,1,.39-.59,1,1,0,0,1,.65-.21A1.06,1.06,0,0,1,16,98a1,1,0,0,1,.35.34,1.73,1.73,0,0,1,.23.53,3.72,3.72,0,0,1,.08.84,3.52,3.52,0,0,1-.13,1,1.31,1.31,0,0,1-.39.6,1,1,0,0,1-.65.21,1,1,0,0,1-.81-.37A2.33,2.33,0,0,1,14.34,99.75Zm.45,0a2.25,2.25,0,0,0,.21,1.18.59.59,0,0,0,1,0,2.25,2.25,0,0,0,.21-1.18A2.18,2.18,0,0,0,16,98.58a.62.62,0,0,0-.51-.29.55.55,0,0,0-.49.26A2.24,2.24,0,0,0,14.79,99.75Z" transform="translate(0.01 -22.33)"/><path class="cls-4" d="M7.39,81.68l.44-.06a1,1,0,0,0,.26.54.63.63,0,0,0,.44.16.7.7,0,0,0,.52-.21.72.72,0,0,0,.22-.54.7.7,0,0,0-.2-.5.68.68,0,0,0-.5-.19,1,1,0,0,0-.31.05l.05-.39h.07a.89.89,0,0,0,.5-.15A.51.51,0,0,0,9.11,80a.53.53,0,0,0-.17-.4.57.57,0,0,0-.42-.16.6.6,0,0,0-.43.16.9.9,0,0,0-.22.48L7.43,80a1.16,1.16,0,0,1,.37-.69A1.07,1.07,0,0,1,8.51,79a1.19,1.19,0,0,1,.54.12,1,1,0,0,1,.38.35.94.94,0,0,1,.13.46.72.72,0,0,1-.13.42.75.75,0,0,1-.37.3.82.82,0,0,1,.5.31.88.88,0,0,1,.17.57,1.05,1.05,0,0,1-.34.8,1.18,1.18,0,0,1-.86.32,1.08,1.08,0,0,1-.78-.28A1.07,1.07,0,0,1,7.39,81.68Z" transform="translate(0.01 -22.33)"/><path class="cls-4" d="M10.2,80.86a3.23,3.23,0,0,1,.13-1,1.33,1.33,0,0,1,.39-.59,1,1,0,0,1,.64-.21,1.13,1.13,0,0,1,.51.11.9.9,0,0,1,.36.34,1.73,1.73,0,0,1,.22.53,3.25,3.25,0,0,1,.08.85,3.14,3.14,0,0,1-.13,1,1.22,1.22,0,0,1-.38.6,1,1,0,0,1-.66.21,1,1,0,0,1-.81-.37A2.39,2.39,0,0,1,10.2,80.86Zm.45,0A2.23,2.23,0,0,0,10.86,82a.58.58,0,0,0,1,0,3.39,3.39,0,0,0,0-2.35.6.6,0,0,0-.51-.29.56.56,0,0,0-.48.26A2.28,2.28,0,0,0,10.65,80.86Z" transform="translate(0.01 -22.33)"/><path class="cls-4" d="M13.2,82.62v-.5h.5v.5Z" transform="translate(0.01 -22.33)"/><path class="cls-4" d="M14.34,80.86a3.54,3.54,0,0,1,.13-1,1.33,1.33,0,0,1,.39-.59,1,1,0,0,1,.65-.21,1.19,1.19,0,0,1,.51.11,1,1,0,0,1,.35.34,1.73,1.73,0,0,1,.23.53,3.76,3.76,0,0,1,.08.85,3.44,3.44,0,0,1-.13,1,1.31,1.31,0,0,1-.39.6,1,1,0,0,1-.65.21,1,1,0,0,1-.81-.37A2.32,2.32,0,0,1,14.34,80.86Zm.45,0A2.23,2.23,0,0,0,15,82a.59.59,0,0,0,1,0,3.39,3.39,0,0,0,0-2.35.62.62,0,0,0-.51-.29.57.57,0,0,0-.49.26A2.28,2.28,0,0,0,14.79,80.86Z" transform="translate(0.01 -22.33)"/><path class="cls-4" d="M8.8,63.72v-.85H7.24v-.41l1.64-2.32h.36v2.32h.48v.41H9.24v.85Zm0-1.26V60.85L7.68,62.46Z" transform="translate(0.01 -22.33)"/><path class="cls-4" d="M10.2,62a3.12,3.12,0,0,1,.13-1,1.31,1.31,0,0,1,.39-.6,1,1,0,0,1,.64-.21,1,1,0,0,1,.51.12.82.82,0,0,1,.36.33,1.84,1.84,0,0,1,.22.53,3.25,3.25,0,0,1,.08.85,3.2,3.2,0,0,1-.13,1,1.24,1.24,0,0,1-.38.59,1,1,0,0,1-.66.21,1,1,0,0,1-.81-.37A2.37,2.37,0,0,1,10.2,62Zm.45,0a2.18,2.18,0,0,0,.21,1.17.58.58,0,0,0,1,0,3.39,3.39,0,0,0,0-2.35.6.6,0,0,0-.51-.29.56.56,0,0,0-.48.26A2.28,2.28,0,0,0,10.65,62Z" transform="translate(0.01 -22.33)"/><path class="cls-4" d="M13.2,63.72v-.5h.5v.5Z" transform="translate(0.01 -22.33)"/><path class="cls-4" d="M14.34,62a3.42,3.42,0,0,1,.13-1,1.31,1.31,0,0,1,.39-.6,1,1,0,0,1,.65-.21,1.07,1.07,0,0,1,.51.12.85.85,0,0,1,.35.33,1.84,1.84,0,0,1,.23.53,3.76,3.76,0,0,1,.08.85,3.52,3.52,0,0,1-.13,1,1.33,1.33,0,0,1-.39.59,1,1,0,0,1-.65.21,1,1,0,0,1-.81-.37A2.3,2.3,0,0,1,14.34,62Zm.45,0A2.18,2.18,0,0,0,15,63.13a.59.59,0,0,0,1,0,3.39,3.39,0,0,0,0-2.35.62.62,0,0,0-.51-.29.57.57,0,0,0-.49.26A2.28,2.28,0,0,0,14.79,62Z" transform="translate(0.01 -22.33)"/><path class="cls-4" d="M7.39,43.88l.46,0a.77.77,0,0,0,.24.51.64.64,0,0,0,.45.17.68.68,0,0,0,.53-.24.88.88,0,0,0,.22-.63.84.84,0,0,0-.21-.6.74.74,0,0,0-.55-.21.79.79,0,0,0-.38.09.73.73,0,0,0-.27.25l-.41,0,.34-1.84H9.59v.42H8.16l-.19,1a1.17,1.17,0,0,1,.68-.22,1.1,1.1,0,0,1,.79.32,1.17,1.17,0,0,1,.32.84,1.31,1.31,0,0,1-.28.84,1.14,1.14,0,0,1-.94.43,1.17,1.17,0,0,1-.8-.27A1.06,1.06,0,0,1,7.39,43.88Z" transform="translate(0.01 -22.33)"/><path class="cls-4" d="M10.2,43.05a3.2,3.2,0,0,1,.13-1,1.33,1.33,0,0,1,.39-.59,1,1,0,0,1,.64-.21,1,1,0,0,1,.51.11.9.9,0,0,1,.36.34,1.73,1.73,0,0,1,.22.53,4.23,4.23,0,0,1,0,1.86,1.22,1.22,0,0,1-.38.6,1,1,0,0,1-.66.21,1,1,0,0,1-.81-.37A2.41,2.41,0,0,1,10.2,43.05Zm.45,0a2.25,2.25,0,0,0,.21,1.18.58.58,0,0,0,1,0,2.25,2.25,0,0,0,.21-1.18,2.2,2.2,0,0,0-.21-1.17.6.6,0,0,0-.51-.29.56.56,0,0,0-.48.26A2.24,2.24,0,0,0,10.65,43.05Z" transform="translate(0.01 -22.33)"/><path class="cls-4" d="M13.2,44.82v-.5h.5v.5Z" transform="translate(0.01 -22.33)"/><path class="cls-4" d="M14.34,43.05a3.52,3.52,0,0,1,.13-1,1.33,1.33,0,0,1,.39-.59,1,1,0,0,1,.65-.21,1.06,1.06,0,0,1,.51.11,1,1,0,0,1,.35.34,1.73,1.73,0,0,1,.23.53,3.72,3.72,0,0,1,.08.84,3.52,3.52,0,0,1-.13,1,1.31,1.31,0,0,1-.39.6,1,1,0,0,1-.65.21,1,1,0,0,1-.81-.37A2.33,2.33,0,0,1,14.34,43.05Zm.45,0A2.25,2.25,0,0,0,15,44.23a.59.59,0,0,0,1,0,2.25,2.25,0,0,0,.21-1.18A2.2,2.2,0,0,0,16,41.88a.62.62,0,0,0-.51-.29.57.57,0,0,0-.49.26A2.24,2.24,0,0,0,14.79,43.05Z" transform="translate(0.01 -22.33)"/><path class="cls-4" d="M9.67,23.22l-.44,0a.75.75,0,0,0-.17-.38.57.57,0,0,0-.43-.19.59.59,0,0,0-.37.12,1,1,0,0,0-.33.44,2.48,2.48,0,0,0-.13.83,1.11,1.11,0,0,1,.39-.36,1.07,1.07,0,0,1,.48-.12,1,1,0,0,1,.75.33,1.12,1.12,0,0,1,.31.83,1.46,1.46,0,0,1-.14.63,1.07,1.07,0,0,1-.4.44,1.12,1.12,0,0,1-.58.16,1.14,1.14,0,0,1-.9-.41,2,2,0,0,1-.34-1.33,2.44,2.44,0,0,1,.38-1.51,1.1,1.1,0,0,1,.9-.41,1,1,0,0,1,.69.24A1,1,0,0,1,9.67,23.22Zm-1.8,1.55a1.08,1.08,0,0,0,.1.43.67.67,0,0,0,.63.42.61.61,0,0,0,.48-.22.85.85,0,0,0,.2-.61.77.77,0,0,0-.2-.58A.61.61,0,0,0,8.59,24a.67.67,0,0,0-.51.22A.75.75,0,0,0,7.87,24.77Z" transform="translate(0.01 -22.33)"/><path class="cls-4" d="M10.2,24.16a3.2,3.2,0,0,1,.13-1,1.31,1.31,0,0,1,.39-.6,1,1,0,0,1,.64-.21,1,1,0,0,1,.51.12.88.88,0,0,1,.36.33,1.84,1.84,0,0,1,.22.53,3.25,3.25,0,0,1,.08.85,3.2,3.2,0,0,1-.13,1,1.24,1.24,0,0,1-.38.59,1,1,0,0,1-.66.22,1,1,0,0,1-.81-.38A2.37,2.37,0,0,1,10.2,24.16Zm.45,0a2.18,2.18,0,0,0,.21,1.17.58.58,0,0,0,1,0,2.18,2.18,0,0,0,.21-1.17A2.18,2.18,0,0,0,11.87,23a.58.58,0,0,0-.51-.29.56.56,0,0,0-.48.25A2.28,2.28,0,0,0,10.65,24.16Z" transform="translate(0.01 -22.33)"/><path class="cls-4" d="M13.2,25.93v-.51h.5v.51Z" transform="translate(0.01 -22.33)"/><path class="cls-4" d="M14.34,24.16a3.52,3.52,0,0,1,.13-1,1.31,1.31,0,0,1,.39-.6,1,1,0,0,1,.65-.21,1.07,1.07,0,0,1,.51.12.92.92,0,0,1,.35.33,1.84,1.84,0,0,1,.23.53,3.76,3.76,0,0,1,.08.85,3.52,3.52,0,0,1-.13,1,1.33,1.33,0,0,1-.39.59,1,1,0,0,1-.65.22,1,1,0,0,1-.81-.38A2.3,2.3,0,0,1,14.34,24.16Zm.45,0A2.18,2.18,0,0,0,15,25.33a.59.59,0,0,0,1,0,2.18,2.18,0,0,0,.21-1.17A2.18,2.18,0,0,0,16,23a.6.6,0,0,0-.51-.29A.56.56,0,0,0,15,23,2.28,2.28,0,0,0,14.79,24.16Z" transform="translate(0.01 -22.33)"/></g><g id="English"><path class="cls-4" d="M4.64,98.27H.54V99.8H0V96.11H.54v1.54h4.1Z" transform="translate(0.01 -22.33)"/><path class="cls-4" d="M3,95.77a1.72,1.72,0,0,1-1.38-.52,1.58,1.58,0,0,1-.38-1.06,1.5,1.5,0,0,1,.46-1.14,1.74,1.74,0,0,1,1.26-.44,2.22,2.22,0,0,1,1,.2,1.42,1.42,0,0,1,.58.56,1.64,1.64,0,0,1,.21.82,1.52,1.52,0,0,1-.46,1.14A1.82,1.82,0,0,1,3,95.77Zm0-.59a1.41,1.41,0,0,0,1-.28.91.91,0,0,0,.33-.71.89.89,0,0,0-.33-.71,1.43,1.43,0,0,0-1-.28,1.38,1.38,0,0,0-.95.28A.95.95,0,0,0,2,94.9,1.39,1.39,0,0,0,3,95.18Z" transform="translate(0.01 -22.33)"/><path class="cls-4" d="M4.64,92H1.27v-.52h.51a1.31,1.31,0,0,1-.47-.36.61.61,0,0,1-.12-.37,1,1,0,0,1,.19-.58l.53.19a.76.76,0,0,0-.13.42.52.52,0,0,0,.12.34.58.58,0,0,0,.31.21,2.3,2.3,0,0,0,.67.1H4.64Z" transform="translate(0.01 -22.33)"/><path class="cls-4" d="M5.93,87.63H4.28a1,1,0,0,1,.31.37,1.14,1.14,0,0,1,.13.51,1.34,1.34,0,0,1-.48,1A1.9,1.9,0,0,1,2.92,90,2.21,2.21,0,0,1,2,89.8a1.33,1.33,0,0,1-.82-1.25,1.14,1.14,0,0,1,.53-1H1.27v-.51H5.93Zm-3,1.76a1.51,1.51,0,0,0,1-.27.81.81,0,0,0,0-1.29A1.46,1.46,0,0,0,3,87.57a1.57,1.57,0,0,0-1,.28.83.83,0,0,0-.34.65.79.79,0,0,0,.32.63A1.55,1.55,0,0,0,2.94,89.39Z" transform="translate(0.01 -22.33)"/><path class="cls-4" d="M4.64,84h-.5A1.22,1.22,0,0,1,4.72,85a1.31,1.31,0,0,1-.12.56.82.82,0,0,1-.29.38.9.9,0,0,1-.42.18,3.33,3.33,0,0,1-.53,0H1.27V85.6H3.14a3.77,3.77,0,0,0,.6,0,.63.63,0,0,0,.36-.23.75.75,0,0,0,.12-.43.91.91,0,0,0-.13-.48.7.7,0,0,0-.36-.32,1.63,1.63,0,0,0-.66-.1H1.27v-.57H4.64Z" transform="translate(0.01 -22.33)"/><path class="cls-4" d="M3.55,80.24l.08-.59a1.39,1.39,0,0,1,.8.52,1.72,1.72,0,0,1-.17,2.13A1.77,1.77,0,0,1,3,82.74a1.9,1.9,0,0,1-1.32-.44,1.49,1.49,0,0,1-.47-1.14,1.45,1.45,0,0,1,.46-1.1A1.82,1.82,0,0,1,3,79.63H3.1v2.52A1.29,1.29,0,0,0,4,81.83a.92.92,0,0,0,.3-.7.89.89,0,0,0-.17-.54A1.07,1.07,0,0,0,3.55,80.24Zm-.92,1.87V80.23a1.18,1.18,0,0,0-.64.22.88.88,0,0,0-.33.71.9.9,0,0,0,.27.66A1,1,0,0,0,2.63,82.11Z" transform="translate(0.01 -22.33)"/><path class="cls-4" d="M5.93,77.11H0V75.85H.46v.69h5v-.69h.47Z" transform="translate(0.01 -22.33)"/><path class="cls-4" d="M4.64,75.25H0v-.63l3.65-2.44H0v-.59H4.64v.63L1,74.66H4.64Z" transform="translate(0.01 -22.33)"/><path class="cls-4" d="M2.36,70.71a.78.78,0,0,1-.57-.24.79.79,0,0,1-.23-.57.77.77,0,0,1,.23-.56.8.8,0,0,1,1.14,0,.74.74,0,0,1,.24.56.76.76,0,0,1-.24.57A.78.78,0,0,1,2.36,70.71Z" transform="translate(0.01 -22.33)"/><path class="cls-4" d="M4.64,68.35H1.27v-.51h.47a1.34,1.34,0,0,1-.4-.42,1.21,1.21,0,0,1-.15-.6,1.08,1.08,0,0,1,.16-.62.86.86,0,0,1,.43-.34,1.2,1.2,0,0,1-.59-1,1.05,1.05,0,0,1,.28-.77,1.2,1.2,0,0,1,.86-.27H4.64v.57H2.52a1.49,1.49,0,0,0-.5.06.42.42,0,0,0-.24.2.62.62,0,0,0-.09.34.82.82,0,0,0,.23.59,1,1,0,0,0,.76.24h2v.57H2.45a.92.92,0,0,0-.57.14.51.51,0,0,0-.19.45.89.89,0,0,0,.12.45.77.77,0,0,0,.38.3,2.08,2.08,0,0,0,.7.09H4.64Z" transform="translate(0.01 -22.33)"/><path class="cls-4" d="M5.93,62v1.26H5.46v-.69h-5v.69H0V62Z" transform="translate(0.01 -22.33)"/><rect class="繝後Μ_逋ｽ-2" x="19.15" y="42.58" width="47.91" height="16.58"/><path class="cls-4" d="M22.34,69.78l.58,0a1.33,1.33,0,0,0,.2.57,1.07,1.07,0,0,0,.47.37,1.76,1.76,0,0,0,.71.13,1.72,1.72,0,0,0,.62-.1.89.89,0,0,0,.4-.29.67.67,0,0,0,0-.78,1,1,0,0,0-.42-.27,7.21,7.21,0,0,0-.83-.23,4.09,4.09,0,0,1-.9-.29,1.23,1.23,0,0,1-.49-.43,1.09,1.09,0,0,1-.17-.58,1.19,1.19,0,0,1,.2-.66,1.27,1.27,0,0,1,.59-.47,2.3,2.3,0,0,1,.85-.15,2.35,2.35,0,0,1,.91.16,1.31,1.31,0,0,1,.61.49,1.44,1.44,0,0,1,.23.74l-.59,0a1,1,0,0,0-.32-.67,1.29,1.29,0,0,0-.82-.22,1.34,1.34,0,0,0-.81.2.62.62,0,0,0-.25.5.54.54,0,0,0,.18.41,2.26,2.26,0,0,0,.92.33,5,5,0,0,1,1,.3,1.28,1.28,0,0,1,.6.47,1.14,1.14,0,0,1,.2.66,1.27,1.27,0,0,1-.21.7,1.43,1.43,0,0,1-.62.51,2,2,0,0,1-.89.19,2.72,2.72,0,0,1-1.06-.19,1.4,1.4,0,0,1-.67-.55A1.63,1.63,0,0,1,22.34,69.78Z" transform="translate(0.01 -22.33)"/><path class="cls-4" d="M26.82,71.28V66.62h.57v1.67a1.26,1.26,0,0,1,1-.46,1.36,1.36,0,0,1,.65.15.86.86,0,0,1,.39.41,1.83,1.83,0,0,1,.12.75v2.14H29V69.14a.85.85,0,0,0-.19-.62.67.67,0,0,0-.52-.2,1,1,0,0,0-.48.13.79.79,0,0,0-.32.36,1.73,1.73,0,0,0-.09.62v1.85Z" transform="translate(0.01 -22.33)"/><path class="cls-4" d="M30.22,69.59a1.75,1.75,0,0,1,.52-1.39,1.61,1.61,0,0,1,1.06-.37,1.51,1.51,0,0,1,1.14.46,1.73,1.73,0,0,1,.44,1.25,2.24,2.24,0,0,1-.2,1,1.39,1.39,0,0,1-.57.58,1.73,1.73,0,0,1-.81.2,1.51,1.51,0,0,1-1.14-.45A1.78,1.78,0,0,1,30.22,69.59Zm.59,0a1.42,1.42,0,0,0,.28,1,.88.88,0,0,0,.71.32.9.9,0,0,0,.71-.32,1.48,1.48,0,0,0,.28-1,1.42,1.42,0,0,0-.29-.95.89.89,0,0,0-.7-.32.91.91,0,0,0-.71.32A1.44,1.44,0,0,0,30.81,69.59Z" transform="translate(0.01 -22.33)"/><path class="cls-4" d="M34,71.28V67.91h.51v.51a1.62,1.62,0,0,1,.37-.48.66.66,0,0,1,.36-.11,1.12,1.12,0,0,1,.59.18l-.2.53a.83.83,0,0,0-.41-.12.58.58,0,0,0-.34.11.6.6,0,0,0-.21.32,2,2,0,0,0-.1.66v1.77Z" transform="translate(0.01 -22.33)"/><path class="cls-4" d="M37.46,70.77l.08.5a2.37,2.37,0,0,1-.43,0,.9.9,0,0,1-.48-.1.47.47,0,0,1-.24-.26,1.9,1.9,0,0,1-.07-.67V68.35H35.9v-.44h.42v-.84l.56-.34v1.18h.58v.44h-.58v2a1.08,1.08,0,0,0,0,.32.35.35,0,0,0,.1.11.5.5,0,0,0,.2,0Z" transform="translate(0.01 -22.33)"/><path class="cls-4" d="M37.79,69.88v-.57h1.76v.57Z" transform="translate(0.01 -22.33)"/><path class="cls-4" d="M42.37,71.28v-.43a1,1,0,0,1-.94.5,1.34,1.34,0,0,1-.75-.22,1.45,1.45,0,0,1-.52-.62,2.22,2.22,0,0,1-.19-.92,2.42,2.42,0,0,1,.17-.91,1.34,1.34,0,0,1,.51-.63,1.3,1.3,0,0,1,.75-.22,1.08,1.08,0,0,1,.54.13,1.14,1.14,0,0,1,.39.33V66.62h.57v4.66Zm-1.81-1.69a1.46,1.46,0,0,0,.27,1,.83.83,0,0,0,1.29,0,1.46,1.46,0,0,0,.26-.94,1.54,1.54,0,0,0-.27-1,.82.82,0,0,0-.66-.33.81.81,0,0,0-.63.31A1.55,1.55,0,0,0,40.56,69.59Z" transform="translate(0.01 -22.33)"/><path class="cls-4" d="M46,71.28v-.5a1.22,1.22,0,0,1-1.06.57,1.47,1.47,0,0,1-.56-.11.87.87,0,0,1-.56-.71,2.35,2.35,0,0,1,0-.54V67.91h.57v1.87a3.5,3.5,0,0,0,0,.6.57.57,0,0,0,.23.35.67.67,0,0,0,.43.13.91.91,0,0,0,.48-.13.74.74,0,0,0,.32-.36,1.86,1.86,0,0,0,.09-.66v-1.8h.58v3.37Z" transform="translate(0.01 -22.33)"/><path class="cls-4" d="M47.4,71.28V67.91h.52v.51a1.47,1.47,0,0,1,.36-.48.7.7,0,0,1,.37-.11,1.15,1.15,0,0,1,.59.18l-.2.53a.84.84,0,0,0-.42-.12.56.56,0,0,0-.55.43,2.29,2.29,0,0,0-.09.66v1.77Z" transform="translate(0.01 -22.33)"/><path class="cls-4" d="M51.77,70.86a2,2,0,0,1-.61.38,1.61,1.61,0,0,1-.63.11,1.22,1.22,0,0,1-.85-.27.89.89,0,0,1-.3-.69.94.94,0,0,1,.11-.45,1,1,0,0,1,.3-.33,1.18,1.18,0,0,1,.41-.19,4.17,4.17,0,0,1,.51-.09,5.49,5.49,0,0,0,1-.19V69a.61.61,0,0,0-.16-.49,1,1,0,0,0-.65-.2,1.06,1.06,0,0,0-.6.14.92.92,0,0,0-.28.5l-.56-.07a1.34,1.34,0,0,1,.25-.58,1.12,1.12,0,0,1,.51-.34,2.2,2.2,0,0,1,.76-.12,2,2,0,0,1,.7.1,1,1,0,0,1,.4.26,1,1,0,0,1,.18.39,3.28,3.28,0,0,1,0,.52v.76a8.68,8.68,0,0,0,0,1,1.27,1.27,0,0,0,.15.41h-.6A1.29,1.29,0,0,1,51.77,70.86Zm0-1.27a4.63,4.63,0,0,1-.94.21,1.56,1.56,0,0,0-.49.12.47.47,0,0,0-.23.18.5.5,0,0,0-.08.27.49.49,0,0,0,.17.38.73.73,0,0,0,.51.16,1.15,1.15,0,0,0,.59-.15,1,1,0,0,0,.38-.39,1.41,1.41,0,0,0,.09-.57Z" transform="translate(0.01 -22.33)"/><path class="cls-4" d="M54.44,70.77l.08.5a2.37,2.37,0,0,1-.43,0,.9.9,0,0,1-.48-.1.47.47,0,0,1-.24-.26,1.9,1.9,0,0,1-.07-.67V68.35h-.42v-.44h.42v-.84l.56-.34v1.18h.58v.44h-.58v2a1.08,1.08,0,0,0,0,.32.35.35,0,0,0,.1.11.5.5,0,0,0,.2,0Z" transform="translate(0.01 -22.33)"/><path class="cls-4" d="M55,67.28v-.66h.57v.66Zm0,4V67.91h.57v3.37Z" transform="translate(0.01 -22.33)"/><path class="cls-4" d="M56.23,69.59a1.75,1.75,0,0,1,.52-1.39,1.61,1.61,0,0,1,1.06-.37,1.48,1.48,0,0,1,1.13.46,1.69,1.69,0,0,1,.45,1.25,2.24,2.24,0,0,1-.2,1,1.39,1.39,0,0,1-.57.58,1.73,1.73,0,0,1-.81.2,1.55,1.55,0,0,1-1.15-.45A1.82,1.82,0,0,1,56.23,69.59Zm.58,0a1.42,1.42,0,0,0,.29,1,.88.88,0,0,0,.71.32.9.9,0,0,0,.71-.32,1.54,1.54,0,0,0,.28-1,1.42,1.42,0,0,0-.29-.95.89.89,0,0,0-.7-.32.91.91,0,0,0-.71.32A1.44,1.44,0,0,0,56.81,69.59Z" transform="translate(0.01 -22.33)"/><path class="cls-4" d="M60.06,71.28V67.91h.51v.48a1.21,1.21,0,0,1,1.07-.56,1.43,1.43,0,0,1,.56.11.91.91,0,0,1,.39.29,1.13,1.13,0,0,1,.17.42,3.45,3.45,0,0,1,0,.55v2.08h-.57v-2a1.75,1.75,0,0,0-.06-.53.62.62,0,0,0-.24-.27.74.74,0,0,0-.4-.1.91.91,0,0,0-.63.23,1.11,1.11,0,0,0-.26.88v1.84Z" transform="translate(0.01 -22.33)"/><path class="cls-4" d="M22.47,79.08V75.71H23v.51a1.47,1.47,0,0,1,.36-.48.7.7,0,0,1,.37-.11,1.15,1.15,0,0,1,.59.18l-.2.53a.84.84,0,0,0-.42-.12.58.58,0,0,0-.34.11.6.6,0,0,0-.21.32,2.29,2.29,0,0,0-.09.66v1.77Z" transform="translate(0.01 -22.33)"/><path class="cls-4" d="M26.85,79.08v-.5a1.22,1.22,0,0,1-1.07.57,1.46,1.46,0,0,1-.55-.11.87.87,0,0,1-.56-.71,2.35,2.35,0,0,1,0-.54V75.71h.57v1.87a3.5,3.5,0,0,0,0,.6.54.54,0,0,0,.23.35.67.67,0,0,0,.43.13.91.91,0,0,0,.48-.13.74.74,0,0,0,.32-.36,1.86,1.86,0,0,0,.09-.66v-1.8h.58v3.37Z" transform="translate(0.01 -22.33)"/><path class="cls-4" d="M28.26,79.08V75.71h.51v.48a1.23,1.23,0,0,1,1.08-.56,1.47,1.47,0,0,1,.56.11.82.82,0,0,1,.38.29,1.33,1.33,0,0,1,.18.42A3.45,3.45,0,0,1,31,77v2.08h-.57V77a1.44,1.44,0,0,0-.07-.53.52.52,0,0,0-.24-.27.71.71,0,0,0-.39-.1.88.88,0,0,0-.63.23,1.11,1.11,0,0,0-.27.88v1.84Z" transform="translate(0.01 -22.33)"/><path class="cls-4" d="M31.88,79.08V75.71h.51v.48a1.21,1.21,0,0,1,1.07-.56,1.43,1.43,0,0,1,.56.11.82.82,0,0,1,.38.29,1,1,0,0,1,.18.42,3.45,3.45,0,0,1,0,.55v2.08H34V77A1.75,1.75,0,0,0,34,76.5a.62.62,0,0,0-.24-.27.74.74,0,0,0-.4-.1.91.91,0,0,0-.63.23,1.11,1.11,0,0,0-.26.88v1.84Z" transform="translate(0.01 -22.33)"/><path class="cls-4" d="M35.49,75.08v-.66h.57v.66Zm0,4V75.71h.57v3.37Z" transform="translate(0.01 -22.33)"/><path class="cls-4" d="M36.93,79.08V75.71h.52v.48a1.21,1.21,0,0,1,1.07-.56,1.47,1.47,0,0,1,.56.11.82.82,0,0,1,.38.29,1,1,0,0,1,.18.42,3.45,3.45,0,0,1,0,.55v2.08H39.1V77A1.75,1.75,0,0,0,39,76.5a.62.62,0,0,0-.24-.27.74.74,0,0,0-.4-.1.91.91,0,0,0-.63.23,1.11,1.11,0,0,0-.26.88v1.84Z" transform="translate(0.01 -22.33)"/><path class="cls-4" d="M40.44,79.36l.56.08a.51.51,0,0,0,.19.37.93.93,0,0,0,.58.16,1,1,0,0,0,.62-.16.76.76,0,0,0,.29-.44,3.83,3.83,0,0,0,0-.73,1.18,1.18,0,0,1-.93.44,1.28,1.28,0,0,1-1.08-.5,2,2,0,0,1-.38-1.21,2.35,2.35,0,0,1,.17-.89,1.46,1.46,0,0,1,.51-.63,1.35,1.35,0,0,1,.78-.22,1.19,1.19,0,0,1,1,.48v-.4h.53v2.91a2.72,2.72,0,0,1-.16,1.12,1.2,1.2,0,0,1-.51.51,1.7,1.7,0,0,1-.85.2,1.65,1.65,0,0,1-1-.28A1,1,0,0,1,40.44,79.36Zm.48-2a1.44,1.44,0,0,0,.26,1,.88.88,0,0,0,1.32,0,1.4,1.4,0,0,0,.27-1,1.34,1.34,0,0,0-.28-.93.84.84,0,0,0-.66-.32.86.86,0,0,0-.65.31A1.42,1.42,0,0,0,40.92,77.33Z" transform="translate(0.01 -22.33)"/><path class="cls-4" d="M46,79.08V75.71h.52v.51a1.47,1.47,0,0,1,.36-.48.67.67,0,0,1,.37-.11,1.09,1.09,0,0,1,.58.18l-.19.53a.84.84,0,0,0-.42-.12.58.58,0,0,0-.34.11.6.6,0,0,0-.21.32,2.28,2.28,0,0,0-.1.66v1.77Z" transform="translate(0.01 -22.33)"/><path class="cls-4" d="M50.33,78.66a2,2,0,0,1-.61.38,1.61,1.61,0,0,1-.63.11,1.22,1.22,0,0,1-.85-.27.89.89,0,0,1-.3-.69.94.94,0,0,1,.11-.45,1,1,0,0,1,.3-.33,1.18,1.18,0,0,1,.41-.19,4.17,4.17,0,0,1,.51-.09,5.49,5.49,0,0,0,1-.19v-.15a.61.61,0,0,0-.16-.49,1,1,0,0,0-.65-.2,1.06,1.06,0,0,0-.6.14.86.86,0,0,0-.28.5L48,76.67a1.34,1.34,0,0,1,.25-.58,1.09,1.09,0,0,1,.5-.34,2.26,2.26,0,0,1,.77-.12,2,2,0,0,1,.7.1,1,1,0,0,1,.4.26,1,1,0,0,1,.18.39c0,.09,0,.27,0,.52v.76a8.68,8.68,0,0,0,0,1,1.25,1.25,0,0,0,.14.41h-.59A1.29,1.29,0,0,1,50.33,78.66Zm0-1.27a4.63,4.63,0,0,1-.94.21,1.56,1.56,0,0,0-.49.12.47.47,0,0,0-.23.18.5.5,0,0,0-.08.27.49.49,0,0,0,.17.38.73.73,0,0,0,.51.16,1.15,1.15,0,0,0,.59-.15.92.92,0,0,0,.37-.39,1.24,1.24,0,0,0,.1-.57Z" transform="translate(0.01 -22.33)"/><path class="cls-4" d="M51.75,79.08V75.71h.51v.48a1.23,1.23,0,0,1,1.08-.56,1.47,1.47,0,0,1,.56.11.88.88,0,0,1,.38.29,1.33,1.33,0,0,1,.18.42,3.45,3.45,0,0,1,0,.55v2.08h-.57V77a1.44,1.44,0,0,0-.07-.53.52.52,0,0,0-.24-.27.71.71,0,0,0-.39-.1.88.88,0,0,0-.63.23,1.11,1.11,0,0,0-.27.88v1.84Z" transform="translate(0.01 -22.33)"/><path class="cls-4" d="M55.26,79.36l.56.08a.48.48,0,0,0,.19.37.91.91,0,0,0,.58.16,1,1,0,0,0,.61-.16.72.72,0,0,0,.29-.44,3.56,3.56,0,0,0,0-.73,1.2,1.2,0,0,1-.94.44,1.27,1.27,0,0,1-1.07-.5,1.92,1.92,0,0,1-.38-1.21,2.17,2.17,0,0,1,.17-.89,1.46,1.46,0,0,1,.51-.63,1.35,1.35,0,0,1,.78-.22,1.22,1.22,0,0,1,1,.48v-.4h.53v2.91A2.9,2.9,0,0,1,58,79.74a1.2,1.2,0,0,1-.51.51,1.74,1.74,0,0,1-.86.2,1.62,1.62,0,0,1-1-.28A.9.9,0,0,1,55.26,79.36Zm.47-2a1.44,1.44,0,0,0,.27,1,.83.83,0,0,0,.66.3.85.85,0,0,0,.66-.3,1.46,1.46,0,0,0,.26-1,1.39,1.39,0,0,0-.27-.93.84.84,0,0,0-1.31,0A1.37,1.37,0,0,0,55.73,77.33Z" transform="translate(0.01 -22.33)"/><path class="cls-4" d="M61.29,78l.59.07a1.49,1.49,0,0,1-.52.81,1.54,1.54,0,0,1-1,.28,1.56,1.56,0,0,1-1.18-.45,1.79,1.79,0,0,1-.43-1.28,1.86,1.86,0,0,1,.44-1.32,1.49,1.49,0,0,1,1.13-.47,1.45,1.45,0,0,1,1.11.46,1.87,1.87,0,0,1,.43,1.3,1,1,0,0,1,0,.15H59.38a1.34,1.34,0,0,0,.31.85.94.94,0,0,0,.71.29.84.84,0,0,0,.53-.16A1.13,1.13,0,0,0,61.29,78Zm-1.88-.92h1.88a1.08,1.08,0,0,0-.21-.64.88.88,0,0,0-.71-.33.93.93,0,0,0-.66.26A1.05,1.05,0,0,0,59.41,77.07Z" transform="translate(0.01 -22.33)"/><rect class="繝後Μ_逋ｽ-2" x="19.89" y="91.98" width="41.46" height="16.58"/><path class="cls-4" d="M26,119l.62.15a2,2,0,0,1-.7,1.16,1.88,1.88,0,0,1-1.23.4,2.14,2.14,0,0,1-1.22-.31,1.91,1.91,0,0,1-.72-.88,3.27,3.27,0,0,1-.24-1.25,2.8,2.8,0,0,1,.27-1.27,2,2,0,0,1,.79-.82,2.31,2.31,0,0,1,1.13-.28,2,2,0,0,1,1.18.35,1.87,1.87,0,0,1,.66,1l-.61.15a1.34,1.34,0,0,0-.47-.74,1.2,1.2,0,0,0-.77-.23,1.52,1.52,0,0,0-.9.25,1.3,1.3,0,0,0-.5.69,2.74,2.74,0,0,0-.15.9,2.92,2.92,0,0,0,.17,1,1.28,1.28,0,0,0,.54.66,1.5,1.5,0,0,0,.79.22,1.32,1.32,0,0,0,.88-.3A1.45,1.45,0,0,0,26,119Z" transform="translate(0.01 -22.33)"/><path class="cls-4" d="M27.06,119a1.76,1.76,0,0,1,.52-1.39,1.58,1.58,0,0,1,1.06-.38,1.52,1.52,0,0,1,1.14.46,1.74,1.74,0,0,1,.44,1.26,2.24,2.24,0,0,1-.19,1,1.45,1.45,0,0,1-.57.58,1.64,1.64,0,0,1-.82.21,1.48,1.48,0,0,1-1.14-.46A1.79,1.79,0,0,1,27.06,119Zm.59,0a1.44,1.44,0,0,0,.28,1,.93.93,0,0,0,.71.32.89.89,0,0,0,.71-.33,1.43,1.43,0,0,0,.28-1,1.38,1.38,0,0,0-.28-1,.95.95,0,0,0-1.42,0A1.41,1.41,0,0,0,27.65,119Z" transform="translate(0.01 -22.33)"/><path class="cls-4" d="M30.89,120.67V117.3h.51v.48a1.23,1.23,0,0,1,1.08-.56,1.47,1.47,0,0,1,.56.11.89.89,0,0,1,.38.29,1.33,1.33,0,0,1,.18.42,3.51,3.51,0,0,1,0,.56v2.07h-.57v-2a1.38,1.38,0,0,0-.07-.52.5.5,0,0,0-.24-.28.71.71,0,0,0-.39-.1.92.92,0,0,0-.63.23,1.14,1.14,0,0,0-.27.88v1.84Z" transform="translate(0.01 -22.33)"/><path class="cls-4" d="M35.75,120.16l.08.5a1.77,1.77,0,0,1-.43.06,1.07,1.07,0,0,1-.48-.1.6.6,0,0,1-.24-.26,2,2,0,0,1-.07-.68v-1.94h-.42v-.44h.42v-.83l.57-.35v1.18h.57v.44h-.57v2a1,1,0,0,0,0,.31.21.21,0,0,0,.1.11.34.34,0,0,0,.19,0Z" transform="translate(0.01 -22.33)"/><path class="cls-4" d="M36.31,116.67V116h.58v.65Zm0,4V117.3h.58v3.37Z" transform="translate(0.01 -22.33)"/><path class="cls-4" d="M37.76,120.67V117.3h.51v.48a1.21,1.21,0,0,1,1.07-.56,1.43,1.43,0,0,1,.56.11.89.89,0,0,1,.38.29,1,1,0,0,1,.18.42,3.51,3.51,0,0,1,0,.56v2.07h-.57v-2a1.67,1.67,0,0,0-.06-.52.6.6,0,0,0-.24-.28.74.74,0,0,0-.4-.1,1,1,0,0,0-.63.23,1.14,1.14,0,0,0-.26.88v1.84Z" transform="translate(0.01 -22.33)"/><path class="cls-4" d="M43.58,120.67v-.49a1.23,1.23,0,0,1-1.07.57,1.31,1.31,0,0,1-.56-.12.88.88,0,0,1-.38-.28,1.12,1.12,0,0,1-.18-.43,3.33,3.33,0,0,1,0-.53V117.3h.57v1.87a3.77,3.77,0,0,0,0,.6.68.68,0,0,0,.23.36.75.75,0,0,0,.43.12.92.92,0,0,0,.49-.13.65.65,0,0,0,.31-.36,1.61,1.61,0,0,0,.1-.65V117.3h.57v3.37Z" transform="translate(0.01 -22.33)"/><path class="cls-4" d="M44.77,119a1.76,1.76,0,0,1,.52-1.39,1.58,1.58,0,0,1,1.06-.38,1.52,1.52,0,0,1,1.14.46,1.74,1.74,0,0,1,.44,1.26,2.38,2.38,0,0,1-.19,1,1.45,1.45,0,0,1-.57.58,1.64,1.64,0,0,1-.82.21,1.48,1.48,0,0,1-1.14-.46A1.79,1.79,0,0,1,44.77,119Zm.59,0a1.44,1.44,0,0,0,.28,1,.93.93,0,0,0,.71.32.89.89,0,0,0,.71-.33,1.43,1.43,0,0,0,.28-1,1.38,1.38,0,0,0-.28-1,.95.95,0,0,0-1.42,0A1.41,1.41,0,0,0,45.36,119Z" transform="translate(0.01 -22.33)"/><path class="cls-4" d="M50.81,120.67v-.49a1.23,1.23,0,0,1-1.07.57,1.31,1.31,0,0,1-.56-.12.88.88,0,0,1-.38-.28,1.12,1.12,0,0,1-.18-.43,3.33,3.33,0,0,1,0-.53V117.3h.57v1.87a3.77,3.77,0,0,0,0,.6.68.68,0,0,0,.23.36.75.75,0,0,0,.43.12.92.92,0,0,0,.49-.13.65.65,0,0,0,.31-.36,1.61,1.61,0,0,0,.1-.65V117.3h.57v3.37Z" transform="translate(0.01 -22.33)"/><path class="cls-4" d="M52,119.66l.56-.08a.78.78,0,0,0,.27.52.9.9,0,0,0,.6.18.94.94,0,0,0,.59-.16.47.47,0,0,0,.19-.38.34.34,0,0,0-.17-.3,2.49,2.49,0,0,0-.58-.2,6.08,6.08,0,0,1-.88-.27.87.87,0,0,1-.36-.32.81.81,0,0,1-.13-.45.85.85,0,0,1,.11-.42.79.79,0,0,1,.28-.32,1.1,1.1,0,0,1,.36-.17,1.93,1.93,0,0,1,.49-.07,1.86,1.86,0,0,1,.7.12.88.88,0,0,1,.44.31,1.18,1.18,0,0,1,.2.52l-.56.08a.64.64,0,0,0-.22-.41.79.79,0,0,0-.52-.15,1,1,0,0,0-.56.13.4.4,0,0,0-.17.31.37.37,0,0,0,.07.2.53.53,0,0,0,.22.15l.51.15a7.54,7.54,0,0,1,.84.26.88.88,0,0,1,.38.3.86.86,0,0,1,.14.49,1,1,0,0,1-.17.54,1,1,0,0,1-.48.39,1.8,1.8,0,0,1-.71.14,1.53,1.53,0,0,1-1-.28A1.24,1.24,0,0,1,52,119.66Z" transform="translate(0.01 -22.33)"/><path class="cls-4" d="M22.57,128.47V125.1h.52v.51a1.31,1.31,0,0,1,.36-.47.63.63,0,0,1,.37-.12,1.17,1.17,0,0,1,.59.19l-.2.53a.86.86,0,0,0-.42-.13.54.54,0,0,0-.34.12.58.58,0,0,0-.21.31,2.36,2.36,0,0,0-.09.67v1.76Z" transform="translate(0.01 -22.33)"/><path class="cls-4" d="M27,128.47V128a1.22,1.22,0,0,1-1.07.57,1.3,1.3,0,0,1-.55-.12,1,1,0,0,1-.39-.28,1.11,1.11,0,0,1-.17-.43,2.3,2.3,0,0,1,0-.53V125.1h.57V127a3.41,3.41,0,0,0,0,.6.63.63,0,0,0,.23.36.73.73,0,0,0,.43.12.91.91,0,0,0,.48-.13.66.66,0,0,0,.32-.36,1.84,1.84,0,0,0,.09-.65V125.1h.58v3.37Z" transform="translate(0.01 -22.33)"/><path class="cls-4" d="M28.36,128.47V125.1h.51v.48A1.23,1.23,0,0,1,30,125a1.47,1.47,0,0,1,.56.11.89.89,0,0,1,.38.29,1.33,1.33,0,0,1,.18.42,3.51,3.51,0,0,1,0,.56v2.07h-.57v-2a1.38,1.38,0,0,0-.07-.52.5.5,0,0,0-.24-.28.71.71,0,0,0-.39-.1.92.92,0,0,0-.63.23,1.14,1.14,0,0,0-.27.88v1.84Z" transform="translate(0.01 -22.33)"/><path class="cls-4" d="M32,128.47V125.1h.51v.48a1.21,1.21,0,0,1,1.07-.56,1.43,1.43,0,0,1,.56.11,1,1,0,0,1,.39.29,1.13,1.13,0,0,1,.17.42,3.51,3.51,0,0,1,0,.56v2.07h-.57v-2a1.67,1.67,0,0,0-.06-.52.6.6,0,0,0-.24-.28.74.74,0,0,0-.4-.1,1,1,0,0,0-.63.23,1.18,1.18,0,0,0-.26.88v1.84Z" transform="translate(0.01 -22.33)"/><path class="cls-4" d="M35.59,124.47v-.65h.57v.65Zm0,4V125.1h.57v3.37Z" transform="translate(0.01 -22.33)"/><path class="cls-4" d="M37,128.47V125.1h.52v.48a1.21,1.21,0,0,1,1.07-.56,1.47,1.47,0,0,1,.56.11.89.89,0,0,1,.38.29,1,1,0,0,1,.18.42,3.51,3.51,0,0,1,0,.56v2.07H39.2v-2a1.67,1.67,0,0,0-.06-.52.6.6,0,0,0-.24-.28.74.74,0,0,0-.4-.1,1,1,0,0,0-.63.23,1.14,1.14,0,0,0-.26.88v1.84Z" transform="translate(0.01 -22.33)"/><path class="cls-4" d="M40.54,128.75l.56.08a.56.56,0,0,0,.19.38,1,1,0,0,0,.58.16,1.09,1.09,0,0,0,.62-.16.82.82,0,0,0,.29-.45,3.76,3.76,0,0,0,0-.73,1.18,1.18,0,0,1-.93.44,1.29,1.29,0,0,1-1.08-.5,2,2,0,0,1-.38-1.2,2.14,2.14,0,0,1,.18-.89,1.28,1.28,0,0,1,.5-.63,1.35,1.35,0,0,1,.78-.23,1.17,1.17,0,0,1,1,.49v-.41h.53V128a2.72,2.72,0,0,1-.16,1.12,1.22,1.22,0,0,1-.51.52,1.81,1.81,0,0,1-.85.19,1.65,1.65,0,0,1-1-.27A1,1,0,0,1,40.54,128.75Zm.48-2a1.47,1.47,0,0,0,.26,1,.83.83,0,0,0,.66.31.85.85,0,0,0,.66-.3,1.43,1.43,0,0,0,.27-1,1.34,1.34,0,0,0-.28-.93.85.85,0,0,0-1.31,0A1.4,1.4,0,0,0,41,126.73Z" transform="translate(0.01 -22.33)"/><path class="cls-4" d="M46.06,128.47V125.1h.52v.51a1.31,1.31,0,0,1,.36-.47.61.61,0,0,1,.37-.12,1.17,1.17,0,0,1,.59.19l-.2.53a.86.86,0,0,0-.42-.13.52.52,0,0,0-.34.12.58.58,0,0,0-.21.31,2.36,2.36,0,0,0-.09.67v1.76Z" transform="translate(0.01 -22.33)"/><path class="cls-4" d="M50.43,128.05a2,2,0,0,1-.61.39,1.81,1.81,0,0,1-.63.11,1.22,1.22,0,0,1-.85-.27.91.91,0,0,1-.3-.7,1,1,0,0,1,.11-.45,1,1,0,0,1,.3-.33,1.72,1.72,0,0,1,.41-.19,4.64,4.64,0,0,1,.51-.08,5.33,5.33,0,0,0,1-.2v-.15a.63.63,0,0,0-.16-.49,1,1,0,0,0-.65-.19,1,1,0,0,0-.6.14.83.83,0,0,0-.28.5l-.56-.08a1.34,1.34,0,0,1,.25-.58,1.14,1.14,0,0,1,.51-.34,2.2,2.2,0,0,1,.76-.12,1.94,1.94,0,0,1,.7.11.92.92,0,0,1,.4.25,1,1,0,0,1,.18.39,3.43,3.43,0,0,1,0,.53v.76a8.82,8.82,0,0,0,0,1,1.22,1.22,0,0,0,.15.4h-.6A1.29,1.29,0,0,1,50.43,128.05Zm0-1.27a4,4,0,0,1-.94.21,2.45,2.45,0,0,0-.49.12.43.43,0,0,0-.23.19.5.5,0,0,0,.09.65.78.78,0,0,0,.51.15,1.25,1.25,0,0,0,.59-.14.89.89,0,0,0,.37-.4,1.24,1.24,0,0,0,.1-.57Z" transform="translate(0.01 -22.33)"/><path class="cls-4" d="M51.85,128.47V125.1h.51v.48a1.23,1.23,0,0,1,1.08-.56,1.47,1.47,0,0,1,.56.11.89.89,0,0,1,.38.29,1.33,1.33,0,0,1,.18.42,3.51,3.51,0,0,1,0,.56v2.07H54v-2a1.38,1.38,0,0,0-.07-.52.5.5,0,0,0-.24-.28.71.71,0,0,0-.39-.1.92.92,0,0,0-.63.23,1.14,1.14,0,0,0-.27.88v1.84Z" transform="translate(0.01 -22.33)"/><path class="cls-4" d="M55.36,128.75l.56.08a.52.52,0,0,0,.19.38,1,1,0,0,0,.58.16,1.05,1.05,0,0,0,.61-.16.77.77,0,0,0,.29-.45,3.49,3.49,0,0,0,0-.73,1.19,1.19,0,0,1-.94.44,1.27,1.27,0,0,1-1.07-.5,1.91,1.91,0,0,1-.38-1.2,2.14,2.14,0,0,1,.17-.89,1.37,1.37,0,0,1,1.29-.86,1.2,1.2,0,0,1,1,.49v-.41h.53V128a2.9,2.9,0,0,1-.16,1.12,1.22,1.22,0,0,1-.51.52,1.85,1.85,0,0,1-.86.19,1.61,1.61,0,0,1-1-.27A.92.92,0,0,1,55.36,128.75Zm.47-2a1.41,1.41,0,0,0,.27,1,.81.81,0,0,0,.66.31.85.85,0,0,0,.66-.3,1.49,1.49,0,0,0,.26-1,1.39,1.39,0,0,0-.27-.93.83.83,0,0,0-.66-.31.81.81,0,0,0-.65.31A1.35,1.35,0,0,0,55.83,126.73Z" transform="translate(0.01 -22.33)"/><path class="cls-4" d="M61.39,127.39l.59.07a1.5,1.5,0,0,1-.52.8,1.54,1.54,0,0,1-1,.29,1.57,1.57,0,0,1-1.18-.46,1.77,1.77,0,0,1-.43-1.28,1.9,1.9,0,0,1,.44-1.32,1.58,1.58,0,0,1,2.24,0,1.87,1.87,0,0,1,.43,1.3,1,1,0,0,1,0,.15H59.48a1.32,1.32,0,0,0,.31.85.94.94,0,0,0,.71.3.89.89,0,0,0,.54-.17A1.16,1.16,0,0,0,61.39,127.39Zm-1.88-.93h1.88a1.13,1.13,0,0,0-.21-.64.88.88,0,0,0-.71-.33.9.9,0,0,0-.66.27A1,1,0,0,0,59.51,126.46Z" transform="translate(0.01 -22.33)"/><path class="cls-4" d="M44.05,150.56l.58-.06a1.32,1.32,0,0,0,.19.58,1,1,0,0,0,.47.36,1.8,1.8,0,0,0,.71.14,1.73,1.73,0,0,0,.63-.11.87.87,0,0,0,.4-.28.68.68,0,0,0,.13-.4.55.55,0,0,0-.13-.38.86.86,0,0,0-.42-.28c-.12,0-.4-.12-.82-.23a4.09,4.09,0,0,1-.9-.29,1.19,1.19,0,0,1-.5-.43,1.06,1.06,0,0,1-.16-.58,1.16,1.16,0,0,1,.2-.66,1.18,1.18,0,0,1,.58-.46,2.15,2.15,0,0,1,.85-.16,2.22,2.22,0,0,1,.92.17,1.27,1.27,0,0,1,.6.49,1.32,1.32,0,0,1,.23.73l-.59,0a1,1,0,0,0-.32-.66,1.24,1.24,0,0,0-.81-.23,1.27,1.27,0,0,0-.81.21.61.61,0,0,0-.26.49A.52.52,0,0,0,45,149a2.39,2.39,0,0,0,.93.33,7.58,7.58,0,0,1,1,.3,1.41,1.41,0,0,1,.6.48,1.14,1.14,0,0,1,.19.66,1.3,1.3,0,0,1-.21.7,1.4,1.4,0,0,1-.61.51,2.19,2.19,0,0,1-.9.18A2.76,2.76,0,0,1,45,152a1.59,1.59,0,0,1-.67-.56A1.56,1.56,0,0,1,44.05,150.56Z" transform="translate(0.01 -22.33)"/><path class="cls-4" d="M48.52,153.34v-4.66H49v.44a1.29,1.29,0,0,1,.42-.39,1.19,1.19,0,0,1,.56-.13,1.31,1.31,0,0,1,.76.23,1.29,1.29,0,0,1,.5.62,2.35,2.35,0,0,1,.17.89,2.15,2.15,0,0,1-.19.93,1.36,1.36,0,0,1-.54.64,1.42,1.42,0,0,1-.74.22,1.14,1.14,0,0,1-.52-.12,1.25,1.25,0,0,1-.37-.31v1.64Zm.52-3a1.52,1.52,0,0,0,.26,1,.84.84,0,0,0,.64.31.82.82,0,0,0,.65-.33,1.5,1.5,0,0,0,.27-1,1.56,1.56,0,0,0-.26-1,.79.79,0,0,0-1.28,0A1.52,1.52,0,0,0,49,150.38Z" transform="translate(0.01 -22.33)"/><path class="cls-4" d="M54.44,151,55,151a1.43,1.43,0,0,1-.51.8,1.6,1.6,0,0,1-1,.29,1.56,1.56,0,0,1-1.17-.46,1.77,1.77,0,0,1-.43-1.28,1.89,1.89,0,0,1,.43-1.32,1.51,1.51,0,0,1,1.14-.47,1.45,1.45,0,0,1,1.1.46,1.82,1.82,0,0,1,.43,1.3v.15H52.54a1.28,1.28,0,0,0,.31.85.92.92,0,0,0,.7.3.89.89,0,0,0,.54-.17A1,1,0,0,0,54.44,151ZM52.57,150h1.88a1.21,1.21,0,0,0-.22-.64.86.86,0,0,0-.7-.33.9.9,0,0,0-.67.27A1.07,1.07,0,0,0,52.57,150Z" transform="translate(0.01 -22.33)"/><path class="cls-4" d="M58.06,151l.59.07a1.44,1.44,0,0,1-.52.8,1.54,1.54,0,0,1-1,.29,1.57,1.57,0,0,1-1.18-.46,1.77,1.77,0,0,1-.43-1.28,1.9,1.9,0,0,1,.44-1.32,1.49,1.49,0,0,1,1.13-.47,1.47,1.47,0,0,1,1.11.46,1.87,1.87,0,0,1,.43,1.3,1,1,0,0,1,0,.15H56.15a1.34,1.34,0,0,0,.31.85.94.94,0,0,0,.71.3.89.89,0,0,0,.54-.17A1.16,1.16,0,0,0,58.06,151ZM56.18,150h1.88a1.13,1.13,0,0,0-.21-.64.88.88,0,0,0-.71-.33.9.9,0,0,0-.66.27A1,1,0,0,0,56.18,150Z" transform="translate(0.01 -22.33)"/><path class="cls-4" d="M61.55,152.05v-.42a1.05,1.05,0,0,1-.94.5,1.3,1.3,0,0,1-.74-.23,1.33,1.33,0,0,1-.52-.62,2,2,0,0,1-.19-.91,2.47,2.47,0,0,1,.17-.92,1.37,1.37,0,0,1,.5-.63,1.43,1.43,0,0,1,.75-.22,1.21,1.21,0,0,1,.55.13,1.14,1.14,0,0,1,.38.34V147.4h.57v4.65Zm-1.8-1.68a1.5,1.5,0,0,0,.27,1,.83.83,0,0,0,.64.32.82.82,0,0,0,.64-.31,1.43,1.43,0,0,0,.26-.93,1.64,1.64,0,0,0-.26-1,.81.81,0,0,0-.66-.32.78.78,0,0,0-.64.31A1.54,1.54,0,0,0,59.75,150.37Z" transform="translate(0.01 -22.33)"/><path class="cls-4" d="M64.8,153.34V147.4h1.26v.47h-.69v5h.69v.47Z" transform="translate(0.01 -22.33)"/><path class="cls-4" d="M66.59,152.05v-3.37h.51v.51a1.31,1.31,0,0,1,.36-.47.63.63,0,0,1,.37-.12,1.17,1.17,0,0,1,.59.19l-.2.53a.86.86,0,0,0-.42-.13.52.52,0,0,0-.33.12.65.65,0,0,0-.22.31,2.31,2.31,0,0,0-.09.67v1.76Z" transform="translate(0.01 -22.33)"/><path class="cls-4" d="M68.33,152.13l1.35-4.81h.45l-1.34,4.81Z" transform="translate(0.01 -22.33)"/><path class="cls-4" d="M70.56,152.05v-3.37h.51v.47a1.38,1.38,0,0,1,.43-.4,1.16,1.16,0,0,1,.6-.15,1.13,1.13,0,0,1,.61.16.86.86,0,0,1,.34.43,1.2,1.2,0,0,1,1-.59,1.05,1.05,0,0,1,.77.28,1.2,1.2,0,0,1,.27.86v2.31h-.57v-2.12a1.91,1.91,0,0,0,0-.5.52.52,0,0,0-.2-.24.68.68,0,0,0-.35-.09.84.84,0,0,0-.59.23,1.1,1.1,0,0,0-.23.76v2h-.57v-2.19a1,1,0,0,0-.14-.57.54.54,0,0,0-.46-.19.81.81,0,0,0-.45.13.69.69,0,0,0-.29.37,1.85,1.85,0,0,0-.1.7v1.75Z" transform="translate(0.01 -22.33)"/><path class="cls-4" d="M76,148.05v-.65h.57v.65Zm0,4v-3.37h.57v3.37Z" transform="translate(0.01 -22.33)"/><path class="cls-4" d="M77.42,152.05v-3.37h.52v.48A1.2,1.2,0,0,1,79,148.6a1.47,1.47,0,0,1,.56.11A.89.89,0,0,1,80,149a1,1,0,0,1,.18.42,3.51,3.51,0,0,1,0,.56v2.07h-.57V150a1.38,1.38,0,0,0-.07-.52.53.53,0,0,0-.23-.28.77.77,0,0,0-.4-.1.92.92,0,0,0-.63.23,1.13,1.13,0,0,0-.27.88v1.84Z" transform="translate(0.01 -22.33)"/><path class="cls-4" d="M82,153.34H80.73v-.47h.69v-5h-.69v-.47H82Z" transform="translate(0.01 -22.33)"/></g></svg>