<svg xmlns="http://www.w3.org/2000/svg" viewBox="0 0 118.01 131.42"><defs><style>.cls-1,.cls-2,.cls-3,.繝医Ν繧ｯ繧ｰ繝ｩ繝廟繧ｰ繝ｬ繝ｼ邱,.邱喟0\.5pt-6{fill:none;}.cls-1,.cls-2,.邱喟0\.5pt-6{stroke:#231815;}.cls-1{stroke-linejoin:round;}.cls-1,.cls-2{stroke-width:0.14px;}.cls-2,.邱喟0\.5pt-6{stroke-miterlimit:10;}.cls-3,.繝医Ν繧ｯ繧ｰ繝ｩ繝廟繧ｰ繝ｬ繝ｼ邱{stroke:#9fa0a0;stroke-width:3px;}.cls-3{stroke-linecap:square;}.cls-4{fill:#231815;}.繝後Μ_逋ｽ{fill:#fff;}.邱喟0\.5pt-6{stroke-width:0.5px;}</style></defs><g id="Illust"><line class="cls-1" x1="101.08" y1="2.18" x2="101.08" y2="115.56"/><line class="cls-1" x1="46.94" y1="2.18" x2="46.94" y2="115.56"/><line class="cls-1" x1="74.01" y1="2.18" x2="74.01" y2="115.56"/><line class="cls-1" x1="19.86" y1="99.34" x2="110.56" y2="99.34"/><line class="cls-1" x1="19.86" y1="83.18" x2="110.56" y2="83.18"/><line class="cls-1" x1="19.86" y1="66.95" x2="110.56" y2="66.95"/><line class="cls-1" x1="19.86" y1="50.79" x2="110.56" y2="50.79"/><line class="cls-1" x1="19.86" y1="34.56" x2="110.56" y2="34.56"/><line class="cls-2" x1="19.86" y1="18.4" x2="110.56" y2="18.4"/><polyline class="cls-3" points="19.86 11.21 53.7 11.21 60.47 18.92 111.17 75.7"/><polyline class="繝医Ν繧ｯ繧ｰ繝ｩ繝廟繧ｰ繝ｬ繝ｼ邱" points="19.86 76.87 26.64 76.87 33.4 76.87 46.94 76.87 60.49 76.87 74.01 86.54 87.55 92.36 101.1 96.22 110.56 98.24"/><path class="cls-4" d="M17.24,141.38a3.52,3.52,0,0,1,.13-1,1.28,1.28,0,0,1,.39-.59,1.14,1.14,0,0,1,1.15-.1.9.9,0,0,1,.36.34,1.73,1.73,0,0,1,.23.53,3.72,3.72,0,0,1,.08.84,3.52,3.52,0,0,1-.13,1,1.31,1.31,0,0,1-.39.6,1,1,0,0,1-.65.21,1,1,0,0,1-.81-.37A2.33,2.33,0,0,1,17.24,141.38Zm.45,0a2.25,2.25,0,0,0,.21,1.18.59.59,0,0,0,1,0,2.27,2.27,0,0,0,.2-1.18,2.23,2.23,0,0,0-.2-1.17.63.63,0,0,0-.52-.29.56.56,0,0,0-.48.26A2.24,2.24,0,0,0,17.69,141.38Z" transform="translate(1.43 -21.92)"/><rect class="繝後Μ_逋ｽ" x="110.56" y="2.18" width="2.83" height="113.39"/><rect class="繝後Μ_逋ｽ" x="17.02" y="2.18" width="2.83" height="113.39"/><path class="cls-4" d="M10.27,137.13a3.2,3.2,0,0,1,.13-1,1.22,1.22,0,0,1,.38-.6,1,1,0,0,1,.65-.21,1.07,1.07,0,0,1,.51.12,1.13,1.13,0,0,1,.36.33,1.91,1.91,0,0,1,.22.54,3.72,3.72,0,0,1,.08.84,3.2,3.2,0,0,1-.13,1,1.31,1.31,0,0,1-.39.6,1,1,0,0,1-.65.21,1,1,0,0,1-.81-.37A2.36,2.36,0,0,1,10.27,137.13Zm.45,0a2.31,2.31,0,0,0,.2,1.17.58.58,0,0,0,1,0,3.36,3.36,0,0,0,0-2.34.6.6,0,0,0-.51-.29.57.57,0,0,0-.49.25A2.3,2.3,0,0,0,10.72,137.13Z" transform="translate(1.43 -21.92)"/><path class="cls-4" d="M13.29,138.9v-.5h.5v.5Z" transform="translate(1.43 -21.92)"/><path class="cls-4" d="M14.44,137.13a3.2,3.2,0,0,1,.13-1,1.22,1.22,0,0,1,.38-.6,1,1,0,0,1,.65-.21,1.07,1.07,0,0,1,.51.12,1.13,1.13,0,0,1,.36.33,1.91,1.91,0,0,1,.22.54,3.72,3.72,0,0,1,.08.84,3.2,3.2,0,0,1-.13,1,1.31,1.31,0,0,1-.39.6,1,1,0,0,1-.65.21,1,1,0,0,1-.81-.37A2.36,2.36,0,0,1,14.44,137.13Zm.45,0a2.31,2.31,0,0,0,.2,1.17.58.58,0,0,0,1,0,3.36,3.36,0,0,0,0-2.34.6.6,0,0,0-.51-.29.57.57,0,0,0-.49.25A2.3,2.3,0,0,0,14.89,137.13Z" transform="translate(1.43 -21.92)"/><path class="cls-4" d="M12.57,122.17v.42H10.21a.81.81,0,0,1,0-.31,1.71,1.71,0,0,1,.29-.47,3.81,3.81,0,0,1,.57-.54,4.48,4.48,0,0,0,.79-.76.9.9,0,0,0,.21-.53.58.58,0,0,0-.19-.44.67.67,0,0,0-.49-.18.65.65,0,0,0-.5.19.75.75,0,0,0-.2.53l-.45,0a1.12,1.12,0,0,1,.35-.77,1.16,1.16,0,0,1,.81-.26,1.13,1.13,0,0,1,.82.28.94.94,0,0,1,.3.71,1.06,1.06,0,0,1-.09.42,1.51,1.51,0,0,1-.29.44,8.11,8.11,0,0,1-.68.63,6.1,6.1,0,0,0-.5.45,1.33,1.33,0,0,0-.19.24Z" transform="translate(1.43 -21.92)"/><path class="cls-4" d="M13.29,122.59v-.5h.5v.5Z" transform="translate(1.43 -21.92)"/><path class="cls-4" d="M14.44,120.82a3.2,3.2,0,0,1,.13-1,1.24,1.24,0,0,1,.38-.59,1,1,0,0,1,.65-.21.95.95,0,0,1,.87.45,1.73,1.73,0,0,1,.22.53,3.72,3.72,0,0,1,.08.84,3.2,3.2,0,0,1-.13,1,1.31,1.31,0,0,1-.39.6,1,1,0,0,1-.65.21,1,1,0,0,1-.81-.37A2.34,2.34,0,0,1,14.44,120.82Zm.45,0a2.38,2.38,0,0,0,.2,1.18.59.59,0,0,0,1,0,2.25,2.25,0,0,0,.21-1.18,2.2,2.2,0,0,0-.21-1.17.62.62,0,0,0-.51-.29.58.58,0,0,0-.49.26A2.26,2.26,0,0,0,14.89,120.82Z" transform="translate(1.43 -21.92)"/><path class="cls-4" d="M11.67,106.43v-.86H10.12v-.4l1.63-2.32h.36v2.32h.49v.4h-.49v.86Zm0-1.26v-1.62l-1.12,1.62Z" transform="translate(1.43 -21.92)"/><path class="cls-4" d="M13.29,106.43v-.5h.5v.5Z" transform="translate(1.43 -21.92)"/><path class="cls-4" d="M14.44,104.66a3.2,3.2,0,0,1,.13-1A1.22,1.22,0,0,1,15,103a1,1,0,0,1,.65-.21,1.07,1.07,0,0,1,.51.12,1.13,1.13,0,0,1,.36.33,1.91,1.91,0,0,1,.22.54,3.72,3.72,0,0,1,.08.84,3.2,3.2,0,0,1-.13,1,1.31,1.31,0,0,1-.39.6,1,1,0,0,1-.65.21,1,1,0,0,1-.81-.37A2.36,2.36,0,0,1,14.44,104.66Zm.45,0a2.38,2.38,0,0,0,.2,1.18.62.62,0,0,0,.51.29.61.61,0,0,0,.51-.3,3.36,3.36,0,0,0,0-2.34.6.6,0,0,0-.51-.29.57.57,0,0,0-.49.25A2.3,2.3,0,0,0,14.89,104.66Z" transform="translate(1.43 -21.92)"/><path class="cls-4" d="M12.55,87.5l-.44,0a.85.85,0,0,0-.17-.37A.56.56,0,0,0,11.5,87a.61.61,0,0,0-.37.12,1.07,1.07,0,0,0-.32.44,2.43,2.43,0,0,0-.13.83,1.11,1.11,0,0,1,.39-.36,1,1,0,0,1,1.23.2,1.16,1.16,0,0,1,.31.84,1.39,1.39,0,0,1-.15.63,1,1,0,0,1-.4.44,1.08,1.08,0,0,1-.57.15,1.12,1.12,0,0,1-.9-.4,2,2,0,0,1-.34-1.33A2.36,2.36,0,0,1,10.63,87a1.1,1.1,0,0,1,.9-.41,1,1,0,0,1,1,.89ZM10.75,89a1,1,0,0,0,.1.44.63.63,0,0,0,.27.31.59.59,0,0,0,.36.11.61.61,0,0,0,.48-.22.91.91,0,0,0,.2-.61.84.84,0,0,0-.2-.59.66.66,0,0,0-.5-.21.69.69,0,0,0-.5.21A.76.76,0,0,0,10.75,89Z" transform="translate(1.43 -21.92)"/><path class="cls-4" d="M13.29,90.2v-.5h.5v.5Z" transform="translate(1.43 -21.92)"/><path class="cls-4" d="M14.44,88.44a3.12,3.12,0,0,1,.13-1,1.22,1.22,0,0,1,.38-.6,1,1,0,0,1,.65-.21,1.19,1.19,0,0,1,.51.11,1.06,1.06,0,0,1,.36.34,1.73,1.73,0,0,1,.22.53,3.76,3.76,0,0,1,.08.85,3.09,3.09,0,0,1-.13,1,1.31,1.31,0,0,1-.39.6,1,1,0,0,1-.65.21,1,1,0,0,1-.81-.37A2.33,2.33,0,0,1,14.44,88.44Zm.45,0a2.34,2.34,0,0,0,.2,1.17.59.59,0,0,0,1,0,3.39,3.39,0,0,0,0-2.35A.62.62,0,0,0,15.6,87a.58.58,0,0,0-.49.26A2.3,2.3,0,0,0,14.89,88.44Z" transform="translate(1.43 -21.92)"/><path class="cls-4" d="M10.94,72.1a.78.78,0,0,1-.4-.29.72.72,0,0,1-.14-.44.88.88,0,0,1,.29-.66,1,1,0,0,1,.74-.26,1.07,1.07,0,0,1,.76.27.87.87,0,0,1,.28.66.69.69,0,0,1-.13.43.84.84,0,0,1-.39.29,1,1,0,0,1,.5.35,1,1,0,0,1,.17.57,1,1,0,0,1-.33.77,1.16,1.16,0,0,1-.85.31,1.16,1.16,0,0,1-.85-.31,1,1,0,0,1-.33-.79.93.93,0,0,1,.18-.58A.88.88,0,0,1,10.94,72.1Zm-.23.91a.8.8,0,0,0,.09.36.59.59,0,0,0,.27.27.69.69,0,0,0,.37.1.72.72,0,0,0,.52-.2.7.7,0,0,0,.21-.52A.69.69,0,0,0,12,72.5a.72.72,0,0,0-.53-.21.69.69,0,0,0-.51.2A.7.7,0,0,0,10.71,73Zm.14-1.66a.57.57,0,0,0,.17.42.63.63,0,0,0,.84,0,.57.57,0,0,0,0-.8.56.56,0,0,0-.41-.16A.57.57,0,0,0,11,71,.52.52,0,0,0,10.85,71.35Z" transform="translate(1.43 -21.92)"/><path class="cls-4" d="M13.29,74v-.5h.5V74Z" transform="translate(1.43 -21.92)"/><path class="cls-4" d="M14.44,72.27a3.2,3.2,0,0,1,.13-1,1.19,1.19,0,0,1,.38-.59,1,1,0,0,1,.65-.21.95.95,0,0,1,.87.45,1.73,1.73,0,0,1,.22.53,3.72,3.72,0,0,1,.08.84,3.2,3.2,0,0,1-.13,1,1.31,1.31,0,0,1-.39.6,1,1,0,0,1-.65.21,1,1,0,0,1-.81-.37A2.34,2.34,0,0,1,14.44,72.27Zm.45,0a2.38,2.38,0,0,0,.2,1.18.59.59,0,0,0,1,0,2.25,2.25,0,0,0,.21-1.18,2.2,2.2,0,0,0-.21-1.17.62.62,0,0,0-.51-.29.58.58,0,0,0-.49.26A2.26,2.26,0,0,0,14.89,72.27Z" transform="translate(1.43 -21.92)"/><path class="cls-4" d="M9.14,57.82H8.7V55a1.83,1.83,0,0,1-.42.31,2.69,2.69,0,0,1-.46.22v-.42a3,3,0,0,0,.65-.42,1.65,1.65,0,0,0,.39-.48h.28Z" transform="translate(1.43 -21.92)"/><path class="cls-4" d="M10.27,56.05a3.2,3.2,0,0,1,.13-1,1.22,1.22,0,0,1,.38-.6,1,1,0,0,1,.65-.21,1.07,1.07,0,0,1,.51.12,1,1,0,0,1,.36.33,1.84,1.84,0,0,1,.22.53,3.82,3.82,0,0,1,.08.85,3.2,3.2,0,0,1-.13,1,1.33,1.33,0,0,1-.39.59,1,1,0,0,1-.65.22,1,1,0,0,1-.81-.37A2.36,2.36,0,0,1,10.27,56.05Zm.45,0a2.31,2.31,0,0,0,.2,1.17.59.59,0,0,0,1,0,3.36,3.36,0,0,0,0-2.34.6.6,0,0,0-.51-.29.57.57,0,0,0-.49.25A2.3,2.3,0,0,0,10.72,56.05Z" transform="translate(1.43 -21.92)"/><path class="cls-4" d="M13.29,57.82v-.51h.5v.51Z" transform="translate(1.43 -21.92)"/><path class="cls-4" d="M14.44,56.05a3.2,3.2,0,0,1,.13-1,1.22,1.22,0,0,1,.38-.6,1,1,0,0,1,.65-.21,1.07,1.07,0,0,1,.51.12,1,1,0,0,1,.36.33,1.84,1.84,0,0,1,.22.53,3.82,3.82,0,0,1,.08.85,3.2,3.2,0,0,1-.13,1,1.33,1.33,0,0,1-.39.59,1,1,0,0,1-.65.22,1,1,0,0,1-.81-.37A2.36,2.36,0,0,1,14.44,56.05Zm.45,0a2.31,2.31,0,0,0,.2,1.17.59.59,0,0,0,1,0,3.36,3.36,0,0,0,0-2.34.6.6,0,0,0-.51-.29.57.57,0,0,0-.49.25A2.3,2.3,0,0,0,14.89,56.05Z" transform="translate(1.43 -21.92)"/><path class="cls-4" d="M9.14,41.65H8.7v-2.8a2.18,2.18,0,0,1-.42.3,2.18,2.18,0,0,1-.46.23V39a3,3,0,0,0,.65-.42,2,2,0,0,0,.39-.48h.28Z" transform="translate(1.43 -21.92)"/><path class="cls-4" d="M12.57,41.23v.42H10.21a.79.79,0,0,1,0-.3,1.76,1.76,0,0,1,.29-.48,4.39,4.39,0,0,1,.57-.54,4.48,4.48,0,0,0,.79-.76.9.9,0,0,0,.21-.53.58.58,0,0,0-.19-.44.67.67,0,0,0-.49-.18.69.69,0,0,0-.5.19.77.77,0,0,0-.2.53l-.45,0a1.14,1.14,0,0,1,.35-.77,1.21,1.21,0,0,1,.81-.26,1.13,1.13,0,0,1,.82.28.94.94,0,0,1,.3.71,1,1,0,0,1-.09.42,1.51,1.51,0,0,1-.29.44,8.11,8.11,0,0,1-.68.63A6.1,6.1,0,0,0,11,41a1.33,1.33,0,0,0-.19.24Z" transform="translate(1.43 -21.92)"/><path class="cls-4" d="M13.29,41.65v-.5h.5v.5Z" transform="translate(1.43 -21.92)"/><path class="cls-4" d="M14.44,39.89a3.12,3.12,0,0,1,.13-1,1.22,1.22,0,0,1,.38-.6,1,1,0,0,1,.65-.21,1.07,1.07,0,0,1,.51.12.94.94,0,0,1,.36.33,1.73,1.73,0,0,1,.22.53,3.76,3.76,0,0,1,.08.85,3.09,3.09,0,0,1-.13,1,1.31,1.31,0,0,1-.39.6,1,1,0,0,1-.65.21,1,1,0,0,1-.81-.37A2.33,2.33,0,0,1,14.44,39.89Zm.45,0a2.34,2.34,0,0,0,.2,1.17.6.6,0,0,0,.51.29.62.62,0,0,0,.51-.29,2.23,2.23,0,0,0,.21-1.17,2.25,2.25,0,0,0-.21-1.18.62.62,0,0,0-.51-.29.58.58,0,0,0-.49.26A2.3,2.3,0,0,0,14.89,39.89Z" transform="translate(1.43 -21.92)"/><path class="cls-4" d="M9.14,25.51H8.7v-2.8a2.18,2.18,0,0,1-.42.3,2.81,2.81,0,0,1-.46.23v-.42a3,3,0,0,0,.65-.42,2,2,0,0,0,.39-.48h.28Z" transform="translate(1.43 -21.92)"/><path class="cls-4" d="M11.67,25.51v-.86H10.12v-.4l1.63-2.32h.36v2.32h.49v.4h-.49v.86Zm0-1.26V22.64l-1.12,1.61Z" transform="translate(1.43 -21.92)"/><path class="cls-4" d="M13.29,25.51V25h.5v.5Z" transform="translate(1.43 -21.92)"/><path class="cls-4" d="M14.44,23.75a3.23,3.23,0,0,1,.13-1,1.24,1.24,0,0,1,.38-.59,1,1,0,0,1,.65-.21,1.19,1.19,0,0,1,.51.11,1.06,1.06,0,0,1,.36.34,1.73,1.73,0,0,1,.22.53,3.76,3.76,0,0,1,.08.85,3.09,3.09,0,0,1-.13,1,1.31,1.31,0,0,1-.39.6,1,1,0,0,1-.65.21,1,1,0,0,1-.81-.37A2.33,2.33,0,0,1,14.44,23.75Zm.45,0a2.36,2.36,0,0,0,.2,1.17.59.59,0,0,0,1,0,2.23,2.23,0,0,0,.21-1.17,2.25,2.25,0,0,0-.21-1.18.62.62,0,0,0-.51-.29.58.58,0,0,0-.49.26A2.3,2.3,0,0,0,14.89,23.75Z" transform="translate(1.43 -21.92)"/><path class="cls-4" d="M108.19,140.45l-.44,0a.71.71,0,0,0-.17-.37.56.56,0,0,0-.44-.19.61.61,0,0,0-.36.11,1,1,0,0,0-.33.45,2.41,2.41,0,0,0-.13.82,1,1,0,0,1,.39-.35,1,1,0,0,1,.48-.12,1,1,0,0,1,.75.32,1.16,1.16,0,0,1,.31.84,1.32,1.32,0,0,1-.15.62,1.08,1.08,0,0,1-.39.45,1.14,1.14,0,0,1-.58.15,1.12,1.12,0,0,1-.9-.4,2.07,2.07,0,0,1-.34-1.34,2.33,2.33,0,0,1,.38-1.5,1.08,1.08,0,0,1,.9-.41,1,1,0,0,1,.69.23A1,1,0,0,1,108.19,140.45Zm-1.8,1.54a.91.91,0,0,0,.1.43.7.7,0,0,0,.63.43.62.62,0,0,0,.48-.23.9.9,0,0,0,.2-.61.83.83,0,0,0-.2-.58.66.66,0,0,0-.5-.21.69.69,0,0,0-.5.21A.76.76,0,0,0,106.39,142Z" transform="translate(1.43 -21.92)"/><path class="cls-4" d="M108.72,140v-.42H111V140a4.41,4.41,0,0,0-.67,1,5.35,5.35,0,0,0-.52,1.24,4.17,4.17,0,0,0-.17,1h-.45a4.4,4.4,0,0,1,.16-1,5.42,5.42,0,0,1,.46-1.15,5.11,5.11,0,0,1,.63-.94Z" transform="translate(1.43 -21.92)"/><path class="cls-4" d="M111.47,141.38a3.2,3.2,0,0,1,.13-1,1.2,1.2,0,0,1,.39-.59,1,1,0,0,1,.64-.21,1,1,0,0,1,.51.11,1.06,1.06,0,0,1,.36.34,1.73,1.73,0,0,1,.22.53,3.72,3.72,0,0,1,.08.84,3.2,3.2,0,0,1-.13,1,1.22,1.22,0,0,1-.38.6,1,1,0,0,1-.66.21,1,1,0,0,1-.81-.37A2.41,2.41,0,0,1,111.47,141.38Zm.45,0a2.25,2.25,0,0,0,.21,1.18.58.58,0,0,0,1,0,2.25,2.25,0,0,0,.21-1.18,2.2,2.2,0,0,0-.21-1.17.61.61,0,0,0-.51-.29.56.56,0,0,0-.48.26A2.15,2.15,0,0,0,111.92,141.38Z" transform="translate(1.43 -21.92)"/><path class="cls-4" d="M114.25,141.38a3.2,3.2,0,0,1,.13-1,1.28,1.28,0,0,1,.39-.59,1.14,1.14,0,0,1,1.15-.1.9.9,0,0,1,.36.34,1.73,1.73,0,0,1,.22.53,4.23,4.23,0,0,1,0,1.86,1.22,1.22,0,0,1-.38.6,1,1,0,0,1-.65.21,1,1,0,0,1-.82-.37A2.41,2.41,0,0,1,114.25,141.38Zm.45,0a2.25,2.25,0,0,0,.21,1.18.58.58,0,0,0,1,0,2.25,2.25,0,0,0,.21-1.18,2.2,2.2,0,0,0-.21-1.17.6.6,0,0,0-.51-.29.56.56,0,0,0-.48.26A2.24,2.24,0,0,0,114.7,141.38Z" transform="translate(1.43 -21.92)"/><path class="cls-4" d="M42.3,142.73v.42H39.94a.65.65,0,0,1,.05-.31,1.5,1.5,0,0,1,.29-.47,3.81,3.81,0,0,1,.57-.54,4.87,4.87,0,0,0,.79-.76.88.88,0,0,0,.2-.53.6.6,0,0,0-.18-.44.77.77,0,0,0-1,0,.74.74,0,0,0-.19.53l-.45,0a1.12,1.12,0,0,1,.35-.77,1.37,1.37,0,0,1,1.63,0,.94.94,0,0,1,.3.71,1.06,1.06,0,0,1-.09.42,1.75,1.75,0,0,1-.29.44c-.14.15-.37.36-.68.63l-.51.45a1.25,1.25,0,0,0-.18.24Z" transform="translate(1.43 -21.92)"/><path class="cls-4" d="M42.8,141.38a3.52,3.52,0,0,1,.13-1,1.33,1.33,0,0,1,.39-.59,1.14,1.14,0,0,1,1.15-.1.9.9,0,0,1,.36.34,1.73,1.73,0,0,1,.23.53,3.72,3.72,0,0,1,.08.84,3.52,3.52,0,0,1-.13,1,1.31,1.31,0,0,1-.39.6,1,1,0,0,1-.65.21,1,1,0,0,1-.81-.37A2.33,2.33,0,0,1,42.8,141.38Zm.45,0a2.25,2.25,0,0,0,.21,1.18.59.59,0,0,0,1,0,2.27,2.27,0,0,0,.2-1.18,2.23,2.23,0,0,0-.2-1.17.63.63,0,0,0-.52-.29.56.56,0,0,0-.48.26A2.24,2.24,0,0,0,43.25,141.38Z" transform="translate(1.43 -21.92)"/><path class="cls-4" d="M45.55,141.38a3.52,3.52,0,0,1,.13-1,1.33,1.33,0,0,1,.39-.59,1,1,0,0,1,.65-.21,1.06,1.06,0,0,1,.51.11,1,1,0,0,1,.35.34,1.73,1.73,0,0,1,.23.53,3.72,3.72,0,0,1,.08.84,3.52,3.52,0,0,1-.13,1,1.31,1.31,0,0,1-.39.6,1,1,0,0,1-.65.21,1,1,0,0,1-.81-.37A2.33,2.33,0,0,1,45.55,141.38Zm.45,0a2.25,2.25,0,0,0,.21,1.18.59.59,0,0,0,1,0,2.25,2.25,0,0,0,.21-1.18,2.2,2.2,0,0,0-.21-1.17.62.62,0,0,0-.51-.29.57.57,0,0,0-.49.26A2.24,2.24,0,0,0,46,141.38Z" transform="translate(1.43 -21.92)"/><path class="cls-4" d="M48.36,141.38a3.52,3.52,0,0,1,.13-1,1.33,1.33,0,0,1,.39-.59,1,1,0,0,1,.65-.21,1.06,1.06,0,0,1,.51.11,1,1,0,0,1,.35.34,1.73,1.73,0,0,1,.23.53,3.72,3.72,0,0,1,.08.84,3.52,3.52,0,0,1-.13,1,1.31,1.31,0,0,1-.39.6,1,1,0,0,1-.65.21,1,1,0,0,1-.81-.37A2.33,2.33,0,0,1,48.36,141.38Zm.46,0a2.27,2.27,0,0,0,.2,1.18.59.59,0,0,0,1,0,2.25,2.25,0,0,0,.21-1.18,2.2,2.2,0,0,0-.21-1.17.62.62,0,0,0-.51-.29.57.57,0,0,0-.49.26A2.26,2.26,0,0,0,48.82,141.38Z" transform="translate(1.43 -21.92)"/><path class="cls-4" d="M68.34,143.15v-.86H66.79v-.4l1.64-2.32h.35v2.32h.49v.4h-.49v.86Zm0-1.26v-1.61l-1.12,1.61Z" transform="translate(1.43 -21.92)"/><path class="cls-4" d="M69.75,141.38a3.2,3.2,0,0,1,.13-1,1.18,1.18,0,0,1,.39-.59,1,1,0,0,1,.64-.21,1,1,0,0,1,.51.11,1.06,1.06,0,0,1,.36.34,1.73,1.73,0,0,1,.22.53,3.72,3.72,0,0,1,.08.84,3.2,3.2,0,0,1-.13,1,1.23,1.23,0,0,1-.39.6,1.09,1.09,0,0,1-1.46-.16A2.34,2.34,0,0,1,69.75,141.38Zm.45,0a2.38,2.38,0,0,0,.2,1.18.62.62,0,0,0,.51.29.61.61,0,0,0,.51-.29,2.25,2.25,0,0,0,.21-1.18,2.2,2.2,0,0,0-.21-1.17.62.62,0,0,0-.51-.29.56.56,0,0,0-.48.26A2.15,2.15,0,0,0,70.2,141.38Z" transform="translate(1.43 -21.92)"/><path class="cls-4" d="M72.5,141.38a3.2,3.2,0,0,1,.13-1,1.25,1.25,0,0,1,.39-.59,1,1,0,0,1,.64-.21,1,1,0,0,1,.51.11,1.06,1.06,0,0,1,.36.34,1.73,1.73,0,0,1,.22.53,3.72,3.72,0,0,1,.08.84,3.2,3.2,0,0,1-.13,1,1.22,1.22,0,0,1-.38.6,1,1,0,0,1-.66.21,1,1,0,0,1-.81-.37A2.41,2.41,0,0,1,72.5,141.38Zm.45,0a2.25,2.25,0,0,0,.21,1.18.58.58,0,0,0,1,0,2.25,2.25,0,0,0,.21-1.18,2.2,2.2,0,0,0-.21-1.17.61.61,0,0,0-.51-.29.56.56,0,0,0-.48.26A2.15,2.15,0,0,0,73,141.38Z" transform="translate(1.43 -21.92)"/><path class="cls-4" d="M75.31,141.38a3.2,3.2,0,0,1,.13-1,1.33,1.33,0,0,1,.39-.59,1,1,0,0,1,.64-.21,1,1,0,0,1,.51.11,1,1,0,0,1,.36.34,1.73,1.73,0,0,1,.22.53,4.23,4.23,0,0,1,0,1.86,1.22,1.22,0,0,1-.38.6,1,1,0,0,1-.66.21,1,1,0,0,1-.81-.37A2.41,2.41,0,0,1,75.31,141.38Zm.45,0a2.25,2.25,0,0,0,.21,1.18.58.58,0,0,0,1,0,2.25,2.25,0,0,0,.21-1.18,2.2,2.2,0,0,0-.21-1.17.6.6,0,0,0-.51-.29.56.56,0,0,0-.48.26A2.24,2.24,0,0,0,75.76,141.38Z" transform="translate(1.43 -21.92)"/><path class="cls-4" d="M96.12,140.45l-.43,0a.8.8,0,0,0-.17-.37.56.56,0,0,0-.44-.19.67.67,0,0,0-.37.11,1,1,0,0,0-.32.45,2.19,2.19,0,0,0-.13.82,1,1,0,0,1,.39-.35,1,1,0,0,1,.48-.12,1,1,0,0,1,.75.32,1.21,1.21,0,0,1,.31.84,1.32,1.32,0,0,1-.15.62,1,1,0,0,1-.4.45,1.1,1.1,0,0,1-.57.15,1.12,1.12,0,0,1-.9-.4,2.07,2.07,0,0,1-.35-1.34,2.32,2.32,0,0,1,.39-1.5,1.08,1.08,0,0,1,.9-.41.94.94,0,0,1,1,.89ZM94.33,142a.91.91,0,0,0,.1.43.7.7,0,0,0,.63.43.62.62,0,0,0,.48-.23.9.9,0,0,0,.2-.61.83.83,0,0,0-.2-.58.66.66,0,0,0-.5-.21.67.67,0,0,0-.5.21A.76.76,0,0,0,94.33,142Z" transform="translate(1.43 -21.92)"/><path class="cls-4" d="M96.65,141.38a3.52,3.52,0,0,1,.13-1,1.28,1.28,0,0,1,.39-.59,1,1,0,0,1,.65-.21.95.95,0,0,1,.87.45,2,2,0,0,1,.22.53,3.72,3.72,0,0,1,.08.84,3.2,3.2,0,0,1-.13,1,1.31,1.31,0,0,1-.39.6,1,1,0,0,1-.65.21,1,1,0,0,1-.81-.37A2.33,2.33,0,0,1,96.65,141.38Zm.46,0a2.38,2.38,0,0,0,.2,1.18.59.59,0,0,0,1,0,2.25,2.25,0,0,0,.21-1.18,2.2,2.2,0,0,0-.21-1.17.62.62,0,0,0-.51-.29.58.58,0,0,0-.49.26A2.26,2.26,0,0,0,97.11,141.38Z" transform="translate(1.43 -21.92)"/><path class="cls-4" d="M99.41,141.38a3.2,3.2,0,0,1,.13-1,1.19,1.19,0,0,1,.38-.59,1,1,0,0,1,.65-.21.95.95,0,0,1,.87.45,1.73,1.73,0,0,1,.22.53,3.72,3.72,0,0,1,.08.84,3.2,3.2,0,0,1-.13,1,1.31,1.31,0,0,1-.39.6,1,1,0,0,1-.65.21,1,1,0,0,1-.81-.37A2.34,2.34,0,0,1,99.41,141.38Zm.45,0a2.38,2.38,0,0,0,.2,1.18.59.59,0,0,0,1,0,2.25,2.25,0,0,0,.21-1.18,2.2,2.2,0,0,0-.21-1.17.62.62,0,0,0-.51-.29.58.58,0,0,0-.49.26A2.26,2.26,0,0,0,99.86,141.38Z" transform="translate(1.43 -21.92)"/><path class="cls-4" d="M102.22,141.38a3.2,3.2,0,0,1,.13-1,1.14,1.14,0,0,1,.39-.59,1,1,0,0,1,.64-.21.95.95,0,0,1,.87.45,1.73,1.73,0,0,1,.22.53,3.72,3.72,0,0,1,.08.84,3.2,3.2,0,0,1-.13,1,1.23,1.23,0,0,1-.39.6,1.09,1.09,0,0,1-1.46-.16A2.34,2.34,0,0,1,102.22,141.38Zm.45,0a2.38,2.38,0,0,0,.2,1.18.59.59,0,0,0,1,0,2.25,2.25,0,0,0,.21-1.18,2.2,2.2,0,0,0-.21-1.17.62.62,0,0,0-.51-.29.59.59,0,0,0-.49.26A2.26,2.26,0,0,0,102.67,141.38Z" transform="translate(1.43 -21.92)"/><rect class="邱喟0.5pt-6" x="19.86" y="2.18" width="90.71" height="113.39"/></g><g id="English"><rect class="繝後Μ_逋ｽ" x="23.68" y="47.04" width="47.91" height="16.58"/><path class="cls-4" d="M24.75,73.82l.59,0a1.2,1.2,0,0,0,.19.57,1.07,1.07,0,0,0,.47.37,1.76,1.76,0,0,0,.71.13,1.72,1.72,0,0,0,.62-.1.89.89,0,0,0,.4-.29.67.67,0,0,0,0-.78,1,1,0,0,0-.42-.27,7.21,7.21,0,0,0-.83-.23,4.09,4.09,0,0,1-.9-.29,1.23,1.23,0,0,1-.49-.43,1.09,1.09,0,0,1-.17-.58,1.19,1.19,0,0,1,.2-.66,1.27,1.27,0,0,1,.59-.47,2.3,2.3,0,0,1,.85-.16,2.34,2.34,0,0,1,.91.17,1.36,1.36,0,0,1,.61.49,1.43,1.43,0,0,1,.23.73l-.59,0a1,1,0,0,0-.32-.67,1.29,1.29,0,0,0-.82-.22,1.34,1.34,0,0,0-.81.2.62.62,0,0,0-.25.5.54.54,0,0,0,.18.41,2.32,2.32,0,0,0,.92.33,5,5,0,0,1,1,.3,1.28,1.28,0,0,1,.6.47,1.14,1.14,0,0,1,.2.66,1.27,1.27,0,0,1-.21.7,1.43,1.43,0,0,1-.62.51,2.11,2.11,0,0,1-.89.19,2.72,2.72,0,0,1-1.06-.19,1.46,1.46,0,0,1-.67-.55A1.63,1.63,0,0,1,24.75,73.82Z" transform="translate(1.43 -21.92)"/><path class="cls-4" d="M29.23,75.32V70.66h.57v1.67a1.26,1.26,0,0,1,1-.46,1.36,1.36,0,0,1,.65.15.89.89,0,0,1,.39.4,1.91,1.91,0,0,1,.12.76v2.14H31.4V73.18a.84.84,0,0,0-.19-.62.67.67,0,0,0-.52-.2,1,1,0,0,0-.48.13.79.79,0,0,0-.32.36,1.73,1.73,0,0,0-.09.62v1.85Z" transform="translate(1.43 -21.92)"/><path class="cls-4" d="M32.63,73.63a1.74,1.74,0,0,1,.52-1.39,1.56,1.56,0,0,1,1.06-.37,1.51,1.51,0,0,1,1.14.46,1.73,1.73,0,0,1,.44,1.25,2.24,2.24,0,0,1-.2,1,1.39,1.39,0,0,1-.57.58,1.73,1.73,0,0,1-.81.2,1.51,1.51,0,0,1-1.14-.45A1.78,1.78,0,0,1,32.63,73.63Zm.59,0a1.42,1.42,0,0,0,.28,1,.88.88,0,0,0,.71.32.9.9,0,0,0,.71-.32,1.82,1.82,0,0,0,0-1.94.93.93,0,0,0-.71-.32.91.91,0,0,0-.71.32A1.44,1.44,0,0,0,33.22,73.63Z" transform="translate(1.43 -21.92)"/><path class="cls-4" d="M36.45,75.32V72H37v.51a1.47,1.47,0,0,1,.37-.48.66.66,0,0,1,.36-.11,1.12,1.12,0,0,1,.59.18l-.2.53a.84.84,0,0,0-.42-.12.57.57,0,0,0-.33.11.6.6,0,0,0-.21.32,2,2,0,0,0-.1.66v1.77Z" transform="translate(1.43 -21.92)"/><path class="cls-4" d="M39.87,74.81l.08.5a2.37,2.37,0,0,1-.43,0,.9.9,0,0,1-.48-.1.53.53,0,0,1-.25-.26,2.19,2.19,0,0,1-.07-.67V72.39h-.41V72h.41v-.84l.57-.34V72h.58v.44h-.58v2a1.08,1.08,0,0,0,0,.32.35.35,0,0,0,.1.11.5.5,0,0,0,.2,0Z" transform="translate(1.43 -21.92)"/><path class="cls-4" d="M40.2,73.92v-.57H42v.57Z" transform="translate(1.43 -21.92)"/><path class="cls-4" d="M44.78,75.32v-.43a1,1,0,0,1-1,.5,1.33,1.33,0,0,1-.74-.22,1.45,1.45,0,0,1-.52-.62,2.22,2.22,0,0,1-.18-.92,2.42,2.42,0,0,1,.16-.91,1.34,1.34,0,0,1,1.26-.85,1.08,1.08,0,0,1,.54.13,1,1,0,0,1,.39.33V70.66h.57v4.66ZM43,73.63a1.46,1.46,0,0,0,.27,1,.83.83,0,0,0,1.29,0,1.46,1.46,0,0,0,.26-.94,1.54,1.54,0,0,0-.27-1,.82.82,0,0,0-.66-.33.81.81,0,0,0-.63.31A1.55,1.55,0,0,0,43,73.63Z" transform="translate(1.43 -21.92)"/><path class="cls-4" d="M48.42,75.32v-.5a1.25,1.25,0,0,1-1.07.57,1.47,1.47,0,0,1-.56-.11A1,1,0,0,1,46.4,75a1.06,1.06,0,0,1-.17-.42,3.21,3.21,0,0,1,0-.54V72h.57v1.86a3.65,3.65,0,0,0,0,.61.57.57,0,0,0,.23.35.67.67,0,0,0,.43.13.91.91,0,0,0,.48-.13.74.74,0,0,0,.32-.36,1.86,1.86,0,0,0,.09-.66V72h.58v3.37Z" transform="translate(1.43 -21.92)"/><path class="cls-4" d="M49.81,75.32V72h.52v.51a1.47,1.47,0,0,1,.36-.48.7.7,0,0,1,.37-.11,1.15,1.15,0,0,1,.59.18l-.2.53a.84.84,0,0,0-.42-.12.58.58,0,0,0-.34.11.6.6,0,0,0-.21.32,2.29,2.29,0,0,0-.09.66v1.77Z" transform="translate(1.43 -21.92)"/><path class="cls-4" d="M54.19,74.9a2.12,2.12,0,0,1-.62.38,1.61,1.61,0,0,1-.63.11,1.22,1.22,0,0,1-.85-.27.89.89,0,0,1-.3-.69,1,1,0,0,1,.41-.78,1.18,1.18,0,0,1,.41-.19,4.17,4.17,0,0,1,.51-.09,5.49,5.49,0,0,0,1-.19V73a.61.61,0,0,0-.16-.49,1,1,0,0,0-.65-.2,1.06,1.06,0,0,0-.6.14.86.86,0,0,0-.28.5l-.56-.07a1.34,1.34,0,0,1,.25-.58,1.12,1.12,0,0,1,.51-.34,2.2,2.2,0,0,1,.76-.12,2,2,0,0,1,.7.1.93.93,0,0,1,.4.26,1,1,0,0,1,.18.39,3.28,3.28,0,0,1,0,.52v.76a8.68,8.68,0,0,0,0,1,1.27,1.27,0,0,0,.15.41h-.6A1.08,1.08,0,0,1,54.19,74.9Zm0-1.28a4,4,0,0,1-.94.22,2,2,0,0,0-.49.11.55.55,0,0,0-.23.19.5.5,0,0,0,.09.65.78.78,0,0,0,.51.15,1.15,1.15,0,0,0,.59-.14,1,1,0,0,0,.38-.39,1.43,1.43,0,0,0,.09-.58Z" transform="translate(1.43 -21.92)"/><path class="cls-4" d="M56.85,74.81l.08.5a2.37,2.37,0,0,1-.43,0,.9.9,0,0,1-.48-.1.53.53,0,0,1-.25-.26,2.19,2.19,0,0,1-.07-.67V72.39h-.41V72h.41v-.84l.57-.34V72h.58v.44h-.58v2a1.08,1.08,0,0,0,0,.32.35.35,0,0,0,.1.11.5.5,0,0,0,.2,0Z" transform="translate(1.43 -21.92)"/><path class="cls-4" d="M57.41,71.32v-.66H58v.66Zm0,4V72H58v3.37Z" transform="translate(1.43 -21.92)"/><path class="cls-4" d="M58.64,73.63a1.74,1.74,0,0,1,.52-1.39,1.56,1.56,0,0,1,1.06-.37,1.48,1.48,0,0,1,1.13.46,1.69,1.69,0,0,1,.45,1.25,2.24,2.24,0,0,1-.2,1,1.39,1.39,0,0,1-.57.58,1.73,1.73,0,0,1-.81.2,1.55,1.55,0,0,1-1.15-.45A1.82,1.82,0,0,1,58.64,73.63Zm.59,0a1.42,1.42,0,0,0,.28,1,.88.88,0,0,0,.71.32.9.9,0,0,0,.71-.32,1.54,1.54,0,0,0,.28-1,1.42,1.42,0,0,0-.29-1,.94.94,0,0,0-1.41,0A1.44,1.44,0,0,0,59.23,73.63Z" transform="translate(1.43 -21.92)"/><path class="cls-4" d="M62.47,75.32V72H63v.47a1.23,1.23,0,0,1,1.07-.55,1.43,1.43,0,0,1,.56.11.91.91,0,0,1,.39.29,1.06,1.06,0,0,1,.17.42,3.37,3.37,0,0,1,0,.55v2.08h-.57v-2a1.75,1.75,0,0,0-.06-.53.62.62,0,0,0-.24-.27.75.75,0,0,0-.4-.11.92.92,0,0,0-.63.24,1.15,1.15,0,0,0-.26.88v1.84Z" transform="translate(1.43 -21.92)"/><path class="cls-4" d="M24.88,83.12V79.75h.52v.51a1.47,1.47,0,0,1,.36-.48.7.7,0,0,1,.37-.11,1.15,1.15,0,0,1,.59.18l-.2.53a.84.84,0,0,0-.42-.12.56.56,0,0,0-.55.43,2.29,2.29,0,0,0-.09.66v1.77Z" transform="translate(1.43 -21.92)"/><path class="cls-4" d="M29.26,83.12v-.5a1.23,1.23,0,0,1-1.07.57,1.46,1.46,0,0,1-.55-.11,1,1,0,0,1-.39-.29,1.06,1.06,0,0,1-.17-.42,2.4,2.4,0,0,1,0-.54V79.75h.57v1.86a3.65,3.65,0,0,0,0,.61.57.57,0,0,0,.23.35.67.67,0,0,0,.43.13.91.91,0,0,0,.48-.13.74.74,0,0,0,.32-.36,1.86,1.86,0,0,0,.09-.66v-1.8h.57v3.37Z" transform="translate(1.43 -21.92)"/><path class="cls-4" d="M30.67,83.12V79.75h.51v.47a1.24,1.24,0,0,1,1.08-.55,1.47,1.47,0,0,1,.56.11.88.88,0,0,1,.38.29,1.24,1.24,0,0,1,.18.42,3.37,3.37,0,0,1,0,.55v2.08h-.57V81.07a1.44,1.44,0,0,0-.07-.53.52.52,0,0,0-.24-.27.71.71,0,0,0-.39-.11.88.88,0,0,0-.63.24,1.11,1.11,0,0,0-.27.88v1.84Z" transform="translate(1.43 -21.92)"/><path class="cls-4" d="M34.29,83.12V79.75h.51v.47a1.23,1.23,0,0,1,1.07-.55,1.43,1.43,0,0,1,.56.11.82.82,0,0,1,.38.29.94.94,0,0,1,.18.42A3.37,3.37,0,0,1,37,81v2.08h-.57V81.07a1.75,1.75,0,0,0-.06-.53.62.62,0,0,0-.24-.27.75.75,0,0,0-.4-.11.92.92,0,0,0-.63.24,1.11,1.11,0,0,0-.26.88v1.84Z" transform="translate(1.43 -21.92)"/><path class="cls-4" d="M37.9,79.12v-.66h.57v.66Zm0,4V79.75h.57v3.37Z" transform="translate(1.43 -21.92)"/><path class="cls-4" d="M39.34,83.12V79.75h.52v.47a1.23,1.23,0,0,1,1.07-.55,1.47,1.47,0,0,1,.56.11.82.82,0,0,1,.38.29.94.94,0,0,1,.18.42,3.37,3.37,0,0,1,0,.55v2.08h-.57V81.07a1.75,1.75,0,0,0-.06-.53.62.62,0,0,0-.24-.27.75.75,0,0,0-.4-.11.92.92,0,0,0-.63.24,1.11,1.11,0,0,0-.26.88v1.84Z" transform="translate(1.43 -21.92)"/><path class="cls-4" d="M42.85,83.4l.56.08a.53.53,0,0,0,.19.37.93.93,0,0,0,.58.16,1,1,0,0,0,.62-.16.76.76,0,0,0,.29-.44,3.89,3.89,0,0,0,0-.74,1.16,1.16,0,0,1-.93.45,1.29,1.29,0,0,1-1.08-.5,2,2,0,0,1-.38-1.21,2.35,2.35,0,0,1,.17-.89,1.46,1.46,0,0,1,.51-.63,1.35,1.35,0,0,1,.78-.22,1.19,1.19,0,0,1,1,.48v-.4h.53v2.91a2.75,2.75,0,0,1-.16,1.12,1.2,1.2,0,0,1-.51.51,1.7,1.7,0,0,1-.85.19,1.65,1.65,0,0,1-1-.27A1,1,0,0,1,42.85,83.4Zm.48-2a1.44,1.44,0,0,0,.26,1,.88.88,0,0,0,1.32,0,1.4,1.4,0,0,0,.27-1,1.34,1.34,0,0,0-.28-.93.84.84,0,0,0-.66-.32.86.86,0,0,0-.65.31A1.42,1.42,0,0,0,43.33,81.37Z" transform="translate(1.43 -21.92)"/><path class="cls-4" d="M48.37,83.12V79.75h.52v.51a1.47,1.47,0,0,1,.36-.48.67.67,0,0,1,.37-.11,1.15,1.15,0,0,1,.59.18l-.2.53a.84.84,0,0,0-.42-.12.58.58,0,0,0-.34.11.6.6,0,0,0-.21.32,2.28,2.28,0,0,0-.1.66v1.77Z" transform="translate(1.43 -21.92)"/><path class="cls-4" d="M52.74,82.7a2,2,0,0,1-.61.38,1.61,1.61,0,0,1-.63.11,1.22,1.22,0,0,1-.85-.27.89.89,0,0,1-.3-.69.94.94,0,0,1,.11-.45,1,1,0,0,1,.3-.33,1.18,1.18,0,0,1,.41-.19,4.17,4.17,0,0,1,.51-.09,5.49,5.49,0,0,0,1-.19v-.15a.61.61,0,0,0-.16-.49,1,1,0,0,0-.65-.2,1.06,1.06,0,0,0-.6.14.86.86,0,0,0-.28.5l-.56-.07a1.34,1.34,0,0,1,.25-.58,1.09,1.09,0,0,1,.5-.34,2.3,2.3,0,0,1,.77-.12,2,2,0,0,1,.7.1.93.93,0,0,1,.4.26,1,1,0,0,1,.18.39c0,.09,0,.27,0,.52v.76a8.68,8.68,0,0,0,0,1,1.07,1.07,0,0,0,.15.41h-.6A1.29,1.29,0,0,1,52.74,82.7Zm0-1.28a4,4,0,0,1-.94.22,2,2,0,0,0-.49.11.55.55,0,0,0-.23.19.5.5,0,0,0,.09.65.78.78,0,0,0,.51.15,1.15,1.15,0,0,0,.59-.14.92.92,0,0,0,.37-.39,1.26,1.26,0,0,0,.1-.58Z" transform="translate(1.43 -21.92)"/><path class="cls-4" d="M54.16,83.12V79.75h.51v.47a1.24,1.24,0,0,1,1.08-.55,1.47,1.47,0,0,1,.56.11.82.82,0,0,1,.38.29,1.24,1.24,0,0,1,.18.42,3.37,3.37,0,0,1,0,.55v2.08h-.57V81.07a1.44,1.44,0,0,0-.07-.53.52.52,0,0,0-.24-.27.71.71,0,0,0-.39-.11.88.88,0,0,0-.63.24,1.11,1.11,0,0,0-.27.88v1.84Z" transform="translate(1.43 -21.92)"/><path class="cls-4" d="M57.67,83.4l.55.08a.54.54,0,0,0,.2.37A.91.91,0,0,0,59,84a1,1,0,0,0,.61-.16.72.72,0,0,0,.29-.44,3.61,3.61,0,0,0,.05-.74,1.17,1.17,0,0,1-.94.45,1.27,1.27,0,0,1-1.07-.5,1.92,1.92,0,0,1-.38-1.21,2.17,2.17,0,0,1,.17-.89,1.46,1.46,0,0,1,.51-.63,1.35,1.35,0,0,1,.78-.22,1.22,1.22,0,0,1,1,.48v-.4h.53v2.91a2.94,2.94,0,0,1-.16,1.12,1.2,1.2,0,0,1-.51.51,1.74,1.74,0,0,1-.86.19,1.61,1.61,0,0,1-1-.27A.9.9,0,0,1,57.67,83.4Zm.47-2a1.44,1.44,0,0,0,.27,1,.83.83,0,0,0,.66.3.85.85,0,0,0,.66-.3,1.46,1.46,0,0,0,.26-1,1.39,1.39,0,0,0-.27-.93.84.84,0,0,0-1.31,0A1.37,1.37,0,0,0,58.14,81.37Z" transform="translate(1.43 -21.92)"/><path class="cls-4" d="M63.7,82l.59.07a1.49,1.49,0,0,1-.52.81,1.54,1.54,0,0,1-1,.28,1.56,1.56,0,0,1-1.18-.45,1.79,1.79,0,0,1-.43-1.28,1.86,1.86,0,0,1,.44-1.32,1.49,1.49,0,0,1,1.13-.47,1.45,1.45,0,0,1,1.11.46,1.86,1.86,0,0,1,.43,1.29s0,.09,0,.16H61.79a1.34,1.34,0,0,0,.31.85,1,1,0,0,0,.71.29.89.89,0,0,0,.54-.16A1.2,1.2,0,0,0,63.7,82Zm-1.88-.92H63.7a1.08,1.08,0,0,0-.21-.64.88.88,0,0,0-.71-.33.93.93,0,0,0-.66.26A1.05,1.05,0,0,0,61.82,81.11Z" transform="translate(1.43 -21.92)"/><path class="cls-4" d="M3.22,98.27H-.88V99.8h-.55V96.11h.55v1.54h4.1Z" transform="translate(1.43 -21.92)"/><path class="cls-4" d="M1.54,95.77a1.73,1.73,0,0,1-1.39-.52,1.58,1.58,0,0,1-.37-1.06,1.53,1.53,0,0,1,.45-1.14,1.76,1.76,0,0,1,1.26-.44,2.2,2.2,0,0,1,1,.2,1.36,1.36,0,0,1,.58.56,1.64,1.64,0,0,1,.21.82,1.51,1.51,0,0,1-.45,1.14A1.84,1.84,0,0,1,1.54,95.77Zm0-.59a1.44,1.44,0,0,0,1-.28.93.93,0,0,0,.32-.71.91.91,0,0,0-.32-.71,1.48,1.48,0,0,0-1-.28,1.4,1.4,0,0,0-.95.28.95.95,0,0,0,0,1.42A1.42,1.42,0,0,0,1.54,95.18Z" transform="translate(1.43 -21.92)"/><path class="cls-4" d="M3.22,92H-.15v-.52H.36a1.41,1.41,0,0,1-.47-.36.6.6,0,0,1-.11-.37A1.09,1.09,0,0,1,0,90.12l.53.19a.84.84,0,0,0-.12.42.51.51,0,0,0,.11.34.58.58,0,0,0,.31.21,2.35,2.35,0,0,0,.67.1H3.22Z" transform="translate(1.43 -21.92)"/><path class="cls-4" d="M4.51,87.63H2.86a1.06,1.06,0,0,1,.32.37,1.13,1.13,0,0,1,.12.51,1.34,1.34,0,0,1-.48,1A1.89,1.89,0,0,1,1.51,90a2.25,2.25,0,0,1-.92-.18A1.4,1.4,0,0,1,0,89.29a1.44,1.44,0,0,1-.2-.74,1.13,1.13,0,0,1,.52-1H-.15v-.51H4.51Zm-3,1.76a1.48,1.48,0,0,0,1-.27.84.84,0,0,0,.33-.66.8.8,0,0,0-.31-.63,1.46,1.46,0,0,0-.94-.26,1.52,1.52,0,0,0-1,.28.8.8,0,0,0-.34.65.78.78,0,0,0,.31.63A1.56,1.56,0,0,0,1.53,89.39Z" transform="translate(1.43 -21.92)"/><path class="cls-4" d="M3.22,84H2.73A1.23,1.23,0,0,1,3.3,85a1.31,1.31,0,0,1-.12.56A.88.88,0,0,1,2.9,86a1,1,0,0,1-.43.18,3.33,3.33,0,0,1-.53,0H-.15V85.6H1.72a3.77,3.77,0,0,0,.6,0,.6.6,0,0,0,.36-.23.75.75,0,0,0,.13-.43,1,1,0,0,0-.13-.48.7.7,0,0,0-.36-.32,1.63,1.63,0,0,0-.66-.1H-.15v-.57H3.22Z" transform="translate(1.43 -21.92)"/><path class="cls-4" d="M2.14,80.24l.07-.59a1.36,1.36,0,0,1,.8.52,1.54,1.54,0,0,1,.29,1,1.52,1.52,0,0,1-.46,1.17,1.77,1.77,0,0,1-1.27.44A1.86,1.86,0,0,1,.25,82.3a1.46,1.46,0,0,1-.47-1.14,1.41,1.41,0,0,1,.46-1.1,1.78,1.78,0,0,1,1.29-.43h.15v2.52a1.27,1.27,0,0,0,.85-.32.92.92,0,0,0,.3-.7.89.89,0,0,0-.17-.54A1.09,1.09,0,0,0,2.14,80.24Zm-.93,1.87V80.23a1.14,1.14,0,0,0-.63.22.88.88,0,0,0-.33.71.89.89,0,0,0,.26.66A1,1,0,0,0,1.21,82.11Z" transform="translate(1.43 -21.92)"/><path class="cls-4" d="M4.51,77.11H-1.43V75.85H-1v.69H4v-.69h.47Z" transform="translate(1.43 -21.92)"/><path class="cls-4" d="M3.22,75.25H-1.43v-.63l3.65-2.44H-1.43v-.59H3.22v.63L-.43,74.66H3.22Z" transform="translate(1.43 -21.92)"/><path class="cls-4" d="M.94,70.71a.74.74,0,0,1-.56-.24.76.76,0,0,1-.24-.57.74.74,0,0,1,.24-.56.74.74,0,0,1,.56-.24.75.75,0,0,1,.57.24.74.74,0,0,1,.24.56.76.76,0,0,1-.24.57A.75.75,0,0,1,.94,70.71Z" transform="translate(1.43 -21.92)"/><path class="cls-4" d="M3.22,68.35H-.15v-.51H.33a1.24,1.24,0,0,1-.4-.42,1.21,1.21,0,0,1-.15-.6,1.16,1.16,0,0,1,.15-.62.88.88,0,0,1,.44-.34,1.18,1.18,0,0,1-.59-1,1,1,0,0,1,.27-.77,1.2,1.2,0,0,1,.86-.27H3.22v.57H1.1a1.42,1.42,0,0,0-.49.06.44.44,0,0,0-.25.2A.62.62,0,0,0,.27,65a.79.79,0,0,0,.24.59,1,1,0,0,0,.75.24h2v.57H1a.92.92,0,0,0-.57.14.51.51,0,0,0-.19.45.81.81,0,0,0,.13.45.74.74,0,0,0,.37.3,2.12,2.12,0,0,0,.7.09H3.22Z" transform="translate(1.43 -21.92)"/><path class="cls-4" d="M4.51,62v1.26H4v-.69H-1v.69h-.47V62Z" transform="translate(1.43 -21.92)"/><rect class="繝後Μ_逋ｽ" x="24.43" y="92.39" width="41.46" height="16.58"/><path class="cls-4" d="M28.38,119l.62.15a2,2,0,0,1-.7,1.16,1.88,1.88,0,0,1-1.23.4,2.14,2.14,0,0,1-1.22-.31,2,2,0,0,1-.72-.88,3.27,3.27,0,0,1-.24-1.25,2.8,2.8,0,0,1,.27-1.27,2,2,0,0,1,.79-.82,2.31,2.31,0,0,1,1.13-.28,2,2,0,0,1,1.18.35,1.87,1.87,0,0,1,.66,1l-.61.15a1.34,1.34,0,0,0-.47-.74,1.2,1.2,0,0,0-.77-.23,1.52,1.52,0,0,0-.9.25,1.3,1.3,0,0,0-.5.69,2.74,2.74,0,0,0-.15.9,2.92,2.92,0,0,0,.17,1,1.28,1.28,0,0,0,.54.66,1.47,1.47,0,0,0,.79.22,1.32,1.32,0,0,0,.88-.3A1.45,1.45,0,0,0,28.38,119Z" transform="translate(1.43 -21.92)"/><path class="cls-4" d="M29.47,119A1.76,1.76,0,0,1,30,117.6a1.58,1.58,0,0,1,1.06-.38,1.52,1.52,0,0,1,1.14.46,1.74,1.74,0,0,1,.44,1.26,2.38,2.38,0,0,1-.19,1,1.45,1.45,0,0,1-.57.58,1.64,1.64,0,0,1-.82.21,1.48,1.48,0,0,1-1.14-.46A1.81,1.81,0,0,1,29.47,119Zm.59,0a1.39,1.39,0,0,0,.28,1,.91.91,0,0,0,.71.33.89.89,0,0,0,.71-.33,1.43,1.43,0,0,0,.28-1,1.38,1.38,0,0,0-.28-1,.95.95,0,0,0-1.42,0A1.41,1.41,0,0,0,30.06,119Z" transform="translate(1.43 -21.92)"/><path class="cls-4" d="M33.3,120.67V117.3h.51v.48a1.23,1.23,0,0,1,1.08-.56,1.47,1.47,0,0,1,.56.11,1,1,0,0,1,.38.29A1.33,1.33,0,0,1,36,118a3.51,3.51,0,0,1,0,.56v2.07h-.57v-2a1.38,1.38,0,0,0-.07-.52.5.5,0,0,0-.24-.28.71.71,0,0,0-.39-.1.92.92,0,0,0-.63.23,1.13,1.13,0,0,0-.27.88v1.84Z" transform="translate(1.43 -21.92)"/><path class="cls-4" d="M38.16,120.16l.08.5a1.72,1.72,0,0,1-.43,0,1.05,1.05,0,0,1-.48-.09.66.66,0,0,1-.24-.26,2,2,0,0,1-.07-.68v-1.94H36.6v-.44H37v-.83l.57-.35v1.18h.57v.44h-.57v2a1,1,0,0,0,0,.31.21.21,0,0,0,.1.11.34.34,0,0,0,.19,0Z" transform="translate(1.43 -21.92)"/><path class="cls-4" d="M38.72,116.67V116h.58v.65Zm0,4V117.3h.58v3.37Z" transform="translate(1.43 -21.92)"/><path class="cls-4" d="M40.17,120.67V117.3h.51v.48a1.21,1.21,0,0,1,1.07-.56,1.43,1.43,0,0,1,.56.11.89.89,0,0,1,.38.29,1,1,0,0,1,.18.42,3.51,3.51,0,0,1,0,.56v2.07h-.57v-2a1.67,1.67,0,0,0-.06-.52.6.6,0,0,0-.24-.28.74.74,0,0,0-.4-.1A1,1,0,0,0,41,118a1.13,1.13,0,0,0-.26.88v1.84Z" transform="translate(1.43 -21.92)"/><path class="cls-4" d="M46,120.67v-.49a1.23,1.23,0,0,1-1.07.57,1.34,1.34,0,0,1-.56-.12.88.88,0,0,1-.38-.28,1.3,1.3,0,0,1-.18-.43,3.33,3.33,0,0,1,0-.53V117.3h.57v1.87a3.77,3.77,0,0,0,0,.6.68.68,0,0,0,.23.36.75.75,0,0,0,.43.12.92.92,0,0,0,.49-.13.71.71,0,0,0,.32-.36,1.84,1.84,0,0,0,.09-.65V117.3h.57v3.37Z" transform="translate(1.43 -21.92)"/><path class="cls-4" d="M47.18,119a1.76,1.76,0,0,1,.52-1.39,1.58,1.58,0,0,1,1.06-.38,1.52,1.52,0,0,1,1.14.46,1.74,1.74,0,0,1,.44,1.26,2.38,2.38,0,0,1-.19,1,1.45,1.45,0,0,1-.57.58,1.64,1.64,0,0,1-.82.21,1.48,1.48,0,0,1-1.14-.46A1.81,1.81,0,0,1,47.18,119Zm.59,0a1.39,1.39,0,0,0,.28,1,.91.91,0,0,0,.71.33.89.89,0,0,0,.71-.33,1.43,1.43,0,0,0,.28-1,1.38,1.38,0,0,0-.28-1,.95.95,0,0,0-1.42,0A1.41,1.41,0,0,0,47.77,119Z" transform="translate(1.43 -21.92)"/><path class="cls-4" d="M53.22,120.67v-.49a1.23,1.23,0,0,1-1.07.57,1.34,1.34,0,0,1-.56-.12.88.88,0,0,1-.38-.28,1.3,1.3,0,0,1-.18-.43,3.33,3.33,0,0,1,0-.53V117.3h.57v1.87a3.77,3.77,0,0,0,0,.6.68.68,0,0,0,.23.36.75.75,0,0,0,.43.12.92.92,0,0,0,.49-.13.71.71,0,0,0,.32-.36,1.84,1.84,0,0,0,.09-.65V117.3h.57v3.37Z" transform="translate(1.43 -21.92)"/><path class="cls-4" d="M54.4,119.66l.56-.08a.78.78,0,0,0,.27.52.9.9,0,0,0,.6.18.94.94,0,0,0,.59-.16.52.52,0,0,0,.19-.38.34.34,0,0,0-.17-.3,2.49,2.49,0,0,0-.58-.2A6.08,6.08,0,0,1,55,119a.87.87,0,0,1-.36-.32.82.82,0,0,1-.13-.46,1,1,0,0,1,.1-.41.89.89,0,0,1,.29-.32,1.1,1.1,0,0,1,.36-.17,1.93,1.93,0,0,1,.49-.07,1.86,1.86,0,0,1,.7.12.88.88,0,0,1,.44.31,1.18,1.18,0,0,1,.2.52l-.56.08a.6.6,0,0,0-.22-.41.79.79,0,0,0-.52-.15,1,1,0,0,0-.56.13.4.4,0,0,0-.17.31.37.37,0,0,0,.07.2.53.53,0,0,0,.22.15l.51.15a5.85,5.85,0,0,1,.84.26.88.88,0,0,1,.38.3.86.86,0,0,1,.14.49,1,1,0,0,1-.17.54,1,1,0,0,1-.48.39,1.8,1.8,0,0,1-.71.14,1.53,1.53,0,0,1-1-.28A1.24,1.24,0,0,1,54.4,119.66Z" transform="translate(1.43 -21.92)"/><path class="cls-4" d="M25,128.47V125.1h.52v.51a1.31,1.31,0,0,1,.36-.47.63.63,0,0,1,.37-.12,1.17,1.17,0,0,1,.59.19l-.2.53a.86.86,0,0,0-.42-.13.52.52,0,0,0-.34.12.58.58,0,0,0-.21.31,2.31,2.31,0,0,0-.09.67v1.76Z" transform="translate(1.43 -21.92)"/><path class="cls-4" d="M29.36,128.47V128a1.22,1.22,0,0,1-1.06.57,1.31,1.31,0,0,1-.56-.12,1,1,0,0,1-.39-.28,1.11,1.11,0,0,1-.17-.43,2.3,2.3,0,0,1,0-.53V125.1h.57V127a3.41,3.41,0,0,0,0,.6.58.58,0,0,0,.23.36.73.73,0,0,0,.43.12.91.91,0,0,0,.48-.13.66.66,0,0,0,.32-.36,1.84,1.84,0,0,0,.09-.65V125.1h.58v3.37Z" transform="translate(1.43 -21.92)"/><path class="cls-4" d="M30.77,128.47V125.1h.52v.48a1.2,1.2,0,0,1,1.07-.56,1.47,1.47,0,0,1,.56.11.89.89,0,0,1,.38.29,1.33,1.33,0,0,1,.18.42,3.51,3.51,0,0,1,0,.56v2.07h-.57v-2a1.38,1.38,0,0,0-.07-.52.5.5,0,0,0-.24-.28.71.71,0,0,0-.39-.1.92.92,0,0,0-.63.23,1.13,1.13,0,0,0-.27.88v1.84Z" transform="translate(1.43 -21.92)"/><path class="cls-4" d="M34.39,128.47V125.1h.51v.48A1.21,1.21,0,0,1,36,125a1.43,1.43,0,0,1,.56.11,1,1,0,0,1,.39.29,1.13,1.13,0,0,1,.17.42,3.51,3.51,0,0,1,0,.56v2.07h-.57v-2a1.67,1.67,0,0,0-.06-.52.6.6,0,0,0-.24-.28.74.74,0,0,0-.4-.1,1,1,0,0,0-.63.23,1.17,1.17,0,0,0-.26.88v1.84Z" transform="translate(1.43 -21.92)"/><path class="cls-4" d="M38,124.47v-.65h.57v.65Zm0,4V125.1h.57v3.37Z" transform="translate(1.43 -21.92)"/><path class="cls-4" d="M39.44,128.47V125.1H40v.48A1.21,1.21,0,0,1,41,125a1.47,1.47,0,0,1,.56.11.89.89,0,0,1,.38.29,1,1,0,0,1,.18.42,3.51,3.51,0,0,1,0,.56v2.07h-.57v-2a1.67,1.67,0,0,0-.06-.52.6.6,0,0,0-.24-.28.74.74,0,0,0-.4-.1,1,1,0,0,0-.63.23,1.13,1.13,0,0,0-.26.88v1.84Z" transform="translate(1.43 -21.92)"/><path class="cls-4" d="M43,128.75l.56.08a.56.56,0,0,0,.19.38,1,1,0,0,0,.59.16,1.08,1.08,0,0,0,.61-.16.82.82,0,0,0,.29-.45,3.76,3.76,0,0,0,0-.73,1.18,1.18,0,0,1-.93.44,1.29,1.29,0,0,1-1.08-.5,2,2,0,0,1-.38-1.2,2.14,2.14,0,0,1,.18-.89,1.28,1.28,0,0,1,.5-.63,1.35,1.35,0,0,1,.78-.23,1.17,1.17,0,0,1,1,.49v-.41h.53V128a2.72,2.72,0,0,1-.16,1.12,1.22,1.22,0,0,1-.51.52,1.81,1.81,0,0,1-.85.19,1.65,1.65,0,0,1-1-.27A1,1,0,0,1,43,128.75Zm.48-2a1.48,1.48,0,0,0,.26,1,.86.86,0,0,0,1.32,0,1.38,1.38,0,0,0,.27-1,1.34,1.34,0,0,0-.28-.93.85.85,0,0,0-1.31,0A1.39,1.39,0,0,0,43.43,126.72Z" transform="translate(1.43 -21.92)"/><path class="cls-4" d="M48.47,128.47V125.1H49v.51a1.31,1.31,0,0,1,.36-.47.63.63,0,0,1,.37-.12,1.17,1.17,0,0,1,.59.19l-.2.53a.86.86,0,0,0-.42-.13.52.52,0,0,0-.34.12.58.58,0,0,0-.21.31,2.31,2.31,0,0,0-.09.67v1.76Z" transform="translate(1.43 -21.92)"/><path class="cls-4" d="M52.84,128.05a2.22,2.22,0,0,1-.61.39,1.81,1.81,0,0,1-.63.11,1.22,1.22,0,0,1-.85-.27.92.92,0,0,1-.3-.7,1,1,0,0,1,.11-.45,1,1,0,0,1,.3-.33,1.72,1.72,0,0,1,.41-.19,4.64,4.64,0,0,1,.51-.08,5.33,5.33,0,0,0,1-.2v-.15a.63.63,0,0,0-.16-.49,1,1,0,0,0-.65-.19,1,1,0,0,0-.6.14.83.83,0,0,0-.28.5l-.56-.08a1.34,1.34,0,0,1,.25-.58,1.14,1.14,0,0,1,.51-.34,2.2,2.2,0,0,1,.76-.12,1.94,1.94,0,0,1,.7.11.92.92,0,0,1,.4.25,1,1,0,0,1,.18.39c0,.1,0,.27,0,.53v.76a8.82,8.82,0,0,0,0,1,1.22,1.22,0,0,0,.15.4H53A1.29,1.29,0,0,1,52.84,128.05Zm0-1.27a4,4,0,0,1-.94.21,2.45,2.45,0,0,0-.49.12.47.47,0,0,0-.23.18.57.57,0,0,0-.08.28.5.5,0,0,0,.17.38.78.78,0,0,0,.51.15,1.25,1.25,0,0,0,.59-.14.89.89,0,0,0,.37-.4,1.24,1.24,0,0,0,.1-.57Z" transform="translate(1.43 -21.92)"/><path class="cls-4" d="M54.26,128.47V125.1h.51v.48a1.23,1.23,0,0,1,1.08-.56,1.47,1.47,0,0,1,.56.11,1,1,0,0,1,.38.29,1.33,1.33,0,0,1,.18.42,3.51,3.51,0,0,1,0,.56v2.07h-.57v-2a1.38,1.38,0,0,0-.07-.52.5.5,0,0,0-.24-.28.71.71,0,0,0-.39-.1.92.92,0,0,0-.63.23,1.13,1.13,0,0,0-.27.88v1.84Z" transform="translate(1.43 -21.92)"/><path class="cls-4" d="M57.77,128.75l.56.08a.52.52,0,0,0,.19.38,1,1,0,0,0,.58.16,1.05,1.05,0,0,0,.61-.16.77.77,0,0,0,.29-.45,3.49,3.49,0,0,0,0-.73,1.19,1.19,0,0,1-.94.44A1.27,1.27,0,0,1,58,128a1.91,1.91,0,0,1-.38-1.2,2.14,2.14,0,0,1,.17-.89,1.37,1.37,0,0,1,1.29-.86,1.2,1.2,0,0,1,1,.49v-.41h.53V128a2.9,2.9,0,0,1-.16,1.12,1.22,1.22,0,0,1-.51.52,1.85,1.85,0,0,1-.86.19,1.61,1.61,0,0,1-1-.27A.92.92,0,0,1,57.77,128.75Zm.47-2a1.42,1.42,0,0,0,.27,1,.81.81,0,0,0,.66.31.83.83,0,0,0,.66-.31,1.44,1.44,0,0,0,.26-1,1.39,1.39,0,0,0-.27-.93.83.83,0,0,0-.66-.31.81.81,0,0,0-.65.31A1.34,1.34,0,0,0,58.24,126.72Z" transform="translate(1.43 -21.92)"/><path class="cls-4" d="M63.8,127.39l.59.07a1.5,1.5,0,0,1-.52.8,1.54,1.54,0,0,1-1,.29,1.57,1.57,0,0,1-1.18-.46,1.77,1.77,0,0,1-.43-1.28,1.9,1.9,0,0,1,.44-1.32,1.58,1.58,0,0,1,2.24,0,1.87,1.87,0,0,1,.43,1.3,1,1,0,0,1,0,.15H61.89a1.32,1.32,0,0,0,.31.85.94.94,0,0,0,.71.3.84.84,0,0,0,.53-.17A1.1,1.1,0,0,0,63.8,127.39Zm-1.88-.93H63.8a1.13,1.13,0,0,0-.21-.64.88.88,0,0,0-.71-.33.9.9,0,0,0-.66.27A1,1,0,0,0,61.92,126.46Z" transform="translate(1.43 -21.92)"/><path class="cls-4" d="M44.76,150.56l.58-.06a1.32,1.32,0,0,0,.19.58,1,1,0,0,0,.47.36,1.8,1.8,0,0,0,.71.14,1.73,1.73,0,0,0,.63-.11.87.87,0,0,0,.4-.28.68.68,0,0,0,.13-.4.55.55,0,0,0-.13-.38.86.86,0,0,0-.42-.28c-.12,0-.4-.12-.83-.23a4.15,4.15,0,0,1-.89-.29,1.19,1.19,0,0,1-.5-.43,1.06,1.06,0,0,1-.16-.58,1.16,1.16,0,0,1,.2-.66,1.18,1.18,0,0,1,.58-.46,2.15,2.15,0,0,1,.85-.16,2.22,2.22,0,0,1,.92.17,1.27,1.27,0,0,1,.6.49,1.32,1.32,0,0,1,.23.73l-.59,0a1,1,0,0,0-.32-.66,1.24,1.24,0,0,0-.81-.23,1.27,1.27,0,0,0-.81.21.58.58,0,0,0-.26.49.52.52,0,0,0,.18.41,2.39,2.39,0,0,0,.93.33,7.58,7.58,0,0,1,1,.3,1.41,1.41,0,0,1,.6.48,1.14,1.14,0,0,1,.19.66,1.3,1.3,0,0,1-.21.7,1.4,1.4,0,0,1-.61.51,2.19,2.19,0,0,1-.9.18,2.76,2.76,0,0,1-1.06-.18,1.59,1.59,0,0,1-.67-.56A1.56,1.56,0,0,1,44.76,150.56Z" transform="translate(1.43 -21.92)"/><path class="cls-4" d="M49.23,153.34v-4.66h.52v.44a1.29,1.29,0,0,1,.42-.39,1.19,1.19,0,0,1,.56-.13,1.31,1.31,0,0,1,.76.23,1.29,1.29,0,0,1,.5.62,2.35,2.35,0,0,1,.17.89,2.15,2.15,0,0,1-.19.93,1.36,1.36,0,0,1-.54.64,1.42,1.42,0,0,1-.74.22,1.14,1.14,0,0,1-.52-.12,1.25,1.25,0,0,1-.37-.31v1.64Zm.52-3a1.52,1.52,0,0,0,.26,1,.84.84,0,0,0,.64.31.82.82,0,0,0,.65-.33,1.5,1.5,0,0,0,.27-1,1.56,1.56,0,0,0-.26-1,.79.79,0,0,0-1.28,0A1.52,1.52,0,0,0,49.75,150.38Z" transform="translate(1.43 -21.92)"/><path class="cls-4" d="M55.15,151l.59.07a1.43,1.43,0,0,1-.51.8,1.6,1.6,0,0,1-1,.29,1.56,1.56,0,0,1-1.17-.46,1.77,1.77,0,0,1-.44-1.28,1.9,1.9,0,0,1,.44-1.32,1.49,1.49,0,0,1,1.14-.47,1.45,1.45,0,0,1,1.1.46,1.82,1.82,0,0,1,.43,1.3v.15H53.25a1.28,1.28,0,0,0,.31.85.92.92,0,0,0,.7.3.89.89,0,0,0,.54-.17A1,1,0,0,0,55.15,151ZM53.28,150h1.88a1.21,1.21,0,0,0-.22-.64.86.86,0,0,0-.7-.33.9.9,0,0,0-.67.27A1.07,1.07,0,0,0,53.28,150Z" transform="translate(1.43 -21.92)"/><path class="cls-4" d="M58.77,151l.59.07a1.5,1.5,0,0,1-.52.8,1.54,1.54,0,0,1-1,.29,1.57,1.57,0,0,1-1.18-.46,1.77,1.77,0,0,1-.43-1.28,1.9,1.9,0,0,1,.44-1.32,1.58,1.58,0,0,1,2.24,0,1.87,1.87,0,0,1,.43,1.3,1,1,0,0,1,0,.15H56.86a1.34,1.34,0,0,0,.31.85.94.94,0,0,0,.71.3.89.89,0,0,0,.54-.17A1.16,1.16,0,0,0,58.77,151ZM56.89,150h1.88a1.13,1.13,0,0,0-.21-.64.88.88,0,0,0-.71-.33.9.9,0,0,0-.66.27A1,1,0,0,0,56.89,150Z" transform="translate(1.43 -21.92)"/><path class="cls-4" d="M62.26,152.05v-.42a1.05,1.05,0,0,1-.94.5,1.3,1.3,0,0,1-.74-.23,1.33,1.33,0,0,1-.52-.62,2,2,0,0,1-.19-.91,2.29,2.29,0,0,1,.17-.92,1.37,1.37,0,0,1,.5-.63,1.43,1.43,0,0,1,.75-.22,1.21,1.21,0,0,1,.55.13,1.14,1.14,0,0,1,.38.34V147.4h.57v4.65Zm-1.8-1.68a1.5,1.5,0,0,0,.27,1,.81.81,0,0,0,1.28,0,1.43,1.43,0,0,0,.26-.93,1.64,1.64,0,0,0-.26-1,.81.81,0,0,0-.66-.32.78.78,0,0,0-.64.31A1.54,1.54,0,0,0,60.46,150.37Z" transform="translate(1.43 -21.92)"/><path class="cls-4" d="M65.51,153.34V147.4h1.26v.47h-.69v5h.69v.47Z" transform="translate(1.43 -21.92)"/><path class="cls-4" d="M67.3,152.05v-3.37h.51v.51a1.31,1.31,0,0,1,.36-.47.63.63,0,0,1,.37-.12,1.17,1.17,0,0,1,.59.19l-.2.53a.86.86,0,0,0-.42-.13.54.54,0,0,0-.34.12.64.64,0,0,0-.21.31,2.31,2.31,0,0,0-.09.67v1.76Z" transform="translate(1.43 -21.92)"/><path class="cls-4" d="M69,152.13l1.35-4.81h.45l-1.34,4.81Z" transform="translate(1.43 -21.92)"/><path class="cls-4" d="M71.27,152.05v-3.37h.51v.47a1.38,1.38,0,0,1,.43-.4,1.16,1.16,0,0,1,.6-.15,1.13,1.13,0,0,1,.61.16.86.86,0,0,1,.34.43,1.2,1.2,0,0,1,1-.59,1.05,1.05,0,0,1,.77.28,1.2,1.2,0,0,1,.27.86v2.31h-.57v-2.12a1.91,1.91,0,0,0,0-.5.49.49,0,0,0-.21-.24.62.62,0,0,0-.34-.09.84.84,0,0,0-.59.23,1,1,0,0,0-.23.76v2h-.57v-2.19a1,1,0,0,0-.14-.57.54.54,0,0,0-.46-.19.81.81,0,0,0-.45.13.69.69,0,0,0-.29.37,1.85,1.85,0,0,0-.1.7v1.75Z" transform="translate(1.43 -21.92)"/><path class="cls-4" d="M76.69,148.05v-.65h.57v.65Zm0,4v-3.37h.57v3.37Z" transform="translate(1.43 -21.92)"/><path class="cls-4" d="M78.13,152.05v-3.37h.52v.48a1.2,1.2,0,0,1,1.07-.56,1.47,1.47,0,0,1,.56.11.89.89,0,0,1,.38.29,1.14,1.14,0,0,1,.18.42,3.51,3.51,0,0,1,0,.56v2.07H80.3V150a1.38,1.38,0,0,0-.07-.52.53.53,0,0,0-.23-.28.77.77,0,0,0-.4-.1.92.92,0,0,0-.63.23,1.13,1.13,0,0,0-.27.88v1.84Z" transform="translate(1.43 -21.92)"/><path class="cls-4" d="M82.7,153.34H81.44v-.47h.69v-5h-.69v-.47H82.7Z" transform="translate(1.43 -21.92)"/></g></svg>