<svg xmlns="http://www.w3.org/2000/svg" viewBox="0 0 115.9 131.16"><defs><style>.cls-1,.cls-2,.cls-3,.cls-4,.cls-5,.繝医Ν繧ｯ繧ｰ繝ｩ繝廟繧ｰ繝ｬ繝ｼ邱,.邱喟0\.5pt-4{fill:none;}.cls-1,.cls-2,.cls-5,.繝医Ν繧ｯ繧ｰ繝ｩ繝廟繧ｰ繝ｬ繝ｼ邱{stroke:#9fa0a0;}.cls-1,.cls-2,.邱喟0\.5pt-4{stroke-miterlimit:10;}.cls-1,.cls-2{stroke-width:1px;}.cls-2{stroke-dasharray:3.13 1.51;}.cls-3,.cls-4,.邱喟0\.5pt-4{stroke:#231815;}.cls-3{stroke-linejoin:round;stroke-width:0.14px;}.cls-5,.繝医Ν繧ｯ繧ｰ繝ｩ繝廟繧ｰ繝ｬ繝ｼ邱{stroke-width:3px;}.cls-5{stroke-linecap:square;}.cls-6{fill:#231815;}.繝後Μ_逋ｽ-2{fill:#fff;}.邱喟0\.5pt-4{stroke-width:0.5px;}</style></defs><g id="Illust"><line class="cls-1" x1="108.3" y1="101.4" x2="108.3" y2="102.95"/><line class="cls-2" x1="108.3" y1="104.47" x2="108.3" y2="112.99"/><line class="cls-1" x1="108.3" y1="113.74" x2="108.3" y2="115.29"/><line class="cls-3" x1="19.87" y1="103.94" x2="110.56" y2="103.94"/><line class="cls-3" x1="19.87" y1="92.62" x2="110.56" y2="92.62"/><line class="cls-3" x1="19.87" y1="81.29" x2="110.56" y2="81.29"/><line class="cls-3" x1="19.87" y1="69.97" x2="110.56" y2="69.97"/><line class="cls-3" x1="19.87" y1="58.59" x2="110.56" y2="58.59"/><line class="cls-3" x1="19.87" y1="47.26" x2="110.56" y2="47.26"/><line class="cls-3" x1="19.87" y1="35.94" x2="110.56" y2="35.94"/><line class="cls-3" x1="19.87" y1="24.61" x2="110.56" y2="24.61"/><line class="cls-3" x1="19.87" y1="13.29" x2="110.56" y2="13.29"/><line class="cls-3" x1="42.53" y1="1.91" x2="42.53" y2="115.27"/><line class="cls-3" x1="65.21" y1="1.91" x2="65.21" y2="115.27"/><line class="cls-3" x1="87.89" y1="1.91" x2="87.89" y2="115.27"/><polyline class="繝医Ν繧ｯ繧ｰ繝ｩ繝廟繧ｰ繝ｬ繝ｼ邱" points="19.86 82.49 31.19 82.49 42.53 82.49 57.28 82.49 65.22 88.21 76.55 93.66 87.89 97.24 99.22 99.8 110.56 101.78"/><polyline class="cls-4" points="19.86 82.49 31.19 82.49 42.53 82.49 57.28 82.49 65.22 88.21 76.55 93.66 87.89 97.24 99.22 99.8 110.56 101.78"/><polyline class="cls-5" points="19.86 16.89 65.22 16.89 110.56 58.61"/><polyline class="cls-4" points="19.86 16.89 60.68 16.89 87.89 41.89 110.56 61.66"/><path class="cls-6" d="M17.24,141.38a3.52,3.52,0,0,1,.13-1,1.28,1.28,0,0,1,.39-.59,1.14,1.14,0,0,1,1.15-.1.9.9,0,0,1,.36.34,1.73,1.73,0,0,1,.23.53,3.72,3.72,0,0,1,.08.84,3.52,3.52,0,0,1-.13,1,1.31,1.31,0,0,1-.39.6,1,1,0,0,1-.65.21,1,1,0,0,1-.81-.37A2.33,2.33,0,0,1,17.24,141.38Zm.45,0a2.25,2.25,0,0,0,.21,1.18.59.59,0,0,0,1,0,2.27,2.27,0,0,0,.2-1.18,2.23,2.23,0,0,0-.2-1.17.63.63,0,0,0-.52-.29.56.56,0,0,0-.48.26A2.24,2.24,0,0,0,17.69,141.38Z" transform="translate(1.43 -22.19)"/><path class="cls-6" d="M37.22,143.15h-.43v-2.8a2.54,2.54,0,0,1-.42.3,3.27,3.27,0,0,1-.46.23v-.43a2.37,2.37,0,0,0,.64-.42,1.45,1.45,0,0,0,.39-.47h.28Z" transform="translate(1.43 -22.19)"/><path class="cls-6" d="M38.38,141.38a3.2,3.2,0,0,1,.13-1,1.28,1.28,0,0,1,.39-.59,1.14,1.14,0,0,1,1.15-.1.9.9,0,0,1,.36.34,1.51,1.51,0,0,1,.22.53,4.23,4.23,0,0,1-.05,1.86,1.22,1.22,0,0,1-.38.6,1.1,1.1,0,0,1-1.47-.16A2.41,2.41,0,0,1,38.38,141.38Zm.45,0a2.25,2.25,0,0,0,.21,1.18.59.59,0,0,0,1,0,2.38,2.38,0,0,0,.2-1.18,2.34,2.34,0,0,0-.2-1.17.63.63,0,0,0-.52-.29.56.56,0,0,0-.48.26A2.24,2.24,0,0,0,38.83,141.38Z" transform="translate(1.43 -22.19)"/><path class="cls-6" d="M41.13,141.38a3.2,3.2,0,0,1,.13-1,1.28,1.28,0,0,1,.39-.59,1.14,1.14,0,0,1,1.15-.1.9.9,0,0,1,.36.34,1.51,1.51,0,0,1,.22.53,3.16,3.16,0,0,1,.09.84,3.52,3.52,0,0,1-.13,1,1.31,1.31,0,0,1-.39.6,1,1,0,0,1-.65.21,1,1,0,0,1-.81-.37A2.33,2.33,0,0,1,41.13,141.38Zm.45,0a2.25,2.25,0,0,0,.21,1.18.59.59,0,0,0,1,0,2.38,2.38,0,0,0,.2-1.18,2.34,2.34,0,0,0-.2-1.17.63.63,0,0,0-.52-.29.56.56,0,0,0-.48.26A2.24,2.24,0,0,0,41.58,141.38Z" transform="translate(1.43 -22.19)"/><path class="cls-6" d="M43.94,141.38a3.52,3.52,0,0,1,.13-1,1.28,1.28,0,0,1,.39-.59,1.14,1.14,0,0,1,1.15-.1A.9.9,0,0,1,46,140a1.73,1.73,0,0,1,.23.53,3.72,3.72,0,0,1,.08.84,3.52,3.52,0,0,1-.13,1,1.31,1.31,0,0,1-.39.6,1,1,0,0,1-.65.21,1,1,0,0,1-.81-.37A2.33,2.33,0,0,1,43.94,141.38Zm.45,0a2.25,2.25,0,0,0,.21,1.18.59.59,0,0,0,1,0,2.27,2.27,0,0,0,.2-1.18,2.23,2.23,0,0,0-.2-1.17.63.63,0,0,0-.52-.29.56.56,0,0,0-.48.26A2.24,2.24,0,0,0,44.39,141.38Z" transform="translate(1.43 -22.19)"/><path class="cls-6" d="M60.61,142.73v.42H58.24a.81.81,0,0,1,.06-.31,1.4,1.4,0,0,1,.29-.47,3.81,3.81,0,0,1,.57-.54,5.35,5.35,0,0,0,.79-.76.88.88,0,0,0,.2-.53.6.6,0,0,0-.18-.44.77.77,0,0,0-1,0,.74.74,0,0,0-.19.53l-.45,0a1.12,1.12,0,0,1,.35-.77,1.37,1.37,0,0,1,1.63,0,.94.94,0,0,1,.3.71,1.06,1.06,0,0,1-.09.42,1.75,1.75,0,0,1-.29.44c-.14.15-.37.36-.68.63s-.43.37-.51.45a1.25,1.25,0,0,0-.18.24Z" transform="translate(1.43 -22.19)"/><path class="cls-6" d="M61.11,141.38a3.52,3.52,0,0,1,.13-1,1.28,1.28,0,0,1,.39-.59,1.14,1.14,0,0,1,1.15-.1.9.9,0,0,1,.36.34,1.73,1.73,0,0,1,.23.53,3.72,3.72,0,0,1,.08.84,3.52,3.52,0,0,1-.13,1,1.31,1.31,0,0,1-.39.6,1,1,0,0,1-.65.21,1,1,0,0,1-.81-.37A2.33,2.33,0,0,1,61.11,141.38Zm.45,0a2.25,2.25,0,0,0,.21,1.18.59.59,0,0,0,1,0,2.27,2.27,0,0,0,.2-1.18,2.23,2.23,0,0,0-.2-1.17.63.63,0,0,0-.52-.29.56.56,0,0,0-.48.26A2.24,2.24,0,0,0,61.56,141.38Z" transform="translate(1.43 -22.19)"/><path class="cls-6" d="M63.86,141.38a3.52,3.52,0,0,1,.13-1,1.28,1.28,0,0,1,.39-.59,1.14,1.14,0,0,1,1.15-.1.9.9,0,0,1,.36.34,1.73,1.73,0,0,1,.23.53,3.72,3.72,0,0,1,.08.84,3.52,3.52,0,0,1-.13,1,1.31,1.31,0,0,1-.39.6,1,1,0,0,1-.65.21,1,1,0,0,1-.81-.37A2.33,2.33,0,0,1,63.86,141.38Zm.45,0a2.25,2.25,0,0,0,.21,1.18.59.59,0,0,0,1,0,2.27,2.27,0,0,0,.2-1.18,2.23,2.23,0,0,0-.2-1.17.63.63,0,0,0-.52-.29.56.56,0,0,0-.48.26A2.24,2.24,0,0,0,64.31,141.38Z" transform="translate(1.43 -22.19)"/><path class="cls-6" d="M66.67,141.38a3.52,3.52,0,0,1,.13-1,1.28,1.28,0,0,1,.39-.59,1,1,0,0,1,.65-.21,1.06,1.06,0,0,1,.51.11,1,1,0,0,1,.35.34,1.73,1.73,0,0,1,.23.53,3.72,3.72,0,0,1,.08.84,3.52,3.52,0,0,1-.13,1,1.31,1.31,0,0,1-.39.6,1,1,0,0,1-.65.21,1,1,0,0,1-.81-.37A2.33,2.33,0,0,1,66.67,141.38Zm.45,0a2.25,2.25,0,0,0,.21,1.18.59.59,0,0,0,1,0,2.25,2.25,0,0,0,.21-1.18,2.2,2.2,0,0,0-.21-1.17.62.62,0,0,0-.51-.29.57.57,0,0,0-.49.26A2.24,2.24,0,0,0,67.12,141.38Z" transform="translate(1.43 -22.19)"/><path class="cls-6" d="M81,142.2l.44,0a.94.94,0,0,0,.26.53.64.64,0,0,0,.44.17.69.69,0,0,0,.53-.22.72.72,0,0,0,.21-.53.65.65,0,0,0-.2-.5.68.68,0,0,0-.5-.19,1,1,0,0,0-.31.05l0-.39H82a.89.89,0,0,0,.51-.14.5.5,0,0,0,.22-.45.52.52,0,0,0-.16-.4.57.57,0,0,0-.43-.16.57.57,0,0,0-.42.16.77.77,0,0,0-.22.48l-.44-.08a1.1,1.1,0,0,1,.36-.68,1.07,1.07,0,0,1,.71-.24,1.19,1.19,0,0,1,.54.12,1,1,0,0,1,.38.34.88.88,0,0,1,.13.47.79.79,0,0,1-.12.42.85.85,0,0,1-.37.3.82.82,0,0,1,.49.31.88.88,0,0,1,.18.57,1.09,1.09,0,0,1-.34.8,1.24,1.24,0,0,1-.87.32,1.12,1.12,0,0,1-.78-.28A1.07,1.07,0,0,1,81,142.2Z" transform="translate(1.43 -22.19)"/><path class="cls-6" d="M83.84,141.38a3.52,3.52,0,0,1,.13-1,1.28,1.28,0,0,1,.39-.59,1.14,1.14,0,0,1,1.15-.1.9.9,0,0,1,.36.34,1.73,1.73,0,0,1,.23.53,3.72,3.72,0,0,1,.08.84,3.52,3.52,0,0,1-.13,1,1.31,1.31,0,0,1-.39.6,1,1,0,0,1-.65.21,1,1,0,0,1-.81-.37A2.33,2.33,0,0,1,83.84,141.38Zm.45,0a2.25,2.25,0,0,0,.21,1.18.59.59,0,0,0,1,0,2.27,2.27,0,0,0,.2-1.18,2.23,2.23,0,0,0-.2-1.17.63.63,0,0,0-.52-.29.56.56,0,0,0-.48.26A2.24,2.24,0,0,0,84.29,141.38Z" transform="translate(1.43 -22.19)"/><path class="cls-6" d="M86.59,141.38a3.52,3.52,0,0,1,.13-1,1.28,1.28,0,0,1,.39-.59,1,1,0,0,1,.65-.21,1.06,1.06,0,0,1,.51.11,1,1,0,0,1,.35.34,1.73,1.73,0,0,1,.23.53,3.72,3.72,0,0,1,.08.84,3.52,3.52,0,0,1-.13,1,1.31,1.31,0,0,1-.39.6,1,1,0,0,1-.65.21,1,1,0,0,1-.81-.37A2.33,2.33,0,0,1,86.59,141.38Zm.45,0a2.25,2.25,0,0,0,.21,1.18.59.59,0,0,0,1,0,2.25,2.25,0,0,0,.21-1.18,2.2,2.2,0,0,0-.21-1.17.62.62,0,0,0-.51-.29.57.57,0,0,0-.49.26A2.24,2.24,0,0,0,87,141.38Z" transform="translate(1.43 -22.19)"/><path class="cls-6" d="M89.4,141.38a3.52,3.52,0,0,1,.13-1,1.28,1.28,0,0,1,.39-.59,1,1,0,0,1,.65-.21,1.06,1.06,0,0,1,.51.11,1,1,0,0,1,.35.34,1.73,1.73,0,0,1,.23.53,3.72,3.72,0,0,1,.08.84,3.52,3.52,0,0,1-.13,1,1.31,1.31,0,0,1-.39.6,1,1,0,0,1-.65.21,1,1,0,0,1-.81-.37A2.33,2.33,0,0,1,89.4,141.38Zm.46,0a2.27,2.27,0,0,0,.2,1.18.59.59,0,0,0,1,0,2.25,2.25,0,0,0,.21-1.18,2.2,2.2,0,0,0-.21-1.17.62.62,0,0,0-.51-.29.57.57,0,0,0-.49.26A2.26,2.26,0,0,0,89.86,141.38Z" transform="translate(1.43 -22.19)"/><path class="cls-6" d="M105.17,143.15v-.86h-1.55v-.4l1.63-2.32h.36v2.32h.49v.4h-.49v.86Zm0-1.26v-1.61l-1.12,1.61Z" transform="translate(1.43 -22.19)"/><path class="cls-6" d="M106.58,141.38a3.2,3.2,0,0,1,.13-1,1.19,1.19,0,0,1,.38-.59,1,1,0,0,1,.65-.21.95.95,0,0,1,.87.45,1.73,1.73,0,0,1,.22.53,3.72,3.72,0,0,1,.08.84,3.2,3.2,0,0,1-.13,1,1.31,1.31,0,0,1-.39.6,1,1,0,0,1-.65.21,1,1,0,0,1-.81-.37A2.34,2.34,0,0,1,106.58,141.38Zm.45,0a2.38,2.38,0,0,0,.2,1.18.59.59,0,0,0,1,0,2.25,2.25,0,0,0,.21-1.18,2.2,2.2,0,0,0-.21-1.17.62.62,0,0,0-.51-.29.58.58,0,0,0-.49.26A2.26,2.26,0,0,0,107,141.38Z" transform="translate(1.43 -22.19)"/><path class="cls-6" d="M109.33,141.38a3.2,3.2,0,0,1,.13-1,1.14,1.14,0,0,1,.39-.59,1,1,0,0,1,.64-.21,1,1,0,0,1,.51.11,1.06,1.06,0,0,1,.36.34,1.73,1.73,0,0,1,.22.53,3.72,3.72,0,0,1,.08.84,3.2,3.2,0,0,1-.13,1,1.23,1.23,0,0,1-.39.6,1.09,1.09,0,0,1-1.46-.16A2.34,2.34,0,0,1,109.33,141.38Zm.45,0a2.38,2.38,0,0,0,.2,1.18.62.62,0,0,0,.51.29.6.6,0,0,0,.51-.29,2.25,2.25,0,0,0,.21-1.18,2.2,2.2,0,0,0-.21-1.17.61.61,0,0,0-.51-.29.56.56,0,0,0-.48.26A2.15,2.15,0,0,0,109.78,141.38Z" transform="translate(1.43 -22.19)"/><path class="cls-6" d="M112.14,141.38a3.2,3.2,0,0,1,.13-1,1.14,1.14,0,0,1,.39-.59,1,1,0,0,1,.64-.21,1,1,0,0,1,.51.11,1.06,1.06,0,0,1,.36.34,1.73,1.73,0,0,1,.22.53,3.72,3.72,0,0,1,.08.84,3.2,3.2,0,0,1-.13,1,1.17,1.17,0,0,1-.39.6,1.09,1.09,0,0,1-1.46-.16A2.41,2.41,0,0,1,112.14,141.38Zm.45,0a2.38,2.38,0,0,0,.2,1.18.62.62,0,0,0,.51.29.6.6,0,0,0,.51-.29,2.25,2.25,0,0,0,.21-1.18,2.2,2.2,0,0,0-.21-1.17.61.61,0,0,0-.51-.29.56.56,0,0,0-.48.26A2.15,2.15,0,0,0,112.59,141.38Z" transform="translate(1.43 -22.19)"/><rect class="繝後Μ_逋ｽ-2" x="110.56" y="1.91" width="2.83" height="113.39"/><rect class="繝後Μ_逋ｽ-2" x="17.02" y="1.91" width="2.83" height="113.39"/><rect class="邱喟0.5pt-4" x="19.86" y="1.91" width="90.71" height="113.39"/><path class="cls-6" d="M10.23,137.42a3.23,3.23,0,0,1,.13-1,1.33,1.33,0,0,1,.39-.59,1,1,0,0,1,.65-.21,1.12,1.12,0,0,1,.5.11.9.9,0,0,1,.36.34,1.51,1.51,0,0,1,.22.53,3.25,3.25,0,0,1,.08.85,3.09,3.09,0,0,1-.13,1,1.22,1.22,0,0,1-.38.6,1.1,1.1,0,0,1-1.47-.16A2.39,2.39,0,0,1,10.23,137.42Zm.45,0a2.23,2.23,0,0,0,.21,1.17.59.59,0,0,0,1,0,3.55,3.55,0,0,0,0-2.35.63.63,0,0,0-.52-.29.56.56,0,0,0-.48.26A2.28,2.28,0,0,0,10.68,137.42Z" transform="translate(1.43 -22.19)"/><path class="cls-6" d="M13.29,139.18v-.5h.5v.5Z" transform="translate(1.43 -22.19)"/><path class="cls-6" d="M14.43,137.42a3.19,3.19,0,0,1,.14-1,1.24,1.24,0,0,1,.38-.59,1,1,0,0,1,.65-.21,1.19,1.19,0,0,1,.51.11,1.06,1.06,0,0,1,.36.34,2,2,0,0,1,.22.53,3.76,3.76,0,0,1,.08.85,3.09,3.09,0,0,1-.13,1,1.31,1.31,0,0,1-.39.6,1,1,0,0,1-.65.21,1,1,0,0,1-.81-.37A2.32,2.32,0,0,1,14.43,137.42Zm.46,0a2.36,2.36,0,0,0,.2,1.17.59.59,0,0,0,1,0,3.39,3.39,0,0,0,0-2.35.62.62,0,0,0-.51-.29.58.58,0,0,0-.49.26A2.3,2.3,0,0,0,14.89,137.42Z" transform="translate(1.43 -22.19)"/><path class="cls-6" d="M9.13,127.84H8.7V125a2.54,2.54,0,0,1-.42.3,3.27,3.27,0,0,1-.46.23v-.42a3,3,0,0,0,.64-.42,2,2,0,0,0,.39-.48h.28Z" transform="translate(1.43 -22.19)"/><path class="cls-6" d="M10.29,126.08a3.23,3.23,0,0,1,.13-1,1.33,1.33,0,0,1,.39-.59,1,1,0,0,1,.65-.21,1.12,1.12,0,0,1,.5.11.9.9,0,0,1,.36.34,1.51,1.51,0,0,1,.22.53,3.25,3.25,0,0,1,.08.85,3.14,3.14,0,0,1-.13,1,1.22,1.22,0,0,1-.38.6,1.1,1.1,0,0,1-1.47-.16A2.39,2.39,0,0,1,10.29,126.08Zm.45,0a2.23,2.23,0,0,0,.21,1.17.59.59,0,0,0,1,0,3.55,3.55,0,0,0,0-2.35.63.63,0,0,0-.52-.29.56.56,0,0,0-.48.26A2.28,2.28,0,0,0,10.74,126.08Z" transform="translate(1.43 -22.19)"/><path class="cls-6" d="M13.29,127.84v-.5h.5v.5Z" transform="translate(1.43 -22.19)"/><path class="cls-6" d="M14.43,126.08a3.19,3.19,0,0,1,.14-1,1.24,1.24,0,0,1,.38-.59,1,1,0,0,1,.65-.21,1.19,1.19,0,0,1,.51.11,1.06,1.06,0,0,1,.36.34,2,2,0,0,1,.22.53,3.76,3.76,0,0,1,.08.85,3.14,3.14,0,0,1-.13,1,1.31,1.31,0,0,1-.39.6,1,1,0,0,1-.65.21,1,1,0,0,1-.81-.37A2.32,2.32,0,0,1,14.43,126.08Zm.46,0a2.36,2.36,0,0,0,.2,1.17.59.59,0,0,0,1,0,3.39,3.39,0,0,0,0-2.35.62.62,0,0,0-.51-.29.58.58,0,0,0-.49.26A2.3,2.3,0,0,0,14.89,126.08Z" transform="translate(1.43 -22.19)"/><path class="cls-6" d="M9.79,116.08v.43H7.42a1.06,1.06,0,0,1,0-.31,1.58,1.58,0,0,1,.29-.47,5.35,5.35,0,0,1,.58-.55,4.92,4.92,0,0,0,.79-.75,1,1,0,0,0,.2-.53.59.59,0,0,0-.18-.44A.7.7,0,0,0,8,114l-.45,0a1.06,1.06,0,0,1,.35-.77,1.17,1.17,0,0,1,.81-.27,1.13,1.13,0,0,1,.81.29.94.94,0,0,1,.3.71,1.25,1.25,0,0,1-.08.42,1.72,1.72,0,0,1-.3.44,7.63,7.63,0,0,1-.67.63,5.24,5.24,0,0,0-.51.45,1.77,1.77,0,0,0-.19.23Z" transform="translate(1.43 -22.19)"/><path class="cls-6" d="M10.29,114.74a3.2,3.2,0,0,1,.13-1,1.31,1.31,0,0,1,.39-.6A1.11,1.11,0,0,1,12,113a1,1,0,0,1,.36.33,1.65,1.65,0,0,1,.22.54,4.23,4.23,0,0,1,0,1.86,1.22,1.22,0,0,1-.38.6,1,1,0,0,1-.65.21,1,1,0,0,1-.82-.37A2.43,2.43,0,0,1,10.29,114.74Zm.45,0a2.25,2.25,0,0,0,.21,1.18.62.62,0,0,0,.51.29.61.61,0,0,0,.51-.3,3.52,3.52,0,0,0,0-2.34.6.6,0,0,0-.52-.29.56.56,0,0,0-.48.25A2.28,2.28,0,0,0,10.74,114.74Z" transform="translate(1.43 -22.19)"/><path class="cls-6" d="M13.29,116.51V116h.5v.5Z" transform="translate(1.43 -22.19)"/><path class="cls-6" d="M14.43,114.74a3.17,3.17,0,0,1,.14-1,1.22,1.22,0,0,1,.38-.6,1,1,0,0,1,.65-.21,1.07,1.07,0,0,1,.51.12,1.13,1.13,0,0,1,.36.33,2.25,2.25,0,0,1,.22.54,3.72,3.72,0,0,1,.08.84,3.2,3.2,0,0,1-.13,1,1.31,1.31,0,0,1-.39.6,1,1,0,0,1-.65.21,1,1,0,0,1-.81-.37A2.35,2.35,0,0,1,14.43,114.74Zm.46,0a2.38,2.38,0,0,0,.2,1.18.62.62,0,0,0,.51.29.61.61,0,0,0,.51-.3,3.36,3.36,0,0,0,0-2.34.6.6,0,0,0-.51-.29.57.57,0,0,0-.49.25A2.3,2.3,0,0,0,14.89,114.74Z" transform="translate(1.43 -22.19)"/><path class="cls-6" d="M7.48,104.22l.44-.06a1,1,0,0,0,.26.54.63.63,0,0,0,.44.16.72.72,0,0,0,.74-.74.67.67,0,0,0-.2-.5.65.65,0,0,0-.5-.2,1.4,1.4,0,0,0-.31,0l.05-.39h.07a.87.87,0,0,0,.5-.15.51.51,0,0,0,.23-.45.53.53,0,0,0-.17-.4.55.55,0,0,0-.42-.16.6.6,0,0,0-.43.16.82.82,0,0,0-.21.48l-.44-.07a1.1,1.1,0,0,1,.36-.69,1.07,1.07,0,0,1,.71-.24,1.19,1.19,0,0,1,.54.12.92.92,0,0,1,.38.35.84.84,0,0,1,.13.46.79.79,0,0,1-.12.42.85.85,0,0,1-.37.3.82.82,0,0,1,.49.31.89.89,0,0,1,.18.58,1.05,1.05,0,0,1-.35.79,1.17,1.17,0,0,1-.86.33,1.15,1.15,0,0,1-.78-.28A1.09,1.09,0,0,1,7.48,104.22Z" transform="translate(1.43 -22.19)"/><path class="cls-6" d="M10.29,103.4a3.12,3.12,0,0,1,.13-1,1.31,1.31,0,0,1,.39-.6,1,1,0,0,1,.65-.21,1.12,1.12,0,0,1,.5.11.9.9,0,0,1,.36.34,1.51,1.51,0,0,1,.22.53,3.25,3.25,0,0,1,.08.85,3.09,3.09,0,0,1-.13,1,1.22,1.22,0,0,1-.38.6,1.1,1.1,0,0,1-1.47-.16A2.39,2.39,0,0,1,10.29,103.4Zm.45,0a2.2,2.2,0,0,0,.21,1.17.6.6,0,0,0,.51.29.62.62,0,0,0,.51-.29,3.55,3.55,0,0,0,0-2.35.63.63,0,0,0-.52-.29.56.56,0,0,0-.48.26A2.28,2.28,0,0,0,10.74,103.4Z" transform="translate(1.43 -22.19)"/><path class="cls-6" d="M13.29,105.16v-.5h.5v.5Z" transform="translate(1.43 -22.19)"/><path class="cls-6" d="M14.43,103.4a3.09,3.09,0,0,1,.14-1,1.22,1.22,0,0,1,.38-.6,1,1,0,0,1,.65-.21,1.19,1.19,0,0,1,.51.11,1.06,1.06,0,0,1,.36.34,2,2,0,0,1,.22.53,3.76,3.76,0,0,1,.08.85,3.09,3.09,0,0,1-.13,1,1.31,1.31,0,0,1-.39.6,1,1,0,0,1-.65.21,1,1,0,0,1-.81-.37A2.32,2.32,0,0,1,14.43,103.4Zm.46,0a2.34,2.34,0,0,0,.2,1.17.6.6,0,0,0,.51.29.62.62,0,0,0,.51-.29,3.39,3.39,0,0,0,0-2.35.62.62,0,0,0-.51-.29.58.58,0,0,0-.49.26A2.3,2.3,0,0,0,14.89,103.4Z" transform="translate(1.43 -22.19)"/><path class="cls-6" d="M8.89,93.82V93H7.34v-.41L9,90.25h.36v2.31h.48V93H9.33v.85Zm0-1.26V91L7.77,92.56Z" transform="translate(1.43 -22.19)"/><path class="cls-6" d="M10.29,92.06a3.2,3.2,0,0,1,.13-1,1.31,1.31,0,0,1,.39-.6A1.11,1.11,0,0,1,12,90.35a.88.88,0,0,1,.36.33,1.6,1.6,0,0,1,.22.53,3.25,3.25,0,0,1,.08.85,3.2,3.2,0,0,1-.13,1,1.24,1.24,0,0,1-.38.59,1,1,0,0,1-.65.22,1,1,0,0,1-.82-.38A2.37,2.37,0,0,1,10.29,92.06Zm.45,0A2.18,2.18,0,0,0,11,93.23a.59.59,0,0,0,1,0,3.52,3.52,0,0,0,0-2.34.61.61,0,0,0-.52-.3.56.56,0,0,0-.48.26A2.28,2.28,0,0,0,10.74,92.06Z" transform="translate(1.43 -22.19)"/><path class="cls-6" d="M13.29,93.82v-.5h.5v.5Z" transform="translate(1.43 -22.19)"/><path class="cls-6" d="M14.43,92.06a3.17,3.17,0,0,1,.14-1,1.22,1.22,0,0,1,.38-.6,1,1,0,0,1,.65-.21,1.07,1.07,0,0,1,.51.12,1,1,0,0,1,.36.33,2.17,2.17,0,0,1,.22.53,3.76,3.76,0,0,1,.08.85,3.2,3.2,0,0,1-.13,1,1.33,1.33,0,0,1-.39.59,1,1,0,0,1-.65.22,1,1,0,0,1-.81-.38A2.3,2.3,0,0,1,14.43,92.06Zm.46,0a2.31,2.31,0,0,0,.2,1.17.59.59,0,0,0,1,0,3.36,3.36,0,0,0,0-2.34.61.61,0,0,0-.51-.3.58.58,0,0,0-.49.26A2.3,2.3,0,0,0,14.89,92.06Z" transform="translate(1.43 -22.19)"/><path class="cls-6" d="M7.48,81.54l.46,0a.77.77,0,0,0,.24.51.64.64,0,0,0,.45.17.71.71,0,0,0,.54-.24.93.93,0,0,0,.22-.63.84.84,0,0,0-.21-.6.78.78,0,0,0-.56-.21.79.79,0,0,0-.38.09.73.73,0,0,0-.27.25l-.41,0L7.9,79H9.68v.42H8.26l-.2,1a1.17,1.17,0,0,1,.68-.22,1.09,1.09,0,0,1,.79.32,1.17,1.17,0,0,1,.32.84,1.31,1.31,0,0,1-.28.84,1.13,1.13,0,0,1-.94.43,1.17,1.17,0,0,1-.8-.27A1.08,1.08,0,0,1,7.48,81.54Z" transform="translate(1.43 -22.19)"/><path class="cls-6" d="M10.29,80.72a3.23,3.23,0,0,1,.13-1,1.33,1.33,0,0,1,.39-.59,1,1,0,0,1,.65-.21A1.12,1.12,0,0,1,12,79a.9.9,0,0,1,.36.34,1.51,1.51,0,0,1,.22.53,3.25,3.25,0,0,1,.08.85,3.14,3.14,0,0,1-.13,1,1.22,1.22,0,0,1-.38.6,1.1,1.1,0,0,1-1.47-.16A2.39,2.39,0,0,1,10.29,80.72Zm.45,0A2.23,2.23,0,0,0,11,81.89a.59.59,0,0,0,1,0,3.55,3.55,0,0,0,0-2.35.63.63,0,0,0-.52-.29.56.56,0,0,0-.48.26A2.28,2.28,0,0,0,10.74,80.72Z" transform="translate(1.43 -22.19)"/><path class="cls-6" d="M13.29,82.48V82h.5v.5Z" transform="translate(1.43 -22.19)"/><path class="cls-6" d="M14.43,80.72a3.19,3.19,0,0,1,.14-1A1.24,1.24,0,0,1,15,79.1a1,1,0,0,1,.65-.21,1.19,1.19,0,0,1,.51.11,1.06,1.06,0,0,1,.36.34,2,2,0,0,1,.22.53,3.76,3.76,0,0,1,.08.85,3.14,3.14,0,0,1-.13,1,1.31,1.31,0,0,1-.39.6,1,1,0,0,1-.65.21,1,1,0,0,1-.81-.37A2.32,2.32,0,0,1,14.43,80.72Zm.46,0a2.36,2.36,0,0,0,.2,1.17.59.59,0,0,0,1,0,3.39,3.39,0,0,0,0-2.35.62.62,0,0,0-.51-.29.58.58,0,0,0-.49.26A2.3,2.3,0,0,0,14.89,80.72Z" transform="translate(1.43 -22.19)"/><path class="cls-6" d="M9.76,68.44l-.44,0a.85.85,0,0,0-.16-.37.58.58,0,0,0-.44-.19.59.59,0,0,0-.37.12,1,1,0,0,0-.33.44,2.24,2.24,0,0,0-.12.83.93.93,0,0,1,.38-.36,1.07,1.07,0,0,1,.49-.12,1,1,0,0,1,.74.32,1.16,1.16,0,0,1,.31.84,1.52,1.52,0,0,1-.14.63,1.07,1.07,0,0,1-.4.44,1.19,1.19,0,0,1-1.47-.25,2,2,0,0,1-.35-1.33A2.4,2.4,0,0,1,7.84,68a1.1,1.1,0,0,1,.9-.41,1.05,1.05,0,0,1,.7.23A1,1,0,0,1,9.76,68.44ZM8,70a1.12,1.12,0,0,0,.09.44.82.82,0,0,0,.27.31.64.64,0,0,0,.37.11.6.6,0,0,0,.47-.22.86.86,0,0,0,.2-.61.84.84,0,0,0-.19-.59.67.67,0,0,0-.5-.21.69.69,0,0,0-.51.21A.76.76,0,0,0,8,70Z" transform="translate(1.43 -22.19)"/><path class="cls-6" d="M10.29,69.38a3.23,3.23,0,0,1,.13-1,1.33,1.33,0,0,1,.39-.59,1,1,0,0,1,.65-.21,1.12,1.12,0,0,1,.5.11.9.9,0,0,1,.36.34,1.51,1.51,0,0,1,.22.53,3.25,3.25,0,0,1,.08.85,3.09,3.09,0,0,1-.13,1,1.22,1.22,0,0,1-.38.6,1.1,1.1,0,0,1-1.47-.16A2.39,2.39,0,0,1,10.29,69.38Zm.45,0A2.23,2.23,0,0,0,11,70.55a.59.59,0,0,0,1,0,3.55,3.55,0,0,0,0-2.35.63.63,0,0,0-.52-.29.56.56,0,0,0-.48.26A2.28,2.28,0,0,0,10.74,69.38Z" transform="translate(1.43 -22.19)"/><path class="cls-6" d="M13.29,71.14v-.5h.5v.5Z" transform="translate(1.43 -22.19)"/><path class="cls-6" d="M14.43,69.38a3.19,3.19,0,0,1,.14-1,1.24,1.24,0,0,1,.38-.59,1,1,0,0,1,.65-.21,1.19,1.19,0,0,1,.51.11,1.06,1.06,0,0,1,.36.34,2,2,0,0,1,.22.53,3.76,3.76,0,0,1,.08.85,3.09,3.09,0,0,1-.13,1,1.31,1.31,0,0,1-.39.6,1,1,0,0,1-.65.21,1,1,0,0,1-.81-.37A2.32,2.32,0,0,1,14.43,69.38Zm.46,0a2.36,2.36,0,0,0,.2,1.17.59.59,0,0,0,1,0,3.39,3.39,0,0,0,0-2.35.62.62,0,0,0-.51-.29.58.58,0,0,0-.49.26A2.3,2.3,0,0,0,14.89,69.38Z" transform="translate(1.43 -22.19)"/><path class="cls-6" d="M7.51,56.7v-.43H9.83v.35a4.57,4.57,0,0,0-.68,1,5.54,5.54,0,0,0-.52,1.24,4.86,4.86,0,0,0-.17,1H8a3.86,3.86,0,0,1,.17-1A5.26,5.26,0,0,1,9.26,56.7Z" transform="translate(1.43 -22.19)"/><path class="cls-6" d="M10.29,58a3.2,3.2,0,0,1,.13-1,1.31,1.31,0,0,1,.39-.6A1.11,1.11,0,0,1,12,56.33a1,1,0,0,1,.36.33,1.65,1.65,0,0,1,.22.54,4.23,4.23,0,0,1,0,1.86,1.22,1.22,0,0,1-.38.6,1,1,0,0,1-.65.21,1,1,0,0,1-.82-.37A2.43,2.43,0,0,1,10.29,58Zm.45,0A2.18,2.18,0,0,0,11,59.21a.58.58,0,0,0,1,0,3.52,3.52,0,0,0,0-2.34.6.6,0,0,0-.52-.29.56.56,0,0,0-.48.25A2.28,2.28,0,0,0,10.74,58Z" transform="translate(1.43 -22.19)"/><path class="cls-6" d="M13.29,59.81v-.5h.5v.5Z" transform="translate(1.43 -22.19)"/><path class="cls-6" d="M14.43,58a3.17,3.17,0,0,1,.14-1,1.22,1.22,0,0,1,.38-.6,1,1,0,0,1,.65-.21,1.07,1.07,0,0,1,.51.12,1.13,1.13,0,0,1,.36.33,2.25,2.25,0,0,1,.22.54,3.66,3.66,0,0,1,.08.84,3.2,3.2,0,0,1-.13,1,1.31,1.31,0,0,1-.39.6,1,1,0,0,1-.65.21,1,1,0,0,1-.81-.37A2.35,2.35,0,0,1,14.43,58Zm.46,0a2.31,2.31,0,0,0,.2,1.17.58.58,0,0,0,1,0,3.36,3.36,0,0,0,0-2.34.6.6,0,0,0-.51-.29.57.57,0,0,0-.49.25A2.3,2.3,0,0,0,14.89,58Z" transform="translate(1.43 -22.19)"/><path class="cls-6" d="M8.16,46.52a.79.79,0,0,1-.41-.28.77.77,0,0,1-.13-.45.83.83,0,0,1,.28-.65,1,1,0,0,1,.75-.27,1,1,0,0,1,.75.27.88.88,0,0,1,.29.66.79.79,0,0,1-.13.44.8.8,0,0,1-.4.28.93.93,0,0,1,.5.35.92.92,0,0,1,.17.57,1,1,0,0,1-.32.77,1.18,1.18,0,0,1-.86.31,1.17,1.17,0,0,1-.85-.31,1,1,0,0,1-.33-.78.87.87,0,0,1,.69-.91Zm-.23.91a.86.86,0,0,0,.08.36.66.66,0,0,0,.27.28.82.82,0,0,0,.38.09.69.69,0,0,0,.52-.2.67.67,0,0,0,.2-.51.72.72,0,0,0-.74-.74.69.69,0,0,0-.51.21A.67.67,0,0,0,7.93,47.43Zm.14-1.65a.53.53,0,0,0,.16.41.57.57,0,0,0,.43.16.54.54,0,0,0,.41-.16.5.5,0,0,0,.16-.39.54.54,0,0,0-.16-.4.57.57,0,0,0-.42-.17.57.57,0,0,0-.42.16A.53.53,0,0,0,8.07,45.78Z" transform="translate(1.43 -22.19)"/><path class="cls-6" d="M10.29,46.7a3.12,3.12,0,0,1,.13-1,1.31,1.31,0,0,1,.39-.6A1.11,1.11,0,0,1,12,45a.82.82,0,0,1,.36.33,1.6,1.6,0,0,1,.22.53,3.25,3.25,0,0,1,.08.85,3.2,3.2,0,0,1-.13,1,1.24,1.24,0,0,1-.38.59,1.1,1.1,0,0,1-1.47-.16A2.37,2.37,0,0,1,10.29,46.7Zm.45,0A2.18,2.18,0,0,0,11,47.87a.59.59,0,0,0,1,0,3.55,3.55,0,0,0,0-2.35.63.63,0,0,0-.52-.29.56.56,0,0,0-.48.26A2.28,2.28,0,0,0,10.74,46.7Z" transform="translate(1.43 -22.19)"/><path class="cls-6" d="M13.29,48.46V48h.5v.5Z" transform="translate(1.43 -22.19)"/><path class="cls-6" d="M14.43,46.7a3.09,3.09,0,0,1,.14-1,1.22,1.22,0,0,1,.38-.6,1,1,0,0,1,.65-.21,1.07,1.07,0,0,1,.51.12.94.94,0,0,1,.36.33,2.17,2.17,0,0,1,.22.53,3.76,3.76,0,0,1,.08.85,3.2,3.2,0,0,1-.13,1,1.33,1.33,0,0,1-.39.59,1,1,0,0,1-.65.21,1,1,0,0,1-.81-.37A2.3,2.3,0,0,1,14.43,46.7Zm.46,0a2.31,2.31,0,0,0,.2,1.17.59.59,0,0,0,1,0,3.39,3.39,0,0,0,0-2.35.62.62,0,0,0-.51-.29.58.58,0,0,0-.49.26A2.3,2.3,0,0,0,14.89,46.7Z" transform="translate(1.43 -22.19)"/><path class="cls-6" d="M7.55,36.3l.42,0a.7.7,0,0,0,.2.43.56.56,0,0,0,.39.13.71.71,0,0,0,.36-.09.75.75,0,0,0,.25-.25,1.42,1.42,0,0,0,.16-.42,2.33,2.33,0,0,0,.07-.53s0-.05,0-.09a.91.91,0,0,1-.36.34.92.92,0,0,1-.49.13,1,1,0,0,1-.75-.32,1.17,1.17,0,0,1-.31-.85,1.24,1.24,0,0,1,.32-.88,1.06,1.06,0,0,1,.8-.33,1.17,1.17,0,0,1,1.08.72,2.68,2.68,0,0,1,.15,1,3.21,3.21,0,0,1-.15,1.09,1.26,1.26,0,0,1-.44.62,1.17,1.17,0,0,1-.69.21.94.94,0,0,1-1-.88Zm1.79-1.58a.81.81,0,0,0-.2-.6.62.62,0,0,0-.48-.23.65.65,0,0,0-.51.24.87.87,0,0,0-.22.62.76.76,0,0,0,.21.56.66.66,0,0,0,.51.21.66.66,0,0,0,.5-.21A.84.84,0,0,0,9.34,34.72Z" transform="translate(1.43 -22.19)"/><path class="cls-6" d="M10.29,35.36a3.12,3.12,0,0,1,.13-1,1.31,1.31,0,0,1,.39-.6A1.11,1.11,0,0,1,12,33.65a.82.82,0,0,1,.36.33,1.6,1.6,0,0,1,.22.53,3.25,3.25,0,0,1,.08.85,3.2,3.2,0,0,1-.13,1,1.24,1.24,0,0,1-.38.59,1.1,1.1,0,0,1-1.47-.16A2.37,2.37,0,0,1,10.29,35.36Zm.45,0A2.18,2.18,0,0,0,11,36.53a.59.59,0,0,0,1,0,2.36,2.36,0,0,0,.2-1.17,2.38,2.38,0,0,0-.2-1.18.63.63,0,0,0-.52-.29.56.56,0,0,0-.48.26A2.28,2.28,0,0,0,10.74,35.36Z" transform="translate(1.43 -22.19)"/><path class="cls-6" d="M13.29,37.12v-.5h.5v.5Z" transform="translate(1.43 -22.19)"/><path class="cls-6" d="M14.43,35.36a3.09,3.09,0,0,1,.14-1,1.22,1.22,0,0,1,.38-.6,1,1,0,0,1,.65-.21,1.07,1.07,0,0,1,.51.12.94.94,0,0,1,.36.33,2.17,2.17,0,0,1,.22.53,3.76,3.76,0,0,1,.08.85,3.2,3.2,0,0,1-.13,1,1.33,1.33,0,0,1-.39.59,1,1,0,0,1-.65.21,1,1,0,0,1-.81-.37A2.3,2.3,0,0,1,14.43,35.36Zm.46,0a2.31,2.31,0,0,0,.2,1.17.59.59,0,0,0,1,0,2.23,2.23,0,0,0,.21-1.17,2.25,2.25,0,0,0-.21-1.18.62.62,0,0,0-.51-.29.58.58,0,0,0-.49.26A2.3,2.3,0,0,0,14.89,35.36Z" transform="translate(1.43 -22.19)"/><path class="cls-6" d="M6.32,25.78H5.88V23a2.07,2.07,0,0,1-.41.3,3.27,3.27,0,0,1-.46.23v-.42a3,3,0,0,0,.64-.42A2,2,0,0,0,6,22.19h.28Z" transform="translate(1.43 -22.19)"/><path class="cls-6" d="M7.48,24a3.23,3.23,0,0,1,.13-1A1.33,1.33,0,0,1,8,22.4a1,1,0,0,1,.65-.21,1.12,1.12,0,0,1,.5.11.9.9,0,0,1,.36.34,1.73,1.73,0,0,1,.22.53,3.25,3.25,0,0,1,.08.85,3.14,3.14,0,0,1-.13,1,1.22,1.22,0,0,1-.38.6,1,1,0,0,1-.65.21,1,1,0,0,1-.82-.37A2.39,2.39,0,0,1,7.48,24Zm.45,0a2.23,2.23,0,0,0,.21,1.17.6.6,0,0,0,.51.29.62.62,0,0,0,.51-.29A2.36,2.36,0,0,0,9.36,24a2.38,2.38,0,0,0-.2-1.18.63.63,0,0,0-.52-.29.56.56,0,0,0-.48.26A2.28,2.28,0,0,0,7.93,24Z" transform="translate(1.43 -22.19)"/><path class="cls-6" d="M10.23,24a3.23,3.23,0,0,1,.13-1,1.33,1.33,0,0,1,.39-.59,1,1,0,0,1,.65-.21,1.12,1.12,0,0,1,.5.11.9.9,0,0,1,.36.34,1.51,1.51,0,0,1,.22.53,3.25,3.25,0,0,1,.08.85,3.14,3.14,0,0,1-.13,1,1.22,1.22,0,0,1-.38.6,1.1,1.1,0,0,1-1.47-.16A2.39,2.39,0,0,1,10.23,24Zm.45,0a2.23,2.23,0,0,0,.21,1.17.59.59,0,0,0,1,0,2.36,2.36,0,0,0,.2-1.17,2.38,2.38,0,0,0-.2-1.18.63.63,0,0,0-.52-.29.56.56,0,0,0-.48.26A2.28,2.28,0,0,0,10.68,24Z" transform="translate(1.43 -22.19)"/><path class="cls-6" d="M13.29,25.78v-.5h.5v.5Z" transform="translate(1.43 -22.19)"/><path class="cls-6" d="M14.43,24a3.19,3.19,0,0,1,.14-1A1.24,1.24,0,0,1,15,22.4a1,1,0,0,1,.65-.21,1.19,1.19,0,0,1,.51.11,1.06,1.06,0,0,1,.36.34,2,2,0,0,1,.22.53,3.76,3.76,0,0,1,.08.85,3.14,3.14,0,0,1-.13,1,1.31,1.31,0,0,1-.39.6,1,1,0,0,1-.65.21,1,1,0,0,1-.81-.37A2.32,2.32,0,0,1,14.43,24Zm.46,0a2.36,2.36,0,0,0,.2,1.17.59.59,0,0,0,1,0A2.23,2.23,0,0,0,16.32,24a2.25,2.25,0,0,0-.21-1.18.62.62,0,0,0-.51-.29.58.58,0,0,0-.49.26A2.3,2.3,0,0,0,14.89,24Z" transform="translate(1.43 -22.19)"/></g><g id="English"><rect class="繝後Μ_逋ｽ-2" x="22.69" y="29.12" width="47.91" height="16.72"/><path class="cls-6" d="M24.47,56.19l.58,0a1.32,1.32,0,0,0,.19.58,1.2,1.2,0,0,0,.47.36,1.81,1.81,0,0,0,.72.13,1.72,1.72,0,0,0,.62-.1.89.89,0,0,0,.4-.29.64.64,0,0,0,.13-.4.58.58,0,0,0-.13-.38.85.85,0,0,0-.42-.27,6.84,6.84,0,0,0-.82-.23,4.09,4.09,0,0,1-.9-.29,1.34,1.34,0,0,1-.5-.43,1.08,1.08,0,0,1-.16-.58,1.12,1.12,0,0,1,.2-.66,1.3,1.3,0,0,1,.58-.47,2.35,2.35,0,0,1,.86-.15,2.38,2.38,0,0,1,.91.16A1.3,1.3,0,0,1,28,54.35l-.59,0a.93.93,0,0,0-.32-.67,1.24,1.24,0,0,0-.81-.22,1.34,1.34,0,0,0-.81.2.63.63,0,0,0-.26.5.54.54,0,0,0,.18.41,2.39,2.39,0,0,0,.93.33,5.44,5.44,0,0,1,1,.3,1.39,1.39,0,0,1,.6.47,1.14,1.14,0,0,1,.19.66,1.25,1.25,0,0,1-.21.7,1.43,1.43,0,0,1-.61.52,2.13,2.13,0,0,1-.9.18,2.5,2.5,0,0,1-1.05-.19,1.4,1.4,0,0,1-.67-.55A1.54,1.54,0,0,1,24.47,56.19Z" transform="translate(1.43 -22.19)"/><path class="cls-6" d="M28.94,57.69V53h.57V54.7a1.28,1.28,0,0,1,1-.46,1.33,1.33,0,0,1,.65.15.84.84,0,0,1,.4.41,1.83,1.83,0,0,1,.12.75v2.14h-.57V55.55a.9.9,0,0,0-.19-.62.69.69,0,0,0-.52-.2,1,1,0,0,0-.48.13.74.74,0,0,0-.32.36,1.7,1.7,0,0,0-.1.62v1.85Z" transform="translate(1.43 -22.19)"/><path class="cls-6" d="M32.34,56a1.72,1.72,0,0,1,.53-1.38,1.57,1.57,0,0,1,1.06-.38,1.48,1.48,0,0,1,1.13.46A1.69,1.69,0,0,1,35.5,56a2.25,2.25,0,0,1-.19,1,1.39,1.39,0,0,1-.57.58,1.62,1.62,0,0,1-.81.2,1.52,1.52,0,0,1-1.15-.45A1.82,1.82,0,0,1,32.34,56Zm.59,0a1.48,1.48,0,0,0,.28,1,.9.9,0,0,0,.72.32.88.88,0,0,0,.7-.32,1.46,1.46,0,0,0,.29-1,1.37,1.37,0,0,0-.29-.94.89.89,0,0,0-.7-.33.93.93,0,0,0-.72.32A1.5,1.5,0,0,0,32.93,56Z" transform="translate(1.43 -22.19)"/><path class="cls-6" d="M36.17,57.69V54.32h.51v.51a1.31,1.31,0,0,1,.36-.47.63.63,0,0,1,.37-.12,1.08,1.08,0,0,1,.59.19l-.2.52a.84.84,0,0,0-.42-.12.55.55,0,0,0-.33.11.68.68,0,0,0-.22.32,2.29,2.29,0,0,0-.09.66v1.77Z" transform="translate(1.43 -22.19)"/><path class="cls-6" d="M39.58,57.18l.09.5a2.47,2.47,0,0,1-.43,0,1,1,0,0,1-.49-.1.58.58,0,0,1-.24-.25,2.32,2.32,0,0,1-.07-.68V54.76H38v-.44h.42v-.84l.57-.34v1.18h.57v.44H39v2a1,1,0,0,0,0,.32.26.26,0,0,0,.1.11.34.34,0,0,0,.19,0Z" transform="translate(1.43 -22.19)"/><path class="cls-6" d="M39.92,56.29v-.57h1.76v.57Z" transform="translate(1.43 -22.19)"/><path class="cls-6" d="M44.49,57.69v-.43a1,1,0,0,1-.94.5,1.31,1.31,0,0,1-.74-.22,1.38,1.38,0,0,1-.52-.62A2,2,0,0,1,42.1,56a2.43,2.43,0,0,1,.17-.92,1.37,1.37,0,0,1,.5-.63,1.35,1.35,0,0,1,.76-.22,1.08,1.08,0,0,1,.54.13,1.27,1.27,0,0,1,.39.33V53H45v4.65ZM42.69,56A1.45,1.45,0,0,0,43,57a.81.81,0,0,0,.65.32.8.8,0,0,0,.63-.3,1.41,1.41,0,0,0,.26-.94,1.61,1.61,0,0,0-.26-1,.82.82,0,0,0-1.3,0A1.57,1.57,0,0,0,42.69,56Z" transform="translate(1.43 -22.19)"/><path class="cls-6" d="M48.13,57.69v-.5a1.23,1.23,0,0,1-1.07.57,1.33,1.33,0,0,1-.56-.11.89.89,0,0,1-.38-.29,1.16,1.16,0,0,1-.18-.42,3.33,3.33,0,0,1,0-.53V54.32h.57v1.87a2.69,2.69,0,0,0,0,.6.56.56,0,0,0,.22.35.7.7,0,0,0,.44.13.91.91,0,0,0,.48-.13.79.79,0,0,0,.32-.36,1.86,1.86,0,0,0,.09-.66v-1.8h.57v3.37Z" transform="translate(1.43 -22.19)"/><path class="cls-6" d="M49.53,57.69V54.32h.52v.51a1.31,1.31,0,0,1,.36-.47.61.61,0,0,1,.37-.12,1,1,0,0,1,.58.19l-.19.52a.84.84,0,0,0-.42-.12.58.58,0,0,0-.34.11.6.6,0,0,0-.21.32,2,2,0,0,0-.1.66v1.77Z" transform="translate(1.43 -22.19)"/><path class="cls-6" d="M53.9,57.27a2,2,0,0,1-.61.38,1.67,1.67,0,0,1-.63.11,1.22,1.22,0,0,1-.85-.27.89.89,0,0,1-.3-.69.94.94,0,0,1,.11-.45.87.87,0,0,1,.3-.33,1.29,1.29,0,0,1,.41-.19,3,3,0,0,1,.51-.08,5.88,5.88,0,0,0,1-.2,1.14,1.14,0,0,0,0-.15.65.65,0,0,0-.16-.49,1,1,0,0,0-.66-.2,1,1,0,0,0-.59.15.83.83,0,0,0-.28.49l-.56-.07a1.34,1.34,0,0,1,.25-.58,1,1,0,0,1,.5-.34,2.26,2.26,0,0,1,.77-.12,2,2,0,0,1,.7.1.93.93,0,0,1,.4.26.87.87,0,0,1,.17.39,2.94,2.94,0,0,1,0,.52v.76a6.8,6.8,0,0,0,0,1,1.25,1.25,0,0,0,.14.41H54A1.29,1.29,0,0,1,53.9,57.27Zm0-1.27a4.35,4.35,0,0,1-.93.21,2.14,2.14,0,0,0-.5.12.49.49,0,0,0-.22.18.43.43,0,0,0-.08.27.49.49,0,0,0,.17.38.71.71,0,0,0,.51.16,1.11,1.11,0,0,0,.58-.15.84.84,0,0,0,.38-.39,1.41,1.41,0,0,0,.09-.57Z" transform="translate(1.43 -22.19)"/><path class="cls-6" d="M56.56,57.18l.09.5a2.47,2.47,0,0,1-.43,0,1,1,0,0,1-.49-.1.58.58,0,0,1-.24-.25,2.32,2.32,0,0,1-.07-.68V54.76H55v-.44h.42v-.84l.57-.34v1.18h.57v.44H56v2a1,1,0,0,0,0,.32.26.26,0,0,0,.1.11.34.34,0,0,0,.19,0Z" transform="translate(1.43 -22.19)"/><path class="cls-6" d="M57.13,53.69V53h.57v.65Zm0,4V54.32h.57v3.37Z" transform="translate(1.43 -22.19)"/><path class="cls-6" d="M58.35,56a1.75,1.75,0,0,1,.52-1.38,1.58,1.58,0,0,1,1.06-.38,1.48,1.48,0,0,1,1.14.46A1.69,1.69,0,0,1,61.51,56a2.25,2.25,0,0,1-.19,1,1.39,1.39,0,0,1-.57.58,1.63,1.63,0,0,1-.82.2,1.51,1.51,0,0,1-1.14-.45A1.82,1.82,0,0,1,58.35,56Zm.59,0a1.48,1.48,0,0,0,.28,1,.9.9,0,0,0,.71.32.88.88,0,0,0,.71-.32,1.46,1.46,0,0,0,.29-1,1.37,1.37,0,0,0-.29-.94.89.89,0,0,0-.71-.33.93.93,0,0,0-.71.32A1.5,1.5,0,0,0,58.94,56Z" transform="translate(1.43 -22.19)"/><path class="cls-6" d="M62.18,57.69V54.32h.52v.48a1.2,1.2,0,0,1,1.07-.56,1.47,1.47,0,0,1,.56.11.82.82,0,0,1,.38.29,1,1,0,0,1,.18.42,3.45,3.45,0,0,1,0,.55v2.08h-.57v-2a1.34,1.34,0,0,0-.07-.52.53.53,0,0,0-.23-.28.77.77,0,0,0-.4-.1A.91.91,0,0,0,63,55a1.13,1.13,0,0,0-.27.88v1.84Z" transform="translate(1.43 -22.19)"/><path class="cls-6" d="M24.6,65.49V62.12h.51v.51a1.43,1.43,0,0,1,.37-.47.6.6,0,0,1,.36-.12,1.06,1.06,0,0,1,.59.19l-.19.52a.84.84,0,0,0-.42-.12.58.58,0,0,0-.34.11.6.6,0,0,0-.21.32,2,2,0,0,0-.1.66v1.77Z" transform="translate(1.43 -22.19)"/><path class="cls-6" d="M29,65.49V65a1.23,1.23,0,0,1-1.07.57,1.33,1.33,0,0,1-.56-.11.89.89,0,0,1-.38-.29,1.16,1.16,0,0,1-.18-.42,3.33,3.33,0,0,1,0-.53V62.12h.57V64a2.69,2.69,0,0,0,0,.6.56.56,0,0,0,.22.35.7.7,0,0,0,.44.13.91.91,0,0,0,.48-.13.79.79,0,0,0,.32-.36,1.86,1.86,0,0,0,.09-.66v-1.8h.57v3.37Z" transform="translate(1.43 -22.19)"/><path class="cls-6" d="M30.39,65.49V62.12h.51v.48A1.22,1.22,0,0,1,32,62a1.43,1.43,0,0,1,.56.11.91.91,0,0,1,.39.29,1.13,1.13,0,0,1,.17.42,3.16,3.16,0,0,1,0,.55v2.08h-.58v-2a1.63,1.63,0,0,0-.06-.52.6.6,0,0,0-.24-.28.72.72,0,0,0-.4-.1.91.91,0,0,0-.63.23,1.17,1.17,0,0,0-.26.88v1.84Z" transform="translate(1.43 -22.19)"/><path class="cls-6" d="M34,65.49V62.12h.52v.48A1.2,1.2,0,0,1,35.59,62a1.47,1.47,0,0,1,.56.11.82.82,0,0,1,.38.29,1,1,0,0,1,.18.42,3.45,3.45,0,0,1,0,.55v2.08h-.57v-2a1.34,1.34,0,0,0-.07-.52.53.53,0,0,0-.23-.28.77.77,0,0,0-.4-.1.88.88,0,0,0-.63.23,1.13,1.13,0,0,0-.27.88v1.84Z" transform="translate(1.43 -22.19)"/><path class="cls-6" d="M37.62,61.49v-.65h.57v.65Zm0,4V62.12h.57v3.37Z" transform="translate(1.43 -22.19)"/><path class="cls-6" d="M39.06,65.49V62.12h.51v.48A1.23,1.23,0,0,1,40.65,62a1.47,1.47,0,0,1,.56.11.82.82,0,0,1,.38.29,1.33,1.33,0,0,1,.18.42,3.45,3.45,0,0,1,0,.55v2.08h-.57v-2a1.34,1.34,0,0,0-.07-.52.5.5,0,0,0-.24-.28.71.71,0,0,0-.39-.1.88.88,0,0,0-.63.23,1.13,1.13,0,0,0-.27.88v1.84Z" transform="translate(1.43 -22.19)"/><path class="cls-6" d="M42.57,65.77l.56.08a.48.48,0,0,0,.19.37.93.93,0,0,0,.58.16,1,1,0,0,0,.61-.16.78.78,0,0,0,.3-.44,3.83,3.83,0,0,0,0-.73,1.19,1.19,0,0,1-.94.44,1.27,1.27,0,0,1-1.07-.5,1.92,1.92,0,0,1-.38-1.21,2.35,2.35,0,0,1,.17-.89,1.46,1.46,0,0,1,.51-.63,1.35,1.35,0,0,1,.78-.22,1.22,1.22,0,0,1,1,.48v-.4h.53V65a2.9,2.9,0,0,1-.16,1.12,1.14,1.14,0,0,1-.51.51,1.74,1.74,0,0,1-.86.2,1.55,1.55,0,0,1-1-.28A.9.9,0,0,1,42.57,65.77Zm.47-2a1.44,1.44,0,0,0,.27,1A.83.83,0,0,0,44,65a.85.85,0,0,0,.66-.3,1.8,1.8,0,0,0,0-1.88.84.84,0,0,0-1.31,0A1.38,1.38,0,0,0,43,63.74Z" transform="translate(1.43 -22.19)"/><path class="cls-6" d="M48.09,65.49V62.12h.51v.51a1.43,1.43,0,0,1,.37-.47.6.6,0,0,1,.36-.12,1.06,1.06,0,0,1,.59.19l-.2.52a.78.78,0,0,0-.41-.12.58.58,0,0,0-.34.11.6.6,0,0,0-.21.32,2,2,0,0,0-.1.66v1.77Z" transform="translate(1.43 -22.19)"/><path class="cls-6" d="M52.46,65.07a2,2,0,0,1-.61.38,1.67,1.67,0,0,1-.63.11,1.2,1.2,0,0,1-.85-.27.89.89,0,0,1-.3-.69.84.84,0,0,1,.11-.45.94.94,0,0,1,.29-.33,1.46,1.46,0,0,1,.42-.19,3.06,3.06,0,0,1,.5-.08,5.83,5.83,0,0,0,1-.2c0-.08,0-.13,0-.15a.62.62,0,0,0-.17-.49.94.94,0,0,0-.65-.2,1,1,0,0,0-.59.15.89.89,0,0,0-.29.49l-.55-.07a1.34,1.34,0,0,1,.25-.58,1,1,0,0,1,.5-.34,2.26,2.26,0,0,1,.77-.12,2,2,0,0,1,.7.1.83.83,0,0,1,.39.26.79.79,0,0,1,.18.39,2.94,2.94,0,0,1,0,.52v.76a6.8,6.8,0,0,0,0,1,1.25,1.25,0,0,0,.14.41h-.6A1.61,1.61,0,0,1,52.46,65.07Zm-.05-1.27a4.51,4.51,0,0,1-.93.21,2,2,0,0,0-.5.12.44.44,0,0,0-.22.18.43.43,0,0,0-.08.27.46.46,0,0,0,.17.38.71.71,0,0,0,.51.16,1.11,1.11,0,0,0,.58-.15.89.89,0,0,0,.38-.39,1.41,1.41,0,0,0,.09-.57Z" transform="translate(1.43 -22.19)"/><path class="cls-6" d="M53.88,65.49V62.12h.51v.48A1.22,1.22,0,0,1,55.46,62a1.43,1.43,0,0,1,.56.11.91.91,0,0,1,.39.29,1.13,1.13,0,0,1,.17.42,3.16,3.16,0,0,1,0,.55v2.08H56v-2a1.63,1.63,0,0,0-.06-.52.6.6,0,0,0-.24-.28.74.74,0,0,0-.4-.1.91.91,0,0,0-.63.23,1.17,1.17,0,0,0-.26.88v1.84Z" transform="translate(1.43 -22.19)"/><path class="cls-6" d="M57.39,65.77l.55.08a.52.52,0,0,0,.2.37.91.91,0,0,0,.58.16,1,1,0,0,0,.61-.16.76.76,0,0,0,.29-.44,3.83,3.83,0,0,0,0-.73,1.18,1.18,0,0,1-.93.44,1.3,1.3,0,0,1-1.08-.5,2,2,0,0,1-.38-1.21,2.18,2.18,0,0,1,.18-.89,1.37,1.37,0,0,1,.5-.63,1.35,1.35,0,0,1,.78-.22,1.22,1.22,0,0,1,1,.48v-.4h.52V65a2.72,2.72,0,0,1-.16,1.12,1.05,1.05,0,0,1-.51.51,1.7,1.7,0,0,1-.85.2,1.58,1.58,0,0,1-1-.28A.92.92,0,0,1,57.39,65.77Zm.47-2a1.5,1.5,0,0,0,.26,1,.85.85,0,0,0,.66.3.84.84,0,0,0,.66-.3,1.77,1.77,0,0,0,0-1.88.88.88,0,0,0-.67-.32.82.82,0,0,0-.64.31A1.38,1.38,0,0,0,57.86,63.74Z" transform="translate(1.43 -22.19)"/><path class="cls-6" d="M63.41,64.4l.59.07a1.42,1.42,0,0,1-.51.81,1.59,1.59,0,0,1-1,.28,1.55,1.55,0,0,1-1.17-.45,1.79,1.79,0,0,1-.43-1.28,1.86,1.86,0,0,1,.43-1.32A1.51,1.51,0,0,1,62.49,62a1.41,1.41,0,0,1,1.1.46A1.82,1.82,0,0,1,64,63.8V64H61.51a1.28,1.28,0,0,0,.31.85.91.91,0,0,0,.7.29.89.89,0,0,0,.54-.16A1.05,1.05,0,0,0,63.41,64.4Zm-1.87-.92h1.88a1.18,1.18,0,0,0-.22-.64.86.86,0,0,0-.7-.33.94.94,0,0,0-.67.26A1.1,1.1,0,0,0,61.54,63.48Z" transform="translate(1.43 -22.19)"/><rect class="繝後Μ_逋ｽ-2" x="23.43" y="93.52" width="41.46" height="16.72"/><path class="cls-6" d="M28.1,120.46l.62.15a2.12,2.12,0,0,1-.7,1.16,2,2,0,0,1-1.23.4,2.23,2.23,0,0,1-1.22-.31,1.84,1.84,0,0,1-.72-.89,3,3,0,0,1-.25-1.24,2.8,2.8,0,0,1,.28-1.27,1.9,1.9,0,0,1,.79-.82,2.28,2.28,0,0,1,1.13-.28,1.79,1.79,0,0,1,1.84,1.35l-.61.14a1.44,1.44,0,0,0-.47-.74,1.26,1.26,0,0,0-.77-.23,1.52,1.52,0,0,0-.9.26,1.37,1.37,0,0,0-.51.69,3.09,3.09,0,0,0,0,1.93,1.37,1.37,0,0,0,.54.66,1.45,1.45,0,0,0,.79.22,1.3,1.3,0,0,0,.87-.3A1.49,1.49,0,0,0,28.1,120.46Z" transform="translate(1.43 -22.19)"/><path class="cls-6" d="M29.19,120.4a1.75,1.75,0,0,1,.52-1.39,1.61,1.61,0,0,1,1.06-.37,1.51,1.51,0,0,1,1.14.46,1.73,1.73,0,0,1,.44,1.25,2.24,2.24,0,0,1-.2,1,1.39,1.39,0,0,1-.57.58,1.7,1.7,0,0,1-.81.2,1.51,1.51,0,0,1-1.14-.45A1.78,1.78,0,0,1,29.19,120.4Zm.59,0a1.42,1.42,0,0,0,.28,1,.88.88,0,0,0,.71.32.9.9,0,0,0,.71-.32,1.46,1.46,0,0,0,.28-1,1.42,1.42,0,0,0-.28-.95.93.93,0,0,0-.71-.32.91.91,0,0,0-.71.32A1.44,1.44,0,0,0,29.78,120.4Z" transform="translate(1.43 -22.19)"/><path class="cls-6" d="M33,122.09v-3.37h.51v.48a1.22,1.22,0,0,1,1.07-.56,1.43,1.43,0,0,1,.56.11.91.91,0,0,1,.39.29,1.13,1.13,0,0,1,.17.42,3.21,3.21,0,0,1,0,.56v2.07h-.58v-2a1.75,1.75,0,0,0-.06-.53.62.62,0,0,0-.24-.27.72.72,0,0,0-.4-.1.91.91,0,0,0-.63.23,1.15,1.15,0,0,0-.26.88v1.84Z" transform="translate(1.43 -22.19)"/><path class="cls-6" d="M37.88,121.58l.08.5a2.37,2.37,0,0,1-.43,0,.9.9,0,0,1-.48-.1.47.47,0,0,1-.24-.26,1.9,1.9,0,0,1-.07-.67v-1.94h-.42v-.44h.42v-.84l.56-.34v1.18h.58v.44H37.3v2a1.08,1.08,0,0,0,0,.32.35.35,0,0,0,.1.11.5.5,0,0,0,.2,0Z" transform="translate(1.43 -22.19)"/><path class="cls-6" d="M38.44,118.09v-.66H39v.66Zm0,4v-3.37H39v3.37Z" transform="translate(1.43 -22.19)"/><path class="cls-6" d="M39.88,122.09v-3.37h.52v.48a1.2,1.2,0,0,1,1.07-.56,1.47,1.47,0,0,1,.56.11.82.82,0,0,1,.38.29,1,1,0,0,1,.18.42,3.51,3.51,0,0,1,0,.56v2.07h-.57v-2a1.44,1.44,0,0,0-.07-.53.54.54,0,0,0-.23-.27.77.77,0,0,0-.4-.1.88.88,0,0,0-.63.23,1.11,1.11,0,0,0-.27.88v1.84Z" transform="translate(1.43 -22.19)"/><path class="cls-6" d="M45.71,122.09v-.5a1.25,1.25,0,0,1-1.07.57,1.3,1.3,0,0,1-.56-.11.92.92,0,0,1-.56-.71,3.11,3.11,0,0,1,0-.54v-2.08h.58v1.87a3.86,3.86,0,0,0,0,.6.57.57,0,0,0,.23.35.67.67,0,0,0,.43.13.91.91,0,0,0,.48-.13.74.74,0,0,0,.32-.36,1.83,1.83,0,0,0,.1-.66v-1.8h.57v3.37Z" transform="translate(1.43 -22.19)"/><path class="cls-6" d="M46.9,120.4a1.75,1.75,0,0,1,.52-1.39,1.61,1.61,0,0,1,1.06-.37,1.51,1.51,0,0,1,1.14.46,1.73,1.73,0,0,1,.44,1.25,2.24,2.24,0,0,1-.2,1,1.39,1.39,0,0,1-.57.58,1.7,1.7,0,0,1-.81.2,1.51,1.51,0,0,1-1.14-.45A1.78,1.78,0,0,1,46.9,120.4Zm.59,0a1.42,1.42,0,0,0,.28,1,.88.88,0,0,0,.71.32.9.9,0,0,0,.71-.32,1.46,1.46,0,0,0,.28-1,1.42,1.42,0,0,0-.28-.95.93.93,0,0,0-.71-.32.91.91,0,0,0-.71.32A1.44,1.44,0,0,0,47.49,120.4Z" transform="translate(1.43 -22.19)"/><path class="cls-6" d="M52.94,122.09v-.5a1.25,1.25,0,0,1-1.07.57,1.3,1.3,0,0,1-.56-.11.92.92,0,0,1-.56-.71,3.11,3.11,0,0,1,0-.54v-2.08h.58v1.87a3.86,3.86,0,0,0,0,.6.57.57,0,0,0,.23.35.67.67,0,0,0,.43.13.91.91,0,0,0,.48-.13.74.74,0,0,0,.32-.36,1.83,1.83,0,0,0,.1-.66v-1.8h.57v3.37Z" transform="translate(1.43 -22.19)"/><path class="cls-6" d="M54.11,121.08l.57-.09a.79.79,0,0,0,.26.52.94.94,0,0,0,.61.18.86.86,0,0,0,.58-.16.47.47,0,0,0,.2-.37.37.37,0,0,0-.17-.31,2.83,2.83,0,0,0-.59-.19,5.22,5.22,0,0,1-.87-.28.83.83,0,0,1-.37-.32.84.84,0,0,1-.12-.45.87.87,0,0,1,.1-.42.92.92,0,0,1,.28-.31,1,1,0,0,1,.37-.17,1.53,1.53,0,0,1,.49-.07,2.14,2.14,0,0,1,.7.11,1,1,0,0,1,.44.31,1.37,1.37,0,0,1,.2.53l-.56.07a.61.61,0,0,0-.22-.4.82.82,0,0,0-.52-.15.91.91,0,0,0-.56.13.4.4,0,0,0-.17.31.26.26,0,0,0,.07.19.47.47,0,0,0,.22.16l.5.14a6.75,6.75,0,0,1,.85.27.88.88,0,0,1,.38.3.83.83,0,0,1,.13.49,1,1,0,0,1-.16.54,1.18,1.18,0,0,1-.49.38,1.58,1.58,0,0,1-.71.14,1.61,1.61,0,0,1-1-.27A1.29,1.29,0,0,1,54.11,121.08Z" transform="translate(1.43 -22.19)"/><path class="cls-6" d="M24.7,129.89v-3.37h.52V127a1.47,1.47,0,0,1,.36-.48.67.67,0,0,1,.37-.11,1.12,1.12,0,0,1,.58.18l-.19.54a.76.76,0,0,0-.42-.13.58.58,0,0,0-.34.11.6.6,0,0,0-.21.32,2,2,0,0,0-.1.66v1.77Z" transform="translate(1.43 -22.19)"/><path class="cls-6" d="M29.08,129.89v-.5A1.23,1.23,0,0,1,28,130a1.33,1.33,0,0,1-.56-.11.89.89,0,0,1-.38-.29,1.16,1.16,0,0,1-.18-.42,3.39,3.39,0,0,1,0-.54v-2.08h.57v1.87a2.69,2.69,0,0,0,0,.6.56.56,0,0,0,.22.35.7.7,0,0,0,.44.13.91.91,0,0,0,.48-.13.79.79,0,0,0,.32-.36,1.86,1.86,0,0,0,.09-.66v-1.8h.57v3.37Z" transform="translate(1.43 -22.19)"/><path class="cls-6" d="M30.49,129.89v-3.37H31V127a1.22,1.22,0,0,1,1.07-.56,1.43,1.43,0,0,1,.56.11.91.91,0,0,1,.39.29,1.13,1.13,0,0,1,.17.42,2.44,2.44,0,0,1,0,.56v2.07h-.58v-2a1.75,1.75,0,0,0-.06-.53.62.62,0,0,0-.24-.27.72.72,0,0,0-.4-.1.91.91,0,0,0-.63.23,1.15,1.15,0,0,0-.26.88v1.84Z" transform="translate(1.43 -22.19)"/><path class="cls-6" d="M34.1,129.89v-3.37h.52V127a1.2,1.2,0,0,1,1.07-.56,1.47,1.47,0,0,1,.56.11.82.82,0,0,1,.38.29,1,1,0,0,1,.18.42,3.51,3.51,0,0,1,0,.56v2.07h-.57v-2a1.44,1.44,0,0,0-.07-.53A.54.54,0,0,0,36,127a.77.77,0,0,0-.4-.1.91.91,0,0,0-.63.23,1.11,1.11,0,0,0-.27.88v1.84Z" transform="translate(1.43 -22.19)"/><path class="cls-6" d="M37.72,125.89v-.66h.57v.66Zm0,4v-3.37h.57v3.37Z" transform="translate(1.43 -22.19)"/><path class="cls-6" d="M39.16,129.89v-3.37h.52V127a1.2,1.2,0,0,1,1.07-.56,1.47,1.47,0,0,1,.56.11.82.82,0,0,1,.38.29,1.14,1.14,0,0,1,.18.42,3.51,3.51,0,0,1,0,.56v2.07h-.57v-2a1.44,1.44,0,0,0-.07-.53A.54.54,0,0,0,41,127a.77.77,0,0,0-.4-.1.88.88,0,0,0-.63.23,1.11,1.11,0,0,0-.27.88v1.84Z" transform="translate(1.43 -22.19)"/><path class="cls-6" d="M42.67,130.17l.56.08a.48.48,0,0,0,.19.37.93.93,0,0,0,.58.16,1,1,0,0,0,.61-.16.78.78,0,0,0,.3-.44,3.83,3.83,0,0,0,0-.73,1.19,1.19,0,0,1-.94.44,1.27,1.27,0,0,1-1.07-.5,1.92,1.92,0,0,1-.38-1.21,2.39,2.39,0,0,1,.17-.89,1.46,1.46,0,0,1,.51-.63,1.43,1.43,0,0,1,.78-.22,1.2,1.2,0,0,1,1,.48v-.4h.53v2.91a2.9,2.9,0,0,1-.16,1.12,1.27,1.27,0,0,1-.51.52,1.85,1.85,0,0,1-.86.19,1.62,1.62,0,0,1-1-.28A.9.9,0,0,1,42.67,130.17Zm.47-2a1.44,1.44,0,0,0,.27,1,.83.83,0,0,0,.66.3.85.85,0,0,0,.66-.3,1.8,1.8,0,0,0,0-1.88.84.84,0,0,0-1.31,0A1.38,1.38,0,0,0,43.14,128.14Z" transform="translate(1.43 -22.19)"/><path class="cls-6" d="M48.19,129.89v-3.37h.51V127a1.62,1.62,0,0,1,.37-.48.66.66,0,0,1,.36-.11,1.12,1.12,0,0,1,.59.18l-.19.54a.76.76,0,0,0-.42-.13.58.58,0,0,0-.34.11.6.6,0,0,0-.21.32,2,2,0,0,0-.1.66v1.77Z" transform="translate(1.43 -22.19)"/><path class="cls-6" d="M52.56,129.47a2,2,0,0,1-.61.38,1.67,1.67,0,0,1-.63.11,1.2,1.2,0,0,1-.85-.27.89.89,0,0,1-.3-.69.94.94,0,0,1,.11-.45.87.87,0,0,1,.3-.33A1.29,1.29,0,0,1,51,128a4.31,4.31,0,0,1,.5-.09,5.17,5.17,0,0,0,1-.19,1.14,1.14,0,0,0,0-.15.62.62,0,0,0-.17-.49.94.94,0,0,0-.65-.2,1,1,0,0,0-.59.14.92.92,0,0,0-.29.5l-.55-.07a1.34,1.34,0,0,1,.25-.58,1,1,0,0,1,.5-.34,2.26,2.26,0,0,1,.77-.12,2,2,0,0,1,.7.1.92.92,0,0,1,.39.26.79.79,0,0,1,.18.39,2.94,2.94,0,0,1,0,.52v.77a6.72,6.72,0,0,0,0,1,1.25,1.25,0,0,0,.14.41h-.59A1.29,1.29,0,0,1,52.56,129.47Zm-.05-1.27a4.51,4.51,0,0,1-.93.21,1.72,1.72,0,0,0-.5.12.44.44,0,0,0-.22.18.43.43,0,0,0-.08.27.49.49,0,0,0,.17.38.71.71,0,0,0,.51.16,1.11,1.11,0,0,0,.58-.15.84.84,0,0,0,.38-.39,1.41,1.41,0,0,0,.09-.57Z" transform="translate(1.43 -22.19)"/><path class="cls-6" d="M54,129.89v-3.37h.51V127a1.22,1.22,0,0,1,1.07-.56,1.43,1.43,0,0,1,.56.11.91.91,0,0,1,.39.29,1.13,1.13,0,0,1,.17.42,3.21,3.21,0,0,1,0,.56v2.07h-.58v-2a1.75,1.75,0,0,0-.06-.53.62.62,0,0,0-.24-.27.72.72,0,0,0-.4-.1.91.91,0,0,0-.63.23,1.15,1.15,0,0,0-.26.88v1.84Z" transform="translate(1.43 -22.19)"/><path class="cls-6" d="M57.49,130.17l.55.08a.52.52,0,0,0,.2.37.91.91,0,0,0,.58.16,1,1,0,0,0,.61-.16.76.76,0,0,0,.29-.44,3.83,3.83,0,0,0,0-.73,1.18,1.18,0,0,1-.93.44,1.3,1.3,0,0,1-1.08-.5,2,2,0,0,1-.38-1.21,2.21,2.21,0,0,1,.18-.89,1.37,1.37,0,0,1,.5-.63,1.43,1.43,0,0,1,.78-.22,1.22,1.22,0,0,1,1,.48v-.4h.52v2.91a2.72,2.72,0,0,1-.16,1.12,1.19,1.19,0,0,1-.5.52,1.88,1.88,0,0,1-.86.19,1.6,1.6,0,0,1-1-.28A.9.9,0,0,1,57.49,130.17Zm.47-2a1.5,1.5,0,0,0,.26,1,.85.85,0,0,0,.66.3.83.83,0,0,0,.66-.3,1.77,1.77,0,0,0,0-1.88.88.88,0,0,0-.67-.32.82.82,0,0,0-.64.31A1.38,1.38,0,0,0,58,128.14Z" transform="translate(1.43 -22.19)"/><path class="cls-6" d="M63.51,128.8l.59.08a1.43,1.43,0,0,1-.51.8,1.59,1.59,0,0,1-1,.28,1.55,1.55,0,0,1-1.17-.45,1.79,1.79,0,0,1-.43-1.28,1.86,1.86,0,0,1,.43-1.32,1.51,1.51,0,0,1,1.14-.47,1.41,1.41,0,0,1,1.1.46,1.82,1.82,0,0,1,.43,1.3v.15H61.61a1.28,1.28,0,0,0,.31.85.92.92,0,0,0,.71.29.88.88,0,0,0,.53-.16A1.05,1.05,0,0,0,63.51,128.8Zm-1.87-.92h1.88a1.15,1.15,0,0,0-.22-.64.86.86,0,0,0-.7-.33.94.94,0,0,0-.67.26A1.1,1.1,0,0,0,61.64,127.88Z" transform="translate(1.43 -22.19)"/><path class="cls-6" d="M3.22,98.27H-.88V99.8h-.55V96.11h.55v1.54h4.1Z" transform="translate(1.43 -22.19)"/><path class="cls-6" d="M1.54,95.77a1.76,1.76,0,0,1-1.39-.52,1.58,1.58,0,0,1-.37-1.06,1.53,1.53,0,0,1,.45-1.14,1.74,1.74,0,0,1,1.26-.44,2.1,2.1,0,0,1,1,.2,1.36,1.36,0,0,1,.58.56,1.64,1.64,0,0,1,.21.82,1.48,1.48,0,0,1-.46,1.14A1.79,1.79,0,0,1,1.54,95.77Zm0-.59a1.44,1.44,0,0,0,1-.28.93.93,0,0,0,.32-.71.89.89,0,0,0-.33-.71,1.43,1.43,0,0,0-1-.28,1.4,1.4,0,0,0-.95.28.93.93,0,0,0-.32.71.9.9,0,0,0,.32.71A1.41,1.41,0,0,0,1.54,95.18Z" transform="translate(1.43 -22.19)"/><path class="cls-6" d="M3.22,92H-.15v-.52H.36a1.41,1.41,0,0,1-.47-.36.6.6,0,0,1-.11-.37A1.09,1.09,0,0,1,0,90.12l.53.19a.84.84,0,0,0-.12.42.51.51,0,0,0,.11.34.58.58,0,0,0,.31.21,2.35,2.35,0,0,0,.67.1H3.22Z" transform="translate(1.43 -22.19)"/><path class="cls-6" d="M4.51,87.63H2.86a1,1,0,0,1,.31.37,1,1,0,0,1,.13.51,1.34,1.34,0,0,1-.48,1A1.9,1.9,0,0,1,1.5,90a2.24,2.24,0,0,1-.91-.18A1.4,1.4,0,0,1,0,89.29a1.35,1.35,0,0,1-.2-.74,1.13,1.13,0,0,1,.52-1H-.15v-.51H4.51Zm-3,1.76a1.48,1.48,0,0,0,1-.27.84.84,0,0,0,.33-.66.8.8,0,0,0-.31-.63,1.46,1.46,0,0,0-.94-.26,1.52,1.52,0,0,0-1,.28.8.8,0,0,0-.34.65.78.78,0,0,0,.31.63A1.56,1.56,0,0,0,1.53,89.39Z" transform="translate(1.43 -22.19)"/><path class="cls-6" d="M3.22,84H2.73A1.23,1.23,0,0,1,3.3,85a1.31,1.31,0,0,1-.12.56A.88.88,0,0,1,2.9,86a1,1,0,0,1-.43.18,3.33,3.33,0,0,1-.53,0H-.15V85.6H1.72a3.77,3.77,0,0,0,.6,0,.63.63,0,0,0,.36-.23.75.75,0,0,0,.13-.43,1,1,0,0,0-.14-.49.66.66,0,0,0-.35-.31,1.7,1.7,0,0,0-.66-.1H-.15v-.57H3.22Z" transform="translate(1.43 -22.19)"/><path class="cls-6" d="M2.14,80.24l.07-.59a1.39,1.39,0,0,1,.8.52,1.54,1.54,0,0,1,.29,1,1.52,1.52,0,0,1-.46,1.17,1.77,1.77,0,0,1-1.27.44A1.9,1.9,0,0,1,.24,82.3a1.48,1.48,0,0,1-.46-1.14,1.41,1.41,0,0,1,.46-1.1,1.78,1.78,0,0,1,1.29-.43h.15v2.52a1.27,1.27,0,0,0,.85-.32.92.92,0,0,0,.3-.7.89.89,0,0,0-.17-.54A1.09,1.09,0,0,0,2.14,80.24Zm-.93,1.87V80.23a1.21,1.21,0,0,0-.64.22.88.88,0,0,0-.33.71.9.9,0,0,0,.27.66A1,1,0,0,0,1.21,82.11Z" transform="translate(1.43 -22.19)"/><path class="cls-6" d="M4.51,77.11H-1.43V75.85H-1v.69H4v-.69h.47Z" transform="translate(1.43 -22.19)"/><path class="cls-6" d="M3.22,75.25H-1.43v-.63l3.65-2.44H-1.43v-.59H3.22v.63L-.43,74.66H3.22Z" transform="translate(1.43 -22.19)"/><path class="cls-6" d="M.94,70.71a.78.78,0,0,1-.57-.24.82.82,0,0,1,0-1.14.81.81,0,0,1,.57-.23.78.78,0,0,1,.57.23.8.8,0,0,1,0,1.14A.75.75,0,0,1,.94,70.71Z" transform="translate(1.43 -22.19)"/><path class="cls-6" d="M3.22,68.35H-.15v-.51H.32a1.31,1.31,0,0,1-.39-.42,1.21,1.21,0,0,1-.15-.6,1.16,1.16,0,0,1,.15-.62.84.84,0,0,1,.44-.34,1.18,1.18,0,0,1-.59-1,1,1,0,0,1,.27-.77,1.2,1.2,0,0,1,.86-.27H3.22v.57H1.1a1.42,1.42,0,0,0-.49.06.41.41,0,0,0-.25.2A.62.62,0,0,0,.27,65a.79.79,0,0,0,.24.59,1,1,0,0,0,.75.24h2v.57H1a.92.92,0,0,0-.57.14.51.51,0,0,0-.19.45.81.81,0,0,0,.13.45.74.74,0,0,0,.37.3,2.12,2.12,0,0,0,.7.09H3.22Z" transform="translate(1.43 -22.19)"/><path class="cls-6" d="M4.51,62v1.26H4v-.69H-1v.69h-.47V62Z" transform="translate(1.43 -22.19)"/><path class="cls-6" d="M44.76,150.56l.58-.06a1.32,1.32,0,0,0,.19.58,1,1,0,0,0,.47.36,1.8,1.8,0,0,0,.71.14,1.67,1.67,0,0,0,.62-.11.85.85,0,0,0,.41-.29.7.7,0,0,0,.13-.39.59.59,0,0,0-.13-.39.92.92,0,0,0-.42-.27c-.12,0-.4-.12-.83-.23a4.15,4.15,0,0,1-.89-.29,1.19,1.19,0,0,1-.5-.43,1.06,1.06,0,0,1-.16-.58,1.16,1.16,0,0,1,.2-.66,1.18,1.18,0,0,1,.58-.46,2.11,2.11,0,0,1,.85-.16,2.4,2.4,0,0,1,.92.16,1.4,1.4,0,0,1,.6.49,1.47,1.47,0,0,1,.23.74l-.59,0a1,1,0,0,0-.32-.66,1.24,1.24,0,0,0-.81-.23,1.3,1.3,0,0,0-.82.21.6.6,0,0,0-.25.49.52.52,0,0,0,.18.41,2.39,2.39,0,0,0,.93.33,7.58,7.58,0,0,1,1,.3,1.47,1.47,0,0,1,.6.47,1.19,1.19,0,0,1,.19.67,1.3,1.3,0,0,1-.21.7,1.47,1.47,0,0,1-.61.51,2.19,2.19,0,0,1-.9.18,2.76,2.76,0,0,1-1.06-.18,1.59,1.59,0,0,1-.67-.56A1.56,1.56,0,0,1,44.76,150.56Z" transform="translate(1.43 -22.19)"/><path class="cls-6" d="M49.23,153.34v-4.66h.52v.44a1.29,1.29,0,0,1,.42-.39,1.19,1.19,0,0,1,.56-.13,1.34,1.34,0,0,1,.76.23,1.29,1.29,0,0,1,.5.62,2.39,2.39,0,0,1,0,1.82,1.36,1.36,0,0,1-.54.64,1.45,1.45,0,0,1-.74.22,1.11,1.11,0,0,1-.52-.12,1.25,1.25,0,0,1-.37-.31v1.64Zm.52-3a1.46,1.46,0,0,0,.26,1,.84.84,0,0,0,.64.31.82.82,0,0,0,.65-.33,1.5,1.5,0,0,0,.27-1,1.56,1.56,0,0,0-.26-1,.79.79,0,0,0-1.28,0A1.52,1.52,0,0,0,49.75,150.38Z" transform="translate(1.43 -22.19)"/><path class="cls-6" d="M55.15,151l.59.08a1.39,1.39,0,0,1-.52.8,1.72,1.72,0,0,1-2.13-.17,1.77,1.77,0,0,1-.44-1.28,1.9,1.9,0,0,1,.44-1.32,1.49,1.49,0,0,1,1.14-.47,1.45,1.45,0,0,1,1.1.46,1.82,1.82,0,0,1,.43,1.3v.15H53.24a1.34,1.34,0,0,0,.32.85.92.92,0,0,0,.7.3.89.89,0,0,0,.54-.17A1.07,1.07,0,0,0,55.15,151ZM53.28,150h1.88a1.18,1.18,0,0,0-.22-.64.88.88,0,0,0-.71-.33.9.9,0,0,0-.66.27A1,1,0,0,0,53.28,150Z" transform="translate(1.43 -22.19)"/><path class="cls-6" d="M58.77,151l.59.08a1.5,1.5,0,0,1-.52.8,1.74,1.74,0,0,1-2.14-.17,1.77,1.77,0,0,1-.43-1.28,1.85,1.85,0,0,1,.44-1.32,1.58,1.58,0,0,1,2.24,0,1.87,1.87,0,0,1,.43,1.3s0,.08,0,.15H56.86a1.28,1.28,0,0,0,.31.85.94.94,0,0,0,.71.3.84.84,0,0,0,.53-.17A1.08,1.08,0,0,0,58.77,151ZM56.89,150h1.88a1.1,1.1,0,0,0-.21-.64.88.88,0,0,0-.71-.33.9.9,0,0,0-.66.27A1,1,0,0,0,56.89,150Z" transform="translate(1.43 -22.19)"/><path class="cls-6" d="M62.26,152.05v-.43a1,1,0,0,1-.94.51,1.3,1.3,0,0,1-.74-.23,1.41,1.41,0,0,1-.53-.62,2.17,2.17,0,0,1-.18-.91,2.29,2.29,0,0,1,.17-.92,1.37,1.37,0,0,1,.5-.63,1.4,1.4,0,0,1,.75-.22,1.21,1.21,0,0,1,.55.13,1.24,1.24,0,0,1,.38.34V147.4h.57v4.65Zm-1.8-1.68a1.5,1.5,0,0,0,.27,1,.82.82,0,0,0,.64.32.84.84,0,0,0,.64-.31,1.43,1.43,0,0,0,.26-.93,1.58,1.58,0,0,0-.27-1,.82.82,0,0,0-1.29,0A1.52,1.52,0,0,0,60.46,150.37Z" transform="translate(1.43 -22.19)"/><path class="cls-6" d="M65.51,153.34V147.4h1.26v.47h-.69v5h.69v.47Z" transform="translate(1.43 -22.19)"/><path class="cls-6" d="M67.29,152.05v-3.37h.52v.51a1.31,1.31,0,0,1,.36-.47.63.63,0,0,1,.37-.12,1.08,1.08,0,0,1,.59.19l-.2.53a.76.76,0,0,0-.42-.13.54.54,0,0,0-.34.12.58.58,0,0,0-.21.31,2.31,2.31,0,0,0-.09.67v1.76Z" transform="translate(1.43 -22.19)"/><path class="cls-6" d="M69,152.13l1.35-4.81h.45l-1.34,4.81Z" transform="translate(1.43 -22.19)"/><path class="cls-6" d="M71.27,152.05v-3.37h.51v.47a1.34,1.34,0,0,1,.42-.4,1.21,1.21,0,0,1,.6-.15,1.16,1.16,0,0,1,.62.16.86.86,0,0,1,.34.43,1.2,1.2,0,0,1,1-.59,1.05,1.05,0,0,1,.77.28,1.2,1.2,0,0,1,.27.86v2.31h-.57v-2.12a1.49,1.49,0,0,0-.06-.5.42.42,0,0,0-.2-.24.62.62,0,0,0-.34-.09.79.79,0,0,0-.59.24,1,1,0,0,0-.23.75v2h-.58v-2.19a.92.92,0,0,0-.14-.57.51.51,0,0,0-.45-.19.81.81,0,0,0-.45.13.75.75,0,0,0-.3.37,2.08,2.08,0,0,0-.09.7v1.75Z" transform="translate(1.43 -22.19)"/><path class="cls-6" d="M76.69,148.05v-.65h.57v.65Zm0,4v-3.37h.57v3.37Z" transform="translate(1.43 -22.19)"/><path class="cls-6" d="M78.13,152.05v-3.37h.51v.48a1.23,1.23,0,0,1,1.08-.56,1.47,1.47,0,0,1,.56.11.89.89,0,0,1,.38.29,1.33,1.33,0,0,1,.18.42,3.51,3.51,0,0,1,0,.56v2.07H80.3V150a1.38,1.38,0,0,0-.07-.52.5.5,0,0,0-.24-.28.71.71,0,0,0-.39-.1.92.92,0,0,0-.63.23,1.13,1.13,0,0,0-.27.88v1.84Z" transform="translate(1.43 -22.19)"/><path class="cls-6" d="M82.7,153.34H81.44v-.47h.69v-5h-.69v-.47H82.7Z" transform="translate(1.43 -22.19)"/></g></svg>