<svg xmlns="http://www.w3.org/2000/svg" viewBox="0 0 115.7 131.28"><defs><style>.cls-1,.cls-2,.cls-3,.cls-4,.cls-5,.cls-6,.繝医Ν繧ｯ繧ｰ繝ｩ繝廟邱喟0\.7緕,.邱喟0\.5pt{fill:none;}.cls-1,.cls-6,.繝医Ν繧ｯ繧ｰ繝ｩ繝廟邱喟0\.7緕,.邱喟0\.5pt{stroke:#231815;}.cls-1{stroke-linejoin:round;stroke-width:0.14px;}.cls-2,.cls-3,.cls-5{stroke:#9fa0a0;}.cls-2,.cls-3,.繝医Ν繧ｯ繧ｰ繝ｩ繝廟邱喟0\.7緕,.邱喟0\.5pt{stroke-miterlimit:10;}.cls-2,.cls-3{stroke-width:1px;}.cls-3{stroke-dasharray:2.92 1.41;}.繝医Ν繧ｯ繧ｰ繝ｩ繝廟邱喟0\.7緕{stroke-width:1.98px;}.cls-5{stroke-linecap:square;stroke-width:3px;}.cls-7{fill:#231815;}.繝後Μ_逋ｽ-2{fill:#fff;}.邱喟0\.5pt{stroke-width:0.5px;}</style></defs><g id="Illust"><line class="cls-1" x1="19.86" y1="96.49" x2="110.56" y2="96.49"/><line class="cls-1" x1="19.86" y1="77.61" x2="110.56" y2="77.61"/><line class="cls-1" x1="19.86" y1="58.72" x2="110.56" y2="58.72"/><line class="cls-1" x1="19.86" y1="39.84" x2="110.56" y2="39.84"/><line class="cls-1" x1="19.86" y1="20.91" x2="110.56" y2="20.91"/><line class="cls-2" x1="84.97" y1="89.2" x2="84.97" y2="90.75"/><line class="cls-3" x1="84.97" y1="92.16" x2="84.97" y2="113.13"/><line class="cls-2" x1="84.97" y1="113.84" x2="84.97" y2="115.39"/><line class="cls-4" x1="37.94" y1="2.03" x2="37.94" y2="115.42"/><line class="cls-1" x1="56.03" y1="2.03" x2="56.03" y2="115.42"/><line class="cls-4" x1="74.11" y1="2.03" x2="74.11" y2="115.42"/><line class="cls-1" x1="92.2" y1="2.03" x2="92.2" y2="115.42"/><polyline class="繝医Ν繧ｯ繧ｰ繝ｩ繝廟邱喟0.7緕" points="19.87 88.36 37.96 88.36 56.04 88.36 74.1 88.36 92.18 88.36 110.56 94.16"/><polyline class="cls-5" points="19.87 88.36 37.96 88.36 56.04 88.36 74.1 88.36 92.18 88.36 110.56 94.16"/><polyline class="cls-6" points="19.87 88.36 37.96 88.36 56.04 88.36 74.1 88.36 92.18 88.36 110.56 94.16"/><polyline class="繝医Ν繧ｯ繧ｰ繝ｩ繝廟邱喟0.7緕" points="19.87 20.68 63.25 20.68 70.49 34.2 110.56 65.81"/><polyline class="cls-5" points="19.87 20.68 63.25 20.68 70.49 34.2 110.56 65.81"/><polyline class="cls-6" points="19.87 20.68 56.04 20.68 63.25 34.2 110.56 70.77"/><path class="cls-7" d="M17.24,141.38a3.52,3.52,0,0,1,.13-1,1.33,1.33,0,0,1,.39-.59,1.14,1.14,0,0,1,1.15-.1.9.9,0,0,1,.36.34,1.73,1.73,0,0,1,.23.53,3.72,3.72,0,0,1,.08.84,3.52,3.52,0,0,1-.13,1,1.31,1.31,0,0,1-.39.6,1,1,0,0,1-.65.21,1,1,0,0,1-.81-.37A2.33,2.33,0,0,1,17.24,141.38Zm.45,0a2.25,2.25,0,0,0,.21,1.18.59.59,0,0,0,1,0,2.27,2.27,0,0,0,.2-1.18,2.23,2.23,0,0,0-.2-1.17.63.63,0,0,0-.52-.29.56.56,0,0,0-.48.26A2.24,2.24,0,0,0,17.69,141.38Z" transform="translate(1.43 -22.06)"/><path class="cls-7" d="M51,143.15H50.6v-2.8a2.54,2.54,0,0,1-.42.3,3.27,3.27,0,0,1-.46.23v-.43a2.37,2.37,0,0,0,.64-.42,1.45,1.45,0,0,0,.39-.47H51Z" transform="translate(1.43 -22.06)"/><path class="cls-7" d="M52.19,141.38a3.2,3.2,0,0,1,.13-1,1.33,1.33,0,0,1,.39-.59,1.14,1.14,0,0,1,1.15-.1.9.9,0,0,1,.36.34,1.51,1.51,0,0,1,.22.53,3.22,3.22,0,0,1,.08.84,3.56,3.56,0,0,1-.12,1,1.31,1.31,0,0,1-.39.6,1.1,1.1,0,0,1-1.47-.16A2.41,2.41,0,0,1,52.19,141.38Zm.45,0a2.25,2.25,0,0,0,.21,1.18.59.59,0,0,0,1,0,2.38,2.38,0,0,0,.2-1.18,2.34,2.34,0,0,0-.2-1.17.63.63,0,0,0-.52-.29.56.56,0,0,0-.48.26A2.24,2.24,0,0,0,52.64,141.38Z" transform="translate(1.43 -22.06)"/><path class="cls-7" d="M54.94,141.38a3.52,3.52,0,0,1,.13-1,1.33,1.33,0,0,1,.39-.59,1.14,1.14,0,0,1,1.15-.1A.9.9,0,0,1,57,140a1.73,1.73,0,0,1,.23.53,3.72,3.72,0,0,1,.08.84,3.52,3.52,0,0,1-.13,1,1.31,1.31,0,0,1-.39.6,1,1,0,0,1-.65.21,1,1,0,0,1-.81-.37A2.33,2.33,0,0,1,54.94,141.38Zm.45,0a2.25,2.25,0,0,0,.21,1.18.59.59,0,0,0,1,0,2.27,2.27,0,0,0,.2-1.18,2.23,2.23,0,0,0-.2-1.17.63.63,0,0,0-.52-.29.56.56,0,0,0-.48.26A2.24,2.24,0,0,0,55.39,141.38Z" transform="translate(1.43 -22.06)"/><path class="cls-7" d="M57.75,141.38a3.52,3.52,0,0,1,.13-1,1.33,1.33,0,0,1,.39-.59,1.14,1.14,0,0,1,1.15-.1.9.9,0,0,1,.36.34,1.73,1.73,0,0,1,.23.53,3.72,3.72,0,0,1,.08.84,3.52,3.52,0,0,1-.13,1,1.31,1.31,0,0,1-.39.6,1,1,0,0,1-.65.21,1,1,0,0,1-.81-.37A2.33,2.33,0,0,1,57.75,141.38Zm.45,0a2.25,2.25,0,0,0,.21,1.18.59.59,0,0,0,1,0,2.27,2.27,0,0,0,.2-1.18,2.23,2.23,0,0,0-.2-1.17.63.63,0,0,0-.52-.29.56.56,0,0,0-.48.26A2.24,2.24,0,0,0,58.2,141.38Z" transform="translate(1.43 -22.06)"/><path class="cls-7" d="M87.81,142.73v.42H85.44a.81.81,0,0,1,.06-.31,1.54,1.54,0,0,1,.28-.47,4.54,4.54,0,0,1,.58-.54,5.35,5.35,0,0,0,.79-.76,1,1,0,0,0,.2-.53.6.6,0,0,0-.18-.44.77.77,0,0,0-1,0,.7.7,0,0,0-.19.53l-.45,0a1.08,1.08,0,0,1,.35-.77,1.16,1.16,0,0,1,.81-.26,1.13,1.13,0,0,1,.81.28.94.94,0,0,1,.3.71,1,1,0,0,1-.08.42,1.75,1.75,0,0,1-.29.44c-.14.15-.37.36-.68.63a5.24,5.24,0,0,0-.51.45,2,2,0,0,0-.19.24Z" transform="translate(1.43 -22.06)"/><path class="cls-7" d="M88.31,141.38a3.2,3.2,0,0,1,.13-1,1.33,1.33,0,0,1,.39-.59,1.14,1.14,0,0,1,1.15-.1.9.9,0,0,1,.36.34,1.51,1.51,0,0,1,.22.53,3.22,3.22,0,0,1,.08.84,3.56,3.56,0,0,1-.12,1,1.31,1.31,0,0,1-.39.6,1.1,1.1,0,0,1-1.47-.16A2.41,2.41,0,0,1,88.31,141.38Zm.45,0a2.25,2.25,0,0,0,.21,1.18.59.59,0,0,0,1,0,2.38,2.38,0,0,0,.2-1.18,2.34,2.34,0,0,0-.2-1.17.63.63,0,0,0-.52-.29.56.56,0,0,0-.48.26A2.24,2.24,0,0,0,88.76,141.38Z" transform="translate(1.43 -22.06)"/><path class="cls-7" d="M91.06,141.38a3.52,3.52,0,0,1,.13-1,1.33,1.33,0,0,1,.39-.59,1.14,1.14,0,0,1,1.15-.1.9.9,0,0,1,.36.34,1.73,1.73,0,0,1,.23.53,3.72,3.72,0,0,1,.08.84,3.52,3.52,0,0,1-.13,1,1.31,1.31,0,0,1-.39.6,1,1,0,0,1-.65.21,1,1,0,0,1-.81-.37A2.33,2.33,0,0,1,91.06,141.38Zm.45,0a2.25,2.25,0,0,0,.21,1.18.59.59,0,0,0,1,0,2.27,2.27,0,0,0,.2-1.18,2.23,2.23,0,0,0-.2-1.17.63.63,0,0,0-.52-.29.56.56,0,0,0-.48.26A2.24,2.24,0,0,0,91.51,141.38Z" transform="translate(1.43 -22.06)"/><path class="cls-7" d="M93.87,141.38a3.52,3.52,0,0,1,.13-1,1.33,1.33,0,0,1,.39-.59,1.14,1.14,0,0,1,1.15-.1.9.9,0,0,1,.36.34,1.73,1.73,0,0,1,.23.53,3.72,3.72,0,0,1,.08.84,3.52,3.52,0,0,1-.13,1,1.31,1.31,0,0,1-.39.6,1,1,0,0,1-.65.21,1,1,0,0,1-.81-.37A2.33,2.33,0,0,1,93.87,141.38Zm.45,0a2.25,2.25,0,0,0,.21,1.18.59.59,0,0,0,1,0,2.27,2.27,0,0,0,.2-1.18,2.23,2.23,0,0,0-.2-1.17.63.63,0,0,0-.52-.29.56.56,0,0,0-.48.26A2.24,2.24,0,0,0,94.32,141.38Z" transform="translate(1.43 -22.06)"/><path class="cls-7" d="M105.87,142.73v.42h-2.36a.65.65,0,0,1,0-.31,1.4,1.4,0,0,1,.29-.47,3.81,3.81,0,0,1,.57-.54,5.35,5.35,0,0,0,.79-.76.88.88,0,0,0,.2-.53.6.6,0,0,0-.18-.44.77.77,0,0,0-1,0,.74.74,0,0,0-.19.53l-.45,0a1.12,1.12,0,0,1,.35-.77,1.37,1.37,0,0,1,1.63,0,.94.94,0,0,1,.3.71,1.06,1.06,0,0,1-.09.42,1.75,1.75,0,0,1-.29.44,8.11,8.11,0,0,1-.68.63l-.51.45a1.25,1.25,0,0,0-.18.24Z" transform="translate(1.43 -22.06)"/><path class="cls-7" d="M106.37,142.21l.46,0a.87.87,0,0,0,.24.51.68.68,0,0,0,.45.17.71.71,0,0,0,.54-.24.88.88,0,0,0,.22-.63.84.84,0,0,0-.21-.6.76.76,0,0,0-.56-.21.82.82,0,0,0-.38.09.93.93,0,0,0-.27.25l-.41,0,.35-1.84h1.78V140h-1.43l-.19,1a1.14,1.14,0,0,1,.67-.22,1.09,1.09,0,0,1,.79.32,1.14,1.14,0,0,1,.33.84,1.32,1.32,0,0,1-.29.84,1.13,1.13,0,0,1-.94.43,1.15,1.15,0,0,1-.79-.27A1.07,1.07,0,0,1,106.37,142.21Z" transform="translate(1.43 -22.06)"/><path class="cls-7" d="M109.12,141.38a3.52,3.52,0,0,1,.13-1,1.33,1.33,0,0,1,.39-.59,1,1,0,0,1,.65-.21,1.06,1.06,0,0,1,.51.11,1,1,0,0,1,.35.34,1.73,1.73,0,0,1,.23.53,3.72,3.72,0,0,1,.08.84,3.52,3.52,0,0,1-.13,1,1.31,1.31,0,0,1-.39.6,1,1,0,0,1-.65.21,1,1,0,0,1-.81-.37A2.33,2.33,0,0,1,109.12,141.38Zm.45,0a2.25,2.25,0,0,0,.21,1.18.59.59,0,0,0,1,0,2.25,2.25,0,0,0,.21-1.18,2.2,2.2,0,0,0-.21-1.17.62.62,0,0,0-.51-.29.57.57,0,0,0-.49.26A2.24,2.24,0,0,0,109.57,141.38Z" transform="translate(1.43 -22.06)"/><path class="cls-7" d="M111.93,141.38a3.52,3.52,0,0,1,.13-1,1.33,1.33,0,0,1,.39-.59,1,1,0,0,1,.65-.21.95.95,0,0,1,.87.45,2,2,0,0,1,.22.53,3.72,3.72,0,0,1,.08.84,3.52,3.52,0,0,1-.13,1,1.31,1.31,0,0,1-.39.6,1,1,0,0,1-.65.21,1,1,0,0,1-.81-.37A2.33,2.33,0,0,1,111.93,141.38Zm.46,0a2.27,2.27,0,0,0,.2,1.18.59.59,0,0,0,1,0,2.25,2.25,0,0,0,.21-1.18,2.2,2.2,0,0,0-.21-1.17.62.62,0,0,0-.51-.29.57.57,0,0,0-.49.26A2.26,2.26,0,0,0,112.39,141.38Z" transform="translate(1.43 -22.06)"/><rect class="繝後Μ_逋ｽ-2" x="110.56" y="2.03" width="2.83" height="113.39"/><rect class="繝後Μ_逋ｽ-2" x="17.02" y="2.03" width="2.83" height="113.39"/><rect class="邱喟0.5pt" x="19.86" y="2.03" width="90.71" height="113.39"/><path class="cls-7" d="M10.23,137.55a3.12,3.12,0,0,1,.13-1,1.31,1.31,0,0,1,.39-.6,1,1,0,0,1,.65-.21,1.12,1.12,0,0,1,.5.11.9.9,0,0,1,.36.34,1.73,1.73,0,0,1,.22.53,3.25,3.25,0,0,1,.08.85,3.09,3.09,0,0,1-.13,1,1.22,1.22,0,0,1-.38.6,1.1,1.1,0,0,1-1.47-.16A2.39,2.39,0,0,1,10.23,137.55Zm.45,0a2.2,2.2,0,0,0,.21,1.17.58.58,0,0,0,.51.29.62.62,0,0,0,.51-.29,3.55,3.55,0,0,0,0-2.35.63.63,0,0,0-.52-.29.56.56,0,0,0-.48.26A2.28,2.28,0,0,0,10.68,137.55Z" transform="translate(1.43 -22.06)"/><path class="cls-7" d="M13.29,139.31v-.5h.5v.5Z" transform="translate(1.43 -22.06)"/><path class="cls-7" d="M14.43,137.55a3.42,3.42,0,0,1,.13-1,1.31,1.31,0,0,1,.39-.6,1,1,0,0,1,.65-.21,1.19,1.19,0,0,1,.51.11,1.06,1.06,0,0,1,.36.34,2,2,0,0,1,.22.53,3.76,3.76,0,0,1,.08.85,3.09,3.09,0,0,1-.13,1,1.31,1.31,0,0,1-.39.6,1,1,0,0,1-.65.21,1,1,0,0,1-.81-.37A2.32,2.32,0,0,1,14.43,137.55Zm.46,0a2.23,2.23,0,0,0,.2,1.17.6.6,0,0,0,.51.29.62.62,0,0,0,.51-.29,3.39,3.39,0,0,0,0-2.35.62.62,0,0,0-.51-.29.57.57,0,0,0-.49.26A2.3,2.3,0,0,0,14.89,137.55Z" transform="translate(1.43 -22.06)"/><path class="cls-7" d="M9.13,120.37H8.69v-2.8a2.07,2.07,0,0,1-.41.3,3.27,3.27,0,0,1-.46.23v-.42a3,3,0,0,0,.64-.42,2,2,0,0,0,.39-.48h.28Z" transform="translate(1.43 -22.06)"/><path class="cls-7" d="M10.29,118.61a3.23,3.23,0,0,1,.13-1,1.33,1.33,0,0,1,.39-.59,1,1,0,0,1,.65-.21,1.12,1.12,0,0,1,.5.11.9.9,0,0,1,.36.34,1.73,1.73,0,0,1,.22.53,3.25,3.25,0,0,1,.08.85,3.14,3.14,0,0,1-.13,1,1.22,1.22,0,0,1-.38.6,1.1,1.1,0,0,1-1.47-.16A2.39,2.39,0,0,1,10.29,118.61Zm.45,0a2.23,2.23,0,0,0,.21,1.17.6.6,0,0,0,.51.29.62.62,0,0,0,.51-.29,3.55,3.55,0,0,0,0-2.35.63.63,0,0,0-.52-.29.56.56,0,0,0-.48.26A2.28,2.28,0,0,0,10.74,118.61Z" transform="translate(1.43 -22.06)"/><path class="cls-7" d="M13.29,120.37v-.5h.5v.5Z" transform="translate(1.43 -22.06)"/><path class="cls-7" d="M14.43,118.61a3.54,3.54,0,0,1,.13-1A1.33,1.33,0,0,1,15,117a1,1,0,0,1,.65-.21,1.19,1.19,0,0,1,.51.11,1.06,1.06,0,0,1,.36.34,2,2,0,0,1,.22.53,3.76,3.76,0,0,1,.08.85,3.14,3.14,0,0,1-.13,1,1.31,1.31,0,0,1-.39.6,1,1,0,0,1-.65.21,1,1,0,0,1-.81-.37A2.32,2.32,0,0,1,14.43,118.61Zm.46,0a2.25,2.25,0,0,0,.2,1.17.59.59,0,0,0,1,0,3.39,3.39,0,0,0,0-2.35.62.62,0,0,0-.51-.29.57.57,0,0,0-.49.26A2.3,2.3,0,0,0,14.89,118.61Z" transform="translate(1.43 -22.06)"/><path class="cls-7" d="M9.79,101v.42H7.42a1.06,1.06,0,0,1,0-.31,1.58,1.58,0,0,1,.29-.47,4.54,4.54,0,0,1,.58-.54,5.35,5.35,0,0,0,.79-.76,1,1,0,0,0,.2-.53.6.6,0,0,0-.18-.44.77.77,0,0,0-1,0,.7.7,0,0,0-.19.53l-.45,0a1.11,1.11,0,0,1,.34-.77,1.21,1.21,0,0,1,.82-.26,1.13,1.13,0,0,1,.81.28.94.94,0,0,1,.3.71,1.25,1.25,0,0,1-.08.42,1.57,1.57,0,0,1-.3.44,7.63,7.63,0,0,1-.67.63,5.24,5.24,0,0,0-.51.45A1.33,1.33,0,0,0,8,101Z" transform="translate(1.43 -22.06)"/><path class="cls-7" d="M10.29,99.66a3.2,3.2,0,0,1,.13-1,1.28,1.28,0,0,1,.39-.59A1.14,1.14,0,0,1,12,98a.9.9,0,0,1,.36.34,1.73,1.73,0,0,1,.22.53,4.23,4.23,0,0,1,0,1.86,1.22,1.22,0,0,1-.38.6,1.1,1.1,0,0,1-1.47-.16A2.41,2.41,0,0,1,10.29,99.66Zm.45,0a2.25,2.25,0,0,0,.21,1.18.6.6,0,0,0,.51.29.62.62,0,0,0,.51-.29,2.38,2.38,0,0,0,.2-1.18,2.34,2.34,0,0,0-.2-1.17.63.63,0,0,0-.52-.29.56.56,0,0,0-.48.26A2.24,2.24,0,0,0,10.74,99.66Z" transform="translate(1.43 -22.06)"/><path class="cls-7" d="M13.29,101.43v-.5h.5v.5Z" transform="translate(1.43 -22.06)"/><path class="cls-7" d="M14.43,99.66a3.52,3.52,0,0,1,.13-1,1.28,1.28,0,0,1,.39-.59,1,1,0,0,1,.65-.21.95.95,0,0,1,.87.45,2,2,0,0,1,.22.53,3.72,3.72,0,0,1,.08.84,3.2,3.2,0,0,1-.13,1,1.31,1.31,0,0,1-.39.6,1,1,0,0,1-.65.21,1,1,0,0,1-.81-.37A2.33,2.33,0,0,1,14.43,99.66Zm.46,0a2.27,2.27,0,0,0,.2,1.18.59.59,0,0,0,1,0,2.25,2.25,0,0,0,.21-1.18,2.2,2.2,0,0,0-.21-1.17.62.62,0,0,0-.51-.29.57.57,0,0,0-.49.26A2.26,2.26,0,0,0,14.89,99.66Z" transform="translate(1.43 -22.06)"/><path class="cls-7" d="M7.48,81.54l.44-.06a1,1,0,0,0,.26.54.63.63,0,0,0,.44.16A.74.74,0,0,0,9.15,82a.72.72,0,0,0,.21-.53.68.68,0,0,0-.7-.7,1.32,1.32,0,0,0-.31.05l.05-.39h.07a.89.89,0,0,0,.5-.15.5.5,0,0,0,.23-.45.54.54,0,0,0-.17-.4.55.55,0,0,0-.42-.16.65.65,0,0,0-.43.16A.89.89,0,0,0,8,79.9l-.43-.08a1.13,1.13,0,0,1,.36-.69A1.18,1.18,0,0,1,9.14,79a.89.89,0,0,1,.51.8.68.68,0,0,1-.13.42.85.85,0,0,1-.36.31.81.81,0,0,1,.49.3.91.91,0,0,1,.17.58,1,1,0,0,1-.34.79,1.17,1.17,0,0,1-.86.33,1.13,1.13,0,0,1-.78-.28A1.09,1.09,0,0,1,7.48,81.54Z" transform="translate(1.43 -22.06)"/><path class="cls-7" d="M10.29,80.72a3.2,3.2,0,0,1,.13-1,1.31,1.31,0,0,1,.39-.6A1.11,1.11,0,0,1,12,79a.88.88,0,0,1,.36.33,1.84,1.84,0,0,1,.22.53,3.25,3.25,0,0,1,.08.85,3.2,3.2,0,0,1-.13,1,1.24,1.24,0,0,1-.38.59,1,1,0,0,1-.65.22,1,1,0,0,1-.82-.38A2.37,2.37,0,0,1,10.29,80.72Zm.45,0A2.18,2.18,0,0,0,11,81.89a.58.58,0,0,0,.51.29.6.6,0,0,0,.51-.29,2.31,2.31,0,0,0,.2-1.17,2.38,2.38,0,0,0-.2-1.18.63.63,0,0,0-.52-.29.56.56,0,0,0-.48.26A2.28,2.28,0,0,0,10.74,80.72Z" transform="translate(1.43 -22.06)"/><path class="cls-7" d="M13.29,82.48V82h.5v.5Z" transform="translate(1.43 -22.06)"/><path class="cls-7" d="M14.43,80.72a3.52,3.52,0,0,1,.13-1,1.31,1.31,0,0,1,.39-.6,1,1,0,0,1,.65-.21,1.07,1.07,0,0,1,.51.12,1,1,0,0,1,.36.33,2.17,2.17,0,0,1,.22.53,3.76,3.76,0,0,1,.08.85,3.2,3.2,0,0,1-.13,1,1.33,1.33,0,0,1-.39.59,1,1,0,0,1-.65.22,1,1,0,0,1-.81-.38A2.3,2.3,0,0,1,14.43,80.72Zm.46,0a2.2,2.2,0,0,0,.2,1.17.59.59,0,0,0,1,0,2.18,2.18,0,0,0,.21-1.17,2.25,2.25,0,0,0-.21-1.18.62.62,0,0,0-.51-.29.57.57,0,0,0-.49.26A2.3,2.3,0,0,0,14.89,80.72Z" transform="translate(1.43 -22.06)"/><path class="cls-7" d="M8.89,63.54v-.86H7.33v-.4L9,60h.36v2.32h.48v.4H9.33v.86Zm0-1.26V60.67L7.77,62.28Z" transform="translate(1.43 -22.06)"/><path class="cls-7" d="M10.29,61.77a3.2,3.2,0,0,1,.13-1,1.33,1.33,0,0,1,.39-.59,1.14,1.14,0,0,1,1.15-.1.9.9,0,0,1,.36.34,1.73,1.73,0,0,1,.22.53,4.23,4.23,0,0,1,0,1.86,1.22,1.22,0,0,1-.38.6,1.1,1.1,0,0,1-1.47-.16A2.41,2.41,0,0,1,10.29,61.77Zm.45,0A2.25,2.25,0,0,0,11,63a.6.6,0,0,0,.51.29A.62.62,0,0,0,12,63a2.38,2.38,0,0,0,.2-1.18A2.34,2.34,0,0,0,12,60.6a.63.63,0,0,0-.52-.29.56.56,0,0,0-.48.26A2.24,2.24,0,0,0,10.74,61.77Z" transform="translate(1.43 -22.06)"/><path class="cls-7" d="M13.29,63.54V63h.5v.5Z" transform="translate(1.43 -22.06)"/><path class="cls-7" d="M14.43,61.77a3.52,3.52,0,0,1,.13-1,1.33,1.33,0,0,1,.39-.59A1,1,0,0,1,15.6,60a.95.95,0,0,1,.87.45,2,2,0,0,1,.22.53,3.72,3.72,0,0,1,.08.84,3.2,3.2,0,0,1-.13,1,1.31,1.31,0,0,1-.39.6,1,1,0,0,1-.65.21,1,1,0,0,1-.81-.37A2.33,2.33,0,0,1,14.43,61.77Zm.46,0a2.27,2.27,0,0,0,.2,1.18.59.59,0,0,0,1,0,2.25,2.25,0,0,0,.21-1.18,2.2,2.2,0,0,0-.21-1.17.62.62,0,0,0-.51-.29.57.57,0,0,0-.49.26A2.26,2.26,0,0,0,14.89,61.77Z" transform="translate(1.43 -22.06)"/><path class="cls-7" d="M7.48,43.66l.46,0a.77.77,0,0,0,.24.51.64.64,0,0,0,.45.17.71.71,0,0,0,.54-.24.94.94,0,0,0,.22-.64.78.78,0,0,0-.22-.59.75.75,0,0,0-.55-.22.8.8,0,0,0-.38.1A.66.66,0,0,0,8,43l-.41-.05.34-1.84H9.68v.42H8.26l-.2,1a1.17,1.17,0,0,1,.68-.22,1.06,1.06,0,0,1,.79.32,1.15,1.15,0,0,1,.32.84,1.31,1.31,0,0,1-.28.84,1.15,1.15,0,0,1-.94.43,1.17,1.17,0,0,1-.8-.27A1.12,1.12,0,0,1,7.48,43.66Z" transform="translate(1.43 -22.06)"/><path class="cls-7" d="M10.29,42.83a3.2,3.2,0,0,1,.13-1,1.36,1.36,0,0,1,.39-.6A1.11,1.11,0,0,1,12,41.12a.9.9,0,0,1,.36.34,1.73,1.73,0,0,1,.22.53,4.23,4.23,0,0,1,0,1.86,1.22,1.22,0,0,1-.38.6,1.1,1.1,0,0,1-1.47-.16A2.41,2.41,0,0,1,10.29,42.83Zm.45,0A2.25,2.25,0,0,0,11,44a.6.6,0,0,0,.51.29A.62.62,0,0,0,12,44a2.38,2.38,0,0,0,.2-1.18,2.31,2.31,0,0,0-.2-1.17.63.63,0,0,0-.52-.29.54.54,0,0,0-.48.26A2.24,2.24,0,0,0,10.74,42.83Z" transform="translate(1.43 -22.06)"/><path class="cls-7" d="M13.29,44.6v-.5h.5v.5Z" transform="translate(1.43 -22.06)"/><path class="cls-7" d="M14.43,42.83a3.52,3.52,0,0,1,.13-1,1.36,1.36,0,0,1,.39-.6A1,1,0,0,1,15.6,41a1,1,0,0,1,.87.46,2,2,0,0,1,.22.53,3.72,3.72,0,0,1,.08.84,3.2,3.2,0,0,1-.13,1,1.31,1.31,0,0,1-.39.6,1,1,0,0,1-.65.21,1,1,0,0,1-.81-.37A2.33,2.33,0,0,1,14.43,42.83Zm.46,0a2.27,2.27,0,0,0,.2,1.18.59.59,0,0,0,1,0,2.25,2.25,0,0,0,.21-1.18,2.18,2.18,0,0,0-.21-1.17.62.62,0,0,0-.51-.29.55.55,0,0,0-.49.26A2.26,2.26,0,0,0,14.89,42.83Z" transform="translate(1.43 -22.06)"/><path class="cls-7" d="M9.76,23l-.44,0a.9.9,0,0,0-.16-.38.61.61,0,0,0-.44-.19.59.59,0,0,0-.37.12A1,1,0,0,0,8,23a2.28,2.28,0,0,0-.12.83,1,1,0,0,1,.38-.36,1.07,1.07,0,0,1,.49-.12,1,1,0,0,1,.74.33,1.12,1.12,0,0,1,.31.83,1.46,1.46,0,0,1-.14.63,1.07,1.07,0,0,1-.4.44,1,1,0,0,1-.58.16,1.12,1.12,0,0,1-.89-.41A2,2,0,0,1,7.46,24a2.44,2.44,0,0,1,.38-1.51,1.13,1.13,0,0,1,.9-.41,1,1,0,0,1,.7.24A1,1,0,0,1,9.76,23ZM8,24.5a1.08,1.08,0,0,0,.1.43.86.86,0,0,0,.27.32.72.72,0,0,0,.36.11.62.62,0,0,0,.48-.23.85.85,0,0,0,.2-.61.81.81,0,0,0-.19-.58.65.65,0,0,0-.5-.22.67.67,0,0,0-.51.22A.76.76,0,0,0,8,24.5Z" transform="translate(1.43 -22.06)"/><path class="cls-7" d="M10.29,23.89a3.2,3.2,0,0,1,.13-1,1.31,1.31,0,0,1,.39-.6A1.11,1.11,0,0,1,12,22.18a1,1,0,0,1,.36.33,2,2,0,0,1,.22.53,3.3,3.3,0,0,1,.08.85,3.2,3.2,0,0,1-.13,1,1.22,1.22,0,0,1-.38.6,1,1,0,0,1-.65.21,1,1,0,0,1-.82-.37A2.43,2.43,0,0,1,10.29,23.89Zm.45,0A2.18,2.18,0,0,0,11,25.06a.59.59,0,0,0,.51.3.61.61,0,0,0,.51-.3,2.31,2.31,0,0,0,.2-1.17,2.31,2.31,0,0,0-.2-1.17.6.6,0,0,0-.52-.29.56.56,0,0,0-.48.25A2.28,2.28,0,0,0,10.74,23.89Z" transform="translate(1.43 -22.06)"/><path class="cls-7" d="M13.29,25.66v-.5h.5v.5Z" transform="translate(1.43 -22.06)"/><path class="cls-7" d="M14.43,23.89a3.52,3.52,0,0,1,.13-1,1.31,1.31,0,0,1,.39-.6,1,1,0,0,1,.65-.21,1.07,1.07,0,0,1,.51.12,1.13,1.13,0,0,1,.36.33,2.35,2.35,0,0,1,.22.53,3.82,3.82,0,0,1,.08.85,3.2,3.2,0,0,1-.13,1,1.31,1.31,0,0,1-.39.6,1,1,0,0,1-.65.21,1,1,0,0,1-.81-.37A2.35,2.35,0,0,1,14.43,23.89Zm.46,0a2.2,2.2,0,0,0,.2,1.17.58.58,0,0,0,1,0,2.18,2.18,0,0,0,.21-1.17,2.18,2.18,0,0,0-.21-1.17.6.6,0,0,0-.51-.29.56.56,0,0,0-.49.25A2.3,2.3,0,0,0,14.89,23.89Z" transform="translate(1.43 -22.06)"/></g><g id="English"><rect class="繝後Μ_逋ｽ-2" x="21.98" y="43.42" width="47.91" height="16.72"/><path class="cls-7" d="M23.76,70.37l.58-.05a1.21,1.21,0,0,0,.2.57,1,1,0,0,0,.46.36,1.81,1.81,0,0,0,.72.14,1.71,1.71,0,0,0,.62-.11.87.87,0,0,0,.4-.28.66.66,0,0,0,.13-.4.6.6,0,0,0-.12-.38,1.06,1.06,0,0,0-.42-.28,8,8,0,0,0-.83-.22,4.57,4.57,0,0,1-.9-.3,1.26,1.26,0,0,1-.5-.43,1,1,0,0,1-.16-.58,1.24,1.24,0,0,1,.2-.66,1.22,1.22,0,0,1,.58-.46,2.16,2.16,0,0,1,.86-.16,2.34,2.34,0,0,1,.91.17,1.3,1.3,0,0,1,.61.49,1.4,1.4,0,0,1,.23.73l-.59,0a1,1,0,0,0-.33-.66,1.24,1.24,0,0,0-.81-.23,1.27,1.27,0,0,0-.81.21.61.61,0,0,0-.26.49.51.51,0,0,0,.18.41,2.39,2.39,0,0,0,.93.33,7.15,7.15,0,0,1,1,.3,1.41,1.41,0,0,1,.6.48,1.14,1.14,0,0,1,.2.66,1.29,1.29,0,0,1-.22.7,1.34,1.34,0,0,1-.61.51,2.11,2.11,0,0,1-.89.18,2.73,2.73,0,0,1-1.06-.18A1.48,1.48,0,0,1,24,71.2,1.57,1.57,0,0,1,23.76,70.37Z" transform="translate(1.43 -22.06)"/><path class="cls-7" d="M28.23,71.86V67.21h.58v1.67a1.25,1.25,0,0,1,1-.46,1.39,1.39,0,0,1,.66.14.91.91,0,0,1,.39.41,1.88,1.88,0,0,1,.12.76v2.13h-.57V69.73a.86.86,0,0,0-.19-.63.68.68,0,0,0-.52-.19.91.91,0,0,0-.48.13.74.74,0,0,0-.32.36,1.69,1.69,0,0,0-.09.62v1.84Z" transform="translate(1.43 -22.06)"/><path class="cls-7" d="M31.64,70.18a1.73,1.73,0,0,1,.52-1.39,1.56,1.56,0,0,1,1.06-.37,1.51,1.51,0,0,1,1.13.45,1.7,1.7,0,0,1,.44,1.26,2.24,2.24,0,0,1-.19,1,1.39,1.39,0,0,1-.57.58,1.63,1.63,0,0,1-.81.21,1.51,1.51,0,0,1-1.15-.46A1.79,1.79,0,0,1,31.64,70.18Zm.58,0a1.44,1.44,0,0,0,.29,1,.94.94,0,0,0,1.42,0,1.49,1.49,0,0,0,.28-1,1.38,1.38,0,0,0-.29-1,.91.91,0,0,0-.7-.32.87.87,0,0,0-.71.32A1.41,1.41,0,0,0,32.22,70.18Z" transform="translate(1.43 -22.06)"/><path class="cls-7" d="M35.46,71.86V68.49H36V69a1.29,1.29,0,0,1,.37-.47.59.59,0,0,1,.36-.11,1.15,1.15,0,0,1,.59.18l-.2.53a.84.84,0,0,0-.42-.12.51.51,0,0,0-.33.11.65.65,0,0,0-.22.31,2.36,2.36,0,0,0-.09.67v1.76Z" transform="translate(1.43 -22.06)"/><path class="cls-7" d="M38.88,71.35l.08.51a2.47,2.47,0,0,1-.43,0,1.09,1.09,0,0,1-.49-.1.6.6,0,0,1-.24-.26,2.27,2.27,0,0,1-.07-.68V68.94h-.42v-.45h.42v-.83l.57-.35v1.18h.58v.45H38.3v2a1,1,0,0,0,0,.31.21.21,0,0,0,.1.11.36.36,0,0,0,.19,0A1.33,1.33,0,0,0,38.88,71.35Z" transform="translate(1.43 -22.06)"/><path class="cls-7" d="M39.21,70.47v-.58H41v.58Z" transform="translate(1.43 -22.06)"/><path class="cls-7" d="M43.79,71.86v-.42a1.07,1.07,0,0,1-.95.5,1.39,1.39,0,0,1-.74-.22,1.51,1.51,0,0,1-.52-.62,2.1,2.1,0,0,1-.19-.92,2.47,2.47,0,0,1,.17-.92,1.33,1.33,0,0,1,.51-.63,1.37,1.37,0,0,1,.75-.21,1.19,1.19,0,0,1,.54.12,1.17,1.17,0,0,1,.39.34V67.21h.57v4.65ZM42,70.18a1.5,1.5,0,0,0,.27,1,.84.84,0,0,0,.65.32.78.78,0,0,0,.63-.31,1.36,1.36,0,0,0,.27-.93,1.59,1.59,0,0,0-.27-1,.84.84,0,0,0-.66-.32.78.78,0,0,0-.63.31A1.53,1.53,0,0,0,42,70.18Z" transform="translate(1.43 -22.06)"/><path class="cls-7" d="M47.42,71.86v-.49a1.23,1.23,0,0,1-1.07.57,1.26,1.26,0,0,1-.55-.12.91.91,0,0,1-.39-.28,1.11,1.11,0,0,1-.17-.43,2.3,2.3,0,0,1,0-.53V68.49h.57v1.87a2.63,2.63,0,0,0,0,.6.58.58,0,0,0,.23.36.73.73,0,0,0,.43.13.92.92,0,0,0,.48-.14.68.68,0,0,0,.32-.35,1.94,1.94,0,0,0,.09-.66V68.49h.57v3.37Z" transform="translate(1.43 -22.06)"/><path class="cls-7" d="M48.82,71.86V68.49h.52V69a1.41,1.41,0,0,1,.36-.47.6.6,0,0,1,.37-.11,1.09,1.09,0,0,1,.58.18l-.19.53A.84.84,0,0,0,50,69a.51.51,0,0,0-.34.11.58.58,0,0,0-.21.31,2.35,2.35,0,0,0-.1.67v1.76Z" transform="translate(1.43 -22.06)"/><path class="cls-7" d="M53.19,71.45a2.17,2.17,0,0,1-.61.38,1.81,1.81,0,0,1-.63.11,1.22,1.22,0,0,1-.85-.27.91.91,0,0,1-.3-.7,1,1,0,0,1,.11-.45,1.06,1.06,0,0,1,.3-.33,1.72,1.72,0,0,1,.41-.19l.51-.08a5.33,5.33,0,0,0,1-.2v-.15a.67.67,0,0,0-.16-.49,1,1,0,0,0-.65-.19,1,1,0,0,0-.6.14.83.83,0,0,0-.28.5l-.56-.08a1.34,1.34,0,0,1,.25-.58,1.17,1.17,0,0,1,.5-.34,2.27,2.27,0,0,1,.77-.11,2,2,0,0,1,.7.1.92.92,0,0,1,.4.25.87.87,0,0,1,.17.39,3.08,3.08,0,0,1,0,.53v.76a6.89,6.89,0,0,0,0,1,1.19,1.19,0,0,0,.14.4h-.59A1.31,1.31,0,0,1,53.19,71.45Zm0-1.28a4.52,4.52,0,0,1-.94.22,2.25,2.25,0,0,0-.5.11.45.45,0,0,0-.22.19.5.5,0,0,0,.09.65.78.78,0,0,0,.51.15,1.28,1.28,0,0,0,.59-.14.89.89,0,0,0,.37-.4,1.24,1.24,0,0,0,.1-.57Z" transform="translate(1.43 -22.06)"/><path class="cls-7" d="M55.86,71.35l.08.51a2.47,2.47,0,0,1-.43,0,1.09,1.09,0,0,1-.49-.1.6.6,0,0,1-.24-.26,2.27,2.27,0,0,1-.07-.68V68.94h-.42v-.45h.42v-.83l.57-.35v1.18h.58v.45h-.58v2a1,1,0,0,0,0,.31.21.21,0,0,0,.1.11.36.36,0,0,0,.19,0A1.33,1.33,0,0,0,55.86,71.35Z" transform="translate(1.43 -22.06)"/><path class="cls-7" d="M56.42,67.87v-.66H57v.66Zm0,4V68.49H57v3.37Z" transform="translate(1.43 -22.06)"/><path class="cls-7" d="M57.65,70.18a1.73,1.73,0,0,1,.52-1.39,1.56,1.56,0,0,1,1.06-.37,1.51,1.51,0,0,1,1.13.45,1.7,1.7,0,0,1,.44,1.26,2.24,2.24,0,0,1-.19,1,1.39,1.39,0,0,1-.57.58,1.63,1.63,0,0,1-.81.21,1.49,1.49,0,0,1-1.15-.46A1.79,1.79,0,0,1,57.65,70.18Zm.58,0a1.44,1.44,0,0,0,.29,1,.9.9,0,0,0,.71.32.87.87,0,0,0,.7-.33,1.43,1.43,0,0,0,.29-1,1.38,1.38,0,0,0-.29-1,.91.91,0,0,0-.7-.32.87.87,0,0,0-.71.32A1.41,1.41,0,0,0,58.23,70.18Z" transform="translate(1.43 -22.06)"/><path class="cls-7" d="M61.47,71.86V68.49H62V69a1.2,1.2,0,0,1,1.07-.55,1.47,1.47,0,0,1,.56.1.89.89,0,0,1,.38.29,1,1,0,0,1,.18.42,3.51,3.51,0,0,1,0,.56v2.07h-.57v-2a1.38,1.38,0,0,0-.07-.52.53.53,0,0,0-.23-.28.77.77,0,0,0-.4-.1,1,1,0,0,0-.63.23,1.14,1.14,0,0,0-.26.88v1.84Z" transform="translate(1.43 -22.06)"/><path class="cls-7" d="M23.89,79.66V76.29h.52v.51a1.41,1.41,0,0,1,.36-.47.6.6,0,0,1,.37-.11,1.12,1.12,0,0,1,.58.18l-.19.53a.84.84,0,0,0-.42-.12.51.51,0,0,0-.34.11.58.58,0,0,0-.21.31,2,2,0,0,0-.1.67v1.76Z" transform="translate(1.43 -22.06)"/><path class="cls-7" d="M28.27,79.66v-.49a1.23,1.23,0,0,1-1.07.57,1.26,1.26,0,0,1-.55-.12.86.86,0,0,1-.39-.28,1.11,1.11,0,0,1-.17-.43,2.3,2.3,0,0,1,0-.53V76.29h.57v1.87a2.63,2.63,0,0,0,0,.6.58.58,0,0,0,.23.36.73.73,0,0,0,.43.13.92.92,0,0,0,.48-.14.68.68,0,0,0,.32-.35,1.94,1.94,0,0,0,.09-.66V76.29h.57v3.37Z" transform="translate(1.43 -22.06)"/><path class="cls-7" d="M29.68,79.66V76.29h.51v.48a1.22,1.22,0,0,1,1.08-.55,1.47,1.47,0,0,1,.56.1,1,1,0,0,1,.38.29,1.33,1.33,0,0,1,.18.42,3.51,3.51,0,0,1,0,.56v2.07h-.57v-2a1.62,1.62,0,0,0-.07-.52.5.5,0,0,0-.24-.28.72.72,0,0,0-.4-.1,1,1,0,0,0-.63.23,1.18,1.18,0,0,0-.26.88v1.84Z" transform="translate(1.43 -22.06)"/><path class="cls-7" d="M33.29,79.66V76.29h.52v.48a1.19,1.19,0,0,1,1.07-.55,1.47,1.47,0,0,1,.56.1.89.89,0,0,1,.38.29A1,1,0,0,1,36,77a3.51,3.51,0,0,1,0,.56v2.07h-.57v-2a1.38,1.38,0,0,0-.07-.52.53.53,0,0,0-.23-.28.77.77,0,0,0-.4-.1,1,1,0,0,0-.63.23,1.14,1.14,0,0,0-.27.88v1.84Z" transform="translate(1.43 -22.06)"/><path class="cls-7" d="M36.91,75.67V75h.57v.66Zm0,4V76.29h.57v3.37Z" transform="translate(1.43 -22.06)"/><path class="cls-7" d="M38.35,79.66V76.29h.52v.48a1.19,1.19,0,0,1,1.07-.55,1.47,1.47,0,0,1,.56.1.89.89,0,0,1,.38.29,1,1,0,0,1,.18.42,3.51,3.51,0,0,1,0,.56v2.07h-.57v-2a1.38,1.38,0,0,0-.07-.52.53.53,0,0,0-.23-.28.77.77,0,0,0-.4-.1.94.94,0,0,0-.63.23,1.14,1.14,0,0,0-.27.88v1.84Z" transform="translate(1.43 -22.06)"/><path class="cls-7" d="M41.86,79.94l.56.08a.53.53,0,0,0,.19.38,1,1,0,0,0,.58.16,1,1,0,0,0,.61-.16.79.79,0,0,0,.3-.45,3.76,3.76,0,0,0,0-.73,1.18,1.18,0,0,1-.93.44,1.28,1.28,0,0,1-1.08-.5,1.87,1.87,0,0,1-.38-1.2,2.35,2.35,0,0,1,.17-.89,1.4,1.4,0,0,1,.51-.63,1.35,1.35,0,0,1,.78-.22,1.2,1.2,0,0,1,1,.48v-.41h.53V79.2a2.72,2.72,0,0,1-.16,1.12,1.22,1.22,0,0,1-.51.52,1.72,1.72,0,0,1-.85.19,1.63,1.63,0,0,1-1-.27A.92.92,0,0,1,41.86,79.94Zm.48-2a1.41,1.41,0,0,0,.26,1,.81.81,0,0,0,.66.31.85.85,0,0,0,.66-.3,1.76,1.76,0,0,0,0-1.89.85.85,0,0,0-1.31,0A1.35,1.35,0,0,0,42.34,77.92Z" transform="translate(1.43 -22.06)"/><path class="cls-7" d="M47.38,79.66V76.29h.52v.51a1.41,1.41,0,0,1,.36-.47.6.6,0,0,1,.37-.11,1.12,1.12,0,0,1,.58.18l-.19.53a.84.84,0,0,0-.42-.12.51.51,0,0,0-.34.11.58.58,0,0,0-.21.31,2.35,2.35,0,0,0-.1.67v1.76Z" transform="translate(1.43 -22.06)"/><path class="cls-7" d="M51.75,79.25a2.17,2.17,0,0,1-.61.38,1.85,1.85,0,0,1-.63.11,1.22,1.22,0,0,1-.85-.27.91.91,0,0,1-.3-.7,1,1,0,0,1,.11-.45,1.06,1.06,0,0,1,.3-.33,1.72,1.72,0,0,1,.41-.19l.51-.08a5,5,0,0,0,1-.2,1.14,1.14,0,0,0,0-.15.67.67,0,0,0-.16-.49,1.27,1.27,0,0,0-1.25,0,.83.83,0,0,0-.28.5l-.56-.08a1.34,1.34,0,0,1,.25-.58,1.11,1.11,0,0,1,.5-.34,2.27,2.27,0,0,1,.77-.11,2,2,0,0,1,.7.1.92.92,0,0,1,.4.25.87.87,0,0,1,.17.39,3.08,3.08,0,0,1,0,.53v.76a6.89,6.89,0,0,0,0,1,1.19,1.19,0,0,0,.14.4h-.59A1.31,1.31,0,0,1,51.75,79.25Zm0-1.28a4.24,4.24,0,0,1-.93.22,2.25,2.25,0,0,0-.5.11.45.45,0,0,0-.22.19.43.43,0,0,0-.08.27.5.5,0,0,0,.17.38.78.78,0,0,0,.51.15,1.28,1.28,0,0,0,.59-.14.89.89,0,0,0,.37-.4,1.41,1.41,0,0,0,.09-.57Z" transform="translate(1.43 -22.06)"/><path class="cls-7" d="M53.17,79.66V76.29h.51v.48a1.21,1.21,0,0,1,1.07-.55,1.52,1.52,0,0,1,.57.1,1,1,0,0,1,.38.29,1.33,1.33,0,0,1,.18.42,3.51,3.51,0,0,1,0,.56v2.07h-.57v-2a1.62,1.62,0,0,0-.07-.52.55.55,0,0,0-.24-.28.72.72,0,0,0-.4-.1,1,1,0,0,0-.63.23,1.18,1.18,0,0,0-.26.88v1.84Z" transform="translate(1.43 -22.06)"/><path class="cls-7" d="M56.68,79.94l.55.08a.54.54,0,0,0,.2.38,1,1,0,0,0,.58.16,1.05,1.05,0,0,0,.61-.16.82.82,0,0,0,.29-.45,3.07,3.07,0,0,0,0-.73,1.18,1.18,0,0,1-.93.44,1.3,1.3,0,0,1-1.08-.5,1.93,1.93,0,0,1-.38-1.2,2.18,2.18,0,0,1,.18-.89,1.32,1.32,0,0,1,.5-.63,1.37,1.37,0,0,1,.78-.22,1.22,1.22,0,0,1,1,.48v-.41h.52V79.2a2.72,2.72,0,0,1-.16,1.12,1.14,1.14,0,0,1-.5.52A1.76,1.76,0,0,1,58,81a1.59,1.59,0,0,1-1-.27A.92.92,0,0,1,56.68,79.94Zm.47-2a1.47,1.47,0,0,0,.26,1,.87.87,0,0,0,1.32,0,1.79,1.79,0,0,0,0-1.89.86.86,0,0,0-.66-.31.81.81,0,0,0-.65.31A1.35,1.35,0,0,0,57.15,77.92Z" transform="translate(1.43 -22.06)"/><path class="cls-7" d="M62.71,78.58l.59.07a1.5,1.5,0,0,1-.52.8,1.55,1.55,0,0,1-1,.29,1.52,1.52,0,0,1-1.17-.46A1.76,1.76,0,0,1,60.21,78a1.9,1.9,0,0,1,.43-1.33,1.51,1.51,0,0,1,1.14-.46,1.48,1.48,0,0,1,1.11.45,1.86,1.86,0,0,1,.42,1.3v.15H60.8a1.26,1.26,0,0,0,.31.85.93.93,0,0,0,.71.3.84.84,0,0,0,.53-.17A1.1,1.1,0,0,0,62.71,78.58Zm-1.88-.93h1.88A1.14,1.14,0,0,0,62.5,77a.87.87,0,0,0-.71-.34.9.9,0,0,0-.66.27A1,1,0,0,0,60.83,77.65Z" transform="translate(1.43 -22.06)"/><rect class="繝後Μ_逋ｽ-2" x="22.73" y="93.65" width="41.46" height="16.72"/><path class="cls-7" d="M27.39,120.46l.62.15a2.07,2.07,0,0,1-.7,1.16,1.93,1.93,0,0,1-1.23.4,2.14,2.14,0,0,1-1.22-.31,1.84,1.84,0,0,1-.72-.89,3.19,3.19,0,0,1-.25-1.24,2.8,2.8,0,0,1,.28-1.27,1.9,1.9,0,0,1,.79-.82,2.28,2.28,0,0,1,1.13-.28,1.85,1.85,0,0,1,1.17.35,1.88,1.88,0,0,1,.67,1l-.61.14a1.48,1.48,0,0,0-.47-.74,1.26,1.26,0,0,0-.77-.23,1.52,1.52,0,0,0-.9.26,1.37,1.37,0,0,0-.51.69,3.09,3.09,0,0,0,0,1.93,1.32,1.32,0,0,0,.54.66,1.47,1.47,0,0,0,.79.22,1.34,1.34,0,0,0,.88-.3A1.48,1.48,0,0,0,27.39,120.46Z" transform="translate(1.43 -22.06)"/><path class="cls-7" d="M28.48,120.4A1.72,1.72,0,0,1,29,119a1.57,1.57,0,0,1,1.06-.38,1.51,1.51,0,0,1,1.14.46,1.74,1.74,0,0,1,.44,1.26,2.22,2.22,0,0,1-.2,1,1.39,1.39,0,0,1-.57.58,1.6,1.6,0,0,1-.81.2,1.51,1.51,0,0,1-1.14-.45A1.82,1.82,0,0,1,28.48,120.4Zm.59,0a1.42,1.42,0,0,0,.28,1,.88.88,0,0,0,.71.32.9.9,0,0,0,.71-.32,1.46,1.46,0,0,0,.28-1,1.37,1.37,0,0,0-.28-.94.94.94,0,0,0-1.42,0A1.44,1.44,0,0,0,29.07,120.4Z" transform="translate(1.43 -22.06)"/><path class="cls-7" d="M32.31,122.09v-3.37h.51v.48a1.22,1.22,0,0,1,1.07-.56,1.52,1.52,0,0,1,.57.11.88.88,0,0,1,.38.29,1.33,1.33,0,0,1,.18.42,3.45,3.45,0,0,1,0,.55v2.08h-.57v-2a1.57,1.57,0,0,0-.07-.52.55.55,0,0,0-.24-.28.72.72,0,0,0-.4-.1.91.91,0,0,0-.63.23,1.17,1.17,0,0,0-.26.88v1.84Z" transform="translate(1.43 -22.06)"/><path class="cls-7" d="M37.17,121.58l.08.5a2.37,2.37,0,0,1-.43,0,.9.9,0,0,1-.48-.1.48.48,0,0,1-.24-.25,2,2,0,0,1-.07-.68v-1.94h-.42v-.44H36v-.84l.57-.34v1.18h.57v.44H36.6v2a1.81,1.81,0,0,0,0,.32.52.52,0,0,0,.1.11.37.37,0,0,0,.2,0Z" transform="translate(1.43 -22.06)"/><path class="cls-7" d="M37.73,118.09v-.65h.57v.65Zm0,4v-3.37h.57v3.37Z" transform="translate(1.43 -22.06)"/><path class="cls-7" d="M39.17,122.09v-3.37h.52v.48a1.2,1.2,0,0,1,1.07-.56,1.47,1.47,0,0,1,.56.11.82.82,0,0,1,.38.29,1,1,0,0,1,.18.42,3.45,3.45,0,0,1,0,.55v2.08h-.57v-2a1.34,1.34,0,0,0-.07-.52.53.53,0,0,0-.23-.28.77.77,0,0,0-.4-.1.91.91,0,0,0-.63.23,1.13,1.13,0,0,0-.27.88v1.84Z" transform="translate(1.43 -22.06)"/><path class="cls-7" d="M45,122.09v-.5a1.25,1.25,0,0,1-1.07.57,1.3,1.3,0,0,1-.56-.11.92.92,0,0,1-.56-.71,3.07,3.07,0,0,1,0-.53v-2.09h.58v1.87a3.86,3.86,0,0,0,0,.6.57.57,0,0,0,.23.35.69.69,0,0,0,.43.13.91.91,0,0,0,.48-.13.74.74,0,0,0,.32-.36,1.83,1.83,0,0,0,.1-.66v-1.8h.57v3.37Z" transform="translate(1.43 -22.06)"/><path class="cls-7" d="M46.19,120.4a1.72,1.72,0,0,1,.52-1.38,1.57,1.57,0,0,1,1.06-.38,1.51,1.51,0,0,1,1.14.46,1.74,1.74,0,0,1,.44,1.26,2.22,2.22,0,0,1-.2,1,1.39,1.39,0,0,1-.57.58,1.6,1.6,0,0,1-.81.2,1.51,1.51,0,0,1-1.14-.45A1.82,1.82,0,0,1,46.19,120.4Zm.59,0a1.42,1.42,0,0,0,.28,1,.88.88,0,0,0,.71.32.9.9,0,0,0,.71-.32,1.46,1.46,0,0,0,.28-1,1.37,1.37,0,0,0-.28-.94.94.94,0,0,0-1.42,0A1.44,1.44,0,0,0,46.78,120.4Z" transform="translate(1.43 -22.06)"/><path class="cls-7" d="M52.23,122.09v-.5a1.25,1.25,0,0,1-1.07.57,1.3,1.3,0,0,1-.56-.11.92.92,0,0,1-.56-.71,3.07,3.07,0,0,1,0-.53v-2.09h.58v1.87a3.86,3.86,0,0,0,0,.6.57.57,0,0,0,.23.35.69.69,0,0,0,.43.13.91.91,0,0,0,.48-.13.74.74,0,0,0,.32-.36,1.83,1.83,0,0,0,.1-.66v-1.8h.57v3.37Z" transform="translate(1.43 -22.06)"/><path class="cls-7" d="M53.4,121.08,54,121a.79.79,0,0,0,.26.52.94.94,0,0,0,.61.18.9.9,0,0,0,.59-.16.48.48,0,0,0,.19-.37.37.37,0,0,0-.17-.31,2.62,2.62,0,0,0-.59-.19,7.38,7.38,0,0,1-.87-.27.91.91,0,0,1-.37-.33.84.84,0,0,1-.12-.45.87.87,0,0,1,.1-.42.92.92,0,0,1,.28-.31,1,1,0,0,1,.37-.17,1.53,1.53,0,0,1,.49-.07,1.86,1.86,0,0,1,.7.12.86.86,0,0,1,.44.31,1.13,1.13,0,0,1,.2.52l-.56.07a.61.61,0,0,0-.22-.4.81.81,0,0,0-.52-.15.91.91,0,0,0-.56.13.4.4,0,0,0-.17.31.31.31,0,0,0,.07.2.53.53,0,0,0,.22.15l.51.14a7,7,0,0,1,.84.27.88.88,0,0,1,.38.3.83.83,0,0,1,.13.49,1,1,0,0,1-.16.54,1.18,1.18,0,0,1-.48.39,1.8,1.8,0,0,1-.71.13,1.62,1.62,0,0,1-1-.27A1.29,1.29,0,0,1,53.4,121.08Z" transform="translate(1.43 -22.06)"/><path class="cls-7" d="M24,129.89v-3.37h.52V127a1.31,1.31,0,0,1,.36-.47.61.61,0,0,1,.37-.12,1,1,0,0,1,.58.19l-.19.52a.84.84,0,0,0-.42-.12.58.58,0,0,0-.34.11.6.6,0,0,0-.21.32,2,2,0,0,0-.1.66v1.77Z" transform="translate(1.43 -22.06)"/><path class="cls-7" d="M28.37,129.89v-.5a1.23,1.23,0,0,1-1.07.57,1.26,1.26,0,0,1-.55-.11.87.87,0,0,1-.39-.29,1,1,0,0,1-.17-.42,2.3,2.3,0,0,1,0-.53v-2.09h.57v1.87a2.69,2.69,0,0,0,0,.6.54.54,0,0,0,.23.35.67.67,0,0,0,.43.13.91.91,0,0,0,.48-.13.74.74,0,0,0,.32-.36,1.86,1.86,0,0,0,.09-.66v-1.8h.57v3.37Z" transform="translate(1.43 -22.06)"/><path class="cls-7" d="M29.78,129.89v-3.37h.51V127a1.23,1.23,0,0,1,1.08-.56,1.47,1.47,0,0,1,.56.11.88.88,0,0,1,.38.29,1.13,1.13,0,0,1,.17.42,2.39,2.39,0,0,1,0,.55v2.08H32v-2a1.57,1.57,0,0,0-.07-.52.55.55,0,0,0-.24-.28.72.72,0,0,0-.4-.1.91.91,0,0,0-.63.23,1.17,1.17,0,0,0-.26.88v1.84Z" transform="translate(1.43 -22.06)"/><path class="cls-7" d="M33.39,129.89v-3.37h.52V127a1.2,1.2,0,0,1,1.07-.56,1.47,1.47,0,0,1,.56.11.82.82,0,0,1,.38.29,1,1,0,0,1,.18.42,3.45,3.45,0,0,1,0,.55v2.08h-.57v-2a1.34,1.34,0,0,0-.07-.52.53.53,0,0,0-.23-.28.77.77,0,0,0-.4-.1.91.91,0,0,0-.63.23,1.13,1.13,0,0,0-.27.88v1.84Z" transform="translate(1.43 -22.06)"/><path class="cls-7" d="M37,125.89v-.65h.57v.65Zm0,4v-3.37h.57v3.37Z" transform="translate(1.43 -22.06)"/><path class="cls-7" d="M38.45,129.89v-3.37H39V127a1.2,1.2,0,0,1,1.07-.56,1.47,1.47,0,0,1,.56.11.82.82,0,0,1,.38.29,1,1,0,0,1,.18.42,3.45,3.45,0,0,1,0,.55v2.08h-.57v-2a1.34,1.34,0,0,0-.07-.52.53.53,0,0,0-.23-.28.77.77,0,0,0-.4-.1.89.89,0,0,0-.63.23,1.13,1.13,0,0,0-.27.88v1.84Z" transform="translate(1.43 -22.06)"/><path class="cls-7" d="M42,130.17l.56.08a.51.51,0,0,0,.19.37.93.93,0,0,0,.58.16,1,1,0,0,0,.61-.16.73.73,0,0,0,.3-.44,3.83,3.83,0,0,0,0-.73,1.18,1.18,0,0,1-.93.44,1.28,1.28,0,0,1-1.08-.5,1.92,1.92,0,0,1-.38-1.21,2.35,2.35,0,0,1,.17-.89,1.46,1.46,0,0,1,.51-.63,1.35,1.35,0,0,1,.78-.22,1.2,1.2,0,0,1,1,.48v-.4h.53v2.91a2.72,2.72,0,0,1-.16,1.12,1.14,1.14,0,0,1-.51.51,1.72,1.72,0,0,1-.85.2,1.56,1.56,0,0,1-1-.28A.9.9,0,0,1,42,130.17Zm.48-2a1.44,1.44,0,0,0,.26,1,.83.83,0,0,0,.66.3.85.85,0,0,0,.66-.3,1.74,1.74,0,0,0,0-1.88.84.84,0,0,0-.66-.32.86.86,0,0,0-.65.31A1.38,1.38,0,0,0,42.44,128.14Z" transform="translate(1.43 -22.06)"/><path class="cls-7" d="M47.48,129.89v-3.37H48V127a1.31,1.31,0,0,1,.36-.47.61.61,0,0,1,.37-.12,1,1,0,0,1,.58.19l-.19.52a.84.84,0,0,0-.42-.12.58.58,0,0,0-.34.11.6.6,0,0,0-.21.32,2,2,0,0,0-.1.66v1.77Z" transform="translate(1.43 -22.06)"/><path class="cls-7" d="M51.85,129.47a2,2,0,0,1-.61.38,1.64,1.64,0,0,1-.63.11,1.22,1.22,0,0,1-.85-.27.89.89,0,0,1-.3-.69.94.94,0,0,1,.11-.45,1,1,0,0,1,.3-.33,1.4,1.4,0,0,1,.41-.19,3,3,0,0,1,.51-.08,5.88,5.88,0,0,0,1-.2,1.14,1.14,0,0,0,0-.15.65.65,0,0,0-.16-.49,1,1,0,0,0-.66-.2,1,1,0,0,0-.59.15.83.83,0,0,0-.28.49l-.56-.07a1.34,1.34,0,0,1,.25-.58,1,1,0,0,1,.5-.34,2.26,2.26,0,0,1,.77-.12,2,2,0,0,1,.7.1,1,1,0,0,1,.4.26.87.87,0,0,1,.17.39,2.94,2.94,0,0,1,0,.52v.76a6.8,6.8,0,0,0,0,1,1.25,1.25,0,0,0,.14.41H52A1.29,1.29,0,0,1,51.85,129.47Zm-.05-1.27a4.35,4.35,0,0,1-.93.21,2.14,2.14,0,0,0-.5.12.49.49,0,0,0-.22.18.43.43,0,0,0-.08.27.49.49,0,0,0,.17.38.73.73,0,0,0,.51.16,1.11,1.11,0,0,0,.58-.15.84.84,0,0,0,.38-.39,1.41,1.41,0,0,0,.09-.57Z" transform="translate(1.43 -22.06)"/><path class="cls-7" d="M53.27,129.89v-3.37h.51V127a1.22,1.22,0,0,1,1.07-.56,1.52,1.52,0,0,1,.57.11.88.88,0,0,1,.38.29,1.33,1.33,0,0,1,.18.42,3.45,3.45,0,0,1,0,.55v2.08h-.57v-2a1.57,1.57,0,0,0-.07-.52.55.55,0,0,0-.24-.28.72.72,0,0,0-.4-.1.91.91,0,0,0-.63.23,1.17,1.17,0,0,0-.26.88v1.84Z" transform="translate(1.43 -22.06)"/><path class="cls-7" d="M56.78,130.17l.55.08a.52.52,0,0,0,.2.37.91.91,0,0,0,.58.16,1,1,0,0,0,.61-.16.76.76,0,0,0,.29-.44,3.12,3.12,0,0,0,0-.73,1.18,1.18,0,0,1-.93.44,1.3,1.3,0,0,1-1.08-.5,2,2,0,0,1-.38-1.21,2.18,2.18,0,0,1,.18-.89,1.31,1.31,0,0,1,1.28-.85,1.22,1.22,0,0,1,1,.48v-.4h.52v2.91a2.72,2.72,0,0,1-.16,1.12,1.07,1.07,0,0,1-.5.51,1.76,1.76,0,0,1-.86.2,1.53,1.53,0,0,1-1-.28A.9.9,0,0,1,56.78,130.17Zm.47-2a1.5,1.5,0,0,0,.26,1,.85.85,0,0,0,.66.3.83.83,0,0,0,.66-.3,1.77,1.77,0,0,0,0-1.88.87.87,0,0,0-.66-.32.84.84,0,0,0-.65.31A1.38,1.38,0,0,0,57.25,128.14Z" transform="translate(1.43 -22.06)"/><path class="cls-7" d="M62.81,128.8l.59.07a1.49,1.49,0,0,1-.52.81,1.78,1.78,0,0,1-2.14-.17,1.79,1.79,0,0,1-.43-1.28,1.86,1.86,0,0,1,.43-1.32,1.52,1.52,0,0,1,1.14-.47,1.45,1.45,0,0,1,1.11.46,1.86,1.86,0,0,1,.42,1.3v.15H60.9a1.28,1.28,0,0,0,.31.85.92.92,0,0,0,.71.29.84.84,0,0,0,.53-.16A1.13,1.13,0,0,0,62.81,128.8Zm-1.88-.92h1.88a1.18,1.18,0,0,0-.21-.64.89.89,0,0,0-.71-.33.91.91,0,0,0-.66.26A1.08,1.08,0,0,0,60.93,127.88Z" transform="translate(1.43 -22.06)"/><path class="cls-7" d="M3.22,98.27H-.88V99.8h-.55V96.11h.55v1.54h4.1Z" transform="translate(1.43 -22.06)"/><path class="cls-7" d="M1.54,95.77a1.76,1.76,0,0,1-1.39-.52,1.58,1.58,0,0,1-.37-1.06,1.51,1.51,0,0,1,.45-1.14,1.74,1.74,0,0,1,1.26-.44,2.1,2.1,0,0,1,1,.2,1.31,1.31,0,0,1,.58.56,1.64,1.64,0,0,1,.21.82,1.48,1.48,0,0,1-.46,1.14A1.79,1.79,0,0,1,1.54,95.77Zm0-.59a1.44,1.44,0,0,0,1-.28.93.93,0,0,0,.32-.71.89.89,0,0,0-.33-.71,1.43,1.43,0,0,0-1-.28,1.4,1.4,0,0,0-.95.28.93.93,0,0,0-.32.71.9.9,0,0,0,.32.71A1.41,1.41,0,0,0,1.54,95.18Z" transform="translate(1.43 -22.06)"/><path class="cls-7" d="M3.22,92H-.15v-.52H.36a1.41,1.41,0,0,1-.47-.36.6.6,0,0,1-.11-.37A1.09,1.09,0,0,1,0,90.12l.53.19a.84.84,0,0,0-.12.42.51.51,0,0,0,.11.34.58.58,0,0,0,.31.21,2.35,2.35,0,0,0,.67.1H3.22Z" transform="translate(1.43 -22.06)"/><path class="cls-7" d="M4.51,87.63H2.86a1,1,0,0,1,.31.37,1,1,0,0,1,.13.51,1.34,1.34,0,0,1-.48,1A1.9,1.9,0,0,1,1.5,90a2.24,2.24,0,0,1-.91-.18A1.4,1.4,0,0,1,0,89.29a1.35,1.35,0,0,1-.2-.74,1.13,1.13,0,0,1,.52-1H-.15v-.51H4.51Zm-3,1.76a1.48,1.48,0,0,0,1-.27.84.84,0,0,0,.33-.66.8.8,0,0,0-.31-.63,1.46,1.46,0,0,0-.94-.26,1.52,1.52,0,0,0-1,.28.8.8,0,0,0-.34.65.78.78,0,0,0,.31.63A1.56,1.56,0,0,0,1.53,89.39Z" transform="translate(1.43 -22.06)"/><path class="cls-7" d="M3.22,84H2.73A1.23,1.23,0,0,1,3.3,85a1.31,1.31,0,0,1-.12.56A.88.88,0,0,1,2.9,86a1.12,1.12,0,0,1-.43.18,3.33,3.33,0,0,1-.53,0H-.15V85.6H1.72a3.77,3.77,0,0,0,.6,0,.68.68,0,0,0,.36-.23.75.75,0,0,0,.13-.43,1,1,0,0,0-.14-.49.66.66,0,0,0-.35-.31,1.7,1.7,0,0,0-.66-.1H-.15v-.57H3.22Z" transform="translate(1.43 -22.06)"/><path class="cls-7" d="M2.14,80.24l.07-.59a1.39,1.39,0,0,1,.8.52,1.54,1.54,0,0,1,.29,1,1.52,1.52,0,0,1-.46,1.17,1.77,1.77,0,0,1-1.27.44A1.9,1.9,0,0,1,.24,82.3a1.48,1.48,0,0,1-.46-1.14,1.41,1.41,0,0,1,.46-1.1,1.78,1.78,0,0,1,1.29-.43h.15v2.52a1.32,1.32,0,0,0,.85-.32.92.92,0,0,0,.3-.7.89.89,0,0,0-.17-.54A1.09,1.09,0,0,0,2.14,80.24Zm-.93,1.87V80.23a1.21,1.21,0,0,0-.64.22.88.88,0,0,0-.33.71.9.9,0,0,0,.27.66A1,1,0,0,0,1.21,82.11Z" transform="translate(1.43 -22.06)"/><path class="cls-7" d="M4.51,77.11H-1.43V75.85H-1v.69H4v-.69h.47Z" transform="translate(1.43 -22.06)"/><path class="cls-7" d="M3.22,75.25H-1.43v-.63l3.65-2.44H-1.43v-.59H3.22v.63L-.43,74.66H3.22Z" transform="translate(1.43 -22.06)"/><path class="cls-7" d="M.94,70.71a.78.78,0,0,1-.57-.24.82.82,0,0,1,0-1.14.81.81,0,0,1,.57-.23.78.78,0,0,1,.57.23.8.8,0,0,1,0,1.14A.75.75,0,0,1,.94,70.71Z" transform="translate(1.43 -22.06)"/><path class="cls-7" d="M3.22,68.35H-.15v-.51H.32a1.31,1.31,0,0,1-.39-.42,1.21,1.21,0,0,1-.15-.6,1.16,1.16,0,0,1,.15-.62.84.84,0,0,1,.44-.34,1.18,1.18,0,0,1-.59-1,1,1,0,0,1,.27-.77,1.2,1.2,0,0,1,.86-.27H3.22v.57H1.1a1.42,1.42,0,0,0-.49.06.41.41,0,0,0-.25.2A.62.62,0,0,0,.27,65a.79.79,0,0,0,.24.59,1,1,0,0,0,.75.24h2v.57H1a.92.92,0,0,0-.57.14.51.51,0,0,0-.19.45.81.81,0,0,0,.13.45.74.74,0,0,0,.37.3,2.12,2.12,0,0,0,.7.09H3.22Z" transform="translate(1.43 -22.06)"/><path class="cls-7" d="M4.51,62v1.26H4v-.69H-1v.69h-.47V62Z" transform="translate(1.43 -22.06)"/><path class="cls-7" d="M44.76,150.55l.58-.05a1.32,1.32,0,0,0,.19.58,1,1,0,0,0,.47.36,1.8,1.8,0,0,0,.71.14,1.73,1.73,0,0,0,.63-.11.87.87,0,0,0,.4-.29.7.7,0,0,0,.13-.39.59.59,0,0,0-.13-.39.92.92,0,0,0-.42-.27c-.12,0-.4-.12-.83-.23a4.15,4.15,0,0,1-.89-.29,1.19,1.19,0,0,1-.5-.43,1.06,1.06,0,0,1-.16-.58,1.16,1.16,0,0,1,.2-.66,1.18,1.18,0,0,1,.58-.46,2.15,2.15,0,0,1,.85-.16,2.4,2.4,0,0,1,.92.16,1.4,1.4,0,0,1,.6.49,1.35,1.35,0,0,1,.23.74l-.59,0a1,1,0,0,0-.32-.66,1.24,1.24,0,0,0-.81-.23,1.32,1.32,0,0,0-.82.21.6.6,0,0,0-.25.49.52.52,0,0,0,.18.41,2.39,2.39,0,0,0,.93.33,7.58,7.58,0,0,1,1,.3,1.39,1.39,0,0,1,.6.47,1.19,1.19,0,0,1,.19.67,1.3,1.3,0,0,1-.21.7,1.47,1.47,0,0,1-.61.51,2.19,2.19,0,0,1-.9.18,2.76,2.76,0,0,1-1.06-.18,1.54,1.54,0,0,1-.67-.56A1.59,1.59,0,0,1,44.76,150.55Z" transform="translate(1.43 -22.06)"/><path class="cls-7" d="M49.23,153.34v-4.66h.52v.44a1.29,1.29,0,0,1,.42-.39,1.19,1.19,0,0,1,.56-.13,1.31,1.31,0,0,1,.76.23,1.29,1.29,0,0,1,.5.62,2.39,2.39,0,0,1,0,1.82,1.36,1.36,0,0,1-.54.64,1.42,1.42,0,0,1-.74.22,1.14,1.14,0,0,1-.52-.12,1.42,1.42,0,0,1-.37-.31v1.64Zm.52-3a1.46,1.46,0,0,0,.26,1,.84.84,0,0,0,.64.31.82.82,0,0,0,.65-.33,1.5,1.5,0,0,0,.27-1,1.56,1.56,0,0,0-.26-1,.79.79,0,0,0-1.28,0A1.52,1.52,0,0,0,49.75,150.38Z" transform="translate(1.43 -22.06)"/><path class="cls-7" d="M55.15,151l.59.08a1.43,1.43,0,0,1-.51.8,1.6,1.6,0,0,1-1,.29,1.56,1.56,0,0,1-1.17-.46,1.77,1.77,0,0,1-.44-1.28,1.9,1.9,0,0,1,.44-1.32,1.49,1.49,0,0,1,1.14-.47,1.45,1.45,0,0,1,1.1.46,1.82,1.82,0,0,1,.43,1.3v.15H53.24a1.34,1.34,0,0,0,.32.85.92.92,0,0,0,.7.3.89.89,0,0,0,.54-.17A1,1,0,0,0,55.15,151ZM53.28,150h1.88a1.18,1.18,0,0,0-.22-.64.86.86,0,0,0-.71-.33.9.9,0,0,0-.66.27A1,1,0,0,0,53.28,150Z" transform="translate(1.43 -22.06)"/><path class="cls-7" d="M58.77,151l.59.08a1.5,1.5,0,0,1-.52.8,1.54,1.54,0,0,1-1,.29,1.57,1.57,0,0,1-1.18-.46,1.77,1.77,0,0,1-.43-1.28,1.9,1.9,0,0,1,.44-1.32,1.58,1.58,0,0,1,2.24,0,1.87,1.87,0,0,1,.43,1.3,1,1,0,0,1,0,.15H56.86a1.34,1.34,0,0,0,.31.85.94.94,0,0,0,.71.3.84.84,0,0,0,.53-.17A1.08,1.08,0,0,0,58.77,151ZM56.89,150h1.88a1.1,1.1,0,0,0-.21-.64.88.88,0,0,0-.71-.33.9.9,0,0,0-.66.27A1,1,0,0,0,56.89,150Z" transform="translate(1.43 -22.06)"/><path class="cls-7" d="M62.26,152.05v-.43a1,1,0,0,1-.94.51,1.3,1.3,0,0,1-.74-.23,1.41,1.41,0,0,1-.53-.62,2.17,2.17,0,0,1-.18-.91,2.29,2.29,0,0,1,.17-.92,1.37,1.37,0,0,1,.5-.63,1.43,1.43,0,0,1,.75-.22,1.21,1.21,0,0,1,.55.13,1.14,1.14,0,0,1,.38.34V147.4h.57v4.65Zm-1.8-1.68a1.5,1.5,0,0,0,.27,1,.83.83,0,0,0,.64.32.82.82,0,0,0,.64-.31,1.43,1.43,0,0,0,.26-.93,1.58,1.58,0,0,0-.27-1,.82.82,0,0,0-1.29,0A1.52,1.52,0,0,0,60.46,150.37Z" transform="translate(1.43 -22.06)"/><path class="cls-7" d="M65.51,153.34V147.4h1.26v.47h-.69v5h.69v.47Z" transform="translate(1.43 -22.06)"/><path class="cls-7" d="M67.3,152.05v-3.37h.51v.51a1.31,1.31,0,0,1,.36-.47.63.63,0,0,1,.37-.12,1.08,1.08,0,0,1,.59.19l-.2.53a.76.76,0,0,0-.42-.13.54.54,0,0,0-.34.12.58.58,0,0,0-.21.31,2.31,2.31,0,0,0-.09.67v1.76Z" transform="translate(1.43 -22.06)"/><path class="cls-7" d="M69,152.13l1.35-4.81h.45l-1.34,4.81Z" transform="translate(1.43 -22.06)"/><path class="cls-7" d="M71.27,152.05v-3.37h.51v.47a1.27,1.27,0,0,1,.43-.4,1.26,1.26,0,0,1,1.21,0,.86.86,0,0,1,.34.43,1.2,1.2,0,0,1,1-.59,1.05,1.05,0,0,1,.77.28,1.2,1.2,0,0,1,.27.86v2.31h-.57v-2.12a1.91,1.91,0,0,0,0-.5.49.49,0,0,0-.21-.24.62.62,0,0,0-.34-.09.82.82,0,0,0-.59.23,1,1,0,0,0-.23.76v2h-.58v-2.19a1,1,0,0,0-.13-.57.54.54,0,0,0-.46-.19.81.81,0,0,0-.45.13.69.69,0,0,0-.29.37,1.82,1.82,0,0,0-.1.7v1.75Z" transform="translate(1.43 -22.06)"/><path class="cls-7" d="M76.69,148.05v-.65h.57v.65Zm0,4v-3.37h.57v3.37Z" transform="translate(1.43 -22.06)"/><path class="cls-7" d="M78.13,152.05v-3.37h.51v.48a1.23,1.23,0,0,1,1.08-.56,1.47,1.47,0,0,1,.56.11.89.89,0,0,1,.38.29,1.33,1.33,0,0,1,.18.42,3.51,3.51,0,0,1,0,.56v2.07H80.3V150a1.38,1.38,0,0,0-.07-.52.53.53,0,0,0-.23-.28.77.77,0,0,0-.4-.1.92.92,0,0,0-.63.23,1.13,1.13,0,0,0-.27.88v1.84Z" transform="translate(1.43 -22.06)"/><path class="cls-7" d="M82.7,153.34H81.44v-.47h.69v-5h-.69v-.47H82.7Z" transform="translate(1.43 -22.06)"/></g></svg>