<svg xmlns="http://www.w3.org/2000/svg" viewBox="0 0 115.89 131.43"><defs><style>.cls-1,.cls-2,.cls-3,.cls-5,.繝医Ν繧ｯ繧ｰ繝ｩ繝廟繧ｰ繝ｬ繝ｼ邱,.邱喟0\.5pt-2{fill:none;}.cls-1,.cls-2,.繝医Ν繧ｯ繧ｰ繝ｩ繝廟繧ｰ繝ｬ繝ｼ邱{stroke:#9fa0a0;}.cls-1,.cls-2,.cls-3,.邱喟0\.5pt-2{stroke-miterlimit:10;}.cls-2{stroke-dasharray:3.44 1.67;}.cls-3,.cls-5,.邱喟0\.5pt-2{stroke:#231815;}.cls-3{stroke-width:0.14px;}.cls-4{fill:#231815;}.繝医Ν繧ｯ繧ｰ繝ｩ繝廟繧ｰ繝ｬ繝ｼ邱{stroke-width:3px;}.繝後Μ_逋ｽ{fill:#fff;}.邱喟0\.5pt-2{stroke-width:0.5px;}</style></defs><g id="Illust"><line class="cls-1" x1="101.4" y1="100.55" x2="101.4" y2="102.1"/><line class="cls-2" x1="101.4" y1="103.77" x2="101.4" y2="113.16"/><line class="cls-1" x1="101.4" y1="113.99" x2="101.4" y2="115.54"/><line class="cls-3" x1="42.53" y1="2.18" x2="42.53" y2="115.56"/><line class="cls-3" x1="65.21" y1="2.18" x2="65.21" y2="115.56"/><line class="cls-3" x1="87.89" y1="2.18" x2="87.89" y2="115.56"/><path class="cls-4" d="M17.24,141.39a3.54,3.54,0,0,1,.13-1,1.33,1.33,0,0,1,.39-.59,1,1,0,0,1,.65-.21,1.19,1.19,0,0,1,.51.11,1,1,0,0,1,.35.34,1.73,1.73,0,0,1,.23.53,3.76,3.76,0,0,1,.08.85,3.44,3.44,0,0,1-.13,1,1.31,1.31,0,0,1-.39.6,1,1,0,0,1-.65.21,1,1,0,0,1-.81-.37A2.32,2.32,0,0,1,17.24,141.39Zm.45,0a2.23,2.23,0,0,0,.21,1.17.59.59,0,0,0,1,0,3.39,3.39,0,0,0,0-2.35.63.63,0,0,0-.52-.29.56.56,0,0,0-.48.26A2.28,2.28,0,0,0,17.69,141.39Z" transform="translate(1.43 -21.92)"/><path class="cls-4" d="M37.4,143.15H37v-2.8a2.54,2.54,0,0,1-.42.3,3.27,3.27,0,0,1-.46.23v-.43a2.37,2.37,0,0,0,.64-.42,1.76,1.76,0,0,0,.39-.47h.28Z" transform="translate(1.43 -21.92)"/><path class="cls-4" d="M38.53,141.38a3.2,3.2,0,0,1,.13-1,1.28,1.28,0,0,1,.39-.59,1.14,1.14,0,0,1,1.15-.1.9.9,0,0,1,.36.34,1.51,1.51,0,0,1,.22.53,4.23,4.23,0,0,1-.05,1.86,1.22,1.22,0,0,1-.38.6,1.1,1.1,0,0,1-1.47-.16A2.41,2.41,0,0,1,38.53,141.38Zm.45,0a2.25,2.25,0,0,0,.21,1.18.59.59,0,0,0,1,0,2.38,2.38,0,0,0,.2-1.18,2.31,2.31,0,0,0-.2-1.17.63.63,0,0,0-.52-.29.54.54,0,0,0-.48.26A2.24,2.24,0,0,0,39,141.38Z" transform="translate(1.43 -21.92)"/><path class="cls-4" d="M41.31,141.38a3.2,3.2,0,0,1,.13-1,1.28,1.28,0,0,1,.39-.59,1.14,1.14,0,0,1,1.15-.1.9.9,0,0,1,.36.34,1.51,1.51,0,0,1,.22.53,3.22,3.22,0,0,1,.08.84,3.56,3.56,0,0,1-.12,1,1.31,1.31,0,0,1-.39.6,1.1,1.1,0,0,1-1.47-.16A2.41,2.41,0,0,1,41.31,141.38Zm.45,0a2.25,2.25,0,0,0,.21,1.18.59.59,0,0,0,1,0,2.38,2.38,0,0,0,.2-1.18,2.31,2.31,0,0,0-.2-1.17.63.63,0,0,0-.52-.29.54.54,0,0,0-.48.26A2.24,2.24,0,0,0,41.76,141.38Z" transform="translate(1.43 -21.92)"/><path class="cls-4" d="M44.09,141.38a3.2,3.2,0,0,1,.13-1,1.28,1.28,0,0,1,.39-.59,1.14,1.14,0,0,1,1.15-.1.9.9,0,0,1,.36.34,1.51,1.51,0,0,1,.22.53,3.16,3.16,0,0,1,.09.84,3.52,3.52,0,0,1-.13,1,1.31,1.31,0,0,1-.39.6,1,1,0,0,1-.65.21,1,1,0,0,1-.81-.37A2.33,2.33,0,0,1,44.09,141.38Zm.45,0a2.25,2.25,0,0,0,.21,1.18.59.59,0,0,0,1,0,2.38,2.38,0,0,0,.2-1.18,2.31,2.31,0,0,0-.2-1.17.63.63,0,0,0-.52-.29.54.54,0,0,0-.48.26A2.24,2.24,0,0,0,44.54,141.38Z" transform="translate(1.43 -21.92)"/><path class="cls-4" d="M60.74,142.73v.42H58.37a.81.81,0,0,1,.05-.31,1.58,1.58,0,0,1,.29-.47,4,4,0,0,1,.58-.54,5.15,5.15,0,0,0,.78-.76.9.9,0,0,0,.21-.53.58.58,0,0,0-.19-.44.65.65,0,0,0-.48-.18.66.66,0,0,0-.51.19.75.75,0,0,0-.2.53l-.45,0a1.12,1.12,0,0,1,.35-.77,1.19,1.19,0,0,1,.82-.26,1.13,1.13,0,0,1,.81.28.94.94,0,0,1,.3.71,1.06,1.06,0,0,1-.09.42,1.51,1.51,0,0,1-.29.44,6.75,6.75,0,0,1-.68.63,6.1,6.1,0,0,0-.5.45,1.33,1.33,0,0,0-.19.24Z" transform="translate(1.43 -21.92)"/><path class="cls-4" d="M61.21,141.38a3.2,3.2,0,0,1,.13-1,1.14,1.14,0,0,1,.39-.59,1,1,0,0,1,.64-.21,1,1,0,0,1,.51.11,1.06,1.06,0,0,1,.36.34,1.73,1.73,0,0,1,.22.53,3.72,3.72,0,0,1,.08.84,3.2,3.2,0,0,1-.13,1,1.22,1.22,0,0,1-.38.6,1,1,0,0,1-.66.21,1,1,0,0,1-.81-.37A2.41,2.41,0,0,1,61.21,141.38Zm.45,0a2.38,2.38,0,0,0,.2,1.18.62.62,0,0,0,.51.29.6.6,0,0,0,.51-.29,2.25,2.25,0,0,0,.21-1.18,2.18,2.18,0,0,0-.21-1.17.61.61,0,0,0-.51-.29.54.54,0,0,0-.48.26A2.15,2.15,0,0,0,61.66,141.38Z" transform="translate(1.43 -21.92)"/><path class="cls-4" d="M64,141.38a3.2,3.2,0,0,1,.13-1,1.28,1.28,0,0,1,.39-.59,1,1,0,0,1,.64-.21,1,1,0,0,1,.51.11A1,1,0,0,1,66,140a1.73,1.73,0,0,1,.22.53,4.23,4.23,0,0,1,0,1.86,1.22,1.22,0,0,1-.38.6,1,1,0,0,1-.66.21,1,1,0,0,1-.81-.37A2.41,2.41,0,0,1,64,141.38Zm.45,0a2.25,2.25,0,0,0,.21,1.18.58.58,0,0,0,1,0,2.25,2.25,0,0,0,.21-1.18,2.18,2.18,0,0,0-.21-1.17.6.6,0,0,0-.51-.29.54.54,0,0,0-.48.26A2.24,2.24,0,0,0,64.44,141.38Z" transform="translate(1.43 -21.92)"/><path class="cls-4" d="M66.77,141.38a3.2,3.2,0,0,1,.13-1,1.28,1.28,0,0,1,.39-.59,1.14,1.14,0,0,1,1.15-.1.9.9,0,0,1,.36.34,1.73,1.73,0,0,1,.22.53,4.23,4.23,0,0,1,0,1.86,1.22,1.22,0,0,1-.38.6,1,1,0,0,1-.65.21,1,1,0,0,1-.82-.37A2.41,2.41,0,0,1,66.77,141.38Zm.45,0a2.25,2.25,0,0,0,.21,1.18.58.58,0,0,0,1,0,2.25,2.25,0,0,0,.21-1.18,2.18,2.18,0,0,0-.21-1.17.6.6,0,0,0-.51-.29.54.54,0,0,0-.48.26A2.24,2.24,0,0,0,67.22,141.38Z" transform="translate(1.43 -21.92)"/><path class="cls-4" d="M81.11,142.2l.44,0a.94.94,0,0,0,.25.53.64.64,0,0,0,.45.17.69.69,0,0,0,.52-.22.72.72,0,0,0,.21-.53.68.68,0,0,0-.19-.5.7.7,0,0,0-.51-.19,1,1,0,0,0-.31.05l0-.39h.07a.89.89,0,0,0,.51-.14.5.5,0,0,0,.22-.45.51.51,0,0,0-.16-.4.57.57,0,0,0-.42-.16.59.59,0,0,0-.43.16.77.77,0,0,0-.22.48l-.44-.08a1.11,1.11,0,0,1,.37-.68,1.05,1.05,0,0,1,.71-.24,1.25,1.25,0,0,1,.54.12.94.94,0,0,1,.37.34.88.88,0,0,1,.13.47.79.79,0,0,1-.12.42.8.8,0,0,1-.37.3.82.82,0,0,1,.49.3.93.93,0,0,1,.18.58,1.07,1.07,0,0,1-.34.8,1.24,1.24,0,0,1-.87.32,1.12,1.12,0,0,1-.78-.28A1,1,0,0,1,81.11,142.2Z" transform="translate(1.43 -21.92)"/><path class="cls-4" d="M83.88,141.38a3.52,3.52,0,0,1,.13-1,1.28,1.28,0,0,1,.39-.59,1,1,0,0,1,.65-.21.95.95,0,0,1,.87.45,2,2,0,0,1,.22.53,3.72,3.72,0,0,1,.08.84,3.52,3.52,0,0,1-.13,1,1.31,1.31,0,0,1-.39.6,1,1,0,0,1-.65.21,1,1,0,0,1-.81-.37A2.33,2.33,0,0,1,83.88,141.38Zm.46,0a2.27,2.27,0,0,0,.2,1.18.59.59,0,0,0,1,0,2.25,2.25,0,0,0,.21-1.18,2.18,2.18,0,0,0-.21-1.17.62.62,0,0,0-.51-.29.55.55,0,0,0-.49.26A2.26,2.26,0,0,0,84.34,141.38Z" transform="translate(1.43 -21.92)"/><path class="cls-4" d="M86.66,141.38a3.17,3.17,0,0,1,.14-1,1.19,1.19,0,0,1,.38-.59,1,1,0,0,1,.65-.21.95.95,0,0,1,.87.45,2,2,0,0,1,.22.53,3.72,3.72,0,0,1,.08.84,3.2,3.2,0,0,1-.13,1,1.31,1.31,0,0,1-.39.6,1,1,0,0,1-.65.21,1,1,0,0,1-.81-.37A2.33,2.33,0,0,1,86.66,141.38Zm.46,0a2.38,2.38,0,0,0,.2,1.18.59.59,0,0,0,1,0,2.25,2.25,0,0,0,.21-1.18,2.18,2.18,0,0,0-.21-1.17.62.62,0,0,0-.51-.29.56.56,0,0,0-.49.26A2.26,2.26,0,0,0,87.12,141.38Z" transform="translate(1.43 -21.92)"/><path class="cls-4" d="M89.45,141.38a3.2,3.2,0,0,1,.13-1,1.19,1.19,0,0,1,.38-.59,1,1,0,0,1,.65-.21.95.95,0,0,1,.87.45,1.73,1.73,0,0,1,.22.53,3.72,3.72,0,0,1,.08.84,3.2,3.2,0,0,1-.13,1,1.31,1.31,0,0,1-.39.6,1,1,0,0,1-.65.21,1,1,0,0,1-.81-.37A2.34,2.34,0,0,1,89.45,141.38Zm.45,0a2.38,2.38,0,0,0,.2,1.18.59.59,0,0,0,1,0,2.25,2.25,0,0,0,.21-1.18,2.18,2.18,0,0,0-.21-1.17.62.62,0,0,0-.51-.29.56.56,0,0,0-.49.26A2.26,2.26,0,0,0,89.9,141.38Z" transform="translate(1.43 -21.92)"/><path class="cls-4" d="M105.19,143.15v-.86h-1.55v-.4l1.63-2.32h.36v2.32h.48v.4h-.48v.86Zm0-1.26v-1.61l-1.12,1.61Z" transform="translate(1.43 -21.92)"/><path class="cls-4" d="M106.56,141.38a3.2,3.2,0,0,1,.13-1,1.28,1.28,0,0,1,.39-.59,1.14,1.14,0,0,1,1.15-.1.9.9,0,0,1,.36.34,1.51,1.51,0,0,1,.22.53,3.22,3.22,0,0,1,.08.84,3.56,3.56,0,0,1-.12,1,1.31,1.31,0,0,1-.39.6,1.1,1.1,0,0,1-1.47-.16A2.41,2.41,0,0,1,106.56,141.38Zm.45,0a2.25,2.25,0,0,0,.21,1.18.59.59,0,0,0,1,0,2.38,2.38,0,0,0,.2-1.18,2.31,2.31,0,0,0-.2-1.17.63.63,0,0,0-.52-.29.54.54,0,0,0-.48.26A2.24,2.24,0,0,0,107,141.38Z" transform="translate(1.43 -21.92)"/><path class="cls-4" d="M109.34,141.38a3.2,3.2,0,0,1,.13-1,1.28,1.28,0,0,1,.39-.59,1.14,1.14,0,0,1,1.15-.1.9.9,0,0,1,.36.34,1.51,1.51,0,0,1,.22.53,3.16,3.16,0,0,1,.09.84,3.52,3.52,0,0,1-.13,1,1.31,1.31,0,0,1-.39.6,1,1,0,0,1-.65.21,1,1,0,0,1-.81-.37A2.33,2.33,0,0,1,109.34,141.38Zm.45,0a2.25,2.25,0,0,0,.21,1.18.59.59,0,0,0,1,0,2.38,2.38,0,0,0,.2-1.18,2.31,2.31,0,0,0-.2-1.17.63.63,0,0,0-.52-.29.54.54,0,0,0-.48.26A2.24,2.24,0,0,0,109.79,141.38Z" transform="translate(1.43 -21.92)"/><path class="cls-4" d="M112.12,141.38a3.52,3.52,0,0,1,.13-1,1.28,1.28,0,0,1,.39-.59,1.14,1.14,0,0,1,1.15-.1.9.9,0,0,1,.36.34,1.73,1.73,0,0,1,.23.53,3.72,3.72,0,0,1,.08.84,3.52,3.52,0,0,1-.13,1,1.31,1.31,0,0,1-.39.6,1,1,0,0,1-.65.21,1,1,0,0,1-.81-.37A2.33,2.33,0,0,1,112.12,141.38Zm.45,0a2.25,2.25,0,0,0,.21,1.18.59.59,0,0,0,1,0,2.27,2.27,0,0,0,.2-1.18,2.2,2.2,0,0,0-.2-1.17.63.63,0,0,0-.52-.29.54.54,0,0,0-.48.26A2.24,2.24,0,0,0,112.57,141.38Z" transform="translate(1.43 -21.92)"/><line class="cls-3" x1="19.86" y1="16.35" x2="110.56" y2="16.35"/><line class="cls-3" x1="19.86" y1="30.52" x2="110.56" y2="30.52"/><line class="cls-3" x1="19.86" y1="44.7" x2="110.56" y2="44.7"/><line class="cls-3" x1="19.86" y1="58.87" x2="110.56" y2="58.87"/><line class="cls-3" x1="19.86" y1="73.04" x2="110.56" y2="73.04"/><line class="cls-3" x1="19.86" y1="87.22" x2="110.56" y2="87.22"/><line class="cls-3" x1="19.86" y1="101.39" x2="110.56" y2="101.39"/><path class="cls-4" d="M10.27,123.7l.46,0a.77.77,0,0,0,.24.5.64.64,0,0,0,.45.17.68.68,0,0,0,.53-.24.88.88,0,0,0,.22-.63.84.84,0,0,0-.21-.6.74.74,0,0,0-.55-.21.86.86,0,0,0-.39.09.78.78,0,0,0-.26.25l-.42,0,.35-1.84h1.78v.42H11l-.19,1a1.15,1.15,0,0,1,.68-.22,1.1,1.1,0,0,1,.79.32,1.17,1.17,0,0,1,.32.84,1.37,1.37,0,0,1-.28.84,1.14,1.14,0,0,1-.94.43,1.16,1.16,0,0,1-.8-.27A1,1,0,0,1,10.27,123.7Z" transform="translate(1.43 -21.92)"/><path class="cls-4" d="M13.29,124.64v-.5h.5v.5Z" transform="translate(1.43 -21.92)"/><path class="cls-4" d="M14.44,122.88a3.23,3.23,0,0,1,.13-1,1.24,1.24,0,0,1,.38-.59,1,1,0,0,1,.65-.21,1.19,1.19,0,0,1,.51.11,1.06,1.06,0,0,1,.36.34,2,2,0,0,1,.22.53,3.76,3.76,0,0,1,.08.85,3.09,3.09,0,0,1-.13,1,1.31,1.31,0,0,1-.39.6,1,1,0,0,1-.65.21,1,1,0,0,1-.81-.37A2.33,2.33,0,0,1,14.44,122.88Zm.45,0a2.36,2.36,0,0,0,.2,1.17.59.59,0,0,0,1,0,3.39,3.39,0,0,0,0-2.35.62.62,0,0,0-.51-.29.58.58,0,0,0-.49.26A2.3,2.3,0,0,0,14.89,122.88Z" transform="translate(1.43 -21.92)"/><path class="cls-4" d="M9.14,96.29H8.7v-2.8a1.83,1.83,0,0,1-.42.31,2.69,2.69,0,0,1-.46.22V93.6a3,3,0,0,0,.65-.42,1.65,1.65,0,0,0,.39-.48h.28Z" transform="translate(1.43 -21.92)"/><path class="cls-4" d="M10.26,95.36l.47,0a.87.87,0,0,0,.23.51.73.73,0,0,0,1-.07.91.91,0,0,0,.22-.64.8.8,0,0,0-.21-.59.71.71,0,0,0-.55-.22.76.76,0,0,0-.39.1.63.63,0,0,0-.26.25l-.42-.06.35-1.84h1.78v.42H11l-.19,1a1.15,1.15,0,0,1,.67-.23,1.08,1.08,0,0,1,.8.33,1.13,1.13,0,0,1,.32.83,1.28,1.28,0,0,1-.29.84,1.12,1.12,0,0,1-.94.44,1.15,1.15,0,0,1-.79-.28A1,1,0,0,1,10.26,95.36Z" transform="translate(1.43 -21.92)"/><path class="cls-4" d="M13.29,96.29v-.5h.5v.5Z" transform="translate(1.43 -21.92)"/><path class="cls-4" d="M14.43,94.53a3.17,3.17,0,0,1,.14-1,1.22,1.22,0,0,1,.38-.6,1,1,0,0,1,.65-.21,1.07,1.07,0,0,1,.51.12,1,1,0,0,1,.36.33,2.17,2.17,0,0,1,.22.53,3.76,3.76,0,0,1,.08.85,3.2,3.2,0,0,1-.13,1,1.33,1.33,0,0,1-.39.59,1,1,0,0,1-.65.22,1,1,0,0,1-.81-.38A2.3,2.3,0,0,1,14.43,94.53Zm.46,0a2.31,2.31,0,0,0,.2,1.17.59.59,0,0,0,1,0,3.36,3.36,0,0,0,0-2.34.61.61,0,0,0-.51-.3.58.58,0,0,0-.49.26A2.3,2.3,0,0,0,14.89,94.53Z" transform="translate(1.43 -21.92)"/><path class="cls-4" d="M9.14,110.47H8.7v-2.8a2.18,2.18,0,0,1-.42.3,2.81,2.81,0,0,1-.46.23v-.43a2.42,2.42,0,0,0,.65-.42,1.65,1.65,0,0,0,.39-.48h.28Z" transform="translate(1.43 -21.92)"/><path class="cls-4" d="M10.27,108.7a3.2,3.2,0,0,1,.13-1,1.22,1.22,0,0,1,.38-.6,1,1,0,0,1,.65-.21,1.07,1.07,0,0,1,.51.12,1.13,1.13,0,0,1,.36.33,1.91,1.91,0,0,1,.22.54,3.72,3.72,0,0,1,.08.84,3.2,3.2,0,0,1-.13,1,1.31,1.31,0,0,1-.39.6,1,1,0,0,1-.65.21,1,1,0,0,1-.81-.37A2.34,2.34,0,0,1,10.27,108.7Zm.45,0a2.38,2.38,0,0,0,.2,1.18.62.62,0,0,0,.51.29.61.61,0,0,0,.51-.3,3.36,3.36,0,0,0,0-2.34.6.6,0,0,0-.51-.29.57.57,0,0,0-.49.25A2.33,2.33,0,0,0,10.72,108.7Z" transform="translate(1.43 -21.92)"/><path class="cls-4" d="M13.29,110.47V110h.5v.5Z" transform="translate(1.43 -21.92)"/><path class="cls-4" d="M14.44,108.7a3.2,3.2,0,0,1,.13-1,1.22,1.22,0,0,1,.38-.6,1,1,0,0,1,.65-.21,1.07,1.07,0,0,1,.51.12,1.13,1.13,0,0,1,.36.33,2.25,2.25,0,0,1,.22.54,3.72,3.72,0,0,1,.08.84,3.2,3.2,0,0,1-.13,1,1.31,1.31,0,0,1-.39.6,1,1,0,0,1-.65.21,1,1,0,0,1-.81-.37A2.34,2.34,0,0,1,14.44,108.7Zm.45,0a2.38,2.38,0,0,0,.2,1.18.62.62,0,0,0,.51.29.61.61,0,0,0,.51-.3,3.36,3.36,0,0,0,0-2.34.6.6,0,0,0-.51-.29.57.57,0,0,0-.49.25A2.33,2.33,0,0,0,14.89,108.7Z" transform="translate(1.43 -21.92)"/><path class="cls-4" d="M9.79,81.7v.42H7.43a.61.61,0,0,1,.05-.3,1.76,1.76,0,0,1,.29-.48,3.81,3.81,0,0,1,.57-.54A4.48,4.48,0,0,0,9.13,80a.9.9,0,0,0,.21-.53.61.61,0,0,0-.19-.44.67.67,0,0,0-.49-.18.69.69,0,0,0-.5.19.71.71,0,0,0-.2.53l-.45,0a1.14,1.14,0,0,1,.35-.77,1.21,1.21,0,0,1,.81-.26,1.13,1.13,0,0,1,.82.28.94.94,0,0,1,.3.71,1,1,0,0,1-.09.42,1.51,1.51,0,0,1-.29.44,8.11,8.11,0,0,1-.68.63l-.51.45A1.88,1.88,0,0,0,8,81.7Z" transform="translate(1.43 -21.92)"/><path class="cls-4" d="M10.26,80.36a3.19,3.19,0,0,1,.14-1,1.24,1.24,0,0,1,.38-.59,1,1,0,0,1,.65-.21,1.19,1.19,0,0,1,.51.11,1.06,1.06,0,0,1,.36.34,2,2,0,0,1,.22.53,3.76,3.76,0,0,1,.08.85,3.09,3.09,0,0,1-.13,1,1.31,1.31,0,0,1-.39.6,1,1,0,0,1-.65.21,1,1,0,0,1-.81-.37A2.32,2.32,0,0,1,10.26,80.36Zm.46,0a2.36,2.36,0,0,0,.2,1.17.59.59,0,0,0,1,0,3.39,3.39,0,0,0,0-2.35.62.62,0,0,0-.51-.29.58.58,0,0,0-.49.26A2.3,2.3,0,0,0,10.72,80.36Z" transform="translate(1.43 -21.92)"/><path class="cls-4" d="M13.29,82.12v-.5h.5v.5Z" transform="translate(1.43 -21.92)"/><path class="cls-4" d="M14.43,80.36a3.19,3.19,0,0,1,.14-1,1.24,1.24,0,0,1,.38-.59,1,1,0,0,1,.65-.21,1.19,1.19,0,0,1,.51.11,1.06,1.06,0,0,1,.36.34,2,2,0,0,1,.22.53,3.76,3.76,0,0,1,.08.85,3.09,3.09,0,0,1-.13,1,1.31,1.31,0,0,1-.39.6,1,1,0,0,1-.65.21,1,1,0,0,1-.81-.37A2.32,2.32,0,0,1,14.43,80.36Zm.46,0a2.36,2.36,0,0,0,.2,1.17.59.59,0,0,0,1,0,3.39,3.39,0,0,0,0-2.35.62.62,0,0,0-.51-.29.58.58,0,0,0-.49.26A2.3,2.3,0,0,0,14.89,80.36Z" transform="translate(1.43 -21.92)"/><path class="cls-4" d="M9.79,67.53V68H7.43a.65.65,0,0,1,.05-.31,1.58,1.58,0,0,1,.29-.47,3.81,3.81,0,0,1,.57-.54,4.87,4.87,0,0,0,.79-.76.92.92,0,0,0,.21-.53.56.56,0,0,0-.19-.44.67.67,0,0,0-.49-.18.65.65,0,0,0-.5.19.71.71,0,0,0-.2.53l-.45,0a1.12,1.12,0,0,1,.35-.77,1.17,1.17,0,0,1,.81-.27,1.14,1.14,0,0,1,.82.29.94.94,0,0,1,.3.71,1.06,1.06,0,0,1-.09.42,1.66,1.66,0,0,1-.29.44,8.11,8.11,0,0,1-.68.63l-.51.45a1.88,1.88,0,0,0-.18.24Z" transform="translate(1.43 -21.92)"/><path class="cls-4" d="M10.27,67l.46,0a.77.77,0,0,0,.24.51.64.64,0,0,0,.45.17.68.68,0,0,0,.53-.24.89.89,0,0,0,.22-.64.82.82,0,0,0-.21-.59.75.75,0,0,0-.55-.22.87.87,0,0,0-.39.1.69.69,0,0,0-.26.25l-.42,0,.35-1.84h1.78v.42H11l-.19,1a1.15,1.15,0,0,1,.68-.22,1.06,1.06,0,0,1,.79.32,1.15,1.15,0,0,1,.32.83,1.33,1.33,0,0,1-.28.84,1.26,1.26,0,0,1-1.74.17A1,1,0,0,1,10.27,67Z" transform="translate(1.43 -21.92)"/><path class="cls-4" d="M13.29,68v-.5h.5V68Z" transform="translate(1.43 -21.92)"/><path class="cls-4" d="M14.44,66.18a3.2,3.2,0,0,1,.13-1,1.22,1.22,0,0,1,.38-.6,1,1,0,0,1,.65-.21,1.07,1.07,0,0,1,.51.12,1.13,1.13,0,0,1,.36.33,2.25,2.25,0,0,1,.22.54,3.72,3.72,0,0,1,.08.84,3.2,3.2,0,0,1-.13,1,1.31,1.31,0,0,1-.39.6,1,1,0,0,1-.65.21,1,1,0,0,1-.81-.37A2.34,2.34,0,0,1,14.44,66.18Zm.45,0a2.38,2.38,0,0,0,.2,1.18.62.62,0,0,0,.51.29.61.61,0,0,0,.51-.3,3.36,3.36,0,0,0,0-2.34.6.6,0,0,0-.51-.29.57.57,0,0,0-.49.25A2.33,2.33,0,0,0,14.89,66.18Z" transform="translate(1.43 -21.92)"/><path class="cls-4" d="M7.49,52.83l.44-.06a1,1,0,0,0,.25.54.66.66,0,0,0,.45.17.73.73,0,0,0,.73-.75.68.68,0,0,0-.19-.5.71.71,0,0,0-.51-.2,1.5,1.5,0,0,0-.31,0l.05-.38h.07A.9.9,0,0,0,9,51.55a.48.48,0,0,0,.22-.45A.54.54,0,0,0,9,50.7a.61.61,0,0,0-.42-.16.63.63,0,0,0-.43.16.83.83,0,0,0-.22.49l-.44-.08a1.14,1.14,0,0,1,.37-.69,1.05,1.05,0,0,1,.71-.24,1.13,1.13,0,0,1,.54.13.9.9,0,0,1,.5.8.74.74,0,0,1-.12.42.88.88,0,0,1-.37.31.82.82,0,0,1,.49.3.91.91,0,0,1,.18.58,1,1,0,0,1-.34.79,1.21,1.21,0,0,1-.87.33,1.12,1.12,0,0,1-.78-.28A1.08,1.08,0,0,1,7.49,52.83Z" transform="translate(1.43 -21.92)"/><path class="cls-4" d="M10.27,52a3.2,3.2,0,0,1,.13-1,1.22,1.22,0,0,1,.38-.6,1,1,0,0,1,.65-.21,1.07,1.07,0,0,1,.51.12,1.13,1.13,0,0,1,.36.33,2,2,0,0,1,.22.53,3.82,3.82,0,0,1,.08.85,3.2,3.2,0,0,1-.13,1,1.36,1.36,0,0,1-.39.6,1,1,0,0,1-.65.21,1,1,0,0,1-.81-.37A2.36,2.36,0,0,1,10.27,52Zm.45,0a2.31,2.31,0,0,0,.2,1.17.58.58,0,0,0,1,0,3.36,3.36,0,0,0,0-2.34.6.6,0,0,0-.51-.29.57.57,0,0,0-.49.25A2.3,2.3,0,0,0,10.72,52Z" transform="translate(1.43 -21.92)"/><path class="cls-4" d="M13.29,53.78v-.51h.5v.51Z" transform="translate(1.43 -21.92)"/><path class="cls-4" d="M14.44,52a3.2,3.2,0,0,1,.13-1,1.22,1.22,0,0,1,.38-.6,1,1,0,0,1,.65-.21,1.07,1.07,0,0,1,.51.12,1.13,1.13,0,0,1,.36.33,2.35,2.35,0,0,1,.22.53,3.82,3.82,0,0,1,.08.85,3.2,3.2,0,0,1-.13,1,1.36,1.36,0,0,1-.39.6,1,1,0,0,1-.65.21,1,1,0,0,1-.81-.37A2.36,2.36,0,0,1,14.44,52Zm.45,0a2.31,2.31,0,0,0,.2,1.17.58.58,0,0,0,1,0,3.36,3.36,0,0,0,0-2.34.6.6,0,0,0-.51-.29.57.57,0,0,0-.49.25A2.3,2.3,0,0,0,14.89,52Z" transform="translate(1.43 -21.92)"/><path class="cls-4" d="M7.49,38.66l.44-.06a1,1,0,0,0,.25.54.65.65,0,0,0,.45.16.72.72,0,0,0,.52-.21.75.75,0,0,0,.21-.54.66.66,0,0,0-.19-.49.67.67,0,0,0-.51-.2,1.5,1.5,0,0,0-.31,0l.05-.39h.07A.9.9,0,0,0,9,37.38a.5.5,0,0,0,.22-.45.52.52,0,0,0-.16-.4.57.57,0,0,0-.42-.16.59.59,0,0,0-.43.16A.83.83,0,0,0,8,37l-.44-.07a1.11,1.11,0,0,1,.37-.69A1.05,1.05,0,0,1,8.61,36a1.25,1.25,0,0,1,.54.12.9.9,0,0,1,.37.35.84.84,0,0,1,.13.46.79.79,0,0,1-.12.42.8.8,0,0,1-.37.3.79.79,0,0,1,.49.31.88.88,0,0,1,.18.57,1.05,1.05,0,0,1-.34.8,1.21,1.21,0,0,1-.87.33,1.12,1.12,0,0,1-.78-.29A1,1,0,0,1,7.49,38.66Z" transform="translate(1.43 -21.92)"/><path class="cls-4" d="M10.27,38.66l.46,0a.77.77,0,0,0,.24.5.6.6,0,0,0,.45.17.68.68,0,0,0,.53-.24.88.88,0,0,0,.22-.63.84.84,0,0,0-.21-.6.74.74,0,0,0-.55-.21.86.86,0,0,0-.39.09.78.78,0,0,0-.26.25l-.42-.05.35-1.84h1.78v.42H11l-.19,1a1.15,1.15,0,0,1,.68-.22,1.1,1.1,0,0,1,.79.32,1.17,1.17,0,0,1,.32.84,1.37,1.37,0,0,1-.28.84,1.14,1.14,0,0,1-.94.43,1.16,1.16,0,0,1-.8-.27A1,1,0,0,1,10.27,38.66Z" transform="translate(1.43 -21.92)"/><path class="cls-4" d="M13.29,39.6v-.5h.5v.5Z" transform="translate(1.43 -21.92)"/><path class="cls-4" d="M14.44,37.84a3.23,3.23,0,0,1,.13-1,1.24,1.24,0,0,1,.38-.59A1,1,0,0,1,15.6,36a1.19,1.19,0,0,1,.51.11,1.06,1.06,0,0,1,.36.34,2,2,0,0,1,.22.53,3.76,3.76,0,0,1,.08.85,3.09,3.09,0,0,1-.13,1,1.31,1.31,0,0,1-.39.6,1,1,0,0,1-.65.21,1,1,0,0,1-.81-.37A2.33,2.33,0,0,1,14.44,37.84Zm.45,0a2.34,2.34,0,0,0,.2,1.17.59.59,0,0,0,1,0,2.23,2.23,0,0,0,.21-1.17,2.25,2.25,0,0,0-.21-1.18.62.62,0,0,0-.51-.29.58.58,0,0,0-.49.26A2.3,2.3,0,0,0,14.89,37.84Z" transform="translate(1.43 -21.92)"/><path class="cls-4" d="M8.89,25.51v-.85H7.34v-.41L9,21.93h.36v2.32h.49v.41H9.33v.85Zm0-1.26V22.64L7.77,24.25Z" transform="translate(1.43 -21.92)"/><path class="cls-4" d="M10.27,23.75a3.12,3.12,0,0,1,.13-1,1.22,1.22,0,0,1,.38-.6,1,1,0,0,1,.65-.21,1.19,1.19,0,0,1,.51.11,1.06,1.06,0,0,1,.36.34,1.73,1.73,0,0,1,.22.53,3.76,3.76,0,0,1,.08.85,3.09,3.09,0,0,1-.13,1,1.31,1.31,0,0,1-.39.6,1,1,0,0,1-.65.21,1,1,0,0,1-.81-.37A2.33,2.33,0,0,1,10.27,23.75Zm.45,0a2.34,2.34,0,0,0,.2,1.17.59.59,0,0,0,1,0,2.23,2.23,0,0,0,.21-1.17,2.25,2.25,0,0,0-.21-1.18.62.62,0,0,0-.51-.29.58.58,0,0,0-.49.26A2.3,2.3,0,0,0,10.72,23.75Z" transform="translate(1.43 -21.92)"/><path class="cls-4" d="M13.29,25.51V25h.5v.5Z" transform="translate(1.43 -21.92)"/><path class="cls-4" d="M14.44,23.75a3.12,3.12,0,0,1,.13-1,1.22,1.22,0,0,1,.38-.6,1,1,0,0,1,.65-.21,1.19,1.19,0,0,1,.51.11,1.06,1.06,0,0,1,.36.34,2,2,0,0,1,.22.53,3.76,3.76,0,0,1,.08.85,3.09,3.09,0,0,1-.13,1,1.31,1.31,0,0,1-.39.6,1,1,0,0,1-.65.21,1,1,0,0,1-.81-.37A2.33,2.33,0,0,1,14.44,23.75Zm.45,0a2.34,2.34,0,0,0,.2,1.17.59.59,0,0,0,1,0,2.23,2.23,0,0,0,.21-1.17,2.25,2.25,0,0,0-.21-1.18.62.62,0,0,0-.51-.29.58.58,0,0,0-.49.26A2.3,2.3,0,0,0,14.89,23.75Z" transform="translate(1.43 -21.92)"/><path class="cls-4" d="M10.26,137.13a3.17,3.17,0,0,1,.14-1,1.19,1.19,0,0,1,.38-.59,1,1,0,0,1,.65-.21.95.95,0,0,1,.87.45,2,2,0,0,1,.22.53,3.72,3.72,0,0,1,.08.84,3.2,3.2,0,0,1-.13,1,1.31,1.31,0,0,1-.39.6,1,1,0,0,1-.65.21,1,1,0,0,1-.81-.37A2.33,2.33,0,0,1,10.26,137.13Zm.46,0a2.38,2.38,0,0,0,.2,1.18.59.59,0,0,0,1,0,2.25,2.25,0,0,0,.21-1.18,2.18,2.18,0,0,0-.21-1.17.62.62,0,0,0-.51-.29.56.56,0,0,0-.49.26A2.26,2.26,0,0,0,10.72,137.13Z" transform="translate(1.43 -21.92)"/><path class="cls-4" d="M13.29,138.9v-.5h.5v.5Z" transform="translate(1.43 -21.92)"/><path class="cls-4" d="M14.43,137.13a3.17,3.17,0,0,1,.14-1,1.19,1.19,0,0,1,.38-.59,1,1,0,0,1,.65-.21.95.95,0,0,1,.87.45,2,2,0,0,1,.22.53,3.72,3.72,0,0,1,.08.84,3.2,3.2,0,0,1-.13,1,1.31,1.31,0,0,1-.39.6,1,1,0,0,1-.65.21,1,1,0,0,1-.81-.37A2.33,2.33,0,0,1,14.43,137.13Zm.46,0a2.38,2.38,0,0,0,.2,1.18.59.59,0,0,0,1,0,2.25,2.25,0,0,0,.21-1.18,2.18,2.18,0,0,0-.21-1.17.62.62,0,0,0-.51-.29.56.56,0,0,0-.49.26A2.26,2.26,0,0,0,14.89,137.13Z" transform="translate(1.43 -21.92)"/><polyline class="繝医Ν繧ｯ繧ｰ繝ｩ繝廟繧ｰ繝ｬ繝ｼ邱" points="19.97 88.55 31.19 88.55 42.53 88.55 53.87 88.55 65.21 88.55 76.55 93.88 87.89 97.55 99.22 99.89 110.44 101.89"/><polyline class="cls-5" points="19.97 88.55 31.19 88.55 42.53 88.55 53.87 88.55 65.21 88.55 76.55 93.88 87.89 97.55 99.22 99.89 110.44 101.89"/><polyline class="繝医Ν繧ｯ繧ｰ繝ｩ繝廟繧ｰ繝ｬ繝ｼ邱" points="19.97 34.52 69.79 34.52 111.18 63.72"/><polyline class="cls-5" points="19.91 34.36 65.27 34.36 111.15 66.83"/><rect class="繝後Μ_逋ｽ" x="110.56" y="2.18" width="2.83" height="113.39"/><rect class="邱喟0.5pt-2" x="19.86" y="2.18" width="90.71" height="113.39"/></g><g id="English"><rect class="繝後Μ_逋ｽ" x="23.4" y="43.7" width="47.91" height="16.58"/><path class="cls-4" d="M24.47,70.49l.58,0a1.21,1.21,0,0,0,.2.57,1,1,0,0,0,.46.36,1.81,1.81,0,0,0,.72.14,1.71,1.71,0,0,0,.62-.11.87.87,0,0,0,.4-.28.66.66,0,0,0,.13-.4.6.6,0,0,0-.12-.38,1.06,1.06,0,0,0-.42-.28c-.13,0-.4-.12-.83-.23a4.09,4.09,0,0,1-.9-.29,1.26,1.26,0,0,1-.5-.43,1,1,0,0,1-.16-.58,1.24,1.24,0,0,1,.2-.66,1.22,1.22,0,0,1,.58-.46,2.46,2.46,0,0,1,1.77,0,1.3,1.3,0,0,1,.61.49,1.4,1.4,0,0,1,.23.73l-.59,0a1,1,0,0,0-.33-.66,1.24,1.24,0,0,0-.81-.23,1.27,1.27,0,0,0-.81.21.61.61,0,0,0-.26.49.52.52,0,0,0,.18.41,2.39,2.39,0,0,0,.93.33,7.15,7.15,0,0,1,1,.3A1.41,1.41,0,0,1,28,70a1.14,1.14,0,0,1,.2.66,1.29,1.29,0,0,1-.22.7,1.34,1.34,0,0,1-.61.51,2.11,2.11,0,0,1-.89.18,2.73,2.73,0,0,1-1.06-.18,1.48,1.48,0,0,1-.67-.56A1.57,1.57,0,0,1,24.47,70.49Z" transform="translate(1.43 -21.92)"/><path class="cls-4" d="M28.94,72V67.33h.58V69a1.26,1.26,0,0,1,1-.47,1.4,1.4,0,0,1,.66.15.91.91,0,0,1,.39.41,1.88,1.88,0,0,1,.12.76V72h-.57V69.85a.86.86,0,0,0-.19-.63.68.68,0,0,0-.52-.19.91.91,0,0,0-.48.13.7.7,0,0,0-.32.36,1.69,1.69,0,0,0-.09.62V72Z" transform="translate(1.43 -21.92)"/><path class="cls-4" d="M32.35,70.3a1.73,1.73,0,0,1,.52-1.39,1.57,1.57,0,0,1,1.06-.38,1.51,1.51,0,0,1,1.13.46,1.7,1.7,0,0,1,.44,1.26,2.24,2.24,0,0,1-.19,1,1.39,1.39,0,0,1-.57.58,1.63,1.63,0,0,1-.81.21,1.51,1.51,0,0,1-1.15-.46A1.79,1.79,0,0,1,32.35,70.3Zm.58,0a1.44,1.44,0,0,0,.29,1,.94.94,0,0,0,1.42,0,1.49,1.49,0,0,0,.28-1,1.38,1.38,0,0,0-.29-1,.94.94,0,0,0-1.41,0A1.41,1.41,0,0,0,32.93,70.3Z" transform="translate(1.43 -21.92)"/><path class="cls-4" d="M36.17,72V68.61h.51v.51a1.29,1.29,0,0,1,.37-.47.6.6,0,0,1,.36-.12,1.17,1.17,0,0,1,.59.19l-.2.53a.84.84,0,0,0-.42-.12.51.51,0,0,0-.33.11.65.65,0,0,0-.22.31,2.36,2.36,0,0,0-.09.67V72Z" transform="translate(1.43 -21.92)"/><path class="cls-4" d="M39.59,71.47l.08.51a2.47,2.47,0,0,1-.43,0,1.09,1.09,0,0,1-.49-.1.6.6,0,0,1-.24-.26,2.27,2.27,0,0,1-.07-.68V69.06H38v-.45h.42v-.83l.57-.35v1.18h.58v.45H39v2a1,1,0,0,0,0,.31.21.21,0,0,0,.1.11.36.36,0,0,0,.19,0A1.33,1.33,0,0,0,39.59,71.47Z" transform="translate(1.43 -21.92)"/><path class="cls-4" d="M39.92,70.58V70h1.76v.57Z" transform="translate(1.43 -21.92)"/><path class="cls-4" d="M44.5,72v-.42a1.07,1.07,0,0,1-1,.5,1.39,1.39,0,0,1-.74-.22,1.48,1.48,0,0,1-.52-.63,2,2,0,0,1-.19-.91,2.47,2.47,0,0,1,.17-.92,1.33,1.33,0,0,1,.51-.63,1.37,1.37,0,0,1,.75-.22,1.2,1.2,0,0,1,.54.13,1.17,1.17,0,0,1,.39.34V67.33H45V72ZM42.69,70.3a1.5,1.5,0,0,0,.27,1,.84.84,0,0,0,.65.32.78.78,0,0,0,.63-.31,1.36,1.36,0,0,0,.27-.93,1.59,1.59,0,0,0-.27-1,.84.84,0,0,0-.66-.32.78.78,0,0,0-.63.31A1.53,1.53,0,0,0,42.69,70.3Z" transform="translate(1.43 -21.92)"/><path class="cls-4" d="M48.13,72v-.49a1.23,1.23,0,0,1-1.07.57,1.26,1.26,0,0,1-.55-.12.91.91,0,0,1-.39-.28,1.11,1.11,0,0,1-.17-.43,2.3,2.3,0,0,1,0-.53V68.61h.57v1.87a2.63,2.63,0,0,0,0,.6.58.58,0,0,0,.23.36.73.73,0,0,0,.43.13.92.92,0,0,0,.48-.14.68.68,0,0,0,.32-.35,1.94,1.94,0,0,0,.09-.66V68.61h.57V72Z" transform="translate(1.43 -21.92)"/><path class="cls-4" d="M49.53,72V68.61h.52v.51a1.41,1.41,0,0,1,.36-.47.61.61,0,0,1,.37-.12,1.11,1.11,0,0,1,.58.19l-.19.53a.84.84,0,0,0-.42-.12.51.51,0,0,0-.34.11.58.58,0,0,0-.21.31,2.35,2.35,0,0,0-.1.67V72Z" transform="translate(1.43 -21.92)"/><path class="cls-4" d="M53.9,71.57a2.17,2.17,0,0,1-.61.38,1.81,1.81,0,0,1-.63.11,1.22,1.22,0,0,1-.85-.27.91.91,0,0,1-.3-.7,1,1,0,0,1,.11-.45,1,1,0,0,1,.3-.33,1.72,1.72,0,0,1,.41-.19,4.64,4.64,0,0,1,.51-.08,5.33,5.33,0,0,0,1-.2v-.15a.67.67,0,0,0-.16-.49,1,1,0,0,0-.65-.19,1,1,0,0,0-.6.14.83.83,0,0,0-.28.5l-.56-.08a1.34,1.34,0,0,1,.25-.58,1.17,1.17,0,0,1,.5-.34,2.26,2.26,0,0,1,.77-.12,1.94,1.94,0,0,1,.7.11.92.92,0,0,1,.4.25.87.87,0,0,1,.17.39,3.08,3.08,0,0,1,0,.53v.76a6.89,6.89,0,0,0,0,1,1.19,1.19,0,0,0,.14.4H54A1.31,1.31,0,0,1,53.9,71.57Zm0-1.28a4.52,4.52,0,0,1-.94.22,2.25,2.25,0,0,0-.5.11.45.45,0,0,0-.22.19.5.5,0,0,0,.09.65.78.78,0,0,0,.51.15,1.28,1.28,0,0,0,.59-.14.89.89,0,0,0,.37-.4,1.24,1.24,0,0,0,.1-.57Z" transform="translate(1.43 -21.92)"/><path class="cls-4" d="M56.57,71.47l.08.51a2.47,2.47,0,0,1-.43,0,1.09,1.09,0,0,1-.49-.1.6.6,0,0,1-.24-.26,2.27,2.27,0,0,1-.07-.68V69.06H55v-.45h.42v-.83l.57-.35v1.18h.58v.45H56v2a1,1,0,0,0,0,.31.21.21,0,0,0,.1.11.36.36,0,0,0,.19,0A1.33,1.33,0,0,0,56.57,71.47Z" transform="translate(1.43 -21.92)"/><path class="cls-4" d="M57.13,68v-.66h.57V68Zm0,4V68.61h.57V72Z" transform="translate(1.43 -21.92)"/><path class="cls-4" d="M58.36,70.3a1.73,1.73,0,0,1,.52-1.39,1.57,1.57,0,0,1,1.06-.38,1.51,1.51,0,0,1,1.13.46,1.7,1.7,0,0,1,.44,1.26,2.24,2.24,0,0,1-.19,1,1.39,1.39,0,0,1-.57.58,1.63,1.63,0,0,1-.81.21,1.49,1.49,0,0,1-1.15-.46A1.79,1.79,0,0,1,58.36,70.3Zm.58,0a1.44,1.44,0,0,0,.29,1,.9.9,0,0,0,.71.32.87.87,0,0,0,.7-.33,1.43,1.43,0,0,0,.29-1,1.38,1.38,0,0,0-.29-1,.94.94,0,0,0-1.41,0A1.41,1.41,0,0,0,58.94,70.3Z" transform="translate(1.43 -21.92)"/><path class="cls-4" d="M62.18,72V68.61h.52v.48a1.21,1.21,0,0,1,1.07-.56,1.47,1.47,0,0,1,.56.11.89.89,0,0,1,.38.29,1,1,0,0,1,.18.42,3.51,3.51,0,0,1,0,.56V72h-.57v-2a1.38,1.38,0,0,0-.07-.52.53.53,0,0,0-.23-.28.77.77,0,0,0-.4-.1,1,1,0,0,0-.63.23,1.14,1.14,0,0,0-.26.88V72Z" transform="translate(1.43 -21.92)"/><path class="cls-4" d="M24.6,79.78V76.41h.52v.51a1.41,1.41,0,0,1,.36-.47.61.61,0,0,1,.37-.12,1.14,1.14,0,0,1,.58.19l-.19.53a.84.84,0,0,0-.42-.12.51.51,0,0,0-.34.11.58.58,0,0,0-.21.31,2,2,0,0,0-.1.67v1.76Z" transform="translate(1.43 -21.92)"/><path class="cls-4" d="M29,79.78v-.49a1.23,1.23,0,0,1-1.07.57,1.26,1.26,0,0,1-.55-.12.86.86,0,0,1-.39-.28A1.11,1.11,0,0,1,26.8,79a2.3,2.3,0,0,1,0-.53V76.41h.57v1.87a2.63,2.63,0,0,0,0,.6.58.58,0,0,0,.23.36.73.73,0,0,0,.43.13.92.92,0,0,0,.48-.14.68.68,0,0,0,.32-.35,1.94,1.94,0,0,0,.09-.66V76.41h.57v3.37Z" transform="translate(1.43 -21.92)"/><path class="cls-4" d="M30.39,79.78V76.41h.51v.48A1.23,1.23,0,0,1,32,76.33a1.47,1.47,0,0,1,.56.11,1,1,0,0,1,.38.29,1.33,1.33,0,0,1,.18.42,3.51,3.51,0,0,1,0,.56v2.07h-.57v-2a1.62,1.62,0,0,0-.07-.52.5.5,0,0,0-.24-.28.72.72,0,0,0-.4-.1,1,1,0,0,0-.63.23,1.18,1.18,0,0,0-.26.88v1.84Z" transform="translate(1.43 -21.92)"/><path class="cls-4" d="M34,79.78V76.41h.52v.48a1.2,1.2,0,0,1,1.07-.56,1.47,1.47,0,0,1,.56.11.89.89,0,0,1,.38.29,1,1,0,0,1,.18.42,3.51,3.51,0,0,1,0,.56v2.07h-.57v-2a1.38,1.38,0,0,0-.07-.52.53.53,0,0,0-.23-.28.77.77,0,0,0-.4-.1,1,1,0,0,0-.63.23,1.14,1.14,0,0,0-.27.88v1.84Z" transform="translate(1.43 -21.92)"/><path class="cls-4" d="M37.62,75.79v-.66h.57v.66Zm0,4V76.41h.57v3.37Z" transform="translate(1.43 -21.92)"/><path class="cls-4" d="M39.06,79.78V76.41h.52v.48a1.2,1.2,0,0,1,1.07-.56,1.47,1.47,0,0,1,.56.11.89.89,0,0,1,.38.29,1,1,0,0,1,.18.42,3.51,3.51,0,0,1,0,.56v2.07h-.57v-2a1.38,1.38,0,0,0-.07-.52.53.53,0,0,0-.23-.28.77.77,0,0,0-.4-.1.94.94,0,0,0-.63.23,1.14,1.14,0,0,0-.27.88v1.84Z" transform="translate(1.43 -21.92)"/><path class="cls-4" d="M42.57,80.06l.56.08a.56.56,0,0,0,.19.38,1,1,0,0,0,.58.16,1,1,0,0,0,.61-.16.79.79,0,0,0,.3-.45,3.76,3.76,0,0,0,0-.73,1.18,1.18,0,0,1-.93.44,1.28,1.28,0,0,1-1.08-.5,1.89,1.89,0,0,1-.38-1.2,2.35,2.35,0,0,1,.17-.89,1.37,1.37,0,0,1,1.29-.86,1.21,1.21,0,0,1,1,.49v-.41h.53v2.91a2.72,2.72,0,0,1-.16,1.12,1.22,1.22,0,0,1-.51.52,1.72,1.72,0,0,1-.85.19,1.63,1.63,0,0,1-1-.27A.92.92,0,0,1,42.57,80.06Zm.48-2a1.41,1.41,0,0,0,.26,1,.81.81,0,0,0,.66.31.85.85,0,0,0,.66-.3,1.43,1.43,0,0,0,.27-1,1.4,1.4,0,0,0-.28-.93.85.85,0,0,0-1.31,0A1.35,1.35,0,0,0,43.05,78Z" transform="translate(1.43 -21.92)"/><path class="cls-4" d="M48.09,79.78V76.41h.52v.51a1.41,1.41,0,0,1,.36-.47.61.61,0,0,1,.37-.12,1.14,1.14,0,0,1,.58.19l-.19.53a.84.84,0,0,0-.42-.12A.51.51,0,0,0,49,77a.58.58,0,0,0-.21.31,2.35,2.35,0,0,0-.1.67v1.76Z" transform="translate(1.43 -21.92)"/><path class="cls-4" d="M52.46,79.37a2.17,2.17,0,0,1-.61.38,1.85,1.85,0,0,1-.63.11,1.22,1.22,0,0,1-.85-.27.91.91,0,0,1-.3-.7,1,1,0,0,1,.11-.45,1,1,0,0,1,.3-.33,1.72,1.72,0,0,1,.41-.19,4.64,4.64,0,0,1,.51-.08,5,5,0,0,0,1-.2,1.14,1.14,0,0,0,0-.15.67.67,0,0,0-.16-.49A1.27,1.27,0,0,0,51,77a.83.83,0,0,0-.28.5l-.56-.08a1.34,1.34,0,0,1,.25-.58,1.11,1.11,0,0,1,.5-.34,2.26,2.26,0,0,1,.77-.12,1.94,1.94,0,0,1,.7.11.92.92,0,0,1,.4.25.87.87,0,0,1,.17.39,3.08,3.08,0,0,1,0,.53v.76a6.89,6.89,0,0,0,0,1,1.19,1.19,0,0,0,.14.4h-.59A1.31,1.31,0,0,1,52.46,79.37Zm-.05-1.28a4.24,4.24,0,0,1-.93.22,2.25,2.25,0,0,0-.5.11.45.45,0,0,0-.22.19.43.43,0,0,0-.08.27.5.5,0,0,0,.17.38.78.78,0,0,0,.51.15,1.28,1.28,0,0,0,.59-.14.89.89,0,0,0,.37-.4,1.41,1.41,0,0,0,.09-.57Z" transform="translate(1.43 -21.92)"/><path class="cls-4" d="M53.88,79.78V76.41h.51v.48a1.22,1.22,0,0,1,1.07-.56,1.52,1.52,0,0,1,.57.11,1,1,0,0,1,.38.29,1.33,1.33,0,0,1,.18.42,3.51,3.51,0,0,1,0,.56v2.07h-.57v-2a1.62,1.62,0,0,0-.07-.52.55.55,0,0,0-.24-.28.72.72,0,0,0-.4-.1,1,1,0,0,0-.63.23,1.18,1.18,0,0,0-.26.88v1.84Z" transform="translate(1.43 -21.92)"/><path class="cls-4" d="M57.39,80.06l.55.08a.56.56,0,0,0,.2.38,1,1,0,0,0,.58.16,1.05,1.05,0,0,0,.61-.16.82.82,0,0,0,.29-.45,3.07,3.07,0,0,0,0-.73,1.18,1.18,0,0,1-.93.44,1.3,1.3,0,0,1-1.08-.5,2,2,0,0,1-.38-1.2,2.18,2.18,0,0,1,.18-.89,1.28,1.28,0,0,1,.5-.63,1.38,1.38,0,0,1,.78-.23,1.23,1.23,0,0,1,1,.49v-.41h.52v2.91a2.72,2.72,0,0,1-.16,1.12,1.14,1.14,0,0,1-.5.52,1.76,1.76,0,0,1-.86.19,1.59,1.59,0,0,1-1-.27A.92.92,0,0,1,57.39,80.06Zm.47-2a1.47,1.47,0,0,0,.26,1,.87.87,0,0,0,1.32,0,1.43,1.43,0,0,0,.27-1,1.39,1.39,0,0,0-.27-.93.86.86,0,0,0-.66-.31.81.81,0,0,0-.65.31A1.35,1.35,0,0,0,57.86,78Z" transform="translate(1.43 -21.92)"/><path class="cls-4" d="M63.42,78.7l.59.07a1.5,1.5,0,0,1-.52.8,1.55,1.55,0,0,1-1,.29,1.52,1.52,0,0,1-1.17-.46,1.77,1.77,0,0,1-.43-1.28,1.89,1.89,0,0,1,.43-1.32,1.52,1.52,0,0,1,1.14-.47,1.48,1.48,0,0,1,1.11.46,1.86,1.86,0,0,1,.42,1.3v.15H61.51a1.26,1.26,0,0,0,.31.85.93.93,0,0,0,.71.3.84.84,0,0,0,.53-.17A1.1,1.1,0,0,0,63.42,78.7Zm-1.88-.93h1.88a1.21,1.21,0,0,0-.21-.64.93.93,0,0,0-1.37-.06A1,1,0,0,0,61.54,77.77Z" transform="translate(1.43 -21.92)"/><rect class="繝後Μ_逋ｽ" x="24.14" y="92.5" width="41.46" height="16.58"/><path class="cls-4" d="M28.1,119.15l.62.15a2.07,2.07,0,0,1-.7,1.16,1.91,1.91,0,0,1-1.23.4,2.14,2.14,0,0,1-1.22-.31,1.86,1.86,0,0,1-.72-.88,3.28,3.28,0,0,1-.25-1.25,2.8,2.8,0,0,1,.28-1.27,1.9,1.9,0,0,1,.79-.82,2.28,2.28,0,0,1,1.13-.28,1.91,1.91,0,0,1,1.17.35,1.88,1.88,0,0,1,.67,1l-.61.15a1.4,1.4,0,0,0-.47-.74,1.2,1.2,0,0,0-.77-.24,1.52,1.52,0,0,0-.9.26,1.37,1.37,0,0,0-.51.69,3,3,0,0,0-.14.89,2.94,2.94,0,0,0,.17,1,1.28,1.28,0,0,0,.54.66,1.47,1.47,0,0,0,.79.22,1.34,1.34,0,0,0,.88-.3A1.54,1.54,0,0,0,28.1,119.15Z" transform="translate(1.43 -21.92)"/><path class="cls-4" d="M29.19,119.09a1.72,1.72,0,0,1,.52-1.38,1.57,1.57,0,0,1,1.06-.38,1.51,1.51,0,0,1,1.14.46,1.74,1.74,0,0,1,.44,1.26,2.22,2.22,0,0,1-.2,1,1.39,1.39,0,0,1-.57.58,1.6,1.6,0,0,1-.81.21,1.52,1.52,0,0,1-1.14-.46A1.78,1.78,0,0,1,29.19,119.09Zm.59,0a1.41,1.41,0,0,0,.28,1,.89.89,0,0,0,.71.33.91.91,0,0,0,.71-.33,1.45,1.45,0,0,0,.28-1,1.37,1.37,0,0,0-.28-.94.9.9,0,0,0-.71-.32.88.88,0,0,0-.71.32A1.39,1.39,0,0,0,29.78,119.09Z" transform="translate(1.43 -21.92)"/><path class="cls-4" d="M33,120.78v-3.37h.51v.48a1.22,1.22,0,0,1,1.07-.56,1.43,1.43,0,0,1,.56.11,1,1,0,0,1,.39.29,1.13,1.13,0,0,1,.17.42,2.44,2.44,0,0,1,0,.56v2.07h-.58v-2a1.67,1.67,0,0,0-.06-.52.55.55,0,0,0-.24-.28.72.72,0,0,0-.4-.1.91.91,0,0,0-.63.23,1.17,1.17,0,0,0-.26.88v1.84Z" transform="translate(1.43 -21.92)"/><path class="cls-4" d="M37.88,120.27l.08.5a1.72,1.72,0,0,1-.43,0,1,1,0,0,1-.48-.09.54.54,0,0,1-.24-.26,2,2,0,0,1-.07-.68v-1.94h-.42v-.44h.42v-.84l.56-.34v1.18h.58v.44H37.3v2a.73.73,0,0,0,0,.32.31.31,0,0,0,.09.11.37.37,0,0,0,.2,0Z" transform="translate(1.43 -21.92)"/><path class="cls-4" d="M38.44,116.78v-.65H39v.65Zm0,4v-3.37H39v3.37Z" transform="translate(1.43 -21.92)"/><path class="cls-4" d="M39.88,120.78v-3.37h.52v.48a1.2,1.2,0,0,1,1.07-.56,1.47,1.47,0,0,1,.56.11.89.89,0,0,1,.38.29,1,1,0,0,1,.18.42,3.51,3.51,0,0,1,0,.56v2.07h-.57v-2a1.38,1.38,0,0,0-.07-.52.53.53,0,0,0-.23-.28.77.77,0,0,0-.4-.1.91.91,0,0,0-.63.23,1.13,1.13,0,0,0-.27.88v1.84Z" transform="translate(1.43 -21.92)"/><path class="cls-4" d="M45.71,120.78v-.5a1.25,1.25,0,0,1-1.07.58,1.31,1.31,0,0,1-.56-.12.92.92,0,0,1-.56-.71,3.07,3.07,0,0,1,0-.53v-2.09h.58v1.87a3.77,3.77,0,0,0,0,.6.57.57,0,0,0,.23.35.69.69,0,0,0,.43.13.91.91,0,0,0,.48-.13.74.74,0,0,0,.32-.36,1.63,1.63,0,0,0,.1-.66v-1.8h.57v3.37Z" transform="translate(1.43 -21.92)"/><path class="cls-4" d="M46.9,119.09a1.72,1.72,0,0,1,.52-1.38,1.57,1.57,0,0,1,1.06-.38,1.51,1.51,0,0,1,1.14.46,1.74,1.74,0,0,1,.44,1.26,2.22,2.22,0,0,1-.2,1,1.39,1.39,0,0,1-.57.58,1.6,1.6,0,0,1-.81.21,1.52,1.52,0,0,1-1.14-.46A1.78,1.78,0,0,1,46.9,119.09Zm.59,0a1.41,1.41,0,0,0,.28,1,.89.89,0,0,0,.71.33.91.91,0,0,0,.71-.33,1.45,1.45,0,0,0,.28-1,1.37,1.37,0,0,0-.28-.94.9.9,0,0,0-.71-.32.88.88,0,0,0-.71.32A1.39,1.39,0,0,0,47.49,119.09Z" transform="translate(1.43 -21.92)"/><path class="cls-4" d="M52.94,120.78v-.5a1.25,1.25,0,0,1-1.07.58,1.31,1.31,0,0,1-.56-.12.92.92,0,0,1-.56-.71,3.07,3.07,0,0,1,0-.53v-2.09h.58v1.87a3.77,3.77,0,0,0,0,.6.57.57,0,0,0,.23.35.69.69,0,0,0,.43.13.91.91,0,0,0,.48-.13.74.74,0,0,0,.32-.36,1.63,1.63,0,0,0,.1-.66v-1.8h.57v3.37Z" transform="translate(1.43 -21.92)"/><path class="cls-4" d="M54.11,119.77l.57-.09a.79.79,0,0,0,.26.52.89.89,0,0,0,.61.19,1,1,0,0,0,.59-.16.52.52,0,0,0,.19-.38.37.37,0,0,0-.17-.31,2.83,2.83,0,0,0-.59-.19,6.8,6.8,0,0,1-.87-.27,1,1,0,0,1-.37-.32.9.9,0,0,1-.12-.46.8.8,0,0,1,.1-.41.87.87,0,0,1,.28-.32,1.16,1.16,0,0,1,.37-.17,1.87,1.87,0,0,1,.49-.07,1.9,1.9,0,0,1,.7.12.92.92,0,0,1,.44.31,1.31,1.31,0,0,1,.2.52l-.56.07A.64.64,0,0,0,56,118a.81.81,0,0,0-.52-.15,1,1,0,0,0-.56.13.4.4,0,0,0-.17.31.31.31,0,0,0,.07.2.53.53,0,0,0,.22.15l.5.15a5.68,5.68,0,0,1,.85.26.88.88,0,0,1,.38.3.83.83,0,0,1,.13.49,1,1,0,0,1-.16.54,1.17,1.17,0,0,1-.48.39,1.81,1.81,0,0,1-.72.14,1.61,1.61,0,0,1-1-.28A1.29,1.29,0,0,1,54.11,119.77Z" transform="translate(1.43 -21.92)"/><path class="cls-4" d="M24.7,128.58v-3.37h.52v.51a1.31,1.31,0,0,1,.36-.47.61.61,0,0,1,.37-.12,1,1,0,0,1,.58.19l-.19.53a.76.76,0,0,0-.42-.13.52.52,0,0,0-.34.12.54.54,0,0,0-.21.31,2.28,2.28,0,0,0-.1.66v1.77Z" transform="translate(1.43 -21.92)"/><path class="cls-4" d="M29.08,128.58v-.5a1.24,1.24,0,0,1-1.07.58,1.34,1.34,0,0,1-.56-.12.89.89,0,0,1-.38-.29,1.16,1.16,0,0,1-.18-.42,3.33,3.33,0,0,1,0-.53v-2.09h.57v1.87a2.63,2.63,0,0,0,0,.6.56.56,0,0,0,.22.35.7.7,0,0,0,.44.13.91.91,0,0,0,.48-.13.79.79,0,0,0,.32-.36A1.86,1.86,0,0,0,29,127v-1.8h.57v3.37Z" transform="translate(1.43 -21.92)"/><path class="cls-4" d="M30.49,128.58v-3.37H31v.48a1.22,1.22,0,0,1,1.07-.56,1.52,1.52,0,0,1,.57.11,1,1,0,0,1,.38.29,1.33,1.33,0,0,1,.18.42,3.51,3.51,0,0,1,0,.56v2.07h-.57v-2.05a1.62,1.62,0,0,0-.07-.52.55.55,0,0,0-.24-.28.72.72,0,0,0-.4-.1.91.91,0,0,0-.63.23,1.17,1.17,0,0,0-.26.88v1.84Z" transform="translate(1.43 -21.92)"/><path class="cls-4" d="M34.1,128.58v-3.37h.52v.48a1.2,1.2,0,0,1,1.07-.56,1.47,1.47,0,0,1,.56.11.89.89,0,0,1,.38.29,1,1,0,0,1,.18.42,3.51,3.51,0,0,1,0,.56v2.07h-.57v-2.05a1.38,1.38,0,0,0-.07-.52.53.53,0,0,0-.23-.28.77.77,0,0,0-.4-.1.91.91,0,0,0-.63.23,1.13,1.13,0,0,0-.27.88v1.84Z" transform="translate(1.43 -21.92)"/><path class="cls-4" d="M37.72,124.58v-.65h.57v.65Zm0,4v-3.37h.57v3.37Z" transform="translate(1.43 -21.92)"/><path class="cls-4" d="M39.16,128.58v-3.37h.52v.48a1.2,1.2,0,0,1,1.07-.56,1.47,1.47,0,0,1,.56.11.89.89,0,0,1,.38.29,1,1,0,0,1,.18.42,3.51,3.51,0,0,1,0,.56v2.07h-.57v-2.05a1.38,1.38,0,0,0-.07-.52.53.53,0,0,0-.23-.28.77.77,0,0,0-.4-.1.89.89,0,0,0-.63.23,1.13,1.13,0,0,0-.27.88v1.84Z" transform="translate(1.43 -21.92)"/><path class="cls-4" d="M42.67,128.86l.56.08a.52.52,0,0,0,.19.38,1,1,0,0,0,.58.15,1,1,0,0,0,.61-.15.79.79,0,0,0,.3-.45,3.76,3.76,0,0,0,0-.73,1.19,1.19,0,0,1-.94.44,1.27,1.27,0,0,1-1.07-.5,2,2,0,0,1-.38-1.21,2.39,2.39,0,0,1,.17-.89,1.46,1.46,0,0,1,.51-.63,1.43,1.43,0,0,1,.78-.22,1.2,1.2,0,0,1,1,.48v-.4h.53v2.91a2.72,2.72,0,0,1-.16,1.12,1.22,1.22,0,0,1-.51.52A1.84,1.84,0,0,1,44,130a1.63,1.63,0,0,1-1-.27A.93.93,0,0,1,42.67,128.86Zm.47-2a1.42,1.42,0,0,0,.27,1,.86.86,0,0,0,1.32,0,1.74,1.74,0,0,0,0-1.88.86.86,0,0,0-1.31,0A1.38,1.38,0,0,0,43.14,126.83Z" transform="translate(1.43 -21.92)"/><path class="cls-4" d="M48.19,128.58v-3.37h.52v.51a1.31,1.31,0,0,1,.36-.47.61.61,0,0,1,.37-.12,1,1,0,0,1,.58.19l-.19.53a.76.76,0,0,0-.42-.13.52.52,0,0,0-.34.12.54.54,0,0,0-.21.31,2,2,0,0,0-.1.66v1.77Z" transform="translate(1.43 -21.92)"/><path class="cls-4" d="M52.56,128.16a2,2,0,0,1-.61.38,1.64,1.64,0,0,1-.63.12,1.18,1.18,0,0,1-.85-.28.89.89,0,0,1-.3-.69,1,1,0,0,1,.11-.45.87.87,0,0,1,.3-.33,1.72,1.72,0,0,1,.41-.19,3,3,0,0,1,.51-.08,5,5,0,0,0,1-.2,1.14,1.14,0,0,0,0-.15.65.65,0,0,0-.16-.49,1,1,0,0,0-.65-.19,1,1,0,0,0-.6.14.83.83,0,0,0-.28.5l-.56-.08a1.34,1.34,0,0,1,.25-.58,1,1,0,0,1,.5-.34,2.52,2.52,0,0,1,1.47,0,1,1,0,0,1,.4.26.87.87,0,0,1,.17.39,3.08,3.08,0,0,1,0,.53v.76a6.72,6.72,0,0,0,0,1,1.17,1.17,0,0,0,.14.41h-.59A1.29,1.29,0,0,1,52.56,128.16Zm-.05-1.27a4.35,4.35,0,0,1-.93.21,2.81,2.81,0,0,0-.5.12.49.49,0,0,0-.22.18.45.45,0,0,0-.08.27.52.52,0,0,0,.17.39.78.78,0,0,0,.51.15,1.11,1.11,0,0,0,.58-.15.8.8,0,0,0,.38-.39,1.41,1.41,0,0,0,.09-.57Z" transform="translate(1.43 -21.92)"/><path class="cls-4" d="M54,128.58v-3.37h.51v.48a1.22,1.22,0,0,1,1.07-.56,1.43,1.43,0,0,1,.56.11,1,1,0,0,1,.39.29,1.13,1.13,0,0,1,.17.42,2.44,2.44,0,0,1,0,.56v2.07h-.58v-2.05a1.67,1.67,0,0,0-.06-.52.55.55,0,0,0-.24-.28.72.72,0,0,0-.4-.1.91.91,0,0,0-.63.23,1.17,1.17,0,0,0-.26.88v1.84Z" transform="translate(1.43 -21.92)"/><path class="cls-4" d="M57.49,128.86l.55.08a.56.56,0,0,0,.2.38,1,1,0,0,0,.58.15,1.06,1.06,0,0,0,.61-.15.82.82,0,0,0,.29-.45,3.07,3.07,0,0,0,0-.73,1.18,1.18,0,0,1-.93.44,1.3,1.3,0,0,1-1.08-.5,2,2,0,0,1-.38-1.21,2.21,2.21,0,0,1,.18-.89,1.37,1.37,0,0,1,.5-.63,1.45,1.45,0,0,1,.78-.22,1.22,1.22,0,0,1,1,.48v-.4h.52v2.91a2.72,2.72,0,0,1-.16,1.12,1.14,1.14,0,0,1-.5.52,1.88,1.88,0,0,1-.86.19,1.59,1.59,0,0,1-1-.27A.93.93,0,0,1,57.49,128.86Zm.47-2a1.48,1.48,0,0,0,.26,1,.86.86,0,0,0,.66.31.81.81,0,0,0,.66-.31,1.77,1.77,0,0,0,0-1.88.87.87,0,0,0-.67-.31.81.81,0,0,0-.64.3A1.38,1.38,0,0,0,58,126.83Z" transform="translate(1.43 -21.92)"/><path class="cls-4" d="M63.51,127.49l.59.08a1.43,1.43,0,0,1-.51.8,1.57,1.57,0,0,1-1,.29,1.56,1.56,0,0,1-1.17-.46,1.77,1.77,0,0,1-.43-1.28,1.85,1.85,0,0,1,.44-1.32,1.58,1.58,0,0,1,2.24,0,1.86,1.86,0,0,1,.42,1.3V127H61.61a1.28,1.28,0,0,0,.31.85.94.94,0,0,0,.71.3.86.86,0,0,0,.53-.17A1.05,1.05,0,0,0,63.51,127.49Zm-1.87-.92h1.88a1.1,1.1,0,0,0-.22-.64.86.86,0,0,0-.7-.33.9.9,0,0,0-.67.27A1.07,1.07,0,0,0,61.64,126.57Z" transform="translate(1.43 -21.92)"/><path class="cls-4" d="M3.22,98.27H-.88V99.8h-.55V96.11h.55v1.54h4.1Z" transform="translate(1.43 -21.92)"/><path class="cls-4" d="M1.54,95.77a1.76,1.76,0,0,1-1.39-.52,1.58,1.58,0,0,1-.37-1.06,1.53,1.53,0,0,1,.45-1.14,1.76,1.76,0,0,1,1.26-.44,2.22,2.22,0,0,1,1,.2,1.42,1.42,0,0,1,.58.56,1.64,1.64,0,0,1,.21.82,1.51,1.51,0,0,1-.45,1.14A1.84,1.84,0,0,1,1.54,95.77Zm0-.59a1.44,1.44,0,0,0,1-.28.93.93,0,0,0,.32-.71.91.91,0,0,0-.32-.71,1.48,1.48,0,0,0-1-.28,1.4,1.4,0,0,0-.95.28.95.95,0,0,0,0,1.42A1.42,1.42,0,0,0,1.54,95.18Z" transform="translate(1.43 -21.92)"/><path class="cls-4" d="M3.22,92H-.15v-.52H.36a1.41,1.41,0,0,1-.47-.36.6.6,0,0,1-.11-.37A1.09,1.09,0,0,1,0,90.12l.53.19a.84.84,0,0,0-.12.42.51.51,0,0,0,.11.34.58.58,0,0,0,.31.21,2.35,2.35,0,0,0,.67.1H3.22Z" transform="translate(1.43 -21.92)"/><path class="cls-4" d="M4.51,87.63H2.86a1.06,1.06,0,0,1,.32.37,1.13,1.13,0,0,1,.12.51,1.34,1.34,0,0,1-.48,1A1.89,1.89,0,0,1,1.51,90a2.25,2.25,0,0,1-.92-.18A1.4,1.4,0,0,1,0,89.29a1.44,1.44,0,0,1-.2-.74,1.13,1.13,0,0,1,.52-1H-.15v-.51H4.51Zm-3,1.76a1.48,1.48,0,0,0,1-.27.84.84,0,0,0,.33-.66.8.8,0,0,0-.31-.63,1.46,1.46,0,0,0-.94-.26,1.52,1.52,0,0,0-1,.28.8.8,0,0,0-.34.65.78.78,0,0,0,.31.63A1.56,1.56,0,0,0,1.53,89.39Z" transform="translate(1.43 -21.92)"/><path class="cls-4" d="M3.22,84H2.73A1.23,1.23,0,0,1,3.3,85a1.31,1.31,0,0,1-.12.56A.88.88,0,0,1,2.9,86a1,1,0,0,1-.43.18,3.33,3.33,0,0,1-.53,0H-.15V85.6H1.72a3.77,3.77,0,0,0,.6,0,.6.6,0,0,0,.36-.23.75.75,0,0,0,.13-.43,1,1,0,0,0-.14-.49.66.66,0,0,0-.35-.31,1.63,1.63,0,0,0-.66-.1H-.15v-.57H3.22Z" transform="translate(1.43 -21.92)"/><path class="cls-4" d="M2.14,80.24l.07-.59a1.39,1.39,0,0,1,.8.52,1.54,1.54,0,0,1,.29,1,1.52,1.52,0,0,1-.46,1.17,1.77,1.77,0,0,1-1.27.44A1.86,1.86,0,0,1,.25,82.3a1.46,1.46,0,0,1-.47-1.14,1.41,1.41,0,0,1,.46-1.1,1.78,1.78,0,0,1,1.29-.43h.15v2.52a1.27,1.27,0,0,0,.85-.32.92.92,0,0,0,.3-.7.89.89,0,0,0-.17-.54A1.09,1.09,0,0,0,2.14,80.24Zm-.93,1.87V80.23a1.14,1.14,0,0,0-.63.22.88.88,0,0,0-.33.71.89.89,0,0,0,.26.66A1,1,0,0,0,1.21,82.11Z" transform="translate(1.43 -21.92)"/><path class="cls-4" d="M4.51,77.11H-1.43V75.85H-1v.69H4v-.69h.47Z" transform="translate(1.43 -21.92)"/><path class="cls-4" d="M3.22,75.25H-1.43v-.63l3.65-2.44H-1.43v-.59H3.22v.63L-.43,74.66H3.22Z" transform="translate(1.43 -21.92)"/><path class="cls-4" d="M.94,70.71a.74.74,0,0,1-.56-.24.78.78,0,0,1-.24-.57.74.74,0,0,1,.24-.56.74.74,0,0,1,.56-.24.75.75,0,0,1,.57.24.74.74,0,0,1,.24.56.78.78,0,0,1-.24.57A.75.75,0,0,1,.94,70.71Z" transform="translate(1.43 -21.92)"/><path class="cls-4" d="M3.22,68.35H-.15v-.51H.33a1.24,1.24,0,0,1-.4-.42,1.21,1.21,0,0,1-.15-.6,1.16,1.16,0,0,1,.15-.62.84.84,0,0,1,.44-.34,1.18,1.18,0,0,1-.59-1,1,1,0,0,1,.27-.77,1.2,1.2,0,0,1,.86-.27H3.22v.57H1.1a1.42,1.42,0,0,0-.49.06.44.44,0,0,0-.25.2A.62.62,0,0,0,.27,65a.79.79,0,0,0,.24.59,1,1,0,0,0,.75.24h2v.57H1a.92.92,0,0,0-.57.14.51.51,0,0,0-.19.45.81.81,0,0,0,.13.45.74.74,0,0,0,.37.3,2.12,2.12,0,0,0,.7.09H3.22Z" transform="translate(1.43 -21.92)"/><path class="cls-4" d="M4.51,62v1.26H4v-.69H-1v.69h-.47V62Z" transform="translate(1.43 -21.92)"/><path class="cls-4" d="M44.76,150.56l.58-.05a1.32,1.32,0,0,0,.19.57,1,1,0,0,0,.47.36,1.8,1.8,0,0,0,.71.14,1.73,1.73,0,0,0,.63-.11.87.87,0,0,0,.4-.28.66.66,0,0,0,.13-.4.55.55,0,0,0-.13-.38.93.93,0,0,0-.42-.28c-.12,0-.4-.12-.83-.23a3.65,3.65,0,0,1-.89-.29,1.19,1.19,0,0,1-.5-.43,1,1,0,0,1-.16-.58,1.16,1.16,0,0,1,.2-.66,1.18,1.18,0,0,1,.58-.46,2.15,2.15,0,0,1,.85-.16,2.4,2.4,0,0,1,.92.17,1.27,1.27,0,0,1,.6.49,1.32,1.32,0,0,1,.23.73l-.59,0a1,1,0,0,0-.32-.66,1.24,1.24,0,0,0-.81-.23,1.27,1.27,0,0,0-.81.21.61.61,0,0,0-.26.49.51.51,0,0,0,.18.41,2.52,2.52,0,0,0,.93.34,6.61,6.61,0,0,1,1,.29,1.41,1.41,0,0,1,.6.48,1.14,1.14,0,0,1,.19.66,1.27,1.27,0,0,1-.21.7,1.4,1.4,0,0,1-.61.51,2.19,2.19,0,0,1-.9.18,2.76,2.76,0,0,1-1.06-.18,1.59,1.59,0,0,1-.67-.56A1.56,1.56,0,0,1,44.76,150.56Z" transform="translate(1.43 -21.92)"/><path class="cls-4" d="M49.23,153.34v-4.66h.52v.44a1.29,1.29,0,0,1,.42-.39,1.19,1.19,0,0,1,.56-.13,1.31,1.31,0,0,1,.76.23,1.34,1.34,0,0,1,.5.62,2.35,2.35,0,0,1,.17.89,2.12,2.12,0,0,1-.19.93,1.36,1.36,0,0,1-.54.64,1.42,1.42,0,0,1-.74.22,1.14,1.14,0,0,1-.52-.12,1.12,1.12,0,0,1-.37-.31v1.64Zm.52-3a1.51,1.51,0,0,0,.26,1,.82.82,0,0,0,1.29,0,2,2,0,0,0,0-2,.82.82,0,0,0-.64-.32.84.84,0,0,0-.64.34A1.53,1.53,0,0,0,49.75,150.39Z" transform="translate(1.43 -21.92)"/><path class="cls-4" d="M55.15,151l.59.07a1.43,1.43,0,0,1-.51.8,1.6,1.6,0,0,1-1,.29,1.52,1.52,0,0,1-1.17-.46,1.76,1.76,0,0,1-.43-1.27,1.9,1.9,0,0,1,.43-1.33,1.51,1.51,0,0,1,1.14-.47,1.42,1.42,0,0,1,1.1.47,1.78,1.78,0,0,1,.43,1.29v.15H53.25a1.26,1.26,0,0,0,.31.85.92.92,0,0,0,.7.3.89.89,0,0,0,.54-.17A1,1,0,0,0,55.15,151ZM53.28,150h1.88a1.21,1.21,0,0,0-.22-.64.86.86,0,0,0-.7-.33.9.9,0,0,0-.67.27A1.07,1.07,0,0,0,53.28,150Z" transform="translate(1.43 -21.92)"/><path class="cls-4" d="M58.77,151l.59.07a1.44,1.44,0,0,1-.52.8,1.74,1.74,0,0,1-2.14-.17,1.76,1.76,0,0,1-.43-1.27,1.9,1.9,0,0,1,.44-1.33,1.49,1.49,0,0,1,1.13-.47,1.44,1.44,0,0,1,1.11.47,1.82,1.82,0,0,1,.43,1.29,1,1,0,0,1,0,.15H56.86a1.32,1.32,0,0,0,.31.85.94.94,0,0,0,.71.3.89.89,0,0,0,.54-.17A1.16,1.16,0,0,0,58.77,151ZM56.89,150h1.88a1.13,1.13,0,0,0-.21-.64.88.88,0,0,0-.71-.33.9.9,0,0,0-.66.27A1,1,0,0,0,56.89,150Z" transform="translate(1.43 -21.92)"/><path class="cls-4" d="M62.26,152.05v-.42a1.05,1.05,0,0,1-.94.5,1.37,1.37,0,0,1-.74-.22,1.44,1.44,0,0,1-.52-.62,2.1,2.1,0,0,1-.19-.92,2.47,2.47,0,0,1,.17-.92,1.37,1.37,0,0,1,.5-.63,1.43,1.43,0,0,1,.75-.22,1.21,1.21,0,0,1,.55.13,1.14,1.14,0,0,1,.38.34V147.4h.57v4.65Zm-1.8-1.68a1.5,1.5,0,0,0,.27,1,.83.83,0,0,0,.64.32.79.79,0,0,0,.64-.31,1.41,1.41,0,0,0,.26-.93,1.66,1.66,0,0,0-.26-1,.84.84,0,0,0-.66-.32.78.78,0,0,0-.64.31A1.54,1.54,0,0,0,60.46,150.37Z" transform="translate(1.43 -21.92)"/><path class="cls-4" d="M65.51,153.34V147.4h1.26v.47h-.69v5h.69v.47Z" transform="translate(1.43 -21.92)"/><path class="cls-4" d="M67.3,152.05v-3.37h.51v.51a1.41,1.41,0,0,1,.36-.47.63.63,0,0,1,.37-.12,1.17,1.17,0,0,1,.59.19l-.2.53a.84.84,0,0,0-.42-.12.49.49,0,0,0-.33.11.65.65,0,0,0-.22.31,2.36,2.36,0,0,0-.09.67v1.76Z" transform="translate(1.43 -21.92)"/><path class="cls-4" d="M69,152.13l1.35-4.81h.45l-1.34,4.81Z" transform="translate(1.43 -21.92)"/><path class="cls-4" d="M71.27,152.05v-3.37h.51v.47a1.24,1.24,0,0,1,.43-.39,1.17,1.17,0,0,1,.6-.16,1.13,1.13,0,0,1,.61.16.84.84,0,0,1,.34.44,1.19,1.19,0,0,1,1-.6,1.05,1.05,0,0,1,.77.28,1.2,1.2,0,0,1,.27.86v2.31h-.57v-2.12a2,2,0,0,0,0-.5.49.49,0,0,0-.21-.24.62.62,0,0,0-.34-.09.81.81,0,0,0-.59.24,1.05,1.05,0,0,0-.23.75v2h-.57v-2.19a1,1,0,0,0-.14-.57.54.54,0,0,0-.46-.19.81.81,0,0,0-.45.13.72.72,0,0,0-.29.37,1.85,1.85,0,0,0-.1.7v1.75Z" transform="translate(1.43 -21.92)"/><path class="cls-4" d="M76.69,148.06v-.66h.57v.66Zm0,4v-3.37h.57v3.37Z" transform="translate(1.43 -21.92)"/><path class="cls-4" d="M78.13,152.05v-3.37h.52v.48a1.2,1.2,0,0,1,1.07-.56,1.47,1.47,0,0,1,.56.11.89.89,0,0,1,.38.29,1,1,0,0,1,.18.42,3.51,3.51,0,0,1,0,.56v2.07H80.3V150a1.38,1.38,0,0,0-.07-.52.53.53,0,0,0-.23-.28.77.77,0,0,0-.4-.1.92.92,0,0,0-.63.23,1.14,1.14,0,0,0-.27.88v1.84Z" transform="translate(1.43 -21.92)"/><path class="cls-4" d="M82.7,153.34H81.44v-.47h.69v-5h-.69v-.47H82.7Z" transform="translate(1.43 -21.92)"/></g></svg>