<svg xmlns="http://www.w3.org/2000/svg" viewBox="0 0 114.48 130.73"><defs><style>.cls-1,.cls-2,.cls-3,.cls-4,.cls-5,.繝医Ν繧ｯ繧ｰ繝ｩ繝廟繧ｰ繝ｬ繝ｼ邱,.邱喟0\.5pt-4{fill:none;}.cls-1,.cls-2,.cls-5,.繝医Ν繧ｯ繧ｰ繝ｩ繝廟繧ｰ繝ｬ繝ｼ邱{stroke:#9fa0a0;}.cls-1,.cls-2,.邱喟0\.5pt-4{stroke-miterlimit:10;}.cls-1,.cls-2{stroke-width:1px;}.cls-2{stroke-dasharray:2.91 1.41;}.cls-3,.cls-4,.邱喟0\.5pt-4{stroke:#231815;}.cls-3{stroke-linejoin:round;stroke-width:0.14px;}.cls-5,.繝医Ν繧ｯ繧ｰ繝ｩ繝廟繧ｰ繝ｬ繝ｼ邱{stroke-width:3px;}.cls-5{stroke-linecap:square;}.cls-6{fill:#231815;}.繝後Μ_逋ｽ-2{fill:#fff;}.邱喟0\.5pt-4{stroke-width:0.5px;}</style></defs><g id="Illust"><line class="cls-1" x1="98.94" y1="97.4" x2="98.94" y2="98.95"/><line class="cls-2" x1="98.94" y1="100.36" x2="98.94" y2="112.61"/><line class="cls-1" x1="98.94" y1="113.32" x2="98.94" y2="114.87"/><line class="cls-3" x1="19.87" y1="98.66" x2="109.15" y2="98.66"/><line class="cls-3" x1="19.87" y1="82.47" x2="109.15" y2="82.47"/><line class="cls-3" x1="19.87" y1="66.28" x2="109.15" y2="66.28"/><line class="cls-3" x1="19.87" y1="50.1" x2="109.15" y2="50.1"/><line class="cls-3" x1="19.87" y1="33.91" x2="109.15" y2="33.91"/><line class="cls-3" x1="19.87" y1="17.72" x2="109.15" y2="17.72"/><line class="cls-3" x1="45.37" y1="1.48" x2="45.37" y2="114.84"/><line class="cls-3" x1="70.88" y1="1.48" x2="70.88" y2="114.84"/><line class="cls-3" x1="96.39" y1="1.48" x2="96.39" y2="114.84"/><polyline class="繝医Ν繧ｯ繧ｰ繝ｩ繝廟繧ｰ繝ｬ繝ｼ邱" points="19.86 82.07 32.61 82.07 45.36 82.07 61.96 82.07 70.89 87.78 83.64 93.23 96.39 96.81 109.15 99.38"/><polyline class="cls-4" points="19.86 82.07 32.61 82.07 45.36 82.07 61.96 82.07 70.89 87.78 83.64 93.23 96.39 96.81 109.15 99.38"/><polyline class="cls-5" points="19.86 16.47 63.22 16.47 109.15 50.07"/><polyline class="cls-4" points="19.86 16.47 58.11 16.47 96.39 44.46 109.15 53.81"/><path class="cls-6" d="M17.24,141.38a3.52,3.52,0,0,1,.13-1,1.28,1.28,0,0,1,.39-.59,1.14,1.14,0,0,1,1.15-.1.9.9,0,0,1,.36.34,1.73,1.73,0,0,1,.23.53,3.72,3.72,0,0,1,.08.84,3.52,3.52,0,0,1-.13,1,1.31,1.31,0,0,1-.39.6,1,1,0,0,1-.65.21,1,1,0,0,1-.81-.37A2.33,2.33,0,0,1,17.24,141.38Zm.45,0a2.25,2.25,0,0,0,.21,1.18.59.59,0,0,0,1,0,2.27,2.27,0,0,0,.2-1.18,2.23,2.23,0,0,0-.2-1.17.63.63,0,0,0-.52-.29.56.56,0,0,0-.48.26A2.24,2.24,0,0,0,17.69,141.38Z" transform="translate(1.43 -22.61)"/><path class="cls-6" d="M40.22,143.15h-.44v-2.8a2.07,2.07,0,0,1-.41.3,2.87,2.87,0,0,1-.47.23v-.43a2.27,2.27,0,0,0,.65-.42,1.76,1.76,0,0,0,.39-.47h.28Z" transform="translate(1.43 -22.61)"/><path class="cls-6" d="M41.38,141.38a3.2,3.2,0,0,1,.13-1,1.28,1.28,0,0,1,.39-.59,1.14,1.14,0,0,1,1.15-.1.9.9,0,0,1,.36.34,1.73,1.73,0,0,1,.22.53,4.23,4.23,0,0,1-.05,1.86,1.22,1.22,0,0,1-.38.6,1,1,0,0,1-.65.21,1,1,0,0,1-.82-.37A2.41,2.41,0,0,1,41.38,141.38Zm.45,0a2.25,2.25,0,0,0,.21,1.18.58.58,0,0,0,1,0,2.25,2.25,0,0,0,.21-1.18,2.2,2.2,0,0,0-.21-1.17.6.6,0,0,0-.51-.29.56.56,0,0,0-.48.26A2.24,2.24,0,0,0,41.83,141.38Z" transform="translate(1.43 -22.61)"/><path class="cls-6" d="M44.13,141.38a3.2,3.2,0,0,1,.13-1,1.28,1.28,0,0,1,.39-.59,1.14,1.14,0,0,1,1.15-.1.9.9,0,0,1,.36.34,1.73,1.73,0,0,1,.22.53,4.23,4.23,0,0,1-.05,1.86,1.22,1.22,0,0,1-.38.6,1.1,1.1,0,0,1-1.47-.16A2.41,2.41,0,0,1,44.13,141.38Zm.45,0a2.25,2.25,0,0,0,.21,1.18.6.6,0,0,0,.51.29.62.62,0,0,0,.51-.29,2.38,2.38,0,0,0,.2-1.18,2.34,2.34,0,0,0-.2-1.17.63.63,0,0,0-.52-.29.56.56,0,0,0-.48.26A2.24,2.24,0,0,0,44.58,141.38Z" transform="translate(1.43 -22.61)"/><path class="cls-6" d="M46.94,141.38a3.2,3.2,0,0,1,.13-1,1.28,1.28,0,0,1,.39-.59,1.14,1.14,0,0,1,1.15-.1A.9.9,0,0,1,49,140a1.51,1.51,0,0,1,.22.53,4.23,4.23,0,0,1,0,1.86,1.22,1.22,0,0,1-.38.6,1.1,1.1,0,0,1-1.47-.16A2.41,2.41,0,0,1,46.94,141.38Zm.45,0a2.25,2.25,0,0,0,.21,1.18.59.59,0,0,0,1,0,2.38,2.38,0,0,0,.2-1.18,2.34,2.34,0,0,0-.2-1.17.63.63,0,0,0-.52-.29.56.56,0,0,0-.48.26A2.24,2.24,0,0,0,47.39,141.38Z" transform="translate(1.43 -22.61)"/><path class="cls-6" d="M66.39,142.73v.42H64a1.06,1.06,0,0,1,0-.31,1.58,1.58,0,0,1,.29-.47,4.54,4.54,0,0,1,.58-.54,5.35,5.35,0,0,0,.79-.76,1,1,0,0,0,.2-.53.6.6,0,0,0-.18-.44.77.77,0,0,0-1,0,.7.7,0,0,0-.19.53l-.45,0a1.08,1.08,0,0,1,.35-.77,1.16,1.16,0,0,1,.81-.26,1.13,1.13,0,0,1,.81.28.94.94,0,0,1,.3.71,1.25,1.25,0,0,1-.08.42,1.57,1.57,0,0,1-.3.44,7.63,7.63,0,0,1-.67.63,5.24,5.24,0,0,0-.51.45,1.33,1.33,0,0,0-.19.24Z" transform="translate(1.43 -22.61)"/><path class="cls-6" d="M66.89,141.38a3.2,3.2,0,0,1,.13-1,1.28,1.28,0,0,1,.39-.59,1.14,1.14,0,0,1,1.15-.1.9.9,0,0,1,.36.34,1.51,1.51,0,0,1,.22.53,4.23,4.23,0,0,1,0,1.86,1.22,1.22,0,0,1-.38.6,1.1,1.1,0,0,1-1.47-.16A2.41,2.41,0,0,1,66.89,141.38Zm.45,0a2.25,2.25,0,0,0,.21,1.18.59.59,0,0,0,1,0,2.38,2.38,0,0,0,.2-1.18,2.34,2.34,0,0,0-.2-1.17.63.63,0,0,0-.52-.29.56.56,0,0,0-.48.26A2.24,2.24,0,0,0,67.34,141.38Z" transform="translate(1.43 -22.61)"/><path class="cls-6" d="M69.64,141.38a3.2,3.2,0,0,1,.13-1,1.28,1.28,0,0,1,.39-.59,1.14,1.14,0,0,1,1.15-.1.9.9,0,0,1,.36.34,1.51,1.51,0,0,1,.22.53,3.16,3.16,0,0,1,.09.84,3.52,3.52,0,0,1-.13,1,1.31,1.31,0,0,1-.39.6,1,1,0,0,1-.65.21,1,1,0,0,1-.81-.37A2.33,2.33,0,0,1,69.64,141.38Zm.45,0a2.25,2.25,0,0,0,.21,1.18.59.59,0,0,0,1,0,2.38,2.38,0,0,0,.2-1.18,2.34,2.34,0,0,0-.2-1.17.63.63,0,0,0-.52-.29.56.56,0,0,0-.48.26A2.24,2.24,0,0,0,70.09,141.38Z" transform="translate(1.43 -22.61)"/><path class="cls-6" d="M72.45,141.38a3.52,3.52,0,0,1,.13-1,1.28,1.28,0,0,1,.39-.59,1.14,1.14,0,0,1,1.15-.1.9.9,0,0,1,.36.34,1.73,1.73,0,0,1,.23.53,3.72,3.72,0,0,1,.08.84,3.52,3.52,0,0,1-.13,1,1.31,1.31,0,0,1-.39.6,1,1,0,0,1-.65.21,1,1,0,0,1-.81-.37A2.33,2.33,0,0,1,72.45,141.38Zm.45,0a2.25,2.25,0,0,0,.21,1.18.59.59,0,0,0,1,0,2.27,2.27,0,0,0,.2-1.18,2.23,2.23,0,0,0-.2-1.17.63.63,0,0,0-.52-.29.56.56,0,0,0-.48.26A2.24,2.24,0,0,0,72.9,141.38Z" transform="translate(1.43 -22.61)"/><path class="cls-6" d="M89.59,142.2l.44,0a.94.94,0,0,0,.26.53.64.64,0,0,0,.44.17.69.69,0,0,0,.53-.22.72.72,0,0,0,.21-.53.65.65,0,0,0-.2-.5.68.68,0,0,0-.5-.19,1,1,0,0,0-.31.05l.05-.39h.07a.89.89,0,0,0,.51-.14.5.5,0,0,0,.22-.45.52.52,0,0,0-.16-.4.57.57,0,0,0-.43-.16.57.57,0,0,0-.42.16.77.77,0,0,0-.22.48l-.44-.08a1.1,1.1,0,0,1,.36-.68,1.07,1.07,0,0,1,.71-.24,1.19,1.19,0,0,1,.54.12,1,1,0,0,1,.38.34.88.88,0,0,1,.13.47.79.79,0,0,1-.12.42.85.85,0,0,1-.37.3.82.82,0,0,1,.49.31.88.88,0,0,1,.18.57,1.09,1.09,0,0,1-.34.8,1.24,1.24,0,0,1-.87.32,1.12,1.12,0,0,1-.78-.28A1.07,1.07,0,0,1,89.59,142.2Z" transform="translate(1.43 -22.61)"/><path class="cls-6" d="M92.4,141.38a3.52,3.52,0,0,1,.13-1,1.28,1.28,0,0,1,.39-.59,1.14,1.14,0,0,1,1.15-.1.9.9,0,0,1,.36.34,1.73,1.73,0,0,1,.23.53,3.72,3.72,0,0,1,.08.84,3.52,3.52,0,0,1-.13,1,1.31,1.31,0,0,1-.39.6,1,1,0,0,1-.65.21,1,1,0,0,1-.81-.37A2.33,2.33,0,0,1,92.4,141.38Zm.45,0a2.25,2.25,0,0,0,.21,1.18.59.59,0,0,0,1,0,2.27,2.27,0,0,0,.2-1.18,2.23,2.23,0,0,0-.2-1.17.63.63,0,0,0-.52-.29.56.56,0,0,0-.48.26A2.24,2.24,0,0,0,92.85,141.38Z" transform="translate(1.43 -22.61)"/><path class="cls-6" d="M95.15,141.38a3.52,3.52,0,0,1,.13-1,1.28,1.28,0,0,1,.39-.59,1,1,0,0,1,.65-.21,1.06,1.06,0,0,1,.51.11,1,1,0,0,1,.35.34,1.73,1.73,0,0,1,.23.53,3.72,3.72,0,0,1,.08.84,3.52,3.52,0,0,1-.13,1,1.31,1.31,0,0,1-.39.6,1,1,0,0,1-.65.21,1,1,0,0,1-.81-.37A2.33,2.33,0,0,1,95.15,141.38Zm.45,0a2.25,2.25,0,0,0,.21,1.18.59.59,0,0,0,1,0,2.25,2.25,0,0,0,.21-1.18,2.2,2.2,0,0,0-.21-1.17.63.63,0,0,0-.52-.29.56.56,0,0,0-.48.26A2.24,2.24,0,0,0,95.6,141.38Z" transform="translate(1.43 -22.61)"/><path class="cls-6" d="M98,141.38a3.52,3.52,0,0,1,.13-1,1.28,1.28,0,0,1,.39-.59,1,1,0,0,1,.65-.21,1.06,1.06,0,0,1,.51.11,1,1,0,0,1,.35.34,1.73,1.73,0,0,1,.23.53,3.72,3.72,0,0,1,.08.84,3.52,3.52,0,0,1-.13,1,1.31,1.31,0,0,1-.39.6,1,1,0,0,1-.65.21,1,1,0,0,1-.81-.37A2.33,2.33,0,0,1,98,141.38Zm.45,0a2.25,2.25,0,0,0,.21,1.18.59.59,0,0,0,1,0,2.25,2.25,0,0,0,.21-1.18,2.2,2.2,0,0,0-.21-1.17.62.62,0,0,0-.51-.29.57.57,0,0,0-.49.26A2.24,2.24,0,0,0,98.41,141.38Z" transform="translate(1.43 -22.61)"/><path class="cls-6" d="M102.35,142.2l.44,0a.94.94,0,0,0,.26.53.64.64,0,0,0,.44.17.67.67,0,0,0,.52-.22.69.69,0,0,0,.22-.53.69.69,0,0,0-.2-.5.68.68,0,0,0-.5-.19,1,1,0,0,0-.31.05l0-.39h.07a.88.88,0,0,0,.5-.14.51.51,0,0,0,.23-.45.53.53,0,0,0-.17-.4.57.57,0,0,0-.42-.16.6.6,0,0,0-.43.16.9.9,0,0,0-.22.48l-.44-.08a1.16,1.16,0,0,1,.37-.68,1.07,1.07,0,0,1,.71-.24,1.19,1.19,0,0,1,.54.12,1,1,0,0,1,.38.34,1,1,0,0,1,.13.47.72.72,0,0,1-.13.42.75.75,0,0,1-.37.3.82.82,0,0,1,.5.31.88.88,0,0,1,.17.57,1.05,1.05,0,0,1-.34.8,1.22,1.22,0,0,1-.86.32,1.08,1.08,0,0,1-.78-.28A1.07,1.07,0,0,1,102.35,142.2Z" transform="translate(1.43 -22.61)"/><path class="cls-6" d="M105.16,142.21l.46,0a.77.77,0,0,0,.24.51.64.64,0,0,0,.45.17.71.71,0,0,0,.54-.24.92.92,0,0,0,.21-.63.83.83,0,0,0-.21-.6.75.75,0,0,0-.55-.22.8.8,0,0,0-.38.1.73.73,0,0,0-.27.25l-.41,0,.34-1.84h1.78V140h-1.43l-.19,1a1.17,1.17,0,0,1,.68-.22,1.1,1.1,0,0,1,.79.32,1.17,1.17,0,0,1,.32.84,1.31,1.31,0,0,1-.28.84,1.13,1.13,0,0,1-.94.43,1.17,1.17,0,0,1-.8-.27A1.1,1.1,0,0,1,105.16,142.21Z" transform="translate(1.43 -22.61)"/><path class="cls-6" d="M107.91,141.38a3.2,3.2,0,0,1,.13-1,1.28,1.28,0,0,1,.39-.59,1.14,1.14,0,0,1,1.15-.1.9.9,0,0,1,.36.34,1.73,1.73,0,0,1,.22.53,4.23,4.23,0,0,1,0,1.86,1.22,1.22,0,0,1-.38.6,1.1,1.1,0,0,1-1.47-.16A2.41,2.41,0,0,1,107.91,141.38Zm.45,0a2.25,2.25,0,0,0,.21,1.18.6.6,0,0,0,.51.29.62.62,0,0,0,.51-.29,2.38,2.38,0,0,0,.2-1.18,2.34,2.34,0,0,0-.2-1.17.63.63,0,0,0-.52-.29.56.56,0,0,0-.48.26A2.24,2.24,0,0,0,108.36,141.38Z" transform="translate(1.43 -22.61)"/><path class="cls-6" d="M110.72,141.38a3.2,3.2,0,0,1,.13-1,1.28,1.28,0,0,1,.39-.59,1.14,1.14,0,0,1,1.15-.1.9.9,0,0,1,.36.34,1.51,1.51,0,0,1,.22.53,4.23,4.23,0,0,1,0,1.86,1.22,1.22,0,0,1-.38.6,1.1,1.1,0,0,1-1.47-.16A2.41,2.41,0,0,1,110.72,141.38Zm.45,0a2.25,2.25,0,0,0,.21,1.18.61.61,0,0,0,.51.29.62.62,0,0,0,.51-.29,2.38,2.38,0,0,0,.2-1.18,2.34,2.34,0,0,0-.2-1.17.63.63,0,0,0-.52-.29.56.56,0,0,0-.48.26A2.24,2.24,0,0,0,111.17,141.38Z" transform="translate(1.43 -22.61)"/><rect class="繝後Μ_逋ｽ-2" x="109.15" y="1.48" width="2.83" height="113.39"/><rect class="繝後Μ_逋ｽ-2" x="17.02" y="1.48" width="2.83" height="113.39"/><rect class="邱喟0.5pt-4" x="19.86" y="1.48" width="89.29" height="113.39"/><path class="cls-6" d="M10.23,137.13a3.2,3.2,0,0,1,.13-1,1.31,1.31,0,0,1,.39-.6,1.11,1.11,0,0,1,1.15-.09,1,1,0,0,1,.36.33,1.91,1.91,0,0,1,.22.54,4.23,4.23,0,0,1-.05,1.86,1.22,1.22,0,0,1-.38.6,1,1,0,0,1-.65.21,1,1,0,0,1-.82-.37A2.41,2.41,0,0,1,10.23,137.13Zm.45,0a2.25,2.25,0,0,0,.21,1.18.6.6,0,0,0,.51.29.61.61,0,0,0,.51-.3,3.52,3.52,0,0,0,0-2.34.6.6,0,0,0-.52-.29.56.56,0,0,0-.48.25A2.31,2.31,0,0,0,10.68,137.13Z" transform="translate(1.43 -22.61)"/><path class="cls-6" d="M13.29,138.9v-.5h.5v.5Z" transform="translate(1.43 -22.61)"/><path class="cls-6" d="M14.43,137.13a3.52,3.52,0,0,1,.13-1,1.31,1.31,0,0,1,.39-.6,1,1,0,0,1,.65-.21,1.07,1.07,0,0,1,.51.12,1.13,1.13,0,0,1,.36.33,2.25,2.25,0,0,1,.22.54,3.72,3.72,0,0,1,.08.84,3.2,3.2,0,0,1-.13,1,1.31,1.31,0,0,1-.39.6,1,1,0,0,1-.65.21,1,1,0,0,1-.81-.37A2.33,2.33,0,0,1,14.43,137.13Zm.46,0a2.27,2.27,0,0,0,.2,1.18.62.62,0,0,0,.51.29.61.61,0,0,0,.51-.3,3.36,3.36,0,0,0,0-2.34.6.6,0,0,0-.51-.29.56.56,0,0,0-.49.25A2.33,2.33,0,0,0,14.89,137.13Z" transform="translate(1.43 -22.61)"/><path class="cls-6" d="M8.92,123.41H8.48v-2.8a1.9,1.9,0,0,1-.42.3,2.81,2.81,0,0,1-.46.23v-.43a2.42,2.42,0,0,0,.65-.42,1.76,1.76,0,0,0,.39-.47h.28Z" transform="translate(1.43 -22.61)"/><path class="cls-6" d="M10.08,121.64a3.2,3.2,0,0,1,.13-1,1.14,1.14,0,0,1,.39-.59,1,1,0,0,1,.64-.21.95.95,0,0,1,.87.45,1.73,1.73,0,0,1,.22.53,3.72,3.72,0,0,1,.08.84,3.2,3.2,0,0,1-.13,1,1.23,1.23,0,0,1-.39.6,1.09,1.09,0,0,1-1.46-.16A2.34,2.34,0,0,1,10.08,121.64Zm.45,0a2.38,2.38,0,0,0,.2,1.18.59.59,0,0,0,1,0,2.25,2.25,0,0,0,.21-1.18,2.2,2.2,0,0,0-.21-1.17.62.62,0,0,0-.51-.29.59.59,0,0,0-.49.26A2.26,2.26,0,0,0,10.53,121.64Z" transform="translate(1.43 -22.61)"/><path class="cls-6" d="M13.07,123.41v-.5h.5v.5Z" transform="translate(1.43 -22.61)"/><path class="cls-6" d="M14.22,121.64a3.2,3.2,0,0,1,.13-1,1.28,1.28,0,0,1,.39-.59,1.14,1.14,0,0,1,1.15-.1.9.9,0,0,1,.36.34,1.51,1.51,0,0,1,.22.53,3.16,3.16,0,0,1,.09.84,3.52,3.52,0,0,1-.13,1,1.31,1.31,0,0,1-.39.6,1,1,0,0,1-.65.21,1,1,0,0,1-.81-.37A2.33,2.33,0,0,1,14.22,121.64Zm.45,0a2.25,2.25,0,0,0,.21,1.18.59.59,0,0,0,1,0,2.38,2.38,0,0,0,.2-1.18,2.34,2.34,0,0,0-.2-1.17.63.63,0,0,0-.52-.29.56.56,0,0,0-.48.26A2.24,2.24,0,0,0,14.67,121.64Z" transform="translate(1.43 -22.61)"/><path class="cls-6" d="M9.58,106.79v.42H7.21a.81.81,0,0,1,0-.31,1.58,1.58,0,0,1,.29-.47,3.81,3.81,0,0,1,.57-.54,4.87,4.87,0,0,0,.79-.76.92.92,0,0,0,.21-.53.56.56,0,0,0-.19-.44.67.67,0,0,0-.49-.18.65.65,0,0,0-.5.19.75.75,0,0,0-.2.53l-.45,0a1.12,1.12,0,0,1,.35-.77,1.17,1.17,0,0,1,.81-.27,1.14,1.14,0,0,1,.82.29.94.94,0,0,1,.3.71,1.06,1.06,0,0,1-.09.42,1.66,1.66,0,0,1-.29.44,8.11,8.11,0,0,1-.68.63,6.1,6.1,0,0,0-.5.45,1.33,1.33,0,0,0-.19.24Z" transform="translate(1.43 -22.61)"/><path class="cls-6" d="M10.08,105.44a3.2,3.2,0,0,1,.13-1,1.17,1.17,0,0,1,.39-.6,1,1,0,0,1,.64-.21,1.07,1.07,0,0,1,.51.12,1.13,1.13,0,0,1,.36.33,1.91,1.91,0,0,1,.22.54,3.72,3.72,0,0,1,.08.84,3.2,3.2,0,0,1-.13,1,1.23,1.23,0,0,1-.39.6,1.09,1.09,0,0,1-1.46-.16A2.34,2.34,0,0,1,10.08,105.44Zm.45,0a2.38,2.38,0,0,0,.2,1.18.59.59,0,0,0,1,0,2.25,2.25,0,0,0,.21-1.18,2.18,2.18,0,0,0-.21-1.17.62.62,0,0,0-.51-.29.58.58,0,0,0-.49.25A2.33,2.33,0,0,0,10.53,105.44Z" transform="translate(1.43 -22.61)"/><path class="cls-6" d="M13.07,107.21v-.5h.5v.5Z" transform="translate(1.43 -22.61)"/><path class="cls-6" d="M14.22,105.44a3.2,3.2,0,0,1,.13-1,1.31,1.31,0,0,1,.39-.6,1.11,1.11,0,0,1,1.15-.09,1,1,0,0,1,.36.33,1.65,1.65,0,0,1,.22.54,3.16,3.16,0,0,1,.09.84,3.52,3.52,0,0,1-.13,1,1.31,1.31,0,0,1-.39.6,1,1,0,0,1-.65.21,1,1,0,0,1-.81-.37A2.33,2.33,0,0,1,14.22,105.44Zm.45,0a2.25,2.25,0,0,0,.21,1.18.59.59,0,0,0,1,0,2.38,2.38,0,0,0,.2-1.18,2.31,2.31,0,0,0-.2-1.17.63.63,0,0,0-.52-.29.56.56,0,0,0-.48.25A2.31,2.31,0,0,0,14.67,105.44Z" transform="translate(1.43 -22.61)"/><path class="cls-6" d="M7.27,90.06l.44,0a.92.92,0,0,0,.26.53.62.62,0,0,0,.44.17.69.69,0,0,0,.52-.22A.73.73,0,0,0,9.15,90a.67.67,0,0,0-.71-.69,1.38,1.38,0,0,0-.31,0l0-.38h.07a.89.89,0,0,0,.51-.14A.5.5,0,0,0,9,88.34a.51.51,0,0,0-.16-.4.57.57,0,0,0-.42-.16.59.59,0,0,0-.43.16.83.83,0,0,0-.22.48l-.44-.08a1.16,1.16,0,0,1,.37-.68,1.07,1.07,0,0,1,.71-.24,1.25,1.25,0,0,1,.54.12,1,1,0,0,1,.38.34,1,1,0,0,1,.13.47.8.8,0,0,1-.13.42.81.81,0,0,1-.37.3.88.88,0,0,1,.5.3,1,1,0,0,1,.17.58,1.07,1.07,0,0,1-.34.8,1.24,1.24,0,0,1-.86.32,1.08,1.08,0,0,1-1.14-1Z" transform="translate(1.43 -22.61)"/><path class="cls-6" d="M10.08,89.24a3.2,3.2,0,0,1,.13-1,1.14,1.14,0,0,1,.39-.59,1,1,0,0,1,.64-.21.95.95,0,0,1,.87.45,1.73,1.73,0,0,1,.22.53,3.72,3.72,0,0,1,.08.84,3.2,3.2,0,0,1-.13,1,1.23,1.23,0,0,1-.39.6,1.09,1.09,0,0,1-1.46-.16A2.34,2.34,0,0,1,10.08,89.24Zm.45,0a2.38,2.38,0,0,0,.2,1.18.59.59,0,0,0,1,0A2.25,2.25,0,0,0,12,89.24a2.18,2.18,0,0,0-.21-1.17.62.62,0,0,0-.51-.29.57.57,0,0,0-.49.26A2.26,2.26,0,0,0,10.53,89.24Z" transform="translate(1.43 -22.61)"/><path class="cls-6" d="M13.07,91v-.5h.5V91Z" transform="translate(1.43 -22.61)"/><path class="cls-6" d="M14.22,89.24a3.2,3.2,0,0,1,.13-1,1.28,1.28,0,0,1,.39-.59,1.14,1.14,0,0,1,1.15-.1.9.9,0,0,1,.36.34,1.51,1.51,0,0,1,.22.53,3.16,3.16,0,0,1,.09.84,3.52,3.52,0,0,1-.13,1,1.31,1.31,0,0,1-.39.6,1,1,0,0,1-.65.21,1,1,0,0,1-.81-.37A2.33,2.33,0,0,1,14.22,89.24Zm.45,0a2.25,2.25,0,0,0,.21,1.18.59.59,0,0,0,1,0,2.38,2.38,0,0,0,.2-1.18,2.31,2.31,0,0,0-.2-1.17.63.63,0,0,0-.52-.29.54.54,0,0,0-.48.26A2.24,2.24,0,0,0,14.67,89.24Z" transform="translate(1.43 -22.61)"/><path class="cls-6" d="M8.67,74.81V74H7.12v-.4l1.63-2.32h.36v2.32H9.6V74H9.11v.86Zm0-1.26V71.94L7.55,73.55Z" transform="translate(1.43 -22.61)"/><path class="cls-6" d="M10.08,73a3.2,3.2,0,0,1,.13-1,1.14,1.14,0,0,1,.39-.59,1,1,0,0,1,.64-.21.95.95,0,0,1,.87.45,1.73,1.73,0,0,1,.22.53,3.72,3.72,0,0,1,.08.84,3.2,3.2,0,0,1-.13,1,1.23,1.23,0,0,1-.39.6,1.09,1.09,0,0,1-1.46-.16A2.34,2.34,0,0,1,10.08,73Zm.45,0a2.38,2.38,0,0,0,.2,1.18.59.59,0,0,0,1,0A2.25,2.25,0,0,0,12,73a2.18,2.18,0,0,0-.21-1.17.62.62,0,0,0-.51-.29.57.57,0,0,0-.49.26A2.26,2.26,0,0,0,10.53,73Z" transform="translate(1.43 -22.61)"/><path class="cls-6" d="M13.07,74.81v-.5h.5v.5Z" transform="translate(1.43 -22.61)"/><path class="cls-6" d="M14.22,73a3.2,3.2,0,0,1,.13-1,1.28,1.28,0,0,1,.39-.59,1.14,1.14,0,0,1,1.15-.1.9.9,0,0,1,.36.34,1.51,1.51,0,0,1,.22.53,3.16,3.16,0,0,1,.09.84,3.52,3.52,0,0,1-.13,1,1.31,1.31,0,0,1-.39.6,1,1,0,0,1-.65.21,1,1,0,0,1-.81-.37A2.33,2.33,0,0,1,14.22,73Zm.45,0a2.25,2.25,0,0,0,.21,1.18.59.59,0,0,0,1,0A2.38,2.38,0,0,0,16.1,73a2.31,2.31,0,0,0-.2-1.17.63.63,0,0,0-.52-.29.54.54,0,0,0-.48.26A2.24,2.24,0,0,0,14.67,73Z" transform="translate(1.43 -22.61)"/><path class="cls-6" d="M7.27,57.67l.46,0a.82.82,0,0,0,.24.51.64.64,0,0,0,.45.17A.68.68,0,0,0,9,58.07a.91.91,0,0,0,.22-.64A.8.8,0,0,0,9,56.84a.71.71,0,0,0-.55-.22.76.76,0,0,0-.39.1.63.63,0,0,0-.26.25l-.42-.06.35-1.83H9.47v.42H8l-.19,1a1.16,1.16,0,0,1,.68-.23,1.07,1.07,0,0,1,.79.33,1.13,1.13,0,0,1,.32.83,1.33,1.33,0,0,1-.28.84,1.15,1.15,0,0,1-.94.44,1.12,1.12,0,0,1-.8-.28A1,1,0,0,1,7.27,57.67Z" transform="translate(1.43 -22.61)"/><path class="cls-6" d="M10.08,56.84a3.2,3.2,0,0,1,.13-1,1.17,1.17,0,0,1,.39-.6,1,1,0,0,1,.64-.21,1.07,1.07,0,0,1,.51.12,1,1,0,0,1,.36.33,2,2,0,0,1,.22.53,3.82,3.82,0,0,1,.08.85,3.2,3.2,0,0,1-.13,1,1.2,1.2,0,0,1-.39.59.93.93,0,0,1-.65.22,1,1,0,0,1-.81-.37A2.36,2.36,0,0,1,10.08,56.84Zm.45,0a2.31,2.31,0,0,0,.2,1.17.58.58,0,0,0,1,0,3.36,3.36,0,0,0,0-2.34.6.6,0,0,0-.51-.29.58.58,0,0,0-.49.25A2.3,2.3,0,0,0,10.53,56.84Z" transform="translate(1.43 -22.61)"/><path class="cls-6" d="M13.07,58.61V58.1h.5v.51Z" transform="translate(1.43 -22.61)"/><path class="cls-6" d="M14.22,56.84a3.2,3.2,0,0,1,.13-1,1.31,1.31,0,0,1,.39-.6,1.11,1.11,0,0,1,1.15-.09.88.88,0,0,1,.36.33,1.69,1.69,0,0,1,.22.53,3.24,3.24,0,0,1,.09.85,3.52,3.52,0,0,1-.13,1,1.28,1.28,0,0,1-.39.59,1,1,0,0,1-.65.22,1,1,0,0,1-.81-.37A2.35,2.35,0,0,1,14.22,56.84Zm.45,0A2.18,2.18,0,0,0,14.88,58a.58.58,0,0,0,1,0,3.52,3.52,0,0,0,0-2.34.6.6,0,0,0-.52-.29.56.56,0,0,0-.48.25A2.28,2.28,0,0,0,14.67,56.84Z" transform="translate(1.43 -22.61)"/><path class="cls-6" d="M9.55,39.7l-.44,0a.84.84,0,0,0-.17-.38.6.6,0,0,0-.44-.19.61.61,0,0,0-.37.12,1.07,1.07,0,0,0-.32.44,2.48,2.48,0,0,0-.13.83,1.11,1.11,0,0,1,.39-.36,1,1,0,0,1,.48-.12,1,1,0,0,1,.75.33,1.12,1.12,0,0,1,.31.83,1.33,1.33,0,0,1-.15.63,1.07,1.07,0,0,1-1,.6,1.13,1.13,0,0,1-.9-.41,2,2,0,0,1-.34-1.33,2.38,2.38,0,0,1,.38-1.51,1.1,1.1,0,0,1,.9-.41,1,1,0,0,1,.69.24A1,1,0,0,1,9.55,39.7Zm-1.8,1.55a.94.94,0,0,0,.1.43.71.71,0,0,0,.27.32.66.66,0,0,0,.36.11A.62.62,0,0,0,9,41.88a.9.9,0,0,0,.2-.61.82.82,0,0,0-.2-.58.63.63,0,0,0-.5-.22.66.66,0,0,0-.5.22A.76.76,0,0,0,7.75,41.25Z" transform="translate(1.43 -22.61)"/><path class="cls-6" d="M10.08,40.64a3.2,3.2,0,0,1,.13-1,1.17,1.17,0,0,1,.39-.6,1,1,0,0,1,.64-.21,1.07,1.07,0,0,1,.51.12,1.13,1.13,0,0,1,.36.33,2,2,0,0,1,.22.53,3.82,3.82,0,0,1,.08.85,3.2,3.2,0,0,1-.13,1,1.28,1.28,0,0,1-.39.6,1,1,0,0,1-.65.21,1,1,0,0,1-.81-.37A2.36,2.36,0,0,1,10.08,40.64Zm.45,0a2.31,2.31,0,0,0,.2,1.17.58.58,0,0,0,1,0A2.18,2.18,0,0,0,12,40.64a2.18,2.18,0,0,0-.21-1.17.6.6,0,0,0-.51-.29.58.58,0,0,0-.49.25A2.3,2.3,0,0,0,10.53,40.64Z" transform="translate(1.43 -22.61)"/><path class="cls-6" d="M13.07,42.41v-.5h.5v.5Z" transform="translate(1.43 -22.61)"/><path class="cls-6" d="M14.22,40.64a3.2,3.2,0,0,1,.13-1,1.31,1.31,0,0,1,.39-.6,1.11,1.11,0,0,1,1.15-.09,1,1,0,0,1,.36.33,1.69,1.69,0,0,1,.22.53,3.24,3.24,0,0,1,.09.85,3.52,3.52,0,0,1-.13,1,1.36,1.36,0,0,1-.39.6,1,1,0,0,1-.65.21,1,1,0,0,1-.81-.37A2.35,2.35,0,0,1,14.22,40.64Zm.45,0a2.18,2.18,0,0,0,.21,1.17.58.58,0,0,0,1,0,2.31,2.31,0,0,0,.2-1.17,2.31,2.31,0,0,0-.2-1.17.6.6,0,0,0-.52-.29.56.56,0,0,0-.48.25A2.28,2.28,0,0,0,14.67,40.64Z" transform="translate(1.43 -22.61)"/><path class="cls-6" d="M7.29,23.1v-.43H9.61V23a5.42,5.42,0,0,0-.68,1,6,6,0,0,0-.51,1.24,4.26,4.26,0,0,0-.17,1H7.8a4.4,4.4,0,0,1,.16-1A5.64,5.64,0,0,1,8.42,24a4.2,4.2,0,0,1,.63-.93Z" transform="translate(1.43 -22.61)"/><path class="cls-6" d="M10.08,24.44a3.2,3.2,0,0,1,.13-1,1.17,1.17,0,0,1,.39-.6,1,1,0,0,1,.64-.21,1.07,1.07,0,0,1,.51.12,1.13,1.13,0,0,1,.36.33,2,2,0,0,1,.22.53,3.82,3.82,0,0,1,.08.85,3.2,3.2,0,0,1-.13,1,1.28,1.28,0,0,1-.39.6,1,1,0,0,1-.65.21,1,1,0,0,1-.81-.37A2.36,2.36,0,0,1,10.08,24.44Zm.45,0a2.31,2.31,0,0,0,.2,1.17.58.58,0,0,0,1,0A2.18,2.18,0,0,0,12,24.44a2.18,2.18,0,0,0-.21-1.17.6.6,0,0,0-.51-.29.58.58,0,0,0-.49.25A2.3,2.3,0,0,0,10.53,24.44Z" transform="translate(1.43 -22.61)"/><path class="cls-6" d="M13.07,26.21V25.7h.5v.51Z" transform="translate(1.43 -22.61)"/><path class="cls-6" d="M14.22,24.44a3.2,3.2,0,0,1,.13-1,1.31,1.31,0,0,1,.39-.6,1.11,1.11,0,0,1,1.15-.09,1,1,0,0,1,.36.33,1.69,1.69,0,0,1,.22.53,3.24,3.24,0,0,1,.09.85,3.52,3.52,0,0,1-.13,1,1.36,1.36,0,0,1-.39.6,1,1,0,0,1-.65.21,1,1,0,0,1-.81-.37A2.35,2.35,0,0,1,14.22,24.44Zm.45,0a2.18,2.18,0,0,0,.21,1.17.58.58,0,0,0,1,0,2.31,2.31,0,0,0,.2-1.17,2.31,2.31,0,0,0-.2-1.17.6.6,0,0,0-.52-.29.56.56,0,0,0-.48.25A2.28,2.28,0,0,0,14.67,24.44Z" transform="translate(1.43 -22.61)"/></g><g id="English"><rect class="繝後Μ_逋ｽ-2" x="22.69" y="28.7" width="47.91" height="16.72"/><path class="cls-6" d="M24.47,56.19l.58,0a1.32,1.32,0,0,0,.19.58,1.2,1.2,0,0,0,.47.36,1.81,1.81,0,0,0,.72.13,1.72,1.72,0,0,0,.62-.1.89.89,0,0,0,.4-.29.64.64,0,0,0,.13-.4.58.58,0,0,0-.13-.38.86.86,0,0,0-.41-.27,7.91,7.91,0,0,0-.83-.23,4.09,4.09,0,0,1-.9-.29,1.34,1.34,0,0,1-.5-.43,1.08,1.08,0,0,1-.16-.58,1.12,1.12,0,0,1,.2-.66,1.3,1.3,0,0,1,.58-.47,2.35,2.35,0,0,1,.86-.15,2.38,2.38,0,0,1,.91.16A1.3,1.3,0,0,1,28,54.35l-.59,0a.93.93,0,0,0-.32-.67,1.24,1.24,0,0,0-.81-.22,1.34,1.34,0,0,0-.81.2.63.63,0,0,0-.26.5.54.54,0,0,0,.18.41,2.39,2.39,0,0,0,.93.33,5.44,5.44,0,0,1,1,.3,1.39,1.39,0,0,1,.6.47,1.14,1.14,0,0,1,.19.66,1.25,1.25,0,0,1-.21.7,1.43,1.43,0,0,1-.61.52,2.13,2.13,0,0,1-.9.18,2.5,2.5,0,0,1-1.05-.19,1.4,1.4,0,0,1-.67-.55A1.54,1.54,0,0,1,24.47,56.19Z" transform="translate(1.43 -22.61)"/><path class="cls-6" d="M28.94,57.69V53h.57V54.7a1.28,1.28,0,0,1,1-.46,1.33,1.33,0,0,1,.65.15.84.84,0,0,1,.4.41,1.83,1.83,0,0,1,.12.75v2.14h-.57V55.55a.9.9,0,0,0-.19-.62.69.69,0,0,0-.52-.2,1,1,0,0,0-.48.13.74.74,0,0,0-.32.36,1.7,1.7,0,0,0-.1.62v1.85Z" transform="translate(1.43 -22.61)"/><path class="cls-6" d="M32.34,56a1.72,1.72,0,0,1,.53-1.38,1.57,1.57,0,0,1,1.06-.38,1.48,1.48,0,0,1,1.13.46A1.69,1.69,0,0,1,35.5,56a2.25,2.25,0,0,1-.19,1,1.39,1.39,0,0,1-.57.58,1.62,1.62,0,0,1-.81.2,1.52,1.52,0,0,1-1.15-.45A1.82,1.82,0,0,1,32.34,56Zm.59,0a1.48,1.48,0,0,0,.28,1,.9.9,0,0,0,.72.32.88.88,0,0,0,.7-.32,1.46,1.46,0,0,0,.29-1,1.37,1.37,0,0,0-.29-.94.89.89,0,0,0-.7-.33.93.93,0,0,0-.72.32A1.5,1.5,0,0,0,32.93,56Z" transform="translate(1.43 -22.61)"/><path class="cls-6" d="M36.17,57.69V54.32h.51v.51a1.31,1.31,0,0,1,.36-.47.63.63,0,0,1,.37-.12,1.08,1.08,0,0,1,.59.19l-.2.52a.84.84,0,0,0-.42-.12.55.55,0,0,0-.33.11.68.68,0,0,0-.22.32,2.29,2.29,0,0,0-.09.66v1.77Z" transform="translate(1.43 -22.61)"/><path class="cls-6" d="M39.58,57.18l.09.5a2.47,2.47,0,0,1-.43,0,1,1,0,0,1-.49-.1.58.58,0,0,1-.24-.25,2.32,2.32,0,0,1-.07-.68V54.76H38v-.44h.42v-.84l.57-.34v1.18h.57v.44H39v2a1,1,0,0,0,0,.32.26.26,0,0,0,.1.11.34.34,0,0,0,.19,0Z" transform="translate(1.43 -22.61)"/><path class="cls-6" d="M39.92,56.29v-.57h1.76v.57Z" transform="translate(1.43 -22.61)"/><path class="cls-6" d="M44.49,57.69v-.43a1,1,0,0,1-.94.5,1.31,1.31,0,0,1-.74-.22,1.38,1.38,0,0,1-.52-.62A2,2,0,0,1,42.1,56a2.43,2.43,0,0,1,.17-.92,1.37,1.37,0,0,1,.5-.63,1.35,1.35,0,0,1,.76-.22,1.08,1.08,0,0,1,.54.13,1.27,1.27,0,0,1,.39.33V53H45v4.65ZM42.69,56A1.45,1.45,0,0,0,43,57a.81.81,0,0,0,.65.32.8.8,0,0,0,.63-.3,1.41,1.41,0,0,0,.26-.94,1.61,1.61,0,0,0-.26-1,.82.82,0,0,0-1.3,0A1.57,1.57,0,0,0,42.69,56Z" transform="translate(1.43 -22.61)"/><path class="cls-6" d="M48.13,57.69v-.5a1.23,1.23,0,0,1-1.07.57,1.33,1.33,0,0,1-.56-.11.89.89,0,0,1-.38-.29,1.16,1.16,0,0,1-.18-.42,3.33,3.33,0,0,1,0-.53V54.32h.57v1.87a2.69,2.69,0,0,0,0,.6.56.56,0,0,0,.22.35.7.7,0,0,0,.44.13.91.91,0,0,0,.48-.13.79.79,0,0,0,.32-.36,1.86,1.86,0,0,0,.09-.66v-1.8h.57v3.37Z" transform="translate(1.43 -22.61)"/><path class="cls-6" d="M49.53,57.69V54.32h.52v.51a1.31,1.31,0,0,1,.36-.47.61.61,0,0,1,.37-.12,1,1,0,0,1,.58.19l-.19.52a.84.84,0,0,0-.42-.12.58.58,0,0,0-.34.11.6.6,0,0,0-.21.32,2,2,0,0,0-.1.66v1.77Z" transform="translate(1.43 -22.61)"/><path class="cls-6" d="M53.9,57.27a2,2,0,0,1-.61.38,1.67,1.67,0,0,1-.63.11,1.22,1.22,0,0,1-.85-.27.89.89,0,0,1-.3-.69.94.94,0,0,1,.11-.45.87.87,0,0,1,.3-.33,1.29,1.29,0,0,1,.41-.19,3,3,0,0,1,.51-.08,5.88,5.88,0,0,0,1-.2,1.14,1.14,0,0,0,0-.15.65.65,0,0,0-.16-.49,1,1,0,0,0-.66-.2,1,1,0,0,0-.59.15.83.83,0,0,0-.28.49l-.56-.07a1.34,1.34,0,0,1,.25-.58,1,1,0,0,1,.5-.34,2.26,2.26,0,0,1,.77-.12,2,2,0,0,1,.7.1.93.93,0,0,1,.4.26.87.87,0,0,1,.17.39,2.94,2.94,0,0,1,0,.52v.76a6.8,6.8,0,0,0,0,1,1.25,1.25,0,0,0,.14.41H54A1.29,1.29,0,0,1,53.9,57.27Zm0-1.27a4.35,4.35,0,0,1-.93.21,2.14,2.14,0,0,0-.5.12.49.49,0,0,0-.22.18.43.43,0,0,0-.08.27.49.49,0,0,0,.17.38.71.71,0,0,0,.51.16,1.11,1.11,0,0,0,.58-.15.84.84,0,0,0,.38-.39,1.41,1.41,0,0,0,.09-.57Z" transform="translate(1.43 -22.61)"/><path class="cls-6" d="M56.56,57.18l.09.5a2.47,2.47,0,0,1-.43,0,1,1,0,0,1-.49-.1.58.58,0,0,1-.24-.25,2.32,2.32,0,0,1-.07-.68V54.76H55v-.44h.42v-.84l.57-.34v1.18h.57v.44H56v2a1,1,0,0,0,0,.32.26.26,0,0,0,.1.11.34.34,0,0,0,.19,0Z" transform="translate(1.43 -22.61)"/><path class="cls-6" d="M57.13,53.69V53h.57v.65Zm0,4V54.32h.57v3.37Z" transform="translate(1.43 -22.61)"/><path class="cls-6" d="M58.35,56a1.75,1.75,0,0,1,.52-1.38,1.58,1.58,0,0,1,1.06-.38,1.48,1.48,0,0,1,1.14.46A1.69,1.69,0,0,1,61.51,56a2.25,2.25,0,0,1-.19,1,1.39,1.39,0,0,1-.57.58,1.63,1.63,0,0,1-.82.2,1.51,1.51,0,0,1-1.14-.45A1.82,1.82,0,0,1,58.35,56Zm.59,0a1.48,1.48,0,0,0,.28,1,.9.9,0,0,0,.71.32.88.88,0,0,0,.71-.32,1.46,1.46,0,0,0,.29-1,1.37,1.37,0,0,0-.29-.94.89.89,0,0,0-.71-.33.93.93,0,0,0-.71.32A1.5,1.5,0,0,0,58.94,56Z" transform="translate(1.43 -22.61)"/><path class="cls-6" d="M62.18,57.69V54.32h.52v.48a1.2,1.2,0,0,1,1.07-.56,1.47,1.47,0,0,1,.56.11.82.82,0,0,1,.38.29,1,1,0,0,1,.18.42,3.45,3.45,0,0,1,0,.55v2.08h-.57v-2a1.34,1.34,0,0,0-.07-.52.53.53,0,0,0-.23-.28.77.77,0,0,0-.4-.1A.91.91,0,0,0,63,55a1.13,1.13,0,0,0-.27.88v1.84Z" transform="translate(1.43 -22.61)"/><path class="cls-6" d="M24.6,65.49V62.12h.51v.51a1.43,1.43,0,0,1,.37-.47.6.6,0,0,1,.36-.12,1.06,1.06,0,0,1,.59.19l-.19.52a.84.84,0,0,0-.42-.12.58.58,0,0,0-.34.11.6.6,0,0,0-.21.32,2,2,0,0,0-.1.66v1.77Z" transform="translate(1.43 -22.61)"/><path class="cls-6" d="M29,65.49V65a1.23,1.23,0,0,1-1.07.57,1.33,1.33,0,0,1-.56-.11.89.89,0,0,1-.38-.29,1.16,1.16,0,0,1-.18-.42,3.33,3.33,0,0,1,0-.53V62.12h.57V64a2.69,2.69,0,0,0,0,.6.56.56,0,0,0,.22.35.7.7,0,0,0,.44.13.91.91,0,0,0,.48-.13.79.79,0,0,0,.32-.36,1.86,1.86,0,0,0,.09-.66v-1.8h.57v3.37Z" transform="translate(1.43 -22.61)"/><path class="cls-6" d="M30.39,65.49V62.12h.51v.48A1.22,1.22,0,0,1,32,62a1.43,1.43,0,0,1,.56.11.91.91,0,0,1,.39.29,1.13,1.13,0,0,1,.17.42,3.16,3.16,0,0,1,0,.55v2.08h-.58v-2a1.63,1.63,0,0,0-.06-.52.6.6,0,0,0-.24-.28.72.72,0,0,0-.4-.1.91.91,0,0,0-.63.23,1.17,1.17,0,0,0-.26.88v1.84Z" transform="translate(1.43 -22.61)"/><path class="cls-6" d="M34,65.49V62.12h.52v.48A1.2,1.2,0,0,1,35.59,62a1.47,1.47,0,0,1,.56.11.82.82,0,0,1,.38.29,1,1,0,0,1,.18.42,3.45,3.45,0,0,1,0,.55v2.08h-.57v-2a1.34,1.34,0,0,0-.07-.52.53.53,0,0,0-.23-.28.77.77,0,0,0-.4-.1.88.88,0,0,0-.63.23,1.13,1.13,0,0,0-.27.88v1.84Z" transform="translate(1.43 -22.61)"/><path class="cls-6" d="M37.62,61.49v-.65h.57v.65Zm0,4V62.12h.57v3.37Z" transform="translate(1.43 -22.61)"/><path class="cls-6" d="M39.06,65.49V62.12h.51v.48A1.23,1.23,0,0,1,40.65,62a1.47,1.47,0,0,1,.56.11.82.82,0,0,1,.38.29,1.33,1.33,0,0,1,.18.42,3.45,3.45,0,0,1,0,.55v2.08h-.57v-2a1.34,1.34,0,0,0-.07-.52.5.5,0,0,0-.24-.28.71.71,0,0,0-.39-.1.88.88,0,0,0-.63.23,1.13,1.13,0,0,0-.27.88v1.84Z" transform="translate(1.43 -22.61)"/><path class="cls-6" d="M42.57,65.77l.56.08a.48.48,0,0,0,.19.37.93.93,0,0,0,.58.16,1,1,0,0,0,.61-.16.78.78,0,0,0,.3-.44,3.83,3.83,0,0,0,0-.73,1.19,1.19,0,0,1-.94.44,1.27,1.27,0,0,1-1.07-.5,1.92,1.92,0,0,1-.38-1.21,2.35,2.35,0,0,1,.17-.89,1.46,1.46,0,0,1,.51-.63,1.35,1.35,0,0,1,.78-.22,1.22,1.22,0,0,1,1,.48v-.4h.53V65a2.9,2.9,0,0,1-.16,1.12,1.14,1.14,0,0,1-.51.51,1.74,1.74,0,0,1-.86.2,1.62,1.62,0,0,1-1-.28A.9.9,0,0,1,42.57,65.77Zm.47-2a1.44,1.44,0,0,0,.27,1A.83.83,0,0,0,44,65a.85.85,0,0,0,.66-.3,1.8,1.8,0,0,0,0-1.88.84.84,0,0,0-1.31,0A1.38,1.38,0,0,0,43,63.74Z" transform="translate(1.43 -22.61)"/><path class="cls-6" d="M48.09,65.49V62.12h.51v.51a1.43,1.43,0,0,1,.37-.47.6.6,0,0,1,.36-.12,1.06,1.06,0,0,1,.59.19l-.2.52a.78.78,0,0,0-.41-.12.58.58,0,0,0-.34.11.6.6,0,0,0-.21.32,2,2,0,0,0-.1.66v1.77Z" transform="translate(1.43 -22.61)"/><path class="cls-6" d="M52.46,65.07a2,2,0,0,1-.61.38,1.67,1.67,0,0,1-.63.11,1.2,1.2,0,0,1-.85-.27.89.89,0,0,1-.3-.69.84.84,0,0,1,.11-.45.87.87,0,0,1,.3-.33,1.29,1.29,0,0,1,.41-.19,3.06,3.06,0,0,1,.5-.08,5.83,5.83,0,0,0,1-.2c0-.08,0-.13,0-.15a.62.62,0,0,0-.17-.49.94.94,0,0,0-.65-.2,1,1,0,0,0-.59.15.89.89,0,0,0-.29.49l-.55-.07a1.34,1.34,0,0,1,.25-.58,1,1,0,0,1,.5-.34,2.26,2.26,0,0,1,.77-.12,2,2,0,0,1,.7.1.83.83,0,0,1,.39.26.79.79,0,0,1,.18.39,2.94,2.94,0,0,1,0,.52v.76a6.8,6.8,0,0,0,0,1,1.25,1.25,0,0,0,.14.41h-.6A1.61,1.61,0,0,1,52.46,65.07Zm-.05-1.27a4.51,4.51,0,0,1-.93.21,2,2,0,0,0-.5.12.44.44,0,0,0-.22.18.43.43,0,0,0-.08.27.46.46,0,0,0,.17.38.71.71,0,0,0,.51.16,1.11,1.11,0,0,0,.58-.15.89.89,0,0,0,.38-.39,1.41,1.41,0,0,0,.09-.57Z" transform="translate(1.43 -22.61)"/><path class="cls-6" d="M53.88,65.49V62.12h.51v.48A1.22,1.22,0,0,1,55.46,62a1.43,1.43,0,0,1,.56.11.91.91,0,0,1,.39.29,1.13,1.13,0,0,1,.17.42,3.16,3.16,0,0,1,0,.55v2.08H56v-2a1.63,1.63,0,0,0-.06-.52.6.6,0,0,0-.24-.28.74.74,0,0,0-.4-.1.91.91,0,0,0-.63.23,1.17,1.17,0,0,0-.26.88v1.84Z" transform="translate(1.43 -22.61)"/><path class="cls-6" d="M57.39,65.77l.55.08a.52.52,0,0,0,.2.37.91.91,0,0,0,.58.16,1,1,0,0,0,.61-.16.76.76,0,0,0,.29-.44,3.83,3.83,0,0,0,0-.73,1.18,1.18,0,0,1-.93.44,1.3,1.3,0,0,1-1.08-.5,2,2,0,0,1-.38-1.21,2.18,2.18,0,0,1,.18-.89,1.37,1.37,0,0,1,.5-.63,1.35,1.35,0,0,1,.78-.22,1.22,1.22,0,0,1,1,.48v-.4h.52V65a2.72,2.72,0,0,1-.16,1.12,1.07,1.07,0,0,1-.5.51,1.76,1.76,0,0,1-.86.2,1.65,1.65,0,0,1-1-.28A.92.92,0,0,1,57.39,65.77Zm.47-2a1.5,1.5,0,0,0,.26,1,.85.85,0,0,0,.66.3.84.84,0,0,0,.66-.3,1.77,1.77,0,0,0,0-1.88.88.88,0,0,0-.67-.32.82.82,0,0,0-.64.31A1.38,1.38,0,0,0,57.86,63.74Z" transform="translate(1.43 -22.61)"/><path class="cls-6" d="M63.41,64.4l.59.07a1.42,1.42,0,0,1-.51.81,1.59,1.59,0,0,1-1,.28,1.55,1.55,0,0,1-1.17-.45,1.79,1.79,0,0,1-.43-1.28,1.86,1.86,0,0,1,.43-1.32A1.51,1.51,0,0,1,62.49,62a1.41,1.41,0,0,1,1.1.46A1.82,1.82,0,0,1,64,63.8V64H61.51a1.28,1.28,0,0,0,.31.85.91.91,0,0,0,.7.29.89.89,0,0,0,.54-.16A1.05,1.05,0,0,0,63.41,64.4Zm-1.87-.92h1.88a1.18,1.18,0,0,0-.22-.64.86.86,0,0,0-.7-.33.94.94,0,0,0-.67.26A1.1,1.1,0,0,0,61.54,63.48Z" transform="translate(1.43 -22.61)"/><rect class="繝後Μ_逋ｽ-2" x="23.43" y="91.06" width="41.46" height="16.72"/><path class="cls-6" d="M28.1,118.42l.62.15a2.12,2.12,0,0,1-.7,1.16,2,2,0,0,1-1.23.4,2.14,2.14,0,0,1-1.22-.31,1.84,1.84,0,0,1-.72-.89,3,3,0,0,1-.25-1.24,2.67,2.67,0,0,1,.28-1.27,1.9,1.9,0,0,1,.79-.82,2.28,2.28,0,0,1,1.13-.28,1.79,1.79,0,0,1,1.84,1.35l-.61.14a1.48,1.48,0,0,0-.47-.74,1.26,1.26,0,0,0-.77-.23,1.52,1.52,0,0,0-.9.26,1.37,1.37,0,0,0-.51.69,3,3,0,0,0-.14.89,2.77,2.77,0,0,0,.17,1,1.27,1.27,0,0,0,.54.66,1.45,1.45,0,0,0,.79.22,1.31,1.31,0,0,0,.87-.3A1.49,1.49,0,0,0,28.1,118.42Z" transform="translate(1.43 -22.61)"/><path class="cls-6" d="M29.19,118.36a1.72,1.72,0,0,1,.52-1.38,1.57,1.57,0,0,1,1.06-.38,1.51,1.51,0,0,1,1.14.46,1.74,1.74,0,0,1,.44,1.26,2.22,2.22,0,0,1-.2,1,1.39,1.39,0,0,1-.57.58,1.62,1.62,0,0,1-.81.2,1.51,1.51,0,0,1-1.14-.45A1.78,1.78,0,0,1,29.19,118.36Zm.59,0a1.42,1.42,0,0,0,.28,1,.88.88,0,0,0,.71.32.9.9,0,0,0,.71-.32,1.45,1.45,0,0,0,.28-1,1.37,1.37,0,0,0-.29-.94.87.87,0,0,0-.7-.33.91.91,0,0,0-.71.32A1.44,1.44,0,0,0,29.78,118.36Z" transform="translate(1.43 -22.61)"/><path class="cls-6" d="M33,120.05v-3.37h.51v.48a1.22,1.22,0,0,1,1.07-.56,1.43,1.43,0,0,1,.56.11.91.91,0,0,1,.39.29,1.13,1.13,0,0,1,.17.42,3.21,3.21,0,0,1,0,.56v2.07h-.58v-2a1.63,1.63,0,0,0-.06-.52.6.6,0,0,0-.24-.28.74.74,0,0,0-.4-.1.91.91,0,0,0-.63.23,1.17,1.17,0,0,0-.26.88v1.84Z" transform="translate(1.43 -22.61)"/><path class="cls-6" d="M37.88,119.54l.08.5a2.37,2.37,0,0,1-.43,0,.9.9,0,0,1-.48-.1.48.48,0,0,1-.24-.25,2,2,0,0,1-.07-.68v-1.94h-.42v-.44h.42v-.84l.56-.34v1.18h.58v.44H37.3v2a1,1,0,0,0,0,.32.35.35,0,0,0,.1.11.37.37,0,0,0,.2,0Z" transform="translate(1.43 -22.61)"/><path class="cls-6" d="M38.44,116.05v-.65H39v.65Zm0,4v-3.37H39v3.37Z" transform="translate(1.43 -22.61)"/><path class="cls-6" d="M39.88,120.05v-3.37h.52v.48a1.2,1.2,0,0,1,1.07-.56,1.47,1.47,0,0,1,.56.11.82.82,0,0,1,.38.29,1.14,1.14,0,0,1,.18.42,3.51,3.51,0,0,1,0,.56v2.07h-.57v-2a1.34,1.34,0,0,0-.07-.52.53.53,0,0,0-.23-.28.77.77,0,0,0-.4-.1.88.88,0,0,0-.63.23,1.13,1.13,0,0,0-.27.88v1.84Z" transform="translate(1.43 -22.61)"/><path class="cls-6" d="M45.71,120.05v-.5a1.25,1.25,0,0,1-1.07.57,1.3,1.3,0,0,1-.56-.11.87.87,0,0,1-.56-.71,2.3,2.3,0,0,1,0-.53v-2.09h.57v1.87a3.5,3.5,0,0,0,0,.6.57.57,0,0,0,.23.35.67.67,0,0,0,.43.13.91.91,0,0,0,.48-.13.74.74,0,0,0,.32-.36,1.86,1.86,0,0,0,.09-.66v-1.8h.58v3.37Z" transform="translate(1.43 -22.61)"/><path class="cls-6" d="M46.9,118.36a1.72,1.72,0,0,1,.52-1.38,1.57,1.57,0,0,1,1.06-.38,1.51,1.51,0,0,1,1.14.46,1.74,1.74,0,0,1,.44,1.26,2.22,2.22,0,0,1-.2,1,1.39,1.39,0,0,1-.57.58,1.62,1.62,0,0,1-.81.2,1.51,1.51,0,0,1-1.14-.45A1.78,1.78,0,0,1,46.9,118.36Zm.59,0a1.42,1.42,0,0,0,.28,1,.88.88,0,0,0,.71.32.9.9,0,0,0,.71-.32,1.45,1.45,0,0,0,.28-1,1.37,1.37,0,0,0-.29-.94.87.87,0,0,0-.7-.33.91.91,0,0,0-.71.32A1.44,1.44,0,0,0,47.49,118.36Z" transform="translate(1.43 -22.61)"/><path class="cls-6" d="M52.94,120.05v-.5a1.25,1.25,0,0,1-1.07.57,1.3,1.3,0,0,1-.56-.11.87.87,0,0,1-.56-.71,2.3,2.3,0,0,1,0-.53v-2.09h.57v1.87a3.5,3.5,0,0,0,0,.6.57.57,0,0,0,.23.35.67.67,0,0,0,.43.13.91.91,0,0,0,.48-.13.74.74,0,0,0,.32-.36,1.86,1.86,0,0,0,.09-.66v-1.8h.58v3.37Z" transform="translate(1.43 -22.61)"/><path class="cls-6" d="M54.11,119l.57-.09a.79.79,0,0,0,.26.52.94.94,0,0,0,.61.18.86.86,0,0,0,.58-.16.46.46,0,0,0,.19-.37.36.36,0,0,0-.16-.31,2.83,2.83,0,0,0-.59-.19,6.8,6.8,0,0,1-.87-.27.91.91,0,0,1-.37-.33.84.84,0,0,1-.12-.45.87.87,0,0,1,.1-.42.92.92,0,0,1,.28-.31,1,1,0,0,1,.36-.17,1.63,1.63,0,0,1,.5-.07,1.9,1.9,0,0,1,.7.12.9.9,0,0,1,.44.31,1.13,1.13,0,0,1,.19.52l-.55.07a.61.61,0,0,0-.22-.4.82.82,0,0,0-.52-.15.91.91,0,0,0-.56.13.4.4,0,0,0-.17.31.31.31,0,0,0,.07.2.53.53,0,0,0,.22.15l.5.14a6.75,6.75,0,0,1,.85.27.94.94,0,0,1,.38.3.83.83,0,0,1,.13.49.91.91,0,0,1-.17.54,1.18,1.18,0,0,1-.48.39,1.76,1.76,0,0,1-.71.13,1.61,1.61,0,0,1-1-.27A1.29,1.29,0,0,1,54.11,119Z" transform="translate(1.43 -22.61)"/><path class="cls-6" d="M24.7,127.85v-3.37h.51V125a1.43,1.43,0,0,1,.37-.47.6.6,0,0,1,.36-.12,1.06,1.06,0,0,1,.59.19l-.19.52a.84.84,0,0,0-.42-.12.58.58,0,0,0-.34.11.6.6,0,0,0-.21.32,2,2,0,0,0-.1.66v1.77Z" transform="translate(1.43 -22.61)"/><path class="cls-6" d="M29.08,127.85v-.5a1.23,1.23,0,0,1-1.07.57,1.33,1.33,0,0,1-.56-.11.89.89,0,0,1-.38-.29,1.16,1.16,0,0,1-.18-.42,3.33,3.33,0,0,1,0-.53v-2.09h.57v1.87a2.69,2.69,0,0,0,0,.6.56.56,0,0,0,.22.35.7.7,0,0,0,.44.13.91.91,0,0,0,.48-.13.79.79,0,0,0,.32-.36,1.86,1.86,0,0,0,.09-.66v-1.8h.57v3.37Z" transform="translate(1.43 -22.61)"/><path class="cls-6" d="M30.49,127.85v-3.37H31V125a1.22,1.22,0,0,1,1.07-.56,1.43,1.43,0,0,1,.56.11.91.91,0,0,1,.39.29,1.13,1.13,0,0,1,.17.42,3.21,3.21,0,0,1,0,.56v2.07h-.58v-2a1.63,1.63,0,0,0-.06-.52.6.6,0,0,0-.24-.28.72.72,0,0,0-.4-.1.91.91,0,0,0-.63.23,1.17,1.17,0,0,0-.26.88v1.84Z" transform="translate(1.43 -22.61)"/><path class="cls-6" d="M34.1,127.85v-3.37h.52V125a1.2,1.2,0,0,1,1.07-.56,1.47,1.47,0,0,1,.56.11.82.82,0,0,1,.38.29,1,1,0,0,1,.18.42,3.51,3.51,0,0,1,0,.56v2.07h-.57v-2a1.34,1.34,0,0,0-.07-.52A.53.53,0,0,0,36,125a.77.77,0,0,0-.4-.1.88.88,0,0,0-.63.23,1.13,1.13,0,0,0-.27.88v1.84Z" transform="translate(1.43 -22.61)"/><path class="cls-6" d="M37.72,123.85v-.65h.57v.65Zm0,4v-3.37h.57v3.37Z" transform="translate(1.43 -22.61)"/><path class="cls-6" d="M39.16,127.85v-3.37h.51V125a1.23,1.23,0,0,1,1.08-.56,1.47,1.47,0,0,1,.56.11.82.82,0,0,1,.38.29,1.33,1.33,0,0,1,.18.42,3.51,3.51,0,0,1,0,.56v2.07h-.57v-2a1.34,1.34,0,0,0-.07-.52A.5.5,0,0,0,41,125a.71.71,0,0,0-.39-.1.88.88,0,0,0-.63.23,1.13,1.13,0,0,0-.27.88v1.84Z" transform="translate(1.43 -22.61)"/><path class="cls-6" d="M42.67,128.13l.56.08a.48.48,0,0,0,.19.37.93.93,0,0,0,.58.16,1,1,0,0,0,.61-.16.78.78,0,0,0,.3-.44,3.83,3.83,0,0,0,0-.73,1.19,1.19,0,0,1-.94.44,1.27,1.27,0,0,1-1.07-.5,1.92,1.92,0,0,1-.38-1.21,2.35,2.35,0,0,1,.17-.89,1.46,1.46,0,0,1,.51-.63,1.43,1.43,0,0,1,.78-.22,1.22,1.22,0,0,1,1,.48v-.4h.53v2.91a2.9,2.9,0,0,1-.16,1.12,1.22,1.22,0,0,1-.51.52,1.85,1.85,0,0,1-.86.19,1.61,1.61,0,0,1-1-.27A.93.93,0,0,1,42.67,128.13Zm.47-2a1.44,1.44,0,0,0,.27,1,.83.83,0,0,0,.66.3.85.85,0,0,0,.66-.3,1.8,1.8,0,0,0,0-1.88.84.84,0,0,0-1.31,0A1.38,1.38,0,0,0,43.14,126.1Z" transform="translate(1.43 -22.61)"/><path class="cls-6" d="M48.19,127.85v-3.37h.51V125a1.43,1.43,0,0,1,.37-.47.6.6,0,0,1,.36-.12,1.06,1.06,0,0,1,.59.19l-.2.52a.78.78,0,0,0-.41-.12.58.58,0,0,0-.34.11.6.6,0,0,0-.21.32,2,2,0,0,0-.1.66v1.77Z" transform="translate(1.43 -22.61)"/><path class="cls-6" d="M52.56,127.43a2,2,0,0,1-.61.38,1.67,1.67,0,0,1-.63.11,1.2,1.2,0,0,1-.85-.27.89.89,0,0,1-.3-.69.84.84,0,0,1,.11-.45.94.94,0,0,1,.29-.33A1.46,1.46,0,0,1,51,126a3.06,3.06,0,0,1,.5-.08,5,5,0,0,0,1-.2c0-.08,0-.13,0-.15a.62.62,0,0,0-.17-.49.94.94,0,0,0-.65-.2,1,1,0,0,0-.59.15.89.89,0,0,0-.29.49l-.55-.07a1.34,1.34,0,0,1,.25-.58,1,1,0,0,1,.5-.34,2.26,2.26,0,0,1,.77-.12,2,2,0,0,1,.7.1.92.92,0,0,1,.39.26.79.79,0,0,1,.18.39,2.94,2.94,0,0,1,0,.52v.77a6.72,6.72,0,0,0,0,1,1.25,1.25,0,0,0,.14.41h-.6A1.61,1.61,0,0,1,52.56,127.43Zm-.05-1.27a4.51,4.51,0,0,1-.93.21,2,2,0,0,0-.5.12.44.44,0,0,0-.22.18.43.43,0,0,0-.08.27.46.46,0,0,0,.17.38.71.71,0,0,0,.51.16,1.11,1.11,0,0,0,.58-.15.89.89,0,0,0,.38-.39,1.41,1.41,0,0,0,.09-.57Z" transform="translate(1.43 -22.61)"/><path class="cls-6" d="M54,127.85v-3.37h.51V125a1.22,1.22,0,0,1,1.07-.56,1.43,1.43,0,0,1,.56.11.91.91,0,0,1,.39.29,1.13,1.13,0,0,1,.17.42,3.21,3.21,0,0,1,0,.56v2.07h-.58v-2a1.63,1.63,0,0,0-.06-.52.6.6,0,0,0-.24-.28.74.74,0,0,0-.4-.1.91.91,0,0,0-.63.23,1.17,1.17,0,0,0-.26.88v1.84Z" transform="translate(1.43 -22.61)"/><path class="cls-6" d="M57.49,128.13l.55.08a.52.52,0,0,0,.2.37.91.91,0,0,0,.58.16,1,1,0,0,0,.61-.16.76.76,0,0,0,.29-.44,3.83,3.83,0,0,0,0-.73,1.18,1.18,0,0,1-.93.44,1.3,1.3,0,0,1-1.08-.5,2,2,0,0,1-.38-1.21,2.18,2.18,0,0,1,.18-.89,1.37,1.37,0,0,1,.5-.63,1.43,1.43,0,0,1,.78-.22,1.22,1.22,0,0,1,1,.48v-.4h.52v2.91a2.72,2.72,0,0,1-.16,1.12,1.11,1.11,0,0,1-.51.52,1.81,1.81,0,0,1-.85.19,1.65,1.65,0,0,1-1-.27A1,1,0,0,1,57.49,128.13Zm.47-2a1.5,1.5,0,0,0,.26,1,.85.85,0,0,0,.66.3.84.84,0,0,0,.66-.3,1.77,1.77,0,0,0,0-1.88.88.88,0,0,0-.67-.32.82.82,0,0,0-.64.31A1.38,1.38,0,0,0,58,126.1Z" transform="translate(1.43 -22.61)"/><path class="cls-6" d="M63.51,126.76l.59.08a1.43,1.43,0,0,1-.51.8,1.59,1.59,0,0,1-1,.28,1.55,1.55,0,0,1-1.17-.45,1.77,1.77,0,0,1-.43-1.28,1.86,1.86,0,0,1,.43-1.32,1.51,1.51,0,0,1,1.14-.47,1.45,1.45,0,0,1,1.1.46,1.82,1.82,0,0,1,.43,1.3v.15H61.61a1.28,1.28,0,0,0,.31.85.91.91,0,0,0,.7.29.89.89,0,0,0,.54-.16A1.05,1.05,0,0,0,63.51,126.76Zm-1.87-.92h1.88a1.18,1.18,0,0,0-.22-.64.86.86,0,0,0-.7-.33.94.94,0,0,0-.67.26A1.12,1.12,0,0,0,61.64,125.84Z" transform="translate(1.43 -22.61)"/><path class="cls-6" d="M3.22,98.27H-.88V99.8h-.55V96.11h.55v1.54h4.1Z" transform="translate(1.43 -22.61)"/><path class="cls-6" d="M1.54,95.77a1.73,1.73,0,0,1-1.39-.52,1.56,1.56,0,0,1-.37-1.06,1.53,1.53,0,0,1,.45-1.14,1.74,1.74,0,0,1,1.26-.44,2.22,2.22,0,0,1,1,.2,1.42,1.42,0,0,1,.58.56,1.64,1.64,0,0,1,.21.82,1.48,1.48,0,0,1-.46,1.14A1.79,1.79,0,0,1,1.54,95.77Zm0-.59a1.44,1.44,0,0,0,1-.28.93.93,0,0,0,.32-.71.89.89,0,0,0-.33-.71,1.43,1.43,0,0,0-1-.28,1.4,1.4,0,0,0-.95.28.93.93,0,0,0-.32.71.9.9,0,0,0,.32.71A1.42,1.42,0,0,0,1.54,95.18Z" transform="translate(1.43 -22.61)"/><path class="cls-6" d="M3.22,92H-.15v-.52H.36a1.41,1.41,0,0,1-.47-.36.6.6,0,0,1-.11-.37A1.09,1.09,0,0,1,0,90.12l.53.19a.84.84,0,0,0-.12.42.51.51,0,0,0,.11.34.58.58,0,0,0,.31.21,2.35,2.35,0,0,0,.67.1H3.22Z" transform="translate(1.43 -22.61)"/><path class="cls-6" d="M4.51,87.63H2.86a1,1,0,0,1,.31.37,1,1,0,0,1,.13.51,1.34,1.34,0,0,1-.48,1A1.89,1.89,0,0,1,1.51,90a2.25,2.25,0,0,1-.92-.18A1.4,1.4,0,0,1,0,89.29a1.35,1.35,0,0,1-.2-.74,1.13,1.13,0,0,1,.52-1H-.15v-.51H4.51Zm-3,1.76a1.48,1.48,0,0,0,1-.27.84.84,0,0,0,.33-.66.8.8,0,0,0-.31-.63,1.46,1.46,0,0,0-.94-.26,1.52,1.52,0,0,0-1,.28.8.8,0,0,0-.34.65.78.78,0,0,0,.31.63A1.56,1.56,0,0,0,1.53,89.39Z" transform="translate(1.43 -22.61)"/><path class="cls-6" d="M3.22,84H2.73A1.23,1.23,0,0,1,3.3,85a1.31,1.31,0,0,1-.12.56A.88.88,0,0,1,2.9,86a1,1,0,0,1-.43.18,3.33,3.33,0,0,1-.53,0H-.15V85.6H1.72a3.77,3.77,0,0,0,.6,0,.63.63,0,0,0,.36-.23.75.75,0,0,0,.13-.43.92.92,0,0,0-.14-.48.64.64,0,0,0-.35-.32,1.7,1.7,0,0,0-.66-.1H-.15v-.57H3.22Z" transform="translate(1.43 -22.61)"/><path class="cls-6" d="M2.14,80.24l.07-.59a1.39,1.39,0,0,1,.8.52,1.54,1.54,0,0,1,.29,1,1.52,1.52,0,0,1-.46,1.17,1.77,1.77,0,0,1-1.27.44A1.86,1.86,0,0,1,.25,82.3a1.46,1.46,0,0,1-.47-1.14,1.41,1.41,0,0,1,.46-1.1,1.78,1.78,0,0,1,1.29-.43h.15v2.52a1.27,1.27,0,0,0,.85-.32.92.92,0,0,0,.3-.7.89.89,0,0,0-.17-.54A1.09,1.09,0,0,0,2.14,80.24Zm-.93,1.87V80.23a1.14,1.14,0,0,0-.63.22.85.85,0,0,0-.33.71.89.89,0,0,0,.26.66A1,1,0,0,0,1.21,82.11Z" transform="translate(1.43 -22.61)"/><path class="cls-6" d="M4.51,77.11H-1.43V75.85H-1v.69H4v-.69h.47Z" transform="translate(1.43 -22.61)"/><path class="cls-6" d="M3.22,75.25H-1.43v-.63l3.65-2.44H-1.43v-.59H3.22v.63L-.43,74.66H3.22Z" transform="translate(1.43 -22.61)"/><path class="cls-6" d="M.94,70.71a.74.74,0,0,1-.56-.24.76.76,0,0,1-.24-.56.75.75,0,0,1,.24-.57.74.74,0,0,1,.56-.24.75.75,0,0,1,.57.24.75.75,0,0,1,.24.57.76.76,0,0,1-.24.56A.75.75,0,0,1,.94,70.71Z" transform="translate(1.43 -22.61)"/><path class="cls-6" d="M3.22,68.35H-.15v-.51H.32a1.31,1.31,0,0,1-.39-.42,1.21,1.21,0,0,1-.15-.6,1.16,1.16,0,0,1,.15-.62.84.84,0,0,1,.44-.34,1.18,1.18,0,0,1-.59-1,1,1,0,0,1,.27-.77,1.2,1.2,0,0,1,.86-.27H3.22v.57H1.1a1.42,1.42,0,0,0-.49.06.41.41,0,0,0-.25.2A.64.64,0,0,0,.27,65a.79.79,0,0,0,.24.59,1,1,0,0,0,.75.24h2v.57H1a.92.92,0,0,0-.57.14.51.51,0,0,0-.19.45.81.81,0,0,0,.13.45.74.74,0,0,0,.37.3,2.12,2.12,0,0,0,.7.09H3.22Z" transform="translate(1.43 -22.61)"/><path class="cls-6" d="M4.51,62v1.26H4v-.69H-1v.69h-.47V62Z" transform="translate(1.43 -22.61)"/><path class="cls-6" d="M44.05,150.56l.58-.06a1.32,1.32,0,0,0,.19.58,1,1,0,0,0,.47.36,1.8,1.8,0,0,0,.71.14,1.73,1.73,0,0,0,.63-.11.82.82,0,0,0,.4-.29.63.63,0,0,0,.13-.39.59.59,0,0,0-.13-.39.92.92,0,0,0-.42-.27c-.12,0-.4-.12-.82-.23a4.09,4.09,0,0,1-.9-.29,1.19,1.19,0,0,1-.5-.43,1.06,1.06,0,0,1-.16-.58,1.16,1.16,0,0,1,.2-.66,1.18,1.18,0,0,1,.58-.46,2.15,2.15,0,0,1,.85-.16,2.4,2.4,0,0,1,.92.16,1.4,1.4,0,0,1,.6.49,1.38,1.38,0,0,1,.23.74l-.59,0a1,1,0,0,0-.32-.66,1.24,1.24,0,0,0-.81-.23,1.27,1.27,0,0,0-.81.21.61.61,0,0,0-.26.49A.52.52,0,0,0,45,149a2.39,2.39,0,0,0,.93.33,7.58,7.58,0,0,1,1,.3,1.47,1.47,0,0,1,.6.47,1.19,1.19,0,0,1,.19.67,1.3,1.3,0,0,1-.21.7,1.41,1.41,0,0,1-.61.51,2.19,2.19,0,0,1-.9.18A2.76,2.76,0,0,1,45,152a1.59,1.59,0,0,1-.67-.56A1.56,1.56,0,0,1,44.05,150.56Z" transform="translate(1.43 -22.61)"/><path class="cls-6" d="M48.52,153.34v-4.66H49v.44a1.29,1.29,0,0,1,.42-.39,1.19,1.19,0,0,1,.56-.13,1.31,1.31,0,0,1,.76.23,1.29,1.29,0,0,1,.5.62,2.35,2.35,0,0,1,.17.89,2.18,2.18,0,0,1-.19.93,1.36,1.36,0,0,1-.54.64,1.42,1.42,0,0,1-.74.22,1.07,1.07,0,0,1-.51-.12,1.17,1.17,0,0,1-.38-.31v1.64Zm.52-3a1.52,1.52,0,0,0,.26,1,.84.84,0,0,0,.64.31.82.82,0,0,0,.65-.33,1.94,1.94,0,0,0,0-2,.79.79,0,0,0-1.28,0A1.52,1.52,0,0,0,49,150.38Z" transform="translate(1.43 -22.61)"/><path class="cls-6" d="M54.44,151,55,151a1.43,1.43,0,0,1-.51.8,1.6,1.6,0,0,1-1,.29,1.56,1.56,0,0,1-1.17-.46,1.77,1.77,0,0,1-.43-1.28,1.89,1.89,0,0,1,.43-1.32,1.51,1.51,0,0,1,1.14-.47,1.45,1.45,0,0,1,1.1.46,1.82,1.82,0,0,1,.43,1.3v.15H52.54a1.28,1.28,0,0,0,.31.85.92.92,0,0,0,.7.3.89.89,0,0,0,.54-.17A1,1,0,0,0,54.44,151ZM52.57,150h1.88a1.18,1.18,0,0,0-.22-.64.86.86,0,0,0-.7-.33.9.9,0,0,0-.67.27A1.07,1.07,0,0,0,52.57,150Z" transform="translate(1.43 -22.61)"/><path class="cls-6" d="M58.06,151l.59.08a1.44,1.44,0,0,1-.52.8,1.54,1.54,0,0,1-1,.29,1.57,1.57,0,0,1-1.18-.46,1.82,1.82,0,0,1-.43-1.28,1.9,1.9,0,0,1,.44-1.32,1.49,1.49,0,0,1,1.13-.47,1.47,1.47,0,0,1,1.11.46,1.87,1.87,0,0,1,.43,1.3,1,1,0,0,1,0,.15H56.15a1.29,1.29,0,0,0,.32.85.91.91,0,0,0,.7.3.89.89,0,0,0,.54-.17A1.14,1.14,0,0,0,58.06,151ZM56.18,150h1.88a1.1,1.1,0,0,0-.21-.64.88.88,0,0,0-.71-.33.9.9,0,0,0-.66.27A1,1,0,0,0,56.18,150Z" transform="translate(1.43 -22.61)"/><path class="cls-6" d="M61.55,152.05v-.43a1,1,0,0,1-.94.51,1.3,1.3,0,0,1-.74-.23,1.33,1.33,0,0,1-.52-.62,2,2,0,0,1-.19-.91,2.47,2.47,0,0,1,.17-.92,1.37,1.37,0,0,1,.5-.63,1.43,1.43,0,0,1,.75-.22,1.21,1.21,0,0,1,.55.13,1,1,0,0,1,.38.34V147.4h.57v4.65Zm-1.8-1.68a1.5,1.5,0,0,0,.27,1,.83.83,0,0,0,.64.32.82.82,0,0,0,.64-.31,1.38,1.38,0,0,0,.26-.93,1.64,1.64,0,0,0-.26-1,.81.81,0,0,0-.66-.32.78.78,0,0,0-.64.31A1.52,1.52,0,0,0,59.75,150.37Z" transform="translate(1.43 -22.61)"/><path class="cls-6" d="M64.8,153.34V147.4h1.26v.47h-.69v5h.69v.47Z" transform="translate(1.43 -22.61)"/><path class="cls-6" d="M66.59,152.05v-3.37h.51v.51a1.31,1.31,0,0,1,.36-.47.65.65,0,0,1,.37-.12,1.08,1.08,0,0,1,.59.19l-.2.53a.76.76,0,0,0-.42-.13.52.52,0,0,0-.33.12.65.65,0,0,0-.22.31,2.31,2.31,0,0,0-.09.67v1.76Z" transform="translate(1.43 -22.61)"/><path class="cls-6" d="M68.33,152.13l1.35-4.81h.45l-1.34,4.81Z" transform="translate(1.43 -22.61)"/><path class="cls-6" d="M70.56,152.05v-3.37h.51v.47a1.27,1.27,0,0,1,.43-.4,1.16,1.16,0,0,1,.6-.15,1.13,1.13,0,0,1,.61.16.86.86,0,0,1,.34.43,1.22,1.22,0,0,1,1-.59,1.05,1.05,0,0,1,.77.28,1.2,1.2,0,0,1,.27.86v2.31h-.57v-2.12a1.91,1.91,0,0,0,0-.5.52.52,0,0,0-.2-.24.68.68,0,0,0-.35-.09.81.81,0,0,0-.59.24,1,1,0,0,0-.23.75v2h-.57v-2.19a1,1,0,0,0-.14-.57.54.54,0,0,0-.46-.19.81.81,0,0,0-.45.13.69.69,0,0,0-.29.37,2,2,0,0,0-.1.7v1.75Z" transform="translate(1.43 -22.61)"/><path class="cls-6" d="M76,148.05v-.65h.57v.65Zm0,4v-3.37h.57v3.37Z" transform="translate(1.43 -22.61)"/><path class="cls-6" d="M77.42,152.05v-3.37h.52v.48A1.2,1.2,0,0,1,79,148.6a1.47,1.47,0,0,1,.56.11A.89.89,0,0,1,80,149a1,1,0,0,1,.18.42,3.51,3.51,0,0,1,0,.56v2.07h-.57V150a1.38,1.38,0,0,0-.07-.52.53.53,0,0,0-.23-.28.77.77,0,0,0-.4-.1,1,1,0,0,0-.63.23,1.13,1.13,0,0,0-.27.88v1.84Z" transform="translate(1.43 -22.61)"/><path class="cls-6" d="M82,153.34H80.73v-.47h.69v-5h-.69v-.47H82Z" transform="translate(1.43 -22.61)"/></g></svg>