<svg xmlns="http://www.w3.org/2000/svg" viewBox="0 0 115.57 131.43"><defs><style>.cls-1,.cls-3,.cls-4,.cls-5,.繝医Ν繧ｯ繧ｰ繝ｩ繝廟繧ｰ繝ｬ繝ｼ邱,.邱喟0\.5pt-2{fill:none;}.cls-1,.cls-3,.cls-4,.邱喟0\.5pt-2{stroke:#231815;}.cls-1,.cls-3,.邱喟0\.5pt-2{stroke-miterlimit:10;}.cls-1{stroke-width:0.14px;}.cls-2{fill:#231815;}.cls-3{stroke-width:0.28px;}.cls-5,.繝医Ν繧ｯ繧ｰ繝ｩ繝廟繧ｰ繝ｬ繝ｼ邱{stroke:#9fa0a0;stroke-width:3px;}.cls-5{stroke-linecap:square;}.繝後Μ_逋ｽ{fill:#fff;}.邱喟0\.5pt-2{stroke-width:0.5px;}</style></defs><g id="Illust"><line class="cls-1" x1="42.21" y1="2.18" x2="42.21" y2="115.56"/><line class="cls-1" x1="64.89" y1="2.18" x2="64.89" y2="115.56"/><line class="cls-1" x1="87.57" y1="2.18" x2="87.57" y2="115.56"/><path class="cls-2" d="M17.24,141.38a3.52,3.52,0,0,1,.13-1,1.28,1.28,0,0,1,.39-.59,1.14,1.14,0,0,1,1.15-.1.9.9,0,0,1,.36.34,1.73,1.73,0,0,1,.23.53,3.72,3.72,0,0,1,.08.84,3.52,3.52,0,0,1-.13,1,1.31,1.31,0,0,1-.39.6,1,1,0,0,1-.65.21,1,1,0,0,1-.81-.37A2.33,2.33,0,0,1,17.24,141.38Zm.45,0a2.25,2.25,0,0,0,.21,1.18.59.59,0,0,0,1,0,2.27,2.27,0,0,0,.2-1.18,2.23,2.23,0,0,0-.2-1.17.63.63,0,0,0-.52-.29.56.56,0,0,0-.48.26A2.24,2.24,0,0,0,17.69,141.38Z" transform="translate(1.11 -21.92)"/><path class="cls-2" d="M37.4,143.15H37v-2.8a2.07,2.07,0,0,1-.41.3,3.27,3.27,0,0,1-.46.23v-.43a2.37,2.37,0,0,0,.64-.42,1.76,1.76,0,0,0,.39-.47h.28Z" transform="translate(1.11 -21.92)"/><path class="cls-2" d="M38.53,141.38a3.2,3.2,0,0,1,.13-1,1.28,1.28,0,0,1,.39-.59,1.14,1.14,0,0,1,1.15-.1.9.9,0,0,1,.36.34,1.73,1.73,0,0,1,.22.53,4.23,4.23,0,0,1-.05,1.86,1.22,1.22,0,0,1-.38.6,1.1,1.1,0,0,1-1.47-.16A2.41,2.41,0,0,1,38.53,141.38Zm.45,0a2.25,2.25,0,0,0,.21,1.18.6.6,0,0,0,.51.29.62.62,0,0,0,.51-.29,2.38,2.38,0,0,0,.2-1.18,2.31,2.31,0,0,0-.2-1.17.63.63,0,0,0-.52-.29.54.54,0,0,0-.48.26A2.24,2.24,0,0,0,39,141.38Z" transform="translate(1.11 -21.92)"/><path class="cls-2" d="M41.31,141.38a3.2,3.2,0,0,1,.13-1,1.28,1.28,0,0,1,.39-.59,1.14,1.14,0,0,1,1.15-.1.9.9,0,0,1,.36.34,1.51,1.51,0,0,1,.22.53,4.23,4.23,0,0,1-.05,1.86,1.22,1.22,0,0,1-.38.6,1.1,1.1,0,0,1-1.47-.16A2.41,2.41,0,0,1,41.31,141.38Zm.45,0a2.25,2.25,0,0,0,.21,1.18.59.59,0,0,0,1,0,2.38,2.38,0,0,0,.2-1.18,2.31,2.31,0,0,0-.2-1.17.63.63,0,0,0-.52-.29.54.54,0,0,0-.48.26A2.24,2.24,0,0,0,41.76,141.38Z" transform="translate(1.11 -21.92)"/><path class="cls-2" d="M44.09,141.38a3.2,3.2,0,0,1,.13-1,1.28,1.28,0,0,1,.39-.59,1.14,1.14,0,0,1,1.15-.1.9.9,0,0,1,.36.34,1.51,1.51,0,0,1,.22.53,3.22,3.22,0,0,1,.08.84,3.56,3.56,0,0,1-.12,1,1.31,1.31,0,0,1-.39.6,1.1,1.1,0,0,1-1.47-.16A2.41,2.41,0,0,1,44.09,141.38Zm.45,0a2.25,2.25,0,0,0,.21,1.18.59.59,0,0,0,1,0,2.38,2.38,0,0,0,.2-1.18,2.31,2.31,0,0,0-.2-1.17.63.63,0,0,0-.52-.29.54.54,0,0,0-.48.26A2.24,2.24,0,0,0,44.54,141.38Z" transform="translate(1.11 -21.92)"/><path class="cls-2" d="M60.74,142.73v.42H58.37a.81.81,0,0,1,.05-.31,1.58,1.58,0,0,1,.29-.47,3.49,3.49,0,0,1,.58-.54,5.15,5.15,0,0,0,.78-.76.9.9,0,0,0,.21-.53.58.58,0,0,0-.19-.44.66.66,0,0,0-.49-.18.65.65,0,0,0-.5.19.75.75,0,0,0-.2.53l-.45,0a1.12,1.12,0,0,1,.35-.77,1.16,1.16,0,0,1,.81-.26,1.13,1.13,0,0,1,.82.28.94.94,0,0,1,.3.71,1.06,1.06,0,0,1-.09.42,1.51,1.51,0,0,1-.29.44,8.11,8.11,0,0,1-.68.63,6.1,6.1,0,0,0-.5.45,1.33,1.33,0,0,0-.19.24Z" transform="translate(1.11 -21.92)"/><path class="cls-2" d="M61.21,141.38a3.2,3.2,0,0,1,.13-1,1.14,1.14,0,0,1,.39-.59,1,1,0,0,1,.64-.21,1,1,0,0,1,.51.11,1.06,1.06,0,0,1,.36.34,1.73,1.73,0,0,1,.22.53,3.72,3.72,0,0,1,.08.84,3.2,3.2,0,0,1-.13,1,1.23,1.23,0,0,1-.39.6,1.09,1.09,0,0,1-1.46-.16A2.34,2.34,0,0,1,61.21,141.38Zm.45,0a2.38,2.38,0,0,0,.2,1.18.62.62,0,0,0,.51.29.61.61,0,0,0,.51-.29,2.25,2.25,0,0,0,.21-1.18,2.18,2.18,0,0,0-.21-1.17.62.62,0,0,0-.51-.29.54.54,0,0,0-.48.26A2.15,2.15,0,0,0,61.66,141.38Z" transform="translate(1.11 -21.92)"/><path class="cls-2" d="M64,141.38a3.2,3.2,0,0,1,.13-1,1.14,1.14,0,0,1,.39-.59,1,1,0,0,1,.64-.21,1,1,0,0,1,.51.11A1.06,1.06,0,0,1,66,140a1.73,1.73,0,0,1,.22.53,3.72,3.72,0,0,1,.08.84,3.2,3.2,0,0,1-.13,1,1.22,1.22,0,0,1-.38.6,1,1,0,0,1-.66.21,1,1,0,0,1-.81-.37A2.41,2.41,0,0,1,64,141.38Zm.45,0a2.38,2.38,0,0,0,.2,1.18.62.62,0,0,0,.51.29.6.6,0,0,0,.51-.29,2.25,2.25,0,0,0,.21-1.18,2.18,2.18,0,0,0-.21-1.17.61.61,0,0,0-.51-.29.54.54,0,0,0-.48.26A2.15,2.15,0,0,0,64.44,141.38Z" transform="translate(1.11 -21.92)"/><path class="cls-2" d="M66.77,141.38a3.2,3.2,0,0,1,.13-1,1.28,1.28,0,0,1,.39-.59,1,1,0,0,1,.64-.21,1,1,0,0,1,.51.11,1,1,0,0,1,.36.34,1.73,1.73,0,0,1,.22.53,4.23,4.23,0,0,1,0,1.86,1.22,1.22,0,0,1-.38.6,1,1,0,0,1-.66.21,1,1,0,0,1-.81-.37A2.41,2.41,0,0,1,66.77,141.38Zm.45,0a2.25,2.25,0,0,0,.21,1.18.58.58,0,0,0,1,0,2.25,2.25,0,0,0,.21-1.18,2.18,2.18,0,0,0-.21-1.17.6.6,0,0,0-.51-.29.54.54,0,0,0-.48.26A2.24,2.24,0,0,0,67.22,141.38Z" transform="translate(1.11 -21.92)"/><path class="cls-2" d="M81.1,142.2l.44,0a1,1,0,0,0,.26.53.64.64,0,0,0,.44.17.69.69,0,0,0,.53-.22.72.72,0,0,0,.21-.53.65.65,0,0,0-.2-.5.66.66,0,0,0-.5-.19,1,1,0,0,0-.31.05l0-.39h.07a.89.89,0,0,0,.51-.14.5.5,0,0,0,.22-.45.51.51,0,0,0-.16-.4.57.57,0,0,0-.42-.16.57.57,0,0,0-.43.16.77.77,0,0,0-.22.48l-.44-.08a1,1,0,0,1,1.08-.92,1.18,1.18,0,0,1,.53.12.91.91,0,0,1,.38.34.88.88,0,0,1,.13.47.79.79,0,0,1-.12.42.8.8,0,0,1-.37.3.82.82,0,0,1,.49.3.93.93,0,0,1,.18.58,1.1,1.1,0,0,1-.34.8,1.24,1.24,0,0,1-.87.32,1.12,1.12,0,0,1-.78-.28A1.07,1.07,0,0,1,81.1,142.2Z" transform="translate(1.11 -21.92)"/><path class="cls-2" d="M83.88,141.38a3.52,3.52,0,0,1,.13-1,1.28,1.28,0,0,1,.39-.59,1,1,0,0,1,.65-.21,1.06,1.06,0,0,1,.51.11,1,1,0,0,1,.35.34,1.73,1.73,0,0,1,.23.53,3.72,3.72,0,0,1,.08.84,3.52,3.52,0,0,1-.13,1,1.31,1.31,0,0,1-.39.6,1,1,0,0,1-.65.21,1,1,0,0,1-.81-.37A2.33,2.33,0,0,1,83.88,141.38Zm.45,0a2.25,2.25,0,0,0,.21,1.18.59.59,0,0,0,1,0,2.25,2.25,0,0,0,.21-1.18,2.18,2.18,0,0,0-.21-1.17.62.62,0,0,0-.51-.29.55.55,0,0,0-.49.26A2.24,2.24,0,0,0,84.33,141.38Z" transform="translate(1.11 -21.92)"/><path class="cls-2" d="M86.66,141.38a3.52,3.52,0,0,1,.13-1,1.28,1.28,0,0,1,.39-.59,1,1,0,0,1,.65-.21.95.95,0,0,1,.87.45,2,2,0,0,1,.22.53,3.72,3.72,0,0,1,.08.84,3.52,3.52,0,0,1-.13,1,1.31,1.31,0,0,1-.39.6,1,1,0,0,1-.65.21,1,1,0,0,1-.81-.37A2.33,2.33,0,0,1,86.66,141.38Zm.46,0a2.27,2.27,0,0,0,.2,1.18.59.59,0,0,0,1,0,2.25,2.25,0,0,0,.21-1.18,2.18,2.18,0,0,0-.21-1.17.62.62,0,0,0-.51-.29.55.55,0,0,0-.49.26A2.26,2.26,0,0,0,87.12,141.38Z" transform="translate(1.11 -21.92)"/><path class="cls-2" d="M89.44,141.38a3.17,3.17,0,0,1,.14-1,1.19,1.19,0,0,1,.38-.59,1,1,0,0,1,.65-.21.95.95,0,0,1,.87.45,2,2,0,0,1,.22.53,3.72,3.72,0,0,1,.08.84,3.2,3.2,0,0,1-.13,1,1.31,1.31,0,0,1-.39.6,1,1,0,0,1-.65.21,1,1,0,0,1-.81-.37A2.33,2.33,0,0,1,89.44,141.38Zm.46,0a2.38,2.38,0,0,0,.2,1.18.59.59,0,0,0,1,0,2.25,2.25,0,0,0,.21-1.18,2.18,2.18,0,0,0-.21-1.17.62.62,0,0,0-.51-.29.56.56,0,0,0-.49.26A2.26,2.26,0,0,0,89.9,141.38Z" transform="translate(1.11 -21.92)"/><path class="cls-2" d="M105.19,143.15v-.86h-1.55v-.4l1.63-2.32h.36v2.32h.48v.4h-.48v.86Zm0-1.26v-1.61l-1.12,1.61Z" transform="translate(1.11 -21.92)"/><path class="cls-2" d="M106.56,141.38a3.2,3.2,0,0,1,.13-1,1.28,1.28,0,0,1,.39-.59,1.14,1.14,0,0,1,1.15-.1.9.9,0,0,1,.36.34,1.51,1.51,0,0,1,.22.53,4.23,4.23,0,0,1,0,1.86,1.22,1.22,0,0,1-.38.6,1.1,1.1,0,0,1-1.47-.16A2.41,2.41,0,0,1,106.56,141.38Zm.45,0a2.25,2.25,0,0,0,.21,1.18.59.59,0,0,0,1,0,2.38,2.38,0,0,0,.2-1.18,2.31,2.31,0,0,0-.2-1.17.63.63,0,0,0-.52-.29.54.54,0,0,0-.48.26A2.24,2.24,0,0,0,107,141.38Z" transform="translate(1.11 -21.92)"/><path class="cls-2" d="M109.34,141.38a3.2,3.2,0,0,1,.13-1,1.28,1.28,0,0,1,.39-.59,1.14,1.14,0,0,1,1.15-.1.9.9,0,0,1,.36.34,1.51,1.51,0,0,1,.22.53,3.16,3.16,0,0,1,.09.84,3.52,3.52,0,0,1-.13,1,1.31,1.31,0,0,1-.39.6,1,1,0,0,1-.65.21,1,1,0,0,1-.81-.37A2.33,2.33,0,0,1,109.34,141.38Zm.45,0a2.25,2.25,0,0,0,.21,1.18.59.59,0,0,0,1,0,2.38,2.38,0,0,0,.2-1.18,2.31,2.31,0,0,0-.2-1.17.63.63,0,0,0-.52-.29.54.54,0,0,0-.48.26A2.24,2.24,0,0,0,109.79,141.38Z" transform="translate(1.11 -21.92)"/><path class="cls-2" d="M112.12,141.38a3.52,3.52,0,0,1,.13-1,1.28,1.28,0,0,1,.39-.59,1.14,1.14,0,0,1,1.15-.1.9.9,0,0,1,.36.34,1.73,1.73,0,0,1,.23.53,3.72,3.72,0,0,1,.08.84,3.52,3.52,0,0,1-.13,1,1.31,1.31,0,0,1-.39.6,1,1,0,0,1-.65.21,1,1,0,0,1-.81-.37A2.33,2.33,0,0,1,112.12,141.38Zm.45,0a2.25,2.25,0,0,0,.21,1.18.59.59,0,0,0,1,0,2.27,2.27,0,0,0,.2-1.18,2.2,2.2,0,0,0-.2-1.17.63.63,0,0,0-.52-.29.54.54,0,0,0-.48.26A2.24,2.24,0,0,0,112.57,141.38Z" transform="translate(1.11 -21.92)"/><line class="cls-1" x1="19.53" y1="96.66" x2="110.24" y2="96.66"/><line class="cls-1" x1="19.53" y1="77.77" x2="110.24" y2="77.77"/><line class="cls-1" x1="19.53" y1="58.87" x2="110.24" y2="58.87"/><line class="cls-1" x1="19.53" y1="39.97" x2="110.24" y2="39.97"/><line class="cls-1" x1="19.53" y1="21.07" x2="110.24" y2="21.07"/><line class="cls-3" x1="19.53" y1="96.66" x2="110.24" y2="96.66"/><line class="cls-3" x1="19.53" y1="77.77" x2="110.24" y2="77.77"/><line class="cls-3" x1="19.53" y1="58.87" x2="110.24" y2="58.87"/><line class="cls-3" x1="19.53" y1="39.97" x2="110.24" y2="39.97"/><line class="cls-3" x1="19.53" y1="21.07" x2="110.24" y2="21.07"/><polyline class="繝医Ν繧ｯ繧ｰ繝ｩ繝廟繧ｰ繝ｬ繝ｼ邱" points="19.59 83.95 30.83 83.95 42.18 83.95 53.53 83.95 64.89 83.95 76.24 90.31 87.59 94.66 98.94 97.67 110.17 99.67"/><polyline class="cls-4" points="19.59 83.95 30.83 83.95 42.18 83.95 53.53 83.95 64.89 83.95 76.24 90.31 87.59 94.66 98.94 97.67 110.17 99.67"/><polyline class="cls-5" points="19.59 20.74 64.89 20.74 110.64 59.25"/><polyline class="cls-4" points="19.53 20.9 60.36 20.9 87.53 43.65 110.72 63.11"/><rect class="繝後Μ_逋ｽ" x="110.24" y="2.18" width="2.83" height="113.39"/><rect class="繝後Μ_逋ｽ" x="16.7" y="2.18" width="2.83" height="113.39"/><rect class="邱喟0.5pt-2" x="19.53" y="2.18" width="90.71" height="113.39"/><path class="cls-2" d="M10.26,119.06l.47,0a.81.81,0,0,0,.23.51.71.71,0,0,0,1-.07.89.89,0,0,0,.22-.64.82.82,0,0,0-.21-.59.75.75,0,0,0-.55-.22.87.87,0,0,0-.39.1.69.69,0,0,0-.26.25l-.42,0,.35-1.84h1.78v.42H11l-.19,1a1.14,1.14,0,0,1,.67-.22,1.07,1.07,0,0,1,.8.32,1.17,1.17,0,0,1,.32.84,1.32,1.32,0,0,1-.29.84,1.26,1.26,0,0,1-1.73.16A1.09,1.09,0,0,1,10.26,119.06Z" transform="translate(1.11 -21.92)"/><path class="cls-2" d="M13.29,120v-.5h.5v.5Z" transform="translate(1.11 -21.92)"/><path class="cls-2" d="M14.43,118.23a3.52,3.52,0,0,1,.13-1,1.28,1.28,0,0,1,.39-.59,1,1,0,0,1,.65-.21.95.95,0,0,1,.87.45,2,2,0,0,1,.22.53,3.72,3.72,0,0,1,.08.84,3.2,3.2,0,0,1-.13,1,1.31,1.31,0,0,1-.39.6,1,1,0,0,1-.65.21,1,1,0,0,1-.81-.37A2.33,2.33,0,0,1,14.43,118.23Zm.46,0a2.27,2.27,0,0,0,.2,1.18.59.59,0,0,0,1,0,2.25,2.25,0,0,0,.21-1.18,2.18,2.18,0,0,0-.21-1.17.62.62,0,0,0-.51-.29.55.55,0,0,0-.49.26A2.26,2.26,0,0,0,14.89,118.23Z" transform="translate(1.11 -21.92)"/><path class="cls-2" d="M9.14,101.1H8.7V98.3a2.54,2.54,0,0,1-.42.3,2.18,2.18,0,0,1-.46.23v-.42A3,3,0,0,0,8.47,98a2,2,0,0,0,.39-.48h.28Z" transform="translate(1.11 -21.92)"/><path class="cls-2" d="M10.26,99.34a3.54,3.54,0,0,1,.13-1,1.33,1.33,0,0,1,.39-.59,1,1,0,0,1,.65-.21,1.19,1.19,0,0,1,.51.11,1.06,1.06,0,0,1,.36.34,2,2,0,0,1,.22.53,3.76,3.76,0,0,1,.08.85,3.09,3.09,0,0,1-.13,1,1.31,1.31,0,0,1-.39.6,1,1,0,0,1-.65.21,1,1,0,0,1-.81-.37A2.32,2.32,0,0,1,10.26,99.34Zm.46,0a2.36,2.36,0,0,0,.2,1.17.59.59,0,0,0,1,0,3.39,3.39,0,0,0,0-2.35.62.62,0,0,0-.51-.29.57.57,0,0,0-.49.26A2.3,2.3,0,0,0,10.72,99.34Z" transform="translate(1.11 -21.92)"/><path class="cls-2" d="M13.29,101.1v-.5h.5v.5Z" transform="translate(1.11 -21.92)"/><path class="cls-2" d="M14.43,99.34a3.54,3.54,0,0,1,.13-1,1.33,1.33,0,0,1,.39-.59,1,1,0,0,1,.65-.21,1.19,1.19,0,0,1,.51.11,1.06,1.06,0,0,1,.36.34,2,2,0,0,1,.22.53,3.76,3.76,0,0,1,.08.85,3.09,3.09,0,0,1-.13,1,1.31,1.31,0,0,1-.39.6,1,1,0,0,1-.65.21,1,1,0,0,1-.81-.37A2.32,2.32,0,0,1,14.43,99.34Zm.46,0a2.25,2.25,0,0,0,.2,1.17.59.59,0,0,0,1,0,3.39,3.39,0,0,0,0-2.35.62.62,0,0,0-.51-.29.57.57,0,0,0-.49.26A2.3,2.3,0,0,0,14.89,99.34Z" transform="translate(1.11 -21.92)"/><path class="cls-2" d="M9.14,82.2H8.7V79.4a2.54,2.54,0,0,1-.42.31,2.69,2.69,0,0,1-.46.22v-.42a3,3,0,0,0,.65-.42,1.79,1.79,0,0,0,.39-.48h.28Z" transform="translate(1.11 -21.92)"/><path class="cls-2" d="M10.26,81.27l.47,0a.81.81,0,0,0,.23.5.63.63,0,0,0,.45.17.68.68,0,0,0,.54-.24.88.88,0,0,0,.22-.63.8.8,0,0,0-.21-.59.71.71,0,0,0-.55-.22.76.76,0,0,0-.39.1.63.63,0,0,0-.26.25l-.42-.06.35-1.84h1.78v.42H11l-.19,1a1.15,1.15,0,0,1,.67-.23,1.08,1.08,0,0,1,.8.33,1.13,1.13,0,0,1,.32.83,1.32,1.32,0,0,1-.29.84,1.14,1.14,0,0,1-.94.44,1.15,1.15,0,0,1-.79-.28A1,1,0,0,1,10.26,81.27Z" transform="translate(1.11 -21.92)"/><path class="cls-2" d="M13.29,82.2v-.5h.5v.5Z" transform="translate(1.11 -21.92)"/><path class="cls-2" d="M14.43,80.44a3.52,3.52,0,0,1,.13-1,1.31,1.31,0,0,1,.39-.6,1,1,0,0,1,.65-.21,1.07,1.07,0,0,1,.51.12.94.94,0,0,1,.36.33,2.17,2.17,0,0,1,.22.53,3.76,3.76,0,0,1,.08.85,3.2,3.2,0,0,1-.13,1,1.33,1.33,0,0,1-.39.59,1,1,0,0,1-.65.22,1,1,0,0,1-.81-.38A2.3,2.3,0,0,1,14.43,80.44Zm.46,0a2.2,2.2,0,0,0,.2,1.17.59.59,0,0,0,1,0,2.2,2.2,0,0,0,.21-1.17,2.25,2.25,0,0,0-.21-1.18A.62.62,0,0,0,15.6,79a.57.57,0,0,0-.49.26A2.3,2.3,0,0,0,14.89,80.44Z" transform="translate(1.11 -21.92)"/><path class="cls-2" d="M9.79,62.88v.43H7.43A.65.65,0,0,1,7.48,63a1.58,1.58,0,0,1,.29-.47A4.37,4.37,0,0,1,8.34,62a5.41,5.41,0,0,0,.79-.75.92.92,0,0,0,.21-.53.6.6,0,0,0-.19-.44.67.67,0,0,0-.49-.18.65.65,0,0,0-.5.19.69.69,0,0,0-.2.52l-.45,0A1.1,1.1,0,0,1,7.86,60a1.17,1.17,0,0,1,.81-.27,1.14,1.14,0,0,1,.82.29.93.93,0,0,1,.3.71,1.06,1.06,0,0,1-.09.42,2,2,0,0,1-.29.44,8.11,8.11,0,0,1-.68.63l-.51.45a1.81,1.81,0,0,0-.18.23Z" transform="translate(1.11 -21.92)"/><path class="cls-2" d="M10.26,61.54a3.52,3.52,0,0,1,.13-1,1.31,1.31,0,0,1,.39-.6,1,1,0,0,1,.65-.21,1.07,1.07,0,0,1,.51.12,1.13,1.13,0,0,1,.36.33,2.25,2.25,0,0,1,.22.54,3.66,3.66,0,0,1,.08.84,3.2,3.2,0,0,1-.13,1,1.31,1.31,0,0,1-.39.6,1,1,0,0,1-.65.21,1,1,0,0,1-.81-.37A2.35,2.35,0,0,1,10.26,61.54Zm.46,0a2.31,2.31,0,0,0,.2,1.17.58.58,0,0,0,1,0,3.36,3.36,0,0,0,0-2.34.6.6,0,0,0-.51-.29.56.56,0,0,0-.49.25A2.3,2.3,0,0,0,10.72,61.54Z" transform="translate(1.11 -21.92)"/><path class="cls-2" d="M13.29,63.31v-.5h.5v.5Z" transform="translate(1.11 -21.92)"/><path class="cls-2" d="M14.43,61.54a3.52,3.52,0,0,1,.13-1,1.31,1.31,0,0,1,.39-.6,1,1,0,0,1,.65-.21,1.07,1.07,0,0,1,.51.12,1.13,1.13,0,0,1,.36.33,2.25,2.25,0,0,1,.22.54,3.66,3.66,0,0,1,.08.84,3.2,3.2,0,0,1-.13,1,1.31,1.31,0,0,1-.39.6,1,1,0,0,1-.65.21,1,1,0,0,1-.81-.37A2.35,2.35,0,0,1,14.43,61.54Zm.46,0a2.2,2.2,0,0,0,.2,1.17.58.58,0,0,0,1,0,3.36,3.36,0,0,0,0-2.34.6.6,0,0,0-.51-.29.56.56,0,0,0-.49.25A2.3,2.3,0,0,0,14.89,61.54Z" transform="translate(1.11 -21.92)"/><path class="cls-2" d="M9.79,44v.42H7.43a.65.65,0,0,1,.05-.31,1.58,1.58,0,0,1,.29-.47,3.81,3.81,0,0,1,.57-.54,5.35,5.35,0,0,0,.79-.76.92.92,0,0,0,.21-.53.6.6,0,0,0-.19-.44.67.67,0,0,0-.49-.18.65.65,0,0,0-.5.19.71.71,0,0,0-.2.53l-.45,0a1.12,1.12,0,0,1,.35-.77,1.17,1.17,0,0,1,.81-.27,1.14,1.14,0,0,1,.82.29.94.94,0,0,1,.3.71,1.06,1.06,0,0,1-.09.42,1.75,1.75,0,0,1-.29.44,8.11,8.11,0,0,1-.68.63l-.51.45A1.88,1.88,0,0,0,8,44Z" transform="translate(1.11 -21.92)"/><path class="cls-2" d="M10.26,43.47l.47,0a.81.81,0,0,0,.23.51.71.71,0,0,0,1-.07.89.89,0,0,0,.22-.64.82.82,0,0,0-.21-.59.75.75,0,0,0-.55-.22.87.87,0,0,0-.39.1.69.69,0,0,0-.26.25l-.42-.05.35-1.84h1.78v.42H11l-.19,1a1.14,1.14,0,0,1,.67-.22,1.07,1.07,0,0,1,.8.32,1.15,1.15,0,0,1,.32.84,1.32,1.32,0,0,1-.29.84,1.26,1.26,0,0,1-1.73.16A1.09,1.09,0,0,1,10.26,43.47Z" transform="translate(1.11 -21.92)"/><path class="cls-2" d="M13.29,44.41v-.5h.5v.5Z" transform="translate(1.11 -21.92)"/><path class="cls-2" d="M14.43,42.64a3.52,3.52,0,0,1,.13-1A1.31,1.31,0,0,1,15,41a1,1,0,0,1,.65-.21,1,1,0,0,1,.87.46,2,2,0,0,1,.22.53,3.72,3.72,0,0,1,.08.84,3.2,3.2,0,0,1-.13,1,1.31,1.31,0,0,1-.39.6,1,1,0,0,1-.65.21,1,1,0,0,1-.81-.37A2.33,2.33,0,0,1,14.43,42.64Zm.46,0a2.27,2.27,0,0,0,.2,1.18.59.59,0,0,0,1,0,2.25,2.25,0,0,0,.21-1.18,2.18,2.18,0,0,0-.21-1.17.62.62,0,0,0-.51-.29.56.56,0,0,0-.49.25A2.33,2.33,0,0,0,14.89,42.64Z" transform="translate(1.11 -21.92)"/><path class="cls-2" d="M7.49,24.57l.44-.06a1,1,0,0,0,.25.54.64.64,0,0,0,.45.16A.72.72,0,0,0,9.15,25a.75.75,0,0,0,.21-.54.69.69,0,0,0-.19-.5.7.7,0,0,0-.51-.19,1,1,0,0,0-.31.05l.05-.39h.07A.9.9,0,0,0,9,23.29a.5.5,0,0,0,.22-.45.52.52,0,0,0-.16-.4.57.57,0,0,0-.42-.16.59.59,0,0,0-.43.16.83.83,0,0,0-.22.48l-.44-.07a1.11,1.11,0,0,1,.37-.69,1.05,1.05,0,0,1,.71-.24,1.25,1.25,0,0,1,.54.12.9.9,0,0,1,.37.35.84.84,0,0,1,.13.46.79.79,0,0,1-.12.42.8.8,0,0,1-.37.3.79.79,0,0,1,.49.31.88.88,0,0,1,.18.57,1.05,1.05,0,0,1-.34.8,1.21,1.21,0,0,1-.87.33,1.12,1.12,0,0,1-.78-.29A1.06,1.06,0,0,1,7.49,24.57Z" transform="translate(1.11 -21.92)"/><path class="cls-2" d="M10.26,23.75a3.54,3.54,0,0,1,.13-1,1.33,1.33,0,0,1,.39-.59,1,1,0,0,1,.65-.21,1.19,1.19,0,0,1,.51.11,1.06,1.06,0,0,1,.36.34,2,2,0,0,1,.22.53,3.76,3.76,0,0,1,.08.85,3.09,3.09,0,0,1-.13,1,1.31,1.31,0,0,1-.39.6,1,1,0,0,1-.65.21,1,1,0,0,1-.81-.37A2.32,2.32,0,0,1,10.26,23.75Zm.46,0a2.34,2.34,0,0,0,.2,1.17.59.59,0,0,0,1,0,2.23,2.23,0,0,0,.21-1.17,2.25,2.25,0,0,0-.21-1.18.62.62,0,0,0-.51-.29.57.57,0,0,0-.49.26A2.3,2.3,0,0,0,10.72,23.75Z" transform="translate(1.11 -21.92)"/><path class="cls-2" d="M13.29,25.51V25h.5v.5Z" transform="translate(1.11 -21.92)"/><path class="cls-2" d="M14.43,23.75a3.54,3.54,0,0,1,.13-1,1.33,1.33,0,0,1,.39-.59,1,1,0,0,1,.65-.21,1.19,1.19,0,0,1,.51.11,1.06,1.06,0,0,1,.36.34,2,2,0,0,1,.22.53,3.76,3.76,0,0,1,.08.85,3.09,3.09,0,0,1-.13,1,1.31,1.31,0,0,1-.39.6,1,1,0,0,1-.65.21,1,1,0,0,1-.81-.37A2.32,2.32,0,0,1,14.43,23.75Zm.46,0a2.23,2.23,0,0,0,.2,1.17.59.59,0,0,0,1,0,2.23,2.23,0,0,0,.21-1.17,2.25,2.25,0,0,0-.21-1.18.62.62,0,0,0-.51-.29.57.57,0,0,0-.49.26A2.3,2.3,0,0,0,14.89,23.75Z" transform="translate(1.11 -21.92)"/><path class="cls-2" d="M10.26,137.13a3.52,3.52,0,0,1,.13-1,1.31,1.31,0,0,1,.39-.6,1,1,0,0,1,.65-.21,1.07,1.07,0,0,1,.51.12,1.13,1.13,0,0,1,.36.33,2.25,2.25,0,0,1,.22.54,3.72,3.72,0,0,1,.08.84,3.2,3.2,0,0,1-.13,1,1.31,1.31,0,0,1-.39.6,1,1,0,0,1-.65.21,1,1,0,0,1-.81-.37A2.33,2.33,0,0,1,10.26,137.13Zm.46,0a2.38,2.38,0,0,0,.2,1.18.62.62,0,0,0,.51.29.61.61,0,0,0,.51-.3,3.36,3.36,0,0,0,0-2.34.6.6,0,0,0-.51-.29.56.56,0,0,0-.49.25A2.33,2.33,0,0,0,10.72,137.13Z" transform="translate(1.11 -21.92)"/><path class="cls-2" d="M13.29,138.9v-.5h.5v.5Z" transform="translate(1.11 -21.92)"/><path class="cls-2" d="M14.43,137.13a3.52,3.52,0,0,1,.13-1,1.31,1.31,0,0,1,.39-.6,1,1,0,0,1,.65-.21,1.07,1.07,0,0,1,.51.12,1.13,1.13,0,0,1,.36.33,2.25,2.25,0,0,1,.22.54,3.72,3.72,0,0,1,.08.84,3.2,3.2,0,0,1-.13,1,1.31,1.31,0,0,1-.39.6,1,1,0,0,1-.65.21,1,1,0,0,1-.81-.37A2.33,2.33,0,0,1,14.43,137.13Zm.46,0a2.27,2.27,0,0,0,.2,1.18.62.62,0,0,0,.51.29.61.61,0,0,0,.51-.3,3.36,3.36,0,0,0,0-2.34.6.6,0,0,0-.51-.29.56.56,0,0,0-.49.25A2.33,2.33,0,0,0,14.89,137.13Z" transform="translate(1.11 -21.92)"/></g><g id="English"><rect class="繝後Μ_逋ｽ" x="22.28" y="34.77" width="47.91" height="16.58"/><path class="cls-2" d="M23.45,61.57l.58,0a1.21,1.21,0,0,0,.19.58,1.05,1.05,0,0,0,.47.36,1.8,1.8,0,0,0,.71.14,1.67,1.67,0,0,0,.62-.11.78.78,0,0,0,.4-.29.64.64,0,0,0,.14-.39.65.65,0,0,0-.13-.39,1,1,0,0,0-.42-.27,6.63,6.63,0,0,0-.83-.23,4.09,4.09,0,0,1-.9-.29,1.3,1.3,0,0,1-.49-.43,1.06,1.06,0,0,1-.17-.58,1.19,1.19,0,0,1,.2-.66,1.25,1.25,0,0,1,.59-.46,2.11,2.11,0,0,1,.85-.16,2.31,2.31,0,0,1,.91.16,1.31,1.31,0,0,1,.61.49,1.44,1.44,0,0,1,.23.74l-.59,0a1,1,0,0,0-.32-.67,1.28,1.28,0,0,0-.81-.22,1.35,1.35,0,0,0-.82.2.62.62,0,0,0-.25.5.54.54,0,0,0,.18.41,2.39,2.39,0,0,0,.93.33,5.44,5.44,0,0,1,1,.3,1.39,1.39,0,0,1,.6.47,1.22,1.22,0,0,1,.19.66,1.25,1.25,0,0,1-.21.7,1.49,1.49,0,0,1-.61.52,2.19,2.19,0,0,1-.9.18A2.58,2.58,0,0,1,24.37,63a1.45,1.45,0,0,1-.67-.55A1.53,1.53,0,0,1,23.45,61.57Z" transform="translate(1.11 -21.92)"/><path class="cls-2" d="M27.92,63.07V58.42h.57v1.66a1.3,1.3,0,0,1,1-.46,1.36,1.36,0,0,1,.65.15.86.86,0,0,1,.39.41,1.83,1.83,0,0,1,.12.75v2.14h-.57V60.93a.9.9,0,0,0-.18-.62.71.71,0,0,0-.53-.2.92.92,0,0,0-.48.14.73.73,0,0,0-.32.35,1.73,1.73,0,0,0-.09.62v1.85Z" transform="translate(1.11 -21.92)"/><path class="cls-2" d="M31.32,61.38A1.72,1.72,0,0,1,31.84,60a1.57,1.57,0,0,1,1.06-.38,1.51,1.51,0,0,1,1.14.46,1.74,1.74,0,0,1,.44,1.26,2.22,2.22,0,0,1-.2,1,1.39,1.39,0,0,1-.57.58,1.6,1.6,0,0,1-.81.2,1.51,1.51,0,0,1-1.14-.45A1.82,1.82,0,0,1,31.32,61.38Zm.59,0a1.42,1.42,0,0,0,.28,1,.95.95,0,0,0,1.42,0,1.45,1.45,0,0,0,.28-1,1.37,1.37,0,0,0-.28-.94.91.91,0,0,0-.71-.33.93.93,0,0,0-.71.32A1.44,1.44,0,0,0,31.91,61.38Z" transform="translate(1.11 -21.92)"/><path class="cls-2" d="M35.14,63.07V59.7h.52v.51a1.31,1.31,0,0,1,.36-.47.61.61,0,0,1,.37-.12,1,1,0,0,1,.58.19l-.19.53a.76.76,0,0,0-.42-.13.58.58,0,0,0-.34.11.6.6,0,0,0-.21.32,2,2,0,0,0-.1.66v1.77Z" transform="translate(1.11 -21.92)"/><path class="cls-2" d="M38.56,62.56l.08.5a1.72,1.72,0,0,1-.43,0,.9.9,0,0,1-.48-.1.48.48,0,0,1-.24-.25,2,2,0,0,1-.07-.68V60.14H37V59.7h.42v-.84l.57-.34V59.7h.57v.44H38v2a1.16,1.16,0,0,0,0,.32.52.52,0,0,0,.1.11.37.37,0,0,0,.2,0Z" transform="translate(1.11 -21.92)"/><path class="cls-2" d="M38.9,61.67V61.1h1.75v.57Z" transform="translate(1.11 -21.92)"/><path class="cls-2" d="M43.47,63.07v-.43a1,1,0,0,1-.94.5,1.29,1.29,0,0,1-.74-.22,1.47,1.47,0,0,1-.53-.62,2.17,2.17,0,0,1-.18-.91,2.43,2.43,0,0,1,.16-.92,1.46,1.46,0,0,1,.51-.63,1.3,1.3,0,0,1,.75-.22,1.05,1.05,0,0,1,.54.13,1.27,1.27,0,0,1,.39.33V58.42H44v4.65Zm-1.81-1.68a1.39,1.39,0,0,0,.28,1,.79.79,0,0,0,.64.32.83.83,0,0,0,.64-.3,1.46,1.46,0,0,0,.26-.94,1.54,1.54,0,0,0-.27-1,.8.8,0,0,0-1.29,0A1.51,1.51,0,0,0,41.66,61.39Z" transform="translate(1.11 -21.92)"/><path class="cls-2" d="M47.11,63.07v-.5a1.25,1.25,0,0,1-1.07.57,1.3,1.3,0,0,1-.56-.11.92.92,0,0,1-.56-.71,3.33,3.33,0,0,1,0-.53V59.7h.57v1.87a3.77,3.77,0,0,0,0,.6.57.57,0,0,0,.23.35.69.69,0,0,0,.43.13.91.91,0,0,0,.48-.13.74.74,0,0,0,.32-.36,1.83,1.83,0,0,0,.1-.66V59.7h.57v3.37Z" transform="translate(1.11 -21.92)"/><path class="cls-2" d="M48.51,63.07V59.7H49v.51a1.31,1.31,0,0,1,.36-.47.63.63,0,0,1,.37-.12,1.08,1.08,0,0,1,.59.19l-.2.53a.76.76,0,0,0-.42-.13.55.55,0,0,0-.33.11.62.62,0,0,0-.22.32,2.29,2.29,0,0,0-.09.66v1.77Z" transform="translate(1.11 -21.92)"/><path class="cls-2" d="M52.88,62.65a2.08,2.08,0,0,1-.61.38,1.67,1.67,0,0,1-.63.11,1.25,1.25,0,0,1-.86-.27.89.89,0,0,1-.3-.69,1,1,0,0,1,.41-.78,1.4,1.4,0,0,1,.41-.19,3,3,0,0,1,.51-.08,5.33,5.33,0,0,0,1-.2v-.15a.61.61,0,0,0-.16-.49,1,1,0,0,0-.65-.2,1,1,0,0,0-.6.15.88.88,0,0,0-.28.5l-.56-.08a1.48,1.48,0,0,1,.25-.58,1.12,1.12,0,0,1,.51-.34,2.48,2.48,0,0,1,1.46,0,1,1,0,0,1,.4.26.88.88,0,0,1,.18.39,2.94,2.94,0,0,1,0,.52v.77a9.64,9.64,0,0,0,0,1,1.56,1.56,0,0,0,.15.41H53A1.08,1.08,0,0,1,52.88,62.65Zm-.05-1.27a4.67,4.67,0,0,1-.93.21,1.89,1.89,0,0,0-.5.12.52.52,0,0,0-.23.18.5.5,0,0,0-.08.27.46.46,0,0,0,.18.38.68.68,0,0,0,.5.16,1.15,1.15,0,0,0,.59-.15.89.89,0,0,0,.38-.39,1.41,1.41,0,0,0,.09-.57Z" transform="translate(1.11 -21.92)"/><path class="cls-2" d="M55.54,62.56l.08.5a1.72,1.72,0,0,1-.43,0,.9.9,0,0,1-.48-.1.48.48,0,0,1-.24-.25,2,2,0,0,1-.07-.68V60.14H54V59.7h.42v-.84l.57-.34V59.7h.57v.44H55v2a1.16,1.16,0,0,0,0,.32.35.35,0,0,0,.1.11.37.37,0,0,0,.2,0Z" transform="translate(1.11 -21.92)"/><path class="cls-2" d="M56.1,59.07v-.65h.57v.65Zm0,4V59.7h.57v3.37Z" transform="translate(1.11 -21.92)"/><path class="cls-2" d="M57.33,61.38A1.72,1.72,0,0,1,57.85,60a1.57,1.57,0,0,1,1.06-.38,1.51,1.51,0,0,1,1.14.46,1.74,1.74,0,0,1,.44,1.26,2.22,2.22,0,0,1-.2,1,1.39,1.39,0,0,1-.57.58,1.6,1.6,0,0,1-.81.2,1.51,1.51,0,0,1-1.14-.45A1.78,1.78,0,0,1,57.33,61.38Zm.59,0a1.42,1.42,0,0,0,.28,1,.88.88,0,0,0,.71.32.9.9,0,0,0,.71-.32,1.45,1.45,0,0,0,.28-1,1.37,1.37,0,0,0-.28-.94.94.94,0,0,0-1.42,0A1.44,1.44,0,0,0,57.92,61.38Z" transform="translate(1.11 -21.92)"/><path class="cls-2" d="M61.16,63.07V59.7h.51v.48a1.22,1.22,0,0,1,1.07-.56,1.43,1.43,0,0,1,.56.11.91.91,0,0,1,.39.29,1.13,1.13,0,0,1,.17.42,2.44,2.44,0,0,1,0,.56v2.07h-.58V61a1.67,1.67,0,0,0-.06-.52.6.6,0,0,0-.24-.28.72.72,0,0,0-.4-.1.91.91,0,0,0-.63.23,1.17,1.17,0,0,0-.26.88v1.84Z" transform="translate(1.11 -21.92)"/><path class="cls-2" d="M23.58,70.87V67.5h.51V68a1.31,1.31,0,0,1,.36-.47.63.63,0,0,1,.37-.12,1.08,1.08,0,0,1,.59.19l-.2.53a.76.76,0,0,0-.42-.13.6.6,0,0,0-.34.11.67.67,0,0,0-.21.32,2.29,2.29,0,0,0-.09.66v1.77Z" transform="translate(1.11 -21.92)"/><path class="cls-2" d="M28,70.87v-.5a1.25,1.25,0,0,1-1.07.57,1.3,1.3,0,0,1-.56-.11.92.92,0,0,1-.56-.71,3.07,3.07,0,0,1,0-.53V67.5h.58v1.87a3.86,3.86,0,0,0,0,.6.57.57,0,0,0,.23.35.67.67,0,0,0,.43.13.91.91,0,0,0,.48-.13A.74.74,0,0,0,27.8,70a1.83,1.83,0,0,0,.1-.66V67.5h.57v3.37Z" transform="translate(1.11 -21.92)"/><path class="cls-2" d="M29.36,70.87V67.5h.52V68A1.2,1.2,0,0,1,31,67.42a1.47,1.47,0,0,1,.56.11.82.82,0,0,1,.38.29,1,1,0,0,1,.18.42,3.51,3.51,0,0,1,0,.56v2.07h-.57V68.82a1.34,1.34,0,0,0-.07-.52.53.53,0,0,0-.23-.28.77.77,0,0,0-.4-.1.88.88,0,0,0-.63.23,1.13,1.13,0,0,0-.27.88v1.84Z" transform="translate(1.11 -21.92)"/><path class="cls-2" d="M33,70.87V67.5h.51V68a1.22,1.22,0,0,1,1.07-.56,1.43,1.43,0,0,1,.56.11.91.91,0,0,1,.39.29,1.13,1.13,0,0,1,.17.42,3.21,3.21,0,0,1,0,.56v2.07h-.58V68.82a1.63,1.63,0,0,0-.06-.52.6.6,0,0,0-.24-.28.72.72,0,0,0-.4-.1.91.91,0,0,0-.63.23,1.17,1.17,0,0,0-.26.88v1.84Z" transform="translate(1.11 -21.92)"/><path class="cls-2" d="M36.59,66.87v-.65h.58v.65Zm0,4V67.5h.58v3.37Z" transform="translate(1.11 -21.92)"/><path class="cls-2" d="M38,70.87V67.5h.51V68a1.22,1.22,0,0,1,1.07-.56,1.43,1.43,0,0,1,.56.11.91.91,0,0,1,.39.29,1.13,1.13,0,0,1,.17.42,3.51,3.51,0,0,1,0,.56v2.07H40.2V68.82a1.63,1.63,0,0,0-.06-.52A.6.6,0,0,0,39.9,68a.74.74,0,0,0-.4-.1.91.91,0,0,0-.63.23,1.17,1.17,0,0,0-.26.88v1.84Z" transform="translate(1.11 -21.92)"/><path class="cls-2" d="M41.55,71.15l.55.08a.49.49,0,0,0,.2.37.91.91,0,0,0,.58.16,1,1,0,0,0,.61-.16.76.76,0,0,0,.29-.44,3.83,3.83,0,0,0,0-.73,1.18,1.18,0,0,1-.93.44,1.3,1.3,0,0,1-1.08-.5,2,2,0,0,1-.38-1.21,2.21,2.21,0,0,1,.18-.89,1.37,1.37,0,0,1,.5-.63,1.43,1.43,0,0,1,.78-.22,1.22,1.22,0,0,1,1,.48v-.4h.52v2.91a2.72,2.72,0,0,1-.16,1.12,1.11,1.11,0,0,1-.51.52,1.81,1.81,0,0,1-.85.19,1.53,1.53,0,0,1-1-.28A.9.9,0,0,1,41.55,71.15Zm.47-2a1.5,1.5,0,0,0,.26,1,.86.86,0,0,0,.66.31.85.85,0,0,0,.66-.31,1.77,1.77,0,0,0,0-1.88.88.88,0,0,0-.67-.32.82.82,0,0,0-.64.31A1.38,1.38,0,0,0,42,69.12Z" transform="translate(1.11 -21.92)"/><path class="cls-2" d="M47.07,70.87V67.5h.51V68a1.31,1.31,0,0,1,.36-.47.63.63,0,0,1,.37-.12,1.08,1.08,0,0,1,.59.19l-.2.53a.76.76,0,0,0-.42-.13.6.6,0,0,0-.34.11.67.67,0,0,0-.21.32,2.29,2.29,0,0,0-.09.66v1.77Z" transform="translate(1.11 -21.92)"/><path class="cls-2" d="M51.44,70.45a2.12,2.12,0,0,1-.62.38,1.61,1.61,0,0,1-.63.11,1.22,1.22,0,0,1-.85-.27A.89.89,0,0,1,49,70a1,1,0,0,1,.41-.78,1.4,1.4,0,0,1,.41-.19,3,3,0,0,1,.51-.08,5.33,5.33,0,0,0,1-.2v-.15a.61.61,0,0,0-.16-.49,1,1,0,0,0-.65-.2A1,1,0,0,0,50,68a.88.88,0,0,0-.28.5l-.56-.08a1.48,1.48,0,0,1,.25-.58,1.12,1.12,0,0,1,.51-.34,2.48,2.48,0,0,1,1.46,0,1,1,0,0,1,.4.26,1,1,0,0,1,.18.39,2.94,2.94,0,0,1,0,.52v.77a9.64,9.64,0,0,0,0,1,1.27,1.27,0,0,0,.15.41h-.6A1.08,1.08,0,0,1,51.44,70.45Zm0-1.27a4.63,4.63,0,0,1-.94.21,1.9,1.9,0,0,0-.49.12.47.47,0,0,0-.23.18.5.5,0,0,0-.08.27.49.49,0,0,0,.17.38.73.73,0,0,0,.51.16,1.15,1.15,0,0,0,.59-.15A.89.89,0,0,0,51.3,70a1.41,1.41,0,0,0,.09-.57Z" transform="translate(1.11 -21.92)"/><path class="cls-2" d="M52.85,70.87V67.5h.52V68a1.2,1.2,0,0,1,1.07-.56,1.47,1.47,0,0,1,.56.11.82.82,0,0,1,.38.29,1.14,1.14,0,0,1,.18.42,3.51,3.51,0,0,1,0,.56v2.07H55V68.82A1.34,1.34,0,0,0,55,68.3a.53.53,0,0,0-.23-.28.77.77,0,0,0-.4-.1.88.88,0,0,0-.63.23,1.13,1.13,0,0,0-.27.88v1.84Z" transform="translate(1.11 -21.92)"/><path class="cls-2" d="M56.36,71.15l.56.08a.48.48,0,0,0,.19.37.93.93,0,0,0,.58.16,1,1,0,0,0,.61-.16.73.73,0,0,0,.3-.44,3.83,3.83,0,0,0,0-.73,1.19,1.19,0,0,1-.94.44,1.27,1.27,0,0,1-1.07-.5,1.92,1.92,0,0,1-.38-1.21,2.39,2.39,0,0,1,.17-.89,1.46,1.46,0,0,1,.51-.63,1.43,1.43,0,0,1,.78-.22,1.2,1.2,0,0,1,1,.48v-.4h.53v2.91a2.9,2.9,0,0,1-.16,1.12,1.22,1.22,0,0,1-.51.52,1.85,1.85,0,0,1-.86.19,1.55,1.55,0,0,1-1-.28A.9.9,0,0,1,56.36,71.15Zm.47-2a1.44,1.44,0,0,0,.27,1,.83.83,0,0,0,.66.31.86.86,0,0,0,.66-.31,1.8,1.8,0,0,0,0-1.88.84.84,0,0,0-1.31,0A1.38,1.38,0,0,0,56.83,69.12Z" transform="translate(1.11 -21.92)"/><path class="cls-2" d="M62.39,69.78l.59.08a1.44,1.44,0,0,1-.52.8,1.54,1.54,0,0,1-1,.28,1.56,1.56,0,0,1-1.18-.45,1.83,1.83,0,0,1-.43-1.28,1.86,1.86,0,0,1,.44-1.32,1.49,1.49,0,0,1,1.14-.47,1.43,1.43,0,0,1,1.1.46,1.87,1.87,0,0,1,.43,1.3,1,1,0,0,1,0,.15H60.48a1.29,1.29,0,0,0,.32.85.9.9,0,0,0,.7.29.89.89,0,0,0,.54-.16A1.2,1.2,0,0,0,62.39,69.78Zm-1.88-.92h1.88a1.1,1.1,0,0,0-.21-.64.88.88,0,0,0-.71-.33.93.93,0,0,0-.66.26A1.05,1.05,0,0,0,60.51,68.86Z" transform="translate(1.11 -21.92)"/><path class="cls-2" d="M3.54,98.3H-.56v1.53h-.55V96.15h.55v1.54h4.1Z" transform="translate(1.11 -21.92)"/><path class="cls-2" d="M1.86,95.8a1.73,1.73,0,0,1-1.39-.52,1.69,1.69,0,0,1,.08-2.2,1.77,1.77,0,0,1,1.26-.44,2.2,2.2,0,0,1,1,.2,1.33,1.33,0,0,1,.58.57,1.6,1.6,0,0,1,.21.81,1.51,1.51,0,0,1-.45,1.14A1.84,1.84,0,0,1,1.86,95.8Zm0-.59a1.44,1.44,0,0,0,1-.28.91.91,0,0,0,.32-.71.93.93,0,0,0-.32-.71,1.48,1.48,0,0,0-1-.28,1.4,1.4,0,0,0-.95.28.93.93,0,0,0-.32.71.91.91,0,0,0,.32.71A1.42,1.42,0,0,0,1.86,95.21Z" transform="translate(1.11 -21.92)"/><path class="cls-2" d="M3.54,92H.17v-.52H.68a1.41,1.41,0,0,1-.47-.36.59.59,0,0,1-.11-.36,1.12,1.12,0,0,1,.18-.59l.53.19a.84.84,0,0,0-.12.42.51.51,0,0,0,.11.34.58.58,0,0,0,.31.21,2.09,2.09,0,0,0,.67.1H3.54Z" transform="translate(1.11 -21.92)"/><path class="cls-2" d="M4.84,87.66H3.18A1.06,1.06,0,0,1,3.5,88a1.13,1.13,0,0,1,.12.51,1.36,1.36,0,0,1-.48,1A1.93,1.93,0,0,1,1.83,90a2.17,2.17,0,0,1-.91-.18,1.37,1.37,0,0,1-.62-.51,1.43,1.43,0,0,1-.2-.73,1.13,1.13,0,0,1,.52-1H.17v-.51H4.84Zm-3,1.76a1.48,1.48,0,0,0,1-.27.82.82,0,0,0,.33-.66.77.77,0,0,0-.31-.62,1.41,1.41,0,0,0-.94-.27,1.58,1.58,0,0,0-1,.28.82.82,0,0,0-.34.65.78.78,0,0,0,.31.63A1.56,1.56,0,0,0,1.85,89.42Z" transform="translate(1.11 -21.92)"/><path class="cls-2" d="M3.54,84H3.05a1.25,1.25,0,0,1,.57,1.07,1.47,1.47,0,0,1-.11.56.91.91,0,0,1-.72.56,3.07,3.07,0,0,1-.53,0H.17v-.58H2a3.77,3.77,0,0,0,.6,0A.6.6,0,0,0,3,85.37a.75.75,0,0,0,.13-.43A1,1,0,0,0,3,84.46a.74.74,0,0,0-.36-.32A1.83,1.83,0,0,0,2,84H.17v-.57H3.54Z" transform="translate(1.11 -21.92)"/><path class="cls-2" d="M2.46,80.27l.07-.59a1.41,1.41,0,0,1,.8.52,1.74,1.74,0,0,1-.17,2.14,1.81,1.81,0,0,1-1.27.43,1.86,1.86,0,0,1-1.32-.44A1.46,1.46,0,0,1,.1,81.19a1.43,1.43,0,0,1,.46-1.1,1.8,1.8,0,0,1,1.29-.43H2v2.52a1.27,1.27,0,0,0,.85-.32.91.91,0,0,0,.3-.7A.89.89,0,0,0,3,80.62,1.16,1.16,0,0,0,2.46,80.27Zm-.93,1.88V80.26a1.14,1.14,0,0,0-.63.22.88.88,0,0,0-.33.71.89.89,0,0,0,.26.66A1,1,0,0,0,1.53,82.15Z" transform="translate(1.11 -21.92)"/><path class="cls-2" d="M4.84,77.14H-1.11V75.88h.47v.69h5v-.69h.48Z" transform="translate(1.11 -21.92)"/><path class="cls-2" d="M3.54,75.28H-1.11v-.63l3.65-2.44H-1.11v-.59H3.54v.63L-.11,74.69H3.54Z" transform="translate(1.11 -21.92)"/><path class="cls-2" d="M1.26,70.74A.74.74,0,0,1,.7,70.5a.79.79,0,0,1,0-1.13.74.74,0,0,1,.56-.24.75.75,0,0,1,.57.24.79.79,0,0,1,0,1.13A.75.75,0,0,1,1.26,70.74Z" transform="translate(1.11 -21.92)"/><path class="cls-2" d="M3.54,68.38H.17v-.51H.65a1.24,1.24,0,0,1-.4-.42,1.21,1.21,0,0,1-.15-.6,1.16,1.16,0,0,1,.15-.62.81.81,0,0,1,.44-.33,1.21,1.21,0,0,1-.59-1,1.06,1.06,0,0,1,.27-.78,1.2,1.2,0,0,1,.86-.27H3.54v.57H1.42a1.42,1.42,0,0,0-.49.06.49.49,0,0,0-.25.2A.64.64,0,0,0,.59,65a.78.78,0,0,0,.24.59,1,1,0,0,0,.76.24h2v.57H1.35a1,1,0,0,0-.57.14A.54.54,0,0,0,.59,67a.76.76,0,0,0,.13.44.69.69,0,0,0,.37.3,2.12,2.12,0,0,0,.7.09H3.54Z" transform="translate(1.11 -21.92)"/><path class="cls-2" d="M4.84,62v1.26H4.36v-.69h-5v.69h-.47V62Z" transform="translate(1.11 -21.92)"/><rect class="繝後Μ_逋ｽ" x="23.02" y="91.56" width="41.46" height="16.58"/><path class="cls-2" d="M27.31,118.22l.61.15a2.07,2.07,0,0,1-.69,1.16,1.91,1.91,0,0,1-1.23.4,2.18,2.18,0,0,1-1.23-.31,1.9,1.9,0,0,1-.71-.88,3.1,3.1,0,0,1-.25-1.25,2.67,2.67,0,0,1,.28-1.27,1.9,1.9,0,0,1,.79-.82,2.28,2.28,0,0,1,1.13-.28,2,2,0,0,1,1.17.35,1.81,1.81,0,0,1,.66,1l-.6.15a1.46,1.46,0,0,0-.47-.74,1.24,1.24,0,0,0-.78-.23,1.51,1.51,0,0,0-.89.25,1.37,1.37,0,0,0-.51.69,2.74,2.74,0,0,0-.15.9,2.71,2.71,0,0,0,.18,1,1.19,1.19,0,0,0,.54.66,1.45,1.45,0,0,0,.79.22,1.31,1.31,0,0,0,.87-.3A1.52,1.52,0,0,0,27.31,118.22Z" transform="translate(1.11 -21.92)"/><path class="cls-2" d="M28.4,118.16a1.72,1.72,0,0,1,.52-1.38A1.57,1.57,0,0,1,30,116.4a1.51,1.51,0,0,1,1.13.46,1.7,1.7,0,0,1,.44,1.26,2.24,2.24,0,0,1-.19,1,1.39,1.39,0,0,1-.57.58,1.63,1.63,0,0,1-.81.21,1.49,1.49,0,0,1-1.15-.46A1.82,1.82,0,0,1,28.4,118.16Zm.58,0a1.46,1.46,0,0,0,.28,1,.91.91,0,0,0,.72.33.87.87,0,0,0,.7-.33,1.43,1.43,0,0,0,.29-1,1.38,1.38,0,0,0-.29-1,.88.88,0,0,0-.7-.32.9.9,0,0,0-.72.32A1.45,1.45,0,0,0,29,118.16Z" transform="translate(1.11 -21.92)"/><path class="cls-2" d="M32.22,119.85v-3.37h.52V117a1.21,1.21,0,0,1,1.07-.56,1.47,1.47,0,0,1,.56.11.89.89,0,0,1,.38.29,1,1,0,0,1,.18.42,3.51,3.51,0,0,1,0,.56v2.07h-.57v-2a1.38,1.38,0,0,0-.07-.52.53.53,0,0,0-.23-.28.77.77,0,0,0-.4-.1,1,1,0,0,0-.63.23,1.14,1.14,0,0,0-.27.88v1.84Z" transform="translate(1.11 -21.92)"/><path class="cls-2" d="M37.09,119.34l.08.5a1.78,1.78,0,0,1-.43,0,1.1,1.1,0,0,1-.49-.09.66.66,0,0,1-.24-.26,2.27,2.27,0,0,1-.07-.68v-1.94h-.42v-.44h.42v-.83l.57-.35v1.18h.58v.44h-.58v2a1,1,0,0,0,0,.31.21.21,0,0,0,.1.11.36.36,0,0,0,.19,0Z" transform="translate(1.11 -21.92)"/><path class="cls-2" d="M37.65,115.85v-.65h.57v.65Zm0,4v-3.37h.57v3.37Z" transform="translate(1.11 -21.92)"/><path class="cls-2" d="M39.09,119.85v-3.37h.51V117a1.23,1.23,0,0,1,1.08-.56,1.47,1.47,0,0,1,.56.11,1,1,0,0,1,.38.29,1.33,1.33,0,0,1,.18.42,3.51,3.51,0,0,1,0,.56v2.07h-.57v-2a1.62,1.62,0,0,0-.07-.52A.5.5,0,0,0,41,117a.72.72,0,0,0-.4-.1,1,1,0,0,0-.63.23,1.18,1.18,0,0,0-.26.88v1.84Z" transform="translate(1.11 -21.92)"/><path class="cls-2" d="M44.91,119.85v-.49a1.23,1.23,0,0,1-1.07.57,1.26,1.26,0,0,1-.55-.12.91.91,0,0,1-.39-.28,1.11,1.11,0,0,1-.17-.43,2.3,2.3,0,0,1,0-.53v-2.09h.57v1.87a2.63,2.63,0,0,0,0,.6.58.58,0,0,0,.23.36.73.73,0,0,0,.43.12.91.91,0,0,0,.48-.13.66.66,0,0,0,.32-.36,1.84,1.84,0,0,0,.09-.65v-1.81h.57v3.37Z" transform="translate(1.11 -21.92)"/><path class="cls-2" d="M46.11,118.16a1.72,1.72,0,0,1,.52-1.38,1.57,1.57,0,0,1,1.06-.38,1.51,1.51,0,0,1,1.13.46,1.7,1.7,0,0,1,.44,1.26,2.24,2.24,0,0,1-.19,1,1.39,1.39,0,0,1-.57.58,1.63,1.63,0,0,1-.81.21,1.49,1.49,0,0,1-1.15-.46A1.82,1.82,0,0,1,46.11,118.16Zm.58,0a1.46,1.46,0,0,0,.28,1,.91.91,0,0,0,.72.33.87.87,0,0,0,.7-.33,1.43,1.43,0,0,0,.29-1,1.38,1.38,0,0,0-.29-1,.88.88,0,0,0-.7-.32.9.9,0,0,0-.72.32A1.45,1.45,0,0,0,46.69,118.16Z" transform="translate(1.11 -21.92)"/><path class="cls-2" d="M52.14,119.85v-.49a1.23,1.23,0,0,1-1.07.57,1.26,1.26,0,0,1-.55-.12.91.91,0,0,1-.39-.28,1.11,1.11,0,0,1-.17-.43,2.3,2.3,0,0,1,0-.53v-2.09h.57v1.87a2.63,2.63,0,0,0,0,.6.58.58,0,0,0,.23.36.73.73,0,0,0,.43.12.91.91,0,0,0,.48-.13.66.66,0,0,0,.32-.36,1.84,1.84,0,0,0,.09-.65v-1.81h.57v3.37Z" transform="translate(1.11 -21.92)"/><path class="cls-2" d="M53.32,118.84l.56-.08a.82.82,0,0,0,.27.52,1.13,1.13,0,0,0,1.19,0,.49.49,0,0,0,.19-.38.32.32,0,0,0-.17-.3,2.32,2.32,0,0,0-.58-.2,4.57,4.57,0,0,1-.87-.27.9.9,0,0,1-.37-.32.91.91,0,0,1-.13-.46.84.84,0,0,1,.11-.41.87.87,0,0,1,.28-.32,1.21,1.21,0,0,1,.36-.17,2,2,0,0,1,.5-.07,1.85,1.85,0,0,1,.69.12,1,1,0,0,1,.45.31,1.18,1.18,0,0,1,.19.52l-.56.08a.6.6,0,0,0-.22-.41.78.78,0,0,0-.51-.15,1,1,0,0,0-.56.13.37.37,0,0,0-.17.31.31.31,0,0,0,.07.2.47.47,0,0,0,.22.15l.5.15a6.1,6.1,0,0,1,.85.26.82.82,0,0,1,.51.79,1,1,0,0,1-.17.54,1,1,0,0,1-.48.39,1.76,1.76,0,0,1-.71.14,1.53,1.53,0,0,1-1-.28A1.24,1.24,0,0,1,53.32,118.84Z" transform="translate(1.11 -21.92)"/><path class="cls-2" d="M23.91,127.65v-3.37h.51v.51a1.21,1.21,0,0,1,.37-.47.6.6,0,0,1,.36-.12,1.17,1.17,0,0,1,.59.19l-.2.53a.76.76,0,0,0-.42-.13.52.52,0,0,0-.33.12.65.65,0,0,0-.22.31,2.31,2.31,0,0,0-.09.67v1.76Z" transform="translate(1.11 -21.92)"/><path class="cls-2" d="M28.29,127.65v-.49a1.23,1.23,0,0,1-1.07.57,1.31,1.31,0,0,1-.56-.12.88.88,0,0,1-.38-.28,1,1,0,0,1-.18-.43,3.33,3.33,0,0,1,0-.53v-2.09h.57v1.87a3.77,3.77,0,0,0,0,.6.63.63,0,0,0,.23.36.75.75,0,0,0,.43.12.91.91,0,0,0,.48-.13.63.63,0,0,0,.32-.36,1.61,1.61,0,0,0,.1-.65v-1.81h.57v3.37Z" transform="translate(1.11 -21.92)"/><path class="cls-2" d="M29.69,127.65v-3.37h.52v.48a1.21,1.21,0,0,1,1.07-.56,1.47,1.47,0,0,1,.56.11.89.89,0,0,1,.38.29,1,1,0,0,1,.18.42,3.51,3.51,0,0,1,0,.56v2.07h-.57V125.6a1.38,1.38,0,0,0-.07-.52.53.53,0,0,0-.23-.28.74.74,0,0,0-.4-.1,1,1,0,0,0-.63.23,1.13,1.13,0,0,0-.26.88v1.84Z" transform="translate(1.11 -21.92)"/><path class="cls-2" d="M33.31,127.65v-3.37h.51v.48a1.23,1.23,0,0,1,1.08-.56,1.47,1.47,0,0,1,.56.11,1,1,0,0,1,.38.29A1.33,1.33,0,0,1,36,125a3.51,3.51,0,0,1,0,.56v2.07h-.57V125.6a1.62,1.62,0,0,0-.07-.52.5.5,0,0,0-.24-.28.72.72,0,0,0-.4-.1,1,1,0,0,0-.63.23,1.17,1.17,0,0,0-.26.88v1.84Z" transform="translate(1.11 -21.92)"/><path class="cls-2" d="M36.93,123.65V123h.57v.65Zm0,4v-3.37h.57v3.37Z" transform="translate(1.11 -21.92)"/><path class="cls-2" d="M38.37,127.65v-3.37h.51v.48A1.22,1.22,0,0,1,40,124.2a1.43,1.43,0,0,1,.56.11.93.93,0,0,1,.39.29,1.33,1.33,0,0,1,.18.42,3.51,3.51,0,0,1,0,.56v2.07h-.57V125.6a1.62,1.62,0,0,0-.07-.52.55.55,0,0,0-.24-.28.72.72,0,0,0-.4-.1,1,1,0,0,0-.63.23,1.17,1.17,0,0,0-.26.88v1.84Z" transform="translate(1.11 -21.92)"/><path class="cls-2" d="M41.88,127.93l.55.08a.56.56,0,0,0,.2.38,1,1,0,0,0,.58.16,1.05,1.05,0,0,0,.61-.16.82.82,0,0,0,.29-.45,3.07,3.07,0,0,0,0-.73,1.18,1.18,0,0,1-.93.44,1.3,1.3,0,0,1-1.08-.5,2,2,0,0,1-.38-1.2,2.14,2.14,0,0,1,.18-.89,1.33,1.33,0,0,1,.5-.63,1.4,1.4,0,0,1,.78-.23,1.2,1.2,0,0,1,1,.49v-.41h.52v2.91a2.72,2.72,0,0,1-.16,1.12,1.14,1.14,0,0,1-.5.52,1.76,1.76,0,0,1-.86.19,1.59,1.59,0,0,1-1-.27A.92.92,0,0,1,41.88,127.93Zm.47-2a1.48,1.48,0,0,0,.26,1,.83.83,0,0,0,.66.31.81.81,0,0,0,.66-.31,1.77,1.77,0,0,0,0-1.88.86.86,0,0,0-.66-.31.81.81,0,0,0-.65.31A1.34,1.34,0,0,0,42.35,125.9Z" transform="translate(1.11 -21.92)"/><path class="cls-2" d="M47.4,127.65v-3.37h.51v.51a1.21,1.21,0,0,1,.37-.47.6.6,0,0,1,.36-.12,1.17,1.17,0,0,1,.59.19l-.2.53a.76.76,0,0,0-.42-.13.52.52,0,0,0-.33.12.65.65,0,0,0-.22.31,2.31,2.31,0,0,0-.09.67v1.76Z" transform="translate(1.11 -21.92)"/><path class="cls-2" d="M51.77,127.23a2.38,2.38,0,0,1-.61.39,1.9,1.9,0,0,1-.63.11,1.25,1.25,0,0,1-.86-.27.92.92,0,0,1-.3-.7.89.89,0,0,1,.12-.45.85.85,0,0,1,.29-.33,1.72,1.72,0,0,1,.41-.19,5.08,5.08,0,0,1,.51-.08,5.33,5.33,0,0,0,1-.2v-.15a.63.63,0,0,0-.16-.49,1,1,0,0,0-.65-.19.93.93,0,0,0-.59.14.83.83,0,0,0-.29.5l-.56-.08a1.48,1.48,0,0,1,.25-.58,1.2,1.2,0,0,1,.51-.34,2.2,2.2,0,0,1,.76-.12,1.94,1.94,0,0,1,.7.11.86.86,0,0,1,.4.25.79.79,0,0,1,.18.39,3.08,3.08,0,0,1,0,.53v.76a10,10,0,0,0,0,1,1.49,1.49,0,0,0,.15.4h-.6A1.08,1.08,0,0,1,51.77,127.23ZM51.72,126a4.06,4.06,0,0,1-.93.21,2.6,2.6,0,0,0-.5.12.52.52,0,0,0-.23.18.57.57,0,0,0-.08.28.48.48,0,0,0,.18.38.73.73,0,0,0,.5.15,1.15,1.15,0,0,0,.59-.15.84.84,0,0,0,.38-.39,1.41,1.41,0,0,0,.09-.57Z" transform="translate(1.11 -21.92)"/><path class="cls-2" d="M53.18,127.65v-3.37h.52v.48a1.21,1.21,0,0,1,1.07-.56,1.47,1.47,0,0,1,.56.11.89.89,0,0,1,.38.29,1,1,0,0,1,.18.42,3.51,3.51,0,0,1,0,.56v2.07h-.57V125.6a1.38,1.38,0,0,0-.07-.52.53.53,0,0,0-.23-.28.77.77,0,0,0-.4-.1,1,1,0,0,0-.63.23,1.13,1.13,0,0,0-.27.88v1.84Z" transform="translate(1.11 -21.92)"/><path class="cls-2" d="M56.69,127.93l.56.08a.56.56,0,0,0,.19.38,1,1,0,0,0,.58.16,1.09,1.09,0,0,0,.62-.16.82.82,0,0,0,.29-.45,3.76,3.76,0,0,0,0-.73,1.18,1.18,0,0,1-.93.44,1.28,1.28,0,0,1-1.08-.5,2,2,0,0,1-.38-1.2,2.31,2.31,0,0,1,.17-.89A1.37,1.37,0,0,1,58,124.2a1.19,1.19,0,0,1,1,.49v-.41h.53v2.91a2.72,2.72,0,0,1-.16,1.12,1.22,1.22,0,0,1-.51.52A1.7,1.7,0,0,1,58,129a1.63,1.63,0,0,1-1-.27A.94.94,0,0,1,56.69,127.93Zm.48-2a1.43,1.43,0,0,0,.26,1,.86.86,0,0,0,1.32,0,1.38,1.38,0,0,0,.27-1,1.34,1.34,0,0,0-.28-.93.85.85,0,0,0-1.31,0A1.39,1.39,0,0,0,57.17,125.9Z" transform="translate(1.11 -21.92)"/><path class="cls-2" d="M62.72,126.56l.59.08a1.39,1.39,0,0,1-.52.8,1.72,1.72,0,0,1-2.13-.17,1.77,1.77,0,0,1-.44-1.28,1.9,1.9,0,0,1,.44-1.32,1.49,1.49,0,0,1,1.14-.47,1.45,1.45,0,0,1,1.1.46,1.82,1.82,0,0,1,.43,1.3v.15H60.81a1.29,1.29,0,0,0,.32.85.92.92,0,0,0,.7.3.89.89,0,0,0,.54-.17A1.07,1.07,0,0,0,62.72,126.56Zm-1.87-.92h1.88a1.18,1.18,0,0,0-.22-.64.88.88,0,0,0-.71-.33.9.9,0,0,0-.66.27A1,1,0,0,0,60.85,125.64Z" transform="translate(1.11 -21.92)"/><path class="cls-2" d="M44.74,150.56l.58-.05a1.33,1.33,0,0,0,.2.57,1,1,0,0,0,.46.36,1.68,1.68,0,0,0,.72.14,1.72,1.72,0,0,0,.62-.1.89.89,0,0,0,.4-.29.66.66,0,0,0,.13-.4.62.62,0,0,0-.12-.38,1.06,1.06,0,0,0-.42-.28c-.13,0-.4-.12-.83-.22a4.72,4.72,0,0,1-.9-.29,1.28,1.28,0,0,1-.5-.44,1.12,1.12,0,0,1-.16-.58,1.18,1.18,0,0,1,.2-.65,1.24,1.24,0,0,1,.58-.47,2.2,2.2,0,0,1,.86-.16,2.34,2.34,0,0,1,.91.17,1.3,1.3,0,0,1,.61.49,1.4,1.4,0,0,1,.23.73l-.59,0a.92.92,0,0,0-.33-.67,1.24,1.24,0,0,0-.81-.23,1.27,1.27,0,0,0-.81.21.62.62,0,0,0-.26.49.52.52,0,0,0,.19.42,2.61,2.61,0,0,0,.92.33,6.29,6.29,0,0,1,1,.29,1.48,1.48,0,0,1,.6.48,1.14,1.14,0,0,1,.2.66,1.21,1.21,0,0,1-.22.7,1.34,1.34,0,0,1-.61.51,2.11,2.11,0,0,1-.89.18,2.73,2.73,0,0,1-1.06-.18,1.46,1.46,0,0,1-.67-.55A1.63,1.63,0,0,1,44.74,150.56Z" transform="translate(1.11 -21.92)"/><path class="cls-2" d="M49.22,153.35v-4.67h.52v.44a1.22,1.22,0,0,1,.41-.38,1.1,1.1,0,0,1,.56-.13,1.31,1.31,0,0,1,.76.22,1.37,1.37,0,0,1,.5.63,2.13,2.13,0,0,1,.17.88,2.27,2.27,0,0,1-.18.93,1.49,1.49,0,0,1-.54.64,1.39,1.39,0,0,1-.75.22,1.07,1.07,0,0,1-.51-.12,1.11,1.11,0,0,1-.37-.3v1.64Zm.51-3a1.45,1.45,0,0,0,.27,1,.78.78,0,0,0,.63.31.86.86,0,0,0,.66-.32,1.55,1.55,0,0,0,.27-1,1.45,1.45,0,0,0-.27-1,.77.77,0,0,0-.63-.32.83.83,0,0,0-.65.34A1.54,1.54,0,0,0,49.73,150.39Z" transform="translate(1.11 -21.92)"/><path class="cls-2" d="M55.14,151l.59.07a1.46,1.46,0,0,1-.52.8,1.48,1.48,0,0,1-1,.29,1.53,1.53,0,0,1-1.18-.46,1.75,1.75,0,0,1-.43-1.27,1.86,1.86,0,0,1,.44-1.32,1.58,1.58,0,0,1,2.24,0,1.84,1.84,0,0,1,.43,1.29,1,1,0,0,1,0,.16H53.23a1.34,1.34,0,0,0,.31.85,1,1,0,0,0,.71.29.89.89,0,0,0,.54-.16A1.2,1.2,0,0,0,55.14,151Zm-1.88-.92h1.88a1.08,1.08,0,0,0-.21-.64.88.88,0,0,0-.71-.33.89.89,0,0,0-.66.26A1.05,1.05,0,0,0,53.26,150.05Z" transform="translate(1.11 -21.92)"/><path class="cls-2" d="M58.75,151l.59.07a1.4,1.4,0,0,1-.51.8,1.74,1.74,0,0,1-2.14-.17,1.75,1.75,0,0,1-.44-1.27,1.86,1.86,0,0,1,.44-1.32,1.46,1.46,0,0,1,1.14-.47,1.41,1.41,0,0,1,1.1.46,1.8,1.8,0,0,1,.43,1.29v.16H56.84a1.34,1.34,0,0,0,.32.85,1,1,0,0,0,.7.29.89.89,0,0,0,.54-.16A1.05,1.05,0,0,0,58.75,151Zm-1.87-.92h1.88a1.15,1.15,0,0,0-.22-.64.88.88,0,0,0-.71-.33.89.89,0,0,0-.66.26A1,1,0,0,0,56.88,150.05Z" transform="translate(1.11 -21.92)"/><path class="cls-2" d="M62.25,152.05v-.42a1.07,1.07,0,0,1-1,.5,1.33,1.33,0,0,1-.74-.22,1.51,1.51,0,0,1-.52-.62,2.22,2.22,0,0,1-.19-.92,2.42,2.42,0,0,1,.17-.91,1.24,1.24,0,0,1,.51-.63,1.3,1.3,0,0,1,.75-.22,1.08,1.08,0,0,1,.54.13,1,1,0,0,1,.39.33V147.4h.57v4.65Zm-1.81-1.68a1.48,1.48,0,0,0,.27,1,.85.85,0,0,0,.65.32.78.78,0,0,0,.63-.31,1.36,1.36,0,0,0,.27-.93,1.59,1.59,0,0,0-.27-1,.84.84,0,0,0-.66-.32.78.78,0,0,0-.63.31A1.55,1.55,0,0,0,60.44,150.37Z" transform="translate(1.11 -21.92)"/><path class="cls-2" d="M65.49,153.35V147.4h1.26v.47h-.69v5h.69v.48Z" transform="translate(1.11 -21.92)"/><path class="cls-2" d="M67.28,152.05v-3.37h.51v.51a1.69,1.69,0,0,1,.37-.47.66.66,0,0,1,.36-.11,1.12,1.12,0,0,1,.59.18l-.2.53a.78.78,0,0,0-.41-.12.58.58,0,0,0-.34.11.62.62,0,0,0-.21.31,2.09,2.09,0,0,0-.1.67v1.76Z" transform="translate(1.11 -21.92)"/><path class="cls-2" d="M69,152.13l1.35-4.81h.46l-1.35,4.81Z" transform="translate(1.11 -21.92)"/><path class="cls-2" d="M71.26,152.05v-3.37h.51v.48a1.08,1.08,0,0,1,.42-.4,1.21,1.21,0,0,1,.6-.15,1.13,1.13,0,0,1,.61.15.83.83,0,0,1,.34.44,1.21,1.21,0,0,1,1-.59,1,1,0,0,1,.77.28,1.17,1.17,0,0,1,.27.85v2.31h-.56v-2.12a1.42,1.42,0,0,0-.06-.49.53.53,0,0,0-.2-.25.64.64,0,0,0-.34-.09.78.78,0,0,0-.59.24,1,1,0,0,0-.24.76v2h-.57v-2.19a1,1,0,0,0-.14-.57.55.55,0,0,0-.46-.19.76.76,0,0,0-.44.13.69.69,0,0,0-.3.37,2.15,2.15,0,0,0-.09.71v1.74Z" transform="translate(1.11 -21.92)"/><path class="cls-2" d="M76.68,148.06v-.66h.57v.66Zm0,4v-3.37h.57v3.37Z" transform="translate(1.11 -21.92)"/><path class="cls-2" d="M78.12,152.05v-3.37h.51v.48a1.21,1.21,0,0,1,1.07-.55,1.27,1.27,0,0,1,.56.11,1,1,0,0,1,.39.28,1.11,1.11,0,0,1,.17.43,3.37,3.37,0,0,1,0,.55v2.07h-.57V150a1.72,1.72,0,0,0-.06-.52.57.57,0,0,0-.24-.27.75.75,0,0,0-.4-.11,1,1,0,0,0-.63.23,1.18,1.18,0,0,0-.26.88v1.84Z" transform="translate(1.11 -21.92)"/><path class="cls-2" d="M82.69,153.35H81.43v-.48h.68v-5h-.68v-.47h1.26Z" transform="translate(1.11 -21.92)"/></g></svg>