<svg xmlns="http://www.w3.org/2000/svg" viewBox="0 0 114.48 130.73"><defs><style>.cls-1,.cls-2,.cls-3,.cls-4,.cls-5,.繝医Ν繧ｯ繧ｰ繝ｩ繝廟繧ｰ繝ｬ繝ｼ邱,.邱喟0\.5pt-7{fill:none;}.cls-1,.cls-2,.cls-5,.繝医Ν繧ｯ繧ｰ繝ｩ繝廟繧ｰ繝ｬ繝ｼ邱{stroke:#9fa0a0;}.cls-1,.cls-2,.邱喟0\.5pt-7{stroke-miterlimit:10;}.cls-1,.cls-2{stroke-width:1px;}.cls-2{stroke-dasharray:2.91 1.41;}.cls-3,.cls-4,.邱喟0\.5pt-7{stroke:#231815;}.cls-3{stroke-linejoin:round;stroke-width:0.14px;}.cls-5,.繝医Ν繧ｯ繧ｰ繝ｩ繝廟繧ｰ繝ｬ繝ｼ邱{stroke-width:3px;}.cls-5{stroke-linecap:square;}.cls-6{fill:#231815;}.繝後Μ_逋ｽ-2{fill:#fff;}.邱喟0\.5pt-7{stroke-width:0.5px;}</style></defs><g id="Illust"><line class="cls-1" x1="98.93" y1="97.4" x2="98.93" y2="98.95"/><line class="cls-2" x1="98.93" y1="100.36" x2="98.93" y2="112.61"/><line class="cls-1" x1="98.93" y1="113.32" x2="98.93" y2="114.87"/><line class="cls-3" x1="19.87" y1="98.65" x2="109.14" y2="98.65"/><line class="cls-3" x1="19.87" y1="82.47" x2="109.14" y2="82.47"/><line class="cls-3" x1="19.87" y1="66.28" x2="109.14" y2="66.28"/><line class="cls-3" x1="19.87" y1="50.1" x2="109.14" y2="50.1"/><line class="cls-3" x1="19.87" y1="33.91" x2="109.14" y2="33.91"/><line class="cls-3" x1="19.87" y1="17.72" x2="109.14" y2="17.72"/><line class="cls-3" x1="45.37" y1="1.48" x2="45.37" y2="114.84"/><line class="cls-3" x1="70.88" y1="1.48" x2="70.88" y2="114.84"/><line class="cls-3" x1="96.39" y1="1.48" x2="96.39" y2="114.84"/><polyline class="繝医Ν繧ｯ繧ｰ繝ｩ繝廟繧ｰ繝ｬ繝ｼ邱" points="19.86 87.78 32.61 87.78 45.36 87.78 58.11 87.78 70.89 87.78 83.64 93.23 96.39 96.81 109.14 99.38"/><polyline class="cls-4" points="19.86 87.78 32.61 87.78 45.36 87.78 58.11 87.78 70.89 87.78 83.64 93.23 96.39 96.81 109.14 99.38"/><polyline class="cls-5" points="19.86 33.67 70.89 33.67 109.14 58.19"/><polyline class="cls-4" points="19.86 33.67 68.32 33.67 96.39 51.67 109.14 59.84"/><path class="cls-6" d="M17.24,141.38a3.52,3.52,0,0,1,.13-1,1.33,1.33,0,0,1,.39-.59,1.14,1.14,0,0,1,1.15-.1.9.9,0,0,1,.36.34,1.73,1.73,0,0,1,.23.53,3.72,3.72,0,0,1,.08.84,3.52,3.52,0,0,1-.13,1,1.31,1.31,0,0,1-.39.6,1,1,0,0,1-.65.21,1,1,0,0,1-.81-.37A2.33,2.33,0,0,1,17.24,141.38Zm.45,0a2.25,2.25,0,0,0,.21,1.18.59.59,0,0,0,1,0,2.27,2.27,0,0,0,.2-1.18,2.23,2.23,0,0,0-.2-1.17.63.63,0,0,0-.52-.29.56.56,0,0,0-.48.26A2.24,2.24,0,0,0,17.69,141.38Z" transform="translate(1.43 -22.61)"/><path class="cls-6" d="M40.22,143.15h-.44v-2.8a2.07,2.07,0,0,1-.41.3,2.87,2.87,0,0,1-.47.23v-.43a2.42,2.42,0,0,0,.65-.42,1.76,1.76,0,0,0,.39-.47h.28Z" transform="translate(1.43 -22.61)"/><path class="cls-6" d="M41.38,141.38a3.2,3.2,0,0,1,.13-1,1.33,1.33,0,0,1,.39-.59,1,1,0,0,1,.65-.21,1,1,0,0,1,.5.11.9.9,0,0,1,.36.34,1.73,1.73,0,0,1,.22.53,4.23,4.23,0,0,1-.05,1.86,1.22,1.22,0,0,1-.38.6,1,1,0,0,1-.65.21,1,1,0,0,1-.82-.37A2.41,2.41,0,0,1,41.38,141.38Zm.45,0a2.25,2.25,0,0,0,.21,1.18.58.58,0,0,0,1,0,2.25,2.25,0,0,0,.21-1.18,2.2,2.2,0,0,0-.21-1.17.6.6,0,0,0-.51-.29.56.56,0,0,0-.48.26A2.24,2.24,0,0,0,41.83,141.38Z" transform="translate(1.43 -22.61)"/><path class="cls-6" d="M44.13,141.38a3.2,3.2,0,0,1,.13-1,1.33,1.33,0,0,1,.39-.59,1.14,1.14,0,0,1,1.15-.1.9.9,0,0,1,.36.34,1.73,1.73,0,0,1,.22.53,4.23,4.23,0,0,1-.05,1.86,1.22,1.22,0,0,1-.38.6,1.1,1.1,0,0,1-1.47-.16A2.41,2.41,0,0,1,44.13,141.38Zm.45,0a2.25,2.25,0,0,0,.21,1.18.6.6,0,0,0,.51.29.62.62,0,0,0,.51-.29,2.38,2.38,0,0,0,.2-1.18,2.34,2.34,0,0,0-.2-1.17.63.63,0,0,0-.52-.29.56.56,0,0,0-.48.26A2.24,2.24,0,0,0,44.58,141.38Z" transform="translate(1.43 -22.61)"/><path class="cls-6" d="M46.94,141.38a3.2,3.2,0,0,1,.13-1,1.33,1.33,0,0,1,.39-.59,1.14,1.14,0,0,1,1.15-.1A.9.9,0,0,1,49,140a1.51,1.51,0,0,1,.22.53,4.23,4.23,0,0,1,0,1.86,1.22,1.22,0,0,1-.38.6,1.1,1.1,0,0,1-1.47-.16A2.41,2.41,0,0,1,46.94,141.38Zm.45,0a2.25,2.25,0,0,0,.21,1.18.61.61,0,0,0,.51.29.62.62,0,0,0,.51-.29,2.38,2.38,0,0,0,.2-1.18,2.34,2.34,0,0,0-.2-1.17.63.63,0,0,0-.52-.29.56.56,0,0,0-.48.26A2.24,2.24,0,0,0,47.39,141.38Z" transform="translate(1.43 -22.61)"/><path class="cls-6" d="M66.39,142.73v.42H64a1.06,1.06,0,0,1,0-.31,1.58,1.58,0,0,1,.29-.47,4.54,4.54,0,0,1,.58-.54,5.35,5.35,0,0,0,.79-.76,1,1,0,0,0,.2-.53.6.6,0,0,0-.18-.44.77.77,0,0,0-1,0,.7.7,0,0,0-.19.53l-.45,0a1.08,1.08,0,0,1,.35-.77,1.16,1.16,0,0,1,.81-.26,1.13,1.13,0,0,1,.81.28.94.94,0,0,1,.3.71,1,1,0,0,1-.08.42,1.75,1.75,0,0,1-.29.44c-.14.15-.37.36-.68.63a5.24,5.24,0,0,0-.51.45,1.33,1.33,0,0,0-.19.24Z" transform="translate(1.43 -22.61)"/><path class="cls-6" d="M66.89,141.38a3.2,3.2,0,0,1,.13-1,1.28,1.28,0,0,1,.39-.59,1.14,1.14,0,0,1,1.15-.1.9.9,0,0,1,.36.34,1.51,1.51,0,0,1,.22.53,4.23,4.23,0,0,1,0,1.86,1.22,1.22,0,0,1-.38.6,1.1,1.1,0,0,1-1.47-.16A2.41,2.41,0,0,1,66.89,141.38Zm.45,0a2.25,2.25,0,0,0,.21,1.18.59.59,0,0,0,1,0,2.38,2.38,0,0,0,.2-1.18,2.31,2.31,0,0,0-.2-1.17.63.63,0,0,0-.52-.29.54.54,0,0,0-.48.26A2.24,2.24,0,0,0,67.34,141.38Z" transform="translate(1.43 -22.61)"/><path class="cls-6" d="M69.64,141.38a3.2,3.2,0,0,1,.13-1,1.28,1.28,0,0,1,.39-.59,1.14,1.14,0,0,1,1.15-.1.9.9,0,0,1,.36.34,1.51,1.51,0,0,1,.22.53,3.16,3.16,0,0,1,.09.84,3.52,3.52,0,0,1-.13,1,1.31,1.31,0,0,1-.39.6,1,1,0,0,1-.65.21,1,1,0,0,1-.81-.37A2.33,2.33,0,0,1,69.64,141.38Zm.45,0a2.25,2.25,0,0,0,.21,1.18.59.59,0,0,0,1,0,2.38,2.38,0,0,0,.2-1.18,2.31,2.31,0,0,0-.2-1.17.63.63,0,0,0-.52-.29.54.54,0,0,0-.48.26A2.24,2.24,0,0,0,70.09,141.38Z" transform="translate(1.43 -22.61)"/><path class="cls-6" d="M72.45,141.38a3.52,3.52,0,0,1,.13-1,1.28,1.28,0,0,1,.39-.59,1.14,1.14,0,0,1,1.15-.1.9.9,0,0,1,.36.34,1.73,1.73,0,0,1,.23.53,3.72,3.72,0,0,1,.08.84,3.52,3.52,0,0,1-.13,1,1.31,1.31,0,0,1-.39.6,1,1,0,0,1-.65.21,1,1,0,0,1-.81-.37A2.33,2.33,0,0,1,72.45,141.38Zm.45,0a2.25,2.25,0,0,0,.21,1.18.59.59,0,0,0,1,0,2.27,2.27,0,0,0,.2-1.18,2.2,2.2,0,0,0-.2-1.17.63.63,0,0,0-.52-.29.54.54,0,0,0-.48.26A2.24,2.24,0,0,0,72.9,141.38Z" transform="translate(1.43 -22.61)"/><path class="cls-6" d="M89.59,142.2l.44,0a.94.94,0,0,0,.26.53.64.64,0,0,0,.44.17.69.69,0,0,0,.53-.22.72.72,0,0,0,.21-.53.65.65,0,0,0-.2-.5.68.68,0,0,0-.5-.19,1,1,0,0,0-.31.05l.05-.39h.07a.89.89,0,0,0,.51-.14.5.5,0,0,0,.22-.45.52.52,0,0,0-.16-.4.57.57,0,0,0-.43-.16.57.57,0,0,0-.42.16.77.77,0,0,0-.22.48l-.44-.08a1.1,1.1,0,0,1,.36-.68,1.07,1.07,0,0,1,.71-.24,1.19,1.19,0,0,1,.54.12,1,1,0,0,1,.38.34.88.88,0,0,1,.13.47.79.79,0,0,1-.12.42.85.85,0,0,1-.37.3.86.86,0,0,1,.49.3.93.93,0,0,1,.18.58,1.1,1.1,0,0,1-.34.8,1.24,1.24,0,0,1-.87.32,1.12,1.12,0,0,1-.78-.28A1.07,1.07,0,0,1,89.59,142.2Z" transform="translate(1.43 -22.61)"/><path class="cls-6" d="M92.4,141.38a3.52,3.52,0,0,1,.13-1,1.28,1.28,0,0,1,.39-.59,1.14,1.14,0,0,1,1.15-.1.9.9,0,0,1,.36.34,1.73,1.73,0,0,1,.23.53,3.72,3.72,0,0,1,.08.84,3.52,3.52,0,0,1-.13,1,1.31,1.31,0,0,1-.39.6,1,1,0,0,1-.65.21,1,1,0,0,1-.81-.37A2.33,2.33,0,0,1,92.4,141.38Zm.45,0a2.25,2.25,0,0,0,.21,1.18.59.59,0,0,0,1,0,2.27,2.27,0,0,0,.2-1.18,2.2,2.2,0,0,0-.2-1.17.63.63,0,0,0-.52-.29.54.54,0,0,0-.48.26A2.24,2.24,0,0,0,92.85,141.38Z" transform="translate(1.43 -22.61)"/><path class="cls-6" d="M95.15,141.38a3.52,3.52,0,0,1,.13-1,1.28,1.28,0,0,1,.39-.59,1,1,0,0,1,.65-.21,1.06,1.06,0,0,1,.51.11,1,1,0,0,1,.35.34,1.73,1.73,0,0,1,.23.53,3.72,3.72,0,0,1,.08.84,3.52,3.52,0,0,1-.13,1,1.31,1.31,0,0,1-.39.6,1,1,0,0,1-.65.21,1,1,0,0,1-.81-.37A2.33,2.33,0,0,1,95.15,141.38Zm.45,0a2.25,2.25,0,0,0,.21,1.18.59.59,0,0,0,1,0,2.25,2.25,0,0,0,.21-1.18,2.18,2.18,0,0,0-.21-1.17.62.62,0,0,0-.51-.29.55.55,0,0,0-.49.26A2.24,2.24,0,0,0,95.6,141.38Z" transform="translate(1.43 -22.61)"/><path class="cls-6" d="M98,141.38a3.52,3.52,0,0,1,.13-1,1.28,1.28,0,0,1,.39-.59,1,1,0,0,1,.65-.21,1.06,1.06,0,0,1,.51.11,1,1,0,0,1,.35.34,1.73,1.73,0,0,1,.23.53,3.72,3.72,0,0,1,.08.84,3.52,3.52,0,0,1-.13,1,1.31,1.31,0,0,1-.39.6,1,1,0,0,1-.65.21,1,1,0,0,1-.81-.37A2.33,2.33,0,0,1,98,141.38Zm.46,0a2.27,2.27,0,0,0,.2,1.18.59.59,0,0,0,1,0,2.25,2.25,0,0,0,.21-1.18,2.18,2.18,0,0,0-.21-1.17.62.62,0,0,0-.51-.29.55.55,0,0,0-.49.26A2.26,2.26,0,0,0,98.42,141.38Z" transform="translate(1.43 -22.61)"/><path class="cls-6" d="M102.35,142.2l.44,0a.94.94,0,0,0,.26.53.64.64,0,0,0,.44.17.67.67,0,0,0,.52-.22.69.69,0,0,0,.22-.53.69.69,0,0,0-.2-.5.68.68,0,0,0-.5-.19,1,1,0,0,0-.31.05l0-.39h.07a.88.88,0,0,0,.5-.14.51.51,0,0,0,.23-.45.53.53,0,0,0-.17-.4.57.57,0,0,0-.42-.16.6.6,0,0,0-.43.16.9.9,0,0,0-.22.48l-.44-.08a1.16,1.16,0,0,1,.37-.68,1.07,1.07,0,0,1,.71-.24,1.19,1.19,0,0,1,.54.12,1,1,0,0,1,.38.34,1,1,0,0,1,.13.47.72.72,0,0,1-.13.42.75.75,0,0,1-.37.3.85.85,0,0,1,.5.3,1,1,0,0,1,.17.58,1.07,1.07,0,0,1-.34.8,1.22,1.22,0,0,1-.86.32,1.08,1.08,0,0,1-.78-.28A1.07,1.07,0,0,1,102.35,142.2Z" transform="translate(1.43 -22.61)"/><path class="cls-6" d="M105.16,142.21l.46,0a.77.77,0,0,0,.24.51.64.64,0,0,0,.45.17.68.68,0,0,0,.53-.24.88.88,0,0,0,.22-.63.83.83,0,0,0-.21-.6.75.75,0,0,0-.55-.22.8.8,0,0,0-.38.1.73.73,0,0,0-.27.25l-.41,0,.34-1.84h1.78V140h-1.43l-.19,1a1.17,1.17,0,0,1,.68-.22,1.06,1.06,0,0,1,.79.32,1.17,1.17,0,0,1,.32.84,1.31,1.31,0,0,1-.28.84,1.14,1.14,0,0,1-.94.43,1.17,1.17,0,0,1-.8-.27A1.08,1.08,0,0,1,105.16,142.21Z" transform="translate(1.43 -22.61)"/><path class="cls-6" d="M107.91,141.38a3.2,3.2,0,0,1,.13-1,1.28,1.28,0,0,1,.39-.59,1.14,1.14,0,0,1,1.15-.1.9.9,0,0,1,.36.34,1.73,1.73,0,0,1,.22.53,4.23,4.23,0,0,1,0,1.86,1.22,1.22,0,0,1-.38.6,1,1,0,0,1-.65.21,1,1,0,0,1-.82-.37A2.41,2.41,0,0,1,107.91,141.38Zm.45,0a2.25,2.25,0,0,0,.21,1.18.6.6,0,0,0,.51.29.62.62,0,0,0,.51-.29,2.38,2.38,0,0,0,.2-1.18,2.31,2.31,0,0,0-.2-1.17.63.63,0,0,0-.52-.29.54.54,0,0,0-.48.26A2.24,2.24,0,0,0,108.36,141.38Z" transform="translate(1.43 -22.61)"/><path class="cls-6" d="M110.72,141.38a3.2,3.2,0,0,1,.13-1,1.28,1.28,0,0,1,.39-.59,1.14,1.14,0,0,1,1.15-.1.9.9,0,0,1,.36.34,1.73,1.73,0,0,1,.22.53,4.23,4.23,0,0,1,0,1.86,1.22,1.22,0,0,1-.38.6,1.1,1.1,0,0,1-1.47-.16A2.41,2.41,0,0,1,110.72,141.38Zm.45,0a2.25,2.25,0,0,0,.21,1.18.6.6,0,0,0,.51.29.62.62,0,0,0,.51-.29,2.38,2.38,0,0,0,.2-1.18,2.31,2.31,0,0,0-.2-1.17.63.63,0,0,0-.52-.29.54.54,0,0,0-.48.26A2.24,2.24,0,0,0,111.17,141.38Z" transform="translate(1.43 -22.61)"/><rect class="繝後Μ_逋ｽ-2" x="109.15" y="1.48" width="2.83" height="113.39"/><rect class="繝後Μ_逋ｽ-2" x="17.02" y="1.48" width="2.83" height="113.39"/><rect class="邱喟0.5pt-7" x="19.86" y="1.47" width="89.29" height="113.39"/><path class="cls-6" d="M10.23,137.64a3.2,3.2,0,0,1,.13-1,1.31,1.31,0,0,1,.39-.6,1.11,1.11,0,0,1,1.15-.09.88.88,0,0,1,.36.33,2,2,0,0,1,.22.53,3.3,3.3,0,0,1,.08.85,3.2,3.2,0,0,1-.13,1,1.19,1.19,0,0,1-.38.59,1,1,0,0,1-.65.22,1,1,0,0,1-.82-.37A2.43,2.43,0,0,1,10.23,137.64Zm.45,0a2.18,2.18,0,0,0,.21,1.17.59.59,0,0,0,.51.3.61.61,0,0,0,.51-.3,3.52,3.52,0,0,0,0-2.34.6.6,0,0,0-.52-.29.56.56,0,0,0-.48.25A2.28,2.28,0,0,0,10.68,137.64Z" transform="translate(1.43 -22.61)"/><path class="cls-6" d="M13.29,139.41v-.51h.5v.51Z" transform="translate(1.43 -22.61)"/><path class="cls-6" d="M14.43,137.64a3.52,3.52,0,0,1,.13-1A1.31,1.31,0,0,1,15,136a1,1,0,0,1,.65-.21,1.07,1.07,0,0,1,.51.12,1,1,0,0,1,.36.33,2.35,2.35,0,0,1,.22.53,3.82,3.82,0,0,1,.08.85,3.2,3.2,0,0,1-.13,1,1.28,1.28,0,0,1-.39.59,1,1,0,0,1-.65.22,1,1,0,0,1-.81-.37A2.35,2.35,0,0,1,14.43,137.64Zm.46,0a2.2,2.2,0,0,0,.2,1.17.58.58,0,0,0,1,0,3.36,3.36,0,0,0,0-2.34.6.6,0,0,0-.51-.29.56.56,0,0,0-.49.25A2.3,2.3,0,0,0,14.89,137.64Z" transform="translate(1.43 -22.61)"/><path class="cls-6" d="M8.92,123.21H8.48v-2.8a2.07,2.07,0,0,1-.41.3,3.32,3.32,0,0,1-.47.23v-.43a2.42,2.42,0,0,0,.65-.42,1.76,1.76,0,0,0,.39-.47h.28Z" transform="translate(1.43 -22.61)"/><path class="cls-6" d="M10.08,121.44a3.2,3.2,0,0,1,.13-1,1.14,1.14,0,0,1,.39-.59,1,1,0,0,1,.64-.21,1,1,0,0,1,.51.11,1.06,1.06,0,0,1,.36.34,1.73,1.73,0,0,1,.22.53,3.72,3.72,0,0,1,.08.84,3.2,3.2,0,0,1-.13,1,1.23,1.23,0,0,1-.39.6,1.09,1.09,0,0,1-1.46-.16A2.34,2.34,0,0,1,10.08,121.44Zm.45,0a2.38,2.38,0,0,0,.2,1.18.59.59,0,0,0,1,0,2.25,2.25,0,0,0,.21-1.18,2.18,2.18,0,0,0-.21-1.17.62.62,0,0,0-.51-.29.54.54,0,0,0-.48.26A2.15,2.15,0,0,0,10.53,121.44Z" transform="translate(1.43 -22.61)"/><path class="cls-6" d="M13.07,123.21v-.5h.5v.5Z" transform="translate(1.43 -22.61)"/><path class="cls-6" d="M14.22,121.44a3.2,3.2,0,0,1,.13-1,1.28,1.28,0,0,1,.39-.59,1.14,1.14,0,0,1,1.15-.1.9.9,0,0,1,.36.34,1.51,1.51,0,0,1,.22.53,3.16,3.16,0,0,1,.09.84,3.52,3.52,0,0,1-.13,1,1.31,1.31,0,0,1-.39.6,1,1,0,0,1-.65.21,1,1,0,0,1-.81-.37A2.33,2.33,0,0,1,14.22,121.44Zm.45,0a2.25,2.25,0,0,0,.21,1.18.59.59,0,0,0,1,0,2.38,2.38,0,0,0,.2-1.18,2.31,2.31,0,0,0-.2-1.17.63.63,0,0,0-.52-.29.54.54,0,0,0-.48.26A2.24,2.24,0,0,0,14.67,121.44Z" transform="translate(1.43 -22.61)"/><path class="cls-6" d="M9.58,106.59V107H7.21a.81.81,0,0,1,0-.31,1.58,1.58,0,0,1,.29-.47,4,4,0,0,1,.58-.55,4.75,4.75,0,0,0,.78-.75.92.92,0,0,0,.21-.53.56.56,0,0,0-.19-.44.66.66,0,0,0-.49-.18.65.65,0,0,0-.5.19.75.75,0,0,0-.2.53l-.45,0a1.12,1.12,0,0,1,.35-.77,1.17,1.17,0,0,1,.81-.27,1.14,1.14,0,0,1,.82.29.94.94,0,0,1,.3.71,1.06,1.06,0,0,1-.09.42,1.66,1.66,0,0,1-.29.44,8.11,8.11,0,0,1-.68.63,6.1,6.1,0,0,0-.5.45,1.33,1.33,0,0,0-.19.24Z" transform="translate(1.43 -22.61)"/><path class="cls-6" d="M10.08,105.24a3.2,3.2,0,0,1,.13-1,1.17,1.17,0,0,1,.39-.6,1,1,0,0,1,.64-.21,1,1,0,0,1,.51.12,1.13,1.13,0,0,1,.36.33,1.91,1.91,0,0,1,.22.54,3.72,3.72,0,0,1,.08.84,3.2,3.2,0,0,1-.13,1,1.23,1.23,0,0,1-.39.6,1.09,1.09,0,0,1-1.46-.16A2.34,2.34,0,0,1,10.08,105.24Zm.45,0a2.38,2.38,0,0,0,.2,1.18.62.62,0,0,0,.51.29.61.61,0,0,0,.51-.3,3.36,3.36,0,0,0,0-2.34.6.6,0,0,0-.51-.29.56.56,0,0,0-.48.25A2.21,2.21,0,0,0,10.53,105.24Z" transform="translate(1.43 -22.61)"/><path class="cls-6" d="M13.07,107v-.5h.5v.5Z" transform="translate(1.43 -22.61)"/><path class="cls-6" d="M14.22,105.24a3.2,3.2,0,0,1,.13-1,1.31,1.31,0,0,1,.39-.6,1.11,1.11,0,0,1,1.15-.09,1,1,0,0,1,.36.33,1.65,1.65,0,0,1,.22.54,3.16,3.16,0,0,1,.09.84,3.52,3.52,0,0,1-.13,1,1.31,1.31,0,0,1-.39.6,1,1,0,0,1-.65.21,1,1,0,0,1-.81-.37A2.33,2.33,0,0,1,14.22,105.24Zm.45,0a2.25,2.25,0,0,0,.21,1.18.62.62,0,0,0,.51.29.61.61,0,0,0,.51-.3,3.52,3.52,0,0,0,0-2.34.6.6,0,0,0-.52-.29.56.56,0,0,0-.48.25A2.31,2.31,0,0,0,14.67,105.24Z" transform="translate(1.43 -22.61)"/><path class="cls-6" d="M7.27,89.76l.44-.05a.92.92,0,0,0,.26.53.62.62,0,0,0,.44.17.69.69,0,0,0,.52-.22.73.73,0,0,0,.22-.53A.67.67,0,0,0,8.44,89a1.38,1.38,0,0,0-.31,0l0-.38h.07a1,1,0,0,0,.51-.14A.5.5,0,0,0,9,88a.54.54,0,0,0-.16-.41.66.66,0,0,0-.85,0,.8.8,0,0,0-.22.48L7.31,88a1.16,1.16,0,0,1,.37-.68,1.08,1.08,0,0,1,.71-.25,1.26,1.26,0,0,1,.54.13.89.89,0,0,1,.51.8.79.79,0,0,1-.5.73.88.88,0,0,1,.5.3,1,1,0,0,1,.17.58,1.07,1.07,0,0,1-.34.8,1.24,1.24,0,0,1-.86.32,1.08,1.08,0,0,1-1.14-1Z" transform="translate(1.43 -22.61)"/><path class="cls-6" d="M10.08,88.94a3.2,3.2,0,0,1,.13-1,1.17,1.17,0,0,1,.39-.6,1,1,0,0,1,.64-.21,1,1,0,0,1,.51.12,1.06,1.06,0,0,1,.36.34,1.73,1.73,0,0,1,.22.53,3.72,3.72,0,0,1,.08.84,3.2,3.2,0,0,1-.13,1,1.23,1.23,0,0,1-.39.6,1.09,1.09,0,0,1-1.46-.16A2.34,2.34,0,0,1,10.08,88.94Zm.45,0a2.38,2.38,0,0,0,.2,1.18.59.59,0,0,0,1,0A2.25,2.25,0,0,0,12,88.94a2.18,2.18,0,0,0-.21-1.17.62.62,0,0,0-.51-.29.56.56,0,0,0-.48.25A2.21,2.21,0,0,0,10.53,88.94Z" transform="translate(1.43 -22.61)"/><path class="cls-6" d="M13.07,90.71v-.5h.5v.5Z" transform="translate(1.43 -22.61)"/><path class="cls-6" d="M14.22,88.94a3.2,3.2,0,0,1,.13-1,1.31,1.31,0,0,1,.39-.6,1.11,1.11,0,0,1,1.15-.09.9.9,0,0,1,.36.34,1.51,1.51,0,0,1,.22.53,3.16,3.16,0,0,1,.09.84,3.52,3.52,0,0,1-.13,1,1.31,1.31,0,0,1-.39.6,1,1,0,0,1-.65.21,1,1,0,0,1-.81-.37A2.33,2.33,0,0,1,14.22,88.94Zm.45,0a2.25,2.25,0,0,0,.21,1.18.59.59,0,0,0,1,0,2.38,2.38,0,0,0,.2-1.18,2.31,2.31,0,0,0-.2-1.17.63.63,0,0,0-.52-.29.56.56,0,0,0-.48.25A2.31,2.31,0,0,0,14.67,88.94Z" transform="translate(1.43 -22.61)"/><path class="cls-6" d="M8.67,74.81V74H7.12v-.4l1.64-2.32h.35v2.32H9.6V74H9.11v.86Zm0-1.26V71.94L7.55,73.55Z" transform="translate(1.43 -22.61)"/><path class="cls-6" d="M10.08,73a3.2,3.2,0,0,1,.13-1,1.14,1.14,0,0,1,.39-.59,1,1,0,0,1,.64-.21,1,1,0,0,1,.51.11,1.06,1.06,0,0,1,.36.34,1.73,1.73,0,0,1,.22.53,3.72,3.72,0,0,1,.08.84,3.2,3.2,0,0,1-.13,1,1.23,1.23,0,0,1-.39.6,1.09,1.09,0,0,1-1.46-.16A2.34,2.34,0,0,1,10.08,73Zm.45,0a2.38,2.38,0,0,0,.2,1.18.59.59,0,0,0,1,0A2.25,2.25,0,0,0,12,73a2.2,2.2,0,0,0-.21-1.17.62.62,0,0,0-.51-.29.56.56,0,0,0-.48.26A2.15,2.15,0,0,0,10.53,73Z" transform="translate(1.43 -22.61)"/><path class="cls-6" d="M13.07,74.81v-.5h.5v.5Z" transform="translate(1.43 -22.61)"/><path class="cls-6" d="M14.22,73a3.2,3.2,0,0,1,.13-1,1.28,1.28,0,0,1,.39-.59,1.14,1.14,0,0,1,1.15-.1.9.9,0,0,1,.36.34,1.51,1.51,0,0,1,.22.53,3.16,3.16,0,0,1,.09.84,3.52,3.52,0,0,1-.13,1,1.31,1.31,0,0,1-.39.6,1,1,0,0,1-.65.21,1,1,0,0,1-.81-.37A2.33,2.33,0,0,1,14.22,73Zm.45,0a2.25,2.25,0,0,0,.21,1.18.59.59,0,0,0,1,0A2.38,2.38,0,0,0,16.1,73a2.34,2.34,0,0,0-.2-1.17.63.63,0,0,0-.52-.29.56.56,0,0,0-.48.26A2.24,2.24,0,0,0,14.67,73Z" transform="translate(1.43 -22.61)"/><path class="cls-6" d="M7.27,57.67l.46,0a.82.82,0,0,0,.24.51.64.64,0,0,0,.45.17A.68.68,0,0,0,9,58.07a.91.91,0,0,0,.22-.64A.8.8,0,0,0,9,56.84a.71.71,0,0,0-.55-.22.7.7,0,0,0-.38.1.6.6,0,0,0-.27.25l-.42-.06.35-1.83H9.47v.42H8l-.19,1a1.16,1.16,0,0,1,.68-.23,1.07,1.07,0,0,1,.79.33,1.13,1.13,0,0,1,.32.83,1.33,1.33,0,0,1-.28.84,1.15,1.15,0,0,1-.94.44,1.12,1.12,0,0,1-.8-.28A1,1,0,0,1,7.27,57.67Z" transform="translate(1.43 -22.61)"/><path class="cls-6" d="M10.08,56.84a3.2,3.2,0,0,1,.13-1,1.17,1.17,0,0,1,.39-.6,1,1,0,0,1,.64-.21,1,1,0,0,1,.51.12,1.13,1.13,0,0,1,.36.33,2,2,0,0,1,.22.53,3.82,3.82,0,0,1,.08.85,3.2,3.2,0,0,1-.13,1,1.28,1.28,0,0,1-.39.6,1,1,0,0,1-.65.21,1,1,0,0,1-.81-.37A2.36,2.36,0,0,1,10.08,56.84Zm.45,0a2.31,2.31,0,0,0,.2,1.17.58.58,0,0,0,1,0,3.36,3.36,0,0,0,0-2.34.6.6,0,0,0-.51-.29.56.56,0,0,0-.48.25A2.19,2.19,0,0,0,10.53,56.84Z" transform="translate(1.43 -22.61)"/><path class="cls-6" d="M13.07,58.61v-.5h.5v.5Z" transform="translate(1.43 -22.61)"/><path class="cls-6" d="M14.22,56.84a3.2,3.2,0,0,1,.13-1,1.31,1.31,0,0,1,.39-.6,1.11,1.11,0,0,1,1.15-.09,1,1,0,0,1,.36.33,1.69,1.69,0,0,1,.22.53,3.24,3.24,0,0,1,.09.85,3.52,3.52,0,0,1-.13,1,1.36,1.36,0,0,1-.39.6,1,1,0,0,1-.65.21,1,1,0,0,1-.81-.37A2.35,2.35,0,0,1,14.22,56.84Zm.45,0A2.18,2.18,0,0,0,14.88,58a.58.58,0,0,0,1,0,3.52,3.52,0,0,0,0-2.34.6.6,0,0,0-.52-.29.56.56,0,0,0-.48.25A2.28,2.28,0,0,0,14.67,56.84Z" transform="translate(1.43 -22.61)"/><path class="cls-6" d="M9.55,39.7l-.44,0a.9.9,0,0,0-.17-.38.6.6,0,0,0-.44-.19.61.61,0,0,0-.37.12,1.07,1.07,0,0,0-.32.44,2.48,2.48,0,0,0-.13.83,1.11,1.11,0,0,1,.39-.36,1,1,0,0,1,.48-.12,1,1,0,0,1,.75.33,1.12,1.12,0,0,1,.31.83,1.33,1.33,0,0,1-.15.63,1,1,0,0,1-1,.6,1.13,1.13,0,0,1-.9-.41,2,2,0,0,1-.34-1.33,2.38,2.38,0,0,1,.38-1.51,1.1,1.1,0,0,1,.9-.41,1,1,0,0,1,.69.24A1,1,0,0,1,9.55,39.7Zm-1.8,1.55a.94.94,0,0,0,.1.43.71.71,0,0,0,.27.32.66.66,0,0,0,.36.11A.62.62,0,0,0,9,41.88a.9.9,0,0,0,.2-.61.82.82,0,0,0-.2-.58.63.63,0,0,0-.5-.22.66.66,0,0,0-.5.22A.76.76,0,0,0,7.75,41.25Z" transform="translate(1.43 -22.61)"/><path class="cls-6" d="M10.08,40.64a3.2,3.2,0,0,1,.13-1,1.17,1.17,0,0,1,.39-.6,1,1,0,0,1,.64-.21,1,1,0,0,1,.51.12,1.13,1.13,0,0,1,.36.33,2,2,0,0,1,.22.53,3.82,3.82,0,0,1,.08.85,3.2,3.2,0,0,1-.13,1,1.23,1.23,0,0,1-.39.6,1,1,0,0,1-.65.21,1,1,0,0,1-.81-.37A2.36,2.36,0,0,1,10.08,40.64Zm.45,0a2.31,2.31,0,0,0,.2,1.17.58.58,0,0,0,1,0A2.18,2.18,0,0,0,12,40.64a2.18,2.18,0,0,0-.21-1.17.6.6,0,0,0-.51-.29.56.56,0,0,0-.48.25A2.19,2.19,0,0,0,10.53,40.64Z" transform="translate(1.43 -22.61)"/><path class="cls-6" d="M13.07,42.41v-.5h.5v.5Z" transform="translate(1.43 -22.61)"/><path class="cls-6" d="M14.22,40.64a3.2,3.2,0,0,1,.13-1,1.31,1.31,0,0,1,.39-.6,1.11,1.11,0,0,1,1.15-.09,1,1,0,0,1,.36.33,1.69,1.69,0,0,1,.22.53,3.24,3.24,0,0,1,.09.85,3.52,3.52,0,0,1-.13,1,1.31,1.31,0,0,1-.39.6,1,1,0,0,1-.65.21,1,1,0,0,1-.81-.37A2.35,2.35,0,0,1,14.22,40.64Zm.45,0a2.18,2.18,0,0,0,.21,1.17.58.58,0,0,0,1,0,2.31,2.31,0,0,0,.2-1.17,2.31,2.31,0,0,0-.2-1.17.6.6,0,0,0-.52-.29.56.56,0,0,0-.48.25A2.28,2.28,0,0,0,14.67,40.64Z" transform="translate(1.43 -22.61)"/><path class="cls-6" d="M7.3,23.1v-.43H9.61V23a5,5,0,0,0-.68,1,6,6,0,0,0-.51,1.24,4.26,4.26,0,0,0-.17,1H7.8a4.25,4.25,0,0,1,.16-1A5.5,5.5,0,0,1,8.42,24a4.2,4.2,0,0,1,.63-.93Z" transform="translate(1.43 -22.61)"/><path class="cls-6" d="M10.08,24.44a3.2,3.2,0,0,1,.13-1,1.17,1.17,0,0,1,.39-.6,1,1,0,0,1,.64-.21,1,1,0,0,1,.51.12,1.13,1.13,0,0,1,.36.33,2,2,0,0,1,.22.53,3.82,3.82,0,0,1,.08.85,3.2,3.2,0,0,1-.13,1,1.23,1.23,0,0,1-.39.6,1,1,0,0,1-.65.21,1,1,0,0,1-.81-.37A2.36,2.36,0,0,1,10.08,24.44Zm.45,0a2.31,2.31,0,0,0,.2,1.17.58.58,0,0,0,1,0A2.18,2.18,0,0,0,12,24.44a2.18,2.18,0,0,0-.21-1.17.6.6,0,0,0-.51-.29.56.56,0,0,0-.48.25A2.19,2.19,0,0,0,10.53,24.44Z" transform="translate(1.43 -22.61)"/><path class="cls-6" d="M13.07,26.21v-.5h.5v.5Z" transform="translate(1.43 -22.61)"/><path class="cls-6" d="M14.22,24.44a3.2,3.2,0,0,1,.13-1,1.31,1.31,0,0,1,.39-.6,1.11,1.11,0,0,1,1.15-.09,1,1,0,0,1,.36.33,1.69,1.69,0,0,1,.22.53,3.24,3.24,0,0,1,.09.85,3.52,3.52,0,0,1-.13,1,1.31,1.31,0,0,1-.39.6,1,1,0,0,1-.65.21,1,1,0,0,1-.81-.37A2.35,2.35,0,0,1,14.22,24.44Zm.45,0a2.18,2.18,0,0,0,.21,1.17.58.58,0,0,0,1,0,2.31,2.31,0,0,0,.2-1.17,2.31,2.31,0,0,0-.2-1.17.6.6,0,0,0-.52-.29.56.56,0,0,0-.48.25A2.28,2.28,0,0,0,14.67,24.44Z" transform="translate(1.43 -22.61)"/></g><g id="English"><rect class="繝後Μ_逋ｽ-2" x="22.97" y="40.18" width="47.91" height="16.58"/><path class="cls-6" d="M24.75,67.66l.58,0a1.33,1.33,0,0,0,.2.57,1,1,0,0,0,.46.36,1.85,1.85,0,0,0,.72.14,1.71,1.71,0,0,0,.62-.11.87.87,0,0,0,.4-.28.66.66,0,0,0,.13-.4.6.6,0,0,0-.12-.38,1.06,1.06,0,0,0-.42-.28,8,8,0,0,0-.83-.22,4.57,4.57,0,0,1-.9-.3,1.26,1.26,0,0,1-.5-.43,1.12,1.12,0,0,1-.16-.58,1.24,1.24,0,0,1,.2-.66,1.2,1.2,0,0,1,.59-.46,2.11,2.11,0,0,1,.85-.16,2.17,2.17,0,0,1,.91.17,1.3,1.3,0,0,1,.61.49,1.4,1.4,0,0,1,.23.73l-.59,0a1,1,0,0,0-.32-.66,1.29,1.29,0,0,0-.82-.23,1.27,1.27,0,0,0-.81.21.61.61,0,0,0-.26.49.52.52,0,0,0,.19.41,2.26,2.26,0,0,0,.92.33,7.15,7.15,0,0,1,1,.3,1.41,1.41,0,0,1,.6.48,1.14,1.14,0,0,1,.2.66,1.21,1.21,0,0,1-.22.7,1.34,1.34,0,0,1-.61.51,2.11,2.11,0,0,1-.89.18,2.73,2.73,0,0,1-1.06-.18,1.48,1.48,0,0,1-.67-.56A1.57,1.57,0,0,1,24.75,67.66Z" transform="translate(1.43 -22.61)"/><path class="cls-6" d="M29.23,69.15V64.5h.57v1.67a1.26,1.26,0,0,1,1-.46,1.35,1.35,0,0,1,.65.14.91.91,0,0,1,.39.41A1.88,1.88,0,0,1,32,67v2.13H31.4V67a.86.86,0,0,0-.19-.63.67.67,0,0,0-.52-.19.91.91,0,0,0-.48.13.79.79,0,0,0-.32.36,1.69,1.69,0,0,0-.09.62v1.84Z" transform="translate(1.43 -22.61)"/><path class="cls-6" d="M32.63,67.47a1.73,1.73,0,0,1,.52-1.39,1.56,1.56,0,0,1,1.06-.37,1.51,1.51,0,0,1,1.13.45,1.7,1.7,0,0,1,.45,1.26,2.22,2.22,0,0,1-.2,1A1.39,1.39,0,0,1,35,69a1.63,1.63,0,0,1-.81.21,1.52,1.52,0,0,1-1.15-.46A1.79,1.79,0,0,1,32.63,67.47Zm.58,0a1.44,1.44,0,0,0,.29,1,.94.94,0,0,0,1.42,0,1.49,1.49,0,0,0,.28-1,1.38,1.38,0,0,0-.29-1,.89.89,0,0,0-.7-.32.88.88,0,0,0-.71.32A1.41,1.41,0,0,0,33.21,67.47Z" transform="translate(1.43 -22.61)"/><path class="cls-6" d="M36.45,69.15V65.78H37v.51a1.41,1.41,0,0,1,.37-.47.59.59,0,0,1,.36-.11,1.12,1.12,0,0,1,.59.18l-.2.53a.84.84,0,0,0-.42-.12.51.51,0,0,0-.33.11.58.58,0,0,0-.21.31,2,2,0,0,0-.1.67v1.76Z" transform="translate(1.43 -22.61)"/><path class="cls-6" d="M39.87,68.64l.08.51a2.37,2.37,0,0,1-.43,0,1,1,0,0,1-.48-.1.57.57,0,0,1-.25-.26,2.27,2.27,0,0,1-.07-.68V66.23h-.41v-.45h.41V65l.57-.35v1.18h.58v.45h-.58v2a1,1,0,0,0,0,.31.27.27,0,0,0,.1.11.37.37,0,0,0,.2,0A1.29,1.29,0,0,0,39.87,68.64Z" transform="translate(1.43 -22.61)"/><path class="cls-6" d="M40.2,67.76v-.58H42v.58Z" transform="translate(1.43 -22.61)"/><path class="cls-6" d="M44.78,69.15v-.42a1.07,1.07,0,0,1-1,.5,1.42,1.42,0,0,1-.74-.22,1.51,1.51,0,0,1-.52-.62,2.26,2.26,0,0,1-.19-.92,2.47,2.47,0,0,1,.17-.92,1.33,1.33,0,0,1,.51-.63,1.37,1.37,0,0,1,.75-.21,1.19,1.19,0,0,1,.54.12,1.17,1.17,0,0,1,.39.34V64.5h.57v4.65ZM43,67.47a1.5,1.5,0,0,0,.27,1,.85.85,0,0,0,.65.32.78.78,0,0,0,.63-.31,1.36,1.36,0,0,0,.27-.93,1.59,1.59,0,0,0-.27-1,.84.84,0,0,0-.66-.32.78.78,0,0,0-.63.31A1.53,1.53,0,0,0,43,67.47Z" transform="translate(1.43 -22.61)"/><path class="cls-6" d="M48.41,69.15v-.49a1.22,1.22,0,0,1-1.07.57,1.3,1.3,0,0,1-.55-.12,1,1,0,0,1-.39-.28,1.11,1.11,0,0,1-.17-.43,2.3,2.3,0,0,1,0-.53V65.78h.57v1.87a3.41,3.41,0,0,0,0,.6.63.63,0,0,0,.23.36.73.73,0,0,0,.43.13.92.92,0,0,0,.48-.14.68.68,0,0,0,.32-.35,1.94,1.94,0,0,0,.09-.66V65.78h.58v3.37Z" transform="translate(1.43 -22.61)"/><path class="cls-6" d="M49.81,69.15V65.78h.52v.51a1.41,1.41,0,0,1,.36-.47.6.6,0,0,1,.37-.11,1.15,1.15,0,0,1,.59.18l-.2.53A.84.84,0,0,0,51,66.3a.51.51,0,0,0-.34.11.58.58,0,0,0-.21.31,2.36,2.36,0,0,0-.09.67v1.76Z" transform="translate(1.43 -22.61)"/><path class="cls-6" d="M54.18,68.74a2.17,2.17,0,0,1-.61.38,1.81,1.81,0,0,1-.63.11,1.22,1.22,0,0,1-.85-.27.91.91,0,0,1-.3-.7,1,1,0,0,1,.11-.45,1.06,1.06,0,0,1,.3-.33,1.72,1.72,0,0,1,.41-.19l.51-.08a5.33,5.33,0,0,0,1-.2v-.15a.63.63,0,0,0-.16-.49,1,1,0,0,0-.65-.19,1,1,0,0,0-.6.14.83.83,0,0,0-.28.5l-.56-.08a1.34,1.34,0,0,1,.25-.58,1.14,1.14,0,0,1,.51-.34,2.21,2.21,0,0,1,.76-.11,2,2,0,0,1,.7.1.92.92,0,0,1,.4.25,1,1,0,0,1,.18.39c0,.1,0,.27,0,.53v.76a8.82,8.82,0,0,0,0,1,1.22,1.22,0,0,0,.15.4h-.6A1.31,1.31,0,0,1,54.18,68.74Zm0-1.28a4.52,4.52,0,0,1-.94.22,2,2,0,0,0-.49.11.43.43,0,0,0-.23.19.5.5,0,0,0,.09.65.78.78,0,0,0,.51.15,1.25,1.25,0,0,0,.59-.14.89.89,0,0,0,.37-.4,1.24,1.24,0,0,0,.1-.57Z" transform="translate(1.43 -22.61)"/><path class="cls-6" d="M56.85,68.64l.08.51a2.37,2.37,0,0,1-.43,0,1,1,0,0,1-.48-.1.57.57,0,0,1-.25-.26,2.27,2.27,0,0,1-.07-.68V66.23h-.41v-.45h.41V65l.57-.35v1.18h.58v.45h-.58v2a1,1,0,0,0,0,.31.27.27,0,0,0,.1.11.37.37,0,0,0,.2,0A1.29,1.29,0,0,0,56.85,68.64Z" transform="translate(1.43 -22.61)"/><path class="cls-6" d="M57.41,65.16V64.5H58v.66Zm0,4V65.78H58v3.37Z" transform="translate(1.43 -22.61)"/><path class="cls-6" d="M58.64,67.47a1.73,1.73,0,0,1,.52-1.39,1.56,1.56,0,0,1,1.06-.37,1.51,1.51,0,0,1,1.13.45,1.7,1.7,0,0,1,.45,1.26,2.22,2.22,0,0,1-.2,1A1.39,1.39,0,0,1,61,69a1.63,1.63,0,0,1-.81.21,1.51,1.51,0,0,1-1.15-.46A1.79,1.79,0,0,1,58.64,67.47Zm.58,0a1.44,1.44,0,0,0,.29,1,.94.94,0,0,0,1.42,0,1.49,1.49,0,0,0,.28-1,1.38,1.38,0,0,0-.29-1,.91.91,0,0,0-.7-.32.88.88,0,0,0-.71.32A1.41,1.41,0,0,0,59.22,67.47Z" transform="translate(1.43 -22.61)"/><path class="cls-6" d="M62.46,69.15V65.78H63v.48a1.2,1.2,0,0,1,1.07-.55,1.47,1.47,0,0,1,.56.1.89.89,0,0,1,.38.29,1,1,0,0,1,.18.42,3.51,3.51,0,0,1,0,.56v2.07h-.57V67.1a1.67,1.67,0,0,0-.06-.52.6.6,0,0,0-.24-.28.74.74,0,0,0-.4-.1,1,1,0,0,0-.63.23,1.14,1.14,0,0,0-.26.88v1.84Z" transform="translate(1.43 -22.61)"/><path class="cls-6" d="M24.88,77V73.58h.52v.51a1.41,1.41,0,0,1,.36-.47.6.6,0,0,1,.37-.11,1.09,1.09,0,0,1,.58.18l-.19.53a.84.84,0,0,0-.42-.12.51.51,0,0,0-.34.11.58.58,0,0,0-.21.31,2.35,2.35,0,0,0-.1.67V77Z" transform="translate(1.43 -22.61)"/><path class="cls-6" d="M29.26,77v-.49a1.23,1.23,0,0,1-1.07.57,1.3,1.3,0,0,1-.55-.12.91.91,0,0,1-.39-.28,1.11,1.11,0,0,1-.17-.43,2.3,2.3,0,0,1,0-.53V73.58h.57v1.87a2.63,2.63,0,0,0,0,.6.58.58,0,0,0,.23.36.73.73,0,0,0,.43.13.92.92,0,0,0,.48-.14.68.68,0,0,0,.32-.35,1.94,1.94,0,0,0,.09-.66V73.58h.57V77Z" transform="translate(1.43 -22.61)"/><path class="cls-6" d="M30.67,77V73.58h.51v.48a1.22,1.22,0,0,1,1.08-.55,1.47,1.47,0,0,1,.56.1,1,1,0,0,1,.38.29,1.33,1.33,0,0,1,.18.42,3.51,3.51,0,0,1,0,.56V77h-.57v-2a1.62,1.62,0,0,0-.07-.52.5.5,0,0,0-.24-.28.71.71,0,0,0-.39-.1.92.92,0,0,0-.63.23,1.14,1.14,0,0,0-.27.88V77Z" transform="translate(1.43 -22.61)"/><path class="cls-6" d="M34.28,77V73.58h.52v.48a1.2,1.2,0,0,1,1.07-.55,1.47,1.47,0,0,1,.56.1.89.89,0,0,1,.38.29,1,1,0,0,1,.18.42,3.51,3.51,0,0,1,0,.56V77h-.57v-2a1.67,1.67,0,0,0-.06-.52.6.6,0,0,0-.24-.28.74.74,0,0,0-.4-.1,1,1,0,0,0-.63.23,1.14,1.14,0,0,0-.26.88V77Z" transform="translate(1.43 -22.61)"/><path class="cls-6" d="M37.9,73V72.3h.57V73Zm0,4V73.58h.57V77Z" transform="translate(1.43 -22.61)"/><path class="cls-6" d="M39.34,77V73.58h.52v.48a1.2,1.2,0,0,1,1.07-.55,1.47,1.47,0,0,1,.56.1.89.89,0,0,1,.38.29,1,1,0,0,1,.18.42,3.51,3.51,0,0,1,0,.56V77h-.57v-2a1.38,1.38,0,0,0-.07-.52.53.53,0,0,0-.23-.28.77.77,0,0,0-.4-.1,1,1,0,0,0-.63.23,1.14,1.14,0,0,0-.27.88V77Z" transform="translate(1.43 -22.61)"/><path class="cls-6" d="M42.85,77.23l.56.08a.53.53,0,0,0,.19.38,1,1,0,0,0,.58.16,1.09,1.09,0,0,0,.62-.16.82.82,0,0,0,.29-.45,3.76,3.76,0,0,0,0-.73,1.18,1.18,0,0,1-.93.44,1.28,1.28,0,0,1-1.08-.5,1.93,1.93,0,0,1-.38-1.2,2.35,2.35,0,0,1,.17-.89,1.4,1.4,0,0,1,.51-.63,1.35,1.35,0,0,1,.78-.22,1.19,1.19,0,0,1,1,.48v-.41h.53v2.91a2.72,2.72,0,0,1-.16,1.12,1.22,1.22,0,0,1-.51.52,1.7,1.7,0,0,1-.85.19,1.65,1.65,0,0,1-1-.27A.94.94,0,0,1,42.85,77.23Zm.48-2a1.41,1.41,0,0,0,.26,1,.83.83,0,0,0,.66.31.85.85,0,0,0,.66-.3,1.42,1.42,0,0,0,.27-1,1.35,1.35,0,0,0-.28-.94.85.85,0,0,0-1.31,0A1.4,1.4,0,0,0,43.33,75.21Z" transform="translate(1.43 -22.61)"/><path class="cls-6" d="M48.37,77V73.58h.52v.51a1.41,1.41,0,0,1,.36-.47.6.6,0,0,1,.37-.11,1.09,1.09,0,0,1,.58.18l-.19.53a.84.84,0,0,0-.42-.12.51.51,0,0,0-.34.11.58.58,0,0,0-.21.31,2.35,2.35,0,0,0-.1.67V77Z" transform="translate(1.43 -22.61)"/><path class="cls-6" d="M52.74,76.54a2.17,2.17,0,0,1-.61.38,1.81,1.81,0,0,1-.63.11,1.22,1.22,0,0,1-.85-.27.91.91,0,0,1-.3-.7,1,1,0,0,1,.11-.45,1.06,1.06,0,0,1,.3-.33,1.72,1.72,0,0,1,.41-.19l.51-.08a5.33,5.33,0,0,0,1-.2v-.15a.63.63,0,0,0-.16-.49,1,1,0,0,0-.65-.19,1,1,0,0,0-.6.14.83.83,0,0,0-.28.5l-.56-.08A1.34,1.34,0,0,1,50.7,74a1.17,1.17,0,0,1,.5-.34,2.27,2.27,0,0,1,.77-.11,2,2,0,0,1,.7.1.92.92,0,0,1,.4.25.87.87,0,0,1,.17.39,3.08,3.08,0,0,1,0,.53v.76a8.82,8.82,0,0,0,0,1,1.19,1.19,0,0,0,.14.4h-.59A1.31,1.31,0,0,1,52.74,76.54Zm0-1.28a4.52,4.52,0,0,1-.94.22,2.25,2.25,0,0,0-.5.11.45.45,0,0,0-.22.19.5.5,0,0,0,.09.65.78.78,0,0,0,.51.15,1.28,1.28,0,0,0,.59-.14.89.89,0,0,0,.37-.4,1.24,1.24,0,0,0,.1-.57Z" transform="translate(1.43 -22.61)"/><path class="cls-6" d="M54.16,77V73.58h.51v.48a1.22,1.22,0,0,1,1.08-.55,1.47,1.47,0,0,1,.56.1,1,1,0,0,1,.38.29,1.33,1.33,0,0,1,.18.42,3.51,3.51,0,0,1,0,.56V77h-.57v-2a1.62,1.62,0,0,0-.07-.52A.5.5,0,0,0,56,74.1a.71.71,0,0,0-.39-.1,1,1,0,0,0-.64.23,1.18,1.18,0,0,0-.26.88V77Z" transform="translate(1.43 -22.61)"/><path class="cls-6" d="M57.67,77.23l.55.08a.54.54,0,0,0,.2.38,1,1,0,0,0,.58.16,1.05,1.05,0,0,0,.61-.16.77.77,0,0,0,.29-.45,3.07,3.07,0,0,0,0-.73A1.17,1.17,0,0,1,59,77a1.27,1.27,0,0,1-1.07-.5,1.88,1.88,0,0,1-.39-1.2,2.18,2.18,0,0,1,.18-.89A1.34,1.34,0,0,1,59,73.51,1.22,1.22,0,0,1,60,74v-.41h.53v2.91a2.9,2.9,0,0,1-.16,1.12,1.22,1.22,0,0,1-.51.52,1.74,1.74,0,0,1-.86.19,1.61,1.61,0,0,1-1-.27A.92.92,0,0,1,57.67,77.23Zm.47-2a1.41,1.41,0,0,0,.27,1,.81.81,0,0,0,.66.31.85.85,0,0,0,.66-.3,1.48,1.48,0,0,0,.26-1,1.41,1.41,0,0,0-.27-.94.86.86,0,0,0-.66-.31.81.81,0,0,0-.65.31A1.35,1.35,0,0,0,58.14,75.21Z" transform="translate(1.43 -22.61)"/><path class="cls-6" d="M63.7,75.87l.59.07a1.5,1.5,0,0,1-.52.8,1.55,1.55,0,0,1-1,.29,1.52,1.52,0,0,1-1.17-.46,1.76,1.76,0,0,1-.43-1.27A1.86,1.86,0,0,1,61.64,74a1.61,1.61,0,0,1,2.24,0,1.87,1.87,0,0,1,.43,1.3s0,.08,0,.15H61.79a1.26,1.26,0,0,0,.31.85.94.94,0,0,0,.71.3.84.84,0,0,0,.53-.17A1.1,1.1,0,0,0,63.7,75.87Zm-1.88-.93H63.7a1.13,1.13,0,0,0-.21-.64.93.93,0,0,0-1.37-.06A1,1,0,0,0,61.82,74.94Z" transform="translate(1.43 -22.61)"/><rect class="繝後Μ_逋ｽ-2" x="23.72" y="92.62" width="41.46" height="16.58"/><path class="cls-6" d="M28.38,120l.62.16a2,2,0,0,1-.7,1.15,1.88,1.88,0,0,1-1.23.4,2.23,2.23,0,0,1-1.22-.3,2,2,0,0,1-.72-.89,3.24,3.24,0,0,1-.24-1.25,2.83,2.83,0,0,1,.27-1.27,2,2,0,0,1,.79-.82,2.31,2.31,0,0,1,1.13-.28,1.9,1.9,0,0,1,1.18.36,1.88,1.88,0,0,1,.66,1l-.61.14a1.34,1.34,0,0,0-.47-.74,1.2,1.2,0,0,0-.77-.23,1.52,1.52,0,0,0-.9.25,1.38,1.38,0,0,0-.5.69,2.74,2.74,0,0,0-.15.9,2.92,2.92,0,0,0,.17,1,1.35,1.35,0,0,0,.54.67,1.56,1.56,0,0,0,.79.21,1.32,1.32,0,0,0,.88-.29A1.51,1.51,0,0,0,28.38,120Z" transform="translate(1.43 -22.61)"/><path class="cls-6" d="M29.47,119.91a1.76,1.76,0,0,1,.52-1.39,1.58,1.58,0,0,1,1.06-.37,1.53,1.53,0,0,1,1.14.45,1.74,1.74,0,0,1,.44,1.26,2.22,2.22,0,0,1-.2,1,1.36,1.36,0,0,1-.56.58,1.64,1.64,0,0,1-.82.21,1.48,1.48,0,0,1-1.14-.46A1.79,1.79,0,0,1,29.47,119.91Zm.59,0a1.44,1.44,0,0,0,.28,1,.93.93,0,0,0,.71.32.91.91,0,0,0,.71-.32,1.48,1.48,0,0,0,.28-1,1.38,1.38,0,0,0-.28-1,.93.93,0,0,0-.71-.32.9.9,0,0,0-.71.32A1.41,1.41,0,0,0,30.06,119.91Z" transform="translate(1.43 -22.61)"/><path class="cls-6" d="M33.3,121.59v-3.37h.51v.48a1.22,1.22,0,0,1,1.08-.55,1.47,1.47,0,0,1,.56.1,1,1,0,0,1,.38.29A1.33,1.33,0,0,1,36,119a3.6,3.6,0,0,1,0,.56v2.07h-.57v-2a1.38,1.38,0,0,0-.07-.52.5.5,0,0,0-.24-.28.71.71,0,0,0-.39-.1.92.92,0,0,0-.63.23,1.14,1.14,0,0,0-.27.88v1.84Z" transform="translate(1.43 -22.61)"/><path class="cls-6" d="M38.16,121.08l.08.51a2.37,2.37,0,0,1-.43,0,1,1,0,0,1-.48-.1.6.6,0,0,1-.24-.26,2,2,0,0,1-.07-.68v-1.93H36.6v-.45H37v-.83l.57-.35v1.18h.57v.45h-.57v2a1,1,0,0,0,0,.31.18.18,0,0,0,.1.11.34.34,0,0,0,.19,0A1.24,1.24,0,0,0,38.16,121.08Z" transform="translate(1.43 -22.61)"/><path class="cls-6" d="M38.72,117.6v-.66h.57v.66Zm0,4v-3.37h.57v3.37Z" transform="translate(1.43 -22.61)"/><path class="cls-6" d="M40.16,121.59v-3.37h.52v.48a1.2,1.2,0,0,1,1.07-.55,1.47,1.47,0,0,1,.56.1.89.89,0,0,1,.38.29,1,1,0,0,1,.18.42,3.6,3.6,0,0,1,0,.56v2.07h-.57v-2a1.67,1.67,0,0,0-.06-.52.6.6,0,0,0-.24-.28.74.74,0,0,0-.4-.1,1,1,0,0,0-.63.23,1.14,1.14,0,0,0-.26.88v1.84Z" transform="translate(1.43 -22.61)"/><path class="cls-6" d="M46,121.59v-.49a1.23,1.23,0,0,1-1.07.57,1.31,1.31,0,0,1-.56-.12.88.88,0,0,1-.38-.28,1.12,1.12,0,0,1-.18-.43,3.33,3.33,0,0,1,0-.53v-2.09h.57v1.87a3.77,3.77,0,0,0,0,.6.68.68,0,0,0,.23.36.75.75,0,0,0,.43.13,1.05,1.05,0,0,0,.49-.13.72.72,0,0,0,.31-.36,1.66,1.66,0,0,0,.1-.66v-1.81h.57v3.37Z" transform="translate(1.43 -22.61)"/><path class="cls-6" d="M47.18,119.91a1.76,1.76,0,0,1,.52-1.39,1.58,1.58,0,0,1,1.06-.37,1.53,1.53,0,0,1,1.14.45,1.74,1.74,0,0,1,.44,1.26,2.22,2.22,0,0,1-.2,1,1.42,1.42,0,0,1-.56.58,1.64,1.64,0,0,1-.82.21,1.48,1.48,0,0,1-1.14-.46A1.79,1.79,0,0,1,47.18,119.91Zm.59,0a1.44,1.44,0,0,0,.28,1,.93.93,0,0,0,.71.32.91.91,0,0,0,.71-.32,1.48,1.48,0,0,0,.28-1,1.38,1.38,0,0,0-.28-1,.93.93,0,0,0-.71-.32.9.9,0,0,0-.71.32A1.41,1.41,0,0,0,47.77,119.91Z" transform="translate(1.43 -22.61)"/><path class="cls-6" d="M53.22,121.59v-.49a1.23,1.23,0,0,1-1.07.57,1.31,1.31,0,0,1-.56-.12.88.88,0,0,1-.38-.28,1.12,1.12,0,0,1-.18-.43,3.33,3.33,0,0,1,0-.53v-2.09h.57v1.87a3.77,3.77,0,0,0,0,.6.68.68,0,0,0,.23.36.75.75,0,0,0,.43.13,1.05,1.05,0,0,0,.49-.13.72.72,0,0,0,.31-.36,1.66,1.66,0,0,0,.1-.66v-1.81h.57v3.37Z" transform="translate(1.43 -22.61)"/><path class="cls-6" d="M54.4,120.59l.56-.09a.78.78,0,0,0,.27.52.9.9,0,0,0,.6.18.89.89,0,0,0,.59-.16.5.5,0,0,0,.19-.38.34.34,0,0,0-.17-.3,2.49,2.49,0,0,0-.58-.2,5,5,0,0,1-.88-.27.86.86,0,0,1-.49-.77,1,1,0,0,1,.1-.42.89.89,0,0,1,.29-.32,1.1,1.1,0,0,1,.36-.17,1.93,1.93,0,0,1,.49-.06,1.87,1.87,0,0,1,.7.11.94.94,0,0,1,.44.31,1.18,1.18,0,0,1,.2.52l-.56.08a.64.64,0,0,0-.22-.41.79.79,0,0,0-.52-.14,1,1,0,0,0-.56.12.4.4,0,0,0-.17.31.37.37,0,0,0,.07.2.53.53,0,0,0,.22.15l.51.15a7.54,7.54,0,0,1,.84.26.88.88,0,0,1,.38.3.86.86,0,0,1,.14.49,1,1,0,0,1-.17.54,1,1,0,0,1-.48.39,1.8,1.8,0,0,1-.71.14,1.57,1.57,0,0,1-1-.27A1.29,1.29,0,0,1,54.4,120.59Z" transform="translate(1.43 -22.61)"/><path class="cls-6" d="M25,129.39V126h.52v.51a1.41,1.41,0,0,1,.36-.47.6.6,0,0,1,.37-.11,1.15,1.15,0,0,1,.59.18l-.2.53a.84.84,0,0,0-.42-.12.51.51,0,0,0-.34.11.58.58,0,0,0-.21.31,2.36,2.36,0,0,0-.09.67v1.76Z" transform="translate(1.43 -22.61)"/><path class="cls-6" d="M29.36,129.39v-.49a1.22,1.22,0,0,1-1.07.57,1.3,1.3,0,0,1-.55-.12,1,1,0,0,1-.39-.28,1.11,1.11,0,0,1-.17-.43,2.3,2.3,0,0,1,0-.53V126h.57v1.87a2.63,2.63,0,0,0,0,.6.58.58,0,0,0,.23.36.73.73,0,0,0,.43.13,1,1,0,0,0,.48-.13.74.74,0,0,0,.32-.36,1.9,1.9,0,0,0,.09-.66V126h.57v3.37Z" transform="translate(1.43 -22.61)"/><path class="cls-6" d="M30.77,129.39V126h.51v.48a1.22,1.22,0,0,1,1.08-.55,1.47,1.47,0,0,1,.56.1.89.89,0,0,1,.38.29,1.33,1.33,0,0,1,.18.42,3.6,3.6,0,0,1,0,.56v2.07h-.57v-2a1.38,1.38,0,0,0-.07-.52.5.5,0,0,0-.24-.28.71.71,0,0,0-.39-.1.92.92,0,0,0-.63.23,1.14,1.14,0,0,0-.27.88v1.84Z" transform="translate(1.43 -22.61)"/><path class="cls-6" d="M34.38,129.39V126h.52v.48A1.2,1.2,0,0,1,36,126a1.47,1.47,0,0,1,.56.1.89.89,0,0,1,.38.29,1,1,0,0,1,.18.42,3.6,3.6,0,0,1,0,.56v2.07h-.57v-2a1.67,1.67,0,0,0-.06-.52.6.6,0,0,0-.24-.28.74.74,0,0,0-.4-.1,1,1,0,0,0-.63.23,1.14,1.14,0,0,0-.26.88v1.84Z" transform="translate(1.43 -22.61)"/><path class="cls-6" d="M38,125.4v-.66h.57v.66Zm0,4V126h.57v3.37Z" transform="translate(1.43 -22.61)"/><path class="cls-6" d="M39.44,129.39V126H40v.48A1.2,1.2,0,0,1,41,126a1.47,1.47,0,0,1,.56.1.89.89,0,0,1,.38.29,1,1,0,0,1,.18.42,3.6,3.6,0,0,1,0,.56v2.07h-.57v-2a1.67,1.67,0,0,0-.06-.52.6.6,0,0,0-.24-.28.74.74,0,0,0-.4-.1,1,1,0,0,0-.63.23,1.14,1.14,0,0,0-.26.88v1.84Z" transform="translate(1.43 -22.61)"/><path class="cls-6" d="M43,129.67l.56.08a.53.53,0,0,0,.19.38,1,1,0,0,0,.58.16,1.09,1.09,0,0,0,.62-.16.82.82,0,0,0,.29-.45,3.76,3.76,0,0,0,0-.73,1.15,1.15,0,0,1-.93.44,1.28,1.28,0,0,1-1.08-.5,1.93,1.93,0,0,1-.38-1.2,2.35,2.35,0,0,1,.17-.89,1.46,1.46,0,0,1,.51-.63,1.35,1.35,0,0,1,.78-.22,1.19,1.19,0,0,1,1,.48V126h.53v2.92a2.7,2.7,0,0,1-.16,1.11,1.22,1.22,0,0,1-.51.52,1.7,1.7,0,0,1-.85.19,1.65,1.65,0,0,1-1-.27A1,1,0,0,1,43,129.67Zm.48-2a1.41,1.41,0,0,0,.26,1,.83.83,0,0,0,.66.31.85.85,0,0,0,.66-.3,1.42,1.42,0,0,0,.27-1,1.35,1.35,0,0,0-.28-.94.85.85,0,0,0-1.31,0A1.4,1.4,0,0,0,43.43,127.65Z" transform="translate(1.43 -22.61)"/><path class="cls-6" d="M48.47,129.39V126H49v.51a1.41,1.41,0,0,1,.36-.47.6.6,0,0,1,.37-.11,1.09,1.09,0,0,1,.58.18l-.19.53a.84.84,0,0,0-.42-.12.51.51,0,0,0-.34.11.58.58,0,0,0-.21.31,2.35,2.35,0,0,0-.1.67v1.76Z" transform="translate(1.43 -22.61)"/><path class="cls-6" d="M52.84,129a2.17,2.17,0,0,1-.61.38,1.81,1.81,0,0,1-.63.11,1.22,1.22,0,0,1-.85-.27.91.91,0,0,1-.3-.7,1,1,0,0,1,.11-.45,1.06,1.06,0,0,1,.3-.33,1.38,1.38,0,0,1,.41-.18,4.17,4.17,0,0,1,.51-.09,5.33,5.33,0,0,0,1-.2v-.15a.63.63,0,0,0-.16-.49,1,1,0,0,0-.65-.19,1,1,0,0,0-.6.14.83.83,0,0,0-.28.5l-.56-.08a1.34,1.34,0,0,1,.25-.58,1.17,1.17,0,0,1,.5-.34,2.27,2.27,0,0,1,.77-.11,2,2,0,0,1,.7.1.92.92,0,0,1,.4.25,1.08,1.08,0,0,1,.18.39c0,.1,0,.27,0,.53V128a8.82,8.82,0,0,0,0,1,1.19,1.19,0,0,0,.14.4H53A1.31,1.31,0,0,1,52.84,129Zm0-1.28a4,4,0,0,1-.94.22,2.25,2.25,0,0,0-.5.11.45.45,0,0,0-.22.19.5.5,0,0,0,.09.65.78.78,0,0,0,.51.15,1.25,1.25,0,0,0,.59-.14.89.89,0,0,0,.37-.4,1.24,1.24,0,0,0,.1-.57Z" transform="translate(1.43 -22.61)"/><path class="cls-6" d="M54.26,129.39V126h.51v.48a1.22,1.22,0,0,1,1.08-.55,1.47,1.47,0,0,1,.56.1,1,1,0,0,1,.38.29,1.33,1.33,0,0,1,.18.42,3.6,3.6,0,0,1,0,.56v2.07h-.57v-2a1.62,1.62,0,0,0-.07-.52.5.5,0,0,0-.24-.28.71.71,0,0,0-.39-.1.92.92,0,0,0-.63.23,1.14,1.14,0,0,0-.27.88v1.84Z" transform="translate(1.43 -22.61)"/><path class="cls-6" d="M57.77,129.67l.56.08a.5.5,0,0,0,.19.38,1,1,0,0,0,.58.16,1.05,1.05,0,0,0,.61-.16.77.77,0,0,0,.29-.45,3.49,3.49,0,0,0,0-.73,1.17,1.17,0,0,1-.94.44,1.27,1.27,0,0,1-1.07-.5,1.87,1.87,0,0,1-.38-1.2,2.17,2.17,0,0,1,.17-.89,1.46,1.46,0,0,1,.51-.63,1.35,1.35,0,0,1,.78-.22,1.22,1.22,0,0,1,1,.48V126h.53v2.92a2.88,2.88,0,0,1-.16,1.11,1.22,1.22,0,0,1-.51.52,1.74,1.74,0,0,1-.86.19,1.61,1.61,0,0,1-1-.27A.92.92,0,0,1,57.77,129.67Zm.47-2a1.41,1.41,0,0,0,.27,1,.81.81,0,0,0,.66.31.85.85,0,0,0,.66-.3,1.48,1.48,0,0,0,.26-1,1.41,1.41,0,0,0-.27-.94.83.83,0,0,0-.66-.31.81.81,0,0,0-.65.31A1.35,1.35,0,0,0,58.24,127.65Z" transform="translate(1.43 -22.61)"/><path class="cls-6" d="M63.8,128.31l.59.07a1.5,1.5,0,0,1-.52.8,1.55,1.55,0,0,1-1,.29,1.52,1.52,0,0,1-1.17-.46,1.76,1.76,0,0,1-.43-1.27,1.86,1.86,0,0,1,.44-1.32,1.58,1.58,0,0,1,2.24,0,1.82,1.82,0,0,1,.43,1.29s0,.09,0,.15H61.89a1.32,1.32,0,0,0,.31.85.94.94,0,0,0,.71.3.84.84,0,0,0,.53-.17A1.1,1.1,0,0,0,63.8,128.31Zm-1.88-.93H63.8a1.07,1.07,0,0,0-.21-.63.85.85,0,0,0-.71-.33.89.89,0,0,0-.66.26A1,1,0,0,0,61.92,127.38Z" transform="translate(1.43 -22.61)"/><path class="cls-6" d="M3.22,98.26H-.88v1.53h-.55V96.1h.55v1.54h4.1Z" transform="translate(1.43 -22.61)"/><path class="cls-6" d="M1.54,95.76a1.73,1.73,0,0,1-1.39-.53,1.56,1.56,0,0,1-.37-1.06A1.51,1.51,0,0,1,.23,93a1.7,1.7,0,0,1,1.26-.44,2.24,2.24,0,0,1,1,.19,1.39,1.39,0,0,1,.58.57,1.63,1.63,0,0,1,.21.81,1.49,1.49,0,0,1-.46,1.15A1.79,1.79,0,0,1,1.54,95.76Zm0-.59a1.5,1.5,0,0,0,1-.28.93.93,0,0,0,.32-.72.89.89,0,0,0-.33-.7,1.43,1.43,0,0,0-1-.29,1.4,1.4,0,0,0-.95.29.91.91,0,0,0-.32.7.93.93,0,0,0,.32.72A1.48,1.48,0,0,0,1.54,95.17Z" transform="translate(1.43 -22.61)"/><path class="cls-6" d="M3.22,91.93H-.15v-.51H.36a1.41,1.41,0,0,1-.47-.36.64.64,0,0,1-.11-.37A1.15,1.15,0,0,1,0,90.1l.53.2a.84.84,0,0,0-.12.42.51.51,0,0,0,.11.33.65.65,0,0,0,.31.22,2.36,2.36,0,0,0,.67.09H3.22Z" transform="translate(1.43 -22.61)"/><path class="cls-6" d="M4.51,87.61H2.86a1,1,0,0,1,.31.38,1,1,0,0,1,.13.51,1.34,1.34,0,0,1-.48,1A1.88,1.88,0,0,1,1.51,90a2.43,2.43,0,0,1-.92-.17A1.4,1.4,0,0,1,0,89.28a1.37,1.37,0,0,1-.2-.74,1.12,1.12,0,0,1,.52-1H-.15V87H4.51Zm-3,1.77a1.48,1.48,0,0,0,1-.28.82.82,0,0,0,.33-.65.8.8,0,0,0-.31-.63,1.41,1.41,0,0,0-.94-.26,1.58,1.58,0,0,0-1,.27.83.83,0,0,0-.34.66.8.8,0,0,0,.31.63A1.56,1.56,0,0,0,1.53,89.38Z" transform="translate(1.43 -22.61)"/><path class="cls-6" d="M3.22,83.94H2.73A1.23,1.23,0,0,1,3.3,85a1.34,1.34,0,0,1-.12.56A.88.88,0,0,1,2.9,86a1.3,1.3,0,0,1-.43.18,3.33,3.33,0,0,1-.53,0H-.15v-.57H1.72a2.63,2.63,0,0,0,.6,0,.61.61,0,0,0,.36-.22.76.76,0,0,0,.13-.44,1,1,0,0,0-.13-.48.79.79,0,0,0-.36-.32A1.9,1.9,0,0,0,1.66,84H-.15v-.57H3.22Z" transform="translate(1.43 -22.61)"/><path class="cls-6" d="M2.14,80.23l.07-.59a1.43,1.43,0,0,1,.8.51,1.57,1.57,0,0,1,.29,1,1.52,1.52,0,0,1-.46,1.17,1.76,1.76,0,0,1-1.27.43,1.86,1.86,0,0,1-1.32-.43,1.49,1.49,0,0,1-.47-1.14A1.45,1.45,0,0,1,.24,80a1.82,1.82,0,0,1,1.29-.42h.15v2.51a1.26,1.26,0,0,0,.85-.31.93.93,0,0,0,.3-.71.86.86,0,0,0-.17-.53A1,1,0,0,0,2.14,80.23ZM1.21,82.1V80.22a1.07,1.07,0,0,0-.63.22.86.86,0,0,0-.33.7.87.87,0,0,0,.26.66A1,1,0,0,0,1.21,82.1Z" transform="translate(1.43 -22.61)"/><path class="cls-6" d="M4.51,77.1H-1.43V75.84H-1v.69H4v-.69h.47Z" transform="translate(1.43 -22.61)"/><path class="cls-6" d="M3.22,75.24H-1.43v-.63l3.65-2.45H-1.43v-.59H3.22v.64L-.43,74.65H3.22Z" transform="translate(1.43 -22.61)"/><path class="cls-6" d="M.94,70.69a.73.73,0,0,1-.56-.23.8.8,0,0,1,0-1.14.73.73,0,0,1,.56-.23.74.74,0,0,1,.57.23.8.8,0,0,1,0,1.14A.74.74,0,0,1,.94,70.69Z" transform="translate(1.43 -22.61)"/><path class="cls-6" d="M3.22,68.34H-.15v-.51H.32a1.24,1.24,0,0,1-.39-.43,1.16,1.16,0,0,1-.15-.6,1.13,1.13,0,0,1,.15-.61.84.84,0,0,1,.44-.34,1.2,1.2,0,0,1-.59-1A1,1,0,0,1,.05,64a1.2,1.2,0,0,1,.86-.27H3.22v.57H1.1a1.82,1.82,0,0,0-.49,0,.5.5,0,0,0-.25.2.68.68,0,0,0-.09.35.81.81,0,0,0,.24.59,1.05,1.05,0,0,0,.75.23h2v.57H1a1,1,0,0,0-.57.14.54.54,0,0,0-.19.46.81.81,0,0,0,.13.45.72.72,0,0,0,.37.29,2.08,2.08,0,0,0,.7.1H3.22Z" transform="translate(1.43 -22.61)"/><path class="cls-6" d="M4.51,62v1.26H4v-.69H-1v.69h-.47V62Z" transform="translate(1.43 -22.61)"/><path class="cls-6" d="M44.05,150.56l.58-.06a1.32,1.32,0,0,0,.19.58,1,1,0,0,0,.47.36,1.8,1.8,0,0,0,.71.14,1.73,1.73,0,0,0,.63-.11.87.87,0,0,0,.4-.28.68.68,0,0,0,.13-.4.59.59,0,0,0-.13-.39.92.92,0,0,0-.42-.27c-.12,0-.4-.12-.83-.23a4.15,4.15,0,0,1-.89-.29,1.19,1.19,0,0,1-.5-.43,1.06,1.06,0,0,1-.16-.58,1.16,1.16,0,0,1,.2-.66,1.18,1.18,0,0,1,.58-.46,2.15,2.15,0,0,1,.85-.16,2.4,2.4,0,0,1,.92.16,1.35,1.35,0,0,1,.6.5,1.32,1.32,0,0,1,.23.73l-.59,0a1,1,0,0,0-.32-.66,1.24,1.24,0,0,0-.81-.23,1.27,1.27,0,0,0-.81.21.61.61,0,0,0-.26.49A.52.52,0,0,0,45,149a2.39,2.39,0,0,0,.93.33,7.58,7.58,0,0,1,1,.3,1.47,1.47,0,0,1,.6.47,1.19,1.19,0,0,1,.19.67,1.3,1.3,0,0,1-.21.7,1.47,1.47,0,0,1-.61.51,2.19,2.19,0,0,1-.9.18A2.76,2.76,0,0,1,45,152a1.59,1.59,0,0,1-.67-.56A1.56,1.56,0,0,1,44.05,150.56Z" transform="translate(1.43 -22.61)"/><path class="cls-6" d="M48.52,153.34v-4.66H49v.44a1.29,1.29,0,0,1,.42-.39,1.19,1.19,0,0,1,.56-.13,1.31,1.31,0,0,1,.76.23,1.29,1.29,0,0,1,.5.62,2.35,2.35,0,0,1,.17.89,2.18,2.18,0,0,1-.19.93,1.36,1.36,0,0,1-.54.64,1.42,1.42,0,0,1-.74.22,1.14,1.14,0,0,1-.52-.12,1.25,1.25,0,0,1-.37-.31v1.64Zm.52-3a1.52,1.52,0,0,0,.26,1,.84.84,0,0,0,.64.31.82.82,0,0,0,.65-.33,1.5,1.5,0,0,0,.27-1,1.56,1.56,0,0,0-.26-1,.79.79,0,0,0-1.28,0A1.52,1.52,0,0,0,49,150.38Z" transform="translate(1.43 -22.61)"/><path class="cls-6" d="M54.44,151,55,151a1.43,1.43,0,0,1-.51.8,1.6,1.6,0,0,1-1,.29,1.56,1.56,0,0,1-1.17-.46,1.77,1.77,0,0,1-.43-1.28,1.89,1.89,0,0,1,.43-1.32,1.51,1.51,0,0,1,1.14-.47,1.45,1.45,0,0,1,1.1.46,1.82,1.82,0,0,1,.43,1.3v.15H52.54a1.28,1.28,0,0,0,.31.85.92.92,0,0,0,.7.3.89.89,0,0,0,.54-.17A1,1,0,0,0,54.44,151ZM52.57,150h1.88a1.18,1.18,0,0,0-.22-.64.86.86,0,0,0-.7-.33.9.9,0,0,0-.67.27A1.07,1.07,0,0,0,52.57,150Z" transform="translate(1.43 -22.61)"/><path class="cls-6" d="M58.06,151l.59.08a1.44,1.44,0,0,1-.52.8,1.54,1.54,0,0,1-1,.29,1.57,1.57,0,0,1-1.18-.46,1.77,1.77,0,0,1-.43-1.28,1.9,1.9,0,0,1,.44-1.32,1.49,1.49,0,0,1,1.13-.47,1.47,1.47,0,0,1,1.11.46,1.87,1.87,0,0,1,.43,1.3,1,1,0,0,1,0,.15H56.15a1.34,1.34,0,0,0,.31.85.94.94,0,0,0,.71.3.89.89,0,0,0,.54-.17A1.14,1.14,0,0,0,58.06,151ZM56.18,150h1.88a1.1,1.1,0,0,0-.21-.64.88.88,0,0,0-.71-.33.9.9,0,0,0-.66.27A1,1,0,0,0,56.18,150Z" transform="translate(1.43 -22.61)"/><path class="cls-6" d="M61.55,152.05v-.42a1.05,1.05,0,0,1-.94.5,1.3,1.3,0,0,1-.74-.23,1.33,1.33,0,0,1-.52-.62,2,2,0,0,1-.19-.91,2.47,2.47,0,0,1,.17-.92,1.37,1.37,0,0,1,.5-.63,1.43,1.43,0,0,1,.75-.22,1.21,1.21,0,0,1,.55.13,1.14,1.14,0,0,1,.38.34V147.4h.57v4.65Zm-1.8-1.68a1.5,1.5,0,0,0,.27,1,.83.83,0,0,0,.64.32.82.82,0,0,0,.64-.31,1.43,1.43,0,0,0,.26-.93,1.64,1.64,0,0,0-.26-1,.81.81,0,0,0-.66-.32.78.78,0,0,0-.64.31A1.54,1.54,0,0,0,59.75,150.37Z" transform="translate(1.43 -22.61)"/><path class="cls-6" d="M64.8,153.34V147.4h1.26v.47h-.69v5h.69v.47Z" transform="translate(1.43 -22.61)"/><path class="cls-6" d="M66.59,152.05v-3.37h.51v.51a1.31,1.31,0,0,1,.36-.47.63.63,0,0,1,.37-.12,1.17,1.17,0,0,1,.59.19l-.2.53a.86.86,0,0,0-.42-.13.52.52,0,0,0-.33.12.65.65,0,0,0-.22.31,2.31,2.31,0,0,0-.09.67v1.76Z" transform="translate(1.43 -22.61)"/><path class="cls-6" d="M68.33,152.13l1.35-4.81h.45l-1.34,4.81Z" transform="translate(1.43 -22.61)"/><path class="cls-6" d="M70.56,152.05v-3.37h.51v.47a1.27,1.27,0,0,1,.43-.4,1.16,1.16,0,0,1,.6-.15,1.13,1.13,0,0,1,.61.16.86.86,0,0,1,.34.43,1.2,1.2,0,0,1,1-.59,1.05,1.05,0,0,1,.77.28,1.2,1.2,0,0,1,.27.86v2.31h-.57v-2.12a1.91,1.91,0,0,0,0-.5.49.49,0,0,0-.21-.24.62.62,0,0,0-.34-.09.81.81,0,0,0-.59.24,1,1,0,0,0-.23.75v2h-.57v-2.19a1,1,0,0,0-.14-.57.54.54,0,0,0-.46-.19.81.81,0,0,0-.45.13.69.69,0,0,0-.29.37,1.82,1.82,0,0,0-.1.7v1.75Z" transform="translate(1.43 -22.61)"/><path class="cls-6" d="M76,148.05v-.65h.57v.65Zm0,4v-3.37h.57v3.37Z" transform="translate(1.43 -22.61)"/><path class="cls-6" d="M77.42,152.05v-3.37h.52v.48A1.2,1.2,0,0,1,79,148.6a1.47,1.47,0,0,1,.56.11A.89.89,0,0,1,80,149a1,1,0,0,1,.18.42,3.51,3.51,0,0,1,0,.56v2.07h-.57V150a1.38,1.38,0,0,0-.07-.52.53.53,0,0,0-.23-.28.77.77,0,0,0-.4-.1.92.92,0,0,0-.63.23,1.13,1.13,0,0,0-.27.88v1.84Z" transform="translate(1.43 -22.61)"/><path class="cls-6" d="M82,153.34H80.73v-.47h.69v-5h-.69v-.47H82Z" transform="translate(1.43 -22.61)"/></g></svg>