<svg xmlns="http://www.w3.org/2000/svg" viewBox="0 0 115.87 131.43"><defs><style>.cls-1{fill:#231815;}.cls-2,.cls-3,.繝医Ν繧ｯ繧ｰ繝ｩ繝廟繧ｰ繝ｬ繝ｼ邱,.邱喟0\.5pt{fill:none;}.cls-2,.cls-3,.邱喟0\.5pt{stroke:#231815;}.cls-2,.邱喟0\.5pt{stroke-miterlimit:10;}.cls-2{stroke-width:0.14px;}.繝医Ν繧ｯ繧ｰ繝ｩ繝廟繧ｰ繝ｬ繝ｼ邱{stroke:#9fa0a0;stroke-width:3px;}.繝後Μ_逋ｽ{fill:#fff;}.邱喟0\.5pt{stroke-width:0.5px;}</style></defs><g id="Illust"><path class="cls-1" d="M17.24,141.39a3.54,3.54,0,0,1,.13-1,1.33,1.33,0,0,1,.39-.59,1,1,0,0,1,.65-.21,1.12,1.12,0,0,1,.5.11.9.9,0,0,1,.36.34,1.73,1.73,0,0,1,.23.53,3.76,3.76,0,0,1,.08.85,3.44,3.44,0,0,1-.13,1,1.31,1.31,0,0,1-.39.6,1,1,0,0,1-.65.21,1,1,0,0,1-.81-.37A2.32,2.32,0,0,1,17.24,141.39Zm.45,0a2.23,2.23,0,0,0,.21,1.17.59.59,0,0,0,1,0,3.55,3.55,0,0,0,0-2.35.63.63,0,0,0-.52-.29.56.56,0,0,0-.48.26A2.28,2.28,0,0,0,17.69,141.39Z" transform="translate(1.42 -21.92)"/><path class="cls-1" d="M10.26,137.13a3.17,3.17,0,0,1,.14-1,1.27,1.27,0,0,1,.38-.6,1,1,0,0,1,.65-.21,1,1,0,0,1,.87.46,2,2,0,0,1,.22.53,3.72,3.72,0,0,1,.08.84,3.2,3.2,0,0,1-.13,1,1.31,1.31,0,0,1-.39.6,1,1,0,0,1-.65.21,1,1,0,0,1-.81-.37A2.33,2.33,0,0,1,10.26,137.13Zm.46,0a2.38,2.38,0,0,0,.2,1.18.59.59,0,0,0,1,0,2.25,2.25,0,0,0,.21-1.18,2.18,2.18,0,0,0-.21-1.17.62.62,0,0,0-.51-.29.56.56,0,0,0-.49.26A2.26,2.26,0,0,0,10.72,137.13Z" transform="translate(1.42 -21.92)"/><path class="cls-1" d="M13.29,138.9v-.5h.5v.5Z" transform="translate(1.42 -21.92)"/><path class="cls-1" d="M14.43,137.13a3.17,3.17,0,0,1,.14-1,1.27,1.27,0,0,1,.38-.6,1,1,0,0,1,.65-.21,1,1,0,0,1,.87.46,2,2,0,0,1,.22.53,3.72,3.72,0,0,1,.08.84,3.2,3.2,0,0,1-.13,1,1.31,1.31,0,0,1-.39.6,1,1,0,0,1-.65.21,1,1,0,0,1-.81-.37A2.33,2.33,0,0,1,14.43,137.13Zm.46,0a2.38,2.38,0,0,0,.2,1.18.59.59,0,0,0,1,0,2.25,2.25,0,0,0,.21-1.18,2.18,2.18,0,0,0-.21-1.17.62.62,0,0,0-.51-.29.56.56,0,0,0-.49.26A2.26,2.26,0,0,0,14.89,137.13Z" transform="translate(1.42 -21.92)"/><path class="cls-1" d="M37.4,143.15H37v-2.8a2.07,2.07,0,0,1-.41.3,3.27,3.27,0,0,1-.46.23v-.43a2.37,2.37,0,0,0,.64-.42,1.76,1.76,0,0,0,.39-.47h.28Z" transform="translate(1.42 -21.92)"/><path class="cls-1" d="M38.53,141.38a3.2,3.2,0,0,1,.13-1,1.28,1.28,0,0,1,.39-.59,1.14,1.14,0,0,1,1.15-.1.9.9,0,0,1,.36.34,1.73,1.73,0,0,1,.22.53,4.23,4.23,0,0,1-.05,1.86,1.22,1.22,0,0,1-.38.6,1.1,1.1,0,0,1-1.47-.16A2.41,2.41,0,0,1,38.53,141.38Zm.45,0a2.25,2.25,0,0,0,.21,1.18.6.6,0,0,0,.51.29.62.62,0,0,0,.51-.29,2.38,2.38,0,0,0,.2-1.18,2.34,2.34,0,0,0-.2-1.17.63.63,0,0,0-.52-.29.56.56,0,0,0-.48.26A2.24,2.24,0,0,0,39,141.38Z" transform="translate(1.42 -21.92)"/><path class="cls-1" d="M41.31,141.38a3.2,3.2,0,0,1,.13-1,1.28,1.28,0,0,1,.39-.59,1.14,1.14,0,0,1,1.15-.1.9.9,0,0,1,.36.34,1.51,1.51,0,0,1,.22.53,4.23,4.23,0,0,1-.05,1.86,1.22,1.22,0,0,1-.38.6,1.1,1.1,0,0,1-1.47-.16A2.41,2.41,0,0,1,41.31,141.38Zm.45,0a2.25,2.25,0,0,0,.21,1.18.59.59,0,0,0,1,0,2.38,2.38,0,0,0,.2-1.18,2.34,2.34,0,0,0-.2-1.17.63.63,0,0,0-.52-.29.56.56,0,0,0-.48.26A2.24,2.24,0,0,0,41.76,141.38Z" transform="translate(1.42 -21.92)"/><path class="cls-1" d="M44.09,141.38a3.2,3.2,0,0,1,.13-1,1.28,1.28,0,0,1,.39-.59,1.14,1.14,0,0,1,1.15-.1.9.9,0,0,1,.36.34,1.51,1.51,0,0,1,.22.53,3.16,3.16,0,0,1,.09.84,3.52,3.52,0,0,1-.13,1,1.31,1.31,0,0,1-.39.6,1,1,0,0,1-.65.21,1,1,0,0,1-.81-.37A2.33,2.33,0,0,1,44.09,141.38Zm.45,0a2.25,2.25,0,0,0,.21,1.18.59.59,0,0,0,1,0,2.38,2.38,0,0,0,.2-1.18,2.34,2.34,0,0,0-.2-1.17.63.63,0,0,0-.52-.29.56.56,0,0,0-.48.26A2.24,2.24,0,0,0,44.54,141.38Z" transform="translate(1.42 -21.92)"/><path class="cls-1" d="M60.74,142.73v.42H58.37a.81.81,0,0,1,.05-.31,1.58,1.58,0,0,1,.29-.47,3.81,3.81,0,0,1,.57-.54,4.87,4.87,0,0,0,.79-.76.9.9,0,0,0,.21-.53.58.58,0,0,0-.19-.44.67.67,0,0,0-.49-.18.65.65,0,0,0-.5.19.75.75,0,0,0-.2.53l-.45,0a1.12,1.12,0,0,1,.35-.77,1.16,1.16,0,0,1,.81-.26,1.13,1.13,0,0,1,.82.28.94.94,0,0,1,.3.71,1.06,1.06,0,0,1-.09.42,1.51,1.51,0,0,1-.29.44,8.11,8.11,0,0,1-.68.63,6.1,6.1,0,0,0-.5.45,1.33,1.33,0,0,0-.19.24Z" transform="translate(1.42 -21.92)"/><path class="cls-1" d="M61.21,141.38a3.2,3.2,0,0,1,.13-1,1.14,1.14,0,0,1,.39-.59,1,1,0,0,1,.64-.21,1,1,0,0,1,.51.11,1.06,1.06,0,0,1,.36.34,1.73,1.73,0,0,1,.22.53,3.72,3.72,0,0,1,.08.84,3.2,3.2,0,0,1-.13,1,1.23,1.23,0,0,1-.39.6,1.09,1.09,0,0,1-1.46-.16A2.34,2.34,0,0,1,61.21,141.38Zm.45,0a2.38,2.38,0,0,0,.2,1.18.59.59,0,0,0,1,0,2.25,2.25,0,0,0,.21-1.18,2.2,2.2,0,0,0-.21-1.17.62.62,0,0,0-.51-.29.59.59,0,0,0-.49.26A2.26,2.26,0,0,0,61.66,141.38Z" transform="translate(1.42 -21.92)"/><path class="cls-1" d="M64,141.38a3.2,3.2,0,0,1,.13-1,1.14,1.14,0,0,1,.39-.59,1,1,0,0,1,.64-.21,1,1,0,0,1,.51.11A1.06,1.06,0,0,1,66,140a1.73,1.73,0,0,1,.22.53,3.72,3.72,0,0,1,.08.84,3.2,3.2,0,0,1-.13,1,1.17,1.17,0,0,1-.39.6,1.09,1.09,0,0,1-1.46-.16A2.41,2.41,0,0,1,64,141.38Zm.45,0a2.38,2.38,0,0,0,.2,1.18.62.62,0,0,0,.51.29.6.6,0,0,0,.51-.29,2.25,2.25,0,0,0,.21-1.18,2.2,2.2,0,0,0-.21-1.17.61.61,0,0,0-.51-.29.56.56,0,0,0-.48.26A2.15,2.15,0,0,0,64.44,141.38Z" transform="translate(1.42 -21.92)"/><path class="cls-1" d="M66.77,141.38a3.2,3.2,0,0,1,.13-1,1.2,1.2,0,0,1,.39-.59,1,1,0,0,1,.64-.21,1,1,0,0,1,.51.11,1,1,0,0,1,.36.34,1.73,1.73,0,0,1,.22.53,3.72,3.72,0,0,1,.08.84,3.2,3.2,0,0,1-.13,1,1.22,1.22,0,0,1-.38.6,1,1,0,0,1-.66.21,1,1,0,0,1-.81-.37A2.41,2.41,0,0,1,66.77,141.38Zm.45,0a2.25,2.25,0,0,0,.21,1.18.58.58,0,0,0,1,0,2.25,2.25,0,0,0,.21-1.18,2.2,2.2,0,0,0-.21-1.17.61.61,0,0,0-.51-.29.56.56,0,0,0-.48.26A2.24,2.24,0,0,0,67.22,141.38Z" transform="translate(1.42 -21.92)"/><path class="cls-1" d="M81.1,142.2l.44,0a.94.94,0,0,0,.26.53.64.64,0,0,0,.44.17.69.69,0,0,0,.53-.22.72.72,0,0,0,.21-.53.65.65,0,0,0-.2-.5.66.66,0,0,0-.5-.19,1,1,0,0,0-.31.05l0-.39h.07a.89.89,0,0,0,.51-.14.5.5,0,0,0,.22-.45.52.52,0,0,0-.16-.4.57.57,0,0,0-.42-.16.57.57,0,0,0-.43.16.77.77,0,0,0-.22.48l-.44-.08a1,1,0,0,1,1.08-.92,1.18,1.18,0,0,1,.53.12,1,1,0,0,1,.38.34.88.88,0,0,1,.13.47.79.79,0,0,1-.12.42.8.8,0,0,1-.37.3.82.82,0,0,1,.49.3.93.93,0,0,1,.18.58,1.09,1.09,0,0,1-.34.8,1.24,1.24,0,0,1-.87.32,1.12,1.12,0,0,1-.78-.28A1.07,1.07,0,0,1,81.1,142.2Z" transform="translate(1.42 -21.92)"/><path class="cls-1" d="M83.88,141.38a3.52,3.52,0,0,1,.13-1,1.28,1.28,0,0,1,.39-.59,1,1,0,0,1,.65-.21,1.06,1.06,0,0,1,.51.11,1,1,0,0,1,.35.34,1.73,1.73,0,0,1,.23.53,3.72,3.72,0,0,1,.08.84,3.52,3.52,0,0,1-.13,1,1.31,1.31,0,0,1-.39.6,1,1,0,0,1-.65.21,1,1,0,0,1-.81-.37A2.33,2.33,0,0,1,83.88,141.38Zm.45,0a2.25,2.25,0,0,0,.21,1.18.59.59,0,0,0,1,0,2.25,2.25,0,0,0,.21-1.18,2.2,2.2,0,0,0-.21-1.17.62.62,0,0,0-.51-.29.57.57,0,0,0-.49.26A2.24,2.24,0,0,0,84.33,141.38Z" transform="translate(1.42 -21.92)"/><path class="cls-1" d="M86.66,141.38a3.52,3.52,0,0,1,.13-1,1.28,1.28,0,0,1,.39-.59,1,1,0,0,1,.65-.21.95.95,0,0,1,.87.45,2,2,0,0,1,.22.53,3.72,3.72,0,0,1,.08.84,3.52,3.52,0,0,1-.13,1,1.31,1.31,0,0,1-.39.6,1,1,0,0,1-.65.21,1,1,0,0,1-.81-.37A2.33,2.33,0,0,1,86.66,141.38Zm.46,0a2.27,2.27,0,0,0,.2,1.18.59.59,0,0,0,1,0,2.25,2.25,0,0,0,.21-1.18,2.2,2.2,0,0,0-.21-1.17.62.62,0,0,0-.51-.29.57.57,0,0,0-.49.26A2.26,2.26,0,0,0,87.12,141.38Z" transform="translate(1.42 -21.92)"/><path class="cls-1" d="M89.44,141.38a3.52,3.52,0,0,1,.13-1,1.28,1.28,0,0,1,.39-.59,1,1,0,0,1,.65-.21.95.95,0,0,1,.87.45,2,2,0,0,1,.22.53,3.72,3.72,0,0,1,.08.84,3.2,3.2,0,0,1-.13,1,1.31,1.31,0,0,1-.39.6,1,1,0,0,1-.65.21,1,1,0,0,1-.81-.37A2.33,2.33,0,0,1,89.44,141.38Zm.46,0a2.38,2.38,0,0,0,.2,1.18.59.59,0,0,0,1,0,2.25,2.25,0,0,0,.21-1.18,2.2,2.2,0,0,0-.21-1.17.62.62,0,0,0-.51-.29.57.57,0,0,0-.49.26A2.26,2.26,0,0,0,89.9,141.38Z" transform="translate(1.42 -21.92)"/><path class="cls-1" d="M105.19,143.15v-.86h-1.55v-.4l1.63-2.32h.36v2.32h.48v.4h-.48v.86Zm0-1.26v-1.61l-1.12,1.61Z" transform="translate(1.42 -21.92)"/><path class="cls-1" d="M106.56,141.38a3.2,3.2,0,0,1,.13-1,1.28,1.28,0,0,1,.39-.59,1.14,1.14,0,0,1,1.15-.1.9.9,0,0,1,.36.34,1.51,1.51,0,0,1,.22.53,4.23,4.23,0,0,1,0,1.86,1.22,1.22,0,0,1-.38.6,1.1,1.1,0,0,1-1.47-.16A2.41,2.41,0,0,1,106.56,141.38Zm.45,0a2.25,2.25,0,0,0,.21,1.18.59.59,0,0,0,1,0,2.38,2.38,0,0,0,.2-1.18,2.31,2.31,0,0,0-.2-1.17.63.63,0,0,0-.52-.29.54.54,0,0,0-.48.26A2.24,2.24,0,0,0,107,141.38Z" transform="translate(1.42 -21.92)"/><path class="cls-1" d="M109.34,141.38a3.2,3.2,0,0,1,.13-1,1.28,1.28,0,0,1,.39-.59,1.14,1.14,0,0,1,1.15-.1.9.9,0,0,1,.36.34,1.51,1.51,0,0,1,.22.53,3.16,3.16,0,0,1,.09.84,3.52,3.52,0,0,1-.13,1,1.31,1.31,0,0,1-.39.6,1,1,0,0,1-.65.21,1,1,0,0,1-.81-.37A2.33,2.33,0,0,1,109.34,141.38Zm.45,0a2.25,2.25,0,0,0,.21,1.18.59.59,0,0,0,1,0,2.38,2.38,0,0,0,.2-1.18,2.31,2.31,0,0,0-.2-1.17.63.63,0,0,0-.52-.29.54.54,0,0,0-.48.26A2.24,2.24,0,0,0,109.79,141.38Z" transform="translate(1.42 -21.92)"/><path class="cls-1" d="M112.12,141.38a3.52,3.52,0,0,1,.13-1,1.28,1.28,0,0,1,.39-.59,1.14,1.14,0,0,1,1.15-.1.9.9,0,0,1,.36.34,1.73,1.73,0,0,1,.23.53,3.72,3.72,0,0,1,.08.84,3.52,3.52,0,0,1-.13,1,1.31,1.31,0,0,1-.39.6,1,1,0,0,1-.65.21,1,1,0,0,1-.81-.37A2.33,2.33,0,0,1,112.12,141.38Zm.45,0a2.25,2.25,0,0,0,.21,1.18.59.59,0,0,0,1,0,2.27,2.27,0,0,0,.2-1.18,2.2,2.2,0,0,0-.2-1.17.63.63,0,0,0-.52-.29.54.54,0,0,0-.48.26A2.24,2.24,0,0,0,112.57,141.38Z" transform="translate(1.42 -21.92)"/><line class="cls-2" x1="42.52" y1="2.18" x2="42.52" y2="115.56"/><line class="cls-2" x1="65.2" y1="2.18" x2="65.2" y2="115.56"/><line class="cls-2" x1="87.87" y1="2.18" x2="87.87" y2="115.56"/><line class="cls-2" x1="19.84" y1="50.78" x2="110.55" y2="50.78"/><line class="cls-2" x1="19.84" y1="99.38" x2="110.55" y2="99.38"/><line class="cls-2" x1="19.84" y1="83.2" x2="110.55" y2="83.2"/><line class="cls-2" x1="19.84" y1="66.96" x2="110.55" y2="66.96"/><line class="cls-2" x1="19.84" y1="34.6" x2="110.55" y2="34.6"/><line class="cls-2" x1="19.84" y1="18.36" x2="110.55" y2="18.36"/><path class="cls-1" d="M12.57,122.21v.42H10.21a.76.76,0,0,1,0-.3,1.62,1.62,0,0,1,.29-.48,3.81,3.81,0,0,1,.57-.54,4.48,4.48,0,0,0,.79-.76.9.9,0,0,0,.21-.53.58.58,0,0,0-.19-.44.67.67,0,0,0-.49-.18.65.65,0,0,0-.5.19.71.71,0,0,0-.2.53l-.45-.05a1.14,1.14,0,0,1,.35-.77,1.21,1.21,0,0,1,.81-.26,1.13,1.13,0,0,1,.82.28.94.94,0,0,1,.3.71,1,1,0,0,1-.09.42,1.51,1.51,0,0,1-.29.44,8.11,8.11,0,0,1-.68.63L11,122a1.88,1.88,0,0,0-.18.24Z" transform="translate(1.42 -21.92)"/><path class="cls-1" d="M13.29,122.63v-.5h.5v.5Z" transform="translate(1.42 -21.92)"/><path class="cls-1" d="M14.43,120.87a3.19,3.19,0,0,1,.14-1,1.24,1.24,0,0,1,.38-.59,1,1,0,0,1,.65-.21,1.19,1.19,0,0,1,.51.11,1.06,1.06,0,0,1,.36.34,2,2,0,0,1,.22.53,3.76,3.76,0,0,1,.08.85,3.14,3.14,0,0,1-.13,1,1.31,1.31,0,0,1-.39.6,1,1,0,0,1-.65.21,1,1,0,0,1-.81-.37A2.32,2.32,0,0,1,14.43,120.87Zm.46,0a2.36,2.36,0,0,0,.2,1.17.59.59,0,0,0,1,0,3.39,3.39,0,0,0,0-2.35.62.62,0,0,0-.51-.29.58.58,0,0,0-.49.26A2.3,2.3,0,0,0,14.89,120.87Z" transform="translate(1.42 -21.92)"/><path class="cls-1" d="M11.67,106.45v-.86H10.12v-.4l1.63-2.32h.36v2.32h.49v.4h-.49v.86Zm0-1.26v-1.62l-1.12,1.62Z" transform="translate(1.42 -21.92)"/><path class="cls-1" d="M13.29,106.45V106h.5v.5Z" transform="translate(1.42 -21.92)"/><path class="cls-1" d="M14.43,104.68a3.52,3.52,0,0,1,.13-1,1.31,1.31,0,0,1,.39-.6,1,1,0,0,1,.65-.21,1.07,1.07,0,0,1,.51.12,1.13,1.13,0,0,1,.36.33,2.25,2.25,0,0,1,.22.54,3.72,3.72,0,0,1,.08.84,3.2,3.2,0,0,1-.13,1,1.31,1.31,0,0,1-.39.6,1,1,0,0,1-.65.21,1,1,0,0,1-.81-.37A2.33,2.33,0,0,1,14.43,104.68Zm.46,0a2.27,2.27,0,0,0,.2,1.18.62.62,0,0,0,.51.29.61.61,0,0,0,.51-.3,3.36,3.36,0,0,0,0-2.34.6.6,0,0,0-.51-.29.56.56,0,0,0-.49.25A2.33,2.33,0,0,0,14.89,104.68Z" transform="translate(1.42 -21.92)"/><path class="cls-1" d="M12.55,87.51l-.44,0a.85.85,0,0,0-.17-.37A.56.56,0,0,0,11.5,87a.61.61,0,0,0-.37.12,1.07,1.07,0,0,0-.32.44,2.43,2.43,0,0,0-.13.83,1.11,1.11,0,0,1,.39-.36,1,1,0,0,1,.48-.12,1,1,0,0,1,.75.32,1.16,1.16,0,0,1,.31.84,1.36,1.36,0,0,1-.15.63,1,1,0,0,1-.4.44,1.1,1.1,0,0,1-.57.15,1.12,1.12,0,0,1-.9-.4,2,2,0,0,1-.34-1.33A2.36,2.36,0,0,1,10.63,87a1.1,1.1,0,0,1,.9-.41,1,1,0,0,1,1,.89Zm-1.8,1.54a1,1,0,0,0,.1.44.63.63,0,0,0,.27.31.59.59,0,0,0,.36.11.61.61,0,0,0,.48-.22.91.91,0,0,0,.2-.61.86.86,0,0,0-.2-.59.66.66,0,0,0-.5-.21.67.67,0,0,0-.5.21A.78.78,0,0,0,10.75,89.05Z" transform="translate(1.42 -21.92)"/><path class="cls-1" d="M13.29,90.21v-.5h.5v.5Z" transform="translate(1.42 -21.92)"/><path class="cls-1" d="M14.43,88.45a3.09,3.09,0,0,1,.14-1,1.22,1.22,0,0,1,.38-.6,1,1,0,0,1,.65-.21,1.07,1.07,0,0,1,.51.12.94.94,0,0,1,.36.33,2.17,2.17,0,0,1,.22.53,3.76,3.76,0,0,1,.08.85,3.09,3.09,0,0,1-.13,1,1.31,1.31,0,0,1-.39.6,1,1,0,0,1-.65.21,1,1,0,0,1-.81-.37A2.32,2.32,0,0,1,14.43,88.45Zm.46,0a2.34,2.34,0,0,0,.2,1.17.6.6,0,0,0,.51.29.62.62,0,0,0,.51-.29,3.39,3.39,0,0,0,0-2.35A.62.62,0,0,0,15.6,87a.58.58,0,0,0-.49.26A2.3,2.3,0,0,0,14.89,88.45Z" transform="translate(1.42 -21.92)"/><path class="cls-1" d="M10.94,72.09a.78.78,0,0,1-.4-.29.72.72,0,0,1-.14-.44.91.91,0,0,1,.28-.66,1,1,0,0,1,.75-.26,1.07,1.07,0,0,1,.76.27.87.87,0,0,1,.28.66.69.69,0,0,1-.13.43.82.82,0,0,1-.4.29,1,1,0,0,1,.51.35,1,1,0,0,1,.17.57,1,1,0,0,1-.33.77,1.16,1.16,0,0,1-.85.31,1.2,1.2,0,0,1-.86-.31,1.07,1.07,0,0,1-.32-.79.93.93,0,0,1,.18-.58A.84.84,0,0,1,10.94,72.09Zm-.23.91a.8.8,0,0,0,.09.36.59.59,0,0,0,.27.27.69.69,0,0,0,.37.1.72.72,0,0,0,.52-.2.7.7,0,0,0,.21-.52.69.69,0,0,0-.21-.52.72.72,0,0,0-.53-.21.69.69,0,0,0-.51.2A.7.7,0,0,0,10.71,73Zm.14-1.66a.57.57,0,0,0,.17.42.63.63,0,0,0,.84,0,.53.53,0,0,0,.16-.39.57.57,0,0,0-.17-.41.56.56,0,0,0-.41-.16A.57.57,0,0,0,11,71,.52.52,0,0,0,10.85,71.34Z" transform="translate(1.42 -21.92)"/><path class="cls-1" d="M13.29,74v-.5h.5V74Z" transform="translate(1.42 -21.92)"/><path class="cls-1" d="M14.43,72.26a3.17,3.17,0,0,1,.14-1,1.19,1.19,0,0,1,.38-.59,1,1,0,0,1,.65-.21.95.95,0,0,1,.87.45,2,2,0,0,1,.22.53,3.72,3.72,0,0,1,.08.84,3.2,3.2,0,0,1-.13,1,1.31,1.31,0,0,1-.39.6,1,1,0,0,1-.65.21,1,1,0,0,1-.81-.37A2.33,2.33,0,0,1,14.43,72.26Zm.46,0a2.38,2.38,0,0,0,.2,1.18.59.59,0,0,0,1,0,2.25,2.25,0,0,0,.21-1.18,2.2,2.2,0,0,0-.21-1.17.62.62,0,0,0-.51-.29.58.58,0,0,0-.49.26A2.26,2.26,0,0,0,14.89,72.26Z" transform="translate(1.42 -21.92)"/><path class="cls-1" d="M9.14,57.85H8.7v-2.8a2.18,2.18,0,0,1-.42.3,2.81,2.81,0,0,1-.46.23v-.43a2.42,2.42,0,0,0,.65-.42,1.65,1.65,0,0,0,.39-.48h.28Z" transform="translate(1.42 -21.92)"/><path class="cls-1" d="M10.26,56.08a3.17,3.17,0,0,1,.14-1,1.22,1.22,0,0,1,.38-.6,1,1,0,0,1,.65-.21,1.07,1.07,0,0,1,.51.12,1.13,1.13,0,0,1,.36.33,2.25,2.25,0,0,1,.22.54,3.66,3.66,0,0,1,.08.84,3.2,3.2,0,0,1-.13,1,1.31,1.31,0,0,1-.39.6,1,1,0,0,1-.65.21,1,1,0,0,1-.81-.37A2.35,2.35,0,0,1,10.26,56.08Zm.46,0a2.31,2.31,0,0,0,.2,1.17.58.58,0,0,0,1,0,3.36,3.36,0,0,0,0-2.34.6.6,0,0,0-.51-.29.57.57,0,0,0-.49.25A2.3,2.3,0,0,0,10.72,56.08Z" transform="translate(1.42 -21.92)"/><path class="cls-1" d="M13.29,57.85v-.5h.5v.5Z" transform="translate(1.42 -21.92)"/><path class="cls-1" d="M14.43,56.08a3.17,3.17,0,0,1,.14-1,1.22,1.22,0,0,1,.38-.6,1,1,0,0,1,.65-.21,1.07,1.07,0,0,1,.51.12,1.13,1.13,0,0,1,.36.33,2.25,2.25,0,0,1,.22.54,3.66,3.66,0,0,1,.08.84,3.2,3.2,0,0,1-.13,1,1.31,1.31,0,0,1-.39.6,1,1,0,0,1-.65.21,1,1,0,0,1-.81-.37A2.35,2.35,0,0,1,14.43,56.08Zm.46,0a2.31,2.31,0,0,0,.2,1.17.58.58,0,0,0,1,0,3.36,3.36,0,0,0,0-2.34.6.6,0,0,0-.51-.29.57.57,0,0,0-.49.25A2.3,2.3,0,0,0,14.89,56.08Z" transform="translate(1.42 -21.92)"/><path class="cls-1" d="M9.14,41.61H8.7v-2.8a2.18,2.18,0,0,1-.42.3,2.81,2.81,0,0,1-.46.23v-.42a3,3,0,0,0,.65-.42A2,2,0,0,0,8.86,38h.28Z" transform="translate(1.42 -21.92)"/><path class="cls-1" d="M12.57,41.19v.42H10.21a.76.76,0,0,1,0-.3,1.62,1.62,0,0,1,.29-.48,3.81,3.81,0,0,1,.57-.54,4.48,4.48,0,0,0,.79-.76.9.9,0,0,0,.21-.53.58.58,0,0,0-.19-.44.67.67,0,0,0-.49-.18.65.65,0,0,0-.5.19.71.71,0,0,0-.2.53l-.45-.05a1.14,1.14,0,0,1,.35-.77,1.21,1.21,0,0,1,.81-.26,1.13,1.13,0,0,1,.82.28.94.94,0,0,1,.3.71,1,1,0,0,1-.09.42,1.51,1.51,0,0,1-.29.44,8.11,8.11,0,0,1-.68.63L11,41a1.88,1.88,0,0,0-.18.24Z" transform="translate(1.42 -21.92)"/><path class="cls-1" d="M13.29,41.61v-.5h.5v.5Z" transform="translate(1.42 -21.92)"/><path class="cls-1" d="M14.43,39.85a3.19,3.19,0,0,1,.14-1,1.24,1.24,0,0,1,.38-.59A1,1,0,0,1,15.6,38a1.19,1.19,0,0,1,.51.11,1.06,1.06,0,0,1,.36.34,2,2,0,0,1,.22.53,3.76,3.76,0,0,1,.08.85,3.14,3.14,0,0,1-.13,1,1.31,1.31,0,0,1-.39.6,1,1,0,0,1-.65.21,1,1,0,0,1-.81-.37A2.32,2.32,0,0,1,14.43,39.85Zm.46,0a2.36,2.36,0,0,0,.2,1.17.59.59,0,0,0,1,0,2.23,2.23,0,0,0,.21-1.17,2.25,2.25,0,0,0-.21-1.18.62.62,0,0,0-.51-.29.58.58,0,0,0-.49.26A2.3,2.3,0,0,0,14.89,39.85Z" transform="translate(1.42 -21.92)"/><path class="cls-1" d="M9.14,25.51H8.7v-2.8a2.18,2.18,0,0,1-.42.3,2.18,2.18,0,0,1-.46.23v-.42a3,3,0,0,0,.65-.42,2,2,0,0,0,.39-.48h.28Z" transform="translate(1.42 -21.92)"/><path class="cls-1" d="M11.67,25.51v-.86H10.12v-.4l1.63-2.32h.36v2.32h.49v.4h-.49v.86Zm0-1.26V22.64l-1.12,1.61Z" transform="translate(1.42 -21.92)"/><path class="cls-1" d="M13.29,25.51V25h.5v.5Z" transform="translate(1.42 -21.92)"/><path class="cls-1" d="M14.43,23.75a3.19,3.19,0,0,1,.14-1,1.24,1.24,0,0,1,.38-.59,1,1,0,0,1,.65-.21,1.19,1.19,0,0,1,.51.11,1.06,1.06,0,0,1,.36.34,2,2,0,0,1,.22.53,3.76,3.76,0,0,1,.08.85,3.09,3.09,0,0,1-.13,1,1.31,1.31,0,0,1-.39.6,1,1,0,0,1-.65.21,1,1,0,0,1-.81-.37A2.32,2.32,0,0,1,14.43,23.75Zm.46,0a2.36,2.36,0,0,0,.2,1.17.59.59,0,0,0,1,0,2.23,2.23,0,0,0,.21-1.17,2.25,2.25,0,0,0-.21-1.18.62.62,0,0,0-.51-.29.58.58,0,0,0-.49.26A2.3,2.3,0,0,0,14.89,23.75Z" transform="translate(1.42 -21.92)"/><polyline class="繝医Ν繧ｯ繧ｰ繝ｩ繝廟繧ｰ繝ｬ繝ｼ邱" points="19.9 89.64 31.14 89.64 42.49 89.64 53.84 89.64 65.2 96.33 76.55 100.01 87.9 102.69 99.26 104.36 110.49 106.03"/><polyline class="cls-3" points="19.9 89.64 31.14 89.64 42.49 89.64 53.84 89.64 65.2 96.33 76.55 100.01 87.9 102.69 99.26 104.36 110.49 106.03"/><polyline class="繝医Ν繧ｯ繧ｰ繝ｩ繝廟繧ｰ繝ｬ繝ｼ邱" points="19.84 12.24 58.37 12.24 111.21 65.86"/><polyline class="cls-3" points="19.78 12.4 53.84 12.4 87.9 46.84 111.12 72.42"/><rect class="繝後Μ_逋ｽ" x="110.55" y="2.18" width="2.83" height="113.39"/><rect class="邱喟0.5pt" x="19.84" y="2.18" width="90.71" height="113.39"/></g><g id="English"><path class="cls-1" d="M3.23,98.3H-.87v1.53h-.55V96.15h.55v1.54h4.1Z" transform="translate(1.42 -21.92)"/><path class="cls-1" d="M1.55,95.8a1.74,1.74,0,0,1-1.39-.52,1.69,1.69,0,0,1,.08-2.2,1.77,1.77,0,0,1,1.26-.44,2.24,2.24,0,0,1,1,.2,1.36,1.36,0,0,1,.57.57,1.6,1.6,0,0,1,.21.81,1.51,1.51,0,0,1-.45,1.14A1.79,1.79,0,0,1,1.55,95.8Zm0-.59a1.44,1.44,0,0,0,1-.28.91.91,0,0,0,.32-.71.93.93,0,0,0-.32-.71,1.48,1.48,0,0,0-1-.28,1.4,1.4,0,0,0-.95.28.93.93,0,0,0-.32.71.91.91,0,0,0,.32.71A1.44,1.44,0,0,0,1.55,95.21Z" transform="translate(1.42 -21.92)"/><path class="cls-1" d="M3.23,92H-.14v-.51H.38A1.62,1.62,0,0,1-.1,91.1a.66.66,0,0,1-.11-.36A1.12,1.12,0,0,1,0,90.15l.53.2a.78.78,0,0,0-.12.41.58.58,0,0,0,.11.34.62.62,0,0,0,.31.21,2.09,2.09,0,0,0,.67.1H3.23Z" transform="translate(1.42 -21.92)"/><path class="cls-1" d="M4.53,87.66H2.88a1.15,1.15,0,0,1,.31.37,1.13,1.13,0,0,1,.12.51,1.36,1.36,0,0,1-.48,1A1.93,1.93,0,0,1,1.52,90a2.21,2.21,0,0,1-.91-.18A1.24,1.24,0,0,1,0,89.32a1.35,1.35,0,0,1-.21-.73,1.13,1.13,0,0,1,.52-1H-.14v-.51H4.53Zm-3,1.76a1.53,1.53,0,0,0,1-.27.84.84,0,0,0,.32-.66.77.77,0,0,0-.31-.62,1.39,1.39,0,0,0-.94-.27,1.58,1.58,0,0,0-1,.28.82.82,0,0,0-.34.65.78.78,0,0,0,.31.63A1.5,1.5,0,0,0,1.54,89.42Z" transform="translate(1.42 -21.92)"/><path class="cls-1" d="M3.23,84H2.74a1.25,1.25,0,0,1,.57,1.07,1.47,1.47,0,0,1-.11.56,1,1,0,0,1-.29.38,1,1,0,0,1-.42.18,3.21,3.21,0,0,1-.54,0H-.14v-.58H1.73a4,4,0,0,0,.61,0,.6.6,0,0,0,.35-.23.67.67,0,0,0,.13-.43.91.91,0,0,0-.13-.48.74.74,0,0,0-.36-.32,1.83,1.83,0,0,0-.66-.1H-.14v-.57H3.23Z" transform="translate(1.42 -21.92)"/><path class="cls-1" d="M2.15,80.27l.07-.59A1.47,1.47,0,0,1,3,80.2a1.54,1.54,0,0,1,.28,1,1.56,1.56,0,0,1-.45,1.18,1.83,1.83,0,0,1-1.28.43,1.86,1.86,0,0,1-1.32-.44,1.46,1.46,0,0,1-.47-1.14,1.43,1.43,0,0,1,.46-1.1,1.8,1.8,0,0,1,1.29-.43H1.7v2.51a1.29,1.29,0,0,0,.85-.32.93.93,0,0,0,.29-.7.89.89,0,0,0-.16-.54A1.2,1.2,0,0,0,2.15,80.27Zm-.92,1.88V80.26a1.15,1.15,0,0,0-.64.22.88.88,0,0,0-.33.71.93.93,0,0,0,.26.66A1.05,1.05,0,0,0,1.23,82.15Z" transform="translate(1.42 -21.92)"/><path class="cls-1" d="M4.53,77.14H-1.42V75.89h.47v.68h5v-.68h.48Z" transform="translate(1.42 -21.92)"/><path class="cls-1" d="M3.23,75.28H-1.42v-.63l3.65-2.44H-1.42v-.59H3.23v.63L-.42,74.69H3.23Z" transform="translate(1.42 -21.92)"/><path class="cls-1" d="M1,70.74a.75.75,0,0,1-.57-.24.74.74,0,0,1-.24-.56.78.78,0,0,1,.24-.57A.75.75,0,0,1,1,69.13a.78.78,0,0,1,.57.24.81.81,0,0,1,.23.57.77.77,0,0,1-.23.56A.78.78,0,0,1,1,70.74Z" transform="translate(1.42 -21.92)"/><path class="cls-1" d="M3.23,68.38H-.14v-.51H.34a1.24,1.24,0,0,1-.4-.42,1.21,1.21,0,0,1-.15-.6,1.16,1.16,0,0,1,.15-.62.81.81,0,0,1,.44-.33,1.21,1.21,0,0,1-.59-1,1,1,0,0,1,.28-.78,1.17,1.17,0,0,1,.85-.27H3.23v.57H1.11a1.42,1.42,0,0,0-.49.06.47.47,0,0,0-.24.2.57.57,0,0,0-.1.34.78.78,0,0,0,.24.59,1,1,0,0,0,.76.24h2v.57H1a1,1,0,0,0-.57.14A.54.54,0,0,0,.28,67a.84.84,0,0,0,.13.44.69.69,0,0,0,.37.3,2.15,2.15,0,0,0,.71.09H3.23Z" transform="translate(1.42 -21.92)"/><path class="cls-1" d="M4.53,62v1.26H4.05v-.69h-5v.69h-.47V62Z" transform="translate(1.42 -21.92)"/><rect class="繝後Μ_逋ｽ" x="22.25" y="39.03" width="47.91" height="16.58"/><path class="cls-1" d="M24.24,65.82l.58,0a1.2,1.2,0,0,0,.19.57,1,1,0,0,0,.47.36,1.64,1.64,0,0,0,.71.14,1.68,1.68,0,0,0,.62-.1.83.83,0,0,0,.4-.29.63.63,0,0,0,0-.78.85.85,0,0,0-.42-.27,6.63,6.63,0,0,0-.83-.23,4.29,4.29,0,0,1-.9-.29,1.24,1.24,0,0,1-.49-.44,1,1,0,0,1-.17-.57,1.19,1.19,0,0,1,.2-.66,1.27,1.27,0,0,1,.59-.47,2.43,2.43,0,0,1,1.76,0,1.25,1.25,0,0,1,.61.49,1.43,1.43,0,0,1,.23.73l-.59,0a1,1,0,0,0-.32-.67,1.26,1.26,0,0,0-.81-.22,1.29,1.29,0,0,0-.82.2.61.61,0,0,0-.25.49.54.54,0,0,0,.18.42,2.79,2.79,0,0,0,.93.33,5.44,5.44,0,0,1,1,.3,1.39,1.39,0,0,1,.6.47,1.14,1.14,0,0,1,.19.66,1.27,1.27,0,0,1-.21.7,1.4,1.4,0,0,1-.61.51,2.19,2.19,0,0,1-.9.18,2.76,2.76,0,0,1-1.06-.18,1.51,1.51,0,0,1-.67-.55A1.53,1.53,0,0,1,24.24,65.82Z" transform="translate(1.42 -21.92)"/><path class="cls-1" d="M28.71,67.32V62.66h.57v1.67a1.27,1.27,0,0,1,1-.46,1.33,1.33,0,0,1,.65.15.8.8,0,0,1,.39.4,1.91,1.91,0,0,1,.12.76v2.14h-.57V65.18a.88.88,0,0,0-.18-.62.71.71,0,0,0-.53-.2.91.91,0,0,0-.48.13.79.79,0,0,0-.32.36,1.73,1.73,0,0,0-.09.62v1.85Z" transform="translate(1.42 -21.92)"/><path class="cls-1" d="M32.11,65.63a1.74,1.74,0,0,1,.52-1.39,1.69,1.69,0,0,1,2.2.08,1.77,1.77,0,0,1,.44,1.26,2.24,2.24,0,0,1-.2,1,1.49,1.49,0,0,1-.56.58,1.74,1.74,0,0,1-.82.2,1.51,1.51,0,0,1-1.14-.45A1.82,1.82,0,0,1,32.11,65.63Zm.59,0a1.44,1.44,0,0,0,.28,1,.93.93,0,0,0,.71.32.91.91,0,0,0,.71-.32,1.48,1.48,0,0,0,.28-1,1.4,1.4,0,0,0-.28-1,.95.95,0,0,0-1.42,0A1.44,1.44,0,0,0,32.7,65.63Z" transform="translate(1.42 -21.92)"/><path class="cls-1" d="M35.93,67.32V63.94h.52v.52a1.47,1.47,0,0,1,.36-.48.67.67,0,0,1,.37-.11,1.12,1.12,0,0,1,.58.18l-.19.53a.84.84,0,0,0-.42-.12.58.58,0,0,0-.34.11.62.62,0,0,0-.21.31,2.41,2.41,0,0,0-.1.67v1.77Z" transform="translate(1.42 -21.92)"/><path class="cls-1" d="M39.35,66.8l.08.51a2.37,2.37,0,0,1-.43,0,.9.9,0,0,1-.48-.1.47.47,0,0,1-.24-.26,1.9,1.9,0,0,1-.07-.67V64.39h-.42v-.45h.42v-.83l.57-.34v1.17h.57v.45h-.57v2a1,1,0,0,0,0,.31.27.27,0,0,0,.09.12.5.5,0,0,0,.2,0Z" transform="translate(1.42 -21.92)"/><path class="cls-1" d="M39.69,65.92v-.58h1.75v.58Z" transform="translate(1.42 -21.92)"/><path class="cls-1" d="M44.26,67.32v-.43a1.05,1.05,0,0,1-.94.5,1.29,1.29,0,0,1-.74-.22,1.53,1.53,0,0,1-.53-.62,2.48,2.48,0,0,1,0-1.83,1.28,1.28,0,0,1,.5-.63,1.32,1.32,0,0,1,.75-.22,1.12,1.12,0,0,1,.93.46V62.66h.57v4.66Zm-1.81-1.69a1.48,1.48,0,0,0,.28,1,.82.82,0,0,0,.64.32.83.83,0,0,0,.64-.3,1.46,1.46,0,0,0,.26-.94,1.59,1.59,0,0,0-.27-1,.82.82,0,0,0-1.29,0A1.55,1.55,0,0,0,42.45,65.63Z" transform="translate(1.42 -21.92)"/><path class="cls-1" d="M47.9,67.32v-.5a1.25,1.25,0,0,1-1.07.57,1.47,1.47,0,0,1-.56-.11.89.89,0,0,1-.38-.29,1,1,0,0,1-.18-.42,3.48,3.48,0,0,1,0-.54V63.94h.57v1.87a4,4,0,0,0,0,.61.57.57,0,0,0,.23.35.69.69,0,0,0,.43.13.91.91,0,0,0,.48-.13.74.74,0,0,0,.32-.36,1.63,1.63,0,0,0,.1-.66V63.94h.57v3.38Z" transform="translate(1.42 -21.92)"/><path class="cls-1" d="M49.3,67.32V63.94h.51v.52a1.47,1.47,0,0,1,.36-.48.72.72,0,0,1,.37-.11,1.15,1.15,0,0,1,.59.18l-.2.53a.84.84,0,0,0-.42-.12.57.57,0,0,0-.33.11.7.7,0,0,0-.22.31,2.41,2.41,0,0,0-.09.67v1.77Z" transform="translate(1.42 -21.92)"/><path class="cls-1" d="M53.67,66.9a2.08,2.08,0,0,1-.61.38,1.9,1.9,0,0,1-.63.11,1.25,1.25,0,0,1-.86-.27.89.89,0,0,1-.3-.69,1,1,0,0,1,.41-.78,1.18,1.18,0,0,1,.41-.19,4.57,4.57,0,0,1,.51-.09,5.49,5.49,0,0,0,1-.19V65a.6.6,0,0,0-.16-.49,1,1,0,0,0-.65-.2,1,1,0,0,0-.59.14.87.87,0,0,0-.29.5l-.56-.07a1.41,1.41,0,0,1,.25-.58,1.12,1.12,0,0,1,.51-.34,2.2,2.2,0,0,1,.76-.12,2,2,0,0,1,.7.1.87.87,0,0,1,.4.26.79.79,0,0,1,.18.38,3.16,3.16,0,0,1,0,.53v.76a9.89,9.89,0,0,0,0,1,1.56,1.56,0,0,0,.15.41h-.6A1.08,1.08,0,0,1,53.67,66.9Zm-.05-1.28a4,4,0,0,1-.93.22,2.12,2.12,0,0,0-.5.11.62.62,0,0,0-.23.19.5.5,0,0,0-.08.27.48.48,0,0,0,.18.38.73.73,0,0,0,.5.15,1.15,1.15,0,0,0,.59-.14.92.92,0,0,0,.38-.4,1.38,1.38,0,0,0,.09-.57Z" transform="translate(1.42 -21.92)"/><path class="cls-1" d="M56.33,66.8l.08.51a2.37,2.37,0,0,1-.43,0,.9.9,0,0,1-.48-.1.47.47,0,0,1-.24-.26,1.9,1.9,0,0,1-.07-.67V64.39h-.42v-.45h.42v-.83l.57-.34v1.17h.57v.45h-.57v2a1,1,0,0,0,0,.31.27.27,0,0,0,.09.12.5.5,0,0,0,.2,0Z" transform="translate(1.42 -21.92)"/><path class="cls-1" d="M56.89,63.32v-.66h.57v.66Zm0,4V63.94h.57v3.38Z" transform="translate(1.42 -21.92)"/><path class="cls-1" d="M58.12,65.63a1.74,1.74,0,0,1,.52-1.39,1.69,1.69,0,0,1,2.2.08,1.77,1.77,0,0,1,.44,1.26,2.24,2.24,0,0,1-.2,1,1.44,1.44,0,0,1-.57.58,1.7,1.7,0,0,1-.81.2,1.51,1.51,0,0,1-1.14-.45A1.82,1.82,0,0,1,58.12,65.63Zm.59,0a1.44,1.44,0,0,0,.28,1,.95.95,0,0,0,1.42,0,1.48,1.48,0,0,0,.28-1,1.4,1.4,0,0,0-.28-1,.95.95,0,0,0-1.42,0A1.44,1.44,0,0,0,58.71,65.63Z" transform="translate(1.42 -21.92)"/><path class="cls-1" d="M62,67.32V63.94h.51v.48a1.21,1.21,0,0,1,1.07-.55,1.43,1.43,0,0,1,.56.11.85.85,0,0,1,.39.29,1,1,0,0,1,.17.42,2.34,2.34,0,0,1,0,.55v2.08h-.57v-2a1.69,1.69,0,0,0-.07-.53.57.57,0,0,0-.24-.27.72.72,0,0,0-.4-.11.92.92,0,0,0-.63.24,1.14,1.14,0,0,0-.26.87v1.85Z" transform="translate(1.42 -21.92)"/><path class="cls-1" d="M24.37,75.12V71.74h.51v.52a1.47,1.47,0,0,1,.36-.48.72.72,0,0,1,.37-.11,1.15,1.15,0,0,1,.59.18l-.2.53a.84.84,0,0,0-.42-.12.57.57,0,0,0-.33.11.7.7,0,0,0-.22.31,2.41,2.41,0,0,0-.09.67v1.77Z" transform="translate(1.42 -21.92)"/><path class="cls-1" d="M28.75,75.12v-.5a1.25,1.25,0,0,1-1.07.57,1.47,1.47,0,0,1-.56-.11.89.89,0,0,1-.38-.29,1,1,0,0,1-.18-.42,3.21,3.21,0,0,1,0-.54V71.74h.58v1.87a4,4,0,0,0,0,.61.57.57,0,0,0,.23.35.69.69,0,0,0,.43.13.91.91,0,0,0,.48-.13.74.74,0,0,0,.32-.36,1.83,1.83,0,0,0,.1-.66V71.74h.57v3.38Z" transform="translate(1.42 -21.92)"/><path class="cls-1" d="M30.15,75.12V71.74h.52v.48a1.19,1.19,0,0,1,1.07-.55,1.3,1.3,0,0,1,.56.11.82.82,0,0,1,.38.29.9.9,0,0,1,.18.42,3.37,3.37,0,0,1,0,.55v2.08h-.57V73.06a1.41,1.41,0,0,0-.07-.52.54.54,0,0,0-.23-.27.77.77,0,0,0-.4-.11.92.92,0,0,0-.63.24,1.1,1.1,0,0,0-.27.87v1.85Z" transform="translate(1.42 -21.92)"/><path class="cls-1" d="M33.77,75.12V71.74h.51v.48a1.21,1.21,0,0,1,1.07-.55,1.27,1.27,0,0,1,.56.11.85.85,0,0,1,.39.29,1,1,0,0,1,.17.42,2.34,2.34,0,0,1,0,.55v2.08h-.57V73.06a1.66,1.66,0,0,0-.07-.52.57.57,0,0,0-.24-.27.72.72,0,0,0-.4-.11.92.92,0,0,0-.63.24,1.14,1.14,0,0,0-.26.87v1.85Z" transform="translate(1.42 -21.92)"/><path class="cls-1" d="M37.39,71.12v-.66H38v.66Zm0,4V71.74H38v3.38Z" transform="translate(1.42 -21.92)"/><path class="cls-1" d="M38.83,75.12V71.74h.51v.48a1.21,1.21,0,0,1,1.07-.55,1.27,1.27,0,0,1,.56.11.91.91,0,0,1,.39.29,1,1,0,0,1,.17.42,3.07,3.07,0,0,1,0,.55v2.08H41V73.06a1.72,1.72,0,0,0-.06-.52.62.62,0,0,0-.24-.27.75.75,0,0,0-.4-.11.92.92,0,0,0-.63.24,1.14,1.14,0,0,0-.26.87v1.85Z" transform="translate(1.42 -21.92)"/><path class="cls-1" d="M42.34,75.39l.55.09a.54.54,0,0,0,.2.37.91.91,0,0,0,.58.16,1,1,0,0,0,.61-.16.76.76,0,0,0,.29-.44,3.89,3.89,0,0,0,0-.74,1.16,1.16,0,0,1-.93.45,1.28,1.28,0,0,1-1.08-.51,1.93,1.93,0,0,1-.38-1.2,2.18,2.18,0,0,1,.18-.89,1.37,1.37,0,0,1,.5-.63,1.35,1.35,0,0,1,.78-.22,1.22,1.22,0,0,1,1,.48v-.41h.52v2.92A2.7,2.7,0,0,1,45,75.77a1.09,1.09,0,0,1-.5.52,1.76,1.76,0,0,1-.86.19,1.59,1.59,0,0,1-1-.27A.91.91,0,0,1,42.34,75.39Zm.47-2a1.52,1.52,0,0,0,.26,1,.85.85,0,0,0,.66.3.83.83,0,0,0,.66-.3,1.4,1.4,0,0,0,.27-1,1.38,1.38,0,0,0-.27-.93.88.88,0,0,0-.67-.32.79.79,0,0,0-.64.31A1.37,1.37,0,0,0,42.81,73.37Z" transform="translate(1.42 -21.92)"/><path class="cls-1" d="M47.86,75.12V71.74h.51v.52a1.47,1.47,0,0,1,.36-.48.7.7,0,0,1,.37-.11,1.15,1.15,0,0,1,.59.18l-.2.53a.84.84,0,0,0-.42-.12.57.57,0,0,0-.33.11.63.63,0,0,0-.22.31,2.41,2.41,0,0,0-.09.67v1.77Z" transform="translate(1.42 -21.92)"/><path class="cls-1" d="M52.23,74.7a2.22,2.22,0,0,1-.61.38,1.91,1.91,0,0,1-.64.11,1.22,1.22,0,0,1-.85-.27.89.89,0,0,1-.3-.69,1,1,0,0,1,.41-.78,1.18,1.18,0,0,1,.41-.19,4.17,4.17,0,0,1,.51-.09,5.49,5.49,0,0,0,1-.19v-.15a.64.64,0,0,0-.16-.5,1,1,0,0,0-.65-.19,1.06,1.06,0,0,0-.6.14.92.92,0,0,0-.28.5l-.56-.07a1.41,1.41,0,0,1,.25-.58,1.12,1.12,0,0,1,.51-.34,2.2,2.2,0,0,1,.76-.12,2,2,0,0,1,.7.1.87.87,0,0,1,.4.26,1,1,0,0,1,.18.38,3.16,3.16,0,0,1,0,.53v.76a9.89,9.89,0,0,0,0,1,1.56,1.56,0,0,0,.15.41h-.6A1.08,1.08,0,0,1,52.23,74.7Zm0-1.28a4,4,0,0,1-.93.22,2,2,0,0,0-.5.11.55.55,0,0,0-.23.19.5.5,0,0,0-.08.27.48.48,0,0,0,.18.38.73.73,0,0,0,.5.15,1.15,1.15,0,0,0,.59-.14.92.92,0,0,0,.38-.4,1.38,1.38,0,0,0,.09-.57Z" transform="translate(1.42 -21.92)"/><path class="cls-1" d="M53.64,75.12V71.74h.52v.48a1.19,1.19,0,0,1,1.07-.55,1.3,1.3,0,0,1,.56.11.82.82,0,0,1,.38.29.9.9,0,0,1,.18.42,3.37,3.37,0,0,1,0,.55v2.08h-.57V73.06a1.41,1.41,0,0,0-.07-.52.54.54,0,0,0-.23-.27.77.77,0,0,0-.4-.11.88.88,0,0,0-.63.24,1.1,1.1,0,0,0-.27.87v1.85Z" transform="translate(1.42 -21.92)"/><path class="cls-1" d="M57.15,75.39l.56.09a.53.53,0,0,0,.19.37.93.93,0,0,0,.58.16,1,1,0,0,0,.61-.16.73.73,0,0,0,.3-.44,3.89,3.89,0,0,0,0-.74,1.17,1.17,0,0,1-.94.45,1.25,1.25,0,0,1-1.07-.51,1.93,1.93,0,0,1-.38-1.2,2.35,2.35,0,0,1,.17-.89,1.46,1.46,0,0,1,.51-.63,1.35,1.35,0,0,1,.78-.22,1.2,1.2,0,0,1,1,.48v-.41H60v2.92a2.7,2.7,0,0,1-.16,1.11,1.16,1.16,0,0,1-.51.52,1.72,1.72,0,0,1-.85.19,1.63,1.63,0,0,1-1-.27A.91.91,0,0,1,57.15,75.39Zm.48-2a1.46,1.46,0,0,0,.26,1,.83.83,0,0,0,.66.3.85.85,0,0,0,.66-.3,1.4,1.4,0,0,0,.27-1,1.38,1.38,0,0,0-.28-.93.84.84,0,0,0-.66-.32.83.83,0,0,0-.65.31A1.37,1.37,0,0,0,57.63,73.37Z" transform="translate(1.42 -21.92)"/><path class="cls-1" d="M63.18,74l.59.07a1.44,1.44,0,0,1-.52.81,1.54,1.54,0,0,1-1,.28,1.56,1.56,0,0,1-1.18-.45,1.83,1.83,0,0,1-.43-1.28,1.86,1.86,0,0,1,.44-1.32,1.49,1.49,0,0,1,1.14-.47,1.43,1.43,0,0,1,1.1.46,1.81,1.81,0,0,1,.43,1.29v.16H61.27a1.29,1.29,0,0,0,.32.85.93.93,0,0,0,.7.29.89.89,0,0,0,.54-.16A1.12,1.12,0,0,0,63.18,74Zm-1.88-.92h1.89a1.15,1.15,0,0,0-.22-.64.88.88,0,0,0-.71-.33.93.93,0,0,0-.66.26A1.05,1.05,0,0,0,61.3,73.11Z" transform="translate(1.42 -21.92)"/><rect class="繝後Μ_逋ｽ" x="21.97" y="97.85" width="41.46" height="15.17"/><path class="cls-1" d="M26,122.58l.61.17a2.18,2.18,0,0,1-.7,1.2,1.84,1.84,0,0,1-1.23.42,2.17,2.17,0,0,1-1.22-.32,2.07,2.07,0,0,1-.72-.93,3.46,3.46,0,0,1-.24-1.3,2.91,2.91,0,0,1,.28-1.32,1.89,1.89,0,0,1,.79-.86,2.25,2.25,0,0,1,1.12-.29,1.85,1.85,0,0,1,1.18.37,1.88,1.88,0,0,1,.66,1l-.6.15a1.56,1.56,0,0,0-.47-.77,1.25,1.25,0,0,0-.78-.24,1.48,1.48,0,0,0-.9.27,1.43,1.43,0,0,0-.5.72,2.92,2.92,0,0,0-.15.93,3,3,0,0,0,.18,1.08,1.29,1.29,0,0,0,.53.69,1.51,1.51,0,0,0,.79.23,1.33,1.33,0,0,0,.88-.31A1.66,1.66,0,0,0,26,122.58Z" transform="translate(1.42 -21.92)"/><path class="cls-1" d="M27,122.53a1.88,1.88,0,0,1,.52-1.45,1.54,1.54,0,0,1,1.06-.39,1.49,1.49,0,0,1,1.14.47,1.9,1.9,0,0,1,.44,1.32,2.39,2.39,0,0,1-.19,1.06,1.46,1.46,0,0,1-.57.61,1.64,1.64,0,0,1-.82.21,1.46,1.46,0,0,1-1.14-.47A2,2,0,0,1,27,122.53Zm.59,0a1.54,1.54,0,0,0,.28,1,.91.91,0,0,0,.71.33.89.89,0,0,0,.71-.33,1.58,1.58,0,0,0,.28-1,1.48,1.48,0,0,0-.28-1,.87.87,0,0,0-.71-.34.88.88,0,0,0-.71.34A1.52,1.52,0,0,0,27.62,122.53Z" transform="translate(1.42 -21.92)"/><path class="cls-1" d="M30.86,124.28v-3.51h.52v.5a1.18,1.18,0,0,1,1.07-.58,1.47,1.47,0,0,1,.56.11.91.91,0,0,1,.38.3,1.08,1.08,0,0,1,.18.44,3.82,3.82,0,0,1,0,.58v2.16H33v-2.13a1.52,1.52,0,0,0-.07-.55.59.59,0,0,0-.23-.29.77.77,0,0,0-.4-.1.88.88,0,0,0-.63.24,1.19,1.19,0,0,0-.27.91v1.92Z" transform="translate(1.42 -21.92)"/><path class="cls-1" d="M35.72,123.75l.09.53a2.47,2.47,0,0,1-.44,0,1,1,0,0,1-.48-.1.62.62,0,0,1-.24-.27,2.15,2.15,0,0,1-.07-.71v-2h-.42v-.46h.42v-.87l.57-.36v1.23h.57v.46h-.57v2.06a1.11,1.11,0,0,0,0,.33.26.26,0,0,0,.1.11.34.34,0,0,0,.19,0A1.19,1.19,0,0,0,35.72,123.75Z" transform="translate(1.42 -21.92)"/><path class="cls-1" d="M36.29,120.12v-.69h.57v.69Zm0,4.16v-3.51h.57v3.51Z" transform="translate(1.42 -21.92)"/><path class="cls-1" d="M37.73,124.28v-3.51h.51v.5a1.2,1.2,0,0,1,1.07-.58,1.43,1.43,0,0,1,.56.11,1,1,0,0,1,.39.3,1.23,1.23,0,0,1,.17.44,2.65,2.65,0,0,1,0,.58v2.16h-.58v-2.13a1.85,1.85,0,0,0-.06-.55.67.67,0,0,0-.24-.29.72.72,0,0,0-.4-.1.92.92,0,0,0-.63.24,1.24,1.24,0,0,0-.26.91v1.92Z" transform="translate(1.42 -21.92)"/><path class="cls-1" d="M43.55,124.28v-.51a1.23,1.23,0,0,1-1.07.59,1.34,1.34,0,0,1-.56-.12.91.91,0,0,1-.38-.3,1.27,1.27,0,0,1-.18-.44,3.54,3.54,0,0,1,0-.55v-2.18h.57v2a3,3,0,0,0,0,.63.64.64,0,0,0,.22.37.7.7,0,0,0,.44.13.92.92,0,0,0,.48-.14.77.77,0,0,0,.32-.37,2.05,2.05,0,0,0,.09-.69v-1.88h.57v3.51Z" transform="translate(1.42 -21.92)"/><path class="cls-1" d="M44.74,122.53a1.88,1.88,0,0,1,.52-1.45,1.54,1.54,0,0,1,1.06-.39,1.49,1.49,0,0,1,1.14.47,1.9,1.9,0,0,1,.44,1.32,2.39,2.39,0,0,1-.19,1.06,1.46,1.46,0,0,1-.57.61,1.64,1.64,0,0,1-.82.21,1.46,1.46,0,0,1-1.14-.47A2,2,0,0,1,44.74,122.53Zm.59,0a1.54,1.54,0,0,0,.28,1,.91.91,0,0,0,.71.33.89.89,0,0,0,.71-.33,1.58,1.58,0,0,0,.28-1,1.48,1.48,0,0,0-.28-1,.87.87,0,0,0-.71-.34.88.88,0,0,0-.71.34A1.52,1.52,0,0,0,45.33,122.53Z" transform="translate(1.42 -21.92)"/><path class="cls-1" d="M50.78,124.28v-.51a1.23,1.23,0,0,1-1.07.59,1.34,1.34,0,0,1-.56-.12.91.91,0,0,1-.38-.3,1.27,1.27,0,0,1-.18-.44,3.54,3.54,0,0,1,0-.55v-2.18h.57v2a4.25,4.25,0,0,0,0,.63.71.71,0,0,0,.23.37.7.7,0,0,0,.44.13.92.92,0,0,0,.48-.14.77.77,0,0,0,.32-.37,2.05,2.05,0,0,0,.09-.69v-1.88h.57v3.51Z" transform="translate(1.42 -21.92)"/><path class="cls-1" d="M52,123.24l.56-.1a.87.87,0,0,0,.27.55.92.92,0,0,0,.61.18.87.87,0,0,0,.58-.16.51.51,0,0,0,.19-.4A.36.36,0,0,0,54,123a2.35,2.35,0,0,0-.58-.21,5.22,5.22,0,0,1-.87-.28.82.82,0,0,1-.37-.34,1,1,0,0,1-.13-.47.92.92,0,0,1,.11-.43.93.93,0,0,1,.28-.34,1.52,1.52,0,0,1,.36-.17,1.57,1.57,0,0,1,.49-.07,1.86,1.86,0,0,1,.7.12,1,1,0,0,1,.44.32,1.32,1.32,0,0,1,.2.55l-.56.08a.62.62,0,0,0-.22-.43.78.78,0,0,0-.51-.15.87.87,0,0,0-.57.14.38.38,0,0,0-.16.31.31.31,0,0,0,.07.21.39.39,0,0,0,.21.16l.51.15c.4.12.69.21.85.28a.86.86,0,0,1,.37.31.93.93,0,0,1,.14.51,1,1,0,0,1-.17.56,1.08,1.08,0,0,1-.48.41,1.64,1.64,0,0,1-.71.14,1.53,1.53,0,0,1-1-.28A1.32,1.32,0,0,1,52,123.24Z" transform="translate(1.42 -21.92)"/><path class="cls-1" d="M22.55,132.42V128.9h.51v.54a1.49,1.49,0,0,1,.36-.5.63.63,0,0,1,.37-.12,1.17,1.17,0,0,1,.59.19l-.2.56a.76.76,0,0,0-.42-.13.5.5,0,0,0-.33.12.58.58,0,0,0-.22.32,2.58,2.58,0,0,0-.09.7v1.84Z" transform="translate(1.42 -21.92)"/><path class="cls-1" d="M26.93,132.42v-.52a1.23,1.23,0,0,1-1.07.6,1.31,1.31,0,0,1-.56-.12.91.91,0,0,1-.38-.3,1,1,0,0,1-.18-.44,3.5,3.5,0,0,1,0-.56V128.9h.58v1.95a4.25,4.25,0,0,0,0,.63.62.62,0,0,0,.23.37A.69.69,0,0,0,26,132a.91.91,0,0,0,.48-.13.79.79,0,0,0,.32-.38,2,2,0,0,0,.1-.68V128.9h.57v3.52Z" transform="translate(1.42 -21.92)"/><path class="cls-1" d="M28.33,132.42V128.9h.52v.5a1.2,1.2,0,0,1,1.07-.58,1.31,1.31,0,0,1,.56.12.78.78,0,0,1,.38.3,1,1,0,0,1,.18.44,3.73,3.73,0,0,1,0,.58v2.16H30.5v-2.14a1.6,1.6,0,0,0-.07-.55.53.53,0,0,0-.23-.28.69.69,0,0,0-.4-.11.92.92,0,0,0-.63.24,1.22,1.22,0,0,0-.27.92v1.92Z" transform="translate(1.42 -21.92)"/><path class="cls-1" d="M32,132.42V128.9h.51v.5a1.22,1.22,0,0,1,1.07-.58,1.28,1.28,0,0,1,.56.12.85.85,0,0,1,.39.3,1.16,1.16,0,0,1,.17.44,2.59,2.59,0,0,1,0,.58v2.16h-.58v-2.14a1.94,1.94,0,0,0-.06-.55.6.6,0,0,0-.24-.28.65.65,0,0,0-.4-.11.92.92,0,0,0-.63.24,1.26,1.26,0,0,0-.26.92v1.92Z" transform="translate(1.42 -21.92)"/><path class="cls-1" d="M35.56,128.25v-.68h.58v.68Zm0,4.17V128.9h.58v3.52Z" transform="translate(1.42 -21.92)"/><path class="cls-1" d="M37,132.42V128.9h.51v.5a1.22,1.22,0,0,1,1.07-.58,1.28,1.28,0,0,1,.56.12.85.85,0,0,1,.39.3,1.16,1.16,0,0,1,.17.44,3.4,3.4,0,0,1,0,.58v2.16h-.58v-2.14a1.94,1.94,0,0,0-.06-.55.6.6,0,0,0-.24-.28.67.67,0,0,0-.4-.11.92.92,0,0,0-.63.24,1.26,1.26,0,0,0-.26.92v1.92Z" transform="translate(1.42 -21.92)"/><path class="cls-1" d="M40.52,132.71l.55.08a.57.57,0,0,0,.2.39.85.85,0,0,0,.58.17.94.94,0,0,0,.61-.17.82.82,0,0,0,.29-.46,4.08,4.08,0,0,0,0-.76,1.17,1.17,0,0,1-.93.46,1.27,1.27,0,0,1-1.08-.53,2.06,2.06,0,0,1-.38-1.25,2.37,2.37,0,0,1,.18-.93,1.46,1.46,0,0,1,.5-.66,1.35,1.35,0,0,1,.78-.23,1.2,1.2,0,0,1,1,.51v-.43h.52v3a2.88,2.88,0,0,1-.16,1.16,1.2,1.2,0,0,1-.5.55,1.76,1.76,0,0,1-.86.19,1.53,1.53,0,0,1-1-.28A1,1,0,0,1,40.52,132.71ZM41,130.6a1.63,1.63,0,0,0,.26,1,.83.83,0,0,0,.66.31.81.81,0,0,0,.66-.31,1.5,1.5,0,0,0,.27-1,1.53,1.53,0,0,0-.27-1,.88.88,0,0,0-.67-.32.78.78,0,0,0-.64.32A1.45,1.45,0,0,0,41,130.6Z" transform="translate(1.42 -21.92)"/><path class="cls-1" d="M46,132.42V128.9h.51v.54a1.49,1.49,0,0,1,.36-.5.63.63,0,0,1,.37-.12,1.17,1.17,0,0,1,.59.19l-.2.56a.76.76,0,0,0-.42-.13.54.54,0,0,0-.34.12.62.62,0,0,0-.21.32,2.58,2.58,0,0,0-.09.7v1.84Z" transform="translate(1.42 -21.92)"/><path class="cls-1" d="M50.41,132a2.23,2.23,0,0,1-.62.4,1.61,1.61,0,0,1-.63.12,1.18,1.18,0,0,1-.85-.29,1,1,0,0,1-.18-1.19.88.88,0,0,1,.29-.34,1.42,1.42,0,0,1,.41-.2,4.17,4.17,0,0,1,.51-.09,5.33,5.33,0,0,0,1-.2V130a.66.66,0,0,0-.16-.51.91.91,0,0,0-.65-.2,1.06,1.06,0,0,0-.6.14,1,1,0,0,0-.28.52l-.56-.08a1.57,1.57,0,0,1,.25-.6,1.13,1.13,0,0,1,.51-.35,2,2,0,0,1,.76-.13,1.94,1.94,0,0,1,.7.11.94.94,0,0,1,.4.27,1.06,1.06,0,0,1,.18.4,3.37,3.37,0,0,1,0,.55v.79A10.48,10.48,0,0,0,51,132a1.38,1.38,0,0,0,.15.43h-.6A1.19,1.19,0,0,1,50.41,132Zm0-1.33a3.9,3.9,0,0,1-.93.23,1.56,1.56,0,0,0-.5.12.48.48,0,0,0-.23.19.57.57,0,0,0-.08.28.53.53,0,0,0,.17.4.73.73,0,0,0,.51.16,1.15,1.15,0,0,0,.59-.15.94.94,0,0,0,.38-.41,1.58,1.58,0,0,0,.09-.6Z" transform="translate(1.42 -21.92)"/><path class="cls-1" d="M51.82,132.42V128.9h.52v.5a1.2,1.2,0,0,1,1.07-.58,1.31,1.31,0,0,1,.56.12.78.78,0,0,1,.38.3,1,1,0,0,1,.18.44,3.73,3.73,0,0,1,0,.58v2.16H54v-2.14a1.6,1.6,0,0,0-.07-.55.53.53,0,0,0-.23-.28.69.69,0,0,0-.4-.11.88.88,0,0,0-.63.24,1.22,1.22,0,0,0-.27.92v1.92Z" transform="translate(1.42 -21.92)"/><path class="cls-1" d="M55.33,132.71l.56.08a.56.56,0,0,0,.19.39.87.87,0,0,0,.58.17.91.91,0,0,0,.61-.17.78.78,0,0,0,.3-.46,4.08,4.08,0,0,0,0-.76,1.18,1.18,0,0,1-.94.46,1.24,1.24,0,0,1-1.07-.53,2,2,0,0,1-.38-1.25,2.56,2.56,0,0,1,.17-.93,1.55,1.55,0,0,1,.51-.66,1.35,1.35,0,0,1,.78-.23,1.18,1.18,0,0,1,1,.51v-.43h.53v3A2.88,2.88,0,0,1,58,133.1a1.28,1.28,0,0,1-.51.55,1.74,1.74,0,0,1-.86.19,1.55,1.55,0,0,1-1-.28A1,1,0,0,1,55.33,132.71Zm.48-2.11a1.57,1.57,0,0,0,.26,1,.81.81,0,0,0,.66.31.83.83,0,0,0,.66-.31,1.5,1.5,0,0,0,.27-1,1.53,1.53,0,0,0-.28-1,.84.84,0,0,0-.66-.32.81.81,0,0,0-.65.32A1.45,1.45,0,0,0,55.81,130.6Z" transform="translate(1.42 -21.92)"/><path class="cls-1" d="M61.36,131.29l.59.07a1.52,1.52,0,0,1-.52.84,1.49,1.49,0,0,1-1,.3,1.51,1.51,0,0,1-1.18-.48,2,2,0,0,1-.43-1.33,2,2,0,0,1,.44-1.38,1.47,1.47,0,0,1,1.14-.49,1.41,1.41,0,0,1,1.1.48,1.94,1.94,0,0,1,.43,1.35,1,1,0,0,1,0,.16H59.45a1.38,1.38,0,0,0,.32.89.92.92,0,0,0,.7.31.84.84,0,0,0,.54-.18A1.18,1.18,0,0,0,61.36,131.29Zm-1.88-1h1.89a1.22,1.22,0,0,0-.22-.66.91.91,0,0,0-1.37-.07A1.11,1.11,0,0,0,59.48,130.32Z" transform="translate(1.42 -21.92)"/><path class="cls-1" d="M44.74,150.56l.58-.05a1.32,1.32,0,0,0,.19.57,1,1,0,0,0,.47.36,1.65,1.65,0,0,0,.72.14,1.72,1.72,0,0,0,.62-.1.89.89,0,0,0,.4-.29.64.64,0,0,0,.13-.4.58.58,0,0,0-.13-.38,1,1,0,0,0-.41-.28c-.13,0-.41-.12-.83-.22a4.72,4.72,0,0,1-.9-.29,1.28,1.28,0,0,1-.5-.44,1,1,0,0,1-.16-.58,1.18,1.18,0,0,1,.2-.65,1.24,1.24,0,0,1,.58-.47,2.46,2.46,0,0,1,1.77,0,1.3,1.3,0,0,1,.61.49,1.43,1.43,0,0,1,.23.73l-.59,0a1,1,0,0,0-.33-.67,1.24,1.24,0,0,0-.81-.22,1.27,1.27,0,0,0-.81.2.62.62,0,0,0-.26.49.54.54,0,0,0,.18.42,2.79,2.79,0,0,0,.93.33,6.29,6.29,0,0,1,1,.29,1.48,1.48,0,0,1,.6.48,1.14,1.14,0,0,1,.2.66,1.29,1.29,0,0,1-.22.7,1.34,1.34,0,0,1-.61.51,2.13,2.13,0,0,1-.9.18,2.67,2.67,0,0,1-1-.18,1.46,1.46,0,0,1-.67-.55A1.63,1.63,0,0,1,44.74,150.56Z" transform="translate(1.42 -21.92)"/><path class="cls-1" d="M49.21,153.35v-4.67h.52v.44a1.34,1.34,0,0,1,.42-.38,1.08,1.08,0,0,1,.56-.13,1.31,1.31,0,0,1,.76.22,1.37,1.37,0,0,1,.5.63,2.3,2.3,0,0,1,.17.88,2.19,2.19,0,0,1-.19.94,1.39,1.39,0,0,1-.54.63,1.33,1.33,0,0,1-.74.22,1.07,1.07,0,0,1-.51-.12,1.26,1.26,0,0,1-.38-.3v1.64Zm.52-3a1.51,1.51,0,0,0,.26,1,.81.81,0,0,0,.64.31.82.82,0,0,0,.65-.32,1.49,1.49,0,0,0,.28-1,1.45,1.45,0,0,0-.27-1,.79.79,0,0,0-.63-.32.82.82,0,0,0-.65.34A1.48,1.48,0,0,0,49.73,150.39Z" transform="translate(1.42 -21.92)"/><path class="cls-1" d="M55.14,151l.59.07a1.53,1.53,0,0,1-.52.81,1.78,1.78,0,0,1-2.14-.17,1.79,1.79,0,0,1-.43-1.28,1.82,1.82,0,0,1,.44-1.32,1.58,1.58,0,0,1,2.24,0,1.84,1.84,0,0,1,.43,1.29s0,.09,0,.16H53.23a1.28,1.28,0,0,0,.31.85,1,1,0,0,0,.71.29.84.84,0,0,0,.53-.16A1.13,1.13,0,0,0,55.14,151Zm-1.88-.92h1.88a1.08,1.08,0,0,0-.21-.64.89.89,0,0,0-.71-.33.93.93,0,0,0-.66.26A1.05,1.05,0,0,0,53.26,150.05Z" transform="translate(1.42 -21.92)"/><path class="cls-1" d="M58.75,151l.59.07a1.42,1.42,0,0,1-.52.81,1.76,1.76,0,0,1-2.13-.17,1.79,1.79,0,0,1-.44-1.28,1.86,1.86,0,0,1,.44-1.32,1.46,1.46,0,0,1,1.14-.47,1.41,1.41,0,0,1,1.1.46,1.8,1.8,0,0,1,.43,1.29v.16H56.84a1.29,1.29,0,0,0,.32.85,1,1,0,0,0,.7.29.89.89,0,0,0,.54-.16A1.12,1.12,0,0,0,58.75,151Zm-1.87-.92h1.88a1.15,1.15,0,0,0-.22-.64.88.88,0,0,0-.71-.33.93.93,0,0,0-.66.26A1,1,0,0,0,56.88,150.05Z" transform="translate(1.42 -21.92)"/><path class="cls-1" d="M62.24,152.05v-.42a1,1,0,0,1-.94.5,1.31,1.31,0,0,1-.74-.22,1.51,1.51,0,0,1-.52-.62,2.07,2.07,0,0,1-.19-.92,2.42,2.42,0,0,1,.17-.91,1.28,1.28,0,0,1,.5-.63,1.35,1.35,0,0,1,.76-.22,1.08,1.08,0,0,1,.54.13,1,1,0,0,1,.39.33V147.4h.57v4.65Zm-1.8-1.68a1.48,1.48,0,0,0,.27,1,.84.84,0,0,0,.65.32.78.78,0,0,0,.63-.31,1.36,1.36,0,0,0,.26-.93,1.6,1.6,0,0,0-.26-1,.84.84,0,0,0-.66-.32.79.79,0,0,0-.64.31A1.55,1.55,0,0,0,60.44,150.37Z" transform="translate(1.42 -21.92)"/><path class="cls-1" d="M65.49,153.35V147.4h1.26v.47h-.69v5h.69v.48Z" transform="translate(1.42 -21.92)"/><path class="cls-1" d="M67.28,152.05v-3.37h.51v.52a1.47,1.47,0,0,1,.37-.48.66.66,0,0,1,.36-.11,1.12,1.12,0,0,1,.59.18l-.2.53a.84.84,0,0,0-.42-.12.57.57,0,0,0-.33.11.62.62,0,0,0-.21.31,2.09,2.09,0,0,0-.1.67v1.76Z" transform="translate(1.42 -21.92)"/><path class="cls-1" d="M69,152.13l1.35-4.81h.46l-1.35,4.81Z" transform="translate(1.42 -21.92)"/><path class="cls-1" d="M71.26,152.05v-3.37h.51v.48a1.08,1.08,0,0,1,.42-.4,1.16,1.16,0,0,1,.6-.15,1.13,1.13,0,0,1,.61.15.83.83,0,0,1,.34.44,1.2,1.2,0,0,1,1-.59,1,1,0,0,1,.77.28,1.17,1.17,0,0,1,.27.85v2.31h-.57v-2.12a1.48,1.48,0,0,0,0-.49.52.52,0,0,0-.2-.24.58.58,0,0,0-.35-.1.81.81,0,0,0-.59.24,1.08,1.08,0,0,0-.23.76v2h-.57v-2.19a1,1,0,0,0-.14-.57.55.55,0,0,0-.46-.19.84.84,0,0,0-.44.13.69.69,0,0,0-.3.37,2.15,2.15,0,0,0-.09.71v1.74Z" transform="translate(1.42 -21.92)"/><path class="cls-1" d="M76.67,148.06v-.66h.57v.66Zm0,4v-3.37h.57v3.37Z" transform="translate(1.42 -21.92)"/><path class="cls-1" d="M78.11,152.05v-3.37h.52v.48a1.2,1.2,0,0,1,1.07-.55,1.3,1.3,0,0,1,.56.11.88.88,0,0,1,.38.28,1,1,0,0,1,.18.43,3.37,3.37,0,0,1,0,.55v2.07h-.57V150a1.72,1.72,0,0,0-.06-.52.57.57,0,0,0-.24-.27.75.75,0,0,0-.4-.11,1,1,0,0,0-.63.23,1.14,1.14,0,0,0-.26.88v1.84Z" transform="translate(1.42 -21.92)"/><path class="cls-1" d="M82.68,153.35H81.42v-.48h.69v-5h-.69v-.47h1.26Z" transform="translate(1.42 -21.92)"/></g></svg>