<svg xmlns="http://www.w3.org/2000/svg" viewBox="0 0 115.89 131.43"><defs><style>.cls-1,.cls-2,.cls-3,.cls-5,.繝医Ν繧ｯ繧ｰ繝ｩ繝廟繧ｰ繝ｬ繝ｼ邱,.邱喟0\.5pt-2{fill:none;}.cls-1,.cls-2,.繝医Ν繧ｯ繧ｰ繝ｩ繝廟繧ｰ繝ｬ繝ｼ邱{stroke:#9fa0a0;}.cls-1,.cls-2,.cls-3,.邱喟0\.5pt-2{stroke-miterlimit:10;}.cls-2{stroke-dasharray:3.35 1.62;}.cls-3,.cls-5,.邱喟0\.5pt-2{stroke:#231815;}.cls-3{stroke-width:0.14px;}.繝医Ν繧ｯ繧ｰ繝ｩ繝廟繧ｰ繝ｬ繝ｼ邱{stroke-width:3px;}.cls-4{fill:#231815;}.繝後Μ_逋ｽ{fill:#fff;}.邱喟0\.5pt-2{stroke-width:0.5px;}</style></defs><g id="Illust"><line class="cls-1" x1="101.4" y1="100.55" x2="101.4" y2="102.1"/><line class="cls-2" x1="101.4" y1="103.73" x2="101.4" y2="112.87"/><line class="cls-1" x1="101.4" y1="113.68" x2="101.4" y2="115.23"/><line class="cls-3" x1="42.53" y1="2.18" x2="42.53" y2="115.56"/><line class="cls-3" x1="65.21" y1="2.18" x2="65.21" y2="115.56"/><line class="cls-3" x1="87.89" y1="2.18" x2="87.89" y2="115.56"/><line class="cls-3" x1="19.86" y1="16.35" x2="110.56" y2="16.35"/><line class="cls-3" x1="19.86" y1="30.52" x2="110.56" y2="30.52"/><line class="cls-3" x1="19.86" y1="44.7" x2="110.56" y2="44.7"/><line class="cls-3" x1="19.86" y1="58.87" x2="110.56" y2="58.87"/><line class="cls-3" x1="19.86" y1="73.04" x2="110.56" y2="73.04"/><line class="cls-3" x1="19.86" y1="87.22" x2="110.56" y2="87.22"/><line class="cls-3" x1="19.86" y1="101.39" x2="110.56" y2="101.39"/><polyline class="繝医Ν繧ｯ繧ｰ繝ｩ繝廟繧ｰ繝ｬ繝ｼ邱" points="19.97 82.55 31.19 82.55 42.53 82.55 57.25 82.55 65.21 88.55 76.55 93.88 87.89 97.55 99.22 99.89 111.22 102.02"/><path class="cls-4" d="M17.24,141.39a3.54,3.54,0,0,1,.13-1,1.33,1.33,0,0,1,.39-.59,1,1,0,0,1,.65-.21,1.12,1.12,0,0,1,.5.11.9.9,0,0,1,.36.34,1.73,1.73,0,0,1,.23.53,3.76,3.76,0,0,1,.08.85,3.44,3.44,0,0,1-.13,1,1.31,1.31,0,0,1-.39.6,1,1,0,0,1-.65.21,1,1,0,0,1-.81-.37A2.32,2.32,0,0,1,17.24,141.39Zm.45,0a2.23,2.23,0,0,0,.21,1.17.59.59,0,0,0,1,0,3.55,3.55,0,0,0,0-2.35.62.62,0,0,0-.51-.29.57.57,0,0,0-.49.26A2.28,2.28,0,0,0,17.69,141.39Z" transform="translate(1.43 -21.92)"/><path class="cls-4" d="M37.4,143.15H37v-2.8a2.54,2.54,0,0,1-.42.3,3.27,3.27,0,0,1-.46.23v-.43a2.37,2.37,0,0,0,.64-.42,1.76,1.76,0,0,0,.39-.47h.28Z" transform="translate(1.43 -21.92)"/><path class="cls-4" d="M38.53,141.38a3.2,3.2,0,0,1,.13-1,1.28,1.28,0,0,1,.39-.59,1.14,1.14,0,0,1,1.15-.1.9.9,0,0,1,.36.34,1.51,1.51,0,0,1,.22.53,4.23,4.23,0,0,1-.05,1.86,1.22,1.22,0,0,1-.38.6,1.1,1.1,0,0,1-1.47-.16A2.41,2.41,0,0,1,38.53,141.38Zm.45,0a2.25,2.25,0,0,0,.21,1.18.59.59,0,0,0,1,0,2.38,2.38,0,0,0,.2-1.18,2.34,2.34,0,0,0-.2-1.17.63.63,0,0,0-.52-.29.56.56,0,0,0-.48.26A2.24,2.24,0,0,0,39,141.38Z" transform="translate(1.43 -21.92)"/><path class="cls-4" d="M41.31,141.38a3.2,3.2,0,0,1,.13-1,1.28,1.28,0,0,1,.39-.59,1.14,1.14,0,0,1,1.15-.1.9.9,0,0,1,.36.34,1.51,1.51,0,0,1,.22.53,3.22,3.22,0,0,1,.08.84,3.56,3.56,0,0,1-.12,1,1.31,1.31,0,0,1-.39.6,1.1,1.1,0,0,1-1.47-.16A2.41,2.41,0,0,1,41.31,141.38Zm.45,0a2.25,2.25,0,0,0,.21,1.18.59.59,0,0,0,1,0,2.38,2.38,0,0,0,.2-1.18,2.34,2.34,0,0,0-.2-1.17.63.63,0,0,0-.52-.29.56.56,0,0,0-.48.26A2.24,2.24,0,0,0,41.76,141.38Z" transform="translate(1.43 -21.92)"/><path class="cls-4" d="M44.09,141.38a3.52,3.52,0,0,1,.13-1,1.28,1.28,0,0,1,.39-.59,1.14,1.14,0,0,1,1.15-.1.9.9,0,0,1,.36.34,1.73,1.73,0,0,1,.23.53,3.72,3.72,0,0,1,.08.84,3.52,3.52,0,0,1-.13,1,1.31,1.31,0,0,1-.39.6,1,1,0,0,1-.65.21,1,1,0,0,1-.81-.37A2.33,2.33,0,0,1,44.09,141.38Zm.45,0a2.25,2.25,0,0,0,.21,1.18.59.59,0,0,0,1,0,2.27,2.27,0,0,0,.2-1.18,2.23,2.23,0,0,0-.2-1.17.63.63,0,0,0-.52-.29.56.56,0,0,0-.48.26A2.24,2.24,0,0,0,44.54,141.38Z" transform="translate(1.43 -21.92)"/><path class="cls-4" d="M60.74,142.73v.42H58.37a.81.81,0,0,1,.05-.31,1.58,1.58,0,0,1,.29-.47,4,4,0,0,1,.58-.54,5.15,5.15,0,0,0,.78-.76.9.9,0,0,0,.21-.53.58.58,0,0,0-.19-.44.65.65,0,0,0-.48-.18.66.66,0,0,0-.51.19.75.75,0,0,0-.2.53l-.45,0a1.12,1.12,0,0,1,.35-.77,1.17,1.17,0,0,1,.82-.26,1.13,1.13,0,0,1,.81.28.94.94,0,0,1,.3.71,1.06,1.06,0,0,1-.09.42,1.51,1.51,0,0,1-.29.44,6.75,6.75,0,0,1-.68.63,6.1,6.1,0,0,0-.5.45,1.33,1.33,0,0,0-.19.24Z" transform="translate(1.43 -21.92)"/><path class="cls-4" d="M61.21,141.38a3.2,3.2,0,0,1,.13-1,1.14,1.14,0,0,1,.39-.59,1,1,0,0,1,.64-.21,1,1,0,0,1,.51.11,1.06,1.06,0,0,1,.36.34,1.73,1.73,0,0,1,.22.53,3.72,3.72,0,0,1,.08.84,3.2,3.2,0,0,1-.13,1,1.17,1.17,0,0,1-.39.6,1.09,1.09,0,0,1-1.46-.16A2.41,2.41,0,0,1,61.21,141.38Zm.45,0a2.38,2.38,0,0,0,.2,1.18.62.62,0,0,0,.51.29.6.6,0,0,0,.51-.29,2.25,2.25,0,0,0,.21-1.18,2.2,2.2,0,0,0-.21-1.17.61.61,0,0,0-.51-.29.56.56,0,0,0-.48.26A2.15,2.15,0,0,0,61.66,141.38Z" transform="translate(1.43 -21.92)"/><path class="cls-4" d="M64,141.38a3.2,3.2,0,0,1,.13-1,1.2,1.2,0,0,1,.39-.59,1,1,0,0,1,.64-.21,1,1,0,0,1,.51.11A1,1,0,0,1,66,140a1.73,1.73,0,0,1,.22.53,3.72,3.72,0,0,1,.08.84,3.2,3.2,0,0,1-.13,1,1.22,1.22,0,0,1-.38.6,1,1,0,0,1-.66.21,1,1,0,0,1-.81-.37A2.41,2.41,0,0,1,64,141.38Zm.45,0a2.25,2.25,0,0,0,.21,1.18.58.58,0,0,0,1,0,2.25,2.25,0,0,0,.21-1.18,2.2,2.2,0,0,0-.21-1.17.61.61,0,0,0-.51-.29.56.56,0,0,0-.48.26A2.15,2.15,0,0,0,64.44,141.38Z" transform="translate(1.43 -21.92)"/><path class="cls-4" d="M66.77,141.38a3.2,3.2,0,0,1,.13-1,1.28,1.28,0,0,1,.39-.59,1.14,1.14,0,0,1,1.15-.1.9.9,0,0,1,.36.34,1.73,1.73,0,0,1,.22.53,4.23,4.23,0,0,1,0,1.86,1.22,1.22,0,0,1-.38.6,1,1,0,0,1-.65.21,1,1,0,0,1-.82-.37A2.41,2.41,0,0,1,66.77,141.38Zm.45,0a2.25,2.25,0,0,0,.21,1.18.58.58,0,0,0,1,0,2.25,2.25,0,0,0,.21-1.18,2.2,2.2,0,0,0-.21-1.17.6.6,0,0,0-.51-.29.56.56,0,0,0-.48.26A2.24,2.24,0,0,0,67.22,141.38Z" transform="translate(1.43 -21.92)"/><path class="cls-4" d="M81.11,142.2l.44,0a.94.94,0,0,0,.25.53.64.64,0,0,0,.45.17.69.69,0,0,0,.52-.22.72.72,0,0,0,.21-.53.68.68,0,0,0-.19-.5.7.7,0,0,0-.51-.19,1,1,0,0,0-.31.05l0-.39h.07a.89.89,0,0,0,.51-.14.5.5,0,0,0,.22-.45.52.52,0,0,0-.16-.4.57.57,0,0,0-.42-.16.59.59,0,0,0-.43.16.83.83,0,0,0-.22.48l-.44-.08a1.11,1.11,0,0,1,.37-.68,1.05,1.05,0,0,1,.71-.24,1.25,1.25,0,0,1,.54.12.94.94,0,0,1,.37.34.88.88,0,0,1,.13.47.79.79,0,0,1-.12.42.8.8,0,0,1-.37.3.82.82,0,0,1,.49.3.93.93,0,0,1,.18.58,1.07,1.07,0,0,1-.34.8,1.24,1.24,0,0,1-.87.32,1.12,1.12,0,0,1-.78-.28A1.06,1.06,0,0,1,81.11,142.2Z" transform="translate(1.43 -21.92)"/><path class="cls-4" d="M83.88,141.38a3.52,3.52,0,0,1,.13-1,1.28,1.28,0,0,1,.39-.59,1,1,0,0,1,.65-.21.95.95,0,0,1,.87.45,2,2,0,0,1,.22.53,3.72,3.72,0,0,1,.08.84,3.2,3.2,0,0,1-.13,1,1.31,1.31,0,0,1-.39.6,1,1,0,0,1-.65.21,1,1,0,0,1-.81-.37A2.33,2.33,0,0,1,83.88,141.38Zm.46,0a2.27,2.27,0,0,0,.2,1.18.59.59,0,0,0,1,0,2.25,2.25,0,0,0,.21-1.18,2.2,2.2,0,0,0-.21-1.17.62.62,0,0,0-.51-.29.57.57,0,0,0-.49.26A2.26,2.26,0,0,0,84.34,141.38Z" transform="translate(1.43 -21.92)"/><path class="cls-4" d="M86.66,141.38a3.17,3.17,0,0,1,.14-1,1.19,1.19,0,0,1,.38-.59,1,1,0,0,1,.65-.21.95.95,0,0,1,.87.45,2,2,0,0,1,.22.53,3.72,3.72,0,0,1,.08.84,3.2,3.2,0,0,1-.13,1,1.31,1.31,0,0,1-.39.6,1,1,0,0,1-.65.21,1,1,0,0,1-.81-.37A2.33,2.33,0,0,1,86.66,141.38Zm.46,0a2.38,2.38,0,0,0,.2,1.18.59.59,0,0,0,1,0,2.25,2.25,0,0,0,.21-1.18,2.2,2.2,0,0,0-.21-1.17.62.62,0,0,0-.51-.29.58.58,0,0,0-.49.26A2.26,2.26,0,0,0,87.12,141.38Z" transform="translate(1.43 -21.92)"/><path class="cls-4" d="M89.45,141.38a3.2,3.2,0,0,1,.13-1,1.19,1.19,0,0,1,.38-.59,1,1,0,0,1,.65-.21.95.95,0,0,1,.87.45,1.73,1.73,0,0,1,.22.53,3.72,3.72,0,0,1,.08.84,3.2,3.2,0,0,1-.13,1,1.31,1.31,0,0,1-.39.6,1,1,0,0,1-.65.21,1,1,0,0,1-.81-.37A2.34,2.34,0,0,1,89.45,141.38Zm.45,0a2.38,2.38,0,0,0,.2,1.18.59.59,0,0,0,1,0,2.25,2.25,0,0,0,.21-1.18,2.2,2.2,0,0,0-.21-1.17.62.62,0,0,0-.51-.29.58.58,0,0,0-.49.26A2.26,2.26,0,0,0,89.9,141.38Z" transform="translate(1.43 -21.92)"/><path class="cls-4" d="M105.19,143.15v-.86h-1.55v-.4l1.63-2.32h.36v2.32h.48v.4h-.48v.86Zm0-1.26v-1.61l-1.12,1.61Z" transform="translate(1.43 -21.92)"/><path class="cls-4" d="M106.56,141.38a3.2,3.2,0,0,1,.13-1,1.28,1.28,0,0,1,.39-.59,1.14,1.14,0,0,1,1.15-.1.9.9,0,0,1,.36.34,1.51,1.51,0,0,1,.22.53,3.22,3.22,0,0,1,.08.84,3.56,3.56,0,0,1-.12,1,1.31,1.31,0,0,1-.39.6,1.1,1.1,0,0,1-1.47-.16A2.41,2.41,0,0,1,106.56,141.38Zm.45,0a2.25,2.25,0,0,0,.21,1.18.59.59,0,0,0,1,0,2.38,2.38,0,0,0,.2-1.18,2.31,2.31,0,0,0-.2-1.17.63.63,0,0,0-.52-.29.54.54,0,0,0-.48.26A2.24,2.24,0,0,0,107,141.38Z" transform="translate(1.43 -21.92)"/><path class="cls-4" d="M109.34,141.38a3.52,3.52,0,0,1,.13-1,1.28,1.28,0,0,1,.39-.59,1.14,1.14,0,0,1,1.15-.1.9.9,0,0,1,.36.34,1.73,1.73,0,0,1,.23.53,3.72,3.72,0,0,1,.08.84,3.52,3.52,0,0,1-.13,1,1.31,1.31,0,0,1-.39.6,1,1,0,0,1-.65.21,1,1,0,0,1-.81-.37A2.33,2.33,0,0,1,109.34,141.38Zm.45,0a2.25,2.25,0,0,0,.21,1.18.59.59,0,0,0,1,0,2.27,2.27,0,0,0,.2-1.18,2.2,2.2,0,0,0-.2-1.17.63.63,0,0,0-.52-.29.54.54,0,0,0-.48.26A2.24,2.24,0,0,0,109.79,141.38Z" transform="translate(1.43 -21.92)"/><path class="cls-4" d="M112.12,141.38a3.52,3.52,0,0,1,.13-1,1.28,1.28,0,0,1,.39-.59,1.14,1.14,0,0,1,1.15-.1.9.9,0,0,1,.36.34,1.73,1.73,0,0,1,.23.53,3.72,3.72,0,0,1,.08.84,3.52,3.52,0,0,1-.13,1,1.31,1.31,0,0,1-.39.6,1,1,0,0,1-.65.21,1,1,0,0,1-.81-.37A2.33,2.33,0,0,1,112.12,141.38Zm.45,0a2.25,2.25,0,0,0,.21,1.18.59.59,0,0,0,1,0,2.27,2.27,0,0,0,.2-1.18,2.2,2.2,0,0,0-.2-1.17.63.63,0,0,0-.52-.29.54.54,0,0,0-.48.26A2.24,2.24,0,0,0,112.57,141.38Z" transform="translate(1.43 -21.92)"/><path class="cls-4" d="M10.27,123.7l.46,0a.77.77,0,0,0,.24.51.64.64,0,0,0,.45.17.68.68,0,0,0,.53-.24.88.88,0,0,0,.22-.63.84.84,0,0,0-.21-.6.74.74,0,0,0-.55-.21.86.86,0,0,0-.39.09.78.78,0,0,0-.26.25l-.42,0,.35-1.84h1.78v.42H11l-.19,1a1.15,1.15,0,0,1,.68-.22,1.1,1.1,0,0,1,.79.32,1.17,1.17,0,0,1,.32.84,1.37,1.37,0,0,1-.28.84,1.14,1.14,0,0,1-.94.43,1.16,1.16,0,0,1-.8-.27A1,1,0,0,1,10.27,123.7Z" transform="translate(1.43 -21.92)"/><path class="cls-4" d="M13.29,124.64v-.5h.5v.5Z" transform="translate(1.43 -21.92)"/><path class="cls-4" d="M14.44,122.88a3.23,3.23,0,0,1,.13-1,1.24,1.24,0,0,1,.38-.59,1,1,0,0,1,.65-.21,1.19,1.19,0,0,1,.51.11,1.06,1.06,0,0,1,.36.34,1.73,1.73,0,0,1,.22.53,3.76,3.76,0,0,1,.08.85,3.14,3.14,0,0,1-.13,1,1.31,1.31,0,0,1-.39.6,1,1,0,0,1-.65.21,1,1,0,0,1-.81-.37A2.33,2.33,0,0,1,14.44,122.88Zm.45,0a2.36,2.36,0,0,0,.2,1.17.59.59,0,0,0,1,0,3.39,3.39,0,0,0,0-2.35.62.62,0,0,0-.51-.29.58.58,0,0,0-.49.26A2.3,2.3,0,0,0,14.89,122.88Z" transform="translate(1.43 -21.92)"/><path class="cls-4" d="M9.14,96.29H8.7v-2.8a1.83,1.83,0,0,1-.42.31,2.69,2.69,0,0,1-.46.22V93.6a3,3,0,0,0,.65-.42,1.79,1.79,0,0,0,.39-.48h.28Z" transform="translate(1.43 -21.92)"/><path class="cls-4" d="M10.26,95.36l.47,0a.81.81,0,0,0,.23.5.63.63,0,0,0,.45.17.71.71,0,0,0,.54-.23.91.91,0,0,0,.22-.64.8.8,0,0,0-.21-.59.71.71,0,0,0-.55-.22.76.76,0,0,0-.39.1.63.63,0,0,0-.26.25l-.42-.06.35-1.84h1.78v.42H11l-.19,1a1.15,1.15,0,0,1,.67-.23,1.08,1.08,0,0,1,.8.33,1.13,1.13,0,0,1,.32.83,1.3,1.3,0,0,1-.29.84,1.12,1.12,0,0,1-.94.44,1.15,1.15,0,0,1-.79-.28A1,1,0,0,1,10.26,95.36Z" transform="translate(1.43 -21.92)"/><path class="cls-4" d="M13.29,96.29v-.5h.5v.5Z" transform="translate(1.43 -21.92)"/><path class="cls-4" d="M14.43,94.53a3.17,3.17,0,0,1,.14-1,1.22,1.22,0,0,1,.38-.6,1,1,0,0,1,.65-.21,1.07,1.07,0,0,1,.51.12,1,1,0,0,1,.36.33,2.17,2.17,0,0,1,.22.53,3.76,3.76,0,0,1,.08.85,3.2,3.2,0,0,1-.13,1,1.33,1.33,0,0,1-.39.59,1,1,0,0,1-.65.22,1,1,0,0,1-.81-.38A2.3,2.3,0,0,1,14.43,94.53Zm.46,0a2.31,2.31,0,0,0,.2,1.17.59.59,0,0,0,1,0,3.36,3.36,0,0,0,0-2.34.61.61,0,0,0-.51-.3.58.58,0,0,0-.49.26A2.3,2.3,0,0,0,14.89,94.53Z" transform="translate(1.43 -21.92)"/><path class="cls-4" d="M9.14,110.47H8.7v-2.8a2.18,2.18,0,0,1-.42.3,2.81,2.81,0,0,1-.46.23v-.43a2.42,2.42,0,0,0,.65-.42,1.65,1.65,0,0,0,.39-.48h.28Z" transform="translate(1.43 -21.92)"/><path class="cls-4" d="M10.27,108.7a3.2,3.2,0,0,1,.13-1,1.22,1.22,0,0,1,.38-.6,1,1,0,0,1,.65-.21,1.07,1.07,0,0,1,.51.12,1.13,1.13,0,0,1,.36.33,1.91,1.91,0,0,1,.22.54,3.72,3.72,0,0,1,.08.84,3.2,3.2,0,0,1-.13,1,1.31,1.31,0,0,1-.39.6,1,1,0,0,1-.65.21,1,1,0,0,1-.81-.37A2.34,2.34,0,0,1,10.27,108.7Zm.45,0a2.38,2.38,0,0,0,.2,1.18.62.62,0,0,0,.51.29.61.61,0,0,0,.51-.3,3.36,3.36,0,0,0,0-2.34.6.6,0,0,0-.51-.29.57.57,0,0,0-.49.25A2.33,2.33,0,0,0,10.72,108.7Z" transform="translate(1.43 -21.92)"/><path class="cls-4" d="M13.29,110.47V110h.5v.5Z" transform="translate(1.43 -21.92)"/><path class="cls-4" d="M14.44,108.7a3.2,3.2,0,0,1,.13-1,1.22,1.22,0,0,1,.38-.6,1,1,0,0,1,.65-.21,1.07,1.07,0,0,1,.51.12,1.13,1.13,0,0,1,.36.33,1.91,1.91,0,0,1,.22.54,3.72,3.72,0,0,1,.08.84,3.2,3.2,0,0,1-.13,1,1.31,1.31,0,0,1-.39.6,1,1,0,0,1-.65.21,1,1,0,0,1-.81-.37A2.34,2.34,0,0,1,14.44,108.7Zm.45,0a2.38,2.38,0,0,0,.2,1.18.62.62,0,0,0,.51.29.61.61,0,0,0,.51-.3,3.36,3.36,0,0,0,0-2.34.6.6,0,0,0-.51-.29.57.57,0,0,0-.49.25A2.33,2.33,0,0,0,14.89,108.7Z" transform="translate(1.43 -21.92)"/><path class="cls-4" d="M9.79,81.7v.42H7.43a.61.61,0,0,1,.05-.3,1.76,1.76,0,0,1,.29-.48,3.81,3.81,0,0,1,.57-.54A4.48,4.48,0,0,0,9.13,80a.9.9,0,0,0,.21-.53.61.61,0,0,0-.19-.44.67.67,0,0,0-.49-.18.69.69,0,0,0-.5.19.71.71,0,0,0-.2.53l-.45,0a1.14,1.14,0,0,1,.35-.77,1.21,1.21,0,0,1,.81-.26,1.13,1.13,0,0,1,.82.28.94.94,0,0,1,.3.71,1,1,0,0,1-.09.42,1.51,1.51,0,0,1-.29.44,8.11,8.11,0,0,1-.68.63l-.51.45A1.88,1.88,0,0,0,8,81.7Z" transform="translate(1.43 -21.92)"/><path class="cls-4" d="M10.26,80.36a3.19,3.19,0,0,1,.14-1,1.24,1.24,0,0,1,.38-.59,1,1,0,0,1,.65-.21,1.19,1.19,0,0,1,.51.11,1.06,1.06,0,0,1,.36.34,2,2,0,0,1,.22.53,3.76,3.76,0,0,1,.08.85,3.09,3.09,0,0,1-.13,1,1.31,1.31,0,0,1-.39.6,1,1,0,0,1-.65.21,1,1,0,0,1-.81-.37A2.32,2.32,0,0,1,10.26,80.36Zm.46,0a2.34,2.34,0,0,0,.2,1.17.59.59,0,0,0,1,0,3.39,3.39,0,0,0,0-2.35.62.62,0,0,0-.51-.29.58.58,0,0,0-.49.26A2.3,2.3,0,0,0,10.72,80.36Z" transform="translate(1.43 -21.92)"/><path class="cls-4" d="M13.29,82.12v-.5h.5v.5Z" transform="translate(1.43 -21.92)"/><path class="cls-4" d="M14.43,80.36a3.19,3.19,0,0,1,.14-1,1.24,1.24,0,0,1,.38-.59,1,1,0,0,1,.65-.21,1.19,1.19,0,0,1,.51.11,1.06,1.06,0,0,1,.36.34,2,2,0,0,1,.22.53,3.76,3.76,0,0,1,.08.85,3.09,3.09,0,0,1-.13,1,1.31,1.31,0,0,1-.39.6,1,1,0,0,1-.65.21,1,1,0,0,1-.81-.37A2.32,2.32,0,0,1,14.43,80.36Zm.46,0a2.34,2.34,0,0,0,.2,1.17.59.59,0,0,0,1,0,3.39,3.39,0,0,0,0-2.35.62.62,0,0,0-.51-.29.58.58,0,0,0-.49.26A2.3,2.3,0,0,0,14.89,80.36Z" transform="translate(1.43 -21.92)"/><path class="cls-4" d="M9.79,67.53V68H7.43a.65.65,0,0,1,.05-.31,1.58,1.58,0,0,1,.29-.47,3.81,3.81,0,0,1,.57-.54,4.87,4.87,0,0,0,.79-.76.92.92,0,0,0,.21-.53.6.6,0,0,0-.19-.44.67.67,0,0,0-.49-.18.65.65,0,0,0-.5.19.71.71,0,0,0-.2.53l-.45,0a1.12,1.12,0,0,1,.35-.77,1.17,1.17,0,0,1,.81-.27,1.14,1.14,0,0,1,.82.29.94.94,0,0,1,.3.71,1.06,1.06,0,0,1-.09.42,1.66,1.66,0,0,1-.29.44,8.11,8.11,0,0,1-.68.63l-.51.45a1.88,1.88,0,0,0-.18.24Z" transform="translate(1.43 -21.92)"/><path class="cls-4" d="M10.26,67l.47,0a.81.81,0,0,0,.23.51.71.71,0,0,0,1-.07.89.89,0,0,0,.22-.64.82.82,0,0,0-.21-.59.75.75,0,0,0-.55-.22.87.87,0,0,0-.39.1.69.69,0,0,0-.26.25l-.42,0,.35-1.84h1.78v.42H11l-.19,1a1.14,1.14,0,0,1,.67-.22,1.07,1.07,0,0,1,.8.32,1.15,1.15,0,0,1,.32.84,1.27,1.27,0,0,1-.29.83,1.12,1.12,0,0,1-.94.44,1.15,1.15,0,0,1-.79-.27A1.09,1.09,0,0,1,10.26,67Z" transform="translate(1.43 -21.92)"/><path class="cls-4" d="M13.29,68v-.5h.5V68Z" transform="translate(1.43 -21.92)"/><path class="cls-4" d="M14.43,66.18a3.17,3.17,0,0,1,.14-1,1.22,1.22,0,0,1,.38-.6,1,1,0,0,1,.65-.21,1.07,1.07,0,0,1,.51.12,1.13,1.13,0,0,1,.36.33,2.25,2.25,0,0,1,.22.54,3.72,3.72,0,0,1,.08.84,3.2,3.2,0,0,1-.13,1,1.31,1.31,0,0,1-.39.6,1,1,0,0,1-.65.21,1,1,0,0,1-.81-.37A2.33,2.33,0,0,1,14.43,66.18Zm.46,0a2.38,2.38,0,0,0,.2,1.18.59.59,0,0,0,1,0,2.25,2.25,0,0,0,.21-1.18A2.18,2.18,0,0,0,16.11,65a.62.62,0,0,0-.51-.29.57.57,0,0,0-.49.25A2.33,2.33,0,0,0,14.89,66.18Z" transform="translate(1.43 -21.92)"/><path class="cls-4" d="M7.49,52.83l.44-.06a1,1,0,0,0,.25.54.65.65,0,0,0,.45.16.72.72,0,0,0,.73-.74.68.68,0,0,0-.19-.5.71.71,0,0,0-.51-.2,1.5,1.5,0,0,0-.31,0l.05-.38h.07A.9.9,0,0,0,9,51.55a.48.48,0,0,0,.22-.45A.54.54,0,0,0,9,50.7a.61.61,0,0,0-.42-.16.63.63,0,0,0-.43.16.83.83,0,0,0-.22.49l-.44-.08a1.14,1.14,0,0,1,.37-.69,1.05,1.05,0,0,1,.71-.24,1.13,1.13,0,0,1,.54.13.9.9,0,0,1,.5.8.74.74,0,0,1-.12.42.88.88,0,0,1-.37.31.82.82,0,0,1,.49.3.91.91,0,0,1,.18.58,1,1,0,0,1-.34.79,1.21,1.21,0,0,1-.87.33,1.16,1.16,0,0,1-.78-.28A1.08,1.08,0,0,1,7.49,52.83Z" transform="translate(1.43 -21.92)"/><path class="cls-4" d="M10.26,52a3.17,3.17,0,0,1,.14-1,1.22,1.22,0,0,1,.38-.6,1,1,0,0,1,.65-.21,1.07,1.07,0,0,1,.51.12,1,1,0,0,1,.36.33,2.17,2.17,0,0,1,.22.53,3.76,3.76,0,0,1,.08.85,3.2,3.2,0,0,1-.13,1,1.33,1.33,0,0,1-.39.59,1,1,0,0,1-.65.22,1,1,0,0,1-.81-.37A2.35,2.35,0,0,1,10.26,52Zm.46,0a2.31,2.31,0,0,0,.2,1.17.59.59,0,0,0,1,0,3.36,3.36,0,0,0,0-2.34.6.6,0,0,0-.51-.29.57.57,0,0,0-.49.25A2.3,2.3,0,0,0,10.72,52Z" transform="translate(1.43 -21.92)"/><path class="cls-4" d="M13.29,53.78v-.51h.5v.51Z" transform="translate(1.43 -21.92)"/><path class="cls-4" d="M14.43,52a3.17,3.17,0,0,1,.14-1,1.22,1.22,0,0,1,.38-.6,1,1,0,0,1,.65-.21,1.07,1.07,0,0,1,.51.12,1,1,0,0,1,.36.33,2.17,2.17,0,0,1,.22.53,3.76,3.76,0,0,1,.08.85,3.2,3.2,0,0,1-.13,1,1.33,1.33,0,0,1-.39.59,1,1,0,0,1-.65.22,1,1,0,0,1-.81-.37A2.35,2.35,0,0,1,14.43,52Zm.46,0a2.31,2.31,0,0,0,.2,1.17.59.59,0,0,0,1,0,3.36,3.36,0,0,0,0-2.34.6.6,0,0,0-.51-.29.57.57,0,0,0-.49.25A2.3,2.3,0,0,0,14.89,52Z" transform="translate(1.43 -21.92)"/><path class="cls-4" d="M7.49,38.66l.44-.06a1,1,0,0,0,.25.54.65.65,0,0,0,.45.16.72.72,0,0,0,.52-.21.75.75,0,0,0,.21-.54.69.69,0,0,0-.19-.5.69.69,0,0,0-.51-.19,1,1,0,0,0-.31,0l.05-.39h.07A.9.9,0,0,0,9,37.38a.5.5,0,0,0,.22-.45.52.52,0,0,0-.16-.4.57.57,0,0,0-.42-.16.59.59,0,0,0-.43.16A.83.83,0,0,0,8,37l-.44-.07a1.11,1.11,0,0,1,.37-.69A1.05,1.05,0,0,1,8.61,36a1.25,1.25,0,0,1,.54.12.9.9,0,0,1,.37.35.86.86,0,0,1,.14.46.79.79,0,0,1-.5.72.84.84,0,0,1,.5.31.94.94,0,0,1,.17.57,1.05,1.05,0,0,1-.34.8,1.21,1.21,0,0,1-.87.33,1.12,1.12,0,0,1-.78-.29A1.06,1.06,0,0,1,7.49,38.66Z" transform="translate(1.43 -21.92)"/><path class="cls-4" d="M10.27,38.66l.46,0a.77.77,0,0,0,.24.5.64.64,0,0,0,.45.17.68.68,0,0,0,.53-.24.88.88,0,0,0,.22-.63.84.84,0,0,0-.21-.6.74.74,0,0,0-.55-.21.86.86,0,0,0-.39.09.78.78,0,0,0-.26.25l-.42-.05.35-1.84h1.78v.42H11l-.19,1a1.15,1.15,0,0,1,.68-.22,1.1,1.1,0,0,1,.79.32,1.17,1.17,0,0,1,.32.84,1.37,1.37,0,0,1-.28.84,1.14,1.14,0,0,1-.94.43,1.16,1.16,0,0,1-.8-.27A1,1,0,0,1,10.27,38.66Z" transform="translate(1.43 -21.92)"/><path class="cls-4" d="M13.29,39.6v-.5h.5v.5Z" transform="translate(1.43 -21.92)"/><path class="cls-4" d="M14.44,37.84a3.23,3.23,0,0,1,.13-1,1.24,1.24,0,0,1,.38-.59A1,1,0,0,1,15.6,36a1.19,1.19,0,0,1,.51.11,1.06,1.06,0,0,1,.36.34,1.73,1.73,0,0,1,.22.53,3.76,3.76,0,0,1,.08.85,3.09,3.09,0,0,1-.13,1,1.31,1.31,0,0,1-.39.6,1,1,0,0,1-.65.21,1,1,0,0,1-.81-.37A2.33,2.33,0,0,1,14.44,37.84Zm.45,0a2.34,2.34,0,0,0,.2,1.17.59.59,0,0,0,1,0,2.23,2.23,0,0,0,.21-1.17,2.25,2.25,0,0,0-.21-1.18.62.62,0,0,0-.51-.29.58.58,0,0,0-.49.26A2.3,2.3,0,0,0,14.89,37.84Z" transform="translate(1.43 -21.92)"/><path class="cls-4" d="M8.89,25.51v-.85H7.34v-.41L9,21.93h.36v2.32h.49v.41H9.33v.85Zm0-1.26V22.64L7.77,24.25Z" transform="translate(1.43 -21.92)"/><path class="cls-4" d="M10.27,23.75a3.12,3.12,0,0,1,.13-1,1.22,1.22,0,0,1,.38-.6,1,1,0,0,1,.65-.21,1.19,1.19,0,0,1,.51.11,1.06,1.06,0,0,1,.36.34,1.73,1.73,0,0,1,.22.53,3.76,3.76,0,0,1,.08.85,3.09,3.09,0,0,1-.13,1,1.31,1.31,0,0,1-.39.6,1,1,0,0,1-.65.21,1,1,0,0,1-.81-.37A2.33,2.33,0,0,1,10.27,23.75Zm.45,0a2.34,2.34,0,0,0,.2,1.17.59.59,0,0,0,1,0,2.23,2.23,0,0,0,.21-1.17,2.25,2.25,0,0,0-.21-1.18.62.62,0,0,0-.51-.29.58.58,0,0,0-.49.26A2.3,2.3,0,0,0,10.72,23.75Z" transform="translate(1.43 -21.92)"/><path class="cls-4" d="M13.29,25.51V25h.5v.5Z" transform="translate(1.43 -21.92)"/><path class="cls-4" d="M14.44,23.75a3.12,3.12,0,0,1,.13-1,1.22,1.22,0,0,1,.38-.6,1,1,0,0,1,.65-.21,1.19,1.19,0,0,1,.51.11,1.06,1.06,0,0,1,.36.34,1.73,1.73,0,0,1,.22.53,3.76,3.76,0,0,1,.08.85,3.09,3.09,0,0,1-.13,1,1.31,1.31,0,0,1-.39.6,1,1,0,0,1-.65.21,1,1,0,0,1-.81-.37A2.33,2.33,0,0,1,14.44,23.75Zm.45,0a2.34,2.34,0,0,0,.2,1.17.59.59,0,0,0,1,0,2.23,2.23,0,0,0,.21-1.17,2.25,2.25,0,0,0-.21-1.18.62.62,0,0,0-.51-.29.58.58,0,0,0-.49.26A2.3,2.3,0,0,0,14.89,23.75Z" transform="translate(1.43 -21.92)"/><path class="cls-4" d="M10.26,137.13a3.17,3.17,0,0,1,.14-1,1.19,1.19,0,0,1,.38-.59,1,1,0,0,1,.65-.21.95.95,0,0,1,.87.45,2,2,0,0,1,.22.53,3.72,3.72,0,0,1,.08.84,3.2,3.2,0,0,1-.13,1,1.31,1.31,0,0,1-.39.6,1,1,0,0,1-.65.21,1,1,0,0,1-.81-.37A2.33,2.33,0,0,1,10.26,137.13Zm.46,0a2.38,2.38,0,0,0,.2,1.18.59.59,0,0,0,1,0,2.25,2.25,0,0,0,.21-1.18,2.18,2.18,0,0,0-.21-1.17.62.62,0,0,0-.51-.29.56.56,0,0,0-.49.26A2.26,2.26,0,0,0,10.72,137.13Z" transform="translate(1.43 -21.92)"/><path class="cls-4" d="M13.29,138.9v-.5h.5v.5Z" transform="translate(1.43 -21.92)"/><path class="cls-4" d="M14.43,137.13a3.17,3.17,0,0,1,.14-1,1.19,1.19,0,0,1,.38-.59,1,1,0,0,1,.65-.21.95.95,0,0,1,.87.45,2,2,0,0,1,.22.53,3.72,3.72,0,0,1,.08.84,3.2,3.2,0,0,1-.13,1,1.31,1.31,0,0,1-.39.6,1,1,0,0,1-.65.21,1,1,0,0,1-.81-.37A2.33,2.33,0,0,1,14.43,137.13Zm.46,0a2.38,2.38,0,0,0,.2,1.18.59.59,0,0,0,1,0,2.25,2.25,0,0,0,.21-1.18,2.18,2.18,0,0,0-.21-1.17.62.62,0,0,0-.51-.29.56.56,0,0,0-.49.26A2.26,2.26,0,0,0,14.89,137.13Z" transform="translate(1.43 -21.92)"/><polyline class="cls-5" points="19.97 82.55 31.19 82.55 42.53 82.55 57.25 82.55 65.21 88.55 76.55 93.88 87.89 97.55 99.22 99.89 111.22 102.02"/><polyline class="繝医Ν繧ｯ繧ｰ繝ｩ繝廟繧ｰ繝ｬ繝ｼ邱" points="19.97 17.18 65.21 17.18 111.17 56.79"/><polyline class="cls-5" points="19.91 17.35 60.69 17.35 111.07 60.51"/><rect class="繝後Μ_逋ｽ" x="110.56" y="2.18" width="2.83" height="113.39"/><rect class="邱喟0.5pt-2" x="19.86" y="2.18" width="90.71" height="113.39"/></g><g id="English"><rect class="繝後Μ_逋ｽ" x="21.56" y="27.67" width="47.91" height="16.58"/><path class="cls-4" d="M22.63,54.46l.58-.05a1.32,1.32,0,0,0,.19.57,1,1,0,0,0,.47.36,1.8,1.8,0,0,0,.71.14,1.73,1.73,0,0,0,.63-.11.87.87,0,0,0,.4-.28.66.66,0,0,0,.13-.4.57.57,0,0,0-.13-.38.93.93,0,0,0-.42-.28,7.58,7.58,0,0,0-.82-.22,4,4,0,0,1-.9-.3,1.26,1.26,0,0,1-.5-.43,1,1,0,0,1-.16-.58,1.16,1.16,0,0,1,.2-.66,1.22,1.22,0,0,1,.58-.46,2.16,2.16,0,0,1,.86-.16,2.21,2.21,0,0,1,.91.17,1.27,1.27,0,0,1,.6.49,1.32,1.32,0,0,1,.23.73l-.59,0a1,1,0,0,0-.32-.66,1.24,1.24,0,0,0-.81-.23,1.27,1.27,0,0,0-.81.21.61.61,0,0,0-.26.49.51.51,0,0,0,.18.41,2.39,2.39,0,0,0,.93.33,7.58,7.58,0,0,1,1,.3,1.41,1.41,0,0,1,.6.48,1.14,1.14,0,0,1,.19.66,1.27,1.27,0,0,1-.21.7,1.34,1.34,0,0,1-.61.51,2.16,2.16,0,0,1-.9.18,2.67,2.67,0,0,1-1.05-.18,1.5,1.5,0,0,1-.93-1.39Z" transform="translate(1.43 -21.92)"/><path class="cls-4" d="M27.1,56V51.3h.57V53a1.28,1.28,0,0,1,1-.46,1.33,1.33,0,0,1,.65.14.88.88,0,0,1,.4.41,1.88,1.88,0,0,1,.12.76V56h-.57V53.82a.91.91,0,0,0-.19-.63.69.69,0,0,0-.53-.19.88.88,0,0,0-.47.13.74.74,0,0,0-.32.36,1.48,1.48,0,0,0-.1.62V56Z" transform="translate(1.43 -21.92)"/><path class="cls-4" d="M30.5,54.27A1.76,1.76,0,0,1,31,52.88a1.58,1.58,0,0,1,1.06-.37,1.51,1.51,0,0,1,1.14.45,1.74,1.74,0,0,1,.44,1.26,2.24,2.24,0,0,1-.19,1,1.39,1.39,0,0,1-.57.58,1.64,1.64,0,0,1-.82.21,1.48,1.48,0,0,1-1.14-.46A1.79,1.79,0,0,1,30.5,54.27Zm.59,0a1.5,1.5,0,0,0,.28,1,.93.93,0,0,0,.71.32.89.89,0,0,0,.71-.33,1.43,1.43,0,0,0,.28-1,1.38,1.38,0,0,0-.28-1,.91.91,0,0,0-.71-.32.9.9,0,0,0-.71.32A1.46,1.46,0,0,0,31.09,54.27Z" transform="translate(1.43 -21.92)"/><path class="cls-4" d="M34.32,56V52.58h.52v.51a1.41,1.41,0,0,1,.36-.47.62.62,0,0,1,.37-.11,1.15,1.15,0,0,1,.59.18l-.2.53a.84.84,0,0,0-.42-.12.53.53,0,0,0-.34.11.58.58,0,0,0-.21.31,2.36,2.36,0,0,0-.09.67V56Z" transform="translate(1.43 -21.92)"/><path class="cls-4" d="M37.74,55.44l.09.51a2.58,2.58,0,0,1-.44,0,1.07,1.07,0,0,1-.48-.1.6.6,0,0,1-.24-.26A2,2,0,0,1,36.6,55V53h-.42v-.45h.42v-.83l.57-.35v1.18h.57V53h-.57v2a1,1,0,0,0,0,.31.21.21,0,0,0,.1.11.34.34,0,0,0,.19,0A1.19,1.19,0,0,0,37.74,55.44Z" transform="translate(1.43 -21.92)"/><path class="cls-4" d="M38.08,54.56V54h1.75v.58Z" transform="translate(1.43 -21.92)"/><path class="cls-4" d="M42.65,56v-.42a1.05,1.05,0,0,1-.94.5,1.37,1.37,0,0,1-.74-.22,1.44,1.44,0,0,1-.52-.62,2.1,2.1,0,0,1-.19-.92,2.47,2.47,0,0,1,.17-.92,1.37,1.37,0,0,1,.5-.63,1.43,1.43,0,0,1,.76-.21,1.19,1.19,0,0,1,.54.12,1,1,0,0,1,.38.34V51.3h.57V56Zm-1.8-1.68a1.5,1.5,0,0,0,.27,1,.83.83,0,0,0,.64.32.79.79,0,0,0,.64-.31,1.36,1.36,0,0,0,.26-.93,1.66,1.66,0,0,0-.26-1,.84.84,0,0,0-.66-.32.78.78,0,0,0-.64.31A1.54,1.54,0,0,0,40.85,54.27Z" transform="translate(1.43 -21.92)"/><path class="cls-4" d="M46.29,56v-.49a1.23,1.23,0,0,1-1.07.57,1.34,1.34,0,0,1-.56-.12.88.88,0,0,1-.38-.28,1.3,1.3,0,0,1-.18-.43,3.33,3.33,0,0,1,0-.53V52.58h.57v1.87a2.63,2.63,0,0,0,0,.6.61.61,0,0,0,.22.36.76.76,0,0,0,.44.13.92.92,0,0,0,.48-.14.73.73,0,0,0,.32-.35,1.94,1.94,0,0,0,.09-.66V52.58h.57V56Z" transform="translate(1.43 -21.92)"/><path class="cls-4" d="M47.69,56V52.58h.51v.51a1.55,1.55,0,0,1,.37-.47.59.59,0,0,1,.36-.11,1.12,1.12,0,0,1,.59.18l-.2.53a.83.83,0,0,0-.41-.12.51.51,0,0,0-.34.11.58.58,0,0,0-.21.31,2,2,0,0,0-.1.67V56Z" transform="translate(1.43 -21.92)"/><path class="cls-4" d="M52.06,55.54a2.32,2.32,0,0,1-.61.38,1.9,1.9,0,0,1-.63.11,1.2,1.2,0,0,1-.85-.27.91.91,0,0,1-.3-.7,1,1,0,0,1,.11-.45.85.85,0,0,1,.29-.33,1.44,1.44,0,0,1,.42-.18A4.31,4.31,0,0,1,51,54a5.17,5.17,0,0,0,1-.2c0-.08,0-.13,0-.15a.63.63,0,0,0-.17-.49A.94.94,0,0,0,51.2,53a1,1,0,0,0-.59.14.89.89,0,0,0-.29.5l-.55-.08A1.34,1.34,0,0,1,50,53a1.11,1.11,0,0,1,.5-.34,2.27,2.27,0,0,1,.77-.11,2,2,0,0,1,.7.1.82.82,0,0,1,.39.25.79.79,0,0,1,.18.39,3.08,3.08,0,0,1,0,.53v.76a6.89,6.89,0,0,0,0,1,1.19,1.19,0,0,0,.14.4h-.6A1.64,1.64,0,0,1,52.06,55.54ZM52,54.26a4.56,4.56,0,0,1-.93.22,2.25,2.25,0,0,0-.5.11.41.41,0,0,0-.22.19.43.43,0,0,0-.08.27.47.47,0,0,0,.17.38.74.74,0,0,0,.51.15,1.21,1.21,0,0,0,.58-.14.92.92,0,0,0,.38-.4,1.41,1.41,0,0,0,.09-.57Z" transform="translate(1.43 -21.92)"/><path class="cls-4" d="M54.72,55.44l.09.51a2.58,2.58,0,0,1-.44,0,1.07,1.07,0,0,1-.48-.1.6.6,0,0,1-.24-.26,2,2,0,0,1-.07-.68V53h-.42v-.45h.42v-.83l.57-.35v1.18h.57V53h-.57v2a1,1,0,0,0,0,.31.21.21,0,0,0,.1.11.34.34,0,0,0,.19,0A1.19,1.19,0,0,0,54.72,55.44Z" transform="translate(1.43 -21.92)"/><path class="cls-4" d="M55.28,52V51.3h.58V52Zm0,4V52.58h.58V56Z" transform="translate(1.43 -21.92)"/><path class="cls-4" d="M56.51,54.27A1.76,1.76,0,0,1,57,52.88a1.58,1.58,0,0,1,1.06-.37,1.51,1.51,0,0,1,1.14.45,1.74,1.74,0,0,1,.44,1.26,2.24,2.24,0,0,1-.19,1,1.39,1.39,0,0,1-.57.58,1.64,1.64,0,0,1-.82.21A1.48,1.48,0,0,1,57,55.57,1.79,1.79,0,0,1,56.51,54.27Zm.59,0a1.44,1.44,0,0,0,.28,1,.93.93,0,0,0,.71.32.89.89,0,0,0,.71-.33,1.43,1.43,0,0,0,.28-1,1.38,1.38,0,0,0-.28-1,.93.93,0,0,0-.71-.32.9.9,0,0,0-.71.32A1.41,1.41,0,0,0,57.1,54.27Z" transform="translate(1.43 -21.92)"/><path class="cls-4" d="M60.34,56V52.58h.52v.48a1.19,1.19,0,0,1,1.07-.55,1.47,1.47,0,0,1,.56.1.89.89,0,0,1,.38.29,1.14,1.14,0,0,1,.18.42,3.51,3.51,0,0,1,0,.56V56h-.57V53.9a1.38,1.38,0,0,0-.07-.52.5.5,0,0,0-.24-.28.71.71,0,0,0-.39-.1.92.92,0,0,0-.63.23,1.14,1.14,0,0,0-.27.88V56Z" transform="translate(1.43 -21.92)"/><path class="cls-4" d="M22.76,63.75V60.38h.51v.51a1.55,1.55,0,0,1,.37-.47.59.59,0,0,1,.36-.11,1.12,1.12,0,0,1,.59.18l-.2.53A.81.81,0,0,0,24,60.9a.51.51,0,0,0-.34.11.58.58,0,0,0-.21.31,2,2,0,0,0-.1.67v1.76Z" transform="translate(1.43 -21.92)"/><path class="cls-4" d="M27.14,63.75v-.49a1.23,1.23,0,0,1-1.07.57,1.34,1.34,0,0,1-.56-.12.88.88,0,0,1-.38-.28A1.3,1.3,0,0,1,25,63a3.33,3.33,0,0,1,0-.53V60.38h.57v1.87a3.77,3.77,0,0,0,0,.6.68.68,0,0,0,.23.36.75.75,0,0,0,.43.13.93.93,0,0,0,.49-.14.73.73,0,0,0,.32-.35,1.94,1.94,0,0,0,.09-.66V60.38h.57v3.37Z" transform="translate(1.43 -21.92)"/><path class="cls-4" d="M28.55,63.75V60.38h.51v.48a1.2,1.2,0,0,1,1.07-.55,1.43,1.43,0,0,1,.56.1.89.89,0,0,1,.38.29,1,1,0,0,1,.18.42,3.51,3.51,0,0,1,0,.56v2.07h-.57v-2a1.67,1.67,0,0,0-.06-.52.6.6,0,0,0-.24-.28.74.74,0,0,0-.4-.1,1,1,0,0,0-.63.23,1.14,1.14,0,0,0-.26.88v1.84Z" transform="translate(1.43 -21.92)"/><path class="cls-4" d="M32.16,63.75V60.38h.51v.48a1.22,1.22,0,0,1,1.08-.55,1.47,1.47,0,0,1,.56.1.89.89,0,0,1,.38.29,1.33,1.33,0,0,1,.18.42,3.51,3.51,0,0,1,0,.56v2.07h-.57v-2a1.38,1.38,0,0,0-.07-.52A.53.53,0,0,0,34,60.9a.77.77,0,0,0-.4-.1A.92.92,0,0,0,33,61a1.14,1.14,0,0,0-.27.88v1.84Z" transform="translate(1.43 -21.92)"/><path class="cls-4" d="M35.78,59.76V59.1h.57v.66Zm0,4V60.38h.57v3.37Z" transform="translate(1.43 -21.92)"/><path class="cls-4" d="M37.22,63.75V60.38h.51v.48a1.22,1.22,0,0,1,1.08-.55,1.47,1.47,0,0,1,.56.1,1,1,0,0,1,.38.29,1.33,1.33,0,0,1,.18.42,3.51,3.51,0,0,1,0,.56v2.07h-.57v-2a1.62,1.62,0,0,0-.07-.52.5.5,0,0,0-.24-.28.71.71,0,0,0-.39-.1.92.92,0,0,0-.63.23,1.14,1.14,0,0,0-.27.88v1.84Z" transform="translate(1.43 -21.92)"/><path class="cls-4" d="M40.73,64l.56.08a.5.5,0,0,0,.19.38,1,1,0,0,0,.58.16,1.05,1.05,0,0,0,.61-.16A.77.77,0,0,0,43,64a3.49,3.49,0,0,0,0-.73,1.2,1.2,0,0,1-.94.44,1.27,1.27,0,0,1-1.07-.5,1.87,1.87,0,0,1-.38-1.2,2.17,2.17,0,0,1,.17-.89,1.39,1.39,0,0,1,.51-.63,1.35,1.35,0,0,1,.78-.22,1.22,1.22,0,0,1,1,.48v-.41h.53v2.91a2.9,2.9,0,0,1-.16,1.12,1.22,1.22,0,0,1-.51.52,1.74,1.74,0,0,1-.86.19,1.61,1.61,0,0,1-1-.27A.92.92,0,0,1,40.73,64Zm.47-2a1.41,1.41,0,0,0,.27,1,.81.81,0,0,0,.66.31.85.85,0,0,0,.66-.3,1.48,1.48,0,0,0,.26-.95,1.41,1.41,0,0,0-.27-.94.85.85,0,0,0-.66-.31.81.81,0,0,0-.65.31A1.35,1.35,0,0,0,41.2,62Z" transform="translate(1.43 -21.92)"/><path class="cls-4" d="M46.25,63.75V60.38h.51v.51a1.29,1.29,0,0,1,.37-.47.59.59,0,0,1,.36-.11,1.12,1.12,0,0,1,.59.18l-.2.53a.84.84,0,0,0-.42-.12.51.51,0,0,0-.33.11.58.58,0,0,0-.21.31,2,2,0,0,0-.1.67v1.76Z" transform="translate(1.43 -21.92)"/><path class="cls-4" d="M50.62,63.34a2.32,2.32,0,0,1-.61.38,1.9,1.9,0,0,1-.63.11,1.25,1.25,0,0,1-.86-.27.93.93,0,0,1-.29-.7.88.88,0,0,1,.11-.45.85.85,0,0,1,.29-.33A1.5,1.5,0,0,1,49,61.9l.51-.09a5.33,5.33,0,0,0,1-.2v-.15a.63.63,0,0,0-.16-.49.94.94,0,0,0-.65-.19,1,1,0,0,0-.59.14.83.83,0,0,0-.29.5l-.55-.08a1.34,1.34,0,0,1,.25-.58,1.11,1.11,0,0,1,.5-.34,2.25,2.25,0,0,1,.76-.11,2,2,0,0,1,.71.1.82.82,0,0,1,.39.25.79.79,0,0,1,.18.39,3.08,3.08,0,0,1,0,.53v.76a6.89,6.89,0,0,0,0,1,1.19,1.19,0,0,0,.14.4h-.6A1.64,1.64,0,0,1,50.62,63.34Zm0-1.28a4.56,4.56,0,0,1-.93.22,2.12,2.12,0,0,0-.5.11.41.41,0,0,0-.22.19.43.43,0,0,0-.08.27.47.47,0,0,0,.17.38.73.73,0,0,0,.5.15,1.22,1.22,0,0,0,.59-.14.92.92,0,0,0,.38-.4,1.41,1.41,0,0,0,.09-.57Z" transform="translate(1.43 -21.92)"/><path class="cls-4" d="M52,63.75V60.38h.52v.48a1.2,1.2,0,0,1,1.07-.55,1.47,1.47,0,0,1,.56.1.89.89,0,0,1,.38.29,1,1,0,0,1,.18.42,3.51,3.51,0,0,1,0,.56v2.07H54.2v-2a1.67,1.67,0,0,0-.06-.52.6.6,0,0,0-.24-.28.74.74,0,0,0-.4-.1,1,1,0,0,0-.63.23,1.14,1.14,0,0,0-.26.88v1.84Z" transform="translate(1.43 -21.92)"/><path class="cls-4" d="M55.54,64l.56.08a.53.53,0,0,0,.19.38,1,1,0,0,0,.59.16,1.08,1.08,0,0,0,.61-.16.82.82,0,0,0,.29-.45,3.76,3.76,0,0,0,0-.73,1.18,1.18,0,0,1-.93.44,1.29,1.29,0,0,1-1.08-.5,1.93,1.93,0,0,1-.38-1.2,2.18,2.18,0,0,1,.18-.89,1.37,1.37,0,0,1,.5-.63,1.35,1.35,0,0,1,.78-.22,1.19,1.19,0,0,1,1,.48v-.41h.53v2.91a2.72,2.72,0,0,1-.16,1.12,1.22,1.22,0,0,1-.51.52,1.7,1.7,0,0,1-.85.19,1.65,1.65,0,0,1-1-.27A1,1,0,0,1,55.54,64ZM56,62a1.47,1.47,0,0,0,.26,1,.83.83,0,0,0,.66.31.85.85,0,0,0,.66-.3,1.42,1.42,0,0,0,.27-.95,1.35,1.35,0,0,0-.28-.94.83.83,0,0,0-.66-.31.79.79,0,0,0-.64.31A1.35,1.35,0,0,0,56,62Z" transform="translate(1.43 -21.92)"/><path class="cls-4" d="M61.57,62.67l.59.07a1.43,1.43,0,0,1-.51.8,1.6,1.6,0,0,1-1,.29,1.52,1.52,0,0,1-1.17-.46,1.77,1.77,0,0,1-.44-1.27,1.9,1.9,0,0,1,.44-1.33,1.48,1.48,0,0,1,1.14-.46,1.41,1.41,0,0,1,1.1.46,1.78,1.78,0,0,1,.43,1.29v.15H59.66a1.32,1.32,0,0,0,.32.85.92.92,0,0,0,.7.3.89.89,0,0,0,.54-.17A1,1,0,0,0,61.57,62.67Zm-1.87-.93h1.88a1.21,1.21,0,0,0-.22-.64.86.86,0,0,0-.71-.33A.9.9,0,0,0,60,61,1,1,0,0,0,59.7,61.74Z" transform="translate(1.43 -21.92)"/><rect class="繝後Μ_逋ｽ" x="22.3" y="93.58" width="41.46" height="16.58"/><path class="cls-4" d="M26.26,120.23l.61.15a2,2,0,0,1-.69,1.16,1.91,1.91,0,0,1-1.23.4,2.14,2.14,0,0,1-1.22-.31,1.86,1.86,0,0,1-.72-.88,3.1,3.1,0,0,1-.25-1.25,2.67,2.67,0,0,1,.28-1.27,1.9,1.9,0,0,1,.79-.82,2.28,2.28,0,0,1,1.13-.28,2,2,0,0,1,1.17.35,1.81,1.81,0,0,1,.66,1l-.6.15a1.46,1.46,0,0,0-.47-.74,1.21,1.21,0,0,0-.77-.23,1.52,1.52,0,0,0-.9.25,1.37,1.37,0,0,0-.51.69,3.09,3.09,0,0,0,0,1.93,1.19,1.19,0,0,0,.54.66,1.45,1.45,0,0,0,.79.22,1.31,1.31,0,0,0,.87-.3A1.52,1.52,0,0,0,26.26,120.23Z" transform="translate(1.43 -21.92)"/><path class="cls-4" d="M27.35,120.18a1.73,1.73,0,0,1,.52-1.39,1.57,1.57,0,0,1,1.06-.38,1.51,1.51,0,0,1,1.13.46,1.7,1.7,0,0,1,.45,1.26,2.22,2.22,0,0,1-.2,1,1.39,1.39,0,0,1-.57.58,1.63,1.63,0,0,1-.81.21,1.51,1.51,0,0,1-1.15-.46A1.81,1.81,0,0,1,27.35,120.18Zm.58,0a1.39,1.39,0,0,0,.29,1,.89.89,0,0,0,.71.33.91.91,0,0,0,.71-.33,1.49,1.49,0,0,0,.28-1,1.38,1.38,0,0,0-.29-1,.94.94,0,0,0-1.41,0A1.41,1.41,0,0,0,27.93,120.18Z" transform="translate(1.43 -21.92)"/><path class="cls-4" d="M31.17,121.86v-3.37h.52V119a1.21,1.21,0,0,1,1.07-.56,1.47,1.47,0,0,1,.56.11.89.89,0,0,1,.38.29,1,1,0,0,1,.18.42,3.51,3.51,0,0,1,0,.56v2.07h-.57v-2a1.67,1.67,0,0,0-.06-.52A.6.6,0,0,0,33,119a.74.74,0,0,0-.4-.1,1,1,0,0,0-.63.23,1.13,1.13,0,0,0-.26.88v1.84Z" transform="translate(1.43 -21.92)"/><path class="cls-4" d="M36,121.35l.08.5a1.78,1.78,0,0,1-.43.05,1,1,0,0,1-.48-.09.62.62,0,0,1-.25-.26,2.27,2.27,0,0,1-.07-.68v-1.94h-.41v-.44h.41v-.83l.57-.35v1.18H36v.44h-.58v2a1,1,0,0,0,0,.31.27.27,0,0,0,.1.11.37.37,0,0,0,.2,0Z" transform="translate(1.43 -21.92)"/><path class="cls-4" d="M36.6,117.86v-.65h.57v.65Zm0,4v-3.37h.57v3.37Z" transform="translate(1.43 -21.92)"/><path class="cls-4" d="M38,121.86v-3.37h.51V119a1.23,1.23,0,0,1,1.08-.56,1.47,1.47,0,0,1,.56.11.89.89,0,0,1,.38.29,1.33,1.33,0,0,1,.18.42,3.51,3.51,0,0,1,0,.56v2.07h-.57v-2a1.38,1.38,0,0,0-.07-.52.5.5,0,0,0-.24-.28.71.71,0,0,0-.39-.1.92.92,0,0,0-.63.23,1.13,1.13,0,0,0-.27.88v1.84Z" transform="translate(1.43 -21.92)"/><path class="cls-4" d="M43.86,121.86v-.49a1.22,1.22,0,0,1-1.07.57,1.3,1.3,0,0,1-.55-.12.91.91,0,0,1-.39-.28,1.11,1.11,0,0,1-.17-.43,2.3,2.3,0,0,1,0-.53v-2.09h.57v1.87a2.63,2.63,0,0,0,0,.6.58.58,0,0,0,.23.36.73.73,0,0,0,.43.12.91.91,0,0,0,.48-.13.66.66,0,0,0,.32-.36,1.84,1.84,0,0,0,.09-.65v-1.81h.58v3.37Z" transform="translate(1.43 -21.92)"/><path class="cls-4" d="M45.06,120.18a1.73,1.73,0,0,1,.52-1.39,1.57,1.57,0,0,1,1.06-.38,1.51,1.51,0,0,1,1.13.46,1.7,1.7,0,0,1,.45,1.26,2.22,2.22,0,0,1-.2,1,1.39,1.39,0,0,1-.57.58,1.63,1.63,0,0,1-.81.21,1.51,1.51,0,0,1-1.15-.46A1.81,1.81,0,0,1,45.06,120.18Zm.58,0a1.39,1.39,0,0,0,.29,1,.89.89,0,0,0,.71.33.91.91,0,0,0,.71-.33,1.49,1.49,0,0,0,.28-1,1.38,1.38,0,0,0-.29-1,.94.94,0,0,0-1.41,0A1.41,1.41,0,0,0,45.64,120.18Z" transform="translate(1.43 -21.92)"/><path class="cls-4" d="M51.09,121.86v-.49a1.22,1.22,0,0,1-1.07.57,1.3,1.3,0,0,1-.55-.12.91.91,0,0,1-.39-.28,1.11,1.11,0,0,1-.17-.43,2.3,2.3,0,0,1,0-.53v-2.09h.57v1.87a2.63,2.63,0,0,0,0,.6.58.58,0,0,0,.23.36.73.73,0,0,0,.43.12.91.91,0,0,0,.48-.13.66.66,0,0,0,.32-.36,1.84,1.84,0,0,0,.09-.65v-1.81h.58v3.37Z" transform="translate(1.43 -21.92)"/><path class="cls-4" d="M52.27,120.85l.57-.08a.81.81,0,0,0,.26.52.94.94,0,0,0,.61.18.91.91,0,0,0,.58-.16.49.49,0,0,0,.19-.38.33.33,0,0,0-.16-.3,2.64,2.64,0,0,0-.59-.2,5.47,5.47,0,0,1-.87-.27,1,1,0,0,1-.37-.32.9.9,0,0,1-.12-.46.83.83,0,0,1,.1-.41.87.87,0,0,1,.28-.32,1.21,1.21,0,0,1,.36-.17,2,2,0,0,1,.5-.07,1.85,1.85,0,0,1,.69.12,1,1,0,0,1,.45.31,1.18,1.18,0,0,1,.19.52l-.55.08a.61.61,0,0,0-.23-.41.78.78,0,0,0-.51-.15,1,1,0,0,0-.56.13.4.4,0,0,0-.17.31.31.31,0,0,0,.07.2.47.47,0,0,0,.22.15l.5.15a5.68,5.68,0,0,1,.85.26.85.85,0,0,1,.37.3.79.79,0,0,1,.14.49.91.91,0,0,1-.17.54,1,1,0,0,1-.48.39,1.76,1.76,0,0,1-.71.14,1.53,1.53,0,0,1-1-.28A1.29,1.29,0,0,1,52.27,120.85Z" transform="translate(1.43 -21.92)"/><path class="cls-4" d="M22.86,129.66v-3.37h.51v.51a1.43,1.43,0,0,1,.37-.47.6.6,0,0,1,.36-.12,1.14,1.14,0,0,1,.59.19l-.2.53a.82.82,0,0,0-.41-.13.52.52,0,0,0-.34.12.58.58,0,0,0-.21.31,2,2,0,0,0-.1.67v1.76Z" transform="translate(1.43 -21.92)"/><path class="cls-4" d="M27.24,129.66v-.49a1.23,1.23,0,0,1-1.07.57,1.34,1.34,0,0,1-.56-.12.88.88,0,0,1-.38-.28,1.3,1.3,0,0,1-.18-.43,3.33,3.33,0,0,1,0-.53v-2.09h.57v1.87a3.77,3.77,0,0,0,0,.6.68.68,0,0,0,.23.36.75.75,0,0,0,.43.12.92.92,0,0,0,.49-.13.71.71,0,0,0,.32-.36,1.84,1.84,0,0,0,.09-.65v-1.81h.57v3.37Z" transform="translate(1.43 -21.92)"/><path class="cls-4" d="M28.65,129.66v-3.37h.51v.48a1.21,1.21,0,0,1,1.07-.56,1.43,1.43,0,0,1,.56.11.89.89,0,0,1,.38.29,1,1,0,0,1,.18.42,3.51,3.51,0,0,1,0,.56v2.07h-.57v-2a1.67,1.67,0,0,0-.06-.52.6.6,0,0,0-.24-.28.74.74,0,0,0-.4-.1,1,1,0,0,0-.63.23,1.13,1.13,0,0,0-.26.88v1.84Z" transform="translate(1.43 -21.92)"/><path class="cls-4" d="M32.26,129.66v-3.37h.51v.48a1.23,1.23,0,0,1,1.08-.56,1.47,1.47,0,0,1,.56.11.89.89,0,0,1,.38.29A1.33,1.33,0,0,1,35,127a3.51,3.51,0,0,1,0,.56v2.07h-.57v-2a1.38,1.38,0,0,0-.07-.52.53.53,0,0,0-.23-.28.77.77,0,0,0-.4-.1.92.92,0,0,0-.63.23,1.13,1.13,0,0,0-.27.88v1.84Z" transform="translate(1.43 -21.92)"/><path class="cls-4" d="M35.88,125.66V125h.57v.65Zm0,4v-3.37h.57v3.37Z" transform="translate(1.43 -21.92)"/><path class="cls-4" d="M37.32,129.66v-3.37h.51v.48a1.23,1.23,0,0,1,1.08-.56,1.47,1.47,0,0,1,.56.11,1,1,0,0,1,.38.29A1.33,1.33,0,0,1,40,127a3.51,3.51,0,0,1,0,.56v2.07h-.57v-2a1.62,1.62,0,0,0-.07-.52.5.5,0,0,0-.24-.28.71.71,0,0,0-.39-.1.92.92,0,0,0-.63.23,1.13,1.13,0,0,0-.27.88v1.84Z" transform="translate(1.43 -21.92)"/><path class="cls-4" d="M40.83,129.94l.56.08a.52.52,0,0,0,.19.38,1,1,0,0,0,.58.16,1.05,1.05,0,0,0,.61-.16.77.77,0,0,0,.29-.45,3.49,3.49,0,0,0,0-.73,1.2,1.2,0,0,1-.94.44,1.27,1.27,0,0,1-1.07-.5,1.91,1.91,0,0,1-.38-1.2,2.14,2.14,0,0,1,.17-.89,1.29,1.29,0,0,1,.51-.63,1.35,1.35,0,0,1,.78-.23,1.2,1.2,0,0,1,1,.49v-.41h.53v2.91a2.9,2.9,0,0,1-.16,1.12,1.22,1.22,0,0,1-.51.52,1.85,1.85,0,0,1-.86.19,1.61,1.61,0,0,1-1-.27A.92.92,0,0,1,40.83,129.94Zm.47-2a1.42,1.42,0,0,0,.27,1,.81.81,0,0,0,.66.31.83.83,0,0,0,.66-.31,1.44,1.44,0,0,0,.26-.95,1.39,1.39,0,0,0-.27-.93.85.85,0,0,0-.66-.31.81.81,0,0,0-.65.31A1.34,1.34,0,0,0,41.3,127.91Z" transform="translate(1.43 -21.92)"/><path class="cls-4" d="M46.35,129.66v-3.37h.51v.51a1.21,1.21,0,0,1,.37-.47.6.6,0,0,1,.36-.12,1.14,1.14,0,0,1,.59.19l-.2.53a.86.86,0,0,0-.42-.13.52.52,0,0,0-.33.12.58.58,0,0,0-.21.31,2,2,0,0,0-.1.67v1.76Z" transform="translate(1.43 -21.92)"/><path class="cls-4" d="M50.72,129.24a2.38,2.38,0,0,1-.61.39,1.9,1.9,0,0,1-.63.11,1.25,1.25,0,0,1-.86-.27,1,1,0,0,1-.29-.7.88.88,0,0,1,.11-.45.85.85,0,0,1,.29-.33,1.92,1.92,0,0,1,.41-.19c.12,0,.29,0,.51-.08a5.33,5.33,0,0,0,1-.2v-.15a.63.63,0,0,0-.16-.49,1.25,1.25,0,0,0-1.24,0,.83.83,0,0,0-.29.5l-.55-.08a1.34,1.34,0,0,1,.25-.58,1.11,1.11,0,0,1,.5-.34,2.24,2.24,0,0,1,.76-.12,2,2,0,0,1,.71.11.82.82,0,0,1,.39.25.79.79,0,0,1,.18.39,3.08,3.08,0,0,1,0,.53v.76a6.89,6.89,0,0,0,0,1,1.19,1.19,0,0,0,.14.4h-.6A1.29,1.29,0,0,1,50.72,129.24Zm0-1.27a4.06,4.06,0,0,1-.93.21,2.6,2.6,0,0,0-.5.12.44.44,0,0,0-.22.18.48.48,0,0,0-.08.28.47.47,0,0,0,.17.38.73.73,0,0,0,.5.15,1.22,1.22,0,0,0,.59-.14.92.92,0,0,0,.38-.4,1.41,1.41,0,0,0,.09-.57Z" transform="translate(1.43 -21.92)"/><path class="cls-4" d="M52.13,129.66v-3.37h.52v.48a1.21,1.21,0,0,1,1.07-.56,1.47,1.47,0,0,1,.56.11.89.89,0,0,1,.38.29,1,1,0,0,1,.18.42,3.51,3.51,0,0,1,0,.56v2.07H54.3v-2a1.67,1.67,0,0,0-.06-.52.6.6,0,0,0-.24-.28.74.74,0,0,0-.4-.1,1,1,0,0,0-.63.23,1.13,1.13,0,0,0-.26.88v1.84Z" transform="translate(1.43 -21.92)"/><path class="cls-4" d="M55.64,129.94l.56.08a.56.56,0,0,0,.19.38,1,1,0,0,0,.59.16,1.08,1.08,0,0,0,.61-.16.82.82,0,0,0,.29-.45,3.76,3.76,0,0,0,0-.73,1.18,1.18,0,0,1-.93.44,1.29,1.29,0,0,1-1.08-.5,2,2,0,0,1-.38-1.2,2.14,2.14,0,0,1,.18-.89,1.28,1.28,0,0,1,.5-.63,1.35,1.35,0,0,1,.78-.23,1.17,1.17,0,0,1,1,.49v-.41h.53v2.91a2.72,2.72,0,0,1-.16,1.12,1.22,1.22,0,0,1-.51.52A1.81,1.81,0,0,1,57,131a1.65,1.65,0,0,1-1-.27A1,1,0,0,1,55.64,129.94Zm.48-2a1.48,1.48,0,0,0,.26,1,.86.86,0,0,0,1.32,0,1.38,1.38,0,0,0,.27-.95,1.34,1.34,0,0,0-.28-.93.85.85,0,0,0-1.31,0A1.39,1.39,0,0,0,56.12,127.91Z" transform="translate(1.43 -21.92)"/><path class="cls-4" d="M61.67,128.58l.59.07a1.39,1.39,0,0,1-.52.8,1.72,1.72,0,0,1-2.13-.17,1.77,1.77,0,0,1-.44-1.28,1.9,1.9,0,0,1,.44-1.32,1.49,1.49,0,0,1,1.14-.47,1.45,1.45,0,0,1,1.1.46,1.82,1.82,0,0,1,.43,1.3v.15H59.76a1.32,1.32,0,0,0,.32.85.92.92,0,0,0,.7.3.89.89,0,0,0,.54-.17A1.09,1.09,0,0,0,61.67,128.58Zm-1.87-.93h1.88a1.21,1.21,0,0,0-.22-.64.86.86,0,0,0-.71-.33.9.9,0,0,0-.66.27A1,1,0,0,0,59.8,127.65Z" transform="translate(1.43 -21.92)"/><path class="cls-4" d="M3.22,98.27H-.88V99.8h-.55V96.11h.55v1.54h4.1Z" transform="translate(1.43 -21.92)"/><path class="cls-4" d="M1.54,95.77a1.73,1.73,0,0,1-1.39-.52,1.58,1.58,0,0,1-.37-1.06,1.53,1.53,0,0,1,.45-1.14,1.76,1.76,0,0,1,1.26-.44,2.2,2.2,0,0,1,1,.2,1.36,1.36,0,0,1,.58.56,1.64,1.64,0,0,1,.21.82,1.51,1.51,0,0,1-.45,1.14A1.84,1.84,0,0,1,1.54,95.77Zm0-.59a1.44,1.44,0,0,0,1-.28.93.93,0,0,0,.32-.71.91.91,0,0,0-.32-.71,1.48,1.48,0,0,0-1-.28,1.4,1.4,0,0,0-.95.28.95.95,0,0,0,0,1.42A1.42,1.42,0,0,0,1.54,95.18Z" transform="translate(1.43 -21.92)"/><path class="cls-4" d="M3.22,92H-.15v-.52H.36a1.41,1.41,0,0,1-.47-.36.6.6,0,0,1-.11-.37A1.09,1.09,0,0,1,0,90.12l.53.19a.84.84,0,0,0-.12.42.51.51,0,0,0,.11.34.58.58,0,0,0,.31.21,2.35,2.35,0,0,0,.67.1H3.22Z" transform="translate(1.43 -21.92)"/><path class="cls-4" d="M4.51,87.63H2.86a1.06,1.06,0,0,1,.32.37,1.13,1.13,0,0,1,.12.51,1.34,1.34,0,0,1-.48,1A1.89,1.89,0,0,1,1.51,90,2.17,2.17,0,0,1,.6,89.8,1.37,1.37,0,0,1,0,89.29a1.44,1.44,0,0,1-.2-.74,1.13,1.13,0,0,1,.52-1H-.15v-.51H4.51Zm-3,1.76a1.48,1.48,0,0,0,1-.27.84.84,0,0,0,.33-.66.8.8,0,0,0-.31-.63,1.46,1.46,0,0,0-.94-.26,1.52,1.52,0,0,0-1,.28.8.8,0,0,0-.34.65.78.78,0,0,0,.31.63A1.56,1.56,0,0,0,1.53,89.39Z" transform="translate(1.43 -21.92)"/><path class="cls-4" d="M3.22,84H2.73A1.23,1.23,0,0,1,3.3,85a1.31,1.31,0,0,1-.12.56A.88.88,0,0,1,2.9,86a1,1,0,0,1-.43.18,3.33,3.33,0,0,1-.53,0H-.15V85.6H1.72a3.77,3.77,0,0,0,.6,0,.6.6,0,0,0,.36-.23.75.75,0,0,0,.13-.43,1,1,0,0,0-.13-.48.7.7,0,0,0-.36-.32,1.63,1.63,0,0,0-.66-.1H-.15v-.57H3.22Z" transform="translate(1.43 -21.92)"/><path class="cls-4" d="M2.14,80.24l.07-.59a1.36,1.36,0,0,1,.8.52,1.54,1.54,0,0,1,.29,1,1.52,1.52,0,0,1-.46,1.17,1.77,1.77,0,0,1-1.27.44A1.86,1.86,0,0,1,.25,82.3a1.46,1.46,0,0,1-.47-1.14,1.41,1.41,0,0,1,.46-1.1,1.78,1.78,0,0,1,1.29-.43h.15v2.52a1.27,1.27,0,0,0,.85-.32.92.92,0,0,0,.3-.7.89.89,0,0,0-.17-.54A1.09,1.09,0,0,0,2.14,80.24Zm-.93,1.87V80.23a1.14,1.14,0,0,0-.63.22.88.88,0,0,0-.33.71.89.89,0,0,0,.26.66A1,1,0,0,0,1.21,82.11Z" transform="translate(1.43 -21.92)"/><path class="cls-4" d="M4.51,77.11H-1.43V75.85H-1v.69H4v-.69h.47Z" transform="translate(1.43 -21.92)"/><path class="cls-4" d="M3.22,75.25H-1.43v-.63l3.65-2.44H-1.43v-.59H3.22v.63L-.43,74.66H3.22Z" transform="translate(1.43 -21.92)"/><path class="cls-4" d="M.94,70.71a.74.74,0,0,1-.56-.24.76.76,0,0,1-.24-.57.74.74,0,0,1,.24-.56.74.74,0,0,1,.56-.24.75.75,0,0,1,.57.24.74.74,0,0,1,.24.56.76.76,0,0,1-.24.57A.75.75,0,0,1,.94,70.71Z" transform="translate(1.43 -21.92)"/><path class="cls-4" d="M3.22,68.35H-.15v-.51H.33a1.24,1.24,0,0,1-.4-.42,1.21,1.21,0,0,1-.15-.6,1.16,1.16,0,0,1,.15-.62.88.88,0,0,1,.44-.34,1.18,1.18,0,0,1-.59-1,1,1,0,0,1,.27-.77,1.2,1.2,0,0,1,.86-.27H3.22v.57H1.1a1.42,1.42,0,0,0-.49.06.44.44,0,0,0-.25.2A.62.62,0,0,0,.27,65a.79.79,0,0,0,.24.59,1,1,0,0,0,.75.24h2v.57H1a.92.92,0,0,0-.57.14.51.51,0,0,0-.19.45.81.81,0,0,0,.13.45.74.74,0,0,0,.37.3,2.12,2.12,0,0,0,.7.09H3.22Z" transform="translate(1.43 -21.92)"/><path class="cls-4" d="M4.51,62v1.26H4v-.69H-1v.69h-.47V62Z" transform="translate(1.43 -21.92)"/><path class="cls-4" d="M44.76,150.56l.58-.05a1.32,1.32,0,0,0,.19.57,1,1,0,0,0,.47.36,1.8,1.8,0,0,0,.71.14,1.73,1.73,0,0,0,.63-.11.87.87,0,0,0,.4-.28.66.66,0,0,0,.13-.4.57.57,0,0,0-.13-.38.93.93,0,0,0-.42-.28c-.12,0-.4-.12-.83-.23a3.65,3.65,0,0,1-.89-.29,1.19,1.19,0,0,1-.5-.43,1,1,0,0,1-.16-.58,1.16,1.16,0,0,1,.2-.66,1.18,1.18,0,0,1,.58-.46,2.15,2.15,0,0,1,.85-.16,2.4,2.4,0,0,1,.92.17,1.27,1.27,0,0,1,.6.49,1.32,1.32,0,0,1,.23.73l-.59,0a1,1,0,0,0-.32-.66,1.24,1.24,0,0,0-.81-.23,1.27,1.27,0,0,0-.81.21.58.58,0,0,0-.26.49.51.51,0,0,0,.18.41,2.52,2.52,0,0,0,.93.34,6.61,6.61,0,0,1,1,.29,1.41,1.41,0,0,1,.6.48,1.14,1.14,0,0,1,.19.66,1.27,1.27,0,0,1-.21.7,1.4,1.4,0,0,1-.61.51,2.19,2.19,0,0,1-.9.18,2.76,2.76,0,0,1-1.06-.18,1.59,1.59,0,0,1-.67-.56A1.56,1.56,0,0,1,44.76,150.56Z" transform="translate(1.43 -21.92)"/><path class="cls-4" d="M49.23,153.34v-4.66h.52v.44a1.29,1.29,0,0,1,.42-.39,1.19,1.19,0,0,1,.56-.12,1.31,1.31,0,0,1,.76.22,1.34,1.34,0,0,1,.5.62,2.35,2.35,0,0,1,.17.89,2.12,2.12,0,0,1-.19.93,1.36,1.36,0,0,1-.54.64,1.42,1.42,0,0,1-.74.22,1.14,1.14,0,0,1-.52-.12,1.12,1.12,0,0,1-.37-.31v1.64Zm.52-3a1.51,1.51,0,0,0,.26,1,.82.82,0,0,0,1.29,0,2,2,0,0,0,0-2,.82.82,0,0,0-.64-.32.84.84,0,0,0-.64.34A1.53,1.53,0,0,0,49.75,150.39Z" transform="translate(1.43 -21.92)"/><path class="cls-4" d="M55.15,151l.59.07a1.43,1.43,0,0,1-.51.8,1.6,1.6,0,0,1-1,.29,1.52,1.52,0,0,1-1.17-.46,1.76,1.76,0,0,1-.43-1.27,1.9,1.9,0,0,1,.43-1.33,1.48,1.48,0,0,1,1.14-.46,1.41,1.41,0,0,1,1.1.46,1.78,1.78,0,0,1,.43,1.29v.15H53.25a1.26,1.26,0,0,0,.31.85.92.92,0,0,0,.7.3.89.89,0,0,0,.54-.17A1,1,0,0,0,55.15,151ZM53.28,150h1.88a1.21,1.21,0,0,0-.22-.64.86.86,0,0,0-.7-.33.9.9,0,0,0-.67.27A1.07,1.07,0,0,0,53.28,150Z" transform="translate(1.43 -21.92)"/><path class="cls-4" d="M58.77,151l.59.07a1.5,1.5,0,0,1-.52.8,1.74,1.74,0,0,1-2.14-.17,1.76,1.76,0,0,1-.43-1.27,1.9,1.9,0,0,1,.44-1.33,1.48,1.48,0,0,1,1.13-.46,1.45,1.45,0,0,1,1.11.46,1.82,1.82,0,0,1,.43,1.29,1,1,0,0,1,0,.15H56.86a1.32,1.32,0,0,0,.31.85.94.94,0,0,0,.71.3.89.89,0,0,0,.54-.17A1.16,1.16,0,0,0,58.77,151ZM56.89,150h1.88a1.13,1.13,0,0,0-.21-.64.88.88,0,0,0-.71-.33.9.9,0,0,0-.66.27A1,1,0,0,0,56.89,150Z" transform="translate(1.43 -21.92)"/><path class="cls-4" d="M62.26,152.05v-.42a1.05,1.05,0,0,1-.94.5,1.37,1.37,0,0,1-.74-.22,1.44,1.44,0,0,1-.52-.62,2.1,2.1,0,0,1-.19-.92,2.29,2.29,0,0,1,.17-.92,1.37,1.37,0,0,1,.5-.63,1.42,1.42,0,0,1,.75-.21,1.2,1.2,0,0,1,.55.12,1.14,1.14,0,0,1,.38.34V147.4h.57v4.65Zm-1.8-1.68a1.5,1.5,0,0,0,.27,1,.83.83,0,0,0,.64.32.81.81,0,0,0,.64-.31,1.41,1.41,0,0,0,.26-.93,1.66,1.66,0,0,0-.26-1,.84.84,0,0,0-.66-.32.78.78,0,0,0-.64.31A1.54,1.54,0,0,0,60.46,150.37Z" transform="translate(1.43 -21.92)"/><path class="cls-4" d="M65.51,153.34V147.4h1.26v.47h-.69v5h.69v.47Z" transform="translate(1.43 -21.92)"/><path class="cls-4" d="M67.3,152.05v-3.37h.51v.51a1.41,1.41,0,0,1,.36-.47.62.62,0,0,1,.37-.11,1.15,1.15,0,0,1,.59.18l-.2.53a.84.84,0,0,0-.42-.12.49.49,0,0,0-.33.11.59.59,0,0,0-.22.31,2.36,2.36,0,0,0-.09.67v1.76Z" transform="translate(1.43 -21.92)"/><path class="cls-4" d="M69,152.13l1.35-4.81h.45l-1.34,4.81Z" transform="translate(1.43 -21.92)"/><path class="cls-4" d="M71.27,152.05v-3.37h.51v.47a1.24,1.24,0,0,1,.43-.39,1.16,1.16,0,0,1,.6-.15,1.13,1.13,0,0,1,.61.15.84.84,0,0,1,.34.44,1.18,1.18,0,0,1,1-.59,1,1,0,0,1,.77.27,1.2,1.2,0,0,1,.27.86v2.31h-.57v-2.12a2,2,0,0,0,0-.5.49.49,0,0,0-.21-.24.62.62,0,0,0-.34-.09.81.81,0,0,0-.59.24,1,1,0,0,0-.23.75v2h-.57v-2.19a1,1,0,0,0-.14-.57.54.54,0,0,0-.46-.19.81.81,0,0,0-.45.13.72.72,0,0,0-.29.37,1.85,1.85,0,0,0-.1.7v1.75Z" transform="translate(1.43 -21.92)"/><path class="cls-4" d="M76.69,148.06v-.66h.57v.66Zm0,4v-3.37h.57v3.37Z" transform="translate(1.43 -21.92)"/><path class="cls-4" d="M78.13,152.05v-3.37h.52v.48a1.19,1.19,0,0,1,1.07-.55,1.47,1.47,0,0,1,.56.1.89.89,0,0,1,.38.29,1.14,1.14,0,0,1,.18.42,3.51,3.51,0,0,1,0,.56v2.07H80.3V150a1.38,1.38,0,0,0-.07-.52.53.53,0,0,0-.23-.28.77.77,0,0,0-.4-.1.92.92,0,0,0-.63.23,1.14,1.14,0,0,0-.27.88v1.84Z" transform="translate(1.43 -21.92)"/><path class="cls-4" d="M82.7,153.34H81.44v-.47h.69v-5h-.69v-.47H82.7Z" transform="translate(1.43 -21.92)"/></g></svg>