<svg xmlns="http://www.w3.org/2000/svg" viewBox="0 0 115.06 131.12"><defs><style>.cls-1,.cls-2,.cls-3,.cls-4,.cls-5,.cls-8,.繝医Ν繧ｯ繧ｰ繝ｩ繝廟繧ｰ繝ｬ繝ｼ邱{fill:none;}.cls-1,.cls-2,.cls-4,.繝医Ν繧ｯ繧ｰ繝ｩ繝廟繧ｰ繝ｬ繝ｼ邱{stroke:#9fa0a0;}.cls-1,.cls-2,.cls-8{stroke-miterlimit:10;}.cls-1,.cls-2{stroke-width:1px;}.cls-2{stroke-dasharray:3.59 1.74;}.cls-3,.cls-5,.cls-8{stroke:#231815;}.cls-3{stroke-linejoin:round;stroke-width:0.14px;}.cls-4,.繝医Ν繧ｯ繧ｰ繝ｩ繝廟繧ｰ繝ｬ繝ｼ邱{stroke-width:3px;}.cls-4{stroke-linecap:square;}.cls-6{fill:#231815;}.cls-7{fill:#fff;}.cls-8{stroke-width:0.5px;}</style></defs><g id="Illust"><line class="cls-1" x1="94.85" y1="99.91" x2="94.85" y2="101.46"/><line class="cls-2" x1="94.85" y1="103.2" x2="94.85" y2="112.98"/><line class="cls-1" x1="94.85" y1="113.85" x2="94.85" y2="115.4"/><line class="cls-3" x1="20.42" y1="99.19" x2="109.71" y2="99.19"/><line class="cls-3" x1="20.42" y1="83" x2="109.71" y2="83"/><line class="cls-3" x1="20.42" y1="66.77" x2="109.71" y2="66.77"/><line class="cls-3" x1="20.42" y1="50.59" x2="109.71" y2="50.59"/><line class="cls-3" x1="20.42" y1="34.4" x2="109.71" y2="34.4"/><line class="cls-3" x1="20.42" y1="18.17" x2="109.71" y2="18.17"/><line class="cls-3" x1="50.2" y1="1.98" x2="50.2" y2="115.37"/><line class="cls-3" x1="79.96" y1="1.98" x2="79.96" y2="115.37"/><polyline class="繝医Ν繧ｯ繧ｰ繝ｩ繝廟繧ｰ繝ｬ繝ｼ邱" points="20.43 89.62 65.07 89.62 72.51 93.27 79.97 96.05 87.41 98.2 94.84 99.91 102.28 101.3 109.72 102.48"/><polyline class="cls-4" points="20.43 12.25 57.63 12.25 65.07 38.02 109.72 74.89"/><polyline class="cls-5" points="20.43 89.62 65.07 89.62 72.51 93.27 79.97 96.05 87.41 98.2 94.84 99.91 102.28 101.3 109.72 102.48"/><polyline class="cls-5" points="20.43 12.25 54.66 12.25 60.62 38.02 109.72 80.57"/><path class="cls-6" d="M17.82,142a3.12,3.12,0,0,1,.13-1,1.31,1.31,0,0,1,.39-.6,1.11,1.11,0,0,1,1.15-.09.82.82,0,0,1,.36.33,1.6,1.6,0,0,1,.22.53,3.25,3.25,0,0,1,.08.85,3.2,3.2,0,0,1-.13,1,1.24,1.24,0,0,1-.38.59,1.1,1.1,0,0,1-1.47-.16A2.37,2.37,0,0,1,17.82,142Zm.45,0a2.18,2.18,0,0,0,.21,1.17.59.59,0,0,0,1,0,3.55,3.55,0,0,0,0-2.35.63.63,0,0,0-.52-.29.56.56,0,0,0-.48.26A2.28,2.28,0,0,0,18.27,142Z" transform="translate(1.43 -22.11)"/><path class="cls-6" d="M45.71,143.36v.42H43.34a1,1,0,0,1,0-.3,1.76,1.76,0,0,1,.29-.48,6.66,6.66,0,0,1,.58-.54,4.87,4.87,0,0,0,.79-.76.92.92,0,0,0,.2-.53.58.58,0,0,0-.19-.44.65.65,0,0,0-.48-.18.73.73,0,0,0-.51.19.72.72,0,0,0-.19.53l-.46-.05a1.18,1.18,0,0,1,.35-.77,1.26,1.26,0,0,1,.82-.26,1.09,1.09,0,0,1,.81.29.92.92,0,0,1,.3.7,1.07,1.07,0,0,1-.09.43,1.41,1.41,0,0,1-.29.43,5.45,5.45,0,0,1-.67.63,5.24,5.24,0,0,0-.51.45,1.33,1.33,0,0,0-.19.24Z" transform="translate(1.43 -22.11)"/><path class="cls-6" d="M46.21,142a3.12,3.12,0,0,1,.13-1,1.31,1.31,0,0,1,.39-.6,1.11,1.11,0,0,1,1.15-.09.82.82,0,0,1,.36.33,1.84,1.84,0,0,1,.22.53,3.25,3.25,0,0,1,.08.85,3.2,3.2,0,0,1-.13,1,1.24,1.24,0,0,1-.38.59,1,1,0,0,1-.65.21,1,1,0,0,1-.82-.37A2.37,2.37,0,0,1,46.21,142Zm.45,0a2.18,2.18,0,0,0,.21,1.17.58.58,0,0,0,1,0,3.39,3.39,0,0,0,0-2.35.6.6,0,0,0-.51-.29.56.56,0,0,0-.48.26A2.28,2.28,0,0,0,46.66,142Z" transform="translate(1.43 -22.11)"/><path class="cls-6" d="M49,142a3.12,3.12,0,0,1,.13-1,1.31,1.31,0,0,1,.39-.6,1.11,1.11,0,0,1,1.15-.09.82.82,0,0,1,.36.33,1.6,1.6,0,0,1,.22.53,3.25,3.25,0,0,1,.08.85,3.2,3.2,0,0,1-.13,1,1.24,1.24,0,0,1-.38.59,1.1,1.1,0,0,1-1.47-.16A2.37,2.37,0,0,1,49,142Zm.45,0a2.18,2.18,0,0,0,.21,1.17.58.58,0,0,0,.51.29.6.6,0,0,0,.51-.29,3.55,3.55,0,0,0,0-2.35.63.63,0,0,0-.52-.29.56.56,0,0,0-.48.26A2.28,2.28,0,0,0,49.41,142Z" transform="translate(1.43 -22.11)"/><path class="cls-6" d="M51.77,142a3.12,3.12,0,0,1,.13-1,1.31,1.31,0,0,1,.39-.6,1.11,1.11,0,0,1,1.15-.09.82.82,0,0,1,.36.33,1.6,1.6,0,0,1,.22.53,3.25,3.25,0,0,1,.08.85,3.2,3.2,0,0,1-.13,1,1.24,1.24,0,0,1-.38.59,1.1,1.1,0,0,1-1.47-.16A2.37,2.37,0,0,1,51.77,142Zm.45,0a2.18,2.18,0,0,0,.21,1.17.59.59,0,0,0,1,0,3.55,3.55,0,0,0,0-2.35.63.63,0,0,0-.52-.29.56.56,0,0,0-.48.26A2.28,2.28,0,0,0,52.22,142Z" transform="translate(1.43 -22.11)"/><path class="cls-6" d="M74.57,143.78v-.85H73v-.41l1.63-2.32H75v2.32h.48v.41H75v.85Zm0-1.26v-1.61l-1.12,1.61Z" transform="translate(1.43 -22.11)"/><path class="cls-6" d="M76,142a3.42,3.42,0,0,1,.13-1,1.31,1.31,0,0,1,.39-.6,1,1,0,0,1,.65-.21,1.07,1.07,0,0,1,.51.12.85.85,0,0,1,.35.33,1.84,1.84,0,0,1,.23.53,3.76,3.76,0,0,1,.08.85,3.52,3.52,0,0,1-.13,1,1.33,1.33,0,0,1-.39.59,1,1,0,0,1-.65.21,1,1,0,0,1-.81-.37A2.3,2.3,0,0,1,76,142Zm.45,0a2.18,2.18,0,0,0,.21,1.17.59.59,0,0,0,1,0,3.39,3.39,0,0,0,0-2.35.63.63,0,0,0-.52-.29.56.56,0,0,0-.48.26A2.28,2.28,0,0,0,76.42,142Z" transform="translate(1.43 -22.11)"/><path class="cls-6" d="M78.72,142a3.42,3.42,0,0,1,.13-1,1.31,1.31,0,0,1,.39-.6,1,1,0,0,1,.65-.21,1.07,1.07,0,0,1,.51.12.85.85,0,0,1,.35.33,1.84,1.84,0,0,1,.23.53,3.76,3.76,0,0,1,.08.85,3.52,3.52,0,0,1-.13,1,1.33,1.33,0,0,1-.39.59,1,1,0,0,1-.65.21,1,1,0,0,1-.81-.37A2.3,2.3,0,0,1,78.72,142Zm.46,0a2.2,2.2,0,0,0,.2,1.17.59.59,0,0,0,1,0,3.39,3.39,0,0,0,0-2.35.62.62,0,0,0-.51-.29.57.57,0,0,0-.49.26A2.3,2.3,0,0,0,79.18,142Z" transform="translate(1.43 -22.11)"/><path class="cls-6" d="M81.53,142a3.42,3.42,0,0,1,.13-1,1.31,1.31,0,0,1,.39-.6,1,1,0,0,1,.65-.21,1.07,1.07,0,0,1,.51.12.94.94,0,0,1,.36.33,2.17,2.17,0,0,1,.22.53,3.76,3.76,0,0,1,.08.85,3.2,3.2,0,0,1-.13,1,1.33,1.33,0,0,1-.39.59,1,1,0,0,1-.65.21,1,1,0,0,1-.81-.37A2.3,2.3,0,0,1,81.53,142Zm.46,0a2.2,2.2,0,0,0,.2,1.17.59.59,0,0,0,1,0,3.39,3.39,0,0,0,0-2.35.62.62,0,0,0-.51-.29.57.57,0,0,0-.49.26A2.3,2.3,0,0,0,82,142Z" transform="translate(1.43 -22.11)"/><path class="cls-6" d="M105.21,141.08l-.44,0a.85.85,0,0,0-.17-.37.56.56,0,0,0-.44-.19.61.61,0,0,0-.37.12,1.07,1.07,0,0,0-.32.44,2.43,2.43,0,0,0-.13.83,1.11,1.11,0,0,1,.39-.36,1,1,0,0,1,.48-.12,1,1,0,0,1,.75.33,1.12,1.12,0,0,1,.31.83,1.36,1.36,0,0,1-.15.63,1,1,0,0,1-.39.44,1.14,1.14,0,0,1-.58.15,1.12,1.12,0,0,1-.9-.4,2,2,0,0,1-.34-1.33,2.36,2.36,0,0,1,.38-1.51,1.1,1.1,0,0,1,.9-.41,1,1,0,0,1,1,.89Zm-1.8,1.54a1,1,0,0,0,.1.44.63.63,0,0,0,.27.31.59.59,0,0,0,.36.11.61.61,0,0,0,.48-.22.9.9,0,0,0,.2-.61.86.86,0,0,0-.2-.59.66.66,0,0,0-.5-.21.69.69,0,0,0-.5.21A.78.78,0,0,0,103.41,142.62Z" transform="translate(1.43 -22.11)"/><path class="cls-6" d="M105.74,142a3.12,3.12,0,0,1,.13-1,1.17,1.17,0,0,1,.39-.6,1,1,0,0,1,.64-.21,1,1,0,0,1,.51.12.94.94,0,0,1,.36.33,1.84,1.84,0,0,1,.22.53,3.76,3.76,0,0,1,.08.85,3.2,3.2,0,0,1-.13,1,1.25,1.25,0,0,1-.39.59,1.09,1.09,0,0,1-1.46-.16A2.31,2.31,0,0,1,105.74,142Zm.45,0a2.31,2.31,0,0,0,.2,1.17.6.6,0,0,0,.51.29.59.59,0,0,0,.51-.29,3.39,3.39,0,0,0,0-2.35.62.62,0,0,0-.51-.29.56.56,0,0,0-.48.26A2.19,2.19,0,0,0,106.19,142Z" transform="translate(1.43 -22.11)"/><path class="cls-6" d="M108.49,142a3.12,3.12,0,0,1,.13-1,1.23,1.23,0,0,1,.39-.6,1,1,0,0,1,.64-.21,1,1,0,0,1,.51.12.94.94,0,0,1,.36.33,1.84,1.84,0,0,1,.22.53,3.76,3.76,0,0,1,.08.85,3.2,3.2,0,0,1-.13,1,1.24,1.24,0,0,1-.38.59,1,1,0,0,1-.66.21,1,1,0,0,1-.81-.37A2.37,2.37,0,0,1,108.49,142Zm.45,0a2.18,2.18,0,0,0,.21,1.17.58.58,0,0,0,1,0,3.39,3.39,0,0,0,0-2.35.61.61,0,0,0-.51-.29.56.56,0,0,0-.48.26A2.19,2.19,0,0,0,108.94,142Z" transform="translate(1.43 -22.11)"/><path class="cls-6" d="M111.3,142a3.12,3.12,0,0,1,.13-1,1.31,1.31,0,0,1,.39-.6,1,1,0,0,1,.64-.21,1,1,0,0,1,.51.12.87.87,0,0,1,.36.33,1.84,1.84,0,0,1,.22.53,3.25,3.25,0,0,1,.08.85,3.2,3.2,0,0,1-.13,1,1.24,1.24,0,0,1-.38.59,1,1,0,0,1-.66.21,1,1,0,0,1-.81-.37A2.37,2.37,0,0,1,111.3,142Zm.45,0a2.18,2.18,0,0,0,.21,1.17.58.58,0,0,0,1,0,3.39,3.39,0,0,0,0-2.35.6.6,0,0,0-.51-.29.56.56,0,0,0-.48.26A2.28,2.28,0,0,0,111.75,142Z" transform="translate(1.43 -22.11)"/><rect class="cls-7" x="109.71" y="1.98" width="2.83" height="113.39"/><rect class="cls-7" x="17.59" y="1.98" width="2.83" height="113.39"/><polygon class="cls-8" points="20.42 1.98 109.72 1.98 109.72 115.37 20.42 115.37 20.42 1.98 20.42 1.98"/><path class="cls-6" d="M10.81,137.35a3.2,3.2,0,0,1,.13-1,1.2,1.2,0,0,1,.39-.59,1,1,0,0,1,.64-.21,1,1,0,0,1,.51.11,1,1,0,0,1,.36.34,1.73,1.73,0,0,1,.22.53,3.72,3.72,0,0,1,.08.84,3.2,3.2,0,0,1-.13,1,1.22,1.22,0,0,1-.38.6,1,1,0,0,1-.66.21,1,1,0,0,1-.81-.37A2.41,2.41,0,0,1,10.81,137.35Zm.45,0a2.25,2.25,0,0,0,.21,1.18.58.58,0,0,0,1,0,2.25,2.25,0,0,0,.21-1.18,2.18,2.18,0,0,0-.21-1.17.61.61,0,0,0-.51-.29.54.54,0,0,0-.48.26A2.24,2.24,0,0,0,11.26,137.35Z" transform="translate(1.43 -22.11)"/><path class="cls-6" d="M13.86,139.12v-.5h.51v.5Z" transform="translate(1.43 -22.11)"/><path class="cls-6" d="M15,137.35a3.52,3.52,0,0,1,.13-1,1.28,1.28,0,0,1,.39-.59,1,1,0,0,1,.65-.21,1.06,1.06,0,0,1,.51.11A1,1,0,0,1,17,136a1.73,1.73,0,0,1,.23.53,3.72,3.72,0,0,1,.08.84,3.52,3.52,0,0,1-.13,1,1.31,1.31,0,0,1-.39.6,1,1,0,0,1-.65.21,1,1,0,0,1-.81-.37A2.33,2.33,0,0,1,15,137.35Zm.45,0a2.25,2.25,0,0,0,.21,1.18.59.59,0,0,0,1,0,2.25,2.25,0,0,0,.21-1.18,2.18,2.18,0,0,0-.21-1.17.63.63,0,0,0-.52-.29.54.54,0,0,0-.48.26A2.24,2.24,0,0,0,15.46,137.35Z" transform="translate(1.43 -22.11)"/><path class="cls-6" d="M9.71,122.92H9.27v-2.8a2.07,2.07,0,0,1-.41.3,2.87,2.87,0,0,1-.47.23v-.42a2.8,2.8,0,0,0,.65-.42,2,2,0,0,0,.39-.48h.28Z" transform="translate(1.43 -22.11)"/><path class="cls-6" d="M10.87,121.16a3.23,3.23,0,0,1,.13-1,1.33,1.33,0,0,1,.39-.59,1,1,0,0,1,.65-.21,1.12,1.12,0,0,1,.5.11.9.9,0,0,1,.36.34,1.73,1.73,0,0,1,.22.53,3.25,3.25,0,0,1,.08.85,3.14,3.14,0,0,1-.13,1,1.22,1.22,0,0,1-.38.6A1,1,0,0,1,12,123a1,1,0,0,1-.82-.37A2.39,2.39,0,0,1,10.87,121.16Zm.45,0a2.23,2.23,0,0,0,.21,1.17.58.58,0,0,0,1,0,3.39,3.39,0,0,0,0-2.35.6.6,0,0,0-.51-.29.56.56,0,0,0-.48.26A2.28,2.28,0,0,0,11.32,121.16Z" transform="translate(1.43 -22.11)"/><path class="cls-6" d="M13.87,122.92v-.5h.5v.5Z" transform="translate(1.43 -22.11)"/><path class="cls-6" d="M15,121.16a3.54,3.54,0,0,1,.13-1,1.33,1.33,0,0,1,.39-.59,1,1,0,0,1,.65-.21,1.19,1.19,0,0,1,.51.11,1,1,0,0,1,.35.34,1.73,1.73,0,0,1,.23.53,3.76,3.76,0,0,1,.08.85,3.44,3.44,0,0,1-.13,1,1.31,1.31,0,0,1-.39.6,1,1,0,0,1-.65.21,1,1,0,0,1-.81-.37A2.32,2.32,0,0,1,15,121.16Zm.45,0a2.23,2.23,0,0,0,.21,1.17.59.59,0,0,0,1,0,3.39,3.39,0,0,0,0-2.35.62.62,0,0,0-.51-.29.57.57,0,0,0-.49.26A2.28,2.28,0,0,0,15.46,121.16Z" transform="translate(1.43 -22.11)"/><path class="cls-6" d="M10.37,106.29v.43H8a1.06,1.06,0,0,1,.05-.31,1.58,1.58,0,0,1,.29-.47,4.55,4.55,0,0,1,.58-.55,5.41,5.41,0,0,0,.79-.75,1,1,0,0,0,.2-.53.56.56,0,0,0-.19-.44.65.65,0,0,0-.48-.18.66.66,0,0,0-.7.71l-.46,0a1.14,1.14,0,0,1,.35-.77,1.21,1.21,0,0,1,.82-.27,1.13,1.13,0,0,1,.81.29.94.94,0,0,1,.3.71,1.06,1.06,0,0,1-.09.42A1.44,1.44,0,0,1,10,105a7.63,7.63,0,0,1-.67.63,5.24,5.24,0,0,0-.51.45,1.77,1.77,0,0,0-.19.23Z" transform="translate(1.43 -22.11)"/><path class="cls-6" d="M10.87,105a3.2,3.2,0,0,1,.13-1,1.31,1.31,0,0,1,.39-.6,1,1,0,0,1,.65-.21,1,1,0,0,1,.5.12,1,1,0,0,1,.36.33,1.91,1.91,0,0,1,.22.54,4.23,4.23,0,0,1,0,1.86,1.22,1.22,0,0,1-.38.6,1.1,1.1,0,0,1-1.47-.16A2.43,2.43,0,0,1,10.87,105Zm.45,0a2.25,2.25,0,0,0,.21,1.18.6.6,0,0,0,.51.29.58.58,0,0,0,.5-.3,3.36,3.36,0,0,0,0-2.34.58.58,0,0,0-.51-.29.56.56,0,0,0-.48.25A2.28,2.28,0,0,0,11.32,105Z" transform="translate(1.43 -22.11)"/><path class="cls-6" d="M13.87,106.72v-.5h.5v.5Z" transform="translate(1.43 -22.11)"/><path class="cls-6" d="M15,105a3.52,3.52,0,0,1,.13-1,1.31,1.31,0,0,1,.39-.6,1,1,0,0,1,.65-.21,1.07,1.07,0,0,1,.51.12,1,1,0,0,1,.35.33,1.91,1.91,0,0,1,.23.54,3.72,3.72,0,0,1,.08.84,3.52,3.52,0,0,1-.13,1,1.31,1.31,0,0,1-.39.6,1.09,1.09,0,0,1-1.46-.16A2.35,2.35,0,0,1,15,105Zm.45,0a2.25,2.25,0,0,0,.21,1.18.62.62,0,0,0,.51.29.61.61,0,0,0,.51-.3,3.36,3.36,0,0,0,0-2.34.6.6,0,0,0-.51-.29.56.56,0,0,0-.49.25A2.28,2.28,0,0,0,15.46,105Z" transform="translate(1.43 -22.11)"/><path class="cls-6" d="M8.06,89.57l.44-.06a1,1,0,0,0,.26.54.64.64,0,0,0,.44.17A.71.71,0,0,0,9.72,90a.69.69,0,0,0,.22-.53.68.68,0,0,0-.7-.7,1.32,1.32,0,0,0-.31,0L9,88.44h.07a.89.89,0,0,0,.5-.15.49.49,0,0,0,.23-.45.54.54,0,0,0-.17-.4.61.61,0,0,0-.42-.16.65.65,0,0,0-.43.16.89.89,0,0,0-.22.49l-.44-.08a1.16,1.16,0,0,1,.37-.68,1,1,0,0,1,.71-.25,1.08,1.08,0,0,1,.54.13.89.89,0,0,1,.51.8.68.68,0,0,1-.13.42.82.82,0,0,1-.37.31.85.85,0,0,1,.5.3.93.93,0,0,1,.17.58,1,1,0,0,1-.34.79,1.18,1.18,0,0,1-.86.33,1.1,1.1,0,0,1-1.14-1Z" transform="translate(1.43 -22.11)"/><path class="cls-6" d="M10.87,88.75a3.2,3.2,0,0,1,.13-1,1.31,1.31,0,0,1,.39-.6,1,1,0,0,1,.65-.21,1,1,0,0,1,.5.12,1,1,0,0,1,.36.33,2,2,0,0,1,.22.53,3.3,3.3,0,0,1,.08.85,3.2,3.2,0,0,1-.13,1,1.27,1.27,0,0,1-.38.6,1.1,1.1,0,0,1-1.47-.16A2.43,2.43,0,0,1,10.87,88.75Zm.45,0a2.18,2.18,0,0,0,.21,1.17.58.58,0,0,0,1,0,3.36,3.36,0,0,0,0-2.34.58.58,0,0,0-.51-.29.56.56,0,0,0-.48.25A2.28,2.28,0,0,0,11.32,88.75Z" transform="translate(1.43 -22.11)"/><path class="cls-6" d="M13.87,90.52V90h.5v.5Z" transform="translate(1.43 -22.11)"/><path class="cls-6" d="M15,88.75a3.52,3.52,0,0,1,.13-1,1.31,1.31,0,0,1,.39-.6,1,1,0,0,1,.65-.21,1.07,1.07,0,0,1,.51.12,1,1,0,0,1,.35.33,2,2,0,0,1,.23.53,3.82,3.82,0,0,1,.08.85,3.52,3.52,0,0,1-.13,1,1.36,1.36,0,0,1-.39.6,1.09,1.09,0,0,1-1.46-.16A2.35,2.35,0,0,1,15,88.75Zm.45,0a2.18,2.18,0,0,0,.21,1.17.58.58,0,0,0,1,0,3.36,3.36,0,0,0,0-2.34.6.6,0,0,0-.51-.29.56.56,0,0,0-.49.25A2.28,2.28,0,0,0,15.46,88.75Z" transform="translate(1.43 -22.11)"/><path class="cls-6" d="M9.47,74.31v-.86H7.91v-.4l1.64-2.32h.36v2.32h.48v.4H9.91v.86Zm0-1.26V71.44L8.35,73.05Z" transform="translate(1.43 -22.11)"/><path class="cls-6" d="M10.87,72.55a3.23,3.23,0,0,1,.13-1,1.33,1.33,0,0,1,.39-.59,1,1,0,0,1,.65-.21,1.12,1.12,0,0,1,.5.11.9.9,0,0,1,.36.34,1.73,1.73,0,0,1,.22.53,3.25,3.25,0,0,1,.08.85,3.14,3.14,0,0,1-.13,1,1.22,1.22,0,0,1-.38.6,1,1,0,0,1-.65.21,1,1,0,0,1-.82-.37A2.39,2.39,0,0,1,10.87,72.55Zm.45,0a2.23,2.23,0,0,0,.21,1.17.58.58,0,0,0,1,0,3.39,3.39,0,0,0,0-2.35.6.6,0,0,0-.51-.29.56.56,0,0,0-.48.26A2.28,2.28,0,0,0,11.32,72.55Z" transform="translate(1.43 -22.11)"/><path class="cls-6" d="M13.87,74.31v-.5h.5v.5Z" transform="translate(1.43 -22.11)"/><path class="cls-6" d="M15,72.55a3.54,3.54,0,0,1,.13-1,1.33,1.33,0,0,1,.39-.59,1,1,0,0,1,.65-.21,1.19,1.19,0,0,1,.51.11,1,1,0,0,1,.35.34,1.73,1.73,0,0,1,.23.53,3.76,3.76,0,0,1,.08.85,3.44,3.44,0,0,1-.13,1,1.31,1.31,0,0,1-.39.6,1,1,0,0,1-.65.21,1,1,0,0,1-.81-.37A2.32,2.32,0,0,1,15,72.55Zm.45,0a2.23,2.23,0,0,0,.21,1.17.59.59,0,0,0,1,0,3.39,3.39,0,0,0,0-2.35.62.62,0,0,0-.51-.29.57.57,0,0,0-.49.26A2.28,2.28,0,0,0,15.46,72.55Z" transform="translate(1.43 -22.11)"/><path class="cls-6" d="M8.06,57.17l.46,0a.77.77,0,0,0,.24.51.64.64,0,0,0,.45.17.68.68,0,0,0,.53-.24.88.88,0,0,0,.22-.63.83.83,0,0,0-.21-.6.75.75,0,0,0-.55-.22.8.8,0,0,0-.38.1.73.73,0,0,0-.27.25l-.41,0,.34-1.84h1.78V55H8.83l-.19,1a1.17,1.17,0,0,1,.68-.22,1.06,1.06,0,0,1,.79.32,1.17,1.17,0,0,1,.32.84,1.31,1.31,0,0,1-.28.84,1.14,1.14,0,0,1-.94.43,1.17,1.17,0,0,1-.8-.27A1.06,1.06,0,0,1,8.06,57.17Z" transform="translate(1.43 -22.11)"/><path class="cls-6" d="M10.87,56.34a3.2,3.2,0,0,1,.13-1,1.28,1.28,0,0,1,.39-.59,1,1,0,0,1,.65-.21,1,1,0,0,1,.5.11.9.9,0,0,1,.36.34,1.73,1.73,0,0,1,.22.53,4.23,4.23,0,0,1,0,1.86,1.22,1.22,0,0,1-.38.6,1,1,0,0,1-.65.21,1,1,0,0,1-.82-.37A2.41,2.41,0,0,1,10.87,56.34Zm.45,0a2.25,2.25,0,0,0,.21,1.18.58.58,0,0,0,1,0,2.25,2.25,0,0,0,.21-1.18,2.2,2.2,0,0,0-.21-1.17.6.6,0,0,0-.51-.29.56.56,0,0,0-.48.26A2.24,2.24,0,0,0,11.32,56.34Z" transform="translate(1.43 -22.11)"/><path class="cls-6" d="M13.87,58.11v-.5h.5v.5Z" transform="translate(1.43 -22.11)"/><path class="cls-6" d="M15,56.34a3.52,3.52,0,0,1,.13-1,1.28,1.28,0,0,1,.39-.59,1,1,0,0,1,.65-.21,1.06,1.06,0,0,1,.51.11A1,1,0,0,1,17,55a1.73,1.73,0,0,1,.23.53,3.72,3.72,0,0,1,.08.84,3.52,3.52,0,0,1-.13,1,1.31,1.31,0,0,1-.39.6,1,1,0,0,1-.65.21,1,1,0,0,1-.81-.37A2.33,2.33,0,0,1,15,56.34Zm.45,0a2.25,2.25,0,0,0,.21,1.18.59.59,0,0,0,1,0,2.25,2.25,0,0,0,.21-1.18,2.2,2.2,0,0,0-.21-1.17.62.62,0,0,0-.51-.29.57.57,0,0,0-.49.26A2.24,2.24,0,0,0,15.46,56.34Z" transform="translate(1.43 -22.11)"/><path class="cls-6" d="M10.34,39.21l-.44,0a.75.75,0,0,0-.17-.37.54.54,0,0,0-.43-.19.59.59,0,0,0-.37.12,1,1,0,0,0-.33.44,2.24,2.24,0,0,0-.12.83,1,1,0,0,1,.38-.36,1.07,1.07,0,0,1,.48-.12,1,1,0,0,1,.75.32,1.16,1.16,0,0,1,.31.84,1.52,1.52,0,0,1-.14.63,1.07,1.07,0,0,1-.4.44,1.11,1.11,0,0,1-.58.15,1.14,1.14,0,0,1-.9-.4A2,2,0,0,1,8,40.24a2.42,2.42,0,0,1,.38-1.51,1.1,1.1,0,0,1,.9-.41,1,1,0,0,1,1,.89Zm-1.8,1.54a1.13,1.13,0,0,0,.1.44.72.72,0,0,0,.63.42.61.61,0,0,0,.48-.22.86.86,0,0,0,.2-.61.8.8,0,0,0-.2-.59A.64.64,0,0,0,9.26,40a.69.69,0,0,0-.51.21A.76.76,0,0,0,8.54,40.75Z" transform="translate(1.43 -22.11)"/><path class="cls-6" d="M10.87,40.15a3.12,3.12,0,0,1,.13-1,1.31,1.31,0,0,1,.39-.6,1,1,0,0,1,.65-.21,1.12,1.12,0,0,1,.5.11.9.9,0,0,1,.36.34,1.73,1.73,0,0,1,.22.53,3.25,3.25,0,0,1,.08.85,3.09,3.09,0,0,1-.13,1,1.22,1.22,0,0,1-.38.6A1,1,0,0,1,12,42a1,1,0,0,1-.82-.37A2.39,2.39,0,0,1,10.87,40.15Zm.45,0a2.2,2.2,0,0,0,.21,1.17.58.58,0,0,0,1,0,2.23,2.23,0,0,0,.21-1.17A2.25,2.25,0,0,0,12.54,39a.6.6,0,0,0-.51-.29.56.56,0,0,0-.48.26A2.28,2.28,0,0,0,11.32,40.15Z" transform="translate(1.43 -22.11)"/><path class="cls-6" d="M13.87,41.91v-.5h.5v.5Z" transform="translate(1.43 -22.11)"/><path class="cls-6" d="M15,40.15a3.42,3.42,0,0,1,.13-1,1.31,1.31,0,0,1,.39-.6,1,1,0,0,1,.65-.21,1.19,1.19,0,0,1,.51.11,1,1,0,0,1,.35.34,1.73,1.73,0,0,1,.23.53,3.76,3.76,0,0,1,.08.85,3.39,3.39,0,0,1-.13,1,1.31,1.31,0,0,1-.39.6,1,1,0,0,1-.65.21,1,1,0,0,1-.81-.37A2.32,2.32,0,0,1,15,40.15Zm.45,0a2.2,2.2,0,0,0,.21,1.17.59.59,0,0,0,1,0,2.23,2.23,0,0,0,.21-1.17A2.25,2.25,0,0,0,16.69,39a.62.62,0,0,0-.51-.29.57.57,0,0,0-.49.26A2.28,2.28,0,0,0,15.46,40.15Z" transform="translate(1.43 -22.11)"/><path class="cls-6" d="M8.09,22.59v-.42H10.4v.34a5.42,5.42,0,0,0-.67,1,5.54,5.54,0,0,0-.52,1.24,4.27,4.27,0,0,0-.17,1H8.59a4.4,4.4,0,0,1,.16-1,5.42,5.42,0,0,1,.46-1.15,5.48,5.48,0,0,1,.63-.94Z" transform="translate(1.43 -22.11)"/><path class="cls-6" d="M10.87,23.94a3.2,3.2,0,0,1,.13-1,1.31,1.31,0,0,1,.39-.6,1,1,0,0,1,.65-.21,1,1,0,0,1,.5.12.88.88,0,0,1,.36.33,1.84,1.84,0,0,1,.22.53,3.25,3.25,0,0,1,.08.85,3.2,3.2,0,0,1-.13,1,1.24,1.24,0,0,1-.38.59,1,1,0,0,1-.65.22,1,1,0,0,1-.82-.38A2.37,2.37,0,0,1,10.87,23.94Zm.45,0a2.18,2.18,0,0,0,.21,1.17.58.58,0,0,0,1,0,2.18,2.18,0,0,0,.21-1.17,2.25,2.25,0,0,0-.21-1.18.6.6,0,0,0-.51-.29.56.56,0,0,0-.48.26A2.28,2.28,0,0,0,11.32,23.94Z" transform="translate(1.43 -22.11)"/><path class="cls-6" d="M13.87,25.7v-.5h.5v.5Z" transform="translate(1.43 -22.11)"/><path class="cls-6" d="M15,23.94a3.52,3.52,0,0,1,.13-1,1.31,1.31,0,0,1,.39-.6,1,1,0,0,1,.65-.21,1.07,1.07,0,0,1,.51.12.92.92,0,0,1,.35.33,1.84,1.84,0,0,1,.23.53,3.76,3.76,0,0,1,.08.85,3.52,3.52,0,0,1-.13,1,1.33,1.33,0,0,1-.39.59,1,1,0,0,1-.65.22,1,1,0,0,1-.81-.38A2.3,2.3,0,0,1,15,23.94Zm.45,0a2.18,2.18,0,0,0,.21,1.17.59.59,0,0,0,1,0,2.18,2.18,0,0,0,.21-1.17,2.25,2.25,0,0,0-.21-1.18.62.62,0,0,0-.51-.29.57.57,0,0,0-.49.26A2.28,2.28,0,0,0,15.46,23.94Z" transform="translate(1.43 -22.11)"/></g><g id="English"><path class="cls-6" d="M3.22,98.16H-.88v1.53h-.55V96h.55v1.54h4.1Z" transform="translate(1.43 -22.11)"/><path class="cls-6" d="M1.54,95.66a1.73,1.73,0,0,1-1.39-.52,1.69,1.69,0,0,1,.08-2.2,1.77,1.77,0,0,1,1.26-.44,2.2,2.2,0,0,1,1,.2,1.36,1.36,0,0,1,.58.56,1.64,1.64,0,0,1,.21.82,1.51,1.51,0,0,1-.45,1.14A1.84,1.84,0,0,1,1.54,95.66Zm0-.59a1.44,1.44,0,0,0,1-.28.93.93,0,0,0,.32-.71.91.91,0,0,0-.32-.71,1.48,1.48,0,0,0-1-.28,1.4,1.4,0,0,0-.95.28.95.95,0,0,0,0,1.42A1.42,1.42,0,0,0,1.54,95.07Z" transform="translate(1.43 -22.11)"/><path class="cls-6" d="M3.22,91.84H-.15v-.52H.36A1.41,1.41,0,0,1-.11,91a.6.6,0,0,1-.11-.37A1.12,1.12,0,0,1,0,90l.53.19a.84.84,0,0,0-.12.42A.51.51,0,0,0,.48,91a.62.62,0,0,0,.31.21,2.41,2.41,0,0,0,.67.1H3.22Z" transform="translate(1.43 -22.11)"/><path class="cls-6" d="M4.52,87.52H2.87a1.15,1.15,0,0,1,.31.37,1.13,1.13,0,0,1,.12.51,1.34,1.34,0,0,1-.48,1,1.89,1.89,0,0,1-1.31.44,2.17,2.17,0,0,1-.91-.18A1.37,1.37,0,0,1,0,89.18a1.44,1.44,0,0,1-.2-.74,1.13,1.13,0,0,1,.52-1H-.15V87H4.52Zm-3,1.76a1.48,1.48,0,0,0,1-.27.84.84,0,0,0,.33-.66.8.8,0,0,0-.31-.63,1.46,1.46,0,0,0-.94-.26,1.52,1.52,0,0,0-1,.28.8.8,0,0,0-.34.65A.78.78,0,0,0,.54,89,1.56,1.56,0,0,0,1.53,89.28Z" transform="translate(1.43 -22.11)"/><path class="cls-6" d="M3.22,83.84H2.73a1.23,1.23,0,0,1,.57,1.07,1.47,1.47,0,0,1-.11.56,1,1,0,0,1-.29.38,1,1,0,0,1-.43.18,3.33,3.33,0,0,1-.53,0H-.15v-.57H1.72a4,4,0,0,0,.61,0,.6.6,0,0,0,.35-.23.75.75,0,0,0,.13-.43,1,1,0,0,0-.13-.48A.74.74,0,0,0,2.32,84a1.63,1.63,0,0,0-.66-.1H-.15v-.57H3.22Z" transform="translate(1.43 -22.11)"/><path class="cls-6" d="M2.14,80.13l.07-.59a1.36,1.36,0,0,1,.8.52,1.54,1.54,0,0,1,.29,1,1.51,1.51,0,0,1-.46,1.17,1.77,1.77,0,0,1-1.27.44,1.86,1.86,0,0,1-1.32-.44,1.46,1.46,0,0,1-.47-1.14A1.41,1.41,0,0,1,.24,80a1.8,1.8,0,0,1,1.29-.43h.15V82a1.27,1.27,0,0,0,.85-.32.92.92,0,0,0,.3-.7,1,1,0,0,0-.16-.54A1.12,1.12,0,0,0,2.14,80.13ZM1.21,82V80.12a1.14,1.14,0,0,0-.63.22.88.88,0,0,0-.33.71.89.89,0,0,0,.26.66A1,1,0,0,0,1.21,82Z" transform="translate(1.43 -22.11)"/><path class="cls-6" d="M4.52,77H-1.43V75.74H-1v.69H4v-.69h.48Z" transform="translate(1.43 -22.11)"/><path class="cls-6" d="M3.22,75.14H-1.43v-.63l3.65-2.44H-1.43v-.59H3.22v.63L-.43,74.55H3.22Z" transform="translate(1.43 -22.11)"/><path class="cls-6" d="M.94,70.6a.74.74,0,0,1-.56-.24.76.76,0,0,1-.24-.56.75.75,0,0,1,.24-.57A.74.74,0,0,1,.94,69a.75.75,0,0,1,.57.24.75.75,0,0,1,.24.57.76.76,0,0,1-.24.56A.75.75,0,0,1,.94,70.6Z" transform="translate(1.43 -22.11)"/><path class="cls-6" d="M3.22,68.24H-.15v-.51H.33a1.24,1.24,0,0,1-.4-.42,1.21,1.21,0,0,1-.15-.6,1.16,1.16,0,0,1,.15-.62.81.81,0,0,1,.44-.33,1.21,1.21,0,0,1-.59-1.05,1,1,0,0,1,.27-.77,1.2,1.2,0,0,1,.86-.27H3.22v.57H1.1a1.42,1.42,0,0,0-.49.06.48.48,0,0,0-.25.2.64.64,0,0,0-.09.34.79.79,0,0,0,.24.59,1,1,0,0,0,.76.24h2v.57H1a.92.92,0,0,0-.57.14.53.53,0,0,0-.19.45.81.81,0,0,0,.13.45.69.69,0,0,0,.37.3,2.12,2.12,0,0,0,.7.09H3.22Z" transform="translate(1.43 -22.11)"/><path class="cls-6" d="M4.52,61.87v1.26H4v-.69H-1v.69h-.47V61.87Z" transform="translate(1.43 -22.11)"/><rect class="cls-7" x="24.82" y="53.93" width="48.83" height="16.58"/><path class="cls-6" d="M25.29,80.91l.58,0a1.2,1.2,0,0,0,.19.57,1,1,0,0,0,.47.36,1.8,1.8,0,0,0,.71.14,1.67,1.67,0,0,0,.62-.11.82.82,0,0,0,.4-.28.67.67,0,0,0,.14-.4.6.6,0,0,0-.13-.38,1.06,1.06,0,0,0-.42-.28,8,8,0,0,0-.83-.22,4.82,4.82,0,0,1-.9-.3,1.22,1.22,0,0,1-.49-.43,1,1,0,0,1-.17-.58,1.19,1.19,0,0,1,.79-1.12,2.11,2.11,0,0,1,.85-.16,2.31,2.31,0,0,1,.91.17,1.25,1.25,0,0,1,.61.49,1.4,1.4,0,0,1,.23.73l-.59,0a1,1,0,0,0-.32-.66,1.62,1.62,0,0,0-1.63,0,.6.6,0,0,0-.25.49.51.51,0,0,0,.18.41,2.39,2.39,0,0,0,.93.33,7.58,7.58,0,0,1,1,.3,1.48,1.48,0,0,1,.6.48,1.22,1.22,0,0,1,.19.66,1.27,1.27,0,0,1-.21.7,1.4,1.4,0,0,1-.61.51,2.19,2.19,0,0,1-.9.18,2.76,2.76,0,0,1-1.06-.18,1.54,1.54,0,0,1-.67-.56A1.48,1.48,0,0,1,25.29,80.91Z" transform="translate(1.43 -22.11)"/><path class="cls-6" d="M29.76,82.4V77.75h.57v1.67a1.27,1.27,0,0,1,1-.46,1.33,1.33,0,0,1,.65.14.86.86,0,0,1,.39.41,1.88,1.88,0,0,1,.12.76V82.4h-.57V80.27a.91.91,0,0,0-.18-.63.7.7,0,0,0-.53-.19.91.91,0,0,0-.48.13.79.79,0,0,0-.32.36,1.69,1.69,0,0,0-.09.62V82.4Z" transform="translate(1.43 -22.11)"/><path class="cls-6" d="M33.16,80.72a1.73,1.73,0,0,1,.52-1.39,1.69,1.69,0,0,1,2.2.08,1.74,1.74,0,0,1,.44,1.26,2.22,2.22,0,0,1-.2,1,1.39,1.39,0,0,1-.57.58,1.6,1.6,0,0,1-.81.21A1.48,1.48,0,0,1,33.6,82,1.79,1.79,0,0,1,33.16,80.72Zm.59,0a1.44,1.44,0,0,0,.28,1,.94.94,0,0,0,1.42,0,1.43,1.43,0,0,0,.28-1,1.38,1.38,0,0,0-.28-1,.93.93,0,0,0-.71-.32.88.88,0,0,0-.71.32A1.41,1.41,0,0,0,33.75,80.72Z" transform="translate(1.43 -22.11)"/><path class="cls-6" d="M37,82.4V79h.52v.51a1.41,1.41,0,0,1,.36-.47.6.6,0,0,1,.37-.11,1.12,1.12,0,0,1,.58.18l-.19.53a.84.84,0,0,0-.42-.12.51.51,0,0,0-.34.11.58.58,0,0,0-.21.31,2,2,0,0,0-.1.67V82.4Z" transform="translate(1.43 -22.11)"/><path class="cls-6" d="M40.4,81.89l.08.51a2.37,2.37,0,0,1-.43,0,1,1,0,0,1-.48-.1.5.5,0,0,1-.24-.26,2,2,0,0,1-.07-.68V79.48h-.42V79h.42V78.2l.56-.35V79h.58v.45h-.58v2a.7.7,0,0,0,0,.31.24.24,0,0,0,.09.11.37.37,0,0,0,.2,0A1.24,1.24,0,0,0,40.4,81.89Z" transform="translate(1.43 -22.11)"/><path class="cls-6" d="M40.74,81v-.58h1.75V81Z" transform="translate(1.43 -22.11)"/><path class="cls-6" d="M45.31,82.4V82a1.05,1.05,0,0,1-.94.5,1.37,1.37,0,0,1-.74-.22,1.53,1.53,0,0,1-.53-.62,2.25,2.25,0,0,1-.18-.92,2.47,2.47,0,0,1,.16-.92,1.46,1.46,0,0,1,.51-.63,1.37,1.37,0,0,1,.75-.21,1.09,1.09,0,0,1,.93.46V77.75h.57V82.4ZM43.5,80.72a1.44,1.44,0,0,0,.28,1,.82.82,0,0,0,.64.32.81.81,0,0,0,.64-.31,1.41,1.41,0,0,0,.26-.93,1.59,1.59,0,0,0-.27-1,.83.83,0,0,0-.66-.32.78.78,0,0,0-.63.31A1.53,1.53,0,0,0,43.5,80.72Z" transform="translate(1.43 -22.11)"/><path class="cls-6" d="M49,82.4v-.49a1.25,1.25,0,0,1-1.07.57,1.31,1.31,0,0,1-.56-.12.88.88,0,0,1-.38-.28,1,1,0,0,1-.18-.43,3.07,3.07,0,0,1,0-.53V79h.58V80.9a3.77,3.77,0,0,0,0,.6.63.63,0,0,0,.23.36A.75.75,0,0,0,48,82a.92.92,0,0,0,.48-.14.68.68,0,0,0,.32-.35,1.91,1.91,0,0,0,.1-.66V79h.57V82.4Z" transform="translate(1.43 -22.11)"/><path class="cls-6" d="M50.35,82.4V79h.51v.51a1.41,1.41,0,0,1,.36-.47.62.62,0,0,1,.37-.11,1.15,1.15,0,0,1,.59.18l-.2.53a.84.84,0,0,0-.42-.12.51.51,0,0,0-.33.11A.59.59,0,0,0,51,80a2.36,2.36,0,0,0-.09.67V82.4Z" transform="translate(1.43 -22.11)"/><path class="cls-6" d="M54.72,82a2.32,2.32,0,0,1-.61.38,1.9,1.9,0,0,1-.63.11,1.25,1.25,0,0,1-.86-.27.91.91,0,0,1-.3-.7.89.89,0,0,1,.12-.45.92.92,0,0,1,.29-.33,1.72,1.72,0,0,1,.41-.19l.51-.08a5.33,5.33,0,0,0,1-.2v-.15a.63.63,0,0,0-.16-.49,1,1,0,0,0-.65-.19,1,1,0,0,0-.6.14.88.88,0,0,0-.28.5L52.42,80a1.48,1.48,0,0,1,.25-.58,1.2,1.2,0,0,1,.51-.34,2.21,2.21,0,0,1,.76-.11,2,2,0,0,1,.7.1.86.86,0,0,1,.4.25.88.88,0,0,1,.18.39,3.08,3.08,0,0,1,0,.53V81a9.89,9.89,0,0,0,0,1,1.49,1.49,0,0,0,.15.4h-.6A1.08,1.08,0,0,1,54.72,82Zm0-1.28a4.56,4.56,0,0,1-.93.22,2.12,2.12,0,0,0-.5.11.43.43,0,0,0-.23.19.5.5,0,0,0-.08.27.48.48,0,0,0,.18.38.73.73,0,0,0,.5.15,1.25,1.25,0,0,0,.59-.14.92.92,0,0,0,.38-.4,1.41,1.41,0,0,0,.09-.57Z" transform="translate(1.43 -22.11)"/><path class="cls-6" d="M57.38,81.89l.08.51a2.37,2.37,0,0,1-.43,0,1,1,0,0,1-.48-.1.5.5,0,0,1-.24-.26,2,2,0,0,1-.07-.68V79.48h-.42V79h.42V78.2l.56-.35V79h.58v.45H56.8v2a.7.7,0,0,0,0,.31.24.24,0,0,0,.09.11.37.37,0,0,0,.2,0A1.24,1.24,0,0,0,57.38,81.89Z" transform="translate(1.43 -22.11)"/><path class="cls-6" d="M57.94,78.41v-.66h.57v.66Zm0,4V79h.57V82.4Z" transform="translate(1.43 -22.11)"/><path class="cls-6" d="M59.17,80.72a1.73,1.73,0,0,1,.52-1.39,1.69,1.69,0,0,1,2.2.08,1.74,1.74,0,0,1,.44,1.26,2.22,2.22,0,0,1-.2,1,1.39,1.39,0,0,1-.57.58,1.6,1.6,0,0,1-.81.21A1.48,1.48,0,0,1,59.61,82,1.75,1.75,0,0,1,59.17,80.72Zm.59,0a1.44,1.44,0,0,0,.28,1,.94.94,0,0,0,1.42,0,1.43,1.43,0,0,0,.28-1,1.38,1.38,0,0,0-.28-1,.93.93,0,0,0-.71-.32.88.88,0,0,0-.71.32A1.41,1.41,0,0,0,59.76,80.72Z" transform="translate(1.43 -22.11)"/><path class="cls-6" d="M63,82.4V79h.51v.48A1.21,1.21,0,0,1,64.58,79a1.43,1.43,0,0,1,.56.1,1,1,0,0,1,.39.29,1.13,1.13,0,0,1,.17.42,2.44,2.44,0,0,1,0,.56V82.4h-.58V80.35a1.67,1.67,0,0,0-.06-.52.55.55,0,0,0-.24-.28.72.72,0,0,0-.4-.1,1,1,0,0,0-.63.23,1.18,1.18,0,0,0-.26.88V82.4Z" transform="translate(1.43 -22.11)"/><path class="cls-6" d="M25.42,90.2V86.83h.51v.51a1.41,1.41,0,0,1,.36-.47.62.62,0,0,1,.37-.11,1.15,1.15,0,0,1,.59.18l-.2.53a.84.84,0,0,0-.42-.12.49.49,0,0,0-.33.11.59.59,0,0,0-.22.31,2.36,2.36,0,0,0-.09.67V90.2Z" transform="translate(1.43 -22.11)"/><path class="cls-6" d="M29.8,90.2v-.49a1.25,1.25,0,0,1-1.07.57,1.31,1.31,0,0,1-.56-.12.88.88,0,0,1-.38-.28,1,1,0,0,1-.18-.43,3.07,3.07,0,0,1,0-.53V86.83h.57V88.7a3.41,3.41,0,0,0,0,.6.63.63,0,0,0,.23.36.73.73,0,0,0,.43.13.92.92,0,0,0,.48-.14.68.68,0,0,0,.32-.35,1.91,1.91,0,0,0,.1-.66V86.83h.57V90.2Z" transform="translate(1.43 -22.11)"/><path class="cls-6" d="M31.2,90.2V86.83h.52v.48a1.19,1.19,0,0,1,1.07-.55,1.47,1.47,0,0,1,.56.1.89.89,0,0,1,.38.29,1,1,0,0,1,.18.42,3.51,3.51,0,0,1,0,.56V90.2h-.57v-2a1.38,1.38,0,0,0-.07-.52.53.53,0,0,0-.23-.28.77.77,0,0,0-.4-.1.94.94,0,0,0-.63.23,1.14,1.14,0,0,0-.27.88V90.2Z" transform="translate(1.43 -22.11)"/><path class="cls-6" d="M34.82,90.2V86.83h.51v.48a1.21,1.21,0,0,1,1.07-.55,1.43,1.43,0,0,1,.56.1,1,1,0,0,1,.39.29,1.13,1.13,0,0,1,.17.42,3.21,3.21,0,0,1,0,.56V90.2H37v-2a1.67,1.67,0,0,0-.06-.52.6.6,0,0,0-.24-.28.72.72,0,0,0-.4-.1,1,1,0,0,0-.63.23,1.18,1.18,0,0,0-.26.88V90.2Z" transform="translate(1.43 -22.11)"/><path class="cls-6" d="M38.43,86.21v-.66H39v.66Zm0,4V86.83H39V90.2Z" transform="translate(1.43 -22.11)"/><path class="cls-6" d="M39.88,90.2V86.83h.51v.48a1.21,1.21,0,0,1,1.07-.55,1.43,1.43,0,0,1,.56.1,1,1,0,0,1,.39.29,1.13,1.13,0,0,1,.17.42,3.21,3.21,0,0,1,0,.56V90.2H42v-2a1.67,1.67,0,0,0-.06-.52.6.6,0,0,0-.24-.28.74.74,0,0,0-.4-.1,1,1,0,0,0-.63.23,1.18,1.18,0,0,0-.26.88V90.2Z" transform="translate(1.43 -22.11)"/><path class="cls-6" d="M43.39,90.48l.55.08a.53.53,0,0,0,.19.38,1,1,0,0,0,.59.16,1.08,1.08,0,0,0,.61-.16.82.82,0,0,0,.29-.45,3.76,3.76,0,0,0,0-.73,1.18,1.18,0,0,1-.93.44,1.3,1.3,0,0,1-1.08-.5,1.93,1.93,0,0,1-.38-1.2,2.18,2.18,0,0,1,.18-.89A1.32,1.32,0,0,1,44,87a1.35,1.35,0,0,1,.78-.22,1.22,1.22,0,0,1,1,.48v-.41h.52v2.92a2.7,2.7,0,0,1-.16,1.11,1.11,1.11,0,0,1-.51.52,1.7,1.7,0,0,1-.85.19,1.65,1.65,0,0,1-1-.27A.94.94,0,0,1,43.39,90.48Zm.47-2a1.47,1.47,0,0,0,.26,1,.83.83,0,0,0,.66.31.85.85,0,0,0,.66-.3,1.42,1.42,0,0,0,.27-1,1.35,1.35,0,0,0-.28-.94.83.83,0,0,0-.66-.31.79.79,0,0,0-.64.31A1.35,1.35,0,0,0,43.86,88.46Z" transform="translate(1.43 -22.11)"/><path class="cls-6" d="M48.91,90.2V86.83h.51v.51a1.41,1.41,0,0,1,.36-.47.62.62,0,0,1,.37-.11,1.15,1.15,0,0,1,.59.18l-.2.53a.84.84,0,0,0-.42-.12.53.53,0,0,0-.34.11.64.64,0,0,0-.21.31,2.36,2.36,0,0,0-.09.67V90.2Z" transform="translate(1.43 -22.11)"/><path class="cls-6" d="M53.28,89.79a2.36,2.36,0,0,1-.62.38,1.8,1.8,0,0,1-.62.11,1.23,1.23,0,0,1-.86-.27.91.91,0,0,1-.3-.7.89.89,0,0,1,.12-.45.92.92,0,0,1,.29-.33,1.72,1.72,0,0,1,.41-.19l.51-.08a5.33,5.33,0,0,0,1-.2v-.15a.63.63,0,0,0-.16-.49,1,1,0,0,0-.65-.19,1,1,0,0,0-.6.14.88.88,0,0,0-.28.5L51,87.79a1.48,1.48,0,0,1,.25-.58,1.2,1.2,0,0,1,.51-.34,2.21,2.21,0,0,1,.76-.11,2,2,0,0,1,.7.1.86.86,0,0,1,.4.25,1,1,0,0,1,.18.39,3.08,3.08,0,0,1,0,.53v.76a9.89,9.89,0,0,0,0,1,1.49,1.49,0,0,0,.15.4h-.6A1.08,1.08,0,0,1,53.28,89.79Zm-.05-1.28a4.56,4.56,0,0,1-.93.22,2,2,0,0,0-.5.11.43.43,0,0,0-.23.19.5.5,0,0,0,.09.65.78.78,0,0,0,.51.15,1.25,1.25,0,0,0,.59-.14.92.92,0,0,0,.38-.4,1.41,1.41,0,0,0,.09-.57Z" transform="translate(1.43 -22.11)"/><path class="cls-6" d="M54.69,90.2V86.83h.52v.48a1.19,1.19,0,0,1,1.07-.55,1.47,1.47,0,0,1,.56.1.89.89,0,0,1,.38.29,1.33,1.33,0,0,1,.18.42,3.51,3.51,0,0,1,0,.56V90.2h-.57v-2a1.38,1.38,0,0,0-.07-.52.53.53,0,0,0-.23-.28.77.77,0,0,0-.4-.1.92.92,0,0,0-.63.23,1.14,1.14,0,0,0-.27.88V90.2Z" transform="translate(1.43 -22.11)"/><path class="cls-6" d="M58.2,90.48l.56.08a.5.5,0,0,0,.19.38,1,1,0,0,0,.58.16,1,1,0,0,0,.61-.16.84.84,0,0,0,.3-.45,3.76,3.76,0,0,0,0-.73,1.19,1.19,0,0,1-.94.44,1.27,1.27,0,0,1-1.07-.5,1.87,1.87,0,0,1-.38-1.2,2.35,2.35,0,0,1,.17-.89,1.4,1.4,0,0,1,.51-.63,1.35,1.35,0,0,1,.78-.22,1.2,1.2,0,0,1,1,.48v-.41h.53v2.92a2.88,2.88,0,0,1-.16,1.11,1.22,1.22,0,0,1-.51.52,1.74,1.74,0,0,1-.86.19,1.61,1.61,0,0,1-1-.27A.92.92,0,0,1,58.2,90.48Zm.47-2a1.41,1.41,0,0,0,.27,1,.81.81,0,0,0,.66.31.85.85,0,0,0,.66-.3,1.82,1.82,0,0,0,0-1.89.83.83,0,0,0-.66-.31.81.81,0,0,0-.65.31A1.35,1.35,0,0,0,58.67,88.46Z" transform="translate(1.43 -22.11)"/><path class="cls-6" d="M64.23,89.12l.59.07a1.44,1.44,0,0,1-.52.8,1.74,1.74,0,0,1-2.14-.17,1.81,1.81,0,0,1-.43-1.27,1.86,1.86,0,0,1,.44-1.32,1.59,1.59,0,0,1,2.24,0,1.87,1.87,0,0,1,.43,1.3,1,1,0,0,1,0,.15H62.32a1.27,1.27,0,0,0,.32.85.91.91,0,0,0,.7.3.89.89,0,0,0,.54-.17A1.16,1.16,0,0,0,64.23,89.12Zm-1.88-.93h1.89a1.14,1.14,0,0,0-.22-.63.85.85,0,0,0-.71-.33.89.89,0,0,0-.66.26A1,1,0,0,0,62.35,88.19Z" transform="translate(1.43 -22.11)"/><rect class="cls-7" x="25.67" y="96.34" width="41.46" height="16.58"/><path class="cls-6" d="M28.91,123.18l.62.16a2,2,0,0,1-.7,1.15,1.88,1.88,0,0,1-1.23.4,2.14,2.14,0,0,1-1.22-.31,1.92,1.92,0,0,1-.72-.88,3.27,3.27,0,0,1-.24-1.25,2.7,2.7,0,0,1,.28-1.27,1.88,1.88,0,0,1,.78-.82,2.31,2.31,0,0,1,1.13-.28,1.9,1.9,0,0,1,1.18.36,1.78,1.78,0,0,1,.66,1l-.61.14a1.39,1.39,0,0,0-.46-.74,1.24,1.24,0,0,0-.78-.23,1.52,1.52,0,0,0-.9.25,1.39,1.39,0,0,0-.5.69,2.74,2.74,0,0,0-.15.9,2.92,2.92,0,0,0,.17,1,1.35,1.35,0,0,0,.54.67,1.6,1.6,0,0,0,.79.22,1.38,1.38,0,0,0,.88-.3A1.51,1.51,0,0,0,28.91,123.18Z" transform="translate(1.43 -22.11)"/><path class="cls-6" d="M30,123.13a1.76,1.76,0,0,1,.52-1.39,1.58,1.58,0,0,1,1.06-.37,1.51,1.51,0,0,1,1.14.45,1.74,1.74,0,0,1,.44,1.26,2.24,2.24,0,0,1-.19,1,1.39,1.39,0,0,1-.57.58,1.64,1.64,0,0,1-.82.21,1.48,1.48,0,0,1-1.14-.46A1.79,1.79,0,0,1,30,123.13Zm.59,0a1.44,1.44,0,0,0,.28,1,.93.93,0,0,0,.71.32.89.89,0,0,0,.71-.33,1.43,1.43,0,0,0,.28-1,1.4,1.4,0,0,0-.28-1,.91.91,0,0,0-.71-.32.93.93,0,0,0-.71.32A1.42,1.42,0,0,0,30.59,123.13Z" transform="translate(1.43 -22.11)"/><path class="cls-6" d="M33.83,124.81v-3.37h.52v.48a1.19,1.19,0,0,1,1.07-.55,1.47,1.47,0,0,1,.56.1.89.89,0,0,1,.38.29,1.33,1.33,0,0,1,.18.42,3.51,3.51,0,0,1,0,.56v2.07H36v-2a1.41,1.41,0,0,0-.07-.52.53.53,0,0,0-.23-.28.77.77,0,0,0-.4-.1.92.92,0,0,0-.63.23,1.14,1.14,0,0,0-.27.88v1.84Z" transform="translate(1.43 -22.11)"/><path class="cls-6" d="M38.69,124.3l.09.51a2.47,2.47,0,0,1-.44,0,1.07,1.07,0,0,1-.48-.1.6.6,0,0,1-.24-.26,1.94,1.94,0,0,1-.07-.67v-1.94h-.42v-.45h.42v-.83l.57-.35v1.18h.57v.45h-.57v2a1,1,0,0,0,0,.31.21.21,0,0,0,.1.11.34.34,0,0,0,.19,0A1.19,1.19,0,0,0,38.69,124.3Z" transform="translate(1.43 -22.11)"/><path class="cls-6" d="M39.26,120.82v-.66h.57v.66Zm0,4v-3.37h.57v3.37Z" transform="translate(1.43 -22.11)"/><path class="cls-6" d="M40.7,124.81v-3.37h.51v.48a1.21,1.21,0,0,1,1.07-.55,1.43,1.43,0,0,1,.56.1,1,1,0,0,1,.39.29,1.13,1.13,0,0,1,.17.42,3.51,3.51,0,0,1,0,.56v2.07h-.57v-2a1.72,1.72,0,0,0-.06-.52.6.6,0,0,0-.24-.28.74.74,0,0,0-.4-.1,1,1,0,0,0-.63.23,1.18,1.18,0,0,0-.26.88v1.84Z" transform="translate(1.43 -22.11)"/><path class="cls-6" d="M46.52,124.81v-.49a1.23,1.23,0,0,1-1.07.57,1.34,1.34,0,0,1-.56-.12.88.88,0,0,1-.38-.28,1.3,1.3,0,0,1-.18-.43,3.33,3.33,0,0,1,0-.53v-2.09h.57v1.87a3.77,3.77,0,0,0,0,.6.68.68,0,0,0,.23.36.75.75,0,0,0,.43.13.93.93,0,0,0,.49-.14.73.73,0,0,0,.32-.35,1.94,1.94,0,0,0,.09-.66v-1.81H47v3.37Z" transform="translate(1.43 -22.11)"/><path class="cls-6" d="M47.71,123.13a1.76,1.76,0,0,1,.52-1.39,1.58,1.58,0,0,1,1.06-.37,1.51,1.51,0,0,1,1.14.45,1.74,1.74,0,0,1,.44,1.26,2.24,2.24,0,0,1-.19,1,1.39,1.39,0,0,1-.57.58,1.64,1.64,0,0,1-.82.21,1.48,1.48,0,0,1-1.14-.46A1.79,1.79,0,0,1,47.71,123.13Zm.59,0a1.44,1.44,0,0,0,.28,1,.93.93,0,0,0,.71.32.89.89,0,0,0,.71-.33,1.43,1.43,0,0,0,.28-1,1.4,1.4,0,0,0-.28-1,.91.91,0,0,0-.71-.32.93.93,0,0,0-.71.32A1.42,1.42,0,0,0,48.3,123.13Z" transform="translate(1.43 -22.11)"/><path class="cls-6" d="M53.75,124.81v-.49a1.23,1.23,0,0,1-1.07.57,1.34,1.34,0,0,1-.56-.12.88.88,0,0,1-.38-.28,1.3,1.3,0,0,1-.18-.43,3.33,3.33,0,0,1,0-.53v-2.09h.57v1.87a3.77,3.77,0,0,0,0,.6.68.68,0,0,0,.23.36.75.75,0,0,0,.43.13.93.93,0,0,0,.49-.14.73.73,0,0,0,.32-.35,1.94,1.94,0,0,0,.09-.66v-1.81h.57v3.37Z" transform="translate(1.43 -22.11)"/><path class="cls-6" d="M54.93,123.81l.56-.09a.78.78,0,0,0,.27.52.91.91,0,0,0,.61.18.87.87,0,0,0,.58-.16.47.47,0,0,0,.19-.38.34.34,0,0,0-.17-.3,2.49,2.49,0,0,0-.58-.2,4.57,4.57,0,0,1-.87-.27.78.78,0,0,1-.37-.32.81.81,0,0,1-.13-.45.88.88,0,0,1,.11-.42.86.86,0,0,1,.28-.32,1.52,1.52,0,0,1,.36-.17,1.93,1.93,0,0,1,.49-.06,1.87,1.87,0,0,1,.7.11.94.94,0,0,1,.44.31,1.18,1.18,0,0,1,.2.52l-.56.08a.6.6,0,0,0-.22-.41.79.79,0,0,0-.52-.15.92.92,0,0,0-.56.14.36.36,0,0,0-.17.3.37.37,0,0,0,.07.2.53.53,0,0,0,.22.15l.51.15a7.54,7.54,0,0,1,.84.26.88.88,0,0,1,.38.3.86.86,0,0,1,.14.49,1,1,0,0,1-.17.54,1,1,0,0,1-.48.39,1.8,1.8,0,0,1-.71.14,1.59,1.59,0,0,1-1-.27A1.29,1.29,0,0,1,54.93,123.81Z" transform="translate(1.43 -22.11)"/><path class="cls-6" d="M25.52,132.61v-3.37H26v.51a1.41,1.41,0,0,1,.36-.47.62.62,0,0,1,.37-.11,1.15,1.15,0,0,1,.59.18l-.2.53a.84.84,0,0,0-.42-.12.53.53,0,0,0-.34.11.64.64,0,0,0-.21.31,2.36,2.36,0,0,0-.09.67v1.76Z" transform="translate(1.43 -22.11)"/><path class="cls-6" d="M29.9,132.61v-.49a1.25,1.25,0,0,1-1.07.57,1.31,1.31,0,0,1-.56-.12.88.88,0,0,1-.38-.28,1,1,0,0,1-.18-.43,3.07,3.07,0,0,1,0-.53v-2.09h.58v1.87a3.77,3.77,0,0,0,0,.6.63.63,0,0,0,.23.36.73.73,0,0,0,.43.13.92.92,0,0,0,.48-.14.68.68,0,0,0,.32-.35,1.91,1.91,0,0,0,.1-.66v-1.81h.57v3.37Z" transform="translate(1.43 -22.11)"/><path class="cls-6" d="M31.3,132.61v-3.37h.52v.48a1.19,1.19,0,0,1,1.07-.55,1.47,1.47,0,0,1,.56.1.89.89,0,0,1,.38.29A1,1,0,0,1,34,130a3.51,3.51,0,0,1,0,.56v2.07h-.57v-2.05a1.41,1.41,0,0,0-.07-.52.53.53,0,0,0-.23-.28.77.77,0,0,0-.4-.1.92.92,0,0,0-.63.23,1.14,1.14,0,0,0-.27.88v1.84Z" transform="translate(1.43 -22.11)"/><path class="cls-6" d="M34.92,132.61v-3.37h.51v.48a1.21,1.21,0,0,1,1.07-.55,1.43,1.43,0,0,1,.56.1,1,1,0,0,1,.39.29,1.13,1.13,0,0,1,.17.42,3.21,3.21,0,0,1,0,.56v2.07h-.58v-2.05A1.72,1.72,0,0,0,37,130a.6.6,0,0,0-.24-.28.72.72,0,0,0-.4-.1,1,1,0,0,0-.63.23,1.18,1.18,0,0,0-.26.88v1.84Z" transform="translate(1.43 -22.11)"/><path class="cls-6" d="M38.53,128.62V128h.58v.66Zm0,4v-3.37h.58v3.37Z" transform="translate(1.43 -22.11)"/><path class="cls-6" d="M40,132.61v-3.37h.51v.48a1.2,1.2,0,0,1,1.07-.55,1.43,1.43,0,0,1,.56.1,1,1,0,0,1,.39.29,1.13,1.13,0,0,1,.17.42,3.51,3.51,0,0,1,0,.56v2.07h-.57v-2.05a1.72,1.72,0,0,0-.06-.52.6.6,0,0,0-.24-.28.74.74,0,0,0-.4-.1,1,1,0,0,0-.63.23,1.18,1.18,0,0,0-.26.88v1.84Z" transform="translate(1.43 -22.11)"/><path class="cls-6" d="M43.49,132.89,44,133a.53.53,0,0,0,.19.38,1,1,0,0,0,.59.16,1.08,1.08,0,0,0,.61-.16.82.82,0,0,0,.29-.45,3.76,3.76,0,0,0,0-.73,1.18,1.18,0,0,1-.93.44,1.26,1.26,0,0,1-1.08-.5,1.93,1.93,0,0,1-.38-1.2,2.18,2.18,0,0,1,.18-.89,1.37,1.37,0,0,1,.5-.63,1.35,1.35,0,0,1,.78-.22,1.22,1.22,0,0,1,1,.48v-.41h.52v2.91a2.72,2.72,0,0,1-.16,1.12,1.16,1.16,0,0,1-.51.52,1.7,1.7,0,0,1-.85.19,1.65,1.65,0,0,1-1-.27A.92.92,0,0,1,43.49,132.89Zm.47-2a1.52,1.52,0,0,0,.26,1,.88.88,0,0,0,1.32,0,1.42,1.42,0,0,0,.27-1,1.35,1.35,0,0,0-.28-.94.83.83,0,0,0-.66-.31.79.79,0,0,0-.64.31A1.35,1.35,0,0,0,44,130.87Z" transform="translate(1.43 -22.11)"/><path class="cls-6" d="M49,132.61v-3.37h.51v.51a1.41,1.41,0,0,1,.36-.47.62.62,0,0,1,.37-.11,1.15,1.15,0,0,1,.59.18l-.2.53a.84.84,0,0,0-.42-.12.53.53,0,0,0-.34.11.58.58,0,0,0-.21.31,2.36,2.36,0,0,0-.09.67v1.76Z" transform="translate(1.43 -22.11)"/><path class="cls-6" d="M53.38,132.2a2.36,2.36,0,0,1-.62.38,1.81,1.81,0,0,1-.63.11,1.22,1.22,0,0,1-.85-.27.94.94,0,0,1-.18-1.15.92.92,0,0,1,.29-.33,1.38,1.38,0,0,1,.41-.18,4.17,4.17,0,0,1,.51-.09,5.33,5.33,0,0,0,1-.2v-.15a.63.63,0,0,0-.16-.49,1,1,0,0,0-.65-.19,1.06,1.06,0,0,0-.6.14.88.88,0,0,0-.28.5l-.56-.08a1.48,1.48,0,0,1,.25-.58,1.2,1.2,0,0,1,.51-.34,2.21,2.21,0,0,1,.76-.11,2,2,0,0,1,.7.1,1,1,0,0,1,.4.25,1,1,0,0,1,.18.39,3.08,3.08,0,0,1,0,.53v.76a9.89,9.89,0,0,0,0,1,1.22,1.22,0,0,0,.15.4h-.6A1,1,0,0,1,53.38,132.2Zm-.05-1.28a4.52,4.52,0,0,1-.94.22,2,2,0,0,0-.49.11.48.48,0,0,0-.23.19.5.5,0,0,0,.09.65.78.78,0,0,0,.51.15,1.25,1.25,0,0,0,.59-.14.92.92,0,0,0,.38-.4,1.41,1.41,0,0,0,.09-.57Z" transform="translate(1.43 -22.11)"/><path class="cls-6" d="M54.79,132.61v-3.37h.52v.48a1.19,1.19,0,0,1,1.07-.55,1.47,1.47,0,0,1,.56.1.89.89,0,0,1,.38.29,1.33,1.33,0,0,1,.18.42,3.51,3.51,0,0,1,0,.56v2.07H57v-2.05a1.41,1.41,0,0,0-.07-.52.53.53,0,0,0-.23-.28.77.77,0,0,0-.4-.1.92.92,0,0,0-.63.23,1.14,1.14,0,0,0-.27.88v1.84Z" transform="translate(1.43 -22.11)"/><path class="cls-6" d="M58.3,132.89l.56.08a.5.5,0,0,0,.19.38,1,1,0,0,0,.58.16,1,1,0,0,0,.61-.16.84.84,0,0,0,.3-.45,3.76,3.76,0,0,0,0-.73,1.19,1.19,0,0,1-.94.44,1.24,1.24,0,0,1-1.07-.5,1.87,1.87,0,0,1-.38-1.2,2.35,2.35,0,0,1,.17-.89,1.46,1.46,0,0,1,.51-.63,1.35,1.35,0,0,1,.78-.22,1.22,1.22,0,0,1,1,.48v-.41h.53v2.91a2.9,2.9,0,0,1-.16,1.12,1.22,1.22,0,0,1-.51.52,1.74,1.74,0,0,1-.86.19,1.61,1.61,0,0,1-1-.27A.91.91,0,0,1,58.3,132.89Zm.47-2a1.46,1.46,0,0,0,.27,1,.83.83,0,0,0,.66.3.85.85,0,0,0,.66-.3,1.82,1.82,0,0,0,0-1.89.83.83,0,0,0-.66-.31A.81.81,0,0,0,59,130,1.35,1.35,0,0,0,58.77,130.87Z" transform="translate(1.43 -22.11)"/><path class="cls-6" d="M64.33,131.53l.59.07a1.44,1.44,0,0,1-.52.8,1.74,1.74,0,0,1-2.14-.17,1.76,1.76,0,0,1-.43-1.27,1.9,1.9,0,0,1,.44-1.33,1.48,1.48,0,0,1,1.13-.46,1.43,1.43,0,0,1,1.11.46,1.82,1.82,0,0,1,.43,1.29,1,1,0,0,1,0,.15H62.42a1.27,1.27,0,0,0,.32.85.91.91,0,0,0,.7.3.89.89,0,0,0,.54-.17A1.16,1.16,0,0,0,64.33,131.53Zm-1.88-.93h1.88a1.13,1.13,0,0,0-.21-.64.91.91,0,0,0-.71-.33.9.9,0,0,0-.66.27A1,1,0,0,0,62.45,130.6Z" transform="translate(1.43 -22.11)"/><path class="cls-6" d="M44.76,150.45l.58,0a1.32,1.32,0,0,0,.19.57,1,1,0,0,0,.47.36,1.8,1.8,0,0,0,.71.14,1.73,1.73,0,0,0,.63-.11.87.87,0,0,0,.4-.28.68.68,0,0,0,.13-.4.55.55,0,0,0-.13-.38.93.93,0,0,0-.42-.28c-.12-.05-.4-.12-.83-.23a4.15,4.15,0,0,1-.89-.29,1.19,1.19,0,0,1-.5-.43,1,1,0,0,1-.16-.58,1.16,1.16,0,0,1,.2-.66,1.18,1.18,0,0,1,.58-.46,2.15,2.15,0,0,1,.85-.16,2.22,2.22,0,0,1,.92.17,1.27,1.27,0,0,1,.6.49,1.32,1.32,0,0,1,.23.73l-.59,0a1,1,0,0,0-.32-.66,1.24,1.24,0,0,0-.81-.23,1.27,1.27,0,0,0-.81.21.61.61,0,0,0-.26.49.52.52,0,0,0,.18.41,2.39,2.39,0,0,0,.93.33,7.58,7.58,0,0,1,1,.3,1.41,1.41,0,0,1,.6.48,1.14,1.14,0,0,1,.19.66,1.3,1.3,0,0,1-.21.7,1.4,1.4,0,0,1-.61.51,2.19,2.19,0,0,1-.9.18,2.76,2.76,0,0,1-1.06-.18,1.59,1.59,0,0,1-.67-.56A1.56,1.56,0,0,1,44.76,150.45Z" transform="translate(1.43 -22.11)"/><path class="cls-6" d="M49.23,153.23v-4.66h.52V149a1.29,1.29,0,0,1,.42-.39,1.19,1.19,0,0,1,.56-.13,1.31,1.31,0,0,1,.76.23,1.29,1.29,0,0,1,.5.62,2.35,2.35,0,0,1,.17.89,2.12,2.12,0,0,1-.19.93,1.36,1.36,0,0,1-.54.64,1.42,1.42,0,0,1-.74.22,1.14,1.14,0,0,1-.52-.12,1.25,1.25,0,0,1-.37-.31v1.64Zm.52-3a1.52,1.52,0,0,0,.26,1,.82.82,0,0,0,1.29,0,2,2,0,0,0,0-2,.82.82,0,0,0-.64-.32.84.84,0,0,0-.64.34A1.52,1.52,0,0,0,49.75,150.27Z" transform="translate(1.43 -22.11)"/><path class="cls-6" d="M55.15,150.86l.59.07a1.43,1.43,0,0,1-.51.8,1.6,1.6,0,0,1-1,.29,1.52,1.52,0,0,1-1.17-.46,1.77,1.77,0,0,1-.43-1.28,1.89,1.89,0,0,1,.43-1.32,1.51,1.51,0,0,1,1.14-.47,1.45,1.45,0,0,1,1.1.46,1.82,1.82,0,0,1,.43,1.3v.15H53.25a1.26,1.26,0,0,0,.31.85.92.92,0,0,0,.7.3.89.89,0,0,0,.54-.17A1,1,0,0,0,55.15,150.86Zm-1.87-.93h1.88a1.21,1.21,0,0,0-.22-.64.86.86,0,0,0-.7-.33.9.9,0,0,0-.67.27A1.07,1.07,0,0,0,53.28,149.93Z" transform="translate(1.43 -22.11)"/><path class="cls-6" d="M58.77,150.86l.59.07a1.44,1.44,0,0,1-.52.8,1.74,1.74,0,0,1-2.14-.17,1.77,1.77,0,0,1-.43-1.28,1.9,1.9,0,0,1,.44-1.32,1.49,1.49,0,0,1,1.13-.47A1.47,1.47,0,0,1,59,149a1.87,1.87,0,0,1,.43,1.3,1,1,0,0,1,0,.15H56.86a1.32,1.32,0,0,0,.31.85.94.94,0,0,0,.71.3.89.89,0,0,0,.54-.17A1.16,1.16,0,0,0,58.77,150.86Zm-1.88-.93h1.88a1.13,1.13,0,0,0-.21-.64.88.88,0,0,0-.71-.33.9.9,0,0,0-.66.27A1,1,0,0,0,56.89,149.93Z" transform="translate(1.43 -22.11)"/><path class="cls-6" d="M62.26,151.94v-.42a1.05,1.05,0,0,1-.94.5,1.37,1.37,0,0,1-.74-.22,1.41,1.41,0,0,1-.52-.63,2,2,0,0,1-.19-.91,2.47,2.47,0,0,1,.17-.92,1.37,1.37,0,0,1,.5-.63,1.43,1.43,0,0,1,.75-.22,1.21,1.21,0,0,1,.55.13,1.14,1.14,0,0,1,.38.34v-1.67h.57v4.65Zm-1.8-1.68a1.5,1.5,0,0,0,.27,1,.83.83,0,0,0,.64.32.79.79,0,0,0,.64-.31,1.41,1.41,0,0,0,.26-.93,1.66,1.66,0,0,0-.26-1,.84.84,0,0,0-.66-.32.78.78,0,0,0-.64.31A1.54,1.54,0,0,0,60.46,150.26Z" transform="translate(1.43 -22.11)"/><path class="cls-6" d="M65.51,153.23v-5.94h1.26v.47h-.69v5h.69v.47Z" transform="translate(1.43 -22.11)"/><path class="cls-6" d="M67.3,151.94v-3.37h.51v.51a1.31,1.31,0,0,1,.36-.47.63.63,0,0,1,.37-.12,1.17,1.17,0,0,1,.59.19l-.2.53a.86.86,0,0,0-.42-.13.5.5,0,0,0-.33.12.65.65,0,0,0-.22.31,2.36,2.36,0,0,0-.09.67v1.76Z" transform="translate(1.43 -22.11)"/><path class="cls-6" d="M69,152l1.35-4.81h.45L69.5,152Z" transform="translate(1.43 -22.11)"/><path class="cls-6" d="M71.27,151.94v-3.37h.51V149a1.38,1.38,0,0,1,.43-.4,1.16,1.16,0,0,1,.6-.15,1.13,1.13,0,0,1,.61.16.86.86,0,0,1,.34.43,1.2,1.2,0,0,1,1-.59,1.05,1.05,0,0,1,.77.28,1.2,1.2,0,0,1,.27.86v2.31h-.57v-2.12a1.91,1.91,0,0,0,0-.5.49.49,0,0,0-.21-.24.62.62,0,0,0-.34-.09.81.81,0,0,0-.59.24,1,1,0,0,0-.23.75v2h-.57v-2.19a1,1,0,0,0-.14-.57.54.54,0,0,0-.46-.19.81.81,0,0,0-.45.13.69.69,0,0,0-.29.37,1.85,1.85,0,0,0-.1.7v1.75Z" transform="translate(1.43 -22.11)"/><path class="cls-6" d="M76.69,148v-.66h.57V148Zm0,4v-3.37h.57v3.37Z" transform="translate(1.43 -22.11)"/><path class="cls-6" d="M78.13,151.94v-3.37h.52v.48a1.2,1.2,0,0,1,1.07-.56,1.47,1.47,0,0,1,.56.11.89.89,0,0,1,.38.29,1,1,0,0,1,.18.42,3.51,3.51,0,0,1,0,.56v2.07H80.3v-2.05a1.38,1.38,0,0,0-.07-.52.53.53,0,0,0-.23-.28.77.77,0,0,0-.4-.1.92.92,0,0,0-.63.23,1.14,1.14,0,0,0-.27.88v1.84Z" transform="translate(1.43 -22.11)"/><path class="cls-6" d="M82.7,153.23H81.44v-.47h.69v-5h-.69v-.47H82.7Z" transform="translate(1.43 -22.11)"/></g></svg>