<svg xmlns="http://www.w3.org/2000/svg" viewBox="0 0 115.89 131.43"><defs><style>.cls-1,.cls-2,.繝医Ν繧ｯ繧ｰ繝ｩ繝廟邱喟0\.7緕,.邱喟0\.5pt-2{fill:none;}.cls-1,.繝医Ν繧ｯ繧ｰ繝ｩ繝廟邱喟0\.7緕,.邱喟0\.5pt-2{stroke:#231815;stroke-miterlimit:10;}.cls-1{stroke-width:0.14px;}.繝医Ν繧ｯ繧ｰ繝ｩ繝廟邱喟0\.7緕{stroke-width:1.98px;}.cls-2{stroke:#9fa0a0;stroke-width:3px;}.cls-3{fill:#231815;}.繝後Μ_逋ｽ{fill:#fff;}.邱喟0\.5pt-2{stroke-width:0.5px;}</style></defs><g id="Illust"><line class="cls-1" x1="42.53" y1="2.18" x2="42.53" y2="115.56"/><line class="cls-1" x1="65.21" y1="2.18" x2="65.21" y2="115.56"/><line class="cls-1" x1="87.89" y1="2.18" x2="87.89" y2="115.56"/><line class="cls-1" x1="19.85" y1="73.04" x2="110.56" y2="73.04"/><line class="cls-1" x1="19.85" y1="58.87" x2="110.56" y2="58.87"/><line class="cls-1" x1="19.85" y1="44.7" x2="110.56" y2="44.7"/><line class="cls-1" x1="19.85" y1="30.52" x2="110.56" y2="30.52"/><line class="cls-1" x1="19.85" y1="16.35" x2="110.56" y2="16.35"/><line class="cls-1" x1="19.85" y1="87.22" x2="110.56" y2="87.22"/><line class="cls-1" x1="19.85" y1="101.39" x2="110.56" y2="101.39"/><polyline class="繝医Ν繧ｯ繧ｰ繝ｩ繝廟邱喟0.7緕" points="19.86 79.48 31.2 79.48 42.54 79.48 53.86 79.48 65.2 88.46 76.54 93.9 87.88 97.5 99.22 100.11 110.56 102"/><polyline class="繝医Ν繧ｯ繧ｰ繝ｩ繝廟邱喟0.7緕" points="19.86 7.24 65.2 7.24 111.27 56.77"/><polyline class="cls-2" points="19.86 79.48 31.2 79.48 42.54 79.48 53.86 79.48 65.2 88.46 76.54 93.9 87.88 97.5 99.22 100.11 110.56 102"/><polyline class="cls-2" points="19.86 7.24 65.2 7.24 111.27 56.77"/><path class="cls-3" d="M10.26,123.79l.47,0a.81.81,0,0,0,.23.5.63.63,0,0,0,.45.17.68.68,0,0,0,.54-.24.86.86,0,0,0,.22-.63A.8.8,0,0,0,12,123a.71.71,0,0,0-.55-.22.76.76,0,0,0-.39.1.63.63,0,0,0-.26.25l-.42-.06.35-1.84h1.78v.42H11l-.19,1a1.15,1.15,0,0,1,.67-.23,1.08,1.08,0,0,1,.8.33,1.13,1.13,0,0,1,.32.83,1.3,1.3,0,0,1-.29.84,1.14,1.14,0,0,1-.94.44,1.15,1.15,0,0,1-.79-.28A1,1,0,0,1,10.26,123.79Z" transform="translate(1.43 -21.92)"/><path class="cls-3" d="M13.29,124.72v-.5h.5v.5Z" transform="translate(1.43 -21.92)"/><path class="cls-3" d="M14.43,123a3.52,3.52,0,0,1,.13-1,1.31,1.31,0,0,1,.39-.6,1,1,0,0,1,.65-.21,1.07,1.07,0,0,1,.51.12,1,1,0,0,1,.36.33,2.17,2.17,0,0,1,.22.53,3.76,3.76,0,0,1,.08.85,3.2,3.2,0,0,1-.13,1,1.33,1.33,0,0,1-.39.59,1,1,0,0,1-.65.22,1,1,0,0,1-.81-.38A2.3,2.3,0,0,1,14.43,123Zm.46,0a2.2,2.2,0,0,0,.2,1.17.59.59,0,0,0,1,0,2.18,2.18,0,0,0,.21-1.17,2.25,2.25,0,0,0-.21-1.18.62.62,0,0,0-.51-.29.57.57,0,0,0-.49.26A2.3,2.3,0,0,0,14.89,123Z" transform="translate(1.43 -21.92)"/><path class="cls-3" d="M9.14,96.38H8.7v-2.8a2.54,2.54,0,0,1-.42.3,2.81,2.81,0,0,1-.46.23v-.43a2.42,2.42,0,0,0,.65-.42,1.65,1.65,0,0,0,.39-.48h.28Z" transform="translate(1.43 -21.92)"/><path class="cls-3" d="M10.26,95.44l.47,0a.84.84,0,0,0,.23.51.71.71,0,0,0,1-.07.89.89,0,0,0,.22-.64.82.82,0,0,0-.21-.59.75.75,0,0,0-.55-.22.87.87,0,0,0-.39.1.69.69,0,0,0-.26.25l-.42,0,.35-1.84h1.78v.42H11l-.19,1a1.15,1.15,0,0,1,.67-.23,1.08,1.08,0,0,1,.8.33,1.15,1.15,0,0,1,.32.83,1.28,1.28,0,0,1-.29.84,1.14,1.14,0,0,1-.94.44,1.15,1.15,0,0,1-.79-.27A1.09,1.09,0,0,1,10.26,95.44Z" transform="translate(1.43 -21.92)"/><path class="cls-3" d="M13.29,96.38v-.5h.5v.5Z" transform="translate(1.43 -21.92)"/><path class="cls-3" d="M14.43,94.61a3.52,3.52,0,0,1,.13-1A1.31,1.31,0,0,1,15,93a1,1,0,0,1,.65-.21,1.07,1.07,0,0,1,.51.12,1.13,1.13,0,0,1,.36.33,2.25,2.25,0,0,1,.22.54,3.72,3.72,0,0,1,.08.84,3.2,3.2,0,0,1-.13,1,1.31,1.31,0,0,1-.39.6,1,1,0,0,1-.65.21,1,1,0,0,1-.81-.37A2.35,2.35,0,0,1,14.43,94.61Zm.46,0a2.27,2.27,0,0,0,.2,1.18.62.62,0,0,0,.51.29.61.61,0,0,0,.51-.3,3.36,3.36,0,0,0,0-2.34.6.6,0,0,0-.51-.29.56.56,0,0,0-.49.25A2.33,2.33,0,0,0,14.89,94.61Z" transform="translate(1.43 -21.92)"/><path class="cls-3" d="M9.14,110.55H8.7v-2.8a2.54,2.54,0,0,1-.42.3,2.81,2.81,0,0,1-.46.23v-.42a3,3,0,0,0,.65-.42,2,2,0,0,0,.39-.48h.28Z" transform="translate(1.43 -21.92)"/><path class="cls-3" d="M10.26,108.79a3.54,3.54,0,0,1,.13-1,1.33,1.33,0,0,1,.39-.59,1,1,0,0,1,.65-.21,1.19,1.19,0,0,1,.51.11,1.06,1.06,0,0,1,.36.34,2,2,0,0,1,.22.53,3.76,3.76,0,0,1,.08.85,3.14,3.14,0,0,1-.13,1,1.31,1.31,0,0,1-.39.6,1,1,0,0,1-.65.21,1,1,0,0,1-.81-.37A2.32,2.32,0,0,1,10.26,108.79Zm.46,0a2.36,2.36,0,0,0,.2,1.17.59.59,0,0,0,1,0,3.39,3.39,0,0,0,0-2.35.62.62,0,0,0-.51-.29.57.57,0,0,0-.49.26A2.3,2.3,0,0,0,10.72,108.79Z" transform="translate(1.43 -21.92)"/><path class="cls-3" d="M13.29,110.55v-.5h.5v.5Z" transform="translate(1.43 -21.92)"/><path class="cls-3" d="M14.43,108.79a3.54,3.54,0,0,1,.13-1,1.33,1.33,0,0,1,.39-.59,1,1,0,0,1,.65-.21,1.19,1.19,0,0,1,.51.11,1.06,1.06,0,0,1,.36.34,2,2,0,0,1,.22.53,3.76,3.76,0,0,1,.08.85,3.14,3.14,0,0,1-.13,1,1.31,1.31,0,0,1-.39.6,1,1,0,0,1-.65.21,1,1,0,0,1-.81-.37A2.32,2.32,0,0,1,14.43,108.79Zm.46,0a2.25,2.25,0,0,0,.2,1.17.59.59,0,0,0,1,0,3.39,3.39,0,0,0,0-2.35.62.62,0,0,0-.51-.29.57.57,0,0,0-.49.26A2.3,2.3,0,0,0,14.89,108.79Z" transform="translate(1.43 -21.92)"/><path class="cls-3" d="M9.79,67.61V68H7.43a.61.61,0,0,1,.05-.3,1.76,1.76,0,0,1,.29-.48,3.81,3.81,0,0,1,.57-.54A4.48,4.48,0,0,0,9.13,66a.9.9,0,0,0,.21-.53A.61.61,0,0,0,9.15,65a.67.67,0,0,0-.49-.18.69.69,0,0,0-.5.19.71.71,0,0,0-.2.53l-.45,0a1.14,1.14,0,0,1,.35-.77,1.21,1.21,0,0,1,.81-.26,1.13,1.13,0,0,1,.82.28.94.94,0,0,1,.3.71,1,1,0,0,1-.09.42,1.75,1.75,0,0,1-.29.44,8.11,8.11,0,0,1-.68.63l-.51.45a1.88,1.88,0,0,0-.18.24Z" transform="translate(1.43 -21.92)"/><path class="cls-3" d="M10.26,67.09l.47,0a.81.81,0,0,0,.23.51.71.71,0,0,0,1-.07.88.88,0,0,0,.22-.63.84.84,0,0,0-.21-.6.74.74,0,0,0-.55-.21.86.86,0,0,0-.39.09.78.78,0,0,0-.26.25l-.42,0,.35-1.84h1.78v.42H11l-.19,1a1.14,1.14,0,0,1,.67-.22,1.11,1.11,0,0,1,.8.32,1.17,1.17,0,0,1,.32.84,1.32,1.32,0,0,1-.29.84,1.13,1.13,0,0,1-.94.43,1.15,1.15,0,0,1-.79-.27A1,1,0,0,1,10.26,67.09Z" transform="translate(1.43 -21.92)"/><path class="cls-3" d="M13.29,68v-.5h.5V68Z" transform="translate(1.43 -21.92)"/><path class="cls-3" d="M14.43,66.27a3.54,3.54,0,0,1,.13-1,1.33,1.33,0,0,1,.39-.59,1,1,0,0,1,.65-.21,1.19,1.19,0,0,1,.51.11,1.06,1.06,0,0,1,.36.34,2,2,0,0,1,.22.53,3.76,3.76,0,0,1,.08.85,3.09,3.09,0,0,1-.13,1,1.31,1.31,0,0,1-.39.6,1,1,0,0,1-.65.21,1,1,0,0,1-.81-.37A2.32,2.32,0,0,1,14.43,66.27Zm.46,0a2.25,2.25,0,0,0,.2,1.17.59.59,0,0,0,1,0,3.39,3.39,0,0,0,0-2.35.62.62,0,0,0-.51-.29.57.57,0,0,0-.49.26A2.3,2.3,0,0,0,14.89,66.27Z" transform="translate(1.43 -21.92)"/><path class="cls-3" d="M9.79,81.78v.42H7.43a.63.63,0,0,1,.05-.3,1.76,1.76,0,0,1,.29-.48,5.2,5.2,0,0,1,.57-.54,4.48,4.48,0,0,0,.79-.76.87.87,0,0,0,.21-.52.62.62,0,0,0-.19-.45A.67.67,0,0,0,8.66,79a.65.65,0,0,0-.5.2.69.69,0,0,0-.2.52l-.45,0a1.1,1.1,0,0,1,.35-.77,1.17,1.17,0,0,1,.81-.27,1.14,1.14,0,0,1,.82.29.92.92,0,0,1,.3.7A1.07,1.07,0,0,1,9.7,80a1.71,1.71,0,0,1-.29.43,5.7,5.7,0,0,1-.68.63l-.51.45a1.88,1.88,0,0,0-.18.24Z" transform="translate(1.43 -21.92)"/><path class="cls-3" d="M10.26,80.44a3.52,3.52,0,0,1,.13-1,1.31,1.31,0,0,1,.39-.6,1,1,0,0,1,.65-.21,1.07,1.07,0,0,1,.51.12,1,1,0,0,1,.36.33,2.17,2.17,0,0,1,.22.53,3.76,3.76,0,0,1,.08.85,3.2,3.2,0,0,1-.13,1,1.33,1.33,0,0,1-.39.59,1,1,0,0,1-.65.22,1,1,0,0,1-.81-.38A2.3,2.3,0,0,1,10.26,80.44Zm.46,0a2.31,2.31,0,0,0,.2,1.17.59.59,0,0,0,1,0,3.36,3.36,0,0,0,0-2.34.61.61,0,0,0-.51-.3.57.57,0,0,0-.49.26A2.3,2.3,0,0,0,10.72,80.44Z" transform="translate(1.43 -21.92)"/><path class="cls-3" d="M13.29,82.2v-.5h.5v.5Z" transform="translate(1.43 -21.92)"/><path class="cls-3" d="M14.43,80.44a3.52,3.52,0,0,1,.13-1,1.31,1.31,0,0,1,.39-.6,1,1,0,0,1,.65-.21,1.07,1.07,0,0,1,.51.12,1,1,0,0,1,.36.33,2.17,2.17,0,0,1,.22.53,3.76,3.76,0,0,1,.08.85,3.2,3.2,0,0,1-.13,1,1.33,1.33,0,0,1-.39.59,1,1,0,0,1-.65.22,1,1,0,0,1-.81-.38A2.3,2.3,0,0,1,14.43,80.44Zm.46,0a2.2,2.2,0,0,0,.2,1.17.59.59,0,0,0,1,0,3.36,3.36,0,0,0,0-2.34.61.61,0,0,0-.51-.3.57.57,0,0,0-.49.26A2.3,2.3,0,0,0,14.89,80.44Z" transform="translate(1.43 -21.92)"/><path class="cls-3" d="M7.49,52.91l.44-.06a1,1,0,0,0,.25.54.64.64,0,0,0,.45.17.69.69,0,0,0,.52-.22.72.72,0,0,0,.21-.53.68.68,0,0,0-.19-.5.7.7,0,0,0-.51-.19,1.38,1.38,0,0,0-.31,0l.05-.38h.07A1,1,0,0,0,9,51.64a.51.51,0,0,0,.22-.46.54.54,0,0,0-.16-.4.6.6,0,0,0-.42-.15.59.59,0,0,0-.43.16.8.8,0,0,0-.22.48l-.44-.08a1.11,1.11,0,0,1,.37-.68,1.06,1.06,0,0,1,.71-.25,1.26,1.26,0,0,1,.54.13.9.9,0,0,1,.5.8.8.8,0,0,1-.12.43.86.86,0,0,1-.37.3.82.82,0,0,1,.49.3.93.93,0,0,1,.18.58,1.07,1.07,0,0,1-.34.8,1.24,1.24,0,0,1-.87.32,1.12,1.12,0,0,1-.78-.28A1.08,1.08,0,0,1,7.49,52.91Z" transform="translate(1.43 -21.92)"/><path class="cls-3" d="M10.26,52.09a3.52,3.52,0,0,1,.13-1,1.31,1.31,0,0,1,.39-.6,1,1,0,0,1,.65-.21,1.07,1.07,0,0,1,.51.12,1.13,1.13,0,0,1,.36.33,2.25,2.25,0,0,1,.22.54,3.72,3.72,0,0,1,.08.84,3.2,3.2,0,0,1-.13,1,1.31,1.31,0,0,1-.39.6,1,1,0,0,1-.65.21,1,1,0,0,1-.81-.37A2.33,2.33,0,0,1,10.26,52.09Zm.46,0a2.38,2.38,0,0,0,.2,1.18.62.62,0,0,0,.51.29.61.61,0,0,0,.51-.3,3.36,3.36,0,0,0,0-2.34.6.6,0,0,0-.51-.29.56.56,0,0,0-.49.25A2.33,2.33,0,0,0,10.72,52.09Z" transform="translate(1.43 -21.92)"/><path class="cls-3" d="M13.29,53.86v-.5h.5v.5Z" transform="translate(1.43 -21.92)"/><path class="cls-3" d="M14.43,52.09a3.52,3.52,0,0,1,.13-1,1.31,1.31,0,0,1,.39-.6,1,1,0,0,1,.65-.21,1.07,1.07,0,0,1,.51.12,1.13,1.13,0,0,1,.36.33,2.25,2.25,0,0,1,.22.54,3.72,3.72,0,0,1,.08.84,3.2,3.2,0,0,1-.13,1,1.31,1.31,0,0,1-.39.6,1,1,0,0,1-.65.21,1,1,0,0,1-.81-.37A2.33,2.33,0,0,1,14.43,52.09Zm.46,0a2.27,2.27,0,0,0,.2,1.18.62.62,0,0,0,.51.29.61.61,0,0,0,.51-.3,3.36,3.36,0,0,0,0-2.34.6.6,0,0,0-.51-.29.56.56,0,0,0-.49.25A2.33,2.33,0,0,0,14.89,52.09Z" transform="translate(1.43 -21.92)"/><path class="cls-3" d="M7.49,38.74l.44-.06a1,1,0,0,0,.25.54.64.64,0,0,0,.45.16.72.72,0,0,0,.73-.74.68.68,0,0,0-.19-.5.71.71,0,0,0-.51-.2,1.5,1.5,0,0,0-.31.05l.05-.39h.07A.9.9,0,0,0,9,37.46.48.48,0,0,0,9.2,37a.54.54,0,0,0-.16-.4.61.61,0,0,0-.42-.16.63.63,0,0,0-.43.16A.83.83,0,0,0,8,37.1L7.53,37a1.14,1.14,0,0,1,.37-.69,1.05,1.05,0,0,1,.71-.24,1.13,1.13,0,0,1,.54.13.82.82,0,0,1,.37.34.84.84,0,0,1,.13.46.74.74,0,0,1-.12.42.88.88,0,0,1-.37.31.82.82,0,0,1,.49.3.91.91,0,0,1,.18.58,1,1,0,0,1-.34.79,1.21,1.21,0,0,1-.87.33,1.16,1.16,0,0,1-.78-.28A1.08,1.08,0,0,1,7.49,38.74Z" transform="translate(1.43 -21.92)"/><path class="cls-3" d="M10.26,38.75l.47,0a.87.87,0,0,0,.23.51.67.67,0,0,0,.45.16.71.71,0,0,0,.54-.23.91.91,0,0,0,.22-.64.8.8,0,0,0-.21-.59.71.71,0,0,0-.55-.22.76.76,0,0,0-.39.1.63.63,0,0,0-.26.25L10.34,38l.35-1.84h1.78v.42H11l-.19,1a1.15,1.15,0,0,1,.67-.23,1.08,1.08,0,0,1,.8.33,1.13,1.13,0,0,1,.32.83,1.28,1.28,0,0,1-.29.84,1.14,1.14,0,0,1-.94.44,1.15,1.15,0,0,1-.79-.28A1,1,0,0,1,10.26,38.75Z" transform="translate(1.43 -21.92)"/><path class="cls-3" d="M13.29,39.68v-.5h.5v.5Z" transform="translate(1.43 -21.92)"/><path class="cls-3" d="M14.43,37.92a3.52,3.52,0,0,1,.13-1,1.31,1.31,0,0,1,.39-.6,1,1,0,0,1,.65-.21,1.07,1.07,0,0,1,.51.12,1,1,0,0,1,.36.33,2.17,2.17,0,0,1,.22.53,3.76,3.76,0,0,1,.08.85,3.2,3.2,0,0,1-.13,1,1.33,1.33,0,0,1-.39.59,1,1,0,0,1-.65.22,1,1,0,0,1-.81-.38A2.3,2.3,0,0,1,14.43,37.92Zm.46,0a2.2,2.2,0,0,0,.2,1.17.59.59,0,0,0,1,0,2.18,2.18,0,0,0,.21-1.17,2.18,2.18,0,0,0-.21-1.17.61.61,0,0,0-.51-.3.57.57,0,0,0-.49.26A2.3,2.3,0,0,0,14.89,37.92Z" transform="translate(1.43 -21.92)"/><path class="cls-3" d="M8.89,25.51v-.86H7.34v-.4L9,21.93h.36v2.32h.49v.4H9.33v.86Zm0-1.26V22.64L7.77,24.25Z" transform="translate(1.43 -21.92)"/><path class="cls-3" d="M10.26,23.75a3.54,3.54,0,0,1,.13-1,1.33,1.33,0,0,1,.39-.59,1,1,0,0,1,.65-.21,1.19,1.19,0,0,1,.51.11,1.06,1.06,0,0,1,.36.34,2,2,0,0,1,.22.53,3.76,3.76,0,0,1,.08.85,3.09,3.09,0,0,1-.13,1,1.31,1.31,0,0,1-.39.6,1,1,0,0,1-.65.21,1,1,0,0,1-.81-.37A2.32,2.32,0,0,1,10.26,23.75Zm.46,0a2.36,2.36,0,0,0,.2,1.17.59.59,0,0,0,1,0,2.23,2.23,0,0,0,.21-1.17,2.25,2.25,0,0,0-.21-1.18.62.62,0,0,0-.51-.29.57.57,0,0,0-.49.26A2.3,2.3,0,0,0,10.72,23.75Z" transform="translate(1.43 -21.92)"/><path class="cls-3" d="M13.29,25.51V25h.5v.5Z" transform="translate(1.43 -21.92)"/><path class="cls-3" d="M14.43,23.75a3.54,3.54,0,0,1,.13-1,1.33,1.33,0,0,1,.39-.59,1,1,0,0,1,.65-.21,1.19,1.19,0,0,1,.51.11,1.06,1.06,0,0,1,.36.34,2,2,0,0,1,.22.53,3.76,3.76,0,0,1,.08.85,3.09,3.09,0,0,1-.13,1,1.31,1.31,0,0,1-.39.6,1,1,0,0,1-.65.21,1,1,0,0,1-.81-.37A2.32,2.32,0,0,1,14.43,23.75Zm.46,0a2.25,2.25,0,0,0,.2,1.17.59.59,0,0,0,1,0,2.23,2.23,0,0,0,.21-1.17,2.25,2.25,0,0,0-.21-1.18.62.62,0,0,0-.51-.29.57.57,0,0,0-.49.26A2.3,2.3,0,0,0,14.89,23.75Z" transform="translate(1.43 -21.92)"/><path class="cls-3" d="M17.24,141.38a3.52,3.52,0,0,1,.13-1,1.28,1.28,0,0,1,.39-.59,1.14,1.14,0,0,1,1.15-.1.9.9,0,0,1,.36.34,1.73,1.73,0,0,1,.23.53,3.72,3.72,0,0,1,.08.84,3.52,3.52,0,0,1-.13,1,1.31,1.31,0,0,1-.39.6,1,1,0,0,1-.65.21,1,1,0,0,1-.81-.37A2.33,2.33,0,0,1,17.24,141.38Zm.45,0a2.25,2.25,0,0,0,.21,1.18.59.59,0,0,0,1,0,2.27,2.27,0,0,0,.2-1.18,2.23,2.23,0,0,0-.2-1.17.63.63,0,0,0-.52-.29.56.56,0,0,0-.48.26A2.24,2.24,0,0,0,17.69,141.38Z" transform="translate(1.43 -21.92)"/><path class="cls-3" d="M10.26,137.13a3.17,3.17,0,0,1,.14-1,1.22,1.22,0,0,1,.38-.6,1,1,0,0,1,.65-.21,1.07,1.07,0,0,1,.51.12,1.13,1.13,0,0,1,.36.33,2.25,2.25,0,0,1,.22.54,3.72,3.72,0,0,1,.08.84,3.2,3.2,0,0,1-.13,1,1.31,1.31,0,0,1-.39.6,1,1,0,0,1-.65.21,1,1,0,0,1-.81-.37A2.35,2.35,0,0,1,10.26,137.13Zm.46,0a2.38,2.38,0,0,0,.2,1.18.62.62,0,0,0,.51.29.61.61,0,0,0,.51-.3,3.36,3.36,0,0,0,0-2.34.6.6,0,0,0-.51-.29.56.56,0,0,0-.49.25A2.33,2.33,0,0,0,10.72,137.13Z" transform="translate(1.43 -21.92)"/><path class="cls-3" d="M13.29,138.9v-.5h.5v.5Z" transform="translate(1.43 -21.92)"/><path class="cls-3" d="M14.43,137.13a3.17,3.17,0,0,1,.14-1,1.22,1.22,0,0,1,.38-.6,1,1,0,0,1,.65-.21,1.07,1.07,0,0,1,.51.12,1.13,1.13,0,0,1,.36.33,2.25,2.25,0,0,1,.22.54,3.72,3.72,0,0,1,.08.84,3.2,3.2,0,0,1-.13,1,1.31,1.31,0,0,1-.39.6,1,1,0,0,1-.65.21,1,1,0,0,1-.81-.37A2.35,2.35,0,0,1,14.43,137.13Zm.46,0a2.27,2.27,0,0,0,.2,1.18.62.62,0,0,0,.51.29.61.61,0,0,0,.51-.3,3.36,3.36,0,0,0,0-2.34.6.6,0,0,0-.51-.29.56.56,0,0,0-.49.25A2.33,2.33,0,0,0,14.89,137.13Z" transform="translate(1.43 -21.92)"/><path class="cls-3" d="M37.4,143.15H37v-2.8a2.07,2.07,0,0,1-.41.3,3.27,3.27,0,0,1-.46.23v-.43a2.37,2.37,0,0,0,.64-.42,1.76,1.76,0,0,0,.39-.47h.28Z" transform="translate(1.43 -21.92)"/><path class="cls-3" d="M38.53,141.38a3.2,3.2,0,0,1,.13-1,1.28,1.28,0,0,1,.39-.59,1.14,1.14,0,0,1,1.15-.1.9.9,0,0,1,.36.34,1.73,1.73,0,0,1,.22.53,4.23,4.23,0,0,1-.05,1.86,1.22,1.22,0,0,1-.38.6,1.1,1.1,0,0,1-1.47-.16A2.41,2.41,0,0,1,38.53,141.38Zm.45,0a2.25,2.25,0,0,0,.21,1.18.6.6,0,0,0,.51.29.62.62,0,0,0,.51-.29,2.38,2.38,0,0,0,.2-1.18,2.31,2.31,0,0,0-.2-1.17.63.63,0,0,0-.52-.29.54.54,0,0,0-.48.26A2.24,2.24,0,0,0,39,141.38Z" transform="translate(1.43 -21.92)"/><path class="cls-3" d="M41.31,141.38a3.2,3.2,0,0,1,.13-1,1.28,1.28,0,0,1,.39-.59,1.14,1.14,0,0,1,1.15-.1.9.9,0,0,1,.36.34,1.51,1.51,0,0,1,.22.53,4.23,4.23,0,0,1-.05,1.86,1.22,1.22,0,0,1-.38.6,1.1,1.1,0,0,1-1.47-.16A2.41,2.41,0,0,1,41.31,141.38Zm.45,0a2.25,2.25,0,0,0,.21,1.18.59.59,0,0,0,1,0,2.38,2.38,0,0,0,.2-1.18,2.31,2.31,0,0,0-.2-1.17.63.63,0,0,0-.52-.29.54.54,0,0,0-.48.26A2.24,2.24,0,0,0,41.76,141.38Z" transform="translate(1.43 -21.92)"/><path class="cls-3" d="M44.09,141.38a3.2,3.2,0,0,1,.13-1,1.28,1.28,0,0,1,.39-.59,1.14,1.14,0,0,1,1.15-.1.9.9,0,0,1,.36.34,1.51,1.51,0,0,1,.22.53,3.22,3.22,0,0,1,.08.84,3.56,3.56,0,0,1-.12,1,1.31,1.31,0,0,1-.39.6,1.1,1.1,0,0,1-1.47-.16A2.41,2.41,0,0,1,44.09,141.38Zm.45,0a2.25,2.25,0,0,0,.21,1.18.59.59,0,0,0,1,0,2.38,2.38,0,0,0,.2-1.18,2.31,2.31,0,0,0-.2-1.17.63.63,0,0,0-.52-.29.54.54,0,0,0-.48.26A2.24,2.24,0,0,0,44.54,141.38Z" transform="translate(1.43 -21.92)"/><path class="cls-3" d="M60.74,142.73v.42H58.37a.81.81,0,0,1,.05-.31,1.58,1.58,0,0,1,.29-.47,3.49,3.49,0,0,1,.58-.54,5.15,5.15,0,0,0,.78-.76.9.9,0,0,0,.21-.53.58.58,0,0,0-.19-.44.66.66,0,0,0-.49-.18.65.65,0,0,0-.5.19.75.75,0,0,0-.2.53l-.45,0a1.12,1.12,0,0,1,.35-.77,1.16,1.16,0,0,1,.81-.26,1.13,1.13,0,0,1,.82.28.94.94,0,0,1,.3.71,1.06,1.06,0,0,1-.09.42,1.51,1.51,0,0,1-.29.44,8.11,8.11,0,0,1-.68.63,6.1,6.1,0,0,0-.5.45,1.33,1.33,0,0,0-.19.24Z" transform="translate(1.43 -21.92)"/><path class="cls-3" d="M61.21,141.38a3.2,3.2,0,0,1,.13-1,1.14,1.14,0,0,1,.39-.59,1,1,0,0,1,.64-.21,1,1,0,0,1,.51.11,1.06,1.06,0,0,1,.36.34,1.73,1.73,0,0,1,.22.53,3.72,3.72,0,0,1,.08.84,3.2,3.2,0,0,1-.13,1,1.23,1.23,0,0,1-.39.6,1.09,1.09,0,0,1-1.46-.16A2.34,2.34,0,0,1,61.21,141.38Zm.45,0a2.38,2.38,0,0,0,.2,1.18.62.62,0,0,0,.51.29.6.6,0,0,0,.51-.29,2.25,2.25,0,0,0,.21-1.18,2.2,2.2,0,0,0-.21-1.17.61.61,0,0,0-.51-.29.56.56,0,0,0-.48.26A2.15,2.15,0,0,0,61.66,141.38Z" transform="translate(1.43 -21.92)"/><path class="cls-3" d="M64,141.38a3.2,3.2,0,0,1,.13-1,1.14,1.14,0,0,1,.39-.59,1,1,0,0,1,.64-.21,1,1,0,0,1,.51.11A1.06,1.06,0,0,1,66,140a1.73,1.73,0,0,1,.22.53,3.72,3.72,0,0,1,.08.84,3.2,3.2,0,0,1-.13,1,1.22,1.22,0,0,1-.38.6,1,1,0,0,1-.66.21,1,1,0,0,1-.81-.37A2.41,2.41,0,0,1,64,141.38Zm.45,0a2.38,2.38,0,0,0,.2,1.18.62.62,0,0,0,.51.29.6.6,0,0,0,.51-.29,2.25,2.25,0,0,0,.21-1.18,2.2,2.2,0,0,0-.21-1.17.61.61,0,0,0-.51-.29.56.56,0,0,0-.48.26A2.15,2.15,0,0,0,64.44,141.38Z" transform="translate(1.43 -21.92)"/><path class="cls-3" d="M66.77,141.38a3.2,3.2,0,0,1,.13-1,1.28,1.28,0,0,1,.39-.59,1,1,0,0,1,.64-.21,1,1,0,0,1,.51.11,1,1,0,0,1,.36.34,1.73,1.73,0,0,1,.22.53,4.23,4.23,0,0,1,0,1.86,1.22,1.22,0,0,1-.38.6,1,1,0,0,1-.66.21,1,1,0,0,1-.81-.37A2.41,2.41,0,0,1,66.77,141.38Zm.45,0a2.25,2.25,0,0,0,.21,1.18.58.58,0,0,0,1,0,2.25,2.25,0,0,0,.21-1.18,2.2,2.2,0,0,0-.21-1.17.6.6,0,0,0-.51-.29.56.56,0,0,0-.48.26A2.24,2.24,0,0,0,67.22,141.38Z" transform="translate(1.43 -21.92)"/><path class="cls-3" d="M81.1,142.2l.44,0a1,1,0,0,0,.26.53.64.64,0,0,0,.45.17.69.69,0,0,0,.52-.22.72.72,0,0,0,.21-.53.65.65,0,0,0-.2-.5.66.66,0,0,0-.5-.19,1.38,1.38,0,0,0-.31,0l0-.38h.07a.89.89,0,0,0,.51-.14.5.5,0,0,0,.22-.45.51.51,0,0,0-.16-.4.57.57,0,0,0-.42-.16.57.57,0,0,0-.43.16.77.77,0,0,0-.22.48l-.44-.08a1.07,1.07,0,0,1,.37-.68,1.05,1.05,0,0,1,.71-.24,1.25,1.25,0,0,1,.54.12.9.9,0,0,1,.5.81.79.79,0,0,1-.12.42.86.86,0,0,1-.37.3.82.82,0,0,1,.49.3.93.93,0,0,1,.18.58,1.1,1.1,0,0,1-.34.8,1.24,1.24,0,0,1-.87.32,1.12,1.12,0,0,1-.78-.28A1.09,1.09,0,0,1,81.1,142.2Z" transform="translate(1.43 -21.92)"/><path class="cls-3" d="M83.88,141.38a3.52,3.52,0,0,1,.13-1,1.28,1.28,0,0,1,.39-.59,1,1,0,0,1,.65-.21,1.06,1.06,0,0,1,.51.11,1,1,0,0,1,.35.34,1.73,1.73,0,0,1,.23.53,3.72,3.72,0,0,1,.08.84,3.52,3.52,0,0,1-.13,1,1.31,1.31,0,0,1-.39.6,1,1,0,0,1-.65.21,1,1,0,0,1-.81-.37A2.33,2.33,0,0,1,83.88,141.38Zm.45,0a2.25,2.25,0,0,0,.21,1.18.59.59,0,0,0,1,0,2.25,2.25,0,0,0,.21-1.18,2.18,2.18,0,0,0-.21-1.17.62.62,0,0,0-.51-.29.55.55,0,0,0-.49.26A2.24,2.24,0,0,0,84.33,141.38Z" transform="translate(1.43 -21.92)"/><path class="cls-3" d="M86.66,141.38a3.52,3.52,0,0,1,.13-1,1.28,1.28,0,0,1,.39-.59,1,1,0,0,1,.65-.21.95.95,0,0,1,.87.45,2,2,0,0,1,.22.53,3.72,3.72,0,0,1,.08.84,3.52,3.52,0,0,1-.13,1,1.31,1.31,0,0,1-.39.6,1,1,0,0,1-.65.21,1,1,0,0,1-.81-.37A2.33,2.33,0,0,1,86.66,141.38Zm.46,0a2.27,2.27,0,0,0,.2,1.18.59.59,0,0,0,1,0,2.25,2.25,0,0,0,.21-1.18,2.18,2.18,0,0,0-.21-1.17.62.62,0,0,0-.51-.29.55.55,0,0,0-.49.26A2.26,2.26,0,0,0,87.12,141.38Z" transform="translate(1.43 -21.92)"/><path class="cls-3" d="M89.44,141.38a3.17,3.17,0,0,1,.14-1,1.19,1.19,0,0,1,.38-.59,1,1,0,0,1,.65-.21.95.95,0,0,1,.87.45,2,2,0,0,1,.22.53,3.72,3.72,0,0,1,.08.84,3.2,3.2,0,0,1-.13,1,1.31,1.31,0,0,1-.39.6,1,1,0,0,1-.65.21,1,1,0,0,1-.81-.37A2.33,2.33,0,0,1,89.44,141.38Zm.46,0a2.38,2.38,0,0,0,.2,1.18.59.59,0,0,0,1,0,2.25,2.25,0,0,0,.21-1.18,2.18,2.18,0,0,0-.21-1.17.62.62,0,0,0-.51-.29.56.56,0,0,0-.49.26A2.26,2.26,0,0,0,89.9,141.38Z" transform="translate(1.43 -21.92)"/><path class="cls-3" d="M105.19,143.15v-.86h-1.55v-.4l1.63-2.32h.36v2.32h.48v.4h-.48v.86Zm0-1.26v-1.61l-1.12,1.61Z" transform="translate(1.43 -21.92)"/><path class="cls-3" d="M106.56,141.38a3.2,3.2,0,0,1,.13-1,1.28,1.28,0,0,1,.39-.59,1.14,1.14,0,0,1,1.15-.1.9.9,0,0,1,.36.34,1.51,1.51,0,0,1,.22.53,3.22,3.22,0,0,1,.08.84,3.56,3.56,0,0,1-.12,1,1.31,1.31,0,0,1-.39.6,1.1,1.1,0,0,1-1.47-.16A2.41,2.41,0,0,1,106.56,141.38Zm.45,0a2.25,2.25,0,0,0,.21,1.18.59.59,0,0,0,1,0,2.38,2.38,0,0,0,.2-1.18,2.31,2.31,0,0,0-.2-1.17.63.63,0,0,0-.52-.29.54.54,0,0,0-.48.26A2.24,2.24,0,0,0,107,141.38Z" transform="translate(1.43 -21.92)"/><path class="cls-3" d="M109.34,141.38a3.2,3.2,0,0,1,.13-1,1.28,1.28,0,0,1,.39-.59,1.14,1.14,0,0,1,1.15-.1.9.9,0,0,1,.36.34,1.51,1.51,0,0,1,.22.53,3.16,3.16,0,0,1,.09.84,3.52,3.52,0,0,1-.13,1,1.31,1.31,0,0,1-.39.6,1,1,0,0,1-.65.21,1,1,0,0,1-.81-.37A2.33,2.33,0,0,1,109.34,141.38Zm.45,0a2.25,2.25,0,0,0,.21,1.18.59.59,0,0,0,1,0,2.38,2.38,0,0,0,.2-1.18,2.31,2.31,0,0,0-.2-1.17.63.63,0,0,0-.52-.29.54.54,0,0,0-.48.26A2.24,2.24,0,0,0,109.79,141.38Z" transform="translate(1.43 -21.92)"/><path class="cls-3" d="M112.12,141.38a3.52,3.52,0,0,1,.13-1,1.28,1.28,0,0,1,.39-.59,1.14,1.14,0,0,1,1.15-.1.9.9,0,0,1,.36.34,1.73,1.73,0,0,1,.23.53,3.72,3.72,0,0,1,.08.84,3.52,3.52,0,0,1-.13,1,1.31,1.31,0,0,1-.39.6,1,1,0,0,1-.65.21,1,1,0,0,1-.81-.37A2.33,2.33,0,0,1,112.12,141.38Zm.45,0a2.25,2.25,0,0,0,.21,1.18.59.59,0,0,0,1,0,2.27,2.27,0,0,0,.2-1.18,2.2,2.2,0,0,0-.2-1.17.63.63,0,0,0-.52-.29.54.54,0,0,0-.48.26A2.24,2.24,0,0,0,112.57,141.38Z" transform="translate(1.43 -21.92)"/><rect class="繝後Μ_逋ｽ" x="110.56" y="2.18" width="2.83" height="113.39"/><rect class="邱喟0.5pt-2" x="19.86" y="2.18" width="90.71" height="113.39"/></g><g id="English"><rect class="繝後Μ_逋ｽ" x="23.4" y="22.94" width="47.91" height="16.58"/><path class="cls-3" d="M24.47,49.73l.58-.06a1.32,1.32,0,0,0,.19.58,1,1,0,0,0,.47.36,1.81,1.81,0,0,0,.72.14,1.71,1.71,0,0,0,.62-.11.87.87,0,0,0,.4-.28.68.68,0,0,0,.13-.4.59.59,0,0,0-.13-.39A.94.94,0,0,0,27,49.3c-.13,0-.41-.12-.83-.23a4.09,4.09,0,0,1-.9-.29,1.26,1.26,0,0,1-.5-.43,1.06,1.06,0,0,1-.16-.58,1.16,1.16,0,0,1,.2-.66,1.22,1.22,0,0,1,.58-.46,2.16,2.16,0,0,1,.86-.16,2.35,2.35,0,0,1,.91.16A1.3,1.3,0,0,1,28,47.88l-.59,0a.91.91,0,0,0-.32-.66,1.24,1.24,0,0,0-.81-.23,1.34,1.34,0,0,0-.81.2.64.64,0,0,0-.26.5.52.52,0,0,0,.18.41,2.39,2.39,0,0,0,.93.33,7.15,7.15,0,0,1,1,.3,1.39,1.39,0,0,1,.6.47,1.19,1.19,0,0,1,.19.67,1.3,1.3,0,0,1-.21.7,1.34,1.34,0,0,1-.61.51,2.16,2.16,0,0,1-.9.18,2.67,2.67,0,0,1-1.05-.18,1.48,1.48,0,0,1-.67-.56A1.51,1.51,0,0,1,24.47,49.73Z" transform="translate(1.43 -21.92)"/><path class="cls-3" d="M28.94,51.22V46.57h.57v1.67a1.29,1.29,0,0,1,1-.47,1.33,1.33,0,0,1,.65.15.88.88,0,0,1,.4.41,1.83,1.83,0,0,1,.12.75v2.14h-.57V49.08a.9.9,0,0,0-.19-.62.68.68,0,0,0-.52-.19.91.91,0,0,0-.48.13.68.68,0,0,0-.32.35,1.72,1.72,0,0,0-.1.63v1.84Z" transform="translate(1.43 -21.92)"/><path class="cls-3" d="M32.34,49.53a1.72,1.72,0,0,1,.53-1.38,1.57,1.57,0,0,1,1.06-.38,1.48,1.48,0,0,1,1.13.46,1.7,1.7,0,0,1,.44,1.26,2.24,2.24,0,0,1-.19,1,1.39,1.39,0,0,1-.57.58,1.63,1.63,0,0,1-.81.21,1.49,1.49,0,0,1-1.15-.46A1.82,1.82,0,0,1,32.34,49.53Zm.59,0a1.46,1.46,0,0,0,.28,1,.91.91,0,0,0,.72.33.89.89,0,0,0,.7-.33,1.43,1.43,0,0,0,.29-1,1.38,1.38,0,0,0-.29-1,.88.88,0,0,0-.7-.32.9.9,0,0,0-.72.32A1.45,1.45,0,0,0,32.93,49.53Z" transform="translate(1.43 -21.92)"/><path class="cls-3" d="M36.17,51.22V47.85h.51v.51a1.31,1.31,0,0,1,.36-.47.63.63,0,0,1,.37-.12A1.08,1.08,0,0,1,38,48l-.2.53a.76.76,0,0,0-.42-.13.5.5,0,0,0-.33.12.65.65,0,0,0-.22.31,2.31,2.31,0,0,0-.09.67v1.76Z" transform="translate(1.43 -21.92)"/><path class="cls-3" d="M39.58,50.71l.09.5a1.78,1.78,0,0,1-.43,0,1.1,1.1,0,0,1-.49-.09.66.66,0,0,1-.24-.26,2.27,2.27,0,0,1-.07-.68V48.29H38v-.44h.42V47l.57-.34v1.18h.57v.44H39v2a1,1,0,0,0,0,.32.21.21,0,0,0,.1.11.34.34,0,0,0,.19,0Z" transform="translate(1.43 -21.92)"/><path class="cls-3" d="M39.92,49.82v-.57h1.76v.57Z" transform="translate(1.43 -21.92)"/><path class="cls-3" d="M44.49,51.22v-.43a1,1,0,0,1-.94.51,1.4,1.4,0,0,1-1.26-.85,2,2,0,0,1-.19-.91,2.47,2.47,0,0,1,.17-.92,1.37,1.37,0,0,1,.5-.63,1.43,1.43,0,0,1,.76-.22,1.2,1.2,0,0,1,.54.13,1.17,1.17,0,0,1,.39.34V46.57H45v4.65Zm-1.8-1.68a1.5,1.5,0,0,0,.27,1,.84.84,0,0,0,.65.32.81.81,0,0,0,.63-.31,1.38,1.38,0,0,0,.26-.93,1.58,1.58,0,0,0-.26-1,.81.81,0,0,0-.66-.32.79.79,0,0,0-.64.31A1.52,1.52,0,0,0,42.69,49.54Z" transform="translate(1.43 -21.92)"/><path class="cls-3" d="M48.13,51.22v-.5a1.22,1.22,0,0,1-1.07.58,1.34,1.34,0,0,1-.56-.12.82.82,0,0,1-.38-.29,1,1,0,0,1-.17-.42,2.3,2.3,0,0,1,0-.53V47.85h.57v1.87a2.63,2.63,0,0,0,0,.6.61.61,0,0,0,.22.36.78.78,0,0,0,.44.12.91.91,0,0,0,.48-.13.7.7,0,0,0,.32-.36,1.84,1.84,0,0,0,.09-.65V47.85h.57v3.37Z" transform="translate(1.43 -21.92)"/><path class="cls-3" d="M49.53,51.22V47.85h.52v.51a1.31,1.31,0,0,1,.36-.47.61.61,0,0,1,.37-.12,1,1,0,0,1,.58.19l-.19.53a.76.76,0,0,0-.42-.13.52.52,0,0,0-.34.12.58.58,0,0,0-.21.31,2,2,0,0,0-.1.67v1.76Z" transform="translate(1.43 -21.92)"/><path class="cls-3" d="M53.9,50.8a2,2,0,0,1-.61.38,1.64,1.64,0,0,1-.63.12,1.18,1.18,0,0,1-.85-.28.89.89,0,0,1-.3-.69,1,1,0,0,1,.11-.45,1,1,0,0,1,.3-.33,1.55,1.55,0,0,1,.41-.19,3.06,3.06,0,0,1,.5-.08,5,5,0,0,0,1-.2,1.14,1.14,0,0,0,0-.15.65.65,0,0,0-.16-.49,1.27,1.27,0,0,0-1.25,0,.83.83,0,0,0-.28.5l-.56-.08a1.34,1.34,0,0,1,.25-.58,1,1,0,0,1,.5-.34,2.26,2.26,0,0,1,.77-.12,2.21,2.21,0,0,1,.7.1,1,1,0,0,1,.4.26.87.87,0,0,1,.17.39,3.08,3.08,0,0,1,0,.53v.76a6.72,6.72,0,0,0,0,1,1.17,1.17,0,0,0,.14.41H54A1.29,1.29,0,0,1,53.9,50.8Zm0-1.27a3.81,3.81,0,0,1-.93.21,2.81,2.81,0,0,0-.5.12.49.49,0,0,0-.22.18.48.48,0,0,0-.08.28.52.52,0,0,0,.17.38.76.76,0,0,0,.51.15,1.11,1.11,0,0,0,.58-.15.8.8,0,0,0,.38-.39,1.41,1.41,0,0,0,.09-.57Z" transform="translate(1.43 -21.92)"/><path class="cls-3" d="M56.56,50.71l.09.5a1.78,1.78,0,0,1-.43,0,1.1,1.1,0,0,1-.49-.09.66.66,0,0,1-.24-.26,2.27,2.27,0,0,1-.07-.68V48.29H55v-.44h.42V47l.57-.34v1.18h.57v.44H56v2a1,1,0,0,0,0,.32.21.21,0,0,0,.1.11.34.34,0,0,0,.19,0Z" transform="translate(1.43 -21.92)"/><path class="cls-3" d="M57.13,47.22v-.65h.57v.65Zm0,4V47.85h.57v3.37Z" transform="translate(1.43 -21.92)"/><path class="cls-3" d="M58.35,49.53a1.72,1.72,0,0,1,.53-1.38,1.55,1.55,0,0,1,1.06-.38,1.48,1.48,0,0,1,1.13.46,1.74,1.74,0,0,1,.44,1.26,2.24,2.24,0,0,1-.19,1,1.39,1.39,0,0,1-.57.58,1.63,1.63,0,0,1-.81.21,1.49,1.49,0,0,1-1.15-.46A1.82,1.82,0,0,1,58.35,49.53Zm.59,0a1.46,1.46,0,0,0,.28,1,.91.91,0,0,0,.72.33.89.89,0,0,0,.7-.33,1.43,1.43,0,0,0,.29-1,1.38,1.38,0,0,0-.29-1,.88.88,0,0,0-.7-.32.9.9,0,0,0-.72.32A1.45,1.45,0,0,0,58.94,49.53Z" transform="translate(1.43 -21.92)"/><path class="cls-3" d="M62.18,51.22V47.85h.52v.48a1.2,1.2,0,0,1,1.07-.56,1.47,1.47,0,0,1,.56.11.89.89,0,0,1,.38.29,1,1,0,0,1,.18.42,3.51,3.51,0,0,1,0,.56v2.07h-.57v-2a1.38,1.38,0,0,0-.07-.52.53.53,0,0,0-.23-.28.77.77,0,0,0-.4-.1.94.94,0,0,0-.63.23,1.13,1.13,0,0,0-.27.88v1.84Z" transform="translate(1.43 -21.92)"/><path class="cls-3" d="M24.6,59V55.65h.51v.51a1.43,1.43,0,0,1,.37-.47.6.6,0,0,1,.36-.12,1.06,1.06,0,0,1,.59.19l-.19.53a.76.76,0,0,0-.42-.13.52.52,0,0,0-.34.12.58.58,0,0,0-.21.31,2,2,0,0,0-.1.67V59Z" transform="translate(1.43 -21.92)"/><path class="cls-3" d="M29,59v-.5a1.22,1.22,0,0,1-1.07.58,1.34,1.34,0,0,1-.56-.12.82.82,0,0,1-.38-.29,1.16,1.16,0,0,1-.18-.42,3.33,3.33,0,0,1,0-.53V55.65h.57v1.87a2.63,2.63,0,0,0,0,.6.61.61,0,0,0,.22.36.76.76,0,0,0,.44.12.91.91,0,0,0,.48-.13.75.75,0,0,0,.32-.36,1.84,1.84,0,0,0,.09-.65V55.65h.57V59Z" transform="translate(1.43 -21.92)"/><path class="cls-3" d="M30.39,59V55.65h.51v.48A1.22,1.22,0,0,1,32,55.57a1.43,1.43,0,0,1,.56.11,1,1,0,0,1,.39.29,1.13,1.13,0,0,1,.17.42,2.44,2.44,0,0,1,0,.56V59h-.58V57a1.67,1.67,0,0,0-.06-.52.6.6,0,0,0-.24-.28.72.72,0,0,0-.4-.1,1,1,0,0,0-.63.23,1.17,1.17,0,0,0-.26.88V59Z" transform="translate(1.43 -21.92)"/><path class="cls-3" d="M34,59V55.65h.52v.48a1.2,1.2,0,0,1,1.07-.56,1.47,1.47,0,0,1,.56.11.89.89,0,0,1,.38.29,1,1,0,0,1,.18.42,3.51,3.51,0,0,1,0,.56V59h-.57V57a1.38,1.38,0,0,0-.07-.52.53.53,0,0,0-.23-.28.77.77,0,0,0-.4-.1.94.94,0,0,0-.63.23,1.13,1.13,0,0,0-.27.88V59Z" transform="translate(1.43 -21.92)"/><path class="cls-3" d="M37.62,55v-.65h.57V55Zm0,4V55.65h.57V59Z" transform="translate(1.43 -21.92)"/><path class="cls-3" d="M39.06,59V55.65h.51v.48a1.23,1.23,0,0,1,1.08-.56,1.47,1.47,0,0,1,.56.11.89.89,0,0,1,.38.29,1.33,1.33,0,0,1,.18.42,3.51,3.51,0,0,1,0,.56V59h-.57V57a1.38,1.38,0,0,0-.07-.52.53.53,0,0,0-.23-.28.77.77,0,0,0-.4-.1.92.92,0,0,0-.63.23,1.13,1.13,0,0,0-.27.88V59Z" transform="translate(1.43 -21.92)"/><path class="cls-3" d="M42.57,59.3l.56.08a.52.52,0,0,0,.19.38,1,1,0,0,0,.58.15,1,1,0,0,0,.61-.15.84.84,0,0,0,.3-.45,3.76,3.76,0,0,0,0-.73,1.19,1.19,0,0,1-.94.44,1.27,1.27,0,0,1-1.07-.5,1.91,1.91,0,0,1-.38-1.2,2.22,2.22,0,0,1,.17-.9,1.37,1.37,0,0,1,.51-.62,1.35,1.35,0,0,1,.78-.23,1.19,1.19,0,0,1,1,.49v-.41h.53v2.91a2.9,2.9,0,0,1-.16,1.12,1.22,1.22,0,0,1-.51.52,1.85,1.85,0,0,1-.86.19,1.61,1.61,0,0,1-1-.27A.92.92,0,0,1,42.57,59.3Zm.47-2a1.42,1.42,0,0,0,.27,1,.81.81,0,0,0,.66.31.83.83,0,0,0,.66-.31,1.8,1.8,0,0,0,0-1.88.83.83,0,0,0-.66-.31.81.81,0,0,0-.65.31A1.34,1.34,0,0,0,43,57.27Z" transform="translate(1.43 -21.92)"/><path class="cls-3" d="M48.09,59V55.65h.51v.51a1.43,1.43,0,0,1,.37-.47.6.6,0,0,1,.36-.12,1.06,1.06,0,0,1,.59.19l-.2.53a.73.73,0,0,0-.41-.13.52.52,0,0,0-.34.12.58.58,0,0,0-.21.31,2,2,0,0,0-.1.67V59Z" transform="translate(1.43 -21.92)"/><path class="cls-3" d="M52.46,58.6a2,2,0,0,1-.61.38,1.68,1.68,0,0,1-.63.12,1.16,1.16,0,0,1-.85-.28.89.89,0,0,1-.3-.69,1,1,0,0,1,.11-.45.94.94,0,0,1,.29-.33,1.79,1.79,0,0,1,.42-.19,3.06,3.06,0,0,1,.5-.08,5,5,0,0,0,1-.2c0-.08,0-.13,0-.15a.62.62,0,0,0-.17-.49.94.94,0,0,0-.65-.19,1,1,0,0,0-.59.14.89.89,0,0,0-.29.5l-.55-.08a1.34,1.34,0,0,1,.25-.58,1,1,0,0,1,.5-.34,2.52,2.52,0,0,1,1.47,0,.92.92,0,0,1,.39.26.79.79,0,0,1,.18.39,3.08,3.08,0,0,1,0,.53v.76a6.72,6.72,0,0,0,0,1,1.17,1.17,0,0,0,.14.41h-.6A1.61,1.61,0,0,1,52.46,58.6Zm-.05-1.27a3.93,3.93,0,0,1-.93.21,2.81,2.81,0,0,0-.5.12.44.44,0,0,0-.22.18.48.48,0,0,0-.08.28.52.52,0,0,0,.17.38.74.74,0,0,0,.51.15,1.11,1.11,0,0,0,.58-.15.8.8,0,0,0,.38-.39,1.41,1.41,0,0,0,.09-.57Z" transform="translate(1.43 -21.92)"/><path class="cls-3" d="M53.88,59V55.65h.51v.48a1.22,1.22,0,0,1,1.07-.56,1.43,1.43,0,0,1,.56.11,1,1,0,0,1,.39.29,1.13,1.13,0,0,1,.17.42,3.21,3.21,0,0,1,0,.56V59H56V57a1.67,1.67,0,0,0-.06-.52.6.6,0,0,0-.24-.28.74.74,0,0,0-.4-.1,1,1,0,0,0-.63.23,1.17,1.17,0,0,0-.26.88V59Z" transform="translate(1.43 -21.92)"/><path class="cls-3" d="M57.39,59.3l.55.08a.56.56,0,0,0,.2.38,1,1,0,0,0,.58.15,1.06,1.06,0,0,0,.61-.15.82.82,0,0,0,.29-.45,3.76,3.76,0,0,0,0-.73,1.18,1.18,0,0,1-.93.44,1.3,1.3,0,0,1-1.08-.5,2,2,0,0,1-.38-1.2,2.23,2.23,0,0,1,.18-.9,1.29,1.29,0,0,1,.5-.62,1.35,1.35,0,0,1,.78-.23,1.2,1.2,0,0,1,1,.49v-.41h.52v2.91a2.72,2.72,0,0,1-.16,1.12,1.11,1.11,0,0,1-.51.52,1.81,1.81,0,0,1-.85.19,1.59,1.59,0,0,1-1-.27A.92.92,0,0,1,57.39,59.3Zm.47-2a1.48,1.48,0,0,0,.26,1,.83.83,0,0,0,.66.31.81.81,0,0,0,.66-.31,1.77,1.77,0,0,0,0-1.88.87.87,0,0,0-.67-.31.79.79,0,0,0-.64.31A1.34,1.34,0,0,0,57.86,57.27Z" transform="translate(1.43 -21.92)"/><path class="cls-3" d="M63.41,57.93,64,58a1.43,1.43,0,0,1-.51.8,1.6,1.6,0,0,1-1,.29,1.56,1.56,0,0,1-1.17-.46,1.77,1.77,0,0,1-.43-1.28A1.89,1.89,0,0,1,61.35,56a1.52,1.52,0,0,1,1.14-.47,1.45,1.45,0,0,1,1.1.46,1.82,1.82,0,0,1,.43,1.3v.15H61.51a1.28,1.28,0,0,0,.31.85.93.93,0,0,0,.71.3.88.88,0,0,0,.53-.17A1,1,0,0,0,63.41,57.93ZM61.54,57h1.88a1.18,1.18,0,0,0-.22-.64.86.86,0,0,0-.7-.33.9.9,0,0,0-.67.27A1.07,1.07,0,0,0,61.54,57Z" transform="translate(1.43 -21.92)"/><path class="cls-3" d="M3.22,98.27H-.88V99.8h-.55V96.11h.55v1.54h4.1Z" transform="translate(1.43 -21.92)"/><path class="cls-3" d="M1.54,95.77a1.73,1.73,0,0,1-1.39-.52,1.69,1.69,0,0,1,.08-2.2,1.76,1.76,0,0,1,1.26-.44,2.2,2.2,0,0,1,1,.2,1.36,1.36,0,0,1,.58.56,1.64,1.64,0,0,1,.21.82,1.51,1.51,0,0,1-.45,1.14A1.84,1.84,0,0,1,1.54,95.77Zm0-.59a1.44,1.44,0,0,0,1-.28.93.93,0,0,0,.32-.71.91.91,0,0,0-.32-.71,1.48,1.48,0,0,0-1-.28,1.4,1.4,0,0,0-.95.28.95.95,0,0,0,0,1.42A1.42,1.42,0,0,0,1.54,95.18Z" transform="translate(1.43 -21.92)"/><path class="cls-3" d="M3.22,92H-.15v-.52H.36a1.41,1.41,0,0,1-.47-.36.6.6,0,0,1-.11-.37A1.12,1.12,0,0,1,0,90.12l.53.19a.84.84,0,0,0-.12.42.51.51,0,0,0,.11.34.58.58,0,0,0,.31.21,2.35,2.35,0,0,0,.67.1H3.22Z" transform="translate(1.43 -21.92)"/><path class="cls-3" d="M4.51,87.63H2.86a1.06,1.06,0,0,1,.32.37,1.13,1.13,0,0,1,.12.51,1.34,1.34,0,0,1-.48,1A1.89,1.89,0,0,1,1.51,90,2.17,2.17,0,0,1,.6,89.8,1.37,1.37,0,0,1,0,89.29a1.44,1.44,0,0,1-.2-.74,1.13,1.13,0,0,1,.52-1H-.15v-.51H4.51Zm-3,1.76a1.48,1.48,0,0,0,1-.27.84.84,0,0,0,.33-.66.8.8,0,0,0-.31-.63,1.46,1.46,0,0,0-.94-.26,1.52,1.52,0,0,0-1,.28.8.8,0,0,0-.34.65.78.78,0,0,0,.31.63A1.56,1.56,0,0,0,1.53,89.39Z" transform="translate(1.43 -21.92)"/><path class="cls-3" d="M3.22,84H2.73A1.23,1.23,0,0,1,3.3,85a1.31,1.31,0,0,1-.12.56A.88.88,0,0,1,2.9,86a1,1,0,0,1-.43.18,3.33,3.33,0,0,1-.53,0H-.15V85.6H1.72a3.77,3.77,0,0,0,.6,0,.6.6,0,0,0,.36-.23.75.75,0,0,0,.13-.43,1,1,0,0,0-.13-.48.74.74,0,0,0-.36-.32,1.63,1.63,0,0,0-.66-.1H-.15v-.57H3.22Z" transform="translate(1.43 -21.92)"/><path class="cls-3" d="M2.14,80.24l.07-.59a1.36,1.36,0,0,1,.8.52,1.54,1.54,0,0,1,.29,1,1.52,1.52,0,0,1-.46,1.17,1.77,1.77,0,0,1-1.27.44A1.86,1.86,0,0,1,.25,82.3a1.46,1.46,0,0,1-.47-1.14,1.41,1.41,0,0,1,.46-1.1,1.78,1.78,0,0,1,1.29-.43h.15v2.52a1.27,1.27,0,0,0,.85-.32.92.92,0,0,0,.3-.7.89.89,0,0,0-.17-.54A1.09,1.09,0,0,0,2.14,80.24Zm-.93,1.88V80.23a1.14,1.14,0,0,0-.63.22.88.88,0,0,0-.33.71.89.89,0,0,0,.26.66A1,1,0,0,0,1.21,82.12Z" transform="translate(1.43 -21.92)"/><path class="cls-3" d="M4.51,77.11H-1.43V75.85H-1v.69H4v-.69h.47Z" transform="translate(1.43 -21.92)"/><path class="cls-3" d="M3.22,75.25H-1.43v-.63l3.65-2.44H-1.43v-.59H3.22v.63L-.43,74.66H3.22Z" transform="translate(1.43 -21.92)"/><path class="cls-3" d="M.94,70.71a.74.74,0,0,1-.56-.24.76.76,0,0,1-.24-.56.75.75,0,0,1,.24-.57.74.74,0,0,1,.56-.24.75.75,0,0,1,.57.24.75.75,0,0,1,.24.57.76.76,0,0,1-.24.56A.75.75,0,0,1,.94,70.71Z" transform="translate(1.43 -21.92)"/><path class="cls-3" d="M3.22,68.35H-.15v-.51H.33a1.24,1.24,0,0,1-.4-.42,1.21,1.21,0,0,1-.15-.6,1.16,1.16,0,0,1,.15-.62.81.81,0,0,1,.44-.33,1.21,1.21,0,0,1-.59-1.05,1,1,0,0,1,.27-.77,1.2,1.2,0,0,1,.86-.27H3.22v.57H1.1a1.42,1.42,0,0,0-.49.06.44.44,0,0,0-.25.2A.64.64,0,0,0,.27,65a.79.79,0,0,0,.24.59,1,1,0,0,0,.75.24h2v.57H1a.92.92,0,0,0-.57.14.51.51,0,0,0-.19.45.81.81,0,0,0,.13.45.69.69,0,0,0,.37.3,2.12,2.12,0,0,0,.7.09H3.22Z" transform="translate(1.43 -21.92)"/><path class="cls-3" d="M4.51,62v1.26H4v-.69H-1v.69h-.47V62Z" transform="translate(1.43 -21.92)"/><rect class="繝後Μ_逋ｽ" x="24.14" y="90.97" width="41.46" height="16.58"/><path class="cls-3" d="M28.1,117.62l.62.16a2,2,0,0,1-.7,1.15,1.91,1.91,0,0,1-1.23.4,2.14,2.14,0,0,1-1.22-.31,1.81,1.81,0,0,1-.72-.88,3.24,3.24,0,0,1-.25-1.25,2.83,2.83,0,0,1,.28-1.27,2,2,0,0,1,.79-.82,2.28,2.28,0,0,1,1.13-.28,1.87,1.87,0,0,1,1.17.36,1.84,1.84,0,0,1,.67,1L28,116a1.4,1.4,0,0,0-.47-.74,1.2,1.2,0,0,0-.77-.23,1.52,1.52,0,0,0-.9.25,1.46,1.46,0,0,0-.51.69,3,3,0,0,0-.14.9,2.92,2.92,0,0,0,.17,1,1.35,1.35,0,0,0,.54.67,1.53,1.53,0,0,0,.79.21,1.39,1.39,0,0,0,.88-.29A1.57,1.57,0,0,0,28.1,117.62Z" transform="translate(1.43 -21.92)"/><path class="cls-3" d="M29.19,117.57a1.73,1.73,0,0,1,.52-1.39,1.69,1.69,0,0,1,2.2.08,1.74,1.74,0,0,1,.44,1.26,2.22,2.22,0,0,1-.2,1,1.39,1.39,0,0,1-.57.58,1.63,1.63,0,0,1-.81.21,1.48,1.48,0,0,1-1.14-.46A1.75,1.75,0,0,1,29.19,117.57Zm.59,0a1.44,1.44,0,0,0,.28,1,.94.94,0,0,0,1.42,0,1.43,1.43,0,0,0,.28-1,1.4,1.4,0,0,0-.28-1,.93.93,0,0,0-.71-.32.88.88,0,0,0-.71.32A1.42,1.42,0,0,0,29.78,117.57Z" transform="translate(1.43 -21.92)"/><path class="cls-3" d="M33,119.25v-3.37h.51v.48a1.21,1.21,0,0,1,1.07-.55,1.43,1.43,0,0,1,.56.1,1,1,0,0,1,.39.29,1.13,1.13,0,0,1,.17.42,2.44,2.44,0,0,1,0,.56v2.07h-.58v-2a1.67,1.67,0,0,0-.06-.52.55.55,0,0,0-.24-.28.72.72,0,0,0-.4-.1,1,1,0,0,0-.63.23,1.18,1.18,0,0,0-.26.88v1.84Z" transform="translate(1.43 -21.92)"/><path class="cls-3" d="M37.88,118.74l.08.51a2.37,2.37,0,0,1-.43,0,1,1,0,0,1-.48-.1.5.5,0,0,1-.24-.26,1.94,1.94,0,0,1-.07-.67v-1.94h-.42v-.45h.42v-.83l.56-.35v1.18h.58v.45H37.3v2a1,1,0,0,0,0,.31.36.36,0,0,0,.1.11.37.37,0,0,0,.2,0A1.24,1.24,0,0,0,37.88,118.74Z" transform="translate(1.43 -21.92)"/><path class="cls-3" d="M38.44,115.26v-.66H39v.66Zm0,4v-3.37H39v3.37Z" transform="translate(1.43 -21.92)"/><path class="cls-3" d="M39.88,119.25v-3.37h.52v.48a1.19,1.19,0,0,1,1.07-.55,1.47,1.47,0,0,1,.56.1.89.89,0,0,1,.38.29,1,1,0,0,1,.18.42,3.51,3.51,0,0,1,0,.56v2.07h-.57v-2a1.38,1.38,0,0,0-.07-.52.53.53,0,0,0-.23-.28.77.77,0,0,0-.4-.1.94.94,0,0,0-.63.23,1.14,1.14,0,0,0-.27.88v1.84Z" transform="translate(1.43 -21.92)"/><path class="cls-3" d="M45.71,119.25v-.49a1.25,1.25,0,0,1-1.07.57,1.31,1.31,0,0,1-.56-.12.88.88,0,0,1-.38-.28,1,1,0,0,1-.18-.43,3.07,3.07,0,0,1,0-.53v-2.09h.58v1.87a3.77,3.77,0,0,0,0,.6.63.63,0,0,0,.23.36.75.75,0,0,0,.43.13.92.92,0,0,0,.48-.14.68.68,0,0,0,.32-.35,1.91,1.91,0,0,0,.1-.66v-1.81h.57v3.37Z" transform="translate(1.43 -21.92)"/><path class="cls-3" d="M46.9,117.57a1.73,1.73,0,0,1,.52-1.39,1.69,1.69,0,0,1,2.2.08,1.74,1.74,0,0,1,.44,1.26,2.22,2.22,0,0,1-.2,1,1.39,1.39,0,0,1-.57.58,1.63,1.63,0,0,1-.81.21,1.48,1.48,0,0,1-1.14-.46A1.75,1.75,0,0,1,46.9,117.57Zm.59,0a1.44,1.44,0,0,0,.28,1,.94.94,0,0,0,1.42,0,1.43,1.43,0,0,0,.28-1,1.4,1.4,0,0,0-.28-1,.93.93,0,0,0-.71-.32.88.88,0,0,0-.71.32A1.42,1.42,0,0,0,47.49,117.57Z" transform="translate(1.43 -21.92)"/><path class="cls-3" d="M52.94,119.25v-.49a1.25,1.25,0,0,1-1.07.57,1.31,1.31,0,0,1-.56-.12.88.88,0,0,1-.38-.28,1,1,0,0,1-.18-.43,3.07,3.07,0,0,1,0-.53v-2.09h.58v1.87a3.77,3.77,0,0,0,0,.6.63.63,0,0,0,.23.36.75.75,0,0,0,.43.13.92.92,0,0,0,.48-.14.68.68,0,0,0,.32-.35,1.91,1.91,0,0,0,.1-.66v-1.81h.57v3.37Z" transform="translate(1.43 -21.92)"/><path class="cls-3" d="M54.11,118.25l.57-.09a.81.81,0,0,0,.26.52.94.94,0,0,0,.61.18.9.9,0,0,0,.59-.16.5.5,0,0,0,.19-.38.34.34,0,0,0-.17-.3,2.64,2.64,0,0,0-.59-.2,4.57,4.57,0,0,1-.87-.27.81.81,0,0,1-.49-.77.89.89,0,0,1,.38-.74,1.16,1.16,0,0,1,.37-.17,1.88,1.88,0,0,1,.49-.06,1.91,1.91,0,0,1,.7.11,1,1,0,0,1,.44.31,1.31,1.31,0,0,1,.2.52l-.56.08a.64.64,0,0,0-.22-.41.8.8,0,0,0-.52-.14.91.91,0,0,0-.56.13.36.36,0,0,0-.17.3.31.31,0,0,0,.07.2.53.53,0,0,0,.22.15l.5.15a7.22,7.22,0,0,1,.85.26.94.94,0,0,1,.38.3.85.85,0,0,1,.13.49,1,1,0,0,1-.16.54,1.07,1.07,0,0,1-.49.39,1.73,1.73,0,0,1-.71.14,1.61,1.61,0,0,1-1-.27A1.34,1.34,0,0,1,54.11,118.25Z" transform="translate(1.43 -21.92)"/><path class="cls-3" d="M24.7,127.05v-3.37h.52v.51a1.41,1.41,0,0,1,.36-.47.6.6,0,0,1,.37-.11,1.12,1.12,0,0,1,.58.18l-.19.53a.84.84,0,0,0-.42-.12.51.51,0,0,0-.34.11.58.58,0,0,0-.21.31,2,2,0,0,0-.1.67v1.76Z" transform="translate(1.43 -21.92)"/><path class="cls-3" d="M29.08,127.05v-.49a1.23,1.23,0,0,1-1.07.57,1.34,1.34,0,0,1-.56-.12.88.88,0,0,1-.38-.28,1.3,1.3,0,0,1-.18-.43,3.33,3.33,0,0,1,0-.53v-2.09h.57v1.87a2.63,2.63,0,0,0,0,.6.61.61,0,0,0,.22.36.76.76,0,0,0,.44.13.92.92,0,0,0,.48-.14.73.73,0,0,0,.32-.35,1.94,1.94,0,0,0,.09-.66v-1.81h.57v3.37Z" transform="translate(1.43 -21.92)"/><path class="cls-3" d="M30.49,127.05v-3.37H31v.48a1.21,1.21,0,0,1,1.07-.55,1.43,1.43,0,0,1,.56.1A.93.93,0,0,1,33,124a1.13,1.13,0,0,1,.17.42,2.44,2.44,0,0,1,0,.56v2.07h-.57v-2a1.62,1.62,0,0,0-.07-.52.6.6,0,0,0-.24-.28.72.72,0,0,0-.4-.1,1,1,0,0,0-.63.23,1.18,1.18,0,0,0-.26.88v1.84Z" transform="translate(1.43 -21.92)"/><path class="cls-3" d="M34.1,127.05v-3.37h.52v.48a1.19,1.19,0,0,1,1.07-.55,1.47,1.47,0,0,1,.56.1.89.89,0,0,1,.38.29,1,1,0,0,1,.18.42,3.51,3.51,0,0,1,0,.56v2.07h-.57v-2a1.38,1.38,0,0,0-.07-.52.53.53,0,0,0-.23-.28.77.77,0,0,0-.4-.1,1,1,0,0,0-.63.23,1.14,1.14,0,0,0-.27.88v1.84Z" transform="translate(1.43 -21.92)"/><path class="cls-3" d="M37.72,123.06v-.66h.57v.66Zm0,4v-3.37h.57v3.37Z" transform="translate(1.43 -21.92)"/><path class="cls-3" d="M39.16,127.05v-3.37h.52v.48a1.19,1.19,0,0,1,1.07-.55,1.47,1.47,0,0,1,.56.1.89.89,0,0,1,.38.29,1,1,0,0,1,.18.42,3.51,3.51,0,0,1,0,.56v2.07h-.57v-2a1.38,1.38,0,0,0-.07-.52.53.53,0,0,0-.23-.28.77.77,0,0,0-.4-.1.92.92,0,0,0-.63.23,1.14,1.14,0,0,0-.27.88v1.84Z" transform="translate(1.43 -21.92)"/><path class="cls-3" d="M42.67,127.33l.56.08a.5.5,0,0,0,.19.38A1,1,0,0,0,44,128a1,1,0,0,0,.61-.16.79.79,0,0,0,.3-.45,3.76,3.76,0,0,0,0-.73,1.19,1.19,0,0,1-.94.44,1.24,1.24,0,0,1-1.07-.5,1.87,1.87,0,0,1-.38-1.2,2.35,2.35,0,0,1,.17-.89,1.46,1.46,0,0,1,.51-.63,1.35,1.35,0,0,1,.78-.22,1.22,1.22,0,0,1,1,.48v-.41h.53v2.92a2.7,2.7,0,0,1-.16,1.11,1.22,1.22,0,0,1-.51.52,1.74,1.74,0,0,1-.86.19,1.61,1.61,0,0,1-1-.27A.91.91,0,0,1,42.67,127.33Zm.47-2a1.41,1.41,0,0,0,.27,1,.81.81,0,0,0,.66.31.85.85,0,0,0,.66-.3,1.76,1.76,0,0,0,0-1.89.83.83,0,0,0-.66-.31.81.81,0,0,0-.65.31A1.35,1.35,0,0,0,43.14,125.31Z" transform="translate(1.43 -21.92)"/><path class="cls-3" d="M48.19,127.05v-3.37h.51v.51a1.55,1.55,0,0,1,.37-.47.59.59,0,0,1,.36-.11,1.12,1.12,0,0,1,.59.18l-.19.53a.84.84,0,0,0-.42-.12.51.51,0,0,0-.34.11.58.58,0,0,0-.21.31,2,2,0,0,0-.1.67v1.76Z" transform="translate(1.43 -21.92)"/><path class="cls-3" d="M52.56,126.64A2.17,2.17,0,0,1,52,127a1.9,1.9,0,0,1-.63.11,1.2,1.2,0,0,1-.85-.27.91.91,0,0,1-.3-.7,1,1,0,0,1,.11-.45,1,1,0,0,1,.3-.33,1.28,1.28,0,0,1,.41-.18,4.17,4.17,0,0,1,.51-.09,5,5,0,0,0,1-.2,1.14,1.14,0,0,0,0-.15.63.63,0,0,0-.17-.49.94.94,0,0,0-.65-.19,1,1,0,0,0-.59.14.89.89,0,0,0-.29.5l-.55-.08a1.34,1.34,0,0,1,.25-.58,1.11,1.11,0,0,1,.5-.34,2.27,2.27,0,0,1,.77-.11,2,2,0,0,1,.7.1.92.92,0,0,1,.4.25.87.87,0,0,1,.17.39,3.08,3.08,0,0,1,0,.53v.76a6.89,6.89,0,0,0,0,1,1.19,1.19,0,0,0,.14.4h-.59A1.23,1.23,0,0,1,52.56,126.64Zm-.05-1.28a4.24,4.24,0,0,1-.93.22,2.25,2.25,0,0,0-.5.11.41.41,0,0,0-.22.19.43.43,0,0,0-.08.27.47.47,0,0,0,.17.38.76.76,0,0,0,.51.15,1.21,1.21,0,0,0,.58-.14.92.92,0,0,0,.38-.4,1.41,1.41,0,0,0,.09-.57Z" transform="translate(1.43 -21.92)"/><path class="cls-3" d="M54,127.05v-3.37h.51v.48a1.21,1.21,0,0,1,1.07-.55,1.43,1.43,0,0,1,.56.1,1,1,0,0,1,.39.29,1.13,1.13,0,0,1,.17.42,2.44,2.44,0,0,1,0,.56v2.07h-.58v-2a1.67,1.67,0,0,0-.06-.52.6.6,0,0,0-.24-.28.72.72,0,0,0-.4-.1,1,1,0,0,0-.63.23,1.18,1.18,0,0,0-.26.88v1.84Z" transform="translate(1.43 -21.92)"/><path class="cls-3" d="M57.49,127.33l.55.08a.54.54,0,0,0,.2.38,1,1,0,0,0,.58.16,1.08,1.08,0,0,0,.61-.16.82.82,0,0,0,.29-.45,3.76,3.76,0,0,0,0-.73,1.18,1.18,0,0,1-.93.44,1.28,1.28,0,0,1-1.08-.5,1.93,1.93,0,0,1-.38-1.2,2.18,2.18,0,0,1,.18-.89,1.37,1.37,0,0,1,.5-.63,1.35,1.35,0,0,1,.78-.22,1.22,1.22,0,0,1,1,.48v-.41h.52v2.92a2.7,2.7,0,0,1-.16,1.11,1.14,1.14,0,0,1-.5.52,1.76,1.76,0,0,1-.86.19,1.59,1.59,0,0,1-1-.27A.91.91,0,0,1,57.49,127.33Zm.47-2a1.47,1.47,0,0,0,.26,1,.87.87,0,0,0,1.32,0,1.79,1.79,0,0,0,0-1.89.87.87,0,0,0-.67-.31.79.79,0,0,0-.64.31A1.35,1.35,0,0,0,58,125.31Z" transform="translate(1.43 -21.92)"/><path class="cls-3" d="M63.51,126l.59.07a1.43,1.43,0,0,1-.51.8,1.6,1.6,0,0,1-1,.29,1.52,1.52,0,0,1-1.17-.46A1.76,1.76,0,0,1,61,125.4a1.86,1.86,0,0,1,.43-1.32,1.47,1.47,0,0,1,1.14-.47,1.45,1.45,0,0,1,1.11.46,1.82,1.82,0,0,1,.42,1.29v.15H61.61a1.26,1.26,0,0,0,.31.85.93.93,0,0,0,.71.3.88.88,0,0,0,.53-.17A1,1,0,0,0,63.51,126ZM61.64,125h1.88a1.14,1.14,0,0,0-.22-.63.83.83,0,0,0-.7-.33.9.9,0,0,0-.67.26A1.07,1.07,0,0,0,61.64,125Z" transform="translate(1.43 -21.92)"/><path class="cls-3" d="M44.76,150.56l.58-.05a1.2,1.2,0,0,0,.19.57,1,1,0,0,0,.47.36,1.8,1.8,0,0,0,.71.14,1.67,1.67,0,0,0,.62-.11.91.91,0,0,0,.41-.28.76.76,0,0,0,.13-.4.6.6,0,0,0-.13-.38.93.93,0,0,0-.42-.28c-.12,0-.4-.12-.83-.23a4.51,4.51,0,0,1-.9-.29,1.22,1.22,0,0,1-.49-.43,1,1,0,0,1-.17-.58,1.19,1.19,0,0,1,.79-1.12,2.11,2.11,0,0,1,.85-.16,2.14,2.14,0,0,1,.91.17,1.25,1.25,0,0,1,.61.49,1.4,1.4,0,0,1,.23.73l-.59,0a1,1,0,0,0-.32-.66,1.62,1.62,0,0,0-1.63,0,.6.6,0,0,0-.25.49.52.52,0,0,0,.18.41,2.39,2.39,0,0,0,.93.33,7.58,7.58,0,0,1,1,.3,1.41,1.41,0,0,1,.6.48,1.14,1.14,0,0,1,.19.66,1.3,1.3,0,0,1-.21.7,1.4,1.4,0,0,1-.61.51,2.19,2.19,0,0,1-.9.18,2.76,2.76,0,0,1-1.06-.18,1.54,1.54,0,0,1-.67-.56A1.48,1.48,0,0,1,44.76,150.56Z" transform="translate(1.43 -21.92)"/><path class="cls-3" d="M49.23,153.34v-4.66h.52v.44a1.37,1.37,0,0,1,.41-.39,1.26,1.26,0,0,1,.57-.13,1.34,1.34,0,0,1,.76.23,1.35,1.35,0,0,1,.5.62,2.35,2.35,0,0,1,.16.89,2.27,2.27,0,0,1-.18.93,1.49,1.49,0,0,1-.54.64,1.45,1.45,0,0,1-.75.22,1.07,1.07,0,0,1-.51-.12,1.25,1.25,0,0,1-.37-.31v1.64Zm.52-3a1.46,1.46,0,0,0,.26,1,.82.82,0,0,0,.64.31.84.84,0,0,0,.65-.32,1.55,1.55,0,0,0,.27-1,1.5,1.5,0,0,0-.27-1,.79.79,0,0,0-.63-.32.83.83,0,0,0-.64.34A1.52,1.52,0,0,0,49.75,150.38Z" transform="translate(1.43 -21.92)"/><path class="cls-3" d="M55.15,151l.59.07a1.39,1.39,0,0,1-.52.8,1.54,1.54,0,0,1-1,.29,1.51,1.51,0,0,1-1.17-.46,1.77,1.77,0,0,1-.44-1.28,1.9,1.9,0,0,1,.44-1.32,1.49,1.49,0,0,1,1.14-.47,1.45,1.45,0,0,1,1.1.46,1.82,1.82,0,0,1,.43,1.3v.15H53.24a1.27,1.27,0,0,0,.32.85.92.92,0,0,0,.7.3.89.89,0,0,0,.54-.17A1.09,1.09,0,0,0,55.15,151ZM53.27,150h1.89a1.21,1.21,0,0,0-.22-.64.88.88,0,0,0-.71-.33.9.9,0,0,0-.66.27A1,1,0,0,0,53.27,150Z" transform="translate(1.43 -21.92)"/><path class="cls-3" d="M58.77,151l.59.07a1.5,1.5,0,0,1-.52.8,1.55,1.55,0,0,1-1,.29,1.52,1.52,0,0,1-1.17-.46,1.77,1.77,0,0,1-.43-1.28,1.85,1.85,0,0,1,.44-1.32,1.58,1.58,0,0,1,2.24,0,1.86,1.86,0,0,1,.42,1.3v.15H56.86a1.26,1.26,0,0,0,.31.85.94.94,0,0,0,.71.3.84.84,0,0,0,.53-.17A1.1,1.1,0,0,0,58.77,151ZM56.89,150h1.88a1.21,1.21,0,0,0-.21-.64.93.93,0,0,0-1.37-.06A1,1,0,0,0,56.89,150Z" transform="translate(1.43 -21.92)"/><path class="cls-3" d="M62.26,152.05v-.42a1.05,1.05,0,0,1-.94.5,1.37,1.37,0,0,1-.74-.22,1.5,1.5,0,0,1-.53-.63,2.17,2.17,0,0,1-.18-.91,2.47,2.47,0,0,1,.16-.92,1.46,1.46,0,0,1,.51-.63,1.37,1.37,0,0,1,.75-.22,1.13,1.13,0,0,1,.93.47V147.4h.57v4.65Zm-1.81-1.68a1.44,1.44,0,0,0,.28,1,.82.82,0,0,0,.64.32.81.81,0,0,0,.64-.31,1.41,1.41,0,0,0,.26-.93,1.59,1.59,0,0,0-.27-1,.82.82,0,0,0-.65-.32.78.78,0,0,0-.64.31A1.53,1.53,0,0,0,60.45,150.37Z" transform="translate(1.43 -21.92)"/><path class="cls-3" d="M65.51,153.34V147.4h1.26v.47h-.69v5h.69v.47Z" transform="translate(1.43 -21.92)"/><path class="cls-3" d="M67.29,152.05v-3.37h.52v.51a1.31,1.31,0,0,1,.36-.47.61.61,0,0,1,.37-.12,1.11,1.11,0,0,1,.58.19l-.19.53a.86.86,0,0,0-.42-.13.52.52,0,0,0-.34.12.58.58,0,0,0-.21.31,2.35,2.35,0,0,0-.1.67v1.76Z" transform="translate(1.43 -21.92)"/><path class="cls-3" d="M69,152.13l1.34-4.81h.46l-1.34,4.81Z" transform="translate(1.43 -21.92)"/><path class="cls-3" d="M71.27,152.05v-3.37h.51v.47a1.31,1.31,0,0,1,.42-.39,1.12,1.12,0,0,1,.6-.16,1.16,1.16,0,0,1,.62.16.86.86,0,0,1,.34.43,1.2,1.2,0,0,1,1-.59,1.05,1.05,0,0,1,.77.28,1.2,1.2,0,0,1,.27.86v2.31h-.57v-2.12a1.49,1.49,0,0,0-.06-.5.42.42,0,0,0-.2-.24.62.62,0,0,0-.34-.09.79.79,0,0,0-.59.24,1,1,0,0,0-.24.75v2h-.57v-2.19a.92.92,0,0,0-.14-.57.51.51,0,0,0-.45-.19.81.81,0,0,0-.45.13.7.7,0,0,0-.3.37,2.12,2.12,0,0,0-.09.7v1.75Z" transform="translate(1.43 -21.92)"/><path class="cls-3" d="M76.69,148.06v-.66h.57v.66Zm0,4v-3.37h.57v3.37Z" transform="translate(1.43 -21.92)"/><path class="cls-3" d="M78.13,152.05v-3.37h.51v.48a1.23,1.23,0,0,1,1.08-.56,1.47,1.47,0,0,1,.56.11,1,1,0,0,1,.38.29,1.33,1.33,0,0,1,.18.42,3.51,3.51,0,0,1,0,.56v2.07H80.3V150a1.62,1.62,0,0,0-.07-.52.5.5,0,0,0-.24-.28.71.71,0,0,0-.39-.1.92.92,0,0,0-.63.23,1.14,1.14,0,0,0-.27.88v1.84Z" transform="translate(1.43 -21.92)"/><path class="cls-3" d="M82.7,153.34H81.44v-.47h.69v-5h-.69v-.47H82.7Z" transform="translate(1.43 -21.92)"/></g></svg>