<svg xmlns="http://www.w3.org/2000/svg" viewBox="0 0 116.18 131.26"><defs><style>.cls-1,.cls-2,.cls-3,.cls-4,.繝医Ν繧ｯ繧ｰ繝ｩ繝廟繧ｰ繝ｬ繝ｼ邱,.邱喟0\.5pt-4{fill:none;}.cls-1,.cls-3,.邱喟0\.5pt-4{stroke:#231815;}.cls-1{stroke-linejoin:round;stroke-width:0.14px;}.cls-2,.cls-4,.繝医Ν繧ｯ繧ｰ繝ｩ繝廟繧ｰ繝ｬ繝ｼ邱{stroke:#9fa0a0;}.cls-2,.邱喟0\.5pt-4{stroke-miterlimit:10;}.cls-2{stroke-width:1px;stroke-dasharray:3.1 1.5;}.cls-4,.繝医Ν繧ｯ繧ｰ繝ｩ繝廟繧ｰ繝ｬ繝ｼ邱{stroke-width:3px;}.cls-4{stroke-linecap:square;}.cls-5{fill:#231815;}.繝後Μ_逋ｽ-2{fill:#fff;}.邱喟0\.5pt-4{stroke-width:0.5px;}</style></defs><g id="Illust"><line class="cls-1" x1="19.86" y1="99.19" x2="108.98" y2="99.19"/><line class="cls-2" x1="94.27" y1="93.73" x2="94.27" y2="115.38"/><line class="cls-1" x1="19.86" y1="82.98" x2="108.98" y2="82.98"/><line class="cls-1" x1="19.86" y1="66.82" x2="108.98" y2="66.82"/><line class="cls-1" x1="19.86" y1="50.6" x2="108.98" y2="50.6"/><line class="cls-1" x1="19.86" y1="34.39" x2="108.98" y2="34.39"/><line class="cls-1" x1="19.86" y1="18.23" x2="108.98" y2="18.23"/><line class="cls-1" x1="49.62" y1="2.02" x2="49.62" y2="115.4"/><line class="cls-1" x1="79.38" y1="2.02" x2="79.38" y2="115.4"/><polyline class="繝医Ν繧ｯ繧ｰ繝ｩ繝廟繧ｰ繝ｬ繝ｼ邱" points="19.87 88.34 34.75 88.34 49.63 88.34 64.51 88.34 79.39 88.34 94.27 93.72 109.15 97.35"/><polyline class="cls-3" points="19.87 88.34 34.75 88.34 49.63 88.34 64.51 88.34 79.39 88.34 94.27 93.72 109.15 97.35"/><polyline class="cls-4" points="19.87 34.21 79.39 34.21 109.15 50.63"/><polyline class="cls-3" points="19.87 34.21 76.42 34.21 79.39 35.92 109.15 53.84"/><path class="cls-5" d="M17.24,141.38a3.52,3.52,0,0,1,.13-1,1.33,1.33,0,0,1,.39-.59,1.14,1.14,0,0,1,1.15-.1.9.9,0,0,1,.36.34,1.73,1.73,0,0,1,.23.53,3.72,3.72,0,0,1,.08.84,3.52,3.52,0,0,1-.13,1,1.31,1.31,0,0,1-.39.6,1,1,0,0,1-.65.21,1,1,0,0,1-.81-.37A2.33,2.33,0,0,1,17.24,141.38Zm.45,0a2.25,2.25,0,0,0,.21,1.18.59.59,0,0,0,1,0,2.27,2.27,0,0,0,.2-1.18,2.23,2.23,0,0,0-.2-1.17.63.63,0,0,0-.52-.29.56.56,0,0,0-.48.26A2.24,2.24,0,0,0,17.69,141.38Z" transform="translate(1.43 -22.08)"/><path class="cls-5" d="M44.83,143.15h-.44v-2.8a2.18,2.18,0,0,1-.42.3,2.81,2.81,0,0,1-.46.23v-.43a2.42,2.42,0,0,0,.65-.42,1.76,1.76,0,0,0,.39-.47h.28Z" transform="translate(1.43 -22.08)"/><path class="cls-5" d="M46,141.38a3.2,3.2,0,0,1,.13-1,1.24,1.24,0,0,1,.38-.59,1,1,0,0,1,.65-.21A.95.95,0,0,1,48,140a2,2,0,0,1,.22.53,3.72,3.72,0,0,1,.08.84,3.2,3.2,0,0,1-.13,1,1.31,1.31,0,0,1-.39.6,1,1,0,0,1-.65.21,1,1,0,0,1-.81-.37A2.34,2.34,0,0,1,46,141.38Zm.45,0a2.38,2.38,0,0,0,.2,1.18.59.59,0,0,0,1,0,2.25,2.25,0,0,0,.21-1.18,2.2,2.2,0,0,0-.21-1.17.62.62,0,0,0-.51-.29.58.58,0,0,0-.49.26A2.26,2.26,0,0,0,46.44,141.38Z" transform="translate(1.43 -22.08)"/><path class="cls-5" d="M48.74,141.38a3.2,3.2,0,0,1,.13-1,1.18,1.18,0,0,1,.39-.59,1,1,0,0,1,.64-.21.95.95,0,0,1,.87.45,1.73,1.73,0,0,1,.22.53,3.72,3.72,0,0,1,.08.84,3.2,3.2,0,0,1-.13,1,1.23,1.23,0,0,1-.39.6,1.09,1.09,0,0,1-1.46-.16A2.34,2.34,0,0,1,48.74,141.38Zm.45,0a2.38,2.38,0,0,0,.2,1.18.59.59,0,0,0,1,0,2.25,2.25,0,0,0,.21-1.18,2.2,2.2,0,0,0-.21-1.17.62.62,0,0,0-.51-.29.59.59,0,0,0-.49.26A2.26,2.26,0,0,0,49.19,141.38Z" transform="translate(1.43 -22.08)"/><path class="cls-5" d="M51.55,141.38a3.2,3.2,0,0,1,.13-1,1.18,1.18,0,0,1,.39-.59,1,1,0,0,1,.64-.21,1,1,0,0,1,.51.11,1.06,1.06,0,0,1,.36.34,1.73,1.73,0,0,1,.22.53,3.72,3.72,0,0,1,.08.84,3.2,3.2,0,0,1-.13,1,1.23,1.23,0,0,1-.39.6,1.09,1.09,0,0,1-1.46-.16A2.34,2.34,0,0,1,51.55,141.38Zm.45,0a2.38,2.38,0,0,0,.2,1.18.62.62,0,0,0,.51.29.6.6,0,0,0,.51-.29,2.25,2.25,0,0,0,.21-1.18,2.2,2.2,0,0,0-.21-1.17.61.61,0,0,0-.51-.29.56.56,0,0,0-.48.26A2.15,2.15,0,0,0,52,141.38Z" transform="translate(1.43 -22.08)"/><path class="cls-5" d="M75.78,142.73v.42H73.41a1.06,1.06,0,0,1,0-.31,1.58,1.58,0,0,1,.29-.47,4,4,0,0,1,.58-.54,5.35,5.35,0,0,0,.79-.76,1,1,0,0,0,.2-.53.58.58,0,0,0-.19-.44.65.65,0,0,0-.48-.18.69.69,0,0,0-.51.19.7.7,0,0,0-.19.53l-.46,0a1.16,1.16,0,0,1,.35-.77,1.21,1.21,0,0,1,.82-.26,1.13,1.13,0,0,1,.81.28.94.94,0,0,1,.3.71,1.06,1.06,0,0,1-.09.42,1.33,1.33,0,0,1-.29.44,7.63,7.63,0,0,1-.67.63,5.24,5.24,0,0,0-.51.45,1.33,1.33,0,0,0-.19.24Z" transform="translate(1.43 -22.08)"/><path class="cls-5" d="M76.28,141.38a3.2,3.2,0,0,1,.13-1,1.33,1.33,0,0,1,.39-.59,1.14,1.14,0,0,1,1.15-.1.9.9,0,0,1,.36.34,1.73,1.73,0,0,1,.22.53,4.23,4.23,0,0,1,0,1.86,1.22,1.22,0,0,1-.38.6,1,1,0,0,1-.65.21,1,1,0,0,1-.82-.37A2.41,2.41,0,0,1,76.28,141.38Zm.45,0a2.25,2.25,0,0,0,.21,1.18.58.58,0,0,0,1,0,2.25,2.25,0,0,0,.21-1.18,2.2,2.2,0,0,0-.21-1.17.6.6,0,0,0-.51-.29.56.56,0,0,0-.48.26A2.24,2.24,0,0,0,76.73,141.38Z" transform="translate(1.43 -22.08)"/><path class="cls-5" d="M79,141.38a3.2,3.2,0,0,1,.13-1,1.33,1.33,0,0,1,.39-.59,1.14,1.14,0,0,1,1.15-.1.9.9,0,0,1,.36.34,1.73,1.73,0,0,1,.22.53,4.23,4.23,0,0,1,0,1.86,1.22,1.22,0,0,1-.38.6,1.1,1.1,0,0,1-1.47-.16A2.41,2.41,0,0,1,79,141.38Zm.45,0a2.25,2.25,0,0,0,.21,1.18.6.6,0,0,0,.51.29.62.62,0,0,0,.51-.29,2.38,2.38,0,0,0,.2-1.18,2.34,2.34,0,0,0-.2-1.17.63.63,0,0,0-.52-.29.56.56,0,0,0-.48.26A2.24,2.24,0,0,0,79.48,141.38Z" transform="translate(1.43 -22.08)"/><path class="cls-5" d="M81.84,141.38a3.2,3.2,0,0,1,.13-1,1.33,1.33,0,0,1,.39-.59,1.14,1.14,0,0,1,1.15-.1.9.9,0,0,1,.36.34,1.51,1.51,0,0,1,.22.53,4.23,4.23,0,0,1,0,1.86,1.22,1.22,0,0,1-.38.6,1.1,1.1,0,0,1-1.47-.16A2.41,2.41,0,0,1,81.84,141.38Zm.45,0a2.25,2.25,0,0,0,.21,1.18.59.59,0,0,0,1,0,2.38,2.38,0,0,0,.2-1.18,2.34,2.34,0,0,0-.2-1.17.63.63,0,0,0-.52-.29.56.56,0,0,0-.48.26A2.24,2.24,0,0,0,82.29,141.38Z" transform="translate(1.43 -22.08)"/><path class="cls-5" d="M104.05,142.21l.44-.06a1,1,0,0,0,.26.54.71.71,0,0,0,1-.06.69.69,0,0,0,.22-.53.69.69,0,0,0-.2-.5.68.68,0,0,0-.5-.19,1,1,0,0,0-.31.05l0-.39H105a.88.88,0,0,0,.5-.14.51.51,0,0,0,.23-.45.53.53,0,0,0-.17-.4.57.57,0,0,0-.42-.16.6.6,0,0,0-.43.16.9.9,0,0,0-.22.48l-.44-.08a1.16,1.16,0,0,1,.37-.68,1.07,1.07,0,0,1,.71-.24,1.19,1.19,0,0,1,.54.12,1,1,0,0,1,.38.34.88.88,0,0,1,.13.47.72.72,0,0,1-.13.42.77.77,0,0,1-.36.3.82.82,0,0,1,.49.31.88.88,0,0,1,.17.57,1.05,1.05,0,0,1-.34.8,1.18,1.18,0,0,1-.86.32,1.08,1.08,0,0,1-.78-.28A1.07,1.07,0,0,1,104.05,142.21Z" transform="translate(1.43 -22.08)"/><path class="cls-5" d="M106.86,141.38a3.2,3.2,0,0,1,.13-1,1.33,1.33,0,0,1,.39-.59,1.14,1.14,0,0,1,1.15-.1.9.9,0,0,1,.36.34,1.73,1.73,0,0,1,.22.53,4.23,4.23,0,0,1,0,1.86,1.22,1.22,0,0,1-.38.6,1.1,1.1,0,0,1-1.47-.16A2.41,2.41,0,0,1,106.86,141.38Zm.45,0a2.25,2.25,0,0,0,.21,1.18.6.6,0,0,0,.51.29.62.62,0,0,0,.51-.29,2.38,2.38,0,0,0,.2-1.18,2.34,2.34,0,0,0-.2-1.17.63.63,0,0,0-.52-.29.56.56,0,0,0-.48.26A2.24,2.24,0,0,0,107.31,141.38Z" transform="translate(1.43 -22.08)"/><path class="cls-5" d="M109.61,141.38a3.2,3.2,0,0,1,.13-1,1.33,1.33,0,0,1,.39-.59,1.14,1.14,0,0,1,1.15-.1.9.9,0,0,1,.36.34,1.51,1.51,0,0,1,.22.53,4.23,4.23,0,0,1,0,1.86,1.22,1.22,0,0,1-.38.6,1.1,1.1,0,0,1-1.47-.16A2.41,2.41,0,0,1,109.61,141.38Zm.45,0a2.25,2.25,0,0,0,.21,1.18.59.59,0,0,0,1,0,2.38,2.38,0,0,0,.2-1.18,2.34,2.34,0,0,0-.2-1.17.63.63,0,0,0-.52-.29.56.56,0,0,0-.48.26A2.24,2.24,0,0,0,110.06,141.38Z" transform="translate(1.43 -22.08)"/><path class="cls-5" d="M112.42,141.38a3.2,3.2,0,0,1,.13-1,1.33,1.33,0,0,1,.39-.59,1.14,1.14,0,0,1,1.15-.1.9.9,0,0,1,.36.34,1.51,1.51,0,0,1,.22.53,3.22,3.22,0,0,1,.08.84,3.56,3.56,0,0,1-.12,1,1.31,1.31,0,0,1-.39.6,1.1,1.1,0,0,1-1.47-.16A2.41,2.41,0,0,1,112.42,141.38Zm.45,0a2.25,2.25,0,0,0,.21,1.18.59.59,0,0,0,1,0,2.38,2.38,0,0,0,.2-1.18,2.34,2.34,0,0,0-.2-1.17.63.63,0,0,0-.52-.29.56.56,0,0,0-.48.26A2.24,2.24,0,0,0,112.87,141.38Z" transform="translate(1.43 -22.08)"/><rect class="繝後Μ_逋ｽ-2" x="109.15" y="2.02" width="2.83" height="113.39"/><rect class="繝後Μ_逋ｽ-2" x="17.02" y="2.02" width="2.83" height="113.39"/><rect class="邱喟0.5pt-4" x="19.85" y="2.02" width="89.29" height="113.39"/><path class="cls-5" d="M9.79,122.68v.42H7.42a1.06,1.06,0,0,1,0-.31,1.58,1.58,0,0,1,.29-.47,5.35,5.35,0,0,1,.58-.55,4.92,4.92,0,0,0,.79-.75,1,1,0,0,0,.2-.53.59.59,0,0,0-.18-.44.77.77,0,0,0-1,0,.7.7,0,0,0-.19.53l-.45,0a1.11,1.11,0,0,1,.34-.77,1.21,1.21,0,0,1,.82-.27,1.13,1.13,0,0,1,.81.29.94.94,0,0,1,.3.71,1.25,1.25,0,0,1-.08.42,1.72,1.72,0,0,1-.3.44,7.63,7.63,0,0,1-.67.63,5.24,5.24,0,0,0-.51.45,1.33,1.33,0,0,0-.19.24Z" transform="translate(1.43 -22.08)"/><path class="cls-5" d="M10.29,121.33a3.2,3.2,0,0,1,.13-1,1.31,1.31,0,0,1,.39-.6,1.11,1.11,0,0,1,1.15-.09,1,1,0,0,1,.36.33,1.91,1.91,0,0,1,.22.54,4.23,4.23,0,0,1,0,1.86,1.22,1.22,0,0,1-.38.6,1.1,1.1,0,0,1-1.47-.16A2.41,2.41,0,0,1,10.29,121.33Zm.45,0a2.25,2.25,0,0,0,.21,1.18.6.6,0,0,0,.51.29.61.61,0,0,0,.51-.3,3.52,3.52,0,0,0,0-2.34.6.6,0,0,0-.52-.29.56.56,0,0,0-.48.25A2.31,2.31,0,0,0,10.74,121.33Z" transform="translate(1.43 -22.08)"/><path class="cls-5" d="M13.29,123.1v-.5h.5v.5Z" transform="translate(1.43 -22.08)"/><path class="cls-5" d="M14.43,121.33a3.52,3.52,0,0,1,.13-1,1.31,1.31,0,0,1,.39-.6,1,1,0,0,1,.65-.21,1.07,1.07,0,0,1,.51.12,1.13,1.13,0,0,1,.36.33,2.25,2.25,0,0,1,.22.54,3.72,3.72,0,0,1,.08.84,3.2,3.2,0,0,1-.13,1,1.31,1.31,0,0,1-.39.6,1,1,0,0,1-.65.21,1,1,0,0,1-.81-.37A2.33,2.33,0,0,1,14.43,121.33Zm.46,0a2.27,2.27,0,0,0,.2,1.18.62.62,0,0,0,.51.29.61.61,0,0,0,.51-.3,3.36,3.36,0,0,0,0-2.34.6.6,0,0,0-.51-.29.56.56,0,0,0-.49.25A2.33,2.33,0,0,0,14.89,121.33Z" transform="translate(1.43 -22.08)"/><path class="cls-5" d="M8.89,106.86V106H7.33v-.41L9,103.28h.36v2.32h.48V106H9.33v.85Zm0-1.26V104L7.77,105.6Z" transform="translate(1.43 -22.08)"/><path class="cls-5" d="M10.29,105.1a3.12,3.12,0,0,1,.13-1,1.31,1.31,0,0,1,.39-.6,1.11,1.11,0,0,1,1.15-.09.82.82,0,0,1,.36.33,1.84,1.84,0,0,1,.22.53,3.25,3.25,0,0,1,.08.85,3.09,3.09,0,0,1-.13,1,1.22,1.22,0,0,1-.38.6,1.1,1.1,0,0,1-1.47-.16A2.39,2.39,0,0,1,10.29,105.1Zm.45,0a2.18,2.18,0,0,0,.21,1.17.58.58,0,0,0,.51.29.62.62,0,0,0,.51-.29,3.55,3.55,0,0,0,0-2.35.63.63,0,0,0-.52-.29.56.56,0,0,0-.48.26A2.28,2.28,0,0,0,10.74,105.1Z" transform="translate(1.43 -22.08)"/><path class="cls-5" d="M13.29,106.86v-.5h.5v.5Z" transform="translate(1.43 -22.08)"/><path class="cls-5" d="M14.43,105.1a3.42,3.42,0,0,1,.13-1,1.31,1.31,0,0,1,.39-.6,1,1,0,0,1,.65-.21,1.07,1.07,0,0,1,.51.12.94.94,0,0,1,.36.33,2.17,2.17,0,0,1,.22.53,3.76,3.76,0,0,1,.08.85,3.09,3.09,0,0,1-.13,1,1.31,1.31,0,0,1-.39.6,1,1,0,0,1-.65.21,1,1,0,0,1-.81-.37A2.32,2.32,0,0,1,14.43,105.1Zm.46,0a2.2,2.2,0,0,0,.2,1.17.6.6,0,0,0,.51.29.62.62,0,0,0,.51-.29,3.39,3.39,0,0,0,0-2.35.62.62,0,0,0-.51-.29.57.57,0,0,0-.49.26A2.3,2.3,0,0,0,14.89,105.1Z" transform="translate(1.43 -22.08)"/><path class="cls-5" d="M9.76,87.92l-.44,0a.85.85,0,0,0-.16-.38.58.58,0,0,0-.44-.19.59.59,0,0,0-.37.12A1,1,0,0,0,8,88a2.24,2.24,0,0,0-.12.83,1,1,0,0,1,.38-.36,1.07,1.07,0,0,1,.49-.12,1,1,0,0,1,.74.33,1.12,1.12,0,0,1,.31.83,1.46,1.46,0,0,1-.14.63,1.07,1.07,0,0,1-.4.44,1.19,1.19,0,0,1-1.47-.25A2,2,0,0,1,7.46,89a2.42,2.42,0,0,1,.38-1.51,1.13,1.13,0,0,1,.9-.41,1,1,0,0,1,.7.24A1,1,0,0,1,9.76,87.92ZM8,89.46a1.09,1.09,0,0,0,.1.44.69.69,0,0,0,.27.31.63.63,0,0,0,.36.11.61.61,0,0,0,.48-.22,1,1,0,0,0,0-1.2.67.67,0,0,0-.5-.21.69.69,0,0,0-.51.21A.78.78,0,0,0,8,89.46Z" transform="translate(1.43 -22.08)"/><path class="cls-5" d="M10.29,88.86a3.16,3.16,0,0,1,.13-1,1.31,1.31,0,0,1,.39-.6A1.11,1.11,0,0,1,12,87.15a.82.82,0,0,1,.36.33,1.84,1.84,0,0,1,.22.53,3.25,3.25,0,0,1,.08.85,3.2,3.2,0,0,1-.13,1,1.24,1.24,0,0,1-.38.59,1.1,1.1,0,0,1-1.47-.16A2.37,2.37,0,0,1,10.29,88.86Zm.45,0A2.18,2.18,0,0,0,11,90a.58.58,0,0,0,.51.29A.6.6,0,0,0,12,90a3.55,3.55,0,0,0,0-2.35.63.63,0,0,0-.52-.29.56.56,0,0,0-.48.26A2.28,2.28,0,0,0,10.74,88.86Z" transform="translate(1.43 -22.08)"/><path class="cls-5" d="M13.29,90.62v-.5h.5v.5Z" transform="translate(1.43 -22.08)"/><path class="cls-5" d="M14.43,88.86a3.47,3.47,0,0,1,.13-1,1.31,1.31,0,0,1,.39-.6A1,1,0,0,1,15.6,87a1.07,1.07,0,0,1,.51.12.94.94,0,0,1,.36.33,2.17,2.17,0,0,1,.22.53,3.76,3.76,0,0,1,.08.85,3.2,3.2,0,0,1-.13,1,1.33,1.33,0,0,1-.39.59,1,1,0,0,1-.65.21,1,1,0,0,1-.81-.37A2.3,2.3,0,0,1,14.43,88.86Zm.46,0a2.2,2.2,0,0,0,.2,1.17.59.59,0,0,0,1,0,3.39,3.39,0,0,0,0-2.35.62.62,0,0,0-.51-.29.57.57,0,0,0-.49.26A2.3,2.3,0,0,0,14.89,88.86Z" transform="translate(1.43 -22.08)"/><path class="cls-5" d="M8.15,72.44a.8.8,0,0,1-.4-.28.73.73,0,0,1-.13-.45.83.83,0,0,1,.28-.65,1,1,0,0,1,.75-.27,1,1,0,0,1,.75.27.92.92,0,0,1,.29.67.78.78,0,0,1-.13.43.8.8,0,0,1-.4.28,1,1,0,0,1,.5.35.92.92,0,0,1,.17.57,1,1,0,0,1-.32.77,1.19,1.19,0,0,1-.86.32,1.16,1.16,0,0,1-.85-.32,1,1,0,0,1-.33-.78.91.91,0,0,1,.18-.58A.92.92,0,0,1,8.15,72.44Zm-.22.91a1,1,0,0,0,.08.37.7.7,0,0,0,.27.27.82.82,0,0,0,.38.09.69.69,0,0,0,.72-.71.72.72,0,0,0-.74-.74.69.69,0,0,0-.51.21A.69.69,0,0,0,7.93,73.35Zm.14-1.65a.53.53,0,0,0,.16.41.58.58,0,0,0,.43.17.6.6,0,0,0,.41-.16.58.58,0,0,0,0-.8.57.57,0,0,0-.42-.17.61.61,0,0,0-.42.16A.53.53,0,0,0,8.07,71.7Z" transform="translate(1.43 -22.08)"/><path class="cls-5" d="M10.29,72.62a3.2,3.2,0,0,1,.13-1,1.31,1.31,0,0,1,.39-.6A1.11,1.11,0,0,1,12,70.91a.88.88,0,0,1,.36.33,1.84,1.84,0,0,1,.22.53,3.3,3.3,0,0,1,.08.85,3.2,3.2,0,0,1-.13,1,1.19,1.19,0,0,1-.38.59,1,1,0,0,1-.65.22,1,1,0,0,1-.82-.37A2.43,2.43,0,0,1,10.29,72.62Zm.45,0A2.18,2.18,0,0,0,11,73.79a.58.58,0,0,0,.51.29.6.6,0,0,0,.51-.29,3.52,3.52,0,0,0,0-2.34.6.6,0,0,0-.52-.29.56.56,0,0,0-.48.25A2.28,2.28,0,0,0,10.74,72.62Z" transform="translate(1.43 -22.08)"/><path class="cls-5" d="M13.29,74.39v-.51h.5v.51Z" transform="translate(1.43 -22.08)"/><path class="cls-5" d="M14.43,72.62a3.52,3.52,0,0,1,.13-1A1.31,1.31,0,0,1,15,71a1,1,0,0,1,.65-.21,1.07,1.07,0,0,1,.51.12,1,1,0,0,1,.36.33,2.17,2.17,0,0,1,.22.53,3.82,3.82,0,0,1,.08.85,3.2,3.2,0,0,1-.13,1,1.28,1.28,0,0,1-.39.59,1,1,0,0,1-.65.22,1,1,0,0,1-.81-.37A2.35,2.35,0,0,1,14.43,72.62Zm.46,0a2.2,2.2,0,0,0,.2,1.17.59.59,0,0,0,1,0,3.36,3.36,0,0,0,0-2.34.6.6,0,0,0-.51-.29.56.56,0,0,0-.49.25A2.3,2.3,0,0,0,14.89,72.62Z" transform="translate(1.43 -22.08)"/><path class="cls-5" d="M6.32,58.15H5.88v-2.8a2.07,2.07,0,0,1-.41.3,3.27,3.27,0,0,1-.46.23v-.43A2.63,2.63,0,0,0,5.65,55,1.65,1.65,0,0,0,6,54.55h.28Z" transform="translate(1.43 -22.08)"/><path class="cls-5" d="M7.48,56.38a3.2,3.2,0,0,1,.13-1,1.31,1.31,0,0,1,.39-.6,1.11,1.11,0,0,1,1.15-.09,1,1,0,0,1,.36.33,2,2,0,0,1,.22.53,3.3,3.3,0,0,1,.08.85,3.2,3.2,0,0,1-.13,1,1.22,1.22,0,0,1-.38.6,1.1,1.1,0,0,1-1.47-.16A2.43,2.43,0,0,1,7.48,56.38Zm.45,0a2.18,2.18,0,0,0,.21,1.17.58.58,0,0,0,1,0,3.36,3.36,0,0,0,0-2.34.58.58,0,0,0-.51-.29.56.56,0,0,0-.48.25A2.28,2.28,0,0,0,7.93,56.38Z" transform="translate(1.43 -22.08)"/><path class="cls-5" d="M10.23,56.38a3.2,3.2,0,0,1,.13-1,1.31,1.31,0,0,1,.39-.6,1.11,1.11,0,0,1,1.15-.09,1,1,0,0,1,.36.33,1.69,1.69,0,0,1,.22.53,3.3,3.3,0,0,1,.08.85,3.2,3.2,0,0,1-.13,1,1.22,1.22,0,0,1-.38.6,1,1,0,0,1-.65.21,1,1,0,0,1-.82-.37A2.43,2.43,0,0,1,10.23,56.38Zm.45,0a2.18,2.18,0,0,0,.21,1.17.6.6,0,0,0,.51.3.61.61,0,0,0,.51-.3,3.52,3.52,0,0,0,0-2.34.6.6,0,0,0-.52-.29.56.56,0,0,0-.48.25A2.28,2.28,0,0,0,10.68,56.38Z" transform="translate(1.43 -22.08)"/><path class="cls-5" d="M13.29,58.15v-.5h.5v.5Z" transform="translate(1.43 -22.08)"/><path class="cls-5" d="M14.43,56.38a3.17,3.17,0,0,1,.14-1,1.22,1.22,0,0,1,.38-.6,1,1,0,0,1,.65-.21,1.07,1.07,0,0,1,.51.12,1.13,1.13,0,0,1,.36.33,2.35,2.35,0,0,1,.22.53,3.82,3.82,0,0,1,.08.85,3.2,3.2,0,0,1-.13,1,1.31,1.31,0,0,1-.39.6,1,1,0,0,1-.65.21,1,1,0,0,1-.81-.37A2.35,2.35,0,0,1,14.43,56.38Zm.46,0a2.31,2.31,0,0,0,.2,1.17.58.58,0,0,0,1,0,3.36,3.36,0,0,0,0-2.34.6.6,0,0,0-.51-.29.57.57,0,0,0-.49.25A2.3,2.3,0,0,0,14.89,56.38Z" transform="translate(1.43 -22.08)"/><path class="cls-5" d="M6.32,41.91H5.88v-2.8a2.07,2.07,0,0,1-.41.3,4.9,4.9,0,0,1-.46.23v-.43a2.63,2.63,0,0,0,.64-.42A1.65,1.65,0,0,0,6,38.31h.28Z" transform="translate(1.43 -22.08)"/><path class="cls-5" d="M9.79,41.48v.43H7.42a1.06,1.06,0,0,1,0-.31,1.76,1.76,0,0,1,.29-.48,6.66,6.66,0,0,1,.58-.54,4.87,4.87,0,0,0,.79-.76.92.92,0,0,0,.2-.52.59.59,0,0,0-.18-.44.77.77,0,0,0-1,0,.68.68,0,0,0-.19.52l-.45,0a1.09,1.09,0,0,1,.34-.77,1.21,1.21,0,0,1,.82-.27,1.13,1.13,0,0,1,.81.29.93.93,0,0,1,.3.71,1.25,1.25,0,0,1-.08.42,1.72,1.72,0,0,1-.3.44,6.51,6.51,0,0,1-.67.62,6.46,6.46,0,0,0-.51.46,1,1,0,0,0-.19.23Z" transform="translate(1.43 -22.08)"/><path class="cls-5" d="M10.23,40.14a3.2,3.2,0,0,1,.13-1,1.31,1.31,0,0,1,.39-.6,1.11,1.11,0,0,1,1.15-.09,1,1,0,0,1,.36.33,1.69,1.69,0,0,1,.22.53,3.3,3.3,0,0,1,.08.85,3.2,3.2,0,0,1-.13,1,1.27,1.27,0,0,1-.38.6,1,1,0,0,1-.65.21,1,1,0,0,1-.82-.37A2.43,2.43,0,0,1,10.23,40.14Zm.45,0a2.18,2.18,0,0,0,.21,1.17.6.6,0,0,0,.51.3.61.61,0,0,0,.51-.3,2.31,2.31,0,0,0,.2-1.17,2.31,2.31,0,0,0-.2-1.17.6.6,0,0,0-.52-.29.56.56,0,0,0-.48.25A2.28,2.28,0,0,0,10.68,40.14Z" transform="translate(1.43 -22.08)"/><path class="cls-5" d="M13.29,41.91v-.5h.5v.5Z" transform="translate(1.43 -22.08)"/><path class="cls-5" d="M14.43,40.14a3.17,3.17,0,0,1,.14-1,1.22,1.22,0,0,1,.38-.6,1,1,0,0,1,.65-.21,1.07,1.07,0,0,1,.51.12,1.13,1.13,0,0,1,.36.33,2.35,2.35,0,0,1,.22.53,3.82,3.82,0,0,1,.08.85,3.2,3.2,0,0,1-.13,1,1.36,1.36,0,0,1-.39.6,1,1,0,0,1-.65.21,1,1,0,0,1-.81-.37A2.35,2.35,0,0,1,14.43,40.14Zm.46,0a2.31,2.31,0,0,0,.2,1.17.58.58,0,0,0,1,0,2.18,2.18,0,0,0,.21-1.17A2.18,2.18,0,0,0,16.11,39a.6.6,0,0,0-.51-.29.57.57,0,0,0-.49.25A2.3,2.3,0,0,0,14.89,40.14Z" transform="translate(1.43 -22.08)"/><path class="cls-5" d="M6.32,25.67H5.88v-2.8a2.07,2.07,0,0,1-.41.3A3.27,3.27,0,0,1,5,23.4V23a3,3,0,0,0,.64-.42A2,2,0,0,0,6,22.08h.28Z" transform="translate(1.43 -22.08)"/><path class="cls-5" d="M8.89,25.67v-.86H7.33v-.4L9,22.09h.36v2.32h.48v.4H9.33v.86Zm0-1.26V22.8L7.77,24.41Z" transform="translate(1.43 -22.08)"/><path class="cls-5" d="M10.23,23.91a3.23,3.23,0,0,1,.13-1,1.33,1.33,0,0,1,.39-.59,1,1,0,0,1,.65-.21,1.12,1.12,0,0,1,.5.11.9.9,0,0,1,.36.34,1.51,1.51,0,0,1,.22.53,3.25,3.25,0,0,1,.08.85,3.09,3.09,0,0,1-.13,1,1.22,1.22,0,0,1-.38.6,1.1,1.1,0,0,1-1.47-.16A2.39,2.39,0,0,1,10.23,23.91Zm.45,0a2.23,2.23,0,0,0,.21,1.17.61.61,0,0,0,.51.29.62.62,0,0,0,.51-.29,2.36,2.36,0,0,0,.2-1.17,2.38,2.38,0,0,0-.2-1.18.63.63,0,0,0-.52-.29.56.56,0,0,0-.48.26A2.28,2.28,0,0,0,10.68,23.91Z" transform="translate(1.43 -22.08)"/><path class="cls-5" d="M13.29,25.67v-.5h.5v.5Z" transform="translate(1.43 -22.08)"/><path class="cls-5" d="M14.43,23.91a3.19,3.19,0,0,1,.14-1,1.24,1.24,0,0,1,.38-.59,1,1,0,0,1,.65-.21,1.19,1.19,0,0,1,.51.11,1.06,1.06,0,0,1,.36.34,2,2,0,0,1,.22.53,3.76,3.76,0,0,1,.08.85,3.09,3.09,0,0,1-.13,1,1.31,1.31,0,0,1-.39.6,1,1,0,0,1-.65.21,1,1,0,0,1-.81-.37A2.32,2.32,0,0,1,14.43,23.91Zm.46,0a2.36,2.36,0,0,0,.2,1.17.59.59,0,0,0,1,0,2.23,2.23,0,0,0,.21-1.17,2.25,2.25,0,0,0-.21-1.18.62.62,0,0,0-.51-.29.58.58,0,0,0-.49.26A2.3,2.3,0,0,0,14.89,23.91Z" transform="translate(1.43 -22.08)"/><path class="cls-5" d="M10.25,137.57a3.52,3.52,0,0,1,.13-1,1.31,1.31,0,0,1,.39-.6,1,1,0,0,1,.65-.21,1.07,1.07,0,0,1,.51.12,1,1,0,0,1,.35.33,1.91,1.91,0,0,1,.23.54,3.72,3.72,0,0,1,.08.84,3.52,3.52,0,0,1-.13,1,1.31,1.31,0,0,1-.39.6,1,1,0,0,1-.65.21,1,1,0,0,1-.81-.37A2.33,2.33,0,0,1,10.25,137.57Zm.45,0a2.25,2.25,0,0,0,.21,1.18.59.59,0,0,0,1,0,2.25,2.25,0,0,0,.21-1.18,2.18,2.18,0,0,0-.21-1.17.62.62,0,0,0-.51-.29.56.56,0,0,0-.49.25A2.31,2.31,0,0,0,10.7,137.57Z" transform="translate(1.43 -22.08)"/><path class="cls-5" d="M13.31,139.34v-.5h.5v.5Z" transform="translate(1.43 -22.08)"/><path class="cls-5" d="M14.46,137.57a3.2,3.2,0,0,1,.13-1A1.31,1.31,0,0,1,15,136a1,1,0,0,1,.65-.21,1,1,0,0,1,.5.12,1,1,0,0,1,.36.33,1.91,1.91,0,0,1,.22.54,4.23,4.23,0,0,1-.05,1.86,1.22,1.22,0,0,1-.38.6,1,1,0,0,1-.65.21,1,1,0,0,1-.82-.37A2.41,2.41,0,0,1,14.46,137.57Zm.45,0a2.25,2.25,0,0,0,.21,1.18.58.58,0,0,0,1,0,2.25,2.25,0,0,0,.21-1.18,2.18,2.18,0,0,0-.21-1.17.6.6,0,0,0-.51-.29.56.56,0,0,0-.48.25A2.31,2.31,0,0,0,14.91,137.57Z" transform="translate(1.43 -22.08)"/></g><g id="English"><rect class="繝後Μ_逋ｽ-2" x="22.97" y="41.21" width="47.91" height="16.58"/><path class="cls-5" d="M24.75,68.15l.58-.05a1.32,1.32,0,0,0,.2.58A1.16,1.16,0,0,0,26,69a1.85,1.85,0,0,0,.72.13,1.72,1.72,0,0,0,.62-.1.89.89,0,0,0,.4-.29.67.67,0,0,0,0-.78,1,1,0,0,0-.42-.27,7.21,7.21,0,0,0-.83-.23,4.09,4.09,0,0,1-.9-.29,1.34,1.34,0,0,1-.5-.43,1.18,1.18,0,0,1-.16-.58,1.19,1.19,0,0,1,.2-.66,1.28,1.28,0,0,1,.59-.47,2.3,2.3,0,0,1,.85-.15,2.35,2.35,0,0,1,.91.16,1.36,1.36,0,0,1,.61.49,1.44,1.44,0,0,1,.23.74l-.59,0a1,1,0,0,0-.32-.67,1.29,1.29,0,0,0-.82-.22,1.34,1.34,0,0,0-.81.2.62.62,0,0,0-.25.5.51.51,0,0,0,.18.41,2.26,2.26,0,0,0,.92.33,5.21,5.21,0,0,1,1,.3,1.33,1.33,0,0,1,.6.47,1.14,1.14,0,0,1,.2.66,1.19,1.19,0,0,1-.22.7,1.43,1.43,0,0,1-.61.52,2.11,2.11,0,0,1-.89.18,2.54,2.54,0,0,1-1.06-.19A1.4,1.4,0,0,1,25,69,1.63,1.63,0,0,1,24.75,68.15Z" transform="translate(1.43 -22.08)"/><path class="cls-5" d="M29.23,69.65V65h.57v1.66a1.29,1.29,0,0,1,1-.46,1.36,1.36,0,0,1,.65.15.86.86,0,0,1,.39.41,1.83,1.83,0,0,1,.12.75v2.14H31.4V67.51a.85.85,0,0,0-.19-.62.67.67,0,0,0-.52-.2,1,1,0,0,0-.48.13.79.79,0,0,0-.32.36,1.73,1.73,0,0,0-.09.62v1.85Z" transform="translate(1.43 -22.08)"/><path class="cls-5" d="M32.63,68a1.72,1.72,0,0,1,.52-1.38,1.57,1.57,0,0,1,1.06-.38,1.48,1.48,0,0,1,1.13.46,1.69,1.69,0,0,1,.45,1.25,2.24,2.24,0,0,1-.2,1,1.39,1.39,0,0,1-.57.58,1.62,1.62,0,0,1-.81.2,1.55,1.55,0,0,1-1.15-.45A1.82,1.82,0,0,1,32.63,68Zm.58,0a1.42,1.42,0,0,0,.29,1,.88.88,0,0,0,.71.32.9.9,0,0,0,.71-.32,1.46,1.46,0,0,0,.28-1,1.37,1.37,0,0,0-.29-.94.87.87,0,0,0-.7-.33.91.91,0,0,0-.71.32A1.44,1.44,0,0,0,33.21,68Z" transform="translate(1.43 -22.08)"/><path class="cls-5" d="M36.45,69.65V66.28H37v.51a1.21,1.21,0,0,1,.37-.47.6.6,0,0,1,.36-.12,1.06,1.06,0,0,1,.59.19l-.2.53a.76.76,0,0,0-.42-.13.57.57,0,0,0-.33.11.6.6,0,0,0-.21.32,2,2,0,0,0-.1.66v1.77Z" transform="translate(1.43 -22.08)"/><path class="cls-5" d="M39.87,69.14l.08.5a1.78,1.78,0,0,1-.43,0,.9.9,0,0,1-.48-.1.55.55,0,0,1-.25-.25,2.32,2.32,0,0,1-.07-.68V66.72h-.41v-.44h.41v-.84l.57-.34v1.18h.58v.44h-.58v2a1,1,0,0,0,0,.32.35.35,0,0,0,.1.11.37.37,0,0,0,.2,0Z" transform="translate(1.43 -22.08)"/><path class="cls-5" d="M40.2,68.25v-.57H42v.57Z" transform="translate(1.43 -22.08)"/><path class="cls-5" d="M44.78,69.65v-.43a1,1,0,0,1-1,.5,1.33,1.33,0,0,1-.74-.22,1.45,1.45,0,0,1-.52-.62,2.17,2.17,0,0,1-.19-.91,2.43,2.43,0,0,1,.17-.92,1.39,1.39,0,0,1,.51-.63,1.3,1.3,0,0,1,.75-.22,1.08,1.08,0,0,1,.54.13,1.27,1.27,0,0,1,.39.33V65h.57v4.65ZM43,68a1.45,1.45,0,0,0,.27,1,.82.82,0,0,0,.65.32.8.8,0,0,0,.63-.3,1.41,1.41,0,0,0,.27-.94,1.54,1.54,0,0,0-.27-1,.82.82,0,0,0-.66-.33.79.79,0,0,0-.63.32A1.51,1.51,0,0,0,43,68Z" transform="translate(1.43 -22.08)"/><path class="cls-5" d="M48.41,69.65v-.5a1.22,1.22,0,0,1-1.07.57,1.29,1.29,0,0,1-.55-.11.87.87,0,0,1-.56-.71,2.3,2.3,0,0,1,0-.53V66.28h.57v1.87a3.5,3.5,0,0,0,0,.6.57.57,0,0,0,.23.35.67.67,0,0,0,.43.13.91.91,0,0,0,.48-.13.74.74,0,0,0,.32-.36,1.86,1.86,0,0,0,.09-.66v-1.8h.58v3.37Z" transform="translate(1.43 -22.08)"/><path class="cls-5" d="M49.81,69.65V66.28h.52v.51a1.31,1.31,0,0,1,.36-.47.61.61,0,0,1,.37-.12,1.08,1.08,0,0,1,.59.19l-.2.53a.76.76,0,0,0-.42-.13.58.58,0,0,0-.34.11.6.6,0,0,0-.21.32,2.29,2.29,0,0,0-.09.66v1.77Z" transform="translate(1.43 -22.08)"/><path class="cls-5" d="M54.18,69.23a2,2,0,0,1-.61.38,1.61,1.61,0,0,1-.63.11,1.22,1.22,0,0,1-.85-.27.89.89,0,0,1-.3-.69.94.94,0,0,1,.11-.45,1,1,0,0,1,.3-.33,1.4,1.4,0,0,1,.41-.19,3,3,0,0,1,.51-.08,6.26,6.26,0,0,0,1-.2v-.15a.61.61,0,0,0-.16-.49,1,1,0,0,0-.65-.2,1,1,0,0,0-.6.15.83.83,0,0,0-.28.5l-.56-.08a1.34,1.34,0,0,1,.25-.58,1.14,1.14,0,0,1,.5-.34,2.3,2.3,0,0,1,.77-.12,2,2,0,0,1,.7.1,1,1,0,0,1,.4.26,1,1,0,0,1,.18.39,3.28,3.28,0,0,1,0,.52v.77a8.6,8.6,0,0,0,0,1,1.27,1.27,0,0,0,.15.41h-.6A1.29,1.29,0,0,1,54.18,69.23Zm0-1.27a4.63,4.63,0,0,1-.94.21,1.9,1.9,0,0,0-.49.12.47.47,0,0,0-.23.18.5.5,0,0,0-.08.27.49.49,0,0,0,.17.38.73.73,0,0,0,.51.16,1.15,1.15,0,0,0,.59-.15,1,1,0,0,0,.38-.39,1.41,1.41,0,0,0,.09-.57Z" transform="translate(1.43 -22.08)"/><path class="cls-5" d="M56.85,69.14l.08.5a1.78,1.78,0,0,1-.43,0,.9.9,0,0,1-.48-.1.55.55,0,0,1-.25-.25,2.32,2.32,0,0,1-.07-.68V66.72h-.41v-.44h.41v-.84l.57-.34v1.18h.58v.44h-.58v2a1,1,0,0,0,0,.32.35.35,0,0,0,.1.11.37.37,0,0,0,.2,0Z" transform="translate(1.43 -22.08)"/><path class="cls-5" d="M57.41,65.65V65H58v.65Zm0,4V66.28H58v3.37Z" transform="translate(1.43 -22.08)"/><path class="cls-5" d="M58.64,68a1.72,1.72,0,0,1,.52-1.38,1.57,1.57,0,0,1,1.06-.38,1.48,1.48,0,0,1,1.13.46,1.69,1.69,0,0,1,.45,1.25,2.24,2.24,0,0,1-.2,1,1.39,1.39,0,0,1-.57.58,1.62,1.62,0,0,1-.81.2,1.54,1.54,0,0,1-1.15-.45A1.82,1.82,0,0,1,58.64,68Zm.58,0a1.42,1.42,0,0,0,.29,1,.88.88,0,0,0,.71.32.9.9,0,0,0,.71-.32,1.52,1.52,0,0,0,.28-1,1.37,1.37,0,0,0-.29-.94.89.89,0,0,0-.7-.33.91.91,0,0,0-.71.32A1.44,1.44,0,0,0,59.22,68Z" transform="translate(1.43 -22.08)"/><path class="cls-5" d="M62.46,69.65V66.28H63v.48a1.21,1.21,0,0,1,1.07-.56,1.47,1.47,0,0,1,.56.11.82.82,0,0,1,.38.29,1,1,0,0,1,.18.42,3.51,3.51,0,0,1,0,.56v2.07h-.57V67.6a1.63,1.63,0,0,0-.06-.52.6.6,0,0,0-.24-.28.74.74,0,0,0-.4-.1.91.91,0,0,0-.63.23,1.13,1.13,0,0,0-.26.88v1.84Z" transform="translate(1.43 -22.08)"/><path class="cls-5" d="M24.88,77.45V74.08h.52v.51a1.31,1.31,0,0,1,.36-.47.61.61,0,0,1,.37-.12,1,1,0,0,1,.58.19l-.19.53a.76.76,0,0,0-.42-.13.58.58,0,0,0-.34.11.6.6,0,0,0-.21.32,2.29,2.29,0,0,0-.09.66v1.77Z" transform="translate(1.43 -22.08)"/><path class="cls-5" d="M29.26,77.45V77a1.23,1.23,0,0,1-1.07.57,1.29,1.29,0,0,1-.55-.11.93.93,0,0,1-.39-.29,1,1,0,0,1-.17-.42,2.3,2.3,0,0,1,0-.53V74.08h.57V76a2.69,2.69,0,0,0,0,.6.54.54,0,0,0,.23.35.67.67,0,0,0,.43.13.91.91,0,0,0,.48-.13.74.74,0,0,0,.32-.36,1.86,1.86,0,0,0,.09-.66v-1.8h.57v3.37Z" transform="translate(1.43 -22.08)"/><path class="cls-5" d="M30.67,77.45V74.08h.51v.48A1.23,1.23,0,0,1,32.26,74a1.47,1.47,0,0,1,.56.11.88.88,0,0,1,.38.29,1.33,1.33,0,0,1,.18.42,3.51,3.51,0,0,1,0,.56v2.07h-.57v-2a1.57,1.57,0,0,0-.07-.52.5.5,0,0,0-.24-.28.71.71,0,0,0-.39-.1.88.88,0,0,0-.63.23,1.13,1.13,0,0,0-.27.88v1.84Z" transform="translate(1.43 -22.08)"/><path class="cls-5" d="M34.28,77.45V74.08h.52v.48A1.21,1.21,0,0,1,35.87,74a1.47,1.47,0,0,1,.56.11.82.82,0,0,1,.38.29,1,1,0,0,1,.18.42,3.51,3.51,0,0,1,0,.56v2.07h-.57v-2a1.63,1.63,0,0,0-.06-.52.6.6,0,0,0-.24-.28.74.74,0,0,0-.4-.1.91.91,0,0,0-.63.23,1.13,1.13,0,0,0-.26.88v1.84Z" transform="translate(1.43 -22.08)"/><path class="cls-5" d="M37.9,73.45V72.8h.57v.65Zm0,4V74.08h.57v3.37Z" transform="translate(1.43 -22.08)"/><path class="cls-5" d="M39.34,77.45V74.08h.52v.48A1.21,1.21,0,0,1,40.93,74a1.47,1.47,0,0,1,.56.11.82.82,0,0,1,.38.29,1,1,0,0,1,.18.42,3.51,3.51,0,0,1,0,.56v2.07h-.57v-2a1.63,1.63,0,0,0-.06-.52.6.6,0,0,0-.24-.28.77.77,0,0,0-.4-.1.91.91,0,0,0-.63.23,1.13,1.13,0,0,0-.26.88v1.84Z" transform="translate(1.43 -22.08)"/><path class="cls-5" d="M42.85,77.73l.56.08a.51.51,0,0,0,.19.37.93.93,0,0,0,.58.16,1,1,0,0,0,.62-.16.76.76,0,0,0,.29-.44,3.83,3.83,0,0,0,0-.73,1.18,1.18,0,0,1-.93.44,1.28,1.28,0,0,1-1.08-.5,2,2,0,0,1-.38-1.21,2.39,2.39,0,0,1,.17-.89,1.46,1.46,0,0,1,.51-.63A1.43,1.43,0,0,1,44.2,74a1.2,1.2,0,0,1,1,.48v-.4h.53V77a2.72,2.72,0,0,1-.16,1.12,1.22,1.22,0,0,1-.51.52,1.84,1.84,0,0,1-.85.19,1.56,1.56,0,0,1-1-.28A.92.92,0,0,1,42.85,77.73Zm.48-2a1.44,1.44,0,0,0,.26,1,.88.88,0,0,0,1.32,0,1.4,1.4,0,0,0,.27-1,1.34,1.34,0,0,0-.28-.93.84.84,0,0,0-.66-.32.86.86,0,0,0-.65.31A1.44,1.44,0,0,0,43.33,75.7Z" transform="translate(1.43 -22.08)"/><path class="cls-5" d="M48.37,77.45V74.08h.52v.51a1.31,1.31,0,0,1,.36-.47.61.61,0,0,1,.37-.12,1,1,0,0,1,.58.19l-.19.53a.76.76,0,0,0-.42-.13.58.58,0,0,0-.34.11A.6.6,0,0,0,49,75a2.28,2.28,0,0,0-.1.66v1.77Z" transform="translate(1.43 -22.08)"/><path class="cls-5" d="M52.74,77a2,2,0,0,1-.61.38,1.61,1.61,0,0,1-.63.11,1.22,1.22,0,0,1-.85-.27.89.89,0,0,1-.3-.69.94.94,0,0,1,.11-.45,1,1,0,0,1,.3-.33,1.4,1.4,0,0,1,.41-.19,3,3,0,0,1,.51-.08,6.26,6.26,0,0,0,1-.2v-.15a.65.65,0,0,0-.16-.49,1,1,0,0,0-.65-.2,1,1,0,0,0-.6.15.83.83,0,0,0-.28.5L50.45,75a1.34,1.34,0,0,1,.25-.58,1.09,1.09,0,0,1,.5-.34A2.26,2.26,0,0,1,52,74a2,2,0,0,1,.7.1,1,1,0,0,1,.4.26,1,1,0,0,1,.18.39c0,.09,0,.27,0,.52V76a8.6,8.6,0,0,0,0,1,1.25,1.25,0,0,0,.14.41h-.59A1.29,1.29,0,0,1,52.74,77Zm0-1.27a4.63,4.63,0,0,1-.94.21,2.14,2.14,0,0,0-.5.12.49.49,0,0,0-.22.18.5.5,0,0,0-.08.27.49.49,0,0,0,.17.38.73.73,0,0,0,.51.16,1.18,1.18,0,0,0,.59-.15.87.87,0,0,0,.37-.39,1.24,1.24,0,0,0,.1-.57Z" transform="translate(1.43 -22.08)"/><path class="cls-5" d="M54.16,77.45V74.08h.51v.48A1.23,1.23,0,0,1,55.75,74a1.47,1.47,0,0,1,.56.11.88.88,0,0,1,.38.29,1.33,1.33,0,0,1,.18.42,3.51,3.51,0,0,1,0,.56v2.07h-.57v-2a1.57,1.57,0,0,0-.07-.52A.5.5,0,0,0,56,74.6a.71.71,0,0,0-.39-.1.92.92,0,0,0-.64.23,1.17,1.17,0,0,0-.26.88v1.84Z" transform="translate(1.43 -22.08)"/><path class="cls-5" d="M57.67,77.73l.55.08a.52.52,0,0,0,.2.37.91.91,0,0,0,.58.16,1,1,0,0,0,.61-.16.72.72,0,0,0,.29-.44,3.12,3.12,0,0,0,0-.73,1.17,1.17,0,0,1-.93.44,1.27,1.27,0,0,1-1.07-.5,1.92,1.92,0,0,1-.38-1.21,2.21,2.21,0,0,1,.17-.89,1.39,1.39,0,0,1,.51-.63A1.43,1.43,0,0,1,59,74a1.22,1.22,0,0,1,1,.48v-.4h.53V77a2.9,2.9,0,0,1-.16,1.12,1.22,1.22,0,0,1-.51.52,1.85,1.85,0,0,1-.86.19,1.55,1.55,0,0,1-1-.28A.9.9,0,0,1,57.67,77.73Zm.47-2a1.44,1.44,0,0,0,.27,1,.83.83,0,0,0,.66.3.85.85,0,0,0,.66-.3,1.46,1.46,0,0,0,.26-1,1.39,1.39,0,0,0-.27-.93.87.87,0,0,0-.66-.32.84.84,0,0,0-.65.31A1.38,1.38,0,0,0,58.14,75.7Z" transform="translate(1.43 -22.08)"/><path class="cls-5" d="M63.7,76.36l.59.08a1.5,1.5,0,0,1-.52.8,1.78,1.78,0,0,1-2.14-.17,1.79,1.79,0,0,1-.43-1.28,1.82,1.82,0,0,1,.44-1.32A1.49,1.49,0,0,1,62.77,74a1.45,1.45,0,0,1,1.11.46,1.87,1.87,0,0,1,.43,1.3s0,.08,0,.15H61.79a1.28,1.28,0,0,0,.31.85.94.94,0,0,0,.71.29.84.84,0,0,0,.53-.16A1.13,1.13,0,0,0,63.7,76.36Zm-1.88-.92H63.7a1.1,1.1,0,0,0-.21-.64.88.88,0,0,0-.71-.33.93.93,0,0,0-.66.26A1.05,1.05,0,0,0,61.82,75.44Z" transform="translate(1.43 -22.08)"/><rect class="繝後Μ_逋ｽ-2" x="23.72" y="93.65" width="41.46" height="16.58"/><path class="cls-5" d="M28.38,120.46l.62.15a2.07,2.07,0,0,1-.7,1.16,1.93,1.93,0,0,1-1.23.4,2.14,2.14,0,0,1-1.22-.31,1.89,1.89,0,0,1-.72-.89,3.19,3.19,0,0,1-.24-1.24,2.8,2.8,0,0,1,.27-1.27,1.9,1.9,0,0,1,.79-.82,2.31,2.31,0,0,1,1.13-.28,1.9,1.9,0,0,1,1.18.35,1.92,1.92,0,0,1,.66,1l-.61.14a1.48,1.48,0,0,0-.47-.74,1.26,1.26,0,0,0-.77-.23,1.52,1.52,0,0,0-.9.26,1.3,1.3,0,0,0-.5.69,2.73,2.73,0,0,0-.15.89,3,3,0,0,0,.17,1,1.32,1.32,0,0,0,.54.66,1.47,1.47,0,0,0,.79.22,1.32,1.32,0,0,0,.88-.3A1.48,1.48,0,0,0,28.38,120.46Z" transform="translate(1.43 -22.08)"/><path class="cls-5" d="M29.47,120.4A1.72,1.72,0,0,1,30,119a1.57,1.57,0,0,1,1.06-.38,1.5,1.5,0,0,1,1.14.46,1.74,1.74,0,0,1,.44,1.26,2.22,2.22,0,0,1-.2,1,1.36,1.36,0,0,1-.56.58,1.63,1.63,0,0,1-.82.2,1.51,1.51,0,0,1-1.14-.45A1.82,1.82,0,0,1,29.47,120.4Zm.59,0a1.41,1.41,0,0,0,.28,1,.9.9,0,0,0,.71.32.88.88,0,0,0,.71-.32,1.45,1.45,0,0,0,.28-1,1.37,1.37,0,0,0-.28-.94.91.91,0,0,0-.71-.33.93.93,0,0,0-.71.32A1.44,1.44,0,0,0,30.06,120.4Z" transform="translate(1.43 -22.08)"/><path class="cls-5" d="M33.3,122.09v-3.37h.51v.48a1.23,1.23,0,0,1,1.08-.56,1.47,1.47,0,0,1,.56.11.88.88,0,0,1,.38.29,1.33,1.33,0,0,1,.18.42,3.51,3.51,0,0,1,0,.56v2.07h-.57v-2a1.38,1.38,0,0,0-.07-.52.5.5,0,0,0-.24-.28.71.71,0,0,0-.39-.1.92.92,0,0,0-.64.23,1.17,1.17,0,0,0-.26.88v1.84Z" transform="translate(1.43 -22.08)"/><path class="cls-5" d="M38.16,121.58l.08.5a1.72,1.72,0,0,1-.43,0,.9.9,0,0,1-.48-.1.53.53,0,0,1-.24-.25,2,2,0,0,1-.07-.68v-1.94H36.6v-.44H37v-.84l.57-.34v1.18h.57v.44h-.57v2a1,1,0,0,0,0,.32.26.26,0,0,0,.1.11.34.34,0,0,0,.19,0Z" transform="translate(1.43 -22.08)"/><path class="cls-5" d="M38.72,118.09v-.65h.57v.65Zm0,4v-3.37h.57v3.37Z" transform="translate(1.43 -22.08)"/><path class="cls-5" d="M40.16,122.09v-3.37h.52v.48a1.21,1.21,0,0,1,1.07-.56,1.47,1.47,0,0,1,.56.11.82.82,0,0,1,.38.29,1,1,0,0,1,.18.42,3.51,3.51,0,0,1,0,.56v2.07h-.57v-2a1.38,1.38,0,0,0-.07-.52.53.53,0,0,0-.23-.28.74.74,0,0,0-.4-.1.91.91,0,0,0-.63.23,1.13,1.13,0,0,0-.26.88v1.84Z" transform="translate(1.43 -22.08)"/><path class="cls-5" d="M46,122.09v-.5a1.23,1.23,0,0,1-1.07.57,1.3,1.3,0,0,1-.56-.11.89.89,0,0,1-.38-.29,1,1,0,0,1-.18-.42,3.33,3.33,0,0,1,0-.53v-2.09h.57v1.87a3.77,3.77,0,0,0,0,.6.62.62,0,0,0,.23.35.69.69,0,0,0,.43.13.89.89,0,0,0,.48-.13.7.7,0,0,0,.32-.36,1.63,1.63,0,0,0,.1-.66v-1.8h.57v3.37Z" transform="translate(1.43 -22.08)"/><path class="cls-5" d="M47.18,120.4A1.72,1.72,0,0,1,47.7,119a1.57,1.57,0,0,1,1.06-.38,1.5,1.5,0,0,1,1.14.46,1.74,1.74,0,0,1,.44,1.26,2.22,2.22,0,0,1-.2,1,1.42,1.42,0,0,1-.56.58,1.63,1.63,0,0,1-.82.2,1.51,1.51,0,0,1-1.14-.45A1.82,1.82,0,0,1,47.18,120.4Zm.59,0a1.41,1.41,0,0,0,.28,1,.9.9,0,0,0,.71.32.88.88,0,0,0,.71-.32,1.45,1.45,0,0,0,.28-1,1.37,1.37,0,0,0-.28-.94.91.91,0,0,0-.71-.33.93.93,0,0,0-.71.32A1.44,1.44,0,0,0,47.77,120.4Z" transform="translate(1.43 -22.08)"/><path class="cls-5" d="M53.22,122.09v-.5a1.23,1.23,0,0,1-1.07.57,1.3,1.3,0,0,1-.56-.11.89.89,0,0,1-.38-.29,1,1,0,0,1-.18-.42,3.33,3.33,0,0,1,0-.53v-2.09h.57v1.87a3.77,3.77,0,0,0,0,.6.62.62,0,0,0,.23.35.69.69,0,0,0,.43.13.89.89,0,0,0,.48-.13.7.7,0,0,0,.32-.36,1.63,1.63,0,0,0,.1-.66v-1.8h.57v3.37Z" transform="translate(1.43 -22.08)"/><path class="cls-5" d="M54.4,121.08,55,121a.76.76,0,0,0,.27.52.9.9,0,0,0,.6.18.89.89,0,0,0,.59-.16.48.48,0,0,0,.19-.37.37.37,0,0,0-.17-.31,2.66,2.66,0,0,0-.58-.19,7.72,7.72,0,0,1-.88-.27.83.83,0,0,1-.36-.33.77.77,0,0,1-.13-.45.87.87,0,0,1,.1-.42,1,1,0,0,1,.29-.31,1,1,0,0,1,.36-.17,1.57,1.57,0,0,1,.49-.07,1.86,1.86,0,0,1,.7.12.82.82,0,0,1,.44.31,1.13,1.13,0,0,1,.2.52l-.56.07a.61.61,0,0,0-.22-.4.81.81,0,0,0-.52-.15.91.91,0,0,0-.56.13.4.4,0,0,0-.17.31.37.37,0,0,0,.07.2.53.53,0,0,0,.22.15l.51.14a7,7,0,0,1,.84.27.88.88,0,0,1,.38.3.83.83,0,0,1,.13.49,1,1,0,0,1-.16.54,1.18,1.18,0,0,1-.48.39,1.8,1.8,0,0,1-.71.13,1.57,1.57,0,0,1-1-.27A1.24,1.24,0,0,1,54.4,121.08Z" transform="translate(1.43 -22.08)"/><path class="cls-5" d="M25,129.89v-3.37h.52V127a1.31,1.31,0,0,1,.36-.47.61.61,0,0,1,.37-.12,1,1,0,0,1,.58.19l-.19.53a.76.76,0,0,0-.42-.13.58.58,0,0,0-.34.11.6.6,0,0,0-.21.32,2.29,2.29,0,0,0-.09.66v1.77Z" transform="translate(1.43 -22.08)"/><path class="cls-5" d="M29.36,129.89v-.5a1.23,1.23,0,0,1-1.07.57,1.29,1.29,0,0,1-.55-.11.87.87,0,0,1-.56-.71,2.3,2.3,0,0,1,0-.53v-2.09h.57v1.87a2.63,2.63,0,0,0,0,.6.54.54,0,0,0,.23.35.67.67,0,0,0,.43.13.91.91,0,0,0,.48-.13.74.74,0,0,0,.32-.36,1.86,1.86,0,0,0,.09-.66v-1.8h.57v3.37Z" transform="translate(1.43 -22.08)"/><path class="cls-5" d="M30.77,129.89v-3.37h.51V127a1.23,1.23,0,0,1,1.08-.56,1.47,1.47,0,0,1,.56.11.88.88,0,0,1,.38.29,1.33,1.33,0,0,1,.18.42,3.51,3.51,0,0,1,0,.56v2.07h-.57v-2a1.62,1.62,0,0,0-.07-.52.5.5,0,0,0-.24-.28.71.71,0,0,0-.39-.1.88.88,0,0,0-.63.23,1.13,1.13,0,0,0-.27.88v1.84Z" transform="translate(1.43 -22.08)"/><path class="cls-5" d="M34.38,129.89v-3.37h.52V127a1.21,1.21,0,0,1,1.07-.56,1.47,1.47,0,0,1,.56.11.82.82,0,0,1,.38.29,1,1,0,0,1,.18.42,3.51,3.51,0,0,1,0,.56v2.07h-.57v-2a1.67,1.67,0,0,0-.06-.52.6.6,0,0,0-.24-.28.74.74,0,0,0-.4-.1.91.91,0,0,0-.63.23,1.13,1.13,0,0,0-.26.88v1.84Z" transform="translate(1.43 -22.08)"/><path class="cls-5" d="M38,125.89v-.65h.57v.65Zm0,4v-3.37h.57v3.37Z" transform="translate(1.43 -22.08)"/><path class="cls-5" d="M39.44,129.89v-3.37H40V127a1.21,1.21,0,0,1,1.07-.56,1.47,1.47,0,0,1,.56.11.82.82,0,0,1,.38.29,1,1,0,0,1,.18.42,3.51,3.51,0,0,1,0,.56v2.07h-.57v-2a1.67,1.67,0,0,0-.06-.52.6.6,0,0,0-.24-.28.77.77,0,0,0-.4-.1.91.91,0,0,0-.63.23,1.13,1.13,0,0,0-.26.88v1.84Z" transform="translate(1.43 -22.08)"/><path class="cls-5" d="M43,130.17l.56.08a.51.51,0,0,0,.19.37.93.93,0,0,0,.58.16,1,1,0,0,0,.62-.16.76.76,0,0,0,.29-.44,3.83,3.83,0,0,0,0-.73,1.18,1.18,0,0,1-.93.44,1.28,1.28,0,0,1-1.08-.5,2,2,0,0,1-.38-1.21,2.39,2.39,0,0,1,.17-.89,1.46,1.46,0,0,1,.51-.63,1.43,1.43,0,0,1,.78-.22,1.2,1.2,0,0,1,1,.48v-.4h.53v2.91a2.72,2.72,0,0,1-.16,1.12,1.22,1.22,0,0,1-.51.52,1.84,1.84,0,0,1-.85.19,1.63,1.63,0,0,1-1-.27A1,1,0,0,1,43,130.17Zm.48-2a1.43,1.43,0,0,0,.26,1,.86.86,0,0,0,1.32,0,1.4,1.4,0,0,0,.27-1,1.34,1.34,0,0,0-.28-.93.84.84,0,0,0-.66-.32.86.86,0,0,0-.65.31A1.44,1.44,0,0,0,43.43,128.14Z" transform="translate(1.43 -22.08)"/><path class="cls-5" d="M48.47,129.89v-3.37H49V127a1.31,1.31,0,0,1,.36-.47.61.61,0,0,1,.37-.12,1,1,0,0,1,.58.19l-.19.53a.76.76,0,0,0-.42-.13.58.58,0,0,0-.34.11.6.6,0,0,0-.21.32,2.28,2.28,0,0,0-.1.66v1.77Z" transform="translate(1.43 -22.08)"/><path class="cls-5" d="M52.84,129.47a2,2,0,0,1-.61.38,1.61,1.61,0,0,1-.63.11,1.22,1.22,0,0,1-.85-.27.89.89,0,0,1-.3-.69.94.94,0,0,1,.11-.45,1,1,0,0,1,.3-.33,1.4,1.4,0,0,1,.41-.19,3,3,0,0,1,.51-.08,5.33,5.33,0,0,0,1-.2v-.15a.65.65,0,0,0-.16-.49,1,1,0,0,0-.65-.2,1,1,0,0,0-.6.15.83.83,0,0,0-.28.5l-.56-.08a1.34,1.34,0,0,1,.25-.58,1.09,1.09,0,0,1,.5-.34,2.26,2.26,0,0,1,.77-.12,2.21,2.21,0,0,1,.7.1,1,1,0,0,1,.4.26,1,1,0,0,1,.18.39c0,.09,0,.27,0,.52v.77a8.6,8.6,0,0,0,0,1,1.25,1.25,0,0,0,.14.41H53A1.29,1.29,0,0,1,52.84,129.47Zm0-1.27a4.63,4.63,0,0,1-.94.21,2.14,2.14,0,0,0-.5.12.49.49,0,0,0-.22.18.5.5,0,0,0-.08.27.52.52,0,0,0,.17.39.78.78,0,0,0,.51.15,1.18,1.18,0,0,0,.59-.15.87.87,0,0,0,.37-.39,1.24,1.24,0,0,0,.1-.57Z" transform="translate(1.43 -22.08)"/><path class="cls-5" d="M54.26,129.89v-3.37h.51V127a1.23,1.23,0,0,1,1.08-.56,1.47,1.47,0,0,1,.56.11.88.88,0,0,1,.38.29,1.33,1.33,0,0,1,.18.42,3.51,3.51,0,0,1,0,.56v2.07h-.57v-2a1.62,1.62,0,0,0-.07-.52.5.5,0,0,0-.24-.28.71.71,0,0,0-.39-.1.92.92,0,0,0-.64.23,1.17,1.17,0,0,0-.26.88v1.84Z" transform="translate(1.43 -22.08)"/><path class="cls-5" d="M57.77,130.17l.55.08a.52.52,0,0,0,.2.37.91.91,0,0,0,.58.16,1,1,0,0,0,.61-.16.72.72,0,0,0,.29-.44,3.12,3.12,0,0,0,0-.73,1.17,1.17,0,0,1-.93.44,1.27,1.27,0,0,1-1.07-.5,1.92,1.92,0,0,1-.38-1.21,2.21,2.21,0,0,1,.17-.89,1.46,1.46,0,0,1,.51-.63,1.43,1.43,0,0,1,.78-.22,1.22,1.22,0,0,1,1,.48v-.4h.53v2.91a2.9,2.9,0,0,1-.16,1.12,1.22,1.22,0,0,1-.51.52,1.85,1.85,0,0,1-.86.19,1.61,1.61,0,0,1-1-.27A.93.93,0,0,1,57.77,130.17Zm.47-2a1.42,1.42,0,0,0,.27,1,.83.83,0,0,0,.66.31.86.86,0,0,0,.66-.31,1.46,1.46,0,0,0,.26-1,1.39,1.39,0,0,0-.27-.93.86.86,0,0,0-.66-.32.84.84,0,0,0-.65.31A1.38,1.38,0,0,0,58.24,128.14Z" transform="translate(1.43 -22.08)"/><path class="cls-5" d="M63.8,128.8l.59.08a1.5,1.5,0,0,1-.52.8,1.78,1.78,0,0,1-2.14-.17,1.77,1.77,0,0,1-.43-1.28,1.88,1.88,0,0,1,.44-1.32,1.49,1.49,0,0,1,1.13-.47,1.45,1.45,0,0,1,1.11.46,1.87,1.87,0,0,1,.43,1.3s0,.08,0,.15H61.89a1.34,1.34,0,0,0,.31.85.94.94,0,0,0,.71.29.84.84,0,0,0,.53-.16A1.13,1.13,0,0,0,63.8,128.8Zm-1.88-.92H63.8a1.1,1.1,0,0,0-.21-.64.88.88,0,0,0-.71-.33.9.9,0,0,0-.66.27A1,1,0,0,0,61.92,127.88Z" transform="translate(1.43 -22.08)"/><path class="cls-5" d="M3.22,98.27H-.88V99.8h-.55V96.11h.55v1.54h4.1Z" transform="translate(1.43 -22.08)"/><path class="cls-5" d="M1.54,95.77a1.73,1.73,0,0,1-1.39-.52,1.56,1.56,0,0,1-.37-1.06,1.53,1.53,0,0,1,.45-1.14,1.76,1.76,0,0,1,1.26-.44,2.22,2.22,0,0,1,1,.2,1.42,1.42,0,0,1,.58.56,1.64,1.64,0,0,1,.21.82,1.51,1.51,0,0,1-.45,1.14A1.84,1.84,0,0,1,1.54,95.77Zm0-.59a1.44,1.44,0,0,0,1-.28.93.93,0,0,0,.32-.71.91.91,0,0,0-.32-.71,1.48,1.48,0,0,0-1-.28,1.4,1.4,0,0,0-.95.28.95.95,0,0,0,0,1.42A1.42,1.42,0,0,0,1.54,95.18Z" transform="translate(1.43 -22.08)"/><path class="cls-5" d="M3.22,92H-.15v-.52H.36a1.41,1.41,0,0,1-.47-.36.6.6,0,0,1-.11-.37A1.09,1.09,0,0,1,0,90.12l.53.19a.84.84,0,0,0-.12.42.51.51,0,0,0,.11.34.58.58,0,0,0,.31.21,2.35,2.35,0,0,0,.67.1H3.22Z" transform="translate(1.43 -22.08)"/><path class="cls-5" d="M4.51,87.63H2.86a1.06,1.06,0,0,1,.32.37,1.13,1.13,0,0,1,.12.51,1.34,1.34,0,0,1-.48,1A1.89,1.89,0,0,1,1.51,90a2.25,2.25,0,0,1-.92-.18A1.4,1.4,0,0,1,0,89.29a1.44,1.44,0,0,1-.2-.74,1.13,1.13,0,0,1,.52-1H-.15v-.51H4.51Zm-3,1.76a1.48,1.48,0,0,0,1-.27.84.84,0,0,0,.33-.66.8.8,0,0,0-.31-.63,1.46,1.46,0,0,0-.94-.26,1.52,1.52,0,0,0-1,.28.8.8,0,0,0-.34.65.78.78,0,0,0,.31.63A1.56,1.56,0,0,0,1.53,89.39Z" transform="translate(1.43 -22.08)"/><path class="cls-5" d="M3.22,84H2.73A1.23,1.23,0,0,1,3.3,85a1.31,1.31,0,0,1-.12.56A.88.88,0,0,1,2.9,86a1,1,0,0,1-.43.18,3.33,3.33,0,0,1-.53,0H-.15V85.6H1.72a3.77,3.77,0,0,0,.6,0,.6.6,0,0,0,.36-.23.75.75,0,0,0,.13-.43.92.92,0,0,0-.14-.48.64.64,0,0,0-.35-.32,1.63,1.63,0,0,0-.66-.1H-.15v-.57H3.22Z" transform="translate(1.43 -22.08)"/><path class="cls-5" d="M2.14,80.24l.07-.59a1.39,1.39,0,0,1,.8.52,1.54,1.54,0,0,1,.29,1,1.52,1.52,0,0,1-.46,1.17,1.77,1.77,0,0,1-1.27.44A1.86,1.86,0,0,1,.25,82.3a1.46,1.46,0,0,1-.47-1.14,1.41,1.41,0,0,1,.46-1.1,1.78,1.78,0,0,1,1.29-.43h.15v2.52a1.27,1.27,0,0,0,.85-.32.92.92,0,0,0,.3-.7.89.89,0,0,0-.17-.54A1.09,1.09,0,0,0,2.14,80.24Zm-.93,1.87V80.23a1.14,1.14,0,0,0-.63.22.88.88,0,0,0-.33.71.89.89,0,0,0,.26.66A1,1,0,0,0,1.21,82.11Z" transform="translate(1.43 -22.08)"/><path class="cls-5" d="M4.51,77.11H-1.43V75.85H-1v.69H4v-.69h.47Z" transform="translate(1.43 -22.08)"/><path class="cls-5" d="M3.22,75.25H-1.43v-.63l3.65-2.44H-1.43v-.59H3.22v.63L-.43,74.66H3.22Z" transform="translate(1.43 -22.08)"/><path class="cls-5" d="M.94,70.71a.74.74,0,0,1-.56-.24.76.76,0,0,1-.24-.56.75.75,0,0,1,.24-.57.74.74,0,0,1,.56-.24.75.75,0,0,1,.57.24.75.75,0,0,1,.24.57.76.76,0,0,1-.24.56A.75.75,0,0,1,.94,70.71Z" transform="translate(1.43 -22.08)"/><path class="cls-5" d="M3.22,68.35H-.15v-.51H.33a1.24,1.24,0,0,1-.4-.42,1.21,1.21,0,0,1-.15-.6,1.16,1.16,0,0,1,.15-.62.84.84,0,0,1,.44-.34,1.18,1.18,0,0,1-.59-1,1,1,0,0,1,.27-.77,1.2,1.2,0,0,1,.86-.27H3.22v.57H1.1a1.42,1.42,0,0,0-.49.06.44.44,0,0,0-.25.2A.64.64,0,0,0,.27,65a.79.79,0,0,0,.24.59,1,1,0,0,0,.75.24h2v.57H1a.92.92,0,0,0-.57.14.51.51,0,0,0-.19.45.81.81,0,0,0,.13.45.69.69,0,0,0,.37.3,2.12,2.12,0,0,0,.7.09H3.22Z" transform="translate(1.43 -22.08)"/><path class="cls-5" d="M4.51,62v1.26H4v-.69H-1v.69h-.47V62Z" transform="translate(1.43 -22.08)"/><path class="cls-5" d="M44.05,150.55l.58-.05a1.32,1.32,0,0,0,.19.58,1,1,0,0,0,.47.36,1.8,1.8,0,0,0,.71.14,1.73,1.73,0,0,0,.63-.11.87.87,0,0,0,.4-.28.68.68,0,0,0,.13-.4.59.59,0,0,0-.13-.39.92.92,0,0,0-.42-.27c-.12,0-.4-.12-.83-.23a4.15,4.15,0,0,1-.89-.29,1.19,1.19,0,0,1-.5-.43,1.06,1.06,0,0,1-.16-.58,1.16,1.16,0,0,1,.2-.66,1.18,1.18,0,0,1,.58-.46,2.15,2.15,0,0,1,.85-.16,2.4,2.4,0,0,1,.92.16,1.4,1.4,0,0,1,.6.49,1.35,1.35,0,0,1,.23.74l-.59,0a1,1,0,0,0-.32-.66,1.24,1.24,0,0,0-.81-.23,1.34,1.34,0,0,0-.81.2.64.64,0,0,0-.26.5A.52.52,0,0,0,45,149a2.39,2.39,0,0,0,.93.33,7.58,7.58,0,0,1,1,.3,1.39,1.39,0,0,1,.6.47,1.19,1.19,0,0,1,.19.67,1.3,1.3,0,0,1-.21.7,1.4,1.4,0,0,1-.61.51,2.19,2.19,0,0,1-.9.18A2.76,2.76,0,0,1,45,152a1.52,1.52,0,0,1-.92-1.4Z" transform="translate(1.43 -22.08)"/><path class="cls-5" d="M48.52,153.34v-4.66H49v.44a1.29,1.29,0,0,1,.42-.39,1.19,1.19,0,0,1,.56-.13,1.31,1.31,0,0,1,.76.23,1.29,1.29,0,0,1,.5.62,2.35,2.35,0,0,1,.17.89,2.18,2.18,0,0,1-.19.93,1.36,1.36,0,0,1-.54.64,1.42,1.42,0,0,1-.74.22,1.14,1.14,0,0,1-.52-.12,1.42,1.42,0,0,1-.37-.31v1.64Zm.52-3a1.52,1.52,0,0,0,.26,1,.84.84,0,0,0,.64.31.82.82,0,0,0,.65-.33,1.5,1.5,0,0,0,.27-1,1.56,1.56,0,0,0-.26-1,.79.79,0,0,0-1.28,0A1.52,1.52,0,0,0,49,150.38Z" transform="translate(1.43 -22.08)"/><path class="cls-5" d="M54.44,151,55,151a1.43,1.43,0,0,1-.51.8,1.6,1.6,0,0,1-1,.29,1.56,1.56,0,0,1-1.17-.46,1.77,1.77,0,0,1-.43-1.28,1.89,1.89,0,0,1,.43-1.32,1.51,1.51,0,0,1,1.14-.47,1.45,1.45,0,0,1,1.1.46,1.82,1.82,0,0,1,.43,1.3v.15H52.54a1.28,1.28,0,0,0,.31.85.92.92,0,0,0,.7.3.89.89,0,0,0,.54-.17A1,1,0,0,0,54.44,151ZM52.57,150h1.88a1.18,1.18,0,0,0-.22-.64.86.86,0,0,0-.7-.33.9.9,0,0,0-.67.27A1.07,1.07,0,0,0,52.57,150Z" transform="translate(1.43 -22.08)"/><path class="cls-5" d="M58.06,151l.59.08a1.44,1.44,0,0,1-.52.8,1.54,1.54,0,0,1-1,.29,1.57,1.57,0,0,1-1.18-.46,1.77,1.77,0,0,1-.43-1.28,1.9,1.9,0,0,1,.44-1.32,1.49,1.49,0,0,1,1.13-.47,1.47,1.47,0,0,1,1.11.46,1.87,1.87,0,0,1,.43,1.3,1,1,0,0,1,0,.15H56.15a1.34,1.34,0,0,0,.31.85.94.94,0,0,0,.71.3.89.89,0,0,0,.54-.17A1.14,1.14,0,0,0,58.06,151ZM56.18,150h1.88a1.1,1.1,0,0,0-.21-.64.88.88,0,0,0-.71-.33.9.9,0,0,0-.66.27A1,1,0,0,0,56.18,150Z" transform="translate(1.43 -22.08)"/><path class="cls-5" d="M61.55,152.05v-.43a1,1,0,0,1-.94.51,1.3,1.3,0,0,1-.74-.23,1.33,1.33,0,0,1-.52-.62,2,2,0,0,1-.19-.91,2.47,2.47,0,0,1,.17-.92,1.37,1.37,0,0,1,.5-.63,1.43,1.43,0,0,1,.75-.22,1.21,1.21,0,0,1,.55.13,1.14,1.14,0,0,1,.38.34V147.4h.57v4.65Zm-1.8-1.68a1.5,1.5,0,0,0,.27,1,.83.83,0,0,0,.64.32.82.82,0,0,0,.64-.31,1.43,1.43,0,0,0,.26-.93,1.64,1.64,0,0,0-.26-1,.81.81,0,0,0-.66-.32.78.78,0,0,0-.64.31A1.52,1.52,0,0,0,59.75,150.37Z" transform="translate(1.43 -22.08)"/><path class="cls-5" d="M64.8,153.34V147.4h1.26v.47h-.69v5h.69v.47Z" transform="translate(1.43 -22.08)"/><path class="cls-5" d="M66.59,152.05v-3.37h.51v.51a1.31,1.31,0,0,1,.36-.47.63.63,0,0,1,.37-.12,1.08,1.08,0,0,1,.59.19l-.2.53a.76.76,0,0,0-.42-.13.52.52,0,0,0-.33.12.65.65,0,0,0-.22.31,2.31,2.31,0,0,0-.09.67v1.76Z" transform="translate(1.43 -22.08)"/><path class="cls-5" d="M68.33,152.13l1.35-4.81h.45l-1.34,4.81Z" transform="translate(1.43 -22.08)"/><path class="cls-5" d="M70.56,152.05v-3.37h.51v.47a1.27,1.27,0,0,1,.43-.4,1.16,1.16,0,0,1,.6-.15,1.13,1.13,0,0,1,.61.16.86.86,0,0,1,.34.43,1.2,1.2,0,0,1,1-.59,1.05,1.05,0,0,1,.77.28,1.2,1.2,0,0,1,.27.86v2.31h-.57v-2.12a1.91,1.91,0,0,0,0-.5.49.49,0,0,0-.21-.24.62.62,0,0,0-.34-.09.84.84,0,0,0-.59.23,1.08,1.08,0,0,0-.23.76v2h-.57v-2.19a1,1,0,0,0-.14-.57.54.54,0,0,0-.46-.19.81.81,0,0,0-.45.13.69.69,0,0,0-.29.37,1.82,1.82,0,0,0-.1.7v1.75Z" transform="translate(1.43 -22.08)"/><path class="cls-5" d="M76,148.05v-.65h.57v.65Zm0,4v-3.37h.57v3.37Z" transform="translate(1.43 -22.08)"/><path class="cls-5" d="M77.42,152.05v-3.37h.52v.48A1.2,1.2,0,0,1,79,148.6a1.47,1.47,0,0,1,.56.11A.89.89,0,0,1,80,149a1,1,0,0,1,.18.42,3.51,3.51,0,0,1,0,.56v2.07h-.57V150a1.38,1.38,0,0,0-.07-.52.53.53,0,0,0-.23-.28.77.77,0,0,0-.4-.1.92.92,0,0,0-.63.23,1.13,1.13,0,0,0-.27.88v1.84Z" transform="translate(1.43 -22.08)"/><path class="cls-5" d="M82,153.34H80.73v-.47h.69v-5h-.69v-.47H82Z" transform="translate(1.43 -22.08)"/></g></svg>