<svg xmlns="http://www.w3.org/2000/svg" viewBox="0 0 114.48 131.07"><defs><style>.cls-1,.cls-2,.cls-3,.cls-6,.繝医Ν繧ｯ繧ｰ繝ｩ繝廟繧ｰ繝ｬ繝ｼ邱{fill:none;}.cls-1,.cls-2,.繝医Ν繧ｯ繧ｰ繝ｩ繝廟繧ｰ繝ｬ繝ｼ邱{stroke:#9fa0a0;}.cls-1,.cls-2,.cls-6{stroke-miterlimit:10;}.cls-1,.cls-2{stroke-width:1px;}.cls-2{stroke-dasharray:3.41 1.65;}.cls-3,.cls-6{stroke:#231815;}.cls-3{stroke-linejoin:round;stroke-width:0.14px;}.繝医Ν繧ｯ繧ｰ繝ｩ繝廟繧ｰ繝ｬ繝ｼ邱{stroke-width:3px;}.cls-4{fill:#231815;}.cls-5{fill:#fff;}.cls-6{stroke-width:0.5px;fill-rule:evenodd;}</style></defs><g id="Illust"><line class="cls-1" x1="97.15" y1="100.39" x2="97.15" y2="101.95"/><line class="cls-2" x1="97.15" y1="103.6" x2="97.15" y2="112.9"/><line class="cls-1" x1="97.15" y1="113.72" x2="97.15" y2="115.27"/><line class="cls-3" x1="19.85" y1="98.87" x2="109.03" y2="98.87"/><line class="cls-3" x1="19.85" y1="82.74" x2="109.03" y2="82.74"/><line class="cls-3" x1="19.85" y1="66.56" x2="109.03" y2="66.56"/><line class="cls-3" x1="19.85" y1="50.43" x2="109.03" y2="50.43"/><line class="cls-3" x1="19.85" y1="34.3" x2="109.03" y2="34.3"/><line class="cls-3" x1="19.85" y1="18.12" x2="109.03" y2="18.12"/><line class="cls-3" x1="49.62" y1="1.99" x2="49.62" y2="115.25"/><line class="cls-3" x1="79.38" y1="1.99" x2="79.38" y2="115.25"/><polyline class="繝医Ν繧ｯ繧ｰ繝ｩ繝廟繧ｰ繝ｬ繝ｼ邱" points="19.86 89.34 64.44 89.34 71.87 92.97 79.32 95.75 86.75 97.88 94.18 99.59 101.61 100.98 109.04 102.16"/><polyline class="繝医Ν繧ｯ繧ｰ繝ｩ繝廟繧ｰ繝ｬ繝ｼ邱" points="19.86 12.22 57.01 12.22 64.44 37.91 110.7 75.64"/><path class="cls-4" d="M17.24,141.38a3.52,3.52,0,0,1,.13-1,1.33,1.33,0,0,1,.39-.59,1.14,1.14,0,0,1,1.15-.1.9.9,0,0,1,.36.34,1.73,1.73,0,0,1,.23.53,3.72,3.72,0,0,1,.08.84,3.52,3.52,0,0,1-.13,1,1.31,1.31,0,0,1-.39.6,1,1,0,0,1-.65.21,1,1,0,0,1-.81-.37A2.33,2.33,0,0,1,17.24,141.38Zm.45,0a2.25,2.25,0,0,0,.21,1.18.59.59,0,0,0,1,0,2.27,2.27,0,0,0,.2-1.18,2.23,2.23,0,0,0-.2-1.17.63.63,0,0,0-.52-.29.56.56,0,0,0-.48.26A2.24,2.24,0,0,0,17.69,141.38Z" transform="translate(1.43 -22.16)"/><path class="cls-4" d="M45.13,142.73v.42H42.76a.73.73,0,0,1,.06-.3,1.58,1.58,0,0,1,.28-.48,4.54,4.54,0,0,1,.58-.54,4.87,4.87,0,0,0,.79-.76,1,1,0,0,0,.2-.53.6.6,0,0,0-.18-.44.77.77,0,0,0-1,0,.7.7,0,0,0-.19.53l-.45,0a1.08,1.08,0,0,1,.35-.77,1.21,1.21,0,0,1,.81-.26,1.13,1.13,0,0,1,.81.28.94.94,0,0,1,.3.71A1,1,0,0,1,45,141a1.75,1.75,0,0,1-.29.44c-.14.15-.37.36-.68.63a5.24,5.24,0,0,0-.51.45,2,2,0,0,0-.19.24Z" transform="translate(1.43 -22.16)"/><path class="cls-4" d="M45.63,141.39a3.23,3.23,0,0,1,.13-1,1.33,1.33,0,0,1,.39-.59,1,1,0,0,1,.65-.21,1.12,1.12,0,0,1,.5.11.9.9,0,0,1,.36.34,1.51,1.51,0,0,1,.22.53,3.25,3.25,0,0,1,.08.85,3.48,3.48,0,0,1-.12,1,1.31,1.31,0,0,1-.39.6,1.1,1.1,0,0,1-1.47-.16A2.39,2.39,0,0,1,45.63,141.39Zm.45,0a2.23,2.23,0,0,0,.21,1.17.59.59,0,0,0,1,0,3.55,3.55,0,0,0,0-2.35.63.63,0,0,0-.52-.29.56.56,0,0,0-.48.26A2.28,2.28,0,0,0,46.08,141.39Z" transform="translate(1.43 -22.16)"/><path class="cls-4" d="M48.38,141.39a3.54,3.54,0,0,1,.13-1,1.33,1.33,0,0,1,.39-.59,1,1,0,0,1,.65-.21,1.12,1.12,0,0,1,.5.11.9.9,0,0,1,.36.34,1.73,1.73,0,0,1,.23.53,3.76,3.76,0,0,1,.08.85,3.44,3.44,0,0,1-.13,1,1.31,1.31,0,0,1-.39.6,1,1,0,0,1-.65.21,1,1,0,0,1-.81-.37A2.32,2.32,0,0,1,48.38,141.39Zm.45,0a2.23,2.23,0,0,0,.21,1.17.59.59,0,0,0,1,0,3.55,3.55,0,0,0,0-2.35.63.63,0,0,0-.52-.29.56.56,0,0,0-.48.26A2.28,2.28,0,0,0,48.83,141.39Z" transform="translate(1.43 -22.16)"/><path class="cls-4" d="M51.19,141.39a3.54,3.54,0,0,1,.13-1,1.33,1.33,0,0,1,.39-.59,1,1,0,0,1,.65-.21,1.12,1.12,0,0,1,.5.11.9.9,0,0,1,.36.34,1.73,1.73,0,0,1,.23.53,3.76,3.76,0,0,1,.08.85,3.44,3.44,0,0,1-.13,1,1.31,1.31,0,0,1-.39.6,1,1,0,0,1-.65.21,1,1,0,0,1-.81-.37A2.32,2.32,0,0,1,51.19,141.39Zm.45,0a2.23,2.23,0,0,0,.21,1.17.59.59,0,0,0,1,0,3.55,3.55,0,0,0,0-2.35.63.63,0,0,0-.52-.29.56.56,0,0,0-.48.26A2.28,2.28,0,0,0,51.64,141.39Z" transform="translate(1.43 -22.16)"/><path class="cls-4" d="M74,143.15v-.86H72.44v-.4l1.63-2.32h.36v2.32h.49v.4h-.49v.86Zm0-1.26v-1.61l-1.12,1.61Z" transform="translate(1.43 -22.16)"/><path class="cls-4" d="M75.39,141.39a3.54,3.54,0,0,1,.13-1,1.33,1.33,0,0,1,.39-.59,1,1,0,0,1,.65-.21,1.19,1.19,0,0,1,.51.11,1.06,1.06,0,0,1,.36.34,2,2,0,0,1,.22.53,3.76,3.76,0,0,1,.08.85,3.14,3.14,0,0,1-.13,1,1.31,1.31,0,0,1-.39.6,1,1,0,0,1-.65.21,1,1,0,0,1-.81-.37A2.32,2.32,0,0,1,75.39,141.39Zm.46,0a2.25,2.25,0,0,0,.2,1.17.59.59,0,0,0,1,0,3.39,3.39,0,0,0,0-2.35.62.62,0,0,0-.51-.29.57.57,0,0,0-.49.26A2.3,2.3,0,0,0,75.85,141.39Z" transform="translate(1.43 -22.16)"/><path class="cls-4" d="M78.15,141.39a3.23,3.23,0,0,1,.13-1,1.24,1.24,0,0,1,.38-.59,1,1,0,0,1,.65-.21,1.19,1.19,0,0,1,.51.11,1.06,1.06,0,0,1,.36.34,1.73,1.73,0,0,1,.22.53,3.76,3.76,0,0,1,.08.85,3.14,3.14,0,0,1-.13,1,1.31,1.31,0,0,1-.39.6,1,1,0,0,1-.65.21,1,1,0,0,1-.81-.37A2.33,2.33,0,0,1,78.15,141.39Zm.45,0a2.36,2.36,0,0,0,.2,1.17.59.59,0,0,0,1,0,3.39,3.39,0,0,0,0-2.35.62.62,0,0,0-.51-.29.58.58,0,0,0-.49.26A2.3,2.3,0,0,0,78.6,141.39Z" transform="translate(1.43 -22.16)"/><path class="cls-4" d="M81,141.39a3.23,3.23,0,0,1,.13-1,1.18,1.18,0,0,1,.39-.59,1,1,0,0,1,.64-.21,1.19,1.19,0,0,1,.51.11A1.06,1.06,0,0,1,83,140a1.73,1.73,0,0,1,.22.53,3.76,3.76,0,0,1,.08.85,3.14,3.14,0,0,1-.13,1,1.23,1.23,0,0,1-.39.6,1.09,1.09,0,0,1-1.46-.16A2.33,2.33,0,0,1,81,141.39Zm.45,0a2.36,2.36,0,0,0,.2,1.17.59.59,0,0,0,1,0,3.39,3.39,0,0,0,0-2.35.62.62,0,0,0-.51-.29.59.59,0,0,0-.49.26A2.3,2.3,0,0,0,81.41,141.39Z" transform="translate(1.43 -22.16)"/><path class="cls-4" d="M104.63,140.45l-.44,0a.71.71,0,0,0-.17-.37.54.54,0,0,0-.43-.19.65.65,0,0,0-.37.11,1,1,0,0,0-.33.45,2.22,2.22,0,0,0-.12.82.91.91,0,0,1,.38-.35,1.07,1.07,0,0,1,.48-.12,1,1,0,0,1,.75.32,1.16,1.16,0,0,1,.31.84,1.44,1.44,0,0,1-.14.62,1.1,1.1,0,0,1-.4.45,1.11,1.11,0,0,1-.58.15,1.14,1.14,0,0,1-.9-.4,2.06,2.06,0,0,1-.34-1.33,2.4,2.4,0,0,1,.38-1.51,1.08,1.08,0,0,1,.9-.41,1,1,0,0,1,1,.89Zm-1.8,1.54a1,1,0,0,0,.1.43.66.66,0,0,0,.27.32.72.72,0,0,0,.36.11.64.64,0,0,0,.48-.22.87.87,0,0,0,.2-.62.79.79,0,0,0-.2-.58.64.64,0,0,0-.49-.21.69.69,0,0,0-.51.21A.76.76,0,0,0,102.83,142Z" transform="translate(1.43 -22.16)"/><path class="cls-4" d="M105.16,141.38a3.2,3.2,0,0,1,.13-1,1.33,1.33,0,0,1,.39-.59,1,1,0,0,1,.65-.21,1,1,0,0,1,.5.11.9.9,0,0,1,.36.34,1.73,1.73,0,0,1,.22.53,4.23,4.23,0,0,1,0,1.86,1.22,1.22,0,0,1-.38.6,1,1,0,0,1-.65.21,1,1,0,0,1-.82-.37A2.41,2.41,0,0,1,105.16,141.38Zm.45,0a2.25,2.25,0,0,0,.21,1.18.58.58,0,0,0,1,0,2.25,2.25,0,0,0,.21-1.18,2.2,2.2,0,0,0-.21-1.17.6.6,0,0,0-.51-.29.56.56,0,0,0-.48.26A2.24,2.24,0,0,0,105.61,141.38Z" transform="translate(1.43 -22.16)"/><path class="cls-4" d="M107.91,141.38a3.2,3.2,0,0,1,.13-1,1.33,1.33,0,0,1,.39-.59,1.14,1.14,0,0,1,1.15-.1.9.9,0,0,1,.36.34,1.73,1.73,0,0,1,.22.53,4.23,4.23,0,0,1,0,1.86,1.22,1.22,0,0,1-.38.6,1.1,1.1,0,0,1-1.47-.16A2.41,2.41,0,0,1,107.91,141.38Zm.45,0a2.25,2.25,0,0,0,.21,1.18.6.6,0,0,0,.51.29.62.62,0,0,0,.51-.29,2.38,2.38,0,0,0,.2-1.18,2.34,2.34,0,0,0-.2-1.17.63.63,0,0,0-.52-.29.56.56,0,0,0-.48.26A2.24,2.24,0,0,0,108.36,141.38Z" transform="translate(1.43 -22.16)"/><path class="cls-4" d="M110.72,141.38a3.2,3.2,0,0,1,.13-1,1.33,1.33,0,0,1,.39-.59,1.14,1.14,0,0,1,1.15-.1.9.9,0,0,1,.36.34,1.51,1.51,0,0,1,.22.53,4.23,4.23,0,0,1,0,1.86,1.22,1.22,0,0,1-.38.6,1.1,1.1,0,0,1-1.47-.16A2.41,2.41,0,0,1,110.72,141.38Zm.45,0a2.25,2.25,0,0,0,.21,1.18.61.61,0,0,0,.51.29.62.62,0,0,0,.51-.29,2.38,2.38,0,0,0,.2-1.18,2.34,2.34,0,0,0-.2-1.17.63.63,0,0,0-.52-.29.56.56,0,0,0-.48.26A2.24,2.24,0,0,0,111.17,141.38Z" transform="translate(1.43 -22.16)"/><rect class="cls-5" x="109.15" y="1.94" width="2.83" height="113.39"/><rect class="cls-5" x="17.02" y="1.94" width="2.83" height="113.39"/><path class="cls-4" d="M10.23,137a3.16,3.16,0,0,1,.13-1,1.31,1.31,0,0,1,.39-.6,1.11,1.11,0,0,1,1.15-.09.82.82,0,0,1,.36.33,1.6,1.6,0,0,1,.22.53,3.25,3.25,0,0,1,.08.85,3.2,3.2,0,0,1-.13,1,1.24,1.24,0,0,1-.38.59,1.1,1.1,0,0,1-1.47-.16A2.37,2.37,0,0,1,10.23,137Zm.45,0a2.18,2.18,0,0,0,.21,1.17.59.59,0,0,0,1,0,3.55,3.55,0,0,0,0-2.35.63.63,0,0,0-.52-.29.56.56,0,0,0-.48.26A2.28,2.28,0,0,0,10.68,137Z" transform="translate(1.43 -22.16)"/><path class="cls-4" d="M13.29,138.79v-.5h.5v.5Z" transform="translate(1.43 -22.16)"/><path class="cls-4" d="M14.43,137a3.13,3.13,0,0,1,.14-1,1.22,1.22,0,0,1,.38-.6,1,1,0,0,1,.65-.21,1.07,1.07,0,0,1,.51.12.94.94,0,0,1,.36.33,2.17,2.17,0,0,1,.22.53,3.76,3.76,0,0,1,.08.85,3.2,3.2,0,0,1-.13,1,1.33,1.33,0,0,1-.39.59,1,1,0,0,1-.65.21,1,1,0,0,1-.81-.37A2.3,2.3,0,0,1,14.43,137Zm.46,0a2.31,2.31,0,0,0,.2,1.17.59.59,0,0,0,1,0,3.39,3.39,0,0,0,0-2.35.62.62,0,0,0-.51-.29.58.58,0,0,0-.49.26A2.3,2.3,0,0,0,14.89,137Z" transform="translate(1.43 -22.16)"/><path class="cls-4" d="M9.13,122.65H8.7v-2.8a2.54,2.54,0,0,1-.42.3,3.27,3.27,0,0,1-.46.23V120a2.37,2.37,0,0,0,.64-.42,1.76,1.76,0,0,0,.39-.47h.28Z" transform="translate(1.43 -22.16)"/><path class="cls-4" d="M10.29,120.88a3.2,3.2,0,0,1,.13-1,1.28,1.28,0,0,1,.39-.59,1.14,1.14,0,0,1,1.15-.1.9.9,0,0,1,.36.34,1.51,1.51,0,0,1,.22.53,4.23,4.23,0,0,1,0,1.86,1.22,1.22,0,0,1-.38.6,1.1,1.1,0,0,1-1.47-.16A2.41,2.41,0,0,1,10.29,120.88Zm.45,0a2.25,2.25,0,0,0,.21,1.18.59.59,0,0,0,1,0,2.38,2.38,0,0,0,.2-1.18,2.31,2.31,0,0,0-.2-1.17.63.63,0,0,0-.52-.29.54.54,0,0,0-.48.26A2.24,2.24,0,0,0,10.74,120.88Z" transform="translate(1.43 -22.16)"/><path class="cls-4" d="M13.29,122.65v-.5h.5v.5Z" transform="translate(1.43 -22.16)"/><path class="cls-4" d="M14.43,120.88a3.17,3.17,0,0,1,.14-1,1.19,1.19,0,0,1,.38-.59,1,1,0,0,1,.65-.21.95.95,0,0,1,.87.45,2,2,0,0,1,.22.53,3.72,3.72,0,0,1,.08.84,3.2,3.2,0,0,1-.13,1,1.31,1.31,0,0,1-.39.6,1,1,0,0,1-.65.21,1,1,0,0,1-.81-.37A2.33,2.33,0,0,1,14.43,120.88Zm.46,0a2.38,2.38,0,0,0,.2,1.18.59.59,0,0,0,1,0,2.25,2.25,0,0,0,.21-1.18,2.18,2.18,0,0,0-.21-1.17.62.62,0,0,0-.51-.29.56.56,0,0,0-.49.26A2.26,2.26,0,0,0,14.89,120.88Z" transform="translate(1.43 -22.16)"/><path class="cls-4" d="M9.79,106.08v.42H7.42a1.06,1.06,0,0,1,0-.31,1.58,1.58,0,0,1,.29-.47,4.54,4.54,0,0,1,.58-.54,5.35,5.35,0,0,0,.79-.76,1,1,0,0,0,.2-.53.59.59,0,0,0-.18-.44.77.77,0,0,0-1,0A.7.7,0,0,0,8,104l-.45,0a1.08,1.08,0,0,1,.35-.77,1.17,1.17,0,0,1,.81-.27,1.13,1.13,0,0,1,.81.29.94.94,0,0,1,.3.71,1.25,1.25,0,0,1-.08.42,1.57,1.57,0,0,1-.3.44,7.63,7.63,0,0,1-.67.63,5.24,5.24,0,0,0-.51.45,1.33,1.33,0,0,0-.19.24Z" transform="translate(1.43 -22.16)"/><path class="cls-4" d="M10.29,104.73a3.2,3.2,0,0,1,.13-1,1.31,1.31,0,0,1,.39-.6A1.11,1.11,0,0,1,12,103a.9.9,0,0,1,.36.34,1.51,1.51,0,0,1,.22.53,4.23,4.23,0,0,1,0,1.86,1.22,1.22,0,0,1-.38.6,1.1,1.1,0,0,1-1.47-.16A2.41,2.41,0,0,1,10.29,104.73Zm.45,0a2.25,2.25,0,0,0,.21,1.18.59.59,0,0,0,1,0,2.38,2.38,0,0,0,.2-1.18,2.31,2.31,0,0,0-.2-1.17.63.63,0,0,0-.52-.29.56.56,0,0,0-.48.25A2.31,2.31,0,0,0,10.74,104.73Z" transform="translate(1.43 -22.16)"/><path class="cls-4" d="M13.29,106.5V106h.5v.5Z" transform="translate(1.43 -22.16)"/><path class="cls-4" d="M14.43,104.73a3.17,3.17,0,0,1,.14-1,1.22,1.22,0,0,1,.38-.6,1,1,0,0,1,.65-.21,1,1,0,0,1,.87.46,2,2,0,0,1,.22.53,3.72,3.72,0,0,1,.08.84,3.2,3.2,0,0,1-.13,1,1.31,1.31,0,0,1-.39.6,1,1,0,0,1-.65.21,1,1,0,0,1-.81-.37A2.33,2.33,0,0,1,14.43,104.73Zm.46,0a2.38,2.38,0,0,0,.2,1.18.59.59,0,0,0,1,0,2.25,2.25,0,0,0,.21-1.18,2.18,2.18,0,0,0-.21-1.17.62.62,0,0,0-.51-.29.57.57,0,0,0-.49.25A2.33,2.33,0,0,0,14.89,104.73Z" transform="translate(1.43 -22.16)"/><path class="cls-4" d="M7.48,89.41l.44-.06a1,1,0,0,0,.26.54.63.63,0,0,0,.44.16.74.74,0,0,0,.53-.21.76.76,0,0,0,.21-.54.7.7,0,0,0-.2-.5.68.68,0,0,0-.5-.19,1,1,0,0,0-.31,0l.05-.39h.07a.87.87,0,0,0,.5-.15.51.51,0,0,0,.23-.45.53.53,0,0,0-.17-.4.55.55,0,0,0-.42-.16.6.6,0,0,0-.43.16.82.82,0,0,0-.21.48l-.44-.08A1.1,1.1,0,0,1,7.89,87a1.07,1.07,0,0,1,.71-.24,1.19,1.19,0,0,1,.54.12.92.92,0,0,1,.38.35.82.82,0,0,1,.13.46.79.79,0,0,1-.12.42.85.85,0,0,1-.37.3.82.82,0,0,1,.49.31.88.88,0,0,1,.18.57,1.06,1.06,0,0,1-.35.8,1.16,1.16,0,0,1-.86.32,1.1,1.1,0,0,1-.78-.28A1.07,1.07,0,0,1,7.48,89.41Z" transform="translate(1.43 -22.16)"/><path class="cls-4" d="M10.29,88.59a3.23,3.23,0,0,1,.13-1,1.33,1.33,0,0,1,.39-.59,1,1,0,0,1,.65-.21,1.12,1.12,0,0,1,.5.11.9.9,0,0,1,.36.34,1.51,1.51,0,0,1,.22.53,3.25,3.25,0,0,1,.08.85,3.14,3.14,0,0,1-.13,1,1.22,1.22,0,0,1-.38.6A1.1,1.1,0,0,1,10.64,90,2.39,2.39,0,0,1,10.29,88.59Zm.45,0A2.23,2.23,0,0,0,11,89.76a.59.59,0,0,0,1,0,3.55,3.55,0,0,0,0-2.35.63.63,0,0,0-.52-.29.56.56,0,0,0-.48.26A2.28,2.28,0,0,0,10.74,88.59Z" transform="translate(1.43 -22.16)"/><path class="cls-4" d="M13.29,90.35v-.5h.5v.5Z" transform="translate(1.43 -22.16)"/><path class="cls-4" d="M14.43,88.59a3.19,3.19,0,0,1,.14-1A1.24,1.24,0,0,1,15,87a1,1,0,0,1,.65-.21,1.19,1.19,0,0,1,.51.11,1.06,1.06,0,0,1,.36.34,2,2,0,0,1,.22.53,3.76,3.76,0,0,1,.08.85,3.14,3.14,0,0,1-.13,1,1.31,1.31,0,0,1-.39.6,1,1,0,0,1-.65.21,1,1,0,0,1-.81-.37A2.32,2.32,0,0,1,14.43,88.59Zm.46,0a2.36,2.36,0,0,0,.2,1.17.59.59,0,0,0,1,0,3.39,3.39,0,0,0,0-2.35.62.62,0,0,0-.51-.29.58.58,0,0,0-.49.26A2.3,2.3,0,0,0,14.89,88.59Z" transform="translate(1.43 -22.16)"/><path class="cls-4" d="M8.89,74.2v-.86H7.34v-.4L9,70.62h.36v2.32h.48v.4H9.33v.86Zm0-1.26V71.33L7.77,72.94Z" transform="translate(1.43 -22.16)"/><path class="cls-4" d="M10.29,72.43a3.2,3.2,0,0,1,.13-1,1.28,1.28,0,0,1,.39-.59,1.14,1.14,0,0,1,1.15-.1.9.9,0,0,1,.36.34,1.51,1.51,0,0,1,.22.53,4.23,4.23,0,0,1,0,1.86,1.22,1.22,0,0,1-.38.6,1.1,1.1,0,0,1-1.47-.16A2.41,2.41,0,0,1,10.29,72.43Zm.45,0A2.25,2.25,0,0,0,11,73.61a.59.59,0,0,0,1,0,2.38,2.38,0,0,0,.2-1.18,2.34,2.34,0,0,0-.2-1.17.63.63,0,0,0-.52-.29.56.56,0,0,0-.48.26A2.24,2.24,0,0,0,10.74,72.43Z" transform="translate(1.43 -22.16)"/><path class="cls-4" d="M13.29,74.2v-.5h.5v.5Z" transform="translate(1.43 -22.16)"/><path class="cls-4" d="M14.43,72.43a3.17,3.17,0,0,1,.14-1,1.19,1.19,0,0,1,.38-.59,1,1,0,0,1,.65-.21.95.95,0,0,1,.87.45,2,2,0,0,1,.22.53,3.72,3.72,0,0,1,.08.84,3.2,3.2,0,0,1-.13,1,1.31,1.31,0,0,1-.39.6,1,1,0,0,1-.65.21,1,1,0,0,1-.81-.37A2.33,2.33,0,0,1,14.43,72.43Zm.46,0a2.38,2.38,0,0,0,.2,1.18.59.59,0,0,0,1,0,2.25,2.25,0,0,0,.21-1.18,2.2,2.2,0,0,0-.21-1.17A.62.62,0,0,0,15.6,71a.58.58,0,0,0-.49.26A2.26,2.26,0,0,0,14.89,72.43Z" transform="translate(1.43 -22.16)"/><path class="cls-4" d="M7.48,57.11l.46,0a.82.82,0,0,0,.24.51.64.64,0,0,0,.45.17.71.71,0,0,0,.54-.24.93.93,0,0,0,.22-.63.84.84,0,0,0-.21-.6.78.78,0,0,0-.56-.21.79.79,0,0,0-.38.09.82.82,0,0,0-.27.25l-.41,0,.34-1.84H9.68v.42H8.26l-.2,1a1.17,1.17,0,0,1,.68-.22,1.09,1.09,0,0,1,.79.32,1.13,1.13,0,0,1,.32.84,1.31,1.31,0,0,1-.28.84,1.13,1.13,0,0,1-.94.43,1.17,1.17,0,0,1-.8-.27A1.08,1.08,0,0,1,7.48,57.11Z" transform="translate(1.43 -22.16)"/><path class="cls-4" d="M10.29,56.29a3.23,3.23,0,0,1,.13-1,1.33,1.33,0,0,1,.39-.59,1,1,0,0,1,.65-.21,1.12,1.12,0,0,1,.5.11.9.9,0,0,1,.36.34,1.51,1.51,0,0,1,.22.53,3.25,3.25,0,0,1,.08.85,3.14,3.14,0,0,1-.13,1,1.22,1.22,0,0,1-.38.6,1.1,1.1,0,0,1-1.47-.16A2.39,2.39,0,0,1,10.29,56.29Zm.45,0A2.23,2.23,0,0,0,11,57.46a.59.59,0,0,0,1,0,3.55,3.55,0,0,0,0-2.35.63.63,0,0,0-.52-.29.56.56,0,0,0-.48.26A2.28,2.28,0,0,0,10.74,56.29Z" transform="translate(1.43 -22.16)"/><path class="cls-4" d="M13.29,58.05v-.5h.5v.5Z" transform="translate(1.43 -22.16)"/><path class="cls-4" d="M14.43,56.29a3.19,3.19,0,0,1,.14-1,1.24,1.24,0,0,1,.38-.59,1,1,0,0,1,.65-.21,1.19,1.19,0,0,1,.51.11,1.06,1.06,0,0,1,.36.34,2,2,0,0,1,.22.53,3.76,3.76,0,0,1,.08.85,3.14,3.14,0,0,1-.13,1,1.31,1.31,0,0,1-.39.6,1,1,0,0,1-.65.21,1,1,0,0,1-.81-.37A2.32,2.32,0,0,1,14.43,56.29Zm.46,0a2.36,2.36,0,0,0,.2,1.17.59.59,0,0,0,1,0,3.39,3.39,0,0,0,0-2.35.62.62,0,0,0-.51-.29.58.58,0,0,0-.49.26A2.3,2.3,0,0,0,14.89,56.29Z" transform="translate(1.43 -22.16)"/><path class="cls-4" d="M9.76,39.21l-.44,0a.9.9,0,0,0-.16-.38.6.6,0,0,0-.44-.18.58.58,0,0,0-.37.11,1,1,0,0,0-.33.44,2.28,2.28,0,0,0-.12.83,1,1,0,0,1,.39-.36,1.13,1.13,0,0,1,.48-.11,1,1,0,0,1,.74.32,1.15,1.15,0,0,1,.31.84,1.44,1.44,0,0,1-.14.62,1.1,1.1,0,0,1-.4.45A1.11,1.11,0,0,1,8.7,42a1.15,1.15,0,0,1-.89-.4,2.07,2.07,0,0,1-.35-1.34,2.44,2.44,0,0,1,.38-1.51,1.13,1.13,0,0,1,.9-.41,1,1,0,0,1,.7.24A1,1,0,0,1,9.76,39.21ZM8,40.75a1.07,1.07,0,0,0,.09.43.78.78,0,0,0,.27.32.72.72,0,0,0,.37.11.61.61,0,0,0,.47-.23.85.85,0,0,0,.2-.61.81.81,0,0,0-.19-.58.68.68,0,0,0-.5-.22.7.7,0,0,0-.51.22A.76.76,0,0,0,8,40.75Z" transform="translate(1.43 -22.16)"/><path class="cls-4" d="M10.29,40.14a3.2,3.2,0,0,1,.13-1,1.31,1.31,0,0,1,.39-.6A1.11,1.11,0,0,1,12,38.43a1,1,0,0,1,.36.33,1.65,1.65,0,0,1,.22.54,4.23,4.23,0,0,1,0,1.86,1.22,1.22,0,0,1-.38.6,1.1,1.1,0,0,1-1.47-.16A2.41,2.41,0,0,1,10.29,40.14Zm.45,0A2.25,2.25,0,0,0,11,41.32a.62.62,0,0,0,.51.29.61.61,0,0,0,.51-.3,2.31,2.31,0,0,0,.2-1.17A2.31,2.31,0,0,0,12,39a.6.6,0,0,0-.52-.29.56.56,0,0,0-.48.25A2.31,2.31,0,0,0,10.74,40.14Z" transform="translate(1.43 -22.16)"/><path class="cls-4" d="M13.29,41.91v-.5h.5v.5Z" transform="translate(1.43 -22.16)"/><path class="cls-4" d="M14.43,40.14a3.17,3.17,0,0,1,.14-1,1.22,1.22,0,0,1,.38-.6,1,1,0,0,1,.65-.21,1.07,1.07,0,0,1,.51.12,1.13,1.13,0,0,1,.36.33,2.25,2.25,0,0,1,.22.54,3.72,3.72,0,0,1,.08.84,3.2,3.2,0,0,1-.13,1,1.31,1.31,0,0,1-.39.6,1,1,0,0,1-.65.21,1,1,0,0,1-.81-.37A2.33,2.33,0,0,1,14.43,40.14Zm.46,0a2.38,2.38,0,0,0,.2,1.18.62.62,0,0,0,.51.29.61.61,0,0,0,.51-.3,2.18,2.18,0,0,0,.21-1.17A2.18,2.18,0,0,0,16.11,39a.6.6,0,0,0-.51-.29.57.57,0,0,0-.49.25A2.33,2.33,0,0,0,14.89,40.14Z" transform="translate(1.43 -22.16)"/><path class="cls-4" d="M7.51,22.64v-.42H9.83v.34a4.67,4.67,0,0,0-.68,1,5.35,5.35,0,0,0-.52,1.24,4.88,4.88,0,0,0-.17,1H8a4,4,0,0,1,.17-1,4.9,4.9,0,0,1,.45-1.15,5.48,5.48,0,0,1,.63-.94Z" transform="translate(1.43 -22.16)"/><path class="cls-4" d="M10.29,24a3.12,3.12,0,0,1,.13-1,1.31,1.31,0,0,1,.39-.6A1.11,1.11,0,0,1,12,22.28a.82.82,0,0,1,.36.33,1.6,1.6,0,0,1,.22.53,3.25,3.25,0,0,1,.08.85,3.09,3.09,0,0,1-.13,1,1.22,1.22,0,0,1-.38.6,1.1,1.1,0,0,1-1.47-.16A2.37,2.37,0,0,1,10.29,24Zm.45,0A2.18,2.18,0,0,0,11,25.16a.59.59,0,0,0,1,0,2.36,2.36,0,0,0,.2-1.17,2.38,2.38,0,0,0-.2-1.18.63.63,0,0,0-.52-.29.56.56,0,0,0-.48.26A2.28,2.28,0,0,0,10.74,24Z" transform="translate(1.43 -22.16)"/><path class="cls-4" d="M13.29,25.75v-.5h.5v.5Z" transform="translate(1.43 -22.16)"/><path class="cls-4" d="M14.43,24a3.09,3.09,0,0,1,.14-1,1.22,1.22,0,0,1,.38-.6,1,1,0,0,1,.65-.21,1.07,1.07,0,0,1,.51.12.94.94,0,0,1,.36.33,2.17,2.17,0,0,1,.22.53,3.76,3.76,0,0,1,.08.85,3.09,3.09,0,0,1-.13,1,1.31,1.31,0,0,1-.39.6,1,1,0,0,1-.65.21,1,1,0,0,1-.81-.37A2.3,2.3,0,0,1,14.43,24Zm.46,0a2.31,2.31,0,0,0,.2,1.17.59.59,0,0,0,1,0A2.23,2.23,0,0,0,16.32,24a2.25,2.25,0,0,0-.21-1.18.62.62,0,0,0-.51-.29.58.58,0,0,0-.49.26A2.3,2.3,0,0,0,14.89,24Z" transform="translate(1.43 -22.16)"/><polygon class="cls-6" points="19.86 115.32 109.15 115.32 109.15 1.94 19.86 1.94 19.86 115.32 19.86 115.32"/></g><g id="English"><path class="cls-4" d="M3.22,98.16H-.88v1.53h-.55V96h.55v1.54h4.1Z" transform="translate(1.43 -22.16)"/><path class="cls-4" d="M1.54,95.66a1.73,1.73,0,0,1-1.39-.52,1.56,1.56,0,0,1-.37-1.06,1.53,1.53,0,0,1,.45-1.14,1.77,1.77,0,0,1,1.26-.44,2.2,2.2,0,0,1,1,.2,1.36,1.36,0,0,1,.58.56,1.64,1.64,0,0,1,.21.82,1.51,1.51,0,0,1-.45,1.14A1.84,1.84,0,0,1,1.54,95.66Zm0-.59a1.44,1.44,0,0,0,1-.28.93.93,0,0,0,.32-.71.91.91,0,0,0-.32-.71,1.48,1.48,0,0,0-1-.28,1.4,1.4,0,0,0-.95.28.95.95,0,0,0,0,1.42A1.42,1.42,0,0,0,1.54,95.07Z" transform="translate(1.43 -22.16)"/><path class="cls-4" d="M3.22,91.84H-.15v-.52H.36A1.41,1.41,0,0,1-.11,91a.6.6,0,0,1-.11-.37A1.09,1.09,0,0,1,0,90l.53.19a.84.84,0,0,0-.12.42A.51.51,0,0,0,.48,91a.58.58,0,0,0,.31.21,2.41,2.41,0,0,0,.67.1H3.22Z" transform="translate(1.43 -22.16)"/><path class="cls-4" d="M4.52,87.52H2.86a1.06,1.06,0,0,1,.32.37,1.13,1.13,0,0,1,.12.51,1.34,1.34,0,0,1-.48,1,1.89,1.89,0,0,1-1.31.44,2.17,2.17,0,0,1-.91-.18A1.37,1.37,0,0,1,0,89.18a1.44,1.44,0,0,1-.2-.74,1.13,1.13,0,0,1,.52-1H-.15V87H4.52Zm-3,1.76a1.48,1.48,0,0,0,1-.27.84.84,0,0,0,.33-.66.8.8,0,0,0-.31-.63,1.46,1.46,0,0,0-.94-.26,1.52,1.52,0,0,0-1,.28.8.8,0,0,0-.34.65A.78.78,0,0,0,.54,89,1.56,1.56,0,0,0,1.53,89.28Z" transform="translate(1.43 -22.16)"/><path class="cls-4" d="M3.22,83.84H2.73a1.23,1.23,0,0,1,.57,1.07,1.47,1.47,0,0,1-.11.56,1,1,0,0,1-.29.38,1,1,0,0,1-.43.18,3.33,3.33,0,0,1-.53,0H-.15v-.57H1.72a4,4,0,0,0,.61,0,.6.6,0,0,0,.35-.23.75.75,0,0,0,.13-.43,1,1,0,0,0-.13-.48A.74.74,0,0,0,2.32,84a1.63,1.63,0,0,0-.66-.1H-.15v-.57H3.22Z" transform="translate(1.43 -22.16)"/><path class="cls-4" d="M2.14,80.13l.07-.59a1.36,1.36,0,0,1,.8.52,1.54,1.54,0,0,1,.29,1,1.51,1.51,0,0,1-.46,1.17,1.77,1.77,0,0,1-1.27.44,1.86,1.86,0,0,1-1.32-.44,1.46,1.46,0,0,1-.47-1.14A1.41,1.41,0,0,1,.24,80a1.8,1.8,0,0,1,1.29-.43h.15V82a1.27,1.27,0,0,0,.85-.32.92.92,0,0,0,.3-.7.89.89,0,0,0-.17-.54A1,1,0,0,0,2.14,80.13ZM1.21,82V80.12a1.14,1.14,0,0,0-.63.22.88.88,0,0,0-.33.71.89.89,0,0,0,.26.66A1,1,0,0,0,1.21,82Z" transform="translate(1.43 -22.16)"/><path class="cls-4" d="M4.52,77H-1.43V75.74H-1v.69H4v-.69h.48Z" transform="translate(1.43 -22.16)"/><path class="cls-4" d="M3.22,75.14H-1.43v-.63l3.65-2.44H-1.43v-.59H3.22v.63L-.43,74.55H3.22Z" transform="translate(1.43 -22.16)"/><path class="cls-4" d="M.94,70.6a.74.74,0,0,1-.56-.24.76.76,0,0,1-.24-.56.75.75,0,0,1,.24-.57A.74.74,0,0,1,.94,69a.75.75,0,0,1,.57.24.75.75,0,0,1,.24.57.76.76,0,0,1-.24.56A.75.75,0,0,1,.94,70.6Z" transform="translate(1.43 -22.16)"/><path class="cls-4" d="M3.22,68.24H-.15v-.51H.33a1.24,1.24,0,0,1-.4-.42,1.21,1.21,0,0,1-.15-.6,1.16,1.16,0,0,1,.15-.62.81.81,0,0,1,.44-.33,1.21,1.21,0,0,1-.59-1.05,1,1,0,0,1,.27-.77,1.2,1.2,0,0,1,.86-.27H3.22v.57H1.1a1.42,1.42,0,0,0-.49.06.48.48,0,0,0-.25.2.64.64,0,0,0-.09.34.79.79,0,0,0,.24.59,1,1,0,0,0,.76.24h2v.57H1a.92.92,0,0,0-.57.14.53.53,0,0,0-.19.45.81.81,0,0,0,.13.45.69.69,0,0,0,.37.3,2.12,2.12,0,0,0,.7.09H3.22Z" transform="translate(1.43 -22.16)"/><path class="cls-4" d="M4.52,61.87v1.26H4v-.69H-1v.69h-.47V61.87Z" transform="translate(1.43 -22.16)"/><rect class="cls-5" x="24.11" y="53.88" width="48.83" height="16.58"/><path class="cls-4" d="M25.15,80.91l.58,0a1.2,1.2,0,0,0,.19.57,1,1,0,0,0,.47.36,1.8,1.8,0,0,0,.71.14,1.67,1.67,0,0,0,.62-.11.82.82,0,0,0,.4-.28.67.67,0,0,0,.14-.4.6.6,0,0,0-.13-.38,1.06,1.06,0,0,0-.42-.28,8,8,0,0,0-.83-.22A4.82,4.82,0,0,1,26,80a1.22,1.22,0,0,1-.49-.43,1,1,0,0,1-.17-.58,1.19,1.19,0,0,1,.79-1.12,2.11,2.11,0,0,1,.85-.16,2.31,2.31,0,0,1,.91.17,1.25,1.25,0,0,1,.61.49,1.4,1.4,0,0,1,.23.73l-.59,0a1,1,0,0,0-.32-.66,1.62,1.62,0,0,0-1.63,0,.6.6,0,0,0-.25.49.51.51,0,0,0,.18.41,2.39,2.39,0,0,0,.93.33,7.58,7.58,0,0,1,1,.3,1.41,1.41,0,0,1,.6.48,1.22,1.22,0,0,1,.19.66,1.27,1.27,0,0,1-.21.7,1.46,1.46,0,0,1-.61.51,2.19,2.19,0,0,1-.9.18,2.76,2.76,0,0,1-1.06-.18,1.54,1.54,0,0,1-.67-.56A1.48,1.48,0,0,1,25.15,80.91Z" transform="translate(1.43 -22.16)"/><path class="cls-4" d="M29.62,82.4V77.75h.57v1.67a1.26,1.26,0,0,1,1-.46,1.35,1.35,0,0,1,.65.14.86.86,0,0,1,.39.41,1.88,1.88,0,0,1,.12.76V82.4h-.57V80.27a.91.91,0,0,0-.18-.63.7.7,0,0,0-.53-.19.91.91,0,0,0-.48.13.79.79,0,0,0-.32.36,1.69,1.69,0,0,0-.09.62V82.4Z" transform="translate(1.43 -22.16)"/><path class="cls-4" d="M33,80.72a1.73,1.73,0,0,1,.52-1.39,1.69,1.69,0,0,1,2.2.08,1.74,1.74,0,0,1,.44,1.26,2.22,2.22,0,0,1-.2,1,1.39,1.39,0,0,1-.57.58,1.6,1.6,0,0,1-.81.21A1.48,1.48,0,0,1,33.46,82,1.79,1.79,0,0,1,33,80.72Zm.59,0a1.44,1.44,0,0,0,.28,1,.94.94,0,0,0,1.42,0,1.43,1.43,0,0,0,.28-1,1.38,1.38,0,0,0-.28-1,.93.93,0,0,0-.71-.32.88.88,0,0,0-.71.32A1.41,1.41,0,0,0,33.61,80.72Z" transform="translate(1.43 -22.16)"/><path class="cls-4" d="M36.84,82.4V79h.51v.51a1.55,1.55,0,0,1,.37-.47.59.59,0,0,1,.36-.11,1.12,1.12,0,0,1,.59.18l-.19.53a.84.84,0,0,0-.42-.12.51.51,0,0,0-.34.11.58.58,0,0,0-.21.31,2,2,0,0,0-.1.67V82.4Z" transform="translate(1.43 -22.16)"/><path class="cls-4" d="M40.26,81.89l.08.51a2.37,2.37,0,0,1-.43,0,1,1,0,0,1-.48-.1.5.5,0,0,1-.24-.26,2,2,0,0,1-.07-.68V79.48H38.7V79h.42V78.2l.56-.35V79h.58v.45h-.58v2a1,1,0,0,0,0,.31.36.36,0,0,0,.1.11.37.37,0,0,0,.2,0A1.24,1.24,0,0,0,40.26,81.89Z" transform="translate(1.43 -22.16)"/><path class="cls-4" d="M40.6,81v-.58h1.75V81Z" transform="translate(1.43 -22.16)"/><path class="cls-4" d="M45.17,82.4V82a1.05,1.05,0,0,1-.94.5,1.37,1.37,0,0,1-.74-.22,1.53,1.53,0,0,1-.53-.62,2.25,2.25,0,0,1-.18-.92,2.47,2.47,0,0,1,.16-.92,1.46,1.46,0,0,1,.51-.63A1.37,1.37,0,0,1,44.2,79a1.19,1.19,0,0,1,.54.12,1.17,1.17,0,0,1,.39.34V77.75h.57V82.4Zm-1.81-1.68a1.44,1.44,0,0,0,.28,1,.82.82,0,0,0,.64.32.81.81,0,0,0,.64-.31,1.41,1.41,0,0,0,.26-.93,1.59,1.59,0,0,0-.27-1,.83.83,0,0,0-.66-.32.78.78,0,0,0-.63.31A1.53,1.53,0,0,0,43.36,80.72Z" transform="translate(1.43 -22.16)"/><path class="cls-4" d="M48.81,82.4v-.49a1.25,1.25,0,0,1-1.07.57,1.31,1.31,0,0,1-.56-.12.88.88,0,0,1-.38-.28,1,1,0,0,1-.18-.43,3.07,3.07,0,0,1,0-.53V79h.58V80.9a3.77,3.77,0,0,0,0,.6.63.63,0,0,0,.23.36.75.75,0,0,0,.43.13.92.92,0,0,0,.48-.14.68.68,0,0,0,.32-.35,1.91,1.91,0,0,0,.1-.66V79h.57V82.4Z" transform="translate(1.43 -22.16)"/><path class="cls-4" d="M50.21,82.4V79h.51v.51a1.41,1.41,0,0,1,.36-.47.62.62,0,0,1,.37-.11,1.15,1.15,0,0,1,.59.18l-.2.53a.84.84,0,0,0-.42-.12.55.55,0,0,0-.34.11.64.64,0,0,0-.21.31,2.36,2.36,0,0,0-.09.67V82.4Z" transform="translate(1.43 -22.16)"/><path class="cls-4" d="M54.58,82a2.32,2.32,0,0,1-.61.38,1.9,1.9,0,0,1-.63.11,1.25,1.25,0,0,1-.86-.27.91.91,0,0,1-.3-.7.89.89,0,0,1,.12-.45.92.92,0,0,1,.29-.33,1.72,1.72,0,0,1,.41-.19l.51-.08a5.33,5.33,0,0,0,1-.2v-.15a.63.63,0,0,0-.16-.49,1,1,0,0,0-.65-.19,1,1,0,0,0-.6.14.88.88,0,0,0-.28.5L52.28,80a1.48,1.48,0,0,1,.25-.58,1.2,1.2,0,0,1,.51-.34A2.21,2.21,0,0,1,53.8,79a2,2,0,0,1,.7.1.86.86,0,0,1,.4.25,1,1,0,0,1,.18.39,3.08,3.08,0,0,1,0,.53V81a9.89,9.89,0,0,0,0,1,1.49,1.49,0,0,0,.15.4h-.6A1.08,1.08,0,0,1,54.58,82Zm0-1.28a4.56,4.56,0,0,1-.93.22,2,2,0,0,0-.5.11.43.43,0,0,0-.23.19.5.5,0,0,0-.08.27.48.48,0,0,0,.18.38.73.73,0,0,0,.5.15,1.25,1.25,0,0,0,.59-.14.92.92,0,0,0,.38-.4,1.41,1.41,0,0,0,.09-.57Z" transform="translate(1.43 -22.16)"/><path class="cls-4" d="M57.24,81.89l.08.51a2.37,2.37,0,0,1-.43,0,1,1,0,0,1-.48-.1.5.5,0,0,1-.24-.26,2,2,0,0,1-.07-.68V79.48h-.42V79h.42V78.2l.56-.35V79h.58v.45h-.58v2a1,1,0,0,0,0,.31.36.36,0,0,0,.1.11.37.37,0,0,0,.2,0A1.24,1.24,0,0,0,57.24,81.89Z" transform="translate(1.43 -22.16)"/><path class="cls-4" d="M57.8,78.41v-.66h.57v.66Zm0,4V79h.57V82.4Z" transform="translate(1.43 -22.16)"/><path class="cls-4" d="M59,80.72a1.73,1.73,0,0,1,.52-1.39,1.69,1.69,0,0,1,2.2.08,1.74,1.74,0,0,1,.44,1.26,2.22,2.22,0,0,1-.2,1,1.39,1.39,0,0,1-.57.58,1.6,1.6,0,0,1-.81.21A1.48,1.48,0,0,1,59.47,82,1.75,1.75,0,0,1,59,80.72Zm.59,0a1.44,1.44,0,0,0,.28,1,.94.94,0,0,0,1.42,0,1.43,1.43,0,0,0,.28-1,1.38,1.38,0,0,0-.28-1,.93.93,0,0,0-.71-.32.88.88,0,0,0-.71.32A1.41,1.41,0,0,0,59.62,80.72Z" transform="translate(1.43 -22.16)"/><path class="cls-4" d="M62.86,82.4V79h.51v.48A1.21,1.21,0,0,1,64.44,79a1.43,1.43,0,0,1,.56.1,1,1,0,0,1,.39.29,1.13,1.13,0,0,1,.17.42,2.44,2.44,0,0,1,0,.56V82.4H65V80.35a1.67,1.67,0,0,0-.06-.52.55.55,0,0,0-.24-.28.72.72,0,0,0-.4-.1,1,1,0,0,0-.63.23,1.18,1.18,0,0,0-.26.88V82.4Z" transform="translate(1.43 -22.16)"/><path class="cls-4" d="M25.28,90.2V86.83h.51v.51a1.41,1.41,0,0,1,.36-.47.62.62,0,0,1,.37-.11,1.15,1.15,0,0,1,.59.18l-.2.53a.84.84,0,0,0-.42-.12.49.49,0,0,0-.33.11.54.54,0,0,0-.22.31,2.36,2.36,0,0,0-.09.67V90.2Z" transform="translate(1.43 -22.16)"/><path class="cls-4" d="M29.66,90.2v-.49a1.25,1.25,0,0,1-1.07.57,1.31,1.31,0,0,1-.56-.12.88.88,0,0,1-.38-.28,1,1,0,0,1-.18-.43,2.3,2.3,0,0,1,0-.53V86.83H28V88.7a3.41,3.41,0,0,0,0,.6.63.63,0,0,0,.23.36.73.73,0,0,0,.43.13.92.92,0,0,0,.48-.14.68.68,0,0,0,.32-.35,1.91,1.91,0,0,0,.1-.66V86.83h.57V90.2Z" transform="translate(1.43 -22.16)"/><path class="cls-4" d="M31.06,90.2V86.83h.52v.48a1.19,1.19,0,0,1,1.07-.55,1.47,1.47,0,0,1,.56.1.89.89,0,0,1,.38.29,1,1,0,0,1,.18.42,3.51,3.51,0,0,1,0,.56V90.2h-.57v-2a1.38,1.38,0,0,0-.07-.52.53.53,0,0,0-.23-.28.77.77,0,0,0-.4-.1.92.92,0,0,0-.63.23,1.14,1.14,0,0,0-.27.88V90.2Z" transform="translate(1.43 -22.16)"/><path class="cls-4" d="M34.68,90.2V86.83h.51v.48a1.21,1.21,0,0,1,1.07-.55,1.43,1.43,0,0,1,.56.1,1,1,0,0,1,.39.29,1.13,1.13,0,0,1,.17.42,3.21,3.21,0,0,1,0,.56V90.2h-.58v-2a1.67,1.67,0,0,0-.06-.52.6.6,0,0,0-.24-.28.74.74,0,0,0-.4-.1,1,1,0,0,0-.63.23,1.18,1.18,0,0,0-.26.88V90.2Z" transform="translate(1.43 -22.16)"/><path class="cls-4" d="M38.29,86.21v-.66h.58v.66Zm0,4V86.83h.58V90.2Z" transform="translate(1.43 -22.16)"/><path class="cls-4" d="M39.74,90.2V86.83h.51v.48a1.2,1.2,0,0,1,1.07-.55,1.43,1.43,0,0,1,.56.1,1,1,0,0,1,.39.29,1.13,1.13,0,0,1,.17.42,3.51,3.51,0,0,1,0,.56V90.2H41.9v-2a1.67,1.67,0,0,0-.06-.52.6.6,0,0,0-.24-.28.74.74,0,0,0-.4-.1,1,1,0,0,0-.63.23,1.18,1.18,0,0,0-.26.88V90.2Z" transform="translate(1.43 -22.16)"/><path class="cls-4" d="M43.25,90.48l.55.08a.53.53,0,0,0,.19.38,1,1,0,0,0,.59.16,1.08,1.08,0,0,0,.61-.16.82.82,0,0,0,.29-.45,3.76,3.76,0,0,0,0-.73,1.18,1.18,0,0,1-.93.44,1.3,1.3,0,0,1-1.08-.5,1.93,1.93,0,0,1-.38-1.2,2.18,2.18,0,0,1,.18-.89,1.32,1.32,0,0,1,.5-.63,1.35,1.35,0,0,1,.78-.22,1.22,1.22,0,0,1,1,.48v-.41h.52v2.91a2.72,2.72,0,0,1-.16,1.12,1.11,1.11,0,0,1-.51.52,1.7,1.7,0,0,1-.85.19,1.65,1.65,0,0,1-1-.27A.94.94,0,0,1,43.25,90.48Zm.47-2a1.47,1.47,0,0,0,.26,1,.83.83,0,0,0,.66.31.85.85,0,0,0,.66-.3,1.42,1.42,0,0,0,.27-1,1.35,1.35,0,0,0-.28-.94.83.83,0,0,0-.66-.31.79.79,0,0,0-.64.31A1.35,1.35,0,0,0,43.72,88.46Z" transform="translate(1.43 -22.16)"/><path class="cls-4" d="M48.77,90.2V86.83h.51v.51a1.41,1.41,0,0,1,.36-.47.62.62,0,0,1,.37-.11,1.15,1.15,0,0,1,.59.18l-.2.53a.84.84,0,0,0-.42-.12.53.53,0,0,0-.34.11.58.58,0,0,0-.21.31,2.36,2.36,0,0,0-.09.67V90.2Z" transform="translate(1.43 -22.16)"/><path class="cls-4" d="M53.14,89.79a2.36,2.36,0,0,1-.62.38,1.81,1.81,0,0,1-.63.11A1.22,1.22,0,0,1,51,90a.91.91,0,0,1-.3-.7.89.89,0,0,1,.12-.45.92.92,0,0,1,.29-.33,1.72,1.72,0,0,1,.41-.19l.51-.08a5.33,5.33,0,0,0,1-.2v-.15a.63.63,0,0,0-.16-.49,1,1,0,0,0-.65-.19,1,1,0,0,0-.6.14.88.88,0,0,0-.28.5l-.56-.08a1.48,1.48,0,0,1,.25-.58,1.2,1.2,0,0,1,.51-.34,2.21,2.21,0,0,1,.76-.11,2,2,0,0,1,.7.1.86.86,0,0,1,.4.25,1,1,0,0,1,.18.39,3.08,3.08,0,0,1,0,.53v.76a9.89,9.89,0,0,0,0,1,1.49,1.49,0,0,0,.15.4h-.6A1.08,1.08,0,0,1,53.14,89.79Zm0-1.28a4.56,4.56,0,0,1-.93.22,2,2,0,0,0-.5.11.43.43,0,0,0-.23.19.5.5,0,0,0,.09.65.78.78,0,0,0,.51.15,1.25,1.25,0,0,0,.59-.14.92.92,0,0,0,.38-.4,1.41,1.41,0,0,0,.09-.57Z" transform="translate(1.43 -22.16)"/><path class="cls-4" d="M54.55,90.2V86.83h.51v.48a1.22,1.22,0,0,1,1.08-.55,1.47,1.47,0,0,1,.56.1.89.89,0,0,1,.38.29,1.33,1.33,0,0,1,.18.42,3.51,3.51,0,0,1,0,.56V90.2h-.57v-2a1.38,1.38,0,0,0-.07-.52.53.53,0,0,0-.23-.28.77.77,0,0,0-.4-.1.92.92,0,0,0-.63.23,1.14,1.14,0,0,0-.27.88V90.2Z" transform="translate(1.43 -22.16)"/><path class="cls-4" d="M58.06,90.48l.56.08a.5.5,0,0,0,.19.38,1,1,0,0,0,.58.16,1,1,0,0,0,.61-.16.84.84,0,0,0,.3-.45,3.76,3.76,0,0,0,0-.73,1.19,1.19,0,0,1-.94.44,1.27,1.27,0,0,1-1.07-.5A1.87,1.87,0,0,1,58,88.5a2.35,2.35,0,0,1,.17-.89,1.4,1.4,0,0,1,.51-.63,1.35,1.35,0,0,1,.78-.22,1.2,1.2,0,0,1,1,.48v-.41h.53v2.91a2.9,2.9,0,0,1-.16,1.12,1.22,1.22,0,0,1-.51.52,1.74,1.74,0,0,1-.86.19,1.61,1.61,0,0,1-1-.27A.92.92,0,0,1,58.06,90.48Zm.47-2a1.41,1.41,0,0,0,.27,1,.81.81,0,0,0,.66.31.85.85,0,0,0,.66-.3,1.82,1.82,0,0,0,0-1.89.83.83,0,0,0-.66-.31.81.81,0,0,0-.65.31A1.35,1.35,0,0,0,58.53,88.46Z" transform="translate(1.43 -22.16)"/><path class="cls-4" d="M64.09,89.12l.59.07a1.44,1.44,0,0,1-.52.8A1.74,1.74,0,0,1,62,89.82a1.76,1.76,0,0,1-.43-1.27A1.9,1.9,0,0,1,62,87.22a1.48,1.48,0,0,1,1.13-.46,1.46,1.46,0,0,1,1.11.45,1.87,1.87,0,0,1,.43,1.3,1,1,0,0,1,0,.15H62.18a1.27,1.27,0,0,0,.32.85.91.91,0,0,0,.7.3.89.89,0,0,0,.54-.17A1.16,1.16,0,0,0,64.09,89.12Zm-1.88-.93H64.1a1.14,1.14,0,0,0-.22-.63.86.86,0,0,0-.71-.34.9.9,0,0,0-.66.27A1,1,0,0,0,62.21,88.19Z" transform="translate(1.43 -22.16)"/><rect class="cls-5" x="24.96" y="96.29" width="41.46" height="16.58"/><path class="cls-4" d="M28.77,123.18l.62.16a2,2,0,0,1-.7,1.15,1.88,1.88,0,0,1-1.23.4,2.14,2.14,0,0,1-1.22-.31,1.92,1.92,0,0,1-.72-.88,3.27,3.27,0,0,1-.24-1.25,2.83,2.83,0,0,1,.27-1.27,2,2,0,0,1,.79-.82,2.31,2.31,0,0,1,1.13-.28,1.9,1.9,0,0,1,1.18.36,1.84,1.84,0,0,1,.66,1l-.61.15a1.34,1.34,0,0,0-.47-.74,1.2,1.2,0,0,0-.77-.23,1.52,1.52,0,0,0-.9.25,1.3,1.3,0,0,0-.5.69,2.74,2.74,0,0,0-.15.9,2.92,2.92,0,0,0,.17,1,1.35,1.35,0,0,0,.54.67,1.58,1.58,0,0,0,.79.21,1.37,1.37,0,0,0,.88-.29A1.51,1.51,0,0,0,28.77,123.18Z" transform="translate(1.43 -22.16)"/><path class="cls-4" d="M29.86,123.13a1.76,1.76,0,0,1,.52-1.39,1.58,1.58,0,0,1,1.06-.37,1.51,1.51,0,0,1,1.14.45,1.74,1.74,0,0,1,.44,1.26,2.24,2.24,0,0,1-.19,1,1.39,1.39,0,0,1-.57.58,1.64,1.64,0,0,1-.82.21,1.48,1.48,0,0,1-1.14-.46A1.79,1.79,0,0,1,29.86,123.13Zm.59,0a1.44,1.44,0,0,0,.28,1,.93.93,0,0,0,.71.32.89.89,0,0,0,.71-.33,1.43,1.43,0,0,0,.28-1,1.4,1.4,0,0,0-.28-1,.95.95,0,0,0-1.42,0A1.42,1.42,0,0,0,30.45,123.13Z" transform="translate(1.43 -22.16)"/><path class="cls-4" d="M33.69,124.81v-3.37h.51v.48a1.22,1.22,0,0,1,1.08-.55,1.47,1.47,0,0,1,.56.1.89.89,0,0,1,.38.29,1.33,1.33,0,0,1,.18.42,3.51,3.51,0,0,1,0,.56v2.07h-.57v-2a1.41,1.41,0,0,0-.07-.52.53.53,0,0,0-.23-.28.77.77,0,0,0-.4-.1.92.92,0,0,0-.63.23,1.14,1.14,0,0,0-.27.88v1.84Z" transform="translate(1.43 -22.16)"/><path class="cls-4" d="M38.55,124.3l.09.51a2.47,2.47,0,0,1-.44,0,1.07,1.07,0,0,1-.48-.1.6.6,0,0,1-.24-.26,1.94,1.94,0,0,1-.07-.67v-1.94H37v-.45h.42v-.83l.57-.35v1.18h.57v.45H38v2a1,1,0,0,0,0,.31.21.21,0,0,0,.1.11.34.34,0,0,0,.19,0A1.19,1.19,0,0,0,38.55,124.3Z" transform="translate(1.43 -22.16)"/><path class="cls-4" d="M39.11,120.82v-.66h.58v.66Zm0,4v-3.37h.58v3.37Z" transform="translate(1.43 -22.16)"/><path class="cls-4" d="M40.56,124.81v-3.37h.51v.48a1.2,1.2,0,0,1,1.07-.55,1.43,1.43,0,0,1,.56.1,1,1,0,0,1,.39.29,1.13,1.13,0,0,1,.17.42,3.51,3.51,0,0,1,0,.56v2.07h-.57v-2a1.72,1.72,0,0,0-.06-.52.6.6,0,0,0-.24-.28.74.74,0,0,0-.4-.1,1,1,0,0,0-.63.23,1.18,1.18,0,0,0-.26.88v1.84Z" transform="translate(1.43 -22.16)"/><path class="cls-4" d="M46.38,124.81v-.49a1.23,1.23,0,0,1-1.07.57,1.34,1.34,0,0,1-.56-.12.88.88,0,0,1-.38-.28,1.3,1.3,0,0,1-.18-.43,3.33,3.33,0,0,1,0-.53v-2.09h.57v1.87a3.77,3.77,0,0,0,0,.6.68.68,0,0,0,.23.36.75.75,0,0,0,.43.13.93.93,0,0,0,.49-.14.73.73,0,0,0,.32-.35,1.94,1.94,0,0,0,.09-.66v-1.81h.57v3.37Z" transform="translate(1.43 -22.16)"/><path class="cls-4" d="M47.57,123.13a1.76,1.76,0,0,1,.52-1.39,1.58,1.58,0,0,1,1.06-.37,1.51,1.51,0,0,1,1.14.45,1.74,1.74,0,0,1,.44,1.26,2.24,2.24,0,0,1-.19,1,1.39,1.39,0,0,1-.57.58,1.64,1.64,0,0,1-.82.21,1.48,1.48,0,0,1-1.14-.46A1.79,1.79,0,0,1,47.57,123.13Zm.59,0a1.44,1.44,0,0,0,.28,1,.93.93,0,0,0,.71.32.89.89,0,0,0,.71-.33,1.43,1.43,0,0,0,.28-1,1.4,1.4,0,0,0-.28-1,.95.95,0,0,0-1.42,0A1.42,1.42,0,0,0,48.16,123.13Z" transform="translate(1.43 -22.16)"/><path class="cls-4" d="M53.61,124.81v-.49a1.23,1.23,0,0,1-1.07.57,1.34,1.34,0,0,1-.56-.12.88.88,0,0,1-.38-.28,1.3,1.3,0,0,1-.18-.43,3.33,3.33,0,0,1,0-.53v-2.09H52v1.87a3.77,3.77,0,0,0,0,.6.68.68,0,0,0,.23.36.75.75,0,0,0,.43.13.93.93,0,0,0,.49-.14.73.73,0,0,0,.32-.35,1.94,1.94,0,0,0,.09-.66v-1.81h.57v3.37Z" transform="translate(1.43 -22.16)"/><path class="cls-4" d="M54.79,123.81l.56-.09a.78.78,0,0,0,.27.52.9.9,0,0,0,.6.18.94.94,0,0,0,.59-.16.47.47,0,0,0,.19-.38.34.34,0,0,0-.17-.3,2.49,2.49,0,0,0-.58-.2,4.57,4.57,0,0,1-.87-.27.78.78,0,0,1-.37-.32.81.81,0,0,1-.13-.45.88.88,0,0,1,.11-.42.79.79,0,0,1,.28-.32,1.52,1.52,0,0,1,.36-.17,1.93,1.93,0,0,1,.49-.06,1.87,1.87,0,0,1,.7.11.94.94,0,0,1,.44.31,1.18,1.18,0,0,1,.2.52l-.56.08a.6.6,0,0,0-.22-.41.79.79,0,0,0-.52-.15.92.92,0,0,0-.56.14.36.36,0,0,0-.17.3.37.37,0,0,0,.07.2.53.53,0,0,0,.22.15l.51.15a7.54,7.54,0,0,1,.84.26.88.88,0,0,1,.38.3.86.86,0,0,1,.14.49,1,1,0,0,1-.17.54,1,1,0,0,1-.48.39,1.8,1.8,0,0,1-.71.14,1.59,1.59,0,0,1-1-.27A1.29,1.29,0,0,1,54.79,123.81Z" transform="translate(1.43 -22.16)"/><path class="cls-4" d="M25.38,132.61v-3.37h.51v.51a1.41,1.41,0,0,1,.36-.47.62.62,0,0,1,.37-.11,1.15,1.15,0,0,1,.59.18l-.2.53a.84.84,0,0,0-.42-.12.53.53,0,0,0-.34.11.58.58,0,0,0-.21.31,2.36,2.36,0,0,0-.09.67v1.76Z" transform="translate(1.43 -22.16)"/><path class="cls-4" d="M29.76,132.61v-.49a1.25,1.25,0,0,1-1.07.57,1.31,1.31,0,0,1-.56-.12,1,1,0,0,1-.39-.28,1.11,1.11,0,0,1-.17-.43,2.3,2.3,0,0,1,0-.53v-2.09h.57v1.87a3.41,3.41,0,0,0,0,.6.63.63,0,0,0,.23.36.73.73,0,0,0,.43.13.92.92,0,0,0,.48-.14.68.68,0,0,0,.32-.35,1.94,1.94,0,0,0,.09-.66v-1.81h.58v3.37Z" transform="translate(1.43 -22.16)"/><path class="cls-4" d="M31.16,132.61v-3.37h.52v.48a1.19,1.19,0,0,1,1.07-.55,1.47,1.47,0,0,1,.56.1.89.89,0,0,1,.38.29,1.14,1.14,0,0,1,.18.42,3.51,3.51,0,0,1,0,.56v2.07h-.57v-2.05a1.41,1.41,0,0,0-.07-.52.53.53,0,0,0-.23-.28.77.77,0,0,0-.4-.1.92.92,0,0,0-.63.23,1.14,1.14,0,0,0-.27.88v1.84Z" transform="translate(1.43 -22.16)"/><path class="cls-4" d="M34.78,132.61v-3.37h.51v.48a1.21,1.21,0,0,1,1.07-.55,1.43,1.43,0,0,1,.56.1,1,1,0,0,1,.39.29,1.13,1.13,0,0,1,.17.42,3.21,3.21,0,0,1,0,.56v2.07h-.58v-2.05a1.72,1.72,0,0,0-.06-.52.6.6,0,0,0-.24-.28.74.74,0,0,0-.4-.1,1,1,0,0,0-.63.23,1.18,1.18,0,0,0-.26.88v1.84Z" transform="translate(1.43 -22.16)"/><path class="cls-4" d="M38.39,128.62V128H39v.66Zm0,4v-3.37H39v3.37Z" transform="translate(1.43 -22.16)"/><path class="cls-4" d="M39.84,132.61v-3.37h.51v.48a1.2,1.2,0,0,1,1.07-.55,1.43,1.43,0,0,1,.56.1.89.89,0,0,1,.38.29,1,1,0,0,1,.18.42,3.51,3.51,0,0,1,0,.56v2.07H42v-2.05a1.72,1.72,0,0,0-.06-.52.6.6,0,0,0-.24-.28.74.74,0,0,0-.4-.1,1,1,0,0,0-.63.23,1.14,1.14,0,0,0-.26.88v1.84Z" transform="translate(1.43 -22.16)"/><path class="cls-4" d="M43.35,132.89l.55.08a.53.53,0,0,0,.19.38,1,1,0,0,0,.59.16,1.08,1.08,0,0,0,.61-.16.82.82,0,0,0,.29-.45,3.76,3.76,0,0,0,0-.73,1.18,1.18,0,0,1-.93.44,1.26,1.26,0,0,1-1.08-.5,1.93,1.93,0,0,1-.38-1.2,2.18,2.18,0,0,1,.18-.89,1.37,1.37,0,0,1,.5-.63,1.35,1.35,0,0,1,.78-.22,1.22,1.22,0,0,1,1,.48v-.41h.52v2.91a2.72,2.72,0,0,1-.16,1.12,1.16,1.16,0,0,1-.51.52,1.7,1.7,0,0,1-.85.19,1.65,1.65,0,0,1-1-.27A.92.92,0,0,1,43.35,132.89Zm.47-2a1.47,1.47,0,0,0,.26,1,.83.83,0,0,0,.66.31.85.85,0,0,0,.66-.3,1.42,1.42,0,0,0,.27-1,1.35,1.35,0,0,0-.28-.94.83.83,0,0,0-.66-.31.79.79,0,0,0-.64.31A1.35,1.35,0,0,0,43.82,130.87Z" transform="translate(1.43 -22.16)"/><path class="cls-4" d="M48.86,132.61v-3.37h.52v.51a1.41,1.41,0,0,1,.36-.47.62.62,0,0,1,.37-.11,1.15,1.15,0,0,1,.59.18l-.2.53a.84.84,0,0,0-.42-.12.53.53,0,0,0-.34.11.58.58,0,0,0-.21.31,2.36,2.36,0,0,0-.09.67v1.76Z" transform="translate(1.43 -22.16)"/><path class="cls-4" d="M53.24,132.2a2.36,2.36,0,0,1-.62.38,1.81,1.81,0,0,1-.63.11,1.22,1.22,0,0,1-.85-.27.94.94,0,0,1-.18-1.15.85.85,0,0,1,.29-.33,1.38,1.38,0,0,1,.41-.18,4.17,4.17,0,0,1,.51-.09,5.33,5.33,0,0,0,1-.2v-.15a.63.63,0,0,0-.16-.49,1,1,0,0,0-.65-.19,1.06,1.06,0,0,0-.6.14.88.88,0,0,0-.28.5l-.56-.08a1.48,1.48,0,0,1,.25-.58,1.2,1.2,0,0,1,.51-.34,2.21,2.21,0,0,1,.76-.11,2,2,0,0,1,.7.1,1,1,0,0,1,.4.25,1,1,0,0,1,.18.39,3.08,3.08,0,0,1,0,.53v.76a9.89,9.89,0,0,0,0,1,1.22,1.22,0,0,0,.15.4h-.6A1,1,0,0,1,53.24,132.2Zm-.05-1.28a4.52,4.52,0,0,1-.94.22,2,2,0,0,0-.49.11.48.48,0,0,0-.23.19.5.5,0,0,0,.09.65.78.78,0,0,0,.51.15,1.25,1.25,0,0,0,.59-.14,1,1,0,0,0,.38-.4,1.41,1.41,0,0,0,.09-.57Z" transform="translate(1.43 -22.16)"/><path class="cls-4" d="M54.65,132.61v-3.37h.51v.48a1.22,1.22,0,0,1,1.08-.55,1.47,1.47,0,0,1,.56.1.89.89,0,0,1,.38.29,1.33,1.33,0,0,1,.18.42,3.51,3.51,0,0,1,0,.56v2.07h-.57v-2.05a1.41,1.41,0,0,0-.07-.52.53.53,0,0,0-.23-.28.77.77,0,0,0-.4-.1.92.92,0,0,0-.63.23,1.14,1.14,0,0,0-.27.88v1.84Z" transform="translate(1.43 -22.16)"/><path class="cls-4" d="M58.16,132.89l.56.08a.5.5,0,0,0,.19.38,1,1,0,0,0,.58.16,1,1,0,0,0,.61-.16.84.84,0,0,0,.3-.45,3.76,3.76,0,0,0,0-.73,1.19,1.19,0,0,1-.94.44,1.24,1.24,0,0,1-1.07-.5,1.87,1.87,0,0,1-.38-1.2,2.35,2.35,0,0,1,.17-.89,1.46,1.46,0,0,1,.51-.63,1.35,1.35,0,0,1,.78-.22,1.22,1.22,0,0,1,1,.48v-.41H61v2.91a2.9,2.9,0,0,1-.16,1.12,1.22,1.22,0,0,1-.51.52,1.74,1.74,0,0,1-.86.19,1.61,1.61,0,0,1-1-.27A.91.91,0,0,1,58.16,132.89Zm.47-2a1.41,1.41,0,0,0,.27,1,.81.81,0,0,0,.66.31.85.85,0,0,0,.66-.3,1.82,1.82,0,0,0,0-1.89.83.83,0,0,0-.66-.31.81.81,0,0,0-.65.31A1.35,1.35,0,0,0,58.63,130.87Z" transform="translate(1.43 -22.16)"/><path class="cls-4" d="M64.19,131.53l.59.07a1.44,1.44,0,0,1-.52.8,1.74,1.74,0,0,1-2.14-.17,1.76,1.76,0,0,1-.43-1.27,1.9,1.9,0,0,1,.44-1.33,1.48,1.48,0,0,1,1.13-.46,1.43,1.43,0,0,1,1.11.46,1.82,1.82,0,0,1,.43,1.29,1,1,0,0,1,0,.15H62.28a1.32,1.32,0,0,0,.31.85.94.94,0,0,0,.71.3.89.89,0,0,0,.54-.17A1.16,1.16,0,0,0,64.19,131.53Zm-1.88-.93h1.88A1.13,1.13,0,0,0,64,130a.91.91,0,0,0-.71-.33.9.9,0,0,0-.66.27A1,1,0,0,0,62.31,130.6Z" transform="translate(1.43 -22.16)"/><path class="cls-4" d="M44.19,150.45l.58,0A1.32,1.32,0,0,0,45,151a1,1,0,0,0,.47.36,1.81,1.81,0,0,0,.72.14,1.71,1.71,0,0,0,.62-.11.87.87,0,0,0,.4-.28.68.68,0,0,0,.13-.4.55.55,0,0,0-.13-.38.93.93,0,0,0-.42-.28c-.12-.05-.4-.12-.82-.23a4.09,4.09,0,0,1-.9-.29,1.26,1.26,0,0,1-.5-.43,1.06,1.06,0,0,1-.16-.58,1.16,1.16,0,0,1,.2-.66,1.22,1.22,0,0,1,.58-.46,2.16,2.16,0,0,1,.86-.16,2.21,2.21,0,0,1,.91.17,1.35,1.35,0,0,1,.61.49,1.39,1.39,0,0,1,.22.73l-.59,0a.91.91,0,0,0-.32-.66,1.24,1.24,0,0,0-.81-.23,1.27,1.27,0,0,0-.81.21.61.61,0,0,0-.26.49.52.52,0,0,0,.18.41,2.39,2.39,0,0,0,.93.33,7.58,7.58,0,0,1,1,.3,1.47,1.47,0,0,1,.6.47,1.19,1.19,0,0,1,.19.67,1.3,1.3,0,0,1-.21.7,1.34,1.34,0,0,1-.61.51,2.16,2.16,0,0,1-.9.18,2.67,2.67,0,0,1-1.05-.18,1.55,1.55,0,0,1-.93-1.39Z" transform="translate(1.43 -22.16)"/><path class="cls-4" d="M48.66,153.23v-4.66h.52V149a1.4,1.4,0,0,1,.42-.39,1.19,1.19,0,0,1,.56-.13,1.31,1.31,0,0,1,.76.23,1.29,1.29,0,0,1,.5.62,2.35,2.35,0,0,1,.17.89,2.15,2.15,0,0,1-.19.93,1.36,1.36,0,0,1-.54.64,1.42,1.42,0,0,1-.74.22,1.07,1.07,0,0,1-.51-.12,1.17,1.17,0,0,1-.38-.31v1.64Zm.52-3a1.52,1.52,0,0,0,.26,1,.82.82,0,0,0,1.29,0,1.55,1.55,0,0,0,.27-1,1.5,1.5,0,0,0-.26-1,.82.82,0,0,0-.63-.32.85.85,0,0,0-.65.34A1.52,1.52,0,0,0,49.18,150.27Z" transform="translate(1.43 -22.16)"/><path class="cls-4" d="M54.58,150.86l.59.07a1.43,1.43,0,0,1-.51.8,1.57,1.57,0,0,1-1,.29,1.52,1.52,0,0,1-1.17-.46,1.77,1.77,0,0,1-.43-1.28,1.89,1.89,0,0,1,.43-1.32,1.52,1.52,0,0,1,1.14-.47,1.48,1.48,0,0,1,1.11.46,1.86,1.86,0,0,1,.42,1.3v.15H52.68a1.26,1.26,0,0,0,.31.85.93.93,0,0,0,.71.3.86.86,0,0,0,.53-.17A1,1,0,0,0,54.58,150.86Zm-1.87-.93h1.88a1.21,1.21,0,0,0-.21-.64.93.93,0,0,0-1.37-.06A1,1,0,0,0,52.71,149.93Z" transform="translate(1.43 -22.16)"/><path class="cls-4" d="M58.2,150.86l.59.07a1.44,1.44,0,0,1-.52.8,1.54,1.54,0,0,1-1,.29,1.49,1.49,0,0,1-1.17-.46,1.77,1.77,0,0,1-.44-1.28,1.9,1.9,0,0,1,.44-1.32,1.49,1.49,0,0,1,1.14-.47,1.46,1.46,0,0,1,1.1.46,1.82,1.82,0,0,1,.43,1.3v.15H56.29a1.27,1.27,0,0,0,.32.85.91.91,0,0,0,.7.3.89.89,0,0,0,.54-.17A1.09,1.09,0,0,0,58.2,150.86Zm-1.88-.93h1.89a1.21,1.21,0,0,0-.22-.64.88.88,0,0,0-.71-.33.9.9,0,0,0-.66.27A1,1,0,0,0,56.32,149.93Z" transform="translate(1.43 -22.16)"/><path class="cls-4" d="M61.69,151.94v-.42a1,1,0,0,1-.94.5,1.32,1.32,0,0,1-.74-.23,1.39,1.39,0,0,1-.52-.62,2,2,0,0,1-.19-.91,2.47,2.47,0,0,1,.17-.92,1.37,1.37,0,0,1,.5-.63,1.43,1.43,0,0,1,.76-.22,1.2,1.2,0,0,1,.54.13,1.17,1.17,0,0,1,.39.34v-1.67h.56v4.65Zm-1.8-1.68a1.5,1.5,0,0,0,.27,1,.84.84,0,0,0,.65.32.79.79,0,0,0,.63-.31,1.36,1.36,0,0,0,.26-.93,1.64,1.64,0,0,0-.26-1,.84.84,0,0,0-.66-.32.79.79,0,0,0-.64.31A1.54,1.54,0,0,0,59.89,150.26Z" transform="translate(1.43 -22.16)"/><path class="cls-4" d="M64.94,153.23v-5.94H66.2v.47h-.69v5h.69v.47Z" transform="translate(1.43 -22.16)"/><path class="cls-4" d="M66.73,151.94v-3.37h.51v.51a1.21,1.21,0,0,1,.37-.47.6.6,0,0,1,.36-.12,1.17,1.17,0,0,1,.59.19l-.2.53a.86.86,0,0,0-.42-.13.52.52,0,0,0-.33.12.65.65,0,0,0-.22.31,2.36,2.36,0,0,0-.09.67v1.76Z" transform="translate(1.43 -22.16)"/><path class="cls-4" d="M68.47,152l1.35-4.81h.46L68.93,152Z" transform="translate(1.43 -22.16)"/><path class="cls-4" d="M70.7,151.94v-3.37h.52V149a1.24,1.24,0,0,1,.42-.4,1.16,1.16,0,0,1,.6-.15,1.13,1.13,0,0,1,.61.16.86.86,0,0,1,.34.43,1.22,1.22,0,0,1,1-.59,1,1,0,0,1,.77.28,1.2,1.2,0,0,1,.27.86v2.31H74.7v-2.12a1.55,1.55,0,0,0,0-.5.52.52,0,0,0-.2-.24.68.68,0,0,0-.35-.09.81.81,0,0,0-.59.24,1.05,1.05,0,0,0-.23.75v2h-.57v-2.19a1,1,0,0,0-.14-.57.54.54,0,0,0-.46-.19.81.81,0,0,0-.45.13.69.69,0,0,0-.29.37,2.12,2.12,0,0,0-.09.7v1.75Z" transform="translate(1.43 -22.16)"/><path class="cls-4" d="M76.12,148v-.66h.57V148Zm0,4v-3.37h.57v3.37Z" transform="translate(1.43 -22.16)"/><path class="cls-4" d="M77.56,151.94v-3.37h.52v.48a1.2,1.2,0,0,1,1.07-.56,1.47,1.47,0,0,1,.56.11.89.89,0,0,1,.38.29,1,1,0,0,1,.18.42,3.51,3.51,0,0,1,0,.56v2.07h-.57v-2.05a1.38,1.38,0,0,0-.07-.52.53.53,0,0,0-.23-.28.77.77,0,0,0-.4-.1,1,1,0,0,0-.63.23,1.14,1.14,0,0,0-.27.88v1.84Z" transform="translate(1.43 -22.16)"/><path class="cls-4" d="M82.13,153.23H80.87v-.47h.69v-5h-.69v-.47h1.26Z" transform="translate(1.43 -22.16)"/></g></svg>