<svg xmlns="http://www.w3.org/2000/svg" width="32" height="32" viewBox="0 0 32 32"><path d="M24,31.75a1.468,1.468,0,0,1-.55-.1,1.524,1.524,0,0,1-.5-.35L15.4,23.75a1.383,1.383,0,0,1-.425-1.075A1.56,1.56,0,0,1,15.45,21.6a1.509,1.509,0,0,1,2.15,0l4.9,4.95V9.5a1.5,1.5,0,1,1,3,0V26.55l4.95-4.95a1.52,1.52,0,1,1,2.15,2.15L25.05,31.3a1.524,1.524,0,0,1-.5.35,1.468,1.468,0,0,1-.55.1ZM11,40a2.878,2.878,0,0,1-2.1-.9A2.878,2.878,0,0,1,8,37V31.35a1.5,1.5,0,1,1,3,0V37H37V31.35a1.5,1.5,0,1,1,3,0V37a3.076,3.076,0,0,1-3,3Z" transform="translate(-8 -8)" fill="#424242"/></svg>