<svg xmlns="http://www.w3.org/2000/svg" width="96" height="24" viewBox="0 0 96 24"><rect width="96" height="24" fill="none"/><path d="M22.914,20.086l-6.3-6.3a9.022,9.022,0,1,0-2.828,2.828l6.3,6.3a2,2,0,0,0,2.828-2.828Z" fill="#999"/><path d="M14,8H10V4H8V8H4v2H8v4h2V10h4Z" fill="#fff"/><path d="M30.087,18.379,40.232,5.7h-9.4V3.734H43.115V5.656L32.909,18.268H43.115v1.964H30.087Z" fill="#333"/><path d="M58.95,6.094a9.1,9.1,0,0,1,1.639,5.6,9.806,9.806,0,0,1-1.875,6.143,7.434,7.434,0,0,1-6.278,2.875A7.5,7.5,0,0,1,46.45,18.2a9.5,9.5,0,0,1-1.943-6.131A9.766,9.766,0,0,1,46.169,6.34a7.206,7.206,0,0,1,6.312-3.055Q56.851,3.285,58.95,6.094ZM56.979,16.609A9.03,9.03,0,0,0,58.3,11.736a6.952,6.952,0,0,0-1.521-4.685,5.189,5.189,0,0,0-4.161-1.778,5.42,5.42,0,0,0-4.178,1.76,7.42,7.42,0,0,0-1.617,5.188,7.583,7.583,0,0,0,1.387,4.625,5.217,5.217,0,0,0,4.5,1.883A4.653,4.653,0,0,0,56.979,16.609Z" fill="#333"/><path d="M76.84,6.094a9.1,9.1,0,0,1,1.639,5.6A9.806,9.806,0,0,1,76.6,17.84a7.434,7.434,0,0,1-6.278,2.875A7.5,7.5,0,0,1,64.34,18.2,9.5,9.5,0,0,1,62.4,12.068,9.759,9.759,0,0,1,64.06,6.34a7.2,7.2,0,0,1,6.311-3.055Q74.74,3.285,76.84,6.094ZM74.869,16.609a9.021,9.021,0,0,0,1.319-4.873,6.952,6.952,0,0,0-1.521-4.685,5.189,5.189,0,0,0-4.161-1.778,5.42,5.42,0,0,0-4.178,1.76,7.42,7.42,0,0,0-1.617,5.188A7.583,7.583,0,0,0,66.1,16.846a5.217,5.217,0,0,0,4.5,1.883A4.653,4.653,0,0,0,74.869,16.609Z" fill="#333"/><path d="M80.165,3.734h3.2l4.744,13.95,4.71-13.95H96v16.5H93.866V10.5c0-.338.008-.894.023-1.674s.022-1.613.022-2.5L89.2,20.232H86.986L82.231,6.318v.506q0,.608.034,1.848T82.3,10.5v9.736H80.165Z" fill="#333"/></svg>