<svg xmlns="http://www.w3.org/2000/svg" width="40" height="36.926" viewBox="0 0 40 36.926"><g transform="translate(0.114 -20.891)"><path d="M39.663,25.058a2.846,2.846,0,0,0-1.539-2.138,30.42,30.42,0,0,0-11-2.031A24.088,24.088,0,0,0,9.945,27.677c-7.8,7.589-7.035,16.134-6.2,22.584C2.483,51.843.655,53.514-.005,55.182s1.84,3.32,3.222,2.343,2.265-3.05,3.415-4.5c.413.032.82.061,1.239.094,2.055.167,4.18.34,6.374.34,5.751,0,13.248-1.066,20.246-9.376C39.1,38.6,40.482,28.51,39.663,25.058ZM31.88,41.883c-6.055,7.19-12.312,8.159-17.635,8.159-1.909,0-3.815-.144-5.669-.292,6.51-7.735,14.176-13.549,19.8-17.786s2.22-3.845-3.547-.246A73.2,73.2,0,0,0,6.842,47.389c-.56-5.607-.285-11.649,5.485-17.267a20.468,20.468,0,0,1,14.8-5.818A27.868,27.868,0,0,1,36.369,25.9C36.952,28.107,35.791,37.238,31.88,41.883Z" transform="translate(0 0)" fill="#424242"/></g></svg>