<svg xmlns="http://www.w3.org/2000/svg" xmlns:xlink="http://www.w3.org/1999/xlink" width="32" height="40" viewBox="0 0 32 40"><defs><clipPath id="a"><rect width="32" height="40" fill="none"/></clipPath></defs><g clip-path="url(#a)"><path d="M3,40a2.877,2.877,0,0,1-2.1-.9A2.877,2.877,0,0,1,0,37V3A2.877,2.877,0,0,1,.9.9,2.877,2.877,0,0,1,3,0H29a2.877,2.877,0,0,1,2.1.9A2.877,2.877,0,0,1,32,3V37a3.076,3.076,0,0,1-3,3Z" fill="#424242"/><path d="M29,6.75l-2.581,4.115a1,1,0,0,1-.847.468H6.654a1,1,0,0,1-.827-.436L3,6.75V37H29Z" fill="#fff"/><path d="M24.425,8.943,29,3H3L7.825,8.962a1,1,0,0,0,.777.371H23.633a1,1,0,0,0,.792-.39" fill="#fff"/></g></svg>