<svg xmlns="http://www.w3.org/2000/svg" width="40" height="32" viewBox="0 0 40 32"><g transform="translate(-5659 21103)"><path d="M7,8l3.7,7.6h6.5L13.5,8h4.45l3.7,7.6h6.5L24.45,8H28.9l3.7,7.6h6.5L35.4,8H41a2.878,2.878,0,0,1,2.1.9A2.878,2.878,0,0,1,44,11V37a3.076,3.076,0,0,1-3,3H7a2.878,2.878,0,0,1-2.1-.9A2.878,2.878,0,0,1,4,37V11a2.878,2.878,0,0,1,.9-2.1A2.878,2.878,0,0,1,7,8ZM7,18.6V37H41V18.6Zm0,0v0Z" transform="translate(5655 -21111)" fill="#424242"/><path d="M4.5,0,9,7H0Z" transform="translate(5683.5 -21088) rotate(90)" fill="#424242"/></g></svg>