<svg xmlns="http://www.w3.org/2000/svg" xmlns:xlink="http://www.w3.org/1999/xlink" width="96" height="96" viewBox="0 0 96 96"><defs><clipPath id="a"><rect width="88" height="88" fill="none"/></clipPath></defs><rect width="96" height="96" fill="none"/><g transform="translate(4 4)"><rect width="79" height="79" transform="translate(9 9)" fill="#575757"/><rect width="80" height="80" fill="#575757"/><rect width="70" height="70" transform="translate(5 5)" fill="#fff"/><g clip-path="url(#a)"><path d="M48.039,23.43A13.94,13.94,0,0,1,53.964,28.5a16.842,16.842,0,0,1,2.73,7.086,43.721,43.721,0,0,1,.3,6.8H32.026q.205,5.157,3.584,7.232a9.1,9.1,0,0,0,4.94,1.29,6.958,6.958,0,0,0,6.821-3.931h9.15A11.179,11.179,0,0,1,53.2,53.176q-4.6,5-12.894,5A18.684,18.684,0,0,1,28.23,53.958Q23,49.74,23,40.236q0-8.907,4.722-13.66a16.525,16.525,0,0,1,12.257-4.752,19.5,19.5,0,0,1,8.06,1.606M34.632,31.172a9.316,9.316,0,0,0-2.387,5.306H47.686A7.482,7.482,0,0,0,45.3,31.062a7.856,7.856,0,0,0-5.317-1.848,7.11,7.11,0,0,0-5.35,1.958" fill="#575757"/></g></g></svg>