<svg xmlns="http://www.w3.org/2000/svg" width="40" height="31.332" viewBox="0 0 40 31.332"><g transform="translate(-662.955 -373.539)"><path d="M689.72,373.824a1.711,1.711,0,0,0-1.889,0l-9.761,5.857H666.7a3.761,3.761,0,0,0-3.747,3.779v7.587a3.763,3.763,0,0,0,3.779,3.748h4.408l-1.26,10.076h3.779l1.26-10.076h3.149l9.761,5.857a1.716,1.716,0,0,0,1.889,0,1.806,1.806,0,0,0,.945-1.637V375.461A1.8,1.8,0,0,0,689.72,373.824Zm-2.834,21.853-7.809-4.66H666.734v-7.557h12.343l7.809-4.66Z" transform="translate(0)" fill="#424242"/><path d="M690.413,382.688l-.008-.016,0,.008a7.374,7.374,0,0,0-1.753-2.358,1.26,1.26,0,0,0-1.682,1.877,4.849,4.849,0,0,1,1.151,1.547,4.781,4.781,0,0,1,0,3.983,4.849,4.849,0,0,1-1.151,1.547,1.26,1.26,0,0,0,1.682,1.877,7.375,7.375,0,0,0,1.753-2.358l0-.009a7.3,7.3,0,0,0,0-6.1Z" transform="translate(6.125 1.677)" fill="#424242"/><path d="M694.863,381.338l-.005-.009a12.5,12.5,0,0,0-2.98-4.008,1.259,1.259,0,1,0-1.68,1.877,9.97,9.97,0,0,1,2.377,3.2,9.879,9.879,0,0,1,0,8.242,9.984,9.984,0,0,1-2.377,3.2,1.259,1.259,0,1,0,1.68,1.877,12.5,12.5,0,0,0,2.98-4.008l0-.008h0a12.411,12.411,0,0,0,0-10.353Z" transform="translate(6.961 0.898)" fill="#424242"/></g></svg>