<svg xmlns="http://www.w3.org/2000/svg" width="44" height="24" viewBox="0 0 44 24"><path d="M5.5,36a3.372,3.372,0,0,1-2.475-1.025,3.5,3.5,0,0,1,0-4.95A3.372,3.372,0,0,1,5.5,29q.25,0,.5.025a4.767,4.767,0,0,1,.65.125l10-10a4.767,4.767,0,0,1-.125-.65q-.025-.25-.025-.5a3.5,3.5,0,0,1,5.975-2.475A3.372,3.372,0,0,1,23.5,18q0,.1-.15,1.15l5.5,5.5a4.767,4.767,0,0,1,.65-.125q.25-.025.5-.025t.5.025a4.767,4.767,0,0,1,.65.125l8-8a4.767,4.767,0,0,1-.125-.65Q39,15.75,39,15.5a3.5,3.5,0,1,1,5.975,2.475A3.372,3.372,0,0,1,42.5,19q-.25,0-.5-.025a4.767,4.767,0,0,1-.65-.125l-8,8a4.767,4.767,0,0,1,.125.65q.025.25.025.5a3.5,3.5,0,1,1-7,0q0-.25.025-.5a4.767,4.767,0,0,1,.125-.65l-5.5-5.5a4.767,4.767,0,0,1-.65.125q-.25.025-.5.025-.1,0-1.15-.15l-10,10a4.767,4.767,0,0,1,.125.65q.025.25.025.5a3.372,3.372,0,0,1-1.025,2.475A3.372,3.372,0,0,1,5.5,36Z" transform="translate(-2 -12)" fill="#424242"/></svg>