<svg xmlns="http://www.w3.org/2000/svg" width="36.364" height="40" viewBox="0 0 36.364 40"><path d="M98.182,147.818ZM82.727,159.636A2.8,2.8,0,0,1,80,156.909V138.727A2.8,2.8,0,0,1,82.727,136h30.909a2.8,2.8,0,0,1,2.727,2.727v18.182a2.8,2.8,0,0,1-2.727,2.727h-6.773a6.438,6.438,0,0,0,.318-1.318,10.655,10.655,0,0,0,.091-1.409h6.364V138.727H82.727v18.182h6.364a10.655,10.655,0,0,0,.091,1.409,6.438,6.438,0,0,0,.318,1.318ZM90,150l1.24-2.76L94,146l-2.76-1.24L90,142l-1.24,2.76L86,146l2.76,1.24Zm16.366-3.318a2.488,2.488,0,1,0-1.773-.727,2.4,2.4,0,0,0,1.773.727ZM85.455,176v-3.818a5.318,5.318,0,0,1,.886-2.955,5.557,5.557,0,0,1,2.341-2.045,21.712,21.712,0,0,1,4.636-1.568,22.888,22.888,0,0,1,9.727,0,21.712,21.712,0,0,1,4.636,1.568,5.557,5.557,0,0,1,2.341,2.045,5.318,5.318,0,0,1,.886,2.955V176Zm2.727-2.727h20v-1.091a2.554,2.554,0,0,0-.455-1.469,2.991,2.991,0,0,0-1.227-1.031,20.255,20.255,0,0,0-4.045-1.386,19.365,19.365,0,0,0-8.545,0,20.255,20.255,0,0,0-4.045,1.386,2.991,2.991,0,0,0-1.227,1.031,2.554,2.554,0,0,0-.455,1.469Zm10-10a6.363,6.363,0,1,1,4.5-1.864A6.132,6.132,0,0,1,98.182,163.273Zm-.011-2.727a3.532,3.532,0,0,0,2.579-1.058,3.479,3.479,0,0,0,1.068-2.568,3.532,3.532,0,0,0-1.058-2.579,3.479,3.479,0,0,0-2.568-1.068,3.532,3.532,0,0,0-2.579,1.058,3.479,3.479,0,0,0-1.068,2.568,3.532,3.532,0,0,0,1.058,2.579A3.479,3.479,0,0,0,98.171,160.545ZM98.182,156.909ZM98.182,173.273Z" transform="translate(-80 -136)" fill="#424242"/></svg>