<svg xmlns="http://www.w3.org/2000/svg" width="45" height="45" viewBox="0 0 45 45"><g transform="translate(-4397 21223)"><g transform="translate(4399.503 -21242.484)"><path d="M317.868,47.1l.793-.8a2.917,2.917,0,0,1,2.61-.572,7.109,7.109,0,0,0,7.157-2.01,11.164,11.164,0,0,0,1.222-1.659.437.437,0,0,0,.072-.365l-.15-.618a.443.443,0,0,0-.205-.276.435.435,0,0,0-.339-.043l-4.764,1.326a.441.441,0,0,1-.474-.165L321.6,38.9a.435.435,0,0,1-.079-.317l.441-3.2a.437.437,0,0,1,.317-.364l5.032-1.4a.442.442,0,0,0,.309-.529l-.2-.809a.438.438,0,0,0-.2-.273s-.394-.261-.681-.409a7.593,7.593,0,0,0-10.991,7.876c.25,1.77.133,2.711-.631,3.519-.07.072-.289.292-.629.625Z" transform="translate(-289.738 -6.364)" fill="#424242"/><path d="M75.895,295.418c-5.34,5.174-11.166,10.8-11.166,10.8a1.021,1.021,0,0,0-.018,1.46l2.5,2.5a1.021,1.021,0,0,0,1.459-.017L79.55,299.149Z" transform="translate(-59.384 -250.355)" fill="#424242"/><path d="M208.3,188.521a1.021,1.021,0,0,0-.017-1.459L186.9,166.246l-3.434,3.435L204.348,191a1.02,1.02,0,0,0,1.46.017Z" transform="translate(-169.132 -131.274)" fill="#424242"/><path d="M19.856,24.532c-2.576-1-6.741-1.15-9.153,1.261L6.025,30.472c-.99.989-.071,1.97-.8,2.7s-1.9,0-2.557.658L.254,36.244a.877.877,0,0,0,0,1.241l3.361,3.361a.879.879,0,0,0,1.243,0l2.412-2.412c.659-.658-.073-1.826.659-2.556a1.807,1.807,0,0,1,2.682-.2l1.241,1.241,1.345.354,3.434-3.434-.4-1.3c-1.095-1.1-1.251-2.365-.565-3.051a15.3,15.3,0,0,1,4.459-3.254C21.177,25.813,20.86,24.77,19.856,24.532ZM15.2,30.068s.458-.569.466-.576Z" transform="translate(0 0)" fill="#424242"/></g><rect width="45" height="45" transform="translate(4397 -21223)" fill="none"/></g></svg>