<svg xmlns="http://www.w3.org/2000/svg" width="38" height="41.801" viewBox="0 0 38 41.801"><path d="M34.55,44a9.475,9.475,0,0,1-9.45-9.45,9.475,9.475,0,0,1,9.45-9.45A9.475,9.475,0,0,1,44,34.55,9.475,9.475,0,0,1,34.55,44Zm2.2-5.1a.99.99,0,1,0,1.4-1.4L35.1,34.45V29.8a.939.939,0,0,0-.95-.95,1.025,1.025,0,0,0-1,1v4.7a1.468,1.468,0,0,0,.1.55,1.989,1.989,0,0,0,.3.5ZM9,41.3a2.988,2.988,0,0,1-3-3V9.2a3.093,3.093,0,0,1,.775-2.125Q7.55,6.2,8.1,6.2H18.2a5.014,5.014,0,0,1,8.075-2.875A4.832,4.832,0,0,1,28,6.2H38.1a2.988,2.988,0,0,1,3,3V23.95a14.021,14.021,0,0,0-1.475-.775A13.753,13.753,0,0,0,38.1,22.6V9.2H32.8v3.5a2.988,2.988,0,0,1-3,3H17.3a2.988,2.988,0,0,1-3-3V9.2H9V38.3H22.65a12.436,12.436,0,0,0,.6,1.475A16.113,16.113,0,0,0,24.1,41.3ZM24,9a1.964,1.964,0,0,0,2-2,2,2,0,1,0-4,0,1.964,1.964,0,0,0,2,2Z" transform="translate(-6 -2.199)" fill="#424242"/></svg>